<svg xmlns="http://www.w3.org/2000/svg" xmlns:xlink="http://www.w3.org/1999/xlink" width="500.0" height="417.5709690442309" viewBox="0.0 0.0 500.0 417.5709690442309" preserveAspectRatio="xMinYMin meet"><g transform="matrix(1,0,0,-1,0,417.5709690442309)"><g><g><path fill-rule="evenodd" fill="#D2EBD9" stroke="#A6A6A6" stroke-width="0.25" opacity="1" d="M 266.1266126612661,365.5781841197317 L 190.46904690469046,417.5709690442309 L 169.16691669166914,415.9840406690253 L 128.26282628262825,400.2818020090962 L 84.15841584158416,402.5786720258412 L 62.65626562656265,327.9095158451146 L 74.2074207420742,318.09561668265894 L 89.75897589758975,318.09561668265894 L 104.26042604260425,315.2976113895333 L 111.5111511151115,305.44195095404586 L 119.81198119811981,281.470980233835 L 132.26322632263225,268.81731450522193 L 151.96519651965195,263.1795426459389 L 175.8175817581758,257.54177078665583 L 194.46944694469445,254.7437654935302 L 207.9207920792079,253.3238822104515 L 211.07110711071107,275.87496964758367 L 220.37203720372037,294.16640723547977 L 234.92349234923492,308.23995624717156 L 253.57535753575357,313.8777281064546 L 268.07680768076807,319.5154999657376 L 268.07680768076807,336.4288155435868 L 266.1266126612661,365.5781841197317 z" /><path fill-rule="evenodd" fill="#D2EBD9" stroke="#A6A6A6" stroke-width="0.25" opacity="1" d="M 266.1266126612661,365.5781841197317 L 268.07680768076807,336.4288155435868 L 268.07680768076807,319.5154999657376 L 253.57535753575357,313.8777281064546 L 234.92349234923492,308.23995624717156 L 220.37203720372037,294.16640723547977 L 211.07110711071107,275.87496964758367 L 207.9207920792079,253.3238822104515 L 229.72297229722972,256.1636487766089 L 276.37763776377636,256.1636487766089 L 309.53095309530954,263.1795426459389 L 338.58385838583854,267.39743122214327 L 365.53655365536554,267.39743122214327 L 385.23852385238524,275.87496964758367 L 390.4390439043904,258.96165406973455 L 395.58955895589554,235.0324446225554 L 410.1410141014101,227.97478948019366 L 423.5923592359236,219.53901232778495 L 433.0933093309331,210.26800971474174 L 439.4939493949395,226.55490619711497 L 464.99649964996496,251.4028636509921 L 500.0,254.70200422049848 L 482.69826982698265,279.8840518586294 L 450.2950295029503,289.94851865927546 L 427.79277927792776,304.23087403612584 L 439.8939893989399,342.6930064983457 L 281.4281428142814,358.35348388524307 L 266.1266126612661,365.5781841197317 z" /><path fill-rule="evenodd" fill="#D2EBD9" stroke="#A6A6A6" stroke-width="0.25" opacity="1" d="M 433.0933093309331,210.26800971474174 L 423.5923592359236,219.53901232778495 L 410.1410141014101,227.97478948019366 L 395.58955895589554,235.0324446225554 L 390.4390439043904,258.96165406973455 L 385.23852385238524,275.87496964758367 L 365.53655365536554,267.39743122214327 L 338.58385838583854,267.39743122214327 L 309.53095309530954,263.1795426459389 L 276.37763776377636,256.1636487766089 L 229.72297229722972,256.1636487766089 L 207.9207920792079,253.3238822104515 L 208.97089708970896,233.6125613394767 L 208.97089708970896,206.8853465991719 L 226.6226622662266,208.3052298822506 L 236.97369736973695,202.66745802296754 L 241.1241124112411,185.79590371815013 L 259.7759775977598,175.94024328266275 L 281.57815781578154,180.1581318588671 L 310.58105810581054,177.36012656574144 L 327.1827182718272,168.882588140301 L 344.7844784478448,153.4309171185623 L 349.28492849284925,130.33693313201766 L 353.18531853185317,128.75000475681207 L 356.7856785678568,122.90342653237039 L 373.3373337333733,116.84804194277008 L 390.18901890189017,117.05684830792872 L 405.7405740574057,124.32330981544908 L 419.041904190419,140.06730974840988 L 424.042404240424,187.25754827426056 L 433.0933093309331,210.26800971474174 z" /><path fill-rule="evenodd" fill="#D2EBD9" stroke="#A6A6A6" stroke-width="0.25" opacity="1" d="M 62.65626562656265,327.9095158451146 L 31.853185318531853,315.2976113895333 L 25.65256525652565,303.896783851872 L 17.85178517851785,284.7701208033414 L 16.15161516151615,266.8962959457625 L 27.8027802780278,259.0034153427663 L 27.652765276527653,251.69519256221417 L 4.6004600460046,211.60437045175698 L 0.0,190.09731484041794 L 31.4031403140314,194.3152034166223 L 55.9055905590559,172.390535074966 L 60.65606560656065,142.48946358425002 L 74.2074207420742,153.4309171185623 L 92.85928592859285,163.28657755404967 L 112.56125612561256,168.882588140301 L 134.3134313431343,181.5780151419458 L 155.06550655065504,195.65156415363754 L 174.76747674767475,199.8694527298419 L 191.36913691369136,206.8853465991719 L 208.97089708970896,206.8853465991719 L 208.97089708970896,233.6125613394767 L 207.9207920792079,253.3238822104515 L 194.46944694469445,254.7437654935302 L 175.8175817581758,257.54177078665583 L 151.96519651965195,263.1795426459389 L 132.26322632263225,268.81731450522193 L 119.81198119811981,281.470980233835 L 111.5111511151115,305.44195095404586 L 104.26042604260425,315.2976113895333 L 89.75897589758975,318.09561668265894 L 74.2074207420742,318.09561668265894 L 62.65626562656265,327.9095158451146 z" /><path fill-rule="evenodd" fill="#D2EBD9" stroke="#A6A6A6" stroke-width="0.25" opacity="1" d="M 60.65606560656065,142.48946358425002 L 33.15331533153315,122.6110976211483 L 25.202520252025202,120.56479524259372 L 1.6001600160016,109.74862552737662 L 41.8041804180418,46.856148341596864 L 41.8041804180418,23.177506532608074 L 57.8057805780578,11.275543718566091 L 142.2142214221422,0.0 L 153.6153615361536,1.5451671021738718 L 169.7169716971697,10.482079530963292 L 178.51785178517852,21.21472670011694 L 184.56845684568455,32.072657688365766 L 192.36923692369237,40.96780884412346 L 231.7231723172317,46.104445427025794 L 227.6227622762276,69.07314559447524 L 225.57255725572557,88.74270519241831 L 234.92349234923492,105.61425949723572 L 220.37203720372037,108.41226479036138 L 197.56975697569757,105.61425949723572 L 171.66716671667166,101.39637092103136 L 153.015301530153,108.41226479036138 L 129.16291629162916,114.05003664964443 L 120.86208620862085,122.48581380205313 L 115.66156615661565,140.77725138994924 L 114.6114611461146,152.0110338354836 L 112.56125612561256,168.882588140301 L 92.85928592859285,163.28657755404967 L 74.2074207420742,153.4309171185623 L 60.65606560656065,142.48946358425002 z" /><path fill-rule="evenodd" fill="#D2EBD9" stroke="#A6A6A6" stroke-width="0.25" opacity="1" d="M 349.28492849284925,130.33693313201766 L 344.7844784478448,153.4309171185623 L 327.1827182718272,168.882588140301 L 310.58105810581054,177.36012656574144 L 281.57815781578154,180.1581318588671 L 259.7759775977598,175.94024328266275 L 241.1241124112411,185.79590371815013 L 236.97369736973695,202.66745802296754 L 226.6226622662266,208.3052298822506 L 208.97089708970896,206.8853465991719 L 199.66996699669966,191.39191430440147 L 184.1184118411841,175.94024328266275 L 176.8176817681768,166.08458284717534 L 168.56685668566857,150.63291182543662 L 157.1157115711571,130.92159095446183 L 140.56405640564054,121.06593051897444 L 129.16291629162916,114.05003664964443 L 153.015301530153,108.41226479036138 L 171.66716671667166,101.39637092103136 L 197.56975697569757,105.61425949723572 L 220.37203720372037,108.41226479036138 L 234.92349234923492,105.61425949723572 L 225.57255725572557,88.74270519241831 L 227.6227622762276,69.07314559447524 L 231.7231723172317,46.104445427025794 L 280.2780278027803,52.41039765481646 L 324.9324932493249,71.32825433818846 L 340.03400340034,122.31876870992622 L 345.0845084508451,128.24886948043135 L 349.28492849284925,130.33693313201766 z" /><path fill-rule="evenodd" fill="#D2EBD9" stroke="#A6A6A6" stroke-width="0.25" opacity="1" d="M 208.97089708970896,206.8853465991719 L 191.36913691369136,206.8853465991719 L 174.76747674767475,199.8694527298419 L 155.06550655065504,195.65156415363754 L 134.3134313431343,181.5780151419458 L 112.56125612561256,168.882588140301 L 114.6114611461146,152.0110338354836 L 115.66156615661565,140.77725138994924 L 120.86208620862085,122.48581380205313 L 129.16291629162916,114.05003664964443 L 140.56405640564054,121.06593051897444 L 157.1157115711571,130.92159095446183 L 168.56685668566857,150.63291182543662 L 176.8176817681768,166.08458284717534 L 184.1184118411841,175.94024328266275 L 199.66996699669966,191.39191430440147 L 208.97089708970896,206.8853465991719 z" /></g></g></g></svg>