<svg xmlns="http://www.w3.org/2000/svg" xmlns:xlink="http://www.w3.org/1999/xlink" width="499.94999499949995" height="393.81008537486196" viewBox="0.0 0.0 499.94999499949995 393.81008537486196" preserveAspectRatio="xMinYMin meet"><g transform="matrix(1,0,0,-1,0,393.81008537486196)"><g><g><g><path fill-rule="evenodd" fill="#D2EBD9" stroke="#A6A6A6" stroke-width="0.25" opacity="1" d="M 496.39999503500707,303.8154814063091 L 495.89999504000804,300.664685643734 L 492.99999506901383,299.16805765651077 L 490.59999509301866,298.3015888218026 L 486.34999513552714,295.0720231651631 L 484.64999515253055,294.3237091715515 L 482.99999516903387,294.7963285359378 L 481.69999518203645,295.4264876884528 L 481.64999518253654,296.096031788 L 480.3499951955392,295.5840274765816 L 477.3999952250451,295.3083328473562 L 476.79999523104624,294.87509843000214 L 476.6999952320465,294.08739948935835 L 477.24999522654537,291.6849177203948 L 477.29999522604527,289.1248961633025 L 476.09999523804765,281.83868096234744 L 475.99999523904785,280.499592763253 L 476.3999952350471,278.5697303586757 L 477.19999522704546,276.20663353674433 L 478.449995214543,275.8915539604869 L 479.09999520804166,275.4189345961006 L 486.49999513402685,267.4631752955983 L 488.24999511652334,263.1308311220575 L 489.44999510452095,264.5486892152163 L 490.29999509601925,267.6994849777914 L 490.8999950900181,268.2508742362421 L 491.49999508401686,269.11734307095026 L 491.99999507901583,271.6773646280426 L 491.8999950800161,272.4650635686864 L 491.24999508651734,273.4890721915233 L 490.8999950900181,275.85216901345467 L 490.64999509251857,276.758022795195 L 489.74999510152037,278.6091153057079 L 489.7999951010203,279.0817346700942 L 490.7999950910183,279.3180443522873 L 491.69999508201647,279.27865940525515 L 497.79999502100424,277.9395712061607 L 498.14999501750356,294.08739948935835 L 499.14999500750156,299.0892877624464 L 499.449995004501,302.5157781542469 L 499.89999500000005,304.76072013508167 L 499.94999499949995,306.9662771688843 L 497.14999502750555,304.8788749761783 L 496.39999503500707,303.8154814063091 z" /><path fill-rule="evenodd" fill="#D2EBD9" stroke="#A6A6A6" stroke-width="0.25" opacity="1" d="M 487.24999512652533,308.0690556857856 L 487.84999512052417,310.07768798442726 L 488.44999511452295,311.3380062894573 L 489.49999510402085,312.2438600711977 L 493.39999506501306,314.56757194609685 L 497.5999950230047,318.4272967552514 L 498.04999501850375,318.66360643744457 L 497.94999501950394,319.84515484841023 L 498.5999950130027,330.47909054710135 L 496.29999503600726,338.23792511244267 L 495.44999504450897,339.53762836450494 L 493.7499950615124,339.9314778348268 L 491.34999508551715,340.87671656359936 L 489.14999510752153,342.17641981566163 L 484.84999515053016,340.91610151063156 L 483.1499951675336,340.60102193437405 L 481.54999518353674,341.0736412987603 L 480.79999519103825,341.9401101334685 L 479.74999520154034,344.2638220083677 L 478.84999521054215,345.0121360019793 L 476.3999952350471,345.44537041933336 L 475.99999523904785,345.68168010152647 L 474.5999952530507,344.7364413727539 L 470.24999529655935,343.51550801475605 L 468.8499953105622,343.4761230677239 L 467.29999532606524,343.83058759101357 L 466.79999533106627,343.6730478028848 L 464.9999953490699,342.2945746567582 L 462.449995374575,339.57701331153714 L 461.2999953860773,338.9074692119899 L 460.3999953950791,338.6317745827646 L 458.94999540958196,338.78931437089335 L 457.84999542058415,338.6317745827646 L 456.99999542908586,337.96223048321735 L 456.6499954325866,337.21391648960577 L 456.5999954330867,336.3474476548976 L 457.14999542758557,333.98435083296624 L 457.14999542758557,333.0784970512259 L 457.99999541908386,329.3369270831679 L 458.2499954165834,327.4464496256228 L 458.5999954130827,326.6981356320112 L 458.99999540908186,326.46182594981804 L 461.3499953855772,325.831666797303 L 464.54999535357075,326.10736142652837 L 466.74999533156637,326.02859153246396 L 467.9999953190639,326.46182594981804 L 469.39999530506105,327.5252195196872 L 470.09999529805964,327.7615292018803 L 470.59999529305867,327.7221442548481 L 470.9999952890579,327.56460446671935 L 471.49999528405687,327.0526001553009 L 472.8999952700541,325.20150764478797 L 473.44999526455297,323.58672481646823 L 473.19999526705345,322.56271619363133 L 472.54999527355477,321.5387075707944 L 470.0499952985598,318.7423763315089 L 469.6999953020605,318.03344728492954 L 470.49999529405886,316.45804940364195 L 470.8499952905582,316.18235477441664 L 472.09999527805564,316.0248149862879 L 472.94999526955394,316.2217397214488 L 473.6999952620525,315.94604509222347 L 474.14999525755155,315.1583461515797 L 474.34999525555116,312.8346342766805 L 473.99999525905184,311.92878049494016 L 473.5499952635528,311.61370091868264 L 472.94999526955394,311.61370091868264 L 472.39999527505506,311.4167761835217 L 470.9999952890579,309.9595331433307 L 470.19999529705944,309.4869137789444 L 469.29999530606125,309.32937399081567 L 468.19999531706344,309.4869137789444 L 463.0999953680737,310.9835417661676 L 462.449995374575,311.37739123648953 L 461.0999953880777,313.149713852938 L 460.2999953960793,313.81925795248526 L 458.3999954150831,308.14782557984995 L 460.1999953970795,307.2813567451418 L 460.64999539257855,306.690582539659 L 460.89999539007806,305.863498651983 L 460.449995394579,304.6819502410173 L 457.79999542108425,302.4370082601825 L 458.99999540908186,299.010517868382 L 458.69999541208244,295.93849199987125 L 462.59999537307465,295.70218231767814 L 464.1999953570715,295.22956295329186 L 465.44999534456895,295.19017800625966 L 467.34999532556515,295.7809522117425 L 468.34999531556315,295.7809522117425 L 471.44999528455696,295.1114081121953 L 472.54999527355477,295.26894790032406 L 473.19999526705345,295.62341242361373 L 473.7499952615524,296.4504963112897 L 474.6499952525506,297.1594253578691 L 474.8499952505502,297.6320447222554 L 474.7499952515504,298.85297808025325 L 474.89999525005004,299.64067702089704 L 475.34999524554917,300.46776090857304 L 477.74999522154434,302.27946847205374 L 478.29999521604327,302.90962762456877 L 478.84999521054215,303.9730211944379 L 478.5999952130427,304.20933087663104 L 476.4999952340469,304.20933087663104 L 476.14999523754756,304.3668706647598 L 475.449995244549,305.23333949946795 L 475.04999524854975,305.4302642346289 L 473.7999952610523,305.35149434056456 L 473.49999526405287,305.62718896978987 L 473.5999952630527,306.1391932812083 L 474.99999524904985,307.6358212684315 L 475.7999952410483,308.22659547391436 L 476.6499952325466,308.5416750501719 L 477.04999522854575,308.50229010313967 L 480.3999951950391,307.5964363213993 L 480.69999519203844,307.39951158623836 L 480.79999519103825,307.16320190404525 L 480.5499951935388,306.493657804498 L 480.64999519253854,305.8241137049508 L 481.4999951840369,305.4302642346289 L 484.39999515503104,305.9422685460474 L 487.24999512652533,308.0690556857856 z" /><path fill-rule="evenodd" fill="#D2EBD9" stroke="#A6A6A6" stroke-width="0.25" opacity="1" d="M 492.7999950710143,260.0194203065145 L 491.99999507901583,259.6255708361926 L 488.79999511102227,260.2557299887076 L 487.0999951280257,260.37388482980424 L 486.44999513452694,258.05017295490507 L 488.19999511702343,256.7110847558106 L 488.69999511202246,255.41138150374834 L 489.24999510652134,256.0021557092312 L 492.19999507701544,258.0895579019372 L 492.7499950715144,259.2317213658707 L 492.7999950710143,260.0194203065145 z" /></g><g><path fill-rule="evenodd" fill="#D2EBD9" stroke="#A6A6A6" stroke-width="0.25" opacity="1" d="M 496.39999503500707,303.8154814063091 L 497.14999502750555,304.8788749761783 L 499.94999499949995,306.9662771688843 L 499.89999500000005,307.5964363213993 L 499.5499950035008,308.50229010313967 L 497.5499950235048,312.2438600711977 L 497.449995024505,313.3072536410668 L 498.24999501650336,314.7251117342256 L 498.39999501500307,315.59158056893375 L 498.04999501850375,318.66360643744457 L 497.5999950230047,318.4272967552514 L 493.39999506501306,314.56757194609685 L 489.49999510402085,312.2438600711977 L 488.44999511452295,311.3380062894573 L 487.84999512052417,310.07768798442726 L 487.24999512652533,308.0690556857856 L 490.34999509551915,307.67520621546373 L 492.29999507601525,304.6819502410173 L 496.39999503500707,303.8154814063091 z" /><path fill-rule="evenodd" fill="#D2EBD9" stroke="#A6A6A6" stroke-width="0.25" opacity="1" d="M 492.99999506901383,262.0674375521884 L 493.29999506601325,265.8090075202464 L 494.34999505551116,266.95117098417984 L 499.94999499949995,267.5813301366949 L 497.74999502150433,276.6792529011306 L 497.79999502100424,277.9395712061607 L 491.69999508201647,279.27865940525515 L 490.7999950910183,279.3180443522873 L 489.7999951010203,279.0817346700942 L 489.74999510152037,278.6091153057079 L 490.64999509251857,276.758022795195 L 490.8999950900181,275.85216901345467 L 491.24999508651734,273.4890721915233 L 491.8999950800161,272.4650635686864 L 491.99999507901583,271.6773646280426 L 491.49999508401686,269.11734307095026 L 490.8999950900181,268.2508742362421 L 490.29999509601925,267.6994849777914 L 489.44999510452095,264.5486892152163 L 490.9999950890179,262.6582117576712 L 492.34999507551515,262.1068224992205 L 492.99999506901383,262.0674375521884 z" /><path fill-rule="evenodd" fill="#D2EBD9" stroke="#A6A6A6" stroke-width="0.25" opacity="1" d="M 457.6499954225846,266.91178603714764 L 457.74999542158434,268.05394950108115 L 457.09999542808566,270.45643127004473 L 455.3499954455892,273.96169155590957 L 454.94999544958995,275.1038550198431 L 454.7999954510903,278.2546507824182 L 455.04999544858975,279.75127876964143 L 457.2999954260853,285.3045563011801 L 457.94999541958396,286.2891799769848 L 457.94999541958396,286.7617993413711 L 457.04999542858576,288.3765821696909 L 455.29999544608927,290.46398436239696 L 455.14999544758956,291.52737793226606 L 456.09999543808766,293.1421607605858 L 457.5999954230847,294.3237091715515 L 458.69999541208244,295.93849199987125 L 458.99999540908186,299.010517868382 L 457.79999542108425,302.4370082601825 L 456.4999954340869,305.27272444650015 L 456.5499954335868,305.9422685460474 L 456.7499954315864,306.7299674866912 L 457.5999954230847,307.5964363213993 L 458.3999954150831,308.14782557984995 L 460.2999953960793,313.81925795248526 L 458.04999541858376,314.80388162829 L 457.3999954250851,314.7251117342256 L 456.5999954330867,314.25249236983933 L 456.24999543658737,313.149713852938 L 455.79999544108824,310.55030734881353 L 454.3999954550911,307.47828148030277 L 452.6999954720945,309.9989180903629 L 450.7999954910983,310.03830303739505 L 450.49999549409887,309.76260840816974 L 450.34999549559916,309.3687589378479 L 450.8499954905982,307.91151589765684 L 451.19999548709745,305.9422685460474 L 451.09999548809765,305.0757997113392 L 450.7999954910983,304.406255611792 L 450.19999549709945,303.9730211944379 L 447.949995519604,303.1853222537941 L 445.949995539608,302.2400835250216 L 444.54999555361076,301.9250039487641 L 441.74999558161636,301.9643888957962 L 440.74999559161836,302.35823836611814 L 440.0999955981197,302.90962762456877 L 439.2499956066214,304.13056098256664 L 438.1999956171235,306.5724276985624 L 437.4999956241249,309.5656836730088 L 436.6999956321265,310.9441568191354 L 435.3999956451291,312.44078480635864 L 430.5999956931387,316.73374403286726 L 428.5999957131427,318.1122171789939 L 421.2999957861573,321.1054731534403 L 420.0499957986598,321.97194198814844 L 416.94999582966597,324.65011838633734 L 409.7999959011803,329.0218475069104 L 408.29999591618326,326.6981356320112 L 407.6499959226846,325.2802775388524 L 408.8999959101821,324.61073343930514 L 407.7999959211843,323.62610976350044 L 407.39999592518507,322.917180716921 L 408.7499959116824,322.01132693518065 L 410.3999958951791,321.6568624118909 L 412.99999586917386,320.12084947763555 L 414.1999958571715,319.64823011324927 L 420.449995794659,318.5060666493158 L 421.4999957841569,318.0728322319617 L 421.949995779656,317.52144297351106 L 420.59999579315866,313.6617181643565 L 419.64999580266056,312.00755038900456 L 419.0499958086618,311.4955460775861 L 418.3499958156632,311.37739123648953 L 409.5999959031807,311.8500106008758 L 405.949995939688,312.6377095415196 L 402.7999959711943,313.77987300545306 L 400.3999959951991,315.39465583377284 L 398.5999960132027,312.8740192237127 L 396.4999960342069,311.062311660232 L 395.449996044709,311.96816544197236 L 394.2499960567114,311.2592363953929 L 393.6499960627126,310.11707293145946 L 393.5499960637128,308.69921483830063 L 394.04999605871177,307.2813567451418 L 392.449996074715,307.3601266392062 L 391.5499960837168,306.9662771688843 L 390.0499960987198,305.31210939353235 L 395.5499960437088,303.65794161818036 L 398.4999960142029,303.8548663533413 L 401.949995979696,305.1151846583714 L 402.8999959701941,305.31210939353235 L 403.54999596369277,304.76072013508167 L 404.6499959526906,303.10655235972973 L 405.49999594418887,302.31885341908594 L 408.8999959101821,300.3496060674765 L 410.4999958941789,299.010517868382 L 411.29999588617727,298.0652791396095 L 418.69999581216246,293.06339086652144 L 420.3499957956592,291.3304531971051 L 421.59999578315666,288.9673563751737 L 424.59999575315067,276.3641733248731 L 424.64999575265057,275.6552442782937 L 424.0499957586518,274.1980012381027 L 421.64999578265656,271.83490441617136 L 420.64999579265856,270.0231968526906 L 421.449995784657,267.3844054015339 L 423.2499957666534,263.64283543347597 L 424.44999575465096,260.4132697768364 L 424.94999574965,258.1289428489694 L 424.94999574965,255.41138150374834 L 425.2999957461493,252.02427605898006 L 426.49999573414686,247.25869746808513 L 427.0499957286458,243.67466728815592 L 426.949995729646,240.24817689635543 L 426.54999573364677,238.08200480958502 L 425.9999957391479,236.78230155752277 L 434.09999565813166,234.6948993648167 L 438.3499956156232,234.7342843118489 L 439.3999956051211,234.97059399404205 L 438.84999561062216,236.1915273520399 L 438.6499956126226,238.31831449177815 L 439.0999956081217,242.5718887712546 L 439.0999956081217,244.73806085802502 L 438.1999956171235,253.52090404620327 L 439.2999956061213,257.0655492791003 L 442.449995574615,261.0828138763836 L 445.8499955406082,264.1942246919266 L 449.44999550460096,266.51793656682577 L 453.449995464593,267.54194518966267 L 457.6499954225846,266.91178603714764 z" /><path fill-rule="evenodd" fill="#D2EBD9" stroke="#A6A6A6" stroke-width="0.25" opacity="1" d="M 488.59999511302266,302.35823836611814 L 487.69999512202446,302.35823836611814 L 487.0999951280257,301.7674641606353 L 487.44999512452495,298.6954382921245 L 489.54999510352076,299.40436733870393 L 490.09999509801963,301.29484479624904 L 488.59999511302266,302.35823836611814 z" /><path fill-rule="evenodd" fill="#D2EBD9" stroke="#A6A6A6" stroke-width="0.25" opacity="1" d="M 477.19999522704546,276.20663353674433 L 475.99999523904785,275.53708943719715 L 475.94999523954795,274.1980012381027 L 477.99999521904385,270.8502807403666 L 479.3999952050411,267.6994849777914 L 479.79999520104025,266.28162688463266 L 479.84999520054015,265.37577310289225 L 479.14999520754156,263.52468059237935 L 478.94999520954195,261.2009687174802 L 479.4999952040409,259.9406504124501 L 480.3499951955392,259.07418157774197 L 481.3499951855372,258.71971705445225 L 486.44999513452694,258.05017295490507 L 487.0999951280257,260.37388482980424 L 488.79999511102227,260.2557299887076 L 488.24999511652334,263.1308311220575 L 486.49999513402685,267.4631752955983 L 479.09999520804166,275.4189345961006 L 478.449995214543,275.8915539604869 L 477.19999522704546,276.20663353674433 z" /></g><g><path fill-rule="evenodd" fill="#D2EBD9" stroke="#A6A6A6" stroke-width="0.25" opacity="1" d="M 484.39999515503104,305.9422685460474 L 481.4999951840369,305.4302642346289 L 480.64999519253854,305.8241137049508 L 480.5499951935388,306.493657804498 L 480.79999519103825,307.16320190404525 L 480.69999519203844,307.39951158623836 L 480.3999951950391,307.5964363213993 L 477.04999522854575,308.50229010313967 L 476.6499952325466,308.5416750501719 L 475.7999952410483,308.22659547391436 L 474.99999524904985,307.6358212684315 L 473.5999952630527,306.1391932812083 L 473.49999526405287,305.62718896978987 L 473.7999952610523,305.35149434056456 L 475.04999524854975,305.4302642346289 L 475.449995244549,305.23333949946795 L 476.14999523754756,304.3668706647598 L 476.4999952340469,304.20933087663104 L 478.5999952130427,304.20933087663104 L 478.84999521054215,303.9730211944379 L 478.29999521604327,302.90962762456877 L 477.74999522154434,302.27946847205374 L 475.34999524554917,300.46776090857304 L 474.89999525005004,299.64067702089704 L 474.7499952515504,298.85297808025325 L 474.8499952505502,297.6320447222554 L 474.6499952525506,297.1594253578691 L 473.7499952615524,296.4504963112897 L 473.19999526705345,295.62341242361373 L 472.54999527355477,295.26894790032406 L 471.44999528455696,295.1114081121953 L 468.34999531556315,295.7809522117425 L 467.34999532556515,295.7809522117425 L 465.44999534456895,295.19017800625966 L 464.1999953570715,295.22956295329186 L 462.59999537307465,295.70218231767814 L 458.69999541208244,295.93849199987125 L 457.5999954230847,294.3237091715515 L 456.09999543808766,293.1421607605858 L 455.14999544758956,291.52737793226606 L 455.29999544608927,290.46398436239696 L 457.04999542858576,288.3765821696909 L 457.94999541958396,286.7617993413711 L 457.94999541958396,286.2891799769848 L 457.2999954260853,285.3045563011801 L 455.04999544858975,279.75127876964143 L 454.7999954510903,278.2546507824182 L 454.94999544958995,275.1038550198431 L 455.3499954455892,273.96169155590957 L 457.09999542808566,270.45643127004473 L 457.74999542158434,268.05394950108115 L 457.6499954225846,266.91178603714764 L 460.74999539157835,265.06069352663474 L 461.89999538007606,261.67358808186646 L 462.79999537107426,256.63231486174624 L 465.44999534456895,254.7812223512333 L 471.14999528755754,249.54302439595213 L 477.94999521954395,249.93687386627403 L 479.4999952040409,250.64580291285344 L 483.3999951650331,251.1578072242719 L 485.2499951465294,252.06366100601224 L 488.69999511202246,255.41138150374834 L 488.19999511702343,256.7110847558106 L 486.44999513452694,258.05017295490507 L 481.3499951855372,258.71971705445225 L 480.3499951955392,259.07418157774197 L 479.4999952040409,259.9406504124501 L 478.94999520954195,261.2009687174802 L 479.14999520754156,263.52468059237935 L 479.84999520054015,265.37577310289225 L 479.79999520104025,266.28162688463266 L 479.3999952050411,267.6994849777914 L 477.99999521904385,270.8502807403666 L 475.94999523954795,274.1980012381027 L 475.99999523904785,275.53708943719715 L 477.19999522704546,276.20663353674433 L 476.3999952350471,278.5697303586757 L 475.99999523904785,280.499592763253 L 476.09999523804765,281.83868096234744 L 477.29999522604527,289.1248961633025 L 477.24999522654537,291.6849177203948 L 476.6999952320465,294.08739948935835 L 476.79999523104624,294.87509843000214 L 477.3999952250451,295.3083328473562 L 480.3499951955392,295.5840274765816 L 481.64999518253654,296.096031788 L 481.54999518353674,296.5292662053541 L 481.79999518103625,299.40436733870393 L 484.59999515303065,300.78284048483056 L 485.59999514302865,302.0037738428284 L 484.94999514952997,302.949012571601 L 484.39999515503104,305.9422685460474 z" /><path fill-rule="evenodd" fill="#D2EBD9" stroke="#A6A6A6" stroke-width="0.25" opacity="1" d="M 475.99999523904785,345.68168010152647 L 475.7999952410483,345.7998349426231 L 475.24999524654936,347.1783080887497 L 474.7499952515504,352.3377361499665 L 474.7999952510503,354.306983501576 L 475.94999523954795,355.52791685957385 L 477.29999522604527,356.55192548241075 L 477.99999521904385,358.048553469634 L 477.5499952235448,359.50579650982496 L 475.09999524804965,362.7747471134967 L 474.6499952525506,364.74399446510614 L 475.14999524754955,366.43754718749034 L 477.14999522754556,369.27326337380794 L 477.84999522054414,370.92743114915993 L 478.29999521604327,381.28567221862573 L 478.99999520904186,384.7121626104262 L 479.19999520704147,386.83894975016443 L 478.69999521204244,389.2020465720958 L 477.04999522854575,393.6525455867332 L 475.89999524004804,393.81008537486196 L 470.59999529305867,392.43161222873533 L 468.19999531706344,392.23468749357437 L 467.74999532156437,391.21067887073747 L 465.8999953400681,383.8850787227502 L 463.64999536257255,378.96196034372656 L 460.94999538957796,374.39330648799256 L 461.89999538007606,374.82654090534663 L 462.69999537207445,375.49608500489387 L 463.3499953655732,376.4019387866342 L 463.69999536207246,377.50471730353553 L 464.39999535507104,377.50471730353553 L 463.9999953590719,375.3779301637973 L 463.3499953655732,373.7237623884454 L 461.64999538257655,371.16374083135304 L 457.2999954260853,367.02832139297317 L 456.6499954325866,366.0043127701362 L 456.3999954350871,363.8381406833658 L 455.449995444589,360.56919007969407 L 455.19999544708946,358.8756373573099 L 454.7999954510903,358.48178788698806 L 454.04999545859175,358.678712622149 L 453.6499954625926,359.3876416687284 L 454.6999954520905,361.39627396737006 L 455.3499954455892,363.75937078930144 L 455.99999543908785,364.82276435917055 L 453.14999546759356,362.3808976431748 L 447.49999552410486,355.17345233628413 L 443.79999556111227,352.14081141480557 L 440.69999559211846,351.3137275271296 L 440.2499955966194,351.03803289790426 L 439.74999560162036,350.25033395726047 L 438.5999956131227,349.62017480474543 L 436.3499956356272,349.0687855462948 L 435.19999564712947,348.2023167115866 L 433.7999956611323,346.19368441294495 L 436.449995634627,343.7518176969492 L 438.2499956166234,343.3579682266273 L 439.04999560862177,342.9247338092732 L 439.5999956031207,342.0582649745651 L 442.3999955751151,332.7634174749684 L 442.9999955691139,328.5098431954919 L 442.9999955691139,327.0132152082687 L 443.2999955661133,325.8710517443352 L 443.9999955591119,324.4531936511764 L 447.8999955201041,320.19961937169995 L 448.59999551310267,319.13622580183085 L 448.54999551360277,317.99406233789733 L 447.64999552260457,316.2217397214488 L 447.7499955216044,315.2765009926763 L 450.49999549409887,312.71647943558395 L 452.6999954720945,309.9989180903629 L 454.3999954550911,307.47828148030277 L 455.79999544108824,310.55030734881353 L 456.24999543658737,313.149713852938 L 456.5999954330867,314.25249236983933 L 457.3999954250851,314.7251117342256 L 458.04999541858376,314.80388162829 L 460.2999953960793,313.81925795248526 L 461.0999953880777,313.149713852938 L 462.449995374575,311.37739123648953 L 463.0999953680737,310.9835417661676 L 468.19999531706344,309.4869137789444 L 469.29999530606125,309.32937399081567 L 470.19999529705944,309.4869137789444 L 470.9999952890579,309.9595331433307 L 472.39999527505506,311.4167761835217 L 472.94999526955394,311.61370091868264 L 473.5499952635528,311.61370091868264 L 473.99999525905184,311.92878049494016 L 474.34999525555116,312.8346342766805 L 474.14999525755155,315.1583461515797 L 473.6999952620525,315.94604509222347 L 472.94999526955394,316.2217397214488 L 472.09999527805564,316.0248149862879 L 470.8499952905582,316.18235477441664 L 470.49999529405886,316.45804940364195 L 469.6999953020605,318.03344728492954 L 470.0499952985598,318.7423763315089 L 472.54999527355477,321.5387075707944 L 473.19999526705345,322.56271619363133 L 473.44999526455297,323.58672481646823 L 472.8999952700541,325.20150764478797 L 471.49999528405687,327.0526001553009 L 470.9999952890579,327.56460446671935 L 470.59999529305867,327.7221442548481 L 470.09999529805964,327.7615292018803 L 469.39999530506105,327.5252195196872 L 467.9999953190639,326.46182594981804 L 466.74999533156637,326.02859153246396 L 464.54999535357075,326.10736142652837 L 461.3499953855772,325.831666797303 L 458.99999540908186,326.46182594981804 L 458.5999954130827,326.6981356320112 L 458.2499954165834,327.4464496256228 L 457.99999541908386,329.3369270831679 L 457.14999542758557,333.0784970512259 L 457.14999542758557,333.98435083296624 L 456.5999954330867,336.3474476548976 L 456.6499954325866,337.21391648960577 L 456.99999542908586,337.96223048321735 L 457.84999542058415,338.6317745827646 L 458.94999540958196,338.78931437089335 L 460.3999953950791,338.6317745827646 L 461.2999953860773,338.9074692119899 L 462.449995374575,339.57701331153714 L 464.9999953490699,342.2945746567582 L 466.79999533106627,343.6730478028848 L 467.29999532606524,343.83058759101357 L 468.8499953105622,343.4761230677239 L 470.24999529655935,343.51550801475605 L 474.5999952530507,344.7364413727539 L 475.99999523904785,345.68168010152647 z" /></g><g><path fill-rule="evenodd" fill="#D2EBD9" stroke="#A6A6A6" stroke-width="0.25" opacity="1" d="M 477.94999521954395,249.93687386627403 L 471.14999528755754,249.54302439595213 L 468.69999531206247,243.95036191738123 L 468.0499953185638,241.66603498951426 L 468.0999953180637,239.18478332648633 L 470.44999529455896,239.2635532205507 L 472.44999527455496,239.81494247900133 L 473.39999526505306,240.99649088996702 L 473.99999525905184,242.9263532945443 L 476.24999523654736,245.68329958679757 L 477.94999521954395,249.93687386627403 z" /><path fill-rule="evenodd" fill="#D2EBD9" stroke="#A6A6A6" stroke-width="0.25" opacity="1" d="M 390.0499960987198,305.31210939353235 L 388.449996114723,303.579171724116 L 387.8499961207242,302.5551631012791 L 388.1499961177236,301.6493093195387 L 390.19999609721947,297.750199563352 L 390.9999960892179,295.22956295329186 L 390.449996094719,293.2209306546502 L 387.5999961232247,292.31507687290986 L 388.949996109722,294.40247906561586 L 389.3999961052211,295.93849199987125 L 388.8499961107222,297.51388988115883 L 387.29999612622527,299.75883186199366 L 385.6499961427286,299.99514154418677 L 383.6499961627326,298.18343398070607 L 383.7499961617324,296.6080360994185 L 383.1999961672335,294.7963285359378 L 372.5999962732547,281.1691368628002 L 364.8499963507702,272.03182915133226 L 364.39999635527107,272.4256786216542 L 360.949996389778,271.6773646280426 L 361.49999638427687,269.3536527531434 L 356.8999964302861,266.6360914079223 L 357.8499964207842,265.49392794398887 L 370.6499962927586,228.55084762779518 L 371.6999962822565,226.34529059399256 L 372.94999626975397,224.69112281864062 L 374.9999962492499,224.02157871909338 L 377.1499962277456,223.78526903690025 L 399.1499960077016,224.65173787160842 L 401.9999959791959,225.28189702412345 L 405.1499959476896,226.46344543508914 L 412.14999587767556,230.48071003237246 L 423.59999576315266,235.20690367623519 L 425.9999957391479,236.78230155752277 L 426.54999573364677,238.08200480958502 L 426.949995729646,240.24817689635543 L 427.0499957286458,243.67466728815592 L 426.49999573414686,247.25869746808513 L 425.2999957461493,252.02427605898006 L 424.94999574965,255.41138150374834 L 424.94999574965,258.1289428489694 L 424.44999575465096,260.4132697768364 L 423.2499957666534,263.64283543347597 L 421.449995784657,267.3844054015339 L 420.64999579265856,270.0231968526906 L 421.64999578265656,271.83490441617136 L 424.0499957586518,274.1980012381027 L 424.64999575265057,275.6552442782937 L 424.59999575315067,276.3641733248731 L 421.59999578315666,288.9673563751737 L 420.3499957956592,291.3304531971051 L 418.69999581216246,293.06339086652144 L 411.29999588617727,298.0652791396095 L 410.4999958941789,299.010517868382 L 408.8999959101821,300.3496060674765 L 405.49999594418887,302.31885341908594 L 404.6499959526906,303.10655235972973 L 403.54999596369277,304.76072013508167 L 402.8999959701941,305.31210939353235 L 401.949995979696,305.1151846583714 L 398.4999960142029,303.8548663533413 L 395.5499960437088,303.65794161818036 L 390.0499960987198,305.31210939353235 z" /></g><path fill-rule="evenodd" fill="#D2EBD9" stroke="#A6A6A6" stroke-width="0.25" opacity="1" d="M 492.99999506901383,262.0674375521884 L 492.34999507551515,262.1068224992205 L 490.9999950890179,262.6582117576712 L 489.44999510452095,264.5486892152163 L 488.24999511652334,263.1308311220575 L 488.79999511102227,260.2557299887076 L 491.99999507901583,259.6255708361926 L 492.7999950710143,260.0194203065145 L 492.99999506901383,262.0674375521884 z" /><path fill-rule="evenodd" fill="#D2EBD9" stroke="#A6A6A6" stroke-width="0.25" opacity="1" d="M 462.79999537107426,256.63231486174624 L 463.1999953670735,254.19044814575048 L 460.69999539207845,256.0021557092312 L 459.3499954055812,256.7110847558106 L 457.89999542008405,257.0655492791003 L 456.09999543808766,256.4747750736175 L 455.7499954415884,255.05691698045865 L 456.4999954340869,253.3633642580745 L 460.3999953950791,249.81871902517744 L 463.44999536457294,241.94172961873957 L 466.59999533306666,239.38170806164726 L 468.0999953180637,239.18478332648633 L 468.0499953185638,241.66603498951426 L 468.69999531206247,243.95036191738123 L 471.14999528755754,249.54302439595213 L 465.44999534456895,254.7812223512333 L 462.79999537107426,256.63231486174624 z" /><g><path fill-rule="evenodd" fill="#D2EBD9" stroke="#A6A6A6" stroke-width="0.25" opacity="1" d="M 439.3999956051211,234.97059399404205 L 438.3499956156232,234.7342843118489 L 434.09999565813166,234.6948993648167 L 425.9999957391479,236.78230155752277 L 423.59999576315266,235.20690367623519 L 412.14999587767556,230.48071003237246 L 405.1499959476896,226.46344543508914 L 401.9999959791959,225.28189702412345 L 399.1499960077016,224.65173787160842 L 377.1499962277456,223.78526903690025 L 374.9999962492499,224.02157871909338 L 372.94999626975397,224.69112281864062 L 371.6999962822565,226.34529059399256 L 370.6499962927586,228.55084762779518 L 357.8499964207842,265.49392794398887 L 356.8999964302861,266.6360914079223 L 352.9999964692939,265.37577310289225 L 350.8999964902981,263.9579150097335 L 347.7499965218044,261.0434289293514 L 342.6999965723145,257.3412439083256 L 331.3999966853371,250.68518785988562 L 332.7999966713343,248.87348029640492 L 332.2999966763353,247.37685230918171 L 330.7999966913383,246.3134587393126 L 329.2499967068414,245.9983791630551 L 325.8999967403481,247.65254693840703 L 325.2999967463493,246.98300283885982 L 324.29999675635133,245.1712952753791 L 320.2499967968594,242.37496403609364 L 319.2499968068614,241.31157046622454 L 318.9999968093619,239.49986290274384 L 319.7999968013603,238.67277901506785 L 320.5499967938588,238.1607747036494 L 319.9999967993599,237.3336908159734 L 320.7499967918584,234.4192047355914 L 321.1999967873575,233.2770412716579 L 322.0999967783557,232.60749717211067 L 322.0999967783557,231.89856812553128 L 320.1999967973595,230.9927143437909 L 319.5999968033607,229.37793151547115 L 319.2999968063613,227.84191858121577 L 318.1999968173635,227.13298953463635 L 316.449996834867,226.73914006431446 L 316.0499968388678,225.8332862825741 L 316.8499968308662,224.80927765973718 L 318.54999681386283,224.10034861315776 L 314.64999685287063,216.2233592067199 L 314.1499968578716,215.86889468343017 L 312.89999687037414,213.8602623847885 L 311.9999968793759,213.9390322788529 L 309.7499969018804,214.6479613254323 L 308.5499969138828,214.72673121949668 L 310.0999968983797,213.42702796743444 L 310.7499968918784,213.11194839117692 L 308.2999969163833,212.71809892085503 L 305.7499969418884,214.6479613254323 L 303.6999969623925,217.75937214097527 L 302.8999969703941,220.91016790355042 L 302.19999697739553,220.91016790355042 L 300.8499969908982,219.1378452871019 L 300.49999699439894,218.0744517172328 L 300.7499969918984,216.9322882532993 L 299.9499969999,217.6806022469109 L 299.39999700540113,219.37415496929503 L 298.3499970159032,218.15322161129717 L 297.0499970289058,217.286752776589 L 295.7999970414083,216.9322882532993 L 295.7999970414083,216.2233592067199 L 298.2499970169034,215.63258500123703 L 304.29999695639134,211.53655050988934 L 307.09999692838574,210.9457763044065 L 309.8499969008802,210.82762146330992 L 311.79999688137633,209.8823827345374 L 312.0999968783757,206.8497418130588 L 311.449996884877,206.8497418130588 L 310.4999968943789,208.07067517105668 L 308.99999690938193,208.7402192706039 L 307.3499969258852,209.25222358202237 L 305.7999969413883,210.00053757563396 L 306.14999693788764,208.62206442950733 L 307.8999969203841,206.65281707789785 L 308.5499969138828,205.23495898473905 L 307.04999692888583,205.51065361396437 L 304.4999969543909,206.69220202493005 L 302.8999969703941,206.8497418130588 L 302.8999969703941,206.02265792538282 L 304.29999695639134,205.23495898473905 L 302.6499969728946,204.36849015003088 L 302.29999697639533,203.02940195093643 L 302.8999969703941,200.1936857646188 L 298.7999970114023,191.9622318348912 L 296.8499970309062,189.20528554263794 L 292.9999970694139,186.21202956819155 L 292.1999970774155,184.9123263161293 L 287.99999711942394,186.64526398554563 L 285.99999713942793,186.7634188266422 L 285.14999714792964,185.34556073348338 L 284.24999715693144,185.18802094535462 L 278.6999972124425,181.1313714010391 L 271.89999728045615,179.12273910239745 L 270.84999729095824,178.29565521472148 L 270.1499972979596,176.56271754530513 L 268.3999973154631,174.75100998182444 L 266.5499973339668,173.25438199460123 L 265.19999734746955,172.42729810692526 L 264.09999735847174,172.07283358363554 L 260.949997389978,171.63959916628147 L 258.19999741748353,170.33989591421923 L 255.9999974394879,169.90666149686513 L 253.94999745999203,168.84326792699602 L 247.34999752600524,167.7404894100947 L 240.94999759001803,164.31399901829423 L 239.84999760102022,163.3293753424895 L 237.24999762702544,163.01429576623198 L 224.59999775355072,163.09306566029636 L 222.54999777405484,163.80199470687577 L 221.54999778405684,163.95953449500453 L 219.99999779955994,163.01429576623198 L 216.79999783156634,161.4782828319766 L 213.89999786057214,162.46290650778133 L 212.14999787807565,161.51766777900878 L 210.99999788957794,161.32074304384784 L 209.79999790158035,161.32074304384784 L 208.94999791008203,161.4782828319766 L 208.19999791758354,162.1478269315238 L 206.89999793058615,164.19584417719767 L 206.44999793508705,164.62907859455174 L 205.49999794458896,164.90477322377708 L 204.39999795559115,165.53493237629212 L 202.49999797459495,166.99217541648312 L 201.29999798659733,166.3620162639681 L 199.74999800210045,166.2832463699037 L 198.29999801660335,166.59832594616122 L 197.19999802760555,167.38602488680502 L 195.79999804160835,168.96142276809258 L 194.84999805111025,169.5915819206076 L 193.94999806011205,169.5915819206076 L 180.64999819313866,166.83463562835436 L 174.89999825065016,167.18910015164406 L 174.09999825865174,167.8192593041591 L 172.64999827315467,170.14297117905826 L 170.94999829015805,172.07283358363554 L 168.44999831516304,174.0814658822772 L 165.74999834216845,175.34178418730727 L 163.34999836617325,174.82977987588882 L 163.64999836317264,173.37253683569782 L 163.69999836267255,172.07283358363554 L 164.09999835867174,171.00944001376644 L 165.54999834416884,170.14297117905826 L 163.79999836167235,169.74912170873637 L 161.84999838117625,170.8125152786055 L 159.69999840268056,171.63959916628147 L 155.54999844418884,169.82789160280075 L 153.64999846319265,170.73374538454112 L 150.59999849369876,173.25438199460123 L 149.69999850270057,174.4753153525991 L 149.19999850770157,174.82977987588882 L 148.54999851420285,174.7903949288566 L 148.24999851720347,173.6876164119553 L 147.74999852220446,173.25438199460123 L 144.04999855921187,171.8365239014424 L 143.09999856871377,171.63959916628147 L 134.24999865723146,172.42729810692526 L 131.84999868123626,173.25438199460123 L 130.64999869323867,173.25438199460123 L 129.54999870424086,172.93930241834371 L 127.29999872674536,171.8759088484746 L 125.99999873974797,171.63959916628147 L 123.74999876225246,171.954678742539 L 119.49999880476096,173.21499704756906 L 117.14999882826567,173.25438199460123 L 116.24999883726747,172.86053252427934 L 115.89999884076816,172.2697583187965 L 115.49999884476897,171.99406368957116 L 114.29999885677137,172.42729810692526 L 110.54999889427887,177.5473412211099 L 108.94999891028206,179.12273910239745 L 107.04999892928586,179.79228320194468 L 105.04999894928987,178.65011973801117 L 104.74999895229047,177.27164659188455 L 104.69999895279057,175.1842443991785 L 104.39999895579118,173.25438199460123 L 103.24999896729346,172.42729810692526 L 101.84999898129627,171.99406368957116 L 99.99999899979997,170.97005506673426 L 98.19999901780358,169.5915819206076 L 96.84999903130627,168.1737238274488 L 95.29999904680938,166.95279046945092 L 92.14999907831567,165.5743173233243 L 90.84999909131828,163.09306566029636 L 89.19999910782157,161.95090219636288 L 87.19999912782558,161.0844333616547 L 85.44999914532907,160.7693537853972 L 83.99999915983197,160.2967344210109 L 80.14999919833967,156.83085908217825 L 78.74999921234247,156.39762466482418 L 75.44999924534908,156.39762466482418 L 73.69999926285259,156.12193003559884 L 69.74999930236048,153.6406783725709 L 67.99999931986397,153.01051922005587 L 62.49999937487498,152.9317493259915 L 60.84999939137828,152.1440503853477 L 59.84999940138028,152.77420953786273 L 58.79999941188238,152.1440503853477 L 56.949999430386086,152.65605469676618 L 52.59999947389478,151.82897080909018 L 51.69999948289659,151.789585862058 L 48.49999951490299,153.3649837433456 L 47.19999952790559,154.58591710134345 L 46.49999953490698,154.7828418365044 L 45.74999954240849,154.58591710134345 L 39.849999601420286,154.94038162463315 L 37.59999962392479,154.58591710134345 L 37.79999962192439,153.3649837433456 L 38.39999961592319,152.4591299616052 L 38.09999961892379,151.94712565018676 L 37.29999962692539,151.94712565018676 L 36.39999963592719,152.5772848027018 L 34.59999965393079,154.34960741915032 L 33.64999966343269,154.86161173056877 L 32.44999967543509,155.25546120089066 L 27.399999725945193,155.37361604198725 L 24.949999750450093,156.04316014153446 L 23.849999761452292,158.05179244017611 L 23.649999763452694,159.15457095707742 L 22.699999772954595,161.4782828319766 L 22.449999775455094,162.69921618997446 L 22.599999773954792,166.51955605209685 L 22.449999775455094,167.7404894100947 L 21.199999787957594,173.37253683569782 L 21.049999789457893,176.01132828685448 L 22.099999778955794,183.29754348780955 L 21.799999781956394,185.77879515083745 L 19.649999803460695,189.008360807477 L 17.749999822464495,187.551117767286 L 15.749999842468496,182.6673843352945 L 16.149999838467696,182.43107465310138 L 15.999999839967995,181.87968539465072 L 15.449999845469096,181.32829613620007 L 14.599999853970797,181.1313714010391 L 13.649999863472695,181.21014129510348 L 13.149999868473696,181.48583592432882 L 12.449999875475097,182.6673843352945 L 11.449999885477096,186.21202956819155 L 10.699999892978598,187.59050271431818 L 9.699999902980597,182.47045960013355 L 8.249999917483498,180.81629182478162 L 6.749999932486498,181.76153055355414 L 6.099999938987798,185.77879515083745 L 6.099999938987798,192.3560813052131 L 5.649999943488698,194.6010232860479 L 3.449999965493099,197.83058894268743 L 2.549999974494899,199.7998362942969 L 0.49999999499899983,197.43673947236553 L 2.2999999769953994,193.38008992805 L 2.199999977995599,188.33881670792977 L 0.0,185.10925105129024 L 0.6499999934986999,180.73752193071724 L 0.3999999959991999,170.49743570234799 L 0.9499999904980997,167.54356467493378 L 2.4999999749949993,164.86538827674488 L 8.399999915983198,157.14593865843577 L 73.39999926585318,72.78338211548603 L 100.64999899329867,37.61262441574089 L 102.69999897279457,35.76153190522799 L 105.24999894728947,34.93444801755201 L 367.24999632676537,0.0 L 368.7999963112623,0.2756946292253259 L 375.6999962422485,9.294847499596703 L 376.84999623074617,25.718370412019688 L 376.1999962372475,42.18127827147486 L 376.5499962337468,45.528998769210965 L 379.7499962017404,56.39924415009524 L 389.6499961027206,73.76800579129078 L 391.949996079716,80.69975646895611 L 394.0999960582117,91.96385132016228 L 395.2999960462093,95.74480623525247 L 397.2499960267054,98.69867726266668 L 401.0999959881977,102.95225154214313 L 402.54999597369476,105.15780857594574 L 405.9999959391879,119.21823466643735 L 406.949995929686,121.14809707101463 L 411.7999958811763,128.31615743087312 L 412.19999587717547,129.8521703651285 L 411.8999958801761,138.4380888181458 L 411.3999958851771,141.7070394218175 L 409.7499959016804,144.22767603187762 L 405.9999959391879,146.47261801271245 L 404.2499959566914,148.048015894 L 403.3499959656932,150.09603313967386 L 403.7499959616924,151.789585862058 L 408.19999591718346,152.61666974973397 L 412.6499958726746,154.3102224721181 L 417.69999582216445,157.10655371140356 L 420.5499957936588,158.24871717533708 L 423.49999576415286,158.80010643378773 L 426.949995729646,158.72133653972335 L 430.29999569613926,158.1305623342405 L 431.8999956801361,158.1699472812727 L 433.5999956631327,158.8394913808199 L 435.4999956441289,159.15457095707742 L 438.1999956171235,157.0671687643714 L 440.0999955981197,156.79147413514605 L 452.19999547709546,161.79336240823412 L 458.79999541108225,163.40814523655388 L 459.94999539957996,165.2198528000346 L 456.09999543808766,172.15160347769992 L 454.84999545059014,176.99595196265923 L 453.19999546709346,181.09198645400693 L 450.09999549809964,182.39168970606917 L 444.2999955561113,180.02859288413782 L 442.54999557361475,180.1073627782022 L 436.04999563862776,181.5646058183932 L 434.7999956511303,182.15538002387603 L 434.6499956526306,183.88831769329238 L 435.449995644629,185.89694999193404 L 439.4999956041209,193.1043952988247 L 440.1499955976196,194.75856307417666 L 440.4999955941189,200.27245565868319 L 440.2999955961193,201.2176943874557 L 439.4999956041209,202.24170301029264 L 437.3999956251251,203.65956110345147 L 436.74999563162635,204.44726004409526 L 436.3999956351271,206.18019771351157 L 436.6499956326266,212.36363439756533 L 435.3499956456292,217.20798288252462 L 435.19999564712947,219.61046465148817 L 436.2499956366274,221.18586253277576 L 437.74999562162435,222.76126041406332 L 438.3999956151231,226.6209852232179 L 441.2999955861173,229.29916162140677 L 440.94999558961797,231.5047186552094 L 439.3999956051211,234.97059399404205 z" /><path fill-rule="evenodd" fill="#D2EBD9" stroke="#A6A6A6" stroke-width="0.25" opacity="1" d="M 216.79999783156634,173.96331104118065 L 219.64999780306064,173.8057712530519 L 220.69999779255855,173.4513067297622 L 222.44999777505504,172.42729810692526 L 225.54999774404882,171.127594854863 L 228.99999770954193,170.7731303315733 L 232.39999767553513,171.4426744311205 L 235.24999764702943,173.25438199460123 L 234.44999765503104,173.96331104118065 L 235.54999764402882,176.12948312795106 L 236.74999763202644,175.77501860466137 L 237.59999762352473,174.31777556447034 L 237.34999762602524,173.25438199460123 L 240.44999759501903,172.03344863660337 L 244.14999755801162,171.8759088484746 L 247.34999752600524,172.97868736537592 L 248.74999751200244,175.5780938695004 L 247.69999752250453,178.84704447317213 L 244.79999755151033,180.02859288413782 L 241.24999758701742,180.73752193071724 L 238.19999761752354,182.6673843352945 L 237.69999762252453,183.17938864671297 L 236.64999763302663,184.9123263161293 L 237.19999762752553,185.85756504490183 L 236.64999763302663,187.27542313806066 L 235.74999764202843,186.0544897800628 L 234.59999765353072,185.38494568051559 L 231.74999768203642,184.1640123225177 L 229.24999770704144,182.11599507684386 L 228.54999771404283,181.80091550058634 L 226.29999773654734,182.6279993882623 L 225.29999774654934,182.6673843352945 L 223.64999776305262,182.11599507684386 L 222.29999777655533,181.2495262421357 L 220.34999779605923,179.47720362568717 L 216.69999783256654,177.98057563846396 L 215.39999784556915,177.153491750788 L 213.74999786207243,175.53870892246823 L 213.79999786157234,174.63285514072786 L 214.99999784956995,174.19962072337378 L 216.79999783156634,173.96331104118065 z" /><path fill-rule="evenodd" fill="#D2EBD9" stroke="#A6A6A6" stroke-width="0.25" opacity="1" d="M 272.2999972764553,181.80091550058634 L 273.0999972684537,184.75478652800055 L 271.9999972794559,187.551117767286 L 268.09999731846375,191.922846887859 L 266.6999973324665,193.18316519288908 L 264.449997354971,192.19854151708435 L 262.99999736947393,189.83544469515297 L 264.14999735797164,186.88157366773876 L 266.3999973354671,185.58187041567652 L 268.99999730946195,184.83355642206493 L 271.2499972869574,183.84893274626018 L 272.2999972764553,181.80091550058634 z" /><path fill-rule="evenodd" fill="#D2EBD9" stroke="#A6A6A6" stroke-width="0.25" opacity="1" d="M 104.39999895579118,195.11302759746636 L 102.69999897279457,193.14378024585687 L 102.44999897529507,190.89883826502208 L 103.69999896279258,188.18127691980104 L 104.84999895129027,186.25141451522373 L 106.19999893778757,184.79417147503273 L 109.84999890128027,188.2206618668332 L 112.09999887877576,191.17453289424742 L 112.29999887677536,192.94685551069594 L 111.74999888227647,195.90072653811015 L 110.59999889377877,197.71243410159087 L 108.19999891778357,198.46074809520246 L 105.69999894278857,197.00350505501146 L 104.39999895579118,195.11302759746636 z" /><path fill-rule="evenodd" fill="#D2EBD9" stroke="#A6A6A6" stroke-width="0.25" opacity="1" d="M 182.09999817863576,185.85756504490183 L 182.99999816963395,187.551117767286 L 182.99999816963395,188.77205112528387 L 184.49999815463096,189.91421458921735 L 186.94999813012603,190.22929416547487 L 188.89999811062214,191.48961247050494 L 192.99999806961395,193.38008992805 L 194.29999805661134,194.79794802120884 L 194.99999804960996,199.20906208881405 L 192.54999807411485,200.5481502879085 L 191.84999808111624,202.95063205687205 L 189.99999809961994,201.6509288048098 L 186.09999813862774,195.90072653811015 L 186.74999813212645,194.75856307417666 L 186.89999813062616,193.53762971617877 L 186.64999813312664,192.3166963581809 L 185.74999814212845,191.84407699379463 L 184.69999815263054,192.39546625224528 L 183.69999816263254,194.207173815726 L 182.79999817163434,194.207173815726 L 177.44999822514504,191.9622318348912 L 176.34999823614726,191.05637805315084 L 173.69999826265254,189.83544469515297 L 172.64999827315467,189.59913501295983 L 168.74999831216246,190.42621890063583 L 168.04999831916385,189.44159522483108 L 167.74999832216446,188.6145113371551 L 167.69999832266456,187.98435218464007 L 167.94999832016404,187.35419303212504 L 170.79999829165834,187.9449672376079 L 176.19999823764755,187.1178833499319 L 177.24999822714545,188.81143607231604 L 179.14999820814165,187.78742744947914 L 180.59999819363875,187.66927260838256 L 182.09999817863576,185.85756504490183 z" /><path fill-rule="evenodd" fill="#D2EBD9" stroke="#A6A6A6" stroke-width="0.25" opacity="1" d="M 292.1999970774155,206.02265792538282 L 297.1499970279056,204.36849015003088 L 299.8999970004001,203.8958707856446 L 301.34999698589723,204.36849015003088 L 301.24999698689743,205.66819340209312 L 299.34999700590123,207.55867085963823 L 295.49999704440893,209.56730315827988 L 293.64999706291263,211.0245461984709 L 292.89999707041414,213.11194839117692 L 293.59999706341273,215.51443016014048 L 292.89999707041414,215.51443016014048 L 291.449997084917,213.30887312633786 L 287.2499971269254,209.37037842311892 L 287.2499971269254,207.55867085963823 L 292.1999970774155,206.02265792538282 z" /><path fill-rule="evenodd" fill="#D2EBD9" stroke="#A6A6A6" stroke-width="0.25" opacity="1" d="M 280.1499971979396,189.48098017186328 L 280.8499971909382,190.42621890063583 L 278.54999721394285,193.14378024585687 L 277.49999722444494,194.75856307417666 L 276.59999723344674,196.64904053172174 L 275.0999972484497,196.72781042578612 L 273.64999726295264,196.21580611436767 L 272.3999972754551,195.3887222266917 L 271.64999728295663,194.32532865682256 L 271.0999972884577,192.55300604037404 L 271.4999972844569,191.80469204676245 L 272.449997274955,191.37145762940835 L 273.74999726195244,190.42621890063583 L 275.54999724394884,188.33881670792977 L 276.1499972379476,187.98435218464007 L 277.2999972264453,187.9449672376079 L 278.1999972174435,188.18127691980104 L 279.1999972074415,188.6932812312195 L 280.1499971979396,189.48098017186328 z" /><path fill-rule="evenodd" fill="#D2EBD9" stroke="#A6A6A6" stroke-width="0.25" opacity="1" d="M 286.2999971364273,198.42136314817026 L 284.14999715793164,199.91799113539346 L 282.7999971714343,199.72106640023253 L 283.09999716843373,198.6970577773956 L 284.6499971529306,197.5548943134621 L 284.94999714993,196.92473516094708 L 284.7999971514303,196.4127308495286 L 283.34999716593325,197.27919968423677 L 282.19999717743553,197.5942792604943 L 281.44999718493705,197.43673947236553 L 281.6999971824365,196.64904053172174 L 284.5499971539308,191.68653720566587 L 286.2499971369274,192.51362109334187 L 287.3499971259252,195.86134159107795 L 287.2999971264253,197.39735452533336 L 286.2999971364273,198.42136314817026 z" /><path fill-rule="evenodd" fill="#D2EBD9" stroke="#A6A6A6" stroke-width="0.25" opacity="1" d="M 76.89999923084618,217.40490761768558 L 75.74999924234848,216.73536351813834 L 74.04999925935188,214.09657206698165 L 74.14999925835168,212.56055913272627 L 75.29999924684938,211.65470535098592 L 75.84999924134827,210.9457763044065 L 77.34999922634528,210.11869241673054 L 78.59999921384278,210.70946662221337 L 79.94999920034007,213.07256344414472 L 79.24999920734147,215.829509736398 L 76.89999923084618,217.40490761768558 z" /><path fill-rule="evenodd" fill="#D2EBD9" stroke="#A6A6A6" stroke-width="0.25" opacity="1" d="M 45.199999547909584,184.71540158096835 L 44.599999553910784,182.94307896451983 L 44.599999553910784,181.72214560652196 L 44.149999558411686,180.89506171884597 L 45.549999544408884,179.94982299007344 L 46.59999953390679,181.05260150697472 L 47.29999952690539,182.6673843352945 L 47.099999528905784,183.1400036996808 L 47.349999526405284,183.92770264032455 L 46.44999953540709,185.266790839419 L 45.199999547909584,184.71540158096835 z" /><path fill-rule="evenodd" fill="#D2EBD9" stroke="#A6A6A6" stroke-width="0.25" opacity="1" d="M 16.049999839467894,225.16374218302687 L 15.599999843968796,225.20312713005907 L 14.799999851970396,224.57296797754404 L 14.899999850970195,223.47018946064273 L 15.499999844968995,222.95818514922428 L 15.399999845969196,223.39141956657835 L 15.499999844968995,223.5883443017393 L 15.799999841968395,223.5489593547071 L 15.849999841468296,223.70649914283587 L 15.949999840468095,222.8400303081277 L 16.299999836967395,223.03695504328866 L 16.049999839467894,222.32802599670924 L 16.199999837967596,220.79201306245386 L 16.699999832966594,220.35877864509976 L 17.449999825465095,222.24925610264486 L 17.649999823464697,223.2732647254818 L 17.249999827465494,224.25788840128652 L 16.049999839467894,225.16374218302687 z" /><path fill-rule="evenodd" fill="#D2EBD9" stroke="#A6A6A6" stroke-width="0.25" opacity="1" d="M 154.89999845069016,257.8926331667763 L 154.59999845369074,257.0655492791003 L 155.14999844818965,255.5689212918771 L 155.99999843968794,254.505527722008 L 156.14999843818765,253.95413846355734 L 156.79999843168636,253.3239793110423 L 157.19999842768556,255.64769118594148 L 156.79999843168636,257.61693853755094 L 154.89999845069016,257.8926331667763 z" /><path fill-rule="evenodd" fill="#D2EBD9" stroke="#A6A6A6" stroke-width="0.25" opacity="1" d="M 274.3999972554511,298.6954382921245 L 272.9999972694539,296.72619094051504 L 274.69999725245054,294.6781736948412 L 276.0499972389478,294.6781736948412 L 277.34999722594523,294.008629595294 L 276.44999723494703,298.0258941925773 L 274.3999972554511,298.6954382921245 z" /></g><path fill-rule="evenodd" fill="#D2EBD9" stroke="#A6A6A6" stroke-width="0.25" opacity="1" d="M 409.7999959011803,329.0218475069104 L 416.94999582966597,324.65011838633734 L 420.0499957986598,321.97194198814844 L 421.2999957861573,321.1054731534403 L 428.5999957131427,318.1122171789939 L 430.5999956931387,316.73374403286726 L 435.3999956451291,312.44078480635864 L 436.6999956321265,310.9441568191354 L 437.4999956241249,309.5656836730088 L 438.1999956171235,306.5724276985624 L 439.2499956066214,304.13056098256664 L 440.0999955981197,302.90962762456877 L 440.74999559161836,302.35823836611814 L 441.74999558161636,301.9643888957962 L 444.54999555361076,301.9250039487641 L 445.949995539608,302.2400835250216 L 447.949995519604,303.1853222537941 L 450.19999549709945,303.9730211944379 L 450.7999954910983,304.406255611792 L 451.09999548809765,305.0757997113392 L 451.19999548709745,305.9422685460474 L 450.8499954905982,307.91151589765684 L 450.34999549559916,309.3687589378479 L 450.49999549409887,309.76260840816974 L 450.7999954910983,310.03830303739505 L 452.6999954720945,309.9989180903629 L 450.49999549409887,312.71647943558395 L 447.7499955216044,315.2765009926763 L 447.64999552260457,316.2217397214488 L 448.54999551360277,317.99406233789733 L 448.59999551310267,319.13622580183085 L 447.8999955201041,320.19961937169995 L 443.9999955591119,324.4531936511764 L 443.2999955661133,325.8710517443352 L 442.9999955691139,327.0132152082687 L 442.9999955691139,328.5098431954919 L 442.3999955751151,332.7634174749684 L 439.5999956031207,342.0582649745651 L 439.04999560862177,342.9247338092732 L 438.2499956166234,343.3579682266273 L 436.449995634627,343.7518176969492 L 433.7999956611323,346.19368441294495 L 432.5499956736348,344.42136179649646 L 428.949995709642,343.0035037033376 L 427.29999572614526,341.74318539830756 L 424.54999575365076,338.74992942386115 L 423.59999576315266,337.0957616485092 L 421.9999957791559,332.6058776868396 L 421.3499957856572,331.7000239050993 L 419.1499958076616,331.30617443477735 L 416.89999583016606,330.59724538819796 L 414.84999585067015,330.24278086490824 L 413.2499958666734,330.9123249644555 L 412.5999958731747,332.40895295167866 L 413.2999958661733,333.8268110448375 L 414.3999958551711,335.36282397909287 L 415.2999958461693,337.25330143663797 L 413.5499958636728,336.5443723900585 L 411.949995879676,334.6932798795456 L 410.7999958911783,332.40895295167866 L 410.34999589567917,330.47909054710135 L 409.7999959011803,329.0218475069104 z" /><g><path fill-rule="evenodd" fill="#D2EBD9" stroke="#A6A6A6" stroke-width="0.25" opacity="1" d="M 400.3999959951991,315.39465583377284 L 402.7999959711943,313.77987300545306 L 405.949995939688,312.6377095415196 L 409.5999959031807,311.8500106008758 L 418.3499958156632,311.37739123648953 L 419.0499958086618,311.4955460775861 L 419.64999580266056,312.00755038900456 L 420.59999579315866,313.6617181643565 L 421.949995779656,317.52144297351106 L 421.4999957841569,318.0728322319617 L 420.449995794659,318.5060666493158 L 414.1999958571715,319.64823011324927 L 412.99999586917386,320.12084947763555 L 410.3999958951791,321.6568624118909 L 408.7499959116824,322.01132693518065 L 407.39999592518507,322.917180716921 L 406.7999959311863,321.73563230595533 L 405.39999594518906,317.48205802647885 L 404.6499959526906,318.26975696712265 L 404.1999959571915,316.8518988739638 L 403.59999596319267,315.9854300392557 L 402.9999959691939,316.06419993332 L 402.54999597369476,317.48205802647885 L 401.8999959801961,317.48205802647885 L 400.3999959951991,315.39465583377284 z" /><path fill-rule="evenodd" fill="#D2EBD9" stroke="#A6A6A6" stroke-width="0.25" opacity="1" d="M 458.3999954150831,308.14782557984995 L 457.5999954230847,307.5964363213993 L 456.7499954315864,306.7299674866912 L 456.5499954335868,305.9422685460474 L 456.4999954340869,305.27272444650015 L 457.79999542108425,302.4370082601825 L 460.449995394579,304.6819502410173 L 460.89999539007806,305.863498651983 L 460.64999539257855,306.690582539659 L 460.1999953970795,307.2813567451418 L 458.3999954150831,308.14782557984995 z" /></g></g></g></g></svg>