<svg xmlns="http://www.w3.org/2000/svg" xmlns:xlink="http://www.w3.org/1999/xlink" width="408.2875929009169" height="500.0" viewBox="0.0 0.0 408.2875929009169 500.0" preserveAspectRatio="xMinYMin meet"><g transform="matrix(1,0,0,-1,0,500.0)"><g><g><path fill-rule="evenodd" fill="#D2EBD9" stroke="#A6A6A6" stroke-width="0.25" opacity="1" d="M 373.1305154444023,66.8066806680668 L 368.8022341315213,83.008300830083 L 359.6556773948671,80.4080408040804 L 344.34336142948615,80.4080408040804 L 338.2184350433338,81.70817081708171 L 324.7435969937986,77.85778577857785 L 319.8436558848767,72.75727572757275 L 324.13110435518337,64.4064406440644 L 322.29362643933763,57.405740574057404 L 326.41774353934693,47.25472547254725 L 338.708429154226,53.25532553255325 L 342.7508805690866,54.3054305430543 L 346.9974961968189,49.55495549554955 L 356.7565455720883,40.65406540654065 L 366.5564277899321,35.9035903590359 L 371.0480404731105,43.404340434043405 L 368.2305743354804,58.855885588558856 L 368.43473854835213,64.5064506450645 L 373.1305154444023,66.8066806680668 z" /><path fill-rule="evenodd" fill="#D2EBD9" stroke="#A6A6A6" stroke-width="0.25" opacity="1" d="M 379.9496001543186,101.06010601060106 L 371.8646973245975,95.15951595159515 L 368.8022341315213,83.008300830083 L 373.1305154444023,66.8066806680668 L 382.88956481967176,64.1064106410641 L 390.6478049087981,60.106010601060106 L 397.42605677614006,60.55605560556055 L 404.20430864348197,71.45714571457145 L 405.51095960586116,78.75787578757875 L 402.6118277830824,82.15821582158216 L 397.4668896187144,85.5085508550855 L 391.87279018602857,92.5092509250925 L 395.9560744434635,92.15921592159215 L 404.20430864348197,92.8092809280928 L 408.2875929009169,92.5092509250925 L 405.5926252910099,99.5099509950995 L 403.51015031971804,102.66026602660266 L 400.4476871266419,105.76057605760576 L 395.9969072860378,105.76057605760576 L 387.8711716137423,101.3101310131013 L 379.9496001543186,101.06010601060106 z" /><path fill-rule="evenodd" fill="#D2EBD9" stroke="#A6A6A6" stroke-width="0.25" opacity="1" d="M 355.0007333413913,114.3114311431143 L 351.693273092869,110.51105110511051 L 354.7557362859452,105.41054105410541 L 355.3682289245604,99.009900990099 L 348.63080989979284,96.45964596459645 L 344.34336142948615,87.45874587458745 L 344.34336142948615,80.4080408040804 L 359.6556773948671,80.4080408040804 L 368.8022341315213,83.008300830083 L 371.8646973245975,95.15951595159515 L 379.9496001543186,101.06010601060106 L 373.7838409255919,105.31053105310531 L 371.0480404731105,114.3114311431143 L 376.5196413780733,115.5115511551155 L 379.0921104602573,117.21172117211721 L 380.7662570058056,119.56195619561956 L 383.66538882858435,122.86228622862285 L 376.8054712760937,121.96219621962196 L 370.92554194538747,122.96229622962295 L 366.2705978919117,126.1126112611261 L 362.8814719582407,131.46314631463144 L 357.20570684040615,123.56235623562355 L 355.5723931374322,119.86198619861986 L 355.0007333413913,114.3114311431143 z" /><path fill-rule="evenodd" fill="#D2EBD9" stroke="#A6A6A6" stroke-width="0.25" opacity="1" d="M 332.82849982351973,146.16461646164615 L 333.93098657302716,133.56335633563356 L 325.35608963241384,132.96329632963295 L 325.96858227102905,120.11201120112011 L 330.86852337995094,115.66156615661565 L 332.7060012957967,102.2102210221022 L 331.4810160185662,95.15951595159515 L 340.0559129591795,89.4089408940894 L 344.34336142948615,87.45874587458745 L 348.63080989979284,96.45964596459645 L 355.3682289245604,99.009900990099 L 354.7557362859452,105.41054105410541 L 351.693273092869,110.51105110511051 L 355.0007333413913,114.3114311431143 L 345.0375197532501,122.06220622062206 L 340.464241384923,135.01350135013502 L 332.82849982351973,146.16461646164615 z" /><path fill-rule="evenodd" fill="#D2EBD9" stroke="#A6A6A6" stroke-width="0.25" opacity="1" d="M 289.1373582689662,97.15971597159715 L 296.609768460072,102.2102210221022 L 302.08136936503485,97.05970597059705 L 312.49374422149384,94.5094509450945 L 313.1062368601091,92.6092609260926 L 310.0437736670329,85.55855585558555 L 307.59380311257195,69.55695569556956 L 316.7811926918005,79.8079807980798 L 319.8436558848767,72.75727572757275 L 324.7435969937986,77.85778577857785 L 338.2184350433338,81.70817081708171 L 344.34336142948615,80.4080408040804 L 344.34336142948615,87.45874587458745 L 340.0559129591795,89.4089408940894 L 331.4810160185662,95.15951595159515 L 332.7060012957967,102.2102210221022 L 330.86852337995094,115.66156615661565 L 325.96858227102905,120.11201120112011 L 325.35608963241384,132.96329632963295 L 333.93098657302716,133.56335633563356 L 332.82849982351973,146.16461646164615 L 313.7187294987243,148.56485648564856 L 305.06216687296234,142.96429642964296 L 299.5905659679995,136.46364636463645 L 298.61057774621514,129.012901290129 L 303.4696860125627,120.7120712071207 L 289.62735237985834,116.6116611661166 L 279.01081331052757,112.011201120112 L 272.395892813483,105.76057605760576 L 284.8499097986595,98.85988598859885 L 289.1373582689662,97.15971597159715 z" /><path fill-rule="evenodd" fill="#D2EBD9" stroke="#A6A6A6" stroke-width="0.25" opacity="1" d="M 326.41774353934693,47.25472547254725 L 322.29362643933763,57.405740574057404 L 324.13110435518337,64.4064406440644 L 319.8436558848767,72.75727572757275 L 316.7811926918005,79.8079807980798 L 307.59380311257195,69.55695569556956 L 310.0437736670329,85.55855585558555 L 313.1062368601091,92.6092609260926 L 312.49374422149384,94.5094509450945 L 302.08136936503485,97.05970597059705 L 296.609768460072,102.2102210221022 L 289.1373582689662,97.15971597159715 L 279.41914173627106,92.1092109210921 L 279.21497752339934,86.70867086708671 L 281.33828533726546,80.6080608060806 L 278.72498341250713,73.4073407340734 L 274.6416991550722,64.85648564856486 L 278.6841505699328,59.15591559155915 L 297.8347537373025,47.45474547454745 L 305.67465951157754,45.704570457045705 L 318.1695093393284,45.754575457545755 L 326.41774353934693,47.25472547254725 z" /><path fill-rule="evenodd" fill="#D2EBD9" stroke="#A6A6A6" stroke-width="0.25" opacity="1" d="M 305.51132814128016,415.4415441544154 L 332.01184297203275,404.5904590459046 L 342.66921488393785,396.58965896589655 L 346.4666692433523,385.3885388538854 L 356.71571272951394,389.08890889088906 L 362.8814719582407,388.5388538853885 L 367.00558905824994,390.68906890689067 L 371.0480404731105,402.54025402540253 L 372.19136006519227,412.34123412341233 L 371.6197002691514,422.74227422742274 L 367.2914189562704,441.5941594159416 L 362.8814719582407,451.94519451945195 L 356.30738430377045,462.89628962896285 L 347.9366515760289,472.89728972897285 L 338.3001007284825,480.24802480248024 L 330.50102779678184,481.79817981798175 L 317.9245122838823,477.4477447744774 L 310.00294082445856,480.24802480248024 L 314.1270579244678,482.1482148214821 L 318.1695093393284,484.59845984598456 L 306.2054864650441,500.0 L 297.8755865798769,495.3495349534953 L 295.01728759967244,483.2483248324832 L 299.34556891255346,476.3476347634763 L 310.16627219475595,470.2970297029703 L 313.84122802644737,456.09560956095606 L 312.98373833238605,440.04400440044003 L 310.00294082445856,428.3428342834283 L 302.9796919016705,432.34323432343234 L 302.9796919016705,438.2438243824382 L 305.3479967709828,445.69456945694566 L 305.51132814128016,454.49544954495445 L 302.3263664204809,461.14611461146114 L 292.8123141006576,472.6472647264726 L 289.1373582689662,480.24802480248024 L 288.19820288975615,485.1485148514851 L 287.2590475105461,487.1987198719872 L 285.0540740115312,489.24892489248924 L 284.56407990063906,476.997699769977 L 287.0140504551,467.1467146714671 L 290.52567491649404,457.4957495749575 L 293.2614753689754,445.9445944594459 L 294.4864606462059,420.2420242024202 L 297.79392089472816,411.1911191119112 L 305.51132814128016,415.4415441544154 z" /><path fill-rule="evenodd" fill="#D2EBD9" stroke="#A6A6A6" stroke-width="0.25" opacity="1" d="M 1.592480860399616,4.5004500450045 L 0.5716597960408878,3.4003400340034 L 0.0,1.05010501050105 L 0.7349911663382842,0.0 L 2.286639184163551,0.35003500350035 L 3.1032960356505335,1.9501950195019502 L 3.1032960356505335,5.6005600560056 L 2.204973499014853,5.3005300530053 L 1.592480860399616,4.5004500450045 z" /></g></g></g></svg>