<svg xmlns="http://www.w3.org/2000/svg" xmlns:xlink="http://www.w3.org/1999/xlink" width="220.10319639742374" height="500.0" viewBox="0.0 0.0 220.10319639742374 500.0" preserveAspectRatio="xMinYMin meet"><g transform="matrix(1,0,0,-1,0,500.0)"><g><g><path fill-rule="evenodd" fill="#D2EBD9" stroke="#A6A6A6" stroke-width="0.25" opacity="1" d="M 150.43356777477686,276.27762776277626 L 150.8738181926135,279.52795279527953 L 152.6788449057437,278.9278927892789 L 154.46185909798203,280.02800280028003 L 156.09078564397757,282.1282128212821 L 157.27946177213647,284.37843784378435 L 158.1379500869179,287.1287128712871 L 158.18197512870157,289.3789378937894 L 157.41153689748748,291.4291429142914 L 155.93669799773474,293.57935793579355 L 154.990159599386,294.17941794179416 L 152.92098263555383,294.5294529452945 L 152.01846927898873,295.27952795279526 L 151.7763315491786,296.17961796179617 L 151.5121812984766,298.8798879887989 L 151.11595592242364,300.18001800180014 L 149.53105441821177,303.2303230323032 L 148.56250349897118,304.2304230423042 L 147.17571468278578,304.88048804880486 L 146.29521384711254,307.33073307330733 L 146.66942670227365,311.8311831183118 L 146.2071637635452,314.18141814181416 L 152.28261952969072,315.5315531553155 L 154.0876462428209,316.3316331633163 L 155.7605978306001,317.33173317331733 L 156.817198833408,318.43184318431844 L 157.4995869810548,320.1320132013201 L 157.47757446016297,321.58215821582155 L 154.83607195314318,329.3329332933293 L 154.19770884728007,332.88328832883286 L 153.20714540714764,344.984498449845 L 153.58135826230878,346.73467346734674 L 154.5719217024412,348.98489848984894 L 155.80462287238376,350.58505850585055 L 158.7102756301055,353.4353435343534 L 159.5247389031033,354.93549354935493 L 159.19455108972582,358.38583858385834 L 158.20398764959342,362.58625862586257 L 158.24801269137706,363.5363536353635 L 157.12537412589364,363.6363636363636 L 154.990159599386,362.9362936293629 L 152.94299515644565,362.5362536253625 L 145.2166003234128,363.986398639864 L 142.6411353790685,363.8863886388639 L 141.25434656288311,363.5863586358636 L 141.27635908377493,363.0863086308631 L 142.00277227320538,362.08620862086207 L 141.49648429269325,361.3361336133613 L 140.219758080967,360.5360536053605 L 138.48076893051234,359.88598859885985 L 135.3990160056559,359.48594859485945 L 135.59712869368238,360.7360736073607 L 134.80467794157644,363.1363136313631 L 131.30468711977525,368.4368436843684 L 130.55626140945296,371.6371637163716 L 130.7323615765876,372.18721872187217 L 128.24494671581064,372.4372437243724 L 126.41790748178863,371.6371637163716 L 124.89904354025225,369.5369536953695 L 123.88646757922801,368.48684868486845 L 122.56571632571811,367.6367636763676 L 120.29842667385947,367.08670867086704 L 118.95566289945774,367.28672867286724 L 118.00912450110899,368.08680868086805 L 117.63491164594784,368.9368936893689 L 117.54686156238051,371.4371437143714 L 116.64434820581542,372.6372637263726 L 116.68837324759909,370.2370237023702 L 114.59718376287509,366.73667366736674 L 113.2103949466897,365.73657365736574 L 111.62549344247783,364.03640364036403 L 110.52486739788625,362.58625862586257 L 108.98399093545804,361.9361936193619 L 105.35192498830584,361.2361236123612 L 105.06576221671202,360.8360836083608 L 105.2638749047385,360.2360236023602 L 110.63493000234541,355.5855585558556 L 111.20725554553303,354.4354435443544 L 111.20725554553303,351.08510851085106 L 110.21669210540061,349.58495849584955 L 98.26389326113608,344.6844684468447 L 97.31735486278731,344.034403440344 L 96.81106688227518,343.3343334333433 L 96.30477890176306,341.28412841284126 L 95.82050344214277,340.4340434043404 L 95.006040169145,339.68396839683965 L 93.8834016036616,339.38393839383934 L 89.54693498797077,340.18401840184015 L 88.24819625535271,340.18401840184015 L 87.43373298235494,339.98399839983995 L 85.49663114387377,338.48384838483844 L 85.34254349763094,337.43374337433744 L 84.92430560068615,336.73367336733673 L 84.13185484858022,336.4836483648365 L 81.57840242512775,337.2837283728373 L 80.74192663123816,337.83378337833784 L 80.23563865072603,338.38383838383834 L 79.48721294040375,339.8339833983398 L 79.09098756435078,340.08400840084005 L 77.13187320497778,339.033903390339 L 74.90860859490279,338.3338333833383 L 73.12559440266443,338.0838083808381 L 70.39604181207731,338.78387838783874 L 68.96522795410827,339.8339833983398 L 67.53441409613922,340.4340434043404 L 67.00611359473525,337.63376337633764 L 67.35831392900457,330.58305830583055 L 66.87403846938427,328.4828482848285 L 66.52183813511496,328.03280328032804 L 66.34573796798031,327.43274327432744 L 66.58787569779047,326.73267326732673 L 68.45893997359615,324.6324632463246 L 69.0532780376756,323.7323732373237 L 69.44950341372856,322.4322432243224 L 69.36145333016124,321.2321232123212 L 70.3740292911855,317.03170317031703 L 74.79854599044363,311.48114811481145 L 79.70733814932207,307.5807580758076 L 81.13815200729113,307.53075307530753 L 82.19475301009903,306.8806880688069 L 83.66959190985175,305.6305630563056 L 86.09096920795322,302.9302930293029 L 88.68844667318935,299.02990299029904 L 89.32680977905245,296.7296729672967 L 90.0532229684829,295.7295729572957 L 90.40542330275221,294.47944794479446 L 90.80164867880518,293.77937793779375 L 93.09095085155566,291.8291829182918 L 95.20415285717148,290.57905790579053 L 96.08465369284475,289.5789578957896 L 97.1632672165445,287.7787778777878 L 97.95571796865043,287.3787378737874 L 98.79219376254002,287.5287528752875 L 100.13495753694176,288.82888288828883 L 100.81734568458853,289.7789778977898 L 104.31733650638975,289.82898289828984 L 109.05002849813353,284.67846784678466 L 110.7670051276964,283.37833783378335 L 120.21037659029213,280.02800280028003 L 120.93678977972257,280.8780878087809 L 122.93992918087925,281.67816781678164 L 125.66948177146637,284.028402840284 L 126.57199512803146,284.6284628462846 L 127.60658360994753,285.028502850285 L 128.72922217543095,285.1285128512851 L 129.87387326180618,284.9284928492849 L 131.26066207799158,284.37843784378435 L 133.06568879112177,284.3284328432843 L 134.98077810871112,284.8284828482848 L 135.77322886081706,285.5285528552855 L 136.98391750986778,287.07870787078707 L 137.66630565751456,287.4287428742874 L 138.21661867981035,287.2787278727873 L 138.76693170210615,286.5286528652865 L 139.2291946408346,286.67866786678667 L 140.08768295561603,287.3287328732873 L 140.8361086659383,287.4287428742874 L 142.35497260747468,286.87868786878687 L 143.93987411168655,286.57865786578657 L 146.84552686940833,287.3287328732873 L 146.5593640978145,285.87858785878586 L 146.60338913959816,284.27842784278425 L 146.93357695297564,282.07820782078204 L 147.61596510062242,280.3780378037804 L 150.43356777477686,276.27762776277626 z" /><path fill-rule="evenodd" fill="#D2EBD9" stroke="#A6A6A6" stroke-width="0.25" opacity="1" d="M 158.24801269137706,363.5363536353635 L 158.35807529583622,366.33663366336634 L 161.52787830425996,368.2368236823682 L 161.6159283878273,369.48694869486945 L 160.9775652819642,371.5371537153715 L 160.95555276107234,372.7872787278728 L 161.5498908251518,374.7874787478748 L 162.3203290563659,375.73757375737574 L 163.222842412931,376.38763876387634 L 164.23541837395524,377.68776877687765 L 165.55616962746515,380.78807880788077 L 165.55616962746515,382.8882888288829 L 164.93981904249387,385.13851385138514 L 164.3454809784144,388.4388438843884 L 160.4272522596684,398.78987898789876 L 159.67882654934613,401.94019401940193 L 159.63480150756246,407.29072907290725 L 159.3266262150768,410.2910291029103 L 157.9838624406751,414.7414741474147 L 153.27318296982313,425.042504250425 L 150.8738181926135,428.29282928292827 L 147.79206526775707,431.64316431643164 L 132.383300643475,442.99429942994294 L 130.46821132588565,443.3443344334433 L 121.927353219855,443.1443144314431 L 120.45251432010228,443.3443344334433 L 119.43993835907803,444.49444944494445 L 118.36132483537828,447.2447244724472 L 118.1632121473518,448.4448444844484 L 118.38333735627012,450.74507450745074 L 118.09717458467631,452.04520452045205 L 117.37076139524586,453.09530953095305 L 115.43365955676468,454.7454745474547 L 114.83932149268523,455.79557955795576 L 114.99340913892806,456.89568956895687 L 116.29214787154612,458.8958895889589 L 116.33617291332978,460.24602460246024 L 115.71982232835849,461.54615461546155 L 114.02485821968746,463.19631963196315 L 113.34247007204068,464.1464146414641 L 109.84247925023946,472.69726972697265 L 107.70726472373181,475.39753975397537 L 101.47772131134347,478.84788478847884 L 98.90225636699918,481.69816981698165 L 95.68842831679179,483.5483548354835 L 93.00290076798832,481.59815981598155 L 88.53435902694652,475.59755975597557 L 85.34254349763094,474.69746974697466 L 79.26708773148543,474.8474847484748 L 76.1633222857372,472.69726972697265 L 74.99665867847011,471.54715471547155 L 70.28597920761817,468.74687468746873 L 69.4715159346204,468.4968496849685 L 68.70107770340628,466.79667966796677 L 66.9620885529516,464.49644964496446 L 65.68536234122537,461.44614461446145 L 64.51869873395829,460.34603460346034 L 64.29857352503998,459.84598459845984 L 64.49668621306647,459.24592459245923 L 66.4778130933313,456.79567956795677 L 67.09416367830259,454.3454345434543 L 67.22623880365357,450.04500450045003 L 67.05013863651892,448.6948694869487 L 67.13818872008625,446.69466946694666 L 67.6004516588147,444.044404440444 L 69.22937820481025,438.29382938293827 L 69.66962862264688,435.99359935993596 L 69.71365366443054,434.5434543454345 L 69.42749089283673,434.043404340434 L 69.27340324659392,432.1932193219322 L 68.59101509894714,429.6429642964296 L 68.83315282875728,428.9428942894289 L 71.4306302939934,427.3427342734273 L 74.57842078152531,426.99269926992696 L 75.21678388738843,427.89278927892786 L 77.17589824676143,428.59285928592857 L 77.92432395708371,429.1429142914291 L 79.7293506702139,430.993099309931 L 80.54381394321167,431.5931593159316 L 81.33626469531761,431.84318431843184 L 88.732471714973,431.54315431543154 L 90.84567372058883,433.59335933593354 L 93.77333899920244,433.1933193319332 L 95.40226554519796,432.6932693269327 L 109.57832899953749,425.7425742574257 L 112.55001931993475,425.9425942594259 L 113.45253267649984,425.7425742574257 L 114.17894586593029,425.19251925192515 L 115.32359695230552,423.74237423742375 L 116.4242229968971,423.4923492349235 L 120.18836406940031,421.84218421842183 L 121.0908774259654,419.041904190419 L 119.79213869334734,416.49164916491645 L 117.612899125056,414.69146914691464 L 114.92737157625255,412.84128412841284 L 114.00284569879564,411.8911891189119 L 110.65694252323723,407.040704070407 L 110.26071714718427,405.7405740574057 L 110.89908025304739,404.3904390439044 L 111.1192054619657,403.24032403240324 L 110.4148047934271,401.040104010401 L 108.6097780802969,398.48984898489846 L 108.56575303851324,398.1398139813981 L 109.99656689648229,398.2398239823982 L 111.80159360961248,399.1399139913991 L 112.52800679904293,399.28992899289926 L 113.36448259293252,398.6398639863986 L 114.42108359574044,396.98969896989695 L 117.3267363534622,394.23942394239424 L 121.00282734239806,393.5893589358936 L 122.49967876304261,392.4892489248925 L 123.0499917853384,391.3891389138914 L 124.12860530903815,388.38883888388835 L 124.17263035082182,387.3387338733873 L 123.55627976585053,385.53855385538554 L 123.4021921196077,383.0883088308831 L 123.51225472406686,381.4381438143814 L 123.33615455693221,380.6380638063806 L 122.98395422266292,380.08800880088006 L 120.6066019663451,378.037803780378 L 119.41792583818619,376.68766876687664 L 118.62547508608026,376.13761376137614 L 116.64434820581542,372.6372637263726 L 117.54686156238051,371.4371437143714 L 117.63491164594784,368.9368936893689 L 118.00912450110899,368.08680868086805 L 118.95566289945774,367.28672867286724 L 120.29842667385947,367.08670867086704 L 122.56571632571811,367.6367636763676 L 123.88646757922801,368.48684868486845 L 124.89904354025225,369.5369536953695 L 126.41790748178863,371.6371637163716 L 128.24494671581064,372.4372437243724 L 130.7323615765876,372.18721872187217 L 130.55626140945296,371.6371637163716 L 131.30468711977525,368.4368436843684 L 134.80467794157644,363.1363136313631 L 135.59712869368238,360.7360736073607 L 135.3990160056559,359.48594859485945 L 138.48076893051234,359.88598859885985 L 140.219758080967,360.5360536053605 L 141.49648429269325,361.3361336133613 L 142.00277227320538,362.08620862086207 L 141.27635908377493,363.0863086308631 L 141.25434656288311,363.5863586358636 L 142.6411353790685,363.8863886388639 L 145.2166003234128,363.986398639864 L 152.94299515644565,362.5362536253625 L 154.990159599386,362.9362936293629 L 157.12537412589364,363.6363636363636 L 158.24801269137706,363.5363536353635 z" /><path fill-rule="evenodd" fill="#D2EBD9" stroke="#A6A6A6" stroke-width="0.25" opacity="1" d="M 165.31403189765498,237.27372737273726 L 165.446107023006,234.02340234023401 L 165.93038248262627,230.52305230523052 L 165.49013206478963,227.5227522752275 L 165.04988164695303,226.57265726572655 L 164.4115185410899,226.02260226022602 L 163.09076728758,226.17261726172617 L 158.51216294207904,227.87278727872786 L 157.2354367303528,227.97279727972796 L 151.31406861045014,224.5224522452245 L 145.1505627607373,222.5222522252225 L 144.33609948773952,221.97219721972195 L 143.54364873563358,221.02210221022102 L 142.79522302531132,218.8218821882188 L 142.17887244034003,214.8214821482148 L 141.43044673001776,212.1212121212121 L 138.37070632605318,210.52105210521052 L 139.77950766313037,206.07060706070607 L 140.50592085256082,204.6204620462046 L 144.42414957130686,199.5199519951995 L 145.87697595016772,197.26972697269727 L 149.24489164661796,189.9189918991899 L 147.3298023290286,186.06860686068606 L 146.2732013262207,184.36843684368435 L 144.62226225933333,182.96829682968297 L 142.66314789996034,182.11821182118211 L 133.17575139558093,180.96809680968096 L 128.3550093202698,179.6179617961796 L 127.3644458801374,177.81778177817782 L 128.88330982167378,175.96759675967596 L 129.52167292753688,174.76747674767475 L 132.22921299723217,168.36683668366837 L 133.2858140000401,165.06650665066505 L 135.26694088030493,161.8161816181618 L 135.57511617279056,160.7160716071607 L 136.32354188311282,159.66596659665964 L 136.87385490540862,157.9157915791579 L 137.8424058246492,156.8156815681568 L 138.48076893051234,156.36563656365635 L 140.32982068542617,156.36563656365635 L 140.9021462286138,156.015601560156 L 142.81723554620314,155.6155615561556 L 143.4776111729581,155.36553655365535 L 144.44616209219868,154.16541654165417 L 144.402137050415,153.66536653665366 L 144.64427478022517,153.16531653165316 L 144.64427478022517,152.6152615261526 L 143.89584906990288,150.36503650365034 L 142.99333571333779,149.11491149114912 L 142.66314789996034,147.1147114711471 L 142.97132319244596,145.8145814581458 L 144.20402436238854,144.51445144514452 L 144.68829982200882,143.4143414341434 L 144.8864125100353,141.76417641764175 L 144.42414957130686,134.1134113411341 L 146.00905107551873,130.76307630763077 L 148.21030316470188,130.31303130313032 L 146.60338913959816,128.56285628562856 L 145.87697595016772,126.61266126612661 L 145.83295090838408,125.26252625262525 L 146.22917628443705,124.06240624062406 L 148.34237829005286,121.46214621462146 L 149.09080400037513,120.26202620262026 L 149.44300433464443,118.96189618961895 L 149.5530669391036,116.46164616461645 L 148.38640333183653,111.9111911191119 L 148.60652854075485,110.66106610661066 L 150.91784323439717,103.46034603460346 L 151.20400600599098,103.06030603060306 L 154.72600934868402,102.4102410241024 L 155.03418464116965,102.1102110211021 L 152.78890751020285,99.4099409940994 L 152.4146946550417,98.60986098609861 L 152.3266445714744,97.75977597759776 L 152.65683238485184,95.7095709570957 L 155.82663539327558,87.85878587858785 L 156.50902354092239,84.7084708470847 L 157.34549933481196,83.55835583558355 L 163.24485493382284,77.25772577257726 L 165.09390668873667,74.65746574657466 L 167.5593090286218,72.15721572157216 L 170.66307447437006,73.6073607360736 L 171.56558783093516,74.25742574257426 L 173.96495260814478,80.7080708070807 L 174.14105277527946,81.45814581458146 L 173.10646429336336,87.1087108710871 L 173.17250185603885,88.1088108810881 L 173.7448273992265,89.00890089008901 L 175.59387915414032,89.55895589558955 L 176.2762673017871,90.1090109010901 L 177.6630561179725,94.00940094009401 L 177.68506863886432,97.35973597359735 L 177.44293090905418,100.66006600660066 L 177.99324393134998,104.36043604360435 L 178.98380737148238,105.96059605960596 L 180.32657114588412,106.9106910691069 L 181.69134744117767,107.61076107610761 L 182.6819108813101,108.5108510851085 L 184.97121305406057,114.2114211421142 L 186.33598934935412,116.76167616761676 L 186.88630237164992,118.1118111811181 L 187.32655278948656,120.16201620162016 L 187.26051522681107,121.86218621862186 L 186.71020220451527,126.3126312631263 L 186.9303274134336,127.86278627862785 L 188.03095345802515,129.012901290129 L 190.62843092326128,129.6129612961296 L 191.72905696785287,130.26302630263027 L 192.74163292887712,131.96319631963195 L 193.90829653614418,134.91349134913492 L 195.5812481239234,136.013601360136 L 198.90513877858996,136.06360636063604 L 201.76676649452804,134.7134713471347 L 204.54034412689882,134.013401340134 L 207.64410957264707,136.16361636163614 L 208.85479822169782,137.86378637863785 L 209.6252364529119,139.61396139613962 L 209.5371863693446,141.66416641664165 L 210.28561207966686,143.1143114311431 L 211.60636333317677,144.014401440144 L 213.21327735828046,144.46444644464447 L 214.0717656730619,146.16461646164615 L 216.36106784581239,147.76477647764776 L 217.2195561605938,148.66486648664866 L 217.87993178734877,150.3150315031503 L 218.34219472607722,154.86548654865484 L 219.6629459795871,160.56605660566055 L 220.10319639742374,163.61636163616362 L 219.9270962302891,166.8166816681668 L 219.1126329572913,169.7169716971697 L 217.85791926645692,172.017201720172 L 214.53402861179035,176.06760676067606 L 210.96800022731364,179.46794679467945 L 210.4396997259097,180.66806680668066 L 210.19756199609955,182.01820182018201 L 209.73529905737107,183.26832683268327 L 208.50259788742852,184.26842684268425 L 210.659824934828,186.81868186818681 L 211.40825064515028,190.3190319031903 L 211.1441003944483,202.5202520252025 L 210.13152443342403,205.6205620562056 L 208.04033494870004,207.6207620762076 L 201.83280405720356,209.47094709470946 L 195.2510603105459,210.42104210421041 L 192.69760788709345,209.8209820982098 L 188.53724143853728,206.32063206320632 L 186.35800187024597,205.4205420542054 L 183.21021138271405,206.12061206120612 L 180.26053358320863,208.67086708670865 L 178.45550687007844,212.47124712471245 L 176.03412957197696,221.97219721972195 L 173.63476479476734,232.77327732773276 L 172.3580385830411,235.42354235423542 L 170.99326228774754,236.47364736473645 L 169.5624484297785,236.67366736673665 L 166.30459533778742,236.77367736773675 L 165.31403189765498,237.27372737273726 z" /><path fill-rule="evenodd" fill="#D2EBD9" stroke="#A6A6A6" stroke-width="0.25" opacity="1" d="M 165.31403189765498,237.27372737273726 L 162.76057947420253,238.4238423842384 L 161.88007863852928,240.67406740674065 L 161.9681287220966,243.62436243624362 L 161.3297656162335,247.37473747374736 L 159.37065125686047,251.2251225122512 L 154.74802186957584,257.77577757775776 L 153.16312036536397,261.976197619762 L 151.04991835974815,270.92709270927094 L 150.43356777477686,276.27762776277626 L 147.61596510062242,280.3780378037804 L 146.93357695297564,282.07820782078204 L 146.60338913959816,284.27842784278425 L 146.5593640978145,285.87858785878586 L 146.84552686940833,287.3287328732873 L 143.93987411168655,286.57865786578657 L 142.35497260747468,286.87868786878687 L 140.8361086659383,287.4287428742874 L 140.08768295561603,287.3287328732873 L 139.2291946408346,286.67866786678667 L 138.76693170210615,286.5286528652865 L 138.21661867981035,287.2787278727873 L 137.66630565751456,287.4287428742874 L 136.98391750986778,287.07870787078707 L 135.77322886081706,285.5285528552855 L 134.98077810871112,284.8284828482848 L 133.06568879112177,284.3284328432843 L 131.26066207799158,284.37843784378435 L 129.87387326180618,284.9284928492849 L 128.72922217543095,285.1285128512851 L 127.60658360994753,285.028502850285 L 126.57199512803146,284.6284628462846 L 125.66948177146637,284.028402840284 L 122.93992918087925,281.67816781678164 L 120.93678977972257,280.8780878087809 L 120.21037659029213,280.02800280028003 L 119.43993835907803,278.1778177817782 L 119.13176306659238,277.6277627762776 L 118.55943752340477,277.07770777077707 L 111.86763117228797,275.2275227522752 L 110.61291748145358,274.57745774577455 L 107.8393398490828,272.2272227222722 L 105.79217540614246,268.2268226822682 L 103.7229984423103,268.026802680268 L 102.8865226484207,267.4267426742674 L 100.92740828904769,265.4265426542654 L 100.22300762050908,264.9264926492649 L 99.43055686840314,264.7264726472647 L 98.37395586559524,264.9264926492649 L 97.55949259259746,265.3265326532653 L 97.00917957030167,265.8265826582658 L 96.21672881819573,265.77657765776576 L 95.22616537806331,265.07650765076505 L 93.42113866493312,262.87628762876284 L 91.85824968161309,260.3760376037604 L 88.0941086091099,256.025602560256 L 87.1915952525448,255.2255225522552 L 81.68846502958691,252.3252325232523 L 79.00293748078346,251.7251725172517 L 73.05955683998894,249.27492749274927 L 70.06585399869985,246.67466746674666 L 70.52811693742831,245.8245824582458 L 71.67276802380356,245.27452745274528 L 71.60673046112805,244.92449244924492 L 71.03440491794044,244.22442244224422 L 69.42749089283673,243.57435743574356 L 66.98410107384343,243.07430743074306 L 63.13190991777291,243.4243424342434 L 59.1476436363514,243.1243124312431 L 58.883493385649416,241.37413741374135 L 58.48726800959645,240.6240624062406 L 57.69481725749051,239.87398739873987 L 54.76715197887692,238.4238423842384 L 53.73256349696083,237.4237423742374 L 53.358350641799696,235.72357235723572 L 53.204262995556874,232.97329732973296 L 52.78602509861207,232.27322732273225 L 52.389799722559104,231.87318731873185 L 49.74829721553932,232.3232323232323 L 49.55018452751283,231.3231323132313 L 49.594209569296495,230.67306730673067 L 49.83634729910665,229.57295729572957 L 50.408672842294266,228.1228122812281 L 51.46527384510218,226.77267726772675 L 53.24828803734054,225.67256725672567 L 56.28601592041329,224.82248224822482 L 60.77657018234693,225.17251725172517 L 62.03128387318133,224.92249224922492 L 63.33002260579939,223.87238723872386 L 64.21052344147265,223.37233723372336 L 65.68536234122537,223.57235723572356 L 67.33630140811273,222.87228722872285 L 67.18221376186992,219.7219721972197 L 66.21366284262932,217.77177717771775 L 66.125612759062,217.2217221722172 L 66.4117755306558,212.4212421242124 L 65.88347502925185,209.5209520952095 L 65.86146250836002,208.6208620862086 L 66.23567536352115,206.67066706670667 L 67.3803264498964,204.4204420442044 L 68.45893997359615,203.27032703270325 L 69.20736568391841,202.7202720272027 L 74.22622044725601,201.27012701270127 L 76.95577303784313,202.22022202220222 L 86.92744500184281,201.02010201020101 L 89.98718540580741,203.07030703070305 L 91.06579892950715,203.47034703470345 L 92.12239993231506,203.07030703070305 L 92.47460026658437,202.87028702870285 L 92.87082564263734,202.12021202120212 L 92.36453766212522,200.5200520052005 L 92.84881312174551,197.61976197619762 L 92.4305752248007,194.66946694669466 L 93.02491328888016,194.1194119411941 L 94.74188991844302,193.56935693569355 L 96.7450293195997,193.36933693369335 L 98.24188074024424,192.76927692769277 L 99.36451930572765,191.81918191819182 L 102.4022471888004,186.7186718671867 L 103.50287323339198,185.56855685568556 L 104.86764952868553,184.76847684768475 L 107.72927724462365,184.018401840184 L 110.04059193826595,182.56825682568257 L 108.87392833099888,180.6180618061806 L 111.73555604693698,179.36793679367935 L 112.83618209152856,179.06790679067905 L 114.70724636733425,179.017901790179 L 115.785859891034,178.8178817881788 L 116.71038576849092,178.21782178217822 L 117.48082399970502,176.5176517651765 L 118.49339996072928,176.1176117611761 L 122.49967876304261,176.16761676167616 L 127.3644458801374,177.81778177817782 L 128.3550093202698,179.6179617961796 L 133.17575139558093,180.96809680968096 L 142.66314789996034,182.11821182118211 L 144.62226225933333,182.96829682968297 L 146.2732013262207,184.36843684368435 L 147.3298023290286,186.06860686068606 L 149.24489164661796,189.9189918991899 L 145.87697595016772,197.26972697269727 L 144.42414957130686,199.5199519951995 L 140.50592085256082,204.6204620462046 L 139.77950766313037,206.07060706070607 L 138.37070632605318,210.52105210521052 L 141.43044673001776,212.1212121212121 L 142.17887244034003,214.8214821482148 L 142.79522302531132,218.8218821882188 L 143.54364873563358,221.02210221022102 L 144.33609948773952,221.97219721972195 L 145.1505627607373,222.5222522252225 L 151.31406861045014,224.5224522452245 L 157.2354367303528,227.97279727972796 L 158.51216294207904,227.87278727872786 L 163.09076728758,226.17261726172617 L 164.4115185410899,226.02260226022602 L 165.04988164695303,226.57265726572655 L 165.49013206478963,227.5227522752275 L 165.93038248262627,230.52305230523052 L 165.446107023006,234.02340234023401 L 165.31403189765498,237.27372737273726 z" /><path fill-rule="evenodd" fill="#D2EBD9" stroke="#A6A6A6" stroke-width="0.25" opacity="1" d="M 167.5593090286218,72.15721572157216 L 165.09390668873667,74.65746574657466 L 163.24485493382284,77.25772577257726 L 157.34549933481196,83.55835583558355 L 156.50902354092239,84.7084708470847 L 155.82663539327558,87.85878587858785 L 152.65683238485184,95.7095709570957 L 152.3266445714744,97.75977597759776 L 152.4146946550417,98.60986098609861 L 152.78890751020285,99.4099409940994 L 155.03418464116965,102.1102110211021 L 154.72600934868402,102.4102410241024 L 151.20400600599098,103.06030603060306 L 150.91784323439717,103.46034603460346 L 148.60652854075485,110.66106610661066 L 148.38640333183653,111.9111911191119 L 149.5530669391036,116.46164616461645 L 149.44300433464443,118.96189618961895 L 149.09080400037513,120.26202620262026 L 148.34237829005286,121.46214621462146 L 146.22917628443705,124.06240624062406 L 145.83295090838408,125.26252625262525 L 145.87697595016772,126.61266126612661 L 146.60338913959816,128.56285628562856 L 148.21030316470188,130.31303130313032 L 146.00905107551873,130.76307630763077 L 140.57195841523634,130.06300630063006 L 138.37070632605318,130.21302130213022 L 137.22605523967792,129.7129712971297 L 137.07196759343512,128.56285628562856 L 137.35813036502893,125.76257625762575 L 137.0059300307596,124.11241124112411 L 135.92731650705986,123.2123212321232 L 134.7606528997928,122.66226622662265 L 131.15059947353242,121.86218621862186 L 129.65374805288786,120.9120912091209 L 129.03739746791658,120.4120412041204 L 128.39903436205347,118.86188618861885 L 127.93677142332501,116.96169616961696 L 127.10029562943541,117.06170617061706 L 124.39275555974012,117.71177117711771 L 123.27011699425672,118.4118411841184 L 121.81729061539583,119.76197619761976 L 113.1443573840142,131.013101310131 L 109.9305293338068,135.61356135613562 L 109.31417874883552,136.16361636163614 L 106.40852599111375,136.46364636463645 L 105.17582482117118,136.86368636863685 L 104.29532398549792,137.56375637563755 L 103.43683567071649,139.16391639163916 L 102.24815954255759,140.36403640364037 L 99.82678224445611,141.2141214121412 L 99.45256938929498,139.2139213921392 L 99.27646922216033,138.86388638863886 L 98.81420628343186,138.8138813881388 L 96.89911696584251,139.96399639963997 L 95.99660360927741,140.11401140114012 L 93.31107606047397,139.56395639563956 L 88.35825885981187,142.1142114211421 L 85.54065618565743,142.1142114211421 L 82.9431787204213,142.6142614261426 L 78.93689991810797,145.11451145114512 L 77.19791076765327,144.91449144914492 L 76.60357270357382,144.51445144514452 L 75.96520959771071,143.76437643764376 L 75.21678388738843,142.3142314231423 L 73.56584482050107,140.16401640164017 L 69.77969122710604,137.06370637063705 L 68.96522795410827,136.06360636063604 L 65.39919956963156,128.76287628762876 L 64.67278638020112,127.7127712771277 L 62.91178470885459,128.012801280128 L 64.8708990682276,124.81248124812481 L 65.3551745278479,123.5123512351235 L 65.46523713230705,122.51225122512251 L 65.13504931892957,121.06210621062105 L 64.38662360860731,119.61196119611961 L 63.35203512669122,118.16181618161815 L 61.569020934452865,116.1116111611161 L 60.688520098779605,115.46154615461546 L 60.77657018234693,114.96149614961496 L 61.26084564196722,114.1114111411141 L 64.91492411001126,110.36103610361036 L 67.68850174238204,106.56065606560655 L 68.17277720200234,106.2106210621062 L 69.66962862264688,105.76057605760576 L 69.8237162688897,105.56055605560556 L 69.42749089283673,104.86048604860486 L 68.19478972289417,103.8103810381038 L 68.6350401407308,102.6102610261026 L 69.71365366443054,100.96009600960096 L 70.33000424940182,99.55995599559955 L 70.85830475080579,97.55975597559755 L 70.81427970902212,96.65966596659665 L 70.5941545001038,96.00960096009601 L 69.86774131067337,95.3095309530953 L 70.48409189564465,94.1094109410941 L 74.60043330241714,90.45904590459045 L 76.86772295427579,84.9084908490849 L 77.02181060051862,83.3083308330833 L 77.6381611854899,82.05820582058206 L 79.42117537772826,79.35793579357936 L 83.22934149201512,69.6069606960696 L 84.02179224412106,68.4068406840684 L 84.99034316336164,67.80678067806781 L 86.641282230249,67.80678067806781 L 89.08467204924231,68.6068606860686 L 90.6035359907787,68.7068706870687 L 93.7513264783106,67.75677567756776 L 94.60981479309203,67.65676567656766 L 95.95257856749376,67.006700670067 L 105.72613784346697,57.3057305730573 L 107.8393398490828,55.65556555655565 L 109.24814118616001,55.105510551055104 L 109.95254185469862,55.105510551055104 L 110.67895504412907,54.6054605460546 L 113.45253267649984,51.605160516051605 L 115.74183484925032,49.8049804980498 L 116.35818543422161,48.95489548954895 L 117.17264870721938,45.654565456545654 L 117.63491164594784,44.404440444044404 L 118.82358777410674,42.7042704270427 L 119.96823886048199,41.4041404140414 L 120.51855188277777,40.15401540154015 L 120.71666457080426,37.403740374037405 L 122.30156607501613,37.1037103710371 L 124.01854270457899,37.1037103710371 L 124.89904354025225,36.85368536853685 L 125.84558193860101,36.203620362036204 L 126.54998260713963,35.25352535253525 L 126.92419546230076,34.05340534053405 L 126.54998260713963,30.1030103010301 L 127.91475890243318,28.05280528052805 L 128.15689663224333,27.25272527252725 L 132.8235510613116,25.45254525452545 L 135.02480315049476,24.102410241024103 L 137.1380051561106,23.9023902390239 L 139.31724472440192,26.1026102610261 L 140.32982068542617,29.352935293529352 L 139.82353270491404,32.2032203220322 L 134.07826475214603,41.75417541754175 L 131.10657443174875,44.7044704470447 L 130.46821132588565,45.654565456545654 L 128.59714705007997,55.55555555555555 L 127.95878394421685,56.8056805680568 L 129.4556353648614,57.3057305730573 L 135.68517877724972,57.505750575057505 L 137.7543557410819,57.9057905790579 L 138.28265624248584,60.85608560856085 L 139.31724472440192,63.75637563756375 L 140.748058582371,66.3066306630663 L 142.39899764925835,68.25682568256825 L 144.77634990557615,69.35693569356935 L 148.91470383324048,68.85688568856885 L 150.8738181926135,70.00700070007001 L 153.14110784447215,70.6070607060706 L 159.76687663291344,69.6069606960696 L 162.8706420786617,69.90699069906991 L 167.5593090286218,72.15721572157216 z" /><path fill-rule="evenodd" fill="#D2EBD9" stroke="#A6A6A6" stroke-width="0.25" opacity="1" d="M 128.15689663224333,27.25272527252725 L 127.91475890243318,28.05280528052805 L 126.54998260713963,30.1030103010301 L 126.92419546230076,34.05340534053405 L 126.54998260713963,35.25352535253525 L 125.84558193860101,36.203620362036204 L 124.89904354025225,36.85368536853685 L 124.01854270457899,37.1037103710371 L 122.30156607501613,37.1037103710371 L 120.71666457080426,37.403740374037405 L 120.51855188277777,40.15401540154015 L 119.96823886048199,41.4041404140414 L 118.82358777410674,42.7042704270427 L 117.63491164594784,44.404440444044404 L 117.17264870721938,45.654565456545654 L 116.35818543422161,48.95489548954895 L 115.74183484925032,49.8049804980498 L 113.45253267649984,51.605160516051605 L 110.67895504412907,54.6054605460546 L 109.95254185469862,55.105510551055104 L 109.24814118616001,55.105510551055104 L 107.8393398490828,55.65556555655565 L 105.72613784346697,57.3057305730573 L 95.95257856749376,67.006700670067 L 94.60981479309203,67.65676567656766 L 93.7513264783106,67.75677567756776 L 90.6035359907787,68.7068706870687 L 89.08467204924231,68.6068606860686 L 86.641282230249,67.80678067806781 L 84.99034316336164,67.80678067806781 L 84.02179224412106,68.4068406840684 L 83.22934149201512,69.6069606960696 L 79.42117537772826,79.35793579357936 L 77.6381611854899,82.05820582058206 L 77.02181060051862,83.3083308330833 L 76.86772295427579,84.9084908490849 L 74.60043330241714,90.45904590459045 L 70.48409189564465,94.1094109410941 L 69.86774131067337,95.3095309530953 L 70.5941545001038,96.00960096009601 L 70.81427970902212,96.65966596659665 L 70.85830475080579,97.55975597559755 L 70.33000424940182,99.55995599559955 L 69.71365366443054,100.96009600960096 L 68.6350401407308,102.6102610261026 L 68.19478972289417,103.8103810381038 L 69.42749089283673,104.86048604860486 L 69.8237162688897,105.56055605560556 L 69.66962862264688,105.76057605760576 L 68.17277720200234,106.2106210621062 L 67.68850174238204,106.56065606560655 L 64.91492411001126,110.36103610361036 L 61.26084564196722,114.1114111411141 L 60.77657018234693,114.96149614961496 L 60.688520098779605,115.46154615461546 L 61.569020934452865,116.1116111611161 L 63.35203512669122,118.16181618161815 L 64.38662360860731,119.61196119611961 L 65.13504931892957,121.06210621062105 L 65.46523713230705,122.51225122512251 L 65.3551745278479,123.5123512351235 L 64.8708990682276,124.81248124812481 L 62.91178470885459,128.012801280128 L 61.238833121075395,128.4128412841284 L 60.00613195113282,128.2128212821282 L 59.059593552784065,128.5128512851285 L 58.289155321569964,129.2129212921292 L 58.025005070867984,129.8129812981298 L 58.025005070867984,130.51305130513052 L 58.42123044692095,131.9131913191319 L 58.465255488704614,132.7132713271327 L 58.025005070867984,135.06350635063507 L 58.20110523800264,135.61356135613562 L 58.37720540513729,138.26382638263826 L 58.11305515443531,138.76387638763876 L 57.65079221570685,139.06390639063906 L 55.801740460793,139.4139413941394 L 55.603627772766515,139.66396639663967 L 55.58161525187468,139.91399139913992 L 55.933815586143986,140.31403140314032 L 56.10991575327864,140.8140814081408 L 56.17595331595413,141.6141614161416 L 55.97784062792765,143.1143114311431 L 54.76715197887692,144.96449644964497 L 53.77658853874449,145.36453645364534 L 53.13822543288138,145.11451145114512 L 52.78602509861207,145.21452145214522 L 50.76087317656357,146.56465646564655 L 49.28603427681086,146.56465646564655 L 48.42754596202943,147.014701470147 L 44.90554261933638,149.51495149514952 L 42.594227925694064,149.51495149514952 L 40.92127633791487,149.81498149814982 L 39.99675046045794,150.3150315031503 L 38.83008685319086,150.2150215021502 L 38.19172374732775,150.4150415041504 L 37.773485850382954,150.76507650765075 L 37.113110223628006,152.96529652965296 L 37.20116030719533,153.3153315331533 L 36.89298501470969,153.76537653765376 L 35.72632140744262,153.91539153915392 L 34.77978300909386,153.6153615361536 L 33.392994192908475,153.86538653865387 L 33.08481890042283,154.46544654465447 L 33.018781337747335,155.8155815581558 L 32.6445684825862,156.3156315631563 L 28.9464649727585,158.36583658365836 L 27.73577632370776,158.71587158715872 L 26.59112523733252,158.81588158815882 L 25.952762131469406,159.16591659165917 L 25.68861188076743,159.96599659965995 L 25.798674485226584,160.56605660566055 L 25.68861188076743,161.16611661166115 L 25.204336421147133,161.76617661766176 L 23.02509685285581,163.26632663266327 L 22.540821393235515,163.86638663866387 L 22.540821393235515,165.1165116511651 L 22.254658621641703,165.4165416541654 L 21.594282994886758,165.36653665366535 L 18.622592674489496,164.06640664066407 L 17.38989150454693,163.86638663866387 L 15.452789666065753,165.06650665066505 L 12.811287159045966,166.16661666166615 L 11.050285487699442,166.56665666566656 L 9.223246253677422,166.7166716671667 L 7.22010685252075,166.016601660166 L 4.072316364988838,165.7165716571657 L 4.710679470851953,164.36643664366434 L 13.361600181341755,151.5151515151515 L 14.26411353790685,148.96489648964896 L 14.924489164661797,153.5153515351535 L 17.91819200595089,154.36543654365437 L 21.22007013972562,152.66526652665266 L 22.76094660215383,149.51495149514952 L 22.518808872343683,145.56455645564554 L 21.704345599345917,142.46424642464245 L 20.163469136917705,141.6141614161416 L 17.742091838816236,144.41444144414442 L 16.79555344046748,144.41444144414442 L 15.782977479443227,144.1144114411441 L 15.12260185268828,146.7146714671467 L 14.26411353790685,147.76477647764776 L 14.880464122878132,144.21442144214421 L 18.314417382003857,139.3139313931393 L 22.584846435019177,134.96349634963497 L 25.776661964334753,133.1133113311331 L 26.15087481949589,130.66306630663067 L 25.314399025606292,115.8115811581158 L 24.147735418339217,114.71147114711471 L 21.528245432211264,113.4113411341134 L 18.90875544608331,112.81128112811281 L 17.742091838816236,113.5113511351135 L 17.455929067222424,115.76157615761575 L 16.773540919575648,118.16181618161815 L 15.12260185268828,122.01220122012201 L 13.933925724529376,123.86238623862386 L 9.4873965043794,129.3129312931293 L 7.550294665898224,130.66306630663067 L 5.503130222957889,130.46304630463047 L 2.179239568291324,128.7128712871287 L 2.179239568291324,127.6127612761276 L 2.883640236829934,127.31273127312731 L 3.1037654457482495,126.51265126512651 L 4.6446419081764585,124.41244124412441 L 9.003121044759107,120.06200620062006 L 9.927646922216033,118.06180618061805 L 11.60059850999523,110.76107610761075 L 12.216949094966514,109.36093609360935 L 13.603737911151903,107.1107110711071 L 25.46848667184911,93.80938093809381 L 29.584828078621612,90.65906590659066 L 36.62883476400771,88.25882588258825 L 40.63511356632105,84.65846584658465 L 47.54704512635617,80.5080508050805 L 55.75771541900934,77.85778577857785 L 56.9904165889519,76.55765576557656 L 57.45267952768037,76.90769076907691 L 58.48726800959645,75.3075307530753 L 59.543869012404365,72.75727572757275 L 61.1727955583999,71.45714571457145 L 61.76713362247935,70.75707570757075 L 62.18537151942415,69.3069306930693 L 62.49354681190979,70.55705570557055 L 63.02184731331375,71.6071607160716 L 66.4117755306558,69.3069306930693 L 65.42121209052338,68.3068306830683 L 66.76397586492511,67.55675567556756 L 68.74510274518995,67.2067206720672 L 72.7513815475033,67.05670567056706 L 73.76395750852755,66.35663566356635 L 75.43690909630675,62.6062606260626 L 81.29223965353394,51.25512551255125 L 83.47147922182526,49.204920492049204 L 82.19475301009903,48.3048304830483 L 80.9840643610483,47.05470547054705 L 79.13501260613445,44.75447544754475 L 79.13501260613445,43.7043704370437 L 80.0815510044832,43.05430543054305 L 82.21676553099087,43.004300430043 L 83.47147922182526,42.5042504250425 L 85.16644333049629,41.5041504150415 L 85.67273131100842,40.954095409540955 L 85.82681895725125,39.603960396039604 L 86.02493164527773,39.2039203920392 L 88.77649675675667,38.2038203820382 L 90.71359859523784,38.003800380038 L 92.0123373278559,37.1037103710371 L 92.82680060085367,33.753375337533754 L 92.5626503501517,31.803180318031803 L 90.27334817740122,23.65236523652365 L 88.3802713807037,19.5019501950195 L 88.99662196567499,18.9018901890189 L 91.13183649218264,18.051805180518052 L 89.17272213280964,13.1013101310131 L 88.75448423586484,10.45104510451045 L 89.43687238351161,8.05080508050805 L 90.27334817740122,8.05080508050805 L 90.40542330275221,9.000900090009 L 92.80478807996184,10.45104510451045 L 101.93998425007194,7.4007400740074 L 107.66323968194814,4.4004400440044 L 111.22926806642486,1.2001200120012 L 113.76070796898549,0.0 L 115.74183484925032,0.5000500050005 L 116.18208526708696,1.3501350135013501 L 116.11604770441147,2.5502550255025502 L 116.27013535065429,3.8003800380038 L 117.23868626989487,4.85048504850485 L 118.25126223091912,5.2005200520052 L 119.30786323372703,5.2005200520052 L 120.38647675742679,4.85048504850485 L 121.48710280201837,4.2004200420042 L 121.8613156571795,7.75077507750775 L 123.73237993298518,9.55095509550955 L 126.06570714751933,10.9010901090109 L 127.78268377708218,13.001300130013 L 128.15689663224333,14.8014801480148 L 127.78268377708218,15.65156515651565 L 127.10029562943541,16.351635163516352 L 126.41790748178863,18.25182518251825 L 125.18520631184606,19.95199519951995 L 126.30784487732947,23.25232523252325 L 125.88960698038467,24.5024502450245 L 125.16319379095424,25.202520252025202 L 124.8550184984686,25.852585258525853 L 125.73551933414186,27.052705270527053 L 126.77010781605794,27.502750275027502 L 128.15689663224333,27.25272527252725 z" /><path fill-rule="evenodd" fill="#D2EBD9" stroke="#A6A6A6" stroke-width="0.25" opacity="1" d="M 69.4715159346204,468.4968496849685 L 68.30485232735332,468.0968096809681 L 66.03756267549467,468.3968396839684 L 63.924360669878844,469.4969496949695 L 59.80801926310634,472.6472647264726 L 57.67280473659868,477.8977897789779 L 57.23255431876205,479.44794479447944 L 57.16651675608655,480.5980598059806 L 57.60676717392319,484.3484348434843 L 58.53129305138011,486.3486348634863 L 59.12563111545956,487.2987298729873 L 59.34575632437788,487.14871487148713 L 59.12563111545956,490.4990499049905 L 58.069030112651646,494.8494849484948 L 56.13192827417047,498.4998499849985 L 53.2923130791242,500.0 L 50.38666032140244,498.5998599859986 L 46.88666949960122,495.4495449544954 L 43.628816407610145,491.5491549154915 L 41.53762692288615,488.14881488148814 L 40.81121373345571,485.79857985798577 L 40.1068130649171,481.3481348134813 L 39.42442491727032,479.34793479347934 L 37.883548454842106,477.54775477547753 L 36.078521741711924,476.5476547654765 L 34.58167032106738,475.2475247524752 L 33.899282173420595,472.6472647264726 L 32.38041823188422,469.4969496949695 L 30.66344160232136,466.69666966696667 L 28.616277159381024,464.3464346434643 L 26.15087481949589,462.69626962696265 L 24.499935752608522,459.94599459945994 L 18.116304693977373,452.4952495249525 L 17.477941588114255,451.54515451545154 L 16.289265459955352,448.7948794879488 L 16.047127730145206,447.5447544754475 L 16.13517781371253,445.2445244524452 L 16.00310268836154,444.3444344434443 L 4.050303844097007,425.69256925692565 L 0.3522003342693049,421.6921692169217 L 0.0,419.8919891989199 L 1.2327011699425672,417.19171917191716 L 3.2138280502074075,414.99149914991494 L 10.345884819160831,409.69096909690967 L 12.525124387452156,407.040704070407 L 12.833299679937799,405.4405440544054 L 10.543997507187315,400.39003900390037 L 9.949659443107864,397.5397539753975 L 9.795571796865042,394.1894189418942 L 10.257834735593505,390.98909890989097 L 11.402485821968746,388.4388438843884 L 12.349024220317503,387.28872887288725 L 11.688648593562556,384.43844384438444 L 10.940222883240285,383.83838383838383 L 9.927646922216033,383.6883688368837 L 9.289283816352917,383.0883088308831 L 10.081734568458852,379.18791879187916 L 9.773559275973211,377.98779877987795 L 9.311296337244748,377.1377137713771 L 9.135196170110095,374.4874487448745 L 9.443371462595739,373.83738373837383 L 10.58802254897098,372.6872687268727 L 11.578585989103399,370.88708870887086 L 11.490535905536072,366.53665366536654 L 11.60059850999523,364.7864786478648 L 20.07541905335038,367.48674867486744 L 22.34270870520903,366.4866486648665 L 24.125722897447385,365.2865286528653 L 32.11626798118224,361.98619861986197 L 31.742055126021107,363.8363836383638 L 24.213772981014714,369.8369836983698 L 23.729497521394418,371.88718871887187 L 24.125722897447385,373.7873787378738 L 25.094273816687974,375.0875087508751 L 26.238924903063218,375.2875287528753 L 27.911876490842413,374.5874587458746 L 32.18230554385774,371.98719871987197 L 34.33953259125723,371.037103710371 L 36.10053426260375,371.6371637163716 L 37.553360641464636,373.2373237323732 L 37.13512274451984,376.6376637663766 L 36.49675963865672,378.5378537853785 L 35.9244340954691,379.2379237923792 L 37.289210390762655,379.78797879787976 L 39.38039987548665,380.1380138013801 L 40.19486314848442,379.8379837983798 L 41.383539276643326,379.037903790379 L 43.93699170009579,378.7378737873787 L 44.09107934633861,378.38783878387835 L 43.078503385314356,376.68766876687664 L 42.99045330174703,375.987598759876 L 43.188565989773515,375.43754375437544 L 44.75145497309356,374.4874487448745 L 45.764030934117805,374.43744374437443 L 50.32062275872694,375.1875187518752 L 51.37722376153486,375.03750375037504 L 52.36778720166728,374.4874487448745 L 54.613064332634096,372.6372637263726 L 56.24199087862963,371.98719871987197 L 57.364629444113035,372.4372437243724 L 58.37720540513729,373.1873187318732 L 59.74198170043085,374.6874687468747 L 59.874056825781835,375.23752375237524 L 59.74198170043085,375.93759375937594 L 58.289155321569964,379.08790879087906 L 62.119333956748655,379.28792879287926 L 64.51869873395829,380.48804880488046 L 65.2891369651724,380.5380538053805 L 66.16963780084566,380.1380138013801 L 67.13818872008625,379.38793879387936 L 69.03126551678376,378.7378737873787 L 70.06585399869985,378.68786878687865 L 71.03440491794044,378.98789878987895 L 71.67276802380356,379.48794879487946 L 72.53125633858498,380.58805880588056 L 73.78597002941937,381.68816881688167 L 74.97464615757828,383.0883088308831 L 76.42747253643917,383.988398839884 L 77.74822378994907,384.33843384338434 L 78.540674542055,384.2884288428843 L 79.26708773148543,383.5883588358836 L 79.83941327467306,381.038103810381 L 80.78595167302181,378.58785878587855 L 81.29223965353394,377.7377737773777 L 83.71361695163542,374.6874687468747 L 84.02179224412106,373.93739373937393 L 84.02179224412106,373.3373337333733 L 83.7796545143109,372.8872887288729 L 82.74506603239482,371.88718871887187 L 82.56896586526017,371.2371237123712 L 82.67902846971933,370.5370537053705 L 83.20732897112329,369.7369736973697 L 83.86770459787823,369.1369136913691 L 84.96833064246981,368.78687868786875 L 89.76706019688909,368.58685868586855 L 90.75762363702151,368.88688868886885 L 91.41799926377645,369.38693869386935 L 92.87082564263734,372.1372137213721 L 93.7513264783106,373.3373337333733 L 96.52490411068138,376.0876087608761 L 98.43999342827072,377.2377237723772 L 99.56263199375414,378.2378237823782 L 100.75130812191304,379.9379937993799 L 101.78589660382912,383.33833383338333 L 102.8865226484207,384.53845384538454 L 104.33934902728159,385.4885488548855 L 112.28586906923277,389.48894889488946 L 117.3267363534622,394.23942394239424 L 114.42108359574044,396.98969896989695 L 113.36448259293252,398.6398639863986 L 112.52800679904293,399.28992899289926 L 111.80159360961248,399.1399139913991 L 109.99656689648229,398.2398239823982 L 108.56575303851324,398.1398139813981 L 108.6097780802969,398.48984898489846 L 110.4148047934271,401.040104010401 L 111.1192054619657,403.24032403240324 L 110.89908025304739,404.3904390439044 L 110.26071714718427,405.7405740574057 L 110.65694252323723,407.040704070407 L 114.00284569879564,411.8911891189119 L 114.92737157625255,412.84128412841284 L 117.612899125056,414.69146914691464 L 119.79213869334734,416.49164916491645 L 121.0908774259654,419.041904190419 L 120.18836406940031,421.84218421842183 L 116.4242229968971,423.4923492349235 L 115.32359695230552,423.74237423742375 L 114.17894586593029,425.19251925192515 L 113.45253267649984,425.7425742574257 L 112.55001931993475,425.9425942594259 L 109.57832899953749,425.7425742574257 L 95.40226554519796,432.6932693269327 L 93.77333899920244,433.1933193319332 L 90.84567372058883,433.59335933593354 L 88.732471714973,431.54315431543154 L 81.33626469531761,431.84318431843184 L 80.54381394321167,431.5931593159316 L 79.7293506702139,430.993099309931 L 77.92432395708371,429.1429142914291 L 77.17589824676143,428.59285928592857 L 75.21678388738843,427.89278927892786 L 74.57842078152531,426.99269926992696 L 71.4306302939934,427.3427342734273 L 68.83315282875728,428.9428942894289 L 68.59101509894714,429.6429642964296 L 69.27340324659392,432.1932193219322 L 69.42749089283673,434.043404340434 L 69.71365366443054,434.5434543454345 L 69.66962862264688,435.99359935993596 L 69.22937820481025,438.29382938293827 L 67.6004516588147,444.044404440444 L 67.13818872008625,446.69466946694666 L 67.05013863651892,448.6948694869487 L 67.22623880365357,450.04500450045003 L 67.09416367830259,454.3454345434543 L 66.4778130933313,456.79567956795677 L 64.49668621306647,459.24592459245923 L 64.29857352503998,459.84598459845984 L 64.51869873395829,460.34603460346034 L 65.68536234122537,461.44614461446145 L 66.9620885529516,464.49644964496446 L 68.70107770340628,466.79667966796677 L 69.4715159346204,468.4968496849685 z" /><path fill-rule="evenodd" fill="#D2EBD9" stroke="#A6A6A6" stroke-width="0.25" opacity="1" d="M 4.072316364988838,165.7165716571657 L 7.22010685252075,166.016601660166 L 9.223246253677422,166.7166716671667 L 11.050285487699442,166.56665666566656 L 12.811287159045966,166.16661666166615 L 15.452789666065753,165.06650665066505 L 17.38989150454693,163.86638663866387 L 18.622592674489496,164.06640664066407 L 21.594282994886758,165.36653665366535 L 22.254658621641703,165.4165416541654 L 22.540821393235515,165.1165116511651 L 22.540821393235515,163.86638663866387 L 23.02509685285581,163.26632663266327 L 25.204336421147133,161.76617661766176 L 25.68861188076743,161.16611661166115 L 25.798674485226584,160.56605660566055 L 25.68861188076743,159.96599659965995 L 25.952762131469406,159.16591659165917 L 26.59112523733252,158.81588158815882 L 27.73577632370776,158.71587158715872 L 28.9464649727585,158.36583658365836 L 32.6445684825862,156.3156315631563 L 33.018781337747335,155.8155815581558 L 33.08481890042283,154.46544654465447 L 33.392994192908475,153.86538653865387 L 34.77978300909386,153.6153615361536 L 35.72632140744262,153.91539153915392 L 36.89298501470969,153.76537653765376 L 37.20116030719533,153.3153315331533 L 37.113110223628006,152.96529652965296 L 37.773485850382954,150.76507650765075 L 38.19172374732775,150.4150415041504 L 38.83008685319086,150.2150215021502 L 39.99675046045794,150.3150315031503 L 40.92127633791487,149.81498149814982 L 42.594227925694064,149.51495149514952 L 44.90554261933638,149.51495149514952 L 48.42754596202943,147.014701470147 L 49.28603427681086,146.56465646564655 L 50.76087317656357,146.56465646564655 L 52.78602509861207,145.21452145214522 L 53.13822543288138,145.11451145114512 L 53.77658853874449,145.36453645364534 L 54.76715197887692,144.96449644964497 L 55.97784062792765,143.1143114311431 L 56.17595331595413,141.6141614161416 L 56.10991575327864,140.8140814081408 L 55.933815586143986,140.31403140314032 L 55.58161525187468,139.91399139913992 L 55.603627772766515,139.66396639663967 L 55.801740460793,139.4139413941394 L 57.65079221570685,139.06390639063906 L 58.11305515443531,138.76387638763876 L 58.37720540513729,138.26382638263826 L 58.20110523800264,135.61356135613562 L 58.025005070867984,135.06350635063507 L 58.465255488704614,132.7132713271327 L 58.42123044692095,131.9131913191319 L 58.025005070867984,130.51305130513052 L 58.025005070867984,129.8129812981298 L 58.289155321569964,129.2129212921292 L 59.059593552784065,128.5128512851285 L 60.00613195113282,128.2128212821282 L 61.238833121075395,128.4128412841284 L 62.91178470885459,128.012801280128 L 64.67278638020112,127.7127712771277 L 65.39919956963156,128.76287628762876 L 68.96522795410827,136.06360636063604 L 69.77969122710604,137.06370637063705 L 73.56584482050107,140.16401640164017 L 75.21678388738843,142.3142314231423 L 75.96520959771071,143.76437643764376 L 76.60357270357382,144.51445144514452 L 77.19791076765327,144.91449144914492 L 78.93689991810797,145.11451145114512 L 78.23249924956936,148.06480648064806 L 76.66961026624931,149.21492149214922 L 74.95263363668646,149.81498149814982 L 71.95893079539736,151.9151915191519 L 70.5941545001038,153.71537153715371 L 68.76711526608179,158.76587658765877 L 68.1507646811105,159.8159815981598 L 67.51240157524738,160.26602660266025 L 66.91806351116793,160.36603660366035 L 66.80800090670877,160.5160516051605 L 67.8646019095167,161.16611661166115 L 69.86774131067337,163.016301630163 L 70.08786651959169,164.4164416441644 L 69.44950341372856,165.7165716571657 L 66.03756267549467,169.66696669666965 L 65.24511192338873,173.11731173117312 L 63.594172856501366,174.36743674367435 L 62.53757185369346,174.7174717471747 L 60.93065782858975,175.56755675567555 L 60.40235732718579,176.2176217621762 L 60.11619455559198,178.86788678867885 L 60.79858270323876,181.018101810181 L 60.95267034948158,182.61826182618262 L 60.49040741075312,183.7183718371837 L 58.15708019621898,186.86868686868686 L 57.54072961124769,188.26882688268824 L 57.21054179787022,189.5189518951895 L 57.364629444113035,191.96919691969197 L 60.88663278680609,191.86918691869187 L 61.43694580910188,192.06920692069207 L 61.43694580910188,193.76937693769375 L 61.855183706046674,194.56945694569455 L 61.745121101587515,195.8195819581958 L 62.64763445815261,197.76977697769775 L 64.14448587879716,198.6198619861986 L 66.03756267549467,199.26992699269925 L 67.40233897078822,199.96999699969996 L 68.01868955575951,199.6199619961996 L 69.18535316302659,198.019801980198 L 70.46207937475282,198.36983698369835 L 74.49037069795799,198.26982698269825 L 75.17275884560476,199.4199419941994 L 74.86458355311913,200.4200420042004 L 74.22622044725601,201.27012701270127 L 69.20736568391841,202.7202720272027 L 68.45893997359615,203.27032703270325 L 67.3803264498964,204.4204420442044 L 66.23567536352115,206.67066706670667 L 65.86146250836002,208.6208620862086 L 65.88347502925185,209.5209520952095 L 66.4117755306558,212.4212421242124 L 66.125612759062,217.2217221722172 L 66.21366284262932,217.77177717771775 L 67.18221376186992,219.7219721972197 L 67.33630140811273,222.87228722872285 L 65.68536234122537,223.57235723572356 L 64.21052344147265,223.37233723372336 L 63.33002260579939,223.87238723872386 L 62.03128387318133,224.92249224922492 L 60.77657018234693,225.17251725172517 L 56.28601592041329,224.82248224822482 L 53.24828803734054,225.67256725672567 L 51.46527384510218,226.77267726772675 L 50.408672842294266,228.1228122812281 L 49.83634729910665,229.57295729572957 L 49.594209569296495,230.67306730673067 L 49.55018452751283,231.3231323132313 L 49.74829721553932,232.3232323232323 L 50.078485028916795,233.87338733873386 L 50.03445998713313,234.27342734273427 L 49.594209569296495,234.62346234623462 L 48.603646129164076,234.32343234323432 L 45.78604345500964,232.7232723272327 L 45.12566782825469,232.87328732873286 L 44.553342285067075,233.3233323332333 L 43.298628594232675,233.3233323332333 L 42.99045330174703,233.67336733673366 L 41.88982725715545,233.87338733873386 L 40.98731390059036,234.37343734373437 L 40.54706348275373,234.42344234423442 L 39.60052508440497,234.02340234023401 L 38.367823914462406,233.2233223322332 L 36.232609387954746,231.47314731473145 L 35.19802090603866,230.87308730873087 L 33.96531973609609,230.67306730673067 L 32.05023041850675,230.77307730773077 L 30.971616894807003,231.17311731173115 L 30.333253788943885,231.07310731073105 L 29.760928245756265,230.67306730673067 L 28.594264638489193,228.9228922892289 L 28.087976657977066,228.67286728672866 L 27.339550947654793,229.022902290229 L 26.326974986630542,230.47304730473047 L 25.86471204790208,230.87308730873087 L 25.46848667184911,230.97309730973097 L 24.521948273500353,230.77307730773077 L 24.411885669041197,230.72307230723072 L 24.918173649553324,229.87298729872987 L 24.984211212228818,228.87288728872886 L 24.32383558547387,228.5228522852285 L 23.949622730312733,228.57285728572856 L 23.31125962444962,228.022802280228 L 21.946483329156063,224.5224522452245 L 22.672896518586505,223.97239723972396 L 24.698048440635006,223.1223122312231 L 25.314399025606292,222.27222722272225 L 25.6005617972001,218.87188718871886 L 24.698048440635006,215.82158215821582 L 23.267234582665957,213.5213521352135 L 21.924470808264232,212.1212121212121 L 22.62887147680284,211.17111711171117 L 22.672896518586505,210.42104210421041 L 25.908737089685744,215.37153715371537 L 27.449613552113952,219.17191719171916 L 27.86785144905875,223.4223422342234 L 28.616277159381024,220.17201720172017 L 30.267216226268392,217.17171717171715 L 31.565954958886454,213.9213921392139 L 31.36784227085997,209.87098709870986 L 29.254640265244138,207.3207320732073 L 22.716921560370167,204.1204120412041 L 21.0659824934828,201.87018701870187 L 20.669757117429832,204.27042704270426 L 20.295544262268695,201.87018701870187 L 19.37101838481177,201.87018701870187 L 19.37101838481177,205.37053705370536 L 20.383594345836023,208.67086708670865 L 19.326993343028107,212.57125712571255 L 21.0659824934828,214.47144714471446 L 19.018818050542464,213.021302130213 L 16.575428231549164,209.47094709470946 L 14.682351434851649,208.7208720872087 L 13.625750432043734,207.8207820782078 L 14.858451601986301,205.67056705670566 L 16.751528398683813,203.2203220322032 L 17.742091838816236,201.32013201320132 L 16.55341571065733,200.0200020002 L 15.672914874984068,198.7198719871987 L 15.12260185268828,197.36973697369737 L 16.465365627090005,194.8194819481948 L 16.79555344046748,193.4193419341934 L 15.496814707849417,192.76927692769277 L 13.185500014207102,192.11921192119212 L 12.062861448723693,190.3190319031903 L 11.666636072670725,187.66876687668767 L 11.534560947319736,177.86778677867787 L 11.02827296680761,175.1175117511751 L 9.927646922216033,172.56725672567256 L 8.364757938895991,170.9170917091709 L 6.339606016847489,169.36693669366935 L 4.6446419081764585,167.76677667766776 L 4.072316364988838,165.7165716571657 z" /><path fill-rule="evenodd" fill="#D2EBD9" stroke="#A6A6A6" stroke-width="0.25" opacity="1" d="M 21.946483329156063,224.5224522452245 L 23.31125962444962,228.022802280228 L 23.949622730312733,228.57285728572856 L 24.32383558547387,228.5228522852285 L 24.984211212228818,228.87288728872886 L 24.918173649553324,229.87298729872987 L 24.411885669041197,230.72307230723072 L 24.521948273500353,230.77307730773077 L 25.46848667184911,230.97309730973097 L 25.86471204790208,230.87308730873087 L 26.326974986630542,230.47304730473047 L 27.339550947654793,229.022902290229 L 28.087976657977066,228.67286728672866 L 28.594264638489193,228.9228922892289 L 29.760928245756265,230.67306730673067 L 30.333253788943885,231.07310731073105 L 30.971616894807003,231.17311731173115 L 32.05023041850675,230.77307730773077 L 33.96531973609609,230.67306730673067 L 35.19802090603866,230.87308730873087 L 36.232609387954746,231.47314731473145 L 38.367823914462406,233.2233223322332 L 39.60052508440497,234.02340234023401 L 40.54706348275373,234.42344234423442 L 40.98731390059036,234.37343734373437 L 41.88982725715545,233.87338733873386 L 42.99045330174703,233.67336733673366 L 43.298628594232675,233.3233323332333 L 44.553342285067075,233.3233323332333 L 45.12566782825469,232.87328732873286 L 45.78604345500964,232.7232723272327 L 48.603646129164076,234.32343234323432 L 49.594209569296495,234.62346234623462 L 50.03445998713313,234.27342734273427 L 50.078485028916795,233.87338733873386 L 49.74829721553932,232.3232323232323 L 52.389799722559104,231.87318731873185 L 52.78602509861207,232.27322732273225 L 53.204262995556874,232.97329732973296 L 53.358350641799696,235.72357235723572 L 53.73256349696083,237.4237423742374 L 54.76715197887692,238.4238423842384 L 57.69481725749051,239.87398739873987 L 58.48726800959645,240.6240624062406 L 58.883493385649416,241.37413741374135 L 59.1476436363514,243.1243124312431 L 63.13190991777291,243.4243424342434 L 66.98410107384343,243.07430743074306 L 69.42749089283673,243.57435743574356 L 71.03440491794044,244.22442244224422 L 71.60673046112805,244.92449244924492 L 71.67276802380356,245.27452745274528 L 70.52811693742831,245.8245824582458 L 70.06585399869985,246.67466746674666 L 73.05955683998894,249.27492749274927 L 79.00293748078346,251.7251725172517 L 81.68846502958691,252.3252325232523 L 87.1915952525448,255.2255225522552 L 88.0941086091099,256.025602560256 L 91.85824968161309,260.3760376037604 L 93.42113866493312,262.87628762876284 L 95.22616537806331,265.07650765076505 L 96.21672881819573,265.77657765776576 L 97.00917957030167,265.8265826582658 L 97.55949259259746,265.3265326532653 L 98.37395586559524,264.9264926492649 L 99.43055686840314,264.7264726472647 L 100.22300762050908,264.9264926492649 L 100.92740828904769,265.4265426542654 L 102.8865226484207,267.4267426742674 L 103.7229984423103,268.026802680268 L 105.79217540614246,268.2268226822682 L 107.8393398490828,272.2272227222722 L 110.61291748145358,274.57745774577455 L 111.86763117228797,275.2275227522752 L 118.55943752340477,277.07770777077707 L 119.13176306659238,277.6277627762776 L 119.43993835907803,278.1778177817782 L 120.21037659029213,280.02800280028003 L 110.7670051276964,283.37833783378335 L 109.05002849813353,284.67846784678466 L 104.31733650638975,289.82898289828984 L 100.81734568458853,289.7789778977898 L 100.13495753694176,288.82888288828883 L 98.79219376254002,287.5287528752875 L 97.95571796865043,287.3787378737874 L 97.1632672165445,287.7787778777878 L 96.08465369284475,289.5789578957896 L 95.20415285717148,290.57905790579053 L 93.09095085155566,291.8291829182918 L 90.80164867880518,293.77937793779375 L 90.40542330275221,294.47944794479446 L 90.0532229684829,295.7295729572957 L 89.32680977905245,296.7296729672967 L 88.68844667318935,299.02990299029904 L 86.09096920795322,302.9302930293029 L 83.66959190985175,305.6305630563056 L 82.19475301009903,306.8806880688069 L 81.13815200729113,307.53075307530753 L 79.70733814932207,307.5807580758076 L 79.42117537772826,304.8304830483048 L 77.44004849746342,300.8300830083008 L 76.449485057331,299.52995299529954 L 74.2922580099315,297.4297429742974 L 73.19163196533992,296.9296929692969 L 72.22308104609934,297.0797079707971 L 71.03440491794044,298.0798079807981 L 70.48409189564465,298.32983298329833 L 69.77969122710604,296.57965796579657 L 69.18535316302659,296.17961796179617 L 64.034423274338,294.07940794079406 L 60.40235732718579,291.47914791479144 L 58.025005070867984,290.4790479047905 L 56.55016617111527,290.52905290529054 L 55.779727939901164,290.97909790979094 L 54.98727718779523,292.8292829282928 L 54.32690156104028,293.7293729372937 L 53.75457601785266,294.17941794179416 L 53.33633812090786,294.97949794979496 L 53.07218787020589,295.7295729572957 L 52.67596249415292,298.52985298529853 L 52.30174963899178,299.4799479947995 L 51.81747417937149,299.82998299829984 L 51.17911107350837,299.0799079907991 L 50.82691073923907,298.1798179817982 L 50.21056015426778,297.4297429742974 L 49.46213444394551,297.029702970297 L 46.908682020493046,297.7297729772977 L 43.65082892850198,296.979697969797 L 43.408691198691834,287.5287528752875 L 43.49674128225916,285.57855785578556 L 44.2231544716896,283.97839783978395 L 44.883530098444545,283.27832783278325 L 46.11623126838711,282.7282728272827 L 46.38038151908909,281.97819781978194 L 46.16025631017077,277.8777877787779 L 46.27031891462993,275.77757775777576 L 46.16025631017077,273.87738773877385 L 45.80805597590147,272.027202720272 L 45.03761774468737,270.82708270827084 L 41.80177717358813,267.97679767976797 L 39.31436231281116,263.37633763376334 L 36.98103509827702,265.026502650265 L 33.547081839151296,266.47664766476646 L 30.421303872511213,266.1266126612661 L 30.509353956078538,265.4265426542654 L 29.628853120405275,262.27622762276224 L 24.543960794392188,254.02540254025402 L 24.32383558547387,252.1252125212521 L 24.32383558547387,249.87498749874987 L 23.90559768852907,248.024802480248 L 21.19805761883379,246.77467746774676 L 21.08799501437463,245.7245724572457 L 21.63830803667042,244.37443744374437 L 22.34270870520903,243.27432743274326 L 23.003084331963976,240.6240624062406 L 21.63830803667042,228.07280728072806 L 21.110007535266462,227.27272727272725 L 21.021957451699137,226.37263726372635 L 21.946483329156063,224.5224522452245 z" /><path fill-rule="evenodd" fill="#D2EBD9" stroke="#A6A6A6" stroke-width="0.25" opacity="1" d="M 30.421303872511213,266.1266126612661 L 33.547081839151296,266.47664766476646 L 36.98103509827702,265.026502650265 L 39.31436231281116,263.37633763376334 L 41.80177717358813,267.97679767976797 L 45.03761774468737,270.82708270827084 L 45.80805597590147,272.027202720272 L 46.16025631017077,273.87738773877385 L 46.27031891462993,275.77757775777576 L 46.16025631017077,277.8777877787779 L 46.38038151908909,281.97819781978194 L 46.11623126838711,282.7282728272827 L 44.883530098444545,283.27832783278325 L 44.2231544716896,283.97839783978395 L 43.49674128225916,285.57855785578556 L 43.408691198691834,287.5287528752875 L 43.65082892850198,296.979697969797 L 46.908682020493046,297.7297729772977 L 49.46213444394551,297.029702970297 L 50.21056015426778,297.4297429742974 L 50.82691073923907,298.1798179817982 L 51.17911107350837,299.0799079907991 L 51.81747417937149,299.82998299829984 L 52.30174963899178,299.4799479947995 L 52.67596249415292,298.52985298529853 L 53.07218787020589,295.7295729572957 L 53.33633812090786,294.97949794979496 L 53.75457601785266,294.17941794179416 L 54.32690156104028,293.7293729372937 L 54.98727718779523,292.8292829282928 L 55.779727939901164,290.97909790979094 L 56.55016617111527,290.52905290529054 L 58.025005070867984,290.4790479047905 L 60.40235732718579,291.47914791479144 L 64.034423274338,294.07940794079406 L 69.18535316302659,296.17961796179617 L 69.77969122710604,296.57965796579657 L 70.48409189564465,298.32983298329833 L 71.03440491794044,298.0798079807981 L 72.22308104609934,297.0797079707971 L 73.19163196533992,296.9296929692969 L 74.2922580099315,297.4297429742974 L 76.449485057331,299.52995299529954 L 77.44004849746342,300.8300830083008 L 79.42117537772826,304.8304830483048 L 79.70733814932207,307.5807580758076 L 74.79854599044363,311.48114811481145 L 70.3740292911855,317.03170317031703 L 67.09416367830259,317.2817281728173 L 65.0029741935786,319.03190319031904 L 63.88033562809518,320.4320432043204 L 63.1979474804484,320.88208820882085 L 62.58159689547712,320.9320932093209 L 61.855183706046674,320.38203820382034 L 61.392920767318216,319.0819081908191 L 60.578457494320446,318.0818081808181 L 59.0155685110004,316.93169316931693 L 55.14136483403805,315.6815681568157 L 53.18225047466504,315.4315431543154 L 51.619361491345,315.6315631563156 L 50.694835613888074,316.2316231623162 L 48.95584646343338,318.2818281828183 L 46.314343956413595,320.08200820082004 L 45.587930766983156,320.1320132013201 L 42.81435313461238,318.981898189819 L 40.899263817023034,318.73187318731874 L 40.238888190268085,318.33183318331834 L 39.77662525153962,317.2817281728173 L 35.46217115674064,319.78197819781974 L 31.94016781404759,318.6818681868187 L 21.0659824934828,320.18201820182014 L 22.45277130966819,318.3818381838184 L 24.45591071082486,314.98149814981497 L 26.238924903063218,313.2313231323132 L 27.97791405351791,312.38123812381235 L 29.320677827919635,311.98119811981195 L 30.201178663592895,310.9310931093109 L 30.509353956078538,308.1808180818082 L 29.51879051594612,303.7303730373037 L 27.097413217844647,300.28002800280024 L 24.01566029298823,297.7297729772977 L 21.0659824934828,296.07960796079607 L 21.594282994886758,291.8291829182918 L 19.547118551946422,289.52895289528954 L 16.751528398683813,289.32893289328933 L 15.12260185268828,291.5291529152915 L 15.452789666065753,289.62896289628964 L 17.301841420979603,287.9287928792879 L 17.742091838816236,286.4286428642864 L 17.742091838816236,279.5779577957796 L 18.336429902895688,276.4276427642764 L 19.899318886215728,274.9274927492749 L 22.21063357985804,274.5274527452745 L 24.940186170445156,274.5274527452745 L 26.943325571601825,273.7273727372737 L 28.792377326515677,271.67716771677163 L 30.09111605913374,268.8268826882688 L 30.421303872511213,266.1266126612661 z" /><path fill-rule="evenodd" fill="#D2EBD9" stroke="#A6A6A6" stroke-width="0.25" opacity="1" d="M 35.46217115674064,319.78197819781974 L 39.77662525153962,317.2817281728173 L 40.238888190268085,318.33183318331834 L 40.899263817023034,318.73187318731874 L 42.81435313461238,318.981898189819 L 45.587930766983156,320.1320132013201 L 46.314343956413595,320.08200820082004 L 48.95584646343338,318.2818281828183 L 50.694835613888074,316.2316231623162 L 51.619361491345,315.6315631563156 L 53.18225047466504,315.4315431543154 L 55.14136483403805,315.6815681568157 L 59.0155685110004,316.93169316931693 L 60.578457494320446,318.0818081808181 L 61.392920767318216,319.0819081908191 L 61.855183706046674,320.38203820382034 L 62.58159689547712,320.9320932093209 L 63.1979474804484,320.88208820882085 L 63.88033562809518,320.4320432043204 L 65.0029741935786,319.03190319031904 L 67.09416367830259,317.2817281728173 L 70.3740292911855,317.03170317031703 L 69.36145333016124,321.2321232123212 L 69.44950341372856,322.4322432243224 L 69.0532780376756,323.7323732373237 L 68.45893997359615,324.6324632463246 L 66.58787569779047,326.73267326732673 L 66.34573796798031,327.43274327432744 L 66.52183813511496,328.03280328032804 L 66.87403846938427,328.4828482848285 L 67.35831392900457,330.58305830583055 L 67.00611359473525,337.63376337633764 L 67.53441409613922,340.4340434043404 L 68.96522795410827,339.8339833983398 L 70.39604181207731,338.78387838783874 L 73.12559440266443,338.0838083808381 L 74.90860859490279,338.3338333833383 L 77.13187320497778,339.033903390339 L 79.09098756435078,340.08400840084005 L 79.48721294040375,339.8339833983398 L 80.23563865072603,338.38383838383834 L 80.74192663123816,337.83378337833784 L 81.57840242512775,337.2837283728373 L 84.13185484858022,336.4836483648365 L 84.92430560068615,336.73367336733673 L 85.34254349763094,337.43374337433744 L 85.49663114387377,338.48384838483844 L 87.43373298235494,339.98399839983995 L 88.24819625535271,340.18401840184015 L 89.54693498797077,340.18401840184015 L 93.8834016036616,339.38393839383934 L 95.006040169145,339.68396839683965 L 95.82050344214277,340.4340434043404 L 96.30477890176306,341.28412841284126 L 96.81106688227518,343.3343334333433 L 97.31735486278731,344.034403440344 L 98.26389326113608,344.6844684468447 L 110.21669210540061,349.58495849584955 L 111.20725554553303,351.08510851085106 L 111.20725554553303,354.4354435443544 L 110.63493000234541,355.5855585558556 L 105.2638749047385,360.2360236023602 L 105.06576221671202,360.8360836083608 L 105.35192498830584,361.2361236123612 L 108.98399093545804,361.9361936193619 L 110.52486739788625,362.58625862586257 L 111.62549344247783,364.03640364036403 L 113.2103949466897,365.73657365736574 L 114.59718376287509,366.73667366736674 L 116.68837324759909,370.2370237023702 L 116.64434820581542,372.6372637263726 L 118.62547508608026,376.13761376137614 L 119.41792583818619,376.68766876687664 L 120.6066019663451,378.037803780378 L 122.98395422266292,380.08800880088006 L 123.33615455693221,380.6380638063806 L 123.51225472406686,381.4381438143814 L 123.4021921196077,383.0883088308831 L 123.55627976585053,385.53855385538554 L 124.17263035082182,387.3387338733873 L 124.12860530903815,388.38883888388835 L 123.0499917853384,391.3891389138914 L 122.49967876304261,392.4892489248925 L 121.00282734239806,393.5893589358936 L 117.3267363534622,394.23942394239424 L 112.28586906923277,389.48894889488946 L 104.33934902728159,385.4885488548855 L 102.8865226484207,384.53845384538454 L 101.78589660382912,383.33833383338333 L 100.75130812191304,379.9379937993799 L 99.56263199375414,378.2378237823782 L 98.43999342827072,377.2377237723772 L 96.52490411068138,376.0876087608761 L 93.7513264783106,373.3373337333733 L 92.87082564263734,372.1372137213721 L 91.41799926377645,369.38693869386935 L 90.75762363702151,368.88688868886885 L 89.76706019688909,368.58685868586855 L 84.96833064246981,368.78687868786875 L 83.86770459787823,369.1369136913691 L 83.20732897112329,369.7369736973697 L 82.67902846971933,370.5370537053705 L 82.56896586526017,371.2371237123712 L 82.74506603239482,371.88718871887187 L 83.7796545143109,372.8872887288729 L 84.02179224412106,373.3373337333733 L 84.02179224412106,373.93739373937393 L 83.71361695163542,374.6874687468747 L 81.29223965353394,377.7377737773777 L 80.78595167302181,378.58785878587855 L 79.83941327467306,381.038103810381 L 79.26708773148543,383.5883588358836 L 78.540674542055,384.2884288428843 L 77.74822378994907,384.33843384338434 L 76.42747253643917,383.988398839884 L 74.97464615757828,383.0883088308831 L 73.78597002941937,381.68816881688167 L 72.53125633858498,380.58805880588056 L 71.67276802380356,379.48794879487946 L 71.03440491794044,378.98789878987895 L 70.06585399869985,378.68786878687865 L 69.03126551678376,378.7378737873787 L 67.13818872008625,379.38793879387936 L 66.16963780084566,380.1380138013801 L 65.2891369651724,380.5380538053805 L 64.51869873395829,380.48804880488046 L 62.119333956748655,379.28792879287926 L 58.289155321569964,379.08790879087906 L 59.74198170043085,375.93759375937594 L 59.874056825781835,375.23752375237524 L 59.74198170043085,374.6874687468747 L 58.37720540513729,373.1873187318732 L 57.364629444113035,372.4372437243724 L 56.24199087862963,371.98719871987197 L 54.613064332634096,372.6372637263726 L 52.36778720166728,374.4874487448745 L 51.37722376153486,375.03750375037504 L 50.32062275872694,375.1875187518752 L 45.764030934117805,374.43744374437443 L 44.75145497309356,374.4874487448745 L 43.188565989773515,375.43754375437544 L 42.99045330174703,375.987598759876 L 43.078503385314356,376.68766876687664 L 44.09107934633861,378.38783878387835 L 43.93699170009579,378.7378737873787 L 41.383539276643326,379.037903790379 L 40.19486314848442,379.8379837983798 L 39.38039987548665,380.1380138013801 L 37.289210390762655,379.78797879787976 L 35.9244340954691,379.2379237923792 L 36.49675963865672,378.5378537853785 L 37.13512274451984,376.6376637663766 L 37.553360641464636,373.2373237323732 L 36.10053426260375,371.6371637163716 L 34.33953259125723,371.037103710371 L 32.18230554385774,371.98719871987197 L 27.911876490842413,374.5874587458746 L 26.238924903063218,375.2875287528753 L 25.094273816687974,375.0875087508751 L 24.125722897447385,373.7873787378738 L 23.729497521394418,371.88718871887187 L 24.213772981014714,369.8369836983698 L 31.742055126021107,363.8363836383638 L 32.11626798118224,361.98619861986197 L 39.07222458300102,359.1359135913591 L 39.86467533510695,359.1359135913591 L 40.8772512961312,355.985598559856 L 40.789201212563874,352.4352435243524 L 39.60052508440497,350.28502850285025 L 37.333235432546324,351.035103510351 L 37.31122291165449,348.034803480348 L 37.9495860175176,342.4342434243424 L 38.16971122643592,337.23372337233724 L 35.61625880298346,332.68326832683266 L 39.29234979191933,329.38293829382934 L 39.86467533510695,328.03280328032804 L 40.92127633791487,329.1329132913291 L 41.53762692288615,327.982798279828 L 42.52819036301857,323.48234823482346 L 41.295489193076,322.88228822882286 L 40.41498835740274,323.032303230323 L 39.95272541867428,324.032403240324 L 39.86467533510695,325.8825882588259 L 39.00618702032552,325.8825882588259 L 36.562797201332216,320.1320132013201 L 35.46217115674064,319.78197819781974 z" /><path fill-rule="evenodd" fill="#D2EBD9" stroke="#A6A6A6" stroke-width="0.25" opacity="1" d="M 127.3644458801374,177.81778177817782 L 122.49967876304261,176.16761676167616 L 118.49339996072928,176.1176117611761 L 117.48082399970502,176.5176517651765 L 116.71038576849092,178.21782178217822 L 115.785859891034,178.8178817881788 L 114.70724636733425,179.017901790179 L 112.83618209152856,179.06790679067905 L 111.73555604693698,179.36793679367935 L 108.87392833099888,180.6180618061806 L 110.04059193826595,182.56825682568257 L 107.72927724462365,184.018401840184 L 104.86764952868553,184.76847684768475 L 103.50287323339198,185.56855685568556 L 102.4022471888004,186.7186718671867 L 99.36451930572765,191.81918191819182 L 98.24188074024424,192.76927692769277 L 96.7450293195997,193.36933693369335 L 94.74188991844302,193.56935693569355 L 93.02491328888016,194.1194119411941 L 92.4305752248007,194.66946694669466 L 92.84881312174551,197.61976197619762 L 92.36453766212522,200.5200520052005 L 92.87082564263734,202.12021202120212 L 92.47460026658437,202.87028702870285 L 92.12239993231506,203.07030703070305 L 91.06579892950715,203.47034703470345 L 89.98718540580741,203.07030703070305 L 86.92744500184281,201.02010201020101 L 76.95577303784313,202.22022202220222 L 74.22622044725601,201.27012701270127 L 74.86458355311913,200.4200420042004 L 75.17275884560476,199.4199419941994 L 74.49037069795799,198.26982698269825 L 70.46207937475282,198.36983698369835 L 69.18535316302659,198.019801980198 L 68.01868955575951,199.6199619961996 L 67.40233897078822,199.96999699969996 L 66.03756267549467,199.26992699269925 L 64.14448587879716,198.6198619861986 L 62.64763445815261,197.76977697769775 L 61.745121101587515,195.8195819581958 L 61.855183706046674,194.56945694569455 L 61.43694580910188,193.76937693769375 L 61.43694580910188,192.06920692069207 L 60.88663278680609,191.86918691869187 L 57.364629444113035,191.96919691969197 L 57.21054179787022,189.5189518951895 L 57.54072961124769,188.26882688268824 L 58.15708019621898,186.86868686868686 L 60.49040741075312,183.7183718371837 L 60.95267034948158,182.61826182618262 L 60.79858270323876,181.018101810181 L 60.11619455559198,178.86788678867885 L 60.40235732718579,176.2176217621762 L 60.93065782858975,175.56755675567555 L 62.53757185369346,174.7174717471747 L 63.594172856501366,174.36743674367435 L 65.24511192338873,173.11731173117312 L 66.03756267549467,169.66696669666965 L 69.44950341372856,165.7165716571657 L 70.08786651959169,164.4164416441644 L 69.86774131067337,163.016301630163 L 67.8646019095167,161.16611661166115 L 66.80800090670877,160.5160516051605 L 66.91806351116793,160.36603660366035 L 67.51240157524738,160.26602660266025 L 68.1507646811105,159.8159815981598 L 68.76711526608179,158.76587658765877 L 70.5941545001038,153.71537153715371 L 71.95893079539736,151.9151915191519 L 74.95263363668646,149.81498149814982 L 76.66961026624931,149.21492149214922 L 78.23249924956936,148.06480648064806 L 78.93689991810797,145.11451145114512 L 82.9431787204213,142.6142614261426 L 85.54065618565743,142.1142114211421 L 88.35825885981187,142.1142114211421 L 93.31107606047397,139.56395639563956 L 95.99660360927741,140.11401140114012 L 96.89911696584251,139.96399639963997 L 98.81420628343186,138.8138813881388 L 99.27646922216033,138.86388638863886 L 99.45256938929498,139.2139213921392 L 99.82678224445611,141.2141214121412 L 102.24815954255759,140.36403640364037 L 103.43683567071649,139.16391639163916 L 104.29532398549792,137.56375637563755 L 105.17582482117118,136.86368636863685 L 106.40852599111375,136.46364636463645 L 109.31417874883552,136.16361636163614 L 109.9305293338068,135.61356135613562 L 113.1443573840142,131.013101310131 L 121.81729061539583,119.76197619761976 L 123.27011699425672,118.4118411841184 L 124.39275555974012,117.71177117711771 L 127.10029562943541,117.06170617061706 L 127.93677142332501,116.96169616961696 L 128.39903436205347,118.86188618861885 L 129.03739746791658,120.4120412041204 L 129.65374805288786,120.9120912091209 L 131.15059947353242,121.86218621862186 L 134.7606528997928,122.66226622662265 L 135.92731650705986,123.2123212321232 L 137.0059300307596,124.11241124112411 L 137.35813036502893,125.76257625762575 L 137.07196759343512,128.56285628562856 L 137.22605523967792,129.7129712971297 L 138.37070632605318,130.21302130213022 L 140.57195841523634,130.06300630063006 L 146.00905107551873,130.76307630763077 L 144.42414957130686,134.1134113411341 L 144.8864125100353,141.76417641764175 L 144.68829982200882,143.4143414341434 L 144.20402436238854,144.51445144514452 L 142.97132319244596,145.8145814581458 L 142.66314789996034,147.1147114711471 L 142.99333571333779,149.11491149114912 L 143.89584906990288,150.36503650365034 L 144.64427478022517,152.6152615261526 L 144.64427478022517,153.16531653165316 L 144.402137050415,153.66536653665366 L 144.44616209219868,154.16541654165417 L 143.4776111729581,155.36553655365535 L 142.81723554620314,155.6155615561556 L 140.9021462286138,156.015601560156 L 140.32982068542617,156.36563656365635 L 138.48076893051234,156.36563656365635 L 137.8424058246492,156.8156815681568 L 136.87385490540862,157.9157915791579 L 136.32354188311282,159.66596659665964 L 135.57511617279056,160.7160716071607 L 135.26694088030493,161.8161816181618 L 133.2858140000401,165.06650665066505 L 132.22921299723217,168.36683668366837 L 129.52167292753688,174.76747674767475 L 128.88330982167378,175.96759675967596 L 127.3644458801374,177.81778177817782 z" /></g></g></g></svg>