<svg xmlns="http://www.w3.org/2000/svg" xmlns:xlink="http://www.w3.org/1999/xlink" width="499.09586416743696" height="500.0" viewBox="0.0 0.0 499.09586416743696 500.0" preserveAspectRatio="xMinYMin meet"><g transform="matrix(1,0,0,-1,0,500.0)"><g><g><path fill-rule="evenodd" fill="#D2EBD9" stroke="#A6A6A6" stroke-width="0.25" opacity="1" d="M 305.3773874363816,366.5866586658666 L 305.3773874363816,371.5371537153715 L 309.32063908846953,378.5378537853785 L 315.5100467449114,383.63836383638363 L 334.07826971423697,392.63926392639263 L 338.2710942556976,397.3397339733973 L 341.21605435029494,405.9405940594059 L 340.9165668830478,410.5410541054105 L 338.1712650999485,411.991199119912 L 334.4775863372332,412.2912291229123 L 331.28305335326326,413.2913291329133 L 328.7873244595367,415.8415841584158 L 322.048856446475,424.59245924592454 L 317.8560319050144,427.99279927992797 L 314.06252398655,428.99289928992897 L 312.1158554494433,431.14311431143113 L 313.51346362993013,437.89378937893787 L 312.5650866503141,442.84428442844285 L 308.17260379735535,442.34423442344234 L 299.33772351356333,437.89378937893787 L 295.74387390659706,438.49384938493847 L 288.8556621599118,441.34413441344134 L 281.41839005660665,442.24422442244224 L 278.822832007131,444.39443944394435 L 276.377017691279,447.044704470447 L 273.13257012943444,449.044904490449 L 267.99136860835773,454.4454445444544 L 265.39581055888215,455.8455845584558 L 264.9465793580113,452.04520452045205 L 263.99820237839526,449.54495449544953 L 260.95341312804885,449.84498449844983 L 257.5093072547062,452.1952195219522 L 255.51272413972495,455.6455645564556 L 257.1599052095845,462.39623962396234 L 272.78316808431276,461.74617461746175 L 278.1739424947621,465.69656965696566 L 277.974284183264,469.04690469046903 L 275.9277864904082,471.99719971997195 L 267.69188114111057,478.4978497849785 L 264.9964939358859,479.3979397939794 L 254.66417631585793,479.3979397939794 L 251.96878911063325,480.54805480548055 L 251.12024128676623,483.1483148314831 L 252.6675932008767,487.54875487548753 L 246.87750216743106,500.0 L 244.88091905244983,498.74987498749874 L 241.3369840233581,495.4995499549955 L 239.3903154862514,494.19941994199417 L 233.4504807191822,493.99939993999396 L 218.2265344674502,496.3996399639964 L 215.18174521710378,493.29932993299326 L 216.4795242418416,490.34903490349035 L 222.36944443103627,487.4987498749875 L 223.41765056640142,485.9485948594859 L 227.2111584848658,485.5485548554855 L 232.60193289531517,481.9481948194819 L 234.19919938730015,480.24802480248024 L 234.5486014324219,478.997899789979 L 234.44877227667283,477.94779477947793 L 234.04945565367657,476.9476947694769 L 233.3007369855586,476.1476147614761 L 231.10449555907923,474.49744974497446 L 228.85833955472532,473.19731973197315 L 228.15953546448188,472.59725972597255 L 227.81013341936017,471.14711471147115 L 227.51064595211298,468.2968296829683 L 228.15953546448188,463.89638963896385 L 228.90825413259986,461.84618461846185 L 230.1062040015886,460.6960696069607 L 231.40398302632642,460.34603460346034 L 233.10107867406046,459.4959495949595 L 234.69834516604547,458.1958195819582 L 236.54518454740312,455.3455345534553 L 236.79475743677577,453.69536953695365 L 236.39544081377952,452.34523452345235 L 226.2128669273752,444.4444444444444 L 224.51577127964111,443.69436943694365 L 223.16807767702878,443.59435943594355 L 221.9202132301655,444.044404440444 L 219.87371553730972,445.49454945494546 L 218.82550940194457,445.99459945994596 L 217.72738868870488,446.09460946094606 L 216.72909713121425,445.79457945794576 L 215.73080557372364,445.044504450445 L 210.58960405264693,439.0939093909391 L 210.34003116327426,437.8437843784378 L 210.43986031902332,436.7436743674367 L 211.0388352535177,435.7435743574357 L 212.53627258975365,434.043404340434 L 216.4795242418416,430.4930493049305 L 218.47610735682284,429.3429342934293 L 219.524313492188,429.042904290429 L 224.56568585751563,428.69286928692867 L 227.46073137423846,427.19271927192716 L 227.95987715298375,426.69266926692666 L 228.6586812432272,425.19251925192515 L 231.0545809812047,422.94229422942294 L 231.95304338294625,421.2921292129213 L 231.55372675995,420.2420242024202 L 230.75509351395752,419.3419341934193 L 229.7568019564669,418.5418541854185 L 227.95987715298375,416.59165916591655 L 227.26107306274034,416.2416241624162 L 226.51235439462235,415.5415541554155 L 225.81355030437894,414.49144914491444 L 225.16466079201,413.04130413041304 L 221.82038407441644,402.24022402240223 L 220.97183625054942,400.59005900590057 L 220.07337384880785,399.4399439943994 L 219.12499686919176,398.58985898589856 L 217.97696157807752,398.039803980398 L 212.58618716762817,396.58965896589655 L 209.64122707303082,395.13951395139514 L 208.4931917819166,394.1894189418942 L 207.39507106867694,392.7892789278928 L 207.59472938017507,390.7390739073907 L 208.89250840491286,386.78867886788674 L 209.54139791728176,385.5885588558856 L 210.78926236414506,381.5381538153815 L 210.63951863052145,369.4369436943694 L 214.43302654898582,366.2866286628663 L 233.150993251935,370.28702870287026 L 235.49697841203798,369.58695869586955 L 237.7930489942664,368.28682868286825 L 240.8378382446128,365.5865586558656 L 241.7862152242289,364.93649364936493 L 243.583140027712,364.0864086408641 L 245.97903976568952,363.7363736373637 L 252.61767862300215,365.0865086508651 L 254.91374920523057,365.93659365936594 L 256.66075943083916,367.18671867186714 L 257.30964894320806,367.9367936793679 L 257.8587092998279,368.88688868886885 L 259.7554632590601,373.83738373837383 L 260.3544381935545,374.8874887488749 L 261.10315686167246,375.73757375737574 L 261.9517046855395,376.38763876387634 L 268.0412831862323,378.98789878987895 L 269.3390622109701,379.7379737973797 L 273.93120337542695,383.33833383338333 L 275.0293240886666,383.73837383738373 L 276.02761564615724,383.5883588358836 L 279.17223405225275,382.6382638263826 L 284.6129230405766,382.1382138213821 L 286.060445798938,381.6381638163816 L 287.00882277855413,380.78807880788077 L 290.60267238552035,376.2876287628763 L 291.4512202093874,375.63756375637564 L 295.1448989721027,374.4874487448745 L 297.14148208708394,373.3373337333733 L 298.9384068905671,371.6371637163716 L 300.3360150710539,369.6369636963696 L 302.33259818603517,367.68676867686764 L 305.3773874363816,366.5866586658666 z M 248.9739144381614,444.044404440444 L 243.2337379825903,446.044604460446 L 241.28706944548358,448.5448544854485 L 240.28877788799295,451.74517451745174 L 240.78792366673827,454.59545954595455 L 243.2337379825903,456.3456345634563 L 249.4730602169067,454.8454845484548 L 251.2200704425153,448.8948894889489 L 248.9739144381614,444.044404440444 z M 279.571550675249,432.54325432543254 L 275.9277864904082,433.0933093309331 L 274.4303491541723,437.89378937893787 L 274.87958035504306,438.4438443844384 L 275.42864071166287,438.7438743874387 L 276.0775302240318,438.8438843884388 L 276.7264197364007,438.7438743874387 L 281.2187317451085,434.8434843484348 L 279.571550675249,432.54325432543254 z" /><path fill-rule="evenodd" fill="#D2EBD9" stroke="#A6A6A6" stroke-width="0.25" opacity="1" d="M 223.41765056640142,485.9485948594859 L 224.06654007877034,485.09850985098507 L 222.46927358678533,482.89828982898285 L 218.32636362319926,482.3482348234823 L 195.26582864516587,482.79827982798275 L 188.6271897878532,485.4485448544854 L 185.48257138175777,485.8985898589859 L 182.08838008628965,484.3484348434843 L 180.04188239343387,481.6481648164816 L 178.09521385632715,478.2978297829783 L 175.79914327409872,476.2476247624762 L 172.5546957122542,477.1477147714771 L 171.70614788838716,478.74787478747874 L 171.10717295389279,480.8980898089809 L 170.30853970790028,482.4482448244824 L 168.61144406016624,482.39823982398235 L 167.5632379248011,481.6481648164816 L 164.4186195187056,478.04780478047803 L 160.57519702236672,476.9476947694769 L 157.031261993275,477.1977197719772 L 153.58715611993236,478.44784478447843 L 145.1515924591366,483.59835983598356 L 143.20492392202988,483.79837983798376 L 141.35808454067222,483.19831983198316 L 140.0603055159344,482.048204820482 L 138.96218480269474,480.74807480748075 L 137.4647474664588,479.74797479747974 L 133.77106870374348,479.14791479147914 L 130.87602318702068,480.24802480248024 L 123.2390927722174,485.5485548554855 L 118.94643907500773,487.34873487348733 L 117.2992580051482,487.2987298729873 L 115.40250404591602,485.998599859986 L 115.00318742291977,484.39843984398436 L 114.9033582671707,482.6482648264826 L 114.10472502117821,480.5980598059806 L 111.60899612745165,478.0978097809781 L 108.51429229923072,476.4476447644764 L 105.17001558163713,475.8475847584758 L 98.53137672432449,477.6977697769777 L 95.38675831822903,477.3977397739774 L 89.04760692816357,474.49744974497446 L 85.35392816544827,473.59735973597355 L 83.50708878409061,457.6957695769577 L 83.60691793983968,456.49564956495647 L 84.05614914071046,455.59555955595556 L 85.45375732119733,454.29542954295425 L 86.55187803443701,453.69536953695365 L 90.19564221927779,452.24522452245225 L 90.99427546527029,451.5951595159516 L 91.99256702276091,450.34503450345034 L 94.88761253948371,445.6445644564456 L 96.18539156422153,443.99439943994395 L 97.43325601108481,442.84428442844285 L 100.72761815080386,440.5940594059406 L 101.02710561805105,439.94399439943993 L 101.17684935167465,439.043904390439 L 101.02710561805105,437.49374937493747 L 100.57787441718027,436.59365936593656 L 98.53137672432449,434.9434943494349 L 98.13206010132824,434.39343934393435 L 97.98231636770466,433.59335933593354 L 98.2318892570773,432.7932793279328 L 99.08043708094434,431.74317431743174 L 100.02881406056042,431.14311431143113 L 101.12693477380012,430.7930793079308 L 104.67086980289183,430.34303430343033 L 108.21480483198353,430.4930493049305 L 108.71395061072884,430.1430143014301 L 108.9635235001015,429.3929392939294 L 107.81548820898729,422.74227422742274 L 107.16659869661838,421.64216421642163 L 105.36967389313526,419.9419941994199 L 104.82061353651541,418.7418741874187 L 104.37138233564464,415.1415141514151 L 103.72249282327573,414.14141414141415 L 102.82403042153418,413.44134413441344 L 101.52625139679635,413.04130413041304 L 100.32830152780761,412.991299129913 L 99.23018081456793,413.1913191319132 L 96.68453734296683,414.59145914591454 L 96.08556240847247,414.7414741474147 L 95.1871000067309,414.59145914591454 L 94.78778338373465,414.14141414141415 L 93.93923555986763,412.04120412041203 L 92.64145653512982,406.39063906390635 L 91.24384835464295,403.6903690369037 L 91.24384835464295,402.3902390239024 L 91.74299413338825,400.9400940094009 L 93.7395772483695,397.2397239723972 L 94.68795422798559,394.2894289428943 L 95.53650205185262,393.13931393139313 L 96.73445192084137,392.3392339233923 L 102.27497006491433,391.4891489148915 L 103.42300535602854,390.8390839083908 L 104.52112606926823,389.28892889288926 L 105.56933220463338,386.6386638663866 L 106.0684779833787,385.7885788578858 L 107.31634243024197,385.1885188518852 L 108.41446314348165,384.83848384838484 L 115.00318742291977,385.13851385138514 L 117.04968511577555,385.5885588558856 L 118.8965244971332,385.43854385438544 L 119.84490147674929,384.8884888488849 L 121.04285134573804,383.73837383738373 L 122.59020325984851,381.68816881688167 L 123.388836505841,380.88808880888087 L 124.63670095270429,380.28802880288026 L 126.33379660043835,380.08800880088006 L 129.02918380566302,380.6380638063806 L 130.72627945339707,381.58815881588157 L 131.92422932238583,382.6882688268827 L 133.12217919137458,384.4884488448845 L 134.17038532673973,385.23852385238524 L 134.9191039948577,385.3885388538854 L 137.06543084346254,385.23852385238524 L 139.5611597371891,384.63846384638464 L 147.84697966436127,381.18811881188117 L 151.84014589432377,378.7378737873787 L 154.03638732080313,376.0876087608761 L 154.7851059889211,372.8872887288729 L 167.9625545477973,376.2876287628763 L 171.85589162201074,376.6376637663766 L 174.45144967148636,374.8874887488749 L 175.9488870077223,374.1874187418742 L 177.24666603246013,374.3874387438744 L 180.34136986068106,375.7875787578758 L 181.48940515179527,375.8875887588759 L 182.4876967092859,375.5875587558756 L 190.3742000134618,371.4371437143714 L 196.81318055927633,369.38693869386935 L 204.35028181833053,368.68686868686865 L 205.99746288819006,368.7368736873687 L 210.63951863052145,369.4369436943694 L 210.78926236414506,381.5381538153815 L 209.54139791728176,385.5885588558856 L 208.89250840491286,386.78867886788674 L 207.59472938017507,390.7390739073907 L 207.39507106867694,392.7892789278928 L 208.4931917819166,394.1894189418942 L 209.64122707303082,395.13951395139514 L 212.58618716762817,396.58965896589655 L 217.97696157807752,398.039803980398 L 219.12499686919176,398.58985898589856 L 220.07337384880785,399.4399439943994 L 220.97183625054942,400.59005900590057 L 221.82038407441644,402.24022402240223 L 225.16466079201,413.04130413041304 L 225.81355030437894,414.49144914491444 L 226.51235439462235,415.5415541554155 L 227.26107306274034,416.2416241624162 L 227.95987715298375,416.59165916591655 L 229.7568019564669,418.5418541854185 L 230.75509351395752,419.3419341934193 L 231.55372675995,420.2420242024202 L 231.95304338294625,421.2921292129213 L 231.0545809812047,422.94229422942294 L 228.6586812432272,425.19251925192515 L 227.95987715298375,426.69266926692666 L 227.46073137423846,427.19271927192716 L 224.56568585751563,428.69286928692867 L 219.524313492188,429.042904290429 L 218.47610735682284,429.3429342934293 L 216.4795242418416,430.4930493049305 L 212.53627258975365,434.043404340434 L 211.0388352535177,435.7435743574357 L 210.43986031902332,436.7436743674367 L 210.34003116327426,437.8437843784378 L 210.58960405264693,439.0939093909391 L 215.73080557372364,445.044504450445 L 216.72909713121425,445.79457945794576 L 217.72738868870488,446.09460946094606 L 218.82550940194457,445.99459945994596 L 219.87371553730972,445.49454945494546 L 221.9202132301655,444.044404440444 L 223.16807767702878,443.59435943594355 L 224.51577127964111,443.69436943694365 L 226.2128669273752,444.4444444444444 L 236.39544081377952,452.34523452345235 L 236.79475743677577,453.69536953695365 L 236.54518454740312,455.3455345534553 L 234.69834516604547,458.1958195819582 L 233.10107867406046,459.4959495949595 L 231.40398302632642,460.34603460346034 L 230.1062040015886,460.6960696069607 L 228.90825413259986,461.84618461846185 L 228.15953546448188,463.89638963896385 L 227.51064595211298,468.2968296829683 L 227.81013341936017,471.14711471147115 L 228.15953546448188,472.59725972597255 L 228.85833955472532,473.19731973197315 L 231.10449555907923,474.49744974497446 L 233.3007369855586,476.1476147614761 L 234.04945565367657,476.9476947694769 L 234.44877227667283,477.94779477947793 L 234.5486014324219,478.997899789979 L 234.19919938730015,480.24802480248024 L 232.60193289531517,481.9481948194819 L 227.2111584848658,485.5485548554855 L 223.41765056640142,485.9485948594859 z" /><path fill-rule="evenodd" fill="#D2EBD9" stroke="#A6A6A6" stroke-width="0.25" opacity="1" d="M 85.35392816544827,473.59735973597355 L 81.90982229210562,472.7472747274727 L 67.284850974868,472.4472447244724 L 60.54638296180629,469.64696469646964 L 53.2089400142502,463.1463146314631 L 50.114236186029274,461.84618461846185 L 46.27081368969038,461.4961496149615 L 20.564806084306834,465.1465146514651 L 13.826338071245129,464.89648964896486 L 5.340859832574833,461.3961396139614 L 3.7935079184643676,461.04610461046104 L 2.2461560043539017,461.0961096109611 L 0.6488895123689049,461.4961496149615 L 0.0,456.59565956595657 L 1.2977790247378098,449.94499449944993 L 3.7935079184643676,443.99439943994395 L 6.838297168810768,441.0941094109411 L 13.576765181872473,440.14401440144013 L 20.365147772808708,436.7436743674367 L 26.554555429250573,431.54315431543154 L 31.496098638829157,425.3425342534253 L 33.293023442312276,421.24212421242123 L 33.99182753255571,417.2417241724172 L 34.34122957767743,413.04130413041304 L 35.18977740154446,408.3408340834083 L 36.78704389352946,404.1904190419042 L 43.32585359509304,393.6893689368937 L 44.82329093132898,389.78897889788976 L 45.37235128794882,386.3386338633863 L 46.170984533941315,371.9371937193719 L 45.72175333307053,370.2370237023702 L 42.47730577122601,364.3864386438644 L 41.47901421373538,363.0863086308631 L 42.67696408272413,358.38583858385834 L 36.03832522541149,350.5350535053505 L 33.94191295468118,346.23462346234624 L 34.091656688304774,341.28412841284126 L 33.14327970868868,342.034203420342 L 30.74737997071119,342.78427842784276 L 31.546013216703688,341.3341334133413 L 31.945329839699937,339.8339833983398 L 28.2017364991101,339.38393839383934 L 24.807545203641983,337.03370337033704 L 19.41677079319262,330.58305830583055 L 20.065660305561522,327.83278327832784 L 23.40993702315511,324.08240824082407 L 29.799002991095097,318.63186318631864 L 29.799002991095097,317.23172317231723 L 29.649259257471503,316.7816781678168 L 32.394561040570714,316.3816381638164 L 33.043450552939625,316.6316631663166 L 33.74225464318306,317.2817281728173 L 34.89028993429727,318.93189318931894 L 35.98841064753696,319.9319931993199 L 39.23285820938148,321.8321832183218 L 40.3808935004957,322.88228822882286 L 41.1795267464882,324.4324432443244 L 41.878330836731635,326.73267326732673 L 42.47730577122601,327.93279327932794 L 43.52551190659116,328.9328932893289 L 45.671838755196,329.9329932993299 L 50.06432160815474,331.1331133113311 L 51.46192978864162,331.7331733173317 L 56.25372926459661,334.7334733473347 L 57.45167913358535,335.0835083508351 L 58.49988526895051,334.983498349835 L 60.995614162677064,333.5333533353335 L 61.79424740866956,333.28332833283326 L 63.74091594577628,333.1333133313331 L 65.63766990500847,332.48324832483246 L 68.88211746685299,330.03300330033 L 69.78057986859454,329.5329532953295 L 70.57921311458705,329.28292829282924 L 73.17477116406266,329.032903290329 L 79.71358086562624,329.2329232923292 L 80.61204326736781,329.58295829582954 L 81.16110362398766,330.18301830183015 L 81.61033482485843,332.033203320332 L 82.10948060360374,332.58325832583256 L 83.05785758321983,332.78327832783276 L 89.59666728478342,332.4332433243324 L 90.24555679715232,331.8331833183318 L 91.19393377676842,330.48304830483045 L 93.68966267049497,326.1326132613261 L 94.98744169523277,324.8324832483248 L 95.68624578547622,324.4324432443244 L 96.43496445359418,324.3324332433243 L 97.33342685533574,324.48244824482447 L 98.3816329907009,324.9324932493249 L 102.62437211003605,327.6827682768277 L 106.91702580724572,329.3329332933293 L 109.31292554522322,331.38313831383135 L 109.91190047971759,331.68316831683165 L 110.66061914783556,331.9331933193319 L 113.3060917751857,332.28322832283226 L 114.20455417692727,332.58325832583256 L 115.60216235741414,333.78337833783377 L 117.04968511577555,334.5834583458346 L 117.5987454723954,335.033503350335 L 118.39737871838788,336.0836083608361 L 118.99635365288226,336.63366336633663 L 120.194303521871,337.33373337333734 L 120.29413267762007,337.5837583758376 L 118.14780582901523,338.88388838883884 L 117.24934342727367,339.88398839883985 L 116.94985596002648,340.9340934093409 L 116.94985596002648,342.38423842384236 L 117.49891631664633,345.1845184518452 L 119.09618280863133,350.48504850485045 L 119.24592654225492,351.6351635163516 L 119.09618280863133,352.4352435243524 L 118.24763498476429,353.035303530353 L 117.34917258302274,353.08530853085307 L 112.30780021769509,352.2352235223522 L 110.01172963546665,352.1352135213521 L 109.36284012309775,352.28522852285226 L 108.86369434435244,352.68526852685267 L 108.164890254109,355.7855785578558 L 107.3662570081165,357.8357835783578 L 106.36796545062589,359.58595859585955 L 105.2698447373862,361.036103610361 L 103.87223655689932,362.38623862386237 L 101.47633681892182,364.33643364336433 L 101.37650766317277,365.0865086508651 L 101.82573886404354,366.03660366036604 L 107.11668411874385,371.2371237123712 L 109.762156746094,374.83748374837484 L 115.00318742291977,385.13851385138514 L 108.41446314348165,384.83848384838484 L 107.31634243024197,385.1885188518852 L 106.0684779833787,385.7885788578858 L 105.56933220463338,386.6386638663866 L 104.52112606926823,389.28892889288926 L 103.42300535602854,390.8390839083908 L 102.27497006491433,391.4891489148915 L 96.73445192084137,392.3392339233923 L 95.53650205185262,393.13931393139313 L 94.68795422798559,394.2894289428943 L 93.7395772483695,397.2397239723972 L 91.74299413338825,400.9400940094009 L 91.24384835464295,402.3902390239024 L 91.24384835464295,403.6903690369037 L 92.64145653512982,406.39063906390635 L 93.93923555986763,412.04120412041203 L 94.78778338373465,414.14141414141415 L 95.1871000067309,414.59145914591454 L 96.08556240847247,414.7414741474147 L 96.68453734296683,414.59145914591454 L 99.23018081456793,413.1913191319132 L 100.32830152780761,412.991299129913 L 101.52625139679635,413.04130413041304 L 102.82403042153418,413.44134413441344 L 103.72249282327573,414.14141414141415 L 104.37138233564464,415.1415141514151 L 104.82061353651541,418.7418741874187 L 105.36967389313526,419.9419941994199 L 107.16659869661838,421.64216421642163 L 107.81548820898729,422.74227422742274 L 108.9635235001015,429.3929392939294 L 108.71395061072884,430.1430143014301 L 108.21480483198353,430.4930493049305 L 104.67086980289183,430.34303430343033 L 101.12693477380012,430.7930793079308 L 100.02881406056042,431.14311431143113 L 99.08043708094434,431.74317431743174 L 98.2318892570773,432.7932793279328 L 97.98231636770466,433.59335933593354 L 98.13206010132824,434.39343934393435 L 98.53137672432449,434.9434943494349 L 100.57787441718027,436.59365936593656 L 101.02710561805105,437.49374937493747 L 101.17684935167465,439.043904390439 L 101.02710561805105,439.94399439943993 L 100.72761815080386,440.5940594059406 L 97.43325601108481,442.84428442844285 L 96.18539156422153,443.99439943994395 L 94.88761253948371,445.6445644564456 L 91.99256702276091,450.34503450345034 L 90.99427546527029,451.5951595159516 L 90.19564221927779,452.24522452245225 L 86.55187803443701,453.69536953695365 L 85.45375732119733,454.29542954295425 L 84.05614914071046,455.59555955595556 L 83.60691793983968,456.49564956495647 L 83.50708878409061,457.6957695769577 L 85.35392816544827,473.59735973597355 z" /><g><path fill-rule="evenodd" fill="#D2EBD9" stroke="#A6A6A6" stroke-width="0.25" opacity="1" d="M 305.3773874363816,366.5866586658666 L 302.33259818603517,367.68676867686764 L 300.3360150710539,369.6369636963696 L 298.9384068905671,371.6371637163716 L 297.14148208708394,373.3373337333733 L 295.1448989721027,374.4874487448745 L 291.4512202093874,375.63756375637564 L 290.60267238552035,376.2876287628763 L 287.00882277855413,380.78807880788077 L 286.060445798938,381.6381638163816 L 284.6129230405766,382.1382138213821 L 279.17223405225275,382.6382638263826 L 276.02761564615724,383.5883588358836 L 275.0293240886666,383.73837383738373 L 273.93120337542695,383.33833383338333 L 269.3390622109701,379.7379737973797 L 268.0412831862323,378.98789878987895 L 261.9517046855395,376.38763876387634 L 261.10315686167246,375.73757375737574 L 260.3544381935545,374.8874887488749 L 259.7554632590601,373.83738373837383 L 257.8587092998279,368.88688868886885 L 257.30964894320806,367.9367936793679 L 256.66075943083916,367.18671867186714 L 254.91374920523057,365.93659365936594 L 252.61767862300215,365.0865086508651 L 245.97903976568952,363.7363736373637 L 243.583140027712,364.0864086408641 L 241.7862152242289,364.93649364936493 L 240.8378382446128,365.5865586558656 L 237.7930489942664,368.28682868286825 L 235.49697841203798,369.58695869586955 L 233.150993251935,370.28702870287026 L 214.43302654898582,366.2866286628663 L 214.8822577498566,362.28622862286227 L 213.38482041362067,359.035903590359 L 213.08533294637348,357.28572857285724 L 213.08533294637348,355.3855385538554 L 214.78242859410753,344.2844284428443 L 215.48123268435097,342.7342734273427 L 216.27986593034348,341.7341734173417 L 217.2781574878341,341.5341534153415 L 220.87200709480035,341.7341734173417 L 221.72055491866737,341.5341534153415 L 222.61901732040894,340.7340734073407 L 223.76705261152316,339.3339333933393 L 225.4641482592572,336.53365336533653 L 226.11303777162613,334.6834683468347 L 226.31269608312422,332.88328832883286 L 225.1147462141355,327.3827382738274 L 225.41423368138268,326.43264326432643 L 225.913379460128,325.6325632563256 L 230.6053497803339,322.4322432243224 L 231.90312880507173,321.08210821082105 L 239.78963210924763,292.2292229222922 L 240.08911957649482,289.82898289828984 L 238.64159681813342,288.0788078807881 L 237.7930489942664,286.77867786778677 L 237.39373237127015,284.4284428442844 L 237.4935615270192,283.1283128312831 L 238.0925364615136,281.77817781778174 L 248.82417070453778,269.1269126912691 L 251.17015586464075,265.57655765576555 L 250.37152261864824,259.6259625962596 L 248.62451239303965,252.8252825282528 L 248.5246832372906,250.2250225022502 L 248.82417070453778,248.22482248224821 L 256.46110111934104,229.32293229322931 L 257.209819787459,228.5228522852285 L 258.9568300130676,227.7227722772277 L 259.60571952543654,227.022702270227 L 259.7554632590601,225.72257225722572 L 259.65563410331106,221.07210721072107 L 259.9551215705582,219.2219221922192 L 261.45255890679414,215.07150715071506 L 261.8518755297904,213.2213221322132 L 262.40093588641025,207.4207420742074 L 263.7486294890226,204.3204320432043 L 271.18590159232775,209.1209120912091 L 277.47513840451865,214.97149714971496 L 279.4717215194999,216.32163216321632 L 281.41839005660665,217.4217421742174 L 286.35993326618524,219.37193719371936 L 287.80745602454664,219.6219621962196 L 299.38763809143785,219.021902190219 L 304.2792667231419,219.92199219921991 L 308.22251837522987,219.87198719871986 L 318.95415261825406,221.77217721772175 L 321.5996252456042,222.57225722572255 L 327.1900579675517,225.52255225522552 L 329.3862993940311,227.5227522752275 L 331.0334804638906,230.12301230123012 L 332.53091780012653,231.6231623162316 L 333.2796364682445,231.7231723172317 L 333.8286968248643,231.5231523152315 L 334.7271592266059,230.72307230723072 L 335.52579247259837,229.62296229622962 L 336.92340065308525,228.67286728672866 L 337.52237558757963,228.6228622862286 L 337.3227172760815,230.62306230623062 L 347.30563285098776,237.1237123712371 L 373.21129876786944,232.8232823282328 L 384.19250590026627,233.9233923392339 L 386.3388327488711,235.67356735673567 L 387.38703888423623,237.87378737873786 L 389.28379284346846,247.37473747374736 L 389.83285320008827,248.92489248924892 L 393.32687365130545,251.97519751975196 L 396.37166290165186,256.025602560256 L 398.26841686088403,261.0761076107611 L 401.1135477997323,274.3274327432743 L 401.1135477997323,276.77767776777677 L 400.81406033248516,277.977797779778 L 396.7709795246481,283.37833783378335 L 394.5248235202942,285.57855785578556 L 392.2287529380658,286.77867786778677 L 388.7846470647231,286.57865786578657 L 385.44037034712954,285.57855785578556 L 382.2957519410341,285.77857785778576 L 375.4574547722233,293.3293329332933 L 338.7702400344429,314.18141814181416 L 329.4362139719056,322.9322932293229 L 324.3449270287034,333.8333833383338 L 322.9972334260911,336.2836283628363 L 319.75278586424656,338.4338433843384 L 318.25534852801064,340.08400840084005 L 317.5565444377672,342.28422842284226 L 317.20714239264544,346.8846884688469 L 316.55825288027654,348.9348934893489 L 313.81295109717735,352.38523852385237 L 310.6184181132073,354.8854885488549 L 307.6235434407355,357.88578857885784 L 305.3773874363816,362.68626862686267 L 305.3773874363816,366.5866586658666 z" /><path fill-rule="evenodd" fill="#D2EBD9" stroke="#A6A6A6" stroke-width="0.25" opacity="1" d="M 328.4878369922895,368.4368436843684 L 326.19176641006106,368.4368436843684 L 323.9955249835817,367.78677867786774 L 322.048856446475,366.33663366336634 L 321.10047946685887,364.2864286428643 L 320.7510774217372,362.1362136213621 L 321.10047946685887,359.9359935993599 L 322.048856446475,357.9357935793579 L 327.43963085692434,356.33563356335634 L 332.73057611162466,360.38603860386036 L 334.8769029602295,365.7865786578658 L 330.7839075745179,368.1368136813681 L 328.4878369922895,368.4368436843684 z" /></g><path fill-rule="evenodd" fill="#D2EBD9" stroke="#A6A6A6" stroke-width="0.25" opacity="1" d="M 337.52237558757963,228.6228622862286 L 336.92340065308525,228.67286728672866 L 335.52579247259837,229.62296229622962 L 334.7271592266059,230.72307230723072 L 333.8286968248643,231.5231523152315 L 333.2796364682445,231.7231723172317 L 332.53091780012653,231.6231623162316 L 331.0334804638906,230.12301230123012 L 329.3862993940311,227.5227522752275 L 327.1900579675517,225.52255225522552 L 321.5996252456042,222.57225722572255 L 318.95415261825406,221.77217721772175 L 308.22251837522987,219.87198719871986 L 304.2792667231419,219.92199219921991 L 299.38763809143785,219.021902190219 L 287.80745602454664,219.6219621962196 L 286.35993326618524,219.37193719371936 L 281.41839005660665,217.4217421742174 L 279.4717215194999,216.32163216321632 L 277.47513840451865,214.97149714971496 L 271.18590159232775,209.1209120912091 L 263.7486294890226,204.3204320432043 L 260.00503614843274,195.9195919591959 L 258.90691543519307,192.56925692569257 L 258.75717170156946,191.81918191819182 L 258.75717170156946,185.018501850185 L 258.3079405006987,180.5180518051805 L 268.7400872764757,167.1167116711671 L 270.38726834633525,163.71637163716372 L 271.03615785870414,159.9159915991599 L 270.7865849693315,155.1155115511551 L 269.239233055221,147.76477647764776 L 269.8382079897154,144.76447644764477 L 272.9329118179363,142.8142814281428 L 278.7729174292565,144.16441644164416 L 283.21531486008973,148.36483648364836 L 287.4580539794249,149.76497649764977 L 292.34968261112897,142.86428642864286 L 294.24643657036114,138.6138613861386 L 295.7937884844716,136.3136313631363 L 298.08985906670006,135.36353635363537 L 305.5770457478797,134.66346634663466 L 308.3223475309789,133.2133213321332 L 313.31380531843206,128.1128112811281 L 315.0109009661661,127.11271127112711 L 316.8078257696492,126.86268626862686 L 318.6047505731323,127.21272127212721 L 322.048856446475,128.8128812881288 L 334.67724464873135,136.9136913691369 L 338.9199837680665,138.66386638663866 L 358.2369254055101,143.36433643364336 L 357.3384630037685,145.76457645764575 L 356.9890609586468,147.7147714771477 L 361.2318000779819,164.21642164216422 L 361.88068959035087,168.56685668566857 L 361.7808604346018,171.76717671767176 L 358.7859857621299,177.31773177317731 L 359.18530238512614,179.56795679567955 L 360.5329959877385,182.61826182618262 L 368.8687304927852,196.81968196819682 L 371.2646302307627,199.7199719971997 L 374.0099320138619,201.32013201320132 L 366.971976533553,215.87158715871587 L 363.5777852380849,219.67196719671966 L 359.2352169630007,221.8221822182218 L 342.81332084227995,223.5223522352235 L 337.82186305482685,225.77257725772577 L 337.52237558757963,228.6228622862286 z" /><path fill-rule="evenodd" fill="#D2EBD9" stroke="#A6A6A6" stroke-width="0.25" opacity="1" d="M 374.0099320138619,201.32013201320132 L 371.2646302307627,199.7199719971997 L 368.8687304927852,196.81968196819682 L 360.5329959877385,182.61826182618262 L 359.18530238512614,179.56795679567955 L 358.7859857621299,177.31773177317731 L 361.7808604346018,171.76717671767176 L 361.88068959035087,168.56685668566857 L 361.2318000779819,164.21642164216422 L 356.9890609586468,147.7147714771477 L 357.3384630037685,145.76457645764575 L 358.2369254055101,143.36433643364336 L 359.1353878072516,143.6143614361436 L 362.7791519920924,143.66436643664366 L 367.1217202671766,141.96419641964195 L 370.71556987414283,139.4139413941394 L 372.1131780546297,136.8136813681368 L 372.16309263250423,133.36333633363336 L 371.66394685375894,128.16281628162815 L 373.0615550342458,118.8118811881188 L 372.36275094400236,115.6115611561156 L 367.0718056893021,106.8106810681068 L 366.07351413181146,102.76027602760276 L 367.37129315654926,99.65996599659965 L 376.30600259609037,97.35973597359735 L 379.55045015793485,94.7094709470947 L 382.54532483040674,91.45914591459146 L 386.3388327488711,88.5088508850885 L 397.61952734851513,82.95829582958295 L 400.81406033248516,79.9079907990799 L 401.8622664678503,78.3078307830783 L 402.211668512972,76.75767576757676 L 401.9121810457248,75.3075307530753 L 397.02055241402076,68.9068906890689 L 396.0721754344047,63.706370637063706 L 397.5196981927661,58.4058405840584 L 400.81406033248516,52.855285528552855 L 404.95697029607123,47.004700470047005 L 408.1015887021667,40.55405540554055 L 416.3374940514643,17.6017601760176 L 425.52177638037807,0.0 L 436.0038377340296,1.4001400140014 L 438.7990540950033,2.75027502750275 L 446.98504486642645,8.7008700870087 L 450.02983411677286,10.15101510151015 L 452.12624638750316,10.65106510651065 L 458.215824888196,10.9010901090109 L 462.05924738453484,12.15121512151215 L 463.70642845439437,12.351235123512351 L 465.90266988087376,11.9011901190119 L 482.3245660015945,4.55045504550455 L 485.11978236256823,3.7503750375037503 L 479.67909337424436,15.35153515351535 L 478.98028928400095,17.7017701770177 L 478.83054555037734,20.15201520152015 L 479.1300330176245,22.65226522652265 L 479.9785808414915,26.352635263526352 L 482.0749931122219,32.8032803280328 L 482.52422431309265,38.503850385038504 L 481.62576191135105,44.25442544254425 L 479.67909337424436,50.9050905090509 L 475.83567087790544,54.005400540054005 L 470.5946402010797,57.005700570057 L 466.55155939324266,61.006100610061004 L 466.40181565961905,67.25672567256726 L 470.04557984445984,70.65706570657065 L 475.5860979885328,69.95699569956996 L 485.1696969404428,65.05650565056506 L 487.066450899675,65.35653565356536 L 494.403893847231,70.6070607060706 L 497.69825598695013,70.7070707070707 L 499.09586416743696,71.4071407140714 L 498.347145499319,73.35733573357335 L 497.2989393639539,74.55745574557456 L 496.2507332285887,75.5075507550755 L 489.512265215527,80.25802580258025 L 485.7187572970626,84.30843084308431 L 484.1714053829522,87.3087308730873 L 483.32285755908515,90.5090509050905 L 482.1748222679709,93.50935093509351 L 479.67909337424436,95.55955595559556 L 468.2985696188513,100.66006600660066 L 463.15736809777457,104.66046604660465 L 461.0110412491697,111.06110611061105 L 463.0575389420255,116.3116311631163 L 468.0489967294786,119.41194119411941 L 479.67909337424436,121.6121612161216 L 481.57584733347653,122.56225622562256 L 482.6240534688417,124.012401240124 L 482.6739680467162,125.96259625962595 L 481.62576191135105,128.1128112811281 L 481.6756764892256,131.46314631463144 L 483.5225158705833,133.16331633163315 L 485.8185864528117,134.6134613461346 L 487.2161946332986,137.2137213721372 L 486.76696343242776,140.56405640564054 L 484.82029489532107,143.2143214321432 L 482.2247368458454,144.91449144914492 L 479.67909337424436,145.46454645464544 L 469.6961777993381,144.51445144514452 L 466.6014739711172,145.06450645064507 L 464.25548881101423,146.76467646764675 L 460.5118954704244,151.8151815181518 L 458.2657394660705,153.66536653665366 L 452.87496505562115,154.01540154015402 L 442.14333081259696,148.5148514851485 L 436.6527272463985,147.36473647364735 L 433.15870679518133,148.46484648464846 L 430.81272163507833,150.66506650665065 L 427.1190428723631,157.7157715771577 L 424.8728868680092,160.5160516051605 L 422.1774996627845,162.06620662066206 L 416.1877503178407,163.76637663766377 L 411.2462071082621,167.76677667766776 L 405.15662860756936,180.1180118011801 L 400.81406033248516,184.36843684368435 L 390.8810593354534,187.36873687368737 L 382.3456665189086,191.71917191719172 L 375.2577964607252,198.86988698869885 L 374.0099320138619,201.32013201320132 z" /><path fill-rule="evenodd" fill="#D2EBD9" stroke="#A6A6A6" stroke-width="0.25" opacity="1" d="M 258.3079405006987,180.5180518051805 L 258.75717170156946,185.018501850185 L 258.75717170156946,191.81918191819182 L 258.90691543519307,192.56925692569257 L 260.00503614843274,195.9195919591959 L 263.7486294890226,204.3204320432043 L 262.40093588641025,207.4207420742074 L 261.8518755297904,213.2213221322132 L 261.45255890679414,215.07150715071506 L 259.9551215705582,219.2219221922192 L 259.65563410331106,221.07210721072107 L 259.7554632590601,225.72257225722572 L 259.60571952543654,227.022702270227 L 258.9568300130676,227.7227722772277 L 257.209819787459,228.5228522852285 L 256.46110111934104,229.32293229322931 L 248.82417070453778,248.22482248224821 L 248.5246832372906,250.2250225022502 L 248.62451239303965,252.8252825282528 L 250.37152261864824,259.6259625962596 L 251.17015586464075,265.57655765576555 L 245.28023567544608,265.87658765876586 L 240.48843619949108,265.3265326532653 L 234.34894312092376,262.77627762776274 L 228.6586812432272,261.12611261126114 L 224.1663692345194,259.2759275927593 L 212.33661427825552,252.57525752575256 L 205.897633732441,250.4250425042504 L 198.01113042826506,249.07490749074907 L 196.9629242928999,249.22492249224922 L 195.06617033366774,250.2250225022502 L 193.96804962042805,251.3251325132513 L 192.42069770631758,254.97549754975495 L 190.92326037008166,255.7255725572557 L 184.03504862339636,246.4246424642464 L 179.74239492618668,243.57435743574356 L 177.84564096695448,243.07430743074306 L 176.94717856521294,243.024302430243 L 176.39811820859308,243.17431743174316 L 174.30170593786278,244.97449744974497 L 173.95230389274107,245.47454745474545 L 172.5546957122542,248.82488248824882 L 171.50648957688904,249.77497749774977 L 169.90922308490403,250.5250525052505 L 164.4186195187056,251.77517751775176 L 163.02101133821873,253.07530753075307 L 162.1724635143517,254.77547754775478 L 161.97280520285358,255.67556755675565 L 161.97280520285358,257.57575757575756 L 162.42203640372438,260.0760076007601 L 162.3222072479753,261.92619261926194 L 161.97280520285358,262.67626762676264 L 160.8746844896139,263.67636763676364 L 160.17588039937047,263.97639763976395 L 158.27912644013827,263.47634763476344 L 157.92972439501656,261.72617261726174 L 156.53211621452968,260.92609260926093 L 152.18954793944548,259.1759175917592 L 150.69211060320956,258.2258225822582 L 149.64390446784438,257.025702570257 L 147.2480047298669,253.12531253125312 L 145.1515924591366,251.2251225122512 L 144.4028737910186,249.92499249924992 L 144.20321547952048,248.97489748974897 L 147.04834641836877,243.52435243524351 L 148.3960400209811,239.62396239623962 L 148.79535664397736,237.5237523752375 L 148.89518579972642,233.9233923392339 L 162.07263435860264,226.22262226222622 L 171.1570875317673,218.2218221822182 L 175.20016833960435,213.7213721372137 L 176.99709314308745,210.72107210721072 L 177.6958972333309,207.57075707570755 L 178.29487216782528,205.82058205820582 L 179.6425657704376,204.4204420442044 L 182.0384655084151,202.67026702670265 L 182.4876967092859,200.67006700670066 L 182.53761128716042,198.36983698369835 L 183.1365862216548,197.16971697169717 L 185.2329984923851,198.46984698469845 L 190.97317494795618,191.86918691869187 L 193.86822046467898,190.06900690069006 L 194.6668537106715,189.96899689968996 L 196.41386393628008,190.2190219021902 L 197.16258260439804,190.06900690069006 L 197.96121585039054,189.36893689368935 L 198.8596782521321,187.76877687768777 L 208.4931917819166,175.06750675067505 L 210.93900609776864,170.86708670867085 L 215.43131810647645,172.86728672867287 L 222.718846476158,174.16741674167415 L 229.60705822284328,174.06740674067404 L 234.99783263329266,175.36753675367535 L 240.0392049986203,178.21782178217822 L 245.8292960320659,182.71827182718272 L 251.76913079913513,184.7184718471847 L 257.10999063170993,182.01820182018201 L 258.3079405006987,180.5180518051805 z" /><path fill-rule="evenodd" fill="#D2EBD9" stroke="#A6A6A6" stroke-width="0.25" opacity="1" d="M 40.03149145537398,281.47814781478144 L 40.23114976687211,281.47814781478144 L 44.174401418960066,283.87838783878385 L 47.81816560380084,287.2287228722872 L 49.11594462853865,287.7787778777878 L 50.41372365327646,287.5287528752875 L 51.561758944390675,286.6286628662866 L 53.258854592124734,285.67856785678566 L 54.30706072748989,285.8285828582858 L 55.355266862855046,286.87868786878687 L 57.850995756581604,290.1790179017902 L 58.94911646982129,290.67906790679064 L 59.79766429368832,290.57905790579053 L 60.496468383931756,289.82898289828984 L 62.443136921038466,286.77867786778677 L 63.291684744905496,286.17861786178617 L 64.7392075032669,285.57855785578556 L 68.83220288897846,284.77847784778476 L 69.98023818009267,284.37843784378435 L 74.62229392242406,280.62806280628064 L 76.86844992677797,279.32793279327933 L 82.85819927172172,277.17771777177717 L 84.35563660795765,276.27762776277626 L 86.80145092380967,273.4273427342734 L 89.2472652396617,271.3771377137714 L 90.44521510865044,270.5770577057706 L 91.64316497763919,270.1770177017702 L 110.36113168058837,270.0770077007701 L 113.75532297605649,271.42714271427144 L 115.55224777953961,273.27732773277324 L 115.45241862379055,275.27752775277526 L 114.35429791055087,279.7779777977798 L 114.45412706629993,280.978097809781 L 115.45241862379055,281.8281828182818 L 116.40079560340665,281.9281928192819 L 118.24763498476429,281.6281628162816 L 119.0462682307568,281.27812781278124 L 120.99293676786351,278.977897789779 L 122.14097205897772,278.2278227822782 L 123.13926361646836,278.2278227822782 L 124.08764059608444,278.6778677867787 L 125.38541962082225,279.62796279627963 L 127.2322590021799,280.6780678067807 L 130.4267919861499,281.47814781478144 L 132.12388763388395,281.5281528152815 L 133.3218375028727,281.02810281028104 L 135.0688477284813,278.977897789779 L 137.66440577795692,277.47774777477747 L 139.2616722699419,276.77767776777677 L 142.10680320879018,274.57745774577455 L 145.55090908213285,272.9272927292729 L 154.7851059889211,270.92709270927094 L 155.98305585790985,273.27732773277324 L 153.9864727429286,278.0778077807781 L 153.73689985355594,281.87818781878184 L 154.1362164765522,282.67826782678264 L 156.98134741540048,284.67846784678466 L 157.6801515056439,285.7285728572857 L 157.73006608351844,286.6286628662866 L 157.38066403839673,287.3787378737874 L 155.5837392349136,288.72887288728873 L 154.53553309954845,289.72897289728974 L 153.3375832305597,291.8291829182918 L 153.23775407481062,293.07930793079305 L 153.78681443143049,294.07940794079406 L 155.98305585790985,294.8294829482948 L 157.33074946052218,295.6295629562956 L 158.72835764100907,297.029702970297 L 164.5683632523292,307.4807480748075 L 166.9642629903067,308.980898089809 L 168.36187117079356,310.3310331033103 L 168.81110237166436,311.78117811781175 L 168.7112732159153,313.18131813181316 L 167.41349419117748,315.981598159816 L 167.16392130180483,317.83178317831783 L 174.75093713873355,339.98399839983995 L 175.9488870077223,345.2845284528453 L 176.04871616347137,348.48484848484844 L 175.00051002810622,349.1349134913491 L 173.90238931486653,349.5349534953495 L 167.9625545477973,350.5350535053505 L 166.56494636731045,351.18511851185116 L 156.43228705878062,358.68586858685865 L 155.33416634554095,360.1360136013601 L 155.2343371897919,360.98609860986096 L 155.9331412800353,363.8863886388639 L 155.9331412800353,365.7865786578658 L 154.7851059889211,372.8872887288729 L 154.03638732080313,376.0876087608761 L 151.84014589432377,378.7378737873787 L 147.84697966436127,381.18811881188117 L 139.5611597371891,384.63846384638464 L 137.06543084346254,385.23852385238524 L 134.9191039948577,385.3885388538854 L 134.17038532673973,385.23852385238524 L 133.12217919137458,384.4884488448845 L 131.92422932238583,382.6882688268827 L 130.72627945339707,381.58815881588157 L 129.02918380566302,380.6380638063806 L 126.33379660043835,380.08800880088006 L 124.63670095270429,380.28802880288026 L 123.388836505841,380.88808880888087 L 122.59020325984851,381.68816881688167 L 121.04285134573804,383.73837383738373 L 119.84490147674929,384.8884888488849 L 118.8965244971332,385.43854385438544 L 117.04968511577555,385.5885588558856 L 115.00318742291977,385.13851385138514 L 109.762156746094,374.83748374837484 L 107.11668411874385,371.2371237123712 L 101.82573886404354,366.03660366036604 L 101.37650766317277,365.0865086508651 L 101.47633681892182,364.33643364336433 L 103.87223655689932,362.38623862386237 L 105.2698447373862,361.036103610361 L 106.36796545062589,359.58595859585955 L 107.3662570081165,357.8357835783578 L 108.164890254109,355.7855785578558 L 108.86369434435244,352.68526852685267 L 109.36284012309775,352.28522852285226 L 110.01172963546665,352.1352135213521 L 112.30780021769509,352.2352235223522 L 117.34917258302274,353.08530853085307 L 118.24763498476429,353.035303530353 L 119.09618280863133,352.4352435243524 L 119.24592654225492,351.6351635163516 L 119.09618280863133,350.48504850485045 L 117.49891631664633,345.1845184518452 L 116.94985596002648,342.38423842384236 L 116.94985596002648,340.9340934093409 L 117.24934342727367,339.88398839883985 L 118.14780582901523,338.88388838883884 L 120.29413267762007,337.5837583758376 L 120.194303521871,337.33373337333734 L 118.99635365288226,336.63366336633663 L 118.39737871838788,336.0836083608361 L 117.5987454723954,335.033503350335 L 117.04968511577555,334.5834583458346 L 115.60216235741414,333.78337833783377 L 114.20455417692727,332.58325832583256 L 113.3060917751857,332.28322832283226 L 110.66061914783556,331.9331933193319 L 109.91190047971759,331.68316831683165 L 109.31292554522322,331.38313831383135 L 106.91702580724572,329.3329332933293 L 102.62437211003605,327.6827682768277 L 98.3816329907009,324.9324932493249 L 97.33342685533574,324.48244824482447 L 96.43496445359418,324.3324332433243 L 95.68624578547622,324.4324432443244 L 94.98744169523277,324.8324832483248 L 93.68966267049497,326.1326132613261 L 91.19393377676842,330.48304830483045 L 90.24555679715232,331.8331833183318 L 89.59666728478342,332.4332433243324 L 83.05785758321983,332.78327832783276 L 82.10948060360374,332.58325832583256 L 81.61033482485843,332.033203320332 L 81.16110362398766,330.18301830183015 L 80.61204326736781,329.58295829582954 L 79.71358086562624,329.2329232923292 L 73.17477116406266,329.032903290329 L 70.57921311458705,329.28292829282924 L 69.78057986859454,329.5329532953295 L 68.88211746685299,330.03300330033 L 65.63766990500847,332.48324832483246 L 63.74091594577628,333.1333133313331 L 61.79424740866956,333.28332833283326 L 60.995614162677064,333.5333533353335 L 58.49988526895051,334.983498349835 L 57.45167913358535,335.0835083508351 L 56.25372926459661,334.7334733473347 L 51.46192978864162,331.7331733173317 L 50.06432160815474,331.1331133113311 L 45.671838755196,329.9329932993299 L 43.52551190659116,328.9328932893289 L 42.47730577122601,327.93279327932794 L 41.878330836731635,326.73267326732673 L 41.1795267464882,324.4324432443244 L 40.3808935004957,322.88228822882286 L 39.23285820938148,321.8321832183218 L 35.98841064753696,319.9319931993199 L 34.89028993429727,318.93189318931894 L 33.74225464318306,317.2817281728173 L 33.043450552939625,316.6316631663166 L 32.394561040570714,316.3816381638164 L 29.649259257471503,316.7816781678168 L 27.30327409736854,308.8808880888089 L 25.955580494756198,306.5306530653065 L 24.907374359391046,303.18031803180315 L 26.504640851376042,299.92999299929994 L 30.74737997071119,295.87958795879587 L 37.78533545102008,286.7286728672867 L 40.03149145537398,281.47814781478144 z" /><path fill-rule="evenodd" fill="#D2EBD9" stroke="#A6A6A6" stroke-width="0.25" opacity="1" d="M 40.03149145537398,281.47814781478144 L 40.23114976687211,281.07810781078103 L 37.3361042501493,278.8278827882788 L 38.983285320008825,275.2275227522752 L 43.924828529587415,269.1269126912691 L 44.92312008707803,266.77667766776676 L 43.37576817296757,264.1264126412641 L 36.28789811478415,262.57625762576254 L 34.091656688304774,260.52605260526053 L 36.138154381160554,254.57545754575457 L 43.32585359509304,250.57505750575055 L 57.75116660083254,246.47464746474645 L 75.02161054542032,236.9236923692369 L 93.98915013774216,233.67336733673366 L 96.48487903146871,234.57345734573457 L 101.97548259766714,238.4238423842384 L 105.31975931526073,239.32393239323932 L 106.86711122937119,238.87388738873886 L 108.86369434435244,236.9236923692369 L 110.21138794696478,236.47364736473645 L 111.8585690168243,236.7236723672367 L 115.10301657866883,237.67376737673766 L 119.59532858737664,238.2238223822382 L 129.07909838353754,240.8240824082408 L 134.41995821611238,240.8240824082408 L 140.210049249558,239.02390239023902 L 148.89518579972642,233.9233923392339 L 148.79535664397736,237.5237523752375 L 148.3960400209811,239.62396239623962 L 147.04834641836877,243.52435243524351 L 144.20321547952048,248.97489748974897 L 144.4028737910186,249.92499249924992 L 145.1515924591366,251.2251225122512 L 147.2480047298669,253.12531253125312 L 149.64390446784438,257.025702570257 L 150.69211060320956,258.2258225822582 L 152.18954793944548,259.1759175917592 L 156.53211621452968,260.92609260926093 L 157.92972439501656,261.72617261726174 L 158.27912644013827,263.47634763476344 L 156.7317745260278,265.2265226522652 L 156.2326287472825,268.8268826882688 L 154.7851059889211,270.92709270927094 L 145.55090908213285,272.9272927292729 L 142.10680320879018,274.57745774577455 L 139.2616722699419,276.77767776777677 L 137.66440577795692,277.47774777477747 L 135.0688477284813,278.977897789779 L 133.3218375028727,281.02810281028104 L 132.12388763388395,281.5281528152815 L 130.4267919861499,281.47814781478144 L 127.2322590021799,280.6780678067807 L 125.38541962082225,279.62796279627963 L 124.08764059608444,278.6778677867787 L 123.13926361646836,278.2278227822782 L 122.14097205897772,278.2278227822782 L 120.99293676786351,278.977897789779 L 119.0462682307568,281.27812781278124 L 118.24763498476429,281.6281628162816 L 116.40079560340665,281.9281928192819 L 115.45241862379055,281.8281828182818 L 114.45412706629993,280.978097809781 L 114.35429791055087,279.7779777977798 L 115.45241862379055,275.27752775277526 L 115.55224777953961,273.27732773277324 L 113.75532297605649,271.42714271427144 L 110.36113168058837,270.0770077007701 L 91.64316497763919,270.1770177017702 L 90.44521510865044,270.5770577057706 L 89.2472652396617,271.3771377137714 L 86.80145092380967,273.4273427342734 L 84.35563660795765,276.27762776277626 L 82.85819927172172,277.17771777177717 L 76.86844992677797,279.32793279327933 L 74.62229392242406,280.62806280628064 L 69.98023818009267,284.37843784378435 L 68.83220288897846,284.77847784778476 L 64.7392075032669,285.57855785578556 L 63.291684744905496,286.17861786178617 L 62.443136921038466,286.77867786778677 L 60.496468383931756,289.82898289828984 L 59.79766429368832,290.57905790579053 L 58.94911646982129,290.67906790679064 L 57.850995756581604,290.1790179017902 L 55.355266862855046,286.87868786878687 L 54.30706072748989,285.8285828582858 L 53.258854592124734,285.67856785678566 L 51.561758944390675,286.6286628662866 L 50.41372365327646,287.5287528752875 L 49.11594462853865,287.7787778777878 L 47.81816560380084,287.2287228722872 L 44.174401418960066,283.87838783878385 L 40.23114976687211,281.47814781478144 L 40.03149145537398,281.47814781478144 z" /><path fill-rule="evenodd" fill="#D2EBD9" stroke="#A6A6A6" stroke-width="0.25" opacity="1" d="M 210.63951863052145,369.4369436943694 L 205.99746288819006,368.7368736873687 L 204.35028181833053,368.68686868686865 L 196.81318055927633,369.38693869386935 L 190.3742000134618,371.4371437143714 L 182.4876967092859,375.5875587558756 L 181.48940515179527,375.8875887588759 L 180.34136986068106,375.7875787578758 L 177.24666603246013,374.3874387438744 L 175.9488870077223,374.1874187418742 L 174.45144967148636,374.8874887488749 L 171.85589162201074,376.6376637663766 L 167.9625545477973,376.2876287628763 L 154.7851059889211,372.8872887288729 L 155.9331412800353,365.7865786578658 L 155.9331412800353,363.8863886388639 L 155.2343371897919,360.98609860986096 L 155.33416634554095,360.1360136013601 L 156.43228705878062,358.68586858685865 L 166.56494636731045,351.18511851185116 L 167.9625545477973,350.5350535053505 L 173.90238931486653,349.5349534953495 L 175.00051002810622,349.1349134913491 L 176.04871616347137,348.48484848484844 L 175.9488870077223,345.2845284528453 L 174.75093713873355,339.98399839983995 L 167.16392130180483,317.83178317831783 L 167.41349419117748,315.981598159816 L 168.7112732159153,313.18131813181316 L 168.81110237166436,311.78117811781175 L 168.36187117079356,310.3310331033103 L 166.9642629903067,308.980898089809 L 164.5683632523292,307.4807480748075 L 158.72835764100907,297.029702970297 L 157.33074946052218,295.6295629562956 L 155.98305585790985,294.8294829482948 L 153.78681443143049,294.07940794079406 L 153.23775407481062,293.07930793079305 L 153.3375832305597,291.8291829182918 L 154.53553309954845,289.72897289728974 L 155.5837392349136,288.72887288728873 L 157.38066403839673,287.3787378737874 L 157.73006608351844,286.6286628662866 L 157.6801515056439,285.7285728572857 L 156.98134741540048,284.67846784678466 L 154.1362164765522,282.67826782678264 L 153.73689985355594,281.87818781878184 L 153.9864727429286,278.0778077807781 L 155.98305585790985,273.27732773277324 L 156.78168910390235,274.7274727472747 L 157.4804931941458,275.17751775177516 L 158.02955355076563,275.27752775277526 L 160.47536786661766,274.87748774877485 L 161.82306146923,275.2275227522752 L 163.2705842275914,276.07760776077606 L 165.6664839655689,275.57755775577556 L 171.80597704413623,276.17761776177616 L 172.80426860162683,276.4276427642764 L 177.19675145458558,278.6278627862786 L 178.99367625806872,279.12791279127913 L 180.241540704932,278.7278727872787 L 181.6890634632934,277.8277827782778 L 183.98513404552182,274.77747774777475 L 185.33282764813416,273.57735773577355 L 186.08154631625212,272.6272627262726 L 186.28120462775024,272.07720772077204 L 185.2329984923851,270.32703270327033 L 182.687355020784,267.57675767576757 L 181.58923430754433,265.77657765776576 L 180.69077190580276,263.026302630263 L 180.44119901643012,261.62616261626164 L 180.84051563942637,260.4760476047605 L 181.88872177479152,259.6759675967597 L 184.5841089800162,259.4759475947595 L 187.67881280823713,259.9259925992599 L 188.67710436572776,259.5259525952595 L 189.7253105010929,258.8258825882588 L 190.92326037008166,255.7255725572557 L 192.42069770631758,254.97549754975495 L 193.96804962042805,251.3251325132513 L 195.06617033366774,250.2250225022502 L 196.9629242928999,249.22492249224922 L 198.01113042826506,249.07490749074907 L 205.897633732441,250.4250425042504 L 212.33661427825552,252.57525752575256 L 224.1663692345194,259.2759275927593 L 228.6586812432272,261.12611261126114 L 234.34894312092376,262.77627762776274 L 240.48843619949108,265.3265326532653 L 245.28023567544608,265.87658765876586 L 251.17015586464075,265.57655765576555 L 248.82417070453778,269.1269126912691 L 238.0925364615136,281.77817781778174 L 237.4935615270192,283.1283128312831 L 237.39373237127015,284.4284428442844 L 237.7930489942664,286.77867786778677 L 238.64159681813342,288.0788078807881 L 240.08911957649482,289.82898289828984 L 239.78963210924763,292.2292229222922 L 231.90312880507173,321.08210821082105 L 230.6053497803339,322.4322432243224 L 225.913379460128,325.6325632563256 L 225.41423368138268,326.43264326432643 L 225.1147462141355,327.3827382738274 L 226.31269608312422,332.88328832883286 L 226.11303777162613,334.6834683468347 L 225.4641482592572,336.53365336533653 L 223.76705261152316,339.3339333933393 L 222.61901732040894,340.7340734073407 L 221.72055491866737,341.5341534153415 L 220.87200709480035,341.7341734173417 L 217.2781574878341,341.5341534153415 L 216.27986593034348,341.7341734173417 L 215.48123268435097,342.7342734273427 L 214.78242859410753,344.2844284428443 L 213.08533294637348,355.3855385538554 L 213.08533294637348,357.28572857285724 L 213.38482041362067,359.035903590359 L 214.8822577498566,362.28622862286227 L 214.43302654898582,366.2866286628663 L 210.63951863052145,369.4369436943694 z" /><path fill-rule="evenodd" fill="#D2EBD9" stroke="#A6A6A6" stroke-width="0.25" opacity="1" d="M 190.92326037008166,255.7255725572557 L 189.7253105010929,258.8258825882588 L 188.67710436572776,259.5259525952595 L 187.67881280823713,259.9259925992599 L 184.5841089800162,259.4759475947595 L 181.88872177479152,259.6759675967597 L 180.84051563942637,260.4760476047605 L 180.44119901643012,261.62616261626164 L 180.69077190580276,263.026302630263 L 181.58923430754433,265.77657765776576 L 182.687355020784,267.57675767576757 L 185.2329984923851,270.32703270327033 L 186.28120462775024,272.07720772077204 L 186.08154631625212,272.6272627262726 L 185.33282764813416,273.57735773577355 L 183.98513404552182,274.77747774777475 L 181.6890634632934,277.8277827782778 L 180.241540704932,278.7278727872787 L 178.99367625806872,279.12791279127913 L 177.19675145458558,278.6278627862786 L 172.80426860162683,276.4276427642764 L 171.80597704413623,276.17761776177616 L 165.6664839655689,275.57755775577556 L 163.2705842275914,276.07760776077606 L 161.82306146923,275.2275227522752 L 160.47536786661766,274.87748774877485 L 158.02955355076563,275.27752775277526 L 157.4804931941458,275.17751775177516 L 156.78168910390235,274.7274727472747 L 155.98305585790985,273.27732773277324 L 154.7851059889211,270.92709270927094 L 156.2326287472825,268.8268826882688 L 156.7317745260278,265.2265226522652 L 158.27912644013827,263.47634763476344 L 160.17588039937047,263.97639763976395 L 160.8746844896139,263.67636763676364 L 161.97280520285358,262.67626762676264 L 162.3222072479753,261.92619261926194 L 162.42203640372438,260.0760076007601 L 161.97280520285358,257.57575757575756 L 161.97280520285358,255.67556755675565 L 162.1724635143517,254.77547754775478 L 163.02101133821873,253.07530753075307 L 164.4186195187056,251.77517751775176 L 169.90922308490403,250.5250525052505 L 171.50648957688904,249.77497749774977 L 172.5546957122542,248.82488248824882 L 173.95230389274107,245.47454745474545 L 174.30170593786278,244.97449744974497 L 176.39811820859308,243.17431743174316 L 176.94717856521294,243.024302430243 L 177.84564096695448,243.07430743074306 L 179.74239492618668,243.57435743574356 L 184.03504862339636,246.4246424642464 L 190.92326037008166,255.7255725572557 z" /></g></g></g></svg>