<svg xmlns="http://www.w3.org/2000/svg" xmlns:xlink="http://www.w3.org/1999/xlink" width="92.53575191290497" height="500.0" viewBox="0.0 0.0 92.53575191290497 500.0" preserveAspectRatio="xMinYMin meet"><g transform="matrix(1,0,0,-1,0,500.0)"><g><g><g><path fill-rule="evenodd" fill="#D2EBD9" stroke="#A6A6A6" stroke-width="0.25" opacity="1" d="M 84.93780688635282,483.3483348334833 L 92.21184439045757,483.3483348334833 L 92.43395240585008,483.048304830483 L 92.01749987698912,483.1483148314831 L 91.78613736095525,482.9482948294829 L 91.64731985133493,483.048304830483 L 91.64731985133493,482.8482848284828 L 91.15683131734313,482.8482848284828 L 90.99025030579875,482.3482348234823 L 90.68485178463405,482.09820982098205 L 90.26839925577309,482.4482448244824 L 89.55580270638879,481.6481648164816 L 88.91724216213531,479.6979697969797 L 88.90798766149396,480.04800480048004 L 88.6766251454601,479.5979597959796 L 88.53780763583977,479.4979497949795 L 88.46377163070893,479.64796479647964 L 88.4082446268608,479.3979397939794 L 88.25091811595779,479.6979697969797 L 88.4082446268608,480.0980098009801 L 88.36197212365404,480.64806480648065 L 88.11210060633746,480.34803480348035 L 88.06582810313068,480.64806480648065 L 87.81595658581412,480.6980698069807 L 86.2889639799906,480.14801480148014 L 86.3907634870455,480.0980098009801 L 86.11312846780486,479.84798479847984 L 86.06685596459809,479.4979497949795 L 85.87251145112964,479.5979597959796 L 85.41904091970326,478.6978697869787 L 84.96557038827689,477.4977497749775 L 84.65091736647084,477.5977597759776 L 84.58613586198135,477.4477447744774 L 84.59539036262271,477.64776477647763 L 84.35477334594748,477.6977697769777 L 84.56762686069864,478.64786478647864 L 84.48433635492644,478.74787478747874 L 84.41955485043697,478.3978397839784 L 84.35477334594748,478.54785478547853 L 84.26222833953393,478.44784478447843 L 84.1049018286309,479.4979497949795 L 84.72495337160167,480.14801480148014 L 84.289991841458,479.94799479947994 L 83.99384782093465,479.99799979998 L 83.9845933202933,479.84798479847984 L 83.83652131003163,479.8979897989799 L 83.68844929976994,479.6979697969797 L 83.6791947991286,479.7979797979798 L 83.60515879399776,479.74797479747974 L 83.52186828822556,479.6979697969797 L 83.48485028566014,479.99799979998 L 83.26274227026764,479.94799479947994 L 83.38305077860524,480.4980498049805 L 83.21646976706086,480.5980598059806 L 83.92906631644517,480.7980798079808 L 83.92906631644517,480.8980898089809 L 83.54963179014963,480.7980798079808 L 83.35528727668118,480.998099809981 L 83.5959042933564,481.1481148114811 L 83.74397630361807,481.04810481048105 L 83.81801230874892,481.19811981198114 L 83.78099430618349,481.04810481048105 L 83.95682981836923,481.1481148114811 L 83.95682981836923,480.998099809981 L 84.2714828401753,481.04810481048105 L 84.2067013356858,481.29812981298124 L 83.4941047863015,481.3481348134813 L 82.67045422922094,482.048204820482 L 82.75374473499313,482.1482148214821 L 82.5964182240901,482.29822982298225 L 82.25400170035998,482.2482248224822 L 82.04114818560882,482.8482848284828 L 81.62469565674786,482.6482648264826 L 81.58767765418244,482.29822982298225 L 81.21749762852826,482.5482548254825 L 81.01389861441847,482.3482348234823 L 80.81955410095001,482.39823982398235 L 80.9861351124944,482.59825982598255 L 80.8010450996673,482.7482748274827 L 80.86582660415678,483.048304830483 L 80.65297308940563,483.6483648364836 L 80.12546655284841,483.49834983498346 L 79.77379552847694,483.7483748374837 L 80.55117358235073,483.8483848384838 L 80.6992455926124,484.59845984598456 L 80.44937407529582,484.79847984798477 L 79.57945101500849,484.8484848484848 L 79.58870551564985,484.4484448444844 L 79.4776515079536,484.4484448444844 L 79.40361550282275,484.89848984898487 L 78.81132746177606,485.5485548554855 L 78.73729145664522,486.0986098609861 L 78.93163597011366,485.8985898589859 L 78.70952795472115,486.5486548654865 L 79.04268997780993,485.8985898589859 L 79.60721451693256,485.39853985398537 L 80.2735385631101,485.5485548554855 L 80.34757456824093,485.9485948594859 L 79.25554349256107,486.6986698669867 L 79.50541500987765,486.7486748674867 L 79.48690600859494,486.8986898689869 L 80.96762611121169,486.1986198619862 L 81.36556963878994,486.4486448644864 L 81.55991415225839,486.998699869987 L 81.06942561826659,487.14871487148713 L 80.82880860159136,487.04870487048703 L 80.28279306375144,488.24882488248824 L 80.52341008042666,488.04880488048803 L 80.68073659132969,488.1988198819882 L 80.79179059902594,488.04880488048803 L 80.91209910736356,488.14881488148814 L 81.2082431278869,487.998799879988 L 82.25400170035998,487.998799879988 L 82.31878320484947,488.24882488248824 L 82.20772919715321,488.2988298829883 L 82.32803770549081,488.3988398839884 L 83.22572426770222,488.74887488748874 L 84.03086582350006,489.3989398939894 L 83.68844929976994,489.44894489448944 L 84.04012032414143,489.64896489648964 L 83.99384782093465,489.7989798979898 L 83.79024880682485,489.7989798979898 L 84.04012032414143,489.8989898989899 L 83.9845933202933,490.14901490149015 L 84.13266533055497,490.0990099009901 L 84.1881923344031,489.7989798979898 L 84.36402784658884,489.99899989999 L 84.21595583632717,490.3990399039904 L 84.54911785941593,490.24902490249025 L 84.65091736647084,490.44904490449045 L 84.66017186711218,490.54905490549055 L 84.33626434466477,490.44904490449045 L 84.55837236005728,490.6490649064906 L 84.37328234723019,490.69906990699064 L 84.37328234723019,490.8490849084908 L 84.57688136133999,490.79907990799074 L 84.64166286582947,491.049104910491 L 84.38253684787155,491.19911991199115 L 84.29924634209935,491.5491549154915 L 84.64166286582947,491.29912991299125 L 84.66942636775354,491.49914991499145 L 84.81749837801522,491.39913991399135 L 84.84526187993927,491.7491749174917 L 84.63240836518813,491.59915991599155 L 84.6971898696776,491.9491949194919 L 84.52135435749186,491.8491849184918 L 84.46582735364373,491.9491949194919 L 84.44731835236102,492.19921992199215 L 84.66017186711218,492.1492149214921 L 84.54911785941593,492.3492349234923 L 84.65091736647084,492.5492549254925 L 84.53060885813322,492.39923992399235 L 84.38253684787155,492.49924992499245 L 84.23446483760988,492.39923992399235 L 84.19744683504446,492.59925992599256 L 84.63240836518813,492.69926992699266 L 84.54911785941593,492.89928992899286 L 84.289991841458,492.79927992799276 L 84.53986335877457,492.99929992999296 L 84.46582735364373,493.09930993099306 L 84.58613586198135,493.049304930493 L 84.50284535620915,493.4493449344934 L 84.28073734081664,493.49934993499346 L 84.4750818542851,493.69936993699366 L 84.2067013356858,493.79937993799376 L 84.2067013356858,493.9493949394939 L 84.34551884530613,493.9493949394939 L 84.19744683504446,494.49944994499447 L 83.82726680939027,494.8494849484948 L 84.00310232157601,494.9494949494949 L 83.85503031131434,495.1495149514951 L 84.09564732798955,495.2495249524952 L 83.89204831387976,495.2495249524952 L 83.73472180297672,495.1495149514951 L 83.79024880682485,494.9494949494949 L 83.4755957850188,495.09950995099507 L 83.54963179014963,495.2495249524952 L 83.42006878117067,495.3495349534953 L 83.60515879399776,495.4495449544954 L 83.55888629079098,495.5495549554955 L 83.34603277603982,495.4495449544954 L 83.38305077860524,495.9495949594959 L 83.60515879399776,495.999599959996 L 83.62366779528047,496.3496349634963 L 83.84577581067298,496.2496249624962 L 83.84577581067298,496.74967496749673 L 83.8827938132384,496.6996699669967 L 84.00310232157601,496.6996699669967 L 84.14191983119632,496.3996399639964 L 84.1881923344031,496.74967496749673 L 84.32700984402342,496.74967496749673 L 84.35477334594748,496.54965496549653 L 84.44731835236102,496.7996799679968 L 84.57688136133999,496.64966496649663 L 84.68793536903625,496.8996899689969 L 84.48433635492644,496.8996899689969 L 84.33626434466477,496.74967496749673 L 84.21595583632717,496.8996899689969 L 84.37328234723019,497.4997499749975 L 84.55837236005728,497.44974497449743 L 84.82675287865656,497.84978497849784 L 84.91929788507011,497.6997699769977 L 84.94706138699418,497.8997899789979 L 85.14140590046263,497.74977497749774 L 85.15991490174534,498.0998099809981 L 85.47456792355139,498.3998399839984 L 85.65965793637848,498.34983498349834 L 85.52084042675817,498.54985498549854 L 85.37276841649648,498.4998499849985 L 84.44731835236102,497.84978497849784 L 84.42880935107831,497.84978497849784 L 84.44731835236102,497.6997699769977 L 84.36402784658884,497.7997799779978 L 84.06788382606548,497.54975497549754 L 84.05862932542414,497.54975497549754 L 84.04937482478277,497.54975497549754 L 84.04012032414143,497.54975497549754 L 84.04937482478277,497.3997399739974 L 83.78099430618349,497.3997399739974 L 83.86428481195568,497.14971497149713 L 83.6791947991286,497.0997099709971 L 83.66994029848723,496.84968496849683 L 83.48485028566014,496.8996899689969 L 83.4755957850188,496.8996899689969 L 83.36454177732253,496.3996399639964 L 83.14243376193002,496.44964496449643 L 83.17019726385409,495.999599959996 L 83.09616125872326,496.0996099609961 L 83.04063425487513,495.999599959996 L 83.04988875551648,496.2496249624962 L 82.87405324333074,496.0996099609961 L 82.8833077439721,495.8495849584958 L 83.14243376193002,495.8495849584958 L 83.06839775679919,495.6495649564956 L 83.05914325615784,495.6495649564956 L 83.06839775679919,495.6495649564956 L 83.05914325615784,495.5995599559956 L 83.03137975423377,495.5995599559956 L 83.12392476064731,495.3495349534953 L 82.98510725102699,495.3495349534953 L 83.04063425487513,494.99949994999497 L 82.91107124589615,494.9494949494949 L 83.04988875551648,494.6494649464946 L 82.92958024717886,494.4494449444944 L 82.70747223178635,494.6494649464946 L 82.55940022152468,494.5494549454945 L 82.92032574653751,493.3493349334933 L 82.87405324333074,492.9492949294929 L 83.0869067580819,492.5492549254925 L 82.89256224461344,491.79917991799175 L 82.17996569522914,491.39913991399135 L 81.43960564392077,491.2491249124912 L 81.21749762852826,490.99909990999095 L 80.87508110479814,491.09910991099105 L 80.40310157208906,490.89908990899085 L 80.51415557978531,491.2491249124912 L 79.9866490432281,491.09910991099105 L 79.97739454258674,491.39913991399135 L 79.78305002911829,491.6491649164916 L 79.52392401116036,491.69916991699165 L 79.62572351821527,491.29912991299125 L 79.34808849897462,491.4491449144914 L 79.3943610021814,491.049104910491 L 79.13523498422347,490.8490849084908 L 78.93163597011366,491.049104910491 L 78.7002734540798,490.99909990999095 L 78.67250995215574,491.19911991199115 L 78.3948749329151,491.19911991199115 L 78.23754842201207,491.49914991499145 L 78.02469490726091,491.3491349134913 L 77.79333239122704,491.49914991499145 L 77.50644287134506,491.4491449144914 L 77.58973337711724,491.89918991899185 L 77.28433485595254,491.99919991999195 L 77.30284385723525,491.59915991599155 L 76.84011882516752,491.3491349134913 L 76.40515729502386,491.5491549154915 L 76.09975877385915,491.39913991399135 L 75.76659675077038,491.49914991499145 L 75.45194372896432,491.39913991399135 L 75.06325470202744,491.49914991499145 L 75.12803620651691,491.6491649164916 L 74.03600513083707,491.59915991599155 L 73.84166061736862,491.6491649164916 L 73.96196912570623,491.89918991899185 L 73.69358860710695,491.89918991899185 L 73.79538811416184,491.39913991399135 L 74.61903867124241,491.3491349134913 L 74.84114668663491,491.1491149114911 L 74.38767615520854,490.9490949094909 L 73.77687911287913,491.09910991099105 L 73.84166061736862,490.79907990799074 L 74.14705913853332,490.7490749074907 L 74.16556813981603,490.2990299029903 L 74.56351166739428,490.2990299029903 L 74.40618515649125,489.8989898989899 L 74.69307467637324,489.8989898989899 L 74.7023291770146,489.6989698969897 L 74.8226376853522,489.64896489648964 L 74.91518269176575,489.6989698969897 L 74.8041286840695,489.44894489448944 L 74.24885864558823,489.34893489348934 L 74.13780463789196,489.6989698969897 L 73.23086357503921,489.6989698969897 L 72.85142904874367,489.3989398939894 L 72.06479649422853,489.64896489648964 L 71.6205804634435,489.54895489548954 L 71.58356246087808,489.6989698969897 L 71.94448798589092,490.1990199019902 L 71.83343397819466,490.54905490549055 L 71.75939797306383,490.44904490449045 L 71.65759846600892,490.5990599059906 L 71.48176295382319,490.4990499049905 L 71.62983496408486,490.2990299029903 L 71.49101745446454,490.2990299029903 L 71.57430796023674,489.99899989999 L 70.88022041213513,489.74897489748975 L 70.99127441983138,490.0990099009901 L 70.86171141085242,490.0990099009901 L 71.14860093073442,490.3990399039904 L 71.01903792175546,490.2990299029903 L 70.95425641726597,490.4990499049905 L 71.09307392688629,490.6490649064906 L 70.87096591149378,490.69906990699064 L 70.88947491277649,490.89908990899085 L 70.65811239674262,490.69906990699064 L 70.73214840187346,490.2990299029903 L 70.50078588583959,490.24902490249025 L 70.41749538006741,490.3990399039904 L 70.35271387557792,490.24902490249025 L 69.97327934928238,490.24902490249025 L 69.9084978447929,490.4990499049905 L 69.66788082811767,490.3990399039904 L 69.69564433004174,490.1990199019902 L 68.94602977809201,489.99899989999 L 67.35425566777901,490.0990099009901 L 66.74345862544962,489.8989898989899 L 66.1141525818375,490.04900490049005 L 65.83651756259685,489.84898489848985 L 65.67919105169383,490.14901490149015 L 65.43857403501862,490.24902490249025 L 65.37379253052913,490.04900490049005 L 65.07764851000579,490.04900490049005 L 65.04063050744037,489.7989798979898 L 65.19795701834339,489.5989598959896 L 64.84628599397192,489.74897489748975 L 64.34654295933876,489.64896489648964 L 64.18921644843573,489.34893489348934 L 63.930090430477804,489.2989298929893 L 64.09667144202218,488.998899889989 L 63.86530892598832,488.998899889989 L 63.71723691572665,489.34893489348934 L 63.152712376604015,489.1989198919892 L 63.18047587852808,488.94889488948894 L 62.73625984774306,488.8988898889889 L 62.588187837481385,488.6988698869887 L 62.884331858004735,488.2988298829883 L 62.523406332991904,488.44884488448844 L 62.51415183235055,488.44884488448844 L 62.09769930348959,488.6988698869887 L 61.76453728040082,488.34883488348834 L 62.44011582721971,488.2988298829883 L 62.85656835608067,487.94879487948793 L 62.7270053471017,487.84878487848783 L 62.89358635864609,487.5987598759876 L 62.6252058400468,487.64876487648763 L 62.902840859287444,487.3987398739874 L 62.7270053471017,487.3987398739874 L 62.85656835608067,487.04870487048703 L 62.61595133940545,487.0987098709871 L 62.486388330426486,487.3987398739874 L 62.28278931631668,487.1987198719872 L 61.98664529579333,487.54875487548753 L 61.931118291945204,487.2987298729873 L 62.25502581439262,487.0987098709871 L 62.014408797717394,487.04870487048703 L 61.977390795151976,486.8486848684868 L 61.746028279118114,486.9486948694869 L 61.88484578873843,486.7986798679868 L 61.69050127526999,486.6986698669867 L 61.135231236788705,487.2987298729873 L 61.02417722909245,487.0987098709871 L 60.691015206003684,487.14871487148713 L 60.839087216265355,487.2987298729873 L 60.56145219702472,487.4987498749875 L 60.53368869510066,487.4987498749875 L 60.04320016110886,487.5987598759876 L 59.86736464892312,487.24872487248723 L 59.580475129041126,487.5987598759876 L 59.54345712647571,486.4986498649865 L 59.83960114699906,486.1486148614861 L 59.978418656619375,486.2986298629863 L 60.70952420728639,486.1986198619862 L 60.00618215854344,485.6485648564856 L 60.40412568612169,485.1485148514851 L 60.94088672332026,484.9484948494849 L 61.24628524448496,485.09850985098507 L 61.10746773486464,484.7484748474847 L 61.264794245767675,484.8484848484848 L 61.17224923935412,484.7484748474847 L 62.26428031503397,484.09840984098406 L 62.421606825937,483.8483848384838 L 62.3198073188821,483.8483848384838 L 62.02366329835875,483.99839983998396 L 61.94962729322791,483.99839983998396 L 62.15322630733772,483.8483848384838 L 61.977390795151976,483.8483848384838 L 62.310552818240744,483.69836983698366 L 61.597956268856436,483.6483648364836 L 61.65348327270457,483.49834983498346 L 61.48690226116018,483.39833983398336 L 61.69050127526999,483.19831983198316 L 61.45913875923612,483.19831983198316 L 61.60721076949779,482.99829982998295 L 62.1162083047723,482.8482848284828 L 61.829318784890305,482.69826982698265 L 62.09769930348959,482.6482648264826 L 62.30129831759939,482.3482348234823 L 60.0339456604675,481.99819981998195 L 59.86736464892312,481.79817981798175 L 59.876619149564476,481.6481648164816 L 60.40412568612169,481.39813981398135 L 60.71877870792775,481.04810481048105 L 60.45965268996982,480.54805480548055 L 61.033431729733806,479.44794479447944 L 60.38561668483898,478.8978897889789 L 60.25605367586002,478.3978397839784 L 59.48793012262758,478.24782478247823 L 59.913637152129894,477.997799779978 L 59.330603611724555,477.2977297729773 L 59.09924109569069,477.4477447744774 L 58.56248005849212,477.3477347734773 L 58.31260854117554,477.84778477847783 L 58.044228022576256,477.64776477647763 L 58.044228022576256,477.3477347734773 L 57.92391951423865,477.3977397739774 L 57.812865506542394,478.0978097809781 L 56.61903492380765,477.997799779978 L 56.656052926373064,477.84778477847783 L 56.35065440520836,478.0978097809781 L 56.18407339366398,478.5978597859786 L 55.4252043410729,478.94789478947894 L 56.30438190200159,477.94779477947793 L 56.10078288789179,478.04780478047803 L 56.85965194048286,477.4477447744774 L 56.97996044882048,476.9476947694769 L 57.137286959723504,476.8976897689769 L 57.04474195330996,476.7476747674767 L 57.26684996870247,476.6476647664766 L 57.14654146036486,476.7976797679768 L 57.581502990508525,476.6976697669767 L 57.711065999487495,476.8476847684768 L 58.090500525783035,476.3976397639764 L 58.16453653091387,476.09760976097607 L 57.8313745078251,476.09760976097607 L 57.794356505259685,475.89758975897587 L 58.34962654374096,475.29752975297527 L 57.70181149884614,475.19751975197516 L 57.47044898281227,475.29752975297527 L 57.78510200461833,475.1475147514751 L 58.18304553219658,475.1475147514751 L 58.26633603796877,474.99749974997496 L 58.071991524500326,474.99749974997496 L 58.12751852834845,474.79747974797476 L 59.534202625834354,474.1474147414741 L 60.23754467457731,474.047404740474 L 60.20052667201189,473.8473847384738 L 59.728547139302805,473.8473847384738 L 60.274562677142725,473.1473147314731 L 60.13574516752241,473.1473147314731 L 60.0339456604675,472.9472947294729 L 60.14499966816376,472.89728972897285 L 59.580475129041126,473.047304730473 L 59.50643912391029,473.29732973297325 L 59.515693624551645,473.09730973097305 L 59.28433110851778,473.39733973397335 L 58.38664454630638,473.89738973897386 L 58.34962654374096,473.79737973797376 L 57.47044898281227,474.047404740474 L 57.21132296485434,473.9473947394739 L 57.00772395074454,474.5474547454745 L 55.22160532696309,475.19751975197516 L 55.203096325680384,474.9474947494749 L 55.02726081349465,474.8474847484748 L 54.87918880323298,475.1475147514751 L 54.99024281092923,475.2475247524752 L 54.57379028206827,475.1475147514751 L 54.444227273089304,475.4475447544754 L 53.98150224102157,475.3475347534753 L 53.98150224102157,0.0 L 53.98150224102157,475.3475347534753 L 53.60206771472603,475.9475947594759 L 52.75990815636276,476.29762976297627 L 52.685872151231926,476.6476647664766 L 52.28792862365368,476.5476547654765 L 52.36196462878451,476.7976797679768 L 52.241656120446905,476.9476947694769 L 52.13060211275065,477.047704770477 L 51.927003098640846,476.8976897689769 L 51.91774859799949,477.1477147714771 L 51.649368079400205,477.2977297729773 L 51.81594909094459,477.3977397739774 L 51.71414958388969,477.54775477547753 L 51.464278066573115,477.4477447744774 L 51.43651456464905,477.64776477647763 L 51.30695155567009,477.6977697769777 L 51.251424551821955,477.54775477547753 L 51.251424551821955,477.7977797779778 L 51.066334538994866,477.64776477647763 L 50.89049902680913,477.74777477747773 L 50.64062750949255,478.0978097809781 L 51.001553034505385,477.94779477947793 L 51.04782553771216,478.4978497849785 L 50.92751702937455,478.5978597859786 L 50.75168151718881,478.44784478447843 L 50.71466351462339,478.8978897889789 L 50.224174980631595,479.2979297929793 L 50.18715697806618,479.74797479747974 L 50.0390849678045,479.84798479847984 L 49.678159442791674,479.6979697969797 L 49.72443194599845,479.44794479447944 L 49.49306942996458,479.5979597959796 L 49.048853399179556,479.54795479547954 L 49.002580895972784,479.6979697969797 L 49.844740454336055,480.14801480148014 L 49.51157843124729,480.64806480648065 L 49.58561443637812,480.84808480848085 L 49.4282879254751,480.74807480748075 L 49.47456042868187,481.04810481048105 L 49.09512590238633,481.29812981298124 L 49.21543441072394,481.49814981498145 L 49.05810789982091,481.4481448144814 L 49.067362400462265,481.6481648164816 L 48.92854489084195,481.5481548154815 L 48.873017886993814,481.89818981898185 L 49.13214390495175,481.79817981798175 L 48.97481739404872,482.048204820482 L 49.067362400462265,482.3482348234823 L 48.706436875449434,482.49824982498245 L 49.18767090879987,482.59825982598255 L 49.085871401744974,482.8482848284828 L 48.91003588955924,482.7482748274827 L 48.771218379938915,482.89828982898285 L 49.09512590238633,482.99829982998295 L 49.048853399179556,483.19831983198316 L 48.373274852360666,483.09830983098306 L 48.521346862622345,483.39833983398336 L 49.21543441072394,483.9483948394839 L 49.05810789982091,483.8483848384838 L 49.0395988985382,483.8483848384838 L 48.9377993914833,483.99839983998396 L 48.919290390200594,483.99839983998396 L 48.752709378656206,483.89838983898386 L 48.7342003773735,483.99839983998396 L 48.74345487801485,483.99839983998396 L 49.05810789982091,484.3484348434843 L 48.789727381221624,484.29842984298426 L 48.74345487801485,484.4484448444844 L 49.10438040302768,484.5484548454845 L 48.94705389212466,484.79847984798477 L 49.02108989725549,485.1485148514851 L 49.12288940431039,485.09850985098507 L 49.19692540944123,485.29852985298527 L 49.37276092162697,485.09850985098507 L 49.22468891136529,485.8485848584858 L 49.51157843124729,485.2485248524852 L 49.62263243894354,485.5485548554855 L 49.97430346331502,485.69856985698567 L 50.69615451334068,485.6485648564856 L 50.64988201013391,485.8485848584858 L 50.325974487686494,485.9485948594859 L 50.27044748383837,486.4486448644864 L 50.15013897550076,486.1486148614861 L 49.8354859536947,486.1986198619862 L 50.011321465880435,486.6486648664866 L 49.78921345048793,486.6486648664866 L 49.928030960108245,486.7486748674867 L 49.72443194599845,486.8986898689869 L 49.80772245177064,487.1987198719872 L 49.631886939584895,487.64876487648763 L 49.4282879254751,487.74877487748773 L 49.60412343766083,487.94879487948793 L 49.465305928040515,488.04880488048803 L 49.53934193317135,488.54885488548854 L 49.37276092162697,488.54885488548854 L 49.58561443637812,488.94889488948894 L 49.363506420985615,489.1989198919892 L 49.40977892419239,489.3989398939894 L 48.984071894690075,489.3989398939894 L 49.252452413289355,489.5989598959896 L 49.49306942996458,489.54895489548954 L 49.45605142739916,489.94899489948995 L 49.55785093445406,490.1990199019902 L 49.631886939584895,490.0990099009901 L 49.64114144022625,490.3990399039904 L 49.75219544792251,490.44904490449045 L 49.81697695241199,490.14901490149015 L 49.95579446203231,490.2990299029903 L 50.23342948127295,490.14901490149015 L 50.07610297036992,490.7490749074907 L 49.97430346331502,490.79907990799074 L 50.02057596652179,490.8490849084908 L 50.19641147870753,490.69906990699064 L 50.00206696523908,491.39913991399135 L 50.10386647229399,491.29912991299125 L 50.205665979348886,491.39913991399135 L 50.18715697806618,490.8490849084908 L 50.307465486403785,490.8490849084908 L 50.45553749666546,490.99909990999095 L 50.409264993458685,491.2491249124912 L 50.64988201013391,491.1491149114911 L 50.88124452616778,491.3491349134913 L 50.6313730088512,491.4491449144914 L 50.58510050564443,491.3491349134913 L 50.46479199730681,491.7491749174917 L 50.97378953258132,491.49914991499145 L 50.99229853386403,491.69916991699165 L 51.20515204861518,491.39913991399135 L 51.39024206144228,491.89918991899185 L 50.97378953258132,492.19921992199215 L 51.47353256721447,491.99919991999195 L 51.35322405887686,492.3492349234923 L 51.49204156849718,492.69926992699266 L 51.55682307298666,492.49924992499245 L 51.649368079400205,492.6492649264926 L 51.482787067855824,493.09930993099306 L 51.4272600640077,492.79927992799276 L 51.07558903963622,493.19931993199316 L 50.82571752231964,493.1493149314931 L 50.88124452616778,493.29932993299326 L 50.67764551205797,493.3493349334933 L 50.853481024243706,493.4493449344934 L 50.501809999872236,493.49934993499346 L 50.56659150436172,493.6493649364936 L 49.909521958825536,493.7493749374937 L 49.8354859536947,493.49934993499346 L 49.8354859536947,493.6493649364936 L 49.71517744535709,493.59935993599356 L 49.43754242611645,493.89938993899386 L 49.40052442355103,493.2493249324932 L 49.363506420985615,493.39933993399336 L 49.18767090879987,493.39933993399336 L 49.03034439789685,494.049404940494 L 48.78047288058027,494.1494149414941 L 48.92854489084195,494.2494249424942 L 48.79898188186298,494.4494449444944 L 48.64165537095995,494.5494549454945 L 48.604637368394535,494.4494449444944 L 48.391783853643375,494.69946994699467 L 48.21594834145764,494.69946994699467 L 48.17893033889222,494.49944994499447 L 48.077130831837316,494.7494749474947 L 47.88278631836887,494.69946994699467 L 47.75322330938991,494.89948994899487 L 47.68844180490043,494.7494749474947 L 47.27198927603946,495.3495349534953 L 47.253480274756754,494.99949994999497 L 46.76299174076496,495.09950995099507 L 46.62417423114464,494.89948994899487 L 46.54088372537245,495.2995299529953 L 45.50437965354073,495.2495249524952 L 45.46736165097531,495.5995599559956 L 45.347053142637705,495.5495549554955 L 45.18972663173467,495.8495849584958 L 45.152708629169254,495.6995699569957 L 45.041654621473,495.8495849584958 L 44.76401960223236,495.5495549554955 L 44.74551060094965,495.9495949594959 L 44.89358261121133,496.1496149614961 L 44.66222009517746,496.0996099609961 L 44.68072909646017,496.2996299629963 L 44.31054907080598,496.1996199619962 L 44.23651306567515,496.3496349634963 L 43.218517995126135,496.44964496449643 L 43.051936983581754,496.64966496649663 L 42.8575924701133,496.64966496649663 L 42.82982896818924,496.4996499649965 L 42.54293944830725,496.7996799679968 L 42.2467954277839,496.4996499649965 L 42.11723241880494,496.7996799679968 L 41.15476435210405,496.6996699669967 L 40.89563833414612,496.0996099609961 L 40.40514980015433,496.2496249624962 L 40.37738629823026,496.0996099609961 L 40.29409579245807,496.5996599659966 L 40.192296285403174,496.4996499649965 L 40.044224275141495,496.64966496649663 L 39.76658925590086,496.3496349634963 L 39.581499243073765,496.4996499649965 L 38.41543216226308,495.9495949594959 L 38.23034214943599,496.049604960496 L 38.67455818022101,496.2496249624962 L 37.758362616726906,496.0996099609961 L 37.76761711736826,496.2496249624962 L 36.934712059646344,495.8995899589959 L 37.47147309684491,496.3496349634963 L 37.42520059363814,496.4996499649965 L 37.101293071190725,496.54965496549653 L 37.11054757183208,496.74967496749673 L 36.81440355130873,496.999699969997 L 36.23137001090339,496.84968496849683 L 36.16658850641391,496.3996399639964 L 35.87969898653191,496.2496249624962 L 35.6575909711394,496.2496249624962 L 35.52802796216044,496.44964496449643 L 35.398464953181474,496.2996299629963 L 35.43548295574689,496.4996499649965 L 34.05656236018505,496.94969496949693 L 33.741909338378996,496.8996899689969 L 33.64010983132409,496.5996599659966 L 33.27918430631126,496.4996499649965 L 33.11260329476688,496.2496249624962 L 33.084839792842814,496.44964496449643 L 33.17738479925636,496.54965496549653 L 32.2519347351209,496.3996399639964 L 32.05759022165245,496.54965496549653 L 31.798464203694518,496.3996399639964 L 31.344993672268142,496.54965496549653 L 30.752705631221446,496.2996299629963 L 30.252962596588297,496.3496349634963 L 29.790237564520563,496.0996099609961 L 29.410803038225023,496.1496149614961 L 29.151677020267094,495.9495949594959 L 29.170186021549803,495.7495749574957 L 29.096150016418967,495.8495849584958 L 28.050391443945895,495.4495449544954 L 27.717229420857127,494.7494749474947 L 27.235995387506687,494.49944994499447 L 27.10643237852772,494.1494149414941 L 26.560416840687797,494.2494249424942 L 26.273527320805805,493.59935993599356 L 26.255018319523096,493.59935993599356 L 26.023655803489227,493.09930993099306 L 26.079182807337357,492.79927992799276 L 25.977383300282455,492.8492849284928 L 25.894092794510264,492.5492549254925 L 25.6627302784764,492.4492449244924 L 25.60720327462827,492.1492149214921 L 25.19075074576731,491.99919991999195 L 25.162987243843247,491.49914991499145 L 24.783552717547707,491.4491449144914 L 25.153732743201893,492.9492949294929 L 25.496149266932015,493.5493549354935 L 25.48689476629066,493.8493849384938 L 25.1722417444846,493.7493749374937 L 24.98715173165751,493.89938993899386 L 25.22776874833273,494.29942994299427 L 25.320313754746277,494.09940994099406 L 25.496149266932015,494.19941994199417 L 25.403604260518467,494.59945994599457 L 25.625712275910978,494.59945994599457 L 25.52391276885608,494.79947994799477 L 25.671984779117754,494.9494949494949 L 25.533167269497433,494.9494949494949 L 25.718257282324526,495.19951995199517 L 25.616457775269623,495.6995699569957 L 25.237023248974083,495.5995599559956 L 24.070956168163402,495.8995899589959 L 23.802575649564115,495.7495749574957 L 23.31208711557232,495.9495949594959 L 23.04370659697304,495.9495949594959 L 22.997434093766262,495.7995799579958 L 22.77532607837375,495.999599959996 L 22.858616584145945,496.0996099609961 L 22.627254068112077,496.049604960496 L 22.580981564905304,496.1996199619962 L 22.24781954181654,496.1496149614961 L 22.12751103347893,495.9495949594959 L 22.044220527706734,496.0996099609961 L 22.284837544381958,496.2996299629963 L 22.099747531554865,496.4996499649965 L 22.26632854309925,496.3996399639964 L 22.43290955464363,496.4996499649965 L 21.655531500769843,496.94969496949693 L 20.674554432786252,496.64966496649663 L 20.61902742893812,496.3996399639964 L 20.757844938558442,496.3496349634963 L 20.785608440482505,496.049604960496 L 20.591263927014058,496.1496149614961 L 20.48946441995916,495.999599959996 L 20.480209919317804,496.049604960496 L 20.526482422524577,496.1996199619962 L 20.35064691033884,496.1996199619962 L 20.359901410980193,496.3496349634963 L 20.137793395587682,496.1996199619962 L 20.406173914186965,496.049604960496 L 20.19332039943581,495.8995899589959 L 20.147047896229036,495.4995499549955 L 20.026739387891425,495.7995799579958 L 20.01748488725007,495.7995799579958 L 19.8694128769884,495.6995699569957 L 19.767613369933496,495.8995899589959 L 19.906430879553817,495.9495949594959 L 19.656559362237243,496.049604960496 L 19.647304861595885,495.6995699569957 L 19.591777857747758,495.7995799579958 L 19.45296034812744,495.6495649564956 L 19.203088830810863,495.6995699569957 L 19.230852332734926,495.5495549554955 L 18.75887280002584,495.4995499549955 L 18.647818792329584,495.2995299529953 L 17.95373124422799,494.9494949494949 L 17.91671324166257,494.3494349434943 L 17.685350725628705,494.09940994099406 L 17.75938673075954,493.9493949394939 L 17.657587223704642,493.9493949394939 L 17.41697020702942,494.3494349434943 L 17.2781526974091,494.19941994199417 L 17.15784418907149,494.39943994399437 L 16.769155162134595,494.29942994299427 L 16.75990066149324,494.6494649464946 L 16.352702633273637,494.79947994799477 L 16.547047146742084,495.049504950495 L 16.250903126218734,495.049504950495 L 16.065813113391645,494.89948994899487 L 16.195376122370607,494.49944994499447 L 16.09357661531571,494.049404940494 L 15.353216564007337,493.8493849384938 L 14.529566006926775,493.29932993299326 L 14.02056847165227,493.4493449344934 L 13.928023465238724,493.79937993799376 L 13.687406448563502,493.4493449344934 L 13.446789431888282,493.49934993499346 L 13.326480923550672,493.59935993599356 L 13.511570936377764,493.69936993699366 L 13.317226422909318,493.9493949394939 L 13.12288190944087,493.4493449344934 L 12.669411378014493,493.39933993399336 L 12.576866371600946,493.99939993999396 L 12.465812363904691,493.69936993699366 L 12.280722351077598,493.69936993699366 L 11.956814828630186,493.7493749374937 L 11.98457833055425,493.99939993999396 L 11.762470315161739,493.79937993799376 L 11.216454777321815,493.8493849384938 L 11.077637267701496,494.049404940494 L 10.911056256157112,494.049404940494 L 11.059128266418787,493.89938993899386 L 10.892547254874403,493.8493849384938 L 10.762984245895439,493.49934993499346 L 10.272495711903643,493.7493749374937 L 10.124423701641968,494.049404940494 L 9.994860692663003,493.9493949394939 L 10.059642197152487,493.79937993799376 L 9.735734674705075,493.7493749374937 L 9.72648017406372,493.99939993999396 L 9.615426166367463,493.9493949394939 L 9.680207670856946,493.69936993699366 L 8.421595583632715,493.4493449344934 L 7.847816543868729,493.1493149314931 L 7.579436025269445,492.69926992699266 L 7.422109514366416,493.1493149314931 L 7.3295645079528695,492.9492949294929 L 6.857584975243783,493.09930993099306 L 6.820566972678365,492.89928992899286 L 6.7095129649821095,493.09930993099306 L 6.117224923935413,493.049304930493 L 6.283805935479796,493.4493449344934 L 6.163497427142186,493.59935993599356 L 6.015425416880512,493.39933993399336 L 5.663754392509036,493.4493449344934 L 5.747044898281227,492.79927992799276 L 5.460155378399233,492.7492749274927 L 5.367610371985688,493.19931993199316 L 5.071466351462339,493.39933993399336 L 5.145502356593176,493.2493249324932 L 4.941903342483374,492.8492849284928 L 4.67352282388409,493.1493149314931 L 4.53470531426377,493.049304930493 L 4.590232318111898,492.79927992799276 L 4.914139840559311,492.7492749274927 L 4.784576831580345,492.1492149214921 L 4.275579296305841,491.79917991799175 L 4.03496227963062,491.89918991899185 L 4.127507286044167,491.5491549154915 L 3.8035997635967544,491.6491649164916 L 3.451928739225278,491.2491249124912 L 3.4426742385839235,491.049104910491 L 3.6462732526937254,490.9490949094909 L 3.461183239866633,490.8490849084908 L 3.9331627725757192,490.9490949094909 L 4.007198777706556,490.8490849084908 L 3.8035997635967544,490.3990399039904 L 3.211311722550058,490.44904490449045 L 2.8688951988199363,489.5989598959896 L 2.859640698178582,489.54895489548954 L 2.9429312039507733,489.3989398939894 L 3.0169672090816104,489.34893489348934 L 2.9799492065161917,489.2989298929893 L 2.470951671241687,489.34893489348934 L 2.295116159055949,489.0989098909891 L 1.4899746032580958,489.04890489048904 L 0.0832905057721917,488.14881488148814 L 92.49873391033955,488.0988098809881 L 92.05451787955454,487.4987498749875 L 91.8971913686515,487.54875487548753 L 91.42521183594242,487.14871487148713 L 91.388193833377,486.6486648664866 L 91.17534031862584,486.6986698669867 L 90.8791962981025,485.69856985698567 L 90.93472330195063,485.39853985398537 L 91.44372083722513,485.09850985098507 L 91.46222983850784,485.048504850485 L 91.45297533786649,484.99849984998497 L 91.81390086287932,484.8484848484848 L 92.03600887827183,484.9484948494849 L 92.15631738660943,484.99849984998497 L 92.37842540200195,485.09850985098507 L 92.3876799026433,485.09850985098507 L 92.3876799026433,485.048504850485 L 92.40618890392601,485.048504850485 L 92.41544340456737,485.09850985098507 L 92.46171590777413,485.1485148514851 L 92.4894794096982,485.048504850485 L 91.11981331477772,485.048504850485 L 91.07354081157095,485.048504850485 L 89.11158667560376,485.048504850485 L 89.0838231736797,485.048504850485 L 58.0349735219349,485.048504850485 L 58.02571902129355,485.048504850485 L 0.009254500641354633,485.048504850485 L 92.53575191290497,484.99849984998497 L 92.42469790520872,484.89848984898487 L 92.39693440328466,484.8484848484848 L 92.39693440328466,484.79847984798477 L 92.40618890392601,484.79847984798477 L 92.52649741226362,484.8484848484848 L 0.03701800256541853,484.79847984798477 L 0.04627250320677317,484.7484748474847 L 0.055527003848127796,484.7484748474847 L 0.09254500641354634,484.8484848484848 L 0.10179950705490097,484.8484848484848 L 0.12030850833761023,484.79847984798477 L 0.018509001282709266,484.69846984698466 L 92.46171590777413,484.5484548454845 L 92.36917090136059,484.39843984398436 L 92.4894794096982,484.3484348434843 L 92.04526337891318,484.3484348434843 L 91.97122737378234,484.3484348434843 L 91.90644586929287,484.3484348434843 L 91.8786823673688,484.3484348434843 L 83.33677827539847,484.3484348434843 L 83.31826927411576,484.3484348434843 L 83.17019726385409,484.3484348434843 L 83.06839775679919,484.3484348434843 L 0.0832905057721917,484.3484348434843 L 1.3511570936377764,484.09840984098406 L 1.4714656019753867,484.19841984198416 L 1.462211101334032,484.048404840484 L 1.9156816327604091,483.89838983898386 L 1.4714656019753867,483.6483648364836 L 0.18509001282709267,483.5483548354835 L 0.018509001282709266,483.3483348334833 L 84.91004338442876,483.3483348334833 L 84.93780688635282,483.3483348334833 z" /><path fill-rule="evenodd" fill="#D2EBD9" stroke="#A6A6A6" stroke-width="0.25" opacity="1" d="M 50.807208521036934,486.3486348634863 L 50.75168151718881,486.4986498649865 L 50.58510050564443,486.1986198619862 L 50.409264993458685,486.3986398639864 L 50.42777399474139,486.0986098609861 L 50.74242701654745,486.1486148614861 L 50.807208521036934,486.3486348634863 z" /><path fill-rule="evenodd" fill="#D2EBD9" stroke="#A6A6A6" stroke-width="0.25" opacity="1" d="M 88.66737064481875,499.8999899989999 L 88.68587964610145,499.8999899989999 L 88.6766251454601,499.94999499949995 L 88.65811614417738,499.8999899989999 L 88.66737064481875,499.8999899989999 z" /><path fill-rule="evenodd" fill="#D2EBD9" stroke="#A6A6A6" stroke-width="0.25" opacity="1" d="M 84.93780688635282,483.3483348334833 L 84.89153438314605,483.8483848384838 L 84.91004338442876,483.8483848384838 L 84.85451638058063,483.99839983998396 L 84.86377088122198,483.99839983998396 L 84.6971898696776,484.1484148414841 L 84.80824387737385,484.29842984298426 L 84.43806385171968,483.9483948394839 L 84.50284535620915,483.7483748374837 L 84.36402784658884,483.69836983698366 L 84.52135435749186,483.39833983398336 L 84.37328234723019,483.2483248324832 L 83.3090147734744,483.19831983198316 L 83.21646976706086,483.49834983498346 L 83.07765225744055,483.2483248324832 L 83.72546730233536,482.6482648264826 L 84.02161132285872,482.89828982898285 L 84.17893783376174,482.4482448244824 L 84.66017186711218,482.29822982298225 L 84.91004338442876,482.7482748274827 L 84.91004338442876,483.3483348334833 L 84.93780688635282,483.3483348334833 z" /><path fill-rule="evenodd" fill="#D2EBD9" stroke="#A6A6A6" stroke-width="0.25" opacity="1" d="M 83.31826927411576,484.3484348434843 L 83.17019726385409,484.3484348434843 L 83.06839775679919,484.3484348434843 L 82.81852623948261,484.4484448444844 L 83.07765225744055,484.09840984098406 L 83.02212525359242,483.89838983898386 L 83.20721526641951,483.6483648364836 L 83.41081428052931,483.8483848384838 L 83.42932328181202,483.8483848384838 L 83.41081428052931,483.8483848384838 L 83.31826927411576,483.99839983998396 L 83.3090147734744,483.99839983998396 L 83.37379627796389,484.1484148414841 L 83.1054157593646,484.29842984298426 L 83.33677827539847,484.3484348434843 L 83.31826927411576,484.3484348434843 z" /><path fill-rule="evenodd" fill="#D2EBD9" stroke="#A6A6A6" stroke-width="0.25" opacity="1" d="M 82.70747223178635,484.79847984798477 L 82.9018167452548,484.7484748474847 L 82.62418172601417,484.59845984598456 L 82.92958024717886,484.49844984498446 L 83.01287075295106,484.8484848484848 L 82.70747223178635,484.79847984798477 z" /><path fill-rule="evenodd" fill="#D2EBD9" stroke="#A6A6A6" stroke-width="0.25" opacity="1" d="M 91.07354081157095,485.048504850485 L 90.84217829553708,484.8484848484848 L 90.80516029297166,484.8484848484848 L 90.75888778976488,484.9484948494849 L 90.80516029297166,484.79847984798477 L 91.50850234171462,484.69846984698466 L 91.50850234171462,484.8484848484848 L 91.11981331477772,485.048504850485 L 91.07354081157095,485.048504850485 z" /><path fill-rule="evenodd" fill="#D2EBD9" stroke="#A6A6A6" stroke-width="0.25" opacity="1" d="M 83.09616125872326,485.9485948594859 L 83.03137975423377,486.0986098609861 L 82.10592969009831,485.3485348534853 L 81.81904017021631,484.8484848484848 L 81.8838216747058,484.29842984298426 L 82.34654670677352,484.3484348434843 L 82.42983721254572,484.89848984898487 L 83.09616125872326,485.9485948594859 z" /><path fill-rule="evenodd" fill="#D2EBD9" stroke="#A6A6A6" stroke-width="0.25" opacity="1" d="M 89.0838231736797,485.048504850485 L 89.00978716854887,485.4485448544854 L 88.58408013904655,485.49854985498547 L 88.96351466534209,485.7485748574857 L 89.0005326679075,486.1486148614861 L 88.80618815443906,486.4486448644864 L 88.11210060633746,486.7486748674867 L 87.63086657298702,486.4486448644864 L 87.3069590505396,485.59855985598557 L 87.20515954348471,484.79847984798477 L 87.33472255246367,484.4484448444844 L 86.77945251398239,483.49834983498346 L 86.80721601590646,483.69836983698366 L 86.64988950500343,483.49834983498346 L 86.52032649602447,483.59835983598356 L 86.27045497870789,482.89828982898285 L 86.29821848063196,482.4482448244824 L 87.44577656015993,482.5482548254825 L 87.473540062084,482.7482748274827 L 89.05605967175563,483.49834983498346 L 88.97276916598344,483.79837983798376 L 89.13935017752783,483.79837983798376 L 89.2041316820173,484.09840984098406 L 89.11158667560376,485.048504850485 L 89.0838231736797,485.048504850485 z" /><path fill-rule="evenodd" fill="#D2EBD9" stroke="#A6A6A6" stroke-width="0.25" opacity="1" d="M 2.470951671241687,490.34903490349035 L 2.4061701667522044,491.1491149114911 L 2.045244641739374,490.6490649064906 L 2.2766071577732396,490.6490649064906 L 2.3598976635454316,490.2990299029903 L 2.470951671241687,490.34903490349035 z" /><path fill-rule="evenodd" fill="#D2EBD9" stroke="#A6A6A6" stroke-width="0.25" opacity="1" d="M 73.34191758273546,491.59915991599155 L 73.28639057888734,491.69916991699165 L 73.24011807568057,491.69916991699165 L 73.25862707696328,491.49914991499145 L 73.34191758273546,491.59915991599155 z" /><path fill-rule="evenodd" fill="#D2EBD9" stroke="#A6A6A6" stroke-width="0.25" opacity="1" d="M 81.01389861441847,491.79917991799175 L 80.79179059902594,491.79917991799175 L 80.94911710992898,491.59915991599155 L 80.74551809581918,491.6491649164916 L 80.68073659132969,491.49914991499145 L 81.07868011890794,491.09910991099105 L 81.17122512532148,491.69916991699165 L 81.01389861441847,491.79917991799175 z" /><path fill-rule="evenodd" fill="#D2EBD9" stroke="#A6A6A6" stroke-width="0.25" opacity="1" d="M 76.88639132837429,491.8491849184918 L 76.89564582901565,492.049204920492 L 76.68279231426449,491.99919991999195 L 76.7198103168299,491.49914991499145 L 76.904900329657,491.6491649164916 L 76.88639132837429,491.8491849184918 z" /><path fill-rule="evenodd" fill="#D2EBD9" stroke="#A6A6A6" stroke-width="0.25" opacity="1" d="M 75.96094126423883,492.09920992099205 L 75.77585125141174,492.049204920492 L 75.75734225012903,491.9491949194919 L 75.97945026552154,491.99919991999195 L 75.96094126423883,492.09920992099205 z" /><path fill-rule="evenodd" fill="#D2EBD9" stroke="#A6A6A6" stroke-width="0.25" opacity="1" d="M 75.7018152462809,492.2492249224922 L 75.46119822960569,492.29922992299225 L 75.67405174435683,492.3492349234923 L 75.66479724371548,492.49924992499245 L 75.313126219344,492.3492349234923 L 75.51672523345381,492.6492649264926 L 75.30387171870265,492.6492649264926 L 75.21132671228911,492.3492349234923 L 75.1928177110064,492.59925992599256 L 74.97070969561388,492.39923992399235 L 75.06325470202744,492.6492649264926 L 74.92443719240711,492.7492749274927 L 74.75785618086273,492.59925992599256 L 74.89667369048304,492.4492449244924 L 74.67456567509053,492.59925992599256 L 74.42469415777396,492.5492549254925 L 74.48022116162208,492.6492649264926 L 73.94346012442352,492.4492449244924 L 74.75785618086273,492.19921992199215 L 74.7023291770146,492.09920992099205 L 74.92443719240711,492.1492149214921 L 74.8874191898417,492.049204920492 L 75.59076123858465,492.049204920492 L 75.7018152462809,492.2492249224922 z" /><path fill-rule="evenodd" fill="#D2EBD9" stroke="#A6A6A6" stroke-width="0.25" opacity="1" d="M 80.99538961313574,493.29932993299326 L 81.32855163622452,493.49934993499346 L 81.21749762852826,493.69936993699366 L 81.10644362083201,493.49934993499346 L 80.95837161057032,493.6493649364936 L 80.56968258363344,493.3493349334933 L 80.99538961313574,493.29932993299326 z" /><path fill-rule="evenodd" fill="#D2EBD9" stroke="#A6A6A6" stroke-width="0.25" opacity="1" d="M 6.829821473319719,493.69936993699366 L 7.005656985505457,493.69936993699366 L 6.9778934835813935,493.89938993899386 L 6.903857478450556,493.89938993899386 L 6.829821473319719,493.69936993699366 z" /><path fill-rule="evenodd" fill="#D2EBD9" stroke="#A6A6A6" stroke-width="0.25" opacity="1" d="M 80.84731760287407,493.99939993999396 L 81.06942561826659,493.99939993999396 L 81.04166211634252,494.29942994299427 L 80.7825360983846,494.19941994199417 L 80.84731760287407,493.99939993999396 z" /><path fill-rule="evenodd" fill="#D2EBD9" stroke="#A6A6A6" stroke-width="0.25" opacity="1" d="M 81.52289614969297,494.39943994399437 L 81.74500416508548,494.29942994299427 L 81.75425866572682,494.3494349434943 L 81.56916865289973,494.5494549454945 L 81.52289614969297,494.39943994399437 z" /><path fill-rule="evenodd" fill="#D2EBD9" stroke="#A6A6A6" stroke-width="0.25" opacity="1" d="M 84.37328234723019,494.49944994499447 L 84.289991841458,494.69946994699467 L 84.19744683504446,494.7494749474947 L 84.28073734081664,494.29942994299427 L 84.37328234723019,494.49944994499447 z" /><path fill-rule="evenodd" fill="#D2EBD9" stroke="#A6A6A6" stroke-width="0.25" opacity="1" d="M 81.8838216747058,491.99919991999195 L 82.45760071446978,492.049204920492 L 82.71672673242772,492.6492649264926 L 82.68896323050365,493.49934993499346 L 82.15220219330507,494.99949994999497 L 81.68947716123735,494.7494749474947 L 81.83754917149902,494.49944994499447 L 81.8005311689336,494.049404940494 L 82.20772919715321,493.99939993999396 L 82.36505570805623,493.79937993799376 L 81.99487568240205,493.7493749374937 L 81.93009417791257,493.59935993599356 L 82.3095287042081,493.4493449344934 L 82.30027420356676,493.19931993199316 L 82.15220219330507,493.39933993399336 L 81.81904017021631,493.19931993199316 L 81.53215065033432,493.29932993299326 L 81.44886014456213,493.19931993199316 L 81.6987316618787,493.049304930493 L 81.33780613686586,493.09930993099306 L 81.36556963878994,492.8492849284928 L 81.17122512532148,493.049304930493 L 81.15271612403878,492.79927992799276 L 80.93060810864627,492.89928992899286 L 80.86582660415678,492.79927992799276 L 80.86582660415678,492.59925992599256 L 81.17122512532148,492.39923992399235 L 81.35631513814857,492.49924992499245 L 81.25451563109368,492.6492649264926 L 81.55065965161702,492.59925992599256 L 81.65245915867193,492.8492849284928 L 81.7820221676509,492.59925992599256 L 82.05040268625018,492.6492649264926 L 81.72649516380277,492.39923992399235 L 82.22623819843592,492.29922992299225 L 81.6987316618787,492.19921992199215 L 81.53215065033432,492.29922992299225 L 81.43960564392077,492.1492149214921 L 81.63395015738922,491.9491949194919 L 81.8838216747058,491.99919991999195 z" /><path fill-rule="evenodd" fill="#D2EBD9" stroke="#A6A6A6" stroke-width="0.25" opacity="1" d="M 82.85554424204803,496.0996099609961 L 82.80927173884126,496.44964496449643 L 82.48536421639385,495.9495949594959 L 82.53163671960061,495.6995699569957 L 82.63343622665552,495.6995699569957 L 82.85554424204803,496.0996099609961 z" /><path fill-rule="evenodd" fill="#D2EBD9" stroke="#A6A6A6" stroke-width="0.25" opacity="1" d="M 84.00310232157601,497.64976497649764 L 84.09564732798955,497.74977497749774 L 83.95682981836923,497.94979497949794 L 83.73472180297672,497.6997699769977 L 83.91981181580381,497.5997599759976 L 83.92906631644517,497.5997599759976 L 83.94757531772788,497.5997599759976 L 83.96608431901059,497.5997599759976 L 83.99384782093465,497.64976497649764 L 84.00310232157601,497.64976497649764 z" /><path fill-rule="evenodd" fill="#D2EBD9" stroke="#A6A6A6" stroke-width="0.25" opacity="1" d="M 84.30850084274071,497.999799979998 L 84.17893783376174,498.04980498049804 L 84.15117433183768,497.74977497749774 L 84.23446483760988,497.7997799779978 L 84.26222833953393,497.94979497949794 L 84.28073734081664,497.999799979998 L 84.29924634209935,497.999799979998 L 84.30850084274071,497.999799979998 z" /><path fill-rule="evenodd" fill="#D2EBD9" stroke="#A6A6A6" stroke-width="0.25" opacity="1" d="M 85.46531342291004,497.84978497849784 L 85.5763674306063,497.999799979998 L 85.34500491457243,498.1998199819982 L 85.22469640623481,497.999799979998 L 85.46531342291004,497.84978497849784 z" /><path fill-rule="evenodd" fill="#D2EBD9" stroke="#A6A6A6" stroke-width="0.25" opacity="1" d="M 85.78922094535746,498.54985498549854 L 85.73369394150932,498.3998399839984 L 86.09461946652215,498.44984498449844 L 85.96505645754318,498.5998599859986 L 85.7984754459988,498.54985498549854 L 85.78922094535746,498.54985498549854 z" /><path fill-rule="evenodd" fill="#D2EBD9" stroke="#A6A6A6" stroke-width="0.25" opacity="1" d="M 84.53060885813322,498.84988498849884 L 84.78973487609115,498.7998799879988 L 84.87302538186334,498.84988498849884 L 84.61389936390542,498.94989498949894 L 84.53060885813322,498.84988498849884 z" /><path fill-rule="evenodd" fill="#D2EBD9" stroke="#A6A6A6" stroke-width="0.25" opacity="1" d="M 85.0858788966145,499.0999099909991 L 85.30798691200701,499.0999099909991 L 85.42829542034463,499.24992499249925 L 85.22469640623481,499.24992499249925 L 85.0858788966145,499.0999099909991 L 85.07662439597314,499.0999099909991 L 85.0858788966145,499.0999099909991 z" /><path fill-rule="evenodd" fill="#D2EBD9" stroke="#A6A6A6" stroke-width="0.25" opacity="1" d="M 86.09461946652215,499.6999699969997 L 86.02058346139131,499.5999599959996 L 86.20567347421841,499.6999699969997 L 86.12238296844622,499.6999699969997 L 86.09461946652215,499.6999699969997 z" /><path fill-rule="evenodd" fill="#D2EBD9" stroke="#A6A6A6" stroke-width="0.25" opacity="1" d="M 88.80618815443906,499.8999899989999 L 88.82469715572176,499.8999899989999 L 88.80618815443906,499.8999899989999 L 88.79693365379771,499.8999899989999 L 88.78767915315635,499.8999899989999 L 88.778424652515,499.8999899989999 L 88.76917015187364,499.8999899989999 L 88.75991565123229,499.8999899989999 L 88.75066115059093,499.8999899989999 L 88.74140664994958,499.8999899989999 L 88.73215214930822,499.8999899989999 L 88.72289764866687,499.8999899989999 L 88.75066115059093,499.84998499849985 L 88.80618815443906,499.8999899989999 z" /><path fill-rule="evenodd" fill="#D2EBD9" stroke="#A6A6A6" stroke-width="0.25" opacity="1" d="M 88.42675362814352,499.94999499949995 L 88.58408013904655,499.94999499949995 L 88.64886164353604,499.8999899989999 L 88.56557113776384,500.0 L 88.42675362814352,499.94999499949995 z" /><path fill-rule="evenodd" fill="#D2EBD9" stroke="#A6A6A6" stroke-width="0.25" opacity="1" d="M 58.51620755528535,478.64786478647864 L 58.13677302898981,478.84788478847884 L 58.28484503925148,478.34783478347833 L 58.50695305464399,478.1978197819782 L 58.719806569395146,478.44784478447843 L 58.51620755528535,478.64786478647864 z" /><path fill-rule="evenodd" fill="#D2EBD9" stroke="#A6A6A6" stroke-width="0.25" opacity="1" d="M 58.969678086711724,481.19811981198114 L 58.951169085429015,481.4481448144814 L 58.71055206875379,481.59815981598155 L 58.12751852834845,481.69816981698165 L 58.16453653091387,481.39813981398135 L 58.969678086711724,481.19811981198114 z" /><path fill-rule="evenodd" fill="#D2EBD9" stroke="#A6A6A6" stroke-width="0.25" opacity="1" d="M 49.0395988985382,483.8483848384838 L 0.0,483.8483848384838 L 92.4894794096982,483.79837983798376 L 91.99899087570641,484.048404840484 L 92.04526337891318,484.09840984098406 L 92.05451787955454,484.1484148414841 L 92.01749987698912,484.29842984298426 L 92.12855388468537,484.29842984298426 L 92.23035339174028,484.1484148414841 L 92.24886239302299,484.09840984098406 L 92.24886239302299,484.048404840484 L 92.48022490905684,483.99839983998396 L 92.40618890392601,484.09840984098406 L 92.32289839815382,484.1484148414841 L 92.34140739943653,484.29842984298426 L 92.4709704084155,484.09840984098406 L 0.018509001282709266,484.048404840484 L 0.055527003848127796,483.99839983998396 L 0.10179950705490097,483.89838983898386 L 0.018509001282709266,483.9483948394839 L 0.018509001282709266,483.99839983998396 L 48.7342003773735,483.99839983998396 L 48.74345487801485,483.99839983998396 L 48.919290390200594,483.99839983998396 L 48.9377993914833,483.99839983998396 L 58.94191458478766,483.99839983998396 L 59.14551359889746,483.99839983998396 L 61.94962729322791,483.99839983998396 L 62.02366329835875,483.99839983998396 L 83.3090147734744,483.99839983998396 L 83.31826927411576,483.99839983998396 L 84.85451638058063,483.99839983998396 L 84.86377088122198,483.99839983998396 L 92.51724291162226,483.99839983998396 L 92.52649741226362,483.8483848384838 L 84.91004338442876,483.8483848384838 L 84.89153438314605,483.8483848384838 L 83.42932328181202,483.8483848384838 L 83.41081428052931,483.8483848384838 L 62.421606825937,483.8483848384838 L 62.3198073188821,483.8483848384838 L 62.15322630733772,483.8483848384838 L 61.977390795151976,483.8483848384838 L 49.05810789982091,483.8483848384838 L 49.0395988985382,483.8483848384838 z" /><path fill-rule="evenodd" fill="#D2EBD9" stroke="#A6A6A6" stroke-width="0.25" opacity="1" d="M 59.14551359889746,483.99839983998396 L 59.36762161428997,484.048404840484 L 59.3213491110832,484.39843984398436 L 58.51620755528535,485.5485548554855 L 58.28484503925148,485.59855985598557 L 58.0349735219349,485.048504850485 L 58.02571902129355,485.048504850485 L 58.22931803540335,484.49844984498446 L 58.94191458478766,483.99839983998396 L 59.14551359889746,483.99839983998396 z" /><path fill-rule="evenodd" fill="#D2EBD9" stroke="#A6A6A6" stroke-width="0.25" opacity="1" d="M 51.22366104989789,487.14871487148713 L 50.788699519754225,487.1987198719872 L 50.55733700372036,487.4987498749875 L 50.42777399474139,487.04870487048703 L 50.61286400756849,486.8986898689869 L 50.54808250307901,486.6486648664866 L 50.72391801526474,486.8986898689869 L 51.12186154284299,486.8986898689869 L 51.22366104989789,487.14871487148713 z" /><path fill-rule="evenodd" fill="#D2EBD9" stroke="#A6A6A6" stroke-width="0.25" opacity="1" d="M 67.56710918253017,490.2990299029903 L 67.52083667932341,490.3990399039904 L 67.29872866393089,490.4990499049905 L 67.46530967547528,490.14901490149015 L 67.56710918253017,490.2990299029903 z" /><path fill-rule="evenodd" fill="#D2EBD9" stroke="#A6A6A6" stroke-width="0.25" opacity="1" d="M 69.44577281272517,490.6490649064906 L 69.6030993236282,490.69906990699064 L 69.66788082811767,490.9490949094909 L 69.42726381144246,490.9490949094909 L 69.44577281272517,490.6490649064906 z" /><path fill-rule="evenodd" fill="#D2EBD9" stroke="#A6A6A6" stroke-width="0.25" opacity="1" d="M 69.33471880502891,490.8490849084908 L 69.2144102966913,490.89908990899085 L 69.28844630182213,490.99909990999095 L 68.87199377296118,491.049104910491 L 68.58510425307918,491.049104910491 L 68.53883174987241,490.89908990899085 L 68.8072122684717,490.8490849084908 L 68.6221222556446,490.54905490549055 L 68.82572126975441,490.34903490349035 L 69.15888329284317,490.44904490449045 L 69.33471880502891,490.8490849084908 z" /><path fill-rule="evenodd" fill="#D2EBD9" stroke="#A6A6A6" stroke-width="0.25" opacity="1" d="M 67.48381867675799,491.19911991199115 L 68.05759771652197,490.5990599059906 L 68.42777774217616,490.54905490549055 L 68.24268772934907,490.99909990999095 L 68.12237922101146,490.8490849084908 L 67.89101670497759,490.9490949094909 L 68.06685221716333,491.09910991099105 L 67.83548970112946,491.39913991399135 L 67.53009117996476,491.39913991399135 L 67.48381867675799,491.19911991199115 z" /><path fill-rule="evenodd" fill="#D2EBD9" stroke="#A6A6A6" stroke-width="0.25" opacity="1" d="M 14.594347511416256,493.9493949394939 L 14.446275501154583,494.049404940494 L 14.372239496023745,493.8493849384938 L 14.52031150628542,493.7493749374937 L 14.594347511416256,493.9493949394939 z" /><path fill-rule="evenodd" fill="#D2EBD9" stroke="#A6A6A6" stroke-width="0.25" opacity="1" d="M 8.06992455926124,494.049404940494 L 7.9496160509236296,494.049404940494 L 8.005143054771757,493.79937993799376 L 8.08843356054395,493.99939993999396 L 8.06992455926124,494.049404940494 z" /><path fill-rule="evenodd" fill="#D2EBD9" stroke="#A6A6A6" stroke-width="0.25" opacity="1" d="M 33.5568193255519,497.24972497249723 L 33.49203782106242,497.04970497049703 L 33.67712783388951,497.04970497049703 L 33.741909338378996,497.14971497149713 L 33.5568193255519,497.24972497249723 z" /><path fill-rule="evenodd" fill="#D2EBD9" stroke="#A6A6A6" stroke-width="0.25" opacity="1" d="M 76.96042733350512,494.9494949494949 L 76.9881908354292,494.99949994999497 L 76.97893633478783,495.049504950495 L 76.96042733350512,495.049504950495 L 76.96042733350512,494.9494949494949 z" /></g><g><path fill-rule="evenodd" fill="#D2EBD9" stroke="#A6A6A6" stroke-width="0.25" opacity="1" d="M 49.77070444920522,489.94899489948995 L 49.761449948563865,489.8989898989899 L 49.78921345048793,489.8989898989899 L 49.78921345048793,489.94899489948995 L 49.77070444920522,489.94899489948995 z" /><path fill-rule="evenodd" fill="#D2EBD9" stroke="#A6A6A6" stroke-width="0.25" opacity="1" d="M 49.81697695241199,490.0990099009901 L 49.87250395626012,489.94899489948995 L 49.946539961390954,490.24902490249025 L 49.87250395626012,490.1990199019902 L 49.81697695241199,490.0990099009901 z" /><path fill-rule="evenodd" fill="#D2EBD9" stroke="#A6A6A6" stroke-width="0.25" opacity="1" d="M 49.69666844407438,493.79937993799376 L 49.742940947281156,493.79937993799376 L 49.75219544792251,493.8493849384938 L 49.69666844407438,493.8493849384938 L 49.69666844407438,493.79937993799376 z" /><path fill-rule="evenodd" fill="#D2EBD9" stroke="#A6A6A6" stroke-width="0.25" opacity="1" d="M 50.08535747101128,495.999599959996 L 50.0390849678045,496.049604960496 L 50.0390849678045,495.8495849584958 L 50.09461197165263,495.8495849584958 L 50.08535747101128,495.999599959996 z" /><path fill-rule="evenodd" fill="#D2EBD9" stroke="#A6A6A6" stroke-width="0.25" opacity="1" d="M 49.68741394343303,496.2996299629963 L 49.678159442791674,496.3996399639964 L 49.631886939584895,496.3996399639964 L 49.65965044150896,496.2996299629963 L 49.68741394343303,496.2996299629963 z" /><path fill-rule="evenodd" fill="#D2EBD9" stroke="#A6A6A6" stroke-width="0.25" opacity="1" d="M 91.8786823673688,484.3484348434843 L 91.9804818744237,484.2484248424842 L 91.97122737378234,484.3484348434843 L 92.04526337891318,484.3484348434843 L 91.95271837249963,484.49844984498446 L 91.90644586929287,484.3484348434843 L 91.8786823673688,484.3484348434843 z" /><path fill-rule="evenodd" fill="#D2EBD9" stroke="#A6A6A6" stroke-width="0.25" opacity="1" d="M 82.84628974140668,484.99849984998497 L 82.84628974140668,485.048504850485 L 82.70747223178635,484.9484948494849 L 82.87405324333074,484.99849984998497 L 82.84628974140668,484.99849984998497 z" /><path fill-rule="evenodd" fill="#D2EBD9" stroke="#A6A6A6" stroke-width="0.25" opacity="1" d="M 80.81955410095001,485.49854985498547 L 80.8010450996673,485.39853985398537 L 80.83806310223272,485.3485348534853 L 80.86582660415678,485.5485548554855 L 80.81955410095001,485.49854985498547 z" /><path fill-rule="evenodd" fill="#D2EBD9" stroke="#A6A6A6" stroke-width="0.25" opacity="1" d="M 87.58459406978025,486.6486648664866 L 87.5938485704216,486.6486648664866 L 87.71415707875921,486.7986798679868 L 87.56608506849754,486.6986698669867 L 87.58459406978025,486.6486648664866 z" /><path fill-rule="evenodd" fill="#D2EBD9" stroke="#A6A6A6" stroke-width="0.25" opacity="1" d="M 81.27302463237639,491.3491349134913 L 81.27302463237639,491.29912991299125 L 81.28227913301774,491.29912991299125 L 81.2915336336591,491.3491349134913 L 81.27302463237639,491.3491349134913 z" /><path fill-rule="evenodd" fill="#D2EBD9" stroke="#A6A6A6" stroke-width="0.25" opacity="1" d="M 81.79127666829224,491.49914991499145 L 81.7172406631614,491.49914991499145 L 81.72649516380277,491.4491449144914 L 81.7820221676509,491.4491449144914 L 81.79127666829224,491.49914991499145 z" /><path fill-rule="evenodd" fill="#D2EBD9" stroke="#A6A6A6" stroke-width="0.25" opacity="1" d="M 81.25451563109368,491.5491549154915 L 81.2082431278869,491.29912991299125 L 81.34706063750723,491.5491549154915 L 81.30078813430045,491.59915991599155 L 81.25451563109368,491.5491549154915 z" /><path fill-rule="evenodd" fill="#D2EBD9" stroke="#A6A6A6" stroke-width="0.25" opacity="1" d="M 77.14551734633223,491.7491749174917 L 77.06222684056003,491.59915991599155 L 77.22880785210441,491.59915991599155 L 77.28433485595254,491.7491749174917 L 77.14551734633223,491.7491749174917 z" /><path fill-rule="evenodd" fill="#D2EBD9" stroke="#A6A6A6" stroke-width="0.25" opacity="1" d="M 76.14603127706592,491.7491749174917 L 76.14603127706592,491.79917991799175 L 76.09050427321779,491.8491849184918 L 76.07199527193508,491.7491749174917 L 76.14603127706592,491.7491749174917 z" /><path fill-rule="evenodd" fill="#D2EBD9" stroke="#A6A6A6" stroke-width="0.25" opacity="1" d="M 75.02623669946202,491.9491949194919 L 75.10027270459285,491.89918991899185 L 75.11878170587556,491.9491949194919 L 75.04474570074473,491.9491949194919 L 75.02623669946202,491.9491949194919 z" /><path fill-rule="evenodd" fill="#D2EBD9" stroke="#A6A6A6" stroke-width="0.25" opacity="1" d="M 76.24783078412082,492.049204920492 L 76.24783078412082,491.99919991999195 L 76.31261228861031,491.99919991999195 L 76.31261228861031,492.049204920492 L 76.24783078412082,492.049204920492 z" /><path fill-rule="evenodd" fill="#D2EBD9" stroke="#A6A6A6" stroke-width="0.25" opacity="1" d="M 84.62315386454677,492.049204920492 L 84.57688136133999,492.049204920492 L 84.57688136133999,491.99919991999195 L 84.58613586198135,491.99919991999195 L 84.62315386454677,492.049204920492 z" /><path fill-rule="evenodd" fill="#D2EBD9" stroke="#A6A6A6" stroke-width="0.25" opacity="1" d="M 3.553728246280179,492.049204920492 L 3.4889467417906967,492.1492149214921 L 3.5167102437147606,491.89918991899185 L 3.5722372475628883,491.9491949194919 L 3.553728246280179,492.049204920492 z" /><path fill-rule="evenodd" fill="#D2EBD9" stroke="#A6A6A6" stroke-width="0.25" opacity="1" d="M 82.11518419073965,492.3492349234923 L 82.09667518945695,492.3492349234923 L 82.0874206888156,492.29922992299225 L 82.15220219330507,492.3492349234923 L 82.11518419073965,492.3492349234923 z" /><path fill-rule="evenodd" fill="#D2EBD9" stroke="#A6A6A6" stroke-width="0.25" opacity="1" d="M 84.76197137416709,492.3492349234923 L 84.7804803754498,492.29922992299225 L 84.78973487609115,492.29922992299225 L 84.7804803754498,492.39923992399235 L 84.76197137416709,492.3492349234923 z" /><path fill-rule="evenodd" fill="#D2EBD9" stroke="#A6A6A6" stroke-width="0.25" opacity="1" d="M 4.460669309132933,492.49924992499245 L 4.377378803360742,492.49924992499245 L 4.432905807208869,492.3492349234923 L 4.497687311698352,492.39923992399235 L 4.460669309132933,492.49924992499245 z" /><path fill-rule="evenodd" fill="#D2EBD9" stroke="#A6A6A6" stroke-width="0.25" opacity="1" d="M 84.68793536903625,493.29932993299326 L 84.67868086839489,493.39933993399336 L 84.59539036262271,493.39933993399336 L 84.59539036262271,493.29932993299326 L 84.68793536903625,493.29932993299326 z" /><path fill-rule="evenodd" fill="#D2EBD9" stroke="#A6A6A6" stroke-width="0.25" opacity="1" d="M 84.71569887096031,493.6493649364936 L 84.57688136133999,493.69936993699366 L 84.59539036262271,493.5493549354935 L 84.70644437031896,493.59935993599356 L 84.71569887096031,493.6493649364936 z" /><path fill-rule="evenodd" fill="#D2EBD9" stroke="#A6A6A6" stroke-width="0.25" opacity="1" d="M 81.81904017021631,493.79937993799376 L 81.86531267342309,493.7493749374937 L 81.92083967727122,493.89938993899386 L 81.79127666829224,493.89938993899386 L 81.81904017021631,493.79937993799376 z" /><path fill-rule="evenodd" fill="#D2EBD9" stroke="#A6A6A6" stroke-width="0.25" opacity="1" d="M 82.05965718689153,493.89938993899386 L 82.0874206888156,493.8493849384938 L 82.09667518945695,493.89938993899386 L 82.0874206888156,493.89938993899386 L 82.07816618817424,493.89938993899386 L 82.06891168753289,493.89938993899386 L 82.05965718689153,493.89938993899386 z" /><path fill-rule="evenodd" fill="#D2EBD9" stroke="#A6A6A6" stroke-width="0.25" opacity="1" d="M 84.53986335877457,494.1494149414941 L 84.53986335877457,494.19941994199417 L 84.46582735364373,494.19941994199417 L 84.48433635492644,494.09940994099406 L 84.53986335877457,494.1494149414941 z" /><path fill-rule="evenodd" fill="#D2EBD9" stroke="#A6A6A6" stroke-width="0.25" opacity="1" d="M 84.59539036262271,494.99949994999497 L 84.66017186711218,494.99949994999497 L 84.64166286582947,495.049504950495 L 84.56762686069864,495.049504950495 L 84.59539036262271,494.99949994999497 z" /><path fill-rule="evenodd" fill="#D2EBD9" stroke="#A6A6A6" stroke-width="0.25" opacity="1" d="M 82.99436175166835,495.4495449544954 L 82.97585275038564,495.4495449544954 L 82.96659824974428,495.4495449544954 L 82.95734374910293,495.4495449544954 L 82.96659824974428,495.3995399539954 L 82.97585275038564,495.3995399539954 L 82.98510725102699,495.4495449544954 L 82.99436175166835,495.4495449544954 z" /><path fill-rule="evenodd" fill="#D2EBD9" stroke="#A6A6A6" stroke-width="0.25" opacity="1" d="M 83.05914325615784,495.6495649564956 L 83.03137975423377,495.5995599559956 L 83.05914325615784,495.5995599559956 L 83.06839775679919,495.6495649564956 L 83.05914325615784,495.6495649564956 z" /><path fill-rule="evenodd" fill="#D2EBD9" stroke="#A6A6A6" stroke-width="0.25" opacity="1" d="M 83.00361625230971,495.6495649564956 L 82.96659824974428,495.6995699569957 L 82.95734374910293,495.5995599559956 L 82.98510725102699,495.5995599559956 L 83.00361625230971,495.6495649564956 z" /><path fill-rule="evenodd" fill="#D2EBD9" stroke="#A6A6A6" stroke-width="0.25" opacity="1" d="M 83.54963179014963,495.7495749574957 L 83.65143129720452,495.7995799579958 L 83.60515879399776,495.7995799579958 L 83.56814079143234,495.7995799579958 L 83.55888629079098,495.7995799579958 L 83.54963179014963,495.7495749574957 z" /><path fill-rule="evenodd" fill="#D2EBD9" stroke="#A6A6A6" stroke-width="0.25" opacity="1" d="M 82.98510725102699,495.7995799579958 L 82.83703524076532,495.6995699569957 L 82.99436175166835,495.7995799579958 L 82.98510725102699,495.7995799579958 z" /><path fill-rule="evenodd" fill="#D2EBD9" stroke="#A6A6A6" stroke-width="0.25" opacity="1" d="M 82.99436175166835,495.7995799579958 L 82.98510725102699,495.7995799579958 L 82.99436175166835,495.7995799579958 L 82.99436175166835,495.7995799579958 z" /><path fill-rule="evenodd" fill="#D2EBD9" stroke="#A6A6A6" stroke-width="0.25" opacity="1" d="M 82.83703524076532,495.999599959996 L 82.84628974140668,495.999599959996 L 82.83703524076532,495.999599959996 L 82.83703524076532,495.999599959996 z" /><path fill-rule="evenodd" fill="#D2EBD9" stroke="#A6A6A6" stroke-width="0.25" opacity="1" d="M 82.84628974140668,495.999599959996 L 82.87405324333074,496.0996099609961 L 82.85554424204803,496.0996099609961 L 82.83703524076532,495.999599959996 L 82.84628974140668,495.999599959996 z" /><path fill-rule="evenodd" fill="#D2EBD9" stroke="#A6A6A6" stroke-width="0.25" opacity="1" d="M 82.87405324333074,496.0996099609961 L 82.8833077439721,496.1996199619962 L 82.85554424204803,496.0996099609961 L 82.87405324333074,496.0996099609961 z" /><path fill-rule="evenodd" fill="#D2EBD9" stroke="#A6A6A6" stroke-width="0.25" opacity="1" d="M 82.92958024717886,496.2996299629963 L 82.96659824974428,496.3496349634963 L 82.9018167452548,496.3996399639964 L 82.9018167452548,496.2496249624962 L 82.92958024717886,496.2996299629963 z" /><path fill-rule="evenodd" fill="#D2EBD9" stroke="#A6A6A6" stroke-width="0.25" opacity="1" d="M 82.98510725102699,496.5996599659966 L 83.01287075295106,496.5996599659966 L 83.02212525359242,496.64966496649663 L 82.98510725102699,496.64966496649663 L 82.98510725102699,496.5996599659966 z" /><path fill-rule="evenodd" fill="#D2EBD9" stroke="#A6A6A6" stroke-width="0.25" opacity="1" d="M 83.00361625230971,496.6996699669967 L 83.03137975423377,496.64966496649663 L 83.05914325615784,496.6996699669967 L 83.04988875551648,496.6996699669967 L 83.02212525359242,496.6996699669967 L 83.01287075295106,496.6996699669967 L 83.00361625230971,496.6996699669967 L 82.99436175166835,496.6996699669967 L 83.00361625230971,496.6996699669967 z" /><path fill-rule="evenodd" fill="#D2EBD9" stroke="#A6A6A6" stroke-width="0.25" opacity="1" d="M 83.0869067580819,496.74967496749673 L 83.04988875551648,496.64966496649663 L 83.05914325615784,496.64966496649663 L 83.06839775679919,496.64966496649663 L 83.0869067580819,496.64966496649663 L 83.13317926128867,496.6996699669967 L 83.14243376193002,496.7996799679968 L 83.13317926128867,496.7996799679968 L 83.12392476064731,496.7996799679968 L 83.09616125872326,496.7996799679968 L 83.0869067580819,496.7996799679968 L 83.07765225744055,496.7996799679968 L 83.0869067580819,496.74967496749673 z" /><path fill-rule="evenodd" fill="#D2EBD9" stroke="#A6A6A6" stroke-width="0.25" opacity="1" d="M 83.35528727668118,496.8996899689969 L 83.33677827539847,496.8996899689969 L 83.33677827539847,496.84968496849683 L 83.35528727668118,496.84968496849683 L 83.35528727668118,496.8996899689969 z" /><path fill-rule="evenodd" fill="#D2EBD9" stroke="#A6A6A6" stroke-width="0.25" opacity="1" d="M 83.3090147734744,496.94969496949693 L 83.2905057721917,496.94969496949693 L 83.3090147734744,496.94969496949693 L 83.3090147734744,496.94969496949693 z" /><path fill-rule="evenodd" fill="#D2EBD9" stroke="#A6A6A6" stroke-width="0.25" opacity="1" d="M 83.48485028566014,496.8996899689969 L 83.4755957850188,496.8996899689969 L 83.48485028566014,496.8996899689969 L 83.48485028566014,496.8996899689969 z" /><path fill-rule="evenodd" fill="#D2EBD9" stroke="#A6A6A6" stroke-width="0.25" opacity="1" d="M 83.35528727668118,497.14971497149713 L 83.2905057721917,496.94969496949693 L 83.3090147734744,496.94969496949693 L 83.38305077860524,497.14971497149713 L 83.35528727668118,497.14971497149713 z" /><path fill-rule="evenodd" fill="#D2EBD9" stroke="#A6A6A6" stroke-width="0.25" opacity="1" d="M 83.38305077860524,497.14971497149713 L 83.35528727668118,497.14971497149713 L 83.38305077860524,497.14971497149713 L 83.38305077860524,497.14971497149713 z" /><path fill-rule="evenodd" fill="#D2EBD9" stroke="#A6A6A6" stroke-width="0.25" opacity="1" d="M 84.97482488891823,497.34973497349733 L 84.91929788507011,497.3997399739974 L 84.86377088122198,497.3997399739974 L 84.88227988250469,497.34973497349733 L 84.97482488891823,497.34973497349733 z" /><path fill-rule="evenodd" fill="#D2EBD9" stroke="#A6A6A6" stroke-width="0.25" opacity="1" d="M 84.06788382606548,497.54975497549754 L 84.05862932542414,497.54975497549754 L 84.04012032414143,497.54975497549754 L 84.04012032414143,497.54975497549754 L 84.04937482478277,497.54975497549754 L 84.05862932542414,497.54975497549754 L 84.06788382606548,497.54975497549754 L 84.06788382606548,497.54975497549754 z" /><path fill-rule="evenodd" fill="#D2EBD9" stroke="#A6A6A6" stroke-width="0.25" opacity="1" d="M 84.09564732798955,497.5997599759976 L 84.07713832670684,497.5997599759976 L 84.04937482478277,497.5997599759976 L 84.05862932542414,497.5997599759976 L 84.06788382606548,497.5997599759976 L 84.09564732798955,497.5997599759976 z" /><path fill-rule="evenodd" fill="#D2EBD9" stroke="#A6A6A6" stroke-width="0.25" opacity="1" d="M 83.92906631644517,497.5997599759976 L 83.91981181580381,497.5997599759976 L 83.94757531772788,497.5997599759976 L 83.96608431901059,497.5997599759976 L 83.99384782093465,497.64976497649764 L 84.00310232157601,497.64976497649764 L 83.92906631644517,497.5997599759976 z" /><path fill-rule="evenodd" fill="#D2EBD9" stroke="#A6A6A6" stroke-width="0.25" opacity="1" d="M 84.15117433183768,497.64976497649764 L 84.13266533055497,497.6997699769977 L 84.11415632927226,497.64976497649764 L 84.12341082991361,497.64976497649764 L 84.13266533055497,497.64976497649764 L 84.14191983119632,497.64976497649764 L 84.15117433183768,497.64976497649764 z" /><path fill-rule="evenodd" fill="#D2EBD9" stroke="#A6A6A6" stroke-width="0.25" opacity="1" d="M 84.29924634209935,497.6997699769977 L 84.289991841458,497.6997699769977 L 84.29924634209935,497.6997699769977 L 84.29924634209935,497.6997699769977 z" /><path fill-rule="evenodd" fill="#D2EBD9" stroke="#A6A6A6" stroke-width="0.25" opacity="1" d="M 84.29924634209935,497.6997699769977 L 84.289991841458,497.6997699769977 L 84.29924634209935,497.6997699769977 L 84.29924634209935,497.6997699769977 z" /><path fill-rule="evenodd" fill="#D2EBD9" stroke="#A6A6A6" stroke-width="0.25" opacity="1" d="M 85.42829542034463,497.7997799779978 L 85.45605892226868,497.7997799779978 L 85.44680442162733,497.84978497849784 L 85.42829542034463,497.7997799779978 z" /><path fill-rule="evenodd" fill="#D2EBD9" stroke="#A6A6A6" stroke-width="0.25" opacity="1" d="M 84.42880935107831,497.84978497849784 L 84.44731835236102,497.84978497849784 L 84.42880935107831,497.84978497849784 L 84.42880935107831,497.84978497849784 z" /><path fill-rule="evenodd" fill="#D2EBD9" stroke="#A6A6A6" stroke-width="0.25" opacity="1" d="M 85.62263993381306,497.8997899789979 L 85.48382242419275,497.74977497749774 L 85.63189443445442,497.8997899789979 L 85.62263993381306,497.8997899789979 z" /><path fill-rule="evenodd" fill="#D2EBD9" stroke="#A6A6A6" stroke-width="0.25" opacity="1" d="M 85.63189443445442,497.8997899789979 L 85.62263993381306,497.8997899789979 L 85.63189443445442,497.8997899789979 L 85.63189443445442,497.8997899789979 z" /><path fill-rule="evenodd" fill="#D2EBD9" stroke="#A6A6A6" stroke-width="0.25" opacity="1" d="M 84.40104584915426,497.94979497949794 L 84.3917913485129,497.999799979998 L 84.37328234723019,497.999799979998 L 84.38253684787155,497.94979497949794 L 84.40104584915426,497.94979497949794 z" /><path fill-rule="evenodd" fill="#D2EBD9" stroke="#A6A6A6" stroke-width="0.25" opacity="1" d="M 84.30850084274071,497.999799979998 L 84.36402784658884,498.0998099809981 L 84.32700984402342,498.0998099809981 L 84.29924634209935,497.999799979998 L 84.30850084274071,497.999799979998 z" /><path fill-rule="evenodd" fill="#D2EBD9" stroke="#A6A6A6" stroke-width="0.25" opacity="1" d="M 85.42829542034463,498.14981498149814 L 85.56711292996494,498.14981498149814 L 85.5763674306063,498.14981498149814 L 85.41904091970326,498.1998199819982 L 85.42829542034463,498.14981498149814 z" /><path fill-rule="evenodd" fill="#D2EBD9" stroke="#A6A6A6" stroke-width="0.25" opacity="1" d="M 84.38253684787155,498.1998199819982 L 84.4103003497956,498.1998199819982 L 84.4103003497956,498.24982498249824 L 84.36402784658884,498.24982498249824 L 84.38253684787155,498.1998199819982 z" /><path fill-rule="evenodd" fill="#D2EBD9" stroke="#A6A6A6" stroke-width="0.25" opacity="1" d="M 84.59539036262271,498.14981498149814 L 84.68793536903625,498.24982498249824 L 84.67868086839489,498.24982498249824 L 84.64166286582947,498.24982498249824 L 84.63240836518813,498.24982498249824 L 84.62315386454677,498.24982498249824 L 84.63240836518813,498.24982498249824 L 84.62315386454677,498.24982498249824 L 84.59539036262271,498.14981498149814 z" /><path fill-rule="evenodd" fill="#D2EBD9" stroke="#A6A6A6" stroke-width="0.25" opacity="1" d="M 85.45605892226868,498.24982498249824 L 85.48382242419275,498.24982498249824 L 85.4930769248341,498.2998299829983 L 85.44680442162733,498.2998299829983 L 85.45605892226868,498.24982498249824 z" /><path fill-rule="evenodd" fill="#D2EBD9" stroke="#A6A6A6" stroke-width="0.25" opacity="1" d="M 85.67816693766119,498.2998299829983 L 85.70593043958526,498.2998299829983 L 85.73369394150932,498.34983498349834 L 85.68742143830255,498.34983498349834 L 85.67816693766119,498.2998299829983 z" /><path fill-rule="evenodd" fill="#D2EBD9" stroke="#A6A6A6" stroke-width="0.25" opacity="1" d="M 84.86377088122198,498.34983498349834 L 84.85451638058063,498.2998299829983 L 84.88227988250469,498.2998299829983 L 84.88227988250469,498.34983498349834 L 84.86377088122198,498.34983498349834 z" /><path fill-rule="evenodd" fill="#D2EBD9" stroke="#A6A6A6" stroke-width="0.25" opacity="1" d="M 85.92803845497777,498.3998399839984 L 85.78922094535746,498.3998399839984 L 85.7984754459988,498.34983498349834 L 85.87251145112964,498.2998299829983 L 85.92803845497777,498.3998399839984 z" /><path fill-rule="evenodd" fill="#D2EBD9" stroke="#A6A6A6" stroke-width="0.25" opacity="1" d="M 84.32700984402342,498.44984498449844 L 84.24371933825122,498.4998499849985 L 84.24371933825122,498.44984498449844 L 84.289991841458,498.44984498449844 L 84.30850084274071,498.44984498449844 L 84.31775534338206,498.44984498449844 L 84.32700984402342,498.44984498449844 z" /><path fill-rule="evenodd" fill="#D2EBD9" stroke="#A6A6A6" stroke-width="0.25" opacity="1" d="M 85.67816693766119,498.54985498549854 L 85.68742143830255,498.54985498549854 L 85.6966759389439,498.54985498549854 L 85.70593043958526,498.54985498549854 L 85.6966759389439,498.54985498549854 L 85.68742143830255,498.54985498549854 L 85.67816693766119,498.54985498549854 z" /><path fill-rule="evenodd" fill="#D2EBD9" stroke="#A6A6A6" stroke-width="0.25" opacity="1" d="M 85.7984754459988,498.54985498549854 L 85.84474794920558,498.64986498649864 L 85.6966759389439,498.64986498649864 L 85.78922094535746,498.54985498549854 L 85.7984754459988,498.54985498549854 z" /><path fill-rule="evenodd" fill="#D2EBD9" stroke="#A6A6A6" stroke-width="0.25" opacity="1" d="M 84.6971898696776,498.64986498649864 L 84.68793536903625,498.6998699869987 L 84.63240836518813,498.6998699869987 L 84.63240836518813,498.64986498649864 L 84.6971898696776,498.64986498649864 z" /><path fill-rule="evenodd" fill="#D2EBD9" stroke="#A6A6A6" stroke-width="0.25" opacity="1" d="M 84.16042883247903,498.5998599859986 L 84.23446483760988,498.6998699869987 L 84.21595583632717,498.6998699869987 L 84.1881923344031,498.6998699869987 L 84.17893783376174,498.6998699869987 L 84.16968333312039,498.6998699869987 L 84.16042883247903,498.5998599859986 z" /><path fill-rule="evenodd" fill="#D2EBD9" stroke="#A6A6A6" stroke-width="0.25" opacity="1" d="M 84.43806385171968,498.74987498749874 L 84.52135435749186,498.7998799879988 L 84.46582735364373,498.7998799879988 L 84.44731835236102,498.7998799879988 L 84.43806385171968,498.7998799879988 L 84.43806385171968,498.74987498749874 z" /><path fill-rule="evenodd" fill="#D2EBD9" stroke="#A6A6A6" stroke-width="0.25" opacity="1" d="M 84.92855238571147,498.94989498949894 L 84.88227988250469,498.94989498949894 L 84.88227988250469,498.8998899889989 L 84.92855238571147,498.8998899889989 L 84.92855238571147,498.94989498949894 L 84.93780688635282,498.94989498949894 L 84.92855238571147,498.94989498949894 z" /><path fill-rule="evenodd" fill="#D2EBD9" stroke="#A6A6A6" stroke-width="0.25" opacity="1" d="M 84.93780688635282,498.94989498949894 L 84.92855238571147,498.94989498949894 L 84.93780688635282,498.94989498949894 L 84.93780688635282,498.94989498949894 z" /><path fill-rule="evenodd" fill="#D2EBD9" stroke="#A6A6A6" stroke-width="0.25" opacity="1" d="M 85.07662439597314,499.0999099909991 L 85.05811539469043,498.999899989999 L 85.0858788966145,499.0999099909991 L 85.07662439597314,499.0999099909991 z" /><path fill-rule="evenodd" fill="#D2EBD9" stroke="#A6A6A6" stroke-width="0.25" opacity="1" d="M 86.36299998512143,499.5999599959996 L 86.35374548448009,499.6999699969997 L 86.3074729812733,499.5999599959996 L 86.31672748191467,499.5999599959996 L 86.33523648319738,499.5999599959996 L 86.34449098383872,499.5999599959996 L 86.35374548448009,499.5999599959996 L 86.36299998512143,499.5999599959996 z" /><path fill-rule="evenodd" fill="#D2EBD9" stroke="#A6A6A6" stroke-width="0.25" opacity="1" d="M 56.804124936634736,478.1978197819782 L 56.08227388660908,478.8978897889789 L 56.60052592252494,478.0978097809781 L 56.85965194048286,478.04780478047803 L 56.804124936634736,478.1978197819782 z" /><path fill-rule="evenodd" fill="#D2EBD9" stroke="#A6A6A6" stroke-width="0.25" opacity="1" d="M 59.54345712647571,480.64806480648065 L 59.37687611493133,480.8980898089809 L 59.63600213288925,480.2980298029803 L 59.68227463609603,480.44804480448045 L 59.54345712647571,480.64806480648065 z" /><path fill-rule="evenodd" fill="#D2EBD9" stroke="#A6A6A6" stroke-width="0.25" opacity="1" d="M 60.63548820215556,483.7483748374837 L 60.68176070536233,483.79837983798376 L 60.25605367586002,484.09840984098406 L 60.28381717778408,483.99839983998396 L 60.63548820215556,483.7483748374837 z" /><path fill-rule="evenodd" fill="#D2EBD9" stroke="#A6A6A6" stroke-width="0.25" opacity="1" d="M 60.2190356732946,484.09840984098406 L 60.18201767072918,484.09840984098406 L 60.191272171370535,484.048404840484 L 60.23754467457731,484.048404840484 L 60.2190356732946,484.09840984098406 z" /><path fill-rule="evenodd" fill="#D2EBD9" stroke="#A6A6A6" stroke-width="0.25" opacity="1" d="M 58.3218630418169,484.1484148414841 L 58.24782703668606,484.09840984098406 L 58.40515354758909,483.99839983998396 L 58.41440804823044,484.09840984098406 L 58.3218630418169,484.1484148414841 z" /><path fill-rule="evenodd" fill="#D2EBD9" stroke="#A6A6A6" stroke-width="0.25" opacity="1" d="M 61.94037279258656,487.0987098709871 L 61.995899796434685,487.14871487148713 L 61.92186379130385,487.1987198719872 L 61.894100289379786,487.14871487148713 L 61.94037279258656,487.0987098709871 z" /><path fill-rule="evenodd" fill="#D2EBD9" stroke="#A6A6A6" stroke-width="0.25" opacity="1" d="M 61.96813629451062,487.24872487248723 L 61.78304628168353,487.34873487348733 L 61.77379178104218,487.2987298729873 L 61.84782778617301,487.24872487248723 L 61.96813629451062,487.24872487248723 z" /><path fill-rule="evenodd" fill="#D2EBD9" stroke="#A6A6A6" stroke-width="0.25" opacity="1" d="M 61.57019276693237,487.2987298729873 L 61.44062975795341,487.3987398739874 L 61.31106674897445,487.3987398739874 L 61.47764776051883,487.24872487248723 L 61.57019276693237,487.2987298729873 z" /><path fill-rule="evenodd" fill="#D2EBD9" stroke="#A6A6A6" stroke-width="0.25" opacity="1" d="M 60.90386872075484,487.3987398739874 L 60.89461422011349,487.44874487448743 L 60.80206921369994,487.44874487448743 L 60.89461422011349,487.34873487348733 L 60.90386872075484,487.3987398739874 z" /><path fill-rule="evenodd" fill="#D2EBD9" stroke="#A6A6A6" stroke-width="0.25" opacity="1" d="M 62.40309782465429,487.44874487448743 L 62.3198073188821,487.4987498749875 L 62.36607982208887,487.34873487348733 L 62.41235232529564,487.44874487448743 L 62.40309782465429,487.44874487448743 z" /><path fill-rule="evenodd" fill="#D2EBD9" stroke="#A6A6A6" stroke-width="0.25" opacity="1" d="M 60.56145219702472,487.4987498749875 L 60.6262337015142,487.5987598759876 L 60.53368869510066,487.4987498749875 L 60.56145219702472,487.4987498749875 z" /><path fill-rule="evenodd" fill="#D2EBD9" stroke="#A6A6A6" stroke-width="0.25" opacity="1" d="M 50.61286400756849,487.74877487748773 L 50.603609506927135,487.6987698769877 L 50.6313730088512,487.6987698769877 L 50.6313730088512,487.74877487748773 L 50.61286400756849,487.74877487748773 z" /><path fill-rule="evenodd" fill="#D2EBD9" stroke="#A6A6A6" stroke-width="0.25" opacity="1" d="M 62.06993580156553,487.74877487748773 L 61.894100289379786,487.7987798779878 L 61.86633678745572,487.74877487748773 L 62.07919030220688,487.64876487648763 L 62.06993580156553,487.74877487748773 z" /><path fill-rule="evenodd" fill="#D2EBD9" stroke="#A6A6A6" stroke-width="0.25" opacity="1" d="M 61.76453728040082,487.54875487548753 L 61.88484578873843,487.4987498749875 L 61.746028279118114,487.7987798779878 L 61.57019276693237,487.7987798779878 L 61.48690226116018,487.64876487648763 L 61.76453728040082,487.54875487548753 z" /><path fill-rule="evenodd" fill="#D2EBD9" stroke="#A6A6A6" stroke-width="0.25" opacity="1" d="M 62.68073284389493,487.74877487748773 L 62.55116983491597,487.84878487848783 L 62.43086132657835,487.84878487848783 L 62.45862482850242,487.64876487648763 L 62.68073284389493,487.74877487748773 z" /><path fill-rule="evenodd" fill="#D2EBD9" stroke="#A6A6A6" stroke-width="0.25" opacity="1" d="M 62.00515429707604,487.998799879988 L 61.82006428424895,487.94879487948793 L 62.014408797717394,487.84878487848783 L 62.125462805413655,487.94879487948793 L 62.014408797717394,487.998799879988 L 62.00515429707604,487.998799879988 z" /><path fill-rule="evenodd" fill="#D2EBD9" stroke="#A6A6A6" stroke-width="0.25" opacity="1" d="M 61.634974271421854,487.94879487948793 L 61.634974271421854,488.04880488048803 L 61.46839325987747,487.998799879988 L 61.533174764366954,487.8987898789879 L 61.634974271421854,487.94879487948793 z" /><path fill-rule="evenodd" fill="#D2EBD9" stroke="#A6A6A6" stroke-width="0.25" opacity="1" d="M 62.014408797717394,487.998799879988 L 61.912609290662495,488.0988098809881 L 62.00515429707604,487.998799879988 L 62.014408797717394,487.998799879988 z" /><path fill-rule="evenodd" fill="#D2EBD9" stroke="#A6A6A6" stroke-width="0.25" opacity="1" d="M 62.273534815675326,488.04880488048803 L 62.273534815675326,488.14881488148814 L 62.2180078118272,488.14881488148814 L 62.19949881054449,488.14881488148814 L 62.208753311185845,488.14881488148814 L 62.273534815675326,488.04880488048803 z" /><path fill-rule="evenodd" fill="#D2EBD9" stroke="#A6A6A6" stroke-width="0.25" opacity="1" d="M 62.51415183235055,488.14881488148814 L 62.40309782465429,488.24882488248824 L 62.44937032786107,487.998799879988 L 62.504897331709195,487.998799879988 L 62.51415183235055,488.14881488148814 z" /><path fill-rule="evenodd" fill="#D2EBD9" stroke="#A6A6A6" stroke-width="0.25" opacity="1" d="M 62.523406332991904,488.44884488448844 L 62.34757082080616,488.6988698869887 L 62.51415183235055,488.44884488448844 L 62.523406332991904,488.44884488448844 z" /><path fill-rule="evenodd" fill="#D2EBD9" stroke="#A6A6A6" stroke-width="0.25" opacity="1" d="M 49.58561443637812,489.24892489248924 L 49.50232393060593,489.14891489148914 L 49.51157843124729,489.0989098909891 L 49.567105435095414,489.0989098909891 L 49.58561443637812,489.24892489248924 z" /><path fill-rule="evenodd" fill="#D2EBD9" stroke="#A6A6A6" stroke-width="0.25" opacity="1" d="M 62.865822856722026,489.1989198919892 L 62.79178685159118,489.2989298929893 L 62.68073284389493,489.24892489248924 L 62.902840859287444,489.04890489048904 L 62.865822856722026,489.1989198919892 z" /><path fill-rule="evenodd" fill="#D2EBD9" stroke="#A6A6A6" stroke-width="0.25" opacity="1" d="M 49.47456042868187,489.34893489348934 L 49.50232393060593,489.2989298929893 L 49.50232393060593,489.3989398939894 L 49.49306942996458,489.34893489348934 L 49.47456042868187,489.34893489348934 z" /><path fill-rule="evenodd" fill="#D2EBD9" stroke="#A6A6A6" stroke-width="0.25" opacity="1" d="M 66.16967958568563,490.3990399039904 L 66.08638907991343,490.34903490349035 L 66.09564358055479,490.2990299029903 L 66.19744308760968,490.2990299029903 L 66.16967958568563,490.3990399039904 z" /><path fill-rule="evenodd" fill="#D2EBD9" stroke="#A6A6A6" stroke-width="0.25" opacity="1" d="M 66.59538661518793,490.34903490349035 L 66.32700609658866,490.44904490449045 L 66.27147909274053,490.34903490349035 L 66.56762311326388,490.1990199019902 L 66.59538661518793,490.34903490349035 z" /><path fill-rule="evenodd" fill="#D2EBD9" stroke="#A6A6A6" stroke-width="0.25" opacity="1" d="M 70.13060586018541,490.44904490449045 L 70.18613286403354,490.4990499049905 L 70.08433335697863,490.44904490449045 L 70.07507885633729,490.3990399039904 L 70.10284235826134,490.3990399039904 L 70.13060586018541,490.44904490449045 z" /><path fill-rule="evenodd" fill="#D2EBD9" stroke="#A6A6A6" stroke-width="0.25" opacity="1" d="M 66.28998809402324,490.5990599059906 L 66.28073359338188,490.6490649064906 L 66.24371559081646,490.6490649064906 L 66.24371559081646,490.5990599059906 L 66.28998809402324,490.5990599059906 z" /><path fill-rule="evenodd" fill="#D2EBD9" stroke="#A6A6A6" stroke-width="0.25" opacity="1" d="M 70.3989863787847,490.8490849084908 L 70.32495037365386,490.89908990899085 L 70.07507885633729,490.5990599059906 L 70.29718687172979,490.6490649064906 L 70.3989863787847,490.8490849084908 z" /><path fill-rule="evenodd" fill="#D2EBD9" stroke="#A6A6A6" stroke-width="0.25" opacity="1" d="M 51.399496562083634,491.19911991199115 L 51.35322405887686,491.39913991399135 L 51.33471505759415,491.39913991399135 L 51.269933553104664,491.1491149114911 L 51.399496562083634,491.19911991199115 z" /><path fill-rule="evenodd" fill="#D2EBD9" stroke="#A6A6A6" stroke-width="0.25" opacity="1" d="M 25.394349759877112,492.4492449244924 L 25.357331757311695,492.4492449244924 L 25.301804753463568,492.2492249224922 L 25.394349759877112,492.29922992299225 L 25.394349759877112,492.4492449244924 z" /><path fill-rule="evenodd" fill="#D2EBD9" stroke="#A6A6A6" stroke-width="0.25" opacity="1" d="M 25.681239279759108,492.59925992599256 L 25.634966776552332,492.59925992599256 L 25.64422127719369,492.4492449244924 L 25.681239279759108,492.5492549254925 L 25.681239279759108,492.59925992599256 z" /><path fill-rule="evenodd" fill="#D2EBD9" stroke="#A6A6A6" stroke-width="0.25" opacity="1" d="M 6.876093976526493,493.29932993299326 L 6.857584975243783,493.1493149314931 L 6.950129981657329,493.1493149314931 L 6.940875481015975,493.19931993199316 L 6.876093976526493,493.29932993299326 z" /><path fill-rule="evenodd" fill="#D2EBD9" stroke="#A6A6A6" stroke-width="0.25" opacity="1" d="M 7.014911486146812,493.49934993499346 L 6.792803470754301,493.59935993599356 L 6.987147984222748,493.19931993199316 L 7.172237997049841,493.4493449344934 L 7.014911486146812,493.49934993499346 z" /><path fill-rule="evenodd" fill="#D2EBD9" stroke="#A6A6A6" stroke-width="0.25" opacity="1" d="M 8.208742068881559,493.6493649364936 L 8.217996569522914,493.59935993599356 L 8.264269072729688,493.59935993599356 L 8.255014572088333,493.6493649364936 L 8.208742068881559,493.6493649364936 z" /><path fill-rule="evenodd" fill="#D2EBD9" stroke="#A6A6A6" stroke-width="0.25" opacity="1" d="M 6.182006428424895,493.79937993799376 L 6.117224923935413,493.6493649364936 L 6.126479424576767,493.6493649364936 L 6.135733925218122,493.6493649364936 L 6.1912609290662495,493.6493649364936 L 6.182006428424895,493.79937993799376 z" /><path fill-rule="evenodd" fill="#D2EBD9" stroke="#A6A6A6" stroke-width="0.25" opacity="1" d="M 8.541904091970327,493.79937993799376 L 8.393832081708652,493.7493749374937 L 8.412341082991361,493.59935993599356 L 8.532649591328973,493.69936993699366 L 8.541904091970327,493.79937993799376 z" /><path fill-rule="evenodd" fill="#D2EBD9" stroke="#A6A6A6" stroke-width="0.25" opacity="1" d="M 26.273527320805805,493.59935993599356 L 26.14396431182684,493.89938993899386 L 26.134709811185484,493.69936993699366 L 26.255018319523096,493.59935993599356 L 26.273527320805805,493.59935993599356 z" /><path fill-rule="evenodd" fill="#D2EBD9" stroke="#A6A6A6" stroke-width="0.25" opacity="1" d="M 8.754757606721483,493.89938993899386 L 8.764012107362838,493.79937993799376 L 8.856557113776384,493.69936993699366 L 8.884320615700448,493.89938993899386 L 8.754757606721483,493.89938993899386 z" /><path fill-rule="evenodd" fill="#D2EBD9" stroke="#A6A6A6" stroke-width="0.25" opacity="1" d="M 9.115683131734313,493.89938993899386 L 9.161955634941087,493.8493849384938 L 9.20822813814786,493.8493849384938 L 9.161955634941087,493.9493949394939 L 9.115683131734313,493.89938993899386 z" /><path fill-rule="evenodd" fill="#D2EBD9" stroke="#A6A6A6" stroke-width="0.25" opacity="1" d="M 49.30797941713749,493.89938993899386 L 49.33574291906155,493.89938993899386 L 49.3264884184202,493.9493949394939 L 49.30797941713749,493.9493949394939 L 49.30797941713749,493.89938993899386 z" /><path fill-rule="evenodd" fill="#D2EBD9" stroke="#A6A6A6" stroke-width="0.25" opacity="1" d="M 9.319282145844115,493.99939993999396 L 9.393318150974952,493.9493949394939 L 9.393318150974952,493.99939993999396 L 9.337791147126826,493.99939993999396 L 9.319282145844115,493.99939993999396 z" /><path fill-rule="evenodd" fill="#D2EBD9" stroke="#A6A6A6" stroke-width="0.25" opacity="1" d="M 10.531621729861573,494.049404940494 L 10.513112728578863,494.09940994099406 L 10.420567722165316,494.09940994099406 L 10.4853492266548,494.049404940494 L 10.531621729861573,494.049404940494 z" /><path fill-rule="evenodd" fill="#D2EBD9" stroke="#A6A6A6" stroke-width="0.25" opacity="1" d="M 26.38458132850206,494.09940994099406 L 26.38458132850206,494.1494149414941 L 26.338308825295286,493.99939993999396 L 26.403090329784767,494.09940994099406 L 26.38458132850206,494.09940994099406 z" /><path fill-rule="evenodd" fill="#D2EBD9" stroke="#A6A6A6" stroke-width="0.25" opacity="1" d="M 11.882778823499349,494.29942994299427 L 11.70694331131361,494.19941994199417 L 11.855015321575285,494.049404940494 L 11.98457833055425,494.29942994299427 L 11.882778823499349,494.29942994299427 z" /><path fill-rule="evenodd" fill="#D2EBD9" stroke="#A6A6A6" stroke-width="0.25" opacity="1" d="M 20.026739387891425,495.7995799579958 L 19.906430879553817,495.8495849584958 L 19.897176378912462,495.7995799579958 L 20.01748488725007,495.7995799579958 L 20.026739387891425,495.7995799579958 z" /><path fill-rule="evenodd" fill="#D2EBD9" stroke="#A6A6A6" stroke-width="0.25" opacity="1" d="M 38.73008518406914,496.2996299629963 L 38.73008518406914,496.2496249624962 L 38.74859418535185,496.2496249624962 L 38.77635768727591,496.2996299629963 L 38.69306718150372,496.2496249624962 L 38.68381268086237,496.2496249624962 L 38.73008518406914,496.2996299629963 z" /><path fill-rule="evenodd" fill="#D2EBD9" stroke="#A6A6A6" stroke-width="0.25" opacity="1" d="M 38.85039369240675,496.3496349634963 L 38.785612187917266,496.2996299629963 L 38.79486668855862,496.2996299629963 L 38.822630190482684,496.2996299629963 L 38.84113919176539,496.2996299629963 L 38.85039369240675,496.3496349634963 z" /><path fill-rule="evenodd" fill="#D2EBD9" stroke="#A6A6A6" stroke-width="0.25" opacity="1" d="M 29.72545606003108,496.3996399639964 L 29.62365655297618,496.3496349634963 L 29.706947058748373,496.1996199619962 L 29.799492065161918,496.2496249624962 L 29.72545606003108,496.3996399639964 z" /><path fill-rule="evenodd" fill="#D2EBD9" stroke="#A6A6A6" stroke-width="0.25" opacity="1" d="M 20.248847403283936,496.3996399639964 L 20.119284394304973,496.3996399639964 L 20.119284394304973,496.3496349634963 L 20.258101903925294,496.3496349634963 L 20.248847403283936,496.3996399639964 z" /><path fill-rule="evenodd" fill="#D2EBD9" stroke="#A6A6A6" stroke-width="0.25" opacity="1" d="M 29.956818576064947,496.3996399639964 L 29.88278257093411,496.3496349634963 L 29.993836578630365,496.3996399639964 L 29.975327577347656,496.3996399639964 L 29.9660730767063,496.3996399639964 L 29.956818576064947,496.3996399639964 z" /><path fill-rule="evenodd" fill="#D2EBD9" stroke="#A6A6A6" stroke-width="0.25" opacity="1" d="M 29.614402052334825,496.4996499649965 L 29.577384049769407,496.44964496449643 L 29.651420054900246,496.44964496449643 L 29.62365655297618,496.4996499649965 L 29.614402052334825,496.4996499649965 z" /><path fill-rule="evenodd" fill="#D2EBD9" stroke="#A6A6A6" stroke-width="0.25" opacity="1" d="M 33.05707629091875,496.5996599659966 L 33.11260329476688,496.54965496549653 L 33.149621297332295,496.5996599659966 L 33.07558529220146,496.64966496649663 L 33.05707629091875,496.5996599659966 z" /><path fill-rule="evenodd" fill="#D2EBD9" stroke="#A6A6A6" stroke-width="0.25" opacity="1" d="M 32.751677769754046,496.5996599659966 L 32.6591327633405,496.64966496649663 L 32.64987826269915,496.5996599659966 L 32.6591327633405,496.5996599659966 L 32.74242326911269,496.5996599659966 L 32.751677769754046,496.5996599659966 z" /><path fill-rule="evenodd" fill="#D2EBD9" stroke="#A6A6A6" stroke-width="0.25" opacity="1" d="M 49.51157843124729,496.54965496549653 L 49.50232393060593,496.54965496549653 L 49.4282879254751,496.6996699669967 L 49.48381492932322,496.4996499649965 L 49.51157843124729,496.54965496549653 z" /><path fill-rule="evenodd" fill="#D2EBD9" stroke="#A6A6A6" stroke-width="0.25" opacity="1" d="M 33.49203782106242,496.74967496749673 L 33.464274319138354,496.7996799679968 L 33.43651081721429,496.6996699669967 L 33.48278332042106,496.6996699669967 L 33.49203782106242,496.74967496749673 z" /><path fill-rule="evenodd" fill="#D2EBD9" stroke="#A6A6A6" stroke-width="0.25" opacity="1" d="M 32.622114760775084,496.7996799679968 L 32.520315253720185,496.84968496849683 L 32.48329725115476,496.6996699669967 L 32.622114760775084,496.6996699669967 L 32.622114760775084,496.7996799679968 z" /><path fill-rule="evenodd" fill="#D2EBD9" stroke="#A6A6A6" stroke-width="0.25" opacity="1" d="M 33.62160083004138,496.999699969997 L 33.5568193255519,496.999699969997 L 33.51980132298648,496.94969496949693 L 33.67712783388951,496.94969496949693 L 33.62160083004138,496.999699969997 z" /><path fill-rule="evenodd" fill="#D2EBD9" stroke="#A6A6A6" stroke-width="0.25" opacity="1" d="M 31.483811181888463,497.04970497049703 L 31.419029677398978,496.999699969997 L 31.511574683812526,496.94969496949693 L 31.52082918445388,497.04970497049703 L 31.483811181888463,497.04970497049703 z" /><path fill-rule="evenodd" fill="#D2EBD9" stroke="#A6A6A6" stroke-width="0.25" opacity="1" d="M 34.26016137429485,497.24972497249723 L 34.13059836531589,497.3997399739974 L 34.139852865957245,497.2997299729973 L 34.29717937686027,497.1997199719972 L 34.26016137429485,497.24972497249723 z" /></g></g></g></g></svg>