<svg xmlns="http://www.w3.org/2000/svg" xmlns:xlink="http://www.w3.org/1999/xlink" width="422.3537889737636" height="500.0" viewBox="0.0 0.0 422.3537889737636 500.0" preserveAspectRatio="xMinYMin meet"><g transform="matrix(1,0,0,-1,0,500.0)"><g><path fill-rule="evenodd" fill="#D2EBD9" stroke="#A6A6A6" stroke-width="0.25" opacity="1" d="M 148.99523151665926,372.7550405077636 L 286.7857244666666,265.837051399285 L 313.45485213398933,236.7153968338389 L 333.7345017250627,184.9259688698221 L 414.66789600998163,83.63643193477765 L 422.3537889737636,22.6622462507803 L 396.70327348820865,0.0 L 349.56929442845285,0.2844573606271297 L 300.1202883012593,19.34345350996591 L 266.8764784783125,52.91150163160637 L 313.45485213398933,52.91150163160637 L 313.45485213398933,68.84275304642506 L 236.31810387969017,106.11213843221776 L 79.08137172088027,245.3474026354961 L 32.59560124203563,264.5089984340593 L 9.81572050601244,278.54857432539575 L 0.0,301.0315539925359 L 4.6300564128905535,324.65381899964996 L 25.74311638623476,364.50071009388193 L 31.113982278853655,387.08179307356477 L 22.2242730576545,425.0351126594469 L 6.2968771774321795,458.24624239397235 L 2.9632356502115726,484.2471035642084 L 31.113982278853655,500.0 L 125.75234627723694,391.2565412481781 L 148.99523151665926,372.7550405077636 z" /></g></g></svg>