<svg xmlns="http://www.w3.org/2000/svg" xmlns:xlink="http://www.w3.org/1999/xlink" width="500.0" height="484.8644972778857" viewBox="0.0 0.0 500.0 484.8644972778857" preserveAspectRatio="xMinYMin meet"><g transform="matrix(1,0,0,-1,0,484.8644972778857)"><g><g><path fill-rule="evenodd" fill="#D2EBD9" stroke="#A6A6A6" stroke-width="0.25" opacity="1" d="M 241.1241124112411,89.70890288669752 L 244.97449744974497,85.10222949521847 L 248.97489748974897,75.79190011454499 L 249.37493749374937,70.94277022877755 L 245.77457745774575,68.27574879160547 L 238.87388738873886,66.82100982587524 L 241.7241724172417,65.12381436585663 L 243.67436743674367,63.232653710407334 L 241.47414741474145,63.8630405955571 L 238.023802380238,65.41476215900268 L 235.77357735773577,65.51174475671803 L 248.17481748174816,57.85011953720549 L 249.82498249824982,60.323175778946876 L 251.5251525152515,62.1658451355385 L 254.37543754375437,62.84472331954594 L 257.17571757175716,62.26282773325385 L 262.57625762576254,60.17770188237385 L 265.27652765276525,59.69278889379711 L 266.27662766276626,60.22619318123152 L 267.3267326732673,61.09903656066967 L 268.4768476847685,61.14752785952734 L 269.97699769977,59.15938460636269 L 270.32703270327033,57.46218914634409 L 270.1770177017702,53.24344614572642 L 270.4770477047705,51.25530289256177 L 274.47744774477445,44.902942742206434 L 275.87758775877586,44.0300993627683 L 280.3780378037804,42.76932559246877 L 283.47834783478345,40.34476064958505 L 288.978897889789,34.089383096945056 L 291.97919791979194,31.567835556345994 L 298.92989298929893,27.106636061439954 L 321.3321332133213,11.977350817845561 L 325.5325532553255,9.698259771534868 L 332.5332533253325,7.322186127508825 L 335.983598359836,7.516151322939522 L 337.3837383738374,6.449342748070687 L 339.98399839983995,2.618530138314414 L 340.58405840584055,10.813559645261376 L 340.4340434043404,14.64437225501765 L 336.93369336933694,15.66268953102881 L 327.03270327032703,25.36094930256368 L 320.2320232023202,32.58615283235716 L 318.5818581858186,36.07752635010971 L 312.031203120312,42.57536039703807 L 303.9303930393039,49.84905522568922 L 300.0800080008001,52.56456796171898 L 297.7297729772977,56.83180226119432 L 295.7295729572957,63.32963630812268 L 294.4294429442944,71.08824412535057 L 294.57945794579456,79.08930843686684 L 295.87958795879587,81.85331247175428 L 298.0798079807981,84.37486001235335 L 299.3799379937994,89.3694637946938 L 299.72997299729974,96.06126303705285 L 297.7297729772977,98.0494062902175 L 294.4294429442944,99.31018006051704 L 291.47914791479144,99.60112785366309 L 291.1291129112911,101.58927110682774 L 291.47914791479144,104.3047838428575 L 293.5293529352935,107.3112443720333 L 296.4296429642964,108.86296593547888 L 299.92999299929994,113.37265672924259 L 299.1799179917992,140.5762753883979 L 298.62986298629863,146.34673995246115 L 295.5295529552955,151.43832633251697 L 296.4296429642964,155.1721563445579 L 305.2305230523052,154.68724335598114 L 314.38143814381436,154.68724335598114 L 325.5825582558256,155.1721563445579 L 338.2338233823382,153.959873873116 L 342.6342634263426,153.959873873116 L 343.18431843184317,156.48142141371508 L 340.78407840784075,168.07084184069925 L 340.08400840084005,174.90811497963134 L 340.58405840584055,179.46629707225273 L 341.6341634163416,180.48461434826388 L 340.38403840384035,180.8240534402676 L 336.83368336833684,180.8240534402676 L 331.38313831383135,182.95767059000528 L 330.3330333033303,180.38763175054854 L 329.68296829682964,178.0115581065225 L 326.1326132613261,178.64194499167226 L 322.88228822882286,181.0180186356983 L 319.3319331933193,182.27879240599782 L 317.93179317931794,183.34560098086666 L 317.7817781778178,187.22490488948063 L 315.9315931593159,192.1710173729634 L 311.7311731173117,196.19579517815038 L 308.7808780878088,196.63221686786943 L 304.9304930493049,195.80786478728896 L 300.1300130013001,196.8746733621578 L 297.92979297929793,199.00829051189547 L 297.029702970297,201.38436415592153 L 294.5294529452945,211.85848470917918 L 293.47934793479345,213.50718887034012 L 289.8789878987899,212.73132808861732 L 285.37853785378536,213.79813666348616 L 281.8281828182818,217.6774405721001 L 279.82798279827983,222.81751825101358 L 278.5778577857786,224.5147137110322 L 274.67746774677465,224.95113540075124 L 268.4768476847685,224.95113540075124 L 264.47644764476445,223.88432682588243 L 261.22612261226124,221.12032279099498 L 256.27562756275626,220.48993590584521 L 251.9251925192519,221.94467487157544 L 246.8246824682468,224.9996266996089 L 240.9240924092409,226.45436566533914 L 237.67376737673766,225.82397878018938 L 235.02350235023502,224.9996266996089 L 231.77317731773175,224.56320500988986 L 225.57255725572557,228.20005242421541 L 223.3223322332233,228.73345671164984 L 224.1224122412241,225.581522285901 L 220.42204220422042,226.98776995277356 L 218.021802180218,228.39401761964612 L 214.8214821482148,228.15156112535774 L 214.4214421442144,227.2787177459196 L 213.6213621362136,225.38755709047032 L 213.27132713271325,220.63540980241822 L 213.27132713271325,214.8164539394973 L 214.6214621462146,212.1979238011829 L 214.6214621462146,208.2216372948536 L 217.87178717871785,208.2216372948536 L 221.42214221422142,207.25181131770012 L 223.47234723472346,203.76043779994757 L 227.37273727372735,198.8143253164648 L 229.07290729072906,195.80786478728896 L 232.47324732473245,192.51045646496712 L 232.47324732473245,191.49213918895595 L 234.67346734673467,192.02554347639037 L 237.7237723772377,191.783086982102 L 239.57395739573957,188.72813515406853 L 239.57395739573957,183.83051396944342 L 241.6241624162416,180.77556214140992 L 241.6241624162416,174.47169328991225 L 240.77407740774075,173.50186731275878 L 234.67346734673467,173.50186731275878 L 233.47334733473346,172.82298912875135 L 233.27332733273326,169.3316156109988 L 235.17351735173517,168.3617896338453 L 237.87378737873786,168.60424612813367 L 239.77397739773977,165.59778559895787 L 242.1242124212421,161.3790425983402 L 245.02450245024502,159.48788194289088 L 245.67456745674565,157.1602995977225 L 247.024702470247,154.15383906854672 L 247.37473747374736,154.15383906854672 L 249.42494249424942,152.6991001028165 L 254.82548254825483,151.82625672337835 L 255.7255725572557,146.34673995246115 L 256.025602560256,141.4976100666937 L 257.57575757575756,137.76378005465278 L 259.0759075907591,134.757319525477 L 260.62606260626063,130.34461132942863 L 260.62606260626063,126.80474651281838 L 252.97529752975296,127.28965950139514 L 246.7246724672467,128.21099417969094 L 243.82438243824382,129.37478535227513 L 240.77407740774075,129.6172418465635 L 239.37393739373937,128.21099417969094 L 239.07390739073907,125.20453365051513 L 240.77407740774075,120.06445597160166 L 243.97439743974397,119.38557778759422 L 247.87478747874786,114.97286959154586 L 249.57495749574957,109.83279191263237 L 248.22482248224821,102.85004487712727 L 245.12451245124512,95.38238485304542 L 241.1241124112411,89.70890288669752 z" /><path fill-rule="evenodd" fill="#D2EBD9" stroke="#A6A6A6" stroke-width="0.25" opacity="1" d="M 339.98399839983995,2.618530138314414 L 341.9341934193419,1.2607737702995327 L 346.53465346534654,0.7758607817227894 L 348.6348634863486,0.0 L 349.9349934993499,1.2122824714418585 L 351.38513851385136,1.8426693565916248 L 352.88528852885287,1.6971954600186017 L 354.3354335433543,0.7758607817227894 L 355.63556355635563,0.9698259771534867 L 356.13561356135614,2.0366345520223224 L 355.83558355835584,3.588356115467901 L 354.93549354935493,5.334042874344177 L 358.88588858885885,7.613133920654871 L 361.58615861586156,10.28015535782696 L 362.986298629863,13.868511473294861 L 363.0863086308631,18.960097853350664 L 361.7361736173617,23.71224514140275 L 359.5359535953595,26.573231774005535 L 356.93569356935694,29.2887445100353 L 352.48524852485247,36.56243933868645 L 350.7350735073507,40.78118233930412 L 349.5349534953495,44.95143404106411 L 349.4349434943494,47.957894570239915 L 350.68506850685066,49.946037823404566 L 352.28522852285226,51.2068115937041 L 353.2353235323532,52.9040070537227 L 352.5352535253525,56.24990667490223 L 349.48494849484945,62.40830162982687 L 348.18481848184814,65.89967514757943 L 348.1348134813481,68.90613567675523 L 350.58505850585055,75.79190011454499 L 354.4854485448545,79.52573012658591 L 361.6361636163616,81.12594298888916 L 369.2369236923692,81.22292558660452 L 374.4874487448745,80.4955561037394 L 372.18721872187217,93.83066328959984 L 372.08720872087207,98.4373366810789 L 373.1873187318732,104.1108186474268 L 375.2875287528753,108.57201814233284 L 380.78807880788077,116.33062595956073 L 377.68776877687765,117.88234752300632 L 367.9367936793679,124.1377250756463 L 357.5357535753575,133.3995631574621 L 350.28502850285025,131.99331549058954 L 345.0845084508451,135.53318030719976 L 340.9340934093409,133.3995631574621 L 337.2837283728373,137.66679745693745 L 339.3339333933393,145.57087917073835 L 338.2338233823382,153.959873873116 L 325.5825582558256,155.1721563445579 L 314.38143814381436,154.68724335598114 L 305.2305230523052,154.68724335598114 L 296.4296429642964,155.1721563445579 L 295.5295529552955,151.43832633251697 L 298.62986298629863,146.34673995246115 L 299.1799179917992,140.5762753883979 L 299.92999299929994,113.37265672924259 L 296.4296429642964,108.86296593547888 L 293.5293529352935,107.3112443720333 L 291.47914791479144,104.3047838428575 L 291.1291129112911,101.58927110682774 L 291.47914791479144,99.60112785366309 L 294.4294429442944,99.31018006051704 L 297.7297729772977,98.0494062902175 L 299.72997299729974,96.06126303705285 L 299.3799379937994,89.3694637946938 L 298.0798079807981,84.37486001235335 L 295.87958795879587,81.85331247175428 L 294.57945794579456,79.08930843686684 L 294.4294429442944,71.08824412535057 L 295.7295729572957,63.32963630812268 L 297.7297729772977,56.83180226119432 L 300.0800080008001,52.56456796171898 L 303.9303930393039,49.84905522568922 L 312.031203120312,42.57536039703807 L 318.5818581858186,36.07752635010971 L 320.2320232023202,32.58615283235716 L 327.03270327032703,25.36094930256368 L 336.93369336933694,15.66268953102881 L 340.4340434043404,14.64437225501765 L 340.58405840584055,10.813559645261376 L 339.98399839983995,2.618530138314414 z" /><path fill-rule="evenodd" fill="#D2EBD9" stroke="#A6A6A6" stroke-width="0.25" opacity="1" d="M 377.68776877687765,117.88234752300632 L 379.6379637963796,120.74333415560909 L 395.98959895989594,132.81766757117 L 399.38993899389936,133.88447614603885 L 397.78977897789775,136.89093667521465 L 400.1400140014001,138.05472784779883 L 407.79077907790776,138.78209733066396 L 410.8910891089109,137.86076265236815 L 414.34143414341435,135.43619770948442 L 415.2415241524152,134.1754239391849 L 415.3415341534153,132.96314146774304 L 415.2415241524152,131.7023676974435 L 415.5415541554155,130.24762873171326 L 416.69166916691665,128.2594854785486 L 419.29192919291927,124.86509455851142 L 419.7419741974197,123.84677728250026 L 421.0921092109211,125.01056845508444 L 422.8922892289229,128.06552028311793 L 423.8923892389239,129.37478535227513 L 425.3425342534253,130.1991374328556 L 428.7428742874287,130.3931026282863 L 429.6429642964296,131.16896341000907 L 425.79257925792575,138.53964083637558 L 421.992199219922,149.15923528620627 L 417.5417541754175,155.02668244798485 L 416.6416641664166,155.70556063199228 L 413.84138413841384,154.97819114912718 L 413.84138413841384,155.899525827423 L 414.3914391439144,157.35426479315322 L 414.4414441444144,158.5180559657374 L 412.74127412741274,161.18507740290949 L 411.84118411841183,161.76697298920158 L 409.8409840984098,162.300377276636 L 408.6408640864086,163.2217119549318 L 408.5408540854085,164.72494221951973 L 409.29092909290927,166.17968118524996 L 410.5410541054105,167.0525245646881 L 412.8912891289129,168.21631573727228 L 415.9415941594159,171.65919795616716 L 417.8417841784178,173.0654456230397 L 420.7420742074207,173.35639341618574 L 422.54225422542254,171.5622153584518 L 423.9423942394239,168.94368522013738 L 425.59255925592555,166.81006807039972 L 427.7427742774277,166.0826985875346 L 430.4930493049305,166.17968118524996 L 432.993299329933,167.14950716240344 L 436.4436443644364,171.22277626644808 L 439.6439643964396,171.61070665730946 L 445.7445744574457,170.68937197901366 L 448.5948594859486,170.68937197901366 L 450.0950095009501,173.69583250818948 L 451.2951295129513,177.6236277156611 L 453.09530953095305,180.53310564712154 L 454.49544954495445,180.96952733684063 L 457.7457745774577,180.4361230494062 L 459.24592459245923,180.48461434826388 L 460.74607460746074,181.357457727702 L 463.7463746374637,183.73353137172805 L 465.09650965096506,184.12146176258946 L 467.2467246724672,182.8606879922899 L 469.44694469446944,179.99970135968715 L 471.24712471247125,176.60531043964994 L 472.3472347234723,173.64734120933178 L 473.3473347334733,172.09561964588622 L 474.4474447444744,173.59884991047412 L 476.047604760476,177.47815381908808 L 477.5977597759776,177.57513641680342 L 482.4482448244824,175.63548446249644 L 483.4483448344834,176.26587134764623 L 483.69836983698366,176.99324083051133 L 483.3483348334833,177.8175929110918 L 482.4482448244824,178.69043629052993 L 481.79817981798175,180.58159694597924 L 481.6481648164816,183.00616188886295 L 481.89818981898185,185.5762007283197 L 482.4482448244824,187.66132657919968 L 485.69856985698567,190.91024360266385 L 485.49854985498547,195.61389959185829 L 482.4482448244824,205.45763325996617 L 479.84798479847984,211.2765891228871 L 466.7466746674667,225.48453968818566 L 459.8959895989599,236.5890471265931 L 455.99559955995596,241.6806335066489 L 451.5951595159516,245.0750244266861 L 449.54495449544953,239.5955076557689 L 448.4448444844484,236.7345210231661 L 449.4949494949495,227.37570034363497 L 448.994899489949,220.8778662967066 L 451.5951595159516,213.7011540657708 L 448.994899489949,209.38542846743778 L 443.2443244324432,210.1127979503029 L 439.0939093909391,212.9737845829057 L 429.7429742974297,215.10740173264335 L 420.94209420942093,212.24641510004056 L 414.2914291429143,207.68823300741917 L 417.19171917191716,204.68177247824337 L 420.1420142014201,204.68177247824337 L 424.3424342434243,203.37250740908615 L 426.5426542654265,200.60850337419873 L 428.042804280428,195.51691699414292 L 427.29272927292726,192.99536945354387 L 423.24232423242324,192.21950867182107 L 420.1420142014201,188.9221003494992 L 415.9415941594159,185.67318332603503 L 406.040604060406,181.11500123341364 L 394.13941394139414,179.3208231756797 L 390.08900890089006,178.30250589966855 L 381.48814881488147,179.56327966996807 L 375.7875787578758,182.3757750037132 L 367.28672867286724,189.06757424607224 L 363.3863386338634,185.5762007283197 L 358.4358435843584,184.9943051420276 L 352.58525852585257,184.9943051420276 L 347.63476347634764,180.4361230494062 L 342.6342634263426,181.50293162427505 L 341.6341634163416,180.48461434826388 L 340.58405840584055,179.46629707225273 L 340.08400840084005,174.90811497963134 L 340.78407840784075,168.07084184069925 L 343.18431843184317,156.48142141371508 L 342.6342634263426,153.959873873116 L 338.2338233823382,153.959873873116 L 339.3339333933393,145.57087917073835 L 337.2837283728373,137.66679745693745 L 340.9340934093409,133.3995631574621 L 345.0845084508451,135.53318030719976 L 350.28502850285025,131.99331549058954 L 357.5357535753575,133.3995631574621 L 367.9367936793679,124.1377250756463 L 377.68776877687765,117.88234752300632 z" /><path fill-rule="evenodd" fill="#D2EBD9" stroke="#A6A6A6" stroke-width="0.25" opacity="1" d="M 262.57625762576254,453.2966617215397 L 259.4759475947595,457.36993082558433 L 256.025602560256,460.76432174562154 L 252.2252225222522,462.9464301942169 L 247.97479747974796,463.18888668850525 L 245.17451745174517,461.73414772277505 L 240.47404740474047,456.6910526415769 L 237.8237823782378,455.04234848041597 L 236.4236423642364,454.8483832849853 L 233.6233623362336,455.1393310781313 L 227.17271727172715,454.2664876986932 L 226.22262226222622,453.9270486066895 L 226.87268726872685,455.09083977927367 L 228.07280728072806,458.87316109017223 L 225.02250225022502,457.272948227869 L 223.47234723472346,456.9820004347229 L 221.87218721872185,457.563896021015 L 222.77227722772275,458.67919589474155 L 223.17231723172316,459.6975131707527 L 223.022302230223,460.71583044676385 L 222.27222722272225,461.9281129182057 L 221.27212721272127,462.60699110221316 L 220.72207220722072,461.87962161934803 L 220.12201220122012,460.13393486047175 L 215.82158215821582,458.7761784924569 L 213.47134713471345,458.5337219981685 L 211.72117211721172,459.503547975322 L 210.52105210521052,460.52186525133317 L 206.32063206320632,463.2858692862206 L 203.9203920392039,464.3041865622318 L 198.9198919891989,467.6015948845536 L 196.46964696469647,462.1705694124941 L 195.9195919591959,461.39470863077133 L 189.8189818981898,460.9582869410522 L 188.46884688468845,460.13393486047175 L 177.1177117711771,465.4194864359583 L 171.6171617161716,469.58973813771826 L 169.1169116911691,475.0207636097778 L 166.3166316631663,473.0811116554708 L 165.56655665566555,472.4022334714634 L 166.1166116611661,473.953955034909 L 166.2166216621662,475.06925490863546 L 165.56655665566555,477.54231115037686 L 164.31643164316432,475.2147288052085 L 162.96629662966296,476.1360634835043 L 161.4161416141614,478.0757154378113 L 159.51595159515952,478.75459362181874 L 160.06600660066005,477.54231115037686 L 160.36603660366035,476.28153738007734 L 157.7157715771577,475.99058958693126 L 157.015701570157,476.96041556408477 L 157.06570657065706,478.560628426388 L 156.86568656865686,480.01536739211826 L 155.86558655865585,483.79768870301683 L 154.8154815481548,484.8644972778857 L 151.26512651265125,481.8580367487099 L 150.9150915091509,481.0336846681294 L 149.86498649864987,479.5304544035415 L 148.5148514851485,478.0272241389536 L 147.46474647464746,477.3968372538038 L 146.76467646764675,475.36020270178153 L 145.5145514551455,474.48735932234337 L 144.06440644064406,473.85697243719363 L 142.8142814281428,472.5961986668941 L 142.06420642064205,470.4140902182987 L 142.16421642164215,468.8138773559955 L 141.96419641964195,467.50461228683827 L 140.36403640364037,466.04987332110807 L 137.1137113711371,465.66194293024665 L 111.56115611561155,473.27507685090154 L 104.16041604160415,473.5175333451899 L 98.10981098109811,469.3957729422876 L 93.90939093909391,460.0369522627564 L 92.15921592159215,457.272948227869 L 90.8090809080908,456.25463095185785 L 87.4087408740874,455.187822376989 L 86.25862586258626,454.36347029640854 L 85.3085308530853,452.7147661352476 L 85.3085308530853,451.69644885923645 L 85.55855585558555,450.4841663877946 L 85.3085308530853,448.35054923805694 L 84.7084708470847,446.8958102723267 L 82.10821082108211,441.9981890877016 L 80.7080708070807,436.80962010993045 L 81.85818581858186,434.91845945448114 L 81.80818081808181,433.4637204887509 L 81.05810581058105,431.66954243101696 L 78.15781578157815,430.36027736185974 L 72.10721072107211,428.27515151097975 L 70.05700570057006,424.9292518898002 L 70.05700570057006,421.82580876290905 L 71.35713571357135,418.9648221303063 L 75.00750075007501,414.6006052331156 L 79.05790579057906,413.29134016395835 L 87.5087508750875,412.5154793822356 L 96.45964596459645,411.9820750948012 L 100.51005100510051,411.44867080736674 L 108.01080108010801,410.96375781879 L 114.96149614961496,409.89694924392114 L 119.76197619761976,408.87863196791 L 126.51265126512651,407.0844539101761 L 131.86318631863185,403.69006299013887 L 137.5137513751375,398.01658102379093 L 142.46424642464245,391.03383398828583 L 143.76437643764376,386.4271605968068 L 143.76437643764376,376.09851394012213 L 144.46444644464447,374.01338808924214 L 147.76477647764776,374.3043358823882 L 148.86488648864886,372.2192100315082 L 149.41494149414942,364.7515500074264 L 149.26492649264927,345.45201306207196 L 147.96479647964796,342.3970612340385 L 145.6145614561456,335.70526199167944 L 132.96329632963295,334.92940120995667 L 116.6116611661166,341.0877961648813 L 108.9108910891089,343.41537851004966 L 103.96039603960395,343.41537851004966 L 101.4101410141014,343.1244307169036 L 100.86008600860086,339.5360746014357 L 101.96019601960195,336.4811227734022 L 103.7103710371037,334.9778925088143 L 107.66076607660766,331.5835015887771 L 111.3111311131113,327.9951454733092 L 116.8116811681168,323.3884720818302 L 124.71247124712471,318.0059379086283 L 128.16281628162815,315.1934425748832 L 131.3131313131313,315.1934425748832 L 133.3133313331333,314.66003828744874 L 134.76347634763476,312.3809472411381 L 138.8138813881388,304.67083072276785 L 143.36433643364336,303.11910915932225 L 145.76457645764575,302.87665266503393 L 148.7148714871487,300.0641573312888 L 153.81538153815382,296.23334472153255 L 160.4160416041604,292.6449886060646 L 166.46664666466646,289.0566324905967 L 170.3170317031703,287.5534022260088 L 172.36723672367236,283.72258961625255 L 175.26752675267525,281.63746376537256 L 178.21782178217822,280.91009428250743 L 178.96789678967895,276.3034208910284 L 179.1179117911791,270.67843022353816 L 180.96809680968096,268.39933917722743 L 184.46844684468445,267.62347839550466 L 196.36963696369637,265.63533514234 L 198.7198719871987,273.97583854586003 L 199.46994699469946,279.11591622477346 L 198.16981698169815,286.0016806625632 L 191.4191419141914,294.68162315808695 L 188.26882688268824,299.57924434271206 L 184.06840684068405,311.6050864594153 L 182.96829682968297,330.3227278184776 L 183.86838683868385,335.46280549739106 L 187.01870187018702,336.23866627911383 L 193.6193619361936,335.9477184859678 L 195.26952695269526,334.3959969225222 L 198.7198719871987,333.1352231522227 L 206.07060706070607,332.7472927613613 L 212.1212121212121,332.7472927613613 L 216.72167216721672,332.5048362670729 L 220.72207220722072,329.69234093332784 L 224.022402240224,324.0188589669799 L 226.6226622662266,321.69127662181154 L 228.77287728772876,318.8787812880664 L 233.37333733373336,318.63632479377804 L 241.4241424142414,318.63632479377804 L 252.6252625262526,320.6729593458004 L 258.1258125812581,320.430502851512 L 258.37583758375837,320.6244680469427 L 262.5262526252625,323.77640247269153 L 274.2274227422742,330.4197104161929 L 278.8278827882788,334.0080665316608 L 281.9281928192819,337.6449139459864 L 282.47824782478244,342.0091308431771 L 282.47824782478244,346.37334774036776 L 281.77817781778174,351.22247762613523 L 274.2274227422742,358.6901376502171 L 271.5271527152715,363.8787066279882 L 271.5271527152715,368.00046703089055 L 273.7273727372737,373.14054470980403 L 278.2778277827783,382.54785668819284 L 269.1269126912691,380.0263091475938 L 264.37643764376435,382.49936538933514 L 261.32613261326134,388.56077774654443 L 257.1257125712571,399.90774167924025 L 257.025702570257,410.57582742792863 L 258.4258425842584,416.73422238285326 L 262.2262226222622,420.37106979717885 L 262.27622762276224,429.39045138470624 L 259.6259625962596,437.5369895927955 L 259.2759275927593,446.3139146860346 L 262.57625762576254,453.2966617215397 z" /><path fill-rule="evenodd" fill="#D2EBD9" stroke="#A6A6A6" stroke-width="0.25" opacity="1" d="M 80.7080708070807,436.80962010993045 L 80.00800080008,434.2395812704737 L 76.90769076907691,433.41522918989324 L 72.15721572157216,434.482037764762 L 67.25672567256726,436.6156549144997 L 63.656365636563656,438.89474596081044 L 51.95519551955195,450.6296402843676 L 49.7049704970497,453.58760951468577 L 46.954695469546955,460.6673391479062 L 45.004500450045,463.9647474702281 L 43.404340434043405,465.1770299416699 L 40.6040604060406,465.8074168268197 L 39.5039503950395,466.63176890740016 L 39.55395539553955,467.4561209879806 L 40.05400540054005,468.8138773559955 L 40.1040104010401,470.4140902182987 L 39.003900390039,472.014303080602 L 37.453745374537455,472.7901638623248 L 36.053605360536054,472.83865516118243 L 33.1033103310331,472.30525087374804 L 20.85208520852085,472.64468996575175 L 13.95139513951395,471.48089879316757 L 9.75097509750975,467.6500861834113 L 8.3008300830083,463.673799677082 L 8.2008200820082,462.26755201020944 L 8.65086508650865,451.5024836638057 L 8.1008100810081,448.64149703120296 L 5.1005100510051005,440.8343979151174 L 5.05050505050505,437.4400069950802 L 6.600660066006601,431.960490224163 L 6.1006100610061,428.7600644995565 L 2.9002900290029,423.1835651309239 L 1.9001900190019,420.0316307051751 L 2.35023502350235,415.47344861255374 L 4.1004100410041,411.83660119822815 L 6.150615061506151,408.587684174764 L 7.350735073507351,405.14480195586907 L 6.750675067506751,401.9443762312626 L 4.5004500450045,400.9260589552514 L 1.85018501850185,400.1017068746709 L 0.0,397.5801593340719 L 0.15001500150015,394.5736988048961 L 1.6001600160016,391.42176437914725 L 4.8004800480048,386.0392302059454 L 5.5505550555055505,385.1178955276496 L 8.55085508550855,383.0327696767696 L 9.55095509550955,381.38406551560865 L 10.35103510351035,379.54139615901704 L 11.5011501150115,378.37760498643286 L 13.35133513351335,378.6685527795789 L 14.6014601460146,379.0564831704403 L 16.901690169016902,379.25044836587097 L 18.001800180018,379.6383787567324 L 18.95189518951895,380.75367863045886 L 19.6019601960196,382.30540019390446 L 20.502050205020502,383.46919136648864 L 22.1022102210221,383.3237174699156 L 23.002300230023,382.30540019390446 L 24.25242524252425,377.2138138138487 L 25.252525252525253,376.1954965378375 L 26.302630263026302,376.48644433098355 L 27.4027402740274,377.06833991727564 L 28.35283528352835,376.9713573195603 L 29.7029702970297,375.03170536525334 L 30.7030703070307,370.5220145714896 L 32.4032403240324,368.0489583297482 L 33.703370337033704,367.1761149503101 L 35.3035303530353,366.6427106628757 L 38.4038403840384,366.15779767429893 L 40.00400040004,365.4304281914338 L 41.004100410041005,363.73323273141517 L 41.65416541654165,361.4541416851045 L 42.104210421042104,359.07806804107844 L 40.854085408540854,358.35069855821337 L 40.25402540254025,355.9746249141873 L 38.15381538153815,353.2591121781575 L 37.15371537153715,350.34963424669706 L 39.803980398039805,347.53713891295195 L 42.45424542454245,347.19769982094823 L 47.1047104710471,349.2828256718282 L 49.8049804980498,348.7979126832515 L 51.3051305130513,346.8582607289445 L 52.15521552155215,343.7063263031957 L 52.805280528052805,340.1664614865855 L 55.95559555955595,331.3410450944887 L 56.8056805680568,327.9466541744515 L 56.85568556855685,325.1826501395641 L 56.1056105610561,323.87338507040687 L 55.005500550055004,323.19450688639944 L 54.155415541554156,322.41864610467667 L 54.105410541054106,321.0123984378041 L 54.55545554555455,321.5942940240962 L 56.005600560056,321.5458027252385 L 58.3058305830583,320.91541584008877 L 61.006100610061004,319.21822038007014 L 62.356235623562355,317.8119727131976 L 62.7062706270627,316.1632685520367 L 64.9064906490649,317.2300771269055 L 68.1068106810681,316.7451641383288 L 69.65696569656966,317.4240423223362 L 70.5070507050705,319.1212377823548 L 72.35723572357236,321.73976792066924 L 75.4075407540754,321.9337331160999 L 80.00800080008,321.73976792066924 L 82.85828582858285,322.66110259896504 L 87.25872587258725,323.1460155875418 L 91.50915091509151,324.79471974870273 L 97.8097809780978,326.20096741557524 L 99.85998599859985,328.8194975538897 L 102.7102710271027,334.2990143248069 L 103.7103710371037,334.9778925088143 L 101.96019601960195,336.4811227734022 L 100.86008600860086,339.5360746014357 L 101.4101410141014,343.1244307169036 L 103.96039603960395,343.41537851004966 L 108.9108910891089,343.41537851004966 L 116.6116611661166,341.0877961648813 L 132.96329632963295,334.92940120995667 L 145.6145614561456,335.70526199167944 L 147.96479647964796,342.3970612340385 L 149.26492649264927,345.45201306207196 L 149.41494149414942,364.7515500074264 L 148.86488648864886,372.2192100315082 L 147.76477647764776,374.3043358823882 L 144.46444644464447,374.01338808924214 L 143.76437643764376,376.09851394012213 L 143.76437643764376,386.4271605968068 L 142.46424642464245,391.03383398828583 L 137.5137513751375,398.01658102379093 L 131.86318631863185,403.69006299013887 L 126.51265126512651,407.0844539101761 L 119.76197619761976,408.87863196791 L 114.96149614961496,409.89694924392114 L 108.01080108010801,410.96375781879 L 100.51005100510051,411.44867080736674 L 96.45964596459645,411.9820750948012 L 87.5087508750875,412.5154793822356 L 79.05790579057906,413.29134016395835 L 75.00750075007501,414.6006052331156 L 71.35713571357135,418.9648221303063 L 70.05700570057006,421.82580876290905 L 70.05700570057006,424.9292518898002 L 72.10721072107211,428.27515151097975 L 78.15781578157815,430.36027736185974 L 81.05810581058105,431.66954243101696 L 81.80818081808181,433.4637204887509 L 81.85818581858186,434.91845945448114 L 80.7080708070807,436.80962010993045 z" /><path fill-rule="evenodd" fill="#D2EBD9" stroke="#A6A6A6" stroke-width="0.25" opacity="1" d="M 262.57625762576254,453.2966617215397 L 259.2759275927593,446.3139146860346 L 259.6259625962596,437.5369895927955 L 262.27622762276224,429.39045138470624 L 262.2262226222622,420.37106979717885 L 258.4258425842584,416.73422238285326 L 257.025702570257,410.57582742792863 L 257.1257125712571,399.90774167924025 L 261.32613261326134,388.56077774654443 L 264.37643764376435,382.49936538933514 L 269.1269126912691,380.0263091475938 L 278.2778277827783,382.54785668819284 L 282.67826782678264,383.80863045849236 L 289.2789278927893,383.3237174699156 L 294.57945794579456,382.54785668819284 L 298.979897989799,378.4260962852905 L 303.2303230323032,371.200892755497 L 307.5807580758076,361.6481068805352 L 310.18101810181014,357.2838899833445 L 313.68136813681366,356.79897699476777 L 319.5319531953195,356.5080292016217 L 329.38293829382934,356.5080292016217 L 335.2835283528353,356.2655727073334 L 341.88418841884186,357.8172942707789 L 342.6342634263426,361.93905467368126 L 341.88418841884186,366.5457280651603 L 338.38383838383834,370.66748846806263 L 332.7332733273327,372.4616665257966 L 320.98209820982095,376.6319182275566 L 309.98099809980994,381.2385916190356 L 304.68046804680466,384.09957825163843 L 302.68026802680265,386.4271605968068 L 302.68026802680265,391.5672382757203 L 303.58035803580356,394.6706814026114 L 308.73087308730874,395.4465421843342 L 314.18141814181416,395.97994647176864 L 324.28242824282427,395.97994647176864 L 329.4329432943294,397.24072024206816 L 332.5332533253325,402.18683272555097 L 335.2835283528353,410.1878970370672 L 337.13371337133714,414.84306172740395 L 340.4340434043404,417.1706440725723 L 343.5343534353435,418.47990914172954 L 351.58515851585156,418.0434874520105 L 355.985598559856,416.7827136817109 L 355.985598559856,410.57582742792863 L 357.4357435743574,408.73315807133696 L 360.9360936093609,408.4907015770486 L 364.03640364036403,409.2665623587714 L 368.6368636863686,411.3516882096514 L 375.7875787578758,410.818283922217 L 383.4883488348835,408.73315807133696 L 388.4388438843884,405.14480195586907 L 391.1391139113911,413.67927055481977 L 387.78877887788775,413.9702183479658 L 385.23852385238524,414.50362263540023 L 384.83848384838484,418.3829265440142 L 381.48814881488147,421.7288261651937 L 375.987598759876,424.7837779932272 L 370.48704870487046,424.7837779932272 L 365.33653365336534,426.72342994753416 L 360.2360236023602,430.65122515500576 L 354.5354535453545,437.34302439736484 L 354.1354135413541,443.16198026028576 L 354.3354335433543,445.29559741002345 L 352.3352335233523,446.6048624791806 L 350.48504850485045,448.59300573234526 L 349.4349434943494,446.21693208831925 L 348.6348634863486,442.0466803865593 L 345.4845484548455,440.39797622539834 L 337.5837583758376,437.34302439736484 L 335.033503350335,430.89368164929414 L 328.1828182818282,430.89368164929414 L 325.4325432543254,431.47557723558623 L 322.2322232223222,437.05207660421877 L 319.48194819481944,440.10702843225226 L 317.13171317131713,442.0466803865593 L 314.78147814781477,442.3376281797053 L 313.18131813181316,444.85917572030434 L 311.2311231123112,449.85377950264484 L 311.031103110311,450.9205880775136 L 309.4809480948095,450.9205880775136 L 306.980698069807,451.4539923649481 L 304.18041804180416,452.7632574341053 L 297.0797079707971,459.21260018217595 L 295.029502950295,460.2794087570448 L 293.029302930293,460.2794087570448 L 291.1291129112911,459.26109148103365 L 283.3283328332833,449.85377950264484 L 281.2281228122812,447.8656362494802 L 280.12801280128014,447.2837406631881 L 276.6276627662766,446.6048624791806 L 272.8272827282728,445.0046496168774 L 271.57715771577153,444.85917572030434 L 268.976897689769,445.9259842951732 L 266.67666766676666,448.05960144491087 L 262.57625762576254,453.2966617215397 z" /><g><path fill-rule="evenodd" fill="#D2EBD9" stroke="#A6A6A6" stroke-width="0.25" opacity="1" d="M 354.3354335433543,445.29559741002345 L 354.1354135413541,443.16198026028576 L 354.5354535453545,437.34302439736484 L 360.2360236023602,430.65122515500576 L 365.33653365336534,426.72342994753416 L 370.48704870487046,424.7837779932272 L 375.987598759876,424.7837779932272 L 381.48814881488147,421.7288261651937 L 384.83848384838484,418.3829265440142 L 385.23852385238524,414.50362263540023 L 387.78877887788775,413.9702183479658 L 391.1391139113911,413.67927055481977 L 392.4892489248925,412.5639706810933 L 393.0893089308931,410.0909144393519 L 392.6892689268927,406.4540670250263 L 392.6892689268927,404.51441507071934 L 395.8395839583958,404.51441507071934 L 399.58995899589956,407.86031469189885 L 400.49004900490047,410.7697926233593 L 397.38973897389735,412.8549184742393 L 392.93929392939293,417.55857446343373 L 391.5891589158916,422.74714344120486 L 392.4892489248925,424.5413214989388 L 395.2895289528953,426.67493864867646 L 395.68956895689564,428.46911670641043 L 395.48954895489544,429.0995035915602 L 394.53945394539454,430.4572599595751 L 394.4894489448945,431.960490224163 L 393.6893689368937,434.2395812704737 L 393.13931393139313,434.7244942590504 L 392.2892289228923,435.0639333510542 L 388.68886888688866,435.4033724430579 L 387.18871887188715,436.0822506270653 L 385.63856385638564,437.92491998365693 L 380.88808880888087,447.72016235290715 L 380.2380238023802,448.5445144334876 L 379.48794879487946,449.0294274220644 L 378.58785878587855,448.93244482434903 L 377.9377937793779,448.25356664034155 L 376.9376937693769,445.1986148123081 L 375.6875687568757,444.5682279271583 L 374.63746374637464,445.05314091573507 L 373.7873787378738,446.21693208831925 L 373.037303730373,447.72016235290715 L 372.18721872187217,450.0477446980755 L 371.58715871587157,450.872096778656 L 370.6370637063706,451.35700976723274 L 369.78697869786976,451.163044571802 L 367.1367136713671,449.75679690492944 L 366.0866086608661,449.80528820378714 L 362.986298629863,450.38718379007923 L 361.1361136113611,449.56283170949877 L 361.08610861086106,447.96261884719553 L 361.68616861686166,445.7805103986002 L 361.9361936193619,443.21047155914346 L 358.8358835883588,443.3074541568588 L 355.4855485548555,444.5682279271583 L 354.3354335433543,445.29559741002345 z" /><path fill-rule="evenodd" fill="#D2EBD9" stroke="#A6A6A6" stroke-width="0.25" opacity="1" d="M 350.48504850485045,448.59300573234526 L 347.5847584758476,451.7449401580941 L 345.3845384538454,453.58760951468577 L 342.9342934293429,454.70290938841225 L 333.88338833883387,455.478770170135 L 331.98319831983196,456.3031222507155 L 326.1826182618262,460.52186525133317 L 323.08230823082306,461.73414772277505 L 319.9319931993199,461.10376083762526 L 318.53185318531854,459.30958277989134 L 318.23182318231824,457.0789830324383 L 318.13181318131814,454.75140068726995 L 317.2817281728173,452.86024003182064 L 315.031503150315,451.4539923649481 L 312.28122812281225,450.872096778656 L 311.031103110311,450.9205880775136 L 311.2311231123112,449.85377950264484 L 313.18131813181316,444.85917572030434 L 314.78147814781477,442.3376281797053 L 317.13171317131713,442.0466803865593 L 319.48194819481944,440.10702843225226 L 322.2322232223222,437.05207660421877 L 325.4325432543254,431.47557723558623 L 328.1828182818282,430.89368164929414 L 335.033503350335,430.89368164929414 L 337.5837583758376,437.34302439736484 L 345.4845484548455,440.39797622539834 L 348.6348634863486,442.0466803865593 L 349.4349434943494,446.21693208831925 L 350.48504850485045,448.59300573234526 z" /></g><path fill-rule="evenodd" fill="#D2EBD9" stroke="#A6A6A6" stroke-width="0.25" opacity="1" d="M 400.49004900490047,410.7697926233593 L 399.58995899589956,407.86031469189885 L 395.8395839583958,404.51441507071934 L 392.6892689268927,404.51441507071934 L 392.6892689268927,406.4540670250263 L 393.0893089308931,410.0909144393519 L 392.4892489248925,412.5639706810933 L 391.1391139113911,413.67927055481977 L 388.4388438843884,405.14480195586907 L 390.28902890289027,397.6286506329296 L 390.98909890989097,390.4034471031361 L 391.9391939193919,387.3000039762449 L 395.58955895589554,387.05754748195653 L 397.8397839783978,389.91853411455935 L 399.78997899789977,391.37327308028955 L 406.1406140614061,391.906677367724 L 409.09090909090907,394.137277115177 L 410.7410741074107,398.98640700094444 L 412.6912691269127,402.1383414266933 L 415.59155915591555,403.4476064958505 L 417.5417541754175,404.85385416272305 L 417.49174917491746,408.3452276804756 L 406.59065906590655,408.0542798873295 L 402.5902590259026,409.41203625534445 L 400.49004900490047,410.7697926233593 z" /><path fill-rule="evenodd" fill="#D2EBD9" stroke="#A6A6A6" stroke-width="0.25" opacity="1" d="M 417.49174917491746,408.3452276804756 L 417.5417541754175,404.85385416272305 L 415.59155915591555,403.4476064958505 L 412.6912691269127,402.1383414266933 L 410.7410741074107,398.98640700094444 L 409.09090909090907,394.137277115177 L 406.1406140614061,391.906677367724 L 399.78997899789977,391.37327308028955 L 397.8397839783978,389.91853411455935 L 395.58955895589554,387.05754748195653 L 395.7395739573957,383.9541043550654 L 394.83948394839484,379.83234395216306 L 387.68876887688765,375.1771792618263 L 386.2386238623862,373.14054470980403 L 386.038603860386,369.0187843069017 L 387.3387338733873,365.3819368925761 L 392.2892289228923,360.5328070068087 L 399.2399239923992,352.2892862010041 L 401.2401240124012,350.4951081432701 L 403.84038403840384,350.4951081432701 L 406.7406740674067,351.998338407858 L 410.4410441044104,358.4476811559287 L 412.7912791279128,364.1211631222766 L 414.4414441444144,366.9336584560217 L 419.041904190419,368.00046703089055 L 423.64236423642365,366.9336584560217 L 424.5424542454245,364.1211631222766 L 424.69246924692465,355.15027283360683 L 426.7426742674267,356.2655727073334 L 430.2930293029303,358.7871202479324 L 433.44334433443345,359.9024201216589 L 435.49354935493545,359.3690158342245 L 439.5439543954395,356.45953790276405 L 442.2942294229423,352.82269048843847 L 443.7443744374437,349.8647212581203 L 444.4444444444444,351.27096892499287 L 444.69446944694465,352.5802339941501 L 444.59445944594455,355.4412206267529 L 444.8444844484448,356.65350309819473 L 445.49454945494546,357.4778551787752 L 446.8446844684468,358.30220725935567 L 447.4447444744474,358.88410284564776 L 453.49534953495345,369.16425820347473 L 455.29552955295526,374.59528367553423 L 456.29562956295626,376.24398783669517 L 457.6457645764576,377.6987268024254 L 460.24602460246024,379.88083525102076 L 461.44614461446145,381.77199590647007 L 462.79627962796275,385.1178955276496 L 467.2967296729673,406.89048871474535 L 467.8467846784678,407.7148407953258 L 468.4968496849685,407.9088059907565 L 468.94689468946893,408.39371897933324 L 468.84688468846883,410.2363883359249 L 468.4968496849685,411.7396186005128 L 467.9467946794679,412.75793587652396 L 465.9465946594659,414.89155302626165 L 465.9465946594659,414.7460791296886 L 465.59655965596556,414.5521139342579 L 464.29642964296426,414.4066400376849 L 462.99629962996295,414.84306172740395 L 460.44604460446044,417.31611796914535 L 459.2959295929593,417.31611796914535 L 458.2458245824582,416.7827136817109 L 457.09570957095707,416.5887484862802 L 451.3951395139514,417.8010309577221 L 450.14501450145013,417.55857446343373 L 447.8447844784478,416.5887484862802 L 446.59465946594656,416.5887484862802 L 445.9445944594459,417.4615918657184 L 445.4445444544454,418.9648221303063 L 444.6444644464446,420.0801220040328 L 443.044304430443,419.69219161317136 L 431.54315431543154,411.3031969107937 L 429.4929492949295,410.52733612907093 L 426.8426842684268,410.1394057382095 L 421.34213421342133,408.44221027819094 L 417.49174917491746,408.3452276804756 z" /><path fill-rule="evenodd" fill="#D2EBD9" stroke="#A6A6A6" stroke-width="0.25" opacity="1" d="M 62.7062706270627,316.1632685520367 L 62.406240624062406,313.0598254251455 L 61.95619561956195,311.5565951605576 L 60.65606560656065,308.64711722909715 L 60.3060306030603,306.7074652747902 L 60.4060406040604,303.9919525387604 L 61.6061606160616,298.3669618712702 L 64.006400640064,290.70533665175765 L 66.1066106610661,287.65038482372415 L 71.65716571657165,281.63746376537256 L 73.5073507350735,278.3885467419084 L 76.35763576357635,271.4057997064033 L 78.25782578257825,268.25386528065445 L 80.7080708070807,265.78080903891305 L 82.15821582158216,264.61701786632887 L 83.4083408340834,263.93813968232143 L 84.8084808480848,263.7926657857484 L 88.1088108810881,264.0351222800368 L 89.4089408940894,263.5017179926023 L 91.05910591059106,260.7862052565726 L 91.65916591659166,258.16767511825816 L 92.7092709270927,256.0340579685205 L 98.30983098309831,253.99742341649818 L 100.56005600560056,252.2517366576219 L 102.56025602560256,249.92415431245354 L 107.56075607560756,242.40800298951402 L 113.86138613861385,235.9586602414433 L 118.011801180118,230.1397043785224 L 123.3123312331233,225.2420831938973 L 124.26242624262426,222.62355305558287 L 124.76247624762476,219.66558382526475 L 125.8125812581258,215.88326251436615 L 127.66276627662765,212.92529328404802 L 141.9141914191419,201.5783293513522 L 162.16621662166216,180.72707084255225 L 168.41684168416842,173.4533760139011 L 172.46724672467246,169.76803730071785 L 179.5179517951795,173.0654456230397 L 186.16861686168616,173.0654456230397 L 191.91919191919192,174.66565848534296 L 193.96939693969395,176.3143626465039 L 197.01970197019702,175.3930279682081 L 197.86978697869785,173.2594108184704 L 199.36993699369935,171.65919795616716 L 202.77027702770275,171.65919795616716 L 207.37073707370735,173.74432380704715 L 210.42104210421041,175.63548446249644 L 214.6214621462146,177.9630668076648 L 217.5217521752175,178.44797979624155 L 221.07210721072107,178.44797979624155 L 225.47254725472547,179.36931447453736 L 228.37283728372836,180.2906491528332 L 230.07300730073007,183.58805747515504 L 231.9231923192319,185.9156398203234 L 232.47324732473245,189.64946983236433 L 232.47324732473245,191.49213918895595 L 232.47324732473245,192.51045646496712 L 229.07290729072906,195.80786478728896 L 227.37273727372735,198.8143253164648 L 223.47234723472346,203.76043779994757 L 221.42214221422142,207.25181131770012 L 217.87178717871785,208.2216372948536 L 214.6214621462146,208.2216372948536 L 214.6214621462146,212.1979238011829 L 213.27132713271325,214.8164539394973 L 213.27132713271325,220.63540980241822 L 213.6213621362136,225.38755709047032 L 214.4214421442144,227.2787177459196 L 214.8214821482148,228.15156112535774 L 218.021802180218,228.39401761964612 L 220.42204220422042,226.98776995277356 L 224.1224122412241,225.581522285901 L 223.3223322332233,228.73345671164984 L 222.6222622262226,231.44896944767962 L 219.07190719071906,237.1224514140275 L 212.27122712271225,237.60736440260425 L 210.07100710071006,239.69249025348424 L 206.52065206520652,243.7172680586712 L 205.82058205820582,247.45109807071213 L 204.6204620462046,248.90583703644236 L 202.77027702770275,252.3972105541949 L 202.6202620262026,254.77328419822098 L 201.77017701770177,256.66444485367026 L 199.36993699369935,259.2829749919847 L 197.16971697169717,263.25926149831395 L 196.36963696369637,265.63533514234 L 184.46844684468445,267.62347839550466 L 180.96809680968096,268.39933917722743 L 179.1179117911791,270.67843022353816 L 178.96789678967895,276.3034208910284 L 178.21782178217822,280.91009428250743 L 175.26752675267525,281.63746376537256 L 172.36723672367236,283.72258961625255 L 170.3170317031703,287.5534022260088 L 166.46664666466646,289.0566324905967 L 160.4160416041604,292.6449886060646 L 153.81538153815382,296.23334472153255 L 148.7148714871487,300.0641573312888 L 145.76457645764575,302.87665266503393 L 143.36433643364336,303.11910915932225 L 138.8138813881388,304.67083072276785 L 134.76347634763476,312.3809472411381 L 133.3133313331333,314.66003828744874 L 131.3131313131313,315.1934425748832 L 128.16281628162815,315.1934425748832 L 124.71247124712471,318.0059379086283 L 116.8116811681168,323.3884720818302 L 111.3111311131113,327.9951454733092 L 107.66076607660766,331.5835015887771 L 103.7103710371037,334.9778925088143 L 102.7102710271027,334.2990143248069 L 99.85998599859985,328.8194975538897 L 97.8097809780978,326.20096741557524 L 91.50915091509151,324.79471974870273 L 87.25872587258725,323.1460155875418 L 82.85828582858285,322.66110259896504 L 80.00800080008,321.73976792066924 L 75.4075407540754,321.9337331160999 L 72.35723572357236,321.73976792066924 L 70.5070507050705,319.1212377823548 L 69.65696569656966,317.4240423223362 L 68.1068106810681,316.7451641383288 L 64.9064906490649,317.2300771269055 L 62.7062706270627,316.1632685520367 z" /><path fill-rule="evenodd" fill="#D2EBD9" stroke="#A6A6A6" stroke-width="0.25" opacity="1" d="M 172.46724672467246,169.76803730071785 L 175.3175317531753,167.24648976011878 L 182.76827682768277,162.97925546064346 L 195.16951695169516,161.08809480519415 L 199.1199119911991,158.3725820691644 L 201.17011701170117,153.814399976543 L 198.76987698769875,139.02455382495233 L 201.62016201620162,130.1991374328556 L 206.62066206620662,122.6344948110584 L 211.82118211821182,117.7368736264333 L 214.4214421442144,116.08816946527236 L 215.77157715771577,114.82739569497284 L 216.62166216621662,112.98472633838121 L 217.67176717671765,109.3963702229133 L 219.17191719171916,106.0019793028761 L 221.12211221122112,103.67439695770773 L 239.72397239723972,91.35760704785845 L 241.1241124112411,89.70890288669752 L 245.12451245124512,95.38238485304542 L 248.22482248224821,102.85004487712727 L 249.57495749574957,109.83279191263237 L 247.87478747874786,114.97286959154586 L 243.97439743974397,119.38557778759422 L 240.77407740774075,120.06445597160166 L 239.07390739073907,125.20453365051513 L 239.37393739373937,128.21099417969094 L 240.77407740774075,129.6172418465635 L 243.82438243824382,129.37478535227513 L 246.7246724672467,128.21099417969094 L 252.97529752975296,127.28965950139514 L 260.62606260626063,126.80474651281838 L 260.62606260626063,130.34461132942863 L 259.0759075907591,134.757319525477 L 257.57575757575756,137.76378005465278 L 256.025602560256,141.4976100666937 L 255.7255725572557,146.34673995246115 L 254.82548254825483,151.82625672337835 L 249.42494249424942,152.6991001028165 L 247.37473747374736,154.15383906854672 L 247.024702470247,154.15383906854672 L 245.67456745674565,157.1602995977225 L 245.02450245024502,159.48788194289088 L 242.1242124212421,161.3790425983402 L 239.77397739773977,165.59778559895787 L 237.87378737873786,168.60424612813367 L 235.17351735173517,168.3617896338453 L 233.27332733273326,169.3316156109988 L 233.47334733473346,172.82298912875135 L 234.67346734673467,173.50186731275878 L 240.77407740774075,173.50186731275878 L 241.6241624162416,174.47169328991225 L 241.6241624162416,180.77556214140992 L 239.57395739573957,183.83051396944342 L 239.57395739573957,188.72813515406853 L 237.7237723772377,191.783086982102 L 234.67346734673467,192.02554347639037 L 232.47324732473245,191.49213918895595 L 232.47324732473245,189.64946983236433 L 231.9231923192319,185.9156398203234 L 230.07300730073007,183.58805747515504 L 228.37283728372836,180.2906491528332 L 225.47254725472547,179.36931447453736 L 221.07210721072107,178.44797979624155 L 217.5217521752175,178.44797979624155 L 214.6214621462146,177.9630668076648 L 210.42104210421041,175.63548446249644 L 207.37073707370735,173.74432380704715 L 202.77027702770275,171.65919795616716 L 199.36993699369935,171.65919795616716 L 197.86978697869785,173.2594108184704 L 197.01970197019702,175.3930279682081 L 193.96939693969395,176.3143626465039 L 191.91919191919192,174.66565848534296 L 186.16861686168616,173.0654456230397 L 179.5179517951795,173.0654456230397 L 172.46724672467246,169.76803730071785 z" /><path fill-rule="evenodd" fill="#D2EBD9" stroke="#A6A6A6" stroke-width="0.25" opacity="1" d="M 443.7443744374437,349.8647212581203 L 442.2942294229423,352.82269048843847 L 439.5439543954395,356.45953790276405 L 435.49354935493545,359.3690158342245 L 433.44334433443345,359.9024201216589 L 430.2930293029303,358.7871202479324 L 426.7426742674267,356.2655727073334 L 424.69246924692465,355.15027283360683 L 424.3424342434243,341.2332700614543 L 423.24232423242324,338.6632312219976 L 419.9419941994199,335.8507358882525 L 417.7417741774177,334.92940120995667 L 414.0914091409141,331.8259580830655 L 410.7910791079108,329.7893235310432 L 405.6405640564056,329.5468670367548 L 399.98999899989997,327.9951454733092 L 398.3398339833983,323.63092857611855 L 395.9395939593959,320.285028954939 L 392.0892089208921,318.0059379086283 L 389.18891889188916,317.47253362119386 L 388.038803880388,314.4175817931604 L 388.98889888988896,306.9984130679362 L 390.98909890989097,302.3917396764572 L 392.83928392839283,297.49411849183207 L 394.13941394139414,291.86912782434183 L 393.3893389338934,285.75922416827484 L 390.6390639063906,280.37668999507304 L 390.3390339033903,280.08574220192696 L 388.6388638863886,278.3400554430507 L 386.98869886988695,274.9941558218712 L 398.039803980398,272.8605386721335 L 408.99089908990896,269.95106074067303 L 421.44214421442143,261.9984877280144 L 437.043704370437,253.31854523249072 L 443.2443244324432,246.82071118556237 L 449.54495449544953,239.5955076557689 L 451.5951595159516,245.0750244266861 L 450.0950095009501,246.04485040383958 L 451.54515451545154,247.45109807071213 L 451.84518451845184,248.71187184101169 L 451.24512451245124,250.94247158846468 L 451.1951195119512,252.20324535876424 L 451.8951895189519,253.9004408187828 L 452.99529952995294,254.918758094794 L 455.6455645564556,255.79160147423212 L 457.5457545754575,255.88858407194746 L 459.1959195919592,255.2581971867977 L 462.4462446244624,252.93061484162934 L 465.79657965796576,249.82717171473817 L 467.4467446744674,248.80885443872702 L 469.2969296929693,248.90583703644236 L 471.1971197119712,249.48773262273446 L 477.997799779978,249.9726456113112 L 485.29852985298527,249.24527612844608 L 488.44884488448844,249.48773262273446 L 491.4491449144914,250.60303249646097 L 496.74967496749673,254.57931900279027 L 498.8998899889989,257.003883945674 L 500.0,259.91336187713443 L 499.04990499049904,263.25926149831395 L 497.44974497449743,264.7140004640442 L 496.2996299629963,264.3260700731828 L 495.049504950495,262.72585721087955 L 493.8493849384938,263.69568318803306 L 491.7491749174917,266.2657220274898 L 487.5987598759876,268.6902869703735 L 484.5484548454845,273.1999777641372 L 482.5482548254825,275.0911384195865 L 481.7481748174817,276.206438293313 L 481.4481448144814,279.40686401791953 L 480.3980398039804,280.8131116847921 L 479.5979597959796,280.8131116847921 L 478.14781478147813,279.3098814202042 L 477.3977397739774,279.11591622477346 L 476.4976497649765,279.6008292133502 L 475.1475147514751,281.00707688022277 L 469.54695469546954,285.1288372831251 L 467.1467146714671,287.65038482372415 L 466.3466346634663,289.9779671688925 L 466.046604660466,293.5663232843604 L 464.49644964496446,297.44562719297437 L 462.2462246224622,300.69454421643854 L 460.0960096009601,302.4887222741725 L 458.64586458645863,302.77967006731853 L 454.49544954495445,301.8098440901651 L 452.69526952695264,301.9068266878804 L 451.54515451545154,302.24626577988414 L 448.8948894889489,303.604022147899 L 443.39433943394334,304.8163046193409 L 440.84408440844084,305.98009579192507 L 438.49384938493847,308.7925911256702 L 435.6435643564356,314.9509860805948 L 434.69346934693465,318.5393421960627 L 434.4434443444344,321.9337331160999 L 435.5435543554355,325.66756312814084 L 437.29372937293726,327.9466541744515 L 438.8438843884388,330.56518431276595 L 439.0939093909391,335.46280549739106 L 437.043704370437,343.4638698089073 L 437.3437343734373,346.2763651426524 L 441.8941894189419,347.7795954072403 L 442.8942894289429,348.6524387866785 L 443.7443744374437,349.8647212581203 z" /><path fill-rule="evenodd" fill="#D2EBD9" stroke="#A6A6A6" stroke-width="0.25" opacity="1" d="M 196.36963696369637,265.63533514234 L 197.16971697169717,263.25926149831395 L 199.36993699369935,259.2829749919847 L 201.77017701770177,256.66444485367026 L 202.6202620262026,254.77328419822098 L 202.77027702770275,252.3972105541949 L 204.6204620462046,248.90583703644236 L 205.82058205820582,247.45109807071213 L 206.52065206520652,243.7172680586712 L 210.07100710071006,239.69249025348424 L 212.27122712271225,237.60736440260425 L 219.07190719071906,237.1224514140275 L 222.6222622262226,231.44896944767962 L 223.3223322332233,228.73345671164984 L 225.57255725572557,228.20005242421541 L 231.77317731773175,224.56320500988986 L 235.02350235023502,224.9996266996089 L 237.67376737673766,225.82397878018938 L 240.9240924092409,226.45436566533914 L 246.8246824682468,224.9996266996089 L 251.9251925192519,221.94467487157544 L 256.27562756275626,220.48993590584521 L 261.22612261226124,221.12032279099498 L 264.47644764476445,223.88432682588243 L 268.4768476847685,224.95113540075124 L 274.67746774677465,224.95113540075124 L 278.5778577857786,224.5147137110322 L 279.82798279827983,222.81751825101358 L 281.8281828182818,217.6774405721001 L 285.37853785378536,213.79813666348616 L 289.8789878987899,212.73132808861732 L 293.47934793479345,213.50718887034012 L 294.07940794079406,215.73778861779311 L 295.6295629562956,217.6774405721001 L 300.58005800580054,218.11386226181918 L 304.58045804580456,219.61709252640708 L 308.63086308630864,222.62355305558287 L 311.4311431143114,223.69036163045172 L 313.1313131313131,225.38755709047032 L 313.7313731373137,227.1332438493466 L 313.58135813581356,230.1397043785224 L 312.48124812481245,235.71620374715494 L 311.38113811381135,236.92848621859682 L 309.88098809880984,236.5890471265931 L 308.33083308330833,236.5890471265931 L 307.2307230723072,239.15908596604982 L 304.1304130413041,244.2991636449633 L 303.030303030303,245.60842871412052 L 300.4300430043004,245.60842871412052 L 300.4300430043004,247.3541154729968 L 299.02990299029904,249.24527612844608 L 299.32993299329934,250.99096288732235 L 299.02990299029904,253.5610017267791 L 297.92979297929793,254.6763016005056 L 292.2292229222922,254.43384510621723 L 290.67906790679064,263.69568318803306 L 289.0789078907891,265.44136994690933 L 285.5285528552855,265.44136994690933 L 283.07830783078305,266.94460021149723 L 281.17811781178114,273.830364649287 L 281.17811781178114,276.4488947876014 L 279.02790279027903,276.8853164773205 L 275.3275327532753,276.206438293313 L 267.7267726772677,283.5771157196795 L 266.17661766176616,287.89284131801253 L 265.87658765876586,297.203170698686 L 266.47664766476646,304.7678133204832 L 266.026602660266,308.01673034394736 L 263.37633763376334,311.2656473674116 L 260.8760876087609,313.83568620686833 L 259.5259525952595,317.9574466097706 L 258.37583758375837,320.6244680469427 L 258.1258125812581,320.430502851512 L 252.6252625262526,320.6729593458004 L 241.4241424142414,318.63632479377804 L 233.37333733373336,318.63632479377804 L 228.77287728772876,318.8787812880664 L 226.6226622662266,321.69127662181154 L 224.022402240224,324.0188589669799 L 220.72207220722072,329.69234093332784 L 216.72167216721672,332.5048362670729 L 212.1212121212121,332.7472927613613 L 206.07060706070607,332.7472927613613 L 198.7198719871987,333.1352231522227 L 195.26952695269526,334.3959969225222 L 193.6193619361936,335.9477184859678 L 187.01870187018702,336.23866627911383 L 183.86838683868385,335.46280549739106 L 182.96829682968297,330.3227278184776 L 184.06840684068405,311.6050864594153 L 188.26882688268824,299.57924434271206 L 191.4191419141914,294.68162315808695 L 198.16981698169815,286.0016806625632 L 199.46994699469946,279.11591622477346 L 198.7198719871987,273.97583854586003 L 196.36963696369637,265.63533514234 z" /><path fill-rule="evenodd" fill="#D2EBD9" stroke="#A6A6A6" stroke-width="0.25" opacity="1" d="M 258.37583758375837,320.6244680469427 L 259.5259525952595,317.9574466097706 L 260.8760876087609,313.83568620686833 L 263.37633763376334,311.2656473674116 L 266.026602660266,308.01673034394736 L 266.47664766476646,304.7678133204832 L 265.87658765876586,297.203170698686 L 266.17661766176616,287.89284131801253 L 267.7267726772677,283.5771157196795 L 275.3275327532753,276.206438293313 L 279.02790279027903,276.8853164773205 L 281.17811781178114,276.4488947876014 L 281.17811781178114,273.830364649287 L 283.07830783078305,266.94460021149723 L 285.5285528552855,265.44136994690933 L 289.0789078907891,265.44136994690933 L 290.67906790679064,263.69568318803306 L 292.2292229222922,254.43384510621723 L 297.92979297929793,254.6763016005056 L 299.02990299029904,253.5610017267791 L 299.32993299329934,250.99096288732235 L 299.02990299029904,249.24527612844608 L 300.4300430043004,247.3541154729968 L 300.4300430043004,245.60842871412052 L 303.030303030303,245.60842871412052 L 304.1304130413041,244.2991636449633 L 307.2307230723072,239.15908596604982 L 308.33083308330833,236.5890471265931 L 309.88098809880984,236.5890471265931 L 311.38113811381135,236.92848621859682 L 311.1311131113111,237.21943401174286 L 310.78107810781074,238.91662947176147 L 312.3312331233123,240.46835103520704 L 313.7313731373137,240.46835103520704 L 315.58155815581557,241.2927031157875 L 316.6816681668167,243.03838987466378 L 316.6816681668167,247.74204586385818 L 317.63176317631763,251.18492808275306 L 321.48214821482145,252.49419315191028 L 325.8325832583258,252.30022795647957 L 330.9330933093309,252.49419315191028 L 334.5334533453345,254.43384510621723 L 336.0836083608361,256.37349706052424 L 335.8835883588359,262.19245292344516 L 336.0836083608361,264.7624917629019 L 337.5837583758376,266.07175683205907 L 343.3343334333433,266.07175683205907 L 345.4845484548455,267.81744359093534 L 347.23472347234724,271.0663606143995 L 349.08490849084905,273.39394295956794 L 353.8853885388539,273.39394295956794 L 356.4856485648565,272.9575212698488 L 358.5358535853585,271.26032580983025 L 360.5360536053605,268.25386528065445 L 361.78617861786176,265.8777916366284 L 363.9363936393639,264.3745613720405 L 367.036703670367,263.69568318803306 L 367.78677867786774,262.33792682001814 L 372.4872487248725,262.5318920154489 L 377.08770877087704,265.2958960503363 L 382.7382738273827,271.21183451097255 L 386.98869886988695,274.9941558218712 L 388.6388638863886,278.3400554430507 L 390.3390339033903,280.08574220192696 L 387.3387338733873,284.4499590991177 L 380.2380238023802,284.4499590991177 L 371.38713871387137,284.01353740939857 L 368.7368736873687,285.0803459842674 L 367.5367536753675,288.7656846974507 L 363.9363936393639,288.7656846974507 L 361.18611861186116,289.3960715826004 L 360.5360536053605,290.2689149620386 L 360.5360536053605,295.4574839398097 L 358.68586858685865,301.71286149244975 L 357.58575857585754,308.01673034394736 L 355.13551355135513,310.15034749368505 L 350.78507850785076,312.3324559422804 L 347.6847684768477,312.96284282743017 L 344.4344434443444,316.6481815406134 L 342.88428842884286,320.3335202537967 L 342.88428842884286,323.58243727726085 L 341.9341934193419,327.0738107950134 L 340.08400840084005,328.3830758641706 L 333.7333733373337,328.14061936988224 L 331.7331733173317,329.69234093332784 L 330.48304830483045,333.37767964651107 L 330.3330333033303,345.11257397006824 L 329.2329232923292,348.11903449924404 L 329.38293829382934,356.5080292016217 L 319.5319531953195,356.5080292016217 L 313.68136813681366,356.79897699476777 L 310.18101810181014,357.2838899833445 L 307.5807580758076,361.6481068805352 L 303.2303230323032,371.200892755497 L 298.979897989799,378.4260962852905 L 294.57945794579456,382.54785668819284 L 289.2789278927893,383.3237174699156 L 282.67826782678264,383.80863045849236 L 278.2778277827783,382.54785668819284 L 273.7273727372737,373.14054470980403 L 271.5271527152715,368.00046703089055 L 271.5271527152715,363.8787066279882 L 274.2274227422742,358.6901376502171 L 281.77817781778174,351.22247762613523 L 282.47824782478244,346.37334774036776 L 282.47824782478244,342.0091308431771 L 281.9281928192819,337.6449139459864 L 278.8278827882788,334.0080665316608 L 274.2274227422742,330.4197104161929 L 262.5262526252625,323.77640247269153 L 258.37583758375837,320.6244680469427 z" /><path fill-rule="evenodd" fill="#D2EBD9" stroke="#A6A6A6" stroke-width="0.25" opacity="1" d="M 329.38293829382934,356.5080292016217 L 329.2329232923292,348.11903449924404 L 330.3330333033303,345.11257397006824 L 330.48304830483045,333.37767964651107 L 331.7331733173317,329.69234093332784 L 333.7333733373337,328.14061936988224 L 340.08400840084005,328.3830758641706 L 341.9341934193419,327.0738107950134 L 342.88428842884286,323.58243727726085 L 342.88428842884286,320.3335202537967 L 344.4344434443444,316.6481815406134 L 347.6847684768477,312.96284282743017 L 350.78507850785076,312.3324559422804 L 355.13551355135513,310.15034749368505 L 357.58575857585754,308.01673034394736 L 358.68586858685865,301.71286149244975 L 360.5360536053605,295.4574839398097 L 360.5360536053605,290.2689149620386 L 361.18611861186116,289.3960715826004 L 363.9363936393639,288.7656846974507 L 367.5367536753675,288.7656846974507 L 368.7368736873687,285.0803459842674 L 371.38713871387137,284.01353740939857 L 380.2380238023802,284.4499590991177 L 387.3387338733873,284.4499590991177 L 390.3390339033903,280.08574220192696 L 390.6390639063906,280.37668999507304 L 393.3893389338934,285.75922416827484 L 394.13941394139414,291.86912782434183 L 392.83928392839283,297.49411849183207 L 390.98909890989097,302.3917396764572 L 388.98889888988896,306.9984130679362 L 388.038803880388,314.4175817931604 L 389.18891889188916,317.47253362119386 L 392.0892089208921,318.0059379086283 L 395.9395939593959,320.285028954939 L 398.3398339833983,323.63092857611855 L 399.98999899989997,327.9951454733092 L 405.6405640564056,329.5468670367548 L 410.7910791079108,329.7893235310432 L 414.0914091409141,331.8259580830655 L 417.7417741774177,334.92940120995667 L 419.9419941994199,335.8507358882525 L 423.24232423242324,338.6632312219976 L 424.3424342434243,341.2332700614543 L 424.69246924692465,355.15027283360683 L 424.5424542454245,364.1211631222766 L 423.64236423642365,366.9336584560217 L 419.041904190419,368.00046703089055 L 414.4414441444144,366.9336584560217 L 412.7912791279128,364.1211631222766 L 410.4410441044104,358.4476811559287 L 406.7406740674067,351.998338407858 L 403.84038403840384,350.4951081432701 L 401.2401240124012,350.4951081432701 L 399.2399239923992,352.2892862010041 L 392.2892289228923,360.5328070068087 L 387.3387338733873,365.3819368925761 L 386.038603860386,369.0187843069017 L 386.2386238623862,373.14054470980403 L 387.68876887688765,375.1771792618263 L 394.83948394839484,379.83234395216306 L 395.7395739573957,383.9541043550654 L 395.58955895589554,387.05754748195653 L 391.9391939193919,387.3000039762449 L 390.98909890989097,390.4034471031361 L 390.28902890289027,397.6286506329296 L 388.4388438843884,405.14480195586907 L 383.4883488348835,408.73315807133696 L 375.7875787578758,410.818283922217 L 368.6368636863686,411.3516882096514 L 364.03640364036403,409.2665623587714 L 360.9360936093609,408.4907015770486 L 357.4357435743574,408.73315807133696 L 355.985598559856,410.57582742792863 L 355.985598559856,416.7827136817109 L 351.58515851585156,418.0434874520105 L 343.5343534353435,418.47990914172954 L 340.4340434043404,417.1706440725723 L 337.13371337133714,414.84306172740395 L 335.2835283528353,410.1878970370672 L 332.5332533253325,402.18683272555097 L 329.4329432943294,397.24072024206816 L 324.28242824282427,395.97994647176864 L 314.18141814181416,395.97994647176864 L 308.73087308730874,395.4465421843342 L 303.58035803580356,394.6706814026114 L 302.68026802680265,391.5672382757203 L 302.68026802680265,386.4271605968068 L 304.68046804680466,384.09957825163843 L 309.98099809980994,381.2385916190356 L 320.98209820982095,376.6319182275566 L 332.7332733273327,372.4616665257966 L 338.38383838383834,370.66748846806263 L 341.88418841884186,366.5457280651603 L 342.6342634263426,361.93905467368126 L 341.88418841884186,357.8172942707789 L 335.2835283528353,356.2655727073334 L 329.38293829382934,356.5080292016217 z" /><g><path fill-rule="evenodd" fill="#D2EBD9" stroke="#A6A6A6" stroke-width="0.25" opacity="1" d="M 367.78677867786774,262.33792682001814 L 366.43664366436644,262.2409442223028 L 365.53655365536554,258.5556055091196 L 357.8357835783578,252.20324535876424 L 356.53565356535654,249.6332065193075 L 356.33563356335634,245.31748092097448 L 357.0857085708571,238.96512077061914 L 357.4357435743574,233.63107789627495 L 357.4357435743574,228.00608722878474 L 356.33563356335634,225.72699618247404 L 354.3354335433543,223.9328181247401 L 350.48504850485045,223.44790513616334 L 347.03470347034704,224.22376591788614 L 341.68416841684166,224.70867890646286 L 340.03400340034,223.69036163045172 L 340.78407840784075,216.07722770979683 L 345.93459345934593,206.96086352455407 L 354.8854885488549,206.42745923711965 L 358.9358935893589,204.39082468509733 L 364.23642364236423,202.11173363878663 L 370.58705870587056,197.35958635073456 L 371.037103710371,197.0686385575885 L 374.13741374137413,196.5352342701541 L 378.88788878887885,196.29277777586572 L 381.28812881288127,198.5718688221764 L 383.4883488348835,202.88759442050943 L 384.7884788478848,208.70655028343035 L 387.3387338733873,212.0039586057522 L 393.03930393039303,212.779819387475 L 405.09050905090504,212.5373628931866 L 411.1411141114111,211.51904561717546 L 414.2914291429143,207.68823300741917 L 420.94209420942093,212.24641510004056 L 429.7429742974297,215.10740173264335 L 439.0939093909391,212.9737845829057 L 443.2443244324432,210.1127979503029 L 448.994899489949,209.38542846743778 L 451.5951595159516,213.7011540657708 L 448.994899489949,220.8778662967066 L 449.4949494949495,227.37570034363497 L 448.4448444844484,236.7345210231661 L 449.54495449544953,239.5955076557689 L 443.2443244324432,246.82071118556237 L 437.043704370437,253.31854523249072 L 421.44214421442143,261.9984877280144 L 408.99089908990896,269.95106074067303 L 398.039803980398,272.8605386721335 L 386.98869886988695,274.9941558218712 L 382.7382738273827,271.21183451097255 L 377.08770877087704,265.2958960503363 L 372.4872487248725,262.5318920154489 L 367.78677867786774,262.33792682001814 z" /><path fill-rule="evenodd" fill="#D2EBD9" stroke="#A6A6A6" stroke-width="0.25" opacity="1" d="M 342.6342634263426,181.50293162427505 L 347.63476347634764,180.4361230494062 L 352.58525852585257,184.9943051420276 L 358.4358435843584,184.9943051420276 L 363.3863386338634,185.5762007283197 L 367.28672867286724,189.06757424607224 L 358.7358735873587,192.99536945354387 L 355.63556355635563,196.05032128157734 L 351.98519851985196,198.5718688221764 L 345.53455345534553,198.5718688221764 L 344.0844084408441,194.2561432238434 L 343.5343534353435,186.93395709633458 L 342.6342634263426,181.50293162427505 z" /></g><path fill-rule="evenodd" fill="#D2EBD9" stroke="#A6A6A6" stroke-width="0.25" opacity="1" d="M 367.78677867786774,262.33792682001814 L 367.036703670367,263.69568318803306 L 363.9363936393639,264.3745613720405 L 361.78617861786176,265.8777916366284 L 360.5360536053605,268.25386528065445 L 358.5358535853585,271.26032580983025 L 356.4856485648565,272.9575212698488 L 353.8853885388539,273.39394295956794 L 349.08490849084905,273.39394295956794 L 347.23472347234724,271.0663606143995 L 345.4845484548455,267.81744359093534 L 343.3343334333433,266.07175683205907 L 337.5837583758376,266.07175683205907 L 336.0836083608361,264.7624917629019 L 335.8835883588359,262.19245292344516 L 336.0836083608361,256.37349706052424 L 334.5334533453345,254.43384510621723 L 330.9330933093309,252.49419315191028 L 325.8325832583258,252.30022795647957 L 321.48214821482145,252.49419315191028 L 317.63176317631763,251.18492808275306 L 316.6816681668167,247.74204586385818 L 316.6816681668167,243.03838987466378 L 315.58155815581557,241.2927031157875 L 313.7313731373137,240.46835103520704 L 312.3312331233123,240.46835103520704 L 310.78107810781074,238.91662947176147 L 311.1311131113111,237.21943401174286 L 311.38113811381135,236.92848621859682 L 312.48124812481245,235.71620374715494 L 313.58135813581356,230.1397043785224 L 313.7313731373137,227.1332438493466 L 313.1313131313131,225.38755709047032 L 311.4311431143114,223.69036163045172 L 308.63086308630864,222.62355305558287 L 304.58045804580456,219.61709252640708 L 300.58005800580054,218.11386226181918 L 295.6295629562956,217.6774405721001 L 294.07940794079406,215.73778861779311 L 293.47934793479345,213.50718887034012 L 294.5294529452945,211.85848470917918 L 297.029702970297,201.38436415592153 L 297.92979297929793,199.00829051189547 L 300.1300130013001,196.8746733621578 L 304.9304930493049,195.80786478728896 L 308.7808780878088,196.63221686786943 L 311.7311731173117,196.19579517815038 L 315.9315931593159,192.1710173729634 L 317.7817781778178,187.22490488948063 L 317.93179317931794,183.34560098086666 L 319.3319331933193,182.27879240599782 L 322.88228822882286,181.0180186356983 L 326.1326132613261,178.64194499167226 L 329.68296829682964,178.0115581065225 L 330.3330333033303,180.38763175054854 L 331.38313831383135,182.95767059000528 L 336.83368336833684,180.8240534402676 L 340.38403840384035,180.8240534402676 L 341.6341634163416,180.48461434826388 L 342.6342634263426,181.50293162427505 L 343.5343534353435,186.93395709633458 L 344.0844084408441,194.2561432238434 L 345.53455345534553,198.5718688221764 L 351.98519851985196,198.5718688221764 L 355.63556355635563,196.05032128157734 L 358.7358735873587,192.99536945354387 L 367.28672867286724,189.06757424607224 L 367.2367236723672,190.57080451066014 L 367.6367636763676,192.70442166039783 L 368.68686868686865,195.27446049985454 L 370.58705870587056,197.35958635073456 L 364.23642364236423,202.11173363878663 L 358.9358935893589,204.39082468509733 L 354.8854885488549,206.42745923711965 L 345.93459345934593,206.96086352455407 L 340.78407840784075,216.07722770979683 L 340.03400340034,223.69036163045172 L 341.68416841684166,224.70867890646286 L 347.03470347034704,224.22376591788614 L 350.48504850485045,223.44790513616334 L 354.3354335433543,223.9328181247401 L 356.33563356335634,225.72699618247404 L 357.4357435743574,228.00608722878474 L 357.4357435743574,233.63107789627495 L 357.0857085708571,238.96512077061914 L 356.33563356335634,245.31748092097448 L 356.53565356535654,249.6332065193075 L 357.8357835783578,252.20324535876424 L 365.53655365536554,258.5556055091196 L 366.43664366436644,262.2409442223028 L 367.78677867786774,262.33792682001814 z" /><path fill-rule="evenodd" fill="#D2EBD9" stroke="#A6A6A6" stroke-width="0.25" opacity="1" d="M 370.58705870587056,197.35958635073456 L 368.68686868686865,195.27446049985454 L 367.6367636763676,192.70442166039783 L 367.2367236723672,190.57080451066014 L 367.28672867286724,189.06757424607224 L 375.7875787578758,182.3757750037132 L 381.48814881488147,179.56327966996807 L 390.08900890089006,178.30250589966855 L 394.13941394139414,179.3208231756797 L 406.040604060406,181.11500123341364 L 415.9415941594159,185.67318332603503 L 420.1420142014201,188.9221003494992 L 423.24232423242324,192.21950867182107 L 427.29272927292726,192.99536945354387 L 428.042804280428,195.51691699414292 L 426.5426542654265,200.60850337419873 L 424.3424342434243,203.37250740908615 L 420.1420142014201,204.68177247824337 L 417.19171917191716,204.68177247824337 L 414.2914291429143,207.68823300741917 L 411.1411141114111,211.51904561717546 L 405.09050905090504,212.5373628931866 L 393.03930393039303,212.779819387475 L 387.3387338733873,212.0039586057522 L 384.7884788478848,208.70655028343035 L 383.4883488348835,202.88759442050943 L 381.28812881288127,198.5718688221764 L 378.88788878887885,196.29277777586572 L 374.13741374137413,196.5352342701541 L 371.037103710371,197.0686385575885 L 370.58705870587056,197.35958635073456 z" /></g></g></g></svg>