<svg xmlns="http://www.w3.org/2000/svg" xmlns:xlink="http://www.w3.org/1999/xlink" width="377.1465155221522" height="500.0" viewBox="0.0 0.0 377.1465155221522 500.0" preserveAspectRatio="xMinYMin meet"><g transform="matrix(1,0,0,-1,0,500.0)"><g><g><path fill-rule="evenodd" fill="#D2EBD9" stroke="#A6A6A6" stroke-width="0.25" opacity="1" d="M 179.8414427452367,328.23282328232824 L 175.95644513559756,327.33273327332734 L 154.98500172822517,317.3817381738174 L 149.9684514167494,316.031603160316 L 147.89393813004887,317.03170317031703 L 146.8755406983959,318.33183318331834 L 146.00801696032116,318.981898189819 L 144.7255905649063,318.981898189819 L 143.78262998004243,318.6818681868187 L 138.61520597498844,310.3310331033103 L 121.4910417538606,270.32703270327033 L 144.91418268187905,255.6255625562556 L 147.21500650894689,253.52535253525352 L 151.66578046950434,248.1248124812481 L 165.7724708190678,219.6219621962196 L 189.1578933236917,223.77237723772376 L 190.70434868286844,250.4250425042504 L 191.08153291681398,252.8252825282528 L 191.91133823149417,255.97559755975595 L 193.34463832048726,255.97559755975595 L 194.77793840948033,256.2256225622562 L 221.97292167695426,281.67816781678164 L 225.89563770998794,283.4283428342834 L 195.11740422003132,307.0807080708071 L 179.8414427452367,328.23282328232824 z" /><path fill-rule="evenodd" fill="#D2EBD9" stroke="#A6A6A6" stroke-width="0.25" opacity="1" d="M 141.44408772958002,406.4406440644064 L 138.61520597498844,405.39053905390534 L 128.95928958598242,405.040504050405 L 126.13040783139083,405.7405740574057 L 123.37696292358834,403.2903290329033 L 122.39628391532992,403.1903190319032 L 121.64191544743882,403.2903290329033 L 121.0761390965205,403.6903690369037 L 119.60512058413288,404.04040404040404 L 118.81303369284723,404.4904490449045 L 116.39905459559573,403.7903790379038 L 112.62721225614025,401.5901590159016 L 105.53614865796398,394.73947394739474 L 101.6134326249303,393.13931393139313 L 99.12401668088968,392.8892889288929 L 98.18105609602581,393.5893589358936 L 97.57756132171295,393.73937393739374 L 96.59688231345451,393.5893589358936 L 94.06974794601936,393.6893689368937 L 92.52329258684262,393.23932393239323 L 91.69348727216241,393.23932393239323 L 89.16635290472725,394.0894089408941 L 88.14795547307428,394.63946394639464 L 87.61989754555051,395.13951395139514 L 86.67693696068665,395.5395539553955 L 84.67786052077524,394.63946394639464 L 83.09368673820394,387.2387238723872 L 80.90601818131978,382.8382838283828 L 79.92533917306136,325.2825282528253 L 88.22339231986338,281.4281428142814 L 107.98784617861003,282.57825782578254 L 113.90963865155511,280.3780378037804 L 121.4910417538606,270.32703270327033 L 138.61520597498844,310.3310331033103 L 143.78262998004243,318.6818681868187 L 144.7255905649063,318.981898189819 L 146.00801696032116,318.981898189819 L 146.8755406983959,318.33183318331834 L 147.89393813004887,317.03170317031703 L 149.9684514167494,316.031603160316 L 154.98500172822517,317.3817381738174 L 175.95644513559756,327.33273327332734 L 179.8414427452367,328.23282328232824 L 173.2407186511896,337.3837383738374 L 141.44408772958002,406.4406440644064 z" /><path fill-rule="evenodd" fill="#D2EBD9" stroke="#A6A6A6" stroke-width="0.25" opacity="1" d="M 129.9022501708463,431.54315431543154 L 128.39351323506412,430.5930593059306 L 39.340315600520526,401.4901490149015 L 8.63751895735302,380.88808880888087 L 2.112231710095062,379.48794879487946 L 5.6577635091832015,319.78197819781974 L 16.105766789474846,317.03170317031703 L 43.941963254656194,330.1330133013301 L 79.92533917306136,325.2825282528253 L 80.90601818131978,382.8382838283828 L 83.09368673820394,387.2387238723872 L 84.67786052077524,394.63946394639464 L 86.67693696068665,395.5395539553955 L 87.61989754555051,395.13951395139514 L 88.14795547307428,394.63946394639464 L 89.16635290472725,394.0894089408941 L 91.69348727216241,393.23932393239323 L 92.52329258684262,393.23932393239323 L 94.06974794601936,393.6893689368937 L 96.59688231345451,393.5893589358936 L 97.57756132171295,393.73937393739374 L 98.18105609602581,393.5893589358936 L 99.12401668088968,392.8892889288929 L 101.6134326249303,393.13931393139313 L 105.53614865796398,394.73947394739474 L 112.62721225614025,401.5901590159016 L 116.39905459559573,403.7903790379038 L 118.81303369284723,404.4904490449045 L 119.60512058413288,404.04040404040404 L 121.0761390965205,403.6903690369037 L 121.64191544743882,403.2903290329033 L 122.39628391532992,403.1903190319032 L 123.37696292358834,403.2903290329033 L 126.13040783139083,405.7405740574057 L 128.95928958598242,405.040504050405 L 138.61520597498844,405.39053905390534 L 141.44408772958002,406.4406440644064 L 129.9022501708463,431.54315431543154 z" /><path fill-rule="evenodd" fill="#D2EBD9" stroke="#A6A6A6" stroke-width="0.25" opacity="1" d="M 2.112231710095062,379.48794879487946 L 8.63751895735302,380.88808880888087 L 39.340315600520526,401.4901490149015 L 128.39351323506412,430.5930593059306 L 129.9022501708463,431.54315431543154 L 121.94366283459526,448.7948794879488 L 99.12401668088968,483.3483348334833 L 68.60981215469495,500.0 L 38.62366555602399,488.74887488748874 L 15.049650934427316,464.49644964496446 L 3.319221258720811,442.14421442144214 L 0.0,415.69156915691565 L 2.112231710095062,379.48794879487946 z" /><path fill-rule="evenodd" fill="#D2EBD9" stroke="#A6A6A6" stroke-width="0.25" opacity="1" d="M 22.555617189943696,154.06540654065407 L 27.27042011426303,154.46544654465447 L 35.75706537803783,146.4146414641464 L 37.793860241343786,145.21452145214522 L 37.90701551152745,145.56455645564554 L 41.263955193642815,147.56475647564756 L 49.48657149365573,151.16511651165115 L 52.46632694182555,153.46534653465346 L 53.93734545421319,155.06550655065504 L 71.55184917947022,168.81688168816882 L 61.89593279046422,210.72107210721072 L 50.91987158264881,223.2223222322232 L 48.76992144915919,224.47244724472446 L 47.97783455787354,225.32253225322532 L 48.4304556386082,225.67256725672567 L 49.37341622347207,228.17281728172816 L 49.82603730420673,228.77287728772876 L 50.4295320785196,229.2229222922292 L 52.12686113127456,229.72297229722972 L 53.82419018402952,233.07330733073306 L 56.16273243449191,238.7238723872387 L 60.53806954826025,257.9257925792579 L 61.51874855651867,260.92609260926093 L 64.61165927487215,262.07620762076203 L 65.36602774276325,262.57625762576254 L 66.64845413817811,262.67626762676264 L 67.59141472304198,263.026302630263 L 68.19490949735486,263.37633763376334 L 70.00539382029348,264.97649764976495 L 71.061509675341,265.3265326532653 L 72.83427557488508,266.47664766476646 L 73.8149545831435,266.57665766576656 L 75.02194413176925,266.37663766376636 L 76.228933680395,267.27672767276727 L 76.83242845470787,266.97669766976696 L 79.28412597535393,269.3769376937694 L 88.22339231986338,281.4281428142814 L 79.92533917306136,325.2825282528253 L 43.941963254656194,330.1330133013301 L 16.105766789474846,317.03170317031703 L 5.6577635091832015,319.78197819781974 L 13.503195575250574,186.06860686068606 L 22.555617189943696,154.06540654065407 z" /><path fill-rule="evenodd" fill="#D2EBD9" stroke="#A6A6A6" stroke-width="0.25" opacity="1" d="M 89.50581871527824,56.1056105610561 L 140.91602980205627,83.45834583458345 L 141.6326798465528,83.55835583558355 L 141.44408772958002,85.85858585858585 L 138.95467178553943,97.1097109710971 L 111.3447858607254,187.66876687668767 L 100.48187992309366,175.3175317531753 L 98.14333767263126,174.26742674267425 L 71.55184917947022,168.81688168816882 L 53.93734545421319,155.06550655065504 L 52.46632694182555,153.46534653465346 L 49.48657149365573,151.16511651165115 L 41.263955193642815,147.56475647564756 L 37.90701551152745,145.56455645564554 L 37.793860241343786,145.21452145214522 L 35.75706537803783,146.4146414641464 L 27.27042011426303,154.46544654465447 L 22.555617189943696,154.06540654065407 L 34.96497848675218,110.26102610261026 L 54.163655994580516,72.9072907290729 L 76.41752579736777,57.05570557055705 L 89.50581871527824,56.1056105610561 z" /><path fill-rule="evenodd" fill="#D2EBD9" stroke="#A6A6A6" stroke-width="0.25" opacity="1" d="M 296.05190522385965,60.15601560156015 L 287.9801626174249,71.4071407140714 L 283.7179807738403,73.55735573557355 L 274.25065650180704,77.25772577257726 L 271.45949317061,78.1078107810781 L 269.8753193880387,79.35793579357936 L 269.91303781143324,80.05800580058005 L 267.83852452473275,84.8084808480848 L 258.10717128893765,101.5101510151015 L 257.6168317848084,102.86028602860286 L 254.9011053004005,121.4121412141214 L 252.0722235458089,126.012601260126 L 249.65824444855738,128.46284628462845 L 234.11825401000087,133.3133313331333 L 138.95467178553943,97.1097109710971 L 141.44408772958002,85.85858585858585 L 141.6326798465528,83.55835583558355 L 140.91602980205627,83.45834583458345 L 89.50581871527824,56.1056105610561 L 111.68425167127639,54.55545554555455 L 148.95005398509642,45.754575457545755 L 179.5774137814748,28.152815281528152 L 195.94720953471153,0.0 L 207.26273655307793,7.200720072007201 L 217.5221477163968,9.000900090009 L 228.12102469026667,8.85088508850885 L 241.1715991847826,10.45104510451045 L 276.5514803288749,46.65466546654665 L 296.05190522385965,60.15601560156015 z" /><path fill-rule="evenodd" fill="#D2EBD9" stroke="#A6A6A6" stroke-width="0.25" opacity="1" d="M 309.4796639523211,230.62306230623062 L 306.95252958488595,226.57265726572655 L 288.7722495087106,204.37043704370436 L 286.6600177986155,202.27022702270227 L 275.4576460504328,195.2195219521952 L 263.57634268114805,190.46904690469046 L 241.39790972514993,161.1161116111611 L 234.11825401000087,133.3133313331333 L 249.65824444855738,128.46284628462845 L 252.0722235458089,126.012601260126 L 254.9011053004005,121.4121412141214 L 257.6168317848084,102.86028602860286 L 258.10717128893765,101.5101510151015 L 267.83852452473275,84.8084808480848 L 269.91303781143324,80.05800580058005 L 269.8753193880387,79.35793579357936 L 271.45949317061,78.1078107810781 L 274.25065650180704,77.25772577257726 L 283.7179807738403,73.55735573557355 L 287.9801626174249,71.4071407140714 L 296.05190522385965,60.15601560156015 L 329.35727308125144,83.25832583258325 L 371.94137309370365,127.31273127312731 L 377.1465155221522,186.06860686068606 L 357.683809050562,210.72107210721072 L 327.0564492541836,224.87248724872487 L 309.4796639523211,230.62306230623062 z" /><path fill-rule="evenodd" fill="#D2EBD9" stroke="#A6A6A6" stroke-width="0.25" opacity="1" d="M 225.89563770998794,283.4283428342834 L 221.97292167695426,281.67816781678164 L 194.77793840948033,256.2256225622562 L 193.34463832048726,255.97559755975595 L 191.91133823149417,255.97559755975595 L 191.08153291681398,252.8252825282528 L 190.70434868286844,250.4250425042504 L 189.1578933236917,223.77237723772376 L 223.97199811686565,191.51915191519151 L 227.25350095219193,187.81878187818782 L 241.39790972514993,161.1161116111611 L 263.57634268114805,190.46904690469046 L 275.4576460504328,195.2195219521952 L 286.6600177986155,202.27022702270227 L 288.7722495087106,204.37043704370436 L 306.95252958488595,226.57265726572655 L 309.4796639523211,230.62306230623062 L 294.58088671147203,235.52355235523552 L 269.46041673069857,250.07500750075005 L 225.89563770998794,283.4283428342834 z" /><path fill-rule="evenodd" fill="#D2EBD9" stroke="#A6A6A6" stroke-width="0.25" opacity="1" d="M 189.1578933236917,223.77237723772376 L 165.7724708190678,219.6219621962196 L 153.81573060299397,205.17051705170516 L 150.49650934427316,203.1203120312031 L 111.3447858607254,187.66876687668767 L 138.95467178553943,97.1097109710971 L 234.11825401000087,133.3133313331333 L 241.39790972514993,161.1161116111611 L 227.25350095219193,187.81878187818782 L 223.97199811686565,191.51915191519151 L 189.1578933236917,223.77237723772376 z" /><path fill-rule="evenodd" fill="#D2EBD9" stroke="#A6A6A6" stroke-width="0.25" opacity="1" d="M 121.4910417538606,270.32703270327033 L 113.90963865155511,280.3780378037804 L 107.98784617861003,282.57825782578254 L 88.22339231986338,281.4281428142814 L 79.28412597535393,269.3769376937694 L 76.83242845470787,266.97669766976696 L 76.228933680395,267.27672767276727 L 75.02194413176925,266.37663766376636 L 73.8149545831435,266.57665766576656 L 72.83427557488508,266.47664766476646 L 71.061509675341,265.3265326532653 L 70.00539382029348,264.97649764976495 L 68.19490949735486,263.37633763376334 L 67.59141472304198,263.026302630263 L 66.64845413817811,262.67626762676264 L 65.36602774276325,262.57625762576254 L 64.61165927487215,262.07620762076203 L 61.51874855651867,260.92609260926093 L 60.53806954826025,257.9257925792579 L 56.16273243449191,238.7238723872387 L 53.82419018402952,233.07330733073306 L 52.12686113127456,229.72297229722972 L 50.4295320785196,229.2229222922292 L 49.82603730420673,228.77287728772876 L 49.37341622347207,228.17281728172816 L 48.4304556386082,225.67256725672567 L 47.97783455787354,225.32253225322532 L 48.76992144915919,224.47244724472446 L 50.91987158264881,223.2223222322232 L 61.89593279046422,210.72107210721072 L 71.55184917947022,168.81688168816882 L 98.14333767263126,174.26742674267425 L 100.48187992309366,175.3175317531753 L 111.3447858607254,187.66876687668767 L 150.49650934427316,203.1203120312031 L 153.81573060299397,205.17051705170516 L 165.7724708190678,219.6219621962196 L 151.66578046950434,248.1248124812481 L 147.21500650894689,253.52535253525352 L 144.91418268187905,255.6255625562556 L 121.4910417538606,270.32703270327033 z" /></g></g></g></svg>