<svg xmlns="http://www.w3.org/2000/svg" xmlns:xlink="http://www.w3.org/1999/xlink" width="279.20388686284423" height="500.0" viewBox="0.0 0.0 279.20388686284423 500.0" preserveAspectRatio="xMinYMin meet"><g transform="matrix(1,0,0,-1,0,500.0)"><g><g><path fill-rule="evenodd" fill="#D2EBD9" stroke="#A6A6A6" stroke-width="0.25" opacity="1" d="M 78.40829226031269,467.7967796779678 L 77.20759547712414,449.44494449444943 L 98.20582759242156,447.59475947594757 L 108.70494365007026,433.9433943394339 L 117.61243839046904,437.2437243724372 L 135.70665968131044,434.69346934693465 L 141.71014359725316,436.39363936393636 L 145.28431076581444,443.89438943894385 L 142.49199266537596,449.74497449744973 L 137.82882143764368,456.1456145614561 L 135.2040424232315,465.39653965396536 L 131.01556527257378,468.14681468146813 L 104.79569830945638,457.6957695769577 L 86.338475665558,466.1466146614661 L 78.40829226031269,467.7967796779678 z" /><g><path fill-rule="evenodd" fill="#D2EBD9" stroke="#A6A6A6" stroke-width="0.25" opacity="1" d="M 70.14303068301477,330.48304830483045 L 85.61247295944399,329.7329732973297 L 100.7189138828162,336.2836283628363 L 95.69274130202692,369.9369936993699 L 91.4763409703648,387.68876887688765 L 82.23376805791342,422.34223422342234 L 89.80095011010172,429.7929792979298 L 108.70494365007026,433.9433943394339 L 98.20582759242156,447.59475947594757 L 77.20759547712414,449.44494449444943 L 78.40829226031269,467.7967796779678 L 64.13954676707203,468.1968196819682 L 55.902208370778496,464.19641964196416 L 51.26696032405061,455.9455945594559 L 43.867317357888616,422.44224422442244 L 43.44846964282284,410.8410841084108 L 46.04532547623064,402.34023402340233 L 56.85159652492758,383.23832383238323 L 66.51301715244475,357.0857085708571 L 70.14303068301477,330.48304830483045 z" /><path fill-rule="evenodd" fill="#D2EBD9" stroke="#A6A6A6" stroke-width="0.25" opacity="1" d="M 10.917963772714481,420.1420142014201 L 1.3682358692148582,409.49094909490947 L 0.0,395.0895089508951 L 3.406628082534953,383.6883688368837 L 15.692827724464292,384.43844384438444 L 27.28094784128401,381.38813881388137 L 24.544476102854293,401.8901890189019 L 24.544476102854293,414.0914091409141 L 17.731219937784388,417.89178917891786 L 10.917963772714481,420.1420142014201 z" /></g><g><path fill-rule="evenodd" fill="#D2EBD9" stroke="#A6A6A6" stroke-width="0.25" opacity="1" d="M 149.83578926952916,364.3864386438644 L 127.58101400903443,383.03830383038303 L 120.04175513785053,378.3378337833783 L 91.4763409703648,387.68876887688765 L 95.69274130202692,369.9369936993699 L 100.7189138828162,336.2836283628363 L 85.61247295944399,329.7329732973297 L 70.14303068301477,330.48304830483045 L 63.218081793927325,309.8309830983098 L 50.79226624697606,286.1286128612861 L 55.45543747470834,266.5266526652665 L 83.1831562120625,235.02350235023502 L 95.88820356905762,215.42154215421542 L 105.91262554963178,192.56925692569257 L 113.17265261077185,169.16691669166914 L 117.41697612343835,147.8147814781478 L 135.98589149135427,178.31783178317832 L 141.71014359725316,193.7193719371937 L 151.17610195773963,271.57715771577153 L 152.5722610079589,333.98339833983397 L 149.83578926952916,364.3864386438644 z" /><path fill-rule="evenodd" fill="#D2EBD9" stroke="#A6A6A6" stroke-width="0.25" opacity="1" d="M 250.24754816129715,99.95999599959995 L 246.6175346307271,96.35963596359636 L 238.18473396740288,86.1086108610861 L 231.73447915538998,75.85758575857585 L 229.33308558901288,66.45664566456645 L 228.5233133398857,58.005800580058 L 228.13238880582432,51.755175517551756 L 233.7449481877057,45.504550455045504 L 233.7449481877057,35.65356535653565 L 234.16379590277145,29.002900290029 L 229.33308558901288,17.85178517851785 L 226.9316920226358,11.151115111511151 L 231.73447915538998,3.55035503550355 L 238.99450621653003,0.0 L 241.00497524884574,1.8001800180018002 L 239.3854307505914,6.25062506250625 L 242.59659656609568,12.5012501250125 L 246.22661009666572,18.751875187518753 L 250.24754816129715,22.752275227522752 L 247.42730687985426,26.75267526752675 L 243.82521653028863,29.452945294529453 L 244.6070655984114,35.25352535253525 L 247.03638234579287,39.703970397039704 L 251.44824494448568,41.45414541454145 L 250.24754816129715,45.95459545954595 L 245.41683784753855,52.605260526052604 L 242.59659656609568,62.006200620062 L 245.02591331347716,64.65646564656466 L 250.24754816129715,69.6069606960696 L 253.87756169186716,72.25722572257226 L 261.50059010606424,70.45704570457045 L 263.92990685344574,74.05740574057405 L 259.0991965396871,79.40794079407941 L 255.88803072418287,82.5082508250825 L 260.6908178569371,88.75887588758876 L 265.52152817069566,95.90959095909591 L 267.14107266894996,102.16021602160215 L 267.14107266894996,106.6106610661066 L 260.6908178569371,103.06030603060306 L 255.4691830091171,99.05990599059905 L 250.24754816129715,99.95999599959995 z" /><path fill-rule="evenodd" fill="#D2EBD9" stroke="#A6A6A6" stroke-width="0.25" opacity="1" d="M 251.0573204104243,121.81218121812181 L 254.26848622592857,116.46164616461645 L 261.1096655720028,119.1119111911191 L 260.2998933228757,123.6123612361236 L 255.88803072418287,124.06240624062406 L 251.0573204104243,121.81218121812181 z" /><path fill-rule="evenodd" fill="#D2EBD9" stroke="#A6A6A6" stroke-width="0.25" opacity="1" d="M 269.5424662353271,70.00700070007001 L 267.95084491807717,66.9066906690669 L 269.15154170126567,63.356335633563354 L 271.97178298270853,59.3059305930593 L 277.1934178305285,62.9062906290629 L 279.20388686284423,69.6069606960696 L 269.5424662353271,70.00700070007001 z" /><path fill-rule="evenodd" fill="#D2EBD9" stroke="#A6A6A6" stroke-width="0.25" opacity="1" d="M 262.3103623551914,50.85508550855085 L 258.28942429055996,51.3051305130513 L 257.0887275073714,48.154815481548155 L 259.0991965396871,45.05450545054505 L 257.8984997564986,41.45414541454145 L 260.6908178569371,35.65356535653565 L 263.92990685344574,37.453745374537455 L 268.3417694521385,38.35383538353835 L 271.5529352676428,37.453745374537455 L 273.98225201502424,36.55365536553655 L 276.38364558140137,40.15401540154015 L 277.1934178305285,45.504550455045504 L 273.98225201502424,49.054905490549054 L 266.3313004198228,50.405040504050405 L 262.3103623551914,50.85508550855085 z" /></g><path fill-rule="evenodd" fill="#D2EBD9" stroke="#A6A6A6" stroke-width="0.25" opacity="1" d="M 108.70494365007026,433.9433943394339 L 89.80095011010172,429.7929792979298 L 82.23376805791342,422.34223422342234 L 91.4763409703648,387.68876887688765 L 120.04175513785053,378.3378337833783 L 127.58101400903443,383.03830383038303 L 149.83578926952916,364.3864386438644 L 148.8584779343757,375.13751375137514 L 161.67521801538834,378.3378337833783 L 162.03821936844537,391.5891589158916 L 168.48847418045827,399.6399639963996 L 160.30698214617348,400.39003900390037 L 156.2022745385289,417.09170917091706 L 152.12549011188872,427.7427742774277 L 142.5757622083891,420.1420142014201 L 136.1255073963762,409.9409940994099 L 108.70494365007026,433.9433943394339 z" /><path fill-rule="evenodd" fill="#D2EBD9" stroke="#A6A6A6" stroke-width="0.25" opacity="1" d="M 140.50944681406463,493.89938993899386 L 139.16913412585416,482.49824982498245 L 147.35062616013892,467.2967296729673 L 152.79564645599396,469.5969596959696 L 160.97713849027872,468.04680468046803 L 169.85671004967313,465.7465746574657 L 173.26333813220808,455.89558955895586 L 175.9998098706378,445.99459945994596 L 186.21969411824264,439.8939893989399 L 189.6263222007776,443.69436943694365 L 193.06087346431693,453.59535953595355 L 184.8514582490278,457.39573957395737 L 175.30173034552817,471.0971097109711 L 175.30173034552817,481.7481748174817 L 174.63157400142293,492.39923992399235 L 160.30698214617348,500.0 L 140.50944681406463,493.89938993899386 z" /></g></g></g></svg>