<svg xmlns="http://www.w3.org/2000/svg" xmlns:xlink="http://www.w3.org/1999/xlink" width="426.73640991561115" height="500.0" viewBox="0.0 0.0 426.73640991561115 500.0" preserveAspectRatio="xMinYMin meet"><g transform="matrix(1,0,0,-1,0,500.0)"><g><g><path fill-rule="evenodd" fill="#D2EBD9" stroke="#A6A6A6" stroke-width="0.25" opacity="1" d="M 346.8860425836671,351.9351935193519 L 345.904450681671,354.83548354835483 L 343.8985889688963,356.83568356835684 L 342.5755737966407,358.68586858685865 L 343.59984360741925,361.18611861186116 L 339.4174085467402,362.3362336233623 L 335.91782002658016,365.63656365636564 L 330.1136244321684,373.1373137313731 L 329.6441674355616,377.1377137713771 L 332.29019778007284,382.2382238223822 L 337.3261910164007,389.08890889088906 L 337.41154683396553,394.93949394939494 L 338.137071283267,398.5398539853985 L 340.01489926969435,401.5901590159016 L 353.287728901033,415.5415541554155 L 354.7814557084184,419.8919891989199 L 349.4893950193959,417.9417941794179 L 341.20988071560265,414.1914191419142 L 336.34459911440456,412.5912591259126 L 331.86341869224844,412.64126412641264 L 329.2600662565196,415.09150915091504 L 330.15630234095084,420.7920792079208 L 332.0768082361606,423.64236423642365 L 337.58225846909534,428.89288928892887 L 339.8015097257822,431.7931793179318 L 340.78310162777825,434.2434243424342 L 342.703607522988,441.54415441544154 L 351.4525788233881,462.89628962896285 L 354.5253882557237,467.7967796779678 L 362.2074118365628,477.4477447744774 L 354.61074407328863,477.74777477747773 L 346.92872049244954,481.3481348134813 L 334.38141531041236,491.6491649164916 L 333.05840013815674,493.4493449344934 L 331.86341869224844,496.6996699669967 L 330.753793063905,497.94979497949794 L 329.9429127970387,497.6997699769977 L 322.64499039524156,499.44994499449945 L 321.5353647668981,500.0 L 317.8223867028259,498.8998899889989 L 315.5604575373566,496.7996799679968 L 314.6215435441429,495.5495549554955 L 319.70021468925324,491.6491649164916 L 322.00482176350494,482.8482848284828 L 323.75461602358496,480.8980898089809 L 325.120309104623,478.14781478147813 L 325.29102073975275,474.7474747474747 L 326.65671382079086,471.89718971897184 L 330.070946523386,468.6968696869687 L 332.3755535976377,464.4464446444644 L 329.04667671260745,454.69546954695466 L 330.8391488814699,450.7950795079508 L 332.5462652327675,446.09460946094606 L 331.86341869224844,441.24412441244124 L 330.070946523386,436.7436743674367 L 325.46173237488256,434.19341934193415 L 320.51109495611956,433.59335933593354 L 317.99309833795564,430.1930193019302 L 315.3470679934444,427.2427242724272 L 298.7453614770755,412.64126412641264 L 297.336990487255,413.4913491349135 L 295.5018404096101,414.04140414041404 L 293.15455542657594,413.1913191319132 L 288.0758842814657,410.2410241024102 L 283.29595849783243,406.7406740674067 L 277.23569545072604,405.59055905590554 L 272.02899057926845,403.44034403440344 L 268.5720799678909,399.2399239923992 L 267.16370897807036,394.2894289428943 L 261.3595133836586,391.18911891189117 L 252.0984071778693,389.48894889488946 L 257.8599248634986,386.48864886488644 L 261.5729029275708,380.38803880388036 L 258.20134813375813,373.1373137313731 L 253.12267698864784,365.83658365836584 L 258.4574155864527,363.0863086308631 L 263.7494762754752,367.7367736773677 L 267.03567525172303,371.18711871187116 L 270.9620428597075,370.68706870687066 L 273.9494964744782,369.036903690369 L 277.2783733595085,368.98689868986895 L 276.97962799803145,365.73657365736574 L 277.23569545072604,362.4362436243624 L 287.2223261058169,360.48604860486046 L 296.73949976430083,356.1856185618562 L 300.62318946350285,347.98479847984794 L 300.7085452810677,338.7338733873387 L 297.20895676090765,329.18291829182914 L 292.38635306849204,320.2320232023202 L 291.19137162258374,316.8816881688169 L 290.38049135571737,313.48134813481346 L 292.2156414333623,311.2311231123112 L 297.0382451257779,307.6807680768077 L 299.4282080175945,306.4806480648065 L 302.287627906018,307.1307130713071 L 305.1897257032238,308.0808080808081 L 308.34789095312436,307.1807180718072 L 310.60982011859363,306.1806180618062 L 312.1889027435439,305.2305230523052 L 315.304390084662,306.2306230623062 L 316.79811689204735,307.3807380738074 L 319.4441472365586,313.6313631363136 L 319.8282484156005,313.8313831383138 L 321.02322986150887,322.78227822782276 L 322.8157020303713,325.4825482548255 L 328.8332871686952,327.13271327132713 L 329.5161337092143,328.8328832883288 L 329.3027441653021,333.68336833683367 L 330.0282686146035,336.2836283628363 L 331.6500291483362,337.23372337233724 L 333.2717896820689,337.93379337933794 L 334.4240932191948,341.5341534153415 L 335.57639675632066,342.78427842784276 L 337.28351310761826,343.68436843684367 L 339.4600864555226,343.98439843984397 L 340.7404237189958,345.13451345134513 L 344.3253680567207,350.3350335033503 L 346.8860425836671,351.9351935193519 z" /><path fill-rule="evenodd" fill="#D2EBD9" stroke="#A6A6A6" stroke-width="0.25" opacity="1" d="M 314.6215435441429,495.5495549554955 L 313.55459582458195,494.1494149414941 L 310.5671422098112,491.39913991399135 L 307.2382653247809,489.6989698969897 L 302.8851186289721,488.2988298829883 L 298.48929402438085,487.3987398739874 L 294.77631596030864,487.1987198719872 L 291.9168960718852,487.84878487848783 L 284.70432948765296,491.3491349134913 L 282.0156212343593,491.6491649164916 L 281.1620630587105,490.0990099009901 L 281.0767072411456,487.8987898789879 L 280.56457233575634,486.2986298629863 L 270.1511625928411,473.19731973197315 L 266.2247949848567,470.44704470447044 L 261.06076802218155,470.2970297029703 L 255.72602942437663,472.3472347234723 L 250.90342573196097,475.5475547554755 L 247.10509185032387,478.8978897889789 L 239.9778810836565,487.34873487348733 L 237.16113910401552,489.54895489548954 L 234.51510875950427,490.44904490449045 L 232.29585750281743,490.54905490549055 L 230.3326736988252,490.34903490349035 L 228.54020152996276,490.5990599059906 L 222.47993848285637,495.7995799579958 L 220.64478840521147,496.84968496849683 L 218.2975034221773,496.7996799679968 L 217.61465688165828,495.4995499549955 L 217.65733479044073,493.3493349334933 L 216.1209300742729,481.5481548154815 L 217.78536851678803,463.7463746374637 L 212.79205318924264,446.29462946294626 L 211.81046128724654,422.54225422542254 L 217.87072433435293,421.6921692169217 L 229.09501434413446,418.69186918691867 L 236.00883556688964,410.1910191019102 L 239.16700081679016,404.34043404340434 L 243.90424869164093,400.29002900290027 L 252.0984071778693,389.48894889488946 L 261.3595133836586,391.18911891189117 L 267.16370897807036,394.2894289428943 L 268.5720799678909,399.2399239923992 L 272.02899057926845,403.44034403440344 L 277.23569545072604,405.59055905590554 L 283.29595849783243,406.7406740674067 L 288.0758842814657,410.2410241024102 L 293.15455542657594,413.1913191319132 L 295.5018404096101,414.04140414041404 L 297.336990487255,413.4913491349135 L 298.7453614770755,412.64126412641264 L 315.3470679934444,427.2427242724272 L 317.99309833795564,430.1930193019302 L 320.51109495611956,433.59335933593354 L 325.46173237488256,434.19341934193415 L 330.070946523386,436.7436743674367 L 331.86341869224844,441.24412441244124 L 332.5462652327675,446.09460946094606 L 330.8391488814699,450.7950795079508 L 329.04667671260745,454.69546954695466 L 332.3755535976377,464.4464446444644 L 330.070946523386,468.6968696869687 L 326.65671382079086,471.89718971897184 L 325.29102073975275,474.7474747474747 L 325.120309104623,478.14781478147813 L 323.75461602358496,480.8980898089809 L 322.00482176350494,482.8482848284828 L 319.70021468925324,491.6491649164916 L 314.6215435441429,495.5495549554955 z" /><path fill-rule="evenodd" fill="#D2EBD9" stroke="#A6A6A6" stroke-width="0.25" opacity="1" d="M 211.81046128724654,422.54225422542254 L 211.72510546968164,419.99199919992 L 210.48744611499092,414.89148914891484 L 208.26819485830407,409.8409840984098 L 205.45145287866308,405.040504050405 L 202.37864344632743,400.8900890089009 L 197.64139557147666,396.08960896089604 L 193.28824887566785,393.53935393539354 L 188.63635681838196,392.63926392639263 L 182.87483913275264,392.7892789278928 L 177.75349007885993,394.33943394339434 L 175.06478182556623,394.33943394339434 L 173.35766547426866,392.1892189218922 L 172.58946311618476,387.3387338733873 L 171.60787121418866,385.1885188518852 L 169.34594204871937,383.7883788378838 L 164.1819150860442,383.1883188318832 L 159.82876839023538,383.83838383838383 L 150.22623891418652,386.98869886988695 L 150.1835610054041,385.5885588558856 L 151.33586454252995,375.2875287528753 L 142.8002827860421,369.08690869086905 L 145.61702476568308,367.6367636763676 L 148.17769929262946,368.38683868386835 L 153.08565880260997,363.7863786378638 L 155.85972287346854,364.1864186418642 L 158.5484311267622,364.2864286428643 L 161.06642774492613,362.48624862486247 L 169.5166536838491,360.38603860386036 L 174.21122364991746,362.68626862686267 L 178.77775988963847,362.88628862886287 L 183.64304149083657,360.7360736073607 L 186.1610381090005,352.88528852885287 L 188.33761145690488,342.3342334233423 L 196.65980366948057,341.3341334133413 L 199.90332473694596,339.18391839183914 L 203.4455911658884,338.1838183818382 L 205.83555405770502,336.4836483648365 L 205.02467379083868,333.4333433343334 L 204.81128424692648,329.28292829282924 L 205.87823196648745,325.2825282528253 L 208.14016113195675,324.88248824882487 L 211.9811729223763,323.08230823082306 L 212.70669737167776,318.6818681868187 L 221.92512566868464,320.9320932093209 L 223.84563156389441,325.0825082508251 L 228.54020152996276,327.63276327632764 L 232.50924704672963,331.48314831483145 L 237.50256237427502,339.38393839383934 L 246.5929569449346,343.3343334333433 L 255.42728406289956,343.6343634363436 L 270.49258586310066,354.0854085408541 L 277.23569545072604,362.4362436243624 L 276.97962799803145,365.73657365736574 L 277.2783733595085,368.98689868986895 L 273.9494964744782,369.036903690369 L 270.9620428597075,370.68706870687066 L 267.03567525172303,371.18711871187116 L 263.7494762754752,367.7367736773677 L 258.4574155864527,363.0863086308631 L 253.12267698864784,365.83658365836584 L 258.20134813375813,373.1373137313731 L 261.5729029275708,380.38803880388036 L 257.8599248634986,386.48864886488644 L 252.0984071778693,389.48894889488946 L 243.90424869164093,400.29002900290027 L 239.16700081679016,404.34043404340434 L 236.00883556688964,410.1910191019102 L 229.09501434413446,418.69186918691867 L 217.87072433435293,421.6921692169217 L 211.81046128724654,422.54225422542254 z" /><path fill-rule="evenodd" fill="#D2EBD9" stroke="#A6A6A6" stroke-width="0.25" opacity="1" d="M 105.75585796288473,383.43834383438343 L 101.31735544951103,384.2884288428843 L 97.17759829761441,383.7883788378838 L 87.1909676425236,379.48794879487946 L 81.51480577445918,378.9378937893789 L 79.46626615290208,383.33833383338333 L 79.21019870020744,386.2386238623862 L 77.03362535230303,391.039103910391 L 76.52149044691377,393.73937393739374 L 77.28969280499767,396.1396139613961 L 80.49053596368063,400.09000900090007 L 81.0026708690699,402.6902690269027 L 79.5942998792494,405.59055905590554 L 74.600984551704,410.2910291029103 L 73.7474263760552,413.64136413641364 L 74.04617173753229,416.3416341634163 L 73.87546010240253,417.4417441744174 L 71.05871812276153,419.5419541954195 L 66.83360515330003,421.94219421942194 L 61.925645643319505,423.0923092309231 L 52.195082440923336,424.3424342434243 L 47.03105547824817,425.89258925892585 L 32.99002348882562,432.04320432043204 L 29.23436751597096,432.5932593259326 L 15.790826249502562,431.6931693169317 L 10.541443469262521,426.5426542654265 L 6.572397952495661,403.44034403440344 L 9.645207384831295,397.8397839783978 L 4.950637418762965,397.2397239723972 L 2.00586171277465,394.6894689468947 L 0.42677908782439355,390.7390739073907 L 0.0,385.8385838583858 L 1.8351500776448924,381.9381938193819 L 6.060263047106389,380.68806880688066 L 10.882866739522036,380.2380238023802 L 14.382455259682063,378.7378737873787 L 15.406725070460608,376.88768876887684 L 17.497942600800137,370.68706870687066 L 20.954853212177724,365.63656365636564 L 21.89376720539139,363.3363336333633 L 22.277868384433344,359.6359635963596 L 23.771595191818722,355.93559355935594 L 27.313861620761188,354.035403540354 L 31.538974590222686,352.6352635263526 L 34.995885201600274,350.28502850285025 L 36.361578282638334,346.63466346634664 L 37.25781436706956,341.8341834183418 L 39.26367607984421,337.6837683768377 L 43.7021785932179,335.93359335933593 L 47.96996947146184,335.4335433543354 L 51.896337079446255,333.9333933393339 L 55.09718023812921,331.4331433143314 L 57.23107567725118,328.03280328032804 L 58.852836210983874,314.68146814681467 L 69.30892386268151,315.031503150315 L 76.18006717665425,322.032203220322 L 74.30223919022691,326.73267326732673 L 71.27210766667372,330.48304830483045 L 69.86373667685322,333.88338833883387 L 71.0160402139791,335.8835883588359 L 85.48385129122603,341.8341834183418 L 88.94076190260363,350.18501850185015 L 96.53742966587782,350.18501850185015 L 98.6713251049998,348.2348234823482 L 104.0914195203696,352.28522852285226 L 111.77344310120867,354.035403540354 L 117.36424915170824,359.38593859385935 L 113.35252572615893,366.1866186618662 L 110.4931058377355,373.2373237323732 L 109.89561511478135,379.7379737973797 L 105.75585796288473,383.43834383438343 z" /><path fill-rule="evenodd" fill="#D2EBD9" stroke="#A6A6A6" stroke-width="0.25" opacity="1" d="M 150.22623891418652,386.98869886988695 L 147.75092020480506,387.8387838783878 L 146.0864817622899,387.9387938793879 L 139.21533844831717,385.43854385438544 L 137.5082220970196,384.3884388438844 L 135.67307201937473,383.6883688368837 L 133.2831091275581,383.7883788378838 L 128.2044379824478,383.0883088308831 L 123.89396919542145,380.3380338033803 L 119.4981445908302,378.88788878887885 L 114.12072808424284,381.8881888188819 L 105.75585796288473,383.43834383438343 L 109.89561511478135,379.7379737973797 L 110.4931058377355,373.2373237323732 L 113.35252572615893,366.1866186618662 L 117.36424915170824,359.38593859385935 L 123.21112265490243,351.4351435143514 L 126.45464372236782,337.3837383738374 L 128.75925079661954,333.18331833183316 L 131.57599277626053,325.6825682568257 L 132.13080559043226,317.83178317831783 L 138.23374654632107,316.2816281628163 L 143.86723050560306,316.1316131613161 L 146.04380385350748,313.58135813581356 L 148.43376674532408,312.28122812281225 L 151.97603317426655,313.38133813381336 L 154.87813097147242,311.28112811281125 L 155.43294378564414,301.8301830183018 L 160.63964865710173,302.4302430243024 L 166.4438442515135,304.8304830483048 L 167.80953733255154,302.38023802380235 L 167.46811406229205,298.8798879887989 L 169.8153990453262,294.7294729472947 L 173.9551561972228,292.47924792479245 L 177.4120668086004,293.17931793179315 L 180.14345297067652,294.9294929492949 L 185.7342590211761,295.8295829582958 L 191.2823871628932,297.3297329732973 L 194.82465359183567,298.42984298429843 L 197.25729439243472,301.3301330133013 L 195.55017804113714,313.8313831383138 L 205.87823196648745,325.2825282528253 L 204.81128424692648,329.28292829282924 L 205.02467379083868,333.4333433343334 L 205.83555405770502,336.4836483648365 L 203.4455911658884,338.1838183818382 L 199.90332473694596,339.18391839183914 L 196.65980366948057,341.3341334133413 L 188.33761145690488,342.3342334233423 L 186.1610381090005,352.88528852885287 L 183.64304149083657,360.7360736073607 L 178.77775988963847,362.88628862886287 L 174.21122364991746,362.68626862686267 L 169.5166536838491,360.38603860386036 L 161.06642774492613,362.48624862486247 L 158.5484311267622,364.2864286428643 L 155.85972287346854,364.1864186418642 L 153.08565880260997,363.7863786378638 L 148.17769929262946,368.38683868386835 L 145.61702476568308,367.6367636763676 L 142.8002827860421,369.08690869086905 L 151.33586454252995,375.2875287528753 L 150.1835610054041,385.5885588558856 L 150.22623891418652,386.98869886988695 z" /><path fill-rule="evenodd" fill="#D2EBD9" stroke="#A6A6A6" stroke-width="0.25" opacity="1" d="M 346.8860425836671,351.9351935193519 L 344.3253680567207,350.3350335033503 L 340.7404237189958,345.13451345134513 L 339.4600864555226,343.98439843984397 L 337.28351310761826,343.68436843684367 L 335.57639675632066,342.78427842784276 L 334.4240932191948,341.5341534153415 L 333.2717896820689,337.93379337933794 L 331.6500291483362,337.23372337233724 L 330.0282686146035,336.2836283628363 L 329.3027441653021,333.68336833683367 L 329.5161337092143,328.8328832883288 L 328.8332871686952,327.13271327132713 L 322.8157020303713,325.4825482548255 L 321.02322986150887,322.78227822782276 L 319.8282484156005,313.8313831383138 L 319.4441472365586,313.6313631363136 L 316.79811689204735,307.3807380738074 L 315.304390084662,306.2306230623062 L 312.1889027435439,305.2305230523052 L 310.353752665899,304.2304230423042 L 300.836579007415,295.97959795979597 L 309.5855503078151,293.07930793079305 L 311.6767678381546,292.27922792279224 L 313.5972737333644,291.27912791279124 L 318.88933442238687,292.3292329232923 L 321.70607640202786,290.97909790979094 L 324.82156374314593,288.52885288528853 L 328.5772197160006,287.1287128712871 L 332.3755535976377,286.8286828682868 L 335.704430482668,285.3285328532853 L 337.83832592178993,282.87828782878285 L 339.24669691161046,280.02800280028003 L 339.0333073676982,276.8276827682768 L 339.5027643643051,273.7273727372737 L 344.6241134181978,269.52695269526953 L 351.02579973556374,268.026802680268 L 353.45844053616275,269.6769676967697 L 356.3178604245862,270.8770877087709 L 358.66514540762034,269.92699269926993 L 360.37226175891794,268.2268226822682 L 362.5488351068223,266.87668766876686 L 364.9814759074214,265.87658765876586 L 367.4567946168029,263.97639763976395 L 369.2065888768829,261.32613261326134 L 370.6149598667034,255.37553755375535 L 370.91370522818045,250.17501750175015 L 375.05346238007706,251.7251725172517 L 373.43170184634437,252.6252625262526 L 377.6994927245883,257.7257725772577 L 382.0526394203971,261.7761776177618 L 387.1313105655074,264.9264926492649 L 393.4476410653084,267.3267326732673 L 396.3070609537319,267.67676767676767 L 398.56899011920115,268.976897689769 L 400.0200390178041,271.02710271027104 L 400.74556346710557,273.77737773777375 L 406.8485044229944,270.7770777077708 L 413.25019074036027,271.4771477147715 L 418.84099679085983,275.27752775277526 L 422.29790740223746,281.47814781478144 L 422.21255158467255,282.8282828282828 L 421.188281773894,286.9286928692869 L 421.0602480475467,288.62886288628863 L 424.3037691150121,293.3293329332933 L 426.30963082778675,298.82988298829883 L 426.73640991561115,301.7301730173017 L 426.4803424629165,304.6304630463046 L 425.54142846970285,306.2806280628063 L 422.55397485493205,308.4808480848085 L 421.74309458806573,310.2310231023102 L 421.9138062231955,311.58115811581155 L 423.02343185153893,314.68146814681467 L 422.98075394275645,315.8815881588159 L 420.67614686850476,319.0819081908191 L 414.9999850004403,324.4324432443244 L 413.8476814633144,327.83278327832784 L 415.38408617948227,331.5331533153315 L 422.55397485493205,339.78397839783975 L 424.7732261116189,343.78437843784377 L 419.39580960503156,343.8343834383438 L 408.5982986830744,340.78407840784075 L 403.1782042677046,340.3340334033403 L 400.1480727441514,341.2341234123412 L 394.85601205512893,344.6844684468447 L 391.9965921667055,345.73457345734573 L 389.1798501870645,345.5845584558456 L 386.87524311281277,344.6344634463446 L 384.44260231221375,344.034403440344 L 381.3697928798781,344.7344734473447 L 380.7296242481415,345.73457345734573 L 380.0894556164049,349.48494849484945 L 379.49196489345076,350.9350935093509 L 378.51037299145463,351.58515851585156 L 375.43756355911904,352.88528852885287 L 360.4576175764828,361.88618861886187 L 358.5797895900555,362.18621862186217 L 355.3362685225901,360.98609860986096 L 352.60488236051395,358.68586858685865 L 348.03834612079294,352.38523852385237 L 346.8860425836671,351.9351935193519 z" /><path fill-rule="evenodd" fill="#D2EBD9" stroke="#A6A6A6" stroke-width="0.25" opacity="1" d="M 375.05346238007706,251.7251725172517 L 370.91370522818045,250.17501750175015 L 370.6149598667034,255.37553755375535 L 369.2065888768829,261.32613261326134 L 367.4567946168029,263.97639763976395 L 364.9814759074214,265.87658765876586 L 362.5488351068223,266.87668766876686 L 360.37226175891794,268.2268226822682 L 358.66514540762034,269.92699269926993 L 356.3178604245862,270.8770877087709 L 353.45844053616275,269.6769676967697 L 351.02579973556374,268.026802680268 L 344.6241134181978,269.52695269526953 L 339.5027643643051,273.7273727372737 L 339.0333073676982,276.8276827682768 L 339.24669691161046,280.02800280028003 L 337.83832592178993,282.87828782878285 L 335.704430482668,285.3285328532853 L 332.3755535976377,286.8286828682868 L 328.5772197160006,287.1287128712871 L 324.82156374314593,288.52885288528853 L 321.70607640202786,290.97909790979094 L 318.88933442238687,292.3292329232923 L 313.5972737333644,291.27912791279124 L 311.6767678381546,292.27922792279224 L 309.5855503078151,293.07930793079305 L 300.836579007415,295.97959795979597 L 297.7637695750794,291.47914791479144 L 274.7603767413446,268.5268526852685 L 270.1938405016236,265.37653765376535 L 265.4565926267728,264.1264126412641 L 254.87247124872783,262.97629762976294 L 252.61054208325857,262.1262126212621 L 251.58627227248002,261.0761076107611 L 250.43396873535414,260.22602260226023 L 245.09923013754923,259.5759575957596 L 242.87997888086238,258.6258625862586 L 248.59881865770924,249.37493749374937 L 249.15363147188097,245.9245924592459 L 251.28752691100294,243.3243324332433 L 253.0799990798654,240.52405240524052 L 251.11681527587317,227.5227522752275 L 251.20217109343807,221.37213721372137 L 252.95196535351806,218.37183718371836 L 255.68335151559418,209.97099709970996 L 258.0733144074108,204.7204720472047 L 258.5000934952352,198.2198219821982 L 257.9879585898459,191.66916691669167 L 263.53608673156305,191.61916191619162 L 268.74279160302063,190.06900690069006 L 271.3888219475319,186.36863686368636 L 274.16288601839045,183.7183718371837 L 286.7955470179925,191.019101910191 L 300.5805115547204,185.9185918591859 L 306.0859617876551,182.81828182818282 L 312.1889027435439,180.96809680968096 L 317.65167506769615,175.86758675867586 L 320.2550275034249,175.8175817581758 L 321.8767880371576,180.1180118011801 L 331.3939616956416,195.1195119511951 L 333.14375595572164,199.46994699469946 L 333.2291117732865,203.67036703670365 L 332.67429895911476,208.3208320832083 L 333.95463622258796,211.12111211121112 L 340.35632253995385,215.72157215721572 L 340.953813262908,216.67166716671667 L 341.8073714385568,219.37193719371936 L 342.40486216151095,220.07200720072007 L 346.2458739519305,220.67206720672067 L 346.7153309485373,220.62206220622062 L 346.8006867661022,220.17201720172017 L 351.2391892794759,220.57205720572057 L 351.49525673217056,221.07210721072107 L 351.8793579112125,223.07230723072306 L 352.22078118147203,223.6223622362236 L 358.36640004614327,225.02250225022502 L 359.98816057987597,225.62256225622562 L 361.8233106575209,227.2227222722272 L 364.81076427229164,230.82308230823082 L 375.6509531030312,235.87358735873585 L 381.7112161501376,241.7241724172417 L 382.0099615116147,247.9247924792479 L 375.05346238007706,251.7251725172517 z" /><path fill-rule="evenodd" fill="#D2EBD9" stroke="#A6A6A6" stroke-width="0.25" opacity="1" d="M 320.2550275034249,175.8175817581758 L 317.65167506769615,175.86758675867586 L 312.1889027435439,180.96809680968096 L 306.0859617876551,182.81828182818282 L 300.5805115547204,185.9185918591859 L 286.7955470179925,191.019101910191 L 274.16288601839045,183.7183718371837 L 271.3888219475319,186.36863686368636 L 268.74279160302063,190.06900690069006 L 263.53608673156305,191.61916191619162 L 257.9879585898459,191.66916691669167 L 257.00636668784983,185.26852685268526 L 252.82393162717074,179.96799679967995 L 245.26994177267898,176.017601760176 L 237.54524028305747,173.01730173017302 L 234.68582039463402,168.76687668766877 L 234.08832967167987,163.51635163516352 L 223.71759783754712,153.015301530153 L 223.67491992876467,149.51495149514952 L 222.86403966189832,146.26462646264625 L 219.96194186469245,146.4146414641464 L 217.48662315531095,148.9148914891489 L 212.70669737167776,144.96449644964497 L 213.17615436828459,140.56405640564054 L 215.6941509864485,136.96369636963695 L 217.35858942896365,131.86318631863185 L 209.67656584812457,122.26222622262226 L 210.8288693852504,116.56165616561655 L 209.24978676030017,111.26112611261125 L 208.69497394612844,100.4100410041004 L 206.73179014213625,93.55935593559356 L 209.03639721638797,88.95889588958896 L 213.34686600341433,86.60866086608661 L 217.48662315531095,83.65836583658366 L 223.24814084094027,75.95759575957595 L 227.00379681379493,78.45784578457845 L 232.97870404333645,85.95859585958596 L 243.43479169503408,92.009200920092 L 263.0666297349562,92.8092809280928 L 269.55367186988695,96.25962596259626 L 272.6264813022226,98.65986598659866 L 274.6750209237797,98.05980598059806 L 278.30264317028707,106.76067606760675 L 282.31436659583636,123.46234623462345 L 285.0884306666949,128.16281628162815 L 297.20895676090765,140.6140614061406 L 306.0859617876551,156.015601560156 L 311.93283529084925,159.7159715971597 L 322.21821130741716,156.36563656365635 L 323.0290915742835,160.4160416041604 L 322.303567124982,164.01640164016402 L 320.9805519527264,167.6167616761676 L 319.9989600507303,171.5171517151715 L 320.2550275034249,175.8175817581758 z" /><path fill-rule="evenodd" fill="#D2EBD9" stroke="#A6A6A6" stroke-width="0.25" opacity="1" d="M 274.6750209237797,98.05980598059806 L 272.6264813022226,98.65986598659866 L 269.55367186988695,96.25962596259626 L 263.0666297349562,92.8092809280928 L 243.43479169503408,92.009200920092 L 232.97870404333645,85.95859585958596 L 227.00379681379493,78.45784578457845 L 223.24814084094027,75.95759575957595 L 217.48662315531095,83.65836583658366 L 213.34686600341433,86.60866086608661 L 209.03639721638797,88.95889588958896 L 206.73179014213625,93.55935593559356 L 203.4455911658884,91.15911591159116 L 199.68993519303376,89.30893089308931 L 196.2757024904386,91.10911091109111 L 194.69661986548834,96.65966596659665 L 194.82465359183567,105.66056605660566 L 191.9225557946298,113.06130613061306 L 192.22130115610688,117.31173117311731 L 191.87987788584735,120.6120612061206 L 188.6790347271644,118.9118911891189 L 187.69744282516828,113.6113611361136 L 183.51500776448924,102.8102810281028 L 174.8087143728716,95.009500950095 L 166.31581052516617,92.55925592559255 L 159.06056603215148,87.65876587658765 L 150.90908545470558,78.6078607860786 L 139.85550708005377,73.4073407340734 L 133.79524403294738,72.85728572857285 L 125.89983090819611,66.15661566156615 L 87.87381418304264,63.556355635563555 L 89.15415144651581,59.1059105910591 L 96.40939593953051,3.1503150315031503 L 150.48230636688118,3.85038503850385 L 161.87730801179248,1.15011501150115 L 171.3091258527116,0.4000400040004 L 172.33339566349014,0.0 L 175.0221039167838,2.05020502050205 L 175.70495045730283,4.65046504650465 L 175.83298418365015,7.650765076507651 L 176.68654235929893,10.95109510951095 L 178.13759125790187,12.301230123012301 L 182.0639588658863,14.15141514151415 L 183.2589403117946,16.15161516151615 L 183.77107521718386,19.901990199019902 L 184.19785430500826,20.75207520752075 L 187.91083236908048,23.05230523052305 L 190.38615107846198,22.752275227522752 L 192.9041476966259,21.45214521452145 L 196.78783739582786,20.8020802080208 L 198.7936991086025,21.5021502150215 L 211.08493683794507,27.25272527252725 L 219.3644511417383,35.053505350535055 L 227.302542175272,39.55395539553955 L 229.60714924952373,41.45414541454145 L 234.7711762121989,44.354435443544354 L 237.67327400940476,48.054805480548055 L 243.5628254213814,62.156215621562154 L 245.95278831319803,65.6065606560656 L 261.7009366539181,78.7078707870787 L 268.65743578545573,87.2087208720872 L 274.07753020082555,96.6096609660966 L 274.6750209237797,98.05980598059806 z" /><path fill-rule="evenodd" fill="#D2EBD9" stroke="#A6A6A6" stroke-width="0.25" opacity="1" d="M 57.572498947510695,276.17761776177616 L 62.90723754531561,269.52695269526953 L 70.93068439641421,266.8266826682668 L 78.69806379481817,275.027502750275 L 84.41690357166505,277.57775777577757 L 90.56252243633631,278.9278927892789 L 94.95834704092756,279.32793279327933 L 99.09810419282418,278.4278427842784 L 103.2378613447208,277.07770777077707 L 107.71904176687694,278.1278127812781 L 117.15085960779604,278.6278627862786 L 123.89396919542145,274.027402740274 L 126.66803326628,276.6276627662766 L 128.50318334392492,279.97799779978 L 127.77765889462343,281.9281928192819 L 126.45464372236782,283.57835783578355 L 128.1617600736654,289.92899289928994 L 131.36260323234833,295.3295329532953 L 132.0881276816498,301.7301730173017 L 129.10067406687907,307.5807580758076 L 129.74084269861564,312.88128812881286 L 132.13080559043226,317.83178317831783 L 131.57599277626053,325.6825682568257 L 128.75925079661954,333.18331833183316 L 126.45464372236782,337.3837383738374 L 123.21112265490243,351.4351435143514 L 117.36424915170824,359.38593859385935 L 111.77344310120867,354.035403540354 L 104.0914195203696,352.28522852285226 L 98.6713251049998,348.2348234823482 L 96.53742966587782,350.18501850185015 L 88.94076190260363,350.18501850185015 L 85.48385129122603,341.8341834183418 L 71.0160402139791,335.8835883588359 L 69.86373667685322,333.88338833883387 L 71.27210766667372,330.48304830483045 L 74.30223919022691,326.73267326732673 L 76.18006717665425,322.032203220322 L 69.30892386268151,315.031503150315 L 58.852836210983874,314.68146814681467 L 59.02354784611363,313.18131813181316 L 57.956600126552644,310.5310531053105 L 55.01182442056433,308.8808880888089 L 53.30470806926676,304.98049804980496 L 52.49382780240041,300.28002800280024 L 53.133996434136996,284.87848784878486 L 54.755756967869694,280.32803280328034 L 58.68212457585412,277.17771777177717 L 57.572498947510695,276.17761776177616 z" /><path fill-rule="evenodd" fill="#D2EBD9" stroke="#A6A6A6" stroke-width="0.25" opacity="1" d="M 51.981692897011136,244.67446744674467 L 76.09471135908937,259.5759575957596 L 80.10643478463868,263.27632763276324 L 84.28886984531773,266.3266326632663 L 89.62360844312265,267.17671767176716 L 93.29390859841243,266.97669766976696 L 97.22027620639686,263.6263626362636 L 98.32990183474028,259.4259425942594 L 98.03115647326321,253.27532753275327 L 96.70814130100759,247.77477747774776 L 94.74495749701538,241.3241324132413 L 92.8244516018056,234.07340734073406 L 90.30645498364169,217.27172717271725 L 86.08134201418018,212.47124712471245 L 82.45371976767284,209.1209120912091 L 74.08884964631473,206.32063206320632 L 54.755756967869694,206.67066706670667 L 55.05450232934677,202.6202620262026 L 54.627723241522375,184.46844684468445 L 53.17667434291944,174.66746674667465 L 58.89551411976631,173.61736173617362 L 74.68634036926888,169.96699669966995 L 102.0428798988125,170.6170617061706 L 106.99351731757547,172.26722672267226 L 112.20022218903307,172.96729672967297 L 115.82784443554041,172.86728672867287 L 118.21780732735702,175.3175317531753 L 118.5165526888341,178.21782178217822 L 118.43119687126922,181.1181118111811 L 119.07136550300581,183.8183818381838 L 120.4797364928263,186.26862686268626 L 125.98518672576098,201.62016201620162 L 129.18602988444394,207.67076707670765 L 133.41114285390543,210.27102710271026 L 137.935001184844,212.37123712371235 L 139.9835408064011,217.5217521752175 L 139.7701512624889,223.1223122312231 L 142.62957115091234,231.5231523152315 L 139.51408380979424,242.2242224222422 L 139.94086289761864,246.47464746474645 L 137.63625582336692,249.17491749174917 L 135.118259205203,247.47474747474746 L 133.62453239781763,245.77457745774575 L 131.3199253235659,249.92499249924992 L 129.484775245921,254.9254925492549 L 127.13749026288684,259.2759275927593 L 127.35087980679904,263.9263926392639 L 123.89396919542145,274.027402740274 L 117.15085960779604,278.6278627862786 L 107.71904176687694,278.1278127812781 L 103.2378613447208,277.07770777077707 L 99.09810419282418,278.4278427842784 L 94.95834704092756,279.32793279327933 L 90.56252243633631,278.9278927892789 L 84.41690357166505,277.57775777577757 L 78.69806379481817,275.027502750275 L 70.93068439641421,266.8266826682668 L 62.90723754531561,269.52695269526953 L 57.572498947510695,276.17761776177616 L 52.23776034970577,271.2771277127713 L 51.25616844770967,268.17681768176817 L 50.78671145110283,261.42614261426144 L 51.981692897011136,244.67446744674467 z" /><path fill-rule="evenodd" fill="#D2EBD9" stroke="#A6A6A6" stroke-width="0.25" opacity="1" d="M 54.755756967869694,206.67066706670667 L 74.08884964631473,206.32063206320632 L 82.45371976767284,209.1209120912091 L 86.08134201418018,212.47124712471245 L 90.30645498364169,217.27172717271725 L 92.8244516018056,234.07340734073406 L 94.74495749701538,241.3241324132413 L 96.70814130100759,247.77477747774776 L 98.03115647326321,253.27532753275327 L 98.32990183474028,259.4259425942594 L 97.22027620639686,263.6263626362636 L 93.29390859841243,266.97669766976696 L 89.62360844312265,267.17671767176716 L 84.28886984531773,266.3266326632663 L 80.10643478463868,263.27632763276324 L 76.09471135908937,259.5759575957596 L 51.981692897011136,244.67446744674467 L 54.755756967869694,206.67066706670667 z" /><path fill-rule="evenodd" fill="#D2EBD9" stroke="#A6A6A6" stroke-width="0.25" opacity="1" d="M 87.87381418304264,63.556355635563555 L 125.89983090819611,66.15661566156615 L 133.79524403294738,72.85728572857285 L 139.85550708005377,73.4073407340734 L 150.90908545470558,78.6078607860786 L 159.06056603215148,87.65876587658765 L 166.31581052516617,92.55925592559255 L 174.8087143728716,95.009500950095 L 183.51500776448924,102.8102810281028 L 187.69744282516828,113.6113611361136 L 188.6790347271644,118.9118911891189 L 191.87987788584735,120.6120612061206 L 192.22130115610688,117.31173117311731 L 191.9225557946298,113.06130613061306 L 194.82465359183567,105.66056605660566 L 194.69661986548834,96.65966596659665 L 196.2757024904386,91.10911091109111 L 199.68993519303376,89.30893089308931 L 203.4455911658884,91.15911591159116 L 206.73179014213625,93.55935593559356 L 208.69497394612844,100.4100410041004 L 209.24978676030017,111.26112611261125 L 210.8288693852504,116.56165616561655 L 209.67656584812457,122.26222622262226 L 217.35858942896365,131.86318631863185 L 215.6941509864485,136.96369636963695 L 213.17615436828459,140.56405640564054 L 212.70669737167776,144.96449644964497 L 217.48662315531095,148.9148914891489 L 213.94435672636848,153.015301530153 L 207.7560599529148,153.2153215321532 L 200.24474800720546,156.3156315631563 L 203.57362489223573,162.06620662066206 L 197.42800602756446,170.46704670467045 L 195.42214431478982,167.16671667166716 L 192.43469070001905,158.71587158715872 L 187.74012073395073,153.06530653065306 L 181.55182396049702,149.16491649164917 L 177.6254563525126,153.3153315331533 L 180.27148669702385,157.96579657965796 L 180.05809715311165,160.66606660666065 L 182.7041274976229,177.91779177917792 L 184.02714266987851,183.16831683168317 L 183.685719399619,188.3188318831883 L 177.45474471738285,189.96899689968996 L 170.7969909473223,190.6190619061906 L 168.66309550820034,187.36873687368737 L 166.2304547076013,184.3184318431843 L 165.2488628056052,181.018101810181 L 158.9752102145866,173.11731173117312 L 159.1885997584988,182.91829182918292 L 157.5668392247661,189.26892689268925 L 151.46389826887727,193.06930693069305 L 141.69065715769867,205.47054705470546 L 137.935001184844,212.37123712371235 L 133.41114285390543,210.27102710271026 L 129.18602988444394,207.67076707670765 L 125.98518672576098,201.62016201620162 L 120.4797364928263,186.26862686268626 L 119.07136550300581,183.8183818381838 L 118.43119687126922,181.1181118111811 L 118.5165526888341,178.21782178217822 L 118.21780732735702,175.3175317531753 L 115.82784443554041,172.86728672867287 L 112.20022218903307,172.96729672967297 L 106.99351731757547,172.26722672267226 L 102.0428798988125,170.6170617061706 L 74.68634036926888,169.96699669966995 L 58.89551411976631,173.61736173617362 L 53.17667434291944,174.66746674667465 L 50.744033542320395,157.8157815781578 L 52.7072173463126,130.51305130513052 L 54.92646860299945,124.36243624362436 L 58.42605712315948,119.36193619361936 L 67.17502842355955,109.9109910991099 L 81.47212786567673,85.75857585758575 L 87.87381418304264,63.556355635563555 z" /><path fill-rule="evenodd" fill="#D2EBD9" stroke="#A6A6A6" stroke-width="0.25" opacity="1" d="M 205.87823196648745,325.2825282528253 L 195.55017804113714,313.8313831383138 L 197.25729439243472,301.3301330133013 L 194.82465359183567,298.42984298429843 L 191.2823871628932,297.3297329732973 L 193.80038378105712,293.67936793679365 L 195.84892340261422,289.2789278927893 L 199.26315610520936,286.67866786678667 L 203.06148998684645,284.87848784878486 L 193.1175372405381,279.8779877987799 L 187.185307919779,271.77717771777174 L 196.78783739582786,265.97659765976596 L 197.8974630241713,256.4256425642564 L 204.76860633814402,252.025202520252 L 208.01212740560942,245.47454745474545 L 206.04894360161722,241.67416741674165 L 205.0673516996211,237.77377737773776 L 204.89664006449135,233.17331733173316 L 203.82969234493038,228.57285728572856 L 193.58699423714492,220.62206220622062 L 180.91165532876045,212.8212821282128 L 184.49659966648534,209.2209220922092 L 187.3986974636912,204.57045704570456 L 189.27652545011856,200.07000700070006 L 189.91669408185513,195.3195319531953 L 179.11918315989797,196.61966196619662 L 170.7969909473223,190.6190619061906 L 177.45474471738285,189.96899689968996 L 183.685719399619,188.3188318831883 L 184.02714266987851,183.16831683168317 L 182.7041274976229,177.91779177917792 L 180.05809715311165,160.66606660666065 L 180.27148669702385,157.96579657965796 L 177.6254563525126,153.3153315331533 L 181.55182396049702,149.16491649164917 L 187.74012073395073,153.06530653065306 L 192.43469070001905,158.71587158715872 L 195.42214431478982,167.16671667166716 L 197.42800602756446,170.46704670467045 L 203.57362489223573,162.06620662066206 L 200.24474800720546,156.3156315631563 L 207.7560599529148,153.2153215321532 L 213.94435672636848,153.015301530153 L 217.48662315531095,148.9148914891489 L 219.96194186469245,146.4146414641464 L 222.86403966189832,146.26462646264625 L 223.67491992876467,149.51495149514952 L 223.71759783754712,153.015301530153 L 234.08832967167987,163.51635163516352 L 234.68582039463402,168.76687668766877 L 237.54524028305747,173.01730173017302 L 245.26994177267898,176.017601760176 L 252.82393162717074,179.96799679967995 L 257.00636668784983,185.26852685268526 L 257.9879585898459,191.66916691669167 L 258.5000934952352,198.2198219821982 L 258.0733144074108,204.7204720472047 L 255.68335151559418,209.97099709970996 L 252.95196535351806,218.37183718371836 L 251.20217109343807,221.37213721372137 L 251.11681527587317,227.5227522752275 L 253.0799990798654,240.52405240524052 L 251.28752691100294,243.3243324332433 L 249.15363147188097,245.9245924592459 L 248.59881865770924,249.37493749374937 L 242.87997888086238,258.6258625862586 L 241.25821834712968,256.87568756875686 L 240.66072762417554,254.32543254325432 L 238.82557754653064,251.97519751975196 L 234.72849830341647,253.17531753175317 L 230.84480860421448,256.77567756775676 L 229.47911552317643,261.42614261426144 L 230.24731788126033,262.17621762176213 L 235.02724366489355,270.12701270127013 L 237.11846119523307,272.4272427242724 L 238.31344264114136,274.37743774377435 L 238.82557754653064,276.6276627662766 L 238.95361127287796,279.6779677967797 L 237.5879181918399,285.17851785178516 L 234.38707503315695,288.7788778877888 L 230.71677487786715,291.57915791579154 L 227.90003289822616,294.7294729472947 L 224.9979351010203,301.68016801680164 L 222.90671757068077,302.5302530253025 L 217.65733479044073,302.6302630263026 L 216.07825216549045,301.4301430143014 L 215.0539823547119,299.0799079907991 L 213.60293345610899,297.7797779777978 L 210.5728019325558,299.4799479947995 L 208.9510413988231,301.9301930193019 L 208.90836349004064,304.2304230423042 L 210.5728019325558,309.0809080908091 L 212.70669737167776,318.6818681868187 L 211.9811729223763,323.08230823082306 L 208.14016113195675,324.88248824882487 L 205.87823196648745,325.2825282528253 z" /><path fill-rule="evenodd" fill="#D2EBD9" stroke="#A6A6A6" stroke-width="0.25" opacity="1" d="M 132.13080559043226,317.83178317831783 L 129.74084269861564,312.88128812881286 L 129.10067406687907,307.5807580758076 L 132.0881276816498,301.7301730173017 L 131.36260323234833,295.3295329532953 L 128.1617600736654,289.92899289928994 L 126.45464372236782,283.57835783578355 L 127.77765889462343,281.9281928192819 L 128.50318334392492,279.97799779978 L 126.66803326628,276.6276627662766 L 123.89396919542145,274.027402740274 L 127.35087980679904,263.9263926392639 L 127.13749026288684,259.2759275927593 L 129.484775245921,254.9254925492549 L 131.3199253235659,249.92499249924992 L 133.62453239781763,245.77457745774575 L 135.118259205203,247.47474747474746 L 137.63625582336692,249.17491749174917 L 139.94086289761864,246.47464746474645 L 143.6965188704733,249.17491749174917 L 148.3484109277592,250.47504750475045 L 151.71996572157192,248.67486748674867 L 153.04298089382755,246.57465746574655 L 154.96348678903732,246.77467746774676 L 156.41453568764024,248.1248124812481 L 159.48734511997588,249.82498249824982 L 166.31581052516617,251.17511751175115 L 175.40620509582575,251.025102510251 L 192.30665697367175,254.12541254125412 L 197.8974630241713,256.4256425642564 L 196.78783739582786,265.97659765976596 L 187.185307919779,271.77717771777174 L 193.1175372405381,279.8779877987799 L 203.06148998684645,284.87848784878486 L 199.26315610520936,286.67866786678667 L 195.84892340261422,289.2789278927893 L 193.80038378105712,293.67936793679365 L 191.2823871628932,297.3297329732973 L 185.7342590211761,295.8295829582958 L 180.14345297067652,294.9294929492949 L 177.4120668086004,293.17931793179315 L 173.9551561972228,292.47924792479245 L 169.8153990453262,294.7294729472947 L 167.46811406229205,298.8798879887989 L 167.80953733255154,302.38023802380235 L 166.4438442515135,304.8304830483048 L 160.63964865710173,302.4302430243024 L 155.43294378564414,301.8301830183018 L 154.87813097147242,311.28112811281125 L 151.97603317426655,313.38133813381336 L 148.43376674532408,312.28122812281225 L 146.04380385350748,313.58135813581356 L 143.86723050560306,316.1316131613161 L 138.23374654632107,316.2816281628163 L 132.13080559043226,317.83178317831783 z" /><path fill-rule="evenodd" fill="#D2EBD9" stroke="#A6A6A6" stroke-width="0.25" opacity="1" d="M 197.8974630241713,256.4256425642564 L 192.30665697367175,254.12541254125412 L 175.40620509582575,251.025102510251 L 166.31581052516617,251.17511751175115 L 159.48734511997588,249.82498249824982 L 156.41453568764024,248.1248124812481 L 154.96348678903732,246.77467746774676 L 153.04298089382755,246.57465746574655 L 151.71996572157192,248.67486748674867 L 148.3484109277592,250.47504750475045 L 143.6965188704733,249.17491749174917 L 139.94086289761864,246.47464746474645 L 139.51408380979424,242.2242224222422 L 142.62957115091234,231.5231523152315 L 139.7701512624889,223.1223122312231 L 139.9835408064011,217.5217521752175 L 137.935001184844,212.37123712371235 L 141.69065715769867,205.47054705470546 L 151.46389826887727,193.06930693069305 L 157.5668392247661,189.26892689268925 L 159.1885997584988,182.91829182918292 L 158.9752102145866,173.11731173117312 L 165.2488628056052,181.018101810181 L 166.2304547076013,184.3184318431843 L 168.66309550820034,187.36873687368737 L 170.7969909473223,190.6190619061906 L 179.11918315989797,196.61966196619662 L 189.91669408185513,195.3195319531953 L 189.27652545011856,200.07000700070006 L 187.3986974636912,204.57045704570456 L 184.49659966648534,209.2209220922092 L 180.91165532876045,212.8212821282128 L 193.58699423714492,220.62206220622062 L 203.82969234493038,228.57285728572856 L 204.89664006449135,233.17331733173316 L 205.0673516996211,237.77377737773776 L 206.04894360161722,241.67416741674165 L 208.01212740560942,245.47454745474545 L 204.76860633814402,252.025202520252 L 197.8974630241713,256.4256425642564 z" /><path fill-rule="evenodd" fill="#D2EBD9" stroke="#A6A6A6" stroke-width="0.25" opacity="1" d="M 212.70669737167776,318.6818681868187 L 210.5728019325558,309.0809080908091 L 208.90836349004064,304.2304230423042 L 208.9510413988231,301.9301930193019 L 210.5728019325558,299.4799479947995 L 213.60293345610899,297.7797779777978 L 215.0539823547119,299.0799079907991 L 216.07825216549045,301.4301430143014 L 217.65733479044073,302.6302630263026 L 222.90671757068077,302.5302530253025 L 224.9979351010203,301.68016801680164 L 227.90003289822616,294.7294729472947 L 230.71677487786715,291.57915791579154 L 234.38707503315695,288.7788778877888 L 237.5879181918399,285.17851785178516 L 238.95361127287796,279.6779677967797 L 238.82557754653064,276.6276627662766 L 238.31344264114136,274.37743774377435 L 237.11846119523307,272.4272427242724 L 235.02724366489355,270.12701270127013 L 230.24731788126033,262.17621762176213 L 229.47911552317643,261.42614261426144 L 230.84480860421448,256.77567756775676 L 234.72849830341647,253.17531753175317 L 238.82557754653064,251.97519751975196 L 240.66072762417554,254.32543254325432 L 241.25821834712968,256.87568756875686 L 242.87997888086238,258.6258625862586 L 245.09923013754923,259.5759575957596 L 250.43396873535414,260.22602260226023 L 251.58627227248002,261.0761076107611 L 252.61054208325857,262.1262126212621 L 254.87247124872783,262.97629762976294 L 265.4565926267728,264.1264126412641 L 270.1938405016236,265.37653765376535 L 274.7603767413446,268.5268526852685 L 297.7637695750794,291.47914791479144 L 300.836579007415,295.97959795979597 L 310.353752665899,304.2304230423042 L 312.1889027435439,305.2305230523052 L 310.60982011859363,306.1806180618062 L 308.34789095312436,307.1807180718072 L 305.1897257032238,308.0808080808081 L 302.287627906018,307.1307130713071 L 299.4282080175945,306.4806480648065 L 297.0382451257779,307.6807680768077 L 292.2156414333623,311.2311231123112 L 290.38049135571737,313.48134813481346 L 291.19137162258374,316.8816881688169 L 292.38635306849204,320.2320232023202 L 297.20895676090765,329.18291829182914 L 300.7085452810677,338.7338733873387 L 300.62318946350285,347.98479847984794 L 296.73949976430083,356.1856185618562 L 287.2223261058169,360.48604860486046 L 277.23569545072604,362.4362436243624 L 270.49258586310066,354.0854085408541 L 255.42728406289956,343.6343634363436 L 246.5929569449346,343.3343334333433 L 237.50256237427502,339.38393839383934 L 232.50924704672963,331.48314831483145 L 228.54020152996276,327.63276327632764 L 223.84563156389441,325.0825082508251 L 221.92512566868464,320.9320932093209 L 212.70669737167776,318.6818681868187 z" /></g></g></g></svg>