<svg xmlns="http://www.w3.org/2000/svg" xmlns:xlink="http://www.w3.org/1999/xlink" width="245.37613836675882" height="500.0" viewBox="0.0 0.0 245.37613836675882 500.0" preserveAspectRatio="xMinYMin meet"><g transform="matrix(1,0,0,-1,0,500.0)"><g><g><path fill-rule="evenodd" fill="#D2EBD9" stroke="#A6A6A6" stroke-width="0.25" opacity="1" d="M 245.35159829891535,356.0856085608561 L 245.35159829891535,358.035803580358 L 244.95895721341998,360.38603860386036 L 244.2227551781162,361.98619861986197 L 243.21661239653432,362.58625862586257 L 241.0570864263098,363.0863086308631 L 240.29634432316254,363.986398639864 L 239.56014228785875,366.63666366636664 L 239.16750120236338,367.5367536753675 L 237.22883584273,369.48694869486945 L 236.8116546893912,370.4370437043704 L 236.90981496076503,371.8371837183718 L 238.65215977765072,376.13761376137614 L 238.7257799811811,378.5378537853785 L 237.10613550351272,385.7885788578858 L 236.27177319683506,387.18871887188715 L 235.68281156859203,388.6388638863886 L 235.36379068662706,390.28902890289027 L 235.36379068662706,392.039203920392 L 236.17361292546124,395.1895189518952 L 235.5110310936878,395.8395839583958 L 234.01408695523673,395.7395739573957 L 233.3515051234633,395.8395839583958 L 231.4373798316734,397.68976897689765 L 217.15506034677955,417.9417941794179 L 215.95259702245,420.1420142014201 L 215.80535661538923,422.04220422042204 L 217.91580244992682,427.6427642764276 L 218.87286509582177,431.2931293129313 L 224.3943803606003,440.7940794079408 L 226.16126524532945,442.64426442644265 L 225.59684368492987,443.09430943094304 L 224.86064164962607,444.39443944394435 L 224.19805981785265,444.79447944794475 L 222.7501958150885,448.6448644864486 L 221.42503215154164,449.74497449744973 L 218.75016475660448,453.59535953595355 L 218.1121229926745,454.19541954195415 L 217.22868055030995,454.79547954795476 L 214.30841247693817,455.8455845584558 L 210.72556257179298,458.0958095809581 L 208.9832177549073,458.8958895889589 L 208.0506951768558,459.04590459045903 L 205.84208907094438,457.8957895789579 L 204.73778601798867,458.1958195819582 L 203.75618330425027,458.84588458845883 L 201.9402182838342,460.7960796079608 L 200.12425326341815,463.89638963896385 L 199.5352916351751,465.39653965396536 L 198.94633000693207,468.94689468946893 L 198.70092932849747,469.3969396939694 L 197.6211663433852,470.1970197019702 L 197.37576566495062,470.64706470647064 L 183.65786774045634,483.2483248324832 L 180.44311885296304,487.998799879988 L 179.3633558678508,489.94899489948995 L 178.67623396823393,490.1990199019902 L 176.05044670898369,490.4990499049905 L 174.20994162072415,491.29912991299125 L 173.57189985679418,491.9491949194919 L 173.05655843208152,493.79937993799376 L 172.44305673599501,494.79947994799477 L 171.63323449716083,495.6995699569957 L 170.01359001949245,496.54965496549653 L 166.18533943591265,500.0 L 165.25281685786118,498.74987498749874 L 162.5288693272371,498.54985498549854 L 160.90922484956872,498.5998599859986 L 160.14848274642145,498.44984498449844 L 159.26504030405687,497.84978497849784 L 157.98895677619694,496.2996299629963 L 157.25275474089312,495.6995699569957 L 156.4183924342155,495.4995499549955 L 155.58403012753783,496.0996099609961 L 154.72512775301672,495.7495749574957 L 154.28340653183446,495.2495249524952 L 153.64536476790448,493.39933993399336 L 152.54106171494877,491.6491649164916 L 151.80485967964498,491.19911991199115 L 149.0072919454905,491.9491949194919 L 148.4428703850909,491.8491849184918 L 146.99500638232675,490.89908990899085 L 145.62076258309298,491.39913991399135 L 142.7741147132516,490.6490649064906 L 141.69435172813937,489.6989698969897 L 141.2280904391136,489.44894489448944 L 140.63912881087057,489.3989398939894 L 140.05016718262752,490.3990399039904 L 138.35690250142875,490.54905490549055 L 137.79248094102917,490.2990299029903 L 136.95811863435154,488.44884488448844 L 136.56547754885617,488.5988598859886 L 136.09921625983043,489.04890489048904 L 135.51025463158737,489.1989198919892 L 135.09307347824856,488.8988898889889 L 134.2587111715709,487.74877487748773 L 133.22802832214558,487.64876487648763 L 131.41206330172952,487.74877487748773 L 130.3077602487738,487.5987598759876 L 128.36909488914046,486.6986698669867 L 127.68197298952356,485.29852985298527 L 127.75559319305394,483.4483448344834 L 128.51633529620122,478.8978897889789 L 131.21574275898183,471.24712471247125 L 132.2218855405637,469.74697469746974 L 133.05624784724137,469.0969096909691 L 133.890610153919,468.6968696869687 L 134.65135225706626,468.54685468546853 L 135.16669368177892,468.14681468146813 L 135.33847415668316,467.1467146714671 L 135.28939402099624,465.7465746574657 L 134.70043239275319,465.59655965596556 L 133.86607008607555,465.89658965896587 L 133.0807879150848,465.8465846584658 L 132.51636635468523,465.2465246524652 L 131.90286465859873,464.046404640464 L 131.3629831660426,463.4463446344634 L 130.6758612664257,463.2463246324632 L 129.91511916327843,463.3463346334633 L 129.252537331505,463.19631963196315 L 128.78627604247927,462.1462146214621 L 128.90897638169656,461.24612461246124 L 129.8169588919046,459.84598459845984 L 129.98873936680883,458.995899589959 L 127.11755142912398,451.14511451145114 L 125.9887083083248,448.994899489949 L 122.92119982789228,445.5445544554455 L 122.06229745337117,443.2443244324432 L 122.08683752121463,440.94409440944094 L 121.7923567070931,440.14401440144013 L 120.6880536541374,439.0939093909391 L 116.41808184937531,436.69366936693666 L 110.60208577047524,431.8931893189319 L 100.09893673347426,421.14211421142113 L 100.46703775112617,420.6920692069207 L 116.0009006960365,392.6892689268927 L 119.92731155099013,387.038703870387 L 121.6696563678758,386.8386838683868 L 123.16660050632689,386.08860886088604 L 123.75556213456993,385.98859885988594 L 124.68808471262142,385.33853385338534 L 127.26479183618474,382.8382838283828 L 122.52855874239691,378.8378837883788 L 120.95799440041546,377.037703770377 L 120.14817216158127,375.5875587558756 L 119.85369134745974,374.5874587458746 L 119.706450940399,373.2873287328733 L 120.09909202589435,347.43474347434744 L 119.21564958352978,346.93469346934694 L 123.04390016710958,346.93469346934694 L 127.21571170049782,347.9347934793479 L 131.26482289466875,348.18481848184814 L 135.3139340888397,348.9348934893489 L 147.87844882469133,347.98479847984794 L 160.6638241711341,349.7349734973497 L 165.03195624727002,349.58495849584955 L 176.6639484050702,347.1847184718472 L 195.92790166218646,348.78487848784874 L 215.11823471577236,352.7352735273527 L 245.35159829891535,356.0856085608561 z" /><path fill-rule="evenodd" fill="#D2EBD9" stroke="#A6A6A6" stroke-width="0.25" opacity="1" d="M 245.35159829891535,356.0856085608561 L 215.11823471577236,352.7352735273527 L 195.92790166218646,348.78487848784874 L 176.6639484050702,347.1847184718472 L 165.03195624727002,349.58495849584955 L 160.6638241711341,349.7349734973497 L 147.87844882469133,347.98479847984794 L 135.3139340888397,348.9348934893489 L 131.26482289466875,348.18481848184814 L 127.21571170049782,347.9347934793479 L 123.04390016710958,346.93469346934694 L 119.21564958352978,346.93469346934694 L 117.00704347761837,345.53455345534553 L 115.01929798229808,342.88428842884286 L 114.03769526855967,341.18411841184115 L 113.52235384384701,339.8339833983398 L 113.39965350462971,337.4837483748375 L 113.54689391169047,336.83368336833684 L 114.30763601483774,335.5835583558356 L 116.83526300271414,333.033303330333 L 117.22790408820951,332.38323832383236 L 118.43036741253906,329.28292829282924 L 118.67576809097366,328.03280328032804 L 119.8291512796163,324.28242824282427 L 120.4426529757028,318.53185318531854 L 120.22179236511165,315.8815881588159 L 118.79846843019097,314.4314431443144 L 118.08680646273062,314.031403140314 L 114.92113771092424,312.88128812881286 L 113.62051411522086,312.6312631263126 L 109.2769221069284,312.48124812481245 L 107.70635776494694,311.88118811881185 L 106.84745539042584,311.18111811181114 L 106.23395369433932,310.4310431043104 L 105.96401294806127,309.8309830983098 L 105.86585267668742,309.03090309030904 L 106.20941362649586,307.53075307530753 L 106.89653552611276,305.88058805880587 L 106.72475505120853,305.1305130513051 L 105.86585267668742,303.78037803780376 L 106.57751464414777,299.82998299829984 L 106.57751464414777,298.22982298229823 L 105.96401294806127,295.9295929592959 L 105.27689104844437,291.67916791679164 L 105.30143111628783,289.22892289228923 L 106.99469579748659,284.37843784378435 L 108.04991871475538,282.67826782678264 L 109.66956319242375,280.92809280928094 L 111.01926692381407,279.7779777977798 L 111.73092889127442,278.3278327832783 L 111.73092889127442,277.17771777177717 L 108.58980020731151,256.4256425642564 L 108.29531939318998,255.37553755375535 L 107.4854971543558,254.42544254425442 L 106.430274237087,253.87538753875387 L 101.10507951505613,253.77537753775377 L 99.43635490170084,253.37533753375337 L 98.08665117031053,252.47524752475246 L 96.9332679816679,248.97489748974897 L 96.54062689617254,246.27462746274625 L 96.51608682832908,241.67416741674165 L 96.73694743892021,239.12391239123912 L 97.08050838872866,237.37373737373736 L 97.64492994912824,236.27362736273625 L 98.60199259502319,235.07350735073507 L 99.60813537660506,234.32343234323432 L 102.20938256801185,233.023302330233 L 102.82288426409835,232.07320732073205 L 102.89650446762873,230.97309730973097 L 101.6204209397688,226.9226922692269 L 101.05599937936921,223.2223222322232 L 100.884218904465,219.27192719271926 L 101.00691924368229,217.9217921792179 L 101.35048019349074,216.27162716271627 L 101.91490175389032,215.021502150215 L 103.55908629940215,213.27132713271325 L 105.89039274453089,212.021202120212 L 113.86591479365545,209.8209820982098 L 114.60211682895927,209.47094709470946 L 115.068378117985,208.97089708970896 L 114.40579628621158,206.12061206120612 L 156.51655270558933,205.67056705670566 L 156.54109277343278,206.62066206620662 L 156.98281399461507,207.2207220722072 L 158.3325177260054,207.8207820782078 L 158.7496988793442,208.27082708270825 L 158.84785915071805,208.97089708970896 L 158.35705779384884,210.92109210921092 L 158.65153860797037,212.17121712171215 L 159.6331413217088,214.47144714471446 L 159.6822214573957,215.72157215721572 L 159.3632005754307,216.27162716271627 L 158.62699854012692,216.62166216621662 L 158.5042982009096,217.27172717271725 L 159.85400193229992,219.27192719271926 L 160.29572315348221,221.47214721472147 L 160.46750362838642,226.6226622662266 L 160.19756288210837,228.7228722872287 L 166.3571199108169,228.2228222822282 L 167.41234282808568,228.37283728372836 L 168.86020683084982,229.67296729672967 L 169.71910920537093,230.22302230223022 L 173.0074782963946,230.47304730473047 L 173.89092073875918,230.37303730373037 L 176.32038745526174,229.022902290229 L 177.2529100333132,229.022902290229 L 182.7008050945614,230.47304730473047 L 184.6640105220382,231.8231823182318 L 185.89101391421121,234.32343234323432 L 188.54134124130493,242.6242624262426 L 190.18552578681675,245.77457745774575 L 190.67632714368597,247.4247424742474 L 190.67632714368597,252.67526752675266 L 190.4063863974079,254.02540254025402 L 189.40024361582604,256.57565756575656 L 188.8603621232699,258.8258825882588 L 189.17938300523488,261.0761076107611 L 190.70086721152944,263.57635763576354 L 191.28982883977247,263.97639763976395 L 192.5659123676324,264.4264426442644 L 193.15487399587545,264.97649764976495 L 198.03834749672404,271.32713271327134 L 198.1119677002544,271.77717771777174 L 197.59662627554175,273.3273327332733 L 198.21012797162825,275.3275327532753 L 199.48621149948818,275.7275727572757 L 201.03223577362618,275.4275427542754 L 202.45555970854687,275.37753775377536 L 205.05680689995367,276.8276827682768 L 205.59668839250978,278.9278927892789 L 204.98318669642327,281.37813781378134 L 204.00158398268488,283.87838783878385 L 203.70710316856335,285.47854785478546 L 203.90342371131104,287.3287328732873 L 204.5905456109279,288.92889288928893 L 205.8911692066313,289.8789878987899 L 211.60900501415753,292.27922792279224 L 214.725593630277,293.07930793079305 L 219.51090685975174,292.57925792579255 L 220.93423079467243,293.87938793879385 L 223.02013656136654,297.7297729772977 L 225.59684368492987,300.8300830083008 L 226.40666592376405,302.4302430243024 L 226.89746728063326,309.3809380938094 L 227.4373487731894,310.68106810681064 L 228.6643521653624,311.88118811881185 L 229.81773535400504,312.4312431243124 L 230.8238781355869,313.18131813181316 L 231.5600801708907,314.9314931493149 L 231.83002091716878,316.83168316831683 L 231.60916030657762,318.13181318131814 L 230.87295827127383,319.13191319131914 L 225.4496032778691,324.7324732473247 L 224.32076015706994,326.5826582658266 L 224.24713995353954,328.13281328132814 L 225.8913244990514,331.78317831783176 L 227.90361006221514,334.8834883488349 L 228.2226309441801,335.8835883588359 L 228.2962511477105,337.43374337433744 L 228.51711175830164,337.983798379838 L 229.0324531830143,338.7338733873387 L 230.60301752499575,340.28402840284025 L 232.1735818669772,340.78407840784075 L 233.8423064803325,340.48404840484045 L 238.94664059177222,337.7837783778378 L 240.1981840517887,337.983798379838 L 241.40064737611826,339.5339533953395 L 241.9405288686744,341.034103410341 L 242.01414907220476,345.1845184518452 L 242.75035110750858,347.3847384738474 L 244.76263667067232,351.4351435143514 L 245.37613836675882,353.5853585358536 L 245.35159829891535,356.0856085608561 z" /><path fill-rule="evenodd" fill="#D2EBD9" stroke="#A6A6A6" stroke-width="0.25" opacity="1" d="M 156.09937155225052,116.06160616061605 L 138.60230317986336,116.06160616061605 L 137.39983985553383,112.71127112711271 L 137.20351931278614,110.46104610461046 L 137.74340080534225,108.36083608360836 L 137.57162033043804,107.46074607460746 L 136.4182371417954,107.1107110711071 L 135.6329549708047,106.56065606560655 L 133.12986805077173,103.01030103010301 L 132.19734547272026,101.26012601260125 L 132.39366601546791,99.3099309930993 L 132.95808757586752,97.35973597359735 L 133.3998087970498,95.80958095809581 L 133.3998087970498,92.25922592259225 L 133.66974954332787,91.50915091509151 L 134.47957178216205,90.15901590159015 L 134.47957178216205,88.90889088908891 L 136.00105598845659,83.2083208320832 L 137.20351931278614,80.55805580558055 L 140.982689760679,77.95779577957795 L 141.44895104970476,77.45774577457745 L 141.37533084617436,75.6075607560756 L 143.1422157309035,66.7066706670667 L 143.53485681639887,63.1063106310631 L 142.92135512031237,62.506250625062506 L 140.34464799674905,62.55625562556255 L 140.19740758968828,58.45584558455845 L 140.95814969283555,54.4054405440544 L 144.78640027641535,45.1045104510451 L 146.43058482192717,35.7035703570357 L 147.9520690282217,33.2033203320332 L 151.82939974748842,29.902990299029902 L 153.05640313966143,28.6028602860286 L 156.19753182362436,23.3023302330233 L 157.66993589423197,27.602760276027603 L 157.84171636913618,29.302930293029302 L 157.1545944695193,32.703270327032705 L 157.17913453736276,34.35343534353435 L 158.08711704757079,36.053605360536054 L 159.53498105033495,37.353735373537354 L 160.51658376407335,38.003800380038 L 160.95830498525564,38.9038903890389 L 160.54112383191682,43.404340434043405 L 160.07486254289105,43.8043804380438 L 158.258897522475,44.1044104410441 L 157.57177562285813,44.604460446044605 L 156.98281399461507,45.4045404540454 L 156.56563284127625,47.004700470047005 L 156.7864934518674,48.75487548754875 L 157.62085575854505,52.1052105210521 L 157.22821467304968,55.5055505550555 L 156.14845168793744,58.555855585558554 L 155.90305100950283,61.45614561456145 L 157.9644167083535,64.35643564356435 L 160.73744437466448,65.55655565556555 L 161.031925188786,66.4066406640664 L 160.59020396760374,67.15671567156716 L 158.47975813306616,68.9068906890689 L 157.79263623344926,69.75697569756976 L 157.49815541932773,70.8070807080708 L 157.57177562285813,71.35713571357135 L 158.65153860797037,73.4073407340734 L 159.28958037190034,74.25742574257426 L 159.5595211181784,75.00750075007501 L 159.6331413217088,76.1076107610761 L 157.9644167083535,95.90959095909591 L 158.16073725110115,96.8096809680968 L 158.77423894718768,97.15971597159715 L 161.32640600290753,96.8096809680968 L 161.59634674918559,96.95969596959695 L 161.8417474276202,98.10981098109811 L 162.03806797036788,101.5101510151015 L 160.29572315348221,104.4104410441044 L 157.93987664051002,107.26072607260726 L 156.32023216284165,110.26102610261026 L 155.90305100950283,113.4113411341134 L 156.09937155225052,116.06160616061605 z" /><path fill-rule="evenodd" fill="#D2EBD9" stroke="#A6A6A6" stroke-width="0.25" opacity="1" d="M 156.09937155225052,116.06160616061605 L 156.86011365539778,126.86268626862686 L 156.63925304480662,128.012801280128 L 155.92759107734628,129.2129212921292 L 154.01346578555638,131.3131313131313 L 153.10548327534835,133.66336633663366 L 152.4674415114184,134.6134613461346 L 152.393821307888,135.31353135313532 L 153.66990483574796,138.16381638163816 L 153.96438564986946,143.26432643264326 L 154.97052843145133,148.36483648364836 L 155.14230890635557,153.16531653165316 L 155.3631695169467,154.61546154615462 L 155.9766712130332,156.015601560156 L 156.81103351971086,157.3157315731573 L 157.42453521579736,158.81588158815882 L 157.47361535148428,160.56605660566055 L 156.93373385892815,162.3162316231623 L 155.3631695169467,165.66656665666565 L 154.7496678208602,167.4167416741674 L 154.45518700673867,169.36693669366935 L 154.5533472781125,170.86708670867085 L 155.166848974199,174.2174217421742 L 154.9950684992948,177.16771677167716 L 155.41224965263362,178.16781678167817 L 157.00735406245855,179.96799679967995 L 157.62085575854505,180.9180918091809 L 158.258897522475,183.66836683668365 L 156.51655270558933,205.67056705670566 L 114.40579628621158,206.12061206120612 L 113.79229459012508,203.6203620362036 L 114.55303669327235,202.67026702670265 L 115.11745825367193,201.52015201520152 L 116.41808184937531,194.3194319431943 L 115.36285893210653,187.41874187418742 L 115.92728049250611,185.46854685468546 L 116.3690017136884,185.018501850185 L 115.75550001760189,184.06840684068405 L 114.62665689680273,183.16831683168317 L 112.98247235129088,182.26822682268227 L 111.63276861990057,181.9181918191819 L 109.74318339595413,181.8181818181818 L 108.78612075005918,181.96819681968196 L 105.62045199825282,182.96829682968297 L 103.24006541743718,183.01830183018302 L 101.93944182173378,183.96839683968395 L 98.50383232364935,185.2185218521852 L 97.22774879578942,186.26862686268626 L 96.04982553930333,187.81878187818782 L 95.41178377537337,188.3188318831883 L 94.55288140085226,188.5188518851885 L 91.63261332748048,188.56885688568855 L 90.40560993530748,189.06890689068905 L 87.31356138703148,192.16921692169217 L 85.30127582386775,193.06930693069305 L 83.01904951442594,192.76927692769277 L 76.09875038257016,190.9190919091909 L 73.27664258057224,190.66906690669066 L 67.558806773046,190.96909690969096 L 67.70604718010676,187.56875687568757 L 68.09868826560214,186.66866686668666 L 70.16005396445279,184.06840684068405 L 70.50361491426123,183.26832683268327 L 70.2091341001397,181.86818681868186 L 67.58334684088946,177.51775177517752 L 67.46064650167216,175.4175417541754 L 67.0680054161768,173.46734673467347 L 67.28886602676795,173.11731173117312 L 67.77966738363715,172.96729672967297 L 68.17230846913252,172.2172217221722 L 69.03121084365362,165.3165316531653 L 68.68764989384518,143.26432643264326 L 68.81035023306248,113.11131113111311 L 70.38091457504393,113.01130113011301 L 86.5037391481973,113.9113911391139 L 90.06204898549903,113.16131613161315 L 94.4056409937915,111.36113611361135 L 97.39952927069365,108.7108710871087 L 100.41795761543925,106.6106610661066 L 104.19712806333213,106.010601060106 L 108.39347966456383,106.1106110611061 L 113.0315524869778,105.66056605660566 L 118.6512280231302,103.9103910391039 L 132.95808757586752,97.35973597359735 L 132.39366601546791,99.3099309930993 L 132.19734547272026,101.26012601260125 L 133.12986805077173,103.01030103010301 L 135.6329549708047,106.56065606560655 L 136.4182371417954,107.1107110711071 L 137.57162033043804,107.46074607460746 L 137.74340080534225,108.36083608360836 L 137.20351931278614,110.46104610461046 L 137.39983985553383,112.71127112711271 L 138.60230317986336,116.06160616061605 L 156.09937155225052,116.06160616061605 z" /><path fill-rule="evenodd" fill="#D2EBD9" stroke="#A6A6A6" stroke-width="0.25" opacity="1" d="M 137.4734600590642,10.75107510751075 L 154.9950684992948,12.4012401240124 L 155.01960856713825,17.3017301730173 L 155.92759107734628,22.5022502250225 L 156.19753182362436,23.3023302330233 L 153.05640313966143,28.6028602860286 L 151.82939974748842,29.902990299029902 L 147.9520690282217,33.2033203320332 L 146.43058482192717,35.7035703570357 L 144.78640027641535,45.1045104510451 L 140.95814969283555,54.4054405440544 L 140.19740758968828,58.45584558455845 L 140.34464799674905,62.55625562556255 L 135.38755429237008,62.55625562556255 L 133.1544081186152,62.356235623562355 L 131.87832459075526,61.65616561656165 L 130.57770099505188,59.905990599059905 L 129.6942585526873,58.35583558355835 L 129.57155821347,56.7056705670567 L 132.2955057440941,52.25522552255225 L 133.0807879150848,49.004900490049 L 133.74336974685824,33.35333533353335 L 134.30779130725782,26.002600260026 L 135.1912337496224,24.45244524452445 L 136.44277720963888,24.002400240024002 L 137.39983985553383,23.3023302330233 L 137.74340080534225,19.65196519651965 L 137.42437992337727,17.7017701770177 L 136.14829639551735,14.6014601460146 L 135.90289571708274,12.95129512951295 L 136.4918573453258,12.4012401240124 L 137.2771395163165,12.1012101210121 L 137.4734600590642,10.75107510751075 z" /><path fill-rule="evenodd" fill="#D2EBD9" stroke="#A6A6A6" stroke-width="0.25" opacity="1" d="M 100.09893673347426,421.14211421142113 L 99.73083571582237,420.7420742074207 L 97.5467696777544,419.7419741974197 L 94.72466187575648,419.9419941994199 L 91.36267258120243,421.24212421242123 L 89.30130688235177,422.24222422242224 L 88.31970416861336,422.3922392239224 L 87.55896206546609,421.84218421842183 L 86.16017819838886,422.2922292229223 L 84.63869399209432,421.94219421942194 L 81.52210537597487,420.6920692069207 L 80.00062116968034,420.5920592059206 L 76.49139146806553,420.84208420842083 L 75.23984800804905,420.4420442044204 L 73.71836380175452,419.6919691969197 L 70.03735362523548,418.9418941894189 L 68.66310982600172,418.19181918191816 L 67.11708555186372,417.6417641764176 L 65.44836093850843,420.7920792079208 L 64.04957707143119,420.6920692069207 L 64.5403784283004,422.8922892289229 L 57.03111766820157,423.54235423542355 L 55.509633461907036,423.84238423842385 L 54.209009866203644,424.59245924592454 L 53.7427485771779,423.3923392339234 L 51.92678355676184,422.64226422642264 L 50.896100707336515,421.84218421842183 L 50.233518875563085,420.8920892089209 L 50.13535860418924,420.1920192019202 L 50.896100707336515,418.49184918491846 L 46.184407681392145,415.8415841584158 L 45.49728578177526,414.2914291429143 L 45.939007002957545,412.8912891289129 L 46.72428917394827,411.7911791179118 L 46.871529581009035,410.7410741074107 L 45.49728578177526,409.5409540954095 L 44.932864221375674,410.1910191019102 L 44.36844266097609,410.4410441044104 L 43.804021100576506,410.1910191019102 L 43.26413960802038,409.5409540954095 L 41.84081567309969,411.4911491149115 L 40.93283316289166,411.94119411941193 L 40.5401920773963,410.9410941094109 L 40.711972552300516,410.2910291029103 L 41.49725472329124,409.5409540954095 L 41.669035198195466,408.7408740874087 L 41.54633485897816,408.09080908090806 L 40.5401920773963,406.19061906190615 L 37.88986475030259,407.49074907490746 L 36.61378122244266,407.8407840784078 L 35.09229701614812,407.9407940794079 L 33.57081280985359,407.29072907290725 L 32.85915084239325,407.29072907290725 L 32.981851181610544,407.7407740774077 L 32.36834948552404,408.6408640864086 L 31.607607382376774,409.29092909290927 L 30.773245075699126,407.99079907990796 L 29.963422836864936,407.19071907190715 L 29.570781751369573,406.19061906190615 L 31.043185821977186,403.74037403740374 L 31.36220670394217,400.9400940094009 L 31.779387857280994,399.5399539953995 L 29.34992114077843,400.59005900590057 L 28.515558834100784,400.59005900590057 L 28.14745781644888,400.19001900190017 L 27.607576323892754,398.68986898689866 L 27.141315034867013,398.38983898389836 L 24.122886690121405,397.58975897589755 L 24.196506893651783,396.38963896389635 L 24.981789064642513,396.9396939693969 L 25.742531167789778,396.78967896789675 L 25.742531167789778,395.03950395039504 L 26.87137428858895,394.53945394539454 L 27.19039517055393,391.7891789178918 L 27.705736595266597,390.9390939093909 L 28.613719105474626,389.98899889988996 L 28.515558834100784,388.68886888688866 L 28.24561808782272,388.3388338833883 L 27.656656459579676,388.8388838883888 L 26.87137428858895,390.08900890089006 L 26.061552049754763,390.3390339033903 L 23.60754526540874,390.6390639063906 L 22.42962200892265,390.08900890089006 L 21.938820652053444,390.08900890089006 L 21.374399091653856,391.039103910391 L 19.779294681828944,392.1392139213921 L 17.668848847291365,392.5892589258926 L 17.30074782963946,392.43924392439243 L 15.632023216284164,389.68896889688966 L 15.362082470006102,389.48894889488946 L 15.313002334319181,387.78877887788775 L 15.582943080597245,387.038703870387 L 16.22098484452721,386.7386738673867 L 16.687246133552954,386.28862886288624 L 16.760866337083336,385.33853385338534 L 16.564545794335654,384.3884388438844 L 16.22098484452721,383.988398839884 L 13.717897924494267,384.13841384138414 L 11.288431207991705,385.4885488548855 L 9.251605576984506,380.48804880488046 L 9.006204898549903,378.8378837883788 L 9.865107273071011,376.3376337633763 L 9.987807612288313,375.43754375437544 L 8.736264152271842,373.0873087308731 L 8.466323405993778,370.3370337033703 L 8.220922727559175,369.48694869486945 L 7.190239878133847,368.036803680368 L 2.8466478698413864,363.8363836383638 L 1.717804749042216,361.1361136113611 L 2.3313064451287215,353.8353835383538 L 2.282226309441801,350.68506850685066 L 1.1043030529557103,346.13461346134613 L 0.0,337.7837783778378 L 0.07362020353038068,335.93359335933593 L 0.7116619674603466,334.7334733473347 L 45.54636591746218,304.68046804680466 L 46.552508699044054,301.9301930193019 L 46.577048766887515,301.3301330133013 L 47.58319154846938,301.68016801680164 L 52.098564031666065,302.58025802580255 L 55.460553326220115,302.48024802480245 L 59.33788404548683,302.030203020302 L 62.72441340788434,301.2301230123012 L 67.75512731579369,300.68006800680064 L 71.7551583742777,301.68016801680164 L 75.14168773667522,303.3303330333033 L 77.76747499592545,305.48054805480547 L 80.56504273007992,307.1307130713071 L 83.55893100698208,308.23082308230823 L 106.20941362649586,307.53075307530753 L 105.86585267668742,309.03090309030904 L 105.96401294806127,309.8309830983098 L 106.23395369433932,310.4310431043104 L 106.84745539042584,311.18111811181114 L 107.70635776494694,311.88118811881185 L 109.2769221069284,312.48124812481245 L 113.62051411522086,312.6312631263126 L 114.92113771092424,312.88128812881286 L 118.08680646273062,314.031403140314 L 118.79846843019097,314.4314431443144 L 120.22179236511165,315.8815881588159 L 120.4426529757028,318.53185318531854 L 119.8291512796163,324.28242824282427 L 118.67576809097366,328.03280328032804 L 118.43036741253906,329.28292829282924 L 117.22790408820951,332.38323832383236 L 116.83526300271414,333.033303330333 L 114.30763601483774,335.5835583558356 L 113.54689391169047,336.83368336833684 L 113.39965350462971,337.4837483748375 L 113.52235384384701,339.8339833983398 L 114.03769526855967,341.18411841184115 L 115.01929798229808,342.88428842884286 L 117.00704347761837,345.53455345534553 L 119.21564958352978,346.93469346934694 L 120.09909202589435,347.43474347434744 L 119.706450940399,373.2873287328733 L 119.85369134745974,374.5874587458746 L 120.14817216158127,375.5875587558756 L 120.95799440041546,377.037703770377 L 122.52855874239691,378.8378837883788 L 127.26479183618474,382.8382838283828 L 124.68808471262142,385.33853385338534 L 123.75556213456993,385.98859885988594 L 123.16660050632689,386.08860886088604 L 121.6696563678758,386.8386838683868 L 119.92731155099013,387.038703870387 L 116.0009006960365,392.6892689268927 L 100.46703775112617,420.6920692069207 L 100.09893673347426,421.14211421142113 z" /><path fill-rule="evenodd" fill="#D2EBD9" stroke="#A6A6A6" stroke-width="0.25" opacity="1" d="M 46.577048766887515,301.3301330133013 L 46.896069648852496,280.22802280228024 L 47.53411141278246,276.4276427642764 L 47.21509053081748,274.67746774677465 L 47.141470327287095,272.2272227222722 L 46.65066897041789,271.1771177117712 L 45.25188510334066,268.976897689769 L 44.90832415353221,267.9267926792679 L 45.15372483196682,266.27662766276626 L 45.963547070801006,264.3264326432643 L 47.141470327287095,263.1263126312631 L 48.51571412652087,263.77637763776374 L 49.4236966367289,261.4761476147615 L 49.988118197128486,253.32533253325332 L 51.141501385771114,250.07500750075005 L 53.05562667756101,247.1247124712471 L 64.36859795339618,235.17351735173517 L 66.01278249890801,232.27322732273225 L 66.65082426283797,230.32303230323032 L 67.0680054161768,228.1228122812281 L 67.558806773046,190.96909690969096 L 73.27664258057224,190.66906690669066 L 76.09875038257016,190.9190919091909 L 83.01904951442594,192.76927692769277 L 85.30127582386775,193.06930693069305 L 87.31356138703148,192.16921692169217 L 90.40560993530748,189.06890689068905 L 91.63261332748048,188.56885688568855 L 94.55288140085226,188.5188518851885 L 95.41178377537337,188.3188318831883 L 96.04982553930333,187.81878187818782 L 97.22774879578942,186.26862686268626 L 98.50383232364935,185.2185218521852 L 101.93944182173378,183.96839683968395 L 103.24006541743718,183.01830183018302 L 105.62045199825282,182.96829682968297 L 108.78612075005918,181.96819681968196 L 109.74318339595413,181.8181818181818 L 111.63276861990057,181.9181918191819 L 112.98247235129088,182.26822682268227 L 114.62665689680273,183.16831683168317 L 115.75550001760189,184.06840684068405 L 116.3690017136884,185.018501850185 L 115.92728049250611,185.46854685468546 L 115.36285893210653,187.41874187418742 L 116.41808184937531,194.3194319431943 L 115.11745825367193,201.52015201520152 L 114.55303669327235,202.67026702670265 L 113.79229459012508,203.6203620362036 L 114.40579628621158,206.12061206120612 L 115.068378117985,208.97089708970896 L 114.60211682895927,209.47094709470946 L 113.86591479365545,209.8209820982098 L 105.89039274453089,212.021202120212 L 103.55908629940215,213.27132713271325 L 101.91490175389032,215.021502150215 L 101.35048019349074,216.27162716271627 L 101.00691924368229,217.9217921792179 L 100.884218904465,219.27192719271926 L 101.05599937936921,223.2223222322232 L 101.6204209397688,226.9226922692269 L 102.89650446762873,230.97309730973097 L 102.82288426409835,232.07320732073205 L 102.20938256801185,233.023302330233 L 99.60813537660506,234.32343234323432 L 98.60199259502319,235.07350735073507 L 97.64492994912824,236.27362736273625 L 97.08050838872866,237.37373737373736 L 96.73694743892021,239.12391239123912 L 96.51608682832908,241.67416741674165 L 96.54062689617254,246.27462746274625 L 96.9332679816679,248.97489748974897 L 98.08665117031053,252.47524752475246 L 99.43635490170084,253.37533753375337 L 101.10507951505613,253.77537753775377 L 106.430274237087,253.87538753875387 L 107.4854971543558,254.42544254425442 L 108.29531939318998,255.37553755375535 L 108.58980020731151,256.4256425642564 L 111.73092889127442,277.17771777177717 L 111.73092889127442,278.3278327832783 L 111.01926692381407,279.7779777977798 L 109.66956319242375,280.92809280928094 L 108.04991871475538,282.67826782678264 L 106.99469579748659,284.37843784378435 L 105.30143111628783,289.22892289228923 L 105.27689104844437,291.67916791679164 L 105.96401294806127,295.9295929592959 L 106.57751464414777,298.22982298229823 L 106.57751464414777,299.82998299829984 L 105.86585267668742,303.78037803780376 L 106.72475505120853,305.1305130513051 L 106.89653552611276,305.88058805880587 L 106.20941362649586,307.53075307530753 L 83.55893100698208,308.23082308230823 L 80.56504273007992,307.1307130713071 L 77.76747499592545,305.48054805480547 L 75.14168773667522,303.3303330333033 L 71.7551583742777,301.68016801680164 L 67.75512731579369,300.68006800680064 L 62.72441340788434,301.2301230123012 L 59.33788404548683,302.030203020302 L 55.460553326220115,302.48024802480245 L 52.098564031666065,302.58025802580255 L 47.58319154846938,301.68016801680164 L 46.577048766887515,301.3301330133013 z" /><path fill-rule="evenodd" fill="#D2EBD9" stroke="#A6A6A6" stroke-width="0.25" opacity="1" d="M 68.83489030090594,106.2106210621062 L 71.41159742446926,105.66056605660566 L 73.71836380175452,102.66026602660266 L 77.89017533514276,93.70937093709371 L 78.35643662416851,91.65916591659166 L 79.09263865947231,90.35903590359035 L 79.36257940575038,88.3088308830883 L 79.68160028771536,87.65876587658765 L 80.31964205164533,86.85868586858686 L 81.54664544381833,85.95859585958596 L 84.63869399209432,81.95819581958196 L 85.30127582386775,80.55805580558055 L 86.33195867329309,79.95799579957995 L 87.55896206546609,77.8077807780778 L 88.58964491489142,74.05740574057405 L 89.35038701803869,70.55705570557055 L 90.3319897317771,68.85688568856885 L 92.6142160412189,67.3067306730673 L 95.58356425027759,62.9062906290629 L 96.85964777813751,62.206220622062204 L 97.93941076324977,60.55605560556055 L 98.47929225580589,58.805880588058805 L 98.92101347698818,58.4058405840584 L 101.64496100761227,56.355635563556355 L 102.33208290722915,56.1056105610561 L 102.84742433194181,56.005600560056 L 105.00695030216632,57.1057105710571 L 105.5713718625659,56.6056605660566 L 129.57155821347,56.7056705670567 L 129.6942585526873,58.35583558355835 L 130.57770099505188,59.905990599059905 L 131.87832459075526,61.65616561656165 L 133.1544081186152,62.356235623562355 L 135.38755429237008,62.55625562556255 L 140.34464799674905,62.55625562556255 L 142.92135512031237,62.506250625062506 L 143.53485681639887,63.1063106310631 L 143.1422157309035,66.7066706670667 L 141.37533084617436,75.6075607560756 L 141.44895104970476,77.45774577457745 L 140.982689760679,77.95779577957795 L 137.20351931278614,80.55805580558055 L 136.00105598845659,83.2083208320832 L 134.47957178216205,88.90889088908891 L 134.47957178216205,90.15901590159015 L 133.66974954332787,91.50915091509151 L 133.3998087970498,92.25922592259225 L 133.3998087970498,95.80958095809581 L 132.95808757586752,97.35973597359735 L 118.6512280231302,103.9103910391039 L 113.0315524869778,105.66056605660566 L 108.39347966456383,106.1106110611061 L 104.19712806333213,106.010601060106 L 100.41795761543925,106.6106610661066 L 97.39952927069365,108.7108710871087 L 94.4056409937915,111.36113611361135 L 90.06204898549903,113.16131613161315 L 86.5037391481973,113.9113911391139 L 70.38091457504393,113.01130113011301 L 68.81035023306248,113.11131113111311 L 68.83489030090594,106.2106210621062 z" /><path fill-rule="evenodd" fill="#D2EBD9" stroke="#A6A6A6" stroke-width="0.25" opacity="1" d="M 68.83489030090594,106.2106210621062 L 69.03121084365362,62.85628562856285 L 67.58334684088946,62.406240624062406 L 61.54649015139825,62.456245624562456 L 63.117054493379705,56.75567556755675 L 64.00049693574428,55.4055405540554 L 65.32566059929113,54.4054405440544 L 66.03732256675147,53.55535553555355 L 66.18456297381223,52.45524552455245 L 65.5956013455692,49.054905490549054 L 65.64468148125611,47.7047704770477 L 67.0680054161768,42.75427542754275 L 66.74898453421181,41.5041504150415 L 66.11094277028185,40.65406540654065 L 70.79809572838276,38.4038403840384 L 73.89014427665875,38.2038203820382 L 81.39940503675757,39.95399539953995 L 86.43011894466692,41.85418541854185 L 90.77371095295938,42.75427542754275 L 93.44857834789654,42.65426542654265 L 95.90258513224256,41.95419541954195 L 100.7615185652477,39.5039503950395 L 101.81674148251648,41.7041704170417 L 101.59588087192535,44.3044304430443 L 101.9885219574207,45.754575457545755 L 103.14190514606334,47.8047804780478 L 103.80448697783676,48.55485548554855 L 104.17258799548867,49.254925492549255 L 106.3075738978697,54.65546554655465 L 105.5713718625659,56.6056605660566 L 105.00695030216632,57.1057105710571 L 102.84742433194181,56.005600560056 L 102.33208290722915,56.1056105610561 L 101.64496100761227,56.355635563556355 L 98.92101347698818,58.4058405840584 L 98.47929225580589,58.805880588058805 L 97.93941076324977,60.55605560556055 L 96.85964777813751,62.206220622062204 L 95.58356425027759,62.9062906290629 L 92.6142160412189,67.3067306730673 L 90.3319897317771,68.85688568856885 L 89.35038701803869,70.55705570557055 L 88.58964491489142,74.05740574057405 L 87.55896206546609,77.8077807780778 L 86.33195867329309,79.95799579957995 L 85.30127582386775,80.55805580558055 L 84.63869399209432,81.95819581958196 L 81.54664544381833,85.95859585958596 L 80.31964205164533,86.85868586858686 L 79.68160028771536,87.65876587658765 L 79.36257940575038,88.3088308830883 L 79.09263865947231,90.35903590359035 L 78.35643662416851,91.65916591659166 L 77.89017533514276,93.70937093709371 L 73.71836380175452,102.66026602660266 L 71.41159742446926,105.66056605660566 L 68.83489030090594,106.2106210621062 z" /><path fill-rule="evenodd" fill="#D2EBD9" stroke="#A6A6A6" stroke-width="0.25" opacity="1" d="M 66.11094277028185,40.65406540654065 L 64.93301951379576,39.05390539053905 L 64.27043768202233,37.253725372537254 L 64.785779106735,36.35363536353635 L 65.81646195616032,35.5035503550355 L 66.6999043985249,33.903390339033905 L 66.52812392362068,31.853185318531853 L 66.77352460205528,31.053105310531052 L 67.87782765501099,29.75297529752975 L 69.17845125071437,28.852885288528853 L 70.69993545700892,28.802880288028803 L 71.28889708525196,28.6028602860286 L 71.58337789937349,27.15271527152715 L 72.90854156292033,26.05260526052605 L 73.42388298763301,25.35253525352535 L 73.52204325900684,24.552455245524552 L 73.32572271625916,22.852285228522852 L 73.49750319116337,22.15221522152215 L 74.01284461587605,21.702170217021703 L 76.41777126453515,20.3020302030203 L 78.47913696338581,17.001700170017 L 81.52210537597487,5.1005100510051005 L 79.87792083046304,5.000500050005 L 69.62017247189667,2.5502550255025502 L 67.97598792638483,1.6501650165016502 L 68.54040948678441,0.0 L 89.66940790000368,4.9004900490049 L 97.89033062756285,5.8005800580058 L 97.93941076324977,6.5006500650065 L 97.6694700169717,7.950795079507951 L 96.98234811735482,10.05100510051005 L 95.75534472518181,11.85118511851185 L 95.50994404674721,14.3014301430143 L 95.92712520008602,16.001600160016 L 98.11119123815399,21.652165216521652 L 98.33205184874514,22.6022602260226 L 98.43021212011897,24.25242524252425 L 98.06211110246707,31.003100310031 L 98.16027137384091,31.753175317531753 L 99.01917374836202,33.4033403340334 L 100.07439666563081,34.6034603460346 L 100.27071720837849,35.103510351035105 L 100.41795761543925,36.003600360036 L 100.3197973440654,37.453745374537455 L 100.7615185652477,39.5039503950395 L 95.90258513224256,41.95419541954195 L 93.44857834789654,42.65426542654265 L 90.77371095295938,42.75427542754275 L 86.43011894466692,41.85418541854185 L 81.39940503675757,39.95399539953995 L 73.89014427665875,38.2038203820382 L 70.79809572838276,38.4038403840384 L 66.11094277028185,40.65406540654065 z" /><path fill-rule="evenodd" fill="#D2EBD9" stroke="#A6A6A6" stroke-width="0.25" opacity="1" d="M 127.55927265030627,9.85098509850985 L 128.29547468561006,11.8011801180118 L 129.30161746719193,12.75127512751275 L 130.70040133426917,13.65136513651365 L 132.39366601546791,14.15141514151415 L 136.14829639551735,14.6014601460146 L 137.42437992337727,17.7017701770177 L 137.74340080534225,19.65196519651965 L 137.39983985553383,23.3023302330233 L 136.44277720963888,24.002400240024002 L 135.1912337496224,24.45244524452445 L 134.30779130725782,26.002600260026 L 133.74336974685824,33.35333533353335 L 133.0807879150848,49.004900490049 L 132.2955057440941,52.25522552255225 L 129.57155821347,56.7056705670567 L 105.5713718625659,56.6056605660566 L 106.3075738978697,54.65546554655465 L 104.17258799548867,49.254925492549255 L 103.80448697783676,48.55485548554855 L 103.14190514606334,47.8047804780478 L 101.9885219574207,45.754575457545755 L 101.59588087192535,44.3044304430443 L 101.81674148251648,41.7041704170417 L 100.7615185652477,39.5039503950395 L 100.3197973440654,37.453745374537455 L 100.41795761543925,36.003600360036 L 100.27071720837849,35.103510351035105 L 100.07439666563081,34.6034603460346 L 99.01917374836202,33.4033403340334 L 98.16027137384091,31.753175317531753 L 98.06211110246707,31.003100310031 L 98.43021212011897,24.25242524252425 L 98.33205184874514,22.6022602260226 L 98.11119123815399,21.652165216521652 L 95.92712520008602,16.001600160016 L 95.50994404674721,14.3014301430143 L 95.75534472518181,11.85118511851185 L 96.98234811735482,10.05100510051005 L 97.6694700169717,7.950795079507951 L 97.93941076324977,6.5006500650065 L 97.89033062756285,5.8005800580058 L 116.95796334193145,8.000800080008 L 123.36292104907456,9.45094509450945 L 127.55927265030627,9.85098509850985 z" /><path fill-rule="evenodd" fill="#D2EBD9" stroke="#A6A6A6" stroke-width="0.25" opacity="1" d="M 137.4734600590642,10.75107510751075 L 137.2771395163165,12.1012101210121 L 136.4918573453258,12.4012401240124 L 135.90289571708274,12.95129512951295 L 136.14829639551735,14.6014601460146 L 132.39366601546791,14.15141514151415 L 130.70040133426917,13.65136513651365 L 129.30161746719193,12.75127512751275 L 128.29547468561006,11.8011801180118 L 127.55927265030627,9.85098509850985 L 137.4734600590642,10.75107510751075 z" /></g></g></g></svg>