<svg xmlns="http://www.w3.org/2000/svg" xmlns:xlink="http://www.w3.org/1999/xlink" width="500.0" height="383.20044292794773" viewBox="0.0 0.0 500.0 383.20044292794773" preserveAspectRatio="xMinYMin meet"><g transform="matrix(1,0,0,-1,0,383.20044292794773)"><g><g><path fill-rule="evenodd" fill="#D2EBD9" stroke="#A6A6A6" stroke-width="0.25" opacity="1" d="M 421.24212421242123,328.3972992748859 L 416.9416941694169,328.5122709049273 L 413.54135413541354,328.09070826144216 L 411.1411141114111,326.67272482426506 L 410.3410341034103,323.8367579499108 L 412.4912491249125,317.6666138043563 L 415.59155915591555,311.91803230228686 L 415.39153915391535,307.5874342373946 L 407.4407440744074,305.9395075401347 L 399.18991899189916,301.57058559856193 L 391.9391939193919,293.40759986562335 L 385.23852385238524,289.1153256774115 L 378.48784878487845,296.0136234798948 L 375.93759375937594,266.81082944938214 L 377.38773877387735,236.87988176194068 L 380.58805880588056,222.58507576012803 L 392.5892589258926,193.8804921264614 L 396.88968896889685,179.39406674124646 L 401.2901290129013,143.10135552484817 L 404.1904190419042,137.88930829630522 L 409.040904090409,134.63177877846587 L 429.9429942994299,126.85203181233193 L 437.6437643764376,125.20410511507203 L 448.5948594859486,126.27717366212498 L 451.64516451645164,125.20410511507203 L 457.39573957395737,120.3752966533337 L 461.24612461246124,118.72736995607382 L 468.2968296829683,119.03396096951751 L 471.4971497149715,117.8075969157427 L 478.14781478147813,113.36202722080901 L 486.6486648664866,109.64461118280413 L 494.69946994699467,109.33802016936042 L 500.0,115.16324942479076 L 499.0999099909991,122.78970088420287 L 493.79937993799376,130.6844194803782 L 480.8980898089809,142.83308838808492 L 472.39723972397235,154.13863200882145 L 467.5967596759676,168.58673351735592 L 465.5465546554655,184.14622744962384 L 465.7465746574657,198.63265283483878 L 468.6968696869687,213.19572597341465 L 469.24692469246924,219.55748950237148 L 467.6967696769677,228.295333385517 L 443.69436943694365,297.85316956055703 L 434.49344934493445,310.99825926195575 L 429.7429742974297,314.21746490311466 L 424.8424842484248,316.55522138062287 L 421.44214421442143,319.96604640518404 L 421.24212421242123,328.3972992748859 z" /><path fill-rule="evenodd" fill="#D2EBD9" stroke="#A6A6A6" stroke-width="0.25" opacity="1" d="M 273.27732773277324,262.86347015129445 L 276.4276427642764,265.77608477900964 L 289.92899289928994,271.44801852771815 L 296.1296129612961,275.3570539491254 L 307.980798079808,286.70092144654234 L 314.6314631463146,290.87822400471276 L 322.8322832283228,293.1393327288601 L 329.58295829582954,292.7944178387359 L 336.33363336333633,291.64470153832207 L 342.78427842784276,291.79799704504387 L 348.58485848584854,295.4004414530074 L 350.98509850985096,301.0340513250354 L 351.28512851285126,307.2041954705899 L 352.48524852485247,312.83780534261797 L 360.8360836083608,321.23073433563934 L 364.53645364536453,327.0942874677502 L 375.93759375937594,337.71000130823836 L 378.4378437843784,342.76875303005943 L 379.48794879487946,347.17599884831264 L 385.5885588558856,361.81571974024945 L 388.6388638863886,366.79782370870964 L 400.09000900090007,371.93322318389164 L 405.4405440544054,375.688963098577 L 404.89048904890484,380.51777156031534 L 397.98979897989796,383.20044292794773 L 388.78887888788876,382.05072662753383 L 341.28412841284126,362.3139301370955 L 279.52795279527953,324.7948548669224 L 280.0780078007801,316.1336587371378 L 279.32793279327933,306.0161552934956 L 277.8777877787779,296.58848163010174 L 274.67746774677465,289.1919734307724 L 273.47734773477345,281.0673115745143 L 270.72707270727074,269.2252336802513 L 273.27732773277324,262.86347015129445 z" /><path fill-rule="evenodd" fill="#D2EBD9" stroke="#A6A6A6" stroke-width="0.25" opacity="1" d="M 273.27732773277324,262.86347015129445 L 270.72707270727074,269.2252336802513 L 273.47734773477345,281.0673115745143 L 274.67746774677465,289.1919734307724 L 277.8777877787779,296.58848163010174 L 279.32793279327933,306.0161552934956 L 280.0780078007801,316.1336587371378 L 279.52795279527953,324.7948548669224 L 265.7265726572657,316.4402497505815 L 221.37213721372137,281.0673115745143 L 208.1208120812081,267.5773069829914 L 202.47024702470245,256.8849453891423 L 194.76947694769476,249.29681780641064 L 181.96819681968196,244.6979526047551 L 185.06850685068505,235.84513709156818 L 188.7188718871887,227.41388422186637 L 194.3194319431943,221.62697884311646 L 199.06990699069905,215.4185108208815 L 205.82058205820582,214.53706165723085 L 214.27142714271426,214.03885126038483 L 219.07190719071906,206.5656953076946 L 217.3217321732173,195.33679944031897 L 219.5219521952195,186.1390690370079 L 230.97309730973097,179.04915185112228 L 239.42394239423942,170.61789898142047 L 247.3247324732473,160.65369104450014 L 256.2256225622562,151.99249491471554 L 263.3263326332633,143.25465103157 L 269.0769076907691,132.48564168435996 L 271.9271927192719,121.25674581698435 L 278.7778777877788,111.67577664686866 L 291.97919791979194,104.35591620090025 L 300.8300830083008,112.94046457732392 L 304.78047804780476,119.18725647623937 L 307.53075307530753,125.35740062179387 L 310.88108810881084,139.30729173348234 L 311.7311731173117,149.84635782060963 L 308.980898089809,151.64758002459138 L 303.58035803580356,150.76613086094073 L 296.37963796379637,153.3721544752122 L 289.7789778977898,163.64295342557622 L 287.5787578757876,177.0946341404187 L 285.8285828582858,220.1706715292589 L 284.57845784578456,228.33365726219748 L 282.4282428242824,235.9217848449291 L 275.3275327532753,249.5267610664934 L 272.6272627262726,256.34841111561576 L 272.8272827282728,262.4419075078094 L 273.27732773277324,262.86347015129445 z" /><path fill-rule="evenodd" fill="#D2EBD9" stroke="#A6A6A6" stroke-width="0.25" opacity="1" d="M 181.96819681968196,244.6979526047551 L 145.7145714571457,231.59118678003682 L 120.36203620362035,217.29638077822418 L 92.85928592859285,212.04600967300078 L 0.0,215.18856756079873 L 24.002400240024002,203.72972843334034 L 44.1044104410441,200.62549442222286 L 51.85518551855185,196.5631634940938 L 63.85638563856385,187.21213758406086 L 72.85728572857285,183.7629886828192 L 77.20772077207721,180.92702180846496 L 80.00800080008,173.3772181024138 L 82.3082308230823,172.26582567868036 L 87.95879587958795,172.11253017195853 L 90.6090609060906,171.07778550158602 L 91.40914091409141,168.6250573940364 L 91.75917591759175,165.7507666430017 L 93.009300930093,163.33636241213253 L 96.85968596859685,159.04408822392068 L 99.009900990099,155.0200811724721 L 101.86018601860185,144.67263446874713 L 101.86018601860185,134.44015939506357 L 106.86068606860685,126.85203181233193 L 109.36093609360935,110.41108871641337 L 108.16081608160816,106.8852920618108 L 103.06030603060306,102.40139849019666 L 101.86018601860185,100.25526139609073 L 102.5102510251025,94.73662315410408 L 104.2104210421042,91.36412200622335 L 116.76167616761676,90.48267284257271 L 132.76327632763275,87.3017910780943 L 147.8147814781478,90.02278632240716 L 154.61546154615462,89.60122367892207 L 159.21592159215922,84.73409134050328 L 166.86668666866686,61.47149819546236 L 170.46704670467045,54.26660937953535 L 175.7175717571757,47.21501607033019 L 198.76987698769875,25.868616759312403 L 206.57065706570657,20.388302394006217 L 209.47094709470946,17.55233551965197 L 211.27112711271127,13.796595604966614 L 213.97139713971396,4.675512955016464 L 215.82158215821582,1.7628983273012897 L 230.92309230923092,0.0 L 248.22482248224821,10.079179566961722 L 281.97819781978194,42.386207608591874 L 284.77847784778476,47.75155034385667 L 286.8286828682868,62.96612938600041 L 289.42894289428943,70.13269432524696 L 297.7797779777978,82.6646019997583 L 300.48004800480044,89.44792817220022 L 299.22992299229924,95.8480155778375 L 287.7287728772877,91.17250262282104 L 287.5287528752875,98.72230632887222 L 289.6789678967897,102.13313135343341 L 291.97919791979194,104.35591620090025 L 278.7778777877788,111.67577664686866 L 271.9271927192719,121.25674581698435 L 269.0769076907691,132.48564168435996 L 263.3263326332633,143.25465103157 L 256.2256225622562,151.99249491471554 L 247.3247324732473,160.65369104450014 L 239.42394239423942,170.61789898142047 L 230.97309730973097,179.04915185112228 L 219.5219521952195,186.1390690370079 L 217.3217321732173,195.33679944031897 L 219.07190719071906,206.5656953076946 L 214.27142714271426,214.03885126038483 L 205.82058205820582,214.53706165723085 L 199.06990699069905,215.4185108208815 L 194.3194319431943,221.62697884311646 L 188.7188718871887,227.41388422186637 L 185.06850685068505,235.84513709156818 L 181.96819681968196,244.6979526047551 z" /></g></g></g></svg>