<svg xmlns="http://www.w3.org/2000/svg" xmlns:xlink="http://www.w3.org/1999/xlink" width="500.0" height="480.8208016892895" viewBox="0.0 0.0 500.0 480.8208016892895" preserveAspectRatio="xMinYMin meet"><g transform="matrix(1,0,0,-1,0,480.8208016892895)"><g><g><g><path fill-rule="evenodd" fill="#D2EBD9" stroke="#A6A6A6" stroke-width="0.25" opacity="1" d="M 481.49814981498145,42.220288417161335 L 482.3482348234823,42.41263597259259 L 483.59835983598356,43.61480819403796 L 486.3486348634863,43.95141641604266 L 487.6987698769877,44.865067304341146 L 487.998799879988,46.40384774779122 L 487.34873487348733,47.17323796951625 L 484.4484448444844,48.615844635250696 L 483.6483648364836,49.2890610792601 L 482.7482748274827,50.44314641184765 L 482.09820982098205,50.87592841156798 L 480.998099809981,50.10653818984295 L 479.6979697969797,48.51967085753506 L 478.34783478347833,47.70219374695221 L 476.6476647664766,47.12515108065843 L 475.89758975897587,46.548108414364656 L 476.19761976197617,44.96124108205677 L 477.1477147714771,43.4224606386067 L 477.64776477647763,41.931767084014446 L 477.4477447744774,40.97002930685815 L 477.5977597759776,40.104465307417485 L 478.2978297829783,40.20063908513311 L 478.997899789979,40.97002930685815 L 481.49814981498145,42.220288417161335 z" /><path fill-rule="evenodd" fill="#D2EBD9" stroke="#A6A6A6" stroke-width="0.25" opacity="1" d="M 434.2434243424342,11.68511399244898 L 433.7433743374337,9.953985993567649 L 432.54325432543254,9.184595771842613 L 430.34303430343033,8.94416132755354 L 430.1430143014301,8.415205550117578 L 431.64316431643164,5.722339774079953 L 431.6931693169317,3.9912117751986225 L 432.0932093209321,1.779214887739145 L 433.04330433043305,0.6732164440094062 L 433.89338933893384,0.09617377771562946 L 434.3434343434343,0.0 L 435.3435343534353,1.8753886654547745 L 436.5436543654365,2.500518220606366 L 437.59375937593757,2.64477888717981 L 442.2942294229423,2.2600837763172925 L 445.49454945494546,0.9617377771562946 L 449.84498449844983,1.971562443170404 L 452.34523452345235,1.8273017765969597 L 456.1456145614561,4.039298664056437 L 457.6957695769577,3.8469511086251784 L 458.7958795879588,2.981387109184513 L 458.2958295829583,2.5486051094641806 L 458.2958295829583,1.971562443170404 L 458.7958795879588,1.971562443170404 L 460.1960196019602,2.981387109184513 L 461.84618461846185,3.606516664336105 L 464.99649964996496,3.1256477757579573 L 470.44704470447044,5.433818440933065 L 471.99719971997195,6.3474693292315445 L 474.3474347434743,13.223894435899052 L 478.997899789979,19.090494876552448 L 479.5979597959796,21.302491764011926 L 481.04810481048105,29.66961042527169 L 481.1481148114811,31.448825313010833 L 480.5980598059806,32.843345089887464 L 478.997899789979,33.51656153389687 L 477.5977597759776,32.6509975344562 L 472.89728972897285,25.389877316926178 L 471.3971397139714,22.312316430026033 L 469.6969696969697,20.148406431424373 L 466.046604660466,19.234755543125893 L 462.8462846284628,17.40745376652893 L 458.2458245824582,18.89814732112119 L 456.3456345634563,19.81179820941967 L 453.7453745374537,23.129793540608887 L 453.2453245324532,24.764747761774586 L 452.99529952995294,25.10135598377929 L 451.2951295129513,22.88935909631981 L 449.84498449844983,21.97570820802133 L 446.9446944694469,21.927621319163517 L 445.49454945494546,21.110144208580667 L 443.89438943894385,21.494839319443184 L 443.2443244324432,20.00414576485093 L 441.5941594159416,18.561539099116487 L 441.0941094109411,17.022758655666415 L 438.8438843884388,16.34954221165701 L 437.9437943794379,15.676325767647603 L 435.19351935193515,14.666501101633493 L 432.6932693269327,15.86867332307886 L 432.6932693269327,15.051196212496011 L 434.3434343434343,13.12772065818342 L 434.2434243424342,11.68511399244898 z" /></g><path fill-rule="evenodd" fill="#D2EBD9" stroke="#A6A6A6" stroke-width="0.25" opacity="1" d="M 471.2971297129713,113.96592659302091 L 474.047404740474,113.38888392672713 L 475.29752975297527,112.47523303842866 L 476.09760976097607,112.2828854829974 L 477.84778477847783,112.66758059385991 L 480.74807480748075,114.15827414845216 L 482.29822982298225,114.49488237045688 L 482.89828982898285,114.35062170388343 L 483.7483748374837,113.58123148215839 L 484.59845984598456,113.38888392672713 L 487.0987098709871,113.96592659302091 L 488.94889488948894,113.86975281530528 L 490.24902490249025,113.58123148215839 L 492.89928992899286,111.80201659441924 L 496.2496249624962,108.48402126323003 L 497.54975497549754,108.0512392635097 L 498.6998699869987,108.58019504094565 L 499.64996499649965,109.87854104010665 L 500.0,111.41732148355673 L 499.34993499349935,112.90801503814899 L 498.6998699869987,113.14844948243805 L 497.2997299729973,113.14844948243805 L 496.5996599659966,113.67740525987402 L 495.6495649564956,114.83149059246158 L 494.59945994599457,115.60088081418661 L 491.5491549154915,115.84131525847569 L 490.44904490449045,116.32218414705383 L 489.2989298929893,117.1877481464945 L 488.4988498849885,116.80305303563198 L 487.2987298729873,117.09157436877886 L 484.8484848484848,118.34183347908206 L 485.8485848584858,116.61070548020072 L 484.09840984098406,116.65879236905853 L 480.34803480348035,119.25548436738053 L 476.8476847684768,120.40956969996809 L 476.3476347634763,120.4576565888259 L 475.8475847584758,120.26530903339464 L 474.8474847484748,119.54400570052742 L 474.8474847484748,119.35165814509617 L 473.7473747374737,119.49591881166961 L 473.09730973097305,119.92870081138993 L 471.8471847184718,121.56365503255564 L 471.0971097109711,120.93852547740404 L 471.1971197119712,119.35165814509617 L 470.3970397039704,117.5243563684992 L 470.44704470447044,117.1877481464945 L 470.84708470847085,116.61070548020072 L 469.4969496949695,115.60088081418661 L 469.34693469346934,114.83149059246158 L 470.04700470047004,114.30253481502561 L 471.2971297129713,113.96592659302091 z" /><g><path fill-rule="evenodd" fill="#D2EBD9" stroke="#A6A6A6" stroke-width="0.25" opacity="1" d="M 447.2447244724472,131.70998858155454 L 446.5446544654465,132.76790013642648 L 444.89448944894485,133.5372903581515 L 443.19431943194314,133.97007235787183 L 440.64406440644063,133.58537724700932 L 440.84408440844084,133.2006821361468 L 442.34423442344234,132.96024769185772 L 446.7446744674467,131.5657279149811 L 447.2447244724472,131.70998858155454 z" /><path fill-rule="evenodd" fill="#D2EBD9" stroke="#A6A6A6" stroke-width="0.25" opacity="1" d="M 408.79087908790876,137.23998080020323 L 408.19081908190816,137.047633244772 L 407.19071907190715,136.27824302304694 L 406.19061906190615,134.5471150241656 L 407.29072907290725,133.4892034692937 L 409.59095909590957,132.33511813670614 L 414.79147914791474,132.2389443589905 L 416.79167916791675,130.74825080439825 L 417.89178917891786,127.57451613978247 L 417.19171917191716,124.97782414146049 L 415.19151915191514,123.15052236486352 L 412.2912291229123,122.04452392113379 L 410.6910691069107,121.80408947684471 L 409.39093909390937,121.4193943659822 L 408.59085908590856,120.50574347768371 L 408.29082908290826,118.58226792337112 L 407.49074907490746,117.33200881306794 L 405.69056905690564,116.89922681334761 L 403.6903690369037,116.65879236905853 L 402.34023402340233,116.12983659162258 L 402.6902690269027,113.34079703786932 L 401.6901690169017,112.6194937050021 L 400.8900890089009,111.51349526127235 L 400.5400540054005,111.27306081698329 L 398.8398839883988,111.03262637269421 L 396.68966896689665,109.6861934846754 L 395.23952395239525,109.10915081838162 L 395.2895289528953,108.58019504094565 L 395.48954895489544,108.33976059665659 L 396.2396239623962,108.0512392635097 L 394.2894289428943,106.89715393092214 L 394.2894289428943,106.416285042344 L 395.0895089508951,105.83924237605022 L 395.03950395039504,105.35837348747208 L 392.83928392839283,103.38681104430167 L 392.1892189218922,103.09828971115478 L 389.3389338933893,103.33872415544386 L 388.5388538853885,103.09828971115478 L 388.2388238823882,102.32889948942974 L 388.1388138813881,99.53985993567649 L 388.2388238823882,98.81855660280927 L 390.58905890589057,101.12672726798438 L 391.8891889188919,101.79994371199379 L 393.53935393539354,102.08846504514067 L 394.2894289428943,102.42507326714538 L 396.78967896789675,104.7813308211783 L 398.6398639863986,107.714631041505 L 399.7399739973997,108.7244557075191 L 401.5401540154015,109.10915081838162 L 405.99059905990595,110.93645259497858 L 406.79067906790675,110.9845394838364 L 407.4407440744074,111.3211477058411 L 411.2411241124112,114.49488237045688 L 413.6913691369137,119.25548436738053 L 416.5416541654165,121.22704681055093 L 418.29182918291826,123.19860925372134 L 418.7418741874187,124.64121591945577 L 418.99189918991897,126.42043080719493 L 419.5419541954195,127.71877680635592 L 420.7920792079208,128.05538502836063 L 419.4419441944194,131.2772065818342 L 418.79187918791877,137.19189391134543 L 418.29182918291826,138.345979243933 L 417.4417441744174,137.86511035535483 L 416.6416641664166,138.345979243933 L 416.041604160416,139.4038907988049 L 415.79157915791575,140.46180235367683 L 416.49164916491645,140.22136790938777 L 416.9416941694169,139.78858590966743 L 417.19171917191716,139.16345635451583 L 417.2417241724172,138.345979243933 L 418.041804180418,139.115369465658 L 419.7919791979198,142.19293035255816 L 419.49194919491947,142.43336479684723 L 419.29192919291927,143.20275501857228 L 417.3417341734173,142.43336479684723 L 415.5415541554155,142.14484346370034 L 411.74117411741173,142.19293035255816 L 412.3912391239124,141.3754532419753 L 413.24132413241324,141.0388450199706 L 413.24132413241324,140.46180235367683 L 412.2912291229123,139.98093346509867 L 411.6911691169117,140.22136790938777 L 411.041104110411,139.88475968738305 L 410.4910491049105,139.21154324337365 L 410.2410241024102,138.345979243933 L 409.69096909690967,138.68258746593767 L 407.29072907290725,139.4038907988049 L 408.29082908290826,137.72084968878139 L 408.79087908790876,137.23998080020323 z" /><path fill-rule="evenodd" fill="#D2EBD9" stroke="#A6A6A6" stroke-width="0.25" opacity="1" d="M 436.3436343634363,132.76790013642648 L 435.79357935793576,130.65207702668263 L 437.09370937093706,130.8925114709717 L 438.09380938093807,132.81598702528427 L 437.2437243724372,133.44111658043587 L 436.3436343634363,132.76790013642648 z" /></g><g><path fill-rule="evenodd" fill="#D2EBD9" stroke="#A6A6A6" stroke-width="0.25" opacity="1" d="M 387.7387738773877,138.345979243933 L 385.6885688568857,135.70120035675316 L 383.0883088308831,133.68155102472494 L 380.9380938093809,131.42146724840765 L 380.28802880288026,128.05538502836063 L 382.5382538253825,129.78651302724197 L 385.2885288528853,132.8640739141421 L 387.3387338733873,136.1339823564735 L 387.7387738773877,138.345979243933 z" /><path fill-rule="evenodd" fill="#D2EBD9" stroke="#A6A6A6" stroke-width="0.25" opacity="1" d="M 387.48874887488745,143.20275501857228 L 388.1388138813881,142.81805990770974 L 388.1388138813881,141.95249590826907 L 387.7387738773877,140.22136790938777 L 388.1388138813881,140.0290203539565 L 388.98889888988896,140.46180235367683 L 389.88898889888986,141.23119257540185 L 390.28902890289027,142.19293035255816 L 392.2392239223922,140.22136790938777 L 397.6397639763976,138.82684813251112 L 400.8400840084008,139.644325243094 L 400.7900790079008,138.345979243933 L 401.5401540154015,138.0574579107861 L 401.8401840184018,137.23998080020323 L 407.29072907290725,142.19293035255816 L 402.8902890289029,143.87597146258167 L 401.2901290129013,144.308753462302 L 401.8401840184018,143.20275501857228 L 400.29002900290027,143.6355370182926 L 397.68976897689765,143.77979768486605 L 396.2396239623962,144.308753462302 L 395.7395739573957,145.41475190603174 L 394.2894289428943,145.41475190603174 L 394.03940394039404,147.38631434920214 L 393.7893789378938,148.05953079321156 L 391.7891789178918,149.74257190323507 L 391.039103910391,149.98300634752414 L 388.7388738873887,150.27152768067103 L 386.68866886688664,151.66604745754765 L 385.7885788578858,151.90648190183674 L 384.0884088408841,151.42561301325858 L 383.2883288328833,151.37752612440076 L 383.03830383038303,150.56004901381792 L 382.7382738273827,150.27152768067103 L 387.48874887488745,143.20275501857228 z" /><path fill-rule="evenodd" fill="#D2EBD9" stroke="#A6A6A6" stroke-width="0.25" opacity="1" d="M 432.84328432843284,171.47784566696734 L 432.84328432843284,172.05488833326112 L 431.3931393139314,172.48767033298142 L 427.29272927292726,172.05488833326112 L 421.84218421842183,172.58384411069707 L 423.24232423242324,170.22758655666414 L 426.3426342634263,170.13141277894852 L 432.84328432843284,171.47784566696734 z" /></g><g><path fill-rule="evenodd" fill="#D2EBD9" stroke="#A6A6A6" stroke-width="0.25" opacity="1" d="M 287.7287728772877,200.85893475909214 L 288.92889288928893,198.93545920477953 L 291.47914791479144,197.97372142762325 L 294.57945794579456,197.34859187247164 L 297.1797179717972,196.5311147618888 L 296.029602960296,198.31032964962796 L 293.3293329332933,199.75293631536238 L 290.1790179017902,200.66658720366087 L 287.7287728772877,200.85893475909214 z" /><path fill-rule="evenodd" fill="#D2EBD9" stroke="#A6A6A6" stroke-width="0.25" opacity="1" d="M 277.17771777177717,207.15831719946587 L 276.37763776377636,207.44683853261276 L 272.9272927292729,209.46648786464095 L 268.1268126812681,214.56369808356934 L 268.5768576857686,214.8041325278584 L 269.1269126912691,215.62160963844124 L 266.4266426642664,215.95821786044596 L 265.57655765576555,216.4390867490241 L 264.7264726472647,217.20847697074913 L 263.7263726372637,218.65108363648358 L 263.17631763176314,218.89151808077264 L 262.7262726272627,218.79534430305702 L 261.62616261626164,218.17021474790542 L 260.72607260726073,218.3625623033367 L 260.12601260126013,217.49699830389602 L 260.2760276027603,216.4871736378819 L 260.8760876087609,215.57352274958345 L 261.6761676167617,215.04456697214746 L 261.5761576157616,214.61178497242713 L 262.07620762076203,213.8904816395599 L 262.2262226222622,213.1691783066927 L 259.7259725972597,212.30361430725205 L 259.7259725972597,211.77465852981607 L 263.3263326332633,212.11126675182078 L 266.4266426642664,211.10144208580667 L 269.1269126912691,209.03370586492062 L 271.67716771677163,206.340840088883 L 272.7272727272727,207.06214342175022 L 273.97739773977395,206.340840088883 L 276.7276727672767,204.12884320142354 L 276.1276127612761,202.44580209140003 L 277.47774777477747,201.7244987585328 L 281.17811781178114,201.43597742538591 L 284.47844784478445,199.65676253764676 L 286.1286128612861,199.17589364906863 L 287.17871787178717,200.32997898165615 L 281.02810281028104,202.6862365356891 L 278.3278327832783,204.7058858677173 L 277.17771777177717,207.15831719946587 z" /></g><path fill-rule="evenodd" fill="#D2EBD9" stroke="#A6A6A6" stroke-width="0.25" opacity="1" d="M 345.73457345734573,162.77411878370287 L 346.7846784678468,164.36098611601074 L 342.034203420342,169.69863077922818 L 339.38393839383934,171.76636700011423 L 333.1333133313331,174.12262455414714 L 331.08310831083105,175.6133181087394 L 329.8329832983298,177.96957566277231 L 329.2329232923292,181.8165267713975 L 329.2329232923292,185.32686965801798 L 329.032903290329,187.0579976568993 L 328.4828482848285,187.7793009897665 L 328.5828582858286,188.59677810034938 L 324.2324232423242,197.01198365046696 L 322.98229822982296,198.4545903162014 L 322.08220822082205,199.8010232042202 L 321.2321232123212,205.18675475629544 L 320.48204820482044,206.72553519974554 L 319.28192819281924,208.5528369763425 L 317.981798179818,210.04353053093473 L 316.981698169817,210.66866008608633 L 312.68126812681265,217.83360652590073 L 312.08120812081205,218.55490985876796 L 311.2311231123112,218.89151808077264 L 311.3311331133113,217.4489114150382 L 311.031103110311,216.29482608245067 L 310.4310431043104,215.33308830529435 L 309.68096809680964,214.56369808356934 L 309.68096809680964,213.93856852841773 L 310.58105810581054,214.5156111947115 L 311.78117811781175,215.91013097158813 L 312.68126812681265,215.62160963844124 L 312.2312231223122,215.38117519415218 L 311.2311231123112,213.93856852841773 L 312.78127812781275,215.1888276387209 L 313.18131813181316,214.03474230613335 L 312.68126812681265,210.18779119750818 L 314.5314531453145,211.05335519694884 L 315.2315231523152,210.66866008608633 L 316.7316731673167,206.86979586631898 L 317.1817181718172,203.3113660908407 L 317.73177317731773,202.0611069805375 L 319.2319231923192,200.85893475909214 L 318.8818881888189,199.89719698193582 L 319.3319331933193,199.27206742678425 L 321.2321232123212,198.69502476049047 L 321.08210821082105,196.9158098727513 L 323.8323832383238,194.5595523187184 L 323.68236823682366,192.68416365326362 L 324.7324732473247,193.79016209699336 L 325.8325832583258,192.587989875548 L 326.63266326632663,190.71260121009323 L 327.13271327132713,188.59677810034938 L 327.1827182718272,186.67330254603678 L 325.5325532553255,182.58591699312254 L 325.2325232523252,180.4700938833787 L 325.7825782578258,179.12366099535987 L 329.98299829982994,174.45923277615185 L 330.4330433043304,173.59366877671118 L 329.68296829682964,173.3532343324221 L 327.6827682768277,173.6898425544268 L 324.7324732473247,175.85375255302847 L 323.88238823882386,175.80566566417065 L 323.032303230323,176.23844766389098 L 322.28222822282225,177.05592477447382 L 321.78217821782175,177.96957566277231 L 322.38223822382236,177.72914121848325 L 324.2324232423242,177.48870677419416 L 323.48234823482346,178.5466183290661 L 321.4321432143214,179.5564429950802 L 320.7320732073207,180.71052832766776 L 320.28202820282024,180.71052832766776 L 319.68196819681964,180.08539877251616 L 318.8818881888189,178.73896588449736 L 318.6818681868187,177.96957566277231 L 319.8319831983198,177.48870677419416 L 327.7827782778278,172.24723588869236 L 336.13361336133613,170.56419477866885 L 337.03370337033704,170.13141277894852 L 340.28402840284025,166.38063544803896 L 340.98409840984095,165.27463700430923 L 341.7341734173417,162.05281545083565 L 343.78437843784377,158.3020381199261 L 344.2844284428443,156.23430189904005 L 345.2845284528453,156.76325767647603 L 345.7845784578458,154.0703919004384 L 346.23462346234624,153.54143612300243 L 347.13471347134714,153.25291478985554 L 347.5847584758476,153.58952301186025 L 347.6847684768477,154.45508701130092 L 347.5847584758476,157.53264789820105 L 347.23472347234724,159.93699234109178 L 346.63466346634664,162.00472856197783 L 345.73457345734573,162.77411878370287 z" /><g><path fill-rule="evenodd" fill="#D2EBD9" stroke="#A6A6A6" stroke-width="0.25" opacity="1" d="M 342.7342734273427,220.52647230193836 L 341.034103410341,220.14177719107585 L 339.9339933993399,219.56473452478207 L 339.4339433943394,218.55490985876796 L 339.68396839683965,216.727608082171 L 340.98409840984095,217.20847697074913 L 343.4343434343434,217.20847697074913 L 344.7344734473447,217.83360652590073 L 345.63456345634563,216.67952119331318 L 347.3847384738474,216.1024785270194 L 348.68486848684864,216.1024785270194 L 348.2348234823482,216.727608082171 L 348.2348234823482,217.20847697074913 L 349.78497849784975,217.1603900818913 L 350.48504850485045,217.73743274818509 L 351.68516851685166,219.9975165245024 L 350.08500850085005,221.19968874594775 L 349.1349134913491,221.5843838568103 L 346.43464346434644,221.6324707456681 L 342.7342734273427,220.52647230193836 z" /><path fill-rule="evenodd" fill="#D2EBD9" stroke="#A6A6A6" stroke-width="0.25" opacity="1" d="M 327.4827482748275,231.73071740580917 L 326.8826882688269,231.63454362809355 L 326.43264326432643,230.480458295506 L 326.8826882688269,229.182112296345 L 327.3827382738274,229.47063362949189 L 327.73277327732774,230.52854518436382 L 327.6827682768277,231.3941091838045 L 327.4827482748275,231.73071740580917 z" /></g><g><path fill-rule="evenodd" fill="#D2EBD9" stroke="#A6A6A6" stroke-width="0.25" opacity="1" d="M 238.67386738673866,241.87705095480808 L 239.12391239123912,242.40600673224407 L 234.92349234923492,252.07147139266482 L 233.1233123312331,253.36981739182582 L 233.1233123312331,252.21573205923826 L 233.4233423342334,251.3501680597976 L 234.17341734173417,250.09990894949442 L 235.07350735073507,247.6955645066037 L 236.2236223622362,245.8682627300067 L 237.57375737573756,243.03113628739564 L 238.67386738673866,241.87705095480808 z" /><path fill-rule="evenodd" fill="#D2EBD9" stroke="#A6A6A6" stroke-width="0.25" opacity="1" d="M 228.6228622862286,261.06371960907614 L 227.97279727972796,262.16971805280593 L 225.62256225622562,263.8046722739716 L 223.77237723772376,266.9784069385874 L 222.6222622262226,267.603536493739 L 222.67226722672265,266.59371182772486 L 223.37233723372336,265.4396264951373 L 226.4226422642264,261.4484147199387 L 227.27272727272725,261.06371960907614 L 228.6228622862286,261.06371960907614 z" /><path fill-rule="evenodd" fill="#D2EBD9" stroke="#A6A6A6" stroke-width="0.25" opacity="1" d="M 205.92059205920592,287.12681337001175 L 205.1205120512051,288.2808987025993 L 204.57045704570456,287.9442904805946 L 204.37043704370436,286.54977070371797 L 204.8204820482048,285.49185914884606 L 205.57055705570556,285.15525092684135 L 206.02060206020602,285.5399460377039 L 205.92059205920592,287.12681337001175 z" /></g><path fill-rule="evenodd" fill="#D2EBD9" stroke="#A6A6A6" stroke-width="0.25" opacity="1" d="M 374.23742374237423,245.72400206343326 L 373.63736373637363,244.08904784226758 L 373.53735373537353,243.31965762054253 L 373.73737373737373,242.40600673224407 L 376.7376737673767,247.59939072888804 L 377.28772877287724,250.62886472693037 L 376.4376437643764,252.2638189480961 L 376.2876287628763,253.08129605867893 L 374.987498749875,255.2452060572806 L 374.53745374537453,255.48564050156966 L 373.2873287328733,254.42772894669773 L 370.58705870587056,253.17746983639455 L 369.78697869786976,251.9752976149492 L 369.7369736973697,250.09990894949442 L 370.08700870087006,247.59939072888804 L 369.78697869786976,244.8584380639926 L 368.9368936893689,242.35791984338624 L 367.68676867686764,240.81913939993618 L 367.68676867686764,240.2420967336424 L 372.4872487248725,240.81913939993618 L 373.63736373637363,244.76226428627697 L 374.23742374237423,245.72400206343326 z" /><g><path fill-rule="evenodd" fill="#D2EBD9" stroke="#A6A6A6" stroke-width="0.25" opacity="1" d="M 125.1125112511251,258.8517227216167 L 125.86258625862585,259.813460498773 L 126.56265626562656,261.97737049737464 L 127.06270627062706,262.7467607190997 L 127.8127812781278,263.1314558299622 L 128.5128512851285,262.7467607190997 L 129.1129112911291,262.7467607190997 L 130.41304130413042,263.1314558299622 L 130.81308130813082,263.51615094082473 L 131.1131113111311,264.3336280514076 L 128.1128112811281,264.3336280514076 L 127.36273627362736,264.0931936071185 L 125.8125812581258,263.22762960767784 L 121.81218121812181,260.48667694278237 L 121.1121112111211,260.1981556096355 L 120.76207620762075,259.42876538791046 L 119.011901190119,259.71728672105735 L 118.36183618361835,259.6691998321995 L 118.16181618161815,258.8998096104745 L 118.3118311831183,257.7938111667448 L 118.66186618661865,256.73589961187287 L 119.16191619161916,256.1588569455791 L 120.46204620462045,256.3031176121525 L 124.16241624162416,258.1785062776073 L 125.1125112511251,258.8517227216167 z" /><path fill-rule="evenodd" fill="#D2EBD9" stroke="#A6A6A6" stroke-width="0.25" opacity="1" d="M 122.11221122112211,264.91067071770135 L 121.36213621362135,266.0166691614311 L 119.86198619861986,265.5838871617108 L 117.96179617961795,264.7183231622701 L 116.06160616061605,264.3336280514076 L 115.16151615161516,263.85275916282944 L 115.46154615461546,263.1314558299622 L 116.3116311631163,262.4582393859528 L 117.11171117111711,262.16971805280593 L 118.2118211821182,262.1216311639481 L 120.06200620062006,262.410152497095 L 121.1121112111211,262.16971805280593 L 120.66206620662065,263.22762960767784 L 120.6120612061206,264.2374542736919 L 121.06210621062105,264.91067071770135 L 122.11221122112211,264.91067071770135 z" /><path fill-rule="evenodd" fill="#D2EBD9" stroke="#A6A6A6" stroke-width="0.25" opacity="1" d="M 133.36333633363336,270.10405471434535 L 134.81348134813481,271.6428351577954 L 135.56355635563557,271.9313564909423 L 136.86368636863685,272.0275302686579 L 139.013901390139,271.0657924915016 L 139.56395639563956,271.498574491222 L 139.61396139613962,272.21987782408917 L 138.6138613861386,273.3258762678189 L 138.06380638063806,273.6143976009658 L 136.9136913691369,273.71057137868144 L 135.46354635463547,273.3739631566767 L 134.06340634063406,272.7488336015252 L 132.7132713271327,271.73900893551104 L 131.1131113111311,270.969618713786 L 130.66306630663067,270.1521416032032 L 131.013101310131,269.3346644926203 L 131.96319631963195,269.14231693718904 L 133.36333633363336,270.10405471434535 z" /><path fill-rule="evenodd" fill="#D2EBD9" stroke="#A6A6A6" stroke-width="0.25" opacity="1" d="M 135.26352635263527,294.8207155872621 L 128.5128512851285,295.97480091984966 L 120.6120612061206,295.109236920409 L 114.2114211421142,293.4261958103855 L 111.16111611161115,291.74315470036197 L 109.1109110911091,287.848116702879 L 106.6106610661066,284.14542626082726 L 106.1106110611061,278.6635209310364 L 106.6106610661066,276.30726337700344 L 108.86088608860885,275.3455255998471 L 110.56105610561056,274.33570093383304 L 111.3111311131113,272.0275302686579 L 111.76117611761175,269.2865776037625 L 112.61126112611261,267.074580716303 L 113.7113711371137,266.0647560502889 L 114.4114411441144,265.776234717142 L 115.11151115111511,265.96858227257326 L 115.56155615561555,266.54562493886704 L 115.11151115111511,268.46910049317967 L 115.46154615461546,269.0942300483312 L 118.36183618361835,271.2100531580751 L 119.2119211921192,271.6428351577954 L 121.76217621762176,271.6428351577954 L 123.06230623062305,272.0275302686579 L 125.76257625762575,273.9029189341127 L 126.61266126612661,274.76848293355334 L 125.76257625762575,276.5476978212925 L 126.36263626362636,277.22091426530193 L 128.56285628562856,277.5094355984488 L 129.3129312931293,278.1826520424582 L 130.71307130713072,279.9137800413395 L 131.8131813181318,280.25038826334423 L 134.56345634563456,280.6831702630646 L 136.26362636263624,281.93342937336774 L 136.96369636963695,284.0011655942538 L 136.6136613661366,286.83829203686486 L 135.01350135013502,290.2524611457697 L 134.4134413441344,292.1759367000823 L 135.26352635263527,294.8207155872621 z" /><path fill-rule="evenodd" fill="#D2EBD9" stroke="#A6A6A6" stroke-width="0.25" opacity="1" d="M 125.96259625962595,271.73900893551104 L 124.91249124912491,271.2581400469329 L 124.91249124912491,270.1521416032032 L 126.1126112611261,269.5270120480516 L 127.46274627462745,270.20022849206094 L 128.6128612861286,271.9313564909423 L 128.1128112811281,271.9794433798001 L 125.96259625962595,271.73900893551104 z" /></g><path fill-rule="evenodd" fill="#D2EBD9" stroke="#A6A6A6" stroke-width="0.25" opacity="1" d="M 129.36293629362936,242.40600673224407 L 135.11351135113512,246.7819136183052 L 136.1136113611361,247.35895628459897 L 136.5136513651365,248.22452028403964 L 136.76367636763675,249.28243183891155 L 137.96379637963796,251.54251561522887 L 138.16381638163816,252.98512228096328 L 137.76377637763775,253.85068628040395 L 136.6136613661366,253.36981739182582 L 134.81348134813481,254.52390272441338 L 134.013401340134,255.2452060572806 L 134.3134313431343,255.5337273904275 L 135.61356135613562,255.87033561243217 L 135.9135913591359,256.54355205644157 L 135.41354135413542,257.12059472273535 L 134.1134113411341,257.216768500451 L 134.1134113411341,257.7938111667448 L 136.36363636363635,258.1785062776073 L 138.1138113811381,259.1883309436214 L 142.6142614261426,262.93910827453095 L 143.3143314331433,263.90084605168727 L 142.86428642864286,264.3336280514076 L 141.96419641964195,264.7664100511279 L 140.11401140114012,268.22866604889055 L 138.06380638063806,267.074580716303 L 137.26372637263725,265.96858227257326 L 134.26342634263426,264.7183231622701 L 133.16331633163315,263.8046722739716 L 132.3132313231323,261.68884916422775 L 131.56315631563155,261.06371960907614 L 130.61306130613062,260.67902449821366 L 128.1128112811281,260.48667694278237 L 127.06270627062706,257.216768500451 L 126.26262626262626,256.5916389452994 L 124.26242624262426,255.91842250129 L 123.56235623562355,255.5337273904275 L 122.9122912291229,254.81242405756026 L 123.1123112311231,254.09112072469304 L 123.06230623062305,252.40807961466953 L 122.61226122612261,252.16764517038044 L 121.56215621562156,252.84086161438987 L 120.66206620662065,251.7348631706601 L 125.2125212521252,249.85947450520533 L 126.61266126612661,248.99391050576466 L 126.61266126612661,248.4649547283287 L 126.16261626162616,247.7917382843193 L 127.7127712771277,246.63765295173175 L 128.56285628562856,245.72400206343326 L 128.56285628562856,244.71417739741915 L 128.26282628262825,243.65626584254724 L 128.3128312831283,242.74261495424875 L 129.36293629362936,242.40600673224407 z" /><path fill-rule="evenodd" fill="#D2EBD9" stroke="#A6A6A6" stroke-width="0.25" opacity="1" d="M 135.11351135113512,246.7819136183052 L 129.36293629362936,242.40600673224407 L 128.9128912891289,241.49235584394557 L 129.012901290129,239.47270651191735 L 130.06300630063006,234.13506184869993 L 130.51305130513052,233.17332407154362 L 131.1131113111311,232.50010762753422 L 132.06320632063205,232.25967318324516 L 133.76337633763376,232.93288962725455 L 134.81348134813481,233.12523718268582 L 138.7138713871387,233.17332407154362 L 140.11401140114012,233.60610607126395 L 141.16411641164115,234.7601914038515 L 140.8140814081408,233.077150293828 L 138.4138413841384,231.58645673923573 L 133.6133613361336,229.85532874035442 L 135.06350635063507,229.32637296291844 L 136.8136813681368,226.77776785345426 L 138.56385638563856,226.585420298023 L 138.06380638063806,227.06628918660115 L 142.36423642364235,229.85532874035442 L 143.5143514351435,230.4323714066482 L 144.76447644764477,231.53836985037793 L 146.06460646064605,232.25967318324516 L 147.36473647364735,231.778804294667 L 147.36473647364735,230.8651534063685 L 146.26462646264625,229.99958940692787 L 142.3142314231423,228.1242007414731 L 141.3141314131413,227.35481051974804 L 140.56405640564054,226.34498585373393 L 140.11401140114012,224.9023791879995 L 136.26362636263624,226.2007251871605 L 134.7134713471347,226.2488120760183 L 135.11351135113512,224.9023791879995 L 132.6132613261326,223.74829385541193 L 137.26372637263725,223.89255452198537 L 139.4139413941394,223.3155118556916 L 140.6140614061406,221.6324707456681 L 141.16411641164115,221.6324707456681 L 141.86418641864185,222.6422954116822 L 141.86418641864185,223.36359874454942 L 140.6140614061406,224.9023791879995 L 142.46424642464245,224.37342341056353 L 144.06440644064406,223.21933807797598 L 145.8145814581458,222.44994785625093 L 148.1148114811481,223.2674249668338 L 149.06490649064907,224.80620541028387 L 149.46494649464947,226.00837763172925 L 149.61496149614962,227.06628918660115 L 149.16491649164917,228.26846140804653 L 147.86478647864786,229.32637296291844 L 147.6147614761476,230.33619762893255 L 149.41494149414942,229.75915496263877 L 150.36503650365034,230.28811074007476 L 151.6151615161516,233.12523718268582 L 151.26512651265125,234.47167007070462 L 151.7151715171517,237.50114406874695 L 151.06510651065105,238.60714251247668 L 149.61496149614962,238.89566384562357 L 148.1148114811481,238.22244740161418 L 145.56455645564554,236.39514562501722 L 145.8145814581458,238.41479495704544 L 147.26472647264725,238.99183762333922 L 148.86488648864886,239.03992451219702 L 149.61496149614962,239.37653273420173 L 150.36503650365034,240.0016622893533 L 150.86508650865085,240.67487873336273 L 151.06510651065105,241.5885296216612 L 150.86508650865085,242.35791984338624 L 149.61496149614962,244.32948228655664 L 150.1150115011501,247.59939072888804 L 149.66496649664967,250.00373517177877 L 149.31493149314932,254.04303383583522 L 148.76487648764876,255.2452060572806 L 147.014701470147,257.7938111667448 L 146.16461646164615,259.813460498773 L 145.06450645064507,261.4484147199387 L 143.6143614361436,261.6407622753699 L 142.76427642764276,260.48667694278237 L 142.4142414241424,256.54355205644157 L 142.1142114211421,255.0047716129915 L 141.4141414141414,253.85068628040395 L 139.86398639863987,252.11955828152264 L 137.6137613761376,247.4551300623146 L 136.46364636463645,246.3972185074427 L 135.11351135113512,246.7819136183052 z" /><path fill-rule="evenodd" fill="#D2EBD9" stroke="#A6A6A6" stroke-width="0.25" opacity="1" d="M 312.48124812481245,261.35224094222303 L 309.2809280928093,264.8625838288435 L 308.4808480848085,265.4396264951373 L 308.03080308030803,266.0647560502889 L 306.2306230623062,269.8636202700563 L 304.8304830483048,271.01770560264384 L 301.98019801980195,272.5564860460939 L 300.68006800680064,273.6143976009658 L 296.57965796579657,279.57717181933486 L 294.57945794579456,283.32794915024436 L 293.67936793679365,285.8284673708508 L 290.7290729072907,289.00220203546655 L 290.2790279027903,290.5409824789166 L 289.72897289728974,295.63819269784494 L 288.92889288928893,296.59993047500126 L 286.1286128612861,297.85018958530446 L 283.67836783678365,300.0621864727639 L 282.57825782578254,300.20644713933734 L 281.97819781978194,299.9660126950483 L 280.4780478047805,298.13871091845135 L 280.12801280128014,297.4654944744419 L 280.22802280228024,296.88845180814815 L 280.6780678067807,296.2152353641387 L 281.3281328132813,295.7343664755606 L 283.67836783678365,294.5321942541152 L 286.9286928692869,291.69506781150415 L 287.7787778777878,291.11802514521037 L 288.42884288428843,289.14646270203997 L 288.52885288528853,288.1366380360259 L 288.4788478847885,287.17490025886957 L 288.1788178817882,286.3093362594289 L 290.57905790579053,286.1650755928555 L 292.47924792479245,285.01099026026793 L 293.7293729372937,283.0875147059553 L 294.47944794479446,279.4809980416192 L 295.87958795879587,277.36517493187534 L 296.4296429642964,275.10509115555806 L 300.3300330033003,268.70953493746873 L 301.88018801880185,267.5554496048812 L 303.98039803980396,267.074580716303 L 305.48054805480547,265.82432160599984 L 305.8305830583058,263.17954271882 L 305.18051805180517,261.0156327202184 L 303.78037803780376,261.06371960907614 L 303.030303030303,259.8615473876308 L 301.58015801580154,258.80363583275886 L 300.03000300030004,258.08233249989166 L 298.979897989799,257.7938111667448 L 297.3797379737974,256.97633405616193 L 298.22982298229823,255.34137983499622 L 300.18001800180014,254.04303383583522 L 301.98019801980195,254.18729450240866 L 303.2303230323032,255.34137983499622 L 304.38043804380436,255.96650939014782 L 307.73077307730773,256.6397258341572 L 309.43094309430944,256.78398650073063 L 310.9310931093109,256.6397258341572 L 314.2314231423142,255.5337273904275 L 313.031303130313,260.1500687207777 L 312.48124812481245,261.35224094222303 z" /><path fill-rule="evenodd" fill="#D2EBD9" stroke="#A6A6A6" stroke-width="0.25" opacity="1" d="M 154.36543654365437,323.5285882353775 L 155.3155315531553,323.143893124515 L 156.36563656365635,323.7690226796666 L 157.6157615761576,325.4039769008323 L 159.96599659965995,324.3941522348182 L 161.7161716171617,324.34606534596037 L 169.36693669366935,327.90449512143863 L 170.16701670167015,328.86623289859494 L 167.36673667366736,329.53944934260437 L 165.6165616561656,330.5973608974763 L 164.6164616461646,330.9820560083388 L 163.46634663466347,330.9820560083388 L 160.36603660366035,330.40501334204504 L 157.2157215721572,330.54927400861845 L 156.1156115611561,330.40501334204504 L 153.66536653665366,329.49136245374655 L 152.56525652565256,329.29901489831525 L 150.9150915091509,328.57771156544806 L 149.16491649164917,327.279365566287 L 148.4148414841484,325.740585122837 L 149.61496149614962,324.34606534596037 L 153.26532653265326,324.1537177905291 L 154.36543654365437,323.5285882353775 z" /><path fill-rule="evenodd" fill="#D2EBD9" stroke="#A6A6A6" stroke-width="0.25" opacity="1" d="M 106.6106610661066,284.14542626082726 L 109.1109110911091,287.848116702879 L 111.16111611161115,291.74315470036197 L 114.2114211421142,293.4261958103855 L 120.6120612061206,295.109236920409 L 128.5128512851285,295.97480091984966 L 135.26352635263527,294.8207155872621 L 135.56355635563557,296.6480173638591 L 135.61356135613562,300.0621864727639 L 134.91349134913492,301.2162718053515 L 132.2132213221322,303.9572244702469 L 130.11301130113011,305.06322291397663 L 128.86288628862886,306.36156891313766 L 125.66256625662565,311.21834468777695 L 121.2121212121212,322.2783291250743 L 120.26202620262026,323.4805013465197 L 119.16191619161916,324.1537177905291 L 117.81178117811781,324.34606534596037 L 117.41174117411741,325.25971623425886 L 117.66176617661766,327.23127867742926 L 118.6118611861186,330.40501334204504 L 117.41174117411741,331.3667511192013 L 116.8116811681168,332.6650971183623 L 117.01170117011701,334.10770378409677 L 118.1118111811181,335.3579628943999 L 117.31173117311731,336.46396133812965 L 114.36143614361436,338.43552378130005 L 113.11131113111311,338.96447955873606 L 112.011201120112,338.43552378130005 L 110.9110911091109,337.5218728930016 L 109.8109810981098,337.0410040044234 L 108.6108610861086,337.3295253375703 L 107.96079607960796,338.05082867043757 L 107.5107510751075,338.96447955873606 L 106.6106610661066,339.8300435581767 L 105.51055105510551,340.31091244675486 L 101.6101610161016,340.88795511304863 L 100.76007600760076,339.1087402253095 L 101.76017601760175,336.03117933840934 L 103.26032603260326,332.6650971183623 L 104.06040604060405,330.11649200889815 L 104.7104710471047,326.509975344562 L 104.9104910491049,324.2018046793869 L 104.3104310431043,323.1919800133728 L 103.66036603660365,322.7111111247946 L 103.11031103110311,321.6531995699227 L 102.56025602560256,319.9220715710414 L 103.7103710371037,317.7100746835819 L 103.06030603060306,317.6619877947241 L 102.8102810281028,316.55598935099437 L 101.8101810181018,314.58442690782397 L 101.6101610161016,313.5746022418098 L 101.21012101210121,313.0937333532317 L 99.3099309930993,312.7090382423692 L 98.60986098609861,312.22816935379103 L 98.9098909890989,310.2085200217628 L 97.8097809780978,308.62165268945495 L 96.20962096209621,307.3233066902939 L 95.05950595059505,306.1211344688486 L 94.4094409440944,303.71679002595783 L 94.2094209420942,302.3222702490812 L 94.3094309430943,301.74522758278744 L 95.35953595359535,301.2162718053515 L 96.35963596359636,298.71575358474513 L 97.05970597059705,297.85018958530446 L 97.1097109710971,300.9277504722046 L 96.85968596859685,302.17800958250774 L 96.05960596059606,302.85122602651717 L 97.1097109710971,303.2359211373797 L 97.55975597559755,302.46653091565463 L 98.05980598059806,300.0621864727639 L 100.1100110011001,297.85018958530446 L 100.0100010001,296.11906158642313 L 100.1100110011001,295.63819269784494 L 101.46014601460145,294.29175980982615 L 102.010201020102,293.5223695881011 L 102.06020602060205,292.3682842555136 L 101.66016601660165,291.9355022557932 L 99.55995599559955,292.8972400329495 L 99.9099909990999,291.35845958949943 L 99.75997599759975,289.57924470176033 L 99.05990599059905,288.5694200357462 L 97.85978597859786,289.3388102574712 L 97.6097609760976,290.7333300343479 L 98.009800980098,292.4163711443714 L 98.009800980098,293.85897781010584 L 96.55965596559655,294.5321942541152 L 96.75967596759675,292.75297936637605 L 96.15961596159616,292.1278498112245 L 95.05950595059505,291.8393284780776 L 93.1093109310931,290.5890693677744 L 92.55925592559255,290.8775907009213 L 92.2092209220922,291.55080714493073 L 92.1092109210921,292.3682842555136 L 93.55935593559356,293.4742826992433 L 94.25942594259425,294.4841073652574 L 95.009500950095,296.7441911415747 L 95.05950595059505,298.13871091845135 L 94.65946594659465,299.82175202847486 L 93.65936593659366,300.87966358334677 L 92.5092509250925,300.9277504722046 L 91.55915591559156,299.533230695328 L 92.05920592059205,298.6195798070295 L 91.95919591959195,297.89827647416223 L 91.35913591359136,297.2731469190107 L 90.6090609060906,296.7922780304325 L 90.00900090009,296.9846255858638 L 89.30893089308931,297.51358136329975 L 88.75887588758876,297.60975514101534 L 88.55885588558856,296.5037566972856 L 87.95879587958795,295.7824533644184 L 86.55865586558656,294.91688936497775 L 85.05850585058505,294.2436729209683 L 84.05840584058406,294.00323847667926 L 84.95849584958495,292.1759367000823 L 86.35863586358636,290.49289559005877 L 90.7090709070907,286.4535969260024 L 99.85998599859985,281.2602129293584 L 101.3101310131013,280.827430929638 L 103.26032603260326,281.21212604050055 L 104.36043604360435,282.0296031510834 L 105.26052605260526,283.0875147059553 L 106.6106610661066,284.14542626082726 z" /><path fill-rule="evenodd" fill="#D2EBD9" stroke="#A6A6A6" stroke-width="0.25" opacity="1" d="M 239.52395239523952,348.38950977486775 L 238.17381738173816,347.2354244422802 L 243.17431743174316,339.8300435581767 L 245.47454745474545,338.00274178157974 L 248.07480748074806,336.65630889356095 L 250.37503750375035,334.68474645039055 L 251.67516751675166,330.9820560083388 L 251.7251725172517,329.2509280094575 L 251.17511751175115,324.63458667910726 L 250.8250825082508,324.0575440128135 L 249.97499749974997,323.2881537910884 L 251.17511751175115,322.7111111247946 L 252.87528752875286,323.7690226796666 L 253.17531753175317,324.63458667910726 L 253.57535753575357,326.6542360111355 L 254.17541754175417,333.48257422894517 L 253.77537753775377,335.0213546723952 L 252.8252825282528,336.12735311612494 L 246.07460746074605,340.9841288907642 L 241.67416741674165,345.31194888796756 L 239.52395239523952,348.38950977486775 z" /><path fill-rule="evenodd" fill="#D2EBD9" stroke="#A6A6A6" stroke-width="0.25" opacity="1" d="M 238.17381738173816,347.2354244422802 L 239.52395239523952,348.38950977486775 L 237.9237923792379,350.6015066623272 L 236.77367736773675,351.5151575506257 L 235.52355235523552,351.85176577263036 L 232.17321732173215,351.99602643920383 L 228.77287728772876,352.8135035497867 L 226.12261226122612,354.35228399323677 L 216.8216821682168,361.51723043305117 L 215.42154215421542,361.9500124327715 L 214.77147714771476,362.7674895433543 L 214.1214121412141,364.35435687566223 L 213.27132713271325,365.12374709738725 L 212.1212121212121,363.58496665393716 L 211.97119711971195,366.66252754083735 L 212.3212321232123,367.9127866511405 L 213.1213121312131,369.1630457614437 L 212.27122712271225,369.595827761164 L 209.1209120912091,369.7400884277375 L 208.020802080208,363.6811404316528 L 206.97069706970697,360.507405767037 L 205.17051705170516,358.6320171015823 L 206.27062706270627,358.439669546151 L 208.8208820882088,359.8822762118854 L 210.37103710371036,360.26697132274796 L 211.77117711771177,360.1227106561745 L 214.8214821482148,359.3533204344495 L 216.37163716371637,359.16097287901823 L 219.27192719271926,358.29540887957756 L 223.67236723672366,354.11184954894765 L 226.67266726672665,352.5249822166398 L 232.5232523252325,351.2266362174788 L 235.32353235323532,350.2168115514647 L 237.17371737173715,348.67803110801464 L 238.17381738173816,347.2354244422802 z" /><path fill-rule="evenodd" fill="#D2EBD9" stroke="#A6A6A6" stroke-width="0.25" opacity="1" d="M 251.17511751175115,322.7111111247946 L 249.97499749974997,323.2881537910884 L 248.07480748074806,321.26850445906024 L 247.67476747674766,319.9220715710414 L 247.024702470247,316.21938112898965 L 246.97469746974696,314.1516449081036 L 247.37473747374736,313.286080908663 L 248.17481748174816,314.0073842415302 L 249.02490249024902,315.30573024069116 L 249.57495749574957,315.6904253515537 L 249.67496749674967,313.8631235749567 L 249.47494749474947,312.757125131227 L 249.12491249124912,312.0358217983598 L 247.9247924792479,310.8336495769144 L 246.87468746874686,309.1506084668909 L 246.4246424642464,308.91017402260184 L 239.27392739273927,310.160433132905 L 238.07380738073806,310.0642593551894 L 237.87378737873786,309.2948691334643 L 239.42394239423942,307.5156542457252 L 240.77407740774075,306.65009024628455 L 243.97439743974397,305.3517442471235 L 245.17451745174517,304.48618024768285 L 246.17461746174615,302.22609647136557 L 246.97469746974696,299.2927962510389 L 248.22482248224821,296.7441911415747 L 250.67506750675065,295.63819269784494 L 249.72497249724972,298.23488469616694 L 249.47494749474947,301.3605324719249 L 249.67496749674967,306.98669846828926 L 250.02500250025003,308.092696912019 L 251.77517751775176,310.88173646577224 L 252.1252125212521,312.4686037980801 L 252.4252425242524,316.3155549067053 L 252.1252125212521,317.6619877947241 L 251.2251225122512,319.72972401561015 L 250.87508750875085,321.1723306813446 L 251.17511751175115,322.7111111247946 z" /><g><path fill-rule="evenodd" fill="#D2EBD9" stroke="#A6A6A6" stroke-width="0.25" opacity="1" d="M 129.6129612961296,381.3771155313286 L 129.46294629462946,382.0984188641958 L 126.76267626762676,387.00328152769293 L 126.06260626062605,387.8688455271336 L 125.1125112511251,388.0131061937071 L 124.61246124612461,387.33988974969765 L 125.1125112511251,386.33006508368356 L 126.61266126612661,384.6951108625178 L 127.8127812781278,382.5312008639162 L 128.7128712871287,381.4732893090443 L 129.6129612961296,381.3771155313286 z" /><path fill-rule="evenodd" fill="#D2EBD9" stroke="#A6A6A6" stroke-width="0.25" opacity="1" d="M 126.3126312631263,357.14132354699 L 127.21272127212721,357.52601865785255 L 127.9127912791279,358.3434957684354 L 128.3128312831283,359.2571466567338 L 128.1128112811281,359.30523354559165 L 127.56275627562755,358.58393021272445 L 126.71267126712671,358.0549744352885 L 124.26242624262426,358.0068875464307 L 123.2123212321232,357.23749732470566 L 125.2125212521252,357.14132354699 L 126.3126312631263,357.14132354699 z" /></g><path fill-rule="evenodd" fill="#D2EBD9" stroke="#A6A6A6" stroke-width="0.25" opacity="1" d="M 150.1150115011501,430.0410470554371 L 147.76477647764776,432.156870165181 L 147.1147114711471,432.5415652760435 L 147.1147114711471,430.9546979437356 L 147.66476647664766,429.8967863888637 L 148.014801480148,428.79078794513396 L 147.6147614761476,426.963486168537 L 149.81498149814982,429.41591750028556 L 150.1150115011501,430.0410470554371 z" /><path fill-rule="evenodd" fill="#D2EBD9" stroke="#A6A6A6" stroke-width="0.25" opacity="1" d="M 72.75727572757275,448.3621517102645 L 71.65716571657165,449.5643239317099 L 69.95699569956996,449.5643239317099 L 68.45684568456845,447.49658771082386 L 69.2069206920692,446.1982417116629 L 70.5070507050705,447.1118925999614 L 72.75727572757275,448.3621517102645 z" /><path fill-rule="evenodd" fill="#D2EBD9" stroke="#A6A6A6" stroke-width="0.25" opacity="1" d="M 86.40864086408641,453.5074488180507 L 81.75817581758176,463.17291347847146 L 78.4078407840784,464.5193463664903 L 77.05770577057706,465.33682347707315 L 76.65766576657666,466.7794301428076 L 75.7075707570757,468.55864503054676 L 74.45744574457446,470.19359925171244 L 73.05730573057305,471.1553370288687 L 72.50725072507251,467.6930810311061 L 72.05720572057206,466.68325636509195 L 70.05700570057006,464.42317258877466 L 69.55695569556956,463.36526103390275 L 72.60726072607261,462.788218367609 L 74.35743574357436,461.730306812737 L 74.50745074507451,460.8166559244386 L 73.15731573157315,459.9510919249979 L 72.25722572257226,458.0757032595431 L 71.2071207120712,457.21013926010244 L 71.007100710071,456.15222770523053 L 70.10701070107011,455.43092437236334 L 69.80698069806981,454.7577079283539 L 68.4068406840684,453.8440570400554 L 67.40674067406741,453.4112750403351 L 65.9065906590659,452.35336348546315 L 64.25642564256425,451.5358863748803 L 62.506250625062506,451.58397326373813 L 60.15601560156015,452.5937979297522 L 57.555755575557555,452.1610159300319 L 55.4055405540554,455.14240303921645 L 46.004600460046,461.10517725758547 L 45.504550455045504,461.730306812737 L 44.95449544954495,462.0669150347417 L 44.354435443544354,462.259262590173 L 43.55435543554355,462.259262590173 L 44.3044304430443,461.0090034798698 L 47.8047804780478,458.12379014840093 L 55.45554555455545,450.1894534868615 L 58.655865586558654,448.2178910436911 L 60.4060406040604,446.4867630448098 L 63.306330633063304,445.42885148993787 L 66.3066306630663,445.140330156791 L 67.006700670067,445.47693837879564 L 68.5068506850685,445.6211990453691 L 69.2069206920692,446.1982417116629 L 68.45684568456845,447.49658771082386 L 69.95699569956996,449.5643239317099 L 71.65716571657165,449.5643239317099 L 72.75727572757275,448.3621517102645 L 73.3073307330733,448.74684682112706 L 74.75747574757476,449.17962882084737 L 76.95769576957696,451.10310437516 L 86.40864086408641,453.5074488180507 z" /><g><path fill-rule="evenodd" fill="#D2EBD9" stroke="#A6A6A6" stroke-width="0.25" opacity="1" d="M 81.75817581758176,463.17291347847146 L 86.40864086408641,453.5074488180507 L 95.009500950095,455.7194457055102 L 99.05990599059905,455.7194457055102 L 113.4113411341134,458.74891970355253 L 118.2118211821182,458.9893541478416 L 119.16191619161916,458.8450934812682 L 121.56215621562156,457.1620523712446 L 122.96229622962295,457.7390950375384 L 123.56235623562355,459.08552792555724 L 123.5123512351235,460.6243083690073 L 122.21222122212221,463.50952170047617 L 122.76227622762275,466.8756039205232 L 122.56225622562256,468.36629747511546 L 121.4121412141214,467.88542858653733 L 120.76207620762075,467.01986458709666 L 120.3120312031203,465.96195303222476 L 119.61196119611961,465.04830214392626 L 118.46184618461845,464.56743325534813 L 113.86138613861385,464.4712594776325 L 112.36123612361236,464.27891192220125 L 110.06100610061006,463.2210003673293 L 107.71077107710771,462.4996970344621 L 104.2104210421042,462.9805659230402 L 101.6101610161016,461.9226543681683 L 100.2100210021002,462.1630888124574 L 97.95979597959796,463.17291347847146 L 96.40964096409641,462.40352325674644 L 95.45954595459546,460.960916591012 L 93.05930593059306,461.05709036872764 L 89.30893089308931,461.68221992387925 L 85.95859585958596,462.4996970344621 L 84.45844584458446,462.11500192359955 L 81.75817581758176,463.17291347847146 z" /><path fill-rule="evenodd" fill="#D2EBD9" stroke="#A6A6A6" stroke-width="0.25" opacity="1" d="M 127.06270627062706,454.03640459548666 L 126.3126312631263,453.4593619291929 L 127.11271127112711,454.51727348406484 L 126.81268126812681,454.95005548378515 L 124.61246124612461,454.51727348406484 L 124.21242124212421,454.18066526206013 L 124.66246624662466,452.7861454851835 L 125.7125712571257,451.58397326373813 L 126.012601260126,451.00693059744435 L 126.51265126512651,451.0550174863022 L 126.96269626962696,451.7282339303116 L 127.21272127212721,452.5937979297522 L 127.56275627562755,453.170840596046 L 127.56275627562755,453.55553570690853 L 128.46284628462845,454.80579481721173 L 128.26282628262825,455.0462292615008 L 127.06270627062706,454.03640459548666 z" /></g><g><path fill-rule="evenodd" fill="#D2EBD9" stroke="#A6A6A6" stroke-width="0.25" opacity="1" d="M 172.56725672567256,428.3099190565558 L 187.11871187118712,433.98417194177796 L 187.21872187218722,434.6093014969295 L 188.16881688168814,436.4846901623843 L 187.01870187018702,436.821298384389 L 186.018601860186,437.350254161825 L 185.36853685368536,438.21581816126564 L 185.1185118511851,439.56225104928444 L 185.1185118511851,443.1687677136206 L 185.36853685368536,443.7458103799143 L 186.3186318631863,444.3228530462081 L 186.3186318631863,445.6211990453691 L 185.76857685768576,447.1599794888192 L 185.1185118511851,448.2178910436911 L 184.26842684268425,448.9391943765583 L 181.56815681568156,450.4298879311506 L 178.06780678067807,452.97849304061475 L 176.06760676067606,453.9883177066289 L 171.6171617161716,454.80579481721173 L 169.7169716971697,456.0079670386571 L 168.21682168216822,457.7871819263962 L 167.1167116711671,459.99917881385574 L 169.5169516951695,459.9510919249979 L 170.5170517051705,460.2396132581448 L 171.1171117111711,461.10517725758547 L 168.71687168716872,461.2975248130167 L 167.016701670167,461.82648059045266 L 165.46654665466545,462.88439214532457 L 162.016201620162,462.11500192359955 L 162.4162416241624,461.97074125702613 L 163.016301630163,460.6723952578651 L 163.86638663866387,459.6144837029932 L 164.06640664066407,458.89318037012595 L 163.96639663966397,458.2199639261166 L 163.66636663666367,457.7390950375384 L 164.5164516451645,455.7194457055102 L 165.36653665366535,454.32492592863355 L 166.6166616661666,453.5074488180507 L 173.36733673367337,452.54571104089445 L 175.1175117511751,451.7282339303116 L 177.66776677667767,451.0550174863022 L 178.21782178217822,449.8528452648568 L 177.86778677867787,448.3621517102645 L 177.16771677167716,447.1118925999614 L 175.8175817581758,446.29441548937854 L 175.6175617561756,445.71737282308476 L 175.6175617561756,443.7458103799143 L 175.1175117511751,442.78407260275804 L 174.46744674467445,442.014682381033 L 173.66736673667367,441.53381349245484 L 172.61726172617261,441.53381349245484 L 172.71727172717272,435.76338682951706 L 173.36733673367337,434.8016490523608 L 173.46734673467347,433.98417194177796 L 171.1171117111711,430.5700028328731 L 172.36723672367236,429.3197437225699 L 172.56725672567256,428.3099190565558 z" /><path fill-rule="evenodd" fill="#D2EBD9" stroke="#A6A6A6" stroke-width="0.25" opacity="1" d="M 171.56715671567156,444.0343317130612 L 170.86708670867085,444.17859237963467 L 170.3170317031703,443.9862448242034 L 169.5169516951695,443.313028380194 L 169.2169216921692,443.3611152690518 L 169.1169116911691,443.0245070470471 L 169.9169916991699,442.014682381033 L 170.2170217021702,441.10103149273453 L 170.8170817081708,440.7644232707298 L 171.4171417141714,440.81251015958765 L 171.8171817181718,441.14911838159236 L 171.6171617161716,442.0627692698908 L 171.7171717171717,443.0245070470471 L 171.86718671867186,443.12068082476276 L 171.66716671667166,443.2649414913362 L 171.76717671767176,443.40920215790965 L 172.16721672167216,443.40920215790965 L 172.06720672067206,443.69772349105654 L 171.56715671567156,444.0343317130612 z" /></g><path fill-rule="evenodd" fill="#D2EBD9" stroke="#A6A6A6" stroke-width="0.25" opacity="1" d="M 187.11871187118712,433.98417194177796 L 172.56725672567256,428.3099190565558 L 172.61726172617261,426.14600905795413 L 172.36723672367236,424.94383683650875 L 171.017101710171,423.5012301707743 L 170.56705670567055,422.53949239361805 L 170.7170717071707,421.6739283941774 L 171.86718671867186,420.6160168393055 L 172.16721672167216,420.0389741730117 L 172.36723672367236,418.30784617413036 L 172.61726172617261,417.63462973012093 L 173.11731173117312,416.9614132861115 L 171.26712671267126,416.14393617552867 L 169.5169516951695,414.7013295097942 L 166.86668666866686,411.6718555117519 L 165.96659665966595,411.1909866231738 L 164.01640164016402,410.8543784011691 L 163.21632163216321,408.83472906914085 L 162.1162116211621,407.9691650697002 L 160.8160816081608,407.5363830699798 L 159.6159615961596,407.5363830699798 L 161.06610661066105,405.5648206268094 L 166.4166416641664,404.36264840536404 L 167.56675667566756,403.30473685049213 L 168.06680668066807,401.6216957404686 L 169.26692669266924,399.07309063100445 L 170.96709670967095,396.76491996582934 L 172.86728672867287,395.75509529981525 L 175.46754675467545,398.30370040927943 L 175.76757675767576,404.1703008499328 L 175.36753675367535,410.7101177345956 L 176.16761676167616,415.278372176088 L 176.017601760176,416.8171526195381 L 176.66766676667666,423.0203612821962 L 177.36773677367736,425.0400106142244 L 179.017901790179,426.91539927967915 L 181.018101810181,428.74270105627613 L 183.26832683268327,429.99296016657934 L 185.6185618561856,430.2814814997262 L 185.1185118511851,428.74270105627613 L 186.4186418641864,428.9831355005652 L 187.61876187618762,429.80061261114804 L 188.3188318831883,430.76235038830436 L 188.16881688168814,431.77217505431844 L 187.26872687268727,433.1186079423373 L 187.11871187118712,433.98417194177796 z" /><path fill-rule="evenodd" fill="#D2EBD9" stroke="#A6A6A6" stroke-width="0.25" opacity="1" d="M 162.016201620162,462.11500192359955 L 165.46654665466545,462.88439214532457 L 152.06520652065205,476.012112803508 L 149.01490149014901,478.3202834686831 L 145.11451145114512,480.1475852452801 L 143.4143414341434,478.8492392461191 L 139.61396139613962,479.18584746812377 L 132.86328632863285,480.72462791157386 L 126.012601260126,480.8208016892895 L 122.7122712271227,480.1956721341379 L 120.11201120112011,478.4645441352566 L 119.56195619561956,478.3683703575409 L 119.16191619161916,477.9355883578206 L 120.66206620662065,477.98367524667844 L 123.012301230123,478.8011523572613 L 128.76287628762876,479.2820212458394 L 130.11301130113011,479.04158680155035 L 131.4131413141314,478.4645441352566 L 133.46334633463346,477.07002435837995 L 134.3134313431343,476.8295899140909 L 137.2137213721372,476.8295899140909 L 138.56385638563856,476.6372423586596 L 142.8142814281428,475.19463569292515 L 144.56445644564457,474.9542012486361 L 145.8145814581458,475.38698324835644 L 147.16471647164715,476.15637347008146 L 148.8148814881488,476.0601996923658 L 150.4150415041504,475.48315702607204 L 151.6151615161516,474.56950613777354 L 153.6153615361536,472.21324858374066 L 156.96569656965696,466.6351694762341 L 158.16581658165816,463.8461299224809 L 157.7157715771577,462.5958708121777 L 158.26582658265826,461.730306812737 L 159.41594159415942,461.2494379241589 L 160.86608660866085,461.10517725758547 L 161.3161316131613,461.34561170187453 L 162.016201620162,462.11500192359955 z" /><g><path fill-rule="evenodd" fill="#D2EBD9" stroke="#A6A6A6" stroke-width="0.25" opacity="1" d="M 5.8505850585058505,203.744148090561 L 4.1004100410041,204.89823342314855 L 4.2004200420042,204.60971209000166 L 5.6005600560056,203.59988742398758 L 5.8505850585058505,203.744148090561 z" /><path fill-rule="evenodd" fill="#D2EBD9" stroke="#A6A6A6" stroke-width="0.25" opacity="1" d="M 2.25022502250225,207.78344675461744 L 0.0,210.04353053093473 L 2.9002900290029,206.72553519974554 L 3.05030503050305,206.77362208860333 L 2.25022502250225,207.78344675461744 z" /><path fill-rule="evenodd" fill="#D2EBD9" stroke="#A6A6A6" stroke-width="0.25" opacity="1" d="M 23.75237523752375,367.67235220685143 L 24.102410241024103,366.9029619851264 L 24.25242524252425,366.8548750962686 L 23.952395239523952,367.6242653179936 L 23.75237523752375,367.67235220685143 z" /><path fill-rule="evenodd" fill="#D2EBD9" stroke="#A6A6A6" stroke-width="0.25" opacity="1" d="M 22.302230223022303,369.35539331687494 L 22.95229522952295,368.44174242857645 L 23.002300230023,368.73026376172334 L 22.35223522352235,369.6439146500218 L 22.302230223022303,369.35539331687494 z" /><path fill-rule="evenodd" fill="#D2EBD9" stroke="#A6A6A6" stroke-width="0.25" opacity="1" d="M 25.152515251525152,386.8109339722617 L 24.35243524352435,386.57049952797263 L 22.902290229022903,385.4164141953851 L 21.95219521952195,383.68528619650374 L 21.4021402140214,382.14650575305365 L 21.2021202120212,380.94433353160827 L 21.45214521452145,380.6077253096036 L 24.3024302430243,380.2711170875989 L 24.552455245524552,380.7038990873192 L 23.8023802380238,381.3290286424708 L 22.7022702270227,381.80989753104893 L 21.95219521952195,382.43502708620053 L 22.1022102210221,383.4929386410725 L 23.002300230023,384.79128464023347 L 24.002400240024002,385.7530224173898 L 24.3024302430243,385.36832730652725 L 23.75237523752375,384.11806819622404 L 23.9023902390239,383.39676486335685 L 25.302530253025303,383.9257206407928 L 25.45254525452545,383.54102552993027 L 25.65256525652565,384.2142419739397 L 25.45254525452545,385.945369972821 L 25.152515251525152,386.8109339722617 z" /></g><g><path fill-rule="evenodd" fill="#D2EBD9" stroke="#A6A6A6" stroke-width="0.25" opacity="1" d="M 282.7282728272827,101.27098793455782 L 281.67816781678164,103.05020282229697 L 281.4281428142814,102.90594215572352 L 281.9281928192819,101.07864037912657 L 281.02810281028104,101.55950926770471 L 280.6780678067807,101.46333548998908 L 281.2281228122812,99.78029437996557 L 281.8281828182818,99.10707793595616 L 282.7282728272827,99.15516482481398 L 283.27832783278325,99.73220749110774 L 283.028302830283,100.74203215712186 L 282.7282728272827,101.27098793455782 z" /><path fill-rule="evenodd" fill="#D2EBD9" stroke="#A6A6A6" stroke-width="0.25" opacity="1" d="M 280.978097809781,103.91576682173763 L 281.07810781078103,104.58898326574703 L 280.8780878087809,105.93541615376586 L 280.52805280528054,106.0796768203393 L 280.42804280428044,104.01194059945327 L 280.72807280728074,103.819593044022 L 280.978097809781,103.91576682173763 z" /><path fill-rule="evenodd" fill="#D2EBD9" stroke="#A6A6A6" stroke-width="0.25" opacity="1" d="M 276.17761776177616,114.63914303703032 L 275.6275627562756,115.93748903619131 L 275.3275327532753,115.74514148076005 L 275.57755775577556,114.5910561481725 L 276.07760776077606,113.38888392672713 L 276.6276627662766,112.71566748271773 L 276.8276827682768,113.14844948243805 L 276.17761776177616,114.63914303703032 z" /></g><path fill-rule="evenodd" fill="#D2EBD9" stroke="#A6A6A6" stroke-width="0.25" opacity="1" d="M 206.22062206220622,368.73026376172334 L 205.4205420542054,368.48982931743427 L 204.9204920492049,367.9608735399983 L 207.67076707670765,367.7685259845671 L 207.97079707970795,368.2013079842874 L 207.07070707070707,368.5379162062921 L 206.22062206220622,368.73026376172334 z" /><path fill-rule="evenodd" fill="#D2EBD9" stroke="#A6A6A6" stroke-width="0.25" opacity="1" d="M 201.92019201920192,367.1433964294155 L 199.86998699869986,366.5182668742639 L 198.7198719871987,365.74887665253885 L 198.76987698769875,365.12374709738725 L 199.56995699569956,365.2199208751029 L 200.47004700470046,365.9412242079701 L 201.92019201920192,365.9412242079701 L 203.2203220322032,366.5182668742639 L 203.3203320332033,366.95104887398423 L 202.7202720272027,367.1914833182733 L 201.92019201920192,367.1433964294155 z" /></g></g></g></svg>