<svg xmlns="http://www.w3.org/2000/svg" xmlns:xlink="http://www.w3.org/1999/xlink" width="500.0" height="279.05899018375203" viewBox="0.0 0.0 500.0 279.05899018375203" preserveAspectRatio="xMinYMin meet"><g transform="matrix(1,0,0,-1,0,279.05899018375203)"><g><g><path fill-rule="evenodd" fill="#D2EBD9" stroke="#A6A6A6" stroke-width="0.25" opacity="1" d="M 402.8902890289029,216.73888566526836 L 400.29002900290027,213.8363819169825 L 398.039803980398,211.8269562450923 L 397.28972897289725,211.4362345866692 L 396.5396539653965,211.35250851700712 L 395.0895089508951,211.79904755520494 L 394.3894389438944,211.8269562450923 L 393.53935393539354,211.32459982711975 L 388.78887888788876,205.60331840021016 L 388.038803880388,205.07305329235024 L 386.038603860386,204.48697080471558 L 385.5885588558856,203.73343617775677 L 385.3885388538854,202.756632031699 L 385.4885488548855,200.77511504969618 L 385.0885088508851,186.8207701060142 L 384.3884388438844,183.94617504761572 L 384.43844384438444,182.07629282516234 L 384.0884088408841,179.28542383642593 L 382.7882788278828,176.10383318926645 L 382.4882488248825,174.9037595241098 L 382.5882588258826,173.70368585895315 L 383.63836383638363,169.85228665449694 L 383.6883688368837,168.59639560956555 L 382.988298829883,164.49381819612307 L 383.63836383638363,154.30714638723524 L 382.1382138213821,150.73483408165265 L 383.988398839884,148.08350854235306 L 386.68866886688664,143.19948781206438 L 397.039703970397,129.27305155826977 L 398.9398939893989,124.75184379651681 L 399.08990899089906,124.08203523922008 L 398.78987898789876,122.63078336507715 L 396.38963896389635,117.97003215388737 L 402.14021402140213,117.30022359659064 L 415.9415941594159,112.49992893596404 L 416.4416441644164,113.19764618314814 L 420.0920092009201,114.6209893674037 L 424.1424142414241,119.19801450893138 L 425.79257925792575,119.33755795836821 L 434.5434543454345,122.1284269471046 L 439.6939693969397,124.27739606843163 L 443.7443744374437,124.89138724595362 L 444.89448944894485,125.42165235381354 L 445.7445744574457,126.45427387964601 L 446.1446144614461,127.71016492457738 L 442.84428442844285,129.18932548860766 L 439.1939193919392,129.8591340459044 L 435.79357935793576,130.91966426162423 L 433.44334433443345,133.57098980092383 L 432.14321432143214,136.38976747954757 L 427.89278927892786,139.82253633569334 L 426.49264926492646,142.22268366600665 L 423.24232423242324,154.53041590633413 L 424.2424242424242,160.94941458042783 L 431.1931193119312,170.77327342077996 L 432.44324432443244,175.8526549802802 L 432.54325432543254,181.90884068583816 L 428.042804280428,186.62540927680266 L 422.1922192219222,188.3836567397066 L 421.94219421942194,193.4909469890942 L 431.44314431443144,193.71421650819312 L 432.74327432743274,197.84470261152296 L 434.49344934493445,201.221654087894 L 435.09350935093505,204.48697080471558 L 432.8932893289329,208.36627869905917 L 430.4930493049305,210.23616092151255 L 427.3427342734273,211.65950410576812 L 424.042404240424,212.58049087205112 L 417.9417941794179,213.36193418889732 L 411.991199119912,215.8458075888727 L 406.5406540654065,215.90162496864744 L 404.3904390439044,216.2365292472958 L 402.8902890289029,216.73888566526836 z" /><path fill-rule="evenodd" fill="#D2EBD9" stroke="#A6A6A6" stroke-width="0.25" opacity="1" d="M 301.48014801480144,227.84654424043921 L 300.78007800780074,222.5159844719527 L 300.78007800780074,220.78564569893612 L 300.9300930093009,219.44602858434266 L 301.4301430143014,217.77150719110082 L 301.58015801580154,213.78056453720777 L 301.28012801280124,212.5246734922764 L 300.8300830083008,211.79904755520494 L 299.3799379937994,210.85015209903457 L 298.6798679867987,210.06870878218837 L 298.32983298329833,209.23144808556745 L 298.12981298129813,208.05928311029817 L 297.3797379737974,206.60803123615526 L 297.5297529752975,205.82658791930905 L 298.0798079807981,204.96141853280076 L 299.82998299829984,203.45434927888311 L 301.78017801780175,202.53336251260012 L 303.48034803480346,202.1705495440644 L 304.2304230423042,201.83564526541602 L 305.08050805080507,200.85884111935826 L 307.2807280728073,195.6399161104212 L 307.6807680768077,191.28616048799245 L 309.78097809780974,190.28144765204735 L 311.9311931193119,188.04875246105823 L 313.08130813081306,186.3742310678164 L 313.9313931393139,185.45324430153337 L 314.58145814581457,185.03461395322293 L 315.6315631563156,184.811344434124 L 317.73177317731773,183.55545338919262 L 318.63186318631864,183.1926404206569 L 319.13191319131914,182.1042015150497 L 320.58205820582054,175.5456593915192 L 320.58205820582054,171.61053411740087 L 320.9320932093209,171.08026900954096 L 321.9321932193219,170.5779125915684 L 324.9324932493249,170.10346486348323 L 325.6325632563256,169.65692582528538 L 329.78297829782974,165.61016579161762 L 330.3330333033303,164.3821834365736 L 330.78307830783075,162.6797533534444 L 331.3331333133313,158.85626283887555 L 331.58315831583155,154.97695494453197 L 329.18291829182914,147.07879570640796 L 328.9328932893289,145.32054824350402 L 330.2330233023302,142.3343184255561 L 330.58305830583055,138.34337577166306 L 330.5330533053305,137.3107542458306 L 329.98299829982994,135.71995892225084 L 330.28302830283025,134.79897215596782 L 331.08310831083105,133.738441940248 L 332.78327832783276,132.510459585204 L 335.0835083508351,129.41259500770659 L 332.78327832783276,124.27739606843163 L 331.38313831383135,122.54705729541506 L 331.1331133113311,121.45861838980787 L 331.1331133113311,120.6492663830743 L 333.4333433343334,115.96060648199717 L 341.08410841084105,114.36981115841742 L 349.3349334933493,121.65397921901942 L 352.48524852485247,122.71450943473924 L 355.0855085508551,122.60287467518978 L 357.9357935793579,122.01679218755514 L 358.9358935893589,121.40280101003314 L 362.38623862386237,115.96060648199717 L 374.3874387438744,122.46333122575297 L 376.3376337633763,127.51480409536585 L 376.58765876587654,130.52894260320116 L 376.3376337633763,131.31038592004734 L 375.23752375237524,132.7337291043029 L 374.3874387438744,134.79897215596782 L 375.53755375537554,137.6177498345916 L 377.037703770377,139.26436253794606 L 380.6380638063806,142.22268366600665 L 380.88808880888087,143.5623007806001 L 380.68806880688066,146.3531697693365 L 381.1381138113811,147.1346130861827 L 381.8881888188819,147.55324343449314 L 383.988398839884,148.08350854235306 L 382.1382138213821,150.73483408165265 L 383.63836383638363,154.30714638723524 L 382.988298829883,164.49381819612307 L 383.6883688368837,168.59639560956555 L 383.63836383638363,169.85228665449694 L 382.5882588258826,173.70368585895315 L 382.4882488248825,174.9037595241098 L 382.7882788278828,176.10383318926645 L 384.0884088408841,179.28542383642593 L 384.43844384438444,182.07629282516234 L 384.3884388438844,183.94617504761572 L 385.0885088508851,186.8207701060142 L 385.4885488548855,200.77511504969618 L 385.3885388538854,202.756632031699 L 385.5885588558856,203.73343617775677 L 386.038603860386,204.48697080471558 L 388.038803880388,205.07305329235024 L 388.78887888788876,205.60331840021016 L 393.53935393539354,211.32459982711975 L 394.3894389438944,211.8269562450923 L 395.0895089508951,211.79904755520494 L 396.5396539653965,211.35250851700712 L 397.28972897289725,211.4362345866692 L 398.039803980398,211.8269562450923 L 400.29002900290027,213.8363819169825 L 402.8902890289029,216.73888566526836 L 400.29002900290027,217.631963741664 L 388.7388738873887,223.68814944722197 L 383.988398839884,228.04190506965074 L 381.1381138113811,233.95854732577192 L 378.08780878087805,230.83277405838714 L 374.53745374537453,230.58159584940086 L 370.7370737073707,231.1676783370355 L 366.88668866886684,230.44205239996404 L 364.0864086408641,228.2372658988623 L 357.8357835783578,220.8972804584856 L 355.73557355735574,217.65987243155138 L 351.68516851685166,213.75265584732043 L 345.63456345634563,212.24558659340275 L 339.2339233923392,212.9153951506995 L 334.2334233423342,215.51090331022434 L 332.033203320332,217.631963741664 L 324.4324432443244,224.0509624157577 L 315.7315731573157,225.94875332809846 L 306.4806480648065,226.5348358157331 L 301.48014801480144,227.84654424043921 z" /><path fill-rule="evenodd" fill="#D2EBD9" stroke="#A6A6A6" stroke-width="0.25" opacity="1" d="M 259.7759775977598,230.7211392988377 L 255.27552755275525,226.758105334832 L 252.9252925292529,222.79507137082632 L 256.17561756175616,218.52504181805963 L 256.5256525652565,217.35287684279035 L 256.57565756575656,216.1528031776337 L 255.7255725572557,213.78056453720777 L 254.77547754775478,212.41303873272693 L 254.72547254725472,212.02231707430386 L 254.87548754875485,211.65950410576812 L 255.7255725572557,210.2919783012873 L 256.1256125612561,208.9802698765812 L 256.9256925692569,207.277839793452 L 257.27572757275726,207.0266615844657 L 259.0759075907591,206.5801225462679 L 259.97599759976,206.07776612829534 L 260.3760376037604,205.4079575709986 L 260.92609260926093,203.3985318991084 L 261.976197619762,201.47283229688028 L 262.17621762176213,200.49602815082255 L 262.3262326232623,198.87732413735543 L 261.52615261526154,193.99330340706675 L 259.8759875987599,190.7838040700199 L 258.975897589759,189.50000433520114 L 258.17581758175817,188.9976479172286 L 257.67576757675766,189.05346529700333 L 257.17571757175716,187.54639604308568 L 258.27582758275827,180.84831047011832 L 260.32603260326033,179.0900630072144 L 262.8262826282628,179.2575151465386 L 264.3264326432643,178.53188920946712 L 266.47664766476646,175.4619333218571 L 267.1267126712671,174.03859013760152 L 267.3267326732673,172.5873382634586 L 267.3267326732673,170.5779125915684 L 266.97669766976696,166.1683395893649 L 265.8265826582658,162.54020990400758 L 265.4265426542654,156.98638061642217 L 265.6265626562656,156.2607546793507 L 266.67666766676666,155.1723157737435 L 267.27672767276727,150.56738194232847 L 267.8267826782678,148.47423020077616 L 269.026902690269,147.72069557381732 L 272.5272527252725,135.7478676121382 L 273.1273127312731,131.5057467492589 L 272.3272327232723,129.41259500770659 L 273.5273527352735,126.00773484144818 L 279.32793279327933,124.08203523922008 L 280.42804280428044,122.63078336507715 L 281.2281228122812,122.04470087744251 L 285.67856785678566,120.28645341453858 L 288.6788678867887,118.08166691343683 L 296.8296829682968,109.09506876970563 L 297.5797579757976,112.69528976517559 L 299.3799379937994,113.81163736067015 L 300.3300330033003,113.95118081010696 L 301.88018801880185,113.89536343033224 L 302.78027802780275,113.67209391123333 L 305.9305930593059,110.74168147306011 L 306.5806580658066,109.45788173824137 L 308.3808380838084,107.5042734461259 L 313.08130813081306,105.27157825513677 L 317.73177317731773,107.36472999668908 L 319.48194819481944,107.67172558545008 L 321.38213821382135,109.15088614948037 L 324.78247824782477,109.29042959891719 L 325.9325932593259,109.79278601688974 L 326.8826882688269,110.35095981463702 L 327.2827282728273,110.79749885283483 L 327.73277327732774,112.47202024607668 L 329.9329932993299,114.70471543706579 L 330.38303830383035,114.98380233593943 L 333.4333433343334,115.96060648199717 L 331.1331133113311,120.6492663830743 L 331.1331133113311,121.45861838980787 L 331.38313831383135,122.54705729541506 L 332.78327832783276,124.27739606843163 L 335.0835083508351,129.41259500770659 L 332.78327832783276,132.510459585204 L 331.08310831083105,133.738441940248 L 330.28302830283025,134.79897215596782 L 329.98299829982994,135.71995892225084 L 330.5330533053305,137.3107542458306 L 330.58305830583055,138.34337577166306 L 330.2330233023302,142.3343184255561 L 328.9328932893289,145.32054824350402 L 329.18291829182914,147.07879570640796 L 331.58315831583155,154.97695494453197 L 331.3331333133313,158.85626283887555 L 330.78307830783075,162.6797533534444 L 330.3330333033303,164.3821834365736 L 329.78297829782974,165.61016579161762 L 325.6325632563256,169.65692582528538 L 324.9324932493249,170.10346486348323 L 321.9321932193219,170.5779125915684 L 320.9320932093209,171.08026900954096 L 320.58205820582054,171.61053411740087 L 320.58205820582054,175.5456593915192 L 319.13191319131914,182.1042015150497 L 318.63186318631864,183.1926404206569 L 317.73177317731773,183.55545338919262 L 315.6315631563156,184.811344434124 L 314.58145814581457,185.03461395322293 L 313.9313931393139,185.45324430153337 L 313.08130813081306,186.3742310678164 L 311.9311931193119,188.04875246105823 L 309.78097809780974,190.28144765204735 L 307.6807680768077,191.28616048799245 L 307.2807280728073,195.6399161104212 L 305.08050805080507,200.85884111935826 L 304.2304230423042,201.83564526541602 L 303.48034803480346,202.1705495440644 L 301.78017801780175,202.53336251260012 L 299.82998299829984,203.45434927888311 L 298.0798079807981,204.96141853280076 L 297.5297529752975,205.82658791930905 L 297.3797379737974,206.60803123615526 L 298.12981298129813,208.05928311029817 L 298.32983298329833,209.23144808556745 L 298.6798679867987,210.06870878218837 L 299.3799379937994,210.85015209903457 L 300.8300830083008,211.79904755520494 L 301.28012801280124,212.5246734922764 L 301.58015801580154,213.78056453720777 L 301.4301430143014,217.77150719110082 L 300.9300930093009,219.44602858434266 L 300.78007800780074,220.78564569893612 L 300.78007800780074,222.5159844719527 L 301.48014801480144,227.84654424043921 L 297.2797279727973,228.9349831460464 L 290.87908790879084,233.20501269881308 L 288.42884288428843,233.76318649656037 L 285.97859785978596,233.20501269881308 L 281.6281628162816,230.83277405838714 L 277.977797779778,230.44205239996404 L 274.67746774677465,229.6327003932305 L 264.97649764976495,231.0281348875987 L 262.37623762376234,231.08395226737343 L 259.7759775977598,230.7211392988377 z" /><path fill-rule="evenodd" fill="#D2EBD9" stroke="#A6A6A6" stroke-width="0.25" opacity="1" d="M 21.75217521752175,97.62459722599907 L 23.75237523752375,96.87106259904023 L 29.05290529052905,95.44771941478467 L 30.15301530153015,94.80581954737531 L 30.85308530853085,94.21973705974067 L 32.75327532753275,90.61951606427071 L 36.303630363036305,86.6006647204903 L 37.95379537953795,86.79602554970185 L 40.1040104010401,88.47054694294368 L 40.6040604060406,88.52636432271842 L 41.054105410541055,88.27518611373215 L 41.7041704170417,86.65648210026504 L 41.75417541754175,85.87503878341884 L 42.3042304230423,84.50751297893801 L 42.75427542754275,81.63291792053953 L 44.05440544054405,79.06531845090204 L 44.25442544254425,77.80942740597067 L 44.504450445044505,77.22334491833602 L 47.35473547354735,75.93954518351728 L 58.1058105810581,74.85110627791009 L 58.655865586558654,73.70684999252816 L 59.05590559055905,72.22768942849788 L 59.705970597059704,71.2787939723275 L 60.55605560556055,69.54845519931094 L 60.906090609060904,68.12511201505538 L 61.306130613061306,67.45530345775865 L 63.556355635563555,67.2599426285471 L 68.55685568556855,71.80905908018741 L 75.3075307530753,63.017821765667776 L 77.4077407740774,66.19941241282727 L 77.75777577757775,67.53902952742074 L 79.15791579157916,70.49735065548131 L 82.35823582358235,71.92069383973687 L 89.20892089208921,70.60898541503077 L 89.4089408940894,73.65103261275344 L 91.05910591059106,76.66517112058874 L 92.35923592359235,78.4792359632674 L 92.5092509250925,79.67930962842405 L 92.2092209220922,80.51657032504497 L 90.5090509050905,82.52599599693517 L 89.30893089308931,85.93085616319357 L 88.008800880088,89.72643798787507 L 87.7087708770877,91.484685450779 L 86.45864586458646,94.35928050917748 L 86.80868086808681,95.8105323833204 L 87.4087408740874,96.92687997881497 L 88.25882588258825,97.9036841248727 L 89.15891589158916,98.46185792261998 L 92.25922592259225,99.80147503721345 L 94.1094109410941,101.42017905068056 L 95.4095409540954,103.26215258324657 L 86.85868586858686,115.45825006402463 L 82.9082908290829,122.37960515609088 L 81.2081208120812,124.80766117629153 L 80.7080708070807,127.45898671559111 L 79.70797079707971,128.15670396277523 L 78.65786578657865,129.30096024815714 L 76.85768576857686,130.75221212230005 L 75.5075507550755,133.54308111103646 L 75.05750575057505,135.6083241627014 L 72.35723572357236,143.89720505924848 L 71.6071607160716,145.01355265474302 L 70.8070807080708,145.1251874142925 L 69.6069606960696,144.6507396862073 L 69.05690569056905,144.67864837609466 L 66.75667566756675,146.2694436996744 L 65.95659565956595,146.66016535809752 L 65.25652565256526,146.79970880753433 L 64.1064106410641,147.46951736483106 L 64.1064106410641,148.36259544122672 L 62.75627562756275,149.19985613784763 L 62.306230623062305,150.76274277154 L 60.15601560156015,152.9396205827544 L 58.755875587558755,153.72106389960058 L 57.95579557955795,154.27923769734787 L 56.505650565056506,154.9490462546446 L 53.805380538053804,155.5630374321666 L 49.7049704970497,153.88851603892476 L 47.75477547754775,152.60471630410603 L 46.1046104610461,150.26038635356744 L 45.15451545154515,147.69278688392995 L 42.6042604260426,147.16252177607007 L 40.6040604060406,144.5670136165452 L 40.904090409040904,142.75294877386656 L 39.1039103910391,140.715614412089 L 36.95369536953695,139.51554074693234 L 36.153615361536154,137.39448031549267 L 36.5036503650365,135.58041547281402 L 37.65376537653765,133.18026814250072 L 35.15351535153515,130.72430343241268 L 33.853385338533855,127.20780850660483 L 32.9032903290329,123.21686585271179 L 34.8034803480348,116.46296289996972 L 37.403740374037405,110.04396422587601 L 39.753975397539755,106.05302157198297 L 36.003600360036,102.95515699448558 L 32.85328532853285,105.60648253378515 L 27.552755275527552,106.05302157198297 L 24.15241524152415,103.4854221023455 L 23.002300230023,98.6014013720568 L 21.75217521752175,97.62459722599907 z" /><path fill-rule="evenodd" fill="#D2EBD9" stroke="#A6A6A6" stroke-width="0.25" opacity="1" d="M 21.75217521752175,97.62459722599907 L 19.55195519551955,95.92216714286987 L 10.6010601060106,93.57783719233129 L 6.8006800680068,90.98232903280645 L 3.6003600360036003,86.26576044184193 L 1.25012501250125,80.76774853403124 L 0.0,75.93954518351728 L 1.85018501850185,74.57201937903645 L 11.2011201120112,69.60427257908566 L 14.5014501450145,67.06458179933554 L 16.5016501650165,63.26899997465405 L 17.2017201720172,58.971061732 L 17.2017201720172,49.844920138831995 L 18.101810181018102,41.58394793217227 L 20.402040204020402,44.73762988944439 L 23.3023302330233,47.193594599532425 L 26.302630263026302,47.52849887818079 L 28.95289528952895,44.29109085124657 L 29.302930293029302,42.253756489469005 L 29.05290529052905,38.90471370298533 L 30.1030103010301,37.20228361985613 L 31.653165316531652,36.281296853573124 L 33.4033403340334,36.11384471424894 L 35.103510351035105,36.58829244233412 L 36.5036503650365,37.62091396816659 L 39.703970397039704,37.78836610749077 L 43.404340434043405,36.11384471424894 L 46.854685468546855,33.518336554724094 L 49.204920492049204,30.89491970531188 L 51.25512551255125,26.70861622220729 L 52.45524552455245,23.331664745836253 L 54.55545554555455,20.875700035748228 L 59.25592559255925,19.563991611042123 L 67.65676567656766,19.06163519306957 L 71.85718571857186,19.48026554138003 L 76.05760576057605,20.596613136874588 L 77.8077807780778,21.768778112143874 L 79.30793079307931,23.38748212561098 L 80.9080908090809,24.643373170542358 L 82.8082808280828,24.81082530986654 L 84.85848584858485,24.72709924020445 L 91.05910591059106,26.373711943558924 L 95.1095109510951,23.554934264935167 L 95.05950595059505,27.155155260405113 L 94.55945594559455,29.778572109817322 L 92.55925592559255,30.001841628916235 L 89.45894589458945,29.276215691844772 L 88.85888588858886,29.443667831168955 L 88.70887088708871,29.834389489592052 L 88.85888588858886,31.201915294072883 L 87.7087708770877,34.74631890976811 L 86.60866086608661,35.611488296276384 L 83.55835583558355,37.286009689518224 L 82.7082708270827,37.5371878985045 L 82.10821082108211,37.45346182884241 L 81.70817081708171,37.20228361985613 L 80.95809580958095,37.25810099963086 L 80.55805580558055,37.62091396816659 L 79.95799579957995,39.10007453219688 L 85.1085108510851,42.700295527666825 L 90.85908590859086,50.62636345567819 L 91.45914591459146,54.254493141035496 L 90.45904590459045,56.347644882587794 L 88.95889588958896,57.85471413650545 L 88.15881588158815,58.24543579492854 L 86.40864086408641,58.580340073576906 L 86.30863086308631,62.82246093645623 L 85.8085808580858,66.11568634316518 L 86.30863086308631,68.06929463528066 L 87.05870587058705,69.32518568021203 L 89.20892089208921,70.60898541503077 L 82.35823582358235,71.92069383973687 L 79.15791579157916,70.49735065548131 L 77.75777577757775,67.53902952742074 L 77.4077407740774,66.19941241282727 L 75.3075307530753,63.017821765667776 L 68.55685568556855,71.80905908018741 L 63.556355635563555,67.2599426285471 L 61.306130613061306,67.45530345775865 L 60.906090609060904,68.12511201505538 L 60.55605560556055,69.54845519931094 L 59.705970597059704,71.2787939723275 L 59.05590559055905,72.22768942849788 L 58.655865586558654,73.70684999252816 L 58.1058105810581,74.85110627791009 L 47.35473547354735,75.93954518351728 L 44.504450445044505,77.22334491833602 L 44.25442544254425,77.80942740597067 L 44.05440544054405,79.06531845090204 L 42.75427542754275,81.63291792053953 L 42.3042304230423,84.50751297893801 L 41.75417541754175,85.87503878341884 L 41.7041704170417,86.65648210026504 L 41.054105410541055,88.27518611373215 L 40.6040604060406,88.52636432271842 L 40.1040104010401,88.47054694294368 L 37.95379537953795,86.79602554970185 L 36.303630363036305,86.6006647204903 L 32.75327532753275,90.61951606427071 L 30.85308530853085,94.21973705974067 L 30.15301530153015,94.80581954737531 L 29.05290529052905,95.44771941478467 L 23.75237523752375,96.87106259904023 L 21.75217521752175,97.62459722599907 z" /><path fill-rule="evenodd" fill="#D2EBD9" stroke="#A6A6A6" stroke-width="0.25" opacity="1" d="M 152.5152515251525,0.8093520067335542 L 152.6152615261526,3.237408026934217 L 152.36523652365236,3.8234905145688596 L 151.46514651465145,4.772385970739234 L 150.36503650365034,6.44690736398107 L 149.71497149714972,9.935493599901562 L 151.26512651265125,13.982253633569334 L 152.56525652565256,14.903240399852344 L 153.6153615361536,17.331296420053008 L 154.46544654465447,18.05692235712447 L 155.76557655765575,20.54079575709986 L 156.46564656465645,23.778203784034076 L 156.6156615661566,25.982990285135827 L 156.5156515651565,27.6296029884903 L 155.76557655765575,29.862298179479417 L 154.11541154115412,32.29035419968008 L 153.81538153815382,32.960162756976814 L 153.91539153915392,35.08122318841647 L 156.4156415641564,40.30014819735353 L 154.51545154515452,47.695951017504974 L 153.81538153815382,49.844920138831995 L 150.8150815081508,55.76156239495315 L 141.46414641464145,55.81737977472788 L 141.86418641864185,58.050074965716995 L 142.2142214221422,58.80360959267582 L 142.4142414241424,59.752505048846196 L 141.56415641564155,61.48284382186276 L 138.06380638063806,62.65500879713205 L 135.21352135213522,70.99970707345386 L 133.013301330133,74.2929324801628 L 129.56295629562956,73.87430213185235 L 125.9125912591259,75.74418435430573 L 124.31243124312431,76.97216670934975 L 120.4120412041204,79.14904452056413 L 120.26202620262026,80.4886616351576 L 123.3123312331233,84.56333035871273 L 131.7131713171317,90.42415523505916 L 131.4131413141314,91.81958972942736 L 130.66306630663067,92.32194614739991 L 125.96259625962595,93.63365457210602 L 124.96249624962496,93.29875029345764 L 124.36243624362436,93.52201981255656 L 123.8123812381238,94.1918283698533 L 122.76227622762275,98.32231447318316 L 121.81218121812181,100.19219669563654 L 119.3119311931193,102.06207891808992 L 118.9118911891189,97.93159281476007 L 118.4118411841184,96.25707142151823 L 117.36173617361736,94.1081023001912 L 115.26152615261526,87.68910362609749 L 115.31153115311531,85.03777808679793 L 115.8115811581158,83.33534800366873 L 115.56155615561555,82.27481778794889 L 114.16141614161415,81.66082661042688 L 109.6109610961096,82.33063516772363 L 108.36083608360836,82.665539446372 L 105.86058605860586,84.08888263062755 L 103.9103910391039,84.8982346373611 L 99.7099709970997,85.70758664409466 L 89.30893089308931,85.93085616319357 L 90.5090509050905,82.52599599693517 L 92.2092209220922,80.51657032504497 L 92.5092509250925,79.67930962842405 L 92.35923592359235,78.4792359632674 L 91.05910591059106,76.66517112058874 L 89.4089408940894,73.65103261275344 L 89.20892089208921,70.60898541503077 L 87.05870587058705,69.32518568021203 L 86.30863086308631,68.06929463528066 L 85.8085808580858,66.11568634316518 L 86.30863086308631,62.82246093645623 L 86.40864086408641,58.580340073576906 L 88.15881588158815,58.24543579492854 L 88.95889588958896,57.85471413650545 L 90.45904590459045,56.347644882587794 L 91.45914591459146,54.254493141035496 L 90.85908590859086,50.62636345567819 L 85.1085108510851,42.700295527666825 L 79.95799579957995,39.10007453219688 L 80.55805580558055,37.62091396816659 L 80.95809580958095,37.25810099963086 L 81.70817081708171,37.20228361985613 L 82.10821082108211,37.45346182884241 L 82.7082708270827,37.5371878985045 L 83.55835583558355,37.286009689518224 L 86.60866086608661,35.611488296276384 L 87.7087708770877,34.74631890976811 L 88.85888588858886,31.201915294072883 L 88.70887088708871,29.834389489592052 L 88.85888588858886,29.443667831168955 L 89.45894589458945,29.276215691844772 L 92.55925592559255,30.001841628916235 L 94.55945594559455,29.778572109817322 L 95.05950595059505,27.155155260405113 L 95.1095109510951,23.554934264935167 L 100.81008100810081,19.536082921154758 L 106.1106110611061,16.828940002080454 L 115.41154115411541,17.91737890768765 L 121.56215621562156,16.912666071742546 L 127.41274127412741,14.652062190866069 L 131.2131213121312,11.637923683030763 L 131.5131513151315,8.735419934744913 L 129.1129112911291,4.130486103329863 L 130.96309630963097,2.679234229186938 L 133.7133713371337,2.735051608961666 L 138.9138913891389,4.8840207302886895 L 142.16421642164215,4.74447728085187 L 150.16501650165014,1.2000736651566495 L 152.5152515251525,0.8093520067335542 z" /><path fill-rule="evenodd" fill="#D2EBD9" stroke="#A6A6A6" stroke-width="0.25" opacity="1" d="M 152.5152515251525,0.8093520067335542 L 153.36533653365336,0.6698085572967345 L 159.26592659265927,0.7256259370714624 L 161.3161316131613,0.0 L 161.86618661866186,0.0 L 162.56625662566256,0.8093520067335542 L 163.016301630163,1.9256996022281119 L 163.41634163416342,4.381664312316139 L 163.71637163716372,5.246833698824421 L 164.46644664466444,5.888733566233792 L 165.06650665066505,5.8608248763464275 L 166.26662666266625,4.772385970739234 L 166.8166816681668,4.493299071865594 L 168.21682168216822,4.2979382426540464 L 171.2171217121712,3.3490427864836727 L 172.71727172717272,3.125773267384761 L 175.96759675967596,3.4327688561457648 L 185.36853685368536,5.944550946008519 L 202.32023202320232,7.591163649362992 L 207.97079707970795,9.2098676628301 L 211.72117211721172,12.614727829088501 L 215.47154715471547,22.66185618853952 L 220.47204720472047,25.899264215473735 L 223.17231723172316,26.12253373457265 L 228.67286728672866,25.9271729053611 L 231.37313731373135,26.820250981756747 L 233.8233823382338,28.718041894097492 L 235.8235823582358,30.7274675659877 L 237.97379737973796,32.429897649116896 L 240.97409740974095,33.434610485062 L 246.024602460246,32.62525847832845 L 259.7759775977598,22.717673568314247 L 276.5276527652765,13.982253633569334 L 295.77957795779577,11.805375822354947 L 329.6329632963296,13.786892804357786 L 329.9329932993299,14.372975291992429 L 330.88308830883085,14.679970880753432 L 331.6331633163316,15.238144678500712 L 330.18301830183015,21.880412871693327 L 326.5826582658266,20.20589147845149 L 321.1321132113211,19.787261130141033 L 318.981898189819,20.233800168338856 L 313.48134813481346,20.76406527619877 L 310.98109810981094,20.17798278856413 L 310.1310131013101,20.596613136874588 L 309.33093309330934,21.489691213270234 L 308.3808380838084,23.694477714371985 L 307.73077307730773,27.18306395029248 L 307.43074307430743,28.04823333680076 L 305.88058805880587,31.062371844636065 L 305.5305530553055,32.1229020603559 L 304.4304430443044,34.104419042358735 L 303.030303030303,34.96958842886701 L 302.28022802280225,35.91848388503739 L 301.6301630163016,36.39293161312258 L 300.78007800780074,36.58829244233412 L 300.1300130013001,36.95110541086986 L 299.1799179917992,38.06745300636442 L 297.92979297929793,40.02106129847989 L 296.17961796179617,41.38858710296072 L 291.7291729172917,42.11421304003218 L 290.32903290329034,42.839838977103646 L 289.62896289628964,45.463255826515855 L 290.52905290529054,46.85869032088406 L 290.8290829082908,48.142490055702794 L 290.12901290129014,51.24035463320019 L 290.12901290129014,52.99860209610412 L 289.82898289828984,53.89168017249977 L 288.92889288928893,54.924301698332236 L 288.5788578857886,56.375553572475155 L 288.3788378837884,58.16170972526645 L 287.7287728772877,59.194331251098916 L 286.37863786378637,60.813035264566025 L 282.87828782878285,62.65500879713205 L 279.62796279627963,61.20375692298912 L 278.8278827882788,61.20375692298912 L 277.977797779778,61.42702644208803 L 275.8275827582758,62.320104518483674 L 272.027202720272,64.41325626003598 L 269.52695269526953,66.33895586226409 L 266.87668766876686,69.04609878133839 L 265.97659765976596,71.69742432063796 L 263.77637763776374,71.97651121951161 L 260.72607260726073,72.86958929590725 L 258.6258625862586,72.86958929590725 L 257.27572757275726,73.3719457138798 L 256.4256425642564,73.93011951162708 L 255.2255225522552,75.26973662622055 L 253.37533753375337,76.44190160148983 L 248.57485748574857,80.37702687560815 L 239.17391739173917,85.70758664409466 L 237.07370737073705,83.586526212655 L 235.67356735673567,81.80037005986371 L 235.62356235623562,79.20486190033886 L 238.4238423842384,75.54882352509418 L 236.27362736273625,74.09757165095127 L 234.52345234523452,73.17658488466824 L 232.1232123212321,71.50206349142641 L 230.97309730973097,70.52525934536868 L 228.87288728872886,68.29256415437956 L 228.4228422842284,67.2599426285471 L 228.1228122812281,63.938808531950784 L 227.77277727772776,62.320104518483674 L 226.3226322632263,58.21752710504118 L 224.022402240224,55.845288464615244 L 224.3224322432243,50.151915727593 L 221.97219721972195,46.32842521302414 L 219.4219421942194,43.67709967372456 L 218.17181718171815,41.41649579284809 L 218.07180718071805,39.71406570971889 L 217.021702170217,37.872092177152865 L 214.7214721472147,36.33711423334785 L 209.4209420942094,28.27150285589967 L 209.27092709270926,27.6296029884903 L 209.6209620962096,25.899264215473735 L 209.6209620962096,24.699190550317088 L 209.07090709070906,24.057290682907716 L 208.1208120812081,23.66656902448462 L 205.47054705470546,23.108395226737343 L 203.9203920392039,22.5223127391027 L 202.02020202020202,21.210604314396594 L 201.32013201320132,20.20589147845149 L 200.5200520052005,19.396539471717936 L 199.3199319931993,18.83836567397066 L 193.96939693969395,19.870987199803125 L 193.019301930193,20.54079575709986 L 191.36913691369136,22.94094308741316 L 191.1191119111911,24.894551379528636 L 189.7189718971897,26.51325539299574 L 184.2184218421842,22.80139963797634 L 183.11831183118312,21.32223907394605 L 183.8183818381838,20.791973966086136 L 184.16841684168415,20.76406527619877 L 184.018401840184,20.150074098676765 L 183.36833683368337,20.038439339127308 L 182.56825682568257,20.20589147845149 L 181.8181818181818,20.68033920653668 L 181.46814681468146,21.405965143608142 L 181.06810681068106,23.80611247392144 L 180.56805680568056,24.950368759303363 L 179.3179317931793,25.9271729053611 L 178.66786678667864,26.010898975023192 L 178.31783178317832,25.64808600648746 L 178.16781678167817,22.88512570763843 L 177.76777677767777,21.489691213270234 L 177.16771677167716,20.17798278856413 L 176.66766676667666,19.675626370591576 L 176.1176117611761,19.591900300929485 L 175.4175417541754,20.20589147845149 L 174.96749674967495,21.992047631242784 L 174.16741674167415,19.870987199803125 L 169.46694669466945,17.91737890768765 L 168.06680668066807,17.889470217800284 L 167.016701670167,18.363917945885472 L 165.5165516551655,19.98262195935258 L 164.5164516451645,20.819882655973498 L 162.56625662566256,21.685052042481782 L 161.66616661666166,21.629234662707052 L 161.2161216121612,21.294330384058686 L 161.3161316131613,19.25699602228112 L 160.6160616061606,17.163844280728824 L 158.66586658665867,18.084831047011832 L 158.06580658065806,18.168557116673924 L 156.26562656265625,18.05692235712447 L 153.6153615361536,17.331296420053008 L 152.56525652565256,14.903240399852344 L 151.26512651265125,13.982253633569334 L 149.71497149714972,9.935493599901562 L 150.36503650365034,6.44690736398107 L 151.46514651465145,4.772385970739234 L 152.36523652365236,3.8234905145688596 L 152.6152615261526,3.237408026934217 L 152.5152515251525,0.8093520067335542 z" /><path fill-rule="evenodd" fill="#D2EBD9" stroke="#A6A6A6" stroke-width="0.25" opacity="1" d="M 339.8339833983398,14.707879570640797 L 337.983798379838,19.563991611042123 L 338.0838083808381,20.90360872563559 L 338.7338733873387,22.996760467187887 L 339.48394839483944,24.2247428222319 L 340.5340534053405,25.08991220874018 L 341.4341434143414,25.56435993682537 L 347.9347934793479,27.015611810968295 L 349.8349834983498,28.215685476124943 L 351.18511851185116,27.964507267138668 L 352.5352535253525,31.00655446486134 L 359.5359535953595,31.341458743509705 L 362.1362136213621,32.401988959229534 L 363.6863686368637,34.96958842886701 L 365.33653365336534,41.02577413442499 L 362.68626862686267,41.249043653523906 L 360.98609860986096,40.21642212769144 L 360.28602860286026,40.27223950746617 L 359.035903590359,40.85832199510081 L 357.88578857885784,41.89094352093328 L 356.83568356835684,43.50964753440038 L 355.33553355335533,44.59808644000758 L 354.2354235423542,45.12835154786749 L 352.9352935293529,45.32371237707904 L 350.8350835083508,47.277320669194516 L 349.48494849484945,54.868484318557506 L 347.6847684768477,56.68254916123616 L 346.984698469847,57.18490557920871 L 341.38413841384136,58.88733566233791 L 336.53365336533653,69.6600899588604 L 336.23362336233623,74.15338903072599 L 338.1838183818382,79.56767486887459 L 338.4338433843384,80.62820508459443 L 338.6338633863386,83.30743931378136 L 338.4338433843384,85.9866735429683 L 336.983698369837,87.9960992148585 L 336.93369336933694,90.81487689348226 L 336.33363336333633,92.4893982867241 L 333.6333633363336,94.86163692715003 L 332.18321832183216,98.46185792261998 L 330.78307830783075,103.98777852031805 L 329.58295829582954,106.69492143939235 L 327.73277327732774,112.47202024607668 L 327.2827282728273,110.79749885283483 L 326.8826882688269,110.35095981463702 L 325.9325932593259,109.79278601688974 L 324.78247824782477,109.29042959891719 L 321.38213821382135,109.15088614948037 L 319.48194819481944,107.67172558545008 L 317.73177317731773,107.36472999668908 L 313.08130813081306,105.27157825513677 L 308.3808380838084,107.5042734461259 L 306.5806580658066,109.45788173824137 L 305.9305930593059,110.74168147306011 L 302.78027802780275,113.67209391123333 L 301.88018801880185,113.89536343033224 L 300.3300330033003,113.95118081010696 L 299.3799379937994,113.81163736067015 L 297.5797579757976,112.69528976517559 L 296.8296829682968,109.09506876970563 L 295.77957795779577,103.62496555178231 L 294.37943794379436,100.10847062597445 L 294.1294129412941,98.23858840352106 L 294.4294429442944,97.09433211813915 L 294.4294429442944,95.5035367945594 L 294.6294629462946,94.05228492041648 L 294.2294229422942,93.24293291368292 L 289.97899789979,90.17297702607289 L 279.0779077907791,85.09359546657265 L 280.12801280128014,83.27953062389399 L 284.3284328432843,77.61406657675911 L 284.5284528452845,77.13961884867393 L 284.27842784278425,76.74889719025083 L 283.4283428342834,76.44190160148983 L 277.9277927792779,76.05117994306674 L 277.027702770277,76.30235815205302 L 274.97749774977495,77.83733609585802 L 274.1274127412741,77.6977926464212 L 273.07730773077304,77.0838014688992 L 271.12711271127114,75.24182793633318 L 270.0770077007701,74.46038461948699 L 267.6267626762676,73.45567178354189 L 265.97659765976596,71.69742432063796 L 266.87668766876686,69.04609878133839 L 269.52695269526953,66.33895586226409 L 272.027202720272,64.41325626003598 L 275.8275827582758,62.320104518483674 L 277.977797779778,61.42702644208803 L 278.8278827882788,61.20375692298912 L 279.62796279627963,61.20375692298912 L 282.87828782878285,62.65500879713205 L 286.37863786378637,60.813035264566025 L 287.7287728772877,59.194331251098916 L 288.3788378837884,58.16170972526645 L 288.5788578857886,56.375553572475155 L 288.92889288928893,54.924301698332236 L 289.82898289828984,53.89168017249977 L 290.12901290129014,52.99860209610412 L 290.12901290129014,51.24035463320019 L 290.8290829082908,48.142490055702794 L 290.52905290529054,46.85869032088406 L 289.62896289628964,45.463255826515855 L 290.32903290329034,42.839838977103646 L 291.7291729172917,42.11421304003218 L 296.17961796179617,41.38858710296072 L 297.92979297929793,40.02106129847989 L 299.1799179917992,38.06745300636442 L 300.1300130013001,36.95110541086986 L 300.78007800780074,36.58829244233412 L 301.6301630163016,36.39293161312258 L 302.28022802280225,35.91848388503739 L 303.030303030303,34.96958842886701 L 304.4304430443044,34.104419042358735 L 305.5305530553055,32.1229020603559 L 305.88058805880587,31.062371844636065 L 307.43074307430743,28.04823333680076 L 307.73077307730773,27.18306395029248 L 308.3808380838084,23.694477714371985 L 309.33093309330934,21.489691213270234 L 310.1310131013101,20.596613136874588 L 310.98109810981094,20.17798278856413 L 313.48134813481346,20.76406527619877 L 318.981898189819,20.233800168338856 L 321.1321132113211,19.787261130141033 L 326.5826582658266,20.20589147845149 L 330.18301830183015,21.880412871693327 L 331.6331633163316,15.238144678500712 L 330.88308830883085,14.679970880753432 L 329.9329932993299,14.372975291992429 L 329.6329632963296,13.786892804357786 L 339.033903390339,14.345066602105065 L 339.8339833983398,14.707879570640797 z" /><path fill-rule="evenodd" fill="#D2EBD9" stroke="#A6A6A6" stroke-width="0.25" opacity="1" d="M 339.8339833983398,14.707879570640797 L 347.13471347134714,18.084831047011832 L 351.58515851585156,18.112739736899197 L 356.83568356835684,17.470839869489826 L 367.4367436743674,17.69410938858874 L 372.5372537253725,16.494035723432088 L 376.9376937693769,13.81480149424515 L 378.98789878987895,12.977540797624233 L 382.0882088208821,13.089175557173688 L 384.53845384538454,13.758984114470422 L 387.038703870387,14.903240399852344 L 389.3389338933893,16.43821834365736 L 391.2891289128913,18.336009255998107 L 392.989298929893,21.433873833495504 L 394.1894189418942,24.448012341330813 L 395.7395739573957,27.07142919074302 L 398.38983898389836,28.91340272330904 L 400.49004900490047,29.248307001957407 L 406.49064906490645,28.88549403342168 L 408.6408640864086,28.243594166012308 L 410.04100410041,26.12253373457265 L 413.44134413441344,18.643004844759112 L 415.4415441544154,16.912666071742546 L 418.19181918191816,17.108026900954094 L 423.5923592359236,19.005817813294843 L 426.29262926292625,19.1174525728443 L 432.8932893289329,17.13593559084146 L 435.2435243524352,16.968483451517276 L 442.44424442444245,17.889470217800284 L 446.8446844684468,20.010530649239946 L 456.29562956295626,26.234168494122102 L 460.74607460746074,27.07142919074302 L 463.5463546354635,25.536451246938004 L 464.39643964396436,23.108395226737343 L 464.79647964796476,20.40125230766304 L 466.39663966396637,18.112739736899197 L 468.6968696869687,17.805744148138192 L 469.94699469946994,19.731443750366306 L 469.7969796979698,22.466495359327972 L 468.04680468046803,24.699190550317088 L 471.24712471247125,26.234168494122102 L 471.24712471247125,28.718041894097492 L 470.8970897089709,30.89491970531188 L 473.09730973097305,31.536819572721253 L 475.69756975697567,30.44838066711406 L 480.44804480448045,26.373711943558924 L 483.09830983098306,25.08991220874018 L 492.09920992099205,26.457438013221015 L 497.5997599759976,31.95544992103171 L 499.2999299929993,40.21642212769144 L 496.74967496749673,49.844920138831995 L 494.19941994199417,55.17547990731851 L 486.7486748674867,62.65500879713205 L 484.9484948494849,68.09720332516801 L 484.99849984998497,71.13925052289068 L 485.39853985398537,74.23711510038808 L 486.1486148614861,77.11171015878656 L 487.64876487648763,80.15375735650923 L 483.048304830483,80.43284425538288 L 481.69816981698165,80.65611377448178 L 480.34803480348035,81.04683543290489 L 479.14791479147914,81.71664399020162 L 478.44784478447843,82.35854385761098 L 476.997699769977,85.48431712499574 L 475.59755975597557,89.92179881708661 L 475.047504750475,90.56369868449599 L 474.3474347434743,91.03814641258117 L 473.59735973597355,90.89860296314436 L 472.89728972897285,90.25670309573498 L 472.1472147214721,88.33100349350687 L 471.79717971797174,85.79131271375675 L 472.09720972097205,82.665539446372 L 471.8471847184718,77.30707098799812 L 471.69716971697164,76.6930798104761 L 471.34713471347135,76.38608422171511 L 469.1969196919692,76.52562767115192 L 465.3465346534653,75.88372780374256 L 458.4458445844584,73.62312392286607 L 455.39553955395536,70.8880723139044 L 452.04520452045205,64.85979529823379 L 431.8931893189319,57.74307937695599 L 425.1425142514251,59.22223994098628 L 413.1913191319132,52.35670222869475 L 410.991099109911,53.64050196351349 L 405.3405340534053,51.8543458107222 L 404.9404940494049,50.403093936579275 L 402.34023402340233,45.37952975685376 L 401.94019401940193,42.50493469845528 L 402.44024402440243,40.21642212769144 L 402.4902490249025,39.21170929174634 L 401.990199019902,37.90000086704023 L 399.8399839983998,34.27187118168292 L 393.83938393839384,27.797055127814485 L 392.2892289228923,24.643373170542358 L 390.38903890389037,23.94565592335826 L 386.28862886288624,25.536451246938004 L 387.5387538753875,30.44838066711406 L 388.038803880388,31.146097914298156 L 388.2388238823882,32.70898454799054 L 386.4386438643864,36.727835891770944 L 383.03830383038303,37.00692279064459 L 381.58815881588157,37.95581824681496 L 380.5380538053805,38.876805013097965 L 379.6379637963796,40.46760033667771 L 378.78787878787875,40.91413937487554 L 377.3377337733773,41.165317583861814 L 371.5371537153715,40.43969164679035 L 365.33653365336534,41.02577413442499 L 363.6863686368637,34.96958842886701 L 362.1362136213621,32.401988959229534 L 359.5359535953595,31.341458743509705 L 352.5352535253525,31.00655446486134 L 351.18511851185116,27.964507267138668 L 349.8349834983498,28.215685476124943 L 347.9347934793479,27.015611810968295 L 341.4341434143414,25.56435993682537 L 340.5340534053405,25.08991220874018 L 339.48394839483944,24.2247428222319 L 338.7338733873387,22.996760467187887 L 338.0838083808381,20.90360872563559 L 337.983798379838,19.563991611042123 L 339.8339833983398,14.707879570640797 z" /><path fill-rule="evenodd" fill="#D2EBD9" stroke="#A6A6A6" stroke-width="0.25" opacity="1" d="M 446.1446144614461,127.71016492457738 L 445.7445744574457,126.45427387964601 L 444.89448944894485,125.42165235381354 L 443.7443744374437,124.89138724595362 L 439.6939693969397,124.27739606843163 L 434.5434543454345,122.1284269471046 L 425.79257925792575,119.33755795836821 L 424.1424142414241,119.19801450893138 L 420.0920092009201,114.6209893674037 L 416.4416441644164,113.19764618314814 L 415.9415941594159,112.49992893596404 L 402.14021402140213,117.30022359659064 L 396.38963896389635,117.97003215388737 L 397.08970897089705,115.90478910222244 L 395.58955895589554,114.34190246853007 L 399.1399139913991,112.08129858765358 L 401.2401240124012,110.07187291576338 L 405.19051905190514,107.8112690348869 L 405.9405940594059,107.1972778573649 L 406.3406340634063,105.80184336299669 L 407.5407540754075,103.37378734279604 L 408.040804080408,100.0805619360871 L 402.0902090209021,97.03851473836441 L 396.28962896289624,91.37305069122954 L 395.23952395239525,88.52636432271842 L 394.83948394839484,79.9583965272977 L 394.43944394439444,77.92106216552013 L 400.6400640064006,77.16752753856129 L 398.58985898589856,73.62312392286607 L 397.08970897089705,71.72533301052532 L 396.8396839683968,70.55316803525604 L 396.88968896889685,69.77172471840984 L 399.38993899389936,65.66914730496735 L 399.98999899989997,64.97143005778325 L 404.2904290429043,61.84565679039849 L 406.29062906290625,60.84094395445339 L 411.64116411641163,60.813035264566025 L 411.8911891189119,60.58976574546711 L 410.991099109911,53.64050196351349 L 413.1913191319132,52.35670222869475 L 425.1425142514251,59.22223994098628 L 431.8931893189319,57.74307937695599 L 452.04520452045205,64.85979529823379 L 455.39553955395536,70.8880723139044 L 458.4458445844584,73.62312392286607 L 465.3465346534653,75.88372780374256 L 469.1969196919692,76.52562767115192 L 471.34713471347135,76.38608422171511 L 471.69716971697164,76.6930798104761 L 471.8471847184718,77.30707098799812 L 472.09720972097205,82.665539446372 L 471.79717971797174,85.79131271375675 L 472.1472147214721,88.33100349350687 L 472.89728972897285,90.25670309573498 L 473.59735973597355,90.89860296314436 L 474.3474347434743,91.03814641258117 L 475.047504750475,90.56369868449599 L 475.59755975597557,89.92179881708661 L 476.997699769977,85.48431712499574 L 478.44784478447843,82.35854385761098 L 479.14791479147914,81.71664399020162 L 480.34803480348035,81.04683543290489 L 481.69816981698165,80.65611377448178 L 483.048304830483,80.43284425538288 L 487.64876487648763,80.15375735650923 L 489.99899989999,82.77717420592144 L 490.79907990799074,84.11679132051492 L 491.2491249124912,85.56804319465783 L 491.69916991699165,88.74963384181733 L 492.2492249224922,90.25670309573498 L 494.29942994299427,92.74057649571037 L 498.94989498949894,96.73151914960341 L 500.0,99.6061142080019 L 499.3999399939994,101.58763119000474 L 490.2990299029903,125.50537842347563 L 483.09830983098306,129.8033166661297 L 481.29812981298124,129.21723417849503 L 471.99719971997195,127.65434754480266 L 465.4465446544654,128.77069514029722 L 453.9453945394539,127.12408243694274 L 446.1446144614461,127.71016492457738 z" /><path fill-rule="evenodd" fill="#D2EBD9" stroke="#A6A6A6" stroke-width="0.25" opacity="1" d="M 70.8070807080708,175.992198429717 L 74.25742574257426,174.764216074673 L 76.5076507650765,174.150224897151 L 77.15771577157716,173.78741192861526 L 78.6078607860786,172.53152088368387 L 81.65816581658166,171.41517328818932 L 82.8082808280828,171.24772114886514 L 84.10841084108411,171.4988993578514 L 85.7085708570857,172.55942957357124 L 87.4087408740874,173.42459896007952 L 90.95909590959096,173.61995978929107 L 92.5092509250925,173.8990466881647 L 94.7094709470947,175.2107551128708 L 97.55975597559755,176.13174187915382 L 97.2097209720972,171.21981245897777 L 97.5097509750975,167.98240443204355 L 97.75977597759776,167.0893263556479 L 99.95999599959995,163.74028356916423 L 95.85958595859586,159.0516236680871 L 98.20982098209821,159.33071056696073 L 99.2099209920992,159.02371497819973 L 100.61006100610061,158.24227166135353 L 103.16031603160316,155.67467219171604 L 106.56065606560655,151.06973836030102 L 108.7108710871087,146.79970880753433 L 110.31103110311031,145.32054824350402 L 111.96119611961196,144.53910492665784 L 110.76107610761075,141.943596767133 L 110.46104610461046,139.82253633569334 L 110.31103110311031,135.94322844134976 L 109.16091609160915,128.40788217176149 L 109.010901090109,122.1284269471046 L 110.06100610061006,120.31436210442594 L 111.26112611261125,119.70037092690394 L 113.76137613761375,118.83520154039566 L 114.36143614361436,118.16539298309893 L 114.71147114711471,116.85368455839281 L 114.91149114911491,115.17916316515098 L 113.8113811381138,110.65795540339802 L 117.61176117611761,108.34153414274681 L 119.1119111911191,106.4995606101808 L 119.3119311931193,102.06207891808992 L 121.81218121812181,100.19219669563654 L 122.76227622762275,98.32231447318316 L 123.8123812381238,94.1918283698533 L 124.36243624362436,93.52201981255656 L 124.96249624962496,93.29875029345764 L 125.96259625962595,93.63365457210602 L 130.66306630663067,92.32194614739991 L 131.4131413141314,91.81958972942736 L 131.7131713171317,90.42415523505916 L 123.3123312331233,84.56333035871273 L 120.26202620262026,80.4886616351576 L 120.4120412041204,79.14904452056413 L 124.31243124312431,76.97216670934975 L 125.9125912591259,75.74418435430573 L 129.56295629562956,73.87430213185235 L 133.013301330133,74.2929324801628 L 134.46344634463446,78.81414024191577 L 135.01350135013502,82.69344813625935 L 135.76357635763574,84.73078249803692 L 136.5136513651365,85.9866735429683 L 138.06380638063806,86.9913863789134 L 139.76397639763977,87.66119493621014 L 140.66406640664064,88.19146004407006 L 141.9141914191419,89.47525977888878 L 142.9142914291429,91.14978117213063 L 144.16441644164416,94.69418478782585 L 145.8145814581458,94.33137181929011 L 145.8145814581458,104.51804362817795 L 146.1146114611461,106.36001716074398 L 146.06460646064605,108.09035593376053 L 145.8145814581458,108.48107759218364 L 144.21442144214421,109.62533387756555 L 143.014301430143,111.02076837193376 L 150.9150915091509,117.942123464 L 149.81498149814982,121.3469836302584 L 150.01500150015002,124.5285742774179 L 150.7150715071507,127.62643885491529 L 158.51585158515852,129.8033166661297 L 160.8160816081608,131.9522857874567 L 161.4161416141614,134.07334621889638 L 161.76617661766176,136.64094568853386 L 161.4161416141614,138.1480149424515 L 157.86578657865786,138.65037136042406 L 157.4157415741574,139.0131843289598 L 156.6156615661566,139.98998847501753 L 156.36563656365635,140.8551578615258 L 152.86528652865286,146.1857176300123 L 146.76467646764675,144.20420064800948 L 142.76427642764276,140.9388839311879 L 140.9140914091409,143.75766160981166 L 138.9138913891389,145.68336121203976 L 136.96369636963695,149.95339076480644 L 136.06360636063604,151.4604600187241 L 134.81348134813481,152.9954379625291 L 134.06340634063406,154.53041590633413 L 133.66336633663366,155.89794171081496 L 133.66336633663366,157.01428930630954 L 134.16341634163416,159.0516236680871 L 134.06340634063406,162.3727577646834 L 133.36333633363336,166.4753351781259 L 130.76307630763077,170.5779125915684 L 125.16251625162515,173.84322930839 L 123.96239623962396,175.09912035332135 L 123.76237623762376,176.3829200881401 L 122.7122712271227,179.0900630072144 L 122.26222622262226,181.0994886791046 L 119.011901190119,181.3227581982035 L 118.011801180118,180.76458440045624 L 115.66156615661565,177.27599816453574 L 115.16151615161516,177.10854602521155 L 114.1114111411141,177.3876329240852 L 112.56125612561256,178.78306741845338 L 112.011201120112,179.73196287462378 L 111.66116611661165,180.84831047011832 L 112.86128612861286,182.2716536543739 L 113.7113711371137,185.8160572700691 L 113.76137613761375,188.2999306700445 L 113.26132613261325,190.5326258610336 L 113.56135613561355,191.45361262731663 L 114.3114311431143,192.76532105202273 L 119.46194619461946,199.5192240047648 L 120.16201620162016,200.24484994183626 L 122.8122812281228,201.9193713350781 L 122.9122912291229,202.42172775305065 L 122.46224622462246,202.78454072158638 L 118.8118811881188,203.48225796877048 L 116.86168616861686,204.26370128561666 L 115.9115911591159,205.85449660919642 L 115.01150115011501,211.49205196644394 L 113.2113211321132,213.9201079866446 L 109.16091609160915,216.26443793718317 L 107.86078607860786,216.73888566526836 L 105.81058105810581,216.96215518436728 L 102.3102310231023,216.6272509057189 L 95.25952595259525,203.25898844967156 L 90.2090209020902,196.47717680704213 L 84.75847584758475,192.29087332393755 L 78.7078707870787,189.4720956453138 L 73.65736573657365,186.15096154871748 L 72.40724072407241,179.98314108361004 L 70.8070807080708,175.992198429717 z" /><path fill-rule="evenodd" fill="#D2EBD9" stroke="#A6A6A6" stroke-width="0.25" opacity="1" d="M 58.755875587558755,153.72106389960058 L 60.15601560156015,152.9396205827544 L 62.306230623062305,150.76274277154 L 62.75627562756275,149.19985613784763 L 64.1064106410641,148.36259544122672 L 64.1064106410641,147.46951736483106 L 65.25652565256526,146.79970880753433 L 65.95659565956595,146.66016535809752 L 66.75667566756675,146.2694436996744 L 69.05690569056905,144.67864837609466 L 69.6069606960696,144.6507396862073 L 70.8070807080708,145.1251874142925 L 71.6071607160716,145.01355265474302 L 72.35723572357236,143.89720505924848 L 75.05750575057505,135.6083241627014 L 75.5075507550755,133.54308111103646 L 76.85768576857686,130.75221212230005 L 78.65786578657865,129.30096024815714 L 79.70797079707971,128.15670396277523 L 80.7080708070807,127.45898671559111 L 81.2081208120812,124.80766117629153 L 82.9082908290829,122.37960515609088 L 86.85868586858686,115.45825006402463 L 95.4095409540954,103.26215258324657 L 94.1094109410941,101.42017905068056 L 92.25922592259225,99.80147503721345 L 89.15891589158916,98.46185792261998 L 88.25882588258825,97.9036841248727 L 87.4087408740874,96.92687997881497 L 86.80868086808681,95.8105323833204 L 86.45864586458646,94.35928050917748 L 87.7087708770877,91.484685450779 L 88.008800880088,89.72643798787507 L 89.30893089308931,85.93085616319357 L 99.7099709970997,85.70758664409466 L 103.9103910391039,84.8982346373611 L 105.86058605860586,84.08888263062755 L 108.36083608360836,82.665539446372 L 109.6109610961096,82.33063516772363 L 114.16141614161415,81.66082661042688 L 115.56155615561555,82.27481778794889 L 115.8115811581158,83.33534800366873 L 115.31153115311531,85.03777808679793 L 115.26152615261526,87.68910362609749 L 117.36173617361736,94.1081023001912 L 118.4118411841184,96.25707142151823 L 118.9118911891189,97.93159281476007 L 119.3119311931193,102.06207891808992 L 119.1119111911191,106.4995606101808 L 117.61176117611761,108.34153414274681 L 113.8113811381138,110.65795540339802 L 114.91149114911491,115.17916316515098 L 114.71147114711471,116.85368455839281 L 114.36143614361436,118.16539298309893 L 113.76137613761375,118.83520154039566 L 111.26112611261125,119.70037092690394 L 110.06100610061006,120.31436210442594 L 109.010901090109,122.1284269471046 L 109.16091609160915,128.40788217176149 L 110.31103110311031,135.94322844134976 L 110.46104610461046,139.82253633569334 L 110.76107610761075,141.943596767133 L 111.96119611961196,144.53910492665784 L 110.31103110311031,145.32054824350402 L 108.7108710871087,146.79970880753433 L 106.56065606560655,151.06973836030102 L 103.16031603160316,155.67467219171604 L 100.61006100610061,158.24227166135353 L 99.2099209920992,159.02371497819973 L 98.20982098209821,159.33071056696073 L 95.85958595859586,159.0516236680871 L 99.95999599959995,163.74028356916423 L 97.75977597759776,167.0893263556479 L 97.5097509750975,167.98240443204355 L 97.2097209720972,171.21981245897777 L 97.55975597559755,176.13174187915382 L 94.7094709470947,175.2107551128708 L 92.5092509250925,173.8990466881647 L 90.95909590959096,173.61995978929107 L 87.4087408740874,173.42459896007952 L 85.7085708570857,172.55942957357124 L 84.10841084108411,171.4988993578514 L 82.8082808280828,171.24772114886514 L 81.65816581658166,171.41517328818932 L 78.6078607860786,172.53152088368387 L 77.15771577157716,173.78741192861526 L 76.5076507650765,174.150224897151 L 74.25742574257426,174.764216074673 L 70.8070807080708,175.992198429717 L 69.7069706970697,173.17342075109323 L 63.406340634063405,162.26112300513395 L 59.15591559155915,155.78630695126552 L 58.755875587558755,153.72106389960058 z" /><path fill-rule="evenodd" fill="#D2EBD9" stroke="#A6A6A6" stroke-width="0.25" opacity="1" d="M 102.3102310231023,216.6272509057189 L 105.81058105810581,216.96215518436728 L 107.86078607860786,216.73888566526836 L 109.16091609160915,216.26443793718317 L 113.2113211321132,213.9201079866446 L 115.01150115011501,211.49205196644394 L 115.9115911591159,205.85449660919642 L 116.86168616861686,204.26370128561666 L 118.8118811881188,203.48225796877048 L 122.46224622462246,202.78454072158638 L 122.9122912291229,202.42172775305065 L 122.8122812281228,201.9193713350781 L 120.16201620162016,200.24484994183626 L 119.46194619461946,199.5192240047648 L 114.3114311431143,192.76532105202273 L 113.56135613561355,191.45361262731663 L 113.26132613261325,190.5326258610336 L 113.76137613761375,188.2999306700445 L 113.7113711371137,185.8160572700691 L 112.86128612861286,182.2716536543739 L 111.66116611661165,180.84831047011832 L 112.011201120112,179.73196287462378 L 112.56125612561256,178.78306741845338 L 114.1114111411141,177.3876329240852 L 115.16151615161516,177.10854602521155 L 115.66156615661565,177.27599816453574 L 118.011801180118,180.76458440045624 L 119.011901190119,181.3227581982035 L 122.26222622262226,181.0994886791046 L 122.7122712271227,179.0900630072144 L 123.76237623762376,176.3829200881401 L 123.96239623962396,175.09912035332135 L 125.16251625162515,173.84322930839 L 130.76307630763077,170.5779125915684 L 131.7131713171317,172.5036121937965 L 132.3132313231323,172.7547904027828 L 133.3133313331333,173.00596861176905 L 136.013601360136,173.1455120612059 L 139.91399139913992,171.94543839604924 L 145.8145814581458,173.78741192861526 L 145.06450645064507,175.40611594208235 L 147.9147914791479,177.33181554431047 L 150.3150315031503,177.77835458250829 L 154.56545654565457,178.0853501712693 L 159.46594659465947,184.4206227757009 L 162.3162316231623,189.33255219587696 L 163.21632163216321,190.58844324080835 L 164.06640664066407,191.45361262731663 L 168.51685168516852,192.402508083487 L 171.36713671367136,193.60258174864364 L 172.36723672367236,193.85375995762993 L 173.21732173217322,193.74212519808046 L 174.06740674067404,193.1839514003332 L 177.66776677667767,190.16981289249787 L 184.56845684568455,187.35103521387413 L 186.91869186918692,185.64860513074493 L 189.4189418941894,185.03461395322293 L 190.2190219021902,190.4768084812589 L 191.26912691269126,191.67688214641555 L 196.41964196419642,192.59786891269854 L 198.06980698069805,193.21186009022057 L 201.07010701070107,194.83056410368766 L 202.37023702370237,196.22599859805587 L 203.37033703370335,197.53770702276196 L 203.9203920392039,198.79359806769335 L 210.2210221022102,209.70589581365263 L 211.27112711271127,212.55258218216377 L 211.92119211921192,213.47356894844677 L 212.6212621262126,213.97592536641932 L 213.3213321332133,214.1433775057435 L 220.62206220622062,214.58991654394134 L 223.1223122312231,212.4409474226143 L 223.6223622362236,211.49205196644394 L 223.8223822382238,210.71060864959773 L 223.5223522352235,209.37099153500426 L 223.87238723872386,208.3383700091718 L 226.77267726772675,203.51016665865785 L 228.8228822882288,201.6961018159792 L 230.07300730073007,200.85884111935826 L 230.97309730973097,200.97047587890773 L 232.57325732573256,202.25427561372646 L 233.4233423342334,202.58917989237483 L 234.42344234423442,202.64499727214957 L 236.47364736473645,202.0589147845149 L 239.87398739873987,202.39381906316328 L 240.67406740674065,203.03571893057267 L 241.07410741074105,203.9287970069683 L 240.67406740674065,208.2825526293971 L 240.02400240024002,209.92916533275155 L 239.87398739873987,210.6826999597104 L 240.02400240024002,211.9944083844165 L 239.72397239723972,212.97121253047422 L 239.97399739973997,214.36664702484242 L 240.87408740874085,215.95744234842218 L 245.57455745574555,218.74831133715855 L 246.9246924692469,220.00420238208994 L 248.52485248524852,222.5159844719527 L 249.47494749474947,224.6649535932797 L 249.82498249824982,228.12563113931284 L 253.07530753075307,230.60950453928822 L 259.7759775977598,230.7211392988377 L 261.32613261326134,239.56819399313207 L 265.77657765776576,244.5638494829702 L 270.6770677067707,245.12202328071749 L 273.6273627362736,250.6758525683029 L 278.027802780278,252.35037396154473 L 276.5276527652765,257.90420324913015 L 270.6770677067707,260.1368984401193 L 264.27642764276425,260.69507223786655 L 256.9256925692569,266.24890152545197 L 251.07510751075105,266.24890152545197 L 246.6246624662466,269.0397705141884 L 241.7241724172417,269.0397705141884 L 238.1238123812381,261.69978507381165 L 232.4232423242324,262.648680529982 L 228.022802280228,269.0397705141884 L 228.022802280228,275.1517735995211 L 222.6222622262226,279.05899018375203 L 218.7218721872187,277.3844687905102 L 215.27152715271527,273.4772522062792 L 211.87118711871187,272.94698709841936 L 207.4207420742074,275.1517735995211 L 199.6199619961996,276.82629499276294 L 187.61876187618762,272.66790019954567 L 184.8184818481848,272.2213611613479 L 181.96819681968196,270.5747484579934 L 176.56765676567656,271.8306395029248 L 171.36713671367136,268.76068361531475 L 170.2170217021702,269.29094872317467 L 168.66686668666867,268.4815967164411 L 167.3167316731673,267.0303448422982 L 165.016501650165,263.7650281254766 L 163.71637163716372,262.2858675614463 L 158.66586658665867,259.07636822439946 L 156.4156415641564,257.15066862217134 L 155.36553655365535,254.44352570309704 L 152.7152715271527,249.64323104247043 L 147.06470647064705,247.0477228829456 L 129.16291629162916,243.8103148560114 L 126.46264626462646,242.9451454695031 L 123.76237623762376,241.2427153863739 L 116.86168616861686,232.3398433123048 L 113.9113911391139,229.99551336176623 L 110.96109610961095,228.87916576627168 L 108.46084608460845,226.59065319550783 L 106.36063606360635,223.79978420677142 L 102.3102310231023,216.6272509057189 z" /><path fill-rule="evenodd" fill="#D2EBD9" stroke="#A6A6A6" stroke-width="0.25" opacity="1" d="M 235.62356235623562,79.20486190033886 L 231.77317731773175,76.72098850036348 L 228.5228522852285,75.68836697453101 L 224.17241724172416,73.26031095433034 L 222.77227722772275,74.65574544869854 L 221.22212221222122,75.54882352509418 L 219.021902190219,77.44661443743493 L 218.47184718471846,77.6977926464212 L 217.7217721772177,77.66988395653384 L 215.52155215521552,76.94425801946238 L 210.27102710271026,76.55353636103929 L 208.27082708270825,76.86053194980029 L 200.6200620062006,80.23748342617132 L 197.51975197519752,79.4839487992125 L 197.7197719771977,67.9576598757312 L 198.46984698469845,62.459647967920496 L 197.61976197619762,59.64087028929674 L 198.76987698769875,58.133801035379086 L 198.6198619861986,54.36612790058496 L 197.96979697969795,49.17511158153526 L 197.9197919791979,43.73291705349929 L 196.46964696469647,39.32334405129579 L 194.16941694169415,36.64410982210885 L 192.81928192819282,34.076510352471374 L 190.16901690169016,32.62525847832845 L 189.66896689668965,31.45309350305916 L 189.7189718971897,30.67165018621297 L 189.4189418941894,29.136672242407954 L 189.7189718971897,26.51325539299574 L 191.1191119111911,24.894551379528636 L 191.36913691369136,22.94094308741316 L 193.019301930193,20.54079575709986 L 193.96939693969395,19.870987199803125 L 199.3199319931993,18.83836567397066 L 200.5200520052005,19.396539471717936 L 201.32013201320132,20.20589147845149 L 202.02020202020202,21.210604314396594 L 203.9203920392039,22.5223127391027 L 205.47054705470546,23.108395226737343 L 208.1208120812081,23.66656902448462 L 209.07090709070906,24.057290682907716 L 209.6209620962096,24.699190550317088 L 209.6209620962096,25.899264215473735 L 209.27092709270926,27.6296029884903 L 209.4209420942094,28.27150285589967 L 214.7214721472147,36.33711423334785 L 217.021702170217,37.872092177152865 L 218.07180718071805,39.71406570971889 L 218.17181718171815,41.41649579284809 L 219.4219421942194,43.67709967372456 L 221.97219721972195,46.32842521302414 L 224.3224322432243,50.151915727593 L 224.022402240224,55.845288464615244 L 226.3226322632263,58.21752710504118 L 227.77277727772776,62.320104518483674 L 228.1228122812281,63.938808531950784 L 228.4228422842284,67.2599426285471 L 228.87288728872886,68.29256415437956 L 230.97309730973097,70.52525934536868 L 232.1232123212321,71.50206349142641 L 234.52345234523452,73.17658488466824 L 236.27362736273625,74.09757165095127 L 238.4238423842384,75.54882352509418 L 235.62356235623562,79.20486190033886 z" /><path fill-rule="evenodd" fill="#D2EBD9" stroke="#A6A6A6" stroke-width="0.25" opacity="1" d="M 197.7197719771977,67.9576598757312 L 197.51975197519752,79.4839487992125 L 200.6200620062006,80.23748342617132 L 208.27082708270825,76.86053194980029 L 210.27102710271026,76.55353636103929 L 215.52155215521552,76.94425801946238 L 217.7217721772177,77.66988395653384 L 218.47184718471846,77.6977926464212 L 219.021902190219,77.44661443743493 L 221.22212221222122,75.54882352509418 L 222.77227722772275,74.65574544869854 L 224.17241724172416,73.26031095433034 L 228.5228522852285,75.68836697453101 L 231.77317731773175,76.72098850036348 L 235.62356235623562,79.20486190033886 L 235.67356735673567,81.80037005986371 L 237.07370737073705,83.586526212655 L 239.17391739173917,85.70758664409466 L 241.97419741974196,89.72643798787507 L 242.77427742774276,92.4893982867241 L 242.67426742674266,94.69418478782585 L 240.17401740174017,96.22916273163086 L 239.52395239523952,100.97364001248273 L 238.87388738873886,102.62025271583721 L 237.8237823782378,103.87614376076858 L 233.3233323332333,107.86708641466163 L 232.7232723272327,108.84389056071936 L 232.4232423242324,109.5974251876782 L 232.67326732673266,111.43939872024421 L 230.77307730773077,113.81163736067015 L 228.37283728372836,118.05375822354947 L 227.6227622762276,123.16104847293707 L 227.17271727172715,124.50066558753053 L 224.5224522452245,129.1055994189456 L 229.87298729872987,130.41730784365168 L 230.77307730773077,131.05920771106105 L 233.37333733373336,133.54308111103646 L 234.67346734673467,134.24079835822056 L 236.67366736673665,134.79897215596782 L 237.8237823782378,134.88269822562992 L 238.67386738673866,134.71524608630574 L 239.42394239423942,134.29661573799527 L 239.92399239923992,134.38034180765737 L 243.07430743074306,137.33866293571793 L 238.7238723872387,139.51554074693234 L 237.1237123712371,141.49705772893518 L 234.52345234523452,147.02297832663322 L 233.6233623362336,149.2835822075097 L 233.37333733373336,150.39992980300428 L 232.37323732373235,152.5488989243313 L 232.1232123212321,153.49779438050166 L 232.17321732173215,154.6420506658836 L 234.17341734173417,157.32128489507053 L 234.62346234623462,158.353906420903 L 234.92349234923492,161.39595361862567 L 235.22352235223522,162.4564838343455 L 236.17361736173615,163.93564439837579 L 236.67366736673665,164.3263660567989 L 237.2237223722372,164.41009212646097 L 238.27382738273826,163.96355308826315 L 239.37393739373937,163.79610094893897 L 241.47414741474145,164.10309653769997 L 243.37433743374336,164.71708771522196 L 244.12441244124412,164.71708771522196 L 245.6245624562456,163.65655749950216 L 246.3246324632463,163.40537929051587 L 247.07470747074706,163.40537929051587 L 253.87538753875387,166.30788303880172 L 255.47554755475545,167.50795670395837 L 256.2256225622562,168.81966512866447 L 256.8256825682568,170.63372997134312 L 258.17581758175817,178.44816313980502 L 258.27582758275827,180.84831047011832 L 257.17571757175716,187.54639604308568 L 257.67576757675766,189.05346529700333 L 258.17581758175817,188.9976479172286 L 258.975897589759,189.50000433520114 L 259.8759875987599,190.7838040700199 L 261.52615261526154,193.99330340706675 L 262.3262326232623,198.87732413735543 L 262.17621762176213,200.49602815082255 L 261.976197619762,201.47283229688028 L 260.92609260926093,203.3985318991084 L 260.3760376037604,205.4079575709986 L 259.97599759976,206.07776612829534 L 259.0759075907591,206.5801225462679 L 257.27572757275726,207.0266615844657 L 256.9256925692569,207.277839793452 L 256.1256125612561,208.9802698765812 L 255.7255725572557,210.2919783012873 L 254.87548754875485,211.65950410576812 L 254.72547254725472,212.02231707430386 L 254.77547754775478,212.41303873272693 L 255.7255725572557,213.78056453720777 L 256.57565756575656,216.1528031776337 L 256.5256525652565,217.35287684279035 L 256.17561756175616,218.52504181805963 L 252.9252925292529,222.79507137082632 L 255.27552755275525,226.758105334832 L 259.7759775977598,230.7211392988377 L 253.07530753075307,230.60950453928822 L 249.82498249824982,228.12563113931284 L 249.47494749474947,224.6649535932797 L 248.52485248524852,222.5159844719527 L 246.9246924692469,220.00420238208994 L 245.57455745574555,218.74831133715855 L 240.87408740874085,215.95744234842218 L 239.97399739973997,214.36664702484242 L 239.72397239723972,212.97121253047422 L 240.02400240024002,211.9944083844165 L 239.87398739873987,210.6826999597104 L 240.02400240024002,209.92916533275155 L 240.67406740674065,208.2825526293971 L 241.07410741074105,203.9287970069683 L 240.67406740674065,203.03571893057267 L 239.87398739873987,202.39381906316328 L 236.47364736473645,202.0589147845149 L 234.42344234423442,202.64499727214957 L 233.4233423342334,202.58917989237483 L 232.57325732573256,202.25427561372646 L 230.97309730973097,200.97047587890773 L 230.07300730073007,200.85884111935826 L 228.8228822882288,201.6961018159792 L 226.77267726772675,203.51016665865785 L 223.87238723872386,208.3383700091718 L 223.5223522352235,209.37099153500426 L 223.8223822382238,210.71060864959773 L 223.6223622362236,211.49205196644394 L 223.1223122312231,212.4409474226143 L 220.62206220622062,214.58991654394134 L 213.3213321332133,214.1433775057435 L 212.6212621262126,213.97592536641932 L 211.92119211921192,213.47356894844677 L 211.27112711271127,212.55258218216377 L 210.2210221022102,209.70589581365263 L 203.9203920392039,198.79359806769335 L 203.37033703370335,197.53770702276196 L 202.37023702370237,196.22599859805587 L 201.07010701070107,194.83056410368766 L 198.06980698069805,193.21186009022057 L 196.41964196419642,192.59786891269854 L 191.26912691269126,191.67688214641555 L 190.2190219021902,190.4768084812589 L 189.4189418941894,185.03461395322293 L 189.6189618961896,180.0110497734974 L 188.16881688168814,177.13645471509892 L 186.66866686668666,175.82474629039282 L 184.36843684368435,173.31296420053008 L 183.8183818381838,172.5036121937965 L 183.06830683068307,170.29882569269475 L 182.96829682968297,168.45685216012873 L 183.11831183118312,166.7823307668869 L 184.3184318431843,165.5264397219555 L 185.36853685368536,164.96826592420825 L 186.36863686368636,164.85663116465878 L 188.3188318831883,165.19153544330715 L 189.36893689368935,165.10780937364507 L 190.46904690469046,164.6333616455599 L 193.9193919391939,160.9773232703152 L 194.4194419441944,160.16797126358165 L 194.46944694469445,158.93998890853763 L 194.06940694069405,157.90736738270516 L 191.96919691969197,155.7025808816034 L 188.56885688568855,154.58623328610886 L 184.76847684768475,149.4510343468339 L 179.56795679567955,145.09727872440513 L 178.8178817881788,142.50177056488027 L 175.36753675367535,139.57135812670705 L 167.96679667966797,137.72938459414104 L 161.4161416141614,138.1480149424515 L 161.76617661766176,136.64094568853386 L 161.4161416141614,134.07334621889638 L 160.8160816081608,131.9522857874567 L 158.51585158515852,129.8033166661297 L 150.7150715071507,127.62643885491529 L 150.01500150015002,124.5285742774179 L 149.81498149814982,121.3469836302584 L 150.9150915091509,117.942123464 L 143.014301430143,111.02076837193376 L 144.21442144214421,109.62533387756555 L 145.8145814581458,108.48107759218364 L 146.06460646064605,108.09035593376053 L 146.1146114611461,106.36001716074398 L 145.8145814581458,104.51804362817795 L 145.8145814581458,94.33137181929011 L 154.46544654465447,96.17334535185614 L 157.6157615761576,94.38718919906485 L 162.06620662066206,94.75000216760057 L 163.26632663266327,94.27555443951539 L 165.46654665466545,92.85221125525983 L 167.26672667266726,91.06605510246854 L 170.5170517051705,88.41472956316896 L 171.96719671967196,86.68439079015239 L 173.01730173017302,85.06568677668528 L 174.16741674167415,82.21900040817417 L 176.06760676067606,78.75832286214104 L 179.6179617961796,74.04175427117653 L 185.76857685768576,73.31612833410507 L 191.56915691569156,70.77643755435496 L 193.86938693869385,70.38571589593185 L 197.7197719771977,67.9576598757312 z" /><path fill-rule="evenodd" fill="#D2EBD9" stroke="#A6A6A6" stroke-width="0.25" opacity="1" d="M 197.7197719771977,67.9576598757312 L 193.86938693869385,70.38571589593185 L 191.56915691569156,70.77643755435496 L 185.76857685768576,73.31612833410507 L 179.6179617961796,74.04175427117653 L 176.06760676067606,78.75832286214104 L 174.16741674167415,82.21900040817417 L 173.01730173017302,85.06568677668528 L 171.96719671967196,86.68439079015239 L 170.5170517051705,88.41472956316896 L 167.26672667266726,91.06605510246854 L 165.46654665466545,92.85221125525983 L 163.26632663266327,94.27555443951539 L 162.06620662066206,94.75000216760057 L 157.6157615761576,94.38718919906485 L 154.46544654465447,96.17334535185614 L 145.8145814581458,94.33137181929011 L 144.16441644164416,94.69418478782585 L 142.9142914291429,91.14978117213063 L 141.9141914191419,89.47525977888878 L 140.66406640664064,88.19146004407006 L 139.76397639763977,87.66119493621014 L 138.06380638063806,86.9913863789134 L 136.5136513651365,85.9866735429683 L 135.76357635763574,84.73078249803692 L 135.01350135013502,82.69344813625935 L 134.46344634463446,78.81414024191577 L 133.013301330133,74.2929324801628 L 135.21352135213522,70.99970707345386 L 138.06380638063806,62.65500879713205 L 141.56415641564155,61.48284382186276 L 142.4142414241424,59.752505048846196 L 142.2142214221422,58.80360959267582 L 141.86418641864185,58.050074965716995 L 141.46414641464145,55.81737977472788 L 150.8150815081508,55.76156239495315 L 153.81538153815382,49.844920138831995 L 154.51545154515452,47.695951017504974 L 156.4156415641564,40.30014819735353 L 153.91539153915392,35.08122318841647 L 153.81538153815382,32.960162756976814 L 154.11541154115412,32.29035419968008 L 155.76557655765575,29.862298179479417 L 156.5156515651565,27.6296029884903 L 156.6156615661566,25.982990285135827 L 156.46564656465645,23.778203784034076 L 155.76557655765575,20.54079575709986 L 154.46544654465447,18.05692235712447 L 153.6153615361536,17.331296420053008 L 156.26562656265625,18.05692235712447 L 158.06580658065806,18.168557116673924 L 158.66586658665867,18.084831047011832 L 160.6160616061606,17.163844280728824 L 161.3161316131613,19.25699602228112 L 161.2161216121612,21.294330384058686 L 161.66616661666166,21.629234662707052 L 162.56625662566256,21.685052042481782 L 164.5164516451645,20.819882655973498 L 165.5165516551655,19.98262195935258 L 167.016701670167,18.363917945885472 L 168.06680668066807,17.889470217800284 L 169.46694669466945,17.91737890768765 L 174.16741674167415,19.870987199803125 L 174.96749674967495,21.992047631242784 L 175.4175417541754,20.20589147845149 L 176.1176117611761,19.591900300929485 L 176.66766676667666,19.675626370591576 L 177.16771677167716,20.17798278856413 L 177.76777677767777,21.489691213270234 L 178.16781678167817,22.88512570763843 L 178.31783178317832,25.64808600648746 L 178.66786678667864,26.010898975023192 L 179.3179317931793,25.9271729053611 L 180.56805680568056,24.950368759303363 L 181.06810681068106,23.80611247392144 L 181.46814681468146,21.405965143608142 L 181.8181818181818,20.68033920653668 L 182.56825682568257,20.20589147845149 L 183.36833683368337,20.038439339127308 L 184.018401840184,20.150074098676765 L 184.16841684168415,20.76406527619877 L 183.8183818381838,20.791973966086136 L 183.11831183118312,21.32223907394605 L 184.2184218421842,22.80139963797634 L 189.7189718971897,26.51325539299574 L 189.4189418941894,29.136672242407954 L 189.7189718971897,30.67165018621297 L 189.66896689668965,31.45309350305916 L 190.16901690169016,32.62525847832845 L 192.81928192819282,34.076510352471374 L 194.16941694169415,36.64410982210885 L 196.46964696469647,39.32334405129579 L 197.9197919791979,43.73291705349929 L 197.96979697969795,49.17511158153526 L 198.6198619861986,54.36612790058496 L 198.76987698769875,58.133801035379086 L 197.61976197619762,59.64087028929674 L 198.46984698469845,62.459647967920496 L 197.7197719771977,67.9576598757312 z" /><path fill-rule="evenodd" fill="#D2EBD9" stroke="#A6A6A6" stroke-width="0.25" opacity="1" d="M 189.4189418941894,185.03461395322293 L 186.91869186918692,185.64860513074493 L 184.56845684568455,187.35103521387413 L 177.66776677667767,190.16981289249787 L 174.06740674067404,193.1839514003332 L 173.21732173217322,193.74212519808046 L 172.36723672367236,193.85375995762993 L 171.36713671367136,193.60258174864364 L 168.51685168516852,192.402508083487 L 164.06640664066407,191.45361262731663 L 163.21632163216321,190.58844324080835 L 162.3162316231623,189.33255219587696 L 159.46594659465947,184.4206227757009 L 154.56545654565457,178.0853501712693 L 150.3150315031503,177.77835458250829 L 147.9147914791479,177.33181554431047 L 145.06450645064507,175.40611594208235 L 145.8145814581458,173.78741192861526 L 139.91399139913992,171.94543839604924 L 136.013601360136,173.1455120612059 L 133.3133313331333,173.00596861176905 L 132.3132313231323,172.7547904027828 L 131.7131713171317,172.5036121937965 L 130.76307630763077,170.5779125915684 L 133.36333633363336,166.4753351781259 L 134.06340634063406,162.3727577646834 L 134.16341634163416,159.0516236680871 L 133.66336633663366,157.01428930630954 L 133.66336633663366,155.89794171081496 L 134.06340634063406,154.53041590633413 L 134.81348134813481,152.9954379625291 L 136.06360636063604,151.4604600187241 L 136.96369636963695,149.95339076480644 L 138.9138913891389,145.68336121203976 L 140.9140914091409,143.75766160981166 L 142.76427642764276,140.9388839311879 L 146.76467646764675,144.20420064800948 L 152.86528652865286,146.1857176300123 L 156.36563656365635,140.8551578615258 L 156.6156615661566,139.98998847501753 L 157.4157415741574,139.0131843289598 L 157.86578657865786,138.65037136042406 L 161.4161416141614,138.1480149424515 L 167.96679667966797,137.72938459414104 L 175.36753675367535,139.57135812670705 L 178.8178817881788,142.50177056488027 L 179.56795679567955,145.09727872440513 L 184.76847684768475,149.4510343468339 L 188.56885688568855,154.58623328610886 L 191.96919691969197,155.7025808816034 L 194.06940694069405,157.90736738270516 L 194.46944694469445,158.93998890853763 L 194.4194419441944,160.16797126358165 L 193.9193919391939,160.9773232703152 L 190.46904690469046,164.6333616455599 L 189.36893689368935,165.10780937364507 L 188.3188318831883,165.19153544330715 L 186.36863686368636,164.85663116465878 L 185.36853685368536,164.96826592420825 L 184.3184318431843,165.5264397219555 L 183.11831183118312,166.7823307668869 L 182.96829682968297,168.45685216012873 L 183.06830683068307,170.29882569269475 L 183.8183818381838,172.5036121937965 L 184.36843684368435,173.31296420053008 L 186.66866686668666,175.82474629039282 L 188.16881688168814,177.13645471509892 L 189.6189618961896,180.0110497734974 L 189.4189418941894,185.03461395322293 z" /><path fill-rule="evenodd" fill="#D2EBD9" stroke="#A6A6A6" stroke-width="0.25" opacity="1" d="M 383.988398839884,148.08350854235306 L 381.8881888188819,147.55324343449314 L 381.1381138113811,147.1346130861827 L 380.68806880688066,146.3531697693365 L 380.88808880888087,143.5623007806001 L 380.6380638063806,142.22268366600665 L 377.037703770377,139.26436253794606 L 375.53755375537554,137.6177498345916 L 374.3874387438744,134.79897215596782 L 375.23752375237524,132.7337291043029 L 376.3376337633763,131.31038592004734 L 376.58765876587654,130.52894260320116 L 376.3376337633763,127.51480409536585 L 374.3874387438744,122.46333122575297 L 362.38623862386237,115.96060648199717 L 358.9358935893589,121.40280101003314 L 357.9357935793579,122.01679218755514 L 355.0855085508551,122.60287467518978 L 352.48524852485247,122.71450943473924 L 349.3349334933493,121.65397921901942 L 341.08410841084105,114.36981115841742 L 333.4333433343334,115.96060648199717 L 330.38303830383035,114.98380233593943 L 329.9329932993299,114.70471543706579 L 327.73277327732774,112.47202024607668 L 329.58295829582954,106.69492143939235 L 330.78307830783075,103.98777852031805 L 332.18321832183216,98.46185792261998 L 333.6333633363336,94.86163692715003 L 336.33363336333633,92.4893982867241 L 336.93369336933694,90.81487689348226 L 336.983698369837,87.9960992148585 L 338.4338433843384,85.9866735429683 L 338.6338633863386,83.30743931378136 L 338.4338433843384,80.62820508459443 L 338.1838183818382,79.56767486887459 L 336.23362336233623,74.15338903072599 L 336.53365336533653,69.6600899588604 L 341.38413841384136,58.88733566233791 L 346.984698469847,57.18490557920871 L 347.6847684768477,56.68254916123616 L 349.48494849484945,54.868484318557506 L 350.8350835083508,47.277320669194516 L 352.9352935293529,45.32371237707904 L 354.2354235423542,45.12835154786749 L 355.33553355335533,44.59808644000758 L 356.83568356835684,43.50964753440038 L 357.88578857885784,41.89094352093328 L 359.035903590359,40.85832199510081 L 360.28602860286026,40.27223950746617 L 360.98609860986096,40.21642212769144 L 362.68626862686267,41.249043653523906 L 365.33653365336534,41.02577413442499 L 366.5866586658666,45.60279927595268 L 370.6370637063706,52.83114995677994 L 373.2373237323732,55.9569232241647 L 376.3376337633763,58.46870531402745 L 386.4386438643864,62.989913075780414 L 389.3389338933893,65.39006040609371 L 391.2391239123912,68.43210760381638 L 392.8892889288929,72.25559811838524 L 394.43944394439444,77.92106216552013 L 394.83948394839484,79.9583965272977 L 395.23952395239525,88.52636432271842 L 396.28962896289624,91.37305069122954 L 402.0902090209021,97.03851473836441 L 408.040804080408,100.0805619360871 L 407.5407540754075,103.37378734279604 L 406.3406340634063,105.80184336299669 L 405.9405940594059,107.1972778573649 L 405.19051905190514,107.8112690348869 L 401.2401240124012,110.07187291576338 L 399.1399139913991,112.08129858765358 L 395.58955895589554,114.34190246853007 L 397.08970897089705,115.90478910222244 L 396.38963896389635,117.97003215388737 L 398.78987898789876,122.63078336507715 L 399.08990899089906,124.08203523922008 L 398.9398939893989,124.75184379651681 L 397.039703970397,129.27305155826977 L 386.68866886688664,143.19948781206438 L 383.988398839884,148.08350854235306 z" /><path fill-rule="evenodd" fill="#D2EBD9" stroke="#A6A6A6" stroke-width="0.25" opacity="1" d="M 258.27582758275827,180.84831047011832 L 258.17581758175817,178.44816313980502 L 256.8256825682568,170.63372997134312 L 256.2256225622562,168.81966512866447 L 255.47554755475545,167.50795670395837 L 253.87538753875387,166.30788303880172 L 247.07470747074706,163.40537929051587 L 246.3246324632463,163.40537929051587 L 245.6245624562456,163.65655749950216 L 244.12441244124412,164.71708771522196 L 243.37433743374336,164.71708771522196 L 241.47414741474145,164.10309653769997 L 239.37393739373937,163.79610094893897 L 238.27382738273826,163.96355308826315 L 237.2237223722372,164.41009212646097 L 236.67366736673665,164.3263660567989 L 236.17361736173615,163.93564439837579 L 235.22352235223522,162.4564838343455 L 234.92349234923492,161.39595361862567 L 234.62346234623462,158.353906420903 L 234.17341734173417,157.32128489507053 L 232.17321732173215,154.6420506658836 L 232.1232123212321,153.49779438050166 L 232.37323732373235,152.5488989243313 L 233.37333733373336,150.39992980300428 L 233.6233623362336,149.2835822075097 L 234.52345234523452,147.02297832663322 L 237.1237123712371,141.49705772893518 L 238.7238723872387,139.51554074693234 L 243.07430743074306,137.33866293571793 L 239.92399239923992,134.38034180765737 L 239.42394239423942,134.29661573799527 L 238.67386738673866,134.71524608630574 L 237.8237823782378,134.88269822562992 L 236.67366736673665,134.79897215596782 L 234.67346734673467,134.24079835822056 L 233.37333733373336,133.54308111103646 L 230.77307730773077,131.05920771106105 L 229.87298729872987,130.41730784365168 L 224.5224522452245,129.1055994189456 L 227.17271727172715,124.50066558753053 L 227.6227622762276,123.16104847293707 L 228.37283728372836,118.05375822354947 L 230.77307730773077,113.81163736067015 L 232.67326732673266,111.43939872024421 L 232.4232423242324,109.5974251876782 L 232.7232723272327,108.84389056071936 L 233.3233323332333,107.86708641466163 L 237.8237823782378,103.87614376076858 L 238.87388738873886,102.62025271583721 L 239.52395239523952,100.97364001248273 L 240.17401740174017,96.22916273163086 L 242.67426742674266,94.69418478782585 L 242.77427742774276,92.4893982867241 L 241.97419741974196,89.72643798787507 L 239.17391739173917,85.70758664409466 L 248.57485748574857,80.37702687560815 L 253.37533753375337,76.44190160148983 L 255.2255225522552,75.26973662622055 L 256.4256425642564,73.93011951162708 L 257.27572757275726,73.3719457138798 L 258.6258625862586,72.86958929590725 L 260.72607260726073,72.86958929590725 L 263.77637763776374,71.97651121951161 L 265.97659765976596,71.69742432063796 L 267.6267626762676,73.45567178354189 L 270.0770077007701,74.46038461948699 L 271.12711271127114,75.24182793633318 L 273.07730773077304,77.0838014688992 L 274.1274127412741,77.6977926464212 L 274.97749774977495,77.83733609585802 L 277.027702770277,76.30235815205302 L 277.9277927792779,76.05117994306674 L 283.4283428342834,76.44190160148983 L 284.27842784278425,76.74889719025083 L 284.5284528452845,77.13961884867393 L 284.3284328432843,77.61406657675911 L 280.12801280128014,83.27953062389399 L 279.0779077907791,85.09359546657265 L 289.97899789979,90.17297702607289 L 294.2294229422942,93.24293291368292 L 294.6294629462946,94.05228492041648 L 294.4294429442944,95.5035367945594 L 294.4294429442944,97.09433211813915 L 294.1294129412941,98.23858840352106 L 294.37943794379436,100.10847062597445 L 295.77957795779577,103.62496555178231 L 296.8296829682968,109.09506876970563 L 288.6788678867887,118.08166691343683 L 285.67856785678566,120.28645341453858 L 281.2281228122812,122.04470087744251 L 280.42804280428044,122.63078336507715 L 279.32793279327933,124.08203523922008 L 273.5273527352735,126.00773484144818 L 272.3272327232723,129.41259500770659 L 273.1273127312731,131.5057467492589 L 272.5272527252725,135.7478676121382 L 269.026902690269,147.72069557381732 L 267.8267826782678,148.47423020077616 L 267.27672767276727,150.56738194232847 L 266.67666766676666,155.1723157737435 L 265.6265626562656,156.2607546793507 L 265.4265426542654,156.98638061642217 L 265.8265826582658,162.54020990400758 L 266.97669766976696,166.1683395893649 L 267.3267326732673,170.5779125915684 L 267.3267326732673,172.5873382634586 L 267.1267126712671,174.03859013760152 L 266.47664766476646,175.4619333218571 L 264.3264326432643,178.53188920946712 L 262.8262826282628,179.2575151465386 L 260.32603260326033,179.0900630072144 L 258.27582758275827,180.84831047011832 z" /><path fill-rule="evenodd" fill="#D2EBD9" stroke="#A6A6A6" stroke-width="0.25" opacity="1" d="M 394.43944394439444,77.92106216552013 L 392.8892889288929,72.25559811838524 L 391.2391239123912,68.43210760381638 L 389.3389338933893,65.39006040609371 L 386.4386438643864,62.989913075780414 L 376.3376337633763,58.46870531402745 L 373.2373237323732,55.9569232241647 L 370.6370637063706,52.83114995677994 L 366.5866586658666,45.60279927595268 L 365.33653365336534,41.02577413442499 L 371.5371537153715,40.43969164679035 L 377.3377337733773,41.165317583861814 L 378.78787878787875,40.91413937487554 L 379.6379637963796,40.46760033667771 L 380.5380538053805,38.876805013097965 L 381.58815881588157,37.95581824681496 L 383.03830383038303,37.00692279064459 L 386.4386438643864,36.727835891770944 L 388.2388238823882,32.70898454799054 L 388.038803880388,31.146097914298156 L 387.5387538753875,30.44838066711406 L 386.28862886288624,25.536451246938004 L 390.38903890389037,23.94565592335826 L 392.2892289228923,24.643373170542358 L 393.83938393839384,27.797055127814485 L 399.8399839983998,34.27187118168292 L 401.990199019902,37.90000086704023 L 402.4902490249025,39.21170929174634 L 402.44024402440243,40.21642212769144 L 401.94019401940193,42.50493469845528 L 402.34023402340233,45.37952975685376 L 404.9404940494049,50.403093936579275 L 405.3405340534053,51.8543458107222 L 410.991099109911,53.64050196351349 L 411.8911891189119,60.58976574546711 L 411.64116411641163,60.813035264566025 L 406.29062906290625,60.84094395445339 L 404.2904290429043,61.84565679039849 L 399.98999899989997,64.97143005778325 L 399.38993899389936,65.66914730496735 L 396.88968896889685,69.77172471840984 L 396.8396839683968,70.55316803525604 L 397.08970897089705,71.72533301052532 L 398.58985898589856,73.62312392286607 L 400.6400640064006,77.16752753856129 L 394.43944394439444,77.92106216552013 z" /></g></g></g></svg>