<svg xmlns="http://www.w3.org/2000/svg" xmlns:xlink="http://www.w3.org/1999/xlink" width="475.09952465444803" height="500.0" viewBox="0.0 0.0 475.09952465444803 500.0" preserveAspectRatio="xMinYMin meet"><g transform="matrix(1,0,0,-1,0,500.0)"><g><g><path fill-rule="evenodd" fill="#D2EBD9" stroke="#A6A6A6" stroke-width="0.25" opacity="1" d="M 303.6189581500073,434.9434943494349 L 302.241031735868,439.1439143914391 L 295.92157611240145,444.89448944894485 L 294.06850265890375,448.8948894889489 L 293.7834144352887,452.8452845284528 L 293.21323798805867,454.69546954695466 L 291.930340981791,455.89558955895586 L 289.98223812042164,456.8456845684568 L 288.50928229841065,458.1458145814581 L 286.0860323976829,461.64616461646165 L 285.42082654258115,462.3462346234623 L 283.710297200891,463.49634963496345 L 280.3367532214465,467.0967096709671 L 279.43397384666554,468.84688468846883 L 278.95882680730716,471.14711471147115 L 278.57870917582045,472.19721972197215 L 276.9156945380661,474.8474847484748 L 275.3001946042476,478.997899789979 L 274.2073564137233,480.94809480948095 L 272.6868858877765,482.19821982198215 L 270.9763565460863,483.2483248324832 L 269.598430131947,484.69846984698466 L 267.5077831587701,488.2988298829883 L 266.0348273367591,491.99919991999195 L 265.70222440920827,493.29932993299326 L 265.70222440920827,494.79947994799477 L 267.7453566784493,499.34993499349935 L 264.4193274029406,499.94999499949995 L 262.3761951336996,500.0 L 260.7131804959452,498.2998299829983 L 259.0501658581909,497.5997599759976 L 257.4821806283082,497.54975497549754 L 256.959518885014,498.64986498649864 L 255.58159247087468,497.74977497749774 L 254.91638661577292,497.64976497649764 L 254.48875428035038,498.2998299829983 L 253.72851901737698,497.94979497949794 L 253.30088668195444,498.14981498149814 L 252.44562201110935,498.999899989999 L 252.7782249386602,499.74997499749975 L 252.20804849143013,499.64996499649965 L 251.7804161560076,499.04990499049904 L 251.06769559697003,498.44984498449844 L 247.36154868997463,497.24972497249723 L 245.50847523647693,496.94969496949693 L 244.320607638081,495.9495949594959 L 242.94268122394166,495.5495549554955 L 242.65759300032664,494.79947994799477 L 240.8995489547006,494.1494149414941 L 239.2840490208821,492.1492149214921 L 237.5260049752561,491.049104910491 L 236.76576971228266,490.34903490349035 L 233.01210810135143,485.69856985698567 L 232.48944635805722,485.5485548554855 L 229.4960200100994,485.1485148514851 L 227.7854906684092,486.7986798679868 L 227.69046126053755,487.5987598759876 L 226.74016718182077,488.44884488448844 L 225.88490251097568,490.0990099009901 L 225.26721135980978,490.69906990699064 L 224.12685846534967,490.89908990899085 L 222.41632912365947,490.99909990999095 L 221.65609386068607,490.69906990699064 L 220.80082918984098,489.8989898989899 L 219.37538807176583,487.34873487348733 L 218.90024103240745,486.998699869987 L 218.47260869698488,487.04870487048703 L 216.9996528749739,487.6987698769877 L 215.95432938838545,487.84878487848783 L 214.95652060573286,487.6987698769877 L 213.150961856171,486.7986798679868 L 210.72771195544323,483.79837983798376 L 209.01718261375305,482.59825982598255 L 207.16410916025535,482.2482248224822 L 206.78399152876864,482.048204820482 L 205.31103570675765,480.5980598059806 L 202.84027110209405,479.1979197919792 L 202.4126387666715,478.54785478547853 L 201.93749172731313,478.8978897889789 L 201.36731528008306,478.8978897889789 L 199.60927123445705,477.64776477647763 L 199.46672712264953,475.79757975797577 L 196.52081547862755,473.4473447344734 L 195.61803610384663,472.047204720472 L 195.04785965661657,471.44714471447145 L 194.2401096897073,471.1971197119712 L 189.48863929612347,465.99659965996597 L 188.72840403315007,465.5465546554655 L 187.68308054656163,465.3465346534653 L 186.44769824422983,463.89638963896385 L 185.9250365009356,463.49634963496345 L 184.11947775137375,462.89628962896285 L 183.2166983765928,462.8462846284628 L 182.55149252149107,463.39633963396335 L 182.12386018606853,465.6465646564656 L 181.3636249230951,467.9467946794679 L 180.88847788373673,468.64686468646863 L 181.60119844277432,469.7969796979698 L 181.12605140341591,470.8970897089709 L 179.46303676566157,472.69726972697265 L 179.89066910108411,473.5473547354735 L 179.65309558140493,474.047404740474 L 179.08291913417486,474.49744974497446 L 178.60777209481648,475.69756975697567 L 176.70718393738295,476.3476347634763 L 175.70937515473034,477.64776477647763 L 174.94913989175694,478.34783478347833 L 174.4264781484627,477.7977797779778 L 173.23861055006674,478.14781478147813 L 173.23861055006674,479.64796479647964 L 172.95352232645172,480.1980198019802 L 171.4330518005049,482.048204820482 L 170.1026400903014,484.4484448444844 L 170.1026400903014,486.048604860486 L 169.9600959784939,486.2486248624862 L 169.1998607155205,486.3986398639864 L 168.9622871958413,487.84878487848783 L 168.01199311712452,488.44884488448844 L 166.111404959691,488.4988498849885 L 152.2371114104262,487.2987298729873 L 75.92849688946974,472.39723972397235 L 50.508130283796206,471.34713471347135 L 50.84073321134707,327.03270327032703 L 197.85122718883105,327.03270327032703 L 197.75619778095935,364.03640364036403 L 197.99377130063854,365.13651365136514 L 199.27666830690617,364.2864286428643 L 199.94187416200793,364.03640364036403 L 203.6480210690033,364.93649364936493 L 203.79056518081083,365.1865186518652 L 203.6480210690033,366.03660366036604 L 205.216006298886,367.7367736773677 L 206.87902093664033,368.3368336833683 L 207.73428560748542,369.18691869186915 L 208.25694735077963,369.48694869486945 L 210.20505021214902,369.78697869786976 L 211.34540310660913,370.3370337033703 L 211.82055014596753,370.38703870387036 L 213.150961856171,369.5369536953695 L 214.48137356637446,368.036803680368 L 215.47918234902707,367.6367636763676 L 216.1443882041288,368.036803680368 L 216.7620793552947,368.036803680368 L 218.14000576943403,365.2865286528653 L 220.8483438937768,362.88628862886287 L 222.2262703079161,360.78607860786076 L 223.03402027482537,359.8359835983598 L 224.26940257715717,359.38593859385935 L 225.26721135980978,359.48594859485945 L 227.07277010937165,360.08600860086005 L 229.44850530616355,359.9359935993599 L 261.948562798277,362.6362636263626 L 262.47122454157125,362.88628862886287 L 262.8038274691221,364.03640364036403 L 263.1839451006088,376.58765876587654 L 263.08891569273715,377.18771877187714 L 262.8038274691221,377.5377537753775 L 254.44123957641455,381.1381138113811 L 254.15615135279953,381.38813881388137 L 254.10863664886367,434.9434943494349 L 303.6189581500073,434.9434943494349 z" /><path fill-rule="evenodd" fill="#D2EBD9" stroke="#A6A6A6" stroke-width="0.25" opacity="1" d="M 303.6189581500073,434.9434943494349 L 254.10863664886367,434.9434943494349 L 254.15615135279953,381.38813881388137 L 254.44123957641455,381.1381138113811 L 262.8038274691221,377.5377537753775 L 263.08891569273715,377.18771877187714 L 263.1839451006088,376.58765876587654 L 262.8038274691221,364.03640364036403 L 262.47122454157125,362.88628862886287 L 261.948562798277,362.6362636263626 L 229.44850530616355,359.9359935993599 L 227.07277010937165,360.08600860086005 L 225.26721135980978,359.48594859485945 L 224.26940257715717,359.38593859385935 L 223.03402027482537,359.8359835983598 L 222.2262703079161,360.78607860786076 L 220.8483438937768,362.88628862886287 L 218.14000576943403,365.2865286528653 L 216.7620793552947,368.036803680368 L 216.1443882041288,368.036803680368 L 215.47918234902707,367.6367636763676 L 214.48137356637446,368.036803680368 L 213.150961856171,369.5369536953695 L 211.82055014596753,370.38703870387036 L 211.34540310660913,370.3370337033703 L 210.20505021214902,369.78697869786976 L 208.25694735077963,369.48694869486945 L 207.73428560748542,369.18691869186915 L 206.87902093664033,368.3368336833683 L 205.216006298886,367.7367736773677 L 203.6480210690033,366.03660366036604 L 203.79056518081083,365.1865186518652 L 203.6480210690033,364.93649364936493 L 199.94187416200793,364.03640364036403 L 199.27666830690617,364.2864286428643 L 197.99377130063854,365.13651365136514 L 197.75619778095935,364.03640364036403 L 197.85122718883105,327.03270327032703 L 276.8206651301944,220.32203220322032 L 291.645252758176,200.57005700570056 L 292.07288509359853,200.17001700170016 L 292.7380909487003,199.86998699869986 L 297.2044731186691,198.4198419841984 L 299.48517890758933,196.1196119611961 L 306.27978157041423,186.4186418641864 L 341.630721298678,165.26652665266525 L 344.6241476466358,169.01690169016902 L 345.90704465290344,170.26702670267025 L 347.2374563631069,170.16701670167015 L 347.6175739945936,170.26702670267025 L 348.3302945536312,171.76717671767176 L 349.99330919138555,174.16741674167415 L 350.37342682287226,175.2175217521752 L 351.0861473819098,174.017401740174 L 352.27401498030576,175.66756675667565 L 352.89170613147166,176.2176217621762 L 354.1746031377393,176.36763676367636 L 354.0320590259318,176.9176917691769 L 354.31714724954685,177.96779677967797 L 355.2674413282636,179.7179717971797 L 356.17022070304455,182.01820182018201 L 356.6453677424029,182.41824182418242 L 357.21554418963296,182.16821682168217 L 357.8807500447347,180.9180918091809 L 358.7360147155798,180.86808680868086 L 359.49624997855324,181.4181418141814 L 359.49624997855324,182.21822182218222 L 359.16364705100233,183.21832183218322 L 359.06861764313066,184.26842684268425 L 359.78133820216823,183.9183918391839 L 360.2089705375908,184.76847684768475 L 361.15926461630755,185.4185418541854 L 360.8266616887567,185.4185418541854 L 361.2067793202434,186.1186118611861 L 361.7294410635376,186.5186518651865 L 362.25210280683183,186.56865686568656 L 362.9173086619336,186.16861686168616 L 363.1073674776769,186.81868186818681 L 362.4421616225752,187.56875687568757 L 362.204588102896,188.2188218821882 L 362.4421616225752,188.66886688668865 L 362.9173086619336,188.76887688768875 L 363.5349998130995,188.56885688568855 L 363.9151174445862,188.01880188018802 L 364.6753527075596,189.2189218921892 L 365.0079556351105,188.76887688768875 L 365.435587970533,188.56885688568855 L 366.3858820492498,188.76887688768875 L 365.6731614902122,189.86898689868985 L 366.2433379374423,190.5190519051905 L 368.09641139094,191.1191119111911 L 370.04451425230934,192.06920692069207 L 370.9472936270903,192.71927192719272 L 371.8025582979354,193.56935693569355 L 372.9904258963313,195.46954695469546 L 373.7031464553689,196.06960696069606 L 374.273322902599,194.36943694369435 L 374.79598464589316,194.66946694669466 L 375.41367579705906,195.6195619561956 L 376.7916022111984,196.16961696169616 L 377.1717198426851,196.06960696069606 L 376.7916022111984,195.26952695269526 L 377.50432277023594,194.86948694869486 L 378.0269845135302,195.2195219521952 L 378.92976388831113,196.41964196419642 L 379.54745503947703,196.66966696669667 L 381.6856167165897,196.76967696769677 L 382.778454907114,197.06970697069707 L 383.7762636897666,197.76977697769775 L 384.53649895274003,198.76987698769875 L 384.8215871763551,199.96999699969996 L 384.53649895274003,201.17011701170117 L 385.0116459920984,201.62016201620162 L 385.3917636235851,203.1203120312031 L 386.34205770230193,204.17041704170416 L 386.76969003772444,205.72057205720571 L 387.3398664849545,205.67056705670566 L 388.76530760302967,205.1205120512051 L 389.3354840502597,205.3205320532053 L 391.3786163195008,206.97069706970697 L 392.75654273364006,205.4205420542054 L 393.4217485887418,205.1205120512051 L 394.18198385171524,205.47054705470546 L 395.22730733830366,208.1208120812081 L 395.9875426012771,208.6208620862086 L 395.0847632264962,210.3210321032103 L 395.22730733830366,210.77107710771077 L 396.8428072721222,210.57105710571057 L 397.65055723903146,210.87108710871087 L 397.31795431148055,211.87118711871187 L 399.26605717284997,212.37123712371235 L 401.35670414602686,213.27132713271325 L 403.11474819165284,214.5214521452145 L 403.9224981585621,216.07160716071607 L 403.49486582313955,218.37183718371836 L 403.49486582313955,219.67196719671966 L 404.06504227036964,220.17201720172017 L 405.0628510530222,220.37203720372037 L 407.0584686183274,221.22212221222122 L 407.771189177365,221.67216721672165 L 408.5789391442743,222.5222522252225 L 409.1966302954402,223.6223622362236 L 409.3866891111835,224.87248724872487 L 408.959056775761,226.02260226022602 L 409.05408618363265,226.6226622662266 L 411.90496841978296,227.7227722772277 L 412.6176889788205,229.2229222922292 L 414.0431300968957,229.77297729772977 L 414.5182771362541,230.22302230223022 L 414.8983947677408,230.92309230923092 L 414.66082124806155,232.47324732473245 L 414.7558506559333,233.17331733173316 L 414.99342417561246,233.67336733673366 L 416.608924109431,235.72357235723572 L 417.08407114878935,236.023602360236 L 418.8421151944154,236.3236323632363 L 419.36477693770956,236.57365736573655 L 421.21785039120726,238.77387738773876 L 421.9780856541807,239.42394239423942 L 423.8311591076784,240.47404740474047 L 425.77926196904775,241.024102410241 L 429.9605559154015,241.3241324132413 L 433.1440410791027,240.47404740474047 L 433.951791046012,240.7240724072407 L 435.04462923653625,241.67416741674165 L 435.9474086113172,241.8241824182418 L 438.2756291041733,241.67416741674165 L 440.0811878537351,242.27422742274226 L 443.73982005679466,244.37443744374437 L 445.92549643784326,245.07450745074507 L 448.06365811495596,245.5245524552455 L 448.7763786739935,246.1246124612461 L 449.06146689760857,247.17471747174716 L 449.5841286409028,247.87478747874786 L 450.72448153536294,247.9247924792479 L 452.9101579164115,247.67476747674766 L 453.8129372911924,248.37483748374837 L 455.0008048895884,250.57505750575055 L 455.47595192894676,251.07510751075105 L 455.71352544862594,251.7251725172517 L 455.33340781713923,255.5255525552555 L 457.471569494252,258.1258125812581 L 458.2793194611612,258.57585758575857 L 458.2793194611612,258.8258825882588 L 459.3246429477497,260.2760276027603 L 459.79978998710806,260.4760476047605 L 465.9291867948312,260.82608260826083 L 466.83196616961214,261.1761176117612 L 468.5900102152381,262.57625762576254 L 469.92042192544164,262.7262726272627 L 472.7237894576561,262.1262126212621 L 474.1492305757312,261.976197619762 L 475.09952465444803,262.3262326232623 L 471.20331893170925,265.67656765676566 L 470.2530248529925,267.77677767776777 L 469.4927895900191,268.5768576857686 L 464.6938044924994,268.4268426842684 L 462.8407310390017,268.7268726872687 L 460.9401428815682,269.72697269726973 L 459.41967235562134,271.3771377137714 L 458.4693782769046,273.47734773477345 L 458.041745941482,275.77757775777576 L 458.2793194611612,278.0778077807781 L 460.27493702646643,281.87818781878184 L 460.1323929146589,282.9282928292829 L 459.3246429477497,283.57835783578355 L 457.2815106785086,284.2284228422842 L 456.3787313037277,284.8284828482848 L 454.9057754817167,285.17851785178516 L 451.8173197258872,285.37853785378536 L 450.29684919994037,285.77857785778576 L 442.88455538594957,289.2789278927893 L 440.5563348930935,290.02900290029004 L 438.56071732778827,291.57915791579154 L 437.8479967687507,291.77917791779174 L 436.3750409467397,291.9291929192919 L 434.7595410129212,292.37923792379235 L 430.1981294350807,291.07910791079104 L 429.10529124455644,291.3291329132913 L 425.0190267060743,293.47934793479345 L 422.9758944368333,294.17941794179416 L 421.07530627939974,294.5294529452945 L 415.04093887954826,294.6294629462946 L 411.2397625646812,295.37953795379536 L 408.3413656245951,295.57955795579556 L 407.48610095375,295.8295829582958 L 406.15568924354653,296.979697969797 L 402.4020276326153,297.3297329732973 L 399.50363069252916,298.8798879887989 L 395.9400278973413,298.8798879887989 L 392.70902802970426,298.4798479847985 L 388.38518997154296,299.62996299629964 L 384.8215871763551,299.62996299629964 L 380.8778667496805,301.58015801580154 L 378.35958744108103,304.6304630463046 L 376.5540286915192,308.13081308130813 L 375.4611905009949,313.1313131313131 L 373.7031464553689,318.13181318131814 L 371.51747007432033,323.48234823482346 L 369.7594260286943,326.93269326932693 L 367.57374964764574,330.03300330033 L 366.8610290886082,335.3835383538354 L 366.8610290886082,339.2339233923392 L 367.57374964764574,343.08430843084307 L 368.66658783817,347.6847684768477 L 369.7594260286943,350.7350735073507 L 369.56936721295097,354.3354335433543 L 370.3771171798602,362.1362136213621 L 369.42682310114344,368.48684868486845 L 366.8610290886082,375.1875187518752 L 366.1958232335064,376.13761376137614 L 365.2930438587255,376.68766876687664 L 364.2002056682012,376.98769876987694 L 363.1548821816128,377.18771877187714 L 361.53938224779426,377.18771877187714 L 360.8741763926925,377.4377437743774 L 360.3515146493983,377.88778877887785 L 359.0211029391948,379.6379637963796 L 357.31057359750463,380.58805880588056 L 355.6950736636862,380.78807880788077 L 353.98454432199594,380.7380738073807 L 352.1789855724341,381.08810881088107 L 346.4297063961977,384.03840384038403 L 344.5291182387641,384.3884388438844 L 343.3412506403682,384.3884388438844 L 342.34344185771556,384.5884588458846 L 341.4406624829346,385.03850385038504 L 339.44504491762945,387.4387438743874 L 338.684809654656,387.8387838783878 L 336.40410386573575,388.48884888488845 L 335.453809787019,388.9388938893889 L 334.78860393191724,389.6389638963896 L 333.980853965008,391.8891889188919 L 333.1255892941629,392.7892789278928 L 331.08245702492184,394.13941394139414 L 327.13873659824725,395.33953395339535 L 326.1884425195305,396.2396239623962 L 324.8105161053912,398.4398439843984 L 323.6701632109311,399.039903990399 L 321.7220603495617,399.48994899489946 L 321.10436919839583,399.9399939993999 L 321.4369721259467,400.19001900190017 L 321.8170897574334,400.8900890089009 L 322.14969268498425,401.990199019902 L 322.0546632771126,402.44024402440243 L 321.15188390233163,403.54035403540354 L 320.1065604157432,404.1904190419042 L 317.39822229140043,404.24042404240424 L 315.11751650248016,404.84048404840485 L 313.1694136411108,406.09060906090605 L 311.88651663484313,407.99079907990796 L 306.9925021294518,421.84218421842183 L 305.85214923499166,424.19241924192414 L 304.33167870904487,426.2426242624262 L 303.0487817027772,428.39283928392837 L 302.6686640712905,429.3929392939294 L 302.47860525554717,430.6930693069307 L 302.6211493673547,431.7931793179318 L 303.4764140381998,433.7433743374337 L 303.6189581500073,434.9434943494349 z M 399.88374832401587,276.87768776877687 L 400.2638659555025,276.07760776077606 L 400.12132184369506,275.17751775177516 L 400.73901299486096,274.67746774677465 L 400.50143947518177,274.4274427442744 L 400.2638659555025,273.4273427342734 L 398.74339542955573,272.7272727272727 L 398.4107925020049,273.07730773077304 L 398.03067487051817,273.1273127312731 L 397.03286608786556,272.67726772677264 L 396.93783667999384,273.37733773377335 L 397.1278954957372,273.7273727372737 L 396.89032197605803,274.17741774177415 L 396.93783667999384,274.4274427442744 L 397.4604984232881,274.67746774677465 L 397.8406160547748,274.5274527452745 L 398.64836602168407,274.8274827482748 L 398.64836602168407,275.37753775377536 L 399.0759983571066,275.8275827582758 L 399.3135718767858,276.67766776677666 L 399.88374832401587,276.87768776877687 z M 311.64894311516395,351.68516851685166 L 315.11751650248016,350.9350935093509 L 317.1131340677854,351.3351335133513 L 318.2534869622455,350.88508850885086 L 318.06342814650213,348.78487848784874 L 315.4026047260952,348.98489848984894 L 312.6942666017524,349.78497849784975 L 311.36385489154895,350.4350435043504 L 311.64894311516395,351.68516851685166 z" /><path fill-rule="evenodd" fill="#D2EBD9" stroke="#A6A6A6" stroke-width="0.25" opacity="1" d="M 406.15568924354653,296.979697969797 L 405.1578804608939,299.02990299029904 L 404.825277533343,299.22992299229924 L 404.30261579004883,299.22992299229924 L 404.06504227036964,299.7799779977998 L 404.35013049398464,300.48004800480044 L 404.1600716782413,300.78007800780074 L 403.5898952310112,301.030103010301 L 404.255101086113,302.6302630263026 L 404.11255697430545,303.18031803180315 L 402.63960115229446,306.2806280628063 L 401.4992482578343,307.6807680768077 L 401.309189442091,309.3809380938094 L 396.2251161209563,316.2816281628163 L 392.6615133257684,318.8818881888189 L 391.901278062795,319.7319731973197 L 390.1907487211048,322.1322132213221 L 389.7631163856823,323.1323132313231 L 389.7631163856823,324.08240824082407 L 390.3808075368482,326.982698269827 L 390.47583694471984,328.13281328132814 L 390.0482046092973,331.18311831183115 L 390.23826342504066,334.2334233423342 L 391.1885575037574,335.83358335833583 L 391.94879276673083,340.2340234023402 L 391.8062486549233,342.38423842384236 L 390.5708663525915,346.6846684668467 L 390.9509839840782,348.6348634863486 L 391.5686751352441,350.5350535053505 L 391.71121924705164,352.68526852685267 L 391.33110161556493,353.6353635363536 L 390.61838105652737,354.3354335433543 L 389.7156016817464,354.6854685468547 L 387.6724694125054,354.73547354735473 L 385.91442536687936,355.5855585558556 L 383.01602842679324,355.03550355035503 L 378.97727859224693,355.5855585558556 L 373.2279994160105,355.5855585558556 L 371.46995537038447,355.33553355335533 L 369.56936721295097,354.3354335433543 L 369.7594260286943,350.7350735073507 L 368.66658783817,347.6847684768477 L 367.57374964764574,343.08430843084307 L 366.8610290886082,339.2339233923392 L 366.8610290886082,335.3835383538354 L 367.57374964764574,330.03300330033 L 369.7594260286943,326.93269326932693 L 371.51747007432033,323.48234823482346 L 373.7031464553689,318.13181318131814 L 375.4611905009949,313.1313131313131 L 376.5540286915192,308.13081308130813 L 378.35958744108103,304.6304630463046 L 380.8778667496805,301.58015801580154 L 384.8215871763551,299.62996299629964 L 388.38518997154296,299.62996299629964 L 392.70902802970426,298.4798479847985 L 395.9400278973413,298.8798879887989 L 399.50363069252916,298.8798879887989 L 402.4020276326153,297.3297329732973 L 406.15568924354653,296.979697969797 z M 383.20608724253657,321.2321232123212 L 383.63371957795914,321.18211821182115 L 383.96632250551,320.78207820782075 L 383.91880780157413,320.28202820282024 L 383.3486313543441,319.8319831983198 L 383.06354313072904,319.0819081908191 L 383.25360194647243,318.2818281828183 L 384.0138372094458,317.93179317931794 L 384.2038960251892,317.4817481748175 L 384.29892543306084,315.8315831583158 L 384.1563813212533,315.5315531553155 L 383.06354313072904,315.28152815281527 L 381.6381020126539,316.031603160316 L 380.8778667496805,316.2316231623162 L 380.59277852606544,315.5315531553155 L 379.45242563160537,315.58155815581557 L 378.5971609607602,315.8315831583158 L 378.4071021450169,316.2316231623162 L 378.45461684895275,316.8816881688169 L 378.6446756646961,317.43174317431743 L 379.262366815862,317.93179317931794 L 379.2148521119261,318.53185318531854 L 379.73751385522036,318.6818681868187 L 380.4027197103221,319.18191819181914 L 381.0679255654238,320.2320232023202 L 381.6381020126539,320.38203820382034 L 383.20608724253657,321.2321232123212 z" /><path fill-rule="evenodd" fill="#D2EBD9" stroke="#A6A6A6" stroke-width="0.25" opacity="1" d="M 354.1746031377393,176.36763676367636 L 352.89170613147166,176.2176217621762 L 352.27401498030576,175.66756675667565 L 351.0861473819098,174.017401740174 L 350.37342682287226,175.2175217521752 L 349.99330919138555,174.16741674167415 L 348.3302945536312,171.76717671767176 L 347.6175739945936,170.26702670267025 L 347.2374563631069,170.16701670167015 L 345.90704465290344,170.26702670267025 L 344.6241476466358,169.01690169016902 L 341.630721298678,165.26652665266525 L 306.27978157041423,186.4186418641864 L 303.0487817027772,152.56525652565256 L 301.5283111768304,144.46444644464447 L 300.86310532172865,143.2143214321432 L 300.24541417056275,141.56415641564155 L 299.48517890758933,138.4138413841384 L 299.580208315461,136.86368636863685 L 299.9128112430119,135.76357635763574 L 300.3879582823703,135.36353635363537 L 300.9581347296003,135.21352135213522 L 302.811208183098,134.16341634163416 L 306.944987425516,131.3131313131313 L 310.98373726006224,128.5128512851285 L 313.21692834504665,126.36263626362636 L 313.69207538440503,125.6125612561256 L 319.3938398567056,127.41274127412741 L 321.76957505349753,127.76277627762775 L 325.760810184108,127.16271627162716 L 329.08683945961667,130.61306130613062 L 330.93991291311437,135.21352135213522 L 332.17529521544617,136.86368636863685 L 333.55322162958544,138.013801380138 L 336.8792509050941,140.16401640164017 L 339.9677066609236,143.4143414341434 L 340.3953389963462,144.21442144214421 L 341.4406624829346,144.81448144814482 L 345.9545593568393,146.26462646264625 L 346.9998828434277,146.86468646864685 L 347.807632810337,147.6147614761476 L 348.3302945536312,148.6148614861486 L 349.3281033362838,153.46534653465346 L 349.42313274415545,155.96559655965595 L 352.9867355393434,170.66706670667065 L 353.1767943550867,172.16721672167216 L 352.84419142753586,173.31733173317332 L 354.269632545611,175.96759675967596 L 354.1746031377393,176.36763676367636 z" /><path fill-rule="evenodd" fill="#D2EBD9" stroke="#A6A6A6" stroke-width="0.25" opacity="1" d="M 313.69207538440503,125.6125612561256 L 313.21692834504665,126.36263626362636 L 310.98373726006224,128.5128512851285 L 306.944987425516,131.3131313131313 L 306.89747272158013,130.01300130013001 L 304.37919341298067,126.2126212621262 L 304.37919341298067,124.81248124812481 L 303.09629640671307,123.012301230123 L 300.9581347296003,122.86228622862285 L 299.7702671312044,122.51225122512251 L 298.0597377895142,122.96229622962295 L 297.39453193441244,124.16241624162416 L 296.91938489505407,127.7127712771277 L 289.4120616731916,119.56195619561956 L 288.46176759447485,115.6115611561156 L 286.7512382527847,113.7113711371137 L 286.84626766065634,112.96129612961296 L 286.5611794370413,111.5111511151115 L 284.9456795032228,106.6106610661066 L 285.04070891109444,106.26062606260625 L 287.51147351575804,106.26062606260625 L 288.0341352590523,106.010601060106 L 288.0341352590523,105.26052605260526 L 282.04728256313666,84.15841584158416 L 282.09479726707247,83.5083508350835 L 282.3798854906875,82.9082908290829 L 287.65401762756557,80.7080708070807 L 288.22419407479566,82.00820082008201 L 289.8396940086141,89.30893089308931 L 294.25856147464714,99.3099309930993 L 295.3989143691072,103.01030103010301 L 296.91938489505407,105.76057605760576 L 297.01441430292573,107.81078107810781 L 298.4873701249367,111.26112611261125 L 299.01003186823095,113.01130113011301 L 299.0575465721668,115.26152615261526 L 298.5348848288726,119.36193619361936 L 298.5823995328084,120.7120712071207 L 298.86748775642343,121.012101210121 L 300.9581347296003,121.66216621662166 L 303.5239287421356,121.56215621562156 L 304.33167870904487,121.96219621962196 L 305.9471786428634,123.16231623162315 L 313.69207538440503,125.6125612561256 z M 289.07945874564075,97.05970597059705 L 289.31703226531994,97.009700970097 L 289.4120616731916,96.40964096409641 L 290.0297528243575,96.5096509650965 L 290.07726752829336,96.10961096109611 L 290.36235575190835,95.85958595859586 L 290.0297528243575,95.5095509550955 L 290.07726752829336,95.25952595259525 L 289.74466460074245,94.95949594959495 L 289.88720871255,94.65946594659465 L 290.31484104797255,94.65946594659465 L 290.31484104797255,94.1094109410941 L 290.0297528243575,93.55935593559356 L 289.4120616731916,93.25932593259326 L 289.07945874564075,93.50935093509351 L 287.9866205551165,93.3093309330933 L 288.6043117062824,94.65946594659465 L 288.6043117062824,95.55955595559556 L 289.07945874564075,97.05970597059705 z" /><path fill-rule="evenodd" fill="#D2EBD9" stroke="#A6A6A6" stroke-width="0.25" opacity="1" d="M 287.65401762756557,80.7080708070807 L 282.3798854906875,82.9082908290829 L 282.09479726707247,83.5083508350835 L 282.04728256313666,84.15841584158416 L 288.0341352590523,105.26052605260526 L 288.0341352590523,106.010601060106 L 287.51147351575804,106.26062606260625 L 285.04070891109444,106.26062606260625 L 284.9456795032228,106.6106610661066 L 286.5611794370413,111.5111511151115 L 286.84626766065634,112.96129612961296 L 286.7512382527847,113.7113711371137 L 288.46176759447485,115.6115611561156 L 289.4120616731916,119.56195619561956 L 285.13573831896616,119.71197119711971 L 284.2329589441852,119.96199619961996 L 278.2461062482696,123.3123312331233 L 245.1283576049902,133.9133913391339 L 245.4609605325411,126.1126112611261 L 236.19559326505262,125.6125612561256 L 236.2906226729243,136.7136713671367 L 155.89574361348573,162.4162416241624 L 155.70568479774238,116.56165616561655 L 156.03828772529326,115.26152615261526 L 157.51124354730425,115.01150115011501 L 206.1187856736669,115.31153115311531 L 207.6867709035496,115.01150115011501 L 208.49452087045884,114.36143614361436 L 214.33882945456696,108.21082108210821 L 215.5266970529629,106.46064606460645 L 215.7642705726421,105.21052105210521 L 216.57202053955135,78.55785578557855 L 218.2350351773057,76.35763576357635 L 224.0793437614138,70.4070407040704 L 224.88709372832307,70.15701570157016 L 227.21531422117914,70.00700070007001 L 228.54572593138263,68.95689568956895 L 229.2584464904202,64.15641564156415 L 233.10713750922312,62.7062706270627 L 235.8154756335659,60.85608560856085 L 237.57351967919192,60.45604560456045 L 241.27966658618732,60.85608560856085 L 244.36812234201682,60.106010601060106 L 245.88859286796364,60.3060306030603 L 248.9295339198573,61.106110611061105 L 249.9273427025099,61.55615561556155 L 252.96828375440356,63.85638563856385 L 255.2489895433238,64.95649564956496 L 257.1970924046932,65.25652565256526 L 259.14519526606256,64.95649564956496 L 261.47341575891863,64.2064206420642 L 263.5640627320955,63.85638563856385 L 274.1598417097875,64.95649564956496 L 277.818473912847,66.75667566756675 L 284.3279883520569,71.9071907190719 L 285.42082654258115,75.3075307530753 L 287.65401762756557,80.7080708070807 z" /><path fill-rule="evenodd" fill="#D2EBD9" stroke="#A6A6A6" stroke-width="0.25" opacity="1" d="M 0.09502940787167677,200.6200620062006 L 0.14254411180751514,120.5120512051205 L 0.4276323354225455,119.56195619561956 L 1.615499933818505,118.5118511851185 L 2.5657940125352727,117.01170117011701 L 5.226617432942223,114.91149114911491 L 6.557029143145697,113.36133613361335 L 7.602352629734142,112.81128112811281 L 9.170337859616808,112.61126112611261 L 13.066543582355555,110.26102610261026 L 19.576058021565416,104.8104810481048 L 20.146234468795473,104.06040604060405 L 21.714219698678143,100.61006100610061 L 23.092146112817456,98.45984598459846 L 23.662322560047514,97.25972597259725 L 23.56729315217584,96.40964096409641 L 23.139660816753292,95.45954595459546 L 23.61480785611168,94.7094709470947 L 25.515396013545214,93.75937593759376 L 25.705454829288566,91.9091909190919 L 27.273440059171232,90.75907590759076 L 27.36846946704291,90.25902590259025 L 26.9883518355562,89.6089608960896 L 26.9883518355562,89.15891589158916 L 27.93864591427297,87.6087608760876 L 28.271248841823837,85.85858585858585 L 28.603851769374707,85.25852585258525 L 30.88455755829495,84.00840084008401 L 31.16964578190998,83.5083508350835 L 31.359704597653334,82.4082408240824 L 32.11993986062675,82.5082508250825 L 31.834851637011717,80.75807580758075 L 32.35751338030594,80.55805580558055 L 33.260292755086866,81.008100810081 L 33.735439794445256,81.008100810081 L 34.40064564954699,80.45804580458045 L 32.88017512360016,79.50795079507951 L 32.547572196049295,78.6078607860786 L 32.45254278817762,77.05770577057706 L 34.73324857709786,75.00750075007501 L 35.113366208584566,73.5073507350735 L 34.82827798496954,72.95729572957295 L 33.68792509050942,72.25722572257226 L 33.45035157083022,71.85718571857186 L 33.59289568263774,71.25712571257125 L 34.73324857709786,70.95709570957095 L 35.113366208584566,70.65706570657065 L 35.113366208584566,70.00700070007001 L 34.68573387316202,68.8068806880688 L 34.68573387316202,68.2068206820682 L 35.113366208584566,67.65676567656766 L 36.396263214852205,67.006700670067 L 36.91892495814643,66.55665566556655 L 37.44158670144065,65.55655565556555 L 38.48691018802909,61.8061806180618 L 37.96424844473487,60.75607560756075 L 37.91673374079903,60.2060206020602 L 39.38968956281002,60.7060706070607 L 39.95986601004008,60.056005600560056 L 41.3377924241794,56.455645564556455 L 41.81293946353778,51.605160516051605 L 41.670395351730264,47.55475547554755 L 41.86045416747362,46.45464546454645 L 43.76104232490715,43.1043104310431 L 43.570983509163796,42.204220422042205 L 41.38530712811523,39.1039103910391 L 40.435013049398464,36.9036903690369 L 39.29466015493834,34.903490349034904 L 36.348748510916366,31.203120312031203 L 34.87579268890537,28.35283528352835 L 34.1630721298678,27.45274527452745 L 32.64260160392097,26.352635263526352 L 31.787336933075878,22.6022602260226 L 31.644792821268364,20.95209520952095 L 31.787336933075878,19.55195519551955 L 32.927689827536,17.65176517651765 L 33.165263347215195,16.851685168516852 L 33.07023393934352,15.5015501550155 L 31.977395748819234,11.701170117011701 L 31.977395748819234,9.950995099509951 L 32.26248397243426,7.85078507850785 L 32.78514571572848,5.8005800580058 L 33.49786627476606,4.25042504250425 L 33.782954498381095,3.8003800380038 L 34.82827798496954,3.0003000300030003 L 35.35093972826376,2.35023502350235 L 36.11117499123717,0.0 L 37.34655729356897,0.95009500950095 L 40.62507186514182,2.5002500250025 L 42.9532923579979,4.15041504150415 L 44.283704068201374,4.85048504850485 L 47.13458630435168,5.2005200520052 L 49.272747981464406,4.3004300430043 L 51.315880250705455,3.0003000300030003 L 58.01545350565867,1.5001500150015001 L 59.583438735541336,1.55015501550155 L 64.0023062015743,2.8502850285028503 L 66.85318843772461,2.7002700270027002 L 71.08199708801422,3.85038503850385 L 73.41021758087031,3.95039503950395 L 74.59808517926626,3.7003700370037 L 77.06884978392986,2.6002600260026 L 81.39268784209115,2.45024502450245 L 84.38611419004897,1.6501650165016502 L 85.47895238057325,1.6501650165016502 L 86.61930527503337,2.1002100210021 L 89.51770221511951,4.05040504050405 L 90.42048158990045,4.9504950495049505 L 90.9906580371305,5.95059505950595 L 91.2282315568097,7.000700070007 L 90.70556981351548,10.65106510651065 L 90.75308451745131,11.55115511551155 L 91.37077566861721,12.15121512151215 L 92.70118737882069,12.601260126012601 L 94.31668731263919,12.901290129012901 L 99.25821652196639,12.95129512951295 L 102.44170168566755,13.7013701370137 L 105.43512803362538,15.551555155515551 L 107.9534073422248,18.151815181518153 L 109.90151020359419,21.15211521152115 L 111.51701013741268,25.65256525652565 L 112.5148189200653,27.652765276527653 L 114.55795118930635,29.75297529752975 L 115.08061293260057,30.9030903090309 L 115.50824526802312,31.253125312531253 L 118.64421572778845,31.9031903190319 L 119.87959803012025,32.553255325532554 L 122.49290674659136,35.15351535153515 L 124.25095079221738,37.7037703770377 L 125.34378898274166,38.653865386538655 L 126.95928891656017,38.95389538953895 L 129.2399947054804,38.453845384538454 L 130.14277408026135,38.8038803880388 L 131.0930681589781,40.25402540254025 L 131.90081812588735,42.204220422042205 L 132.47099457311742,42.95429542954295 L 134.0864945069359,44.3044304430443 L 136.17714148011282,47.6047604760476 L 136.22465618404865,48.25482548254825 L 136.0345973683053,49.304930493049305 L 136.5572591115995,49.75497549754975 L 138.0302149336105,50.305030503050304 L 138.5053619729689,50.65506550655065 L 139.21808253200646,52.3052305230523 L 139.360626643814,53.65536553655365 L 139.31311193987815,54.9054905490549 L 139.07553842019894,55.6055605560556 L 138.4103325650972,56.65566556655665 L 138.98050901232727,57.605760576057605 L 140.73855305795328,59.3059305930593 L 141.30872950518335,60.25602560256025 L 140.92861187369664,61.4061406140614 L 140.54849424220996,62.006200620062 L 140.07334720285155,62.256225622562255 L 140.02583249891572,63.05630563056305 L 140.31092072253074,64.25642564256425 L 141.02364128156833,65.45654565456546 L 143.25683236655274,68.1068106810681 L 143.54192059016776,68.65686568656865 L 143.77949410984695,70.05700570057006 L 143.54192059016776,71.15711571157115 L 143.5894352941036,71.6071607160716 L 144.3021558531412,72.10721072107211 L 144.72978818856373,72.65726572657265 L 143.73197940591112,74.4074407440744 L 143.73197940591112,74.90749074907491 L 144.3021558531412,76.2076207620762 L 145.29996463579377,79.70797079707971 L 145.63256756334465,80.25802580258025 L 146.91546456961228,80.75807580758075 L 147.48564101684235,81.4081408140814 L 148.2933909837516,83.6083608360836 L 149.1486556545967,84.8084808480848 L 150.95421440415853,85.8085808580858 L 151.57190555532443,87.2087208720872 L 153.52000841669383,89.25892589258926 L 154.75539071902563,89.9089908990899 L 155.94325831742157,89.7089708970897 L 156.79852298826665,88.4088408840884 L 157.9388758827268,89.15891589158916 L 161.74005219759385,90.95909590959096 L 164.1157873943858,91.7091709170917 L 166.63406670298522,91.85918591859185 L 169.43743423519967,91.35913591359136 L 172.52588999102917,90.25902590259025 L 173.4286693658101,90.35903590359035 L 175.75688985866617,91.10911091109111 L 176.46961041770376,90.85908590859086 L 177.70499272003556,89.20892089208921 L 178.84534561449567,88.1088108810881 L 180.36581614044252,87.45874587458745 L 181.64871314671015,86.65866586658666 L 186.97035998752403,82.4082408240824 L 188.01568347411248,81.2081208120812 L 190.81905100632696,80.3080308030803 L 191.29419804568533,79.9079907990799 L 192.14946271653042,78.2078207820782 L 194.0975655778998,77.30773077307731 L 196.04566843926918,74.75747574757476 L 198.32637422818942,73.05730573057305 L 199.08660949116282,71.95719571957196 L 200.08441827381543,71.35713571357135 L 202.69772699028655,72.007200720072 L 203.26790343751662,71.9071907190719 L 204.31322692410507,71.15711571157115 L 204.3607416280409,70.7070707070707 L 204.07565340442585,70.20702070207021 L 204.17068281229754,69.95699569956996 L 205.26352100282182,70.10701070107011 L 210.53765313969987,71.55715571557155 L 213.19847656010683,71.55715571557155 L 215.43166764509124,70.25702570257026 L 218.90024103240745,66.05660566056605 L 221.03840270952017,64.45644564456445 L 223.60419672205543,64.05640564056405 L 226.0274466227832,64.85648564856486 L 227.02525540543581,64.95649564956496 L 229.2584464904202,64.15641564156415 L 228.54572593138263,68.95689568956895 L 227.21531422117914,70.00700070007001 L 224.88709372832307,70.15701570157016 L 224.0793437614138,70.4070407040704 L 218.2350351773057,76.35763576357635 L 216.57202053955135,78.55785578557855 L 215.7642705726421,105.21052105210521 L 215.5266970529629,106.46064606460645 L 214.33882945456696,108.21082108210821 L 208.49452087045884,114.36143614361436 L 207.6867709035496,115.01150115011501 L 206.1187856736669,115.31153115311531 L 157.51124354730425,115.01150115011501 L 156.03828772529326,115.26152615261526 L 155.70568479774238,116.56165616561655 L 155.89574361348573,162.4162416241624 L 155.70568479774238,182.16821682168217 L 154.80290542296146,186.2186218621862 L 151.95202318681115,186.2186218621862 L 151.09675851596606,186.4186418641864 L 150.9066997002227,192.11921192119212 L 151.09675851596606,194.2194219421942 L 151.5243908513886,194.66946694669466 L 152.04705259468284,194.86948694869486 L 154.32775838360308,194.8194819481948 L 155.37308187019153,195.7195719571957 L 156.0858024292291,200.47004700470046 L 0.09502940787167677,200.6200620062006 z" /><path fill-rule="evenodd" fill="#D2EBD9" stroke="#A6A6A6" stroke-width="0.25" opacity="1" d="M 0.09502940787167677,200.6200620062006 L 156.0858024292291,200.47004700470046 L 266.84257730366835,200.07000700070006 L 276.8206651301944,220.32203220322032 L 197.85122718883105,327.03270327032703 L 50.84073321134707,327.03270327032703 L 51.03079202709043,274.47744774477445 L 50.36558617198869,272.47724772477244 L 0.0,272.47724772477244 L 0.09502940787167677,200.6200620062006 z" /><path fill-rule="evenodd" fill="#D2EBD9" stroke="#A6A6A6" stroke-width="0.25" opacity="1" d="M 276.8206651301944,220.32203220322032 L 266.84257730366835,200.07000700070006 L 156.0858024292291,200.47004700470046 L 155.37308187019153,195.7195719571957 L 154.32775838360308,194.8194819481948 L 152.04705259468284,194.86948694869486 L 151.5243908513886,194.66946694669466 L 151.09675851596606,194.2194219421942 L 150.9066997002227,192.11921192119212 L 151.09675851596606,186.4186418641864 L 151.95202318681115,186.2186218621862 L 154.80290542296146,186.2186218621862 L 155.70568479774238,182.16821682168217 L 155.89574361348573,162.4162416241624 L 236.2906226729243,136.7136713671367 L 245.1283576049902,133.9133913391339 L 278.2461062482696,123.3123312331233 L 284.2329589441852,119.96199619961996 L 285.13573831896616,119.71197119711971 L 289.4120616731916,119.56195619561956 L 296.91938489505407,127.7127712771277 L 302.811208183098,134.16341634163416 L 300.9581347296003,135.21352135213522 L 300.3879582823703,135.36353635363537 L 299.9128112430119,135.76357635763574 L 299.580208315461,136.86368636863685 L 299.48517890758933,138.4138413841384 L 300.24541417056275,141.56415641564155 L 300.86310532172865,143.2143214321432 L 301.5283111768304,144.46444644464447 L 303.0487817027772,152.56525652565256 L 306.27978157041423,186.4186418641864 L 299.48517890758933,196.1196119611961 L 297.2044731186691,198.4198419841984 L 292.7380909487003,199.86998699869986 L 292.07288509359853,200.17001700170016 L 291.645252758176,200.57005700570056 L 276.8206651301944,220.32203220322032 z" /><path fill-rule="evenodd" fill="#D2EBD9" stroke="#A6A6A6" stroke-width="0.25" opacity="1" d="M 296.91938489505407,127.7127712771277 L 297.39453193441244,124.16241624162416 L 298.0597377895142,122.96229622962295 L 299.7702671312044,122.51225122512251 L 300.9581347296003,122.86228622862285 L 303.09629640671307,123.012301230123 L 304.37919341298067,124.81248124812481 L 304.37919341298067,126.2126212621262 L 306.89747272158013,130.01300130013001 L 306.944987425516,131.3131313131313 L 302.811208183098,134.16341634163416 L 296.91938489505407,127.7127712771277 z" /><path fill-rule="evenodd" fill="#D2EBD9" stroke="#A6A6A6" stroke-width="0.25" opacity="1" d="M 236.2906226729243,136.7136713671367 L 236.19559326505262,125.6125612561256 L 245.4609605325411,126.1126112611261 L 245.1283576049902,133.9133913391339 L 236.2906226729243,136.7136713671367 z" /><path fill-rule="evenodd" fill="#D2EBD9" stroke="#A6A6A6" stroke-width="0.25" opacity="1" d="M 383.20608724253657,321.2321232123212 L 381.6381020126539,320.38203820382034 L 381.0679255654238,320.2320232023202 L 380.4027197103221,319.18191819181914 L 379.73751385522036,318.6818681868187 L 379.2148521119261,318.53185318531854 L 379.262366815862,317.93179317931794 L 378.6446756646961,317.43174317431743 L 378.45461684895275,316.8816881688169 L 378.4071021450169,316.2316231623162 L 378.5971609607602,315.8315831583158 L 379.45242563160537,315.58155815581557 L 380.59277852606544,315.5315531553155 L 380.8778667496805,316.2316231623162 L 381.6381020126539,316.031603160316 L 383.06354313072904,315.28152815281527 L 384.1563813212533,315.5315531553155 L 384.29892543306084,315.8315831583158 L 384.2038960251892,317.4817481748175 L 384.0138372094458,317.93179317931794 L 383.25360194647243,318.2818281828183 L 383.06354313072904,319.0819081908191 L 383.3486313543441,319.8319831983198 L 383.91880780157413,320.28202820282024 L 383.96632250551,320.78207820782075 L 383.63371957795914,321.18211821182115 L 383.20608724253657,321.2321232123212 z" /><path fill-rule="evenodd" fill="#D2EBD9" stroke="#A6A6A6" stroke-width="0.25" opacity="1" d="M 289.07945874564075,97.05970597059705 L 288.6043117062824,95.55955595559556 L 288.6043117062824,94.65946594659465 L 287.9866205551165,93.3093309330933 L 289.07945874564075,93.50935093509351 L 289.4120616731916,93.25932593259326 L 290.0297528243575,93.55935593559356 L 290.31484104797255,94.1094109410941 L 290.31484104797255,94.65946594659465 L 289.88720871255,94.65946594659465 L 289.74466460074245,94.95949594959495 L 290.07726752829336,95.25952595259525 L 290.0297528243575,95.5095509550955 L 290.36235575190835,95.85958595859586 L 290.07726752829336,96.10961096109611 L 290.0297528243575,96.5096509650965 L 289.4120616731916,96.40964096409641 L 289.31703226531994,97.009700970097 L 289.07945874564075,97.05970597059705 z" /><path fill-rule="evenodd" fill="#D2EBD9" stroke="#A6A6A6" stroke-width="0.25" opacity="1" d="M 399.88374832401587,276.87768776877687 L 399.3135718767858,276.67766776677666 L 399.0759983571066,275.8275827582758 L 398.64836602168407,275.37753775377536 L 398.64836602168407,274.8274827482748 L 397.8406160547748,274.5274527452745 L 397.4604984232881,274.67746774677465 L 396.93783667999384,274.4274427442744 L 396.89032197605803,274.17741774177415 L 397.1278954957372,273.7273727372737 L 396.93783667999384,273.37733773377335 L 397.03286608786556,272.67726772677264 L 398.03067487051817,273.1273127312731 L 398.4107925020049,273.07730773077304 L 398.74339542955573,272.7272727272727 L 400.2638659555025,273.4273427342734 L 400.50143947518177,274.4274427442744 L 400.73901299486096,274.67746774677465 L 400.12132184369506,275.17751775177516 L 400.2638659555025,276.07760776077606 L 399.88374832401587,276.87768776877687 z" /><path fill-rule="evenodd" fill="#D2EBD9" stroke="#A6A6A6" stroke-width="0.25" opacity="1" d="M 311.64894311516395,351.68516851685166 L 311.36385489154895,350.4350435043504 L 312.6942666017524,349.78497849784975 L 315.4026047260952,348.98489848984894 L 318.06342814650213,348.78487848784874 L 318.2534869622455,350.88508850885086 L 317.1131340677854,351.3351335133513 L 315.11751650248016,350.9350935093509 L 311.64894311516395,351.68516851685166 z" /></g></g></g></svg>