<svg xmlns="http://www.w3.org/2000/svg" xmlns:xlink="http://www.w3.org/1999/xlink" width="333.69421722367406" height="500.0" viewBox="0.0 0.0 333.69421722367406 500.0" preserveAspectRatio="xMinYMin meet"><g transform="matrix(1,0,0,-1,0,500.0)"><g><g><path fill-rule="evenodd" fill="#D2EBD9" stroke="#A6A6A6" stroke-width="0.25" opacity="1" d="M 61.706231387796116,70.00700070007001 L 61.706231387796116,69.80698069806981 L 60.53818482285676,69.5069506950695 L 60.53818482285676,69.25692569256925 L 61.272385520818645,68.25682568256825 L 62.941023470732006,61.9061906190619 L 62.84090519373721,60.5060506050605 L 62.30694104976493,59.35593559355935 L 60.57155758185503,56.95569556955695 L 59.90410240188969,55.155515551555155 L 59.47025653491221,53.2053205320532 L 59.303392739920874,47.7047704770477 L 58.40232824696766,45.2045204520452 L 57.100790646035236,39.4039403940394 L 56.9339268510439,31.3031303130313 L 56.633572020059496,30.3030303030303 L 56.06623511708896,29.8029802980298 L 56.566826502062966,29.05290529052905 L 56.46670822506816,27.35273527352735 L 56.566826502062966,26.452645264526453 L 57.134163405033505,25.752575257525752 L 59.23664722192434,24.15241524152415 L 60.77179413584464,23.65236523652365 L 63.50836037370255,22.302230223022303 L 64.3760521076575,22.15221522152215 L 122.04417965666327,22.15221522152215 L 122.47802552364075,23.1023102310231 L 122.6448893186321,24.9024902490249 L 123.51258105258704,26.452645264526453 L 123.2455989806009,27.602760276027603 L 123.31234449859744,28.002800280028 L 134.89269187099617,28.45284528452845 L 136.56132982090952,28.95289528952895 L 137.16203948287833,28.9028902890289 L 138.46357708381075,27.9027902790279 L 141.36700711666,27.1027102710271 L 142.83540851258377,27.3027302730273 L 146.63990303838622,27.2027202720272 L 149.94380617921468,27.502750275027502 L 153.2143365610449,27.3027302730273 L 155.78403900391146,27.502750275027502 L 158.32036868777976,27.15271527152715 L 160.18924319168272,27.1027102710271 L 164.02711047648347,28.05280528052805 L 164.92817496943667,28.55285528552855 L 165.3286480774159,28.6028602860286 L 167.29764085831366,27.502750275027502 L 168.0652143152738,27.35273527352735 L 170.46805296314903,27.9027902790279 L 172.1366909130624,27.8027802780278 L 175.3071030178978,26.75267526752675 L 176.3082857878458,27.002700270027002 L 177.0091137268094,26.5026502650265 L 178.0436692557557,26.1026102610261 L 183.88390208045246,25.252525252525253 L 184.78496657340568,25.4025402540254 L 185.8862676203485,26.2026202620262 L 186.4202317643208,26.402640264026402 L 188.98993420718736,25.6025602560256 L 189.39040731516656,26.1026102610261 L 190.52508112110763,25.802580258025802 L 191.02567250608166,26.002600260026 L 191.45951837305913,26.402640264026402 L 193.5286294309517,25.802580258025802 L 194.59655771889624,26.25262526252625 L 195.29738565785985,26.1026102610261 L 196.4988049817975,25.55255525552555 L 198.76815259367964,25.95259525952595 L 199.6358443276346,26.8026802680268 L 200.50353606158956,27.3027302730273 L 201.83844642152025,27.25272527252725 L 203.03986574545786,27.002700270027002 L 203.94093023841108,26.402640264026402 L 204.34140334639028,26.402640264026402 L 205.2424678393435,26.75267526752675 L 206.41051440428285,26.05260526052605 L 207.4784426922274,24.95249524952495 L 207.64530648721873,24.35243524352435 L 207.4784426922274,21.95219521952195 L 223.43062149339914,21.8021802180218 L 222.02896561547192,51.605160516051605 L 221.6284925074927,54.25542554255425 L 220.59393697854642,53.905390539053904 L 218.45808040265732,52.3052305230523 L 217.79062522269197,52.05520552055205 L 217.72387970469543,51.8051805180518 L 218.1910983306712,51.1051105110511 L 216.5558331397561,51.555155515551554 L 216.38896934476475,50.95509550955095 L 216.68932417574916,49.75497549754975 L 216.58920589875436,49.254925492549255 L 215.95512347778728,49.054905490549054 L 213.41879379391898,49.054905490549054 L 211.31630997702814,50.2050205020502 L 210.91583686904892,50.75507550755075 L 210.61548203806453,50.85508550855085 L 210.34849996607838,50.2050205020502 L 209.4140627141269,50.2050205020502 L 209.04696236514596,50.405040504050405 L 208.21264339018927,51.4051405140514 L 206.9778513072534,51.95519551955195 L 206.5773781992742,51.4051405140514 L 206.61075095827246,51.05510551055105 L 207.44506993322912,49.304930493049305 L 206.41051440428285,49.354935493549355 L 206.11015957329843,49.6049604960496 L 205.87655026031058,50.7050705070507 L 205.5428226703279,51.005100510051 L 204.50826714138162,51.4051405140514 L 204.60838541837643,52.05520552055205 L 204.17453955139894,52.605260526052604 L 203.54045713043186,52.755275527552755 L 203.0064929864596,52.3052305230523 L 202.43915608348905,52.5052505250525 L 201.83844642152025,52.3052305230523 L 201.30448227754798,52.655265526552654 L 200.60365433858436,52.755275527552755 L 200.00294467661553,52.605260526052604 L 199.60247156863633,51.8051805180518 L 199.30211673765191,51.655165516551655 L 199.00176190666753,51.755175517551756 L 198.76815259367964,52.55525552555255 L 198.50117052169352,52.55525552555255 L 198.0005791367195,51.95519551955195 L 195.43087669385292,52.755275527552755 L 194.59655771889624,52.755275527552755 L 193.5286294309517,53.75537553755375 L 192.62756493799847,52.855285528552855 L 192.06022803502793,53.3053305330533 L 189.99111697713536,53.45534553455345 L 188.58946109920814,54.005400540054005 L 187.58827832926013,54.105410541054106 L 186.98756866729133,54.65546554655465 L 185.95301313834503,55.105510551055104 L 184.6514755374126,56.95569556955695 L 184.51798450141953,57.505750575057505 L 184.3844934654265,62.406240624062406 L 183.98402035744726,64.55645564556455 L 183.28319241848365,66.45664566456645 L 181.68129998656684,69.25692569256925 L 180.54662618062574,70.65706570657065 L 177.50970511178343,73.5073507350735 L 176.14142199285448,75.3075307530753 L 175.44059405389086,76.6076607660766 L 175.3071030178978,77.35773577357736 L 176.07467647485794,82.55825582558255 L 174.50615680193937,84.40844084408441 L 173.17124644200868,86.85868586858686 L 172.60390953903814,87.2087208720872 L 172.1366909130624,87.2087208720872 L 171.6027267690901,86.95869586958695 L 169.19988812121488,84.35843584358436 L 164.594447379454,80.65806580658065 L 163.09267322453198,79.1079107910791 L 162.5587090805597,78.15781578157815 L 161.05693492563768,72.65726572657265 L 160.222615950681,72.10721072107211 L 158.12013213379015,71.5071507150715 L 157.38593143582827,71.4071407140714 L 156.88534005085427,71.55715571557155 L 156.78522177385946,72.05720572057206 L 157.21906764083695,73.007300730073 L 157.15232212284042,73.35733573357335 L 156.51823970187334,73.8073807380738 L 151.64581688812632,76.15761576157615 L 150.11066997420602,77.10771077107711 L 148.57552306028572,77.45774577457745 L 147.04037614636545,78.4078407840784 L 145.30499267845553,75.25752575257525 L 141.9677167786288,73.3073307330733 L 140.99990676767908,73.007300730073 L 140.5660609007016,72.60726072607261 L 139.16440502277436,70.10701070107011 L 138.16322225282636,67.3067306730673 L 137.69600362685063,66.95669566956695 L 134.45884600401868,65.40654065406541 L 132.3897349461261,64.75647564756476 L 124.61388209952986,64.7064706470647 L 122.11092517465981,64.25642564256425 L 120.30879618875338,64.55645564556455 L 117.50548443289894,64.15641564156415 L 115.13601854402197,66.5066506650665 L 114.90240923103408,66.9066906690669 L 114.50193612305489,68.6068606860686 L 113.1670257631242,69.35693569356935 L 112.69980713714845,70.00700070007001 L 111.99897919818484,73.25732573257325 L 111.5317605722091,74.35743574357436 L 110.26359573027494,75.95759575957595 L 109.6962588273044,76.35763576357635 L 107.3601656974257,76.1076107610761 L 106.35898292747768,76.6076607660766 L 105.35780015752967,76.8076807680768 L 101.48656011373066,76.4076407640764 L 101.2529508007428,76.6076607660766 L 100.85247769276359,78.5078507850785 L 100.65224113877399,78.85788578857886 L 100.28514078979305,79.1079107910791 L 98.54975732188315,79.20792079207921 L 94.6117717600876,78.3078307830783 L 80.99568608879459,74.25742574257426 L 77.55829191197306,73.7073707370737 L 77.25793708098865,73.85738573857385 L 75.08870774610128,81.008100810081 L 75.48918085408049,82.4082408240824 L 75.18882602309608,83.25832583258325 L 73.65367910917578,84.30843084308431 L 73.01959668820871,84.55845584558455 L 72.35214150824336,84.00840084008401 L 71.15072218430575,83.8083808380838 L 70.34977596834733,83.45834583458345 L 68.88137457242357,81.35813581358136 L 67.57983697149115,80.1080108010801 L 67.37960041750155,78.5078507850785 L 67.61320973048942,77.05770577057706 L 66.94575455052407,76.2076207620762 L 66.97912730952234,75.35753575357535 L 65.84445350358125,73.25732573257325 L 63.808715204686955,71.7071707170717 L 62.70741415774413,70.5070507050705 L 61.706231387796116,70.00700070007001 z" /><path fill-rule="evenodd" fill="#D2EBD9" stroke="#A6A6A6" stroke-width="0.25" opacity="1" d="M 246.55794347919834,362.8362836283628 L 257.13710808164905,363.5363536353635 L 269.78538374199235,360.38603860386036 L 271.5207672099022,360.28602860286026 L 276.96052692661976,361.98619861986197 L 278.9628924665158,361.9361936193619 L 281.46584939138586,361.3361336133613 L 282.80075975131655,361.2361236123612 L 284.03555183425243,361.5361536153615 L 285.7375625431641,362.8362836283628 L 288.10702843204103,363.1363136313631 L 290.6767308749076,363.036303630363 L 297.9519923365299,360.68606860686066 L 300.42157650240165,360.7360736073607 L 310.90062282785755,363.3863386338634 L 308.99837556495635,365.0865086508651 L 307.4966014100343,365.53655365536554 L 304.59317137718506,367.28672867286724 L 302.590805837289,369.036903690369 L 302.62417859628727,369.2369236923692 L 302.0234689343185,369.58695869586955 L 300.3882037434034,371.88718871887187 L 294.4478526417118,377.48774877487745 L 293.9472612567378,378.2378237823782 L 293.68027918475167,379.1379137913791 L 293.4466698717638,381.08810881088107 L 291.8114046808487,382.7882788278828 L 290.84359466989895,385.1885188518852 L 289.94253017694575,385.5885588558856 L 289.4419387919717,386.038603860386 L 288.0402829140445,386.28862886288624 L 287.3728277340792,386.7386738673867 L 287.07247290309476,387.5387538753875 L 287.10584566209303,388.6388638863886 L 287.3728277340792,389.68896889688966 L 287.8066736010566,390.48904890489047 L 287.87341911905315,391.18911891189117 L 287.5396915290705,392.2392239223922 L 284.23578838824204,398.68986898689866 L 284.10229735224897,400.3400340034003 L 284.8031252912126,403.2903290329033 L 282.90087802831135,407.59075907590756 L 282.3001683663425,415.8415841584158 L 282.80075975131655,419.29192919291927 L 283.80194252126455,420.7420742074207 L 284.10229735224897,421.4921492149215 L 284.0689245932507,421.94219421942194 L 283.5015876902802,422.6922692269227 L 283.5015876902802,423.1923192319232 L 284.2691611472403,427.042704270427 L 284.66963425521953,427.8427842784278 L 286.67199979511554,430.04300430043 L 287.2393366980861,431.24312431243123 L 286.7387453131121,432.6932693269327 L 285.0701073631987,434.99349934993495 L 284.3692794242351,436.99369936993696 L 284.33590666523685,438.7438743874387 L 284.66963425521953,439.6939693969397 L 285.4038349531814,439.74397439743973 L 285.57069874817273,439.94399439943993 L 285.53732598917446,440.24402440244023 L 285.00336184520216,440.8940894089409 L 286.17140841014157,442.3942394239424 L 284.8364980502109,445.4445444544454 L 284.10229735224897,445.5445544554455 L 283.56833320827667,445.89458945894586 L 283.3013511362906,446.59465946594656 L 283.20123285929577,447.69476947694767 L 284.13567011124724,448.7948794879488 L 283.4682149312819,450.34503450345034 L 283.6350787262732,450.54505450545054 L 284.90324356820736,450.74507450745074 L 284.7030070142178,451.24512451245124 L 283.5015876902802,452.5452545254525 L 283.6684514852715,453.69536953695365 L 283.13448734129923,454.49544954495445 L 283.13448734129923,454.99549954995496 L 283.5015876902802,455.7455745574557 L 282.70064147432174,456.49564956495647 L 281.89969525836335,456.8456845684568 L 281.0987490424049,456.7456745674567 L 280.36454834444305,456.19561956195616 L 279.863956959469,456.09560956095606 L 279.229874538502,456.59565956595657 L 278.29543728655045,457.6957695769577 L 277.1607634806094,458.4958495849585 L 276.96052692661976,458.7958795879588 L 276.8270358906267,459.44594459445943 L 277.361000034599,459.6959695969597 L 277.52786382959033,459.99599959996 L 277.49449107059206,460.44604460446044 L 276.96052692661976,461.1961196119612 L 277.2608817576042,463.046304630463 L 277.39437279359726,466.49664966496647 L 276.6601720956354,469.84698469846984 L 276.05946243366657,470.94709470947095 L 276.05946243366657,471.8471847184718 L 275.55887104869254,472.09720972097205 L 275.39200725370125,472.047204720472 L 275.45875277169773,471.8471847184718 L 274.85804310972895,472.29722972297225 L 274.95816138672376,473.047304730473 L 275.45875277169773,473.99739973997396 L 274.05709689377056,479.44794479447944 L 273.52313274979826,480.34803480348035 L 272.12147687187104,479.99799979998 L 271.3539034149109,480.0980098009801 L 270.619702716949,481.69816981698165 L 269.8521292599889,482.19821982198215 L 269.618519947001,482.048204820482 L 268.9844375260339,480.94809480948095 L 268.45047338206166,481.69816981698165 L 269.117928562027,483.1483148314831 L 268.81757373104256,483.8483848384838 L 268.116745792079,484.09840984098406 L 266.8485809501448,483.7483748374837 L 265.07982472323664,484.89848984898487 L 264.84621541024876,485.69856985698567 L 264.51248782026613,485.8485848584858 L 264.2121329892817,485.7485748574857 L 263.377814014325,485.09850985098507 L 262.97734090634583,485.048504850485 L 262.7771043523562,485.29852985298527 L 262.7103588343597,486.1486148614861 L 262.0762764133926,486.048604860486 L 261.84266710040475,486.6486648664866 L 261.84266710040475,488.2988298829883 L 259.7401832835139,490.14901490149015 L 259.2729646575381,490.7490749074907 L 259.3063374165364,491.3491349134913 L 259.97379259650177,493.3493349334933 L 260.0405381144983,494.29942994299427 L 259.90704707850523,494.99949994999497 L 256.90349876866117,499.4999499949995 L 256.1692980706993,500.0 L 240.85120169049463,499.84998499849985 L 245.72362450424166,476.19761976197617 L 245.7903700222382,472.79727972797275 L 246.09072485322258,471.8471847184718 L 245.85711554023473,469.0969096909691 L 246.22421588921566,468.44684468446843 L 246.82492555118446,468.0968096809681 L 247.4923807311498,467.9467946794679 L 256.3695346246889,467.6467646764676 L 259.1394736215451,466.996699669967 L 260.3408929454827,466.3466346634663 L 260.4743839814758,465.89658965896587 L 260.2407746684879,465.2465246524652 L 260.3408929454827,464.8464846484648 L 261.9427853773995,463.5463546354635 L 262.41000400337526,463.3463346334633 L 262.41000400337526,463.046304630463 L 261.8092943414065,462.7462746274627 L 263.54467780931634,461.64616461646165 L 264.2121329892817,461.04610461046104 L 264.51248782026613,460.14601460146014 L 264.74609713325395,459.94599459945994 L 266.28124404717425,460.5960596059606 L 266.7818354321483,460.34603460346034 L 267.01544474513616,459.8959895989599 L 267.0821902631327,459.44594459445943 L 266.247871288176,458.5958595859586 L 265.6471616262072,457.4957495749575 L 264.9129609282453,454.3454345434543 L 265.0130792052401,453.89538953895385 L 264.24550574828,453.3453345334533 L 264.3122512662765,452.4952495249525 L 265.1465702412332,450.5950595059506 L 265.2133157592297,449.7949794979498 L 265.0464519642384,448.3448344834483 L 264.57923333826267,446.9446944694469 L 263.64479608631115,442.3942394239424 L 263.31106849632846,441.6941694169417 L 261.54231226942034,439.1939193919392 L 261.5756850284186,438.7938793879388 L 261.97615813639777,438.2438243824382 L 262.9105953883493,438.19381938193817 L 263.2109502193337,437.99379937993797 L 264.97970644624183,435.6435643564356 L 265.2133157592297,434.7434743474347 L 265.246688518228,433.6433643364336 L 264.74609713325395,431.5931593159316 L 263.7782871223042,429.7429742974297 L 260.8081115714584,428.49284928492847 L 259.87367431950696,427.9427942794279 L 258.3051546465884,426.5426542654265 L 257.3707173946369,425.99259925992595 L 254.8343877107686,425.19251925192515 L 254.00006873581194,424.7424742474247 L 250.12882869201292,421.14211421142113 L 248.09309039311862,420.6420642064206 L 246.92504382817927,419.39193919391937 L 246.15747037121912,418.79187918791877 L 245.22303311926765,418.3418341834183 L 244.2552231083179,418.09180918091806 L 243.35415861536467,418.19181918191816 L 240.31723754652236,419.49194919491947 L 238.61522683761072,419.99199919992 L 237.28031647768003,419.99199919992 L 235.61167852776668,418.6418641864186 L 233.97641333685158,416.99169916991696 L 232.54138469992608,415.1415141514151 L 231.5068291709798,413.2913291329133 L 230.77262847301793,411.54115411541153 L 230.27203708804393,410.8410841084108 L 228.60339913813056,409.89098909890987 L 227.90257119916694,409.29092909290927 L 227.4353525731912,408.5408540854085 L 227.2351160192016,407.6407640764076 L 227.53547085018602,405.9405940594059 L 226.96813394721548,404.74047404740475 L 219.25902661861574,393.63936393639364 L 218.05760729467812,391.08910891089107 L 216.45571486276128,385.5885588558856 L 214.95394070783925,377.28772877287724 L 213.98613069688952,374.53745374537453 L 213.98613069688952,373.987398739874 L 214.35323104587044,372.5872587258726 L 214.25311276887564,371.98719871987197 L 213.5856575889103,370.48704870487046 L 213.05169344493802,369.8369836983698 L 211.7501558440056,368.88688868886885 L 212.75133861395364,367.1367136713671 L 213.6857758659051,366.53665366536654 L 214.21974000987737,366.53665366536654 L 216.3222238267682,367.18671867186714 L 218.75843523364173,367.036703670367 L 223.19701218041126,368.6368636863686 L 223.73097632438353,368.98689868986895 L 223.93121287837315,369.4369436943694 L 223.09689390341646,370.8370837083708 L 222.89665734942687,371.8371837183718 L 223.4639942523974,372.8372837283728 L 224.1981949503593,373.4873487348735 L 225.49973255129171,373.73737373737373 L 228.23629878914963,373.1373137313731 L 229.93830949806124,372.987298729873 L 231.70706572496942,373.1873187318732 L 232.60813021792262,373.0873087308731 L 234.94422334780134,372.6372637263726 L 236.34587922572857,372.18721872187217 L 236.94658888769737,371.78717871787177 L 238.18138097063326,369.98699869986996 L 239.58303684856048,369.036903690369 L 240.45072858251544,367.8367836783678 L 241.75226618344786,367.48674867486744 L 242.45309412241147,367.5367536753675 L 246.45782520220354,366.33663366336634 L 246.891671069181,365.63656365636564 L 246.55794347919834,362.8362836283628 z" /><path fill-rule="evenodd" fill="#D2EBD9" stroke="#A6A6A6" stroke-width="0.25" opacity="1" d="M 246.55794347919834,362.8362836283628 L 246.891671069181,365.63656365636564 L 246.45782520220354,366.33663366336634 L 242.45309412241147,367.5367536753675 L 241.75226618344786,367.48674867486744 L 240.45072858251544,367.8367836783678 L 239.58303684856048,369.036903690369 L 238.18138097063326,369.98699869986996 L 236.94658888769737,371.78717871787177 L 236.34587922572857,372.18721872187217 L 234.94422334780134,372.6372637263726 L 232.60813021792262,373.0873087308731 L 231.70706572496942,373.1873187318732 L 229.93830949806124,372.987298729873 L 228.23629878914963,373.1373137313731 L 225.49973255129171,373.73737373737373 L 224.1981949503593,373.4873487348735 L 223.4639942523974,372.8372837283728 L 222.89665734942687,371.8371837183718 L 223.09689390341646,370.8370837083708 L 223.93121287837315,369.4369436943694 L 223.73097632438353,368.98689868986895 L 223.19701218041126,368.6368636863686 L 218.75843523364173,367.036703670367 L 216.3222238267682,367.18671867186714 L 214.21974000987737,366.53665366536654 L 213.6857758659051,366.53665366536654 L 212.75133861395364,367.1367136713671 L 211.7501558440056,368.88688868886885 L 210.3151272070801,368.18681868186815 L 206.91110578925685,367.78677867786774 L 205.47607715233136,367.2367236723672 L 204.7085036953712,365.73657365736574 L 204.7085036953712,364.8864886488649 L 205.40933163433482,362.58625862586257 L 205.20909508034524,361.5361536153615 L 204.2079123103972,359.9359935993599 L 203.87418472041455,359.035903590359 L 203.94093023841108,358.035803580358 L 204.37477610538855,357.3357335733573 L 205.6429409473227,356.03560356035604 L 206.11015957329843,355.03550355035503 L 206.01004129630365,354.3354335433543 L 205.17572232134697,352.5352535253525 L 204.6417581773747,349.58495849584955 L 204.40814886438682,346.73467346734674 L 203.2067295404492,343.6343634363436 L 200.37004502559648,342.48424842484246 L 196.96602360777322,341.98419841984196 L 193.96247529792916,340.6340634063406 L 193.39513839495862,340.18401840184015 L 191.65975492704874,338.0838083808381 L 188.4559700632151,336.43364336433643 L 188.15561523223067,335.6335633563356 L 189.59064386915617,335.2835283528353 L 190.02448973613363,334.38343834383437 L 190.35821732611632,333.08330833083306 L 190.32484456711805,331.3331333133313 L 189.89099870014056,329.78297829782974 L 187.88863316024452,326.1826182618262 L 187.0209414262896,324.08240824082407 L 186.98756866729133,322.28222822282225 L 187.28792349827572,320.68206820682065 L 186.32011348732598,312.4312431243124 L 185.81952210235195,310.5310531053105 L 184.8850848504005,309.2809280928093 L 184.31774794742995,309.03090309030904 L 182.6157372385183,309.13091309130914 L 182.1151458535443,308.8808880888089 L 180.78023549361362,305.7305730573057 L 180.01266203665347,304.88048804880486 L 175.57408508988394,302.5302530253025 L 174.9066299099186,302.38023802380235 L 174.2725474889515,302.48024802480245 L 172.30355470805372,303.3303330333033 L 171.5359812510936,303.2303230323032 L 169.8005977831837,302.28022802280225 L 168.5658057002478,302.3302330233023 L 167.39775913530846,302.7302730273027 L 168.76604225423742,299.5799579957996 L 168.89953329023047,297.7297729772977 L 167.23089534031712,296.4296429642964 L 166.26308532936736,294.97949794979496 L 165.76249394439336,294.57945794579456 L 164.86142945144013,294.47944794479446 L 163.19279150152678,294.7294729472947 L 162.22498149057702,294.3294329432943 L 161.2571714796273,292.9292929292929 L 160.9234438896446,291.029102910291 L 161.0235621666394,289.02890289028903 L 161.69101734660475,285.5285528552855 L 161.5241535516134,284.27842784278425 L 162.0581176955857,283.77837783778375 L 163.86024668149213,281.27812781278124 L 172.1366909130624,273.7273727372737 L 173.17124644200868,273.17731773177314 L 174.13905645295844,272.9272927292729 L 175.20698474090298,272.7272727272727 L 177.4429595937869,272.6272627262726 L 178.11041477375224,272.4272427242724 L 179.41195237468466,270.4770477047705 L 179.51207065167947,270.02700270027003 L 179.4786978926812,269.5769576957696 L 178.84461547171412,268.3268326832683 L 179.01147926670544,266.026602660266 L 179.31183409768985,265.27652765276525 L 180.27964410863962,264.5264526452645 L 182.31538240753392,263.9263926392639 L 183.38331069547846,263.37633763376334 L 184.11751139344034,262.7262726272627 L 187.6216510882584,261.72617261726174 L 195.19726738086507,260.52605260526053 L 198.90164362967272,258.5258525852585 L 199.5357260506398,258.3258325832583 L 200.16980847160687,258.3258325832583 L 203.37359333544052,258.975897589759 L 205.6429409473227,258.87588758875887 L 205.94329577830712,259.3759375937594 L 206.27702336828978,262.026202620262 L 207.04459682524993,262.97629762976294 L 207.51181545122566,263.2263226322632 L 210.548736520068,262.57625762576254 L 211.7501558440056,261.6761676167617 L 212.91820240894495,260.52605260526053 L 214.58684035885832,259.6759675967597 L 216.88956072973875,258.17581758175817 L 217.4568976327093,258.07580758075807 L 217.89074349968678,258.27582758275827 L 218.8919262696348,259.1759175917592 L 220.42707318355508,259.7259725972597 L 222.5629297594442,260.8760876087609 L 223.33050321640434,261.02610261026103 L 225.03251392531595,260.62606260626063 L 226.03369669526398,260.62606260626063 L 230.97286502700754,261.72617261726174 L 231.97404779695555,261.82618261826184 L 232.47463918192955,261.72617261726174 L 233.00860332590184,261.1761176117612 L 233.07534884389838,259.2759275927593 L 233.87629505985677,258.47584758475847 L 235.01096886579788,258.17581758175817 L 242.55321239940628,257.37573757375736 L 243.28741309736813,256.8256825682568 L 243.62114068735082,255.27552755275525 L 244.05498655432828,254.42544254425442 L 246.55794347919834,252.27522752275226 L 246.82492555118446,251.9251925192519 L 246.92504382817927,251.2251225122512 L 247.75936280313596,249.82498249824982 L 250.06208317401638,247.3247324732473 L 251.96433043691763,245.87458745874585 L 252.66515837588125,244.47444744474447 L 252.7986494118743,242.07420742074206 L 252.56504009888644,240.97409740974095 L 252.66515837588125,240.27402740274027 L 252.9988859658639,239.87398739873987 L 254.00006873581194,239.52395239523952 L 255.06799702375648,239.47394739473947 L 258.2050363695936,239.77397739773977 L 259.37308293453293,239.52395239523952 L 260.0739108734966,239.07390739073907 L 260.5411294994723,238.5238523852385 L 262.30988572638046,235.67356735673567 L 264.97970644624183,235.17351735173517 L 265.61378886720894,234.17341734173417 L 266.51485336016214,233.5233523352335 L 267.5494088891084,233.37333733373336 L 269.05118304403044,233.77337733773376 L 272.78893205183635,236.023602360236 L 281.8329497403668,239.97399739973997 L 283.20123285929577,240.32403240324032 L 284.90324356820736,240.42404240424042 L 285.57069874817273,240.67406740674065 L 286.17140841014157,241.024102410241 L 288.84122913000294,243.37433743374336 L 289.8090391409527,243.97439743974397 L 291.07720398288683,244.27442744274427 L 292.04501399383656,243.97439743974397 L 292.67909641480367,244.52445244524452 L 296.01637231463036,246.37463746374635 L 298.0521106135247,247.97479747974796 L 298.8530568294831,249.17491749174917 L 300.12122167141723,249.32493249324932 L 300.22133994841204,249.92499249924992 L 299.3870209734554,250.67506750675065 L 299.5538847684467,251.37513751375135 L 303.9924617152162,257.47574757475746 L 305.1605082801556,259.8759875987599 L 305.72784518312613,262.47624762476244 L 305.7612179421244,266.9266926692669 L 303.4251248122457,267.4267426742674 L 302.52406031929246,267.47674767476747 L 300.4549492613999,268.976897689769 L 298.98654786547615,272.57725772577254 L 296.35009990461305,281.97819781978194 L 289.3418205149769,296.979697969797 L 286.17140841014157,300.3300330033003 L 283.6350787262732,304.2304230423042 L 282.73401423332,304.88048804880486 L 279.4301110924916,305.6305630563056 L 278.7626559125262,307.980798079808 L 278.52904659953833,308.3808380838084 L 277.62798210658514,308.980898089809 L 277.0272724446163,309.9309930993099 L 274.6911793147376,311.5311531153115 L 273.9236058577775,311.6311631163116 L 273.12265964181904,311.4311431143114 L 272.4552044618537,311.6311631163116 L 253.19912251985352,327.23272327232723 L 252.3981763038951,328.5828582858286 L 251.96433043691763,330.48304830483045 L 239.61640960755875,344.7844784478448 L 235.77854232275803,347.8347834783478 L 235.7117968047615,348.48484848484844 L 238.3482447656246,352.28522852285226 L 241.88575721944093,355.3855385538554 L 243.2540403383699,357.23572357235724 L 245.3565241552607,361.4361436143614 L 245.5567607092503,362.6362636263626 L 246.55794347919834,362.8362836283628 z" /><path fill-rule="evenodd" fill="#D2EBD9" stroke="#A6A6A6" stroke-width="0.25" opacity="1" d="M 161.5241535516134,284.27842784278425 L 161.32391699762383,283.67836783678365 L 159.55516077071564,281.17811781178114 L 159.3215514577278,280.12801280128014 L 159.3215514577278,278.4278427842784 L 159.98900663769314,274.9274927492749 L 159.722024565707,274.27742774277425 L 158.08675937479188,272.57725772577254 L 153.78167346401543,266.57665766576656 L 152.24652655009513,263.7263726372637 L 151.81268068311766,261.8761876187619 L 151.8794262011142,260.92609260926093 L 152.480135863083,258.37583758375837 L 152.31327206809166,257.47574757475746 L 151.11185274415405,256.5256525652565 L 149.94380617921468,254.77547754775478 L 144.67091025748846,249.62496249624962 L 142.00108953762708,245.6245624562456 L 139.99872399773105,243.82438243824382 L 140.23233331071893,243.57435743574356 L 141.2668888396652,243.37433743374336 L 141.90097126063228,242.8242824282428 L 144.03682783652138,239.72397239723972 L 145.73883854543303,237.87378737873786 L 146.2728026894053,236.77367736773675 L 145.87232958142607,235.77357735773577 L 145.47185647344688,235.62356235623562 L 144.70428301648673,235.9235923592359 L 144.20369163151273,235.9235923592359 L 143.13576334356816,235.47354735473547 L 141.30026159866347,233.77337733773376 L 140.63280641869812,233.37333733373336 L 140.19896055172066,232.2232223222322 L 138.09647673482982,231.97319731973195 L 137.59588534985582,230.97309730973097 L 135.09292842498576,229.37293729372936 L 132.42310770512438,226.9226922692269 L 131.62216148916596,225.82258225822582 L 131.3885521761781,224.62246224622461 L 131.6889070071625,223.97239723972396 L 132.623344259114,222.9222922292229 L 132.85695357210187,222.1222122212221 L 132.45648046412265,219.77197719771976 L 131.1883156221885,216.8216821682168 L 130.15376009324223,215.42154215421542 L 128.98571352830285,214.77147714771476 L 127.28370281939124,214.57145714571456 L 126.14902901345015,213.67136713671366 L 125.4815738334848,212.17121712171215 L 124.94760968951253,209.37093709370936 L 124.11329071455584,208.57085708570855 L 123.01198966761302,208.020802080208 L 121.91068862067021,207.77077707770775 L 120.04181411676724,208.07080708070805 L 119.14074962381403,207.47074707470745 L 118.13956685386601,207.87078707870785 L 116.8380292529336,207.77077707770775 L 117.138384083918,205.5205520552055 L 117.07163856592146,204.27042704270426 L 116.20394683196652,201.37013701370137 L 119.6747137677863,200.57005700570056 L 120.9095058507222,199.76997699769976 L 121.00962412771699,198.86988698869885 L 120.44228722474645,197.36973697369737 L 120.34216894775165,196.36963696369637 L 120.67589653773432,194.6194619461946 L 121.61033378968581,191.81918191819182 L 121.61033378968581,191.06910691069106 L 120.70926929673259,188.4188418841884 L 121.84394310267368,188.8188818881888 L 122.54477104163729,188.56885688568855 L 123.4458355345905,188.8188818881888 L 124.94760968951253,189.56895689568955 L 134.7592008350031,191.76917691769177 L 136.82831189289567,192.86928692869287 L 138.9307957097865,194.8194819481948 L 140.63280641869812,195.86958695869586 L 142.23469885061496,197.11971197119712 L 144.87114681147807,197.31973197319732 L 145.60534750943995,197.86978697869785 L 146.74002131538103,198.1198119811981 L 147.30735821835157,198.96989698969895 L 147.67445856733252,199.1199119911991 L 148.34191374729787,198.7198719871987 L 148.7090140962788,198.8198819881988 L 148.7090140962788,199.7199719971997 L 149.14285996325629,199.9199919991999 L 150.31090652819563,199.96999699969996 L 152.21315379109686,197.76977697769775 L 154.2155193309929,196.51965196519652 L 155.55042969092358,196.1196119611961 L 156.61835797886815,196.019601960196 L 158.12013213379015,196.16961696169616 L 159.0879421447399,196.56965696569657 L 160.08912491468791,197.21972197219722 L 161.72439010560302,197.7197719771977 L 163.32628253751986,197.7197719771977 L 164.92817496943667,197.26972697269727 L 170.9018988301265,192.76927692769277 L 171.20225366111092,192.31923192319232 L 171.63609952808838,191.019101910191 L 173.0377554060156,189.2189218921892 L 174.03893817596364,188.8188818881888 L 189.6573893871527,188.7188718871887 L 227.7357074041756,188.86888688868885 L 231.7404384839677,189.36893689368935 L 236.87984336970084,191.2191219121912 L 240.55084685951024,190.2190219021902 L 246.35770692520873,191.019101910191 L 250.4625562819956,192.06920692069207 L 252.69853113487952,192.21922192219222 L 253.26586803785005,192.41924192419242 L 254.2336780487998,193.66936693669365 L 254.634151156779,193.7193719371937 L 255.0346242647582,193.6193619361936 L 255.7688249627201,192.66926692669267 L 256.80338049166636,192.16921692169217 L 256.70326221467155,192.56925692569257 L 258.2717818875901,194.06940694069405 L 258.9392370675555,194.26942694269425 L 260.1740291504914,195.46954695469546 L 261.2419574384359,197.01970197019702 L 263.0107136653441,196.96969696969697 L 269.1846740800235,199.96999699969996 L 269.88550201898715,200.5200520052005 L 271.5207672099022,202.57025702570255 L 272.0547313538745,203.87038703870385 L 271.9212403178814,205.87058705870587 L 273.02254136482424,207.37073707370735 L 278.4623010815418,219.67196719671966 L 279.02963798451236,220.37203720372037 L 282.3335411253408,222.1222122212221 L 282.8675052693131,222.57225722572255 L 284.8364980502109,227.022702270227 L 286.2715266871363,230.77307730773077 L 287.2727094570844,234.32343234323432 L 287.7399280830601,235.02350235023502 L 289.1415839609873,235.72357235723572 L 289.50868430996826,236.17361736173615 L 289.60880258696307,236.6236623662366 L 289.4419387919717,239.57395739573957 L 291.07720398288683,243.1243124312431 L 292.04501399383656,243.97439743974397 L 291.07720398288683,244.27442744274427 L 289.8090391409527,243.97439743974397 L 288.84122913000294,243.37433743374336 L 286.17140841014157,241.024102410241 L 285.57069874817273,240.67406740674065 L 284.90324356820736,240.42404240424042 L 283.20123285929577,240.32403240324032 L 281.8329497403668,239.97399739973997 L 272.78893205183635,236.023602360236 L 269.05118304403044,233.77337733773376 L 267.5494088891084,233.37333733373336 L 266.51485336016214,233.5233523352335 L 265.61378886720894,234.17341734173417 L 264.97970644624183,235.17351735173517 L 262.30988572638046,235.67356735673567 L 260.5411294994723,238.5238523852385 L 260.0739108734966,239.07390739073907 L 259.37308293453293,239.52395239523952 L 258.2050363695936,239.77397739773977 L 255.06799702375648,239.47394739473947 L 254.00006873581194,239.52395239523952 L 252.9988859658639,239.87398739873987 L 252.66515837588125,240.27402740274027 L 252.56504009888644,240.97409740974095 L 252.7986494118743,242.07420742074206 L 252.66515837588125,244.47444744474447 L 251.96433043691763,245.87458745874585 L 250.06208317401638,247.3247324732473 L 247.75936280313596,249.82498249824982 L 246.92504382817927,251.2251225122512 L 246.82492555118446,251.9251925192519 L 246.55794347919834,252.27522752275226 L 244.05498655432828,254.42544254425442 L 243.62114068735082,255.27552755275525 L 243.28741309736813,256.8256825682568 L 242.55321239940628,257.37573757375736 L 235.01096886579788,258.17581758175817 L 233.87629505985677,258.47584758475847 L 233.07534884389838,259.2759275927593 L 233.00860332590184,261.1761176117612 L 232.47463918192955,261.72617261726174 L 231.97404779695555,261.82618261826184 L 230.97286502700754,261.72617261726174 L 226.03369669526398,260.62606260626063 L 225.03251392531595,260.62606260626063 L 223.33050321640434,261.02610261026103 L 222.5629297594442,260.8760876087609 L 220.42707318355508,259.7259725972597 L 218.8919262696348,259.1759175917592 L 217.89074349968678,258.27582758275827 L 217.4568976327093,258.07580758075807 L 216.88956072973875,258.17581758175817 L 214.58684035885832,259.6759675967597 L 212.91820240894495,260.52605260526053 L 211.7501558440056,261.6761676167617 L 210.548736520068,262.57625762576254 L 207.51181545122566,263.2263226322632 L 207.04459682524993,262.97629762976294 L 206.27702336828978,262.026202620262 L 205.94329577830712,259.3759375937594 L 205.6429409473227,258.87588758875887 L 203.37359333544052,258.975897589759 L 200.16980847160687,258.3258325832583 L 199.5357260506398,258.3258325832583 L 198.90164362967272,258.5258525852585 L 195.19726738086507,260.52605260526053 L 187.6216510882584,261.72617261726174 L 184.11751139344034,262.7262726272627 L 183.38331069547846,263.37633763376334 L 182.31538240753392,263.9263926392639 L 180.27964410863962,264.5264526452645 L 179.31183409768985,265.27652765276525 L 179.01147926670544,266.026602660266 L 178.84461547171412,268.3268326832683 L 179.4786978926812,269.5769576957696 L 179.51207065167947,270.02700270027003 L 179.41195237468466,270.4770477047705 L 178.11041477375224,272.4272427242724 L 177.4429595937869,272.6272627262726 L 175.20698474090298,272.7272727272727 L 174.13905645295844,272.9272927292729 L 173.17124644200868,273.17731773177314 L 172.1366909130624,273.7273727372737 L 163.86024668149213,281.27812781278124 L 162.0581176955857,283.77837783778375 L 161.5241535516134,284.27842784278425 z" /><path fill-rule="evenodd" fill="#D2EBD9" stroke="#A6A6A6" stroke-width="0.25" opacity="1" d="M 51.49416713432635,212.021202120212 L 52.16162231429169,211.42114211421142 L 53.22955060223624,209.77097709770976 L 53.79688750520678,207.9207920792079 L 54.230733372184254,207.07070707070707 L 56.33321718907509,200.3200320032003 L 56.13298063508549,198.06980698069805 L 55.86599856309935,197.11971197119712 L 55.89937132209762,195.76957695769576 L 55.332034419127076,194.5194519451945 L 54.8981885521496,194.36943694369435 L 53.99712405919639,194.6194619461946 L 53.09605956624317,194.36943694369435 L 52.061504037296885,193.06930693069305 L 47.856536403515214,190.4190419041904 L 47.28919950054467,189.7189718971897 L 47.08896294655507,189.16891689168915 L 47.25582674154641,188.76887688768875 L 48.15689123449962,187.71877187718772 L 47.65629984952561,185.56855685568556 L 47.823163644516946,184.96849684968495 L 48.19026399349789,184.56845684568455 L 49.12470124544937,184.1184118411841 L 50.659848159369666,182.16821682168217 L 51.66103092931768,181.86818681868186 L 52.79570473525877,182.06820682068206 L 53.22955060223624,181.9181918191819 L 53.83026026420505,180.86808680868086 L 54.76469751615653,179.8179817981798 L 56.03286235809069,179.16791679167915 L 58.569192041959,178.36783678367837 L 61.272385520818645,177.1177117711771 L 63.74196968669042,178.41784178417842 L 68.91474733142184,176.86768676867686 L 71.55119529228496,178.96789678967895 L 72.38551426724163,179.2179217921792 L 73.05296944720698,179.16791679167915 L 75.5892991310753,178.41784178417842 L 75.98977223905449,178.06780678067807 L 76.79071845501291,176.76767676767676 L 77.22456432199039,176.66766676667666 L 78.09225605594533,177.51775177517752 L 78.79308399490894,180.16801680168015 L 86.43544580551215,181.56815681568156 L 89.50573963335272,181.4181418141814 L 90.47354964430248,181.7181718171817 L 90.87402275228168,181.96819681968196 L 92.64277897918984,184.86848684868485 L 94.34478968810147,189.018901890189 L 94.81200831407722,189.76897689768975 L 96.11354591500964,190.06900690069006 L 101.05271424675318,189.06890689068905 L 101.78691494471506,190.06900690069006 L 102.72135219666654,190.16901690169016 L 104.69034497756432,190.86908690869086 L 107.19330190243436,192.36923692369237 L 107.92750260039624,193.5193519351935 L 108.52821226236505,196.31963196319631 L 108.26123019037891,198.36983698369835 L 108.56158502136331,199.36993699369935 L 112.03235195718311,198.96989698969895 L 113.1670257631242,199.06990699069905 L 114.56868164105141,199.76997699769976 L 116.20394683196652,201.37013701370137 L 117.07163856592146,204.27042704270426 L 117.138384083918,205.5205520552055 L 116.8380292529336,207.77077707770775 L 114.16820853307222,207.47074707470745 L 113.00016196813286,207.6207620762076 L 112.29933402916924,208.27082708270825 L 111.4316422952143,210.37103710371036 L 110.69744159725242,213.7213721372137 L 110.49720504326281,219.27192719271926 L 109.66288606830614,221.02210221022102 L 108.19448467238237,222.17221722172215 L 104.15638083359204,222.9222922292229 L 102.78809771466308,224.27242724272426 L 101.92040598070814,226.22262226222622 L 101.51993287272893,228.17281728172816 L 100.78573217476705,229.92299229922992 L 99.38407629683982,230.87308730873087 L 95.81319108402523,232.2232223222322 L 92.77627001518292,233.87338733873386 L 91.64159620924183,234.22342234223422 L 90.87402275228168,234.87348734873487 L 90.64041343929381,237.023702370237 L 89.83946722333539,238.023802380238 L 89.20538480236831,236.8236823682368 L 88.67142065839604,235.22352235223522 L 88.3043203094151,233.57335733573356 L 88.03733823742897,230.22302230223022 L 87.33651029846536,229.82298229822982 L 86.4688185645104,228.5228522852285 L 86.2685820105208,227.8227822782278 L 86.23520925152253,226.87268726872685 L 75.08870774610128,226.67266726672665 L 73.88728842216366,227.07270727072705 L 72.98622392921044,227.77277727772776 L 72.55237806223298,228.6228622862286 L 71.91829564126589,231.8231823182318 L 71.55119529228496,232.5232523252325 L 70.95048563031614,232.67326732673266 L 69.94930286036812,232.07320732073205 L 59.33676549891914,223.07230723072306 L 58.30220996997286,222.6222622262226 L 56.633572020059496,223.27232723272326 L 55.59901649111321,223.37233723372336 L 54.7980702751548,222.47224722472245 L 51.49416713432635,212.021202120212 z" /><path fill-rule="evenodd" fill="#D2EBD9" stroke="#A6A6A6" stroke-width="0.25" opacity="1" d="M 51.49416713432635,212.021202120212 L 50.9268302313558,211.42114211421142 L 48.85771917346323,211.42114211421142 L 47.55618157253081,211.17111711171117 L 46.922099151563735,210.62106210621062 L 45.92091638161572,208.7208720872087 L 45.220088442652106,208.020802080208 L 42.350031168801124,206.87068706870687 L 41.081866326866965,206.07060706070607 L 39.74695596693628,203.5203520352035 L 38.545536642998655,202.77027702770275 L 36.81015317508876,202.7202720272027 L 36.20944351311995,202.42024202420242 L 35.60873385115114,201.72017201720172 L 34.37394176821525,199.1199119911991 L 33.27264072127243,197.56975697569757 L 27.332289619580866,192.76927692769277 L 23.327558539788797,188.56885688568855 L 22.426494046835582,187.21872187218722 L 21.191701963899693,186.26862686268626 L 20.958092650911823,185.96859685968596 L 20.691110578925684,184.16841684168415 L 19.923537121965538,184.06840684068405 L 18.054662618062576,184.56845684568455 L 16.719752258131884,183.11831183118312 L 15.184605344211592,182.06820682068206 L 14.750759477234118,181.36813681368136 L 14.817504995230653,180.46804680468045 L 15.651823970187333,179.017901790179 L 15.484960175195997,177.91779177917792 L 14.71738671823585,177.017701770177 L 13.949813261275704,176.4176417641764 L 13.616085671293032,175.8175817581758 L 14.183422574263576,174.7174717471747 L 16.853243294124955,172.26722672267226 L 17.28708916110243,171.06710671067106 L 17.086852607112824,170.01700170017 L 14.95099603122372,167.56675667566756 L 14.684013959237584,166.6166616661666 L 14.917623272225454,164.01640164016402 L 14.650641200239317,163.016301630163 L 13.716203948287834,161.16611661166115 L 13.449221876301696,160.1160116011601 L 13.88306774327917,158.06580658065806 L 12.715021178339816,152.1152115211521 L 12.41466634735541,151.56515651565155 L 10.97963771042992,151.06510651065105 L 10.545791843452447,150.6150615061506 L 9.41111803751136,148.7148714871487 L 8.376562508565076,145.96459645964595 L 6.040469378686369,142.36423642364235 L 5.773487306700232,141.56415641564155 L 4.605440741760878,140.7140714071407 L 4.2049676337816715,140.01400140014002 L 4.638813500759146,137.86378637863785 L 3.1704121048353873,136.7136713671367 L 3.237157622831922,134.1134113411341 L 2.970175550845784,134.4134413441344 L 2.703193478859646,133.9133913391339 L 2.970175550845784,132.3132313231323 L 2.703193478859646,131.96319631963195 L 1.4684013959237583,131.1131113111311 L 0.700827938963612,130.26302630263027 L 0.3671003489809396,129.66296629662966 L 0.2669820719861379,129.06290629062906 L 0.46721862597574126,128.36283628362835 L 0.9010644929532153,128.012801280128 L 1.4350286369254912,128.012801280128 L 2.035738298894301,128.46284628462845 L 0.9010644929532153,126.36263626362636 L 0.2002365539896034,126.46264626462646 L 0.0,125.66256625662565 L 0.23360931298787063,124.61246124612461 L 0.9010644929532153,123.96239623962396 L 1.868874503902965,123.8123812381238 L 2.235974852883905,123.96239623962396 L 2.5029569248700425,124.91249124912491 L 2.836684514852715,125.1125112511251 L 3.3372758998267233,125.1125112511251 L 3.837867284800732,124.86248624862486 L 2.836684514852715,123.86238623862386 L 2.6030752018648444,123.36233623362335 L 3.1036665868388527,123.1123112311231 L 8.510053544558145,123.5123512351235 L 9.41111803751136,124.012401240124 L 9.17750872452349,125.16251625162515 L 7.8425983645928,126.1126112611261 L 6.741297317649981,130.16301630163017 L 6.073842137684637,131.46314631463144 L 5.773487306700232,132.7132713271327 L 6.507688004662111,133.8133813381338 L 6.774670076648249,132.1132113211321 L 8.710290098547748,129.3129312931293 L 9.477863555507895,126.96269626962696 L 10.912892192433386,126.3126312631263 L 11.413483577407394,125.76257625762575 L 12.281175311362343,125.26252625262525 L 12.581530142346748,125.16251625162515 L 12.748393937338085,125.3125312531253 L 13.349103599306893,126.36263626362636 L 12.948630491327688,126.51265126512651 L 12.748393937338085,126.86268626862686 L 12.715021178339816,127.86278627862785 L 14.817504995230653,126.2126212621262 L 14.984368790221989,125.5125512551255 L 15.318096380204661,125.2125212521252 L 15.718569488183867,125.4125412541254 L 15.985551560170006,126.06260626062605 L 15.651823970187333,127.06270627062706 L 14.316913610256643,129.1129112911291 L 14.48377740524798,129.66296629662966 L 14.817504995230653,129.5129512951295 L 15.551705693192531,128.6128612861286 L 15.885433283175203,127.9127912791279 L 16.853243294124955,127.56275627562755 L 17.186970884107627,127.26272627262726 L 17.28708916110243,126.66266626662666 L 16.88661605312322,125.01250125012501 L 17.120225366111093,124.41244124412441 L 17.687562269081635,124.71247124712471 L 18.655372280031383,125.76257625762575 L 17.120225366111093,122.8122812281228 L 16.88661605312322,121.76217621762176 L 17.921171582069505,115.56155615561555 L 18.68874503902965,113.86138613861385 L 19.723300567975937,112.41124112411241 L 21.058210927906625,111.16111611161115 L 20.958092650911823,109.96099609960996 L 20.123773675955142,107.36073607360736 L 20.190519193951676,106.1106110611061 L 24.49560510472815,103.96039603960395 L 26.79832547560859,102.5102510251025 L 27.465780655573933,102.4102410241024 L 28.667199979511555,102.66026602660266 L 29.968737580443978,102.56025602560256 L 30.56944724241279,102.1102110211021 L 30.669565519407588,101.6101610161016 L 30.56944724241279,100.2100210021002 L 32.271457951324415,100.06000600060005 L 33.77323210624644,101.4101410141014 L 34.00684141923431,102.16021602160215 L 34.50743280420832,102.86028602860286 L 35.575361092152875,103.11031103110311 L 35.575361092152875,102.86028602860286 L 34.774414876194456,101.8101810181018 L 34.54080556320659,100.2100210021002 L 35.0413969481806,98.75987598759876 L 35.80897040514074,98.35983598359836 L 37.243999042066235,99.65996599659965 L 38.578909401996924,100.36003600360036 L 39.212991822964,102.06020602060205 L 41.0484935678687,105.06050605060506 L 40.9483752908739,105.21052105210521 L 42.18316737380979,106.56065606560655 L 42.683758758783796,106.76067606760675 L 43.21772290275607,106.16061606160615 L 44.18553291370582,106.76067606760675 L 44.65275153968156,107.66076607660766 L 45.787425345622644,108.9108910891089 L 45.38695223764344,110.36103610361036 L 45.05322464766077,110.8110811081108 L 44.452514985691955,111.2111211121112 L 41.38222115785137,111.76117611761175 L 40.48115666489816,112.31123112311231 L 40.81488425488083,114.66146614661466 L 43.81843256472488,119.46194619461946 L 44.05204187771275,120.36203620362035 L 43.551450492738745,122.21222122212221 L 44.05204187771275,125.9125912591259 L 45.45369775563997,128.3128312831283 L 46.48825328458626,129.6129612961296 L 48.39050054748749,129.5129512951295 L 48.7909736554667,129.66296629662966 L 49.12470124544937,130.06300630063006 L 49.39168331743551,131.5131513151315 L 50.6264754003714,133.26332633263326 L 51.76114920631248,134.2134213421342 L 52.22836783228822,135.21352135213522 L 52.22836783228822,136.36363636363635 L 52.49534990427436,137.5137513751375 L 52.929195771251834,138.16381638163816 L 54.33085164917906,139.46394639463946 L 55.86599856309935,141.4141414141414 L 55.93274408109588,141.86418641864185 L 54.964934070146136,142.9142914291429 L 54.66457923916173,143.46434643464346 L 55.13179786513747,145.16451645164517 L 55.69913476810802,146.5146514651465 L 56.43333546606989,147.4147414741474 L 57.968482379990185,147.7147714771477 L 58.40232824696766,148.2148214821482 L 58.268837210974596,149.01490149014901 L 57.434518236017915,150.86508650865085 L 56.8338085740491,151.9151915191519 L 55.19854338313401,153.91539153915392 L 54.46434268517213,155.66556655665565 L 54.09724233619119,157.76577657765776 L 54.29747889018079,158.1158115811581 L 55.63238925011148,158.26582658265826 L 56.16635339408376,158.56585658565857 L 57.66812754900578,160.4160416041604 L 59.13652894492954,160.7160716071607 L 60.805166894842905,161.96619661966196 L 62.607295880749334,166.46664666466646 L 63.00776898872854,169.16691669166914 L 63.408242096707745,169.86698669866985 L 64.10907003567137,170.7170717071707 L 67.51309145349461,173.66736673667367 L 69.44871147539412,174.36743674367435 L 69.64894802938372,175.16751675167515 L 68.91474733142184,176.86768676867686 L 63.74196968669042,178.41784178417842 L 61.272385520818645,177.1177117711771 L 58.569192041959,178.36783678367837 L 56.03286235809069,179.16791679167915 L 54.76469751615653,179.8179817981798 L 53.83026026420505,180.86808680868086 L 53.22955060223624,181.9181918191819 L 52.79570473525877,182.06820682068206 L 51.66103092931768,181.86818681868186 L 50.659848159369666,182.16821682168217 L 49.12470124544937,184.1184118411841 L 48.19026399349789,184.56845684568455 L 47.823163644516946,184.96849684968495 L 47.65629984952561,185.56855685568556 L 48.15689123449962,187.71877187718772 L 47.25582674154641,188.76887688768875 L 47.08896294655507,189.16891689168915 L 47.28919950054467,189.7189718971897 L 47.856536403515214,190.4190419041904 L 52.061504037296885,193.06930693069305 L 53.09605956624317,194.36943694369435 L 53.99712405919639,194.6194619461946 L 54.8981885521496,194.36943694369435 L 55.332034419127076,194.5194519451945 L 55.89937132209762,195.76957695769576 L 55.86599856309935,197.11971197119712 L 56.13298063508549,198.06980698069805 L 56.33321718907509,200.3200320032003 L 54.230733372184254,207.07070707070707 L 53.79688750520678,207.9207920792079 L 53.22955060223624,209.77097709770976 L 52.16162231429169,211.42114211421142 L 51.49416713432635,212.021202120212 z" /><path fill-rule="evenodd" fill="#D2EBD9" stroke="#A6A6A6" stroke-width="0.25" opacity="1" d="M 223.43062149339914,21.8021802180218 L 249.62823730703892,21.602160216021602 L 251.93095767791937,22.35223522352235 L 254.66752391577728,22.002200220022 L 255.3683518547409,21.602160216021602 L 256.2026708296976,20.85208520852085 L 256.80338049166636,20.7020702070207 L 257.93805429760744,21.3021302130213 L 261.74254882340995,22.202220222022202 L 261.876039859403,22.55225522552255 L 261.7759215824082,23.352335233523352 L 262.41000400337526,24.002400240024002 L 263.5113050503181,23.7023702370237 L 264.94633368724357,22.1022102210221 L 265.98088921618984,21.652165216521652 L 265.61378886720894,20.95209520952095 L 266.0476347341864,20.75207520752075 L 267.14893578112924,20.8020802080208 L 267.7830182020963,20.452045204520452 L 268.617337177053,19.55195519551955 L 269.25141959802005,19.301930193019302 L 268.9844375260339,20.35203520352035 L 269.2847923570183,20.502050205020502 L 270.45283892195766,19.901990199019902 L 269.55177442900447,19.301930193019302 L 269.98562029598196,19.15191519151915 L 271.0535485839265,19.301930193019302 L 271.0535485839265,18.001800180018 L 271.1870396199196,17.8017801780178 L 274.490942760748,18.25182518251825 L 274.7912975917324,18.651865186518652 L 274.8914158687272,19.75197519751975 L 275.19177069971164,20.00200020002 L 275.7924803616804,19.4019401940194 L 276.5266810596423,18.101810181018102 L 277.361000034599,17.501750175017502 L 276.8937814086232,16.301630163016302 L 276.72691761363194,15.251525152515251 L 278.4289283225435,15.1015101510151 L 279.36336557449505,15.2015201520152 L 279.7638386824742,15.4015401540154 L 280.13093903145517,16.45164516451645 L 280.5314121394344,16.4016401640164 L 282.60052319732694,14.75147514751475 L 283.2679783772923,14.6014601460146 L 284.10229735224897,14.85148514851485 L 284.602888737223,14.101410141014101 L 285.33708943518485,14.3014301430143 L 286.0379173741485,15.001500150015001 L 286.4717632411259,15.7015701570157 L 287.3728277340792,15.45154515451545 L 287.9401646370497,16.75167516751675 L 289.3418205149769,16.251625162516252 L 290.5766125979128,16.7016701670167 L 291.5110498498643,16.351635163516352 L 292.1117595118331,15.1015101510151 L 293.847142979743,14.45144514451445 L 294.1808705697257,14.15141514151415 L 294.5145981597083,13.501350135013501 L 294.4478526417118,12.55125512551255 L 294.7815802316945,12.15121512151215 L 296.01637231463036,11.65116511651165 L 295.9829995556321,11.55115511551155 L 298.18560164951776,12.351235123512351 L 300.3882037434034,13.65136513651365 L 302.29045100630464,13.9013901390139 L 304.19269826920583,13.6013601360136 L 307.86370175901527,12.5012501250125 L 312.00192387480035,12.001200120012001 L 312.63600629576746,11.55115511551155 L 314.50488079967045,11.001100110011 L 316.1401459905855,8.9008900890089 L 317.84215669949714,8.2008200820082 L 319.3105580954209,7.350735073507351 L 319.6109129264053,7.050705070507051 L 319.91126775738974,6.0006000600060005 L 320.445231901362,6.05060506050605 L 321.47978743030825,6.5006500650065 L 321.6132784663013,5.8005800580058 L 322.2473608872684,5.5005500550055 L 323.84925331918527,5.05050505050505 L 324.2830991861627,5.2505250525052505 L 324.817063330135,5.2505250525052505 L 325.28428195611076,5.05050505050505 L 325.65138230509166,4.75047504750475 L 325.85161885908127,4.25042504250425 L 325.65138230509166,2.95029502950295 L 326.0184826540726,2.2002200220022 L 327.72049336298426,0.0 L 329.6561133848837,2.8002800280028 L 330.05658649286295,2.9002900290029 L 330.9910237448144,2.6002600260026 L 331.4582423707902,2.8002800280028 L 331.59173340678325,3.5003500350035 L 330.557177877837,8.25082508250825 L 329.0887764819132,12.051205120512051 L 328.32120302495304,13.35133513351335 L 327.52025680899465,14.051405140514051 L 327.4535112909981,15.65156515651565 L 327.5870023269912,16.1016101610161 L 328.22108474795823,17.001700170017 L 327.95410267597214,18.45184518451845 L 328.15433922996175,18.9018901890189 L 328.62155785593745,19.001900190019 L 328.688303373934,19.6019601960196 L 328.32120302495304,20.95209520952095 L 329.2222675179063,23.352335233523352 L 329.9230954568699,23.8023802380238 L 330.79078719082486,23.65236523652365 L 331.59173340678325,22.852285228522852 L 333.32711687469316,24.15241524152415 L 333.69421722367406,24.652465246524653 L 333.46060791068624,25.05250525052505 L 332.49279789973644,25.7025702570257 L 332.79315273072086,26.65266526652665 L 332.7597799717226,27.002700270027002 L 331.89208823776767,27.75277527752775 L 331.59173340678325,29.402940294029403 L 330.49043235984044,30.8030803080308 L 329.9230954568699,31.853185318531853 L 329.5226223488907,33.1033103310331 L 329.5226223488907,34.75347534753475 L 328.62155785593745,37.1037103710371 L 328.6549306149357,38.05380538053805 L 329.3223857949011,39.55395539553955 L 329.5226223488907,40.4040404040404 L 329.38913131289763,41.25412541254125 L 328.72167613293226,42.8042804280428 L 328.62155785593745,43.65436543654365 L 328.7550488919305,44.15441544154415 L 329.48924958989244,45.4045404540454 L 328.42132130194784,45.554555455545554 L 327.42013853199984,45.45454545454545 L 327.2532747370085,45.85458545854585 L 327.1197837010154,47.904790479047904 L 327.28664749600676,49.054905490549054 L 328.4546940609461,50.255025502550254 L 328.82179440992707,51.25512551255125 L 328.688303373934,52.4052405240524 L 327.08641094201715,55.7055705570557 L 326.18534644906396,57.05570557055705 L 325.38440023310557,57.605760576057605 L 324.9505543661281,57.655765576557656 L 323.9159988371818,57.3057305730573 L 323.7157622831922,57.505750575057505 L 323.44878021120604,57.95579557955795 L 322.54771571825285,61.006100610061004 L 321.81351502029094,61.9061906190619 L 320.9791960453343,62.6062606260626 L 320.27836810637064,62.8062806280628 L 318.4094936024677,62.6062606260626 L 317.50842910951445,63.05630563056305 L 316.60736461656126,62.6062606260626 L 315.40594529262364,63.006300630063 L 288.8078563710047,91.25912591259126 L 285.03673460420043,96.75967596759675 L 282.50040492033213,102.86028602860286 L 283.23460561829404,102.86028602860286 L 285.33708943518485,102.4102410241024 L 286.20478116913984,102.6102610261026 L 287.87341911905315,103.41034103410341 L 289.70892086395787,104.010401040104 L 289.60880258696307,104.46044604460445 L 289.07483844299077,104.86048604860486 L 287.8066736010566,104.96049604960496 L 287.5396915290705,105.21052105210521 L 287.1392184210913,106.46064606460645 L 286.4717632411259,106.7106710671067 L 285.8043080611606,106.6106610661066 L 285.33708943518485,107.010701070107 L 285.03673460420043,108.21082108210821 L 284.9699890862039,110.66106610661066 L 284.53614321922646,113.3113311331133 L 284.13567011124724,114.46144614461446 L 283.4682149312819,115.7115711571157 L 281.9664407763599,117.56175617561756 L 281.3991038733893,119.26192619261926 L 281.0987490424049,119.71197119711971 L 278.6959103945297,120.66206620662065 L 271.8211220408866,125.4125412541254 L 270.2859751269663,126.91269126912691 L 269.117928562027,128.76287628762876 L 268.55059165905647,130.81308130813082 L 268.25023682807205,134.1134113411341 L 267.9832547560859,134.86348634863486 L 268.45047338206166,137.1137113711371 L 267.81639096109456,141.2141214121412 L 267.1823085401275,142.6142614261426 L 267.2824268171223,143.76437643764376 L 266.61497163715694,145.06450645064507 L 266.9820719861379,147.5147514751475 L 266.7818354321483,149.16491649164917 L 266.7818354321483,151.36513651365135 L 266.5815988781587,152.36523652365236 L 265.81402542119855,154.26542654265427 L 265.1131974822349,154.96549654965494 L 262.3432584853787,156.015601560156 L 261.44219399242553,156.56565656565655 L 260.7413660534619,157.36573657365736 L 260.57450225847055,157.8157815781578 L 261.44219399242553,158.41584158415841 L 261.8092943414065,159.11591159115912 L 262.1430219313891,160.46604660466045 L 262.7771043523562,161.3161316131613 L 263.17757746033544,162.4162416241624 L 263.74491436330595,162.6162616261626 L 263.9117781582973,163.11631163116311 L 264.0118964352921,165.06650665066505 L 264.8128426512505,166.76667666766676 L 264.7794698922522,168.61686168616862 L 263.6781688453094,170.9170917091709 L 263.6114233273129,171.66716671667166 L 265.38017955422106,177.31773177317731 L 265.07982472323664,178.21782178217822 L 264.8128426512505,182.81828182818282 L 264.17876023028344,183.6183618361836 L 263.94515091729556,184.5184518451845 L 263.377814014325,185.36853685368536 L 262.84384987035276,185.4185418541854 L 261.6758033054134,184.7184718471847 L 261.0417208844463,184.6184618461846 L 258.9392370675555,184.76847684768475 L 258.23840912859185,185.26852685268526 L 257.4040901536352,187.41874187418742 L 255.2682335777461,189.56895689568955 L 254.8343877107686,190.4190419041904 L 255.2682335777461,191.06910691069106 L 255.50184289073394,191.1191119111911 L 255.93568875771143,190.76907690769076 L 256.1692980706993,190.76907690769076 L 256.83675325066463,191.91919191919192 L 256.80338049166636,192.16921692169217 L 255.7688249627201,192.66926692669267 L 255.0346242647582,193.6193619361936 L 254.634151156779,193.7193719371937 L 254.2336780487998,193.66936693669365 L 253.26586803785005,192.41924192419242 L 252.69853113487952,192.21922192219222 L 250.4625562819956,192.06920692069207 L 246.35770692520873,191.019101910191 L 240.55084685951024,190.2190219021902 L 236.87984336970084,191.2191219121912 L 231.7404384839677,189.36893689368935 L 227.7357074041756,188.86888688868885 L 189.6573893871527,188.7188718871887 L 189.4571528331631,187.46874687468747 L 189.6573893871527,186.06860686068606 L 189.3570345561683,184.66846684668465 L 189.52389835115963,184.06840684068405 L 189.7575076641475,183.56835683568355 L 190.92555422908686,182.26822682268227 L 191.9934825170314,180.6180618061806 L 192.9279197689829,178.01780178017802 L 193.4285111539569,177.06770677067706 L 194.7300487548893,175.56755675567555 L 195.6644860068408,172.91729172917292 L 196.96602360777322,170.46704670467045 L 197.66685154673684,169.46694669466945 L 197.76696982373164,168.71687168716872 L 197.53336051074376,167.6167616761676 L 195.6644860068408,162.96629662966296 L 193.29502011796382,159.11591159115912 L 192.06022803502793,158.66586658665867 L 189.32366179717002,158.76587658765877 L 187.12105970328437,158.2158215821582 L 187.58827832926013,157.46574657465746 L 190.52508112110763,155.16551655165514 L 195.39750393485465,150.06500650065004 L 196.7657870537836,147.76477647764776 L 197.03276912576976,146.9146914691469 L 197.06614188476803,146.2146214621462 L 196.73241429478534,144.61446144614462 L 196.83253257178015,144.21442144214421 L 197.36649671575242,143.86438643864386 L 199.60247156863633,143.014301430143 L 201.63820986753063,142.76427642764276 L 202.1721740115029,142.5142514251425 L 202.83962919146825,141.8141814181418 L 205.0422312853539,137.06370637063705 L 203.84081196141628,127.26272627262726 L 203.44033885343705,126.61266126612661 L 203.07323850445613,126.4126412641264 L 202.6060198784804,126.36263626362636 L 201.13761848255663,126.76267626762676 L 199.1352529426606,126.2126212621262 L 197.0995146437663,126.61266126612661 L 195.33075841685812,126.46264626462646 L 194.1293390929205,126.76267626762676 L 192.99466528697943,126.81268126812681 L 190.45833560311112,125.36253625362535 L 189.92437145913883,124.76247624762476 L 188.75632489419948,122.11221122112211 L 188.05549695523587,119.2119211921192 L 187.48816005226533,118.1118111811181 L 186.05313141533983,116.96169616961696 L 186.52035004131557,115.5115511551155 L 186.62046831831037,114.5114511451145 L 186.25336796932945,112.71127112711271 L 184.71822105540915,107.71077107710771 L 184.7515938144074,107.010701070107 L 185.85289486135022,105.1105110511051 L 185.71940382535718,104.16041604160415 L 185.3856762353745,103.76037603760375 L 182.88271931050446,102.56025602560256 L 181.98165481755123,101.7101710171017 L 181.54780895057377,101.01010101010101 L 180.579998939624,100.26002600260026 L 180.21289859064308,99.75997599759975 L 178.91136098971066,99.65996599659965 L 175.70757612587698,98.40984098409841 L 174.87325715092032,97.2097209720972 L 173.70521058598095,96.75967596759675 L 173.23799196000522,96.05960596059606 L 173.30473747800175,94.95949594959495 L 173.8720743809723,93.80938093809381 L 174.73976611492725,92.95929592959295 L 177.3428413167921,91.8091809180918 L 177.70994166577302,91.50915091509151 L 177.91017821976263,90.95909590959096 L 177.77668718376955,86.50865086508651 L 177.37621407579036,85.2085208520852 L 176.07467647485794,82.55825582558255 L 175.3071030178978,77.35773577357736 L 175.44059405389086,76.6076607660766 L 176.14142199285448,75.3075307530753 L 177.50970511178343,73.5073507350735 L 180.54662618062574,70.65706570657065 L 181.68129998656684,69.25692569256925 L 183.28319241848365,66.45664566456645 L 183.98402035744726,64.55645564556455 L 184.3844934654265,62.406240624062406 L 184.51798450141953,57.505750575057505 L 184.6514755374126,56.95569556955695 L 185.95301313834503,55.105510551055104 L 186.98756866729133,54.65546554655465 L 187.58827832926013,54.105410541054106 L 188.58946109920814,54.005400540054005 L 189.99111697713536,53.45534553455345 L 192.06022803502793,53.3053305330533 L 192.62756493799847,52.855285528552855 L 193.5286294309517,53.75537553755375 L 194.59655771889624,52.755275527552755 L 195.43087669385292,52.755275527552755 L 198.0005791367195,51.95519551955195 L 198.50117052169352,52.55525552555255 L 198.76815259367964,52.55525552555255 L 199.00176190666753,51.755175517551756 L 199.30211673765191,51.655165516551655 L 199.60247156863633,51.8051805180518 L 200.00294467661553,52.605260526052604 L 200.60365433858436,52.755275527552755 L 201.30448227754798,52.655265526552654 L 201.83844642152025,52.3052305230523 L 202.43915608348905,52.5052505250525 L 203.0064929864596,52.3052305230523 L 203.54045713043186,52.755275527552755 L 204.17453955139894,52.605260526052604 L 204.60838541837643,52.05520552055205 L 204.50826714138162,51.4051405140514 L 205.5428226703279,51.005100510051 L 205.87655026031058,50.7050705070507 L 206.11015957329843,49.6049604960496 L 206.41051440428285,49.354935493549355 L 207.44506993322912,49.304930493049305 L 206.61075095827246,51.05510551055105 L 206.5773781992742,51.4051405140514 L 206.9778513072534,51.95519551955195 L 208.21264339018927,51.4051405140514 L 209.04696236514596,50.405040504050405 L 209.4140627141269,50.2050205020502 L 210.34849996607838,50.2050205020502 L 210.61548203806453,50.85508550855085 L 210.91583686904892,50.75507550755075 L 211.31630997702814,50.2050205020502 L 213.41879379391898,49.054905490549054 L 215.95512347778728,49.054905490549054 L 216.58920589875436,49.254925492549255 L 216.68932417574916,49.75497549754975 L 216.38896934476475,50.95509550955095 L 216.5558331397561,51.555155515551554 L 218.1910983306712,51.1051105110511 L 217.72387970469543,51.8051805180518 L 217.79062522269197,52.05520552055205 L 218.45808040265732,52.3052305230523 L 220.59393697854642,53.905390539053904 L 221.6284925074927,54.25542554255425 L 222.02896561547192,51.605160516051605 L 223.43062149339914,21.8021802180218 z" /><g><path fill-rule="evenodd" fill="#D2EBD9" stroke="#A6A6A6" stroke-width="0.25" opacity="1" d="M 41.0484935678687,105.06050605060506 L 39.212991822964,102.06020602060205 L 38.578909401996924,100.36003600360036 L 37.243999042066235,99.65996599659965 L 35.80897040514074,98.35983598359836 L 38.478791125002125,97.55975597559755 L 39.27973734096054,97.5097509750975 L 40.8482570138791,97.65976597659765 L 42.11642185581325,98.10981098109811 L 41.081866326866965,98.80988098809881 L 40.9483752908739,99.1099109910991 L 41.31547563985484,100.56005600560056 L 41.21535736286003,101.06010601060106 L 40.91500253187563,101.4101410141014 L 39.74695596693628,102.1102110211021 L 39.813701484932814,102.6102610261026 L 40.04731079792068,102.91029102910291 L 40.9483752908739,103.11031103110311 L 40.98174804987217,102.7102710271027 L 41.549084952842705,102.26022602260225 L 42.11642185581325,101.36013601360135 L 42.9841135897682,100.76007600760076 L 43.91855084171968,100.46004600460046 L 44.51926050368849,101.26012601260125 L 44.11878739570928,102.010201020102 L 42.91736807177166,103.11031103110311 L 42.416776686797654,104.36043604360435 L 41.2487301218583,104.8104810481048 L 41.0484935678687,105.06050605060506 z" /><path fill-rule="evenodd" fill="#D2EBD9" stroke="#A6A6A6" stroke-width="0.25" opacity="1" d="M 61.706231387796116,70.00700070007001 L 62.70741415774413,70.5070507050705 L 63.808715204686955,71.7071707170717 L 65.84445350358125,73.25732573257325 L 66.97912730952234,75.35753575357535 L 66.94575455052407,76.2076207620762 L 67.61320973048942,77.05770577057706 L 67.37960041750155,78.5078507850785 L 67.57983697149115,80.1080108010801 L 68.88137457242357,81.35813581358136 L 70.34977596834733,83.45834583458345 L 71.15072218430575,83.8083808380838 L 72.35214150824336,84.00840084008401 L 73.01959668820871,84.55845584558455 L 73.65367910917578,84.30843084308431 L 75.18882602309608,83.25832583258325 L 75.48918085408049,82.4082408240824 L 76.35687258803543,81.95819581958196 L 77.09107328599731,82.10821082108211 L 79.22692986188642,83.9083908390839 L 79.39379365687775,85.95859585958596 L 80.52846746281884,89.10891089108911 L 80.96231332979632,91.65916591659166 L 81.49627747376859,92.7092709270927 L 82.4974602437166,93.65936593659366 L 84.86692613259358,94.8094809480948 L 86.168463733526,93.60936093609361 L 88.3043203094151,92.9092909290929 L 88.90502997138391,92.5092509250925 L 90.540295162299,90.65906590659066 L 91.00751378827475,90.5090509050905 L 91.4747324142505,90.6090609060906 L 91.94195104022623,90.95909590959096 L 92.60940622019157,92.009200920092 L 93.04325208716905,93.3093309330933 L 92.94313381017425,94.45944594459445 L 93.37697967715172,96.10961096109611 L 93.07662484616732,98.75987598759876 L 93.77745278513093,100.46004600460046 L 96.01342763801483,104.36043604360435 L 96.94786488996631,104.86048604860486 L 97.6820655879282,105.010501050105 L 98.51638456288488,105.51055105510551 L 100.0181587178069,105.51055105510551 L 100.85247769276359,105.76057605760576 L 102.42099736568214,106.56065606560655 L 104.3899901465799,106.96069606960695 L 106.09200085549153,107.76077607760776 L 106.82620155345342,107.61076107610761 L 107.92750260039624,108.46084608460845 L 110.26359573027494,109.06090609060905 L 110.96442366923856,109.4109410941094 L 112.29933402916924,110.31103110311031 L 113.33388955811553,111.26112611261125 L 112.73317989614672,112.1112111211121 L 108.26123019037891,116.16161616161615 L 106.1253736144898,119.76197619761976 L 104.69034497756432,123.4123412341234 L 104.95732704955046,127.46274627462745 L 104.79046325455911,128.7128712871287 L 104.42336290557817,128.96289628962896 L 103.55567117162323,128.9128912891289 L 102.38762460668387,128.4128412841284 L 100.91922321076012,128.76287628762876 L 100.38525906678784,128.76287628762876 L 99.88466768181384,128.5128512851285 L 99.48419457383463,128.06280628062805 L 98.81673939386928,125.16251625162515 L 98.28277524989701,124.06240624062406 L 97.01461040796285,122.8122812281228 L 96.31378246899924,123.1123112311231 L 95.98005487901656,123.46234623462345 L 95.71307280703043,124.31243124312431 L 95.37934521704776,124.46244624462446 L 94.54502624209108,123.46234623462345 L 93.24348864115865,122.66226622662265 L 91.50810517324877,121.012101210121 L 90.3400586083094,120.56205620562055 L 88.60467514039951,120.86208620862085 L 86.83591891349134,122.06220622062206 L 85.70124510755026,122.16221622162216 L 84.46645302461437,123.1123112311231 L 83.99923439863863,123.2123212321232 L 82.53083300271487,123.012301230123 L 81.96349609974433,123.36233623362335 L 81.79663230475299,124.26242624262426 L 82.297223689727,125.7125712571257 L 83.96586163964037,128.46284628462845 L 86.168463733526,130.86308630863087 L 86.53556408250694,132.6132613261326 L 86.30195476951907,133.76337633763376 L 85.83473614354332,134.4134413441344 L 84.83355337359531,134.2134213421342 L 83.39852473666983,133.56335633563356 L 81.26266816078072,132.26322632263225 L 80.86219505280151,132.36323632363235 L 80.52846746281884,132.6132613261326 L 80.86219505280151,134.96349634963497 L 81.22929540178245,135.76357635763574 L 81.59639575076339,136.1136113611361 L 83.36515197767156,137.013701370137 L 84.83355337359531,138.2138213821382 L 85.73461786654853,139.3139313931393 L 86.5689368415052,141.2141214121412 L 85.7679906255468,141.56415641564155 L 85.00041716858665,142.36423642364235 L 84.0326071576369,142.76427642764276 L 83.53201577266289,143.26432643264326 L 82.3973419667218,146.1146114611461 L 81.8967505817478,146.8146814681468 L 81.56302299176512,148.36483648364836 L 80.99568608879459,149.06490649064907 L 79.29367537988296,148.8148814881488 L 77.89201950195573,148.4148414841484 L 76.45699086503024,148.76487648764876 L 76.02314499805276,148.66486648664866 L 75.12208050509955,146.76467646764675 L 72.95285117021217,145.16451645164517 L 72.4188870262399,144.41444144414442 L 71.31758597929708,142.1142114211421 L 69.94930286036812,142.014201420142 L 69.58220251138718,142.46424642464245 L 69.31522043940105,143.86438643864386 L 67.88019180247555,145.21452145214522 L 67.54646421249288,146.86468646864685 L 67.27948214050674,147.46474647464746 L 65.64421694959165,148.36483648364836 L 65.24374384161244,149.01490149014901 L 64.54291590264883,150.76507650765075 L 65.01013452862458,151.76517651765175 L 64.94338901062804,153.56535653565356 L 64.34267934865923,154.71547154715472 L 64.0756972766731,155.7155715571557 L 63.775342445688686,156.1156115611561 L 61.77297690579265,157.36573657365736 L 61.272385520818645,157.3157315731573 L 60.00422067888449,156.5156515651565 L 59.53700205290875,156.56565656565655 L 58.836174113945134,157.5157515751575 L 59.13652894492954,160.7160716071607 L 57.66812754900578,160.4160416041604 L 56.16635339408376,158.56585658565857 L 55.63238925011148,158.26582658265826 L 54.29747889018079,158.1158115811581 L 54.09724233619119,157.76577657765776 L 54.46434268517213,155.66556655665565 L 55.19854338313401,153.91539153915392 L 56.8338085740491,151.9151915191519 L 57.434518236017915,150.86508650865085 L 58.268837210974596,149.01490149014901 L 58.40232824696766,148.2148214821482 L 57.968482379990185,147.7147714771477 L 56.43333546606989,147.4147414741474 L 55.69913476810802,146.5146514651465 L 55.13179786513747,145.16451645164517 L 54.66457923916173,143.46434643464346 L 54.964934070146136,142.9142914291429 L 55.93274408109588,141.86418641864185 L 55.86599856309935,141.4141414141414 L 54.33085164917906,139.46394639463946 L 52.929195771251834,138.16381638163816 L 52.49534990427436,137.5137513751375 L 52.22836783228822,136.36363636363635 L 52.22836783228822,135.21352135213522 L 51.76114920631248,134.2134213421342 L 50.6264754003714,133.26332633263326 L 49.39168331743551,131.5131513151315 L 49.12470124544937,130.06300630063006 L 48.7909736554667,129.66296629662966 L 48.39050054748749,129.5129512951295 L 46.48825328458626,129.6129612961296 L 45.45369775563997,128.3128312831283 L 44.05204187771275,125.9125912591259 L 43.551450492738745,122.21222122212221 L 44.05204187771275,120.36203620362035 L 43.81843256472488,119.46194619461946 L 40.81488425488083,114.66146614661466 L 40.48115666489816,112.31123112311231 L 41.38222115785137,111.76117611761175 L 44.452514985691955,111.2111211121112 L 45.05322464766077,110.8110811081108 L 45.38695223764344,110.36103610361036 L 45.787425345622644,108.9108910891089 L 44.65275153968156,107.66076607660766 L 44.18553291370582,106.76067606760675 L 43.21772290275607,106.16061606160615 L 43.05085910776474,105.1105110511051 L 43.48470497474221,104.1104110411041 L 44.25227843170235,103.31033103310331 L 45.08659740665903,102.86028602860286 L 45.687307068627845,103.46034603460346 L 45.687307068627845,102.46024602460245 L 46.554998802582794,102.3102310231023 L 48.657482619473626,103.11031103110311 L 49.458428835432045,103.96039603960395 L 50.860084713359264,106.1106110611061 L 51.627658170319414,106.7106710671067 L 51.627658170319414,105.81058105810581 L 51.92801300130382,105.81058105810581 L 52.59546818126916,106.7106710671067 L 54.130615095189455,107.61076107610761 L 54.230733372184254,107.36073607360736 L 53.86363302320332,106.7106710671067 L 52.59546818126916,106.06060606060605 L 50.726593677366196,103.21032103210321 L 49.992392979404315,102.56025602560256 L 49.158074004447634,102.1102110211021 L 48.45724606548403,101.11011101110111 L 48.257009511494424,100.0100010001 L 48.92446469145977,99.25992599259925 L 50.22600229239219,99.15991599159915 L 54.564460962166926,99.9099909990999 L 54.564460962166926,99.65996599659965 L 54.29747889018079,99.55995599559955 L 54.564460962166926,98.95989598959895 L 52.428604386277826,98.75987598759876 L 51.29393058033674,98.35983598359836 L 50.726593677366196,97.8097809780978 L 51.0269485083506,96.95969596959695 L 51.994758519300355,96.40964096409641 L 54.030496818194656,95.7095709570957 L 53.42978715622584,95.7095709570957 L 53.96375130019812,94.8094809480948 L 53.96375130019812,94.35943594359435 L 53.696769228211984,93.90939093909391 L 53.32966887923104,94.55945594559455 L 51.32730333933501,95.7095709570957 L 50.89345747235753,94.6094609460946 L 49.992392979404315,94.85948594859485 L 48.35712778848922,96.30963096309631 L 47.58955433152908,95.6095609560956 L 47.08896294655507,94.55945594559455 L 46.955471910562,93.45934593459346 L 47.32257225954294,92.55925592559255 L 47.92328192151175,91.75917591759175 L 50.15925677439566,90.9090909090909 L 48.49061882448229,90.9090909090909 L 47.72304536752215,90.95909590959096 L 47.18908122354987,91.25912591259126 L 46.621744320579324,92.5092509250925 L 45.08659740665903,93.90939093909391 L 45.320206719646905,92.9092909290929 L 45.92091638161572,91.8091809180918 L 47.99002743950828,88.90889088908891 L 49.25819228144244,85.85858585858585 L 48.55736434247883,85.5085508550855 L 48.35712778848922,84.9084908490849 L 48.55736434247883,84.35843584358436 L 49.091328486451104,84.10841084108411 L 52.061504037296885,84.40844084408441 L 53.22955060223624,84.75847584758475 L 54.36422440817733,85.5085508550855 L 55.56564373211495,86.008600860086 L 56.9339268510439,85.55855585558555 L 55.799253045102816,85.55855585558555 L 54.83144303415307,85.2085208520852 L 51.26055782133847,82.45824582458245 L 50.22600229239219,81.95819581958196 L 49.25819228144244,81.70817081708171 L 53.46315991522411,78.85788578857886 L 55.26528890113054,77.30773077307731 L 58.50244652396246,73.25732573257325 L 59.90410240188969,70.7070707070707 L 60.57155758185503,70.15701570157016 L 61.706231387796116,70.00700070007001 z" /></g><path fill-rule="evenodd" fill="#D2EBD9" stroke="#A6A6A6" stroke-width="0.25" opacity="1" d="M 116.20394683196652,201.37013701370137 L 114.56868164105141,199.76997699769976 L 113.1670257631242,199.06990699069905 L 112.03235195718311,198.96989698969895 L 108.56158502136331,199.36993699369935 L 108.26123019037891,198.36983698369835 L 108.52821226236505,196.31963196319631 L 107.92750260039624,193.5193519351935 L 107.19330190243436,192.36923692369237 L 104.69034497756432,190.86908690869086 L 102.72135219666654,190.16901690169016 L 101.78691494471506,190.06900690069006 L 101.05271424675318,189.06890689068905 L 96.11354591500964,190.06900690069006 L 94.81200831407722,189.76897689768975 L 94.34478968810147,189.018901890189 L 92.64277897918984,184.86848684868485 L 90.87402275228168,181.96819681968196 L 90.47354964430248,181.7181718171817 L 89.50573963335272,181.4181418141814 L 86.43544580551215,181.56815681568156 L 78.79308399490894,180.16801680168015 L 78.09225605594533,177.51775177517752 L 77.22456432199039,176.66766676667666 L 76.79071845501291,176.76767676767676 L 75.98977223905449,178.06780678067807 L 75.5892991310753,178.41784178417842 L 73.05296944720698,179.16791679167915 L 72.38551426724163,179.2179217921792 L 71.55119529228496,178.96789678967895 L 68.91474733142184,176.86768676867686 L 69.64894802938372,175.16751675167515 L 69.44871147539412,174.36743674367435 L 67.51309145349461,173.66736673667367 L 64.10907003567137,170.7170717071707 L 63.408242096707745,169.86698669866985 L 63.00776898872854,169.16691669166914 L 62.607295880749334,166.46664666466646 L 60.805166894842905,161.96619661966196 L 59.13652894492954,160.7160716071607 L 58.836174113945134,157.5157515751575 L 59.53700205290875,156.56565656565655 L 60.00422067888449,156.5156515651565 L 61.272385520818645,157.3157315731573 L 61.77297690579265,157.36573657365736 L 63.775342445688686,156.1156115611561 L 64.0756972766731,155.7155715571557 L 64.34267934865923,154.71547154715472 L 64.94338901062804,153.56535653565356 L 65.01013452862458,151.76517651765175 L 64.54291590264883,150.76507650765075 L 65.24374384161244,149.01490149014901 L 65.64421694959165,148.36483648364836 L 67.27948214050674,147.46474647464746 L 67.54646421249288,146.86468646864685 L 67.88019180247555,145.21452145214522 L 69.31522043940105,143.86438643864386 L 69.58220251138718,142.46424642464245 L 69.94930286036812,142.014201420142 L 71.31758597929708,142.1142114211421 L 72.4188870262399,144.41444144414442 L 72.95285117021217,145.16451645164517 L 75.12208050509955,146.76467646764675 L 76.02314499805276,148.66486648664866 L 76.45699086503024,148.76487648764876 L 77.89201950195573,148.4148414841484 L 79.29367537988296,148.8148814881488 L 80.99568608879459,149.06490649064907 L 81.56302299176512,148.36483648364836 L 81.8967505817478,146.8146814681468 L 82.3973419667218,146.1146114611461 L 83.53201577266289,143.26432643264326 L 84.0326071576369,142.76427642764276 L 85.00041716858665,142.36423642364235 L 85.7679906255468,141.56415641564155 L 86.5689368415052,141.2141214121412 L 89.80609446433714,140.6140614061406 L 91.07425930627129,140.8140814081408 L 97.04798316696112,143.66436643664366 L 97.91567490091607,144.36443644364437 L 98.54975732188315,145.46454645464544 L 98.88348491186582,145.76457645764575 L 99.31733077884329,145.86458645864585 L 100.45200458478438,145.3145314531453 L 102.28750632968908,143.56435643564356 L 103.7892804846111,143.3143314331433 L 104.82383601355738,143.3143314331433 L 105.75827326550886,143.86438643864386 L 107.22667466143263,147.76477647764776 L 107.79401156440316,150.26502650265024 L 108.22785743138064,151.46514651465145 L 108.86193985234772,152.26522652265226 L 109.5961405503096,152.8152815281528 L 111.6318788492039,153.66536653665366 L 111.29815125922123,155.06550655065504 L 111.66525160820217,156.66566656665665 L 111.49838781321083,157.86578657865786 L 111.59850609020563,158.76587658765877 L 112.33270678816751,159.56595659565957 L 113.6676171480982,160.01600160016 L 115.00252750802889,162.06620662066206 L 115.9035920009821,162.5162516251625 L 116.30406510896131,163.46634663466347 L 116.37081062695785,163.96639663966397 L 115.77010096498904,164.76647664766475 L 116.77128373493706,166.3166316631663 L 117.2385023609128,168.26682668266827 L 117.10501132491973,170.3170317031703 L 116.57104718094745,171.26712671267126 L 116.33743786795958,172.26722672267226 L 117.57222995089548,174.36743674367435 L 117.20512960191454,174.9174917491749 L 118.17293961286428,175.46754675467545 L 118.57341272084349,175.86758675867586 L 118.8737675518279,176.66766676667666 L 119.90832308077418,177.06770677067706 L 120.94287860972047,179.017901790179 L 121.57696103068754,179.3179317931793 L 121.7104520666806,179.56795679567955 L 121.54358827168927,180.2180218021802 L 120.64252377873605,180.16801680168015 L 120.24205067075685,180.3180318031803 L 119.94169583977245,180.86808680868086 L 120.24205067075685,182.26822682268227 L 120.14193239376205,182.81828182818282 L 119.60796824978976,183.6183618361836 L 119.50784997279497,184.96849684968495 L 119.30761341880536,185.4185418541854 L 119.94169583977245,185.8185818581858 L 120.20867791175858,186.5186518651865 L 120.10855963476378,187.16871687168717 L 119.60796824978976,187.46874687468747 L 120.70926929673259,188.4188418841884 L 121.61033378968581,191.06910691069106 L 121.61033378968581,191.81918191819182 L 120.67589653773432,194.6194619461946 L 120.34216894775165,196.36963696369637 L 120.44228722474645,197.36973697369737 L 121.00962412771699,198.86988698869885 L 120.9095058507222,199.76997699769976 L 119.6747137677863,200.57005700570056 L 116.20394683196652,201.37013701370137 z" /><path fill-rule="evenodd" fill="#D2EBD9" stroke="#A6A6A6" stroke-width="0.25" opacity="1" d="M 189.6573893871527,188.7188718871887 L 174.03893817596364,188.8188818881888 L 173.0377554060156,189.2189218921892 L 171.63609952808838,191.019101910191 L 171.20225366111092,192.31923192319232 L 170.9018988301265,192.76927692769277 L 164.92817496943667,197.26972697269727 L 163.32628253751986,197.7197719771977 L 161.72439010560302,197.7197719771977 L 160.08912491468791,197.21972197219722 L 159.0879421447399,196.56965696569657 L 158.12013213379015,196.16961696169616 L 156.61835797886815,196.019601960196 L 155.55042969092358,196.1196119611961 L 154.2155193309929,196.51965196519652 L 152.21315379109686,197.76977697769775 L 150.31090652819563,199.96999699969996 L 149.14285996325629,199.9199919991999 L 148.7090140962788,199.7199719971997 L 148.7090140962788,198.8198819881988 L 148.34191374729787,198.7198719871987 L 147.67445856733252,199.1199119911991 L 147.30735821835157,198.96989698969895 L 146.74002131538103,198.1198119811981 L 145.60534750943995,197.86978697869785 L 144.87114681147807,197.31973197319732 L 142.23469885061496,197.11971197119712 L 140.63280641869812,195.86958695869586 L 138.9307957097865,194.8194819481948 L 136.82831189289567,192.86928692869287 L 134.7592008350031,191.76917691769177 L 124.94760968951253,189.56895689568955 L 123.4458355345905,188.8188818881888 L 122.54477104163729,188.56885688568855 L 121.84394310267368,188.8188818881888 L 120.70926929673259,188.4188418841884 L 119.60796824978976,187.46874687468747 L 120.10855963476378,187.16871687168717 L 120.20867791175858,186.5186518651865 L 119.94169583977245,185.8185818581858 L 119.30761341880536,185.4185418541854 L 119.50784997279497,184.96849684968495 L 119.60796824978976,183.6183618361836 L 120.14193239376205,182.81828182818282 L 120.24205067075685,182.26822682268227 L 119.94169583977245,180.86808680868086 L 120.24205067075685,180.3180318031803 L 120.64252377873605,180.16801680168015 L 121.54358827168927,180.2180218021802 L 121.7104520666806,179.56795679567955 L 121.57696103068754,179.3179317931793 L 120.94287860972047,179.017901790179 L 119.90832308077418,177.06770677067706 L 118.8737675518279,176.66766676667666 L 118.57341272084349,175.86758675867586 L 118.17293961286428,175.46754675467545 L 117.20512960191454,174.9174917491749 L 117.57222995089548,174.36743674367435 L 116.33743786795958,172.26722672267226 L 116.57104718094745,171.26712671267126 L 117.10501132491973,170.3170317031703 L 117.2385023609128,168.26682668266827 L 116.77128373493706,166.3166316631663 L 115.77010096498904,164.76647664766475 L 116.37081062695785,163.96639663966397 L 116.30406510896131,163.46634663466347 L 115.9035920009821,162.5162516251625 L 115.00252750802889,162.06620662066206 L 113.6676171480982,160.01600160016 L 112.33270678816751,159.56595659565957 L 111.59850609020563,158.76587658765877 L 111.49838781321083,157.86578657865786 L 111.66525160820217,156.66566656665665 L 111.29815125922123,155.06550655065504 L 111.6318788492039,153.66536653665366 L 109.5961405503096,152.8152815281528 L 108.86193985234772,152.26522652265226 L 108.22785743138064,151.46514651465145 L 107.79401156440316,150.26502650265024 L 107.22667466143263,147.76477647764776 L 105.75827326550886,143.86438643864386 L 104.82383601355738,143.3143314331433 L 103.7892804846111,143.3143314331433 L 102.28750632968908,143.56435643564356 L 100.45200458478438,145.3145314531453 L 99.31733077884329,145.86458645864585 L 98.88348491186582,145.76457645764575 L 98.54975732188315,145.46454645464544 L 97.91567490091607,144.36443644364437 L 97.04798316696112,143.66436643664366 L 91.07425930627129,140.8140814081408 L 89.80609446433714,140.6140614061406 L 86.5689368415052,141.2141214121412 L 85.73461786654853,139.3139313931393 L 84.83355337359531,138.2138213821382 L 83.36515197767156,137.013701370137 L 81.59639575076339,136.1136113611361 L 81.22929540178245,135.76357635763574 L 80.86219505280151,134.96349634963497 L 80.52846746281884,132.6132613261326 L 80.86219505280151,132.36323632363235 L 81.26266816078072,132.26322632263225 L 83.39852473666983,133.56335633563356 L 84.83355337359531,134.2134213421342 L 85.83473614354332,134.4134413441344 L 86.30195476951907,133.76337633763376 L 86.53556408250694,132.6132613261326 L 86.168463733526,130.86308630863087 L 83.96586163964037,128.46284628462845 L 82.297223689727,125.7125712571257 L 81.79663230475299,124.26242624262426 L 81.96349609974433,123.36233623362335 L 82.53083300271487,123.012301230123 L 83.99923439863863,123.2123212321232 L 84.46645302461437,123.1123112311231 L 85.70124510755026,122.16221622162216 L 86.83591891349134,122.06220622062206 L 88.60467514039951,120.86208620862085 L 90.3400586083094,120.56205620562055 L 91.50810517324877,121.012101210121 L 93.24348864115865,122.66226622662265 L 94.54502624209108,123.46234623462345 L 95.37934521704776,124.46244624462446 L 95.71307280703043,124.31243124312431 L 95.98005487901656,123.46234623462345 L 96.31378246899924,123.1123112311231 L 97.01461040796285,122.8122812281228 L 98.28277524989701,124.06240624062406 L 98.81673939386928,125.16251625162515 L 99.48419457383463,128.06280628062805 L 99.88466768181384,128.5128512851285 L 100.38525906678784,128.76287628762876 L 100.91922321076012,128.76287628762876 L 102.38762460668387,128.4128412841284 L 103.55567117162323,128.9128912891289 L 104.42336290557817,128.96289628962896 L 104.79046325455911,128.7128712871287 L 104.95732704955046,127.46274627462745 L 104.69034497756432,123.4123412341234 L 106.1253736144898,119.76197619761976 L 108.26123019037891,116.16161616161615 L 112.73317989614672,112.1112111211121 L 113.33388955811553,111.26112611261125 L 112.29933402916924,110.31103110311031 L 110.96442366923856,109.4109410941094 L 110.26359573027494,109.06090609060905 L 107.92750260039624,108.46084608460845 L 106.82620155345342,107.61076107610761 L 106.09200085549153,107.76077607760776 L 104.3899901465799,106.96069606960695 L 102.42099736568214,106.56065606560655 L 100.85247769276359,105.76057605760576 L 100.0181587178069,105.51055105510551 L 98.51638456288488,105.51055105510551 L 97.6820655879282,105.010501050105 L 96.94786488996631,104.86048604860486 L 96.01342763801483,104.36043604360435 L 93.77745278513093,100.46004600460046 L 93.07662484616732,98.75987598759876 L 93.37697967715172,96.10961096109611 L 92.94313381017425,94.45944594459445 L 93.04325208716905,93.3093309330933 L 92.60940622019157,92.009200920092 L 91.94195104022623,90.95909590959096 L 91.4747324142505,90.6090609060906 L 91.00751378827475,90.5090509050905 L 90.540295162299,90.65906590659066 L 88.90502997138391,92.5092509250925 L 88.3043203094151,92.9092909290929 L 86.168463733526,93.60936093609361 L 84.86692613259358,94.8094809480948 L 82.4974602437166,93.65936593659366 L 81.49627747376859,92.7092709270927 L 80.96231332979632,91.65916591659166 L 80.52846746281884,89.10891089108911 L 79.39379365687775,85.95859585958596 L 79.22692986188642,83.9083908390839 L 77.09107328599731,82.10821082108211 L 76.35687258803543,81.95819581958196 L 75.48918085408049,82.4082408240824 L 75.08870774610128,81.008100810081 L 77.25793708098865,73.85738573857385 L 77.55829191197306,73.7073707370737 L 80.99568608879459,74.25742574257426 L 94.6117717600876,78.3078307830783 L 98.54975732188315,79.20792079207921 L 100.28514078979305,79.1079107910791 L 100.65224113877399,78.85788578857886 L 100.85247769276359,78.5078507850785 L 101.2529508007428,76.6076607660766 L 101.48656011373066,76.4076407640764 L 105.35780015752967,76.8076807680768 L 106.35898292747768,76.6076607660766 L 107.3601656974257,76.1076107610761 L 109.6962588273044,76.35763576357635 L 110.26359573027494,75.95759575957595 L 111.5317605722091,74.35743574357436 L 111.99897919818484,73.25732573257325 L 112.69980713714845,70.00700070007001 L 113.1670257631242,69.35693569356935 L 114.50193612305489,68.6068606860686 L 114.90240923103408,66.9066906690669 L 115.13601854402197,66.5066506650665 L 117.50548443289894,64.15641564156415 L 120.30879618875338,64.55645564556455 L 122.11092517465981,64.25642564256425 L 124.61388209952986,64.7064706470647 L 132.3897349461261,64.75647564756476 L 134.45884600401868,65.40654065406541 L 137.69600362685063,66.95669566956695 L 138.16322225282636,67.3067306730673 L 139.16440502277436,70.10701070107011 L 140.5660609007016,72.60726072607261 L 140.99990676767908,73.007300730073 L 141.9677167786288,73.3073307330733 L 145.30499267845553,75.25752575257525 L 147.04037614636545,78.4078407840784 L 148.57552306028572,77.45774577457745 L 150.11066997420602,77.10771077107711 L 151.64581688812632,76.15761576157615 L 156.51823970187334,73.8073807380738 L 157.15232212284042,73.35733573357335 L 157.21906764083695,73.007300730073 L 156.78522177385946,72.05720572057206 L 156.88534005085427,71.55715571557155 L 157.38593143582827,71.4071407140714 L 158.12013213379015,71.5071507150715 L 160.222615950681,72.10721072107211 L 161.05693492563768,72.65726572657265 L 162.5587090805597,78.15781578157815 L 163.09267322453198,79.1079107910791 L 164.594447379454,80.65806580658065 L 169.19988812121488,84.35843584358436 L 171.6027267690901,86.95869586958695 L 172.1366909130624,87.2087208720872 L 172.60390953903814,87.2087208720872 L 173.17124644200868,86.85868586858686 L 174.50615680193937,84.40844084408441 L 176.07467647485794,82.55825582558255 L 177.37621407579036,85.2085208520852 L 177.77668718376955,86.50865086508651 L 177.91017821976263,90.95909590959096 L 177.70994166577302,91.50915091509151 L 177.3428413167921,91.8091809180918 L 174.73976611492725,92.95929592959295 L 173.8720743809723,93.80938093809381 L 173.30473747800175,94.95949594959495 L 173.23799196000522,96.05960596059606 L 173.70521058598095,96.75967596759675 L 174.87325715092032,97.2097209720972 L 175.70757612587698,98.40984098409841 L 178.91136098971066,99.65996599659965 L 180.21289859064308,99.75997599759975 L 180.579998939624,100.26002600260026 L 181.54780895057377,101.01010101010101 L 181.98165481755123,101.7101710171017 L 182.88271931050446,102.56025602560256 L 185.3856762353745,103.76037603760375 L 185.71940382535718,104.16041604160415 L 185.85289486135022,105.1105110511051 L 184.7515938144074,107.010701070107 L 184.71822105540915,107.71077107710771 L 186.25336796932945,112.71127112711271 L 186.62046831831037,114.5114511451145 L 186.52035004131557,115.5115511551155 L 186.05313141533983,116.96169616961696 L 187.48816005226533,118.1118111811181 L 188.05549695523587,119.2119211921192 L 188.75632489419948,122.11221122112211 L 189.92437145913883,124.76247624762476 L 190.45833560311112,125.36253625362535 L 192.99466528697943,126.81268126812681 L 194.1293390929205,126.76267626762676 L 195.33075841685812,126.46264626462646 L 197.0995146437663,126.61266126612661 L 199.1352529426606,126.2126212621262 L 201.13761848255663,126.76267626762676 L 202.6060198784804,126.36263626362636 L 203.07323850445613,126.4126412641264 L 203.44033885343705,126.61266126612661 L 203.84081196141628,127.26272627262726 L 205.0422312853539,137.06370637063705 L 202.83962919146825,141.8141814181418 L 202.1721740115029,142.5142514251425 L 201.63820986753063,142.76427642764276 L 199.60247156863633,143.014301430143 L 197.36649671575242,143.86438643864386 L 196.83253257178015,144.21442144214421 L 196.73241429478534,144.61446144614462 L 197.06614188476803,146.2146214621462 L 197.03276912576976,146.9146914691469 L 196.7657870537836,147.76477647764776 L 195.39750393485465,150.06500650065004 L 190.52508112110763,155.16551655165514 L 187.58827832926013,157.46574657465746 L 187.12105970328437,158.2158215821582 L 189.32366179717002,158.76587658765877 L 192.06022803502793,158.66586658665867 L 193.29502011796382,159.11591159115912 L 195.6644860068408,162.96629662966296 L 197.53336051074376,167.6167616761676 L 197.76696982373164,168.71687168716872 L 197.66685154673684,169.46694669466945 L 196.96602360777322,170.46704670467045 L 195.6644860068408,172.91729172917292 L 194.7300487548893,175.56755675567555 L 193.4285111539569,177.06770677067706 L 192.9279197689829,178.01780178017802 L 191.9934825170314,180.6180618061806 L 190.92555422908686,182.26822682268227 L 189.7575076641475,183.56835683568355 L 189.52389835115963,184.06840684068405 L 189.3570345561683,184.66846684668465 L 189.6573893871527,186.06860686068606 L 189.4571528331631,187.46874687468747 L 189.6573893871527,188.7188718871887 z" /></g></g></g></svg>