<svg xmlns="http://www.w3.org/2000/svg" xmlns:xlink="http://www.w3.org/1999/xlink" width="395.4854409378022" height="500.0" viewBox="0.0 0.0 395.4854409378022 500.0" preserveAspectRatio="xMinYMin meet"><g transform="matrix(1,0,0,-1,0,500.0)"><g><g><path fill-rule="evenodd" fill="#D2EBD9" stroke="#A6A6A6" stroke-width="0.25" opacity="1" d="M 257.0121407354574,462.69626962696265 L 255.03451576827166,462.8462846284628 L 254.0457032846788,462.1462146214621 L 253.61062579189795,462.7462746274627 L 251.71210582339964,464.2464246424642 L 251.15837083258765,464.9464946494649 L 251.0001608352128,465.4465446544654 L 251.3561333293062,466.1466146614661 L 252.9382333030548,466.996699669967 L 252.6218133083051,469.14691469146914 L 251.11881833324392,470.3970397039704 L 249.45761336080793,471.24712471247125 L 248.66656337393363,472.09720972097205 L 247.7568558890282,472.7472747274727 L 243.7225009559693,474.29742974297426 L 242.81279347106386,475.1475147514751 L 242.57547847500157,475.79757975797577 L 241.38890349469014,477.2477247724772 L 241.0329310005967,477.8977897789779 L 240.83516850387812,478.94789478947894 L 240.87472100322185,479.84798479847984 L 240.67695850650327,480.54805480548055 L 239.84635602028527,480.94809480948095 L 234.42766361019636,477.4477447744774 L 233.59706112397836,477.0977097709771 L 232.6478011397292,477.1977197719772 L 230.9470436679495,477.997799779978 L 230.19554618041892,478.64786478647864 L 228.21792121323318,481.09810981098104 L 227.42687122635888,481.59815981598155 L 222.20594131298856,483.8483848384838 L 220.18876384645912,484.4484448444844 L 218.32979637730455,484.3484348434843 L 216.82680140224338,484.59845984598456 L 213.50439145737136,486.9486948694869 L 211.96184398296649,487.64876487648763 L 209.23272152825018,486.998699869987 L 193.8467992835452,476.7976797679768 L 191.82962181701575,476.047604760476 L 189.81244435048632,476.29762976297627 L 163.35182228954125,486.0986098609861 L 161.3741973223555,485.49854985498547 L 161.0577773276058,485.2485248524852 L 156.9047648965158,480.54805480548055 L 150.10173500939686,475.89758975897587 L 149.666657516616,475.09750975097506 L 148.87560752974173,474.7474747474747 L 145.90917007896311,474.5474547454745 L 145.55319758486968,473.9473947394739 L 145.86961757961942,473.19731973197315 L 149.82486751399085,468.5968596859686 L 150.81367999758373,467.8467846784678 L 152.9099624628006,466.59665966596657 L 155.6390849175169,466.09660966096607 L 156.4301349043912,465.59655965596556 L 157.18163239192177,464.39643964396436 L 159.31746735648235,460.14601460146014 L 161.92793231316753,460.0960096009601 L 164.18242477575927,460.2960296029603 L 167.14886222653786,460.8960896089609 L 168.29588470750556,460.84608460846084 L 169.4429071884733,460.2960296029603 L 172.01381964581475,458.5458545854585 L 173.20039462612618,457.5457545754575 L 180.16163451061996,455.69556955695566 L 181.86239198239969,454.8454845484548 L 182.41612697321168,454.2454245424542 L 184.63106693645972,450.4950495049505 L 185.02659192989685,448.0948094809481 L 185.77808941742742,446.7446744674467 L 188.3885543741126,444.3444344434443 L 189.29826185901803,443.29432943294324 L 195.31024175926265,441.5941594159416 L 196.85278923366752,440.7940794079408 L 201.83640415097554,436.9436943694369 L 204.3677641089733,432.14321432143214 L 203.02297913128697,427.2427242724272 L 203.3789516253804,425.6425642564256 L 203.93268661619243,424.4424442444244 L 203.77447661881757,423.5923592359236 L 202.39013914178756,420.94209420942093 L 204.32821160962956,417.8417841784178 L 205.04015659781643,416.99169916991696 L 205.63344408797215,416.6416641664166 L 206.82001906828359,416.6416641664166 L 208.4812240407196,416.9416941694169 L 209.66779902103104,417.29172917291726 L 210.41929650856162,417.7417741774177 L 211.32900399346704,417.69176917691766 L 212.8715514678719,416.69166916691665 L 213.3461814599965,415.3415341534153 L 214.37454644293308,414.24142414241425 L 214.29544144424565,413.4913491349135 L 213.10886646393422,411.1411141114111 L 212.63423647180963,409.19091909190917 L 212.67378897115336,408.49084908490846 L 213.14841896327792,407.59075907590756 L 213.30662896065277,406.79067906790675 L 212.95065646655934,404.54045404540454 L 213.3461814599965,403.14031403140314 L 214.33499394358935,401.1401140114011 L 216.94545890027453,397.4397439743974 L 218.36934887664825,395.7395739573957 L 219.16039886352254,394.2894289428943 L 220.30742134449025,394.3894389438944 L 221.2171288293957,395.03950395039504 L 221.84996881889512,394.73947394739474 L 222.91788630117543,392.93929392939293 L 222.8783338018317,392.2392239223922 L 222.5223613077383,391.7891789178918 L 220.70294633792741,391.039103910391 L 216.43127640880624,388.2388238823882 L 215.4820164245571,387.9387938793879 L 214.80962393571394,387.28872887288725 L 213.18797146262165,384.73847384738474 L 212.43647397509105,384.33843384338434 L 212.15960647968507,382.9382938293829 L 213.0297614652468,382.1882188218822 L 214.84917643505764,381.4381438143814 L 216.2730664114314,381.038103810381 L 218.44845387533567,380.78807880788077 L 219.23950386220997,380.18801880188016 L 221.09847133136455,377.6377637763776 L 221.731311320864,377.68776877687765 L 221.88952131823885,377.8377837783778 L 222.12683631430113,378.8378837883788 L 223.74848878739343,380.8380838083808 L 223.74848878739343,381.3381338133813 L 224.02535628279944,381.6381638163816 L 226.0820862486726,382.8882888288829 L 227.1895562302966,384.0884088408841 L 227.9806062171709,384.63846384638464 L 230.67017617254348,385.8385838583858 L 234.54632110822752,386.1386138613861 L 236.64260357344438,386.5386538653865 L 242.29861097959557,385.33853385338534 L 243.84115845400044,385.53855385538554 L 252.06807831749308,387.9387938793879 L 253.33375829649194,389.3389338933893 L 253.17554829911708,390.1390139013901 L 253.2546532978045,391.08910891089107 L 253.68973079058537,391.7891789178918 L 255.27183076433397,393.4893489348935 L 256.30019574727055,407.09070907090705 L 257.0121407354574,462.69626962696265 z" /><path fill-rule="evenodd" fill="#D2EBD9" stroke="#A6A6A6" stroke-width="0.25" opacity="1" d="M 163.35182228954125,486.0986098609861 L 139.69942768199994,494.89948994899487 L 136.8912002285962,496.4996499649965 L 134.43894526928588,498.6998699869987 L 131.9866903099756,500.0 L 129.0598053585407,498.7998799879988 L 126.6075503992304,495.4995499549955 L 125.02545042548182,491.99919991999195 L 122.92916796026495,488.5988598859886 L 123.68066544779552,488.24882488248824 L 124.74858293007581,487.44874487448743 L 125.69784291432497,486.2486248624862 L 125.89560541104353,484.9484948494849 L 124.86724042810695,483.99839983998396 L 123.12693045698352,483.9483948394839 L 122.21722297207808,484.79847984798477 L 121.4657254845475,485.19851985198517 L 119.52765301670549,483.5483548354835 L 119.09257552392462,483.4483448344834 L 119.09257552392462,483.2483248324832 L 120.43736050161093,482.048204820482 L 121.90080297732837,481.4481448144814 L 122.5336429668278,480.94809480948095 L 123.24558795501466,479.94799479947994 L 123.56200794976438,478.7978797879788 L 123.20603545567094,477.7977797779778 L 121.90080297732837,477.3477347734773 L 121.90080297732837,476.6976697669767 L 122.33588047010923,476.19761976197617 L 122.41498546879666,475.59755975597557 L 122.17767047273436,475.09750975097506 L 121.62393548192236,474.89748974897486 L 120.9119904937355,475.047504750475 L 120.1209405068612,475.79757975797577 L 119.52765301670549,476.09760976097607 L 117.78734304558205,476.1476147614761 L 115.92837557642746,475.89758975897587 L 114.97911559217832,475.2475247524752 L 115.96792807577117,474.2474247424742 L 115.96792807577117,473.69736973697366 L 115.33508808627174,473.047304730473 L 114.78135309545974,473.047304730473 L 113.67388311383573,474.09740974097406 L 113.31791061974229,474.2474247424742 L 113.15970062236744,474.5474547454745 L 113.47612061711716,475.99759975997597 L 113.00149062499258,476.6976697669767 L 111.93357314271229,476.9476947694769 L 107.6223507142474,476.6976697669767 L 107.6223507142474,476.09760976097607 L 108.80892569455884,475.7475747574757 L 109.40221318471455,474.89748974897486 L 107.3454832188414,474.6474647464746 L 103.66710077987594,472.9472947294729 L 101.6894758126902,472.4472447244724 L 101.6894758126902,471.79717971797174 L 104.97233325821853,471.3971397139714 L 107.22682572081025,470.3970397039704 L 109.20445068799599,469.1969196919692 L 111.77536314533744,468.24682468246823 L 114.1485131059603,468.3968396839684 L 114.78135309545974,468.24682468246823 L 115.29553558692803,467.5967596759676 L 115.05822059086574,467.1467146714671 L 114.54403809939745,466.89668966896687 L 114.1485131059603,467.046704670467 L 114.82090559480345,466.2466246624662 L 117.23360805477004,464.29642964296426 L 117.74779054623833,464.29642964296426 L 119.05302302458091,465.1465146514651 L 121.94035547667208,464.69646964696466 L 124.78813542941953,463.39633963396335 L 126.09336790776212,461.84618461846185 L 126.6075503992304,456.045604560456 L 126.3306829038244,453.045304530453 L 124.86724042810695,451.8951895189519 L 124.86724042810695,451.24512451245124 L 125.46052791826268,451.24512451245124 L 125.46052791826268,450.6950695069507 L 124.47171543466982,450.3950395039504 L 124.23440043860752,449.3949394939494 L 124.86724042810695,449.99499949995 L 125.46052791826268,449.3949394939494 L 124.7090304307321,449.1949194919492 L 124.07619044123267,448.6948694869487 L 123.0873779576398,447.59475947594757 L 123.0873779576398,447.044704470447 L 123.52245545042067,447.09470947094707 L 123.68066544779552,446.39463946394636 L 127.24039038872984,449.99499949995 L 128.34786037035386,449.24492449244923 L 128.82249036247842,448.6448644864486 L 129.020252859197,447.9447944794479 L 126.40978790251182,445.19451945194515 L 125.02545042548182,445.3445344534453 L 124.23440043860752,443.99439943994395 L 123.28514045435837,443.29432943294324 L 122.96872045960866,442.74427442744275 L 123.0873779576398,441.5941594159416 L 121.22841048848521,441.74417441744174 L 119.48810051736177,440.74407440744073 L 117.78734304558205,440.04400440044003 L 116.5612155659269,441.04410441044104 L 115.96792807577117,441.04410441044104 L 115.2164305882406,439.3439343934393 L 114.58359059874117,438.7438743874387 L 113.5947781151483,438.5438543854385 L 113.5947781151483,437.9437943794379 L 114.78135309545974,437.9437943794379 L 114.78135309545974,437.3437343734373 L 114.1485131059603,437.1437143714371 L 113.5947781151483,436.7436743674367 L 115.80971807839632,434.1434143414341 L 116.52166306658319,432.5932593259326 L 114.70224809677231,431.1931193119312 L 114.06940810727288,429.7929792979298 L 113.23880562105487,428.89288928892887 L 111.77536314533744,429.4429442944294 L 111.06341815715056,427.99279927992797 L 110.03505317421399,426.49264926492646 L 108.53205819915283,425.29252925292525 L 107.8992182096534,424.4424442444244 L 109.04624069062112,423.74237423742375 L 110.90520815977571,421.34213421342133 L 111.10297065649428,420.6420642064206 L 110.58878816502599,419.7919791979198 L 109.40221318471455,418.59185918591857 L 109.91639567618284,417.49174917491746 L 110.27236817027628,415.99159915991595 L 110.58878816502599,413.4913491349135 L 113.99030310858545,405.19051905190514 L 115.05822059086574,403.4903490349035 L 115.73061307970889,401.1401140114011 L 116.28434807052089,400.1400140014001 L 125.18366042285668,389.18891889188916 L 126.09336790776212,386.98869886988695 L 125.46052791826268,385.33853385338534 L 126.25157790513697,384.2884288428843 L 126.80531289594897,384.33843384338434 L 127.4381528854484,384.73847384738474 L 128.42696536904128,384.7884788478848 L 130.127722840821,383.6883688368837 L 132.46132030210015,383.2883288328833 L 137.36583022072077,381.7381738173817 L 137.7613552141579,382.1882188218822 L 138.2755377056262,382.2882288228823 L 138.86882519578194,382.038203820382 L 139.50166518528135,381.2381238123812 L 141.00466016034252,380.98809880988097 L 142.19123514065396,380.1380138013801 L 143.02183762687196,379.9379937993799 L 143.57557261768395,380.1380138013801 L 144.84125259668284,380.98809880988097 L 145.67185508290083,381.18811881188117 L 155.00624492801748,377.8377837783778 L 157.89357738010864,376.1876187618762 L 159.9503073459818,373.8873887388739 L 159.98985984532553,372.4872487248725 L 160.18762234204408,371.78717871787177 L 162.3630098059484,370.88708870887086 L 163.1540597928227,370.38703870387036 L 163.5100322869161,369.98699869986996 L 163.94510977969696,368.88688868886885 L 165.0921322606647,369.5369536953695 L 165.6458672514767,370.68706870687066 L 166.35781223966356,371.28712871287127 L 166.95109972981928,372.7872787278728 L 167.62349221866242,373.4373437343734 L 167.70259721734985,373.83738373837383 L 167.42572972194387,374.0874087408741 L 167.34662472325644,374.987498749875 L 168.77051469963016,380.03800380038 L 168.6123047022553,380.2380238023802 L 166.95109972981928,380.7380738073807 L 166.63467973506957,381.9381938193819 L 166.23915474163243,382.7382738273827 L 165.17123725935213,384.0884088408841 L 163.54958478625983,384.8884888488849 L 161.96748481251123,385.03850385038504 L 161.17643482563696,385.43854385438544 L 160.38538483876266,385.5885588558856 L 158.68462736698294,385.53855385538554 L 157.97268237879607,385.98859885988594 L 157.5376048860152,386.9386938693869 L 157.89357738010864,387.58875887588755 L 158.68462736698294,388.3388338833883 L 160.82046233154352,389.38893889388936 L 162.32345730660467,389.7389738973897 L 162.9562972961041,389.18891889188916 L 163.35182228954125,389.28892889288926 L 166.04139224491385,390.78907890789077 L 167.93991221341216,391.2391239123912 L 168.45409470488045,391.989198919892 L 169.32424969044214,394.83948394839484 L 167.70259721734985,396.28962896289624 L 167.70259721734985,396.8396839683968 L 168.3354372068493,396.5396539653965 L 169.87798468125416,396.2396239623962 L 170.62948216878473,396.28962896289624 L 170.5108246707536,396.88968896889685 L 170.19440467600387,397.1397139713971 L 169.48245968781703,396.8396839683968 L 168.96827719634874,396.8396839683968 L 167.821254715381,399.039903990399 L 166.87199473113185,400.0400040004 L 164.22197727510297,400.990099009901 L 163.1936122921664,402.14021402140213 L 163.03540229479154,403.3903390339034 L 164.14287227641555,404.0904090409041 L 163.11450729347897,405.7405740574057 L 162.60032480201068,408.1408140814081 L 162.3630098059484,412.24122412241223 L 161.80927481513638,414.3914391439144 L 159.27791485713865,416.2416241624162 L 158.76373236567036,417.99179917991796 L 162.48166730397952,415.39153915391535 L 164.0242147783844,413.54135413541354 L 163.5100322869161,411.94119411941193 L 163.5100322869161,411.3911391139114 L 165.68541975082042,409.09090909090907 L 167.06975722785043,408.1408140814081 L 168.6123047022553,407.7407740774077 L 174.50562710446877,407.79077907790776 L 176.08772707821734,408.3408340834083 L 177.19519705984135,407.29072907290725 L 177.90714204802822,406.8406840684068 L 179.68700451849537,407.39073907390735 L 180.91313199815053,407.3407340734073 L 181.9810494804308,407.49074907490746 L 182.41612697321168,407.4407440744074 L 183.5631494541794,406.79067906790675 L 184.71017193514714,407.040704070407 L 185.22435442661543,406.9406940694069 L 186.4900344056143,406.3406340634063 L 187.2810843924886,405.6405640564056 L 188.34900187476887,404.2904290429043 L 189.33781435836173,403.4903490349035 L 190.3661793412983,402.94029402940293 L 190.8408093334229,402.94029402940293 L 190.91991433211032,403.3903390339034 L 190.48483683932946,404.84048404840485 L 190.5639418380169,405.6405640564056 L 190.80125683407917,406.040604060406 L 192.7788818012649,407.9407940794079 L 194.83561176713806,408.89088908890886 L 195.1520317618878,409.4409440944094 L 195.1520317618878,410.4410441044104 L 194.55874427173205,411.34113411341133 L 194.47963927304463,411.84118411841183 L 195.1520317618878,413.4913491349135 L 195.34979425860635,415.19151915191514 L 195.82442425073094,416.59165916591655 L 195.58710925466863,417.2417241724172 L 194.71695426910694,418.19181918191816 L 194.6774017697632,418.69186918691867 L 194.9147167658255,419.2419241924192 L 195.5080042559812,419.99199919992 L 196.8132367343238,420.7420742074207 L 197.8811542166041,421.84218421842183 L 198.3953367080724,422.1922192219222 L 199.06772919691554,422.3922392239224 L 200.17519917853954,422.3922392239224 L 201.04535416410127,422.04220422042204 L 202.39013914178756,420.94209420942093 L 203.77447661881757,423.5923592359236 L 203.93268661619243,424.4424442444244 L 203.3789516253804,425.6425642564256 L 203.02297913128697,427.2427242724272 L 204.3677641089733,432.14321432143214 L 201.83640415097554,436.9436943694369 L 196.85278923366752,440.7940794079408 L 195.31024175926265,441.5941594159416 L 189.29826185901803,443.29432943294324 L 188.3885543741126,444.3444344434443 L 185.77808941742742,446.7446744674467 L 185.02659192989685,448.0948094809481 L 184.63106693645972,450.4950495049505 L 182.41612697321168,454.2454245424542 L 181.86239198239969,454.8454845484548 L 180.16163451061996,455.69556955695566 L 173.20039462612618,457.5457545754575 L 172.01381964581475,458.5458545854585 L 169.4429071884733,460.2960296029603 L 168.29588470750556,460.84608460846084 L 167.14886222653786,460.8960896089609 L 164.18242477575927,460.2960296029603 L 161.92793231316753,460.0960096009601 L 159.31746735648235,460.14601460146014 L 157.18163239192177,464.39643964396436 L 156.4301349043912,465.59655965596556 L 155.6390849175169,466.09660966096607 L 152.9099624628006,466.59665966596657 L 150.81367999758373,467.8467846784678 L 149.82486751399085,468.5968596859686 L 145.86961757961942,473.19731973197315 L 145.55319758486968,473.9473947394739 L 145.90917007896311,474.5474547454745 L 148.87560752974173,474.7474747474747 L 149.666657516616,475.09750975097506 L 150.10173500939686,475.89758975897587 L 156.9047648965158,480.54805480548055 L 161.0577773276058,485.2485248524852 L 161.3741973223555,485.49854985498547 L 163.35182228954125,486.0986098609861 z" /><path fill-rule="evenodd" fill="#D2EBD9" stroke="#A6A6A6" stroke-width="0.25" opacity="1" d="M 362.7755239805502,311.28112811281125 L 362.3799989871131,343.5343534353435 L 362.57776148383164,345.23452345234523 L 363.3292589713622,346.43464346434644 L 364.9509114444545,347.03470347034704 L 369.57855386766914,347.6847684768477 L 370.88378634601173,348.4348434843484 L 371.00244384404283,349.1349134913491 L 370.0531838597937,349.5349534953495 L 369.65765886635654,350.03500350035 L 369.0643713762008,352.48524852485247 L 367.99645389392055,354.3354335433543 L 368.1546638912954,355.13551355135513 L 369.1434763748883,356.53565356535654 L 370.7651288479806,357.9357935793579 L 372.3867813210729,358.08580858085804 L 377.4099487377246,356.0856085608561 L 381.0092261780026,353.035303530353 L 381.87938116356435,352.68526852685267 L 382.5517736524075,353.035303530353 L 383.46148113731294,352.035203520352 L 384.568951118937,349.88498849884985 L 385.4786586038424,348.88488848884884 L 387.8518085644653,347.98479847984794 L 389.47346103755757,347.7347734773477 L 390.6204835185253,347.88478847884784 L 391.17421850933727,349.034903490349 L 391.53019100343073,352.38523852385237 L 392.16303099293015,353.3353335333533 L 393.46826347127273,353.1353135313531 L 394.813048448959,352.4352435243524 L 395.4854409378022,352.48524852485247 L 394.536180953553,355.7855785578558 L 392.9936334791482,356.73567356735674 L 390.81824601524386,360.03600360036 L 389.15704104280786,360.88608860886086 L 387.21896857496586,361.08610861086106 L 385.2017911084364,360.98609860986096 L 383.10550864321954,361.18611861186116 L 377.29129123969346,363.2363236323632 L 375.9465062620072,364.2864286428643 L 375.1554562751329,365.8865886588659 L 374.6808262830083,369.4369436943694 L 374.16664379154,370.8370837083708 L 371.951703828292,370.1370137013701 L 368.1942163906391,373.73737373737373 L 363.17104897398735,380.5380538053805 L 361.9053689949885,381.4381438143814 L 357.8314615625859,387.48874887488745 L 356.72399158096187,388.6388638863886 L 356.09115159146245,389.88898889888986 L 355.81428409605644,391.2391239123912 L 355.73517909736904,392.8892889288929 L 355.2605491052444,393.53935393539354 L 352.966504143309,393.93939393939394 L 352.1754541564347,394.4894489448945 L 350.1187241905615,393.2893289328933 L 346.7172092470021,396.68966896689665 L 341.17985933888207,403.4903490349035 L 339.8350743611958,404.54045404540454 L 323.26257713617935,426.29262926292625 L 317.05283473921617,436.7436743674367 L 311.7527998271584,449.24492449244923 L 307.56023489672464,460.94609460946094 L 307.0856049046001,459.84598459845984 L 306.3736599164132,456.7456745674567 L 305.89902992428864,458.1458145814581 L 305.97813492297604,458.6958695869587 L 306.3736599164132,459.0959095909591 L 305.22663743544547,458.3958395839584 L 303.486327464322,456.99569956995697 L 302.1810949859795,456.7456745674567 L 304.6729024446335,458.94589458945893 L 304.83111244200836,461.7961796179618 L 303.3676699662909,468.84688468846883 L 305.66171492822633,463.19631963196315 L 306.9273949072252,461.5961596159616 L 307.1251574039438,464.39643964396436 L 305.5430574301952,468.74687468746873 L 303.32811746694716,472.8472847284728 L 301.58780749582377,474.89748974897486 L 299.76839252601286,475.69756975697567 L 299.68928752732546,475.3475347534753 L 299.2542100345446,474.9474947494749 L 298.85868504110744,474.89748974897486 L 298.85868504110744,475.19751975197516 L 299.09600003716974,475.49754975497547 L 298.6213700450451,475.7475747574757 L 298.3445025496392,475.69756975697567 L 297.86987255751455,475.9475947594759 L 297.0392700712966,475.79757975797577 L 297.7116625601397,475.6475647564756 L 298.3840550489829,474.09740974097406 L 298.5818175457014,473.99739973997396 L 298.7400275430763,473.49734973497345 L 298.502712547014,472.29722972297225 L 299.37286753257575,471.8471847184718 L 299.41242003191945,469.8969896989699 L 300.2034700187937,466.7466746674667 L 299.96615502273147,464.3464346434643 L 296.92061257326543,462.79627962796275 L 291.2250526677705,461.3961396139614 L 291.4623676638328,461.1961196119612 L 292.72804764283165,460.84608460846084 L 293.9146226231431,459.74597459745974 L 294.1914901185491,458.995899589959 L 293.95417512248684,456.9456945694569 L 294.072832620518,456.19561956195616 L 294.94298760607967,455.2455245524552 L 296.01090508836,454.5454545454545 L 296.44598258114087,453.8453845384538 L 296.3668775824534,453.7453745374537 L 295.65493259426654,453.9453945394539 L 291.85789265726993,453.4453445344534 L 290.43400268089624,453.045304530453 L 288.9705602051788,452.0952095209521 L 288.1004052196171,451.14511451145114 L 286.20188525111877,449.99499949995 L 285.7272552589942,449.54495449544953 L 285.4503877635882,448.1948194819482 L 285.4108352642445,444.69446944694465 L 284.8966527727762,440.8940894089409 L 285.01531027080733,440.14401440144013 L 285.64815026030675,439.2439243924392 L 285.56904526161935,437.99379937993797 L 286.0041227544002,436.5436543654365 L 286.0436752537439,435.89358935893586 L 285.5294927622756,434.043404340434 L 284.777995274745,432.84328432843284 L 284.26381278327676,432.34323432343234 L 283.5914202944336,432.14321432143214 L 283.1958953009965,431.84318431843184 L 281.9697678213413,429.4929492949295 L 281.85111032331014,428.59285928592857 L 282.1675303180599,426.99269926992696 L 283.3145527990276,424.79247924792475 L 283.74963029180844,423.3923392339234 L 284.34291778196416,422.4922492249225 L 283.8682877898396,418.39183918391836 L 282.286187816091,415.041504150415 L 278.21228038368844,410.6410641064106 L 277.4212303968141,409.89098909890987 L 276.86749540600215,409.09090909090907 L 275.6809204256907,405.1405140514051 L 304.1191674538215,391.9391939193919 L 306.3736599164132,391.08910891089107 L 328.08798205611254,390.78907890789077 L 329.828292027236,390.4390439043904 L 328.5626120482371,388.5388538853885 L 327.8902195593939,387.08870887088705 L 327.5737995646442,385.53855385538554 L 327.7320095620191,383.5883588358836 L 328.72082204561195,380.4380438043804 L 328.95813704167426,378.8378837883788 L 328.36484955151855,377.3377337733773 L 322.0364496565242,369.48694869486945 L 321.36405716768104,368.4368436843684 L 319.38643220049534,363.4363436343634 L 314.36326478384353,357.38573857385734 L 313.1766898035321,354.93549354935493 L 312.8602698087824,352.2352235223522 L 313.25579480221955,350.28502850285025 L 313.7699772936878,349.1349134913491 L 314.4028172831873,348.3348334833483 L 315.272972268749,346.23462346234624 L 318.12075222149645,338.28382838283824 L 318.872249709027,337.23372337233724 L 320.256587186057,336.1836183618362 L 322.5110796486488,335.5335533553355 L 323.1043671388045,335.0835083508351 L 323.4603396328979,333.88338833883387 L 323.6581021296165,333.78337833783377 L 324.84467710992794,334.5334533453345 L 327.2969320692382,334.9334933493349 L 328.68126954626825,336.73367336733673 L 329.6305295305174,337.2837283728373 L 330.30292201936055,337.33373337333734 L 330.7379995121414,337.13371337133714 L 332.7156244793271,335.4335433543354 L 335.16787943863744,334.48344834483447 L 337.73879189597886,333.033303330333 L 338.8462618776029,332.78327832783276 L 342.20822432181865,333.1333133313331 L 343.1574843060678,332.9332933293329 L 346.5194467502835,328.53285328532854 L 347.15228673978294,327.93279327932794 L 350.63290668202984,325.9325932593259 L 351.0679841748107,325.4825482548255 L 351.58216666627897,324.2324232423242 L 352.53142665052815,319.48194819481944 L 352.92695164396525,318.73187318731874 L 353.4015816360899,318.33183318331834 L 356.40757158621216,317.4817481748175 L 357.3172790711176,317.03170317031703 L 357.7919090632422,316.2816281628163 L 358.30609155471046,314.78147814781477 L 358.7411690474913,314.1314131413141 L 360.24416402255247,312.6312631263126 L 361.6285014995825,312.18121812181215 L 362.7755239805502,311.28112811281125 z" /><g><path fill-rule="evenodd" fill="#D2EBD9" stroke="#A6A6A6" stroke-width="0.25" opacity="1" d="M 362.7755239805502,311.28112811281125 L 361.6285014995825,312.18121812181215 L 360.24416402255247,312.6312631263126 L 358.7411690474913,314.1314131413141 L 358.30609155471046,314.78147814781477 L 357.7919090632422,316.2816281628163 L 357.3172790711176,317.03170317031703 L 356.40757158621216,317.4817481748175 L 353.4015816360899,318.33183318331834 L 352.92695164396525,318.73187318731874 L 352.53142665052815,319.48194819481944 L 351.58216666627897,324.2324232423242 L 351.0679841748107,325.4825482548255 L 350.63290668202984,325.9325932593259 L 347.15228673978294,327.93279327932794 L 346.5194467502835,328.53285328532854 L 343.1574843060678,332.9332933293329 L 342.20822432181865,333.1333133313331 L 338.8462618776029,332.78327832783276 L 337.73879189597886,333.033303330333 L 335.16787943863744,334.48344834483447 L 332.7156244793271,335.4335433543354 L 330.7379995121414,337.13371337133714 L 330.30292201936055,337.33373337333734 L 329.6305295305174,337.2837283728373 L 328.68126954626825,336.73367336733673 L 327.2969320692382,334.9334933493349 L 324.84467710992794,334.5334533453345 L 323.6581021296165,333.78337833783377 L 323.4603396328979,333.88338833883387 L 323.1043671388045,335.0835083508351 L 322.5110796486488,335.5335533553355 L 320.256587186057,336.1836183618362 L 318.12075222149645,333.8333833383338 L 317.84388472609044,333.38333833383336 L 317.2901497352784,331.28312831283125 L 316.85507224249756,330.38303830383035 L 314.4819222818747,327.73277327732774 L 314.1259497877813,327.0827082708271 L 313.29534730156325,322.38223822382236 L 313.57221479696926,322.1322132213221 L 314.56102728056214,321.88218821882185 L 314.996104773343,321.4321432143214 L 315.90581225824843,321.38213821382135 L 316.45954724906045,320.3320332033203 L 316.53865224774785,319.8319831983198 L 316.6177572464353,318.7818781878188 L 315.6289447628424,316.5816581658166 L 315.826707259561,314.18141814181416 L 315.6684972621861,313.38133813381336 L 314.5214747812184,312.58125812581255 L 313.4535572989381,311.08110811081104 L 312.8207173094387,310.88108810881084 L 311.95056232387697,311.2311231123112 L 311.08040733831524,312.1312131213121 L 310.32890985078467,312.2312231223122 L 308.6281523790049,312.031203120312 L 300.5594425128872,317.2817281728173 L 299.6497350279817,318.4818481848185 L 298.89823754045113,321.2321232123212 L 298.6213700450451,321.7321732173217 L 296.6437450778594,324.18241824182417 L 295.4176175982043,325.3325332533253 L 294.58701511198626,325.7825782578258 L 294.1123851198617,325.8825882588259 L 293.3213351329874,325.7825782578258 L 292.72804764283165,325.4325432543254 L 291.6601301605514,324.08240824082407 L 291.2250526677705,323.98239823982397 L 290.5526601789274,324.1324132413241 L 286.24143775046247,326.0826082608261 L 285.64815026030675,326.63266326632663 L 284.6593377767139,328.23282328232824 L 284.1056027859019,329.98299829982994 L 283.94739278852705,331.48314831483145 L 284.0660502865582,332.38323832383236 L 283.1958953009965,333.68336833683367 L 280.38766784759275,336.53365336533653 L 279.794380357437,338.8338833883388 L 279.16154036793756,339.9339933993399 L 278.3704903810633,340.48404840484045 L 277.4212303968141,340.28402840284025 L 276.8279429066584,339.68396839683965 L 275.4831579289721,340.08400840084005 L 269.82715052282094,343.9343934393439 L 267.8495255556352,345.83458345834583 L 266.4256355792615,348.58485848584854 L 264.5271156107632,349.4349434943494 L 264.2106956160135,349.98499849984995 L 264.6062206094506,350.8350835083508 L 264.68532560813804,351.7351735173517 L 264.48756311141943,352.8352835283528 L 264.131590617326,353.6353635363536 L 263.45919812848285,353.9353935393539 L 262.6681481416086,354.035403540354 L 260.7696281731103,353.8853885388539 L 260.37410317967317,353.985398539854 L 259.70171069083,354.1854185418542 L 258.7128982072371,355.1855185518552 L 258.55468820986226,355.7855785578558 L 258.7920032059246,357.8357835783578 L 258.59424070920596,358.48584858485845 L 258.0800582177377,359.1359135913591 L 257.0912457341448,359.28592859285925 L 253.17554829911708,358.9358935893589 L 251.90986832011822,359.08590859085905 L 250.7628458391505,359.5359535953595 L 247.67775089034075,359.48594859485945 L 246.72849090609162,359.6359635963596 L 245.22549593103045,361.18611861186116 L 243.9598159520316,361.28612861286126 L 240.2418810137224,361.08610861086106 L 237.94783605178696,360.6360636063606 L 236.9590235681941,360.68606860686066 L 236.24707858000724,360.4360436043604 L 236.52394607541325,358.4358435843584 L 236.4052885773821,357.7357735773577 L 234.66497860625867,356.13561356135614 L 234.03213861675923,354.8854885488549 L 233.51795612529094,354.5354535453545 L 232.80601113710406,354.5854585458546 L 231.8567511528549,355.4855485548555 L 231.38212116073035,355.5855585558556 L 229.76046868763805,355.23552355235523 L 229.20673369682603,355.23552355235523 L 228.57389370732662,355.4855485548555 L 225.92387625129774,355.03550355035503 L 224.7373012709863,355.33553355335533 L 223.59027879001857,356.6856685668567 L 223.19475379658144,357.48574857485744 L 222.40370380970714,361.08610861086106 L 220.18876384645912,365.1865186518652 L 220.22831634580282,367.18671867186714 L 219.35816136024113,370.4370437043704 L 219.39771385958483,371.1371137113711 L 219.51637135761598,371.3371337133713 L 220.1492113471154,371.6371637163716 L 222.838781302488,371.68716871687167 L 223.3925162933,372.1372137213721 L 223.669383788706,373.2373237323732 L 223.55072629067487,374.03740374037403 L 222.48280880839457,375.73757375737574 L 221.81041631955142,376.2876287628763 L 220.34697384383398,377.037703770377 L 221.09847133136455,377.6377637763776 L 219.23950386220997,380.18801880188016 L 218.44845387533567,380.78807880788077 L 216.2730664114314,381.038103810381 L 214.84917643505764,381.4381438143814 L 213.0297614652468,382.1882188218822 L 212.15960647968507,382.9382938293829 L 212.43647397509105,384.33843384338434 L 213.18797146262165,384.73847384738474 L 214.80962393571394,387.28872887288725 L 215.4820164245571,387.9387938793879 L 216.43127640880624,388.2388238823882 L 220.70294633792741,391.039103910391 L 222.5223613077383,391.7891789178918 L 222.8783338018317,392.2392239223922 L 222.91788630117543,392.93929392939293 L 221.84996881889512,394.73947394739474 L 221.2171288293957,395.03950395039504 L 220.30742134449025,394.3894389438944 L 219.16039886352254,394.2894289428943 L 218.36934887664825,395.7395739573957 L 216.94545890027453,397.4397439743974 L 214.33499394358935,401.1401140114011 L 213.3461814599965,403.14031403140314 L 212.95065646655934,404.54045404540454 L 213.30662896065277,406.79067906790675 L 213.14841896327792,407.59075907590756 L 212.67378897115336,408.49084908490846 L 212.63423647180963,409.19091909190917 L 213.10886646393422,411.1411141114111 L 214.29544144424565,413.4913491349135 L 214.37454644293308,414.24142414241425 L 213.3461814599965,415.3415341534153 L 212.8715514678719,416.69166916691665 L 211.32900399346704,417.69176917691766 L 210.41929650856162,417.7417741774177 L 209.66779902103104,417.29172917291726 L 208.4812240407196,416.9416941694169 L 206.82001906828359,416.6416641664166 L 205.63344408797215,416.6416641664166 L 205.04015659781643,416.99169916991696 L 204.32821160962956,417.8417841784178 L 202.39013914178756,420.94209420942093 L 201.04535416410127,422.04220422042204 L 200.17519917853954,422.3922392239224 L 199.06772919691554,422.3922392239224 L 198.3953367080724,422.1922192219222 L 197.8811542166041,421.84218421842183 L 196.8132367343238,420.7420742074207 L 195.5080042559812,419.99199919992 L 194.9147167658255,419.2419241924192 L 194.6774017697632,418.69186918691867 L 194.71695426910694,418.19181918191816 L 195.58710925466863,417.2417241724172 L 195.82442425073094,416.59165916591655 L 195.34979425860635,415.19151915191514 L 195.1520317618878,413.4913491349135 L 194.47963927304463,411.84118411841183 L 194.55874427173205,411.34113411341133 L 195.1520317618878,410.4410441044104 L 195.1520317618878,409.4409440944094 L 194.83561176713806,408.89088908890886 L 192.7788818012649,407.9407940794079 L 190.80125683407917,406.040604060406 L 190.5639418380169,405.6405640564056 L 190.48483683932946,404.84048404840485 L 190.91991433211032,403.3903390339034 L 190.8408093334229,402.94029402940293 L 190.3661793412983,402.94029402940293 L 189.33781435836173,403.4903490349035 L 188.34900187476887,404.2904290429043 L 187.2810843924886,405.6405640564056 L 186.4900344056143,406.3406340634063 L 185.22435442661543,406.9406940694069 L 184.71017193514714,407.040704070407 L 183.5631494541794,406.79067906790675 L 182.41612697321168,407.4407440744074 L 181.9810494804308,407.49074907490746 L 180.91313199815053,407.3407340734073 L 179.68700451849537,407.39073907390735 L 177.90714204802822,406.8406840684068 L 177.2743020585288,405.29052905290524 L 178.02579954605937,404.6904690469047 L 178.50042953818394,404.7904790479048 L 179.33103202440194,405.29052905290524 L 179.88476701521395,405.1405140514051 L 180.75492200077568,404.2904290429043 L 182.65344196927398,403.34033403340334 L 186.2131669102083,399.98999899989997 L 187.67660938592573,399.2399239923992 L 187.24153189314487,398.8398839883988 L 188.03258188001917,397.98979897989796 L 189.14005186164317,397.2397239723972 L 189.69378685245516,397.1397139713971 L 190.08931184589233,396.6396639663966 L 192.7393293019212,394.4894489448945 L 194.79605926779436,393.33933393339333 L 197.01099923104238,392.5892589258926 L 199.5028066896964,392.1392139213921 L 202.2714816437564,391.989198919892 L 202.2714816437564,391.3891389138914 L 199.2654916936341,391.4391439143914 L 197.8811542166041,391.2891289128913 L 196.8132367343238,390.8390839083908 L 196.8132367343238,390.18901890189017 L 204.52597410634814,390.98909890989097 L 207.01778156500217,390.18901890189017 L 206.54315157287758,388.88888888888886 L 206.93867656631474,388.038803880388 L 209.07451153087533,386.28862886288624 L 207.84838405122017,384.2884288428843 L 207.65062155450158,382.9382938293829 L 209.07451153087533,382.3382338233823 L 210.06332401446818,381.5381538153815 L 213.58349645605878,376.2876287628763 L 214.92828143374507,374.93749374937494 L 215.60067392258821,374.03740374037403 L 215.87754141799422,372.987298729873 L 215.60067392258821,371.68716871687167 L 214.41409894227678,369.98699869986996 L 213.82081145212106,368.48684868486845 L 212.31781647705992,367.036703670367 L 211.80363398559163,366.03660366036604 L 211.80363398559163,365.23652365236524 L 212.15960647968507,363.3863386338634 L 211.80363398559163,362.38623862386237 L 213.14841896327792,362.4362436243624 L 213.3857339593402,361.8361836183618 L 213.26707646130907,360.88608860886086 L 213.58349645605878,360.03600360036 L 216.23351391208766,358.48584858485845 L 216.54993390683737,357.23572357235724 L 217.1827738963368,355.93559355935594 L 220.38652634317768,353.8353835383538 L 221.81041631955142,352.68526852685267 L 221.65220632217657,353.3353335333533 L 221.29623382808313,353.9353935393539 L 222.48280880839457,353.6853685368537 L 223.23430629592514,351.78517851785176 L 224.26267127886172,350.9350935093509 L 225.40969375982945,350.78507850785076 L 228.73210370470147,351.5351535153515 L 230.9470436679495,351.3351335133513 L 242.53592597565788,348.08480848084804 L 244.7508659389059,347.9347934793479 L 247.0053584014976,347.43474347434744 L 250.60463584177563,345.33453345334533 L 252.85912830436737,344.9344934493449 L 251.71210582339964,345.7845784578458 L 250.44642584440078,346.13461346134613 L 250.44642584440078,346.73467346734674 L 252.6218133083051,345.984598459846 L 254.8763057708968,343.98439843984397 L 256.10243325055194,341.68416841684166 L 255.19272576564654,340.08400840084005 L 256.65616824136396,339.78397839783975 L 258.19871571576886,338.38383838383834 L 259.3852906960803,338.9338933893389 L 259.70171069083,338.2338233823382 L 260.09723568426716,337.83378337833784 L 260.6114181757354,337.83378337833784 L 261.16515316654744,338.28382838283824 L 261.71888815735946,338.28382838283824 L 270.0644655188832,334.983498349835 L 271.13238300116353,334.1334133413341 L 277.8167553902513,330.98309830983095 L 284.61978527737017,324.4324432443244 L 286.59741024455593,323.9323932393239 L 289.20787520124105,322.58225822582256 L 291.10639516973936,320.68206820682065 L 290.9086326730208,318.3818381838184 L 294.3892526152677,317.7817781778178 L 296.6832975772031,315.4315431543154 L 298.46316004767027,312.48124812481245 L 300.40123251551233,309.9309930993099 L 300.99452000566805,310.5310531053105 L 302.41840998204174,308.980898089809 L 302.8534874748226,308.1808180818082 L 305.14753243675807,302.1302130213021 L 303.6445374616969,300.78007800780074 L 303.20945996891606,300.03000300030004 L 302.8139349754789,299.0799079907991 L 303.7236424603843,298.42984298429843 L 303.8818524577592,297.979797979798 L 302.8139349754789,297.3297329732973 L 303.8422999584155,297.2297229722972 L 304.31692995054004,296.979697969797 L 305.14753243675807,296.1296129612961 L 307.0460524052564,294.97949794979496 L 307.56023489672464,294.3294329432943 L 306.49231741444436,294.37943794379436 L 305.7012674275701,294.6294629462946 L 304.00050995579033,295.47954795479546 L 304.23782495185264,293.9293929392939 L 306.3736599164132,292.47924792479245 L 306.9273949072252,291.57915791579154 L 306.49231741444436,290.6290629062906 L 305.5035049308515,289.92899289928994 L 303.3676699662909,288.8788878887889 L 302.14154248663573,287.3787378737874 L 301.7460174931986,285.9285928592859 L 302.06243748794833,285.07850785078506 L 303.0908024708849,285.5285528552855 L 304.7520074433209,287.17871787178717 L 305.7012674275701,287.2287228722872 L 307.56023489672464,287.028702870287 L 307.56023489672464,286.47864786478647 L 305.4243999321641,285.9285928592859 L 303.0512499715412,284.6284628462846 L 301.7460174931986,283.07830783078305 L 302.8139349754789,281.67816781678164 L 302.2601999846669,281.07810781078103 L 300.1243650201063,277.8277827782778 L 299.5310775299506,277.2277227722772 L 299.2542100345446,277.7277727772777 L 298.81913254176374,277.977797779778 L 296.52508757982827,276.8276827682768 L 293.2817826336437,272.027202720272 L 293.5586501290497,269.2769276927693 L 296.24822008442226,268.1268126812681 L 296.7228500765469,267.3267326732673 L 304.27737745119634,260.2760276027603 L 306.4132124157569,257.5257525752575 L 307.56023489672464,256.3256325632563 L 308.7863623763798,255.7255725572557 L 310.28935735144097,255.7255725572557 L 315.5893922634987,256.37563756375636 L 317.3692547339659,256.1256125612561 L 322.3924221506176,253.92539253925392 L 322.3924221506176,255.17551755175515 L 323.7767596276476,254.07540754075407 L 325.43796460008366,253.32533253325332 L 324.2909421191159,253.47534753475347 L 323.57899713092905,253.92539253925392 L 323.02526214011704,253.92539253925392 L 324.4491521164908,252.7252725272527 L 327.45514206661306,251.27512751275125 L 330.61934201411026,250.27502750275025 L 332.55741448195226,250.3250325032503 L 333.54622696554515,252.5252525252525 L 333.7439894622637,255.7255725572557 L 333.22980697079544,258.77587758775877 L 331.92457449245285,260.5760576057606 L 331.92457449245285,261.1761176117612 L 332.4387569839211,261.7761776177618 L 332.6365194806397,262.67626762676264 L 332.55741448195226,264.8264826482648 L 331.489496999672,264.17641764176415 L 330.4215795173917,265.1265126512651 L 329.27455703642397,266.5266526652665 L 328.08798205611254,267.2267226722672 L 326.78274957776995,267.37673767376737 L 323.53944463158535,268.3768376837684 L 322.3924221506176,268.976897689769 L 321.68047716243075,269.7769776977698 L 319.9006146919636,272.6272627262726 L 319.50508969852643,274.027402740274 L 316.45954724906045,278.6278627862786 L 315.90581225824843,278.6278627862786 L 315.272972268749,278.0778077807781 L 315.7080497615299,279.82798279827983 L 316.85507224249756,280.22802280228024 L 319.74240469458874,279.82798279827983 L 320.9289796749002,280.02800280028003 L 321.2849521689936,280.5780578057806 L 321.36405716768104,281.2281228122812 L 321.7991346604619,281.67816781678164 L 322.6692896460236,281.67816781678164 L 323.26257713617935,281.27812781278124 L 323.6976546289602,281.17811781178114 L 324.21183712042847,282.2282228222822 L 327.4946945659568,281.3281328132813 L 328.72082204561195,280.6780678067807 L 328.36484955151855,279.22792279227923 L 329.55142453183,279.22792279227923 L 328.99768954101796,277.37773777377737 L 329.828292027236,276.027602760276 L 332.55741448195226,274.4274427442744 L 333.82309446095115,275.07750775077506 L 335.0096694412626,274.4274427442744 L 336.03803442419917,273.2273227322732 L 336.6708744136986,272.027202720272 L 338.0156593913849,272.27722772277224 L 339.8350743611958,272.07720772077204 L 341.3776218356006,272.1272127212721 L 342.0500143244438,273.2273227322732 L 342.6433018145995,273.2273227322732 L 343.2761418040989,272.17721772177214 L 344.3440592863792,271.0771077107711 L 345.6097392653781,270.12701270127013 L 346.79631424568953,269.62696269626963 L 346.79631424568953,268.976897689769 L 344.22540178834805,267.9267926792679 L 343.82987679491094,268.1268126812681 L 343.7507717962235,269.3269326932693 L 342.6433018145995,271.42714271427144 L 342.0500143244438,271.42714271427144 L 341.4567268342881,270.1770177017702 L 343.19703680541147,266.7266726672667 L 343.82987679491094,266.026602660266 L 345.0560042745661,265.57655765576555 L 347.6269167319075,265.67656765676566 L 348.6157292155004,265.37653765376535 L 347.2709442378141,264.5264526452645 L 346.2030267555338,264.17641764176415 L 345.57018676603434,263.7263726372637 L 345.6097392653781,262.4262426242624 L 346.08436925750266,261.42614261426144 L 348.9321492102501,257.87578757875787 L 349.4858842010621,256.47564756475646 L 348.8925967109064,255.1255125512551 L 347.94333672665726,253.97539753975397 L 347.42915423518895,253.07530753075307 L 346.9940767424081,252.8252825282528 L 344.42316428506666,249.67496749674967 L 347.38960173584525,246.77467746774676 L 358.1874340566793,238.87388738873886 L 360.24416402255247,236.67366736673665 L 366.1770389241097,226.5226522652265 L 366.41435392017195,225.42254225422542 L 365.38598893723537,222.6222622262226 L 365.2277789398605,221.27212721272127 L 366.41435392017195,220.32203220322032 L 366.96808891098397,222.3222322232223 L 367.4031664037648,226.27262726272625 L 362.81507647989395,236.3236323632363 L 362.4195514864568,239.07390739073907 L 361.82626399630107,239.97399739973997 L 360.3232690212399,240.77407740774075 L 359.5322190343656,240.9240924092409 L 358.4643015520853,240.47404740474047 L 357.9105665612733,240.52405240524052 L 357.43593656914874,240.9240924092409 L 356.13070409080615,242.6242624262426 L 353.7180016308396,244.07440744074407 L 352.88739914462155,244.92449244924492 L 353.0060566426527,246.024602460246 L 353.7575541301833,246.6246624662466 L 357.71280406455475,248.87488748874887 L 361.54939650089506,252.57525752575256 L 364.0412039595491,253.82538253825382 L 366.4934589188594,254.62546254625462 L 368.7875038807948,255.7255725572557 L 370.6860238492931,258.07580758075807 L 371.51662633551115,260.6760676067607 L 371.7539413315734,263.77637763776374 L 371.23975884010514,269.8769876987699 L 370.56736635126197,272.57725772577254 L 369.4994488689817,274.8274827482748 L 368.03600639326424,276.87768776877687 L 365.30688393854797,279.92799279927993 L 364.5553864510174,281.07810781078103 L 364.12030895823654,282.3282328232823 L 364.19941395692393,283.6283628362836 L 364.9113589451108,284.4284428442844 L 367.521823901796,286.028602860286 L 368.31287388867025,286.97869786978697 L 368.31287388867025,288.1788178817882 L 367.2054039070463,288.978897889789 L 368.07555889260794,290.12901290129014 L 369.0643713762008,290.8290829082908 L 378.04278872722404,294.5294529452945 L 380.6532536839092,296.1296129612961 L 381.87938116356435,298.1798179817982 L 381.56296116881464,299.02990299029904 L 379.3084687062229,302.78027802780275 L 378.1218937259115,303.58035803580356 L 374.16664379154,304.9304930493049 L 370.21139385716856,307.8807880788079 L 367.71958639851454,309.0809080908091 L 366.8098789136091,310.98109810981094 L 366.1770389241097,311.4311431143114 L 365.38598893723537,311.4311431143114 L 362.7755239805502,310.3310331033103 L 362.7755239805502,311.28112811281125 z" /><path fill-rule="evenodd" fill="#D2EBD9" stroke="#A6A6A6" stroke-width="0.25" opacity="1" d="M 169.32424969044214,394.83948394839484 L 168.45409470488045,391.989198919892 L 167.93991221341216,391.2391239123912 L 166.04139224491385,390.78907890789077 L 163.35182228954125,389.28892889288926 L 162.9562972961041,389.18891889188916 L 162.32345730660467,389.7389738973897 L 160.82046233154352,389.38893889388936 L 158.68462736698294,388.3388338833883 L 157.89357738010864,387.58875887588755 L 157.5376048860152,386.9386938693869 L 157.97268237879607,385.98859885988594 L 158.68462736698294,385.53855385538554 L 160.38538483876266,385.5885588558856 L 161.17643482563696,385.43854385438544 L 161.96748481251123,385.03850385038504 L 163.54958478625983,384.8884888488849 L 165.17123725935213,384.0884088408841 L 166.23915474163243,382.7382738273827 L 166.63467973506957,381.9381938193819 L 166.95109972981928,380.7380738073807 L 168.6123047022553,380.2380238023802 L 168.77051469963016,380.03800380038 L 167.34662472325644,374.987498749875 L 167.42572972194387,374.0874087408741 L 167.70259721734985,373.83738373837383 L 167.62349221866242,373.4373437343734 L 166.95109972981928,372.7872787278728 L 166.35781223966356,371.28712871287127 L 165.6458672514767,370.68706870687066 L 165.0921322606647,369.5369536953695 L 163.94510977969696,368.88688868886885 L 171.22276965894045,358.98589858985895 L 173.63547211890705,353.9353935393539 L 174.2683121084065,353.9353935393539 L 175.33622959068677,355.33553355335533 L 176.12727957756107,356.8856885688569 L 178.02579954605937,362.9362936293629 L 178.4213245394965,363.6363636363636 L 180.47805450536967,364.6864686468647 L 180.79447450011938,365.13651365136514 L 181.26910449224397,365.23652365236524 L 184.0773319456477,366.63666366636664 L 184.31464694170998,366.98669866986694 L 182.57433697058656,369.38693869386935 L 183.20717696008597,370.5370537053705 L 184.67061943580342,370.4370437043704 L 187.39974189051972,369.08690869086905 L 187.75571438461316,369.78697869786976 L 188.19079187739402,371.38713871387137 L 188.58631687083115,372.037203720372 L 190.60349433736062,373.2373237323732 L 190.91991433211032,373.5873587358736 L 191.51320182226604,375.13751375137514 L 192.85798679995233,376.03760376037604 L 194.4005342743572,376.68766876687664 L 195.62666175401236,377.48774877487745 L 195.62666175401236,378.037803780378 L 192.5020143058589,377.9377937793779 L 190.99901933079775,378.1378137813781 L 189.69378685245516,378.7378737873787 L 190.76170433473547,379.78797879787976 L 191.4340968235786,380.28802880288026 L 192.10648931242176,380.5380538053805 L 190.99901933079775,381.6381638163816 L 189.93110184851747,383.0883088308831 L 189.85199684983002,384.33843384338434 L 191.59230682095347,384.7884788478848 L 191.59230682095347,385.33853385338534 L 190.60349433736062,386.18861886188614 L 187.39974189051972,388.38883888388835 L 185.81764191677115,387.7387738773877 L 184.15643694433513,387.7387738773877 L 182.61388946993026,388.28882888288825 L 179.2519270257145,390.18901890189017 L 177.86758954868452,390.78907890789077 L 177.2743020585288,390.5390539053905 L 171.3414271569716,393.03930393039303 L 169.32424969044214,394.83948394839484 z" /><path fill-rule="evenodd" fill="#D2EBD9" stroke="#A6A6A6" stroke-width="0.25" opacity="1" d="M 172.4488971385956,401.8401840184018 L 172.09292464450218,401.7901790179018 L 171.26232215828418,402.24022402240223 L 174.2683121084065,402.24022402240223 L 174.2683121084065,402.84028402840283 L 171.73695215040874,403.64036403640364 L 168.96827719634874,404.0904090409041 L 168.21677970881814,404.04040404040404 L 166.59512723572584,403.4903490349035 L 167.78170221603727,401.2901290129013 L 168.57275220291157,400.4400440044004 L 170.07574717797274,399.8399839983998 L 171.5391896536902,399.6399639963996 L 173.04218462875133,399.78997899789977 L 175.4153345893742,400.49004900490047 L 175.4153345893742,401.040104010401 L 174.50562710446877,400.990099009901 L 173.7936821162819,401.1901190119012 L 173.31905212415734,401.5901590159016 L 172.4488971385956,401.8401840184018 z" /><path fill-rule="evenodd" fill="#D2EBD9" stroke="#A6A6A6" stroke-width="0.25" opacity="1" d="M 1.621652473092298,0.1000100010001 L 3.4015149435594547,0.5000500050005 L 4.508984925183463,1.7001700170017 L 4.588089923870893,3.7503750375037503 L 3.4015149435594547,3.5003500350035 L 1.1470224809677232,1.9501950195019502 L 0.0,0.0 L 1.621652473092298,0.1000100010001 z" /><path fill-rule="evenodd" fill="#D2EBD9" stroke="#A6A6A6" stroke-width="0.25" opacity="1" d="M 279.6757228594059,279.2779277927793 L 280.18990535087414,278.8278827882788 L 281.2973753324982,278.6278627862786 L 281.9697678213413,278.8778877887789 L 282.04887282002875,279.92799279927993 L 280.82274534037356,279.8779877987799 L 279.6757228594059,279.2779277927793 z" /></g><path fill-rule="evenodd" fill="#D2EBD9" stroke="#A6A6A6" stroke-width="0.25" opacity="1" d="M 291.2250526677705,461.3961396139614 L 285.01531027080733,459.0959095909591 L 283.2354478003402,457.045704570457 L 282.8794753062467,456.8456845684568 L 280.50632534562385,457.29572957295727 L 279.9525903548119,457.09570957095707 L 278.7264628751567,456.2456245624562 L 277.89586038893873,456.09560956095606 L 277.0652579027207,456.19561956195616 L 276.471970412565,456.49564956495647 L 271.25104049919463,460.64606460646064 L 270.8555155057575,462.1462146214621 L 269.90625552150834,462.79627962796275 L 268.7196805411969,462.59625962596255 L 267.6913155582603,461.5961596159616 L 266.2278730825429,461.94619461946195 L 264.0524856186386,460.54605460546054 L 263.02412063570205,461.5961596159616 L 262.4308331455463,461.5961596159616 L 261.4024681626097,460.7960796079608 L 260.41365567901687,461.1961196119612 L 258.7920032059246,462.79627962796275 L 257.763638222988,462.59625962596255 L 257.0121407354574,462.69626962696265 L 256.30019574727055,407.09070907090705 L 255.27183076433397,393.4893489348935 L 253.68973079058537,391.7891789178918 L 253.2546532978045,391.08910891089107 L 253.17554829911708,390.1390139013901 L 253.33375829649194,389.3389338933893 L 254.8763057708968,389.58895889588956 L 257.5658757262694,388.3388338833883 L 260.7696281731103,389.78897889788976 L 263.38009312979545,389.58895889588956 L 264.2898006147009,389.78897889788976 L 266.58384557663635,390.5390539053905 L 268.28460304841605,391.5391539153915 L 269.86670302216464,396.18961896189614 L 269.7875980234772,396.8396839683968 L 268.4032605464472,398.28982898289826 L 268.24505054907235,400.4400440044004 L 268.00773555301004,401.1401140114011 L 266.86071307204236,402.3902390239024 L 264.8830881048566,405.3405340534053 L 264.48756311141943,406.49064906490645 L 272.35851048081867,407.4407440744074 L 272.79358797359953,407.59075907590756 L 273.3077704650678,408.1408140814081 L 275.00852793684754,410.3410341034103 L 278.21228038368844,410.6410641064106 L 282.286187816091,415.041504150415 L 283.8682877898396,418.39183918391836 L 284.34291778196416,422.4922492249225 L 283.74963029180844,423.3923392339234 L 283.3145527990276,424.79247924792475 L 282.1675303180599,426.99269926992696 L 281.85111032331014,428.59285928592857 L 281.9697678213413,429.4929492949295 L 283.1958953009965,431.84318431843184 L 283.5914202944336,432.14321432143214 L 284.26381278327676,432.34323432343234 L 284.777995274745,432.84328432843284 L 285.5294927622756,434.043404340434 L 286.0436752537439,435.89358935893586 L 286.0041227544002,436.5436543654365 L 285.56904526161935,437.99379937993797 L 285.64815026030675,439.2439243924392 L 285.01531027080733,440.14401440144013 L 284.8966527727762,440.8940894089409 L 285.4108352642445,444.69446944694465 L 285.4503877635882,448.1948194819482 L 285.7272552589942,449.54495449544953 L 286.20188525111877,449.99499949995 L 288.1004052196171,451.14511451145114 L 288.9705602051788,452.0952095209521 L 290.43400268089624,453.045304530453 L 291.85789265726993,453.4453445344534 L 295.65493259426654,453.9453945394539 L 296.3668775824534,453.7453745374537 L 296.44598258114087,453.8453845384538 L 296.01090508836,454.5454545454545 L 294.94298760607967,455.2455245524552 L 294.072832620518,456.19561956195616 L 293.95417512248684,456.9456945694569 L 294.1914901185491,458.995899589959 L 293.9146226231431,459.74597459745974 L 292.72804764283165,460.84608460846084 L 291.4623676638328,461.1961196119612 L 291.2250526677705,461.3961396139614 z" /><path fill-rule="evenodd" fill="#D2EBD9" stroke="#A6A6A6" stroke-width="0.25" opacity="1" d="M 278.21228038368844,410.6410641064106 L 275.00852793684754,410.3410341034103 L 273.3077704650678,408.1408140814081 L 272.79358797359953,407.59075907590756 L 272.35851048081867,407.4407440744074 L 264.48756311141943,406.49064906490645 L 264.8830881048566,405.3405340534053 L 266.86071307204236,402.3902390239024 L 268.00773555301004,401.1401140114011 L 268.24505054907235,400.4400440044004 L 268.4032605464472,398.28982898289826 L 269.7875980234772,396.8396839683968 L 269.86670302216464,396.18961896189614 L 268.28460304841605,391.5391539153915 L 266.58384557663635,390.5390539053905 L 264.2898006147009,389.78897889788976 L 263.38009312979545,389.58895889588956 L 260.7696281731103,389.78897889788976 L 257.5658757262694,388.3388338833883 L 254.8763057708968,389.58895889588956 L 253.33375829649194,389.3389338933893 L 252.06807831749308,387.9387938793879 L 243.84115845400044,385.53855385538554 L 242.29861097959557,385.33853385338534 L 236.64260357344438,386.5386538653865 L 234.54632110822752,386.1386138613861 L 230.67017617254348,385.8385838583858 L 227.9806062171709,384.63846384638464 L 227.1895562302966,384.0884088408841 L 226.0820862486726,382.8882888288829 L 224.02535628279944,381.6381638163816 L 223.74848878739343,381.3381338133813 L 223.74848878739343,380.8380838083808 L 222.12683631430113,378.8378837883788 L 221.88952131823885,377.8377837783778 L 221.731311320864,377.68776877687765 L 221.09847133136455,377.6377637763776 L 220.34697384383398,377.037703770377 L 221.81041631955142,376.2876287628763 L 222.48280880839457,375.73757375737574 L 223.55072629067487,374.03740374037403 L 223.669383788706,373.2373237323732 L 223.3925162933,372.1372137213721 L 222.838781302488,371.68716871687167 L 220.1492113471154,371.6371637163716 L 219.51637135761598,371.3371337133713 L 219.39771385958483,371.1371137113711 L 219.35816136024113,370.4370437043704 L 220.22831634580282,367.18671867186714 L 220.18876384645912,365.1865186518652 L 222.40370380970714,361.08610861086106 L 223.19475379658144,357.48574857485744 L 223.59027879001857,356.6856685668567 L 224.7373012709863,355.33553355335533 L 225.92387625129774,355.03550355035503 L 228.57389370732662,355.4855485548555 L 229.20673369682603,355.23552355235523 L 229.76046868763805,355.23552355235523 L 231.38212116073035,355.5855585558556 L 231.8567511528549,355.4855485548555 L 232.80601113710406,354.5854585458546 L 233.51795612529094,354.5354535453545 L 234.03213861675923,354.8854885488549 L 234.66497860625867,356.13561356135614 L 236.4052885773821,357.7357735773577 L 236.52394607541325,358.4358435843584 L 236.24707858000724,360.4360436043604 L 236.9590235681941,360.68606860686066 L 237.94783605178696,360.6360636063606 L 240.2418810137224,361.08610861086106 L 243.9598159520316,361.28612861286126 L 245.22549593103045,361.18611861186116 L 246.72849090609162,359.6359635963596 L 247.67775089034075,359.48594859485945 L 250.7628458391505,359.5359535953595 L 251.90986832011822,359.08590859085905 L 253.17554829911708,358.9358935893589 L 257.0912457341448,359.28592859285925 L 258.0800582177377,359.1359135913591 L 258.59424070920596,358.48584858485845 L 258.7920032059246,357.8357835783578 L 258.55468820986226,355.7855785578558 L 258.7128982072371,355.1855185518552 L 259.70171069083,354.1854185418542 L 260.37410317967317,353.985398539854 L 260.7696281731103,353.8853885388539 L 262.6681481416086,354.035403540354 L 263.45919812848285,353.9353935393539 L 264.131590617326,353.6353635363536 L 264.48756311141943,352.8352835283528 L 264.68532560813804,351.7351735173517 L 264.6062206094506,350.8350835083508 L 264.2106956160135,349.98499849984995 L 264.5271156107632,349.4349434943494 L 266.4256355792615,348.58485848584854 L 267.8495255556352,345.83458345834583 L 269.82715052282094,343.9343934393439 L 275.4831579289721,340.08400840084005 L 276.8279429066584,339.68396839683965 L 277.4212303968141,340.28402840284025 L 278.3704903810633,340.48404840484045 L 279.16154036793756,339.9339933993399 L 279.794380357437,338.8338833883388 L 280.38766784759275,336.53365336533653 L 283.1958953009965,333.68336833683367 L 284.0660502865582,332.38323832383236 L 283.94739278852705,331.48314831483145 L 284.1056027859019,329.98299829982994 L 284.6593377767139,328.23282328232824 L 285.64815026030675,326.63266326632663 L 286.24143775046247,326.0826082608261 L 290.5526601789274,324.1324132413241 L 291.2250526677705,323.98239823982397 L 291.6601301605514,324.08240824082407 L 292.72804764283165,325.4325432543254 L 293.3213351329874,325.7825782578258 L 294.1123851198617,325.8825882588259 L 294.58701511198626,325.7825782578258 L 295.4176175982043,325.3325332533253 L 296.6437450778594,324.18241824182417 L 298.6213700450451,321.7321732173217 L 298.89823754045113,321.2321232123212 L 299.6497350279817,318.4818481848185 L 300.5594425128872,317.2817281728173 L 308.6281523790049,312.031203120312 L 310.32890985078467,312.2312231223122 L 311.08040733831524,312.1312131213121 L 311.95056232387697,311.2311231123112 L 312.8207173094387,310.88108810881084 L 313.4535572989381,311.08110811081104 L 314.5214747812184,312.58125812581255 L 315.6684972621861,313.38133813381336 L 315.826707259561,314.18141814181416 L 315.6289447628424,316.5816581658166 L 316.6177572464353,318.7818781878188 L 316.53865224774785,319.8319831983198 L 316.45954724906045,320.3320332033203 L 315.90581225824843,321.38213821382135 L 314.996104773343,321.4321432143214 L 314.56102728056214,321.88218821882185 L 313.57221479696926,322.1322132213221 L 313.29534730156325,322.38223822382236 L 314.1259497877813,327.0827082708271 L 314.4819222818747,327.73277327732774 L 316.85507224249756,330.38303830383035 L 317.2901497352784,331.28312831283125 L 317.84388472609044,333.38333833383336 L 318.12075222149645,333.8333833383338 L 320.256587186057,336.1836183618362 L 318.872249709027,337.23372337233724 L 318.12075222149645,338.28382838283824 L 315.272972268749,346.23462346234624 L 306.0967924210072,351.78517851785176 L 305.0288749387269,352.28522852285226 L 304.27737745119634,352.88528852885287 L 302.06243748794833,355.23552355235523 L 301.03407250501175,354.8854885488549 L 300.1243650201063,353.5353535353535 L 299.610182528638,353.18531853185317 L 299.13555253651344,353.035303530353 L 297.59300506210855,353.08530853085307 L 295.6944850936103,352.28522852285226 L 295.5362750962354,352.3352335233523 L 295.37806509886053,352.4352435243524 L 294.82433010804857,354.7854785478548 L 294.1914901185491,355.23552355235523 L 292.45118014742565,355.93559355935594 L 291.2646051671142,357.48574857485744 L 289.16832270189735,357.28572857285724 L 287.26980273339905,357.68576857685764 L 286.7556202419308,357.98579857985794 L 286.0436752537439,358.98589858985895 L 284.8571002734325,361.58615861586156 L 284.1847077845893,362.68626862686267 L 283.7891827911522,363.036303630363 L 282.7608178082156,363.2363236323632 L 281.73245282527904,362.8362836283628 L 281.2973753324982,362.9362936293629 L 279.517512862031,363.8363836383638 L 278.21228038368844,364.2864286428643 L 277.7376503915639,364.6864686468647 L 275.83913042306557,367.2367236723672 L 274.96897543750384,368.88688868886885 L 274.4943454453792,369.28692869286925 L 272.8331404729432,369.8369836983698 L 272.2398529827875,370.9370937093709 L 271.72567049131925,372.6372637263726 L 271.0137255031324,372.7372737273727 L 267.8099730562915,372.037203720372 L 266.5442930772926,372.18721872187217 L 264.76443060682544,371.58715871587157 L 264.2898006147009,371.58715871587157 L 263.9733806199512,371.8371837183718 L 263.8151706225763,372.28722872287227 L 263.85472312192,372.987298729873 L 264.72487810748174,374.4874487448745 L 266.26742558188664,375.8875887588759 L 267.3353430641669,376.58765876587654 L 267.96818305366634,377.28772877287724 L 270.45999051232036,381.38813881388137 L 268.24505054907235,382.4382438243824 L 268.4032605464472,383.1883188318832 L 270.69730550838267,386.98869886988695 L 274.77121294078523,388.4388438843884 L 277.0652579027207,388.48884888488845 L 278.3309378817196,388.1388138813881 L 278.9242253718753,388.3388338833883 L 280.0316953534993,389.5389538953895 L 281.06006033643587,389.6389638963896 L 281.53469032856043,389.8389838983898 L 282.12797781871615,390.4390439043904 L 282.32574031543476,391.18911891189117 L 281.77200532462274,395.38953895389534 L 281.53469032856043,396.18961896189614 L 279.47796036268727,398.6398639863986 L 278.1727278843447,399.48994899489946 L 277.1048104020644,400.59005900590057 L 275.6809204256907,405.1405140514051 L 276.86749540600215,409.09090909090907 L 277.4212303968141,409.89098909890987 L 278.21228038368844,410.6410641064106 z" /><path fill-rule="evenodd" fill="#D2EBD9" stroke="#A6A6A6" stroke-width="0.25" opacity="1" d="M 275.6809204256907,405.1405140514051 L 277.1048104020644,400.59005900590057 L 278.1727278843447,399.48994899489946 L 279.47796036268727,398.6398639863986 L 281.53469032856043,396.18961896189614 L 281.77200532462274,395.38953895389534 L 282.32574031543476,391.18911891189117 L 282.12797781871615,390.4390439043904 L 281.53469032856043,389.8389838983898 L 281.06006033643587,389.6389638963896 L 280.0316953534993,389.5389538953895 L 278.9242253718753,388.3388338833883 L 278.3309378817196,388.1388138813881 L 277.0652579027207,388.48884888488845 L 274.77121294078523,388.4388438843884 L 270.69730550838267,386.98869886988695 L 268.4032605464472,383.1883188318832 L 268.24505054907235,382.4382438243824 L 270.45999051232036,381.38813881388137 L 267.96818305366634,377.28772877287724 L 267.3353430641669,376.58765876587654 L 266.26742558188664,375.8875887588759 L 264.72487810748174,374.4874487448745 L 263.85472312192,372.987298729873 L 263.8151706225763,372.28722872287227 L 263.9733806199512,371.8371837183718 L 264.2898006147009,371.58715871587157 L 264.76443060682544,371.58715871587157 L 266.5442930772926,372.18721872187217 L 267.8099730562915,372.037203720372 L 271.0137255031324,372.7372737273727 L 271.72567049131925,372.6372637263726 L 272.2398529827875,370.9370937093709 L 272.8331404729432,369.8369836983698 L 274.4943454453792,369.28692869286925 L 274.96897543750384,368.88688868886885 L 275.83913042306557,367.2367236723672 L 277.7376503915639,364.6864686468647 L 278.21228038368844,364.2864286428643 L 279.517512862031,363.8363836383638 L 281.2973753324982,362.9362936293629 L 281.73245282527904,362.8362836283628 L 282.7608178082156,363.2363236323632 L 283.7891827911522,363.036303630363 L 284.1847077845893,362.68626862686267 L 284.8571002734325,361.58615861586156 L 286.0436752537439,358.98589858985895 L 286.7556202419308,357.98579857985794 L 287.26980273339905,357.68576857685764 L 289.16832270189735,357.28572857285724 L 291.2646051671142,357.48574857485744 L 292.45118014742565,355.93559355935594 L 294.1914901185491,355.23552355235523 L 294.82433010804857,354.7854785478548 L 295.37806509886053,352.4352435243524 L 295.5362750962354,352.3352335233523 L 295.6944850936103,352.28522852285226 L 297.59300506210855,353.08530853085307 L 299.13555253651344,353.035303530353 L 299.610182528638,353.18531853185317 L 300.1243650201063,353.5353535353535 L 301.03407250501175,354.8854885488549 L 302.06243748794833,355.23552355235523 L 304.27737745119634,352.88528852885287 L 305.0288749387269,352.28522852285226 L 306.0967924210072,351.78517851785176 L 315.272972268749,346.23462346234624 L 314.4028172831873,348.3348334833483 L 313.7699772936878,349.1349134913491 L 313.25579480221955,350.28502850285025 L 312.8602698087824,352.2352235223522 L 313.1766898035321,354.93549354935493 L 314.36326478384353,357.38573857385734 L 319.38643220049534,363.4363436343634 L 321.36405716768104,368.4368436843684 L 322.0364496565242,369.48694869486945 L 328.36484955151855,377.3377337733773 L 328.95813704167426,378.8378837883788 L 328.72082204561195,380.4380438043804 L 327.7320095620191,383.5883588358836 L 327.5737995646442,385.53855385538554 L 327.8902195593939,387.08870887088705 L 328.5626120482371,388.5388538853885 L 329.828292027236,390.4390439043904 L 328.08798205611254,390.78907890789077 L 306.3736599164132,391.08910891089107 L 304.1191674538215,391.9391939193919 L 275.6809204256907,405.1405140514051 z" /></g></g></g></svg>