<svg xmlns="http://www.w3.org/2000/svg" xmlns:xlink="http://www.w3.org/1999/xlink" width="500.0" height="414.6844909249339" viewBox="0.0 0.0 500.0 414.6844909249339" preserveAspectRatio="xMinYMin meet"><g transform="matrix(1,0,0,-1,0,414.6844909249339)"><g><path fill-rule="evenodd" fill="#D2EBD9" stroke="#A6A6A6" stroke-width="0.25" opacity="1" d="M 452.52896299026906,66.8445016683545 L 493.6422719024122,24.752012830227613 L 500.0,13.86859482084401 L 489.6863518618047,6.741601734887809 L 465.1502308640629,1.8780033744405955 L 436.3285295329988,0.0 L 413.1110485494137,2.1669272270519286 L 382.5939527489245,16.75796132814139 L 322.12489457055926,58.223274077055976 L 262.73900327831507,76.0921138774138 L 224.4984463620931,98.53796506300569 L 190.16671416722238,126.47708976548165 L 175.33201488479972,152.00983553938568 L 167.2788923177868,176.09923156839795 L 148.2998963482678,183.90459226048551 L 125.9772067591548,185.97641870146617 L 107.7988138590008,192.86654262710363 L 92.39898347295821,211.36944233323447 L 56.79570542834699,269.5836145663634 L 43.232551995664835,279.4155551150907 L 27.361778831109405,287.80186710855924 L 14.128284534439445,298.4055734211579 L 8.61825367063284,314.50461785309017 L 11.302627859637141,357.0216690697707 L 9.18338593095541,379.58410334493965 L 0.0,399.73741089343093 L 6.499011741951108,410.34494197391905 L 12.197419255971909,414.6844909249339 L 17.942922089248896,413.62370690261014 L 24.441932674497366,407.8376738454681 L 74.03221276775002,386.62314735352993 L 95.08335766196251,373.6540735475719 L 115.99321891367435,355.2861661124043 L 128.84995759651065,333.01472817827016 L 140.95318852737546,277.96966217365116 L 151.59649696014822,254.2097779607866 L 194.12263420782983,213.48963532224298 L 243.57163065858185,189.4455524403602 L 389.4226247854531,153.55150239588693 L 406.1881893463433,143.2417533956468 L 413.1110485494137,128.16315108467825 L 416.5489316470921,104.1737615680322 L 425.5910339355469,89.57869967329316 L 452.52896299026906,66.8445016683545 z" /></g></g></svg>