<svg xmlns="http://www.w3.org/2000/svg" xmlns:xlink="http://www.w3.org/1999/xlink" width="459.5203214399516" height="500.0" viewBox="0.0 0.0 459.5203214399516 500.0" preserveAspectRatio="xMinYMin meet"><g transform="matrix(1,0,0,-1,0,500.0)"><g><g><path fill-rule="evenodd" fill="#D2EBD9" stroke="#A6A6A6" stroke-width="0.25" opacity="1" d="M 396.2380449500213,134.06340634063406 L 369.03172128841,150.46504650465045 L 360.39187526073613,153.96539653965397 L 320.1798259298073,145.86458645864585 L 306.9902737492626,121.6121612161216 L 298.39638434939553,114.76147614761476 L 263.51530384405265,94.15941594159415 L 241.31825261337994,81.3081308130813 L 237.82554890006497,73.65736573657365 L 236.4468500658617,44.654465446544656 L 238.46894168935984,44.8044804480448 L 258.00050850723954,40.15401540154015 L 264.5723062836085,39.9039903990399 L 269.8573184813877,37.9037903790379 L 276.79676928021087,22.65226522652265 L 281.484345316502,18.701870187018702 L 287.5965768148032,17.3017301730173 L 298.9938205108836,16.15161516151615 L 305.79540142628645,14.2014201420142 L 309.38001839521496,13.55135513551355 L 313.47015827001803,15.05150515051505 L 316.2275559384246,18.45184518451845 L 318.9849536068311,20.85208520852085 L 323.30487662066804,19.35193519351935 L 396.2380449500213,134.06340634063406 z" /><path fill-rule="evenodd" fill="#D2EBD9" stroke="#A6A6A6" stroke-width="0.25" opacity="1" d="M 396.2380449500213,134.06340634063406 L 410.5305561979286,156.56565656565655 L 406.57828620654584,160.5160516051605 L 397.9843968066788,165.1165116511651 L 394.859346115818,167.46674667466746 L 391.9181219361844,171.66716671667166 L 358.1859571260109,165.3165316531653 L 348.07549900852024,165.26652665266525 L 332.2664190429893,166.9166916691669 L 317.2845583779804,182.91829182918292 L 316.96286198333297,183.6183618361836 L 309.93149792889625,183.46834683468344 L 307.67962316636425,184.56845684568455 L 304.6005291033103,186.86868686868686 L 302.30269771297145,186.018601860186 L 300.09677957824624,183.7183718371837 L 297.2474686542261,181.6181618161816 L 291.2731070393453,180.01800180018 L 272.66067277760106,177.76777677767777 L 260.0685567585445,172.91729172917292 L 254.59971804953815,169.01690169016902 L 252.16401677577903,164.36643664366434 L 253.5886722377891,162.76627662766276 L 256.3920265340024,161.3161316131613 L 258.2762482740802,159.21592159215922 L 256.6677663008431,155.6155615561556 L 254.14015177147039,154.26542654265427 L 251.4746673586774,154.8154815481548 L 248.90109620149795,156.015601560156 L 246.51135155554562,156.66566656665665 L 243.43225749249163,155.7155715571557 L 239.0663778508479,151.6151615161516 L 235.20602111507876,150.9150915091509 L 231.85118728518412,152.26522652265226 L 226.38234857617778,157.3157315731573 L 217.32889289824294,160.8160816081608 L 215.76636755281257,166.56665666566656 L 215.58254104158547,173.31733173317332 L 183.5507714602627,187.96879687968797 L 179.32276170203932,191.3191319131913 L 169.62591323480962,203.3203320332033 L 170.68291567436546,191.56915691569156 L 176.88706042828022,159.9159915991599 L 183.91842448271692,137.66376637663765 L 206.4371721080371,104.26042604260425 L 263.51530384405265,94.15941594159415 L 298.39638434939553,114.76147614761476 L 306.9902737492626,121.6121612161216 L 320.1798259298073,145.86458645864585 L 360.39187526073613,153.96539653965397 L 369.03172128841,150.46504650465045 L 396.2380449500213,134.06340634063406 z" /><path fill-rule="evenodd" fill="#D2EBD9" stroke="#A6A6A6" stroke-width="0.25" opacity="1" d="M 62.08740416695416,267.026702670267 L 51.56333639920249,252.025202520252 L 48.48424233614851,248.92489248924892 L 44.66984222818612,245.97459745974595 L 40.85544212022372,244.12441244124412 L 37.73039142936297,243.17431743174316 L 35.432560039024175,241.5241524152415 L 33.870034693593794,237.5237523752375 L 31.15859365299402,233.9233923392339 L 20.358786118401696,229.1229122912291 L 16.26864624359865,226.37263726372635 L 11.902766601954943,217.4217421742174 L 8.134323121799325,196.1196119611961 L 0.0,170.66706670667065 L 0.18382651122710336,155.3155315531553 L 7.307103821277359,123.06230623062305 L 10.70789427897877,92.5092509250925 L 10.018544861877134,38.553855385538554 L 8.318149633026428,26.6026602660266 L 3.3548338298946363,18.6018601860186 L 6.801580915402824,14.101410141014101 L 13.649118458612424,11.451145114511451 L 46.18641094580972,4.85048504850485 L 47.105543501945235,3.4003400340034 L 47.79489291904687,1.75017501750175 L 49.4493315200908,0.35003500350035 L 51.83907616604315,0.0 L 53.309688255859975,1.05010501050105 L 54.55051720664292,2.45024502450245 L 56.434738946720735,3.2003200320032 L 72.01403577321774,3.85038503850385 L 79.59687936133575,5.8005800580058 L 88.14481213339606,14.5014501450145 L 95.54382921028697,16.951695169516952 L 110.709516386523,18.6018601860186 L 124.86415775100996,15.35153515351535 L 130.05725669317562,15.301530153015301 L 133.77974354552447,16.2016201620162 L 143.6144618961745,20.65206520652065 L 145.95824991432008,20.9020902090209 L 150.87560908964508,20.75207520752075 L 153.21939710779066,20.95209520952095 L 162.22689615791873,24.002400240024002 L 168.47699753964022,23.002300230023 L 172.7050072978636,21.55215521552155 L 176.88706042828022,21.3021302130213 L 182.76950878754752,24.15241524152415 L 201.0602466546443,36.253625362536255 L 225.87682567030325,43.85438543854385 L 236.4468500658617,44.654465446544656 L 237.82554890006497,73.65736573657365 L 241.31825261337994,81.3081308130813 L 263.51530384405265,94.15941594159415 L 206.4371721080371,104.26042604260425 L 183.91842448271692,137.66376637663765 L 176.88706042828022,159.9159915991599 L 170.68291567436546,191.56915691569156 L 169.62591323480962,203.3203320332033 L 122.61228298847794,250.87508750875085 L 111.16908266459076,255.4255425542554 L 66.5911536920182,266.1266126612661 L 62.08740416695416,267.026702670267 z" /><path fill-rule="evenodd" fill="#D2EBD9" stroke="#A6A6A6" stroke-width="0.25" opacity="1" d="M 62.08740416695416,267.026702670267 L 66.5911536920182,266.1266126612661 L 111.16908266459076,255.4255425542554 L 122.61228298847794,250.87508750875085 L 169.62591323480962,203.3203320332033 L 179.32276170203932,191.3191319131913 L 183.5507714602627,187.96879687968797 L 215.58254104158547,173.31733173317332 L 214.3876687186093,179.7179717971797 L 210.80305174968078,178.86788678867885 L 210.84900837748756,180.8180818081808 L 214.06597232396186,183.16831683168317 L 220.04033393884274,183.5183518351835 L 221.55690265646632,182.51825182518252 L 224.13047381364578,178.86788678867885 L 225.64704253126936,177.76777677767777 L 227.99083054941494,177.51775177517752 L 235.20602111507876,177.76777677767777 L 241.82377551925447,176.56765676567656 L 244.35139004862714,176.7176717671767 L 252.89932282068744,179.2179217921792 L 255.51885060567366,180.66806680668066 L 257.31115909013795,183.06830683068307 L 276.61294276898377,218.4218421842184 L 282.95495740631884,225.22252225222522 L 290.17014797198266,229.67296729672967 L 315.81394628816355,238.82388238823881 L 321.05300185813604,239.67396739673967 L 328.4979755628337,236.9236923692369 L 332.58811543763676,238.77387738773876 L 336.72421194024656,241.7241724172417 L 340.6764819316293,243.17431743174316 L 355.704299224445,243.87438743874387 L 359.56465596021417,245.3245324532453 L 361.035268050031,246.97469746974696 L 362.09227048958684,250.87508750875085 L 363.3330994403698,252.77527752775276 L 365.2632778082544,254.02540254025402 L 367.9287622210474,255.2255225522552 L 361.4029210724852,261.82618261826184 L 359.1050896821464,265.3265326532653 L 351.3384195828013,282.1282128212821 L 348.12145563632697,287.17871787178717 L 291.3190636671521,350.58505850585055 L 284.28769961271536,352.5352535253525 L 281.3924320608885,353.6853685368537 L 278.91077415932256,355.2855285528553 L 265.21569907290336,367.08670867086704 L 263.19360744940525,369.38693869386935 L 261.7229953595884,371.4371437143714 L 255.2890674666398,384.6884688468847 L 254.64567467734494,386.88868886888685 L 254.5537614217314,389.038903890389 L 255.01332769979913,391.1391139113911 L 255.8405470003211,392.8892889288929 L 256.8515928120702,394.2894289428943 L 260.5281230366122,397.38973897389735 L 261.30938570932744,403.04030403040304 L 260.6659929200326,407.59075907590756 L 259.37920734144285,407.19071907190715 L 255.7026771169008,401.8901890189019 L 212.59536023414503,440.2940294029403 L 199.95728758728168,445.99459945994596 L 192.51231388258398,447.9447944794479 L 187.64091133506577,447.09470947094707 L 173.4862699705788,431.74317431743174 L 156.89592733233272,409.3409340934093 L 148.5318210714995,390.9390939093909 L 111.8584320816924,340.58405840584055 L 107.6763789512758,330.3330333033303 L 105.47046081655056,326.83268326832683 L 98.99057629579517,323.6323632363236 L 95.95743886054795,320.28202820282024 L 84.8359349313082,299.4799479947995 L 62.08740416695416,267.026702670267 z" /><path fill-rule="evenodd" fill="#D2EBD9" stroke="#A6A6A6" stroke-width="0.25" opacity="1" d="M 367.9287622210474,255.2255225522552 L 369.5832008220913,255.87558755875585 L 371.00785628410136,256.8256825682568 L 392.14790507521826,282.27822782278224 L 401.1094474975395,288.6788678867887 L 406.3025464397052,290.0790079007901 L 418.15935641385335,290.3790379037904 L 423.6281951228597,291.37913791379134 L 431.16508208317094,295.2295229522952 L 438.56409916006186,296.5296529652965 L 440.72406066698034,297.1297129712971 L 448.07712111606446,301.88018801880185 L 454.0514827309453,308.83088308830884 L 458.0497093501348,317.23172317231723 L 459.5203214399516,326.23262326232623 L 457.4982298164535,347.43474347434744 L 458.32544911697545,363.8363836383638 L 457.4982298164535,368.58685868586855 L 447.2039451877357,383.03830383038303 L 445.503549958885,386.9386938693869 L 444.67633065836304,392.63926392639263 L 444.3546342637156,403.3903390339034 L 443.5274149631936,408.39083908390836 L 441.5053233396955,411.84118411841183 L 438.97770881032284,414.89148914891484 L 436.81774730340436,418.79187918791877 L 435.4390484692011,423.54235423542355 L 434.93352556332655,428.29282928292827 L 434.93352556332655,438.19381938193817 L 430.4297760382625,435.09350935093505 L 426.1098530244256,436.29362936293626 L 422.2494962886564,440.3940394039404 L 415.72365514009425,450.74507450745074 L 388.79307124532363,481.59815981598155 L 385.8978036934967,486.3986398639864 L 383.7378421865783,491.99919991999195 L 381.16427102939883,496.999699969997 L 376.6605215043348,500.0 L 316.8709487277194,474.19741974197416 L 314.0216378036993,473.89738973897386 L 310.6208473459979,476.6476647664766 L 308.1851460722388,476.9476947694769 L 303.5894832915612,472.8472847284728 L 297.1555553986126,457.5957595759576 L 285.1608755410441,446.19461946194616 L 286.1259647249864,437.8437843784378 L 288.69953588216583,428.99289928992897 L 287.0910539089287,421.3921392139214 L 283.6443068234205,419.5419541954195 L 275.4180704460076,417.99179917991796 L 273.12023905566883,415.4415441544154 L 269.3517955755132,410.04100410041 L 260.6659929200326,407.59075907590756 L 261.30938570932744,403.04030403040304 L 260.5281230366122,397.38973897389735 L 256.8515928120702,394.2894289428943 L 255.8405470003211,392.8892889288929 L 255.01332769979913,391.1391139113911 L 254.5537614217314,389.038903890389 L 254.64567467734494,386.88868886888685 L 255.2890674666398,384.6884688468847 L 261.7229953595884,371.4371437143714 L 263.19360744940525,369.38693869386935 L 265.21569907290336,367.08670867086704 L 278.91077415932256,355.2855285528553 L 281.3924320608885,353.6853685368537 L 284.28769961271536,352.5352535253525 L 291.3190636671521,350.58505850585055 L 348.12145563632697,287.17871787178717 L 351.3384195828013,282.1282128212821 L 359.1050896821464,265.3265326532653 L 361.4029210724852,261.82618261826184 L 367.9287622210474,255.2255225522552 z" /><path fill-rule="evenodd" fill="#D2EBD9" stroke="#A6A6A6" stroke-width="0.25" opacity="1" d="M 316.96286198333297,183.6183618361836 L 317.2845583779804,182.91829182918292 L 332.2664190429893,166.9166916691669 L 348.07549900852024,165.26652665266525 L 358.1859571260109,165.3165316531653 L 391.9181219361844,171.66716671667166 L 391.6883387971505,172.017201720172 L 387.7360688057678,188.4188418841884 L 386.0816302047238,191.36913691369136 L 383.14040602509016,190.46904690469046 L 381.02640114597847,186.76867686768676 L 378.1311335941516,182.86828682868287 L 372.7082515129521,181.6181618161816 L 366.779846525878,185.1185118511851 L 361.31100781687167,185.3185318531853 L 355.42855945760436,184.1184118411841 L 316.96286198333297,183.6183618361836 z" /></g></g></g></svg>