<svg xmlns="http://www.w3.org/2000/svg" xmlns:xlink="http://www.w3.org/1999/xlink" width="500.0" height="405.1825543008745" viewBox="0.0 0.0 500.0 405.1825543008745" preserveAspectRatio="xMinYMin meet"><g transform="matrix(1,0,0,-1,0,405.1825543008745)"><g><g><g><path fill-rule="evenodd" fill="#D2EBD9" stroke="#A6A6A6" stroke-width="0.25" opacity="1" d="M 5.8005800580058,153.01223372738295 L 6.35063506350635,149.00052526895843 L 6.2006200620062,143.8947145036909 L 5.3005300530053,138.70785912310163 L 4.000400040004,133.84518220379923 L 0.0,123.14729298133389 L 0.1000100010001,121.28326682893461 L 1.2001200120012,120.18916452209157 L 5.35053505350535,119.41924067653535 L 7.050705070507051,118.40618298501403 L 15.551555155515551,111.31477914436465 L 16.45164516451645,111.67947991331233 L 15.8015801580158,113.82716221933757 L 14.15141514151415,115.69118837173683 L 12.25122512251225,116.94737990922329 L 10.6010601060106,117.27155837051012 L 11.5011501150115,118.48722760033573 L 11.95119511951195,118.81140606162256 L 12.601260126012601,118.97349529226597 L 10.501050105010501,121.24274452127376 L 10.251025102510251,122.41789144343852 L 11.101110111011101,124.16035067285522 L 12.301230123012301,125.21393067203742 L 13.9013901390139,125.65967605630681 L 15.551555155515551,125.49758682566339 L 16.901690169016902,124.97079682607229 L 16.901690169016902,124.16035067285522 L 15.4015401540154,123.87669451922925 L 15.35153515351535,122.98520375069047 L 21.75217521752175,113.34089452740733 L 24.652465246524653,110.62589991413014 L 28.05280528052805,109.57231991494795 L 32.75327532753275,109.45075299196539 L 35.3035303530353,108.80239606939173 L 37.1037103710371,107.38411530126186 L 38.1038103810381,104.99329914927151 L 38.653865386538655,102.31882684365517 L 39.3039303930393,96.72674838645739 L 40.05400540054005,93.60653069657165 L 40.2040204020402,91.98563839013752 L 40.05400540054005,90.93205839095532 L 39.4039403940394,89.18959916153862 L 39.3039303930393,87.7307960857479 L 39.803980398039805,82.42237378217608 L 40.7040704070407,77.11395147860428 L 42.004200420042004,72.8996314818755 L 42.204220422042205,70.50881532988515 L 40.75407540754075,69.9415030226332 L 36.9036903690369,70.87351609883282 L 32.653265326532654,71.48135071374563 L 32.45324532453245,72.85910917421465 L 33.703370337033704,74.52052378830965 L 34.45344534453445,75.1688807108833 L 35.4035403540354,75.41201455684842 L 33.903390339033905,76.99238455562171 L 30.9030903090309,77.84335301649963 L 28.002800280028,77.4381299398911 L 26.65266526652665,74.96626917257903 L 26.402640264026402,71.76500686737161 L 25.95259525952595,68.76635610046844 L 25.852585258525853,65.80822764122614 L 26.65266526652665,62.72853225900127 L 27.602760276027603,61.350773798532245 L 28.702870287028702,61.107639952567126 L 29.8029802980298,61.75599687514078 L 31.703170317031702,64.187335334792 L 32.4032403240324,64.30890225777456 L 32.85328532853285,64.91673687268735 L 33.003300330033,69.69836917666808 L 33.25332533253325,70.75194917585027 L 34.1034103410341,70.83299379117197 L 41.65416541654165,69.49575763836381 L 39.003900390039,59.89197072274152 L 38.75387538753875,55.88026226431702 L 39.4039403940394,52.7600445744313 L 40.55405540554055,49.720871499867286 L 41.15411541154115,46.56013150232071 L 40.2040204020402,43.15625765880901 L 40.7040704070407,42.34581150559194 L 40.15401540154015,40.1981291995667 L 42.65426542654265,39.42820535401049 L 45.25452545254525,39.30663843102793 L 50.1050105010501,41.13014227576633 L 51.755175517551756,41.41379842939231 L 57.405740574057404,40.40074073787097 L 62.95629562956295,38.13149150886317 L 78.007800780078,34.565528434708064 L 79.15791579157916,33.51194843552587 L 79.50795079507951,32.25575689803941 L 79.70797079707971,30.553819976283563 L 80.2080208020802,29.095016900492837 L 81.45814581458146,28.56822690090174 L 86.65866586658666,28.56822690090174 L 87.7087708770877,28.770838439206006 L 88.4088408840884,29.45971766944052 L 89.4089408940894,29.74337382306649 L 90.2090209020902,30.472775360961855 L 91.45914591459146,30.75643151458783 L 92.9092909290929,29.37867305411881 L 94.1094109410941,29.25710613113625 L 95.15951595159515,29.621806900083932 L 95.55955595559556,32.25575689803941 L 96.5096509650965,33.75508228149099 L 99.45994599459945,36.26746535646391 L 101.16011601160116,38.13149150886317 L 102.3102310231023,37.9288799705589 L 102.86028602860286,38.13149150886317 L 103.21032103210321,38.53671458547171 L 104.4104410441044,40.84648612214036 L 105.76057605760576,44.08827073500864 L 107.76077607760776,44.696105349921446 L 109.46094609460945,43.723569966060964 L 109.8109810981098,42.30528919793109 L 107.96079607960796,41.575887660035725 L 107.4107410741074,41.04909766044463 L 107.91079107910791,39.95499535360158 L 109.16091609160915,38.13149150886317 L 109.010901090109,37.36156766330696 L 108.46084608460845,36.87529997137671 L 108.36083608360836,36.389032279446475 L 109.66096609660966,35.619108433890254 L 110.61106110611061,35.375974587925135 L 113.56135613561355,35.619108433890254 L 114.16141614161415,35.05179612663831 L 115.16151615161516,32.78254689763051 L 116.011601160116,32.25575689803941 L 117.01170117011701,32.78254689763051 L 117.36173617361736,34.03873843511697 L 117.21172117211721,35.457019203246844 L 116.46164616461645,37.40208997096781 L 115.76157615761575,38.13149150886317 L 114.91149114911491,38.65828150845427 L 114.011401140114,38.9824599697411 L 114.6114611461146,40.48178535319268 L 115.41154115411541,40.36021843021012 L 116.4116411641164,39.79290612295817 L 117.46174617461746,39.79290612295817 L 118.16181618161815,40.36021843021012 L 118.26182618261825,40.7249191991578 L 116.5116511651165,50.65288457606692 L 115.96159615961595,52.43586611314447 L 115.01150115011501,53.165267651039834 L 111.1111111111111,54.218847650222024 L 109.66096609660966,55.43451688004763 L 106.8106810681068,58.59525687759421 L 105.26052605260526,59.284136107828715 L 104.46044604460445,59.041002261863596 L 102.86028602860286,57.50115457075116 L 102.26022602260225,57.3795876477686 L 100.46004600460046,57.50115457075116 L 96.45964596459645,55.88026226431702 L 95.55955595559556,55.88026226431702 L 94.95949594959495,57.66324380139458 L 96.25962596259626,58.59525687759421 L 99.45994599459945,59.284136107828715 L 100.81008100810081,59.97301533806323 L 102.010201020102,61.14816226022798 L 103.8103810381038,63.57950071987919 L 102.16021602160215,66.21345071783468 L 101.11011101110111,67.34807533233857 L 100.16001600160016,67.79382071660795 L 98.15981598159816,67.79382071660795 L 97.25972597259725,68.03695456257309 L 96.5096509650965,68.56374456216417 L 97.4097409740974,69.29314610005954 L 98.35983598359836,69.53627994602466 L 100.46004600460046,69.49575763836381 L 100.46004600460046,70.34672609924174 L 99.2099209920992,70.34672609924174 L 98.65986598659866,71.23821686778051 L 98.65986598659866,72.33231917462355 L 99.2099209920992,72.85910917421465 L 101.16011601160116,73.46694378912746 L 102.86028602860286,74.5610460959705 L 104.56045604560455,76.8302953249783 L 105.51055105510551,77.11395147860428 L 109.66096609660966,76.34402763304806 L 110.66106610661066,76.46559455603061 L 111.76117611761175,76.8302953249783 L 112.66126612661266,77.47865224755195 L 113.06130613061306,78.37014301609074 L 113.26132613261325,80.3962583991334 L 114.26142614261425,82.38185147451523 L 114.5114511451145,83.8001322426451 L 114.2114211421142,85.86676993334864 L 113.36133613361335,86.6772160865657 L 112.51125112511251,87.04191685551339 L 109.86098609860986,91.58041531352899 L 109.16091609160915,92.39086146674606 L 109.16091609160915,93.32287454294568 L 110.11101110111011,94.29540992680617 L 109.9109910991099,95.51107915663178 L 109.06090609060905,96.68622607879652 L 108.21082108210821,97.4966722320136 L 106.76067606760675,98.42868530821323 L 106.66066606660665,99.320176076752 L 107.06070607060705,100.41427838359505 L 107.26072607260726,101.83255915172492 L 107.010701070107,102.80509453558541 L 106.1106110611061,104.70964299564552 L 105.76057605760576,106.08740145611455 L 106.8106810681068,106.61419145570564 L 109.2109210921092,107.10045914763589 L 110.16101610161016,107.7893383778704 L 110.96109610961095,109.28866376132197 L 111.26112611261125,110.99060068307783 L 110.96109610961095,112.4088814512077 L 106.86068606860685,114.63760837255464 L 106.16061606160615,114.43499683425037 L 105.56055605560556,114.02977375764183 L 102.06020602060205,113.13828298910306 L 100.71007100710071,113.05723837378136 L 99.45994599459945,113.82716221933757 L 100.66006600660066,114.92126452618062 L 103.31033103310331,115.77223298705854 L 104.3104310431043,117.27155837051012 L 103.8103810381038,118.12252683138804 L 104.76047604760475,118.1630491390489 L 106.36063606360635,117.43364760115354 L 107.2107210721072,117.27155837051012 L 108.21082108210821,117.51469221647524 L 109.8109810981098,118.68983913864 L 114.26142614261425,119.82446375314389 L 114.5114511451145,120.35125375273499 L 114.66146614661466,122.70154759706449 L 115.26152615261526,123.22833759665559 L 116.9116911691169,123.47147144262071 L 117.86178617861786,124.11982836519437 L 119.86198619861986,126.67273374782815 L 123.5123512351235,129.5903398994096 L 124.66246624662466,131.00862066753947 L 117.9117911791179,131.00862066753947 L 116.5116511651165,131.413843744148 L 115.76157615761575,132.38637912800849 L 114.5114511451145,135.22294066426824 L 110.86108610861085,139.03203758438846 L 109.9109910991099,139.59934989164043 L 104.8104810481048,139.68039450696213 L 103.36033603360336,140.36927373719664 L 103.46034603460346,141.3418091210571 L 103.8103810381038,142.15225527427418 L 105.51055105510551,141.3418091210571 L 112.06120612061206,141.30128681339627 L 112.36123612361236,142.71956758152615 L 112.41124112411241,143.8136698883692 L 112.06120612061206,144.90777219521223 L 111.2111211121112,145.6371737331076 L 109.66096609660966,146.12344142503784 L 107.3107310731073,146.44761988632467 L 106.56065606560655,146.9338875782549 L 106.46064606460645,147.90642296211539 L 106.56065606560655,148.63582450001076 L 107.06070607060705,150.1756721911232 L 106.76067606760675,150.8645514213577 L 105.41054105410541,151.14820757498367 L 102.91029102910291,150.8645514213577 L 101.76017601760175,151.26977449796624 L 100.76007600760076,152.52596603545268 L 98.95989598959895,155.5651391100167 L 97.4097409740974,157.46968757007681 L 96.95969596959695,158.64483449224159 L 96.65966596659665,160.184682183354 L 96.10961096109611,161.11669525955364 L 92.5092509250925,165.65519371756923 L 90.75907590759076,167.27608602400338 L 88.5088508850885,168.6538444844724 L 81.85818581858186,170.88257140581933 L 79.20792079207921,170.27473679090653 L 77.25772577257726,166.34407294780374 L 73.95739573957395,162.12975295107498 L 72.75727572757275,161.1572175672145 L 71.45714571457145,160.7925167982668 L 70.85708570857085,160.30624910633657 L 70.20702070207021,159.5768475684412 L 69.2069206920692,157.3075983394334 L 68.3068306830683,157.42916526241598 L 67.55675567556756,156.6997637245206 L 65.10651065106511,156.45662987855547 L 64.15641564156415,157.18603141645085 L 61.306130613061306,160.91408372124937 L 59.15591559155915,162.8996767966312 L 55.7055705570557,163.22385525791802 L 53.1053105310531,161.9271414127707 L 52.005200520052,158.23961141563305 L 51.25512551255125,157.06446449346828 L 51.655165516551655,154.9573044951039 L 51.655165516551655,154.106336034226 L 50.505050505050505,153.37693449633062 L 48.204820482048206,152.68805526609611 L 47.004700470047005,153.05275603504379 L 42.004200420042004,156.57819680153804 L 39.703970397039704,157.2265537241117 L 36.6036603660366,156.33506295557294 L 35.053505350535055,156.7808083398423 L 34.35343534353435,157.26707603177255 L 33.05330533053305,157.10498680112914 L 32.2032203220322,156.45662987855547 L 32.703270327032705,154.83573757212136 L 32.553255325532554,154.22790295720856 L 28.05280528052805,149.24365911492356 L 26.8026802680268,148.9600029612976 L 25.9025902590259,149.16261449960186 L 23.402340234023402,150.783506806036 L 21.602160216021602,151.59395295925307 L 19.45194519451945,153.1338006503655 L 5.8005800580058,153.01223372738295 z" /><path fill-rule="evenodd" fill="#D2EBD9" stroke="#A6A6A6" stroke-width="0.25" opacity="1" d="M 166.9166916691669,40.643874583836094 L 167.86678667866786,38.496192277810856 L 167.7167716771677,37.523656893950374 L 166.66666666666666,37.28052304798525 L 165.2165216521652,37.28052304798525 L 164.46644664466444,38.00992458588061 L 163.61636163616362,41.697454583018285 L 162.56625662566256,43.15625765880901 L 163.06630663066306,41.08961996810548 L 162.76627662766276,40.117084584245 L 161.9161916191619,39.79290612295817 L 160.86608660866085,39.79290612295817 L 159.8159815981598,40.27917381488841 L 158.91589158915892,41.41379842939231 L 157.26572657265726,44.08827073500864 L 155.5155515551555,45.709163041442785 L 149.46494649464947,49.072514577293624 L 148.46484648464846,50.20713919179752 L 148.86488648864886,48.30259073173741 L 150.01500150015002,45.50655150313852 L 162.2162216221622,32.13418997505685 L 163.81638163816382,31.404788437161486 L 164.7164716471647,31.76948920610917 L 166.2166216621662,33.471426127865016 L 171.76717671767176,34.76813997301233 L 170.36703670367035,35.619108433890254 L 170.4170417041704,37.523656893950374 L 169.46694669466945,38.65828150845427 L 168.11681168116812,39.509249969332195 L 166.9166916691669,40.643874583836094 z" /><path fill-rule="evenodd" fill="#D2EBD9" stroke="#A6A6A6" stroke-width="0.25" opacity="1" d="M 135.86358635863584,49.964005345832405 L 134.06340634063406,52.71952226677045 L 132.26322632263225,54.867204572795686 L 130.01300130013001,56.2449630332647 L 126.86268626862686,56.73123072519495 L 124.61246124612461,57.94689995502055 L 120.4120412041204,62.97166610496639 L 117.46174617461746,63.57950071987919 L 114.96149614961496,63.174277643270656 L 108.7108710871087,60.175626876367495 L 108.7108710871087,59.284136107828715 L 109.9109910991099,58.55473456993335 L 111.06110611061105,58.75734610823762 L 112.26122612261226,59.20309149250701 L 113.56135613561355,59.284136107828715 L 113.16131613161315,58.31160072396823 L 111.8111811181118,57.298543032446894 L 111.56115611561155,56.73123072519495 L 111.96119611961196,55.59660611069105 L 113.56135613561355,55.150860726421655 L 114.26142614261425,54.62407072683056 L 115.26152615261526,54.502503803848 L 120.8120812081208,55.029293803439096 L 120.8120812081208,54.218847650222024 L 119.91199119911991,53.00317842039642 L 120.4120412041204,52.030643036535935 L 123.36233623362335,49.923483038171554 L 123.86238623862386,49.31564842325875 L 123.2123212321232,48.707813808345946 L 123.46234623462345,47.897367655128875 L 124.21242124212421,46.60065380998156 L 122.8122812281228,46.27647534869473 L 121.16211621162115,47.73527842448546 L 119.46194619461946,49.63982688454558 L 117.9117911791179,50.733929191388626 L 117.9117911791179,49.964005345832405 L 118.36183618361835,49.964005345832405 L 118.1118111811181,45.99281919506876 L 119.51195119511951,42.751034582200475 L 121.91219121912191,40.805963814479504 L 124.66246624662466,40.643874583836094 L 125.36253625362535,41.04909766044463 L 126.4126412641264,42.06215535196596 L 127.11271127112711,42.34581150559194 L 127.8127812781278,42.26476689027023 L 131.06310631063104,41.13014227576633 L 134.4134413441344,38.13149150886317 L 134.4134413441344,37.28052304798525 L 132.46324632463245,38.21253612418488 L 130.26302630263027,39.79290612295817 L 128.012801280128,40.765441506818654 L 126.1126112611261,39.79290612295817 L 126.1126112611261,38.9824599697411 L 127.31273127312731,38.13149150886317 L 130.56305630563057,37.07791150968098 L 131.76317631763175,36.06485381815964 L 132.76327632763275,35.70015304921196 L 134.16341634163416,36.47007689476818 L 135.51355135513552,37.564179201611225 L 136.6136613661366,38.13149150886317 L 138.6138613861386,38.05044689354147 L 139.61396139613962,38.33410304716744 L 139.66396639663967,39.549772276993046 L 136.86368636863685,48.018934578111434 L 135.86358635863584,49.964005345832405 z" /><path fill-rule="evenodd" fill="#D2EBD9" stroke="#A6A6A6" stroke-width="0.25" opacity="1" d="M 195.6195619561956,58.43316764695079 L 191.56915691569156,52.59795534378789 L 189.86898689868985,51.34176380630142 L 185.9185918591859,46.722220732964125 L 184.4184418441844,44.53401611927803 L 183.4183418341834,41.575887660035725 L 184.06840684068405,41.04909766044463 L 184.66846684668465,40.84648612214036 L 185.26852685268526,41.04909766044463 L 185.86858685868586,41.575887660035725 L 186.36863686368636,38.9824599697411 L 184.56845684568455,38.33410304716744 L 183.5183518351835,39.18507150804537 L 183.11831183118312,38.577236893132564 L 182.46824682468247,36.510599202429034 L 181.3181318131813,34.727617665351474 L 180.4180418041804,33.67403766616928 L 179.3179317931793,33.187769974239046 L 177.61776177617762,33.06620305125648 L 179.8179817981798,31.242699206518072 L 180.76807680768076,30.148596899675027 L 181.5181518151815,28.81136074686686 L 183.36833683368337,21.59838998323493 L 184.2184218421842,20.42324306107018 L 185.86858685868586,20.463765368731035 L 186.86868686868686,20.99055536832213 L 187.51875187518752,22.530403059434565 L 194.36943694369435,45.2634176571734 L 198.06980698069805,52.67899995910959 L 199.4199419941994,56.73123072519495 L 202.8202820282028,72.00814071333673 L 201.22012201220122,72.77806455889295 L 198.46984698469845,68.03695456257309 L 196.1196119611961,61.9180861057842 L 195.6195619561956,58.43316764695079 z" /><path fill-rule="evenodd" fill="#D2EBD9" stroke="#A6A6A6" stroke-width="0.25" opacity="1" d="M 27.1027102710271,95.87577992557945 L 26.452645264526453,96.88883761710079 L 25.95259525952595,99.19860915376945 L 25.4025402540254,100.57636761423846 L 25.252525252525253,101.83255915172492 L 26.15261526152615,104.62859838032382 L 26.15261526152615,106.08740145611455 L 25.152515251525152,107.10045914763589 L 23.7023702370237,106.85732530167077 L 22.5022502250225,107.50568222424442 L 22.252225222522252,111.1932122213821 L 19.851985198519852,110.54485529880843 L 19.15191519151915,108.80239606939173 L 19.6019601960196,106.08740145611455 L 21.85218521852185,100.17114453762993 L 23.452345234523452,97.13197146306592 L 25.35253525352535,95.1463783876841 L 27.1027102710271,95.87577992557945 z" /><path fill-rule="evenodd" fill="#D2EBD9" stroke="#A6A6A6" stroke-width="0.25" opacity="1" d="M 182.21822182218222,60.94555072192371 L 185.018501850185,60.74293918361944 L 185.86858685868586,60.94555072192371 L 187.01870187018702,61.87756379812334 L 187.66876687668767,63.09323302794895 L 188.11881188118812,64.51151379607882 L 188.8188818881888,66.01083917953041 L 190.5190519051905,68.3611330238599 L 190.76907690769076,69.00948994643356 L 190.86908690869086,71.52187302140648 L 191.06910691069106,72.41336378994527 L 192.11921192119212,74.96626917257903 L 192.61926192619262,77.07342917094341 L 192.76927692769277,79.50476763059463 L 192.66926692669267,82.17923993621096 L 192.06920692069207,84.04326608861022 L 190.2190219021902,87.08243916317424 L 189.8189818981898,88.58176454662582 L 190.3190319031903,90.81049146797277 L 191.46914691469146,91.17519223692045 L 192.76927692769277,90.32422377604253 L 193.6193619361936,88.98698762323436 L 194.16941694169415,88.98698762323436 L 193.7193719371937,91.01310300627703 L 191.46914691469146,97.4966722320136 L 184.46844684468445,107.66777145488784 L 183.4183418341834,108.64030683874832 L 177.26772677267726,110.09910991453904 L 176.7176717671767,108.84291837705258 L 177.1177117711771,107.7893383778704 L 176.06760676067606,107.14098145529674 L 174.96749674967495,107.18150376295759 L 174.26742674267425,107.99194991617466 L 174.66746674667465,109.57231991494795 L 175.5175517551755,110.30172145284331 L 176.7176717671767,110.5853776064693 L 181.6181618161816,110.09910991453904 L 184.9184918491849,111.55791299032977 L 186.96869686968697,112.89514914313794 L 187.61876187618762,113.58402837337245 L 187.76877687768777,114.59708606489379 L 187.31873187318732,116.3395452943105 L 185.26852685268526,118.52774990799658 L 184.9184918491849,121.44535605957803 L 181.56815681568156,127.03743451677582 L 179.5179517951795,129.38772836110533 L 178.16781678167817,129.30668374578363 L 178.11781178117812,128.4557152849057 L 178.61786178617862,125.33549759501997 L 178.56785678567857,123.22833759665559 L 177.46774677467747,124.36296221115948 L 177.1177117711771,124.97079682607229 L 178.26782678267827,120.63490990636096 L 178.51785178517852,118.64931683097915 L 177.61776177617762,117.27155837051012 L 176.26762676267626,118.81140606162256 L 175.4175417541754,119.21662913823108 L 175.2175217521752,118.12252683138804 L 175.5175517551755,117.47416990881439 L 176.06760676067606,116.90685760156244 L 177.36773677367736,116.3395452943105 L 177.71777177717772,115.93432221770196 L 178.06780678067807,115.08335375682402 L 178.16781678167817,114.2323852959461 L 177.86778677867787,113.82716221933757 L 175.2175217521752,112.97619375845964 L 170.6170617061706,110.5853776064693 L 169.8169816981698,110.82851145243441 L 168.46684668466847,108.03247222383551 L 165.9165916591659,107.91090530085296 L 164.76647664766475,110.01806529921734 L 167.4167416741674,113.82716221933757 L 169.46694669466945,114.51604144957209 L 169.8169816981698,115.52909914109343 L 169.66696669666965,116.29902298664963 L 168.66686668666867,117.14999144752755 L 168.36683668366837,117.67678144711866 L 168.71687168716872,119.13558452290938 L 169.5169516951695,119.82446375314389 L 170.6170617061706,119.82446375314389 L 171.8171817181718,119.33819606121365 L 169.66696669666965,120.83752144466523 L 168.46684668466847,121.28326682893461 L 167.16671667166716,121.44535605957803 L 166.5166516651665,121.81005682852572 L 165.86658665866585,122.62050298174279 L 165.016501650165,124.16035067285522 L 163.91639163916392,125.53810913332424 L 159.01590159015902,128.94198297683593 L 156.8156815681568,129.95504066835727 L 155.86558655865585,129.71190682239217 L 156.06560656065605,127.11847913209753 L 155.8155815581558,126.1864660558979 L 154.86548654865484,125.82176528695021 L 154.31543154315432,128.374670669584 L 153.76537653765376,128.49623759256656 L 151.86518651865185,128.374670669584 L 150.1150115011501,127.76683605467119 L 146.96469646964695,125.45706451800254 L 137.8137813781378,122.37736913577767 L 130.81308130813082,117.55521452413609 L 127.11271127112711,116.25850067898878 L 123.7123712371237,118.12252683138804 L 123.06230623062305,119.50028529185707 L 123.06230623062305,120.55386529103926 L 122.8122812281228,121.20222221361291 L 121.5121512151215,121.44535605957803 L 117.71177117711771,120.67543221402182 L 115.06150615061506,117.27155837051012 L 113.3113311331133,116.4205899096322 L 112.66126612661266,115.8937999100411 L 112.1112111211121,114.59708606489379 L 114.71147114711471,114.02977375764183 L 121.7121712171217,107.7893383778704 L 119.91199119911991,107.30307068594016 L 117.9117911791179,108.59978453108747 L 115.9115911591159,110.34224376050416 L 114.011401140114,111.1932122213821 L 114.011401140114,110.42328837582588 L 116.4116411641164,107.42463760892271 L 117.41174117411741,107.01941453231417 L 120.21202120212021,106.61419145570564 L 121.5121512151215,105.84426761014943 L 122.26222622262226,104.3854645343587 L 120.4120412041204,104.26389761137614 L 119.86198619861986,104.3854645343587 L 123.7123712371237,102.68352761260284 L 123.012301230123,101.26524684447298 L 121.81218121812181,100.81950146020358 L 120.5120512051205,100.65741222956018 L 119.3119311931193,100.21166684529078 L 121.06210621062105,97.98293992394385 L 122.06220622062206,97.09144915540506 L 122.96229622962295,96.72674838645739 L 125.06250625062505,96.92935992476166 L 126.16261626162616,96.84831530943994 L 126.86268626862686,96.28100300218799 L 126.66266626662666,91.98563839013752 L 127.46274627462745,89.10855454621692 L 127.6127612761276,87.7307960857479 L 127.46274627462745,87.04191685551339 L 126.81268126812681,85.90729224100949 L 126.66266626662666,85.17789070311413 L 126.81268126812681,84.40796685755791 L 127.96279627962795,82.01715070556754 L 128.76287628762876,81.32827147533304 L 129.66296629662966,80.76095916808109 L 132.5132513251325,80.03155763018573 L 133.56335633563356,79.38320070761208 L 133.66336633663366,78.37014301609074 L 133.2133213321332,77.19499609392598 L 133.06330633063305,75.8577599411178 L 133.2133213321332,74.5610460959705 L 134.26342634263426,71.80552917503246 L 134.3134313431343,70.75194917585027 L 134.1134113411341,70.26568148392002 L 133.9133913391339,70.34672609924174 L 133.8133813381338,69.17157917707698 L 134.013401340134,68.8068784081293 L 136.5136513651365,68.40165533152076 L 136.86368636863685,68.56374456216417 L 137.1137113711371,70.6303822528677 L 134.66346634663466,74.39895686532708 L 134.4134413441344,76.34402763304806 L 135.31353135313532,77.4381299398911 L 136.2136213621362,77.07342917094341 L 137.8137813781378,75.41201455684842 L 139.013901390139,75.24992532620502 L 140.6140614061406,76.01984917176122 L 141.7141714171417,76.34402763304806 L 143.014301430143,75.7767153257961 L 143.96439643964396,74.11530071170111 L 144.86448644864487,72.08918532865843 L 146.06460646064605,70.34672609924174 L 145.11451145114512,68.56374456216417 L 139.71397139713972,64.38994687309626 L 140.96409640964094,63.74158995052261 L 143.6143614361436,64.43046918075711 L 145.06450645064507,64.38994687309626 L 146.26462646264625,63.70106764286175 L 147.9147914791479,61.75599687514078 L 149.01490149014901,60.94555072192371 L 149.01490149014901,63.6605453352009 L 149.56495649564957,64.59255841140053 L 151.6151615161516,64.38994687309626 L 157.2157215721572,60.86450610660201 L 158.1158115811581,60.7834614912803 L 159.9159915991599,60.94555072192371 L 160.7160716071607,60.74293918361944 L 162.56625662566256,59.284136107828715 L 164.11641164116412,58.79786841589848 L 168.86688668866887,58.43316764695079 L 171.66716671667166,56.89331995583836 L 173.16731673167317,56.69070841753409 L 174.46744674467445,57.94689995502055 L 175.3175317531753,59.162569184846156 L 176.56765676567656,60.09458226104579 L 177.86778677867787,60.74293918361944 L 179.06790679067905,60.94555072192371 L 182.21822182218222,60.94555072192371 z" /></g><g><path fill-rule="evenodd" fill="#D2EBD9" stroke="#A6A6A6" stroke-width="0.25" opacity="1" d="M 5.8005800580058,153.01223372738295 L 19.45194519451945,153.1338006503655 L 21.602160216021602,151.59395295925307 L 23.402340234023402,150.783506806036 L 25.9025902590259,149.16261449960186 L 26.8026802680268,148.9600029612976 L 28.05280528052805,149.24365911492356 L 32.553255325532554,154.22790295720856 L 32.703270327032705,154.83573757212136 L 32.2032203220322,156.45662987855547 L 33.05330533053305,157.10498680112914 L 34.35343534353435,157.26707603177255 L 35.053505350535055,156.7808083398423 L 36.6036603660366,156.33506295557294 L 39.703970397039704,157.2265537241117 L 42.004200420042004,156.57819680153804 L 47.004700470047005,153.05275603504379 L 48.204820482048206,152.68805526609611 L 50.505050505050505,153.37693449633062 L 51.655165516551655,154.106336034226 L 51.655165516551655,154.9573044951039 L 51.25512551255125,157.06446449346828 L 52.005200520052,158.23961141563305 L 53.1053105310531,161.9271414127707 L 55.7055705570557,163.22385525791802 L 59.15591559155915,162.8996767966312 L 61.306130613061306,160.91408372124937 L 64.15641564156415,157.18603141645085 L 65.10651065106511,156.45662987855547 L 67.55675567556756,156.6997637245206 L 68.3068306830683,157.42916526241598 L 69.2069206920692,157.3075983394334 L 70.20702070207021,159.5768475684412 L 70.85708570857085,160.30624910633657 L 71.45714571457145,160.7925167982668 L 72.75727572757275,161.1572175672145 L 73.95739573957395,162.12975295107498 L 77.25772577257726,166.34407294780374 L 79.20792079207921,170.27473679090653 L 81.85818581858186,170.88257140581933 L 88.5088508850885,168.6538444844724 L 90.75907590759076,167.27608602400338 L 92.5092509250925,165.65519371756923 L 96.10961096109611,161.11669525955364 L 96.65966596659665,160.184682183354 L 96.95969596959695,158.64483449224159 L 97.4097409740974,157.46968757007681 L 98.95989598959895,155.5651391100167 L 100.76007600760076,152.52596603545268 L 101.76017601760175,151.26977449796624 L 102.91029102910291,150.8645514213577 L 105.41054105410541,151.14820757498367 L 106.76067606760675,150.8645514213577 L 107.06070607060705,150.1756721911232 L 106.56065606560655,148.63582450001076 L 106.46064606460645,147.90642296211539 L 106.56065606560655,146.9338875782549 L 107.3107310731073,146.44761988632467 L 109.66096609660966,146.12344142503784 L 111.2111211121112,145.6371737331076 L 112.06120612061206,144.90777219521223 L 112.41124112411241,143.8136698883692 L 112.36123612361236,142.71956758152615 L 112.06120612061206,141.30128681339627 L 112.81128112811281,141.30128681339627 L 113.46134613461345,140.97710835210944 L 115.96159615961595,138.7483814307625 L 120.3120312031203,137.00592220134578 L 122.41224122412241,137.20853373965005 L 125.96259625962595,139.11308219971016 L 133.76337633763376,141.42285373637884 L 135.41354135413542,140.36927373719664 L 136.3136313631363,141.30128681339627 L 135.51355135513552,143.3679245040998 L 136.36363636363635,144.78620527222967 L 139.26392639263926,146.44761988632467 L 139.26392639263926,147.33911065486345 L 137.4137413741374,147.29858834720258 L 136.4136413641364,147.50119988550685 L 136.26362636263624,148.47373526936735 L 136.86368636863685,150.66193988305344 L 138.013801380138,153.25536757334805 L 138.26382638263826,154.59260372615623 L 137.56375637563755,155.15991603340817 L 127.41274127412741,157.3886429547551 L 125.66256625662565,159.37423603013696 L 127.36273627362736,159.81998141440633 L 131.1131113111311,159.5768475684412 L 132.96329632963295,160.30624910633657 L 134.46344634463446,162.57549833534438 L 135.36353635363537,162.8996767966312 L 142.26422642264225,163.22385525791802 L 143.16431643164316,162.8996767966312 L 143.8143814381438,162.04870833575328 L 144.61446144614462,159.37423603013696 L 145.7145714571457,157.63177680072025 L 146.4146414641464,157.02394218580744 L 147.26472647264725,156.7808083398423 L 147.96479647964796,157.06446449346828 L 148.5148514851485,158.32065603095475 L 149.16491649164917,159.21214679949352 L 148.9148914891489,160.5493829523017 L 148.36483648364836,161.80557448978814 L 148.014801480148,162.12975295107498 L 149.31493149314932,163.66960064218742 L 150.1150115011501,164.15586833411766 L 150.46504650465045,164.15586833411766 L 150.7150715071507,165.04735910265643 L 152.4152415241524,167.27608602400338 L 152.8152815281528,169.34272371470692 L 152.76527652765276,174.73219063360042 L 152.9152915291529,176.35308294003457 L 154.71547154715472,180.36479139845906 L 154.36543654365437,181.25628216699786 L 153.1153115311531,181.09419293635443 L 151.4151415141514,180.24322447547652 L 152.7152715271527,182.79612985811028 L 153.56535653565356,184.9843344717964 L 153.86538653865387,187.45619523910844 L 153.36533653365336,190.65745754431586 L 152.26522652265226,193.2508852346105 L 151.1151115111511,194.9933444640272 L 150.6150615061506,196.85737061642646 L 151.6151615161516,199.85602138332962 L 153.36533653365336,202.24683753531997 L 157.16571657165716,205.44809984052742 L 158.91589158915892,207.67682676187434 L 160.8160816081608,211.85062445094226 L 161.3161316131613,212.53950368117677 L 162.3162316231623,212.7015929118202 L 162.9162916291629,213.26890521907214 L 163.31633163316332,214.32248521825434 L 163.56635663566357,216.0244221400102 L 164.56645664566454,215.21397598679312 L 166.4166416641664,216.06494444767102 L 167.16671667166716,215.53815444807995 L 167.86678667866786,214.56561906421945 L 168.81688168816882,213.79569521866324 L 169.8169816981698,213.3904721420547 L 170.8170817081708,213.43099444971554 L 168.71687168716872,209.17615214532594 L 168.61686168616862,207.59578214655264 L 169.8169816981698,205.56966676350996 L 168.86688668866887,203.7866852264324 L 167.66676667666766,204.27295291836265 L 166.46664666466646,205.61018907117082 L 165.46654665466545,206.38011291672703 L 164.11641164116412,205.85332291713596 L 161.76617661766176,203.90825214941498 L 160.16601660166015,203.74616291877155 L 161.66616661666166,201.8010921510506 L 162.76627662766276,200.01811061397302 L 164.01640164016402,199.04557523011255 L 165.96659665966595,199.41027599906022 L 167.56675667566756,200.46385599824242 L 168.21682168216822,200.585422921225 L 171.1171117111711,199.69393215268622 L 171.76717671767176,199.00505292245168 L 172.26722672267226,197.58677215432184 L 171.6171617161716,197.3436383083567 L 169.8169816981698,195.84431292490513 L 170.36703670367035,194.62864369507952 L 171.06710671067106,192.1973052354283 L 171.76717671767176,191.1437252362461 L 172.66726672667266,190.8195467749593 L 173.86738673867384,190.94111369794183 L 174.96749674967495,191.5084260051938 L 175.66756675667565,192.39991677373257 L 175.36753675367535,194.50707677209695 L 174.4174417441744,197.74886138496524 L 173.96739673967394,200.70698984420756 L 176.2176217621762,203.38146214982388 L 177.81778177817782,206.17750137842276 L 179.56795679567955,208.28466137678714 L 181.26812681268126,207.67682676187434 L 182.11821182118211,207.0284698393007 L 183.01830183018302,206.8663806086573 L 183.76837683768375,206.3395906090662 L 183.96839683968395,204.63765368731035 L 183.56835683568355,203.0167613808762 L 182.81828182818282,202.3278821506417 L 181.018101810181,202.00370368935486 L 182.66826682668267,199.0860975377734 L 185.1185118511851,197.262593693035 L 187.36873687368737,197.70833907730437 L 188.36883688368835,201.59848061274633 L 188.16881688168814,205.52914445584912 L 188.56885688568855,207.23108137760497 L 189.8189818981898,208.97354060702168 L 193.1193119311931,211.28331214369032 L 199.6199619961996,220.60344290568662 L 200.4200420042004,223.44000444194637 L 200.47004700470046,226.4791775165104 L 200.8200820082008,229.88305136002208 L 201.72017201720172,232.80065751160353 L 203.3203320332033,234.46207212569854 L 203.3203320332033,235.23199597125475 L 198.96989698969895,239.68944981394864 L 196.66966696669667,243.741680580034 L 195.6195619561956,244.9573498098596 L 193.26932693269325,246.25406365500692 L 190.9190919091909,246.5377198086329 L 174.1174117411741,243.86324750301657 L 168.31683168316832,244.55212673325107 L 163.016301630163,247.5912998078151 L 160.9160916091609,249.37428134489264 L 160.6160616061606,249.77950442150117 L 160.16601660166015,253.3454674956563 L 159.9159915991599,254.1964359565342 L 158.41584158415841,255.12844903273384 L 157.16571657165716,254.2774805718559 L 154.86548654865484,251.11674057430935 L 151.86518651865185,248.84749134530153 L 151.16511651165115,247.1455544235457 L 150.9150915091509,243.62011365705143 L 151.015101510151,238.757436737749 L 150.2150215021502,238.0685575075145 L 148.014801480148,237.94699058453193 L 148.86488648864886,239.00057058371414 L 149.66496649664967,240.70250750546998 L 150.01500150015002,242.5260113502084 L 149.46494649464947,243.9848144259991 L 150.2150215021502,249.33375903723177 L 150.86508650865085,249.6579374985186 L 154.36543654365437,253.62912364928226 L 159.16591659165917,257.3166536464199 L 160.36603660366035,261.0041836435576 L 160.01600160016,265.25902594794724 L 158.71587158715872,268.095587484207 L 157.015701570157,267.4472305616333 L 155.1155115511551,266.2720836394686 L 152.16521652165216,266.1099944088252 L 148.7148714871487,266.7583513313988 L 146.36463646364635,264.0838790257825 L 143.06430643064306,261.3283621048444 L 140.7140714071407,257.9650105689936 L 135.86358635863584,254.92583749442957 L 131.6131613161316,254.39904749483847 L 129.9129912991299,253.87225749524737 L 127.11271127112711,252.2108428811524 L 124.71247124712471,249.4148036525535 L 121.81218121812181,248.9690582682841 L 120.6120612061206,249.21219211424923 L 118.7118711871187,250.30629442109228 L 115.56155615561555,249.45532596021434 L 112.06120612061206,253.46703441863883 L 109.76097609760976,252.2108428811524 L 108.4108410841084,252.65658826542176 L 108.9108910891089,255.45262749402067 L 110.76107610761075,257.6003098000459 L 109.36093609360935,258.97806826051493 L 101.3101310131013,259.0591128758366 L 99.35993599359935,261.24731748952274 L 99.8099809980998,264.32701287174757 L 98.75987598759876,265.50215979391237 L 96.7096709670967,265.6642490245558 L 96.10961096109611,264.4080574870693 L 96.75967596759675,262.5845536423309 L 95.05950595059505,259.6669474907494 L 87.3087308730873,263.6381336415131 L 86.65866586658666,259.99112595203627 L 85.5085508550855,255.89837287829005 L 85.35853585358535,251.11674057430935 L 85.15851585158515,251.07621826664848 L 84.95849584958495,250.42786134407484 L 85.008500850085,249.69845980617947 L 85.6085608560856,249.33375903723177 L 86.65866586658666,249.37428134489264 L 86.80868086808681,249.77950442150117 L 89.00890089008901,251.11674057430935 L 90.6090609060906,250.2657721134314 L 90.6090609060906,248.64487980699727 L 89.75897589758975,247.5912998078151 L 88.75887588758876,248.56383519167557 L 88.3088308830883,247.9154782691019 L 87.3087308730873,245.76779596307668 L 86.60866086608661,245.80831827073752 L 85.85858585858585,247.5912998078151 L 84.05840584058406,248.64487980699727 L 83.35833583358335,249.33375903723177 L 82.9082908290829,250.30629442109228 L 82.7082708270827,251.68405288156129 L 81.90819081908191,251.96770903518726 L 82.55825582558255,253.6696459569431 L 84.20842084208421,256.06046210893345 L 84.40844084408441,257.3166536464199 L 83.75837583758376,258.93754595285407 L 82.75827582758275,259.0591128758366 L 81.70817081708171,258.8159790298715 L 80.75807580758075,259.504858260106 L 79.15791579157916,259.7074697984103 L 76.6076607660766,259.2617244141409 L 74.75747574757476,259.7074697984103 L 75.2075207520752,262.62507594999175 L 74.70747074707471,262.62507594999175 L 74.35743574357436,260.8420944129142 L 73.3073307330733,258.7349344145498 L 72.8072807280728,257.3166536464199 L 73.5073507350735,257.9244882613327 L 74.2074207420742,258.04605518431526 L 74.75747574757476,257.6003098000459 L 75.2075207520752,256.3846405702203 L 74.05740574057405,256.1415067242552 L 72.8072807280728,256.3846405702203 L 71.75717571757176,256.1009844165943 L 70.8070807080708,251.88666441986555 L 69.65696569656966,250.50890595939654 L 68.45684568456845,250.30629442109228 L 67.95679567956795,251.56248595857872 L 67.65676567656766,255.61471672466408 L 67.70677067706771,257.27613133875906 L 68.4068406840684,259.09963518349747 L 70.3070307030703,261.0852282588793 L 71.1071107110711,262.2198528733832 L 70.8070807080708,263.39499979554796 L 70.8070807080708,264.36753517940843 L 72.60726072607261,264.8538028713387 L 74.70747074707471,268.2171544071895 L 76.65766576657666,268.7034220991198 L 75.7075707570757,271.41841671239695 L 74.85748574857486,272.8772197881877 L 73.7073707370737,274.13341132567416 L 72.7072707270727,275.95691517041257 L 72.30723072307231,278.9555659373157 L 71.7071707170717,280.535935936089 L 70.3070307030703,281.5895159352712 L 68.65686568656865,282.15682824252315 L 67.40674067406741,282.1163059348623 L 66.85668566856685,281.6300382429321 L 66.05660566056605,280.4548913207673 L 65.25652565256526,280.252279782463 L 64.45644564456445,280.41436901310647 L 63.15631563156315,281.0627259356801 L 62.356235623562355,281.22481516632354 L 61.056105610561055,280.9006367050367 L 57.705770577057706,277.5778074768467 L 55.45554555455545,275.9163928627517 L 54.6054605460546,274.82229055590864 L 53.55535553555355,272.79617517286596 L 52.905290529052905,270.48640363619734 L 53.65536553655365,269.75700209830194 L 56.75567556755675,269.67595748298027 L 58.4058405840584,269.0276005604066 L 58.3058305830583,268.7439444067806 L 54.4054405440544,268.54133286847633 L 51.455145514551454,267.6498420999376 L 50.405040504050405,267.0014851773639 L 45.85458545854585,259.22120210648006 L 42.6042604260426,258.97806826051493 L 41.65416541654165,258.127099799637 L 41.6041604160416,256.78986364682885 L 42.8042804280428,256.1415067242552 L 43.154315431543154,255.00688210975127 L 43.254325432543254,253.91277980290823 L 43.55435543554355,253.22390057267373 L 44.1044104410441,252.94024441904776 L 44.8044804480448,252.85919980372603 L 47.004700470047005,251.11674057430935 L 47.35473547354735,249.98211595980544 L 46.55465546554655,248.56383519167557 L 46.1046104610461,245.92988519372008 L 45.9045904590459,241.55347596634792 L 45.654565456545654,240.58094058248741 L 45.3045304530453,239.93258365991377 L 44.8044804480448,239.68944981394864 L 40.5040504050405,238.757436737749 L 39.3039303930393,238.757436737749 L 38.453845384538454,239.24370442967924 L 37.1037103710371,241.06720827441765 L 35.9035903590359,241.9992213506173 L 35.45354535453545,243.2148905804429 L 35.35353535353535,244.4305598102685 L 35.6035603560356,244.9573498098596 L 35.55355535553555,245.92988519372008 L 33.4033403340334,251.96770903518726 L 33.003300330033,251.96770903518726 L 31.703170317031702,249.17166980658837 L 30.8030803080308,248.03704519208446 L 29.8029802980298,247.5912998078151 L 26.302630263026302,250.46838365173568 L 25.65256525652565,250.67099519003995 L 24.25242524252425,252.17032057349152 L 21.102110211021103,252.8186774960652 L 17.7017701770177,252.7376328807435 L 15.45154515451545,251.96770903518726 L 15.45154515451545,251.11674057430935 L 15.851585158515851,250.0226382674663 L 15.65156515651565,249.17166980658837 L 15.1015101510151,248.84749134530153 L 14.5014501450145,249.33375903723177 L 14.051405140514051,250.54942826705738 L 14.25142514251425,252.61606595776092 L 14.001400140014,253.79121287992567 L 15.001500150015001,254.43956980249934 L 14.25142514251425,254.96635980209044 L 11.35113511351135,255.4931498016815 L 10.75107510751075,256.06046210893345 L 9.85098509850985,259.09963518349747 L 8.6008600860086,259.22120210648006 L 7.650765076507651,259.8695590290537 L 7.650765076507651,260.7610497975925 L 9.8009800980098,266.1099944088252 L 9.85098509850985,267.0014851773639 L 9.2009200920092,267.6498420999376 L 8.9008900890089,268.78446671444146 L 8.5008500850085,269.1086451757283 L 7.45074507450745,267.4472305616333 L 6.0006000600060005,264.00283441046076 L 2.8002800280028,252.85919980372603 L 2.000200020002,248.48279057635386 L 2.8002800280028,204.19190830304095 L 2.6002600260026,201.1932575361378 L 0.9000900090009001,193.2508852346105 L 0.65006500650065,190.3738013906899 L 1.000100010001,181.17523755167613 L 1.55015501550155,178.33867601541638 L 1.85018501850185,177.64979678518188 L 2.9002900290029,177.32561832389504 L 3.1003100310031,178.13606447711211 L 2.8002800280028,180.24322447547652 L 3.25032503250325,183.1203083193971 L 3.35033503350335,185.71373600969173 L 3.3003300330033003,191.1437252362461 L 3.95039503950395,192.1973052354283 L 5.4005400540054005,191.99469369712403 L 10.9010901090109,189.48231062215112 L 13.35133513351335,187.69932908507357 L 15.15151515151515,184.82224524115296 L 15.95159515951595,180.24322447547652 L 15.95159515951595,176.31256063237373 L 18.651865186518652,172.86816448120118 L 19.75197519751975,170.9230937134802 L 20.75207520752075,168.77541140745495 L 21.2021202120212,166.58720679376887 L 20.8020802080208,164.5610914107262 L 18.001800180018,161.56244064382304 L 15.2015201520152,159.37423603013696 L 13.6013601360136,158.806923722885 L 10.251025102510251,156.0919291096078 L 7.050705070507051,154.30894757253026 L 6.450645064506451,154.67364834147793 L 6.2006200620062,156.41610757089464 L 6.35063506350635,157.79386603136365 L 7.050705070507051,159.53632526078036 L 7.200720072007201,160.75199449060597 L 7.050705070507051,162.12975295107498 L 5.75057505750575,165.49310448692583 L 4.000400040004,175.17793601786983 L 3.35033503350335,175.9883821710869 L 3.05030503050305,176.63673909366054 L 2.6002600260026,176.79882832430397 L 2.3002300230023,175.94785986342603 L 2.95029502950295,173.8001775574008 L 5.8005800580058,153.01223372738295 z" /><path fill-rule="evenodd" fill="#D2EBD9" stroke="#A6A6A6" stroke-width="0.25" opacity="1" d="M 174.66746674667465,161.19773987487534 L 173.46734673467347,160.14415987569316 L 172.4172417241724,159.61736987610206 L 171.66716671667166,158.56378987691988 L 171.26712671267126,156.0108844942861 L 171.9171917191719,151.3913414209488 L 173.81738173817382,148.4332129617065 L 176.26762676267626,147.74433373147198 L 178.56785678567857,149.89201603749723 L 179.26792679267925,152.12074295884415 L 179.2179217921792,156.29454064791207 L 179.56795679567955,158.60431218458072 L 181.46814681468146,161.0761729518928 L 182.46824682468247,162.8996767966312 L 182.21822182218222,163.75064525750912 L 181.1181118111811,161.6840075668056 L 180.26802680268025,161.1572175672145 L 179.06790679067905,162.8996767966312 L 178.7178717871787,164.15586833411766 L 178.61786178617862,165.49310448692583 L 178.9178917891789,166.830340639734 L 179.56795679567955,168.08653217722045 L 177.71777177717772,168.61332217681155 L 176.16761676167616,170.07212525260226 L 175.017501750175,172.26032986628837 L 174.46744674467445,177.56875216986018 L 173.56735673567357,177.85240832348615 L 172.5172517251725,176.71778370898227 L 171.76717671767176,175.05636909488726 L 171.56715671567156,171.93615140500154 L 172.46724672467246,170.55839294453253 L 173.9173917391739,169.95055832961972 L 175.2175217521752,169.0185452534201 L 176.16761676167616,166.9113852550557 L 176.2176217621762,164.76370294903046 L 175.6175617561756,162.77810987364865 L 174.66746674667465,161.19773987487534 z" /><path fill-rule="evenodd" fill="#D2EBD9" stroke="#A6A6A6" stroke-width="0.25" opacity="1" d="M 242.17421742174216,267.0014851773639 L 243.07430743074306,265.6237267168949 L 244.42444244424442,264.8538028713387 L 245.87458745874585,264.6917136406953 L 247.07470747074706,265.1779813326255 L 249.67496749674967,269.06812286806746 L 250.9250925092509,269.67595748298027 L 251.57515751575156,270.4458813285365 L 251.87518751875186,270.4458813285365 L 251.87518751875186,271.41841671239695 L 248.82488248824882,270.2432697902322 L 242.77427742774276,269.59491286765854 L 241.97419741974196,268.90603363742406 L 242.17421742174216,267.0014851773639 z" /></g><g><path fill-rule="evenodd" fill="#D2EBD9" stroke="#A6A6A6" stroke-width="0.25" opacity="1" d="M 87.3087308730873,263.6381336415131 L 95.05950595059505,259.6669474907494 L 96.75967596759675,262.5845536423309 L 96.10961096109611,264.4080574870693 L 96.7096709670967,265.6642490245558 L 98.75987598759876,265.50215979391237 L 99.8099809980998,264.32701287174757 L 99.35993599359935,261.24731748952274 L 101.3101310131013,259.0591128758366 L 109.36093609360935,258.97806826051493 L 110.76107610761075,257.6003098000459 L 108.9108910891089,255.45262749402067 L 108.4108410841084,252.65658826542176 L 109.76097609760976,252.2108428811524 L 112.06120612061206,253.46703441863883 L 115.56155615561555,249.45532596021434 L 118.7118711871187,250.30629442109228 L 120.6120612061206,249.21219211424923 L 121.81218121812181,248.9690582682841 L 124.71247124712471,249.4148036525535 L 127.11271127112711,252.2108428811524 L 129.9129912991299,253.87225749524737 L 131.6131613161316,254.39904749483847 L 135.86358635863584,254.92583749442957 L 140.7140714071407,257.9650105689936 L 143.06430643064306,261.3283621048444 L 146.36463646364635,264.0838790257825 L 148.7148714871487,266.7583513313988 L 147.5147514751475,267.0014851773639 L 148.014801480148,268.7034220991198 L 145.7145714571457,269.473345944676 L 144.56445644564457,269.18968979105 L 143.8143814381438,266.5962621007554 L 143.06430643064306,265.86686056286004 L 142.2142214221422,265.3805928709298 L 141.46414641464145,265.1779813326255 L 140.06400640064007,265.9884274858426 L 139.46394639463946,266.150516716486 L 138.96389638963896,265.86686056286004 L 138.76387638763876,264.65119133303443 L 138.56385638563856,264.36753517940843 L 137.5137513751375,264.0838790257825 L 135.16351635163517,262.62507594999175 L 124.51245124512451,259.30224672180174 L 121.26212621262125,259.8695590290537 L 121.26212621262125,260.7610497975925 L 131.16311631163114,262.2198528733832 L 134.4134413441344,264.61066902537357 L 136.96369636963695,265.58320440923404 L 139.16391639163916,267.3661859463116 L 140.26402640264027,267.8929759459027 L 142.06420642064205,268.37924363783293 L 143.6143614361436,269.67595748298027 L 145.4145414541454,270.48640363619734 L 146.96469646964695,270.20274748257134 L 148.26482648264826,269.18968979105 L 149.46494649464947,267.8929759459027 L 150.76507650765075,269.14916748338914 L 151.86518651865185,269.67595748298027 L 155.06550655065504,269.67595748298027 L 155.96559655965595,269.43282363701513 L 157.6157615761576,268.6628997914589 L 158.2158215821582,268.7034220991198 L 159.16591659165917,269.83804671362367 L 159.01590159015902,270.6890151745016 L 157.7157715771577,272.30990748093575 L 155.96559655965595,277.780419015151 L 155.46554655465545,280.535935936089 L 155.16551655165514,285.72279131667824 L 154.36543654365437,292.3684497730582 L 153.86538653865387,294.4756097714226 L 154.86548654865484,300.6755228435332 L 155.26552655265525,301.7291028427154 L 157.26572657265726,304.2414859176883 L 155.96559655965595,304.9708874555837 L 150.2150215021502,305.1329766862271 L 148.66486648664866,305.70028899347903 L 145.96459645964595,308.1721497607911 L 143.6143614361436,309.34729668295586 L 136.66366636663665,316.76287898489204 L 135.16351635163517,317.4112359074657 L 133.9133913391339,316.76287898489204 L 132.66326632663265,315.8713882163533 L 131.16311631163114,313.9263174486323 L 129.86298629862986,314.08840667927575 L 131.2131213121312,314.41258514056256 L 133.2133213321332,317.7354143687526 L 134.66346634663466,318.54586052196964 L 136.4136413641364,317.97854821471765 L 138.76387638763876,315.54720975506643 L 141.7141714171417,314.3315405252408 L 146.06460646064605,309.5499082212601 L 152.015201520152,305.53819976283563 L 154.31543154315432,306.1865566854093 L 157.66576657665766,306.14603437774844 L 158.46584658465846,306.38916822371357 L 159.01590159015902,306.8754359156438 L 159.6159615961596,307.80744899184344 L 160.46604660466045,309.874086682547 L 162.26622662266226,316.11452206231843 L 163.06630663066306,321.74712282717707 L 164.16641664166417,325.2725635936713 L 166.66666666666666,330.5809858972431 L 168.41684168416842,332.6881458956075 L 172.017201720172,335.4031405088847 L 173.21732173217322,337.34821127660564 L 171.7171717171717,350.80161742000905 L 171.7171717171717,357.6498874146933 L 173.76737673767377,363.40405510253447 L 171.1171117111711,369.8471020206102 L 167.5167516751675,375.3176135548254 L 165.5165516551655,381.27439278097086 L 167.66676667666766,389.1762427748373 L 173.46734673467347,398.2532396908685 L 177.16771677167716,401.81920276502365 L 181.018101810181,403.3185281484752 L 179.3179317931793,404.6962866089442 L 177.26772677267726,405.1825543008745 L 175.1175117511751,404.93942045490934 L 173.21732173217322,404.210018917014 L 168.51685168516852,400.64405584285885 L 159.86598659865984,391.6481035421494 L 154.86548654865484,387.9200512373509 L 149.01490149014901,385.3266235470562 L 142.66426642664266,384.2325212402132 L 136.1136113611361,384.7187889321434 L 132.7132713271327,384.02990970190893 L 131.013101310131,381.517526626936 L 130.06300630063006,380.8691697043623 L 127.6127612761276,376.1280597080425 L 122.76227622762275,370.6170258661664 L 120.06200620062006,366.6053174077419 L 104.8104810481048,338.1586574298227 L 99.45994599459945,332.1613558960164 L 93.40934093409341,328.0280805146093 L 86.95869586958695,325.63726436261896 L 80.5080508050805,324.86734051706276 L 62.8062806280628,327.4607682073574 L 61.55615561556155,326.89345590010544 L 58.15581558155815,323.0843589799852 L 55.305530553055306,321.5850335965336 L 48.9048904890489,320.1262305207429 L 45.554555455545554,320.3288420590472 L 39.653965396539654,322.43600205741154 L 37.1037103710371,322.4765243650724 L 34.85348534853485,320.3288420590472 L 29.002900290029,310.96818898939 L 25.202520252025202,306.9970028386264 L 12.5012501250125,286.1280143932868 L 10.9010901090109,282.1163059348623 L 10.05100510051005,276.80788363129045 L 10.201020102010201,270.81058209748414 L 10.75107510751075,268.095587484207 L 11.8011801180118,268.29819902251126 L 12.001200120012001,270.04065825192794 L 11.6011601160116,272.8366974805268 L 10.6010601060106,277.5778074768467 L 11.8011801180118,277.496762861525 L 13.751375137513751,276.15952670871684 L 14.75147514751475,275.83534824743 L 15.2015201520152,275.10594670953463 L 15.95159515951595,270.4458813285365 L 16.901690169016902,268.6628997914589 L 18.3018301830183,266.6773067160771 L 19.801980198019802,265.05641440964297 L 21.052105210521052,264.36753517940843 L 22.852285228522852,264.00283441046076 L 24.85248524852485,262.94925441127856 L 26.452645264526453,261.40940672016615 L 27.1027102710271,259.504858260106 L 27.85278527852785,257.9650105689936 L 29.55295529552955,255.61471672466408 L 31.55315531553155,253.79121287992567 L 33.003300330033,253.79121287992567 L 32.1032103210321,254.39904749483847 L 32.05320532053205,254.92583749442957 L 32.703270327032705,255.3310605710381 L 33.703370337033704,255.4931498016815 L 34.65346534653465,255.89837287829005 L 36.4036403640364,258.69441210688893 L 35.95359535953595,259.9506036443754 L 34.85348534853485,261.6525405661313 L 35.053505350535055,265.1779813326255 L 34.85348534853485,266.150516716486 L 33.853385338533855,266.5557397930945 L 28.852885288528853,264.36753517940843 L 28.152815281528152,264.61066902537357 L 26.65266526652665,265.7858159475383 L 25.65256525652565,266.150516716486 L 22.252225222522252,265.1779813326255 L 22.252225222522252,266.150516716486 L 23.15231523152315,266.47469517777284 L 24.602460246024602,267.6498420999376 L 25.4025402540254,267.8929759459027 L 26.352635263526352,267.6093197922767 L 28.002800280028,266.3936505624511 L 28.852885288528853,266.150516716486 L 29.75297529752975,266.35312825479025 L 30.7030703070307,267.0014851773639 L 31.103110311031102,268.095587484207 L 30.553055305530552,269.67595748298027 L 29.902990299029902,269.9596136366062 L 27.1027102710271,269.67595748298027 L 27.1027102710271,270.4458813285365 L 28.152815281528152,271.6615505583621 L 28.252825282528253,273.68766594140476 L 27.602760276027603,278.0640751687769 L 28.152815281528152,279.7660120905328 L 29.302930293029302,280.65750285907154 L 30.503050305030502,281.1437705510018 L 31.003100310031,281.6705605505929 L 31.35313531353135,282.3999620884883 L 32.1032103210321,282.76466285743595 L 33.703370337033704,282.8862297804185 L 36.4036403640364,286.93846054650385 L 36.75367536753675,287.5868174690775 L 37.353735373537354,292.6926282343451 L 38.25382538253825,294.15143131013576 L 39.4039403940394,295.32657823230056 L 40.35403540354035,296.8259036157521 L 40.7040704070407,299.33828669072506 L 41.5041504150415,300.31082207458553 L 43.154315431543154,301.08074592014174 L 44.8044804480448,301.4454466890894 L 47.35473547354735,300.6755228435332 L 50.85508550855085,302.5395489959325 L 53.4053405340534,304.9708874555837 L 52.4052405240524,306.10551207008757 L 53.6053605360536,306.91595822330464 L 55.205520552055205,307.07804745394805 L 56.6056605660566,306.42969053137443 L 57.2057205720572,304.6872313019577 L 57.75577557755775,304.9303651479228 L 58.95589558955895,306.47021283903524 L 60.4060406040604,307.929015914826 L 61.55615561556155,307.80744899184344 L 62.75627562756275,309.1446851446516 L 63.95639563956395,310.11722052851206 L 65.15651565156516,310.40087668213806 L 66.45664566456645,309.5499082212601 L 66.006600660066,308.73946206804305 L 67.2067206720672,308.7799843757039 L 68.1068106810681,309.2257297599733 L 69.85698569856986,310.5224436051206 L 72.15721572157216,311.4949789889811 L 72.75727572757275,312.3864697575199 L 72.30723072307231,314.08840667927575 L 80.2080208020802,307.36170360757404 L 81.55815581558156,306.75386899266124 L 82.95829582958295,306.91595822330464 L 99.2099209920992,312.7916928341284 L 105.36053605360536,312.87273744945014 L 108.21082108210821,314.08840667927575 L 110.66106610661066,316.39817821594437 L 112.011201120112,316.76287898489204 L 113.3113311331133,315.46616513974476 L 114.6114611461146,314.4531074482234 L 116.16161616161615,315.18250898611876 L 117.51175117511751,316.60078975424864 L 120.01200120012001,320.0046635977603 L 120.56205620562055,320.3288420590472 L 121.3121312131213,320.0451859054212 L 122.76227622762275,318.8295166755956 L 124.86248624862486,318.0190705223785 L 129.06290629062906,314.08840667927575 L 121.5121512151215,313.19691591073695 L 118.1118111811181,314.08840667927575 L 115.76157615761575,312.58908129582414 L 113.01130113011301,311.5760236043028 L 111.7111711171117,309.7119974519035 L 110.51105110511051,307.36170360757404 L 107.96079607960796,303.22842822616695 L 107.26072607260726,302.5395489959325 L 106.3106310631063,302.45850438061075 L 105.36053605360536,302.944772072541 L 104.8104810481048,303.7146959180972 L 104.86048604860486,304.5251420713143 L 105.76057605760576,305.1329766862271 L 105.76057605760576,306.10551207008757 L 97.5097509750975,309.5499082212601 L 95.15951595159515,309.63095283658186 L 84.65846584658465,306.10551207008757 L 84.40844084408441,305.70028899347903 L 84.00840084008401,303.83626284107976 L 83.65836583658366,303.4310397644712 L 83.008300830083,303.3905174568104 L 82.00820082008201,302.90424976488015 L 79.8079807980798,300.63500053587234 L 78.35783578357835,298.527840537508 L 77.05770577057706,295.93441284721337 L 75.7075707570757,292.6926282343451 L 76.85768576857686,291.4769590045195 L 77.5077507750775,291.03121362025007 L 78.3078307830783,290.86912438960667 L 78.75787578757875,290.18024515937213 L 79.1079107910791,288.6809197759206 L 79.15791579157916,287.181594392469 L 78.65786578657865,285.9254028549825 L 76.65766576657666,282.8862297804185 L 76.6076607660766,281.3058597816452 L 76.85768576857686,279.7660120905328 L 77.6077607760776,277.5778074768467 L 78.7078707870787,275.83534824743 L 79.45794579457946,275.1869913248563 L 81.2081208120812,274.57915670994356 L 81.35813581358136,273.68766594140476 L 80.95809580958095,271.86416209666635 L 80.2080208020802,269.67595748298027 L 76.95769576957696,267.69036440759845 L 76.15761576157615,266.150516716486 L 76.8076807680768,264.48910210239103 L 78.3078307830783,264.5701467177127 L 79.8079807980798,265.58320440923404 L 80.5080508050805,266.5962621007554 L 83.35833583358335,267.8929759459027 L 84.75847584758475,268.095587484207 L 85.85858585858585,267.0014851773639 L 87.3087308730873,263.6381336415131 z" /><path fill-rule="evenodd" fill="#D2EBD9" stroke="#A6A6A6" stroke-width="0.25" opacity="1" d="M 51.85518551855185,273.24192055713536 L 52.805280528052805,274.9843797865521 L 53.855385538553854,277.9425082457944 L 54.8054805480548,279.36078901392426 L 53.805380538053804,280.252279782463 L 54.85548554855485,280.252279782463 L 55.305530553055306,280.57645824374987 L 55.75557555755575,281.22481516632354 L 54.55545554555455,281.7516051659146 L 53.905390539053904,283.08884131872276 L 53.35533553355335,287.38420593077325 L 52.605260526052604,289.49136592913766 L 52.805280528052805,290.86912438960667 L 53.1053105310531,291.31486977387607 L 54.8054805480548,292.6926282343451 L 55.355535553555356,292.3279274653974 L 55.85558555855585,291.7200928504846 L 56.255625562556254,290.70703515896327 L 56.255625562556254,289.1671874678508 L 57.15571557155715,290.220767467033 L 57.705770577057706,291.84165977346714 L 58.705870587058705,296.3396359238219 L 58.555855585558554,297.4337382306649 L 57.705770577057706,299.78403207499446 L 57.9057905790579,300.75656745885493 L 59.15591559155915,303.4310397644712 L 58.25582558255825,303.7552182257581 L 57.455745574557454,302.0532813040022 L 56.405640564056405,300.5944782282115 L 54.8054805480548,301.6480582273937 L 52.4052405240524,296.7043366927696 L 51.005100510051,294.79978823270943 L 49.45494549454945,295.36710053996137 L 47.35473547354735,294.1919536177966 L 43.204320432043204,293.4625520799013 L 41.15411541154115,292.6926282343451 L 39.5039503950395,292.7331505420059 L 39.3039303930393,292.28740515773654 L 39.35393539353935,290.13972285171127 L 39.5039503950395,289.0861428525291 L 39.753975397539755,289.1671874678508 L 39.15391539153915,287.82995131504265 L 37.75377537753775,285.88488054732164 L 37.353735373537354,284.66921131749604 L 38.1038103810381,284.14242131790496 L 38.95389538953895,283.858765164279 L 40.7040704070407,283.858765164279 L 38.95389538953895,281.54899362761034 L 33.95339533953395,280.8601143973758 L 31.95319531953195,279.36078901392426 L 32.4032403240324,277.6588520921684 L 32.553255325532554,276.4026605546819 L 32.2032203220322,275.83534824743 L 31.55315531553155,275.6732590167866 L 30.9030903090309,275.26803594017804 L 30.4030403040304,274.7007236329261 L 30.053005300530053,274.05236671035243 L 29.8029802980298,272.5530413269009 L 30.553055305530552,272.4314744039183 L 32.703270327032705,273.24192055713536 L 33.15331533153315,273.1608759418137 L 34.85348534853485,272.30990748093575 L 37.403740374037405,269.39230132935427 L 39.3039303930393,265.13745902496464 L 40.00400040004,264.77275825601697 L 41.95419541954195,265.86686056286004 L 47.6047604760476,267.4472305616333 L 48.004800480048004,269.67595748298027 L 50.9050905090509,272.0667736349706 L 51.85518551855185,273.24192055713536 z" /><path fill-rule="evenodd" fill="#D2EBD9" stroke="#A6A6A6" stroke-width="0.25" opacity="1" d="M 215.97159715971597,349.91012665147025 L 213.1213121312131,348.329756652697 L 207.87078707870785,348.37027896035784 L 206.62066206620662,346.95199819222796 L 204.97049704970496,346.42520819263683 L 202.12021202120212,346.2631189619934 L 197.96979697969795,342.3729774265515 L 195.6195619561956,341.8461874269604 L 195.6195619561956,340.99521896608246 L 198.019801980198,338.4828358911096 L 199.96999699969996,337.42925589192737 L 202.47024702470245,336.98351050765797 L 204.3204320432043,333.4175474335029 L 205.72057205720571,332.28292281899894 L 207.9207920792079,332.80971281859007 L 209.07090709070906,334.22799358671995 L 209.67096709670966,335.9704528161366 L 210.62106210621062,337.5913451225708 L 212.3212321232123,339.45537127497005 L 212.57125712571255,341.60305358099527 L 211.72117211721172,343.54812434871627 L 210.62106210621062,344.52065973257675 L 216.02160216021602,345.817373577724 L 217.7217721772177,345.2095389628112 L 219.27192719271926,344.8853605015244 L 219.8219821982198,346.0199851160283 L 219.87198719871986,347.3977435764973 L 219.37193719371936,348.97811357527064 L 218.7218721872187,349.62647049784425 L 217.9217921792179,349.9506489591311 L 215.97159715971597,349.91012665147025 z" /></g><g><path fill-rule="evenodd" fill="#D2EBD9" stroke="#A6A6A6" stroke-width="0.25" opacity="1" d="M 265.77657765776576,20.018019984461645 L 266.47664766476646,21.436300752591517 L 266.026602660266,25.083308442068336 L 265.2265226522652,26.25845536423309 L 261.6761676167617,29.216583823475396 L 260.62606260626063,31.404788437161486 L 261.6761676167617,32.25575689803941 L 260.4760476047605,32.57993535932624 L 259.4259425942594,33.430903820204165 L 257.7257725772577,35.619108433890254 L 257.3257325732573,37.40208997096781 L 251.87518751875186,42.34581150559194 L 251.57515751575156,39.387683046349636 L 251.7251725172517,37.8478353552372 L 252.37523752375236,36.510599202429034 L 251.67516751675166,36.389032279446475 L 249.97499749974997,35.619108433890254 L 248.024802480248,35.619108433890254 L 246.47464746474645,34.24134997342124 L 246.5246524652465,33.187769974239046 L 247.3247324732473,31.850533821430876 L 248.024802480248,29.74337382306649 L 235.42354235423542,36.87529997137671 L 233.7233723372337,37.28052304798525 L 232.023202320232,38.33410304716744 L 229.87298729872987,43.03469073582645 L 228.6228622862286,44.08827073500864 L 227.37273727372735,44.655583042260595 L 224.022402240224,47.41109996319863 L 222.3222322232223,48.2215461164157 L 212.1212121212121,46.11438611805132 L 211.12111211121112,46.60065380998156 L 208.17081708170815,43.03469073582645 L 207.2207220722072,41.08961996810548 L 207.2207220722072,38.9824599697411 L 207.67076707670765,38.13149150886317 L 211.42114211421142,33.430903820204165 L 212.4212421242124,32.660979974647944 L 213.57135713571355,32.25575689803941 L 212.2212221222122,29.662329207744786 L 210.2210221022102,29.500239977101373 L 208.07080708070805,29.864940746049054 L 206.27062706270627,28.81136074686686 L 205.82058205820582,26.74472305616333 L 206.52065206520652,24.88069690376407 L 208.07080708070805,23.5434607509559 L 211.87118711871187,22.61144767475627 L 215.67156715671567,20.828466137678717 L 219.17191719171916,20.0585422921225 L 226.97269726972695,15.033776142176661 L 231.3231323132313,11.265201529717283 L 237.87378737873786,7.2940153789536355 L 239.47394739473947,7.050881532988514 L 242.17421742174216,9.52274230030058 L 245.57455745574555,11.143634606734722 L 249.12491249124912,11.954080759951792 L 260.1760176017602,9.52274230030058 L 263.3263326332633,10.576322299482772 L 265.57655765576555,13.169749989777397 L 265.87658765876586,15.803699987732877 L 263.07630763076304,17.05989152521934 L 263.6263626362636,18.397127678027502 L 264.97649764976495,19.086006908262014 L 265.77657765776576,20.018019984461645 z" /><path fill-rule="evenodd" fill="#D2EBD9" stroke="#A6A6A6" stroke-width="0.25" opacity="1" d="M 306.2806280628063,56.73123072519495 L 300.48004800480044,57.095931494142626 L 298.12981298129813,58.190033800985674 L 296.57965796579657,60.94555072192371 L 295.27952795279526,60.94555072192371 L 294.5294529452945,60.49980533765432 L 294.27942794279426,59.6488368767764 L 294.6294629462946,58.43316764695079 L 295.27952795279526,57.54167687841201 L 297.5797579757976,55.88026226431702 L 297.5797579757976,55.029293803439096 L 296.979697969797,54.62407072683056 L 296.67966796679667,53.8946691889352 L 296.67966796679667,52.88161149741386 L 297.0797079707971,51.66594226758826 L 296.17961796179617,51.098629960336304 L 293.17931793179315,49.964005345832405 L 292.1292129212921,50.36922842244094 L 290.42904290429044,51.58489765226655 L 289.2789278927893,51.66594226758826 L 289.7789778977898,49.964005345832405 L 289.2789278927893,49.072514577293624 L 288.3788378837884,49.63982688454558 L 287.4787478747875,49.15355919261533 L 285.87858785878586,47.37057765553778 L 287.2787278727873,45.709163041442785 L 286.5286528652865,45.2634176571734 L 285.87858785878586,44.57453842693889 L 285.57855785578556,43.6020030430784 L 285.87858785878586,42.34581150559194 L 284.87848784878486,42.34581150559194 L 284.87848784878486,41.575887660035725 L 289.3789378937894,39.30663843102793 L 291.4291429142914,38.9824599697411 L 292.77927792779275,39.752383815297314 L 296.57965796579657,44.939239195886564 L 298.979897989799,46.92483227126839 L 301.4301430143014,48.05945688577229 L 303.98039803980396,48.46467996238083 L 312.3312331233123,46.60065380998156 L 314.031403140314,46.68169842530327 L 315.18151815181517,46.965354578929244 L 315.8315831583158,47.73527842448546 L 315.981598159816,49.072514577293624 L 314.8314831483148,53.28683457402239 L 312.48124812481245,55.43451688004763 L 306.2806280628063,56.73123072519495 z" /><path fill-rule="evenodd" fill="#D2EBD9" stroke="#A6A6A6" stroke-width="0.25" opacity="1" d="M 302.18021802180215,128.25310374660143 L 299.1799179917992,129.752429130053 L 296.67966796679667,130.07660759133984 L 294.57945794579456,129.71190682239217 L 293.7293729372937,130.40078605262667 L 292.3292329232923,129.54981759174873 L 290.97909790979094,129.46877297642703 L 288.7788778877888,130.48183066794837 L 288.72887288728873,131.9406337437391 L 288.3788378837884,132.50794605099105 L 288.2288228822882,133.15630297356472 L 288.5788578857886,135.22294066426824 L 288.4788478847885,135.74973066385934 L 287.9287928792879,136.51965450941555 L 290.3790379037904,138.50524758479736 L 292.029202920292,139.15360450737103 L 294.77947794779476,141.22024219807457 L 295.029502950295,141.7875545053265 L 294.8294829482948,142.07121065895248 L 293.47934793479345,142.88165681216955 L 292.9292929292929,143.8136698883692 L 292.77927792779275,144.5025491186037 L 293.77937793779375,145.43456219480333 L 288.62886288628863,146.3260529633421 L 284.7284728472847,150.13514988346233 L 282.1282128212821,150.1756721911232 L 283.47834783478345,143.8947145036909 L 283.2283228322832,141.098675275092 L 281.6281628162816,137.0869668166675 L 281.02810281028104,134.45301681871203 L 278.6278627862786,135.46607451023337 L 277.5277527752775,136.35756527877214 L 277.07770777077707,137.49218989327605 L 277.37773777377737,137.77584604690202 L 279.5779577957796,137.00592220134578 L 278.977897789779,138.62681450777993 L 277.977797779778,139.68039450696213 L 276.8276827682768,140.08561758357067 L 275.67756775677566,139.59934989164043 L 275.47754775477546,137.57323450859775 L 273.8273827382738,135.83077527918104 L 271.8271827182718,134.8987622029814 L 270.3770377037704,135.22294066426824 L 271.2771277127713,136.96539989368495 L 273.77737773777375,139.39673835333616 L 274.77747774777475,142.92217911983042 L 271.42714271427144,144.98881681053393 L 270.2770277027703,145.35351757948163 L 270.0770077007701,144.86724988755137 L 269.1769176917692,144.46202681094283 L 266.4266426642664,144.25941527263856 L 263.3263326332633,137.6137568162586 L 262.37623762376234,136.39808758643298 L 261.12611261126114,135.22294066426824 L 261.72617261726174,137.33010066263262 L 262.1262126212621,138.10002450818882 L 262.17621762176213,138.70785912310163 L 261.6761676167617,140.36927373719664 L 259.9259925992599,142.92217911983042 L 258.77587758775877,144.13784834965602 L 258.2258225822582,143.48949142708236 L 257.5257525752575,143.2058352734564 L 254.37543754375437,142.96270142749125 L 253.32533253325332,143.12479065813469 L 252.4252425242524,144.09732604199516 L 252.97529752975296,144.90777219521223 L 254.22542254225422,145.43456219480333 L 259.9259925992599,146.44761988632467 L 259.97599759976,147.37963296252428 L 259.4259425942594,149.40574834556696 L 258.2258225822582,152.48544372779185 L 256.9256925692569,152.64753295843525 L 255.67556755675565,151.9991760358616 L 254.57545754575457,151.1076852673228 L 253.62536253625362,150.66193988305344 L 250.1250125012501,150.29723911410576 L 248.92489248924892,150.66193988305344 L 248.92489248924892,151.6344752669139 L 250.27502750275025,151.6344752669139 L 251.07510751075105,152.32335449714842 L 252.37523752375236,154.1873806495477 L 253.42534253425342,154.6331260338171 L 255.6255625562556,154.0252914189043 L 256.7256725672567,154.1873806495477 L 257.7257725772577,156.6997637245206 L 256.37563756375636,160.14415987569316 L 252.87528752875286,166.34407294780374 L 253.57535753575357,167.4381752546468 L 254.47544754475447,167.96496525423788 L 256.7256725672567,168.08653217722045 L 256.27562756275626,166.34407294780374 L 257.47574757475746,165.73623833289093 L 258.57585758575857,165.89832756353437 L 259.0759075907591,166.74929602441227 L 258.2258225822582,168.08653217722045 L 258.8258825882588,169.58585756067203 L 260.82608260826083,172.01719602032324 L 261.12611261126114,173.2733875578097 L 260.32603260326033,174.36748986465275 L 258.87588758875887,174.08383371102678 L 256.27562756275626,172.46294140459264 L 251.27512751275125,170.9230937134802 L 248.32483248324831,170.7610044828368 L 247.07470747074706,172.01719602032324 L 236.1236123612361,173.71913294207909 L 234.27342734273427,173.2733875578097 L 225.22252225222522,177.64979678518188 L 225.87258725872587,175.42106986383493 L 227.47274727472745,174.00278909570505 L 233.1233123312331,171.85510678967984 L 237.67376737673766,171.530928328393 L 239.72397239723972,170.67995986751507 L 242.07420742074206,166.50616217844717 L 241.67416741674165,161.48139602850134 L 239.72397239723972,158.07752218498962 L 237.27372737273726,158.60431218458072 L 235.77357735773577,156.861852955164 L 234.12341234123411,156.13245141726867 L 232.37323732373235,156.45662987855547 L 230.57305730573057,157.67229910838108 L 231.023102310231,156.6187191091989 L 232.2232223222322,154.83573757212136 L 232.5232523252325,153.82267988060002 L 231.67316731673165,148.4332129617065 L 230.82308230823082,147.25806603954175 L 229.72297229722972,146.65023142462894 L 227.3227322732273,146.08291911737697 L 224.92249224922492,144.3404598879603 L 223.77237723772376,143.8947145036909 L 221.22212221222122,143.85419219603003 L 220.02200220022002,144.13784834965602 L 219.37193719371936,144.82672757989053 L 218.37183718371836,143.8947145036909 L 221.32213221322132,141.30128681339627 L 219.5219521952195,140.28822912187493 L 217.47174717471745,140.89606373678774 L 215.62156215621562,142.63852296620442 L 214.5214521452145,144.82672757989053 L 215.17151715171516,145.39403988714247 L 215.87158715871587,145.67769604076844 L 217.4217421742174,145.59665142544674 L 217.4217421742174,146.44761988632467 L 214.97149714971496,146.04239680971614 L 210.52105210521052,144.29993758029943 L 208.2208220822082,143.8947145036909 L 197.06970697069707,145.59665142544674 L 197.06970697069707,144.82672757989053 L 198.16981698169815,144.17837065731686 L 201.87018701870187,143.8947145036909 L 203.07030703070305,143.2868798887781 L 203.6203620362036,142.55747835088272 L 204.77047704770476,140.36927373719664 L 206.47064706470647,139.2751714303536 L 210.92109210921092,137.33010066263262 L 212.1212121212121,135.22294066426824 L 200.9200920092009,136.15495374046787 L 200.9200920092009,135.22294066426824 L 208.67086708670865,133.11578066590386 L 212.1212121212121,131.0491429752003 L 215.22152215221521,127.07795682443668 L 216.22162216221622,124.68714067244632 L 216.42164216421642,122.33684682811682 L 215.67156715671567,120.51334298337841 L 213.77137713771376,119.82446375314389 L 212.8212821282128,119.74341913782219 L 212.17121712171215,119.3787183688745 L 211.77117711771177,118.48722760033573 L 211.62116211621162,116.78529067857988 L 211.97119711971195,116.09641144834536 L 212.77127712771275,116.3395452943105 L 214.021402140214,117.27155837051012 L 215.47154715471547,117.028424524545 L 216.57165716571657,116.46111221729305 L 217.47174717471745,115.40753221811086 L 218.37183718371836,113.82716221933757 L 219.8219821982198,109.36970837664369 L 220.37203720372037,106.57366914804479 L 220.12201220122012,105.31747761055833 L 220.97209720972097,104.62859838032382 L 221.07210721072107,103.12927299687225 L 220.37203720372037,101.62994761342065 L 217.17171717171715,100.33323376827335 L 215.021502150215,98.30711838523067 L 214.021402140214,98.22607376990896 L 212.1212121212121,98.42868530821323 L 212.1212121212121,97.4966722320136 L 213.1213121312131,94.74115531107556 L 213.57135713571355,94.1738430038236 L 214.6214621462146,94.1738430038236 L 215.17151715171516,94.98428915704068 L 215.47154715471547,96.03786915622287 L 215.97159715971597,96.72674838645739 L 217.77177717771775,96.76727069411824 L 218.8218821882188,96.48361454049225 L 219.37193719371936,95.87577992557945 L 219.2219221922192,94.57906608043214 L 218.37183718371836,94.1738430038236 L 217.37173717371735,94.05227608084105 L 216.72167216721672,93.72809761955422 L 217.37173717371735,92.59347300505033 L 221.27212721272127,88.98698762323436 L 222.5222522252225,88.21706377767813 L 222.97229722972295,87.52818454744363 L 222.8222822282228,84.48901147287961 L 223.022302230223,83.8001322426451 L 224.67246724672466,83.92169916562767 L 225.42254225422542,84.16483301159279 L 226.17261726172617,84.73214531884473 L 225.72257225722572,83.03020839708888 L 224.87248724872487,82.21976224387181 L 223.8223822382238,82.26028455153266 L 222.77227722772275,83.03020839708888 L 223.27232723272326,79.58581224591634 L 224.37243724372436,77.84335301649963 L 226.12261226122612,77.19499609392598 L 228.57285728572856,77.11395147860428 L 227.1227122712271,77.9649199394822 L 227.1227122712271,78.81588840036012 L 232.023202320232,78.81588840036012 L 233.023302330233,79.14006686164694 L 234.97349734973497,80.27469147615085 L 235.87358735873585,80.47730301445512 L 240.77407740774075,78.28909840076902 L 241.7241724172417,78.81588840036012 L 243.024302430243,78.0459645548039 L 248.32483248324831,76.70872840199574 L 250.97509750975095,75.49305917217013 L 251.87518751875186,75.41201455684842 L 252.9252925292529,76.3035053253872 L 253.92539253925392,77.68126378585622 L 255.1255125512551,78.77536609269927 L 256.7256725672567,78.81588840036012 L 257.8257825782578,77.80283070883878 L 257.9257925792579,76.34402763304806 L 257.3257325732573,74.92574686491818 L 256.27562756275626,73.79112225041428 L 257.47574757475746,72.17022994398015 L 261.52615261526154,72.45388609760612 L 263.07630763076304,71.19769456011966 L 263.2263226322632,70.18463686859832 L 262.8262826282628,69.69836917666808 L 256.7256725672567,68.56374456216417 L 258.57585758575857,65.44352687227845 L 262.9262926292629,62.120697644088466 L 264.5264526452645,59.284136107828715 L 260.82608260826083,60.09458226104579 L 253.32533253325332,63.57950071987919 L 249.52495249524952,64.38994687309626 L 250.5250525052505,63.0527107202881 L 251.67516751675166,61.95860841344505 L 253.02530253025301,61.229206875549686 L 257.5257525752575,60.94555072192371 L 258.07580758075807,60.70241687595859 L 259.025902590259,59.52726995379384 L 259.4259425942594,59.284136107828715 L 260.7760776077608,59.000479954202746 L 265.5265526552655,56.73123072519495 L 266.37663766376636,55.47503918770848 L 267.67676767676767,51.70646457524911 L 268.4268426842684,50.733929191388626 L 268.4268426842684,49.964005345832405 L 266.97669766976696,48.50520227004168 L 265.97659765976596,47.97841227045058 L 265.2265226522652,48.829380731328506 L 263.6263626362636,47.0869215019118 L 262.8262826282628,46.60065380998156 L 262.07620762076203,47.005876886590094 L 260.6760676067607,48.66729150068509 L 259.6759675967597,49.072514577293624 L 259.025902590259,48.788858423667655 L 256.27562756275626,46.60065380998156 L 256.27562756275626,45.709163041442785 L 257.7257725772577,45.02028381120827 L 258.47584758475847,43.804614581382666 L 258.975897589759,37.36156766330696 L 259.7759775977598,36.14589843348135 L 260.8760876087609,35.254407664942576 L 262.07620762076203,33.8361268968127 L 262.5262526252625,32.86359151295221 L 262.47624762476244,31.52635536014405 L 262.6262626262626,30.553819976283563 L 263.2263226322632,28.973449977510274 L 266.47664766476646,25.529053826337726 L 267.6267626762676,23.502938443295047 L 268.4268426842684,23.016670751364806 L 267.67676767676767,20.99055536832213 L 267.9267926792679,19.73436383083567 L 268.9268926892689,19.04548460060116 L 270.3770377037704,18.761828446975187 L 268.4268426842684,15.641610757089463 L 267.57675767576757,13.696539989368494 L 267.47674767476747,11.143634606734722 L 267.97679767976797,9.603786915622287 L 270.32703270327033,5.024766149945838 L 271.32713271327134,3.6064853818159643 L 271.6271627162716,1.8640261523992625 L 273.1273127312731,0.0 L 274.5274527452745,0.16208923064341413 L 274.7274727472747,4.538498458015596 L 273.9273927392739,11.467813068021549 L 273.9273927392739,15.357954603463488 L 274.97749774977495,17.05989152521934 L 275.7275727572757,17.586681524810434 L 277.6277627762776,19.896453061479086 L 278.3278327832783,20.42324306107018 L 281.47814781478144,26.74472305616333 L 282.5282528252825,27.919869978328084 L 288.7788778877888,33.06620305125648 L 288.7788778877888,33.8361268968127 L 286.6286628662866,36.34850997178562 L 284.67846784678466,39.387683046349636 L 283.57835783578355,40.44126304553183 L 282.27822782278224,40.40074073787097 L 280.92809280928094,39.95499535360158 L 279.5779577957796,39.79290612295817 L 278.4278427842784,40.44126304553183 L 275.47754775477546,43.15625765880901 L 274.3274327432743,45.91177457974705 L 273.7273727372737,46.60065380998156 L 271.9271927192719,45.790207656764494 L 271.32713271327134,45.709163041442785 L 271.87718771877184,44.08827073500864 L 270.977097709771,43.35886919711328 L 269.8769876987699,43.520958427756696 L 268.9268926892689,44.33140458097376 L 268.4268426842684,45.709163041442785 L 268.5768576857686,47.45162227085949 L 269.7769776977698,50.085572268814964 L 269.4269426942694,52.43586611314447 L 269.97699769977,52.59795534378789 L 270.82708270827084,53.3678791893441 L 270.32703270327033,53.61101303530922 L 270.3770377037704,54.218847650222024 L 272.77727772777274,53.77310226595264 L 276.57765776577656,50.085572268814964 L 279.0779077907791,49.072514577293624 L 280.6780678067807,49.39669303858046 L 283.07830783078305,51.22019688331886 L 284.17841784178415,51.66594226758826 L 285.8285828582858,51.74698688290996 L 287.2787278727873,52.27377688250105 L 288.2288228822882,53.52996841998752 L 288.3288328832883,55.88026226431702 L 285.6285628562856,61.79651918280164 L 285.1285128512851,62.08017533642761 L 285.8285828582858,62.76905456666212 L 288.42884288428843,64.30890225777456 L 288.8788878887889,64.7951699497048 L 289.2789278927893,66.01083917953041 L 288.6788678867887,68.88792302345101 L 285.97859785978596,69.81993609965063 L 280.02800280028003,70.34672609924174 L 277.977797779778,71.92709609801501 L 277.6277627762776,72.45388609760612 L 277.77777777777777,73.75059994275342 L 278.1278127812781,74.15582301936196 L 278.7278727872787,74.35843455766623 L 280.72807280728074,75.97932686410037 L 282.17821782178214,75.53358147983099 L 282.97829782978295,73.83164455807514 L 282.4282428242824,71.19769456011966 L 283.1283128312831,70.58985994520685 L 283.7283728372837,70.50881532988515 L 284.3284328432843,70.95456071415454 L 284.87848784878486,72.00814071333673 L 284.47844784478445,74.15582301936196 L 285.3285328532853,76.66820609433488 L 286.7286728672867,78.77536609269927 L 288.5788578857886,79.90999070720316 L 289.6789678967897,81.16618224468962 L 304.5304530453045,84.65110070352303 L 308.23082308230823,87.28505070147851 L 309.68096809680964,88.98698762323436 L 308.6808680868087,92.3503391590852 L 308.33083308330833,94.13332069616276 L 308.23082308230823,96.28100300218799 L 307.53075307530753,98.14502915458725 L 305.9305930593059,100.04957761464738 L 302.88028802880285,102.68352761260284 L 301.68016801680164,103.21031761219395 L 297.3297329732973,103.53449607348078 L 296.1296129612961,103.9397191500893 L 292.67926792679265,107.01941453231417 L 290.77907790779074,113.58402837337245 L 294.3294329432943,120.9590883676478 L 300.18001800180014,127.11847913209753 L 302.18021802180215,128.25310374660143 z" /></g><g><path fill-rule="evenodd" fill="#D2EBD9" stroke="#A6A6A6" stroke-width="0.25" opacity="1" d="M 500.0,69.49575763836381 L 498.5998599859986,70.99508302181539 L 495.2495249524952,72.12970763631928 L 489.2989298929893,76.34402763304806 L 488.54885488548854,77.27604070924768 L 487.3987398739874,79.7884237842206 L 486.048604860486,80.15312455316828 L 484.09840984098406,79.74790147655975 L 478.74787478747874,83.75960993498425 L 476.1476147614761,86.51512685592229 L 473.29732973297325,90.6889245449902 L 472.3472347234723,91.33728146756386 L 471.69716971697164,90.04056762241655 L 470.64706470647064,86.0693814716529 L 469.24692469246924,83.59752070434084 L 468.6968696869687,82.21976224387181 L 468.44684468446843,80.96357070638535 L 467.7967796779678,68.15852148555564 L 466.89668966896687,65.52457148760016 L 467.996799679968,64.02524610414858 L 473.7473747374737,59.32465841548957 L 479.24792479247924,57.74428841671628 L 484.09840984098406,54.70511534215227 L 488.04880488048803,53.12474534337898 L 490.9490949094909,52.922133805074715 L 494.39943994399437,51.990120728875084 L 495.3995399539954,52.922133805074715 L 497.2997299729973,55.272427649404214 L 497.0997099709971,57.50115457075116 L 496.84968496849683,58.5142122622725 L 497.24972497249723,59.77040379975896 L 498.7998799879988,62.242264567071025 L 499.54995499549955,63.78211225818346 L 499.74997499749975,64.83569225736565 L 499.04990499049904,67.79382071660795 L 499.34993499349935,68.11799917789479 L 500.0,69.49575763836381 z" /><path fill-rule="evenodd" fill="#D2EBD9" stroke="#A6A6A6" stroke-width="0.25" opacity="1" d="M 320.3320332033203,138.7483814307625 L 319.8319831983198,140.36927373719664 L 318.8818881888189,139.15360450737103 L 316.93169316931693,134.45301681871203 L 314.3314331433143,131.69749989777398 L 313.58135813581356,130.07660759133984 L 313.6313631363136,127.28056836274095 L 314.6314631463146,123.8361722115684 L 316.1316131613161,121.48587836723888 L 317.6817681768177,121.93162375150828 L 318.43184318431844,122.82311452004706 L 319.6319631963196,123.8361722115684 L 320.9320932093209,124.60609605712462 L 322.032203220322,124.97079682607229 L 324.5324532453245,127.84788066999289 L 324.48244824482447,128.374670669584 L 320.3320332033203,138.7483814307625 z" /><path fill-rule="evenodd" fill="#D2EBD9" stroke="#A6A6A6" stroke-width="0.25" opacity="1" d="M 266.4266426642664,144.25941527263856 L 269.1769176917692,144.46202681094283 L 270.0770077007701,144.86724988755137 L 270.2770277027703,145.35351757948163 L 271.42714271427144,144.98881681053393 L 274.77747774777475,142.92217911983042 L 276.027602760276,143.08426835047382 L 278.5778577857786,142.15225527427418 L 280.42804280428044,144.82672757989053 L 280.22802280228024,149.7299268068538 L 278.9278927892789,154.91678218744306 L 277.6277627762776,158.60431218458072 L 276.47764776477646,160.50886064464083 L 276.17761776177616,162.12975295107498 L 276.57765776577656,164.52056910306533 L 276.6276627662766,165.81728294821266 L 274.6274627462746,167.03295217803827 L 272.1272127212721,169.7074244836546 L 270.82708270827084,169.7884690989763 L 270.32703270327033,167.39765294698594 L 271.97719771977194,163.71012294984828 L 273.4273427342734,159.5768475684412 L 272.27722772277224,156.0108844942861 L 271.02710271027104,155.28148295639073 L 268.5268526852685,154.55208141849536 L 267.47674767476747,153.41745680399148 L 266.27662766276626,150.58089526773173 L 265.7265726572657,148.75739142299332 L 265.5265526552655,147.33911065486345 L 266.3266326632663,145.2724729641599 L 266.4266426642664,144.25941527263856 z" /><path fill-rule="evenodd" fill="#D2EBD9" stroke="#A6A6A6" stroke-width="0.25" opacity="1" d="M 282.1282128212821,150.1756721911232 L 284.7284728472847,150.13514988346233 L 288.62886288628863,146.3260529633421 L 293.77937793779375,145.43456219480333 L 292.77927792779275,144.5025491186037 L 292.9292929292929,143.8136698883692 L 293.47934793479345,142.88165681216955 L 294.8294829482948,142.07121065895248 L 295.029502950295,141.7875545053265 L 294.77947794779476,141.22024219807457 L 292.029202920292,139.15360450737103 L 290.3790379037904,138.50524758479736 L 287.9287928792879,136.51965450941555 L 288.4788478847885,135.74973066385934 L 288.5788578857886,135.22294066426824 L 288.2288228822882,133.15630297356472 L 288.3788378837884,132.50794605099105 L 288.72887288728873,131.9406337437391 L 288.7788778877888,130.48183066794837 L 290.97909790979094,129.46877297642703 L 292.3292329232923,129.54981759174873 L 293.7293729372937,130.40078605262667 L 294.57945794579456,129.71190682239217 L 296.67966796679667,130.07660759133984 L 299.1799179917992,129.752429130053 L 302.18021802180215,128.25310374660143 L 305.3305330533053,130.07660759133984 L 306.7306730673067,130.03608528367897 L 308.53085308530854,128.77989374619253 L 309.68096809680964,128.374670669584 L 311.2311231123112,128.9014606691751 L 311.9311931193119,130.40078605262667 L 312.38123812381235,131.9406337437391 L 315.08150815081507,133.80465989613836 L 317.93179317931794,139.3562160456753 L 319.38193819381934,141.30128681339627 L 318.4818481848185,143.2868798887781 L 318.3818381838184,143.8947145036909 L 318.8818881888189,146.89336527059405 L 319.0819081908191,151.26977449796624 L 319.38193819381934,152.48544372779185 L 318.53185318531854,154.0252914189043 L 317.53175317531753,156.49715218621634 L 316.7816781678168,159.2526691071544 L 316.031603160316,163.26437756557888 L 315.031503150315,165.20944833329986 L 313.031303130313,168.08653217722045 L 313.031303130313,169.0185452534201 L 313.98139813981396,170.4773483292108 L 315.8815881588159,175.50211447915666 L 316.93169316931693,177.64979678518188 L 319.8319831983198,181.66150524360637 L 320.78207820782075,183.6470983189882 L 317.13171317131713,186.76731600887393 L 315.031503150315,187.6588067774127 L 312.5312531253125,189.92805600642052 L 311.18111811181114,190.65745754431586 L 306.1306130613061,190.65745754431586 L 299.9799979998,194.18289831081012 L 294.07940794079406,194.42603215677525 L 288.42884288428843,191.26529215922866 L 277.6277627762776,181.9856837048932 L 270.8770877087709,177.8118860158253 L 267.2267226722672,174.65114601827872 L 266.026602660266,171.530928328393 L 267.17671767176716,170.43682602154996 L 269.2269226922692,170.80152679049763 L 274.67746774677465,173.03025371184458 L 276.17761776177616,173.11129832716628 L 277.47774777477747,172.42241909693178 L 278.5778577857786,170.67995986751507 L 280.2780278027803,163.91273448815252 L 280.52805280528054,162.12975295107498 L 280.52805280528054,157.67229910838108 L 282.1282128212821,150.1756721911232 z" /></g></g></g></g></svg>