<svg xmlns="http://www.w3.org/2000/svg" xmlns:xlink="http://www.w3.org/1999/xlink" width="267.3770648762584" height="500.0" viewBox="0.0 0.0 267.3770648762584 500.0" preserveAspectRatio="xMinYMin meet"><g transform="matrix(1,0,0,-1,0,500.0)"><g><g><path fill-rule="evenodd" fill="#D2EBD9" stroke="#A6A6A6" stroke-width="0.25" opacity="1" d="M 262.02898877112267,151.3151315131513 L 214.80547676277462,143.014301430143 L 210.55375625919177,140.8140814081408 L 201.5957287830895,132.8132813281328 L 205.60678586194126,129.86298629862986 L 206.11485309192915,129.2129212921292 L 205.95441080877507,127.46274627462745 L 192.26333597962773,104.56045604560455 L 189.05449031654632,101.4101410141014 L 184.58884676875803,98.25982598259826 L 174.26705988584615,92.8092809280928 L 163.16980196768964,83.85838583858386 L 147.6069005017448,60.106010601060106 L 148.67651572277194,48.55485548554855 L 159.02504298620948,11.451145114511451 L 159.50636983567168,12.2012201220122 L 163.14306158716394,20.65206520652065 L 178.73270343363447,27.45274527452745 L 184.42840448560395,42.5042504250425 L 190.4717304844073,48.104810481048105 L 197.5044505626607,49.404940494049406 L 206.99728564927653,47.15471547154715 L 218.36194737268985,48.65486548654865 L 222.72062939837542,48.3048304830483 L 228.14892664508815,49.7049704970497 L 236.19778118331735,56.005600560056 L 259.11428729382374,96.6096609660966 L 262.3766137179565,142.1142114211421 L 262.02898877112267,151.3151315131513 z" /><path fill-rule="evenodd" fill="#D2EBD9" stroke="#A6A6A6" stroke-width="0.25" opacity="1" d="M 245.77083741151023,356.43564356435644 L 239.6205498906042,348.6348634863486 L 237.80220401485806,344.3344334433443 L 238.2300501032689,342.68426842684266 L 239.03226151903925,319.18191819181914 L 238.76485771378248,316.93169316931693 L 237.64176173170398,316.2316231623162 L 233.60396427232655,312.08120812081205 L 232.45412790972236,311.08110811081104 L 231.19733002501548,310.58105810581054 L 228.87091691928146,310.4310431043104 L 228.06870550351113,310.18101810181014 L 225.2342251677892,307.73077307730773 L 222.37300445154162,304.8304830483048 L 221.59753341629693,304.38043804380436 L 220.0465913458076,304.5304530453045 L 218.9234953637291,304.3304330433043 L 217.63995709849652,304.9304930493049 L 212.53254441809196,301.3301330133013 L 191.407643802806,281.17811781178114 L 172.20805058536894,234.97349734973497 L 180.1499436014954,215.07150715071506 L 180.01624169886702,166.2166216621662 L 198.226440836854,154.26542654265427 L 201.9433537299233,150.8150815081508 L 201.48876726098678,148.9148914891489 L 201.54224802203814,148.1148114811481 L 203.14667085357885,143.014301430143 L 203.38733427830994,140.8140814081408 L 203.33385351725858,139.56395639563956 L 201.5957287830895,132.8132813281328 L 210.55375625919177,140.8140814081408 L 214.80547676277462,143.014301430143 L 262.02898877112267,151.3151315131513 L 260.3978255590563,188.2188218821882 L 267.3770648762584,230.47304730473047 L 261.84180610744295,232.67326732673266 L 257.2157202765006,236.5236523652365 L 252.13504797662168,238.37383738373836 L 259.83627756801707,270.82708270827084 L 257.99119131174524,313.28132813281326 L 247.4020006235766,353.985398539854 L 245.77083741151023,356.43564356435644 z" /><path fill-rule="evenodd" fill="#D2EBD9" stroke="#A6A6A6" stroke-width="0.25" opacity="1" d="M 44.30881053104912,499.0999099909991 L 54.229491706075805,455.1455145514551 L 57.25115470547746,449.99499949995 L 64.7652016331931,442.44424442444245 L 68.80299909257053,440.84408440844084 L 69.60521050834089,439.2939293929393 L 70.4609026851626,438.5438543854385 L 72.46643122458848,437.69376937693767 L 73.0547195961534,437.59375937593757 L 74.09759443665486,437.5437543754375 L 75.38113270188742,437.79377937793777 L 75.72875764872124,437.69376937693767 L 76.3972671618632,437.3437343734373 L 77.25295933868492,436.043604360436 L 77.7610265686728,435.8435843584358 L 78.83064178969994,423.34233423342334 L 78.16213227655798,389.78897889788976 L 79.15152635600808,382.9382938293829 L 86.45165023951829,376.88768876887684 L 87.89563078790492,371.18711871187116 L 90.59640922099844,348.48484848484844 L 92.8693415656811,338.58385838583854 L 107.17544514691905,324.28242824282427 L 111.18650222577081,321.68216821682165 L 116.53457833090648,319.28192819281924 L 123.11271194022338,319.9319931993199 L 127.60509586853735,321.38213821382135 L 132.17770093842836,323.7323732373237 L 133.40775844260955,323.98239823982397 L 134.77151784941915,323.68236823682366 L 146.40358337808925,318.53185318531854 L 150.46812121799238,317.13171317131713 L 153.99785144738192,316.3816381638164 L 157.3938797741431,315.981598159816 L 161.6990810387773,314.1314131413141 L 168.25047426756853,310.5310531053105 L 185.2573562819,296.7296729672967 L 191.407643802806,281.17811781178114 L 212.53254441809196,301.3301330133013 L 217.63995709849652,304.9304930493049 L 218.9234953637291,304.3304330433043 L 220.0465913458076,304.5304530453045 L 221.59753341629693,304.38043804380436 L 222.37300445154162,304.8304830483048 L 225.2342251677892,307.73077307730773 L 228.06870550351113,310.18101810181014 L 228.87091691928146,310.4310431043104 L 231.19733002501548,310.58105810581054 L 232.45412790972236,311.08110811081104 L 233.60396427232655,312.08120812081205 L 237.64176173170398,316.2316231623162 L 238.76485771378248,316.93169316931693 L 239.03226151903925,319.18191819181914 L 238.2300501032689,342.68426842684266 L 237.80220401485806,344.3344334433443 L 239.6205498906042,348.6348634863486 L 245.77083741151023,356.43564356435644 L 228.576772733499,381.3381338133813 L 222.34626407101592,392.3892389238924 L 211.27574653338507,411.1911191119112 L 204.1895456940803,428.89288928892887 L 202.1840171546544,436.7436743674367 L 146.80468908597445,458.7958795879588 L 132.95317197367302,456.045604560456 L 116.34739566722673,447.29472947294727 L 101.9075901833604,456.89568956895687 L 83.88457370905316,483.4483448344834 L 70.27372002148284,493.79937993799376 L 57.65226041336264,498.5998599859986 L 44.30881053104912,499.0999099909991 z" /><path fill-rule="evenodd" fill="#D2EBD9" stroke="#A6A6A6" stroke-width="0.25" opacity="1" d="M 5.481778007764073,379.2379237923792 L 9.171950520307693,383.63836383638363 L 10.482229166065935,384.53845384538454 L 12.969084554954026,383.93839383938393 L 14.680468908597444,384.13841384138414 L 15.616382226996189,383.988398839884 L 21.44578518159408,382.4882488248825 L 26.686899764627046,381.58815881588157 L 28.264582215642072,381.58815881588157 L 28.66568792352725,381.78817881788177 L 90.59640922099844,348.48484848484844 L 87.89563078790492,371.18711871187116 L 86.45165023951829,376.88768876887684 L 79.15152635600808,382.9382938293829 L 78.16213227655798,389.78897889788976 L 78.83064178969994,423.34233423342334 L 77.7610265686728,435.8435843584358 L 77.25295933868492,436.043604360436 L 76.3972671618632,437.3437343734373 L 75.72875764872124,437.69376937693767 L 75.38113270188742,437.79377937793777 L 74.09759443665486,437.5437543754375 L 73.0547195961534,437.59375937593757 L 72.46643122458848,437.69376937693767 L 70.4609026851626,438.5438543854385 L 69.60521050834089,439.2939293929393 L 68.80299909257053,440.84408440844084 L 64.7652016331931,442.44424442444245 L 57.25115470547746,449.99499949995 L 54.229491706075805,455.1455145514551 L 44.30881053104912,499.0999099909991 L 22.247996597364434,500.0 L 9.252171661884727,450.34503450345034 L 0.05348076105135681,436.7436743674367 L 8.637142909794125,435.9435943594359 L 22.14103507526172,430.993099309931 L 29.869005047182778,429.4929492949295 L 24.1465636146876,417.89178917891786 L 5.481778007764073,404.6904690469047 L 0.05348076105135681,397.18971897189715 L 0.0,386.3386338633863 L 4.545864689365329,380.08800880088006 L 5.481778007764073,379.2379237923792 z" /><path fill-rule="evenodd" fill="#D2EBD9" stroke="#A6A6A6" stroke-width="0.25" opacity="1" d="M 37.46327311647544,305.98059805980597 L 55.51302997130837,321.28212821282125 L 62.305086624830686,328.1828182818282 L 63.401442226383494,330.08300830083004 L 65.0058650579242,332.1332133213321 L 72.60013312721686,335.7835783578358 L 92.8693415656811,338.58385838583854 L 90.59640922099844,348.48484848484844 L 28.66568792352725,381.78817881788177 L 28.264582215642072,381.58815881588157 L 26.686899764627046,381.58815881588157 L 21.44578518159408,382.4882488248825 L 15.616382226996189,383.988398839884 L 14.680468908597444,384.13841384138414 L 12.969084554954026,383.93839383938393 L 10.482229166065935,384.53845384538454 L 9.171950520307693,383.63836383638363 L 5.481778007764073,379.2379237923792 L 10.669411829745684,374.43744374437443 L 15.295497660688048,365.53655365536554 L 16.338372501189504,337.43374337433744 L 18.79848750955192,323.4323432343234 L 26.045130632010768,317.3817381738174 L 32.222158533442474,313.58135813581356 L 37.46327311647544,305.98059805980597 z" /><path fill-rule="evenodd" fill="#D2EBD9" stroke="#A6A6A6" stroke-width="0.25" opacity="1" d="M 81.34423755911371,217.8217821782178 L 93.75177412302848,221.8221822182218 L 107.52307009375286,222.17221722172215 L 126.56222102803589,217.57175717571755 L 131.40222990318367,216.9216921692169 L 134.87847937152188,217.37173717371735 L 172.20805058536894,234.97349734973497 L 191.407643802806,281.17811781178114 L 185.2573562819,296.7296729672967 L 168.25047426756853,310.5310531053105 L 161.6990810387773,314.1314131413141 L 157.3938797741431,315.981598159816 L 153.99785144738192,316.3816381638164 L 150.46812121799238,317.13171317131713 L 146.40358337808925,318.53185318531854 L 134.77151784941915,323.68236823682366 L 133.40775844260955,323.98239823982397 L 132.17770093842836,323.7323732373237 L 127.60509586853735,321.38213821382135 L 123.11271194022338,319.9319931993199 L 116.53457833090648,319.28192819281924 L 111.18650222577081,321.68216821682165 L 107.17544514691905,324.28242824282427 L 92.8693415656811,338.58385838583854 L 72.60013312721686,335.7835783578358 L 65.0058650579242,332.1332133213321 L 63.401442226383494,330.08300830083004 L 62.305086624830686,328.1828182818282 L 55.51302997130837,321.28212821282125 L 37.46327311647544,305.98059805980597 L 38.66659024013097,304.28042804280426 L 43.667041398432836,292.47924792479245 L 45.806271840487106,281.47814781478144 L 49.897550060915904,271.87718771877184 L 75.54157498504149,246.27462746274625 L 79.04456483390537,236.1236123612361 L 81.34423755911371,217.8217821782178 z" /><path fill-rule="evenodd" fill="#D2EBD9" stroke="#A6A6A6" stroke-width="0.25" opacity="1" d="M 106.34649335062302,129.2129212921292 L 121.66873139183674,128.36283628362835 L 122.3372409049787,128.4128412841284 L 124.44973096650729,129.012901290129 L 125.51934618753444,129.012901290129 L 126.48199988645885,128.76287628762876 L 128.11316309852523,129.2129212921292 L 129.7710666911173,130.66306630663067 L 130.81394153161875,132.46324632463245 L 133.27405653998116,140.6140614061406 L 133.9960468141745,142.36423642364235 L 180.01624169886702,166.2166216621662 L 180.1499436014954,215.07150715071506 L 172.20805058536894,234.97349734973497 L 134.87847937152188,217.37173717371735 L 131.40222990318367,216.9216921692169 L 126.56222102803589,217.57175717571755 L 107.52307009375286,222.17221722172215 L 93.75177412302848,221.8221822182218 L 81.34423755911371,217.8217821782178 L 81.7186028864732,214.9214921492149 L 83.88457370905316,206.72067206720672 L 99.68813859972909,172.71727172717272 L 104.76881089960798,151.8151815181518 L 106.34649335062302,129.2129212921292 z" /><path fill-rule="evenodd" fill="#D2EBD9" stroke="#A6A6A6" stroke-width="0.25" opacity="1" d="M 129.129297558501,67.70677067706771 L 147.6069005017448,60.106010601060106 L 163.16980196768964,83.85838583858386 L 174.26705988584615,92.8092809280928 L 184.58884676875803,98.25982598259826 L 189.05449031654632,101.4101410141014 L 192.26333597962773,104.56045604560455 L 205.95441080877507,127.46274627462745 L 206.11485309192915,129.2129212921292 L 205.60678586194126,129.86298629862986 L 201.5957287830895,132.8132813281328 L 203.33385351725858,139.56395639563956 L 203.38733427830994,140.8140814081408 L 203.14667085357885,143.014301430143 L 201.54224802203814,148.1148114811481 L 201.48876726098678,148.9148914891489 L 201.9433537299233,150.8150815081508 L 198.226440836854,154.26542654265427 L 180.01624169886702,166.2166216621662 L 133.9960468141745,142.36423642364235 L 133.27405653998116,140.6140614061406 L 130.81394153161875,132.46324632463245 L 129.7710666911173,130.66306630663067 L 128.11316309852523,129.2129212921292 L 126.48199988645885,128.76287628762876 L 125.51934618753444,129.012901290129 L 124.44973096650729,129.012901290129 L 122.3372409049787,128.4128412841284 L 121.66873139183674,128.36283628362835 L 106.34649335062302,129.2129212921292 L 106.77433943903387,123.16231623162315 L 109.31467558897332,109.26092609260925 L 123.43359650653152,92.75927592759275 L 129.55714364691187,79.65796579657966 L 129.02233603639831,74.70747074707471 L 129.129297558501,67.70677067706771 z" /><path fill-rule="evenodd" fill="#D2EBD9" stroke="#A6A6A6" stroke-width="0.25" opacity="1" d="M 129.55714364691187,40.954095409540955 L 129.5036628858605,39.45394539453945 L 148.67651572277194,48.55485548554855 L 147.6069005017448,60.106010601060106 L 129.129297558501,67.70677067706771 L 129.55714364691187,40.954095409540955 z" /><path fill-rule="evenodd" fill="#D2EBD9" stroke="#A6A6A6" stroke-width="0.25" opacity="1" d="M 159.02504298620948,11.451145114511451 L 148.67651572277194,48.55485548554855 L 129.5036628858605,39.45394539453945 L 129.55714364691187,40.954095409540955 L 125.84023075384258,12.75127512751275 L 128.11316309852523,3.5003500350035 L 140.62766118454272,0.0 L 154.158293730536,3.85038503850385 L 159.02504298620948,11.451145114511451 z" /></g></g></g></svg>