<svg xmlns="http://www.w3.org/2000/svg" xmlns:xlink="http://www.w3.org/1999/xlink" width="500.0" height="343.13156557269394" viewBox="0.0 0.0 500.0 343.13156557269394" preserveAspectRatio="xMinYMin meet"><g transform="matrix(1,0,0,-1,0,343.13156557269394)"><g><g><path fill-rule="evenodd" fill="#D2EBD9" stroke="#A6A6A6" stroke-width="0.25" opacity="1" d="M 35.85358535853585,301.4712274783594 L 37.353735373537354,301.05942841976633 L 50.555055505550555,295.4658245405435 L 64.85648564856486,297.2159705395642 L 68.25682568256825,296.2551060695136 L 70.3070307030703,292.4802813657436 L 75.45754575457545,289.0486225441345 L 81.05810581058105,286.4062452514955 L 82.85828582858285,288.7054566619736 L 85.2085208520852,286.95531066295297 L 89.30893089308931,285.41106419322887 L 93.70937093709371,285.78854666360587 L 96.35963596359636,287.1268936040334 L 99.25992599259925,287.5043760744104 L 103.51035103510351,285.03358172285186 L 107.76077607760776,284.6217826642588 L 109.8109810981098,286.0287627811185 L 112.16121612161216,285.2394812521484 L 113.7113711371137,290.1810699552655 L 112.86128612861286,295.4315079523274 L 113.7113711371137,298.5200008917756 L 117.01170117011701,298.1768350096147 L 116.26162616261625,307.716846533688 L 117.46174617461746,312.04073664891547 L 118.96189618961895,316.29599358771077 L 114.91149114911491,317.90887323386704 L 110.66106610661066,319.1442704096463 L 107.96079607960796,323.33089417200944 L 107.06070607060705,328.2381662869104 L 100.76007600760076,328.3754326397748 L 98.80988098809881,329.2676639333932 L 96.05960596059606,331.29234263814254 L 92.45924592459245,329.8853625212828 L 88.65886588658866,330.6403274620368 L 75.65756575657565,337.4006953406067 L 72.15721572157216,338.6704091046021 L 68.6068606860686,339.1851579278435 L 54.65546554655465,338.12134369314464 L 54.155415541554156,337.8124943991998 L 53.25532553255325,336.4398308705562 L 52.755275527552755,336.13098157661136 L 51.755175517551756,336.3025645176918 L 50.1050105010501,337.0575294584458 L 49.054905490549054,337.2291123995263 L 47.3047304730473,336.74868016450097 L 46.6046604660466,335.61623275337 L 46.754675467546754,334.00335310721374 L 47.65476547654765,332.1845739317609 L 46.1046104610461,330.74327722668505 L 44.95449544954495,330.1942118152276 L 43.7043704370437,329.8853625212828 L 42.104210421042104,329.2333473451771 L 41.3041304130413,328.5126989926392 L 39.803980398039805,326.65960322897024 L 38.85388538853885,326.28212075859324 L 37.353735373537354,326.3164373468093 L 36.65366536653665,326.179170993945 L 36.053605360536054,325.7330553471358 L 33.903390339033905,323.3652107602255 L 32.45324532453245,321.1003159379635 L 32.9032903290329,319.5560694682394 L 36.55365536553655,319.38448652715897 L 36.4036403640364,316.8793755873843 L 38.8038803880388,311.28577170816146 L 39.3039303930393,308.4374948862259 L 36.9036903690369,309.7072086502213 L 34.3034303430343,310.29059064989485 L 35.5035503550355,306.3098664168283 L 35.95359535953595,303.73612230062145 L 35.85358535853585,301.4712274783594 z" /><path fill-rule="evenodd" fill="#D2EBD9" stroke="#A6A6A6" stroke-width="0.25" opacity="1" d="M 35.85358535853585,301.4712274783594 L 35.6035603560356,297.66208618637336 L 36.253625362536255,294.4020103058447 L 40.00400040004,285.3767476050128 L 41.65416541654165,274.1209066701349 L 41.55415541554155,267.6693880855098 L 40.00400040004,264.3749956167651 L 39.25392539253925,263.5513974995789 L 37.55375537553755,259.15887420791927 L 36.253625362536255,258.1293765614365 L 32.603260326032604,256.036064680255 L 31.703170317031702,255.1438333866366 L 32.35323532353235,252.26123997648494 L 34.8034803480348,248.82958115487585 L 39.853985398539855,243.64777633424612 L 48.65486548654865,239.35820280723473 L 50.9050905090509,241.52014786484847 L 53.65536553655365,243.2016606874369 L 56.505650565056506,244.26547492213575 L 57.505750575057505,246.87353562655866 L 59.2059205920592,248.89821433130803 L 65.75657565756575,246.87353562655866 L 68.5068506850685,248.58936503736322 L 70.85708570857085,251.02584280070568 L 68.55685568556855,253.53095374048033 L 67.2067206720672,256.6537632681446 L 73.85738573857385,259.60498985472844 L 75.5075507550755,268.76751890842473 L 76.5076507650765,271.7873786714407 L 76.2076207620762,275.0474545519694 L 77.9077907790779,281.15580725443357 L 81.05810581058105,286.4062452514955 L 75.45754575457545,289.0486225441345 L 70.3070307030703,292.4802813657436 L 68.25682568256825,296.2551060695136 L 64.85648564856486,297.2159705395642 L 50.555055505550555,295.4658245405435 L 37.353735373537354,301.05942841976633 L 35.85358535853585,301.4712274783594 z" /><path fill-rule="evenodd" fill="#D2EBD9" stroke="#A6A6A6" stroke-width="0.25" opacity="1" d="M 48.65486548654865,239.35820280723473 L 50.355035503550354,238.53460469004855 L 49.75497549754975,229.9554576360258 L 49.054905490549054,227.48466328446725 L 47.3047304730473,224.9452357564765 L 42.7042704270427,221.61652669951567 L 40.65406540654065,219.76343093584677 L 36.6036603660366,214.06687729197566 L 30.7030703070307,207.51240894270228 L 28.95289528952895,206.41427811978738 L 21.95219521952195,204.52686576790236 L 19.6019601960196,202.94830270996218 L 20.00200020002,200.44319177018752 L 22.45224522452245,200.82067424056453 L 25.852585258525853,201.98743823991163 L 29.002900290029,201.88448847526337 L 30.25302530253025,200.85499082878064 L 32.15321532153215,196.8056334192819 L 33.4033403340334,195.33002012599 L 36.5036503650365,192.48174330405442 L 37.55375537553755,191.17771295184298 L 38.3038303830383,188.53533565920395 L 38.4038403840384,182.7015156624685 L 39.5039503950395,177.07359519502955 L 39.3039303930393,174.36258472595838 L 38.653865386538655,171.72020743331936 L 37.7037703770377,169.318046258193 L 36.103610361036104,166.6413523773379 L 34.2034203420342,165.06278931939772 L 30.553055305530552,162.7978944971357 L 38.1038103810381,161.90566320351735 L 47.25472547254725,160.46436649844154 L 55.95559555955595,159.7780347341197 L 64.5064506450645,157.9249389704508 L 66.4066406640664,162.4890452031909 L 64.85648564856486,166.5727192009057 L 61.206120612061206,167.430633906308 L 58.655865586558654,170.14164437537917 L 58.655865586558654,173.64193637342046 L 57.705770577057706,176.9363288421652 L 54.95549554955495,179.37280660550766 L 51.85518551855185,181.36316872204094 L 53.5053505350535,188.3637527181235 L 51.15511551155115,191.34929589292344 L 52.3052305230523,199.10484482976 L 55.65556555655565,206.277011766923 L 58.655865586558654,209.0223388242103 L 62.506250625062506,209.3998212945873 L 66.7066706670667,210.63521847036657 L 68.8068806880688,215.19932470310667 L 70.4070407040704,221.30767740557087 L 73.15731573157315,226.4894822262006 L 77.75777577757775,225.7688338736627 L 82.05820582058206,223.16077316923977 L 87.2087208720872,223.43530587496852 L 91.45914591459146,226.72969834371324 L 91.75917591759175,231.156538223589 L 92.7092709270927,235.51474492703255 L 80.65806580658065,241.7603639823611 L 76.45764576457645,247.38828444980004 L 70.85708570857085,251.02584280070568 L 68.5068506850685,248.58936503736322 L 65.75657565756575,246.87353562655866 L 59.2059205920592,248.89821433130803 L 57.505750575057505,246.87353562655866 L 56.505650565056506,244.26547492213575 L 53.65536553655365,243.2016606874369 L 50.9050905090509,241.52014786484847 L 48.65486548654865,239.35820280723473 z" /><path fill-rule="evenodd" fill="#D2EBD9" stroke="#A6A6A6" stroke-width="0.25" opacity="1" d="M 30.553055305530552,162.7978944971357 L 29.252925292529252,162.0086129681656 L 27.4027402740274,159.91530108698407 L 24.602460246024602,155.14529532494743 L 22.852285228522852,153.22356638484632 L 17.6017601760176,151.4391037976096 L 7.4007400740074,153.32651614949458 L 2.35023502350235,152.26270191479577 L 0.0,150.47823932755904 L 1.2001200120012,148.14471132886484 L 13.501350135013501,135.51620686534338 L 14.351435143514351,134.14354333669974 L 14.701470147014701,131.981598279086 L 14.001400140014,131.226633338332 L 12.95129512951295,130.64325133865844 L 12.45124512451245,129.06468828071826 L 13.25132513251325,126.42231098807925 L 15.301530153015301,125.28986357694825 L 20.6020602060206,123.9515166365207 L 21.75217521752175,122.92201899003797 L 23.8023802380238,119.86784263880587 L 24.9024902490249,118.5981288748105 L 30.053005300530053,115.1664700532014 L 37.353735373537354,112.42114299591412 L 39.25392539253925,111.11711264370267 L 40.804080408040804,109.60718276219465 L 39.15391539153915,106.69027276382693 L 50.65506550655065,100.20443759098572 L 62.256225622562255,94.47356735889852 L 67.2067206720672,93.23817018311925 L 71.9071907190719,91.31644124301816 L 75.8075807580758,87.64456630389641 L 79.85798579857985,84.2472240705034 L 80.45804580458045,88.0906819507056 L 82.9082908290829,90.7673758315607 L 86.35863586358636,89.84082794972625 L 89.5089508950895,90.25262700831934 L 87.35873587358735,98.07680912158808 L 85.35853585358535,106.27847370523384 L 91.35913591359136,107.58250405744529 L 98.20982098209821,105.2489760587511 L 105.41054105410541,107.1707049988522 L 109.9109910991099,113.17610793666812 L 105.010501050105,112.83294205450721 L 101.21012101210121,115.99006817038759 L 97.7097709770977,122.61316969609315 L 91.20912091209121,123.02496875468624 L 86.008600860086,120.96597346172078 L 80.7080708070807,122.30432040214833 L 75.8075807580758,125.32418016516434 L 70.6070607060706,127.69202475207462 L 56.65566556655665,133.18267886664918 L 52.855285528552855,145.6739169773063 L 54.4054405440544,148.6937767403223 L 55.305530553055306,151.91953603263485 L 55.105510551055104,153.7383152080877 L 55.75557555755575,155.31687826602789 L 60.106010601060106,156.7238583828876 L 64.5064506450645,157.9249389704508 L 55.95559555955595,159.7780347341197 L 47.25472547254725,160.46436649844154 L 38.1038103810381,161.90566320351735 L 30.553055305530552,162.7978944971357 z" /><g><path fill-rule="evenodd" fill="#D2EBD9" stroke="#A6A6A6" stroke-width="0.25" opacity="1" d="M 39.15391539153915,106.69027276382693 L 33.1033103310331,96.29234653435135 L 32.003200320032,93.61565265349626 L 31.653165316531652,90.80169241977678 L 31.853185318531853,89.42902889113314 L 33.3033303330333,85.34535489341832 L 33.65336533653365,83.73247524726204 L 33.55335533553355,81.36463066035176 L 33.853385338533855,77.21232348620475 L 33.35333533353335,74.7415291346462 L 31.753175317531753,70.41763901941873 L 39.3039303930393,67.53504560926709 L 44.3044304430443,63.41705502333617 L 46.65466546654665,60.6374113778328 L 47.65476547654765,58.166617026274245 L 46.754675467546754,52.74459608813187 L 46.854685468546855,51.02876667732732 L 47.15471547154715,50.20516856014113 L 48.6048604860486,47.97459032609522 L 50.7050705070507,43.89091632838039 L 51.25512551255125,41.72897127076666 L 51.455145514551454,38.674794919534556 L 50.555055505550555,36.85601574408174 L 46.2046204620462,32.32622609955772 L 44.9044904490449,31.331045041291084 L 49.55495549554955,30.16428104194399 L 60.4060406040604,31.639894335235905 L 64.95649564956496,29.85543174799917 L 67.2067206720672,27.38463739644062 L 76.55765576557656,11.942172699199668 L 77.9077907790779,10.775408699852575 L 77.95779577957795,10.192026700179028 L 79.1079107910791,9.093895877264115 L 80.5080508050805,8.441880701158386 L 86.1086108610861,16.334695990859316 L 87.5087508750875,18.94275669528223 L 92.1092109210921,32.32622609955772 L 93.75937593759376,34.728387274684096 L 94.25942594259425,35.75788492116682 L 95.15951595159515,38.606161743102376 L 95.65956595659566,39.189543742775925 L 96.7096709670967,39.39544327207247 L 97.6097609760976,40.013141859962104 L 98.30983098309831,40.90537315358047 L 98.85988598859885,42.10645374114366 L 97.9097909790979,42.10645374114366 L 98.65986598659866,42.93005185832984 L 98.85988598859885,43.95954950481257 L 99.009900990099,43.8565997401643 L 98.9098909890989,49.75905291333195 L 96.7096709670967,54.76927479288124 L 92.65926592659265,54.94085773396169 L 89.20892089208921,54.117259616775506 L 82.5082508250825,59.64223031956616 L 79.60796079607961,66.95166360959354 L 80.55805580558055,68.22137737358891 L 83.3083308330833,69.28519160828773 L 84.05840584058406,70.79512148979573 L 84.30843084308431,73.36886560600256 L 84.00840084008401,81.81074630716094 L 79.85798579857985,84.2472240705034 L 75.8075807580758,87.64456630389641 L 71.9071907190719,91.31644124301816 L 67.2067206720672,93.23817018311925 L 62.256225622562255,94.47356735889852 L 50.65506550655065,100.20443759098572 L 39.15391539153915,106.69027276382693 z" /><path fill-rule="evenodd" fill="#D2EBD9" stroke="#A6A6A6" stroke-width="0.25" opacity="1" d="M 65.9065906590659,0.0 L 68.25682568256825,0.823598117186184 L 71.6071607160716,4.289573527011375 L 73.7073707370737,4.941588703117104 L 70.25702570257026,8.27029776007793 L 68.3068306830683,9.711594465153754 L 66.4066406640664,10.775408699852575 L 64.85648564856486,7.927131877917021 L 63.606360636063606,4.358206703443557 L 63.656365636563656,1.304030352211458 L 65.9065906590659,0.0 z" /></g><g><path fill-rule="evenodd" fill="#D2EBD9" stroke="#A6A6A6" stroke-width="0.25" opacity="1" d="M 454.4454445444544,89.01722983254005 L 448.0948094809481,89.87514453794233 L 446.5446544654465,90.4242099493998 L 444.49444944494445,91.8998232426917 L 442.14421442144214,93.06658724203879 L 439.74397439743973,93.51270288884798 L 437.7437743774377,92.92932088917443 L 438.9438943894389,89.39471230291706 L 441.14411441144114,85.55125442271486 L 444.5444544454445,82.46276148326668 L 449.2949294929493,81.1930477192713 L 451.5951595159516,81.50189701321612 L 455.79557955795576,82.87456054185976 L 458.2458245824582,83.1490932475885 L 460.4960496049605,82.7029776007793 L 464.89648964896486,80.67829889602994 L 466.9466946694669,80.23218324922077 L 467.1967196719672,81.36463066035176 L 466.19661966196617,83.93837477655859 L 464.69646964696466,86.71801842206196 L 463.29632963296325,88.57111418573088 L 461.44614461446145,89.2231293618366 L 454.4454445444544,89.01722983254005 z" /><path fill-rule="evenodd" fill="#D2EBD9" stroke="#A6A6A6" stroke-width="0.25" opacity="1" d="M 437.99379937993797,205.144564355792 L 435.4435443544354,201.85017188704728 L 431.5931593159316,198.79599553581517 L 431.64316431643164,196.87426659571406 L 430.8930893089309,195.29570353777387 L 429.8429842984298,189.25598401174187 L 433.5433543354335,182.2210834274432 L 430.6930693069307,174.08805202022964 L 423.74237423742375,168.5287647292229 L 420.1420142014201,167.97969931776544 L 417.09170917091706,166.16092014231262 L 416.59165916591655,163.03811061464836 L 417.59175917591756,160.05256743984842 L 419.8419841984198,154.90507920743477 L 422.4922492249225,150.13507344539812 L 425.89258925892585,147.04658050594995 L 428.7428742874287,143.47765533147648 L 428.89288928892887,138.98218227516855 L 427.042704270427,134.86419168923763 L 424.6424642464246,128.34403992818034 L 422.24222422242224,122.54453651966097 L 424.99249924992495,121.37777252031387 L 429.2429242924292,118.39222934551395 L 433.24332433243325,113.75948993634167 L 437.7437743774377,107.03343864598783 L 441.04410441044104,100.10148782633745 L 441.3941394139414,94.88536641749162 L 443.69436943694365,94.06176830030543 L 455.19551955195516,94.9539995939238 L 456.7456745674567,95.50306500538126 L 457.4957495749575,96.97867829867317 L 459.5959595959596,105.31760923518328 L 460.64606460646064,107.89135335139011 L 462.29622962296224,110.15624817365212 L 463.49634963496345,112.93589181915549 L 462.7462746274627,115.64690228822667 L 462.39623962396234,117.94611369870478 L 464.6464646464646,119.45604358021278 L 466.59665966596657,118.87266158053923 L 471.99719971997195,115.33805299428185 L 474.4474447444744,114.48013828887959 L 477.6977697769777,114.48013828887959 L 480.4980498049805,114.82330417104049 L 482.7482748274827,115.99006817038759 L 484.29842984298426,118.39222934551395 L 484.5484548454845,119.83352605058978 L 484.29842984298426,124.80943134192297 L 484.69846984698466,126.14777828235052 L 486.4986498649865,127.89792428137116 L 499.24992499249925,147.38974638811084 L 500.0,153.01766685554978 L 496.2496249624962,158.74853708763698 L 488.4988498849885,163.48422626145754 L 482.3482348234823,169.42099602284128 L 481.49814981498145,170.00437802251483 L 479.7979797979798,170.75934296326884 L 473.9473947394739,174.87733354919973 L 465.7465746574657,181.1229526045283 L 459.94599459945994,188.22648636525915 L 444.1444144414441,202.94830270996218 L 442.74427442744275,203.46305153320355 L 440.34403440344033,203.6689510625001 L 437.99379937993797,205.144564355792 z" /></g><path fill-rule="evenodd" fill="#D2EBD9" stroke="#A6A6A6" stroke-width="0.25" opacity="1" d="M 380.03800380038,211.04701752895966 L 379.3379337933793,202.63945341601737 L 383.0883088308831,195.87908553744742 L 371.88718871887187,198.52146283008645 L 364.1864186418642,197.1487993014428 L 369.036903690369,187.1626721305603 L 376.8376837683768,179.02964072334674 L 378.9378937893789,173.26445390304346 L 378.3378337833783,167.15610120057926 L 375.987598759876,161.6997636742208 L 374.3874387438744,156.41500908894278 L 377.98779877987795,153.97853132560033 L 380.28802880288026,154.18443085489687 L 382.4882488248825,153.56673226700724 L 385.7885788578858,149.92917391610158 L 389.68896889688966,147.08089709416603 L 393.93939393939394,147.69859568205567 L 397.9397939793979,147.28679662346258 L 396.2396239623962,140.2518960391639 L 403.04030403040304,144.47283638974312 L 408.2408240824082,151.13025450366476 L 411.64116411641163,157.75335602937034 L 417.59175917591756,160.05256743984842 L 416.59165916591655,163.03811061464836 L 417.09170917091706,166.16092014231262 L 420.1420142014201,167.97969931776544 L 423.74237423742375,168.5287647292229 L 430.6930693069307,174.08805202022964 L 433.5433543354335,182.2210834274432 L 429.8429842984298,189.25598401174187 L 430.8930893089309,195.29570353777387 L 431.64316431643164,196.87426659571406 L 431.5931593159316,198.79599553581517 L 435.4435443544354,201.85017188704728 L 437.99379937993797,205.144564355792 L 436.5436543654365,205.76226294368163 L 433.49334933493344,205.86521270832992 L 428.39283928392837,206.86039376659656 L 425.59255925592555,207.8555748248632 L 425.042504250425,208.33600705988846 L 424.9424942494249,209.3998212945873 L 424.69246924692465,209.8116203531804 L 422.3922392239224,211.04701752895966 L 419.8419841984198,211.97356541079412 L 417.041704170417,212.55694741046767 L 412.14121412141213,212.7971635279803 L 411.5911591159116,212.76284693976422 L 409.7409740974097,210.70385164679874 L 408.59085908590856,210.29205258820565 L 407.39073907390735,210.25773599998956 L 406.89068906890685,209.98320329426085 L 407.89078907890786,208.81643929491375 L 406.3406340634063,207.68399188378274 L 403.04030403040304,206.13974541405864 L 401.3901390139014,204.80139847363108 L 400.49004900490047,206.34564494335518 L 398.7398739873987,207.13492647232528 L 396.68966896689665,207.7526250602149 L 394.83948394839484,208.81643929491375 L 391.989198919892,213.4834952923021 L 389.8389838983898,215.4052242324032 L 387.4387438743874,214.7188924680814 L 387.4387438743874,213.31191235122165 L 389.1389138913891,212.28241470473893 L 389.98899889988996,211.2529170582562 L 387.4387438743874,209.8116203531804 L 385.2885288528853,209.64003741209993 L 380.03800380038,211.04701752895966 z" /><path fill-rule="evenodd" fill="#D2EBD9" stroke="#A6A6A6" stroke-width="0.25" opacity="1" d="M 324.48244824482447,222.6803409342145 L 324.38243824382437,221.6508432877318 L 324.78247824782477,217.80738540752958 L 323.98239823982397,213.41486211586994 L 322.18221822182215,209.3311881181551 L 328.43284328432844,203.70326765071619 L 342.98429842984297,196.3595177724727 L 349.6349634963496,192.72195942156705 L 354.5854585458546,192.06994424546133 L 357.0857085708571,189.5305167174706 L 351.68516851685166,185.99590813121324 L 348.88488848884884,183.0446815446294 L 346.43464346434644,179.71597248766858 L 346.43464346434644,174.7400671963354 L 348.88488848884884,170.1759609635953 L 349.6349634963496,164.23919120221154 L 350.58505850585055,158.40537120547606 L 356.7856785678568,148.93399285783494 L 360.7360736073607,139.46261451019382 L 364.63646364636463,144.02672074293395 L 367.5367536753675,147.83586203492004 L 369.7369736973697,153.15493320841415 L 374.3874387438744,156.41500908894278 L 375.987598759876,161.6997636742208 L 378.3378337833783,167.15610120057926 L 378.9378937893789,173.26445390304346 L 376.8376837683768,179.02964072334674 L 369.036903690369,187.1626721305603 L 364.1864186418642,197.1487993014428 L 371.88718871887187,198.52146283008645 L 383.0883088308831,195.87908553744742 L 379.3379337933793,202.63945341601737 L 380.03800380038,211.04701752895966 L 367.4367436743674,214.47867635056875 L 362.78627862786277,215.0620583502423 L 360.4360436043604,215.67975693813193 L 358.1358135813581,217.42990293715258 L 356.2856285628563,221.85674281702833 L 353.8853885388539,223.64120540426507 L 351.78517851785176,224.01868787464207 L 344.5344534453445,223.64120540426507 L 344.5344534453445,222.64602434599843 L 346.03460346034603,222.44012481670188 L 347.33473347334734,221.9596925816766 L 349.2349234923492,220.58702905303295 L 345.8845884588459,220.20954658265595 L 339.48394839483944,222.7146575224306 L 336.23362336233623,221.6508432877318 L 333.6333633363336,222.6117077577823 L 326.1826182618262,221.47926034665133 L 324.48244824482447,222.6803409342145 z" /><path fill-rule="evenodd" fill="#D2EBD9" stroke="#A6A6A6" stroke-width="0.25" opacity="1" d="M 304.030403040304,251.6435413885953 L 303.7303730373037,250.9228930360574 L 303.2303230323032,247.04511856763912 L 301.98019801980195,243.47619339316566 L 301.1301130113011,239.9072682186922 L 302.030203020302,236.5099259852992 L 308.6808680868087,239.70136868939565 L 316.8816881688169,237.71100657286237 L 316.8816881688169,233.83323210444408 L 311.1311131113111,229.9897742242419 L 309.33093309330934,227.6905628137638 L 308.83088308830884,223.19508975745586 L 306.1306130613061,220.62134564124904 L 313.9313931393139,214.7188924680814 L 318.23182318231824,212.28241470473893 L 322.18221822182215,209.3311881181551 L 323.98239823982397,213.41486211586994 L 324.78247824782477,217.80738540752958 L 324.38243824382437,221.6508432877318 L 324.48244824482447,222.6803409342145 L 323.18231823182316,223.64120540426507 L 322.78227822782276,225.8031504618788 L 323.78237823782376,231.67128704683034 L 324.2324232423242,238.50028810183247 L 324.98249824982497,240.42201704193354 L 326.93269326932693,240.971082453391 L 344.2344234423442,238.80913739577727 L 349.28492849284925,236.26970986778653 L 352.035203520352,235.48042833881644 L 363.6863686368637,236.4069762206509 L 374.33743374337433,234.41661410411763 L 377.3377337733773,235.17157904487163 L 379.68796879687966,236.8874084556762 L 381.28812881288127,239.22093645437036 L 381.8381838183818,241.8289971587933 L 383.0883088308831,244.29979151035184 L 385.53855385538554,246.56468633261383 L 387.28872887288725,249.0354806841724 L 386.48864886488644,252.19260680005277 L 384.03840384038403,250.9228930360574 L 381.038103810381,250.1336115070873 L 377.98779877987795,250.1336115070873 L 375.2875287528753,251.12879256535396 L 377.28772877287724,255.21246656306877 L 378.3378337833783,258.64412538467786 L 377.38773877387735,260.2913216190502 L 373.4373437343734,259.09024103148704 L 367.2367236723672,255.65858220987795 L 364.7864786478648,253.35937079939987 L 363.2363236323632,250.23656127173558 L 360.88608860886086,251.91807409432403 L 353.035303530353,255.1438333866366 L 351.5351535153515,254.21728550480213 L 350.58505850585055,253.94275279907342 L 349.9349934993499,255.48699926879752 L 349.38493849384935,255.9331149156067 L 348.68486848684864,256.10469785668715 L 346.43464346434644,255.96743150382278 L 343.18431843184317,255.1438333866366 L 341.38413841384136,255.4526826805814 L 338.48384838483844,256.89397938565725 L 337.0837083708371,257.2028286796021 L 335.5335533553355,256.85966279744116 L 331.5331533153315,254.14865232836996 L 328.7328732873287,253.01620491723895 L 326.032603260326,252.4328229175654 L 319.9319931993199,252.19260680005277 L 317.23172317231723,251.7464911532436 L 311.9311931193119,249.68749586027812 L 309.1809180918092,249.24138021346894 L 304.5304530453045,251.12879256535396 L 304.030403040304,251.6435413885953 z" /><path fill-rule="evenodd" fill="#D2EBD9" stroke="#A6A6A6" stroke-width="0.25" opacity="1" d="M 260.22602260226023,299.6867648911227 L 260.2760276027603,298.82885018572046 L 257.77577757775776,291.3135173663965 L 251.07510751075105,287.40142630976214 L 247.87478747874786,287.60732583905866 L 244.97449744974497,287.43574289797823 L 244.17441744174417,283.7295513706404 L 243.77437743774377,279.61156078470947 L 248.57485748574857,276.66033419812567 L 253.17531753175317,273.5375246704614 L 254.77547754775478,268.97341843772125 L 255.17551755175515,264.0318297346042 L 256.87568756875686,257.95779362035603 L 261.5761576157616,254.49181821053085 L 265.7265726572657,253.9770693872895 L 267.57675767576757,250.61404374211259 L 274.17741774177415,245.02043986288976 L 283.47834783478345,242.65259527597948 L 292.6292629262926,238.328705160752 L 302.030203020302,236.5099259852992 L 301.1301130113011,239.9072682186922 L 301.98019801980195,243.47619339316566 L 303.2303230323032,247.04511856763912 L 303.7303730373037,250.9228930360574 L 304.030403040304,251.6435413885953 L 299.9799979998,255.62426562166186 L 290.9290929092909,269.2136345552339 L 290.02900290029004,271.512845965712 L 289.72897289728974,274.36112278764756 L 289.72897289728974,280.94990772513705 L 288.72887288728873,283.48933525312776 L 285.97859785978596,284.65609925247486 L 288.2288228822882,292.5832311303919 L 288.3288328832883,296.2207894812975 L 286.8286828682868,299.58381512647446 L 282.2282228222822,304.52540382959154 L 280.12801280128014,305.7264844171547 L 278.4778477847785,305.9323839464513 L 274.77747774777475,305.5892180642904 L 267.27672767276727,305.69216782893864 L 264.67646764676465,304.49108724137545 L 260.22602260226023,299.6867648911227 z" /><path fill-rule="evenodd" fill="#D2EBD9" stroke="#A6A6A6" stroke-width="0.25" opacity="1" d="M 222.37223722372235,310.8739726495684 L 220.92209220922092,306.79029865185356 L 218.87188718871886,302.94684077165135 L 216.62166216621662,302.22619241911343 L 214.17141714171416,302.22619241911343 L 211.77117711771177,301.57417724300774 L 209.3209320932093,301.2653279490629 L 207.6207620762076,301.677127007656 L 205.87058705870587,301.7114435958721 L 203.7203720372037,299.7553980675549 L 202.7202720272027,296.90712124561935 L 201.62016201620162,289.2545220734311 L 198.56985698569855,282.5627873712933 L 198.019801980198,279.64587737292555 L 195.96959695969596,277.34666596244745 L 194.1194119411941,274.2581730229993 L 193.36933693369335,270.65493126030975 L 193.7193719371937,267.39485537978106 L 193.7193719371937,264.2034126756846 L 189.6189618961896,261.0806031480203 L 192.81928192819282,258.64412538467786 L 197.11971197119712,258.2323263260848 L 200.17001700170016,259.43340691364796 L 202.97029702970295,260.01678891332153 L 205.67056705670566,253.15347127010332 L 209.5209520952095,253.87411962264122 L 212.4212421242124,262.31600032379964 L 212.97129712971295,270.4147151427971 L 212.9212921292129,280.02335984330256 L 217.4217421742174,285.65128031074147 L 219.92199219921991,284.72473242890703 L 222.17221722172215,283.6266016059921 L 223.77237723772376,279.78314372578996 L 226.97269726972695,281.97940537161975 L 229.77297729772977,286.06307936933456 L 233.8233823382338,288.43092395624484 L 237.77377737773776,284.9306319582036 L 240.87408740874085,279.8517769022221 L 242.3242324232423,279.8860934904382 L 243.77437743774377,279.61156078470947 L 244.17441744174417,283.7295513706404 L 244.97449744974497,287.43574289797823 L 247.87478747874786,287.60732583905866 L 251.07510751075105,287.40142630976214 L 257.77577757775776,291.3135173663965 L 260.2760276027603,298.82885018572046 L 260.22602260226023,299.6867648911227 L 258.5258525852585,298.1425184213986 L 257.17571757175716,297.6277695981573 L 255.1255125512551,297.5934530099412 L 246.024602460246,299.3779155971779 L 241.024102410241,301.19669477263074 L 234.82348234823482,301.8487099487364 L 232.07320732073205,302.70662465413875 L 229.57295729572957,303.9763384181341 L 227.3227322732273,305.5892180642904 L 222.37223722372235,310.8739726495684 z" /><path fill-rule="evenodd" fill="#D2EBD9" stroke="#A6A6A6" stroke-width="0.25" opacity="1" d="M 107.06070607060705,328.2381662869104 L 107.96079607960796,323.33089417200944 L 110.66106610661066,319.1442704096463 L 114.91149114911491,317.90887323386704 L 118.96189618961895,316.29599358771077 L 123.6123612361236,314.6144807651223 L 128.012801280128,312.45253570750856 L 131.013101310131,310.15332429703045 L 134.66346634663466,309.1924598269799 L 140.21402140214022,307.44231382795925 L 144.76447644764477,303.77043888883753 L 149.91499149914992,301.16237818441465 L 155.6155615561556,300.40741324366064 L 159.86598659865984,299.412232185394 L 163.61636163616362,298.31410136247905 L 169.7169716971697,293.02934677720106 L 175.76757675767576,293.3038794829298 L 176.26762676267626,301.74576018408817 L 183.5183518351835,298.5200008917756 L 186.3186318631863,291.65668324855744 L 190.3190319031903,285.1708480757162 L 198.56985698569855,282.5627873712933 L 201.62016201620162,289.2545220734311 L 202.7202720272027,296.90712124561935 L 203.7203720372037,299.7553980675549 L 205.87058705870587,301.7114435958721 L 207.6207620762076,301.677127007656 L 209.3209320932093,301.2653279490629 L 211.77117711771177,301.57417724300774 L 214.17141714171416,302.22619241911343 L 216.62166216621662,302.22619241911343 L 218.87188718871886,302.94684077165135 L 220.92209220922092,306.79029865185356 L 222.37223722372235,310.8739726495684 L 214.07140714071406,319.65901923288766 L 208.77087708770875,321.34053205547616 L 207.4207420742074,320.92873299688307 L 205.57055705570556,319.9678685268325 L 203.9203920392039,318.8354211157015 L 203.2203220322032,317.84024005743487 L 202.5202520252025,317.4284409988418 L 194.3194319431943,317.49707417527395 L 188.26882688268824,318.4236220571084 L 183.01830183018302,320.2767178207773 L 178.11781178117812,322.78182876055195 L 172.91729172917292,327.1743520522116 L 170.96709670967095,328.13521652226217 L 165.86658665866585,328.16953311047826 L 166.56665666566656,329.5078800509058 L 166.1166116611661,330.88054357954945 L 160.1160116011601,338.05271051671247 L 158.46584658465846,339.1851579278435 L 156.9156915691569,339.25379110427565 L 152.86528652865286,338.29292663422507 L 150.96509650965095,338.12134369314464 L 144.36443644364437,339.1851579278435 L 145.36453645364534,336.13098157661136 L 144.36443644364437,336.13098157661136 L 141.76417641764175,337.2291123995263 L 142.46424642464245,339.5283238100044 L 141.3141314131413,341.3127863972411 L 139.2139213921392,342.54818357302037 L 137.06370637063705,343.13156557269394 L 134.66346634663466,342.8227162787491 L 130.26302630263027,340.62645463291926 L 128.16281628162815,340.07738922146183 L 126.51265126512651,339.013574986763 L 124.012401240124,334.24356922472634 L 122.61226122612261,333.1797549900275 L 120.4120412041204,332.9052222842988 L 118.6118611861186,332.45910663748964 L 116.8116811681168,332.3561568728413 L 114.71147114711471,333.1797549900275 L 115.16151615161516,331.8414080496 L 115.41154115411541,331.63550852030346 L 116.56165616561655,331.29234263814254 L 116.2116211621162,330.33147816809196 L 115.6115611561156,329.54219663912187 L 114.81148114811481,328.82154828658395 L 113.76137613761375,328.16953311047826 L 112.26122612261226,331.9786744024643 L 111.1111111111111,333.3170213428919 L 109.5109510951095,332.69932275500224 L 108.8108810881088,331.1893928734942 L 108.7108710871087,329.71377958020236 L 108.36083608360836,328.61564875728743 L 107.06070607060705,328.2381662869104 z" /><path fill-rule="evenodd" fill="#D2EBD9" stroke="#A6A6A6" stroke-width="0.25" opacity="1" d="M 141.8141814181418,102.26343288395118 L 143.86438643864386,105.69509170556029 L 142.8142814281428,110.32783111473258 L 142.36423642364235,113.34769087774858 L 142.66426642664266,115.44100275893013 L 138.7138713871387,116.36755064076459 L 134.36343634363436,117.60294781654386 L 132.66326632663265,118.2549629926496 L 131.36313631363134,119.25014405091623 L 130.06300630063006,122.54453651966097 L 134.2134213421342,126.14777828235052 L 136.96369636963695,129.71670345682398 L 136.5136513651365,134.28080968956408 L 135.16351635163517,136.61433768825827 L 132.46324632463245,140.04599650986736 L 130.66306630663067,136.30548839431347 L 128.56285628562856,132.80519639627218 L 125.06250625062505,130.19713569184927 L 120.86208620862085,128.68720581034125 L 118.7118711871187,126.90274322310452 L 117.16171617161716,124.53489863619424 L 112.66126612661266,121.58367204961041 L 110.31103110311031,117.84316393405649 L 109.9109910991099,113.17610793666812 L 105.41054105410541,107.1707049988522 L 98.20982098209821,105.2489760587511 L 91.35913591359136,107.58250405744529 L 85.35853585358535,106.27847370523384 L 87.35873587358735,98.07680912158808 L 89.5089508950895,90.25262700831934 L 86.35863586358636,89.84082794972625 L 82.9082908290829,90.7673758315607 L 80.45804580458045,88.0906819507056 L 79.85798579857985,84.2472240705034 L 84.00840084008401,81.81074630716094 L 84.30843084308431,73.36886560600256 L 84.05840584058406,70.79512148979573 L 83.3083308330833,69.28519160828773 L 80.55805580558055,68.22137737358891 L 79.60796079607961,66.95166360959354 L 82.5082508250825,59.64223031956616 L 89.20892089208921,54.117259616775506 L 92.65926592659265,54.94085773396169 L 96.7096709670967,54.76927479288124 L 98.9098909890989,49.75905291333195 L 99.009900990099,43.8565997401643 L 99.75997599759975,43.27321774049075 L 100.76007600760076,42.93005185832984 L 101.66016601660165,45.29789644524012 L 102.56025602560256,47.01372585604467 L 103.76037603760375,48.4207059729044 L 105.41054105410541,49.827686089764136 L 108.11081108110811,51.234666206623864 L 109.4109410941094,52.12689750024223 L 111.1111111111111,56.51942079190188 L 123.96239623962396,75.35922772253583 L 126.2126212621262,81.09009795462303 L 128.86288628862886,85.10513877590569 L 128.86288628862886,86.82096818671023 L 128.1128112811281,88.15931512713779 L 125.9125912591259,95.91486406397435 L 124.96249624962496,97.49342712191454 L 123.36233623362335,99.41515606201563 L 123.1123112311231,101.26825182568454 L 123.4123412341234,102.84681488362473 L 124.61246124612461,104.94012676480628 L 124.91249124912491,106.14120735236946 L 125.76257625762575,108.33746899819928 L 127.86278627862785,109.19538370360156 L 130.61306130613062,109.12675052716938 L 136.5136513651365,107.85703676317402 L 137.96379637963796,107.20502158706829 L 139.36393639363936,106.14120735236946 L 141.8141814181418,102.26343288395118 z" /><path fill-rule="evenodd" fill="#D2EBD9" stroke="#A6A6A6" stroke-width="0.25" opacity="1" d="M 194.26942694269425,103.67041300081091 L 201.87018701870187,105.11170970588674 L 206.77067706770677,110.73963017332566 L 206.42064206420642,114.7889875828244 L 207.47074707470745,118.63244546302658 L 208.8208820882088,121.2748227556656 L 207.9207920792079,123.91720004830461 L 204.9204920492049,129.85396980968835 L 202.12021202120212,134.72692533637328 L 197.7197719771977,136.9575035704192 L 193.2193219321932,139.9430467452191 L 190.06900690069006,141.041177568134 L 187.66876687668767,143.3403889786121 L 186.66866686668666,145.46801744800976 L 184.66846684668465,146.70341462378903 L 181.8181818181818,153.94421473738424 L 177.91779177917792,161.66544708600472 L 179.8179817981798,169.86711166965046 L 174.66746674667465,176.14704731319512 L 166.36663666366636,180.3679876637743 L 160.6160616061606,188.26080295347523 L 159.06590659065907,201.50700600488636 L 151.9151915191519,206.37996153157127 L 150.8150815081508,203.32578518033918 L 147.96479647964796,201.88448847526337 L 147.4147414741474,199.10484482976 L 145.5145514551455,197.28606565430718 L 142.16421642164215,194.95253765561299 L 140.51405140514052,191.34929589292344 L 139.61396139613962,184.2457621321926 L 139.56395639563956,176.83337907751692 L 138.46384638463846,174.39690131417447 L 136.6136613661366,172.61243872693774 L 134.66346634663466,173.43603684412392 L 133.5133513351335,175.90683119568249 L 129.1129112911291,174.49985107882273 L 129.96299629962996,169.11214672889645 L 129.76297629762976,167.29336755344363 L 128.36283628362835,165.37163861334253 L 129.26292629262926,163.79307555540234 L 129.56295629562956,161.93997979173344 L 124.81248124812481,159.880984498768 L 121.2121212121212,154.5275967370578 L 115.26152615261526,152.9490336791176 L 121.7121712171217,146.3945653298442 L 130.16301630163017,143.4433387432604 L 134.46344634463446,142.6540572142903 L 138.06380638063806,140.2518960391639 L 138.013801380138,137.7124685111732 L 135.16351635163517,136.61433768825827 L 136.5136513651365,134.28080968956408 L 136.96369636963695,129.71670345682398 L 134.2134213421342,126.14777828235052 L 130.06300630063006,122.54453651966097 L 131.36313631363134,119.25014405091623 L 132.66326632663265,118.2549629926496 L 134.36343634363436,117.60294781654386 L 138.7138713871387,116.36755064076459 L 142.66426642664266,115.44100275893013 L 142.36423642364235,113.34769087774858 L 142.8142814281428,110.32783111473258 L 143.86438643864386,105.69509170556029 L 141.8141814181418,102.26343288395118 L 143.1143114311431,101.7830006489259 L 146.3146314631463,102.194799707519 L 148.26482648264826,103.3615637068661 L 151.86518651865185,107.65113723387748 L 154.36543654365437,108.61200170392802 L 156.1156115611561,112.0779771137532 L 158.06580658065806,113.72517334812558 L 159.8159815981598,113.51927381882903 L 161.06610661066105,113.79380652455777 L 162.96629662966296,115.13215346498531 L 164.01640164016402,115.5439525235784 L 165.26652665266525,115.44100275893013 L 168.06680668066807,114.54877146531176 L 169.66696669666965,114.48013828887959 L 171.1171117111711,114.92625393568876 L 172.26722672267226,115.61258570001058 L 176.26762676267626,119.62762652129324 L 176.6176617661766,120.82870710885642 L 176.16761676167616,123.81425028365634 L 177.36773677367736,126.31936122343097 L 180.26802680268025,127.10864275240107 L 183.66836683668365,126.83411004667234 L 186.36863686368636,126.2164114587827 L 189.5189518951895,124.98101428300343 L 191.3191319131913,123.71130051900806 L 194.26942694269425,119.97079240345414 L 195.019501950195,118.2549629926496 L 195.4195419541954,115.5782691117945 L 195.3195319531953,112.55840934877848 L 194.7194719471947,109.71013252684293 L 193.96939693969395,108.71495146857629 L 192.26922692269227,107.54818746922919 L 191.91919191919192,106.14120735236946 L 192.51925192519252,104.80286041194192 L 194.26942694269425,103.67041300081091 z" /><path fill-rule="evenodd" fill="#D2EBD9" stroke="#A6A6A6" stroke-width="0.25" opacity="1" d="M 248.47484748474847,98.28270865088463 L 247.6247624762476,101.02803570817191 L 247.07470747074706,104.25379500048446 L 243.52435243524351,107.5138708810131 L 241.57415741574155,111.11711264370267 L 236.3236323632363,117.53431464011167 L 237.023702370237,121.24050616744951 L 240.52405240524052,123.29950146041497 L 240.77407740774075,126.73116028202406 L 236.47364736473645,128.75583898677343 L 231.1231123112311,133.97196039561928 L 224.57245724572456,136.8545538057709 L 221.6221622162216,133.66311110167445 L 218.2218221822182,131.29526651476417 L 211.57115711571157,129.33922098644697 L 207.9207920792079,123.91720004830461 L 208.8208820882088,121.2748227556656 L 207.47074707470745,118.63244546302658 L 206.42064206420642,114.7889875828244 L 206.77067706770677,110.73963017332566 L 201.87018701870187,105.11170970588674 L 194.26942694269425,103.67041300081091 L 195.1195119511951,103.12134758935346 L 196.1196119611961,101.71436747249373 L 197.11971197119712,101.16530206103627 L 198.019801980198,100.30738735563399 L 198.4198419841984,98.7631408859099 L 197.76977697769775,97.90522618050763 L 196.51965196519652,97.08162806332145 L 195.5195519551955,96.1207635932709 L 195.7195719571957,94.88536641749162 L 197.86978697869785,93.99313512387326 L 207.3207320732073,93.99313512387326 L 210.47104710471046,94.67946688819507 L 216.07160716071607,97.83659300407544 L 218.97189718971896,98.7631408859099 L 236.37363736373635,98.83177406234208 L 238.92389238923892,98.31702523910072 L 241.3241324132413,96.80709535759271 L 242.97429742974296,97.76795982764327 L 245.5245524552455,98.17975888623636 L 248.47484748474847,98.28270865088463 z" /><path fill-rule="evenodd" fill="#D2EBD9" stroke="#A6A6A6" stroke-width="0.25" opacity="1" d="M 272.4272427242724,124.50058204797816 L 271.9271927192719,125.39281334159652 L 271.8271827182718,128.5156228692608 L 270.0770077007701,131.05505039725153 L 267.026702670267,131.1923167501159 L 263.97639763976395,131.08936698546762 L 262.4262426242624,132.7708798080561 L 262.026202620262,135.24167415961463 L 259.5259525952595,138.29585051084675 L 256.17561756175616,140.80096145062137 L 253.67536753675367,145.36506768336147 L 252.2252225222522,150.44392273934295 L 252.87528752875286,153.97853132560033 L 254.07540754075407,157.1699740296968 L 250.37503750375035,163.10674379108053 L 250.27502750275025,169.52394578748954 L 246.97469746974696,171.96042355083202 L 243.47434743474346,173.9507856673653 L 238.87388738873886,179.5787061348042 L 234.22342234223422,177.3481279007583 L 232.27322732273225,173.26445390304346 L 230.47304730473047,167.7737997884689 L 225.42254225422542,167.87674955311718 L 222.9222922292229,162.04292955638172 L 222.4222422242224,155.86594367748532 L 223.022302230223,150.78708862150387 L 221.5221522152215,145.74255015373848 L 222.5222522252225,141.1098107445662 L 224.57245724572456,136.8545538057709 L 231.1231123112311,133.97196039561928 L 236.47364736473645,128.75583898677343 L 240.77407740774075,126.73116028202406 L 240.52405240524052,123.29950146041497 L 237.023702370237,121.24050616744951 L 236.3236323632363,117.53431464011167 L 241.57415741574155,111.11711264370267 L 243.52435243524351,107.5138708810131 L 247.07470747074706,104.25379500048446 L 247.6247624762476,101.02803570817191 L 248.47484748474847,98.28270865088463 L 248.82488248824882,98.28270865088463 L 249.67496749674967,97.90522618050763 L 251.5251525152515,99.48378923844781 L 254.82548254825483,103.29293053043392 L 259.4259425942594,107.58250405744529 L 259.97599759976,109.16106711538548 L 260.6760676067607,110.1905647618682 L 263.77637763776374,111.87207758445666 L 264.5264526452645,113.03884158380376 L 265.4265426542654,117.32841511081513 L 267.67676767676767,120.93165687350469 L 270.72707270727074,123.64266734257588 L 272.4272427242724,124.50058204797816 z" /><path fill-rule="evenodd" fill="#D2EBD9" stroke="#A6A6A6" stroke-width="0.25" opacity="1" d="M 275.57755775577556,125.80461240018961 L 276.37763776377636,130.98641722081936 L 273.3273327332733,135.44757368891118 L 273.67736773677365,139.53124768662602 L 277.3277327732773,141.59024297959147 L 280.6780678067807,136.5800211000422 L 283.2283228322832,136.33980498252956 L 285.77857785778576,137.02613674685136 L 289.5789578957896,136.4770713353939 L 289.3789378937894,132.22181439659863 L 293.17931793179315,132.3933973376791 L 314.08140814081406,130.09418592720098 L 315.08150815081507,129.75102004504006 L 316.1816181618162,128.68720581034125 L 318.4818481848185,124.80943134192297 L 319.2319231923192,124.29468251868161 L 320.98209820982095,123.9515166365207 L 322.88228822882286,123.9515166365207 L 324.1324132413241,124.3289991068977 L 324.48244824482447,125.66734604732525 L 324.18241824182417,128.8931053396378 L 325.032503250325,130.23145228006535 L 327.03270327032703,129.99123616255272 L 330.03300330033,128.37835651639642 L 337.0837083708371,123.47108440149542 L 337.53375337533754,127.24590910526543 L 338.4338433843384,131.81001533800554 L 330.4330433043304,133.42289498416181 L 325.0825082508251,139.1880818044651 L 327.23272327232723,142.92858992001902 L 330.03300330033,146.56614827092466 L 330.28302830283025,150.16939003361423 L 329.68296829682964,153.7383152080877 L 328.9328932893289,153.42946591414287 L 328.1828182818282,153.49809909057504 L 328.98289828982894,155.69436073640486 L 330.68306830683065,157.5474565000738 L 325.7825782578258,159.43486885195878 L 321.18211821182115,158.43968779369214 L 318.63186318631864,156.7581749711037 L 315.6815681568157,156.14047638321406 L 307.7807780778078,153.18924979663024 L 301.5301530153015,146.63478144735686 L 300.4300430043004,150.68413885685558 L 297.5797579757976,153.42946591414287 L 296.8296829682968,156.2777427360784 L 294.9294929492949,158.78285367585306 L 291.8291829182918,162.28314567389435 L 288.1788178817882,165.16573908404598 L 281.87818781878184,165.4745883779908 L 280.12801280128014,165.4059552015586 L 278.5278527852785,164.85688979010118 L 277.9277927792779,163.5871760261058 L 277.57775777577757,162.24882908567827 L 271.77717771777174,159.57213520482316 L 265.37653765376535,160.8418489688185 L 260.92609260926093,162.04292955638172 L 256.57565756575656,163.655809202538 L 254.12541254125412,168.1512822588459 L 250.27502750275025,169.52394578748954 L 250.37503750375035,163.10674379108053 L 254.07540754075407,157.1699740296968 L 252.87528752875286,153.97853132560033 L 252.2252225222522,150.44392273934295 L 253.67536753675367,145.36506768336147 L 256.17561756175616,140.80096145062137 L 259.5259525952595,138.29585051084675 L 262.026202620262,135.24167415961463 L 262.4262426242624,132.7708798080561 L 263.97639763976395,131.08936698546762 L 267.026702670267,131.1923167501159 L 270.0770077007701,131.05505039725153 L 271.8271827182718,128.5156228692608 L 271.9271927192719,125.39281334159652 L 272.4272427242724,124.50058204797816 L 273.87738773877385,125.22123040051606 L 275.57755775577556,125.80461240018961 z" /><path fill-rule="evenodd" fill="#D2EBD9" stroke="#A6A6A6" stroke-width="0.25" opacity="1" d="M 289.3789378937894,132.22181439659863 L 289.5789578957896,136.4770713353939 L 285.77857785778576,137.02613674685136 L 283.2283228322832,136.33980498252956 L 280.6780678067807,136.5800211000422 L 277.3277327732773,141.59024297959147 L 273.67736773677365,139.53124768662602 L 273.3273327332733,135.44757368891118 L 276.37763776377636,130.98641722081936 L 275.57755775577556,125.80461240018961 L 277.47774777477747,126.42231098807925 L 278.8278827882788,127.07432616418498 L 282.3282328232823,129.44217075109526 L 286.57865786578657,131.5354826322768 L 288.7788778877888,132.18749780838255 L 289.3789378937894,132.22181439659863 z" /><path fill-rule="evenodd" fill="#D2EBD9" stroke="#A6A6A6" stroke-width="0.25" opacity="1" d="M 397.18971897189715,121.41208910852997 L 396.48964896489645,125.42712992981261 L 394.83948394839484,129.54512051574352 L 393.1893189318932,130.95210063260325 L 392.2892289228923,132.83951298448827 L 394.03940394039404,136.61433768825827 L 396.2396239623962,140.2518960391639 L 397.9397939793979,147.28679662346258 L 393.93939393939394,147.69859568205567 L 389.68896889688966,147.08089709416603 L 385.7885788578858,149.92917391610158 L 382.4882488248825,153.56673226700724 L 380.28802880288026,154.18443085489687 L 377.98779877987795,153.97853132560033 L 374.3874387438744,156.41500908894278 L 369.7369736973697,153.15493320841415 L 367.5367536753675,147.83586203492004 L 364.63646364636463,144.02672074293395 L 360.7360736073607,139.46261451019382 L 356.7856785678568,148.93399285783494 L 350.58505850585055,158.40537120547606 L 349.6349634963496,164.23919120221154 L 348.88488848884884,170.1759609635953 L 346.43464346434644,174.7400671963354 L 346.43464346434644,179.71597248766858 L 338.4338433843384,171.205458610078 L 330.68306830683065,157.5474565000738 L 328.98289828982894,155.69436073640486 L 328.1828182818282,153.49809909057504 L 328.9328932893289,153.42946591414287 L 329.68296829682964,153.7383152080877 L 330.28302830283025,150.16939003361423 L 330.03300330033,146.56614827092466 L 327.23272327232723,142.92858992001902 L 325.0825082508251,139.1880818044651 L 330.4330433043304,133.42289498416181 L 338.4338433843384,131.81001533800554 L 337.53375337533754,127.24590910526543 L 337.0837083708371,123.47108440149542 L 337.4837483748375,123.23086828398279 L 340.2340234023402,123.29950146041497 L 345.53455345534553,125.22123040051606 L 363.1863186318632,126.5938939291597 L 365.986598659866,129.23627122179872 L 368.7368736873687,127.58907498742634 L 371.4371437143714,127.79497451672289 L 374.0874087408741,128.68720581034125 L 376.68766876687664,129.23627122179872 L 379.68796879687966,128.4813062810447 L 383.63836383638363,125.11828063586779 L 385.98859885988594,124.3289991068977 L 388.68886888688866,123.91720004830461 L 394.63946394639464,121.89252134355523 L 397.18971897189715,121.41208910852997 z" /><path fill-rule="evenodd" fill="#D2EBD9" stroke="#A6A6A6" stroke-width="0.25" opacity="1" d="M 422.24222422242224,122.54453651966097 L 424.6424642464246,128.34403992818034 L 427.042704270427,134.86419168923763 L 428.89288928892887,138.98218227516855 L 428.7428742874287,143.47765533147648 L 425.89258925892585,147.04658050594995 L 422.4922492249225,150.13507344539812 L 419.8419841984198,154.90507920743477 L 417.59175917591756,160.05256743984842 L 411.64116411641163,157.75335602937034 L 408.2408240824082,151.13025450366476 L 403.04030403040304,144.47283638974312 L 396.2396239623962,140.2518960391639 L 394.03940394039404,136.61433768825827 L 392.2892289228923,132.83951298448827 L 393.1893189318932,130.95210063260325 L 394.83948394839484,129.54512051574352 L 396.48964896489645,125.42712992981261 L 397.18971897189715,121.41208910852997 L 407.09070907090705,121.89252134355523 L 413.64136413641364,124.56921522441033 L 419.3419341934193,123.77993369544023 L 422.24222422242224,122.54453651966097 z" /><path fill-rule="evenodd" fill="#D2EBD9" stroke="#A6A6A6" stroke-width="0.25" opacity="1" d="M 118.96189618961895,316.29599358771077 L 117.46174617461746,312.04073664891547 L 116.26162616261625,307.716846533688 L 117.01170117011701,298.1768350096147 L 113.7113711371137,298.5200008917756 L 112.86128612861286,295.4315079523274 L 113.7113711371137,290.1810699552655 L 112.16121612161216,285.2394812521484 L 116.96169616961696,277.175083021367 L 126.96269626962696,275.3906204341303 L 130.71307130713072,273.26299196473263 L 134.66346634663466,271.5814791421442 L 136.66366636663665,271.135363495335 L 138.6138613861386,271.4098962010637 L 141.1141114111411,274.80723843445674 L 146.7146714671467,272.3707606711143 L 152.7152715271527,272.43939384754646 L 153.26532653265326,274.97882137553717 L 150.16501650165014,277.31234937423136 L 151.06510651065105,281.4646565483784 L 151.2151215121512,285.44538078144495 L 149.21492149214922,286.6807779572242 L 147.2147214721472,287.64164242727475 L 146.16461646164615,290.2153865434816 L 145.9145914591459,293.1322965418493 L 149.26492649264927,290.73013536672295 L 152.76527652765276,291.1762510135321 L 154.71547154715472,295.56877430519177 L 155.6155615561556,300.40741324366064 L 149.91499149914992,301.16237818441465 L 144.76447644764477,303.77043888883753 L 140.21402140214022,307.44231382795925 L 134.66346634663466,309.1924598269799 L 131.013101310131,310.15332429703045 L 128.012801280128,312.45253570750856 L 123.6123612361236,314.6144807651223 L 118.96189618961895,316.29599358771077 z" /><path fill-rule="evenodd" fill="#D2EBD9" stroke="#A6A6A6" stroke-width="0.25" opacity="1" d="M 112.16121612161216,285.2394812521484 L 109.8109810981098,286.0287627811185 L 107.76077607760776,284.6217826642588 L 103.51035103510351,285.03358172285186 L 99.25992599259925,287.5043760744104 L 96.35963596359636,287.1268936040334 L 93.70937093709371,285.78854666360587 L 89.30893089308931,285.41106419322887 L 85.2085208520852,286.95531066295297 L 82.85828582858285,288.7054566619736 L 81.05810581058105,286.4062452514955 L 77.9077907790779,281.15580725443357 L 76.2076207620762,275.0474545519694 L 76.5076507650765,271.7873786714407 L 75.5075507550755,268.76751890842473 L 73.85738573857385,259.60498985472844 L 67.2067206720672,256.6537632681446 L 68.55685568556855,253.53095374048033 L 70.85708570857085,251.02584280070568 L 76.45764576457645,247.38828444980004 L 80.65806580658065,241.7603639823611 L 92.7092709270927,235.51474492703255 L 98.55985598559856,232.56351834044872 L 105.81058105810581,232.49488516401652 L 106.5106510651065,237.02467480854054 L 106.36063606360635,241.3828815119841 L 104.1104110411041,243.54482656959783 L 103.6103610361036,246.56468633261383 L 104.46044604460445,255.34973291593315 L 106.36063606360635,257.95779362035603 L 108.8108810881088,260.01678891332153 L 110.51105110511051,261.9728344416387 L 112.61126112611261,263.3798145584984 L 115.16151615161516,263.1052818527697 L 117.71177117711771,263.2425482056341 L 122.61226122612261,265.61039279254436 L 127.8127812781278,267.360538791565 L 126.66266626662666,268.8018354966408 L 124.86248624862486,270.0715492606362 L 125.16251625162515,272.9198260825717 L 126.96269626962696,275.3906204341303 L 116.96169616961696,277.175083021367 L 112.16121612161216,285.2394812521484 z" /><path fill-rule="evenodd" fill="#D2EBD9" stroke="#A6A6A6" stroke-width="0.25" opacity="1" d="M 189.6189618961896,261.0806031480203 L 182.41824182418242,258.7470751493261 L 175.6175617561756,255.1438333866366 L 172.26722672267226,254.18296891658605 L 171.26712671267126,251.2660589182183 L 174.56745674567455,248.72663139022757 L 178.7178717871787,247.59418397909658 L 180.86808680868086,243.81935927532658 L 179.86798679867985,238.91208716042556 L 180.26802680268025,234.79409657449463 L 176.7176717671767,235.48042833881644 L 173.76737673767377,235.308845397736 L 172.1172117211721,231.4310709293177 L 165.016501650165,226.04336657939143 L 148.1148114811481,218.01328493682612 L 149.11491149114912,214.95910858559404 L 148.56485648564856,211.76766588149758 L 150.76507650765075,209.46845447101947 L 151.9151915191519,206.37996153157127 L 159.06590659065907,201.50700600488636 L 160.6160616061606,188.26080295347523 L 166.36663666366636,180.3679876637743 L 174.66746674667465,176.14704731319512 L 179.8179817981798,169.86711166965046 L 177.91779177917792,161.66544708600472 L 184.06840684068405,161.83703002708515 L 190.06900690069006,161.7340802624369 L 192.16921692169217,164.06760826113108 L 195.019501950195,166.70998555377008 L 198.56985698569855,171.2397751982941 L 200.5200520052005,177.58834401827093 L 192.51925192519252,186.95677260126376 L 193.76937693769375,196.90858318393018 L 201.87018701870187,203.6003178860679 L 202.02020202020202,213.41486211586994 L 204.8204820482048,218.69961670114796 L 211.27112711271127,220.4840792883847 L 212.77127712771275,223.16077316923977 L 215.42154215421542,224.08732105107424 L 218.67186718671866,222.16559211097314 L 219.7219721972197,218.42508399541921 L 223.5223522352235,222.88624046351106 L 232.27322732273225,227.21013057873853 L 235.27352735273527,228.30826140165343 L 234.77347734773477,229.09754293062352 L 227.97279727972796,233.55869939871536 L 223.57235723572356,240.38770045371746 L 218.021802180218,240.76518292409446 L 214.2214221422142,244.4713744514323 L 211.52115211521152,249.0011640959563 L 209.5209520952095,253.87411962264122 L 205.67056705670566,253.15347127010332 L 202.97029702970295,260.01678891332153 L 200.17001700170016,259.43340691364796 L 197.11971197119712,258.2323263260848 L 192.81928192819282,258.64412538467786 L 189.6189618961896,261.0806031480203 z" /><path fill-rule="evenodd" fill="#D2EBD9" stroke="#A6A6A6" stroke-width="0.25" opacity="1" d="M 240.87408740874085,279.8517769022221 L 237.77377737773776,284.9306319582036 L 233.8233823382338,288.43092395624484 L 229.77297729772977,286.06307936933456 L 226.97269726972695,281.97940537161975 L 223.77237723772376,279.78314372578996 L 222.17221722172215,283.6266016059921 L 219.92199219921991,284.72473242890703 L 217.4217421742174,285.65128031074147 L 212.9212921292129,280.02335984330256 L 212.97129712971295,270.4147151427971 L 212.4212421242124,262.31600032379964 L 209.5209520952095,253.87411962264122 L 211.52115211521152,249.0011640959563 L 214.2214221422142,244.4713744514323 L 218.021802180218,240.76518292409446 L 223.57235723572356,240.38770045371746 L 223.7223722372237,246.49605315618166 L 225.62256225622562,252.67303903507803 L 226.7226722672267,259.39909032543187 L 229.37293729372936,265.5074430278961 L 235.07350735073507,268.2870866733995 L 238.97389738973897,271.5814791421442 L 240.87408740874085,279.8517769022221 z" /><path fill-rule="evenodd" fill="#D2EBD9" stroke="#A6A6A6" stroke-width="0.25" opacity="1" d="M 243.77437743774377,279.61156078470947 L 242.3242324232423,279.8860934904382 L 240.87408740874085,279.8517769022221 L 238.97389738973897,271.5814791421442 L 235.07350735073507,268.2870866733995 L 229.37293729372936,265.5074430278961 L 226.7226722672267,259.39909032543187 L 225.62256225622562,252.67303903507803 L 223.7223722372237,246.49605315618166 L 223.57235723572356,240.38770045371746 L 227.97279727972796,233.55869939871536 L 234.77347734773477,229.09754293062352 L 234.67346734673467,229.71524151851315 L 234.27342734273427,229.5779751656488 L 234.67346734673467,229.68092493029707 L 236.77367736773675,230.401573282835 L 239.42394239423942,229.68092493029707 L 242.27422742274226,229.16617610705572 L 245.07450745074507,229.68092493029707 L 251.07510751075105,229.78387469494535 L 257.025702570257,229.06322634240743 L 260.8760876087609,228.78869363667872 L 267.47674767476747,225.7345172854466 L 270.6770677067707,224.73933622717996 L 279.2779277927793,224.39617034501904 L 282.6282628262826,223.33235611032023 L 285.5285528552855,221.47926034665133 L 285.028502850285,217.63580246644912 L 283.8283828382838,213.68939482159865 L 287.4787478747875,213.5521284687343 L 289.52895289528954,216.2974555260216 L 289.6789678967897,218.49371717185142 L 289.97899789979,220.1065968180077 L 297.2297229722972,220.96451152340995 L 306.1306130613061,220.62134564124904 L 308.83088308830884,223.19508975745586 L 309.33093309330934,227.6905628137638 L 311.1311131113111,229.9897742242419 L 316.8816881688169,233.83323210444408 L 316.8816881688169,237.71100657286237 L 308.6808680868087,239.70136868939565 L 302.030203020302,236.5099259852992 L 292.6292629262926,238.328705160752 L 283.47834783478345,242.65259527597948 L 274.17741774177415,245.02043986288976 L 267.57675767576757,250.61404374211259 L 265.7265726572657,253.9770693872895 L 261.5761576157616,254.49181821053085 L 256.87568756875686,257.95779362035603 L 255.17551755175515,264.0318297346042 L 254.77547754775478,268.97341843772125 L 253.17531753175317,273.5375246704614 L 248.57485748574857,276.66033419812567 L 243.77437743774377,279.61156078470947 z" /><path fill-rule="evenodd" fill="#D2EBD9" stroke="#A6A6A6" stroke-width="0.25" opacity="1" d="M 198.56985698569855,282.5627873712933 L 190.3190319031903,285.1708480757162 L 186.3186318631863,291.65668324855744 L 183.5183518351835,298.5200008917756 L 176.26762676267626,301.74576018408817 L 175.76757675767576,293.3038794829298 L 169.7169716971697,293.02934677720106 L 163.61636163616362,298.31410136247905 L 159.86598659865984,299.412232185394 L 155.6155615561556,300.40741324366064 L 154.71547154715472,295.56877430519177 L 152.76527652765276,291.1762510135321 L 149.26492649264927,290.73013536672295 L 145.9145914591459,293.1322965418493 L 146.16461646164615,290.2153865434816 L 147.2147214721472,287.64164242727475 L 149.21492149214922,286.6807779572242 L 151.2151215121512,285.44538078144495 L 151.06510651065105,281.4646565483784 L 150.16501650165014,277.31234937423136 L 153.26532653265326,274.97882137553717 L 152.7152715271527,272.43939384754646 L 146.7146714671467,272.3707606711143 L 141.1141114111411,274.80723843445674 L 138.6138613861386,271.4098962010637 L 136.66366636663665,271.135363495335 L 134.66346634663466,271.5814791421442 L 130.71307130713072,273.26299196473263 L 126.96269626962696,275.3906204341303 L 125.16251625162515,272.9198260825717 L 124.86248624862486,270.0715492606362 L 126.66266626662666,268.8018354966408 L 127.8127812781278,267.360538791565 L 122.61226122612261,265.61039279254436 L 117.71177117711771,263.2425482056341 L 115.16151615161516,263.1052818527697 L 112.61126112611261,263.3798145584984 L 110.51105110511051,261.9728344416387 L 108.8108810881088,260.01678891332153 L 106.36063606360635,257.95779362035603 L 104.46044604460445,255.34973291593315 L 103.6103610361036,246.56468633261383 L 104.1104110411041,243.54482656959783 L 106.36063606360635,241.3828815119841 L 106.5106510651065,237.02467480854054 L 105.81058105810581,232.49488516401652 L 110.9110911091109,229.47502540100052 L 118.7118711871187,225.56293434436614 L 119.91199119911991,223.43530587496852 L 120.3120312031203,219.86638070049506 L 122.86228622862285,217.53285270180086 L 128.9128912891289,213.65507823338257 L 135.06350635063507,211.7333492932815 L 138.16381638163816,213.27759576300556 L 141.5141514151415,213.99824411554349 L 148.56485648564856,211.76766588149758 L 149.11491149114912,214.95910858559404 L 148.1148114811481,218.01328493682612 L 165.016501650165,226.04336657939143 L 172.1172117211721,231.4310709293177 L 173.76737673767377,235.308845397736 L 176.7176717671767,235.48042833881644 L 180.26802680268025,234.79409657449463 L 179.86798679867985,238.91208716042556 L 180.86808680868086,243.81935927532658 L 178.7178717871787,247.59418397909658 L 174.56745674567455,248.72663139022757 L 171.26712671267126,251.2660589182183 L 172.26722672267226,254.18296891658605 L 175.6175617561756,255.1438333866366 L 182.41824182418242,258.7470751493261 L 189.6189618961896,261.0806031480203 L 193.7193719371937,264.2034126756846 L 193.7193719371937,267.39485537978106 L 193.36933693369335,270.65493126030975 L 194.1194119411941,274.2581730229993 L 195.96959695969596,277.34666596244745 L 198.019801980198,279.64587737292555 L 198.56985698569855,282.5627873712933 z" /><path fill-rule="evenodd" fill="#D2EBD9" stroke="#A6A6A6" stroke-width="0.25" opacity="1" d="M 64.5064506450645,157.9249389704508 L 60.106010601060106,156.7238583828876 L 55.75557555755575,155.31687826602789 L 55.105510551055104,153.7383152080877 L 55.305530553055306,151.91953603263485 L 54.4054405440544,148.6937767403223 L 52.855285528552855,145.6739169773063 L 56.65566556655665,133.18267886664918 L 70.6070607060706,127.69202475207462 L 75.8075807580758,125.32418016516434 L 80.7080708070807,122.30432040214833 L 86.008600860086,120.96597346172078 L 91.20912091209121,123.02496875468624 L 97.7097709770977,122.61316969609315 L 101.21012101210121,115.99006817038759 L 105.010501050105,112.83294205450721 L 109.9109910991099,113.17610793666812 L 110.31103110311031,117.84316393405649 L 112.66126612661266,121.58367204961041 L 117.16171617161716,124.53489863619424 L 118.7118711871187,126.90274322310452 L 120.86208620862085,128.68720581034125 L 125.06250625062505,130.19713569184927 L 128.56285628562856,132.80519639627218 L 130.66306630663067,136.30548839431347 L 132.46324632463245,140.04599650986736 L 135.16351635163517,136.61433768825827 L 138.013801380138,137.7124685111732 L 138.06380638063806,140.2518960391639 L 134.46344634463446,142.6540572142903 L 130.16301630163017,143.4433387432604 L 121.7121712171217,146.3945653298442 L 115.26152615261526,152.9490336791176 L 110.31103110311031,155.72867732462097 L 103.86038603860385,153.77263179630378 L 100.1100110011001,153.12061662019804 L 96.35963596359636,153.56673226700724 L 93.25932593259326,152.46860144409231 L 90.3090309030903,150.58118909220732 L 83.7083708370837,151.09593791544867 L 77.6077607760776,154.21874744311296 L 70.9070907090709,155.55709438354052 L 64.5064506450645,157.9249389704508 z" /><path fill-rule="evenodd" fill="#D2EBD9" stroke="#A6A6A6" stroke-width="0.25" opacity="1" d="M 92.7092709270927,235.51474492703255 L 91.75917591759175,231.156538223589 L 91.45914591459146,226.72969834371324 L 87.2087208720872,223.43530587496852 L 82.05820582058206,223.16077316923977 L 77.75777577757775,225.7688338736627 L 73.15731573157315,226.4894822262006 L 70.4070407040704,221.30767740557087 L 68.8068806880688,215.19932470310667 L 66.7066706670667,210.63521847036657 L 62.506250625062506,209.3998212945873 L 58.655865586558654,209.0223388242103 L 55.65556555655565,206.277011766923 L 52.3052305230523,199.10484482976 L 51.15511551155115,191.34929589292344 L 53.5053505350535,188.3637527181235 L 51.85518551855185,181.36316872204094 L 54.95549554955495,179.37280660550766 L 57.705770577057706,176.9363288421652 L 58.655865586558654,173.64193637342046 L 58.655865586558654,170.14164437537917 L 61.206120612061206,167.430633906308 L 64.85648564856486,166.5727192009057 L 66.4066406640664,162.4890452031909 L 64.5064506450645,157.9249389704508 L 70.9070907090709,155.55709438354052 L 77.6077607760776,154.21874744311296 L 83.7083708370837,151.09593791544867 L 90.3090309030903,150.58118909220732 L 93.25932593259326,152.46860144409231 L 96.35963596359636,153.56673226700724 L 100.1100110011001,153.12061662019804 L 103.86038603860385,153.77263179630378 L 110.31103110311031,155.72867732462097 L 115.26152615261526,152.9490336791176 L 121.2121212121212,154.5275967370578 L 124.81248124812481,159.880984498768 L 129.56295629562956,161.93997979173344 L 129.26292629262926,163.79307555540234 L 128.36283628362835,165.37163861334253 L 129.76297629762976,167.29336755344363 L 129.96299629962996,169.11214672889645 L 129.1129112911291,174.49985107882273 L 133.5133513351335,175.90683119568249 L 134.66346634663466,173.43603684412392 L 136.6136613661366,172.61243872693774 L 138.46384638463846,174.39690131417447 L 139.56395639563956,176.83337907751692 L 139.61396139613962,184.2457621321926 L 140.51405140514052,191.34929589292344 L 142.16421642164215,194.95253765561299 L 145.5145514551455,197.28606565430718 L 147.4147414741474,199.10484482976 L 147.96479647964796,201.88448847526337 L 150.8150815081508,203.32578518033918 L 151.9151915191519,206.37996153157127 L 150.76507650765075,209.46845447101947 L 148.56485648564856,211.76766588149758 L 141.5141514151415,213.99824411554349 L 138.16381638163816,213.27759576300556 L 135.06350635063507,211.7333492932815 L 128.9128912891289,213.65507823338257 L 122.86228622862285,217.53285270180086 L 120.3120312031203,219.86638070049506 L 119.91199119911991,223.43530587496852 L 118.7118711871187,225.56293434436614 L 110.9110911091109,229.47502540100052 L 105.81058105810581,232.49488516401652 L 98.55985598559856,232.56351834044872 L 92.7092709270927,235.51474492703255 z" /><path fill-rule="evenodd" fill="#D2EBD9" stroke="#A6A6A6" stroke-width="0.25" opacity="1" d="M 219.7219721972197,218.42508399541921 L 218.67186718671866,222.16559211097314 L 215.42154215421542,224.08732105107424 L 212.77127712771275,223.16077316923977 L 211.27112711271127,220.4840792883847 L 204.8204820482048,218.69961670114796 L 202.02020202020202,213.41486211586994 L 201.87018701870187,203.6003178860679 L 193.76937693769375,196.90858318393018 L 192.51925192519252,186.95677260126376 L 200.5200520052005,177.58834401827093 L 206.22062206220622,174.2596349613101 L 211.67116711671167,170.24459414002746 L 215.07150715071506,170.62207661040446 L 218.3218321832183,171.78884060975156 L 221.97219721972195,170.31322731645963 L 225.42254225422542,167.87674955311718 L 230.47304730473047,167.7737997884689 L 232.27322732273225,173.26445390304346 L 234.22342234223422,177.3481279007583 L 238.87388738873886,179.5787061348042 L 239.77397739773977,184.07417919111214 L 242.57425742574256,187.19698871877642 L 239.02390239023902,193.3396580094567 L 230.37303730373037,199.61959365300135 L 228.2228222822282,202.43355388672083 L 227.8227822782278,204.56118235611845 L 226.57265726572655,206.13974541405864 L 223.1223122312231,207.8212582366471 L 222.47224722472245,211.69903270506538 L 221.27212721272127,215.0277417620262 L 219.7219721972197,218.42508399541921 z" /><path fill-rule="evenodd" fill="#D2EBD9" stroke="#A6A6A6" stroke-width="0.25" opacity="1" d="M 242.57425742574256,187.19698871877642 L 249.62496249624962,188.67260201206832 L 255.37553755375535,190.07958212892805 L 257.97579757975797,192.41311012762225 L 261.5761576157616,193.2710248330245 L 266.8266826682668,192.31016036297396 L 268.4768476847685,194.8495878909647 L 271.22712271227124,194.33483906772335 L 275.6275627562756,192.17289401010962 L 279.42794279427943,195.12412059669344 L 281.77817781778174,204.4582325914702 L 283.8283828382838,213.68939482159865 L 285.028502850285,217.63580246644912 L 285.5285528552855,221.47926034665133 L 282.6282628262826,223.33235611032023 L 279.2779277927793,224.39617034501904 L 270.6770677067707,224.73933622717996 L 267.47674767476747,225.7345172854466 L 260.8760876087609,228.78869363667872 L 257.025702570257,229.06322634240743 L 251.07510751075105,229.78387469494535 L 245.07450745074507,229.68092493029707 L 242.27422742274226,229.16617610705572 L 239.42394239423942,229.68092493029707 L 236.77367736773675,230.401573282835 L 234.67346734673467,229.68092493029707 L 234.27342734273427,229.5779751656488 L 234.67346734673467,229.71524151851315 L 234.77347734773477,229.09754293062352 L 235.27352735273527,228.30826140165343 L 232.27322732273225,227.21013057873853 L 223.5223522352235,222.88624046351106 L 219.7219721972197,218.42508399541921 L 221.27212721272127,215.0277417620262 L 222.47224722472245,211.69903270506538 L 223.1223122312231,207.8212582366471 L 226.57265726572655,206.13974541405864 L 227.8227822782278,204.56118235611845 L 228.2228222822282,202.43355388672083 L 230.37303730373037,199.61959365300135 L 239.02390239023902,193.3396580094567 L 242.57425742574256,187.19698871877642 z" /><path fill-rule="evenodd" fill="#D2EBD9" stroke="#A6A6A6" stroke-width="0.25" opacity="1" d="M 200.5200520052005,177.58834401827093 L 198.56985698569855,171.2397751982941 L 195.019501950195,166.70998555377008 L 192.16921692169217,164.06760826113108 L 190.06900690069006,161.7340802624369 L 184.06840684068405,161.83703002708515 L 177.91779177917792,161.66544708600472 L 181.8181818181818,153.94421473738424 L 184.66846684668465,146.70341462378903 L 186.66866686668666,145.46801744800976 L 187.66876687668767,143.3403889786121 L 190.06900690069006,141.041177568134 L 193.2193219321932,139.9430467452191 L 197.7197719771977,136.9575035704192 L 202.12021202120212,134.72692533637328 L 204.9204920492049,129.85396980968835 L 207.9207920792079,123.91720004830461 L 211.57115711571157,129.33922098644697 L 218.2218221822182,131.29526651476417 L 221.6221622162216,133.66311110167445 L 224.57245724572456,136.8545538057709 L 222.5222522252225,141.1098107445662 L 221.5221522152215,145.74255015373848 L 223.022302230223,150.78708862150387 L 222.4222422242224,155.86594367748532 L 222.9222922292229,162.04292955638172 L 225.42254225422542,167.87674955311718 L 221.97219721972195,170.31322731645963 L 218.3218321832183,171.78884060975156 L 215.07150715071506,170.62207661040446 L 211.67116711671167,170.24459414002746 L 206.22062206220622,174.2596349613101 L 200.5200520052005,177.58834401827093 z" /><path fill-rule="evenodd" fill="#D2EBD9" stroke="#A6A6A6" stroke-width="0.25" opacity="1" d="M 238.87388738873886,179.5787061348042 L 243.47434743474346,173.9507856673653 L 246.97469746974696,171.96042355083202 L 250.27502750275025,169.52394578748954 L 254.12541254125412,168.1512822588459 L 256.57565756575656,163.655809202538 L 260.92609260926093,162.04292955638172 L 265.37653765376535,160.8418489688185 L 271.77717771777174,159.57213520482316 L 277.57775777577757,162.24882908567827 L 277.9277927792779,163.5871760261058 L 278.5278527852785,164.85688979010118 L 280.12801280128014,165.4059552015586 L 281.87818781878184,165.4745883779908 L 288.1788178817882,165.16573908404598 L 291.8291829182918,162.28314567389435 L 294.9294929492949,158.78285367585306 L 296.8296829682968,156.2777427360784 L 297.5797579757976,153.42946591414287 L 300.4300430043004,150.68413885685558 L 301.5301530153015,146.63478144735686 L 307.7807780778078,153.18924979663024 L 315.6815681568157,156.14047638321406 L 318.63186318631864,156.7581749711037 L 321.18211821182115,158.43968779369214 L 325.7825782578258,159.43486885195878 L 330.68306830683065,157.5474565000738 L 338.4338433843384,171.205458610078 L 346.43464346434644,179.71597248766858 L 348.88488848884884,183.0446815446294 L 351.68516851685166,185.99590813121324 L 357.0857085708571,189.5305167174706 L 354.5854585458546,192.06994424546133 L 349.6349634963496,192.72195942156705 L 342.98429842984297,196.3595177724727 L 328.43284328432844,203.70326765071619 L 322.18221822182215,209.3311881181551 L 318.23182318231824,212.28241470473893 L 313.9313931393139,214.7188924680814 L 306.1306130613061,220.62134564124904 L 297.2297229722972,220.96451152340995 L 289.97899789979,220.1065968180077 L 289.6789678967897,218.49371717185142 L 289.52895289528954,216.2974555260216 L 287.4787478747875,213.5521284687343 L 283.8283828382838,213.68939482159865 L 281.77817781778174,204.4582325914702 L 279.42794279427943,195.12412059669344 L 275.6275627562756,192.17289401010962 L 271.22712271227124,194.33483906772335 L 268.4768476847685,194.8495878909647 L 266.8266826682668,192.31016036297396 L 261.5761576157616,193.2710248330245 L 257.97579757975797,192.41311012762225 L 255.37553755375535,190.07958212892805 L 249.62496249624962,188.67260201206832 L 242.57425742574256,187.19698871877642 L 239.77397739773977,184.07417919111214 L 238.87388738873886,179.5787061348042 z" /></g></g></g></svg>