<svg xmlns="http://www.w3.org/2000/svg" xmlns:xlink="http://www.w3.org/1999/xlink" width="500.0" height="325.5447511356324" viewBox="0.0 0.0 500.0 325.5447511356324" preserveAspectRatio="xMinYMin meet"><g transform="matrix(1,0,0,-1,0,325.5447511356324)"><g><g><path fill-rule="evenodd" fill="#D2EBD9" stroke="#A6A6A6" stroke-width="0.25" opacity="1" d="M 252.025202520252,78.62692009126435 L 253.12531253125312,79.76644067229716 L 254.82548254825483,80.87340352244333 L 256.67566756675666,81.42688494751641 L 260.3760376037604,81.52455814017637 L 262.37623762376234,80.157133442937 L 263.47634763476344,77.09670673959171 L 264.2264226422642,73.41768314940005 L 265.17651765176515,70.22702552250816 L 266.3266326632663,69.2502935959086 L 267.57675767576757,69.2502935959086 L 270.0770077007701,70.55260283137467 L 271.6271627162716,72.6362976081204 L 271.0771077107711,75.013011962846 L 268.8768876887689,79.01761286190417 L 268.976897689769,81.58967360194967 L 269.97699769977,82.59896325943588 L 271.42714271427144,82.33850141234267 L 272.8272827282728,81.1664231004232 L 273.37733773377335,80.157133442937 L 274.77747774777475,76.57578304540527 L 275.5275527552755,76.1525325438788 L 276.5276527652765,76.54322531451862 L 277.3277327732773,76.57578304540527 L 280.4780478047805,74.85022330841272 L 285.2285228522852,69.0549472105887 L 288.3288328832883,67.03636789561627 L 291.1291129112911,66.45032873965654 L 291.87918791879184,65.89684731458345 L 292.57925792579255,64.78988446443729 L 292.67926792679265,63.975941192270994 L 294.17941794179416,66.84102151029636 L 295.2295229522952,69.54331317388846 L 297.1797179717972,72.92931718610026 L 297.3797379737974,74.23162642156635 L 297.2797279727973,75.63160884969237 L 297.3797379737974,76.8362448924985 L 298.0798079807981,77.5850727028915 L 300.0800080008001,77.94320774264466 L 301.28012801280124,77.7153036264381 L 302.6302630263026,77.97576547353131 L 303.9303930393039,78.88738193835756 L 306.1806180618062,81.55711587106302 L 309.0809080908091,83.93383022578861 L 313.38133813381336,86.08264046430763 L 313.9313931393139,86.86402600558728 L 314.2314231423142,87.87331566307348 L 313.8313831383138,88.65470120435313 L 313.78137813781376,89.33841355297282 L 314.031403140314,90.25003001779908 L 314.58145814581457,90.96630009730542 L 315.6815681568157,91.91047429301832 L 315.9315931593159,93.24534125937106 L 316.3816381638164,93.92905360799074 L 317.3817381738174,93.76626495355748 L 319.4319431943194,92.2686093327715 L 320.48204820482044,90.64072278843891 L 321.48214821482145,88.65470120435313 L 322.4322432243224,87.61285381598027 L 324.88248824882487,87.58029608509362 L 326.4826482648265,88.39423935725992 L 333.58335833583357,90.41281867223233 L 331.48314831483145,104.73822026235918 L 330.98309830983095,116.165983803574 L 332.98329832983296,120.561277473272 L 335.6835683568357,125.37982164449649 L 340.98409840984095,133.06344613374634 L 340.98409840984095,134.20296671477914 L 338.28382838283824,143.87261278811476 L 333.033303330333,148.23534872692613 L 330.5330533053305,151.32833316115804 L 329.68296829682964,153.8027207085436 L 328.9328932893289,154.7468949042565 L 326.4826482648265,154.77945263514314 L 325.4825482548255,155.13758767489634 L 324.032403240324,157.1236092589821 L 323.4323432343234,159.20730403572782 L 322.38223822382236,160.11892050055405 L 321.38213821382135,160.73751738740046 L 314.4314431443144,161.7793647757733 L 313.1313131313131,161.5840183904534 L 311.48114811481145,161.9095956993199 L 309.0809080908091,161.8444802375466 L 308.33083308330833,162.3328462008464 L 308.23082308230823,163.24446266567264 L 308.83088308830884,164.44909870847877 L 309.68096809680964,165.13281105709845 L 311.08110811081104,165.9141965983781 L 311.5311531153115,166.63046667788444 L 311.7311731173117,167.86766045157722 L 311.18111811181114,169.88623976654964 L 311.031103110311,173.72805201117455 L 310.4310431043104,174.83501486132073 L 306.9306930693069,173.33735924053474 L 301.1301130113011,171.31877992556232 L 299.52995299529954,170.14670161364285 L 298.1798179817982,169.39787380324987 L 293.07930793079305,167.607198604484 L 291.7291729172917,165.7839656748315 L 289.32893289328933,166.30488936901793 L 286.4286428642864,164.0909636687256 L 283.7283728372837,163.3421358583326 L 276.7276727672767,163.5374822436525 L 275.1275127512751,164.38398324670547 L 273.27732773277324,164.70956055557198 L 269.62696269626963,166.30488936901793 L 267.5267526752675,165.2304842497584 L 266.97669766976696,164.2211945922722 L 266.8266826682668,163.1467894730127 L 267.47674767476747,160.96542150360702 L 267.5267526752675,159.46776588282103 L 266.67666766676666,158.7514958033147 L 263.57635763576354,157.57941749139522 L 262.47624762476244,156.47245464124904 L 261.42614261426144,154.77945263514314 L 260.42604260426043,153.5422588614504 L 257.07570757075706,151.06787131406483 L 251.77517751775176,148.56092603579265 L 248.82488248824882,145.30515294712745 L 248.27482748274826,144.06795917343467 L 249.37493749374937,141.65868708782244 L 249.72497249724972,139.9982428126032 L 249.77497749774977,136.38433468418484 L 247.47474747474746,134.62621721630563 L 247.1247124712471,132.80298428665313 L 247.4247424742474,129.48209573621463 L 246.87468746874686,126.22632264754944 L 245.7245724572457,121.60312486164486 L 246.67466746674666,119.71477647021905 L 247.1247124712471,119.29152596869258 L 248.52485248524852,118.9333909289394 L 250.97509750975095,121.34266301455165 L 252.07520752075206,121.24498982189169 L 252.5252525252525,120.75662385859191 L 258.7258725872587,119.5519878157858 L 259.8759875987599,118.9985063907127 L 262.97629762976294,116.165983803574 L 267.6267626762676,113.13811483111537 L 268.5268526852685,112.19394063540247 L 268.8768876887689,110.72884274550313 L 267.47674767476747,109.06839847028388 L 267.67676767676767,101.90569767522047 L 267.3267326732673,101.25454305748742 L 266.87668766876686,101.15686986482747 L 266.4266426642664,101.84058221344716 L 265.47654765476545,102.45917910029354 L 261.22612261226124,101.44988944280733 L 260.5760576057606,100.66850390152769 L 260.0760076007601,99.59409878226818 L 260.1760176017602,98.32434727768876 L 260.4760476047605,97.11971123488263 L 260.42604260426043,95.88251746118986 L 260.0760076007601,95.39415149789008 L 258.77587758775877,95.98019065384982 L 257.87578757875787,96.04530611562312 L 256.77567756775676,94.93834326547696 L 256.37563756375636,94.0267268006507 L 256.4256425642564,93.34301445203101 L 257.5257525752575,92.2686093327715 L 258.2258225822582,91.19420421351198 L 258.07580758075807,90.15235682513912 L 257.37573757375736,89.89189497804591 L 256.2256225622562,89.95701043981921 L 255.07550755075505,90.25003001779908 L 253.97539753975397,90.05468363247917 L 253.52535253525352,89.46864447651943 L 252.9252925292529,87.51518062332032 L 252.1252125212521,86.76635281292732 L 250.7250725072507,85.85473634810107 L 250.17501750175015,84.94311988327482 L 250.07500750075005,84.09661888022187 L 250.77507750775075,82.69663645209583 L 251.1251125112511,80.31992209737025 L 252.025202520252,78.62692009126435 z" /><g><path fill-rule="evenodd" fill="#D2EBD9" stroke="#A6A6A6" stroke-width="0.25" opacity="1" d="M 252.025202520252,78.62692009126435 L 251.1251125112511,80.31992209737025 L 250.77507750775075,82.69663645209583 L 250.07500750075005,84.09661888022187 L 250.17501750175015,84.94311988327482 L 250.7250725072507,85.85473634810107 L 252.1252125212521,86.76635281292732 L 252.9252925292529,87.51518062332032 L 253.52535253525352,89.46864447651943 L 253.97539753975397,90.05468363247917 L 255.07550755075505,90.25003001779908 L 256.2256225622562,89.95701043981921 L 257.37573757375736,89.89189497804591 L 258.07580758075807,90.15235682513912 L 258.2258225822582,91.19420421351198 L 257.5257525752575,92.2686093327715 L 256.4256425642564,93.34301445203101 L 256.37563756375636,94.0267268006507 L 256.77567756775676,94.93834326547696 L 257.87578757875787,96.04530611562312 L 258.77587758775877,95.98019065384982 L 260.0760076007601,95.39415149789008 L 260.42604260426043,95.88251746118986 L 260.4760476047605,97.11971123488263 L 260.1760176017602,98.32434727768876 L 260.0760076007601,99.59409878226818 L 260.5760576057606,100.66850390152769 L 261.22612261226124,101.44988944280733 L 265.47654765476545,102.45917910029354 L 266.4266426642664,101.84058221344716 L 266.87668766876686,101.15686986482747 L 267.3267326732673,101.25454305748742 L 267.67676767676767,101.90569767522047 L 267.47674767476747,109.06839847028388 L 268.8768876887689,110.72884274550313 L 268.5268526852685,112.19394063540247 L 267.6267626762676,113.13811483111537 L 262.97629762976294,116.165983803574 L 259.8759875987599,118.9985063907127 L 258.7258725872587,119.5519878157858 L 252.5252525252525,120.75662385859191 L 252.07520752075206,121.24498982189169 L 250.97509750975095,121.34266301455165 L 248.52485248524852,118.9333909289394 L 247.1247124712471,119.29152596869258 L 246.67466746674666,119.71477647021905 L 245.7245724572457,121.60312486164486 L 246.87468746874686,126.22632264754944 L 247.4247424742474,129.48209573621463 L 247.1247124712471,132.80298428665313 L 247.47474747474746,134.62621721630563 L 249.77497749774977,136.38433468418484 L 249.72497249724972,139.9982428126032 L 249.37493749374937,141.65868708782244 L 248.27482748274826,144.06795917343467 L 248.82488248824882,145.30515294712745 L 251.77517751775176,148.56092603579265 L 257.07570757075706,151.06787131406483 L 260.42604260426043,153.5422588614504 L 261.42614261426144,154.77945263514314 L 262.47624762476244,156.47245464124904 L 263.57635763576354,157.57941749139522 L 266.67666766676666,158.7514958033147 L 267.5267526752675,159.46776588282103 L 267.47674767476747,160.96542150360702 L 266.8266826682668,163.1467894730127 L 266.97669766976696,164.2211945922722 L 267.5267526752675,165.2304842497584 L 269.62696269626963,166.30488936901793 L 270.92709270927094,172.03505000506865 L 271.22712271227124,173.98851385826777 L 272.27722772277224,176.72336325274654 L 272.27722772277224,177.5698642557995 L 271.57715771577153,178.4489229897391 L 270.22702270227023,179.16519306924542 L 267.7267726772677,179.42565491633866 L 264.97649764976495,180.30471365027825 L 261.92619261926194,179.55588583988526 L 259.4759475947595,179.4582126472253 L 254.22542254225422,180.6628486900314 L 254.07540754075407,179.393097185452 L 253.77537753775377,179.16519306924542 L 252.9252925292529,179.13263533835877 L 251.1251125112511,179.49077037811196 L 249.87498749874987,178.9698466839255 L 248.27482748274826,177.79776837200606 L 247.024702470247,176.56057459831328 L 244.32443244324432,172.84899327723497 L 242.67426742674266,172.1978386595019 L 241.4241424142414,179.36053945456536 L 241.2241224122412,181.80236927106424 L 240.7240724072407,182.74654346677715 L 239.82398239823982,183.46281354628348 L 237.9237923792379,183.95117950958326 L 236.4236423642364,183.8535063169233 L 234.47344734473447,182.97444758298371 L 232.47324732473245,182.68142800500382 L 227.57275727572755,184.01629497135656 L 224.92249224922492,184.14652589490316 L 222.07220722072205,180.04425180318503 L 218.6218621862186,179.23030853101872 L 216.07160716071607,178.15590341175923 L 215.021502150215,178.12334568087257 L 214.17141714171416,179.19775080013207 L 214.27142714271426,180.95586826801127 L 213.97139713971396,181.50934969308437 L 211.87118711871187,181.93260019461084 L 209.3209320932093,180.76052188269136 L 206.87068706870687,178.54659618239904 L 205.92059205920592,176.8210364454065 L 205.4205420542054,174.93268805398068 L 205.1205120512051,174.34664889802096 L 204.37043704370436,173.6303788185146 L 203.2203220322032,172.91410873900827 L 199.16991699169915,171.90481908152205 L 192.96929692969294,172.751320084575 L 183.26832683268327,174.67222620688747 L 181.06810681068106,176.62569006008658 L 177.36773677367736,174.63966847600082 L 175.3175317531753,173.9559561273811 L 172.3172317231723,172.002492274182 L 171.017101710171,171.90481908152205 L 168.36683668366837,172.65364689191506 L 167.76677667766776,172.29551185216187 L 167.4167416741674,169.9839129592096 L 166.9166916691669,168.2909109531037 L 165.26652665266525,165.88163886749146 L 163.96639663966397,165.1002533262118 L 162.6162616261626,165.06769559532515 L 160.5160516051605,166.27233163813128 L 159.66596659665964,166.40256256167788 L 159.46594659465947,165.8490811366048 L 159.9159915991599,163.86305955251905 L 159.66596659665964,161.5189029286801 L 159.96599659965995,159.17474630484116 L 162.86628662866286,155.72362683085606 L 162.9162916291629,154.58410624982324 L 156.76567656765675,155.1050299440097 L 150.7150715071507,153.5422588614504 L 143.1143114311431,154.64922171159654 L 141.9141914191419,154.55154851893658 L 137.96379637963796,152.85854651283069 L 139.36393639363936,151.62135273913793 L 140.86408640864084,150.57950535076506 L 141.86418641864185,150.44927442721846 L 144.1144114411441,151.65391047002458 L 145.3145314531453,149.83067754037208 L 145.7145714571457,146.1516539501804 L 145.66456645664564,141.6912448187091 L 145.16451645164517,136.44945014595814 L 145.66456645664564,134.49598629275903 L 146.5146514651465,133.12856159551964 L 147.56475647564756,132.24950286158003 L 148.46484648464846,131.07742454966058 L 149.26492649264927,125.5751680298164 L 150.16501650165014,122.61241451913108 L 150.76507650765075,121.99381763228469 L 151.3151315131513,122.15660628671795 L 151.86518651865185,122.80776090445099 L 152.3152315231523,123.68681963839059 L 153.015301530153,124.40308971789693 L 153.81538153815382,124.11007013991706 L 154.56545654565457,123.45891552218403 L 155.26552655265525,123.1333382133175 L 155.86558655865585,123.39380006041071 L 156.76567656765675,124.33797425612363 L 157.46574657465746,124.24030106346366 L 159.11591159115912,122.09149082494464 L 160.6160616061606,121.4403362072116 L 163.76637663766377,121.14731662923174 L 169.01690169016902,118.90083319805275 L 171.1171117111711,116.2310992653473 L 174.76747674767475,112.9102107149088 L 177.1177117711771,108.80793662319067 L 177.96779677967797,107.86376242747777 L 179.36793679367935,107.34283873329133 L 180.06800680068005,107.96143562013772 L 181.5181518151815,111.34743963234952 L 182.86828682868287,112.68230659870224 L 184.26842684268425,112.68230659870224 L 187.16871687168717,111.86836332653594 L 188.56885688568855,112.29161382806242 L 189.7189718971897,113.20323029288868 L 190.7190719071907,114.57065499012805 L 193.1193119311931,118.9333909289394 L 193.46934693469345,120.26825789529214 L 193.8193819381938,124.40308971789693 L 194.5194519451945,126.35655357109604 L 195.4195419541954,128.1472287698619 L 196.31963196319631,129.35186481266803 L 199.019901990199,130.75184724079404 L 202.27022702270227,130.45882766281417 L 205.5205520552055,129.05884523468816 L 212.17121712171215,123.75193510016389 L 213.9213921392139,121.21243209100504 L 214.67146714671466,117.9892167332265 L 213.7213721372137,114.5380972592414 L 211.62116211621162,112.58463340604229 L 209.2209220922092,111.02186232348299 L 207.6207620762076,108.80793662319067 L 207.37073707370735,107.14749234797142 L 207.37073707370735,103.85916152841958 L 206.37063706370637,100.66850390152769 L 206.37063706370637,99.00805962630844 L 207.77077707770775,94.44997730217717 L 207.67076707670765,92.62674437252467 L 207.07070707070707,89.33841355297282 L 207.07070707070707,82.14315502702276 L 205.72057205720571,79.50597882520395 L 201.92019201920192,74.88278103929937 L 200.57005700570056,69.02238947970204 L 196.81968196819682,59.743436177006245 L 196.1196119611961,54.631872427801895 L 194.66946694669466,51.864465302436486 L 198.06980698069805,50.464482874310455 L 200.3200320032003,50.59471379785706 L 202.17021702170217,51.63656118622992 L 203.020302030203,53.13421680701591 L 204.3204320432043,56.650451742774315 L 205.3205320532053,57.78997232380713 L 208.4208420842084,59.450416599026376 L 212.57125712571255,63.25967111276465 L 214.17141714171416,63.61780615251782 L 219.67196719671966,63.09688245833139 L 224.47244724472446,63.650363883404474 L 225.67256725672567,64.62709581000404 L 227.1227122712271,68.72936990172217 L 228.27282728272826,70.25958325339481 L 230.72307230723072,69.60842863566177 L 232.77327732773276,68.3061194001957 L 234.82348234823482,67.94798436044252 L 237.3237323732373,70.25958325339481 L 239.22392239223922,71.49677702708759 L 245.27452745274528,72.37583576102719 L 247.27472747274726,73.77581818915321 L 252.025202520252,78.62692009126435 z" /><path fill-rule="evenodd" fill="#D2EBD9" stroke="#A6A6A6" stroke-width="0.25" opacity="1" d="M 166.1166116611661,88.26400843371331 L 168.26682668266827,86.21287138785425 L 170.76707670767075,87.54773835420697 L 172.3172317231723,90.73839598109886 L 171.6171617161716,94.25463091685727 L 169.3169316931693,94.80811234193034 L 167.06670667066706,93.99416906976406 L 165.66656665666565,91.84535883124502 L 166.1166116611661,88.26400843371331 z" /></g><path fill-rule="evenodd" fill="#D2EBD9" stroke="#A6A6A6" stroke-width="0.25" opacity="1" d="M 292.67926792679265,63.975941192270994 L 292.77927792779275,62.836420611238175 L 293.17931793179315,61.664342299318704 L 294.8294829482948,59.48297432991303 L 296.57965796579657,58.40856921065352 L 298.42984298429843,58.11554963267365 L 300.4300430043004,58.27833828710691 L 305.5305530553055,60.036455754986115 L 306.7306730673067,60.00389802409946 L 307.93079307930793,57.95276097824039 L 308.63086308630864,54.957449736668416 L 309.6309630963096,51.99469622598309 L 311.6311631163116,50.07379010367063 L 328.1828182818282,48.60869221377129 L 329.08290829082904,48.120326250471514 L 329.68296829682964,47.40405617096517 L 329.9329932993299,46.00407374283914 L 329.2329232923292,44.24595627495994 L 328.98289828982894,42.87853157772056 L 329.2329232923292,39.81810487437528 L 329.88298829882984,38.027429675609426 L 338.58385838583854,30.701940226112747 L 341.18411841184115,27.641513522767468 L 348.6348634863486,15.39980670938635 L 351.3351335133513,12.209149082494465 L 354.5854585458546,9.864992458655527 L 361.8361836183618,6.739450293536945 L 361.6361636163616,8.88826053205597 L 362.08620862086207,12.14403362072116 L 361.38613861386136,14.19517066658023 L 361.88618861886187,14.943998476973224 L 363.986398639864,16.734673675739078 L 364.2864286428643,17.61373240967868 L 364.2864286428643,18.395117950958326 L 362.58625862586257,20.250908611497486 L 361.58615861586156,21.553217846963562 L 361.4361436143614,22.106699272036643 L 362.9362936293629,24.678760012082144 L 364.4864486448645,26.14385790198148 L 364.83648364836483,27.153147559467687 L 364.73647364736473,28.292668140500506 L 362.8362836283628,29.95311241571975 L 362.2362236223622,30.92984434231931 L 362.036203620362,32.4274999631053 L 361.6361636163616,33.56702054413812 L 361.6361636163616,34.38096381630441 L 362.18621862186217,34.9995607031508 L 362.986298629863,35.52048439733723 L 363.5363536353635,36.39954313127683 L 363.9363936393639,38.3855647153626 L 363.8363836383638,39.45996983462211 L 363.1363136313631,40.59949041565493 L 360.9360936093609,41.315760495161264 L 358.88588858885885,43.138993424813776 L 358.6358635863586,48.51101902111134 L 359.6359635963596,51.310983877363405 L 358.88588858885885,52.906312690809344 L 356.63566356635664,53.459794115882424 L 356.63566356635664,54.7621033513485 L 358.08580858085804,57.36672182228065 L 358.5358535853585,59.25507021370647 L 358.5358535853585,61.79457322286532 L 358.8358835883588,62.543401033258306 L 361.4361436143614,63.48757522897122 L 370.4370437043704,64.82244219532394 L 370.78707870787076,72.53862441546045 L 371.4371437143714,74.3944150759996 L 371.68716871687167,77.0315912778184 L 371.48714871487147,79.99434478850372 L 371.6371637163716,81.58967360194967 L 371.5371537153715,82.76175191386915 L 372.9372937293729,87.51518062332032 L 373.1873187318732,88.03610431750676 L 374.7874787478748,89.7616640544993 L 373.4873487348735,92.3337247945448 L 372.7372737273727,93.11511033582445 L 371.08710871087106,94.31974637863057 L 370.3370337033703,95.23136284345682 L 368.8368836883688,96.37088342448963 L 364.33643364336433,94.93834326547696 L 361.78617861786176,93.79882268444413 L 360.88608860886086,93.63603403001088 L 358.58585858585855,96.17553703916973 L 357.7357735773577,97.51040400552246 L 356.7856785678568,97.47784627463581 L 355.7855785578558,96.79413392601612 L 352.68526852685267,93.01743714316449 L 351.28512851285126,91.81280110035837 L 350.03500350035,91.42210832971855 L 348.2348234823482,90.11979909425247 L 346.73467346734674,89.33841355297282 L 333.58335833583357,90.41281867223233 L 326.4826482648265,88.39423935725992 L 324.88248824882487,87.58029608509362 L 322.4322432243224,87.61285381598027 L 321.48214821482145,88.65470120435313 L 320.48204820482044,90.64072278843891 L 319.4319431943194,92.2686093327715 L 317.3817381738174,93.76626495355748 L 316.3816381638164,93.92905360799074 L 315.9315931593159,93.24534125937106 L 315.6815681568157,91.91047429301832 L 314.58145814581457,90.96630009730542 L 314.031403140314,90.25003001779908 L 313.78137813781376,89.33841355297282 L 313.8313831383138,88.65470120435313 L 314.2314231423142,87.87331566307348 L 313.9313931393139,86.86402600558728 L 313.38133813381336,86.08264046430763 L 309.0809080908091,83.93383022578861 L 306.1806180618062,81.55711587106302 L 303.9303930393039,78.88738193835756 L 302.6302630263026,77.97576547353131 L 301.28012801280124,77.7153036264381 L 300.0800080008001,77.94320774264466 L 298.0798079807981,77.5850727028915 L 297.3797379737974,76.8362448924985 L 297.2797279727973,75.63160884969237 L 297.3797379737974,74.23162642156635 L 297.1797179717972,72.92931718610026 L 295.2295229522952,69.54331317388846 L 294.17941794179416,66.84102151029636 L 292.67926792679265,63.975941192270994 z" /><path fill-rule="evenodd" fill="#D2EBD9" stroke="#A6A6A6" stroke-width="0.25" opacity="1" d="M 361.8361836183618,6.739450293536945 L 363.1863186318632,5.437141058070868 L 365.7865786578658,1.6604442752192472 L 367.2367236723672,0.0 L 368.48684868486845,0.22790411620656334 L 369.5369536953695,1.1720783119194687 L 370.6370637063706,1.8232329296525067 L 371.38713871387137,1.6278865443325952 L 372.8372837283728,0.5534814250730824 L 373.5873587358736,0.29301957797986716 L 374.3874387438744,0.6511546177330381 L 375.03750375037504,2.637176201818804 L 375.53755375537554,3.5813503975317094 L 377.8377837783778,5.665045174277432 L 380.4380438043804,7.195258525950071 L 383.0883088308831,8.04175952900302 L 389.18891889188916,7.716182220136502 L 390.58905890589057,8.139432721662976 L 392.1892189218922,9.57197288067566 L 393.93939393939394,13.804477895940408 L 395.13951395139514,15.660268556479567 L 396.6396639663966,16.343980905099254 L 397.58975897589755,15.595153094706262 L 398.4398439843984,14.5533057063334 L 399.68996899689967,14.325401590126837 L 401.040104010401,14.618421168106705 L 402.44024402440243,14.618421168106705 L 405.1405140514051,13.6742469723938 L 406.99069906990695,12.176591351607811 L 409.89098909890987,7.716182220136502 L 411.4911491149115,5.827833828710691 L 413.34133413341334,4.916217363884438 L 419.6919691969197,4.525524593244615 L 431.7931793179318,0.032557730886651905 L 434.39343934393435,1.725559736992551 L 433.04330433043305,5.567371981617476 L 432.4932493249325,8.04175952900302 L 432.44324432443244,9.864992458655527 L 433.14331433143315,11.134743963234952 L 434.09340934093404,11.46032127210147 L 435.1435143514351,11.557994464761427 L 436.1436143614361,12.046360428061204 L 436.69366936693666,12.730072776680895 L 436.9436943694369,13.381227394413933 L 437.09370937093706,16.40909636687256 L 436.7436743674367,17.418386024358767 L 436.29362936293626,20.674159113023958 L 436.49364936493646,22.106699272036643 L 436.89368936893686,23.278777583956114 L 437.4437443744374,24.12527858700906 L 438.7438743874387,25.427587822475136 L 445.2445244524452,27.739186715427422 L 446.59465946594656,29.23684233621341 L 446.69466946694666,31.09263299675257 L 445.79457945794576,35.26002255024401 L 446.19461946194616,37.734410097629556 L 446.9446944694469,39.03671933309563 L 448.044804480448,39.915778067035234 L 450.1950195019502,41.0227409171814 L 448.5448544854485,42.55295426885404 L 447.89478947894787,42.87853157772056 L 448.9448944894489,43.49712846456694 L 450.3950395039504,43.72503258077351 L 449.5949594959496,44.44130266027985 L 441.994199419942,47.50172936362513 L 437.6437643764376,48.34823036667808 L 434.89348934893485,47.66451801805839 L 431.94319431943194,46.13430466638575 L 430.1430143014301,46.459881975252266 L 428.89288928892887,48.478461290224686 L 428.39283928392837,48.90171179175116 L 427.09270927092706,48.673807675544595 L 426.5426542654265,48.83659632997786 L 426.2426242624262,49.65053960214416 L 426.7426742674267,51.571445724456616 L 427.49274927492746,53.03654361435595 L 430.1930193019302,55.41325796908154 L 429.9429942994299,57.56206820760057 L 428.7428742874287,59.189954751933165 L 428.19281928192817,59.28762794459312 L 426.8426842684268,58.082991901787 L 426.042604260426,58.082991901787 L 424.8424842484248,58.44112694154017 L 420.4420442044204,60.622494910945846 L 414.0914091409141,65.0503463115305 L 412.54125412541254,64.9852308497572 L 411.0911091109111,64.39919169379746 L 409.9409940994099,63.32478657453795 L 410.3410341034103,59.7759939078929 L 409.69096909690967,59.222512482819816 L 400.990099009901,62.575958764144964 L 396.9396939693969,61.143418605132275 L 395.23952395239525,61.63178456843205 L 388.28882888288825,61.07830314335897 L 385.8385838583858,62.282939186165095 L 381.6381638163816,63.19455565099135 L 379.8379837983798,62.510843302371654 L 377.8377837783778,62.25038145527844 L 375.53755375537554,62.543401033258306 L 374.2874287428743,62.96665153478478 L 373.4873487348735,63.61780615251782 L 370.4370437043704,64.82244219532394 L 361.4361436143614,63.48757522897122 L 358.8358835883588,62.543401033258306 L 358.5358535853585,61.79457322286532 L 358.5358535853585,59.25507021370647 L 358.08580858085804,57.36672182228065 L 356.63566356635664,54.7621033513485 L 356.63566356635664,53.459794115882424 L 358.88588858885885,52.906312690809344 L 359.6359635963596,51.310983877363405 L 358.6358635863586,48.51101902111134 L 358.88588858885885,43.138993424813776 L 360.9360936093609,41.315760495161264 L 363.1363136313631,40.59949041565493 L 363.8363836383638,39.45996983462211 L 363.9363936393639,38.3855647153626 L 363.5363536353635,36.39954313127683 L 362.986298629863,35.52048439733723 L 362.18621862186217,34.9995607031508 L 361.6361636163616,34.38096381630441 L 361.6361636163616,33.56702054413812 L 362.036203620362,32.4274999631053 L 362.2362236223622,30.92984434231931 L 362.8362836283628,29.95311241571975 L 364.73647364736473,28.292668140500506 L 364.83648364836483,27.153147559467687 L 364.4864486448645,26.14385790198148 L 362.9362936293629,24.678760012082144 L 361.4361436143614,22.106699272036643 L 361.58615861586156,21.553217846963562 L 362.58625862586257,20.250908611497486 L 364.2864286428643,18.395117950958326 L 364.2864286428643,17.61373240967868 L 363.986398639864,16.734673675739078 L 361.88618861886187,14.943998476973224 L 361.38613861386136,14.19517066658023 L 362.08620862086207,12.14403362072116 L 361.6361636163616,8.88826053205597 L 361.8361836183618,6.739450293536945 z" /><path fill-rule="evenodd" fill="#D2EBD9" stroke="#A6A6A6" stroke-width="0.25" opacity="1" d="M 441.74417441744174,194.43476885508517 L 444.2444244424442,203.03000980916127 L 461.2961296129613,218.36470105677432 L 462.7462746274627,220.8065308732732 L 463.6463646364636,224.22509261637165 L 466.996699669967,230.57385013926879 L 468.34683468346833,233.82962322793398 L 472.9472947294729,246.72248465904812 L 475.39753975397537,258.2804791238096 L 476.7476747674767,261.6013676742481 L 476.047604760476,264.30365933784014 L 477.74777477747773,266.5827004999058 L 482.1482148214821,269.05708804729136 L 491.3491349134913,268.8942993928581 L 492.9492949294929,271.07566736226374 L 491.09910991099105,270.9779941696038 L 485.39853985398537,273.25703533166944 L 487.8987898789879,274.52678683624885 L 494.2494249424942,275.0802682613219 L 497.6997699769977,277.9453485793473 L 499.64996499649965,276.70815480565454 L 500.0,279.6383505854532 L 499.14991499149914,280.7127557047127 L 497.0997099709971,282.4383154417053 L 496.1496149614961,283.54527829185145 L 493.59935993599356,289.56845850588206 L 491.89918991899185,291.39169143553454 L 488.34883488348834,293.2474820960737 L 486.8486848684868,296.1451201449857 L 483.99839983998396,290.77309454868816 L 481.6481648164816,287.8428987688895 L 478.5978597859786,285.75920399214374 L 475.3475347534753,284.68479887288424 L 463.046304630463,287.7126678453429 L 450.94509450945094,288.46149565573586 L 438.8438843884388,291.52192235908115 L 415.79157915791575,289.99170900740853 L 401.7401740174017,291.26146051198793 L 400.1400140014001,291.8800573988343 L 396.8396839683968,293.9963099064667 L 393.03930393039303,295.3962923345927 L 389.38893889388936,299.36833550276424 L 388.18881888188815,295.8846582978925 L 388.48884888488845,294.28932948444657 L 389.7389738973897,291.2289027811013 L 390.1390139013901,289.56845850588206 L 390.08900890089006,287.7777833071162 L 390.4390439043904,284.2289906404711 L 389.8389838983898,283.3173741756449 L 388.68886888688866,284.6522411419976 L 388.08880888088805,285.0429339126374 L 387.58875887588755,285.01037618175076 L 386.98869886988695,284.68479887288424 L 386.1386138613861,283.41504736830484 L 386.58865886588654,280.2569474722996 L 385.2885288528853,278.8569650441736 L 383.8883888388839,277.880233117574 L 383.6883688368837,277.4244248851609 L 383.7883788378838,276.96861665274776 L 384.43844384438444,276.08955791880817 L 385.0885088508851,275.82909607171496 L 386.58865886588654,275.9267692643749 L 389.8389838983898,275.4058455701885 L 390.5390539053905,275.11282599220857 L 390.78907890789077,274.2988827200423 L 390.08900890089006,272.3454188668432 L 386.78867886788674,265.6385263041929 L 386.28862886288624,262.0571759066612 L 387.3387338733873,260.3316161696686 L 388.38883888388835,259.51767289750234 L 388.88888888888886,259.3548842430691 L 394.33943394339434,261.1455594418349 L 395.13951395139514,257.1084008118901 L 395.68956895689564,255.70841838376407 L 397.08970897089705,254.11308957031812 L 398.18981898189816,253.65728133790498 L 400.59005900590057,253.46193495258507 L 401.3901390139014,252.7131071421921 L 401.8401840184018,251.86660613913912 L 401.1401140114011,247.40619700766783 L 401.7401740174017,246.3317918884083 L 402.04020402040203,244.96436719116892 L 401.7401740174017,244.2480971116626 L 401.040104010401,243.85740434102277 L 396.8396839683968,243.23880745417637 L 391.5891589158916,239.95047663462455 L 391.039103910391,239.1690910933449 L 390.78907890789077,236.8574922003926 L 390.8390839083908,228.1971357845432 L 391.7391739173917,226.08088327691084 L 391.7391739173917,225.10415135031127 L 390.03900390039,223.1181297662255 L 389.58895889588956,221.84837826164608 L 389.3389338933893,219.69956802312706 L 389.08890889088906,219.048413405394 L 388.5388538853885,218.46237424943428 L 386.08860886088604,217.5182000537214 L 383.2883288328833,215.30427435342904 L 385.23852385238524,213.12290638402337 L 385.4885488548855,211.16944253082426 L 385.9385938593859,210.3880569895446 L 386.2386238623862,207.13228390087943 L 386.6386638663866,204.78812727704047 L 387.08870887088705,203.9741840048742 L 387.7387738773877,203.9090685431009 L 388.2388238823882,204.20208812108075 L 388.98889888988896,204.364876775514 L 390.68906890689067,204.364876775514 L 392.7892789278928,205.34160870211358 L 393.83938393839384,205.63462828009344 L 394.5894589458946,205.6671860109801 L 396.5396539653965,205.27649324034027 L 398.5398539853985,204.07185719753414 L 399.58995899589956,202.4765283840882 L 400.7400740074007,201.76025830458184 L 403.44034403440344,201.49979645748863 L 441.74417441744174,194.43476885508517 z" /><path fill-rule="evenodd" fill="#D2EBD9" stroke="#A6A6A6" stroke-width="0.25" opacity="1" d="M 447.5447544754475,100.37548432354782 L 444.3444344434443,100.04990701468131 L 432.7932793279328,103.89171925930623 L 430.7930793079308,103.40335329600644 L 429.0929092909291,103.63125741221302 L 428.2428242824282,104.05450791373949 L 427.59275927592756,104.67310480058588 L 427.2427242724272,107.40795419506463 L 425.8425842584258,108.93816754673728 L 418.8418841884188,108.87305208496397 L 417.6417641764176,109.78466854979023 L 417.09170917091706,110.56605409106987 L 416.7416741674167,110.66372728372983 L 416.1416141614161,110.63116955284318 L 414.9414941494149,109.06839847028388 L 413.94139413941394,108.67770569964406 L 412.34123412341233,108.90560981585062 L 410.1410141014101,110.4032654366366 L 409.29092909290927,110.59861182195652 L 408.3408340834083,110.01257266599679 L 407.09070907090705,107.14749234797142 L 406.39063906390635,106.10564495959856 L 404.84048404840485,105.9428563051653 L 402.74027402740273,108.02655108191102 L 399.18991899189916,107.37539646417798 L 398.58985898589856,107.7660892348178 L 397.68976897689765,107.86376242747777 L 396.88968896889685,107.53818511861124 L 395.9395939593959,106.75679957733159 L 394.73947394739474,104.21729656817274 L 394.03940394039404,101.7429090207872 L 391.8391839183918,99.52898332049487 L 386.98869886988695,97.86853904527563 L 384.5884588458846,97.90109677616228 L 384.3884388438844,98.48713593212202 L 383.53835383538353,99.65921424404148 L 382.8882888288829,99.72432970581478 L 381.988198819882,99.20340601162836 L 381.08810881088107,97.83598131438897 L 380.3380338033803,97.05459577310933 L 379.5379537953795,96.95692258044937 L 378.38783878387835,97.57551946729576 L 377.98779877987795,97.41273081286249 L 378.28782878287825,94.05928453153736 L 378.18781878187815,92.78953302695793 L 377.5377537753775,91.48722379149186 L 377.037703770377,90.83606917375882 L 374.7874787478748,89.7616640544993 L 373.1873187318732,88.03610431750676 L 372.9372937293729,87.51518062332032 L 371.5371537153715,82.76175191386915 L 371.6371637163716,81.58967360194967 L 371.48714871487147,79.99434478850372 L 371.68716871687167,77.0315912778184 L 371.4371437143714,74.3944150759996 L 370.78707870787076,72.53862441546045 L 370.4370437043704,64.82244219532394 L 373.4873487348735,63.61780615251782 L 374.2874287428743,62.96665153478478 L 375.53755375537554,62.543401033258306 L 377.8377837783778,62.25038145527844 L 379.8379837983798,62.510843302371654 L 381.6381638163816,63.19455565099135 L 385.8385838583858,62.282939186165095 L 388.28882888288825,61.07830314335897 L 395.23952395239525,61.63178456843205 L 396.9396939693969,61.143418605132275 L 400.990099009901,62.575958764144964 L 409.69096909690967,59.222512482819816 L 410.3410341034103,59.7759939078929 L 409.9409940994099,63.32478657453795 L 411.0911091109111,64.39919169379746 L 412.54125412541254,64.9852308497572 L 414.0914091409141,65.0503463115305 L 420.4420442044204,60.622494910945846 L 424.8424842484248,58.44112694154017 L 426.042604260426,58.082991901787 L 426.8426842684268,58.082991901787 L 428.19281928192817,59.28762794459312 L 428.7428742874287,59.189954751933165 L 429.9429942994299,57.56206820760057 L 430.1930193019302,55.41325796908154 L 427.49274927492746,53.03654361435595 L 426.7426742674267,51.571445724456616 L 426.2426242624262,49.65053960214416 L 426.5426542654265,48.83659632997786 L 427.09270927092706,48.673807675544595 L 428.39283928392837,48.90171179175116 L 428.89288928892887,48.478461290224686 L 430.1430143014301,46.459881975252266 L 431.94319431943194,46.13430466638575 L 434.89348934893485,47.66451801805839 L 437.6437643764376,48.34823036667808 L 441.994199419942,47.50172936362513 L 449.5949594959496,44.44130266027985 L 450.3950395039504,43.72503258077351 L 461.7961796179618,45.48315004865271 L 466.69666966696667,47.50172936362513 L 468.54685468546853,48.83659632997786 L 469.54695469546954,50.82261791406362 L 468.84688468846883,53.752813693862294 L 467.5967596759676,55.217911583761634 L 459.5959595959596,58.47368467242682 L 458.94589458945893,59.32018567547977 L 458.5458545854585,61.40388045222549 L 459.74597459745974,66.64567512497645 L 459.2959295929593,70.22702552250816 L 457.8457845784578,71.43166156531427 L 456.3456345634563,72.05025845216066 L 456.2456245624562,76.31532119831206 L 456.7456745674567,80.2222489047103 L 456.2456245624562,84.552427112635 L 452.24522452245225,90.15235682513912 L 447.5447544754475,100.37548432354782 z" /><path fill-rule="evenodd" fill="#D2EBD9" stroke="#A6A6A6" stroke-width="0.25" opacity="1" d="M 440.3940394039404,177.8303261028927 L 418.19181918191816,173.8908406656078 L 413.7913791379138,172.78387781546166 L 412.84128412841284,172.23039639038856 L 411.84118411841183,171.38389538733563 L 410.5910591059106,170.01647069009624 L 408.8408840884088,168.9095078399501 L 408.19081908190816,168.87695010906344 L 407.69076907690766,168.356026414877 L 407.49074907490746,167.31417902650415 L 408.040804080408,163.11423174212604 L 407.69076907690766,161.61657612134005 L 405.8405840584058,161.7793647757733 L 404.84048404840485,162.2677307390731 L 401.8401840184018,162.82121216414617 L 398.08980898089806,165.75140794394486 L 395.78957895789574,166.27233163813128 L 394.1894189418942,159.98868957700745 L 391.8391839183918,155.46316498376285 L 384.6884688468847,153.70504751588365 L 381.9381938193819,154.9422412895764 L 380.98809880988097,155.6910690999694 L 380.2380238023802,155.59339590730946 L 379.3379337933793,154.6166639807099 L 378.08780878087805,151.19810223761144 L 377.18771877187714,149.83067754037208 L 376.5376537653765,149.50510023150554 L 373.63736373637363,149.7330043477121 L 370.6370637063706,150.80740946697162 L 367.9367936793679,152.33762281864426 L 365.23652365236524,151.2306599684981 L 364.1864186418642,150.44927442721846 L 363.7863786378638,150.51438988899176 L 362.38623862386237,151.75158366268454 L 360.38603860386036,151.32833316115804 L 358.6358635863586,149.30975384618563 L 357.8357835783578,148.9190610755458 L 357.13571357135714,149.40742703884558 L 356.63566356635664,150.51438988899176 L 356.03560356035604,151.2957754302714 L 354.8854885488549,151.52367954647795 L 353.38533853385337,150.97019812140488 L 346.4846484648465,145.82607664131388 L 345.0845084508451,145.2074797544675 L 343.48434843484347,144.75167152205438 L 341.1341134113411,144.88190244560099 L 338.28382838283824,143.87261278811476 L 340.98409840984095,134.20296671477914 L 340.98409840984095,133.06344613374634 L 335.6835683568357,125.37982164449649 L 332.98329832983296,120.561277473272 L 330.98309830983095,116.165983803574 L 331.48314831483145,104.73822026235918 L 333.58335833583357,90.41281867223233 L 346.73467346734674,89.33841355297282 L 348.2348234823482,90.11979909425247 L 350.03500350035,91.42210832971855 L 351.28512851285126,91.81280110035837 L 352.68526852685267,93.01743714316449 L 355.7855785578558,96.79413392601612 L 356.7856785678568,97.47784627463581 L 357.7357735773577,97.51040400552246 L 358.58585858585855,96.17553703916973 L 360.88608860886086,93.63603403001088 L 361.78617861786176,93.79882268444413 L 364.33643364336433,94.93834326547696 L 368.8368836883688,96.37088342448963 L 370.3370337033703,95.23136284345682 L 371.08710871087106,94.31974637863057 L 372.7372737273727,93.11511033582445 L 373.4873487348735,92.3337247945448 L 374.7874787478748,89.7616640544993 L 377.037703770377,90.83606917375882 L 377.5377537753775,91.48722379149186 L 378.18781878187815,92.78953302695793 L 378.28782878287825,94.05928453153736 L 377.98779877987795,97.41273081286249 L 378.38783878387835,97.57551946729576 L 379.5379537953795,96.95692258044937 L 380.3380338033803,97.05459577310933 L 381.08810881088107,97.83598131438897 L 381.988198819882,99.20340601162836 L 382.8882888288829,99.72432970581478 L 383.53835383538353,99.65921424404148 L 384.3884388438844,98.48713593212202 L 384.5884588458846,97.90109677616228 L 386.98869886988695,97.86853904527563 L 391.8391839183918,99.52898332049487 L 394.03940394039404,101.7429090207872 L 394.73947394739474,104.21729656817274 L 395.9395939593959,106.75679957733159 L 396.88968896889685,107.53818511861124 L 397.68976897689765,107.86376242747777 L 398.58985898589856,107.7660892348178 L 399.18991899189916,107.37539646417798 L 402.74027402740273,108.02655108191102 L 404.84048404840485,105.9428563051653 L 406.39063906390635,106.10564495959856 L 407.09070907090705,107.14749234797142 L 408.3408340834083,110.01257266599679 L 409.29092909290927,110.59861182195652 L 410.1410141014101,110.4032654366366 L 412.34123412341233,108.90560981585062 L 413.94139413941394,108.67770569964406 L 414.9414941494149,109.06839847028388 L 416.1416141614161,110.63116955284318 L 416.7416741674167,110.66372728372983 L 417.09170917091706,110.56605409106987 L 417.6417641764176,109.78466854979023 L 418.8418841884188,108.87305208496397 L 425.8425842584258,108.93816754673728 L 427.2427242724272,107.40795419506463 L 427.59275927592756,104.67310480058588 L 428.2428242824282,104.05450791373949 L 429.0929092909291,103.63125741221302 L 430.7930793079308,103.40335329600644 L 432.7932793279328,103.89171925930623 L 444.3444344434443,100.04990701468131 L 447.5447544754475,100.37548432354782 L 445.59455945594556,104.41264295349266 L 444.6444644464446,111.44511282500947 L 445.49454945494546,119.06362185248601 L 450.2950295029503,130.42626993192752 L 440.3940394039404,177.8303261028927 z" /><path fill-rule="evenodd" fill="#D2EBD9" stroke="#A6A6A6" stroke-width="0.25" opacity="1" d="M 441.74417441744174,194.43476885508517 L 403.44034403440344,201.49979645748863 L 400.7400740074007,201.76025830458184 L 399.58995899589956,202.4765283840882 L 398.5398539853985,204.07185719753414 L 396.5396539653965,205.27649324034027 L 394.5894589458946,205.6671860109801 L 393.83938393839384,205.63462828009344 L 392.7892789278928,205.34160870211358 L 390.68906890689067,204.364876775514 L 388.98889888988896,204.364876775514 L 388.2388238823882,204.20208812108075 L 387.7387738773877,203.9090685431009 L 387.08870887088705,203.9741840048742 L 386.6386638663866,204.78812727704047 L 386.2386238623862,207.13228390087943 L 385.9385938593859,210.3880569895446 L 385.4885488548855,211.16944253082426 L 385.23852385238524,213.12290638402337 L 383.2883288328833,215.30427435342904 L 381.2381238123812,215.43450527697564 L 380.4380438043804,215.27171662254239 L 376.2876287628763,213.51359915466318 L 373.1373137313731,211.85315487944393 L 371.88718871887187,211.56013530146407 L 370.28702870287026,211.78803941767063 L 369.38693869386935,212.53686722806364 L 367.68676867686764,212.66709815161025 L 363.8863886388639,209.83457556447152 L 363.8863886388639,207.39274574797264 L 363.4863486348635,206.02532105073325 L 360.2360236023602,204.5602231608339 L 355.985598559856,206.15555197427986 L 353.9353935393539,209.21597867762515 L 352.68526852685267,209.60667144826496 L 351.1351135113511,209.21597867762515 L 346.4846484648465,206.51368701403302 L 340.03400340034,204.82068500792712 L 337.93379337933794,203.09512527093457 L 337.13371337133714,201.92304695901512 L 336.7836783678368,200.9137573015289 L 336.73367336733673,200.19748722202257 L 337.23372337233724,198.30913883059677 L 336.8836883688369,196.94171413335738 L 330.38303830383035,196.38823270828428 L 328.68286828682864,195.4440585125714 L 328.0828082808281,194.69523070217838 L 326.1326132613261,194.076633815332 L 325.2325232523252,193.16501735050576 L 324.4324432443244,187.53252990711496 L 322.2322232223222,185.70929697746246 L 320.68206820682065,186.94649075115524 L 319.0819081908191,186.62091344228872 L 316.6816681668167,184.50466093465636 L 315.981598159816,184.24419908756312 L 315.031503150315,183.56048673894344 L 314.38143814381436,182.71398573589047 L 313.78137813781376,180.89075280623797 L 313.1313131313131,179.65355903254522 L 310.88108810881084,177.146613754273 L 310.4310431043104,174.83501486132073 L 311.031103110311,173.72805201117455 L 311.18111811181114,169.88623976654964 L 311.7311731173117,167.86766045157722 L 311.5311531153115,166.63046667788444 L 311.08110811081104,165.9141965983781 L 309.68096809680964,165.13281105709845 L 308.83088308830884,164.44909870847877 L 308.23082308230823,163.24446266567264 L 308.33083308330833,162.3328462008464 L 309.0809080908091,161.8444802375466 L 311.48114811481145,161.9095956993199 L 313.1313131313131,161.5840183904534 L 314.4314431443144,161.7793647757733 L 321.38213821382135,160.73751738740046 L 322.38223822382236,160.11892050055405 L 323.4323432343234,159.20730403572782 L 324.032403240324,157.1236092589821 L 325.4825482548255,155.13758767489634 L 326.4826482648265,154.77945263514314 L 328.9328932893289,154.7468949042565 L 329.68296829682964,153.8027207085436 L 330.5330533053305,151.32833316115804 L 333.033303330333,148.23534872692613 L 338.28382838283824,143.87261278811476 L 341.1341134113411,144.88190244560099 L 343.48434843484347,144.75167152205438 L 345.0845084508451,145.2074797544675 L 346.4846484648465,145.82607664131388 L 353.38533853385337,150.97019812140488 L 354.8854885488549,151.52367954647795 L 356.03560356035604,151.2957754302714 L 356.63566356635664,150.51438988899176 L 357.13571357135714,149.40742703884558 L 357.8357835783578,148.9190610755458 L 358.6358635863586,149.30975384618563 L 360.38603860386036,151.32833316115804 L 362.38623862386237,151.75158366268454 L 363.7863786378638,150.51438988899176 L 364.1864186418642,150.44927442721846 L 365.23652365236524,151.2306599684981 L 367.9367936793679,152.33762281864426 L 370.6370637063706,150.80740946697162 L 373.63736373637363,149.7330043477121 L 376.5376537653765,149.50510023150554 L 377.18771877187714,149.83067754037208 L 378.08780878087805,151.19810223761144 L 379.3379337933793,154.6166639807099 L 380.2380238023802,155.59339590730946 L 380.98809880988097,155.6910690999694 L 381.9381938193819,154.9422412895764 L 384.6884688468847,153.70504751588365 L 391.8391839183918,155.46316498376285 L 394.1894189418942,159.98868957700745 L 395.78957895789574,166.27233163813128 L 398.08980898089806,165.75140794394486 L 401.8401840184018,162.82121216414617 L 404.84048404840485,162.2677307390731 L 405.8405840584058,161.7793647757733 L 407.69076907690766,161.61657612134005 L 408.040804080408,163.11423174212604 L 407.49074907490746,167.31417902650415 L 407.69076907690766,168.356026414877 L 408.19081908190816,168.87695010906344 L 408.8408840884088,168.9095078399501 L 410.5910591059106,170.01647069009624 L 411.84118411841183,171.38389538733563 L 412.84128412841284,172.23039639038856 L 413.7913791379138,172.78387781546166 L 418.19181918191816,173.8908406656078 L 440.3940394039404,177.8303261028927 L 438.9438943894389,184.70000731997627 L 441.74417441744174,194.43476885508517 z" /><g><path fill-rule="evenodd" fill="#D2EBD9" stroke="#A6A6A6" stroke-width="0.25" opacity="1" d="M 137.96379637963796,152.85854651283069 L 141.9141914191419,154.55154851893658 L 143.1143114311431,154.64922171159654 L 150.7150715071507,153.5422588614504 L 156.76567656765675,155.1050299440097 L 162.9162916291629,154.58410624982324 L 162.86628662866286,155.72362683085606 L 159.96599659965995,159.17474630484116 L 159.66596659665964,161.5189029286801 L 159.9159915991599,163.86305955251905 L 159.46594659465947,165.8490811366048 L 159.66596659665964,166.40256256167788 L 160.5160516051605,166.27233163813128 L 162.6162616261626,165.06769559532515 L 163.96639663966397,165.1002533262118 L 165.26652665266525,165.88163886749146 L 166.9166916691669,168.2909109531037 L 167.4167416741674,169.9839129592096 L 167.76677667766776,172.29551185216187 L 168.36683668366837,172.65364689191506 L 171.017101710171,171.90481908152205 L 172.3172317231723,172.002492274182 L 175.3175317531753,173.9559561273811 L 177.36773677367736,174.63966847600082 L 181.06810681068106,176.62569006008658 L 182.51825182518252,180.63029095914476 L 182.71827182718272,181.50934969308437 L 182.46824682468247,182.25817750347736 L 181.6181618161816,182.74654346677715 L 177.96779677967797,182.7791011976638 L 176.5176517651765,183.33258262273688 L 176.06760676067606,184.14652589490316 L 176.46764676467646,185.64418151568916 L 179.3179317931793,186.9790484820419 L 179.9179917991799,187.9883381395281 L 183.21832183218322,190.6906298031202 L 182.01820182018201,192.02549676947294 L 181.76817681768176,193.09990188873243 L 181.76817681768176,194.56499977863177 L 182.31823182318232,195.4440585125714 L 184.46844684468445,196.45334817005758 L 185.2185218521852,197.2021759804506 L 185.26852685268526,198.37425429237007 L 183.6183618361836,201.36956553394202 L 180.6180618061806,209.34620960117175 L 177.56775677567757,214.4577733503761 L 177.2177217721772,216.67169905066842 L 178.76787678767874,219.69956802312706 L 177.86778677867787,220.70885768061325 L 177.61776177617762,221.39257002923296 L 177.86778677867787,223.57393799863863 L 178.86788678867885,225.690190506271 L 182.21822182218222,230.8994274481353 L 182.21822182218222,231.3877934114351 L 181.86818681868186,232.00639029828147 L 180.16801680168015,233.89473868970728 L 179.86798679867985,235.39239431049327 L 179.96799679967995,236.49935716063945 L 179.86798679867985,237.63887774167225 L 179.6179617961796,238.38770555206526 L 176.36763676367636,241.35045906275056 L 172.26722672267226,243.0109033379698 L 168.06680668066807,242.65276829821664 L 166.016601660166,241.83882502605036 L 165.2165216521652,241.6760363716171 L 163.36633663366337,242.13184460403022 L 160.7160716071607,245.55040634712867 L 159.56595659565957,246.49458054284156 L 157.86578657865786,247.40619700766783 L 155.36553655365535,248.1550248180608 L 154.51545154515452,249.00152582111377 L 153.16531653165316,252.19218344800566 L 152.2152215221522,253.62472360701832 L 149.71497149714972,255.18749468957762 L 148.4148414841484,257.4990935825299 L 148.16481648164816,257.53165131341655 L 144.014401440144,261.63392540513473 L 142.36423642364235,261.50369448158807 L 140.31403140314032,259.09442239597587 L 138.5138513851385,258.150248200263 L 137.4137413741374,256.71770804125026 L 136.7136713671367,256.39213073238375 L 135.76357635763574,256.554919386817 L 134.1134113411341,257.2386317354367 L 133.26332633263326,257.33630492809664 L 128.9128912891289,254.5363400718446 L 130.11301130113011,248.7085062431339 L 132.76327632763275,241.15511267743065 L 132.66326632663265,233.24358407197425 L 131.3131313131313,235.0993747325134 L 130.51305130513052,235.52262523403988 L 129.66296629662966,234.8389128854202 L 126.1126112611261,230.60640787015544 L 125.66256625662565,228.68550174784298 L 126.2126212621262,225.9506523533642 L 124.012401240124,225.9506523533642 L 126.1126112611261,222.59720607203909 L 128.16281628162815,220.87164633504653 L 133.26332633263326,219.56933709958045 L 133.76337633763376,219.048413405394 L 134.6134613461346,217.42052686106143 L 135.41354135413542,217.5833155154947 L 135.8135813581358,219.2763175216006 L 135.9135913591359,220.70885768061325 L 137.56375637563755,222.792552457359 L 138.1138113811381,223.1832452279988 L 139.56395639563956,223.31347615154542 L 140.21402140214022,223.76928438395854 L 139.26392639263926,225.78786369893095 L 136.9136913691369,228.09946259188325 L 135.9135913591359,230.11804190685567 L 137.8137813781378,228.88084813316289 L 139.51395139513951,227.02505747262373 L 140.8140814081408,224.38788127080494 L 141.3141314131413,220.70885768061325 L 141.26412641264125,218.8530670200741 L 141.06410641064105,217.8437773625879 L 140.41404140414042,217.0949495521949 L 137.86378637863785,214.94613931367587 L 136.5136513651365,214.42521561948945 L 135.11351135113512,214.5228888121494 L 133.7133713371337,215.401947546089 L 132.013201320132,213.12290638402337 L 126.81268126812681,213.48104142377653 L 125.1125112511251,211.1368847999376 L 125.1125112511251,208.10901582747897 L 127.7127712771277,204.1695303901941 L 128.36283628362835,201.30445007216872 L 133.26332633263326,194.56499977863177 L 132.7132713271327,193.49059465937228 L 130.11301130113011,193.03478642695913 L 128.6128612861286,191.66736172971977 L 125.66256625662565,186.2302206716489 L 130.06300630063006,188.11856906307472 L 131.6131613161316,188.37903091016793 L 134.1134113411341,187.69531856154822 L 134.56345634563456,187.82554948509483 L 135.16351635163517,188.6720504881478 L 135.96359635963594,189.42087829854077 L 137.56375637563755,190.3650524942537 L 139.36393639363936,190.78830299578016 L 145.11451145114512,190.3650524942537 L 148.46484648464846,191.40689988262656 L 150.06500650065004,191.24411122819328 L 151.5151515151515,189.32320510588082 L 153.56535653565356,191.69991946060642 L 156.06560656065605,191.56968853705982 L 158.56585658565857,189.77901333829396 L 160.66606660666065,187.27206806002175 L 159.16591659165917,187.4999721762283 L 156.1156115611561,189.22553191322086 L 154.8154815481548,189.32320510588082 L 153.66536653665366,188.21624225573467 L 153.2153215321532,186.45812478785547 L 153.5153515351535,184.86279597440952 L 154.76547654765477,184.14652589490316 L 155.2155215521552,183.6581599316034 L 155.36553655365535,182.61631254323052 L 155.26552655265525,181.54190742397103 L 155.015501550155,181.05354146067125 L 152.6152615261526,181.05354146067125 L 151.3151315131513,181.47679196219772 L 148.26482648264826,183.5279290080568 L 146.7146714671467,184.14652589490316 L 143.7143714371437,183.82094858603665 L 140.8140814081408,182.68142800500382 L 137.86378637863785,182.12794657993075 L 134.86348634863486,183.62560220071674 L 133.8133813381338,183.5930444698301 L 133.36333633363336,181.86748473283754 L 133.6133613361336,179.84890541786513 L 134.86348634863486,178.54659618239904 L 134.91349134913492,177.86288383377936 L 134.6134613461346,177.146613754273 L 134.06340634063406,176.8210364454065 L 132.4132413241324,177.40707560136622 L 131.7131713171317,177.2117292160463 L 131.06310631063104,175.8768622496936 L 130.66306630663067,172.3606273139352 L 131.3131313131313,168.38858414576364 L 132.2132213221322,164.64444509379868 L 132.66326632663265,161.8444802375466 L 132.3132313231323,160.34682461676064 L 131.56315631563155,158.6863803415414 L 131.06310631063104,157.0584937972088 L 131.36313631363134,155.59339590730946 L 132.5132513251325,154.42131759538998 L 133.16331633163315,155.170145405783 L 133.8133813381338,156.76547421922893 L 134.86348634863486,158.23057210912825 L 136.06360636063604,158.71893807242805 L 136.36363636363635,157.83987933848843 L 136.4136413641364,156.11431960149588 L 137.013701370137,154.03062482475016 L 137.96379637963796,152.85854651283069 z" /><path fill-rule="evenodd" fill="#D2EBD9" stroke="#A6A6A6" stroke-width="0.25" opacity="1" d="M 120.5120512051205,226.47157604755066 L 118.96189618961895,228.03434713010995 L 117.21172117211721,228.0017893992233 L 113.76137613761375,226.99249974173708 L 108.26082608260826,228.78317494050293 L 105.26052605260526,229.04363678759614 L 103.56035603560356,228.81573267138958 L 102.2102210221022,228.2622512463165 L 101.26012601260125,227.15528839617033 L 100.86008600860086,225.36461319740448 L 103.56035603560356,218.07168147879446 L 104.7104710471047,217.2902959375148 L 105.56055605560556,217.19262274485484 L 108.46084608460845,217.9088928243612 L 109.010901090109,219.2763175216006 L 109.46094609460945,219.56933709958045 L 111.1111111111111,219.17864432894063 L 113.8113811381138,217.55075778460804 L 115.41154115411541,217.5833155154947 L 117.81178117811781,219.24375979071394 L 118.66186618661865,219.56933709958045 L 119.46194619461946,219.2763175216006 L 120.4120412041204,218.59260517298088 L 121.3121312131213,218.29958559500102 L 122.16221622162216,219.048413405394 L 122.86228622862285,221.45768549100626 L 122.56225622562256,223.1832452279988 L 120.5120512051205,226.47157604755066 z" /></g><g><path fill-rule="evenodd" fill="#D2EBD9" stroke="#A6A6A6" stroke-width="0.25" opacity="1" d="M 148.4148414841484,257.4990935825299 L 149.71497149714972,255.18749468957762 L 152.2152215221522,253.62472360701832 L 153.16531653165316,252.19218344800566 L 154.51545154515452,249.00152582111377 L 155.36553655365535,248.1550248180608 L 157.86578657865786,247.40619700766783 L 159.56595659565957,246.49458054284156 L 160.7160716071607,245.55040634712867 L 163.36633663366337,242.13184460403022 L 165.2165216521652,241.6760363716171 L 166.016601660166,241.83882502605036 L 168.06680668066807,242.65276829821664 L 172.26722672267226,243.0109033379698 L 176.36763676367636,241.35045906275056 L 179.6179617961796,238.38770555206526 L 179.86798679867985,237.63887774167225 L 179.96799679967995,236.49935716063945 L 179.86798679867985,235.39239431049327 L 180.16801680168015,233.89473868970728 L 181.86818681868186,232.00639029828147 L 182.21822182218222,231.3877934114351 L 182.21822182218222,230.8994274481353 L 178.86788678867885,225.690190506271 L 177.86778677867787,223.57393799863863 L 177.61776177617762,221.39257002923296 L 177.86778677867787,220.70885768061325 L 178.76787678767874,219.69956802312706 L 181.018101810181,221.39257002923296 L 182.16821682168217,224.22509261637165 L 182.71827182718272,224.97392042676466 L 183.8183818381838,225.4948441209511 L 185.56855685568556,225.59251731361104 L 188.11881188118812,224.84368950321806 L 193.4193419341934,224.3553235399183 L 195.06950695069506,227.54598116681015 L 199.3199319931993,234.3505469221204 L 200.0200020002,235.22960565606002 L 208.57085708570855,237.21562724014578 L 214.37143714371436,236.6621458150727 L 215.07150715071506,236.82493446950596 L 215.62156215621562,238.90862924625168 L 215.52155215521552,239.6900147875313 L 214.4214421442144,241.8062672951637 L 214.2214221422142,242.62021056733 L 215.32153215321532,244.41088576609584 L 215.72157215721572,247.47131246944113 L 216.9216921692169,249.81546909328006 L 217.57175717571755,250.69452782721967 L 219.1219121912191,251.93172160091243 L 220.22202220222022,253.42937722169842 L 222.8222822282228,255.25261015135092 L 231.6231623162316,254.04797410854482 L 232.27322732273225,254.69912872627785 L 233.37333733373336,255.25261015135092 L 238.7238723872387,256.7502657721369 L 241.67416741674165,256.6200348485903 L 241.2241224122412,253.00612672017195 L 241.3241324132413,251.50847109938596 L 241.8241824182418,250.20616186391987 L 243.27432743274326,248.87129489756717 L 245.8245824582458,244.47600122786915 L 247.67476747674766,243.10857653062976 L 252.87528752875286,241.28534360097726 L 254.02540254025402,238.81095605359172 L 258.57585758575857,236.27145304443286 L 260.3760376037604,236.27145304443286 L 260.82608260826083,236.49935716063945 L 261.5761576157616,236.4667994297528 L 262.4262426242624,235.7830870811331 L 263.77637763776374,234.38310465300705 L 264.7264726472647,228.75061720961628 L 265.17651765176515,227.6436543594701 L 266.27662766276626,226.40646058577735 L 268.6768676867687,224.77857404144476 L 271.22712271227124,222.4995328793791 L 274.47744774477445,220.83908860415988 L 280.52805280528054,224.45299673257824 L 280.92809280928094,228.1320203227699 L 280.62806280628064,231.35523568054845 L 280.82808280828084,232.69010264690115 L 281.57815781578154,233.50404591906747 L 283.4283428342834,233.4714881881808 L 284.7284728472847,233.0156799557677 L 285.87858785878586,232.9505644939944 L 286.77867786778677,233.53660364995412 L 287.7787778777878,235.1644901942867 L 287.7787778777878,236.69470354595936 L 286.47864786478647,238.19235916674535 L 285.3285328532853,242.22951779669017 L 287.4787478747875,247.6341011238744 L 288.92889288928893,250.3363927874665 L 289.62896289628964,252.48520302598553 L 289.92899289928994,254.4712246100713 L 289.42894289428943,257.59676677518985 L 287.7787778777878,260.91765532562835 L 287.6287628762876,261.8618295213413 L 287.7787778777878,262.48042640818767 L 290.42904290429044,263.1315810259207 L 295.97959795979597,263.7827356436537 L 299.02990299029904,261.9920604448879 L 300.28002800280024,261.56880994336143 L 301.08010801080104,261.6664831360214 L 301.58015801580154,261.9269449831146 L 301.68016801680164,263.847851105427 L 312.08120812081205,266.843162346999 L 315.981598159816,266.48502730724584 L 322.1322132213221,264.43389026138675 L 323.5323532353235,265.73619949685286 L 323.68236823682366,267.1036241940922 L 323.58235823582356,267.9826829280318 L 321.98219821982195,275.731422879055 L 321.48214821482145,277.4895403469342 L 320.6320632063206,279.1825423530401 L 320.18201820182014,280.5174093193928 L 319.48194819481944,285.27083802884397 L 319.6319631963196,286.3452431481035 L 319.4319431943194,287.4847637291363 L 319.18191819181914,288.3638224630759 L 316.8816881688169,290.18705539272844 L 316.2316231623162,291.3591337046479 L 316.031603160316,292.2056347077008 L 315.4315431543154,298.48927676882465 L 314.1314131413141,300.54041381468375 L 313.38133813381336,302.2985312825629 L 313.2313231323132,303.1450322856159 L 313.38133813381336,304.05664875044215 L 315.1315131513151,306.596151759601 L 315.1315131513151,310.8612145057524 L 314.28142814281426,310.6658681204325 L 312.78127812781275,311.4798113925988 L 311.7311731173117,313.140255667818 L 311.08110811081104,316.9169524506696 L 310.08100810081004,318.9029740347554 L 310.68106810681064,320.07505234667485 L 306.3306330633063,324.76336559435276 L 303.9303930393039,325.5447511356324 L 302.030203020302,323.13547905002014 L 303.1303130313031,322.32153577785385 L 303.6303630363036,322.19130485430725 L 303.1303130313031,318.9680894965287 L 303.98039803980396,316.982067912443 L 305.18051805180517,315.22395044456374 L 305.78057805780577,312.5867742427449 L 304.8304830483048,309.72169392471955 L 302.5302530253025,309.2333279614198 L 299.9799979998,310.14494442624607 L 298.22982298229823,311.4798113925988 L 295.8295829582958,315.4518545607703 L 294.5294529452945,317.14485656687623 L 292.8292829282928,317.8285689154959 L 291.37913791379134,319.033204958302 L 288.7788778877888,324.2098841692797 L 287.4287428742874,325.38196248119914 L 286.9286928692869,322.51688216317376 L 287.17871787178717,316.23324010204993 L 288.3788378837884,309.98215577181276 L 290.6290629062906,307.11707545378744 L 291.4291429142914,306.62870949048767 L 292.029202920292,305.52174664034146 L 292.029202920292,304.44734152108197 L 291.2291229122912,303.9589755577822 L 283.87838783878385,303.9589755577822 L 281.97819781978194,303.17759001650256 L 280.92809280928094,301.1915684324168 L 281.47814781478144,297.5776603039984 L 264.5264526452645,302.4938776678828 L 260.72607260726073,305.06593840792834 L 258.87588758875887,305.098496138815 L 257.77577757775776,303.4706095944824 L 258.4258425842584,299.4660086954242 L 256.97569756975696,298.6520654232579 L 255.3255325532553,299.1404313865577 L 252.07520752075206,301.35435708685003 L 250.2250225022502,301.8427230501498 L 244.07440744074407,300.21483650581723 L 242.1242124212421,300.7683179308903 L 236.77367736773675,307.44265276265395 L 233.77337733773376,309.91704031003945 L 231.37313731373135,308.2891537657069 L 231.87318731873185,306.0426703345279 L 231.97319731973195,303.4706095944824 L 232.2232223222322,302.07062716635636 L 233.5233523352335,300.60552927645705 L 234.07340734073406,299.72647054251746 L 234.77347734773477,297.3171984569052 L 234.57345734573457,296.5032551847389 L 232.7232723272327,292.6288852092273 L 232.27322732273225,291.97773059149426 L 231.37313731373135,291.26146051198793 L 229.1229122912291,290.8056522795748 L 227.87278727872786,292.563769747454 L 226.87268726872685,295.23350368015946 L 225.47254725472547,297.5776603039984 L 224.57245724572456,298.22881492173144 L 223.67236723672366,298.35904584527805 L 223.022302230223,297.7730066893183 L 222.37223722372235,294.64746452419973 L 221.57215721572155,294.22421402267327 L 219.5219521952195,294.4195604079932 L 219.5219521952195,293.2800398269604 L 220.97209720972097,292.6288852092273 L 222.2222222222222,291.2289027811013 L 222.5222522252225,289.7963626220886 L 221.12211221122112,289.14520800435554 L 219.7219721972197,289.5359007749954 L 215.22152215221521,292.7916738636606 L 213.7213721372137,293.2474820960737 L 212.47124712471245,292.2707501694741 L 211.22112211221122,290.9684409340081 L 209.77097709770976,290.2847285853884 L 208.2208220822082,291.0009986648947 L 205.37053705370536,294.3218872153332 L 203.8203820382038,295.49396552725267 L 202.02020202020202,295.6893119125726 L 196.81968196819682,294.4195604079932 L 195.56955695569556,288.2987070013026 L 194.66946694669466,286.4429163407635 L 191.91919191919192,285.3685112215039 L 184.96849684968495,284.8475875273175 L 183.4183418341834,283.87085560071796 L 185.3185318531853,282.0476226710654 L 187.36873687368737,279.21510008392676 L 188.01880188018802,276.57792388210794 L 185.8185818581858,275.43840330107514 L 183.56835683568355,276.4151352276747 L 179.1179117911791,281.16856393712584 L 176.9176917691769,282.79645048145846 L 175.5175517551755,283.0894700594383 L 174.36743674367435,282.73133501968516 L 173.31733173317332,281.75460309308556 L 172.3172317231723,280.126716548753 L 172.1172117211721,278.43371454264707 L 172.76727672767277,276.96861665274776 L 177.81778177817782,270.00126224300425 L 178.46784678467847,267.2338551176388 L 176.9176917691769,263.6525047201071 L 173.61736173617362,267.0385087323189 L 169.6169616961696,266.68037369256575 L 165.5165516551655,265.08504487911983 L 161.8161816181618,264.7920253011399 L 158.41584158415841,265.7036417659662 L 151.4151415141514,265.54085311153295 L 149.71497149714972,264.62923664670666 L 148.8148814881488,262.6757727935076 L 149.81498149814982,261.82927179045464 L 150.36503650365034,260.3967316314419 L 150.26502650265024,258.7362873562227 L 149.36493649364937,257.33630492809664 L 148.4148414841484,257.4990935825299 z" /><path fill-rule="evenodd" fill="#D2EBD9" stroke="#A6A6A6" stroke-width="0.25" opacity="1" d="M 211.17111711171117,314.21466078707755 L 209.97099709970996,313.9216412090977 L 208.9208920892089,311.1867918146189 L 209.07090709070906,308.2240383039336 L 211.17111711171117,305.847323949208 L 213.27132713271325,306.40080537428105 L 213.87138713871386,307.9310187259537 L 212.37123712371235,312.03329281767185 L 211.17111711171117,314.21466078707755 z" /></g><path fill-rule="evenodd" fill="#D2EBD9" stroke="#A6A6A6" stroke-width="0.25" opacity="1" d="M 315.1315131513151,310.8612145057524 L 315.1315131513151,306.596151759601 L 313.38133813381336,304.05664875044215 L 313.2313231323132,303.1450322856159 L 313.38133813381336,302.2985312825629 L 314.1314131413141,300.54041381468375 L 315.4315431543154,298.48927676882465 L 316.031603160316,292.2056347077008 L 316.2316231623162,291.3591337046479 L 316.8816881688169,290.18705539272844 L 319.18191819181914,288.3638224630759 L 319.4319431943194,287.4847637291363 L 319.6319631963196,286.3452431481035 L 319.48194819481944,285.27083802884397 L 320.18201820182014,280.5174093193928 L 320.6320632063206,279.1825423530401 L 321.48214821482145,277.4895403469342 L 321.98219821982195,275.731422879055 L 323.58235823582356,267.9826829280318 L 323.68236823682366,267.1036241940922 L 323.5323532353235,265.73619949685286 L 322.1322132213221,264.43389026138675 L 322.48224822482246,263.8804088363137 L 321.5321532153215,261.50369448158807 L 321.48214821482145,260.4944048241019 L 322.032203220322,259.550230628389 L 322.6322632263226,259.1920955886358 L 324.78247824782477,254.8619173807111 L 324.2324232423242,253.1689153746052 L 324.5324532453245,252.0293947935724 L 326.5826582658266,250.43406598012646 L 329.4329432943294,249.3922185917536 L 328.8328832883288,245.90854138688184 L 326.73267326732673,242.8155569526499 L 325.7325732573257,240.63418898324423 L 323.1323132313231,237.70399320344555 L 323.032303230323,234.8389128854202 L 322.28222822282225,231.90871710562152 L 322.48224822482246,231.0296583716819 L 323.18231823182316,230.7691965245887 L 325.3325332533253,230.93198517902195 L 326.3826382638264,230.73663879370204 L 328.3828382838284,229.7599068671025 L 330.08300830083004,229.53200275089594 L 331.18311831183115,228.88084813316289 L 333.1333133313331,224.71345857967145 L 334.7334733473347,224.1274194237117 L 337.03370337033704,220.70885768061325 L 338.58385838583854,219.17864432894063 L 339.58395839583955,217.06239182130824 L 340.58405840584055,214.16475377239624 L 340.88408840884085,212.40663630451704 L 340.9340934093409,209.83457556447152 L 340.2340234023402,206.54624474491968 L 340.03400340034,204.82068500792712 L 346.4846484648465,206.51368701403302 L 351.1351135113511,209.21597867762515 L 352.68526852685267,209.60667144826496 L 353.9353935393539,209.21597867762515 L 355.985598559856,206.15555197427986 L 360.2360236023602,204.5602231608339 L 363.4863486348635,206.02532105073325 L 363.8863886388639,207.39274574797264 L 363.8863886388639,209.83457556447152 L 367.68676867686764,212.66709815161025 L 369.38693869386935,212.53686722806364 L 370.28702870287026,211.78803941767063 L 371.88718871887187,211.56013530146407 L 373.1373137313731,211.85315487944393 L 376.2876287628763,213.51359915466318 L 380.4380438043804,215.27171662254239 L 381.2381238123812,215.43450527697564 L 383.2883288328833,215.30427435342904 L 386.08860886088604,217.5182000537214 L 388.5388538853885,218.46237424943428 L 389.08890889088906,219.048413405394 L 389.3389338933893,219.69956802312706 L 389.58895889588956,221.84837826164608 L 390.03900390039,223.1181297662255 L 391.7391739173917,225.10415135031127 L 391.7391739173917,226.08088327691084 L 390.8390839083908,228.1971357845432 L 390.78907890789077,236.8574922003926 L 391.039103910391,239.1690910933449 L 391.5891589158916,239.95047663462455 L 396.8396839683968,243.23880745417637 L 401.040104010401,243.85740434102277 L 401.7401740174017,244.2480971116626 L 402.04020402040203,244.96436719116892 L 401.7401740174017,246.3317918884083 L 401.1401140114011,247.40619700766783 L 401.8401840184018,251.86660613913912 L 401.3901390139014,252.7131071421921 L 400.59005900590057,253.46193495258507 L 398.18981898189816,253.65728133790498 L 397.08970897089705,254.11308957031812 L 395.68956895689564,255.70841838376407 L 395.13951395139514,257.1084008118901 L 394.33943394339434,261.1455594418349 L 388.88888888888886,259.3548842430691 L 388.38883888388835,259.51767289750234 L 387.3387338733873,260.3316161696686 L 386.28862886288624,262.0571759066612 L 386.78867886788674,265.6385263041929 L 390.08900890089006,272.3454188668432 L 390.78907890789077,274.2988827200423 L 390.5390539053905,275.11282599220857 L 389.8389838983898,275.4058455701885 L 386.58865886588654,275.9267692643749 L 385.0885088508851,275.82909607171496 L 384.43844384438444,276.08955791880817 L 383.7883788378838,276.96861665274776 L 383.6883688368837,277.4244248851609 L 383.8883888388839,277.880233117574 L 385.2885288528853,278.8569650441736 L 386.58865886588654,280.2569474722996 L 386.1386138613861,283.41504736830484 L 386.98869886988695,284.68479887288424 L 387.58875887588755,285.01037618175076 L 388.08880888088805,285.0429339126374 L 388.68886888688866,284.6522411419976 L 389.8389838983898,283.3173741756449 L 390.4390439043904,284.2289906404711 L 390.08900890089006,287.7777833071162 L 390.1390139013901,289.56845850588206 L 389.7389738973897,291.2289027811013 L 388.48884888488845,294.28932948444657 L 388.18881888188815,295.8846582978925 L 389.38893889388936,299.36833550276424 L 386.08860886088604,302.9822436311826 L 383.1883188318832,305.39151571679486 L 380.28802880288026,307.05195999201413 L 377.2377237723772,307.996134187727 L 373.93739373937393,308.2891537657069 L 372.8372837283728,307.8007878024071 L 370.18701870187016,305.58686210211476 L 368.8368836883688,305.098496138815 L 367.1367136713671,305.19616933147495 L 363.986398639864,306.1077857963012 L 359.5359535953595,308.77751972900666 L 354.6854685468547,309.91704031003945 L 351.48514851485146,312.0658505485585 L 349.98499849984995,312.5216587809716 L 335.0835083508351,312.29375466476506 L 334.38343834383437,312.5216587809716 L 334.1334133413341,314.54023809594406 L 333.78337833783377,315.1913927136771 L 330.8330833083308,318.12158849347577 L 328.0828082808281,319.5866863833751 L 327.03270327032703,319.8471482304683 L 326.1326132613261,319.3587822671685 L 325.1325132513251,317.8285689154959 L 325.032503250325,316.4611442182565 L 325.3325332533253,315.09371952101714 L 325.1825182518252,314.08442986353094 L 323.58235823582356,313.6937370928911 L 322.18221822182215,315.3216236372237 L 320.4320432043204,318.2518194170224 L 318.73187318731874,319.3913399980552 L 317.63176317631763,315.7123164078635 L 318.23182318231824,314.637911288604 L 317.03170317031703,312.35887012653836 L 315.7315731573157,310.991445429299 L 315.1315131513151,310.8612145057524 z" /><g><path fill-rule="evenodd" fill="#D2EBD9" stroke="#A6A6A6" stroke-width="0.25" opacity="1" d="M 110.01100110011001,146.9004817605734 L 106.7106710671067,147.74698276362633 L 103.56035603560356,149.43998476973223 L 102.4102410241024,150.5469476198784 L 101.76017601760175,151.4911218155913 L 100.66006600660066,154.58410624982324 L 99.05990599059905,156.89570514277554 L 94.75947594759475,158.8817267268613 L 91.05910591059106,161.5189029286801 L 87.45874587458745,162.82121216414617 L 85.75857585758575,163.8956172834057 L 84.00840084008401,164.31886778493217 L 79.8079807980798,163.30957812744595 L 77.05770577057706,164.74211828645863 L 75.4075407540754,163.50492451276585 L 72.85728572857285,160.18403596232736 L 71.15711571157115,159.46776588282103 L 69.80698069806981,159.9561318461208 L 68.45684568456845,160.8351905800604 L 66.85668566856685,161.32355654336018 L 66.35663566356635,160.99797923449367 L 65.00650065006501,159.59799680636763 L 64.2064206420642,159.27241949750112 L 63.606360636063606,159.59799680636763 L 62.75627562756275,160.99797923449367 L 61.4061406140614,162.1374998155265 L 59.955995599559955,165.68629248217155 L 59.1059105910591,166.46767802345119 L 56.505650565056506,165.75140794394486 L 49.6049604960496,160.18403596232736 L 38.503850385038504,158.97939991952126 L 35.9035903590359,156.6352432956823 L 35.55355535553555,153.63993205411035 L 35.45354535453545,149.50510023150554 L 34.7034703470347,146.47723125904693 L 32.35323532353235,146.9004817605734 L 31.203120312031203,147.779540494513 L 30.9030903090309,148.6585992284526 L 30.653065306530653,151.16554450672479 L 29.952995299529952,153.1841238216972 L 28.5028502850285,153.08645062903724 L 27.95279527952795,152.66320012751078 L 26.7026702670267,149.43998476973223 L 25.7025702570257,148.23534872692613 L 23.15231523152315,146.86792402968675 L 22.15221522152215,145.89119210308718 L 21.35213521352135,144.26330555875458 L 20.95209520952095,142.53774582176203 L 20.502050205020502,138.59826038447716 L 20.95209520952095,136.38433468418484 L 20.95209520952095,135.08202544871875 L 20.2020202020202,134.49598629275903 L 19.301930193019302,134.7238904089656 L 19.001900190019,135.1796986413787 L 18.701870187018702,138.14245215206404 L 18.25182518251825,139.67266550373668 L 14.8014801480148,146.0865384884071 L 12.85128512851285,148.07256007249285 L 10.551055105510551,148.82138788288586 L 7.55075507550755,148.95161880643246 L 6.8006800680068,147.68186730185303 L 6.600660066006601,146.34700033550033 L 5.45054505450545,145.89119210308718 L 4.15041504150415,145.92374983397383 L 0.0,147.8446559562863 L 2.15021502150215,144.97957563826094 L 4.35043504350435,142.79820766885524 L 5.4005400540054005,141.43078297161588 L 7.25072507250725,138.20756761383734 L 8.95089508950895,135.99364191354502 L 12.4012401240124,129.18907615823477 L 13.35133513351335,125.96586080045621 L 14.051405140514051,124.24030106346366 L 12.45124512451245,124.8263402194234 L 10.65106510651065,124.33797425612363 L 9.650965096509651,122.74264544267768 L 10.3010301030103,120.13802697174553 L 8.85088508850885,118.96594865982605 L 7.55075507550755,120.17058470263218 L 6.300630063006301,122.1240485558313 L 4.9004900490049,123.1333382133175 L 3.2003200320032,122.3845104029245 L 3.7003700370037,120.561277473272 L 5.05050505050505,118.24967858031972 L 5.95059505950595,115.97063741825409 L 1.85018501850185,117.1752734610602 L 0.85008500850085,116.45900338155386 L 0.9000900090009001,115.18925187697444 L 1.5001500150015001,113.43113440909524 L 2.8002800280028,110.85907366904974 L 5.05050505050505,108.77537889230402 L 7.6007600760076,107.92887788925107 L 12.7012701270127,107.86376242747777 L 14.5014501450145,106.26843361403182 L 17.35173517351735,99.20340601162836 L 18.9018901890189,97.60807719818241 L 24.35243524352435,96.63134527158286 L 27.4027402740274,95.36159376700343 L 29.15291529152915,93.40812991380432 L 26.2026202620262,88.8174898587864 L 25.7025702570257,87.35239196888706 L 25.252525252525253,84.22684980376847 L 24.8024802480248,83.25011787716892 L 23.85238523852385,82.82686737564245 L 21.9021902190219,83.90127249490196 L 20.75207520752075,84.25940753465513 L 19.95199519951995,83.70592610958205 L 19.2019201920192,82.33850141234267 L 17.85178517851785,79.18040151633743 L 14.85148514851485,74.55720373043286 L 13.55135513551355,70.0642368680749 L 13.001300130013,69.0549472105887 L 12.4012401240124,68.85960082526879 L 10.3010301030103,69.0549472105887 L 10.201020102010201,68.4363503237423 L 10.35103510351035,67.16659881916289 L 10.6010601060106,66.90613697206966 L 11.701170117011701,66.45032873965654 L 12.45124512451245,65.21313496596376 L 12.75127512751275,63.58524842163117 L 12.4012401240124,61.85968868463862 L 14.5014501450145,58.73414651952004 L 17.001700170017,58.83181971217999 L 28.152815281528152,69.02238947970204 L 29.15291529152915,70.52004510048802 L 28.802880288028803,73.84093365092652 L 28.9028902890289,75.2734738099392 L 30.603060306030603,77.81297681909805 L 31.253125312531253,79.18040151633743 L 33.4033403340334,85.26869719214133 L 34.05340534053405,88.52447028080653 L 34.4034403440344,91.81280110035837 L 34.55345534553455,97.34761535108919 L 34.8034803480348,98.09644316148218 L 35.4035403540354,98.58480912478197 L 36.4036403640364,100.14758020734126 L 38.653865386538655,102.19871725320033 L 41.004100410041005,103.69637287398632 L 41.65416541654165,103.85916152841958 L 43.154315431543154,104.70566253147253 L 43.7043704370437,105.1940284947723 L 44.554455445544555,105.35681714920557 L 46.35463546354635,104.41264295349266 L 47.2047204720472,105.1940284947723 L 48.054805480548055,106.30099134491847 L 49.354935493549355,107.31028100240468 L 50.7050705070507,107.92887788925107 L 51.8051805180518,107.86376242747777 L 52.3052305230523,104.64054706969922 L 52.855285528552855,104.70566253147253 L 53.905390539053904,105.74750991984538 L 54.6054605460546,108.28701292900423 L 55.305530553055306,109.26374485560379 L 56.405640564056405,108.35212839077754 L 57.3057305730573,106.75679957733159 L 57.655765576557656,106.46377999935173 L 59.3059305930593,108.35212839077754 L 60.6060606060606,108.97072527762393 L 62.106210621062104,109.06839847028388 L 63.556355635563555,108.71026343053072 L 64.7064706470647,107.86376242747777 L 65.85658565856585,104.41264295349266 L 70.10701070107011,104.99868210945239 L 72.75727572757275,107.50562738772459 L 69.05690569056905,109.81722628067688 L 69.95699569956996,111.70557467210268 L 71.65716571657165,112.22649836628912 L 75.25752575257525,111.86836332653594 L 77.00770077007701,112.16138290451582 L 78.1078107810781,113.04044163845542 L 80.4080408040804,115.97063741825409 L 81.70817081708171,116.84969615219369 L 83.008300830083,117.2403889228335 L 84.20842084208421,117.9241012714532 L 89.45894589458945,125.18447525917658 L 87.75877587758775,127.04026591971574 L 88.3088308830883,128.31001742429515 L 90.1090109010901,128.4076906169551 L 93.60936093609361,125.6402834915897 L 95.2095209520952,126.87747726528248 L 96.9096909690969,128.96117204202818 L 98.70987098709871,130.39371220104087 L 98.35983598359836,132.05415647626012 L 98.20982098209821,133.94250486768593 L 98.50985098509851,135.60294914290517 L 99.15991599159915,135.89596872088504 L 100.4100410041004,135.50527595024522 L 102.16021602160215,137.10060476369117 L 102.76027602760276,138.07733669029074 L 103.6103610361036,141.6912448187091 L 104.2104210421042,142.79820766885524 L 105.41054105410541,142.79820766885524 L 106.2106210621062,142.37495716732877 L 106.7106710671067,141.39822524072923 L 107.3107310731073,139.60755004196338 L 108.86088608860885,138.04477895940408 L 110.36103610361036,137.13316249457782 L 113.76137613761375,136.64479653127805 L 113.2113211321132,138.04477895940408 L 112.46124612461246,138.89127996245702 L 111.56115611561155,139.34708819487014 L 110.56105610561056,139.60755004196338 L 112.46124612461246,141.04009020097604 L 117.46174617461746,137.49129753433098 L 118.1118111811181,139.60755004196338 L 116.9116911691169,142.04937985846226 L 114.6114611461146,144.3935364823012 L 111.96119611961196,146.18421168106704 L 110.01100110011001,146.9004817605734 z" /><path fill-rule="evenodd" fill="#D2EBD9" stroke="#A6A6A6" stroke-width="0.25" opacity="1" d="M 121.91219121912191,158.23057210912825 L 119.86198619861986,161.03053696538032 L 119.2119211921192,162.36540393173306 L 119.1119111911191,163.63515543631246 L 119.36193619361936,166.56535121611114 L 118.9118911891189,168.03044910601048 L 117.86178617861786,169.3002006105899 L 114.56145614561456,171.31877992556232 L 107.46074607460746,173.46759016408134 L 105.71057105710571,173.53270562585465 L 104.06040604060405,172.751320084575 L 102.46024602460245,170.602509846056 L 101.4101410141014,165.55606155862495 L 100.2100210021002,164.93746467177854 L 97.8097809780978,165.7839656748315 L 96.8096809680968,164.9700224026652 L 96.55965596559655,161.7793647757733 L 98.40984098409841,159.8259009225742 L 102.46024602460245,158.23057210912825 L 109.5109510951095,151.52367954647795 L 110.36103610361036,151.39344862293134 L 112.71127112711271,152.79343105105738 L 113.8113811381138,153.1841238216972 L 116.56165616561655,152.923661974604 L 117.9117911791179,152.43529601130422 L 119.16191619161916,151.52367954647795 L 120.36203620362035,151.06787131406483 L 121.1121112111211,152.0446032406644 L 121.76217621762176,153.34691247613048 L 123.36233623362335,154.55154851893658 L 123.1123112311231,155.78874229262937 L 121.91219121912191,158.23057210912825 z" /><path fill-rule="evenodd" fill="#D2EBD9" stroke="#A6A6A6" stroke-width="0.25" opacity="1" d="M 112.36123612361236,43.79014804254681 L 110.71107110711071,45.12501500889954 L 109.5109510951095,45.2878036633328 L 109.2109210921092,44.4087449293932 L 109.010901090109,41.934357382007654 L 109.96099609960996,40.566932684768275 L 111.56115611561155,39.49252756550876 L 113.16131613161315,39.687873950828674 L 113.5113511351135,41.60878007314113 L 113.16131613161315,42.94364703949386 L 112.36123612361236,43.79014804254681 z" /></g><path fill-rule="evenodd" fill="#D2EBD9" stroke="#A6A6A6" stroke-width="0.25" opacity="1" d="M 36.153615361536154,206.0578787816199 L 38.75387538753875,206.2532251669398 L 41.1041104110411,205.56951281832013 L 43.254325432543254,204.07185719753414 L 47.004700470047005,199.54633260428952 L 47.8047804780478,197.85333059818362 L 48.004800480048004,195.7045203596646 L 48.004800480048004,192.02549676947294 L 48.55485548554855,189.55110922208738 L 49.8049804980498,186.49068251874212 L 51.2051205120512,183.69071766249004 L 52.3052305230523,182.0953888490441 L 51.05510551055105,180.141924995845 L 49.6049604960496,178.87217349126556 L 52.655265526552654,175.61640040260036 L 56.9056905690569,174.41176435979426 L 61.306130613061306,174.96524578486734 L 64.7064706470647,176.8210364454065 L 66.75667566756675,180.04425180318503 L 69.45694569456946,188.83483914258105 L 71.15711571157115,192.54642046365936 L 72.45724572457246,193.84872969912544 L 74.35743574357436,195.24871212725148 L 76.3076307630763,196.19288632296437 L 77.65776577657765,196.06265539941776 L 78.25782578257825,194.46732658597182 L 77.00770077007701,193.19757508139242 L 75.3075307530753,191.96038130769963 L 74.45744574457446,190.3650524942537 L 75.35753575357535,188.6720504881478 L 77.45774577457745,187.9232226777548 L 79.70797079707971,187.9883381395281 L 81.15811581158115,188.8673968734677 L 82.00820082008201,189.71389787652066 L 82.6082608260826,189.7464556074073 L 82.95829582958295,190.10459064716048 L 83.008300830083,193.36036373582567 L 82.65826582658265,194.17430700799196 L 82.15821582158216,194.59755750951842 L 81.4081408140814,194.59755750951842 L 82.4082408240824,196.51846363183088 L 83.65836583658366,196.97427186424403 L 85.008500850085,196.97427186424403 L 86.30863086308631,197.62542648197706 L 87.35873587358735,196.74636774803747 L 87.7087708770877,197.2672914422239 L 87.9087908790879,198.24402336882343 L 88.45884588458846,198.76494706300988 L 89.30893089308931,198.63471613946328 L 90.1090109010901,198.27658109971009 L 93.35933593359336,195.99753993764446 L 94.5094509450945,196.16032859207772 L 95.05950595059505,197.75565740552366 L 94.95949594959495,200.8486418397556 L 94.1094109410941,201.01143049418886 L 93.60936093609361,201.30445007216872 L 93.35933593359336,202.31373972965494 L 93.3093309330933,204.82068500792712 L 93.05930593059306,205.53695508743348 L 91.40914091409141,207.65320759506585 L 90.25902590259025,209.47644052471836 L 88.6088608860886,210.84386522195774 L 87.9087908790879,212.27640538097043 L 87.75877587758775,213.6438300782098 L 88.15881588158815,216.0205444329354 L 87.9087908790879,217.5833155154947 L 86.70867086708671,219.6018948304671 L 79.05790579057906,223.34603388243207 L 71.15711571157115,222.792552457359 L 69.90699069906991,223.8018421148452 L 68.35683568356835,225.85297916070425 L 67.60676067606761,228.3273667080898 L 69.4069406940694,232.6575449160145 L 68.006800680068,234.1552005368005 L 65.65656565656565,235.0342592707401 L 63.606360636063606,235.35983657960662 L 60.2060206020602,235.7179716193598 L 59.4059405940594,235.32727884871997 L 58.705870587058705,234.0249696132539 L 58.555855585558554,231.4529088732084 L 58.25582558255825,230.11804190685567 L 57.2057205720572,227.90411620656334 L 56.05560556055605,226.6343647019839 L 54.65546554655465,226.0483255460242 L 52.855285528552855,225.9506523533642 L 51.555155515551554,224.5506699252382 L 51.605160516051605,219.14608659805398 L 50.7050705070507,219.048413405394 L 48.95489548954895,220.09026079376687 L 47.954795479547954,219.69956802312706 L 48.104810481048105,218.62516290386753 L 49.6049604960496,217.5833155154947 L 26.452645264526453,214.4577733503761 L 20.6020602060206,215.30427435342904 L 17.551755175517552,214.81590839012927 L 16.7016701670167,212.27640538097043 L 18.101810181018102,210.71363429841114 L 28.55285528552855,204.95091593147373 L 31.053105310531052,204.72301181526717 L 36.153615361536154,206.0578787816199 z" /><path fill-rule="evenodd" fill="#D2EBD9" stroke="#A6A6A6" stroke-width="0.25" opacity="1" d="M 181.06810681068106,176.62569006008658 L 183.26832683268327,174.67222620688747 L 192.96929692969294,172.751320084575 L 199.16991699169915,171.90481908152205 L 203.2203220322032,172.91410873900827 L 204.37043704370436,173.6303788185146 L 205.1205120512051,174.34664889802096 L 205.4205420542054,174.93268805398068 L 205.92059205920592,176.8210364454065 L 206.87068706870687,178.54659618239904 L 209.3209320932093,180.76052188269136 L 211.87118711871187,181.93260019461084 L 213.97139713971396,181.50934969308437 L 214.27142714271426,180.95586826801127 L 214.17141714171416,179.19775080013207 L 215.021502150215,178.12334568087257 L 216.07160716071607,178.15590341175923 L 218.6218621862186,179.23030853101872 L 222.07220722072205,180.04425180318503 L 224.92249224922492,184.14652589490316 L 227.57275727572755,184.01629497135656 L 232.47324732473245,182.68142800500382 L 234.47344734473447,182.97444758298371 L 236.4236423642364,183.8535063169233 L 237.9237923792379,183.95117950958326 L 239.82398239823982,183.46281354628348 L 240.7240724072407,182.74654346677715 L 241.2241224122412,181.80236927106424 L 241.4241424142414,179.36053945456536 L 242.67426742674266,172.1978386595019 L 244.32443244324432,172.84899327723497 L 247.024702470247,176.56057459831328 L 248.27482748274826,177.79776837200606 L 249.87498749874987,178.9698466839255 L 251.1251125112511,179.49077037811196 L 252.9252925292529,179.13263533835877 L 253.77537753775377,179.16519306924542 L 254.07540754075407,179.393097185452 L 254.22542254225422,180.6628486900314 L 259.4759475947595,179.4582126472253 L 261.92619261926194,179.55588583988526 L 264.97649764976495,180.30471365027825 L 266.6266626662666,184.40698774199637 L 266.8266826682668,185.57906605391585 L 266.5266526652665,187.56508763800161 L 265.27652765276525,190.07203291627383 L 265.026502650265,191.04876484287337 L 265.3265326532653,191.86270811503968 L 266.37663766376636,192.578978194546 L 268.17681768176817,193.1324596196191 L 268.7268726872687,193.7510565064655 L 269.1769176917692,194.63011524040508 L 269.7769776977698,196.68125228626417 L 270.52705270527053,197.91844605995692 L 271.0771077107711,199.77423672049608 L 269.72697269726973,201.7277005736952 L 268.4768476847685,202.44397065320155 L 267.97679767976797,203.64860669600768 L 269.5769576957696,207.71832305683915 L 270.8770877087709,208.79272817609868 L 271.57715771577153,209.0531900231919 L 272.37723772377234,209.60667144826496 L 272.9272927292729,210.58340337486453 L 273.07730773077304,212.21128991919713 L 272.9272927292729,215.36938981520234 L 271.87718771877184,216.67169905066842 L 271.7271727172717,217.45308459194808 L 271.8271827182718,217.9088928243612 L 274.47744774477445,220.83908860415988 L 271.22712271227124,222.4995328793791 L 268.6768676867687,224.77857404144476 L 266.27662766276626,226.40646058577735 L 265.17651765176515,227.6436543594701 L 264.7264726472647,228.75061720961628 L 263.77637763776374,234.38310465300705 L 262.4262426242624,235.7830870811331 L 261.5761576157616,236.4667994297528 L 260.82608260826083,236.49935716063945 L 260.3760376037604,236.27145304443286 L 258.57585758575857,236.27145304443286 L 254.02540254025402,238.81095605359172 L 252.87528752875286,241.28534360097726 L 247.67476747674766,243.10857653062976 L 245.8245824582458,244.47600122786915 L 243.27432743274326,248.87129489756717 L 241.8241824182418,250.20616186391987 L 241.3241324132413,251.50847109938596 L 241.2241224122412,253.00612672017195 L 241.67416741674165,256.6200348485903 L 238.7238723872387,256.7502657721369 L 233.37333733373336,255.25261015135092 L 232.27322732273225,254.69912872627785 L 231.6231623162316,254.04797410854482 L 222.8222822282228,255.25261015135092 L 220.22202220222022,253.42937722169842 L 219.1219121912191,251.93172160091243 L 217.57175717571755,250.69452782721967 L 216.9216921692169,249.81546909328006 L 215.72157215721572,247.47131246944113 L 215.32153215321532,244.41088576609584 L 214.2214221422142,242.62021056733 L 214.4214421442144,241.8062672951637 L 215.52155215521552,239.6900147875313 L 215.62156215621562,238.90862924625168 L 215.07150715071506,236.82493446950596 L 214.37143714371436,236.6621458150727 L 208.57085708570855,237.21562724014578 L 200.0200020002,235.22960565606002 L 199.3199319931993,234.3505469221204 L 195.06950695069506,227.54598116681015 L 193.4193419341934,224.3553235399183 L 188.11881188118812,224.84368950321806 L 185.56855685568556,225.59251731361104 L 183.8183818381838,225.4948441209511 L 182.71827182718272,224.97392042676466 L 182.16821682168217,224.22509261637165 L 181.018101810181,221.39257002923296 L 178.76787678767874,219.69956802312706 L 177.2177217721772,216.67169905066842 L 177.56775677567757,214.4577733503761 L 180.6180618061806,209.34620960117175 L 183.6183618361836,201.36956553394202 L 185.26852685268526,198.37425429237007 L 185.2185218521852,197.2021759804506 L 184.46844684468445,196.45334817005758 L 182.31823182318232,195.4440585125714 L 181.76817681768176,194.56499977863177 L 181.76817681768176,193.09990188873243 L 182.01820182018201,192.02549676947294 L 183.21832183218322,190.6906298031202 L 179.9179917991799,187.9883381395281 L 179.3179317931793,186.9790484820419 L 176.46764676467646,185.64418151568916 L 176.06760676067606,184.14652589490316 L 176.5176517651765,183.33258262273688 L 177.96779677967797,182.7791011976638 L 181.6181618161816,182.74654346677715 L 182.46824682468247,182.25817750347736 L 182.71827182718272,181.50934969308437 L 182.51825182518252,180.63029095914476 L 181.06810681068106,176.62569006008658 z" /><path fill-rule="evenodd" fill="#D2EBD9" stroke="#A6A6A6" stroke-width="0.25" opacity="1" d="M 310.4310431043104,174.83501486132073 L 310.88108810881084,177.146613754273 L 313.1313131313131,179.65355903254522 L 313.78137813781376,180.89075280623797 L 314.38143814381436,182.71398573589047 L 315.031503150315,183.56048673894344 L 315.981598159816,184.24419908756312 L 316.6816681668167,184.50466093465636 L 319.0819081908191,186.62091344228872 L 320.68206820682065,186.94649075115524 L 322.2322232223222,185.70929697746246 L 324.4324432443244,187.53252990711496 L 325.2325232523252,193.16501735050576 L 326.1326132613261,194.076633815332 L 328.0828082808281,194.69523070217838 L 328.68286828682864,195.4440585125714 L 330.38303830383035,196.38823270828428 L 336.8836883688369,196.94171413335738 L 337.23372337233724,198.30913883059677 L 336.73367336733673,200.19748722202257 L 336.7836783678368,200.9137573015289 L 337.13371337133714,201.92304695901512 L 337.93379337933794,203.09512527093457 L 340.03400340034,204.82068500792712 L 340.2340234023402,206.54624474491968 L 340.9340934093409,209.83457556447152 L 340.88408840884085,212.40663630451704 L 340.58405840584055,214.16475377239624 L 339.58395839583955,217.06239182130824 L 338.58385838583854,219.17864432894063 L 337.03370337033704,220.70885768061325 L 334.7334733473347,224.1274194237117 L 333.1333133313331,224.71345857967145 L 331.18311831183115,228.88084813316289 L 330.08300830083004,229.53200275089594 L 328.3828382838284,229.7599068671025 L 326.3826382638264,230.73663879370204 L 325.3325332533253,230.93198517902195 L 323.18231823182316,230.7691965245887 L 322.48224822482246,231.0296583716819 L 322.28222822282225,231.90871710562152 L 323.032303230323,234.8389128854202 L 323.1323132313231,237.70399320344555 L 325.7325732573257,240.63418898324423 L 326.73267326732673,242.8155569526499 L 328.8328832883288,245.90854138688184 L 329.4329432943294,249.3922185917536 L 326.5826582658266,250.43406598012646 L 324.5324532453245,252.0293947935724 L 324.2324232423242,253.1689153746052 L 324.78247824782477,254.8619173807111 L 322.6322632263226,259.1920955886358 L 322.032203220322,259.550230628389 L 321.48214821482145,260.4944048241019 L 321.5321532153215,261.50369448158807 L 322.48224822482246,263.8804088363137 L 322.1322132213221,264.43389026138675 L 315.981598159816,266.48502730724584 L 312.08120812081205,266.843162346999 L 301.68016801680164,263.847851105427 L 301.58015801580154,261.9269449831146 L 301.08010801080104,261.6664831360214 L 300.28002800280024,261.56880994336143 L 299.02990299029904,261.9920604448879 L 295.97959795979597,263.7827356436537 L 290.42904290429044,263.1315810259207 L 287.7787778777878,262.48042640818767 L 287.6287628762876,261.8618295213413 L 287.7787778777878,260.91765532562835 L 289.42894289428943,257.59676677518985 L 289.92899289928994,254.4712246100713 L 289.62896289628964,252.48520302598553 L 288.92889288928893,250.3363927874665 L 287.4787478747875,247.6341011238744 L 285.3285328532853,242.22951779669017 L 286.47864786478647,238.19235916674535 L 287.7787778777878,236.69470354595936 L 287.7787778777878,235.1644901942867 L 286.77867786778677,233.53660364995412 L 285.87858785878586,232.9505644939944 L 284.7284728472847,233.0156799557677 L 283.4283428342834,233.4714881881808 L 281.57815781578154,233.50404591906747 L 280.82808280828084,232.69010264690115 L 280.62806280628064,231.35523568054845 L 280.92809280928094,228.1320203227699 L 280.52805280528054,224.45299673257824 L 274.47744774477445,220.83908860415988 L 271.8271827182718,217.9088928243612 L 271.7271727172717,217.45308459194808 L 271.87718771877184,216.67169905066842 L 272.9272927292729,215.36938981520234 L 273.07730773077304,212.21128991919713 L 272.9272927292729,210.58340337486453 L 272.37723772377234,209.60667144826496 L 271.57715771577153,209.0531900231919 L 270.8770877087709,208.79272817609868 L 269.5769576957696,207.71832305683915 L 267.97679767976797,203.64860669600768 L 268.4768476847685,202.44397065320155 L 269.72697269726973,201.7277005736952 L 271.0771077107711,199.77423672049608 L 270.52705270527053,197.91844605995692 L 269.7769776977698,196.68125228626417 L 269.1769176917692,194.63011524040508 L 268.7268726872687,193.7510565064655 L 268.17681768176817,193.1324596196191 L 266.37663766376636,192.578978194546 L 265.3265326532653,191.86270811503968 L 265.026502650265,191.04876484287337 L 265.27652765276525,190.07203291627383 L 266.5266526652665,187.56508763800161 L 266.8266826682668,185.57906605391585 L 266.6266626662666,184.40698774199637 L 264.97649764976495,180.30471365027825 L 267.7267726772677,179.42565491633866 L 270.22702270227023,179.16519306924542 L 271.57715771577153,178.4489229897391 L 272.27722772277224,177.5698642557995 L 272.27722772277224,176.72336325274654 L 271.22712271227124,173.98851385826777 L 270.92709270927094,172.03505000506865 L 269.62696269626963,166.30488936901793 L 273.27732773277324,164.70956055557198 L 275.1275127512751,164.38398324670547 L 276.7276727672767,163.5374822436525 L 283.7283728372837,163.3421358583326 L 286.4286428642864,164.0909636687256 L 289.32893289328933,166.30488936901793 L 291.7291729172917,165.7839656748315 L 293.07930793079305,167.607198604484 L 298.1798179817982,169.39787380324987 L 299.52995299529954,170.14670161364285 L 301.1301130113011,171.31877992556232 L 306.9306930693069,173.33735924053474 L 310.4310431043104,174.83501486132073 z" /></g></g></g></svg>