<svg xmlns="http://www.w3.org/2000/svg" xmlns:xlink="http://www.w3.org/1999/xlink" width="500.0" height="436.67710451898165" viewBox="0.0 0.0 500.0 436.67710451898165" preserveAspectRatio="xMinYMin meet"><g transform="matrix(1,0,0,-1,0,436.67710451898165)"><g><g><path fill-rule="evenodd" fill="#D2EBD9" stroke="#A6A6A6" stroke-width="0.25" opacity="1" d="M 293.27932793279325,151.49843740137487 L 298.32983298329833,146.78185301413114 L 302.68026802680265,144.51090497582862 L 310.58105810581054,140.66776214177818 L 312.7312731273127,140.01268097688322 L 319.4319431943194,139.00822319071094 L 324.5324532453245,137.13032385134537 L 329.08290829082904,133.85491802687056 L 344.7844784478448,115.9056941087486 L 355.83558355835584,96.16591500658042 L 358.08580858085804,93.93863904593755 L 381.08810881088107,79.13380471931141 L 394.63946394639464,67.9537528384374 L 397.5397539753975,64.8967074022609 L 400.09000900090007,61.57762950012643 L 402.44024402440243,57.60347043309699 L 408.2408240824082,44.98223998945406 L 412.14121412141213,39.47955820433638 L 417.99179917991796,35.72375952560526 L 422.24222422242224,33.93320434155903 L 426.39263926392636,31.61858422559683 L 429.9429942994299,28.51786671176068 L 434.79347934793475,20.17649987876483 L 440.8940894089409,11.878805123428645 L 444.4444444444444,8.079334367037864 L 448.2948294829483,12.228181744705957 L 449.5949594959496,12.490214210663941 L 451.64516451645164,11.966149278747972 L 455.045504550455,10.393954483000064 L 466.7466746674667,0.0 L 467.7467746774677,1.4411785627689164 L 470.44704470447044,2.1836038829832067 L 472.09720972097205,4.3672077659664135 L 474.29742974297426,4.7602564649033905 L 475.2475247524752,5.28432139681936 L 475.69756975697567,7.336909046823575 L 474.99749974997496,9.738873318105101 L 474.7474747474747,12.009821356407636 L 477.997799779978,15.11053887024379 L 479.6979697969797,19.259386247911884 L 480.94809480948095,20.351188189403487 L 481.6481648164816,20.26384403408416 L 482.5482548254825,19.521418713869867 L 483.29832983298326,19.608762869189196 L 499.54995499549955,26.596295294735455 L 500.0,27.16403230431109 L 497.999799979998,30.788814750063214 L 497.7997799779978,31.92428876921448 L 497.6997699769977,34.23890888517668 L 497.1997199719972,35.24336667134895 L 494.7494749474947,37.07759393305485 L 493.99939993999396,38.649788728802754 L 490.8490849084908,41.31378546604227 L 490.44904490449045,40.7897205341263 L 490.24902490249025,40.13463936923134 L 490.3990399039904,39.39221404901705 L 490.8490849084908,38.60611665114309 L 490.0990099009901,38.21306795220612 L 489.7989798979898,36.55352900113888 L 489.0989098909891,35.461727059647274 L 488.24882488248824,34.457269273475 L 487.998799879988,34.457269273475 L 486.5986598659866,33.540155642622054 L 486.6986698669867,33.452811487302725 L 485.39853985398537,32.84140240006743 L 484.6484648464846,32.92874655538676 L 485.69856985698567,34.457269273475 L 482.99829982998295,34.63195758411366 L 480.998099809981,35.287038749008616 L 479.4979497949795,36.55352900113888 L 478.4978497849785,38.60611665114309 L 475.49754975497547,37.339626399012836 L 474.4474447444744,37.601658864970815 L 473.89738973897386,38.387756262844775 L 473.09730973097305,43.23535688306749 L 471.89718971897184,46.030369853286 L 471.1971197119712,50.31023346393308 L 470.5970597059706,51.48937956074401 L 468.6968696869687,53.10524643415158 L 467.4967496749675,53.629311366067554 L 465.99659965996597,53.84767175436588 L 465.046504650465,54.502752919260836 L 462.4462446244624,58.86996068522725 L 458.6958695869587,62.05802235438273 L 458.0958095809581,63.06248014055501 L 457.8957895789579,63.84857753842896 L 456.5456545654565,64.8967074022609 L 456.2456245624562,66.29421388737015 L 455.99559955995596,66.77460674162646 L 454.99549954995496,66.99296712992478 L 453.99539953995395,64.80936324694157 L 453.1453145314531,64.11061000438694 L 451.6951695169517,63.84857753842896 L 448.2948294829483,64.1542820820466 L 446.7446744674467,64.63467493630291 L 444.4444444444444,66.03218142141216 L 444.2444244424442,66.25054180971048 L 443.89438943894385,70.31204503205926 L 442.84428442844285,72.14627229376515 L 441.6941694169417,81.01170405867697 L 441.14411441144114,82.93327547570219 L 440.3940394039404,83.80671702889548 L 439.6439643964396,84.28710988315177 L 438.9438943894389,85.46625597996271 L 438.1438143814381,87.99923648422323 L 438.1438143814381,91.09995399805938 L 437.6437643764376,93.0215254150846 L 435.2435243524352,94.33168774487453 L 432.4932493249325,98.04381434594598 L 429.9429942994299,100.14007407360985 L 428.9428942894289,100.14007407360985 L 428.2428242824282,99.74702537467287 L 428.042804280428,99.31030459807624 L 428.6428642864286,99.09194420977792 L 430.24302430243023,99.00460005445859 L 431.54315431543154,98.34951888956363 L 432.54325432543254,97.47607733637034 L 432.4932493249325,95.42348968636612 L 430.94309430943093,95.42348968636612 L 430.94309430943093,94.8557526767905 L 431.54315431543154,94.33168774487453 L 432.8932893289329,92.45378840550897 L 433.24332433243325,92.19175593955099 L 433.2933293329333,91.88605139593334 L 432.84328432843284,91.40565854167703 L 432.24322432243224,91.40565854167703 L 431.94319431943194,92.45378840550897 L 431.64316431643164,92.5411325608283 L 429.9429942994299,93.85129489061822 L 428.89288928892887,96.99568448211404 L 427.1427142714271,98.34951888956363 L 426.8426842684268,98.82991174381993 L 426.5426542654265,98.8735838214796 L 424.8424842484248,98.08748642360564 L 424.09240924092404,98.30584681190396 L 423.54235423542355,99.13561628743759 L 422.7922792279228,101.71226886935777 L 421.7921792179218,102.23633380127373 L 421.24212421242123,103.28446366510568 L 419.5419541954195,105.64275585872754 L 419.2419241924192,105.64275585872754 L 418.7418741874187,106.64721364489981 L 415.6415641564156,109.04917791618134 L 414.69146914691464,113.24169737150909 L 413.8913891389139,113.80943438108473 L 412.8912891289129,114.20248308002171 L 410.2910291029103,115.94936618640827 L 408.99089908990896,116.47343111832424 L 406.7406740674067,115.94936618640827 L 404.84048404840485,116.16772657470659 L 404.2904290429043,116.5171031959839 L 403.0903090309031,117.78359344811416 L 401.6401640164016,120.27290187471502 L 401.0901090109011,120.665950573652 L 400.1400140014001,120.534934340673 L 397.7397739773977,119.61782070982007 L 396.7396739673967,119.66149278747972 L 391.989198919892,121.10267135024864 L 391.3391339133913,122.2381453693999 L 390.5390539053905,125.42620703855539 L 387.8387838783878,130.57951220239576 L 386.7386738673867,131.977018687505 L 385.43854385438544,133.11249270665627 L 382.9382938293829,134.59734334708486 L 381.9381938193819,135.38344074495882 L 381.3381338133813,136.21321022049244 L 380.38803880388036,139.6633043556059 L 379.88798879887986,141.01713876305547 L 379.2379237923792,142.10894070454708 L 377.28772877287724,144.37988874284963 L 373.8873887388739,147.39326210136645 L 372.28722872287227,149.27116144073202 L 371.3371337133713,152.37187895456816 L 369.9369936993699,154.07508998329507 L 369.6369636963696,154.64282699287068 L 369.036903690369,155.29790815776565 L 367.78677867786774,155.86564516734128 L 366.5866586658666,156.65174256521524 L 365.986598659866,157.83088866202618 L 365.5865586558656,160.66957370990434 L 364.3864386438644,163.33357044714384 L 362.6362636263626,165.56084640778673 L 357.0857085708571,169.44766131949683 L 356.0856085608561,170.75782364928676 L 354.8854885488549,173.59650869716492 L 353.985398539854,174.77565479397586 L 353.1353135313531,175.12503141525318 L 344.4844484448445,177.09027490993805 L 339.48394839483944,177.2649632205767 L 337.3837383738374,177.876372307812 L 335.0835083508351,179.53591125887925 L 332.88328832883286,180.75872943334986 L 328.88288828882884,180.54036904505153 L 327.1827182718272,181.32646644292547 L 327.1827182718272,179.8416158024969 L 326.33263326332633,180.14732034611455 L 325.5825582558256,180.1036482684549 L 324.08240824082407,179.27387879292127 L 324.08240824082407,180.75872943334986 L 323.4323432343234,181.63217098654312 L 321.5321532153215,182.9860053939927 L 320.88208820882085,184.03413525782466 L 320.9320932093209,184.86390473335828 L 321.5321532153215,186.6544599174045 L 321.6321632163216,188.7507196450684 L 321.5321532153215,189.31845665464402 L 321.18211821182115,189.973537819539 L 320.8320832083208,190.10455405251795 L 320.5320532053205,189.973537819539 L 320.5320532053205,189.79884950890033 L 316.93169316931693,193.55464818763144 L 317.43174317431743,194.07871311954742 L 318.5818581858186,193.64199234295077 L 318.93189318931894,194.07871311954742 L 318.73187318731874,194.77746636210202 L 318.1818181818182,195.12684298337933 L 316.1816181618162,195.25785921635833 L 315.5315531553155,194.82113843976168 L 315.8815881588159,193.55464818763144 L 313.7313731373137,194.42808974082473 L 313.48134813481346,195.08317090571967 L 313.18131813181316,198.0965442642365 L 312.88128812881286,198.79529750679114 L 312.18121812181215,199.14467412806843 L 310.78107810781074,199.3193624387071 L 310.1310131013101,199.27569036104742 L 309.5809580958096,199.01365789508944 L 309.68096809680964,196.08762869189195 L 311.1311131113111,188.66337548974906 L 311.3311331133113,185.47531382059358 L 310.98109810981094,182.59295669505573 L 309.8309830983098,179.75427164717757 L 303.18031803180315,170.2337587173708 L 299.42994299429944,161.9360639620346 L 293.27932793279325,151.49843740137487 z" /><g><path fill-rule="evenodd" fill="#D2EBD9" stroke="#A6A6A6" stroke-width="0.25" opacity="1" d="M 309.5809580958096,199.01365789508944 L 309.33093309330934,198.9699858174298 L 308.73087308730874,199.3193624387071 L 308.3808380838084,200.01811568126172 L 308.43084308430844,201.37195008871132 L 308.23082308230823,202.02703125360628 L 306.2306230623062,202.55109618552225 L 305.58055805580557,203.73024228233317 L 305.1305130513051,204.12329098127015 L 305.18051805180517,202.68211241850125 L 305.68056805680567,201.45929424403064 L 305.030503050305,200.49850853551803 L 304.1304130413041,199.84342737062306 L 303.4303430343034,199.88709944828273 L 302.88028802880285,200.71686892381635 L 301.4301430143014,201.19726177807266 L 301.28012801280124,201.72132670998863 L 301.58015801580154,202.55109618552225 L 300.78007800780074,203.1188331950979 L 298.42984298429843,202.68211241850125 L 298.2798279827983,201.93968709828695 L 298.42984298429843,201.06624554509366 L 298.0798079807981,200.36749230253903 L 296.8296829682968,200.1491319142407 L 296.1296129612961,200.71686892381635 L 295.87958795879587,201.80867086530796 L 295.97959795979597,203.03148903977856 L 294.9294929492949,201.7649987876483 L 293.97939793979396,200.01811568126172 L 292.77927792779275,198.44592088551383 L 291.07910791079104,197.79083972061886 L 289.3789378937894,196.34966115784994 L 288.2788278827883,196.08762869189195 L 287.7787778777878,197.52880725466088 L 287.2287228722872,197.96552803125752 L 280.52805280528054,200.5421806131777 L 278.7778777877788,201.41562216637098 L 278.027802780278,202.76945657382058 L 278.5778577857786,204.47266760254746 L 278.6278627862786,205.1714208451021 L 278.3778377837784,205.6518136993584 L 277.7277727772777,205.87017408765672 L 277.2277227722772,207.31135265042565 L 276.4276427642764,207.87908966000128 L 275.4275427542754,208.09745004829958 L 274.47744774477445,207.79174550468196 L 274.17741774177415,208.62151498021555 L 274.47744774477445,211.5038721057534 L 273.17731773177314,214.51724546427022 L 272.9272927292729,215.47803117278283 L 272.5272527252725,216.17678441533747 L 270.7770777077708,217.48694674512737 L 269.82698269826983,218.97179738555596 L 270.92709270927094,219.71422270577025 L 270.7770777077708,220.54399218130388 L 270.32703270327033,221.0243850355602 L 269.6769676967697,221.19907334619884 L 268.8768876887689,221.11172919087952 L 269.97699769977,224.037758394077 L 270.42704270427043,224.7801837142913 L 272.4272427242724,226.52706682067785 L 272.9272927292729,227.4441804515308 L 273.07730773077304,228.3176220047241 L 272.8272827282728,229.10371940259805 L 272.27722772277224,229.889816800472 L 270.6770677067707,231.06896289728292 L 268.3768376837684,231.68037198451822 L 267.27672767276727,232.24810899409385 L 260.1760176017602,238.14383947814852 L 258.67586758675867,239.75970635155608 L 257.57575757575756,241.76862192390064 L 255.87558755875585,239.23564141964013 L 255.07550755075505,238.58056025474517 L 255.07550755075505,239.58501804091742 L 254.62546254625462,239.58501804091742 L 254.12541254125412,238.10016740048886 L 254.07540754075407,237.48875831325356 L 253.52535253525352,237.48875831325356 L 252.47524752475246,238.27485571112751 L 251.97519751975196,237.48875831325356 L 251.47514751475146,234.8684336536737 L 251.07510751075105,234.3880407994174 L 250.1250125012501,233.9076479451611 L 249.97499749974997,232.99053431430815 L 250.5250525052505,229.80247264515268 L 250.37503750375035,225.78464150046358 L 250.5250525052505,224.299790860035 L 251.17511751175115,222.6839239866274 L 252.27522752275226,224.5181512483333 L 253.27532753275327,224.5181512483333 L 253.87538753875387,223.4263493068417 L 254.72547254725472,220.32563179300556 L 256.17561756175616,217.7053071334257 L 256.025602560256,216.17678441533747 L 254.62546254625462,213.64380391107693 L 253.72537253725372,212.98872274618196 L 253.42534253425342,212.50832989192565 L 253.82538253825382,211.7659045717114 L 253.92539253925392,211.1544954844761 L 253.72537253725372,210.1500376983038 L 253.32533253325332,209.27659614511052 L 252.8252825282528,208.88354744617354 L 249.97499749974997,208.27213835893824 L 249.12491249124912,208.49049874723656 L 248.37483748374837,209.93167731000548 L 247.3247324732473,209.4076123780895 L 246.37463746374635,209.45128445574917 L 245.67456745674565,210.06269354298448 L 245.22452245224522,211.5038721057534 L 244.52445244524452,212.02793703766937 L 244.37443744374437,212.33364158128703 L 244.72447244724472,218.97179738555596 L 245.87458745874585,223.1643168408837 L 245.07450745074507,223.95041423875767 L 244.42444244424442,225.04221618024928 L 243.97439743974397,226.3523785100392 L 243.82438243824382,227.70621291748878 L 241.77417741774175,228.75434278132073 L 237.87378737873786,241.462917380283 L 236.07360736073605,243.8648816515645 L 234.92349234923492,244.43261866114014 L 233.4233423342334,244.7383232047578 L 232.1232123212321,244.51996281645947 L 231.5231523152315,243.60284918560654 L 230.82308230823082,242.99144009837124 L 229.17291729172916,242.81675178773258 L 227.47274727472745,242.94776802071158 L 226.4226422642264,243.34081671964856 L 226.22262226222622,243.90855372922417 L 225.87258725872587,246.52887838880403 L 224.5224522452245,248.71248227178722 L 224.37243724372436,249.45490759200152 L 226.8226822682268,249.67326798029984 L 228.27282728272826,250.37202122285447 L 228.4228422842284,251.8131997856234 L 227.7227722772277,252.51195302817803 L 226.87268726872685,252.1625764069007 L 225.87258725872587,250.7213978441318 L 225.42254225422542,251.9442160186024 L 225.72257225722572,253.07969003775364 L 226.6226622662266,253.82211535796793 L 227.9227922792279,253.95313159094692 L 225.92259225922592,256.22407962924945 L 225.47254725472547,257.44689780372005 L 225.37253725372537,259.4994854537243 L 225.12251225122512,260.1108945409596 L 224.07240724072406,261.2900406377705 L 223.87238723872386,262.20715426862347 L 224.07240724072406,262.99325166649743 L 224.92249224922492,264.60911853990496 L 224.87248724872487,265.61357632607724 L 224.1224122412241,266.2686574909722 L 221.37213721372137,267.53514774310247 L 220.82208220822082,268.0155405973588 L 220.12201220122012,269.2383587718294 L 215.67156715671567,271.98969966438824 L 214.2214221422142,274.6973684792874 L 211.57115711571157,284.7856184186698 L 209.8209820982098,288.67243333037993 L 209.57095709570956,289.85157942719087 L 209.27092709270926,293.25800148464464 L 206.97069706970697,303.4335955793464 L 206.97069706970697,304.525397520838 L 207.5207520752075,307.40775464637585 L 207.4207420742074,308.36854035488847 L 206.47064706470647,310.3337838495733 L 206.37063706370637,311.2945695580859 L 206.47064706470647,314.35161499426243 L 206.37063706370637,315.3560727804347 L 205.47054705470546,317.3213162751196 L 205.37053705370536,318.06374159533385 L 205.47054705470546,320.77141041023305 L 205.07050705070506,321.03344287619103 L 204.27042704270426,321.03344287619103 L 203.5203520352035,321.38281949746835 L 203.4203420342034,322.60563767193895 L 203.9203920392039,322.0379006623633 L 204.27042704270426,324.0468162347079 L 203.07030703070305,327.58425452514064 L 204.47044704470446,329.0691051655692 L 204.3204320432043,331.3400532038718 L 203.87038703870385,333.0432642325987 L 202.42024202420242,336.4933583677121 L 203.4203420342034,335.96929343579615 L 201.82018201820182,342.0397122304895 L 199.36993699369935,347.7170823262458 L 198.96989698969895,349.02724465603575 L 198.56985698569855,352.1716342475316 L 197.41974197419742,354.4425822858341 L 197.01970197019702,356.05844915924166 L 196.76967696769677,359.2028387507375 L 196.41964196419642,360.73136146882575 L 194.2194219421942,365.31692962309046 L 193.56935693569355,367.9372542826703 L 193.16931693169315,370.95062764118717 L 192.16921692169217,373.35259191246865 L 190.1190119011901,375.4925237177922 L 188.7188718871887,377.8508159114141 L 189.6189618961896,380.8641892699309 L 188.76887688768875,382.4363840656788 L 186.96869686968697,389.0745398699477 L 181.76817681768176,398.15833202315787 L 176.56765676567656,410.3428416902042 L 169.56695669566955,421.12984487214123 L 169.2169216921692,422.48367927959083 L 167.6167616761676,424.84197147321265 L 167.36673667366736,427.28760782215386 L 167.1167116711671,428.0737052200278 L 163.91639163916392,432.57192921897325 L 163.36633663366337,435.0175655679144 L 162.66626662666266,435.847335043448 L 162.5162516251625,436.67710451898165 L 151.9151915191519,427.7243285987505 L 149.86498649864987,424.7109552402337 L 145.36453645364534,412.70113388382606 L 143.26432643264326,409.3383839040319 L 141.76417641764175,408.15923780722096 L 138.06380638063806,406.3250105455151 L 136.76367636763675,405.1458644487042 L 136.4136413641364,403.6173417306159 L 136.5136513651365,401.9578027795487 L 136.3136313631363,400.38560798380075 L 135.06350635063507,399.1191177316705 L 133.26332633263326,398.8570852657125 L 131.96319631963195,399.6868547412461 L 130.81308130813082,400.8223287603974 L 129.6129612961296,401.60842615827136 L 126.56265626562656,400.6913125274184 L 126.2126212621262,399.9925592848638 L 126.51265126512651,398.9444294210318 L 126.46264626462646,398.1146599454982 L 125.7125712571257,396.62980930506967 L 124.46244624462446,395.53800736357806 L 123.36233623362335,395.53800736357806 L 122.9122912291229,397.241218392305 L 122.96229622962295,400.12357551784277 L 122.26222622262226,400.86600083805706 L 120.5120512051205,400.9096729157167 L 118.7118711871187,400.2109196731621 L 119.36193619361936,390.64673466569565 L 118.1118111811181,358.63510174116186 L 117.26172617261726,354.7919589071114 L 116.7116711671167,353.17609203370387 L 116.56165616561655,351.2981926943383 L 117.11171117111711,349.7259978985904 L 119.91199119911991,346.2759037634769 L 120.86208620862085,344.87839727836763 L 121.26212621262125,343.30620248261977 L 121.36213621362135,340.8168940560189 L 120.26202620262026,335.7509330474978 L 120.06200620062006,333.43631293153567 L 120.5120512051205,331.6457577474894 L 122.21222122212221,329.8115304857835 L 124.06240624062406,328.89441685493057 L 141.014101410141,325.8373714187541 L 141.86418641864185,325.1386181761995 L 142.76427642764276,322.3872772836406 L 143.46434643464346,320.8587545655524 L 145.86458645864585,316.9719396538423 L 146.96469646964695,312.7794201985145 L 147.7147714771477,310.8141767038296 L 149.36493649364937,308.8926052868044 L 151.1151115111511,307.3640825687162 L 153.06530653065306,305.09313453041364 L 155.16551655165514,301.2063196187035 L 156.1156115611561,298.54232288146403 L 156.56565656565655,296.2713748431615 L 156.6156615661566,294.48081965911524 L 156.4156415641564,292.952296941027 L 156.06560656065605,291.8604949995354 L 155.36553655365535,290.63767682506483 L 154.86548654865484,289.24017033995557 L 154.66546654665467,287.31859892293033 L 154.8154815481548,280.98614766227905 L 155.66556655665565,278.4531671580185 L 157.26572657265726,276.31323535269496 L 160.9160916091609,273.8239269260941 L 164.4164416441644,272.33907628566556 L 167.91679167916791,271.2909464218336 L 178.01780178017802,270.02445616970334 L 178.96789678967895,269.3257029271487 L 180.06800680068005,267.8845243643798 L 186.6186618661866,256.7918166388251 L 189.16891689168915,247.314975786678 L 190.46904690469046,243.90855372922417 L 192.26922692269227,240.37111543879138 L 199.06990699069905,229.84614472281234 L 203.47034703470345,225.04221618024928 L 207.02070207020702,221.85415451109378 L 213.47134713471345,218.40406037598032 L 216.62166216621662,216.3951448036358 L 218.97189718971896,212.50832989192565 L 220.52205220522052,208.88354744617354 L 246.2246224622462,164.33802823331612 L 249.47494749474947,164.55638862161445 L 251.7251725172517,163.81396330140015 L 253.77537753775377,162.50380097161025 L 257.7257725772577,159.09737891415642 L 258.8258825882588,158.5296419045808 L 260.2760276027603,158.3112815162825 L 261.72617261726174,158.70433021521947 L 264.026402640264,160.66957370990434 L 265.37653765376535,161.01895033118166 L 268.6268626862686,160.45121332160602 L 269.6769676967697,160.45121332160602 L 273.37733773377335,161.54301526309763 L 274.67746774677465,161.5866873407573 L 281.37813781378134,159.92714838969005 L 284.6284628462846,158.61698605990014 L 287.5787578757876,156.8264308758539 L 293.27932793279325,151.49843740137487 L 299.42994299429944,161.9360639620346 L 303.18031803180315,170.2337587173708 L 309.8309830983098,179.75427164717757 L 310.98109810981094,182.59295669505573 L 311.3311331133113,185.47531382059358 L 311.1311131113111,188.66337548974906 L 309.68096809680964,196.08762869189195 L 309.5809580958096,199.01365789508944 z" /><path fill-rule="evenodd" fill="#D2EBD9" stroke="#A6A6A6" stroke-width="0.25" opacity="1" d="M 295.7295729572957,252.38093679519903 L 294.77947794779476,252.64296926115702 L 293.17931793179315,253.69109912498894 L 291.47914791479144,254.17149197924525 L 291.17911791179114,255.48165430903518 L 290.87908790879084,256.0493913186108 L 289.82898289828984,256.7481445611654 L 289.1789178917892,256.96650494946374 L 286.77867786778677,257.2285374154217 L 285.1285128512851,257.09752118244273 L 283.77837783778375,256.6608004058461 L 283.2283228322832,255.8310309303125 L 283.87838783878385,254.91391729945954 L 286.37863786378637,254.08414782392592 L 285.77857785778576,253.95313159094692 L 285.3285328532853,253.47273873669062 L 284.2284228422842,251.28913485370742 L 279.82798279827983,252.59929718349736 L 279.12791279127913,252.64296926115702 L 277.4277427742774,255.7000146973335 L 277.027702770277,256.6171283281864 L 276.8276827682768,257.79627442499736 L 277.2277227722772,264.085053607989 L 277.07770777077707,265.1768555494806 L 276.27762776277626,265.61357632607724 L 275.47754775477546,265.3952159377789 L 276.027602760276,264.085053607989 L 274.7274727472747,263.47364452075374 L 274.027402740274,263.5173165984134 L 273.47734773477345,264.085053607989 L 273.6273627362736,264.95849516118227 L 274.37743774377435,265.7882646367159 L 274.77747774777475,266.92373865586717 L 273.7273727372737,268.5832776069344 L 271.57715771577153,270.02445616970334 L 268.8268826882688,271.11625811119495 L 265.9265926592659,271.7713392760899 L 263.2263226322632,271.98969966438824 L 264.1264126412641,270.6795373345983 L 264.97649764976495,270.2864886356613 L 267.57675767576757,270.4611769463 L 268.3268326832683,269.9807840920437 L 269.1769176917692,268.93265422821173 L 269.6769676967697,267.66616397608146 L 269.3769376937694,266.7490503452285 L 266.5266526652665,266.6180341122495 L 265.026502650265,265.8756087920352 L 265.5265526552655,264.34708607394697 L 266.4266426642664,262.99325166649743 L 266.1266126612661,262.3818425792621 L 265.1265126512651,262.46918673458146 L 262.9262926292629,263.9103652973503 L 261.92619261926194,263.7793490643714 L 261.2761276127613,262.9059075111781 L 261.1761176117612,261.37738479308985 L 261.6761676167617,260.02355038564025 L 262.57625762576254,259.76151791968226 L 265.026502650265,260.28558285159824 L 267.5267526752675,259.76151791968226 L 269.7769776977698,258.40768351223267 L 271.57715771577153,256.3987679398881 L 272.9272927292729,253.95313159094692 L 269.82698269826983,252.90500172711498 L 268.8768876887689,252.8613296494553 L 266.026602660266,254.2151640569049 L 265.3265326532653,253.95313159094692 L 264.77647764776475,253.95313159094692 L 264.27642764276425,255.2196218430772 L 263.2263226322632,256.0493913186108 L 263.67636763676364,256.57345625052676 L 263.57635763576354,256.9228328718041 L 263.07630763076304,257.09752118244273 L 262.2262226222622,257.09752118244273 L 264.17641764176415,251.24546277604776 L 265.3265326532653,249.7169400579595 L 266.97669766976696,250.06631667923682 L 268.4268426842684,249.80428421327883 L 271.42714271427144,248.58146603880823 L 273.2273227322732,248.23208941753091 L 274.5274527452745,248.3631056505099 L 275.37753775377536,249.01818681540487 L 276.07760776077606,250.28467706753514 L 277.57775777577757,248.58146603880823 L 278.7278727872787,248.40677772816957 L 282.4282428242824,249.19287512604353 L 284.1284128412841,248.93084266008555 L 286.7286728672867,247.6643524079553 L 288.3288328832883,247.09661539837967 L 289.8789878987899,247.22763163135866 L 293.47934793479345,248.14474526221161 L 294.7294729472947,247.83904071859396 L 296.27962796279627,247.05294332072 L 297.3297329732973,247.6643524079553 L 297.7797779777978,249.06185889306454 L 297.1797179717972,252.1625764069007 L 296.8296829682968,252.33726471753937 L 295.7295729572957,252.38093679519903 z" /><path fill-rule="evenodd" fill="#D2EBD9" stroke="#A6A6A6" stroke-width="0.25" opacity="1" d="M 273.97739773977395,283.9121768654765 L 275.2275227522752,284.3052255644135 L 275.7275727572757,285.0476508846278 L 275.17751775177516,285.96476451548074 L 272.5272527252725,287.05656645697235 L 270.62706270627064,288.54141709740094 L 270.12701270127013,288.2357125537833 L 269.97699769977,287.36227100059 L 270.12701270127013,285.7900762048421 L 270.42704270427043,285.1349950399471 L 269.72697269726973,284.69827426335047 L 268.07680768076807,284.5672580303715 L 266.7266726672667,284.08686517611517 L 266.17661766176616,282.86404700164456 L 266.1266126612661,281.59755674951435 L 266.87668766876686,280.8114593516404 L 270.0770077007701,280.50575480802274 L 271.9271927192719,279.50129702185046 L 274.07740774077405,278.75887170163617 L 275.4275427542754,279.1082483229135 L 275.07750775077506,279.8506736431278 L 272.67726772677264,281.6849009048337 L 272.87728772877284,282.86404700164456 L 273.97739773977395,283.9121768654765 z" /></g><path fill-rule="evenodd" fill="#D2EBD9" stroke="#A6A6A6" stroke-width="0.25" opacity="1" d="M 118.7118711871187,400.2109196731621 L 113.66136613661365,396.8044976157083 L 111.3111311131113,393.7474521795318 L 109.86098609860986,392.61197816038054 L 108.06080608060806,392.21892946144357 L 106.36063606360635,392.74299439335954 L 104.16041604160415,394.92659827634276 L 102.6102610261026,395.31964697527974 L 100.0100010001,393.9221404901705 L 96.75967596759675,388.02641000611584 L 93.70937093709371,386.4542152103679 L 90.7090709070907,386.0174944337713 L 80.8080808080808,382.9167769199351 L 80.00800080008,382.4363840656788 L 79.85798579857985,381.51927043482584 L 80.65806580658065,377.9818321443931 L 80.75807580758075,376.54065358162416 L 80.4080408040804,373.2652477571493 L 79.9079907990799,371.6930529614014 L 78.3078307830783,368.7233516805443 L 77.95779577957795,367.02014065181737 L 77.30773077307731,365.44794585606945 L 73.1073107310731,360.38198484754844 L 66.1066106610661,362.39090041989294 L 63.95639563956395,362.1725400315947 L 60.4060406040604,359.98893614861146 L 58.15581558155815,359.8142478379728 L 57.05570557055705,359.98893614861146 L 53.005300530053,359.3338549837165 L 52.25522552255225,359.4648712166955 L 49.404940494049406,361.2554264007417 L 46.704670467046704,361.866835487977 L 45.35453545354535,362.39090041989294 L 44.25442544254425,363.1769978177669 L 43.05430543054305,363.7010627496829 L 41.5041504150415,363.5263744390442 L 41.004100410041005,362.9149653518089 L 40.854085408540854,362.25988418691395 L 41.054105410541055,361.5611309443594 L 42.5042504250425,359.50854329435515 L 42.8042804280428,358.02369265392656 L 42.45424542454245,356.4951699358383 L 40.65406540654065,353.87484527625844 L 40.904090409040904,353.0450758007249 L 42.3042304230423,351.2981926943383 L 42.5042504250425,350.3374069858257 L 42.35423542354235,347.19301739432984 L 43.004300430043,345.7518388315609 L 42.154215421542155,344.441676501771 L 41.9041904190419,339.76876419218695 L 40.05400540054005,335.0958518826029 L 39.25392539253925,334.0040499411113 L 36.8036803680368,332.2571668347247 L 35.65356535653565,331.2090369708928 L 34.953495349534954,329.7241863304642 L 34.85348534853485,328.3703519230146 L 35.003500350035004,325.8373714187541 L 34.75347534753475,324.30884870066586 L 33.853385338533855,321.2081311868297 L 33.803380338033804,320.16000132299774 L 34.3034303430343,318.32577406129184 L 35.25352535253525,316.9719396538423 L 36.45364536453645,315.70544940171203 L 37.6037603760376,314.0459104506448 L 39.653965396539654,313.69653382936747 L 41.15411541154115,311.5566020240439 L 41.75417541754175,309.853390995317 L 42.204220422042205,307.80080334531283 L 42.7042704270427,303.47726765700605 L 43.204320432043204,301.5556962399808 L 44.2044204420442,299.590452745296 L 45.45454545454545,298.49865080380437 L 46.65466546654665,296.9701280857161 L 47.7047704770477,294.56816381443457 L 48.204820482048206,293.8257384942203 L 49.254925492549255,293.1706573293253 L 50.95509550955095,292.55924824209 L 57.95579557955795,290.8560372133631 L 61.75617561756175,289.5458748835732 L 66.4066406640664,286.7508619133547 L 69.25692569256925,283.8248327101572 L 71.5071507150715,280.3310664973841 L 72.9072907290729,277.05566067290926 L 74.15741574157416,275.22143341120335 L 75.6075607560756,274.12963146971174 L 78.2078207820782,273.3435340718378 L 80.45804580458045,272.3827483633252 L 81.85818581858186,271.46563473247227 L 82.4082408240824,270.6795373345983 L 82.55825582558255,269.9807840920437 L 82.5082508250825,269.2383587718294 L 83.008300830083,268.67062176225375 L 84.15841584158416,268.27757306331677 L 89.55895589558955,268.32124514097643 L 94.85948594859485,269.01999838353106 L 96.9096909690969,268.9763263058714 L 99.009900990099,268.4522613739554 L 101.66016601660165,267.1420990441655 L 103.76037603760375,265.61357632607724 L 105.31053105310531,264.7838068505436 L 107.010701070107,264.4344302292663 L 109.6109610961096,264.39075815160663 L 111.6111611161116,264.12872568564865 L 114.011401140114,263.34262828777474 L 118.3118311831183,261.4210568707495 L 125.6125612561256,256.48611209520743 L 126.96269626962696,256.0493913186108 L 128.86288628862886,256.1804075515898 L 130.46304630463047,256.7918166388251 L 134.6134613461346,258.8444042888293 L 136.4136413641364,259.4558133760646 L 138.4138413841384,259.3684692207453 L 140.9140914091409,258.626043900531 L 144.41444144414442,256.3114237845688 L 146.9146914691469,253.8657874356276 L 148.9148914891489,251.15811862072843 L 150.96509650965095,247.14028747603933 L 152.5152515251525,245.9611413792284 L 155.015501550155,245.3497322919931 L 168.66686668666867,244.91301151539645 L 176.3176317631763,245.87379722390907 L 177.16771677167716,246.52887838880403 L 177.81778177817782,246.61622254412336 L 178.8178817881788,246.4415342334847 L 180.26802680268025,245.43707644731242 L 180.8180818081808,245.39340436965276 L 181.66816681668166,245.52442060263175 L 184.46844684468445,246.52887838880403 L 189.16891689168915,247.314975786678 L 186.6186618661866,256.7918166388251 L 180.06800680068005,267.8845243643798 L 178.96789678967895,269.3257029271487 L 178.01780178017802,270.02445616970334 L 167.91679167916791,271.2909464218336 L 164.4164416441644,272.33907628566556 L 160.9160916091609,273.8239269260941 L 157.26572657265726,276.31323535269496 L 155.66556655665565,278.4531671580185 L 154.8154815481548,280.98614766227905 L 154.66546654665467,287.31859892293033 L 154.86548654865484,289.24017033995557 L 155.36553655365535,290.63767682506483 L 156.06560656065605,291.8604949995354 L 156.4156415641564,292.952296941027 L 156.6156615661566,294.48081965911524 L 156.56565656565655,296.2713748431615 L 156.1156115611561,298.54232288146403 L 155.16551655165514,301.2063196187035 L 153.06530653065306,305.09313453041364 L 151.1151115111511,307.3640825687162 L 149.36493649364937,308.8926052868044 L 147.7147714771477,310.8141767038296 L 146.96469646964695,312.7794201985145 L 145.86458645864585,316.9719396538423 L 143.46434643464346,320.8587545655524 L 142.76427642764276,322.3872772836406 L 141.86418641864185,325.1386181761995 L 141.014101410141,325.8373714187541 L 124.06240624062406,328.89441685493057 L 122.21222122212221,329.8115304857835 L 120.5120512051205,331.6457577474894 L 120.06200620062006,333.43631293153567 L 120.26202620262026,335.7509330474978 L 121.36213621362135,340.8168940560189 L 121.26212621262125,343.30620248261977 L 120.86208620862085,344.87839727836763 L 119.91199119911991,346.2759037634769 L 117.11171117111711,349.7259978985904 L 116.56165616561655,351.2981926943383 L 116.7116711671167,353.17609203370387 L 117.26172617261726,354.7919589071114 L 118.1118111811181,358.63510174116186 L 119.36193619361936,390.64673466569565 L 118.7118711871187,400.2109196731621 z" /><path fill-rule="evenodd" fill="#D2EBD9" stroke="#A6A6A6" stroke-width="0.25" opacity="1" d="M 37.6037603760376,314.0459104506448 L 38.05380538053805,312.6920760431952 L 37.65376537653765,308.28119619956914 L 38.05380538053805,306.66532932616155 L 39.4039403940394,303.47726765700605 L 39.603960396039604,301.8177287059388 L 38.85388538853885,299.8524852112539 L 35.7035703570357,296.6207514644388 L 34.5034503450345,294.56816381443457 L 25.05250525052505,267.6224918984218 L 23.05230523052305,264.3034139962873 L 19.35193519351935,260.4602711622369 L 18.45184518451845,258.75706013351 L 14.401440144014401,243.90855372922417 L 14.2014201420142,240.63314790474936 L 15.251525152515251,237.22672584729557 L 12.8012801280128,235.61085897388799 L 11.35113511351135,233.20889470260647 L 7.55075507550755,221.9414986664131 L 6.2006200620062,219.80156686108958 L 0.7000700070007,214.4299013089509 L 0.1000100010001,213.0760669015013 L 0.0,211.41652795043407 L 7.650765076507651,145.99575561625718 L 9.1009100910091,145.95208353859752 L 9.650965096509651,147.48060625668577 L 10.6010601060106,148.22303157690007 L 11.85118511851185,148.52873612051772 L 13.451345134513451,148.57240819817738 L 14.5014501450145,148.83444066413537 L 16.8016801680168,149.92624260562695 L 18.3018301830183,150.14460299392528 L 21.652165216521652,150.14460299392528 L 22.252225222522252,150.31929130456393 L 23.502350235023503,151.06171662477823 L 24.2024202420242,151.23640493541689 L 29.302930293029302,151.23640493541689 L 31.703170317031702,150.93070039179923 L 36.55365536553655,149.48952182903034 L 39.05390539053905,149.14014520775302 L 39.5039503950395,148.87811274179504 L 40.854085408540854,147.00021340242947 L 42.004200420042004,146.2141160045555 L 42.65426542654265,146.03942769391685 L 43.454345434543455,145.95208353859752 L 43.85438543854385,146.0830997715765 L 44.95449544954495,147.00021340242947 L 46.904690469046905,146.86919716945047 L 47.5047504750475,147.00021340242947 L 48.45484548454845,147.65529456732443 L 49.254925492549255,148.61608027583705 L 49.8049804980498,149.8825705279673 L 50.305030503050304,154.90485945882867 L 50.9050905090509,156.43338217691692 L 52.05520552055205,158.09292112798417 L 54.2054205420542,159.70878800139172 L 56.75567556755675,160.32019708862703 L 62.256225622562255,160.18918085564803 L 63.9063906390639,160.75691786522367 L 64.95649564956496,160.93160617586233 L 66.75667566756675,159.3594113801144 L 68.15681568156815,158.5296419045808 L 71.007100710071,154.42446660457236 L 72.10721072107211,153.24532050776145 L 72.40724072407241,152.63391142052615 L 72.50725072507251,149.75155429498832 L 72.7072707270727,148.9217848194547 L 73.75737573757375,148.3103757322194 L 76.8076807680768,145.7337231502992 L 77.65776577657765,143.85582381093366 L 78.05780578057805,141.93425239390842 L 78.5078507850785,141.06081084071513 L 80.95809580958095,140.18736928752188 L 81.55815581558156,139.57596020028657 L 81.75817581758176,138.83353488007228 L 81.85818581858186,136.86829138538738 L 82.2082208220822,135.60180113325714 L 83.008300830083,134.6846875024042 L 84.30843084308431,133.8112459492109 L 85.15851585158515,134.6846875024042 L 109.5109510951095,193.46730403231211 L 110.8110811081108,192.33183001316084 L 111.7111711171117,191.0216676833709 L 113.16131613161315,188.18298263549275 L 113.46134613461345,187.92095016953476 L 114.2114211421142,187.83360601421543 L 114.46144614461446,187.57157354825745 L 114.5114511451145,186.1740670631482 L 114.96149614961496,185.12593719931627 L 115.31153115311531,184.7328885003793 L 116.16161616161615,184.6018722674003 L 116.86168616861686,184.03413525782466 L 117.11171117111711,182.7676450056944 L 117.51175117511751,181.98154760782043 L 118.1118111811181,181.50115475356412 L 126.2126212621262,178.13840477377 L 127.56275627562755,177.92004438547167 L 131.8131813181318,178.6187976280263 L 133.6133613361336,178.53145347270697 L 134.76347634763476,178.05106061845066 L 135.51355135513552,177.1339469875977 L 135.96359635963594,175.9548008907868 L 136.86368636863685,178.09473269611033 L 136.5136513651365,180.88974566632885 L 134.16341634163416,186.08672290782886 L 133.66336633663366,188.31399886847174 L 133.5133513351335,190.10455405251795 L 133.76337633763376,191.50206053762722 L 135.21352135213522,194.3407455855054 L 136.26362636263624,197.39779102168188 L 136.96369636963695,198.40224880785416 L 138.3138313831383,199.62506698232474 L 139.96399639963997,200.62952476849702 L 142.76427642764276,201.72132670998863 L 143.76437643764376,202.63844034084158 L 144.86448644864487,204.07961890361048 L 146.5146514651465,206.874631873829 L 149.36493649364937,210.06269354298448 L 150.7150715071507,210.93613509617776 L 152.9152915291529,211.6348883387324 L 159.56595659565957,212.1152811929887 L 166.016601660166,213.6874759887366 L 169.06690669066907,214.99763831852653 L 171.46714671467146,215.3906870174635 L 176.46764676467646,214.82295000788787 L 176.3176317631763,245.87379722390907 L 168.66686668666867,244.91301151539645 L 155.015501550155,245.3497322919931 L 152.5152515251525,245.9611413792284 L 150.96509650965095,247.14028747603933 L 148.9148914891489,251.15811862072843 L 146.9146914691469,253.8657874356276 L 144.41444144414442,256.3114237845688 L 140.9140914091409,258.626043900531 L 138.4138413841384,259.3684692207453 L 136.4136413641364,259.4558133760646 L 134.6134613461346,258.8444042888293 L 130.46304630463047,256.7918166388251 L 128.86288628862886,256.1804075515898 L 126.96269626962696,256.0493913186108 L 125.6125612561256,256.48611209520743 L 118.3118311831183,261.4210568707495 L 114.011401140114,263.34262828777474 L 111.6111611161116,264.12872568564865 L 109.6109610961096,264.39075815160663 L 107.010701070107,264.4344302292663 L 105.31053105310531,264.7838068505436 L 103.76037603760375,265.61357632607724 L 101.66016601660165,267.1420990441655 L 99.009900990099,268.4522613739554 L 96.9096909690969,268.9763263058714 L 94.85948594859485,269.01999838353106 L 89.55895589558955,268.32124514097643 L 84.15841584158416,268.27757306331677 L 83.008300830083,268.67062176225375 L 82.5082508250825,269.2383587718294 L 82.55825582558255,269.9807840920437 L 82.4082408240824,270.6795373345983 L 81.85818581858186,271.46563473247227 L 80.45804580458045,272.3827483633252 L 78.2078207820782,273.3435340718378 L 75.6075607560756,274.12963146971174 L 74.15741574157416,275.22143341120335 L 72.9072907290729,277.05566067290926 L 71.5071507150715,280.3310664973841 L 69.25692569256925,283.8248327101572 L 66.4066406640664,286.7508619133547 L 61.75617561756175,289.5458748835732 L 57.95579557955795,290.8560372133631 L 50.95509550955095,292.55924824209 L 49.254925492549255,293.1706573293253 L 48.204820482048206,293.8257384942203 L 47.7047704770477,294.56816381443457 L 46.65466546654665,296.9701280857161 L 45.45454545454545,298.49865080380437 L 44.2044204420442,299.590452745296 L 43.204320432043204,301.5556962399808 L 42.7042704270427,303.47726765700605 L 42.204220422042205,307.80080334531283 L 41.75417541754175,309.853390995317 L 41.15411541154115,311.5566020240439 L 39.653965396539654,313.69653382936747 L 37.6037603760376,314.0459104506448 z" /><path fill-rule="evenodd" fill="#D2EBD9" stroke="#A6A6A6" stroke-width="0.25" opacity="1" d="M 135.96359635963594,175.9548008907868 L 136.5136513651365,173.46549246418593 L 136.86368636863685,172.72306714397163 L 137.56375637563755,172.02431390141703 L 139.2139213921392,170.97618403758509 L 139.71397139713972,169.9717262514128 L 140.41404140414042,167.04569704821532 L 141.014101410141,165.69186264076572 L 141.9141914191419,164.55638862161445 L 143.06430643064306,163.6392749907615 L 147.06470647064705,161.4556711077783 L 147.66476647664766,160.88793409820266 L 148.16481648164816,159.18472306947575 L 148.56485648564856,158.5296419045808 L 149.46494649464947,157.83088866202618 L 150.1150115011501,157.74354450670685 L 150.76507650765075,157.9182328173455 L 154.41544154415442,157.9182328173455 L 160.1160116011601,158.57331398224048 L 162.9162916291629,159.31573930245474 L 167.5167516751675,161.7177035737363 L 168.96689668966897,161.67403149607662 L 170.3170317031703,161.1936386418203 L 171.66716671667166,161.06262240884132 L 173.06730673067307,161.1936386418203 L 174.46744674467445,161.54301526309763 L 178.9178917891789,163.3772425248035 L 182.26822682268227,163.72661914608082 L 183.66836683668365,164.68740485459344 L 186.1186118611861,166.958352892896 L 189.2189218921892,168.39953145566489 L 190.7190719071907,169.3603171641775 L 191.81918191819182,170.75782364928676 L 192.01920192019202,172.19900221205566 L 191.91919191919192,173.6401807748246 L 192.01920192019202,174.90667102695485 L 192.96929692969294,175.86745673546747 L 193.06930693069305,175.60542426950948 L 195.76957695769576,175.29971972589183 L 198.6198619861986,174.4699502503582 L 200.27002700270026,173.46549246418593 L 201.77017701770177,172.0679859790767 L 203.07030703070305,170.49579118332878 L 204.07040704070405,168.83625223226153 L 206.27062706270627,162.41645681629092 L 207.77077707770775,159.57777176841273 L 209.67096709670966,159.6214438460724 L 211.27112711271127,162.24176850565226 L 212.3212321232123,163.1588821365052 L 214.17141714171416,163.46458668012284 L 218.2218221822182,162.8095055152279 L 219.6219621962196,162.89684967054723 L 225.72257225722572,164.6000606992741 L 228.77287728772876,166.0849113397027 L 230.12301230123012,167.8754665237489 L 230.67306730673067,169.40398924183717 L 231.97319731973195,169.40398924183717 L 233.47334733473346,168.57421976630354 L 234.57345734573457,167.61343405779095 L 236.57365736573655,165.29881394182874 L 236.97369736973695,165.08045355353042 L 240.8240824082408,163.94497953437914 L 242.8242824282428,163.7702912237405 L 246.2246224622462,164.33802823331612 L 220.52205220522052,208.88354744617354 L 218.97189718971896,212.50832989192565 L 216.62166216621662,216.3951448036358 L 215.77157715771577,215.3906870174635 L 214.27142714271426,214.6482616972492 L 213.47134713471345,214.82295000788787 L 176.46764676467646,214.82295000788787 L 171.46714671467146,215.3906870174635 L 169.06690669066907,214.99763831852653 L 166.016601660166,213.6874759887366 L 159.56595659565957,212.1152811929887 L 152.9152915291529,211.6348883387324 L 150.7150715071507,210.93613509617776 L 149.36493649364937,210.06269354298448 L 146.5146514651465,206.874631873829 L 144.86448644864487,204.07961890361048 L 143.76437643764376,202.63844034084158 L 142.76427642764276,201.72132670998863 L 139.96399639963997,200.62952476849702 L 138.3138313831383,199.62506698232474 L 136.96369636963695,198.40224880785416 L 136.26362636263624,197.39779102168188 L 135.21352135213522,194.3407455855054 L 133.76337633763376,191.50206053762722 L 133.5133513351335,190.10455405251795 L 133.66336633663366,188.31399886847174 L 134.16341634163416,186.08672290782886 L 136.5136513651365,180.88974566632885 L 136.86368636863685,178.09473269611033 L 135.96359635963594,175.9548008907868 z" /><path fill-rule="evenodd" fill="#D2EBD9" stroke="#A6A6A6" stroke-width="0.25" opacity="1" d="M 176.46764676467646,214.82295000788787 L 213.47134713471345,214.82295000788787 L 214.27142714271426,214.6482616972492 L 215.77157715771577,215.3906870174635 L 216.62166216621662,216.3951448036358 L 213.47134713471345,218.40406037598032 L 207.02070207020702,221.85415451109378 L 203.47034703470345,225.04221618024928 L 199.06990699069905,229.84614472281234 L 192.26922692269227,240.37111543879138 L 190.46904690469046,243.90855372922417 L 189.16891689168915,247.314975786678 L 184.46844684468445,246.52887838880403 L 181.66816681668166,245.52442060263175 L 180.8180818081808,245.39340436965276 L 180.26802680268025,245.43707644731242 L 178.8178817881788,246.4415342334847 L 177.81778177817782,246.61622254412336 L 177.16771677167716,246.52887838880403 L 176.3176317631763,245.87379722390907 L 176.46764676467646,214.82295000788787 z" /></g></g></g></svg>