<svg xmlns="http://www.w3.org/2000/svg" xmlns:xlink="http://www.w3.org/1999/xlink" width="371.82910016318783" height="500.0" viewBox="0.0 0.0 371.82910016318783 500.0" preserveAspectRatio="xMinYMin meet"><g transform="matrix(1,0,0,-1,0,500.0)"><g><g><g><path fill-rule="evenodd" fill="#D2EBD9" stroke="#A6A6A6" stroke-width="0.25" opacity="1" d="M 352.5664265073691,142.76427642764276 L 354.0910782832157,142.96429642964296 L 354.3885713126492,143.5143514351435 L 352.938292794161,143.36433643364336 L 352.157373591898,142.4142414241424 L 351.9714404485021,141.36413641364135 L 352.4176799926523,140.86408640864084 L 354.2770114266117,139.86398639863987 L 355.2438637722705,139.76397639763977 L 355.4297969156665,140.86408640864084 L 354.6860643420827,140.76407640764074 L 353.7192119964239,141.2141214121412 L 352.938292794161,141.96419641964195 L 352.5664265073691,142.76427642764276 z" /><path fill-rule="evenodd" fill="#D2EBD9" stroke="#A6A6A6" stroke-width="0.25" opacity="1" d="M 332.7459534213626,151.36513651365135 L 333.30375285155037,150.16501650165014 L 334.19623193985086,150.16501650165014 L 334.90277788475544,151.015101510151 L 334.86559125607624,152.5152515251525 L 334.23341856853006,153.46534653465346 L 333.48968599494634,153.4153415341534 L 332.93188656475854,152.6152615261526 L 332.7459534213626,151.36513651365135 z" /><path fill-rule="evenodd" fill="#D2EBD9" stroke="#A6A6A6" stroke-width="0.25" opacity="1" d="M 286.7089071165295,151.3151315131513 L 286.2626675723792,149.81498149814982 L 286.9692135172838,149.11491149114912 L 287.6757594621883,149.36493649364937 L 287.2295199180381,150.4150415041504 L 287.1179600320005,151.46514651465145 L 288.010439120301,152.26522652265226 L 289.1260379806766,152.06520652065205 L 289.53509089614766,150.2150215021502 L 290.65068975652326,151.9151915191519 L 289.3119711240725,153.4153415341534 L 287.415453061434,153.66536653665366 L 286.7089071165295,151.3151315131513 z" /><path fill-rule="evenodd" fill="#D2EBD9" stroke="#A6A6A6" stroke-width="0.25" opacity="1" d="M 343.38132922360995,193.56935693569355 L 342.191357105876,194.6194619461946 L 340.36921230059585,193.66936693669365 L 339.29080006889944,192.11921192119212 L 341.29887801757553,190.7190719071907 L 341.78230419040494,190.56905690569056 L 343.5672623670059,190.56905690569056 L 344.1622484258729,190.96909690969096 L 344.4597414553064,191.91919191919192 L 344.27380831191044,192.9192919291929 L 343.38132922360995,193.56935693569355 z" /><path fill-rule="evenodd" fill="#D2EBD9" stroke="#A6A6A6" stroke-width="0.25" opacity="1" d="M 328.7297975240104,206.37063706370637 L 328.246371351181,206.52065206520652 L 327.24233237684297,205.77057705770576 L 327.7257585496724,204.5204520452045 L 328.246371351181,203.9203920392039 L 328.91573066740636,203.5203520352035 L 329.8825830130652,203.77037703770375 L 329.8825830130652,204.5204520452045 L 329.6594632409901,205.77057705770576 L 328.7297975240104,206.37063706370637 z" /><path fill-rule="evenodd" fill="#D2EBD9" stroke="#A6A6A6" stroke-width="0.25" opacity="1" d="M 367.85013089451485,210.3210321032103 L 365.54455991640526,210.1210121012101 L 364.50333431338805,208.6208620862086 L 364.8008273428215,206.92069206920692 L 366.39985237602656,206.22062206220622 L 367.58982449376055,205.97059705970597 L 368.96572975489045,206.02060206020602 L 370.1557018726244,206.52065206520652 L 370.63912804545384,207.5207520752075 L 370.26726175866196,208.4208420842084 L 369.41196929904066,209.3209320932093 L 367.85013089451485,210.3210321032103 z" /><path fill-rule="evenodd" fill="#D2EBD9" stroke="#A6A6A6" stroke-width="0.25" opacity="1" d="M 333.15500633683365,248.57485748574857 L 332.07659410513725,248.62486248624862 L 330.9981818734408,249.77497749774977 L 330.29163592853627,250.07500750075005 L 330.440382443253,248.57485748574857 L 330.62631558664896,248.22482248224821 L 331.10974175947837,247.9247924792479 L 332.26252724853316,247.7247724772477 L 332.7459534213626,247.47474747474746 L 333.37812610890876,247.024702470247 L 333.48968599494634,246.7246724672467 L 333.45249936626715,245.97459745974595 L 332.56002027796666,245.17451745174517 L 332.7459534213626,244.47444744474447 L 332.07659410513725,243.87438743874387 L 331.44442141759106,242.8242824282428 L 331.2956749028743,241.77417741774175 L 332.03940747645805,241.17411741174115 L 332.29971387721235,242.17421742174216 L 333.08063307947526,243.27432743274326 L 334.0846720538133,244.12441244124412 L 335.05152439947216,244.47444744474447 L 335.94400348777265,246.5246524652465 L 335.60932382965996,247.27472747274726 L 333.15500633683365,248.57485748574857 z" /><path fill-rule="evenodd" fill="#D2EBD9" stroke="#A6A6A6" stroke-width="0.25" opacity="1" d="M 268.15277940561526,142.76427642764276 L 267.07436717391886,142.46424642464245 L 267.11155380259805,141.8141814181418 L 267.96684626221935,140.11401140114012 L 266.88843403052294,140.51405140514052 L 266.66531425844784,139.96399639963997 L 266.21907471429756,139.76397639763977 L 266.29344797165595,139.26392639263926 L 266.51656774373106,139.06390639063906 L 267.8552863761818,139.013901390139 L 269.41712478070764,139.36393639363936 L 268.71057883580306,142.3142314231423 L 268.15277940561526,142.76427642764276 z" /><path fill-rule="evenodd" fill="#D2EBD9" stroke="#A6A6A6" stroke-width="0.25" opacity="1" d="M 198.5394105181778,151.9151915191519 L 198.13035760270674,152.76527652765276 L 196.41977268346415,152.8152815281528 L 196.0479063966723,153.56535653565356 L 195.4901069664845,153.26532653265326 L 194.11420170535456,153.56535653565356 L 193.7051487898835,153.46534653465346 L 193.25890924573326,152.9152915291529 L 192.25487027139525,152.76527652765276 L 191.88300398460336,152.5152515251525 L 191.4739510691323,150.96509650965095 L 190.02367255064402,151.5151515151515 L 187.97840797328877,151.4151415141514 L 186.11907653932943,150.7150715071507 L 185.41253059442488,149.51495149514952 L 185.41253059442488,148.5148514851485 L 185.18941082234977,147.5147514751475 L 184.70598464952033,147.06470647064705 L 184.03662533329498,147.6147614761476 L 183.47882590310718,147.16471647164715 L 183.25570613103204,146.1146114611461 L 182.92102647291938,145.66456645664564 L 182.47478692876913,145.6145614561456 L 179.5370432631134,146.36463646364635 L 178.9420572042464,146.36463646364635 L 178.4214444027378,146.1146114611461 L 178.01239148726674,145.5145514551455 L 177.8264583438708,144.31443144314431 L 177.268658913683,143.86438643864386 L 176.26461993934495,144.26442644264426 L 175.3349542223653,143.9143914391439 L 173.77311581783945,142.36423642364235 L 174.92590130689425,141.56415641564155 L 175.44651410840285,141.4141414141414 L 175.8555670238739,141.66416641664165 L 176.22743331066576,141.66416641664165 L 176.48773971142006,140.86408640864084 L 177.08272577028706,140.9140914091409 L 178.19832463066265,141.66416641664165 L 181.02450841028084,140.86408640864084 L 181.80542761254378,141.014101410141 L 182.92102647291938,142.36423642364235 L 183.92506544725742,142.46424642464245 L 184.70598464952033,143.1143114311431 L 184.63161139216197,141.2141214121412 L 185.0778509363122,140.86408640864084 L 185.52409048046243,140.86408640864084 L 186.00751665329187,141.06410641064105 L 186.34219631140456,141.46414641464145 L 186.60250271215887,143.2143214321432 L 186.34219631140456,143.66436643664366 L 185.22659745102894,144.1144114411441 L 185.11503756499138,144.71447144714472 L 185.30097070838733,145.3145314531453 L 185.78439688121674,145.66456645664564 L 186.04470328197107,144.86448644864487 L 186.11907653932943,146.3146314631463 L 186.37938294008373,146.86468646864685 L 188.61058066083493,147.2147214721472 L 190.84177838158615,149.06490649064907 L 192.18049701403686,149.61496149614962 L 193.55640227516676,149.06490649064907 L 192.8498563302622,148.36483648364836 L 193.4820290178084,148.06480648064806 L 194.3001348487505,148.36483648364836 L 193.92826856195865,146.86468646864685 L 196.0479063966723,147.1147114711471 L 197.83286457327324,146.86468646864685 L 198.2419174887443,147.1147114711471 L 198.4650372608194,147.46474647464746 L 198.2047308600651,148.36483648364836 L 199.72938263591178,148.014801480148 L 200.10124892270363,147.66476647664766 L 201.96058035666297,148.7148714871487 L 202.03495361402133,149.61496149614962 L 201.77464721326703,150.66506650665065 L 201.36559429779598,151.36513651365135 L 200.80779486760818,151.6151615161516 L 198.5394105181778,151.9151915191519 z" /><path fill-rule="evenodd" fill="#D2EBD9" stroke="#A6A6A6" stroke-width="0.25" opacity="1" d="M 203.48523213250962,156.2156215621562 L 203.74553853326393,157.06570657065706 L 202.96461933100102,157.26572657265726 L 201.92339372798378,156.96569656965696 L 201.36559429779598,156.36563656365635 L 200.770608238929,155.16551655165514 L 200.65904835289143,154.51545154515452 L 202.07214024270053,153.56535653565356 L 202.55556641552994,153.46534653465346 L 203.18773910307613,154.56545654565457 L 203.89428504798067,154.36543654365437 L 204.08021819137662,154.9154915491549 L 204.11740482005578,155.36553655365535 L 203.48523213250962,156.2156215621562 z" /><path fill-rule="evenodd" fill="#D2EBD9" stroke="#A6A6A6" stroke-width="0.25" opacity="1" d="M 276.7057040018282,173.66736673667367 L 273.87952022221003,173.11731173117312 L 270.9045899278751,171.86718671867186 L 271.01614981391265,171.26712671267126 L 272.0573754169299,170.66706670667065 L 272.98704113390954,169.7169716971697 L 273.02422776258874,168.76687668766877 L 273.58202719277654,167.86678667866786 L 274.5116929097562,168.11681168116812 L 274.5860661671146,169.2169216921692 L 275.55291851277343,170.06700670067005 L 275.3669853693775,170.66706670667065 L 274.40013302371864,170.3170317031703 L 274.06545336560595,170.76707670767075 L 275.55291851277343,172.06720672067206 L 276.7800772591866,172.36723672367236 L 277.18913017465763,173.01730173017302 L 276.7057040018282,173.66736673667367 z" /><path fill-rule="evenodd" fill="#D2EBD9" stroke="#A6A6A6" stroke-width="0.25" opacity="1" d="M 245.8036155694241,204.020402040204 L 245.35737602527385,204.5204520452045 L 244.13021727886067,206.82068206820682 L 243.31211144791857,207.3207320732073 L 242.01057944414703,207.5207520752075 L 240.89498058377143,206.62066206620662 L 240.52311429697957,206.62066206620662 L 240.00250149547097,206.97069706970697 L 240.11406138150852,206.42064206420642 L 240.7090474403755,205.3205320532053 L 240.63467418301713,203.77037703770375 L 240.85779395509226,202.22022202220222 L 241.08091372716737,201.82018201820182 L 241.5643398999968,201.97019701970197 L 241.71308641471356,202.32023202320232 L 241.5643398999968,203.4203420342034 L 241.75027304339272,204.020402040204 L 242.34525910225972,202.47024702470245 L 243.64679110603126,200.57005700570056 L 244.01865739282312,199.06990699069905 L 244.53927019433172,198.4198419841984 L 246.0639219701784,197.46974697469747 L 246.73328128640375,199.6199619961996 L 246.6217214003662,202.5202520252025 L 245.8036155694241,204.020402040204 z" /><path fill-rule="evenodd" fill="#D2EBD9" stroke="#A6A6A6" stroke-width="0.25" opacity="1" d="M 250.2288243822473,215.12151215121511 L 248.48105283432554,215.87158715871587 L 248.2207464335712,215.17151715171516 L 248.36949294828796,214.47144714471446 L 249.81977146677625,212.07120712071205 L 250.2288243822473,212.57125712571255 L 250.30319763960568,213.021302130213 L 249.8941447241346,214.4214421442144 L 250.2288243822473,214.87148714871486 L 250.2288243822473,215.12151215121511 z" /><path fill-rule="evenodd" fill="#D2EBD9" stroke="#A6A6A6" stroke-width="0.25" opacity="1" d="M 213.78592827664434,218.9218921892189 L 213.15375558909815,219.6219621962196 L 214.26935444947375,216.57165716571657 L 214.93871376569913,216.42164216421642 L 215.16183353777424,216.12161216121612 L 215.49651319588693,216.02160216021602 L 215.8683794826788,216.27162716271627 L 216.20305914079148,215.87158715871587 L 216.57492542758334,216.67166716671667 L 215.68244633928285,216.87168716871685 L 214.64122073626564,217.57175717571755 L 213.78592827664434,218.9218921892189 z" /><path fill-rule="evenodd" fill="#D2EBD9" stroke="#A6A6A6" stroke-width="0.25" opacity="1" d="M 216.3889922841874,224.1224122412241 L 215.08746028041588,223.3223322332233 L 214.4924742215489,221.67216721672165 L 215.45932656720774,218.6218621862186 L 215.97993936871634,217.67176717671765 L 218.80612314833454,218.67186718671866 L 219.14080280644723,219.2219221922192 L 219.4754824645599,220.62206220622062 L 219.1779894351264,222.1222122212221 L 218.50863011890104,224.07240724072406 L 217.504591144563,224.67246724672466 L 216.7236719423001,224.4224422442244 L 216.3889922841874,224.1224122412241 z" /><path fill-rule="evenodd" fill="#D2EBD9" stroke="#A6A6A6" stroke-width="0.25" opacity="1" d="M 228.25152683284796,224.5224522452245 L 229.14400592114845,223.7223722372237 L 229.70180535133625,222.6222622262226 L 230.0736716381281,222.6222622262226 L 229.2927524358652,225.07250725072507 L 228.9952594064317,225.62256225622562 L 228.32590009020635,226.02260226022602 L 227.8796605460561,225.82258225822582 L 227.8424739173769,225.22252225222522 L 228.25152683284796,224.5224522452245 z" /><path fill-rule="evenodd" fill="#D2EBD9" stroke="#A6A6A6" stroke-width="0.25" opacity="1" d="M 251.3072366139437,242.4242424242424 L 251.1213034705478,244.67446744674467 L 250.60069066903915,245.07450745074507 L 250.15445112488894,245.12451245124512 L 247.51420048866666,244.67446744674467 L 247.1423342018748,244.07440744074407 L 247.03077431583725,242.6242624262426 L 247.6629470033834,241.07410741074105 L 247.774506889421,240.22402240224022 L 247.774506889421,237.023702370237 L 248.14637317621285,236.7236723672367 L 249.55946506602194,237.8237823782378 L 250.34038426828485,238.77387738773876 L 250.86099706979348,239.82398239823982 L 251.19567672790615,241.024102410241 L 251.3072366139437,242.4242424242424 z" /><path fill-rule="evenodd" fill="#D2EBD9" stroke="#A6A6A6" stroke-width="0.25" opacity="1" d="M 345.8356467164363,57.655765576557656 L 346.3934461466241,57.655765576557656 L 345.7612734590779,58.3058305830583 L 345.5381536870028,59.25592559255925 L 345.2406606575693,58.805880588058805 L 345.2034740288901,58.4058405840584 L 345.8356467164363,57.655765576557656 z" /><path fill-rule="evenodd" fill="#D2EBD9" stroke="#A6A6A6" stroke-width="0.25" opacity="1" d="M 371.27130073300003,103.41034103410341 L 371.82910016318783,104.8104810481048 L 371.15974084696245,104.010401040104 L 371.08536758960406,103.7103710371037 L 371.27130073300003,103.41034103410341 z" /><path fill-rule="evenodd" fill="#D2EBD9" stroke="#A6A6A6" stroke-width="0.25" opacity="1" d="M 361.305284246978,140.31403140314032 L 361.1937243609404,139.81398139813982 L 361.34247087565717,139.66396639663967 L 361.8258970484866,140.06400640064007 L 362.3465098499952,140.11401140114012 L 362.75556276546627,140.41404140414042 L 362.8671226515038,141.46414641464145 L 362.6811895081079,142.46424642464245 L 362.2721365926368,142.16421642164215 L 361.305284246978,140.31403140314032 z" /><path fill-rule="evenodd" fill="#D2EBD9" stroke="#A6A6A6" stroke-width="0.25" opacity="1" d="M 336.50180291796045,156.16561656165615 L 337.09678897682744,156.7156715671567 L 337.54302852097766,157.4157415741574 L 336.09275000248937,156.86568656865686 L 334.90277788475544,155.9155915591559 L 335.72088371569754,155.8155815581558 L 336.50180291796045,156.16561656165615 z" /><path fill-rule="evenodd" fill="#D2EBD9" stroke="#A6A6A6" stroke-width="0.25" opacity="1" d="M 356.8057021767964,167.7167716771677 L 357.2519417209466,167.7167716771677 L 357.6609946364177,167.96679667966797 L 357.8841144084928,168.46684668466847 L 357.7725545224552,169.01690169016902 L 357.2147550922674,169.46694669466945 L 356.5825824047213,169.2169216921692 L 356.322276003967,168.56685668566857 L 356.8057021767964,167.7167716771677 z" /><path fill-rule="evenodd" fill="#D2EBD9" stroke="#A6A6A6" stroke-width="0.25" opacity="1" d="M 314.6360652545987,216.42164216421642 L 316.0119705157286,216.22162216221622 L 316.7928897179915,216.97169716971695 L 316.8672629753499,218.1218121812181 L 315.900410629691,218.97189718971896 L 314.7848117693154,218.87188718871886 L 314.0410791957317,218.07180718071805 L 313.9667059383733,217.07170717071705 L 314.6360652545987,216.42164216421642 z" /><path fill-rule="evenodd" fill="#D2EBD9" stroke="#A6A6A6" stroke-width="0.25" opacity="1" d="M 323.2261764794908,232.6232623262326 L 324.2302154538288,232.77327732773276 L 324.5648951119415,233.57335733573356 L 324.3417753398664,234.57345734573457 L 323.7839759096786,235.17351735173517 L 322.7427503066614,235.12351235123512 L 322.2593241338319,234.37343734373437 L 322.4080706485487,233.37333733373336 L 323.2261764794908,232.6232623262326 z" /><path fill-rule="evenodd" fill="#D2EBD9" stroke="#A6A6A6" stroke-width="0.25" opacity="1" d="M 323.1889898508116,243.37433743374336 L 323.5980427662827,242.87428742874286 L 324.1186555677913,242.8242824282428 L 324.5648951119415,243.17431743174316 L 324.7136416266583,243.82438243824382 L 324.3789619685456,244.52445244524452 L 323.7467892809994,244.72447244724472 L 323.2261764794908,244.42444244424442 L 323.1889898508116,243.37433743374336 z" /></g><g><path fill-rule="evenodd" fill="#D2EBD9" stroke="#A6A6A6" stroke-width="0.25" opacity="1" d="M 158.11754514390185,177.1177117711771 L 157.4109991989973,177.51775177517752 L 156.66726662541356,176.5176517651765 L 156.5928933680552,176.1176117611761 L 157.00194628352625,174.36743674367435 L 157.48537245635566,173.31733173317332 L 158.11754514390185,172.4172417241724 L 158.8612777174856,171.9171917191719 L 158.41503817333535,176.5176517651765 L 158.11754514390185,177.1177117711771 z" /><path fill-rule="evenodd" fill="#D2EBD9" stroke="#A6A6A6" stroke-width="0.25" opacity="1" d="M 165.07144470690974,191.81918191819182 L 165.51768425106,192.51925192519252 L 165.92673716653104,195.06950695069506 L 167.30264242766097,197.26972697269727 L 167.1910825416234,197.8197819781978 L 165.03425807823058,198.1198119811981 L 164.3648987620052,199.86998699869986 L 164.3648987620052,200.8200820082008 L 165.29456447898488,202.27022702270227 L 166.22423019596454,204.37043704370436 L 166.74484299747317,204.77047704770476 L 168.30668140199901,205.07050705070506 L 172.95500998689735,203.9203920392039 L 173.43843615972676,203.9203920392039 L 175.2605809650069,204.27042704270426 L 176.1530600533074,204.87048704870486 L 176.673672854816,206.47064706470647 L 176.673672854816,206.87068706870687 L 175.5952606231196,208.17081708170815 L 175.5580739944404,208.6208620862086 L 175.92994028123226,209.77097709770976 L 175.7811937665155,210.27102710271026 L 174.81434142085666,211.42114211421142 L 174.88871467821505,212.17121712171215 L 175.8183803951947,214.37143714371436 L 178.19832463066265,217.021702170217 L 179.31392349103825,217.97179717971795 L 180.3551490940555,218.5218521852185 L 181.02450841028084,219.17191719171916 L 181.35918806839354,219.67196719671966 L 181.4335613257519,220.17201720172017 L 181.2104415536768,220.82208220822082 L 180.9129485242433,220.97209720972097 L 180.0204694359428,220.67206720672067 L 179.09080371896314,219.92199219921991 L 177.3058455423622,217.97179717971795 L 176.85960599821195,217.8217821782178 L 176.59929959745764,218.07180718071805 L 176.7480461121744,221.9221922192219 L 177.7520850865124,223.57235723572356 L 178.0495781159459,224.57245724572456 L 177.5289653144373,226.67266726672665 L 177.6033385717957,227.1227122712271 L 177.86364497255,227.4227422742274 L 178.4214444027378,227.2227222722272 L 178.9048705755672,226.8226822682268 L 180.0204694359428,225.57255725572557 L 181.7310543551854,222.9222922292229 L 182.69790670084424,222.2222222222222 L 183.47882590310718,221.97219721972195 L 184.40849162008683,221.87218721872185 L 187.3090486570634,221.97219721972195 L 188.94526031894762,222.37223722372235 L 189.8005527785689,222.67226722672265 L 190.32116558007752,223.07230723072306 L 190.87896501026532,224.47244724472446 L 191.28801792573637,224.4224422442244 L 193.40765576045,223.1223122312231 L 194.9323075362967,223.1223122312231 L 195.7504133672388,222.9222922292229 L 197.3494384004438,222.17221722172215 L 197.9072378306316,222.1222122212221 L 198.35347737478185,222.17221722172215 L 198.91127680496965,223.1223122312231 L 199.3575163491199,225.57255725572557 L 199.43188960647828,228.37283728372836 L 197.1263186283687,229.87298729872987 L 195.7132267385596,231.17311731173115 L 195.7132267385596,232.6232623262326 L 195.1182406796926,233.6233623362336 L 194.3001348487505,234.32343234323432 L 193.2217226170541,234.72347234723472 L 191.99456387064092,234.87348734873487 L 191.06489815366126,234.42344234423442 L 189.65180626385217,232.77327732773276 L 188.94526031894762,232.6232623262326 L 189.61461963517297,233.37333733373336 L 189.50305974913542,233.8233823382338 L 188.94526031894762,234.12341234123411 L 190.73021849554857,236.1236123612361 L 191.06489815366126,236.67366736673665 L 191.10208478234046,237.37373737373736 L 189.87492603592727,239.97399739973997 L 188.64776728951412,240.8240824082408 L 186.11907653932943,241.87418741874185 L 185.63565036650002,240.32403240324032 L 184.07381196197417,239.37393739373937 L 182.17729389933564,239.02390239023902 L 180.50389560877224,239.32393239323932 L 179.68578977783014,238.87388738873886 L 178.45863103141696,238.82388238823881 L 176.6364862261368,237.37373737373736 L 175.14902107896935,236.67366736673665 L 174.03342221859376,236.37363736373635 L 172.4715838140679,236.17361736173615 L 170.98411866690046,236.3236323632363 L 169.86851980652483,237.07370737073705 L 168.52980117407412,235.77357735773577 L 167.82325522916958,235.32353235323532 L 167.00514939822747,235.57355735573557 L 167.33982905634014,236.023602360236 L 167.67450871445283,237.023702370237 L 167.67450871445283,238.3238323832383 L 167.48857557105688,238.47384738473846 L 166.67046974011478,238.07380738073806 L 166.33579008200212,237.5237523752375 L 165.29456447898488,237.3237323732373 L 164.17896561860928,236.67366736673665 L 163.91865921785498,236.4236423642364 L 163.5839795597423,235.17351735173517 L 163.2864865303088,234.87348734873487 L 161.3155952103119,235.52355235523552 L 158.8612777174856,234.12341234123411 L 158.67534457408965,232.8232823282328 L 159.19595737559825,231.47314731473145 L 158.8612777174856,231.17311731173115 L 158.1919184012602,232.7232723272327 L 158.04317188654346,233.67336733673366 L 158.5265980593729,234.17341734173417 L 157.6341189710724,234.47344734473447 L 157.22506605560136,234.37343734373437 L 157.0763195408846,233.87338733873386 L 156.74163988277195,233.5233523352335 L 154.65918867673747,232.27322732273225 L 152.50236421334466,230.42304230423042 L 152.16768455523197,230.42304230423042 L 151.72144501108173,231.023102310231 L 151.23801883825232,230.82308230823082 L 150.41991300731019,229.32293229322931 L 150.64303277938532,228.67286728672866 L 150.41991300731019,228.07280728072806 L 149.89930020580158,227.87278727872786 L 149.3043141469346,228.57285728572856 L 148.7465147167468,228.07280728072806 L 148.85807460278437,226.9226922692269 L 148.63495483070923,226.3226322632263 L 147.0359297975042,225.77257725772577 L 146.32938385259965,224.47244724472446 L 145.39971813562,224.022402240224 L 144.69317219071544,223.47234723472346 L 145.0650384775073,222.2222222222222 L 145.47409139297838,221.8221822182218 L 146.32938385259965,221.42214221422142 L 146.8128100254291,218.7218721872187 L 147.11030305486258,217.87178717871785 L 147.0359297975042,217.5217521752175 L 146.4781303673164,217.021702170217 L 146.10626408052454,216.97169716971695 L 143.9494396171317,217.67176717671765 L 143.7263198450566,217.5217521752175 L 143.6519465876982,214.97149714971496 L 143.87506635977334,213.97139713971396 L 143.80069310241495,213.5213521352135 L 143.28008030090635,212.9212921292129 L 141.5323087529846,212.17121712171215 L 139.1895511461958,212.021202120212 L 138.33425868657451,211.57115711571157 L 137.99957902846185,210.52105210521052 L 138.1111389144994,209.97099709970996 L 138.631751716008,209.17091709170916 L 138.6689383446872,208.47084708470845 L 137.5905261129908,206.57065706570657 L 137.77645925638672,205.97059705970597 L 138.3714453152537,205.07050705070506 L 138.18551217185777,204.27042704270426 L 139.11517788883745,203.77037703770375 L 139.37548428959175,203.47034703470345 L 139.4498575469501,202.77027702770275 L 140.1192168631755,201.77017701770177 L 140.23077674921305,200.1200120012001 L 140.45389652128816,199.5199519951995 L 140.82576280808004,199.9199919991999 L 141.9785482971348,198.2198219821982 L 143.54038670166065,197.46974697469747 L 147.18467631222094,196.56965696569657 L 148.07715540052143,195.66956695669566 L 148.63495483070923,195.46954695469546 L 149.11838100353867,195.36953695369536 L 151.72144501108173,195.5195519551955 L 152.35361769862791,195.4195419541954 L 153.95264273183292,194.7194719471947 L 155.1798014782461,194.86948694869486 L 157.9316120005059,193.56935693569355 L 159.3818905189942,193.16931693169315 L 160.7206091514449,193.019301930193 L 165.07144470690974,191.81918191819182 z" /><path fill-rule="evenodd" fill="#D2EBD9" stroke="#A6A6A6" stroke-width="0.25" opacity="1" d="M 129.4466544322489,244.87448744874487 L 129.4466544322489,244.47444744474447 L 130.04164049111588,244.07440744074407 L 129.7441474616824,242.77427742774276 L 129.85570734771994,241.87418741874185 L 130.37632014922858,241.37413741374135 L 131.04567946545393,241.5241524152415 L 131.71503878167928,242.17421742174216 L 132.68189112733813,243.72437243724372 L 133.01657078545082,243.77437743774377 L 132.31002484054628,244.87448744874487 L 131.45473238092498,244.37443744374437 L 130.82255969337882,244.32443244324432 L 129.4466544322489,244.87448744874487 z" /><path fill-rule="evenodd" fill="#D2EBD9" stroke="#A6A6A6" stroke-width="0.25" opacity="1" d="M 138.6689383446872,253.77537753775377 L 138.33425868657451,253.77537753775377 L 138.1111389144994,254.02540254025402 L 137.44177959827405,255.2255225522552 L 137.03272668280297,255.07550755075505 L 135.8799411937482,254.17541754175417 L 135.50807490695632,253.77537753775377 L 135.06183536280608,252.1252125212521 L 134.2065429031848,251.6251625162516 L 134.13216964582642,250.97509750975095 L 134.42966267525992,249.72497249724972 L 133.68593010167618,249.72497249724972 L 133.68593010167618,249.32493249324932 L 135.13620862016447,248.97489748974897 L 135.13620862016447,249.62496249624962 L 135.3221417635604,250.1250125012501 L 136.1774342231817,250.8250825082508 L 136.92116679676542,250.07500750075005 L 137.10709994016136,250.97509750975095 L 138.631751716008,252.025202520252 L 139.04080463147906,253.02530253025301 L 139.4870441756293,253.52535253525352 L 139.71016394770442,254.22542254225422 L 139.71016394770442,254.97549754975495 L 139.37548428959175,255.6255625562556 L 138.6689383446872,253.77537753775377 z" /><path fill-rule="evenodd" fill="#D2EBD9" stroke="#A6A6A6" stroke-width="0.25" opacity="1" d="M 147.51935597033363,265.27652765276525 L 145.6972111650535,265.6265626562656 L 145.0650384775073,265.37653765376535 L 145.4369047642992,264.5264526452645 L 144.17255938920684,263.87638763876384 L 143.87506635977334,263.37633763376334 L 145.02785184882813,261.5761576157616 L 145.6972111650535,262.2262226222622 L 146.14345070920373,263.026302630263 L 145.47409139297838,263.4263426342634 L 145.9575175658078,264.026402640264 L 147.51935597033363,265.27652765276525 z" /><path fill-rule="evenodd" fill="#D2EBD9" stroke="#A6A6A6" stroke-width="0.25" opacity="1" d="M 153.58077644504107,275.57755775577556 L 154.17576250390806,274.37743774377435 L 153.4692165590035,273.17731773177314 L 151.12645895221473,271.1771177117712 L 149.15556763221784,269.1269126912691 L 148.188715286559,268.6268626862686 L 147.55654259901283,269.2769276927693 L 147.18467631222094,269.2769276927693 L 146.8128100254291,267.07670767076706 L 147.18467631222094,266.77667766776676 L 148.03996877184224,267.1267126712671 L 148.26308854391738,267.47674767476747 L 148.96963448882192,267.07670767076706 L 149.37868740429298,268.026802680268 L 150.08523334919752,268.7768776877688 L 153.35765667296596,271.42714271427144 L 153.766709588437,272.17721772177214 L 154.5848154193791,272.8272827282728 L 154.95668170617097,273.37733773377335 L 155.29136136428366,274.3274327432743 L 155.1426148495669,275.07750775077506 L 154.5848154193791,275.5275527552755 L 153.58077644504107,275.57755775577556 z" /><path fill-rule="evenodd" fill="#D2EBD9" stroke="#A6A6A6" stroke-width="0.25" opacity="1" d="M 1.4130918898090945,0.0 L 2.008077948676082,0.5000500050005 L 2.194011092072015,1.2001200120012 L 1.9337046913177083,1.9001900190019 L 1.3015320037715346,2.4002400240024 L 0.2603064007543069,2.35023502350235 L 0.0,1.6501650165016502 L 0.4090529154710537,0.7000700070007 L 1.4130918898090945,0.0 z" /></g><g><path fill-rule="evenodd" fill="#D2EBD9" stroke="#A6A6A6" stroke-width="0.25" opacity="1" d="M 182.5863468148067,183.86838683868385 L 182.51197355744833,183.01830183018302 L 182.2888537853732,182.76827682768277 L 182.5863468148067,182.21822182218222 L 181.91698749858134,182.01820182018201 L 182.846653215561,181.36813681368136 L 183.62757241782393,181.56815681568156 L 184.18537184801173,182.31823182318232 L 184.33411836272847,183.46834683468344 L 184.03662533329498,184.46844684468445 L 183.47882590310718,184.96849684968495 L 182.88383984424019,184.8184818481848 L 182.5863468148067,183.86838683868385 z" /><path fill-rule="evenodd" fill="#D2EBD9" stroke="#A6A6A6" stroke-width="0.25" opacity="1" d="M 199.43188960647828,228.37283728372836 L 199.3575163491199,225.57255725572557 L 198.91127680496965,223.1223122312231 L 198.35347737478185,222.17221722172215 L 197.9072378306316,222.1222122212221 L 197.3494384004438,222.17221722172215 L 195.7504133672388,222.9222922292229 L 194.9323075362967,223.1223122312231 L 193.40765576045,223.1223122312231 L 191.28801792573637,224.4224422442244 L 190.87896501026532,224.47244724472446 L 190.32116558007752,223.07230723072306 L 189.8005527785689,222.67226722672265 L 188.94526031894762,222.37223722372235 L 187.3090486570634,221.97219721972195 L 184.40849162008683,221.87218721872185 L 183.47882590310718,221.97219721972195 L 182.69790670084424,222.2222222222222 L 181.7310543551854,222.9222922292229 L 180.0204694359428,225.57255725572557 L 178.9048705755672,226.8226822682268 L 178.4214444027378,227.2227222722272 L 177.86364497255,227.4227422742274 L 177.6033385717957,227.1227122712271 L 177.5289653144373,226.67266726672665 L 178.0495781159459,224.57245724572456 L 177.7520850865124,223.57235723572356 L 176.7480461121744,221.9221922192219 L 176.59929959745764,218.07180718071805 L 176.85960599821195,217.8217821782178 L 177.3058455423622,217.97179717971795 L 179.09080371896314,219.92199219921991 L 180.0204694359428,220.67206720672067 L 180.9129485242433,220.97209720972097 L 181.2104415536768,220.82208220822082 L 181.4335613257519,220.17201720172017 L 181.35918806839354,219.67196719671966 L 181.02450841028084,219.17191719171916 L 180.3551490940555,218.5218521852185 L 179.31392349103825,217.97179717971795 L 178.19832463066265,217.021702170217 L 175.8183803951947,214.37143714371436 L 174.88871467821505,212.17121712171215 L 174.81434142085666,211.42114211421142 L 175.7811937665155,210.27102710271026 L 175.92994028123226,209.77097709770976 L 175.5580739944404,208.6208620862086 L 175.5952606231196,208.17081708170815 L 176.673672854816,206.87068706870687 L 176.673672854816,206.47064706470647 L 176.1530600533074,204.87048704870486 L 175.2605809650069,204.27042704270426 L 173.43843615972676,203.9203920392039 L 172.95500998689735,203.9203920392039 L 168.30668140199901,205.07050705070506 L 166.74484299747317,204.77047704770476 L 166.22423019596454,204.37043704370436 L 165.29456447898488,202.27022702270227 L 164.3648987620052,200.8200820082008 L 164.3648987620052,199.86998699869986 L 165.03425807823058,198.1198119811981 L 167.1910825416234,197.8197819781978 L 167.30264242766097,197.26972697269727 L 165.92673716653104,195.06950695069506 L 165.51768425106,192.51925192519252 L 165.07144470690974,191.81918191819182 L 167.33982905634014,191.2191219121912 L 167.71169534313202,190.5190519051905 L 169.01322734690356,189.5189518951895 L 170.38913260803346,190.26902690269026 L 170.79818552350451,189.1189118911891 L 172.2112774133136,189.76897689768975 L 172.88063672953896,189.66896689668965 L 173.47562278840596,189.3189318931893 L 174.2193553619897,189.5189518951895 L 175.14902107896935,190.2190219021902 L 175.8555670238739,189.86898689868985 L 178.30988451670024,189.56895689568955 L 182.14010727065644,190.9190919091909 L 183.29289275971124,189.86898689868985 L 183.59038578914473,190.2190219021902 L 184.96629105027463,190.4190419041904 L 185.85877013857512,191.2191219121912 L 187.34623528574258,193.019301930193 L 189.31712660573947,193.96939693969395 L 189.8005527785689,195.1195119511951 L 190.58147198083182,196.019601960196 L 192.25487027139525,196.31963196319631 L 192.9614162162998,197.11971197119712 L 193.37046913177085,197.31973197319732 L 194.6348145068632,197.66976697669767 L 195.192613937051,197.31973197319732 L 195.34136045176774,196.91969196919692 L 195.82478662459715,197.01970197019702 L 196.2338395400682,197.21972197219722 L 196.75445234157684,198.06980698069805 L 196.41977268346415,198.4198419841984 L 197.1263186283687,198.46984698469845 L 198.05598434534835,198.06980698069805 L 198.91127680496965,197.26972697269727 L 199.02283669100723,197.11971197119712 L 198.91127680496965,195.96959695969596 L 199.46907623515744,195.9195919591959 L 200.58467509553304,196.21962196219621 L 201.47715418383353,196.91969196919692 L 201.36559429779598,198.06980698069805 L 202.03495361402133,198.26982698269825 L 203.52241876118882,199.06990699069905 L 204.97269727967708,198.56985698569855 L 205.27019030911057,198.06980698069805 L 204.60083099288522,196.91969196919692 L 206.72046882759886,197.66976697669767 L 206.72046882759886,196.56965696569657 L 207.94762757401202,197.8197819781978 L 210.58787821023427,199.16991699169915 L 211.6662904419307,200.1200120012001 L 212.1869032434393,200.87008700870086 L 212.37283638683525,201.62016201620162 L 212.37283638683525,202.9202920292029 L 213.0421957030606,204.37043704370436 L 212.7447026736271,204.37043704370436 L 212.1497166147601,203.4203420342034 L 211.81503695664745,203.27032703270325 L 211.25723752645965,203.3203320332033 L 210.10445203740485,205.1205120512051 L 209.6582124932546,205.4205420542054 L 208.65417351891656,205.5205520552055 L 207.9848142026912,206.27062706270627 L 207.01796185703236,207.97079707970795 L 206.83202871363642,209.5209520952095 L 208.46824037552062,209.9209920992099 L 208.09637408872877,211.07110711071107 L 208.8029200336333,210.67106710671067 L 209.137599691746,211.37113711371137 L 209.1004130630668,211.92119211921192 L 208.72854677627495,212.3212321232123 L 208.09637408872877,212.57125712571255 L 208.65417351891656,212.97129712971295 L 208.69136014759576,213.37133713371335 L 208.35668048948307,213.5213521352135 L 207.7245078019369,213.27132713271325 L 207.24108162910747,213.77137713771376 L 207.4642014011826,214.9214921492149 L 207.4270147725034,215.52155215521552 L 205.79080311061918,216.8216821682168 L 205.60486996722327,217.27172717271725 L 206.27422928344862,219.67196719671966 L 206.94358859967397,220.57205720572057 L 207.4642014011826,221.6221622162216 L 207.4270147725034,222.97229722972295 L 206.83202871363642,223.97239723972396 L 205.90236299665676,224.67246724672466 L 204.82395076496033,225.07250725072507 L 203.67116527590557,225.22252225222522 L 201.92339372798378,227.57275727572755 L 201.0309146396833,228.2228222822282 L 199.43188960647828,228.37283728372836 z" /></g><g><path fill-rule="evenodd" fill="#D2EBD9" stroke="#A6A6A6" stroke-width="0.25" opacity="1" d="M 193.55640227516676,269.2769276927693 L 192.1061237566785,269.2769276927693 L 190.76740512422776,269.6769676967697 L 190.9161516389445,267.7267726772677 L 191.28801792573637,267.07670767076706 L 192.18049701403686,267.47674767476747 L 193.5192156464876,267.37673767376737 L 193.63077553252515,267.57675767576757 L 193.33328250309165,268.17681768176817 L 193.55640227516676,269.2769276927693 z" /><path fill-rule="evenodd" fill="#D2EBD9" stroke="#A6A6A6" stroke-width="0.25" opacity="1" d="M 279.643447667484,269.6769676967697 L 279.643447667484,260.1760176017602 L 279.643447667484,260.0760076007601 L 280.5359267557845,261.7761776177618 L 282.1721384176687,263.2263226322632 L 285.3330018553995,265.27652765276525 L 285.7792413995498,265.47654765476545 L 286.2626675723792,265.47654765476545 L 286.5229739731335,267.2267226722672 L 287.0435867746421,268.17681768176817 L 289.1632246093558,270.42704270427043 L 288.9029182086015,270.92709270927094 L 287.7873193482259,271.7271727172717 L 287.56419957615077,273.17731773177314 L 287.0807734033213,274.7274727472747 L 286.6717204878503,275.3275327532753 L 286.0023611716249,275.5275527552755 L 284.9239489399285,275.2275227522752 L 283.9942832229488,274.6274627462746 L 280.1640604689926,270.4770477047705 L 279.643447667484,269.6769676967697 z" /><path fill-rule="evenodd" fill="#D2EBD9" stroke="#A6A6A6" stroke-width="0.25" opacity="1" d="M 275.3669853693775,276.7276727672767 L 276.33383771503634,276.8276827682768 L 276.92882377390333,277.3277327732773 L 277.18913017465763,278.2278227822782 L 277.1519435459785,279.32793279327933 L 276.7800772591866,278.7278727872787 L 276.259464457678,278.3778377837784 L 274.99511908258563,278.027802780278 L 275.0323057112648,277.2277227722772 L 274.8463725678689,277.07770777077707 L 273.61921382145573,276.7276727672767 L 275.3669853693775,276.7276727672767 z" /><path fill-rule="evenodd" fill="#D2EBD9" stroke="#A6A6A6" stroke-width="0.25" opacity="1" d="M 206.68328219891967,281.17811781178114 L 205.23300368043138,280.42804280428044 L 205.93954962533593,280.02800280028003 L 206.9064019709948,279.97799779978 L 207.61294791589935,280.1780178017802 L 208.46824037552062,281.17811781178114 L 207.53857465854097,280.82808280828084 L 207.12952174306992,280.8780878087809 L 206.68328219891967,281.17811781178114 z" /><path fill-rule="evenodd" fill="#D2EBD9" stroke="#A6A6A6" stroke-width="0.25" opacity="1" d="M 279.643447667484,285.67856785678566 L 279.643447667484,282.9282928292829 L 282.1349517889895,283.87838783878385 L 283.02743087729,284.5284528452845 L 283.6596035648361,285.27852785278526 L 282.8786843625732,285.8285828582858 L 282.8786843625732,286.3286328632863 L 283.3621105354026,287.07870787078707 L 284.626455910495,287.4287428742874 L 284.626455910495,287.8287828782878 L 284.2174029950239,288.2788278827883 L 284.9239489399285,288.52885288528853 L 284.9239489399285,288.92889288928893 L 284.1802163663448,288.82888288828883 L 281.7630855021976,287.978797879788 L 281.4655924727641,287.4287428742874 L 280.0896872116342,286.4286428642864 L 279.643447667484,285.67856785678566 z" /><path fill-rule="evenodd" fill="#D2EBD9" stroke="#A6A6A6" stroke-width="0.25" opacity="1" d="M 246.69609465772456,294.47944794479446 L 244.9111364811236,294.47944794479446 L 244.9111364811236,294.07940794079406 L 245.7292423120657,293.77937793779375 L 246.6217214003662,293.7293729372937 L 247.4770138599875,293.77937793779375 L 248.10918654753365,294.07940794079406 L 246.69609465772456,294.47944794479446 z" /><path fill-rule="evenodd" fill="#D2EBD9" stroke="#A6A6A6" stroke-width="0.25" opacity="1" d="M 279.643447667484,304.030403040304 L 279.643447667484,302.9302930293029 L 281.6143389874809,303.7303730373037 L 282.3208849323854,304.38043804380436 L 282.8043111052148,305.5305530553055 L 280.2756203550301,304.6304630463046 L 279.643447667484,304.030403040304 z" /><path fill-rule="evenodd" fill="#D2EBD9" stroke="#A6A6A6" stroke-width="0.25" opacity="1" d="M 279.643447667484,260.1760176017602 L 279.643447667484,269.6769676967697 L 278.4906621784292,267.4267426742674 L 277.9328627482414,265.77657765776576 L 276.07353131428204,263.026302630263 L 274.2141998803227,261.42614261426144 L 273.9538934795684,260.62606260626063 L 274.17701325164353,259.8759875987599 L 275.1066789686232,259.0759075907591 L 275.3669853693775,258.2258225822582 L 275.9619714282445,258.025802580258 L 276.59414411579064,258.025802580258 L 277.9328627482414,258.47584758475847 L 279.2343947520129,259.4759475947595 L 279.643447667484,260.1760176017602 z" /><path fill-rule="evenodd" fill="#D2EBD9" stroke="#A6A6A6" stroke-width="0.25" opacity="1" d="M 279.643447667484,285.67856785678566 L 278.9740883512586,284.1284128412841 L 278.8253418365419,283.07830783078305 L 279.0112749799378,282.8282828282828 L 279.2715813806921,282.77827782778274 L 279.643447667484,282.9282928292829 L 279.643447667484,285.67856785678566 z" /><path fill-rule="evenodd" fill="#D2EBD9" stroke="#A6A6A6" stroke-width="0.25" opacity="1" d="M 279.643447667484,302.9302930293029 L 279.643447667484,304.030403040304 L 278.7881552078627,304.030403040304 L 275.0323057112648,302.38023802380235 L 274.66043942447294,301.88018801880185 L 272.8382946191928,300.4300430043004 L 272.20612193164663,299.62996299629964 L 270.79303004183754,299.9799979998 L 271.2020829573086,300.2300230023002 L 271.4252027293837,300.58005800580054 L 271.35082947202534,300.88008800880084 L 270.79303004183754,301.030103010301 L 270.0492974682538,300.88008800880084 L 268.9336986078782,299.8799879987999 L 268.30152592033204,299.62996299629964 L 267.89247300486096,300.2300230023002 L 267.78091311882343,301.48014801480144 L 267.48342008938994,302.28022802280225 L 265.92158168486407,301.38013801380134 L 264.65723630977175,300.88008800880084 L 264.24818339430067,300.03000300030004 L 263.80194385015045,299.8799879987999 L 262.8350915044916,299.9799979998 L 261.86823915883275,300.3300330033003 L 261.719492644116,299.3799379937994 L 261.4219996146825,299.22992299229924 L 260.71545366977796,299.22992299229924 L 260.52952052638204,298.92989298929893 L 260.52952052638204,298.12981298129813 L 260.2692141256277,298.6798679867987 L 259.93453446751505,298.979897989799 L 259.56266818072316,298.92989298929893 L 259.11642863657295,298.4798479847985 L 258.0380164048765,299.02990299029904 L 257.5545902320471,299.32993299329934 L 257.33147045997197,299.9799979998 L 256.6249245150674,297.3797379737974 L 255.99275182752123,298.52985298529853 L 255.546512283371,298.8798879887989 L 254.83996633846644,298.8798879887989 L 255.65807216940857,297.92979297929793 L 254.91433959582483,297.6297629762976 L 253.09219479054468,297.7797779777978 L 252.31127558828175,297.2797279727973 L 252.01378255884825,295.77957795779577 L 251.6419162720564,294.8294829482948 L 250.86099706979348,295.3295329532953 L 250.2660110109265,294.87948794879486 L 249.55946506602194,292.97929792979295 L 249.0760388931925,293.27932793279325 L 248.5182394630047,293.3293329332933 L 247.9232534041377,293.1293129312931 L 247.4026406026291,292.6292629262926 L 247.9232534041377,292.27922792279224 L 248.40667957696715,291.6291629162916 L 248.74135923507984,290.87908790879084 L 248.8157324924382,290.0790079007901 L 248.44386620564634,290.22902290229024 L 247.58857374602505,290.0790079007901 L 247.179520830554,290.22902290229024 L 246.8448411724413,290.97909790979094 L 246.51016151432864,291.1291129112911 L 245.84080219810326,290.8290829082908 L 245.4317492826322,290.2790279027903 L 244.98550973848197,290.0790079007901 L 244.20459053621906,290.7290729072907 L 243.38648470527696,290.02900290029004 L 240.37436778226282,290.6290629062906 L 239.44470206528317,290.57905790579053 L 239.14720903584967,290.3790379037904 L 237.84567703207813,290.0790079007901 L 237.13913108717358,288.92889288928893 L 236.61851828566498,288.82888288828883 L 235.01949325245994,288.92889288928893 L 233.4576548479341,288.5788578857886 L 230.78021758303265,287.5787578757876 L 228.3630867188855,287.3287328732873 L 226.94999482907642,286.8286828682868 L 226.1690756268135,286.7286728672867 L 225.49971631058816,287.2787278727873 L 225.01629013775872,287.2787278727873 L 224.71879710832522,286.3286328632863 L 223.677571505308,286.7286728672867 L 224.38411745021256,284.4284428442844 L 223.26851858983693,283.67836783678365 L 222.67353253096996,282.8282828282828 L 222.07854647210297,282.3282328232823 L 221.55793367059437,282.97829782978295 L 221.18606738380248,282.97829782978295 L 221.1488807551233,282.028202820282 L 220.47952143889793,281.5281528152815 L 220.14484178078527,282.6282628262826 L 218.58300337625943,280.42804280428044 L 218.3598836041843,279.8779877987799 L 218.50863011890104,278.5278527852785 L 218.3598836041843,278.1278127812781 L 217.69052428795894,277.77777777777777 L 217.504591144563,279.3779377937794 L 217.02116497173358,279.8779877987799 L 216.24024576947065,279.5779577957796 L 213.3768753611733,277.07770777077707 L 212.93063581702305,276.3276327632763 L 212.00097010004336,275.97759775977596 L 211.48035729853476,276.07760776077606 L 209.88133226532972,277.07770777077707 L 208.2451206034455,277.27772777277727 L 207.7245078019369,277.47774777477747 L 206.348602540807,278.9278927892789 L 205.82798973929837,278.8778877887789 L 203.89428504798067,278.1778177817782 L 204.34052459213092,277.1277127712771 L 204.86113739363952,276.57765776577656 L 205.60486996722327,276.47764776477646 L 206.72046882759886,277.07770777077707 L 206.53453568420292,276.2276227622762 L 205.64205659590246,274.1274127412741 L 205.08425716571466,274.4274427442744 L 204.63801762156442,273.47734773477345 L 204.19177807741417,273.027302730273 L 204.19177807741417,274.1274127412741 L 202.44400652949238,272.67726772677264 L 201.96058035666297,271.77717771777174 L 202.07214024270053,270.7770777077708 L 201.73746058458784,270.7770777077708 L 201.2912210404376,271.12711271127114 L 201.0309146396833,270.7770777077708 L 201.14247452572084,270.1770177017702 L 201.73746058458784,269.6769676967697 L 201.36559429779598,269.2769276927693 L 202.7043129302467,268.17681768176817 L 204.22896470609336,268.4268426842684 L 207.4270147725034,270.02700270027003 L 207.61294791589935,269.3269326932693 L 208.05918746004957,268.976897689769 L 209.17478632042517,268.5768576857686 L 208.69136014759576,266.9266926692669 L 209.3979060925003,265.67656765676566 L 210.40194506683835,264.6264626462646 L 210.92255786834696,263.57635763576354 L 211.44317066985556,260.3760376037604 L 212.03815672872256,258.9258925892589 L 212.7447026736271,258.2258225822582 L 213.52562187589004,257.8257825782578 L 214.1949811921154,257.77577757775776 L 215.68244633928285,257.87578757875787 L 217.69052428795894,259.3259325932593 L 216.9839783430544,259.8759875987599 L 217.13272485777114,260.1760176017602 L 217.98801731739243,260.82608260826083 L 218.73174989097618,263.4263426342634 L 220.81420109701062,265.27652765276525 L 221.44637378455678,265.6265626562656 L 221.96698658606542,265.8265826582658 L 222.52478601625322,265.7265726572657 L 223.30570521851612,265.27652765276525 L 223.30570521851612,266.3266326632663 L 223.677571505308,266.3266326632663 L 223.82631802002473,265.3265326532653 L 224.12381104945823,264.97649764976495 L 225.12785002379627,264.77647764776475 L 225.6112761966257,263.57635763576354 L 226.28063551285106,263.17631763176314 L 228.9952594064317,262.27622762276224 L 229.36712569322356,262.27622762276224 L 229.88773849473216,262.87628762876284 L 231.33801701322045,263.87638763876384 L 231.85862981472906,264.5264526452645 L 230.8917774690702,264.7264726472647 L 230.29679141020324,264.6264626462646 L 228.9952594064317,263.8263826382638 L 230.25960478152405,267.67676767676767 L 231.33801701322045,268.976897689769 L 232.8998554177463,268.5768576857686 L 233.64358799133004,268.9268926892689 L 234.35013393623458,269.52695269526953 L 234.64762696566808,270.22702270227023 L 234.3129473075554,271.1771177117712 L 235.87478571208123,272.47724772477244 L 236.84163805774008,273.1273127312731 L 240.78342069773387,274.67746774677465 L 241.34122012792167,274.67746774677465 L 241.71308641471356,274.87748774877485 L 243.86991087810637,273.37733773377335 L 245.5061225399906,273.027302730273 L 246.13829522753676,272.6272627262726 L 245.98954871282,271.87718771877184 L 246.2870417422535,271.1771177117712 L 244.68801670904847,270.4770477047705 L 243.86991087810637,269.0769076907691 L 243.31211144791857,268.5768576857686 L 247.3654539739499,268.8768876887689 L 248.8157324924382,268.8268826882688 L 250.60069066903915,268.17681768176817 L 251.41879649998128,268.6768676867687 L 252.31127558828175,268.8768876887689 L 253.94748725016598,268.9268926892689 L 256.141498342238,269.4269426942694 L 257.1827239452552,269.3769376937694 L 258.0380164048765,268.5768576857686 L 258.81893560713945,269.52695269526953 L 260.67826704109876,270.7770777077708 L 261.23606647128656,271.87718771877184 L 261.57074612939925,271.87718771877184 L 261.90542578751194,271.1771177117712 L 262.05417230222866,271.8271827182718 L 262.38885196034136,272.1272127212721 L 264.13662350826314,272.4272427242724 L 264.99191596788444,273.17731773177314 L 265.51252876939304,273.37733773377335 L 268.30152592033204,272.97729772977294 L 269.41712478070764,273.37733773377335 L 269.93773758221624,272.67726772677264 L 270.68147015579996,272.3272327232723 L 272.50361496108013,272.27722772277224 L 272.280495189005,271.5271527152715 L 272.5779882184385,270.82708270827084 L 273.2101609059847,270.5770577057706 L 273.9538934795684,271.1771177117712 L 275.0323057112648,270.7770777077708 L 274.2885731376811,272.27722772277224 L 276.63133074446984,271.4771477147715 L 277.1519435459785,271.87718771877184 L 277.0403836599409,272.7272727272727 L 276.2966510863572,273.2273227322732 L 275.3669853693775,273.4273427342734 L 274.66043942447294,273.37733773377335 L 274.5488795384354,274.6274627462746 L 274.06545336560595,275.6275627562756 L 273.1729742773055,276.27762776277626 L 271.83425564485475,276.37763776377636 L 272.9126678765512,277.77777777777777 L 273.0986010199471,277.8777877787779 L 273.9538934795684,277.77777777777777 L 273.9538934795684,278.9278927892789 L 275.7388516561694,282.27822782278224 L 276.33383771503634,283.77837783778375 L 277.22631680333683,285.1285128512851 L 276.5197708584323,287.07870787078707 L 275.7388516561694,287.07870787078707 L 275.3669853693775,286.9286928692869 L 274.66043942447294,285.97859785978596 L 271.4623893580629,284.3284328432843 L 271.01614981391265,283.47834783478345 L 270.0492974682538,282.6282628262826 L 268.30152592033204,281.5281528152815 L 267.07436717391886,280.978097809781 L 266.70250088712703,280.12801280128014 L 265.3265956259971,279.4779477947795 L 264.95472933920524,279.02790279027903 L 264.06225025090475,277.07770777077707 L 262.98383801920835,276.7276727672767 L 262.64915836109566,275.57755775577556 L 261.08731995656984,275.027502750275 L 260.64108041241957,273.77737773777375 L 260.12046761091096,273.37733773377335 L 258.18676291959326,272.77727772777274 L 257.03397743053847,271.3771377137714 L 256.29024485695476,270.7770777077708 L 255.73244542676693,271.4771477147715 L 254.83996633846644,271.67716771677163 L 253.91030062148678,271.3771377137714 L 253.09219479054468,270.7770777077708 L 252.68314187507363,271.1771177117712 L 253.20375467658224,271.97719771977194 L 253.38968781997818,272.97729772977294 L 253.20375467658224,273.9273927392739 L 252.68314187507363,274.47744774477445 L 254.1334203935619,275.2275227522752 L 255.02589948186238,276.57765776577656 L 257.4802169746887,278.3778377837784 L 257.88926989015977,279.12791279127913 L 258.0380164048765,281.5281528152815 L 258.5586292063851,282.67826782678264 L 263.80194385015045,286.3286328632863 L 266.10751482826004,287.3287328732873 L 267.40904683203155,288.72887288728873 L 268.33871254901123,290.32903290329034 L 268.30152592033204,291.5291529152915 L 269.19400500863253,292.1292129212921 L 271.27645621466695,295.1295129512951 L 271.94581553089233,296.37963796379637 L 272.3548684463634,296.6296629662966 L 272.3176818176842,296.8296829682968 L 272.68954810447605,297.2797279727973 L 273.7679603361725,298.32983298329833 L 274.2513865090019,299.1799179917992 L 274.66043942447294,299.62996299629964 L 276.4453976010739,299.9799979998 L 279.643447667484,302.9302930293029 z" /></g><path fill-rule="evenodd" fill="#D2EBD9" stroke="#A6A6A6" stroke-width="0.25" opacity="1" d="M 131.04567946545393,499.44994499449945 L 130.33913352054938,499.6999699969997 L 128.47980208659004,499.6999699969997 L 127.69888288432712,500.0 L 126.32297762319722,499.14991499149914 L 125.69080493565104,499.04990499049904 L 124.90988573338812,499.24992499249925 L 125.20737876282162,498.1998199819982 L 126.84359042470584,498.24982498249824 L 128.40542882923168,497.7997799779978 L 129.29790791753214,497.7997799779978 L 130.48788003526613,498.0998099809981 L 131.26879923752904,498.5998599859986 L 131.04567946545393,499.44994499449945 z" /></g></g></g></svg>