<svg xmlns="http://www.w3.org/2000/svg" xmlns:xlink="http://www.w3.org/1999/xlink" width="500.0" height="178.22615999856498" viewBox="0.0 0.0 500.0 178.22615999856498" preserveAspectRatio="xMinYMin meet"><g transform="matrix(1,0,0,-1,0,178.22615999856498)"><g><g><path fill-rule="evenodd" fill="#D2EBD9" stroke="#A6A6A6" stroke-width="0.25" opacity="1" d="M 499.5999599959996,88.67638223750983 L 499.5999599959996,89.22893858914054 L 499.2999299929993,89.44283137041695 L 498.8998899889989,89.35370937821845 L 497.54975497549754,88.26642107339673 L 497.2997299729973,87.92775750304241 L 497.3997399739974,87.5890939326881 L 499.1999199919992,87.23260596389409 L 499.44994499449945,87.3039035576529 L 500.0,88.31989426871583 L 499.5999599959996,88.67638223750983 z" /><g><path fill-rule="evenodd" fill="#D2EBD9" stroke="#A6A6A6" stroke-width="0.25" opacity="1" d="M 404.84048404840485,120.81377262428978 L 405.09050905090504,120.92071901492798 L 404.54045404540454,121.3663289759205 L 403.34033403340334,121.4732753665587 L 403.1903190319032,121.3663289759205 L 402.64026402640263,121.6515193509557 L 402.5902590259026,121.18808499152348 L 401.8401840184018,121.08113860088528 L 401.6401640164016,120.88507021804858 L 401.5401540154015,120.20774307733996 L 401.6401640164016,119.88690390542536 L 402.1902190219022,119.85125510854596 L 402.04020402040203,119.56606473351074 L 402.34023402340233,119.12045477251823 L 402.1902190219022,118.60354721776692 L 402.5902590259026,118.0866396630156 L 402.8902890289029,117.9083956786186 L 403.2903290329033,118.0509908661362 L 403.4903490349035,117.8192736864201 L 403.8903890389039,117.8014492879804 L 405.09050905090504,118.0153420692568 L 405.29052905290524,118.2114104520935 L 405.3405340534053,118.53224962400812 L 405.09050905090504,119.36999635067404 L 405.79057905790575,119.42346954599314 L 405.79057905790575,119.63736232726954 L 405.49054905490544,120.68900183521187 L 405.09050905090504,120.54640664769427 L 404.84048404840485,120.81377262428978 z" /><path fill-rule="evenodd" fill="#D2EBD9" stroke="#A6A6A6" stroke-width="0.25" opacity="1" d="M 335.1335133513351,0.19606838283670516 L 334.9334933493349,0.12477078907790329 L 334.983498349835,0.0 L 335.2335233523352,0.0 L 335.1335133513351,0.19606838283670516 z" /><path fill-rule="evenodd" fill="#D2EBD9" stroke="#A6A6A6" stroke-width="0.25" opacity="1" d="M 333.2333233323332,0.9446931173041249 L 333.48334833483347,0.8555711251056225 L 333.6333633363336,0.9803419141835258 L 333.38333833383336,1.0159907110629267 L 333.2333233323332,0.9446931173041249 z" /><path fill-rule="evenodd" fill="#D2EBD9" stroke="#A6A6A6" stroke-width="0.25" opacity="1" d="M 334.8334833483348,1.0872883048217286 L 334.6334633463346,1.14076150014083 L 334.5334533453345,1.0159907110629267 L 334.7834783478348,0.8912199219850234 L 334.8334833483348,1.0872883048217286 z" /><path fill-rule="evenodd" fill="#D2EBD9" stroke="#A6A6A6" stroke-width="0.25" opacity="1" d="M 336.53365336533653,56.77070903044599 L 336.83368336833684,56.9846018117224 L 336.7836783678368,57.305440983637006 L 336.4836483648365,57.0915482023606 L 336.53365336533653,56.77070903044599 z" /><path fill-rule="evenodd" fill="#D2EBD9" stroke="#A6A6A6" stroke-width="0.25" opacity="1" d="M 334.7334733473347,57.57280696023251 L 334.38343834383437,57.358914178956105 L 334.4334433443344,57.0558994054812 L 334.7834783478348,57.269792186757606 L 334.7334733473347,57.57280696023251 z" /><path fill-rule="evenodd" fill="#D2EBD9" stroke="#A6A6A6" stroke-width="0.25" opacity="1" d="M 382.2382238223822,97.37468867608366 L 382.2882288228823,97.48163506672186 L 382.1382138213821,97.48163506672186 L 382.1882188218822,97.46381066828216 L 382.2382238223822,97.37468867608366 z" /><path fill-rule="evenodd" fill="#D2EBD9" stroke="#A6A6A6" stroke-width="0.25" opacity="1" d="M 397.7397739773977,116.37549741280436 L 397.9397939793979,116.53591699876166 L 397.98979897989796,116.66068778783956 L 397.8397839783978,116.64286338939986 L 397.7397739773977,116.37549741280436 z" /><path fill-rule="evenodd" fill="#D2EBD9" stroke="#A6A6A6" stroke-width="0.25" opacity="1" d="M 324.9324932493249,145.80357923674984 L 324.78247824782477,145.99964761958654 L 324.1324132413241,145.89270122894834 L 323.9323932393239,145.75010604143074 L 323.7323732373237,145.1619008929206 L 324.5324532453245,144.8054129241266 L 324.88248824882487,144.3954517600135 L 325.2325232523252,145.0371301038427 L 325.1325132513251,145.64315965079254 L 324.9324932493249,145.80357923674984 z" /></g><g><path fill-rule="evenodd" fill="#D2EBD9" stroke="#A6A6A6" stroke-width="0.25" opacity="1" d="M 270.6770677067707,129.81509383633852 L 270.82708270827084,129.58337665662242 L 271.2771277127713,129.65467425038122 L 271.3771377137714,129.4586058675445 L 270.2770277027703,128.9773471096726 L 271.0771077107711,128.8525763205947 L 271.3771377137714,128.9773471096726 L 271.57715771577153,128.6921567346374 L 271.77717771777174,128.8525763205947 L 271.9271927192719,129.5120790628636 L 271.6271627162716,129.88639143009732 L 271.3771377137714,129.97551342229582 L 270.6770677067707,129.81509383633852 z" /><path fill-rule="evenodd" fill="#D2EBD9" stroke="#A6A6A6" stroke-width="0.25" opacity="1" d="M 276.4276427642764,131.33016770371304 L 276.17761776177616,131.45493849279094 L 276.027602760276,130.63501616456475 L 276.7276727672767,130.84890894584115 L 277.27772777277727,131.33016770371304 L 276.57765776577656,131.41928969591154 L 276.4276427642764,131.33016770371304 z" /><path fill-rule="evenodd" fill="#D2EBD9" stroke="#A6A6A6" stroke-width="0.25" opacity="1" d="M 312.28122812281225,87.5712695342484 L 312.8312831283128,87.78516231552481 L 313.1313131313131,88.14165028431881 L 312.6312631263126,88.03470389368061 L 312.28122812281225,87.5712695342484 z" /><path fill-rule="evenodd" fill="#D2EBD9" stroke="#A6A6A6" stroke-width="0.25" opacity="1" d="M 225.17251725172517,115.96553624869125 L 225.37253725372537,116.16160463152795 L 225.37253725372537,116.41114620968376 L 225.22252225222522,116.21507782684705 L 225.17251725172517,115.96553624869125 z" /><path fill-rule="evenodd" fill="#D2EBD9" stroke="#A6A6A6" stroke-width="0.25" opacity="1" d="M 276.027602760276,128.46043955492127 L 276.2276227622762,129.1377666956299 L 276.027602760276,129.52990346130332 L 275.97759775977596,129.2090642893887 L 276.027602760276,128.46043955492127 z" /><path fill-rule="evenodd" fill="#D2EBD9" stroke="#A6A6A6" stroke-width="0.25" opacity="1" d="M 222.57225722572255,129.56555225818272 L 222.6222622262226,129.76162064101942 L 222.47224722472245,129.76162064101942 L 222.57225722572255,129.56555225818272 z" /><path fill-rule="evenodd" fill="#D2EBD9" stroke="#A6A6A6" stroke-width="0.25" opacity="1" d="M 247.024702470247,153.89585612837385 L 247.07470747074706,154.07410011277085 L 246.97469746974696,154.10974890965025 L 247.024702470247,153.89585612837385 z" /><path fill-rule="evenodd" fill="#D2EBD9" stroke="#A6A6A6" stroke-width="0.25" opacity="1" d="M 232.27322732273225,153.87803172993415 L 232.67326732673266,154.53753447220308 L 232.6232623262326,154.71577845660008 L 232.37323732373235,154.73360285503978 L 232.2232223222322,154.48406127688395 L 232.27322732273225,153.87803172993415 z" /><path fill-rule="evenodd" fill="#D2EBD9" stroke="#A6A6A6" stroke-width="0.25" opacity="1" d="M 241.27412741274125,162.00595741843756 L 241.5241524152415,162.11290380907576 L 241.57415741574155,162.20202580127426 L 241.4241424142414,162.23767459815366 L 241.27412741274125,162.00595741843756 z" /></g><g><path fill-rule="evenodd" fill="#D2EBD9" stroke="#A6A6A6" stroke-width="0.25" opacity="1" d="M 2.5502550255025502,174.18002155275298 L 2.6002600260026,174.42956313090878 L 2.000200020002,174.18002155275298 L 1.75017501750175,173.46704561516495 L 1.55015501550155,174.14437275587358 L 1.25012501250125,173.96612877147658 L 1.000100010001,173.07490884949155 L 0.5000500050005,172.64712328693875 L 0.2000200020002,172.02326934154922 L 0.0,171.3281178024009 L 0.1000100010001,170.846859044529 L 1.6001600160016,173.05708445105185 L 1.85018501850185,173.14620644325035 L 2.000200020002,172.73624527913725 L 2.3002300230023,172.62929888849905 L 3.0003000300030003,173.37792362296645 L 3.1003100310031,173.60964080268258 L 2.7002700270027002,173.43139681828555 L 2.4002400240024,173.53834320892378 L 2.35023502350235,173.82353358395898 L 2.5502550255025502,174.18002155275298 z" /><path fill-rule="evenodd" fill="#D2EBD9" stroke="#A6A6A6" stroke-width="0.25" opacity="1" d="M 49.054905490549054,178.06574041260768 L 49.054905490549054,177.94096962352978 L 49.254925492549255,177.99444281884888 L 49.404940494049406,178.22615999856498 L 49.204920492049204,178.20833560012528 L 49.054905490549054,178.06574041260768 z" /></g></g></g></g></svg>