<svg xmlns="http://www.w3.org/2000/svg" xmlns:xlink="http://www.w3.org/1999/xlink" width="463.30359706096345" height="500.0" viewBox="0.0 0.0 463.30359706096345 500.0" preserveAspectRatio="xMinYMin meet"><g transform="matrix(1,0,0,-1,0,500.0)"><g><g><path fill-rule="evenodd" fill="#D2EBD9" stroke="#A6A6A6" stroke-width="0.25" opacity="1" d="M 358.40117244389967,412.14121412141213 L 358.16949747787254,413.24132413241324 L 357.3818025933805,413.7913791379138 L 356.45510272927214,414.14141414141415 L 355.62107285157464,414.8414841484148 L 357.1501276273534,415.041504150415 L 357.7524825390238,415.99159915991595 L 358.0304924982563,417.1417141714171 L 358.67918240313213,417.6417641764176 L 359.79122224006215,417.79177917791776 L 361.13493704301925,418.2418241824182 L 362.29331187315466,419.041904190419 L 363.0346717644413,420.6420642064206 L 363.4980216964955,420.8920892089209 L 363.68336166931715,421.34213421342133 L 362.7566618052088,422.84228422842284 L 362.7566618052088,428.5428542854285 L 361.45928199545716,429.3429342934293 L 360.0228972060892,433.1933193319332 L 358.40117244389967,434.043404340434 L 358.8645223759538,435.19351935193515 L 358.77185238954297,436.29362936293626 L 358.215832471078,437.2437243724372 L 357.28913260696964,437.89378937893787 L 356.77944768171005,437.3437343734373 L 355.2967278991367,439.3439343934393 L 353.999348089385,441.6941694169417 L 355.3430628923421,443.2443244324432 L 355.62107285157464,445.19451945194515 L 355.11138792631505,448.8448844884488 L 355.43573287875296,450.4950495049505 L 355.99175279721794,451.995199519952 L 356.22342776324507,453.39533953395335 L 355.62107285157464,454.7454745474547 L 356.6404427020938,455.3455345534553 L 357.4281375865859,456.39563956395637 L 358.0768274914617,457.6457645764576 L 358.8645223759538,460.54605460546054 L 359.00352735557004,461.84618461846185 L 358.67918240313213,462.79627962796275 L 357.61347755940756,464.79647964796476 L 356.5941077088884,466.2466246624662 L 356.9184526613263,466.59665966596657 L 357.8451525254346,466.8466846684668 L 358.95719236236465,469.04690469046903 L 360.439912144938,470.74707470747074 L 360.5789171245542,471.54715471547155 L 360.11556719250007,473.047304730473 L 360.16190218570546,473.7473747374737 L 361.32027701584093,474.29742974297426 L 363.220011737263,476.2476247624762 L 366.0927813159988,477.84778477847783 L 366.88047620049093,479.74797479747974 L 367.15848615972345,482.29822982298225 L 367.112151166518,489.0989098909891 L 367.4364961189559,491.49914991499145 L 367.112151166518,492.6492649264926 L 366.37079127523134,493.59935993599356 L 363.9150366353443,495.5495549554955 L 363.0346717644413,495.9495949594959 L 361.32027701584093,495.2995299529953 L 360.5789171245542,495.3495349534953 L 360.0692321992947,495.5495549554955 L 358.95719236236465,496.3996399639964 L 356.73311268850466,496.84968496849683 L 354.27735804861754,496.94969496949693 L 353.5823331505363,496.6996699669967 L 351.08024351744376,494.49944994499447 L 350.2925486329517,494.1494149414941 L 346.91009412895625,493.7493749374937 L 344.68601445509626,494.69946994699467 L 343.38863464534455,494.99949994999497 L 341.39622993751163,494.2494249424942 L 340.05251513455454,494.4494449444944 L 337.64309548787287,495.3495349534953 L 336.80906561017537,494.5494549454945 L 335.882365746067,494.2494249424942 L 334.9093308887533,494.29942994299427 L 333.7509560586179,494.79947994799477 L 333.102266153742,493.79937993799376 L 331.5268763847578,494.1494149414941 L 328.3297618535841,495.3495349534953 L 327.3103920030649,494.89948994899487 L 325.27165230202655,493.4493449344934 L 323.649927539837,493.1493149314931 L 312.85387412297484,494.7494749474947 L 310.95413940155277,495.4495449544954 L 309.7030945850065,496.3996399639964 L 307.8496948567898,495.999599959996 L 302.0114857129073,497.84978497849784 L 298.90704116814436,498.0998099809981 L 294.5052168136298,497.0997099709971 L 293.06883202426184,497.34973497349733 L 290.4740724047585,498.94989498949894 L 289.4547025542393,499.34993499349935 L 288.71334266295264,499.24992499249925 L 287.04528290755763,498.34983498349834 L 284.63586326087596,497.8997899789979 L 281.5777537093184,496.84968496849683 L 280.00236394033425,496.54965496549653 L 276.527239449928,496.6996699669967 L 273.28378992554883,497.24972497249723 L 271.8474051361809,497.2997299729973 L 267.1675708224338,496.8996899689969 L 261.0976867125242,497.2997299729973 L 254.98146760940915,496.74967496749673 L 247.98488363539118,496.999699969997 L 245.29745402947702,496.5996599659966 L 244.04640921293077,496.74967496749673 L 239.96892981085406,498.0998099809981 L 238.34720504866448,499.44994499449945 L 237.5595101641724,499.8999899989999 L 236.4474703272424,500.0 L 233.34302578247946,499.04990499049904 L 212.02892890798768,498.24982498249824 L 211.88992392837145,497.4997499749975 L 212.26060387401478,496.4996499649965 L 212.39960885363104,495.3995399539954 L 211.88992392837145,494.29942994299427 L 210.77788409144142,492.5492549254925 L 210.49987413220893,489.24892489248924 L 210.17552917977102,488.2988298829883 L 209.66584425451143,487.4987498749875 L 210.31453415938725,484.39843984398436 L 210.82421908464684,394.2894289428943 L 137.29058486765024,394.53945394539454 L 136.82723493559607,383.1883188318832 L 135.62252511225523,379.18791879187916 L 134.6958252481469,377.58775877587755 L 133.53745041801147,374.53745374537453 L 133.21310546557356,372.9372937293729 L 133.3057754519844,371.8371837183718 L 134.9738352073794,369.4369436943694 L 135.34451515302274,368.68686868686865 L 135.99320505789856,366.33663366336634 L 136.41021999674732,365.5865586558656 L 137.05890990162317,365.43654365436544 L 138.21728473175858,365.6865686568657 L 179.82610863022296,380.03800380038 L 180.5211335283042,380.08800880088006 L 180.89181347394754,379.88798879887986 L 181.91118332446672,374.93749374937494 L 181.72584335164504,369.4369436943694 L 181.5405033788234,368.4368436843684 L 180.75280849433128,366.23662366236624 L 180.1967885758663,363.8363836383638 L 180.0114486030446,363.4863486348635 L 178.80673877970378,362.5362536253625 L 178.20438386803335,361.68616861686166 L 177.04600903789793,357.78577857785774 L 175.79496422135168,355.8855885588559 L 175.28527929609209,354.3354335433543 L 173.9878994863404,351.9351935193519 L 172.3198397309454,346.03460346034603 L 171.94915978530207,343.28432843284327 L 171.57847983965874,342.58425842584256 L 170.8834549415775,341.98419841984196 L 170.51277499593417,340.7340734073407 L 171.11512990760457,338.0838083808381 L 171.02245992119373,336.33363336333633 L 170.60544498234498,335.3335333533353 L 168.56670528130664,333.033303330333 L 230.51659119694904,332.9332933293329 L 222.40796738600108,341.48414841484146 L 221.99095244715232,342.18421842184216 L 222.08362243356316,342.6342634263426 L 222.732312338439,343.28432843284327 L 280.14136891995054,382.2382238223822 L 280.7437238316209,382.8882888288829 L 281.0680687840589,383.5883588358836 L 281.48508372290763,385.7885788578858 L 281.16073877046966,386.8386838683868 L 281.4387487297022,388.08880888088805 L 281.2070737636751,391.4891489148915 L 281.2534087568805,393.0893089308931 L 281.67042369572926,394.5894589458946 L 283.9408383627947,397.48974897489745 L 284.5895282676705,398.5398539853985 L 285.97957806383306,401.6901690169017 L 287.4622978464064,403.44034403440344 L 288.9450176289797,406.39063906390635 L 290.2423974387314,407.79077907790776 L 290.6130773843747,409.69096909690967 L 291.864122200921,411.34113411341133 L 292.1421321601535,413.0913091309131 L 358.40117244389967,412.14121412141213 z" /><path fill-rule="evenodd" fill="#D2EBD9" stroke="#A6A6A6" stroke-width="0.25" opacity="1" d="M 358.40117244389967,412.14121412141213 L 292.1421321601535,413.0913091309131 L 291.864122200921,411.34113411341133 L 290.6130773843747,409.69096909690967 L 290.2423974387314,407.79077907790776 L 288.9450176289797,406.39063906390635 L 287.4622978464064,403.44034403440344 L 285.97957806383306,401.6901690169017 L 284.5895282676705,398.5398539853985 L 283.9408383627947,397.48974897489745 L 281.67042369572926,394.5894589458946 L 281.2534087568805,393.0893089308931 L 281.2070737636751,391.4891489148915 L 281.4387487297022,388.08880888088805 L 281.16073877046966,386.8386838683868 L 281.48508372290763,385.7885788578858 L 281.0680687840589,383.5883588358836 L 280.7437238316209,382.8882888288829 L 280.14136891995054,382.2382238223822 L 222.732312338439,343.28432843284327 L 222.08362243356316,342.6342634263426 L 221.99095244715232,342.18421842184216 L 222.40796738600108,341.48414841484146 L 230.51659119694904,332.9332933293329 L 230.09957625810029,330.3330333033303 L 230.23858123771652,329.2329232923292 L 229.96057127848403,328.13281328132814 L 229.49722134642985,327.2827282728273 L 225.88309187640735,324.4324432443244 L 225.00272700550443,324.08240824082407 L 223.6126772093419,323.8323832383238 L 212.39960885363104,317.981798179818 L 211.2412340234956,316.8816881688169 L 209.20249432245726,315.4315431543154 L 208.55380441758143,314.6314631463146 L 207.85877951950016,312.1312131213121 L 206.51506471654307,309.6309630963096 L 206.3297247437214,308.83088308830884 L 206.3297247437214,308.13081308130813 L 206.88574466218643,307.0807080708071 L 207.30275960103518,306.6806680668067 L 209.48050428168975,306.1306130613061 L 209.99018920694934,305.6305630563056 L 210.26819916618186,305.030503050305 L 210.91688907105768,302.3302330233023 L 211.2412340234956,298.72987298729873 L 210.9632240642631,294.57945794579456 L 211.38023900311185,292.97929792979295 L 216.33808327609145,285.17851785178516 L 216.56975824211855,284.1284128412841 L 216.56975824211855,280.8780878087809 L 216.7550982149402,279.62796279627963 L 218.00614303148646,275.5275527552755 L 218.46949296354063,274.6274627462746 L 219.11818286841648,273.87738773877385 L 222.08362243356316,271.42714271427144 L 222.7786473316444,270.6770677067707 L 223.75168218895817,269.2269226922692 L 224.956392012299,266.67666766676666 L 226.20743682884526,260.22602260226023 L 228.89486643475942,254.37543754375437 L 287.7866427988443,276.027602760276 L 300.3434259575123,282.4282428242824 L 312.39052419092064,336.3836383638364 L 312.85387412297484,336.63366336633663 L 314.6609388579861,334.8834883488349 L 315.40229874927275,334.4334433443344 L 316.18999363376486,334.3334333433343 L 316.97768851825697,334.48344834483447 L 322.1672077572636,336.983698369837 L 323.23291260098824,336.83368336833684 L 324.0206074854803,336.3836383638364 L 325.3643222884374,335.1835183518352 L 326.3836921389566,333.7333733373337 L 327.12505203024324,333.1333133313331 L 328.0517518943516,332.88328832883286 L 329.5344716769249,332.98329832983296 L 331.48054139155244,332.68326832683266 L 334.86299589554784,331.8331833183318 L 335.97503573247786,332.033203320332 L 336.9017355965862,332.5332533253325 L 339.21848525685704,334.6334633463346 L 339.86717516173286,334.4334433443344 L 341.1182199782791,333.4333433343334 L 342.6472747540579,332.5332533253325 L 343.8056495841933,332.08320832083206 L 345.1493643871504,331.9331933193319 L 347.5124490406267,332.28322832283226 L 348.20747393870795,332.033203320332 L 349.3195137756379,330.88308830883085 L 350.6168935853896,329.98299829982994 L 350.9875735310329,329.3329332933293 L 351.1265785106492,327.73277327732774 L 352.60929829322254,322.88228822882286 L 353.48966316412543,321.58215821582155 L 356.547772715683,320.08200820082004 L 357.33546760017504,319.5319531953195 L 358.2621674642834,319.18191819181914 L 359.23520232159717,319.03190319031904 L 361.32027701584093,319.0819081908191 L 363.82236664893344,317.93179317931794 L 364.51739154701465,317.7817781778178 L 366.0927813159988,317.7817781778178 L 381.10531911455394,317.1817181718172 L 384.16342866611143,317.33173317331733 L 385.3681384894523,317.23172317231723 L 401.3537111453211,313.78137813781376 L 402.92910091430525,313.1313131313131 L 404.6898306561111,312.08120812081205 L 408.58197008536615,309.2809280928093 L 414.5128492156595,307.1807180718072 L 417.15394382836826,310.3310331033103 L 417.10760883516286,311.1311131113111 L 416.6905938963141,312.031203120312 L 416.50525392349243,313.2313231323132 L 416.87593386913574,313.98139813981396 L 417.98797370606576,315.48154815481547 L 418.126978685682,316.2816281628163 L 417.47828878080617,317.2817281728173 L 415.5785540593841,317.4817481748175 L 415.0688691341245,318.03180318031804 L 414.7445241816866,323.78237823782376 L 414.3738442360432,325.7325732573257 L 413.58614935155117,328.23282328232824 L 413.1691344127024,330.2330233023302 L 413.5398143583457,332.1332133213321 L 416.27357895746536,336.1836183618362 L 419.1000135429958,342.5342534253425 L 420.8144082915962,344.3344334433443 L 426.69895242868415,347.5847584758476 L 428.1816722112575,349.28492849284925 L 428.5060171636954,350.9350935093509 L 427.9963322384358,352.58525852585257 L 427.1159673675329,354.2354235423542 L 429.5253870142146,357.58575857585754 L 433.463861436675,358.1358135813581 L 437.95835577760045,357.6357635763576 L 441.98950018647173,357.8357835783578 L 443.51855496225045,358.58585858585855 L 443.79656492148297,359.035903590359 L 449.72744405177633,364.13641364136413 L 450.2371289770359,365.83658365836584 L 450.468803943063,369.9369936993699 L 452.7855536033338,373.2373237323732 L 456.4923530597672,376.4376437643764 L 459.1797826656814,379.68796879687966 L 458.6700977404218,383.43834383438343 L 458.3920877811893,384.3884388438844 L 458.9944426928597,385.03850385038504 L 459.96747755017344,385.63856385638564 L 460.70883744146016,386.3386338633863 L 460.8478424210764,387.4387438743874 L 460.24548750940596,388.08880888088805 L 458.29941779477844,389.038903890389 L 456.8166980122051,390.4390439043904 L 455.472983209248,391.989198919892 L 454.36094337231805,393.73937393739374 L 453.4805785014151,395.6395639563956 L 452.22953368486884,399.68996899689967 L 451.1174938479388,401.3401340134013 L 447.31802440509466,403.0903090309031 L 446.0669795885484,404.74047404740475 L 445.4182896836726,406.79067906790675 L 445.464624676878,412.84128412841284 L 445.2792847040563,414.89148914891484 L 444.0745748807155,419.8919891989199 L 443.6112249486613,420.7920792079208 L 441.1554703087742,422.2922292229223 L 440.9237953427471,423.14231423142314 L 439.95076048543336,423.34233423342334 L 438.1436957504221,424.79247924792475 L 434.99291621245374,425.6425642564256 L 433.41752644346957,425.79257925792575 L 431.9811416541017,425.4425442544254 L 429.1083720753658,424.3424342434243 L 427.4403123199708,424.4424442444244 L 426.1429325102191,425.3425342534253 L 424.9845576800837,426.49264926492646 L 423.54817289071576,427.3427342734273 L 422.1581230945533,427.6427642764276 L 407.09925030279277,429.042904290429 L 405.94087547265735,428.79287928792877 L 405.1531805881653,426.3426342634263 L 404.1801457308515,424.4424442444244 L 403.90213577161904,424.2424242424242 L 403.0217709007161,423.9423942394239 L 401.8633960705807,424.49244924492444 L 401.4463811317319,424.5424542454245 L 399.453976423899,423.34233423342334 L 397.9712566413257,423.0923092309231 L 394.91314708976813,422.8922892289229 L 393.7547722596327,422.1922192219222 L 392.73540240911353,421.34213421342133 L 389.8626328303777,420.1920192019202 L 388.0555680953664,417.7417741774177 L 387.0361982448473,416.99169916991696 L 384.3487686389331,416.49164916491645 L 381.93934899225144,416.49164916491645 L 379.4835943523643,416.99169916991696 L 376.7034947600393,417.99179917991796 L 375.45244994349304,418.09180918091806 L 373.73805519489264,417.89178917891786 L 372.1626654259085,417.4417441744174 L 371.51397552103265,416.8416841684168 L 371.00429059577306,415.4415441544154 L 368.224191003448,414.89148914891484 L 366.7414712208747,413.04130413041304 L 365.2587514383013,412.44124412441244 L 363.5906916829063,412.0912091209121 L 360.85692708378673,412.2912291229123 L 359.23520232159717,412.04120412041203 L 358.40117244389967,412.14121412141213 z" /><path fill-rule="evenodd" fill="#D2EBD9" stroke="#A6A6A6" stroke-width="0.25" opacity="1" d="M 414.5128492156595,307.1807180718072 L 408.58197008536615,309.2809280928093 L 404.6898306561111,312.08120812081205 L 402.92910091430525,313.1313131313131 L 401.3537111453211,313.78137813781376 L 385.3681384894523,317.23172317231723 L 384.16342866611143,317.33173317331733 L 381.10531911455394,317.1817181718172 L 366.0927813159988,317.7817781778178 L 365.9074413431772,313.7313731373137 L 363.86870164213883,309.7309730973097 L 361.4129470022517,306.08060806080607 L 361.69095696148423,305.48054805480547 L 362.6176568255926,304.28042804280426 L 363.35901671687924,301.08010801080104 L 363.68336166931715,298.42984298429843 L 364.1003766081659,297.4297429742974 L 364.7490665130418,296.8796879687969 L 367.0658161733126,296.07960796079607 L 367.85351105780467,295.4295429542954 L 387.7312231429285,256.3256325632563 L 388.2409080681881,254.42544254425442 L 388.14823808177727,253.07530753075307 L 378.1862145426127,238.37383738373836 L 365.2587514383013,222.6222622262226 L 364.7954015062472,222.2222222222222 L 364.14671160137135,222.022202220222 L 362.7566618052088,223.17231723172316 L 356.9184526613263,226.02260226022602 L 356.26976275645046,225.42254225422542 L 356.26976275645046,224.92249224922492 L 357.0574576409426,221.87218721872185 L 357.33546760017504,218.87188718871886 L 357.28913260696964,215.57155715571557 L 356.96478765453173,214.021402140214 L 356.3624327428613,213.07130713071305 L 354.7407079806717,212.27122712271225 L 353.9066781029742,211.52115211521152 L 352.5629633000171,209.17091709170916 L 352.09961336796295,208.6208620862086 L 349.92186868730835,207.6207620762076 L 348.1611389455025,205.47054705470546 L 346.6784191629292,204.020402040204 L 345.89072427843706,203.5203520352035 L 345.103029393945,203.27032703270325 L 343.8056495841933,203.37033703370335 L 342.7862797336742,203.27032703270325 L 340.4231950801979,202.07020702070207 L 339.5891652025004,201.32013201320132 L 339.17215026365164,199.96999699969996 L 338.6161303451866,199.06990699069905 L 337.1334105626133,197.9197919791979 L 336.43838566453206,197.11971197119712 L 335.69702577324534,196.019601960196 L 335.4653508072183,195.26952695269526 L 335.2800108343966,192.96929692969294 L 334.9556658819587,192.01920192019202 L 333.79729105182327,190.26902690269026 L 333.51928109259075,189.46894689468945 L 331.6658813643741,187.01870187018702 L 325.78133722728614,174.8174817481748 L 325.59599725446446,174.017401740174 L 325.9203422069024,171.7171717171717 L 324.76196737676696,169.26692669266924 L 324.205947458302,167.06670667066706 L 322.9549026417557,163.56635663566357 L 323.3255825873991,163.31633163316332 L 326.7080370913945,162.2162216221622 L 328.0517518943516,161.3161316131613 L 328.9784517584599,159.36593659365937 L 330.6928465070603,153.56535653565356 L 331.434206398347,151.86518651865185 L 333.47294609938535,149.56495649564957 L 333.79729105182327,147.76477647764776 L 333.65828607220703,147.7147714771477 L 333.5656160857962,146.86468646864685 L 333.7509560586179,146.46464646464645 L 335.2800108343966,146.06460646064605 L 335.2336758411912,145.6145614561456 L 334.26064098387747,143.6143614361436 L 334.4459809566991,143.06430643064306 L 335.5116858004237,142.06420642064205 L 335.83603075286163,141.46414641464145 L 336.20671069850493,139.2139213921392 L 337.36508552864035,139.26392639263926 L 339.3111552432679,140.26402640264027 L 340.00618014134915,139.56395639563956 L 342.23025981520914,136.2136213621362 L 342.83261472687957,133.4133413341334 L 343.43496963855,132.8132813281328 L 344.2689995162475,132.76327632763275 L 344.5006744822746,131.86318631863185 L 343.8056495841933,131.16311631163114 L 343.38863464534455,130.46304630463047 L 343.1569596793175,129.012901290129 L 342.6009397608525,127.6127612761276 L 342.23025981520914,127.06270627062706 L 341.34989494430624,126.3126312631263 L 340.9328800054575,125.56255625562555 L 341.16455497148456,125.06250625062505 L 342.23025981520914,125.16251625162515 L 344.5933444686854,127.5127512751275 L 345.6127143192046,127.8127812781278 L 347.6051190270375,127.46274627462745 L 352.74830327283877,125.1125112511251 L 354.4163630282338,124.71247124712471 L 355.2967278991367,124.91249124912491 L 356.82578267491544,125.8125812581258 L 357.7524825390238,125.9125912591259 L 358.5401774235159,125.76257625762575 L 372.44067538514093,120.56205620562055 L 373.87706017450887,120.4120412041204 L 375.40611495028764,120.8120812081208 L 377.5375246377368,120.5120512051205 L 378.69589946787227,120.86208620862085 L 379.2055843931318,120.7120712071207 L 379.8542742980077,119.71197119711971 L 380.27128923685643,119.61196119611961 L 381.10531911455394,120.06200620062006 L 382.12468896507306,122.26222622262226 L 382.9123838495652,123.012301230123 L 385.5071434690685,124.81248124812481 L 388.14823808177727,127.66276627662765 L 391.02100766051313,128.7128712871287 L 391.80870254500525,129.26292629262926 L 392.17938249064855,129.96299629962996 L 392.4110574566756,131.66316631663165 L 392.9207423819352,132.5132513251325 L 398.99062649184486,138.4138413841384 L 399.6393163967207,139.26392639263926 L 399.91732635595315,140.11401140114012 L 400.05633133556944,141.7141714171417 L 400.2880063015965,142.56425642564255 L 401.122036179294,144.16441644164416 L 402.9754359075107,147.06470647064705 L 404.0411407512353,146.36463646364635 L 405.1531805881653,145.3145314531453 L 406.12621544547903,143.8143814381438 L 406.8212403435603,142.1142114211421 L 407.56260023484697,138.8138813881388 L 409.3696649698582,135.11351135113512 L 410.342699827172,133.66336633663366 L 411.7790846165399,132.16321632163215 L 412.3351045350049,131.36313631363134 L 412.6131144942374,129.16291629162916 L 413.2154694059078,128.56285628562856 L 414.8835291613028,127.56275627562755 L 415.99556899823284,126.1126112611261 L 415.6248890525895,125.56255625562555 L 414.69818918848114,125.01250125012501 L 413.5398143583457,122.56225622562256 L 411.91808959615616,121.76217621762176 L 411.31573468448573,121.06210621062105 L 411.1767297048695,117.56175617561756 L 412.47410951462115,116.4116411641164 L 414.2811742496324,115.8115811581158 L 416.2272439642599,115.7115711571157 L 417.8953037196549,116.06160616061605 L 420.0730484003095,117.26172617261726 L 420.8144082915962,117.26172617261726 L 421.55576818288284,116.7116711671167 L 421.78744314891,115.26152615261526 L 422.34346306737496,114.76147614761476 L 422.9458179790454,114.76147614761476 L 427.1159673675329,116.011601160116 L 427.90366225202496,115.96159615961595 L 429.9424019530633,114.91149114911491 L 430.6374268511446,115.01150115011501 L 431.14711177640413,115.6115611561156 L 431.9811416541017,118.06180618061805 L 433.41752644346957,119.36193619361936 L 433.9735463619346,120.06200620062006 L 433.9735463619346,122.16221622162216 L 434.3442263075779,122.96229622962295 L 434.99291621245374,123.66236623662365 L 437.2169958863138,125.46254625462545 L 438.00469077080584,125.8125812581258 L 441.85049520685544,126.71267126712671 L 442.17484015929335,126.46264626462646 L 441.572485247623,129.012901290129 L 435.5489361309188,134.16341634163416 L 435.27092617168626,136.86368636863685 L 436.3829660086163,137.7137713771377 L 439.11673060773586,138.7138713871387 L 440.18243545146044,139.86398639863987 L 440.18243545146044,140.46404640464047 L 439.67275052620084,141.9141914191419 L 439.7654205126117,142.66426642664266 L 440.2287704446659,143.06430643064306 L 441.572485247623,143.56435643564356 L 442.12850516608796,144.1144114411441 L 442.4991851117313,145.21452145214522 L 442.96253504378546,149.46494649464947 L 443.47221996904506,151.015101510151 L 443.5648899554559,151.8151815181518 L 443.19421000981254,152.5152515251525 L 442.12850516608796,153.36533653365336 L 442.0358351796771,153.86538653865387 L 442.4991851117313,154.61546154615462 L 442.4528501185259,155.56555655565555 L 442.63819009134755,156.26562656265625 L 443.00887003699086,156.86568656865686 L 443.6112249486613,157.4157415741574 L 453.06356356256634,161.1161116111611 L 455.19497325001555,162.26622662266226 L 455.75099316848053,163.36633663366337 L 455.1486382568101,166.86668666866686 L 455.7046581752751,169.6169616961696 L 455.9363331413022,175.96759675967596 L 456.4460180665618,177.66776677667767 L 457.41905292387554,178.76787678767874 L 459.2724526520922,179.9179917991799 L 458.6700977404218,180.4180418041804 L 455.6583231820697,181.1181118111811 L 454.68528832475596,184.36843684368435 L 453.1098985557718,185.2185218521852 L 452.6002136305122,185.8185818581858 L 453.2952385285934,186.46864686468646 L 454.9632982839884,187.01870187018702 L 456.4460180665618,187.96879687968797 L 457.0020379850268,188.76887688768875 L 457.3263829374647,189.7189718971897 L 457.8360678627243,190.36903690369036 L 460.43082748222764,190.86908690869086 L 460.3844924890222,192.06920692069207 L 459.5041276181193,193.5193519351935 L 458.4847577676001,194.56945694569455 L 459.4577926249139,196.86968696869687 L 459.59679760453014,198.8198819881988 L 459.87480756376266,199.56995699569956 L 461.8208772783901,201.12011201120112 L 462.42323219006056,202.02020202020202 L 461.9598822580064,203.67036703670365 L 459.13344767247594,205.5205520552055 L 457.9750728423405,206.72067206720672 L 457.5117229102864,208.27082708270825 L 457.74339787631345,209.17091709170916 L 458.9481076996543,210.2210221022102 L 459.96747755017344,211.72117211721172 L 460.5698324618439,214.27142714271426 L 460.6625024482547,216.77167716771675 L 460.5234974686385,217.5217521752175 L 459.92114255696805,218.5218521852185 L 458.2067478083676,220.17201720172017 L 457.6507278899026,221.17211721172117 L 457.6507278899026,221.87218721872185 L 458.1604128151622,223.9223922392239 L 457.8824028559297,224.87248724872487 L 457.0020379850268,226.57265726572655 L 454.73162331796135,232.8232823282328 L 454.7779583111668,233.97339733973396 L 455.6119881888643,235.67356735673567 L 455.9826681345076,239.12391239123912 L 456.39968307335636,240.97409740974095 L 457.6507278899026,242.9242924292429 L 459.04077768606516,244.47444744474447 L 459.96747755017344,246.17461746174615 L 459.64313259773553,248.62486248624862 L 459.08711267927055,250.6250625062506 L 459.08711267927055,252.6252625262526 L 459.5041276181193,254.57545754575457 L 462.74757714249847,261.5761576157616 L 463.30359706096345,264.17641764176415 L 462.60857216288224,266.57665766576656 L 460.70883744146016,270.42704270427043 L 459.73580258414637,271.4771477147715 L 456.5386880529726,273.6273627362736 L 454.7779583111668,276.027602760276 L 452.0905287052526,277.7277727772777 L 449.0787541469005,279.0779077907791 L 446.85467447304046,279.6779677967797 L 445.464624676878,279.4779477947795 L 443.00887003699086,278.4778477847785 L 441.7114902272392,278.7778777877788 L 440.2287704446659,279.3779377937794 L 438.8850556417088,279.3779377937794 L 437.5413408387517,278.9278927892789 L 436.1976260357946,278.2278227822782 L 436.05862105617837,281.17811781178114 L 435.5026011377133,284.47844784478445 L 434.5295662803996,287.6787678767877 L 433.1858514774425,290.42904290429044 L 431.10077678319874,292.4292429242924 L 428.1816722112575,293.87938793879385 L 424.9845576800837,294.37943794379436 L 422.06545310814244,293.57935793579355 L 421.463098196472,294.37943794379436 L 420.8144082915962,294.9294929492949 L 420.0730484003095,295.2295229522952 L 417.20027882157365,295.5295529552955 L 416.5979239099033,295.3295329532953 L 416.0882389846437,294.2294229422942 L 415.7175590390003,293.87938793879385 L 414.14216927001615,293.37933793379335 L 413.678819337962,293.7293729372937 L 409.97201988152864,298.12981298129813 L 410.0646898679395,300.38003800380034 L 410.898719745637,302.38023802380235 L 414.5128492156595,307.1807180718072 z" /><path fill-rule="evenodd" fill="#D2EBD9" stroke="#A6A6A6" stroke-width="0.25" opacity="1" d="M 322.9549026417557,163.56635663566357 L 324.205947458302,167.06670667066706 L 324.76196737676696,169.26692669266924 L 325.9203422069024,171.7171717171717 L 325.59599725446446,174.017401740174 L 325.78133722728614,174.8174817481748 L 331.6658813643741,187.01870187018702 L 333.51928109259075,189.46894689468945 L 333.79729105182327,190.26902690269026 L 334.9556658819587,192.01920192019202 L 335.2800108343966,192.96929692969294 L 335.4653508072183,195.26952695269526 L 335.69702577324534,196.019601960196 L 336.43838566453206,197.11971197119712 L 337.1334105626133,197.9197919791979 L 338.6161303451866,199.06990699069905 L 339.17215026365164,199.96999699969996 L 339.5891652025004,201.32013201320132 L 340.4231950801979,202.07020702070207 L 342.7862797336742,203.27032703270325 L 343.8056495841933,203.37033703370335 L 345.103029393945,203.27032703270325 L 345.89072427843706,203.5203520352035 L 346.6784191629292,204.020402040204 L 348.1611389455025,205.47054705470546 L 349.92186868730835,207.6207620762076 L 352.09961336796295,208.6208620862086 L 352.5629633000171,209.17091709170916 L 353.9066781029742,211.52115211521152 L 354.7407079806717,212.27122712271225 L 356.3624327428613,213.07130713071305 L 356.96478765453173,214.021402140214 L 357.28913260696964,215.57155715571557 L 357.33546760017504,218.87188718871886 L 357.0574576409426,221.87218721872185 L 356.26976275645046,224.92249224922492 L 356.26976275645046,225.42254225422542 L 356.9184526613263,226.02260226022602 L 362.7566618052088,223.17231723172316 L 364.14671160137135,222.022202220222 L 364.7954015062472,222.2222222222222 L 365.2587514383013,222.6222622262226 L 378.1862145426127,238.37383738373836 L 388.14823808177727,253.07530753075307 L 388.2409080681881,254.42544254425442 L 387.7312231429285,256.3256325632563 L 367.85351105780467,295.4295429542954 L 367.0658161733126,296.07960796079607 L 364.7490665130418,296.8796879687969 L 364.1003766081659,297.4297429742974 L 363.68336166931715,298.42984298429843 L 363.35901671687924,301.08010801080104 L 362.6176568255926,304.28042804280426 L 361.69095696148423,305.48054805480547 L 361.4129470022517,306.08060806080607 L 363.86870164213883,309.7309730973097 L 365.9074413431772,313.7313731373137 L 366.0927813159988,317.7817781778178 L 364.51739154701465,317.7817781778178 L 363.82236664893344,317.93179317931794 L 361.32027701584093,319.0819081908191 L 359.23520232159717,319.03190319031904 L 358.2621674642834,319.18191819181914 L 357.33546760017504,319.5319531953195 L 356.547772715683,320.08200820082004 L 353.48966316412543,321.58215821582155 L 352.60929829322254,322.88228822882286 L 351.1265785106492,327.73277327732774 L 350.9875735310329,329.3329332933293 L 350.6168935853896,329.98299829982994 L 349.3195137756379,330.88308830883085 L 348.20747393870795,332.033203320332 L 347.5124490406267,332.28322832283226 L 345.1493643871504,331.9331933193319 L 343.8056495841933,332.08320832083206 L 342.6472747540579,332.5332533253325 L 341.1182199782791,333.4333433343334 L 339.86717516173286,334.4334433443344 L 339.21848525685704,334.6334633463346 L 336.9017355965862,332.5332533253325 L 335.97503573247786,332.033203320332 L 334.86299589554784,331.8331833183318 L 331.48054139155244,332.68326832683266 L 329.5344716769249,332.98329832983296 L 328.0517518943516,332.88328832883286 L 327.12505203024324,333.1333133313331 L 326.3836921389566,333.7333733373337 L 325.3643222884374,335.1835183518352 L 324.0206074854803,336.3836383638364 L 323.23291260098824,336.83368336833684 L 322.1672077572636,336.983698369837 L 316.97768851825697,334.48344834483447 L 316.18999363376486,334.3334333433343 L 315.40229874927275,334.4334433443344 L 314.6609388579861,334.8834883488349 L 312.85387412297484,336.63366336633663 L 312.39052419092064,336.3836383638364 L 300.3434259575123,282.4282428242824 L 287.7866427988443,276.027602760276 L 228.89486643475942,254.37543754375437 L 227.36581165898068,252.025202520252 L 225.2344019715315,249.52495249524952 L 224.58571206665567,248.52485248524852 L 224.21503212101234,247.57475747574756 L 223.70534719575275,242.97429742974296 L 224.4467070870394,238.023802380238 L 225.18806697832608,236.47364736473645 L 226.94879672013192,234.57345734573457 L 227.6901566114186,232.57325732573256 L 228.06083655706192,229.92299229922992 L 227.59748662500778,227.1227122712271 L 227.82916159103485,225.67256725672567 L 228.38518150949986,224.97249724972497 L 230.7482661629761,224.27242724272426 L 231.5822960406736,224.2224222422242 L 233.9453806941499,225.17251725172517 L 236.30846534762614,225.72257225722572 L 241.82232953907075,229.17291729172916 L 243.39771930805492,229.67296729672967 L 244.185414192547,229.57295729572957 L 244.4170891585741,229.32293229322931 L 244.46342415177952,228.9228922892289 L 244.23174918575242,226.97269726972695 L 244.46342415177952,225.22252225222522 L 245.20478404306618,222.8222822282228 L 245.62179898191494,221.97219721972195 L 248.49456856065078,218.021802180218 L 249.74561337719703,216.67166716671667 L 253.63775280645206,213.9213921392139 L 256.5105223851879,211.12111211121112 L 260.9586817329079,208.9208920892089 L 262.5804064950975,207.27072707270725 L 265.40684108062794,203.77037703770375 L 265.87019101268214,202.97029702970295 L 265.9628609990929,200.97009700970096 L 267.2602408088446,196.26962696269626 L 267.53825076807715,193.3193319331933 L 267.1675708224338,190.7190719071907 L 266.70422089037964,189.86898689868985 L 265.40684108062794,188.4188418841884 L 265.08249612819003,187.61876187618762 L 265.08249612819003,186.86868686868686 L 265.3141710942171,185.9185918591859 L 266.05553098550376,184.1184118411841 L 266.88956086320127,183.46834683468344 L 268.46495063218543,182.66826682668267 L 269.20631052347215,182.11821182118211 L 274.5348347420951,174.9174917491749 L 275.55420459261427,173.76737673767377 L 280.51204886559384,169.6169616961696 L 281.29974375008595,169.2169216921692 L 291.1227623096343,165.8165816581658 L 291.9104571941264,165.76657665766575 L 297.5169913719819,166.26662666266625 L 299.0460461477606,166.016601660166 L 299.648401059431,165.76657665766575 L 300.0190810050744,164.56645664566454 L 299.74107104584186,162.86628662866286 L 301.2237908284152,161.26612661266125 L 302.6601756177831,160.8160816081608 L 303.6795454683023,161.4161416141614 L 304.0038904207402,162.2162216221622 L 304.2355653867673,163.76637663766377 L 305.11593025767024,165.3165316531653 L 305.5792801897244,165.76657665766575 L 309.51775461218483,168.36683668366837 L 310.35178448988233,168.71687168716872 L 314.2902589123428,168.81688168816882 L 317.6727134163382,167.4167416741674 L 322.9549026417557,163.56635663566357 z" /><path fill-rule="evenodd" fill="#D2EBD9" stroke="#A6A6A6" stroke-width="0.25" opacity="1" d="M 299.74107104584186,162.86628662866286 L 300.0190810050744,164.56645664566454 L 299.648401059431,165.76657665766575 L 299.0460461477606,166.016601660166 L 297.5169913719819,166.26662666266625 L 291.9104571941264,165.76657665766575 L 291.1227623096343,165.8165816581658 L 281.29974375008595,169.2169216921692 L 280.51204886559384,169.6169616961696 L 275.55420459261427,173.76737673767377 L 274.5348347420951,174.9174917491749 L 269.20631052347215,182.11821182118211 L 268.46495063218543,182.66826682668267 L 266.88956086320127,183.46834683468344 L 266.05553098550376,184.1184118411841 L 265.3141710942171,185.9185918591859 L 265.08249612819003,186.86868686868686 L 265.08249612819003,187.61876187618762 L 265.40684108062794,188.4188418841884 L 266.70422089037964,189.86898689868985 L 267.1675708224338,190.7190719071907 L 267.53825076807715,193.3193319331933 L 267.2602408088446,196.26962696269626 L 265.9628609990929,200.97009700970096 L 265.87019101268214,202.97029702970295 L 265.40684108062794,203.77037703770375 L 262.5804064950975,207.27072707270725 L 260.9586817329079,208.9208920892089 L 256.5105223851879,211.12111211121112 L 253.63775280645206,213.9213921392139 L 249.74561337719703,216.67166716671667 L 248.49456856065078,218.021802180218 L 245.62179898191494,221.97219721972195 L 245.20478404306618,222.8222822282228 L 244.46342415177952,225.22252225222522 L 244.23174918575242,226.97269726972695 L 244.46342415177952,228.9228922892289 L 244.4170891585741,229.32293229322931 L 244.185414192547,229.57295729572957 L 243.39771930805492,229.67296729672967 L 241.82232953907075,229.17291729172916 L 236.30846534762614,225.72257225722572 L 233.9453806941499,225.17251725172517 L 231.5822960406736,224.2224222422242 L 230.7482661629761,224.27242724272426 L 228.38518150949986,224.97249724972497 L 227.82916159103485,225.67256725672567 L 227.59748662500778,227.1227122712271 L 228.06083655706192,229.92299229922992 L 227.6901566114186,232.57325732573256 L 226.94879672013192,234.57345734573457 L 225.18806697832608,236.47364736473645 L 224.4467070870394,238.023802380238 L 223.70534719575275,242.97429742974296 L 224.21503212101234,247.57475747574756 L 224.58571206665567,248.52485248524852 L 225.2344019715315,249.52495249524952 L 227.36581165898068,252.025202520252 L 228.89486643475942,254.37543754375437 L 221.9446174539469,254.67546754675467 L 219.34985783444355,255.07550755075505 L 214.62368852749103,256.7256725672567 L 209.99018920694934,258.9258925892589 L 197.75775100071928,268.3768376837684 L 196.6920461569947,268.6268626862686 L 195.71901129968094,268.5768576857686 L 192.5218967685072,267.87678767876787 L 178.20438386803335,267.026702670267 L 175.74862922814626,266.27662766276626 L 175.053604330065,265.7265726572657 L 173.9878994863404,264.4264426442644 L 173.3392095814646,264.026402640264 L 172.59784969017792,264.2264226422642 L 170.8834549415775,265.4265426542654 L 170.0957600570854,265.4265426542654 L 169.35440016579872,264.97649764976495 L 168.381365308485,263.57635763576354 L 167.6400054171983,263.026302630263 L 166.57430057347372,262.7262726272627 L 165.6939357025708,262.9262926292629 L 164.99891080448955,263.47634763476344 L 163.88687096755953,265.026502650265 L 163.05284108986203,265.3265326532653 L 161.8944662597266,265.5265526552655 L 161.0141013888237,265.4265426542654 L 158.74368672175825,264.17641764176415 L 156.84395200033617,264.6264626462646 L 156.380602068282,264.2264226422642 L 156.47327205469284,263.6263626362636 L 157.4463069120066,262.07620762076203 L 157.67798187803368,261.32613261326134 L 157.4463069120066,260.6760676067607 L 155.5465721905845,258.9258925892589 L 153.27615752351906,255.47554755475545 L 152.48846263902698,254.67546754675467 L 151.60809776812405,253.87538753875387 L 147.53061836604738,251.4251425142514 L 146.78925847476071,250.77507750775075 L 146.27957354950112,250.02500250025003 L 145.26020369898194,245.97459745974595 L 145.49187866500904,243.62436243624362 L 145.26020369898194,242.87428742874286 L 142.0630891678082,237.3237323732373 L 141.69240922216486,236.9236923692369 L 137.707599806499,234.82348234823482 L 137.56859482688276,234.17341734173417 L 138.30995471816942,232.97329732973296 L 138.49529469099107,232.2232223222322 L 138.35628971137484,231.47314731473145 L 137.9392747725261,230.67306730673067 L 135.7615300918715,227.77277727772776 L 135.34451515302274,225.57255725572557 L 134.927500214174,224.92249224922492 L 134.09347033647649,224.57245724572456 L 133.72279039083315,223.9223922392239 L 133.25944045877898,222.47224722472245 L 132.65708554710855,221.87218721872185 L 131.77672067620563,222.67226722672265 L 130.85002081209728,223.17231723172316 L 126.12385150514477,223.27232723272326 L 122.97307196717642,223.8223822382238 L 120.9806672593435,223.67236723672366 L 119.77595743600266,223.3223322332233 L 118.71025259227807,222.87228722872285 L 116.3008329455964,221.37213721372137 L 109.44325395119469,214.3214321432143 L 109.02623901234594,211.12111211121112 L 107.86786418221052,208.77087708770875 L 102.26133000435507,203.4203420342034 L 101.51997011306841,201.62016201620162 L 101.47363511986299,200.1200120012001 L 101.65897509268466,198.5198519851985 L 102.53933996358758,194.4194419441944 L 102.585674956793,193.3193319331933 L 102.49300497038216,191.86918691869187 L 101.98332004512257,189.36893689368935 L 101.28829514704132,187.76877687768777 L 100.63960524216549,186.7186718671867 L 99.94458034408423,186.3186318631863 L 97.62783068381339,186.018601860186 L 96.8401357993213,185.5185518551855 L 96.05244091482922,184.5184518451845 L 95.82076594880213,182.91829182918292 L 95.35741601674796,182.21822182218222 L 93.96736622058545,180.86808680868086 L 94.06003620699629,180.16801680168015 L 95.2184110371317,178.96789678967895 L 96.28411588085629,177.46774677467747 L 98.18385060227838,173.36733673367337 L 100.82494521498715,170.1170117011701 L 102.3076649975605,168.86688668866887 L 103.04902488884716,168.51685168516852 L 106.38514439963718,168.41684168416842 L 108.00686916182677,168.11681168116812 L 111.99167857749262,166.86668666866686 L 114.54010320379055,165.46654665466545 L 117.04219283688306,164.76647664766475 L 119.72962244279724,163.11631163116311 L 120.60998731370016,162.26622662266226 L 121.44401719139766,161.86618661866186 L 123.01940696038184,161.86618661866186 L 128.67227613144271,160.5160516051605 L 129.50630600914022,160.46604660466045 L 130.34033588683772,160.6160616061606 L 132.61075055390313,162.016201620162 L 133.35211044518982,162.016201620162 L 136.68822995597984,160.16601660166015 L 138.35628971137484,158.81588158815882 L 139.97801447356443,158.26582658265826 L 140.81204435126193,157.7157715771577 L 141.043719317289,156.9156915691569 L 140.90471433767277,156.1156115611561 L 139.931679480359,153.5153515351535 L 139.79267450074275,152.6152615261526 L 139.79267450074275,151.7151715171517 L 140.07068445997527,150.6150615061506 L 140.48769939882402,149.71497149714972 L 141.18272429690526,148.96489648964896 L 142.6654440794786,147.9147914791479 L 142.9434540387111,147.56475647564756 L 144.5651788009007,141.7141714171417 L 145.0748637261603,140.51405140514052 L 147.53061836604738,137.013701370137 L 148.22564326412862,136.56365636563655 L 149.38401809426406,135.21352135213522 L 152.62746761864324,130.06300630063006 L 187.1470375566788,134.56345634563456 L 189.23211225092257,133.76337633763376 L 190.01980713541465,133.16331633163315 L 190.62216204708508,132.4132413241324 L 191.03917698593384,131.6131613161316 L 191.6878668908097,129.2129212921292 L 192.10488182965844,128.46284628462845 L 192.75357173453426,127.86278627862785 L 199.37947576290887,123.8123812381238 L 200.02816566778472,123.06230623062305 L 200.39884561342805,122.26222622262226 L 201.88156539600138,116.7116711671167 L 202.29858033485013,116.011601160116 L 203.8276351106289,114.66146614661466 L 208.41479943796517,109.46094609460945 L 214.71635851390187,104.36043604360435 L 221.1105875762494,97.75977597759776 L 226.71712175410485,90.5090509050905 L 226.85612673372108,91.10911091109111 L 232.6943358776036,100.61006100610061 L 233.4356957688903,102.6102610261026 L 233.80637571453363,104.26042604260425 L 233.80637571453363,105.96059605960596 L 233.38936077568488,107.96079607960796 L 232.64800088439821,109.76097609760976 L 230.60926118335985,113.01130113011301 L 230.00690627168945,114.71147114711471 L 229.96057127848403,116.06160616061605 L 230.56292619015446,120.5120512051205 L 230.23858123771652,122.26222622262226 L 228.5241864891161,126.91269126912691 L 229.17287639399194,128.5128512851285 L 232.27732093875485,128.46284628462845 L 236.35480034083156,127.21272127212721 L 237.42050518455613,126.66266626662666 L 238.85688997392407,124.66246624662466 L 241.54431957983826,122.56225622562256 L 243.02703936241159,121.76217621762176 L 244.32441917216326,121.66216621662166 L 245.66813397512036,122.46224622462246 L 248.35556358103452,124.96249624962496 L 250.11629332284036,125.66256625662565 L 253.03539789478162,126.2126212621262 L 256.37151740557164,127.31273127312731 L 258.87360703866415,128.56285628562856 L 261.1440217057296,127.01270127012701 L 263.87778630484917,123.6123612361236 L 266.2872059515309,121.96219621962196 L 268.7892955846234,121.66216621662166 L 300.4824309371285,128.46284628462845 L 299.5557310730202,130.26302630263027 L 300.1580859846906,132.8132813281328 L 301.2237908284152,135.56355635563557 L 301.77981074688023,137.86378637863785 L 301.1774558352098,141.16411641164115 L 301.3627958080315,142.36423642364235 L 301.91881572649646,143.56435643564356 L 303.3552005158644,145.8145814581458 L 303.6795454683023,147.2147214721472 L 300.57510092353937,148.6148614861486 L 298.95337616134975,151.16511651165115 L 298.25835126326854,154.41544154415442 L 297.56332636518727,163.016301630163 L 297.8876713176252,164.11641164116412 L 298.76803618852813,163.91639163916392 L 299.74107104584186,162.86628662866286 z" /><path fill-rule="evenodd" fill="#D2EBD9" stroke="#A6A6A6" stroke-width="0.25" opacity="1" d="M 226.71712175410485,90.5090509050905 L 221.1105875762494,97.75977597759776 L 214.71635851390187,104.36043604360435 L 208.41479943796517,109.46094609460945 L 203.8276351106289,114.66146614661466 L 202.29858033485013,116.011601160116 L 201.88156539600138,116.7116711671167 L 200.39884561342805,122.26222622262226 L 200.02816566778472,123.06230623062305 L 199.37947576290887,123.8123812381238 L 192.75357173453426,127.86278627862785 L 192.10488182965844,128.46284628462845 L 191.6878668908097,129.2129212921292 L 191.03917698593384,131.6131613161316 L 190.62216204708508,132.4132413241324 L 190.01980713541465,133.16331633163315 L 189.23211225092257,133.76337633763376 L 187.1470375566788,134.56345634563456 L 152.62746761864324,130.06300630063006 L 141.18272429690526,124.41244124412441 L 138.44895969778565,122.06220622062206 L 137.61492982008815,120.11201120112011 L 136.64189496277442,118.8118811881188 L 136.13221003751482,117.81178117811781 L 135.94687006469314,116.96169616961696 L 136.17854503072024,116.2116211621162 L 137.29058486765024,114.4114411441144 L 137.38325485406108,113.26132613261325 L 136.8735699288015,112.86128612861286 L 134.9738352073794,112.31123112311231 L 133.53745041801147,111.4111411141114 L 132.7497555335194,110.56105610561056 L 132.14740062184896,109.66096609660966 L 131.86939066261647,108.86088608860885 L 131.22070075774064,105.46054605460546 L 130.8963558053027,104.5104510451045 L 130.15499591401604,103.31033103310331 L 129.36730102952396,103.01030103010301 L 127.79191126053978,103.01030103010301 L 101.10295517421966,95.25952595259525 L 107.21917427733469,90.15901590159015 L 117.55187776214265,82.65826582658265 L 131.82305566941105,71.35713571357135 L 140.25602443279692,64.25642564256425 L 147.99396829810155,55.8055805580558 L 148.27197825733404,54.25542554255425 L 149.66202805349656,53.6053605360536 L 154.85154729250326,49.85498549854985 L 155.63924217699534,48.35483548354835 L 155.96358712943325,46.804680468046804 L 155.63924217699534,45.004500450045 L 155.17589224494117,43.6043604360436 L 155.08322225853033,42.4042404240424 L 155.73191216340618,38.8038803880388 L 168.61304027451206,29.902990299029902 L 178.38972384085503,21.602160216021602 L 181.07715344676922,19.65196519651965 L 182.74521320216422,17.8017801780178 L 182.83788318857503,15.95159515951595 L 183.16222814101297,14.351435143514351 L 183.67191306627254,12.901290129012901 L 184.41327295755923,11.5011501150115 L 185.66431777410548,6.300630063006301 L 189.5564572033605,2.25022502250225 L 193.07791668697217,0.0 L 194.32896150351843,2.3002300230023 L 199.61115072893597,16.65166516651665 L 200.95486553189306,19.15191519151915 L 202.9936052329314,20.95209520952095 L 205.72736983205098,22.7022702270227 L 208.13678947873268,24.652465246524653 L 210.6852141050306,26.25262526252625 L 213.9749986226152,26.902690269026902 L 217.03310817417272,27.95279527952795 L 218.79383791597854,30.25302530253025 L 220.2765576985519,32.703270327032705 L 222.50063737241192,34.2034203420342 L 226.48544678807775,33.6033603360336 L 229.45088635322443,31.35313531353135 L 235.79878042236655,21.102110211021103 L 237.14249522532364,19.65196519651965 L 238.85688997392407,19.05190519051905 L 243.21237933523327,19.6019601960196 L 244.83410409742285,19.45194519451945 L 249.42126842475912,18.101810181018102 L 250.90398820733245,18.051805180518052 L 252.47937797631664,18.701870187018702 L 254.2401077181225,20.00200020002 L 255.63015751428497,21.652165216521652 L 256.2788474191608,23.452345234523452 L 255.6764925074904,25.152515251525152 L 254.14743773171165,26.002600260026 L 252.29403800349496,26.6026602660266 L 250.62597824809995,27.602760276027603 L 249.83828336360787,29.252925292529252 L 250.06995832963494,31.103110311031102 L 254.61078766376582,41.9041904190419 L 255.6764925074904,43.8043804380438 L 259.15161699789667,46.4046404640464 L 260.21732184162124,48.104810481048105 L 259.38329196392374,50.7050705070507 L 256.2788474191608,52.15521552155215 L 252.47937797631664,53.15531553155315 L 249.56027340437538,54.55545554555455 L 246.3631588732016,57.2057205720572 L 244.6950991178066,58.2058205820582 L 240.15426978367574,60.106010601060106 L 238.85688997392407,61.256125612561256 L 238.7178849943078,61.55615561556155 L 238.85688997392407,62.006200620062 L 238.9032249671295,67.55675567556756 L 239.32023990597824,68.95689568956895 L 240.38594474970282,70.95709570957095 L 241.21997462740032,71.45714571457145 L 242.28567947112492,71.35713571357135 L 244.13907919934158,71.55715571557155 L 246.13148390717453,72.75727572757275 L 246.13148390717453,74.45744574457446 L 244.9267740838337,76.3076307630763 L 238.85688997392407,82.75827582758275 L 236.12312537480446,86.80868086808681 L 234.82574556505278,88.25882588258825 L 233.2040208028632,88.75887588758876 L 230.9336061357978,88.1088108810881 L 227.6901566114186,85.8085808580858 L 226.34644180846152,85.55855585558555 L 225.92942686961274,87.45874587458745 L 226.71712175410485,90.5090509050905 z" /><path fill-rule="evenodd" fill="#D2EBD9" stroke="#A6A6A6" stroke-width="0.25" opacity="1" d="M 137.29058486765024,394.53945394539454 L 106.47781438604801,394.63946394639464 L 102.585674956793,394.13941394139414 L 102.16866001794425,392.989298929893 L 102.16866001794425,390.6390639063906 L 101.89065005871174,389.58895889588956 L 100.9639501946034,388.6388638863886 L 99.66657038485172,388.38883888388835 L 98.2301855954838,388.58885888588856 L 96.8401357993213,389.18891889188916 L 95.54275598956963,390.2390239023902 L 93.45768129532587,392.5892589258926 L 92.11396649236877,393.53935393539354 L 90.90925666902794,393.989398939894 L 88.49983702234626,394.23942394239424 L 88.22182706311376,393.23932393239323 L 87.57313715823793,391.8891889188919 L 86.83177726695125,393.5893589358936 L 86.13675236886999,396.98969896989695 L 85.0710475251454,398.7398739873987 L 83.77366771539374,399.1399139913991 L 79.14016839485205,399.28992899289926 L 77.70378360548412,399.039903990399 L 76.91608872099204,398.18981898189816 L 76.36006880252704,397.1397139713971 L 75.57237391803494,396.1396139613961 L 74.18232412187244,395.7395739573957 L 72.74593933250452,395.7395739573957 L 71.58756450236909,395.5395539553955 L 70.5218596586445,394.73947394739474 L 69.50248980812533,393.03930393039303 L 69.131809862482,391.3891389138914 L 70.24384969941201,389.6389638963896 L 70.61452964505534,388.38883888388835 L 70.84620461108243,386.4386438643864 L 73.67263919661285,378.9378937893789 L 74.46033408110495,369.48694869486945 L 74.18232412187244,365.5865586558656 L 74.46033408110495,363.9363936393639 L 75.57237391803494,362.3362336233623 L 74.9236840131591,361.08610861086106 L 74.0896541354616,357.58575857585754 L 73.57996921020202,356.8856885688569 L 72.88494431212077,356.2856285628563 L 72.51426436647743,354.8854885488549 L 72.46792937327201,353.2353235323532 L 72.83860931891535,351.98519851985196 L 71.44855952275284,352.28522852285226 L 70.84620461108243,352.98529852985297 L 70.05850972659034,355.23552355235523 L 70.75353462467159,356.43564356435644 L 71.17054956352034,358.7358735873587 L 71.0315445839041,361.08610861086106 L 70.05850972659034,362.3362336233623 L 69.9658397401795,361.28612861286126 L 69.54882480133075,360.48604860486046 L 68.8537999032495,359.9359935993599 L 67.88076504593575,359.6359635963596 L 67.41741511388157,361.7361736173617 L 65.51768039245948,362.78627862786277 L 63.20093073218864,362.9362936293629 L 61.34753100397196,362.3362336233623 L 62.45957084090197,363.986398639864 L 64.12763059629698,364.1864186418642 L 67.60275508670324,363.4363436343634 L 68.94646988966034,364.13641364136413 L 69.22447984889283,365.7865786578658 L 68.66845993042783,367.6367636763676 L 67.32474512747073,368.9368936893689 L 65.8420253448974,369.08690869086905 L 64.40564055552947,368.48684868486845 L 63.15459573898322,367.68676867686764 L 61.67187595640988,367.1367136713671 L 60.60617111268529,366.3866386638664 L 59.95748120780946,366.23662366236624 L 58.84544137087945,366.3866386638664 L 57.45539157471694,366.8366836683668 L 56.38968673099235,366.6866686668667 L 53.05356722020234,365.0865086508651 L 51.24650248519108,364.6864686468647 L 49.53210773659065,364.53645364536453 L 48.976087818125656,363.5363536353635 L 48.65174286568774,359.1359135913591 L 48.69807785889315,357.98579857985794 L 49.76378270261774,356.73567356735674 L 52.4048773153265,356.7856785678568 L 53.88759709789984,356.03560356035604 L 56.11167677175985,353.5353535353535 L 57.13104662227902,352.035203520352 L 60.97685105832863,343.28432843284327 L 62.08889089525863,342.1342134213421 L 62.96925576616155,341.5341534153415 L 63.432605698215724,338.68386838683864 L 64.08129560309156,337.7837783778378 L 67.04673516823824,338.88388838883884 L 68.06610501875741,338.68386838683864 L 68.52945495081158,338.98389838983894 L 68.99280488286576,339.9339933993399 L 69.50248980812533,339.9339933993399 L 69.9658397401795,338.3338333833383 L 71.12421457031492,337.1837183718372 L 73.90431416263993,335.5335533553355 L 77.70378360548412,332.68326832683266 L 78.58414847638704,332.28322832283226 L 81.08623810947955,332.3332333233323 L 81.73492801435539,331.98319831983196 L 82.93963783769624,330.88308830883085 L 83.95900768821541,330.2330233023302 L 87.57313715823793,328.98289828982894 L 88.5925070087571,329.38293829382934 L 94.75506110507754,329.7329732973297 L 96.33045087406171,330.2330233023302 L 99.0642154731813,331.78317831783176 L 100.59327024896007,330.48304830483045 L 102.16866001794425,330.03300330033 L 106.19980442681552,330.1330133013301 L 106.19980442681552,329.5329532953295 L 102.95635490243633,328.4828482848285 L 101.7979800723009,328.3828382838284 L 100.50060026254923,328.68286828682864 L 98.13751560907298,329.5329532953295 L 96.88647079252672,329.5329532953295 L 95.86710094200754,329.18291829182914 L 93.04066635647712,327.43274327432744 L 90.72391669620627,324.68246824682467 L 89.75088183889251,324.032403240324 L 88.49983702234626,325.1825182518252 L 86.4147623281025,325.2825282528253 L 84.83937255911833,324.58245824582457 L 85.0710475251454,323.2323232323232 L 86.22942235528083,321.7321732173217 L 89.1485269272221,316.4316431643164 L 86.55376730771874,318.4818481848185 L 84.09801266783165,322.3322332233223 L 81.17890809589039,325.2825282528253 L 77.19409868022454,324.6324632463246 L 76.36006880252704,326.2826282628263 L 75.66504390444578,326.73267326732673 L 74.46033408110495,326.83268326832683 L 71.49489451595826,324.032403240324 L 71.12421457031492,323.48234823482346 L 70.61452964505534,324.28242824282427 L 69.9658397401795,327.03270327032703 L 69.50248980812533,327.8827882788279 L 68.52945495081158,328.43284328432844 L 64.54464553514573,329.5329532953295 L 63.71061565744822,328.13281328132814 L 63.61794567103739,326.6826682668267 L 64.08129560309156,323.2323232323232 L 63.803285643859056,322.38223822382236 L 63.24726572539405,322.38223822382236 L 62.08889089525863,323.2323232323232 L 61.81088093602613,326.2826282628263 L 61.06952104473946,327.83278327832784 L 58.9844463504957,329.88298829882984 L 58.56743141164695,330.88308830883085 L 58.19675146600361,331.18311831183115 L 55.55565685329485,331.18311831183115 L 54.67529198239193,330.9330933093309 L 53.74859211828359,329.6329632963296 L 53.05356722020234,328.98289828982894 L 52.82189225417525,329.7329732973297 L 52.914562240586086,331.4331433143314 L 53.33157717943484,331.78317831783176 L 54.16560705713234,332.033203320332 L 53.609587138667344,334.48344834483447 L 54.350947029954014,337.4837483748375 L 54.53628700277568,339.08390839083904 L 54.21194205033776,341.034103410341 L 53.51691715225651,342.58425842584256 L 52.72922226776442,343.18431843184317 L 51.89519239006692,342.9342934293429 L 48.976087818125656,340.4340434043404 L 48.142057940428145,337.1837183718372 L 49.06875780453649,334.5834583458346 L 51.89519239006692,319.48194819481944 L 51.98786237647775,317.7817781778178 L 52.543882294942755,316.5316531653165 L 52.682887274559,315.8315831583158 L 51.66351742403983,314.3314331433143 L 50.96849252595858,312.5312531253125 L 50.87582253954775,311.5311531153115 L 51.802522403656084,309.4809480948095 L 51.98786237647775,308.73087308730874 L 51.94152738327233,307.7807780778078 L 51.10749750557483,303.58035803580356 L 49.30043277056357,299.9799979998 L 48.69807785889315,298.32983298329833 L 48.74441285209857,292.8292829282928 L 49.85645268902857,291.77917791779174 L 51.61718243083442,285.1285128512851 L 52.31220732891567,283.5283528352835 L 56.43602172419777,277.977797779778 L 57.640731547538614,276.8276827682768 L 58.66010139805778,276.17761776177616 L 60.18915617383654,276.07760776077606 L 60.93051606512321,275.87758775877586 L 63.61794567103739,274.6274627462746 L 66.16637029733532,272.87728772877284 L 69.82683476056326,268.3768376837684 L 70.29018469261742,270.32703270327033 L 69.17814485568742,280.5780578057806 L 69.59515979453617,281.27812781278124 L 71.0315445839041,281.8281828182818 L 74.13598912866702,283.4283428342834 L 77.37943865304621,284.6284628462846 L 78.16713353753829,284.8284828482848 L 81.36424806871206,285.07850785078506 L 84.70036757950207,286.9286928692869 L 85.44172747078875,286.8286828682868 L 87.06345223297834,285.4285428542854 L 87.99015209708668,285.1285128512851 L 89.33386690004376,285.3285328532853 L 91.78962153993086,286.67866786678667 L 93.13333634288794,287.6287628762876 L 95.58909098277505,290.2790279027903 L 96.37678586726713,290.42904290429044 L 98.7398705207434,289.52895289528954 L 100.26892529652216,289.42894289428943 L 101.70531008589008,288.72887288728873 L 102.3076649975605,288.0788078807881 L 102.67834494320383,287.3287328732873 L 103.18802986846342,284.9284928492849 L 103.51237482090133,284.17841784178415 L 103.83671977333925,281.87818781878184 L 104.253734712188,281.37813781378134 L 105.6437845083505,281.47814781478144 L 112.91837844160096,284.5284528452845 L 122.60239202153309,290.6290629062906 L 124.31678677013352,292.07920792079204 L 127.0042163760477,295.37953795379536 L 127.93091624015604,296.17961796179617 L 133.67645539762773,299.62996299629964 L 135.11284018699564,300.18001800180014 L 136.0858750443094,300.8300830083008 L 145.7235536310361,308.3808380838084 L 146.09423357667944,308.7808780878088 L 146.14056856988486,309.5809580958096 L 146.32590854270654,310.03100310031 L 147.9012983116907,310.6310631063106 L 148.27197825733404,311.28112811281125 L 147.9012983116907,313.6313631363136 L 147.5769533592528,314.68146814681467 L 148.50365322336114,315.7815781578158 L 149.8473680263182,316.5316531653165 L 151.46909278850782,318.1818181818182 L 152.30312266620533,319.28192819281924 L 155.17589224494117,320.8320832083208 L 155.5465721905845,321.58215821582155 L 155.50023719737908,322.2322232223222 L 154.61987232647616,324.28242824282427 L 154.57353733327074,325.5325532553255 L 155.12955725173575,326.4826482648265 L 156.47327205469284,327.73277327732774 L 157.07562696636325,328.5828582858286 L 157.26096693918493,329.18291829182914 L 157.30730193239035,331.033103310331 L 157.492641905212,331.3331333133313 L 158.0023268304716,331.5331533153315 L 159.1143666674016,331.48314831483145 L 164.0258759471758,332.08320832083206 L 166.75964054629537,333.3333333333333 L 168.56670528130664,333.033303330333 L 170.60544498234498,335.3335333533353 L 171.02245992119373,336.33363336333633 L 171.11512990760457,338.0838083808381 L 170.51277499593417,340.7340734073407 L 170.8834549415775,341.98419841984196 L 171.57847983965874,342.58425842584256 L 171.94915978530207,343.28432843284327 L 172.3198397309454,346.03460346034603 L 173.9878994863404,351.9351935193519 L 175.28527929609209,354.3354335433543 L 175.79496422135168,355.8855885588559 L 177.04600903789793,357.78577857785774 L 178.20438386803335,361.68616861686166 L 178.80673877970378,362.5362536253625 L 180.0114486030446,363.4863486348635 L 180.1967885758663,363.8363836383638 L 180.75280849433128,366.23662366236624 L 181.5405033788234,368.4368436843684 L 181.72584335164504,369.4369436943694 L 181.91118332446672,374.93749374937494 L 180.89181347394754,379.88798879887986 L 180.5211335283042,380.08800880088006 L 179.82610863022296,380.03800380038 L 138.21728473175858,365.6865686568657 L 137.05890990162317,365.43654365436544 L 136.41021999674732,365.5865586558656 L 135.99320505789856,366.33663366336634 L 135.34451515302274,368.68686868686865 L 134.9738352073794,369.4369436943694 L 133.3057754519844,371.8371837183718 L 133.21310546557356,372.9372937293729 L 133.53745041801147,374.53745374537453 L 134.6958252481469,377.58775877587755 L 135.62252511225523,379.18791879187916 L 136.82723493559607,383.1883188318832 L 137.29058486765024,394.53945394539454 z" /><g><path fill-rule="evenodd" fill="#D2EBD9" stroke="#A6A6A6" stroke-width="0.25" opacity="1" d="M 101.10295517421966,95.25952595259525 L 127.79191126053978,103.01030103010301 L 129.36730102952396,103.01030103010301 L 130.15499591401604,103.31033103310331 L 130.8963558053027,104.5104510451045 L 131.22070075774064,105.46054605460546 L 131.86939066261647,108.86088608860885 L 132.14740062184896,109.66096609660966 L 132.7497555335194,110.56105610561056 L 133.53745041801147,111.4111411141114 L 134.9738352073794,112.31123112311231 L 136.8735699288015,112.86128612861286 L 137.38325485406108,113.26132613261325 L 137.29058486765024,114.4114411441144 L 136.17854503072024,116.2116211621162 L 135.94687006469314,116.96169616961696 L 136.13221003751482,117.81178117811781 L 136.64189496277442,118.8118811881188 L 137.61492982008815,120.11201120112011 L 138.44895969778565,122.06220622062206 L 141.18272429690526,124.41244124412441 L 152.62746761864324,130.06300630063006 L 149.38401809426406,135.21352135213522 L 148.22564326412862,136.56365636563655 L 147.53061836604738,137.013701370137 L 145.0748637261603,140.51405140514052 L 144.5651788009007,141.7141714171417 L 142.9434540387111,147.56475647564756 L 142.6654440794786,147.9147914791479 L 141.18272429690526,148.96489648964896 L 140.48769939882402,149.71497149714972 L 140.07068445997527,150.6150615061506 L 139.79267450074275,151.7151715171517 L 139.79267450074275,152.6152615261526 L 139.931679480359,153.5153515351535 L 140.90471433767277,156.1156115611561 L 141.043719317289,156.9156915691569 L 140.81204435126193,157.7157715771577 L 139.97801447356443,158.26582658265826 L 138.35628971137484,158.81588158815882 L 136.68822995597984,160.16601660166015 L 133.35211044518982,162.016201620162 L 132.61075055390313,162.016201620162 L 130.34033588683772,160.6160616061606 L 129.50630600914022,160.46604660466045 L 128.67227613144271,160.5160516051605 L 123.01940696038184,161.86618661866186 L 121.44401719139766,161.86618661866186 L 120.60998731370016,162.26622662266226 L 119.72962244279724,163.11631163116311 L 117.04219283688306,164.76647664766475 L 114.54010320379055,165.46654665466545 L 111.99167857749262,166.86668666866686 L 108.00686916182677,168.11681168116812 L 106.38514439963718,168.41684168416842 L 103.04902488884716,168.51685168516852 L 102.3076649975605,168.86688668866887 L 100.82494521498715,170.1170117011701 L 98.18385060227838,173.36733673367337 L 96.28411588085629,177.46774677467747 L 95.2184110371317,178.96789678967895 L 94.06003620699629,180.16801680168015 L 93.96736622058545,180.86808680868086 L 95.35741601674796,182.21822182218222 L 95.82076594880213,182.91829182918292 L 96.05244091482922,184.5184518451845 L 96.8401357993213,185.5185518551855 L 97.62783068381339,186.018601860186 L 99.94458034408423,186.3186318631863 L 100.63960524216549,186.7186718671867 L 101.28829514704132,187.76877687768777 L 101.98332004512257,189.36893689368935 L 102.49300497038216,191.86918691869187 L 102.585674956793,193.3193319331933 L 102.53933996358758,194.4194419441944 L 101.65897509268466,198.5198519851985 L 101.47363511986299,200.1200120012001 L 101.51997011306841,201.62016201620162 L 102.26133000435507,203.4203420342034 L 107.86786418221052,208.77087708770875 L 109.02623901234594,211.12111211121112 L 109.44325395119469,214.3214321432143 L 108.14587414144302,214.9214921492149 L 104.43907468500967,215.52155215521552 L 103.32703484807966,215.97159715971597 L 102.585674956793,216.42164216421642 L 97.6741656770188,220.92209220922092 L 96.97914077893755,221.77217721772175 L 96.88647079252672,222.5222522252225 L 97.07181076534839,223.27232723272326 L 99.15688545959215,227.17271727172715 L 99.8519103576734,229.62296229622962 L 99.71290537805714,231.27312731273125 L 98.32285558189464,234.82348234823482 L 98.36919057510006,235.37353735373537 L 98.92521049356506,236.8236823682368 L 98.97154548677048,237.57375737573756 L 98.64720053433255,238.5238523852385 L 98.04484562266214,239.57395739573957 L 95.26474603033712,241.8241824182418 L 93.45768129532587,242.5242524252425 L 91.92862651954711,242.4242424242424 L 88.91685196119501,242.57425742574256 L 87.75847713105959,242.77427742774276 L 85.580732450405,242.57425742574256 L 84.79303756591291,242.6242624262426 L 84.05167767462623,242.87428742874286 L 83.4029877697504,243.4243424342434 L 82.93963783769624,244.32443244324432 L 82.10560795999874,245.17451745174517 L 80.02053326575496,246.57465746574655 L 78.30613851715454,247.3247324732473 L 75.06268899277536,251.7251725172517 L 69.82683476056326,268.3768376837684 L 66.16637029733532,272.87728772877284 L 63.61794567103739,274.6274627462746 L 60.93051606512321,275.87758775877586 L 60.18915617383654,276.07760776077606 L 58.66010139805778,276.17761776177616 L 57.640731547538614,276.8276827682768 L 56.43602172419777,277.977797779778 L 52.31220732891567,283.5283528352835 L 51.61718243083442,285.1285128512851 L 49.85645268902857,291.77917791779174 L 48.74441285209857,292.8292829282928 L 48.79074784530398,288.028802880288 L 47.63237301516856,284.67846784678466 L 45.639968307335636,281.6281628162816 L 38.50437935370144,273.77737773777375 L 37.06799456433351,270.8770877087709 L 32.34182525738099,266.67666766676666 L 31.693135352505152,264.57645764576455 L 32.34182525738099,263.27632763276324 L 33.268525121489326,261.976197619762 L 33.45386509431099,260.12601260126013 L 32.34182525738099,262.27622762276224 L 31.41512539327265,261.8761876187619 L 31.322455406861817,261.1761176117612 L 31.46146038647807,260.32603260326033 L 31.2761204136564,259.4759475947595 L 29.515390671850557,258.7258725872587 L 28.449685828125972,257.8257825782578 L 28.357015841715135,257.5257525752575 L 28.542355814536805,255.97559755975595 L 28.125340875688053,254.62546254625462 L 26.179271161060544,252.57525752575256 L 25.76225622221179,251.07510751075105 L 25.576916249390123,246.2246224622462 L 25.20623630374679,244.72447244724472 L 24.696551378487204,244.72447244724472 L 24.1405314600222,245.8245824582458 L 24.696551378487204,248.67486748674867 L 24.696551378487204,250.27502750275025 L 23.769851514378864,251.67516751675166 L 20.897081935643016,254.37543754375437 L 20.24839203076718,255.97559755975595 L 20.016717064740096,257.17571757175716 L 19.41436215306968,258.5258525852585 L 18.626667268577588,259.6759675967597 L 16.726932547155496,260.5760576057606 L 15.93923766266341,260.62606260626063 L 15.33688275099299,260.12601260126013 L 15.33688275099299,259.1759175917592 L 15.892902669457992,258.37583758375837 L 16.68059755395008,257.7257725772577 L 17.468292438442166,257.3257325732573 L 17.468292438442166,256.77567756775676 L 14.688192846117154,257.17571757175716 L 13.622488002392565,257.07570757075706 L 13.159138070338397,255.97559755975595 L 12.556783158667978,252.97529752975296 L 12.464113172257143,251.6251625162516 L 13.159138070338397,250.27502750275025 L 11.861758260586724,250.67506750675065 L 11.305738342121721,252.9252925292529 L 10.703383430451302,253.47534753475347 L 9.591343593521296,253.87538753875387 L 8.80364870902921,254.77547754775478 L 8.34029877697504,255.97559755975595 L 8.015953824537123,259.3259325932593 L 7.320928926455869,262.026202620262 L 6.1162191031150295,263.97639763976395 L 4.401824354514605,263.9263926392639 L 3.9848094156658527,264.87648764876485 L 4.401824354514605,266.07660766076606 L 1.8533997282166756,266.57665766576656 L 0.9730348573137547,267.27672767276727 L 1.668059755395008,268.7768776877688 L 1.0657048437245884,269.3769376937694 L 0.0,267.7267726772677 L 1.8533997282166756,261.82618261826184 L 4.309154368103771,258.67586758675867 L 5.374859211828359,254.47544754475447 L 7.089253960428784,251.5251525152515 L 9.174328654672545,246.77467746774676 L 10.379038478013383,244.72447244724472 L 10.796053416862135,243.72437243724372 L 11.491078314943389,240.87408740874085 L 12.093433226613808,240.87408740874085 L 12.881128111105895,241.4241424142414 L 13.483483022776316,240.02400240024002 L 13.9931679480359,238.07380738073806 L 14.502852873295486,236.8236823682368 L 15.892902669457992,236.4236423642364 L 18.255987322934253,238.023802380238 L 19.182687187042593,237.6237623762376 L 18.76567224819384,237.47374737473746 L 18.116982343318004,236.87368736873685 L 17.468292438442166,235.97359735973595 L 17.004942506387998,234.92349234923492 L 18.116982343318004,234.42344234423442 L 16.95860751318258,234.02340234023401 L 15.80023268304716,234.57345734573457 L 13.7151579888034,236.5236523652365 L 21.638441826929686,226.37263726372635 L 22.982156629886777,222.87228722872285 L 23.584511541557198,217.97179717971795 L 23.81618650758428,217.1217121712171 L 24.32587143284387,217.021702170217 L 25.06723132413054,219.92199219921991 L 24.094196466816783,222.3222322232223 L 25.576916249390123,221.12211221122112 L 26.92063105234721,219.27192719271926 L 27.337645991195966,217.37173717371735 L 25.76225622221179,216.27162716271627 L 25.94759619503346,215.72157215721572 L 26.36461113388221,215.22152215221521 L 25.80859121541721,213.77137713771376 L 25.993931188238875,212.1212121212121 L 26.68895608632013,210.82108210821082 L 28.866700766974724,209.8209820982098 L 32.851510182640574,207.02070207020702 L 33.87088003315974,206.87068706870687 L 34.24155997880308,207.07070707070707 L 34.380564958419335,207.37073707370735 L 36.00228972060892,208.17081708170815 L 36.28029967984143,207.67076707670765 L 37.0216595711281,207.02070207020702 L 36.78998460510101,206.37063706370637 L 36.65097962548476,204.8204820482048 L 36.928989584717264,203.1203120312031 L 37.80935445562018,202.07020702070207 L 39.15306925857727,201.92019201920192 L 42.95253870142146,202.6202620262026 L 43.78656857911896,203.17031703170315 L 45.222953368486884,205.47054705470546 L 46.52033317823856,205.92059205920592 L 47.03001810349814,205.6205620562056 L 47.725043001579394,204.5204520452045 L 48.42006789966065,204.27042704270426 L 49.30043277056357,204.5204520452045 L 50.08812765505566,205.07050705070506 L 50.690482566726075,205.87058705870587 L 50.87582253954775,206.72067206720672 L 50.319802621082744,210.92109210921092 L 50.36613761428816,212.5212521252125 L 51.10749750557483,212.07120712071205 L 51.38550746480733,211.72117211721172 L 51.33917247160191,211.37113711371137 L 50.87582253954775,210.87108710871087 L 52.35854232212109,208.07080708070805 L 52.59021728814817,206.72067206720672 L 51.33917247160191,204.37043704370436 L 50.96849252595858,202.87028702870285 L 50.36613761428816,202.07020702070207 L 47.07635309670356,201.52015201520152 L 47.07635309670356,201.02010201020101 L 47.81771298799023,200.37003700370036 L 48.142057940428145,199.2199219921992 L 48.0030529608119,198.16981698169815 L 47.35436305593606,197.66976697669767 L 45.964313259773554,197.51975197519752 L 44.80593842963813,197.06970697069707 L 44.157248524762295,196.21962196219621 L 44.29625350437855,194.96949694969496 L 46.19598822580064,194.5194519451945 L 46.52033317823856,194.1194119411941 L 46.52033317823856,191.96919691969197 L 47.07635309670356,190.76907690769076 L 47.169023083114396,189.5189518951895 L 47.63237301516856,188.9188918891889 L 48.234727926838985,188.56885688568855 L 49.81011769582316,188.9188918891889 L 52.4048773153265,189.1189118911891 L 54.58262199598109,189.76897689768975 L 56.38968673099235,191.06910691069106 L 58.9844463504957,194.4194419441944 L 59.123451330111955,195.2195219521952 L 58.799106377674036,196.91969196919692 L 59.401461289344454,197.11971197119712 L 60.42083113986362,197.16971697169717 L 62.96925576616155,196.019601960196 L 62.644910813723634,194.7194719471947 L 62.73758080013447,192.96929692969294 L 63.47894069142114,190.01900190019 L 64.40564055552947,188.4188418841884 L 65.70302036528115,187.46874687468747 L 68.99280488286576,186.16861686168616 L 66.58338523618407,185.6185618561856 L 59.95748120780946,186.5186518651865 L 57.45539157471694,186.16861686168616 L 58.011411493181946,185.2185218521852 L 58.057746486387366,183.9183918391839 L 57.45539157471694,181.2181218121812 L 56.29701674458152,181.86818681868186 L 55.833666812527355,183.01830183018302 L 55.92633679893819,184.36843684368435 L 56.38968673099235,185.6185618561856 L 54.44361701636485,185.46854685468546 L 52.31220732891567,184.8184818481848 L 50.45880760069899,183.7183718371837 L 49.254097777358155,182.36823682368237 L 49.06875780453649,183.06830683068307 L 48.65174286568774,183.7183718371837 L 48.04938795401731,184.018401840184 L 47.35436305593606,183.7183718371837 L 47.122688089908976,183.11831183118312 L 47.86404798119565,182.01820182018201 L 47.63237301516856,181.2181218121812 L 46.659338157854805,180.8180818081808 L 46.19598822580064,182.01820182018201 L 45.45462833451397,191.96919691969197 L 43.091543681037706,192.66926692669267 L 42.396518782956456,193.019301930193 L 38.087364414852686,196.61966196619662 L 37.0216595711281,197.31973197319732 L 34.47323494483017,200.47004700470046 L 34.009885012775996,201.22012201220122 L 33.54653508072183,202.8202820282028 L 31.693135352505152,204.77047704770476 L 30.85910547480765,207.27072707270725 L 29.886070617493893,208.2208220822082 L 28.635025800947638,208.77087708770875 L 27.383980984401383,208.6208620862086 L 25.854926208622626,210.37103710371036 L 24.88189135130887,211.77117711771177 L 24.047861473611366,214.1214121412141 L 22.982156629886777,216.27162716271627 L 23.352836575530112,214.6214621462146 L 24.88189135130887,210.87108710871087 L 25.62325124259554,209.47094709470946 L 35.63160977496559,195.5195519551955 L 40.03343412948019,190.9190919091909 L 41.88683385769687,188.4188418841884 L 43.23054866065396,185.06850685068505 L 43.23054866065396,181.8181818181818 L 44.157248524762295,179.1179117911791 L 44.29625350437855,178.26782678267827 L 44.29625350437855,174.96749674967495 L 43.78656857911896,171.96719671967196 L 44.01824354514604,169.56695669566955 L 44.7132684432273,168.01680168016802 L 45.87164327336272,167.56675667566756 L 47.63237301516856,168.71687168716872 L 49.43943775017982,167.36673667366736 L 49.624777723001486,166.5166516651665 L 48.69807785889315,164.9164916491649 L 49.57844272979607,164.9164916491649 L 50.273467627877324,164.7164716471647 L 50.92215753275316,164.36643664366434 L 51.478177451218166,163.76637663766377 L 51.431842458012746,164.7164716471647 L 51.61718243083442,165.6165616561656 L 52.08053236288858,166.26662666266625 L 52.82189225417525,166.5166516651665 L 53.609587138667344,168.76687668766877 L 54.21194205033776,169.26692669266924 L 55.60199184650027,168.71687168716872 L 57.640731547538614,164.96649664966495 L 59.123451330111955,163.76637663766377 L 58.799106377674036,165.5165516551655 L 58.84544137087945,166.3166316631663 L 59.123451330111955,167.016701670167 L 60.74517609230154,165.96659665966595 L 61.579205969999045,166.7166716671667 L 63.01559075936697,165.2165216521652 L 65.65668537207573,160.7160716071607 L 65.74935535848657,160.16601660166015 L 65.00799546719989,159.66596659665964 L 64.08129560309156,158.26582658265826 L 64.49831054194031,157.36573657365736 L 66.49071524977323,156.015601560156 L 67.32474512747073,154.96549654965494 L 68.11244001196283,155.015501550155 L 68.76112991683867,153.91539153915392 L 69.31714983530367,152.3152315231523 L 69.50248980812533,150.86508650865085 L 69.27081484209825,150.6150615061506 L 68.15877500516825,150.2150215021502 L 67.64909007990866,149.16491649164917 L 67.23207514105991,149.81498149814982 L 66.81506020221116,151.16511651165115 L 65.14700044681615,152.26522652265226 L 65.05433046040531,154.26542654265427 L 64.86899048758364,154.71547154715472 L 62.691245806929054,154.96549654965494 L 62.22789587487488,155.16551655165514 L 60.74517609230154,156.6156615661566 L 62.50590583410738,158.06580658065806 L 62.73758080013447,159.7159715971597 L 61.625540963204465,161.016101610161 L 59.401461289344454,161.56615661566155 L 55.27764689406235,161.56615661566155 L 55.4166518736786,161.26612661266125 L 54.99963693482985,160.6160616061606 L 54.48995200957026,160.26602660266025 L 54.21194205033776,160.76607660766075 L 54.25827704354318,161.3161316131613 L 54.48995200957026,161.7161716171617 L 55.27764689406235,162.06620662066206 L 54.67529198239193,163.76637663766377 L 54.21194205033776,163.76637663766377 L 53.609587138667344,162.06620662066206 L 53.00723222699692,161.66616661666166 L 51.98786237647775,162.06620662066206 L 52.59021728814817,162.66626662666266 L 50.96849252595858,162.5162516251625 L 49.1150927977419,163.06630663066306 L 47.67870800837398,164.21642164216422 L 47.07635309670356,165.66656665666565 L 46.752008144265645,165.96659665966595 L 46.14965323259522,165.46654665466545 L 45.964313259773554,164.7164716471647 L 46.79834313747106,164.31643164316432 L 46.89101312388189,163.96639663966397 L 47.58603802196315,163.21632163216321 L 48.32739791324982,162.5162516251625 L 48.69807785889315,162.36623662366236 L 49.254097777358155,161.56615661566155 L 52.59021728814817,158.26582658265826 L 53.70225712507818,155.2155215521552 L 54.67529198239193,153.81538153815382 L 56.38968673099235,153.36533653365336 L 55.833666812527355,152.26522652265226 L 56.99204164266278,151.36513651365135 L 59.401461289344454,148.46484648464846 L 61.53287097679363,147.26472647264725 L 69.45615481491991,139.46394639463946 L 70.05850972659034,138.26382638263826 L 70.5218596586445,131.013101310131 L 71.12421457031492,129.2129212921292 L 71.12421457031492,128.76287628762876 L 71.95824444801244,126.71267126712671 L 73.76530918302369,124.36243624362436 L 75.89671887047287,122.26222622262226 L 77.70378360548412,121.06210621062105 L 74.46033408110495,125.5125512551255 L 75.85038387726745,124.56245624562456 L 79.18650338805746,120.56205620562055 L 80.48388319780913,120.01200120012001 L 81.17890809589039,121.06210621062105 L 80.9472331298633,122.21222122212221 L 79.92786327934414,124.11241124112411 L 80.06686825896038,124.66246624662466 L 80.39121321139831,124.96249624962496 L 80.9472331298633,125.01250125012501 L 81.59592303473914,124.91249124912491 L 82.10560795999874,124.56245624562456 L 81.96660298038248,123.36233623362335 L 82.10560795999874,122.7122712271227 L 82.42995291243665,122.7122712271227 L 83.31031778333957,122.31223122312231 L 83.95900768821541,121.81218121812181 L 83.21764779692873,121.4121412141214 L 82.10560795999874,120.26202620262026 L 82.33728292602581,119.3119311931193 L 82.8469678512854,118.4118411841184 L 84.32968763385874,117.26172617261726 L 86.18308736207541,117.76177617761776 L 88.03648709029208,119.51195119511951 L 89.93622181171418,120.96209620962095 L 91.97496151275253,120.5120512051205 L 93.5503512817367,121.3121312131213 L 93.73569125455836,122.11221122112211 L 94.1063712002017,122.11221122112211 L 94.94040107789921,121.56215621562156 L 95.07940605751546,120.96209620962095 L 96.88647079252672,117.26172617261726 L 98.27652058868922,117.41174117411741 L 100.45426526934382,117.01170117011701 L 102.53933996358758,116.36163616361635 L 103.46603982769591,115.56155615561555 L 103.18802986846342,114.91149114911491 L 101.47363511986299,114.86148614861486 L 100.73227522857631,114.46144614461446 L 100.59327024896007,113.66136613661365 L 101.05662018101424,112.011201120112 L 100.73227522857631,111.2111211121112 L 102.86368491602549,110.06100610061006 L 103.51237482090133,111.5111511151115 L 104.5317446714205,112.91129112911291 L 104.62441465783134,113.26132613261325 L 104.48540967821509,114.26142614261425 L 104.809754630653,114.46144614461446 L 105.41210954232342,114.4114411441144 L 107.63618921618344,113.6113611361136 L 108.51655408708636,112.1112111211121 L 109.48958894440011,111.46114611461145 L 109.90660388324886,110.8110811081108 L 110.50895879491928,110.26102610261026 L 111.62099863184929,110.06100610061006 L 110.5552937881247,114.16141614161415 L 109.9992738696597,115.56155615561555 L 110.5552937881247,115.56155615561555 L 111.62099863184929,114.2114211421142 L 113.5670683464768,113.5113511351135 L 115.09612312225555,112.71127112711271 L 114.9571181426393,111.2111211121112 L 117.08852783008848,110.06100610061006 L 116.62517789803431,109.06090609060905 L 115.93015299995305,108.7108710871087 L 113.79874331250389,108.46084608460845 L 112.91837844160096,108.66086608660865 L 111.25031868620596,108.6108610861086 L 109.53592393760553,108.36083608360836 L 108.3775491074701,107.91079107910791 L 107.91419917541593,107.3107310731073 L 107.31184426374551,105.86058605860586 L 106.66315435886968,105.21052105210521 L 105.08776458988551,104.3104310431043 L 104.76341963744758,104.56045604560455 L 105.04142959668009,105.71057105710571 L 104.253734712188,105.76057605760576 L 103.51237482090133,105.61056105610561 L 102.86368491602549,105.21052105210521 L 102.3076649975605,104.6104610461046 L 102.02965503832799,105.56055605560556 L 101.7979800723009,108.46084608460845 L 101.33463014024674,108.36083608360836 L 101.2419601538359,107.91079107910791 L 100.50060026254923,108.4108410841084 L 100.03725033049507,108.46084608460845 L 99.75924037126256,108.11081108110811 L 99.5739003984409,107.36073607360736 L 99.0642154731813,107.36073607360736 L 98.7398705207434,109.06090609060905 L 97.58149569060797,110.9110911091109 L 96.93280578573213,111.3111311131113 L 94.1063712002017,112.31123112311231 L 92.85532638365545,111.8111811181118 L 92.1603014855742,112.61126112611261 L 91.92862651954711,114.1114111411141 L 91.97496151275253,115.56155615561555 L 91.55794657390378,114.86148614861486 L 90.8165866826171,114.46144614461446 L 90.58491171659001,115.46154615461546 L 90.7702516894117,116.3116311631163 L 91.18726662826045,117.21172117211721 L 91.37260660108211,118.36183618361835 L 89.84355182530335,116.8116811681168 L 88.8705169679896,115.5115511551155 L 87.75847713105959,114.81148114811481 L 85.90507740284292,115.01150115011501 L 84.1906826542425,115.9115911591159 L 81.92026798717706,118.36183618361835 L 80.48388319780913,119.46194619461946 L 82.19827794640956,116.36163616361635 L 96.33045087406171,98.85988598859885 L 101.10295517421966,95.25952595259525 z" /><path fill-rule="evenodd" fill="#D2EBD9" stroke="#A6A6A6" stroke-width="0.25" opacity="1" d="M 24.094196466816783,264.4264426442644 L 24.094196466816783,265.026502650265 L 24.789221364898037,265.27652765276525 L 25.113566317335955,265.77657765776576 L 25.113566317335955,266.4266426642664 L 24.696551378487204,267.2267226722672 L 24.00152648040595,266.3266326632663 L 22.240796738600107,265.27652765276525 L 21.360431867697187,264.4264426442644 L 20.433732003588847,263.2263226322632 L 20.24839203076718,262.57625762576254 L 20.24839203076718,261.72617261726174 L 20.526401989999684,260.82608260826083 L 21.638441826929686,259.6759675967597 L 22.00912177257302,258.975897589759 L 21.77744680654594,255.67556755675565 L 22.472471704627193,254.62546254625462 L 23.723516521173448,253.77537753775377 L 24.835556358103453,253.67536753675367 L 25.993931188238875,254.22542254225422 L 27.383980984401383,255.17551755175515 L 27.337645991195966,257.67576757675766 L 27.615655950428465,261.0761076107611 L 26.96696604555263,263.8263826382638 L 24.094196466816783,264.4264426442644 z" /></g><path fill-rule="evenodd" fill="#D2EBD9" stroke="#A6A6A6" stroke-width="0.25" opacity="1" d="M 230.51659119694904,332.9332933293329 L 168.56670528130664,333.033303330333 L 166.75964054629537,333.3333333333333 L 164.0258759471758,332.08320832083206 L 159.1143666674016,331.48314831483145 L 158.0023268304716,331.5331533153315 L 157.492641905212,331.3331333133313 L 157.30730193239035,331.033103310331 L 157.26096693918493,329.18291829182914 L 157.07562696636325,328.5828582858286 L 156.47327205469284,327.73277327732774 L 155.12955725173575,326.4826482648265 L 154.57353733327074,325.5325532553255 L 154.61987232647616,324.28242824282427 L 155.50023719737908,322.2322232223222 L 155.5465721905845,321.58215821582155 L 155.17589224494117,320.8320832083208 L 152.30312266620533,319.28192819281924 L 151.46909278850782,318.1818181818182 L 149.8473680263182,316.5316531653165 L 148.50365322336114,315.7815781578158 L 147.5769533592528,314.68146814681467 L 147.9012983116907,313.6313631363136 L 148.27197825733404,311.28112811281125 L 147.9012983116907,310.6310631063106 L 146.32590854270654,310.03100310031 L 146.14056856988486,309.5809580958096 L 146.09423357667944,308.7808780878088 L 145.7235536310361,308.3808380838084 L 136.0858750443094,300.8300830083008 L 135.11284018699564,300.18001800180014 L 133.67645539762773,299.62996299629964 L 127.93091624015604,296.17961796179617 L 127.0042163760477,295.37953795379536 L 124.31678677013352,292.07920792079204 L 122.60239202153309,290.6290629062906 L 112.91837844160096,284.5284528452845 L 105.6437845083505,281.47814781478144 L 104.253734712188,281.37813781378134 L 103.83671977333925,281.87818781878184 L 103.51237482090133,284.17841784178415 L 103.18802986846342,284.9284928492849 L 102.67834494320383,287.3287328732873 L 102.3076649975605,288.0788078807881 L 101.70531008589008,288.72887288728873 L 100.26892529652216,289.42894289428943 L 98.7398705207434,289.52895289528954 L 96.37678586726713,290.42904290429044 L 95.58909098277505,290.2790279027903 L 93.13333634288794,287.6287628762876 L 91.78962153993086,286.67866786678667 L 89.33386690004376,285.3285328532853 L 87.99015209708668,285.1285128512851 L 87.06345223297834,285.4285428542854 L 85.44172747078875,286.8286828682868 L 84.70036757950207,286.9286928692869 L 81.36424806871206,285.07850785078506 L 78.16713353753829,284.8284828482848 L 77.37943865304621,284.6284628462846 L 74.13598912866702,283.4283428342834 L 71.0315445839041,281.8281828182818 L 69.59515979453617,281.27812781278124 L 69.17814485568742,280.5780578057806 L 70.29018469261742,270.32703270327033 L 69.82683476056326,268.3768376837684 L 75.06268899277536,251.7251725172517 L 78.30613851715454,247.3247324732473 L 80.02053326575496,246.57465746574655 L 82.10560795999874,245.17451745174517 L 82.93963783769624,244.32443244324432 L 83.4029877697504,243.4243424342434 L 84.05167767462623,242.87428742874286 L 84.79303756591291,242.6242624262426 L 85.580732450405,242.57425742574256 L 87.75847713105959,242.77427742774276 L 88.91685196119501,242.57425742574256 L 91.92862651954711,242.4242424242424 L 93.45768129532587,242.5242524252425 L 95.26474603033712,241.8241824182418 L 98.04484562266214,239.57395739573957 L 98.64720053433255,238.5238523852385 L 98.97154548677048,237.57375737573756 L 98.92521049356506,236.8236823682368 L 98.36919057510006,235.37353735373537 L 98.32285558189464,234.82348234823482 L 99.71290537805714,231.27312731273125 L 99.8519103576734,229.62296229622962 L 99.15688545959215,227.17271727172715 L 97.07181076534839,223.27232723272326 L 96.88647079252672,222.5222522252225 L 96.97914077893755,221.77217721772175 L 97.6741656770188,220.92209220922092 L 102.585674956793,216.42164216421642 L 103.32703484807966,215.97159715971597 L 104.43907468500967,215.52155215521552 L 108.14587414144302,214.9214921492149 L 109.44325395119469,214.3214321432143 L 116.3008329455964,221.37213721372137 L 118.71025259227807,222.87228722872285 L 119.77595743600266,223.3223322332233 L 120.9806672593435,223.67236723672366 L 122.97307196717642,223.8223822382238 L 126.12385150514477,223.27232723272326 L 130.85002081209728,223.17231723172316 L 131.77672067620563,222.67226722672265 L 132.65708554710855,221.87218721872185 L 133.25944045877898,222.47224722472245 L 133.72279039083315,223.9223922392239 L 134.09347033647649,224.57245724572456 L 134.927500214174,224.92249224922492 L 135.34451515302274,225.57255725572557 L 135.7615300918715,227.77277727772776 L 137.9392747725261,230.67306730673067 L 138.35628971137484,231.47314731473145 L 138.49529469099107,232.2232223222322 L 138.30995471816942,232.97329732973296 L 137.56859482688276,234.17341734173417 L 137.707599806499,234.82348234823482 L 141.69240922216486,236.9236923692369 L 142.0630891678082,237.3237323732373 L 145.26020369898194,242.87428742874286 L 145.49187866500904,243.62436243624362 L 145.26020369898194,245.97459745974595 L 146.27957354950112,250.02500250025003 L 146.78925847476071,250.77507750775075 L 147.53061836604738,251.4251425142514 L 151.60809776812405,253.87538753875387 L 152.48846263902698,254.67546754675467 L 153.27615752351906,255.47554755475545 L 155.5465721905845,258.9258925892589 L 157.4463069120066,260.6760676067607 L 157.67798187803368,261.32613261326134 L 157.4463069120066,262.07620762076203 L 156.47327205469284,263.6263626362636 L 156.380602068282,264.2264226422642 L 156.84395200033617,264.6264626462646 L 158.74368672175825,264.17641764176415 L 161.0141013888237,265.4265426542654 L 161.8944662597266,265.5265526552655 L 163.05284108986203,265.3265326532653 L 163.88687096755953,265.026502650265 L 164.99891080448955,263.47634763476344 L 165.6939357025708,262.9262926292629 L 166.57430057347372,262.7262726272627 L 167.6400054171983,263.026302630263 L 168.381365308485,263.57635763576354 L 169.35440016579872,264.97649764976495 L 170.0957600570854,265.4265426542654 L 170.8834549415775,265.4265426542654 L 172.59784969017792,264.2264226422642 L 173.3392095814646,264.026402640264 L 173.9878994863404,264.4264426442644 L 175.053604330065,265.7265726572657 L 175.74862922814626,266.27662766276626 L 178.20438386803335,267.026702670267 L 192.5218967685072,267.87678767876787 L 195.71901129968094,268.5768576857686 L 196.6920461569947,268.6268626862686 L 197.75775100071928,268.3768376837684 L 209.99018920694934,258.9258925892589 L 214.62368852749103,256.7256725672567 L 219.34985783444355,255.07550755075505 L 221.9446174539469,254.67546754675467 L 228.89486643475942,254.37543754375437 L 226.20743682884526,260.22602260226023 L 224.956392012299,266.67666766676666 L 223.75168218895817,269.2269226922692 L 222.7786473316444,270.6770677067707 L 222.08362243356316,271.42714271427144 L 219.11818286841648,273.87738773877385 L 218.46949296354063,274.6274627462746 L 218.00614303148646,275.5275527552755 L 216.7550982149402,279.62796279627963 L 216.56975824211855,280.8780878087809 L 216.56975824211855,284.1284128412841 L 216.33808327609145,285.17851785178516 L 211.38023900311185,292.97929792979295 L 210.9632240642631,294.57945794579456 L 211.2412340234956,298.72987298729873 L 210.91688907105768,302.3302330233023 L 210.26819916618186,305.030503050305 L 209.99018920694934,305.6305630563056 L 209.48050428168975,306.1306130613061 L 207.30275960103518,306.6806680668067 L 206.88574466218643,307.0807080708071 L 206.3297247437214,308.13081308130813 L 206.3297247437214,308.83088308830884 L 206.51506471654307,309.6309630963096 L 207.85877951950016,312.1312131213121 L 208.55380441758143,314.6314631463146 L 209.20249432245726,315.4315431543154 L 211.2412340234956,316.8816881688169 L 212.39960885363104,317.981798179818 L 223.6126772093419,323.8323832383238 L 225.00272700550443,324.08240824082407 L 225.88309187640735,324.4324432443244 L 229.49722134642985,327.2827282728273 L 229.96057127848403,328.13281328132814 L 230.23858123771652,329.2329232923292 L 230.09957625810029,330.3330333033303 L 230.51659119694904,332.9332933293329 z" /></g></g></g></svg>