<svg xmlns="http://www.w3.org/2000/svg" xmlns:xlink="http://www.w3.org/1999/xlink" width="342.0725941900164" height="500.0" viewBox="0.0 0.0 342.0725941900164 500.0" preserveAspectRatio="xMinYMin meet"><g transform="matrix(1,0,0,-1,0,500.0)"><g><g><path fill-rule="evenodd" fill="#D2EBD9" stroke="#A6A6A6" stroke-width="0.25" opacity="1" d="M 99.72413361975175,21.35213521352135 L 94.28463542231076,25.252525252525253 L 87.40828864441363,36.153615361536154 L 87.40828864441363,52.55525552555255 L 93.49778977110859,73.6073607360736 L 105.71100270498556,77.5077507750775 L 101.12677151972082,83.75837583758376 L 96.57675101494313,102.46024602460245 L 69.1055745838417,101.66016601660165 L 36.605428121143866,101.7101710171017 L 31.61066877003452,80.6080608060806 L 34.07383776510214,67.60676067606761 L 38.62385826987984,56.7056705670567 L 41.32650202835681,45.604560456045604 L 38.04227670159998,31.753175317531753 L 32.158039657827324,26.002600260026 L 0.0,5.2505250525052505 L 13.88953627774244,1.45014501450145 L 31.131719243215812,0.55005500550055 L 46.868632267258974,3.85038503850385 L 56.44762280363307,12.301230123012301 L 63.768708427861846,7.800780078007801 L 71.63716493988342,4.2004200420042 L 79.98457097872371,1.6001600160016 L 88.63987314194745,0.0 L 90.04251104191651,8.95089508950895 L 93.80568589549205,16.05160516051605 L 99.72413361975175,21.35213521352135 z" /><path fill-rule="evenodd" fill="#D2EBD9" stroke="#A6A6A6" stroke-width="0.25" opacity="1" d="M 153.94806219172656,62.75627562756275 L 136.97956467014959,75.95759575957595 L 122.50844682412729,82.2082208220822 L 105.71100270498556,77.5077507750775 L 93.49778977110859,73.6073607360736 L 87.40828864441363,52.55525552555255 L 87.40828864441363,36.153615361536154 L 94.28463542231076,25.252525252525253 L 99.72413361975175,21.35213521352135 L 107.66101149274743,25.252525252525253 L 107.66101149274743,18.2018201820182 L 147.37961153821288,39.1039103910391 L 152.51121361127045,47.6047604760476 L 152.81910973565388,55.355535553555356 L 153.94806219172656,62.75627562756275 z" /><path fill-rule="evenodd" fill="#D2EBD9" stroke="#A6A6A6" stroke-width="0.25" opacity="1" d="M 173.6876248327546,164.86648664866485 L 147.65329698210928,167.2167216721672 L 124.76635173627261,167.2167216721672 L 118.67685060957764,147.7147714771477 L 105.71100270498556,125.86258625862585 L 95.03727039302586,112.61126112611261 L 96.57675101494313,102.46024602460245 L 101.12677151972082,83.75837583758376 L 105.71100270498556,77.5077507750775 L 122.50844682412729,82.2082208220822 L 136.97956467014959,75.95759575957595 L 153.94806219172656,62.75627562756275 L 156.65070595020353,68.35683568356835 L 161.47441189887763,70.6070607060706 L 163.8349488524841,73.55735573557355 L 158.63492541845244,89.05890589058906 L 158.327029294069,96.45964596459645 L 164.5191624622251,110.96109610961095 L 168.5902334401841,117.51175117511751 L 170.81392767184238,124.16241624162416 L 173.6876248327546,164.86648664866485 z" /><path fill-rule="evenodd" fill="#D2EBD9" stroke="#A6A6A6" stroke-width="0.25" opacity="1" d="M 100.51097927095391,209.1209120912091 L 112.58734948288269,199.96999699969996 L 121.72160117292513,186.7186718671867 L 124.76635173627261,167.2167216721672 L 147.65329698210928,167.2167216721672 L 173.6876248327546,164.86648664866485 L 174.0981529985992,170.76707670767075 L 172.42182965473373,184.56845684568455 L 164.6560051841733,200.67006700670066 L 170.47182086697188,206.22062206220622 L 171.08761311573878,209.17091709170916 L 151.00594366984024,221.8221822182218 L 129.82953244835605,224.67246724672466 L 110.39786593171146,221.22212221222122 L 100.51097927095391,209.1209120912091 z" /><path fill-rule="evenodd" fill="#D2EBD9" stroke="#A6A6A6" stroke-width="0.25" opacity="1" d="M 69.89242023504386,171.76717671767176 L 87.40828864441363,167.2167216721672 L 104.95836773427045,158.61586158615862 L 118.67685060957764,147.7147714771477 L 124.76635173627261,167.2167216721672 L 121.72160117292513,186.7186718671867 L 112.58734948288269,199.96999699969996 L 100.51097927095391,209.1209120912091 L 69.89242023504386,171.76717671767176 z" /><path fill-rule="evenodd" fill="#D2EBD9" stroke="#A6A6A6" stroke-width="0.25" opacity="1" d="M 36.605428121143866,101.7101710171017 L 69.1055745838417,101.66016601660165 L 96.57675101494313,102.46024602460245 L 95.03727039302586,112.61126112611261 L 105.71100270498556,125.86258625862585 L 118.67685060957764,147.7147714771477 L 104.95836773427045,158.61586158615862 L 87.40828864441363,167.2167216721672 L 69.89242023504386,171.76717671767176 L 56.44762280363307,155.36553655365535 L 55.831830554866166,138.9138913891389 L 36.605428121143866,101.7101710171017 z" /><path fill-rule="evenodd" fill="#D2EBD9" stroke="#A6A6A6" stroke-width="0.25" opacity="1" d="M 336.11993578526966,428.69286928692867 L 336.7015173535495,448.3948394839484 L 340.4989028876121,467.1967196719672 L 342.0725941900164,484.4484448444844 L 336.11993578526966,500.0 L 321.8198713416826,487.4987498749875 L 311.72772059800275,464.9464946494649 L 299.7539824275351,448.5448544854485 L 279.70652366212363,454.6454645464546 L 274.23281478419557,445.4445444544454 L 272.8643875647135,441.6941694169417 L 282.6144315035229,442.14421442144214 L 285.4881286644351,441.6941694169417 L 282.30653537913946,435.89358935893586 L 276.0801915304963,420.94209420942093 L 272.8643875647135,415.1415141514151 L 288.63551126924375,421.14211421142113 L 304.09873884939054,429.1429142914291 L 319.76723051245955,433.5433543354335 L 336.11993578526966,428.69286928692867 z" /></g></g></g></svg>