<svg xmlns="http://www.w3.org/2000/svg" xmlns:xlink="http://www.w3.org/1999/xlink" width="500.0" height="255.20471226610243" viewBox="0.0 0.0 500.0 255.20471226610243" preserveAspectRatio="xMinYMin meet"><g transform="matrix(1,0,0,-1,0,255.20471226610243)"><g><g><path fill-rule="evenodd" fill="#D2EBD9" stroke="#A6A6A6" stroke-width="0.25" opacity="1" d="M 161.6161616161616,218.4515583843955 L 155.7155715571557,215.15908834915928 L 153.3153315331533,214.67415090210898 L 150.96509650965095,214.80176601975379 L 148.56485648564856,215.49088765503578 L 146.26462646264625,216.6649467373681 L 144.1144114411441,217.2774993020632 L 141.9141914191419,217.37959139617905 L 136.7136713671367,216.7925618550129 L 134.36343634363436,217.0222690667736 L 129.5129512951295,218.42603536086654 L 126.81268126812681,218.7323116432141 L 121.36213621362135,217.9921439608742 L 118.6118611861186,218.22185117263484 L 116.6116611661166,219.3448642079092 L 113.3113311331133,222.76494936079027 L 111.3111311131113,223.9390084431226 L 107.46074607460746,225.1641135725128 L 106.36063606360635,226.0063733489686 L 105.66056605660566,227.05281731365608 L 104.6104610461046,229.4519815253786 L 103.96039603960395,230.44737944300817 L 101.66016601660165,231.3406852665219 L 96.35963596359636,230.2942413018344 L 93.75937593759376,231.41725433710877 L 91.45914591459146,233.331481101781 L 89.05890589058906,234.55658623117125 L 86.50865086508651,235.0670467017505 L 78.75787578757875,234.046125760592 L 76.45764576457645,234.60763227822918 L 66.25662566256625,242.85156887808427 L 63.85638563856385,244.25533517217724 L 56.205620562056204,246.90972961918942 L 51.8051805180518,250.30429174854152 L 49.65496549654965,251.40178176028692 L 46.904690469046905,251.09550547793935 L 42.104210421042104,248.568726148572 L 39.753975397539755,247.93065056034794 L 36.8036803680368,248.3134959132824 L 18.4018401840184,255.20471226610243 L 13.3013301330133,255.20471226610243 L 8.25082508250825,253.85199201906738 L 6.450645064506451,252.65240991320613 L 5.45054505450545,251.01893640735247 L 0.4000400040004,237.79801021934958 L 0.0,236.01139857232215 L 1.75017501750175,235.6285532193877 L 4.1004100410041,234.6586783252871 L 7.500750075007501,234.09717180764991 L 8.6008600860086,233.5611883135417 L 11.001100110011,231.16202410181916 L 15.05150515051505,229.91139594889995 L 17.35173517351735,228.8394289606835 L 18.55185518551855,227.33357057247468 L 20.2020202020202,224.57708403134666 L 21.35213521352135,221.56536725492901 L 21.052105210521052,218.3239432667507 L 21.8021802180218,217.22645325500528 L 23.502350235023503,215.49088765503578 L 25.252525252525253,211.43272691393065 L 26.002600260026,210.61599016100382 L 27.95279527952795,213.14276949037117 L 30.75307530753075,212.81097018449466 L 36.7036703670367,209.92686852572183 L 39.803980398039805,209.2377468904398 L 42.054205420542054,207.06828989047796 L 42.85428542854285,206.73649058460143 L 44.25442544254425,205.3072012669795 L 45.15451545154515,204.97540196110296 L 48.45484548454845,205.66452359638498 L 51.95519551955195,205.86870778461667 L 59.4059405940594,204.8222638199292 L 64.85648564856486,202.6783298434963 L 65.35653565356536,202.26996146703289 L 67.1067106710671,199.23272166708628 L 67.1067106710671,198.69673817297803 L 68.4068406840684,197.9055244435802 L 70.65706570657065,194.48543929069913 L 72.50725072507251,193.84736370247504 L 75.45754575457545,195.17456092598113 L 77.30773077307731,195.22560697303905 L 78.55785578557855,192.31598229073725 L 81.65816581658166,186.90510130259707 L 83.35833583358335,180.62643751447214 L 86.75867586758676,175.44526373809262 L 87.55875587558755,174.96032629104232 L 88.5088508850885,175.164510479274 L 90.00900090009,176.0833393263167 L 90.85908590859086,176.33856956160633 L 92.35923592359235,176.1343853733746 L 94.25942594259425,175.41974071456366 L 96.05960596059606,174.39881977340514 L 97.25972597259725,173.30132976165973 L 98.45984598459846,172.6122081263777 L 104.16041604160415,171.56576416169023 L 107.2107210721072,169.80467553819176 L 109.66096609660966,167.12475806765065 L 111.56115611561155,163.7557189618275 L 112.86128612861286,159.72308124425132 L 116.66166616661666,136.03771540937353 L 119.66196619661966,137.49252775052443 L 122.46224622462246,139.27913939755186 L 125.1125112511251,142.62265547984603 L 128.8128812881288,143.84776060923625 L 135.46354635463547,147.7527832091676 L 141.3141314131413,153.4444174561264 L 142.6142614261426,155.33312119726966 L 144.16441644164416,156.60927237371783 L 145.5145514551455,157.42600912664466 L 146.16461646164615,159.23814379720102 L 145.66456645664564,163.62810384418268 L 143.56435643564356,167.2268501617665 L 143.26432643264326,169.7025834440759 L 143.36433643364336,172.33145486755913 L 142.56425642564255,177.00216817335937 L 142.014201420142,177.946520043931 L 142.06420642064205,179.04401005567644 L 142.86428642864286,179.8862698321322 L 143.8143814381438,180.49882239682734 L 144.96449644964497,182.05572683209408 L 144.56445644564457,184.2507068555849 L 143.86438643864386,186.42016385554678 L 143.46434643464346,188.8193280672693 L 142.8142814281428,190.93773902017324 L 141.5141514151415,192.64778159661378 L 143.26432643264326,194.94485371422047 L 150.46504650465045,196.2975739612555 L 154.36543654365437,197.95657049063811 L 155.8155815581558,200.30468865530273 L 157.5157515751575,202.26996146703289 L 159.01590159015902,204.72017172581334 L 160.06600660066005,207.60427338458618 L 159.76597659765974,213.37247670213185 L 160.56605660566055,216.026871149144 L 161.6161616161616,218.4515583843955 z" /><path fill-rule="evenodd" fill="#D2EBD9" stroke="#A6A6A6" stroke-width="0.25" opacity="1" d="M 237.67376737673766,189.55949574960923 L 236.2236223622362,190.37623250253606 L 228.2228222822282,197.98209351416708 L 224.5224522452245,200.55991889059234 L 223.87238723872386,201.60636285527983 L 224.07240724072406,203.26535938466245 L 224.62246224622461,204.949878937574 L 224.62246224622461,206.30259918460905 L 218.27182718271825,208.67624037280262 L 216.12161216121612,210.10552969042456 L 214.021402140214,212.09632552568368 L 211.92119211921192,213.4745687962477 L 209.07090709070906,214.21473647858764 L 206.12061206120612,214.31682857270349 L 202.6202620262026,213.21933856095808 L 200.3200320032003,213.16829251390013 L 199.019901990199,212.55573994920502 L 197.01970197019702,210.66703620806175 L 195.96959695969596,210.2076217845404 L 194.5194519451945,210.53942109041694 L 189.96899689968996,213.09172344331324 L 187.81878187818782,214.77624299622482 L 185.86858685868586,216.74151580795498 L 181.6181618161816,219.62561746672782 L 176.5176517651765,220.34026212553877 L 163.91639163916392,219.26829513732233 L 161.6161616161616,218.4515583843955 L 160.56605660566055,216.026871149144 L 159.76597659765974,213.37247670213185 L 160.06600660066005,207.60427338458618 L 159.01590159015902,204.72017172581334 L 157.5157515751575,202.26996146703289 L 155.8155815581558,200.30468865530273 L 154.36543654365437,197.95657049063811 L 150.46504650465045,196.2975739612555 L 143.26432643264326,194.94485371422047 L 141.5141514151415,192.64778159661378 L 142.8142814281428,190.93773902017324 L 143.46434643464346,188.8193280672693 L 143.86438643864386,186.42016385554678 L 144.56445644564457,184.2507068555849 L 144.96449644964497,182.05572683209408 L 143.8143814381438,180.49882239682734 L 142.86428642864286,179.8862698321322 L 142.06420642064205,179.04401005567644 L 142.014201420142,177.946520043931 L 142.56425642564255,177.00216817335937 L 143.36433643364336,172.33145486755913 L 143.26432643264326,169.7025834440759 L 143.56435643564356,167.2268501617665 L 145.66456645664564,163.62810384418268 L 146.16461646164615,159.23814379720102 L 145.5145514551455,157.42600912664466 L 144.16441644164416,156.60927237371783 L 142.6142614261426,155.33312119726966 L 141.3141314131413,153.4444174561264 L 135.46354635463547,147.7527832091676 L 128.8128812881288,143.84776060923625 L 125.1125112511251,142.62265547984603 L 122.46224622462246,139.27913939755186 L 119.66196619661966,137.49252775052443 L 116.66166616661666,136.03771540937353 L 116.9116911691169,134.37871887999094 L 117.21172117211721,133.66407422117996 L 119.2119211921192,131.64775536239188 L 120.01200120012001,130.29503511535682 L 123.96239623962396,116.48707938618777 L 124.56245624562456,111.94398119803233 L 124.71247124712471,108.4983730216223 L 125.06250625062505,106.58414625695006 L 126.61266126612661,105.07828786874124 L 128.86288628862886,101.12221922175196 L 130.51305130513052,103.75109064523517 L 130.81308130813082,105.6653174099074 L 131.86318631863185,108.47284999809334 L 136.56365636563655,109.34063279807809 L 141.3141314131413,109.51929396278084 L 150.56505650565055,111.07619839804758 L 154.66546654665467,110.05527745688906 L 158.46584658465846,107.5284981275217 L 163.21632163216321,106.9159455628266 L 167.16671667166716,104.8996267040385 L 170.1170117011701,105.25694903344399 L 171.66716671667166,108.37075790397749 L 171.56715671567156,113.65402377447286 L 172.3172317231723,117.83979963322281 L 173.71737173717372,119.49879616260542 L 174.56745674567455,122.10214456255966 L 177.76777677767777,127.48750252717088 L 183.01830183018302,133.5109360800062 L 184.018401840184,135.91010029172872 L 184.06840684068405,138.84524799755948 L 184.8184818481848,140.4276754563552 L 185.96859685968596,141.42307337398475 L 187.11871187118712,144.91972759745272 L 189.36893689368935,147.24232273858834 L 193.1193119311931,147.497552973878 L 194.46944694469445,147.85487530328348 L 195.86958695869586,147.93144437387036 L 190.2190219021902,159.26366682072998 L 192.21922192219222,163.50048872653787 L 188.8188818881888,166.97161992647685 L 180.46804680468045,171.718902302864 L 176.36763676367636,175.2666025733899 L 178.21782178217822,178.7887798203868 L 180.56805680568056,180.11597704389288 L 183.36833683368337,180.32016123212458 L 184.26842684268425,180.54986844388526 L 185.06850685068505,181.18794403210933 L 185.8185818581858,183.05112474972364 L 186.76867686768676,184.76116732616416 L 188.6188618861886,184.71012127910623 L 190.46904690469046,183.84233847912148 L 201.07010701070107,181.23899007916725 L 205.4205420542054,181.08585193799348 L 207.4207420742074,181.9791577615072 L 208.3208320832083,182.74484846737607 L 209.3209320932093,183.22978591442637 L 217.4217421742174,179.57999354978466 L 222.8222822282228,180.29463820859561 L 227.4227422742274,178.5080265615682 L 229.52295229522952,178.15070423216272 L 230.87308730873087,180.26911518506665 L 231.07310731073105,183.45949312618706 L 232.7232723272327,184.99087453792484 L 235.27352735273527,188.58962085550863 L 237.67376737673766,189.55949574960923 z" /><path fill-rule="evenodd" fill="#D2EBD9" stroke="#A6A6A6" stroke-width="0.25" opacity="1" d="M 292.3292329232923,152.1937893032072 L 291.87918791879184,147.08918459741457 L 287.8787878787879,144.2306059621707 L 286.27862786278627,141.26993523281098 L 284.8284828482848,140.60633662105795 L 274.47744774477445,139.76407684460216 L 268.4268426842684,134.86365632704124 L 271.02710271027104,133.25570584471654 L 273.9273927392739,132.7962914211952 L 276.1276127612761,133.33227491530343 L 278.1778177817782,134.4808109741068 L 280.52805280528054,134.78708725645433 L 282.2282228222822,132.77076839766625 L 281.3281328132813,129.52934440948792 L 281.27812781278124,126.21135135072272 L 275.57755775577556,124.65444691545598 L 270.52705270527053,121.05570059787217 L 269.92699269926993,118.06950684498348 L 270.3770377037704,114.87912890386309 L 269.97699769977,112.25025748037989 L 267.9267926792679,110.33603071570765 L 266.9266926692669,107.42640603340585 L 265.5265526552655,104.82305763345161 L 263.1263126312631,103.01092296289524 L 261.0761076107611,100.91803503352025 L 260.7760776077608,96.68121312771237 L 259.6259625962596,93.08246681012857 L 256.9256925692569,90.68330259840603 L 256.37563756375636,86.80380302200363 L 258.47584758475847,86.93141813964846 L 263.3263326332633,85.75735905731615 L 265.9265926592659,84.50673090439696 L 266.6266626662666,83.12848763383295 L 267.026702670267,81.4950141279793 L 268.026802680268,80.65275435152353 L 268.7768776877688,79.50421829272018 L 271.32713271327134,77.30923826922935 L 273.6273627362736,76.9263929162949 L 274.7274727472747,74.27199846928274 L 277.1277127712771,73.35316962224006 L 279.72797279727973,71.8728342575602 L 282.5282528252825,72.28120263402361 L 287.5287528752875,72.38329472813946 L 290.67906790679064,68.55484119879499 L 307.93079307930793,66.84479862235446 L 310.2310231023102,67.61048932822335 L 312.58125812581255,68.01885770468677 L 316.0816081608161,67.15107490470201 L 319.68196819681964,67.7891504929261 L 324.18241824182417,69.98413051641693 L 325.5325532553255,69.32053190466388 L 326.73267326732673,67.86571956351298 L 328.4828482848285,67.17659792823099 L 333.68336833683367,67.3042130458758 L 334.8834883488349,69.933084469359 L 334.8334833483348,72.48538682225532 L 336.2836283628363,74.22095242222481 L 336.03360336033603,78.04940595156928 L 338.13381338133814,80.06572481035737 L 340.88408840884085,80.19333992800219 L 341.88418841884186,83.02639553971709 L 339.8339833983398,86.16572743377957 L 337.3837383738374,89.07535211608136 L 336.83368336833684,92.67409843366516 L 335.8835883588359,95.78790730419867 L 333.3333333333333,97.2171966218206 L 327.982798279828,98.41677872768187 L 325.4325432543254,98.51887082179772 L 323.28232823282326,96.88539731594408 L 321.1321132113211,94.869078457156 L 320.7320732073207,97.44690383358126 L 318.6818681868187,98.56991686885564 L 318.3818381838184,100.22891339823825 L 319.03190319031904,102.21970923349737 L 319.18191819181914,107.40088300987689 L 320.3320332033203,112.30130352743781 L 322.18221822182215,113.75611586858871 L 323.38233823382336,116.30841822148503 L 324.88248824882487,117.48247730381733 L 326.1826182618262,119.24356592731579 L 325.5825582558256,122.40842084490721 L 324.3324332433243,125.06281529191938 L 324.58245824582457,128.22767020951082 L 324.4324432443244,131.26491000945742 L 323.38233823382336,132.64315328002144 L 322.38223822382236,133.638551197651 L 321.9321932193219,136.8289291387714 L 321.38213821382135,137.84985007992992 L 320.5320532053205,138.36031055050918 L 321.68216821682165,141.98457989162193 L 324.08240824082407,144.97077364451064 L 322.9322932293229,146.62977017389323 L 321.6321632163216,147.7527832091676 L 319.18191819181914,152.1937893032072 L 315.6315631563156,153.18918722083677 L 314.08140814081406,155.28207515021174 L 313.031303130313,158.29379192662938 L 310.38103810381034,157.50257819723154 L 303.28032803280325,157.170778891355 L 300.03000300030004,155.63939747961723 L 299.02990299029904,154.54190746787182 L 297.1797179717972,151.96408209144653 L 296.07960796079607,150.99420719734593 L 294.67946794679466,150.79002300911424 L 293.27932793279325,151.47914464439623 L 292.3292329232923,152.1937893032072 z" /><path fill-rule="evenodd" fill="#D2EBD9" stroke="#A6A6A6" stroke-width="0.25" opacity="1" d="M 292.3292329232923,152.1937893032072 L 290.6290629062906,153.52098652671327 L 287.6287628762876,154.31220025611114 L 283.97839783978395,154.59295351492975 L 280.62806280628064,155.48625933844343 L 278.4778477847785,158.1406537854556 L 278.7278727872787,161.1268475383443 L 280.82808280828084,163.16868942066134 L 283.4283428342834,165.0573931618046 L 285.1285128512851,167.50760342058507 L 284.27842784278425,170.46827414994482 L 280.978097809781,172.15279370285637 L 274.027402740274,173.8628362792969 L 272.67726772677264,174.73061907928167 L 269.5769576957696,178.40593446745234 L 268.3268326832683,179.52894750272674 L 263.17631763176314,182.03020380856512 L 239.12391239123912,188.79380504374035 L 237.67376737673766,189.55949574960923 L 235.27352735273527,188.58962085550863 L 232.7232723272327,184.99087453792484 L 231.07310731073105,183.45949312618706 L 230.87308730873087,180.26911518506665 L 229.52295229522952,178.15070423216272 L 227.4227422742274,178.5080265615682 L 222.8222822282228,180.29463820859561 L 217.4217421742174,179.57999354978466 L 209.3209320932093,183.22978591442637 L 208.3208320832083,182.74484846737607 L 207.4207420742074,181.9791577615072 L 205.4205420542054,181.08585193799348 L 201.07010701070107,181.23899007916725 L 190.46904690469046,183.84233847912148 L 188.6188618861886,184.71012127910623 L 186.76867686768676,184.76116732616416 L 185.8185818581858,183.05112474972364 L 185.06850685068505,181.18794403210933 L 184.26842684268425,180.54986844388526 L 183.36833683368337,180.32016123212458 L 180.56805680568056,180.11597704389288 L 178.21782178217822,178.7887798203868 L 176.36763676367636,175.2666025733899 L 180.46804680468045,171.718902302864 L 188.8188818881888,166.97161992647685 L 192.21922192219222,163.50048872653787 L 190.2190219021902,159.26366682072998 L 195.86958695869586,147.93144437387036 L 196.51965196519652,145.6088492327347 L 196.56965696569657,143.03102385630945 L 197.16971697169717,141.14232011516617 L 197.21972197219722,138.9728631152043 L 205.17051705170516,141.65278058574543 L 207.07070707070707,140.86156685634757 L 209.020902090209,140.7084287151738 L 210.67106710671067,142.3674252445564 L 212.5212521252125,142.44399431514327 L 216.62166216621662,139.81512289166008 L 220.42204220422042,136.26742262113422 L 221.37213721372137,133.10256770354277 L 223.2223222322232,131.59670931533395 L 224.82248224822482,131.31595605651535 L 228.37283728372836,129.29963719772726 L 233.67336733673366,129.78457464477756 L 236.8236823682368,131.0862488447547 L 239.47394739473947,133.74064329176684 L 246.5246524652465,137.46700472699547 L 254.42544254425442,136.59922192701072 L 262.026202620262,137.21177449170582 L 268.4268426842684,134.86365632704124 L 274.47744774477445,139.76407684460216 L 284.8284828482848,140.60633662105795 L 286.27862786278627,141.26993523281098 L 287.8787878787879,144.2306059621707 L 291.87918791879184,147.08918459741457 L 292.3292329232923,152.1937893032072 z" /><path fill-rule="evenodd" fill="#D2EBD9" stroke="#A6A6A6" stroke-width="0.25" opacity="1" d="M 396.1396139613961,151.5557137149831 L 395.58955895589554,152.8829109384892 L 394.73947394739474,154.23563118552426 L 387.4387438743874,163.19421244419033 L 385.2885288528853,165.0573931618046 L 382.8382838283828,165.9762220088473 L 381.4381438143814,165.79756084414456 L 378.68786878687865,164.5724557147543 L 377.28772877287724,164.3172254794647 L 375.8875887588759,164.59797873828327 L 374.5874587458746,165.26157735003633 L 366.43664366436644,171.13187276169785 L 363.1863186318632,171.79547137345088 L 361.28612861286126,169.2176459970256 L 360.8360836083608,167.55864946764302 L 358.68586858685865,162.88793616184276 L 357.48574857485744,157.29839400899982 L 356.7856785678568,156.58374935018887 L 355.8855885588559,157.55362424428947 L 354.035403540354,163.4749657030089 L 353.1353135313531,164.82768595004396 L 350.9350935093509,167.20132713823753 L 349.78497849784975,168.14567900880917 L 346.7846784678468,169.83019856172072 L 343.9343934393439,170.72350438523443 L 340.78407840784075,171.13187276169785 L 337.03370337033704,170.85111950287924 L 334.8834883488349,170.23856693818414 L 329.08290829082904,167.12475806765065 L 326.032603260326,166.12936015002109 L 319.4319431943194,166.00174503237625 L 317.6817681768177,163.93438012653024 L 316.3316331633163,161.07580149128637 L 313.88138813881386,158.574545185448 L 313.031303130313,158.29379192662938 L 314.08140814081406,155.28207515021174 L 315.6315631563156,153.18918722083677 L 319.18191819181914,152.1937893032072 L 321.6321632163216,147.7527832091676 L 322.9322932293229,146.62977017389323 L 324.08240824082407,144.97077364451064 L 321.68216821682165,141.98457989162193 L 320.5320532053205,138.36031055050918 L 321.38213821382135,137.84985007992992 L 321.9321932193219,136.8289291387714 L 322.38223822382236,133.638551197651 L 323.38233823382336,132.64315328002144 L 324.4324432443244,131.26491000945742 L 324.58245824582457,128.22767020951082 L 324.3324332433243,125.06281529191938 L 325.5825582558256,122.40842084490721 L 326.1826182618262,119.24356592731579 L 324.88248824882487,117.48247730381733 L 323.38233823382336,116.30841822148503 L 322.18221822182215,113.75611586858871 L 320.3320332033203,112.30130352743781 L 319.18191819181914,107.40088300987689 L 319.03190319031904,102.21970923349737 L 318.3818381838184,100.22891339823825 L 318.6818681868187,98.56991686885564 L 320.7320732073207,97.44690383358126 L 321.1321132113211,94.869078457156 L 323.28232823282326,96.88539731594408 L 325.4325432543254,98.51887082179772 L 327.982798279828,98.41677872768187 L 333.3333333333333,97.2171966218206 L 335.8835883588359,95.78790730419867 L 336.83368336833684,92.67409843366516 L 337.3837383738374,89.07535211608136 L 339.8339833983398,86.16572743377957 L 341.88418841884186,83.02639553971709 L 340.88408840884085,80.19333992800219 L 338.13381338133814,80.06572481035737 L 336.03360336033603,78.04940595156928 L 336.2836283628363,74.22095242222481 L 334.8334833483348,72.48538682225532 L 334.8834883488349,69.933084469359 L 338.98389838983894,69.37157795172182 L 342.48424842484246,66.87032164588342 L 345.984598459846,63.705466728291995 L 349.88498849884985,65.69626256355112 L 350.8350835083508,67.27869002234684 L 352.2352235223522,67.89124258704194 L 353.7353735373537,71.31132773992302 L 355.8855885588559,71.23475866933612 L 358.035803580358,72.58747891637117 L 359.18591859185915,74.65484382221719 L 361.08610861086106,74.5017056810434 L 365.63656365636564,72.10254146932087 L 367.38673867386734,74.27199846928274 L 368.28682868286825,77.07953105746869 L 369.5369536953695,78.91718875155402 L 371.1371137113711,79.5552643397781 L 374.8874887488749,78.66195851626439 L 378.6378637863786,78.89166572802506 L 377.6377637763776,81.82681343385582 L 375.2875287528753,83.2305797279488 L 377.28772877287724,85.42555975143962 L 379.48794879487946,86.77827999847467 L 383.5883588358836,84.09836252793355 L 389.5389538953895,84.9661453279183 L 386.88868886888685,88.20756931609661 L 383.23832383238323,89.15192118666825 L 381.4381438143814,89.33058235137099 L 379.78797879787976,89.9431349160661 L 379.08790879087906,93.03142076307064 L 380.2380238023802,95.76238428066969 L 378.88788878887885,98.9527622217901 L 378.68786878687865,101.76029480997603 L 377.78777877787775,105.63979438637844 L 378.8378837883788,107.96238952751408 L 379.98799879987996,113.73059284505975 L 381.38813881388137,116.00214193913747 L 382.8882888288829,121.1067466449301 L 384.73847384738474,123.37829573900781 L 386.6386638663866,125.16490738603524 L 388.2388238823882,125.39461459779591 L 389.68896889688966,125.95612111543309 L 390.3390339033903,129.86114371536445 L 389.38893889388936,133.86825840941168 L 390.1390139013901,136.24189959760523 L 391.7891789178918,137.7222349622851 L 392.93929392939293,140.30006033871038 L 392.6892689268927,143.36282316218595 L 393.73937393739374,147.95696739739932 L 396.1396139613961,151.5557137149831 z" /><path fill-rule="evenodd" fill="#D2EBD9" stroke="#A6A6A6" stroke-width="0.25" opacity="1" d="M 396.1396139613961,151.5557137149831 L 393.73937393739374,147.95696739739932 L 392.6892689268927,143.36282316218595 L 392.93929392939293,140.30006033871038 L 391.7891789178918,137.7222349622851 L 390.1390139013901,136.24189959760523 L 389.38893889388936,133.86825840941168 L 390.3390339033903,129.86114371536445 L 389.68896889688966,125.95612111543309 L 388.2388238823882,125.39461459779591 L 386.6386638663866,125.16490738603524 L 384.73847384738474,123.37829573900781 L 382.8882888288829,121.1067466449301 L 381.38813881388137,116.00214193913747 L 379.98799879987996,113.73059284505975 L 378.8378837883788,107.96238952751408 L 377.78777877787775,105.63979438637844 L 378.68786878687865,101.76029480997603 L 378.88788878887885,98.9527622217901 L 380.2380238023802,95.76238428066969 L 379.08790879087906,93.03142076307064 L 379.78797879787976,89.9431349160661 L 381.4381438143814,89.33058235137099 L 383.23832383238323,89.15192118666825 L 386.88868886888685,88.20756931609661 L 389.5389538953895,84.9661453279183 L 383.5883588358836,84.09836252793355 L 379.48794879487946,86.77827999847467 L 377.28772877287724,85.42555975143962 L 375.2875287528753,83.2305797279488 L 377.6377637763776,81.82681343385582 L 378.6378637863786,78.89166572802506 L 380.58805880588056,76.67116268100527 L 382.1882188218822,73.94019916340622 L 384.6884688468847,72.12806449284983 L 387.48874887488745,71.82178821050228 L 388.8388838883888,69.14187073996115 L 389.38893889388936,65.95149279884075 L 390.8390839083908,60.59165785775849 L 388.28882888288825,54.69583942256801 L 388.68886888688866,51.99039892849792 L 389.2389238923892,50.05064914029672 L 390.5390539053905,49.157343316783006 L 392.93929392939293,48.97868215208027 L 395.2895289528953,48.31508354032722 L 396.6396639663966,46.3242877050681 L 397.18971897189715,43.848554422758674 L 398.28982898289826,41.37282114044925 L 398.48984898489846,39.66277856400872 L 402.0902090209021,37.79959784639441 L 403.24032403240324,37.569890634633744 L 404.74047404740475,37.69750575227856 L 407.2407240724072,38.46319645814745 L 408.3408340834083,38.25901226991574 L 409.39093909390937,37.00838411699655 L 411.84118411841183,34.73683502291883 L 422.54225422542254,30.525536140639915 L 427.39273927392736,29.53013822301035 L 429.1429142914291,28.841016587728348 L 429.2429242924292,28.228464023033233 L 428.19281928192817,27.64143448186708 L 426.4426442644264,27.028881917171965 L 424.79247924792475,24.96151701132595 L 426.59265926592656,22.12846139961104 L 429.6429642964296,19.474066952598875 L 434.8434843484348,16.283689011478483 L 445.89458945894586,12.27657431743127 L 449.4949494949495,11.842682917438896 L 451.2951295129513,11.995821058612675 L 452.79527952795274,12.531804552720901 L 456.6456645664566,15.033060858559288 L 458.2958295829583,15.415906211493736 L 463.89638963896385,15.4414292350227 L 465.2465246524652,14.9564917879724 L 466.4466446644664,13.807955729169059 L 468.5968596859686,11.102515235098966 L 472.99729972997295,7.095400541051752 L 474.5474547454745,6.17657169400908 L 478.94789478947894,4.7217593528581805 L 480.1980198019802,3.649792364641729 L 482.29822982298225,0.8167367529268205 L 483.59835983598356,0.0 L 485.2485248524852,0.07656907058688942 L 485.8985898589859,1.097490011745415 L 486.2986298629863,2.6543944470121663 L 487.14871487148713,4.236821905807881 L 488.74887488748874,5.232219823437443 L 490.1990199019902,5.079081682263665 L 491.59915991599155,4.696236329329218 L 493.049304930493,4.925943541089886 L 494.49944994499447,6.967785423406937 L 495.1495149514951,10.15816336452733 L 495.5495549554955,13.552725493879427 L 496.2496249624962,16.207119940891594 L 498.0998099809981,18.37657694085346 L 498.4998499849985,21.54143185844489 L 499.14991499149914,22.307122564313783 L 499.74997499749975,22.205030470197933 L 500.0,22.332645587842748 L 499.54995499549955,23.787457928993646 L 497.1997199719972,27.38620424657745 L 495.7495749574957,28.994154728902128 L 495.2495249524952,29.861937528886873 L 494.6494649464946,30.270305905350284 L 493.49934993499346,29.810891481828946 L 492.29922992299225,32.567378022956966 L 488.64886488648864,34.762358046447794 L 481.39813981398135,37.850643893452336 L 477.8977897789779,41.092067881630655 L 476.3976397639764,41.4749132345651 L 475.49754975497547,41.883281611028515 L 471.59715971597154,44.588722105098604 L 470.34703470347034,46.24771863448121 L 469.64696469646964,48.417175634443076 L 468.94689468946893,53.01131986965644 L 467.2967296729673,56.201697810776835 L 467.1467146714671,56.76320432841402 L 466.09660966096607,56.712158281356096 L 465.59655965596556,55.946467575487205 L 465.2465246524652,55.02763872844453 L 464.59645964596456,54.4916552343363 L 462.59625962596255,56.17617478724787 L 461.64616461646165,60.66822692834538 L 461.5961596159616,65.72178558708008 L 462.29622962296224,69.14187073996115 L 463.7463746374637,70.67325215169893 L 465.3465346534653,70.85191331640168 L 468.84688468846883,70.06069958700382 L 470.3970397039704,70.2138377281776 L 471.59715971597154,70.80086726934375 L 472.69726972697265,71.77074216344435 L 475.89758975897587,75.70128778690467 L 477.4977497749775,78.30463618685891 L 480.34803480348035,84.17493159852043 L 478.4978497849785,86.65066488082986 L 476.6976697669767,87.67158582198839 L 472.2472247224722,88.02890815139386 L 470.14701470147014,88.99878304549446 L 466.89668966896687,92.9293286689548 L 464.9464946494649,94.5117561277505 L 464.19641964196416,94.71594031598221 L 462.9462946294629,94.71594031598221 L 457.8957895789579,93.59292728070783 L 455.59555955595556,93.66949635129473 L 453.79537953795375,94.5117561277505 L 453.29532953295325,96.68121312771237 L 452.59525952595254,97.19167359829163 L 450.1950195019502,96.83435126888615 L 447.8447844784478,98.51887082179772 L 447.2447244724472,98.36573268062394 L 446.2446244624462,97.57451895122608 L 445.69456945694566,97.37033476299437 L 444.29442944294425,97.44690383358126 L 443.29432943294324,98.00841035121846 L 442.4942494249425,99.13142338649283 L 440.3940394039404,104.38916623345924 L 439.3939393939394,105.38456415108881 L 434.19341934193415,106.73728439812385 L 425.99259925992595,112.50548771566952 L 422.992299229923,113.90925400976249 L 420.7420742074207,115.36406635091339 L 419.99199919992,117.712184515578 L 428.59285928592857,140.19796824459453 L 428.79287928792877,142.62265547984603 L 425.7425742574257,146.27244784448774 L 419.9419941994199,148.56951996209443 L 413.6913691369137,149.6925329973688 L 409.39093909390937,149.7691020679557 L 403.3903390339034,147.95696739739932 L 400.2400240024002,147.52307599740695 L 397.7397739773977,148.54399693856547 L 396.98969896989695,149.71805602089776 L 396.1396139613961,151.5557137149831 z" /><path fill-rule="evenodd" fill="#D2EBD9" stroke="#A6A6A6" stroke-width="0.25" opacity="1" d="M 193.8193819381938,53.08788894024333 L 195.6195619561956,53.674918481409485 L 199.36993699369935,54.006717787286 L 209.77097709770976,53.08788894024333 L 211.22112211221122,52.398767304961325 L 210.62106210621062,51.47993845791865 L 209.9209920992099,48.595836799145815 L 209.3209320932093,47.881192140334846 L 207.87078707870785,46.630563987415655 L 207.2207220722072,45.635166069786095 L 209.1209120912091,44.48663001098275 L 210.57105710571057,42.929725575716 L 211.97119711971195,42.47031115219466 L 213.77137713771376,44.588722105098604 L 214.77147714771476,45.22679769332268 L 215.32153215321532,44.588722105098604 L 215.72157215721572,43.33809395217941 L 216.37163716371637,42.21508091690503 L 216.9216921692169,41.883281611028515 L 219.1219121912191,41.14311392868858 L 220.22202220222022,39.866962752240426 L 220.92209220922092,39.611732516950795 L 221.47214721472147,38.94813390519775 L 223.7223722372237,34.73683502291883 L 224.77247724772477,33.537252917057565 L 230.27302730273027,29.785368458299985 L 233.87338733873386,26.620513540708554 L 236.17361736173615,25.52302352896314 L 238.3238323832383,25.242270270144544 L 238.4238423842384,24.731809799565283 L 237.4237423742374,23.27699745841438 L 236.37363736373635,22.332645587842748 L 232.3232323232323,20.26528068199673 L 234.32343234323432,19.60168207024369 L 235.97359735973595,19.805866258475398 L 237.47374737473746,19.627205093772655 L 238.97389738973897,17.89163949380316 L 240.7240724072407,13.5016794468215 L 241.8241824182418,12.710465717423643 L 248.67486748674867,14.62469248209588 L 250.8250825082508,14.777830623269658 L 253.17531753175317,14.165278058574543 L 255.2255225522552,12.965695952713276 L 257.2257225722572,11.076992211570003 L 258.3258325832583,8.754397070434356 L 257.47574757475746,6.17657169400908 L 258.9258925892589,5.972387505777375 L 259.6759675967597,6.125525646951154 L 263.67636763676364,7.784522176333757 L 266.87668766876686,7.9121372939785735 L 279.02790279027903,6.17657169400908 L 280.82808280828084,6.329709835182858 L 282.27822782278224,6.967785423406937 L 285.77857785778576,10.030548246882514 L 288.978897889789,11.357745470388597 L 295.87958795879587,11.510883611562376 L 297.5297529752975,11.919251988025787 L 296.7296729672967,17.07490274087634 L 295.97959795979597,18.657330199672057 L 294.97949794979496,20.08661951729399 L 294.47944794479446,24.451056540746688 L 295.5295529552955,28.841016587728348 L 295.2295229522952,30.959427540632287 L 294.47944794479446,32.87365430530453 L 292.9292929292929,33.86905222293409 L 292.3292329232923,36.14060131701181 L 292.3292329232923,38.310058316973674 L 291.77917791779174,41.832235563970585 L 291.07910791079104,42.41926510513674 L 289.72897289728974,45.30336676390957 L 287.7787778777878,47.370731669755585 L 284.2284228422842,47.57491585798729 L 280.62806280628064,46.68161003447358 L 277.37773777377737,46.55399491682876 L 274.77747774777475,47.03893236387906 L 275.27752775277526,48.62135982267478 L 276.3276327632763,49.48914262265953 L 277.07770777077707,51.913829857911026 L 277.57775777577757,61.89333205773561 L 279.2779277927793,65.00714092826911 L 282.57825782578254,64.47115743416089 L 287.028702870287,64.64981859886363 L 290.67906790679064,68.55484119879499 L 287.5287528752875,72.38329472813946 L 282.5282528252825,72.28120263402361 L 279.72797279727973,71.8728342575602 L 277.1277127712771,73.35316962224006 L 274.7274727472747,74.27199846928274 L 273.6273627362736,76.9263929162949 L 271.32713271327134,77.30923826922935 L 268.7768776877688,79.50421829272018 L 268.026802680268,80.65275435152353 L 267.026702670267,81.4950141279793 L 266.6266626662666,83.12848763383295 L 265.9265926592659,84.50673090439696 L 263.3263326332633,85.75735905731615 L 258.47584758475847,86.93141813964846 L 256.37563756375636,86.80380302200363 L 234.12341234123411,77.66656059863483 L 232.87328732873286,77.87074478686654 L 231.6231623162316,78.33015921038788 L 223.97239723972396,77.64103757510587 L 220.77207720772077,76.3138403515998 L 217.4217421742174,76.36488639865772 L 211.02110211021102,77.74312966922172 L 203.1203120312031,75.72681081043363 L 198.5198519851985,78.48329735156166 L 196.61966196619662,78.43225130450372 L 194.9194919491949,77.28371524570039 L 194.26942694269425,75.52262662220193 L 193.019301930193,74.5017056810434 L 191.36913691369136,74.782458939862 L 189.66896689668965,75.39501150455712 L 186.018601860186,74.9866431280937 L 187.06870687068707,71.89835728108916 L 187.01870187018702,68.42722608115018 L 186.1186118611861,67.12555188117305 L 185.96859685968596,65.23684814002978 L 186.46864686468646,63.80755882240785 L 187.21872187218722,62.58245369301762 L 189.16891689168915,60.744795998932275 L 190.86908690869086,58.702954116615224 L 193.06930693069305,55.180776869618306 L 193.8193819381938,53.08788894024333 z" /><path fill-rule="evenodd" fill="#D2EBD9" stroke="#A6A6A6" stroke-width="0.25" opacity="1" d="M 133.26332633263326,85.40003672791066 L 133.26332633263326,77.28371524570039 L 133.1133113311331,76.39040942218668 L 131.013101310131,72.99584729283458 L 130.71307130713072,70.11174563406175 L 127.21272127212721,64.36906534004504 L 125.96259625962595,61.35734856362739 L 121.46214621462146,58.422200857796625 L 119.26192619261926,55.43600710490794 L 114.36143614361436,46.630563987415655 L 122.31223122312231,43.26152488159252 L 123.26232623262325,43.08286371688978 L 125.5125512551255,43.26152488159252 L 127.36273627362736,44.12930768157727 L 127.96279627962795,44.12930768157727 L 128.06280628062805,43.72093930511386 L 127.96279627962795,42.16403486984711 L 128.26282628262825,41.55148230515199 L 129.1129112911291,41.19415997574651 L 131.3131313131313,40.91340671692791 L 132.3132313231323,40.581607411051394 L 135.26352635263527,37.825120869923374 L 136.16361636163614,37.44227551698893 L 136.86368636863685,37.850643893452336 L 139.86398639863987,40.40294624634865 L 142.2142214221422,43.77198535217178 L 143.2143214321432,44.56319908156964 L 146.2146214621462,45.76278118743091 L 151.56515651565155,43.72093930511386 L 154.21542154215422,44.56319908156964 L 155.26552655265525,45.073659552148904 L 156.3156315631563,45.22679769332268 L 157.36573657365736,45.04813652861994 L 158.41584158415841,44.56319908156964 L 160.76607660766075,45.22679769332268 L 161.9161916191619,45.20127466979372 L 162.96629662966296,44.56319908156964 L 164.21642164216422,43.38913999923734 L 166.016601660166,43.23600185806356 L 169.66696669666965,43.44018604629527 L 182.71827182718272,38.335581340502635 L 184.6184618461846,38.43767343461849 L 186.16861686168616,39.45859437577701 L 188.4188418841884,42.853156505129114 L 190.01900190019,44.56319908156964 L 190.76907690769076,46.17114956389432 L 191.46914691469146,50.22931030499946 L 192.21922192219222,51.888306834382064 L 193.8193819381938,53.08788894024333 L 193.06930693069305,55.180776869618306 L 190.86908690869086,58.702954116615224 L 189.16891689168915,60.744795998932275 L 187.21872187218722,62.58245369301762 L 186.46864686468646,63.80755882240785 L 185.96859685968596,65.23684814002978 L 186.1186118611861,67.12555188117305 L 187.01870187018702,68.42722608115018 L 187.06870687068707,71.89835728108916 L 186.018601860186,74.9866431280937 L 184.1184118411841,75.19082731632541 L 183.16831683168317,75.67576476337571 L 180.3180318031803,78.61091246920647 L 178.66786678667864,78.99375782214092 L 176.6176617661766,78.3812052574458 L 172.61726172617261,75.85442592807846 L 167.2167216721672,74.9866431280937 L 165.06650665066505,75.54814964573089 L 161.3161316131613,77.58999152804795 L 157.7157715771577,77.15610012805557 L 155.76557655765575,76.4414554692446 L 154.8154815481548,76.26279430454186 L 152.5152515251525,78.07492897509825 L 150.16501650165014,79.42764922213328 L 146.5146514651465,80.95903063387108 L 146.1146114611461,83.05191856324606 L 143.014301430143,84.91509928086036 L 133.26332633263326,85.40003672791066 z" /><path fill-rule="evenodd" fill="#D2EBD9" stroke="#A6A6A6" stroke-width="0.25" opacity="1" d="M 297.5297529752975,11.919251988025787 L 299.22992299229924,12.327620364489196 L 302.2302230223022,13.705863635053205 L 303.7303730373037,13.859001776226984 L 306.8806880688069,12.965695952713276 L 308.43084308430844,13.24644921153187 L 309.9309930993099,14.037662940929726 L 311.08110811081104,15.21172202326203 L 311.48114811481145,16.18159691736263 L 311.7311731173117,17.764024376158346 L 312.58125812581255,18.37657694085346 L 313.38133813381336,18.402099964382423 L 315.4315431543154,17.55984018792664 L 319.03190319031904,15.058583882088252 L 320.38203820382034,14.522600387980026 L 322.1322132213221,14.803353646798621 L 323.98239823982397,16.436827152652263 L 324.88248824882487,16.74310343499982 L 325.7825782578258,16.615488317355005 L 329.78297829782974,14.216324105632468 L 331.38313831383135,13.603771540937354 L 333.08330833083306,13.5016794468215 L 334.8834883488349,14.012139917400763 L 336.8836883688369,16.07950482324678 L 337.6837683768377,16.10502784677574 L 338.7338733873387,13.57824851740839 L 340.28402840284025,13.144357117416018 L 341.38413841384136,14.13975503504558 L 343.2343234323432,16.99833367028945 L 344.8344834483448,17.71297832910042 L 346.33463346334634,17.508794140868712 L 349.48494849484945,16.25816598794952 L 360.38603860386036,16.028458776188852 L 362.3362336233623,16.309212035007445 L 363.0863086308631,17.33013297616597 L 362.28622862286227,18.478669034969315 L 359.48594859485945,19.83138928200436 L 358.88588858885885,21.20963255256837 L 360.3360336033603,22.689967917248232 L 367.5367536753675,21.54143185844489 L 370.3370337033703,21.64352395256074 L 373.8873887388739,24.40001049368876 L 392.2892289228923,39.68830158753768 L 394.6894689468947,40.53056136399346 L 397.1397139713971,40.40294624634865 L 398.48984898489846,39.66277856400872 L 398.28982898289826,41.37282114044925 L 397.18971897189715,43.848554422758674 L 396.6396639663966,46.3242877050681 L 395.2895289528953,48.31508354032722 L 392.93929392939293,48.97868215208027 L 390.5390539053905,49.157343316783006 L 389.2389238923892,50.05064914029672 L 388.68886888688866,51.99039892849792 L 388.28882888288825,54.69583942256801 L 390.8390839083908,60.59165785775849 L 389.38893889388936,65.95149279884075 L 388.8388838883888,69.14187073996115 L 387.48874887488745,71.82178821050228 L 384.6884688468847,72.12806449284983 L 382.1882188218822,73.94019916340622 L 380.58805880588056,76.67116268100527 L 378.6378637863786,78.89166572802506 L 374.8874887488749,78.66195851626439 L 371.1371137113711,79.5552643397781 L 369.5369536953695,78.91718875155402 L 368.28682868286825,77.07953105746869 L 367.38673867386734,74.27199846928274 L 365.63656365636564,72.10254146932087 L 363.4863486348635,70.00965353994589 L 363.2863286328633,68.29961096350536 L 364.73647364736473,66.97241373999928 L 365.5865586558656,63.475759516531326 L 366.73667366736674,62.480361598901766 L 368.036803680368,61.81676298714872 L 369.78697869786976,61.38287158715635 L 371.48714871487147,61.81676298714872 L 372.4372437243724,63.220529281241696 L 373.6873687368737,64.16488115181333 L 374.3874387438744,61.714670893032874 L 372.2372237223722,58.60086202249937 L 369.4369436943694,57.65651015192773 L 366.5866586658666,57.83517131663047 L 364.43644364436443,58.907138304846924 L 362.6362636263626,59.36655272836826 L 360.78607860786076,59.51969086954204 L 354.6854685468547,62.659022763604504 L 352.48524852485247,62.53140764595969 L 351.48514851485146,63.9096509165237 L 351.2351235123512,65.31341721061668 L 349.88498849884985,65.69626256355112 L 345.984598459846,63.705466728291995 L 342.48424842484246,66.87032164588342 L 338.98389838983894,69.37157795172182 L 334.8834883488349,69.933084469359 L 333.68336833683367,67.3042130458758 L 328.4828482848285,67.17659792823099 L 326.73267326732673,67.86571956351298 L 325.5325532553255,69.32053190466388 L 324.18241824182417,69.98413051641693 L 319.68196819681964,67.7891504929261 L 316.0816081608161,67.15107490470201 L 312.58125812581255,68.01885770468677 L 310.2310231023102,67.61048932822335 L 307.93079307930793,66.84479862235446 L 290.67906790679064,68.55484119879499 L 287.028702870287,64.64981859886363 L 282.57825782578254,64.47115743416089 L 279.2779277927793,65.00714092826911 L 277.57775777577757,61.89333205773561 L 277.07770777077707,51.913829857911026 L 276.3276327632763,49.48914262265953 L 275.27752775277526,48.62135982267478 L 274.77747774777475,47.03893236387906 L 277.37773777377737,46.55399491682876 L 280.62806280628064,46.68161003447358 L 284.2284228422842,47.57491585798729 L 287.7787778777878,47.370731669755585 L 289.72897289728974,45.30336676390957 L 291.07910791079104,42.41926510513674 L 291.77917791779174,41.832235563970585 L 292.3292329232923,38.310058316973674 L 292.3292329232923,36.14060131701181 L 292.9292929292929,33.86905222293409 L 294.47944794479446,32.87365430530453 L 295.2295229522952,30.959427540632287 L 295.5295529552955,28.841016587728348 L 294.47944794479446,24.451056540746688 L 294.97949794979496,20.08661951729399 L 295.97959795979597,18.657330199672057 L 296.7296729672967,17.07490274087634 L 297.5297529752975,11.919251988025787 z" /><path fill-rule="evenodd" fill="#D2EBD9" stroke="#A6A6A6" stroke-width="0.25" opacity="1" d="M 186.018601860186,74.9866431280937 L 189.66896689668965,75.39501150455712 L 191.36913691369136,74.782458939862 L 193.019301930193,74.5017056810434 L 194.26942694269425,75.52262662220193 L 194.9194919491949,77.28371524570039 L 196.61966196619662,78.43225130450372 L 198.5198519851985,78.48329735156166 L 198.36983698369835,83.53685601029636 L 197.21972197219722,87.8757700102201 L 194.96949694969496,88.51384559844416 L 192.61926192619262,88.33518443374143 L 187.61876187618762,90.93853283369566 L 185.7185718571857,92.39334517484656 L 183.06830683068307,93.18455890424443 L 180.9180918091809,94.46071008069258 L 179.96799679967995,97.39585778652334 L 178.46784678467847,99.79502199824587 L 175.8175817581758,100.43309758646996 L 173.56735673567357,98.9527622217901 L 172.3172317231723,98.56991686885564 L 170.96709670967095,98.97828524531906 L 167.26672667266726,99.61636083354314 L 165.46654665466545,102.2707552805553 L 167.16671667166716,104.8996267040385 L 163.21632163216321,106.9159455628266 L 158.46584658465846,107.5284981275217 L 154.66546654665467,110.05527745688906 L 150.56505650565055,111.07619839804758 L 141.3141314131413,109.51929396278084 L 136.56365636563655,109.34063279807809 L 131.86318631863185,108.47284999809334 L 130.81308130813082,105.6653174099074 L 130.51305130513052,103.75109064523517 L 128.86288628862886,101.12221922175196 L 131.9131913191319,95.78790730419867 L 132.2132213221322,94.40966403363466 L 132.36323632363235,92.13811493955693 L 133.26332633263326,85.40003672791066 L 143.014301430143,84.91509928086036 L 146.1146114611461,83.05191856324606 L 146.5146514651465,80.95903063387108 L 150.16501650165014,79.42764922213328 L 152.5152515251525,78.07492897509825 L 154.8154815481548,76.26279430454186 L 155.76557655765575,76.4414554692446 L 157.7157715771577,77.15610012805557 L 161.3161316131613,77.58999152804795 L 165.06650665066505,75.54814964573089 L 167.2167216721672,74.9866431280937 L 172.61726172617261,75.85442592807846 L 176.6176617661766,78.3812052574458 L 178.66786678667864,78.99375782214092 L 180.3180318031803,78.61091246920647 L 183.16831683168317,75.67576476337571 L 184.1184118411841,75.19082731632541 L 186.018601860186,74.9866431280937 z" /><path fill-rule="evenodd" fill="#D2EBD9" stroke="#A6A6A6" stroke-width="0.25" opacity="1" d="M 365.63656365636564,72.10254146932087 L 361.08610861086106,74.5017056810434 L 359.18591859185915,74.65484382221719 L 358.035803580358,72.58747891637117 L 355.8855885588559,71.23475866933612 L 353.7353735373537,71.31132773992302 L 352.2352235223522,67.89124258704194 L 350.8350835083508,67.27869002234684 L 349.88498849884985,65.69626256355112 L 351.2351235123512,65.31341721061668 L 351.48514851485146,63.9096509165237 L 352.48524852485247,62.53140764595969 L 354.6854685468547,62.659022763604504 L 360.78607860786076,59.51969086954204 L 362.6362636263626,59.36655272836826 L 364.43644364436443,58.907138304846924 L 366.5866586658666,57.83517131663047 L 369.4369436943694,57.65651015192773 L 372.2372237223722,58.60086202249937 L 374.3874387438744,61.714670893032874 L 373.6873687368737,64.16488115181333 L 372.4372437243724,63.220529281241696 L 371.48714871487147,61.81676298714872 L 369.78697869786976,61.38287158715635 L 368.036803680368,61.81676298714872 L 366.73667366736674,62.480361598901766 L 365.5865586558656,63.475759516531326 L 364.73647364736473,66.97241373999928 L 363.2863286328633,68.29961096350536 L 363.4863486348635,70.00965353994589 L 365.63656365636564,72.10254146932087 z" /><path fill-rule="evenodd" fill="#D2EBD9" stroke="#A6A6A6" stroke-width="0.25" opacity="1" d="M 256.37563756375636,86.80380302200363 L 256.9256925692569,90.68330259840603 L 259.6259625962596,93.08246681012857 L 260.7760776077608,96.68121312771237 L 261.0761076107611,100.91803503352025 L 263.1263126312631,103.01092296289524 L 265.5265526552655,104.82305763345161 L 266.9266926692669,107.42640603340585 L 267.9267926792679,110.33603071570765 L 269.97699769977,112.25025748037989 L 270.3770377037704,114.87912890386309 L 269.92699269926993,118.06950684498348 L 270.52705270527053,121.05570059787217 L 275.57755775577556,124.65444691545598 L 281.27812781278124,126.21135135072272 L 281.3281328132813,129.52934440948792 L 282.2282228222822,132.77076839766625 L 280.52805280528054,134.78708725645433 L 278.1778177817782,134.4808109741068 L 276.1276127612761,133.33227491530343 L 273.9273927392739,132.7962914211952 L 271.02710271027104,133.25570584471654 L 268.4268426842684,134.86365632704124 L 262.026202620262,137.21177449170582 L 254.42544254425442,136.59922192701072 L 246.5246524652465,137.46700472699547 L 239.47394739473947,133.74064329176684 L 236.8236823682368,131.0862488447547 L 233.67336733673366,129.78457464477756 L 228.37283728372836,129.29963719772726 L 224.82248224822482,131.31595605651535 L 223.2223222322232,131.59670931533395 L 221.37213721372137,133.10256770354277 L 220.42204220422042,136.26742262113422 L 216.62166216621662,139.81512289166008 L 212.5212521252125,142.44399431514327 L 210.67106710671067,142.3674252445564 L 209.020902090209,140.7084287151738 L 207.07070707070707,140.86156685634757 L 205.17051705170516,141.65278058574543 L 197.21972197219722,138.9728631152043 L 197.16971697169717,141.14232011516617 L 196.56965696569657,143.03102385630945 L 196.51965196519652,145.6088492327347 L 195.86958695869586,147.93144437387036 L 194.46944694469445,147.85487530328348 L 193.1193119311931,147.497552973878 L 189.36893689368935,147.24232273858834 L 187.11871187118712,144.91972759745272 L 185.96859685968596,141.42307337398475 L 184.8184818481848,140.4276754563552 L 184.06840684068405,138.84524799755948 L 184.018401840184,135.91010029172872 L 183.01830183018302,133.5109360800062 L 177.76777677767777,127.48750252717088 L 174.56745674567455,122.10214456255966 L 173.71737173717372,119.49879616260542 L 172.3172317231723,117.83979963322281 L 171.56715671567156,113.65402377447286 L 171.66716671667166,108.37075790397749 L 170.1170117011701,105.25694903344399 L 167.16671667166716,104.8996267040385 L 165.46654665466545,102.2707552805553 L 167.26672667266726,99.61636083354314 L 170.96709670967095,98.97828524531906 L 172.3172317231723,98.56991686885564 L 173.56735673567357,98.9527622217901 L 175.8175817581758,100.43309758646996 L 178.46784678467847,99.79502199824587 L 179.96799679967995,97.39585778652334 L 180.9180918091809,94.46071008069258 L 183.06830683068307,93.18455890424443 L 185.7185718571857,92.39334517484656 L 187.61876187618762,90.93853283369566 L 192.61926192619262,88.33518443374143 L 194.96949694969496,88.51384559844416 L 197.21972197219722,87.8757700102201 L 198.36983698369835,83.53685601029636 L 198.5198519851985,78.48329735156166 L 203.1203120312031,75.72681081043363 L 211.02110211021102,77.74312966922172 L 217.4217421742174,76.36488639865772 L 220.77207720772077,76.3138403515998 L 223.97239723972396,77.64103757510587 L 231.6231623162316,78.33015921038788 L 232.87328732873286,77.87074478686654 L 234.12341234123411,77.66656059863483 L 256.37563756375636,86.80380302200363 z" /></g></g></g></svg>