<svg xmlns="http://www.w3.org/2000/svg" xmlns:xlink="http://www.w3.org/1999/xlink" width="500.0" height="128.90250166878104" viewBox="0.0 0.0 500.0 128.90250166878104" preserveAspectRatio="xMinYMin meet"><g transform="matrix(1,0,0,-1,0,128.90250166878104)"><g><g><path fill-rule="evenodd" fill="#D2EBD9" stroke="#A6A6A6" stroke-width="0.25" opacity="1" d="M 393.13931393139313,77.06562205980329 L 391.7891789178918,78.03248750886405 L 390.1390139013901,79.8759776317399 L 389.038903890389,82.17067163084411 L 386.8386838683868,89.58330674030996 L 385.23852385238524,92.85775772779576 L 382.988298829883,95.68100483905319 L 379.78797879787976,98.27220424253603 L 372.6372637263726,101.63689600526749 L 365.83658365836584,102.1525575780999 L 359.08590859085905,100.33485053386566 L 348.88488848884884,94.59811553610513 L 346.83468346834684,93.94064703074382 L 344.5344534453445,94.77859708659648 L 337.73377337733774,98.94256428721816 L 336.5836583658366,100.24460975862 L 333.3333333333333,111.33133357451675 L 331.8331833183318,114.47686916879444 L 329.7329732973297,117.39035705529754 L 323.88238823882386,122.1602266039973 L 317.83178317831783,124.19708981668532 L 301.030103010301,124.95769063661312 L 291.17911791179114,128.7220201182897 L 287.6287628762876,128.90250166878104 L 275.5275527552755,124.41624598513908 L 262.97629762976294,116.37192544895353 L 259.4759475947595,115.53397539310087 L 258.025802580258,116.60397315672812 L 254.82548254825483,120.8968557505579 L 253.27532753275327,122.37938277245108 L 246.07460746074605,123.539621311324 L 238.4238423842384,120.61324188550009 L 231.37313731373135,115.4308430785344 L 226.22262226222622,109.81013193466116 L 224.37243724372436,106.89664404815805 L 222.6222622262226,103.31279611697282 L 221.32213221322132,99.56135817461706 L 221.12211221122112,98.40111963574414 L 223.47234723472346,98.29798732117766 L 230.92309230923092,97.15064032162554 L 233.8233823382338,97.07329108570069 L 235.12351235123512,97.18931493958799 L 240.8240824082408,96.86702645656773 L 242.77427742774276,95.79702869294049 L 242.2242224222422,93.39920237926978 L 241.97419741974196,85.50958031493396 L 243.92439243924392,80.70103614827175 L 253.72537253725372,73.55912336454291 L 254.02540254025402,73.55912336454291 L 254.42544254425442,75.04165038643609 L 264.9264926492649,81.20380618178335 L 269.026902690269,83.12464554058407 L 271.0771077107711,84.62006410179805 L 272.3272327232723,84.92946104549749 L 273.3273327332733,84.76187103432696 L 273.7273727372737,84.43958255130671 L 277.17771777177717,88.04921356113356 L 280.978097809781,89.58330674030996 L 285.5285528552855,86.60536115720282 L 292.97929792979295,79.55368914871964 L 301.2301230123012,73.54623182522211 L 312.18121812181215,67.91262914202805 L 317.7817781778178,66.4429936594557 L 324.18241824182417,65.91444054730248 L 326.63266326632663,65.1796228060163 L 332.2332233223322,61.750473346680785 L 335.2335233523352,60.7578248189784 L 338.6338633863386,60.11324785293789 L 340.4340434043404,59.00457547134821 L 343.78437843784377,54.31205515857331 L 348.4348434843484,50.14808795795162 L 353.985398539854,47.788936262243354 L 360.03600360036,47.06701006027799 L 366.1866186618662,47.788936262243354 L 371.58715871587157,49.14254789092843 L 373.4373437343734,48.47218784624629 L 378.2378237823782,44.02460678056678 L 378.9378937893789,46.2032769257837 L 382.6382638263826,54.453862091102216 L 383.7883788378838,55.472293697446226 L 384.93849384938494,56.23289451737403 L 386.38863886388634,55.53675139405028 L 388.7388738873887,56.91614610137697 L 387.78877887788775,57.547831528096665 L 383.73837383738373,66.27540364828516 L 386.6386638663866,68.24780916436912 L 387.3387338733873,68.99551844497611 L 387.98879887988795,70.10419082656578 L 389.1389138913891,73.64936413978859 L 390.58905890589057,75.41550502673958 L 393.13931393139313,77.06562205980329 z" /><path fill-rule="evenodd" fill="#D2EBD9" stroke="#A6A6A6" stroke-width="0.25" opacity="1" d="M 221.12211221122112,98.40111963574414 L 220.72207220722072,96.0806425579983 L 220.37203720372037,89.29969287525215 L 217.77177717771775,88.41017666211624 L 44.554455445544555,89.06764516747756 L 45.654565456545654,87.37885351645143 L 46.6046604660466,85.12283413530965 L 46.754675467546754,82.42850241726032 L 45.35453545354535,75.26080655488985 L 45.35453545354535,71.75430785962949 L 45.704570457045705,71.1226224329098 L 47.35473547354735,70.10419082656578 L 48.4048404840484,68.20913454640669 L 51.455145514551454,65.90154900798166 L 52.15521552155215,64.71552739046713 L 52.5052505250525,63.42637345838611 L 54.155415541554156,60.03589861701303 L 54.5054505450545,57.66385538198396 L 54.155415541554156,55.87193141639134 L 52.1052105210521,51.65639805848641 L 51.1051105110511,50.14808795795162 L 56.505650565056506,49.825799474931365 L 69.35693569356935,46.65448080201206 L 72.9072907290729,46.370866936954236 L 78.65786578657865,46.55134848744557 L 84.30843084308431,47.38929854329824 L 87.6087608760876,49.078090194324375 L 85.25852585258525,50.14808795795162 L 85.25852585258525,51.321218036145346 L 85.95859585958596,51.50169958663669 L 87.6087608760876,52.36543272113097 L 86.60866086608661,54.31205515857331 L 86.95869586958695,55.717232944541614 L 89.75897589758975,58.30843234802447 L 90.45904590459045,56.34891837126132 L 90.15901590159015,54.35072977653574 L 89.65896589658965,52.57169735026393 L 89.75897589758975,51.321218036145346 L 91.20912091209121,50.27700335115972 L 92.45924592459245,50.766881845350504 L 93.65936593659366,51.81109653033613 L 94.95949594959495,52.36543272113097 L 96.5096509650965,53.551454338645506 L 103.46034603460346,60.64180096509111 L 108.16081608160816,64.14829966035148 L 111.16111611161115,65.78552515409437 L 114.26142614261425,66.4687767380973 L 117.56175617561756,65.9531151652649 L 122.8122812281228,64.05805888510581 L 175.96759675967596,68.26070070368992 L 181.9181918191819,70.07840774792416 L 189.2189218921892,74.0490018587337 L 192.21922192219222,74.73225344273663 L 195.1195119511951,74.38418188107477 L 199.56995699569956,72.25707789314109 L 202.42024202420242,72.39888482567 L 204.07040704070405,73.45599104997643 L 206.52065206520652,76.78200819474546 L 208.2208220822082,78.13561982343053 L 211.47114711471147,79.05091911520805 L 213.67136713671366,78.58682369965888 L 215.52155215521552,77.5941751719565 L 217.8217821782178,77.06562205980329 L 218.57185718571856,76.7046589588206 L 220.82208220822082,75.09321654371932 L 222.3222322232223,74.73225344273663 L 223.67236723672366,75.08032500439852 L 225.12251225122512,75.67333581315579 L 226.57265726572655,75.9569496782136 L 228.022802280228,75.26080655488985 L 232.07320732073205,71.61250092710057 L 234.77347734773477,69.64009541101662 L 237.17371737173715,68.80214535516396 L 239.72397239723972,68.44118225418127 L 245.4245424542454,66.82973983907999 L 248.57485748574857,66.4687767380973 L 250.37503750375035,67.0875706254962 L 252.1252125212521,68.72479611923909 L 253.32533253325332,70.99370703970169 L 253.72537253725372,73.55912336454291 L 243.92439243924392,80.70103614827175 L 241.97419741974196,85.50958031493396 L 242.2242224222422,93.39920237926978 L 242.77427742774276,95.79702869294049 L 240.8240824082408,96.86702645656773 L 235.12351235123512,97.18931493958799 L 233.8233823382338,97.07329108570069 L 230.92309230923092,97.15064032162554 L 223.47234723472346,98.29798732117766 L 221.12211221122112,98.40111963574414 z" /><path fill-rule="evenodd" fill="#D2EBD9" stroke="#A6A6A6" stroke-width="0.25" opacity="1" d="M 393.13931393139313,77.06562205980329 L 390.58905890589057,75.41550502673958 L 389.1389138913891,73.64936413978859 L 387.98879887988795,70.10419082656578 L 387.3387338733873,68.99551844497611 L 386.6386638663866,68.24780916436912 L 383.73837383738373,66.27540364828516 L 387.78877887788775,57.547831528096665 L 388.7388738873887,56.91614610137697 L 386.38863886388634,55.53675139405028 L 384.93849384938494,56.23289451737403 L 383.7883788378838,55.472293697446226 L 382.6382638263826,54.453862091102216 L 378.9378937893789,46.2032769257837 L 378.2378237823782,44.02460678056678 L 379.7379737973797,42.58075437663604 L 381.9381938193819,41.31738352319664 L 384.33843384338434,40.62124039987289 L 389.58895889588956,40.40208423141912 L 391.7891789178918,39.78329034402023 L 393.63936393639364,37.8495594458987 L 394.93949394939494,36.134984716230946 L 396.48964896489645,34.71691539094183 L 398.2398239823982,33.50511069478567 L 404.2904290429043,30.346683561187174 L 408.6408640864086,29.109095786389396 L 413.14131413141314,28.76102422472752 L 422.5922592259226,29.598974280580183 L 431.5931593159316,27.89729109023324 L 436.39363936393636,28.06488110140377 L 440.04400440044003,29.856805066996387 L 447.99479947994797,35.915828547777174 L 450.4950495049505,37.03739246868766 L 453.39533953395335,36.99871785072523 L 460.4960496049605,39.589917254208075 L 467.1967196719672,39.68015802945375 L 473.8473847384738,41.48497353436717 L 486.3986398639864,42.56786283731523 L 494.6494649464946,46.17749384714208 L 499.34993499349935,53.4225389454374 L 500.0,62.16300260494671 L 495.999599959996,70.23310621977389 L 494.3494349434943,71.62539246642139 L 490.54905490549055,73.86852030824235 L 489.04890489048904,75.17056577964418 L 488.1988198819882,76.60152664425412 L 487.14871487148713,79.83730301377747 L 486.2986298629863,81.33272157499145 L 483.49834983498346,83.61452403477486 L 479.4979497949795,85.65138724746286 L 475.29752975297527,87.13391426935604 L 471.79717971797174,87.73981661743412 L 469.5969596959696,87.37885351645143 L 466.19661966196617,85.38066492172585 L 464.2464246424642,84.50404024791077 L 462.49624962496245,84.23331792217374 L 459.64596459645963,84.47825716926914 L 457.8457845784578,84.41379947266509 L 454.49544954495445,83.56295787749161 L 446.79467946794676,79.60525530600289 L 437.19371937193716,77.42658516078596 L 434.043404340434,76.06008199278008 L 424.8424842484248,70.28467237705712 L 415.09150915091504,66.77817368179676 L 412.24122412241223,66.08203055847301 L 409.19091909190917,66.50745135605975 L 405.19051905190514,68.38961609689802 L 393.13931393139313,77.06562205980329 z" /><path fill-rule="evenodd" fill="#D2EBD9" stroke="#A6A6A6" stroke-width="0.25" opacity="1" d="M 273.7273727372737,84.43958255130671 L 273.3273327332733,84.76187103432696 L 272.3272327232723,84.92946104549749 L 271.0771077107711,84.62006410179805 L 269.026902690269,83.12464554058407 L 264.9264926492649,81.20380618178335 L 254.42544254425442,75.04165038643609 L 254.02540254025402,73.55912336454291 L 254.87548754875485,73.55912336454291 L 253.22532253225322,66.5848005919846 L 247.27472747274726,64.10962504238904 L 240.02400240024002,64.57372045793821 L 234.27342734273427,66.4687767380973 L 232.5232523252325,68.19624300708587 L 230.97309730973097,70.56828624211495 L 228.9228922892289,72.669607151407 L 225.77257725772577,73.55912336454291 L 224.2224222422242,73.18526872423942 L 222.5222522252225,72.50201714023648 L 220.72207220722072,72.20551173585784 L 219.021902190219,72.97900409510646 L 217.5217521752175,74.16502571262099 L 215.67156715671567,75.22213193692743 L 213.57135713571355,75.86670890296793 L 211.62116211621162,75.78935966704307 L 210.02100210021,74.64201266749097 L 207.37073707370735,70.4909370061901 L 205.92059205920592,68.80214535516396 L 204.07040704070405,67.46142526579969 L 202.47024702470245,66.77817368179676 L 200.7200720072007,66.50745135605975 L 198.4198419841984,66.4687767380973 L 196.76967696769677,67.03600446821297 L 194.4194419441944,69.51118001780851 L 192.81928192819282,70.07840774792416 L 191.2191219121912,69.614312332375 L 188.11881188118812,67.37118449055403 L 186.56865686568656,66.4687767380973 L 176.86768676867686,63.452156537027726 L 173.46734673467347,63.078301896724234 L 162.76627662766276,64.35456428948444 L 159.16591659165917,64.12251658170986 L 158.61586158615862,63.78733655936879 L 157.06570657065706,62.330592616117244 L 155.86558655865585,61.78914796464321 L 154.26542654265427,61.50553409958539 L 150.7150715071507,61.78914796464321 L 147.5147514751475,61.49264256026458 L 138.6138613861386,59.3655385723309 L 115.36153615361536,60.64180096509111 L 112.61126112611261,61.750473346680785 L 111.011101110111,62.04697875105942 L 110.31103110311031,61.209028695206754 L 109.76097609760976,59.41710472961414 L 108.5108510851085,58.076384640249884 L 101.86018601860185,52.49434811433907 L 100.51005100510051,50.36724412640539 L 99.95999599959995,47.23460007144852 L 100.06000600060005,45.829422285480206 L 100.36003600360036,44.488702196115945 L 100.91009100910091,43.45737905045113 L 102.76027602760276,42.34870666886145 L 103.16031603160316,40.68569809647694 L 103.21032103210321,38.77775027699703 L 103.96039603960395,34.098121503542934 L 104.66046604660465,33.105472975840556 L 106.26062606260625,34.26571151471347 L 107.61076107610761,35.59354006475692 L 109.1109110911091,36.54751397449687 L 110.8110811081108,37.12763324393333 L 112.66126612661266,37.33389787306629 L 114.96149614961496,38.49413641193921 L 118.16181618161815,38.17184792891896 L 118.86188618861885,37.411247108991155 L 119.3119311931193,35.45173313222801 L 119.91199119911991,34.214145357430226 L 121.6121612161216,32.64137756029139 L 122.8122812281228,32.12571598745898 L 123.86238623862386,32.1514990661006 L 125.5125512551255,34.67824077297939 L 127.21272127212721,35.45173313222801 L 128.46284628462845,35.322817739019904 L 130.06300630063006,34.75559000890426 L 131.06310631063104,34.66534923365859 L 133.4133413341334,35.129444649207755 L 136.8136813681368,35.51619082883206 L 141.3141314131413,36.624863210421736 L 142.6142614261426,36.573297053138496 L 166.96669666966696,31.287765931606316 L 167.2167216721672,43.39292135384708 L 167.86678667866786,45.80363920683858 L 169.8169816981698,46.86074543114502 L 181.36813681368136,47.98230935205551 L 188.8188818881888,50.3801356657262 L 190.9190919091909,50.43170182300944 L 202.12021202120212,49.335920980740575 L 204.87048704870486,49.60664330647759 L 209.8209820982098,51.28254341818291 L 213.67136713671366,53.383864327474974 L 217.57175717571755,54.85349981004733 L 222.7222722272227,54.63434364159356 L 240.87408740874085,50.7539903060297 L 246.97469746974696,50.7539903060297 L 252.37523752375236,51.75953037305289 L 257.8257825782578,53.78350204642009 L 262.57625762576254,56.96771225866021 L 266.026602660266,61.44107640298134 L 267.026702670267,66.15937979439786 L 267.6267626762676,76.73044203746221 L 269.97699769977,80.52055459778042 L 273.7273727372737,84.43958255130671 z" /><path fill-rule="evenodd" fill="#D2EBD9" stroke="#A6A6A6" stroke-width="0.25" opacity="1" d="M 166.96669666966696,31.287765931606316 L 142.6142614261426,36.573297053138496 L 141.3141314131413,36.624863210421736 L 136.8136813681368,35.51619082883206 L 133.4133413341334,35.129444649207755 L 131.06310631063104,34.66534923365859 L 130.06300630063006,34.75559000890426 L 128.46284628462845,35.322817739019904 L 127.21272127212721,35.45173313222801 L 125.5125512551255,34.67824077297939 L 123.86238623862386,32.1514990661006 L 122.8122812281228,32.12571598745898 L 121.6121612161216,32.64137756029139 L 119.91199119911991,34.214145357430226 L 119.3119311931193,35.45173313222801 L 118.86188618861885,37.411247108991155 L 118.16181618161815,38.17184792891896 L 114.96149614961496,38.49413641193921 L 112.66126612661266,37.33389787306629 L 112.66126612661266,36.05763548030608 L 106.96069606960695,32.96366604331164 L 102.96029602960296,31.751861347155483 L 99.95999599959995,32.57691986368734 L 99.55995599559955,35.58064852543611 L 100.26002600260026,39.49967647896241 L 99.55995599559955,42.87725978101467 L 94.95949594959495,44.32111218494541 L 91.60916091609161,43.40581289316789 L 85.5085508550855,39.31919492847106 L 82.4082408240824,38.39100409737273 L 79.70797079707971,37.03739246868766 L 77.45774577457745,34.66534923365859 L 75.55755575557555,33.9176399530516 L 73.9073907390739,37.33389787306629 L 71.9071907190719,36.30257472740148 L 69.6069606960696,35.9545031657396 L 64.7064706470647,36.05763548030608 L 64.7064706470647,34.89739694143317 L 67.05670567056706,35.09077003124532 L 68.8068806880688,34.45908460452562 L 69.95699569956996,33.041015279236504 L 70.4070407040704,30.875236673340392 L 71.05710571057105,30.411141257791225 L 74.05740574057405,27.31717182079678 L 75.05750575057505,25.576814012487407 L 72.85728572857285,27.252714124192728 L 71.4071407140714,27.16247334894706 L 68.1068106810681,24.41657547361449 L 69.1069106910691,26.788618708643565 L 69.05690569056905,29.84391352767558 L 68.1068106810681,32.49957062776247 L 66.45664566456645,33.634026087993774 L 63.1063106310631,33.943423031693214 L 61.4061406140614,34.76848154822507 L 60.106010601060106,35.9545031657396 L 57.95579557955795,37.33389787306629 L 55.55555555555555,38.01714945706924 L 47.15471547154715,38.39100409737273 L 45.804580458045805,39.35786954643349 L 39.703970397039704,46.65448080201206 L 40.05400540054005,49.51640253123192 L 38.9038903890389,54.59566902363113 L 34.953495349534954,51.359892654107774 L 27.602760276027603,45.984120757329926 L 20.8020802080208,46.525565408803956 L 15.601560156015601,51.901337305581805 L 11.101110111011101,57.99903540432502 L 9.2009200920092,56.49072530379023 L 7.050705070507051,55.29181214695488 L 5.000500050005,54.80193365276409 L 3.3003300330033003,53.706152810495226 L 1.5001500150015001,48.45929630692548 L 0.0,46.65448080201206 L 1.55015501550155,42.77412746644819 L 2.15021502150215,41.884611253312286 L 0.85008500850085,39.15160491730053 L 1.6001600160016,36.89558553615875 L 4.45044504450445,33.634026087993774 L 5.35053505350535,31.36511516753118 L 5.75057505750575,29.147770404351828 L 5.35053505350535,21.167907564770324 L 5.45054505450545,19.131044352082313 L 8.7008700870087,10.712869175593264 L 9.000900090009,8.134561311431227 L 7.15071507150715,4.267099515188171 L 7.55075507550755,3.0681863583528237 L 10.1010101010101,2.178670145216921 L 12.651265126512651,0.0 L 12.901290129012901,3.9319194928471064 L 13.501350135013501,5.839867312327014 L 14.55145514551455,7.232153558974513 L 17.15171517151715,9.82335296245736 L 17.7017701770177,11.460578456200254 L 20.15201520152015,15.637437196142754 L 25.95259525952595,16.926591128223773 L 165.46654665466545,15.663220274784374 L 166.56665666566656,16.488278791316226 L 166.96669666966696,31.287765931606316 z" /><path fill-rule="evenodd" fill="#D2EBD9" stroke="#A6A6A6" stroke-width="0.25" opacity="1" d="M 11.101110111011101,57.99903540432502 L 15.601560156015601,51.901337305581805 L 20.8020802080208,46.525565408803956 L 27.602760276027603,45.984120757329926 L 34.953495349534954,51.359892654107774 L 38.9038903890389,54.59566902363113 L 36.7036703670367,59.494453965539 L 34.1034103410341,61.78914796464321 L 36.003600360036,63.826011177331225 L 38.75387538753875,64.01938426714338 L 40.6040604060406,64.5479373792966 L 39.703970397039704,67.62901527697022 L 37.9037903790379,69.47250539984609 L 35.35353535353535,70.4909370061901 L 32.4032403240324,70.34913007366117 L 29.452945294529453,68.80214535516396 L 27.75277527752775,69.62720387169581 L 26.352635263526352,70.58117778143576 L 25.4025402540254,71.81876555623354 L 25.05250525052505,73.55912336454291 L 20.8020802080208,70.01395005132011 L 11.101110111011101,57.99903540432502 z" /></g></g></g></svg>