<svg xmlns="http://www.w3.org/2000/svg" xmlns:xlink="http://www.w3.org/1999/xlink" width="500.0" height="458.65277161682025" viewBox="0.0 0.0 500.0 458.65277161682025" preserveAspectRatio="xMinYMin meet"><g transform="matrix(1,0,0,-1,0,458.65277161682025)"><g><g><path fill-rule="evenodd" fill="#D2EBD9" stroke="#A6A6A6" stroke-width="0.25" opacity="1" d="M 399.88998899889987,318.10750786705154 L 382.4882488248825,318.10750786705154 L 380.7380738073807,318.38272705194015 L 375.1875187518752,321.18078876497407 L 373.6873687368737,321.50187781401075 L 372.08720872087207,322.098186047936 L 369.88698869886986,323.61189156482317 L 367.88678867886784,325.40081626659895 L 366.73667366736674,326.77691219104184 L 366.5866586658666,328.61170675696576 L 366.8366836683668,330.4006314587415 L 366.78667866786674,332.051946568073 L 365.7865786578658,333.5197822208121 L 364.03640364036403,332.2812958888135 L 362.9362936293629,330.7675903719263 L 363.6363636363636,328.7951862135581 L 364.3864386438644,327.28148069667094 L 364.63646364636463,325.30907653830275 L 363.8863886388639,314.4837885993519 L 362.88628862886287,312.9700830824647 L 362.68626862686267,312.0526857995028 L 363.036303630363,310.3555008260232 L 363.8863886388639,308.7041857166917 L 366.33663366336634,301.5943567737367 L 366.63666366636664,297.97063750603706 L 365.73657365736574,294.98909633641074 L 362.6362636263626,291.91581543848827 L 361.98619861986197,290.67732910648965 L 361.1361136113611,289.6681920952315 L 360.8360836083608,287.512308480271 L 359.78597859785975,286.0444728275319 L 358.6358635863586,283.7051097559789 L 357.98579857985794,283.0170617937575 L 356.1856185618562,281.82444532590694 L 354.985498549855,280.0355206241312 L 349.88498849884985,274.9439657036924 L 348.98489848984894,272.5587327679914 L 350.28502850285025,270.1276299681423 L 354.0854085408541,266.5497805645907 L 355.63556355635563,266.18282165140596 L 359.18591859185915,268.61392445125506 L 360.9360936093609,268.70566417955126 L 355.83558355835584,265.9534723306655 L 353.4853485348535,265.6323832816288 L 351.8351835183518,266.22869151555403 L 350.78507850785076,267.23782852681217 L 349.6349634963496,267.65065730414506 L 347.8347834783478,266.22869151555403 L 346.43464346434644,263.6599791232606 L 345.3845384538454,261.18300645926337 L 345.23452345234523,260.21973931215337 L 344.3844384438444,259.21060230089523 L 344.2344234423442,258.75190365941427 L 343.9343934393439,258.61429406697 L 342.4342434243424,256.6418899086018 L 338.98389838983894,253.52273914653122 L 336.5836583658366,252.467732271125 L 336.23362336233623,251.045766482534 L 336.4836483648365,247.6972663997229 L 336.03360336033603,246.13769101868763 L 335.0835083508351,244.11941699617137 L 333.88338833883387,242.4681018868399 L 331.5331533153315,241.04613609824887 L 330.78307830783075,239.4865607172136 L 329.3329332933293,234.9913140307001 L 328.5828582858286,233.70695783455338 L 327.5827582758276,232.69782082329525 L 326.23262326232623,232.14738245351808 L 327.33273327332734,230.67954680077898 L 327.5827582758276,229.99149883855753 L 327.3827382738274,229.1199714197437 L 328.53285328532854,228.29431386507795 L 330.58305830583055,226.0008206576731 L 331.3331333133313,225.49625215204404 L 332.6332633263326,225.81734120108072 L 335.2335233523352,227.00995766893124 L 338.03380338033804,227.5603960387084 L 339.033903390339,228.01909468018937 L 340.18401840184015,228.29431386507795 L 341.78417841784176,227.8814850877451 L 343.18431843184317,227.19343712552364 L 344.1344134413441,226.3219097067098 L 344.8344834483448,225.22103296715548 L 346.1846184618462,221.04687532967864 L 346.984698469847,219.99186845427243 L 349.1349134913491,220.90926573723436 L 352.035203520352,221.6431835636039 L 352.6352635263526,222.28536166167726 L 353.3353335333533,223.52384799367587 L 355.03550355035503,225.45038228789596 L 356.985698569857,227.23930698967172 L 358.6358635863586,227.8814850877451 L 358.08580858085804,227.5603960387084 L 357.38573857385734,226.78060834819075 L 357.03570357035704,225.86321106522882 L 357.38573857385734,224.99168364641497 L 358.28582858285824,224.7623343256745 L 361.88618861886187,225.49625215204404 L 362.9362936293629,225.26690283130355 L 365.13651365136514,224.02841649930494 L 366.03660366036604,223.75319731441638 L 368.38683868386835,223.4321082653797 L 369.4369436943694,223.0651493521949 L 369.9369936993699,222.60645071071394 L 367.5367536753675,222.28536166167726 L 366.3866386638664,221.8725328843444 L 365.73657365736574,221.32209451456723 L 365.53655365536554,220.3129575033091 L 366.1866186618662,218.06533416005237 L 366.33663366336634,216.59749850731328 L 366.1866186618662,216.13879986583228 L 368.78687868786875,215.81771081679562 L 370.1370137013701,215.31314231116656 L 371.58715871587157,214.30400529990843 L 373.83738373837383,211.6894230434669 L 375.2875287528753,210.58854630391258 L 376.8376837683768,209.94636820583924 L 378.38783878387835,209.71701888509872 L 379.78797879787976,209.9922380699873 L 380.78807880788077,211.00137508124544 L 381.1381138113811,212.14812168494788 L 381.1381138113811,214.7168340772413 L 381.58815881588157,216.001190273388 L 383.2883288328833,216.2305395941285 L 383.83838383838383,218.24881361664475 L 385.1885188518852,220.63404655234578 L 386.1386138613861,221.5514438353077 L 388.1388138813881,222.69819043901015 L 390.68906890689067,223.75319731441638 L 392.53925392539253,224.25776582004542 L 396.18961896189614,223.4779781295278 L 397.5397539753975,223.3862384012316 L 399.18991899189916,223.52384799367587 L 402.4902490249025,224.21189595589735 L 403.84038403840384,224.6705945973783 L 405.19051905190514,225.35864255959976 L 406.3406340634063,226.23016997841358 L 407.09070907090705,227.37691658211602 L 407.39073907390735,228.47779332167033 L 407.3407340734073,229.57867006122467 L 406.99069906990695,230.5878070724828 L 406.5406540654065,231.41346462714853 L 405.7405740574057,231.82629340448142 L 405.2405240524052,231.78042354033332 L 404.0904090409041,230.6336769366309 L 403.34033403340334,230.31258788759422 L 402.44024402440243,230.40432761589042 L 401.4901490149015,230.90889612151946 L 400.990099009901,231.55107421959283 L 400.59005900590057,233.75282769870148 L 400.29002900290027,234.48674552507103 L 399.78997899789977,235.0830537589963 L 399.48994899489946,235.77110172121775 L 399.48994899489946,238.0187250644745 L 399.28992899289926,238.84438261914022 L 398.8398839883988,239.3489511247693 L 397.8397839783978,239.3948209889174 L 397.039703970397,239.62417030965787 L 396.3396339633963,240.26634840773124 L 395.58955895589554,243.33962930565372 L 395.33953395339535,249.07336232416583 L 394.989498949895,250.03662947127586 L 393.23932393239323,250.9540267542378 L 392.4892489248925,251.68794458060734 L 391.8391839183918,253.06404050505026 L 391.6891689168917,254.21078710875267 L 391.8391839183918,255.2657939841589 L 393.3893389338934,258.3390748820814 L 392.989298929893,259.21060230089523 L 391.4391439143914,260.4949584970419 L 388.88888888888886,261.73344482904054 L 377.1377137713771,264.9902051835554 L 376.5376537653765,265.4030339608883 L 376.1876187618762,265.90760246651735 L 376.0876087608761,266.687390157035 L 376.58765876587654,267.65065730414506 L 377.3377337733773,268.3387052663665 L 380.5380538053805,269.21023268518036 L 381.68816881688167,269.9441505115499 L 383.2883288328833,272.2376437189547 L 388.68886888688866,281.77857546175886 L 391.7891789178918,285.9527330992357 L 392.53925392539253,287.6957879368634 L 393.03930393039303,297.0991100872232 L 393.33933393339333,298.7045553324066 L 393.83938393839384,300.0806512568495 L 395.68956895689564,302.69523351329104 L 398.98989898989896,305.63090481876924 L 399.6399639963996,306.45656237343496 L 400.09000900090007,307.5574391129893 L 400.4400440044004,309.1170144940246 L 400.5400540054005,313.2911721315014 L 399.88998899889987,318.10750786705154 z" /><path fill-rule="evenodd" fill="#D2EBD9" stroke="#A6A6A6" stroke-width="0.25" opacity="1" d="M 419.041904190419,318.10750786705154 L 419.19191919191917,313.7498707729824 L 419.9419941994199,310.95180905994846 L 421.2921292129213,307.19048019980454 L 421.44214421442143,305.9519938678059 L 421.34213421342133,304.89698699239966 L 420.5920592059206,303.153932154772 L 420.2920292029203,301.86957595862526 L 420.04200420042,299.8054320719609 L 420.2420242024202,298.7045553324066 L 420.5920592059206,297.92476764188893 L 421.74217421742173,296.96150049477893 L 422.6922692269227,296.82389090233465 L 426.39263926392636,297.1449799513713 L 427.99279927992797,296.7780210381865 L 428.4428442844284,296.1817128042613 L 438.2438243824382,302.0071855510696 L 441.3941394139414,303.2456718830682 L 444.6444644464446,302.69523351329104 L 454.6454645464546,298.42933614751803 L 456.19561956195616,297.92476764188893 L 458.3958395839584,297.5119388645561 L 459.84598459845984,297.6495484570004 L 460.996099609961,298.10824709848134 L 461.8961896189619,298.7962950607028 L 463.2463246324632,300.2641307134419 L 464.09640964096405,300.95217867566333 L 465.29652965296526,301.4108773171443 L 466.046604660466,301.0897882681076 L 466.6466646664666,300.40174030588616 L 467.046704670467,299.2091238380357 L 469.5969596959696,282.8794522013132 L 470.04700470047004,281.82444532590694 L 470.7970797079708,281.04465763538934 L 472.2472247224722,280.31073980901976 L 473.69736973697366,280.21900008072356 L 477.1977197719772,280.76943845050073 L 479.0979097909791,280.86117817879693 L 484.6484648464846,280.2648699448717 L 485.69856985698567,280.44834940146404 L 486.6986698669867,280.907048042945 L 490.4990499049905,281.5033562768703 L 499.5999599959996,280.2648699448717 L 499.3999399939994,314.7590077842405 L 498.74987498749874,318.10750786705154 L 419.041904190419,318.10750786705154 z" /><path fill-rule="evenodd" fill="#D2EBD9" stroke="#A6A6A6" stroke-width="0.25" opacity="1" d="M 399.88998899889987,318.10750786705154 L 400.5400540054005,313.2911721315014 L 400.4400440044004,309.1170144940246 L 400.09000900090007,307.5574391129893 L 399.6399639963996,306.45656237343496 L 398.98989898989896,305.63090481876924 L 395.68956895689564,302.69523351329104 L 393.83938393839384,300.0806512568495 L 393.33933393339333,298.7045553324066 L 393.03930393039303,297.0991100872232 L 392.53925392539253,287.6957879368634 L 391.7891789178918,285.9527330992357 L 388.68886888688866,281.77857546175886 L 383.2883288328833,272.2376437189547 L 381.68816881688167,269.9441505115499 L 380.5380538053805,269.21023268518036 L 377.3377337733773,268.3387052663665 L 376.58765876587654,267.65065730414506 L 376.0876087608761,266.687390157035 L 376.1876187618762,265.90760246651735 L 376.5376537653765,265.4030339608883 L 377.1377137713771,264.9902051835554 L 388.88888888888886,261.73344482904054 L 391.4391439143914,260.4949584970419 L 392.989298929893,259.21060230089523 L 393.3893389338934,258.3390748820814 L 391.8391839183918,255.2657939841589 L 391.6891689168917,254.21078710875267 L 391.8391839183918,253.06404050505026 L 392.4892489248925,251.68794458060734 L 393.23932393239323,250.9540267542378 L 394.989498949895,250.03662947127586 L 395.33953395339535,249.07336232416583 L 395.58955895589554,243.33962930565372 L 396.3396339633963,240.26634840773124 L 397.039703970397,239.62417030965787 L 397.8397839783978,239.3948209889174 L 398.8398839883988,239.3489511247693 L 399.28992899289926,238.84438261914022 L 399.48994899489946,238.0187250644745 L 399.48994899489946,235.77110172121775 L 399.78997899789977,235.0830537589963 L 400.29002900290027,234.48674552507103 L 400.59005900590057,233.75282769870148 L 400.990099009901,231.55107421959283 L 401.4901490149015,230.90889612151946 L 402.44024402440243,230.40432761589042 L 403.34033403340334,230.31258788759422 L 404.0904090409041,230.6336769366309 L 405.2405240524052,231.78042354033332 L 405.7405740574057,231.82629340448142 L 406.5406540654065,231.41346462714853 L 406.99069906990695,230.5878070724828 L 407.3407340734073,229.57867006122467 L 407.39073907390735,228.47779332167033 L 407.09070907090705,227.37691658211602 L 406.3406340634063,226.23016997841358 L 405.19051905190514,225.35864255959976 L 403.84038403840384,224.6705945973783 L 402.4902490249025,224.21189595589735 L 399.18991899189916,223.52384799367587 L 397.5397539753975,223.3862384012316 L 396.18961896189614,223.4779781295278 L 392.53925392539253,224.25776582004542 L 390.68906890689067,223.75319731441638 L 388.1388138813881,222.69819043901015 L 386.1386138613861,221.5514438353077 L 385.1885188518852,220.63404655234578 L 383.83838383838383,218.24881361664475 L 383.2883288328833,216.2305395941285 L 385.8385838583858,216.55162864316517 L 467.4467446744674,216.2764094582766 L 468.84688468846883,218.29468348079286 L 468.94689468946893,219.07447117131048 L 468.84688468846883,220.03773831842054 L 467.7467746774677,221.13861505797485 L 466.3466346634663,221.9642726126406 L 465.5465546554655,223.4779781295278 L 464.09640964096405,229.21171114803988 L 463.2463246324632,230.95476598566756 L 462.2462246224622,232.19325231766618 L 458.5958595859586,233.84456742699768 L 457.5457545754575,234.57848525336723 L 451.84518451845184,240.86265664165649 L 451.1951195119512,242.2387525660994 L 450.995099509951,243.47723889809802 L 451.14511451145114,244.39463618105995 L 452.2952295229523,247.14682802994577 L 453.9453945394539,249.89901987883155 L 457.5457545754575,254.76122547852984 L 459.4959495949595,258.2473351537852 L 463.4463446344634,262.5132325195582 L 464.4464446444644,263.20128048177963 L 468.3968396839684,264.85259559111114 L 468.94689468946893,265.81586273822114 L 468.94689468946893,266.32043124385024 L 467.7967796779678,265.724123009925 L 467.3467346734673,265.67825314577686 L 462.9462946294629,266.41217097214644 L 461.54615461546155,266.8249997494793 L 461.24612461246124,267.1002189343679 L 460.94609460946094,268.4304449946627 L 460.34603460346034,268.70566417955126 L 458.4458445844584,267.78826689658933 L 457.39573957395737,266.5956504287388 L 456.69566956695667,266.32043124385024 L 455.5455545554555,268.3845751305146 L 454.9454945494549,268.2469655380703 L 454.2454245424542,267.55891757584885 L 453.39533953395335,267.1919586626641 L 450.1950195019502,267.88000662488554 L 449.1949194919492,267.65065730414506 L 446.29462946294626,266.22869151555403 L 443.79437943794375,265.4030339608883 L 441.4941494149415,265.1736846401478 L 439.0939093909391,265.4489038250364 L 436.39363936393636,266.18282165140596 L 433.49334933493344,267.55891757584885 L 433.3933393339334,268.9808833644399 L 434.39343934393435,270.81567793036373 L 434.8434843484348,273.24678073021283 L 434.49344934493445,274.2100478773229 L 433.44334433443345,275.9072328508025 L 433.24332433243325,277.0539794545049 L 433.59335933593354,278.2924657865035 L 435.8435843584358,281.6409658693146 L 436.4436443644364,283.24641111449796 L 436.89368936893686,285.35642486531043 L 437.043704370437,287.3746988878267 L 436.59365936593656,288.79666467641766 L 430.74307430743073,293.47539081952357 L 428.4428442844284,296.1817128042613 L 427.99279927992797,296.7780210381865 L 426.39263926392636,297.1449799513713 L 422.6922692269227,296.82389090233465 L 421.74217421742173,296.96150049477893 L 420.5920592059206,297.92476764188893 L 420.2420242024202,298.7045553324066 L 420.04200420042,299.8054320719609 L 420.2920292029203,301.86957595862526 L 420.5920592059206,303.153932154772 L 421.34213421342133,304.89698699239966 L 421.44214421442143,305.9519938678059 L 421.2921292129213,307.19048019980454 L 419.9419941994199,310.95180905994846 L 419.19191919191917,313.7498707729824 L 419.041904190419,318.10750786705154 L 399.88998899889987,318.10750786705154 z" /><path fill-rule="evenodd" fill="#D2EBD9" stroke="#A6A6A6" stroke-width="0.25" opacity="1" d="M 499.5999599959996,280.2648699448717 L 490.4990499049905,281.5033562768703 L 486.6986698669867,280.907048042945 L 485.69856985698567,280.44834940146404 L 484.6484648464846,280.2648699448717 L 479.0979097909791,280.86117817879693 L 477.1977197719772,280.76943845050073 L 473.69736973697366,280.21900008072356 L 472.2472247224722,280.31073980901976 L 470.7970797079708,281.04465763538934 L 470.04700470047004,281.82444532590694 L 469.5969596959696,282.8794522013132 L 467.046704670467,299.2091238380357 L 466.6466646664666,300.40174030588616 L 466.046604660466,301.0897882681076 L 465.29652965296526,301.4108773171443 L 464.09640964096405,300.95217867566333 L 463.2463246324632,300.2641307134419 L 461.8961896189619,298.7962950607028 L 460.996099609961,298.10824709848134 L 459.84598459845984,297.6495484570004 L 458.3958395839584,297.5119388645561 L 456.19561956195616,297.92476764188893 L 454.6454645464546,298.42933614751803 L 444.6444644464446,302.69523351329104 L 441.3941394139414,303.2456718830682 L 438.2438243824382,302.0071855510696 L 428.4428442844284,296.1817128042613 L 430.74307430743073,293.47539081952357 L 436.59365936593656,288.79666467641766 L 437.043704370437,287.3746988878267 L 436.89368936893686,285.35642486531043 L 436.4436443644364,283.24641111449796 L 435.8435843584358,281.6409658693146 L 433.59335933593354,278.2924657865035 L 433.24332433243325,277.0539794545049 L 433.44334433443345,275.9072328508025 L 434.49344934493445,274.2100478773229 L 434.8434843484348,273.24678073021283 L 434.39343934393435,270.81567793036373 L 433.3933393339334,268.9808833644399 L 433.49334933493344,267.55891757584885 L 436.39363936393636,266.18282165140596 L 439.0939093909391,265.4489038250364 L 441.4941494149415,265.1736846401478 L 443.79437943794375,265.4030339608883 L 446.29462946294626,266.22869151555403 L 449.1949194919492,267.65065730414506 L 450.1950195019502,267.88000662488554 L 453.39533953395335,267.1919586626641 L 454.2454245424542,267.55891757584885 L 454.9454945494549,268.2469655380703 L 455.5455545554555,268.3845751305146 L 456.69566956695667,266.32043124385024 L 457.39573957395737,266.5956504287388 L 458.4458445844584,267.78826689658933 L 460.34603460346034,268.70566417955126 L 460.94609460946094,268.4304449946627 L 461.24612461246124,267.1002189343679 L 461.54615461546155,266.8249997494793 L 462.9462946294629,266.41217097214644 L 467.3467346734673,265.67825314577686 L 467.7967796779678,265.724123009925 L 468.94689468946893,266.32043124385024 L 468.94689468946893,265.81586273822114 L 468.3968396839684,264.85259559111114 L 464.4464446444644,263.20128048177963 L 463.4463446344634,262.5132325195582 L 459.4959495949595,258.2473351537852 L 457.5457545754575,254.76122547852984 L 453.9453945394539,249.89901987883155 L 452.2952295229523,247.14682802994577 L 451.14511451145114,244.39463618105995 L 450.995099509951,243.47723889809802 L 451.1951195119512,242.2387525660994 L 451.84518451845184,240.86265664165649 L 457.5457545754575,234.57848525336723 L 458.5958595859586,233.84456742699768 L 462.2462246224622,232.19325231766618 L 463.2463246324632,230.95476598566756 L 464.09640964096405,229.21171114803988 L 465.5465546554655,223.4779781295278 L 466.3466346634663,221.9642726126406 L 467.7467746774677,221.13861505797485 L 468.84688468846883,220.03773831842054 L 468.94689468946893,219.07447117131048 L 468.84688468846883,218.29468348079286 L 467.4467446744674,216.2764094582766 L 500.0,216.18466972998039 L 499.5999599959996,280.2648699448717 z" /><path fill-rule="evenodd" fill="#D2EBD9" stroke="#A6A6A6" stroke-width="0.25" opacity="1" d="M 1.25012501250125,1.697184973479583 L 0.0,1.0550068754062272 L 1.5001500150015001,0.0 L 2.7002700270027002,1.100876739554324 L 3.0003000300030003,3.2567603545148756 L 1.85018501850185,5.229164512883039 L 0.95009500950095,4.586986414809684 L 0.6000600060006,3.715458995995844 L 0.7000700070007,2.7063219847377136 L 1.25012501250125,1.697184973479583 z" /><path fill-rule="evenodd" fill="#D2EBD9" stroke="#A6A6A6" stroke-width="0.25" opacity="1" d="M 263.3263326332633,446.4513877534265 L 264.6264626462646,446.5431274817227 L 266.97669766976696,445.76333979120506 L 271.97719771977194,442.41483970839397 L 273.1273127312731,441.91027120276493 L 274.17741774177415,441.7267917461725 L 277.8277827782778,441.7267917461725 L 280.1780178017802,441.2222232405435 L 281.3281328132813,440.8093944632106 L 282.1282128212821,440.2589560934334 L 282.6282628262826,439.570908131212 L 284.028402840284,436.13066832010475 L 286.9286928692869,439.570908131212 L 287.8287828782878,442.00201093106114 L 290.97909790979094,444.80007264409505 L 291.67916791679164,445.94681924779746 L 292.2292229222922,447.32291517224036 L 292.57925792579255,448.8366206891275 L 292.7292729272927,450.5338056626071 L 292.37923792379235,452.368600228531 L 291.47914791479144,453.8823057454182 L 289.1789178917892,456.7721071867483 L 288.4788478847885,456.8638469150445 L 287.9287928792879,457.41428528482163 L 285.47854785478546,456.4510181377116 L 282.5282528252825,456.3592784094154 L 279.72797279727973,456.8179770508964 L 277.7277727772777,457.41428528482163 L 276.87768776877687,456.7721071867483 L 275.67756775677566,456.8179770508964 L 272.97729772977294,457.41428528482163 L 273.5273527352735,458.65277161682025 L 269.92699269926993,457.6436346055621 L 266.87668766876686,454.61622357178777 L 264.57645764576455,450.8548947116438 L 263.4263426342634,447.7816138137213 L 263.3263326332633,446.4513877534265 z" /><path fill-rule="evenodd" fill="#D2EBD9" stroke="#A6A6A6" stroke-width="0.25" opacity="1" d="M 284.028402840284,436.13066832010475 L 282.6282628262826,439.570908131212 L 282.1282128212821,440.2589560934334 L 281.3281328132813,440.8093944632106 L 280.1780178017802,441.2222232405435 L 277.8277827782778,441.7267917461725 L 274.17741774177415,441.7267917461725 L 273.1273127312731,441.91027120276493 L 271.97719771977194,442.41483970839397 L 266.97669766976696,445.76333979120506 L 264.6264626462646,446.5431274817227 L 263.3263326332633,446.4513877534265 L 262.8262826282628,439.70851772365626 L 262.3262326232623,438.56177111995385 L 261.12611261126114,437.41502451625144 L 258.67586758675867,435.85544913521613 L 259.4259425942594,434.6169628032175 L 259.6759675967597,433.01151755803414 L 259.2259225922592,431.5895517694431 L 257.7257725772577,430.9932435355179 L 254.62546254625462,431.5895517694431 L 253.17531753175317,431.63542163359125 L 252.025202520252,430.9932435355179 L 249.97499749974997,431.5895517694431 L 248.32483248324831,430.121716116704 L 247.2247224722472,427.9199626375954 L 246.6246624662466,426.2227776641158 L 246.07460746074605,422.50731866812 L 245.4245424542454,420.76426383049227 L 246.8246824682468,418.47077062308745 L 247.9247924792479,414.938791083684 L 249.57495749574957,413.65443488753726 L 251.67516751675166,413.1498663819082 L 253.52535253525352,413.1039965177601 L 254.67546754675467,412.82877733287154 L 256.5256525652565,411.636160865021 L 257.47574757475746,411.22333208768816 L 258.3258325832583,411.22333208768816 L 260.976097609761,411.9113800499096 L 263.4263426342634,410.53528412546666 L 264.67646764676465,410.0765854839857 L 265.2265226522652,410.3059348047262 L 265.67656765676566,409.75549643494907 L 267.67676767676767,408.8839690161352 L 268.5268526852685,408.33353064635804 L 269.3269326932693,409.2967977934681 L 272.3272327232723,414.2507431214625 L 276.2276227622762,418.745989807976 L 276.77767776777677,420.167955596567 L 276.8276827682768,424.20450364159956 L 277.1277127712771,425.6264694301905 L 279.62796279627963,427.14017494707775 L 279.82798279827983,427.4153941319663 L 280.0780078007801,427.8740927734473 L 280.52805280528054,429.93823666011167 L 282.028202820282,431.13085312796215 L 283.77837783778375,435.85544913521613 L 284.028402840284,436.13066832010475 z" /></g></g></g></svg>