<svg xmlns="http://www.w3.org/2000/svg" xmlns:xlink="http://www.w3.org/1999/xlink" width="500.0" height="291.7003587516956" viewBox="0.0 0.0 500.0 291.7003587516956" preserveAspectRatio="xMinYMin meet"><g transform="matrix(1,0,0,-1,0,291.7003587516956)"><g><g><path fill-rule="evenodd" fill="#D2EBD9" stroke="#A6A6A6" stroke-width="0.25" opacity="1" d="M 374.23742374237423,105.16849617960422 L 389.38893889388936,113.51196078636339 L 391.4891489148915,115.17481911708113 L 392.5892589258926,116.80850449462838 L 394.4894489448945,120.80519907898504 L 395.7395739573957,122.26384673750938 L 397.48974897489745,123.19738123896495 L 398.3398339833983,123.080689426283 L 399.28992899289926,122.55557626921424 L 412.8912891289129,121.68038767409965 L 416.69166916691665,122.17632787799792 L 418.3418341834183,121.88459834629305 L 421.14211421142113,119.63828095216559 L 422.6922692269227,118.67557349753953 L 425.39253925392535,118.06294148095931 L 427.6427642764276,118.15046034047077 L 432.54325432543254,119.02564893558537 L 435.09350935093505,119.05482188875585 L 442.24422442244224,117.91707671510687 L 445.29452945294526,119.02564893558537 L 452.2952295229523,123.34324600481739 L 453.59535953595355,124.33512641261393 L 457.1457145714571,122.55557626921424 L 460.3960396039604,122.61392217555522 L 463.19631963196315,124.30595345944344 L 465.29652965296526,127.456632401856 L 465.79657965796576,129.06114482623275 L 466.1466146614661,132.8828016915665 L 465.39653965396536,134.77904364764814 L 465.89658965896587,135.65423224276273 L 468.34683468346833,135.59588633642176 L 469.74697469746974,134.57483297545474 L 470.2970297029703,131.24911631401926 L 471.6471647164716,130.40310067207514 L 473.99739973997396,129.73212274915394 L 474.09740974097406,128.65272348184595 L 473.7473747374737,127.42745944868551 L 474.7474747474747,126.20219541552507 L 477.997799779978,125.73542816479728 L 482.19821982198215,126.49392494722994 L 486.1486148614861,128.0692644184362 L 488.6988698869887,130.02385228085882 L 489.54895489548954,132.2409967218158 L 490.3990399039904,139.388370248585 L 490.44904490449045,142.36401147197466 L 487.94879487948793,161.99740895571213 L 488.4988498849885,168.91139885711746 L 489.8989898989899,175.65035103949987 L 489.6989698969897,178.80102998191242 L 487.8987898789879,181.54328757993818 L 486.3486348634863,182.3309573155413 L 480.5980598059806,183.2353188638264 L 477.94779477947793,184.37306403747536 L 476.047604760476,185.71501988331775 L 472.4472447244724,189.68254151450392 L 471.54715471547155,191.2870539388807 L 471.14711471147115,192.5706638783821 L 470.3970397039704,193.56254428617865 L 465.9465946594659,195.13788375738494 L 464.29642964296426,196.2756289310339 L 461.0961096109611,199.3679619671055 L 457.995799579958,201.2933768763576 L 454.69546954695466,202.4019490968361 L 450.44504450445044,202.9854081602458 L 449.1949194919492,203.59804017682603 L 449.84498449844983,205.4359362265667 L 449.8949894989499,208.99503651336607 L 450.2950295029503,210.7162407504248 L 453.8453845384538,214.8004541942929 L 463.7463746374637,219.40978079522978 L 467.6967696769677,222.67715155032428 L 470.7970797079708,224.54422055323542 L 475.2475247524752,225.62361982054344 L 477.997799779978,224.80677713176982 L 475.89758975897587,221.04346617277704 L 486.9486948694869,221.160157985459 L 491.6491649164916,222.93970812885865 L 494.39943994399437,227.16978633857923 L 495.049504950495,231.5749022673227 L 496.3496349634963,234.8131000692467 L 496.54965496549653,236.73851497849884 L 495.999599959996,241.5812252047996 L 496.1996199619962,243.71085078624512 L 496.54965496549653,245.11115253842848 L 499.3999399939994,251.96679653349284 L 500.0,254.82574594420052 L 499.54995499549955,257.68469535490823 L 497.6997699769977,261.06875792268465 L 489.4989498949895,271.4543292513779 L 487.94879487948793,275.97613699280333 L 487.6987698769877,279.7102749986256 L 488.998899889989,290.6793053907286 L 388.78887888788876,291.11689968828586 L 386.1386138613861,285.6323844922344 L 385.43854385438544,283.29854823859546 L 384.73847384738474,282.1608030649465 L 383.93839383938393,281.3731333293433 L 383.0883088308831,281.0814037976385 L 382.1882188218822,280.993884938127 L 381.4381438143814,281.1980956103204 L 380.88808880888087,281.72320876738917 L 379.9379937993799,283.12351051957256 L 378.1378137813781,284.5529852249264 L 377.5377537753775,284.23208274005106 L 377.2377237723772,283.06516461323156 L 377.98779877987795,273.5547818796529 L 378.5378537853785,271.3668103918664 L 378.98789878987895,270.66665951577477 L 379.58795879587956,270.141546358706 L 381.2381238123812,269.4997413889553 L 382.2882288228823,268.4203421216473 L 383.53835383538353,268.1286125899424 L 383.83838383838383,267.39928876068024 L 383.6883688368837,266.2031976806903 L 382.7882788278828,263.95688028656286 L 381.58815881588157,262.0314653773107 L 380.48804880488046,261.6813899392649 L 379.7379737973797,261.7980817519468 L 378.88788878887885,262.32319490901557 L 377.1377137713771,263.89853438022186 L 376.38763876387634,264.21943686509724 L 375.43754375437544,264.1902639119267 L 374.6874687468747,263.89853438022186 L 374.03740374037403,263.4025941763236 L 372.18721872187217,261.448006313901 L 371.68716871687167,261.0979308758551 L 370.98709870987096,260.8645472504913 L 370.3370337033703,260.92289315683223 L 369.8369836983698,261.2437956417076 L 368.98689868986895,263.0816916914482 L 368.4368436843684,263.5776318953465 L 367.6367636763676,263.7818425675399 L 364.93649364936493,263.51928598900554 L 364.1864186418642,263.8110155207104 L 363.2863286328633,264.744550022166 L 362.9362936293629,264.83206888167746 L 361.58615861586156,264.30695572460866 L 360.78607860786076,264.1902639119267 L 360.18601860186016,264.4819934436316 L 359.98599859985995,265.2113172728938 L 360.18601860186016,266.29071654020174 L 360.1360136013601,267.13673218214586 L 359.38593859385935,267.8077101050671 L 358.58585858585855,267.7493641987261 L 357.88578857885784,267.39928876068024 L 357.48574857485744,266.3198894933723 L 357.38573857385734,264.8028959285069 L 357.88578857885784,261.8272547051173 L 358.38583858385834,260.310261140252 L 359.035903590359,259.2600348261145 L 359.7359735973597,258.90995938806867 L 360.6360636063606,258.90995938806867 L 362.2362236223622,259.4350725451374 L 364.4864486448645,260.74785543780933 L 365.23652365236524,261.0104120163437 L 365.986598659866,260.9520661100027 L 366.6866686668667,260.6311636251274 L 367.28672867286724,260.1060504680586 L 369.4369436943694,257.6263494485672 L 370.18701870187016,256.02183702419046 L 370.18701870187016,255.00078366322344 L 369.88698869886986,254.0380762085974 L 368.9368936893689,253.1337146603123 L 367.2367236723672,252.4627367373911 L 366.63666366636664,251.96679653349284 L 366.1866186618662,251.32499156374215 L 365.5865586558656,250.94574317252582 L 364.93649364936493,250.9749161256963 L 364.3864386438644,251.4416833764241 L 363.6363636363636,252.81281217543696 L 363.2363236323632,253.22123351982376 L 362.8362836283628,253.39627123884668 L 362.18621862186217,253.22123351982376 L 361.8361836183618,252.5502555969026 L 361.78617861786176,251.4125104232536 L 363.0863086308631,247.09491335402157 L 363.036303630363,246.56980019695283 L 362.4362436243624,245.78213046134968 L 360.78607860786076,244.96528777257606 L 359.78597859785975,244.79025005355314 L 357.9357935793579,244.8485959598941 L 356.6856685668567,245.46122797647433 L 356.0856085608561,245.37370911696286 L 354.83548354835483,244.4693475686778 L 353.8853885388539,243.21491058234685 L 353.6853685368537,242.54393265942568 L 353.8853885388539,241.98964654918643 L 354.63546354635463,241.72708997065203 L 355.0855085508551,241.28949567309473 L 354.83548354835483,240.5309988906621 L 353.985398539854,239.4515996233541 L 354.035403540354,239.04317827896728 L 354.2854285428543,238.72227579409193 L 356.985698569857,238.19716263702315 L 357.7357735773577,237.78874129263636 L 359.2359235923592,235.83415343021375 L 360.4360436043604,234.75475416290575 L 361.18611861186116,234.3755057716894 L 364.6864686468647,233.2961065043814 L 366.0866086608661,232.4500908624373 L 367.28672867286724,231.3415186419588 L 367.7367736773677,230.6705407190376 L 367.98679867986795,229.67866031124106 L 367.98679867986795,228.5409151375921 L 367.4367436743674,226.61550022833998 L 366.0866086608661,223.90241558348472 L 365.8865886588659,222.8521892693472 L 365.8865886588659,221.53940637667532 L 368.7368736873687,212.32075317480155 L 369.58695869586955,211.2996998138345 L 370.2370237023702,210.8621055162772 L 372.6372637263726,209.87022510848067 L 373.3373337333733,209.43263081092337 L 373.8873887388739,208.81999879434315 L 374.03740374037403,207.44886999533028 L 373.6873687368737,205.49428213290767 L 372.3372337233723,201.87683593976735 L 371.2371237123712,200.6223989534364 L 370.2370237023702,200.09728579636766 L 369.4369436943694,200.2139776090496 L 368.58685868586855,200.03893989002668 L 366.13661366136614,198.17187088711555 L 364.6864686468647,197.5884118237058 L 361.88618861886187,198.0260061212631 L 360.08600860086005,197.7926224958992 L 359.3359335933593,197.179990479319 L 358.8358835883588,196.15893711835196 L 358.5358535853585,194.29186811544082 L 358.5358535853585,192.83322045691648 L 359.08590859085905,191.2287080325397 L 359.7359735973597,190.35351943742512 L 361.78617861786176,188.95321768524175 L 364.83648364836483,187.46539707354694 L 365.2865286528653,186.18178713404555 L 365.23652365236524,183.96464269308856 L 364.4864486448645,179.3261431389812 L 363.8863886388639,177.3423823233881 L 362.6362636263626,175.03771902291965 L 362.6362636263626,174.0458386151231 L 363.0863086308631,172.44132619074634 L 363.5863586358636,171.62448350197272 L 364.1864186418642,170.92433262588105 L 367.5367536753675,168.50297751273067 L 368.08680868086805,167.91951844932092 L 368.3368336833683,166.92763804152438 L 368.28682868286825,165.64402810202296 L 366.2866286628663,159.98447518694857 L 365.93659365936594,156.60041261917212 L 366.2866286628663,149.0154447948456 L 367.18671867186714,142.8891246290434 L 367.1367136713671,139.76761863980136 L 367.4367436743674,138.68821937249334 L 367.88678867886784,137.81303077737874 L 369.6369636963696,136.150172446661 L 369.78697869786976,135.30415680471688 L 369.5369536953695,134.31227639692034 L 368.3368336833683,132.94114759790747 L 367.38673867386734,132.2409967218158 L 364.73647364736473,131.04490564182584 L 363.5363536353635,130.16971704671124 L 362.88628862886287,127.92339965258378 L 362.036203620362,118.64640054436904 L 369.08690869086905,117.01271516682179 L 369.68696869686966,114.5913600536714 L 369.68696869686966,113.36609602051097 L 370.5370537053705,110.47797365663278 L 374.23742374237423,105.16849617960422 z" /><path fill-rule="evenodd" fill="#D2EBD9" stroke="#A6A6A6" stroke-width="0.25" opacity="1" d="M 374.23742374237423,105.16849617960422 L 370.5370537053705,110.47797365663278 L 369.68696869686966,113.36609602051097 L 369.68696869686966,114.5913600536714 L 369.08690869086905,117.01271516682179 L 362.036203620362,118.64640054436904 L 358.3358335833583,118.90895712290342 L 350.88508850885086,118.12128738730028 L 347.23472347234724,117.30444469852665 L 342.6342634263426,115.29151092976308 L 341.1341134113411,115.11647321074015 L 340.08400840084005,115.55406750829746 L 337.63376337633764,117.4211365112086 L 334.983498349835,117.59617423023153 L 333.3333333333333,117.01271516682179 L 328.98289828982894,112.57842628490782 L 325.0825082508251,111.35316225174739 L 320.58205820582054,113.22023125465853 L 316.4816481648165,116.77933154145789 L 313.8313831383138,120.51346954728018 L 313.031303130313,123.25572714530593 L 313.031303130313,125.15196910138755 L 312.3312331233123,126.63978971308237 L 309.43094309430944,128.15678327794768 L 305.58055805580557,121.00940975117845 L 298.1798179817982,110.04037935907549 L 295.97959795979597,105.25601503911568 L 295.57955795579556,102.22202790938508 L 295.67956795679567,98.13781446551695 L 295.17951795179516,96.35826432211726 L 292.6292629262926,93.12006652019326 L 290.7290729072907,89.15254488900707 L 288.92889288928893,86.4686331973223 L 287.978797879788,85.76848232123064 L 286.57865786578657,85.12667735147993 L 280.22802280228024,83.63885673978511 L 277.8777877787779,82.61780337881808 L 273.07730773077304,81.74261478370347 L 267.17671767176716,79.64216215542844 L 266.026602660266,79.70050806176941 L 264.7264726472647,79.93389168713331 L 262.9262926292629,80.83825323541839 L 261.92619261926194,81.56757706468056 L 261.1761176117612,82.26772794077223 L 258.6258625862586,85.50592574269625 L 258.07580758075807,86.00186594659452 L 256.17561756175616,86.81870863536815 L 253.47534753475347,88.83164240413173 L 249.72497249724972,90.6111925475314 L 246.7246724672467,89.61931213973486 L 238.7238723872387,82.88035995735245 L 237.17371737173715,81.80096069004445 L 235.52355235523552,79.17539490470065 L 233.57335733573356,76.95825046374368 L 231.9231923192319,76.0247159622881 L 230.27302730273027,75.49960280521934 L 227.97279727972796,73.2241124579214 L 226.3226322632263,72.72817225402312 L 224.47244724472446,73.07824769206896 L 221.17211721172117,74.65358716327523 L 220.12201220122012,74.88697078863912 L 218.37183718371836,73.48666903645577 L 214.27142714271426,67.91463498089283 L 213.4213421342134,66.36846846285704 L 213.27132713271325,64.58891831945735 L 212.4212421242124,62.430119784841345 L 212.2212221222122,60.65056964144166 L 212.27122712271225,59.600343327304145 L 212.47124712471245,59.104403123405866 L 212.97129712971295,58.90019245121246 L 214.021402140214,58.90019245121246 L 214.87148714871486,58.40425224731419 L 214.97149714971496,57.26650707366522 L 214.57145714571456,55.48695693026553 L 214.37143714371436,47.52274071472269 L 214.97149714971496,43.49687317719553 L 217.37173717371735,41.775668940136825 L 219.2219221922192,41.57145826794342 L 220.82208220822082,40.87130739185174 L 222.022202220222,39.67521631186179 L 222.4222422242224,37.83732026212113 L 223.3223322332233,35.97025125920999 L 225.32253225322532,35.649348774334634 L 229.1229122912291,36.20363488457388 L 231.97319731973195,34.453257694344686 L 233.67336733673366,33.92814453727593 L 239.42394239423942,34.044836349957876 L 243.67436743674367,32.35280506606965 L 244.82448244824482,35.240927429947824 L 245.02450245024502,39.23762201430449 L 244.82448244824482,41.775668940136825 L 243.97439743974397,44.605445397674025 L 243.4243424342434,47.814470246427554 L 244.37443744374437,50.264998312748425 L 248.024802480248,50.84845737615816 L 246.27462746274625,46.79341688546052 L 248.024802480248,32.790399363626946 L 246.77467746774676,25.52633402417578 L 245.9245924592459,23.630092068094154 L 244.17441744174417,22.28813622225177 L 239.32393239323932,19.837608155930894 L 237.5237523752375,18.524825263258997 L 237.7237723772377,16.745275119859315 L 239.57395739573957,14.265574100367951 L 242.1242124212421,12.077602612581456 L 244.22442244224422,11.144068111125884 L 246.2246224622462,11.87339194038805 L 247.97479747974796,13.59459617744676 L 252.2252225222522,19.37084090520311 L 254.62546254625462,24.038513412480967 L 256.47564756475646,26.459868525631354 L 260.3760376037604,29.231299076827582 L 261.32613261326134,30.748292641692885 L 261.42614261426144,33.92814453727593 L 263.07630763076304,33.22799366118425 L 263.7263726372637,32.790399363626946 L 263.8263826382638,33.92814453727593 L 264.9264926492649,36.20363488457388 L 266.77667766776676,34.94919789824296 L 268.3768376837684,35.2992733362888 L 269.0769076907691,36.932958713836044 L 268.17681768176817,39.587697452350326 L 272.1272127212721,40.375367187953465 L 275.37753775377536,42.32995505037607 L 277.8277827782778,45.480633992788626 L 279.2779277927793,49.79823106202064 L 281.57815781578154,48.01868091862096 L 281.77817781778174,45.07221264840181 L 280.4780478047805,41.921533705989255 L 278.2778277827783,39.587697452350326 L 279.42794279427943,39.0042383889406 L 280.4780478047805,38.158222746996486 L 281.3281328132813,37.020477573347506 L 281.6281628162816,35.649348774334634 L 274.8274827482748,35.06588971092491 L 274.7274727472747,34.51160360068566 L 274.97749774977495,32.294459159728675 L 274.8274827482748,31.65265418997797 L 273.97739773977395,31.39009761144359 L 271.9271927192719,31.506789424125536 L 270.977097709771,31.04002217339775 L 270.02700270027003,29.172953170486608 L 269.2269226922692,26.693252150995246 L 268.2268226822682,24.53445361637924 L 266.47664766476646,23.630092068094154 L 265.5265526552655,21.587985346160092 L 262.6262626262626,9.393690920896688 L 263.1263126312631,7.876697356031384 L 264.47644764476445,6.943162854575813 L 266.27662766276626,6.534741510189001 L 268.17681768176817,6.62226036970046 L 269.92699269926993,7.234892386280679 L 271.12711271127114,8.25594574724771 L 272.6272627262726,11.144068111125884 L 273.8273827382738,11.144068111125884 L 273.8273827382738,10.006322937476908 L 272.77727772777274,9.131134342362309 L 270.3770377037704,5.367823383369536 L 268.976897689769,4.346770022402505 L 267.5267526752675,3.588273239969853 L 266.37663766376636,2.479701019491362 L 265.9265926592659,0.2917295317048661 L 267.8267826782678,0.0 L 271.97719771977194,2.1296255814455223 L 278.2778277827783,6.62226036970046 L 282.9282928292829,11.377451736489778 L 288.3788378837884,17.941366199849263 L 304.030403040304,48.33958340349631 L 307.2807280728073,61.37989347070383 L 309.7309730973097,67.62290544918795 L 325.8825882588259,91.45720818947552 L 328.78287828782874,94.69540599139954 L 332.78327832783276,96.88337747918602 L 339.5339533953395,97.6127013084482 L 353.035303530353,96.03736183724192 L 359.78597859785975,97.23345291723187 L 374.23742374237423,105.16849617960422 z" /><path fill-rule="evenodd" fill="#D2EBD9" stroke="#A6A6A6" stroke-width="0.25" opacity="1" d="M 302.5302530253025,291.4669751263317 L 304.38043804380436,288.11208551172575 L 304.68046804680466,286.15749764930314 L 304.6304630463046,284.23208274005106 L 303.88038803880386,282.21914897128744 L 301.3301330133013,277.87237894888494 L 300.58005800580054,276.20952061816723 L 298.979897989799,273.8465114113578 L 298.2798279827983,272.4753826123449 L 297.2797279727973,269.8789897801716 L 297.2297229722972,268.47868802798826 L 297.5297529752975,267.4868076201917 L 302.2302230223022,264.16109095875623 L 304.4304430443044,262.0314653773107 L 305.18051805180517,260.89372020366176 L 306.2306230623062,258.5890569031933 L 306.030603060306,257.68469535490823 L 305.5305530553055,257.013717431987 L 304.88048804880486,256.51777722808873 L 302.5302530253025,255.40920500761027 L 299.8799879987999,253.42544419201718 L 297.2797279727973,252.4919096905616 L 289.42894289428943,250.88739726618485 L 288.5788578857886,250.5081488749685 L 288.3288328832883,249.6329602798539 L 288.92889288928893,233.23776059804044 L 289.12891289128913,232.2167072370734 L 289.7789778977898,230.61219481269666 L 290.2790279027903,229.97038984294593 L 293.4293429342934,227.37399701077263 L 294.07940794079406,226.64467318151046 L 294.5294529452945,225.33189028883857 L 294.87948794879486,223.0563999415406 L 294.4294429442944,219.8182021396166 L 294.3294329432943,212.11654250260813 L 293.97939793979396,210.77458665676576 L 293.3293329332933,210.2786464528675 L 291.5291529152915,210.59954893774284 L 287.4287428742874,210.94962437578866 L 286.57865786578657,211.15383504798208 L 282.27822782278224,213.5168442547915 L 281.1281128112811,213.83774673966684 L 280.32803280328034,213.83774673966684 L 277.77777777777777,213.19594176991615 L 275.2275227522752,213.60436311430294 L 274.5274527452745,213.3126335825981 L 273.2273227322732,212.26240726846058 L 271.67716771677163,210.4245112187199 L 270.4770477047705,208.4699233562973 L 270.1770177017702,207.27383227630736 L 270.22702270227023,206.22360596216984 L 275.3275327532753,197.41337410468287 L 276.027602760276,195.77968872713564 L 276.6276627662766,191.666302330097 L 276.9276927692769,190.82028668815292 L 277.4277427742774,190.2076546715727 L 278.1778177817782,189.7700603740154 L 280.02800280028003,189.3324660764581 L 281.37813781378134,188.69066110670738 L 282.2282228222822,188.01968318378619 L 288.82888288828883,184.22719927162294 L 289.32893289328933,183.4395295360198 L 288.1788178817882,179.93877515556142 L 288.1288128812881,178.8593758882534 L 288.42884288428843,177.66328480826346 L 289.92899289928994,174.22087633414603 L 289.8789878987899,173.14147706683804 L 288.4788478847885,172.120423705871 L 286.8286828682868,171.42027282977932 L 285.07850785078506,171.041024438563 L 282.7282728272827,171.27440806392687 L 281.07810781078103,170.74929490685813 L 278.6778677867787,170.63260309417618 L 277.977797779778,170.19500879661888 L 277.8277827782778,169.17395543565183 L 274.8274827482748,161.0347015010861 L 273.77737773777375,159.08011363866348 L 271.7271727172717,157.15469872941136 L 270.2770277027703,155.14176496064778 L 270.977097709771,153.01213937920227 L 272.37723772377234,151.4076269548255 L 274.07740774077405,148.92792593533414 L 275.97759775977596,147.79018076168515 L 277.4277427742774,147.35258646412785 L 282.2282228222822,146.76912740071813 L 284.4284428442844,144.84371249146602 L 286.67866786678667,141.10957448564372 L 289.62896289628964,138.48400870029994 L 293.87938793879385,139.94265635882425 L 294.57945794579456,142.13062784661076 L 295.67956795679567,143.03498939489583 L 297.3797379737974,143.18085416074828 L 298.8798879887989,142.48070328465658 L 299.42994299429944,141.31378515783715 L 299.72997299729974,140.03017521833573 L 300.58005800580054,138.5423546066409 L 301.18011801180114,137.08370694811657 L 301.68016801680164,136.50024788470685 L 303.3303330333033,137.31709057348047 L 303.98039803980396,137.2587446671395 L 308.13081308130813,135.36250271105786 L 308.7808780878088,134.69152478813666 L 308.1808180818082,133.3495689422943 L 304.08040804080406,128.5068587159935 L 304.28042804280426,127.60249716770842 L 309.43094309430944,128.15678327794768 L 312.3312331233123,126.63978971308237 L 313.031303130313,125.15196910138755 L 313.031303130313,123.25572714530593 L 313.8313831383138,120.51346954728018 L 316.4816481648165,116.77933154145789 L 320.58205820582054,113.22023125465853 L 325.0825082508251,111.35316225174739 L 328.98289828982894,112.57842628490782 L 333.3333333333333,117.01271516682179 L 334.983498349835,117.59617423023153 L 337.63376337633764,117.4211365112086 L 340.08400840084005,115.55406750829746 L 341.1341134113411,115.11647321074015 L 342.6342634263426,115.29151092976308 L 347.23472347234724,117.30444469852665 L 350.88508850885086,118.12128738730028 L 358.3358335833583,118.90895712290342 L 362.036203620362,118.64640054436904 L 362.88628862886287,127.92339965258378 L 363.5363536353635,130.16971704671124 L 364.73647364736473,131.04490564182584 L 367.38673867386734,132.2409967218158 L 368.3368336833683,132.94114759790747 L 369.5369536953695,134.31227639692034 L 369.78697869786976,135.30415680471688 L 369.6369636963696,136.150172446661 L 367.88678867886784,137.81303077737874 L 367.4367436743674,138.68821937249334 L 367.1367136713671,139.76761863980136 L 367.18671867186714,142.8891246290434 L 366.2866286628663,149.0154447948456 L 365.93659365936594,156.60041261917212 L 366.2866286628663,159.98447518694857 L 368.28682868286825,165.64402810202296 L 368.3368336833683,166.92763804152438 L 368.08680868086805,167.91951844932092 L 367.5367536753675,168.50297751273067 L 364.1864186418642,170.92433262588105 L 363.5863586358636,171.62448350197272 L 363.0863086308631,172.44132619074634 L 362.6362636263626,174.0458386151231 L 362.6362636263626,175.03771902291965 L 363.8863886388639,177.3423823233881 L 364.4864486448645,179.3261431389812 L 365.23652365236524,183.96464269308856 L 365.2865286528653,186.18178713404555 L 364.83648364836483,187.46539707354694 L 361.78617861786176,188.95321768524175 L 359.7359735973597,190.35351943742512 L 359.08590859085905,191.2287080325397 L 358.5358535853585,192.83322045691648 L 358.5358535853585,194.29186811544082 L 358.8358835883588,196.15893711835196 L 359.3359335933593,197.179990479319 L 360.08600860086005,197.7926224958992 L 361.88618861886187,198.0260061212631 L 364.6864686468647,197.5884118237058 L 366.13661366136614,198.17187088711555 L 368.58685868586855,200.03893989002668 L 369.4369436943694,200.2139776090496 L 370.2370237023702,200.09728579636766 L 371.2371237123712,200.6223989534364 L 372.3372337233723,201.87683593976735 L 373.6873687368737,205.49428213290767 L 374.03740374037403,207.44886999533028 L 373.8873887388739,208.81999879434315 L 373.3373337333733,209.43263081092337 L 372.6372637263726,209.87022510848067 L 370.2370237023702,210.8621055162772 L 369.58695869586955,211.2996998138345 L 368.7368736873687,212.32075317480155 L 365.8865886588659,221.53940637667532 L 365.8865886588659,222.8521892693472 L 366.0866086608661,223.90241558348472 L 367.4367436743674,226.61550022833998 L 367.98679867986795,228.5409151375921 L 367.98679867986795,229.67866031124106 L 367.7367736773677,230.6705407190376 L 367.28672867286724,231.3415186419588 L 366.0866086608661,232.4500908624373 L 364.6864686468647,233.2961065043814 L 361.18611861186116,234.3755057716894 L 360.4360436043604,234.75475416290575 L 359.2359235923592,235.83415343021375 L 357.7357735773577,237.78874129263636 L 356.985698569857,238.19716263702315 L 354.2854285428543,238.72227579409193 L 354.035403540354,239.04317827896728 L 353.985398539854,239.4515996233541 L 354.83548354835483,240.5309988906621 L 355.0855085508551,241.28949567309473 L 354.63546354635463,241.72708997065203 L 353.8853885388539,241.98964654918643 L 353.6853685368537,242.54393265942568 L 353.8853885388539,243.21491058234685 L 354.83548354835483,244.4693475686778 L 356.0856085608561,245.37370911696286 L 356.6856685668567,245.46122797647433 L 357.9357935793579,244.8485959598941 L 359.78597859785975,244.79025005355314 L 360.78607860786076,244.96528777257606 L 362.4362436243624,245.78213046134968 L 363.036303630363,246.56980019695283 L 363.0863086308631,247.09491335402157 L 361.78617861786176,251.4125104232536 L 361.8361836183618,252.5502555969026 L 362.18621862186217,253.22123351982376 L 362.8362836283628,253.39627123884668 L 363.2363236323632,253.22123351982376 L 363.6363636363636,252.81281217543696 L 364.3864386438644,251.4416833764241 L 364.93649364936493,250.9749161256963 L 365.5865586558656,250.94574317252582 L 366.1866186618662,251.32499156374215 L 366.63666366636664,251.96679653349284 L 367.2367236723672,252.4627367373911 L 368.9368936893689,253.1337146603123 L 369.88698869886986,254.0380762085974 L 370.18701870187016,255.00078366322344 L 370.18701870187016,256.02183702419046 L 369.4369436943694,257.6263494485672 L 367.28672867286724,260.1060504680586 L 366.6866686668667,260.6311636251274 L 365.986598659866,260.9520661100027 L 365.23652365236524,261.0104120163437 L 364.4864486448645,260.74785543780933 L 362.2362236223622,259.4350725451374 L 360.6360636063606,258.90995938806867 L 359.7359735973597,258.90995938806867 L 359.035903590359,259.2600348261145 L 358.38583858385834,260.310261140252 L 357.88578857885784,261.8272547051173 L 357.38573857385734,264.8028959285069 L 357.48574857485744,266.3198894933723 L 357.88578857885784,267.39928876068024 L 358.58585858585855,267.7493641987261 L 359.38593859385935,267.8077101050671 L 360.1360136013601,267.13673218214586 L 360.18601860186016,266.29071654020174 L 359.98599859985995,265.2113172728938 L 360.18601860186016,264.4819934436316 L 360.78607860786076,264.1902639119267 L 361.58615861586156,264.30695572460866 L 362.9362936293629,264.83206888167746 L 363.2863286328633,264.744550022166 L 364.1864186418642,263.8110155207104 L 364.93649364936493,263.51928598900554 L 367.6367636763676,263.7818425675399 L 368.4368436843684,263.5776318953465 L 368.98689868986895,263.0816916914482 L 369.8369836983698,261.2437956417076 L 370.3370337033703,260.92289315683223 L 370.98709870987096,260.8645472504913 L 371.68716871687167,261.0979308758551 L 372.18721872187217,261.448006313901 L 374.03740374037403,263.4025941763236 L 374.6874687468747,263.89853438022186 L 375.43754375437544,264.1902639119267 L 376.38763876387634,264.21943686509724 L 377.1377137713771,263.89853438022186 L 378.88788878887885,262.32319490901557 L 379.7379737973797,261.7980817519468 L 380.48804880488046,261.6813899392649 L 381.58815881588157,262.0314653773107 L 382.7882788278828,263.95688028656286 L 383.6883688368837,266.2031976806903 L 383.83838383838383,267.39928876068024 L 383.53835383538353,268.1286125899424 L 382.2882288228823,268.4203421216473 L 381.2381238123812,269.4997413889553 L 379.58795879587956,270.141546358706 L 378.98789878987895,270.66665951577477 L 378.5378537853785,271.3668103918664 L 377.98779877987795,273.5547818796529 L 377.2377237723772,283.06516461323156 L 377.5377537753775,284.23208274005106 L 378.1378137813781,284.5529852249264 L 379.9379937993799,283.12351051957256 L 380.88808880888087,281.72320876738917 L 381.4381438143814,281.1980956103204 L 382.1882188218822,280.993884938127 L 383.0883088308831,281.0814037976385 L 383.93839383938393,281.3731333293433 L 384.73847384738474,282.1608030649465 L 385.43854385438544,283.29854823859546 L 386.1386138613861,285.6323844922344 L 388.78887888788876,291.11689968828586 L 302.5302530253025,291.4669751263317 z" /><path fill-rule="evenodd" fill="#D2EBD9" stroke="#A6A6A6" stroke-width="0.25" opacity="1" d="M 302.5302530253025,291.4669751263317 L 249.92499249924992,291.7003587516956 L 245.22452245224522,291.0002078756039 L 241.024102410241,289.04562001318135 L 231.5231523152315,282.21914897128744 L 221.6221622162216,277.6681682766915 L 212.97129712971295,271.279291532355 L 213.37133713371335,270.3165840777289 L 216.37163716371637,260.1060504680586 L 216.97169716971695,256.28439360272483 L 216.47164716471647,251.6458940486175 L 215.52155215521552,247.9409289959657 L 214.7214721472147,246.94904858816915 L 207.6207620762076,242.07716540869788 L 206.67066706670667,241.69791701748156 L 205.77057705770576,241.69791701748156 L 205.1205120512051,242.13551131503885 L 204.6204620462046,242.80648923796005 L 203.77037703770375,245.4904009296448 L 203.1203120312031,245.98634113354308 L 201.27012701270127,246.04468703988405 L 199.2199219921992,245.7237845550087 L 198.4198419841984,245.9279952272021 L 197.16971697169717,245.7237845550087 L 195.56955695569556,245.11115253842848 L 192.56925692569257,242.98152695698298 L 190.9190919091909,242.13551131503885 L 187.76877687768777,240.9977661413899 L 181.56815681568156,237.0302445102037 L 180.7180718071807,235.98001819606617 L 179.8179817981798,234.46302463120088 L 179.017901790179,233.70452784876824 L 175.76757675767576,232.07084247122097 L 174.86748674867485,231.89580475219805 L 171.76717671767176,232.07084247122097 L 170.6170617061706,231.89580475219805 L 169.1169116911691,231.28317273561782 L 168.61686168616862,230.4955030000147 L 168.86688668866887,228.86181762246744 L 168.71687168716872,227.78241835515945 L 168.06680668066807,227.28647815126118 L 167.1167116711671,226.96557566638583 L 165.26652665266525,226.87805680687435 L 164.7164716471647,227.28647815126118 L 164.4164416441644,228.89099057563794 L 163.91639163916392,229.6494873580706 L 163.06630663066306,229.1243742010018 L 160.2160216021602,225.5069280078615 L 160.06600660066005,224.42752874055347 L 160.76607660766075,223.02722698837013 L 160.56605660566055,221.9770006742326 L 159.26592659265927,220.86842845375412 L 159.01590159015902,220.13910462449195 L 159.01590159015902,219.40978079522978 L 159.8159815981598,218.0386519962169 L 162.06620662066206,215.52977802355505 L 165.8165816581658,212.32075317480155 L 168.01680168016802,210.0160898743331 L 169.5169516951695,209.1409012792185 L 173.86738673867384,207.74059952703513 L 174.6174617461746,207.24465932313686 L 175.56755675567555,205.9027034772945 L 175.66756675667565,204.61909353779308 L 175.46754675467545,202.8395433943934 L 173.51735173517352,196.01307235249953 L 173.51735173517352,194.9920189915325 L 173.86738673867384,192.94991226959843 L 173.81738173817382,191.57878347058556 L 172.56725672567256,186.7069002911143 L 172.71727172717272,184.89817719454413 L 173.21732173217322,183.58539430187224 L 178.41784178417842,177.0798257448537 L 178.96789678967895,176.08794533705716 L 179.96799679967995,172.64553686293976 L 181.9181918191819,169.14478248248136 L 182.51825182518252,168.53215046590114 L 183.4183418341834,167.83199958980947 L 185.4185418541854,167.19019462005875 L 186.7186718671867,166.57756260347853 L 188.86888688868885,163.95199681813475 L 189.76897689768975,163.1643270825316 L 192.81928192819282,161.35560398596144 L 194.56945694569455,162.0849278152236 L 195.5195519551955,162.66838687863333 L 200.67006700670066,167.83199958980947 L 201.97019701970197,168.4446316063897 L 203.8203820382038,168.5613234190716 L 207.3207320732073,168.35711274687822 L 208.37083708370835,168.823879997606 L 211.02110211021102,171.09937034490397 L 212.2212221222122,171.85786712733662 L 215.82158215821582,172.87892048830363 L 219.6219621962196,173.05395820732656 L 223.27232723272326,172.20794256538244 L 226.3226322632263,170.16583584344838 L 228.67286728672866,168.12372912151432 L 230.67306730673067,167.16102166688827 L 237.023702370237,166.08162239958025 L 243.57435743574356,163.89365091179377 L 246.67466746674666,163.28101889521355 L 250.37503750375035,163.92282386496424 L 252.7252725272527,165.58568219568198 L 257.37573757375736,170.7784678600286 L 258.77587758775877,171.85786712733662 L 261.3761376137614,172.5871909565988 L 266.4266426642664,175.6211780863294 L 268.7268726872687,176.32132896242106 L 270.52705270527053,175.91290761803424 L 274.1274127412741,174.42508700633942 L 275.4275427542754,174.65847063170332 L 276.97769776977697,175.358621507795 L 278.8278827882788,175.27110264828355 L 280.52805280528054,174.7459894912148 L 280.52805280528054,174.16253042780505 L 281.67816781678164,173.43320659854288 L 282.67826782678264,172.29546142489392 L 282.7282728272827,171.27440806392687 L 285.07850785078506,171.041024438563 L 286.8286828682868,171.42027282977932 L 288.4788478847885,172.120423705871 L 289.8789878987899,173.14147706683804 L 289.92899289928994,174.22087633414603 L 288.42884288428843,177.66328480826346 L 288.1288128812881,178.8593758882534 L 288.1788178817882,179.93877515556142 L 289.32893289328933,183.4395295360198 L 288.82888288828883,184.22719927162294 L 282.2282228222822,188.01968318378619 L 281.37813781378134,188.69066110670738 L 280.02800280028003,189.3324660764581 L 278.1778177817782,189.7700603740154 L 277.4277427742774,190.2076546715727 L 276.9276927692769,190.82028668815292 L 276.6276627662766,191.666302330097 L 276.027602760276,195.77968872713564 L 275.3275327532753,197.41337410468287 L 270.22702270227023,206.22360596216984 L 270.1770177017702,207.27383227630736 L 270.4770477047705,208.4699233562973 L 271.67716771677163,210.4245112187199 L 273.2273227322732,212.26240726846058 L 274.5274527452745,213.3126335825981 L 275.2275227522752,213.60436311430294 L 277.77777777777777,213.19594176991615 L 280.32803280328034,213.83774673966684 L 281.1281128112811,213.83774673966684 L 282.27822782278224,213.5168442547915 L 286.57865786578657,211.15383504798208 L 287.4287428742874,210.94962437578866 L 291.5291529152915,210.59954893774284 L 293.3293329332933,210.2786464528675 L 293.97939793979396,210.77458665676576 L 294.3294329432943,212.11654250260813 L 294.4294429442944,219.8182021396166 L 294.87948794879486,223.0563999415406 L 294.5294529452945,225.33189028883857 L 294.07940794079406,226.64467318151046 L 293.4293429342934,227.37399701077263 L 290.2790279027903,229.97038984294593 L 289.7789778977898,230.61219481269666 L 289.12891289128913,232.2167072370734 L 288.92889288928893,233.23776059804044 L 288.3288328832883,249.6329602798539 L 288.5788578857886,250.5081488749685 L 289.42894289428943,250.88739726618485 L 297.2797279727973,252.4919096905616 L 299.8799879987999,253.42544419201718 L 302.5302530253025,255.40920500761027 L 304.88048804880486,256.51777722808873 L 305.5305530553055,257.013717431987 L 306.030603060306,257.68469535490823 L 306.2306230623062,258.5890569031933 L 305.18051805180517,260.89372020366176 L 304.4304430443044,262.0314653773107 L 302.2302230223022,264.16109095875623 L 297.5297529752975,267.4868076201917 L 297.2297229722972,268.47868802798826 L 297.2797279727973,269.8789897801716 L 298.2798279827983,272.4753826123449 L 298.979897989799,273.8465114113578 L 300.58005800580054,276.20952061816723 L 301.3301330133013,277.87237894888494 L 303.88038803880386,282.21914897128744 L 304.6304630463046,284.23208274005106 L 304.68046804680466,286.15749764930314 L 304.38043804380436,288.11208551172575 L 302.5302530253025,291.4669751263317 z" /><path fill-rule="evenodd" fill="#D2EBD9" stroke="#A6A6A6" stroke-width="0.25" opacity="1" d="M 212.97129712971295,271.279291532355 L 212.5212521252125,270.92921609430914 L 171.36713671367136,251.58754814227652 L 165.76657665766575,250.42063001545705 L 136.013601360136,252.17100720568624 L 123.06230623062305,251.26664565740117 L 119.96199619961996,251.82093176764042 L 109.76097609760976,255.26334024175782 L 103.96039603960395,255.7884533988266 L 91.65916591659166,253.62965486421058 L 90.55905590559055,253.1337146603123 L 89.85898589858985,252.57942855007306 L 89.05890589058906,252.2876990183682 L 87.75877587758775,252.5210826437321 L 84.20842084208421,253.92138439591545 L 82.45824582458245,254.2422868807908 L 80.75807580758075,253.86303848957448 L 56.455645564556455,240.6768636565145 L 51.505150515051504,238.66392988775095 L 43.304330433043305,238.57641102823948 L 34.8034803480348,236.44678544679397 L 31.803180318031803,236.33009363411202 L 9.7009700970097,237.81791424580683 L 3.7003700370037,236.35926658728252 L 0.0,233.79204670827968 L 1.2001200120012,232.30422609658487 L 3.1503150315031503,232.9168581131651 L 4.8004800480048,233.90873852096163 L 6.65066506650665,234.69640825656478 L 9.1009100910091,234.69640825656478 L 10.9010901090109,233.7628737551092 L 17.001700170017,229.0076823883199 L 17.85178517851785,227.84076426150042 L 19.35193519351935,225.24437142932712 L 20.3020302030203,224.42752874055347 L 21.55215521552155,224.36918283421252 L 24.8024802480248,225.477755054691 L 26.302630263026302,224.57339350640592 L 29.75297529752975,221.65609818935727 L 30.9030903090309,221.01429321960654 L 31.003100310031,219.99323985863953 L 34.903490349034904,215.52977802355505 L 35.9035903590359,214.65458942844046 L 36.203620362036204,212.75834747235885 L 37.1037103710371,211.12466209481158 L 38.653865386538655,209.98691692116262 L 41.8041804180418,209.40345785775287 L 42.7042704270427,208.99503651336607 L 43.404340434043405,208.44075040312683 L 44.15441544154415,207.011275697773 L 45.1045104510451,207.71142657386466 L 46.45464546454645,209.54932262360532 L 48.95489548954895,209.52014967043482 L 50.95509550955095,209.75353329579872 L 52.25522552255225,210.74541370359526 L 52.605260526052604,212.96255814455225 L 54.45544554455445,211.38721867334596 L 54.9054905490549,210.6870677972543 L 56.05560556055605,211.82481297090328 L 59.15591559155915,210.3953382655494 L 61.65616561656165,211.21218095432306 L 63.256325632563254,213.63353606747344 L 64.25642564256425,219.70151032693465 L 66.3066306630663,222.99805403519963 L 67.15671567156716,225.477755054691 L 67.25672567256726,222.2103842995965 L 66.05660566056605,218.4762462937742 L 65.8065806580658,215.38391325770263 L 68.85688568856885,214.07113036503074 L 74.4074407440744,220.40166120302632 L 76.007600760076,221.83113590838016 L 81.60816081608161,225.477755054691 L 85.008500850085,226.61550022833998 L 93.40934093409341,228.36587741856917 L 96.7096709670967,230.6705407190376 L 98.95989598959895,233.55866308291579 L 101.21012101210121,235.80498047704327 L 104.1104110411041,237.0302445102037 L 108.4108410841084,236.88437974435126 L 106.8106810681068,236.24257477460057 L 103.21032103210321,235.36738617948595 L 101.76017601760175,234.69640825656478 L 100.3100310031003,233.41279831706336 L 98.45984598459846,230.55384890635568 L 97.2097209720972,229.0076823883199 L 94.5094509450945,226.7905379473629 L 82.55825582558255,219.73068328010513 L 79.55795579557956,218.41790038743324 L 76.75767576757676,216.69669615037452 L 74.95749574957496,214.07113036503074 L 74.85748574857486,212.26240726846058 L 76.3076307630763,209.7827062489692 L 76.15761576157615,208.41157744995633 L 74.75747574757476,206.89458388509104 L 73.5073507350735,207.21548636996638 L 72.7072707270727,208.7033069816612 L 72.60726072607261,210.6870677972543 L 70.5070507050705,209.75353329579872 L 68.5068506850685,208.55744221580878 L 66.65666566656665,206.952929791432 L 64.9064906490649,204.88165011632745 L 60.5060506050605,195.1962296637259 L 60.85608560856085,192.89156636325745 L 62.456245624562456,188.6323152003664 L 63.006300630063,183.55622134870174 L 63.656365636563656,181.16403918872183 L 64.65646564656466,179.12193246678777 L 66.05660566056605,177.5465929955815 L 67.9067906790679,176.78809621314886 L 72.25722572257226,176.08794533705716 L 73.85738573857385,175.1835837887721 L 77.20772077207721,167.83199958980947 L 79.1079107910791,165.90658468055736 L 83.65836583658366,163.98116977130522 L 88.85888588858886,162.98928936350868 L 92.85928592859285,163.92282386496424 L 95.4095409540954,161.0347015010861 L 96.85968596859685,159.83861042109612 L 98.40984098409841,159.2551513576864 L 100.26002600260026,159.72191860841417 L 101.6101610161016,160.91800968840414 L 102.66026602660266,162.11410076839408 L 103.51035103510351,162.66838687863333 L 104.8104810481048,162.98928936350868 L 108.06080608060806,164.506282928374 L 109.66096609660966,165.06056903861324 L 121.7121712171217,165.23560675763616 L 123.96239623962396,166.16914125909173 L 126.36263626362636,168.35711274687822 L 127.7127712771277,170.51591128149423 L 128.06280628062805,172.5871909565988 L 127.5127512751275,174.83350835072625 L 127.46274627462745,175.6211780863294 L 128.36283628362835,174.86268130389672 L 129.66296629662966,174.16253042780505 L 129.66296629662966,174.89185425706722 L 129.86298629862986,175.06689197609015 L 130.81308130813082,175.1835837887721 L 130.31303130313032,175.88373466486377 L 129.66296629662966,177.5465929955815 L 132.96329632963295,177.83832252728638 L 136.7136713671367,178.77185702874195 L 139.76397639763977,180.52223421897114 L 140.9140914091409,183.26449181699687 L 142.014201420142,183.26449181699687 L 143.16431643164316,181.2515580482333 L 145.26452645264527,180.63892603165309 L 151.46514651465145,181.10569328238086 L 152.8152815281528,181.39742281408573 L 154.26542654265427,180.98900146969893 L 155.5155515551555,180.1721587809253 L 156.6156615661566,178.2175709185027 L 157.6157615761576,177.5465929955815 L 160.66606660666065,177.48824708924053 L 162.9162916291629,178.80102998191242 L 164.46644664466444,180.3471964999482 L 165.36653665366535,180.98900146969893 L 166.6166616661666,179.734564483368 L 166.5166516651665,179.85125629604994 L 166.66666666666666,180.02629401507286 L 173.21732173217322,183.58539430187224 L 172.71727172717272,184.89817719454413 L 172.56725672567256,186.7069002911143 L 173.81738173817382,191.57878347058556 L 173.86738673867384,192.94991226959843 L 173.51735173517352,194.9920189915325 L 173.51735173517352,196.01307235249953 L 175.46754675467545,202.8395433943934 L 175.66756675667565,204.61909353779308 L 175.56755675567555,205.9027034772945 L 174.6174617461746,207.24465932313686 L 173.86738673867384,207.74059952703513 L 169.5169516951695,209.1409012792185 L 168.01680168016802,210.0160898743331 L 165.8165816581658,212.32075317480155 L 162.06620662066206,215.52977802355505 L 159.8159815981598,218.0386519962169 L 159.01590159015902,219.40978079522978 L 159.01590159015902,220.13910462449195 L 159.26592659265927,220.86842845375412 L 160.56605660566055,221.9770006742326 L 160.76607660766075,223.02722698837013 L 160.06600660066005,224.42752874055347 L 160.2160216021602,225.5069280078615 L 163.06630663066306,229.1243742010018 L 163.91639163916392,229.6494873580706 L 164.4164416441644,228.89099057563794 L 164.7164716471647,227.28647815126118 L 165.26652665266525,226.87805680687435 L 167.1167116711671,226.96557566638583 L 168.06680668066807,227.28647815126118 L 168.71687168716872,227.78241835515945 L 168.86688668866887,228.86181762246744 L 168.61686168616862,230.4955030000147 L 169.1169116911691,231.28317273561782 L 170.6170617061706,231.89580475219805 L 171.76717671767176,232.07084247122097 L 174.86748674867485,231.89580475219805 L 175.76757675767576,232.07084247122097 L 179.017901790179,233.70452784876824 L 179.8179817981798,234.46302463120088 L 180.7180718071807,235.98001819606617 L 181.56815681568156,237.0302445102037 L 187.76877687768777,240.9977661413899 L 190.9190919091909,242.13551131503885 L 192.56925692569257,242.98152695698298 L 195.56955695569556,245.11115253842848 L 197.16971697169717,245.7237845550087 L 198.4198419841984,245.9279952272021 L 199.2199219921992,245.7237845550087 L 201.27012701270127,246.04468703988405 L 203.1203120312031,245.98634113354308 L 203.77037703770375,245.4904009296448 L 204.6204620462046,242.80648923796005 L 205.1205120512051,242.13551131503885 L 205.77057705770576,241.69791701748156 L 206.67066706670667,241.69791701748156 L 207.6207620762076,242.07716540869788 L 214.7214721472147,246.94904858816915 L 215.52155215521552,247.9409289959657 L 216.47164716471647,251.6458940486175 L 216.97169716971695,256.28439360272483 L 216.37163716371637,260.1060504680586 L 213.37133713371335,270.3165840777289 L 212.97129712971295,271.279291532355 z" /><g><path fill-rule="evenodd" fill="#D2EBD9" stroke="#A6A6A6" stroke-width="0.25" opacity="1" d="M 171.4171417141714,145.80641994609206 L 171.16711671167116,150.0948440621536 L 171.26712671267126,152.9537934728613 L 172.26722672267226,158.52582752842423 L 179.96799679967995,172.64553686293976 L 178.96789678967895,176.08794533705716 L 178.41784178417842,177.0798257448537 L 173.21732173217322,183.58539430187224 L 166.66666666666666,180.02629401507286 L 166.5166516651665,179.85125629604994 L 166.6166616661666,179.734564483368 L 165.96659665966595,177.69245776143393 L 164.8164816481648,175.27110264828355 L 164.26642664266427,172.90809344147414 L 162.86628662866286,173.57907136439533 L 161.4161416141614,173.95831975561165 L 158.2158215821582,174.16253042780505 L 156.6156615661566,174.80433539755575 L 155.76557655765575,176.2629830560801 L 155.1155115511551,177.83832252728638 L 154.26542654265427,178.80102998191242 L 151.4151415141514,178.8885488414239 L 147.76477647764776,177.9841872931388 L 144.31443144314431,176.58388554095544 L 142.014201420142,175.1835837887721 L 140.66406640664064,173.72493613024776 L 136.46364636463645,167.3360593859112 L 135.36353635363537,163.28101889521355 L 134.76347634763476,162.66838687863333 L 133.66336633663366,162.43500325326943 L 132.46324632463245,161.88071714303018 L 131.46314631463144,161.1805662669385 L 130.81308130813082,160.50958834401732 L 129.8129812981298,158.29244390306033 L 127.46274627462745,149.0446177480161 L 124.61246124612461,143.06416234806633 L 123.7123712371237,139.73844568663085 L 124.11241124112411,136.44190197836588 L 124.76247624762476,134.92490841350056 L 125.4125412541254,134.16641163106792 L 126.36263626362636,134.4289682096023 L 128.012801280128,135.85844291495613 L 129.5129512951295,136.85032332275267 L 133.1133113311331,138.1631062154246 L 134.1134113411341,138.68821937249334 L 135.21352135213522,141.72220650222394 L 135.31353135313532,145.01875021048895 L 135.96359635963594,147.73183485534418 L 138.66386638663866,149.0446177480161 L 137.6137613761376,142.8891246290434 L 138.26382638263826,140.7594990475979 L 141.46414641464145,139.94265635882425 L 143.16431643164316,140.9345367666208 L 148.4148414841484,151.29093514214355 L 148.76487648764876,154.4416140845561 L 149.41494149414942,157.3005634952638 L 152.06520652065205,159.2551513576864 L 155.16551655165514,159.28432431085687 L 158.96589658965897,156.04612650893287 L 162.06620662066206,155.84191583673947 L 162.06620662066206,154.70417066309048 L 160.3160316031603,154.61665180357903 L 158.81588158815882,154.79168952260196 L 157.56575657565756,155.20011086698875 L 156.66566656665665,155.81274288356897 L 152.7152715271527,155.5501863050346 L 149.71497149714972,149.94897929630116 L 146.36463646364635,136.44190197836588 L 149.46494649464947,137.22957171396902 L 157.26572657265726,141.31378515783715 L 158.81588158815882,142.74325986319099 L 160.4160416041604,143.67679436464655 L 171.4171417141714,145.80641994609206 z" /><path fill-rule="evenodd" fill="#D2EBD9" stroke="#A6A6A6" stroke-width="0.25" opacity="1" d="M 91.75917591759175,156.892142150877 L 92.45924592459245,155.20011086698875 L 92.75927592759275,153.04131233237274 L 92.85928592859285,148.40281277826537 L 93.50935093509351,146.33153310316084 L 95.1095109510951,145.95228471194451 L 97.05970597059705,145.95228471194451 L 98.95989598959895,144.98957725731844 L 103.06030603060306,138.86325709151626 L 105.1105110511051,137.55047419884437 L 106.56065606560655,137.78385782420824 L 108.4108410841084,138.48400870029994 L 110.31103110311031,138.7465652788343 L 111.96119611961196,137.55047419884437 L 113.9113911391139,139.88431045248328 L 114.91149114911491,142.56822214416806 L 116.3116311631163,149.0446177480161 L 117.61176117611761,151.34928104848453 L 119.2119211921192,153.24552300456617 L 120.5120512051205,155.25845677332973 L 121.06210621062105,159.57605384256175 L 119.56195619561956,161.53064170498436 L 117.21172117211721,161.73485237717776 L 112.71127112711271,161.55981465815483 L 112.36123612361236,161.1805662669385 L 112.96129612961296,160.50958834401732 L 108.11081108110811,158.08823323086693 L 105.71057105710571,157.21304463575234 L 103.51035103510351,156.892142150877 L 97.75977597759776,157.79650369916206 L 94.6094609460946,157.88402255867354 L 91.75917591759175,156.892142150877 z" /></g><path fill-rule="evenodd" fill="#D2EBD9" stroke="#A6A6A6" stroke-width="0.25" opacity="1" d="M 192.81928192819282,161.35560398596144 L 189.76897689768975,163.1643270825316 L 188.86888688868885,163.95199681813475 L 186.7186718671867,166.57756260347853 L 185.4185418541854,167.19019462005875 L 183.4183418341834,167.83199958980947 L 182.51825182518252,168.53215046590114 L 181.9181918191819,169.14478248248136 L 179.96799679967995,172.64553686293976 L 172.26722672267226,158.52582752842423 L 171.26712671267126,152.9537934728613 L 171.16711671167116,150.0948440621536 L 171.4171417141714,145.80641994609206 L 174.5174517451745,147.14837579193446 L 181.76817681768176,151.52431876750745 L 185.018501850185,152.45785326896302 L 186.36863686368636,153.5664254894415 L 191.16911691169116,160.50958834401732 L 192.81928192819282,161.35560398596144 z" /><path fill-rule="evenodd" fill="#D2EBD9" stroke="#A6A6A6" stroke-width="0.25" opacity="1" d="M 212.021202120212,125.12279614821706 L 212.5212521252125,125.56039044577436 L 218.07180718071805,126.90234629161675 L 220.32203220322032,127.16490287015112 L 224.2224222422242,126.52309790040043 L 226.02260226022602,125.82294702430875 L 226.07260726072607,125.53121749260387 L 226.87268726872685,125.79377407113826 L 227.87278727872786,123.54745667701079 L 229.1229122912291,117.10023402633325 L 229.92299229922992,120.07587524972288 L 231.37313731373135,122.78895989457814 L 232.27322732273225,121.27196632971284 L 233.8233823382338,120.57181545362116 L 235.27352735273527,121.1261015638604 L 235.87358735873585,123.37241895798788 L 235.12351235123512,124.86023956968269 L 231.37313731373135,127.33994058917405 L 231.37313731373135,128.56520462233448 L 229.1229122912291,129.70294979598347 L 230.62306230623062,130.14054409354077 L 234.02340234023401,130.0821981871998 L 234.67346734673467,130.22806295305222 L 234.87348734873487,132.29934262815678 L 235.42354235423542,134.04971981838597 L 236.4236423642364,135.4791945237398 L 238.023802380238,136.44190197836588 L 236.87368736873685,131.45332698621266 L 237.2237223722372,129.4112202642786 L 239.12391239123912,128.56520462233448 L 237.47374737473746,126.02715769650214 L 237.023702370237,124.48099117846635 L 238.023802380238,123.92670506822712 L 239.42394239423942,124.51016413163684 L 240.87408740874085,126.63978971308237 L 242.57425742574256,127.33994058917405 L 242.37423742374236,130.40310067207514 L 243.2243224322432,132.6785910193731 L 244.37443744374437,134.8373895539891 L 244.82448244824482,137.55047419884437 L 245.9245924592459,137.55047419884437 L 249.22492249224922,135.80009700861515 L 250.67506750675065,134.28310344374987 L 251.37513751375135,131.97844014328143 L 249.37493749374937,132.35768853449775 L 248.72487248724872,132.56189920669115 L 248.024802480248,133.02866645741895 L 247.024702470247,133.02866645741895 L 246.17461746174615,131.30746222036024 L 246.024602460246,129.73212274915394 L 246.57465746574655,128.39016690331155 L 248.024802480248,127.33994058917405 L 244.02440244024402,125.2686609140695 L 243.17431743174316,122.43888445653229 L 244.52445244524452,121.47617700190624 L 247.024702470247,125.06445024187609 L 247.97479747974796,122.84730580091912 L 249.67496749674967,121.97211720580451 L 250.87508750875085,122.6430951287257 L 250.37503750375035,125.06445024187609 L 252.025202520252,125.23948796089901 L 253.07530753075307,125.79377407113826 L 253.57535753575357,126.84400038527578 L 253.72537253725372,128.56520462233448 L 254.72547254725472,128.56520462233448 L 255.97559755975595,127.51497830819697 L 257.47574757475746,127.456632401856 L 259.025902590259,128.27347509062963 L 260.3760376037604,129.70294979598347 L 259.6759675967597,126.63978971308237 L 257.7257725772577,125.32700682041047 L 255.37553755375535,124.1892616467615 L 253.72537253725372,121.65121472092916 L 255.97559755975595,121.44700404873575 L 258.4258425842584,120.0467022965524 L 260.3760376037604,120.51346954728018 L 262.6262626262626,126.20219541552507 L 263.7263726372637,126.20219541552507 L 264.9264926492649,123.92670506822712 L 264.9264926492649,122.78895989457814 L 262.57625762576254,120.01752934338191 L 261.42614261426144,119.3757243736312 L 261.42614261426144,118.15046034047077 L 263.4263426342634,118.17963329364126 L 264.8264826482648,117.39196355803811 L 267.07670767076706,114.8247436790353 L 267.3267326732673,117.15857993267421 L 268.27682768276827,118.9381300760739 L 269.7769776977698,119.8133186711885 L 271.6271627162716,119.3757243736312 L 270.92709270927094,117.21692583901519 L 270.977097709771,116.3417372439006 L 271.6271627162716,114.8247436790353 L 270.42704270427043,114.76639777269432 L 269.3269326932693,114.41632233464848 L 268.5268526852685,113.89120917757973 L 268.17681768176817,113.13271239514707 L 268.6768676867687,111.41150815808835 L 269.8769876987699,111.00308681370154 L 275.3275327532753,111.58654587711128 L 277.027702770277,112.1991778936915 L 278.4778477847785,113.01602058246512 L 280.52805280528054,113.68699850538631 L 279.97799779978,111.46985406442933 L 279.12791279127913,109.95286049956403 L 277.8277827782778,108.84428827908553 L 275.97759775977596,107.91075377762996 L 274.47744774477445,107.64819719909559 L 269.2769276927693,107.32729471422023 L 268.4268426842684,107.03556518251537 L 266.47664766476646,107.41481357373169 L 264.57645764576455,107.23977585470877 L 263.026302630263,102.80548697279481 L 261.62616261626164,102.65962220694237 L 260.72607260726073,104.14744281863719 L 261.42614261426144,106.77300860398098 L 259.97599759976,107.09391108885634 L 259.3759375937594,107.53150538641364 L 258.27582758275827,109.04849895127894 L 260.62606260626063,109.01932599810846 L 267.07670767076706,110.27376298443939 L 265.8265826582658,112.22835084686199 L 264.5264526452645,113.77451736489778 L 262.8262826282628,114.67887891318286 L 260.3760376037604,114.8247436790353 L 261.42614261426144,112.54925333173733 L 258.27582758275827,111.41150815808835 L 258.3258325832583,113.24940420782902 L 258.07580758075807,115.08730025756967 L 257.5257525752575,116.54594791609401 L 256.47564756475646,117.10023402633325 L 254.67546754675467,117.45030946437909 L 252.97529752975296,118.23797919998222 L 251.37513751375135,119.3757243736312 L 250.02500250025003,118.85061121656244 L 248.62486248624862,117.80038490242492 L 247.47474747474746,116.48760200975303 L 247.024702470247,115.34985683610405 L 250.37503750375035,110.27376298443939 L 248.82488248824882,107.64819719909559 L 247.6247624762476,107.41481357373169 L 243.57435743574356,110.27376298443939 L 244.02440244024402,111.38233520491788 L 244.82448244824482,114.8247436790353 L 242.57425742574256,113.68699850538631 L 241.3241324132413,114.47466824098946 L 237.77377737773776,115.2331650234221 L 235.87358735873585,115.87496999317281 L 236.5236523652365,113.68699850538631 L 237.67376737673766,113.19105830148804 L 239.07390739073907,113.22023125465853 L 240.37403740374037,112.54925333173733 L 240.77407740774075,110.8863950010196 L 240.47404740474047,109.3402284829838 L 240.57405740574055,108.20248330933484 L 242.57425742574256,107.91075377762996 L 239.57395739573957,106.80218155715147 L 236.9236923692369,108.08579149665289 L 234.87348734873487,110.47797365663278 L 233.67336733673366,112.54925333173733 L 232.1232123212321,111.23647043906544 L 230.47304730473047,110.27376298443939 L 226.9226922692269,109.04849895127894 L 226.9226922692269,107.91075377762996 L 229.47294729472947,108.61090465372165 L 230.12301230123012,109.04849895127894 L 232.47324732473245,107.03556518251537 L 234.37343734373437,104.46834530351255 L 234.47344734473447,102.22202790938508 L 231.37313731373135,101.0842827357361 L 231.27312731273125,104.05992395912574 L 229.37293729372936,104.1182698654667 L 227.1227122712271,103.82654033376184 L 225.77257725772577,105.63526343033202 L 224.67246724672466,105.63526343033202 L 224.1224122412241,103.5056378488865 L 223.57235723572356,102.22202790938508 L 224.87248724872487,99.8006727962347 L 223.97239723972396,99.27555963916593 L 221.22212221222122,99.9757105152576 L 218.9218921892189,100.09240232793955 L 217.17171717171715,100.4424777659854 L 215.67156715671567,101.0842827357361 L 215.42154215421542,100.52999662549685 L 215.47154715471547,100.23826709379199 L 214.57145714571456,99.9757105152576 L 215.57155715571557,98.72127352892669 L 216.32163216321632,97.32097177674332 L 216.72167216721672,95.8331511650485 L 216.87168716871685,94.17029283433078 L 215.67156715671567,94.17029283433078 L 214.5214521452145,96.38743727528775 L 213.17131713171315,95.97901593090094 L 211.97119711971195,94.1119469279898 L 211.22112211221122,91.89480248703282 L 210.3210321032103,94.34533055335369 L 210.2210221022102,95.4247298206617 L 208.7208720872087,93.96608216213737 L 207.27072707270725,93.29510423921617 L 205.82058205820582,93.38262309872763 L 204.5204520452045,94.17029283433078 L 204.07040704070405,91.69059181483941 L 204.020402040204,89.7651769055873 L 205.020502050205,88.62743173193832 L 207.87078707870785,88.51073991925637 L 203.3203320332033,81.6842688773625 L 202.02020202020202,79.26291376421212 L 199.56995699569956,73.25328541109188 L 199.06990699069905,71.47373526769219 L 199.76997699769976,67.94380793406332 L 201.17011701170117,67.47704068333553 L 202.97029702970295,68.4105751847911 L 205.1205120512051,69.11072606088278 L 208.47084708470845,69.66501217112202 L 209.87098709870986,71.18200573598733 L 210.72107210721072,73.3991501769443 L 212.2212221222122,76.0247159622881 L 214.07140714071406,77.1041152295961 L 216.77167716771675,78.03764973105167 L 219.07190719071906,79.26291376421212 L 220.12201220122012,81.18832867346423 L 220.62206220622062,84.07645103734241 L 221.97219721972195,86.9062274948796 L 224.1224122412241,89.00668012315464 L 226.9226922692269,89.73600395241681 L 227.77277727772776,88.8899883104727 L 226.4226422642264,87.08126521390253 L 224.5224522452245,85.00998553879798 L 223.57235723572356,83.40547311442121 L 222.77227722772275,78.32937926275655 L 223.27232723272326,76.37479140033395 L 225.77257725772577,74.88697078863912 L 229.07290729072906,76.66652093203881 L 238.023802380238,83.95975922466046 L 237.17371737173715,81.80096069004445 L 238.7238723872387,82.88035995735245 L 246.7246724672467,89.61931213973486 L 249.72497249724972,90.6111925475314 L 253.47534753475347,88.83164240413173 L 256.17561756175616,86.81870863536815 L 258.07580758075807,86.00186594659452 L 258.6258625862586,85.50592574269625 L 261.1761176117612,82.26772794077223 L 261.92619261926194,81.56757706468056 L 262.9262926292629,80.83825323541839 L 264.7264726472647,79.93389168713331 L 266.026602660266,79.70050806176941 L 267.17671767176716,79.64216215542844 L 273.07730773077304,81.74261478370347 L 277.8777877787779,82.61780337881808 L 280.22802280228024,83.63885673978511 L 286.57865786578657,85.12667735147993 L 287.978797879788,85.76848232123064 L 288.92889288928893,86.4686331973223 L 290.7290729072907,89.15254488900707 L 292.6292629262926,93.12006652019326 L 295.17951795179516,96.35826432211726 L 295.67956795679567,98.13781446551695 L 295.57955795579556,102.22202790938508 L 295.97959795979597,105.25601503911568 L 298.1798179817982,110.04037935907549 L 305.58055805580557,121.00940975117845 L 309.43094309430944,128.15678327794768 L 304.28042804280426,127.60249716770842 L 304.08040804080406,128.5068587159935 L 308.1808180818082,133.3495689422943 L 308.7808780878088,134.69152478813666 L 308.13081308130813,135.36250271105786 L 303.98039803980396,137.2587446671395 L 303.3303330333033,137.31709057348047 L 301.68016801680164,136.50024788470685 L 301.18011801180114,137.08370694811657 L 300.58005800580054,138.5423546066409 L 299.72997299729974,140.03017521833573 L 299.42994299429944,141.31378515783715 L 298.8798879887989,142.48070328465658 L 297.3797379737974,143.18085416074828 L 295.67956795679567,143.03498939489583 L 294.57945794579456,142.13062784661076 L 293.87938793879385,139.94265635882425 L 292.17921792179214,137.20039876079852 L 288.3788378837884,136.52942083787732 L 284.57845784578456,137.40460943299192 L 282.8282828282828,139.33002434224403 L 281.27812781278124,142.2764926124632 L 277.67776777677767,143.50175664562363 L 273.5273527352735,144.2019075217153 L 270.3770377037704,145.63138222706914 L 268.7268726872687,148.49033163777685 L 267.6267626762676,152.57454508164497 L 267.5267526752675,156.74627738502454 L 268.7268726872687,159.8969563274371 L 270.3770377037704,162.46417620643993 L 271.4771477147715,165.84823877421638 L 270.7770777077708,168.35711274687822 L 267.07670767076706,168.35711274687822 L 264.47644764476445,166.54838965030805 L 262.3262326232623,163.92282386496424 L 259.6259625962596,161.53064170498436 L 255.3255325532553,160.50958834401732 L 254.47544754475447,159.95530223377807 L 251.7251725172517,157.4756012142867 L 250.87508750875085,156.892142150877 L 230.72307230723072,156.892142150877 L 227.17271727172715,157.3297364484343 L 220.62206220622062,159.13845954500445 L 216.87168716871685,159.2551513576864 L 215.82158215821582,158.90507591964055 L 214.87148714871486,159.050940685493 L 214.07140714071406,158.43830866891278 L 213.4213421342134,156.892142150877 L 211.67116711671167,158.17575209037838 L 211.22112211221122,159.2551513576864 L 210.2210221022102,159.2551513576864 L 208.1208120812081,157.2422175889228 L 207.17071707170717,155.7835699303985 L 206.77067706770677,154.14988455285123 L 206.67066706670667,152.25364259676962 L 206.22062206220622,151.69935648653038 L 205.2205220522052,151.32010809531405 L 203.4203420342034,150.0656711089831 L 197.31973197319732,143.7934861773285 L 196.16961696169616,142.10145489344026 L 194.86948694869486,138.42566279395896 L 191.86918691869187,133.90385505253354 L 191.86918691869187,131.1032515481668 L 192.76927692769277,128.39016690331155 L 193.3193319331933,125.61873635211533 L 194.019401940194,124.4226452721254 L 195.46954695469546,125.32700682041047 L 196.71967196719672,126.7856544789348 L 196.76967696769677,127.33994058917405 L 198.76987698769875,129.14866368574422 L 200.07000700070006,129.81964160866542 L 202.22022202220222,129.70294979598347 L 201.97019701970197,127.71918898039037 L 201.97019701970197,124.21843459993198 L 201.22012201220122,122.78895989457814 L 204.1204120412041,120.77602612581457 L 206.92069206920692,122.2346737843389 L 212.2212221222122,127.33994058917405 L 212.021202120212,125.12279614821706 z" /><g><path fill-rule="evenodd" fill="#D2EBD9" stroke="#A6A6A6" stroke-width="0.25" opacity="1" d="M 226.07260726072607,125.53121749260387 L 226.02260226022602,125.82294702430875 L 224.2224222422242,126.52309790040043 L 220.32203220322032,127.16490287015112 L 218.07180718071805,126.90234629161675 L 212.5212521252125,125.56039044577436 L 212.021202120212,125.12279614821706 L 211.87118711871187,123.45993781749932 L 210.37103710371036,120.4551236409392 L 208.67086708670865,117.88790376193639 L 207.87078707870785,115.34985683610405 L 205.97059705970597,114.00790099026167 L 205.27052705270526,112.69511809758977 L 207.4207420742074,108.96098009176748 L 207.87078707870785,107.2106029015383 L 208.5208520852085,105.72278228984347 L 210.2210221022102,104.61421006936499 L 210.2210221022102,107.91075377762996 L 212.2212221222122,106.77300860398098 L 212.1212121212121,108.66925056006262 L 212.3212321232123,110.47797365663278 L 212.77127712771275,112.17000494052101 L 213.4213421342134,113.68699850538631 L 214.57145714571456,113.68699850538631 L 214.6214621462146,110.85722204784912 L 215.77157715771577,109.1651907639609 L 217.17171717171715,109.19436371713138 L 217.87178717871785,111.41150815808835 L 220.47204720472047,110.65301137565571 L 221.22212221222122,110.27376298443939 L 220.17201720172017,113.19105830148804 L 218.5218521852185,115.96248885268427 L 217.37173717371735,118.70474645071002 L 217.87178717871785,121.65121472092916 L 221.17211721172117,116.69181268194643 L 223.3223322332233,114.29963052196653 L 225.77257725772577,112.54925333173733 L 226.9226922692269,114.8247436790353 L 224.97249724972497,116.54594791609401 L 224.2224222422242,118.41301691900514 L 223.57235723572356,122.78895989457814 L 225.77257725772577,122.78895989457814 L 224.67246724672466,125.06445024187609 L 226.07260726072607,125.53121749260387 z" /><path fill-rule="evenodd" fill="#D2EBD9" stroke="#A6A6A6" stroke-width="0.25" opacity="1" d="M 127.46274627462745,45.276423320595214 L 125.7125712571257,43.11762478597921 L 125.46254625462545,40.9588262513632 L 126.36263626362636,37.22468824554091 L 126.46264626462646,34.65746836653809 L 126.3126312631263,32.673707550945004 L 125.56255625562555,30.7191196885224 L 124.11241124112411,28.268591622201523 L 126.36263626362636,25.876409462221623 L 126.56265626562656,28.618667060247365 L 128.2128212821282,29.52302860853245 L 130.06300630063006,28.881223638781744 L 130.81308130813082,27.0141546358706 L 129.8129812981298,26.22648490026746 L 125.26252625262525,24.067686365651454 L 122.31223122312231,23.48422730224172 L 121.81218121812181,23.017460051513936 L 121.76217621762176,22.142271456399335 L 121.81218121812181,20.800315610556954 L 122.26222622262226,19.983472921783328 L 123.3123312331233,20.275202453488195 L 124.71247124712471,21.354601720796197 L 129.012901290129,20.625277891534033 L 130.71307130713072,20.537759032022574 L 132.013201320132,21.354601720796197 L 133.66336633663366,20.887834470068412 L 135.9135913591359,21.033699235920846 L 137.86378637863785,22.083925550058364 L 138.66386638663866,24.24272408467437 L 138.16381638163816,25.672198790028215 L 137.013701370137,26.83911691684768 L 135.86358635863584,28.443629341224444 L 134.76347634763476,35.649348774334634 L 133.1133113311331,39.6460433586913 L 130.61306130613062,42.88424116061532 L 127.46274627462745,45.276423320595214 z" /><path fill-rule="evenodd" fill="#D2EBD9" stroke="#A6A6A6" stroke-width="0.25" opacity="1" d="M 123.012301230123,38.44995227870135 L 122.8122812281228,42.796722301103856 L 122.46224622462246,45.04303969523132 L 121.81218121812181,46.414168494244194 L 113.11131113111311,43.64273794304797 L 110.76107610761075,41.775668940136825 L 109.46094609460945,39.17927610796352 L 109.56095609560955,36.69957508847215 L 111.4111411141114,35.06588971092491 L 115.11151115111511,35.06588971092491 L 113.4113411341134,32.17776734704673 L 113.6113611361136,30.04814176560121 L 114.56145614561456,28.006035043667143 L 115.11151115111511,25.380469258323348 L 115.96159615961595,23.425881395900745 L 117.81178117811781,24.59279952272021 L 121.3121312131213,28.82287773244077 L 122.86228622862285,31.30257875193213 L 123.36233623362335,33.578069099230085 L 123.012301230123,38.44995227870135 z" /><path fill-rule="evenodd" fill="#D2EBD9" stroke="#A6A6A6" stroke-width="0.25" opacity="1" d="M 110.76107610761075,31.65265418997797 L 108.4108410841084,35.03671675775442 L 107.71077107710771,36.58288327579021 L 107.4107410741074,39.03341134211108 L 108.01080108010801,40.72544262599931 L 109.010901090109,41.8340148464778 L 109.5109510951095,42.76754934793337 L 108.4108410841084,44.05115928743478 L 105.71057105710571,46.268303728391764 L 102.4102410241024,46.58920621326711 L 99.95999599959995,44.80965606986743 L 99.5099509950995,40.72544262599931 L 97.009700970097,42.12574437818267 L 96.20962096209621,43.00093297329726 L 95.2095209520952,41.19220987672709 L 93.70937093709371,40.60875081331736 L 92.35923592359235,39.616870405520814 L 91.05910591059106,33.9864904436169 L 89.45894589458945,32.70288050411549 L 87.6087608760876,31.856864862171378 L 86.15861586158616,30.427390156817534 L 85.35853585358535,31.535962377296023 L 85.05850585058505,32.790399363626946 L 86.05860586058606,32.99461003582036 L 88.3088308830883,33.92814453727593 L 85.85858585858585,34.54077655385615 L 83.1083108310831,33.51972319288912 L 80.4080408040804,31.594308283636998 L 78.3078307830783,29.406336795850503 L 80.45804580458045,25.409642211493836 L 84.00840084008401,21.23790990811425 L 88.008800880088,18.58317116959997 L 91.75917591759175,19.079111373498243 L 92.5092509250925,17.91219324667878 L 93.05930593059306,17.44542599595099 L 95.1095109510951,16.832793979370773 L 94.05940594059406,19.079111373498243 L 96.20962096209621,22.579865753956636 L 97.2097209720972,22.579865753956636 L 96.65966596659665,21.00452628275036 L 96.45964596459645,19.633397483737486 L 96.65966596659665,18.262268684724617 L 97.2097209720972,16.832793979370773 L 100.56005600560056,18.087230965701696 L 103.41034103410341,17.88302029350829 L 106.3106310631063,17.999712106190238 L 109.66096609660966,20.21685654714722 L 108.56085608560855,21.70467715884204 L 109.4109410941094,24.1843781783334 L 110.01100110011001,27.218365308064005 L 108.4108410841084,30.427390156817534 L 108.4108410841084,31.65265418997797 L 110.76107610761075,31.65265418997797 z" /><path fill-rule="evenodd" fill="#D2EBD9" stroke="#A6A6A6" stroke-width="0.25" opacity="1" d="M 142.014201420142,62.28425501898891 L 138.16381638163816,58.63763587267808 L 135.61356135613562,53.328158395649524 L 135.66356635663567,48.25206454398485 L 139.71397139713972,45.276423320595214 L 143.76437643764376,45.39311513327716 L 145.21452145214522,47.551913667893174 L 145.36453645364534,54.4659035692985 L 147.1147114711471,60.621396688271176 L 146.26462646264625,62.34260092532988 L 142.014201420142,62.28425501898891 z" /><path fill-rule="evenodd" fill="#D2EBD9" stroke="#A6A6A6" stroke-width="0.25" opacity="1" d="M 174.4174417441744,62.28425501898891 L 171.86718671867186,62.692676363375725 L 167.7167716771677,62.80936817605767 L 163.76637663766377,61.70079595557918 L 161.66616661666166,57.79162023073397 L 159.6159615961596,58.05417680926835 L 158.81588158815882,57.849966137074944 L 158.66586658665867,57.14981526098327 L 158.96589658965897,55.16605444539018 L 158.81588158815882,54.4659035692985 L 155.36553655365535,50.84845737615816 L 155.36553655365535,49.79823106202064 L 157.9157915791579,48.86469656056507 L 157.26572657265726,47.63943252740463 L 155.4155415541554,46.35582258790322 L 154.26542654265427,45.276423320595214 L 154.56545654565457,43.00093297329726 L 155.66556655665565,40.754615579169794 L 157.2157215721572,39.90859993722568 L 158.81588158815882,41.775668940136825 L 159.8159815981598,41.775668940136825 L 160.66606660666065,41.57145826794342 L 162.06620662066206,41.775668940136825 L 163.26632663266327,39.587697452350326 L 163.96639663966397,41.921533705989255 L 164.31643164316432,44.51792653816256 L 164.16641664166417,46.910108698142466 L 163.26632663266327,48.68965884154215 L 165.26652665266525,49.360636764463344 L 165.7165716571657,48.95221542007653 L 166.6166616661666,47.63943252740463 L 167.86678667866786,48.68965884154215 L 168.71687168716872,49.82740401519113 L 169.96699669966995,52.073721409318594 L 169.96699669966995,53.211466582967574 L 168.71687168716872,53.211466582967574 L 168.71687168716872,54.4659035692985 L 171.06710671067106,54.232519943934605 L 172.56725672567256,52.073721409318594 L 173.56735673567357,50.20665240640746 L 174.4174417441744,50.84845737615816 L 174.7174717471747,53.824098599547796 L 173.86738673867384,59.27944084242879 L 174.4174417441744,62.28425501898891 z" /><path fill-rule="evenodd" fill="#D2EBD9" stroke="#A6A6A6" stroke-width="0.25" opacity="1" d="M 90.55905590559055,48.68965884154215 L 89.8089808980898,51.08184100152205 L 90.55905590559055,52.62800751955784 L 92.15921592159215,53.64906088052487 L 94.05940594059406,54.4659035692985 L 94.2094209420942,55.72034055562942 L 94.00940094009401,57.87913909024543 L 93.55935593559356,60.06711057803193 L 92.85928592859285,61.26320165802188 L 90.5090509050905,61.70079595557918 L 88.35883588358836,61.409066423874314 L 86.55865586558656,61.58410414289723 L 85.05850585058505,63.53869200531983 L 83.85838583858386,62.28425501898891 L 81.35813581358136,62.54681159752329 L 78.2078207820782,60.91312621997604 L 75.95759575957595,58.28756043463225 L 76.15761576157615,55.48695693026553 L 74.50745074507451,55.07853558587872 L 73.4073407340734,53.94079041222974 L 72.8072807280728,52.30710503468249 L 72.60726072607261,50.3233442190894 L 73.35733573357335,50.264998312748425 L 77.75777577757775,48.16454568447339 L 79.85798579857985,47.75612434008658 L 90.55905590559055,48.68965884154215 z" /><path fill-rule="evenodd" fill="#D2EBD9" stroke="#A6A6A6" stroke-width="0.25" opacity="1" d="M 173.26732673267327,94.17029283433078 L 174.1174117411741,95.4247298206617 L 174.1174117411741,95.89149707138948 L 173.26732673267327,96.56247499431068 L 169.96699669966995,94.17029283433078 L 168.71687168716872,95.4247298206617 L 168.21682168216822,93.82021739628493 L 167.5167516751675,92.33239678459012 L 166.6166616661666,90.99044093874774 L 165.36653665366535,89.73600395241681 L 163.16631663166316,90.1735982499741 L 161.86618661866186,90.02773348412167 L 161.016101610161,88.51073991925637 L 161.9161916191619,86.76036272902718 L 164.21642164216422,85.56427164903722 L 166.86668666866686,85.56427164903722 L 168.71687168716872,87.3729947456074 L 169.96699669966995,87.3729947456074 L 170.96709670967095,85.1850232578209 L 174.5174517451745,88.13149152804004 L 175.3175317531753,89.44427442071195 L 174.4174417441744,90.75705731338384 L 175.2175217521752,91.86562953386233 L 175.5175517551755,93.14923947336374 L 174.46744674467445,93.06172061385229 L 173.9173917391739,93.35345014555715 L 173.26732673267327,94.17029283433078 z" /><path fill-rule="evenodd" fill="#D2EBD9" stroke="#A6A6A6" stroke-width="0.25" opacity="1" d="M 77.20772077207721,86.32276843146988 L 82.45824582458245,85.12667735147993 L 83.85838583858386,85.1850232578209 L 84.7084708470847,85.88517413391257 L 85.6085608560856,87.78141608999421 L 86.15861586158616,88.51073991925637 L 87.1087108710871,89.29840965485951 L 91.95919591959195,94.46202236603564 L 92.55925592559255,96.03736183724192 L 91.75917591759175,97.70022016795966 L 88.85888588858886,98.16698741868744 L 84.35843584358436,97.67104721478917 L 80.15801580158015,96.44578318162873 L 78.3078307830783,94.81209780408147 L 77.10771077107711,92.24487792507865 L 74.4074407440744,90.26111710948557 L 71.45714571457145,88.71495059144978 L 69.5069506950695,87.3729947456074 L 71.8071807180718,86.58532501000425 L 73.75737573757375,86.2935954782994 L 77.20772077207721,86.32276843146988 z" /><path fill-rule="evenodd" fill="#D2EBD9" stroke="#A6A6A6" stroke-width="0.25" opacity="1" d="M 73.8073807380738,94.34533055335369 L 74.15741574157416,95.24969210163877 L 74.3074307430743,96.24157250943533 L 74.95749574957496,97.70022016795966 L 77.6077607760776,101.3176663611 L 78.85788578857886,103.76819442742087 L 79.40794079407941,106.77300860398098 L 79.20792079207921,108.0566185434824 L 78.9078907890789,108.55255874738067 L 78.3078307830783,109.04849895127894 L 77.35773577357736,108.43586693469872 L 76.25762576257625,108.0566185434824 L 75.05750575057505,107.88158082445948 L 73.85738573857385,107.91075377762996 L 73.5073507350735,108.52338579421018 L 73.55735573557355,108.7275964664036 L 72.60726072607261,109.04849895127894 L 68.2068206820682,104.00157805278477 L 62.006200620062,103.18473536401113 L 55.305530553055306,103.03887059815871 L 49.254925492549255,99.9757105152576 L 49.95499549954995,99.7714998430642 L 51.555155515551554,98.83796534160864 L 50.75507550755075,97.96277674649403 L 50.555055505550555,97.49600949576624 L 51.555155515551554,95.4247298206617 L 50.355035503550354,93.14923947336374 L 52.15521552155215,93.32427719238666 L 53.45534553455345,94.1119469279898 L 54.9054905490549,95.4247298206617 L 63.456345634563455,95.30803800797975 L 63.8063806380638,95.4247298206617 L 64.45644564456445,94.95796256993391 L 66.6066606660666,92.53660745678353 L 67.55675567556756,91.86562953386233 L 68.2068206820682,92.21570497190817 L 68.75687568756875,92.88668289482936 L 71.15711571157115,93.96608216213737 L 72.8072807280728,93.96608216213737 L 73.8073807380738,94.34533055335369 z" /><path fill-rule="evenodd" fill="#D2EBD9" stroke="#A6A6A6" stroke-width="0.25" opacity="1" d="M 115.11151115111511,97.11676110454992 L 114.46144614461446,97.14593405772041 L 110.76107610761075,93.14923947336374 L 105.1105110511051,89.73600395241681 L 105.81058105810581,87.95645380901712 L 111.4111411141114,83.95975922466046 L 112.96129612961296,81.80096069004445 L 114.5114511451145,82.29690089394272 L 116.16161616161615,83.17208948905733 L 117.61176117611761,84.5140453348997 L 118.56185618561855,86.32276843146988 L 120.76207620762075,83.95975922466046 L 121.81218121812181,86.32276843146988 L 123.012301230123,86.32276843146988 L 124.31243124312431,82.90953291052294 L 127.9127912791279,83.81389445880802 L 132.1132113211321,86.23524957195842 L 135.36353635363537,87.3729947456074 L 133.6133613361336,90.75705731338384 L 132.8132813281328,94.84127075725196 L 133.3133313331333,98.86713829477912 L 135.36353635363537,102.22202790938508 L 133.5133513351335,103.70984852107989 L 134.013401340134,108.14413740299386 L 132.013201320132,110.27376298443939 L 131.36313631363134,108.08579149665289 L 130.01300130013001,108.20248330933484 L 128.76287628762876,109.92368754639354 L 128.56285628562856,112.54925333173733 L 126.51265126512651,112.8701558166127 L 122.8122812281228,108.99015304493797 L 120.16201620162016,107.91075377762996 L 118.5118511851185,106.59797088495807 L 116.86168616861686,103.476464895716 L 115.6115611561156,99.88819165574616 L 115.11151115111511,97.11676110454992 z" /><path fill-rule="evenodd" fill="#D2EBD9" stroke="#A6A6A6" stroke-width="0.25" opacity="1" d="M 204.5204520452045,117.10023402633325 L 202.87028702870285,116.92519630731033 L 200.77007700770076,115.87496999317281 L 198.26982698269825,115.14564616391064 L 195.5195519551955,115.87496999317281 L 194.019401940194,113.92038213075021 L 192.01920192019202,112.28669675320296 L 190.36903690369036,110.4488007034623 L 190.06900690069006,107.91075377762996 L 186.26862686268626,107.99827263714143 L 184.2184218421842,105.95616591520736 L 182.71827182718272,103.44729194254552 L 180.56805680568056,102.22202790938508 L 178.56785678567857,101.46353112695243 L 178.96789678967895,99.91736460891664 L 180.36803680368035,98.83796534160864 L 181.16811681168116,99.39225145184788 L 183.8183818381838,98.54623580990376 L 186.018601860186,98.31285218453988 L 187.86878687868787,98.83796534160864 L 189.4189418941894,96.85420452601554 L 191.71917191719172,98.34202513771037 L 192.31923192319232,100.93841796988367 L 188.86888688868885,102.22202790938508 L 188.86888688868885,103.35977308303406 L 192.51925192519252,103.18473536401113 L 193.3193319331933,103.35977308303406 L 196.51965196519652,106.33541430642369 L 196.76967696769677,106.77300860398098 L 198.26982698269825,107.00639222934488 L 199.66996699669966,105.95616591520736 L 201.72017201720172,105.63526343033202 L 204.8204820482048,106.1020306810598 L 204.67046704670466,107.32729471422023 L 203.17031703170315,108.99015304493797 L 202.22022202220222,110.85722204784912 L 202.67026702670265,112.92850172295367 L 204.47044704470446,114.8247436790353 L 204.5204520452045,117.10023402633325 z" /></g></g></g></g></svg>