<svg xmlns="http://www.w3.org/2000/svg" xmlns:xlink="http://www.w3.org/1999/xlink" width="331.90327905863523" height="500.0" viewBox="0.0 0.0 331.90327905863523 500.0" preserveAspectRatio="xMinYMin meet"><g transform="matrix(1,0,0,-1,0,500.0)"><g><g><path fill-rule="evenodd" fill="#D2EBD9" stroke="#A6A6A6" stroke-width="0.25" opacity="1" d="M 195.51058242377854,18.101810181018102 L 195.67655066013148,18.35183518351835 L 201.45224528521425,19.35193519351935 L 203.27789588509674,20.55205520552055 L 203.31108953236733,21.2021202120212 L 202.91276576512024,22.65226522652265 L 203.01234670693202,23.3023302330233 L 203.51025141599087,23.75237523752375 L 205.63464484130867,24.8024802480248 L 206.9623907321323,27.552755275527552 L 207.72584461935588,28.05280528052805 L 208.0245874447912,27.9027902790279 L 208.688460390203,26.8026802680268 L 209.18636509926185,26.302630263026302 L 210.34814275373253,25.7025702570257 L 213.2691837135445,25.05250525052505 L 214.53054230982696,25.002500250025 L 216.72132302968592,25.802580258025802 L 217.849907036886,25.202520252025202 L 218.38100539321545,24.552455245524552 L 218.87891010227432,23.05230523052305 L 219.34362116406257,22.5022502250225 L 221.53440188392156,21.95219521952195 L 224.72099202189827,21.85218521852185 L 227.54245203989845,22.35223522352235 L 228.63784239982795,23.65236523652365 L 229.79962005429863,25.852585258525853 L 230.26433111608688,27.1027102710271 L 230.46349299971044,28.252825282528253 L 229.99878193792216,31.4031403140314 L 230.39710570516925,31.853185318531853 L 231.45930241782816,31.703170317031702 L 233.48411490133418,30.9030903090309 L 234.64589255580483,30.85308530853085 L 235.77447656300492,31.253125312531253 L 238.06483822467567,32.653265326532654 L 243.50859637705253,35.053505350535055 L 245.66618344964093,35.65356535653565 L 248.08931970039401,35.5035503550355 L 253.79862703093562,34.45344534453445 L 255.85663316171224,34.55345534553455 L 259.0100296524183,35.35353535353535 L 261.03484213592435,36.85368536853685 L 265.51598451745406,42.55425542554255 L 266.24624475740706,43.75437543754375 L 267.9059271209366,48.25482548254825 L 268.5698000663484,48.85488548854885 L 270.9597426698309,49.95499549954995 L 273.8475899823723,52.905290529052905 L 275.3413041095489,53.45534553455345 L 277.0009864730784,53.3053305330533 L 279.45731637110214,51.755175517551756 L 280.81825590919635,51.505150515051504 L 286.5939505342791,55.155515551555155 L 289.846927966797,56.455645564556455 L 291.9049340975736,54.8054805480548 L 292.3364515120913,52.905290529052905 L 293.13309904658547,51.505150515051504 L 294.3944576428679,50.455045504550455 L 296.1537209482092,49.5049504950495 L 297.381885897221,49.254925492549255 L 300.7344442715507,49.5049504950495 L 302.19496475145667,49.45494549454945 L 302.7592567550567,49.104910491049104 L 303.1907741695744,48.45484548454845 L 304.2861645295039,47.6047604760476 L 305.18239300580984,47.25472547254725 L 309.9954718600455,46.45464546454645 L 310.8917003363514,46.45464546454645 L 311.72154151811617,46.854685468546855 L 314.64258247792816,49.104910491049104 L 315.5388109542341,49.354935493549355 L 318.2606900304225,49.054905490549054 L 320.1195342775756,50.255025502550254 L 321.24811828477567,50.75507550755075 L 322.5426705283287,50.605060506050606 L 324.6006766591053,49.104910491049104 L 325.62967972449366,48.6048604860486 L 326.69187643715253,48.7048704870487 L 328.74988256792915,49.85498549854985 L 331.90327905863523,51.05510551055105 L 331.67092352774114,51.85518551855185 L 331.272599760494,52.5052505250525 L 330.6751141096234,52.955295529552956 L 328.68349527338796,53.75537553755375 L 327.8204604443526,54.8054805480548 L 325.2977432517877,56.155615561556154 L 318.6590137976696,56.255625562556254 L 316.83336319778715,57.005700570057 L 310.32740833275136,66.2066206620662 L 309.8295036236925,68.25682568256825 L 309.2984052673631,69.7069706970697 L 308.63453232195127,72.7072707270727 L 307.8046911401865,74.007400740074 L 305.0164247694569,74.90749074907491 L 304.7176819440216,75.5075507550755 L 304.75087559129213,77.95779577957795 L 303.9874217040686,79.45794579457946 L 301.59747910058604,81.55815581558156 L 301.0663807442566,82.8082808280828 L 301.49789815877426,83.75837583758376 L 301.63067274785664,84.45844584458446 L 301.29873627515076,85.15851585158515 L 300.17015226795064,86.15861586158616 L 299.6390539116212,87.7087708770877 L 300.20334591522123,89.85898589858985 L 299.6390539116212,90.45904590459045 L 298.2449207262564,89.45894589458945 L 297.31549860267984,89.10891089108911 L 296.8839811881622,89.75897589758975 L 297.2159176608681,92.009200920092 L 297.11633671905633,92.5092509250925 L 295.3902670609856,94.5094509450945 L 295.0583305882797,95.1095109510951 L 295.0251369410091,96.25962596259626 L 295.52304165006797,97.95979597959796 L 295.0583305882797,98.80988098809881 L 293.6641974029149,98.009800980098 L 293.13309904658547,98.40984098409841 L 292.73477527933835,101.06010601060106 L 292.07090233392654,102.3102310231023 L 290.31163902858526,104.16041604160415 L 289.94650890860873,105.06050605060506 L 290.67676914856173,106.56065606560655 L 290.8427373849147,107.3107310731073 L 290.1788644395029,107.61076107610761 L 287.8885027778321,107.26072607260726 L 287.656147246938,107.1107110711071 L 287.2246298324203,108.4108410841084 L 288.386407486891,110.8110811081108 L 287.8885027778321,111.26112611261125 L 287.091855243338,111.1111111111111 L 285.1334300543731,110.36103610361036 L 284.3035888726084,110.66106610661066 L 283.8056841635495,111.9111911191119 L 283.24139215994944,112.2112211221122 L 282.0796145054788,116.4116411641164 L 283.7724905162789,117.9117911791179 L 284.5027507562319,118.86188618861885 L 284.170814283526,119.86198619861986 L 281.9136462691258,120.11201120112011 L 281.0506114400905,120.6120612061206 L 281.980033563667,122.11221122112211 L 281.61490344369054,124.012401240124 L 281.84725897458463,124.26242624262426 L 282.7766810981612,124.21242124212421 L 283.00903662905534,124.51245124512451 L 282.54432556726704,126.4126412641264 L 281.9136462691258,127.9127912791279 L 280.75186861465517,128.96289628962896 L 280.12118931651395,130.21302130213022 L 281.15019238190223,132.16321632163215 L 280.75186861465517,132.6132613261326 L 279.6896719019963,131.76317631763175 L 279.0257989565844,131.56315631563155 L 278.3287323639021,131.66316631663165 L 277.5984721239491,132.2132213221322 L 277.7312467130314,132.66326632663265 L 278.1627641275491,133.2133213321332 L 278.3287323639021,134.013401340134 L 277.4656975348667,136.3136313631363 L 277.96360224392555,139.36393639363936 L 277.16695470943137,141.26412641264125 L 277.7312467130314,142.1142114211421 L 277.8308276548432,142.56425642564255 L 277.96360224392555,144.91449144914492 L 277.764440360302,145.86458645864585 L 276.0715643495019,149.31493149314932 L 273.9471709241841,147.6147614761476 L 272.1547139715722,147.3147314731473 L 270.3290633716897,147.86478647864786 L 268.2046699463719,148.8148814881488 L 268.2710572409131,147.56475647564756 L 267.80634617912483,146.96469646964695 L 265.9143082847012,146.5146514651465 L 264.7525306302305,145.5145514551455 L 264.3542068629834,146.16461646164615 L 263.95588309573634,146.36463646364635 L 262.8936863830774,146.5146514651465 L 261.632327786795,147.3147314731473 L 260.7692929577596,147.46474647464746 L 260.1054200123478,146.16461646164615 L 259.4747407142066,146.06460646064605 L 258.7444804742536,146.26462646264625 L 255.49150304173574,148.06480648064806 L 253.59946514731206,148.46484648464846 L 252.70323667100612,148.96489648964896 L 252.17213831467666,150.1150115011501 L 252.0393637255943,150.8150815081508 L 252.4044938455708,152.6152615261526 L 252.30491290375903,154.36543654365437 L 253.33391596914734,156.36563656365635 L 253.43349691095912,157.56575657565756 L 252.30491290375903,158.81588158815882 L 250.51245595114713,159.96599659965995 L 249.45025923848823,160.16601660166015 L 248.4544498203705,162.016201620162 L 247.89015781677048,163.66636663666367 L 245.30105332966443,165.3165316531653 L 242.01488224987594,166.7166716671667 L 240.88629824267588,167.4167416741674 L 240.1228443554523,168.66686668666867 L 239.7245205882052,170.1170117011701 L 239.52535870458166,173.16731673167317 L 239.25980952641694,174.46744674467445 L 237.79928904651095,177.56775677567757 L 234.38034337764012,182.56825682568257 L 233.28495301771062,183.86838683868385 L 228.83700428345148,187.36873687368737 L 227.21051556719254,189.4189418941894 L 226.54664262178073,191.81918191819182 L 225.6504141454748,197.56975697569757 L 224.82057296371002,200.47004700470046 L 224.9201539055218,201.87018701870187 L 225.88276967636892,203.3203320332033 L 231.75804524326347,209.37093709370936 L 232.48830548321646,210.52105210521052 L 232.91982289773412,211.82118211821182 L 233.0857911340871,213.5213521352135 L 232.3223372468635,216.77167716771675 L 232.58788642502822,218.021802180218 L 234.64589255580483,220.77207720772077 L 235.1437972648637,223.022302230223 L 236.40515586114614,226.02260226022602 L 237.53373986834623,227.97279727972796 L 238.59593658100513,231.4231423142314 L 239.82410153001697,233.17331733173316 L 240.3551998863464,234.32343234323432 L 240.4547808281582,235.62356235623562 L 239.89048882455816,236.8236823682368 L 238.06483822467567,239.12391239123912 L 237.16860974836973,241.9241924192419 L 234.94463538124015,243.2243224322432 L 234.4135370249107,244.17441744174417 L 234.878248086699,246.47464746474645 L 235.97363844662846,248.024802480248 L 238.09803187194626,250.47504750475045 L 239.49216505731107,252.77527752775276 L 239.9900697663699,253.22532253225322 L 240.85310459540528,253.47534753475347 L 242.1476568389583,252.9252925292529 L 242.9774980207231,252.77527752775276 L 244.63718038425262,253.02530253025301 L 245.43382791874677,253.62536253625362 L 246.4296373368645,255.57555755575555 L 248.25528793674698,257.3257325732573 L 250.51245595114713,258.4258425842584 L 253.06836679098262,258.57585758575857 L 255.72385857262987,257.4257425742574 L 258.67809317971245,258.47584758475847 L 261.9642642595009,258.8258825882588 L 263.3583974448657,257.6257625762576 L 263.7899148593834,257.4257425742574 L 264.68614333568934,257.47574757475746 L 265.8147273428894,257.8257825782578 L 271.1589045534545,258.37583758375837 L 272.8517805642546,258.8258825882588 L 274.6774311641371,259.6259625962596 L 275.60685328771365,259.7759775977598 L 277.29972929851374,259.3759375937594 L 277.96360224392555,259.7759775977598 L 275.50727234590187,261.976197619762 L 275.2085295204665,262.77627762776274 L 275.50727234590187,264.4264426442644 L 276.50308176401956,266.7266726672667 L 276.96779282580786,268.6768676867687 L 277.3993102403255,269.5769576957696 L 278.1627641275491,269.97699769977 L 279.35773542929036,269.92699269926993 L 280.22077025832573,269.6769676967697 L 280.78506226192576,268.976897689769 L 281.15019238190223,267.6267626762676 L 283.27458580722003,268.6768676867687 L 284.1044269889848,269.4769476947695 L 284.4363634616907,270.42704270427043 L 283.90526510536125,271.77717771777174 L 281.6812907382317,274.5274527452745 L 280.85144955646695,276.2276227622762 L 280.18757661105514,276.4276427642764 L 279.42412272383154,276.37763776377636 L 278.8598307202315,276.027602760276 L 278.72705613114914,275.37753775377536 L 279.7560591965374,273.9273927392739 L 279.5900909601845,273.47734773477345 L 279.1585735456668,273.17731773177314 L 277.96360224392555,273.27732773277324 L 277.6316657712197,273.6273627362736 L 277.4988911821373,274.17741774177415 L 277.3993102403255,278.9278927892789 L 277.20014835670196,279.12791279127913 L 276.0715643495019,279.22792279227923 L 275.10894857865475,278.8778877887789 L 274.5114629277841,278.8778877887789 L 274.24591374961943,279.4779477947795 L 274.47826928051353,280.22802280228024 L 275.00936763684297,280.978097809781 L 278.2955387166315,284.27842784278425 L 278.9926053093139,285.3285328532853 L 279.5568973129139,289.4789478947895 L 280.18757661105514,290.87908790879084 L 280.18757661105514,291.3291329132913 L 283.60652227992597,296.27962796279627 L 285.1998173489143,299.1799179917992 L 285.99646488340846,301.3301330133013 L 286.12923947249084,304.98049804980496 L 284.53594440350247,307.5807580758076 L 284.70191263985544,309.1809180918092 L 285.39897923253784,310.8310831083108 L 285.43217287980843,312.2312231223122 L 286.2288204143026,314.18141814181416 L 286.5275632397379,315.48154815481547 L 287.656147246938,317.83178317831783 L 287.3242107742321,322.8322832283228 L 285.7309157052438,326.23262326232623 L 286.2288204143026,325.7825782578258 L 287.2246298324203,324.3324332433243 L 286.9922743015262,325.6825682568257 L 286.4279822979262,327.1827182718272 L 285.5981411161614,331.6331633163316 L 284.3035888726084,334.08340834083407 L 282.90945568724356,336.13361336133613 L 277.33292294578433,341.78417841784176 L 272.254294913384,345.3845384538454 L 269.3000603063014,347.0847084708471 L 266.81053676100714,348.28482848284824 L 265.41640357564233,348.78487848784874 L 263.7899148593834,348.8348834883488 L 262.8604927358068,348.18481848184814 L 261.9974579067715,347.23472347234724 L 261.9974579067715,346.0846084608461 L 261.76510237587735,344.7344734473447 L 261.8646833176891,344.2344234423442 L 261.4995531977126,343.48434843484347 L 261.2340040195479,342.2342234223422 L 261.632327786795,340.38403840384035 L 261.1676167250067,339.58395839583955 L 260.4705501323243,339.18391839183914 L 259.4747407142066,338.88388838883884 L 256.0226013980652,338.3338333833383 L 255.32553480538277,337.983798379838 L 254.69485550724156,337.0837083708371 L 254.5288872708886,336.23362336233623 L 254.59527456542978,335.2335233523352 L 255.12637292175924,333.033303330333 L 256.3213442235005,331.88318831883186 L 256.55369975439464,331.28312831283125 L 256.2217632816887,329.78297829782974 L 254.79443644905334,327.2827282728273 L 254.16375715091212,326.6826682668267 L 253.43349691095912,326.5826582658266 L 252.23852560921785,327.53275327532754 L 251.4418780747237,327.73277327732774 L 250.0145512420883,327.1827182718272 L 249.2179037075941,326.3826382638264 L 250.3464877147942,324.5324532453245 L 250.7116178347707,322.88228822882286 L 251.010360660206,319.6319631963196 L 250.77800512931188,317.33173317331733 L 252.86920490735906,312.8312831283128 L 253.93140162001797,311.68116811681165 L 254.82763009632393,311.48114811481145 L 255.8898268089828,310.48104810481044 L 255.98940775079458,309.2809280928093 L 254.62846821270037,305.68056805680567 L 251.010360660206,290.52905290529054 L 250.44606865660595,284.028402840284 L 250.14732583117063,282.57825782578254 L 249.74900206392357,281.5281528152815 L 247.59141499133517,279.2779277927793 L 246.52921827867627,277.37773777377737 L 244.90272956241733,273.1273127312731 L 242.71194884255834,270.22702270227023 L 241.31781565719353,267.7267726772677 L 237.99845093013448,258.975897589759 L 231.39291512328697,251.57515751575156 L 229.70003911248685,249.22492249224922 L 228.60464875255735,246.4246424642464 L 227.60883933443964,242.2242224222422 L 224.9201539055218,234.52345234523452 L 223.72518260378055,233.87338733873386 L 221.63398282573334,233.47334733473346 L 210.31494910646194,233.2233223322332 L 209.58468886650894,230.67306730673067 L 203.84218788869677,220.57205720572057 L 202.64721658695552,216.07160716071607 L 199.9253375107671,208.7208720872087 L 199.65978833260237,207.27072707270725 L 200.6555977507201,205.3205320532053 L 204.77161001227333,199.66996699669966 L 207.49348908846173,190.26902690269026 L 207.49348908846173,188.76887688768875 L 206.99558437940289,186.81868186818681 L 207.16155261575582,184.76847684768475 L 209.25275239380304,176.06760676067606 L 209.7838507501325,174.6174617461746 L 210.31494910646194,173.51735173517352 L 216.62174208787417,164.16641664166417 L 219.14445928043904,158.76587658765877 L 219.34362116406257,157.2157215721572 L 219.310427516792,155.66556655665565 L 221.63398282573334,146.6146614661466 L 221.66717647300393,145.36453645364534 L 221.30204635302744,142.26422642264225 L 221.46801458938037,140.46404640464047 L 221.86633835662747,138.5138513851385 L 222.59659859658046,136.4136413641364 L 229.70003911248685,126.2126212621262 L 233.94882596312243,116.16161616161615 L 234.18118149401658,114.86148614861486 L 233.94882596312243,114.36143614361436 L 228.67103604709854,107.26072607260726 L 227.60883933443964,105.21052105210521 L 227.31009650900432,103.76037603760375 L 227.31009650900432,102.76027602760276 L 228.04035674895732,94.05940594059406 L 227.87438851260436,90.65906590659066 L 227.57564568716904,89.4089408940894 L 226.7126108581337,87.05870587058705 L 222.0986938875216,78.1078107810781 L 211.34395217185025,48.054805480548055 L 208.88762227382654,43.354335433543355 L 206.06616225582636,39.15391539153915 L 202.64721658695552,31.153115311531153 L 201.91695634700253,30.053005300530053 L 198.99591538719056,27.1027102710271 L 196.60597278370804,23.7023702370237 L 196.04168078010798,22.15221522152215 L 195.51058242377854,18.101810181018102 z" /><path fill-rule="evenodd" fill="#D2EBD9" stroke="#A6A6A6" stroke-width="0.25" opacity="1" d="M 70.80204962816971,404.1904190419042 L 73.19199223165224,402.84028402840283 L 74.05502706068759,402.04020402040203 L 74.58612541701704,400.990099009901 L 74.61931906428764,399.8399839983998 L 74.3537698861229,398.6398639863986 L 73.82267152979345,397.48974897489745 L 73.15879858438164,396.5396539653965 L 70.03859574094614,394.13941394139414 L 69.47430373734609,392.989298929893 L 68.84362443920487,389.6389638963896 L 67.7150404320048,390.28902890289027 L 65.8893898321223,389.88898889888986 L 57.25904154176876,384.4884488448845 L 52.41276904026253,383.33833383338333 L 51.1182167967095,382.7882788278828 L 50.02282643678001,381.8881888188819 L 48.13078854235635,379.1379137913791 L 47.03539818242686,377.98779877987795 L 45.608071349791466,377.4377437743774 L 44.57906828440316,377.78777877787775 L 42.12273838637945,379.4379437943794 L 40.728605201014645,379.78797879787976 L 37.7411769466615,379.28792879287926 L 36.94452941216732,379.5379537953795 L 35.41762163772015,380.7380738073807 L 33.92390751054358,381.18811881188117 L 33.02767903423763,381.2381238123812 L 32.629355266990544,380.98809880988097 L 32.795323503343496,380.18801880188016 L 33.45919644875531,379.2379237923792 L 33.59197103783767,378.08780878087805 L 33.45919644875531,377.78777877787775 L 31.26841572889633,375.53755375537554 L 29.841088896260935,375.33753375337534 L 26.7872733473666,375.73757375737574 L 25.52591475108416,374.7874787478748 L 24.098587918448764,375.23752375237524 L 22.67126108581337,375.43754375437544 L 22.04058178767215,374.1874187418742 L 20.779223191389704,374.5874587458746 L 19.28550906421313,374.73747374737474 L 18.02415046793069,374.4874487448745 L 15.26907774447167,371.2371237123712 L 13.941331853648045,368.8368836883688 L 12.945522435530329,366.33663366336634 L 12.48081137374206,363.986398639864 L 12.646779610095013,362.58625862586257 L 15.235884097201078,360.4360436043604 L 15.766982453530527,359.4359435943594 L 16.430855398942338,357.38573857385734 L 17.161115638895332,356.3856385638564 L 17.360277522518874,355.83558355835584 L 17.426664817060058,355.23552355235523 L 17.260696580707105,354.1354135413541 L 16.663210929836474,353.3353335333533 L 16.33127445713057,352.38523852385237 L 15.93295068988348,349.08490849084905 L 16.53043634075411,346.43464346434644 L 16.895566460730606,345.83458345834583 L 18.05734411520128,345.0845084508451 L 18.588442471530726,344.1344134413441 L 19.053153533318994,343.78437843784377 L 19.152734475130767,343.08430843084307 L 18.588442471530726,338.5338533853385 L 17.824988584307143,338.28382838283824 L 16.829179166189427,338.38383838383834 L 15.89975704261289,338.28382838283824 L 15.036722213577535,337.4837483748375 L 14.306461973624542,335.73357335733573 L 13.642589028212731,334.8834883488349 L 12.845941493718556,334.38343834383437 L 9.493383119388907,333.58335833583357 L 8.59715464308296,333.1333133313331 L 7.96647534494174,332.1332133213321 L 7.136634163176976,329.98299829982994 L 3.9500440252002798,324.9324932493249 L 2.954234607082562,324.1324132413241 L 0.6970665926824022,322.88228822882286 L 0.0,322.1322132213221 L 1.1617776544706704,319.4319431943194 L 44.346712753509024,271.67716771677163 L 47.367334655132765,272.37723772377234 L 48.86104878230934,272.4272427242724 L 52.877480102050804,272.17721772177214 L 54.50396881830974,271.6271627162716 L 55.93129565094514,270.8770877087709 L 56.927105069062854,270.72707270727074 L 60.74437450518077,271.2771277127713 L 62.072120396004394,271.02710271027104 L 63.49944722863979,269.82698269826983 L 63.997351937698646,269.82698269826983 L 64.66122488311046,270.2770277027703 L 65.45787241760463,271.6271627162716 L 65.95577712666349,272.027202720272 L 67.3831039592989,272.1272127212721 L 70.33733856638145,271.0771077107711 L 71.83105269355802,271.12711271127114 L 73.12560493711106,272.027202720272 L 75.84748401329948,274.77747774777475 L 77.07564896231133,275.37753775377536 L 79.89710898031154,276.1276127612761 L 80.79333745661748,275.87758775877586 L 81.42401675475871,274.27742774277425 L 82.38663252560583,273.37733773377335 L 85.44044807450017,274.47744774477445 L 86.0047400781002,273.7273727372737 L 88.32829538704155,268.5268526852685 L 90.2203332814652,270.42704270427043 L 93.40692341944191,272.87728772877284 L 94.90063754661848,274.47744774477445 L 96.42754532106565,277.977797779778 L 97.05822461920687,280.02800280028003 L 97.85487215370104,281.57815781578154 L 98.45235780457168,282.4282428242824 L 99.11623074998349,282.97829782978295 L 99.84649098993648,283.37833783378335 L 104.26124607692502,284.77847784778476 L 105.19066820050156,284.87848784878486 L 108.14490280758412,284.67846784678466 L 110.30248988017252,285.07850785078506 L 111.33149294556083,285.07850785078506 L 117.47231769062007,283.8283828382838 L 122.41817113393807,284.17841784178415 L 123.14843137389107,285.47854785478546 L 122.65052666483221,291.07910791079104 L 122.11942830850276,293.6293629362936 L 122.11942830850276,294.37943794379436 L 122.71691395937339,295.47954795479546 L 124.64214550106765,297.2297229722972 L 127.89512293358553,299.3799379937994 L 128.59218952626793,299.42994299429944 L 133.6376239113977,297.8797879787979 L 134.666626976786,297.7297729772977 L 136.127147456692,297.6797679767977 L 137.4880869947862,298.0798079807981 L 138.61667100198628,298.72987298729873 L 139.2141566528569,299.2799279927993 L 140.50870889640996,301.4301430143014 L 142.53352137991598,303.8303830383038 L 143.1973943253278,304.4304430443044 L 146.18482257968094,305.98059805980597 L 147.3797938814222,306.030603060306 L 148.84031436132818,304.9304930493049 L 150.26764119396358,303.030303030303 L 151.86093626295192,301.3301330133013 L 153.18868215377555,298.8798879887989 L 154.88155816457567,297.1797179717972 L 154.98113910638745,296.67966796679667 L 154.84836451730507,294.1294129412941 L 154.91475181184626,293.6293629362936 L 155.18030099001098,293.17931793179315 L 155.71139934634044,292.8292829282928 L 156.64082146991697,292.57925792579255 L 157.2715007680582,292.6292629262926 L 160.32531631695252,293.9293929392939 L 161.52028761869377,293.77937793779375 L 163.61148739674098,291.17911791179114 L 164.6072968148587,290.4790479047905 L 165.10520152391757,290.32903290329034 L 168.1258234255413,290.1790179017902 L 169.85189308361203,289.6789678967897 L 170.61534697083562,288.92889288928893 L 172.3414166289063,286.1286128612861 L 175.09648935236532,286.27862786278627 L 180.97176491925987,287.17871787178717 L 182.5982536355188,287.6787678767877 L 183.76003128998948,288.8788878887889 L 185.28693906443664,291.8291829182918 L 186.5151040134485,294.6294629462946 L 187.31175154794266,297.4297429742974 L 187.71007531518975,300.28002800280024 L 187.64368802064857,304.9304930493049 L 188.10839908243685,309.2809280928093 L 187.84284990427213,313.58135813581356 L 188.10839908243685,315.08150815081507 L 189.76808144596637,318.73187318731874 L 190.6643099222723,319.98199819981994 L 190.86347180589587,321.58215821582155 L 190.86347180589587,327.1827182718272 L 189.9340496823193,329.5329532953295 L 189.90085603504875,330.9330933093309 L 190.86347180589587,339.98399839983995 L 190.0336306241311,341.78417841784176 L 190.7306972168135,343.38433843384337 L 190.86347180589587,344.6344634463446 L 190.63111627500172,345.7845784578458 L 189.03782120601338,349.034903490349 L 188.73907838057806,354.1354135413541 L 187.80965625700154,354.1854185418542 L 186.91342778069557,354.5854585458546 L 186.24955483528376,353.7353735373537 L 185.55248824260136,353.28532853285327 L 183.49448211182474,351.38513851385136 L 183.0297710500365,351.8351835183518 L 187.51091343156622,358.2358235823582 L 187.71007531518975,358.98589858985895 L 186.5151040134485,359.48594859485945 L 185.65206918441314,359.3359335933593 L 185.35332635897782,359.1359135913591 L 184.7890343553778,359.18591859185915 L 180.1419237374951,361.5361536153615 L 178.71459690485972,361.98619861986197 L 175.32884488325948,362.1362136213621 L 174.1006799342476,362.4362436243624 L 173.53638793064758,363.6363636363636 L 174.39942275968292,371.3371337133713 L 174.2002608760594,372.3872387238724 L 173.1048705161299,374.33743374337433 L 171.6775436834945,377.98779877987795 L 171.11325167989446,378.037803780378 L 168.95566460730606,377.48774877487745 L 167.92666154191775,377.5377537753775 L 166.7316902401765,377.88778877887785 L 165.60310623297642,378.78787878787875 L 165.20478246572935,379.68796879687966 L 164.87284599302345,382.7882788278828 L 164.2089730476116,383.8883888388839 L 162.41651609499974,384.4884488448845 L 161.65306220777614,384.3884388438844 L 159.59505607699953,382.5382538253825 L 158.40008477525828,382.3382338233823 L 157.50385629895231,382.3882388238824 L 156.70720876445816,382.5382538253825 L 154.25087886643445,383.43834383438343 L 152.75716473925786,384.2884288428843 L 151.09748237572833,384.63846384638464 L 150.1348666048812,385.0885088508851 L 149.93570472125768,385.88858885888584 L 150.06847931034002,387.038703870387 L 151.39622520116365,391.3391339133913 L 151.42941884843424,392.73927392739273 L 147.77811764866928,394.33943394339434 L 144.75749574704554,395.0895089508951 L 143.69529903438664,395.03950395039504 L 142.96503879443364,394.73947394739474 L 142.33435949629242,394.13941394139414 L 141.7700674926924,392.1892189218922 L 139.5128994782922,390.48904890489047 L 138.78263923833924,390.4390439043904 L 137.78682982022153,390.6390639063906 L 133.73720485320948,391.989198919892 L 132.77458908236233,392.7892789278928 L 132.30987802057408,392.989298929893 L 131.8451669587858,393.0893089308931 L 129.91993541709155,392.989298929893 L 128.99051329351502,393.4893489348935 L 122.94926949026753,399.6399639963996 L 115.48069885438464,401.5401540154015 L 105.68857290956042,406.89068906890685 L 104.06208419330149,406.8406840684068 L 102.03727170979546,406.3406340634063 L 101.2074305280307,405.9405940594059 L 100.70952581897183,405.49054905490544 L 100.34439569899534,404.24042404240424 L 100.01245922628944,403.7903790379038 L 98.7179069827364,402.44024402440243 L 98.08722768459518,401.4901490149015 L 97.19099920828923,400.7400740074007 L 95.96283425927739,400.69006900690067 L 93.27414883035954,401.6401640164016 L 92.21195211770065,401.4901490149015 L 91.24933634685351,400.7900790079008 L 90.68504434325348,399.9399939993999 L 89.75562221967694,399.039903990399 L 89.29091115788867,398.68986898689866 L 88.39468268158272,398.4398439843984 L 86.0047400781002,399.039903990399 L 83.913540300053,400.0400040004 L 81.95511511108815,400.3400340034003 L 81.02569298751162,400.0400040004 L 80.49459463118217,400.1400140014001 L 79.96349627485272,400.4400440044004 L 78.40339485313496,401.94019401940193 L 76.31219507508776,403.1903190319032 L 73.88905882433464,404.14041404140414 L 72.76047481713456,404.44044404440444 L 70.80204962816971,404.1904190419042 z" /><path fill-rule="evenodd" fill="#D2EBD9" stroke="#A6A6A6" stroke-width="0.25" opacity="1" d="M 88.32829538704155,268.5268526852685 L 89.1913302160769,267.5267526752675 L 90.5854634014417,266.47664766476646 L 95.46492955021851,263.8263826382638 L 95.5645104920303,261.8761876187619 L 94.36953919028903,257.77577757775776 L 94.30315189574785,255.17551755175515 L 93.10818059400658,250.67506750675065 L 92.94221235765363,246.6246624662466 L 91.97959658680651,243.62436243624362 L 92.27833941224182,240.67406740674065 L 92.11237117588887,239.37393739373937 L 91.14975540504174,237.1237123712371 L 89.22452386334749,234.27342734273427 L 88.859393743371,233.47334733473346 L 88.39468268158272,231.4231423142314 L 87.7640033834415,230.77307730773077 L 87.16651773257088,230.57305730573057 L 85.20809254360603,230.47304730473047 L 83.41563559099414,228.5228522852285 L 83.1832800601,227.2227222722272 L 83.51521653280591,225.97259725972597 L 84.2786704200295,224.97249724972497 L 85.34086713268839,224.4224422442244 L 86.13751466718257,224.27242724272426 L 86.76819396532379,224.27242724272426 L 87.13332408530029,224.57245724572456 L 87.29929232165324,225.32253225322532 L 87.66442244162974,225.87258725872587 L 88.39468268158272,225.82258225822582 L 89.12494292153572,225.47254725472547 L 89.49007304151222,224.97249724972497 L 89.85520316148872,223.7223722372237 L 90.55226975417112,223.5223522352235 L 92.90901871038305,224.022402240224 L 94.53550742664198,223.47234723472346 L 95.36534860840675,223.37233723372336 L 96.02922155381856,224.37243724372436 L 96.69309449923037,224.57245724572456 L 97.48974203372454,224.5224522452245 L 98.15361497913636,224.37243724372436 L 98.75110063000699,223.97239723972396 L 100.07884652083061,222.37223722372235 L 100.70952581897183,222.4222422242224 L 102.03727170979546,223.07230723072306 L 102.90030653883082,223.07230723072306 L 103.16585571699554,222.8222822282228 L 102.99988748064258,221.97219721972195 L 103.2654366588073,221.5221522152215 L 104.59318254963092,221.42214221422142 L 106.05370302953692,221.02210221022102 L 106.61799503313696,221.17211721172117 L 107.182287036737,221.77217721772175 L 108.07851551304294,220.62206220622062 L 112.02855953824323,218.37183718371836 L 113.65504825450216,216.62166216621662 L 115.21514967621992,216.27162716271627 L 115.48069885438464,216.07160716071607 L 115.44750520711405,215.42154215421542 L 116.24415274160823,215.52155215521552 L 118.73367628690252,215.27152715271527 L 120.09461582499674,215.47154715471547 L 120.75848877040855,215.77157715771577 L 121.289587126738,216.12161216121612 L 122.01984736669098,217.021702170217 L 124.21062808654996,221.47214721472147 L 125.30601844647946,222.9222922292229 L 125.8703104500795,223.4223422342234 L 127.46360551906784,224.3224322432243 L 128.89093235170324,224.72247224722472 L 130.35145283160924,224.17241724172416 L 132.1771034314917,219.67196719671966 L 132.44265260965642,218.5218521852185 L 132.44265260965642,217.67176717671765 L 131.74558601697402,216.77167716771675 L 131.1481003661034,214.5214521452145 L 131.24768130791517,211.62116211621162 L 131.74558601697402,208.7208720872087 L 131.71239236970345,208.1208120812081 L 131.4468431915387,207.5207520752075 L 130.25187188979746,205.97059705970597 L 129.91993541709155,205.07050705070506 L 129.91993541709155,204.4204420442044 L 130.15229094798568,203.8203820382038 L 130.65019565704455,203.17031703170315 L 131.67919872243286,202.37023702370237 L 133.90317308956242,201.32013201320132 L 135.86159827852725,200.7200720072007 L 145.02304492521026,200.4200420042004 L 149.00628259768112,201.07010701070107 L 151.86093626295192,200.8200820082008 L 152.82355203379905,201.07010701070107 L 155.8441739354228,202.6202620262026 L 156.77359605899932,202.87028702870285 L 157.6034372407641,202.8202820282028 L 158.10134194982297,202.6202620262026 L 158.665633953423,202.07020702070207 L 159.29631325156421,200.47004700470046 L 159.89379890243484,198.06980698069805 L 160.29212266968193,197.31973197319732 L 164.906039640294,191.36913691369136 L 165.9682363529529,190.5190519051905 L 166.93085212380004,190.26902690269026 L 169.9182803781532,190.3190319031903 L 170.68173426537678,190.66906690669066 L 171.71073733076508,191.51915191519151 L 173.56958157791817,193.4193419341934 L 174.8309401742006,195.06950695069506 L 183.89280587907183,203.07030703070305 L 185.61887553714254,205.87058705870587 L 186.64787860253085,207.07070707070707 L 187.61049437337797,207.87078707870785 L 189.00462755874278,208.7208720872087 L 191.26179557314293,209.67096709670966 L 193.41938264573133,209.7209720972097 L 194.48157935839023,209.47094709470946 L 199.65978833260237,207.27072707270725 L 199.9253375107671,208.7208720872087 L 202.64721658695552,216.07160716071607 L 203.84218788869677,220.57205720572057 L 209.58468886650894,230.67306730673067 L 210.31494910646194,233.2233223322332 L 204.37328624502624,231.9231923192319 L 194.18283653295492,231.8231823182318 L 191.0294400422488,232.3232323232323 L 189.635306856884,232.8232823282328 L 187.51091343156622,234.07340734073406 L 184.58987247175423,235.02350235023502 L 183.3285138754718,235.67356735673567 L 181.70202515921287,237.9237923792379 L 180.70621574109515,240.8240824082408 L 179.74359997024803,241.87418741874185 L 176.6565907740831,240.97409740974095 L 175.76036229777714,242.1242124212421 L 174.03429263970642,251.77517751775176 L 172.3746102761769,256.07560756075605 L 172.24183568709455,258.87588758875887 L 173.90151805062408,268.6268626862686 L 173.96790534516526,273.5273527352735 L 173.53638793064758,274.57745774577455 L 172.772934043424,275.37753775377536 L 169.61953755271787,280.12801280128014 L 169.9182803781532,280.62806280628064 L 170.05105496723556,282.5282528252825 L 171.37880085805918,285.7285728572857 L 172.3414166289063,286.1286128612861 L 170.61534697083562,288.92889288928893 L 169.85189308361203,289.6789678967897 L 168.1258234255413,290.1790179017902 L 165.10520152391757,290.32903290329034 L 164.6072968148587,290.4790479047905 L 163.61148739674098,291.17911791179114 L 161.52028761869377,293.77937793779375 L 160.32531631695252,293.9293929392939 L 157.2715007680582,292.6292629262926 L 156.64082146991697,292.57925792579255 L 155.71139934634044,292.8292829282928 L 155.18030099001098,293.17931793179315 L 154.91475181184626,293.6293629362936 L 154.84836451730507,294.1294129412941 L 154.98113910638745,296.67966796679667 L 154.88155816457567,297.1797179717972 L 153.18868215377555,298.8798879887989 L 151.86093626295192,301.3301330133013 L 150.26764119396358,303.030303030303 L 148.84031436132818,304.9304930493049 L 147.3797938814222,306.030603060306 L 146.18482257968094,305.98059805980597 L 143.1973943253278,304.4304430443044 L 142.53352137991598,303.8303830383038 L 140.50870889640996,301.4301430143014 L 139.2141566528569,299.2799279927993 L 138.61667100198628,298.72987298729873 L 137.4880869947862,298.0798079807981 L 136.127147456692,297.6797679767977 L 134.666626976786,297.7297729772977 L 133.6376239113977,297.8797879787979 L 128.59218952626793,299.42994299429944 L 127.89512293358553,299.3799379937994 L 124.64214550106765,297.2297229722972 L 122.71691395937339,295.47954795479546 L 122.11942830850276,294.37943794379436 L 122.11942830850276,293.6293629362936 L 122.65052666483221,291.07910791079104 L 123.14843137389107,285.47854785478546 L 122.41817113393807,284.17841784178415 L 117.47231769062007,283.8283828382838 L 111.33149294556083,285.07850785078506 L 110.30248988017252,285.07850785078506 L 108.14490280758412,284.67846784678466 L 105.19066820050156,284.87848784878486 L 104.26124607692502,284.77847784778476 L 99.84649098993648,283.37833783378335 L 99.11623074998349,282.97829782978295 L 98.45235780457168,282.4282428242824 L 97.85487215370104,281.57815781578154 L 97.05822461920687,280.02800280028003 L 96.42754532106565,277.977797779778 L 94.90063754661848,274.47744774477445 L 93.40692341944191,272.87728772877284 L 90.2203332814652,270.42704270427043 L 88.32829538704155,268.5268526852685 z" /><path fill-rule="evenodd" fill="#D2EBD9" stroke="#A6A6A6" stroke-width="0.25" opacity="1" d="M 115.44750520711405,215.42154215421542 L 115.44750520711405,214.9214921492149 L 115.01598779259638,213.3213321332133 L 112.69243248365504,210.92109210921092 L 111.99536589097264,209.67096709670966 L 112.7920134254668,208.57085708570855 L 112.92478801454916,208.1208120812081 L 112.02855953824323,206.52065206520652 L 111.82939765461968,205.3205320532053 L 111.99536589097264,203.97039703970395 L 112.75881977819621,202.22022202220222 L 113.8874037853963,201.37013701370137 L 116.77525109793767,200.47004700470046 L 118.20257793057307,199.3199319931993 L 118.03660969422012,198.36983698369835 L 117.27315580699654,197.21972197219722 L 117.073993923373,195.66956695669566 L 117.70467322151421,194.6194619461946 L 119.99503488318496,192.46924692469247 L 120.9576506540321,190.7190719071907 L 121.6547172467145,190.01900190019 L 121.58832995217331,188.26882688268824 L 122.01984736669098,188.01880188018802 L 124.8081137374206,187.66876687668767 L 125.60476127191477,187.36873687368737 L 126.10266598097363,186.81868186818681 L 126.2022469227854,186.16861686168616 L 126.10266598097363,185.66856685668566 L 125.73753586099713,185.3185318531853 L 125.07366291558532,185.2185218521852 L 123.81230431930288,184.7184718471847 L 122.55094572302043,183.4183418341834 L 121.58832995217331,181.86818681868186 L 121.15681253765564,180.46804680468045 L 121.6547172467145,177.81778177817782 L 121.42236171582036,176.86768676867686 L 120.09461582499674,175.86758675867586 L 117.33954310153771,174.6174617461746 L 116.47650827250236,173.76737673767377 L 115.91221626890233,172.06720672067206 L 115.91221626890233,170.06700670067005 L 115.51389250165523,169.26692669266924 L 114.9164068507846,168.81688168816882 L 113.38949907633743,168.11681168116812 L 110.83358823650197,165.76657665766575 L 105.29024914231333,163.81638163816382 L 103.56417948424263,161.96619661966196 L 103.56417948424263,159.96599659965995 L 104.59318254963092,158.46584658465846 L 105.82134749864278,157.06570657065706 L 106.38563950224282,155.36553655365535 L 105.22386184777216,152.56525652565256 L 105.02469996414861,151.36513651365135 L 106.18647761861928,151.8151815181518 L 105.88773479318397,148.5148514851485 L 106.41883314951342,147.16471647164715 L 106.35244585497223,146.7146714671467 L 106.02050938226633,146.4146414641464 L 104.92511902233684,146.2146214621462 L 104.19485878238385,143.9143914391439 L 102.13685265160723,140.36403640364037 L 101.24062417530128,137.3137313731373 L 99.94607193174825,135.71357135713572 L 99.94607193174825,134.86348634863486 L 100.70952581897183,133.76337633763376 L 100.8423004080542,133.3133313331333 L 100.67633217170125,133.06330633063305 L 99.61413545904234,132.76327632763275 L 99.71371640085411,132.3132313231323 L 100.21162110991297,131.6131613161316 L 100.27800840445416,131.16311631163114 L 100.07884652083061,130.71307130713072 L 98.85068157181875,130.06300630063006 L 97.05822461920687,127.11271127112711 L 96.39435167379506,125.46254625462545 L 96.06241520108915,123.8123812381238 L 96.32796437925387,119.91199119911991 L 96.12880249563034,118.5118511851185 L 94.73466931026553,112.96129612961296 L 94.30315189574785,101.9101910191019 L 94.56870107391258,100.61006100610061 L 96.69309449923037,96.45964596459645 L 96.29477073198329,95.05950595059505 L 97.75529121188927,94.2094209420942 L 98.31958321548932,93.05930593059306 L 98.65151968819522,90.4090409040904 L 100.60994487716006,86.008600860086 L 100.97507499713656,82.35823582358235 L 100.27800840445416,81.2081208120812 L 100.17842746264239,80.6080608060806 L 100.87549405532478,79.30793079307931 L 102.13685265160723,78.4078407840784 L 104.82553808052506,77.00770077007701 L 106.91673785857228,75.2075207520752 L 108.37725833847826,74.65746574657466 L 110.30248988017252,74.45744574457446 L 111.7630103600785,72.8072807280728 L 111.86259130189028,70.5070507050705 L 111.49746118191378,67.9067906790679 L 111.53065482918436,65.35653565356536 L 112.16133412732559,63.356335633563354 L 112.19452777459618,62.65626562656265 L 111.96217224370204,62.006200620062 L 111.19871835647845,60.8060806080608 L 110.99955647285492,60.106010601060106 L 111.09913741466669,59.2059205920592 L 111.86259130189028,57.8057805780578 L 112.06175318551381,57.05570557055705 L 111.53065482918436,54.8054805480548 L 111.63023577099614,52.4052405240524 L 110.46845811652547,50.405040504050405 L 110.23610258563133,49.65496549654965 L 110.30248988017252,47.05470547054705 L 110.60123270560783,45.704570457045705 L 111.23191200374904,44.95449544954495 L 112.06175318551381,44.9044904490449 L 113.42269272360802,45.4045404540454 L 114.18614661083161,45.35453545354535 L 116.74205745066709,44.354435443544354 L 117.57189863243185,44.15441544154415 L 118.00341604694952,44.3044304430443 L 118.20257793057307,44.2044204420442 L 118.26896522511426,43.354335433543355 L 116.84163839247886,40.6040604060406 L 115.74624803254937,39.15391539153915 L 115.87902262163173,38.603860386038605 L 117.33954310153771,37.05370537053705 L 118.66728899236134,36.203620362036204 L 119.43074287958493,36.003600360036 L 120.79168241767914,36.103610361036104 L 123.18162502116166,36.55365536553655 L 124.60895185379705,36.103610361036104 L 126.00308503916186,34.953495349534954 L 127.89512293358553,31.853185318531853 L 129.02370694078562,30.4030403040304 L 131.1481003661034,28.752875287528752 L 131.7787796642446,28.05280528052805 L 133.10652555506823,25.7025702570257 L 133.70401120593888,24.95249524952495 L 134.86578886040954,24.75247524752475 L 135.19772533311544,24.552455245524552 L 136.19353475123316,22.802280228022802 L 136.99018228572734,22.6022602260226 L 138.38431547109215,23.002300230023 L 138.98180112196277,22.902290229022903 L 139.77844865645696,21.85218521852185 L 140.20996607097462,19.45194519451945 L 141.43813101998649,18.701870187018702 L 142.00242302358652,18.001800180018 L 143.4629435034925,14.75147514751475 L 144.29278468525726,13.6013601360136 L 145.48775598699854,12.95129512951295 L 149.8361237794459,11.55115511551155 L 161.08877020417611,9.55095509550955 L 164.10939210579986,8.4008400840084 L 165.50352529116466,7.650765076507651 L 166.7316902401765,6.65066506650665 L 167.827080600106,5.05050505050505 L 168.1590170728119,3.55035503550355 L 168.75650272368253,2.15021502150215 L 170.48257238175324,0.7500750075007501 L 171.84351191984746,0.2000200020002 L 173.0716768688593,0.0 L 174.26664817060058,0.1000100010001 L 175.6275877086948,0.4000400040004 L 177.25407642495372,1.05010501050105 L 178.54862866850675,1.9501950195019502 L 179.61082538116565,3.1503150315031503 L 181.5028632755893,5.8505850585058505 L 182.2663171628129,6.450645064506451 L 183.2953202282012,6.55065506550655 L 190.16640521321347,5.8505850585058505 L 191.7597002822018,6.85068506850685 L 192.4567668748842,6.4006400640064 L 192.72231605304893,6.0006000600060005 L 193.78451276570783,5.45054505450545 L 194.34880476930786,5.5005500550055 L 196.44000454735507,8.8008800880088 L 196.90471560914335,10.00100010001 L 196.83832831460217,11.65116511651165 L 196.40681090008448,13.05130513051305 L 195.14545230380205,15.7015701570157 L 194.68074124201377,17.1017101710171 L 195.51058242377854,18.101810181018102 L 196.04168078010798,22.15221522152215 L 196.60597278370804,23.7023702370237 L 198.99591538719056,27.1027102710271 L 201.91695634700253,30.053005300530053 L 202.64721658695552,31.153115311531153 L 206.06616225582636,39.15391539153915 L 208.88762227382654,43.354335433543355 L 211.34395217185025,48.054805480548055 L 222.0986938875216,78.1078107810781 L 226.7126108581337,87.05870587058705 L 227.57564568716904,89.4089408940894 L 227.87438851260436,90.65906590659066 L 228.04035674895732,94.05940594059406 L 227.31009650900432,102.76027602760276 L 227.31009650900432,103.76037603760375 L 227.60883933443964,105.21052105210521 L 228.67103604709854,107.26072607260726 L 233.94882596312243,114.36143614361436 L 234.18118149401658,114.86148614861486 L 233.94882596312243,116.16161616161615 L 229.70003911248685,126.2126212621262 L 222.59659859658046,136.4136413641364 L 221.86633835662747,138.5138513851385 L 221.46801458938037,140.46404640464047 L 221.30204635302744,142.26422642264225 L 221.66717647300393,145.36453645364534 L 221.63398282573334,146.6146614661466 L 219.310427516792,155.66556655665565 L 219.34362116406257,157.2157215721572 L 219.14445928043904,158.76587658765877 L 216.62174208787417,164.16641664166417 L 210.31494910646194,173.51735173517352 L 209.7838507501325,174.6174617461746 L 209.25275239380304,176.06760676067606 L 207.16155261575582,184.76847684768475 L 206.99558437940289,186.81868186818681 L 207.49348908846173,188.76887688768875 L 207.49348908846173,190.26902690269026 L 204.77161001227333,199.66996699669966 L 200.6555977507201,205.3205320532053 L 199.65978833260237,207.27072707270725 L 194.48157935839023,209.47094709470946 L 193.41938264573133,209.7209720972097 L 191.26179557314293,209.67096709670966 L 189.00462755874278,208.7208720872087 L 187.61049437337797,207.87078707870785 L 186.64787860253085,207.07070707070707 L 185.61887553714254,205.87058705870587 L 183.89280587907183,203.07030703070305 L 174.8309401742006,195.06950695069506 L 173.56958157791817,193.4193419341934 L 171.71073733076508,191.51915191519151 L 170.68173426537678,190.66906690669066 L 169.9182803781532,190.3190319031903 L 166.93085212380004,190.26902690269026 L 165.9682363529529,190.5190519051905 L 164.906039640294,191.36913691369136 L 160.29212266968193,197.31973197319732 L 159.89379890243484,198.06980698069805 L 159.29631325156421,200.47004700470046 L 158.665633953423,202.07020702070207 L 158.10134194982297,202.6202620262026 L 157.6034372407641,202.8202820282028 L 156.77359605899932,202.87028702870285 L 155.8441739354228,202.6202620262026 L 152.82355203379905,201.07010701070107 L 151.86093626295192,200.8200820082008 L 149.00628259768112,201.07010701070107 L 145.02304492521026,200.4200420042004 L 135.86159827852725,200.7200720072007 L 133.90317308956242,201.32013201320132 L 131.67919872243286,202.37023702370237 L 130.65019565704455,203.17031703170315 L 130.15229094798568,203.8203820382038 L 129.91993541709155,204.4204420442044 L 129.91993541709155,205.07050705070506 L 130.25187188979746,205.97059705970597 L 131.4468431915387,207.5207520752075 L 131.71239236970345,208.1208120812081 L 131.74558601697402,208.7208720872087 L 131.24768130791517,211.62116211621162 L 131.1481003661034,214.5214521452145 L 131.74558601697402,216.77167716771675 L 132.44265260965642,217.67176717671765 L 132.44265260965642,218.5218521852185 L 132.1771034314917,219.67196719671966 L 130.35145283160924,224.17241724172416 L 128.89093235170324,224.72247224722472 L 127.46360551906784,224.3224322432243 L 125.8703104500795,223.4223422342234 L 125.30601844647946,222.9222922292229 L 124.21062808654996,221.47214721472147 L 122.01984736669098,217.021702170217 L 121.289587126738,216.12161216121612 L 120.75848877040855,215.77157715771577 L 120.09461582499674,215.47154715471547 L 118.73367628690252,215.27152715271527 L 116.24415274160823,215.52155215521552 L 115.44750520711405,215.42154215421542 z" /><path fill-rule="evenodd" fill="#D2EBD9" stroke="#A6A6A6" stroke-width="0.25" opacity="1" d="M 176.6565907740831,439.0939093909391 L 173.1048705161299,444.09440944094405 L 169.61953755271787,446.8446844684468 L 160.3917036114937,457.19571957195717 L 156.74040241172875,460.5960596059606 L 155.7777866408816,461.94619461946195 L 150.69915860848124,465.9465946594659 L 138.35112182382156,473.29732973297325 L 131.18129401337399,478.44784478447843 L 125.00727562104414,481.29812981298124 L 120.559326886785,483.9483948394839 L 118.40173981419662,485.79857985798577 L 117.073993923373,486.6986698669867 L 114.31892119991397,487.54875487548753 L 111.92897859643145,489.44894489448944 L 110.80039458923137,489.94899489948995 L 109.20709952024302,489.6989698969897 L 109.04113128389007,488.7988798879888 L 109.87097246565483,486.9486948694869 L 110.43526446925488,486.1486148614861 L 114.51808308353752,483.9483948394839 L 120.75848877040855,479.5979597959796 L 125.80392315553831,477.54775477547753 L 128.65857682080912,475.6475647564756 L 131.01532577702105,473.3473347334733 L 132.5754271987388,470.7970797079708 L 126.53418339549131,475.99759975997597 L 125.1400502101265,477.5977597759776 L 121.35597442127917,478.34783478347833 L 120.9244570067615,478.2978297829783 L 120.65890782859677,478.44784478447843 L 120.559326886785,478.997899789979 L 119.829066646832,480.14801480148014 L 117.83744781059657,480.5980598059806 L 115.87902262163173,481.6481648164816 L 112.19452777459618,484.3484348434843 L 110.50165176379606,485.19851985198517 L 107.182287036737,486.0986098609861 L 105.25705549504275,487.0987098709871 L 102.73433830247785,489.54895489548954 L 98.88387521908935,495.4995499549955 L 96.46073896833624,497.8997899789979 L 94.23676460120667,499.3999399939994 L 92.90901871038305,500.0 L 97.05822461920687,493.8493849384938 L 104.06208419330149,485.9485948594859 L 106.78396326948992,481.5481548154815 L 106.71757597494873,480.14801480148014 L 105.85454114591337,478.64786478647864 L 104.55998890236035,477.4477447744774 L 103.16585571699554,476.997699769977 L 101.77172253163073,476.8976897689769 L 98.38597051003049,476.1476147614761 L 97.22419285555982,475.59755975597557 L 96.49393261560682,474.7474747474747 L 94.76786295753612,473.39733973397335 L 94.26995824847727,472.3472347234723 L 94.26995824847727,471.34713471347135 L 94.4691201321008,470.5970597059706 L 94.36953919028903,469.7969796979698 L 93.57289165579486,468.74687468746873 L 93.00859965219482,466.046604660466 L 92.31153305951241,464.8464846484648 L 91.18294905231234,464.1464146414641 L 89.72242857240634,464.09640964096405 L 87.03374314348851,464.3464346434643 L 85.60641631085312,463.89638963896385 L 84.21228312548831,462.8462846284628 L 81.95511511108815,460.74607460746074 L 78.70213767857028,459.4959495949595 L 77.2084235513937,457.4457445744574 L 75.94706495511126,456.29562956295626 L 72.69408752259338,454.045404540454 L 71.2003733954168,452.69526952695264 L 70.66927503908735,451.14511451145114 L 69.00959267555783,449.8949894989499 L 66.05535806847526,449.5949594959496 L 60.34605073793368,449.6949694969497 L 58.81914296348651,449.1949194919492 L 57.85652719263939,448.2948294829483 L 56.52878130181576,445.7445744574457 L 55.001873527368595,443.9443944394439 L 54.66993705466269,443.29432943294324 L 54.83590529101564,440.6940694069407 L 53.80690222562734,438.8438843884388 L 53.97287046198029,437.8437843784378 L 53.70732128381557,436.9436943694369 L 53.07664198567434,436.49364936493646 L 52.11402621482722,436.6436643664366 L 51.64931515303895,436.3436343634363 L 50.0560200840506,433.6433643364336 L 48.993823371391706,432.34323432343234 L 45.94000782249737,431.34313431343134 L 44.97739205165024,429.5929592959296 L 45.04377934619142,428.5428542854285 L 45.44210311343851,427.5427542754275 L 47.00220453515627,424.69246924692465 L 48.79466148776816,424.1424142414241 L 49.724083611344696,423.4923492349235 L 49.98963278950942,422.992299229923 L 49.92324549496824,421.5921592159216 L 50.221988320403554,420.94209420942093 L 51.848477036662494,419.99199919992 L 53.07664198567434,417.19171917191716 L 53.67412763654497,416.29162916291625 L 53.80690222562734,415.19151915191514 L 53.64093398927439,414.69146914691464 L 53.34219116383907,414.1914191419142 L 51.71570244758013,412.6912691269127 L 50.85266761854478,410.8910891089109 L 50.885861265815365,408.8408840884088 L 51.88167068393308,406.79067906790675 L 57.32542883630994,402.34023402340233 L 58.188463665345296,402.34023402340233 L 59.68217779252187,405.040504050405 L 60.77756815245136,406.09060906090605 L 62.238088632357346,406.6406640664066 L 63.96415829042806,406.6406640664066 L 66.2545199520988,405.49054905490544 L 69.20875455918137,405.5405540554055 L 70.00540209367554,405.09050905090504 L 70.80204962816971,404.1904190419042 L 72.76047481713456,404.44044404440444 L 73.88905882433464,404.14041404140414 L 76.31219507508776,403.1903190319032 L 78.40339485313496,401.94019401940193 L 79.96349627485272,400.4400440044004 L 80.49459463118217,400.1400140014001 L 81.02569298751162,400.0400040004 L 81.95511511108815,400.3400340034003 L 83.913540300053,400.0400040004 L 86.0047400781002,399.039903990399 L 88.39468268158272,398.4398439843984 L 89.29091115788867,398.68986898689866 L 89.75562221967694,399.039903990399 L 90.68504434325348,399.9399939993999 L 91.24933634685351,400.7900790079008 L 92.21195211770065,401.4901490149015 L 93.27414883035954,401.6401640164016 L 95.96283425927739,400.69006900690067 L 97.19099920828923,400.7400740074007 L 98.08722768459518,401.4901490149015 L 98.7179069827364,402.44024402440243 L 100.01245922628944,403.7903790379038 L 100.34439569899534,404.24042404240424 L 100.70952581897183,405.49054905490544 L 101.2074305280307,405.9405940594059 L 102.03727170979546,406.3406340634063 L 104.06208419330149,406.8406840684068 L 105.68857290956042,406.89068906890685 L 115.48069885438464,401.5401540154015 L 122.94926949026753,399.6399639963996 L 128.99051329351502,393.4893489348935 L 129.91993541709155,392.989298929893 L 131.8451669587858,393.0893089308931 L 132.30987802057408,392.989298929893 L 132.77458908236233,392.7892789278928 L 133.73720485320948,391.989198919892 L 137.78682982022153,390.6390639063906 L 138.78263923833924,390.4390439043904 L 139.5128994782922,390.48904890489047 L 141.7700674926924,392.1892189218922 L 142.33435949629242,394.13941394139414 L 142.96503879443364,394.73947394739474 L 143.69529903438664,395.03950395039504 L 144.75749574704554,395.0895089508951 L 147.77811764866928,394.33943394339434 L 151.42941884843424,392.73927392739273 L 151.36303155389305,393.4893489348935 L 150.00209201579884,398.48984898489846 L 149.8693174267165,399.4399439943994 L 150.06847931034002,401.3401340134013 L 153.81936145191676,412.84128412841284 L 154.7487835754933,414.04140414041404 L 156.97275794262288,415.9415941594159 L 157.07233888443466,416.59165916591655 L 156.8399833535405,417.69176917691766 L 155.0807200481992,420.6420642064206 L 154.91475181184626,421.6921692169217 L 155.34626922636394,422.4922492249225 L 156.1097231135875,423.4923492349235 L 160.126154433329,427.69276927692766 L 161.1219638514467,428.2428242824282 L 169.35398837455315,431.64316431643164 L 170.78131520718856,432.54325432543254 L 173.3704196942946,434.9434943494349 L 176.6565907740831,439.0939093909391 z" /><g><path fill-rule="evenodd" fill="#D2EBD9" stroke="#A6A6A6" stroke-width="0.25" opacity="1" d="M 203.80899424142618,391.8891889188919 L 201.717794463379,391.989198919892 L 201.08711516523775,391.8891889188919 L 200.2240803362024,390.7390739073907 L 199.1950772708141,389.9389938993899 L 198.4980106781317,388.58885888588856 L 198.066493263614,387.038703870387 L 198.26565514723757,385.88858885888584 L 199.5934010380612,387.3387338733873 L 202.97915305966143,388.3388338833883 L 206.76322884850876,391.1391139113911 L 206.8628097903205,391.4391439143914 L 203.80899424142618,391.8891889188919 z" /><path fill-rule="evenodd" fill="#D2EBD9" stroke="#A6A6A6" stroke-width="0.25" opacity="1" d="M 194.2824174747667,392.2892289228923 L 193.02105887848424,391.8891889188919 L 188.40714190787216,389.38893889388936 L 187.14578331158972,388.4388438843884 L 186.58149130798967,387.58875887588755 L 186.08358659893082,384.2884288428843 L 185.55248824260136,383.03830383038303 L 185.0877771808131,382.7382738273827 L 183.6272567009071,382.5882588258826 L 182.39909175189527,382.2382238223822 L 181.70202515921287,381.78817881788177 L 181.1709268028834,381.2381238123812 L 179.17930796664797,378.1378137813781 L 178.61501596304794,377.58775877587755 L 175.9927178286713,376.1876187618762 L 173.1048705161299,374.33743374337433 L 174.2002608760594,372.3872387238724 L 174.39942275968292,371.3371337133713 L 173.53638793064758,363.6363636363636 L 174.1006799342476,362.4362436243624 L 175.32884488325948,362.1362136213621 L 178.71459690485972,361.98619861986197 L 180.1419237374951,361.5361536153615 L 184.7890343553778,359.18591859185915 L 185.35332635897782,359.1359135913591 L 185.65206918441314,359.3359335933593 L 186.5151040134485,359.48594859485945 L 187.71007531518975,358.98589858985895 L 188.10839908243685,360.48604860486046 L 188.10839908243685,372.5872587258726 L 188.2411736715192,373.3373337333733 L 188.87185296966044,374.1874187418742 L 189.00462755874278,374.8874887488749 L 188.87185296966044,379.3379337933793 L 189.00462755874278,380.78807880788077 L 190.63111627500172,384.83848384838484 L 190.99624639497821,387.48874887488745 L 191.4609574567665,388.8388838883888 L 192.1912176967195,390.18901890189017 L 193.2202207621078,391.4391439143914 L 194.2824174747667,392.2892289228923 z" /><path fill-rule="evenodd" fill="#D2EBD9" stroke="#A6A6A6" stroke-width="0.25" opacity="1" d="M 190.13321156594287,357.3357335733573 L 190.13321156594287,357.4357435743574 L 191.59373204584887,356.4856485648565 L 195.37780783469617,350.6350635063506 L 196.24084266373154,349.6349634963496 L 196.90471560914335,348.98489848984894 L 199.65978833260237,347.23472347234724 L 202.28208646697902,344.2844284428443 L 203.51025141599087,341.58415841584156 L 203.77580059415558,339.4339433943394 L 204.90438460135567,335.6335633563356 L 204.8048036595439,334.6334633463346 L 205.40228931041455,334.4334433443344 L 208.3897175647677,334.2334233423342 L 209.65107616105013,333.78337833783377 L 210.8460474627914,333.033303330333 L 211.94143782272087,334.7834783478348 L 212.00782511726206,335.6835683568357 L 210.94562840460316,338.7338733873387 L 209.88343169194425,340.88408840884085 L 209.88343169194425,341.3341334133413 L 211.14479028822672,343.88438843884387 L 211.44353311366203,345.53455345534553 L 211.1779839354973,346.2846284628463 L 209.4519142774266,348.08480848084804 L 208.82123497928538,349.78497849784975 L 208.7216540374736,351.035103510351 L 209.7838507501325,353.9353935393539 L 209.71746345559131,354.83548354835483 L 208.88762227382654,357.1857185718572 L 208.92081592109713,357.68576857685764 L 209.18636509926185,358.38583858385834 L 210.01620628102663,359.4359435943594 L 212.50572982632093,361.9361936193619 L 213.07002182992096,362.68626862686267 L 216.62174208787417,369.6369636963696 L 217.38519597509773,371.5371537153715 L 217.31880868055654,372.4872487248725 L 216.8540976187683,373.8873887388739 L 216.4889674987918,376.0876087608761 L 217.65074515326245,381.2381238123812 L 214.92886607707405,383.53835383538353 L 210.87924111006197,385.6885688568857 L 208.2901366229559,386.48864886488644 L 205.43548295768514,386.6386638663866 L 202.48124835060256,385.88858885888584 L 200.02491845257887,384.13841384138414 L 198.19926785269638,381.68816881688167 L 191.09582733679,369.08690869086905 L 190.3987607441076,366.23662366236624 L 190.13321156594287,357.3357335733573 z" /></g><path fill-rule="evenodd" fill="#D2EBD9" stroke="#A6A6A6" stroke-width="0.25" opacity="1" d="M 176.6565907740831,439.0939093909391 L 173.3704196942946,434.9434943494349 L 170.78131520718856,432.54325432543254 L 169.35398837455315,431.64316431643164 L 161.1219638514467,428.2428242824282 L 160.126154433329,427.69276927692766 L 156.1097231135875,423.4923492349235 L 155.34626922636394,422.4922492249225 L 154.91475181184626,421.6921692169217 L 155.0807200481992,420.6420642064206 L 156.8399833535405,417.69176917691766 L 157.07233888443466,416.59165916591655 L 156.97275794262288,415.9415941594159 L 154.7487835754933,414.04140414041404 L 153.81936145191676,412.84128412841284 L 150.06847931034002,401.3401340134013 L 149.8693174267165,399.4399439943994 L 150.00209201579884,398.48984898489846 L 151.36303155389305,393.4893489348935 L 151.42941884843424,392.73927392739273 L 151.39622520116365,391.3391339133913 L 150.06847931034002,387.038703870387 L 149.93570472125768,385.88858885888584 L 150.1348666048812,385.0885088508851 L 151.09748237572833,384.63846384638464 L 152.75716473925786,384.2884288428843 L 154.25087886643445,383.43834383438343 L 156.70720876445816,382.5382538253825 L 157.50385629895231,382.3882388238824 L 158.40008477525828,382.3382338233823 L 159.59505607699953,382.5382538253825 L 161.65306220777614,384.3884388438844 L 162.41651609499974,384.4884488448845 L 164.2089730476116,383.8883888388839 L 164.87284599302345,382.7882788278828 L 165.20478246572935,379.68796879687966 L 165.60310623297642,378.78787878787875 L 166.7316902401765,377.88778877887785 L 167.92666154191775,377.5377537753775 L 168.95566460730606,377.48774877487745 L 171.11325167989446,378.037803780378 L 171.6775436834945,377.98779877987795 L 173.1048705161299,374.33743374337433 L 175.9927178286713,376.1876187618762 L 178.61501596304794,377.58775877587755 L 179.17930796664797,378.1378137813781 L 181.1709268028834,381.2381238123812 L 181.70202515921287,381.78817881788177 L 182.39909175189527,382.2382238223822 L 183.6272567009071,382.5882588258826 L 185.0877771808131,382.7382738273827 L 185.55248824260136,383.03830383038303 L 186.08358659893082,384.2884288428843 L 186.58149130798967,387.58875887588755 L 187.14578331158972,388.4388438843884 L 188.40714190787216,389.38893889388936 L 193.02105887848424,391.8891889188919 L 194.2824174747667,392.2892289228923 L 195.77613160194326,393.43934393439343 L 196.63916643097863,394.53945394539454 L 197.83413773271988,401.6901690169017 L 197.46900761274338,410.4410441044104 L 197.83413773271988,413.3913391339134 L 197.3694266709316,412.84128412841284 L 198.0332996163434,415.041504150415 L 197.53539490728457,417.29172917291726 L 196.30722995827273,419.39193919391937 L 190.99624639497821,424.6424642464246 L 188.2411736715192,428.29282928292827 L 185.71845647895432,432.2932293229323 L 184.58987247175423,433.6433643364336 L 181.8679933955658,436.09360936093606 L 180.20831103203628,436.6436643664366 L 179.27888890845975,436.7436743674367 L 179.14611431937738,435.99359935993596 L 179.80998726478919,434.29342934293425 L 179.57763173389506,433.8433843384338 L 178.44904772669497,435.49354935493545 L 176.6565907740831,439.0939093909391 z" /><path fill-rule="evenodd" fill="#D2EBD9" stroke="#A6A6A6" stroke-width="0.25" opacity="1" d="M 188.73907838057806,354.1354135413541 L 189.03782120601338,349.034903490349 L 190.63111627500172,345.7845784578458 L 190.86347180589587,344.6344634463446 L 190.7306972168135,343.38433843384337 L 190.0336306241311,341.78417841784176 L 190.86347180589587,339.98399839983995 L 189.90085603504875,330.9330933093309 L 189.9340496823193,329.5329532953295 L 190.86347180589587,327.1827182718272 L 190.86347180589587,321.58215821582155 L 190.6643099222723,319.98199819981994 L 189.76808144596637,318.73187318731874 L 188.10839908243685,315.08150815081507 L 187.84284990427213,313.58135813581356 L 188.10839908243685,309.2809280928093 L 187.64368802064857,304.9304930493049 L 187.71007531518975,300.28002800280024 L 187.31175154794266,297.4297429742974 L 186.5151040134485,294.6294629462946 L 185.28693906443664,291.8291829182918 L 183.76003128998948,288.8788878887889 L 182.5982536355188,287.6787678767877 L 180.97176491925987,287.17871787178717 L 175.09648935236532,286.27862786278627 L 172.3414166289063,286.1286128612861 L 171.37880085805918,285.7285728572857 L 170.05105496723556,282.5282528252825 L 169.9182803781532,280.62806280628064 L 169.61953755271787,280.12801280128014 L 172.772934043424,275.37753775377536 L 173.53638793064758,274.57745774577455 L 173.96790534516526,273.5273527352735 L 173.90151805062408,268.6268626862686 L 172.24183568709455,258.87588758875887 L 172.3746102761769,256.07560756075605 L 174.03429263970642,251.77517751775176 L 175.76036229777714,242.1242124212421 L 176.6565907740831,240.97409740974095 L 179.74359997024803,241.87418741874185 L 180.70621574109515,240.8240824082408 L 181.70202515921287,237.9237923792379 L 183.3285138754718,235.67356735673567 L 184.58987247175423,235.02350235023502 L 187.51091343156622,234.07340734073406 L 189.635306856884,232.8232823282328 L 191.0294400422488,232.3232323232323 L 194.18283653295492,231.8231823182318 L 204.37328624502624,231.9231923192319 L 210.31494910646194,233.2233223322332 L 221.63398282573334,233.47334733473346 L 223.72518260378055,233.87338733873386 L 224.9201539055218,234.52345234523452 L 227.60883933443964,242.2242224222422 L 228.60464875255735,246.4246424642464 L 229.70003911248685,249.22492249224922 L 231.39291512328697,251.57515751575156 L 237.99845093013448,258.975897589759 L 241.31781565719353,267.7267726772677 L 242.71194884255834,270.22702270227023 L 244.90272956241733,273.1273127312731 L 246.52921827867627,277.37773777377737 L 247.59141499133517,279.2779277927793 L 249.74900206392357,281.5281528152815 L 250.14732583117063,282.57825782578254 L 250.44606865660595,284.028402840284 L 251.010360660206,290.52905290529054 L 254.62846821270037,305.68056805680567 L 255.98940775079458,309.2809280928093 L 255.8898268089828,310.48104810481044 L 254.82763009632393,311.48114811481145 L 253.93140162001797,311.68116811681165 L 252.86920490735906,312.8312831283128 L 250.77800512931188,317.33173317331733 L 250.04774488935888,317.13171317131713 L 248.65361170399407,317.13171317131713 L 246.09770086415858,316.3316331633163 L 243.04388531526425,316.5316531653165 L 242.28043142804069,316.2816281628163 L 241.71613942444063,315.9315931593159 L 240.95268553721706,315.1315131513151 L 240.4547808281582,314.9314931493149 L 239.92368247182876,315.031503150315 L 238.72871117008748,316.2316231623162 L 238.09803187194626,316.6316631663166 L 235.94044479935786,316.7316731673167 L 235.4757337375696,316.981698169817 L 234.21437514128715,318.73187318731874 L 233.4509212540636,319.48194819481944 L 232.68746736684,321.032103210321 L 227.14412827265136,321.9321932193219 L 221.60078917846275,323.88238823882386 L 220.87052893850975,325.1325132513251 L 221.7003701202745,327.8827882788279 L 221.66717647300393,329.08290829082904 L 220.93691623305094,331.28312831283125 L 219.94110681493322,331.38313831383135 L 219.50958940041554,331.6331633163316 L 217.2192277387448,333.6333633363336 L 214.6965105461799,332.9332933293329 L 213.50153924443865,332.3332333233323 L 212.60531076813268,332.2332233223322 L 210.8460474627914,333.033303330333 L 209.65107616105013,333.78337833783377 L 208.3897175647677,334.2334233423342 L 205.40228931041455,334.4334433443344 L 204.8048036595439,334.6334633463346 L 204.90438460135567,335.6335633563356 L 203.77580059415558,339.4339433943394 L 203.51025141599087,341.58415841584156 L 202.28208646697902,344.2844284428443 L 199.65978833260237,347.23472347234724 L 196.90471560914335,348.98489848984894 L 196.24084266373154,349.6349634963496 L 195.37780783469617,350.6350635063506 L 191.59373204584887,356.4856485648565 L 190.13321156594287,357.4357435743574 L 190.13321156594287,357.3357335733573 L 189.00462755874278,354.5854585458546 L 189.53572591507225,354.1854185418542 L 188.73907838057806,354.1354135413541 z" /><path fill-rule="evenodd" fill="#D2EBD9" stroke="#A6A6A6" stroke-width="0.25" opacity="1" d="M 217.65074515326245,381.2381238123812 L 216.4889674987918,376.0876087608761 L 216.8540976187683,373.8873887388739 L 217.31880868055654,372.4872487248725 L 217.38519597509773,371.5371537153715 L 216.62174208787417,369.6369636963696 L 213.07002182992096,362.68626862686267 L 212.50572982632093,361.9361936193619 L 210.01620628102663,359.4359435943594 L 209.18636509926185,358.38583858385834 L 208.92081592109713,357.68576857685764 L 208.88762227382654,357.1857185718572 L 209.71746345559131,354.83548354835483 L 209.7838507501325,353.9353935393539 L 208.7216540374736,351.035103510351 L 208.82123497928538,349.78497849784975 L 209.4519142774266,348.08480848084804 L 211.1779839354973,346.2846284628463 L 211.44353311366203,345.53455345534553 L 211.14479028822672,343.88438843884387 L 209.88343169194425,341.3341334133413 L 209.88343169194425,340.88408840884085 L 210.94562840460316,338.7338733873387 L 212.00782511726206,335.6835683568357 L 211.94143782272087,334.7834783478348 L 210.8460474627914,333.033303330333 L 212.60531076813268,332.2332233223322 L 213.50153924443865,332.3332333233323 L 214.6965105461799,332.9332933293329 L 217.2192277387448,333.6333633363336 L 219.50958940041554,331.6331633163316 L 219.94110681493322,331.38313831383135 L 220.93691623305094,331.28312831283125 L 220.30623693490972,334.5334533453345 L 220.17346234582735,338.0838083808381 L 220.27304328763913,339.1339133913391 L 224.02392542921586,349.2349234923492 L 225.11931578914533,350.78507850785076 L 227.24370921446314,352.4352435243524 L 229.10255346161622,355.13551355135513 L 229.70003911248685,355.4855485548555 L 233.0857911340871,356.0856085608561 L 233.65008313768712,356.53565356535654 L 233.94882596312243,356.985698569857 L 234.21437514128715,357.98579857985794 L 234.18118149401658,358.98589858985895 L 233.51730854860477,361.036103610361 L 233.55050219587534,361.6361636163616 L 233.88243866858124,362.036203620362 L 234.28076243582834,362.2362236223622 L 236.70389868658145,362.036203620362 L 237.30138433745208,362.38623862386237 L 237.33457798472267,362.7362736273627 L 236.60431774476967,364.03640364036403 L 236.73709233385205,366.2866286628663 L 236.63751139204027,366.88668866886684 L 235.4757337375696,369.48694869486945 L 235.24337820667546,370.4370437043704 L 235.1769909121343,374.2874287428743 L 232.3555308941341,376.98769876987694 L 229.00297251980444,379.6379637963796 L 224.78737931643943,381.68816881688167 L 219.01168469135666,382.3882388238824 L 218.41419904048604,382.1882188218822 L 218.1818435095919,381.4381438143814 L 217.9162943314272,381.1381138113811 L 217.65074515326245,381.2381238123812 z" /><path fill-rule="evenodd" fill="#D2EBD9" stroke="#A6A6A6" stroke-width="0.25" opacity="1" d="M 235.1769909121343,374.2874287428743 L 235.24337820667546,370.4370437043704 L 235.4757337375696,369.48694869486945 L 236.63751139204027,366.88668866886684 L 236.73709233385205,366.2866286628663 L 236.60431774476967,364.03640364036403 L 237.33457798472267,362.7362736273627 L 237.30138433745208,362.38623862386237 L 236.70389868658145,362.036203620362 L 234.28076243582834,362.2362236223622 L 233.88243866858124,362.036203620362 L 233.55050219587534,361.6361636163616 L 233.51730854860477,361.036103610361 L 234.18118149401658,358.98589858985895 L 234.21437514128715,357.98579857985794 L 233.94882596312243,356.985698569857 L 233.65008313768712,356.53565356535654 L 233.0857911340871,356.0856085608561 L 229.70003911248685,355.4855485548555 L 229.10255346161622,355.13551355135513 L 227.24370921446314,352.4352435243524 L 225.11931578914533,350.78507850785076 L 224.02392542921586,349.2349234923492 L 220.27304328763913,339.1339133913391 L 220.17346234582735,338.0838083808381 L 220.30623693490972,334.5334533453345 L 220.93691623305094,331.28312831283125 L 221.66717647300393,329.08290829082904 L 221.7003701202745,327.8827882788279 L 220.87052893850975,325.1325132513251 L 221.60078917846275,323.88238823882386 L 227.14412827265136,321.9321932193219 L 232.68746736684,321.032103210321 L 233.4509212540636,319.48194819481944 L 234.21437514128715,318.73187318731874 L 235.4757337375696,316.981698169817 L 235.94044479935786,316.7316731673167 L 238.09803187194626,316.6316631663166 L 238.72871117008748,316.2316231623162 L 239.92368247182876,315.031503150315 L 240.4547808281582,314.9314931493149 L 240.95268553721706,315.1315131513151 L 241.71613942444063,315.9315931593159 L 242.28043142804069,316.2816281628163 L 243.04388531526425,316.5316531653165 L 246.09770086415858,316.3316331633163 L 248.65361170399407,317.13171317131713 L 250.04774488935888,317.13171317131713 L 250.77800512931188,317.33173317331733 L 251.010360660206,319.6319631963196 L 250.7116178347707,322.88228822882286 L 250.3464877147942,324.5324532453245 L 249.2179037075941,326.3826382638264 L 250.0145512420883,327.1827182718272 L 251.4418780747237,327.73277327732774 L 252.23852560921785,327.53275327532754 L 253.43349691095912,326.5826582658266 L 254.16375715091212,326.6826682668267 L 254.79443644905334,327.2827282728273 L 256.2217632816887,329.78297829782974 L 256.55369975439464,331.28312831283125 L 256.3213442235005,331.88318831883186 L 255.12637292175924,333.033303330333 L 254.59527456542978,335.2335233523352 L 254.5288872708886,336.23362336233623 L 254.69485550724156,337.0837083708371 L 255.32553480538277,337.983798379838 L 256.0226013980652,338.3338333833383 L 259.4747407142066,338.88388838883884 L 260.4705501323243,339.18391839183914 L 261.1676167250067,339.58395839583955 L 261.632327786795,340.38403840384035 L 261.2340040195479,342.2342234223422 L 261.4995531977126,343.48434843484347 L 261.8646833176891,344.2344234423442 L 261.76510237587735,344.7344734473447 L 261.2008103722773,343.88438843884387 L 260.8688738995714,344.4344434443444 L 260.6697120159479,345.73457345734573 L 259.9394517759949,346.6846684668467 L 256.48731245985346,354.8854885488549 L 253.23433502733556,358.28582858285824 L 251.80700819470016,359.5359535953595 L 245.79895803872327,364.3864386438644 L 244.3052439115467,365.93659365936594 L 243.07707896253484,366.4866486648665 L 242.47959331166422,367.48674867486744 L 240.32200623907582,369.68696869686966 L 236.67070503931086,373.1373137313731 L 235.1769909121343,374.2874287428743 z" /></g></g></g></svg>