<svg xmlns="http://www.w3.org/2000/svg" xmlns:xlink="http://www.w3.org/1999/xlink" width="500.0" height="370.91206446522847" viewBox="0.0 0.0 500.0 370.91206446522847" preserveAspectRatio="xMinYMin meet"><g transform="matrix(1,0,0,-1,0,370.91206446522847)"><g><g><path fill-rule="evenodd" fill="#D2EBD9" stroke="#A6A6A6" stroke-width="0.25" opacity="1" d="M 439.2439243924392,320.98230761252347 L 433.7433743374337,317.94052450559786 L 408.89088908890886,310.48444640203644 L 400.6400640064006,314.52779223929116 L 397.039703970397,320.2404092937611 L 390.38903890389037,320.72264320095667 L 392.2892289228923,328.47548063202305 L 392.2892289228923,334.52195192993605 L 390.68906890689067,338.1943486078096 L 383.63836383638363,334.07681293867864 L 379.28792879287926,336.8589316340374 L 379.7379737973797,343.3876368391459 L 374.03740374037403,348.6922098182966 L 368.7368736873687,347.3938877604625 L 372.6372637263726,355.44348451903386 L 369.9369936993699,358.4481727100213 L 364.986498649865,355.44348451903386 L 362.28622862286227,358.4481727100213 L 358.78587858785875,357.70627439125894 L 351.9351935193519,344.9827182244849 L 348.48484848484844,341.1619418828589 L 338.0838083808381,338.1943486078096 L 337.43374337433744,334.52195192993605 L 329.78297829782974,332.29625697364907 L 330.38303830383035,342.6457385203836 L 334.6834683468347,342.6457385203836 L 341.18411841184115,349.3228233892446 L 345.6845684568457,354.7015862002715 L 352.28522852285226,363.45598636166704 L 339.88398839883985,362.4544236313379 L 321.4321432143214,363.45598636166704 L 306.4806480648065,363.45598636166704 L 297.7797779777978,370.91206446522847 L 287.7787778777878,367.6477118626742 L 280.6780678067807,359.301355776598 L 276.07760776077606,346.09556570262845 L 266.7266726672667,347.28260301264817 L 258.47584758475847,346.09556570262845 L 248.024802480248,336.0057485674607 L 245.27452745274528,337.19278587748045 L 240.32403240324032,342.53445377256924 L 225.32253225322532,342.53445377256924 L 217.2217221722172,337.71211470061405 L 219.8219821982198,331.5543586548867 L 225.07250725072507,328.32710096827054 L 234.77347734773477,281.14236789498614 L 260.3760376037604,284.1470560859736 L 267.97679767976797,278.87957802276105 L 289.42894289428943,287.11464936102294 L 290.8290829082908,294.6078223805225 L 301.18011801180114,296.8706122527476 L 306.030603060306,294.6078223805225 L 321.2321232123212,302.8428937187844 L 334.38343834383437,309.5941684195216 L 346.1846184618462,308.8522701007593 L 354.4854485448545,300.6171987624974 L 373.83738373837383,301.35909708125973 L 394.5894589458946,303.5847920375467 L 407.7407740774077,300.6171987624974 L 422.94229422942294,308.110371781997 L 439.2439243924392,320.98230761252347 z" /><g><path fill-rule="evenodd" fill="#D2EBD9" stroke="#A6A6A6" stroke-width="0.25" opacity="1" d="M 266.026602660266,1.632176301277133 L 273.07730773077304,1.5579864694008998 L 267.5267526752675,13.42835956959823 L 271.0771077107711,18.250698641553395 L 281.3281328132813,25.41001741760991 L 276.9276927692769,27.74699712171126 L 266.7266726672667,27.74699712171126 L 255.67556755675565,26.968003887010813 L 261.976197619762,31.493583631461043 L 261.976197619762,37.39167526562159 L 255.67556755675565,34.83212606589154 L 248.32483248324831,42.88172282446286 L 244.67446744674467,53.898912858083506 L 238.82388238823881,56.23589256218486 L 238.5238523852385,43.40105164759649 L 236.67366736673665,37.24329560186913 L 245.37453745374535,37.39167526562159 L 245.37453745374535,8.309261170138132 L 242.47424742474246,0.0 L 266.026602660266,1.632176301277133 z" /><path fill-rule="evenodd" fill="#D2EBD9" stroke="#A6A6A6" stroke-width="0.25" opacity="1" d="M 140.36403640364037,132.911083806272 L 137.5137513751375,127.86617523868813 L 129.8129812981298,126.38237860116347 L 123.6123612361236,115.92161230661456 L 110.46104610461046,118.8892055816639 L 89.8089808980898,106.94464264959034 L 80.75807580758075,103.23515105577866 L 74.60746074607461,109.94933084057779 L 65.6065606560656,110.76541899121635 L 48.9048904890489,110.76541899121635 L 41.35413541354135,97.9676729925661 L 35.003500350035004,91.17930337589075 L 26.85268526852685,89.69550673836608 L 26.25262526252625,88.02623552115084 L 20.00200020002,82.72166254200015 L 11.751175117511751,76.30424208470598 L 17.25172517251725,72.00123183588444 L 17.25172517251725,65.99185545390954 L 10.551055105510551,64.21129948887994 L 10.551055105510551,54.715001008722076 L 1.6501650165016502,54.715001008722076 L 0.0,49.37333311363327 L 0.5000500050005,39.17223123065119 L 1.6501650165016502,26.634149643567763 L 8.1008100810081,19.178071540006314 L 19.35193519351935,23.295607209137263 L 32.25322532253225,34.498271822448494 L 41.35413541354135,41.101166859433256 L 48.9048904890489,43.40105164759649 L 50.305030503050304,36.61268203092114 L 61.106110611061105,25.78096657699108 L 72.50725072507251,26.782529307320228 L 80.75807580758075,32.272576866161494 L 80.75807580758075,38.133573584383925 L 71.8071807180718,40.359268540670925 L 74.60746074607461,44.92194320105928 L 80.75807580758075,44.92194320105928 L 96.00960096009601,57.64549936783329 L 127.06270627062706,57.64549936783329 L 127.06270627062706,36.61268203092114 L 128.2128212821282,29.861407330183912 L 144.36443644364437,37.39167526562159 L 157.5157515751575,47.88953647610861 L 137.5137513751375,61.39208587758307 L 150.66506650665065,71.85285217213197 L 140.11401140114012,86.87629312706922 L 147.9147914791479,83.83451002014365 L 160.96609660966095,83.83451002014365 L 159.8159815981598,107.24140197709526 L 163.86638663866387,119.55691406855 L 155.46554655465545,115.92161230661456 L 155.46554655465545,128.60807355745047 L 170.46704670467045,126.34528368522534 L 171.2171217121712,133.24493804971505 L 140.36403640364037,132.911083806272 z" /></g><path fill-rule="evenodd" fill="#D2EBD9" stroke="#A6A6A6" stroke-width="0.25" opacity="1" d="M 367.18671867186714,68.77397414926828 L 348.9348934893489,76.89776073971584 L 322.6322632263226,79.16055061194095 L 311.58115811581155,78.8266963684979 L 297.7297729772977,78.41865229317862 L 288.2788278827883,77.7138488903544 L 276.97769776977697,76.89776073971584 L 265.2265226522652,85.87473039674006 L 256.9256925692569,90.36321522525219 L 244.02440244024402,90.43740505712842 L 249.57495749574957,88.21171010084142 L 253.77537753775377,80.75563199727996 L 255.07550755075505,76.30424208470598 L 258.67586758675867,68.77397414926828 L 264.77647764776475,65.76928595828083 L 279.12791279127913,65.06448255545662 L 286.9286928692869,60.61309264288262 L 288.3788378837884,53.86181794214539 L 290.42904290429044,48.63143479487094 L 292.47924792479245,48.63143479487094 L 295.97959795979597,53.86181794214539 L 307.2307230723072,61.243706213830606 L 306.1806180618062,53.119919623383055 L 313.9313931393139,51.63612298585839 L 315.9315931593159,46.40573983858394 L 311.8311831183118,40.359268540670925 L 318.03180318031804,36.61268203092114 L 313.9313931393139,31.493583631461043 L 318.03180318031804,29.19369884329781 L 327.33273327332734,33.830563335562395 L 329.78297829782974,29.19369884329781 L 326.93269326932693,26.968003887010813 L 328.33283328332834,11.944562932073564 L 338.8338833883388,14.170257888360563 L 335.3335333533353,20.958627505035913 L 338.0838083808381,27.709902205773144 L 331.98319831983196,37.39167526562159 L 338.0838083808381,44.92194320105928 L 341.6341634163416,45.66384151982161 L 341.6341634163416,53.119919623383055 L 336.43364336433643,54.82628575653642 L 341.6341634163416,59.16639092129607 L 347.6847684768477,54.12148235371221 L 350.48504850485045,43.03010248821533 L 350.58505850585055,32.97738026898571 L 357.4357435743574,26.968003887010813 L 360.2360236023602,23.184322461322914 L 371.28712871287127,25.41001741760991 L 364.986498649865,43.40105164759649 L 369.18691869186915,44.92194320105928 L 364.986498649865,53.119919623383055 L 361.68616861686166,62.05979436446917 L 367.18671867186714,68.77397414926828 z" /><path fill-rule="evenodd" fill="#D2EBD9" stroke="#A6A6A6" stroke-width="0.25" opacity="1" d="M 244.02440244024402,90.43740505712842 L 256.9256925692569,90.36321522525219 L 265.2265226522652,85.87473039674006 L 276.97769776977697,76.89776073971584 L 288.2788278827883,77.7138488903544 L 291.1291129112911,97.9676729925661 L 283.47834783478345,100.1933679488531 L 277.1277127712771,103.977049374541 L 267.5267526752675,106.94464264959034 L 258.67586758675867,103.977049374541 L 246.77467746774676,97.9676729925661 L 244.72447244724472,96.48387635504143 L 244.02440244024402,90.43740505712842 z" /><path fill-rule="evenodd" fill="#D2EBD9" stroke="#A6A6A6" stroke-width="0.25" opacity="1" d="M 291.1291129112911,97.9676729925661 L 288.2788278827883,77.7138488903544 L 297.7297729772977,78.41865229317862 L 311.58115811581155,78.8266963684979 L 315.031503150315,86.6166287155024 L 317.0817081708171,92.6260050974773 L 309.4809480948095,94.10980173500197 L 302.8302830283028,97.9676729925661 L 291.1291129112911,97.9676729925661 z" /><path fill-rule="evenodd" fill="#D2EBD9" stroke="#A6A6A6" stroke-width="0.25" opacity="1" d="M 302.8302830283028,97.9676729925661 L 309.4809480948095,94.10980173500197 L 317.0817081708171,92.6260050974773 L 315.031503150315,86.6166287155024 L 311.58115811581155,78.8266963684979 L 322.6322632263226,79.16055061194095 L 348.9348934893489,76.89776073971584 L 367.18671867186714,68.77397414926828 L 367.18671867186714,78.52993704099296 L 360.2360236023602,83.83451002014365 L 353.3353335333533,96.48387635504143 L 346.4846484648465,99.45146963009077 L 340.8340834083408,97.9676729925661 L 335.3335333533353,103.977049374541 L 327.1827182718272,106.46240874239481 L 318.6818681868187,109.94933084057779 L 311.031103110311,105.46084601206566 L 302.8302830283028,97.9676729925661 z" /><g><path fill-rule="evenodd" fill="#D2EBD9" stroke="#A6A6A6" stroke-width="0.25" opacity="1" d="M 140.36403640364037,132.911083806272 L 171.2171217121712,133.24493804971505 L 172.06720672067206,141.29453480828636 L 178.21782178217822,141.29453480828636 L 185.1185118511851,139.92202291857603 L 188.76887688768875,136.84314489571236 L 190.1190119011901,145.07821623397425 L 192.86928692869287,152.57138925347382 L 187.96879687968797,158.20981647606754 L 183.06830683068307,161.62254874237428 L 162.4162416241624,145.07821623397425 L 159.6159615961596,151.79239601877336 L 143.8143814381438,139.06883985199937 L 140.36403640364037,132.911083806272 z" /><path fill-rule="evenodd" fill="#D2EBD9" stroke="#A6A6A6" stroke-width="0.25" opacity="1" d="M 243.92439243924392,173.0106879353761 L 259.6759675967597,175.60733205104427 L 266.9266926692669,178.83458973766042 L 263.1263126312631,191.33557640880574 L 270.0770077007701,194.3402645997932 L 277.67776777677767,181.61670843301917 L 297.7297729772977,210.03141404161653 L 295.6295629562956,230.6932822191475 L 280.42804280428044,230.2481432278901 L 265.9265926592659,225.01776008061566 L 245.8245824582458,219.7502820174031 L 208.47084708470845,208.54761740409185 L 175.96759675967596,196.56595955608017 L 163.51635163516352,186.8470915802936 L 171.1171117111711,178.61202024203172 L 162.4162416241624,166.03684373901018 L 179.56795679567955,170.45113873564605 L 188.76887688768875,174.27191507727207 L 195.6195619561956,176.49761003355906 L 203.8203820382038,174.27191507727207 L 206.62066206620662,177.98140667108373 L 213.6213621362136,177.98140667108373 L 214.37143714371436,180.94899994613306 L 230.67306730673067,178.1668812507743 L 237.17371737173715,184.69558645588285 L 242.6242624262426,180.94899994613306 L 243.92439243924392,173.0106879353761 z" /></g><g><path fill-rule="evenodd" fill="#D2EBD9" stroke="#A6A6A6" stroke-width="0.25" opacity="1" d="M 439.2439243924392,320.98230761252347 L 422.94229422942294,308.110371781997 L 407.7407740774077,300.6171987624974 L 394.5894589458946,303.5847920375467 L 373.83738373837383,301.35909708125973 L 354.4854485448545,300.6171987624974 L 346.1846184618462,308.8522701007593 L 334.38343834383437,309.5941684195216 L 321.2321232123212,302.8428937187844 L 306.030603060306,294.6078223805225 L 301.18011801180114,296.8706122527476 L 290.8290829082908,294.6078223805225 L 289.42894289428943,287.11464936102294 L 267.97679767976797,278.87957802276105 L 255.5255525552555,263.1884285809377 L 265.9265926592659,225.01776008061566 L 280.42804280428044,230.2481432278901 L 295.6295629562956,230.6932822191475 L 305.3305330533053,230.99004154665244 L 326.1826182618262,237.44455691988475 L 300.7300730073007,255.06464199049014 L 292.7292729272927,259.7015064827547 L 309.7309730973097,263.26261841281394 L 313.18131813181316,267.82529307320226 L 323.5323532353235,269.30908971072694 L 329.78297829782974,265.4883133691009 L 330.38303830383035,261.07401837246505 L 336.73367336733673,259.59022173494037 L 335.3335333533353,266.34149643567764 L 331.2331233123312,268.5671913919646 L 329.78297829782974,276.72807289835026 L 331.98319831983196,281.29074755873864 L 336.73367336733673,278.21186953587494 L 349.18491849184915,280.5488492399763 L 362.28622862286227,263.26261841281394 L 369.18691869186915,263.26261841281394 L 378.3378337833783,269.30908971072694 L 382.4882488248825,275.98617457958795 L 392.83928392839283,283.51644251502563 L 414.99149914991494,293.2353104908122 L 424.69246924692465,302.21228014783645 L 441.34413441344134,315.6777346333728 L 439.2439243924392,320.98230761252347 z" /><path fill-rule="evenodd" fill="#D2EBD9" stroke="#A6A6A6" stroke-width="0.25" opacity="1" d="M 367.18671867186714,243.08298414247847 L 367.58675867586754,225.759658399378 L 366.9366936693669,209.2895157228542 L 393.8893889388939,213.77800055136632 L 409.79097909790977,223.49686852715288 L 426.39263926392636,231.73193986541477 L 439.5439543954395,224.23876684591522 L 454.79547954795476,216.78268874235377 L 467.2467246724672,225.01776008061566 L 465.8465846584658,245.19739435095113 L 469.8969896989699,257.99514034960134 L 470.34703470347034,266.34149643567764 L 463.29632963296325,272.2766829857763 L 455.89558955895586,252.91313686607938 L 456.5456545654565,236.33170944174125 L 452.3952395239524,235.58981112297892 L 448.1448144814481,249.76006901133948 L 443.3443344334433,243.89907229311703 L 439.2439243924392,251.98576396762647 L 443.9443944394439,258.0693301814776 L 441.84418441844184,272.83310672484805 L 432.3932393239324,275.24427626082564 L 437.4437443744374,284.70347982504535 L 432.3932393239324,285.7421374713126 L 431.24312431243123,290.3790019635772 L 410.8910891089109,275.98617457958795 L 411.64116411641163,267.82529307320226 L 400.4400440044004,264.7464150503386 L 389.3389338933893,255.80654030925248 L 400.4400440044004,238.55740439802824 L 389.3389338933893,232.62221784792956 L 385.8385838583858,222.8662549562049 L 381.08810881088107,228.9127262541179 L 383.03830383038303,238.07517049083273 L 381.08810881088107,243.08298414247847 L 367.18671867186714,243.08298414247847 z" /></g><path fill-rule="evenodd" fill="#D2EBD9" stroke="#A6A6A6" stroke-width="0.25" opacity="1" d="M 326.1826182618262,237.44455691988475 L 305.3305330533053,230.99004154665244 L 295.6295629562956,230.6932822191475 L 297.7297729772977,210.03141404161653 L 277.67776777677767,181.61670843301917 L 281.1281128112811,169.6350505850075 L 285.6285628562856,157.87596223262452 L 294.97949794979496,160.65808092798326 L 308.7808780878088,163.73695895084694 L 342.034203420342,171.11884722253214 L 355.13551355135513,192.07747472756807 L 366.9366936693669,209.2895157228542 L 367.58675867586754,225.759658399378 L 367.18671867186714,243.08298414247847 L 360.38603860386036,247.68275371880495 L 355.43554355435543,247.53437405505247 L 351.88518851885186,237.3332721720704 L 342.28422842284226,228.0224482716031 L 335.3335333533353,213.92638021511877 L 329.78297829782974,212.33129882977977 L 334.6834683468347,222.12435663744256 L 330.38303830383035,225.83384823125422 L 331.98319831983196,233.3641161666919 L 326.1826182618262,237.44455691988475 z" /><path fill-rule="evenodd" fill="#D2EBD9" stroke="#A6A6A6" stroke-width="0.25" opacity="1" d="M 469.8969896989699,257.99514034960134 L 465.8465846584658,245.19739435095113 L 467.2467246724672,225.01776008061566 L 454.79547954795476,216.78268874235377 L 439.5439543954395,224.23876684591522 L 426.39263926392636,231.73193986541477 L 409.79097909790977,223.49686852715288 L 393.8893889388939,213.77800055136632 L 366.9366936693669,209.2895157228542 L 355.13551355135513,192.07747472756807 L 342.034203420342,171.11884722253214 L 351.68516851685166,149.45541631467202 L 358.6358635863586,136.731860147898 L 353.7853785378538,118.77792083384955 L 360.03600360036,104.49637819767463 L 368.5368536853685,113.69591735032756 L 367.18671867186714,122.70998192328992 L 370.78707870787076,139.1430296838756 L 380.38803880388036,133.05946347002447 L 378.98789878987895,119.59400898448811 L 386.58865886588654,113.69591735032756 L 392.2892289228923,97.9676729925661 L 390.98909890989097,89.43584232679926 L 400.4400440044004,83.83451002014365 L 407.29072907290725,77.78803872223064 L 412.991299129913,81.4975303160423 L 412.991299129913,88.21171010084142 L 410.2410241024102,95.7419780362791 L 400.9400940094009,92.73728984529166 L 401.0901090109011,100.1933679488531 L 400.4400440044004,105.46084601206566 L 401.7901790179018,106.202744330828 L 408.1408140814081,103.977049374541 L 415.2415241524152,108.87357827837239 L 420.4920492049205,115.17971398785222 L 413.64136413641364,124.15668364487647 L 406.6406640664066,122.70998192328992 L 403.1903190319032,122.70998192328992 L 402.44024402440243,133.6158872090962 L 389.98899889988996,136.13834149288815 L 385.8385838583858,137.5850432144747 L 379.88798879887986,162.1418775655079 L 370.78707870787076,171.34141671816084 L 373.2873287328733,177.2395083523214 L 380.38803880388036,180.94899994613306 L 381.08810881088107,171.1930370544084 L 389.3389338933893,163.81114878272317 L 392.2892289228923,170.45113873564605 L 386.58865886588654,178.72330498984607 L 382.4882488248825,192.93065779414474 L 390.68906890689067,204.94941055809454 L 397.7397739773977,204.94941055809454 L 410.2410241024102,195.9353459851322 L 419.1419141914191,198.04975619360485 L 426.69266926692666,203.42851900463177 L 428.29282928292827,195.15635275043175 L 440.64406440644063,189.92596960315728 L 439.2439243924392,175.0138133960344 L 444.79447944794475,168.22544377935904 L 447.39473947394737,161.62254874237428 L 456.5456545654565,167.52064037653483 L 456.5456545654565,155.57607744446128 L 461.24612461246124,148.82480274372404 L 464.1464146414641,161.62254874237428 L 472.4472447244724,164.5530471014855 L 477.1977197719772,168.96734209812138 L 480.64806480648065,177.2395083523214 L 477.8977897789779,185.43748477464518 L 486.1986198619862,185.0294406993259 L 486.9486948694869,180.24419654330885 L 489.74897489748975,180.94899994613306 L 485.49854985498547,201.46248845991158 L 476.6976697669767,214.11185479480937 L 472.4472447244724,211.66359034289366 L 482.69826982698265,231.88031952916725 L 489.3989398939894,230.76747205102373 L 500.0,225.83384823125422 L 496.54965496549653,240.85728918619148 L 498.64986498649864,248.2762723738148 L 486.1986198619862,251.24386564886413 L 472.4472447244724,251.98576396762647 L 469.8969896989699,257.99514034960134 z" /><path fill-rule="evenodd" fill="#D2EBD9" stroke="#A6A6A6" stroke-width="0.25" opacity="1" d="M 360.03600360036,104.49637819767463 L 353.7853785378538,118.77792083384955 L 358.6358635863586,136.731860147898 L 351.68516851685166,149.45541631467202 L 326.1326132613261,150.86502312032044 L 328.88288828882884,140.4784466576478 L 331.98319831983196,127.86617523868813 L 346.4846484648465,109.94933084057779 L 356.0856085608561,100.1933679488531 L 360.03600360036,104.49637819767463 z" /><path fill-rule="evenodd" fill="#D2EBD9" stroke="#A6A6A6" stroke-width="0.25" opacity="1" d="M 331.98319831983196,127.86617523868813 L 328.88288828882884,140.4784466576478 L 326.1326132613261,150.86502312032044 L 315.7315731573157,149.45541631467202 L 308.7808780878088,163.73695895084694 L 294.97949794979496,160.65808092798326 L 300.48004800480044,152.42300958972135 L 299.6799679967997,139.8478330866998 L 299.12991299129914,131.50147700062357 L 301.18011801180114,121.782609024837 L 300.7300730073007,109.20743252181545 L 305.28052805280527,112.39759529249348 L 307.0807080708071,119.59400898448811 L 313.9313931393139,116.70060554131501 L 313.9313931393139,119.59400898448811 L 309.5809580958096,126.12271418959665 L 317.53175317531753,135.24806351037333 L 332.6332633263326,118.8892055816639 L 334.6834683468347,118.8892055816639 L 331.98319831983196,127.86617523868813 z" /><path fill-rule="evenodd" fill="#D2EBD9" stroke="#A6A6A6" stroke-width="0.25" opacity="1" d="M 300.7300730073007,109.20743252181545 L 301.18011801180114,121.782609024837 L 299.12991299129914,131.50147700062357 L 299.6799679967997,139.8478330866998 L 285.6285628562856,139.06883985199937 L 285.6285628562856,132.31756515126213 L 290.42904290429044,132.31756515126213 L 291.1291129112911,127.86617523868813 L 293.37933793379335,123.00674125079485 L 292.47924792479245,112.17502579686477 L 296.6296629662966,106.94464264959034 L 300.7300730073007,109.20743252181545 z" /><path fill-rule="evenodd" fill="#D2EBD9" stroke="#A6A6A6" stroke-width="0.25" opacity="1" d="M 285.6285628562856,139.06883985199937 L 299.6799679967997,139.8478330866998 L 300.48004800480044,152.42300958972135 L 294.97949794979496,160.65808092798326 L 285.6285628562856,157.87596223262452 L 275.7275727572757,154.9454638735133 L 273.37733773377335,148.41675866840475 L 279.12791279127913,145.07821623397425 L 285.6285628562856,139.06883985199937 z" /><path fill-rule="evenodd" fill="#D2EBD9" stroke="#A6A6A6" stroke-width="0.25" opacity="1" d="M 273.37733773377335,148.41675866840475 L 275.7275727572757,154.9454638735133 L 285.6285628562856,157.87596223262452 L 281.1281128112811,169.6350505850075 L 277.67776777677767,181.61670843301917 L 270.0770077007701,194.3402645997932 L 263.1263126312631,191.33557640880574 L 266.9266926692669,178.83458973766042 L 259.6759675967597,175.60733205104427 L 243.92439243924392,173.0106879353761 L 244.72447244724472,168.22544377935904 L 253.77537753775377,153.35038248817426 L 254.47544754475447,158.20981647606754 L 266.7266726672667,152.23753501003077 L 273.37733773377335,148.41675866840475 z" /><path fill-rule="evenodd" fill="#D2EBD9" stroke="#A6A6A6" stroke-width="0.25" opacity="1" d="M 162.4162416241624,166.03684373901018 L 171.1171117111711,178.61202024203172 L 163.51635163516352,186.8470915802936 L 175.96759675967596,196.56595955608017 L 175.26752675267525,217.52458706111608 L 133.76337633763376,217.52458706111608 L 109.56095609560955,229.5062449091278 L 91.9091909190919,239.29930271679058 L 82.75827582758275,232.62221784792956 L 63.9063906390639,231.43518053790984 L 52.905290529052905,222.0130718896282 L 64.95649564956496,212.33129882977977 L 71.8071807180718,201.9447223671071 L 68.3068306830683,190.70496283785775 L 78.55785578557855,183.9536881371205 L 82.75827582758275,183.9536881371205 L 95.3095309530953,177.2395083523214 L 104.26042604260425,184.69558645588285 L 121.7121712171217,186.8099966643555 L 112.61126112611261,195.08216291855553 L 118.16181618161815,201.20282404834475 L 120.21202120212021,194.4144544316694 L 123.6123612361236,193.67255611290707 L 128.86288628862886,181.72799318083352 L 137.013701370137,179.16844398110348 L 143.014301430143,174.27191507727207 L 157.5157515751575,174.27191507727207 L 157.5157515751575,168.96734209812138 L 162.4162416241624,166.03684373901018 z" /><path fill-rule="evenodd" fill="#D2EBD9" stroke="#A6A6A6" stroke-width="0.25" opacity="1" d="M 91.9091909190919,239.29930271679058 L 109.56095609560955,229.5062449091278 L 133.76337633763376,217.52458706111608 L 175.26752675267525,217.52458706111608 L 175.96759675967596,196.56595955608017 L 208.47084708470845,208.54761740409185 L 245.8245824582458,219.7502820174031 L 265.9265926592659,225.01776008061566 L 255.5255525552555,263.1884285809377 L 267.97679767976797,278.87957802276105 L 260.3760376037604,284.1470560859736 L 234.77347734773477,281.14236789498614 L 225.07250725072507,328.32710096827054 L 219.8219821982198,331.5543586548867 L 213.6213621362136,328.47548063202305 L 202.5202520252025,324.76598903821133 L 198.96989698969895,317.94052450559786 L 195.6195619561956,314.1939379958481 L 181.66816681668166,310.48444640203644 L 171.36713671367136,305.2169683388239 L 171.36713671367136,297.68670040338617 L 172.06720672067206,292.4934121720499 L 170.7170717071707,288.67263583042387 L 167.96679667966797,288.67263583042387 L 157.5157515751575,285.7421374713126 L 154.11541154115412,283.51644251502563 L 154.61546154615462,290.3790019635772 L 155.46554655465545,296.20290376586155 L 148.56485648564856,298.5398834699629 L 143.014301430143,298.5398834699629 L 124.31243124312431,270.0509880294893 L 103.51035103510351,261.07401837246505 L 91.9091909190919,239.29930271679058 z" /><path fill-rule="evenodd" fill="#D2EBD9" stroke="#A6A6A6" stroke-width="0.25" opacity="1" d="M 308.7808780878088,163.73695895084694 L 315.7315731573157,149.45541631467202 L 326.1326132613261,150.86502312032044 L 351.68516851685166,149.45541631467202 L 342.034203420342,171.11884722253214 L 308.7808780878088,163.73695895084694 z" /></g></g></g></svg>