<svg xmlns="http://www.w3.org/2000/svg" xmlns:xlink="http://www.w3.org/1999/xlink" width="500.0" height="383.0925286556594" viewBox="0.0 0.0 500.0 383.0925286556594" preserveAspectRatio="xMinYMin meet"><g transform="matrix(1,0,0,-1,0,383.0925286556594)"><g><g><path fill-rule="evenodd" fill="#D2EBD9" stroke="#A6A6A6" stroke-width="0.25" opacity="1" d="M 480.64806480648065,232.13897701016506 L 479.8979897989799,232.90523869364472 L 476.7476747674767,237.31124337365281 L 475.89758975897587,241.02761253852918 L 477.047704770477,242.21531814792266 L 481.79817981798175,244.93554712427547 L 483.4483448344834,246.2381919861909 L 485.6485648564856,251.90852844394044 L 486.6486648664866,252.98129480081198 L 488.64886488648864,257.23404714412413 L 488.74887488748874,265.54798640987855 L 486.6486648664866,280.1069583959922 L 481.7481748174817,291.75413598488313 L 480.94809480948095,295.9685752440213 L 481.39813981398135,303.8227574996879 L 480.7980798079808,307.11768273865044 L 479.24792479247924,312.2516360179642 L 471.89718971897184,312.44320143883414 L 467.3467346734673,313.47765471153167 L 465.3465346534653,313.5925939640536 L 463.99639963996395,312.44320143883414 L 463.69636963696365,310.56586031430896 L 464.3464346434643,308.95671077900164 L 465.5465546554655,307.80731825378217 L 469.44694469446944,306.7728649810846 L 469.7969796979698,305.43190703499516 L 468.8968896889689,302.9032434795123 L 467.996799679968,302.29023413272853 L 466.046604660466,303.516252826296 L 462.89628962896285,306.19816871847485 L 460.2960296029603,305.776724792561 L 456.99569956995697,304.85721077238543 L 453.9453945394539,305.2020285299513 L 452.0952095209521,308.6118930214358 L 456.99569956995697,308.5352668530878 L 459.0959095909591,308.91839769482766 L 460.5960596059606,309.87622479917724 L 461.6961696169617,312.2516360179642 L 460.3960396039604,313.1711500381398 L 455.69556955695566,313.82247246909753 L 447.1447144714471,316.35113602458046 L 442.14421442144214,316.38944910875443 L 438.7938793879388,313.82247246909753 L 436.79367936793676,313.2860892906618 L 434.79347934793475,310.527547230135 L 433.44334433443345,309.87622479917724 L 431.84318431843184,310.29766872509106 L 429.4429442944294,312.0600705970943 L 428.29282928292827,312.59645377553005 L 426.79267926792676,309.4547808732634 L 425.99259925992595,302.25192104855455 L 422.24222422242224,296.73483692750096 L 419.4419441944194,296.16014066489123 L 417.29172917291726,294.7425565504538 L 417.4417441744174,292.17557991079696 L 416.7416741674167,289.80016869200995 L 417.2417241724172,285.4324770961759 L 419.6419641964196,281.0264724161678 L 421.44214421442143,275.5477013792882 L 424.39243924392434,270.6819396891923 L 423.84238423842385,265.73955183074844 L 422.14221422142214,263.0193228543956 L 428.6428642864286,261.18029481404443 L 437.49374937493747,252.17672003315835 L 440.3940394039404,242.56013590548852 L 446.6446644664466,238.84376674061212 L 453.1453145314531,235.8936592592154 L 456.39563956395637,233.09680411451464 L 461.14611461146114,232.44548168355692 L 465.1465146514651,231.67922000007724 L 468.3968396839684,231.90909850512114 L 474.59745974597456,231.37271532668538 L 480.64806480648065,232.13897701016506 z" /><path fill-rule="evenodd" fill="#D2EBD9" stroke="#A6A6A6" stroke-width="0.25" opacity="1" d="M 480.64806480648065,232.13897701016506 L 474.59745974597456,231.37271532668538 L 468.3968396839684,231.90909850512114 L 465.1465146514651,231.67922000007724 L 461.14611461146114,232.44548168355692 L 456.39563956395637,233.09680411451464 L 453.1453145314531,235.8936592592154 L 446.6446644664466,238.84376674061212 L 440.3940394039404,242.56013590548852 L 427.7427742774277,236.08522468008533 L 415.6415641564156,228.49923401363662 L 412.24122412241223,228.19272934024477 L 410.5910591059106,230.60645364320573 L 406.79067906790675,234.47607514477804 L 401.5901590159016,236.27679010095525 L 393.53935393539354,224.93611718545617 L 392.53925392539253,211.48822464038804 L 397.28972897289725,206.7757152869881 L 395.6395639563956,202.8294676170678 L 395.98959895989594,198.30852368453776 L 397.18971897189715,192.79143956348418 L 394.7894789478948,183.36642085668427 L 396.3396339633963,169.19057971231044 L 393.93939393939394,163.13711241282107 L 393.2893289328933,157.42846287089753 L 389.1389138913891,155.05305165211058 L 380.8380838083808,156.04919184063414 L 372.6372637263726,155.55112174637236 L 377.18771877187714,149.38271519436103 L 382.9382938293829,145.74297219783261 L 388.9388938893889,144.24876191504728 L 394.1894189418942,140.60901891851884 L 404.74047404740475,130.1495469390214 L 418.09180918091806,125.5519768381434 L 431.993199319932,130.07292077067345 L 446.1446144614461,132.63989741033032 L 457.995799579958,128.42545815119215 L 465.3465346534653,126.50980394249298 L 471.99719971997195,122.52524318839872 L 473.19731973197315,121.03103290561337 L 479.14791479147914,124.70908898631576 L 481.59815981598155,126.7013693633629 L 483.69836983698366,130.1495469390214 L 484.89848984898487,133.29121984128804 L 485.7485748574857,136.73939741694653 L 485.998599859986,140.18757499260505 L 484.59845984598456,147.46706098566187 L 484.39843984398436,155.01473856793658 L 483.4483448344834,158.42460305942112 L 482.1482148214821,160.11037876307637 L 478.14781478147813,163.7884348437788 L 476.4976497649765,165.70408905247794 L 474.047404740474,170.95298158431365 L 472.4472447244724,172.2556264462291 L 468.34683468346833,172.37056569875105 L 463.9463946394639,170.8763554159657 L 460.7960796079608,170.3782853217039 L 460.2960296029603,173.5965843923185 L 463.3463346334633,175.6654909377136 L 472.3472347234723,178.07921524067456 L 474.6474647464746,179.53511243928594 L 482.2482248224822,188.00230404173624 L 487.4987498749875,195.35841620314105 L 490.14901490149015,197.772140506102 L 496.0996099609961,202.02489284941416 L 498.2998299829983,205.3198180883767 L 499.1999199919992,208.49980407481732 L 500.0,219.6105984852725 L 486.3986398639864,226.20044896319763 L 480.64806480648065,232.13897701016506 z" /><g><path fill-rule="evenodd" fill="#D2EBD9" stroke="#A6A6A6" stroke-width="0.25" opacity="1" d="M 473.19731973197315,121.03103290561337 L 471.99719971997195,122.52524318839872 L 465.3465346534653,126.50980394249298 L 457.995799579958,128.42545815119215 L 446.1446144614461,132.63989741033032 L 431.993199319932,130.07292077067345 L 418.09180918091806,125.5519768381434 L 404.74047404740475,130.1495469390214 L 394.1894189418942,140.60901891851884 L 388.9388938893889,144.24876191504728 L 382.9382938293829,145.74297219783261 L 377.18771877187714,149.38271519436103 L 372.6372637263726,155.55112174637236 L 368.48684868486845,159.8038740896845 L 363.7863786378638,163.252051665343 L 354.7854785478548,167.04504699856736 L 353.035303530353,169.91852831161611 L 351.1351135113511,172.60044420379495 L 346.7846784678468,172.37056569875105 L 329.38293829382934,174.745976917538 L 318.23182318231824,175.16742084345182 L 315.28152815281527,173.02188812970877 L 312.8312831283128,169.88021522744214 L 315.6315631563156,168.42431802883075 L 318.63186318631864,167.46649092448118 L 322.3322332233223,165.12939278986818 L 325.8325832583258,162.21759839264547 L 328.2828282828283,159.68893483716255 L 337.2837283728373,145.66634602948466 L 338.78387838783874,142.14154228547818 L 340.28402840284025,140.45576658182293 L 346.2846284628463,136.7777105011205 L 350.5350535053505,137.27578059538232 L 353.9353935393539,134.63217778737746 L 357.0857085708571,130.76255628580515 L 360.6360636063606,127.69750955188647 L 362.68626862686267,127.08450020510274 L 366.98669866986694,126.9312478684068 L 369.1369136913691,126.54811702666697 L 377.1377137713771,122.64018244092067 L 378.7378737873787,121.49078991570117 L 379.6379637963796,119.30694411778411 L 379.037903790379,117.92767308752072 L 377.68776877687765,116.43346280473537 L 376.4376437643764,113.90479924925246 L 376.13761376137614,111.83589270385737 L 376.4376437643764,100.57184595670627 L 376.03760376037604,96.24246744504615 L 374.63746374637464,93.1391076269535 L 371.5371537153715,92.29621977512586 L 369.8369836983698,93.25404687947545 L 366.1866186618662,97.35354688609166 L 365.63656365636564,97.58342539113556 L 364.7864786478648,98.50293941131116 L 363.6863686368637,98.73281791635506 L 363.0863086308631,98.34968707461523 L 362.3362336233623,96.62559828678599 L 361.28612861286126,96.20415436087217 L 332.033203320332,98.84775716887701 L 326.4826482648265,97.58342539113556 L 322.18221822182215,92.29621977512586 L 319.28192819281924,85.82130854972267 L 315.7315731573157,80.11265900779917 L 310.98109810981094,76.05147208535693 L 304.2304230423042,74.5189487183976 L 291.77917791779174,76.62616834796668 L 289.22892289228923,77.7372477890122 L 286.1286128612861,77.69893470483821 L 281.4281428142814,76.05147208535693 L 278.0778077807781,75.40014965439921 L 278.977897789779,78.4268833041439 L 263.77637763776374,82.10493938484629 L 251.4251425142514,79.88278050275527 L 252.4252425242524,77.81387395736016 L 252.5252525252525,75.59171507526912 L 249.82498249824982,70.99414497439113 L 250.17501750175015,66.01344403177329 L 254.57545754575457,65.82187861090338 L 257.6257625762576,62.75683187698471 L 258.9258925892589,58.27420102862866 L 261.62616261626164,54.787710368796176 L 264.17641764176415,51.45447204565962 L 266.27662766276626,47.39328512321739 L 270.02700270027003,47.89135521747917 L 274.67746774677465,48.92580849017672 L 280.02800280028003,48.58099073261087 L 281.97819781978194,45.66919633538814 L 285.77857785778576,43.75354212668897 L 287.7287728772877,45.89907484043204 L 290.7290729072907,47.69978979660926 L 296.67966796679667,45.66919633538814 L 302.48024802480245,44.17498605260279 L 303.8303830383038,46.780275776433655 L 305.98059805980597,48.46605148008892 L 306.9306930693069,50.76483653052792 L 307.43074307430743,53.44675242270676 L 310.18101810181014,51.91422905574743 L 313.2313231323132,51.49278512983361 L 317.1817181718172,55.05590195801406 L 320.58205820582054,55.20915429470999 L 323.9323932393239,55.63059822062381 L 325.9325932593259,57.354687008453055 L 332.3332333233323,58.120948691932725 L 336.63366336633663,59.998289816457905 L 338.7338733873387,60.07491598480588 L 340.5340534053405,61.415873930895295 L 344.8344834483448,66.62645337855703 L 350.68506850685066,69.34668235490985 L 356.985698569857,68.96355151317 L 364.93649364936493,64.97899075907574 L 370.03700370037,65.36212160081557 L 372.1372137213721,62.45032720359284 L 374.5874587458746,59.73009822724003 L 389.08890889088906,58.84889729123841 L 404.04040404040404,59.768411311414006 L 419.29192919291927,56.62673840914737 L 434.4434443444344,53.17856083348887 L 449.1949194919492,53.370126254358794 L 461.04610461046104,52.45061223418319 L 470.0970097009701,46.780275776433655 L 485.59855985598557,49.500504752786476 L 487.6987698769877,53.063621580966924 L 487.2987298729873,53.600004759402694 L 485.69856985698567,55.017588873840076 L 483.19831983198316,56.70336457749534 L 473.7473747374737,60.26648140567579 L 467.1467146714671,64.67248608568387 L 465.69656965696566,66.31994870516516 L 463.046304630463,70.26619637508544 L 461.54615461546155,71.60715432117486 L 454.7454745474547,73.3312431090041 L 452.0952095209521,74.7488272234415 L 451.04510451045104,78.1970047991 L 451.6951695169517,80.22759826032112 L 453.045304530453,80.95554685962679 L 453.9453945394539,81.99000013232434 L 453.49534953495345,84.74854219285115 L 452.3952395239524,86.51094406485439 L 436.5436543654365,102.83231792297128 L 434.9434943494349,105.85905157271597 L 437.99379937993797,108.15783662315496 L 444.49444944494445,109.53710765341836 L 457.6957695769577,107.08507026628344 L 464.49644964496446,109.42216840089641 L 466.7466746674667,111.87420578803135 L 470.3970397039704,118.04261234004267 L 472.7472747274727,120.7245282322215 L 473.19731973197315,121.03103290561337 z" /><path fill-rule="evenodd" fill="#D2EBD9" stroke="#A6A6A6" stroke-width="0.25" opacity="1" d="M 215.87158715871587,157.65834137594143 L 219.4219421942194,152.6776404333236 L 223.6223622362236,149.9190983727968 L 239.22392239223922,145.66634602948466 L 254.67546754675467,135.628317975901 L 260.2760276027603,134.24904694563762 L 265.6265626562656,133.8276030197238 L 281.27812781278124,130.34111235989133 L 285.2285228522852,130.07292077067345 L 286.57865786578657,129.72810301310759 L 288.0788078807881,128.38714506701817 L 289.62896289628964,125.0922198280556 L 290.87908790879084,123.94282730283611 L 292.7292729272927,124.70908898631576 L 294.8294829482948,128.38714506701817 L 295.27952795279526,133.06134133624414 L 294.67946794679466,137.85047685799205 L 293.3293329332933,141.83503761208632 L 288.2288228822882,148.15669650079357 L 275.77757775777576,153.40558903262928 L 262.4262426242624,160.18700493142433 L 250.37503750375035,164.13325260134462 L 226.02260226022602,174.40115915997217 L 221.87218721872185,174.86091617005997 L 218.1218121812181,174.3628460757982 L 214.5214521452145,172.94526196136079 L 211.47114711471147,170.8763554159657 L 209.27092709270926,168.42431802883075 L 208.67086708670865,166.39372456760964 L 209.2209220922092,164.36313110638852 L 210.37103710371036,162.44747689768937 L 211.67116711671167,160.83832736238205 L 212.6212621262126,159.99543951055443 L 215.87158715871587,157.65834137594143 z" /></g><path fill-rule="evenodd" fill="#D2EBD9" stroke="#A6A6A6" stroke-width="0.25" opacity="1" d="M 485.59855985598557,49.500504752786476 L 470.0970097009701,46.780275776433655 L 461.04610461046104,52.45061223418319 L 449.1949194919492,53.370126254358794 L 434.4434443444344,53.17856083348887 L 419.29192919291927,56.62673840914737 L 404.04040404040404,59.768411311414006 L 389.08890889088906,58.84889729123841 L 374.5874587458746,59.73009822724003 L 372.1372137213721,62.45032720359284 L 370.03700370037,65.36212160081557 L 364.93649364936493,64.97899075907574 L 356.985698569857,68.96355151317 L 350.68506850685066,69.34668235490985 L 344.8344834483448,66.62645337855703 L 340.5340534053405,61.415873930895295 L 338.7338733873387,60.07491598480588 L 336.63366336633663,59.998289816457905 L 332.3332333233323,58.120948691932725 L 325.9325932593259,57.354687008453055 L 323.9323932393239,55.63059822062381 L 320.58205820582054,55.20915429470999 L 317.1817181718172,55.05590195801406 L 313.2313231323132,51.49278512983361 L 310.18101810181014,51.91422905574743 L 307.43074307430743,53.44675242270676 L 306.9306930693069,50.76483653052792 L 305.98059805980597,48.46605148008892 L 303.8303830383038,46.780275776433655 L 302.48024802480245,44.17498605260279 L 296.67966796679667,45.66919633538814 L 290.7290729072907,47.69978979660926 L 287.7287728772877,45.89907484043204 L 285.77857785778576,43.75354212668897 L 281.97819781978194,45.66919633538814 L 280.02800280028003,48.58099073261087 L 274.67746774677465,48.92580849017672 L 270.02700270027003,47.89135521747917 L 266.27662766276626,47.39328512321739 L 264.17641764176415,51.45447204565962 L 261.62616261626164,54.787710368796176 L 260.976097609761,49.308939331916555 L 258.7258725872587,44.098359884254826 L 258.7258725872587,40.03717296181259 L 259.0759075907591,35.975986039370355 L 260.02600260026003,29.539387898141154 L 259.8259825982598,28.619873877965553 L 263.8263826382638,28.198429952051736 L 270.4770477047705,26.436028080048505 L 276.67766776677666,23.98399069291357 L 281.27812781278124,21.302074800734736 L 286.028602860286,23.141102841085935 L 295.67956795679567,22.183275736736352 L 300.5300530053005,25.324948639002987 L 301.78017801780175,24.405434618827385 L 302.8302830283028,24.137243029609504 L 305.4305430543054,23.945677608739587 L 304.2304230423042,27.738672941963937 L 308.4808480848085,27.470481352746052 L 329.08290829082904,29.347822477271237 L 331.78317831783176,28.888065467183438 L 336.5836583658366,27.010724342658254 L 338.6338633863386,27.049037426832236 L 340.28402840284025,28.888065467183438 L 339.08390839083904,35.975986039370355 L 340.03400340034,36.70393463867604 L 342.1342134213421,35.89935987102239 L 345.6845684568457,34.0220187464972 L 359.4359435943594,36.5506823019801 L 385.03850385038504,36.89550005954595 L 403.24032403240324,36.70393463867604 L 417.2417241724172,39.079345857463004 L 424.09240924092404,39.041032773289025 L 429.7929792979298,36.857186975371974 L 435.49354935493545,33.868766409801275 L 449.2949294929493,29.117943972227337 L 455.4455445544554,25.24832247065502 L 460.7960796079608,20.42087386473312 L 473.09730973097305,4.406004680008084 L 475.9475947594759,2.4520373871349337 L 478.04780478047803,8.045747676536502 L 478.6978697869787,11.225733662977118 L 478.2978297829783,16.589565447334785 L 478.3978397839784,19.65461218125345 L 477.997799779978,21.723518726648553 L 476.09760976097607,27.010724342658254 L 475.8475847584758,28.773126214661488 L 476.3476347634763,32.41286921118991 L 477.6977697769777,35.861046786848405 L 485.59855985598557,49.500504752786476 z" /><g><path fill-rule="evenodd" fill="#D2EBD9" stroke="#A6A6A6" stroke-width="0.25" opacity="1" d="M 150.9150915091509,12.605004693240518 L 145.46454645464544,12.605004693240518 L 144.26442644264426,13.409579460894168 L 143.56435643564356,14.673911238635618 L 142.6142614261426,15.171981332897403 L 140.56405640564054,13.754397218460019 L 139.46394639463946,14.942102827853502 L 138.46384638463846,15.210294417071385 L 137.66376637663765,14.444032733591719 L 137.1137113711371,12.605004693240518 L 141.5141514151415,8.5055046866243 L 144.21442144214421,6.858042067143018 L 147.26472647264725,6.168406552011318 L 154.11541154115412,5.823588794445468 L 157.66576657665766,6.168406552011318 L 159.86598659865984,7.585990666448701 L 159.86598659865984,10.191280390279568 L 157.36573657365736,11.685490673064919 L 153.86538653865387,12.413439272370601 L 150.9150915091509,12.605004693240518 z" /><path fill-rule="evenodd" fill="#D2EBD9" stroke="#A6A6A6" stroke-width="0.25" opacity="1" d="M 259.8259825982598,28.619873877965553 L 260.02600260026003,29.539387898141154 L 259.0759075907591,35.975986039370355 L 254.57545754575457,42.10607950720769 L 253.17531753175317,50.15182718374419 L 247.57475747574756,55.362406631405925 L 240.9240924092409,60.80286458411156 L 236.67366736673665,61.95225710933106 L 232.67326732673266,60.764551499937575 L 223.67236723672366,61.83731785680911 L 214.37143714371436,61.645752435939194 L 205.2205220522052,62.91008421368064 L 199.7199719971997,60.68792533158961 L 193.46934693469345,59.04046271210832 L 187.91879187918792,59.23202813297824 L 182.36823682368237,58.69564495454247 L 171.16711671167116,56.89492999836526 L 162.3162316231623,59.15540196463027 L 165.6165616561656,66.31994870516516 L 161.7161716171617,68.3122290822123 L 159.16591659165917,71.45390198447893 L 156.1156115611561,74.09750479248378 L 151.3151315131513,74.5189487183976 L 145.66456645664564,73.71437395074395 L 141.7141714171417,70.38113562760739 L 138.7138713871387,71.33896273195698 L 135.21352135213522,73.1396776881342 L 129.4129412941294,72.87148609891631 L 123.7123712371237,73.63774778239598 L 112.51125112511251,70.53438796430332 L 104.36043604360435,70.41944871178137 L 101.96019601960195,66.77970571525296 L 102.26022602260225,62.412014119418856 L 93.90939093909391,63.063336550376576 L 85.55855585558555,65.47706085333752 L 78.25782578257825,67.92909824047246 L 70.85708570857085,69.76812628082367 L 53.05530553055305,68.3122290822123 L 25.852585258525853,62.68020570863674 L 16.15161516151615,61.72237860428716 L 11.3011301130113,62.641892624462756 L 7.1007100710071,62.18213561437496 L 6.4006400640064,61.87563094098309 L 7.6007600760076,59.15540196463027 L 14.2014201420142,55.822163641493724 L 15.7015701570157,53.75325709609862 L 17.1017101710171,52.22073372913929 L 20.502050205020502,50.305079520440124 L 24.552455245524552,48.69592998513282 L 27.75277527752775,48.00629447000112 L 31.6031603160316,49.194000079394606 L 35.3035303530353,51.49278512983361 L 38.85388538853885,52.98699541261896 L 42.154215421542155,51.79928980322548 L 43.354335433543355,53.17856083348887 L 44.8044804480448,52.297359897487254 L 49.304930493049305,50.53495802548402 L 51.15511551155115,50.075201015396225 L 52.655265526552654,49.960261762874275 L 53.65536553655365,49.34725241609054 L 54.005400540054005,47.39328512321739 L 54.8054805480548,45.63088325121416 L 56.75567556755675,44.251612220950754 L 59.005900590059,43.33209820077516 L 64.35643564356435,42.41258418059956 L 67.40674067406741,40.918373897814206 L 84.35843584358436,28.389995372921653 L 87.65876587658765,25.324948639002987 L 88.1088108810881,24.520373871349335 L 88.35883588358836,23.370981346129838 L 88.95889588958896,22.681345830998136 L 90.9090909090909,21.723518726648553 L 91.45914591459146,21.302074800734736 L 102.7102710271027,5.133953279313768 L 103.36033603360336,2.4137243029609503 L 104.66046604660465,1.1493925252195 L 106.36063606360635,0.34481775756585004 L 108.06080608060806,0.03831308417398334 L 119.66196619661966,0.0 L 122.01220122012201,0.57469626260975 L 122.41224122412241,1.9922803770471336 L 121.5121512151215,5.593710289401567 L 120.4120412041204,8.467191602450319 L 113.01130113011301,16.359686942290885 L 116.06160616061605,21.417014053256686 L 119.26192619261926,24.597000039697303 L 131.8131813181318,30.42058883414277 L 139.46394639463946,36.5506823019801 L 139.66396639663967,37.20200473293782 L 139.4139413941394,38.77284118407114 L 140.01400140014002,39.079345857463004 L 141.9141914191419,38.65790193154919 L 142.96429642964296,38.274771089809356 L 143.06430643064306,37.81501407972156 L 144.51445144514452,39.23259819415894 L 146.46464646464645,41.837887917989804 L 147.86478647864786,42.98728044320931 L 146.16461646164615,38.734528099897155 L 145.56455645564554,36.512369217806125 L 145.46454645464544,34.0220187464972 L 147.96479647964796,36.01429912354434 L 150.16501650165014,40.84174772946624 L 152.66526652665266,41.608009412945904 L 151.76517651765175,38.58127576320122 L 152.56525652565256,36.16755146024027 L 154.31543154315432,35.209724355890685 L 156.36563656365635,36.5506823019801 L 157.46574657465746,36.5506823019801 L 159.8159815981598,35.24803744006467 L 161.1161116111611,37.92995333224351 L 162.4162416241624,41.569696328771926 L 164.76647664766475,42.98728044320931 L 166.016601660166,41.95282717051175 L 167.5167516751675,38.54296267902724 L 168.91689168916892,37.81501407972156 L 171.06710671067106,38.23645800563537 L 176.7176717671767,41.608009412945904 L 180.86808680868086,42.75740193816541 L 195.06950695069506,42.87234119068736 L 206.77067706770677,41.608009412945904 L 206.77067706770677,40.45861688772641 L 200.47004700470046,40.496929971900386 L 198.1198119811981,39.57741595172479 L 197.21972197219722,37.16369164876384 L 198.8198819881988,36.742247722850024 L 209.27092709270926,37.81501407972156 L 232.57325732573256,34.0220187464972 L 234.12341234123411,33.52394865223542 L 239.22392239223922,30.267336497446838 L 240.67406740674065,30.03745799240294 L 245.3245324532453,30.267336497446838 L 259.8259825982598,28.619873877965553 z" /></g><g><path fill-rule="evenodd" fill="#D2EBD9" stroke="#A6A6A6" stroke-width="0.25" opacity="1" d="M 121.5121512151215,111.37613569376957 L 121.86218621862186,106.43374783532572 L 126.26262626262626,103.9433973640168 L 131.86318631863185,103.90508427984281 L 135.86358635863584,106.31880858280377 L 135.8135813581358,110.41830858941998 L 131.4131413141314,112.9086590607289 L 125.7125712571257,113.36841607081669 L 121.5121512151215,111.37613569376957 z" /><path fill-rule="evenodd" fill="#D2EBD9" stroke="#A6A6A6" stroke-width="0.25" opacity="1" d="M 6.4006400640064,61.87563094098309 L 7.1007100710071,62.18213561437496 L 11.3011301130113,62.641892624462756 L 16.15161516151615,61.72237860428716 L 25.852585258525853,62.68020570863674 L 53.05530553055305,68.3122290822123 L 70.85708570857085,69.76812628082367 L 78.25782578257825,67.92909824047246 L 85.55855585558555,65.47706085333752 L 93.90939093909391,63.063336550376576 L 102.26022602260225,62.412014119418856 L 101.96019601960195,66.77970571525296 L 104.36043604360435,70.41944871178137 L 112.51125112511251,70.53438796430332 L 123.7123712371237,73.63774778239598 L 126.86268626862686,80.80229452293086 L 130.76307630763077,85.20829920293895 L 127.9127912791279,86.54925714902836 L 127.01270127012701,89.15454687285923 L 130.06300630063006,92.64103753269171 L 131.56315631563155,95.6677711824364 L 130.01300130013001,94.82488333060877 L 128.4128412841284,94.86319641478275 L 126.26262626262626,95.93596277165427 L 124.51245124512451,96.20415436087217 L 123.56235623562355,95.8976496874803 L 123.012301230123,95.2080141723486 L 122.11221122112211,94.70994407808682 L 120.3120312031203,94.82488333060877 L 119.2119211921192,95.47620576156648 L 115.41154115411541,98.73281791635506 L 113.36133613361335,99.65233193653066 L 111.5111511151115,99.99714969409652 L 103.6103610361036,100.30365436748838 L 101.36013601360135,101.10822913514203 L 96.25962596259626,103.79014502732086 L 95.15951595159515,103.67520577479891 L 93.95939593959396,103.02388334384119 L 92.95929592959295,102.94725717549323 L 92.55925592559255,104.36484128993061 L 90.8090809080908,106.31880858280377 L 80.7080708070807,106.77856559289157 L 57.75577557755775,117.0464721515191 L 50.75507550755075,118.54068243430444 L 40.904090409040904,119.1153786969142 L 38.85388538853885,118.96212636021826 L 36.9036903690369,118.4257431817825 L 35.3035303530353,115.62888803708172 L 33.5033503350335,115.55226186873375 L 29.452945294529453,116.54840205725732 L 26.15261526152615,115.97370579464757 L 18.35183518351835,112.79371980820694 L 12.4012401240124,109.30722914837446 L 11.05110511051105,107.6214534447192 L 11.5011501150115,105.62917306767207 L 12.15121512151215,104.21158895323468 L 12.85128512851285,101.8744908186217 L 13.151315131513151,99.72895810487863 L 12.7012701270127,98.73281791635506 L 10.05100510051005,96.85547679182989 L 8.000800080008,88.27334593685761 L 4.8004800480048,86.0128739705926 L 5.5505550555055505,84.21215901441538 L 6.1006100610061,83.4842104151097 L 0.0,74.5189487183976 L 4.55045504550455,68.7336730081261 L 5.7005700570057005,66.20500945264321 L 6.1006100610061,62.56526645611479 L 6.4006400640064,61.87563094098309 z" /></g><g><path fill-rule="evenodd" fill="#D2EBD9" stroke="#A6A6A6" stroke-width="0.25" opacity="1" d="M 287.4787478747875,382.8626501506155 L 278.5778577857786,381.63663145704805 L 270.4770477047705,378.91640248069524 L 269.4769476947695,377.99688846051964 L 268.976897689769,377.7670099554757 L 268.2268226822682,377.7670099554757 L 270.72707270727074,375.42991182086274 L 274.6274627462746,373.4376314438156 L 278.8778877887789,372.0200473293782 L 282.57825782578254,371.2537856458986 L 284.47844784478445,371.5986034034644 L 286.5286528652865,372.36486508694406 L 288.5788578857886,372.7479959286839 L 291.47914791479144,371.44535106676847 L 299.9799979998,369.49138377389534 L 306.8806880688069,366.7711547975425 L 321.7321732173217,364.7022482521474 L 324.58245824582457,363.5145426427539 L 326.5826582658266,367.882234238588 L 319.5319531953195,372.36486508694406 L 302.9302930293029,378.91640248069524 L 298.92989298929893,381.2535006153082 L 295.9295929592959,382.6327716455716 L 292.5292529252925,383.0925286556594 L 287.4787478747875,382.8626501506155 z" /><path fill-rule="evenodd" fill="#D2EBD9" stroke="#A6A6A6" stroke-width="0.25" opacity="1" d="M 240.07400740074007,297.1562808534148 L 239.87398739873987,297.65435094767656 L 241.27412741274125,307.84563133795615 L 249.52495249524952,316.5810145296243 L 256.27562756275626,317.232336960582 L 263.37633763376334,315.46993508857884 L 270.62706270627064,314.89523882596905 L 277.77777777777777,313.5542808798796 L 291.029102910291,315.89137901449266 L 301.9301930193019,325.23977155294455 L 305.58055805580557,326.1975986572941 L 308.53085308530854,327.9216874451234 L 312.8312831283128,331.02504726321604 L 318.1818181818182,330.25878557973635 L 318.13181318131814,331.4081781049559 L 318.6818681868187,333.6303369870469 L 321.1321132113211,334.2816594180046 L 323.98239823982397,333.55371081869896 L 325.6825682568257,332.4426313776534 L 327.53275327532754,332.21275287260954 L 333.2333233323332,337.23176689940135 L 334.38343834383437,339.49223886566637 L 336.13361336133613,342.09752858949724 L 337.53375337533754,343.1319818621948 L 336.93369336933694,343.89824354567446 L 326.4826482648265,347.15485570046303 L 322.88228822882286,348.91725757246627 L 318.43184318431844,351.6374865488191 L 300.5300530053005,355.85192580795723 L 295.07950795079506,356.1584304813491 L 289.22892289228923,355.4304818820434 L 283.67836783678365,353.97458468343206 L 278.977897789779,352.0206173905589 L 275.57755775577556,353.2849491683004 L 271.57715771577153,352.90181832656054 L 268.2268226822682,351.1011033703833 L 266.97669766976696,348.18930897316056 L 265.1265126512651,349.9517108451638 L 262.67626762676264,350.8712248653394 L 260.02600260026003,351.1011033703833 L 257.4257425742574,350.75628561281746 L 253.92539253925392,349.7984585084679 L 250.67506750675065,349.60689308759794 L 248.22482248224821,349.9517108451638 L 243.57435743574356,351.6374865488191 L 241.024102410241,352.0206173905589 L 236.023602360236,351.4459211279492 L 234.02340234023401,352.13555664308086 L 231.9231923192319,354.70253328273776 L 228.4228422842284,349.7984585084679 L 222.17221722172215,345.2392014917639 L 200.8200820082008,335.3544257748762 L 197.26972697269727,335.12454726983225 L 193.66936693669365,335.43105194322413 L 190.36903690369036,335.08623418565827 L 187.51875187518752,332.9407014719152 L 197.21972197219722,332.9407014719152 L 197.21972197219722,331.5231173574778 L 188.01880188018802,327.2320519299917 L 186.3186318631863,327.19373884581773 L 185.36853685368536,325.08651921624863 L 179.1179117911791,314.971864994317 L 179.6179617961796,312.7880191964 L 179.96799679967995,308.91839769482766 L 180.9180918091809,305.2020285299513 L 183.36833683368337,303.516252826296 L 185.06850685068505,302.7499911428163 L 188.16881688168814,299.2635004829839 L 189.4189418941894,298.4589257153302 L 191.36913691369136,298.2673602944603 L 194.66946694669466,297.38615935845866 L 211.37113711371137,296.543271506631 L 218.9218921892189,297.5394116951546 L 222.47224722472245,300.9875892708131 L 224.82248224822482,298.88036964124404 L 228.6228622862286,296.77315001167494 L 232.47324732473245,295.1640004763676 L 235.12351235123512,294.5126780454099 L 236.97369736973695,294.93412197132375 L 238.1238123812381,295.85363599149935 L 238.92389238923892,296.77315001167494 L 239.82398239823982,297.19459393758876 L 240.07400740074007,297.1562808534148 z" /></g><path fill-rule="evenodd" fill="#D2EBD9" stroke="#A6A6A6" stroke-width="0.25" opacity="1" d="M 337.53375337533754,343.1319818621948 L 336.13361336133613,342.09752858949724 L 334.38343834383437,339.49223886566637 L 333.2333233323332,337.23176689940135 L 327.53275327532754,332.21275287260954 L 325.6825682568257,332.4426313776534 L 323.98239823982397,333.55371081869896 L 321.1321132113211,334.2816594180046 L 318.6818681868187,333.6303369870469 L 318.13181318131814,331.4081781049559 L 318.1818181818182,330.25878557973635 L 320.2320232023202,325.7761547313803 L 323.8323832383238,322.9026734183316 L 324.38243824382437,318.7648603275414 L 328.13281328132814,319.26293042180316 L 331.78317831783176,316.54270144545035 L 330.1330133013301,310.2593556409171 L 332.3332333233323,307.07936965447647 L 336.5836583658366,305.24034161412527 L 338.98389838983894,297.8076032843725 L 341.88418841884186,290.22161261792377 L 346.73467346734674,285.4324770961759 L 352.035203520352,281.1414116686897 L 358.3358335833583,278.53612194485885 L 363.5863586358636,280.22189764851413 L 363.6363636363636,285.04934625443605 L 367.08670867086704,284.9344070019141 L 370.3370337033703,288.03776682000677 L 373.3373337333733,288.3059584092246 L 379.28792879287926,285.24091167530594 L 380.1380138013801,273.4404817497191 L 386.88868886888685,267.11882286101184 L 393.93939393939394,263.6706452853533 L 396.88968896889685,257.00416863908026 L 395.98959895989594,251.87021535976646 L 396.8396839683968,246.58300974375678 L 399.7399739973997,241.29580412774706 L 401.5901590159016,236.27679010095525 L 406.79067906790675,234.47607514477804 L 410.5910591059106,230.60645364320573 L 412.24122412241223,228.19272934024477 L 415.6415641564156,228.49923401363662 L 427.7427742774277,236.08522468008533 L 440.3940394039404,242.56013590548852 L 437.49374937493747,252.17672003315835 L 428.6428642864286,261.18029481404443 L 422.14221422142214,263.0193228543956 L 423.84238423842385,265.73955183074844 L 424.39243924392434,270.6819396891923 L 421.44214421442143,275.5477013792882 L 419.6419641964196,281.0264724161678 L 417.2417241724172,285.4324770961759 L 416.7416741674167,289.80016869200995 L 417.4417441744174,292.17557991079696 L 417.29172917291726,294.7425565504538 L 419.4419441944194,296.16014066489123 L 422.24222422242224,296.73483692750096 L 425.99259925992595,302.25192104855455 L 426.79267926792676,309.4547808732634 L 428.29282928292827,312.59645377553005 L 427.79277927792776,312.826332280574 L 426.49264926492646,314.5887341525772 L 425.042504250425,314.971864994317 L 418.99189918991897,314.971864994317 L 417.29172917291726,315.5465612569268 L 414.79147914791474,318.07522481240966 L 413.54135413541354,318.9181126642373 L 412.5912591259126,319.1863042534552 L 411.991199119912,319.2246173376292 L 405.040504050405,317.9985986440617 L 402.1902190219022,318.3051033174536 L 399.18991899189916,320.0675051894568 L 400.69006900690067,324.58844912198686 L 398.3398339833983,326.58072949903396 L 394.8894889488949,326.46579024651203 L 393.0893089308931,324.6650752903348 L 391.6891689168917,321.906533229808 L 388.48884888488845,320.8720799571105 L 384.93849384938494,321.1785846305023 L 382.3382338233823,322.5961687449397 L 381.2381238123812,322.5961687449397 L 381.8881888188819,320.64220145206656 L 382.3382338233823,320.0675051894568 L 382.3382338233823,318.9181126642373 L 382.038203820382,319.26293042180316 L 381.2381238123812,317.65378088649584 L 383.53835383538353,317.65378088649584 L 381.2381238123812,314.971864994317 L 381.8881888188819,313.36271545900973 L 381.2381238123812,313.1328369539658 L 378.1378137813781,313.82247246909753 L 377.3377337733773,314.6653603209252 L 375.13751375137514,320.0675051894568 L 377.88778877887785,319.30124350597714 L 378.7378737873787,318.9181126642373 L 378.7378737873787,320.0675051894568 L 370.2370237023702,327.99831361347134 L 369.1369136913691,330.9484210948681 L 366.9366936693669,330.2970986639104 L 361.98619861986197,331.5614304416518 L 356.63566356635664,333.6303369870469 L 353.4353435343534,335.3544257748762 L 350.78507850785076,333.59202390287294 L 345.8845884588459,335.39273885905016 L 341.18411841184115,338.57272484549077 L 337.53375337533754,343.1319818621948 z" /><path fill-rule="evenodd" fill="#D2EBD9" stroke="#A6A6A6" stroke-width="0.25" opacity="1" d="M 312.8312831283128,169.88021522744214 L 315.28152815281527,173.02188812970877 L 318.23182318231824,175.16742084345182 L 329.38293829382934,174.745976917538 L 346.7846784678468,172.37056569875105 L 351.1351135113511,172.60044420379495 L 353.035303530353,169.91852831161611 L 354.7854785478548,167.04504699856736 L 363.7863786378638,163.252051665343 L 368.48684868486845,159.8038740896845 L 372.6372637263726,155.55112174637236 L 380.8380838083808,156.04919184063414 L 389.1389138913891,155.05305165211058 L 393.2893289328933,157.42846287089753 L 393.93939393939394,163.13711241282107 L 396.3396339633963,169.19057971231044 L 394.7894789478948,183.36642085668427 L 397.18971897189715,192.79143956348418 L 395.98959895989594,198.30852368453776 L 395.6395639563956,202.8294676170678 L 397.28972897289725,206.7757152869881 L 392.53925392539253,211.48822464038804 L 393.53935393539354,224.93611718545617 L 401.5901590159016,236.27679010095525 L 399.7399739973997,241.29580412774706 L 396.8396839683968,246.58300974375678 L 395.98959895989594,251.87021535976646 L 396.88968896889685,257.00416863908026 L 393.93939393939394,263.6706452853533 L 386.88868886888685,267.11882286101184 L 380.1380138013801,273.4404817497191 L 379.28792879287926,285.24091167530594 L 373.3373337333733,288.3059584092246 L 370.3370337033703,288.03776682000677 L 367.08670867086704,284.9344070019141 L 363.6363636363636,285.04934625443605 L 363.5863586358636,280.22189764851413 L 358.3358335833583,278.53612194485885 L 352.035203520352,281.1414116686897 L 346.73467346734674,285.4324770961759 L 341.88418841884186,290.22161261792377 L 338.98389838983894,297.8076032843725 L 336.5836583658366,305.24034161412527 L 332.3332333233323,307.07936965447647 L 330.1330133013301,310.2593556409171 L 331.78317831783176,316.54270144545035 L 328.13281328132814,319.26293042180316 L 324.38243824382437,318.7648603275414 L 323.8323832383238,322.9026734183316 L 320.2320232023202,325.7761547313803 L 318.1818181818182,330.25878557973635 L 312.8312831283128,331.02504726321604 L 308.53085308530854,327.9216874451234 L 305.58055805580557,326.1975986572941 L 301.9301930193019,325.23977155294455 L 291.029102910291,315.89137901449266 L 277.77777777777777,313.5542808798796 L 270.62706270627064,314.89523882596905 L 263.37633763376334,315.46993508857884 L 256.27562756275626,317.232336960582 L 249.52495249524952,316.5810145296243 L 241.27412741274125,307.84563133795615 L 239.87398739873987,297.65435094767656 L 240.07400740074007,297.1562808534148 L 241.8241824182418,296.96471543254484 L 245.27452745274528,296.12182758071725 L 247.07470747074706,295.8919490756733 L 257.9257925792579,291.86907523740507 L 259.6759675967597,292.67365000505873 L 260.8760876087609,292.36714533166685 L 267.07670767076706,287.07993971565713 L 269.92699269926993,285.7389817695677 L 273.27732773277324,284.9344070019141 L 282.57825782578254,279.1491312916426 L 293.7293729372937,274.0151780123288 L 297.029702970297,271.63976679354187 L 299.3799379937994,268.8045985646671 L 300.88008800880084,266.3142480933582 L 303.18031803180315,264.62847238970295 L 312.28122812281225,264.05377612709316 L 314.031403140314,263.0576359385696 L 317.43174317431743,256.27622003977456 L 315.2315231523152,256.31453312394854 L 313.5313531353135,257.23404714412413 L 311.4311431143114,258.84319667943146 L 308.53085308530854,259.4178929420412 L 308.93089308930894,258.61331817438753 L 309.23092309230924,254.36056583107538 L 309.88098809880984,252.82804246411607 L 309.78097809780974,251.44877143385264 L 307.83078307830783,250.03118731941527 L 306.08060806080607,249.7629957301974 L 304.4304430443044,250.29937890863314 L 302.9302930293029,251.29551909715673 L 301.8301830183018,252.4832247065502 L 301.08010801080104,250.14612657193723 L 300.8300830083008,246.2765050703649 L 301.48014801480144,242.63676207383648 L 303.58035803580356,241.06592562270316 L 307.0807080708071,240.72110786513733 L 308.93089308930894,239.72496767661374 L 311.4311431143114,234.70595364982194 L 309.3809380938094,235.05077140738777 L 306.5306530653065,234.93583215486584 L 303.78037803780376,234.39944897643008 L 301.8301830183018,233.44162187208047 L 300.68006800680064,231.71753308425124 L 298.7798779877988,227.4264676567651 L 297.029702970297,225.8173181214578 L 296.8796879687969,224.82117793293423 L 297.0797079707971,224.47636017536837 L 296.9296929692969,224.13154241780254 L 295.7295729572957,223.2886545659749 L 296.8796879687969,220.3002340004042 L 301.08010801080104,212.82918258647746 L 302.9302930293029,210.49208445186446 L 305.8305830583058,208.76799566403523 L 309.03090309030904,207.54197697046774 L 311.58115811581155,205.74126201429053 L 312.6312631263126,202.21645827028405 L 310.98109810981094,199.49622929393124 L 307.2807280728073,198.27021060036378 L 300.5300530053005,197.81045359027598 L 293.1293129312931,194.78371994053128 L 293.97939793979396,190.03289750295735 L 312.3312331233123,170.11009373248604 L 312.8312831283128,169.88021522744214 z" /><path fill-rule="evenodd" fill="#D2EBD9" stroke="#A6A6A6" stroke-width="0.25" opacity="1" d="M 131.56315631563155,95.6677711824364 L 130.06300630063006,92.64103753269171 L 127.01270127012701,89.15454687285923 L 127.9127912791279,86.54925714902836 L 130.76307630763077,85.20829920293895 L 126.86268626862686,80.80229452293086 L 123.7123712371237,73.63774778239598 L 129.4129412941294,72.87148609891631 L 135.21352135213522,73.1396776881342 L 138.7138713871387,71.33896273195698 L 141.7141714171417,70.38113562760739 L 145.66456645664564,73.71437395074395 L 151.3151315131513,74.5189487183976 L 156.1156115611561,74.09750479248378 L 159.16591659165917,71.45390198447893 L 161.7161716171617,68.3122290822123 L 165.6165616561656,66.31994870516516 L 162.3162316231623,59.15540196463027 L 171.16711671167116,56.89492999836526 L 182.36823682368237,58.69564495454247 L 187.91879187918792,59.23202813297824 L 193.46934693469345,59.04046271210832 L 199.7199719971997,60.68792533158961 L 205.2205220522052,62.91008421368064 L 214.37143714371436,61.645752435939194 L 223.67236723672366,61.83731785680911 L 232.67326732673266,60.764551499937575 L 236.67366736673665,61.95225710933106 L 240.9240924092409,60.80286458411156 L 247.57475747574756,55.362406631405925 L 253.17531753175317,50.15182718374419 L 254.57545754575457,42.10607950720769 L 259.0759075907591,35.975986039370355 L 258.7258725872587,40.03717296181259 L 258.7258725872587,44.098359884254826 L 260.976097609761,49.308939331916555 L 261.62616261626164,54.787710368796176 L 258.9258925892589,58.27420102862866 L 257.6257625762576,62.75683187698471 L 254.57545754575457,65.82187861090338 L 250.17501750175015,66.01344403177329 L 249.82498249824982,70.99414497439113 L 252.5252525252525,75.59171507526912 L 252.4252425242524,77.81387395736016 L 251.4251425142514,79.88278050275527 L 247.024702470247,79.1165188192756 L 244.07440744074407,79.3080842401455 L 241.4241424142414,80.30422442866907 L 238.1238123812381,82.21987863736824 L 231.97319731973195,84.51866368780725 L 225.07250725072507,85.13167303459097 L 211.02110211021102,84.6336029403292 L 207.12071207120712,85.43817770798285 L 200.17001700170016,89.0012945361633 L 196.61966196619662,89.80586930381695 L 168.86688668866887,91.91308893338604 L 161.3161316131613,90.99357491321042 L 155.16551655165514,87.27720574833404 L 152.4152415241524,88.65647677859745 L 146.8146814681468,87.81358892676981 L 143.76437643764376,89.2311730412072 L 142.96429642964296,90.64875715564457 L 143.06430643064306,92.06634127008196 L 142.86428642864286,93.17742071112748 L 139.96399639963997,93.86705622625918 L 135.86358635863584,96.20415436087217 L 139.71397139713972,97.58342539113556 L 143.1143114311431,97.96655623287539 L 146.46464646464645,97.50679922278759 L 150.26502650265024,96.20415436087217 L 150.26502650265024,97.35354688609166 L 154.9154915491549,96.66391137095997 L 158.46584658465846,99.03932258974693 L 158.36583658365836,102.21930857618754 L 152.1152115211521,103.79014502732086 L 149.81498149814982,103.483640353929 L 141.86418641864185,101.14654221931602 L 137.66376637663765,101.18485530349 L 136.46364636463645,100.57184595670627 L 134.26342634263426,97.81330389617946 L 134.06340634063406,97.35354688609166 L 133.3133313331333,97.00872912852581 L 131.56315631563155,95.6677711824364 z" /></g></g></g></svg>