<svg xmlns="http://www.w3.org/2000/svg" xmlns:xlink="http://www.w3.org/1999/xlink" width="400.4205440543592" height="500.0" viewBox="0.0 0.0 400.4205440543592 500.0" preserveAspectRatio="xMinYMin meet"><g transform="matrix(1,0,0,-1,0,500.0)"><g><g><path fill-rule="evenodd" fill="#D2EBD9" stroke="#A6A6A6" stroke-width="0.25" opacity="1" d="M 168.65598978102207,21.72321945335716 L 161.99644991755486,38.4227946838364 L 153.89191537722945,39.70758957322687 L 144.656515378505,34.408007215708494 L 134.47872774675488,30.71466379519552 L 123.20148826763034,34.99682401865721 L 108.78295591846108,54.05651181191206 L 97.34865144640207,58.44760618265718 L 80.76262747496367,50.73664917331189 L 65.62159817293286,35.425058766268194 L 49.69524546340108,24.720202270895243 L 31.22444622963667,30.71466379519552 L 31.22444622963667,40.51060057245195 L 35.33953957259655,42.91970703471452 L 38.04105108603835,45.168301386758685 L 41.307995330542326,47.09574240446091 L 47.025146793574095,48.70199476927519 L 46.114172007888556,74.19419184140861 L 72.124073818326,111.16830793302506 L 79.09774289280176,134.4373266575858 L 79.47469779103994,174.02817632816732 L 82.45892566815019,190.98914412874728 L 89.65248542279005,210.64040307234973 L 92.25975763052702,223.26174799725413 L 91.34878284484148,232.12528951652348 L 92.88801682367921,237.44410716649145 L 109.97664706781507,241.58132335636765 L 128.63592413440347,254.47855743207037 L 144.78216752409935,275.44307224452496 L 168.40468626096845,296.63080019969493 L 179.27355799824,311.37027181778103 L 213.0738643631339,394.17907206714153 L 231.29336084797978,429.8611988015473 L 258.8110822439194,456.07173867709935 L 299.99342542886734,480.56789269763976 L 328.98755434527993,487.58424260560423 L 343.437499538064,495.6271709538996 L 357.2905991561711,500.0 L 370.0128340795636,493.09001109562814 L 365.55219868198037,473.98414142616093 L 349.75149734690785,424.2539982646704 L 351.2593177109957,406.30406007077545 L 355.4058238975704,396.44219753239304 L 360.4004791788757,374.46152676362544 L 364.67263674363494,365.6286585703492 L 370.6410924978554,361.8589684739709 L 384.77690770849586,360.0819184323773 L 390.55688640475273,355.8280059704557 L 394.6405661329627,348.39791793655604 L 399.4153307378292,336.5011190371588 L 400.4205440543592,325.36031906027347 L 393.44687497988343,320.5172042949125 L 388.9862395860255,316.32018481288105 L 378.11736784502864,293.40371119976044 L 372.36880276724696,288.77854968234897 L 367.6568646207452,278.238951113075 L 363.47894559055567,265.98116471245885 L 358.9554845057428,256.4671526979655 L 354.1807199008763,251.46892967168242 L 333.071234844625,239.3246202217415 L 339.54229687154293,203.23007955029607 L 322.704970151186,183.9035412594676 L 296.2238749116659,169.46679037529975 L 274.14058937877417,148.38204520847648 L 274.8316734880209,132.13142737559974 L 232.61270337179303,103.50349897984415 L 221.42970242351294,89.51665570773184 L 216.7805891931057,79.22977136261761 L 205.94313029944897,74.19419184140861 L 193.7863288782537,71.03379885852337 L 185.02212307602167,66.5881311642006 L 178.83377741277218,57.16237173601985 L 168.65598978102207,21.72321945335716 z" /><path fill-rule="evenodd" fill="#D2EBD9" stroke="#A6A6A6" stroke-width="0.25" opacity="1" d="M 15.612222731113434,25.4159550415352 L 22.837195325642824,23.007620342075825 L 17.37134661525488,7.596794190816581 L 14.198641672730446,0.0 L 10.83745812624693,4.279754878021777 L 5.21454519405961,2.9422952253371477 L 0.0,12.091169834136963 L 2.167491625994444,18.83342587389052 L 15.612222731113434,25.4159550415352 z" /></g></g></g></svg>