<svg xmlns="http://www.w3.org/2000/svg" xmlns:xlink="http://www.w3.org/1999/xlink" width="277.984348166734" height="500.0" viewBox="0.0 0.0 277.984348166734 500.0" preserveAspectRatio="xMinYMin meet"><g transform="matrix(1,0,0,-1,0,500.0)"><g><g><path fill-rule="evenodd" fill="#D2EBD9" stroke="#A6A6A6" stroke-width="0.25" opacity="1" d="M 271.8778248708695,10.98440407612361 L 274.17006336711347,13.499182475032285 L 274.75687627494335,15.348244226537645 L 275.39870321564376,14.07239536207635 L 275.728785617277,12.796530096558854 L 275.61875800043344,11.2987549303798 L 274.83022794499993,9.468110187794082 L 273.0331130493432,7.323069960344583 L 266.59650734998286,1.6458882855949923 L 264.0658759828657,0.0 L 262.72720874100924,6.416961626382545 L 264.0658759828657,19.416060602176003 L 262.52549181878567,24.833397947484627 L 261.0401212386787,26.109110892633907 L 255.90550683252513,28.93780865170993 L 253.9983645454049,29.47395814815536 L 251.98119463957846,30.76810056436807 L 247.12164905294776,37.23856532166246 L 250.11072785034776,36.81337591726333 L 261.2051624394953,29.15966407652013 L 264.0658759828657,26.38643788616173 L 265.44121917150915,20.895225965068676 L 264.0658759828657,1.553423386067152 L 266.3947902023792,3.5876316437497735 L 271.8778248708695,10.98440407612361 z" /><path fill-rule="evenodd" fill="#D2EBD9" stroke="#A6A6A6" stroke-width="0.25" opacity="1" d="M 275.6370958611369,34.98319271230139 L 277.984348166734,30.916001570411026 L 276.84739784896374,27.810036817681976 L 274.53682149015367,24.77793171396479 L 273.2898437809199,20.95069410011638 L 273.63826404325664,18.047813513083383 L 274.46346982195973,15.976917455671355 L 273.5465745124966,17.197272032964975 L 272.53798944689333,18.93532731360756 L 271.98785226233304,20.82126817724202 L 272.59300325624645,22.50379361177329 L 276.1505573242903,29.49244619149249 L 274.06003597564995,34.9462190719787 L 269.4572208933532,40.2333272153046 L 265.6062603723258,46.68470748455729 L 268.02686412259936,45.002581525128335 L 275.6370958611369,34.98319271230139 z" /><path fill-rule="evenodd" fill="#D2EBD9" stroke="#A6A6A6" stroke-width="0.25" opacity="1" d="M 20.135023100301623,177.03247077262495 L 22.775681860744953,176.94015967228916 L 21.235297471284866,176.16474350064527 L 20.446767415851355,176.31244211632293 L 20.135023100301623,177.03247077262495 z" /><path fill-rule="evenodd" fill="#D2EBD9" stroke="#A6A6A6" stroke-width="0.25" opacity="1" d="M 0.09168953076004982,236.88956629496533 L 0.0,239.28836607397534 L 0.3117445409297943,240.2109680987196 L 1.4303567726165056,241.09665924718138 L 1.7604391742497683,239.2699140041368 L 1.4853705801069736,238.21813845878933 L 0.09168953076004982,236.88956629496533 z" /><path fill-rule="evenodd" fill="#D2EBD9" stroke="#A6A6A6" stroke-width="0.25" opacity="1" d="M 17.439350532367826,280.57693539373577 L 18.319570118561387,282.3477051453665 L 19.38316876627505,283.67576527723577 L 20.795187678188086,284.5426855291007 L 22.427261598408222,284.78247092850506 L 21.56537987291813,282.2001421508612 L 20.300064301118255,279.58086594811175 L 18.869707303121686,278.54789614037145 L 17.439350532367826,280.57693539373577 z" /><path fill-rule="evenodd" fill="#D2EBD9" stroke="#A6A6A6" stroke-width="0.25" opacity="1" d="M 115.41879323869944,451.74572961288504 L 113.49331286363304,453.1825507269241 L 112.97985162585974,453.6614878833061 L 115.08871106244624,453.2930747483624 L 115.73053777776659,452.7588742171647 L 115.41879323869944,451.74572961288504 z" /><path fill-rule="evenodd" fill="#D2EBD9" stroke="#A6A6A6" stroke-width="0.25" opacity="1" d="M 216.4239909145981,477.18260737217497 L 218.5695260707289,479.11642874754034 L 217.9643750768155,477.8640521663474 L 217.30421050079167,477.31152954290155 L 216.4239909145981,477.18260737217497 z" /><path fill-rule="evenodd" fill="#D2EBD9" stroke="#A6A6A6" stroke-width="0.25" opacity="1" d="M 107.27676217444241,486.81461475859396 L 109.53232472389936,490.2768186565954 L 109.16556660085917,488.2879033170175 L 108.4687260761857,487.29343519255053 L 107.27676217444241,486.81461475859396 z" /><path fill-rule="evenodd" fill="#D2EBD9" stroke="#A6A6A6" stroke-width="0.25" opacity="1" d="M 112.50306588597596,497.82707427302375 L 114.3735324498266,498.3795160984155 L 113.89674693532288,497.2378004787024 L 113.4566371422261,497.12731143960264 L 112.50306588597596,497.82707427302375 z" /><path fill-rule="evenodd" fill="#D2EBD9" stroke="#A6A6A6" stroke-width="0.25" opacity="1" d="M 158.89797324314713,498.2321986249881 L 158.5495529808104,498.78463886887766 L 157.8893884047866,499.3002479088027 L 158.12778105027974,500.0 L 158.97132491320372,499.889512890717 L 159.0996903926134,499.5028080086922 L 158.89797324314713,498.93195599364117 L 158.89797324314713,498.2321986249881 z" /></g></g></g></svg>