<svg xmlns="http://www.w3.org/2000/svg" xmlns:xlink="http://www.w3.org/1999/xlink" width="500.0" height="197.73451111605388" viewBox="0.0 0.0 500.0 197.73451111605388" preserveAspectRatio="xMinYMin meet"><g transform="matrix(1,0,0,-1,0,197.73451111605388)"><g><g><path fill-rule="evenodd" fill="#D2EBD9" stroke="#A6A6A6" stroke-width="0.25" opacity="1" d="M 207.9207920792079,185.90880478068033 L 207.37073707370735,180.6287653299366 L 207.5207520752075,178.65122246448954 L 210.17101710171016,171.8286995786971 L 210.3210321032103,170.08846185710365 L 210.17101710171016,168.68440642263624 L 209.57095709570956,167.18147384489646 L 209.57095709570956,166.31135498409972 L 209.87098709870986,165.61921498119327 L 211.07110711071107,164.11628240345348 L 211.17111711171117,163.0088583988031 L 211.07110711071107,161.82233267953487 L 202.02020202020202,118.47459306893478 L 207.4207420742074,116.69480449003241 L 213.2213221322132,115.68625762865439 L 214.2214221422142,115.74558391461781 L 215.27152715271527,115.94333820116252 L 216.9216921692169,116.61570277541452 L 219.92199219921991,118.61302106951608 L 227.67276727672765,120.39280964841845 L 228.6228622862286,120.37303421976398 L 229.77297729772977,120.17527993321927 L 234.17341734173417,118.41526678297137 L 245.4245424542454,116.33884677425193 L 266.1266126612661,116.06199077308933 L 296.7796779677968,119.9577502180201 L 301.4301430143014,121.75731422557693 L 315.1315131513151,129.5092822581295 L 310.78107810781074,133.93897827673098 L 309.23092309230924,135.97584742814146 L 308.5808580858086,137.93361486493407 L 308.2808280828083,139.99025944499905 L 307.5807580758076,142.2051074542998 L 306.6306630663066,143.72781546069405 L 303.78037803780376,147.10941376060856 L 303.28032803280325,147.99930805005974 L 303.68036803680366,154.1296909329457 L 302.68026802680265,155.90947951184808 L 301.48014801480144,157.05645437380738 L 300.98009800980094,157.90679780594962 L 298.22982298229823,170.8003772886646 L 290.3790379037904,169.47542356881507 L 282.9282928292829,169.73250414132318 L 281.7281728172817,170.50374585884754 L 277.8777877787779,173.90511958741652 L 276.6276627662766,174.6565858762864 L 266.37663766376636,176.45614988384327 L 266.57665766576656,176.00131502479044 L 265.8265826582658,175.24984873592055 L 264.6264626462646,174.6565858762864 L 263.27632763276324,174.6565858762864 L 262.17621762176213,175.6849081663189 L 261.32613261326134,178.670997893144 L 260.2760276027603,179.7586464691399 L 251.97519751975196,181.89439276382276 L 239.92399239923992,183.25889734098124 L 228.2228222822282,183.2786727696357 L 220.97209720972097,181.40000704746097 L 216.27162716271627,184.26744420235926 L 210.27102710271026,185.7308259227901 L 207.9207920792079,185.90880478068033 z" /><path fill-rule="evenodd" fill="#D2EBD9" stroke="#A6A6A6" stroke-width="0.25" opacity="1" d="M 146.1146114611461,193.30481509745243 L 135.66356635663567,127.70971825057266 L 167.91679167916791,124.4269970939305 L 170.86708670867085,125.17846338280039 L 172.26722672267226,125.69262452781663 L 174.8174817481748,127.23510796286536 L 176.46764676467646,128.0261251090442 L 177.76777677767777,128.38208282482466 L 179.06790679067905,128.34253196751573 L 187.81878187818782,127.01757824766618 L 188.5188518851885,127.03735367632065 L 191.81918191819182,125.59374738454429 L 202.02020202020202,118.47459306893478 L 211.07110711071107,161.82233267953487 L 211.17111711171117,163.0088583988031 L 211.07110711071107,164.11628240345348 L 209.87098709870986,165.61921498119327 L 209.57095709570956,166.31135498409972 L 209.57095709570956,167.18147384489646 L 210.17101710171016,168.68440642263624 L 210.3210321032103,170.08846185710365 L 210.17101710171016,171.8286995786971 L 207.5207520752075,178.65122246448954 L 207.37073707370735,180.6287653299366 L 207.9207920792079,185.90880478068033 L 194.46944694469445,186.91735164205835 L 184.6184618461846,189.3101785092493 L 162.36623662366236,189.74523793964767 L 146.1146114611461,193.30481509745243 z" /><path fill-rule="evenodd" fill="#D2EBD9" stroke="#A6A6A6" stroke-width="0.25" opacity="1" d="M 85.6085608560856,178.82920132237976 L 85.6085608560856,176.53525159846114 L 83.95839583958396,170.4048687155752 L 84.35843584358436,169.55452528343295 L 85.15851585158515,168.58552927936387 L 88.85888588858886,165.50056240926642 L 89.8089808980898,163.6812229730551 L 90.15901590159015,161.94098525146168 L 90.8090809080908,160.4380526737219 L 93.40934093409341,155.65239893933995 L 94.55945594559455,153.06181778560426 L 95.85958595859586,151.9543937809539 L 99.009900990099,150.27348234532388 L 100.16001600160016,149.18583376932799 L 100.71007100710071,148.41459205180362 L 103.66036603660365,142.56106517008027 L 106.16061606160615,137.1623731474097 L 107.46074607460746,135.56056342639758 L 108.5108510851085,134.9277497094545 L 108.9108910891089,134.47291485040168 L 109.9109910991099,132.81177884342614 L 111.76117611761175,126.99780281901171 L 111.66116611661165,124.7038530950931 L 109.46094609460945,118.33616506835348 L 135.66356635663567,127.70971825057266 L 146.1146114611461,193.30481509745243 L 127.7127712771277,197.33900254296447 L 117.26172617261726,197.73451111605388 L 108.01080108010801,196.21180310965963 L 103.96039603960395,194.37268824479386 L 101.6101610161016,192.1776156641476 L 96.40964096409641,185.5132962075909 L 95.009500950095,183.0215921971276 L 95.05950595059505,181.1824773322618 L 94.85948594859485,179.60044303990412 L 92.55925592559255,177.95908246158305 L 89.9089908990899,177.54379845983917 L 87.4087408740874,178.17661217678224 L 85.6085608560856,178.82920132237976 z" /><path fill-rule="evenodd" fill="#D2EBD9" stroke="#A6A6A6" stroke-width="0.25" opacity="1" d="M 6.55065506550655,142.99612460047862 L 8.6008600860086,142.83792117124284 L 20.95209520952095,141.03835716368602 L 22.202220222022202,141.03835716368602 L 23.352335233523352,141.27566230753965 L 24.5024502450245,142.16555659699085 L 33.05330533053305,152.31035149673437 L 34.35343534353435,152.64653378386038 L 62.75627562756275,152.7849617844417 L 64.9064906490649,152.48833035462462 L 66.85668566856685,151.93461835229942 L 79.45794579457946,144.59793432149075 L 84.45844584458446,143.6882646033851 L 103.66036603660365,142.56106517008027 L 100.71007100710071,148.41459205180362 L 100.16001600160016,149.18583376932799 L 99.009900990099,150.27348234532388 L 95.85958595859586,151.9543937809539 L 94.55945594559455,153.06181778560426 L 93.40934093409341,155.65239893933995 L 90.8090809080908,160.4380526737219 L 90.15901590159015,161.94098525146168 L 89.8089808980898,163.6812229730551 L 88.85888588858886,165.50056240926642 L 85.15851585158515,168.58552927936387 L 84.35843584358436,169.55452528343295 L 83.95839583958396,170.4048687155752 L 85.6085608560856,176.53525159846114 L 85.6085608560856,178.82920132237976 L 83.15831583158315,179.7586464691399 L 78.2078207820782,179.77842189779437 L 63.456345634563455,177.95908246158305 L 58.25582558255825,178.98740475161554 L 54.005400540054005,180.54966361531874 L 50.355035503550354,180.47056190070086 L 46.954695469546955,176.45614988384327 L 41.1041104110411,180.94517218840815 L 32.95329532953295,178.23593846274565 L 25.9025902590259,171.7693732927337 L 23.55235523552355,164.94685040694125 L 19.7019701970197,166.21247784082738 L 17.35173517351735,164.2942612613437 L 15.551555155515551,161.4663749637544 L 13.3013301330133,160.00299324332354 L 9.75097509750975,159.72613724216095 L 8.95089508950895,158.77691666674633 L 8.750875087508751,156.95757723053504 L 7.050705070507051,154.10991550429122 L 6.600660066006601,152.0334954955718 L 6.900690069006901,144.77591317938098 L 6.55065506550655,142.99612460047862 z" /><path fill-rule="evenodd" fill="#D2EBD9" stroke="#A6A6A6" stroke-width="0.25" opacity="1" d="M 93.75937593759376,83.45230892186693 L 95.35953595359535,86.57682664927331 L 99.85998599859985,99.58905870391513 L 100.36003600360036,103.14863586171988 L 99.8099809980998,105.66011530083767 L 100.26002600260026,107.87496331013841 L 101.7101710171017,110.92037932292692 L 104.2104210421042,114.95456676843897 L 106.010601060106,116.61570277541452 L 109.46094609460945,118.33616506835348 L 111.66116611661165,124.7038530950931 L 111.76117611761175,126.99780281901171 L 109.9109910991099,132.81177884342614 L 108.9108910891089,134.47291485040168 L 108.5108510851085,134.9277497094545 L 107.46074607460746,135.56056342639758 L 106.16061606160615,137.1623731474097 L 103.66036603660365,142.56106517008027 L 84.45844584458446,143.6882646033851 L 79.45794579457946,144.59793432149075 L 66.85668566856685,151.93461835229942 L 64.9064906490649,152.48833035462462 L 62.75627562756275,152.7849617844417 L 34.35343534353435,152.64653378386038 L 33.05330533053305,152.31035149673437 L 24.5024502450245,142.16555659699085 L 23.352335233523352,141.27566230753965 L 22.202220222022202,141.03835716368602 L 20.95209520952095,141.03835716368602 L 8.6008600860086,142.83792117124284 L 6.55065506550655,142.99612460047862 L 6.25062506250625,141.61184459466565 L 4.65046504650465,139.59475087190964 L 1.25012501250125,137.20192400471865 L 0.0,135.2046057106171 L 1.000100010001,130.99243940721482 L 3.85038503850385,127.29443424882878 L 7.75077507750775,124.68407766643863 L 11.8011801180118,123.6755308050606 L 15.7015701570157,123.18114508869884 L 22.752275227522752,120.9069707934347 L 25.95259525952595,120.39280964841845 L 26.5026502650265,120.03685193263797 L 32.15321532153215,117.76267763737383 L 33.703370337033704,117.4462707789023 L 35.45354535453545,118.41526678297137 L 37.6037603760376,120.39280964841845 L 41.35413541354135,120.35325879110951 L 51.655165516551655,118.61302106951608 L 68.45684568456845,119.02830507125996 L 74.15741574157416,115.82468562923569 L 78.45784578457845,107.10372159261405 L 79.85798579857985,101.40839814012645 L 80.95809580958095,98.50141012791923 L 82.35823582358235,97.2357826940331 L 84.20842084208421,96.7611724063258 L 86.45864586458646,95.59442211571202 L 88.45884588458846,94.22991753855354 L 90.25902590259025,91.61956095616338 L 93.75937593759376,83.45230892186693 z" /><path fill-rule="evenodd" fill="#D2EBD9" stroke="#A6A6A6" stroke-width="0.25" opacity="1" d="M 185.2185218521852,36.960276155205996 L 184.66846684668465,38.04792473120189 L 169.06690669066907,102.85200443190281 L 167.91679167916791,124.4269970939305 L 135.66356635663567,127.70971825057266 L 109.46094609460945,118.33616506835348 L 106.010601060106,116.61570277541452 L 104.2104210421042,114.95456676843897 L 101.7101710171017,110.92037932292692 L 100.26002600260026,107.87496331013841 L 99.8099809980998,105.66011530083767 L 100.36003600360036,103.14863586171988 L 99.85998599859985,99.58905870391513 L 95.35953595359535,86.57682664927331 L 93.75937593759376,83.45230892186693 L 95.65956595659566,79.04238833191994 L 99.3099309930993,77.67788375476144 L 115.16151615161516,77.53945575418015 L 120.96209620962095,75.40370945949729 L 122.41224122412241,70.30164886664382 L 122.01220122012201,64.23059226972127 L 122.31223122312231,59.18785796283121 L 123.6123612361236,58.15953567279873 L 127.7127712771277,56.67637852371342 L 128.56285628562856,55.15367051731916 L 129.06290629062906,53.21567850918102 L 131.4131413141314,47.04574476898612 L 132.4132413241324,45.2264053327748 L 134.4134413441344,43.644371040417134 L 142.46424642464245,39.64973445221403 L 147.26472647264725,36.40656415288081 L 148.8148814881488,36.10993272306375 L 179.76797679767975,37.88972130196612 L 185.2185218521852,36.960276155205996 z" /><path fill-rule="evenodd" fill="#D2EBD9" stroke="#A6A6A6" stroke-width="0.25" opacity="1" d="M 224.1224122412241,36.070381865754804 L 225.22252225222522,36.980051583860465 L 225.87258725872587,37.17780587040517 L 228.6228622862286,36.980051583860465 L 229.2229222922292,37.09870415578729 L 230.07300730073007,37.88972130196612 L 230.32303230323032,38.50275959025472 L 230.77307730773077,41.44929845977087 L 232.17321732173215,45.91854533568128 L 232.2232223222322,46.67001162455117 L 232.023202320232,47.48080419938448 L 231.5231523152315,48.331147631526726 L 228.9228922892289,50.5855464981364 L 227.8227822782278,52.0093773612583 L 227.022702270227,54.481305943067156 L 226.5226522652265,57.74425167105484 L 226.47264726472645,60.53258711133523 L 227.47274727472745,63.79553283932292 L 202.57025702570255,114.89524048247556 L 202.02020202020202,118.47459306893478 L 191.81918191819182,125.59374738454429 L 188.5188518851885,127.03735367632065 L 187.81878187818782,127.01757824766618 L 179.06790679067905,128.34253196751573 L 177.76777677767777,128.38208282482466 L 176.46764676467646,128.0261251090442 L 174.8174817481748,127.23510796286536 L 172.26722672267226,125.69262452781663 L 170.86708670867085,125.17846338280039 L 167.91679167916791,124.4269970939305 L 169.06690669066907,102.85200443190281 L 184.66846684668465,38.04792473120189 L 185.2185218521852,36.960276155205996 L 189.6189618961896,36.208809866336104 L 199.56995699569956,33.32159728278336 L 204.4204420442044,33.75665671318172 L 209.27092709270926,37.03937786982387 L 213.47134713471345,38.77961559141731 L 218.8218821882188,38.06770015985636 L 224.1224122412241,36.070381865754804 z" /><path fill-rule="evenodd" fill="#D2EBD9" stroke="#A6A6A6" stroke-width="0.25" opacity="1" d="M 283.5283528352835,43.68392189772608 L 282.47824782478244,55.17344594597363 L 282.57825782578254,55.964463092152464 L 282.3282328232823,56.97300995353048 L 281.97819781978194,58.0408831008719 L 277.5277527752775,63.933960839904216 L 276.97769776977697,65.1600374164814 L 276.67766776677666,66.56409285094884 L 276.5276527652765,68.40320771581462 L 276.4276427642764,76.78798946531026 L 276.1276127612761,78.01406604188745 L 275.57755775577556,79.59610033424512 L 274.3274327432743,81.96915177278161 L 271.7271727172717,85.80558493174895 L 271.5271527152715,86.67570379254568 L 271.4771477147715,87.84245408315945 L 271.97719771977194,91.32292952634633 L 272.67726772677264,93.57732839295599 L 273.5273527352735,95.29779068589497 L 272.6272627262726,99.56928327526066 L 266.1266126612661,116.06199077308933 L 245.4245424542454,116.33884677425193 L 234.17341734173417,118.41526678297137 L 229.77297729772977,120.17527993321927 L 228.6228622862286,120.37303421976398 L 227.67276727672765,120.39280964841845 L 219.92199219921991,118.61302106951608 L 216.9216921692169,116.61570277541452 L 215.27152715271527,115.94333820116252 L 214.2214221422142,115.74558391461781 L 213.2213221322132,115.68625762865439 L 207.4207420742074,116.69480449003241 L 202.02020202020202,118.47459306893478 L 202.57025702570255,114.89524048247556 L 227.47274727472745,63.79553283932292 L 226.47264726472645,60.53258711133523 L 226.5226522652265,57.74425167105484 L 227.022702270227,54.481305943067156 L 227.8227822782278,52.0093773612583 L 228.9228922892289,50.5855464981364 L 231.5231523152315,48.331147631526726 L 232.023202320232,47.48080419938448 L 232.2232223222322,46.67001162455117 L 232.17321732173215,45.91854533568128 L 230.77307730773077,41.44929845977087 L 230.32303230323032,38.50275959025472 L 230.07300730073007,37.88972130196612 L 229.2229222922292,37.09870415578729 L 228.6228622862286,36.980051583860465 L 225.87258725872587,37.17780587040517 L 225.22252225222522,36.980051583860465 L 224.1224122412241,36.070381865754804 L 240.97409740974095,26.222218395828328 L 245.07450745074507,21.04105608835697 L 264.9264926492649,3.243170299333217 L 269.1269126912691,1.206301147922721 L 273.4273427342734,0.23730514385365004 L 278.1778177817782,0.0 L 283.77837783778375,1.7402377215934335 L 284.47844784478445,5.873302310377839 L 282.1282128212821,14.91067320547101 L 277.5277527752775,13.506617771003581 L 273.07730773077304,13.130884626568635 L 268.8268826882688,14.060329773328764 L 264.8264826482648,16.55203378379209 L 267.026702670267,18.410924077312348 L 269.4269426942694,19.261267509454594 L 271.87718771877184,19.14261493752777 L 274.3274327432743,18.015415504222933 L 273.77737773777375,19.538123510617186 L 273.37733773377335,21.970501235117098 L 272.77727772777274,23.236128669003232 L 274.4274427442744,23.948044100564182 L 277.37773777377737,25.708057250812086 L 279.02790279027903,26.380421825064097 L 277.27772777277727,33.0249658529663 L 278.1778177817782,35.22003843361256 L 281.9281928192819,42.73470132231148 L 283.5283528352835,43.68392189772608 z" /><path fill-rule="evenodd" fill="#D2EBD9" stroke="#A6A6A6" stroke-width="0.25" opacity="1" d="M 348.6348634863486,69.45130543450158 L 347.88478847884784,72.2198654461275 L 346.33463346334634,74.39516259811928 L 343.98439843984397,73.60414545194045 L 343.3343334333433,73.60414545194045 L 342.78427842784276,73.82167516713963 L 342.08420842084206,74.69179402793635 L 341.4341434143414,76.17495117702167 L 339.58395839583955,77.9151888986151 L 339.5339533953395,79.27969347577358 L 339.8339833983398,81.37588891314749 L 341.18411841184115,86.22086893349285 L 341.98419841984196,88.23796265624887 L 342.68426842684266,89.503590090135 L 343.98439843984397,90.70989123805772 L 345.034503450345,92.9642901046674 L 345.0845084508451,93.87395982277306 L 344.8344834483448,95.0604855420413 L 343.3343334333433,98.22455412675664 L 342.98429842984297,99.72748670449643 L 342.88428842884286,100.65693185125656 L 343.38433843384337,106.96529359203275 L 338.03380338033804,109.16036617267902 L 335.5835583558356,111.53341761121551 L 332.9332933293329,115.2116473409471 L 332.4332433243324,116.23996963097957 L 332.1332133213321,118.27683878239007 L 331.6331633163316,120.23460621918268 L 330.78307830783075,122.09349651270294 L 329.78297829782974,123.16136966004437 L 327.982798279828,124.48632337989392 L 327.23272327232723,125.55419652723533 L 325.8325832583258,128.85669311253196 L 325.1325132513251,129.7268119733287 L 324.38243824382437,130.2607485469994 L 320.03200320032,130.7353588347067 L 318.6818681868187,130.57715540547093 L 315.1315131513151,129.5092822581295 L 301.4301430143014,121.75731422557693 L 296.7796779677968,119.9577502180201 L 266.1266126612661,116.06199077308933 L 272.6272627262726,99.56928327526066 L 273.5273527352735,95.29779068589497 L 272.67726772677264,93.57732839295599 L 271.97719771977194,91.32292952634633 L 271.4771477147715,87.84245408315945 L 271.5271527152715,86.67570379254568 L 271.7271727172717,85.80558493174895 L 274.3274327432743,81.96915177278161 L 275.57755775577556,79.59610033424512 L 276.1276127612761,78.01406604188745 L 276.4276427642764,76.78798946531026 L 276.5276527652765,68.40320771581462 L 276.67766776677666,66.56409285094884 L 276.97769776977697,65.1600374164814 L 277.5277527752775,63.933960839904216 L 281.97819781978194,58.0408831008719 L 282.3282328232823,56.97300995353048 L 282.57825782578254,55.964463092152464 L 282.47824782478244,55.17344594597363 L 283.5283528352835,43.68392189772608 L 287.07870787078707,45.78011733509999 L 293.07930793079305,47.856537343819426 L 299.62996299629964,47.14462191225847 L 302.4302430243024,46.05697333626258 L 304.8304830483048,44.17830761408785 L 307.93079307930793,40.0056921679945 L 310.38103810381034,37.85017044465718 L 305.58055805580557,36.208809866336104 L 305.58055805580557,34.42902128743373 L 318.1818181818182,34.42902128743373 L 320.7320732073207,33.44024985471018 L 322.5322532253225,32.17462242082405 L 324.5324532453245,31.264952702718393 L 327.5827582758276,31.304503560027335 L 331.2331233123312,33.657779569909366 L 334.2334233423342,37.968823016584004 L 338.3338333833383,52.4839876489656 L 339.2339233923392,57.961781386254025 L 340.1340134013401,59.721794536501925 L 343.1343134313431,59.36583682072145 L 344.034403440344,61.22472711424171 L 346.83468346834684,64.42834655626598 L 347.9347934793479,66.95960142403825 L 348.6348634863486,69.45130543450158 z" /><path fill-rule="evenodd" fill="#D2EBD9" stroke="#A6A6A6" stroke-width="0.25" opacity="1" d="M 357.1857185718572,64.44812198492046 L 358.3358335833583,67.57263971232685 L 360.1360136013601,68.73939000294062 L 362.38623862386237,69.68861057835522 L 364.33643364336433,70.182996294717 L 370.2370237023702,70.47962772453405 L 373.63736373637363,69.68861057835522 L 375.8875887588759,68.50208485908698 L 377.8377837783778,64.03283798317656 L 378.037803780378,60.90832025577018 L 376.7376737673767,60.196404824209225 L 377.78777877787775,59.18785796283121 L 352.68526852685267,57.7047008137459 L 352.68526852685267,56.06334023542482 L 364.5864586458646,55.62828080502646 L 368.1368136813681,56.06334023542482 L 376.4376437643764,58.02110767221743 L 381.18811881188117,58.297963673380025 L 384.6884688468847,56.874132810258125 L 386.38863886388634,55.924912234843525 L 392.73927392739273,54.40220422844927 L 394.0894089408941,56.57750138044106 L 395.5395539553955,58.23863738741661 L 395.78957895789574,58.9901036762865 L 395.88958895889584,60.038201394973456 L 395.7395739573957,62.29260026158313 L 395.98959895989594,63.67688026739609 L 396.98969896989695,65.19958827379035 L 397.88978897889785,65.63464770418871 L 398.78987898789876,65.83240199073342 L 401.0901090109011,65.63464770418871 L 401.6901690169017,65.75330027611552 L 402.0902090209021,66.20813513516836 L 402.0902090209021,67.03870313865613 L 399.28992899289926,71.54750087187549 L 398.039803980398,76.05629860509484 L 397.38973897389735,77.12417175243627 L 396.8396839683968,78.48867632959475 L 396.5396539653965,79.97183347868007 L 396.6396639663966,83.59073692244823 L 397.3397339733973,87.05143693698062 L 399.4399439943994,89.00920437377323 L 389.08890889088906,93.3004723917934 L 386.1386138613861,93.75530725084623 L 385.33853385338534,92.84563753274058 L 384.3884388438844,90.94719638191138 L 383.2883288328833,90.49236152285854 L 380.98809880988097,90.07707752111466 L 376.5376537653765,91.14495066845609 L 375.6875687568757,91.65911181347232 L 374.73747374737474,93.12249353390317 L 372.6872687268727,99.15399927351677 L 371.18711871187116,104.6317930108052 L 358.4358435843584,110.70284960772774 L 354.63546354635463,111.45431589659763 L 353.3353335333533,111.17745989543504 L 350.38503850385035,111.15768446678057 L 349.034903490349,110.92037932292692 L 348.1348134813481,110.50509532118303 L 347.5847584758476,109.31856960191479 L 346.4846484648465,108.25069645457336 L 343.38433843384337,106.96529359203275 L 342.88428842884286,100.65693185125656 L 342.98429842984297,99.72748670449643 L 343.3343334333433,98.22455412675664 L 344.8344834483448,95.0604855420413 L 345.0845084508451,93.87395982277306 L 345.034503450345,92.9642901046674 L 343.98439843984397,90.70989123805772 L 342.68426842684266,89.503590090135 L 341.98419841984196,88.23796265624887 L 341.18411841184115,86.22086893349285 L 339.8339833983398,81.37588891314749 L 339.5339533953395,79.27969347577358 L 339.58395839583955,77.9151888986151 L 341.4341434143414,76.17495117702167 L 342.08420842084206,74.69179402793635 L 342.78427842784276,73.82167516713963 L 343.3343334333433,73.60414545194045 L 343.98439843984397,73.60414545194045 L 346.33463346334634,74.39516259811928 L 347.88478847884784,72.2198654461275 L 348.6348634863486,69.45130543450158 L 351.6351635163516,68.02747457137967 L 357.1857185718572,64.44812198492046 z" /><path fill-rule="evenodd" fill="#D2EBD9" stroke="#A6A6A6" stroke-width="0.25" opacity="1" d="M 376.7376737673767,60.196404824209225 L 378.037803780378,60.90832025577018 L 377.8377837783778,64.03283798317656 L 375.8875887588759,68.50208485908698 L 373.63736373637363,69.68861057835522 L 370.2370237023702,70.47962772453405 L 364.33643364336433,70.182996294717 L 362.38623862386237,69.68861057835522 L 360.1360136013601,68.73939000294062 L 358.3358335833583,67.57263971232685 L 357.1857185718572,64.44812198492046 L 360.48604860486046,62.510129976782316 L 372.08720872087207,62.510129976782316 L 375.0875087508751,61.81798997387583 L 376.7376737673767,60.196404824209225 z" /><path fill-rule="evenodd" fill="#D2EBD9" stroke="#A6A6A6" stroke-width="0.25" opacity="1" d="M 484.2484248424842,70.42030143857065 L 477.74777477747773,68.38343228716015 L 475.3475347534753,68.10657628599756 L 466.996699669967,69.25355114795687 L 463.89638963896385,70.02479286548123 L 462.39623962396234,71.44862372860314 L 460.8960896089609,73.62392088059492 L 460.0960096009601,74.43471345542822 L 458.84588458845883,74.94887460044447 L 452.0952095209521,76.9659683232005 L 444.59445944594455,78.13271861381428 L 439.5939593959396,81.05948205467595 L 438.4438443844384,81.35611348449302 L 437.5437543754375,81.39566434180196 L 434.8434843484348,80.05093519329795 L 433.99339933993394,79.83340547809877 L 432.8932893289329,79.675202048863 L 428.7428742874287,79.55654947693617 L 428.19281928192817,79.27969347577358 L 426.69266926692666,77.9151888986151 L 425.79257925792575,77.32192603898098 L 423.9423942394239,76.62978603607449 L 422.04220422042204,76.62978603607449 L 420.4420442044204,77.55923118283462 L 409.59095909590957,81.00015576871255 L 407.89078907890786,81.81094834354585 L 406.3406340634063,82.8590460622328 L 405.4405440544054,83.68961406572058 L 403.74037403740374,86.06266550425708 L 399.4399439943994,89.00920437377323 L 397.3397339733973,87.05143693698062 L 396.6396639663966,83.59073692244823 L 396.5396539653965,79.97183347868007 L 396.8396839683968,78.48867632959475 L 397.38973897389735,77.12417175243627 L 398.039803980398,76.05629860509484 L 399.28992899289926,71.54750087187549 L 402.0902090209021,67.03870313865613 L 402.0902090209021,66.20813513516836 L 401.6901690169017,65.75330027611552 L 401.0901090109011,65.63464770418871 L 398.78987898789876,65.83240199073342 L 397.88978897889785,65.63464770418871 L 396.98969896989695,65.19958827379035 L 395.98959895989594,63.67688026739609 L 395.7395739573957,62.29260026158313 L 395.88958895889584,60.038201394973456 L 395.78957895789574,58.9901036762865 L 395.5395539553955,58.23863738741661 L 394.0894089408941,56.57750138044106 L 392.73927392739273,54.40220422844927 L 393.23932393239323,54.26377622786797 L 394.6894689468947,52.99814879398184 L 395.7395739573957,51.3963390729697 L 396.98969896989695,50.05160992446569 L 398.78987898789876,49.47812249348603 L 400.59005900590057,48.46957563210802 L 401.2901290129013,46.07674876491705 L 401.7401740174017,43.308188753291134 L 402.7902790279028,41.13289160129934 L 405.1405140514051,39.49153102297826 L 407.040704070407,39.23445045047014 L 408.7408740874087,39.57063273759614 L 410.5910591059106,39.64973445221403 L 423.2923292329233,37.71174244407589 L 441.24412441244124,39.27400130777908 L 448.0948094809481,41.86458246151476 L 452.2952295229523,40.776933885518865 L 456.4456445644564,38.878492734689665 L 459.99599959996,37.85017044465718 L 463.9463946394639,39.0564715925799 L 467.6467646764676,44.534265329868326 L 471.7471747174717,46.05697333626258 L 470.84708470847085,43.110434466746426 L 470.1970197019702,42.29964189191312 L 468.64686468646863,41.13289160129934 L 472.69726972697265,40.08479388261239 L 477.4977497749775,41.46907388842534 L 485.79857985798577,46.05697333626258 L 497.5997599759976,49.04306306308767 L 500.0,50.98105507122582 L 493.7493749374937,55.6678316623354 L 489.44894489448944,60.216180252863694 L 486.0986098609861,65.97082999131472 L 484.2484248424842,70.42030143857065 z" /><path fill-rule="evenodd" fill="#D2EBD9" stroke="#A6A6A6" stroke-width="0.25" opacity="1" d="M 382.5882588258826,135.4814617117797 L 381.8881888188819,134.71021999425534 L 371.18711871187116,104.6317930108052 L 372.6872687268727,99.15399927351677 L 374.73747374737474,93.12249353390317 L 375.6875687568757,91.65911181347232 L 376.5376537653765,91.14495066845609 L 380.98809880988097,90.07707752111466 L 383.2883288328833,90.49236152285854 L 384.3884388438844,90.94719638191138 L 385.33853385338534,92.84563753274058 L 386.1386138613861,93.75530725084623 L 389.08890889088906,93.3004723917934 L 399.4399439943994,89.00920437377323 L 403.74037403740374,86.06266550425708 L 405.4405440544054,83.68961406572058 L 406.3406340634063,82.8590460622328 L 407.89078907890786,81.81094834354585 L 409.59095909590957,81.00015576871255 L 420.4420442044204,77.55923118283462 L 422.04220422042204,76.62978603607449 L 423.9423942394239,76.62978603607449 L 425.79257925792575,77.32192603898098 L 426.69266926692666,77.9151888986151 L 428.19281928192817,79.27969347577358 L 428.7428742874287,79.55654947693617 L 432.8932893289329,79.675202048863 L 433.99339933993394,79.83340547809877 L 434.8434843484348,80.05093519329795 L 437.5437543754375,81.39566434180196 L 438.4438443844384,81.35611348449302 L 439.5939593959396,81.05948205467595 L 444.59445944594455,78.13271861381428 L 452.0952095209521,76.9659683232005 L 458.84588458845883,74.94887460044447 L 460.0960096009601,74.43471345542822 L 460.8960896089609,73.62392088059492 L 462.39623962396234,71.44862372860314 L 463.89638963896385,70.02479286548123 L 466.996699669967,69.25355114795687 L 475.3475347534753,68.10657628599756 L 477.74777477747773,68.38343228716015 L 484.2484248424842,70.42030143857065 L 482.69826982698265,74.27651002619245 L 475.3475347534753,90.33415809362278 L 470.2970297029703,97.57196498115911 L 463.79637963796375,103.8210004359719 L 462.69626962696265,108.82418388555301 L 453.9453945394539,111.98825247026835 L 437.09370937093706,115.17209648363816 L 436.29362936293626,116.2201942023251 L 434.49344934493445,119.6808942168575 L 433.2933293329333,120.39280964841845 L 416.1416141614161,120.39280964841845 L 414.24142414241425,120.84764450747129 L 412.84128412841284,121.83641594019483 L 411.6911691169117,122.9438399448452 L 410.3910391039104,123.28002223197119 L 406.4406440644064,126.08813310090605 L 398.8398839883988,125.61352281319876 L 394.989498949895,126.81982396112147 L 391.6391639163916,128.99512111311327 L 387.2387238723872,133.40504170306025 L 383.8883888388839,135.2046057106171 L 382.5882588258826,135.4814617117797 z" /><path fill-rule="evenodd" fill="#D2EBD9" stroke="#A6A6A6" stroke-width="0.25" opacity="1" d="M 298.22982298229823,170.8003772886646 L 300.98009800980094,157.90679780594962 L 301.48014801480144,157.05645437380738 L 302.68026802680265,155.90947951184808 L 303.68036803680366,154.1296909329457 L 303.28032803280325,147.99930805005974 L 303.78037803780376,147.10941376060856 L 306.6306630663066,143.72781546069405 L 307.5807580758076,142.2051074542998 L 308.2808280828083,139.99025944499905 L 308.5808580858086,137.93361486493407 L 309.23092309230924,135.97584742814146 L 310.78107810781074,133.93897827673098 L 315.1315131513151,129.5092822581295 L 318.6818681868187,130.57715540547093 L 320.03200320032,130.7353588347067 L 324.38243824382437,130.2607485469994 L 325.1325132513251,129.7268119733287 L 325.8325832583258,128.85669311253196 L 327.23272327232723,125.55419652723533 L 327.982798279828,124.48632337989392 L 329.78297829782974,123.16136966004437 L 330.78307830783075,122.09349651270294 L 331.6331633163316,120.23460621918268 L 332.1332133213321,118.27683878239007 L 332.4332433243324,116.23996963097957 L 332.9332933293329,115.2116473409471 L 335.5835583558356,111.53341761121551 L 338.03380338033804,109.16036617267902 L 343.38433843384337,106.96529359203275 L 346.4846484648465,108.25069645457336 L 347.5847584758476,109.31856960191479 L 348.1348134813481,110.50509532118303 L 349.034903490349,110.92037932292692 L 350.38503850385035,111.15768446678057 L 353.3353335333533,111.17745989543504 L 354.63546354635463,111.45431589659763 L 358.4358435843584,110.70284960772774 L 371.18711871187116,104.6317930108052 L 381.8881888188819,134.71021999425534 L 382.5882588258826,135.4814617117797 L 379.98799879987996,136.07472457141384 L 368.1368136813681,136.98439428951949 L 363.986398639864,138.15114458013326 L 361.78617861786176,139.4958737286373 L 360.4360436043604,141.57229373735672 L 358.3358335833583,147.9004309067874 L 357.13571357135714,150.23393148801495 L 349.9349934993499,154.42632236276276 L 341.8341834183418,159.5679338129252 L 339.28392839283924,161.90143439415274 L 339.28392839283924,165.16438012214041 L 339.98399839983995,167.71541041856716 L 338.3338333833383,169.81160585594108 L 335.5835583558356,170.28621614364837 L 332.5332533253325,170.52352128750204 L 328.8328832883288,170.06868642844918 L 326.1826182618262,168.66463099398177 L 312.6312631263126,168.0911435630021 L 309.9309930993099,168.5657538507094 L 305.18051805180517,170.82015271731908 L 302.4302430243024,171.51229272022556 L 298.22982298229823,170.8003772886646 z" /></g></g></g></svg>