<svg xmlns="http://www.w3.org/2000/svg" xmlns:xlink="http://www.w3.org/1999/xlink" width="411.2609650120139" height="500.0" viewBox="0.0 0.0 411.2609650120139 500.0" preserveAspectRatio="xMinYMin meet"><g transform="matrix(1,0,0,-1,0,500.0)"><g><g><path fill-rule="evenodd" fill="#D2EBD9" stroke="#A6A6A6" stroke-width="0.25" opacity="1" d="M 110.84591466220397,469.6969696969697 L 109.44748753845074,469.99699969997 L 105.45785721480185,473.047304730473 L 105.12881553862462,473.7473747374737 L 105.29333637671323,475.69756975697567 L 105.21107595766892,476.6976697669767 L 104.55299260531447,477.8977897789779 L 104.429601976748,478.7978797879788 L 97.27294551989328,478.7978797879788 L 97.10842468180466,481.8481848184818 L 95.13417462474129,481.9481948194819 L 93.69461729146592,480.94809480948095 L 93.11879435815577,477.1977197719772 L 88.4710806821524,478.7978797879788 L 83.94675763471551,487.0987098709871 L 86.45570041556688,493.49934993499346 L 82.58946072048444,494.6494649464946 L 77.44818453021524,494.6494649464946 L 79.38130437775646,498.64986498649864 L 78.27078872065832,500.0 L 70.62056974953774,495.7495749574957 L 69.71570514005036,497.4997499749975 L 39.896303236489,486.2986298629863 L 25.253948646602314,478.7978797879788 L 4.4420626283925895,458.1458145814581 L 5.963880380712273,457.4457445744574 L 7.115526247332574,456.5456545654565 L 7.732479390164878,455.3455345534553 L 7.732479390164878,453.045304530453 L 9.213166932962407,451.34513451345134 L 9.377687771051022,450.14501450145013 L 8.760734628218717,447.2447244724472 L 9.172036723440254,446.39463946394636 L 11.146286780503628,444.7444744474447 L 11.269677409070088,443.89438943894385 L 10.076901332927633,441.3941394139414 L 9.994640913883327,440.4940494049405 L 11.187416990025781,440.0940094009401 L 14.02540144705438,440.94409440944094 L 15.05365668510822,440.94409440944094 L 16.164172342206367,440.34403440344033 L 16.32869318029498,439.6439643964396 L 15.75287024698483,438.9438943894389 L 13.285057675655615,437.69376937693767 L 13.408448304222075,437.39373937393736 L 14.189922285142995,437.09370937093706 L 14.848005637497451,436.29362936293626 L 13.819750399443611,435.6435643564356 L 13.490708723266383,435.2435243524352 L 14.14879207562084,434.99349934993495 L 18.015031770703278,435.69356935693565 L 18.056161980225433,435.4435443544354 L 19.207807846845736,433.9433943394339 L 19.989281827766654,431.84318431843184 L 20.565104761076803,431.54315431543154 L 21.593359999130644,432.74327432743274 L 22.991787122883867,433.14331433143315 L 23.896651732371247,432.7932793279328 L 25.582990322779544,430.993099309931 L 26.528985141789075,430.4930493049305 L 27.51611017032076,430.1930193019302 L 28.256453941719528,429.6929692969297 L 28.585495617896758,428.59285928592857 L 28.462104989330296,424.49244924492444 L 27.968542475064453,422.3922392239224 L 27.02254765605492,420.8920892089209 L 25.54186011325739,420.2920292029203 L 25.253948646602314,419.8419841984198 L 25.29507885612447,419.29192919291927 L 26.11768304656754,417.6417641764176 L 26.076552837045387,417.1417141714171 L 25.377339275168776,415.29152915291525 L 25.500729903735234,414.69146914691464 L 26.775766398922,413.04130413041304 L 27.433849751276455,410.991099109911 L 27.968542475064453,404.6904690469047 L 28.503235198852447,403.4903490349035 L 29.572620646428444,402.7902790279028 L 31.999303008235504,402.0902090209021 L 33.109818665333655,401.3901390139014 L 33.685641598643805,400.29002900290027 L 35.20745935096349,392.53925392539253 L 35.70102186522933,391.6391639163916 L 37.346230246115475,389.78897889788976 L 38.12770422703639,388.58885888588856 L 38.580136531780084,388.08880888088805 L 39.279350093656696,387.88878887888785 L 40.38986575075484,388.58885888588856 L 40.88342826502068,389.1389138913891 L 41.089079312631455,389.08890889088906 L 41.45925119833083,388.48884888488845 L 43.18671999826129,387.68876887688765 L 43.55689188396067,387.28872887288725 L 44.790798169625276,383.5883588358836 L 45.5722721505462,379.08790879087906 L 47.752173255220335,374.5874587458746 L 48.24573576948618,374.0874087408741 L 48.94494933136279,374.03740374037403 L 49.685293102761555,374.8874887488749 L 50.1788556170274,374.93749374937494 L 50.67241813129324,374.23742374237423 L 50.960329597948316,371.68716871687167 L 51.28937127412555,370.68706870687066 L 52.68779839787877,369.2369236923692 L 53.14023070262246,368.38683868386835 L 53.016840074056,367.18671867186714 L 52.23536609313508,366.2866286628663 L 50.261116036071705,364.986498649865 L 49.80868373132802,363.6863686368637 L 50.1788556170274,361.68616861686166 L 55.40239222634091,349.034903490349 L 55.40239222634091,348.034803480348 L 54.90882971207506,345.73457345734573 L 54.90882971207506,343.68436843684367 L 55.11448075968583,342.6342634263426 L 55.48465264538522,341.7341734173417 L 57.12986102627136,340.08400840084005 L 57.41777249292643,339.5339533953395 L 56.01934536917321,337.13371337133714 L 55.97821515965106,327.13271327132713 L 55.69030369299598,325.982598259826 L 53.67492342641046,321.98219821982195 L 52.646668188356614,321.2321232123212 L 51.536152531258466,321.032103210321 L 51.04259001699263,320.7320732073207 L 49.84981394085017,318.981898189819 L 48.78042849327418,314.8314831483148 L 45.69566277911266,312.3312331233123 L 45.901313826723424,310.48104810481044 L 46.80617843621081,308.43084308430844 L 47.3408711599988,306.3806380638064 L 46.682787807644345,304.28042804280426 L 45.0375794267582,303.5303530353035 L 40.80116784597638,303.08030803080305 L 39.731782398400384,302.4302430243024 L 38.004313598469935,300.7300730073007 L 35.495370817618564,300.18001800180014 L 35.12519893191918,299.22992299229924 L 35.04293851287487,298.0798079807981 L 34.79615725574195,297.6297629762976 L 36.72927710328317,295.77957795779577 L 36.81153752232748,294.8294829482948 L 37.75753234133701,293.4293429342934 L 43.02219916017267,287.8787878787879 L 43.515761674438515,287.5787578757876 L 44.62627733153666,287.3287328732873 L 44.83192837914743,286.7286728672867 L 44.749667960103125,285.1285128512851 L 44.95531900771389,284.47844784478445 L 45.366621102935426,283.87838783878385 L 46.64165759812219,283.4283428342834 L 48.533647236141256,283.6283628362836 L 49.603032683717245,284.028402840284 L 51.3305014836477,284.37843784378435 L 52.68779839787877,284.1284128412841 L 53.14023070262246,284.37843784378435 L 54.37413698828707,285.9285928592859 L 55.155610969207984,286.27862786278627 L 56.75968914057198,286.4286428642864 L 60.255756949955035,286.2286228622862 L 61.16062155944241,285.67856785678566 L 63.2993924545944,284.9284928492849 L 63.58730392124947,284.67846784678466 L 64.03973622599317,283.67836783678365 L 65.06799146404701,282.1282128212821 L 65.15025188309131,280.02800280028003 L 65.84946544496792,278.8278827882788 L 65.84946544496792,277.977797779778 L 65.52042376879069,277.3277327732773 L 63.50504350220517,275.9275927592759 L 62.84696014985071,274.4274427442744 L 61.57192365466395,273.4273427342734 L 60.33801736899934,273.3273327332733 L 59.63880380712273,273.67736773677365 L 58.7750694071575,273.77737773777375 L 56.92420997866059,273.027302730273 L 55.40239222634091,273.2273227322732 L 54.78543908350861,272.8272827282728 L 53.51040258832184,270.82708270827084 L 52.770058816923076,270.2770277027703 L 52.194235883612926,270.2770277027703 L 50.63128792177109,270.82708270827084 L 49.767553521805866,270.62706270627064 L 49.109470169451406,270.22702270227023 L 48.73929828375202,269.1269126912691 L 48.73929828375202,266.5266526652665 L 51.82406399791354,264.8264826482648 L 52.646668188356614,263.17631763176314 L 53.387011959755384,260.32603260326033 L 52.93457965501169,256.67566756675666 L 52.97570986453385,256.025602560256 L 53.67492342641046,254.27542754275427 L 53.67492342641046,253.87538753875387 L 52.44101714074585,250.07500750075005 L 51.94745462648,249.47494749474947 L 50.42563687416032,248.32483248324831 L 49.644162893239404,247.5247524752475 L 49.027209750407096,246.3246324632463 L 48.65703786470772,245.17451745174517 L 45.53114194102404,241.77417741774175 L 44.667407541058815,240.52405240524052 L 45.819053407679114,240.37403740374037 L 47.38200136952096,239.07390739073907 L 48.20460555996403,238.87388738873886 L 51.20711085508124,239.02390239023902 L 53.96283489306553,238.7238723872387 L 55.69030369299598,239.47394739473947 L 56.63629851200552,239.57395739573957 L 57.746814169103665,238.67386738673866 L 58.240376683369504,238.6238623862386 L 59.021850664290426,238.07380738073806 L 59.76219443568919,237.8237823782378 L 61.03723093087595,238.3238323832383 L 61.65418407370826,239.42394239423942 L 62.27113721654056,239.87398739873987 L 63.46391329268302,239.77397739773977 L 65.06799146404701,238.92389238923892 L 65.84946544496792,238.7238723872387 L 67.00111131158822,239.27392739273927 L 67.61806445442053,239.22392239223922 L 68.07049675916421,238.97389738973897 L 68.52292906390791,238.37383738373836 L 68.93423115912944,236.27362736273625 L 69.30440304482883,235.9235923592359 L 70.49717912097128,235.42354235423542 L 70.7439603781042,235.17351735173517 L 71.07300205428143,233.67336733673366 L 73.41742399704418,231.8231823182318 L 73.82872609226573,231.17311731173115 L 73.86985630178788,230.42304230423042 L 73.4996844160885,228.4228422842284 L 72.88273127325618,228.07280728072806 L 71.8956062447245,228.1228122812281 L 70.82622079714851,228.77287728772876 L 70.29152807336051,230.02300230023002 L 69.83909576861683,230.27302730273027 L 68.93423115912944,230.37303730373037 L 68.72858011151868,230.52305230523052 L 67.74145508298699,232.07320732073205 L 67.24789256872114,232.17321732173215 L 66.30189774971161,231.8231823182318 L 65.52042376879069,232.023202320232 L 64.20425706408177,233.1233123312331 L 63.2993924545944,234.32343234323432 L 62.600178892717786,233.6233623362336 L 61.407402816575335,231.37313731373135 L 60.95497051183165,230.82308230823082 L 59.96784548329996,230.37303730373037 L 59.597673597600576,230.02300230023002 L 59.392022549989804,229.27292729272926 L 59.14524129285689,225.52255225522552 L 58.56941835954674,224.47244724472446 L 57.58229333101505,223.6223622362236 L 57.170991235793515,223.022302230223 L 57.006470397704895,222.3222322232223 L 57.088730816749205,221.5221522152215 L 57.664553750059355,219.97199719971997 L 58.56941835954674,218.5218521852185 L 58.73393919763535,217.9217921792179 L 58.52828815002458,215.97159715971597 L 58.73393919763535,214.9214921492149 L 59.26863192142335,213.97139713971396 L 59.88558506425565,208.4208420842084 L 59.76219443568919,206.92069206920692 L 59.43315275951196,206.12061206120612 L 59.474282969034114,205.47054705470546 L 60.62592883565441,202.02020202020202 L 60.790449673743026,200.7200720072007 L 60.42027778804365,200.27002700270026 L 58.48715794050243,198.86988698869885 L 57.91133500719228,198.26982698269825 L 56.80081935009413,195.3195319531953 L 55.813694321562444,194.86948694869486 L 42.07620434116314,190.9190919091909 L 39.772912607922535,191.06910691069106 L 38.78578757939085,191.36913691369136 L 36.27684479853948,189.96899689968996 L 35.413110398574254,189.3189318931893 L 35.12519893191918,188.9188918891889 L 35.20745935096349,187.96879687968797 L 36.112323960450865,186.4186418641864 L 36.44136563662809,185.018501850185 L 37.46962087468194,183.4183418341834 L 38.045443807992086,180.96809680968096 L 38.29222506512501,180.6180618061806 L 39.52613135078961,179.7179717971797 L 40.63664700788776,177.46774677467747 L 42.61089706495114,168.21682168216822 L 193.14746391603333,84.10841084108411 L 193.92893789695424,82.85828582858285 L 194.95719313500808,76.6076607660766 L 195.86205774449547,76.85768576857686 L 200.63316204906528,77.5077507750775 L 202.36063084899575,77.55775577557755 L 202.68967252517297,78.007800780078 L 202.89532357278375,78.6078607860786 L 203.7179277632268,85.95859585958596 L 207.1728653630877,97.8097809780978 L 206.59704242977756,100.51005100510051 L 206.06234970598956,101.76017601760175 L 190.63852113518197,119.71197119711971 L 190.5151305066155,120.6120612061206 L 190.92643260183704,121.26212621262125 L 191.91355763036873,122.06220622062206 L 193.51763580173272,122.56225622562256 L 193.97006810647642,123.2123212321232 L 194.50476083026442,126.16261626162616 L 194.71041187787517,126.61266126612661 L 195.24510460166317,127.16271627162716 L 197.01370361111577,127.76277627762775 L 196.93144319207147,128.012801280128 L 196.60240151589423,128.4128412841284 L 195.45075564927393,129.16291629162916 L 194.66928166835302,129.46294629462946 L 193.59989622077703,129.6129612961296 L 192.32485972559027,129.4129412941294 L 190.47400029709334,130.01300130013001 L 187.26584395436538,132.56325632563255 L 185.66176578300139,133.1133113311331 L 182.12456776409616,135.61356135613562 L 179.2454530975454,137.06370637063705 L 177.80589576427005,137.56375637563755 L 175.29695298341866,137.96379637963796 L 173.07592166922237,140.21402140214022 L 172.08879664069067,140.96409640964094 L 170.15567679314947,141.7141714171417 L 169.62098406936147,142.16421642164215 L 168.63385904082978,143.86438643864386 L 167.68786422182026,146.36463646364635 L 167.60560380277593,147.5147514751475 L 168.09916631704178,149.31493149314932 L 167.35882254564302,150.4150415041504 L 159.79086399356675,159.46594659465947 L 158.55695770790214,161.6161616161616 L 158.0633951936363,163.06630663066306 L 158.92712959360153,165.7165716571657 L 158.76260875551293,166.06660666066605 L 156.25366597466154,166.56665666566656 L 155.80123366991785,166.5166516651665 L 153.8269836128545,165.6165616561656 L 153.25116067954434,165.7165716571657 L 152.88098879384495,166.36663666366636 L 153.25116067954434,168.16681668166817 L 151.8527335557911,169.36693669366935 L 150.9889991558259,169.56695669566955 L 149.59057203207266,169.46694669466945 L 149.05587930828466,169.56695669566955 L 147.4106709273985,170.26702670267025 L 146.42354589886685,171.017101710171 L 145.5598114989016,172.4172417241724 L 145.0251187751136,172.96729672967297 L 143.29764997518316,174.1174117411741 L 140.99435824194256,175.46754675467545 L 134.66030597553092,176.46764676467646 L 134.37239450887583,176.86768676867686 L 134.29013408983153,177.56775677567757 L 136.26438414689488,183.31833183318332 L 136.42890498498352,183.5183518351835 L 138.15637378491397,183.7183718371837 L 138.52654567061336,184.2184218421842 L 138.5676758801355,184.76847684768475 L 138.19750399443612,187.01870187018702 L 138.6499362991798,189.46894689468945 L 137.90959252778103,190.5190519051905 L 137.4160300135152,191.81918191819182 L 137.37489980399303,193.86938693869385 L 135.60630079454043,198.76987698769875 L 135.19499869931892,200.9200920092009 L 135.68856121358473,202.67026702670265 L 135.77082163262907,203.57035703570355 L 135.11273828027458,206.47064706470647 L 135.03047786123028,207.47074707470745 L 134.5780455564866,209.2209220922092 L 132.97396738512262,209.77097709770976 L 132.02797256611308,210.92109210921092 L 131.78119130898014,211.02110211021102 L 129.18998810908448,210.77107710771077 L 128.57303496625218,212.9212921292129 L 128.53190475673003,214.27142714271426 L 128.12060266150849,216.77167716771675 L 128.40851412816355,219.021902190219 L 128.07947245198633,220.07200720072007 L 127.54477972819834,220.32203220322032 L 125.77618071874572,220.02200220022002 L 125.03583694734697,220.92209220922092 L 122.73254521410637,220.52205220522052 L 122.19785249031837,220.62206220622062 L 121.70428997605252,220.92209220922092 L 119.154216985679,226.5226522652265 L 118.86630551902392,227.67276727672765 L 118.82517530950177,228.6228622862286 L 119.56551908090053,231.023102310231 L 119.44212845233407,233.6233623362336 L 119.60664929042268,234.87348734873487 L 120.18247222373283,236.87368736873685 L 121.04620662369807,238.3238323832383 L 121.95107123318544,240.9240924092409 L 122.65028479506205,241.57415741574155 L 125.24148799495774,242.67426742674266 L 125.57052967113496,243.07430743074306 L 125.81731092826789,243.77437743774377 L 126.14635260444511,243.92439243924392 L 127.87382140437556,243.92439243924392 L 129.18998810908448,244.17441744174417 L 131.90458193754662,245.8245824582458 L 132.3570142422903,246.77467746774676 L 132.76831633751183,246.97469746974696 L 133.38526948034414,246.6246624662466 L 134.78369660409737,245.12451245124512 L 135.11273828027458,244.02440244024402 L 135.35951953740752,243.72437243724372 L 137.62168106112597,242.77427742774276 L 138.81445713726842,241.47414741474145 L 139.39028007057857,241.3241324132413 L 141.24113949907547,242.1242124212421 L 141.52905096573056,242.1242124212421 L 141.89922285142995,241.6241624162416 L 141.65244159429702,241.17411741174115 L 136.71681645163858,238.1238123812381 L 136.30551435641706,237.57375737573756 L 136.18212372785058,237.023702370237 L 136.51116540402782,235.67356735673567 L 138.07411336586966,234.22342234223422 L 138.77332692774627,233.77337733773376 L 141.98148327047426,233.47334733473346 L 142.88634787996162,233.17331733173316 L 145.3130302417687,233.5233523352335 L 149.6317022415948,234.52345234523452 L 152.71646795575634,233.5233523352335 L 152.34629607005695,231.07310731073105 L 152.09951481292404,230.67306730673067 L 151.40030125104744,230.17301730173017 L 151.40030125104744,229.97299729972997 L 151.81160334626895,228.9228922892289 L 153.86811382237664,226.37263726372635 L 155.01975968899694,225.47254725472547 L 155.5955826223071,225.37253725372537 L 156.62383786036094,226.12261226122612 L 157.77548372698124,225.67256725672567 L 158.39243686981354,225.77257725772577 L 159.99651504117753,227.8227822782278 L 161.14816090779783,228.97289728972896 L 161.4360723744529,230.17301730173017 L 161.64172342206368,232.2232223222322 L 161.55946300301937,232.67326732673266 L 160.24329629831044,234.87348734873487 L 160.16103587926614,235.77357735773577 L 160.61346818400983,236.6236623662366 L 161.9707650982409,237.87378737873786 L 164.39744746004797,241.87418741874185 L 165.91926521236763,242.67426742674266 L 170.85489035502607,244.37443744374437 L 172.66461957400082,245.57455745574555 L 178.3817186975802,251.4251425142514 L 178.58736974519095,252.025202520252 L 178.75189058327956,254.27542754275427 L 178.95754163089035,254.87548754875485 L 180.0680572879885,256.4256425642564 L 180.2325781260771,256.97569756975696 L 180.3148385451214,258.57585758575857 L 179.6156249832448,260.3760376037604 L 178.4639791166245,262.07620762076203 L 178.0938072309251,263.1263126312631 L 177.97041660235865,263.67636763676364 L 177.97041660235865,266.97669766976696 L 177.51798429761496,267.9267926792679 L 153.7447231938102,271.02710271027104 L 152.9221190033671,271.3771377137714 L 152.9221190033671,272.2272227222722 L 153.8269836128545,273.027302730273 L 154.77297843186403,274.2274227422742 L 155.10202010804124,275.27752775277526 L 155.7601034603957,276.027602760276 L 155.88349408896218,276.77767776777677 L 155.7601034603957,278.6278627862786 L 155.96575450800648,279.5779577957796 L 156.17140555561724,279.82798279827983 L 156.45931702227233,279.97799779978 L 157.65209309841478,279.82798279827983 L 161.80624426015228,280.6780678067807 L 162.95789012677258,281.02810281028104 L 164.31518704100367,281.67816781678164 L 165.59022353619042,281.6281628162816 L 167.23543191707657,280.82808280828084 L 168.14029652656393,280.72807280728074 L 168.83951008844056,280.02800280028003 L 169.49759344079501,279.6779677967797 L 170.73149972645962,279.5779577957796 L 171.22506224072546,279.7779777977798 L 172.00653622164637,280.42804280428044 L 172.74687999304516,280.4780478047805 L 175.0913019358079,278.6278627862786 L 177.8470259737922,274.27742774277425 L 178.21719785949156,272.8272827282728 L 179.57449477372265,271.3771377137714 L 180.89066147843155,271.02710271027104 L 184.55125012590324,271.8271827182718 L 186.31984913535584,270.7770777077708 L 187.01906269723244,270.7770777077708 L 188.2940991924192,271.0771077107711 L 189.32235443047304,270.5770577057706 L 190.02156799234967,271.4771477147715 L 191.29660448753643,272.027202720272 L 193.06520349698903,273.57735773577355 L 194.62815145883087,274.47744774477445 L 195.57414627784038,275.4275427542754 L 197.09596403016008,275.3275327532753 L 198.74117241104622,276.17761776177616 L 200.59203183954313,276.07760776077606 L 202.11384959186282,276.47764776477646 L 202.85419336326157,276.9276927692769 L 203.7179277632268,278.2278227822782 L 204.99296425841356,279.02790279027903 L 205.6921778202902,279.0779077907791 L 206.3091309631225,278.6778677867787 L 206.96721431547695,278.6778677867787 L 208.98259458206246,279.82798279827983 L 211.4504071533917,282.1282128212821 L 212.19075092479045,282.2282228222822 L 214.24726140089814,281.57815781578154 L 213.2190061628443,299.3799379937994 L 212.97222490571139,300.18001800180014 L 212.4375321819234,300.98009800980094 L 208.6946831154074,305.5305530553055 L 208.44790185827446,306.3806380638064 L 207.91320913448646,313.3313331333133 L 207.66642787735356,314.1314131413141 L 207.04947473452125,314.88148814881487 L 203.84131839179327,317.981798179818 L 203.30662566800527,318.13181318131814 L 202.31950063947357,317.73177317731773 L 201.16785477285327,316.7816781678168 L 198.86456303961268,316.7316731673167 L 196.64353172541638,315.5315531553155 L 194.87493271596378,315.6315631563156 L 193.31198475412194,314.78147814781477 L 191.25547427801428,314.4314431443144 L 189.48687526856168,313.8313831383138 L 188.86992212572935,313.88138813881386 L 188.37635961146353,314.1314131413141 L 188.08844814480844,314.48144814481446 L 184.5923803354254,322.7322732273227 L 183.687515725938,323.9323932393239 L 181.50761462126385,325.6325632563256 L 179.94466665942204,327.53275327532754 L 179.28658330706756,331.58315831583155 L 179.03980204993465,332.08320832083206 L 176.6131196881276,333.48334833483347 L 175.66712486911806,334.28342834283427 L 174.67999984058636,336.7836783678368 L 173.44609355492176,339.033903390339 L 172.50009873591222,340.1340134013401 L 170.27906742171592,341.78417841784176 L 169.57985385983932,343.1343134313431 L 169.00403092652917,343.8343834383438 L 167.19430170755442,344.5844584458446 L 162.13528593632952,345.034503450345 L 159.70860357452244,345.034503450345 L 158.22791603172493,344.8344834483448 L 157.77548372698124,344.9344934493449 L 157.85774414602554,346.53465346534654 L 157.446442050804,348.2348234823482 L 155.18428052708555,354.1354135413541 L 154.48506696520894,355.43554355435543 L 151.48256167009174,358.035803580358 L 151.0712595748702,358.7358735873587 L 146.58806673695545,371.18711871187116 L 146.21789485125606,371.5371537153715 L 145.60094170842376,371.68716871687167 L 144.9428583560693,371.68716871687167 L 144.36703542275916,371.48714871487147 L 144.98398856559146,369.98699869986996 L 144.65494688941422,368.8368836883688 L 144.07912395610407,367.8367836783678 L 141.24113949907547,364.83648364836483 L 140.54192593719887,364.53645364536453 L 139.06123839440133,364.83648364836483 L 138.44428525156903,364.7864786478648 L 137.58055085160382,364.43644364436443 L 137.25150917542658,364.0864086408641 L 135.89421226119552,365.53655365536554 L 135.56517058501828,367.68676867686764 L 135.60630079454043,370.08700870087006 L 135.15386848979674,372.18721872187217 L 133.96109241365428,374.23742374237423 L 133.05622780416692,375.2875287528753 L 131.32875900423647,376.2876287628763 L 130.99971732805923,377.48774877487745 L 130.95858711853708,381.38813881388137 L 130.01259229952754,383.13831383138313 L 129.64242041382818,384.53845384538454 L 129.10772769004018,385.6885688568857 L 128.12060266150849,387.38873887388735 L 126.92782658536603,388.38883888388835 L 124.08984212833742,390.28902890289027 L 121.95107123318544,392.1392139213921 L 121.25185767130883,394.2894289428943 L 120.88168578560945,394.3894389438944 L 120.01795138564422,393.5893589358936 L 119.48325866185623,393.3893389338934 L 118.94856593806823,393.53935393539354 L 118.29048258571378,394.23942394239424 L 117.87918049049223,394.43944394439444 L 115.82267001438456,394.3894389438944 L 115.04119603346363,394.63946394639464 L 114.75328456680856,395.68956895689564 L 116.15171169056178,401.2901290129013 L 116.15171169056178,401.8901890189019 L 115.45249812868518,404.1904190419042 L 116.15171169056178,406.29062906290625 L 115.86380022390671,406.59065906590655 L 115.2468470810744,406.6406640664066 L 114.01294079540979,406.4406440644064 L 112.24434178595719,407.19071907190715 L 111.25721675742551,407.79077907790776 L 110.84591466220397,409.09090909090907 L 110.84591466220397,469.6969696969697 z" /><path fill-rule="evenodd" fill="#D2EBD9" stroke="#A6A6A6" stroke-width="0.25" opacity="1" d="M 278.08134657928053,420.6420642064206 L 276.10709652221715,419.49194919491947 L 274.13284646515376,419.4419441944194 L 272.11746619856825,419.8419841984198 L 266.35923686546676,422.44224422442244 L 263.3978617798717,421.7921792179218 L 262.57525758942865,421.7921792179218 L 261.83491381802986,422.0922092209221 L 260.97117941806465,422.1922192219222 L 258.7912783133905,421.7921792179218 L 257.4751116086816,421.74217421742173 L 248.54985614237424,424.1424142414241 L 247.6038613233647,424.69246924692465 L 245.42396021869055,427.3427342734273 L 245.3828300091684,425.9425942594259 L 242.3803247140512,426.1426142614261 L 242.09241324739614,426.29262926292625 L 241.96902261882965,426.7426742674267 L 240.9407673807758,426.4426442644264 L 239.5423402570226,426.69266926692666 L 239.2544287903675,427.39273927392736 L 238.843126695146,427.89278927892786 L 237.6092204094814,428.8428842884288 L 237.0745276856934,428.6428642864286 L 236.9511370571269,427.4427442744274 L 234.35993385723125,426.29262926292625 L 231.4808191906805,426.042604260426 L 220.49905324826548,427.29272927292726 L 218.8949750769015,427.1427142714271 L 217.2908969055375,426.7426742674267 L 216.63281355318304,426.8426842684268 L 215.48116768656274,427.89278927892786 L 213.9182197247209,428.3428342834283 L 213.26013637236645,428.7428742874287 L 212.47866239144554,429.6929692969297 L 211.1624956867366,431.7931793179318 L 210.2165008677271,432.74327432743274 L 165.71361416475688,461.3961396139614 L 164.84987976479167,461.54615461546155 L 164.19179641243718,463.4463446344634 L 163.86275473625997,463.89638963896385 L 163.49258285056058,464.046404640464 L 162.46432761250674,463.9463946394639 L 162.09415572680737,464.19641964196416 L 161.27155153636429,465.5465546554655 L 160.77798902209844,465.9465946594659 L 158.68034833646863,466.4466446644664 L 155.01975968899694,468.2968296829683 L 151.9349939748354,469.14691469146914 L 141.89922285142995,469.04690469046903 L 140.37740509911026,469.6969696969697 L 122.77367542362852,469.34693469346934 L 122.11559207127405,469.44694469446944 L 120.67603473799868,470.04700470047004 L 118.37274300475808,469.7969796979698 L 110.84591466220397,469.6969696969697 L 110.84591466220397,409.09090909090907 L 111.25721675742551,407.79077907790776 L 112.24434178595719,407.19071907190715 L 114.01294079540979,406.4406440644064 L 115.2468470810744,406.6406640664066 L 115.86380022390671,406.59065906590655 L 116.15171169056178,406.29062906290625 L 115.45249812868518,404.1904190419042 L 116.15171169056178,401.8901890189019 L 116.15171169056178,401.2901290129013 L 114.75328456680856,395.68956895689564 L 115.04119603346363,394.63946394639464 L 115.82267001438456,394.3894389438944 L 117.87918049049223,394.43944394439444 L 118.29048258571378,394.23942394239424 L 118.94856593806823,393.53935393539354 L 119.48325866185623,393.3893389338934 L 120.01795138564422,393.5893589358936 L 120.88168578560945,394.3894389438944 L 121.25185767130883,394.2894289428943 L 121.95107123318544,392.1392139213921 L 124.08984212833742,390.28902890289027 L 126.92782658536603,388.38883888388835 L 128.12060266150849,387.38873887388735 L 129.10772769004018,385.6885688568857 L 129.64242041382818,384.53845384538454 L 130.01259229952754,383.13831383138313 L 130.95858711853708,381.38813881388137 L 130.99971732805923,377.48774877487745 L 131.32875900423647,376.2876287628763 L 133.05622780416692,375.2875287528753 L 133.96109241365428,374.23742374237423 L 135.15386848979674,372.18721872187217 L 135.60630079454043,370.08700870087006 L 135.56517058501828,367.68676867686764 L 135.89421226119552,365.53655365536554 L 137.25150917542658,364.0864086408641 L 137.58055085160382,364.43644364436443 L 138.44428525156903,364.7864786478648 L 139.06123839440133,364.83648364836483 L 140.54192593719887,364.53645364536453 L 141.24113949907547,364.83648364836483 L 144.07912395610407,367.8367836783678 L 144.65494688941422,368.8368836883688 L 144.98398856559146,369.98699869986996 L 144.36703542275916,371.48714871487147 L 144.9428583560693,371.68716871687167 L 145.60094170842376,371.68716871687167 L 146.21789485125606,371.5371537153715 L 146.58806673695545,371.18711871187116 L 151.0712595748702,358.7358735873587 L 151.48256167009174,358.035803580358 L 154.48506696520894,355.43554355435543 L 155.18428052708555,354.1354135413541 L 157.446442050804,348.2348234823482 L 157.85774414602554,346.53465346534654 L 157.77548372698124,344.9344934493449 L 158.22791603172493,344.8344834483448 L 159.70860357452244,345.034503450345 L 162.13528593632952,345.034503450345 L 167.19430170755442,344.5844584458446 L 169.00403092652917,343.8343834383438 L 169.57985385983932,343.1343134313431 L 170.27906742171592,341.78417841784176 L 172.50009873591222,340.1340134013401 L 173.44609355492176,339.033903390339 L 174.67999984058636,336.7836783678368 L 175.66712486911806,334.28342834283427 L 176.6131196881276,333.48334833483347 L 179.03980204993465,332.08320832083206 L 179.28658330706756,331.58315831583155 L 179.94466665942204,327.53275327532754 L 181.50761462126385,325.6325632563256 L 183.687515725938,323.9323932393239 L 184.5923803354254,322.7322732273227 L 188.08844814480844,314.48144814481446 L 188.37635961146353,314.1314131413141 L 188.86992212572935,313.88138813881386 L 189.48687526856168,313.8313831383138 L 191.25547427801428,314.4314431443144 L 193.31198475412194,314.78147814781477 L 194.87493271596378,315.6315631563156 L 196.64353172541638,315.5315531553155 L 198.86456303961268,316.7316731673167 L 201.16785477285327,316.7816781678168 L 202.31950063947357,317.73177317731773 L 203.30662566800527,318.13181318131814 L 203.84131839179327,317.981798179818 L 207.04947473452125,314.88148814881487 L 207.66642787735356,314.1314131413141 L 207.91320913448646,313.3313331333133 L 208.44790185827446,306.3806380638064 L 208.6946831154074,305.5305530553055 L 212.4375321819234,300.98009800980094 L 212.97222490571139,300.18001800180014 L 213.2190061628443,299.3799379937994 L 214.24726140089814,281.57815781578154 L 212.19075092479045,282.2282228222822 L 211.4504071533917,282.1282128212821 L 208.98259458206246,279.82798279827983 L 206.96721431547695,278.6778677867787 L 206.3091309631225,278.6778677867787 L 205.6921778202902,279.0779077907791 L 204.99296425841356,279.02790279027903 L 203.7179277632268,278.2278227822782 L 202.85419336326157,276.9276927692769 L 202.11384959186282,276.47764776477646 L 200.59203183954313,276.07760776077606 L 198.74117241104622,276.17761776177616 L 197.09596403016008,275.3275327532753 L 195.57414627784038,275.4275427542754 L 194.62815145883087,274.47744774477445 L 193.06520349698903,273.57735773577355 L 191.29660448753643,272.027202720272 L 190.02156799234967,271.4771477147715 L 189.32235443047304,270.5770577057706 L 188.2940991924192,271.0771077107711 L 187.01906269723244,270.7770777077708 L 186.31984913535584,270.7770777077708 L 184.55125012590324,271.8271827182718 L 180.89066147843155,271.02710271027104 L 179.57449477372265,271.3771377137714 L 178.21719785949156,272.8272827282728 L 177.8470259737922,274.27742774277425 L 175.0913019358079,278.6278627862786 L 172.74687999304516,280.4780478047805 L 172.00653622164637,280.42804280428044 L 171.22506224072546,279.7779777977798 L 170.73149972645962,279.5779577957796 L 169.49759344079501,279.6779677967797 L 168.83951008844056,280.02800280028003 L 168.14029652656393,280.72807280728074 L 167.23543191707657,280.82808280828084 L 165.59022353619042,281.6281628162816 L 164.31518704100367,281.67816781678164 L 162.95789012677258,281.02810281028104 L 161.80624426015228,280.6780678067807 L 157.65209309841478,279.82798279827983 L 156.45931702227233,279.97799779978 L 156.17140555561724,279.82798279827983 L 155.96575450800648,279.5779577957796 L 155.7601034603957,278.6278627862786 L 155.88349408896218,276.77767776777677 L 155.7601034603957,276.027602760276 L 155.10202010804124,275.27752775277526 L 154.77297843186403,274.2274227422742 L 153.8269836128545,273.027302730273 L 152.9221190033671,272.2272227222722 L 152.9221190033671,271.3771377137714 L 153.7447231938102,271.02710271027104 L 177.51798429761496,267.9267926792679 L 177.97041660235865,266.97669766976696 L 177.97041660235865,263.67636763676364 L 178.0938072309251,263.1263126312631 L 178.4639791166245,262.07620762076203 L 179.6156249832448,260.3760376037604 L 180.3148385451214,258.57585758575857 L 180.2325781260771,256.97569756975696 L 180.0680572879885,256.4256425642564 L 178.95754163089035,254.87548754875485 L 178.75189058327956,254.27542754275427 L 178.58736974519095,252.025202520252 L 178.3817186975802,251.4251425142514 L 172.66461957400082,245.57455745574555 L 170.85489035502607,244.37443744374437 L 165.91926521236763,242.67426742674266 L 164.39744746004797,241.87418741874185 L 165.59022353619042,240.67406740674065 L 176.2429478024282,232.67326732673266 L 176.6131196881276,232.17321732173215 L 182.04230734505185,218.9218921892189 L 182.2068281831405,218.07180718071805 L 182.24795839266264,213.67136713671366 L 182.41247923075125,213.2213221322132 L 184.0576876116374,211.27112711271127 L 184.5101199163811,210.52105210521052 L 184.55125012590324,205.07050705070506 L 184.9214220116026,203.67036703670365 L 185.291593897302,203.020302030203 L 184.6746407544697,202.47024702470245 L 177.4768540880928,199.86998699869986 L 176.90103115478266,200.07000700070006 L 175.91390612625096,200.77007700770076 L 175.21469256437436,201.52015201520152 L 174.5566092120199,201.87018701870187 L 173.69287481205467,201.82018201820182 L 173.11705187874452,201.52015201520152 L 172.82914041208946,200.77007700770076 L 172.3355778978236,197.06970697069707 L 172.45896852639007,196.16961696169616 L 174.67999984058636,194.16941694169415 L 175.33808319294081,191.96919691969197 L 176.11955717386175,190.66906690669066 L 176.9421613643048,190.56905690569056 L 178.5462395356688,191.4191419141914 L 178.95754163089035,191.26912691269126 L 179.1631926785011,190.46904690469046 L 178.66963016423526,188.46884688468845 L 178.7107603737574,187.46874687468747 L 177.27120304048205,185.46854685468546 L 176.6131196881276,184.8184818481848 L 174.84452067867497,185.96859685968596 L 174.35095816440915,186.06860686068606 L 172.2533174787793,185.36853685368536 L 170.77262993598177,185.46854685468546 L 169.57985385983932,184.7184718471847 L 169.00403092652917,184.06840684068405 L 168.8806402979627,183.66836683668365 L 169.08629134557347,181.86818681868186 L 168.46933820274117,180.16801680168015 L 167.44108296468733,177.96779677967797 L 166.74186940281072,177.26772677267726 L 163.36919222199413,173.9173917391739 L 162.71110886963967,173.86738673867384 L 158.63921812694645,174.56745674567455 L 158.39243686981354,174.4174417441744 L 158.18678582220278,174.2174217421742 L 158.10452540315845,173.41734173417342 L 157.73435351745908,172.66726672667266 L 155.26654094612985,170.96709670967095 L 155.34880136517418,170.5170517051705 L 156.08914513657294,169.5169516951695 L 155.96575450800648,169.1169116911691 L 155.1431503175634,168.21682168216822 L 154.6907180128197,167.96679667966797 L 153.25116067954434,168.16681668166817 L 152.88098879384495,166.36663666366636 L 153.25116067954434,165.7165716571657 L 153.8269836128545,165.6165616561656 L 155.80123366991785,166.5166516651665 L 156.25366597466154,166.56665666566656 L 158.76260875551293,166.06660666066605 L 158.92712959360153,165.7165716571657 L 158.0633951936363,163.06630663066306 L 158.55695770790214,161.6161616161616 L 159.79086399356675,159.46594659465947 L 167.35882254564302,150.4150415041504 L 168.09916631704178,149.31493149314932 L 167.60560380277593,147.5147514751475 L 167.68786422182026,146.36463646364635 L 168.63385904082978,143.86438643864386 L 169.62098406936147,142.16421642164215 L 170.15567679314947,141.7141714171417 L 172.08879664069067,140.96409640964094 L 173.07592166922237,140.21402140214022 L 175.29695298341866,137.96379637963796 L 177.80589576427005,137.56375637563755 L 179.2454530975454,137.06370637063705 L 182.12456776409616,135.61356135613562 L 185.66176578300139,133.1133113311331 L 187.26584395436538,132.56325632563255 L 190.47400029709334,130.01300130013001 L 192.32485972559027,129.4129412941294 L 193.59989622077703,129.6129612961296 L 194.66928166835302,129.46294629462946 L 195.45075564927393,129.16291629162916 L 196.60240151589423,128.4128412841284 L 196.93144319207147,128.012801280128 L 197.01370361111577,127.76277627762775 L 195.24510460166317,127.16271627162716 L 194.71041187787517,126.61266126612661 L 194.50476083026442,126.16261626162616 L 193.97006810647642,123.2123212321232 L 193.51763580173272,122.56225622562256 L 191.91355763036873,122.06220622062206 L 190.92643260183704,121.26212621262125 L 190.5151305066155,120.6120612061206 L 190.63852113518197,119.71197119711971 L 206.06234970598956,101.76017601760175 L 206.59704242977756,100.51005100510051 L 207.1728653630877,97.8097809780978 L 208.48903206779664,97.4097409740974 L 209.72293835346125,97.8097809780978 L 215.9747302008286,100.76007600760076 L 217.24976669601534,101.6101610161016 L 217.70219900075904,102.16021602160215 L 218.3602823531135,102.46024602460245 L 219.01836570546794,102.1102110211021 L 220.1288813625661,100.71007100710071 L 221.85635016249654,99.35993599359935 L 224.81772524809162,98.10981098109811 L 225.72258985757898,97.25972597259725 L 227.94362117177528,93.85938593859386 L 229.50656913361712,90.5090509050905 L 229.8767410193165,90.15901590159015 L 232.34455359064572,89.15891589158916 L 234.4010640667534,87.15871587158715 L 235.22366825719646,87.85878587858785 L 237.1567881047377,87.95879587958795 L 238.0205225047029,88.5088508850885 L 239.13103816180106,88.35883588358836 L 241.6811111521746,87.1087108710871 L 242.79162680927274,86.1086108610861 L 244.10779351398165,85.7085708570857 L 245.17717896155764,85.008500850085 L 247.56273111384255,85.2085208520852 L 249.6603717994724,84.45844584458446 L 252.1281843708016,84.25842584258426 L 252.41609583745668,83.9083908390839 L 252.25157499936807,83.25832583258325 L 252.37496562793453,83.008300830083 L 253.52661149455483,83.25832583258325 L 254.18469484690928,83.65836583658366 L 255.33634071352958,83.75837583758376 L 257.06380951346006,84.85848584858485 L 258.91466894195696,84.8084808480848 L 260.27196585618805,85.05850585058505 L 261.58813256089695,84.7084708470847 L 262.98655968465016,85.9085908590859 L 264.0970753417483,85.45854585458545 L 264.91967953219137,85.35853585358535 L 265.00193995123567,85.45854585458545 L 243.73762162828226,117.01170117011701 L 243.9844028854152,117.11171117111711 L 245.5884810567792,116.76167616761676 L 246.86351755196594,116.8116811681168 L 247.39821027575394,117.01170117011701 L 248.46759572332994,117.71177117711771 L 249.6603717994724,119.3119311931193 L 250.31845515182684,119.71197119711971 L 251.428970808925,120.01200120012001 L 252.41609583745668,120.8120812081208 L 261.7937836085077,139.56395639563956 L 262.12282528468495,142.1142114211421 L 260.76552837045386,150.8150815081508 L 260.88891899902035,151.5151515151515 L 262.57525758942865,153.36533653365336 L 262.8631690560837,154.11541154115412 L 262.65751800847295,181.9181918191819 L 262.28734612277356,183.06830683068307 L 256.2000751134948,196.36963696369637 L 232.7969858953894,236.7236723672367 L 232.75585568586726,237.4237423742374 L 233.74298071439895,237.3237323732373 L 234.2365432286648,237.5237523752375 L 235.3881890952851,237.023702370237 L 236.91000684760476,237.7237723772377 L 239.50121004750045,239.62396239623962 L 240.89963717125366,239.67396739673967 L 243.94327267589304,238.6238623862386 L 245.17717896155764,238.92389238923892 L 245.87639252343425,238.57385738573856 L 246.69899671387734,238.5238523852385 L 247.64499153288685,238.77387738773876 L 247.8917727900198,238.3238323832383 L 249.78376242803884,237.5237523752375 L 249.33133012329515,248.22482248224821 L 249.98941347564963,250.02500250025003 L 249.824892637561,251.97519751975196 L 246.9869081805324,264.07640764076405 L 245.87639252343425,264.87648764876485 L 245.5884810567792,265.3265326532653 L 245.62961126630134,265.6265626562656 L 246.08204357104503,266.1266126612661 L 247.3570800662318,266.8266826682668 L 250.8120176660927,267.3267326732673 L 251.30558018035853,267.5267526752675 L 251.67575206605792,267.8267826782678 L 252.37496562793453,268.9268926892689 L 253.15643960885544,270.52705270527053 L 253.89678338025422,271.02710271027104 L 271.00695054147013,277.47774777477747 L 271.33599221764734,277.9277927792779 L 271.62390368430243,279.12791279127913 L 272.19972661761255,280.22802280228024 L 273.63928395088794,282.3282328232823 L 276.065966312695,284.5284528452845 L 276.6829194555273,285.27852785278526 L 278.65716951259066,288.52885288528853 L 284.7444405218694,290.87908790879084 L 285.8138259694454,291.5291529152915 L 285.7315655504011,292.27922792279224 L 277.2176121793153,315.08150815081507 L 277.135351760271,315.6315631563156 L 277.42326322692605,315.981598159816 L 277.99908616023623,316.2816281628163 L 286.0606072265783,319.6319631963196 L 285.85495617896754,319.88198819881984 L 284.908961359958,320.3320332033203 L 284.00409675047064,321.1321132113211 L 283.01697172193894,321.58215821582155 L 281.86532585531864,322.88228822882286 L 281.08385187439774,324.28242824282427 L 280.38463831252113,324.9324932493249 L 277.25874238883745,326.73267326732673 L 275.94257568412854,327.8827882788279 L 273.92719541754303,328.68286828682864 L 272.77554955092273,329.68296829682964 L 272.40537766522334,330.3330333033303 L 271.87068494143534,332.6332633263326 L 271.37712242716947,333.6333633363336 L 270.26660677007135,334.983498349835 L 269.85530467484983,335.983598359836 L 269.11496090345105,337.03370337033704 L 268.37461713205226,337.73377337733774 L 266.35923686546676,339.2339233923392 L 264.22046597031476,342.48424842484246 L 262.65751800847295,345.53455345534553 L 261.91717423707416,347.6847684768477 L 261.67039297994125,348.1348134813481 L 260.97117941806465,348.78487848784874 L 260.3953564847545,350.03500350035 L 259.9429241800108,350.6350635063506 L 259.98405438953296,354.83548354835483 L 258.7090178943462,360.9360936093609 L 258.54449705625757,363.7863786378638 L 257.8041532848588,366.9366936693669 L 256.6525074182385,369.5369536953695 L 256.9404188848936,370.58705870587056 L 260.27196585618805,371.7371737173717 L 261.341351303764,373.3373337333733 L 267.75766398921996,387.6387638763876 L 268.33348692253014,388.08880888088805 L 268.49800776061875,390.2390239023902 L 269.03270048440675,391.08910891089107 L 270.06095572246056,391.7391739173917 L 271.91181515095747,392.2392239223922 L 273.10459122709995,393.3893389338934 L 273.96832562706516,393.93939393939394 L 276.600659036483,394.73947394739474 L 277.34100280788175,395.33953395339535 L 278.16360699832484,396.48964896489645 L 279.47977370303374,397.48974897489745 L 279.72655496016665,398.78987898789876 L 279.68542475064453,405.59055905590554 L 279.31525286494514,408.49084908490846 L 278.8216903506793,410.2910291029103 L 278.08134657928053,420.6420642064206 z" /><path fill-rule="evenodd" fill="#D2EBD9" stroke="#A6A6A6" stroke-width="0.25" opacity="1" d="M 393.28706345083276,154.66546654665467 L 393.45158428892137,157.86578657865786 L 393.24593324131064,158.81588158815882 L 392.62898009847834,159.96599659965995 L 364.701567832936,196.06960696069606 L 364.1257448996259,240.77407740774075 L 364.1257448996259,369.38693869386935 L 363.9612240615373,385.73857385738575 L 364.701567832936,387.1387138713871 L 383.37468295599376,405.6405640564056 L 411.2609650120139,445.6445644564456 L 408.7520222311625,444.2444244424442 L 406.44873049792193,444.69446944694465 L 404.1865689742035,445.89458945894586 L 401.71875640287425,446.69466946694666 L 399.53885529820013,445.4445444544454 L 398.79851152680135,445.2445244524452 L 396.70087084117154,445.9445944594459 L 395.87826665072845,445.99459945994596 L 391.76524569851307,444.99449944994495 L 390.40794878428204,444.89448944894485 L 387.81674558438635,444.19441944194415 L 376.7938494324492,443.5443544354435 L 374.1203858135092,443.89438943894385 L 371.6114430326578,444.89448944894485 L 369.3492815089394,446.69466946694666 L 366.0177345376449,451.2951295129513 L 364.701567832936,452.5452545254525 L 363.878963642493,453.045304530453 L 360.4651562521542,454.3454345434543 L 359.9304635283662,454.89548954895486 L 359.066729128401,456.49564956495647 L 357.7916926332142,457.8957895789579 L 354.7069269190527,460.04600460046004 L 353.59641126195453,461.54615461546155 L 350.3471247097044,459.3959395939594 L 333.97730131988726,453.09530953095305 L 333.6893898532322,452.79527952795274 L 333.40147838657714,451.995199519952 L 333.11356691992205,451.74517451745174 L 323.81813956791535,448.4948494849485 L 322.8721447489058,448.6448644864486 L 322.8721447489058,448.1448144814481 L 322.66649370129505,447.8447844784478 L 306.5023213590887,439.99399939994 L 305.4740661210348,438.6938693869387 L 303.0062535497056,432.1932193219322 L 302.1425191497404,430.64306430643063 L 301.1965243307309,429.3429342934293 L 293.75195640722103,422.54225422542254 L 292.4357897025121,420.94209420942093 L 291.2841438358918,417.49174917491746 L 290.4204094359266,416.1416141614161 L 288.77520105504044,416.09160916091605 L 287.99372707411953,416.59165916591655 L 287.3356437217651,417.99179917991796 L 286.8832114170214,418.59185918591857 L 285.2791332456574,419.09190919091907 L 278.86282056020144,419.29192919291927 L 279.3563830744673,420.2420242024202 L 279.10960181733435,420.7920792079208 L 278.41038825545775,420.84208420842083 L 278.08134657928053,420.6420642064206 L 278.8216903506793,410.2910291029103 L 279.31525286494514,408.49084908490846 L 279.68542475064453,405.59055905590554 L 279.72655496016665,398.78987898789876 L 279.47977370303374,397.48974897489745 L 278.16360699832484,396.48964896489645 L 277.34100280788175,395.33953395339535 L 276.600659036483,394.73947394739474 L 273.96832562706516,393.93939393939394 L 273.10459122709995,393.3893389338934 L 271.91181515095747,392.2392239223922 L 270.06095572246056,391.7391739173917 L 269.03270048440675,391.08910891089107 L 268.49800776061875,390.2390239023902 L 268.33348692253014,388.08880888088805 L 267.75766398921996,387.6387638763876 L 261.341351303764,373.3373337333733 L 260.27196585618805,371.7371737173717 L 256.9404188848936,370.58705870587056 L 256.6525074182385,369.5369536953695 L 257.8041532848588,366.9366936693669 L 258.54449705625757,363.7863786378638 L 258.7090178943462,360.9360936093609 L 259.98405438953296,354.83548354835483 L 259.9429241800108,350.6350635063506 L 260.3953564847545,350.03500350035 L 260.97117941806465,348.78487848784874 L 261.67039297994125,348.1348134813481 L 261.91717423707416,347.6847684768477 L 262.65751800847295,345.53455345534553 L 264.22046597031476,342.48424842484246 L 266.35923686546676,339.2339233923392 L 268.37461713205226,337.73377337733774 L 269.11496090345105,337.03370337033704 L 269.85530467484983,335.983598359836 L 270.26660677007135,334.983498349835 L 271.37712242716947,333.6333633363336 L 271.87068494143534,332.6332633263326 L 272.40537766522334,330.3330333033303 L 272.77554955092273,329.68296829682964 L 273.92719541754303,328.68286828682864 L 275.94257568412854,327.8827882788279 L 277.25874238883745,326.73267326732673 L 280.38463831252113,324.9324932493249 L 281.08385187439774,324.28242824282427 L 281.86532585531864,322.88228822882286 L 283.01697172193894,321.58215821582155 L 284.00409675047064,321.1321132113211 L 284.908961359958,320.3320332033203 L 285.85495617896754,319.88198819881984 L 286.0606072265783,319.6319631963196 L 277.99908616023623,316.2816281628163 L 277.42326322692605,315.981598159816 L 277.135351760271,315.6315631563156 L 277.2176121793153,315.08150815081507 L 285.7315655504011,292.27922792279224 L 285.8138259694454,291.5291529152915 L 284.7444405218694,290.87908790879084 L 278.65716951259066,288.52885288528853 L 276.6829194555273,285.27852785278526 L 276.065966312695,284.5284528452845 L 273.63928395088794,282.3282328232823 L 272.19972661761255,280.22802280228024 L 271.62390368430243,279.12791279127913 L 271.33599221764734,277.9277927792779 L 271.00695054147013,277.47774777477747 L 253.89678338025422,271.02710271027104 L 253.15643960885544,270.52705270527053 L 252.37496562793453,268.9268926892689 L 251.67575206605792,267.8267826782678 L 251.30558018035853,267.5267526752675 L 250.8120176660927,267.3267326732673 L 247.3570800662318,266.8266826682668 L 246.08204357104503,266.1266126612661 L 245.62961126630134,265.6265626562656 L 245.5884810567792,265.3265326532653 L 245.87639252343425,264.87648764876485 L 246.9869081805324,264.07640764076405 L 249.824892637561,251.97519751975196 L 249.98941347564963,250.02500250025003 L 249.33133012329515,248.22482248224821 L 249.78376242803884,237.5237523752375 L 259.44936166574496,236.1236123612361 L 260.06631480857726,236.3236323632363 L 261.21796067519756,238.023802380238 L 261.75265339898556,238.37383738373836 L 264.22046597031476,238.92389238923892 L 266.19471602737815,238.82388238823881 L 267.4697525225649,237.67376737673766 L 270.22547656054917,234.32343234323432 L 274.62640897941964,234.17341734173417 L 275.57240379842915,233.7233723372337 L 277.54665385549254,234.07340734073406 L 278.61603930306853,233.97339733973396 L 279.4386434935116,233.57335733573356 L 280.46689873156544,232.7232723272327 L 282.02984669340725,232.47324732473245 L 282.7290602552839,231.97319731973195 L 282.85245088385034,231.67316731673165 L 284.99122177900233,231.17311731173115 L 285.6493051313568,230.87308730873087 L 287.1711228836765,229.77297729772977 L 287.62355518842014,228.97289728972896 L 288.3227687502968,228.47284728472846 L 289.186503150262,226.57265726572655 L 289.76232608357213,226.3226322632263 L 290.5026698549709,226.4226422642264 L 290.99623236923674,226.22262226222622 L 291.859966769202,224.82248224822482 L 292.7648313786894,224.3224322432243 L 293.4229147310438,223.07230723072306 L 295.7673366738066,214.9214921492149 L 296.3842898166389,214.77147714771476 L 296.7544617023383,214.37143714371436 L 297.0012429594712,213.021302130213 L 297.2891544261263,212.97129712971295 L 298.7698419689238,211.12111211121112 L 299.3867951117561,210.87108710871087 L 300.7440920259872,210.72107210721072 L 301.5666962164302,210.42104210421041 L 302.1836493592625,209.9209920992099 L 302.6772118735284,209.37093709370936 L 303.0473837592278,207.7207720772077 L 304.6103317210696,205.4205420542054 L 304.6514619305918,203.47034703470345 L 305.1038942353355,202.97029702970295 L 304.6925921401139,202.27022702270227 L 304.8159827686804,201.52015201520152 L 305.4740661210348,199.76997699769976 L 305.7619775876899,197.66976697669767 L 306.5023213590887,197.7197719771977 L 306.17327968291147,196.26962696269626 L 307.2015349209653,193.4193419341934 L 307.2015349209653,192.06920692069207 L 307.9007484828419,190.96909690969096 L 308.5177016256742,188.66886688668865 L 310.327430844649,185.018501850185 L 311.0677746160477,184.26842684268425 L 310.4096912636933,183.46834683468344 L 310.0395193779939,182.51825182518252 L 311.150035035092,182.41824182418242 L 312.0548996445794,181.66816681668166 L 312.63072257788957,180.6180618061806 L 312.8363736255003,179.5179517951795 L 313.9880194921206,178.16781678167817 L 314.60497263495296,176.2176217621762 L 314.8106236825637,171.86718671867186 L 315.67435808252895,168.06680668066807 L 316.00339975870617,164.7164716471647 L 318.59460295860185,159.26592659265927 L 319.74624882522215,158.015801580158 L 320.1164207109215,157.2157215721572 L 320.23981133948797,153.91539153915392 L 320.60998322518736,152.5152515251525 L 320.4865925966209,152.1152115211521 L 319.91076966331076,151.46514651465145 L 319.8696394537886,150.6150615061506 L 320.23981133948797,148.3148314831483 L 319.8696394537886,147.3147314731473 L 319.91076966331076,146.9146914691469 L 320.9390249013646,145.5145514551455 L 321.35032699658615,143.06430643064306 L 321.67936867276336,142.3142314231423 L 320.9390249013646,141.6141614161416 L 321.35032699658615,140.9140914091409 L 322.0084103489406,138.06380638063806 L 322.95440516795014,135.76357635763574 L 322.74875412033936,135.26352635263527 L 322.95440516795014,133.96339633963396 L 325.75125941545656,135.06350635063507 L 365.5653022329013,152.86528652865286 L 393.28706345083276,154.66546654665467 z" /><g><path fill-rule="evenodd" fill="#D2EBD9" stroke="#A6A6A6" stroke-width="0.25" opacity="1" d="M 393.28706345083276,154.66546654665467 L 365.5653022329013,152.86528652865286 L 325.75125941545656,135.06350635063507 L 322.95440516795014,133.96339633963396 L 322.74875412033936,135.26352635263527 L 322.95440516795014,135.76357635763574 L 322.0084103489406,138.06380638063806 L 321.35032699658615,140.9140914091409 L 320.9390249013646,141.6141614161416 L 321.67936867276336,142.3142314231423 L 321.35032699658615,143.06430643064306 L 320.9390249013646,145.5145514551455 L 319.91076966331076,146.9146914691469 L 319.8696394537886,147.3147314731473 L 320.23981133948797,148.3148314831483 L 319.8696394537886,150.6150615061506 L 319.91076966331076,151.46514651465145 L 320.4865925966209,152.1152115211521 L 320.60998322518736,152.5152515251525 L 320.23981133948797,153.91539153915392 L 320.1164207109215,157.2157215721572 L 319.74624882522215,158.015801580158 L 318.59460295860185,159.26592659265927 L 316.00339975870617,164.7164716471647 L 315.67435808252895,168.06680668066807 L 314.8106236825637,171.86718671867186 L 314.60497263495296,176.2176217621762 L 313.9880194921206,178.16781678167817 L 312.8363736255003,179.5179517951795 L 312.63072257788957,180.6180618061806 L 312.0548996445794,181.66816681668166 L 311.150035035092,182.41824182418242 L 310.0395193779939,182.51825182518252 L 310.4096912636933,183.46834683468344 L 311.0677746160477,184.26842684268425 L 310.327430844649,185.018501850185 L 308.5177016256742,188.66886688668865 L 307.9007484828419,190.96909690969096 L 307.2015349209653,192.06920692069207 L 307.2015349209653,193.4193419341934 L 306.17327968291147,196.26962696269626 L 306.5023213590887,197.7197719771977 L 305.7619775876899,197.66976697669767 L 305.4740661210348,199.76997699769976 L 304.8159827686804,201.52015201520152 L 304.6925921401139,202.27022702270227 L 305.1038942353355,202.97029702970295 L 304.6514619305918,203.47034703470345 L 304.6103317210696,205.4205420542054 L 303.0473837592278,207.7207720772077 L 302.6772118735284,209.37093709370936 L 302.1836493592625,209.9209920992099 L 301.5666962164302,210.42104210421041 L 300.7440920259872,210.72107210721072 L 299.3867951117561,210.87108710871087 L 298.7698419689238,211.12111211121112 L 297.2891544261263,212.97129712971295 L 297.0012429594712,213.021302130213 L 296.7544617023383,214.37143714371436 L 296.3842898166389,214.77147714771476 L 295.7673366738066,214.9214921492149 L 293.4229147310438,223.07230723072306 L 292.7648313786894,224.3224322432243 L 291.859966769202,224.82248224822482 L 290.99623236923674,226.22262226222622 L 290.5026698549709,226.4226422642264 L 289.76232608357213,226.3226322632263 L 289.186503150262,226.57265726572655 L 288.3227687502968,228.47284728472846 L 287.62355518842014,228.97289728972896 L 287.1711228836765,229.77297729772977 L 285.6493051313568,230.87308730873087 L 284.99122177900233,231.17311731173115 L 282.85245088385034,231.67316731673165 L 282.7290602552839,231.97319731973195 L 282.02984669340725,232.47324732473245 L 280.46689873156544,232.7232723272327 L 279.4386434935116,233.57335733573356 L 278.61603930306853,233.97339733973396 L 277.54665385549254,234.07340734073406 L 275.57240379842915,233.7233723372337 L 274.62640897941964,234.17341734173417 L 270.22547656054917,234.32343234323432 L 267.4697525225649,237.67376737673766 L 266.19471602737815,238.82388238823881 L 264.22046597031476,238.92389238923892 L 261.75265339898556,238.37383738373836 L 261.21796067519756,238.023802380238 L 260.06631480857726,236.3236323632363 L 259.44936166574496,236.1236123612361 L 249.78376242803884,237.5237523752375 L 247.8917727900198,238.3238323832383 L 247.64499153288685,238.77387738773876 L 246.69899671387734,238.5238523852385 L 245.87639252343425,238.57385738573856 L 245.17717896155764,238.92389238923892 L 243.94327267589304,238.6238623862386 L 240.89963717125366,239.67396739673967 L 239.50121004750045,239.62396239623962 L 236.91000684760476,237.7237723772377 L 235.3881890952851,237.023702370237 L 234.2365432286648,237.5237523752375 L 233.74298071439895,237.3237323732373 L 232.75585568586726,237.4237423742374 L 232.7969858953894,236.7236723672367 L 256.2000751134948,196.36963696369637 L 262.28734612277356,183.06830683068307 L 262.65751800847295,181.9181918191819 L 262.8631690560837,154.11541154115412 L 262.57525758942865,153.36533653365336 L 260.88891899902035,151.5151515151515 L 260.76552837045386,150.8150815081508 L 262.12282528468495,142.1142114211421 L 261.7937836085077,139.56395639563956 L 252.41609583745668,120.8120812081208 L 251.428970808925,120.01200120012001 L 250.31845515182684,119.71197119711971 L 249.6603717994724,119.3119311931193 L 248.46759572332994,117.71177117711771 L 247.39821027575394,117.01170117011701 L 246.86351755196594,116.8116811681168 L 245.5884810567792,116.76167616761676 L 243.9844028854152,117.11171117111711 L 243.73762162828226,117.01170117011701 L 265.00193995123567,85.45854585458545 L 264.91967953219137,85.35853585358535 L 264.0970753417483,85.45854585458545 L 262.98655968465016,85.9085908590859 L 261.58813256089695,84.7084708470847 L 260.27196585618805,85.05850585058505 L 258.91466894195696,84.8084808480848 L 257.06380951346006,84.85848584858485 L 255.33634071352958,83.75837583758376 L 254.18469484690928,83.65836583658366 L 253.52661149455483,83.25832583258325 L 252.37496562793453,83.008300830083 L 252.25157499936807,83.25832583258325 L 252.41609583745668,83.9083908390839 L 252.1281843708016,84.25842584258426 L 249.6603717994724,84.45844584458446 L 247.56273111384255,85.2085208520852 L 245.17717896155764,85.008500850085 L 244.10779351398165,85.7085708570857 L 242.79162680927274,86.1086108610861 L 241.6811111521746,87.1087108710871 L 239.13103816180106,88.35883588358836 L 238.0205225047029,88.5088508850885 L 237.1567881047377,87.95879587958795 L 235.22366825719646,87.85878587858785 L 234.4010640667534,87.15871587158715 L 232.34455359064572,89.15891589158916 L 229.8767410193165,90.15901590159015 L 229.50656913361712,90.5090509050905 L 227.94362117177528,93.85938593859386 L 225.72258985757898,97.25972597259725 L 224.81772524809162,98.10981098109811 L 221.85635016249654,99.35993599359935 L 220.1288813625661,100.71007100710071 L 219.01836570546794,102.1102110211021 L 218.3602823531135,102.46024602460245 L 217.70219900075904,102.16021602160215 L 217.24976669601534,101.6101610161016 L 215.9747302008286,100.76007600760076 L 209.72293835346125,97.8097809780978 L 208.48903206779664,97.4097409740974 L 207.1728653630877,97.8097809780978 L 203.7179277632268,85.95859585958596 L 202.89532357278375,78.6078607860786 L 202.68967252517297,78.007800780078 L 202.36063084899575,77.55775577557755 L 200.63316204906528,77.5077507750775 L 195.86205774449547,76.85768576857686 L 194.95719313500808,76.6076607660766 L 195.98544837306193,70.3070307030703 L 195.0394535540524,70.20702070207021 L 194.54589103978657,69.80698069806981 L 194.34023999217578,69.05690569056905 L 194.42250041122008,68.15681568156815 L 193.43537538268842,68.05680568056805 L 192.24259930654594,67.40674067406741 L 191.09095343992564,66.5066506650665 L 190.06269820187183,65.20652065206521 L 189.69252631617243,64.05640564056405 L 189.77478673521674,63.506350635063505 L 190.14495862091613,63.1063106310631 L 191.00869302088134,63.006300630063 L 191.25547427801428,62.6062606260626 L 190.63852113518197,60.75607560756075 L 190.76191176374843,60.056005600560056 L 193.22972433507763,60.2060206020602 L 194.34023999217578,60.106010601060106 L 195.40962543975178,59.805980598059804 L 196.39675046828347,59.3059305930593 L 197.13709423968223,58.655865586558654 L 197.50726612538162,57.85578557855785 L 198.41213073486898,54.7054705470547 L 198.90569324913483,53.65536553655365 L 199.60490681101146,52.705270527052704 L 272.65215892235625,0.0 L 274.3796277222867,1.1001100110011 L 275.32562254129624,2.6002600260026 L 276.43613819839436,3.65036503650365 L 277.95795595071405,3.2003200320032 L 278.2869976268913,4.25042504250425 L 279.5209039125559,2.75027502750275 L 281.49515396961925,2.25022502250225 L 283.22262276954973,2.5002500250025 L 283.7573154933377,3.2003200320032 L 282.93471130289464,4.35043504350435 L 282.9758415124168,5.5005500550055 L 283.30488318859403,5.5505550555055505 L 283.92183633142633,5.3005300530053 L 285.0323519885245,7.6007600760076 L 285.69043534087893,8.150815081508151 L 285.85495617896754,7.4007400740074 L 285.69043534087893,5.9005900590059 L 286.0194770170562,4.9504950495049505 L 287.7880760265088,10.251025102510251 L 288.8574614740848,11.451145114511451 L 288.8985916836069,12.351235123512351 L 289.72119587405,13.4013401340134 L 290.1736281787937,13.4013401340134 L 290.6260604835374,12.75127512751275 L 291.2018834168475,14.2014201420142 L 292.8882220072558,20.55205520552055 L 294.533430388142,24.75247524752475 L 297.0835033785155,29.15291529152915 L 297.2891544261263,30.4030403040304 L 296.3020293975946,31.35313531353135 L 294.4923001786198,31.9031903190319 L 292.7648313786894,31.753175317531753 L 292.0244876072906,30.75307530753075 L 291.7365761406355,31.803180318031803 L 291.6954459311134,32.9032903290329 L 291.859966769202,33.25332533253325 L 293.4229147310438,33.25332533253325 L 295.06812311193,33.65336533653365 L 295.5616856261958,34.05340534053405 L 295.9318575118952,35.003500350035004 L 293.9576074548318,35.55355535553555 L 293.4229147310438,36.053605360536054 L 293.998737664354,36.5036503650365 L 294.6156908071863,36.4036403640364 L 295.9318575118952,35.7035703570357 L 296.8367221213826,36.45364536453645 L 296.7955919118604,34.55345534553455 L 297.1246335880376,33.95339533953395 L 297.5359356832592,33.65336533653365 L 297.9061075689586,32.503250325032504 L 298.3996700832244,32.2032203220322 L 299.3045346927118,33.003300330033 L 299.9626180450662,34.45344534453445 L 301.0320034926422,35.65356535653565 L 301.1965243307309,36.55365536553655 L 300.6207013974207,36.85368536853685 L 299.4690555308004,36.75367536753675 L 298.9754930165346,37.253725372537254 L 298.029498197525,39.2039203920392 L 298.3585398737023,39.603960396039604 L 299.4690555308004,40.25402540254025 L 299.4690555308004,38.503850385038504 L 300.4973107688542,37.7037703770377 L 301.9779983116518,37.95379537953795 L 303.2941650163607,39.2039203920392 L 307.4483161780982,50.7050705070507 L 307.5305765971425,52.3052305230523 L 307.0781442923988,53.855385538553854 L 306.5023213590887,54.25542554255425 L 304.7337223496361,53.55535553555355 L 303.9933785782373,53.805380538053804 L 303.7877275306265,54.4054405440544 L 304.4046806734588,55.105510551055104 L 303.376425435405,55.105510551055104 L 302.7594722925727,55.55555555555555 L 302.6360816640062,56.355635563556355 L 303.0062535497056,57.3057305730573 L 303.5409462734936,56.85568556855685 L 303.2941650163607,56.205620562056204 L 304.8982431877247,56.05560556055605 L 305.8442380067342,55.105510551055104 L 306.9547536638324,54.65546554655465 L 307.4071859685761,54.7054705470547 L 308.0652693209305,55.305530553055306 L 308.6410922542407,56.505650565056506 L 309.1757849780287,59.5059505950595 L 310.5330818922597,61.7061706170617 L 311.6024673398357,64.45644564456445 L 312.5073319493231,65.9065906590659 L 312.1371600636237,66.8066806680668 L 312.4250715302788,68.05680568056805 L 312.54846215884527,69.95699569956996 L 312.9597642540668,70.45704570457045 L 313.8646288635542,70.65706570657065 L 313.78236844450987,69.95699569956996 L 312.8363736255003,67.1067106710671 L 313.7412382349877,67.25672567256726 L 314.4404517968643,67.80678067806781 L 315.67435808252895,69.25692569256925 L 316.3324414348834,69.7069706970697 L 318.84138421573476,70.85708570857085 L 319.54059777761137,71.35713571357135 L 320.15755092044367,71.95719571957196 L 320.60998322518736,72.7072707270727 L 320.9390249013646,73.5073507350735 L 320.9390249013646,74.45744574457446 L 320.36320196805445,76.35763576357635 L 320.4043321775766,77.05770577057706 L 322.1729311870292,79.50795079507951 L 322.50197286320645,80.4080408040804 L 322.7076239108172,83.05830583058305 L 324.06492082504826,85.1085108510851 L 325.87465004402304,86.80868086808681 L 326.28595213924456,87.4087408740874 L 326.2448219297224,88.008800880088 L 325.1754364821464,87.2087208720872 L 324.10605103457044,87.1087108710871 L 323.4890978917381,87.7087708770877 L 323.73587914887105,89.05890589058906 L 322.66649370129505,89.85898589858985 L 322.7898843298615,91.55915591559156 L 323.98266040600396,96.10961096109611 L 323.9415301964818,96.40964096409641 L 323.16005621556087,97.45974597459745 L 323.07779579651657,97.85978597859786 L 323.28344684412735,98.70987098709871 L 324.84639480596917,100.66006600660066 L 326.2448219297224,103.56035603560356 L 329.41184806292824,106.26062606260625 L 330.89253560572575,107.2107210721072 L 332.20870231043466,107.61076107610761 L 334.34747320558665,109.16091609160915 L 339.529879605378,110.76107610761075 L 341.2162181957863,110.96109610961095 L 342.86142657667244,110.56105610561056 L 344.38324432899213,109.86098609860986 L 345.98732250035613,109.56095609560955 L 347.75592150980873,110.21102110211021 L 350.92294764301454,113.96139613961395 L 353.3084997952995,114.96149614961496 L 354.9125779666635,116.1116111611161 L 356.3110050904167,117.51175117511751 L 356.927958233249,118.7118711871187 L 356.5577863475496,119.41194119411941 L 355.1182290142742,120.36203620362035 L 354.789187338097,121.1121112111211 L 355.2004894333185,122.01220122012201 L 354.5424060809641,122.31223122312231 L 354.254494614309,122.7122712271227 L 354.0899737762204,123.6123612361236 L 355.1593592237964,123.012301230123 L 356.2698748808945,124.012401240124 L 357.4215207475148,125.36253625362535 L 358.6965572427016,126.06260626062605 L 359.8070728997997,126.3126312631263 L 359.7248124807554,126.46264626462646 L 360.2595052045434,126.2126212621262 L 360.2183749950213,125.76257625762575 L 360.424026042632,125.36253625362535 L 361.6579323282967,124.06240624062406 L 362.3982760996954,123.56235623562355 L 363.2620104996607,123.26232623262325 L 361.5756719092524,122.41224122412241 L 361.740192747341,121.81218121812181 L 362.8918386139613,122.06220622062206 L 364.166875109148,123.6123612361236 L 364.7426980424582,124.96249624962496 L 364.6604376234139,125.5125512551255 L 364.166875109148,126.26262626262626 L 363.5087917567936,126.71267126712671 L 362.3160156806511,126.66266626662666 L 361.8635833759074,126.81268126812681 L 361.205500023553,128.1128112811281 L 360.9175885568979,130.11301130113011 L 360.7941979283314,133.86338633863386 L 360.6296770902428,134.2134213421342 L 359.8893333188441,134.4134413441344 L 359.7248124807554,134.86348634863486 L 359.8482031093219,135.16351635163517 L 360.3006354140656,135.46354635463547 L 360.424026042632,135.8135813581358 L 360.2595052045434,136.66366636663665 L 359.8070728997997,137.2137213721372 L 359.1489895474453,137.4137413741374 L 358.3263853570022,137.013701370137 L 358.4497759855687,137.66376637663765 L 358.3263853570022,138.36383638363836 L 357.9562134713028,139.1139113911391 L 358.5731666141351,139.86398639863987 L 359.066729128401,139.66396639663967 L 359.5191614331447,139.1139113911391 L 360.9998489759422,138.1138113811381 L 361.9458437949517,134.91349134913492 L 362.9329688234834,134.2134213421342 L 364.0023542710594,135.56355635563557 L 364.2080053186702,141.66416641664165 L 366.0588647471671,143.06430643064306 L 365.2773907662462,141.9141914191419 L 365.0717397186354,141.26412641264125 L 365.236260556724,139.91399139913992 L 364.701567832936,138.5138513851385 L 364.6604376234139,137.7137713771377 L 365.236260556724,136.5136513651365 L 366.3879064233443,135.8135813581358 L 367.2105106137874,135.76357635763574 L 368.32102627088557,137.013701370137 L 369.6783231851166,137.6137613761376 L 370.70657842317047,138.76387638763876 L 371.3646617755249,139.1139113911391 L 373.791344137332,138.6138613861386 L 375.2720316801295,138.5138513851385 L 375.76559419439536,139.66396639663967 L 375.9712452420061,140.9140914091409 L 376.99950048005996,141.96419641964195 L 377.0406306895821,140.86408640864084 L 377.6575838324144,140.26402640264027 L 378.52131823237966,140.16401640164017 L 379.46731305138917,140.56405640564054 L 380.28991724183226,139.61396139613962 L 381.35930268940825,140.26402640264027 L 383.169031908383,142.5142514251425 L 386.0892767844559,145.16451645164517 L 387.19979244155405,145.86458645864585 L 387.44657369868696,146.76467646764675 L 389.29743312718387,149.56495649564957 L 393.24593324131064,153.56535653565356 L 393.28706345083276,154.66546654665467 z" /><path fill-rule="evenodd" fill="#D2EBD9" stroke="#A6A6A6" stroke-width="0.25" opacity="1" d="M 368.5266773184963,135.41354135413542 L 368.0742450137526,134.4134413441344 L 367.0048595661766,133.86338633863386 L 365.8120834900342,133.5133513351335 L 364.8660886710246,132.96329632963295 L 364.166875109148,131.8131813181318 L 363.5499219663157,130.21302130213022 L 363.5499219663157,129.012901290129 L 364.6604376234139,129.26292629262926 L 364.9894792995911,128.1128112811281 L 365.4007813948126,127.8127812781278 L 366.0588647471671,127.8127812781278 L 366.2645157947779,128.36283628362835 L 365.3185209757683,129.06290629062906 L 365.0306095091133,129.46294629462946 L 365.1540001376797,130.16301630163017 L 365.5241720233791,130.56305630563057 L 365.9766043281228,130.66306630663067 L 366.4290366328665,130.31303130313032 L 368.3621564804077,131.3131313131313 L 369.9251044422495,131.7131713171317 L 370.4597971660375,131.16311631163114 L 371.117880518392,131.06310631063104 L 371.3646617755249,131.36313631363134 L 371.85822428979077,131.56315631563155 L 372.0638753374015,132.013201320132 L 372.0638753374015,133.16331633163315 L 372.76308889927816,132.06320632063205 L 373.7090837182877,132.2132213221322 L 374.1203858135092,133.3133313331333 L 373.09213057545537,134.91349134913492 L 372.0638753374015,135.51355135513552 L 370.5009273755597,136.013601360136 L 369.1025002518065,136.1136113611361 L 368.5266773184963,135.41354135413542 z" /></g><path fill-rule="evenodd" fill="#D2EBD9" stroke="#A6A6A6" stroke-width="0.25" opacity="1" d="M 42.61089706495114,168.21682168216822 L 40.63664700788776,177.46774677467747 L 39.52613135078961,179.7179717971797 L 38.29222506512501,180.6180618061806 L 38.045443807992086,180.96809680968096 L 37.46962087468194,183.4183418341834 L 36.44136563662809,185.018501850185 L 36.112323960450865,186.4186418641864 L 35.20745935096349,187.96879687968797 L 35.12519893191918,188.9188918891889 L 35.413110398574254,189.3189318931893 L 36.27684479853948,189.96899689968996 L 38.78578757939085,191.36913691369136 L 39.772912607922535,191.06910691069106 L 42.07620434116314,190.9190919091909 L 55.813694321562444,194.86948694869486 L 56.80081935009413,195.3195319531953 L 57.91133500719228,198.26982698269825 L 58.48715794050243,198.86988698869885 L 60.42027778804365,200.27002700270026 L 60.790449673743026,200.7200720072007 L 60.62592883565441,202.02020202020202 L 59.474282969034114,205.47054705470546 L 59.43315275951196,206.12061206120612 L 59.76219443568919,206.92069206920692 L 59.88558506425565,208.4208420842084 L 59.26863192142335,213.97139713971396 L 58.73393919763535,214.9214921492149 L 58.52828815002458,215.97159715971597 L 58.73393919763535,217.9217921792179 L 58.56941835954674,218.5218521852185 L 57.664553750059355,219.97199719971997 L 57.088730816749205,221.5221522152215 L 57.006470397704895,222.3222322232223 L 57.170991235793515,223.022302230223 L 57.58229333101505,223.6223622362236 L 58.56941835954674,224.47244724472446 L 59.14524129285689,225.52255225522552 L 59.392022549989804,229.27292729272926 L 59.597673597600576,230.02300230023002 L 59.96784548329996,230.37303730373037 L 60.95497051183165,230.82308230823082 L 61.407402816575335,231.37313731373135 L 62.600178892717786,233.6233623362336 L 63.2993924545944,234.32343234323432 L 64.20425706408177,233.1233123312331 L 65.52042376879069,232.023202320232 L 66.30189774971161,231.8231823182318 L 67.24789256872114,232.17321732173215 L 67.74145508298699,232.07320732073205 L 68.72858011151868,230.52305230523052 L 68.93423115912944,230.37303730373037 L 69.83909576861683,230.27302730273027 L 70.29152807336051,230.02300230023002 L 70.82622079714851,228.77287728772876 L 71.8956062447245,228.1228122812281 L 72.88273127325618,228.07280728072806 L 73.4996844160885,228.4228422842284 L 73.86985630178788,230.42304230423042 L 73.82872609226573,231.17311731173115 L 73.41742399704418,231.8231823182318 L 71.07300205428143,233.67336733673366 L 70.7439603781042,235.17351735173517 L 70.49717912097128,235.42354235423542 L 69.30440304482883,235.9235923592359 L 68.93423115912944,236.27362736273625 L 68.52292906390791,238.37383738373836 L 68.07049675916421,238.97389738973897 L 67.61806445442053,239.22392239223922 L 67.00111131158822,239.27392739273927 L 65.84946544496792,238.7238723872387 L 65.06799146404701,238.92389238923892 L 63.46391329268302,239.77397739773977 L 62.27113721654056,239.87398739873987 L 61.65418407370826,239.42394239423942 L 61.03723093087595,238.3238323832383 L 59.76219443568919,237.8237823782378 L 59.021850664290426,238.07380738073806 L 58.240376683369504,238.6238623862386 L 57.746814169103665,238.67386738673866 L 56.63629851200552,239.57395739573957 L 55.69030369299598,239.47394739473947 L 53.96283489306553,238.7238723872387 L 51.20711085508124,239.02390239023902 L 48.20460555996403,238.87388738873886 L 47.38200136952096,239.07390739073907 L 45.819053407679114,240.37403740374037 L 44.667407541058815,240.52405240524052 L 43.433501255394205,240.17401740174017 L 41.623772036419446,240.47404740474047 L 39.197089674612386,239.87398739873987 L 37.63414171277055,240.52405240524052 L 36.15345416997302,240.87408740874085 L 33.27433950342227,239.82398239823982 L 32.451735312979196,239.87398739873987 L 31.917042589191198,240.27402740274027 L 31.629131122536123,240.87408740874085 L 32.28721447489058,242.77427742774276 L 32.410605103457044,245.47454745474545 L 32.04043321775766,245.9245924592459 L 29.32583938929552,247.5247524752475 L 29.161318551206907,247.8247824782478 L 29.32583938929552,248.67486748674867 L 29.243578970251214,249.12491249124912 L 26.282203884656155,252.17521752175216 L 25.953162208478926,254.67546754675467 L 25.624120532301696,255.47554755475545 L 24.678125713292165,256.4256425642564 L 24.225693408548473,256.6256625662566 L 23.85552152284909,256.67566756675666 L 22.662745446706637,256.07560756075605 L 22.086922513396487,255.97559755975595 L 18.71424533257989,256.57565756575656 L 17.89164114213682,256.57565756575656 L 16.739995275516517,256.07560756075605 L 15.999651504117752,254.62546254625462 L 15.506088989851909,254.02540254025402 L 12.99714620900054,253.82538253825382 L 11.475328456680856,252.87528752875286 L 10.570463847193476,251.9251925192519 L 10.15916175197194,250.67506750675065 L 9.747859656750405,247.27472747274726 L 9.542208609139637,247.024702470247 L 8.102651275864261,246.4246424642464 L 6.827614780677498,245.4245424542454 L 6.580833523544577,244.67446744674467 L 6.745354361633192,243.47434743474346 L 6.663093942588884,242.9242924292429 L 5.593708495012891,241.024102410241 L 3.2081563427279813,234.92349234923492 L 3.249286552250135,232.97329732973296 L 0.20565104761076802,206.82068206820682 L 0.6992135618766113,189.3189318931893 L 5.634838704535044,189.3189318931893 L 5.717099123579351,187.96879687968797 L 6.416312685455963,187.51875187518752 L 8.349432532997183,187.36873687368737 L 42.61089706495114,168.21682168216822 z" /><path fill-rule="evenodd" fill="#D2EBD9" stroke="#A6A6A6" stroke-width="0.25" opacity="1" d="M 34.79615725574195,297.6297629762976 L 34.50824578908688,297.1297129712971 L 33.43886034151088,296.9296929692969 L 32.57512594154566,297.4297429742974 L 31.752521751102584,297.6297629762976 L 30.68313630352659,296.57965796579657 L 29.737141484517057,294.6294629462946 L 29.490360227384137,293.5293529352935 L 29.449230017861982,291.2291229122912 L 29.161318551206907,290.1790179017902 L 27.804021636975836,286.87868786878687 L 26.323334094178307,284.9284928492849 L 25.582990322779544,282.87828782878285 L 24.719255922814316,282.07820782078204 L 21.428839161042028,280.42804280428044 L 20.97640685629834,279.92799279927993 L 20.688495389643265,278.1278127812781 L 19.824760989678037,275.9275927592759 L 18.59085470401343,274.57745774577455 L 16.945646323127285,273.7273727372737 L 14.848005637497451,272.97729772977294 L 13.326187885177768,271.9271927192719 L 12.462453485212542,270.3770377037704 L 11.022896151937166,264.67646764676465 L 9.542208609139637,262.6262626262626 L 9.58333881866179,261.6761676167617 L 10.15916175197194,259.7759775977598 L 10.03577112340548,258.7258725872587 L 9.58333881866179,258.07580758075807 L 7.732479390164878,256.6256625662566 L 0.16452083808861442,246.5246524652465 L 0.0,245.5245524552455 L 3.2081563427279813,234.92349234923492 L 5.593708495012891,241.024102410241 L 6.663093942588884,242.9242924292429 L 6.745354361633192,243.47434743474346 L 6.580833523544577,244.67446744674467 L 6.827614780677498,245.4245424542454 L 8.102651275864261,246.4246424642464 L 9.542208609139637,247.024702470247 L 9.747859656750405,247.27472747274726 L 10.15916175197194,250.67506750675065 L 10.570463847193476,251.9251925192519 L 11.475328456680856,252.87528752875286 L 12.99714620900054,253.82538253825382 L 15.506088989851909,254.02540254025402 L 15.999651504117752,254.62546254625462 L 16.739995275516517,256.07560756075605 L 17.89164114213682,256.57565756575656 L 18.71424533257989,256.57565756575656 L 22.086922513396487,255.97559755975595 L 22.662745446706637,256.07560756075605 L 23.85552152284909,256.67566756675666 L 24.225693408548473,256.6256625662566 L 24.678125713292165,256.4256425642564 L 25.624120532301696,255.47554755475545 L 25.953162208478926,254.67546754675467 L 26.282203884656155,252.17521752175216 L 29.243578970251214,249.12491249124912 L 29.32583938929552,248.67486748674867 L 29.161318551206907,247.8247824782478 L 29.32583938929552,247.5247524752475 L 32.04043321775766,245.9245924592459 L 32.410605103457044,245.47454745474545 L 32.28721447489058,242.77427742774276 L 31.629131122536123,240.87408740874085 L 31.917042589191198,240.27402740274027 L 32.451735312979196,239.87398739873987 L 33.27433950342227,239.82398239823982 L 36.15345416997302,240.87408740874085 L 37.63414171277055,240.52405240524052 L 39.197089674612386,239.87398739873987 L 41.623772036419446,240.47404740474047 L 43.433501255394205,240.17401740174017 L 44.667407541058815,240.52405240524052 L 45.53114194102404,241.77417741774175 L 48.65703786470772,245.17451745174517 L 49.027209750407096,246.3246324632463 L 49.644162893239404,247.5247524752475 L 50.42563687416032,248.32483248324831 L 51.94745462648,249.47494749474947 L 52.44101714074585,250.07500750075005 L 53.67492342641046,253.87538753875387 L 53.67492342641046,254.27542754275427 L 52.97570986453385,256.025602560256 L 52.93457965501169,256.67566756675666 L 53.387011959755384,260.32603260326033 L 52.646668188356614,263.17631763176314 L 51.82406399791354,264.8264826482648 L 48.73929828375202,266.5266526652665 L 48.73929828375202,269.1269126912691 L 49.109470169451406,270.22702270227023 L 49.767553521805866,270.62706270627064 L 50.63128792177109,270.82708270827084 L 52.194235883612926,270.2770277027703 L 52.770058816923076,270.2770277027703 L 53.51040258832184,270.82708270827084 L 54.78543908350861,272.8272827282728 L 55.40239222634091,273.2273227322732 L 56.92420997866059,273.027302730273 L 58.7750694071575,273.77737773777375 L 59.63880380712273,273.67736773677365 L 60.33801736899934,273.3273327332733 L 61.57192365466395,273.4273427342734 L 62.84696014985071,274.4274427442744 L 63.50504350220517,275.9275927592759 L 65.52042376879069,277.3277327732773 L 65.84946544496792,277.977797779778 L 65.84946544496792,278.8278827882788 L 65.15025188309131,280.02800280028003 L 65.06799146404701,282.1282128212821 L 64.03973622599317,283.67836783678365 L 63.58730392124947,284.67846784678466 L 63.2993924545944,284.9284928492849 L 61.16062155944241,285.67856785678566 L 60.255756949955035,286.2286228622862 L 56.75968914057198,286.4286428642864 L 55.155610969207984,286.27862786278627 L 54.37413698828707,285.9285928592859 L 53.14023070262246,284.37843784378435 L 52.68779839787877,284.1284128412841 L 51.3305014836477,284.37843784378435 L 49.603032683717245,284.028402840284 L 48.533647236141256,283.6283628362836 L 46.64165759812219,283.4283428342834 L 45.366621102935426,283.87838783878385 L 44.95531900771389,284.47844784478445 L 44.749667960103125,285.1285128512851 L 44.83192837914743,286.7286728672867 L 44.62627733153666,287.3287328732873 L 43.515761674438515,287.5787578757876 L 43.02219916017267,287.8787878787879 L 37.75753234133701,293.4293429342934 L 36.81153752232748,294.8294829482948 L 36.72927710328317,295.77957795779577 L 34.79615725574195,297.6297629762976 z" /><path fill-rule="evenodd" fill="#D2EBD9" stroke="#A6A6A6" stroke-width="0.25" opacity="1" d="M 166.74186940281072,177.26772677267726 L 165.9603954218898,178.16781678167817 L 164.76761934574733,178.96789678967895 L 161.84737446967443,178.31783178317832 L 160.32555671735474,178.41784178417842 L 159.09165043169014,178.96789678967895 L 158.18678582220278,179.46794679467945 L 157.94000456506984,179.9179917991799 L 158.02226498411414,180.46804680468045 L 158.51582749838,181.3181318131813 L 158.4335670793357,181.7181718171817 L 156.9940097460603,182.26822682268227 L 156.7472284889274,182.21822182218222 L 155.34880136517418,180.7180718071807 L 154.81410864138618,180.4180418041804 L 153.95037424142095,180.3180318031803 L 152.7575981652785,179.9179917991799 L 150.41317622251574,180.6180618061806 L 150.12526475586066,180.66806680668066 L 149.7139626606391,180.46804680468045 L 149.17926993685114,180.06800680068005 L 147.2461500893099,177.76777677767777 L 145.8477229655567,177.16771677167716 L 144.6960770989364,175.56755675567555 L 143.29764997518316,174.1174117411741 L 145.0251187751136,172.96729672967297 L 145.5598114989016,172.4172417241724 L 146.42354589886685,171.017101710171 L 147.4106709273985,170.26702670267025 L 149.05587930828466,169.56695669566955 L 149.59057203207266,169.46694669466945 L 150.9889991558259,169.56695669566955 L 151.8527335557911,169.36693669366935 L 153.25116067954434,168.16681668166817 L 154.6907180128197,167.96679667966797 L 155.1431503175634,168.21682168216822 L 155.96575450800648,169.1169116911691 L 156.08914513657294,169.5169516951695 L 155.34880136517418,170.5170517051705 L 155.26654094612985,170.96709670967095 L 157.73435351745908,172.66726672667266 L 158.10452540315845,173.41734173417342 L 158.18678582220278,174.2174217421742 L 158.39243686981354,174.4174417441744 L 158.63921812694645,174.56745674567455 L 162.71110886963967,173.86738673867384 L 163.36919222199413,173.9173917391739 L 166.74186940281072,177.26772677267726 z" /><path fill-rule="evenodd" fill="#D2EBD9" stroke="#A6A6A6" stroke-width="0.25" opacity="1" d="M 164.39744746004797,241.87418741874185 L 161.9707650982409,237.87378737873786 L 160.61346818400983,236.6236623662366 L 160.16103587926614,235.77357735773577 L 160.24329629831044,234.87348734873487 L 161.55946300301937,232.67326732673266 L 161.64172342206368,232.2232223222322 L 161.4360723744529,230.17301730173017 L 161.14816090779783,228.97289728972896 L 159.99651504117753,227.8227822782278 L 158.39243686981354,225.77257725772577 L 157.77548372698124,225.67256725672567 L 156.62383786036094,226.12261226122612 L 155.5955826223071,225.37253725372537 L 155.01975968899694,225.47254725472547 L 153.86811382237664,226.37263726372635 L 151.81160334626895,228.9228922892289 L 151.40030125104744,229.97299729972997 L 151.40030125104744,230.17301730173017 L 152.09951481292404,230.67306730673067 L 152.34629607005695,231.07310731073105 L 152.71646795575634,233.5233523352335 L 149.6317022415948,234.52345234523452 L 145.3130302417687,233.5233523352335 L 142.88634787996162,233.17331733173316 L 141.98148327047426,233.47334733473346 L 138.77332692774627,233.77337733773376 L 138.07411336586966,234.22342234223422 L 136.51116540402782,235.67356735673567 L 136.18212372785058,237.023702370237 L 136.30551435641706,237.57375737573756 L 136.71681645163858,238.1238123812381 L 141.65244159429702,241.17411741174115 L 141.89922285142995,241.6241624162416 L 141.52905096573056,242.1242124212421 L 141.24113949907547,242.1242124212421 L 139.39028007057857,241.3241324132413 L 138.81445713726842,241.47414741474145 L 137.62168106112597,242.77427742774276 L 135.35951953740752,243.72437243724372 L 135.11273828027458,244.02440244024402 L 134.78369660409737,245.12451245124512 L 133.38526948034414,246.6246624662466 L 132.76831633751183,246.97469746974696 L 132.3570142422903,246.77467746774676 L 131.90458193754662,245.8245824582458 L 129.18998810908448,244.17441744174417 L 127.87382140437556,243.92439243924392 L 126.14635260444511,243.92439243924392 L 125.81731092826789,243.77437743774377 L 125.57052967113496,243.07430743074306 L 125.24148799495774,242.67426742674266 L 122.65028479506205,241.57415741574155 L 121.95107123318544,240.9240924092409 L 121.04620662369807,238.3238323832383 L 120.18247222373283,236.87368736873685 L 119.60664929042268,234.87348734873487 L 119.44212845233407,233.6233623362336 L 119.56551908090053,231.023102310231 L 118.82517530950177,228.6228622862286 L 118.86630551902392,227.67276727672765 L 119.154216985679,226.5226522652265 L 121.70428997605252,220.92209220922092 L 122.19785249031837,220.62206220622062 L 122.73254521410637,220.52205220522052 L 125.03583694734697,220.92209220922092 L 125.77618071874572,220.02200220022002 L 127.54477972819834,220.32203220322032 L 128.07947245198633,220.07200720072007 L 128.40851412816355,219.021902190219 L 128.12060266150849,216.77167716771675 L 128.53190475673003,214.27142714271426 L 128.57303496625218,212.9212921292129 L 129.18998810908448,210.77107710771077 L 131.78119130898014,211.02110211021102 L 132.02797256611308,210.92109210921092 L 132.97396738512262,209.77097709770976 L 134.5780455564866,209.2209220922092 L 135.03047786123028,207.47074707470745 L 135.11273828027458,206.47064706470647 L 135.77082163262907,203.57035703570355 L 135.68856121358473,202.67026702670265 L 135.19499869931892,200.9200920092009 L 135.60630079454043,198.76987698769875 L 137.37489980399303,193.86938693869385 L 137.4160300135152,191.81918191819182 L 137.90959252778103,190.5190519051905 L 138.6499362991798,189.46894689468945 L 138.19750399443612,187.01870187018702 L 138.5676758801355,184.76847684768475 L 138.52654567061336,184.2184218421842 L 138.15637378491397,183.7183718371837 L 136.42890498498352,183.5183518351835 L 136.26438414689488,183.31833183318332 L 134.29013408983153,177.56775677567757 L 134.37239450887583,176.86768676867686 L 134.66030597553092,176.46764676467646 L 140.99435824194256,175.46754675467545 L 143.29764997518316,174.1174117411741 L 144.6960770989364,175.56755675567555 L 145.8477229655567,177.16771677167716 L 147.2461500893099,177.76777677767777 L 149.17926993685114,180.06800680068005 L 149.7139626606391,180.46804680468045 L 150.12526475586066,180.66806680668066 L 150.41317622251574,180.6180618061806 L 152.7575981652785,179.9179917991799 L 153.95037424142095,180.3180318031803 L 154.81410864138618,180.4180418041804 L 155.34880136517418,180.7180718071807 L 156.7472284889274,182.21822182218222 L 156.9940097460603,182.26822682268227 L 158.4335670793357,181.7181718171817 L 158.51582749838,181.3181318131813 L 158.02226498411414,180.46804680468045 L 157.94000456506984,179.9179917991799 L 158.18678582220278,179.46794679467945 L 159.09165043169014,178.96789678967895 L 160.32555671735474,178.41784178417842 L 161.84737446967443,178.31783178317832 L 164.76761934574733,178.96789678967895 L 165.9603954218898,178.16781678167817 L 166.74186940281072,177.26772677267726 L 167.44108296468733,177.96779677967797 L 168.46933820274117,180.16801680168015 L 169.08629134557347,181.86818681868186 L 168.8806402979627,183.66836683668365 L 169.00403092652917,184.06840684068405 L 169.57985385983932,184.7184718471847 L 170.77262993598177,185.46854685468546 L 172.2533174787793,185.36853685368536 L 174.35095816440915,186.06860686068606 L 174.84452067867497,185.96859685968596 L 176.6131196881276,184.8184818481848 L 177.27120304048205,185.46854685468546 L 178.7107603737574,187.46874687468747 L 178.66963016423526,188.46884688468845 L 179.1631926785011,190.46904690469046 L 178.95754163089035,191.26912691269126 L 178.5462395356688,191.4191419141914 L 176.9421613643048,190.56905690569056 L 176.11955717386175,190.66906690669066 L 175.33808319294081,191.96919691969197 L 174.67999984058636,194.16941694169415 L 172.45896852639007,196.16961696169616 L 172.3355778978236,197.06970697069707 L 172.82914041208946,200.77007700770076 L 173.11705187874452,201.52015201520152 L 173.69287481205467,201.82018201820182 L 174.5566092120199,201.87018701870187 L 175.21469256437436,201.52015201520152 L 175.91390612625096,200.77007700770076 L 176.90103115478266,200.07000700070006 L 177.4768540880928,199.86998699869986 L 184.6746407544697,202.47024702470245 L 185.291593897302,203.020302030203 L 184.9214220116026,203.67036703670365 L 184.55125012590324,205.07050705070506 L 184.5101199163811,210.52105210521052 L 184.0576876116374,211.27112711271127 L 182.41247923075125,213.2213221322132 L 182.24795839266264,213.67136713671366 L 182.2068281831405,218.07180718071805 L 182.04230734505185,218.9218921892189 L 176.6131196881276,232.17321732173215 L 176.2429478024282,232.67326732673266 L 165.59022353619042,240.67406740674065 L 164.39744746004797,241.87418741874185 z" /></g></g></g></svg>