<svg xmlns="http://www.w3.org/2000/svg" xmlns:xlink="http://www.w3.org/1999/xlink" width="500.0" height="210.16079936111296" viewBox="0.0 0.0 500.0 210.16079936111296" preserveAspectRatio="xMinYMin meet"><g transform="matrix(1,0,0,-1,0,210.16079936111296)"><g><g><g><path fill-rule="evenodd" fill="#D2EBD9" stroke="#A6A6A6" stroke-width="0.25" opacity="1" d="M 45.45454545454545,166.42196313044226 L 45.95459545954595,166.67418131149373 L 47.05470547054705,166.61112676623085 L 47.15471547154715,166.84232676552801 L 46.904690469046905,167.0104722195623 L 46.804680468046804,166.92639949254516 L 47.004700470047005,166.8633449472823 L 46.904690469046905,166.8213085837737 L 46.05460546054605,166.75825403851087 L 45.1045104510451,166.3799267669337 L 45.45454545454545,166.42196313044226 z" /><path fill-rule="evenodd" fill="#D2EBD9" stroke="#A6A6A6" stroke-width="0.25" opacity="1" d="M 499.64996499649965,0.987854542451476 L 499.4999499949995,0.525454543857168 L 499.74997499749975,0.0 L 500.0,0.0840727270171469 L 499.64996499649965,0.987854542451476 z" /><path fill-rule="evenodd" fill="#D2EBD9" stroke="#A6A6A6" stroke-width="0.25" opacity="1" d="M 458.2458245824582,96.74669061498179 L 458.1458145814581,96.68363606971893 L 458.2458245824582,96.55752697919321 L 458.995899589959,96.11614516235319 L 458.94589458945893,96.43141788866748 L 459.1959195919592,96.93585425077038 L 458.2458245824582,96.74669061498179 z" /><path fill-rule="evenodd" fill="#D2EBD9" stroke="#A6A6A6" stroke-width="0.25" opacity="1" d="M 242.9242924292429,112.46829056718826 L 243.57435743574356,112.00589056859395 L 243.62436243624362,112.17403602262824 L 243.52435243524351,112.5523632942054 L 243.27432743274326,112.93069056578257 L 242.4242424242424,113.43512692788545 L 242.3242324232423,113.07781783806257 L 242.4242424242424,113.24596329209687 L 242.67426742674266,113.22494511034257 L 243.07430743074306,112.99374511104543 L 243.57435743574356,112.17403602262824 L 243.47434743474346,112.0899632956111 L 243.17431743174316,112.4052360219254 L 243.07430743074306,112.44727238543398 L 242.47424742474246,112.61541783946826 L 242.5242524252425,112.57338147595969 L 242.9242924292429,112.46829056718826 z" /><path fill-rule="evenodd" fill="#D2EBD9" stroke="#A6A6A6" stroke-width="0.25" opacity="1" d="M 93.85938593859386,115.38981783103411 L 93.65936593659366,115.38981783103411 L 94.4094409440944,114.75927237840551 L 94.7094709470947,114.7802905601598 L 94.2094209420942,115.30574510401696 L 93.85938593859386,115.38981783103411 z" /><path fill-rule="evenodd" fill="#D2EBD9" stroke="#A6A6A6" stroke-width="0.25" opacity="1" d="M 83.45834583458345,116.71396328155417 L 83.6083608360836,116.65090873629131 L 83.35833583358335,116.92414509909705 L 83.45834583458345,116.71396328155417 z" /><path fill-rule="evenodd" fill="#D2EBD9" stroke="#A6A6A6" stroke-width="0.25" opacity="1" d="M 78.4078407840784,124.86901780221743 L 77.9077907790779,125.58363598186317 L 78.35783578357835,124.911054165726 L 78.35783578357835,124.2594905313431 L 78.5078507850785,124.5957814394117 L 78.4078407840784,124.86901780221743 z" /><path fill-rule="evenodd" fill="#D2EBD9" stroke="#A6A6A6" stroke-width="0.25" opacity="1" d="M 71.55715571557155,130.54392687587483 L 71.25712571257125,130.54392687587483 L 71.55715571557155,129.95541778675482 L 71.5071507150715,129.61912687868622 L 71.15711571157115,129.1777450618462 L 71.007100710071,129.45098142465193 L 71.35713571357135,129.91338142324625 L 71.05710571057105,129.70319960570336 L 70.9070907090709,129.36690869763478 L 70.95709570957095,129.07265415307478 L 71.25712571257125,129.0306177895662 L 71.55715571557155,129.3038541523719 L 71.65716571657165,130.20763596780625 L 71.55715571557155,130.54392687587483 z" /><path fill-rule="evenodd" fill="#D2EBD9" stroke="#A6A6A6" stroke-width="0.25" opacity="1" d="M 89.00890089008901,131.8680723263949 L 88.80888088808881,132.0362177804292 L 89.5089508950895,130.67003596640055 L 89.7089708970897,130.54392687587483 L 89.45894589458945,131.34261778253773 L 89.00890089008901,131.8680723263949 z" /><path fill-rule="evenodd" fill="#D2EBD9" stroke="#A6A6A6" stroke-width="0.25" opacity="1" d="M 83.8083808380838,131.84705414464062 L 83.4083408340834,132.4986177790235 L 82.95829582958295,132.4986177790235 L 83.05830583058305,132.30945414323492 L 82.95829582958295,132.4986177790235 L 83.25832583258325,132.3514905067435 L 83.9083908390839,131.5738177818349 L 83.95839583958396,131.34261778253773 L 83.5083508350835,131.42669050955487 L 83.95839583958396,131.15345414674917 L 84.00840084008401,131.48974505481775 L 83.8083808380838,131.84705414464062 z" /><path fill-rule="evenodd" fill="#D2EBD9" stroke="#A6A6A6" stroke-width="0.25" opacity="1" d="M 67.75677567756776,133.54952686673784 L 67.45674567456746,134.2641450463836 L 67.1067106710671,134.43229050041788 L 67.50675067506751,133.7597086842807 L 67.60676067606761,132.83490868709208 L 67.9067906790679,132.75083596007494 L 67.75677567756776,133.54952686673784 z" /><path fill-rule="evenodd" fill="#D2EBD9" stroke="#A6A6A6" stroke-width="0.25" opacity="1" d="M 64.006400640064,139.91803593828672 L 63.85638563856385,140.71672684494962 L 64.006400640064,139.51869048495527 L 64.25642564256425,139.07730866811525 L 64.3064306430643,138.82509048706382 L 64.3064306430643,138.80407230530952 L 64.1064106410641,138.59389048776666 L 64.1064106410641,138.76203594180095 L 63.9063906390639,138.6779632147838 L 64.1064106410641,138.5098177607495 L 64.3064306430643,138.6989813965381 L 64.3064306430643,138.88814503232666 L 64.2064206420642,139.43461775793813 L 64.006400640064,139.91803593828672 z" /><path fill-rule="evenodd" fill="#D2EBD9" stroke="#A6A6A6" stroke-width="0.25" opacity="1" d="M 63.506350635063505,140.98996320775535 L 62.95629562956295,141.43134502459537 L 62.75627562756275,141.43134502459537 L 63.506350635063505,140.82181775372104 L 63.85638563856385,140.7587632084582 L 63.506350635063505,140.98996320775535 z" /><path fill-rule="evenodd" fill="#D2EBD9" stroke="#A6A6A6" stroke-width="0.25" opacity="1" d="M 52.955295529552956,150.80545408700723 L 53.15531553155315,151.37294499437297 L 53.2053205320532,151.58312681191586 L 53.2053205320532,151.79330862945872 L 53.05530553055305,151.91941771998444 L 52.755275527552755,151.87738135647587 L 53.005300530053,151.77229044770442 L 53.2053205320532,151.60414499367013 L 53.15531553155315,151.3309086308644 L 52.855285528552855,151.09970863156727 L 52.805280528052805,150.93156317753295 L 52.955295529552956,150.80545408700723 z" /><path fill-rule="evenodd" fill="#D2EBD9" stroke="#A6A6A6" stroke-width="0.25" opacity="1" d="M 55.7055705570557,154.88298134733887 L 55.5055505550555,154.92501771084744 L 55.355535553555356,154.69381771155028 L 55.7055705570557,154.73585407505885 L 56.85568556855685,154.00021771365883 L 56.8056805680568,154.25243589471026 L 55.7055705570557,154.88298134733887 z" /><path fill-rule="evenodd" fill="#D2EBD9" stroke="#A6A6A6" stroke-width="0.25" opacity="1" d="M 44.75447544754475,159.84327224135055 L 44.7044704470447,159.82225405959625 L 44.8044804480448,159.75919951433337 L 44.8044804480448,159.86429042310482 L 44.75447544754475,159.84327224135055 z" /><path fill-rule="evenodd" fill="#D2EBD9" stroke="#A6A6A6" stroke-width="0.25" opacity="1" d="M 44.654465446544656,159.9063267866134 L 44.554455445544555,159.94836315012196 L 44.554455445544555,159.86429042310482 L 44.7044704470447,159.82225405959625 L 44.654465446544656,159.9063267866134 z" /><path fill-rule="evenodd" fill="#D2EBD9" stroke="#A6A6A6" stroke-width="0.25" opacity="1" d="M 45.9045904590459,161.56676314520203 L 45.754575457545755,161.71389041748205 L 45.1045104510451,162.1342540525678 L 45.004500450045,162.32341768835636 L 44.8044804480448,162.32341768835636 L 45.004500450045,161.88203587151634 L 45.05450545054505,162.05018132555065 L 45.504550455045504,161.86101768976206 L 45.754575457545755,161.69287223572778 L 45.85458545854585,161.35658132765917 L 45.554555455545554,160.74705405678486 L 44.8044804480448,159.86429042310482 L 45.1045104510451,160.13752678591055 L 45.704570457045705,160.89418132906488 L 45.95459545954595,161.3145449641506 L 45.9045904590459,161.56676314520203 z" /><path fill-rule="evenodd" fill="#D2EBD9" stroke="#A6A6A6" stroke-width="0.25" opacity="1" d="M 44.7044704470447,168.88109039569383 L 44.604460446044605,169.63774493884816 L 44.454445444544454,170.0370903921796 L 44.25442544254425,170.12116311919675 L 44.554455445544555,168.96516312271098 L 44.7044704470447,168.88109039569383 z" /><path fill-rule="evenodd" fill="#D2EBD9" stroke="#A6A6A6" stroke-width="0.25" opacity="1" d="M 45.4045404540454,172.05483584059112 L 45.3045304530453,172.49621765743115 L 45.4045404540454,171.6134540237511 L 45.25452545254525,171.34021766094537 L 44.85448544854485,171.21410857041965 L 45.3045304530453,171.2771631156825 L 45.45454545454545,171.6134540237511 L 45.4045404540454,172.05483584059112 z" /><path fill-rule="evenodd" fill="#D2EBD9" stroke="#A6A6A6" stroke-width="0.25" opacity="1" d="M 44.7044704470447,173.42101765461976 L 44.1044104410441,174.19869037952836 L 44.05440544054405,174.05156310724837 L 44.604460446044605,173.29490856409404 L 45.25452545254525,172.62232674795686 L 44.7044704470447,173.42101765461976 z" /><path fill-rule="evenodd" fill="#D2EBD9" stroke="#A6A6A6" stroke-width="0.25" opacity="1" d="M 430.0930093009301,171.88669038655684 L 428.3428342834283,172.81149038374545 L 428.09280928092807,173.12676311005976 L 428.09280928092807,173.73629038093407 L 428.5428542854285,174.5980358328598 L 427.59275927592756,174.80821765040267 L 427.09270927092706,175.20756310373412 L 426.4426442644264,175.37570855776843 L 425.99259925992595,175.2495994672427 L 426.1426142614261,174.95534492268268 L 426.39263926392636,175.16552674022554 L 427.29272927292726,174.53498128759696 L 427.99279927992797,174.26174492479123 L 427.9427942794279,173.94647219847693 L 427.6427642764276,173.6732358356712 L 427.49274927492746,173.73629038093407 L 427.4427442744274,174.1146176525112 L 427.29272927292726,174.19869037952836 L 427.29272927292726,173.92545401672263 L 427.1427142714271,174.0095267437398 L 427.042704270427,173.7993449261969 L 427.2427242724272,173.10574492830546 L 426.79267926792676,173.65221765391692 L 426.7426742674267,173.33694492760262 L 426.4426442644264,173.39999947286546 L 427.042704270427,172.85352674725402 L 426.2426242624262,173.000654019534 L 426.09260926092605,173.2108358370769 L 425.6425642564256,173.2108358370769 L 425.4425442544254,173.44203583637403 L 425.8425842584258,174.0095267437398 L 425.5425542554255,174.0095267437398 L 425.09250925092505,173.73629038093407 L 425.042504250425,173.3789812911112 L 425.2425242524252,173.16879947356833 L 425.7425742574257,173.16879947356833 L 426.7426742674267,172.34909038515113 L 428.9428942894289,171.67650856901395 L 429.5429542954295,171.17207220691108 L 430.24302430243023,171.2981812974368 L 430.24302430243023,171.76058129603112 L 430.0930093009301,171.88669038655684 z" /><path fill-rule="evenodd" fill="#D2EBD9" stroke="#A6A6A6" stroke-width="0.25" opacity="1" d="M 41.7041704170417,188.28087215490046 L 41.95419541954195,188.00763579209473 L 42.9042904290429,188.63818124472334 L 43.404340434043405,188.5541085177062 L 43.454345434543455,188.80632669875763 L 42.7042704270427,188.7012357899862 L 42.004200420042004,188.17578124612905 L 41.7041704170417,188.28087215490046 z" /><path fill-rule="evenodd" fill="#D2EBD9" stroke="#A6A6A6" stroke-width="0.25" opacity="1" d="M 44.454445444544454,189.71010851419197 L 44.2044204420442,189.52094487840338 L 43.454345434543455,189.1636357885805 L 44.554455445544555,189.52094487840338 L 44.454445444544454,189.71010851419197 z" /><path fill-rule="evenodd" fill="#D2EBD9" stroke="#A6A6A6" stroke-width="0.25" opacity="1" d="M 403.04030403040304,199.18930848537528 L 402.5902590259026,199.25236303063815 L 402.2902290229023,199.84087211975816 L 401.8401840184018,199.9459630285296 L 401.4901490149015,199.54661757519816 L 401.4401440144014,199.021163031341 L 401.990199019902,198.74792666853526 L 401.6401640164016,199.37847212116387 L 401.8401840184018,199.60967212046103 L 402.14021402140213,199.6306903022153 L 402.3902390239024,199.1472721218667 L 402.94029402940293,198.8319993955524 L 403.04030403040304,198.3695993969581 L 402.04020402040203,198.47469030572952 L 402.14021402140213,198.2014539429238 L 402.74027402740273,198.0333084888895 L 403.34033403340334,198.2014539429238 L 403.4903490349035,198.47469030572952 L 403.04030403040304,199.18930848537528 z" /><path fill-rule="evenodd" fill="#D2EBD9" stroke="#A6A6A6" stroke-width="0.25" opacity="1" d="M 235.87358735873585,90.79854517851865 L 236.17361736173615,90.96669063255294 L 235.77357735773577,90.90363608729008 L 235.8235823582358,90.63039972448435 L 236.1236123612361,90.46225427045006 L 236.47364736473645,90.6934542697472 L 236.1236123612361,90.60938154273006 L 235.87358735873585,90.79854517851865 z" /><path fill-rule="evenodd" fill="#D2EBD9" stroke="#A6A6A6" stroke-width="0.25" opacity="1" d="M 0.2000200020002,137.79519958110376 L 0.45004500450045004,137.9002904898752 L 0.3000300030003,138.13149048917234 L 0.0,138.02639958040092 L 0.2000200020002,137.79519958110376 z" /><path fill-rule="evenodd" fill="#D2EBD9" stroke="#A6A6A6" stroke-width="0.25" opacity="1" d="M 48.7048704870487,175.37570855776843 L 48.9048904890489,174.55599946935124 L 48.35483548354835,174.66109037812268 L 48.3048304830483,174.85025401391127 L 48.25482548254825,174.5980358328598 L 48.85488548854885,174.42989037882552 L 49.054905490549054,174.64007219636838 L 48.6048604860486,175.66996310232844 L 48.3048304830483,175.5858903753113 L 48.25482548254825,174.89229037741984 L 48.4048404840484,174.99738128619126 L 48.35483548354835,175.50181764829415 L 48.7048704870487,175.37570855776843 z" /><path fill-rule="evenodd" fill="#D2EBD9" stroke="#A6A6A6" stroke-width="0.25" opacity="1" d="M 388.48884888488845,209.99265390707865 L 388.8388838883888,209.97163572532438 L 388.88888888888886,210.05570845234152 L 388.48884888488845,210.16079936111296 L 388.48884888488845,209.99265390707865 z" /></g><g><path fill-rule="evenodd" fill="#D2EBD9" stroke="#A6A6A6" stroke-width="0.25" opacity="1" d="M 446.79467946794676,76.38007249507795 L 446.3446344634463,76.48516340384938 L 446.69466946694666,76.1488724957808 L 447.29472947294727,76.27498158630652 L 447.044704470447,76.48516340384938 L 446.79467946794676,76.38007249507795 z" /><path fill-rule="evenodd" fill="#D2EBD9" stroke="#A6A6A6" stroke-width="0.25" opacity="1" d="M 206.37063706370637,88.42349064028424 L 206.22062206220622,88.4865451855471 L 206.17061706170617,88.4865451855471 L 206.42064206420642,88.31839973151281 L 206.37063706370637,88.42349064028424 z" /><path fill-rule="evenodd" fill="#D2EBD9" stroke="#A6A6A6" stroke-width="0.25" opacity="1" d="M 206.07060706070607,88.50756336730139 L 205.92059205920592,88.63367245782712 L 206.02060206020602,88.52858154905569 L 206.07060706070607,88.4865451855471 L 206.07060706070607,88.50756336730139 z" /><path fill-rule="evenodd" fill="#D2EBD9" stroke="#A6A6A6" stroke-width="0.25" opacity="1" d="M 206.42064206420642,88.40247245852996 L 206.27062706270627,88.59163609431855 L 206.07060706070607,88.69672700308998 L 205.97059705970597,88.73876336659855 L 205.87058705870587,88.8018179118614 L 206.42064206420642,88.40247245852996 z" /><path fill-rule="evenodd" fill="#D2EBD9" stroke="#A6A6A6" stroke-width="0.25" opacity="1" d="M 248.32483248324831,91.59723608518154 L 248.32483248324831,91.32399972237582 L 248.62486248624862,91.28196335886724 L 248.67486748674867,91.53418153991868 L 248.32483248324831,91.59723608518154 z" /><path fill-rule="evenodd" fill="#D2EBD9" stroke="#A6A6A6" stroke-width="0.25" opacity="1" d="M 250.47504750475045,108.62196330615379 L 250.47504750475045,108.43279967036521 L 250.57505750575055,108.87418148720523 L 250.47504750475045,108.62196330615379 z" /></g></g></g></g></svg>