<svg xmlns="http://www.w3.org/2000/svg" xmlns:xlink="http://www.w3.org/1999/xlink" width="500.0" height="395.6902450309135" viewBox="0.0 0.0 500.0 395.6902450309135" preserveAspectRatio="xMinYMin meet"><g transform="matrix(1,0,0,-1,0,395.6902450309135)"><g><g><path fill-rule="evenodd" fill="#D2EBD9" stroke="#A6A6A6" stroke-width="0.25" opacity="1" d="M 218.67186718671866,28.09681707890275 L 215.12151215121511,32.17283420443371 L 195.3195319531953,45.390210126058385 L 188.11881188118812,47.60629710692959 L 172.16721672167216,50.65341670562749 L 166.76667666766676,53.54224437712031 L 160.56605660566055,55.758331357991516 L 158.3158315831583,50.02024899680715 L 158.76587658765877,35.971840457355775 L 159.86598659865984,30.827352823190484 L 162.6162616261626,28.729984787723094 L 166.06660666066605,27.26578446107605 L 169.36693669366935,24.139518898775602 L 170.46704670467045,20.459231591257357 L 170.06700670067005,13.731824685041204 L 171.76717671767176,10.842997013548386 L 177.91779177917792,8.626910032677182 L 204.5204520452045,7.914596360254296 L 230.32303230323032,2.651389780685189 L 239.27392739273927,2.651389780685189 L 245.07450745074507,3.4824223985118903 L 246.37463746374635,6.569114979011066 L 242.024202420242,13.296521885227218 L 221.8221822182218,26.71176271585825 L 218.67186718671866,28.09681707890275 z" /><path fill-rule="evenodd" fill="#D2EBD9" stroke="#A6A6A6" stroke-width="0.25" opacity="1" d="M 500.0,57.341250630042374 L 498.999899989999,62.80232211861784 L 482.9482948294829,114.6033552964822 L 481.6481648164816,115.79054475052035 L 478.64786478647864,121.21204325729454 L 476.4476447644764,122.83453551114667 L 473.79737973797376,122.91368147474921 L 471.99719971997195,121.9639299115187 L 470.34703470347034,120.73716747567929 L 468.44684468446843,119.90613485785258 L 464.39643964396436,118.79809136741699 L 459.14591459145913,115.71139878691781 L 455.4455445544554,114.6033552964822 L 456.7456745674567,101.46512533846007 L 450.995099509951,87.02098698099599 L 440.8940894089409,77.76090923949846 L 429.4929492949295,80.13528814757474 L 427.5427542754275,78.43364993012007 L 423.74237423742375,76.41542785825523 L 421.74217421742173,74.83250858620437 L 417.2417241724172,76.61329276726158 L 404.99049904990494,78.43364993012007 L 398.3398339833983,80.13528814757474 L 388.58885888588856,84.36959720031079 L 383.4883488348835,85.63593261795148 L 377.38773877387735,85.43806770894513 L 382.5382538253825,79.85827727496584 L 397.78977897789775,70.71691847887213 L 400.9400940094009,68.18424764359077 L 424.59245924592454,56.03534223060041 L 439.5939593959396,52.90907666829997 L 445.3445344534453,50.02024899680715 L 447.69476947694767,44.04472874481516 L 450.7950795079508,39.01896005605368 L 478.7978797879788,19.667771955231924 L 480.8980898089809,16.89766322914292 L 481.6481648164816,12.069759449387801 L 482.9482948294829,8.666483014478453 L 486.0986098609861,4.669611852550035 L 489.99899989999,1.3850543630445018 L 493.29932993299326,0.0 L 497.6997699769977,2.9284006532940894 L 499.7999799979998,9.932818432119142 L 500.0,57.341250630042374 z" /><path fill-rule="evenodd" fill="#D2EBD9" stroke="#A6A6A6" stroke-width="0.25" opacity="1" d="M 96.25962596259626,217.09737816177534 L 95.25952595259525,221.01510336010122 L 92.9092909290929,223.82478506799148 L 90.4090409040904,226.27830993967032 L 88.70887088708871,229.12756462936187 L 88.3088308830883,233.084862809489 L 88.85888588858886,241.2764700423522 L 88.70887088708871,245.27334120428063 L 82.55825582558255,261.14210690659047 L 65.65656565656565,285.4399177325712 L 62.256225622562255,301.150391507676 L 70.75707570757075,373.5293752222015 L 69.006900690069,380.6129389646291 L 65.65656565656565,386.86547008923 L 61.106110611061105,392.840990341222 L 54.155415541554156,395.6902450309135 L 44.7044704470447,394.2260447042665 L 28.55285528552855,388.76497321569104 L 24.052405240524052,388.60668128848596 L 20.1020102010201,381.1669607098469 L 16.5016501650165,371.66944507754175 L 12.75127512751275,364.9420381713256 L 14.85148514851485,360.78687508219207 L 15.65156515651565,356.2359821750459 L 10.4010401040104,287.65600471344237 L 10.75107510751075,283.1051118062962 L 11.85118511851185,278.94994871716267 L 11.751175117511751,274.8343586098304 L 3.5003500350035,262.8041721422439 L 1.05010501050105,258.0949873078926 L 0.0,254.3355540367718 L 1.75017501750175,244.79846542266537 L 5.9005900590059,238.58550727986577 L 15.601560156015601,229.12756462936187 L 17.3017301730173,225.32855837643982 L 17.8017801780178,221.96485492333173 L 18.85188518851885,218.5220055066211 L 21.95219521952195,214.56470732649396 L 29.302930293029302,208.66833303810452 L 33.65336533653365,206.29395413002823 L 37.65376537653765,205.26505660319518 L 53.905390539053904,204.31530503996464 L 59.55595559555955,201.98049911368963 L 80.85808580858085,182.1940082130539 L 83.25832583258325,177.3265314514975 L 85.3085308530853,174.43770378000468 L 89.8089808980898,173.92325501658814 L 94.95949594959495,174.6751416708123 L 98.55985598559856,175.86233112485047 L 101.36013601360135,177.84098021491403 L 102.36023602360235,180.01749421398395 L 102.8102810281028,182.82717592187424 L 104.010401040104,186.74490112020013 L 108.31083108310831,193.6701729354226 L 108.5108510851085,196.91515744312687 L 99.6099609960996,208.78705198350832 L 97.2097209720972,213.17965296344946 L 96.25962596259626,217.09737816177534 z" /></g></g></g></svg>