<svg xmlns="http://www.w3.org/2000/svg" xmlns:xlink="http://www.w3.org/1999/xlink" width="491.10593539848924" height="500.0" viewBox="0.0 0.0 491.10593539848924 500.0" preserveAspectRatio="xMinYMin meet"><g transform="matrix(1,0,0,-1,0,500.0)"><g><g><path fill-rule="evenodd" fill="#D2EBD9" stroke="#A6A6A6" stroke-width="0.25" opacity="1" d="M 362.71800509229354,44.05440544054405 L 382.5606691487982,45.554555455545554 L 407.11842169397715,50.7050705070507 L 427.7469338319275,71.25712571257125 L 400.242250981327,59.955995599559955 L 355.3997948338302,63.656365636563656 L 362.71800509229354,44.05440544054405 z" /><path fill-rule="evenodd" fill="#D2EBD9" stroke="#A6A6A6" stroke-width="0.25" opacity="1" d="M 447.2457893527996,0.0 L 427.7469338319275,71.25712571257125 L 407.11842169397715,50.7050705070507 L 382.5606691487982,45.554555455545554 L 362.71800509229354,44.05440544054405 L 376.912386063407,5.75057505750575 L 447.2457893527996,0.0 z" /><path fill-rule="evenodd" fill="#D2EBD9" stroke="#A6A6A6" stroke-width="0.25" opacity="1" d="M 490.8112423679471,60.006000600060005 L 472.9331985150568,71.25712571257125 L 452.30468637710646,78.45784578457845 L 427.7469338319275,71.25712571257125 L 447.2457893527996,0.0 L 474.70135669830967,6.5006500650065 L 480.79167932951407,13.201320132013201 L 488.601044638881,32.45324532453245 L 491.10593539848924,46.2046204620462 L 490.8112423679471,60.006000600060005 z" /><path fill-rule="evenodd" fill="#D2EBD9" stroke="#A6A6A6" stroke-width="0.25" opacity="1" d="M 376.37211550741307,140.41404140414042 L 402.20687118494135,121.6121612161216 L 427.7469338319275,71.25712571257125 L 452.30468637710646,78.45784578457845 L 472.9331985150568,71.25712571257125 L 490.8112423679471,60.006000600060005 L 490.3692028221339,83.008300830083 L 488.601044638881,97.3097309730973 L 476.3712838713819,131.9131913191319 L 455.34984769270864,152.46524652465246 L 427.99251135737927,161.66616661666166 L 396.5094725944598,162.3162316231623 L 376.37211550741307,140.41404140414042 z" /><path fill-rule="evenodd" fill="#D2EBD9" stroke="#A6A6A6" stroke-width="0.25" opacity="1" d="M 355.3997948338302,63.656365636563656 L 400.242250981327,59.955995599559955 L 427.7469338319275,71.25712571257125 L 402.20687118494135,121.6121612161216 L 376.37211550741307,140.41404140414042 L 367.1384005504258,130.36303630363037 L 355.3997948338302,63.656365636563656 z" /><path fill-rule="evenodd" fill="#D2EBD9" stroke="#A6A6A6" stroke-width="0.25" opacity="1" d="M 6.728824197379041,443.79437943794375 L 24.950676585901846,438.49384938493847 L 30.8445371967448,446.7446744674467 L 39.685328113009234,442.64426442644265 L 37.72070790939492,431.2931293129313 L 80.94235238890992,422.04220422042204 L 79.96004228710277,431.2931293129313 L 70.13694126903117,434.39343934393435 L 65.22539075999538,443.6443644364436 L 64.24308065818822,462.19621962196214 L 64.24308065818822,477.64776477647763 L 58.643913077887404,490.89908990899085 L 52.111550900869794,486.2486248624862 L 33.6441209868952,478.2978297829783 L 26.473257243702943,476.5476547654765 L 22.003746280480367,474.79747974797476 L 17.927159357980656,471.89718971897184 L 12.033298747137701,466.49664966496647 L 6.728824197379041,443.79437943794375 z" /><path fill-rule="evenodd" fill="#D2EBD9" stroke="#A6A6A6" stroke-width="0.25" opacity="1" d="M 44.596878622045026,364.03640364036403 L 55.40228974192378,381.8881888188819 L 63.260770556381054,400.4400440044004 L 70.13694126903117,400.4400440044004 L 80.94235238890992,422.04220422042204 L 37.72070790939492,431.2931293129313 L 39.685328113009234,442.64426442644265 L 30.8445371967448,446.7446744674467 L 24.950676585901846,438.49384938493847 L 6.728824197379041,443.79437943794375 L 0.0,415.041504150415 L 44.596878622045026,364.03640364036403 z" /><path fill-rule="evenodd" fill="#D2EBD9" stroke="#A6A6A6" stroke-width="0.25" opacity="1" d="M 135.46056303920724,313.08130813081306 L 138.89864839553232,324.28242824282427 L 143.8101989045681,337.63376337633764 L 155.59792012625402,343.8343834383438 L 161.49178073709697,365.43654365436544 L 124.16399686842493,372.6372637263726 L 122.1993766648106,382.9382938293829 L 111.39396554493186,395.2895289528953 L 80.94235238890992,422.04220422042204 L 70.13694126903117,400.4400440044004 L 63.260770556381054,400.4400440044004 L 55.40228974192378,381.8881888188819 L 44.596878622045026,364.03640364036403 L 109.57669185658861,323.6323632363236 L 135.46056303920724,313.08130813081306 z" /><path fill-rule="evenodd" fill="#D2EBD9" stroke="#A6A6A6" stroke-width="0.25" opacity="1" d="M 207.85681754239488,303.030303030303 L 195.87263430034756,325.2825282528253 L 199.8018747075762,330.4330433043304 L 191.94339389311892,345.8845884588459 L 186.04953328227595,364.3864386438644 L 175.24412216239722,365.43654365436544 L 161.49178073709697,365.43654365436544 L 155.59792012625402,343.8343834383438 L 143.8101989045681,337.63376337633764 L 138.89864839553232,324.28242824282427 L 135.46056303920724,313.08130813081306 L 157.66077134004905,303.98039803980396 L 177.20874236601153,301.28012801280124 L 207.85681754239488,303.030303030303 z" /><path fill-rule="evenodd" fill="#D2EBD9" stroke="#A6A6A6" stroke-width="0.25" opacity="1" d="M 272.44370673621563,315.28152815281527 L 258.74048081600574,313.98139813981396 L 244.9881393907055,325.2825282528253 L 229.27117776179097,333.5333533353335 L 208.64266562384063,337.63376337633764 L 201.7664949111905,348.98489848984894 L 191.94339389311892,345.8845884588459 L 199.8018747075762,330.4330433043304 L 195.87263430034756,325.2825282528253 L 207.85681754239488,303.030303030303 L 224.8998978087491,303.98039803980396 L 238.84870125441077,298.979897989799 L 258.5931343007347,276.5276527652765 L 288.60270791094337,257.77577757775776 L 304.9090556009422,198.06980698069805 L 324.1132180912722,184.86848684868485 L 357.90468559343844,197.7197719771977 L 357.7573390781674,223.97239723972396 L 339.58460219473494,249.92499249924992 L 318.9560900567846,261.6761676167617 L 294.1036444810635,274.17741774177415 L 277.06056421470925,303.88038803880386 L 272.44370673621563,315.28152815281527 z" /><path fill-rule="evenodd" fill="#D2EBD9" stroke="#A6A6A6" stroke-width="0.25" opacity="1" d="M 238.50489271877825,382.1882188218822 L 226.32424745636948,375.73757375737574 L 210.60728582745494,375.73757375737574 L 195.87263430034756,377.78777877787775 L 186.04953328227595,364.3864386438644 L 191.94339389311892,345.8845884588459 L 201.7664949111905,348.98489848984894 L 208.64266562384063,337.63376337633764 L 229.27117776179097,333.5333533353335 L 244.9881393907055,325.2825282528253 L 258.74048081600574,313.98139813981396 L 272.44370673621563,315.28152815281527 L 250.78376899136774,368.9368936893689 L 238.50489271877825,382.1882188218822 z" /><path fill-rule="evenodd" fill="#D2EBD9" stroke="#A6A6A6" stroke-width="0.25" opacity="1" d="M 197.73902349378116,418.69186918691867 L 187.03184338408312,412.7912791279128 L 181.13798277324017,402.4902490249025 L 174.26181206059005,386.038603860386 L 175.24412216239722,365.43654365436544 L 186.04953328227595,364.3864386438644 L 195.87263430034756,377.78777877787775 L 210.60728582745494,375.73757375737574 L 226.32424745636948,375.73757375737574 L 238.50489271877825,382.1882188218822 L 213.7015626481475,409.09090909090907 L 197.73902349378116,418.69186918691867 z" /><path fill-rule="evenodd" fill="#D2EBD9" stroke="#A6A6A6" stroke-width="0.25" opacity="1" d="M 138.8004173853516,454.2454245424542 L 128.09323727565356,434.39343934393435 L 130.05785747926788,423.0923092309231 L 111.39396554493186,395.2895289528953 L 122.1993766648106,382.9382938293829 L 124.16399686842493,372.6372637263726 L 161.49178073709697,365.43654365436544 L 175.24412216239722,365.43654365436544 L 174.26181206059005,386.038603860386 L 181.13798277324017,402.4902490249025 L 187.03184338408312,412.7912791279128 L 197.73902349378116,418.69186918691867 L 138.8004173853516,454.2454245424542 z" /><path fill-rule="evenodd" fill="#D2EBD9" stroke="#A6A6A6" stroke-width="0.25" opacity="1" d="M 58.643913077887404,490.89908990899085 L 64.24308065818822,477.64776477647763 L 64.24308065818822,462.19621962196214 L 65.22539075999538,443.6443644364436 L 70.13694126903117,434.39343934393435 L 79.96004228710277,431.2931293129313 L 80.94235238890992,422.04220422042204 L 111.39396554493186,395.2895289528953 L 130.05785747926788,423.0923092309231 L 128.09323727565356,434.39343934393435 L 138.8004173853516,454.2454245424542 L 62.86784651565819,500.0 L 58.643913077887404,490.89908990899085 z" /></g></g></g></svg>