<svg xmlns="http://www.w3.org/2000/svg" xmlns:xlink="http://www.w3.org/1999/xlink" width="382.6895594932139" height="500.0" viewBox="0.0 0.0 382.6895594932139 500.0" preserveAspectRatio="xMinYMin meet"><g transform="matrix(1,0,0,-1,0,500.0)"><g><g><path fill-rule="evenodd" fill="#D2EBD9" stroke="#A6A6A6" stroke-width="0.25" opacity="1" d="M 48.1088885171487,13.25132513251325 L 49.60152706302682,12.55125512551255 L 52.433713021872485,10.251025102510251 L 54.959716714897,7.200720072007201 L 56.72026474336863,3.6003600360036003 L 59.09317730348257,0.5000500050005 L 62.46118222751525,0.0 L 76.8134759378818,3.7503750375037503 L 88.98422100427265,9.000900090009 L 96.79186878271206,9.650965096509651 L 98.05487062922431,14.25142514251425 L 102.80069574945219,22.802280228022802 L 104.9822443934279,27.9027902790279 L 106.32179180639545,35.6035603560356 L 106.93415633803775,50.605060506050606 L 108.92434106587525,57.3057305730573 L 111.2207080595339,61.45614561456145 L 112.71334660541203,65.6065606560656 L 114.435621850656,68.5068506850685 L 117.42089894241225,68.85688568856885 L 118.87526470506273,67.05670567056706 L 123.46799869238004,59.755975597559754 L 128.25209659583555,56.05560556055605 L 128.44346051197377,57.355735573557354 L 131.88801100246175,60.956095609560954 L 132.38555718442112,65.00650065006501 L 135.17947036003915,66.55665566556655 L 140.5376600119093,67.15671567156716 L 142.6809358726574,71.007100710071 L 152.32567724602373,81.15811581158115 L 156.84186566688572,82.4082408240824 L 160.20987059091843,82.75827582758275 L 163.8457849975446,83.75837583758376 L 167.36688105448786,85.35853585358535 L 170.39043092947176,87.25872587258725 L 174.52389151805733,91.9091909190919 L 179.614171687334,102.1102110211021 L 183.51799557655372,106.76067606760675 L 189.64164089297677,110.46104610461046 L 185.316816388253,111.6111611161116 L 173.6436175038215,113.11131113111311 L 172.72507070635805,113.86138613861385 L 171.65343277598402,115.16151615161516 L 169.16570186618713,120.5120512051205 L 168.4385189848619,122.7122712271227 L 166.98415322221143,124.56245624562456 L 161.81732748647948,127.66276627662765 L 156.84186566688572,129.36293629362936 L 155.57886382037347,128.8128812881288 L 153.81831579190185,127.6127612761276 L 150.33549251818621,124.012401240124 L 147.57985212579584,120.66206620662065 L 145.47484904827542,117.21172117211721 L 142.98711813847854,113.96139613961395 L 140.99693341064105,113.2113211321132 L 136.13628994073025,114.86148614861486 L 134.03128686320983,110.9110911091109 L 132.99792171606342,109.96099609960996 L 131.5052831701853,109.36093609360935 L 127.10391309900622,105.16051605160516 L 125.99400238540454,101.9101910191019 L 125.72609290281103,101.3101310131013 L 125.0754555879411,100.51005100510051 L 124.27172714016056,100.0100010001 L 122.81736137751008,99.8099809980998 L 122.01363292972955,99.9099909990999 L 120.36790325094086,100.51005100510051 L 119.7938115025262,100.46004600460046 L 118.45426408955865,99.75997599759975 L 116.88507997722523,99.25992599259925 L 115.62207813071298,97.2097209720972 L 112.78989217186731,89.05890589058906 L 108.84779549941996,97.9097909790979 L 108.04406705163944,100.36003600360036 L 108.54161323359881,104.46044604460445 L 107.73788478581828,124.21242124212421 L 109.00088663233055,132.6132613261326 L 109.19225054846876,135.16351635163517 L 108.38852210068823,135.61356135613562 L 107.85270313550122,135.61356135613562 L 107.16379303740362,135.31353135313532 L 106.58970128898896,134.46344634463446 L 105.47979057538728,133.36333633363336 L 104.1019703791921,132.96329632963295 L 102.64760461654161,132.96329632963295 L 101.84387616876108,132.76327632763275 L 101.11669328743585,132.5132513251325 L 98.28450732859018,130.91309130913092 L 96.8301415659397,130.41304130413042 L 96.02641311815917,130.21302130213022 L 94.41895622259813,130.21302130213022 L 92.50531706121592,130.66306630663067 L 81.4827554916544,128.1128112811281 L 79.03329736508518,126.61266126612661 L 80.64075426064623,125.36253625362535 L 80.90866374323974,124.51245124512451 L 80.67902704387387,123.06230623062305 L 80.10493529545921,122.41224122412241 L 79.41602519736162,122.06220622062206 L 77.80856830180056,121.76217621762176 L 74.93810955972725,121.5121512151215 L 74.210926678402,121.012101210121 L 70.91946732082461,115.5115511551155 L 70.57501227177582,114.5114511451145 L 70.68983062145875,114.06140614061405 L 71.22564958664576,113.9113911391139 L 72.5651969996133,114.26142614261425 L 73.10101596480033,114.2114211421142 L 73.48374379707677,113.7113711371137 L 73.48374379707677,112.31123112311231 L 73.2541070977109,111.6111611161116 L 68.69964589362125,103.26032603260326 L 68.27864527811717,101.76017601760175 L 68.62310032716596,99.15991599159915 L 68.16382692843423,98.35983598359836 L 67.62800796324721,98.20982098209821 L 67.05391621483255,98.55985598559856 L 66.21191498382439,100.0100010001 L 64.03036633984867,102.010201020102 L 62.843910059791696,104.66046604660465 L 61.96363604555588,105.1105110511051 L 60.66236141581598,105.21052105210521 L 58.05981215633618,104.5104510451045 L 56.835083093051566,103.8103810381038 L 56.18444577818161,103.06030603060306 L 55.839990729132815,99.75997599759975 L 54.730080015531136,96.8096809680968 L 53.964624350978255,95.90959095909591 L 53.00780477028715,95.45954595459546 L 50.596619426945566,95.35953595359535 L 50.099073244986194,95.009500950095 L 50.90280169276672,94.3094309430943 L 52.28062188896191,93.60936093609361 L 52.969531987059504,93.45934593459346 L 55.801717945905175,93.35933593359336 L 56.49062804400277,93.45934593459346 L 57.141265358872715,93.3093309330933 L 59.8969057512631,91.75917591759175 L 61.198180381003,90.7090709070907 L 61.810544912645305,88.75887588758876 L 60.70063419904363,83.9083908390839 L 64.68100365471861,79.65796579657966 L 69.57991990785706,78.05780578057805 L 76.31592975592244,76.8076807680768 L 77.96165943471114,76.7076707670767 L 78.99502458185752,76.90769076907691 L 80.14320807868685,77.75777577757775 L 84.0853047511342,78.5078507850785 L 81.63584662456498,75.1075107510751 L 81.44448270842675,73.4073407340734 L 81.63584662456498,72.15721572157216 L 81.67411940779262,67.2067206720672 L 81.21484600906089,65.6065606560656 L 80.37284477805272,64.15641564156415 L 79.18638849799575,62.95629562956295 L 72.14419638410922,54.055405540554055 L 70.7281034046864,52.5052505250525 L 69.50337434140178,51.605160516051605 L 66.82427951546669,50.555055505550555 L 65.40818653604386,49.65496549654965 L 64.94891313731212,48.9048904890489 L 64.87236757085684,48.25482548254825 L 65.33164096958856,47.7047704770477 L 67.32182569742606,46.704670467046704 L 67.85764466261308,46.2046204620462 L 68.20209971166187,45.1045104510451 L 67.85764466261308,44.654465446544656 L 64.60445808826333,42.75427542754275 L 63.87727520693809,42.6042604260426 L 61.50436264682415,42.6042604260426 L 60.43272471645012,42.3042304230423 L 60.20308801708425,41.55415541554155 L 60.011724100946026,38.453845384538454 L 59.5524507022143,37.303730373037304 L 58.940086170571995,36.303630363036305 L 57.75362989051502,35.15351535153515 L 56.79681030982392,34.6034603460346 L 56.18444577818161,34.6034603460346 L 54.232533833571765,35.053505350535055 L 52.85471363737657,34.903490349034904 L 52.165803539278976,33.803380338033804 L 49.027435314612156,25.5025502550255 L 48.87434418170158,23.402340234023402 L 48.453343566197496,21.3021302130213 L 48.68298026556336,18.9018901890189 L 48.491616349425136,15.45154515451545 L 48.1088885171487,13.25132513251325 z" /><path fill-rule="evenodd" fill="#D2EBD9" stroke="#A6A6A6" stroke-width="0.25" opacity="1" d="M 48.1088885171487,13.25132513251325 L 48.491616349425136,15.45154515451545 L 48.68298026556336,18.9018901890189 L 48.453343566197496,21.3021302130213 L 48.87434418170158,23.402340234023402 L 49.027435314612156,25.5025502550255 L 52.165803539278976,33.803380338033804 L 52.85471363737657,34.903490349034904 L 54.232533833571765,35.053505350535055 L 56.18444577818161,34.6034603460346 L 56.79681030982392,34.6034603460346 L 57.75362989051502,35.15351535153515 L 58.940086170571995,36.303630363036305 L 59.5524507022143,37.303730373037304 L 60.011724100946026,38.453845384538454 L 60.20308801708425,41.55415541554155 L 60.43272471645012,42.3042304230423 L 61.50436264682415,42.6042604260426 L 63.87727520693809,42.6042604260426 L 64.60445808826333,42.75427542754275 L 67.85764466261308,44.654465446544656 L 68.20209971166187,45.1045104510451 L 67.85764466261308,46.2046204620462 L 67.32182569742606,46.704670467046704 L 65.33164096958856,47.7047704770477 L 64.87236757085684,48.25482548254825 L 64.94891313731212,48.9048904890489 L 65.40818653604386,49.65496549654965 L 66.82427951546669,50.555055505550555 L 69.50337434140178,51.605160516051605 L 70.7281034046864,52.5052505250525 L 72.14419638410922,54.055405540554055 L 79.18638849799575,62.95629562956295 L 80.37284477805272,64.15641564156415 L 81.21484600906089,65.6065606560656 L 81.67411940779262,67.2067206720672 L 81.63584662456498,72.15721572157216 L 81.44448270842675,73.4073407340734 L 81.63584662456498,75.1075107510751 L 84.0853047511342,78.5078507850785 L 80.14320807868685,77.75777577757775 L 78.99502458185752,76.90769076907691 L 77.96165943471114,76.7076707670767 L 76.31592975592244,76.8076807680768 L 69.57991990785706,78.05780578057805 L 64.68100365471861,79.65796579657966 L 60.70063419904363,83.9083908390839 L 61.810544912645305,88.75887588758876 L 61.198180381003,90.7090709070907 L 59.8969057512631,91.75917591759175 L 57.141265358872715,93.3093309330933 L 56.49062804400277,93.45934593459346 L 55.801717945905175,93.35933593359336 L 52.969531987059504,93.45934593459346 L 52.28062188896191,93.60936093609361 L 50.90280169276672,94.3094309430943 L 50.099073244986194,95.009500950095 L 50.596619426945566,95.35953595359535 L 53.00780477028715,95.45954595459546 L 53.964624350978255,95.90959095909591 L 54.730080015531136,96.8096809680968 L 55.839990729132815,99.75997599759975 L 56.18444577818161,103.06030603060306 L 56.835083093051566,103.8103810381038 L 58.05981215633618,104.5104510451045 L 60.66236141581598,105.21052105210521 L 61.96363604555588,105.1105110511051 L 62.843910059791696,104.66046604660465 L 64.03036633984867,102.010201020102 L 66.21191498382439,100.0100010001 L 67.05391621483255,98.55985598559856 L 67.62800796324721,98.20982098209821 L 68.16382692843423,98.35983598359836 L 68.62310032716596,99.15991599159915 L 68.27864527811717,101.76017601760175 L 68.69964589362125,103.26032603260326 L 73.2541070977109,111.6111611161116 L 73.48374379707677,112.31123112311231 L 73.48374379707677,113.7113711371137 L 73.10101596480033,114.2114211421142 L 72.5651969996133,114.26142614261425 L 71.22564958664576,113.9113911391139 L 70.68983062145875,114.06140614061405 L 70.57501227177582,114.5114511451145 L 70.91946732082461,115.5115511551155 L 74.210926678402,121.012101210121 L 74.93810955972725,121.5121512151215 L 77.80856830180056,121.76217621762176 L 79.41602519736162,122.06220622062206 L 80.10493529545921,122.41224122412241 L 80.67902704387387,123.06230623062305 L 80.90866374323974,124.51245124512451 L 80.64075426064623,125.36253625362535 L 79.03329736508518,126.61266126612661 L 81.4827554916544,128.1128112811281 L 92.50531706121592,130.66306630663067 L 94.41895622259813,130.21302130213022 L 96.02641311815917,130.21302130213022 L 96.8301415659397,130.41304130413042 L 98.28450732859018,130.91309130913092 L 101.11669328743585,132.5132513251325 L 101.84387616876108,132.76327632763275 L 102.64760461654161,132.96329632963295 L 104.1019703791921,132.96329632963295 L 105.47979057538728,133.36333633363336 L 106.58970128898896,134.46344634463446 L 107.16379303740362,135.31353135313532 L 107.85270313550122,135.61356135613562 L 108.38852210068823,135.61356135613562 L 109.19225054846876,135.16351635163517 L 109.00088663233055,132.6132613261326 L 107.73788478581828,124.21242124212421 L 108.54161323359881,104.46044604460445 L 108.04406705163944,100.36003600360036 L 108.84779549941996,97.9097909790979 L 112.78989217186731,89.05890589058906 L 115.62207813071298,97.2097209720972 L 116.88507997722523,99.25992599259925 L 118.45426408955865,99.75997599759975 L 119.7938115025262,100.46004600460046 L 120.36790325094086,100.51005100510051 L 122.01363292972955,99.9099909990999 L 122.81736137751008,99.8099809980998 L 124.27172714016056,100.0100010001 L 125.0754555879411,100.51005100510051 L 125.72609290281103,101.3101310131013 L 125.99400238540454,101.9101910191019 L 127.10391309900622,105.16051605160516 L 131.5052831701853,109.36093609360935 L 132.99792171606342,109.96099609960996 L 134.03128686320983,110.9110911091109 L 136.13628994073025,114.86148614861486 L 135.29428870972208,121.4121412141214 L 134.14610521289276,123.06230623062305 L 132.88310336638048,125.8125812581258 L 132.42382996764877,126.96269626962696 L 131.42873760373,130.96309630963097 L 130.73982750563243,138.2138213821382 L 132.23246605151056,146.8146814681468 L 131.77319265277882,148.76487648764876 L 129.5150984423478,149.66496649664967 L 128.7113699945673,150.16501650165014 L 127.5249137145103,151.3151315131513 L 127.18045866546152,152.3152315231523 L 127.25700423191681,153.16531653165316 L 127.75455041387617,155.015501550155 L 128.02245989646968,157.6157615761576 L 128.13727824615262,163.76637663766377 L 127.37182258159973,166.1166116611661 L 126.33845743445335,167.6167616761676 L 125.22854672085167,167.86678667866786 L 124.38654548984348,167.6167616761676 L 122.35808797877836,166.3166316631663 L 117.07644389336346,165.56655665566555 L 116.61717049463172,165.3165316531653 L 115.73689648039591,164.06640664066407 L 114.16771236806251,163.56635663566357 L 113.32571113705433,162.26622662266226 L 111.75652702472092,161.06610661066105 L 108.38852210068823,160.36603660366035 L 106.39833737285075,160.4160416041604 L 101.99696730167166,158.66586658665867 L 100.19814648997239,158.26582658265826 L 97.67214279694788,158.36583658365836 L 96.98323269885027,158.26582658265826 L 95.91159476847625,157.1157115711571 L 94.95477518778515,157.2157215721572 L 92.12258922893947,157.1157115711571 L 85.88412556283347,158.26582658265826 L 79.33947963090633,161.66616661666166 L 71.83801411828807,162.016201620162 L 70.57501227177582,162.5162516251625 L 66.86255229869433,152.4152415241524 L 66.32673333350732,148.46484648464846 L 63.456274591434,139.46394639463946 L 56.835083093051566,132.46324632463245 L 43.59270009628669,122.26222622262226 L 44.62606524343308,118.46184618461845 L 43.018608347872025,114.66146614661466 L 38.38760157732708,107.71077107710771 L 37.43078199663598,103.46034603460346 L 37.277690863725404,95.25952595259525 L 36.62705354885545,91.25912591259126 L 31.842955645399933,77.95779577957795 L 28.01567732263552,72.25722572257226 L 22.58094210431005,68.2068206820682 L 27.862586189724944,60.45604560456045 L 26.75267547612326,51.4051405140514 L 19.09811883059443,34.8034803480348 L 18.17957203313097,36.75367536753675 L 17.3375708021228,37.15371537153715 L 15.806659473017035,36.85368536853685 L 17.3375708021228,34.8034803480348 L 15.615295556878813,32.2032203220322 L 14.046111444545403,28.752875287528752 L 12.209017849618485,25.752575257525752 L 6.582918715154794,23.352335233523352 L 3.865551105992059,20.7020702070207 L 1.5691841123334103,17.25172517251725 L 0.0,13.85138513851385 L 0.19136391613822076,12.15121512151215 L 0.5740917484146623,11.8011801180118 L 1.722275245243987,12.001200120012001 L 1.4160929794228336,10.15101510151015 L 21.777213656529522,8.6008600860086 L 22.887124370131204,9.1009100910091 L 25.71931032897687,11.3011301130113 L 27.365040007765568,11.9011901190119 L 28.895951336871335,11.8011801180118 L 32.493592960269886,10.851085108510851 L 34.29241377196916,10.75107510751075 L 43.70751844596962,13.85138513851385 L 46.8076138874088,13.85138513851385 L 48.1088885171487,13.25132513251325 z" /><path fill-rule="evenodd" fill="#D2EBD9" stroke="#A6A6A6" stroke-width="0.25" opacity="1" d="M 189.64164089297677,110.46104610461046 L 200.6642024625383,117.06170617061706 L 208.54839580743297,123.76237623762376 L 212.60531082956325,133.46334633463346 L 209.1607603390753,139.66396639663967 L 212.0312190811486,143.7143714371437 L 218.04004604788872,145.66456645664564 L 224.0106002314012,145.56455645564554 L 228.83297091808438,147.8147814781478 L 234.07634222027164,151.26512651265125 L 237.98016610949134,155.9155915591559 L 238.8221673404995,161.56615661566155 L 236.5640731300685,165.016501650165 L 232.3157941918,168.21682168216822 L 227.6465146380274,170.5170517051705 L 224.0106002314012,171.56715671567156 L 218.07831883111638,174.86748674867485 L 212.4522196966527,175.96759675967596 L 209.08421477262,178.06780678067807 L 210.0410343533111,184.56845684568455 L 211.0743995004575,185.6185618561856 L 214.3658588580349,186.86868686868686 L 215.5905879213195,188.06880688068807 L 216.2794980194171,191.019101910191 L 215.55231513809187,196.56965696569657 L 215.89677018714065,199.1199119911991 L 217.81040934852285,201.82018201820182 L 222.4414161190678,206.12061206120612 L 224.0106002314012,209.6209620962096 L 227.49342350511682,214.87148714871486 L 235.91343581519854,222.07220722072205 L 239.31971352245887,228.6228622862286 L 241.8457172154834,231.9231923192319 L 245.9409050208413,233.6233623362336 L 250.64845735784155,234.87348734873487 L 255.08810021224826,236.77367736773675 L 264.19702262042756,242.37423742374236 L 265.8810250824439,241.4241424142414 L 269.1342116567937,237.3237323732373 L 271.16266916785884,236.023602360236 L 276.48258603650135,236.1236123612361 L 280.57777384185925,238.6238623862386 L 284.1371426820302,241.5241524152415 L 288.0026937880222,242.97429742974296 L 292.4040638592013,242.1242124212421 L 305.49335572305563,235.67356735673567 L 315.06155152996666,233.37333733373336 L 319.9604677831051,234.17341734173417 L 323.0222904413166,238.2238223822382 L 322.52474425935725,244.52445244524452 L 318.16164697140584,247.2247224722472 L 308.1724505489907,248.92489248924892 L 300.67098503637243,254.77547754775478 L 299.0635281408114,256.67566756675666 L 297.4177984620227,259.5759575957596 L 296.99679784651863,260.72607260726073 L 302.4315330648441,271.77717771777174 L 305.9143563385597,277.27772777277727 L 309.93299857746234,282.17821782178214 L 320.03701334956037,291.1291129112911 L 328.49529844286974,301.9301930193019 L 333.85348809473993,304.6304630463046 L 336.80049240326855,304.38043804380436 L 342.2735004048216,302.3302330233023 L 345.7563236785373,302.5302530253025 L 349.8897842671228,304.58045804580456 L 351.30587724654566,307.43074307430743 L 351.803423428505,311.031103110311 L 353.2577891911555,315.38153815381537 L 358.23325101074926,321.68216821682165 L 369.6385404125872,331.48314831483145 L 375.49427624641675,341.38413841384136 L 382.6895594932139,349.3349334933493 L 381.19692094733574,352.6352635263526 L 375.03500284768506,358.78587858785875 L 373.38927316889635,363.1863186318632 L 372.16454410561175,368.98689868986895 L 374.07818326699396,372.9372937293729 L 376.52764139356316,376.3376337633763 L 377.0634603587502,380.3380338033803 L 375.7621857290103,382.7382738273827 L 374.07818326699396,383.13831383138313 L 372.241089672067,382.988298829883 L 370.4039960771401,383.7883788378838 L 367.68662846797736,386.78867886788674 L 362.21362046642423,394.53945394539454 L 360.950618619912,396.88968896889685 L 360.2617085218144,399.38993899389936 L 360.49134522118027,401.8901890189019 L 362.21362046642423,404.99049904990494 L 362.90253056452184,407.09070907090705 L 363.78280457875763,412.14121412141213 L 364.0124412781235,415.59155915591555 L 362.59634829870066,418.29182918291826 L 358.53943327657043,421.1921192119212 L 356.7023396816435,420.5420542054205 L 354.8652460867166,421.74217421742173 L 351.1527861136351,426.3426342634263 L 346.86623439213895,428.2428242824282 L 343.42168390165097,431.0931093109311 L 340.9339529918541,435.09350935093505 L 339.2882233130654,440.2940294029403 L 335.80540003934976,441.54415441544154 L 328.83975349191854,442.0942094209421 L 321.37656076252796,441.74417441744174 L 315.7504616280643,440.04400440044003 L 315.06155152996666,439.99399939994 L 313.6454585505438,440.24402440244023 L 312.9182756692186,441.5941594159416 L 307.4835404508931,440.94409440944094 L 304.30689944299866,439.6439643964396 L 303.69453491135636,438.993899389939 L 292.3657910759737,430.1930193019302 L 291.1027892294614,428.39283928392837 L 290.8731525300955,427.2427242724272 L 290.8348797468679,425.89258925892585 L 290.33733356490853,424.49244924492444 L 285.4766900949977,418.2418241824182 L 286.5100552421441,414.4414441444144 L 286.2421457595506,413.64136413641364 L 279.27649921211935,399.2399239923992 L 278.0134973656071,397.68976897689765 L 275.9084942880867,395.58955895589554 L 270.7416685523547,391.4891489148915 L 268.52184712515134,389.18891889188916 L 267.6033003276879,387.88878887888785 L 267.10575414572855,386.88868886888685 L 264.27356818688287,376.88768876887684 L 256.5041931916711,368.78687868786875 L 247.01254295121535,356.6856685668567 L 246.17054172020718,348.78487848784874 L 245.36681327242664,346.03460346034603 L 240.08516918701176,337.03370337033704 L 239.090076823093,335.983598359836 L 237.75052941012547,335.4335433543354 L 231.8947935762959,334.9334933493349 L 229.82806328200311,329.8329832983298 L 229.40706266649903,327.63276327632764 L 228.48851586903558,308.980898089809 L 217.12149925042527,286.07860786078606 L 210.00276157008346,275.2275227522752 L 207.01748447832722,273.87738773877385 L 195.53564951003398,263.4263426342634 L 192.7034635511883,259.8759875987599 L 191.4021889214484,256.67566756675666 L 187.0773644167246,249.12491249124912 L 170.54352206238235,229.37293729372936 L 178.96353437246404,223.3223322332233 L 180.07344508606573,221.07210721072107 L 178.42771540727702,218.3218321832183 L 177.20298634399242,217.2217221722172 L 175.67207501488664,216.8216821682168 L 172.03616060826047,217.1217121712171 L 170.12252144687824,217.1217121712171 L 163.15687489944702,206.92069206920692 L 167.09897157189437,202.9202920292029 L 167.13724435512202,202.22022202220222 L 166.94588043898378,201.37013701370137 L 164.84087736146336,199.06990699069905 L 163.53960273172345,197.26972697269727 L 162.54451036780472,196.46964696469647 L 160.05677945800784,195.16951695169516 L 145.39830348182014,172.86728672867287 L 143.67602823657614,169.66696669666965 L 140.76729671127518,161.8161816181618 L 137.24620065433191,147.1147114711471 L 136.595563339462,145.21452145214522 L 135.90665324136438,143.86438643864386 L 134.03128686320983,141.2141214121412 L 132.9596489328358,140.06400640064007 L 130.73982750563243,138.2138213821382 L 131.42873760373,130.96309630963097 L 132.42382996764877,126.96269626962696 L 132.88310336638048,125.8125812581258 L 134.14610521289276,123.06230623062305 L 135.29428870972208,121.4121412141214 L 136.13628994073025,114.86148614861486 L 140.99693341064105,113.2113211321132 L 142.98711813847854,113.96139613961395 L 145.47484904827542,117.21172117211721 L 147.57985212579584,120.66206620662065 L 150.33549251818621,124.012401240124 L 153.81831579190185,127.6127612761276 L 155.57886382037347,128.8128812881288 L 156.84186566688572,129.36293629362936 L 161.81732748647948,127.66276627662765 L 166.98415322221143,124.56245624562456 L 168.4385189848619,122.7122712271227 L 169.16570186618713,120.5120512051205 L 171.65343277598402,115.16151615161516 L 172.72507070635805,113.86138613861385 L 173.6436175038215,113.11131113111311 L 185.316816388253,111.6111611161116 L 189.64164089297677,110.46104610461046 z" /><path fill-rule="evenodd" fill="#D2EBD9" stroke="#A6A6A6" stroke-width="0.25" opacity="1" d="M 312.9182756692186,441.5941594159416 L 310.3922719761941,446.39463946394636 L 314.64055091446255,450.94509450945094 L 321.6061974618938,454.7454745474547 L 326.58165928148753,458.64586458645863 L 327.7298427783169,463.49634963496345 L 327.4236605124957,468.04680468046803 L 327.95947947768275,471.7471747174717 L 331.71021223399185,474.09740974097406 L 335.46094499030096,473.047304730473 L 338.1783125994637,470.84708470847085 L 339.977133411163,472.2472247224722 L 341.0104985583094,481.99819981998195 L 334.84858045865866,479.99799979998 L 328.5335712260974,479.8979897989799 L 322.52474425935725,481.9481948194819 L 317.3961913068529,486.5986598659866 L 311.3873643401128,497.4997499749975 L 307.598358800576,500.0 L 302.31671471516114,496.2996299629963 L 301.47471348415297,493.9493949394939 L 301.35989513447004,487.84878487848783 L 300.44134833700656,485.048504850485 L 298.1067085601203,482.49824982498245 L 295.5807048670958,481.3481348134813 L 280.1950460095828,480.4980498049805 L 278.66413468047705,481.04810481048105 L 275.6788575887208,483.29832983298326 L 274.3775829589809,483.8483848384838 L 272.8083988466475,483.4483448344834 L 269.7848489716636,481.59815981598155 L 268.67493825806196,481.2481248124812 L 251.2225491062562,482.49824982498245 L 244.48653925819085,481.5481548154815 L 238.66907620758892,481.69816981698165 L 233.15779542280816,483.3483348334833 L 228.71815256840145,486.9486948694869 L 226.8427861902469,487.84878487848783 L 224.6229647630435,488.44884488448844 L 221.36977818869377,488.34883488348834 L 224.0871457978565,484.8484848484848 L 225.69460269341755,479.34793479347934 L 226.38351279151516,472.8472847284728 L 226.1538760921493,458.3458345834583 L 224.73778311272645,453.99539953995395 L 222.13523385324666,451.24512451245124 L 218.04004604788872,448.2448244824482 L 204.45320800207506,435.2435243524352 L 184.24517845787895,429.9429942994299 L 179.5376261208787,431.24312431243123 L 179.5376261208787,429.2929292929293 L 184.16863289142367,421.84218421842183 L 179.72899003701693,415.8415841584158 L 165.60633302601624,408.040804080408 L 162.20005531875591,401.6901690169017 L 158.3727769959915,391.9391939193919 L 154.20104362417828,385.4885488548855 L 149.83794633622685,389.08890889088906 L 143.86739215271436,383.8883888388839 L 140.76729671127518,375.73757375737574 L 139.5808404312182,366.0866086608661 L 139.42774929830765,356.43564356435644 L 138.7005664169824,355.03550355035503 L 145.58966739795835,354.2854285428543 L 162.4679648013494,345.6845684568457 L 167.09897157189437,345.034503450345 L 167.9792455861302,345.034503450345 L 171.65343277598402,345.8845884588459 L 177.93016922531766,345.6845684568457 L 179.07835272214697,345.7845784578458 L 180.9154463170739,346.53465346534654 L 184.09208732496836,347.2847284728473 L 187.4983650322287,347.63476347634764 L 189.4120041936109,347.4847484748475 L 190.78982438980609,347.0847084708471 L 193.96646539770055,344.6344634463446 L 195.95665012553806,343.7343734373437 L 201.00865751158707,340.5340534053405 L 202.46302327423757,340.08400840084005 L 204.30011686916447,340.1340134013401 L 205.8693009814979,339.4339433943394 L 207.74466735965245,338.88388838883884 L 209.12248755584764,338.98389838983894 L 209.73485208748994,339.3339333933393 L 210.19412548622168,339.88398839883985 L 210.80649001786398,341.38413841384136 L 211.41885454950628,342.28422842284226 L 212.06949186437623,342.4342434243424 L 212.7966747457015,342.38423842384236 L 214.5572227741731,341.6341634163416 L 215.97331575359595,340.3340334033403 L 224.46987363013295,336.13361336133613 L 227.87615133739328,335.73357335733573 L 229.44533544972668,336.23362336233623 L 231.8947935762959,334.9334933493349 L 237.75052941012547,335.4335433543354 L 239.090076823093,335.983598359836 L 240.08516918701176,337.03370337033704 L 245.36681327242664,346.03460346034603 L 246.17054172020718,348.78487848784874 L 247.01254295121535,356.6856685668567 L 256.5041931916711,368.78687868786875 L 264.27356818688287,376.88768876887684 L 267.10575414572855,386.88868886888685 L 267.6033003276879,387.88878887888785 L 268.52184712515134,389.18891889188916 L 270.7416685523547,391.4891489148915 L 275.9084942880867,395.58955895589554 L 278.0134973656071,397.68976897689765 L 279.27649921211935,399.2399239923992 L 286.2421457595506,413.64136413641364 L 286.5100552421441,414.4414441444144 L 285.4766900949977,418.2418241824182 L 290.33733356490853,424.49244924492444 L 290.8348797468679,425.89258925892585 L 290.8731525300955,427.2427242724272 L 291.1027892294614,428.39283928392837 L 292.3657910759737,430.1930193019302 L 303.69453491135636,438.993899389939 L 304.30689944299866,439.6439643964396 L 307.4835404508931,440.94409440944094 L 312.9182756692186,441.5941594159416 z" /><path fill-rule="evenodd" fill="#D2EBD9" stroke="#A6A6A6" stroke-width="0.25" opacity="1" d="M 114.09116680160722,259.4259425942594 L 114.05289401837958,258.025802580258 L 111.06761692662333,248.92489248924892 L 108.2737037510053,248.67486748674867 L 106.66624685544424,246.5246524652465 L 105.7477000579808,245.9245924592459 L 102.3796951339481,245.8245824582458 L 97.51905166403729,246.8246824682468 L 97.09805104853321,234.12341234123411 L 96.06468590138682,228.07280728072806 L 86.03721669574405,203.4203420342034 L 86.19030782865462,199.76997699769976 L 81.90375610715849,197.01970197019702 L 78.91847901540224,184.46844684468445 L 74.97638234295489,181.018101810181 L 76.58383923851595,178.9178917891789 L 70.57501227177582,162.5162516251625 L 71.83801411828807,162.016201620162 L 79.33947963090633,161.66616661666166 L 85.88412556283347,158.26582658265826 L 92.12258922893947,157.1157115711571 L 94.95477518778515,157.2157215721572 L 95.91159476847625,157.1157115711571 L 96.98323269885027,158.26582658265826 L 97.67214279694788,158.36583658365836 L 100.19814648997239,158.26582658265826 L 101.99696730167166,158.66586658665867 L 106.39833737285075,160.4160416041604 L 108.38852210068823,160.36603660366035 L 111.75652702472092,161.06610661066105 L 113.32571113705433,162.26622662266226 L 114.16771236806251,163.56635663566357 L 115.73689648039591,164.06640664066407 L 116.61717049463172,165.3165316531653 L 117.07644389336346,165.56655665566555 L 122.35808797877836,166.3166316631663 L 124.38654548984348,167.6167616761676 L 125.22854672085167,167.86678667866786 L 126.33845743445335,167.6167616761676 L 127.37182258159973,166.1166116611661 L 128.13727824615262,163.76637663766377 L 128.02245989646968,157.6157615761576 L 127.75455041387617,155.015501550155 L 127.25700423191681,153.16531653165316 L 127.18045866546152,152.3152315231523 L 127.5249137145103,151.3151315131513 L 128.7113699945673,150.16501650165014 L 129.5150984423478,149.66496649664967 L 131.77319265277882,148.76487648764876 L 132.23246605151056,146.8146814681468 L 130.73982750563243,138.2138213821382 L 132.9596489328358,140.06400640064007 L 134.03128686320983,141.2141214121412 L 135.90665324136438,143.86438643864386 L 136.595563339462,145.21452145214522 L 137.24620065433191,147.1147114711471 L 140.76729671127518,161.8161816181618 L 143.67602823657614,169.66696669666965 L 145.39830348182014,172.86728672867287 L 160.05677945800784,195.16951695169516 L 162.54451036780472,196.46964696469647 L 163.53960273172345,197.26972697269727 L 164.84087736146336,199.06990699069905 L 166.94588043898378,201.37013701370137 L 167.13724435512202,202.22022202220222 L 167.09897157189437,202.9202920292029 L 163.15687489944702,206.92069206920692 L 170.12252144687824,217.1217121712171 L 172.03616060826047,217.1217121712171 L 175.67207501488664,216.8216821682168 L 177.20298634399242,217.2217221722172 L 178.42771540727702,218.3218321832183 L 180.07344508606573,221.07210721072107 L 178.96353437246404,223.3223322332233 L 170.54352206238235,229.37293729372936 L 187.0773644167246,249.12491249124912 L 191.4021889214484,256.67566756675666 L 192.7034635511883,259.8759875987599 L 195.53564951003398,263.4263426342634 L 207.01748447832722,273.87738773877385 L 210.00276157008346,275.2275227522752 L 217.12149925042527,286.07860786078606 L 228.48851586903558,308.980898089809 L 229.40706266649903,327.63276327632764 L 229.82806328200311,329.8329832983298 L 231.8947935762959,334.9334933493349 L 229.44533544972668,336.23362336233623 L 227.87615133739328,335.73357335733573 L 224.46987363013295,336.13361336133613 L 215.97331575359595,340.3340334033403 L 214.5572227741731,341.6341634163416 L 212.7966747457015,342.38423842384236 L 212.06949186437623,342.4342434243424 L 211.41885454950628,342.28422842284226 L 210.80649001786398,341.38413841384136 L 210.19412548622168,339.88398839883985 L 209.73485208748994,339.3339333933393 L 209.12248755584764,338.98389838983894 L 207.74466735965245,338.88388838883884 L 205.8693009814979,339.4339433943394 L 204.30011686916447,340.1340134013401 L 202.46302327423757,340.08400840084005 L 201.00865751158707,340.5340534053405 L 195.95665012553806,343.7343734373437 L 193.96646539770055,344.6344634463446 L 190.78982438980609,347.0847084708471 L 189.4120041936109,347.4847484748475 L 187.4983650322287,347.63476347634764 L 184.09208732496836,347.2847284728473 L 180.9154463170739,346.53465346534654 L 179.07835272214697,345.7845784578458 L 177.93016922531766,345.6845684568457 L 171.65343277598402,345.8845884588459 L 167.9792455861302,345.034503450345 L 167.09897157189437,345.034503450345 L 162.4679648013494,345.6845684568457 L 145.58966739795835,354.2854285428543 L 138.7005664169824,355.03550355035503 L 138.6240208505271,354.83548354835483 L 135.02637922712856,352.2352235223522 L 134.1843779961204,349.98499849984995 L 134.1843779961204,339.4339433943394 L 135.02637922712856,335.1335133513351 L 138.6240208505271,328.3828382838284 L 139.42774929830765,324.78247824782477 L 138.31783858470595,315.2315231523152 L 134.14610521289276,301.78017801780175 L 134.1843779961204,294.27942794279426 L 135.02637922712856,293.1293129312931 L 136.36592664009612,292.2292229222922 L 137.5523829201531,290.77907790779074 L 137.667201269836,287.978797879788 L 136.63383612268962,286.7286728672867 L 132.38555718442112,286.67866786678667 L 130.73982750563243,286.07860786078606 L 128.86446112747785,283.028302830283 L 125.80263846926633,275.67756775677566 L 123.65936260851825,273.1273127312731 L 125.22854672085167,272.97729772977294 L 125.6112745531281,272.5272527252725 L 125.53472898667282,271.22712271227124 L 124.19518157370527,268.7268726872687 L 121.78399623036368,262.6262626262626 L 120.17653933480264,260.5760576057606 L 116.46407936172115,259.2759275927593 L 114.09116680160722,259.4259425942594 z" /><path fill-rule="evenodd" fill="#D2EBD9" stroke="#A6A6A6" stroke-width="0.25" opacity="1" d="M 97.51905166403729,246.8246824682468 L 102.3796951339481,245.8245824582458 L 105.7477000579808,245.9245924592459 L 106.66624685544424,246.5246524652465 L 108.2737037510053,248.67486748674867 L 111.06761692662333,248.92489248924892 L 114.05289401837958,258.025802580258 L 114.09116680160722,259.4259425942594 L 110.45525239498102,259.6759675967597 L 108.00579426841179,258.27582758275827 L 106.24524623994016,258.27582758275827 L 104.7143349108344,259.6759675967597 L 101.7673306023058,260.92609260926093 L 98.43759846150076,261.4761476147615 L 95.68195806911038,260.5760576057606 L 94.34241065614283,258.17581758175817 L 95.184411887151,255.6255625562556 L 96.75359599948442,252.67526752675266 L 97.59559723049259,249.07490749074907 L 97.51905166403729,246.8246824682468 z" /></g></g></g></svg>