<svg xmlns="http://www.w3.org/2000/svg" xmlns:xlink="http://www.w3.org/1999/xlink" width="238.93593902699646" height="500.0" viewBox="0.0 0.0 238.93593902699646 500.0" preserveAspectRatio="xMinYMin meet"><g transform="matrix(1,0,0,-1,0,500.0)"><g><g><path fill-rule="evenodd" fill="#D2EBD9" stroke="#A6A6A6" stroke-width="0.25" opacity="1" d="M 120.4118608617897,413.8913891389139 L 137.97540873506128,402.44024402440243 L 147.17536238296543,386.6386638663866 L 174.6318474256716,381.68816881688167 L 177.81001323131122,405.59055905590554 L 183.92738500757994,426.09260926092605 L 199.24471043175285,440.2940294029403 L 216.8560502720265,451.4951495149515 L 203.5459874619418,459.1959195919592 L 195.3735611045828,470.4970497049705 L 200.84574132632318,492.19921992199215 L 177.236509627286,500.0 L 159.935817572526,487.8987898789879 L 130.0658381962138,444.8444844484448 L 125.19105756199966,436.1436143614361 L 120.4118608617897,413.8913891389139 z" /><path fill-rule="evenodd" fill="#D2EBD9" stroke="#A6A6A6" stroke-width="0.25" opacity="1" d="M 63.44383619528709,343.18431843184317 L 84.40061372570773,336.13361336133613 L 105.83531092614936,331.38313831383135 L 115.01136859055246,315.6315631563156 L 118.07005447868683,290.3790379037904 L 119.59939742275401,263.57635763576354 L 119.59939742275401,224.1224122412241 L 130.32869401472536,211.52115211521152 L 144.11667649483107,206.77067706770677 L 144.11667649483107,233.57335733573356 L 148.7047053270326,268.27682768276827 L 160.96334486307114,301.4301430143014 L 168.61005958340706,332.98329832983296 L 174.6318474256716,381.68816881688167 L 147.17536238296543,386.6386638663866 L 137.97540873506128,402.44024402440243 L 120.4118608617897,413.8913891389139 L 117.52044685816269,406.09060906090605 L 111.47476303239709,400.0400040004 L 99.52677128187221,393.2893289328933 L 93.17043967059298,388.2388238823882 L 63.44383619528709,343.18431843184317 z" /><path fill-rule="evenodd" fill="#D2EBD9" stroke="#A6A6A6" stroke-width="0.25" opacity="1" d="M 14.218110183124603,244.52445244524452 L 27.743236844718762,244.62446244624462 L 46.11924815702602,239.87398739873987 L 66.02460241340047,225.67256725672567 L 82.8473747981395,197.31973197319732 L 107.36465387021654,190.96909690969096 L 116.54071153461965,200.47004700470046 L 119.59939742275401,224.1224122412241 L 119.59939742275401,263.57635763576354 L 118.07005447868683,290.3790379037904 L 115.01136859055246,315.6315631563156 L 105.83531092614936,331.38313831383135 L 84.40061372570773,336.13361336133613 L 63.44383619528709,343.18431843184317 L 52.49947575180631,314.88148814881487 L 23.27468793002246,272.47724772477244 L 16.607708533229577,254.97549754975495 L 14.218110183124603,244.52445244524452 z" /><path fill-rule="evenodd" fill="#D2EBD9" stroke="#A6A6A6" stroke-width="0.25" opacity="1" d="M 12.736559206059518,97.5097509750975 L 35.38995156505469,115.31153115311531 L 64.49525946933328,129.46294629462946 L 105.83531092614936,145.26452645264527 L 118.45239021470363,152.36523652365236 L 126.2185848525448,156.7156715671567 L 139.50475167912845,164.16641664166417 L 144.11667649483107,194.16941694169415 L 144.11667649483107,206.77067706770677 L 130.32869401472536,211.52115211521152 L 119.59939742275401,224.1224122412241 L 116.54071153461965,200.47004700470046 L 107.36465387021654,190.96909690969096 L 82.8473747981395,197.31973197319732 L 66.02460241340047,225.67256725672567 L 46.11924815702602,239.87398739873987 L 27.743236844718762,244.62446244624462 L 14.218110183124603,244.52445244524452 L 3.178165805639617,221.07210721072107 L 0.0,207.7207720772077 L 0.5018156535220448,194.9194919491949 L 3.584397525157463,186.96869686968697 L 7.049315132809677,180.6180618061806 L 9.008785779895756,172.5172517251725 L 10.346960855954544,147.7147714771477 L 9.008785779895756,134.96349634963497 L 0.5018156535220448,115.26152615261526 L 5.281012353731995,105.76057605760576 L 12.736559206059518,97.5097509750975 z" /><path fill-rule="evenodd" fill="#D2EBD9" stroke="#A6A6A6" stroke-width="0.25" opacity="1" d="M 72.8110617276986,52.3052305230523 L 81.24634390356916,70.7070707070707 L 94.55640671365387,97.2097209720972 L 109.58698033581416,131.76317631763175 L 113.45812966298422,142.36423642364235 L 119.21706168673721,146.1146114611461 L 118.45239021470363,152.36523652365236 L 105.83531092614936,145.26452645264527 L 64.49525946933328,129.46294629462946 L 35.38995156505469,115.31153115311531 L 12.736559206059518,97.5097509750975 L 16.607708533229577,90.9090909090909 L 37.08656639362922,66.2066206620662 L 72.8110617276986,52.3052305230523 z" /><path fill-rule="evenodd" fill="#D2EBD9" stroke="#A6A6A6" stroke-width="0.25" opacity="1" d="M 136.1593139889815,20.1020102010201 L 141.82266207873027,33.95339533953395 L 141.3925343757114,51.2051205120512 L 140.10215126665472,76.90769076907691 L 132.35985261231457,95.90959095909591 L 124.21132223845662,124.21242124212421 L 119.91004520826766,140.6140614061406 L 119.21706168673721,146.1146114611461 L 113.45812966298422,142.36423642364235 L 109.58698033581416,131.76317631763175 L 94.55640671365387,97.2097209720972 L 81.24634390356916,70.7070707070707 L 72.8110617276986,52.3052305230523 L 128.46480730164348,30.603060306030603 L 136.1593139889815,20.1020102010201 z" /><path fill-rule="evenodd" fill="#D2EBD9" stroke="#A6A6A6" stroke-width="0.25" opacity="1" d="M 196.09044060961426,74.60746074607461 L 182.39804206351278,93.2093209320932 L 167.08071663933987,110.56105610561056 L 142.58733355076387,137.36373637363735 L 126.2185848525448,156.7156715671567 L 118.45239021470363,152.36523652365236 L 119.21706168673721,146.1146114611461 L 119.91004520826766,140.6140614061406 L 124.21132223845662,124.21242124212421 L 132.35985261231457,95.90959095909591 L 140.10215126665472,76.90769076907691 L 141.3925343757114,51.2051205120512 L 141.82266207873027,33.95339533953395 L 136.1593139889815,20.1020102010201 L 150.83144785862603,0.0 L 156.9010276678927,0.0 L 160.67659306105853,2.05020502050205 L 168.2994117978934,9.350935093509351 L 179.31546019187735,57.405740574057404 L 185.0027042651272,69.5069506950695 L 190.21202866835603,73.007300730073 L 196.09044060961426,74.60746074607461 z" /><path fill-rule="evenodd" fill="#D2EBD9" stroke="#A6A6A6" stroke-width="0.25" opacity="1" d="M 227.657034814501,149.11491149114912 L 199.24471043175285,148.4148414841484 L 165.5513736952727,157.86578657865786 L 139.50475167912845,164.16641664166417 L 126.2185848525448,156.7156715671567 L 142.58733355076387,137.36373637363735 L 167.08071663933987,110.56105610561056 L 182.39804206351278,93.2093209320932 L 196.09044060961426,74.60746074607461 L 205.52935409252893,77.30773077307731 L 209.2093355516906,78.8078807880788 L 212.4830852913344,87.5087508750875 L 227.657034814501,149.11491149114912 z" /><path fill-rule="evenodd" fill="#D2EBD9" stroke="#A6A6A6" stroke-width="0.25" opacity="1" d="M 230.07052914810703,243.87438743874387 L 209.95011104022313,239.87398739873987 L 191.57409972791586,230.42304230423042 L 170.13940252747423,238.3238323832383 L 144.11667649483107,233.57335733573356 L 144.11667649483107,206.77067706770677 L 144.11667649483107,194.16941694169415 L 139.50475167912845,164.16641664166417 L 165.5513736952727,157.86578657865786 L 199.24471043175285,148.4148414841484 L 227.657034814501,149.11491149114912 L 224.12042925634563,204.67046704670466 L 230.07052914810703,243.87438743874387 z" /><path fill-rule="evenodd" fill="#D2EBD9" stroke="#A6A6A6" stroke-width="0.25" opacity="1" d="M 238.93593902699646,334.6834683468347 L 216.09137879999292,337.73377337733774 L 193.10344267198306,336.13361336133613 L 168.61005958340706,332.98329832983296 L 160.96334486307114,301.4301430143014 L 148.7047053270326,268.27682768276827 L 144.11667649483107,233.57335733573356 L 170.13940252747423,238.3238323832383 L 191.57409972791586,230.42304230423042 L 209.95011104022313,239.87398739873987 L 230.07052914810703,243.87438743874387 L 238.84035509299227,301.68016801680164 L 238.93593902699646,334.6834683468347 z" /><path fill-rule="evenodd" fill="#D2EBD9" stroke="#A6A6A6" stroke-width="0.25" opacity="1" d="M 216.8560502720265,451.4951495149515 L 199.24471043175285,440.2940294029403 L 183.92738500757994,426.09260926092605 L 177.81001323131122,405.59055905590554 L 174.6318474256716,381.68816881688167 L 168.61005958340706,332.98329832983296 L 193.10344267198306,336.13361336133613 L 216.09137879999292,337.73377337733774 L 238.93593902699646,334.6834683468347 L 234.25232626079074,371.78717871787177 L 230.09442513160806,424.8424842484248 L 226.701195474459,440.54405440544053 L 216.8560502720265,451.4951495149515 z" /></g></g></g></svg>