<svg xmlns="http://www.w3.org/2000/svg" xmlns:xlink="http://www.w3.org/1999/xlink" width="481.86567036807537" height="500.0" viewBox="0.0 0.0 481.86567036807537 500.0" preserveAspectRatio="xMinYMin meet"><g transform="matrix(1,0,0,-1,0,500.0)"><g><g><path fill-rule="evenodd" fill="#D2EBD9" stroke="#A6A6A6" stroke-width="0.25" opacity="1" d="M 72.09431371843591,378.48784878487845 L 70.84133767787486,376.98769876987694 L 69.54017025113839,375.93759375937594 L 67.94985450734936,375.23752375237524 L 63.46805559303483,374.23742374237423 L 58.697108361667745,371.48714871487147 L 41.203635179988446,357.6357635763576 L 31.420783786377154,345.0845084508451 L 30.408764676693224,344.0844084408441 L 20.722296055432786,339.68396839683965 L 18.698257836064933,339.28392839283924 L 14.601990011153799,332.8332833283328 L 12.14422931620712,330.4330433043304 L 12.43337763325967,329.18291829182914 L 14.120076149399548,326.43264326432643 L 14.505607238802948,324.9324932493249 L 14.264650307925823,323.9323932393239 L 13.638162287645297,323.28232823282326 L 12.770717336487646,322.9322932293229 L 10.168382483014692,322.68226822682266 L 9.782851393611292,321.88218821882185 L 10.216573869190118,319.48194819481944 L 9.975616938312992,317.73177317731773 L 9.252746145681616,315.48154815481547 L 8.096152877471413,313.5313531353135 L 4.8673300037179335,311.68116811681165 L 4.385416141963682,309.68096809680964 L 4.626373072840808,306.6306630663066 L 0.0,304.38043804380436 L 2.987865942876355,300.1300130013001 L 4.144459211086557,298.92989298929893 L 6.120306044278985,297.2797279727973 L 8.433492580699388,295.8295829582958 L 10.650296344768943,295.17951795179516 L 11.084018820347769,294.57945794579456 L 12.722525950312221,291.57915791579154 L 12.52976040561052,288.92889288928893 L 11.806889612979145,286.27862786278627 L 11.95146377150542,281.5281528152815 L 14.505607238802948,278.4778477847785 L 28.625683388202496,272.2272227222722 L 46.986601521039454,265.6265626562656 L 46.45649627310978,268.5768576857686 L 46.60107043163605,269.4769476947695 L 46.986601521039454,270.42704270427043 L 47.90223785837253,271.8271827182718 L 49.10702251275816,273.07730773077304 L 50.793721028898034,273.87738773877385 L 52.046697069459086,274.17741774177415 L 52.48041954503791,274.6274627462746 L 52.72137647591504,275.37753775377536 L 52.86595063444131,276.8276827682768 L 53.25148172384471,277.9277927792779 L 54.02254390265151,279.22792279227923 L 54.600840536756614,279.82798279827983 L 56.046582122019366,280.6780678067807 L 57.01040984552787,280.62806280628064 L 57.97423756903637,280.2780278027803 L 58.407960044615194,280.3780378037804 L 58.889873906369445,280.92809280928094 L 59.179022223421995,281.7281728172817 L 60.09465856075507,285.4285428542854 L 60.5283810363339,289.62896289628964 L 60.19104133310592,291.029102910291 L 59.80551024370252,291.67916791679164 L 58.600725589316895,293.029302930293 L 58.45615143079062,293.67936793679365 L 58.55253420314147,294.57945794579456 L 60.09465856075507,297.92979297929793 L 63.13071588980686,306.3306330633063 L 63.27529004833313,307.33073307330733 L 63.08252450363143,308.53085308530854 L 63.13071588980686,309.5809580958096 L 63.660821137736534,311.8311831183118 L 63.22709866215771,313.1313131313131 L 62.35965371100006,314.031403140314 L 62.69699341422803,314.58145814581457 L 64.28730915801705,315.48154815481547 L 65.82943351563065,315.7315731573157 L 66.60049569443746,316.3316331633163 L 69.82931856819094,320.68206820682065 L 70.84133767787486,321.3321332133213 L 72.0461223322605,322.5322532253225 L 75.03398827513685,323.68236823682366 L 77.00983510832928,325.6825682568257 L 79.13025610004799,326.83268326832683 L 79.70855273415309,327.03270327032703 L 80.86514600236329,326.982698269827 L 81.87716511204721,327.43274327432744 L 83.13014115260826,328.63286328632864 L 84.47949996552016,329.48294829482944 L 86.55172957106345,332.88328832883286 L 87.51555729457195,333.98339833983397 L 89.87693521716777,335.6835683568357 L 91.12991125772882,336.8836883688369 L 92.28650452593902,337.3837383738374 L 95.12979631028911,337.93379337933794 L 103.65967166333935,343.2343234323432 L 105.8764754274089,345.0845084508451 L 109.39444661821493,346.43464346434644 L 111.03295374817938,348.08480848084804 L 112.62326949196841,349.1349134913491 L 113.10518335372267,349.9349934993499 L 113.24975751224893,350.78507850785076 L 112.67146087814383,353.4853485348535 L 112.71965226431927,356.83568356835684 L 112.28592978874043,359.28592859285925 L 111.90039869933703,360.38603860386036 L 111.61125038228448,360.98609860986096 L 104.76807354537412,370.5370537053705 L 103.70786304951477,371.38713871387137 L 102.50307839512915,371.9371937193719 L 100.14170047253332,372.18721872187217 L 98.31042779786716,372.2372237223722 L 96.28638957849931,372.037203720372 L 95.56351878586793,372.3372337233723 L 94.59969106235943,373.8873887388739 L 92.2383131397636,373.53735373537353 L 83.7566291728888,375.0875087508751 L 82.50365313232774,375.987598759876 L 79.85312689267936,375.63756375637564 L 79.13025610004799,375.93759375937594 L 78.79291639682,376.78767876787674 L 77.87728005948694,377.3377337733773 L 73.63643807604952,378.28782878287825 L 72.09431371843591,378.48784878487845 z" /><path fill-rule="evenodd" fill="#D2EBD9" stroke="#A6A6A6" stroke-width="0.25" opacity="1" d="M 72.09431371843591,378.48784878487845 L 73.63643807604952,378.28782878287825 L 77.87728005948694,377.3377337733773 L 78.79291639682,376.78767876787674 L 79.13025610004799,375.93759375937594 L 79.85312689267936,375.63756375637564 L 82.50365313232774,375.987598759876 L 83.7566291728888,375.0875087508751 L 92.2383131397636,373.53735373537353 L 94.59969106235943,373.8873887388739 L 95.56351878586793,372.3372337233723 L 96.28638957849931,372.037203720372 L 98.31042779786716,372.2372237223722 L 100.14170047253332,372.18721872187217 L 102.50307839512915,371.9371937193719 L 103.70786304951477,371.38713871387137 L 104.76807354537412,370.5370537053705 L 111.61125038228448,360.98609860986096 L 111.90039869933703,360.38603860386036 L 112.28592978874043,359.28592859285925 L 112.71965226431927,356.83568356835684 L 112.67146087814383,353.4853485348535 L 113.24975751224893,350.78507850785076 L 113.10518335372267,349.9349934993499 L 112.62326949196841,349.1349134913491 L 111.03295374817938,348.08480848084804 L 109.39444661821493,346.43464346434644 L 105.8764754274089,345.0845084508451 L 103.65967166333935,343.2343234323432 L 95.12979631028911,337.93379337933794 L 92.28650452593902,337.3837383738374 L 91.12991125772882,336.8836883688369 L 89.87693521716777,335.6835683568357 L 87.51555729457195,333.98339833983397 L 86.55172957106345,332.88328832883286 L 84.47949996552016,329.48294829482944 L 83.13014115260826,328.63286328632864 L 81.87716511204721,327.43274327432744 L 80.86514600236329,326.982698269827 L 79.70855273415309,327.03270327032703 L 79.13025610004799,326.83268326832683 L 77.00983510832928,325.6825682568257 L 75.03398827513685,323.68236823682366 L 72.0461223322605,322.5322532253225 L 70.84133767787486,321.3321332133213 L 69.82931856819094,320.68206820682065 L 66.60049569443746,316.3316331633163 L 65.82943351563065,315.7315731573157 L 64.28730915801705,315.48154815481547 L 62.69699341422803,314.58145814581457 L 62.35965371100006,314.031403140314 L 63.22709866215771,313.1313131313131 L 64.14273499949078,313.48134813481346 L 64.86560579212215,313.48134813481346 L 71.41963431197996,311.18111811181114 L 72.8171845110673,311.031103110311 L 75.3231365921894,311.2311231123112 L 77.53994035625895,311.8311831183118 L 78.64834223829374,311.8311831183118 L 86.02162432313376,310.28102810281024 L 86.6481123434143,309.68096809680964 L 86.840877888116,309.23092309230924 L 86.79268650194057,308.73087308730874 L 87.37098313604567,307.8807880788079 L 87.27460036369482,307.6807680768077 L 86.88906927429142,307.5807580758076 L 85.05779659962526,307.63076307630763 L 84.62407412404644,307.5807580758076 L 84.38311719316931,307.3807380738074 L 84.43130857934474,306.6806680668067 L 84.86503105492356,305.48054805480547 L 84.09396887611676,302.8302830283028 L 84.76864828257271,300.7300730073007 L 84.38311719316931,299.42994299429944 L 84.57588273787101,298.62986298629863 L 84.19035164846761,297.2297229722972 L 84.3349258069939,296.57965796579657 L 85.44332768902866,295.47954795479546 L 85.82885877843206,294.47944794479446 L 86.2625812540109,293.87938793879385 L 87.94927977015077,292.17921792179214 L 88.62395917660672,292.07920792079204 L 89.63597828629065,292.2292229222922 L 91.80459066418477,293.1293129312931 L 93.92501165590348,294.5294529452945 L 95.12979631028911,295.57955795579556 L 96.09362403379761,296.1296129612961 L 102.2139300780766,298.5798579857986 L 115.12922157309052,298.62986298629863 L 118.64719276389654,299.3799379937994 L 119.61102048740504,303.1303130313031 L 119.99655157680844,305.18051805180517 L 120.0929343491593,307.7807780778078 L 120.43027405238728,308.63086308630864 L 122.30973811322885,309.9309930993099 L 126.26143177961372,311.7311731173117 L 127.12887673077137,311.98119811981195 L 130.59865653540197,311.4311431143114 L 132.3817378238927,311.58115811581155 L 133.29737416122578,311.88118811881185 L 134.1648191123834,312.58125812581255 L 137.87555584789115,316.4816481648165 L 139.75501990873272,318.8818881888189 L 141.48990981104802,321.9321932193219 L 149.20053159911606,328.1828182818282 L 150.54989041202796,329.8329832983298 L 151.802866452589,330.3330333033303 L 154.8871151678162,330.18301830183015 L 158.98338299272734,329.18291829182914 L 160.62189012269178,328.53285328532854 L 160.91103843974435,327.982798279828 L 160.71827289504265,326.982698269827 L 159.8990193300604,326.1826182618262 L 159.513488240657,325.2825282528253 L 160.2845504194638,324.08240824082407 L 161.15199537062148,321.2321232123212 L 161.20018675679688,320.9320932093209 L 160.62189012269178,320.18201820182014 L 160.6700815088672,319.88198819881984 L 162.59773695588422,318.93189318931894 L 164.42900963055038,319.28192819281924 L 166.4048564637428,320.7320732073207 L 170.0674018130751,324.4324432443244 L 174.4528179550388,327.3827382738274 L 176.9587700361609,328.4828482848285 L 179.75387043433554,329.28292829282924 L 180.4285498407915,329.38293829382934 L 181.92248281222967,329.2329232923292 L 183.17545885279074,328.7328732873287 L 184.2838607348255,329.8329832983298 L 185.00673152745688,330.18301830183015 L 185.58502816156198,330.68306830683065 L 187.85002331180695,333.48334833483347 L 189.77767875882395,334.9334933493349 L 194.16309490078766,337.4837483748375 L 195.8016020307521,339.08390839083904 L 193.44022410815626,352.9352935293529 L 210.93369728983558,393.4893489348935 L 209.6325298630991,401.4401440144014 L 179.89844459286184,413.7913791379138 L 161.10380398444605,409.39093909390937 L 150.16435932262456,424.8424842484248 L 147.12830199357276,420.4420442044204 L 125.68313514550861,427.042704270427 L 119.12910662565079,433.24332433243325 L 107.32221701267166,430.1430143014301 L 101.2501023545681,435.39353935393535 L 101.10552819604182,433.99339933993394 L 101.39467651309437,405.2405240524052 L 98.69595888727056,404.84048404840485 L 97.82851393611291,404.54045404540454 L 92.28650452593902,401.5401540154015 L 87.8047056116245,397.68976897689765 L 72.09431371843591,378.48784878487845 z" /><path fill-rule="evenodd" fill="#D2EBD9" stroke="#A6A6A6" stroke-width="0.25" opacity="1" d="M 101.2501023545681,435.39353935393535 L 107.32221701267166,430.1430143014301 L 119.12910662565079,433.24332433243325 L 125.68313514550861,427.042704270427 L 147.12830199357276,420.4420442044204 L 150.16435932262456,424.8424842484248 L 161.10380398444605,409.39093909390937 L 179.89844459286184,413.7913791379138 L 209.6325298630991,401.4401440144014 L 210.93369728983558,393.4893489348935 L 193.44022410815626,352.9352935293529 L 195.8016020307521,339.08390839083904 L 199.31957322155813,337.4837483748375 L 200.9580803515226,337.03370337033704 L 205.2471137211354,336.43364336433643 L 207.126577781977,336.73367336733673 L 208.1385968916609,337.1837183718372 L 210.16263511102878,338.58385838583854 L 211.1746542207127,339.08390839083904 L 211.1746542207127,338.3338333833383 L 212.81316135067715,339.2339233923392 L 214.30709432211532,340.88408840884085 L 215.07815650092212,342.6342634263426 L 214.45166848064162,344.034403440344 L 215.12634788709755,345.4845484548455 L 215.99379283825522,346.7846784678468 L 217.19857749264082,347.6847684768477 L 220.47559175256973,348.3348334833483 L 222.74058690281473,349.4349434943494 L 225.3911131424631,350.03500350035 L 227.27057720330467,350.88508850885086 L 231.80056750379464,353.9353935393539 L 234.6438592881447,356.985698569857 L 234.21013681256588,358.2358235823582 L 233.82460572316248,358.58585858585855 L 235.07758176372354,359.68596859685965 L 235.84864394253034,360.88608860886086 L 236.13779225958288,362.28622862286227 L 236.23417503193375,363.9363936393639 L 236.66789750751258,365.3865386538654 L 237.82449077572278,366.53665366536654 L 240.23406008449402,368.38683868386835 L 242.8845863241424,372.3872387238724 L 243.89660543382632,374.93749374937494 L 243.4628829582475,376.5376537653765 L 245.5833039499662,379.037903790379 L 246.40255751494843,380.38803880388036 L 246.98085414905353,383.53835383538353 L 247.6555335555095,385.33853385338534 L 248.66755266519343,386.88868886888685 L 249.9687200919299,387.8387838783878 L 247.4627680108078,390.7390739073907 L 247.2700024661061,394.73947394739474 L 248.4265957343163,398.98989898989896 L 249.72776316105276,402.04020402040203 L 246.7398972181764,405.89058905890585 L 245.67968672231706,407.9407940794079 L 242.6436293932653,411.84118411841183 L 239.94491176744148,416.79167916791675 L 238.78831849923128,421.74217421742173 L 239.07746681628382,426.79267926792676 L 240.571399787722,431.94319431943194 L 241.58341889740592,433.3933393339334 L 241.87256721445848,434.59345934593455 L 241.63161028358135,435.8435843584358 L 241.05331364947625,437.09370937093706 L 239.65576345038892,438.7438743874387 L 238.40278740982788,438.8938893889389 L 237.1498113692668,437.89378937893787 L 235.75226117017948,436.1436143614361 L 235.89683532870578,437.5437543754375 L 237.19800275544225,439.6439643964396 L 237.43895968631938,440.8940894089409 L 235.27034730842524,449.54495449544953 L 235.27034730842524,450.8950895089509 L 234.88481621902184,452.2952295229523 L 233.72822295081164,452.9452945294529 L 230.88493116646157,453.49534953495345 L 229.15004126414627,454.79547954795476 L 228.95727571944457,457.995799579958 L 229.72833789825137,461.34613461346134 L 230.88493116646157,463.2463246324632 L 231.41503641439124,463.7463746374637 L 231.60780195909294,464.29642964296426 L 231.46322780056667,464.8464846484648 L 230.88493116646157,465.3465346534653 L 230.2102517600056,466.5466546654665 L 229.15004126414627,469.0969096909691 L 228.0898307682869,470.14701470147014 L 230.06567760147934,472.047204720472 L 232.81258661347857,473.59735973597355 L 232.18609859319804,473.89738973897386 L 231.3668450282158,474.79747974797476 L 229.29461542267254,476.29762976297627 L 223.36707492309526,478.7978797879788 L 221.87314195165706,480.8980898089809 L 220.90931422814856,481.59815981598155 L 219.51176402906123,479.84798479847984 L 218.6443190779036,479.44794479447944 L 217.63229996821966,479.2979297929793 L 216.66847224471115,479.44794479447944 L 214.64443402534332,479.34793479347934 L 212.86135273685258,478.94789478947894 L 211.84933362716865,479.2979297929793 L 211.99390778569492,481.4481448144814 L 213.1023096677297,482.9482948294829 L 214.64443402534332,484.048404840484 L 215.60826174885182,485.49854985498547 L 214.98177372857128,487.998799879988 L 213.43964937095768,489.5989598959896 L 211.07827144836185,490.6490649064906 L 208.76508491194144,490.69906990699064 L 207.3193433266787,489.04890489048904 L 207.03019500962614,486.5986598659866 L 207.03019500962614,484.8484848484848 L 206.5482811478719,484.5484548454845 L 204.90977401790744,486.2986298629863 L 203.7049893635218,488.3988398839884 L 203.17488411559214,490.54905490549055 L 202.40382193678533,496.0996099609961 L 201.7291425303294,498.14981498149814 L 200.47616648976833,499.6999699969997 L 198.5003196565759,500.0 L 198.54851104275133,498.54985498549854 L 197.97021440864623,497.4997499749975 L 196.33170727868176,495.5995599559956 L 196.33170727868176,494.6494649464946 L 196.71723836808516,493.7493749374937 L 196.5726642095589,492.9492949294929 L 193.6811810390334,492.09920992099205 L 191.51256866113926,490.99909990999095 L 190.45235816527992,490.6490649064906 L 189.92225291735025,491.4491449144914 L 189.34395628324515,491.99919991999195 L 188.81385103531545,492.2492249224922 L 187.12715251917558,491.79917991799175 L 184.2838607348255,491.69916991699165 L 182.30801390163307,491.4491449144914 L 180.38035845461607,490.8490849084908 L 178.40451162142364,489.7989798979898 L 173.82632993475826,486.1986198619862 L 169.0553827033912,483.3483348334833 L 166.54943062226909,482.9482948294829 L 165.00730626465548,483.49834983498346 L 164.4772010167258,485.048504850485 L 165.68198567111142,490.6490649064906 L 164.8627321061292,492.39923992399235 L 163.12784220381388,493.39933993399336 L 156.38104813925437,495.09950995099507 L 154.40520130606197,495.1495149514951 L 152.42935447286953,494.5494549454945 L 148.42946942030926,490.5990599059906 L 146.45362258711683,489.4989498949895 L 145.53798624978373,491.4491449144914 L 143.1284169410125,490.54905490549055 L 141.87544090045142,490.2990299029903 L 140.57427347371495,490.3990399039904 L 140.52608208753952,484.2484248424842 L 136.91172812438265,469.64696469646964 L 134.83949851883938,465.09650965096506 L 134.59854158796225,462.4462446244624 L 135.41779515294448,459.04590459045903 L 136.38162287645298,456.69566956695667 L 136.044283173225,454.49544954495445 L 133.1528000026995,451.6951695169517 L 130.8396134662791,450.34503450345034 L 128.5264269298587,449.64496449644963 L 126.11685762108743,449.2949294929493 L 116.62315454452869,449.24492449244923 L 114.26177662193287,448.8948894889489 L 111.51486760993363,447.49474947494747 L 109.77997770761833,445.3445344534453 L 107.03306869561911,440.24402440244023 L 105.78009265505806,439.043904390439 L 102.7922267121817,437.39373937393736 L 101.73201621632235,436.49364936493646 L 101.2501023545681,435.39353935393535 z" /><path fill-rule="evenodd" fill="#D2EBD9" stroke="#A6A6A6" stroke-width="0.25" opacity="1" d="M 336.4722582768179,253.82538253825382 L 339.3637414473434,257.47574757475746 L 339.9420380814485,257.7257725772577 L 341.33958828053585,257.97579757975797 L 341.9178849146409,258.3258325832583 L 342.6889470934477,260.4760476047605 L 342.54437293492145,260.6760676067607 L 344.6166025404647,261.7761776177618 L 344.9057508575173,261.7761776177618 L 346.4960666013063,263.7263726372637 L 355.02594195435654,270.4770477047705 L 367.9412334493705,284.9284928492849 L 369.57974057933495,287.5287528752875 L 371.0736735507731,290.97909790979094 L 372.0375012742816,294.5294529452945 L 372.2302668189833,296.17961796179617 L 372.1820754328079,297.7797779777978 L 371.6037787987028,298.4798479847985 L 370.6399510751943,299.12991299129914 L 370.06165444108916,300.03000300030004 L 371.55558741252736,303.28032803280325 L 371.6519701848782,305.1305130513051 L 371.50739602635196,307.0807080708071 L 371.6519701848782,309.1809180918092 L 372.27845820515876,310.2310231023102 L 374.68802751393,312.08120812081205 L 375.6036638512631,313.2313231323132 L 375.89281216831563,316.0816081608161 L 373.86877394894776,327.3827382738274 L 373.7241997904215,330.28302830283025 L 373.3868600871935,331.38313831383135 L 372.66398929456216,332.6332633263326 L 370.9290993922468,334.38343834383437 L 370.495376916668,335.0835083508351 L 370.39899414431716,335.8835883588359 L 370.6881424613697,337.3837383738374 L 370.5917596890189,338.13381338133814 L 370.1098458272646,339.08390839083904 L 368.1821903802476,341.78417841784176 L 367.2183626567391,345.4845484548455 L 366.49549186410775,347.03470347034704 L 364.4714536447399,349.88498849884985 L 363.7003914659331,351.3351335133513 L 363.07390344565255,353.6353635363536 L 361.6281618603898,365.13651365136514 L 359.21859255161854,373.53735373537353 L 357.09817155989987,377.68776877687765 L 352.18265017000647,380.18801880188016 L 348.61648759302506,382.4882488248825 L 344.80936808516645,385.2885288528853 L 342.6407557072723,387.9387938793879 L 341.8696935284655,391.18911891189117 L 342.54437293492145,395.6395639563956 L 328.47248817169736,396.38963896389635 L 327.5568518343643,394.03940394039404 L 324.4726031191371,390.2390239023902 L 323.65334955415483,387.78877887788775 L 323.3642012371023,383.6883688368837 L 323.219627078576,382.988298829883 L 322.4967562859446,381.78817881788177 L 322.30399074124296,381.08810881088107 L 322.4485648997692,380.38803880388036 L 323.46058400945316,379.98799879987996 L 323.7497323265057,379.4379437943794 L 323.89430648503196,376.68766876687664 L 323.4123926232777,374.33743374337433 L 322.2557993550675,372.18721872187217 L 320.2799525218751,370.03700370037 L 316.95474687577075,368.036803680368 L 316.2800674693148,367.4367436743674 L 315.84634499373595,366.33663366336634 L 315.6535794490343,363.9363936393639 L 315.2198569734554,362.88628862886287 L 314.20783786377154,361.9361936193619 L 312.32837380292995,361.38613861386136 L 311.21997192089515,360.68606860686066 L 309.051359543001,358.035803580358 L 307.9911490471417,356.3856385638564 L 307.461043799212,355.13551355135513 L 307.70200073008914,353.08530853085307 L 308.5694456812468,350.9350935093509 L 309.0995509291765,348.68486848684864 L 308.3284887503697,346.33463346334634 L 307.0273213236332,345.5845584558456 L 301.91903438903813,343.6343634363436 L 300.37691003142453,343.4343434343434 L 298.11191488117953,347.03470347034704 L 296.6179819097414,347.9347934793479 L 295.99149388946086,345.13451345134513 L 294.7385178488998,345.73457345734573 L 294.2084126009701,345.53455345534553 L 293.8228815115667,343.68436843684367 L 290.69044141016406,342.8342834283428 L 289.7266136866556,342.28422842284226 L 287.7025754672877,342.48424842484246 L 286.1122597234987,341.58415841584156 L 284.6183267520605,340.2340234023402 L 282.97981962209604,339.033903390339 L 279.07631734188664,338.03380338033804 L 274.7872839722738,324.032403240324 L 272.71505436673056,321.08210821082105 L 272.42590604967796,318.13181318131814 L 271.8476094155729,316.6816681668167 L 271.7030352570466,313.98139813981396 L 269.4380401068016,311.5311531153115 L 269.486231492977,311.031103110311 L 270.88378169206436,309.2809280928093 L 272.42590604967796,308.43084308430844 L 272.81143713908136,307.8807880788079 L 273.3897337731865,306.3306330633063 L 274.49813565522123,304.78047804780476 L 274.83547535844923,303.48034803480346 L 275.1728150616772,303.030303030303 L 276.04026001283484,302.7302730273027 L 276.57036526076456,302.7302730273027 L 277.10047050869423,302.38023802380235 L 277.6787671427993,301.38013801380134 L 278.69078625248324,300.38003800380034 L 278.69078625248324,299.4799479947995 L 278.0161068460273,296.07960796079607 L 277.91972407367643,294.8294829482948 L 278.0161068460273,293.67936793679365 L 278.59440348013237,291.2291229122912 L 278.4498293216061,290.3790379037904 L 278.11248961837816,289.82898289828984 L 276.37759971606283,288.2788278827883 L 275.51015476490517,287.2287228722872 L 275.60653753725603,286.6286628662866 L 276.37759971606283,285.4285428542854 L 276.37759971606283,284.77847784778476 L 276.1366427851857,284.27842784278425 L 275.26919783402803,283.47834783478345 L 274.49813565522123,281.77817781778174 L 273.72707347641443,280.62806280628064 L 273.67888209023903,280.0780078007801 L 273.91983902111616,279.32793279327933 L 273.48611654553736,277.57775777577757 L 272.81143713908136,276.2276227622762 L 271.8958008017483,275.17751775177516 L 271.8958008017483,274.5274527452745 L 272.71505436673056,273.1273127312731 L 272.76324575290596,272.3272327232723 L 272.08856634645,270.3770377037704 L 271.55846109852035,269.82698269826983 L 271.0765472367661,269.5769576957696 L 269.8717625823804,269.62696269626963 L 275.22100644785263,267.87678767876787 L 276.61855664693996,267.6267626762676 L 278.54621209395697,268.4768476847685 L 279.41365704511463,268.3268326832683 L 279.9437622930443,268.17681768176817 L 280.66663308567564,267.6267626762676 L 280.9075900165528,266.97669766976696 L 279.9919536792197,264.07640764076405 L 279.5582312036409,263.7263726372637 L 277.48600159809763,262.8262826282628 L 275.99206862665943,260.8760876087609 L 275.60653753725603,259.8259825982598 L 274.88366674462463,255.8255825582558 L 273.87164763494076,253.87538753875387 L 273.87164763494076,253.37533753375337 L 274.2089873381687,253.17531753175317 L 275.3655806063789,253.47534753475347 L 275.943877240484,253.27532753275327 L 276.42579110223824,252.9252925292529 L 276.61855664693996,252.07520752075206 L 275.99206862665943,249.22492249224922 L 274.9800495169755,245.97459745974595 L 275.07643228932636,242.8242824282428 L 274.73909258609837,240.97409740974095 L 274.64270981374756,237.47374737473746 L 276.9077049639925,232.3232323232323 L 278.0642982322027,230.82308230823082 L 281.24492971978077,229.97299729972997 L 283.4617334838503,228.9228922892289 L 284.1846042764817,228.4228422842284 L 284.3773698211834,227.97279727972796 L 283.75088180090285,227.47274727472745 L 283.6063076423766,226.97269726972695 L 284.3773698211834,220.82208220822082 L 284.329178435008,220.22202220222022 L 283.99183873178,219.92199219921991 L 282.16056605711384,219.17191719171916 L 281.72684358153504,217.021702170217 L 280.81120724420197,215.77157715771577 L 280.5220589271494,215.77157715771577 L 279.9919536792197,216.67166716671667 L 279.79918813451803,216.8216821682168 L 279.5582312036409,216.77167716771675 L 279.3654656589392,216.02160216021602 L 279.31727427276377,214.57145714571456 L 278.7871690248341,214.07140714071406 L 278.49802070778156,213.2213221322132 L 277.48600159809763,212.67126712671265 L 277.38961882574677,212.4212421242124 L 277.72695852897476,211.97119711971195 L 280.18471922392143,210.3210321032103 L 281.00397278890364,209.37093709370936 L 281.1485469474299,207.12071207120712 L 280.61844169950024,205.1205120512051 L 281.05216417507904,204.7204720472047 L 281.72684358153504,204.4204420442044 L 282.0159918985876,204.07040704070405 L 282.97981962209604,202.42024202420242 L 283.26896793914864,201.57015701570157 L 283.0280110082715,201.07010701070107 L 281.05216417507904,198.7198719871987 L 280.7630158580265,197.96979697969795 L 281.5340780368333,197.06970697069707 L 283.4617334838503,195.5195519551955 L 283.5581162562012,195.1195119511951 L 282.6424799188681,194.26942694269425 L 281.96780051241217,193.96939693969395 L 280.3292933824477,194.019401940194 L 279.6064225898163,191.66916691669167 L 279.65461397599177,191.36913691369136 L 280.7148244718511,190.86908690869086 L 282.6424799188681,188.4188418841884 L 281.34131249213164,187.41874187418742 L 280.85939863037737,185.9185918591859 L 280.9075900165528,185.36853685368536 L 281.24492971978077,184.56845684568455 L 282.49790576034184,182.91829182918292 L 283.1725851667978,181.46814681468146 L 283.12439378062237,181.06810681068106 L 282.064183284763,179.26792679267925 L 281.38950387830704,175.5175517551755 L 284.52194397970965,176.26762676267626 L 298.2082976535304,175.96759675967596 L 300.087761714372,176.86768676867686 L 301.2443549825822,177.96779677967797 L 303.02743627107293,180.66806680668066 L 303.26839320195,182.81828182818282 L 302.35275686461694,184.66846684668465 L 300.5696755761262,186.3186318631863 L 298.8347856738109,184.66846684668465 L 298.2082976535304,185.9185918591859 L 298.88297705998633,188.66886688668865 L 301.05158943788047,191.4191419141914 L 301.05158943788047,192.51925192519252 L 299.6058478526177,193.66936693669365 L 298.69021151528466,195.1195119511951 L 300.1841444867228,197.11971197119712 L 302.20818270609067,197.8197819781978 L 306.97912993745774,198.36983698369835 L 308.81040261212394,199.6199619961996 L 309.8706131079833,201.92019201920192 L 310.40071835591294,204.97049704970496 L 310.1115700388604,207.87078707870785 L 308.81040261212394,209.77097709770976 L 310.5452925144392,211.27112711271127 L 312.0392254858774,215.12151215121511 L 313.7259240020173,216.02160216021602 L 317.00293826194616,217.27172717271725 L 320.08718697717336,219.8219821982198 L 322.78590460299716,222.9222922292229 L 324.61717727766336,225.77257725772577 L 331.70131104545084,239.97399739973997 L 334.4964114436255,249.42494249424942 L 336.4722582768179,253.82538253825382 z" /><path fill-rule="evenodd" fill="#D2EBD9" stroke="#A6A6A6" stroke-width="0.25" opacity="1" d="M 336.4722582768179,253.82538253825382 L 334.4964114436255,249.42494249424942 L 331.70131104545084,239.97399739973997 L 324.61717727766336,225.77257725772577 L 322.78590460299716,222.9222922292229 L 320.08718697717336,219.8219821982198 L 317.00293826194616,217.27172717271725 L 313.7259240020173,216.02160216021602 L 312.0392254858774,215.12151215121511 L 310.5452925144392,211.27112711271127 L 308.81040261212394,209.77097709770976 L 310.1115700388604,207.87078707870785 L 310.40071835591294,204.97049704970496 L 309.8706131079833,201.92019201920192 L 308.81040261212394,199.6199619961996 L 306.97912993745774,198.36983698369835 L 302.20818270609067,197.8197819781978 L 300.1841444867228,197.11971197119712 L 298.69021151528466,195.1195119511951 L 299.6058478526177,193.66936693669365 L 301.05158943788047,192.51925192519252 L 301.05158943788047,191.4191419141914 L 298.88297705998633,188.66886688668865 L 298.2082976535304,185.9185918591859 L 298.8347856738109,184.66846684668465 L 300.5696755761262,186.3186318631863 L 302.35275686461694,184.66846684668465 L 303.26839320195,182.81828182818282 L 303.02743627107293,180.66806680668066 L 333.7253492648187,163.46634663466347 L 340.4721433293782,160.5160516051605 L 347.9899995727445,169.7169716971697 L 348.3755306621479,170.01700170017 L 349.1947842271301,170.26702670267025 L 350.35137749534033,170.4170417041704 L 354.11030561702347,170.16701670167015 L 355.17051611288286,169.96699669966995 L 356.08615245021593,169.6169616961696 L 359.7005064133728,167.4167416741674 L 361.0498652262847,166.36663666366636 L 362.68837235624915,164.7164716471647 L 364.95336750649415,161.4161416141614 L 366.7846401811603,158.1158115811581 L 367.8930420631951,154.56545654565457 L 367.9412334493705,152.46524652465246 L 367.5075109737917,151.26512651265125 L 366.3509177055815,150.4150415041504 L 363.3630517627051,149.76497649764977 L 359.02582700691687,149.61496149614962 L 357.29093710460154,149.01490149014901 L 356.90540601519814,148.7148714871487 L 356.4234921534439,147.86478647864786 L 356.13434383639134,146.16461646164615 L 355.8451955193388,145.36453645364534 L 353.33924343821667,141.86418641864185 L 352.85732957646246,140.96409640964094 L 352.51998987323446,140.01400140014002 L 352.51998987323446,139.46394639463946 L 352.66456403176073,138.8138813881388 L 353.146477893515,137.86378637863785 L 354.11030561702347,137.1137113711371 L 355.94157829168967,136.7136713671367 L 357.5800854216541,136.1136113611361 L 358.2065734419346,135.71357135713572 L 358.78487007603974,134.86348634863486 L 358.83306146221514,133.96339633963396 L 358.592104531338,132.7132713271327 L 362.73656374242455,131.1131113111311 L 375.7000466236139,131.3131313131313 L 391.1212901997499,133.013301330133 L 398.7355292154671,134.5134513451345 L 478.82961303902357,137.8137813781378 L 477.62482838463796,138.96389638963896 L 480.7572684860406,139.06390639063906 L 479.16695274225157,141.16411641164115 L 478.5886561081465,143.4143414341434 L 479.4079096731287,144.81448144814482 L 481.86567036807537,144.41444144414442 L 480.3717373966372,146.3146314631463 L 476.3236609579015,154.46544654465447 L 474.15504858000736,163.76637663766377 L 474.2996227385336,168.06680668066807 L 475.022493531165,173.06730673067307 L 474.49238828323536,177.16771677167716 L 470.73346016155216,178.8178817881788 L 470.3961204583242,175.3175317531753 L 469.7696324380437,173.36733673367337 L 468.902187486886,172.46724672467246 L 467.7455942186758,173.16731673167317 L 467.16729758457075,174.86748674867485 L 466.39623540576395,176.4176417641764 L 464.56496273109775,176.7176717671767 L 464.95049382050115,178.7178717871787 L 464.08304886934354,178.36783678367837 L 462.63730728408075,177.1177117711771 L 461.2397570849934,176.46764676467646 L 460.4205035200112,176.9176917691769 L 458.8783791623976,178.86788678867885 L 457.96274282506454,179.66796679667965 L 458.926570548573,180.86808680868086 L 458.30008252829253,181.66816681668166 L 455.4567907439424,182.81828182818282 L 452.99903004899573,184.16841684168415 L 452.85445589046947,184.6184618461846 L 450.7340348987508,184.9184918491849 L 448.99914499643546,186.3186318631863 L 447.7461689558744,187.81878187818782 L 446.9751067770676,188.4188418841884 L 445.6739393503311,186.86868686868686 L 444.2763891512438,184.5184518451845 L 442.6378820212794,183.66836683668365 L 440.56565241573605,186.6186618661866 L 439.1199108304733,188.01880188018802 L 434.4453463714571,190.46904690469046 L 432.9514134000189,192.41924192419242 L 432.80683924149264,193.26932693269325 L 432.9032220138435,196.61966196619662 L 433.14417894472064,197.16971697169717 L 434.2525808267554,197.76977697769775 L 434.4935377576325,198.4198419841984 L 434.20438944058,199.16991699169915 L 432.99960478619437,199.66996699669966 L 432.61407369679097,200.07000700070006 L 432.22854260738757,202.77027702770275 L 431.7466287456333,203.87038703870385 L 430.5900354774231,204.9204920492049 L 429.52982498156376,204.97049704970496 L 428.08408339630097,204.57045704570456 L 426.92749012809077,203.97039703970395 L 426.87929874191536,203.4203420342034 L 425.6263227013543,205.07050705070506 L 425.28898299812636,207.47074707470745 L 425.5781313151789,210.17101710171016 L 426.15642794928397,212.6212621262126 L 427.69855230689757,217.2217221722172 L 427.40940398984503,218.8218821882188 L 425.5781313151789,221.07210721072107 L 420.32527022205755,225.27252725272527 L 419.93973913265415,225.82258225822582 L 419.4096338847245,227.6227622762276 L 418.6867630920931,227.87278727872786 L 417.62655259623375,227.47274727472745 L 417.0000645759532,227.57275727572755 L 409.4340169464115,229.37293729372936 L 407.5063614993945,230.67306730673067 L 405.4341318938512,231.17311731173115 L 402.25350040627313,231.07310731073105 L 396.8078737684501,230.32303230323032 L 395.4103235693628,229.77297729772977 L 392.80798871588985,228.3228322832283 L 391.1694815859254,227.9227922792279 L 389.2418261389084,227.87278727872786 L 388.27799841539985,228.2228222822282 L 386.2057688098566,229.57295729572957 L 384.80821861076925,230.07300730073007 L 374.59164474157916,232.5232523252325 L 374.39887919687743,233.023302330233 L 374.3024964245266,234.82348234823482 L 373.6760084042461,235.77357735773577 L 372.85675483926383,236.2236223622362 L 372.32664959133416,235.87358735873585 L 371.94111850193076,235.32353235323532 L 371.3628218678257,235.27352735273527 L 369.0014439452298,237.7237723772377 L 367.7966592908442,238.17381738173816 L 366.2545349332306,236.87368736873685 L 365.00155889266955,237.4237423742374 L 363.5558173074068,237.47374737473746 L 362.1100757221441,236.9236923692369 L 360.857099681583,235.72357235723572 L 359.4595494824957,237.1237123712371 L 359.8450805718991,237.8237823782378 L 360.9534824539339,238.4238423842384 L 361.53177908803895,239.52395239523952 L 361.2908221571618,240.42404240424042 L 360.2306116613025,242.57425742574256 L 359.98965473042534,243.72437243724372 L 360.6161427507059,245.67456745674565 L 361.48358770186354,246.4246424642464 L 361.6281618603898,247.1247124712471 L 360.0860375027762,248.87488748874887 L 356.37530076726847,250.87508750875085 L 355.02594195435654,252.6252625262526 L 354.3030711617252,253.12531253125312 L 353.72477452762007,252.1252125212521 L 353.1946692796904,249.92499249924992 L 352.27903294235733,247.7247724772477 L 350.78509997091913,246.5246524652465 L 348.61648759302506,247.27472747274726 L 345.1467077883944,251.97519751975196 L 343.7973489754825,253.12531253125312 L 342.4479901625706,253.52535253525352 L 339.6046983782205,253.42534253425342 L 338.4481051100103,253.67536753675367 L 336.4722582768179,253.82538253825382 z" /><path fill-rule="evenodd" fill="#D2EBD9" stroke="#A6A6A6" stroke-width="0.25" opacity="1" d="M 478.82961303902357,137.8137813781378 L 398.7355292154671,134.5134513451345 L 391.1212901997499,133.013301330133 L 375.7000466236139,131.3131313131313 L 362.73656374242455,131.1131113111311 L 358.592104531338,132.7132713271327 L 357.72465958018034,128.36283628362835 L 357.5800854216541,126.86268626862686 L 357.9656165110575,125.01250125012501 L 358.9776356207414,121.91219121912191 L 360.1824202751271,119.71197119711971 L 368.47133869730015,111.2111211121112 L 372.085692660457,105.71057105710571 L 372.6157979083867,104.7104710471047 L 373.09771177014096,102.8102810281028 L 373.24228592866723,100.96009600960096 L 372.9531376116147,97.2097209720972 L 378.15780731856063,96.55965596559655 L 379.8926972208759,96.00960096009601 L 384.03715643196244,93.2093209320932 L 384.80821861076925,93.009300930093 L 385.3383238586989,93.009300930093 L 386.0611946513303,93.40934093409341 L 389.9646969315397,93.1093109310931 L 406.3979596173597,90.45904590459045 L 425.52993992900343,87.1087108710871 L 426.3973848801611,86.80868086808681 L 427.3612126036696,86.008600860086 L 427.84312646542384,84.8084808480848 L 427.74674369307303,67.80678067806781 L 428.03589201012556,65.95659565956595 L 427.79493507924843,64.65646564656466 L 428.22865755482724,62.056205620562054 L 428.51780587187983,61.056105610561055 L 428.90333696128323,60.7060706070607 L 431.12014072535277,60.65606560656065 L 432.7104564691418,60.906090609060904 L 434.6381119161588,60.45604560456045 L 435.2164085502639,60.6060606060606 L 436.61395874935124,61.35613561356135 L 438.25246587931565,62.7062706270627 L 439.1199108304733,62.85628562856285 L 439.987355781631,62.6062606260626 L 440.7584179604378,62.8062806280628 L 441.0957576636658,63.05630563056305 L 441.72224568394626,63.1063106310631 L 442.6860734074548,62.8062806280628 L 446.30042737061166,60.906090609060904 L 447.8907431144007,60.7060706070607 L 448.8545708379092,60.4060406040604 L 449.77020717524226,59.6059605960596 L 450.7822262849262,57.705770577057706 L 451.31233153285586,57.2057205720572 L 454.44477163425853,56.305630563056305 L 455.745939060995,55.55555555555555 L 455.745939060995,56.455645564556455 L 456.42061846745094,58.905890589058906 L 456.5651926259772,60.25602560256025 L 455.745939060995,63.9063906390639 L 455.7941304471704,65.00650065006501 L 459.4084844103273,67.85678567856786 L 460.9506087679409,67.70677067706771 L 461.9144364914494,67.006700670067 L 462.3963503532036,66.95669566956695 L 462.3963503532036,68.75687568756875 L 461.7216709467477,71.007100710071 L 460.61326906471294,72.60726072607261 L 459.7940154997307,74.2074207420742 L 459.93858965825694,76.75767576757676 L 459.0229533209239,83.6083608360836 L 459.3121016379764,85.65856585658565 L 460.7578432232392,87.75877587758775 L 462.6854986702562,88.65886588658866 L 464.709536889624,88.65886588658866 L 466.3480440195885,87.95879587958795 L 469.52867550716655,93.75937593759376 L 470.2033549136225,95.80958095809581 L 470.29973768597335,97.8097809780978 L 469.3359099624649,103.41034103410341 L 470.5888860030259,107.3107310731073 L 471.07079986478016,108.36083608360836 L 471.9382448159378,109.46094609460945 L 475.022493531165,111.1111111111111 L 475.31164184821756,111.4111411141114 L 476.6610006611295,111.2111211121112 L 476.46823511642776,110.71107110711071 L 475.84174709614723,110.16101610161016 L 476.3718523440769,108.76087608760875 L 476.3718523440769,107.86078607860786 L 476.6610006611295,107.4107410741074 L 477.76940254316423,107.91079107910791 L 478.39589056344477,108.66086608660865 L 479.0705699699007,111.4111411141114 L 480.5163115551635,113.4113411341134 L 481.19099096161943,114.6114611461146 L 481.3355651201457,115.96159615961595 L 480.9982254169177,118.2118211821182 L 480.3717373966372,120.46204620462045 L 479.50429244547956,120.6120612061206 L 478.2513164049185,120.4120412041204 L 476.51642650260317,121.36213621362135 L 475.4080246205684,122.96229622962295 L 474.58877105558616,125.01250125012501 L 474.10685719383196,127.11271127112711 L 474.0586658076565,129.012901290129 L 475.74536432379637,128.1128112811281 L 476.2754695717261,129.36293629362936 L 476.1790867993752,133.8133813381338 L 477.0465317505329,135.56355635563557 L 478.39589056344477,136.66366636663665 L 479.0223785837253,137.66376637663765 L 478.82961303902357,137.8137813781378 z" /><path fill-rule="evenodd" fill="#D2EBD9" stroke="#A6A6A6" stroke-width="0.25" opacity="1" d="M 455.745939060995,55.55555555555555 L 454.44477163425853,56.305630563056305 L 451.31233153285586,57.2057205720572 L 450.7822262849262,57.705770577057706 L 449.77020717524226,59.6059605960596 L 448.8545708379092,60.4060406040604 L 447.8907431144007,60.7060706070607 L 446.30042737061166,60.906090609060904 L 442.6860734074548,62.8062806280628 L 441.72224568394626,63.1063106310631 L 441.0957576636658,63.05630563056305 L 440.7584179604378,62.8062806280628 L 439.987355781631,62.6062606260626 L 439.1199108304733,62.85628562856285 L 438.25246587931565,62.7062706270627 L 436.61395874935124,61.35613561356135 L 435.2164085502639,60.6060606060606 L 434.6381119161588,60.45604560456045 L 432.7104564691418,60.906090609060904 L 431.12014072535277,60.65606560656065 L 428.90333696128323,60.7060706070607 L 428.51780587187983,61.056105610561055 L 428.22865755482724,62.056205620562054 L 427.79493507924843,64.65646564656466 L 428.03589201012556,65.95659565956595 L 427.74674369307303,67.80678067806781 L 427.84312646542384,84.8084808480848 L 427.3612126036696,86.008600860086 L 426.3973848801611,86.80868086808681 L 425.52993992900343,87.1087108710871 L 406.3979596173597,90.45904590459045 L 407.65093565792074,87.35873587358735 L 407.84370120262247,85.008500850085 L 407.65093565792074,84.20842084208421 L 406.9762562514648,82.85828582858285 L 403.41009367448333,77.15771577157716 L 401.67520377216806,73.95739573957395 L 397.53074456108146,63.706370637063706 L 397.53074456108146,62.55625562556255 L 397.81989287813406,60.906090609060904 L 398.25361535371286,59.905990599059905 L 398.8801033739934,59.1059105910591 L 399.74754832515106,58.4058405840584 L 408.6629547676047,55.305530553055306 L 416.2771937833218,51.95519551955195 L 418.8795286367948,50.405040504050405 L 420.71080131146095,48.65486548654865 L 421.48186349026776,47.65476547654765 L 426.63834181103823,38.9038903890389 L 428.3250403271781,36.6036603660366 L 431.12014072535277,31.803180318031803 L 431.84301151798417,29.75297529752975 L 430.87918379447564,25.6025602560256 L 430.6382268635985,23.352335233523352 L 430.73460963594937,19.05190519051905 L 430.5900354774231,18.25182518251825 L 429.8189732986163,16.5016501650165 L 427.69855230689757,12.8012801280128 L 428.99971973363404,12.4012401240124 L 430.10812161566884,11.05110511051105 L 430.73460963594937,9.45094509450945 L 431.45748042858077,8.150815081508151 L 432.75864785531724,7.000700070007 L 434.20438944058,6.1006100610061 L 438.8307625134208,4.25042504250425 L 440.7584179604378,4.1004100410041 L 441.28852320836745,3.7503750375037503 L 442.2041595457005,2.05020502050205 L 443.16798726920905,1.7001700170017 L 451.215948760505,1.7001700170017 L 452.7098817319432,1.4001400140014 L 455.4567907439424,0.25002500250025 L 457.23987203243314,0.0 L 463.40836946288755,0.65006500650065 L 459.55305856885354,3.35033503350335 L 458.8783791623976,4.7004700470047 L 459.07114470709934,5.9005900590059 L 460.27592936148494,8.1008100810081 L 460.66146045088834,9.3009300930093 L 460.4686949061866,10.4010401040104 L 459.6494413412044,12.75127512751275 L 459.89039827208154,15.75157515751575 L 459.16752747945014,19.15191519151915 L 459.6976327273798,44.454445444544454 L 459.16752747945014,50.555055505550555 L 458.8301877762222,51.605160516051605 L 458.1555083697662,52.5052505250525 L 456.32423569510007,54.055405540554055 L 455.745939060995,55.55555555555555 z" /><path fill-rule="evenodd" fill="#D2EBD9" stroke="#A6A6A6" stroke-width="0.25" opacity="1" d="M 234.21013681256588,358.2358235823582 L 234.6438592881447,356.985698569857 L 231.80056750379464,353.9353935393539 L 227.27057720330467,350.88508850885086 L 225.3911131424631,350.03500350035 L 222.74058690281473,349.4349434943494 L 220.47559175256973,348.3348334833483 L 217.19857749264082,347.6847684768477 L 215.99379283825522,346.7846784678468 L 215.12634788709755,345.4845484548455 L 214.45166848064162,344.034403440344 L 215.07815650092212,342.6342634263426 L 214.30709432211532,340.88408840884085 L 212.81316135067715,339.2339233923392 L 211.1746542207127,338.3338333833383 L 211.1746542207127,339.08390839083904 L 210.16263511102878,338.58385838583854 L 208.1385968916609,337.1837183718372 L 207.126577781977,336.73367336733673 L 205.2471137211354,336.43364336433643 L 200.9580803515226,337.03370337033704 L 199.31957322155813,337.4837483748375 L 195.8016020307521,339.08390839083904 L 194.16309490078766,337.4837483748375 L 189.77767875882395,334.9334933493349 L 187.85002331180695,333.48334833483347 L 185.58502816156198,330.68306830683065 L 185.00673152745688,330.18301830183015 L 184.2838607348255,329.8329832983298 L 183.17545885279074,328.7328732873287 L 181.92248281222967,329.2329232923292 L 180.4285498407915,329.38293829382934 L 179.75387043433554,329.28292829282924 L 176.9587700361609,328.4828482848285 L 174.4528179550388,327.3827382738274 L 170.0674018130751,324.4324432443244 L 166.4048564637428,320.7320732073207 L 164.42900963055038,319.28192819281924 L 162.59773695588422,318.93189318931894 L 160.6700815088672,319.88198819881984 L 160.62189012269178,320.18201820182014 L 161.20018675679688,320.9320932093209 L 161.15199537062148,321.2321232123212 L 160.2845504194638,324.08240824082407 L 159.513488240657,325.2825282528253 L 159.8990193300604,326.1826182618262 L 160.71827289504265,326.982698269827 L 160.91103843974435,327.982798279828 L 160.62189012269178,328.53285328532854 L 158.98338299272734,329.18291829182914 L 154.8871151678162,330.18301830183015 L 151.802866452589,330.3330333033303 L 150.54989041202796,329.8329832983298 L 149.20053159911606,328.1828182818282 L 141.48990981104802,321.9321932193219 L 139.75501990873272,318.8818881888189 L 137.87555584789115,316.4816481648165 L 134.1648191123834,312.58125812581255 L 133.29737416122578,311.88118811881185 L 132.3817378238927,311.58115811581155 L 130.59865653540197,311.4311431143114 L 127.12887673077137,311.98119811981195 L 126.26143177961372,311.7311731173117 L 122.30973811322885,309.9309930993099 L 120.43027405238728,308.63086308630864 L 120.0929343491593,307.7807780778078 L 119.99655157680844,305.18051805180517 L 119.61102048740504,303.1303130313031 L 118.64719276389654,299.3799379937994 L 116.71953731687954,296.07960796079607 L 115.99666652424817,295.2295229522952 L 114.21358523575744,294.47944794479446 L 117.92432197126517,290.12901290129014 L 118.30985306066857,289.12891289128913 L 119.51463771505419,288.2288228822882 L 120.91218791414153,287.7287728772877 L 126.02047484873658,287.4287428742874 L 128.67100108838497,287.7287728772877 L 129.8757857427706,287.3287328732873 L 131.8034411897876,285.7285728572857 L 135.70694346999701,285.77857785778576 L 140.04416822578528,286.2286228622862 L 140.81523040459209,286.028602860286 L 141.7790581281006,285.67856785678566 L 144.18862743687183,284.3284328432843 L 146.74277090416936,281.77817781778174 L 148.76680912353723,280.2780278027803 L 149.77882823322116,279.72797279727973 L 164.2844354720241,274.87748774877485 L 165.2482631955326,274.77747774777475 L 166.16389953286568,274.87748774877485 L 167.7542152766547,275.3275327532753 L 170.4529329024785,276.8276827682768 L 172.23601419096923,277.4277427742774 L 173.2962246868286,277.3277327732773 L 178.25993746289737,276.1276127612761 L 180.91046370254574,275.27752775277526 L 182.21163112928224,274.4274427442744 L 185.48864538921114,270.32703270327033 L 186.30789895419335,269.72697269726973 L 186.93438697447388,269.6769676967697 L 187.75364053945611,269.82698269826983 L 189.10299935236802,270.42704270427043 L 190.16320984822735,271.42714271427144 L 190.64512370998162,273.2273227322732 L 190.83788925468332,274.97749774977495 L 191.41618588878842,276.87768776877687 L 192.1390566814198,278.1778177817782 L 193.8739465837351,279.7779777977798 L 194.30766905931392,280.72807280728074 L 194.01852074226136,284.97849784978496 L 194.4522432178402,286.6286628662866 L 195.27149678282242,287.9287928792879 L 196.09075034780466,288.72887288728873 L 197.00638668513773,289.2789278927893 L 197.97021440864623,289.2789278927893 L 200.0424440141895,288.6788678867887 L 202.933927184715,286.97869786978697 L 204.52424292850404,285.77857785778576 L 205.34349649348627,284.9284928492849 L 206.06636728611764,283.87838783878385 L 206.789238078749,281.2281228122812 L 206.789238078749,279.72797279727973 L 206.2109414446439,277.9277927792779 L 203.80137213587267,272.67726772677264 L 204.37966876997777,271.87718771877184 L 205.19892233496,271.3771377137714 L 206.06636728611764,271.32713271327134 L 212.909544123028,272.07720772077204 L 213.58422352948395,271.97719771977194 L 214.74081679769415,271.42714271427144 L 215.94560145207979,270.42704270427043 L 219.029850167307,266.67666766676666 L 221.82495056548163,264.2264226422642 L 222.83696967516556,262.7262726272627 L 223.0779266060427,261.1761176117612 L 222.59601274428846,259.8759875987599 L 221.1502711590257,258.17581758175817 L 219.51176402906123,256.57565756575656 L 216.5238980861849,252.77527752775276 L 215.41549620415012,250.9250925092509 L 215.07815650092212,249.97499749974997 L 215.02996511474672,249.07490749074907 L 215.31911343179925,248.17481748174816 L 215.94560145207979,247.3247324732473 L 216.9094291755883,247.3247324732473 L 218.30697937467562,247.77477747774776 L 221.5358022484291,249.62496249624962 L 223.70441462632323,251.57515751575156 L 224.2345198742529,251.8251825182518 L 226.5477064106733,251.2251225122512 L 228.18621354063777,251.3251325132513 L 229.8247206706022,251.2251225122512 L 230.7885483941107,251.67516751675166 L 231.46322780056667,252.4252425242524 L 232.23428997937347,253.57535753575357 L 232.57162968260144,254.67546754675467 L 232.95716077200484,254.9254925492549 L 234.35471097109217,254.77547754775478 L 234.98119899137268,254.87548754875485 L 236.08960087340748,255.77557755775575 L 236.7642802798634,255.97559755975595 L 238.98108404393298,255.6255625562556 L 240.33044285684488,258.07580758075807 L 242.1135241453356,259.3259325932593 L 244.3785192955806,261.52615261526154 L 244.9568159296857,261.72617261726174 L 246.78808860435183,261.8761876187619 L 247.6555335555095,262.57625762576254 L 248.08925603108833,263.17631763176314 L 248.8121268237197,265.17651765176515 L 249.34223207164936,265.77657765776576 L 252.71562910392913,268.3768376837684 L 253.58307405508677,267.97679767976797 L 254.11317930301644,266.8266826682668 L 255.46253811592834,266.67666766676666 L 266.64293970862695,269.4769476947695 L 269.8717625823804,269.62696269626963 L 271.0765472367661,269.5769576957696 L 271.55846109852035,269.82698269826983 L 272.08856634645,270.3770377037704 L 272.76324575290596,272.3272327232723 L 272.71505436673056,273.1273127312731 L 271.8958008017483,274.5274527452745 L 271.8958008017483,275.17751775177516 L 272.81143713908136,276.2276227622762 L 273.48611654553736,277.57775777577757 L 273.91983902111616,279.32793279327933 L 273.67888209023903,280.0780078007801 L 273.72707347641443,280.62806280628064 L 274.49813565522123,281.77817781778174 L 275.26919783402803,283.47834783478345 L 276.1366427851857,284.27842784278425 L 276.37759971606283,284.77847784778476 L 276.37759971606283,285.4285428542854 L 275.60653753725603,286.6286628662866 L 275.51015476490517,287.2287228722872 L 276.37759971606283,288.2788278827883 L 278.11248961837816,289.82898289828984 L 278.4498293216061,290.3790379037904 L 278.59440348013237,291.2291229122912 L 278.0161068460273,293.67936793679365 L 277.91972407367643,294.8294829482948 L 278.0161068460273,296.07960796079607 L 278.69078625248324,299.4799479947995 L 278.69078625248324,300.38003800380034 L 277.6787671427993,301.38013801380134 L 277.10047050869423,302.38023802380235 L 276.57036526076456,302.7302730273027 L 276.04026001283484,302.7302730273027 L 275.1728150616772,303.030303030303 L 274.83547535844923,303.48034803480346 L 274.49813565522123,304.78047804780476 L 273.3897337731865,306.3306330633063 L 272.81143713908136,307.8807880788079 L 272.42590604967796,308.43084308430844 L 270.88378169206436,309.2809280928093 L 269.486231492977,311.031103110311 L 269.4380401068016,311.5311531153115 L 271.7030352570466,313.98139813981396 L 271.8476094155729,316.6816681668167 L 272.42590604967796,318.13181318131814 L 272.71505436673056,321.08210821082105 L 274.7872839722738,324.032403240324 L 279.07631734188664,338.03380338033804 L 278.16068100455357,337.73377337733774 L 276.81132219164164,336.53365336533653 L 277.91972407367643,340.58405840584055 L 277.48600159809763,342.18421842184216 L 275.22100644785263,343.38433843384337 L 274.30537011051956,344.0844084408441 L 274.2089873381687,346.13461346134613 L 273.58249931788816,346.63466346634664 L 270.9319730782398,346.53465346534654 L 270.2091022856084,346.6846684668467 L 267.3176191150829,349.3349334933493 L 265.6791119851185,356.7856785678568 L 263.9924134689786,359.18591859185915 L 262.1611407943124,359.4359435943594 L 258.16125574175214,358.3358335833583 L 256.329983067086,358.6358635863586 L 255.60711227445464,359.4359435943594 L 254.7878587094724,361.8361836183618 L 253.96860514449017,362.8362836283628 L 253.00477742098167,363.4363436343634 L 252.13733246982403,363.7363736373637 L 250.45063395368413,363.986398639864 L 248.47478712049173,363.9363936393639 L 247.41457662463236,363.7363736373637 L 246.93266276287812,363.2863286328633 L 246.691705832001,362.036203620362 L 245.3905384052645,361.38613861386136 L 243.6074571167738,358.8358835883588 L 242.25809830386189,359.98599859985995 L 239.9931031536169,363.986398639864 L 238.69193572688042,362.036203620362 L 235.27034730842524,358.68586858685865 L 234.21013681256588,358.2358235823582 z" /><path fill-rule="evenodd" fill="#D2EBD9" stroke="#A6A6A6" stroke-width="0.25" opacity="1" d="M 78.84110778299544,243.07430743074306 L 80.23865798208276,246.4246424642464 L 80.38323214060904,247.87478747874786 L 78.9856819415217,252.1252125212521 L 78.74472501064459,253.97539753975397 L 78.88929916917085,255.87558755875585 L 79.85312689267936,257.1257125712571 L 81.15429431941584,257.87578757875787 L 82.60003590467859,258.37583758375837 L 85.78066739225665,259.0759075907591 L 87.51555729457195,260.3760376037604 L 90.45523185127287,262.97629762976294 L 91.51544234713222,263.6263626362636 L 92.33469591211446,263.9263926392639 L 93.63586333885092,263.97639763976395 L 94.69607383471028,263.47634763476344 L 99.46702106607736,260.3760376037604 L 100.23808324488417,259.6259625962596 L 102.2139300780766,258.7258725872587 L 103.5632888909885,258.975897589759 L 106.31019790298772,261.12611261126114 L 107.70774810207506,262.47624762476244 L 107.70774810207506,263.3263326332633 L 106.6475376062157,264.77647764776475 L 103.5632888909885,267.9267926792679 L 103.08137502923425,268.7768776877688 L 102.93680087070797,272.77727772777274 L 103.08137502923425,274.07740774077405 L 103.85243720804105,276.57765776577656 L 103.99701136656732,278.8778877887789 L 103.85243720804105,278.9278927892789 L 106.59934622004027,282.37823782378234 L 107.03306869561911,283.4283428342834 L 106.40658067533857,285.87858785878586 L 106.21381513063687,287.2787278727873 L 106.6475376062157,287.8787878787879 L 107.56317394354878,288.52885288528853 L 107.65955671589963,291.67916791679164 L 107.90051364677676,292.7292729272927 L 108.67157582558356,293.17931793179315 L 111.90039869933703,293.57935793579355 L 114.21358523575744,294.47944794479446 L 115.99666652424817,295.2295229522952 L 116.71953731687954,296.07960796079607 L 118.64719276389654,299.3799379937994 L 115.12922157309052,298.62986298629863 L 102.2139300780766,298.5798579857986 L 96.09362403379761,296.1296129612961 L 95.12979631028911,295.57955795579556 L 93.92501165590348,294.5294529452945 L 91.80459066418477,293.1293129312931 L 89.63597828629065,292.2292229222922 L 88.62395917660672,292.07920792079204 L 87.94927977015077,292.17921792179214 L 86.2625812540109,293.87938793879385 L 85.82885877843206,294.47944794479446 L 85.44332768902866,295.47954795479546 L 84.3349258069939,296.57965796579657 L 84.19035164846761,297.2297229722972 L 84.57588273787101,298.62986298629863 L 84.38311719316931,299.42994299429944 L 84.76864828257271,300.7300730073007 L 84.09396887611676,302.8302830283028 L 84.86503105492356,305.48054805480547 L 84.43130857934474,306.6806680668067 L 84.38311719316931,307.3807380738074 L 84.62407412404644,307.5807580758076 L 85.05779659962526,307.63076307630763 L 86.88906927429142,307.5807580758076 L 87.27460036369482,307.6807680768077 L 87.37098313604567,307.8807880788079 L 86.79268650194057,308.73087308730874 L 86.840877888116,309.23092309230924 L 86.6481123434143,309.68096809680964 L 86.02162432313376,310.28102810281024 L 78.64834223829374,311.8311831183118 L 77.53994035625895,311.8311831183118 L 75.3231365921894,311.2311231123112 L 72.8171845110673,311.031103110311 L 71.41963431197996,311.18111811181114 L 64.86560579212215,313.48134813481346 L 64.14273499949078,313.48134813481346 L 63.22709866215771,313.1313131313131 L 63.660821137736534,311.8311831183118 L 63.13071588980686,309.5809580958096 L 63.08252450363143,308.53085308530854 L 63.27529004833313,307.33073307330733 L 63.13071588980686,306.3306330633063 L 60.09465856075507,297.92979297929793 L 58.55253420314147,294.57945794579456 L 58.45615143079062,293.67936793679365 L 58.600725589316895,293.029302930293 L 59.80551024370252,291.67916791679164 L 60.19104133310592,291.029102910291 L 60.5283810363339,289.62896289628964 L 60.09465856075507,285.4285428542854 L 59.179022223421995,281.7281728172817 L 58.889873906369445,280.92809280928094 L 58.407960044615194,280.3780378037804 L 57.97423756903637,280.2780278027803 L 57.01040984552787,280.62806280628064 L 56.046582122019366,280.6780678067807 L 54.600840536756614,279.82798279827983 L 54.02254390265151,279.22792279227923 L 53.25148172384471,277.9277927792779 L 52.86595063444131,276.8276827682768 L 52.72137647591504,275.37753775377536 L 52.48041954503791,274.6274627462746 L 52.046697069459086,274.17741774177415 L 50.793721028898034,273.87738773877385 L 49.10702251275816,273.07730773077304 L 47.90223785837253,271.8271827182718 L 46.986601521039454,270.42704270427043 L 46.60107043163605,269.4769476947695 L 46.45649627310978,268.5768576857686 L 46.986601521039454,265.6265626562656 L 49.78170191921411,264.6264626462646 L 68.33538559675276,254.52545254525452 L 72.86537589724271,251.4251425142514 L 76.76887817745215,247.27472747274726 L 78.84110778299544,243.07430743074306 z" /><path fill-rule="evenodd" fill="#D2EBD9" stroke="#A6A6A6" stroke-width="0.25" opacity="1" d="M 98.84053304579685,221.7221722172217 L 101.29829374074352,229.72297229722972 L 102.0211645333749,230.82308230823082 L 103.99701136656732,232.2232223222322 L 106.35838928916316,233.07330733073306 L 110.16550879702173,236.023602360236 L 116.52677177217784,238.5238523852385 L 117.49059949568634,239.12391239123912 L 118.69538415007197,240.27402740274027 L 120.6712309832644,244.02440244024402 L 121.8278242514746,245.6245624562456 L 126.88791979989423,247.4247424742474 L 128.67100108838497,248.97489748974897 L 129.1529149501392,251.97519751975196 L 129.00834079161294,258.9258925892589 L 128.5746183160341,261.5761576157616 L 127.94813029575359,263.5263526352635 L 125.77951791785947,266.6266626662666 L 125.39398682845606,268.3768376837684 L 126.02047484873658,270.22702270227023 L 131.94801534831387,281.67816781678164 L 132.188972279191,282.77827782778274 L 131.8034411897876,285.7285728572857 L 129.8757857427706,287.3287328732873 L 128.67100108838497,287.7287728772877 L 126.02047484873658,287.4287428742874 L 120.91218791414153,287.7287728772877 L 119.51463771505419,288.2288228822882 L 118.30985306066857,289.12891289128913 L 117.92432197126517,290.12901290129014 L 114.21358523575744,294.47944794479446 L 111.90039869933703,293.57935793579355 L 108.67157582558356,293.17931793179315 L 107.90051364677676,292.7292729272927 L 107.65955671589963,291.67916791679164 L 107.56317394354878,288.52885288528853 L 106.6475376062157,287.8787878787879 L 106.21381513063687,287.2787278727873 L 106.40658067533857,285.87858785878586 L 107.03306869561911,283.4283428342834 L 106.59934622004027,282.37823782378234 L 103.85243720804105,278.9278927892789 L 103.99701136656732,278.8778877887789 L 103.85243720804105,276.57765776577656 L 103.08137502923425,274.07740774077405 L 102.93680087070797,272.77727772777274 L 103.08137502923425,268.7768776877688 L 103.5632888909885,267.9267926792679 L 106.6475376062157,264.77647764776475 L 107.70774810207506,263.3263326332633 L 107.70774810207506,262.47624762476244 L 106.31019790298772,261.12611261126114 L 103.5632888909885,258.975897589759 L 102.2139300780766,258.7258725872587 L 100.23808324488417,259.6259625962596 L 99.46702106607736,260.3760376037604 L 94.69607383471028,263.47634763476344 L 93.63586333885092,263.97639763976395 L 92.33469591211446,263.9263926392639 L 91.51544234713222,263.6263626362636 L 90.45523185127287,262.97629762976294 L 87.51555729457195,260.3760376037604 L 85.78066739225665,259.0759075907591 L 82.60003590467859,258.37583758375837 L 81.15429431941584,257.87578757875787 L 79.85312689267936,257.1257125712571 L 78.88929916917085,255.87558755875585 L 78.74472501064459,253.97539753975397 L 78.9856819415217,252.1252125212521 L 80.38323214060904,247.87478747874786 L 80.23865798208276,246.4246424642464 L 78.84110778299544,243.07430743074306 L 79.5639785756268,241.6241624162416 L 81.49163402264381,242.97429742974296 L 82.74461006320486,243.3243324332433 L 84.38311719316931,243.3243324332433 L 81.68439956734551,240.6240624062406 L 80.5278062991353,237.97379737973796 L 80.91333738853871,235.07350735073507 L 82.88918422173114,231.8231823182318 L 81.63620818117009,232.1232123212321 L 80.76876323001244,232.6232623262326 L 80.1422752097319,233.27332733273326 L 79.5639785756268,234.27342734273427 L 78.69653362446915,232.2232223222322 L 81.00972016088956,230.12301230123012 L 96.19000680614846,222.37223722372235 L 98.84053304579685,221.7221722172217 z" /><path fill-rule="evenodd" fill="#D2EBD9" stroke="#A6A6A6" stroke-width="0.25" opacity="1" d="M 130.59865653540197,213.3213321332133 L 131.851632575963,215.82158215821582 L 131.9962067344893,216.42164216421642 L 133.2009913888749,218.4218421842184 L 133.3937569335766,219.021902190219 L 132.8154602994715,220.72207220722072 L 132.7672689132961,221.37213721372137 L 133.3937569335766,225.47254725472547 L 133.63471386445374,225.97259725972597 L 135.41779515294448,228.17281728172816 L 135.99609178704958,229.42294229422941 L 136.38162287645298,229.77297729772977 L 137.68279030318945,230.37303730373037 L 138.06832139259285,231.07310731073105 L 138.11651277876828,231.77317731773175 L 137.87555584789115,232.37323732373235 L 137.24906782761062,233.2233223322332 L 137.15268505525978,235.22352235223522 L 140.04416822578528,236.67366736673665 L 142.06820644515312,238.57385738573856 L 142.79107723778452,239.72397239723972 L 143.22479971336332,240.67406740674065 L 143.22479971336332,241.37413741374135 L 142.64650307925822,243.17431743174316 L 142.64650307925822,244.47444744474447 L 142.88746001013536,245.02450245024502 L 146.55000535946766,248.92489248924892 L 147.65840724150243,251.27512751275125 L 148.42946942030926,253.57535753575357 L 148.42946942030926,254.12541254125412 L 148.09212971708126,254.52545254525452 L 147.08011060739733,255.07550755075505 L 146.83915367652023,255.57555755575555 L 146.64638813181853,256.67566756675666 L 145.4416034774329,257.47574757475746 L 145.20064654655576,258.3258325832583 L 146.69457951799393,259.2259225922592 L 150.93542150143136,260.0760076007601 L 152.86307694844837,260.72607260726073 L 154.1160529890094,260.32603260326033 L 154.59796685076367,260.12601260126013 L 154.40520130606197,258.27582758275827 L 154.59796685076367,257.77577757775776 L 154.93530655399164,257.4257425742574 L 156.09189982220184,256.6256625662566 L 156.67019645630694,255.7255725572557 L 159.27253130977988,254.67546754675467 L 160.2845504194638,253.52535253525352 L 160.6700815088672,253.22532253225322 L 161.39295230149858,253.02530253025301 L 162.30858863883168,252.97529752975296 L 164.95911487848005,253.52535253525352 L 166.45304784991822,254.77547754775478 L 167.85059804900555,256.3256325632563 L 168.23612913840896,256.47564756475646 L 170.11559319925053,256.17561756175616 L 171.6095261706887,256.4256425642564 L 173.2962246868286,256.37563756375636 L 176.52504756058207,255.4255425542554 L 178.40451162142364,255.2255225522552 L 180.33216706844064,256.3256325632563 L 183.41641578366784,259.1259125912591 L 184.52481766570264,260.3760376037604 L 185.77779370626368,261.12611261126114 L 187.41630083622815,261.1761176117612 L 187.99459747033325,261.02610261026103 L 190.25959262057822,259.7759775977598 L 191.12703757173585,259.4759475947595 L 192.47639638464776,259.5759575957596 L 194.98234846576986,262.026202620262 L 203.80137213587267,272.67726772677264 L 206.2109414446439,277.9277927792779 L 206.789238078749,279.72797279727973 L 206.789238078749,281.2281228122812 L 206.06636728611764,283.87838783878385 L 205.34349649348627,284.9284928492849 L 204.52424292850404,285.77857785778576 L 202.933927184715,286.97869786978697 L 200.0424440141895,288.6788678867887 L 197.97021440864623,289.2789278927893 L 197.00638668513773,289.2789278927893 L 196.09075034780466,288.72887288728873 L 195.27149678282242,287.9287928792879 L 194.4522432178402,286.6286628662866 L 194.01852074226136,284.97849784978496 L 194.30766905931392,280.72807280728074 L 193.8739465837351,279.7779777977798 L 192.1390566814198,278.1778177817782 L 191.41618588878842,276.87768776877687 L 190.83788925468332,274.97749774977495 L 190.64512370998162,273.2273227322732 L 190.16320984822735,271.42714271427144 L 189.10299935236802,270.42704270427043 L 187.75364053945611,269.82698269826983 L 186.93438697447388,269.6769676967697 L 186.30789895419335,269.72697269726973 L 185.48864538921114,270.32703270327033 L 182.21163112928224,274.4274427442744 L 180.91046370254574,275.27752775277526 L 178.25993746289737,276.1276127612761 L 173.2962246868286,277.3277327732773 L 172.23601419096923,277.4277427742774 L 170.4529329024785,276.8276827682768 L 167.7542152766547,275.3275327532753 L 166.16389953286568,274.87748774877485 L 165.2482631955326,274.77747774777475 L 164.2844354720241,274.87748774877485 L 149.77882823322116,279.72797279727973 L 148.76680912353723,280.2780278027803 L 146.74277090416936,281.77817781778174 L 144.18862743687183,284.3284328432843 L 141.7790581281006,285.67856785678566 L 140.81523040459209,286.028602860286 L 140.04416822578528,286.2286228622862 L 135.70694346999701,285.77857785778576 L 131.8034411897876,285.7285728572857 L 132.188972279191,282.77827782778274 L 131.94801534831387,281.67816781678164 L 126.02047484873658,270.22702270227023 L 125.39398682845606,268.3768376837684 L 125.77951791785947,266.6266626662666 L 127.94813029575359,263.5263526352635 L 128.5746183160341,261.5761576157616 L 129.00834079161294,258.9258925892589 L 129.1529149501392,251.97519751975196 L 128.67100108838497,248.97489748974897 L 126.88791979989423,247.4247424742474 L 121.8278242514746,245.6245624562456 L 120.6712309832644,244.02440244024402 L 118.69538415007197,240.27402740274027 L 117.49059949568634,239.12391239123912 L 116.52677177217784,238.5238523852385 L 110.16550879702173,236.023602360236 L 106.35838928916316,233.07330733073306 L 103.99701136656732,232.2232223222322 L 102.0211645333749,230.82308230823082 L 101.29829374074352,229.72297229722972 L 98.84053304579685,221.7221722172217 L 120.04474296298388,216.42164216421642 L 123.80367108466703,214.9214921492149 L 127.08068534459593,212.9212921292129 L 128.86376663308667,210.72107210721072 L 127.99632168192902,213.4213421342134 L 125.29760405610521,215.67156715671567 L 119.17729801182622,218.8218821882188 L 119.17729801182622,219.7219721972197 L 121.4422931620712,219.57195719571956 L 123.41813999526363,218.77187718771876 L 127.22525950312222,216.37163716371637 L 129.00834079161294,215.021502150215 L 130.59865653540197,213.3213321332133 z" /><path fill-rule="evenodd" fill="#D2EBD9" stroke="#A6A6A6" stroke-width="0.25" opacity="1" d="M 205.2471137211354,145.86458645864585 L 205.34349649348627,146.9146914691469 L 205.5844534243634,147.3147314731473 L 206.0181758999422,147.7147714771477 L 207.3193433266787,148.3148314831483 L 207.7048744160821,148.76487648764876 L 207.8976399607838,149.51495149514952 L 208.76508491194144,151.015101510151 L 211.51199392394068,153.56535653565356 L 211.89752501334408,154.26542654265427 L 212.18667333039662,155.36553655365535 L 212.23486471657205,156.66566656665665 L 211.41561115158981,160.26602660266025 L 210.2108264972042,162.46624662466246 L 209.92167818015164,163.36633663366337 L 209.92167818015164,164.8164816481648 L 210.93369728983558,167.016701670167 L 210.981888676011,168.11681168116812 L 210.644548972783,169.3169316931693 L 209.6325298630991,171.56715671567156 L 209.4397643183974,173.26732673267327 L 209.8252954078008,174.76747674767475 L 210.2108264972042,175.6175617561756 L 214.01794600506278,181.7181718171817 L 214.16252016358905,182.16821682168217 L 214.16252016358905,182.96829682968297 L 213.1023096677297,185.1185118511851 L 212.909544123028,186.3186318631863 L 213.82518046036108,188.36883688368835 L 213.43964937095768,190.06900690069006 L 213.4878407571331,190.9190919091909 L 214.93358234239585,195.4195419541954 L 214.98177372857128,196.61966196619662 L 214.69262541151872,198.3198319831983 L 214.83719957004502,199.26992699269925 L 215.94560145207979,200.27002700270026 L 218.93346739495612,201.42014201420142 L 219.65633818758752,202.6202620262026 L 219.65633818758752,204.7204720472047 L 220.04186927699092,205.72057205720571 L 220.90931422814856,206.62066206620662 L 221.63218502077993,206.97069706970697 L 222.885161061341,207.2207220722072 L 225.92121839039277,207.17071707170717 L 227.17419443095383,206.77067706770677 L 228.81270156091827,205.020502050205 L 229.29461542267254,204.97049704970496 L 229.77652928442677,205.17051705170516 L 230.45120869088274,205.97059705970597 L 233.00535215818027,210.1210121012101 L 233.6800315646362,210.92109210921092 L 237.34257691396851,214.27142714271426 L 238.06544770659988,215.62156215621562 L 236.90885443838968,221.77217721772175 L 236.86066305221428,223.57235723572356 L 236.90885443838968,224.4224422442244 L 237.77629938954735,227.4227422742274 L 237.87268216189818,228.2228222822282 L 237.82449077572278,229.42294229422941 L 237.24619414161768,231.47314731473145 L 237.29438552779308,231.9231923192319 L 237.87268216189818,232.77327732773276 L 238.83650988540668,233.57335733573356 L 239.36661513333638,233.77337733773376 L 244.0411795923526,234.77347734773477 L 247.2700024661061,235.9235923592359 L 248.13744741726373,236.27362736273625 L 249.7759545472282,237.37373737373736 L 274.64270981374756,237.47374737473746 L 274.73909258609837,240.97409740974095 L 275.07643228932636,242.8242824282428 L 274.9800495169755,245.97459745974595 L 275.99206862665943,249.22492249224922 L 276.61855664693996,252.07520752075206 L 276.42579110223824,252.9252925292529 L 275.943877240484,253.27532753275327 L 275.3655806063789,253.47534753475347 L 274.2089873381687,253.17531753175317 L 273.87164763494076,253.37533753375337 L 273.87164763494076,253.87538753875387 L 274.88366674462463,255.8255825582558 L 275.60653753725603,259.8259825982598 L 275.99206862665943,260.8760876087609 L 277.48600159809763,262.8262826282628 L 279.5582312036409,263.7263726372637 L 279.9919536792197,264.07640764076405 L 280.9075900165528,266.97669766976696 L 280.66663308567564,267.6267626762676 L 279.9437622930443,268.17681768176817 L 279.41365704511463,268.3268326832683 L 278.54621209395697,268.4768476847685 L 276.61855664693996,267.6267626762676 L 275.22100644785263,267.87678767876787 L 269.8717625823804,269.62696269626963 L 266.64293970862695,269.4769476947695 L 255.46253811592834,266.67666766676666 L 254.11317930301644,266.8266826682668 L 253.58307405508677,267.97679767976797 L 252.71562910392913,268.3768376837684 L 249.34223207164936,265.77657765776576 L 248.8121268237197,265.17651765176515 L 248.08925603108833,263.17631763176314 L 247.6555335555095,262.57625762576254 L 246.78808860435183,261.8761876187619 L 244.9568159296857,261.72617261726174 L 244.3785192955806,261.52615261526154 L 242.1135241453356,259.3259325932593 L 240.33044285684488,258.07580758075807 L 238.98108404393298,255.6255625562556 L 236.7642802798634,255.97559755975595 L 236.08960087340748,255.77557755775575 L 234.98119899137268,254.87548754875485 L 234.35471097109217,254.77547754775478 L 232.95716077200484,254.9254925492549 L 232.57162968260144,254.67546754675467 L 232.23428997937347,253.57535753575357 L 231.46322780056667,252.4252425242524 L 230.7885483941107,251.67516751675166 L 229.8247206706022,251.2251225122512 L 228.18621354063777,251.3251325132513 L 226.5477064106733,251.2251225122512 L 224.2345198742529,251.8251825182518 L 223.70441462632323,251.57515751575156 L 221.5358022484291,249.62496249624962 L 218.30697937467562,247.77477747774776 L 216.9094291755883,247.3247324732473 L 215.94560145207979,247.3247324732473 L 215.31911343179925,248.17481748174816 L 215.02996511474672,249.07490749074907 L 215.07815650092212,249.97499749974997 L 215.41549620415012,250.9250925092509 L 216.5238980861849,252.77527752775276 L 219.51176402906123,256.57565756575656 L 221.1502711590257,258.17581758175817 L 222.59601274428846,259.8759875987599 L 223.0779266060427,261.1761176117612 L 222.83696967516556,262.7262726272627 L 221.82495056548163,264.2264226422642 L 219.029850167307,266.67666766676666 L 215.94560145207979,270.42704270427043 L 214.74081679769415,271.42714271427144 L 213.58422352948395,271.97719771977194 L 212.909544123028,272.07720772077204 L 206.06636728611764,271.32713271327134 L 205.19892233496,271.3771377137714 L 204.37966876997777,271.87718771877184 L 203.80137213587267,272.67726772677264 L 194.98234846576986,262.026202620262 L 192.47639638464776,259.5759575957596 L 191.12703757173585,259.4759475947595 L 190.25959262057822,259.7759775977598 L 187.99459747033325,261.02610261026103 L 187.41630083622815,261.1761176117612 L 185.77779370626368,261.12611261126114 L 184.52481766570264,260.3760376037604 L 183.41641578366784,259.1259125912591 L 180.33216706844064,256.3256325632563 L 178.40451162142364,255.2255225522552 L 176.52504756058207,255.4255425542554 L 173.2962246868286,256.37563756375636 L 171.6095261706887,256.4256425642564 L 170.11559319925053,256.17561756175616 L 168.23612913840896,256.47564756475646 L 167.85059804900555,256.3256325632563 L 166.45304784991822,254.77547754775478 L 164.95911487848005,253.52535253525352 L 162.30858863883168,252.97529752975296 L 161.39295230149858,253.02530253025301 L 160.6700815088672,253.22532253225322 L 160.2845504194638,253.52535253525352 L 159.27253130977988,254.67546754675467 L 156.67019645630694,255.7255725572557 L 156.09189982220184,256.6256625662566 L 154.93530655399164,257.4257425742574 L 154.59796685076367,257.77577757775776 L 154.40520130606197,258.27582758275827 L 154.59796685076367,260.12601260126013 L 154.1160529890094,260.32603260326033 L 152.86307694844837,260.72607260726073 L 150.93542150143136,260.0760076007601 L 146.69457951799393,259.2259225922592 L 145.20064654655576,258.3258325832583 L 145.4416034774329,257.47574757475746 L 146.64638813181853,256.67566756675666 L 146.83915367652023,255.57555755575555 L 147.08011060739733,255.07550755075505 L 148.09212971708126,254.52545254525452 L 148.42946942030926,254.12541254125412 L 148.42946942030926,253.57535753575357 L 147.65840724150243,251.27512751275125 L 146.55000535946766,248.92489248924892 L 142.88746001013536,245.02450245024502 L 142.64650307925822,244.47444744474447 L 142.64650307925822,243.17431743174316 L 143.22479971336332,241.37413741374135 L 143.22479971336332,240.67406740674065 L 142.79107723778452,239.72397239723972 L 142.06820644515312,238.57385738573856 L 140.04416822578528,236.67366736673665 L 137.15268505525978,235.22352235223522 L 137.24906782761062,233.2233223322332 L 137.87555584789115,232.37323732373235 L 138.11651277876828,231.77317731773175 L 138.06832139259285,231.07310731073105 L 137.68279030318945,230.37303730373037 L 136.38162287645298,229.77297729772977 L 135.99609178704958,229.42294229422941 L 135.41779515294448,228.17281728172816 L 133.63471386445374,225.97259725972597 L 133.3937569335766,225.47254725472547 L 132.7672689132961,221.37213721372137 L 132.8154602994715,220.72207220722072 L 133.3937569335766,219.021902190219 L 133.2009913888749,218.4218421842184 L 131.9962067344893,216.42164216421642 L 131.851632575963,215.82158215821582 L 130.59865653540197,213.3213321332133 L 132.188972279191,212.07120712071205 L 134.5503502017868,211.52115211521152 L 134.02024495385714,210.42104210421041 L 133.24918277505034,209.97099709970996 L 132.33354643771727,210.07100710071006 L 131.2733359418579,210.72107210721072 L 130.93599623862994,209.1209120912091 L 132.188972279191,207.57075707570755 L 134.26120188473428,206.37063706370637 L 138.69480941287338,205.47054705470546 L 140.86342179076752,204.5204520452045 L 147.12830199357276,200.57005700570056 L 151.94744061111527,195.3195319531953 L 160.2845504194638,188.7188718871887 L 161.53752646002488,188.01880188018802 L 163.32060774851558,187.61876187618762 L 165.4410287402343,186.5186518651865 L 167.27230141490045,184.96849684968495 L 168.38070329693522,183.16831683168317 L 168.57346884163692,181.76817681768176 L 168.04336359370726,180.26802680268025 L 168.38070329693522,179.06790679067905 L 169.1035740895666,178.16781678167817 L 171.1758036951099,176.96769676967696 L 172.04324864626753,176.26762676267626 L 176.23589924352953,171.5171517151715 L 192.42820499847235,158.2158215821582 L 205.2471137211354,145.86458645864585 z" /><path fill-rule="evenodd" fill="#D2EBD9" stroke="#A6A6A6" stroke-width="0.25" opacity="1" d="M 242.35448107621272,109.2109210921092 L 242.78820355179155,109.46094609460945 L 242.836394937967,109.66096609660966 L 242.54724662091442,110.16101610161016 L 241.19788780800252,111.26112611261125 L 241.00512226330082,112.61126112611261 L 241.19788780800252,113.46134613461345 L 243.6074571167738,114.4114411441144 L 244.86043315733482,115.46154615461546 L 245.82426088084333,115.9115911591159 L 246.1616005840713,116.26162616261625 L 246.7398972181764,118.011801180118 L 247.31819385228152,118.96189618961895 L 247.94468187256203,119.16191619161916 L 249.3904234578248,119.2119211921192 L 250.06510286428073,119.76197619761976 L 253.34211712420964,124.11241124112411 L 253.8240309859639,125.1125112511251 L 254.30594484771814,127.11271127112711 L 254.49871039241984,128.76287628762876 L 252.0891410836486,139.56395639563956 L 251.46265306336807,141.36413641364135 L 250.59520811221043,142.8142814281428 L 249.92052870575446,144.36443644364437 L 249.48680623017563,146.06460646064605 L 251.94456692512233,148.7148714871487 L 255.1733897988758,150.56505650565055 L 258.54678683115554,153.91539153915392 L 260.42625089199714,155.3155315531553 L 264.7634756477854,157.2157215721572 L 268.3778296109423,160.01600160016 L 269.8717625823804,160.6160616061606 L 272.37771466350256,161.016101610161 L 273.53430793171276,161.4161416141614 L 274.44994426904583,162.3162316231623 L 274.88366674462463,163.61636163616362 L 275.22100644785263,166.9166916691669 L 275.5583461510806,168.41684168416842 L 277.00408773634337,171.3171317131713 L 278.93174318336037,173.76737673767377 L 281.38950387830704,175.5175517551755 L 282.064183284763,179.26792679267925 L 283.12439378062237,181.06810681068106 L 283.1725851667978,181.46814681468146 L 282.49790576034184,182.91829182918292 L 281.24492971978077,184.56845684568455 L 280.9075900165528,185.36853685368536 L 280.85939863037737,185.9185918591859 L 281.34131249213164,187.41874187418742 L 282.6424799188681,188.4188418841884 L 280.7148244718511,190.86908690869086 L 279.65461397599177,191.36913691369136 L 279.6064225898163,191.66916691669167 L 280.3292933824477,194.019401940194 L 281.96780051241217,193.96939693969395 L 282.6424799188681,194.26942694269425 L 283.5581162562012,195.1195119511951 L 283.4617334838503,195.5195519551955 L 281.5340780368333,197.06970697069707 L 280.7630158580265,197.96979697969795 L 281.05216417507904,198.7198719871987 L 283.0280110082715,201.07010701070107 L 283.26896793914864,201.57015701570157 L 282.97981962209604,202.42024202420242 L 282.0159918985876,204.07040704070405 L 281.72684358153504,204.4204420442044 L 281.05216417507904,204.7204720472047 L 280.61844169950024,205.1205120512051 L 281.1485469474299,207.12071207120712 L 281.00397278890364,209.37093709370936 L 280.18471922392143,210.3210321032103 L 277.72695852897476,211.97119711971195 L 277.38961882574677,212.4212421242124 L 277.48600159809763,212.67126712671265 L 278.49802070778156,213.2213221322132 L 278.7871690248341,214.07140714071406 L 279.31727427276377,214.57145714571456 L 279.3654656589392,216.02160216021602 L 279.5582312036409,216.77167716771675 L 279.79918813451803,216.8216821682168 L 279.9919536792197,216.67166716671667 L 280.5220589271494,215.77157715771577 L 280.81120724420197,215.77157715771577 L 281.72684358153504,217.021702170217 L 282.16056605711384,219.17191719171916 L 283.99183873178,219.92199219921991 L 284.329178435008,220.22202220222022 L 284.3773698211834,220.82208220822082 L 283.6063076423766,226.97269726972695 L 283.75088180090285,227.47274727472745 L 284.3773698211834,227.97279727972796 L 284.1846042764817,228.4228422842284 L 283.4617334838503,228.9228922892289 L 281.24492971978077,229.97299729972997 L 278.0642982322027,230.82308230823082 L 276.9077049639925,232.3232323232323 L 274.64270981374756,237.47374737473746 L 249.7759545472282,237.37373737373736 L 248.13744741726373,236.27362736273625 L 247.2700024661061,235.9235923592359 L 244.0411795923526,234.77347734773477 L 239.36661513333638,233.77337733773376 L 238.83650988540668,233.57335733573356 L 237.87268216189818,232.77327732773276 L 237.29438552779308,231.9231923192319 L 237.24619414161768,231.47314731473145 L 237.82449077572278,229.42294229422941 L 237.87268216189818,228.2228222822282 L 237.77629938954735,227.4227422742274 L 236.90885443838968,224.4224422442244 L 236.86066305221428,223.57235723572356 L 236.90885443838968,221.77217721772175 L 238.06544770659988,215.62156215621562 L 237.34257691396851,214.27142714271426 L 233.6800315646362,210.92109210921092 L 233.00535215818027,210.1210121012101 L 230.45120869088274,205.97059705970597 L 229.77652928442677,205.17051705170516 L 229.29461542267254,204.97049704970496 L 228.81270156091827,205.020502050205 L 227.17419443095383,206.77067706770677 L 225.92121839039277,207.17071707170717 L 222.885161061341,207.2207220722072 L 221.63218502077993,206.97069706970697 L 220.90931422814856,206.62066206620662 L 220.04186927699092,205.72057205720571 L 219.65633818758752,204.7204720472047 L 219.65633818758752,202.6202620262026 L 218.93346739495612,201.42014201420142 L 215.94560145207979,200.27002700270026 L 214.83719957004502,199.26992699269925 L 214.69262541151872,198.3198319831983 L 214.98177372857128,196.61966196619662 L 214.93358234239585,195.4195419541954 L 213.4878407571331,190.9190919091909 L 213.43964937095768,190.06900690069006 L 213.82518046036108,188.36883688368835 L 212.909544123028,186.3186318631863 L 213.1023096677297,185.1185118511851 L 214.16252016358905,182.96829682968297 L 214.16252016358905,182.16821682168217 L 214.01794600506278,181.7181718171817 L 210.2108264972042,175.6175617561756 L 209.8252954078008,174.76747674767475 L 209.4397643183974,173.26732673267327 L 209.6325298630991,171.56715671567156 L 210.644548972783,169.3169316931693 L 210.981888676011,168.11681168116812 L 210.93369728983558,167.016701670167 L 209.92167818015164,164.8164816481648 L 209.92167818015164,163.36633663366337 L 210.2108264972042,162.46624662466246 L 211.41561115158981,160.26602660266025 L 212.23486471657205,156.66566656665665 L 212.18667333039662,155.36553655365535 L 211.89752501334408,154.26542654265427 L 211.51199392394068,153.56535653565356 L 208.76508491194144,151.015101510151 L 207.8976399607838,149.51495149514952 L 207.7048744160821,148.76487648764876 L 207.3193433266787,148.3148314831483 L 206.0181758999422,147.7147714771477 L 205.5844534243634,147.3147314731473 L 205.34349649348627,146.9146914691469 L 205.2471137211354,145.86458645864585 L 209.53614709074824,141.7141714171417 L 221.29484531755196,134.86348634863486 L 223.22250076456896,132.06320632063205 L 222.93335244751643,130.91309130913092 L 221.5358022484291,129.16291629162916 L 221.68037640695536,128.012801280128 L 222.40324719958676,128.06280628062805 L 227.80068245123437,126.76267626762676 L 229.8247206706022,125.7125712571257 L 231.7523761176192,124.36243624362436 L 233.00535215818027,123.16231623162315 L 234.0655626540396,121.06210621062105 L 235.31853869460068,116.76167616761676 L 236.13779225958288,115.01150115011501 L 242.35448107621272,109.2109210921092 z" /><path fill-rule="evenodd" fill="#D2EBD9" stroke="#A6A6A6" stroke-width="0.25" opacity="1" d="M 326.4966413385049,56.05560556055605 L 329.5808900537321,58.805880588058805 L 330.6411005495915,60.15601560156015 L 331.21939718369657,62.006200620062 L 331.4603541145737,63.75637563756375 L 332.32779906573137,66.75667566756675 L 332.7615215413102,67.45674567456746 L 333.195244016889,67.80678067806781 L 336.71321520769504,68.15681568156815 L 337.725234317379,68.55685568556855 L 338.2071481791332,68.95689568956895 L 340.23118639850105,72.95729572957295 L 342.92990402432486,77.7077707770777 L 344.3274542234122,79.35793579357936 L 347.7972340280428,81.35813581358136 L 355.60423858846167,87.35873587358735 L 356.47168353961933,87.8087808780878 L 362.4956068115475,87.9087908790879 L 364.0859225553365,88.4088408840884 L 365.0979416650204,89.30893089308931 L 366.0617693885289,90.95909590959096 L 369.8206975102121,95.45954595459546 L 370.4471855304926,96.05960596059606 L 371.4592046401765,96.65966596659665 L 372.9531376116147,97.2097209720972 L 373.24228592866723,100.96009600960096 L 373.09771177014096,102.8102810281028 L 372.6157979083867,104.7104710471047 L 372.085692660457,105.71057105710571 L 368.47133869730015,111.2111211121112 L 360.1824202751271,119.71197119711971 L 358.9776356207414,121.91219121912191 L 357.9656165110575,125.01250125012501 L 357.5800854216541,126.86268626862686 L 357.72465958018034,128.36283628362835 L 358.592104531338,132.7132713271327 L 358.83306146221514,133.96339633963396 L 358.78487007603974,134.86348634863486 L 358.2065734419346,135.71357135713572 L 357.5800854216541,136.1136113611361 L 355.94157829168967,136.7136713671367 L 354.11030561702347,137.1137113711371 L 353.146477893515,137.86378637863785 L 352.66456403176073,138.8138813881388 L 352.51998987323446,139.46394639463946 L 352.51998987323446,140.01400140014002 L 352.85732957646246,140.96409640964094 L 353.33924343821667,141.86418641864185 L 355.8451955193388,145.36453645364534 L 356.13434383639134,146.16461646164615 L 356.4234921534439,147.86478647864786 L 356.90540601519814,148.7148714871487 L 357.29093710460154,149.01490149014901 L 359.02582700691687,149.61496149614962 L 363.3630517627051,149.76497649764977 L 366.3509177055815,150.4150415041504 L 367.5075109737917,151.26512651265125 L 367.9412334493705,152.46524652465246 L 367.8930420631951,154.56545654565457 L 366.7846401811603,158.1158115811581 L 364.95336750649415,161.4161416141614 L 362.68837235624915,164.7164716471647 L 361.0498652262847,166.36663666366636 L 359.7005064133728,167.4167416741674 L 356.08615245021593,169.6169616961696 L 355.17051611288286,169.96699669966995 L 354.11030561702347,170.16701670167015 L 350.35137749534033,170.4170417041704 L 349.1947842271301,170.26702670267025 L 348.3755306621479,170.01700170017 L 347.9899995727445,169.7169716971697 L 340.4721433293782,160.5160516051605 L 333.7253492648187,163.46634663466347 L 303.02743627107293,180.66806680668066 L 301.2443549825822,177.96779677967797 L 300.087761714372,176.86768676867686 L 298.2082976535304,175.96759675967596 L 284.52194397970965,176.26762676267626 L 281.38950387830704,175.5175517551755 L 278.93174318336037,173.76737673767377 L 277.00408773634337,171.3171317131713 L 275.5583461510806,168.41684168416842 L 275.22100644785263,166.9166916691669 L 274.88366674462463,163.61636163616362 L 274.44994426904583,162.3162316231623 L 273.53430793171276,161.4161416141614 L 272.37771466350256,161.016101610161 L 269.8717625823804,160.6160616061606 L 268.3778296109423,160.01600160016 L 264.7634756477854,157.2157215721572 L 260.42625089199714,155.3155315531553 L 258.54678683115554,153.91539153915392 L 255.1733897988758,150.56505650565055 L 251.94456692512233,148.7148714871487 L 249.48680623017563,146.06460646064605 L 249.92052870575446,144.36443644364437 L 250.59520811221043,142.8142814281428 L 251.46265306336807,141.36413641364135 L 252.0891410836486,139.56395639563956 L 254.49871039241984,128.76287628762876 L 254.30594484771814,127.11271127112711 L 253.8240309859639,125.1125112511251 L 253.34211712420964,124.11241124112411 L 250.06510286428073,119.76197619761976 L 249.3904234578248,119.2119211921192 L 247.94468187256203,119.16191619161916 L 247.31819385228152,118.96189618961895 L 246.7398972181764,118.011801180118 L 246.1616005840713,116.26162616261625 L 245.82426088084333,115.9115911591159 L 244.86043315733482,115.46154615461546 L 243.6074571167738,114.4114411441144 L 241.19788780800252,113.46134613461345 L 241.00512226330082,112.61126112611261 L 241.19788780800252,111.26112611261125 L 242.54724662091442,110.16101610161016 L 242.836394937967,109.66096609660966 L 242.78820355179155,109.46094609460945 L 242.35448107621272,109.2109210921092 L 249.87233731957903,102.1102110211021 L 252.18552385599943,100.91009100910091 L 254.83605009564783,99.9099909990999 L 257.19742801824367,98.60986098609861 L 258.7395523758573,96.45964596459645 L 257.19742801824367,96.45964596459645 L 258.7877437620327,94.35943594359435 L 260.7153992090497,93.35933593359336 L 262.8358202007684,92.55925592559255 L 266.5465569362761,89.8089808980898 L 270.5946333750118,87.85878587858785 L 272.4740974358534,86.70867086708671 L 279.2208915004129,80.85808580858085 L 283.36535071149945,78.4078407840784 L 288.5700204184454,77.00770077007701 L 288.28087210139284,76.45764576457645 L 287.7989582396386,76.1076107610761 L 289.82299645900645,74.55745574557456 L 292.61809685718106,73.3073307330733 L 295.5095800277066,72.40724072407241 L 299.12393399086346,71.85718571857186 L 301.53350329963473,70.75707570757075 L 302.73828795402034,70.55705570557055 L 306.40083330335267,68.85688568856885 L 309.4368906324044,66.9066906690669 L 317.72580905457755,59.905990599059905 L 321.3883544039099,57.95579557955795 L 326.4966413385049,56.05560556055605 z" /><path fill-rule="evenodd" fill="#D2EBD9" stroke="#A6A6A6" stroke-width="0.25" opacity="1" d="M 427.69855230689757,12.8012801280128 L 429.8189732986163,16.5016501650165 L 430.5900354774231,18.25182518251825 L 430.73460963594937,19.05190519051905 L 430.6382268635985,23.352335233523352 L 430.87918379447564,25.6025602560256 L 431.84301151798417,29.75297529752975 L 431.12014072535277,31.803180318031803 L 428.3250403271781,36.6036603660366 L 426.63834181103823,38.9038903890389 L 421.48186349026776,47.65476547654765 L 420.71080131146095,48.65486548654865 L 418.8795286367948,50.405040504050405 L 416.2771937833218,51.95519551955195 L 408.6629547676047,55.305530553055306 L 399.74754832515106,58.4058405840584 L 398.8801033739934,59.1059105910591 L 398.25361535371286,59.905990599059905 L 397.81989287813406,60.906090609060904 L 397.53074456108146,62.55625562556255 L 397.53074456108146,63.706370637063706 L 401.67520377216806,73.95739573957395 L 403.41009367448333,77.15771577157716 L 406.9762562514648,82.85828582858285 L 407.65093565792074,84.20842084208421 L 407.84370120262247,85.008500850085 L 407.65093565792074,87.35873587358735 L 406.3979596173597,90.45904590459045 L 389.9646969315397,93.1093109310931 L 386.0611946513303,93.40934093409341 L 385.3383238586989,93.009300930093 L 384.80821861076925,93.009300930093 L 384.03715643196244,93.2093209320932 L 379.8926972208759,96.00960096009601 L 378.15780731856063,96.55965596559655 L 372.9531376116147,97.2097209720972 L 371.4592046401765,96.65966596659665 L 370.4471855304926,96.05960596059606 L 369.8206975102121,95.45954595459546 L 366.0617693885289,90.95909590959096 L 365.0979416650204,89.30893089308931 L 364.0859225553365,88.4088408840884 L 362.4956068115475,87.9087908790879 L 356.47168353961933,87.8087808780878 L 355.60423858846167,87.35873587358735 L 347.7972340280428,81.35813581358136 L 344.3274542234122,79.35793579357936 L 342.92990402432486,77.7077707770777 L 340.23118639850105,72.95729572957295 L 338.2071481791332,68.95689568956895 L 337.725234317379,68.55685568556855 L 336.71321520769504,68.15681568156815 L 333.195244016889,67.80678067806781 L 332.7615215413102,67.45674567456746 L 332.32779906573137,66.75667566756675 L 331.4603541145737,63.75637563756375 L 331.21939718369657,62.006200620062 L 330.6411005495915,60.15601560156015 L 329.5808900537321,58.805880588058805 L 326.4966413385049,56.05560556055605 L 337.8216170897298,51.95519551955195 L 344.5684111542893,48.154815481548155 L 357.67646819400494,38.85388538853885 L 369.8688888963875,34.45344534453445 L 372.1338840466325,34.003400340034 L 374.01334810747403,33.05330533053305 L 379.02525226971824,27.502750275027502 L 383.21790286698024,26.1026102610261 L 397.53074456108146,24.35243524352435 L 404.90402664592153,21.45214521452145 L 408.9521030846572,20.8020802080208 L 414.0603900192523,19.45194519451945 L 416.180811010971,18.6018601860186 L 418.2530406165143,17.05170517051705 L 419.4096338847245,16.45164516451645 L 421.3372893317415,16.2016201620162 L 422.68664814465336,15.7015701570157 L 425.48174854282803,13.501350135013501 L 427.69855230689757,12.8012801280128 z" /></g></g></g></svg>