<svg xmlns="http://www.w3.org/2000/svg" xmlns:xlink="http://www.w3.org/1999/xlink" width="500.0" height="493.4782519605942" viewBox="0.0 0.0 500.0 493.4782519605942" preserveAspectRatio="xMinYMin meet"><g transform="matrix(1,0,0,-1,0,493.4782519605942)"><g><g><path fill-rule="evenodd" fill="#D2EBD9" stroke="#A6A6A6" stroke-width="0.25" opacity="1" d="M 466.996699669967,268.429664207788 L 467.046704670467,273.5623512968871 L 468.54685468546853,278.49762734409774 L 472.8472847284728,282.93937578658733 L 478.64786478647864,285.5057193311369 L 484.79847984798477,287.43047698954905 L 490.1990199019902,289.79940949221015 L 492.5492549254925,291.576108869206 L 494.2494249424942,293.6489248090345 L 495.19951995199517,296.31397387452824 L 495.049504950495,299.7193143471036 L 495.4495449544954,303.4207713825116 L 499.24992499249925,308.8495750344433 L 500.0,312.3042682674908 L 499.34993499349935,313.68614556070975 L 496.5996599659966,316.4005473866756 L 495.6995699569957,317.83177744036675 L 495.4995499549955,319.50977129641836 L 495.6995699569957,323.1125228108821 L 495.4995499549955,324.5931056250453 L 493.39933993399336,329.67643995367234 L 487.6987698769877,337.47417610826517 L 485.4485448544854,345.76543986757906 L 483.89838983898386,349.7630134658197 L 481.04810481048105,352.9215901360345 L 477.84778477847783,355.38922815963986 L 475.5475547554755,358.20233550654996 L 474.49744974497446,371.7743446363793 L 468.24682468246823,374.3900409414009 L 460.04600460046004,374.5874519832893 L 453.2453245324532,376.66026792311783 L 436.3436343634363,394.62467273496463 L 429.2429242924292,397.8819549261237 L 424.6424642464246,399.11577393792635 L 421.8921892189219,400.9911788358664 L 420.6920692069207,404.0016972246649 L 420.6420642064206,408.59150394857085 L 418.79187918791877,410.96043645123194 L 414.34143414341435,413.03325239106044 L 409.49094909490947,414.3657769238073 L 406.49064906490645,414.217718642391 L 395.1895189518952,425.81561735333605 L 386.9386938693869,440.4240344530796 L 384.33843384338434,443.63196388376656 L 381.48814881488147,446.14895466784395 L 378.3378337833783,448.07371232625616 L 375.0875087508751,449.2581785775867 L 374.8874887488749,448.7152982123935 L 373.037303730373,434.89652528020366 L 373.2373237323732,429.8131909515767 L 374.13741374137413,427.7403750117482 L 375.5875587558756,426.01302839522447 L 375.6875687568757,425.17403146719863 L 375.4875487548755,424.0882707368123 L 374.1874187418742,422.3609241202886 L 373.1873187318732,421.37386891084645 L 367.58675867586754,418.856878126769 L 366.5866586658666,414.1683658819189 L 364.83648364836483,410.6643198883993 L 364.13641364136413,407.45639045771236 L 362.58625862586257,384.45800407771065 L 361.1361136113611,379.5720807909721 L 359.58595859585955,376.11738755792464 L 356.53565356535654,372.61334156440506 L 339.5339533953395,356.9191637342752 L 337.33373337333734,355.2905226386957 L 335.3835383538354,354.45152571066984 L 331.38313831383135,353.5138232616998 L 329.08290829082904,352.1812987289529 L 326.7826782678268,350.05913002865236 L 323.6323632363236,346.4070257537165 L 322.032203220322,343.39650736491797 L 321.28212821282125,340.4846944970637 L 321.1321132113211,336.0922988150462 L 320.48204820482044,331.9960196958613 L 328.68286828682864,333.8714245938014 L 334.033403340334,336.88194298259987 L 345.83458345834583,347.09796440032596 L 348.08480848084804,348.6278999749613 L 349.5349534953495,349.07207481921023 L 350.68506850685066,348.1343723702402 L 351.68516851685166,346.5550840351328 L 352.6352635263526,344.23550429294374 L 352.68526852685267,341.7678662693384 L 351.9351935193519,338.6092895991236 L 346.03460346034603,324.9879277088222 L 343.98439843984397,321.2371179129421 L 343.48434843484347,319.7071823383068 L 344.2344234423442,317.97983572178305 L 346.03460346034603,316.8940749913967 L 348.98489848984894,315.80831426101037 L 350.6350635063506,314.5744952492077 L 353.6853685368537,310.42886336955075 L 355.03550355035503,309.78727748341333 L 356.13561356135614,310.42886336955075 L 357.48574857485744,312.3042682674908 L 358.7358735873587,312.79779587221185 L 360.88608860886086,312.84714863268397 L 363.3363336333633,312.5510320698513 L 366.6866686668667,311.8107406627697 L 368.18681868186815,311.021096495216 L 369.08690869086905,310.1820995671902 L 370.18701870187016,309.88598300435757 L 369.8369836983698,305.000059717619 L 370.3370337033703,295.2282131441419 L 369.9369936993699,290.39164261787545 L 368.88688868886885,286.88759662435587 L 367.18671867186714,284.17319479839 L 364.4864486448645,281.60685125384043 L 364.93649364936493,280.86655984675883 L 364.83648364836483,280.02756291873305 L 364.986498649865,279.1885659907072 L 365.7865786578658,277.6586304160719 L 367.2367236723672,277.26380833229507 L 376.38763876387634,277.95474697890455 L 379.6379637963796,277.5105721346556 L 388.98889888988896,274.5000537458571 L 391.7391739173917,274.3026427039687 L 401.8901890189019,274.84552306916186 L 404.24042404240424,274.64811202727344 L 406.29062906290625,274.7468175482176 L 408.09080908090806,275.2403451529387 L 411.1911191119112,276.8196334880461 L 412.7912791279128,277.21445557182295 L 414.69146914691464,277.21445557182295 L 421.14211421142113,275.2896979134108 L 427.29272927292726,272.77270712933336 L 430.54305430543053,270.8479494709212 L 432.7932793279328,268.8244862915648 L 435.09350935093505,263.9385630048263 L 436.69366936693666,261.47092498122095 L 439.4939493949395,258.65781763431085 L 441.04410441044104,257.62140966439665 L 442.94429442944295,257.17723482014765 L 443.99439943994395,257.57205690392453 L 447.79477947794777,261.2241611788604 L 449.7949794979498,262.21121638830255 L 455.5455545554555,263.9385630048263 L 456.8456845684568,264.72820717238 L 461.6961696169617,268.429664207788 L 462.59625962596255,268.87383905203694 L 463.49634963496345,269.07125009392536 L 466.996699669967,268.429664207788 z" /><path fill-rule="evenodd" fill="#D2EBD9" stroke="#A6A6A6" stroke-width="0.25" opacity="1" d="M 375.0875087508751,449.2581785775867 L 368.5368536853685,450.49199758938937 L 366.8366836683668,451.8245221221362 L 360.8360836083608,463.1263042702487 L 357.8357835783578,465.6926478147982 L 348.7348734873487,465.9394116171587 L 346.53465346534654,469.1966938083178 L 345.0845084508451,478.82048210037857 L 343.78437843784377,483.41028882428446 L 341.9341934193419,487.3091569015809 L 339.18391839183914,490.61579185321204 L 335.3335333533353,493.4782519605942 L 332.2332233223322,493.0834298768174 L 320.58205820582054,485.0882826803361 L 316.4816481648165,484.10122747089395 L 287.8787878787879,482.2258225729539 L 283.67836783678365,480.44912319595807 L 279.6779677967797,476.4515495977174 L 274.1274127412741,466.8277613056567 L 270.1770177017702,463.22500979119286 L 266.026602660266,461.59636869561336 L 261.2761276127613,461.00413556994806 L 256.5256525652565,461.4976631746691 L 252.37523752375236,463.3237153121371 L 249.82498249824982,463.07695150977656 L 251.37513751375135,461.892485258446 L 255.6255625562556,459.17808343248015 L 256.57565756575656,455.9208012413211 L 256.6256625662566,447.7282430029514 L 257.5257525752575,442.5462031533802 L 258.47584758475847,440.5227399740238 L 259.6759675967597,439.4369792436375 L 264.9264926492649,438.3512185132511 L 266.57665766576656,438.4992767946674 L 268.3268326832683,438.9928043993885 L 270.7770777077708,438.8447461179722 L 273.47734773477345,437.85769090853006 L 280.72807280728074,432.725003819431 L 283.07830783078305,431.4911848076283 L 285.27852785278526,430.80024616101883 L 288.2288228822882,429.2703105863835 L 290.12901290129014,427.44425844891555 L 292.07920792079204,424.9766204253102 L 293.7293729372937,423.69344865303543 L 295.47954795479546,422.95315724595383 L 297.6797679767977,422.65704068312124 L 301.030103010301,422.558335162177 L 302.68026802680265,422.21286583887223 L 305.4305430543054,420.73228302470903 L 306.3806380638064,418.21529224063164 L 306.7806780678068,415.7476542170263 L 306.9306930693069,412.9838996305883 L 307.43074307430743,410.36820332556664 L 308.3808380838084,407.11092113440765 L 308.73087308730874,404.5939303503302 L 308.5808580858086,402.3237033686133 L 304.18041804180416,387.0243476222602 L 304.18041804180416,384.3592985567665 L 304.7304730473047,381.3981329284401 L 306.5806580658066,377.49926485114366 L 308.23082308230823,376.0680347974525 L 309.8309830983098,375.77191823461993 L 310.78107810781074,376.4628568812294 L 311.4311431143114,377.49926485114366 L 314.031403140314,382.78001022165904 L 314.8314831483148,384.0631819939338 L 315.8315831583158,384.8034734010154 L 317.33173317331733,385.00088444290384 L 319.03190319031904,384.8034734010154 L 328.1828182818282,381.29942740749584 L 330.28302830283025,380.904605323719 L 332.6332633263326,380.8058998027748 L 334.8834883488349,381.0526636051353 L 337.3837383738374,381.5955439703285 L 339.88398839883985,382.4345408983543 L 342.18421842184216,383.52030162874064 L 344.034403440344,384.7541206405433 L 345.7845784578458,386.2840562151786 L 347.0847084708471,387.9126973107581 L 348.1348134813481,389.7387494482261 L 348.68486848684864,391.66350710663824 L 349.8349834983498,399.16512669839847 L 350.6350635063506,401.6821174824759 L 351.7351735173517,404.10040274560913 L 357.28572857285724,412.6877830677557 L 359.68596859685965,415.7476542170263 L 360.7360736073607,416.73470942646844 L 362.08620862086207,417.4256480730779 L 367.58675867586754,418.856878126769 L 373.1873187318732,421.37386891084645 L 374.1874187418742,422.3609241202886 L 375.4875487548755,424.0882707368123 L 375.6875687568757,425.17403146719863 L 375.5875587558756,426.01302839522447 L 374.13741374137413,427.7403750117482 L 373.2373237323732,429.8131909515767 L 373.037303730373,434.89652528020366 L 374.8874887488749,448.7152982123935 L 375.0875087508751,449.2581785775867 z" /><path fill-rule="evenodd" fill="#D2EBD9" stroke="#A6A6A6" stroke-width="0.25" opacity="1" d="M 249.82498249824982,463.07695150977656 L 238.7238723872387,461.9418380189181 L 236.8236823682368,462.6821294259997 L 234.77347734773477,459.7703165581454 L 232.07320732073205,456.36497608557005 L 226.37263726372635,447.9750068053119 L 225.72257225722572,446.642482272565 L 216.62166216621662,436.8706356990879 L 208.87088708870886,426.4572032394734 L 207.97079707970795,424.5817983415334 L 208.020802080208,422.7557462040654 L 207.77077707770775,421.37386891084645 L 205.97059705970597,420.8803413061254 L 200.37003700370036,420.8803413061254 L 198.06980698069805,422.06480755745594 L 196.16961696169616,424.53244558106127 L 193.7193719371937,426.8026725627782 L 189.86898689868985,427.24684740702713 L 186.86868686868686,425.5195007905034 L 185.2185218521852,422.45962964123277 L 183.9183918391839,418.7088198453527 L 181.96819681968196,415.2047738518331 L 176.5176517651765,412.7371358282278 L 153.1153115311531,414.31642416333517 L 154.61546154615462,410.36820332556664 L 152.4152415241524,408.5421511880987 L 149.16491649164917,407.40703769724024 L 147.5147514751475,405.58098555977233 L 147.46474647464746,402.3237033686133 L 147.26472647264725,400.39894571020113 L 146.1146114611461,397.68454388423527 L 146.1146114611461,395.95719726771154 L 145.76457645764575,394.9701420582694 L 143.96439643964396,395.36496414204623 L 143.16431643164316,395.0688475792136 L 139.2139213921392,389.29457460397714 L 136.7136713671367,386.5801727780113 L 134.1134113411341,385.4450592871528 L 130.86308630863087,384.5567095986549 L 131.8131813181318,382.3851881378822 L 134.36343634363436,379.7694918328605 L 136.16361636163614,377.4005593301994 L 134.86348634863486,377.1537955278389 L 131.96319631963195,375.821270995092 L 130.51305130513052,377.4005593301994 L 129.16291629162916,375.821270995092 L 129.9129912991299,371.47822807354663 L 131.66316631663165,371.47822807354663 L 137.1137113711371,373.94586609715196 L 140.51405140514052,373.9952188576241 L 143.06430643064306,373.501691252903 L 145.66456645664564,372.41593052251665 L 148.014801480148,373.05751640865407 L 155.76557655765575,378.2889090186973 L 158.16581658165816,378.8811421443626 L 161.4161416141614,380.41107771899794 L 169.06690669066907,385.4944120476249 L 170.76707670767075,385.543764808097 L 172.5172517251725,384.6554151195991 L 175.66756675667565,382.286482616938 L 177.46774677467747,381.34878016796796 L 179.6179617961796,380.8552525632469 L 183.06830683068307,380.60848876088636 L 185.5185518551855,382.286482616938 L 187.46874687468747,383.9644764729896 L 193.26932693269325,392.99603163938514 L 195.2195219521952,395.0194948187415 L 197.8197819781978,396.74684143526525 L 199.5199519951995,399.5599487821753 L 200.8200820082008,403.55752238041595 L 203.1203120312031,406.56804076921446 L 205.07050705070506,407.5550959786566 L 207.12071207120712,407.30833217629606 L 209.47094709470946,406.32127696685393 L 212.021202120212,404.6432831108023 L 214.6214621462146,402.4224088895575 L 217.17171717171715,399.4612432612311 L 221.8221822182218,395.5130224234626 L 223.57235723572356,393.5389120045783 L 225.02250225022502,391.0219212205009 L 226.27262726272625,388.20881387359077 L 227.9227922792279,385.6918230895133 L 229.82298229822982,384.3592985567665 L 231.97319731973195,383.668359910157 L 236.37363736373635,382.8787157426033 L 238.37383738373836,382.286482616938 L 240.42404240424042,381.2500746470237 L 242.77427742774276,379.4240225095558 L 244.87448744874487,377.4005593301994 L 248.42484248424842,373.00816364818195 L 250.5250525052505,369.25735385230183 L 252.47524752475246,366.7403630682244 L 259.3259325932593,364.86495817028435 L 261.52615261526154,366.9871268705849 L 263.8263826382638,367.6780655171944 L 265.9265926592659,367.97418208002705 L 267.9267926792679,367.92482931955493 L 271.1771177117712,367.3325961938897 L 272.67726772677264,366.8390685891686 L 274.027402740274,366.0494244216149 L 274.8274827482748,364.7662526493401 L 274.97749774977495,363.1376115537606 L 274.87748774877485,361.01544285346 L 274.97749774977495,358.695863111271 L 275.67756775677566,356.376283369082 L 278.0778077807781,351.53971284281556 L 283.67836783678365,335.549418449853 L 288.7788778877888,325.1359859902385 L 290.77907790779074,323.2605810922985 L 293.07930793079305,322.3228786433284 L 295.1295129512951,322.1748203619121 L 300.88008800880084,320.8916485896373 L 307.63076307630763,318.3746578055599 L 317.7817781778178,312.6990903512676 L 320.7320732073207,311.6133296208813 L 322.98229822982296,311.4159185789929 L 329.1329132913291,311.958798944186 L 330.6330633063306,312.5016793093792 L 331.8331833183318,313.39002899787715 L 332.48324832483246,314.22902592590293 L 332.2332233223322,315.06802285392877 L 331.4331433143314,316.2031363447872 L 329.08290829082904,317.97983572178305 L 327.6827682768277,319.26300749405783 L 321.88218821882185,327.01139088817854 L 320.6320632063206,329.4296761513118 L 320.48204820482044,331.9960196958613 L 321.1321132113211,336.0922988150462 L 321.28212821282125,340.4846944970637 L 322.032203220322,343.39650736491797 L 323.6323632363236,346.4070257537165 L 326.7826782678268,350.05913002865236 L 329.08290829082904,352.1812987289529 L 331.38313831383135,353.5138232616998 L 335.3835383538354,354.45152571066984 L 337.33373337333734,355.2905226386957 L 339.5339533953395,356.9191637342752 L 356.53565356535654,372.61334156440506 L 359.58595859585955,376.11738755792464 L 361.1361136113611,379.5720807909721 L 362.58625862586257,384.45800407771065 L 364.13641364136413,407.45639045771236 L 364.83648364836483,410.6643198883993 L 366.5866586658666,414.1683658819189 L 367.58675867586754,418.856878126769 L 362.08620862086207,417.4256480730779 L 360.7360736073607,416.73470942646844 L 359.68596859685965,415.7476542170263 L 357.28572857285724,412.6877830677557 L 351.7351735173517,404.10040274560913 L 350.6350635063506,401.6821174824759 L 349.8349834983498,399.16512669839847 L 348.68486848684864,391.66350710663824 L 348.1348134813481,389.7387494482261 L 347.0847084708471,387.9126973107581 L 345.7845784578458,386.2840562151786 L 344.034403440344,384.7541206405433 L 342.18421842184216,383.52030162874064 L 339.88398839883985,382.4345408983543 L 337.3837383738374,381.5955439703285 L 334.8834883488349,381.0526636051353 L 332.6332633263326,380.8058998027748 L 330.28302830283025,380.904605323719 L 328.1828182818282,381.29942740749584 L 319.03190319031904,384.8034734010154 L 317.33173317331733,385.00088444290384 L 315.8315831583158,384.8034734010154 L 314.8314831483148,384.0631819939338 L 314.031403140314,382.78001022165904 L 311.4311431143114,377.49926485114366 L 310.78107810781074,376.4628568812294 L 309.8309830983098,375.77191823461993 L 308.23082308230823,376.0680347974525 L 306.5806580658066,377.49926485114366 L 304.7304730473047,381.3981329284401 L 304.18041804180416,384.3592985567665 L 304.18041804180416,387.0243476222602 L 308.5808580858086,402.3237033686133 L 308.73087308730874,404.5939303503302 L 308.3808380838084,407.11092113440765 L 307.43074307430743,410.36820332556664 L 306.9306930693069,412.9838996305883 L 306.7806780678068,415.7476542170263 L 306.3806380638064,418.21529224063164 L 305.4305430543054,420.73228302470903 L 302.68026802680265,422.21286583887223 L 301.030103010301,422.558335162177 L 297.6797679767977,422.65704068312124 L 295.47954795479546,422.95315724595383 L 293.7293729372937,423.69344865303543 L 292.07920792079204,424.9766204253102 L 290.12901290129014,427.44425844891555 L 288.2288228822882,429.2703105863835 L 285.27852785278526,430.80024616101883 L 283.07830783078305,431.4911848076283 L 280.72807280728074,432.725003819431 L 273.47734773477345,437.85769090853006 L 270.7770777077708,438.8447461179722 L 268.3268326832683,438.9928043993885 L 266.57665766576656,438.4992767946674 L 264.9264926492649,438.3512185132511 L 259.6759675967597,439.4369792436375 L 258.47584758475847,440.5227399740238 L 257.5257525752575,442.5462031533802 L 256.6256625662566,447.7282430029514 L 256.57565756575656,455.9208012413211 L 255.6255625562556,459.17808343248015 L 251.37513751375135,461.892485258446 L 249.82498249824982,463.07695150977656 z" /><path fill-rule="evenodd" fill="#D2EBD9" stroke="#A6A6A6" stroke-width="0.25" opacity="1" d="M 278.0778077807781,115.68287054661795 L 279.7779777977798,118.98950549824909 L 283.87838783878385,122.59225701271288 L 288.82888288828883,123.38190118026658 L 298.72987298729873,121.90131836610338 L 303.78037803780376,123.72737050357134 L 312.7312731273127,129.10682139503095 L 316.031603160316,129.89646556258467 L 319.48194819481944,129.5016434788078 L 329.48294829482944,125.65212816198348 L 336.43364336433643,125.60277540151138 L 354.8854885488549,132.66022014902262 L 368.4368436843684,135.57203301687693 L 381.68816881688167,141.05018942928075 L 405.59055905590554,156.84307278035487 L 429.7929792979298,171.94501748481952 L 432.2932293229323,173.03077821520586 L 437.7437743774377,174.65941931078538 L 440.0940094009401,175.84388556211593 L 441.3941394139414,177.8673487414723 L 440.8940894089409,180.18692848366132 L 438.6438643864386,184.77673520756724 L 438.19381938193817,188.08337015919838 L 438.3438343834383,190.20553885949897 L 437.7437743774377,191.8835327155506 L 435.19351935193515,193.90699589490697 L 432.1932193219322,198.15133329550812 L 432.2932293229323,203.8269007498004 L 433.5433543354335,210.09470132975795 L 433.79337933793374,215.37544670027336 L 430.5930593059306,214.53644977224755 L 426.39263926392636,214.9806246164965 L 419.49194919491947,217.64567368199025 L 415.2415241524152,218.6820816519045 L 413.24132413241324,217.59632092151816 L 412.0912091209121,215.7209160235781 L 410.4910491049105,201.21120444477876 L 409.6409640964096,198.5955081397571 L 408.19081908190816,195.97981183473544 L 404.99049904990494,192.37706032027165 L 401.94019401940193,190.79777198516425 L 398.6398639863986,189.76136401525 L 394.43944394439444,189.16913088958472 L 391.1391139113911,189.56395297336158 L 388.08880888088805,190.89647750610845 L 377.037703770377,199.9773854329761 L 374.2874287428743,201.21120444477876 L 371.28712871287127,201.80343757044403 L 367.036703670367,201.7540848099719 L 364.7864786478648,201.26055720525085 L 366.0866086608661,198.29939157692445 L 366.63666366636664,195.33822594859805 L 365.03650365036503,192.37706032027165 L 362.986298629863,191.2912995898853 L 361.036103610361,191.53806339224585 L 359.08590859085905,192.13029651791112 L 357.13571357135714,192.22900203885533 L 355.1855185518552,191.34065235035743 L 353.6853685368537,189.86006953619423 L 352.38523852385237,188.1820756801426 L 350.88508850885086,186.60278734503518 L 348.28482848284824,185.41832109370463 L 347.3847384738474,185.81314317748146 L 346.23462346234624,186.7508456264515 L 345.2845284528453,187.98466463825417 L 344.7844784478448,189.51460021288946 L 344.7344734473447,191.43935787130164 L 345.0845084508451,195.93045907426333 L 344.9344934493449,198.05262777456392 L 344.3344334433443,199.77997439108765 L 343.2343234323432,201.35926272619506 L 341.78417841784176,202.79049277988616 L 337.983798379838,205.65295288726836 L 334.033403340334,207.92317986898524 L 328.2828282828283,210.19340685070216 L 324.1324132413241,211.1804620601443 L 321.4321432143214,211.2791675810885 L 319.38193819381934,211.13110929967218 L 315.9315931593159,209.84793752739742 L 318.93189318931894,204.22172283357725 L 318.8818881888189,199.18774126542237 L 317.63176317631763,193.36411552971379 L 317.23172317231723,188.9223670872242 L 318.43184318431844,181.71686405829664 L 318.4818481848185,178.80505119044233 L 317.5817581758176,176.04129660400437 L 316.0816081608161,174.51136102936906 L 313.68136813681366,173.2775420175664 L 306.6306630663066,170.4150819101842 L 304.48044804480446,168.8851463355489 L 302.4302430243024,167.00974143760885 L 299.8799879987999,163.16022612078453 L 296.9296929692969,160.54452981576287 L 295.77957795779577,160.10035497151392 L 293.7293729372937,158.86653595971126 L 289.22892289228923,155.06637340335905 L 282.028202820282,150.2791556375647 L 281.1281128112811,150.03239183520418 L 280.5780578057806,149.6869225118994 L 279.82798279827983,150.57527220039734 L 276.47764776477646,156.54695621752225 L 274.17741774177415,158.81718319923914 L 266.77667766776676,160.39647153434657 L 260.42604260426043,157.23789486413173 L 259.3759375937594,156.49760345705013 L 262.3262326232623,147.07122620687778 L 261.72617261726174,145.19582130893772 L 260.7760776077608,144.3074716204398 L 256.8256825682568,144.06070781807927 L 250.57505750575055,140.75407286644813 L 248.92489248924892,139.0267262499244 L 247.97479747974796,137.25002687292854 L 247.024702470247,133.2031005142158 L 246.77467746774676,131.22899009533154 L 246.77467746774676,129.4522907183357 L 247.07470747074706,127.9223551437004 L 247.8247824782478,126.34306680859298 L 249.37493749374937,124.81313123395768 L 251.6251625162516,123.82607602451554 L 269.4269426942694,121.60520180327075 L 272.2272227222722,121.90131836610338 L 274.4274427442744,120.71685211477282 L 278.0778077807781,115.68287054661795 z" /><path fill-rule="evenodd" fill="#D2EBD9" stroke="#A6A6A6" stroke-width="0.25" opacity="1" d="M 466.996699669967,268.429664207788 L 463.49634963496345,269.07125009392536 L 462.59625962596255,268.87383905203694 L 461.6961696169617,268.429664207788 L 456.8456845684568,264.72820717238 L 455.5455545554555,263.9385630048263 L 449.7949794979498,262.21121638830255 L 447.79477947794777,261.2241611788604 L 443.99439943994395,257.57205690392453 L 442.94429442944295,257.17723482014765 L 441.04410441044104,257.62140966439665 L 439.4939493949395,258.65781763431085 L 436.69366936693666,261.47092498122095 L 435.09350935093505,263.9385630048263 L 432.7932793279328,268.8244862915648 L 430.54305430543053,270.8479494709212 L 427.29272927292726,272.77270712933336 L 421.14211421142113,275.2896979134108 L 414.69146914691464,277.21445557182295 L 412.7912791279128,277.21445557182295 L 411.1911191119112,276.8196334880461 L 408.09080908090806,275.2403451529387 L 406.29062906290625,274.7468175482176 L 404.24042404240424,274.64811202727344 L 401.8901890189019,274.84552306916186 L 391.7391739173917,274.3026427039687 L 388.98889888988896,274.5000537458571 L 379.6379637963796,277.5105721346556 L 376.38763876387634,277.95474697890455 L 367.2367236723672,277.26380833229507 L 365.7865786578658,277.6586304160719 L 364.986498649865,279.1885659907072 L 364.83648364836483,280.02756291873305 L 364.93649364936493,280.86655984675883 L 364.4864486448645,281.60685125384043 L 367.18671867186714,284.17319479839 L 368.88688868886885,286.88759662435587 L 369.9369936993699,290.39164261787545 L 370.3370337033703,295.2282131441419 L 369.8369836983698,305.000059717619 L 370.18701870187016,309.88598300435757 L 369.08690869086905,310.1820995671902 L 368.18681868186815,311.021096495216 L 366.6866686668667,311.8107406627697 L 363.3363336333633,312.5510320698513 L 360.88608860886086,312.84714863268397 L 358.7358735873587,312.79779587221185 L 357.48574857485744,312.3042682674908 L 356.13561356135614,310.42886336955075 L 355.03550355035503,309.78727748341333 L 353.6853685368537,310.42886336955075 L 350.6350635063506,314.5744952492077 L 348.98489848984894,315.80831426101037 L 346.03460346034603,316.8940749913967 L 344.2344234423442,317.97983572178305 L 343.48434843484347,319.7071823383068 L 343.98439843984397,321.2371179129421 L 346.03460346034603,324.9879277088222 L 351.9351935193519,338.6092895991236 L 352.68526852685267,341.7678662693384 L 352.6352635263526,344.23550429294374 L 351.68516851685166,346.5550840351328 L 350.68506850685066,348.1343723702402 L 349.5349534953495,349.07207481921023 L 348.08480848084804,348.6278999749613 L 345.83458345834583,347.09796440032596 L 334.033403340334,336.88194298259987 L 328.68286828682864,333.8714245938014 L 320.48204820482044,331.9960196958613 L 320.6320632063206,329.4296761513118 L 321.88218821882185,327.01139088817854 L 327.6827682768277,319.26300749405783 L 329.08290829082904,317.97983572178305 L 331.4331433143314,316.2031363447872 L 332.2332233223322,315.06802285392877 L 332.48324832483246,314.22902592590293 L 331.8331833183318,313.39002899787715 L 330.6330633063306,312.5016793093792 L 329.1329132913291,311.958798944186 L 322.98229822982296,311.4159185789929 L 320.7320732073207,311.6133296208813 L 317.7817781778178,312.6990903512676 L 307.63076307630763,318.3746578055599 L 300.88008800880084,320.8916485896373 L 295.1295129512951,322.1748203619121 L 293.07930793079305,322.3228786433284 L 290.77907790779074,323.2605810922985 L 288.7788778877888,325.1359859902385 L 283.67836783678365,335.549418449853 L 278.0778077807781,351.53971284281556 L 275.67756775677566,356.376283369082 L 274.97749774977495,358.695863111271 L 274.87748774877485,361.01544285346 L 274.97749774977495,363.1376115537606 L 274.8274827482748,364.7662526493401 L 274.027402740274,366.0494244216149 L 272.67726772677264,366.8390685891686 L 271.1771177117712,367.3325961938897 L 267.9267926792679,367.92482931955493 L 265.9265926592659,367.97418208002705 L 263.8263826382638,367.6780655171944 L 261.52615261526154,366.9871268705849 L 259.3259325932593,364.86495817028435 L 256.07560756075605,356.82045821333094 L 256.77567756775676,353.3657649802835 L 259.1259125912591,349.7136607053476 L 259.7759775977598,348.2330778911844 L 260.82608260826083,344.7290318976648 L 263.67636763676364,337.7702926710978 L 263.7263726372637,334.0688356356898 L 262.7262726272627,331.69990313302867 L 261.12611261126114,329.7257927141444 L 252.17521752175216,322.96446452946583 L 251.17511751175115,321.87870379907946 L 246.77467746774676,314.722553530624 L 235.67356735673567,304.3091210710095 L 233.6233623362336,303.17400758015106 L 231.023102310231,302.1375996102368 L 229.42294229422941,301.9401885683484 L 228.27282728272826,300.7063695565457 L 227.3227322732273,298.68290637718934 L 226.07260726072607,294.43856897658816 L 225.87258725872587,292.21769475534336 L 226.07260726072607,289.8981150131544 L 225.57255725572557,286.3940690196348 L 225.92259225922592,284.3706058402784 L 226.6226622662266,282.8900230261152 L 228.9228922892289,279.9288573977888 L 230.22302230223022,279.3366242721236 L 230.97309730973097,277.16510281135083 L 231.47314731473145,276.27675312285294 L 233.1233123312331,275.53646171577134 L 233.87338733873386,274.5000537458571 L 234.42344234423442,272.72335436886124 L 239.72397239723972,242.12464287615515 L 239.42394239423942,239.65700485254982 L 239.72397239723972,237.63354167319343 L 242.8242824282428,225.64082087847154 L 247.17471747174716,224.99923499233415 L 252.2252225222522,219.6197841008745 L 247.024702470247,213.30263076044488 L 250.1250125012501,207.6764160666247 L 253.57535753575357,191.48871063177373 L 256.2256225622562,189.95877505713844 L 259.2259225922592,188.77430880580786 L 262.9262926292629,181.86492233971293 L 266.9266926692669,184.18450208190197 L 270.92709270927094,184.5299714052067 L 273.97739773977395,185.3196155727604 L 273.97739773977395,188.77430880580786 L 274.97749774977495,192.6731768831043 L 279.97799779978,194.59793454151645 L 283.97839783978395,192.6731768831043 L 287.6787678767877,193.80829037396276 L 298.02980298029803,200.37220751675292 L 302.7302730273027,201.90214309138824 L 308.0808080808081,202.69178725894196 L 310.08100810081004,205.3568363244357 L 315.9315931593159,209.84793752739742 L 319.38193819381934,211.13110929967218 L 321.4321432143214,211.2791675810885 L 324.1324132413241,211.1804620601443 L 328.2828282828283,210.19340685070216 L 334.033403340334,207.92317986898524 L 337.983798379838,205.65295288726836 L 341.78417841784176,202.79049277988616 L 343.2343234323432,201.35926272619506 L 344.3344334433443,199.77997439108765 L 344.9344934493449,198.05262777456392 L 345.0845084508451,195.93045907426333 L 344.7344734473447,191.43935787130164 L 344.7844784478448,189.51460021288946 L 345.2845284528453,187.98466463825417 L 346.23462346234624,186.7508456264515 L 347.3847384738474,185.81314317748146 L 348.28482848284824,185.41832109370463 L 350.88508850885086,186.60278734503518 L 352.38523852385237,188.1820756801426 L 353.6853685368537,189.86006953619423 L 355.1855185518552,191.34065235035743 L 357.13571357135714,192.22900203885533 L 359.08590859085905,192.13029651791112 L 361.036103610361,191.53806339224585 L 362.986298629863,191.2912995898853 L 365.03650365036503,192.37706032027165 L 366.63666366636664,195.33822594859805 L 366.0866086608661,198.29939157692445 L 364.7864786478648,201.26055720525085 L 367.036703670367,201.7540848099719 L 371.28712871287127,201.80343757044403 L 374.2874287428743,201.21120444477876 L 377.037703770377,199.9773854329761 L 388.08880888088805,190.89647750610845 L 391.1391139113911,189.56395297336158 L 394.43944394439444,189.16913088958472 L 398.6398639863986,189.76136401525 L 401.94019401940193,190.79777198516425 L 404.99049904990494,192.37706032027165 L 408.19081908190816,195.97981183473544 L 409.6409640964096,198.5955081397571 L 410.4910491049105,201.21120444477876 L 412.0912091209121,215.7209160235781 L 413.24132413241324,217.59632092151816 L 415.2415241524152,218.6820816519045 L 419.49194919491947,217.64567368199025 L 426.39263926392636,214.9806246164965 L 430.5930593059306,214.53644977224755 L 433.79337933793374,215.37544670027336 L 433.79337933793374,216.01703258641075 L 437.6437643764376,223.07447733392198 L 440.24402440244023,229.7864527581285 L 443.59435943594355,235.7087840147813 L 449.54495449544953,240.4466490201035 L 465.3465346534653,245.33257230684208 L 467.6967696769677,248.29373793516848 L 467.6467646764676,252.1926060124649 L 467.9467946794679,255.8940630478729 L 471.2971297129713,258.2136427900619 L 468.3968396839684,261.8657470649978 L 466.996699669967,267.491961758818 L 466.996699669967,268.429664207788 z" /><path fill-rule="evenodd" fill="#D2EBD9" stroke="#A6A6A6" stroke-width="0.25" opacity="1" d="M 104.46044604460445,329.1829123489513 L 105.56055605560556,327.01139088817854 L 106.9106910691069,326.0243356787364 L 107.96079607960796,325.7282191159038 L 108.76087608760875,325.2840442716548 L 109.1109110911091,324.7411639064617 L 109.16091609160915,324.09957802032426 L 108.16081608160816,321.48388171530263 L 108.06080608060806,319.65782957783466 L 108.6108610861086,318.2759522846157 L 109.56095609560955,316.8940749913967 L 111.46114611461145,315.95637254242666 L 113.76137613761375,315.70960874006613 L 118.4118411841184,316.44990014714773 L 120.9120912091209,317.5356608775341 L 122.9122912291229,319.361713015002 L 125.3125312531253,322.6683479666332 L 126.76267626762676,323.35928661324266 L 128.36283628362835,322.96446452946583 L 133.5133513351335,319.2136547335857 L 136.66366636663665,317.6837191589504 L 142.76427642764276,316.44990014714773 L 146.1146114611461,315.21608113534506 L 149.16491649164917,315.75896150053825 L 150.2150215021502,316.8940749913967 L 151.06510651065105,319.8552406197231 L 151.76517651765175,321.18776515247 L 152.86528652865286,322.12546760144 L 154.41544154415442,322.8657590085216 L 158.16581658165816,323.75410869701955 L 160.26602660266025,323.8034614574916 L 162.56625662566256,323.507344894659 L 165.9165916591659,322.3722314038005 L 178.31783178317832,314.9199645725124 L 180.2180218021802,314.22902592590293 L 182.66826682668267,313.8835566025982 L 188.76887688768875,315.1173756144009 L 190.96909690969096,315.95637254242666 L 194.86948694869486,318.12789400319934 L 199.16991699169915,321.48388171530263 L 200.9200920092009,323.6060504156032 L 204.77047704770476,329.3309706303676 L 206.02060206020602,330.61414240264236 L 207.12071207120712,330.56478964217024 L 208.020802080208,329.13355958847916 L 208.7208720872087,327.208801930067 L 210.2210221022102,320.4968265058605 L 210.42104210421041,318.2759522846157 L 210.42104210421041,315.8576670214825 L 209.97099709970996,310.6756271719113 L 210.1210121012101,308.50410571113855 L 210.77107710771077,306.7767590946148 L 212.021202120212,305.39488180139585 L 213.57135713571355,305.000059717619 L 215.67156715671567,306.28323148989375 L 220.42204220422042,311.0704492556881 L 227.022702270227,316.30184186573143 L 229.42294229422941,319.26300749405783 L 230.77307730773077,320.39812098491626 L 232.37323732373235,321.18776515247 L 236.8236823682368,322.7670534875774 L 238.3238323832383,324.0008724993801 L 238.77387738773876,324.83986942740586 L 240.77407740774075,324.2476363017406 L 246.77467746774676,314.722553530624 L 251.17511751175115,321.87870379907946 L 252.17521752175216,322.96446452946583 L 261.12611261126114,329.7257927141444 L 262.7262726272627,331.69990313302867 L 263.7263726372637,334.0688356356898 L 263.67636763676364,337.7702926710978 L 260.82608260826083,344.7290318976648 L 259.7759775977598,348.2330778911844 L 259.1259125912591,349.7136607053476 L 256.77567756775676,353.3657649802835 L 256.07560756075605,356.82045821333094 L 259.3259325932593,364.86495817028435 L 252.47524752475246,366.7403630682244 L 250.5250525052505,369.25735385230183 L 248.42484248424842,373.00816364818195 L 244.87448744874487,377.4005593301994 L 242.77427742774276,379.4240225095558 L 240.42404240424042,381.2500746470237 L 238.37383738373836,382.286482616938 L 236.37363736373635,382.8787157426033 L 231.97319731973195,383.668359910157 L 229.82298229822982,384.3592985567665 L 227.9227922792279,385.6918230895133 L 226.27262726272625,388.20881387359077 L 225.02250225022502,391.0219212205009 L 223.57235723572356,393.5389120045783 L 221.8221822182218,395.5130224234626 L 217.17171717171715,399.4612432612311 L 214.6214621462146,402.4224088895575 L 212.021202120212,404.6432831108023 L 209.47094709470946,406.32127696685393 L 207.12071207120712,407.30833217629606 L 205.07050705070506,407.5550959786566 L 203.1203120312031,406.56804076921446 L 200.8200820082008,403.55752238041595 L 199.5199519951995,399.5599487821753 L 197.8197819781978,396.74684143526525 L 195.2195219521952,395.0194948187415 L 193.26932693269325,392.99603163938514 L 187.46874687468747,383.9644764729896 L 185.5185518551855,382.286482616938 L 183.06830683068307,380.60848876088636 L 179.6179617961796,380.8552525632469 L 177.46774677467747,381.34878016796796 L 175.66756675667565,382.286482616938 L 172.5172517251725,384.6554151195991 L 170.76707670767075,385.543764808097 L 169.06690669066907,385.4944120476249 L 161.4161416141614,380.41107771899794 L 158.16581658165816,378.8811421443626 L 155.76557655765575,378.2889090186973 L 148.014801480148,373.05751640865407 L 145.66456645664564,372.41593052251665 L 143.06430643064306,373.501691252903 L 140.51405140514052,373.9952188576241 L 137.1137113711371,373.94586609715196 L 131.66316631663165,371.47822807354663 L 129.9129912991299,371.47822807354663 L 130.16301630163017,370.14570354079973 L 125.5125512551255,361.4102649372369 L 113.7113711371137,346.90055335843755 L 112.26122612261226,346.0615564304117 L 110.16101610161016,345.271912262858 L 108.06080608060806,344.03809325105533 L 106.7106710671067,341.9652773112269 L 106.6106610661066,339.69505032950997 L 107.86078607860786,334.2168939171061 L 108.21082108210821,331.50249209114025 L 106.16061606160615,329.7257927141444 L 104.46044604460445,329.1829123489513 z" /><path fill-rule="evenodd" fill="#D2EBD9" stroke="#A6A6A6" stroke-width="0.25" opacity="1" d="M 104.46044604460445,329.1829123489513 L 96.10961096109611,326.4191577625133 L 92.65926592659265,324.2476363017406 L 92.05920592059205,322.3722314038005 L 91.65916591659166,316.8940749913967 L 91.15911591159116,314.7719062910961 L 89.15891589158916,312.00815170465813 L 87.25872587258725,310.9717437347439 L 85.35853585358535,310.3301578486065 L 83.5083508350835,308.8495750344433 L 83.008300830083,307.2209339388638 L 83.85838583858386,305.8390566456448 L 85.05850585058505,304.3584738314816 L 85.65856585658565,302.5324216940137 L 85.35853585358535,299.5219033052152 L 84.55845584558455,298.14002601199616 L 83.2083208320832,297.10361804208196 L 74.65746574657466,287.7265935523817 L 72.40724072407241,284.0251365169737 L 71.5071507150715,279.7807991163725 L 70.4070407040704,278.7937439069304 L 65.6065606560656,278.9911549488188 L 64.5064506450645,278.15215802079297 L 64.1064106410641,275.4377561948271 L 63.05630563056305,272.97011817122177 L 61.256125612561256,270.35442186620014 L 66.1066106610661,269.2193083753417 L 68.35683568356835,269.7128359800628 L 69.45694569456946,269.76218874053484 L 70.85708570857085,269.46607217770224 L 72.05720572057206,268.87383905203694 L 73.15731573157315,267.8867838425948 L 74.007400740074,265.91267342371054 L 74.65746574657466,261.8163943045257 L 75.3075307530753,259.84228388564145 L 77.85778577857785,255.30182992220762 L 78.65786578657865,253.0316029404907 L 80.1080108010801,250.51461215641328 L 85.35853585358535,244.59228089976048 L 86.35863586358636,241.87787907379462 L 86.75867586758676,239.75571037349403 L 86.85868586858686,238.0777165174424 L 87.75877587758775,236.5971337032792 L 89.20892089208921,235.56072573336496 L 92.3092309230923,234.67237604486704 L 93.90939093909391,234.4256122425065 L 95.90959095909591,234.4256122425065 L 101.3101310131013,236.05425333808603 L 102.5102510251025,236.69583922422342 L 103.36033603360336,237.4854833917771 L 106.9106910691069,241.97658459473882 L 108.11081108110811,242.76622876229254 L 109.1109110911091,242.4701121994599 L 109.66096609660966,240.54535454104774 L 109.56095609560955,235.1659036495881 L 110.41104110411041,232.69826562598277 L 112.71127112711271,230.5267441652101 L 117.56175617561756,229.29292515340742 L 124.06240624062406,229.53968895576796 L 126.2126212621262,229.0461613510469 L 128.36283628362835,227.41752025546737 L 138.3138313831383,210.98305101825585 L 138.46384638463846,207.62706330615262 L 137.4137413741374,204.86330871971464 L 135.41354135413542,202.83984554035825 L 133.8133813381338,200.865735121474 L 134.16341634163416,199.2370940258945 L 136.46364636463645,198.05262777456392 L 153.66536653665366,200.52026579816925 L 161.7161716171617,200.47091303769716 L 166.1166116611661,198.94097746306184 L 192.61926192619262,193.80829037396276 L 197.21972197219722,191.63676891319005 L 201.72017201720172,188.1820756801426 L 204.97049704970496,187.24437323117257 L 214.2214221422142,185.9118486984257 L 216.77167716771675,184.5793241656788 L 218.3218321832183,182.70391926773877 L 219.021902190219,181.12463093263133 L 221.07210721072107,179.3479315556355 L 222.77227722772275,174.1165389455922 L 228.1228122812281,175.6958272806996 L 231.47314731473145,179.54534259752393 L 231.47314731473145,184.92479348898357 L 230.82308230823082,188.42883948250312 L 234.47344734473447,190.3535971409153 L 238.82388238823881,190.3535971409153 L 238.82388238823881,191.8835327155506 L 237.17371737173715,196.12787011615177 L 236.17361736173615,199.9773854329761 L 238.17381738173816,204.6165449173541 L 235.8235823582358,205.3568363244357 L 231.47314731473145,204.22172283357725 L 225.77257725772577,204.6165449173541 L 225.77257725772577,206.9361246595431 L 223.77237723772376,215.77026878405022 L 220.77207720772077,221.14971967550983 L 216.77167716771675,223.46929941769883 L 218.4218421842184,225.78887915988784 L 223.47234723472346,227.36816749499528 L 229.82298229822982,226.97334541121842 L 234.47344734473447,226.97334541121842 L 242.8242824282428,225.64082087847154 L 239.72397239723972,237.63354167319343 L 239.42394239423942,239.65700485254982 L 239.72397239723972,242.12464287615515 L 234.42344234423442,272.72335436886124 L 233.87338733873386,274.5000537458571 L 233.1233123312331,275.53646171577134 L 231.47314731473145,276.27675312285294 L 230.97309730973097,277.16510281135083 L 230.22302230223022,279.3366242721236 L 228.9228922892289,279.9288573977888 L 226.6226622662266,282.8900230261152 L 225.92259225922592,284.3706058402784 L 225.57255725572557,286.3940690196348 L 226.07260726072607,289.8981150131544 L 225.87258725872587,292.21769475534336 L 226.07260726072607,294.43856897658816 L 227.3227322732273,298.68290637718934 L 228.27282728272826,300.7063695565457 L 229.42294229422941,301.9401885683484 L 231.023102310231,302.1375996102368 L 233.6233623362336,303.17400758015106 L 235.67356735673567,304.3091210710095 L 246.77467746774676,314.722553530624 L 240.77407740774075,324.2476363017406 L 238.77387738773876,324.83986942740586 L 238.3238323832383,324.0008724993801 L 236.8236823682368,322.7670534875774 L 232.37323732373235,321.18776515247 L 230.77307730773077,320.39812098491626 L 229.42294229422941,319.26300749405783 L 227.022702270227,316.30184186573143 L 220.42204220422042,311.0704492556881 L 215.67156715671567,306.28323148989375 L 213.57135713571355,305.000059717619 L 212.021202120212,305.39488180139585 L 210.77107710771077,306.7767590946148 L 210.1210121012101,308.50410571113855 L 209.97099709970996,310.6756271719113 L 210.42104210421041,315.8576670214825 L 210.42104210421041,318.2759522846157 L 210.2210221022102,320.4968265058605 L 208.7208720872087,327.208801930067 L 208.020802080208,329.13355958847916 L 207.12071207120712,330.56478964217024 L 206.02060206020602,330.61414240264236 L 204.77047704770476,329.3309706303676 L 200.9200920092009,323.6060504156032 L 199.16991699169915,321.48388171530263 L 194.86948694869486,318.12789400319934 L 190.96909690969096,315.95637254242666 L 188.76887688768875,315.1173756144009 L 182.66826682668267,313.8835566025982 L 180.2180218021802,314.22902592590293 L 178.31783178317832,314.9199645725124 L 165.9165916591659,322.3722314038005 L 162.56625662566256,323.507344894659 L 160.26602660266025,323.8034614574916 L 158.16581658165816,323.75410869701955 L 154.41544154415442,322.8657590085216 L 152.86528652865286,322.12546760144 L 151.76517651765175,321.18776515247 L 151.06510651065105,319.8552406197231 L 150.2150215021502,316.8940749913967 L 149.16491649164917,315.75896150053825 L 146.1146114611461,315.21608113534506 L 142.76427642764276,316.44990014714773 L 136.66366636663665,317.6837191589504 L 133.5133513351335,319.2136547335857 L 128.36283628362835,322.96446452946583 L 126.76267626762676,323.35928661324266 L 125.3125312531253,322.6683479666332 L 122.9122912291229,319.361713015002 L 120.9120912091209,317.5356608775341 L 118.4118411841184,316.44990014714773 L 113.76137613761375,315.70960874006613 L 111.46114611461145,315.95637254242666 L 109.56095609560955,316.8940749913967 L 108.6108610861086,318.2759522846157 L 108.06080608060806,319.65782957783466 L 108.16081608160816,321.48388171530263 L 109.16091609160915,324.09957802032426 L 109.1109110911091,324.7411639064617 L 108.76087608760875,325.2840442716548 L 107.96079607960796,325.7282191159038 L 106.9106910691069,326.0243356787364 L 105.56055605560556,327.01139088817854 L 104.46044604460445,329.1829123489513 z" /><g><path fill-rule="evenodd" fill="#D2EBD9" stroke="#A6A6A6" stroke-width="0.25" opacity="1" d="M 61.256125612561256,270.35442186620014 L 60.3060306030603,269.367366656758 L 53.6053605360536,265.4191458189895 L 49.254925492549255,263.54374092104945 L 43.454345434543455,262.35927466971884 L 39.803980398039805,260.3358114903625 L 37.7037703770377,259.5461673228088 L 31.703170317031702,258.9045814366714 L 25.9025902590259,256.5850016944824 L 24.8024802480248,255.79535752692868 L 18.151815181518153,248.73791277941743 L 17.2017201720172,248.09632689328004 L 15.5015501550155,248.83661830036164 L 15.001500150015001,250.31720111452483 L 14.351435143514351,251.5016673658554 L 12.351235123512351,251.4523146053833 L 11.25112511251125,250.46525939594116 L 9.650965096509651,246.66509683958895 L 8.25082508250825,244.8883974625931 L 6.35063506350635,247.7015048095032 L 4.15041504150415,247.7015048095032 L 2.6002600260026,245.4806305882584 L 2.5502550255025502,241.63111527143408 L 0.0,235.8074895357255 L 1.6501650165016502,234.9684926076997 L 4.6004600460046,232.59956010503856 L 7.3007300730073,231.06962453040327 L 10.05100510051005,228.65133926727003 L 16.001600160016,219.57043134040242 L 17.8017801780178,216.01703258641075 L 34.75347534753475,175.44906347833907 L 38.1038103810381,176.73223525061385 L 52.3052305230523,183.54291619576458 L 58.1058105810581,188.08337015919838 L 59.55595559555955,188.57689776391945 L 60.55605560556055,188.37948672203103 L 61.75617561756175,187.63919531494943 L 63.406340634063405,187.09631494975625 L 67.60676067606761,187.3924315125889 L 69.4069406940694,188.03401739872626 L 70.8070807080708,189.16913088958472 L 71.9071907190719,190.4029499013874 L 73.85738573857385,191.9328854760227 L 76.95769576957696,192.52511860168798 L 78.8078807880788,191.9822382364948 L 79.75797579757976,190.69906646422004 L 79.70797079707971,189.16913088958472 L 76.15761576157615,179.3479315556355 L 75.6075607560756,177.27511561580704 L 75.00750075007501,172.88271993378953 L 75.00750075007501,168.8357935750768 L 75.45754575457545,165.47980586297354 L 76.05760576057605,162.8147567974798 L 76.75767576757676,160.49517705529078 L 78.65786578657865,156.30019241516172 L 79.35793579357936,155.55990100808012 L 84.6084608460846,151.7103856912558 L 89.00890089008901,147.51540105112673 L 90.5090509050905,147.12057896734987 L 91.65916591659166,147.2686372487662 L 93.50935093509351,148.30504521868045 L 94.9094909490949,148.7985728234015 L 95.90959095909591,149.5882169909552 L 96.5096509650965,150.37786115850892 L 97.3097309730973,152.30261881692107 L 98.30983098309831,153.73384887061218 L 106.86068606860685,162.37058195323084 L 107.96079607960796,164.4927506535314 L 108.66086608660865,166.46686107241567 L 111.66116611661165,168.8357935750768 L 112.51125112511251,169.82284878451892 L 113.5113511351135,171.94501748481952 L 114.46144614461446,175.74518004117172 L 114.91149114911491,175.84388556211593 L 115.5115511551155,175.30100519692277 L 116.46164616461645,174.017833424648 L 118.4118411841184,172.93207269426165 L 121.06210621062105,172.68530889190112 L 125.46254625462545,173.12948373615006 L 128.012801280128,172.83336717331744 L 129.86298629862986,171.74760644293107 L 132.76327632763275,167.10844695855306 L 134.013401340134,165.43045310250145 L 135.41354135413542,163.99922304881034 L 137.46374637463745,162.66669851606346 L 139.4139413941394,162.66669851606346 L 141.7141714171417,163.6537537255056 L 143.7143714371437,165.0849837791967 L 147.16471647164715,165.233042060613 L 150.16501650165014,166.02268622816672 L 151.86518651865185,169.87220154499104 L 155.86558655865585,172.19178128718005 L 159.21592159215922,169.08255737743733 L 163.91639163916392,166.41750831194358 L 168.26682668266827,167.55262180280204 L 171.6171617161716,171.40213711962633 L 172.26722672267226,174.51136102936906 L 171.26712671267126,179.54534259752393 L 174.9174917491749,179.15052051374707 L 178.61786178617862,174.51136102936906 L 180.96809680968096,171.0566677963216 L 182.31823182318232,174.51136102936906 L 182.96829682968297,180.28563400460553 L 185.3185318531853,183.39485791434825 L 188.96889688968895,181.07527817215924 L 192.31923192319232,177.22576285533492 L 202.7202720272027,177.22576285533492 L 208.07080708070805,173.77106962228746 L 216.42164216421642,171.40213711962633 L 216.77167716771675,176.83094077155806 L 221.07210721072107,179.3479315556355 L 219.021902190219,181.12463093263133 L 218.3218321832183,182.70391926773877 L 216.77167716771675,184.5793241656788 L 214.2214221422142,185.9118486984257 L 204.97049704970496,187.24437323117257 L 201.72017201720172,188.1820756801426 L 197.21972197219722,191.63676891319005 L 192.61926192619262,193.80829037396276 L 166.1166116611661,198.94097746306184 L 161.7161716171617,200.47091303769716 L 153.66536653665366,200.52026579816925 L 136.46364636463645,198.05262777456392 L 134.16341634163416,199.2370940258945 L 133.8133813381338,200.865735121474 L 135.41354135413542,202.83984554035825 L 137.4137413741374,204.86330871971464 L 138.46384638463846,207.62706330615262 L 138.3138313831383,210.98305101825585 L 128.36283628362835,227.41752025546737 L 126.2126212621262,229.0461613510469 L 124.06240624062406,229.53968895576796 L 117.56175617561756,229.29292515340742 L 112.71127112711271,230.5267441652101 L 110.41104110411041,232.69826562598277 L 109.56095609560955,235.1659036495881 L 109.66096609660966,240.54535454104774 L 109.1109110911091,242.4701121994599 L 108.11081108110811,242.76622876229254 L 106.9106910691069,241.97658459473882 L 103.36033603360336,237.4854833917771 L 102.5102510251025,236.69583922422342 L 101.3101310131013,236.05425333808603 L 95.90959095909591,234.4256122425065 L 93.90939093909391,234.4256122425065 L 92.3092309230923,234.67237604486704 L 89.20892089208921,235.56072573336496 L 87.75877587758775,236.5971337032792 L 86.85868586858686,238.0777165174424 L 86.75867586758676,239.75571037349403 L 86.35863586358636,241.87787907379462 L 85.35853585358535,244.59228089976048 L 80.1080108010801,250.51461215641328 L 78.65786578657865,253.0316029404907 L 77.85778577857785,255.30182992220762 L 75.3075307530753,259.84228388564145 L 74.65746574657466,261.8163943045257 L 74.007400740074,265.91267342371054 L 73.15731573157315,267.8867838425948 L 72.05720572057206,268.87383905203694 L 70.85708570857085,269.46607217770224 L 69.45694569456946,269.76218874053484 L 68.35683568356835,269.7128359800628 L 66.1066106610661,269.2193083753417 L 61.256125612561256,270.35442186620014 z" /><path fill-rule="evenodd" fill="#D2EBD9" stroke="#A6A6A6" stroke-width="0.25" opacity="1" d="M 242.8242824282428,225.64082087847154 L 234.47344734473447,226.97334541121842 L 229.82298229822982,226.97334541121842 L 223.47234723472346,227.36816749499528 L 218.4218421842184,225.78887915988784 L 216.77167716771675,223.46929941769883 L 220.77207720772077,221.14971967550983 L 223.77237723772376,215.77026878405022 L 225.77257725772577,206.9361246595431 L 225.77257725772577,204.6165449173541 L 231.47314731473145,204.22172283357725 L 235.8235823582358,205.3568363244357 L 238.17381738173816,204.6165449173541 L 236.17361736173615,199.9773854329761 L 237.17371737173715,196.12787011615177 L 238.82388238823881,191.8835327155506 L 238.82388238823881,190.3535971409153 L 234.47344734473447,190.3535971409153 L 230.82308230823082,188.42883948250312 L 231.47314731473145,184.92479348898357 L 231.47314731473145,179.54534259752393 L 239.82398239823982,179.15052051374707 L 244.52445244524452,178.75569842997024 L 250.2250225022502,177.96605426241652 L 255.57555755575555,174.90618311314591 L 258.57585758575857,171.0566677963216 L 261.5761576157616,168.34226597035573 L 264.57645764576455,166.02268622816672 L 266.6266626662666,168.73708805413258 L 268.6268626862686,171.0566677963216 L 266.9266926692669,175.6958272806996 L 262.9262926292629,181.86492233971293 L 259.2259225922592,188.77430880580786 L 256.2256225622562,189.95877505713844 L 253.57535753575357,191.48871063177373 L 250.1250125012501,207.6764160666247 L 247.024702470247,213.30263076044488 L 252.2252225222522,219.6197841008745 L 247.17471747174716,224.99923499233415 L 242.8242824282428,225.64082087847154 z" /></g><path fill-rule="evenodd" fill="#D2EBD9" stroke="#A6A6A6" stroke-width="0.25" opacity="1" d="M 34.75347534753475,175.44906347833907 L 40.4040404040404,161.87705434850977 L 44.354435443544354,157.28724762460385 L 54.2054205420542,148.89727834434572 L 57.1057105710571,144.11006057855138 L 59.905990599059905,132.85763119091106 L 61.256125612561256,129.5016434788078 L 63.8063806380638,125.55342264103928 L 65.7065706570657,124.81313123395768 L 68.25682568256825,125.40536435962295 L 72.8072807280728,125.40536435962295 L 75.95759575957595,124.51701467112504 L 77.9077907790779,122.93772633601762 L 77.75777577757775,120.56879383335651 L 74.65746574657466,117.45956992361378 L 70.15701570157016,106.25649329644558 L 70.55705570557055,99.44581235129486 L 75.1075107510751,86.61409462854714 L 74.80748074807481,82.91263759313915 L 77.15771577157716,82.6165210303065 L 81.25812581258126,81.43205477897595 L 83.35833583358335,81.1359382161433 L 84.8084808480848,81.38270201850384 L 89.15891589158916,83.15940139549969 L 92.45924592459245,83.11004863502757 L 93.95939593959396,81.58011306039226 L 95.45954595459546,75.75648732468369 L 97.65976597659765,72.1537358102199 L 100.86008600860086,69.43933398425403 L 108.36083608360836,65.93528799073447 L 109.1109110911091,63.270238925240704 L 111.9111911191119,64.30664689515494 L 114.1114111411141,63.76376652996177 L 115.8115811581158,63.9611775718502 L 117.26172617261726,65.73787694884604 L 118.6118611861186,70.91991679841723 L 120.01200120012001,73.09143825918993 L 127.31273127312731,75.0655486780742 L 141.26412641264125,69.43933398425403 L 148.26482648264826,72.64726341494097 L 150.6150615061506,77.23707013884689 L 150.4150415041504,81.72817134180859 L 147.36473647364735,91.05584307103673 L 146.96469646964695,93.22736453180943 L 146.9146914691469,95.30018047163792 L 147.7147714771477,96.68205776485689 L 149.66496649664967,96.92882156721743 L 150.66506650665065,96.28723568108005 L 152.06520652065205,93.86895041794682 L 152.86528652865286,93.12865901086522 L 159.8159815981598,91.64807619670202 L 163.46634663466347,91.84548723859045 L 166.96669666966696,93.12865901086522 L 167.91679167916791,94.01700869936313 L 171.2171217121712,98.01458229760378 L 176.8176817681768,101.12380620734649 L 179.3179317931793,106.75002090116665 L 180.36803680368035,107.88513439202511 L 182.81828182818282,109.56312824807672 L 183.8183818381838,110.55018345751886 L 185.018501850185,113.41264356490105 L 184.7184718471847,116.27510367228324 L 183.06830683068307,122.14808216846392 L 183.06830683068307,125.65212816198348 L 183.86838683868385,128.7119993112541 L 188.2188218821882,136.85520478915168 L 189.66896689668965,138.77996244756386 L 191.36913691369136,140.16183974078285 L 193.5193519351935,141.05018942928075 L 199.1199119911991,141.05018942928075 L 204.3204320432043,142.1853029201392 L 206.12061206120612,142.33336120155553 L 216.77167716771675,139.61895937558967 L 220.42204220422042,140.11248698031073 L 227.47274727472745,142.28400844108342 L 230.52305230523052,144.2087660994956 L 231.77317731773175,147.51540105112673 L 233.8233823382338,150.57527220039734 L 238.47384738473846,151.31556360747894 L 247.37473747374736,150.52591943992525 L 254.27542754275427,152.79614642164213 L 259.3759375937594,156.49760345705013 L 260.42604260426043,157.23789486413173 L 266.77667766776676,160.39647153434657 L 274.17741774177415,158.81718319923914 L 276.47764776477646,156.54695621752225 L 279.82798279827983,150.57527220039734 L 280.5780578057806,149.6869225118994 L 281.1281128112811,150.03239183520418 L 282.028202820282,150.2791556375647 L 289.22892289228923,155.06637340335905 L 293.7293729372937,158.86653595971126 L 295.77957795779577,160.10035497151392 L 296.9296929692969,160.54452981576287 L 299.8799879987999,163.16022612078453 L 302.4302430243024,167.00974143760885 L 304.48044804480446,168.8851463355489 L 306.6306630663066,170.4150819101842 L 313.68136813681366,173.2775420175664 L 316.0816081608161,174.51136102936906 L 317.5817581758176,176.04129660400437 L 318.4818481848185,178.80505119044233 L 318.43184318431844,181.71686405829664 L 317.23172317231723,188.9223670872242 L 317.63176317631763,193.36411552971379 L 318.8818881888189,199.18774126542237 L 318.93189318931894,204.22172283357725 L 315.9315931593159,209.84793752739742 L 310.08100810081004,205.3568363244357 L 308.0808080808081,202.69178725894196 L 302.7302730273027,201.90214309138824 L 298.02980298029803,200.37220751675292 L 287.6787678767877,193.80829037396276 L 283.97839783978395,192.6731768831043 L 279.97799779978,194.59793454151645 L 274.97749774977495,192.6731768831043 L 273.97739773977395,188.77430880580786 L 273.97739773977395,185.3196155727604 L 270.92709270927094,184.5299714052067 L 266.9266926692669,184.18450208190197 L 262.9262926292629,181.86492233971293 L 266.9266926692669,175.6958272806996 L 268.6268626862686,171.0566677963216 L 266.6266626662666,168.73708805413258 L 264.57645764576455,166.02268622816672 L 261.5761576157616,168.34226597035573 L 258.57585758575857,171.0566677963216 L 255.57555755575555,174.90618311314591 L 250.2250225022502,177.96605426241652 L 244.52445244524452,178.75569842997024 L 239.82398239823982,179.15052051374707 L 231.47314731473145,179.54534259752393 L 228.1228122812281,175.6958272806996 L 222.77227722772275,174.1165389455922 L 221.07210721072107,179.3479315556355 L 216.77167716771675,176.83094077155806 L 216.42164216421642,171.40213711962633 L 208.07080708070805,173.77106962228746 L 202.7202720272027,177.22576285533492 L 192.31923192319232,177.22576285533492 L 188.96889688968895,181.07527817215924 L 185.3185318531853,183.39485791434825 L 182.96829682968297,180.28563400460553 L 182.31823182318232,174.51136102936906 L 180.96809680968096,171.0566677963216 L 178.61786178617862,174.51136102936906 L 174.9174917491749,179.15052051374707 L 171.26712671267126,179.54534259752393 L 172.26722672267226,174.51136102936906 L 171.6171617161716,171.40213711962633 L 168.26682668266827,167.55262180280204 L 163.91639163916392,166.41750831194358 L 159.21592159215922,169.08255737743733 L 155.86558655865585,172.19178128718005 L 151.86518651865185,169.87220154499104 L 150.16501650165014,166.02268622816672 L 147.16471647164715,165.233042060613 L 143.7143714371437,165.0849837791967 L 141.7141714171417,163.6537537255056 L 139.4139413941394,162.66669851606346 L 137.46374637463745,162.66669851606346 L 135.41354135413542,163.99922304881034 L 134.013401340134,165.43045310250145 L 132.76327632763275,167.10844695855306 L 129.86298629862986,171.74760644293107 L 128.012801280128,172.83336717331744 L 125.46254625462545,173.12948373615006 L 121.06210621062105,172.68530889190112 L 118.4118411841184,172.93207269426165 L 116.46164616461645,174.017833424648 L 115.5115511551155,175.30100519692277 L 114.91149114911491,175.84388556211593 L 114.46144614461446,175.74518004117172 L 113.5113511351135,171.94501748481952 L 112.51125112511251,169.82284878451892 L 111.66116611661165,168.8357935750768 L 108.66086608660865,166.46686107241567 L 107.96079607960796,164.4927506535314 L 106.86068606860685,162.37058195323084 L 98.30983098309831,153.73384887061218 L 97.3097309730973,152.30261881692107 L 96.5096509650965,150.37786115850892 L 95.90959095909591,149.5882169909552 L 94.9094909490949,148.7985728234015 L 93.50935093509351,148.30504521868045 L 91.65916591659166,147.2686372487662 L 90.5090509050905,147.12057896734987 L 89.00890089008901,147.51540105112673 L 84.6084608460846,151.7103856912558 L 79.35793579357936,155.55990100808012 L 78.65786578657865,156.30019241516172 L 76.75767576757676,160.49517705529078 L 76.05760576057605,162.8147567974798 L 75.45754575457545,165.47980586297354 L 75.00750075007501,168.8357935750768 L 75.00750075007501,172.88271993378953 L 75.6075607560756,177.27511561580704 L 76.15761576157615,179.3479315556355 L 79.70797079707971,189.16913088958472 L 79.75797579757976,190.69906646422004 L 78.8078807880788,191.9822382364948 L 76.95769576957696,192.52511860168798 L 73.85738573857385,191.9328854760227 L 71.9071907190719,190.4029499013874 L 70.8070807080708,189.16913088958472 L 69.4069406940694,188.03401739872626 L 67.60676067606761,187.3924315125889 L 63.406340634063405,187.09631494975625 L 61.75617561756175,187.63919531494943 L 60.55605560556055,188.37948672203103 L 59.55595559555955,188.57689776391945 L 58.1058105810581,188.08337015919838 L 52.3052305230523,183.54291619576458 L 38.1038103810381,176.73223525061385 L 34.75347534753475,175.44906347833907 z" /><path fill-rule="evenodd" fill="#D2EBD9" stroke="#A6A6A6" stroke-width="0.25" opacity="1" d="M 278.0778077807781,115.68287054661795 L 274.4274427442744,120.71685211477282 L 272.2272227222722,121.90131836610338 L 269.4269426942694,121.60520180327075 L 251.6251625162516,123.82607602451554 L 249.37493749374937,124.81313123395768 L 247.8247824782478,126.34306680859298 L 247.07470747074706,127.9223551437004 L 246.77467746774676,129.4522907183357 L 246.77467746774676,131.22899009533154 L 247.024702470247,133.2031005142158 L 247.97479747974796,137.25002687292854 L 248.92489248924892,139.0267262499244 L 250.57505750575055,140.75407286644813 L 256.8256825682568,144.06070781807927 L 260.7760776077608,144.3074716204398 L 261.72617261726174,145.19582130893772 L 262.3262326232623,147.07122620687778 L 259.3759375937594,156.49760345705013 L 254.27542754275427,152.79614642164213 L 247.37473747374736,150.52591943992525 L 238.47384738473846,151.31556360747894 L 233.8233823382338,150.57527220039734 L 231.77317731773175,147.51540105112673 L 230.52305230523052,144.2087660994956 L 227.47274727472745,142.28400844108342 L 220.42204220422042,140.11248698031073 L 216.77167716771675,139.61895937558967 L 206.12061206120612,142.33336120155553 L 204.3204320432043,142.1853029201392 L 199.1199119911991,141.05018942928075 L 193.5193519351935,141.05018942928075 L 191.36913691369136,140.16183974078285 L 189.66896689668965,138.77996244756386 L 188.2188218821882,136.85520478915168 L 183.86838683868385,128.7119993112541 L 183.06830683068307,125.65212816198348 L 183.06830683068307,122.14808216846392 L 184.7184718471847,116.27510367228324 L 185.018501850185,113.41264356490105 L 183.8183818381838,110.55018345751886 L 182.81828182818282,109.56312824807672 L 180.36803680368035,107.88513439202511 L 179.3179317931793,106.75002090116665 L 176.8176817681768,101.12380620734649 L 171.2171217121712,98.01458229760378 L 167.91679167916791,94.01700869936313 L 166.96669666966696,93.12865901086522 L 163.46634663466347,91.84548723859045 L 159.8159815981598,91.64807619670202 L 152.86528652865286,93.12865901086522 L 152.06520652065205,93.86895041794682 L 150.66506650665065,96.28723568108005 L 149.66496649664967,96.92882156721743 L 147.7147714771477,96.68205776485689 L 146.9146914691469,95.30018047163792 L 146.96469646964695,93.22736453180943 L 147.36473647364735,91.05584307103673 L 150.4150415041504,81.72817134180859 L 150.6150615061506,77.23707013884689 L 148.26482648264826,72.64726341494097 L 141.26412641264125,69.43933398425403 L 127.31273127312731,75.0655486780742 L 120.01200120012001,73.09143825918993 L 118.6118611861186,70.91991679841723 L 117.26172617261726,65.73787694884604 L 115.8115811581158,63.9611775718502 L 114.1114111411141,63.76376652996177 L 111.9111911191119,64.30664689515494 L 109.1109110911091,63.270238925240704 L 109.8109810981098,60.95065918305169 L 115.16151615161516,55.620561052064176 L 120.11201120112011,48.61246906502503 L 120.8120812081208,46.49030036472445 L 120.9120912091209,44.36813166442386 L 121.26212621262125,42.19661020365117 L 122.51225122512251,40.22249978476691 L 135.06350635063507,30.598711492706112 L 146.16461646164615,17.91505205137471 L 152.3152315231523,13.966831213606177 L 159.46594659465947,11.745956992361378 L 168.11681168116812,10.56149074103082 L 170.16701670167015,10.906960064335566 L 174.06740674067404,12.881070483219832 L 175.86758675867586,13.177187046052472 L 178.26782678267827,12.338190118026658 L 180.01800180018,10.956312824807673 L 181.6181618161816,9.327671729228154 L 183.56835683568355,7.797736154592848 L 187.66876687668767,5.72492021476437 L 191.96919691969197,4.293690161073277 L 216.22162216221622,2.171521460772692 L 221.17211721172117,0.0 L 221.22212221222122,4.688512244850131 L 220.72207220722072,8.488674801202341 L 220.57205720572057,12.387542878498765 L 221.77217721772175,17.17476064429311 L 223.07230723072306,19.395634865537907 L 224.77247724772477,20.629453877340573 L 226.57265726572655,21.5671563263106 L 228.17281728172816,22.99838638000169 L 229.82298229822982,25.169907840774382 L 230.52305230523052,26.601137894465477 L 234.02340234023401,37.70550900068947 L 234.27342734273427,39.67961941957373 L 233.6233623362336,41.999199161762746 L 231.2231223122312,46.19418380189181 L 230.77307730773077,48.06958869983186 L 232.37323732373235,50.932048807214045 L 249.82498249824982,64.7508217394039 L 252.5252525252525,67.95875117009084 L 253.97539753975397,73.09143825918993 L 253.42534253425342,78.52024191112166 L 251.025102510251,80.64241061142224 L 248.024802480248,82.07364066511333 L 245.77457745774575,85.28157009580026 L 246.2246224622462,89.72331853828986 L 249.37493749374937,93.27671729228153 L 253.67536753675367,95.9417663577753 L 257.47574757475746,97.42234917193849 L 263.47634763476344,98.31069886043642 L 265.47654765476545,99.19904854893433 L 266.87668766876686,100.63027860262542 L 269.4269426942694,104.38108839850553 L 271.3771377137714,105.81231845219662 L 274.57745774577455,109.06960064335566 L 278.0778077807781,115.68287054661795 z" /></g></g></g></svg>