<svg xmlns="http://www.w3.org/2000/svg" xmlns:xlink="http://www.w3.org/1999/xlink" width="346.41665866598487" height="500.0" viewBox="0.0 0.0 346.41665866598487 500.0" preserveAspectRatio="xMinYMin meet"><g transform="matrix(1,0,0,-1,0,500.0)"><g><g><path fill-rule="evenodd" fill="#D2EBD9" stroke="#A6A6A6" stroke-width="0.25" opacity="1" d="M 255.36925602830027,276.6276627662766 L 253.60235437893883,281.37813781378134 L 251.489001425781,285.1285128512851 L 245.07965230554825,289.2789278927893 L 230.1822462423046,295.9295929592959 L 223.32251042713656,302.9302930293029 L 208.87549105882815,337.8837883788379 L 201.3228526360674,350.1350135013501 L 196.61111490443685,340.7340734073407 L 193.11195673609356,346.6846684668467 L 186.42544657282374,365.93659365936594 L 178.83816301968335,377.5377537753775 L 176.89803571842373,383.0883088308831 L 178.14526041209064,390.68906890689067 L 175.40829511209935,404.9404940494049 L 172.53274929058952,410.5910591059106 L 167.78636642857933,413.34133413341334 L 171.87449181337644,421.34213421342133 L 173.50281294121933,423.5923592359236 L 172.4981041602099,423.74237423742375 L 169.86507425135753,423.4923492349235 L 169.10288138300552,423.99239923992394 L 171.87449181337644,443.2443244324432 L 173.98784476653427,452.6452645264526 L 177.03661623994225,462.59625962596255 L 170.48868659819098,465.5465546554655 L 169.51862294756114,470.94709470947095 L 170.00365477287608,477.4477447744774 L 168.09817260199605,483.7483748374837 L 162.41637121973568,489.24892489248924 L 158.98650331215168,488.7988798879888 L 156.1802477514011,485.7485748574857 L 152.3692834096411,483.3483348334833 L 142.35684072992618,481.7481748174817 L 137.40258708563817,482.49824982498245 L 131.58220518185925,485.29852985298527 L 128.91453014262723,490.34903490349035 L 127.4594346666825,496.8996899689969 L 124.65317910593195,500.0 L 117.8627335515232,494.5494549454945 L 108.50854834902137,493.59935993599356 L 104.76687426802063,487.24872487248723 L 102.96532748827953,477.84778477847783 L 99.46616931993626,467.9467946794679 L 92.91823967818496,461.14611461146114 L 76.53109300861692,453.09530953095305 L 69.2902607592729,446.4446444644464 L 67.69658476180962,442.04420442044204 L 66.83045650231871,430.94309430943093 L 65.72181233017035,426.29262926292625 L 63.05413729093834,422.3922392239224 L 56.644788170705596,416.79167916791675 L 54.011758261853224,412.54125412541254 L 54.49679008716814,404.5904590459046 L 54.49679008716814,398.18981898189816 L 53.42279104539941,392.73927392739273 L 50.235439050472856,389.3389338933893 L 41.331640542906285,385.3885388538854 L 38.594675242915,381.7381738173817 L 38.07499828722046,372.3372337233723 L 41.19306002138774,368.48684868486845 L 42.9599616707492,364.73647364736473 L 38.144288547979734,355.33553355335533 L 34.50654985811791,351.88518851885186 L 27.993265346746252,350.38503850385035 L 24.90984874295861,348.28482848284824 L 21.445335704994964,343.68436843684367 L 19.81701457715205,340.1340134013401 L 18.777660665762955,336.6836683668367 L 17.010759016401497,332.3332333233323 L 1.7669016493614589,305.8305830583058 L 0.0,299.32993299329934 L 5.196769556945467,296.8296829682968 L 14.897406063243674,289.3789378937894 L 18.985531448040774,283.17831783178315 L 7.448703031621837,284.37843784378435 L 7.483348162001473,280.42804280428044 L 6.859735815168017,278.3778377837784 L 6.0628978164363785,276.77767776777677 L 5.266059817704741,274.3274327432743 L 9.492765724020387,270.3770377037704 L 4.261351036695284,266.87668766876686 L 2.321223735435642,260.32603260326033 L 2.944836082269098,252.2252225222522 L 5.647156251880741,243.62436243624362 L 10.289603722752025,235.9235923592359 L 14.724180411345491,233.7233723372337 L 19.470563273355687,232.9232923292329 L 25.048429264477154,229.47294729472947 L 27.958620216366615,225.12251225122512 L 38.31751419987791,204.57045704570456 L 39.01041680747064,201.37013701370137 L 39.94583532772083,191.86918691869187 L 39.77260967582264,190.3190319031903 L 42.5788652365732,188.01880188018802 L 48.71105331376885,186.16861686168616 L 51.37872835300086,184.66846684668465 L 53.80388747957541,184.2184218421842 L 56.644788170705596,185.16851685168515 L 59.48568886183578,184.96849684968495 L 62.04942850992888,180.9180918091809 L 62.222654161827066,179.36793679367935 L 70.8146464959769,182.21822182218222 L 89.80017794401768,182.86828682868287 L 96.48668810728752,184.7184718471847 L 107.53848469839154,190.1190119011901 L 122.74769693505195,195.06950695069506 L 122.6091164135334,202.27022702270227 L 123.23272876036685,209.7209720972097 L 124.79175962745049,217.1217121712171 L 125.06892067048759,226.77267726772675 L 125.96969406035814,230.72307230723072 L 131.40897952996104,236.9236923692369 L 133.59162274387816,241.7241724172417 L 138.1994250843698,247.8247824782478 L 139.27342412613854,252.37523752375236 L 140.24348777676835,255.17551755175515 L 144.33161316156546,260.1760176017602 L 151.67638080204839,263.67636763676364 L 155.90308670836401,263.77637763776374 L 161.03056600455022,262.6262626262626 L 167.40526999440334,258.4258425842584 L 171.35481485768187,256.5256525652565 L 175.44294024247898,255.47554755475545 L 190.2017657842041,259.5759575957596 L 194.5670522120383,259.7259725972597 L 206.6235575841518,256.7256725672567 L 210.64239270818962,251.97519751975196 L 219.71941686765436,243.4243424342434 L 233.7160495410275,237.07370737073705 L 242.30804187517734,251.8251825182518 L 242.6544931789737,254.17541754175417 L 242.72378343973298,257.17571757175716 L 240.40255970429732,258.6258625862586 L 238.98210935873223,259.7759775977598 L 238.01204570810242,262.6262626262626 L 238.84352883721368,265.87658765876586 L 241.44191361568642,271.5271527152715 L 243.9710081333999,274.17741774177415 L 247.2276503890857,275.57755775577556 L 255.36925602830027,276.6276627662766 z" /><path fill-rule="evenodd" fill="#D2EBD9" stroke="#A6A6A6" stroke-width="0.25" opacity="1" d="M 255.36925602830027,276.6276627662766 L 247.2276503890857,275.57755775577556 L 243.9710081333999,274.17741774177415 L 241.44191361568642,271.5271527152715 L 238.84352883721368,265.87658765876586 L 238.01204570810242,262.6262626262626 L 238.98210935873223,259.7759775977598 L 240.40255970429732,258.6258625862586 L 242.72378343973298,257.17571757175716 L 242.6544931789737,254.17541754175417 L 242.30804187517734,251.8251825182518 L 233.7160495410275,237.07370737073705 L 240.67972074733441,229.27292729272926 L 242.79307370049224,227.87278727872786 L 245.25287795744643,225.17251725172517 L 246.15365134731698,223.1223122312231 L 241.02617205113077,207.17071707170717 L 234.44359727899985,206.92069206920692 L 231.39482580559186,207.47074707470745 L 225.81695981447038,203.9203920392039 L 222.17922112460855,200.5200520052005 L 202.18898089555833,168.61686168616862 L 235.82940249418533,167.76677667766776 L 241.85765518024206,166.1166116611661 L 247.7819724751599,161.96619661966196 L 250.96932447008643,157.96579657965796 L 255.12674011564283,140.06400640064007 L 262.67937853840357,125.96259625962595 L 253.42912872704065,118.26182618261825 L 251.66222707767918,116.06160616061605 L 250.76145368780863,113.7113711371137 L 252.49371020679044,111.2111211121112 L 254.88422420298537,109.010901090109 L 257.13615767766174,106.4106410641064 L 257.8637054156341,103.16031603160316 L 256.7897063738654,99.05990599059905 L 248.78668125616935,97.25972597259725 L 245.46074873972424,95.5095509550955 L 231.32553554483258,81.75817581758176 L 228.24211894104494,76.007600760076 L 228.65786050560058,66.8066806680668 L 234.06250084482386,43.85438543854385 L 235.82940249418533,32.553255325532554 L 256.7897063738654,16.851685168516852 L 268.46511531180283,10.4010401040104 L 277.23033329785085,9.5009500950095 L 277.2649784282305,14.45144514451445 L 275.9138183434247,34.953495349534954 L 279.6554924244254,63.356335633563354 L 279.6554924244254,84.85848584858485 L 282.1499418117593,92.3092309230923 L 288.76716171426983,102.76027602760276 L 300.2346998699295,116.9116911691169 L 304.7039216889026,126.1126112611261 L 307.99520907496805,131.013101310131 L 309.1731435078757,134.06340634063406 L 308.7920470736997,138.56385638563856 L 306.089726904088,141.2141214121412 L 303.2834713433375,143.1143114311431 L 302.5212784749855,145.36453645364534 L 309.3117240293942,154.96549654965494 L 341.635630673595,175.96759675967596 L 340.7695024141041,177.46774677467747 L 337.7900212014554,180.9180918091809 L 339.2797618077798,184.2184218421842 L 341.3238245001783,185.26852685268526 L 345.1347888419383,183.7183718371837 L 342.01672710777103,187.96879687968797 L 339.90337415461323,192.81928192819282 L 338.9333105039834,198.4198419841984 L 339.2451166774001,204.47044704470446 L 343.5064677140954,208.2208220822082 L 343.6796933659936,210.87108710871087 L 342.50175893308597,213.9213921392139 L 342.53640406346557,218.7218721872187 L 344.6497570166234,233.5233523352335 L 345.2733693634569,234.02340234023401 L 345.34265962421614,239.72397239723972 L 346.27807814446635,240.67406740674065 L 346.41665866598487,240.52405240524052 L 344.0607898001696,243.1243124312431 L 342.3285332811878,243.2243224322432 L 328.7822873027499,247.2247224722472 L 307.6834029015513,247.2247224722472 L 299.992183957272,249.37493749374937 L 292.5434809256502,254.12541254125412 L 279.8980083370829,266.17661766176616 L 272.44930530546105,270.92709270927094 L 268.6036958333214,271.02710271027104 L 262.02112106119046,266.97669766976696 L 258.4526726320879,267.3267326732673 L 258.00228593715264,269.62696269626963 L 255.36925602830027,276.6276627662766 z" /><path fill-rule="evenodd" fill="#D2EBD9" stroke="#A6A6A6" stroke-width="0.25" opacity="1" d="M 62.222654161827066,179.36793679367935 L 62.638395726382704,175.7175717571757 L 61.01007459853979,172.91729172917292 L 58.86207651500233,170.46704670467045 L 58.1691739074096,166.7166716671667 L 57.961303125131785,162.3162316231623 L 56.644788170705596,160.1160116011601 L 55.986530693492504,157.7157715771577 L 57.54556156057615,152.7152715271527 L 60.55968790360451,150.4150415041504 L 69.35955102003217,149.41494149414942 L 72.54690301495873,146.7146714671467 L 75.00670727191292,137.06370637063705 L 72.54690301495873,131.16311631163114 L 68.18161658712454,127.11271127112711 L 64.68245841878125,122.96229622962295 L 59.035302166900514,107.3107310731073 L 55.53614399855723,100.51005100510051 L 50.58189035426922,95.80958095809581 L 58.03059338589105,91.7091709170917 L 53.87317774033468,81.1081108110811 L 43.756799669480834,70.3070307030703 L 33.328615425210266,65.30653065306531 L 47.15202244668521,46.854685468546855 L 54.808596260584864,39.603960396039604 L 65.86039285168889,34.4034403440344 L 93.78436793767587,27.75277527752775 L 102.06455409840898,19.35193519351935 L 108.09280678446572,0.0 L 115.71473546798575,2.5502550255025502 L 153.23541166913202,4.8004800480048 L 159.6794059197444,7.25072507250725 L 163.97540208681932,13.751375137513751 L 169.2761070349037,15.75157515751575 L 170.28081581591314,19.4019401940194 L 170.2461706855335,23.75237523752375 L 172.53274929058952,27.85278527852785 L 175.68545615513645,29.15291529152915 L 188.0884128310463,30.3030303030303 L 185.2475121399161,36.5036503650365 L 210.50381218667107,39.3039303930393 L 223.01070425371984,38.003800380038 L 235.06720962583333,33.15331533153315 L 235.82940249418533,32.553255325532554 L 234.06250084482386,43.85438543854385 L 228.65786050560058,66.8066806680668 L 228.24211894104494,76.007600760076 L 231.32553554483258,81.75817581758176 L 245.46074873972424,95.5095509550955 L 248.78668125616935,97.25972597259725 L 256.7897063738654,99.05990599059905 L 257.8637054156341,103.16031603160316 L 257.13615767766174,106.4106410641064 L 254.88422420298537,109.010901090109 L 252.49371020679044,111.2111211121112 L 250.76145368780863,113.7113711371137 L 251.66222707767918,116.06160616061605 L 253.42912872704065,118.26182618261825 L 262.67937853840357,125.96259625962595 L 255.12674011564283,140.06400640064007 L 250.96932447008643,157.96579657965796 L 247.7819724751599,161.96619661966196 L 241.85765518024206,166.1166116611661 L 235.82940249418533,167.76677667766776 L 202.18898089555833,168.61686168616862 L 222.17922112460855,200.5200520052005 L 225.81695981447038,203.9203920392039 L 231.39482580559186,207.47074707470745 L 234.44359727899985,206.92069206920692 L 241.02617205113077,207.17071707170717 L 246.15365134731698,223.1223122312231 L 245.25287795744643,225.17251725172517 L 242.79307370049224,227.87278727872786 L 240.67972074733441,229.27292729272926 L 233.7160495410275,237.07370737073705 L 219.71941686765436,243.4243424342434 L 210.64239270818962,251.97519751975196 L 206.6235575841518,256.7256725672567 L 194.5670522120383,259.7259725972597 L 190.2017657842041,259.5759575957596 L 175.44294024247898,255.47554755475545 L 171.35481485768187,256.5256525652565 L 167.40526999440334,258.4258425842584 L 161.03056600455022,262.6262626262626 L 155.90308670836401,263.77637763776374 L 151.67638080204839,263.67636763676364 L 144.33161316156546,260.1760176017602 L 140.24348777676835,255.17551755175515 L 139.27342412613854,252.37523752375236 L 138.1994250843698,247.8247824782478 L 133.59162274387816,241.7241724172417 L 131.40897952996104,236.9236923692369 L 125.96969406035814,230.72307230723072 L 125.06892067048759,226.77267726772675 L 124.79175962745049,217.1217121712171 L 123.23272876036685,209.7209720972097 L 122.6091164135334,202.27022702270227 L 122.74769693505195,195.06950695069506 L 107.53848469839154,190.1190119011901 L 96.48668810728752,184.7184718471847 L 89.80017794401768,182.86828682868287 L 70.8146464959769,182.21822182218222 L 62.222654161827066,179.36793679367935 z" /></g></g></g></svg>