<svg xmlns="http://www.w3.org/2000/svg" xmlns:xlink="http://www.w3.org/1999/xlink" width="500.0" height="482.8315551779233" viewBox="0.0 0.0 500.0 482.8315551779233" preserveAspectRatio="xMinYMin meet"><g transform="matrix(1,0,0,-1,0,482.8315551779233)"><g><g><path fill-rule="evenodd" fill="#D2EBD9" stroke="#A6A6A6" stroke-width="0.25" opacity="1" d="M 70.55705570557055,454.19678047840245 L 67.95679567956795,452.36183707438596 L 50.00500050005,443.71828788178186 L 49.154915491549154,442.8008161797736 L 47.85478547854785,439.85524913648396 L 46.804680468046804,438.84120146584326 L 44.654465446544656,437.2476979834079 L 44.004400440044,437.05454604614295 L 42.85428542854285,437.6340018579377 L 42.3042304230423,437.68228984225385 L 41.55415541554155,436.95797007751054 L 41.3041304130413,433.96411504990465 L 40.904090409040904,432.7086274576828 L 39.55395539553955,431.5014278497772 L 39.05390539053905,430.19765227323916 L 38.2038203820382,429.18360460259845 L 37.7037703770377,428.7490127437524 L 35.95359535953595,428.0729809633253 L 32.4032403240324,428.1212689476415 L 30.8030803080308,426.81749337110347 L 28.65286528652865,423.05103059443803 L 26.65266526652665,420.7814953315755 L 26.15261526152615,419.91231161388345 L 25.802580258025802,417.4979123980723 L 25.9025902590259,416.8701686019613 L 28.252825282528253,410.54444265653603 L 29.2029202920292,406.6814039112381 L 30.2030203020302,404.55673260132426 L 30.053005300530053,402.4803492757266 L 30.2030203020302,401.17657369918857 L 31.003100310031,398.6173105304287 L 30.95309530953095,397.3618229382069 L 30.503050305030502,395.91318340872016 L 28.55285528552855,391.85699272615733 L 25.65256525652565,388.5734097926541 L 22.35223522352235,383.16515554923706 L 18.4018401840184,378.0949171960335 L 17.6017601760176,377.61203735287125 L 15.301530153015301,377.4671733999226 L 14.401440144014401,377.2257334783415 L 0.0,369.4030800191132 L 0.7500750075007501,368.1958804112076 L 4.25042504250425,363.99482577569614 L 8.3008300830083,357.95882773616813 L 12.001200120012001,350.9087820259994 L 17.001700170017,333.57339565647504 L 17.7017701770177,328.06856544442553 L 17.8017801780178,321.2599596558379 L 17.05170517051705,315.22396161630996 L 20.05200520052005,316.6243131614804 L 26.8026802680268,318.7489844713943 L 29.75297529752975,317.6383608321211 L 34.3034303430343,315.07909766336127 L 36.35363536353635,315.41711355357484 L 44.7044704470447,319.2318643145565 L 47.05470547054705,321.2116716715217 L 49.354935493549355,322.70859918532466 L 51.15511551155115,323.33634298143556 L 52.05520552055205,321.2599596558379 L 52.5052505250525,318.65240850276183 L 54.5054505450545,316.04485734968574 L 58.555855585558554,315.3688255692586 L 60.006000600060005,314.30648991430166 L 64.2064206420642,312.56812247891764 L 66.2066206620662,312.56812247891764 L 69.5069506950695,314.69279378883147 L 72.50725072507251,314.20991394566926 L 73.6073607360736,314.25820192998543 L 76.8076807680768,314.93423371041257 L 78.85788578857886,312.80956240049875 L 82.25822582258225,311.9886666671229 L 83.95839583958396,314.40306588293413 L 83.008300830083,320.8736557813081 L 82.25822582258225,323.867510808914 L 79.45794579457946,327.77883753852814 L 76.95769576957696,332.07646814267207 L 76.95769576957696,342.1686568647629 L 74.45744574457446,358.24855564206547 L 73.5073507350735,366.3126490228749 L 73.25732573257325,373.74899860757336 L 73.4073407340734,380.2195885059474 L 72.55725572557256,384.9035229846211 L 72.85728572857285,386.9799063102187 L 74.50745074507451,388.7182737456028 L 77.05770577057706,392.91932838111427 L 81.3081308130813,399.14847835790715 L 84.30843084308431,404.7015965542729 L 83.75837583758376,404.8947484915378 L 82.2082208220822,407.8403155348275 L 80.85808580858085,410.83417056243337 L 80.35803580358035,414.06946551162036 L 80.6080608060806,418.7533999902941 L 80.2080208020802,422.4232867983271 L 80.35803580358035,426.81749337110347 L 80.95809580958095,430.5356681634527 L 79.9079907990799,437.2476979834079 L 80.45804580458045,441.93163246208155 L 81.15811581158115,445.6498072544308 L 81.15811581158115,450.09230181152344 L 76.05760576057605,450.0440138272072 L 74.25742574257426,450.6717576233181 L 72.65726572657265,452.4101250587022 L 70.55705570557055,454.19678047840245 z" /><path fill-rule="evenodd" fill="#D2EBD9" stroke="#A6A6A6" stroke-width="0.25" opacity="1" d="M 70.55705570557055,454.19678047840245 L 72.65726572657265,452.4101250587022 L 74.25742574257426,450.6717576233181 L 76.05760576057605,450.0440138272072 L 81.15811581158115,450.09230181152344 L 88.55885588558856,451.83066924690746 L 89.35893589358935,453.81047660387264 L 94.5094509450945,456.3214517883163 L 96.10961096109611,458.44612309823015 L 100.06000600060005,461.0536742513063 L 101.3101310131013,463.1783455612201 L 102.96029602960296,468.49002383600475 L 103.56035603560356,468.972903679167 L 96.45964596459645,469.74551142822656 L 95.05950595059505,470.13181530275637 L 92.55925592559255,471.33901491066194 L 90.55905590559055,472.6910784715162 L 89.35893589358935,473.077382346046 L 88.05880588058805,474.4294459069003 L 80.65806580658065,479.11338038557403 L 77.25772577257726,480.2722920091634 L 75.75757575757575,481.14147572685545 L 76.3076307630763,480.4171559621121 L 78.35783578357835,479.74112418168494 L 79.007900790079,479.0650924012578 L 77.8077807780778,479.49968426010383 L 74.007400740074,480.0791400718985 L 73.007300730073,480.5620199150607 L 72.50725072507251,480.99661177390675 L 72.10721072107211,481.9623714602312 L 71.65716571657165,482.25209936612856 L 69.90699069906991,482.8315551779233 L 69.90699069906991,481.14147572685545 L 69.006900690069,477.5681648874548 L 68.95689568956895,474.86403776574633 L 68.35683568356835,472.35306258130265 L 68.6068606860686,468.4417358516885 L 68.15681568156815,464.48212113775816 L 68.15681568156815,462.45402579647674 L 68.8068806880688,461.00538626699006 L 70.9070907090709,458.9290029413924 L 71.65716571657165,457.57693938053814 L 71.75717571757176,455.98343589810275 L 71.2071207120712,454.82452427451335 L 70.55705570557055,454.19678047840245 z" /><path fill-rule="evenodd" fill="#D2EBD9" stroke="#A6A6A6" stroke-width="0.25" opacity="1" d="M 311.88118811881185,79.77175009040197 L 381.2381238123812,42.976306041439315 L 462.99629962996295,0.0 L 462.99629962996295,16.707642573413487 L 494.39943994399437,16.804218542045934 L 494.49944994499447,259.3064757781226 L 453.39533953395335,258.38900407611436 L 416.5416541654165,257.9544122172683 L 398.1398139813981,257.85783624863586 L 360.3360336033603,258.34071609179813 L 311.38113811381135,258.00270020158456 L 311.3311331133113,222.51103172915995 L 311.88118811881185,79.77175009040197 z" /><path fill-rule="evenodd" fill="#D2EBD9" stroke="#A6A6A6" stroke-width="0.25" opacity="1" d="M 311.88118811881185,79.77175009040197 L 311.3311331133113,222.51103172915995 L 310.03100310031,223.13877552527086 L 306.6806680668067,224.29768714886023 L 302.4302430243024,225.36002280381717 L 293.9293929392939,227.2432541921499 L 290.77907790779074,227.6295580666797 L 287.5287528752875,230.57512510996935 L 284.6284628462846,233.9069960277888 L 280.978097809781,235.59707547885665 L 276.5276527652765,234.4864518395835 L 273.07730773077304,232.6997964198832 L 271.6271627162716,230.8648530158667 L 267.5267526752675,227.87099798826083 L 264.97649764976495,227.09839023920122 L 260.8760876087609,226.76037434898765 L 258.57585758575857,225.31173481950094 L 255.9255925592559,224.2011111802278 L 251.3251325132513,225.89119063129564 L 241.17411741174115,228.11243790984193 L 239.32393239323932,230.57512510996935 L 236.8236823682368,232.36178052966963 L 234.42344234423442,233.81042005915637 L 231.07310731073105,237.3354429142407 L 229.42294229422941,240.9087537536413 L 229.62296229622962,244.5303525773581 L 227.9227922792279,247.0413277618017 L 226.02260226022602,248.15195140107488 L 221.67216721672165,250.2283347266725 L 220.27202720272027,252.11156611500525 L 219.97199719971997,255.0571331582949 L 220.32203220322032,260.22394748013085 L 203.97039703970395,255.73316493872204 L 194.7194719471947,253.94650951902176 L 188.76887688768875,253.2221897542784 L 179.16791679167915,250.75950255415097 L 174.56745674567455,249.0211351187669 L 168.71687168716872,242.9851370792389 L 165.46654665466545,239.26696228688968 L 161.86618661866186,235.54878749454042 L 152.7152715271527,231.73403673355872 L 146.4146414641464,231.00971696881538 L 138.06380638063806,227.96757395689326 L 132.16321632163215,226.51893442740655 L 129.9129912991299,224.4425511018089 L 126.71267126712671,220.43464840356233 L 123.46234623462345,218.02024918775112 L 115.9115911591159,217.48908136027268 L 107.76077607760776,214.64009028561546 L 105.16051605160516,212.5637069600178 L 101.26012601260125,212.1291151011718 L 96.95969596959695,212.99829881886384 L 90.5090509050905,207.54175659113054 L 81.008100810081,206.52770892048983 L 78.35783578357835,207.44518062249807 L 72.7072707270727,210.19759572852286 L 66.55665566556655,206.6725728734385 L 64.45644564456445,201.0228787084403 L 64.7064706470647,194.11769695122027 L 64.5064506450645,180.40390940541266 L 68.35683568356835,173.35386369524397 L 69.15691569156915,168.81479316951894 L 68.7068706870687,164.08257070652897 L 71.05710571057105,163.1168110202045 L 71.85718571857186,162.05447536524758 L 84.50845084508451,136.22040375606775 L 132.2132213221322,124.63128752017401 L 135.86358635863584,122.55490419457638 L 153.4153415341534,106.8613092918036 L 155.3155315531553,105.36438177800066 L 155.8155815581558,105.41266976231688 L 179.9179917991799,118.59528948064602 L 209.020902090209,132.93682082256453 L 210.42104210421041,133.61285260299167 L 211.07110711071107,133.7094285716241 L 311.88118811881185,79.77175009040197 z" /><path fill-rule="evenodd" fill="#D2EBD9" stroke="#A6A6A6" stroke-width="0.25" opacity="1" d="M 494.49944994499447,296.53651168593126 L 494.49944994499447,335.45662704480776 L 494.2494249424942,337.5330103704054 L 493.69936993699366,339.5128177273706 L 491.09910991099105,345.83854367279594 L 490.79907990799074,347.09403126501775 L 490.69906990699064,348.49438281018826 L 490.99909990999095,352.0194056652726 L 490.54905490549055,353.5163331790755 L 488.94889488948894,356.22046030078405 L 488.6988698869887,357.717387814587 L 489.24892489248924,359.648907187236 L 489.14891489148914,361.1941226853551 L 486.4486448644864,368.00272847394274 L 485.2485248524852,370.36883970543767 L 485.2485248524852,371.8174792349244 L 485.7485748574857,373.0729668271462 L 487.0987098709871,375.4390780586412 L 487.8987898789879,377.2257334783415 L 489.6989698969897,379.25382881962287 L 491.5491549154915,382.0545319099639 L 492.1492149214921,383.3100195021857 L 492.5492549254925,385.2898268591509 L 493.49934993499346,387.80080204359456 L 493.8493849384938,389.8288973848759 L 494.69946994699467,392.53302450658447 L 494.89948994899487,393.8368000831225 L 494.49944994499447,395.28543961260925 L 493.09930993099306,398.2310066558989 L 492.69926992699266,400.1142380442316 L 491.59915991599155,402.38377330709415 L 491.39913991399135,403.15638105615375 L 490.6490649064906,407.0677077857679 L 490.2990299029903,414.5523453547826 L 490.69906990699064,415.711256978372 L 495.7995799579958,419.91231161388345 L 496.999699969997,423.05103059443803 L 497.84978497849784,424.30651818665984 L 500.0,426.14146159067633 L 498.8998899889989,428.31442088490644 L 498.74987498749874,428.94216468101735 L 497.0997099709971,431.40485188114474 L 495.999599959996,432.6120514890504 L 495.7995799579958,433.2880832694775 L 496.1496149614961,435.55761853234003 L 495.6495649564956,436.7648181402456 L 494.49944994499447,437.489137904989 L 490.8490849084908,438.2617456540486 L 489.54895489548954,438.792913481527 L 488.4988498849885,438.9377774344757 L 486.6986698669867,439.9035371208002 L 485.9485948594859,439.61380921490286 L 484.69846984698466,439.85524913648396 L 483.59835983598356,439.22750534037306 L 480.7980798079808,438.358321622681 L 472.39723972397235,438.9377774344757 L 466.4466446644664,438.8894894501595 L 465.69656965696566,439.08264138742436 L 463.7463746374637,440.6278568855435 L 462.6462646264626,441.1107367287058 L 463.5463546354635,442.1247843993465 L 458.5458545854585,444.2011677249441 L 453.1453145314531,445.45665531716594 L 448.7948794879488,445.4083673328497 L 444.8444844484448,445.7463832230633 L 443.7443744374437,446.6155669407553 L 442.0942094209421,446.760430893704 L 441.4941494149415,447.0018708152851 L 441.8941894189419,444.73233555242257 L 441.5941594159416,445.0220634583199 L 441.04410441044104,446.2292630662255 L 439.99399939994,446.71214290938775 L 438.9438943894389,443.1871200543034 L 437.39373937393736,438.792913481527 L 435.79357935793576,432.9983553635802 L 435.39353935393535,426.33461352794126 L 434.29342934293425,420.5883433943106 L 431.5931593159316,416.580440696064 L 430.6930693069307,410.3030027349549 L 430.64306430643063,404.65330856995666 L 431.0931093109311,401.94918144824817 L 431.0931093109311,394.3196799262848 L 433.8433843384338,393.25734427132784 L 434.043404340434,298.08172718405046 L 493.8493849384938,296.68137563887996 L 494.49944994499447,296.53651168593126 z" /><path fill-rule="evenodd" fill="#D2EBD9" stroke="#A6A6A6" stroke-width="0.25" opacity="1" d="M 494.49944994499447,296.53651168593126 L 493.8493849384938,296.68137563887996 L 434.043404340434,298.08172718405046 L 433.8433843384338,393.25734427132784 L 431.0931093109311,394.3196799262848 L 425.4425442544254,394.02995202038744 L 422.2922292229223,394.9957117067119 L 420.04200420042,395.4303035655579 L 416.69166916691665,397.7964147970529 L 414.9414941494149,401.41801362076967 L 408.69086908690866,407.0677077857679 L 404.0904090409041,406.1019480994434 L 394.03940394039404,405.13618841311893 L 391.6391639163916,404.1221407424782 L 389.68896889688966,403.30124500910244 L 381.58815881588157,402.91494113457264 L 379.08790879087906,403.01151710320505 L 366.98669866986694,403.39782097773485 L 360.78607860786076,402.1906213698293 L 356.23562356235624,401.94918144824817 L 354.035403540354,402.6252132286753 L 350.68506850685066,404.94303647585406 L 348.3348334833483,408.1300434407248 L 346.984698469847,410.2547147506387 L 343.48434843484347,411.3653383899118 L 341.7341734173417,411.3170504055956 L 342.38423842384236,410.10985079769 L 341.98419841984196,409.9649868447413 L 342.18421842184216,409.67525893884397 L 342.3342334233423,404.94303647585406 L 342.18421842184216,403.39782097773485 L 340.68406840684065,399.3416302951721 L 338.68386838683864,395.04399969102815 L 336.983698369837,393.5953601615414 L 334.8334833483348,390.0703373064571 L 329.6329632963296,383.79289934534796 L 325.4825482548255,380.50931641184474 L 324.8324832483248,380.17130052163117 L 323.38233823382336,379.88157261573383 L 322.7322732273227,379.59184470983644 L 319.2319231923192,377.2740214626577 L 316.6816681668167,376.0185338704359 L 313.58135813581356,375.10106216842763 L 310.6310631063106,374.76304627821406 L 307.83078307830783,374.8596222468465 L 305.030503050305,375.2459261213763 L 303.68036803680366,375.825381933171 L 299.12991299129914,378.8192369607769 L 298.52985298529853,372.25207109377044 L 297.4297429742974,365.1537373992855 L 297.029702970297,359.0694513754413 L 297.6297629762976,352.98516535159706 L 296.57965796579657,347.6251990924962 L 292.77927792779275,342.2652328333954 L 290.7290729072907,334.8771712330131 L 290.2790279027903,324.4952546050249 L 290.2790279027903,311.02290698079844 L 306.1806180618062,305.9043806432787 L 311.48114811481145,305.5180767687489 L 311.38113811381135,258.00270020158456 L 360.3360336033603,258.34071609179813 L 398.1398139813981,257.85783624863586 L 416.5416541654165,257.9544122172683 L 453.39533953395335,258.38900407611436 L 494.49944994499447,259.3064757781226 L 494.49944994499447,296.53651168593126 z" /><path fill-rule="evenodd" fill="#D2EBD9" stroke="#A6A6A6" stroke-width="0.25" opacity="1" d="M 20.3020302030203,286.63747490110535 L 24.95249524952495,283.9333477793968 L 31.053105310531052,281.2292206576883 L 43.204320432043204,277.75248578692015 L 50.555055505550555,276.40042222606587 L 54.6054605460546,274.90349471226295 L 57.355735573557354,273.0202633239302 L 59.15591559155915,269.10893659431605 L 60.106010601060106,260.85169127624175 L 62.156215621562154,248.68311922855332 L 65.30653065306531,234.92104369842951 L 65.8065806580658,229.99566929817468 L 77.4077407740774,237.67345880445427 L 95.25952595259525,250.18004674235627 L 109.86098609860986,261.5760110409851 L 117.41174117411741,266.40480947260755 L 123.012301230123,267.90173698641047 L 128.012801280128,267.03255326871846 L 136.7136713671367,264.2801381626937 L 147.96479647964796,262.1071788684636 L 161.76617661766176,263.700682350899 L 163.71637163716372,265.39076180196685 L 165.016501650165,267.370569158932 L 168.01680168016802,269.4469524845296 L 175.26752675267525,273.88944704162225 L 177.51775177517752,277.89734973986884 L 182.16821682168217,279.97373306546643 L 191.16911691169116,281.13264468905584 L 193.1193119311931,282.14669235969654 L 197.76977697769775,283.8850597950806 L 205.07050705070506,283.16074003033725 L 205.1205120512051,283.9333477793968 L 207.4207420742074,290.0659217875573 L 208.17081708170815,292.9632008465307 L 207.7207720772077,295.90876788982035 L 204.97049704970496,298.66118299584514 L 198.56985698569855,300.7375663214427 L 195.96959695969596,300.8824302743914 L 191.96919691969197,300.4961263998616 L 187.86878687868787,298.13001516836664 L 183.86838683868385,297.69542330952066 L 180.56805680568056,298.27487912131534 L 179.8179817981798,300.8824302743914 L 179.76797679767975,303.68313336473244 L 178.7178717871787,307.6427480786628 L 174.96749674967495,311.6989387612256 L 169.3169316931693,315.3688255692586 L 165.1165116511651,318.84556044002676 L 163.26632663266327,321.69455151468395 L 161.8161816181618,324.54354258934114 L 161.36613661366135,328.5031573032715 L 161.7161716171617,336.47067471544847 L 161.8161816181618,338.45048207241365 L 160.16601660166015,340.5751533823275 L 157.56575657565756,343.3758564726685 L 154.21542154215422,345.7902556884797 L 148.26482648264826,348.88068668471806 L 145.66456645664564,349.46014249651273 L 142.96429642964296,348.6392467631369 L 137.76377637763775,344.1484642217281 L 133.26332633263326,338.5470580410461 L 131.8131813181318,335.4083390604915 L 130.21302130213022,332.80078790741544 L 123.56235623562355,323.28805499711933 L 120.3120312031203,319.5698802047701 L 116.76167616761676,317.68664881643735 L 112.26122612261226,314.8859457260964 L 110.41104110411041,313.2441542593448 L 109.36093609360935,310.7331790749011 L 107.16071607160715,308.4636438120386 L 104.06040604060405,308.3670678434061 L 101.3101310131013,309.7191314042604 L 101.01010101010101,312.5198344946014 L 99.05990599059905,312.9061383691312 L 94.25942594259425,313.29244224366096 L 90.45904590459045,314.8859457260964 L 88.95889588958896,315.1273856476775 L 84.95849584958495,316.2380092869506 L 83.95839583958396,314.40306588293413 L 82.25822582258225,311.9886666671229 L 78.85788578857886,312.80956240049875 L 76.8076807680768,314.93423371041257 L 73.6073607360736,314.25820192998543 L 72.50725072507251,314.20991394566926 L 69.5069506950695,314.69279378883147 L 66.2066206620662,312.56812247891764 L 64.2064206420642,312.56812247891764 L 60.006000600060005,314.30648991430166 L 58.555855585558554,315.3688255692586 L 54.5054505450545,316.04485734968574 L 52.5052505250525,318.65240850276183 L 52.05520552055205,321.2599596558379 L 51.15511551155115,323.33634298143556 L 49.354935493549355,322.70859918532466 L 47.05470547054705,321.2116716715217 L 44.7044704470447,319.2318643145565 L 36.35363536353635,315.41711355357484 L 34.3034303430343,315.07909766336127 L 29.75297529752975,317.6383608321211 L 26.8026802680268,318.7489844713943 L 20.05200520052005,316.6243131614804 L 17.05170517051705,315.22396161630996 L 15.45154515451545,302.66908569409173 L 15.851585158515851,300.54441438417786 L 20.452045204520452,288.3275543521732 L 20.3020302030203,286.63747490110535 z" /><path fill-rule="evenodd" fill="#D2EBD9" stroke="#A6A6A6" stroke-width="0.25" opacity="1" d="M 20.3020302030203,286.63747490110535 L 18.151815181518153,279.53914120662046 L 17.65176517651765,278.8148214418771 L 16.001600160016,277.75248578692015 L 16.1016101610161,277.0281660221768 L 16.851685168516852,275.4829505240576 L 16.6016601660166,274.8069187436305 L 15.251525152515251,273.3099912298276 L 14.8014801480148,272.53738348076797 L 14.401440144014401,270.4610001551703 L 13.7013701370137,268.48119279820514 L 13.7013701370137,267.90173698641047 L 16.351635163516352,258.4372920604306 L 17.001700170017,254.76740525239757 L 17.3017301730173,254.0430854876542 L 19.55195519551955,252.54615797385125 L 19.65196519651965,252.01499014637278 L 18.85188518851885,248.24852736970732 L 18.8018801880188,247.0413277618017 L 19.15191519151915,246.07556807547724 L 19.2019201920192,245.30296032641766 L 17.9017901790179,240.7638898006926 L 17.3017301730173,240.0878580202655 L 6.2006200620062,234.7278917611646 L 6.0006000600060005,233.42411618462657 L 5.75057505750575,232.94123634146433 L 4.65046504650465,231.92718867082363 L 4.1004100410041,230.52683712565315 L 3.65036503650365,229.94738131385844 L 2.9002900290029,228.30558984710683 L 3.6003600360036003,226.32578249014165 L 21.5021502150215,201.2160306457052 L 22.752275227522752,198.9947833671589 L 23.15231523152315,196.7735360886126 L 23.502350235023503,182.4802927310103 L 23.9023902390239,181.51453304468583 L 28.55285528552855,178.76211793866105 L 29.15291529152915,177.8446462366528 L 29.7029702970297,174.6093512874658 L 30.1030103010301,173.4021516795602 L 30.7030703070307,172.7744078834493 L 34.8034803480348,169.3942489813136 L 35.4035403540354,169.2010970440487 L 36.65366536653665,169.29767301268117 L 43.8043804380438,171.9535121500735 L 44.504450445044505,172.05008811870593 L 68.7068706870687,164.08257070652897 L 69.15691569156915,168.81479316951894 L 68.35683568356835,173.35386369524397 L 64.5064506450645,180.40390940541266 L 64.7064706470647,194.11769695122027 L 64.45644564456445,201.0228787084403 L 66.55665566556655,206.6725728734385 L 64.5064506450645,209.6664279010444 L 63.556355635563555,213.57775463065852 L 63.95639563956395,220.28978445061367 L 65.10651065106511,225.50488675676584 L 65.8065806580658,229.99566929817468 L 65.30653065306531,234.92104369842951 L 62.156215621562154,248.68311922855332 L 60.106010601060106,260.85169127624175 L 59.15591559155915,269.10893659431605 L 57.355735573557354,273.0202633239302 L 54.6054605460546,274.90349471226295 L 50.555055505550555,276.40042222606587 L 43.204320432043204,277.75248578692015 L 31.053105310531052,281.2292206576883 L 24.95249524952495,283.9333477793968 L 20.3020302030203,286.63747490110535 z" /><path fill-rule="evenodd" fill="#D2EBD9" stroke="#A6A6A6" stroke-width="0.25" opacity="1" d="M 215.82158215821582,411.3170504055956 L 215.12151215121511,409.62697095452774 L 215.17151715171516,403.4943969463673 L 218.6218621862186,390.3117772280382 L 220.02200220022002,383.16515554923706 L 221.07210721072107,376.4048377449657 L 226.17261726172617,362.25645834031207 L 227.2227222722272,356.5101882066814 L 228.27282728272826,351.8262537280077 L 227.57275727572755,348.10807893565845 L 224.72247224722472,343.71387236288206 L 225.22252225222522,344.0518882530956 L 228.97289728972896,343.0378405824549 L 235.02350235023502,343.4241444569847 L 238.37383738373836,344.776208017839 L 242.4242424242424,344.48648011194166 L 245.8245824582458,341.44433710001954 L 250.5250525052505,340.1405615234815 L 253.52535253525352,339.1265138528408 L 256.57565756575656,341.83064097454934 L 258.9258925892589,343.1827045354036 L 261.32613261326134,343.1827045354036 L 263.97639763976395,340.81659330390863 L 264.6264626462646,338.1124661822001 L 265.97659765976596,334.7805952643806 L 268.6768676867687,331.7384522524585 L 271.32713271327134,328.4065813346391 L 272.6272627262726,324.35039065207627 L 273.97739773977395,319.32844028318897 L 277.27772777277727,315.9965693653695 L 281.6281628162816,312.9544263534474 L 286.6286628662866,311.60236279259317 L 290.2790279027903,310.39516318468753 L 290.2790279027903,311.02290698079844 L 290.2790279027903,324.4952546050249 L 290.7290729072907,334.8771712330131 L 292.77927792779275,342.2652328333954 L 296.57965796579657,347.6251990924962 L 297.6297629762976,352.98516535159706 L 297.029702970297,359.0694513754413 L 297.4297429742974,365.1537373992855 L 298.52985298529853,372.25207109377044 L 299.12991299129914,378.8192369607769 L 298.52985298529853,379.15725285099046 L 297.1797179717972,379.39869277257156 L 295.1295129512951,380.55760439616097 L 294.17941794179416,381.37850012953675 L 292.4292429242924,383.35830748650193 L 284.7284728472847,389.1045776201326 L 281.97819781978194,392.3881605536358 L 281.07810781078103,393.25734427132784 L 280.0780078007801,393.8368000831225 L 275.07750775077506,395.76831945577146 L 272.2272227222722,396.3960632518824 L 271.02710271027104,397.2169589852582 L 269.7769776977698,398.90703843632605 L 267.47674767476747,399.3416302951721 L 264.8264826482648,400.2108140128641 L 262.37623762376234,401.41801362076967 L 257.4257425742574,402.91494113457264 L 256.2256225622562,403.9772767895296 L 254.57545754575457,404.8947484915378 L 253.42534253425342,404.8947484915378 L 248.07480748074806,406.0536601151272 L 241.17411741174115,408.4680593309384 L 234.47344734473447,409.9649868447413 L 222.8222822282228,410.06156281337377 L 215.82158215821582,411.3170504055956 z" /><path fill-rule="evenodd" fill="#D2EBD9" stroke="#A6A6A6" stroke-width="0.25" opacity="1" d="M 172.3172317231723,455.4039800863081 L 172.3172317231723,455.0176762117783 L 171.9171917191719,454.1484924940862 L 171.26712671267126,451.49265335669395 L 171.56715671567156,449.56113398404494 L 172.4172417241724,447.5330386427636 L 172.26722672267226,445.31179136421724 L 171.06710671067106,443.8148638504143 L 170.01700170017,440.724432854176 L 169.5169516951695,437.44084992067275 L 163.31633163316332,436.61995418729697 L 160.01600160016,437.82715379520255 L 157.46574657465746,440.3864169639624 L 152.36523652365236,443.95972780336297 L 150.56505650565055,441.8833444777654 L 148.26482648264826,441.4004646346031 L 147.26472647264725,441.5453285875518 L 145.3145314531453,442.46280028956005 L 143.26432643264326,442.4145123052438 L 141.46414641464145,441.69019254050045 L 138.3138313831383,440.7727208384922 L 136.4136413641364,440.43470494827864 L 129.5129512951295,440.5312809169111 L 131.26312631263124,437.19940999909164 L 132.4132413241324,431.7428677713583 L 134.46344634463446,427.73496507311177 L 135.9135913591359,424.3548061709761 L 136.9136913691369,420.44347944136194 L 138.7138713871387,417.88421627260203 L 142.16421642164215,413.5865856684581 L 145.86458645864585,411.26876242127935 L 146.4146414641464,410.64101862516844 L 150.56505650565055,402.8666531502564 L 155.16551655165514,391.47068885162753 L 159.76597659765974,389.00800165150014 L 162.7162716271627,387.7525140592783 L 166.16661666166615,385.24153887483465 L 173.11731173117312,383.3100195021857 L 175.56755675567555,382.15110787859635 L 178.41784178417842,380.0747245529987 L 179.46794679467945,369.9342478465917 L 179.36793679367935,365.7814811953964 L 177.86778677867787,362.98077810505544 L 175.76757675767576,360.8078188108253 L 175.4175417541754,360.1317870303982 L 176.86768676867686,359.3108912970224 L 179.26792679267925,356.99306804984366 L 181.66816681668166,354.2889409281351 L 186.36863686368636,352.6954374456997 L 189.4189418941894,352.0676936495888 L 192.16921692169217,351.10193396326434 L 195.86958695869586,351.1502219475806 L 197.86978697869785,350.1844622612561 L 198.9198919891989,349.1704145906154 L 200.97009700970096,345.83854367279594 L 203.3203320332033,343.1827045354036 L 207.7207720772077,342.5549607392927 L 209.7209720972097,344.24504019036056 L 212.77127712771275,345.93511964142834 L 215.77157715771577,346.9974552963853 L 223.2223222322232,344.67963204920653 L 224.72247224722472,343.71387236288206 L 227.57275727572755,348.10807893565845 L 228.27282728272826,351.8262537280077 L 227.2227222722272,356.5101882066814 L 226.17261726172617,362.25645834031207 L 221.07210721072107,376.4048377449657 L 220.02200220022002,383.16515554923706 L 218.6218621862186,390.3117772280382 L 215.17151715171516,403.4943969463673 L 215.12151215121511,409.62697095452774 L 215.82158215821582,411.3170504055956 L 212.9212921292129,411.8482182330741 L 204.020402040204,416.0009848842693 L 201.67016701670167,417.83592828828586 L 199.6199619961996,420.0088875825159 L 196.21962196219621,424.8859739984545 L 195.46954695469546,426.2380375593088 L 191.66916691669167,436.04049837550224 L 191.36913691369136,437.3925619363565 L 191.2191219121912,440.09668905806507 L 191.3191319131913,442.46280028956005 L 191.66916691669167,444.5874715994739 L 191.51915191519151,445.1669274112686 L 190.16901690169016,447.0018708152851 L 189.46894689468945,448.35393437613936 L 188.9188918891889,450.47860568605324 L 188.5188518851885,450.9131975448992 L 187.36873687368737,451.58922932532636 L 186.16861686168616,453.18273280776174 L 183.6183618361836,454.0519165254538 L 177.2177217721772,455.21082814904315 L 172.3172317231723,455.4039800863081 z" /><path fill-rule="evenodd" fill="#D2EBD9" stroke="#A6A6A6" stroke-width="0.25" opacity="1" d="M 147.06470647064705,466.9448083378856 L 145.06450645064507,465.1581529181853 L 142.6142614261426,462.502313780793 L 142.46424642464245,461.82628200036584 L 139.16391639163916,461.43997812583603 L 135.06350635063507,459.5567467375033 L 131.2131213121312,458.34954712959774 L 129.6129612961296,454.8728122588296 L 129.1129112911291,452.94129288618063 L 128.012801280128,452.21697312143726 L 124.46244624462446,451.0580614978479 L 124.91249124912491,450.47860568605324 L 128.46284628462845,446.1809750819093 L 129.36293629362936,442.7525281954574 L 129.5129512951295,440.5312809169111 L 136.4136413641364,440.43470494827864 L 138.3138313831383,440.7727208384922 L 141.46414641464145,441.69019254050045 L 143.26432643264326,442.4145123052438 L 145.3145314531453,442.46280028956005 L 147.26472647264725,441.5453285875518 L 148.26482648264826,441.4004646346031 L 150.56505650565055,441.8833444777654 L 152.36523652365236,443.95972780336297 L 157.46574657465746,440.3864169639624 L 160.01600160016,437.82715379520255 L 163.31633163316332,436.61995418729697 L 169.5169516951695,437.44084992067275 L 170.01700170017,440.724432854176 L 171.06710671067106,443.8148638504143 L 172.26722672267226,445.31179136421724 L 172.4172417241724,447.5330386427636 L 171.56715671567156,449.56113398404494 L 171.26712671267126,451.49265335669395 L 171.9171917191719,454.1484924940862 L 172.3172317231723,455.0176762117783 L 172.3172317231723,455.4039800863081 L 170.76707670767075,455.6454200078892 L 169.36693669366935,456.4180277569488 L 168.41684168416842,457.1423475216921 L 163.31633163316332,458.01153123938417 L 162.66626662666266,458.2529711609653 L 161.2161216121612,459.7981866590844 L 158.51585158515852,462.1642978905794 L 156.76567656765675,463.2749215298526 L 155.6155615561556,464.4338331534419 L 154.9154915491549,464.7718490436555 L 154.36543654365437,465.303016871134 L 148.2148214821482,466.4136405104071 L 147.06470647064705,466.9448083378856 z" /><path fill-rule="evenodd" fill="#D2EBD9" stroke="#A6A6A6" stroke-width="0.25" opacity="1" d="M 120.26202620262026,471.4355908792944 L 120.5120512051205,467.86228003989385 L 119.41194119411941,465.5444567927151 L 122.16221622162216,462.8886176553228 L 122.96229622962295,455.7902839608378 L 122.9122912291229,453.18273280776174 L 124.46244624462446,451.0580614978479 L 128.012801280128,452.21697312143726 L 129.1129112911291,452.94129288618063 L 129.6129612961296,454.8728122588296 L 131.2131213121312,458.34954712959774 L 135.06350635063507,459.5567467375033 L 139.16391639163916,461.43997812583603 L 142.46424642464245,461.82628200036584 L 142.6142614261426,462.502313780793 L 145.06450645064507,465.1581529181853 L 147.06470647064705,466.9448083378856 L 143.16431643164316,468.2968718987399 L 141.8141814181418,468.49002383600475 L 136.4136413641364,468.24858391442365 L 135.01350135013502,468.63488778895345 L 128.76287628762876,471.96675870677285 L 128.46284628462845,472.25648661267024 L 125.1125112511251,472.98080637741356 L 122.21222122212221,472.73936645583245 L 120.26202620262026,471.4355908792944 z" /><path fill-rule="evenodd" fill="#D2EBD9" stroke="#A6A6A6" stroke-width="0.25" opacity="1" d="M 103.56035603560356,468.972903679167 L 102.96029602960296,468.49002383600475 L 101.3101310131013,463.1783455612201 L 100.06000600060005,461.0536742513063 L 96.10961096109611,458.44612309823015 L 94.5094509450945,456.3214517883163 L 89.35893589358935,453.81047660387264 L 88.55885588558856,451.83066924690746 L 81.15811581158115,450.09230181152344 L 94.7094709470947,449.70599793699364 L 98.15981598159816,449.94743785857474 L 100.91009100910091,448.7885262349854 L 105.96059605960596,447.2915987211824 L 108.66086608660865,447.96763050160956 L 111.3111311131113,448.35393437613936 L 111.6111611161116,451.20292545079656 L 111.4111411141114,453.81047660387264 L 113.76137613761375,459.5567467375033 L 116.011601160116,463.61293742006615 L 119.3119311931193,465.3513048554502 L 119.41194119411941,465.5444567927151 L 120.5120512051205,467.86228003989385 L 120.26202620262026,471.4355908792944 L 119.36193619361936,471.0009990204484 L 111.46114611461145,468.6831757732696 L 108.5108510851085,468.4417358516885 L 103.56035603560356,468.972903679167 z" /><path fill-rule="evenodd" fill="#D2EBD9" stroke="#A6A6A6" stroke-width="0.25" opacity="1" d="M 400.1400140014001,472.73936645583245 L 399.9399939993999,472.3047745969864 L 399.58995899589956,466.8965203535694 L 400.39003900390037,464.09581726322835 L 401.3401340134013,462.01943393763077 L 401.5901590159016,459.267018831606 L 401.1901190119012,457.19063550600833 L 400.2400240024002,454.4865083842998 L 399.8399839983998,451.73409327827505 L 399.28992899289926,450.5268936703694 L 399.88998899889987,447.2915987211824 L 399.9399939993999,444.0080157876792 L 400.69006900690067,440.57956890122733 L 400.59005900590057,430.82539606935006 L 400.29002900290027,426.72091740247106 L 399.5399539953995,424.69282206118964 L 399.5399539953995,418.70511200597787 L 397.98979897989796,412.0896581546552 L 404.0904090409041,406.1019480994434 L 408.69086908690866,407.0677077857679 L 414.9414941494149,401.41801362076967 L 416.69166916691665,397.7964147970529 L 420.04200420042,395.4303035655579 L 422.2922292229223,394.9957117067119 L 425.4425442544254,394.02995202038744 L 431.0931093109311,394.3196799262848 L 431.0931093109311,401.94918144824817 L 430.64306430643063,404.65330856995666 L 430.6930693069307,410.3030027349549 L 431.5931593159316,416.580440696064 L 434.29342934293425,420.5883433943106 L 435.39353935393535,426.33461352794126 L 435.79357935793576,432.9983553635802 L 437.39373937393736,438.792913481527 L 438.9438943894389,443.1871200543034 L 439.99399939994,446.71214290938775 L 439.74397439743973,446.85700686233645 L 439.3439343934393,447.96763050160956 L 438.8438843884388,448.7885262349854 L 438.19381938193817,449.51284599972877 L 435.09350935093505,450.72004560763435 L 434.59345934593455,451.10634948216415 L 434.5434543454345,451.83066924690746 L 435.043504350435,454.9211002431458 L 435.5435543554355,454.2933564470349 L 435.49354935493545,453.6173246666078 L 436.09360936093606,453.37588474502667 L 436.7436743674367,456.46631574126496 L 436.09360936093606,456.85261961579477 L 435.3435343534353,457.9149552707517 L 435.043504350435,460.1844905336142 L 435.89358935893586,461.58484207878473 L 435.79357935793576,462.1160099062632 L 435.39353935393535,462.502313780793 L 433.34333433343335,462.98519362395524 L 431.34313431343134,463.9026653259635 L 429.8429842984298,463.9026653259635 L 428.79287928792877,464.3372571848095 L 427.8427842784278,464.5304091220744 L 426.1426142614261,465.68932074566374 L 418.79187918791877,467.9588560085263 L 416.7416741674167,468.1520079457912 L 415.59155915591555,468.7797517419021 L 412.4912491249125,471.1458629733971 L 411.2411241124112,471.5804548322431 L 408.3408340834083,471.5321668479269 L 407.09070907090705,471.8218947538242 L 406.09060906090605,472.88423040878115 L 405.89058905890585,473.7051261421569 L 405.29052905290524,474.0431420323705 L 404.24042404240424,473.89827807942186 L 403.5903590359036,473.12567033036225 L 400.1400140014001,472.73936645583245 z" /><path fill-rule="evenodd" fill="#D2EBD9" stroke="#A6A6A6" stroke-width="0.25" opacity="1" d="M 380.28802880288026,467.7657040712614 L 380.6380638063806,467.5725521339965 L 381.2381238123812,467.7657040712614 L 383.4883488348835,464.6752730750231 L 383.5883588358836,462.26087385921187 L 381.28812881288127,459.9430506120331 L 379.48794879487946,457.72180333348683 L 379.58795879587956,454.6313723372485 L 380.5380538053805,450.8166215762668 L 382.4882488248825,447.19502275255 L 383.5883588358836,443.5734239288332 L 385.5885588558856,441.25560068165447 L 388.98889888988896,438.6480495285783 L 389.88898889888986,435.1713146578102 L 390.08900890089006,430.19765227323916 L 389.8389838983898,426.6243414338386 L 388.5388538853885,423.3890464846516 L 388.4388438843884,419.1397038648239 L 389.68896889688966,414.69720930773127 L 390.48904890489047,412.9588418723472 L 391.4891489148915,412.0896581546552 L 391.6391639163916,404.1221407424782 L 394.03940394039404,405.13618841311893 L 404.0904090409041,406.1019480994434 L 397.98979897989796,412.0896581546552 L 399.5399539953995,418.70511200597787 L 399.5399539953995,424.69282206118964 L 400.29002900290027,426.72091740247106 L 400.59005900590057,430.82539606935006 L 400.69006900690067,440.57956890122733 L 399.9399939993999,444.0080157876792 L 399.88998899889987,447.2915987211824 L 399.28992899289926,450.5268936703694 L 399.8399839983998,451.73409327827505 L 400.2400240024002,454.4865083842998 L 401.1901190119012,457.19063550600833 L 401.5901590159016,459.267018831606 L 401.3401340134013,462.01943393763077 L 400.39003900390037,464.09581726322835 L 399.58995899589956,466.8965203535694 L 399.9399939993999,472.3047745969864 L 400.1400140014001,472.73936645583245 L 396.68966896689665,472.4013505656189 L 395.38953895389534,472.49792653425135 L 392.4892489248925,473.4153982362596 L 391.6391639163916,474.13971800100296 L 390.2390239023902,473.75341412647316 L 388.68886888688866,473.6568381578407 L 388.2388238823882,473.4153982362596 L 383.3883388338834,468.972903679167 L 382.1382138213821,468.24858391442365 L 380.28802880288026,467.7657040712614 z" /><path fill-rule="evenodd" fill="#D2EBD9" stroke="#A6A6A6" stroke-width="0.25" opacity="1" d="M 355.6855685568557,459.60503472181955 L 355.7855785578558,459.0738668943411 L 355.33553355335533,454.9211002431458 L 353.8853885388539,452.55498901165083 L 351.08510851085106,450.0440138272072 L 348.78487848784874,446.8087188780202 L 347.33473347334734,442.70424021114115 L 347.2847284728473,439.95182510511637 L 348.58485848584854,435.992210391186 L 350.5350535053505,431.887731724307 L 352.18521852185216,428.94216468101735 L 353.4853485348535,424.982549967087 L 354.83548354835483,423.09931857875426 L 359.08590859085905,422.32671082969466 L 361.68616861686166,423.485622453284 L 364.0864086408641,423.5821984219165 L 368.18681868186815,423.0027426101218 L 371.9371937193719,423.29247051601914 L 373.6873687368737,423.72706237486517 L 375.83758375837584,421.6506790492675 L 376.0876087608761,418.56024805302917 L 376.68766876687664,414.79378527636374 L 378.1378137813781,411.8965062173903 L 379.08790879087906,403.01151710320505 L 381.58815881588157,402.91494113457264 L 389.68896889688966,403.30124500910244 L 391.6391639163916,404.1221407424782 L 391.4891489148915,412.0896581546552 L 390.48904890489047,412.9588418723472 L 389.68896889688966,414.69720930773127 L 388.4388438843884,419.1397038648239 L 388.5388538853885,423.3890464846516 L 389.8389838983898,426.6243414338386 L 390.08900890089006,430.19765227323916 L 389.88898889888986,435.1713146578102 L 388.98889888988896,438.6480495285783 L 385.5885588558856,441.25560068165447 L 383.5883588358836,443.5734239288332 L 382.4882488248825,447.19502275255 L 380.5380538053805,450.8166215762668 L 379.58795879587956,454.6313723372485 L 379.48794879487946,457.72180333348683 L 381.28812881288127,459.9430506120331 L 383.5883588358836,462.26087385921187 L 383.4883488348835,464.6752730750231 L 381.2381238123812,467.7657040712614 L 380.6380638063806,467.5725521339965 L 380.28802880288026,467.7657040712614 L 378.08780878087805,467.4276881810478 L 372.08720872087207,467.8139920555776 L 370.6370637063706,467.47597616536405 L 366.98669866986694,465.5927447770313 L 362.6362636263626,462.64717773374167 L 355.6855685568557,459.60503472181955 z" /><path fill-rule="evenodd" fill="#D2EBD9" stroke="#A6A6A6" stroke-width="0.25" opacity="1" d="M 341.98419841984196,409.9649868447413 L 342.38423842384236,410.10985079769 L 341.7341734173417,411.3170504055956 L 343.48434843484347,411.3653383899118 L 346.984698469847,410.2547147506387 L 348.3348334833483,408.1300434407248 L 350.68506850685066,404.94303647585406 L 354.035403540354,402.6252132286753 L 356.23562356235624,401.94918144824817 L 360.78607860786076,402.1906213698293 L 366.98669866986694,403.39782097773485 L 379.08790879087906,403.01151710320505 L 378.1378137813781,411.8965062173903 L 376.68766876687664,414.79378527636374 L 376.0876087608761,418.56024805302917 L 375.83758375837584,421.6506790492675 L 373.6873687368737,423.72706237486517 L 371.9371937193719,423.29247051601914 L 368.18681868186815,423.0027426101218 L 364.0864086408641,423.5821984219165 L 361.68616861686166,423.485622453284 L 359.08590859085905,422.32671082969466 L 354.83548354835483,423.09931857875426 L 353.4853485348535,424.982549967087 L 352.18521852185216,428.94216468101735 L 350.5350535053505,431.887731724307 L 348.58485848584854,435.992210391186 L 347.2847284728473,439.95182510511637 L 347.33473347334734,442.70424021114115 L 348.78487848784874,446.8087188780202 L 351.08510851085106,450.0440138272072 L 353.8853885388539,452.55498901165083 L 355.33553355335533,454.9211002431458 L 355.7855785578558,459.0738668943411 L 355.6855685568557,459.60503472181955 L 355.2855285528553,459.46017076887085 L 350.68506850685066,455.7902839608378 L 349.68496849684965,454.82452427451335 L 347.78477847784774,453.9070525725051 L 345.7845784578458,451.299501419429 L 339.78397839783975,445.21521539558483 L 339.033903390339,444.10459175631166 L 335.6335633563356,437.1028340304592 L 335.8835883588359,435.8956344225536 L 335.4835483548355,434.4952828773831 L 334.9334933493349,429.71477243007695 L 335.033503350335,428.16955693195774 L 335.8835883588359,425.5137177945654 L 336.13361336133613,422.32671082969466 L 338.2338233823382,416.3390007744829 L 338.7338733873387,415.5663930254233 L 340.1340134013401,414.1177534959366 L 340.78407840784075,413.05541784097966 L 341.58415841584156,410.64101862516844 L 341.98419841984196,409.9649868447413 z" /><path fill-rule="evenodd" fill="#D2EBD9" stroke="#A6A6A6" stroke-width="0.25" opacity="1" d="M 124.91249124912491,450.47860568605324 L 124.46244624462446,451.0580614978479 L 122.9122912291229,453.18273280776174 L 122.96229622962295,455.7902839608378 L 122.16221622162216,462.8886176553228 L 119.41194119411941,465.5444567927151 L 119.3119311931193,465.3513048554502 L 116.011601160116,463.61293742006615 L 113.76137613761375,459.5567467375033 L 111.4111411141114,453.81047660387264 L 111.6111611161116,451.20292545079656 L 111.3111311131113,448.35393437613936 L 115.8115811581158,448.98167817225027 L 118.56185618561855,449.07825414088273 L 121.86218621862186,449.56113398404494 L 122.96229622962295,450.2854537487883 L 124.91249124912491,450.47860568605324 z" /><path fill-rule="evenodd" fill="#D2EBD9" stroke="#A6A6A6" stroke-width="0.25" opacity="1" d="M 111.3111311131113,448.35393437613936 L 108.66086608660865,447.96763050160956 L 105.96059605960596,447.2915987211824 L 100.91009100910091,448.7885262349854 L 98.15981598159816,449.94743785857474 L 94.7094709470947,449.70599793699364 L 81.15811581158115,450.09230181152344 L 81.15811581158115,445.6498072544308 L 80.45804580458045,441.93163246208155 L 79.9079907990799,437.2476979834079 L 80.95809580958095,430.5356681634527 L 80.35803580358035,426.81749337110347 L 80.2080208020802,422.4232867983271 L 80.6080608060806,418.7533999902941 L 80.35803580358035,414.06946551162036 L 80.85808580858085,410.83417056243337 L 82.2082208220822,407.8403155348275 L 83.75837583758376,404.8947484915378 L 84.30843084308431,404.7015965542729 L 81.3081308130813,399.14847835790715 L 77.05770577057706,392.91932838111427 L 74.50745074507451,388.7182737456028 L 72.85728572857285,386.9799063102187 L 72.55725572557256,384.9035229846211 L 73.4073407340734,380.2195885059474 L 73.25732573257325,373.74899860757336 L 73.5073507350735,366.3126490228749 L 74.45744574457446,358.24855564206547 L 76.95769576957696,342.1686568647629 L 76.95769576957696,332.07646814267207 L 79.45794579457946,327.77883753852814 L 82.25822582258225,323.867510808914 L 83.008300830083,320.8736557813081 L 83.95839583958396,314.40306588293413 L 84.95849584958495,316.2380092869506 L 88.95889588958896,315.1273856476775 L 90.45904590459045,314.8859457260964 L 94.25942594259425,313.29244224366096 L 99.05990599059905,312.9061383691312 L 101.01010101010101,312.5198344946014 L 101.3101310131013,309.7191314042604 L 104.06040604060405,308.3670678434061 L 107.16071607160715,308.4636438120386 L 109.36093609360935,310.7331790749011 L 110.41104110411041,313.2441542593448 L 112.26122612261226,314.8859457260964 L 116.76167616761676,317.68664881643735 L 120.3120312031203,319.5698802047701 L 123.56235623562355,323.28805499711933 L 130.21302130213022,332.80078790741544 L 131.8131813181318,335.4083390604915 L 133.26332633263326,338.5470580410461 L 137.76377637763775,344.1484642217281 L 142.96429642964296,348.6392467631369 L 145.66456645664564,349.46014249651273 L 148.26482648264826,348.88068668471806 L 154.21542154215422,345.7902556884797 L 157.56575657565756,343.3758564726685 L 160.16601660166015,340.5751533823275 L 161.8161816181618,338.45048207241365 L 161.7161716171617,336.47067471544847 L 164.46644664466444,337.2915704488243 L 168.41684168416842,340.23713749211396 L 170.9170917091709,341.7823529902331 L 172.2172217221722,343.5690084099334 L 172.4172417241724,345.4039518139499 L 172.36723672367236,348.34951885723956 L 171.76717671767176,350.9087820259994 L 171.7171717171717,353.61290914770797 L 172.56725672567256,355.59271650467315 L 174.4174417441744,358.20026765774924 L 175.4175417541754,360.1317870303982 L 175.76757675767576,360.8078188108253 L 177.86778677867787,362.98077810505544 L 179.36793679367935,365.7814811953964 L 179.46794679467945,369.9342478465917 L 178.41784178417842,380.0747245529987 L 175.56755675567555,382.15110787859635 L 173.11731173117312,383.3100195021857 L 166.16661666166615,385.24153887483465 L 162.7162716271627,387.7525140592783 L 159.76597659765974,389.00800165150014 L 155.16551655165514,391.47068885162753 L 150.56505650565055,402.8666531502564 L 146.4146414641464,410.64101862516844 L 145.86458645864585,411.26876242127935 L 142.16421642164215,413.5865856684581 L 138.7138713871387,417.88421627260203 L 136.9136913691369,420.44347944136194 L 135.9135913591359,424.3548061709761 L 134.46344634463446,427.73496507311177 L 132.4132413241324,431.7428677713583 L 131.26312631263124,437.19940999909164 L 129.5129512951295,440.5312809169111 L 129.36293629362936,442.7525281954574 L 128.46284628462845,446.1809750819093 L 124.91249124912491,450.47860568605324 L 122.96229622962295,450.2854537487883 L 121.86218621862186,449.56113398404494 L 118.56185618561855,449.07825414088273 L 115.8115811581158,448.98167817225027 L 111.3111311131113,448.35393437613936 z" /><path fill-rule="evenodd" fill="#D2EBD9" stroke="#A6A6A6" stroke-width="0.25" opacity="1" d="M 161.7161716171617,336.47067471544847 L 161.36613661366135,328.5031573032715 L 161.8161816181618,324.54354258934114 L 163.26632663266327,321.69455151468395 L 165.1165116511651,318.84556044002676 L 169.3169316931693,315.3688255692586 L 174.96749674967495,311.6989387612256 L 178.7178717871787,307.6427480786628 L 179.76797679767975,303.68313336473244 L 179.8179817981798,300.8824302743914 L 180.56805680568056,298.27487912131534 L 183.86838683868385,297.69542330952066 L 187.86878687868787,298.13001516836664 L 191.96919691969197,300.4961263998616 L 195.96959695969596,300.8824302743914 L 198.56985698569855,300.7375663214427 L 204.97049704970496,298.66118299584514 L 207.7207720772077,295.90876788982035 L 208.17081708170815,292.9632008465307 L 207.4207420742074,290.0659217875573 L 205.1205120512051,283.9333477793968 L 205.07050705070506,283.16074003033725 L 205.07050705070506,282.0984043753803 L 210.37103710371036,274.0825989788871 L 212.27122712271225,268.38461682957274 L 213.47134713471345,267.1774172216671 L 215.57155715571557,266.01850559807775 L 217.57175717571755,264.135274209745 L 219.6219621962196,262.9280746018394 L 220.37203720372037,260.5136753860282 L 220.32203220322032,260.22394748013085 L 219.97199719971997,255.0571331582949 L 220.27202720272027,252.11156611500525 L 221.67216721672165,250.2283347266725 L 226.02260226022602,248.15195140107488 L 227.9227922792279,247.0413277618017 L 229.62296229622962,244.5303525773581 L 229.42294229422941,240.9087537536413 L 231.07310731073105,237.3354429142407 L 234.42344234423442,233.81042005915637 L 236.8236823682368,232.36178052966963 L 239.32393239323932,230.57512510996935 L 241.17411741174115,228.11243790984193 L 251.3251325132513,225.89119063129564 L 255.9255925592559,224.2011111802278 L 258.57585758575857,225.31173481950094 L 260.8760876087609,226.76037434898765 L 264.97649764976495,227.09839023920122 L 267.5267526752675,227.87099798826083 L 271.6271627162716,230.8648530158667 L 273.07730773077304,232.6997964198832 L 276.5276527652765,234.4864518395835 L 280.978097809781,235.59707547885665 L 284.6284628462846,233.9069960277888 L 287.5287528752875,230.57512510996935 L 290.77907790779074,227.6295580666797 L 293.9293929392939,227.2432541921499 L 302.4302430243024,225.36002280381717 L 306.6806680668067,224.29768714886023 L 310.03100310031,223.13877552527086 L 311.3311331133113,222.51103172915995 L 311.38113811381135,258.00270020158456 L 311.48114811481145,305.5180767687489 L 306.1806180618062,305.9043806432787 L 290.2790279027903,311.02290698079844 L 290.2790279027903,310.39516318468753 L 286.6286628662866,311.60236279259317 L 281.6281628162816,312.9544263534474 L 277.27772777277727,315.9965693653695 L 273.97739773977395,319.32844028318897 L 272.6272627262726,324.35039065207627 L 271.32713271327134,328.4065813346391 L 268.6768676867687,331.7384522524585 L 265.97659765976596,334.7805952643806 L 264.6264626462646,338.1124661822001 L 263.97639763976395,340.81659330390863 L 261.32613261326134,343.1827045354036 L 258.9258925892589,343.1827045354036 L 256.57565756575656,341.83064097454934 L 253.52535253525352,339.1265138528408 L 250.5250525052505,340.1405615234815 L 245.8245824582458,341.44433710001954 L 242.4242424242424,344.48648011194166 L 238.37383738373836,344.776208017839 L 235.02350235023502,343.4241444569847 L 228.97289728972896,343.0378405824549 L 225.22252225222522,344.0518882530956 L 224.72247224722472,343.71387236288206 L 223.2223222322232,344.67963204920653 L 215.77157715771577,346.9974552963853 L 212.77127712771275,345.93511964142834 L 209.7209720972097,344.24504019036056 L 207.7207720772077,342.5549607392927 L 203.3203320332033,343.1827045354036 L 200.97009700970096,345.83854367279594 L 198.9198919891989,349.1704145906154 L 197.86978697869785,350.1844622612561 L 195.86958695869586,351.1502219475806 L 192.16921692169217,351.10193396326434 L 189.4189418941894,352.0676936495888 L 186.36863686368636,352.6954374456997 L 181.66816681668166,354.2889409281351 L 179.26792679267925,356.99306804984366 L 176.86768676867686,359.3108912970224 L 175.4175417541754,360.1317870303982 L 174.4174417441744,358.20026765774924 L 172.56725672567256,355.59271650467315 L 171.7171717171717,353.61290914770797 L 171.76717671767176,350.9087820259994 L 172.36723672367236,348.34951885723956 L 172.4172417241724,345.4039518139499 L 172.2172217221722,343.5690084099334 L 170.9170917091709,341.7823529902331 L 168.41684168416842,340.23713749211396 L 164.46644664466444,337.2915704488243 L 161.7161716171617,336.47067471544847 z" /><path fill-rule="evenodd" fill="#D2EBD9" stroke="#A6A6A6" stroke-width="0.25" opacity="1" d="M 205.07050705070506,283.16074003033725 L 197.76977697769775,283.8850597950806 L 193.1193119311931,282.14669235969654 L 191.16911691169116,281.13264468905584 L 182.16821682168217,279.97373306546643 L 177.51775177517752,277.89734973986884 L 175.26752675267525,273.88944704162225 L 168.01680168016802,269.4469524845296 L 165.016501650165,267.370569158932 L 163.71637163716372,265.39076180196685 L 161.76617661766176,263.700682350899 L 147.96479647964796,262.1071788684636 L 149.21492149214922,260.75511530760934 L 149.91499149914992,257.13351648389255 L 149.71497149714972,252.49786998953502 L 151.06510651065105,249.89031883645893 L 152.76527652765276,247.91051147949375 L 153.1153115311531,245.9789921068448 L 151.2151215121512,241.9710894085982 L 147.6147614761476,238.59093050646254 L 146.36463646364635,234.58302780821595 L 146.4146414641464,231.00971696881538 L 152.7152715271527,231.73403673355872 L 161.86618661866186,235.54878749454042 L 165.46654665466545,239.26696228688968 L 168.71687168716872,242.9851370792389 L 174.56745674567455,249.0211351187669 L 179.16791679167915,250.75950255415097 L 188.76887688768875,253.2221897542784 L 194.7194719471947,253.94650951902176 L 203.97039703970395,255.73316493872204 L 220.32203220322032,260.22394748013085 L 220.37203720372037,260.5136753860282 L 219.6219621962196,262.9280746018394 L 217.57175717571755,264.135274209745 L 215.57155715571557,266.01850559807775 L 213.47134713471345,267.1774172216671 L 212.27122712271225,268.38461682957274 L 210.37103710371036,274.0825989788871 L 205.07050705070506,282.0984043753803 L 205.07050705070506,283.16074003033725 z" /><path fill-rule="evenodd" fill="#D2EBD9" stroke="#A6A6A6" stroke-width="0.25" opacity="1" d="M 147.96479647964796,262.1071788684636 L 136.7136713671367,264.2801381626937 L 128.012801280128,267.03255326871846 L 123.012301230123,267.90173698641047 L 117.41174117411741,266.40480947260755 L 109.86098609860986,261.5760110409851 L 95.25952595259525,250.18004674235627 L 77.4077407740774,237.67345880445427 L 65.8065806580658,229.99566929817468 L 65.10651065106511,225.50488675676584 L 63.95639563956395,220.28978445061367 L 63.556355635563555,213.57775463065852 L 64.5064506450645,209.6664279010444 L 66.55665566556655,206.6725728734385 L 72.7072707270727,210.19759572852286 L 78.35783578357835,207.44518062249807 L 81.008100810081,206.52770892048983 L 90.5090509050905,207.54175659113054 L 96.95969596959695,212.99829881886384 L 101.26012601260125,212.1291151011718 L 105.16051605160516,212.5637069600178 L 107.76077607760776,214.64009028561546 L 115.9115911591159,217.48908136027268 L 123.46234623462345,218.02024918775112 L 126.71267126712671,220.43464840356233 L 129.9129912991299,224.4425511018089 L 132.16321632163215,226.51893442740655 L 138.06380638063806,227.96757395689326 L 146.4146414641464,231.00971696881538 L 146.36463646364635,234.58302780821595 L 147.6147614761476,238.59093050646254 L 151.2151215121512,241.9710894085982 L 153.1153115311531,245.9789921068448 L 152.76527652765276,247.91051147949375 L 151.06510651065105,249.89031883645893 L 149.71497149714972,252.49786998953502 L 149.91499149914992,257.13351648389255 L 149.21492149214922,260.75511530760934 L 147.96479647964796,262.1071788684636 z" /></g></g></g></svg>