<svg xmlns="http://www.w3.org/2000/svg" xmlns:xlink="http://www.w3.org/1999/xlink" width="416.4198302645236" height="500.0" viewBox="0.0 0.0 416.4198302645236 500.0" preserveAspectRatio="xMinYMin meet"><g transform="matrix(1,0,0,-1,0,500.0)"><g><g><g><path fill-rule="evenodd" fill="#D2EBD9" stroke="#A6A6A6" stroke-width="0.25" opacity="1" d="M 15.86718225130348,218.37183718371836 L 11.49433674897575,215.82158215821582 L 13.035244211700759,212.87128712871285 L 13.49335183575414,210.2210221022102 L 12.702075030571027,208.4208420842084 L 10.453183057945337,208.1208120812081 L 8.037706494754781,209.67096709670966 L 5.497291488640576,209.87098709870986 L 3.08181492545002,208.87088708870886 L 0.8329229528243297,206.77067706770677 L 1.8324304962135254,202.02020202020202 L 0.6246922146182473,192.51925192519252 L 0.7912768051831132,187.41874187418742 L 2.332184267908123,182.86828682868287 L 4.6227223881750295,179.017901790179 L 7.413014280136534,175.66756675667565 L 12.868659621135894,172.46724672467246 L 13.951459459807522,169.16691669166914 L 13.61829027867779,164.8164816481648 L 16.61681290884538,161.56615661566155 L 20.86471996824946,160.1160116011601 L 17.19985897582241,162.66626662666266 L 18.990643324394718,171.16711671167116 L 14.950967003196718,174.16741674167415 L 14.950967003196718,176.36763676367636 L 37.93964050114822,173.31733173317332 L 47.809777492116524,175.2175217521752 L 43.14540895630028,188.16881688168814 L 38.48104042048403,195.8195819581958 L 32.400702864866425,200.17001700170016 L 26.7784729333022,203.6203620362036 L 19.490397096089314,213.7213721372137 L 15.86718225130348,218.37183718371836 z" /><path fill-rule="evenodd" fill="#D2EBD9" stroke="#A6A6A6" stroke-width="0.25" opacity="1" d="M 48.7676388878645,156.06560656065605 L 49.05916192135302,156.1156115611561 L 45.81076240533813,165.4165416541654 L 28.027857362538693,171.3171317131713 L 25.279211618218405,170.3170317031703 L 24.19641177954678,166.9166916691669 L 25.903903832836654,164.01640164016402 L 31.317903026194795,160.1160116011601 L 30.23510318752317,159.26592659265927 L 30.23510318752317,158.96589658965897 L 29.693703268187353,157.96579657965796 L 31.942595240813045,157.015701570157 L 34.98276401862184,155.2155215521552 L 37.606471320018485,153.06530653065306 L 38.73091730633133,151.2151215121512 L 39.68877870207931,150.66506650665065 L 44.39479338553677,151.3151315131513 L 46.143931586467865,150.1150115011501 L 47.60154675391044,150.1150115011501 L 48.7676388878645,156.06560656065605 z" /></g><path fill-rule="evenodd" fill="#D2EBD9" stroke="#A6A6A6" stroke-width="0.25" opacity="1" d="M 351.4934860918671,267.07670767076706 L 353.53414732628676,268.7268726872687 L 355.9912700371185,269.92699269926993 L 363.73745349838475,267.87678767876787 L 371.858452288422,262.97629762976294 L 379.1881742732761,260.7760776077608 L 384.6021734666342,266.9266926692669 L 384.93534264776395,269.7769776977698 L 384.6021734666342,272.47724772477244 L 384.8104042048403,275.3275327532753 L 386.6011885534126,278.5778577857786 L 388.43361904962615,279.7779777977798 L 396.7628485778694,282.87828782878285 L 414.2958767348216,285.87858785878586 L 416.4198302645236,297.3297329732973 L 416.0866610833939,304.6304630463046 L 412.50509238624926,309.3809380938094 L 399.17832514106,316.1816181618162 L 387.8089268350079,324.38243824382437 L 381.60365083646667,327.0827082708271 L 369.98437564456725,328.2828282828283 L 367.5272529337355,329.1329132913291 L 362.94617669320166,314.48144814481446 L 359.5311925866219,308.1808180818082 L 357.57382364748474,302.4302430243024 L 355.5331624130651,294.47944794479446 L 351.660070682432,289.02890289028903 L 349.78599403857726,274.77747774777475 L 351.4934860918671,267.07670767076706 z" /><path fill-rule="evenodd" fill="#D2EBD9" stroke="#A6A6A6" stroke-width="0.25" opacity="1" d="M 351.4934860918671,267.07670767076706 L 349.78599403857726,274.77747774777475 L 351.660070682432,289.02890289028903 L 355.5331624130651,294.47944794479446 L 357.57382364748474,302.4302430243024 L 359.5311925866219,308.1808180818082 L 362.94617669320166,314.48144814481446 L 367.5272529337355,329.1329132913291 L 364.7786071894152,330.03300330033 L 351.660070682432,343.08430843084307 L 345.28821009332586,332.58325832583256 L 339.7076263094029,329.88298829882984 L 333.00259653916703,327.23272327232723 L 331.0452276000298,325.7325732573257 L 324.6733670109237,323.18231823182316 L 316.5523682208865,319.18191819181914 L 311.38824591337567,319.18191819181914 L 303.05901638513234,321.78217821782175 L 296.1874020243316,319.8319831983198 L 290.7734028309735,315.2315231523152 L 283.9017884701728,313.1313131313131 L 274.19823606976934,309.53095309530954 L 273.4902515598686,309.2809280928093 L 269.90868286272405,301.88018801880185 L 268.20119080943414,298.3798379837984 L 269.20069835282334,285.2285228522852 L 271.69946721129634,285.57855785578556 L 281.444665759341,280.32803280328034 L 290.89834127389713,273.37733773377335 L 305.51613909596415,268.9268926892689 L 312.92915337610066,266.9266926692669 L 308.93112320254386,262.9262926292629 L 308.93112320254386,257.87578757875787 L 313.38726100015407,252.87528752875286 L 319.8424138845426,245.07450745074507 L 339.24951868534947,249.27492749274927 L 347.4538097706691,250.4250425042504 L 344.8301024692725,255.17551755175515 L 345.2049177980434,260.976097609761 L 346.9540559989745,263.4263426342634 L 351.4934860918671,267.07670767076706 z" /><path fill-rule="evenodd" fill="#D2EBD9" stroke="#A6A6A6" stroke-width="0.25" opacity="1" d="M 347.4538097706691,250.4250425042504 L 339.24951868534947,249.27492749274927 L 319.8424138845426,245.07450745074507 L 318.759614045871,244.87448744874487 L 309.0144154978263,237.37373737373736 L 301.1016474459952,226.8226822682268 L 288.1913416772181,217.27172717271725 L 284.60977298007344,215.52155215521552 L 284.7763575706383,212.57125712571255 L 284.4015422418674,212.87128712871285 L 283.4020346984782,211.27112711271127 L 281.7778349404707,207.77077707770775 L 281.4030196116998,205.72057205720571 L 281.0282042829288,201.27012701270127 L 281.1531427258525,199.26992699269925 L 281.9027733833944,196.56965696569657 L 285.60928052346264,187.41874187418742 L 292.73077177011066,181.9181918191819 L 296.4372789101789,180.01800180018 L 300.3520167884533,179.5179517951795 L 303.80864704267424,180.6180618061806 L 312.0129381279939,185.5185518551855 L 314.0535993624135,187.46874687468747 L 319.42595240813046,191.26912691269126 L 330.00407390899943,190.9190919091909 L 335.50136539764,192.51925192519252 L 343.28919500654746,202.97029702970295 L 347.9535635423637,206.37063706370637 L 353.53414732628676,203.1203120312031 L 356.1578546276834,206.97069706970697 L 356.4077315135307,210.82108210821082 L 355.7830392989124,214.97149714971496 L 355.86633159419483,219.7219721972197 L 356.61596225173673,222.1222122212221 L 359.07308496256854,226.8226822682268 L 361.98831529745365,234.42344234423442 L 359.86436176775163,238.5238523852385 L 347.4538097706691,250.4250425042504 z" /><path fill-rule="evenodd" fill="#D2EBD9" stroke="#A6A6A6" stroke-width="0.25" opacity="1" d="M 241.4643640237732,401.8901890189019 L 233.80147285778935,408.39083908390836 L 231.59422703280487,411.74117411741173 L 227.8877198927366,420.0920092009201 L 225.26401259133996,424.042404240424 L 212.4786452654865,437.49374937493747 L 203.44143122734252,451.14511451145114 L 199.8182163825567,453.79537953795375 L 170.08286696672812,467.2467246724672 L 164.41899088752268,472.09720972097205 L 160.87906833801927,479.99799979998 L 160.7124837474544,488.54885488548854 L 165.08532924978215,495.4995499549955 L 154.75708463476045,497.0997099709971 L 149.3430854414023,496.44964496449643 L 143.55427091927322,489.54895489548954 L 139.30636385986915,487.84878487848783 L 134.6836414716941,487.6987698769877 L 131.01878047926706,488.998899889989 L 128.18684243966433,492.5492549254925 L 125.85465817175621,496.999699969997 L 122.81448939394741,500.0 L 117.85859782464264,499.4999499949995 L 114.65184445626898,497.14971497149713 L 109.52936829639935,491.3491349134913 L 105.53133812284257,489.34893489348934 L 103.49067688842297,487.84878487848783 L 102.19964631154525,485.39853985398537 L 102.3245847544689,482.89828982898285 L 104.40689213652972,481.29812981298124 L 107.73858394782704,480.3980398039804 L 109.27949141055205,479.3979397939794 L 112.1947217454372,474.89748974897486 L 112.06978330251356,472.9472947294729 L 111.11192190676557,470.4970497049705 L 111.11192190676557,468.94689468946893 L 115.85958273786426,470.1970197019702 L 117.40049020058927,469.04690469046903 L 124.89679677600823,459.0959095909591 L 131.3519496603968,441.14411441144114 L 137.84874869242657,428.69286928692867 L 136.30784122970155,427.3427342734273 L 130.6023190028549,427.042704270427 L 128.1035501443819,425.6425642564256 L 127.64544252032853,424.99249924992495 L 128.43671932551163,422.3922392239224 L 131.18536506983193,408.69086908690866 L 133.1427340089691,400.9400940094009 L 138.34850246412117,395.58955895589554 L 145.84480903954014,395.78957895789574 L 153.6326386484476,396.88968896889685 L 163.37783719649227,392.989298929893 L 171.33225139596462,387.08870887088705 L 181.6604960109863,380.38803880388036 L 192.36355595477895,372.6872687268727 L 200.23467785896887,365.73657365736574 L 206.68983074335742,358.28582858285824 L 211.85395305086826,350.3350335033503 L 214.97741412395948,352.1352135213521 L 222.30713610881358,351.6351635163516 L 222.47372069937845,357.6357635763576 L 225.1390741484163,365.73657365736574 L 231.05282711346905,369.38693869386935 L 234.88427269646098,374.0874087408741 L 237.2581031120103,379.2379237923792 L 238.54913368888802,385.9385938593859 L 239.17382590350627,393.63936393639364 L 241.4643640237732,401.8901890189019 z" /><path fill-rule="evenodd" fill="#D2EBD9" stroke="#A6A6A6" stroke-width="0.25" opacity="1" d="M 241.4643640237732,401.8901890189019 L 239.17382590350627,393.63936393639364 L 238.54913368888802,385.9385938593859 L 237.2581031120103,379.2379237923792 L 234.88427269646098,374.0874087408741 L 231.05282711346905,369.38693869386935 L 225.1390741484163,365.73657365736574 L 222.47372069937845,357.6357635763576 L 222.30713610881358,351.6351635163516 L 225.97199710124065,351.38513851385136 L 234.25958048184273,349.28492849284925 L 239.2154720511475,346.6846684668467 L 240.83967180915494,345.2845284528453 L 247.586347727032,343.3343334333433 L 257.4564847180003,340.98409840984095 L 263.28694538777063,336.63366336633663 L 266.4936987561443,330.6330633063306 L 266.70192949435034,323.18231823182316 L 265.36925276983146,319.28192819281924 L 269.15905220518215,315.8315831583158 L 274.19823606976934,309.53095309530954 L 283.9017884701728,313.1313131313131 L 290.7734028309735,315.2315231523152 L 296.1874020243316,319.8319831983198 L 303.05901638513234,321.78217821782175 L 311.38824591337567,319.18191819181914 L 316.5523682208865,319.18191819181914 L 324.6733670109237,323.18231823182316 L 331.0452276000298,325.7325732573257 L 333.00259653916703,327.23272327232723 L 339.7076263094029,329.88298829882984 L 345.28821009332586,332.58325832583256 L 351.660070682432,343.08430843084307 L 343.74730263060087,350.98509850985096 L 330.7120584189001,360.2360236023602 L 328.58810488919806,362.38623862386237 L 326.96390513119064,365.2865286528653 L 325.71452070195414,368.3368336833683 L 324.09032094394667,370.7370737073707 L 321.3833213472676,371.6371637163716 L 319.342660112848,370.5370537053705 L 314.2618301006196,365.2865286528653 L 311.7630612421466,363.7363736373637 L 304.4333392572925,363.1363136313631 L 297.22855571536206,363.5863586358636 L 292.14772570313363,365.53655365536554 L 287.6915879055235,369.18691869186915 L 283.7352038796079,374.43744374437443 L 277.3633432905018,386.08860886088604 L 275.6142050895707,386.2386238623862 L 273.8650668886396,384.43844384438444 L 271.1164211443193,383.43834383438343 L 266.41040646086185,383.93839383938393 L 256.8317925033821,386.8386838683868 L 252.3756547057719,389.2389238923892 L 248.62750141806242,392.63926392639263 L 241.92247164782657,401.4901490149015 L 241.4643640237732,401.8901890189019 z" /><path fill-rule="evenodd" fill="#D2EBD9" stroke="#A6A6A6" stroke-width="0.25" opacity="1" d="M 127.64544252032853,424.99249924992495 L 126.47935038637446,423.3923392339234 L 125.10502751421431,420.7920792079208 L 123.39753546092444,418.29182918291826 L 121.10699734065754,416.2416241624162 L 120.4823051260393,417.69176917691766 L 121.44016652178726,385.33853385338534 L 123.56412005148931,377.88778877887785 L 128.22848858730555,369.88698869886986 L 128.1035501443819,364.8864886488649 L 133.60084163302247,362.18621862186217 L 137.09911803488467,358.28582858285824 L 141.7218404230597,358.28582858285824 L 148.96827011263136,359.2359235923592 L 154.1323924201422,354.3354335433543 L 157.04762275502736,349.034903490349 L 161.75363743848482,351.08510851085106 L 168.58360565164432,351.08510851085106 L 174.66394320726192,345.1845184518452 L 177.45423509922344,341.28412841284126 L 181.36897297749778,339.3339333933393 L 194.61244792740462,333.98339833983397 L 195.40372473258773,340.3340334033403 L 198.48553965803777,343.3343334333433 L 205.27386172355605,345.0845084508451 L 210.2297532928608,349.38493849384935 L 211.85395305086826,350.3350335033503 L 206.68983074335742,358.28582858285824 L 200.23467785896887,365.73657365736574 L 192.36355595477895,372.6872687268727 L 181.6604960109863,380.38803880388036 L 171.33225139596462,387.08870887088705 L 163.37783719649227,392.989298929893 L 153.6326386484476,396.88968896889685 L 145.84480903954014,395.78957895789574 L 138.34850246412117,395.58955895589554 L 133.1427340089691,400.9400940094009 L 131.18536506983193,408.69086908690866 L 128.43671932551163,422.3922392239224 L 127.64544252032853,424.99249924992495 z" /><path fill-rule="evenodd" fill="#D2EBD9" stroke="#A6A6A6" stroke-width="0.25" opacity="1" d="M 120.4823051260393,417.69176917691766 L 115.94287503314669,423.74237423742375 L 113.98550609400952,427.09270927092706 L 113.4441061746737,429.5429542954295 L 113.65233691287979,431.6931693169317 L 113.48575232231492,433.7433743374337 L 111.98649100723112,435.89358935893586 L 106.15603033746082,439.99399939994 L 100.90861573466753,441.4941494149415 L 87.99830996589043,440.2940294029403 L 84.00027979233364,438.3438343834383 L 84.74991044987554,437.19371937193716 L 86.66563324137151,433.24332433243325 L 80.96011101452484,431.3931393139314 L 53.3070689807571,410.991099109911 L 50.017023317101,406.1406140614061 L 55.22279177225306,403.54035403540354 L 45.894054700620565,390.38903890389037 L 42.35413215111716,382.8882888288829 L 40.64664009782729,373.8873887388739 L 58.55448358355038,369.38693869386935 L 65.84255942076327,365.13651365136514 L 71.0066817282741,356.985698569857 L 76.0458655928613,342.9342934293429 L 82.91747995366202,330.8330833083308 L 90.28884808615734,323.6323632363236 L 101.574954096927,320.38203820382034 L 113.86056765108587,319.0819081908191 L 118.02518241520751,317.23172317231723 L 120.19078209255078,318.83188318831884 L 119.2329206968028,330.8330833083308 L 109.02961452470475,337.5837583758376 L 107.78023009546826,345.83458345834583 L 112.06978330251356,358.035803580358 L 117.81695167700143,364.83648364836483 L 125.89630431939743,365.93659365936594 L 128.1035501443819,364.8864886488649 L 128.22848858730555,369.88698869886986 L 123.56412005148931,377.88778877887785 L 121.44016652178726,385.33853385338534 L 120.4823051260393,417.69176917691766 z" /><path fill-rule="evenodd" fill="#D2EBD9" stroke="#A6A6A6" stroke-width="0.25" opacity="1" d="M 40.64664009782729,373.8873887388739 L 40.52170165490364,373.2873287328733 L 40.64664009782729,365.53655365536554 L 44.51973182846042,342.9342934293429 L 35.73239467616374,344.1844184418442 L 22.86373505502785,344.034403440344 L 10.744706091433853,341.28412841284126 L 4.164614764121648,334.983498349835 L 0.0,323.38233823382336 L 0.12493844292364945,318.23182318231824 L 2.24889197262569,312.3312331233123 L 7.371368132495317,301.9301930193019 L 8.620752561731813,296.2296229622962 L 7.038198951365586,293.37933793379335 L 4.331199354686515,291.27912791279124 L 2.2072458249844735,287.9287928792879 L 2.415476563190556,282.8282828282828 L 4.414491649968947,275.7275727572757 L 7.3297219848541015,268.6768676867687 L 14.867674707914285,256.37563756375636 L 19.28216635788323,251.77517751775176 L 22.9886734979515,246.9246924692469 L 25.237565470577188,238.82388238823881 L 25.154273175294758,230.27302730273027 L 23.69665800785218,226.57265726572655 L 36.35708689078199,225.97259725972597 L 46.56039306288003,227.4227422742274 L 51.14146930341384,227.9227922792279 L 54.22328422886386,231.1231123112311 L 55.68089939630644,236.07360736073605 L 55.597607101024,240.8240824082408 L 56.88863767790172,243.87438743874387 L 59.84551416042809,245.17451745174517 L 61.8861753948477,248.42484248424842 L 63.67695974342001,253.57535753575357 L 72.42265074807547,251.025102510251 L 78.79451133718159,246.87468746874686 L 84.58332585931068,247.07470747074706 L 92.41280161585938,245.57455745574555 L 94.62004744084385,242.57425742574256 L 98.7846622049655,239.12391239123912 L 104.19866139832364,235.72357235723572 L 108.11339927659799,230.77307730773077 L 109.1545529676284,224.72247224722472 L 118.77481307274941,225.32253225322532 L 121.69004340763456,229.07290729072906 L 122.10650488404673,237.67376737673766 L 125.89630431939743,244.52445244524452 L 133.60084163302247,249.37493749374937 L 138.4317947594036,250.8250825082508 L 142.17994804711307,249.37493749374937 L 149.96777765602056,247.87478747874786 L 161.29552981443143,246.77467746774676 L 168.95842098041527,250.67506750675065 L 168.0005595846673,256.5256525652565 L 168.0422057323085,261.1761176117612 L 168.41702106107945,265.8265826582658 L 167.33422122240782,275.4275427542754 L 169.41652860446865,282.57825782578254 L 170.12451311436934,289.4789478947895 L 167.95891343702607,295.17951795179516 L 154.29897701070706,296.979697969797 L 142.17994804711307,302.1302130213021 L 135.26668753867114,307.2307230723072 L 125.43819669534405,313.88138813881386 L 118.02518241520751,317.23172317231723 L 113.86056765108587,319.0819081908191 L 101.574954096927,320.38203820382034 L 90.28884808615734,323.6323632363236 L 82.91747995366202,330.8330833083308 L 76.0458655928613,342.9342934293429 L 71.0066817282741,356.985698569857 L 65.84255942076327,365.13651365136514 L 58.55448358355038,369.38693869386935 L 40.64664009782729,373.8873887388739 z" /><path fill-rule="evenodd" fill="#D2EBD9" stroke="#A6A6A6" stroke-width="0.25" opacity="1" d="M 15.86718225130348,218.37183718371836 L 19.490397096089314,213.7213721372137 L 26.7784729333022,203.6203620362036 L 32.400702864866425,200.17001700170016 L 38.48104042048403,195.8195819581958 L 43.14540895630028,188.16881688168814 L 47.809777492116524,175.2175217521752 L 55.01456103404698,184.36843684368435 L 54.63974570527603,182.56825682568257 L 59.762221865145655,178.51785178517852 L 65.25951335378623,168.26682668266827 L 60.928313999099714,153.26532653265326 L 56.3472377585659,147.56475647564756 L 56.3472377585659,146.26462646264625 L 57.67991448308483,145.3145314531453 L 59.55399112693957,143.1143114311431 L 60.803375556176064,142.1142114211421 L 60.8866678514585,138.1138113811381 L 64.13506736747338,134.06340634063406 L 71.29820476176262,128.1128112811281 L 73.33886599618224,123.9123912391239 L 74.75483501598359,122.31223122312231 L 76.46232706927347,123.1123112311231 L 76.96208084096806,123.66236623662365 L 76.37903477399104,133.3133313331333 L 76.12915788814374,142.4142414241424 L 78.00323453199847,146.56465646564655 L 74.87977345890724,153.91539153915392 L 71.92289697638087,163.11631163116311 L 71.17326631883897,167.4167416741674 L 72.88075837212885,171.5171517151715 L 73.29721984854102,175.3175317531753 L 73.38051214382344,182.51825182518252 L 70.88174328535045,191.56915691569156 L 57.30509915431388,201.27012701270127 L 56.63876079205442,205.87058705870587 L 54.26493037650508,211.87118711871187 L 50.43348479351316,216.87168716871685 L 46.893562244009765,225.87258725872587 L 46.56039306288003,227.4227422742274 L 36.35708689078199,225.97259725972597 L 23.69665800785218,226.57265726572655 L 22.7387966121042,224.17241724172416 L 18.157720371570388,219.67196719671966 L 15.86718225130348,218.37183718371836 z" /><path fill-rule="evenodd" fill="#D2EBD9" stroke="#A6A6A6" stroke-width="0.25" opacity="1" d="M 284.60977298007344,215.52155215521552 L 288.1913416772181,217.27172717271725 L 301.1016474459952,226.8226822682268 L 309.0144154978263,237.37373737373736 L 318.759614045871,244.87448744874487 L 319.8424138845426,245.07450745074507 L 313.38726100015407,252.87528752875286 L 308.93112320254386,257.87578757875787 L 308.93112320254386,262.9262926292629 L 312.92915337610066,266.9266926692669 L 305.51613909596415,268.9268926892689 L 290.89834127389713,273.37733773377335 L 281.444665759341,280.32803280328034 L 271.69946721129634,285.57855785578556 L 269.20069835282334,285.2285228522852 L 262.28743784438143,284.3284328432843 L 259.1639767712902,278.7278727872787 L 265.53583736039633,272.67726772677264 L 266.243821870297,266.27662766276626 L 266.826867937274,256.57565756575656 L 266.70192949435034,248.87488748874887 L 261.87097636796926,241.1241124112411 L 258.87245373780166,237.97379737973796 L 264.61962211228956,230.67306730673067 L 265.36925276983146,228.97289728972896 L 269.2423445004646,232.5232523252325 L 274.28152836505177,234.92349234923492 L 279.2374199343565,232.37323732373235 L 282.56911174565386,225.97259725972597 L 284.4015422418674,218.47184718471846 L 284.60977298007344,215.52155215521552 z" /><path fill-rule="evenodd" fill="#D2EBD9" stroke="#A6A6A6" stroke-width="0.25" opacity="1" d="M 265.36925276983146,228.97289728972896 L 264.61962211228956,230.67306730673067 L 258.87245373780166,237.97379737973796 L 254.45796208783273,243.52435243524351 L 249.33548592796308,246.37463746374635 L 247.7945784652381,252.6252625262526 L 246.8367170694901,258.87588758875887 L 238.7157182794529,259.7759775977598 L 230.80295022762175,256.4256425642564 L 230.09496571772107,250.67506750675065 L 225.01413570549266,244.57445744574457 L 219.60013651213453,240.9240924092409 L 211.10432239332636,238.47384738473846 L 201.9005237646175,237.023702370237 L 189.94807939158838,240.02400240024002 L 187.9907104524512,241.4241424142414 L 179.03678870958967,231.27312731273125 L 179.45325018600184,225.32253225322532 L 177.24600436101736,218.021802180218 L 173.24797418746058,213.67136713671366 L 170.5409745907815,210.2210221022102 L 168.95842098041527,203.9203920392039 L 167.91726728938485,194.5194519451945 L 166.54294441722473,187.06870687068707 L 165.83495990732405,185.66856685668566 L 155.09025381589018,185.76857685768576 L 138.72331779289212,185.6185618561856 L 131.68511884152653,186.4186418641864 L 124.0222276755427,189.8189818981898 L 119.56608987793253,191.2191219121912 L 116.40098265720007,192.26922692269227 L 113.1942292888264,190.7190719071907 L 113.98550609400952,187.71877187718772 L 122.14815103168795,181.06810681068106 L 130.22750367408395,175.4175417541754 L 139.80611763156375,165.06650665066505 L 147.26077805934148,158.26582658265826 L 153.6326386484476,151.46514651465145 L 152.0500850380814,141.1141114111411 L 146.4695012541584,130.76307630763077 L 148.63510093150163,126.4126412641264 L 152.21666962864626,121.1121112111211 L 157.04762275502736,118.26182618261825 L 163.66936022998078,115.9115911591159 L 170.08286696672812,114.86148614861486 L 174.66394320726192,111.4111411141114 L 181.6604960109863,102.6102610261026 L 184.1592648694593,100.86008600860086 L 188.7403411099931,105.81058105810581 L 209.52176878296012,138.26382638263826 L 209.7299995211662,139.81398139813982 L 209.60506107824256,143.8143814381438 L 210.02152255465472,145.9145914591459 L 212.06218378907434,150.7150715071507 L 213.1866297753872,152.4152415241524 L 224.26450504795076,165.3165316531653 L 227.1380892351947,170.1170117011701 L 231.42764244224,172.96729672967297 L 234.96756499174342,177.06770677067706 L 237.966087621911,181.96819681968196 L 240.58979492330764,187.41874187418742 L 241.79753320490292,191.91919191919192 L 244.37959435865832,194.16941694169415 L 247.50305543174957,195.96959695969596 L 250.21005502842863,199.019901990199 L 251.4177933100239,202.57025702570255 L 252.6255315916192,210.27102710271026 L 253.8749160208557,214.3214321432143 L 257.49813086564154,220.27202720272027 L 263.16200694484695,226.97269726972695 L 265.36925276983146,228.97289728972896 z" /><path fill-rule="evenodd" fill="#D2EBD9" stroke="#A6A6A6" stroke-width="0.25" opacity="1" d="M 184.1592648694593,100.86008600860086 L 181.6604960109863,102.6102610261026 L 174.66394320726192,111.4111411141114 L 170.08286696672812,114.86148614861486 L 163.66936022998078,115.9115911591159 L 157.04762275502736,118.26182618261825 L 152.21666962864626,121.1121112111211 L 148.63510093150163,126.4126412641264 L 146.4695012541584,130.76307630763077 L 143.512624771632,132.46324632463245 L 132.93450327076303,137.1137113711371 L 129.01976539248867,132.26322632263225 L 128.1035501443819,125.96259625962595 L 123.06436627979471,125.9125912591259 L 114.1937368322156,129.5129512951295 L 105.98944574689595,131.3131313131313 L 107.28047632377367,127.5127512751275 L 110.98698346384192,120.5120512051205 L 121.85662799819943,107.76077607760776 L 122.93942783687106,103.9103910391039 L 116.56756724776494,96.5096509650965 L 118.77481307274941,91.75917591759175 L 120.14913594490956,90.8090809080908 L 121.64839725999335,90.75907590759076 L 122.73119709866498,90.00900090009 L 123.23095087035958,86.85868586858686 L 125.0633813665731,83.75837583758376 L 133.30931859953395,83.9083908390839 L 136.59936426319007,78.05780578057805 L 139.30636385986915,76.85768576857686 L 140.93056361787657,75.1075107510751 L 138.9315485310982,70.9070907090709 L 140.63904058438806,66.7066706670667 L 152.92465413854694,55.355535553555356 L 153.3411156149591,48.75487548754875 L 154.673792339478,49.004900490049 L 175.16369697895652,46.35463546354635 L 176.95448132752884,53.65536553655365 L 170.83249762427002,66.3066306630663 L 169.2499440139038,72.65726572657265 L 175.16369697895652,72.7072707270727 L 182.9098804402228,69.85698569856986 L 187.11614135198568,68.85688568856885 L 200.27632400661008,73.05730573057305 L 202.94167745564792,74.1074107410741 L 199.69327793963305,78.05780578057805 L 187.28272594255054,87.25872587258725 L 183.86774183597078,91.05910591059106 L 181.7021421586275,95.75957595759576 L 182.32683437324576,98.85988598859885 L 184.1592648694593,100.86008600860086 z" /><path fill-rule="evenodd" fill="#D2EBD9" stroke="#A6A6A6" stroke-width="0.25" opacity="1" d="M 202.94167745564792,74.1074107410741 L 200.27632400661008,73.05730573057305 L 187.11614135198568,68.85688568856885 L 182.9098804402228,69.85698569856986 L 175.16369697895652,72.7072707270727 L 169.2499440139038,72.65726572657265 L 170.83249762427002,66.3066306630663 L 176.95448132752884,53.65536553655365 L 175.16369697895652,46.35463546354635 L 154.673792339478,49.004900490049 L 153.3411156149591,48.75487548754875 L 153.8825155342949,41.004100410041005 L 153.71593094373003,39.753975397539755 L 152.63313110505842,38.7038703870387 L 154.21568471542463,36.45364536453645 L 156.46457668805033,34.45344534453445 L 157.50573037908075,33.95339533953395 L 158.130422593699,31.053105310531052 L 157.83889956021048,29.452945294529453 L 157.9221918554929,27.8027802780278 L 159.6296839087828,24.9024902490249 L 161.42046825735508,23.75237523752375 L 166.75117515543081,21.75217521752175 L 170.45768229549907,19.35193519351935 L 186.28321839916134,14.101410141014101 L 189.9897255392296,12.25122512251225 L 197.94413973870195,3.35033503350335 L 201.8588776169763,0.0 L 201.69229302641142,3.05030503050305 L 201.8588776169763,10.65106510651065 L 200.10973941604522,13.751375137513751 L 198.11072432926682,15.7015701570157 L 197.569324409931,16.851685168516852 L 197.73590900049587,18.101810181018102 L 197.61097055757222,20.05200520052005 L 197.86084744341952,21.5021502150215 L 198.69377039624385,23.002300230023 L 199.23517031557967,25.05250525052505 L 197.8192012957783,31.803180318031803 L 198.94364728209115,32.85328532853285 L 200.73443163066347,33.1033103310331 L 202.02546220754115,34.15341534153415 L 203.149908193854,39.1039103910391 L 201.48406228820534,41.15411541154115 L 199.52669334906818,45.554555455545554 L 198.73541654388507,51.1051105110511 L 198.98529342973237,56.9056905690569 L 200.02644712076278,61.9061906190619 L 203.98283114667834,70.6070607060706 L 203.48307737498374,73.4073407340734 L 202.94167745564792,74.1074107410741 z" /><path fill-rule="evenodd" fill="#D2EBD9" stroke="#A6A6A6" stroke-width="0.25" opacity="1" d="M 116.56756724776494,96.5096509650965 L 122.93942783687106,103.9103910391039 L 121.85662799819943,107.76077607760776 L 110.98698346384192,120.5120512051205 L 107.28047632377367,127.5127512751275 L 105.98944574689595,131.3131313131313 L 104.15701525068242,136.56365636563655 L 97.74350851393508,142.26422642264225 L 90.87189415313436,143.66436643664366 L 85.83271028854718,145.86458645864585 L 78.79451133718159,148.26482648264826 L 78.00323453199847,146.56465646564655 L 76.12915788814374,142.4142414241424 L 76.37903477399104,133.3133313331333 L 76.96208084096806,123.66236623662365 L 78.0865268272809,124.91249124912491 L 79.75237273292957,126.1126112611261 L 83.25064913479176,128.1128112811281 L 83.83369520176878,126.81268126812681 L 85.16637192628771,125.46254625462545 L 86.20752561731813,124.11241124112411 L 87.83172537532556,126.51265126512651 L 91.12177103898166,127.9127912791279 L 94.91157047433236,127.9127912791279 L 98.0350315474236,126.1126112611261 L 99.95075433891957,122.06220622062206 L 101.45001565400335,112.36123612361236 L 103.99043066011757,107.91079107910791 L 112.65282936949059,101.36013601360135 L 115.81793659022304,98.10981098109811 L 116.56756724776494,96.5096509650965 z" /><path fill-rule="evenodd" fill="#D2EBD9" stroke="#A6A6A6" stroke-width="0.25" opacity="1" d="M 56.3472377585659,147.56475647564756 L 60.928313999099714,153.26532653265326 L 65.25951335378623,168.26682668266827 L 59.762221865145655,178.51785178517852 L 54.63974570527603,182.56825682568257 L 54.13999193358143,180.01800180018 L 54.22328422886386,177.26772677267726 L 59.17917579816862,166.16661666166615 L 59.512344979298355,162.5162516251625 L 57.846499073649696,157.96579657965796 L 54.59809955763481,161.16611661166115 L 48.309531263811124,164.56645664566454 L 45.81076240533813,165.4165416541654 L 49.05916192135302,156.1156115611561 L 48.7676388878645,156.06560656065605 L 53.09883824255102,155.9155915591559 L 56.8469915302605,152.3152315231523 L 56.3472377585659,147.56475647564756 z" /><path fill-rule="evenodd" fill="#D2EBD9" stroke="#A6A6A6" stroke-width="0.25" opacity="1" d="M 194.61244792740462,333.98339833983397 L 194.52915563212218,333.28332833283326 L 196.8196937523891,323.18231823182316 L 203.44143122734252,317.53175317531753 L 203.8578927037547,317.13171317131713 L 212.89510674189867,312.1312131213121 L 220.0582441361879,307.0807080708071 L 248.0444553510854,307.7807780778078 L 261.78768407268683,304.4304430443044 L 269.90868286272405,301.88018801880185 L 273.4902515598686,309.2809280928093 L 274.19823606976934,309.53095309530954 L 269.15905220518215,315.8315831583158 L 265.36925276983146,319.28192819281924 L 266.70192949435034,323.18231823182316 L 266.4936987561443,330.6330633063306 L 263.28694538777063,336.63366336633663 L 257.4564847180003,340.98409840984095 L 247.586347727032,343.3343334333433 L 240.83967180915494,345.2845284528453 L 239.2154720511475,346.6846684668467 L 234.25958048184273,349.28492849284925 L 225.97199710124065,351.38513851385136 L 222.30713610881358,351.6351635163516 L 214.97741412395948,352.1352135213521 L 211.85395305086826,350.3350335033503 L 210.2297532928608,349.38493849384935 L 205.27386172355605,345.0845084508451 L 198.48553965803777,343.3343334333433 L 195.40372473258773,340.3340334033403 L 194.61244792740462,333.98339833983397 z" /><path fill-rule="evenodd" fill="#D2EBD9" stroke="#A6A6A6" stroke-width="0.25" opacity="1" d="M 109.1545529676284,224.72247224722472 L 108.11339927659799,230.77307730773077 L 104.19866139832364,235.72357235723572 L 98.7846622049655,239.12391239123912 L 94.62004744084385,242.57425742574256 L 92.41280161585938,245.57455745574555 L 84.58332585931068,247.07470747074706 L 78.79451133718159,246.87468746874686 L 72.42265074807547,251.025102510251 L 63.67695974342001,253.57535753575357 L 61.8861753948477,248.42484248424842 L 59.84551416042809,245.17451745174517 L 56.88863767790172,243.87438743874387 L 55.597607101024,240.8240824082408 L 55.68089939630644,236.07360736073605 L 54.22328422886386,231.1231123112311 L 51.14146930341384,227.9227922792279 L 46.56039306288003,227.4227422742274 L 46.893562244009765,225.87258725872587 L 50.43348479351316,216.87168716871685 L 54.26493037650508,211.87118711871187 L 56.63876079205442,205.87058705870587 L 57.30509915431388,201.27012701270127 L 70.88174328535045,191.56915691569156 L 73.38051214382344,182.51825182518252 L 73.29721984854102,175.3175317531753 L 72.88075837212885,171.5171517151715 L 71.17326631883897,167.4167416741674 L 71.92289697638087,163.11631163116311 L 74.87977345890724,153.91539153915392 L 78.00323453199847,146.56465646564655 L 78.79451133718159,148.26482648264826 L 85.83271028854718,145.86458645864585 L 90.87189415313436,143.66436643664366 L 97.74350851393508,142.26422642264225 L 104.15701525068242,136.56365636563655 L 105.98944574689595,131.3131313131313 L 114.1937368322156,129.5129512951295 L 123.06436627979471,125.9125912591259 L 128.1035501443819,125.96259625962595 L 129.01976539248867,132.26322632263225 L 132.93450327076303,137.1137113711371 L 143.512624771632,132.46324632463245 L 146.4695012541584,130.76307630763077 L 152.0500850380814,141.1141114111411 L 153.6326386484476,151.46514651465145 L 147.26077805934148,158.26582658265826 L 139.80611763156375,165.06650665066505 L 130.22750367408395,175.4175417541754 L 122.14815103168795,181.06810681068106 L 113.98550609400952,187.71877187718772 L 113.1942292888264,190.7190719071907 L 116.40098265720007,192.26922692269227 L 119.56608987793253,191.2191219121912 L 119.77432061613861,197.46974697469747 L 123.06436627979471,203.9203920392039 L 123.98058152790148,206.67066706670667 L 121.14864348829875,209.4209420942094 L 118.7331669251082,213.021302130213 L 113.98550609400952,216.57165716571657 L 109.27949141055205,219.47194719471946 L 109.1545529676284,224.72247224722472 z" /><path fill-rule="evenodd" fill="#D2EBD9" stroke="#A6A6A6" stroke-width="0.25" opacity="1" d="M 128.1035501443819,364.8864886488649 L 125.89630431939743,365.93659365936594 L 117.81695167700143,364.83648364836483 L 112.06978330251356,358.035803580358 L 107.78023009546826,345.83458345834583 L 109.02961452470475,337.5837583758376 L 119.2329206968028,330.8330833083308 L 120.19078209255078,318.83188318831884 L 118.02518241520751,317.23172317231723 L 125.43819669534405,313.88138813881386 L 135.26668753867114,307.2307230723072 L 142.17994804711307,302.1302130213021 L 154.29897701070706,296.979697969797 L 167.95891343702607,295.17951795179516 L 166.54294441722473,298.8798879887989 L 166.08483679317135,303.68036803680366 L 168.45866720872067,307.980798079808 L 172.12352820114774,310.4310431043104 L 186.1582799562377,307.980798079808 L 197.0695706382364,307.5807580758076 L 200.48455474481617,312.5312531253125 L 203.44143122734252,317.53175317531753 L 196.8196937523891,323.18231823182316 L 194.52915563212218,333.28332833283326 L 194.61244792740462,333.98339833983397 L 181.36897297749778,339.3339333933393 L 177.45423509922344,341.28412841284126 L 174.66394320726192,345.1845184518452 L 168.58360565164432,351.08510851085106 L 161.75363743848482,351.08510851085106 L 157.04762275502736,349.034903490349 L 154.1323924201422,354.3354335433543 L 148.96827011263136,359.2359235923592 L 141.7218404230597,358.28582858285824 L 137.09911803488467,358.28582858285824 L 133.60084163302247,362.18621862186217 L 128.1035501443819,364.8864886488649 z" /><path fill-rule="evenodd" fill="#D2EBD9" stroke="#A6A6A6" stroke-width="0.25" opacity="1" d="M 168.41702106107945,265.8265826582658 L 175.830035341216,263.4263426342634 L 178.99514256194846,255.2255225522552 L 179.45325018600184,247.4247424742474 L 187.9907104524512,241.4241424142414 L 189.94807939158838,240.02400240024002 L 201.9005237646175,237.023702370237 L 211.10432239332636,238.47384738473846 L 219.60013651213453,240.9240924092409 L 225.01413570549266,244.57445744574457 L 230.09496571772107,250.67506750675065 L 230.80295022762175,256.4256425642564 L 238.7157182794529,259.7759775977598 L 246.8367170694901,258.87588758875887 L 247.7945784652381,252.6252625262526 L 249.33548592796308,246.37463746374635 L 254.45796208783273,243.52435243524351 L 258.87245373780166,237.97379737973796 L 261.87097636796926,241.1241124112411 L 266.70192949435034,248.87488748874887 L 266.826867937274,256.57565756575656 L 266.243821870297,266.27662766276626 L 265.53583736039633,272.67726772677264 L 259.1639767712902,278.7278727872787 L 262.28743784438143,284.3284328432843 L 269.20069835282334,285.2285228522852 L 268.20119080943414,298.3798379837984 L 269.90868286272405,301.88018801880185 L 261.78768407268683,304.4304430443044 L 248.0444553510854,307.7807780778078 L 220.0582441361879,307.0807080708071 L 212.89510674189867,312.1312131213121 L 203.8578927037547,317.13171317131713 L 203.44143122734252,317.53175317531753 L 200.48455474481617,312.5312531253125 L 197.0695706382364,307.5807580758076 L 186.1582799562377,307.980798079808 L 172.12352820114774,310.4310431043104 L 168.45866720872067,307.980798079808 L 166.08483679317135,303.68036803680366 L 166.54294441722473,298.8798879887989 L 167.95891343702607,295.17951795179516 L 170.12451311436934,289.4789478947895 L 169.41652860446865,282.57825782578254 L 167.33422122240782,275.4275427542754 L 168.41702106107945,265.8265826582658 z" /><path fill-rule="evenodd" fill="#D2EBD9" stroke="#A6A6A6" stroke-width="0.25" opacity="1" d="M 168.41702106107945,265.8265826582658 L 168.0422057323085,261.1761176117612 L 168.0005595846673,256.5256525652565 L 168.95842098041527,250.67506750675065 L 161.29552981443143,246.77467746774676 L 149.96777765602056,247.87478747874786 L 142.17994804711307,249.37493749374937 L 138.4317947594036,250.8250825082508 L 133.60084163302247,249.37493749374937 L 125.89630431939743,244.52445244524452 L 122.10650488404673,237.67376737673766 L 121.69004340763456,229.07290729072906 L 118.77481307274941,225.32253225322532 L 109.1545529676284,224.72247224722472 L 109.27949141055205,219.47194719471946 L 113.98550609400952,216.57165716571657 L 118.7331669251082,213.021302130213 L 121.14864348829875,209.4209420942094 L 123.98058152790148,206.67066706670667 L 123.06436627979471,203.9203920392039 L 119.77432061613861,197.46974697469747 L 119.56608987793253,191.2191219121912 L 124.0222276755427,189.8189818981898 L 131.68511884152653,186.4186418641864 L 138.72331779289212,185.6185618561856 L 155.09025381589018,185.76857685768576 L 165.83495990732405,185.66856685668566 L 166.54294441722473,187.06870687068707 L 167.91726728938485,194.5194519451945 L 168.95842098041527,203.9203920392039 L 170.5409745907815,210.2210221022102 L 173.24797418746058,213.67136713671366 L 177.24600436101736,218.021802180218 L 179.45325018600184,225.32253225322532 L 179.03678870958967,231.27312731273125 L 187.9907104524512,241.4241424142414 L 179.45325018600184,247.4247424742474 L 178.99514256194846,255.2255225522552 L 175.830035341216,263.4263426342634 L 168.41702106107945,265.8265826582658 z" /></g></g></g></svg>