<svg xmlns="http://www.w3.org/2000/svg" xmlns:xlink="http://www.w3.org/1999/xlink" width="330.99620155687444" height="500.0" viewBox="0.0 0.0 330.99620155687444 500.0" preserveAspectRatio="xMinYMin meet"><g transform="matrix(1,0,0,-1,0,500.0)"><g><g><g><path fill-rule="evenodd" fill="#D2EBD9" stroke="#A6A6A6" stroke-width="0.25" opacity="1" d="M 138.2709404843549,50.505050505050505 L 139.03230788467573,50.1050105010501 L 139.5950577023042,50.605060506050606 L 139.79367528499657,51.455145514551454 L 139.42954305006052,52.05520552055205 L 139.56195477185545,51.25512551255125 L 139.26402839781687,50.405040504050405 L 138.96610202377826,50.305030503050304 L 138.2709404843549,50.505050505050505 z" /><path fill-rule="evenodd" fill="#D2EBD9" stroke="#A6A6A6" stroke-width="0.25" opacity="1" d="M 166.93807825295707,0.0 L 168.4939159840475,0.05000500050005 L 169.68562148020186,0.6000600060006 L 170.51319474142016,1.5001500150015001 L 171.00973869815115,2.7002700270027002 L 169.38769510616328,0.8000800080008 L 166.93807825295707,0.0 z" /><path fill-rule="evenodd" fill="#D2EBD9" stroke="#A6A6A6" stroke-width="0.25" opacity="1" d="M 211.32910798470712,60.45604560456045 L 212.5539164113102,60.35603560356035 L 213.51390139432345,61.8061806180618 L 215.0035332645164,67.25672567256726 L 217.75107649176118,69.1069106910691 L 218.41313510073584,70.9070907090709 L 216.72488564785047,69.05690569056905 L 215.53318015169611,68.35683568356835 L 214.54009223823414,67.45674567456746 L 214.01044535105444,66.15661566156615 L 213.71251897701583,63.85638563856385 L 213.24907795073358,62.356235623562355 L 212.65322520265642,61.306130613061306 L 211.32910798470712,60.45604560456045 z" /><path fill-rule="evenodd" fill="#D2EBD9" stroke="#A6A6A6" stroke-width="0.25" opacity="1" d="M 170.48009181097143,134.86348634863486 L 169.5201068279582,134.91349134913492 L 167.3684163487906,135.56355635563557 L 166.6401518789185,136.2136213621362 L 166.44153429622608,135.51355135513552 L 167.43462220968806,135.11351135113512 L 172.13523833340804,134.16341634163416 L 173.32694382956242,134.1134113411341 L 174.0221053689858,134.86348634863486 L 170.48009181097143,134.86348634863486 z" /><path fill-rule="evenodd" fill="#D2EBD9" stroke="#A6A6A6" stroke-width="0.25" opacity="1" d="M 161.6085064507112,139.61396139613962 L 160.9133449112878,142.6142614261426 L 160.48300681545427,141.86418641864185 L 160.54921267635174,140.9140914091409 L 160.97955077218526,140.06400640064007 L 161.6085064507112,139.61396139613962 z" /><path fill-rule="evenodd" fill="#D2EBD9" stroke="#A6A6A6" stroke-width="0.25" opacity="1" d="M 79.54634186830376,326.982698269827 L 77.99050413721334,326.43264326432643 L 76.2029458929818,326.2826282628263 L 77.06362208464884,325.6325632563256 L 78.15601878945701,325.5825582558256 L 79.0829008420215,326.0826082608261 L 79.54634186830376,326.982698269827 z" /><path fill-rule="evenodd" fill="#D2EBD9" stroke="#A6A6A6" stroke-width="0.25" opacity="1" d="M 187.99154201835083,52.4052405240524 L 188.28946839238944,52.855285528552855 L 188.09085080969703,52.955295529552956 L 187.99154201835083,52.4052405240524 z" /><path fill-rule="evenodd" fill="#D2EBD9" stroke="#A6A6A6" stroke-width="0.25" opacity="1" d="M 180.675794389181,148.06480648064806 L 180.84130904142467,147.86478647864786 L 180.87441197187337,148.66486648664866 L 180.675794389181,149.06490649064907 L 180.01373578020633,149.26492649264927 L 179.3516771712317,149.11491149114912 L 179.98063284975763,149.11491149114912 L 180.51027973693732,148.9148914891489 L 180.80820611097593,148.56485648564856 L 180.675794389181,148.06480648064806 z" /><path fill-rule="evenodd" fill="#D2EBD9" stroke="#A6A6A6" stroke-width="0.25" opacity="1" d="M 103.97630453946822,184.86848684868485 L 103.87699574812201,184.5184518451845 L 104.2742309135068,184.3184318431843 L 103.97630453946822,184.86848684868485 z" /><path fill-rule="evenodd" fill="#D2EBD9" stroke="#A6A6A6" stroke-width="0.25" opacity="1" d="M 120.16363752889832,205.020502050205 L 120.5608726942831,205.47054705470546 L 120.5608726942831,205.97059705970597 L 120.09743166800085,205.57055705570556 L 120.16363752889832,205.020502050205 z" /><path fill-rule="evenodd" fill="#D2EBD9" stroke="#A6A6A6" stroke-width="0.25" opacity="1" d="M 12.645319431415745,350.03500350035 L 13.307378040390391,349.3349334933493 L 13.174966318595462,349.68496849684965 L 12.645319431415745,350.03500350035 z" /><path fill-rule="evenodd" fill="#D2EBD9" stroke="#A6A6A6" stroke-width="0.25" opacity="1" d="M 0.0,353.1353135313531 L 0.33102930448732315,353.6853685368537 L 0.23172051314112624,353.8853885388539 L 0.0,353.7853785378538 L 0.0,353.1353135313531 z" /></g><g><path fill-rule="evenodd" fill="#D2EBD9" stroke="#A6A6A6" stroke-width="0.25" opacity="1" d="M 316.0336769940474,75.25752575257525 L 315.8681623418038,74.75747574757476 L 315.93436820270125,74.35743574357436 L 316.1991916462911,74.15741574157416 L 317.0267649075094,74.15741574157416 L 316.9274561161632,74.35743574357436 L 316.0336769940474,75.25752575257525 z" /><path fill-rule="evenodd" fill="#D2EBD9" stroke="#A6A6A6" stroke-width="0.25" opacity="1" d="M 325.1038799370001,124.51245124512451 L 324.24320374533306,124.11241124112411 L 325.07077700655134,124.21242124212421 L 325.7990414764235,124.81248124812481 L 326.0307619895646,125.46254625462545 L 325.36870338059,125.8125812581258 L 325.66662975462856,125.5125512551255 L 325.69973268507727,125.16251625162515 L 325.1038799370001,124.51245124512451 z" /><path fill-rule="evenodd" fill="#D2EBD9" stroke="#A6A6A6" stroke-width="0.25" opacity="1" d="M 330.99620155687444,72.95729572957295 L 329.34105503443783,73.25732573257325 L 327.8845260946936,73.3073307330733 L 326.9907469725778,73.6073607360736 L 327.6859085120012,72.8072807280728 L 328.74520228636067,72.8072807280728 L 329.936907782515,73.05730573057305 L 330.99620155687444,72.95729572957295 z" /><path fill-rule="evenodd" fill="#D2EBD9" stroke="#A6A6A6" stroke-width="0.25" opacity="1" d="M 317.58951472513786,118.26182618261825 L 316.4971180203297,118.86188618861885 L 314.31232461071335,120.6120612061206 L 313.6502660017387,120.76207620762075 L 310.47238467866043,120.6120612061206 L 309.81032606968574,120.86208620862085 L 308.78413522577506,121.96219621962196 L 309.5455026260959,120.4120412041204 L 310.6047964004553,119.91199119911991 L 312.88889860141785,120.26202620262026 L 314.27922168026464,119.96199619961996 L 316.2985004376373,118.4118411841184 L 317.58951472513786,118.26182618261825 z" /><path fill-rule="evenodd" fill="#D2EBD9" stroke="#A6A6A6" stroke-width="0.25" opacity="1" d="M 299.78013814371985,125.06250625062505 L 294.450566341474,124.012401240124 L 293.3912725671145,123.6123612361236 L 291.5706113924343,123.36233623362335 L 283.29487878025117,126.71267126712671 L 283.0300553366613,127.31273127312731 L 282.9638494757639,128.06280628062805 L 282.2355850058917,127.31273127312731 L 283.4603934324948,126.3126312631263 L 290.41200882672865,123.2123212321232 L 292.0340524187165,122.96229622962295 L 293.3912725671145,122.96229622962295 L 294.8809044373075,123.76237623762376 L 298.4891238562193,124.31243124312431 L 299.78013814371985,125.06250625062505 z" /><path fill-rule="evenodd" fill="#D2EBD9" stroke="#A6A6A6" stroke-width="0.25" opacity="1" d="M 319.34397003892065,122.36223622362236 L 317.9536469600739,120.6120612061206 L 319.04604366488206,121.5121512151215 L 319.77430813475416,122.7122712271227 L 319.6087934825105,122.7122712271227 L 319.34397003892065,122.36223622362236 z" /><path fill-rule="evenodd" fill="#D2EBD9" stroke="#A6A6A6" stroke-width="0.25" opacity="1" d="M 273.1984849933878,213.6213621362136 L 273.13227913249034,213.8213821382138 L 272.8674556889005,213.77137713771376 L 272.5033234539644,213.2213221322132 L 272.8674556889005,213.07130713071305 L 273.1984849933878,213.6213621362136 z" /><path fill-rule="evenodd" fill="#D2EBD9" stroke="#A6A6A6" stroke-width="0.25" opacity="1" d="M 243.20723000683634,241.07410741074105 L 243.53825931132366,241.47414741474145 L 243.40584758952872,241.87418741874185 L 243.14102414593887,241.9241924192419 L 243.20723000683634,241.07410741074105 z" /><path fill-rule="evenodd" fill="#D2EBD9" stroke="#A6A6A6" stroke-width="0.25" opacity="1" d="M 274.3239846286447,282.1282128212821 L 274.52260221133713,282.17821782178214 L 274.52260221133713,282.77827782778274 L 274.3239846286447,282.7282728272827 L 274.3239846286447,282.1282128212821 z" /><path fill-rule="evenodd" fill="#D2EBD9" stroke="#A6A6A6" stroke-width="0.25" opacity="1" d="M 182.89369072924606,500.0 L 181.7350881635404,498.7998799879988 L 182.2316321202714,499.0999099909991 L 183.0592053814897,500.0 L 182.89369072924606,500.0 z" /></g></g></g></g></svg>