<svg xmlns="http://www.w3.org/2000/svg" xmlns:xlink="http://www.w3.org/1999/xlink" width="500.0" height="473.77644617529586" viewBox="0.0 0.0 500.0 473.77644617529586" preserveAspectRatio="xMinYMin meet"><g transform="matrix(1,0,0,-1,0,473.77644617529586)"><g><g><path fill-rule="evenodd" fill="#D2EBD9" stroke="#A6A6A6" stroke-width="0.25" opacity="1" d="M 94.6094609460946,166.5016933553345 L 88.3088308830883,166.5016933553345 L 88.5088508850885,169.39201870953923 L 88.95889588958896,171.5242259380509 L 88.85888588858886,172.56663836087884 L 88.1088108810881,172.85093265801373 L 87.5087508750875,172.4718735951672 L 85.65856585658565,170.2449016009439 L 85.2085208520852,169.43940109239506 L 85.2085208520852,168.49175343527875 L 86.05860586058606,164.79592757252516 L 78.55785578557855,164.46425089253447 L 77.05770577057706,164.17995659539957 L 74.75747574757476,162.90063225829255 L 73.6073607360736,162.56895557830185 L 70.10701070107011,162.90063225829255 L 66.55665566556655,162.3794260468786 L 65.30653065306531,162.4268084297344 L 64.6064606460646,162.66372034401348 L 62.9062906290629,163.6587503839856 L 61.85618561856185,163.56398561827396 L 58.855885588558856,164.65378042395773 L 57.355735573557354,164.5590156582461 L 56.555655565556556,164.70116280681353 L 52.4052405240524,164.79592757252516 L 50.2050205020502,164.2747213611112 L 46.65466546654665,164.5590156582461 L 46.3046304630463,164.22733897825537 L 46.2046204620462,162.33204366402276 L 46.004600460046,161.66869030404135 L 45.25452545254525,161.1474840926274 L 44.9044904490449,160.6262778812134 L 44.05440544054405,160.43674834979015 L 43.55435543554355,159.96292452123203 L 43.05430543054305,158.30454112127848 L 41.85418541854185,156.97783440131565 L 41.6041604160416,156.5040105727575 L 41.15411541154115,154.70348002423654 L 40.854085408540854,154.18227381282256 L 39.9039903990399,155.69851006420865 L 38.75387538753875,156.83568725274822 L 37.9037903790379,158.44668826984594 L 36.95369536953695,159.44171830981804 L 29.252925292529252,165.12760425251585 L 25.9025902590259,169.86584253809738 L 25.152515251525152,170.5291958980788 L 24.4024402440244,170.8134901952137 L 22.7022702270227,171.1925492580602 L 22.35223522352235,171.14516687520438 L 22.802280228022802,170.43443113236717 L 22.7022702270227,170.10275445237644 L 22.05220522052205,169.62893062381832 L 20.75207520752075,169.10772441240434 L 19.65196519651965,167.92316484100897 L 18.8018801880188,167.49672339530662 L 16.251625162516252,167.92316484100897 L 16.2016201620162,166.5016933553345 L 15.45154515451545,165.64881046392983 L 15.05150515051505,164.65378042395773 L 14.55145514551455,162.4268084297344 L 13.55135513551355,160.2472188183669 L 13.25132513251325,158.25715873842267 L 12.601260126012601,155.8880395956319 L 12.7012701270127,154.84562717280397 L 12.2012201220122,152.4765080300132 L 12.5012501250125,152.23959611573414 L 13.05130513051305,152.4765080300132 L 13.65136513651365,151.8131546700318 L 13.751375137513751,151.38671322432947 L 13.151315131513151,148.63853501869218 L 13.451345134513451,147.7856521272875 L 12.95129512951295,147.59612259586424 L 12.15121512151215,146.36418064161305 L 11.701170117011701,145.98512157876652 L 11.151115111511151,145.65344489877583 L 9.950995099509951,145.41653298449677 L 9.5009500950095,145.03747392165025 L 8.8008800880088,144.0424438816781 L 8.25082508250825,143.6633848188316 L 7.050705070507051,143.52123767026416 L 6.5006500650065,143.6633848188316 L 6.25062506250625,143.47385528740833 L 5.8505850585058505,142.62097239600365 L 3.8003800380038,144.18459103024557 L 1.2001200120012,143.52123767026416 L 0.55005500550055,143.6160024359758 L 0.0,143.90029673311068 L 0.25002500250025,142.95264907599437 L 0.85008500850085,142.4314428645804 L 1.25012501250125,141.62594235603154 L 2.5502550255025502,141.29426567604082 L 2.25022502250225,140.72567708177104 L 2.25022502250225,140.15708848750128 L 3.0003000300030003,139.73064704179893 L 3.0003000300030003,139.20944083038498 L 2.000200020002,138.02488125898958 L 1.8001800180018002,136.98246883616164 L 1.000100010001,136.41388024189186 L 0.85008500850085,135.8926740304779 L 1.3501350135013501,133.23926059055225 L 1.3001300130013,131.86517148773362 L 4.5004500450045,130.72799429919405 L 4.7004700470047,130.34893523634753 L 4.6004600460046,129.9224937906452 L 4.15041504150415,129.78034664207775 L 4.4004400440044,129.35390519637542 L 5.05050505050505,128.64316945353818 L 6.65066506650665,127.93243371070096 L 8.1008100810081,124.85257882507297 L 8.150815081508151,124.14184308223574 L 7.25072507250725,120.49339960233797 L 7.25072507250725,119.16669288237514 L 7.55075507550755,118.3611923738263 L 9.15091509150915,116.7975737395844 L 9.3009300930093,115.5656317853332 L 9.15091509150915,114.333689831082 L 8.65086508650865,112.91221834540755 L 7.650765076507651,111.86980592257962 L 5.05050505050505,110.40095205404934 L 5.8505850585058505,109.45330439693304 L 6.5006500650065,108.22136244268185 L 6.85068506850685,107.08418525414228 L 7.55075507550755,106.04177283131435 L 8.1008100810081,105.42580185418875 L 9.85098509850985,104.14647751708175 L 10.501050105010501,103.24621224282126 L 11.3011301130113,102.96191794568637 L 11.55115511551155,102.58285888283984 L 11.05110511051105,100.35588688861652 L 11.101110111011101,100.02421020862582 L 12.4012401240124,99.36085684864442 L 12.7012701270127,98.55535634009556 L 13.201320132013201,98.03415012868159 L 13.4013401340134,98.03415012868159 L 14.8014801480148,99.17132731722116 L 15.1015101510151,100.40326927147234 L 15.4015401540154,100.92447548288631 L 15.851585158515851,101.16138739716538 L 16.301630163016302,101.11400501430957 L 16.951695169516952,100.30850450576071 L 18.6018601860186,100.45065165432815 L 18.751875187518753,100.30850450576071 L 18.8018801880188,99.55038638006766 L 19.75197519751975,99.69253352863511 L 19.75197519751975,99.02918016865371 L 19.95199519951995,98.41320919152811 L 21.5021502150215,96.47053149443968 L 20.95209520952095,95.23858954018849 L 21.052105210521052,94.6700009459187 L 22.002200220022,93.53282375737915 L 22.002200220022,92.4430289516954 L 22.15221522152215,91.96920512313724 L 22.7022702270227,91.8270579745698 L 23.85238523852385,91.06893984887675 L 24.652465246524653,90.83202793459768 L 24.4024402440244,90.16867457461626 L 25.1025102510251,88.9841150032209 L 25.5025502550255,88.74720308894182 L 25.152515251525152,88.3681440260953 L 25.002500250025,87.18358445469991 L 25.5025502550255,87.08881968898828 L 25.852585258525853,87.23096683755573 L 26.15261526152615,88.13123211181622 L 26.402640264026402,87.89432019753714 L 26.65266526652665,86.37808394615105 L 26.1026102610261,85.85687773473708 L 25.55255525552555,86.04640726616034 L 25.35253525352535,85.95164250044871 L 25.7025702570257,85.24090675761148 L 25.302530253025303,84.29325910049519 L 25.4025402540254,83.81943527193704 L 25.202520252025202,83.34561144337889 L 25.202520252025202,83.15608191195562 L 25.6025602560256,83.01393476338818 L 25.95259525952595,82.39796378626258 L 26.002600260026,81.68722804342535 L 25.752575257525752,81.02387468344394 L 26.1026102610261,80.12360940918344 L 25.852585258525853,79.74455034633694 L 25.05250525052505,79.50763843205786 L 24.75247524752475,78.702137923509 L 24.3024302430243,78.32307886066248 L 24.35243524352435,77.84925503210432 L 24.702470247024703,77.70710788353688 L 25.05250525052505,77.18590167212291 L 24.9024902490249,75.9065773350159 L 25.05250525052505,75.14845920932287 L 25.002500250025,74.76940014647634 L 24.15241524152415,74.29557631791819 L 24.702470247024703,74.0112820207833 L 25.302530253025303,73.20578151223444 L 25.252525252525253,73.44269342651351 L 25.65256525652565,73.86913487221585 L 26.15261526152615,72.30551623797395 L 26.452645264526453,72.87410483224373 L 26.85268526852685,72.30551623797395 L 26.55265526552655,69.36780850091341 L 25.202520252025202,69.3204261180576 L 24.75247524752475,69.0361318209227 L 24.602460246024602,68.37277846094129 L 24.85248524852485,66.43010076385286 L 24.25242524252425,65.19815880960168 L 23.402340234023402,64.29789353534119 L 22.902290229022903,63.35024587822488 L 23.452345234523452,62.118303923973684 L 24.052405240524052,61.59709771255972 L 25.9025902590259,60.79159720401086 L 26.452645264526453,60.31777337545271 L 28.152815281528152,58.23294852979684 L 29.952995299529952,57.33268325553635 L 30.553055305530552,57.33268325553635 L 32.503250325032504,57.901271849806136 L 33.3033303330333,58.94368427263407 L 33.45334533453345,59.84394954689456 L 34.15341534153415,60.08086146117363 L 34.75347534753475,60.981126735434124 L 35.75357535753575,61.64448009541554 L 36.103610361036104,62.07092154111787 L 36.7036703670367,63.729304941071405 L 37.85378537853785,63.77668732392722 L 39.753975397539755,64.25051115248537 L 40.5040504050405,64.0135992382063 L 41.054105410541055,63.634540175359774 L 42.254225422542255,61.73924486112717 L 44.2044204420442,60.41253814116434 L 44.404440444044404,59.559655249759665 L 44.004400440044,58.46986044407592 L 44.95449544954495,57.33268325553635 L 46.15461546154615,54.963564112745594 L 47.05470547054705,54.015916455629295 L 48.3048304830483,54.110681221340926 L 48.75487548754875,54.30021075276419 L 49.404940494049406,55.10571126131304 L 50.00500050005,56.43241798127587 L 51.655165516551655,57.28530087268054 L 51.455145514551454,57.94865423266195 L 51.755175517551756,58.327713295508474 L 53.005300530053,59.08583142120152 L 52.955295529552956,59.93871431260619 L 53.3053305330533,60.175626226885264 L 53.05530553055305,60.79159720401086 L 53.1053105310531,61.075891501145755 L 53.65536553655365,61.31280341542483 L 55.105510551055104,61.170656266857385 L 55.6055605560556,61.88139200969461 L 57.05570557055705,63.018569198234175 L 57.9057905790579,62.59212775253184 L 57.85578557855785,63.018569198234175 L 58.605860586058604,63.35024587822488 L 58.805880588058805,63.68192255821559 L 59.2059205920592,63.35024587822488 L 59.35593559355935,63.729304941071405 L 60.5060506050605,64.20312876962956 L 61.106110611061105,63.68192255821559 L 62.106210621062104,63.44501064393651 L 63.15631563156315,62.97118681537836 L 64.7064706470647,62.829039666810914 L 65.85658565856585,62.118303923973684 L 66.8066806680668,62.023539158262054 L 67.75677567756776,61.31280341542483 L 69.75697569756976,60.41253814116434 L 70.95709570957095,60.12824384402945 L 72.50725072507251,59.0384490383457 L 73.65736573657365,59.133213804057334 L 74.75747574757476,58.422478061220104 L 77.00770077007701,58.23294852979684 L 78.1078107810781,59.559655249759665 L 78.25782578257825,59.93871431260619 L 78.25782578257825,61.12327388400157 L 78.45784578457845,61.59709771255972 L 79.85798579857985,62.68689251824347 L 83.3083308330833,63.87145208963885 L 84.35843584358436,64.72433498104353 L 85.6085608560856,65.34030595816913 L 86.15861586158616,65.38768834102494 L 88.008800880088,65.05601166103423 L 88.70887088708871,65.81412978672726 L 88.85888588858886,66.19318884957379 L 88.75887588758876,66.95130697526683 L 89.15891589158916,67.04607174097846 L 89.4089408940894,67.51989556953662 L 89.55895589558955,68.51492560950874 L 88.65886588658866,68.94136705521107 L 88.4088408840884,69.74686756375993 L 87.55875587558755,70.17330900946227 L 86.55865586558656,71.2157214322902 L 86.40864086408641,71.5473981122809 L 86.85868586858686,72.11598670655069 L 88.25882588258825,72.4476633865414 L 89.00890089008901,72.87410483224373 L 90.00900090009,72.4476633865414 L 90.45904590459045,72.7793400665321 L 90.85908590859086,72.7793400665321 L 94.45944594459445,71.87907479227161 L 98.05980598059806,69.98377947803901 L 98.60986098609861,70.5997504551646 L 97.55975597559755,71.31048619800183 L 98.80988098809881,73.63222295793678 L 101.21012101210121,75.622283037881 L 102.2102210221022,77.61234311782525 L 103.36033603360336,78.18093171209503 L 106.1106110611061,78.84428507207645 L 107.3107310731073,79.60240319776949 L 108.06080608060806,80.69219800345323 L 108.56085608560855,81.11863944915557 L 111.1111111111111,82.49272855197421 L 110.01100110011001,84.10372956907193 L 110.01100110011001,84.90923007762078 L 111.66116611661165,87.79955543182551 L 111.9111911191119,88.699820706086 L 111.66116611661165,91.5427636774349 L 112.1112111211121,92.63255848311866 L 112.36123612361236,95.23858954018849 L 113.26132613261325,96.56529626015131 L 114.26142614261425,99.88206306005837 L 114.46144614461446,100.21373974004908 L 115.21152115211521,100.64018118575142 L 115.56155615561555,101.06662263145375 L 115.56155615561555,102.29856458570495 L 115.36153615361536,102.86715317997474 L 115.06150615061506,103.43574177424452 L 114.16141614161415,104.2886246656492 L 113.6113611361136,105.47318423704456 L 112.86128612861286,106.1839199798818 L 112.41124112411241,109.73759869406793 L 112.51125112511251,110.40095205404934 L 113.66136613661365,111.68027639115635 L 114.36143614361436,113.00698311111918 L 115.36153615361536,114.09677791680292 L 115.5115511551155,116.22898514531461 L 115.11151115111511,117.22401518528673 L 114.5114511451145,117.83998616241233 L 113.7113711371137,118.17166284240304 L 112.66126612661266,118.12428045954722 L 112.06120612061206,117.93475092812396 L 111.86118611861185,117.65045663098907 L 111.76117611761175,116.89233850529602 L 111.2111211121112,115.47086701962156 L 111.66116611661165,115.37610225390993 L 111.26112611261125,114.61798412821689 L 110.51105110511051,114.57060174536107 L 107.91079107910791,114.9496608082076 L 107.3107310731073,115.42348463676575 L 106.46064606460645,117.03448565386347 L 106.16061606160615,116.70280897387276 L 105.91059105910591,116.65542659101695 L 105.36053605360536,117.50830948242162 L 104.5104510451045,117.83998616241233 L 103.56035603560356,118.64548667096119 L 103.36033603360336,118.88239858524025 L 103.31033103310331,119.30884003094259 L 103.76037603760375,119.78266385950074 L 104.4104410441044,121.44104725945428 L 104.26042604260425,122.53084206513803 L 104.4104410441044,122.95728351084037 L 105.06050605060506,123.19419542511945 L 105.61056105610561,123.00466589369618 L 106.06060606060605,123.052048276552 L 106.26062606260625,123.95231355081248 L 106.06060606060605,125.2790202707753 L 104.7104710471047,128.64316945353818 L 107.36073607360736,128.64316945353818 L 108.31083108310831,129.11699328209633 L 109.5109510951095,129.44866996208705 L 110.51105110511051,130.8701414477615 L 111.2111211121112,132.38637769914757 L 111.9111911191119,132.52852484771503 L 112.56125612561256,132.1968481677243 L 113.16131613161315,131.5334948077429 L 114.1114111411141,129.82772902493357 L 114.91149114911491,129.0222285163847 L 115.8115811581158,128.92746375067307 L 119.36193619361936,129.49605234494285 L 120.96209620962095,129.16437566495216 L 124.31243124312431,129.6381994935103 L 125.2125212521252,130.2541704706359 L 124.36243624362436,133.19187820769645 L 124.66246624662466,134.8976439905058 L 124.26242624262426,135.37146781906395 L 122.01220122012201,135.8926740304779 L 120.11201120112011,137.78796934471052 L 115.16151615161516,141.48379520746408 L 114.5114511451145,142.57359001314785 L 114.81148114811481,147.02753400159446 L 114.3114311431143,149.11235884725033 L 113.86138613861385,149.77571220723175 L 111.9111911191119,150.2021536529341 L 108.7108710871087,150.39168318435736 L 106.76067606760675,151.765772287176 L 105.36053605360536,155.41421576707376 L 105.1105110511051,157.87809967557615 L 104.86048604860486,158.6362178012692 L 103.51035103510351,160.15245405265526 L 99.2099209920992,162.47419081259022 L 98.35983598359836,163.3270737039949 L 95.2095209520952,165.8383399953531 L 94.6094609460946,166.5016933553345 z" /><path fill-rule="evenodd" fill="#D2EBD9" stroke="#A6A6A6" stroke-width="0.25" opacity="1" d="M 371.7371737173717,369.8668805724932 L 316.1816181618162,409.146875959964 L 238.17381738173816,464.96332296411424 L 225.52255225522552,473.77644617529586 L 171.86718671867186,473.72906379244006 L 190.5190519051905,301.6836316429752 L 201.22012201220122,199.05339037727953 L 201.77017701770177,198.05836033730742 L 209.07090709070906,192.94106298887937 L 209.37093709370936,192.65676869174447 L 209.4209420942094,192.23032724604215 L 204.7204720472047,166.88075241818103 L 209.3209320932093,168.3022239038555 L 213.17131713171315,172.14019691517652 L 215.57155715571557,170.05537206952064 L 217.3217321732173,169.77107777238575 L 220.02200220022002,169.86584253809738 L 229.57295729572957,169.20248917811597 L 236.77367736773675,171.57160832090673 L 239.02390239023902,173.08784457229282 L 243.17431743174316,173.51428601799515 L 245.47454745474545,175.78864039507428 L 246.3246324632463,176.40461137219987 L 250.9250925092509,176.87843520075802 L 251.77517751775176,174.03549222940913 L 254.42544254425442,172.0454321494649 L 255.025502550255,170.0079896866648 L 255.1255125512551,166.45431097247868 L 258.6258625862586,166.88075241818103 L 261.2761276127613,166.35954620676705 L 262.6262626262626,167.87578245815314 L 264.87648764876485,168.87081249812528 L 265.87658765876586,169.77107777238575 L 265.67656765676566,172.56663836087884 L 266.1266126612661,173.9881098465533 L 267.97679767976797,175.2200518008045 L 270.72707270727074,175.17266941794867 L 273.37733773377335,178.15775953786505 L 274.6274627462746,179.05802481212552 L 275.77757775777576,178.53681860071157 L 276.027602760276,177.1153471150371 L 279.4779477947795,177.35225902931617 L 281.87818781878184,177.9682300064418 L 283.028302830283,177.77870047501852 L 287.6287628762876,173.46690363513935 L 288.1788178817882,171.05040210949275 L 292.9292929292929,162.52157319544602 L 294.9294929492949,161.05271932691576 L 297.3797379737974,160.48413073264598 L 301.030103010301,161.57392553832972 L 306.5806580658066,163.70613276684142 L 311.38113811381135,164.36948612682284 L 313.6313631363136,164.5590156582461 L 316.5816581658166,164.322103743967 L 320.5320532053205,164.46425089253447 L 326.33263326332633,162.71110272686929 L 329.6329632963296,161.05271932691576 L 332.08320832083206,159.20480639553898 L 334.8334833483348,156.55139295561332 L 348.28482848284824,152.7134199442923 L 348.8348834883488,153.13986138999462 L 349.8349834983498,153.4241556871295 L 356.4856485648565,153.4241556871295 L 354.6854685468547,165.03283948680422 L 352.08520852085206,176.26246422363243 L 350.6350635063506,183.89102786341869 L 350.1350135013501,201.75418620006099 L 350.8350835083508,205.68692397709364 L 350.9350935093509,211.84663374834963 L 349.9349934993499,212.41522234261942 L 346.83468346834684,212.79428140546594 L 322.88228822882286,215.11601816540087 L 322.5322532253225,216.4427248853637 L 322.88228822882286,217.9589611367498 L 319.9319931993199,230.32576306211755 L 322.2322232223222,231.88938169635944 L 343.3343334333433,242.12397639321551 L 344.8344834483448,276.2866744322583 L 342.4342434243424,279.7929707635886 L 328.63286328632864,290.88044835184934 L 309.7309730973097,307.13260567139395 L 331.6331633163316,318.97820138534775 L 345.43454345434543,330.4921204193108 L 364.93649364936493,347.17071918455775 L 371.7371737173717,369.8668805724932 z" /><path fill-rule="evenodd" fill="#D2EBD9" stroke="#A6A6A6" stroke-width="0.25" opacity="1" d="M 356.4856485648565,153.4241556871295 L 357.7357735773577,153.32939092141788 L 358.4358435843584,151.43409560718527 L 358.7358735873587,151.00765416148295 L 359.58595859585955,151.00765416148295 L 360.68606860686066,151.4814779900411 L 362.58625862586257,152.66603756143647 L 364.4864486448645,152.9977142414272 L 366.5866586658666,152.4765080300132 L 370.6370637063706,150.81812463005969 L 378.28782878287825,148.16471119013403 L 378.08780878087805,150.48644795006896 L 378.3378337833783,150.81812463005969 L 382.3382338233823,149.77571220723175 L 383.3883388338834,149.77571220723175 L 386.28862886288624,150.67597748149223 L 387.2387238723872,150.72335986434805 L 391.9391939193919,149.06497646439453 L 392.3892389238924,149.06497646439453 L 394.93949394939494,149.965241738655 L 399.58995899589956,150.10738888722247 L 401.1401140114011,150.67597748149223 L 410.1410141014101,159.11004162982735 L 410.991099109911,159.5838654583855 L 411.991199119912,159.82077737266457 L 462.5462546254625,161.57392553832972 L 462.7462746274627,162.00036698403207 L 462.8462846284628,164.0378094468321 L 463.59635963596355,164.322103743967 L 464.7464746474647,164.36948612682284 L 477.94779477947793,162.04774936688787 L 478.1978197819782,165.69619284678564 L 478.4978497849785,166.5016933553345 L 481.1481148114811,168.16007675528803 L 483.5483548354835,170.76610781235786 L 484.6484648464846,171.38207878948347 L 487.04870487048703,171.85590261804163 L 488.1988198819882,172.4718735951672 L 488.94889488948894,173.41952125228352 L 489.3989398939894,174.50931605796728 L 489.64896489648964,175.74125801221845 L 489.94899489948995,178.82111289784646 L 490.14901490149015,179.38970149211625 L 490.5990599059906,180.10043723495346 L 492.39923992399235,181.99573254918607 L 491.8491849184918,184.22270454340938 L 491.99919991999195,185.12296981766985 L 494.69946994699467,191.8038858003398 L 495.7495749574957,193.13059252030263 L 496.44964496449643,193.6991811145724 L 497.74977497749774,194.36253447455383 L 498.1998199819982,194.78897592025615 L 498.44984498449844,195.4997116630934 L 498.34983498349834,207.96127835417278 L 498.999899989999,209.19322030842397 L 498.84988498849884,212.88904617117757 L 499.04990499049904,213.45763476544735 L 499.5999599959996,213.55239953115895 L 500.0,213.88407621114968 L 499.8999899989999,244.96691936456443 L 431.54315431543154,244.96691936456443 L 426.1426142614261,238.0490914676154 L 408.1408140814081,233.92682415915948 L 388.9388938893889,250.03683433013666 L 382.6382638263826,256.9546622270857 L 373.63736373637363,268.3738164953371 L 344.8344834483448,276.2866744322583 L 343.3343334333433,242.12397639321551 L 322.2322232223222,231.88938169635944 L 319.9319931993199,230.32576306211755 L 322.88228822882286,217.9589611367498 L 322.5322532253225,216.4427248853637 L 322.88228822882286,215.11601816540087 L 346.83468346834684,212.79428140546594 L 349.9349934993499,212.41522234261942 L 350.9350935093509,211.84663374834963 L 350.8350835083508,205.68692397709364 L 350.1350135013501,201.75418620006099 L 350.6350635063506,183.89102786341869 L 352.08520852085206,176.26246422363243 L 354.6854685468547,165.03283948680422 L 356.4856485648565,153.4241556871295 z" /><path fill-rule="evenodd" fill="#D2EBD9" stroke="#A6A6A6" stroke-width="0.25" opacity="1" d="M 251.47514751475146,103.72003607137941 L 251.77517751775176,102.86715317997474 L 252.9252925292529,102.53547649998403 L 252.87528752875286,102.20379981999332 L 252.17521752175216,101.91950552285843 L 250.9250925092509,100.82971071717468 L 251.27512751275125,100.49803403718397 L 251.97519751975196,100.30850450576071 L 253.67536753675367,100.2611221229049 L 256.5256525652565,99.26609208293279 L 262.6262626262626,94.6700009459187 L 263.47634763476344,94.57523618020709 L 264.2264226422642,93.91188282022567 L 266.7266726672667,93.62758852309078 L 267.1267126712671,93.72235328880241 L 267.4267426742674,94.24355950021638 L 267.026702670267,95.85456051731408 L 267.1267126712671,96.75482579157458 L 267.8267826782678,96.99173770585365 L 272.77727772777274,97.32341438584436 L 273.17731773177314,97.60770868297925 L 272.1272127212721,105.37841947133293 L 272.7272727272727,107.22633240270973 L 272.87728772877284,108.9794805683749 L 272.67726772677264,109.73759869406793 L 272.027202720272,110.21142252262608 L 272.6272627262726,110.82739349975168 L 273.4273427342734,110.54309920261679 L 274.77747774777475,109.50068677978885 L 275.6275627562756,109.40592201407722 L 276.9276927692769,109.54806916264467 L 277.7277727772777,109.12162771694234 L 278.2278227822782,108.60042150552837 L 278.6778677867787,107.36847955127718 L 279.92799279927993,108.26874482553767 L 280.8780878087809,108.26874482553767 L 281.77817781778174,107.93706814554696 L 283.9283928392839,108.78995103695163 L 283.07830783078305,111.72765877401217 L 282.9282928292829,113.3860421739657 L 283.37833783378335,114.57060174536107 L 283.9283928392839,115.47086701962156 L 285.1285128512851,119.49836956236585 L 284.9284928492849,119.68789909378911 L 284.77847784778476,119.6405167109333 L 285.57855785578556,120.96722343089613 L 290.02900290029004,123.47848972225434 L 292.9292929292929,126.60572699073813 L 295.37953795379536,128.0271984764126 L 297.029702970297,128.40625753925912 L 299.32993299329934,127.93243371070096 L 306.4306430643064,124.52090214508226 L 307.43074307430743,124.28399023080318 L 307.8807880788079,124.37875499651481 L 309.9309930993099,125.2790202707753 L 310.2310231023102,125.51593218505438 L 310.3310331033103,125.84760886504509 L 310.88108810881084,133.52355488768714 L 311.1311131113111,134.37643777909182 L 312.031203120312,134.75549684193834 L 313.48134813481346,134.85026160764997 L 315.981598159816,134.6133496933709 L 318.13181318131814,134.75549684193834 L 320.2320232023202,135.13455590478486 L 330.7330733073307,142.00500141887807 L 332.033203320332,142.62097239600365 L 337.7837783778378,144.0424438816781 L 338.98389838983894,144.5636500930921 L 340.03400340034,145.2270034530735 L 348.28482848284824,152.7134199442923 L 334.8334833483348,156.55139295561332 L 332.08320832083206,159.20480639553898 L 329.6329632963296,161.05271932691576 L 326.33263326332633,162.71110272686929 L 320.5320532053205,164.46425089253447 L 316.5816581658166,164.322103743967 L 313.6313631363136,164.5590156582461 L 311.38113811381135,164.36948612682284 L 306.5806580658066,163.70613276684142 L 301.030103010301,161.57392553832972 L 297.3797379737974,160.48413073264598 L 294.9294929492949,161.05271932691576 L 292.9292929292929,162.52157319544602 L 288.1788178817882,171.05040210949275 L 287.6287628762876,173.46690363513935 L 283.028302830283,177.77870047501852 L 281.87818781878184,177.9682300064418 L 279.4779477947795,177.35225902931617 L 276.027602760276,177.1153471150371 L 275.77757775777576,178.53681860071157 L 274.6274627462746,179.05802481212552 L 273.37733773377335,178.15775953786505 L 270.72707270727074,175.17266941794867 L 267.97679767976797,175.2200518008045 L 266.1266126612661,173.9881098465533 L 265.67656765676566,172.56663836087884 L 265.87658765876586,169.77107777238575 L 264.87648764876485,168.87081249812528 L 262.6262626262626,167.87578245815314 L 261.2761276127613,166.35954620676705 L 258.6258625862586,166.88075241818103 L 255.1255125512551,166.45431097247868 L 255.025502550255,170.0079896866648 L 254.42544254425442,172.0454321494649 L 251.77517751775176,174.03549222940913 L 250.9250925092509,176.87843520075802 L 246.3246324632463,176.40461137219987 L 245.47454745474545,175.78864039507428 L 243.17431743174316,173.51428601799515 L 239.02390239023902,173.08784457229282 L 236.77367736773675,171.57160832090673 L 229.57295729572957,169.20248917811597 L 220.02200220022002,169.86584253809738 L 217.3217321732173,169.77107777238575 L 215.57155715571557,170.05537206952064 L 213.17131713171315,172.14019691517652 L 209.3209320932093,168.3022239038555 L 209.7209720972097,166.59645812104614 L 213.021302130213,166.5016933553345 L 214.021402140214,166.21739905819962 L 214.57145714571456,165.74357522964146 L 215.42154215421542,162.0951317497437 L 217.1217121712171,157.07259916702728 L 213.8213821382138,151.67100752146436 L 211.87118711871187,150.10738888722247 L 209.57095709570956,150.2021536529341 L 204.87048704870486,148.92282931582707 L 203.57035703570355,148.78068216725964 L 202.77027702770275,146.03250396162235 L 201.72017201720172,143.52123767026416 L 202.12021202120212,141.10473614461756 L 201.57015701570157,140.29923563606872 L 201.32013201320132,138.1196460247012 L 200.07000700070006,137.1246159847291 L 200.0200020002,136.27173309332443 L 211.57115711571157,128.9748461335289 L 214.47144714471446,124.99472597364041 L 213.6213621362136,120.77769389947287 L 213.8213821382138,119.30884003094259 L 216.32163216321632,118.31380999097048 L 218.57185718571856,117.93475092812396 L 223.17231723172316,118.74025143667282 L 224.57245724572456,118.64548667096119 L 224.92249224922492,117.41354471670999 L 224.5224522452245,115.80254369961227 L 223.7223722372237,115.04442557391923 L 223.67236723672366,114.19154268251455 L 224.47244724472446,112.72268881398429 L 223.8223822382238,110.06927537405863 L 223.87238723872386,108.31612720839348 L 224.5224522452245,106.79989095700739 L 226.27262726272625,107.98445052840277 L 227.07270727072705,108.17398005982604 L 228.17281728172816,107.88968576269114 L 229.72297229722972,108.26874482553767 L 230.17301730173017,108.0792152941144 L 230.87308730873087,107.32109716842136 L 232.17321732173215,106.37344951130505 L 234.92349234923492,107.98445052840277 L 238.7238723872387,108.60042150552837 L 239.27392739273927,109.974510608347 L 241.87418741874185,114.52321936250526 L 245.3245324532453,117.22401518528673 L 246.97469746974696,117.69783901384488 L 247.8247824782478,117.36616233385418 L 249.17491749174917,114.61798412821689 L 250.1250125012501,110.2588049054819 L 251.7251725172517,107.08418525414228 L 251.6251625162516,103.95694798565849 L 251.47514751475146,103.72003607137941 z" /><path fill-rule="evenodd" fill="#D2EBD9" stroke="#A6A6A6" stroke-width="0.25" opacity="1" d="M 251.47514751475146,103.72003607137941 L 251.6251625162516,103.95694798565849 L 251.7251725172517,107.08418525414228 L 250.1250125012501,110.2588049054819 L 249.17491749174917,114.61798412821689 L 247.8247824782478,117.36616233385418 L 246.97469746974696,117.69783901384488 L 245.3245324532453,117.22401518528673 L 241.87418741874185,114.52321936250526 L 239.27392739273927,109.974510608347 L 238.7238723872387,108.60042150552837 L 234.92349234923492,107.98445052840277 L 232.17321732173215,106.37344951130505 L 230.87308730873087,107.32109716842136 L 230.17301730173017,108.0792152941144 L 229.72297229722972,108.26874482553767 L 228.17281728172816,107.88968576269114 L 227.07270727072705,108.17398005982604 L 226.27262726272625,107.98445052840277 L 224.5224522452245,106.79989095700739 L 223.87238723872386,108.31612720839348 L 223.8223822382238,110.06927537405863 L 224.47244724472446,112.72268881398429 L 223.67236723672366,114.19154268251455 L 223.7223722372237,115.04442557391923 L 224.5224522452245,115.80254369961227 L 224.92249224922492,117.41354471670999 L 224.57245724572456,118.64548667096119 L 223.17231723172316,118.74025143667282 L 218.57185718571856,117.93475092812396 L 216.32163216321632,118.31380999097048 L 213.8213821382138,119.30884003094259 L 213.6213621362136,120.77769389947287 L 214.47144714471446,124.99472597364041 L 211.57115711571157,128.9748461335289 L 200.0200020002,136.27173309332443 L 200.07000700070006,137.1246159847291 L 201.32013201320132,138.1196460247012 L 201.57015701570157,140.29923563606872 L 202.12021202120212,141.10473614461756 L 201.72017201720172,143.52123767026416 L 202.77027702770275,146.03250396162235 L 203.57035703570355,148.78068216725964 L 204.87048704870486,148.92282931582707 L 209.57095709570956,150.2021536529341 L 211.87118711871187,150.10738888722247 L 213.8213821382138,151.67100752146436 L 217.1217121712171,157.07259916702728 L 215.42154215421542,162.0951317497437 L 214.57145714571456,165.74357522964146 L 214.021402140214,166.21739905819962 L 213.021302130213,166.5016933553345 L 209.7209720972097,166.59645812104614 L 209.3209320932093,168.3022239038555 L 204.7204720472047,166.88075241818103 L 204.6204620462046,166.45431097247868 L 180.1180118011801,166.45431097247868 L 179.6179617961796,162.75848510972511 L 177.56775677567757,156.2197162756226 L 176.6176617661766,154.56133287566908 L 173.81738173817382,150.8655070129155 L 173.31733173317332,149.15974123010616 L 175.1175117511751,146.12726872733398 L 176.6176617661766,144.08982626453394 L 177.61776177617762,140.29923563606872 L 178.26782678267827,138.45132270469193 L 178.26782678267827,136.41388024189186 L 176.8176817681768,134.18690824766855 L 175.9175917591759,133.57093727054297 L 172.16721672167216,134.6607320762267 L 171.1171117111711,134.32905539623601 L 170.5170517051705,132.81281914484993 L 168.16681668166817,129.73296425922194 L 167.06670667066706,127.93243371070096 L 162.56625662566256,119.59313432807748 L 162.1162116211621,113.90724838537967 L 162.56625662566256,111.8224235397238 L 166.1166116611661,107.88968576269114 L 166.3166316631663,104.80983087706315 L 166.66666666666666,103.86218321994686 L 167.76677667766776,103.10406509425381 L 168.11681168116812,102.53547649998403 L 167.3167316731673,100.40326927147234 L 166.36663666366636,99.88206306005837 L 163.56635663566357,99.69253352863511 L 161.76617661766176,99.12394493436534 L 160.4160416041604,97.84462059725833 L 159.86598659865984,96.04409004873735 L 158.86588658865887,94.14879473450475 L 158.86588658865887,93.01161754596518 L 158.51585158515852,91.16370461458838 L 157.4157415741574,90.07390980890463 L 157.06570657065706,88.9841150032209 L 158.96589658965897,86.75714300899757 L 160.8160816081608,86.28331918043942 L 162.3162316231623,86.2359367975836 L 162.96629662966296,85.619965820458 L 163.06630663066306,83.81943527193704 L 162.7162716271627,81.87675757484861 L 163.11631163116311,81.16602183201138 L 164.01640164016402,81.11863944915557 L 165.3165316531653,81.73461042628117 L 170.86708670867085,82.54011093483003 L 174.3174317431743,81.2134042148672 L 175.06750675067505,78.93904983778808 L 175.6175617561756,78.55999077494155 L 177.017701770177,79.0338146034997 L 178.01780178017802,79.12857936921134 L 179.1179117911791,75.81181256930427 L 181.9181918191819,74.6272529979089 L 183.4183418341834,76.19087163215079 L 189.7189718971897,77.1385192892671 L 190.4190419041904,78.32307886066248 L 190.7190719071907,78.32307886066248 L 191.61916191619162,77.7544902663927 L 192.96929692969294,77.65972550068106 L 202.57025702570255,82.7770228491091 L 203.020302030203,82.58749331768584 L 204.020402040204,80.26575655775089 L 204.87048704870486,79.60240319776949 L 205.17051705170516,77.89663741496014 L 206.97069706970697,76.2382540150066 L 207.8207820782078,76.5225483121415 L 208.7208720872087,78.51260839208574 L 211.12111211121112,81.49769851200209 L 211.97119711971195,82.11366948912769 L 212.57125712571255,81.97152234056024 L 215.72157215721572,80.50266847202997 L 216.12161216121612,79.3181089006346 L 217.27172717271725,77.89663741496014 L 217.17171717171715,76.00134210072753 L 218.17181718171815,75.24322397503448 L 225.77257725772577,76.42778354642986 L 226.9226922692269,76.75946022642057 L 227.57275727572755,77.94401979781595 L 229.47294729472947,80.40790370631834 L 231.37313731373135,80.88172753487649 L 231.87318731873185,79.22334413492297 L 232.7232723272327,79.27072651777878 L 233.17331733173316,79.79193272919275 L 235.8235823582358,79.83931511204857 L 236.37363736373635,79.69716796348112 L 237.2237223722372,80.02884464347183 L 239.27392739273927,80.36052132346252 L 240.12401240124012,80.17099179203926 L 241.4241424142414,79.50763843205786 L 242.6242624262426,79.79193272919275 L 243.3243324332433,80.45528608917415 L 244.02440244024402,82.87178761482073 L 243.62436243624362,84.24587671763938 L 243.72437243724372,86.04640726616034 L 243.47434743474346,86.89929015756502 L 242.9242924292429,87.61002590040225 L 242.024202420242,88.3681440260953 L 240.8240824082408,90.68988078603023 L 239.77397739773977,91.77967559171398 L 239.77397739773977,92.1587346545605 L 240.52405240524052,93.72235328880241 L 241.024102410241,93.91188282022567 L 242.97429742974296,93.81711805451404 L 243.3243324332433,93.95926520308149 L 243.52435243524351,94.19617711736056 L 243.47434743474346,94.48047141449545 L 242.8242824282428,94.85953047734196 L 242.6242624262426,95.14382477447685 L 243.17431743174316,96.13885481444898 L 244.22442244224422,96.99173770585365 L 245.07450745074507,96.94435532299784 L 245.4245424542454,97.1338848544211 L 246.4246424642464,98.55535634009556 L 247.27472747274726,100.40326927147234 L 247.77477747774776,100.87709310003049 L 249.12491249124912,101.35091692858865 L 249.57495749574957,101.91950552285843 L 250.7250725072507,102.4407117342724 L 251.27512751275125,103.10406509425381 L 250.47504750475045,103.43574177424452 L 251.1251125112511,104.05171275137012 L 251.47514751475146,103.72003607137941 z" /><path fill-rule="evenodd" fill="#D2EBD9" stroke="#A6A6A6" stroke-width="0.25" opacity="1" d="M 236.37363736373635,79.69716796348112 L 235.8235823582358,79.83931511204857 L 233.17331733173316,79.79193272919275 L 232.7232723272327,79.27072651777878 L 231.87318731873185,79.22334413492297 L 231.37313731373135,80.88172753487649 L 229.47294729472947,80.40790370631834 L 227.57275727572755,77.94401979781595 L 226.9226922692269,76.75946022642057 L 225.77257725772577,76.42778354642986 L 218.17181718171815,75.24322397503448 L 217.17171717171715,76.00134210072753 L 217.27172717271725,77.89663741496014 L 216.12161216121612,79.3181089006346 L 215.72157215721572,80.50266847202997 L 212.57125712571255,81.97152234056024 L 211.97119711971195,82.11366948912769 L 211.12111211121112,81.49769851200209 L 208.7208720872087,78.51260839208574 L 207.8207820782078,76.5225483121415 L 206.97069706970697,76.2382540150066 L 205.17051705170516,77.89663741496014 L 204.87048704870486,79.60240319776949 L 204.020402040204,80.26575655775089 L 203.020302030203,82.58749331768584 L 202.57025702570255,82.7770228491091 L 192.96929692969294,77.65972550068106 L 191.61916191619162,77.7544902663927 L 190.7190719071907,78.32307886066248 L 190.4190419041904,78.32307886066248 L 189.7189718971897,77.1385192892671 L 183.4183418341834,76.19087163215079 L 181.9181918191819,74.6272529979089 L 182.96829682968297,73.01625198081118 L 183.01830183018302,71.78431002655998 L 183.4183418341834,70.69451522087623 L 183.4183418341834,69.84163232947157 L 184.5184518451845,70.03116186089483 L 186.1186118611861,68.79921990664363 L 186.7186718671867,67.4725131866808 L 187.71877187718772,66.99868935812265 L 190.4190419041904,67.14083650669009 L 191.3191319131913,66.71439506098775 L 191.46914691469146,64.0135992382063 L 190.36903690369036,61.2180386497132 L 189.26892689268925,61.31280341542483 L 187.16871687168717,60.69683243829923 L 186.26862686268626,60.74421482115505 L 185.4185418541854,60.31777337545271 L 185.56855685568556,58.13818376408521 L 185.16851685168515,57.85388946695032 L 183.7183718371837,59.227978569768965 L 182.16821682168217,59.79656716403874 L 180.66806680668066,59.70180239832711 L 179.3179317931793,58.28033091265266 L 179.3179317931793,56.81147704412239 L 179.7179717971797,54.48974028418745 L 177.81778177817782,52.64182735281065 L 176.3176317631763,48.187883364364026 L 175.6175617561756,46.67164711297794 L 174.7174717471747,46.57688234726631 L 173.36733673367337,47.19285332439191 L 173.56735673567357,48.99338387291289 L 173.06730673067307,49.56197246718267 L 170.4170417041704,49.609354850038486 L 166.5166516651665,51.457267781415275 L 164.31643164316432,52.02585637568506 L 163.41634163416342,53.16303356422462 L 162.66626662666266,53.44732786135951 L 161.1161116111611,53.16303356422462 L 161.06610661066105,56.053358918429346 L 160.46604660466045,56.764094661266576 L 159.06590659065907,56.38503559842005 L 158.16581658165816,56.764094661266576 L 157.1157115711571,57.806507084094505 L 157.1157115711571,59.51227286690385 L 158.06580658065806,61.691862478271354 L 158.015801580158,62.7816572839551 L 156.86568656865686,66.57224791242031 L 156.36563656365635,69.9363970951832 L 156.015601560156,70.83666236944367 L 154.31543154315432,70.22069139231809 L 153.1153115311531,68.23063131237384 L 151.8151815181518,67.33036603811335 L 150.76507650765075,66.90392459241102 L 150.3150315031503,65.29292357531331 L 149.86498649864987,64.48742306676445 L 144.96449644964497,62.023539158262054 L 143.014301430143,57.616977552671244 L 142.06420642064205,56.858859426978206 L 136.86368636863685,54.48974028418745 L 133.4133413341334,52.54706258709902 L 131.1131113111311,50.84129680428968 L 130.36303630363037,50.557002507154785 L 128.16281628162815,48.37741289578729 L 127.06270627062706,47.71405953580587 L 124.51245124512451,48.37741289578729 L 122.96229622962295,48.28264813007566 L 119.1119111911191,46.81379426154539 L 117.16171617161716,46.861176644401205 L 116.16161616161615,46.339970432987236 L 114.4114411441144,42.45461503881039 L 113.3113311331133,40.98576117028012 L 112.86128612861286,40.6067021074336 L 113.2113211321132,39.611672067461484 L 114.4114411441144,39.42214253603822 L 116.26162616261625,38.85355394176844 L 117.16171617161716,38.4271124960661 L 117.86178617861786,37.85852390179632 L 116.66166616661666,37.43208245609399 L 116.3116311631163,37.00564101039165 L 116.56165616561655,36.57919956468931 L 117.11171117111711,36.437052416121865 L 117.66176617661766,36.531817181833496 L 117.96179617961795,36.38967003326605 L 117.81178117811781,35.631551907573005 L 117.46174617461746,35.20511046187067 L 116.9116911691169,35.01558093044741 L 116.26162616261625,34.9681985475916 L 114.56145614561456,35.2998752275823 L 114.3114311431143,35.110345696159044 L 113.96139613961395,34.399609953321814 L 114.1114111411141,33.7362565933404 L 112.51125112511251,33.02552085050317 L 112.1112111211121,32.50431463908921 L 111.96119611961196,31.36713745054964 L 111.7111711171117,30.893313621991492 L 110.56105610561056,30.656401707712416 L 110.31103110311031,30.277342644865893 L 110.31103110311031,29.32969498774959 L 110.01100110011001,28.71372401062399 L 108.6108610861086,27.29225252494954 L 108.11081108110811,26.39198725068905 L 107.96079607960796,25.82339865641927 L 108.11081108110811,25.349574827861115 L 108.56085608560855,25.017898147870408 L 109.56095609560955,25.444339593572746 L 110.16101610161016,25.539104359284376 L 111.26112611261125,25.39695721071693 L 112.26122612261226,25.633869124996007 L 112.81128112811281,26.01292818784253 L 113.9113911391139,28.14513541635421 L 115.01150115011501,27.95560588493095 L 115.96159615961595,28.05037065064258 L 116.76167616761676,27.813458736363504 L 117.66176617661766,28.192517799210027 L 118.011801180118,28.192517799210027 L 118.7118711871187,27.86084111921932 L 119.3119311931193,27.244870142093724 L 119.81198119811981,26.534134399256494 L 119.96199619961996,25.82339865641927 L 120.01200120012001,22.64877900507965 L 119.96199619961996,22.08019041080987 L 119.56195619561956,21.5589841993959 L 118.9118911891189,19.853218416586557 L 118.86188618861885,19.189865056605143 L 119.66196619661966,18.90557075947025 L 119.81198119811981,18.33698216520047 L 120.26202620262026,12.224654776800314 L 122.26222622262226,8.718358445469992 L 122.8122812281228,8.4340641483351 L 123.5123512351235,8.4340641483351 L 125.1125112511251,8.860505594037436 L 125.4125412541254,8.386681765479285 L 125.7125712571257,6.7756807483815695 L 126.3126312631263,6.349239302679233 L 128.76287628762876,6.159709771255972 L 129.3129312931293,5.780650708409451 L 130.11301130113011,4.359179222734996 L 130.36303630363037,2.8903253542047254 L 129.5129512951295,0.6633533599814123 L 130.71307130713072,0.4738238285581517 L 131.9131913191319,0.9002652742604882 L 132.76327632763275,1.5636186342419005 L 133.56335633563356,1.658383399953531 L 134.1134113411341,1.9426776970884219 L 135.9135913591359,4.264414457023365 L 136.36363636363635,5.3068268798512985 L 135.96359635963594,5.828033091265266 L 136.56365636563655,5.970180239832711 L 137.2137213721372,6.396621685535048 L 137.56375637563755,6.870445514093199 L 137.2137213721372,7.3442693426513515 L 137.6137613761376,7.533798874074612 L 137.6137613761376,7.723328405497873 L 138.06380638063806,8.102387468344395 L 138.96389638963896,8.197152234056023 L 139.36393639363936,9.144799891172328 L 140.01400140014002,9.239564656883958 L 141.1141114111411,8.576211296902546 L 142.66426642664266,8.52882891404673 L 143.16431643164316,8.860505594037436 L 143.9143914391439,9.80815325115374 L 144.31443144314431,9.80815325115374 L 144.96449644964497,9.571241336874664 L 145.4145414541454,8.907887976893251 L 145.4145414541454,7.960240319776949 L 146.06460646064605,6.7756807483815695 L 146.06460646064605,5.970180239832711 L 146.7146714671467,6.017562622688526 L 147.56475647564756,6.349239302679233 L 148.2148214821482,6.301856919823417 L 148.4148414841484,5.828033091265266 L 148.2148214821482,4.596091137014072 L 148.26482648264826,3.837973011321029 L 148.5148514851485,3.4589139484745073 L 153.3153315331533,2.8903253542047254 L 156.3156315631563,2.0848248456558673 L 156.8156815681568,1.7531481656651613 L 157.76577657765776,0.4738238285581517 L 158.3158315831583,0.0 L 159.06590659065907,0.04738238285581517 L 159.76597659765974,0.284294297134891 L 160.36603660366035,0.7581181256930427 L 160.76607660766075,1.421471485674455 L 160.66606660666065,2.179589611367498 L 159.66596659665964,3.079854885627986 L 159.6159615961596,3.4589139484745073 L 160.3160316031603,5.922797856976896 L 160.7160716071607,6.301856919823417 L 161.36613661366135,6.396621685535048 L 163.66636663666367,6.254474536967602 L 165.46654665466545,7.107357428372276 L 166.1166116611661,7.15473981122809 L 166.76667666766676,6.96521027980483 L 167.91679167916791,6.301856919823417 L 168.61686168616862,6.207092154111788 L 169.3169316931693,6.444004068390863 L 169.56695669566955,6.823063131237385 L 169.7169716971697,7.960240319776949 L 170.2170217021702,9.002652742604882 L 170.01700170017,9.239564656883958 L 169.1169116911691,9.61862371973048 L 168.71687168716872,10.187212314000261 L 168.66686668666867,10.708418525414228 L 168.96689668966897,11.703448565386347 L 169.1169116911691,13.124920051060801 L 168.86688668866887,13.83565579389803 L 169.06690669066907,14.972832982437593 L 169.56695669566955,15.825715873842267 L 170.2170217021702,16.062627788121343 L 170.6170617061706,15.825715873842267 L 171.2171217121712,14.735921068158518 L 171.66716671667166,14.30947962245618 L 173.51735173517352,13.219684816772432 L 176.3176317631763,12.698478605358465 L 177.06770677067706,12.840625753925911 L 177.61776177617762,13.219684816772432 L 177.71777177717772,13.93042055960966 L 177.51775177517752,14.214714856744552 L 176.76767676767676,14.641156302446888 L 176.6176617661766,15.067597748149224 L 176.66766676667666,16.252157319544605 L 176.86768676867686,16.820745913814385 L 177.41774177417741,17.05765782809346 L 179.46794679467945,17.010275445237646 L 181.3181318131813,17.95792310235395 L 182.06820682068206,18.05268786806558 L 182.36823682368237,17.910540719498133 L 182.26822682268227,16.20477493668879 L 182.36823682368237,15.967863022409713 L 183.26832683268327,15.541421576707375 L 183.6183618361836,15.067597748149224 L 183.46834683468344,14.735921068158518 L 182.56825682568257,14.119950091032921 L 182.86828682868287,13.314449582484063 L 182.81828182818282,12.935390519637542 L 182.06820682068206,12.224654776800314 L 181.9181918191819,11.513919033963086 L 182.56825682568257,11.46653665110727 L 183.06830683068307,10.897948056837489 L 183.86838683868385,10.945330439693304 L 184.06840684068405,10.803183291125858 L 184.2184218421842,10.518888993990968 L 183.76837683768375,9.523858954018849 L 183.86838683868385,9.192182274028143 L 184.36843684368435,8.623593679758361 L 183.8183818381838,7.107357428372276 L 184.26842684268425,6.728298365525754 L 183.5183518351835,5.922797856976896 L 183.66836683668365,5.401591645562929 L 183.31833183318332,5.1646797312838535 L 182.91829182918292,5.401591645562929 L 182.51825182518252,5.022532582716408 L 182.56825682568257,3.4589139484745073 L 183.01830183018302,3.553678714186138 L 184.3184318431843,2.3217367599349434 L 186.6186618661866,1.5162362513860854 L 189.3189318931893,1.5162362513860854 L 189.9189918991899,2.0848248456558673 L 190.26902690269026,2.7007958227814646 L 190.56905690569056,4.122267308455919 L 190.96909690969096,4.40656160559081 L 192.36923692369237,3.8853553941768437 L 192.71927192719272,4.169649691311735 L 192.56925692569257,5.828033091265266 L 192.71927192719272,6.396621685535048 L 193.06930693069305,6.917827896949015 L 195.7195719571957,8.4340641483351 L 199.6199619961996,9.286947039739774 L 201.27012701270127,9.429094188307218 L 202.12021202120212,9.666006102586294 L 202.8202820282028,9.523858954018849 L 204.27042704270426,8.81312321118162 L 204.47044704470446,9.239564656883958 L 204.7204720472047,10.803183291125858 L 205.5205520552055,12.177272393944499 L 205.92059205920592,13.788273411042214 L 205.6205620562056,14.30947962245618 L 205.67056705670566,14.783303451014334 L 206.17061706170617,15.541421576707375 L 205.72057205720571,15.730951108130636 L 205.5205520552055,16.489069233823678 L 205.77057705770576,18.4317469309121 L 206.17061706170617,19.095100290893512 L 206.62066206620662,19.379394588028404 L 206.62066206620662,19.947983182298188 L 207.07070707070707,21.701131347963347 L 206.57065706570657,22.74354377079128 L 206.02060206020602,24.923133382158777 L 205.6205620562056,25.776016273563453 L 204.9204920492049,25.586486742140192 L 205.1205120512051,26.39198725068905 L 204.77047704770476,28.287282564921657 L 204.87048704870486,28.761106393479807 L 205.27052705270526,29.0454006906147 L 208.8208820882088,29.566606902028667 L 210.07100710071006,30.277342644865893 L 210.37103710371036,30.70378409056823 L 210.82108210821082,32.646461787656655 L 212.17121712171215,34.25746280475437 L 212.021202120212,38.00067105036376 L 212.1212121212121,38.56925964463355 L 213.5213521352135,39.56428968460567 L 213.3213321332133,40.654084490289414 L 213.3213321332133,43.21273316450343 L 213.021302130213,44.302527970187185 L 211.97119711971195,45.155410861591854 L 211.02110211021102,45.250175627303484 L 210.82108210821082,45.58185230729419 L 210.82108210821082,45.960911370140714 L 211.37113711371137,46.90855902725702 L 211.62116211621162,48.14050098150821 L 211.67116711671167,49.37244293575941 L 211.42114211421142,49.988413912885 L 211.07110711071107,50.41485535858734 L 210.57105710571057,50.69914965572223 L 209.4209420942094,51.07820871856875 L 208.9208920892089,50.98344395285712 L 207.8207820782078,51.59941492998272 L 207.6207620762076,52.12062114139669 L 208.2208220822082,52.26276828996413 L 208.9208920892089,51.88370922711761 L 209.4209420942094,52.21538590710831 L 210.47104710471046,52.404915438531575 L 210.82108210821082,52.689209735666466 L 211.57115711571157,52.35753305567576 L 211.77117711771177,52.404915438531575 L 215.021502150215,55.674299855582824 L 215.97159715971597,55.958594152717716 L 217.4217421742174,56.81147704412239 L 219.97199719971997,56.81147704412239 L 221.5221522152215,57.56959516981543 L 223.47234723472346,57.38006563839217 L 224.77247724772477,57.85388946695032 L 225.37253725372537,57.806507084094505 L 225.97259725972597,57.33268325553635 L 227.37273727372735,57.616977552671244 L 227.8227822782278,57.901271849806136 L 228.77287728772876,59.27536095262478 L 230.02300230023002,59.27536095262478 L 230.62306230623062,59.559655249759665 L 230.82308230823082,60.459920524020156 L 231.17311731173115,61.075891501145755 L 232.2232223222322,61.691862478271354 L 233.17331733173316,61.73924486112717 L 233.4233423342334,62.07092154111787 L 232.67326732673266,63.53977540964814 L 235.37353735373537,65.76674740387145 L 235.62356235623562,67.37774842096917 L 236.4236423642364,67.61466033524825 L 237.2237223722372,66.80915982669939 L 238.1238123812381,66.95130697526683 L 237.8237823782378,68.27801369522966 L 236.7236723672367,70.9314271351553 L 236.97369736973695,71.68954526084835 L 238.07380738073806,72.87410483224373 L 238.7238723872387,73.86913487221585 L 238.27382738273826,74.48510584934145 L 237.6237623762376,75.95395971787171 L 235.8235823582358,77.4701959692578 L 235.52355235523552,77.99140218067177 L 235.72357235723572,79.60240319776949 L 236.37363736373635,79.69716796348112 z" /><path fill-rule="evenodd" fill="#D2EBD9" stroke="#A6A6A6" stroke-width="0.25" opacity="1" d="M 98.05980598059806,69.98377947803901 L 99.1099109910991,69.46257326662504 L 99.65996599659965,68.84660228949944 L 99.95999599959995,68.18324892951803 L 100.0100010001,67.4725131866808 L 99.05990599059905,65.52983548959237 L 99.009900990099,64.72433498104353 L 99.45994599459945,63.58715779250396 L 99.7099709970997,63.25548111251325 L 100.66006600660066,63.49239302679233 L 101.11011101110111,63.25548111251325 L 101.76017601760175,62.023539158262054 L 101.7101710171017,61.31280341542483 L 101.26012601260125,60.08086146117363 L 101.16011601160116,59.417508101192226 L 101.26012601260125,58.84891950692244 L 101.8101810181018,58.37509567836429 L 103.8103810381038,58.327713295508474 L 104.36043604360435,57.806507084094505 L 104.5104510451045,57.28530087268054 L 104.5104510451045,56.053358918429346 L 105.06050605060506,55.10571126131304 L 103.56035603560356,46.861176644401205 L 104.1104110411041,46.861176644401205 L 105.66056605660566,46.150440901563975 L 107.2107210721072,46.57688234726631 L 107.61076107610761,46.29258805013142 L 108.4108410841084,43.497027461638325 L 109.3109310931093,41.838644061684796 L 110.96109610961095,41.08052593599175 L 111.8111811181118,41.033143553135936 L 112.56125612561256,41.649114530261535 L 112.86128612861286,40.6067021074336 L 113.3113311331133,40.98576117028012 L 114.4114411441144,42.45461503881039 L 116.16161616161615,46.339970432987236 L 117.16171617161716,46.861176644401205 L 119.1119111911191,46.81379426154539 L 122.96229622962295,48.28264813007566 L 124.51245124512451,48.37741289578729 L 127.06270627062706,47.71405953580587 L 128.16281628162815,48.37741289578729 L 130.36303630363037,50.557002507154785 L 131.1131113111311,50.84129680428968 L 133.4133413341334,52.54706258709902 L 136.86368636863685,54.48974028418745 L 142.06420642064205,56.858859426978206 L 143.014301430143,57.616977552671244 L 144.96449644964497,62.023539158262054 L 149.86498649864987,64.48742306676445 L 150.3150315031503,65.29292357531331 L 150.76507650765075,66.90392459241102 L 151.8151815181518,67.33036603811335 L 153.1153115311531,68.23063131237384 L 154.31543154315432,70.22069139231809 L 156.015601560156,70.83666236944367 L 156.36563656365635,69.9363970951832 L 156.86568656865686,66.57224791242031 L 158.015801580158,62.7816572839551 L 158.06580658065806,61.691862478271354 L 157.1157115711571,59.51227286690385 L 157.1157115711571,57.806507084094505 L 158.16581658165816,56.764094661266576 L 159.06590659065907,56.38503559842005 L 160.46604660466045,56.764094661266576 L 161.06610661066105,56.053358918429346 L 161.1161116111611,53.16303356422462 L 162.66626662666266,53.44732786135951 L 163.41634163416342,53.16303356422462 L 164.31643164316432,52.02585637568506 L 166.5166516651665,51.457267781415275 L 170.4170417041704,49.609354850038486 L 173.06730673067307,49.56197246718267 L 173.56735673567357,48.99338387291289 L 173.36733673367337,47.19285332439191 L 174.7174717471747,46.57688234726631 L 175.6175617561756,46.67164711297794 L 176.3176317631763,48.187883364364026 L 177.81778177817782,52.64182735281065 L 179.7179717971797,54.48974028418745 L 179.3179317931793,56.81147704412239 L 179.3179317931793,58.28033091265266 L 180.66806680668066,59.70180239832711 L 182.16821682168217,59.79656716403874 L 183.7183718371837,59.227978569768965 L 185.16851685168515,57.85388946695032 L 185.56855685568556,58.13818376408521 L 185.4185418541854,60.31777337545271 L 186.26862686268626,60.74421482115505 L 187.16871687168717,60.69683243829923 L 189.26892689268925,61.31280341542483 L 190.36903690369036,61.2180386497132 L 191.46914691469146,64.0135992382063 L 191.3191319131913,66.71439506098775 L 190.4190419041904,67.14083650669009 L 187.71877187718772,66.99868935812265 L 186.7186718671867,67.4725131866808 L 186.1186118611861,68.79921990664363 L 184.5184518451845,70.03116186089483 L 183.4183418341834,69.84163232947157 L 183.4183418341834,70.69451522087623 L 183.01830183018302,71.78431002655998 L 182.96829682968297,73.01625198081118 L 181.9181918191819,74.6272529979089 L 179.1179117911791,75.81181256930427 L 178.01780178017802,79.12857936921134 L 177.017701770177,79.0338146034997 L 175.6175617561756,78.55999077494155 L 175.06750675067505,78.93904983778808 L 174.3174317431743,81.2134042148672 L 170.86708670867085,82.54011093483003 L 165.3165316531653,81.73461042628117 L 164.01640164016402,81.11863944915557 L 163.11631163116311,81.16602183201138 L 162.7162716271627,81.87675757484861 L 163.06630663066306,83.81943527193704 L 162.96629662966296,85.619965820458 L 162.3162316231623,86.2359367975836 L 160.8160816081608,86.28331918043942 L 158.96589658965897,86.75714300899757 L 157.06570657065706,88.9841150032209 L 157.4157415741574,90.07390980890463 L 158.51585158515852,91.16370461458838 L 158.86588658865887,93.01161754596518 L 158.86588658865887,94.14879473450475 L 159.86598659865984,96.04409004873735 L 160.4160416041604,97.84462059725833 L 161.76617661766176,99.12394493436534 L 163.56635663566357,99.69253352863511 L 166.36663666366636,99.88206306005837 L 167.3167316731673,100.40326927147234 L 168.11681168116812,102.53547649998403 L 167.76677667766776,103.10406509425381 L 166.66666666666666,103.86218321994686 L 166.3166316631663,104.80983087706315 L 166.1166116611661,107.88968576269114 L 162.56625662566256,111.8224235397238 L 162.1162116211621,113.90724838537967 L 162.56625662566256,119.59313432807748 L 167.06670667066706,127.93243371070096 L 168.16681668166817,129.73296425922194 L 170.5170517051705,132.81281914484993 L 171.1171117111711,134.32905539623601 L 172.16721672167216,134.6607320762267 L 175.9175917591759,133.57093727054297 L 176.8176817681768,134.18690824766855 L 178.26782678267827,136.41388024189186 L 178.26782678267827,138.45132270469193 L 177.61776177617762,140.29923563606872 L 176.6176617661766,144.08982626453394 L 175.1175117511751,146.12726872733398 L 173.31733173317332,149.15974123010616 L 173.81738173817382,150.8655070129155 L 176.6176617661766,154.56133287566908 L 177.56775677567757,156.2197162756226 L 179.6179617961796,162.75848510972511 L 180.1180118011801,166.45431097247868 L 94.6094609460946,166.5016933553345 L 95.2095209520952,165.8383399953531 L 98.35983598359836,163.3270737039949 L 99.2099209920992,162.47419081259022 L 103.51035103510351,160.15245405265526 L 104.86048604860486,158.6362178012692 L 105.1105110511051,157.87809967557615 L 105.36053605360536,155.41421576707376 L 106.76067606760675,151.765772287176 L 108.7108710871087,150.39168318435736 L 111.9111911191119,150.2021536529341 L 113.86138613861385,149.77571220723175 L 114.3114311431143,149.11235884725033 L 114.81148114811481,147.02753400159446 L 114.5114511451145,142.57359001314785 L 115.16151615161516,141.48379520746408 L 120.11201120112011,137.78796934471052 L 122.01220122012201,135.8926740304779 L 124.26242624262426,135.37146781906395 L 124.66246624662466,134.8976439905058 L 124.36243624362436,133.19187820769645 L 125.2125212521252,130.2541704706359 L 124.31243124312431,129.6381994935103 L 120.96209620962095,129.16437566495216 L 119.36193619361936,129.49605234494285 L 115.8115811581158,128.92746375067307 L 114.91149114911491,129.0222285163847 L 114.1114111411141,129.82772902493357 L 113.16131613161315,131.5334948077429 L 112.56125612561256,132.1968481677243 L 111.9111911191119,132.52852484771503 L 111.2111211121112,132.38637769914757 L 110.51105110511051,130.8701414477615 L 109.5109510951095,129.44866996208705 L 108.31083108310831,129.11699328209633 L 107.36073607360736,128.64316945353818 L 104.7104710471047,128.64316945353818 L 106.06060606060605,125.2790202707753 L 106.26062606260625,123.95231355081248 L 106.06060606060605,123.052048276552 L 105.61056105610561,123.00466589369618 L 105.06050605060506,123.19419542511945 L 104.4104410441044,122.95728351084037 L 104.26042604260425,122.53084206513803 L 104.4104410441044,121.44104725945428 L 103.76037603760375,119.78266385950074 L 103.31033103310331,119.30884003094259 L 103.36033603360336,118.88239858524025 L 103.56035603560356,118.64548667096119 L 104.5104510451045,117.83998616241233 L 105.36053605360536,117.50830948242162 L 105.91059105910591,116.65542659101695 L 106.16061606160615,116.70280897387276 L 106.46064606460645,117.03448565386347 L 107.3107310731073,115.42348463676575 L 107.91079107910791,114.9496608082076 L 110.51105110511051,114.57060174536107 L 111.26112611261125,114.61798412821689 L 111.66116611661165,115.37610225390993 L 111.2111211121112,115.47086701962156 L 111.76117611761175,116.89233850529602 L 111.86118611861185,117.65045663098907 L 112.06120612061206,117.93475092812396 L 112.66126612661266,118.12428045954722 L 113.7113711371137,118.17166284240304 L 114.5114511451145,117.83998616241233 L 115.11151115111511,117.22401518528673 L 115.5115511551155,116.22898514531461 L 115.36153615361536,114.09677791680292 L 114.36143614361436,113.00698311111918 L 113.66136613661365,111.68027639115635 L 112.51125112511251,110.40095205404934 L 112.41124112411241,109.73759869406793 L 112.86128612861286,106.1839199798818 L 113.6113611361136,105.47318423704456 L 114.16141614161415,104.2886246656492 L 115.06150615061506,103.43574177424452 L 115.36153615361536,102.86715317997474 L 115.56155615561555,102.29856458570495 L 115.56155615561555,101.06662263145375 L 115.21152115211521,100.64018118575142 L 114.46144614461446,100.21373974004908 L 114.26142614261425,99.88206306005837 L 113.26132613261325,96.56529626015131 L 112.36123612361236,95.23858954018849 L 112.1112111211121,92.63255848311866 L 111.66116611661165,91.5427636774349 L 111.9111911191119,88.699820706086 L 111.66116611661165,87.79955543182551 L 110.01100110011001,84.90923007762078 L 110.01100110011001,84.10372956907193 L 111.1111111111111,82.49272855197421 L 108.56085608560855,81.11863944915557 L 108.06080608060806,80.69219800345323 L 107.3107310731073,79.60240319776949 L 106.1106110611061,78.84428507207645 L 103.36033603360336,78.18093171209503 L 102.2102210221022,77.61234311782525 L 101.21012101210121,75.622283037881 L 98.80988098809881,73.63222295793678 L 97.55975597559755,71.31048619800183 L 98.60986098609861,70.5997504551646 L 98.05980598059806,69.98377947803901 z M 129.16291629162916,79.27072651777878 L 129.96299629962996,79.08119698635552 L 130.61306130613062,78.702137923509 L 131.06310631063104,77.94401979781595 L 131.2131213121312,77.1385192892671 L 131.26312631263124,75.2906063578903 L 130.91309130913092,74.57987061505308 L 129.86298629862986,74.24819393506237 L 128.3128312831283,74.72201776362053 L 128.06280628062805,75.10107682646705 L 127.56275627562755,75.38537112360193 L 127.26272627262726,76.19087163215079 L 127.11271127112711,77.37543120354617 L 127.26272627262726,78.22831409495085 L 127.66276627662765,78.84428507207645 L 128.36283628362835,79.17596175206715 L 129.16291629162916,79.27072651777878 z" /><path fill-rule="evenodd" fill="#D2EBD9" stroke="#A6A6A6" stroke-width="0.25" opacity="1" d="M 371.7371737173717,369.8668805724932 L 364.93649364936493,347.17071918455775 L 345.43454345434543,330.4921204193108 L 331.6331633163316,318.97820138534775 L 309.7309730973097,307.13260567139395 L 328.63286328632864,290.88044835184934 L 342.4342434243424,279.7929707635886 L 344.8344834483448,276.2866744322583 L 373.63736373637363,268.3738164953371 L 382.6382638263826,256.9546622270857 L 388.9388938893889,250.03683433013666 L 408.1408140814081,233.92682415915948 L 426.1426142614261,238.0490914676154 L 431.54315431543154,244.96691936456443 L 499.8999899989999,244.96691936456443 L 499.7999799979998,282.3042370549468 L 473.4473447344734,276.99741017509547 L 472.19721972197215,276.99741017509547 L 471.1971197119712,277.56599876936525 L 469.3969396939694,279.36652931788626 L 467.3467346734673,280.31417697500257 L 466.7466746674667,280.7880008035607 L 465.69656965696566,282.0673251406677 L 465.6465646564656,282.6359137349375 L 466.79667966796677,284.8628857291608 L 467.8467846784678,285.8105333862771 L 468.14681468146813,287.56368155194224 L 468.3968396839684,288.1796525290679 L 470.14701470147014,289.45897686617485 L 470.44704470447044,290.1697126090121 L 470.3970397039704,290.88044835184934 L 469.64696469646964,291.87547839182145 L 469.3969396939694,292.49144936894703 L 469.5969596959696,293.6286265574866 L 468.996899689969,294.33936230032384 L 468.5968596859686,295.5239218717192 L 468.54685468546853,296.7558638259704 L 469.14691469146914,303.24725027721706 L 468.996899689969,303.67369172291944 L 468.5968596859686,304.10013316862177 L 466.49664966496647,304.8582512943148 L 464.7464746474647,306.27972277998924 L 460.8960896089609,307.9854885627986 L 452.59525952595254,309.73863672846375 L 450.94509450945094,309.8334014941754 L 447.2447244724472,310.4967548541568 L 446.19461946194616,311.1127258312824 L 444.39443944394435,311.68131442555216 L 441.84418441844184,315.66143458544065 L 440.74407440744073,316.8933765396919 L 438.3438343834383,318.6939070882128 L 437.79377937793777,318.8360542367803 L 437.1437143714371,318.7412894710686 L 435.19351935193515,317.08290607111513 L 434.39343934393435,316.7512293911244 L 432.04320432043204,317.46196513396166 L 431.24312431243123,318.03055372823144 L 430.8930893089309,318.07793611108724 L 430.4930493049305,317.9831713453756 L 429.6429642964296,317.3198179853942 L 428.9428942894289,317.36720036825 L 428.3428342834283,319.02558376820355 L 427.8427842784278,319.40464283105007 L 426.1426142614261,319.40464283105007 L 425.5425542554255,319.68893712818493 L 421.94219421942194,322.7214096309571 L 421.64216421642163,323.1952334595153 L 421.64216421642163,325.61173498516183 L 421.44214421442143,326.7489121737014 L 420.84208420842083,327.6965598308177 L 418.89188918891887,329.165413699348 L 417.7417741774177,329.8287670593294 L 416.59165916591655,329.97091420789684 L 416.041604160416,330.34997327074336 L 412.991299129913,331.1080913964364 L 412.44124412441244,331.48715045928293 L 411.34113411341133,333.2402986249481 L 410.9410941094109,333.5719753049388 L 409.59095909590957,333.76150483636206 L 407.7407740774077,333.47721053922714 L 406.6406640664066,333.76150483636206 L 406.39063906390635,334.1405638992086 L 406.3406340634063,335.6094177677388 L 407.040704070407,338.5471255047994 L 407.39073907390735,342.0534218361297 L 407.3407340734073,342.76415757896694 L 406.79067906790675,344.8489824246228 L 406.39063906390635,345.5123357846042 L 371.7371737173717,369.8668805724932 z" /><path fill-rule="evenodd" fill="#D2EBD9" stroke="#A6A6A6" stroke-width="0.25" opacity="1" d="M 129.16291629162916,79.27072651777878 L 128.36283628362835,79.17596175206715 L 127.66276627662765,78.84428507207645 L 127.26272627262726,78.22831409495085 L 127.11271127112711,77.37543120354617 L 127.26272627262726,76.19087163215079 L 127.56275627562755,75.38537112360193 L 128.06280628062805,75.10107682646705 L 128.3128312831283,74.72201776362053 L 129.86298629862986,74.24819393506237 L 130.91309130913092,74.57987061505308 L 131.26312631263124,75.2906063578903 L 131.2131213121312,77.1385192892671 L 131.06310631063104,77.94401979781595 L 130.61306130613062,78.702137923509 L 129.96299629962996,79.08119698635552 L 129.16291629162916,79.27072651777878 z" /></g></g></g></svg>