<svg xmlns="http://www.w3.org/2000/svg" xmlns:xlink="http://www.w3.org/1999/xlink" width="271.36829787679017" height="500.0" viewBox="0.0 0.0 271.36829787679017 500.0" preserveAspectRatio="xMinYMin meet"><g transform="matrix(1,0,0,-1,0,500.0)"><g><g><path fill-rule="evenodd" fill="#D2EBD9" stroke="#A6A6A6" stroke-width="0.25" opacity="1" d="M 155.44080562284216,249.7724181325175 L 198.87279678648338,239.89944177260622 L 217.48650327231735,239.89944177260622 L 217.48650327231735,219.80137780401856 L 208.34292977536097,205.87416211003438 L 192.6682266201824,195.82560813147575 L 174.05451612127945,195.82560813147575 L 161.9719312689267,156.6907144933939 L 191.6885561682284,145.93787403218448 L 211.28193711861968,138.3581134355627 L 233.16120642749593,148.40572066465393 L 233.16120642749593,141.7072974597104 L 220.75207010796294,128.48694502701983 L 240.34544704575092,114.9143399936147 L 265.16372771095484,115.09060948202386 L 268.10273505421355,104.69102201564237 L 271.36829787679017,94.64413886424154 L 271.36829787679017,84.42115606507286 L 265.16372771095484,81.07228640466928 L 255.6935947216116,77.72343944618478 L 231.2018695366569,92.17650530626997 L 233.16120642749593,67.32448858069256 L 217.48650327231735,60.62695518415421 L 205.07736695278436,63.97571269934997 L 188.0964378649369,77.89969386300072 L 187.76988238561898,51.99077124381438 L 181.89186769910157,31.37017267709598 L 186.4636564538814,10.045330421533436 L 174.05451612127945,6.696868595201522 L 150.54246138827875,25.025511849671602 L 129.96941399853677,10.045330421533436 L 127.0304066548124,3.348425121512264 L 117.56027366546914,0.0 L 108.09014067659155,0.0 L 95.68100034398958,10.045330421533436 L 85.23119690315798,34.1900440515019 L 101.88557051029056,38.41987119382247 L 90.12954113725573,153.16517200460657 L 57.14735341537744,188.06894560530782 L 49.636557317338884,204.28753708628938 L 49.636557317338884,204.6401234380901 L 58.45357934664935,241.83876301907003 L 86.53742283489555,246.77524691494182 L 92.74199300119653,253.12221415247768 L 132.58186184894294,261.9375536800362 L 155.44080562284216,249.7724181325175 z" /><path fill-rule="evenodd" fill="#D2EBD9" stroke="#A6A6A6" stroke-width="0.25" opacity="1" d="M 66.61748640425503,483.9499018858187 L 76.41417487291619,500.0 L 98.94656316703185,486.59549119509757 L 98.94656316703185,479.8933476107195 L 123.76484383223578,470.01663861982524 L 136.1739841643721,459.7873600530438 L 143.35822077002376,442.68015809031203 L 148.25656500458717,425.39708222914487 L 127.0304066548124,429.10055653192103 L 114.62126632267609,418.8719660071656 L 117.56027366546914,408.8198975753039 L 123.76484383223578,405.4692449993454 L 149.56279093632475,420.6355036799796 L 136.1739841643721,395.41739796614274 L 136.1739841643721,392.06681918306276 L 129.96941399853677,398.7679951954633 L 123.76484383223578,392.06681918306276 L 127.0304066548124,384.83668708009645 L 127.0304066548124,364.7338405130431 L 114.62126632267609,358.2093746587634 L 92.74199300119653,341.4576891316101 L 80.33285266812891,334.7571439645253 L 64.65814951295033,334.7571439645253 L 52.24900918034837,317.65345597919077 L 36.247750544920564,317.65345597919077 L 19.59337693778798,296.142285421025 L 0.0,339.3417206746526 L 1.306225931737572,344.4553262279369 L 9.143577509559691,368.78962269378826 L 22.205828801728785,382.36788274068385 L 42.12576523143798,416.57937597483397 L 61.71914217015728,442.68015809031203 L 55.51457200339064,456.61279074521735 L 48.983446357771754,456.61279074521735 L 52.24900918034837,449.73461553128436 L 30.043180379085243,442.68015809031203 L 17.960595526266843,464.3728787894361 L 36.247750544920564,470.01663861982524 L 36.247750544920564,473.36764674959704 L 61.71914217015728,473.36764674959704 L 66.61748640425503,483.9499018858187 z" /></g></g></g></svg>