<svg xmlns="http://www.w3.org/2000/svg" xmlns:xlink="http://www.w3.org/1999/xlink" width="500.0" height="441.7739356383681" viewBox="0.0 0.0 500.0 441.7739356383681" preserveAspectRatio="xMinYMin meet"><g transform="matrix(1,0,0,-1,0,441.7739356383681)"><g><g><path fill-rule="evenodd" fill="#D2EBD9" stroke="#A6A6A6" stroke-width="0.25" opacity="1" d="M 444.89448944894485,155.69670458941985 L 437.8437843784378,149.6437963803533 L 444.79447944794475,143.50252454779672 L 450.2950295029503,141.11670671356612 L 450.74507450745074,129.23179935415808 L 455.7455745574557,131.13161725919358 L 464.6464646464646,131.13161725919358 L 466.19661966196617,136.3450710451049 L 475.047504750475,142.83979737162156 L 444.89448944894485,155.69670458941985 z" /><path fill-rule="evenodd" fill="#D2EBD9" stroke="#A6A6A6" stroke-width="0.25" opacity="1" d="M 430.5930593059306,160.203249387411 L 421.84218421842183,156.84543169479016 L 414.49144914491444,151.1017961679387 L 426.4426442644264,141.11670671356612 L 432.4932493249325,144.60706984142203 L 437.8437843784378,149.6437963803533 L 444.89448944894485,155.69670458941985 L 437.6437643764376,158.83361322331567 L 430.5930593059306,160.203249387411 z" /><path fill-rule="evenodd" fill="#D2EBD9" stroke="#A6A6A6" stroke-width="0.25" opacity="1" d="M 425.99259925992595,198.46469835859082 L 407.6407640764076,182.69179156562177 L 403.1903190319032,169.5256116656084 L 408.99089908990896,164.97488505587222 L 422.1922192219222,162.1030672924465 L 421.84218421842183,156.84543169479016 L 430.5930593059306,160.203249387411 L 430.74307430743073,176.32961067434013 L 429.2429242924292,192.36760833777925 L 425.99259925992595,198.46469835859082 z" /><path fill-rule="evenodd" fill="#D2EBD9" stroke="#A6A6A6" stroke-width="0.25" opacity="1" d="M 414.34143414341435,207.7870606367882 L 401.3901390139014,197.3159712532205 L 392.1392139213921,195.41615334818502 L 391.7391739173917,191.13051760891892 L 394.03940394039404,188.2586998454932 L 393.6893689368937,182.55924613038673 L 389.038903890389,178.71542850857077 L 389.78897889788976,173.3694292874244 L 393.6893689368937,170.7185205827237 L 397.5397539753975,166.4328848434576 L 403.1903190319032,169.5256116656084 L 407.6407640764076,182.69179156562177 L 425.99259925992595,198.46469835859082 L 422.64226422642264,204.82687924987243 L 414.34143414341435,207.7870606367882 z" /><path fill-rule="evenodd" fill="#D2EBD9" stroke="#A6A6A6" stroke-width="0.25" opacity="1" d="M 366.6866686668667,233.81014775459985 L 364.33643364336433,216.3583321153204 L 363.5863586358636,205.8872427317527 L 369.7369736973697,203.01542496832698 L 374.3874387438744,198.72978922906088 L 375.93759375937594,191.57233572636903 L 380.9380938093809,190.1585177505287 L 391.7391739173917,191.13051760891892 L 392.1392139213921,195.41615334818502 L 401.3901390139014,197.3159712532205 L 414.34143414341435,207.7870606367882 L 384.6884688468847,218.3906954555909 L 366.6866686668667,233.81014775459985 z" /><path fill-rule="evenodd" fill="#D2EBD9" stroke="#A6A6A6" stroke-width="0.25" opacity="1" d="M 331.9331933193319,259.6123258136865 L 321.9321932193219,241.14432850427173 L 313.8313831383138,227.80142135727831 L 309.5809580958096,220.15796792539138 L 308.43084308430844,213.48651435189464 L 311.1311131113111,207.30106070759308 L 311.1311131113111,202.52942503913184 L 309.1809180918092,200.14360720490123 L 311.1311131113111,197.3159712532205 L 315.7315731573157,191.57233572636903 L 321.1321132113211,190.6445176797238 L 323.8323832383238,186.3588819404577 L 325.032503250325,182.0732462011916 L 325.7825782578258,177.3016105327304 L 326.1826182618262,172.52997486426918 L 327.73277327732774,168.24433912500308 L 335.033503350335,164.4447033149321 L 342.7342734273427,165.85852129077247 L 347.3847384738474,168.24433912500308 L 345.0845084508451,173.94379284010952 L 348.9348934893489,179.687428366961 L 343.9343934393439,184.90088215287233 L 343.5343534353435,191.13051760891892 L 345.0845084508451,200.14360720490123 L 348.1348134813481,203.01542496832698 L 353.9353935393539,205.4012428025576 L 363.5863586358636,205.8872427317527 L 364.33643364336433,216.3583321153204 L 366.6866686668667,233.81014775459985 L 340.88408840884085,256.03359906234056 L 331.9331933193319,259.6123258136865 z" /><path fill-rule="evenodd" fill="#D2EBD9" stroke="#A6A6A6" stroke-width="0.25" opacity="1" d="M 289.6789678967897,268.0952336687286 L 281.8281828182818,247.81578207776843 L 268.7268726872687,243.97196445595245 L 260.22602260226023,238.272510740846 L 249.82498249824982,234.91469304822513 L 245.9245924592459,232.0870570965444 L 245.17451745174517,224.9296035938526 L 247.87478747874786,217.28615016196562 L 255.2255225522552,215.38633225693013 L 257.5257525752575,212.5586963052494 L 255.57555755575555,207.7870606367882 L 252.1252125212521,204.42924294416733 L 252.5252525252525,199.70178908745112 L 256.7256725672567,198.72978922906088 L 266.37663766376636,197.75778937067062 L 269.4769476947695,193.47215363140452 L 271.02710271027104,184.90088215287233 L 271.77717771777174,178.71542850857077 L 276.4276427642764,174.91579269849979 L 282.17821782178214,172.52997486426918 L 286.4286428642864,172.04397493507403 L 289.52895289528954,174.91579269849979 L 294.5294529452945,177.7876104619255 L 297.2297229722972,180.17342829615612 L 296.07960796079607,183.48706417703198 L 291.47914791479144,185.38688208206747 L 286.8286828682868,188.2586998454932 L 285.27852785278526,193.0303355139544 L 281.4281428142814,194.4441534897948 L 276.4276427642764,193.95815356059967 L 274.87748774877485,195.85797146563513 L 277.57775777577757,198.24378929986574 L 287.978797879788,200.14360720490123 L 294.9294929492949,198.72978922906088 L 303.4303430343034,192.05833565556418 L 304.98049804980496,186.84488186965282 L 308.43084308430844,183.9730641062271 L 311.88118811881185,186.84488186965282 L 315.7315731573157,191.57233572636903 L 311.1311131113111,197.3159712532205 L 309.1809180918092,200.14360720490123 L 311.1311131113111,202.52942503913184 L 311.1311131113111,207.30106070759308 L 308.43084308430844,213.48651435189464 L 309.5809580958096,220.15796792539138 L 313.8313831383138,227.80142135727831 L 321.9321932193219,241.14432850427173 L 331.9331933193319,259.6123258136865 L 319.2319231923192,264.69323416436276 L 289.6789678967897,268.0952336687286 z" /><path fill-rule="evenodd" fill="#D2EBD9" stroke="#A6A6A6" stroke-width="0.25" opacity="1" d="M 205.020502050205,200.05524358141122 L 213.17131713171315,201.6016069924866 L 221.67216721672165,204.42924294416733 L 232.07320732073205,209.20087861262857 L 236.67366736673665,213.00051442269952 L 245.17451745174517,213.9725142810898 L 247.87478747874786,217.28615016196562 L 245.17451745174517,224.9296035938526 L 245.9245924592459,232.0870570965444 L 249.82498249824982,234.91469304822513 L 260.22602260226023,238.272510740846 L 268.7268726872687,243.97196445595245 L 281.8281828182818,247.81578207776843 L 289.6789678967897,268.0952336687286 L 216.12161216121612,276.62232333551583 L 232.97329732973296,291.55577570532967 L 240.6240624062406,295.48795695063563 L 252.47524752475246,297.7412293496312 L 252.47524752475246,309.6703185207843 L 231.9231923192319,307.6821369922588 L 213.67136713671366,301.71759240668223 L 197.01970197019702,291.51159389358463 L 180.46804680468045,276.62232333551583 L 194.1194119411941,260.0541439311366 L 201.57015701570157,234.47287493077502 L 205.020502050205,200.05524358141122 z" /><path fill-rule="evenodd" fill="#D2EBD9" stroke="#A6A6A6" stroke-width="0.25" opacity="1" d="M 207.3207320732073,159.18706771727577 L 213.17131713171315,155.8734318363999 L 218.17181718171815,157.28724981224028 L 223.57235723572356,151.5877960971338 L 228.2228222822282,151.1017961679387 L 231.27312731273125,153.4876140021693 L 235.12351235123512,157.7732497414354 L 240.17401740174017,157.7732497414354 L 244.42444244424442,160.159067575666 L 249.42494249424942,157.7732497414354 L 253.67536753675367,158.2592496706305 L 257.5257525752575,163.03088533909172 L 265.6265626562656,163.95870338573698 L 274.87748774877485,165.41670317332236 L 281.8281828182818,165.41670317332236 L 287.5787578757876,167.31652107835782 L 286.4286428642864,172.04397493507403 L 282.17821782178214,172.52997486426918 L 276.4276427642764,174.91579269849979 L 271.77717771777174,178.71542850857077 L 271.02710271027104,184.90088215287233 L 269.4769476947695,193.47215363140452 L 266.37663766376636,197.75778937067062 L 256.7256725672567,198.72978922906088 L 252.5252525252525,199.70178908745112 L 252.1252125212521,204.42924294416733 L 255.57555755575555,207.7870606367882 L 257.5257525752575,212.5586963052494 L 255.2255225522552,215.38633225693013 L 247.87478747874786,217.28615016196562 L 245.17451745174517,213.9725142810898 L 236.67366736673665,213.00051442269952 L 232.07320732073205,209.20087861262857 L 221.67216721672165,204.42924294416733 L 213.17131713171315,201.6016069924866 L 205.020502050205,200.05524358141122 L 207.3207320732073,177.6992468384355 L 207.3207320732073,159.18706771727577 z" /><path fill-rule="evenodd" fill="#D2EBD9" stroke="#A6A6A6" stroke-width="0.25" opacity="1" d="M 236.2236223622362,101.61816701352602 L 243.2243224322432,105.90380275279212 L 252.5252525252525,105.41780282359699 L 266.026602660266,107.31762072863248 L 272.9272927292729,107.31762072863248 L 276.027602760276,104.00398484775663 L 276.77767776777677,99.71834910849053 L 280.2780278027803,94.94671344002931 L 290.67906790679064,93.04689553499382 L 298.7798779877988,94.46071351083418 L 303.4303430343034,100.64616715513577 L 300.7300730073007,117.30271018300503 L 298.3798379837984,119.20252808804052 L 298.7798779877988,125.87398166153723 L 294.9294929492949,126.35998159073235 L 288.3788378837884,126.35998159073235 L 285.27852785278526,129.23179935415808 L 277.17771777177717,132.0594353058388 L 276.4276427642764,138.7308888793355 L 280.2780278027803,143.0165246186016 L 286.8286828682868,143.50252454779672 L 292.6292629262926,143.50252454779672 L 297.2297229722972,144.9163425236371 L 298.3798379837984,149.2019782629032 L 299.1799179917992,154.90143197800967 L 291.47914791479144,162.5448854098966 L 287.5787578757876,167.31652107835782 L 281.8281828182818,165.41670317332236 L 274.87748774877485,165.41670317332236 L 265.6265626562656,163.95870338573698 L 257.5257525752575,163.03088533909172 L 253.67536753675367,158.2592496706305 L 249.42494249424942,157.7732497414354 L 244.42444244424442,160.159067575666 L 240.17401740174017,157.7732497414354 L 235.12351235123512,157.7732497414354 L 231.27312731273125,153.4876140021693 L 228.2228222822282,151.1017961679387 L 223.57235723572356,151.5877960971338 L 218.17181718171815,157.28724981224028 L 213.17131713171315,155.8734318363999 L 207.3207320732073,159.18706771727577 L 207.3207320732073,127.7737995665727 L 211.32113211321132,120.13034613468575 L 229.77297729772977,110.10107486856819 L 233.9233923392339,105.28525738836196 L 236.2236223622362,101.61816701352602 z" /><path fill-rule="evenodd" fill="#D2EBD9" stroke="#A6A6A6" stroke-width="0.25" opacity="1" d="M 267.97679767976797,61.58944557254577 L 269.4769476947695,75.90435257792943 L 274.07740774077405,80.18998831719553 L 279.4779477947795,89.68907784237297 L 280.2780278027803,94.94671344002931 L 276.77767776777677,99.71834910849053 L 276.027602760276,104.00398484775663 L 272.9272927292729,107.31762072863248 L 266.026602660266,107.31762072863248 L 252.5252525252525,105.41780282359699 L 243.2243224322432,105.90380275279212 L 236.2236223622362,101.61816701352602 L 258.025802580258,67.11217204067218 L 267.97679767976797,61.58944557254577 z" /><path fill-rule="evenodd" fill="#D2EBD9" stroke="#A6A6A6" stroke-width="0.25" opacity="1" d="M 319.68196819681964,34.32926772587379 L 324.2324232423242,43.563266380581155 L 329.2329232923292,46.876902261457 L 335.033503350335,46.876902261457 L 336.1836183618362,49.748720024882736 L 335.033503350335,54.52035569334396 L 339.68396839683965,58.761809620865044 L 343.5343534353435,59.73380947925529 L 348.1348134813481,61.14762745509565 L 351.2351235123512,67.33308109939723 L 352.78527852785277,72.10471676785846 L 356.63566356635664,74.00453467289394 L 357.78577857785774,77.31817055376979 L 363.1863186318632,78.29017041216004 L 367.8367836783678,83.50362419807138 L 373.987398739874,88.76125979572772 L 373.2373237323732,94.94671344002931 L 368.98689868986895,94.94671344002931 L 364.73647364736473,98.74634925010028 L 361.28612861286126,96.84653134506479 L 358.9358935893589,98.26034932090515 L 354.6854685468547,102.05998513097613 L 349.3349334933493,103.03198498936638 L 341.58415841584156,101.61816701352602 L 339.68396839683965,97.81853120345504 L 335.83358335833583,93.97471358163907 L 327.73277327732774,91.14707762995833 L 319.6319631963196,94.94671344002931 L 311.88118811881185,98.26034932090515 L 308.03080308030803,101.13216708433089 L 303.4303430343034,100.64616715513577 L 298.7798779877988,94.46071351083418 L 290.67906790679064,93.04689553499382 L 280.2780278027803,94.94671344002931 L 279.4779477947795,89.68907784237297 L 274.07740774077405,80.18998831719553 L 269.4769476947695,75.90435257792943 L 267.97679767976797,61.58944557254577 L 314.031403140314,36.096540195674244 L 319.68196819681964,34.32926772587379 z" /><path fill-rule="evenodd" fill="#D2EBD9" stroke="#A6A6A6" stroke-width="0.25" opacity="1" d="M 351.9351935193519,24.211632836266197 L 354.6854685468547,31.192359091977984 L 362.4362436243624,40.20544868796029 L 369.38693869386935,46.390902332261874 L 366.6866686668667,48.77672016649249 L 367.036703670367,52.134537859113344 L 370.88708870887086,54.034355764148835 L 369.38693869386935,58.761809620865044 L 361.6361636163616,57.347991645024685 L 355.4855485548555,59.73380947925529 L 348.1348134813481,61.14762745509565 L 343.5343534353435,59.73380947925529 L 339.68396839683965,58.761809620865044 L 335.033503350335,54.52035569334396 L 336.1836183618362,49.748720024882736 L 335.033503350335,46.876902261457 L 329.2329232923292,46.876902261457 L 324.2324232423242,43.563266380581155 L 319.68196819681964,34.32926772587379 L 351.9351935193519,24.211632836266197 z" /><path fill-rule="evenodd" fill="#D2EBD9" stroke="#A6A6A6" stroke-width="0.25" opacity="1" d="M 409.3409340934093,13.210361711758383 L 412.94129412941294,19.79345166176507 L 410.2410241024102,25.97890530606665 L 411.041104110411,29.778541116137625 L 414.49144914491444,29.778541116137625 L 421.84218421842183,27.392723281907013 L 427.59275927592756,28.32054132855225 L 428.7428742874287,31.192359091977984 L 426.042604260426,39.277630641315056 L 424.1424142414241,45.94908421481176 L 417.9417941794179,44.977084356421514 L 413.34133413341334,40.691448617155416 L 409.8409840984098,42.14944840474079 L 405.2405240524052,44.49108442722639 L 400.2400240024002,41.17744854635054 L 394.43944394439444,38.30563078292481 L 390.18901890189017,39.76363057051018 L 385.9385938593859,44.04926630977628 L 385.5885588558856,47.36290219065213 L 390.98909890989097,53.06235590575859 L 387.48874887488745,57.347991645024685 L 381.68816881688167,59.73380947925529 L 369.38693869386935,58.761809620865044 L 370.88708870887086,54.034355764148835 L 367.036703670367,52.134537859113344 L 366.6866686668667,48.77672016649249 L 369.38693869386935,46.390902332261874 L 362.4362436243624,40.20544868796029 L 354.6854685468547,31.192359091977984 L 351.9351935193519,24.211632836266197 L 376.8376837683768,16.435633969144206 L 409.3409340934093,13.210361711758383 z" /><path fill-rule="evenodd" fill="#D2EBD9" stroke="#A6A6A6" stroke-width="0.25" opacity="1" d="M 464.9464946494649,44.66781167420643 L 461.54615461546155,52.57635597656346 L 455.39553955395536,59.73380947925529 L 449.99499949995,62.1196273134859 L 445.3445344534453,62.1196273134859 L 443.39433943394334,57.347991645024685 L 437.2437243724372,55.93417366918432 L 433.79337933793374,54.52035569334396 L 432.64326432643264,50.23471995407786 L 429.5429542954295,46.390902332261874 L 424.1424142414241,45.94908421481176 L 426.042604260426,39.277630641315056 L 428.7428742874287,31.192359091977984 L 427.59275927592756,28.32054132855225 L 421.84218421842183,27.392723281907013 L 414.49144914491444,29.778541116137625 L 411.041104110411,29.778541116137625 L 410.2410241024102,25.97890530606665 L 412.94129412941294,19.79345166176507 L 409.3409340934093,13.210361711758383 L 421.6921692169217,11.973270982898065 L 427.4427442744274,8.43872604329716 L 448.3448344834483,0.0 L 448.3448344834483,19.837633473510078 L 454.79547954795476,33.35726786748354 L 464.9464946494649,44.66781167420643 z" /><path fill-rule="evenodd" fill="#D2EBD9" stroke="#A6A6A6" stroke-width="0.25" opacity="1" d="M 498.24982498249824,65.07980870040166 L 489.6989698969897,67.33308109939723 L 482.3482348234823,68.30508095778748 L 475.4475447544754,71.61871683866333 L 471.1971197119712,66.84708117020212 L 463.49634963496345,71.13271690946821 L 455.7455745574557,72.10471676785846 L 452.69526952695264,69.23289900443272 L 444.59445944594455,69.71889893362786 L 445.3445344534453,62.1196273134859 L 449.99499949995,62.1196273134859 L 455.39553955395536,59.73380947925529 L 461.54615461546155,52.57635597656346 L 464.9464946494649,44.66781167420643 L 475.047504750475,55.93417366918432 L 492.99929992999296,45.993266026556775 L 498.24982498249824,65.07980870040166 z" /><path fill-rule="evenodd" fill="#D2EBD9" stroke="#A6A6A6" stroke-width="0.25" opacity="1" d="M 491.8491849184918,115.49125590145957 L 480.84808480848085,108.73143870447284 L 479.2979297929793,104.00398484775663 L 475.79757975797577,99.71834910849053 L 471.9471947194719,99.23234917929541 L 468.4968496849685,95.87453148667454 L 472.7472747274727,87.34744181988736 L 474.6474647464746,82.08980622223102 L 473.09730973097305,78.29017041216004 L 473.49734973497345,74.9765345312842 L 475.4475447544754,71.61871683866333 L 482.3482348234823,68.30508095778748 L 489.6989698969897,67.33308109939723 L 498.24982498249824,65.07980870040166 L 500.0,71.35362596819327 L 494.79947994799477,110.63125660950833 L 491.8491849184918,115.49125590145957 z" /><path fill-rule="evenodd" fill="#D2EBD9" stroke="#A6A6A6" stroke-width="0.25" opacity="1" d="M 485.69856985698567,125.52052716757713 L 475.4475447544754,121.102345993076 L 469.24692469246924,123.97416375650174 L 464.6464646464646,131.13161725919358 L 455.7455745574557,131.13161725919358 L 450.74507450745074,129.23179935415808 L 447.6447644764476,123.00216389811149 L 447.29472947294727,117.78871011220015 L 450.34503450345034,116.37489213635979 L 449.1949194919492,112.5310745145438 L 446.89468946894686,108.73143870447284 L 445.3445344534453,103.5179849185615 L 448.4448444844484,101.61816701352602 L 454.19541954195415,101.13216708433089 L 458.0958095809581,96.84653134506479 L 468.4968496849685,95.87453148667454 L 471.9471947194719,99.23234917929541 L 475.79757975797577,99.71834910849053 L 479.2979297929793,104.00398484775663 L 480.84808480848085,108.73143870447284 L 491.8491849184918,115.49125590145957 L 485.69856985698567,125.52052716757713 z" /><path fill-rule="evenodd" fill="#D2EBD9" stroke="#A6A6A6" stroke-width="0.25" opacity="1" d="M 475.047504750475,142.83979737162156 L 466.19661966196617,136.3450710451049 L 464.6464646464646,131.13161725919358 L 469.24692469246924,123.97416375650174 L 475.4475447544754,121.102345993076 L 485.69856985698567,125.52052716757713 L 475.047504750475,142.83979737162156 z" /><path fill-rule="evenodd" fill="#D2EBD9" stroke="#A6A6A6" stroke-width="0.25" opacity="1" d="M 14.651465146514651,367.28340103627903 L 21.602160216021602,376.8708541849465 L 30.25302530253025,386.01648921616385 L 30.25302530253025,392.1135792369754 L 34.55345534553455,396.31085135275146 L 36.75367536753675,403.5566684789333 L 32.1032103210321,406.251758995379 L 29.65296529652965,411.99539452223047 L 24.102410241024103,409.6979403114899 L 10.201020102010201,415.79503033230145 L 0.0,424.3221199990886 L 0.95009500950095,410.66994016988014 L 5.75057505750575,393.08557909536563 L 1.7001700170017,375.7221270795762 L 14.651465146514651,367.28340103627903 z" /><path fill-rule="evenodd" fill="#D2EBD9" stroke="#A6A6A6" stroke-width="0.25" opacity="1" d="M 34.003400340034,357.16576614667144 L 42.6042604260426,365.82540124869365 L 50.9050905090509,371.5248549638001 L 55.85558555855585,373.8223091745407 L 61.106110611061105,373.0712183748755 L 67.60676067606761,371.127218658095 L 67.9067906790679,381.06812630072255 L 67.60676067606761,384.11667131112836 L 64.2064206420642,386.01648921616385 L 62.356235623562355,391.7601247430153 L 58.655865586558654,396.70848765845653 L 50.00500050005,398.254851069532 L 46.004600460046,402.80557767926814 L 36.75367536753675,403.5566684789333 L 34.55345534553455,396.31085135275146 L 30.25302530253025,392.1135792369754 L 30.25302530253025,386.01648921616385 L 21.602160216021602,376.8708541849465 L 14.651465146514651,367.28340103627903 L 22.902290229022903,361.93740181513266 L 34.003400340034,357.16576614667144 z" /><path fill-rule="evenodd" fill="#D2EBD9" stroke="#A6A6A6" stroke-width="0.25" opacity="1" d="M 64.4064406440644,346.51794951612374 L 65.40654065406541,350.5384943849197 L 70.65706570657065,356.6355844057313 L 74.05740574057405,362.73267442654287 L 75.00750075007501,365.82540124869365 L 70.05700570057006,367.32758284802406 L 67.60676067606761,371.127218658095 L 61.106110611061105,373.0712183748755 L 55.85558555855585,373.8223091745407 L 50.9050905090509,371.5248549638001 L 42.6042604260426,365.82540124869365 L 34.003400340034,357.16576614667144 L 48.6048604860486,350.84776706713484 L 64.4064406440644,346.51794951612374 z" /><path fill-rule="evenodd" fill="#D2EBD9" stroke="#A6A6A6" stroke-width="0.25" opacity="1" d="M 117.36173617361736,345.6343132812235 L 114.81148114811481,350.93613069062485 L 110.76107610761075,350.5384943849197 L 104.9104910491049,353.9846757010306 L 98.75987598759876,355.8844936060661 L 94.4094409440944,360.0817657218422 L 88.55885588558856,361.6281291329176 L 78.7078707870787,361.6281291329176 L 74.05740574057405,362.73267442654287 L 70.65706570657065,356.6355844057313 L 65.40654065406541,350.5384943849197 L 64.4064406440644,346.51794951612374 L 75.4075407540754,343.51358631746297 L 99.6099609960996,341.65795022417245 L 117.36173617361736,345.6343132812235 z" /><path fill-rule="evenodd" fill="#D2EBD9" stroke="#A6A6A6" stroke-width="0.25" opacity="1" d="M 151.9151915191519,360.2143111570772 L 150.86508650865085,365.03012863728344 L 147.8147814781478,368.87394625909945 L 137.6137613761376,368.87394625909945 L 132.06320632063205,370.0226733644697 L 126.51265126512651,373.8223091745407 L 124.06240624062406,368.4763099533943 L 121.26212621262125,365.4277649429886 L 120.66206620662065,358.1819478168067 L 115.41154115411541,352.83594859566034 L 114.81148114811481,350.93613069062485 L 117.36173617361736,345.6343132812235 L 122.51225122512251,346.78304038659377 L 151.9151915191519,360.2143111570772 z" /><path fill-rule="evenodd" fill="#D2EBD9" stroke="#A6A6A6" stroke-width="0.25" opacity="1" d="M 178.36783678367837,394.455215259461 L 167.56675667566756,387.1652163215341 L 162.9162916291629,386.01648921616385 L 162.016201620162,382.21685340609287 L 161.66616661666166,374.57339997420587 L 158.61586158615862,370.3761278584298 L 147.8147814781478,368.87394625909945 L 150.86508650865085,365.03012863728344 L 151.9151915191519,360.2143111570772 L 157.56575657565756,362.77685623828785 L 180.46804680468045,363.7046742849331 L 196.36963696369637,375.3244907738711 L 178.36783678367837,394.455215259461 z" /><path fill-rule="evenodd" fill="#D2EBD9" stroke="#A6A6A6" stroke-width="0.25" opacity="1" d="M 137.5137513751375,423.8361200698935 L 133.6133613361336,412.74648532189565 L 133.6133613361336,394.8086697534211 L 129.6129612961296,392.9088518483856 L 128.66286628662866,385.66303472220375 L 126.81268126812681,381.06812630072255 L 126.51265126512651,373.8223091745407 L 132.06320632063205,370.0226733644697 L 137.6137613761376,368.87394625909945 L 147.8147814781478,368.87394625909945 L 158.61586158615862,370.3761278584298 L 161.66616661666166,374.57339997420587 L 162.016201620162,382.21685340609287 L 162.9162916291629,386.01648921616385 L 167.56675667566756,387.1652163215341 L 178.36783678367837,394.455215259461 L 171.017101710171,402.27539593832796 L 137.5137513751375,423.8361200698935 z" /><path fill-rule="evenodd" fill="#D2EBD9" stroke="#A6A6A6" stroke-width="0.25" opacity="1" d="M 115.21152115211521,434.3955730769512 L 109.86098609860986,429.13793747929486 L 110.46104610461046,424.9406653635188 L 110.76107610761075,419.59466614237243 L 109.56095609560955,416.54612113196663 L 101.8101810181018,416.19266663800653 L 95.65956595659566,413.09993981585575 L 91.05910591059106,407.7981224064544 L 90.4090409040904,402.45212318530804 L 92.25922592259225,397.10612396416167 L 90.7090709070907,394.05757895375586 L 87.3087308730873,393.6599426480508 L 93.80938093809381,384.51430761683343 L 93.2093209320932,380.3170355010574 L 101.21012101210121,378.770672089982 L 114.46144614461446,381.46576260642763 L 119.41194119411941,379.16830839568706 L 126.51265126512651,373.8223091745407 L 126.81268126812681,381.06812630072255 L 128.66286628662866,385.66303472220375 L 129.6129612961296,392.9088518483856 L 133.6133613361336,394.8086697534211 L 133.6133613361336,412.74648532189565 L 137.5137513751375,423.8361200698935 L 129.012901290129,429.3146647262749 L 115.21152115211521,434.3955730769512 z" /><path fill-rule="evenodd" fill="#D2EBD9" stroke="#A6A6A6" stroke-width="0.25" opacity="1" d="M 65.05650565056506,437.2232090286319 L 61.106110611061105,430.68430089037025 L 60.8060806080608,420.7433932477427 L 62.056205620562054,412.34884901619057 L 64.8064806480648,411.20012191082026 L 69.1069106910691,412.74648532189565 L 72.20722072207221,408.5492132061196 L 72.85728572857285,399.35939636315726 L 80.25802580258025,393.6599426480508 L 87.3087308730873,393.6599426480508 L 90.7090709070907,394.05757895375586 L 92.25922592259225,397.10612396416167 L 90.4090409040904,402.45212318530804 L 91.05910591059106,407.7981224064544 L 95.65956595659566,413.09993981585575 L 101.8101810181018,416.19266663800653 L 109.56095609560955,416.54612113196663 L 110.76107610761075,419.59466614237243 L 110.46104610461046,424.9406653635188 L 109.86098609860986,429.13793747929486 L 115.21152115211521,434.3955730769512 L 95.15951595159515,441.7739356383681 L 65.05650565056506,437.2232090286319 z" /><path fill-rule="evenodd" fill="#D2EBD9" stroke="#A6A6A6" stroke-width="0.25" opacity="1" d="M 38.2038203820382,433.1584823480909 L 37.65376537653765,426.8404832685543 L 42.3042304230423,421.1410295534478 L 45.05450545054505,413.4975761215609 L 46.004600460046,402.80557767926814 L 50.00500050005,398.254851069532 L 58.655865586558654,396.70848765845653 L 60.5060506050605,399.00594186919716 L 66.35663566356635,399.75703266886234 L 72.85728572857285,399.35939636315726 L 72.20722072207221,408.5492132061196 L 69.1069106910691,412.74648532189565 L 64.8064806480648,411.20012191082026 L 62.056205620562054,412.34884901619057 L 60.8060806080608,420.7433932477427 L 61.106110611061105,430.68430089037025 L 65.05650565056506,437.2232090286319 L 38.2038203820382,433.1584823480909 z" /><path fill-rule="evenodd" fill="#D2EBD9" stroke="#A6A6A6" stroke-width="0.25" opacity="1" d="M 0.0,424.3221199990886 L 10.201020102010201,415.79503033230145 L 24.102410241024103,409.6979403114899 L 29.65296529652965,411.99539452223047 L 32.1032103210321,406.251758995379 L 36.75367536753675,403.5566684789333 L 46.004600460046,402.80557767926814 L 45.05450545054505,413.4975761215609 L 42.3042304230423,421.1410295534478 L 37.65376537653765,426.8404832685543 L 38.2038203820382,433.1584823480909 L 15.5015501550155,429.71230103198 L 0.0,424.3221199990886 z" /><path fill-rule="evenodd" fill="#D2EBD9" stroke="#A6A6A6" stroke-width="0.25" opacity="1" d="M 67.9067906790679,381.06812630072255 L 72.20722072207221,381.06812630072255 L 74.70747074707471,377.2684904906516 L 79.30793079307931,374.57339997420587 L 79.60796079607961,369.2274007530595 L 83.008300830083,372.2759457634653 L 87.3087308730873,371.9224912695052 L 91.95919591959195,372.2759457634653 L 93.2093209320932,380.3170355010574 L 93.80938093809381,384.51430761683343 L 87.3087308730873,393.6599426480508 L 80.25802580258025,393.6599426480508 L 72.85728572857285,399.35939636315726 L 66.35663566356635,399.75703266886234 L 60.5060506050605,399.00594186919716 L 58.655865586558654,396.70848765845653 L 62.356235623562355,391.7601247430153 L 64.2064206420642,386.01648921616385 L 67.60676067606761,384.11667131112836 L 67.9067906790679,381.06812630072255 z" /><path fill-rule="evenodd" fill="#D2EBD9" stroke="#A6A6A6" stroke-width="0.25" opacity="1" d="M 67.60676067606761,371.127218658095 L 70.05700570057006,367.32758284802406 L 75.00750075007501,365.82540124869365 L 79.60796079607961,369.2274007530595 L 79.30793079307931,374.57339997420587 L 74.70747074707471,377.2684904906516 L 72.20722072207221,381.06812630072255 L 67.9067906790679,381.06812630072255 L 67.60676067606761,371.127218658095 z" /><path fill-rule="evenodd" fill="#D2EBD9" stroke="#A6A6A6" stroke-width="0.25" opacity="1" d="M 74.05740574057405,362.73267442654287 L 78.7078707870787,361.6281291329176 L 88.55885588558856,361.6281291329176 L 94.4094409440944,360.0817657218422 L 98.75987598759876,355.8844936060661 L 104.9104910491049,353.9846757010306 L 110.76107610761075,350.5384943849197 L 114.81148114811481,350.93613069062485 L 115.41154115411541,352.83594859566034 L 120.66206620662065,358.1819478168067 L 121.26212621262125,365.4277649429886 L 124.06240624062406,368.4763099533943 L 126.51265126512651,373.8223091745407 L 119.41194119411941,379.16830839568706 L 114.46144614461446,381.46576260642763 L 101.21012101210121,378.770672089982 L 93.2093209320932,380.3170355010574 L 91.95919591959195,372.2759457634653 L 87.3087308730873,371.9224912695052 L 83.008300830083,372.2759457634653 L 79.60796079607961,369.2274007530595 L 75.00750075007501,365.82540124869365 L 74.05740574057405,362.73267442654287 z" /><path fill-rule="evenodd" fill="#D2EBD9" stroke="#A6A6A6" stroke-width="0.25" opacity="1" d="M 287.5787578757876,167.31652107835782 L 291.47914791479144,162.5448854098966 L 299.1799179917992,154.90143197800967 L 303.4303430343034,157.28724981224028 L 311.5311531153115,158.2592496706305 L 318.83188318831884,154.90143197800967 L 323.48234823482346,151.5877960971338 L 328.0828082808281,151.1017961679387 L 325.3825382538254,160.159067575666 L 325.3825382538254,165.41670317332236 L 327.73277327732774,168.24433912500308 L 326.1826182618262,172.52997486426918 L 325.7825782578258,177.3016105327304 L 325.032503250325,182.0732462011916 L 323.8323832383238,186.3588819404577 L 321.1321132113211,190.6445176797238 L 315.7315731573157,191.57233572636903 L 311.88118811881185,186.84488186965282 L 308.43084308430844,183.9730641062271 L 304.98049804980496,186.84488186965282 L 303.4303430343034,192.05833565556418 L 294.9294929492949,198.72978922906088 L 287.978797879788,200.14360720490123 L 277.57775777577757,198.24378929986574 L 274.87748774877485,195.85797146563513 L 276.4276427642764,193.95815356059967 L 281.4281428142814,194.4441534897948 L 285.27852785278526,193.0303355139544 L 286.8286828682868,188.2586998454932 L 291.47914791479144,185.38688208206747 L 296.07960796079607,183.48706417703198 L 297.2297229722972,180.17342829615612 L 294.5294529452945,177.7876104619255 L 289.52895289528954,174.91579269849979 L 286.4286428642864,172.04397493507403 L 287.5787578757876,167.31652107835782 z" /><path fill-rule="evenodd" fill="#D2EBD9" stroke="#A6A6A6" stroke-width="0.25" opacity="1" d="M 328.0828082808281,151.1017961679387 L 333.88338833883387,150.17397812129346 L 341.98419841984196,150.61579623874357 L 345.43454345434543,160.64506750486112 L 342.7342734273427,165.85852129077247 L 335.033503350335,164.4447033149321 L 327.73277327732774,168.24433912500308 L 325.3825382538254,165.41670317332236 L 325.3825382538254,160.159067575666 L 328.0828082808281,151.1017961679387 z" /><path fill-rule="evenodd" fill="#D2EBD9" stroke="#A6A6A6" stroke-width="0.25" opacity="1" d="M 328.0828082808281,151.1017961679387 L 323.48234823482346,151.5877960971338 L 318.83188318831884,154.90143197800967 L 311.5311531153115,158.2592496706305 L 303.4303430343034,157.28724981224028 L 299.1799179917992,154.90143197800967 L 298.3798379837984,149.2019782629032 L 297.2297229722972,144.9163425236371 L 296.47964796479647,133.51743509342418 L 298.7798779877988,125.87398166153723 L 306.1306130613061,127.28779963737759 L 312.68126812681265,125.3879817323421 L 319.6319631963196,124.46016368569687 L 326.1826182618262,125.87398166153723 L 330.4330433043304,130.1596174008033 L 353.18531853185317,131.5734353766437 L 356.23562356235624,135.85907111590979 L 357.38573857385734,141.11670671356612 L 350.08500850085005,142.5305246894065 L 345.43454345434543,145.40234245283222 L 341.98419841984196,150.61579623874357 L 333.88338833883387,150.17397812129346 L 328.0828082808281,151.1017961679387 z" /><path fill-rule="evenodd" fill="#D2EBD9" stroke="#A6A6A6" stroke-width="0.25" opacity="1" d="M 285.27852785278526,129.23179935415808 L 287.2287228722872,132.0594353058388 L 291.8291829182918,133.51743509342418 L 296.47964796479647,133.51743509342418 L 297.2297229722972,144.9163425236371 L 292.6292629262926,143.50252454779672 L 286.8286828682868,143.50252454779672 L 280.2780278027803,143.0165246186016 L 276.4276427642764,138.7308888793355 L 277.17771777177717,132.0594353058388 L 285.27852785278526,129.23179935415808 z" /><path fill-rule="evenodd" fill="#D2EBD9" stroke="#A6A6A6" stroke-width="0.25" opacity="1" d="M 285.27852785278526,129.23179935415808 L 288.3788378837884,126.35998159073235 L 294.9294929492949,126.35998159073235 L 298.7798779877988,125.87398166153723 L 296.47964796479647,133.51743509342418 L 291.8291829182918,133.51743509342418 L 287.2287228722872,132.0594353058388 L 285.27852785278526,129.23179935415808 z" /><path fill-rule="evenodd" fill="#D2EBD9" stroke="#A6A6A6" stroke-width="0.25" opacity="1" d="M 303.4303430343034,100.64616715513577 L 308.03080308030803,101.13216708433089 L 311.88118811881185,98.26034932090515 L 319.6319631963196,94.94671344002931 L 327.73277327732774,91.14707762995833 L 335.83358335833583,93.97471358163907 L 339.68396839683965,97.81853120345504 L 341.58415841584156,101.61816701352602 L 349.3349334933493,103.03198498936638 L 354.6854685468547,102.05998513097613 L 358.9358935893589,98.26034932090515 L 361.28612861286126,96.84653134506479 L 364.73647364736473,98.74634925010028 L 363.986398639864,104.00398484775663 L 363.986398639864,109.21743863366797 L 360.08600860086005,112.5310745145438 L 353.5353535353535,113.50307437293405 L 350.48504850485045,116.8167102538099 L 349.3349334933493,123.48816382730661 L 351.6351635163516,127.28779963737759 L 353.18531853185317,131.5734353766437 L 330.4330433043304,130.1596174008033 L 326.1826182618262,125.87398166153723 L 319.6319631963196,124.46016368569687 L 312.68126812681265,125.3879817323421 L 306.1306130613061,127.28779963737759 L 298.7798779877988,125.87398166153723 L 298.3798379837984,119.20252808804052 L 300.7300730073007,117.30271018300503 L 303.4303430343034,100.64616715513577 z" /><path fill-rule="evenodd" fill="#D2EBD9" stroke="#A6A6A6" stroke-width="0.25" opacity="1" d="M 364.73647364736473,98.74634925010028 L 368.98689868986895,94.94671344002931 L 373.2373237323732,94.94671344002931 L 382.4882488248825,109.21743863366797 L 386.7386738673867,113.98907430212918 L 387.48874887488745,117.78871011220015 L 391.7391739173917,120.17452794643077 L 385.1885188518852,129.6736174716082 L 378.2378237823782,131.13161725919358 L 373.5873587358736,133.51743509342418 L 365.13651365136514,134.4452531400694 L 357.38573857385734,141.11670671356612 L 356.23562356235624,135.85907111590979 L 353.18531853185317,131.5734353766437 L 351.6351635163516,127.28779963737759 L 349.3349334933493,123.48816382730661 L 350.48504850485045,116.8167102538099 L 353.5353535353535,113.50307437293405 L 360.08600860086005,112.5310745145438 L 363.986398639864,109.21743863366797 L 363.986398639864,104.00398484775663 L 364.73647364736473,98.74634925010028 z" /><path fill-rule="evenodd" fill="#D2EBD9" stroke="#A6A6A6" stroke-width="0.25" opacity="1" d="M 353.9353935393539,205.4012428025576 L 353.9353935393539,200.62960713409637 L 359.7359735973597,198.24378929986574 L 360.88608860886086,190.6445176797238 L 363.986398639864,185.38688208206747 L 365.13651365136514,177.7876104619255 L 368.58685868586855,176.32961067434013 L 376.2876287628763,175.88779255689002 L 382.8882888288829,178.27361039112063 L 386.3386338633863,181.5872462719965 L 389.038903890389,178.71542850857077 L 393.6893689368937,182.55924613038673 L 394.03940394039404,188.2586998454932 L 391.7391739173917,191.13051760891892 L 380.9380938093809,190.1585177505287 L 375.93759375937594,191.57233572636903 L 374.3874387438744,198.72978922906088 L 369.7369736973697,203.01542496832698 L 363.5863586358636,205.8872427317527 L 353.9353935393539,205.4012428025576 z" /><path fill-rule="evenodd" fill="#D2EBD9" stroke="#A6A6A6" stroke-width="0.25" opacity="1" d="M 348.9348934893489,179.687428366961 L 353.9353935393539,179.20142843776588 L 358.18581858185814,177.7876104619255 L 363.1863186318632,173.94379284010952 L 365.13651365136514,177.7876104619255 L 363.986398639864,185.38688208206747 L 360.88608860886086,190.6445176797238 L 359.7359735973597,198.24378929986574 L 353.9353935393539,200.62960713409637 L 353.9353935393539,205.4012428025576 L 348.1348134813481,203.01542496832698 L 345.0845084508451,200.14360720490123 L 343.5343534353435,191.13051760891892 L 343.9343934393439,184.90088215287233 L 348.9348934893489,179.687428366961 z" /><path fill-rule="evenodd" fill="#D2EBD9" stroke="#A6A6A6" stroke-width="0.25" opacity="1" d="M 389.038903890389,178.71542850857077 L 386.3386338633863,181.5872462719965 L 382.8882888288829,178.27361039112063 L 376.2876287628763,175.88779255689002 L 368.58685868586855,176.32961067434013 L 365.13651365136514,177.7876104619255 L 363.1863186318632,173.94379284010952 L 363.5863586358636,160.64506750486112 L 376.1876187618762,157.06634075351522 L 381.038103810381,158.74524959982563 L 394.03940394039404,159.45215858774583 L 397.5397539753975,166.4328848434576 L 393.6893689368937,170.7185205827237 L 389.78897889788976,173.3694292874244 L 389.038903890389,178.71542850857077 z" /><path fill-rule="evenodd" fill="#D2EBD9" stroke="#A6A6A6" stroke-width="0.25" opacity="1" d="M 348.9348934893489,179.687428366961 L 345.0845084508451,173.94379284010952 L 347.3847384738474,168.24433912500308 L 342.7342734273427,165.85852129077247 L 345.43454345434543,160.64506750486112 L 353.18531853185317,157.28724981224028 L 358.58585858585855,158.74524959982563 L 363.5863586358636,160.64506750486112 L 363.1863186318632,173.94379284010952 L 358.18581858185814,177.7876104619255 L 353.9353935393539,179.20142843776588 L 348.9348934893489,179.687428366961 z" /><path fill-rule="evenodd" fill="#D2EBD9" stroke="#A6A6A6" stroke-width="0.25" opacity="1" d="M 353.18531853185317,157.28724981224028 L 356.23562356235624,152.55979595552407 L 358.18581858185814,146.8161604286726 L 357.38573857385734,141.11670671356612 L 365.13651365136514,134.4452531400694 L 373.5873587358736,133.51743509342418 L 375.43754375437544,140.05634323168584 L 376.1876187618762,144.1210699122269 L 378.7378737873787,145.57906969981227 L 382.2382238223822,149.37870550988325 L 380.8380838083808,153.22252313169923 L 376.1876187618762,157.06634075351522 L 363.5863586358636,160.64506750486112 L 358.58585858585855,158.74524959982563 L 353.18531853185317,157.28724981224028 z" /><path fill-rule="evenodd" fill="#D2EBD9" stroke="#A6A6A6" stroke-width="0.25" opacity="1" d="M 345.43454345434543,160.64506750486112 L 341.98419841984196,150.61579623874357 L 345.43454345434543,145.40234245283222 L 350.08500850085005,142.5305246894065 L 357.38573857385734,141.11670671356612 L 358.18581858185814,146.8161604286726 L 356.23562356235624,152.55979595552407 L 353.18531853185317,157.28724981224028 L 345.43454345434543,160.64506750486112 z" /><path fill-rule="evenodd" fill="#D2EBD9" stroke="#A6A6A6" stroke-width="0.25" opacity="1" d="M 385.1885188518852,129.6736174716082 L 387.28872887288725,133.82670777563925 L 395.03950395039504,136.91943459779006 L 389.38893889388936,142.44216106591648 L 378.7378737873787,145.57906969981227 L 376.1876187618762,144.1210699122269 L 375.43754375437544,140.05634323168584 L 373.5873587358736,133.51743509342418 L 378.2378237823782,131.13161725919358 L 385.1885188518852,129.6736174716082 z" /><path fill-rule="evenodd" fill="#D2EBD9" stroke="#A6A6A6" stroke-width="0.25" opacity="1" d="M 391.7391739173917,120.17452794643077 L 399.4399439943994,119.68852801723564 L 402.14021402140213,130.1596174008033 L 408.040804080408,133.82670777563925 L 409.99099909990997,136.43343466859494 L 407.4407440744074,140.05634323168584 L 400.6400640064006,136.21252560986989 L 395.03950395039504,136.91943459779006 L 387.28872887288725,133.82670777563925 L 385.1885188518852,129.6736174716082 L 391.7391739173917,120.17452794643077 z" /><path fill-rule="evenodd" fill="#D2EBD9" stroke="#A6A6A6" stroke-width="0.25" opacity="1" d="M 386.7386738673867,113.98907430212918 L 389.038903890389,108.73143870447284 L 389.038903890389,104.44580296520674 L 393.2893289328933,103.5179849185615 L 398.68986898689866,99.23234917929541 L 403.6903690369037,99.23234917929541 L 409.49094909490947,106.34562087024223 L 412.94129412941294,116.37489213635979 L 413.34133413341334,126.35998159073235 L 410.6410641064106,132.0594353058388 L 408.040804080408,133.82670777563925 L 402.14021402140213,130.1596174008033 L 399.4399439943994,119.68852801723564 L 391.7391739173917,120.17452794643077 L 387.48874887488745,117.78871011220015 L 386.7386738673867,113.98907430212918 z" /><path fill-rule="evenodd" fill="#D2EBD9" stroke="#A6A6A6" stroke-width="0.25" opacity="1" d="M 373.2373237323732,94.94671344002931 L 373.987398739874,88.76125979572772 L 367.8367836783678,83.50362419807138 L 363.1863186318632,78.29017041216004 L 357.78577857785774,77.31817055376979 L 356.63566356635664,74.00453467289394 L 361.6361636163616,71.13271690946821 L 366.2866286628663,73.03253481450369 L 372.08720872087207,77.31817055376979 L 377.08770877087704,74.49053460208907 L 384.03840384038403,72.59071669705358 L 388.6388638863886,75.90435257792943 L 392.1392139213921,74.00453467289394 L 395.98959895989594,68.79108088698261 L 398.68986898689866,67.33308109939723 L 399.8399839983998,61.633627384290776 L 405.99059905990595,58.31999150341493 L 410.6410641064106,52.134537859113344 L 417.9417941794179,44.977084356421514 L 424.1424142414241,45.94908421481176 L 421.04210421042103,51.64853792991822 L 416.79167916791675,56.86199171582956 L 411.041104110411,61.14762745509565 L 407.9407940794079,64.01944521852138 L 407.5407540754075,70.20489886282297 L 407.5407540754075,73.51853474369882 L 405.2405240524052,79.70398838800041 L 405.6405640564056,85.44762391485187 L 405.6405640564056,92.07489567660357 L 403.6903690369037,99.23234917929541 L 398.68986898689866,99.23234917929541 L 393.2893289328933,103.5179849185615 L 389.038903890389,104.44580296520674 L 389.038903890389,108.73143870447284 L 386.7386738673867,113.98907430212918 L 382.4882488248825,109.21743863366797 L 373.2373237323732,94.94671344002931 z" /><path fill-rule="evenodd" fill="#D2EBD9" stroke="#A6A6A6" stroke-width="0.25" opacity="1" d="M 348.1348134813481,61.14762745509565 L 355.4855485548555,59.73380947925529 L 361.6361636163616,57.347991645024685 L 369.38693869386935,58.761809620865044 L 381.68816881688167,59.73380947925529 L 384.03840384038403,65.43326319436176 L 385.9385938593859,68.30508095778748 L 384.03840384038403,72.59071669705358 L 377.08770877087704,74.49053460208907 L 372.08720872087207,77.31817055376979 L 366.2866286628663,73.03253481450369 L 361.6361636163616,71.13271690946821 L 356.63566356635664,74.00453467289394 L 352.78527852785277,72.10471676785846 L 351.2351235123512,67.33308109939723 L 348.1348134813481,61.14762745509565 z" /><path fill-rule="evenodd" fill="#D2EBD9" stroke="#A6A6A6" stroke-width="0.25" opacity="1" d="M 390.98909890989097,53.06235590575859 L 399.8399839983998,61.633627384290776 L 398.68986898689866,67.33308109939723 L 395.98959895989594,68.79108088698261 L 392.1392139213921,74.00453467289394 L 388.6388638863886,75.90435257792943 L 384.03840384038403,72.59071669705358 L 385.9385938593859,68.30508095778748 L 384.03840384038403,65.43326319436176 L 381.68816881688167,59.73380947925529 L 387.48874887488745,57.347991645024685 L 390.98909890989097,53.06235590575859 z" /><path fill-rule="evenodd" fill="#D2EBD9" stroke="#A6A6A6" stroke-width="0.25" opacity="1" d="M 390.98909890989097,53.06235590575859 L 385.5885588558856,47.36290219065213 L 385.9385938593859,44.04926630977628 L 390.18901890189017,39.76363057051018 L 394.43944394439444,38.30563078292481 L 400.2400240024002,41.17744854635054 L 405.2405240524052,44.49108442722639 L 409.8409840984098,42.14944840474079 L 413.34133413341334,40.691448617155416 L 417.9417941794179,44.977084356421514 L 410.6410641064106,52.134537859113344 L 405.99059905990595,58.31999150341493 L 399.8399839983998,61.633627384290776 L 390.98909890989097,53.06235590575859 z" /><path fill-rule="evenodd" fill="#D2EBD9" stroke="#A6A6A6" stroke-width="0.25" opacity="1" d="M 445.3445344534453,62.1196273134859 L 444.59445944594455,69.71889893362786 L 438.39383938393837,80.18998831719553 L 432.993299329933,87.34744181988736 L 426.8426842684268,89.24725972492284 L 425.29252925292525,86.37544196149712 L 426.042604260426,81.16198817558578 L 425.29252925292525,78.77617034135517 L 424.5424542454245,73.51853474369882 L 421.84218421842183,71.61871683866333 L 420.2920292029203,67.81908102859236 L 419.8919891989199,62.60562724268103 L 419.8919891989199,59.73380947925529 L 416.79167916791675,56.86199171582956 L 421.04210421042103,51.64853792991822 L 424.1424142414241,45.94908421481176 L 429.5429542954295,46.390902332261874 L 432.64326432643264,50.23471995407786 L 433.79337933793374,54.52035569334396 L 437.2437243724372,55.93417366918432 L 443.39433943394334,57.347991645024685 L 445.3445344534453,62.1196273134859 z" /><path fill-rule="evenodd" fill="#D2EBD9" stroke="#A6A6A6" stroke-width="0.25" opacity="1" d="M 444.59445944594455,69.71889893362786 L 452.69526952695264,69.23289900443272 L 455.7455745574557,72.10471676785846 L 463.49634963496345,71.13271690946821 L 471.1971197119712,66.84708117020212 L 475.4475447544754,71.61871683866333 L 473.49734973497345,74.9765345312842 L 473.09730973097305,78.29017041216004 L 474.6474647464746,82.08980622223102 L 472.7472747274727,87.34744181988736 L 468.4968496849685,95.87453148667454 L 458.0958095809581,96.84653134506479 L 454.19541954195415,101.13216708433089 L 448.4448444844484,101.61816701352602 L 445.3445344534453,103.5179849185615 L 437.6437643764376,101.13216708433089 L 436.49364936493646,96.84653134506479 L 433.79337933793374,94.94671344002931 L 428.7428742874287,91.63307755915346 L 426.8426842684268,89.24725972492284 L 432.993299329933,87.34744181988736 L 438.39383938393837,80.18998831719553 L 444.59445944594455,69.71889893362786 z" /><path fill-rule="evenodd" fill="#D2EBD9" stroke="#A6A6A6" stroke-width="0.25" opacity="1" d="M 445.3445344534453,103.5179849185615 L 446.89468946894686,108.73143870447284 L 449.1949194919492,112.5310745145438 L 450.34503450345034,116.37489213635979 L 447.29472947294727,117.78871011220015 L 434.9434943494349,116.8167102538099 L 430.2930293029303,116.8167102538099 L 423.34233423342334,109.21743863366797 L 429.5429542954295,107.31762072863248 L 432.993299329933,103.5179849185615 L 431.84318431843184,99.71834910849053 L 433.79337933793374,94.94671344002931 L 436.49364936493646,96.84653134506479 L 437.6437643764376,101.13216708433089 L 445.3445344534453,103.5179849185615 z" /><path fill-rule="evenodd" fill="#D2EBD9" stroke="#A6A6A6" stroke-width="0.25" opacity="1" d="M 433.79337933793374,94.94671344002931 L 431.84318431843184,99.71834910849053 L 432.993299329933,103.5179849185615 L 429.5429542954295,107.31762072863248 L 423.34233423342334,109.21743863366797 L 418.7418741874187,104.44580296520674 L 416.79167916791675,99.23234917929541 L 412.54125412541254,96.84653134506479 L 405.6405640564056,92.07489567660357 L 409.8409840984098,89.24725972492284 L 416.041604160416,88.2752598665326 L 425.29252925292525,86.37544196149712 L 426.8426842684268,89.24725972492284 L 428.7428742874287,91.63307755915346 L 433.79337933793374,94.94671344002931 z" /><path fill-rule="evenodd" fill="#D2EBD9" stroke="#A6A6A6" stroke-width="0.25" opacity="1" d="M 425.29252925292525,86.37544196149712 L 416.041604160416,88.2752598665326 L 409.8409840984098,89.24725972492284 L 405.6405640564056,92.07489567660357 L 405.6405640564056,85.44762391485187 L 405.2405240524052,79.70398838800041 L 425.29252925292525,78.77617034135517 L 426.042604260426,81.16198817558578 L 425.29252925292525,86.37544196149712 z" /><path fill-rule="evenodd" fill="#D2EBD9" stroke="#A6A6A6" stroke-width="0.25" opacity="1" d="M 425.29252925292525,78.77617034135517 L 405.2405240524052,79.70398838800041 L 407.5407540754075,73.51853474369882 L 407.5407540754075,70.20489886282297 L 407.9407940794079,64.01944521852138 L 411.041104110411,61.14762745509565 L 416.79167916791675,56.86199171582956 L 419.8919891989199,59.73380947925529 L 419.8919891989199,62.60562724268103 L 420.2920292029203,67.81908102859236 L 421.84218421842183,71.61871683866333 L 424.5424542454245,73.51853474369882 L 425.29252925292525,78.77617034135517 z" /><path fill-rule="evenodd" fill="#D2EBD9" stroke="#A6A6A6" stroke-width="0.25" opacity="1" d="M 423.34233423342334,109.21743863366797 L 430.2930293029303,116.8167102538099 L 426.4426442644264,120.17452794643077 L 430.2930293029303,127.28779963737759 L 423.34233423342334,135.41725299845967 L 418.3418341834183,130.64561732999846 L 413.34133413341334,126.35998159073235 L 412.94129412941294,116.37489213635979 L 409.49094909490947,106.34562087024223 L 403.6903690369037,99.23234917929541 L 405.6405640564056,92.07489567660357 L 412.54125412541254,96.84653134506479 L 416.79167916791675,99.23234917929541 L 418.7418741874187,104.44580296520674 L 423.34233423342334,109.21743863366797 z" /><path fill-rule="evenodd" fill="#D2EBD9" stroke="#A6A6A6" stroke-width="0.25" opacity="1" d="M 421.84218421842183,156.84543169479016 L 422.1922192219222,162.1030672924465 L 408.99089908990896,164.97488505587222 L 403.1903190319032,169.5256116656084 L 397.5397539753975,166.4328848434576 L 394.03940394039404,159.45215858774583 L 398.3398339833983,154.6805229192846 L 409.59095909590957,154.41543204881452 L 414.49144914491444,151.1017961679387 L 421.84218421842183,156.84543169479016 z" /><path fill-rule="evenodd" fill="#D2EBD9" stroke="#A6A6A6" stroke-width="0.25" opacity="1" d="M 409.8409840984098,146.8161604286726 L 407.4407440744074,140.05634323168584 L 409.99099909990997,136.43343466859494 L 408.040804080408,133.82670777563925 L 410.6410641064106,132.0594353058388 L 413.34133413341334,126.35998159073235 L 418.3418341834183,130.64561732999846 L 423.34233423342334,135.41725299845967 L 426.4426442644264,141.11670671356612 L 414.49144914491444,151.1017961679387 L 409.8409840984098,146.8161604286726 z" /><path fill-rule="evenodd" fill="#D2EBD9" stroke="#A6A6A6" stroke-width="0.25" opacity="1" d="M 414.49144914491444,151.1017961679387 L 409.59095909590957,154.41543204881452 L 398.3398339833983,154.6805229192846 L 398.68986898689866,145.88834238202736 L 403.6903690369037,145.40234245283222 L 409.8409840984098,146.8161604286726 L 414.49144914491444,151.1017961679387 z" /><path fill-rule="evenodd" fill="#D2EBD9" stroke="#A6A6A6" stroke-width="0.25" opacity="1" d="M 426.4426442644264,141.11670671356612 L 423.34233423342334,135.41725299845967 L 430.2930293029303,127.28779963737759 L 440.1940194019402,138.11234351490535 L 432.4932493249325,144.60706984142203 L 426.4426442644264,141.11670671356612 z" /><path fill-rule="evenodd" fill="#D2EBD9" stroke="#A6A6A6" stroke-width="0.25" opacity="1" d="M 450.74507450745074,129.23179935415808 L 440.1940194019402,138.11234351490535 L 430.2930293029303,127.28779963737759 L 426.4426442644264,120.17452794643077 L 430.2930293029303,116.8167102538099 L 434.9434943494349,116.8167102538099 L 447.29472947294727,117.78871011220015 L 447.6447644764476,123.00216389811149 L 450.74507450745074,129.23179935415808 z" /><path fill-rule="evenodd" fill="#D2EBD9" stroke="#A6A6A6" stroke-width="0.25" opacity="1" d="M 409.8409840984098,146.8161604286726 L 403.6903690369037,145.40234245283222 L 398.68986898689866,145.88834238202736 L 398.3398339833983,141.0283430900761 L 395.03950395039504,136.91943459779006 L 400.6400640064006,136.21252560986989 L 407.4407440744074,140.05634323168584 L 409.8409840984098,146.8161604286726 z" /><path fill-rule="evenodd" fill="#D2EBD9" stroke="#A6A6A6" stroke-width="0.25" opacity="1" d="M 395.03950395039504,136.91943459779006 L 398.3398339833983,141.0283430900761 L 398.68986898689866,145.88834238202736 L 398.3398339833983,154.6805229192846 L 394.03940394039404,159.45215858774583 L 381.038103810381,158.74524959982563 L 376.1876187618762,157.06634075351522 L 380.8380838083808,153.22252313169923 L 382.2382238223822,149.37870550988325 L 378.7378737873787,145.57906969981227 L 389.38893889388936,142.44216106591648 L 395.03950395039504,136.91943459779006 z" /><path fill-rule="evenodd" fill="#D2EBD9" stroke="#A6A6A6" stroke-width="0.25" opacity="1" d="M 440.1940194019402,138.11234351490535 L 450.74507450745074,129.23179935415808 L 450.2950295029503,141.11670671356612 L 444.79447944794475,143.50252454779672 L 437.8437843784378,149.6437963803533 L 432.4932493249325,144.60706984142203 L 440.1940194019402,138.11234351490535 z" /></g></g></g></svg>