<svg xmlns="http://www.w3.org/2000/svg" xmlns:xlink="http://www.w3.org/1999/xlink" width="329.06432141177356" height="500.0" viewBox="0.0 0.0 329.06432141177356 500.0" preserveAspectRatio="xMinYMin meet"><g transform="matrix(1,0,0,-1,0,500.0)"><g><g><path fill-rule="evenodd" fill="#D2EBD9" stroke="#A6A6A6" stroke-width="0.25" opacity="1" d="M 49.85823051693539,26.05260526052605 L 51.273348610815404,24.3024302430243 L 51.37207778015587,23.65236523652365 L 51.07589027213447,22.95229522952295 L 52.458098642901,21.55215521552155 L 51.70117501129076,20.65206520652065 L 52.26064030422007,18.2018201820182 L 57.0983696019029,21.2021202120212 L 56.17689735472522,21.2021202120212 L 55.9465292929308,21.5021502150215 L 55.81489040047685,22.1022102210221 L 54.53141119905079,24.602460246024602 L 54.79468898395869,25.5025502550255 L 54.56432092216428,26.05260526052605 L 54.00485562923497,26.352635263526352 L 51.14170971836145,27.052705270527053 L 50.61515414854563,26.902690269026902 L 49.85823051693539,26.05260526052605 z" /><path fill-rule="evenodd" fill="#D2EBD9" stroke="#A6A6A6" stroke-width="0.25" opacity="1" d="M 45.77742485086279,19.901990199019902 L 46.0407026357707,19.851985198519852 L 47.09381377540234,19.7019701970197 L 47.949466576353046,19.901990199019902 L 48.278563807487934,19.251925192519252 L 48.443112423055375,17.2017201720172 L 48.24565408437444,15.901590159015901 L 48.70639020796329,15.75157515751575 L 49.496223562687014,16.05160516051605 L 50.48351525609168,16.7016701670167 L 51.17461944147494,16.75167516751675 L 51.24043888770191,17.2017201720172 L 52.06318196553914,17.75177517751775 L 52.26064030422007,18.2018201820182 L 51.70117501129076,20.65206520652065 L 52.458098642901,21.55215521552155 L 51.07589027213447,22.95229522952295 L 51.37207778015587,23.65236523652365 L 51.273348610815404,24.3024302430243 L 49.85823051693539,26.05260526052605 L 48.90384854664422,25.852585258525853 L 47.390001283423736,24.5024502450245 L 46.53434848247303,22.15221522152215 L 45.81033457397628,20.8020802080208 L 45.77742485086279,19.901990199019902 z" /><path fill-rule="evenodd" fill="#D2EBD9" stroke="#A6A6A6" stroke-width="0.25" opacity="1" d="M 44.362306756982775,17.9017901790179 L 44.42812620320975,17.6017601760176 L 45.02050121925255,17.7017701770177 L 46.139431805111165,17.4017401740174 L 46.53434848247303,17.7017701770177 L 46.665987374926985,18.151815181518153 L 47.12672349851583,18.55185518551855 L 46.99508460606187,19.251925192519252 L 46.665987374926985,19.301930193019302 L 46.3368901437921,19.05190519051905 L 46.0407026357707,19.4019401940194 L 46.0407026357707,19.851985198519852 L 45.77742485086279,19.901990199019902 L 45.64578595840884,18.95189518951895 L 44.82304288057162,18.101810181018102 L 44.362306756982775,17.9017901790179 z" /><path fill-rule="evenodd" fill="#D2EBD9" stroke="#A6A6A6" stroke-width="0.25" opacity="1" d="M 41.301702507428324,1.000100010001 L 41.46625112299577,1.75017501750175 L 40.93969555317995,2.2002200220022 L 40.93969555317995,3.25032503250325 L 41.79534835413066,3.5003500350035 L 42.91427893998927,4.4004400440044 L 44.888862326798595,5.1005100510051005 L 45.448327619727905,4.75047504750475 L 45.51414706595488,5.5005500550055 L 45.05341094236604,5.8005800580058 L 44.13193869518835,6.0006000600060005 L 43.73702201782649,6.55065506550655 L 44.197758141415335,6.900690069006901 L 43.638292848486024,8.750875087508751 L 43.93448035650742,9.1009100910091 L 44.5926748187772,9.1009100910091 L 44.79013315745813,9.4009400940094 L 44.69140398811766,9.5009500950095 L 44.329397033869284,9.85098509850985 L 44.13193869518835,11.401140114011401 L 44.03320952584789,13.151315131513151 L 44.164848418301844,15.001500150015001 L 44.26357758764231,15.8015801580158 L 44.69140398811766,16.55165516551655 L 44.42812620320975,17.6017601760176 L 44.362306756982775,17.9017901790179 L 42.88136921687578,17.4017401740174 L 41.367521953655306,15.95159515951595 L 39.95240385977529,12.95129512951295 L 39.754945521094356,11.401140114011401 L 39.68912607486738,8.65086508650865 L 39.327119120619,7.4007400740074 L 39.82076496732134,7.1007100710071 L 39.88658441354831,6.600660066006601 L 39.65621635175389,5.2005200520052 L 39.36002884373249,4.55045504550455 L 38.70183438146272,4.4004400440044 L 37.54999407249061,4.65046504650465 L 36.79307044088037,4.35043504350435 L 36.99052877956131,3.7003700370037 L 37.615813518717594,3.0003000300030003 L 40.31441081402367,0.5000500050005 L 41.301702507428324,1.000100010001 z" /><path fill-rule="evenodd" fill="#D2EBD9" stroke="#A6A6A6" stroke-width="0.25" opacity="1" d="M 52.26064030422007,1.3001300130013 L 51.997362519312155,2.95029502950295 L 51.37207778015587,4.65046504650465 L 50.51642497920516,5.6005600560056 L 49.56204300891399,5.8505850585058505 L 48.24565408437444,5.8005800580058 L 47.752008237672115,5.7005700570057005 L 47.32418183719676,6.0006000600060005 L 46.633077651813494,6.1006100610061 L 46.20525125133815,4.65046504650465 L 45.448327619727905,4.75047504750475 L 44.888862326798595,5.1005100510051005 L 42.91427893998927,4.4004400440044 L 41.79534835413066,3.5003500350035 L 40.93969555317995,3.25032503250325 L 40.93969555317995,2.2002200220022 L 41.46625112299577,1.75017501750175 L 41.301702507428324,1.000100010001 L 42.618091431967876,0.85008500850085 L 44.82304288057162,0.1000100010001 L 46.23816097445163,0.0 L 50.253147194297256,0.65006500650065 L 52.26064030422007,1.3001300130013 z" /><path fill-rule="evenodd" fill="#D2EBD9" stroke="#A6A6A6" stroke-width="0.25" opacity="1" d="M 59.20459188116618,10.7010701070107 L 58.18439046464803,10.801080108010801 L 56.802182093881505,9.75097509750975 L 54.03776535234846,9.5009500950095 L 53.47830005941915,9.050905090509051 L 52.39227919667402,8.7008700870087 L 50.779702764113075,8.750875087508751 L 48.24565408437444,5.8005800580058 L 49.56204300891399,5.8505850585058505 L 50.51642497920516,5.6005600560056 L 51.37207778015587,4.65046504650465 L 51.997362519312155,2.95029502950295 L 52.26064030422007,1.3001300130013 L 54.2023139679159,1.9001900190019 L 54.79468898395869,2.3002300230023 L 55.78198067736336,3.95039503950395 L 56.604723755200574,4.2004200420042 L 56.73636264765453,4.9504950495049505 L 56.078168185384754,6.55065506550655 L 56.90091126322197,7.75077507750775 L 58.21730018776152,8.750875087508751 L 59.36914049673363,9.15091509150915 L 59.105862711825715,9.900990099009901 L 59.20459188116618,10.7010701070107 z" /><path fill-rule="evenodd" fill="#D2EBD9" stroke="#A6A6A6" stroke-width="0.25" opacity="1" d="M 57.0983696019029,21.2021202120212 L 52.26064030422007,18.2018201820182 L 52.06318196553914,17.75177517751775 L 51.24043888770191,17.2017201720172 L 51.17461944147494,16.75167516751675 L 51.14170971836145,16.55165516551655 L 52.09609168865262,16.1016101610161 L 53.70866812121357,14.85148514851485 L 52.194820857993086,13.35133513351335 L 54.53141119905079,11.401140114011401 L 54.03776535234846,9.5009500950095 L 56.802182093881505,9.75097509750975 L 58.18439046464803,10.801080108010801 L 59.20459188116618,10.7010701070107 L 59.698237727868516,12.25122512251225 L 60.0273349590034,14.85148514851485 L 59.829876620322466,15.35153515351535 L 58.90840437314478,16.45164516451645 L 58.48057797266943,17.9017901790179 L 57.62492517171872,18.8018801880188 L 57.75656406417268,20.452045204520452 L 57.0983696019029,21.2021202120212 z" /><path fill-rule="evenodd" fill="#D2EBD9" stroke="#A6A6A6" stroke-width="0.25" opacity="1" d="M 0.0,499.6999699969997 L 0.26327778490790965,498.5998599859986 L 1.1518403089721048,497.1997199719972 L 2.139132002376766,496.049604960496 L 2.106222279263277,496.999699969997 L 0.8885625240641951,498.8998899889989 L 0.5265555698158193,500.0 L 0.16454861556744355,499.94999499949995 L 0.0,499.6999699969997 z" /><path fill-rule="evenodd" fill="#D2EBD9" stroke="#A6A6A6" stroke-width="0.25" opacity="1" d="M 328.24157833393633,42.204220422042205 L 327.18846719430474,42.6042604260426 L 325.64171020797073,42.35423542354235 L 324.1278629447503,41.85418541854185 L 321.95582121926003,40.6040604060406 L 321.56090454189814,40.2040204020402 L 321.4292656494442,39.25392539253925 L 321.6925434343521,39.15391539153915 L 323.04184208200513,37.7037703770377 L 325.4113421461763,39.25392539253925 L 327.91248110280145,39.95399539953995 L 328.86686307309265,41.004100410041005 L 329.06432141177356,42.004200420042004 L 328.24157833393633,42.204220422042205 z" /><path fill-rule="evenodd" fill="#D2EBD9" stroke="#A6A6A6" stroke-width="0.25" opacity="1" d="M 51.17461944147494,16.75167516751675 L 50.48351525609168,16.7016701670167 L 49.496223562687014,16.05160516051605 L 48.70639020796329,15.75157515751575 L 48.24565408437444,15.901590159015901 L 46.30398042067861,16.75167516751675 L 45.415417896614414,16.45164516451645 L 45.54705678906837,15.5015501550155 L 46.20525125133815,13.85138513851385 L 47.32418183719676,12.8012801280128 L 48.24565408437444,12.7012701270127 L 49.496223562687014,11.001100110011 L 49.29876522400608,10.35103510351035 L 49.75950134759493,9.45094509450945 L 50.779702764113075,8.750875087508751 L 52.39227919667402,8.7008700870087 L 53.47830005941915,9.050905090509051 L 54.03776535234846,9.5009500950095 L 54.53141119905079,11.401140114011401 L 52.194820857993086,13.35133513351335 L 53.70866812121357,14.85148514851485 L 52.09609168865262,16.1016101610161 L 51.14170971836145,16.55165516551655 L 51.17461944147494,16.75167516751675 z" /><path fill-rule="evenodd" fill="#D2EBD9" stroke="#A6A6A6" stroke-width="0.25" opacity="1" d="M 50.779702764113075,8.750875087508751 L 49.75950134759493,9.45094509450945 L 49.29876522400608,10.35103510351035 L 49.496223562687014,11.001100110011 L 48.24565408437444,12.7012701270127 L 47.32418183719676,12.8012801280128 L 46.20525125133815,13.85138513851385 L 45.54705678906837,15.5015501550155 L 45.415417896614414,16.45164516451645 L 44.69140398811766,16.55165516551655 L 44.26357758764231,15.8015801580158 L 44.164848418301844,15.001500150015001 L 45.28377900416046,15.001500150015001 L 45.81033457397628,13.55135513551355 L 46.60016792870001,12.1012101210121 L 47.42291100653723,11.101110111011101 L 48.443112423055375,10.201020102010201 L 48.640570761736306,9.6009600960096 L 46.23816097445163,8.6008600860086 L 45.28377900416046,9.85098509850985 L 44.69140398811766,9.5009500950095 L 44.79013315745813,9.4009400940094 L 44.5926748187772,9.1009100910091 L 43.93448035650742,9.1009100910091 L 43.638292848486024,8.750875087508751 L 44.197758141415335,6.900690069006901 L 43.73702201782649,6.55065506550655 L 44.13193869518835,6.0006000600060005 L 45.05341094236604,5.8005800580058 L 45.51414706595488,5.5005500550055 L 45.448327619727905,4.75047504750475 L 46.20525125133815,4.65046504650465 L 46.633077651813494,6.1006100610061 L 47.32418183719676,6.0006000600060005 L 47.752008237672115,5.7005700570057005 L 48.24565408437444,5.8005800580058 L 50.779702764113075,8.750875087508751 z" /><path fill-rule="evenodd" fill="#D2EBD9" stroke="#A6A6A6" stroke-width="0.25" opacity="1" d="M 44.03320952584789,13.151315131513151 L 45.81033457397628,13.55135513551355 L 45.28377900416046,15.001500150015001 L 44.164848418301844,15.001500150015001 L 44.03320952584789,13.151315131513151 z" /><path fill-rule="evenodd" fill="#D2EBD9" stroke="#A6A6A6" stroke-width="0.25" opacity="1" d="M 44.69140398811766,16.55165516551655 L 45.415417896614414,16.45164516451645 L 46.30398042067861,16.75167516751675 L 48.24565408437444,15.901590159015901 L 48.443112423055375,17.2017201720172 L 48.278563807487934,19.251925192519252 L 47.949466576353046,19.901990199019902 L 47.09381377540234,19.7019701970197 L 46.0407026357707,19.851985198519852 L 46.0407026357707,19.4019401940194 L 46.3368901437921,19.05190519051905 L 46.665987374926985,19.301930193019302 L 46.99508460606187,19.251925192519252 L 47.12672349851583,18.55185518551855 L 46.665987374926985,18.151815181518153 L 46.53434848247303,17.7017701770177 L 46.139431805111165,17.4017401740174 L 45.02050121925255,17.7017701770177 L 44.42812620320975,17.6017601760176 L 44.69140398811766,16.55165516551655 z" /><path fill-rule="evenodd" fill="#D2EBD9" stroke="#A6A6A6" stroke-width="0.25" opacity="1" d="M 44.13193869518835,11.401140114011401 L 46.60016792870001,12.1012101210121 L 45.81033457397628,13.55135513551355 L 44.03320952584789,13.151315131513151 L 44.13193869518835,11.401140114011401 z" /><path fill-rule="evenodd" fill="#D2EBD9" stroke="#A6A6A6" stroke-width="0.25" opacity="1" d="M 44.69140398811766,9.5009500950095 L 45.28377900416046,9.85098509850985 L 47.42291100653723,11.101110111011101 L 46.60016792870001,12.1012101210121 L 44.13193869518835,11.401140114011401 L 44.329397033869284,9.85098509850985 L 44.69140398811766,9.5009500950095 z" /><path fill-rule="evenodd" fill="#D2EBD9" stroke="#A6A6A6" stroke-width="0.25" opacity="1" d="M 45.28377900416046,9.85098509850985 L 46.23816097445163,8.6008600860086 L 48.640570761736306,9.6009600960096 L 48.443112423055375,10.201020102010201 L 47.42291100653723,11.101110111011101 L 45.28377900416046,9.85098509850985 z" /></g></g></g></svg>