<svg xmlns="http://www.w3.org/2000/svg" xmlns:xlink="http://www.w3.org/1999/xlink" width="68.29236323322014" height="500.0" viewBox="0.06836756755753343 0.0 68.29236323322014 500.0" preserveAspectRatio="xMinYMin meet"><g transform="matrix(1,0,0,-1,0,500.0)"><g><g><g><path fill-rule="evenodd" fill="#D2EBD9" stroke="#A6A6A6" stroke-width="0.25" opacity="1" d="M 30.598106906740856,0.45004500450045004 L 30.632256503317123,0.1000100010001 L 31.212799645113673,0.0 L 30.598106906740856,0.45004500450045004 z" /><path fill-rule="evenodd" fill="#D2EBD9" stroke="#A6A6A6" stroke-width="0.25" opacity="1" d="M 33.227625843113465,1.1001100110011 L 32.46950479912032,0.7500750075007501 L 32.41486544459829,0.35003500350035 L 32.742701571730464,0.45004500450045004 L 33.227625843113465,1.1001100110011 z" /><path fill-rule="evenodd" fill="#D2EBD9" stroke="#A6A6A6" stroke-width="0.25" opacity="1" d="M 28.11884619530382,2.05020502050205 L 28.05737692146654,1.6501650165016502 L 28.28959417818516,1.45014501450145 L 28.11884619530382,2.05020502050205 z" /><path fill-rule="evenodd" fill="#D2EBD9" stroke="#A6A6A6" stroke-width="0.25" opacity="1" d="M 35.52247873303865,4.05040504050405 L 35.19464260590649,4.45044504450445 L 34.880466317404824,4.2004200420042 L 34.68239865726247,3.6003600360036003 L 34.70971833452349,2.95029502950295 L 35.52247873303865,4.05040504050405 z" /><path fill-rule="evenodd" fill="#D2EBD9" stroke="#A6A6A6" stroke-width="0.25" opacity="1" d="M 35.95276364989963,6.4006400640064 L 35.99374316579115,7.1007100710071 L 35.46100945920137,6.65066506650665 L 35.29026147632003,6.150615061506151 L 35.4132000239946,5.65056505650565 L 35.816165263594556,5.2005200520052 L 35.95276364989963,6.4006400640064 z" /><path fill-rule="evenodd" fill="#D2EBD9" stroke="#A6A6A6" stroke-width="0.25" opacity="1" d="M 26.404536447175182,5.7005700570057005 L 26.49332539827348,6.5006500650065 L 26.882630799242932,6.5006500650065 L 26.882630799242932,7.000700070007 L 26.001571207575225,6.55065506550655 L 26.240618383609096,5.35053505350535 L 27.278766119527635,3.05030503050305 L 27.756860471595385,3.05030503050305 L 27.30608579678865,4.55045504550455 L 26.404536447175182,5.7005700570057005 z" /></g><path fill-rule="evenodd" fill="#D2EBD9" stroke="#A6A6A6" stroke-width="0.25" opacity="1" d="M 48.007571241322125,25.9025902590259 L 48.01440116063738,25.252525252525253 L 48.60860414106444,24.602460246024602 L 48.51298527065089,25.35253525352535 L 48.007571241322125,25.9025902590259 z" /><g><path fill-rule="evenodd" fill="#D2EBD9" stroke="#A6A6A6" stroke-width="0.25" opacity="1" d="M 26.274767980185366,58.655865586558654 L 26.49332539827348,57.9057905790579 L 26.752862332253112,57.705770577057706 L 26.84165128335141,58.1058105810581 L 26.274767980185366,58.655865586558654 z" /><path fill-rule="evenodd" fill="#D2EBD9" stroke="#A6A6A6" stroke-width="0.25" opacity="1" d="M 33.54180213161513,59.4059405940594 L 33.66474067928969,58.905890589058906 L 34.08136575752016,59.25592559255925 L 33.54180213161513,59.4059405940594 z" /><path fill-rule="evenodd" fill="#D2EBD9" stroke="#A6A6A6" stroke-width="0.25" opacity="1" d="M 22.518312356795917,61.35613561356135 L 22.45684308295864,60.8060806080608 L 22.75052961351454,60.65606560656065 L 22.518312356795917,61.306130613061306 L 22.518312356795917,61.35613561356135 z" /><path fill-rule="evenodd" fill="#D2EBD9" stroke="#A6A6A6" stroke-width="0.25" opacity="1" d="M 44.421863600814014,62.306230623062305 L 43.90961965217,62.356235623562355 L 43.814000781756455,61.95619561956195 L 44.421863600814014,62.306230623062305 z" /><path fill-rule="evenodd" fill="#D2EBD9" stroke="#A6A6A6" stroke-width="0.25" opacity="1" d="M 19.12384245711491,63.606360636063606 L 18.96675431286408,63.406340634063405 L 19.274100682050488,63.2063206320632 L 19.41069906835556,63.356335633563354 L 19.12384245711491,63.606360636063606 z" /><path fill-rule="evenodd" fill="#D2EBD9" stroke="#A6A6A6" stroke-width="0.25" opacity="1" d="M 17.505151579399822,69.85698569856986 L 17.47100198282355,69.45694569456946 L 17.689559400911666,69.25692569256925 L 17.68272948159641,69.3069306930693 L 17.505151579399822,69.85698569856986 z" /><path fill-rule="evenodd" fill="#D2EBD9" stroke="#A6A6A6" stroke-width="0.25" opacity="1" d="M 16.38504481169824,75.8075807580758 L 16.13233779703386,75.65756575657565 L 16.36455505375248,75.25752575257525 L 16.38504481169824,75.8075807580758 z" /></g><g><path fill-rule="evenodd" fill="#D2EBD9" stroke="#A6A6A6" stroke-width="0.25" opacity="1" d="M 53.02073201871822,68.85688568856885 L 52.583617182542,68.85688568856885 L 52.70655573021656,68.4068406840684 L 52.713385649531816,68.4068406840684 L 53.01390209940297,68.85688568856885 L 53.02073201871822,68.85688568856885 z" /><path fill-rule="evenodd" fill="#D2EBD9" stroke="#A6A6A6" stroke-width="0.25" opacity="1" d="M 51.64791823635226,76.55765576557656 L 51.511319850047194,76.2076207620762 L 51.8186662192336,76.007600760076 L 51.65474815566751,76.55765576557656 L 51.64791823635226,76.55765576557656 z" /><path fill-rule="evenodd" fill="#D2EBD9" stroke="#A6A6A6" stroke-width="0.25" opacity="1" d="M 44.98874690398006,85.1085108510851 L 44.75652964726144,85.05850585058505 L 44.79067924383771,84.7084708470847 L 44.91361779151227,84.7084708470847 L 44.98874690398006,85.1085108510851 z" /><path fill-rule="evenodd" fill="#D2EBD9" stroke="#A6A6A6" stroke-width="0.25" opacity="1" d="M 44.032558199844566,92.9092909290929 L 43.766191346549675,92.7092709270927 L 43.957429087376774,92.45924592459245 L 43.991578683953044,92.55925592559255 L 44.032558199844566,92.9092909290929 z" /><path fill-rule="evenodd" fill="#D2EBD9" stroke="#A6A6A6" stroke-width="0.25" opacity="1" d="M 42.81000264241418,98.30983098309831 L 42.54363578911929,98.05980598059806 L 42.63242474021759,97.85978597859786 L 42.74170344926165,97.9097909790979 L 42.81000264241418,98.30983098309831 z" /></g><g><path fill-rule="evenodd" fill="#D2EBD9" stroke="#A6A6A6" stroke-width="0.25" opacity="1" d="M 9.377547594248108,268.8268826882688 L 9.158990176159994,268.4768476847685 L 9.357057836302348,268.3768376837684 L 9.616594770281981,268.4768476847685 L 9.377547594248108,268.8268826882688 z" /><path fill-rule="evenodd" fill="#D2EBD9" stroke="#A6A6A6" stroke-width="0.25" opacity="1" d="M 6.966586075963609,269.2269226922692 L 6.802668012397524,268.8268826882688 L 7.294422203095778,268.9268926892689 L 7.062204946377158,269.0769076907691 L 6.966586075963609,269.2269226922692 z" /><path fill-rule="evenodd" fill="#D2EBD9" stroke="#A6A6A6" stroke-width="0.25" opacity="1" d="M 15.585944251813576,271.4771477147715 L 15.039550706593293,271.4771477147715 L 14.51364691931877,270.82708270827084 L 14.520476838634023,270.82708270827084 L 15.585944251813576,271.4771477147715 z" /><path fill-rule="evenodd" fill="#D2EBD9" stroke="#A6A6A6" stroke-width="0.25" opacity="1" d="M 16.446514085535522,275.77757775777576 L 16.22795666744741,275.4275427542754 L 16.42602432758976,275.3275327532753 L 16.678731342254142,275.4275427542754 L 16.446514085535522,275.77757775777576 z" /><path fill-rule="evenodd" fill="#D2EBD9" stroke="#A6A6A6" stroke-width="0.25" opacity="1" d="M 0.4918225651032529,282.7282728272827 L 0.31424466290666087,282.1282128212821 L 0.6215910320930702,281.9281928192819 L 0.8059988536049156,282.17821782178214 L 0.4918225651032529,282.7282728272827 z" /><path fill-rule="evenodd" fill="#D2EBD9" stroke="#A6A6A6" stroke-width="0.25" opacity="1" d="M 17.11584617843037,283.1283128312831 L 16.897288760342256,282.8282828282828 L 17.09535642048461,282.67826782678264 L 17.341233515833736,282.8282828282828 L 17.11584617843037,283.1283128312831 z" /><path fill-rule="evenodd" fill="#D2EBD9" stroke="#A6A6A6" stroke-width="0.25" opacity="1" d="M 16.699221100199903,285.57855785578556 L 16.48066368211179,285.27852785278526 L 16.63775182636262,285.17851785178516 L 16.92460843760327,285.27852785278526 L 16.699221100199903,285.57855785578556 z" /><path fill-rule="evenodd" fill="#D2EBD9" stroke="#A6A6A6" stroke-width="0.25" opacity="1" d="M 16.61726206841686,289.72897289728974 L 16.398704650328746,289.42894289428943 L 16.589942391155848,289.32893289328933 L 16.84264940582023,289.42894289428943 L 16.61726206841686,289.72897289728974 z" /></g><g><path fill-rule="evenodd" fill="#D2EBD9" stroke="#A6A6A6" stroke-width="0.25" opacity="1" d="M 50.70538937084727,296.47964796479647 L 50.19314542220326,296.17961796179617 L 50.0838667131592,295.97959795979597 L 50.23412493809478,296.029602960296 L 50.70538937084727,296.47964796479647 z" /><path fill-rule="evenodd" fill="#D2EBD9" stroke="#A6A6A6" stroke-width="0.25" opacity="1" d="M 52.6860659722708,306.8806880688069 L 52.31042040993186,306.6806680668067 L 52.692895891586055,306.1806180618062 L 52.692895891586055,306.2306230623062 L 52.6860659722708,306.8806880688069 z" /><path fill-rule="evenodd" fill="#D2EBD9" stroke="#A6A6A6" stroke-width="0.25" opacity="1" d="M 65.14383880329325,328.0828082808281 L 64.78868299890007,327.8827882788279 L 65.01407033630343,327.93279327932794 L 65.14383880329325,328.0828082808281 z" /><path fill-rule="evenodd" fill="#D2EBD9" stroke="#A6A6A6" stroke-width="0.25" opacity="1" d="M 65.14383880329325,329.28292829282924 L 64.95943098178141,329.18291829182914 L 64.95260106246616,329.032903290329 L 65.13017896466275,329.28292829282924 L 65.14383880329325,329.28292829282924 z" /><path fill-rule="evenodd" fill="#D2EBD9" stroke="#A6A6A6" stroke-width="0.25" opacity="1" d="M 44.27160537587844,330.6330633063306 L 44.0871975543666,330.18301830183015 L 44.30575497245471,330.08300830083004 L 44.27160537587844,330.6330633063306 z" /><path fill-rule="evenodd" fill="#D2EBD9" stroke="#A6A6A6" stroke-width="0.25" opacity="1" d="M 46.081533994420624,340.98409840984095 L 45.84248681838675,340.6340634063406 L 45.95859544674607,340.48404840484045 L 46.102023752366385,340.5340534053405 L 46.081533994420624,340.98409840984095 z" /><path fill-rule="evenodd" fill="#D2EBD9" stroke="#A6A6A6" stroke-width="0.25" opacity="1" d="M 51.552299365938715,346.63466346634664 L 51.31325218990484,346.2846284628463 L 51.39521122168788,346.1846184618462 L 51.572789123884476,346.23462346234624 L 51.552299365938715,346.63466346634664 z" /><path fill-rule="evenodd" fill="#D2EBD9" stroke="#A6A6A6" stroke-width="0.25" opacity="1" d="M 48.78618204326103,362.5362536253625 L 48.253448336671255,362.78627862786277 L 48.09636019242042,362.48624862486247 L 48.78618204326103,362.5362536253625 z" /><path fill-rule="evenodd" fill="#D2EBD9" stroke="#A6A6A6" stroke-width="0.25" opacity="1" d="M 48.14416962762719,290.3790379037904 L 47.83682325844079,290.3790379037904 L 47.82999333912554,290.0790079007901 L 48.01440116063738,290.2790279027903 L 48.14416962762719,290.3790379037904 z" /><path fill-rule="evenodd" fill="#D2EBD9" stroke="#A6A6A6" stroke-width="0.25" opacity="1" d="M 48.54713486722716,295.1295129512951 L 48.205638901464475,294.87948794879486 L 48.51298527065089,295.029502950295 L 48.54713486722716,295.1295129512951 z" /><path fill-rule="evenodd" fill="#D2EBD9" stroke="#A6A6A6" stroke-width="0.25" opacity="1" d="M 42.24311933924814,296.67966796679667 L 42.01773200184477,296.57965796579657 L 42.01773200184477,296.47964796479647 L 42.23628941993288,296.67966796679667 L 42.24311933924814,296.67966796679667 z" /><path fill-rule="evenodd" fill="#D2EBD9" stroke="#A6A6A6" stroke-width="0.25" opacity="1" d="M 47.20847068143746,307.83078307830783 L 46.97625342471884,307.63076307630763 L 47.13334156896967,307.6807680768077 L 47.20847068143746,307.83078307830783 z" /><path fill-rule="evenodd" fill="#D2EBD9" stroke="#A6A6A6" stroke-width="0.25" opacity="1" d="M 58.300259649409206,322.18221822182215 L 57.863144813232985,322.08220822082205 L 58.074872312005844,322.032203220322 L 58.300259649409206,322.18221822182215 z" /><path fill-rule="evenodd" fill="#D2EBD9" stroke="#A6A6A6" stroke-width="0.25" opacity="1" d="M 59.29742786943623,323.5323532353235 L 59.0515507740871,323.18231823182316 L 59.17448932176166,323.032303230323 L 59.31791762738199,323.08230823082306 L 59.29742786943623,323.5323532353235 z" /><path fill-rule="evenodd" fill="#D2EBD9" stroke="#A6A6A6" stroke-width="0.25" opacity="1" d="M 60.98441794030385,323.98239823982397 L 60.58828262001914,323.8323832383238 L 60.71122116769371,323.6323632363236 L 60.929778585781825,323.58235823582356 L 60.98441794030385,323.98239823982397 z" /><path fill-rule="evenodd" fill="#D2EBD9" stroke="#A6A6A6" stroke-width="0.25" opacity="1" d="M 62.91045518720535,325.4825482548255 L 62.67140801117147,325.1325132513251 L 62.79434655884604,324.98249824982497 L 62.93094494515111,325.032503250325 L 62.91045518720535,325.4825482548255 z" /><path fill-rule="evenodd" fill="#D2EBD9" stroke="#A6A6A6" stroke-width="0.25" opacity="1" d="M 55.58878168125356,340.03400340034 L 55.34973450521968,339.68396839683965 L 55.459013214263734,339.5339533953395 L 55.60927143919932,339.6339633963396 L 55.58878168125356,340.03400340034 z" /></g><g><path fill-rule="evenodd" fill="#D2EBD9" stroke="#A6A6A6" stroke-width="0.25" opacity="1" d="M 1.1679845773133535,300.4300430043004 L 0.9289374012794793,300.0800080008001 L 1.263603447726903,299.9799979998 L 1.4002018340319737,300.0800080008001 L 1.1679845773133535,300.4300430043004 z" /><path fill-rule="evenodd" fill="#D2EBD9" stroke="#A6A6A6" stroke-width="0.25" opacity="1" d="M 18.27693246202347,317.2817281728173 L 18.345231655176004,316.981698169817 L 18.618428427786146,316.93169316931693 L 18.60476858915564,317.03170317031703 L 18.27693246202347,317.2817281728173 z" /><path fill-rule="evenodd" fill="#D2EBD9" stroke="#A6A6A6" stroke-width="0.25" opacity="1" d="M 16.65824158430838,317.2817281728173 L 17.04071706596258,317.03170317031703 L 17.525641337345583,317.03170317031703 L 16.65824158430838,317.2817281728173 z" /><path fill-rule="evenodd" fill="#D2EBD9" stroke="#A6A6A6" stroke-width="0.25" opacity="1" d="M 17.42319254761678,328.33283328332834 L 16.54213295594907,327.8827882788279 L 16.781180131982946,327.3827382738274 L 17.361723273779496,327.2827282728273 L 17.42319254761678,328.33283328332834 z" /></g><g><path fill-rule="evenodd" fill="#D2EBD9" stroke="#A6A6A6" stroke-width="0.25" opacity="1" d="M 18.843815765189515,357.68576857685764 L 18.420360767643796,357.6357635763576 L 18.215463188186188,356.73567356735674 L 18.229123026816694,356.73567356735674 L 18.843815765189515,357.68576857685764 z" /><path fill-rule="evenodd" fill="#D2EBD9" stroke="#A6A6A6" stroke-width="0.25" opacity="1" d="M 14.889292481657716,357.88578857885784 L 15.107849899745828,357.8357835783578 L 15.230788447420391,357.9357935793579 L 14.889292481657716,357.88578857885784 z" /><path fill-rule="evenodd" fill="#D2EBD9" stroke="#A6A6A6" stroke-width="0.25" opacity="1" d="M 14.588776031786558,366.5866586658666 L 14.41802804890522,366.4866486648665 L 14.356558775067938,366.3866386638664 L 14.370218613698446,366.3866386638664 L 14.588776031786558,366.5866586658666 z" /><path fill-rule="evenodd" fill="#D2EBD9" stroke="#A6A6A6" stroke-width="0.25" opacity="1" d="M 15.544964735922054,366.73667366736674 L 15.326407317833942,366.53665366536654 L 15.503985220030533,366.5866586658666 L 15.544964735922054,366.73667366736674 z" /><path fill-rule="evenodd" fill="#D2EBD9" stroke="#A6A6A6" stroke-width="0.25" opacity="1" d="M 23.030556305439934,372.2372237223722 L 22.80516896803657,371.98719871987197 L 22.94859727365689,372.037203720372 L 23.030556305439934,372.2372237223722 z" /><path fill-rule="evenodd" fill="#D2EBD9" stroke="#A6A6A6" stroke-width="0.25" opacity="1" d="M 23.303753078050075,372.987298729873 L 23.05787598270095,372.6872687268727 L 23.454011302985652,372.5372537253725 L 23.454011302985652,372.6372637263726 L 23.303753078050075,372.987298729873 z" /><path fill-rule="evenodd" fill="#D2EBD9" stroke="#A6A6A6" stroke-width="0.25" opacity="1" d="M 26.008401126890476,374.7874787478748 L 25.78301378948711,374.53745374537453 L 25.987911368944715,374.5874587458746 L 26.008401126890476,374.7874787478748 z" /><path fill-rule="evenodd" fill="#D2EBD9" stroke="#A6A6A6" stroke-width="0.25" opacity="1" d="M 26.814331606090395,375.53755375537554 L 26.834821364036156,375.4875487548755 L 27.012399266232748,375.43754375437544 L 27.237786603636113,375.33753375337534 L 26.814331606090395,375.53755375537554 z" /><path fill-rule="evenodd" fill="#D2EBD9" stroke="#A6A6A6" stroke-width="0.25" opacity="1" d="M 11.221625809366564,379.68796879687966 L 10.996238471963197,379.4379437943794 L 11.160156535529282,379.5379537953795 L 11.221625809366564,379.68796879687966 z" /><path fill-rule="evenodd" fill="#D2EBD9" stroke="#A6A6A6" stroke-width="0.25" opacity="1" d="M 28.60377046668682,380.08800880088006 L 28.385213048598708,379.88798879887986 L 28.60377046668682,379.98799879987996 L 28.60377046668682,380.08800880088006 z" /><path fill-rule="evenodd" fill="#D2EBD9" stroke="#A6A6A6" stroke-width="0.25" opacity="1" d="M 27.388044828571694,383.5883588358836 L 27.155827571853074,383.43834383438343 L 27.155827571853074,383.33833383338333 L 27.374384989941184,383.5883588358836 L 27.388044828571694,383.5883588358836 z" /><path fill-rule="evenodd" fill="#D2EBD9" stroke="#A6A6A6" stroke-width="0.25" opacity="1" d="M 17.170485532952398,387.08870887088705 L 16.938268276233778,386.8386838683868 L 17.11584617843037,386.88868886888685 L 17.170485532952398,387.08870887088705 z" /></g><g><path fill-rule="evenodd" fill="#D2EBD9" stroke="#A6A6A6" stroke-width="0.25" opacity="1" d="M 52.14650234636577,380.2380238023802 L 51.770856784026826,380.18801880188016 L 51.989414202114936,380.1380138013801 L 52.14650234636577,380.2380238023802 z" /><path fill-rule="evenodd" fill="#D2EBD9" stroke="#A6A6A6" stroke-width="0.25" opacity="1" d="M 58.15000142447363,382.5382538253825 L 57.405540219110996,382.4882488248825 L 56.6405892558026,382.1882188218822 L 57.46017957363303,382.0882088208821 L 58.15000142447363,382.5382538253825 z" /><path fill-rule="evenodd" fill="#D2EBD9" stroke="#A6A6A6" stroke-width="0.25" opacity="1" d="M 50.25461469604054,384.1884188418842 L 50.24778477672529,384.1884188418842 L 49.878969133701595,384.13841384138414 L 49.865309295071086,384.0884088408841 L 50.25461469604054,384.1884188418842 z" /><path fill-rule="evenodd" fill="#D2EBD9" stroke="#A6A6A6" stroke-width="0.25" opacity="1" d="M 60.451684233714076,385.7885788578858 L 60.04871899411412,385.73857385738575 L 60.3014260087785,385.6885688568857 L 60.451684233714076,385.7885788578858 z" /><path fill-rule="evenodd" fill="#D2EBD9" stroke="#A6A6A6" stroke-width="0.25" opacity="1" d="M 61.54447132415464,386.4386438643864 L 61.339573744697034,386.48864886488644 L 61.114186407293666,386.38863886388634 L 61.53081148552413,386.4386438643864 L 61.54447132415464,386.4386438643864 z" /><path fill-rule="evenodd" fill="#D2EBD9" stroke="#A6A6A6" stroke-width="0.25" opacity="1" d="M 45.60343964235288,387.68876887688765 L 45.52148061056984,387.3387338733873 L 45.72637819002744,387.2387238723872 L 45.84248681838675,387.28872887288725 L 45.60343964235288,387.68876887688765 z" /><path fill-rule="evenodd" fill="#D2EBD9" stroke="#A6A6A6" stroke-width="0.25" opacity="1" d="M 40.84981579893642,388.038803880388 L 40.494659994543234,387.88878887888785 L 40.59027886495678,387.7387738773877 L 41.211801522644855,387.78877887788775 L 41.28693063511264,387.98879887988795 L 40.952264588665216,387.98879887988795 L 40.84981579893642,388.038803880388 z" /><path fill-rule="evenodd" fill="#D2EBD9" stroke="#A6A6A6" stroke-width="0.25" opacity="1" d="M 42.611934982271826,391.8891889188919 L 42.40020748349897,391.9391939193919 L 42.21579966198713,391.8391839183918 L 42.23628941993288,391.8391839183918 L 42.611934982271826,391.8891889188919 z" /><path fill-rule="evenodd" fill="#D2EBD9" stroke="#A6A6A6" stroke-width="0.25" opacity="1" d="M 54.557463864650266,393.3893389338934 L 54.16132854436557,393.33933393339333 L 54.39354580108419,393.2893289328933 L 54.557463864650266,393.3893389338934 z" /><path fill-rule="evenodd" fill="#D2EBD9" stroke="#A6A6A6" stroke-width="0.25" opacity="1" d="M 43.39054578421073,394.13941394139414 L 43.24711747859041,393.83938393839384 L 43.39737570352599,393.93939393939394 L 43.39054578421073,394.13941394139414 z" /><path fill-rule="evenodd" fill="#D2EBD9" stroke="#A6A6A6" stroke-width="0.25" opacity="1" d="M 49.75603058602703,399.3399339933993 L 49.359895265742324,399.28992899289926 L 49.55796292588468,399.18991899189916 L 49.75603058602703,399.3399339933993 z" /><path fill-rule="evenodd" fill="#D2EBD9" stroke="#A6A6A6" stroke-width="0.25" opacity="1" d="M 60.451684233714076,391.2891289128913 L 60.33557560535476,390.9390939093909 L 60.63609205522592,389.18891889188916 L 60.909288827836065,390.28902890289027 L 60.451684233714076,391.2891289128913 z" /></g><g><path fill-rule="evenodd" fill="#D2EBD9" stroke="#A6A6A6" stroke-width="0.25" opacity="1" d="M 16.52164319800331,394.43944394439444 L 16.207466909501647,394.3894389438944 L 16.214296828816902,394.03940394039404 L 16.34406529580672,394.0894089408941 L 16.52164319800331,394.43944394439444 z" /><path fill-rule="evenodd" fill="#D2EBD9" stroke="#A6A6A6" stroke-width="0.25" opacity="1" d="M 21.179648171006225,396.08960896089604 L 20.86547188250456,396.039603960396 L 20.872301801819816,395.68956895689564 L 21.002070268809632,395.7395739573957 L 21.179648171006225,396.08960896089604 z" /><path fill-rule="evenodd" fill="#D2EBD9" stroke="#A6A6A6" stroke-width="0.25" opacity="1" d="M 20.523975916741886,410.2410241024102 L 20.175650031663956,410.2410241024102 L 20.155160273718195,409.8409840984098 L 20.312248417969027,409.8409840984098 L 20.523975916741886,410.2410241024102 z" /><path fill-rule="evenodd" fill="#D2EBD9" stroke="#A6A6A6" stroke-width="0.25" opacity="1" d="M 20.523975916741886,394.13941394139414 L 20.1688201123487,394.13941394139414 L 20.230289386185984,393.73937393739374 L 20.332738175914788,393.7893789378938 L 20.523975916741886,394.13941394139414 z" /><path fill-rule="evenodd" fill="#D2EBD9" stroke="#A6A6A6" stroke-width="0.25" opacity="1" d="M 12.744697816668104,396.1396139613961 L 12.341732577068145,396.039603960396 L 12.437351447481694,395.7395739573957 L 12.560289995156257,395.78957895789574 L 12.744697816668104,396.1396139613961 z" /><path fill-rule="evenodd" fill="#D2EBD9" stroke="#A6A6A6" stroke-width="0.25" opacity="1" d="M 21.384545750463833,404.0904090409041 L 20.988410430179126,403.990399039904 L 21.063539542646915,403.6903690369037 L 21.200137928951985,403.74037403740374 L 21.384545750463833,404.0904090409041 z" /><path fill-rule="evenodd" fill="#D2EBD9" stroke="#A6A6A6" stroke-width="0.25" opacity="1" d="M 21.104519058538436,407.89078907890786 L 20.715213657568984,407.79077907790776 L 20.790342770036773,407.49074907490746 L 20.926941156341844,407.5407540754075 L 21.104519058538436,407.89078907890786 z" /><path fill-rule="evenodd" fill="#D2EBD9" stroke="#A6A6A6" stroke-width="0.25" opacity="1" d="M 19.32191011725726,413.94139413941394 L 19.06237318327763,413.3913391339134 L 19.260440843419982,413.5913591359136 L 19.32191011725726,413.94139413941394 z" /><path fill-rule="evenodd" fill="#D2EBD9" stroke="#A6A6A6" stroke-width="0.25" opacity="1" d="M 18.673067782308177,416.69166916691665 L 18.317911977914992,416.49164916491645 L 18.577448911894628,416.09160916091605 L 18.673067782308177,416.69166916691665 z" /><path fill-rule="evenodd" fill="#D2EBD9" stroke="#A6A6A6" stroke-width="0.25" opacity="1" d="M 17.839817625847243,419.9419941994199 L 17.730538916803187,419.4419441944194 L 18.02422544735909,419.041904190419 L 17.846647545162497,419.9419941994199 L 17.839817625847243,419.9419941994199 z" /><path fill-rule="evenodd" fill="#D2EBD9" stroke="#A6A6A6" stroke-width="0.25" opacity="1" d="M 15.790841831271182,426.69266926692666 L 15.415196268932238,426.3426342634263 L 15.695222960857633,425.89258925892585 L 15.790841831271182,426.69266926692666 z" /><path fill-rule="evenodd" fill="#D2EBD9" stroke="#A6A6A6" stroke-width="0.25" opacity="1" d="M 14.773183853298404,427.49274927492746 L 14.383878452328952,427.5427542754275 L 14.39753829095946,427.2427242724272 L 14.588776031786558,427.1427142714271 L 14.773183853298404,427.49274927492746 z" /></g><g><path fill-rule="evenodd" fill="#D2EBD9" stroke="#A6A6A6" stroke-width="0.25" opacity="1" d="M 16.92460843760327,451.1951195119512 L 16.86996908308124,450.84508450845084 L 17.170485532952398,450.7950795079508 L 17.225124887474426,450.94509450945094 L 16.92460843760327,451.1951195119512 z" /><path fill-rule="evenodd" fill="#D2EBD9" stroke="#A6A6A6" stroke-width="0.25" opacity="1" d="M 13.29792128120364,457.7957795779578 L 13.229622088051105,457.4457445744574 L 13.536968457237514,457.39573957395737 L 13.571118053813782,457.5457545754575 L 13.29792128120364,457.7957795779578 z" /><path fill-rule="evenodd" fill="#D2EBD9" stroke="#A6A6A6" stroke-width="0.25" opacity="1" d="M 36.21230058387926,434.043404340434 L 35.87080461811659,433.79337933793374 L 36.10302187483521,433.79337933793374 L 36.21230058387926,434.043404340434 z" /><path fill-rule="evenodd" fill="#D2EBD9" stroke="#A6A6A6" stroke-width="0.25" opacity="1" d="M 36.294259615662305,435.8435843584358 L 36.287429696347054,435.8435843584358 L 35.98691324647589,435.6435643564356 L 35.95959356921488,435.59355935593555 L 36.294259615662305,435.8435843584358 z" /><path fill-rule="evenodd" fill="#D2EBD9" stroke="#A6A6A6" stroke-width="0.25" opacity="1" d="M 34.27260349834726,437.19371937193716 L 33.937937451899835,436.9436943694369 L 34.183814547248964,436.99369936993696 L 34.27260349834726,437.19371937193716 z" /><path fill-rule="evenodd" fill="#D2EBD9" stroke="#A6A6A6" stroke-width="0.25" opacity="1" d="M 37.455345899255406,438.7938793879388 L 37.223128642536786,438.6438643864386 L 37.12750977212324,438.39383938393837 L 37.26410815842831,438.39383938393837 L 37.455345899255406,438.7938793879388 z" /><path fill-rule="evenodd" fill="#D2EBD9" stroke="#A6A6A6" stroke-width="0.25" opacity="1" d="M 34.183814547248964,439.7939793979398 L 33.978916967791356,439.6939693969397 L 33.86280833943204,439.5439543954395 L 34.176984627933706,439.7939793979398 L 34.183814547248964,439.7939793979398 z" /><path fill-rule="evenodd" fill="#D2EBD9" stroke="#A6A6A6" stroke-width="0.25" opacity="1" d="M 37.49632541514693,440.8940894089409 L 37.182149126645264,440.5940594059406 L 37.31874751295034,440.1940194019402 L 37.49632541514693,440.8940894089409 z" /><path fill-rule="evenodd" fill="#D2EBD9" stroke="#A6A6A6" stroke-width="0.25" opacity="1" d="M 22.354394293229834,442.99429942994294 L 22.34073445459933,442.99429942994294 L 22.033388085412916,442.7942794279428 L 22.01972824678241,442.74427442744275 L 22.354394293229834,442.99429942994294 z" /><path fill-rule="evenodd" fill="#D2EBD9" stroke="#A6A6A6" stroke-width="0.25" opacity="1" d="M 35.63175744208271,444.09440944094405 L 35.29026147632003,443.6443644364436 L 35.53613857166916,443.39433943394334 L 35.775185747703034,443.59435943594355 L 35.63175744208271,444.09440944094405 z" /><path fill-rule="evenodd" fill="#D2EBD9" stroke="#A6A6A6" stroke-width="0.25" opacity="1" d="M 28.385213048598708,447.1447144714471 L 28.030057244205526,446.89468946894686 L 28.23495482366313,446.9446944694469 L 28.385213048598708,447.1447144714471 z" /><path fill-rule="evenodd" fill="#D2EBD9" stroke="#A6A6A6" stroke-width="0.25" opacity="1" d="M 33.937937451899835,447.6447644764476 L 33.56229188956089,447.1447144714471 L 33.52814229298462,447.09470947094707 L 33.80133906559476,447.29472947294727 L 33.937937451899835,447.6447644764476 z" /><path fill-rule="evenodd" fill="#D2EBD9" stroke="#A6A6A6" stroke-width="0.25" opacity="1" d="M 25.502987097561714,448.5448544854485 L 25.16832105111429,448.2948294829483 L 25.380048549887153,448.3448344834483 L 25.502987097561714,448.5448544854485 z" /><path fill-rule="evenodd" fill="#D2EBD9" stroke="#A6A6A6" stroke-width="0.25" opacity="1" d="M 32.776851168306735,449.74497449744973 L 32.65391262063217,449.24492449244923 L 33.029558182971115,449.14491449144913 L 33.0910274568084,449.3949394939494 L 32.776851168306735,449.74497449744973 z" /><path fill-rule="evenodd" fill="#D2EBD9" stroke="#A6A6A6" stroke-width="0.25" opacity="1" d="M 28.132506033934327,450.0950095009501 L 27.90711869653096,449.99499949995 L 27.797839987486906,449.84498449844983 L 28.112016275988566,450.04500450045003 L 28.132506033934327,450.0950095009501 z" /><path fill-rule="evenodd" fill="#D2EBD9" stroke="#A6A6A6" stroke-width="0.25" opacity="1" d="M 32.14849859130341,451.24512451245124 L 31.85481206074751,451.24512451245124 L 31.697723916496678,451.04510451045104 L 31.82066246417124,450.995099509951 L 32.14849859130341,451.24512451245124 z" /><path fill-rule="evenodd" fill="#D2EBD9" stroke="#A6A6A6" stroke-width="0.25" opacity="1" d="M 21.48016462087738,452.44524452445245 L 21.39820558909434,452.0952095209521 L 21.712381877596002,452.04520452045205 L 21.760191312802775,452.14521452145215 L 21.48016462087738,452.44524452445245 z" /><path fill-rule="evenodd" fill="#D2EBD9" stroke="#A6A6A6" stroke-width="0.25" opacity="1" d="M 13.946763616152726,456.99569956995697 L 13.898954180945951,456.6456645664566 L 14.192640711501854,456.59565956595657 L 14.247280066023881,456.7456745674567 L 13.946763616152726,456.99569956995697 z" /><path fill-rule="evenodd" fill="#D2EBD9" stroke="#A6A6A6" stroke-width="0.25" opacity="1" d="M 23.29009323941957,457.09570957095707 L 22.92810751571113,456.59565956595657 L 23.126175175853483,456.7456745674567 L 23.29009323941957,457.09570957095707 z" /></g><g><path fill-rule="evenodd" fill="#D2EBD9" stroke="#A6A6A6" stroke-width="0.25" opacity="1" d="M 43.52031425120055,158.66586658665867 L 43.86864013627848,158.1158115811581 L 44.210136102041155,158.51585158515852 L 43.527144170515804,158.66586658665867 L 43.52031425120055,158.66586658665867 z" /><path fill-rule="evenodd" fill="#D2EBD9" stroke="#A6A6A6" stroke-width="0.25" opacity="1" d="M 45.78101754454947,159.66596659665964 L 45.4531814174173,159.21592159215922 L 45.405371982210525,158.91589158915892 L 45.897126172908784,158.96589658965897 L 45.78101754454947,159.66596659665964 z" /><path fill-rule="evenodd" fill="#D2EBD9" stroke="#A6A6A6" stroke-width="0.25" opacity="1" d="M 49.127678009023704,160.96609660966095 L 49.22329687943726,160.56605660566055 L 49.83115969849482,160.9160916091609 L 49.127678009023704,160.96609660966095 z" /><path fill-rule="evenodd" fill="#D2EBD9" stroke="#A6A6A6" stroke-width="0.25" opacity="1" d="M 53.32124846858938,161.96619661966196 L 52.63142661774877,161.7161716171617 L 52.02356379869121,161.1161116111611 L 52.1123527497895,161.016101610161 L 53.32124846858938,161.96619661966196 z" /><path fill-rule="evenodd" fill="#D2EBD9" stroke="#A6A6A6" stroke-width="0.25" opacity="1" d="M 54.49599459081299,163.76637663766377 L 54.17498838299607,163.31633163316332 L 54.23645765683335,163.11631163116311 L 54.48233475218248,163.71637163716372 L 54.49599459081299,163.76637663766377 z" /><path fill-rule="evenodd" fill="#D2EBD9" stroke="#A6A6A6" stroke-width="0.25" opacity="1" d="M 36.273769857716545,165.16651665166515 L 35.775185747703034,165.26652665266525 L 35.75469598975727,164.9164916491649 L 36.273769857716545,165.16651665166515 z" /><path fill-rule="evenodd" fill="#D2EBD9" stroke="#A6A6A6" stroke-width="0.25" opacity="1" d="M 55.55463208467729,167.7167716771677 L 55.34973450521968,167.26672667266726 L 54.776021282738384,165.16651665166515 L 55.281435312067146,166.36663666366636 L 55.55463208467729,167.7167716771677 z" /><path fill-rule="evenodd" fill="#D2EBD9" stroke="#A6A6A6" stroke-width="0.25" opacity="1" d="M 55.36339434385019,170.56705670567055 L 55.21313611891461,170.01700170017 L 55.34973450521968,169.86698669866985 L 55.36339434385019,170.56705670567055 z" /><path fill-rule="evenodd" fill="#D2EBD9" stroke="#A6A6A6" stroke-width="0.25" opacity="1" d="M 40.467340317282215,171.5171517151715 L 40.35123168892291,171.1171117111711 L 40.535639510434756,170.96709670967095 L 40.84981579893642,171.2171217121712 L 40.467340317282215,171.5171517151715 z" /><path fill-rule="evenodd" fill="#D2EBD9" stroke="#A6A6A6" stroke-width="0.25" opacity="1" d="M 54.98774878151124,173.76737673767377 L 54.86481023383668,173.61736173617362 L 54.74187168616211,173.51735173517352 L 54.91261966904345,173.46734673467347 L 54.98774878151124,173.76737673767377 z" /><path fill-rule="evenodd" fill="#D2EBD9" stroke="#A6A6A6" stroke-width="0.25" opacity="1" d="M 44.934107549458034,174.16741674167415 L 44.88629811425126,174.017401740174 L 44.934107549458034,173.9173917391739 L 44.934107549458034,174.16741674167415 z" /><path fill-rule="evenodd" fill="#D2EBD9" stroke="#A6A6A6" stroke-width="0.25" opacity="1" d="M 55.718550148243374,177.31773177317731 L 55.438523456317974,177.06770677067706 L 55.45218329494848,176.7176717671767 L 55.718550148243374,177.31773177317731 z" /><path fill-rule="evenodd" fill="#D2EBD9" stroke="#A6A6A6" stroke-width="0.25" opacity="1" d="M 56.48350111155177,179.1179117911791 L 56.189814580995865,178.61786178617862 L 56.11468546852808,178.11781178117812 L 57.62409763719911,179.06790679067905 L 57.617267717883855,179.06790679067905 L 56.48350111155177,179.1179117911791 z" /></g><g><path fill-rule="evenodd" fill="#D2EBD9" stroke="#A6A6A6" stroke-width="0.25" opacity="1" d="M 22.9622571122874,182.71827182718272 L 22.62076114652472,182.61826182618262 L 22.81199888735182,182.61826182618262 L 22.9622571122874,182.71827182718272 z" /><path fill-rule="evenodd" fill="#D2EBD9" stroke="#A6A6A6" stroke-width="0.25" opacity="1" d="M 26.814331606090395,184.018401840184 L 26.49332539827348,183.86838683868385 L 26.534304914165,183.7183718371837 L 26.71188281636159,183.66836683668365 L 26.814331606090395,184.018401840184 z" /><path fill-rule="evenodd" fill="#D2EBD9" stroke="#A6A6A6" stroke-width="0.25" opacity="1" d="M 27.55879281145303,184.86848684868485 L 27.524643214876765,184.3184318431843 L 27.900288777215707,184.3184318431843 L 27.647581762551326,184.7184718471847 L 27.55879281145303,184.86848684868485 z" /><path fill-rule="evenodd" fill="#D2EBD9" stroke="#A6A6A6" stroke-width="0.25" opacity="1" d="M 16.86313916376599,189.66896689668965 L 16.52164319800331,189.5189518951895 L 16.73337069677617,189.5189518951895 L 16.86313916376599,189.66896689668965 z" /><path fill-rule="evenodd" fill="#D2EBD9" stroke="#A6A6A6" stroke-width="0.25" opacity="1" d="M 15.435686026877997,193.019301930193 L 15.196638850844124,192.66926692669267 L 15.49715530071528,192.31923192319232 L 15.435686026877997,193.019301930193 z" /><path fill-rule="evenodd" fill="#D2EBD9" stroke="#A6A6A6" stroke-width="0.25" opacity="1" d="M 42.174820146095605,194.36943694369435 L 42.05188159842104,193.96939693969395 L 42.154330388149845,194.1194119411941 L 42.174820146095605,194.36943694369435 z" /><path fill-rule="evenodd" fill="#D2EBD9" stroke="#A6A6A6" stroke-width="0.25" opacity="1" d="M 42.830492400359944,200.07000700070006 L 42.81000264241418,199.5199519951995 L 43.37005602626497,196.71967196719672 L 43.65008271819037,197.56975697569757 L 43.59544336366834,198.4198419841984 L 42.830492400359944,200.07000700070006 z" /><path fill-rule="evenodd" fill="#D2EBD9" stroke="#A6A6A6" stroke-width="0.25" opacity="1" d="M 40.31025217303139,204.47044704470446 L 40.10535459357378,204.020402040204 L 40.3375718502924,203.7203720372037 L 40.31025217303139,204.47044704470446 z" /><path fill-rule="evenodd" fill="#D2EBD9" stroke="#A6A6A6" stroke-width="0.25" opacity="1" d="M 29.478000139039274,207.47074707470745 L 29.18431360848337,207.3207320732073 L 29.36872142999522,207.3207320732073 L 29.478000139039274,207.47074707470745 z" /></g><g><path fill-rule="evenodd" fill="#D2EBD9" stroke="#A6A6A6" stroke-width="0.25" opacity="1" d="M 13.776015633271388,215.77157715771577 L 13.837484907108669,215.37153715371537 L 14.056042325196783,215.32153215321532 L 14.178980872871346,215.57155715571557 L 13.776015633271388,215.77157715771577 z" /><path fill-rule="evenodd" fill="#D2EBD9" stroke="#A6A6A6" stroke-width="0.25" opacity="1" d="M 12.013896449935975,216.52165216521652 L 11.65874064554279,216.17161716171617 L 11.679230403488551,216.02160216021602 L 12.089025562403764,215.82158215821582 L 12.013896449935975,216.52165216521652 z" /><path fill-rule="evenodd" fill="#D2EBD9" stroke="#A6A6A6" stroke-width="0.25" opacity="1" d="M 21.596273249236692,219.57195719571956 L 21.958258972945128,219.3219321932193 L 22.23145574555527,219.77197719771976 L 21.596273249236692,219.57195719571956 z" /><path fill-rule="evenodd" fill="#D2EBD9" stroke="#A6A6A6" stroke-width="0.25" opacity="1" d="M 20.70838373825373,233.1233123312331 L 20.74253333483,232.67326732673266 L 21.118178897168942,232.7232723272327 L 20.70838373825373,233.1233123312331 z" /><path fill-rule="evenodd" fill="#D2EBD9" stroke="#A6A6A6" stroke-width="0.25" opacity="1" d="M 11.856808305685144,234.12341234123411 L 11.528972178552973,233.6233623362336 L 11.535802097868228,233.4233423342334 L 11.699720161434312,233.6233623362336 L 11.856808305685144,234.12341234123411 z" /></g><g><path fill-rule="evenodd" fill="#D2EBD9" stroke="#A6A6A6" stroke-width="0.25" opacity="1" d="M 42.78951288446842,221.9221922192219 L 42.46167675733625,221.7221722172217 L 42.65291449816335,221.42214221422142 L 42.78951288446842,221.47214721472147 L 42.78951288446842,221.9221922192219 z" /><path fill-rule="evenodd" fill="#D2EBD9" stroke="#A6A6A6" stroke-width="0.25" opacity="1" d="M 45.71954827071219,222.37223722372235 L 45.24145391864444,222.1222122212221 L 45.166324806176654,221.7221722172217 L 45.71954827071219,222.37223722372235 z" /><path fill-rule="evenodd" fill="#D2EBD9" stroke="#A6A6A6" stroke-width="0.25" opacity="1" d="M 55.267775473436636,229.2229222922292 L 55.301925070012906,228.97289728972896 L 55.301925070012906,228.9228922892289 L 55.42486361768747,229.1229122912291 L 55.267775473436636,229.2229222922292 z" /><path fill-rule="evenodd" fill="#D2EBD9" stroke="#A6A6A6" stroke-width="0.25" opacity="1" d="M 43.21979780132939,229.97299729972997 L 43.02856006050229,229.67296729672967 L 43.25394739790566,229.52295229522952 L 43.37688594558023,229.57295729572957 L 43.21979780132939,229.97299729972997 z" /><path fill-rule="evenodd" fill="#D2EBD9" stroke="#A6A6A6" stroke-width="0.25" opacity="1" d="M 56.26494369346366,233.2233223322332 L 56.08053587195181,232.8232823282328 L 56.12834530715858,232.67326732673266 L 56.26494369346366,233.2233223322332 z" /><path fill-rule="evenodd" fill="#D2EBD9" stroke="#A6A6A6" stroke-width="0.25" opacity="1" d="M 57.65824723377538,233.67336733673366 L 57.18015288170763,233.37333733373336 L 57.118683607870345,232.97329732973296 L 57.651417314460126,233.6233623362336 L 57.65824723377538,233.67336733673366 z" /><path fill-rule="evenodd" fill="#D2EBD9" stroke="#A6A6A6" stroke-width="0.25" opacity="1" d="M 59.39304673984977,242.9242924292429 L 59.09936020929387,242.5242524252425 L 59.36572706258876,242.7242724272427 L 59.39304673984977,242.9242924292429 z" /></g><g><path fill-rule="evenodd" fill="#D2EBD9" stroke="#A6A6A6" stroke-width="0.25" opacity="1" d="M 13.871634503684938,241.47414741474145 L 13.76235579464088,241.024102410241 L 14.056042325196783,241.07410741074105 L 14.151661195610332,241.27412741274125 L 13.871634503684938,241.47414741474145 z" /><path fill-rule="evenodd" fill="#D2EBD9" stroke="#A6A6A6" stroke-width="0.25" opacity="1" d="M 18.755026814091217,243.17431743174316 L 18.577448911894628,242.77427742774276 L 18.775516572036977,242.67426742674266 L 19.000903909440346,242.8242824282428 L 18.755026814091217,243.17431743174316 z" /><path fill-rule="evenodd" fill="#D2EBD9" stroke="#A6A6A6" stroke-width="0.25" opacity="1" d="M 22.86663824187385,249.27492749274927 L 22.771019371460298,248.82488248824882 L 23.051046063385694,248.87488748874887 L 23.167154691745004,249.07490749074907 L 22.86663824187385,249.27492749274927 z" /><path fill-rule="evenodd" fill="#D2EBD9" stroke="#A6A6A6" stroke-width="0.25" opacity="1" d="M 22.197306148979003,252.3252325232523 L 22.01972824678241,251.9251925192519 L 22.21096598760951,251.8251825182518 L 22.44318324432813,251.97519751975196 L 22.197306148979003,252.3252325232523 z" /><path fill-rule="evenodd" fill="#D2EBD9" stroke="#A6A6A6" stroke-width="0.25" opacity="1" d="M 9.493656222607418,256.1256125612561 L 9.377547594248108,255.67556755675565 L 9.678064044119264,255.7255725572557 L 9.773682914532813,255.9255925592559 L 9.493656222607418,256.1256125612561 z" /></g><g><path fill-rule="evenodd" fill="#D2EBD9" stroke="#A6A6A6" stroke-width="0.25" opacity="1" d="M 53.21196975954532,259.2759275927593 L 53.389547661741915,258.9258925892589 L 53.369057903796154,259.1259125912591 L 53.21196975954532,259.2759275927593 z" /><path fill-rule="evenodd" fill="#D2EBD9" stroke="#A6A6A6" stroke-width="0.25" opacity="1" d="M 67.99874507706923,265.026502650265 L 68.06704427022177,264.8264826482648 L 68.36073080077767,264.7264726472647 L 68.01240491569975,265.026502650265 L 67.99874507706923,265.026502650265 z" /><path fill-rule="evenodd" fill="#D2EBD9" stroke="#A6A6A6" stroke-width="0.25" opacity="1" d="M 52.53580774733522,268.2268226822682 L 52.55629750528098,267.97679767976797 L 52.70655573021656,267.9267926792679 L 52.53580774733522,268.2268226822682 z" /></g><path fill-rule="evenodd" fill="#D2EBD9" stroke="#A6A6A6" stroke-width="0.25" opacity="1" d="M 55.11751724850106,315.8315831583158 L 54.29109701135538,315.031503150315 L 53.47833661284021,312.48124812481245 L 52.931943067619926,312.18121812181215 L 47.81633350049503,312.38123812381235 L 47.754864226657745,312.08120812081205 L 51.32691202853535,310.7310731073107 L 52.85681395515214,310.6310631063106 L 53.860812094494406,311.18111811181114 L 54.605273299857046,311.98119811981195 L 55.315584908643416,313.8313831383138 L 55.486332891524754,314.88148814881487 L 55.54097224604678,315.38153815381537 L 55.11751724850106,315.8315831583158 z" /><g><path fill-rule="evenodd" fill="#D2EBD9" stroke="#A6A6A6" stroke-width="0.25" opacity="1" d="M 45.30292319248172,411.7911791179118 L 44.64725093821738,410.7910791079108 L 44.44918327807503,410.3410341034103 L 44.531142309858076,410.3410341034103 L 45.30292319248172,411.7911791179118 z" /><path fill-rule="evenodd" fill="#D2EBD9" stroke="#A6A6A6" stroke-width="0.25" opacity="1" d="M 44.63359109958688,415.49154915491545 L 44.27160537587844,414.99149914991494 L 44.531142309858076,414.79147914791474 L 44.7770194052072,414.99149914991494 L 44.63359109958688,415.49154915491545 z" /><path fill-rule="evenodd" fill="#D2EBD9" stroke="#A6A6A6" stroke-width="0.25" opacity="1" d="M 48.950100106827115,418.4418441844184 L 48.51981518996614,418.49184918491846 L 47.89829253227807,417.79177917791776 L 47.92561220953908,417.79177917791776 L 48.950100106827115,418.4418441844184 z" /><path fill-rule="evenodd" fill="#D2EBD9" stroke="#A6A6A6" stroke-width="0.25" opacity="1" d="M 47.61826584035267,422.992299229923 L 47.24262027801373,422.6922692269227 L 47.44068793815608,422.44224422442244 L 47.58411624377641,422.54225422542254 L 47.61826584035267,422.992299229923 z" /><path fill-rule="evenodd" fill="#D2EBD9" stroke="#A6A6A6" stroke-width="0.25" opacity="1" d="M 45.11168545165462,426.79267926792676 L 44.7770194052072,426.39263926392636 L 45.46684125604781,425.99259925992595 L 45.11168545165462,426.79267926792676 z" /></g><g><path fill-rule="evenodd" fill="#D2EBD9" stroke="#A6A6A6" stroke-width="0.25" opacity="1" d="M 0.3893737753744498,455.19551955195516 L 0.06836756755753343,455.19551955195516 L 0.06836756755753343,454.8454845484548 L 0.1503265993405759,454.89548954895486 L 0.3893737753744498,455.19551955195516 z" /><path fill-rule="evenodd" fill="#D2EBD9" stroke="#A6A6A6" stroke-width="0.25" opacity="1" d="M 17.744198755433693,464.6464646464646 L 17.402702789671018,464.7464746474647 L 17.341233515833736,464.4464446444644 L 17.48466182145406,464.3464346434643 L 17.744198755433693,464.6464646464646 z" /><path fill-rule="evenodd" fill="#D2EBD9" stroke="#A6A6A6" stroke-width="0.25" opacity="1" d="M 15.305917559888181,465.046504650465 L 15.244448286050899,464.7464746474647 L 15.544964735922054,464.6464646464646 L 15.606434009759337,464.79647964796476 L 15.305917559888181,465.046504650465 z" /><path fill-rule="evenodd" fill="#D2EBD9" stroke="#A6A6A6" stroke-width="0.25" opacity="1" d="M 22.081197520619693,466.19661966196617 L 21.801170828694296,465.99659965996597 L 21.965088892260383,465.69656965696566 L 22.11534711719596,465.7465746574657 L 22.081197520619693,466.19661966196617 z" /><path fill-rule="evenodd" fill="#D2EBD9" stroke="#A6A6A6" stroke-width="0.25" opacity="1" d="M 23.030556305439934,468.6968696869687 L 22.68906033967726,468.7968796879688 L 22.62076114652472,468.4968496849685 L 22.771019371460298,468.3968396839684 L 23.030556305439934,468.6968696869687 z" /><path fill-rule="evenodd" fill="#D2EBD9" stroke="#A6A6A6" stroke-width="0.25" opacity="1" d="M 24.615097586578756,471.69716971697164 L 24.157492992456767,471.59715971597154 L 24.1233433958805,471.24712471247125 L 24.615097586578756,471.69716971697164 z" /><path fill-rule="evenodd" fill="#D2EBD9" stroke="#A6A6A6" stroke-width="0.25" opacity="1" d="M 26.950929992395466,474.39743974397436 L 26.520645075534492,474.3474347434743 L 26.30208765744638,473.6473647364736 L 26.59577418800228,473.7473747374737 L 26.950929992395466,474.39743974397436 z" /><path fill-rule="evenodd" fill="#D2EBD9" stroke="#A6A6A6" stroke-width="0.25" opacity="1" d="M 22.511482437480666,477.5977597759776 L 22.21096598760951,477.3977397739774 L 22.381713970490846,477.1477147714771 L 22.525142276111172,477.1977197719772 L 22.511482437480666,477.5977597759776 z" /><path fill-rule="evenodd" fill="#D2EBD9" stroke="#A6A6A6" stroke-width="0.25" opacity="1" d="M 14.950761755494996,477.8977897789779 L 14.616095709047574,477.94779477947793 L 14.561456354525545,477.5977597759776 L 14.68439490220011,477.54775477547753 L 14.950761755494996,477.8977897789779 z" /><path fill-rule="evenodd" fill="#D2EBD9" stroke="#A6A6A6" stroke-width="0.25" opacity="1" d="M 30.37271956933749,479.34793479347934 L 29.921944894530757,478.14781478147813 L 28.870137319981712,476.3976397639764 L 28.590110628056316,475.3475347534753 L 29.4301907038325,476.047604760476 L 29.942434652476518,476.8976897689769 L 30.82349424414422,478.94789478947894 L 30.755195050991688,479.2979297929793 L 30.37271956933749,479.34793479347934 z" /></g><g><path fill-rule="evenodd" fill="#D2EBD9" stroke="#A6A6A6" stroke-width="0.25" opacity="1" d="M 31.793342786910227,482.1482148214821 L 31.738703432388196,481.69816981698165 L 31.929941173215298,481.5481548154815 L 32.79051100693724,481.99819981998195 L 31.793342786910227,482.1482148214821 z" /><path fill-rule="evenodd" fill="#D2EBD9" stroke="#A6A6A6" stroke-width="0.25" opacity="1" d="M 19.89562333973856,482.8482848284828 L 19.540467535345375,482.9482948294829 L 19.492658100138602,482.59825982598255 L 19.629256486443673,482.5482548254825 L 19.89562333973856,482.8482848284828 z" /><path fill-rule="evenodd" fill="#D2EBD9" stroke="#A6A6A6" stroke-width="0.25" opacity="1" d="M 29.402871026571486,482.99829982998295 L 29.06137506080881,483.048304830483 L 28.999905786971528,482.7482748274827 L 29.143334092591854,482.69826982698265 L 29.402871026571486,482.99829982998295 z" /><path fill-rule="evenodd" fill="#D2EBD9" stroke="#A6A6A6" stroke-width="0.25" opacity="1" d="M 18.638918185731907,483.59835983598356 L 18.345231655176004,483.39833983398336 L 18.515979638057345,483.1483148314831 L 18.652578024362416,483.19831983198316 L 18.638918185731907,483.59835983598356 z" /><path fill-rule="evenodd" fill="#D2EBD9" stroke="#A6A6A6" stroke-width="0.25" opacity="1" d="M 26.445515963066704,483.5483548354835 L 26.117679835934535,483.59835983598356 L 26.042550723466746,483.29832983298326 L 26.18597902908707,483.2483248324832 L 26.445515963066704,483.5483548354835 z" /><path fill-rule="evenodd" fill="#D2EBD9" stroke="#A6A6A6" stroke-width="0.25" opacity="1" d="M 17.90811681899978,484.09840984098406 L 17.55979093392185,484.1484148414841 L 17.505151579399822,483.8483848384838 L 17.648579885020144,483.79837983798376 L 17.90811681899978,484.09840984098406 z" /><path fill-rule="evenodd" fill="#D2EBD9" stroke="#A6A6A6" stroke-width="0.25" opacity="1" d="M 26.96458983102597,486.4486448644864 L 26.71188281636159,486.3486348634863 L 26.84165128335141,485.9485948594859 L 26.991909508286987,486.048604860486 L 26.96458983102597,486.4486448644864 z" /><path fill-rule="evenodd" fill="#D2EBD9" stroke="#A6A6A6" stroke-width="0.25" opacity="1" d="M 33.86280833943204,487.84878487848783 L 33.54863205093038,487.7987798779878 L 33.0910274568084,486.7986798679868 L 33.029558182971115,486.1986198619862 L 33.220795923798214,485.6485648564856 L 33.52814229298462,486.048604860486 L 33.80133906559476,486.9486948694869 L 33.86280833943204,487.84878487848783 z" /><path fill-rule="evenodd" fill="#D2EBD9" stroke="#A6A6A6" stroke-width="0.25" opacity="1" d="M 15.428856107562744,490.34903490349035 L 15.340067156464448,489.94899489948995 L 15.449345865508505,490.0990099009901 L 15.428856107562744,490.34903490349035 z" /><path fill-rule="evenodd" fill="#D2EBD9" stroke="#A6A6A6" stroke-width="0.25" opacity="1" d="M 32.87247003872028,491.2491249124912 L 32.585613427479636,491.19911991199115 L 32.44901504117456,490.99909990999095 L 32.44901504117456,489.94899489948995 L 32.62659294337115,489.94899489948995 L 32.87247003872028,491.2491249124912 z" /><path fill-rule="evenodd" fill="#D2EBD9" stroke="#A6A6A6" stroke-width="0.25" opacity="1" d="M 13.250111845996866,492.49924992499245 L 13.16132289489857,492.1492149214921 L 13.250111845996866,492.29922992299225 L 13.250111845996866,492.49924992499245 z" /><path fill-rule="evenodd" fill="#D2EBD9" stroke="#A6A6A6" stroke-width="0.25" opacity="1" d="M 18.87113544245053,494.8494849484948 L 18.7140472981997,494.29942994299427 L 18.980414151494585,493.99939993999396 L 18.87113544245053,494.8494849484948 z" /><path fill-rule="evenodd" fill="#D2EBD9" stroke="#A6A6A6" stroke-width="0.25" opacity="1" d="M 16.95875803417954,496.74967496749673 L 16.822159647874468,496.54965496549653 L 16.86996908308124,496.3496349634963 L 16.95875803417954,496.6996699669967 L 16.95875803417954,496.74967496749673 z" /><path fill-rule="evenodd" fill="#D2EBD9" stroke="#A6A6A6" stroke-width="0.25" opacity="1" d="M 14.588776031786558,499.04990499049904 L 14.192640711501854,498.94989498949894 L 14.527306757949278,498.44984498449844 L 14.588776031786558,499.04990499049904 z" /><path fill-rule="evenodd" fill="#D2EBD9" stroke="#A6A6A6" stroke-width="0.25" opacity="1" d="M 12.731037978037596,500.0 L 12.649078946254553,499.64996499649965 L 12.778847413244371,499.74997499749975 L 12.731037978037596,500.0 z" /></g></g></g></g></svg>