<svg xmlns="http://www.w3.org/2000/svg" xmlns:xlink="http://www.w3.org/1999/xlink" width="203.24276984855533" height="500.0" viewBox="0.0 0.0 203.24276984855533 500.0" preserveAspectRatio="xMinYMin meet"><g transform="matrix(1,0,0,-1,0,500.0)"><g><g><path fill-rule="evenodd" fill="#D2EBD9" stroke="#A6A6A6" stroke-width="0.25" opacity="1" d="M 122.75058376991954,423.4923492349235 L 121.99851031413431,423.54235423542355 L 121.47002626412306,423.7923792379238 L 120.5553423314113,425.3425342534253 L 120.27077399678986,426.2426242624262 L 120.16914244871077,427.09270927092706 L 120.29110030640568,427.89278927892786 L 121.00252114295928,429.9429942994299 L 120.73827911795365,431.14311431143113 L 119.53902685062044,433.14331433143315 L 119.254458515999,434.5434543454345 L 120.5553423314113,442.14421442144214 L 119.88457411408933,444.3444344434443 L 119.29511113523064,447.7447744774477 L 117.20150124480148,452.44524452445245 L 116.73399612363768,454.59545954595455 L 117.54704850827036,457.19571957195717 L 117.46574326980709,457.8957895789579 L 116.73399612363768,460.0960096009601 L 114.84364932936668,462.7462746274627 L 114.1322284928131,464.046404640464 L 107.79041989267816,472.09720972097205 L 104.9853891656954,474.79747974797476 L 104.61951559261068,475.3475347534753 L 104.15201047144689,477.64776477647763 L 103.76581058874636,478.4978497849785 L 101.89579010409119,479.1979197919792 L 95.79789721934605,485.6485648564856 L 93.96852935392252,486.4986498649865 L 92.89123494428421,487.6987698769877 L 92.42372982312041,487.94879487948793 L 90.28946731345961,490.54905490549055 L 89.41543599997948,491.049104910491 L 88.82597302112079,491.7491749174917 L 86.79334205953907,493.09930993099306 L 84.61842693064665,493.89938993899386 L 82.85003799407055,492.09920992099205 L 81.3662173921159,490.8490849084908 L 80.43120714978832,489.24892489248924 L 81.58980679788989,486.4486448644864 L 81.48817524981081,485.29852985298527 L 81.04099643826284,483.39833983398336 L 81.0003438190312,482.2482248224822 L 80.77675441325721,481.39813981398135 L 80.24827036324596,480.74807480748075 L 79.3335864305342,480.14801480148014 L 79.3335864305342,479.6979697969797 L 78.29694464012752,478.5978597859786 L 77.56519749395811,479.0979097909791 L 76.87410296702032,480.3980398039804 L 75.36995605544986,481.6481648164816 L 73.60156711887377,482.7482748274827 L 72.11774651691911,483.3483348334833 L 70.49164174765374,484.39843984398436 L 68.90618959762001,486.048604860486 L 67.17845328027556,487.0987098709871 L 65.16614862830967,486.5486548654865 L 63.51971754942848,485.59855985598557 L 61.89361278016311,485.39853985398537 L 63.62134909750756,482.29822982298225 L 63.43841231096521,480.04800480048004 L 64.31244362444535,478.14781478147813 L 64.39374886290861,476.9476947694769 L 64.94255922253568,475.19751975197516 L 64.90190660330404,474.5474547454745 L 64.65799088791424,474.1474147414741 L 63.60102278789175,473.9473947394739 L 62.74731778402743,473.5473547354735 L 60.89762360898807,471.89718971897184 L 59.678045032039044,469.64696469646964 L 58.41781383585838,468.3968396839684 L 57.11693002044609,468.04680468046803 L 56.202246087734316,466.996699669967 L 53.17362595497757,465.09650965096506 L 51.303605470322395,464.39643964396436 L 51.161321303011675,463.39633963396335 L 51.28327916070658,462.8462846284628 L 51.56784749532802,462.39623962396234 L 53.193952264593385,461.2961296129613 L 54.49483608000568,459.6959695969597 L 55.16560429732765,459.34593459345933 L 56.933993233903735,459.04590459045903 L 59.57641348395996,456.9456945694569 L 60.369139558976826,456.49564956495647 L 60.958602537835525,456.29562956295626 L 64.63766457829843,456.49564956495647 L 65.0848433898464,456.3456345634563 L 65.572674820626,455.69556955695566 L 66.2840956571796,454.2454245424542 L 80.59381762671485,431.84318431843184 L 89.47641492882693,424.3424342434243 L 90.81795136347087,423.4923492349235 L 92.62699291927859,423.9423942394239 L 93.19612958852146,423.9423942394239 L 95.3913710270297,423.34233423342334 L 122.75058376991954,423.4923492349235 z" /><path fill-rule="evenodd" fill="#D2EBD9" stroke="#A6A6A6" stroke-width="0.25" opacity="1" d="M 122.75058376991954,423.4923492349235 L 95.3913710270297,423.34233423342334 L 93.19612958852146,423.9423942394239 L 92.62699291927859,423.9423942394239 L 90.81795136347087,423.4923492349235 L 89.47641492882693,424.3424342434243 L 80.59381762671485,431.84318431843184 L 63.37743338211776,424.09240924092404 L 63.397759691733576,423.84238423842385 L 62.36111790132691,422.2922292229223 L 58.925971576253815,419.6419641964196 L 57.29986680698844,418.69186918691867 L 54.25092036461587,415.29152915291525 L 53.2142785742092,412.6912691269127 L 52.52318404727142,411.5911591159116 L 51.24262654147494,410.7910791079108 L 50.28728998953154,410.6410641064106 L 49.14901665104578,409.49094909490947 L 48.33596426641309,409.09090909090907 L 47.36030140485387,409.1409140914091 L 45.287017824040525,409.59095909590957 L 41.12012435279802,408.49084908490846 L 40.368050897012786,407.79077907790776 L 39.1891249392954,405.99059905990595 L 38.254114696967804,405.4405440544054 L 37.502041241182575,405.4405440544054 L 36.83127302386061,405.6405640564056 L 36.26213635461773,405.4405440544054 L 35.69299968537485,404.2904290429043 L 35.652347066143214,403.3903390339034 L 36.14017849692283,403.04030403040304 L 37.786609575804015,403.1903190319032 L 38.70129350851578,402.3902390239024 L 39.16879862967958,400.39003900390037 L 39.351735416221935,398.4398439843984 L 43.45764995861699,396.78967896789675 L 45.75452294520432,396.38963896389635 L 47.868459145249304,396.3396339633963 L 48.39694319526055,396.08960896089604 L 48.742490458729435,395.68956895689564 L 49.169342960661595,393.4893489348935 L 49.027058793350875,392.2392239223922 L 48.62053260103453,391.2391239123912 L 48.559553672187086,390.68906890689067 L 48.78314307796107,390.03900390039 L 49.270974508740686,389.88898889888986 L 49.84011117798356,390.08900890089006 L 52.197963093418345,391.9391939193919 L 53.15329964536175,392.8892889288929 L 54.29157298384751,394.7894789478948 L 55.084299058864374,395.5395539553955 L 55.917677753112876,395.68956895689564 L 56.56811966081903,395.48954895489544 L 58.47879276470584,393.8893889388939 L 59.33249776857016,393.43934393439343 L 60.77566575129317,393.2893289328933 L 63.15384397634377,393.6893689368937 L 63.702654335970834,393.5893589358936 L 64.08885421867136,393.2893289328933 L 64.92223291291987,391.7891789178918 L 65.51169589177856,391.4391439143914 L 66.56866399180105,391.4391439143914 L 67.50367423412864,391.9391939193919 L 68.09313721298733,392.83928392839283 L 68.15411614183478,393.23932393239323 L 67.56465316297609,394.53945394539454 L 67.68661102067098,394.93949394939494 L 68.01183197452406,395.13951395139514 L 70.30870496111139,395.7395739573957 L 72.21937806499821,395.98959895989594 L 78.13433416320099,395.13951395139514 L 79.02869178629693,395.23952395239525 L 79.55717583630818,395.6395639563956 L 79.98402833824034,398.38983898389836 L 80.34990191132505,399.18991899189916 L 80.79708072287302,399.039903990399 L 84.82169002680482,395.78957895789574 L 86.50877372491763,393.5893589358936 L 87.36247872878195,391.9391939193919 L 96.04181293473586,397.039703970397 L 98.56227532709718,399.039903990399 L 122.56764698337719,399.039903990399 L 123.1571099622359,399.78997899789977 L 124.29538330072165,402.3902390239024 L 124.43766746803237,403.04030403040304 L 124.43766746803237,405.89058905890585 L 125.25071985266506,409.89098909890987 L 125.00680413727525,411.54115411541153 L 125.39300401997578,412.0912091209121 L 126.145077475761,412.6912691269127 L 125.98246699883447,413.4913491349135 L 125.21006723343342,414.24142414241425 L 124.43766746803237,415.49154915491545 L 125.27104616228087,416.8416841684168 L 125.21006723343342,418.19181918191816 L 124.62060425457472,419.49194919491947 L 123.27906781993079,421.0921092109211 L 123.09613103338843,421.4921492149215 L 123.1571099622359,422.6922692269227 L 122.97417317569354,423.44234423442344 L 122.75058376991954,423.4923492349235 z" /><path fill-rule="evenodd" fill="#D2EBD9" stroke="#A6A6A6" stroke-width="0.25" opacity="1" d="M 122.56764698337719,399.039903990399 L 98.56227532709718,399.039903990399 L 96.04181293473586,397.039703970397 L 87.36247872878195,391.9391939193919 L 86.7120368210758,387.3387338733873 L 85.18756359988951,382.2382238223822 L 85.08593205181043,381.08810881088107 L 85.24854252873698,380.38803880388036 L 86.61040527299672,379.5379537953795 L 86.95595253646562,379.037903790379 L 88.39912051918863,373.2373237323732 L 89.51706754805856,371.88718871887187 L 90.2691410038438,369.48694869486945 L 90.22848838461216,368.4368436843684 L 89.96424635960655,367.88678867886784 L 89.41543599997948,367.58675867586754 L 87.15921563262378,366.78667866786674 L 85.83800550759567,367.28672867286724 L 84.55744800179919,367.28672867286724 L 83.90700609409305,366.8366836683668 L 83.29721680561853,366.03660366036604 L 82.09796453828532,363.3863386338634 L 81.58980679788989,362.7362736273627 L 81.06132274787865,362.4362436243624 L 80.47185976901996,362.2362236223622 L 79.51652321707655,362.2362236223622 L 76.69116618047796,362.986298629863 L 75.71550331891875,362.88628862886287 L 75.22767188813914,362.58625862586257 L 73.8861354534952,361.28612861286126 L 71.83317818229767,359.9359935993599 L 70.9184942495859,358.88588858885885 L 70.16642079380067,357.48574857485744 L 69.45499995724708,353.9353935393539 L 69.27206317070473,351.88518851885186 L 69.45499995724708,350.5350535053505 L 70.10544186495322,349.38493849384935 L 71.04045210728081,348.5348534853485 L 71.69089401498695,346.984698469847 L 72.5649253284671,346.2846284628463 L 72.8088410438569,345.73457345734573 L 72.8088410438569,344.6344634463446 L 72.13807282653494,342.18421842184216 L 71.56893615729206,341.28412841284126 L 71.3859993707497,340.1340134013401 L 71.87383080152931,337.6837683768377 L 71.93480973037677,335.5335533553355 L 72.60557794769873,333.3333333333333 L 72.38198854192474,332.7332733273327 L 70.61359960534865,330.48304830483045 L 69.98348400725833,330.18301830183015 L 67.97117935529242,329.7329732973297 L 67.38171637643373,329.28292829282924 L 66.14181148986889,327.5827582758276 L 65.97920101294235,326.93269326932693 L 66.06050625140561,326.43264326432643 L 66.44670613410614,326.032603260326 L 68.35737923799296,325.1825182518252 L 68.92651590723582,324.38243824382437 L 69.69891567263689,323.7323732373237 L 73.96744069195847,323.68236823682366 L 75.12604034006004,323.9323932393239 L 76.28463998816163,323.7323732373237 L 78.47988142666988,321.9321932193219 L 81.02067012864701,320.8320832083208 L 85.61441610182167,319.7319731973197 L 106.12366250418115,319.7319731973197 L 106.02203095610206,320.08200820082004 L 106.32692560033932,322.98229822982296 L 107.64813572536744,326.1826182618262 L 119.17315327753573,343.68436843684367 L 121.73426828912869,349.98499849984995 L 122.20177341029249,352.5352535253525 L 122.32373126798738,355.13551355135513 L 121.89687876605522,357.88578857885784 L 121.89687876605522,359.035903590359 L 122.50666805452974,359.88598859885985 L 124.66125687380635,360.38603860386036 L 144.3167982723015,360.18601860186016 L 144.0728825569117,364.986498649865 L 143.05656707612084,367.18671867186714 L 141.87764111840346,368.3368336833683 L 141.32883075877638,370.08700870087006 L 140.17023111067482,371.037103710371 L 139.41815765488957,372.8372837283728 L 138.2392316971722,373.93739373937393 L 136.7350847856017,374.73747374737474 L 134.03168560669803,375.63756375637564 L 133.5032015566868,375.6875687568757 L 133.035696435523,375.53755375537554 L 132.24297036050615,374.83748374837484 L 131.8364441681898,374.7874787478748 L 131.42991797587345,375.2875287528753 L 130.0477289219979,377.88778877887785 L 131.32828642779438,378.7378737873787 L 131.32828642779438,379.1379137913791 L 130.33229725661934,379.68796879687966 L 129.51924487198664,380.6380638063806 L 128.9704345123596,381.8881888188819 L 128.60456093927488,383.8883888388839 L 127.71020331617892,384.73847384738474 L 126.59225628730898,385.03850385038504 L 125.75887759306048,386.6386638663866 L 122.77091007953537,389.18891889188916 L 122.30340495837157,390.3390339033903 L 122.12046817182922,391.8891889188919 L 121.00252114295928,395.8395839583958 L 121.32774209681234,397.4397439743974 L 122.56764698337719,399.039903990399 z" /><g><path fill-rule="evenodd" fill="#D2EBD9" stroke="#A6A6A6" stroke-width="0.25" opacity="1" d="M 127.34432974309422,332.8332833283328 L 126.53127735846154,332.28322832283226 L 125.37267771035995,329.48294829482944 L 124.94582520842779,327.982798279828 L 124.96615151804362,326.63266326632663 L 125.7792039026763,325.2825282528253 L 127.03943509885696,324.88248824882487 L 128.44195046234833,325.1325132513251 L 129.76316058737646,325.8825882588259 L 130.73882344893568,327.0827082708271 L 131.42991797587345,328.63286328632864 L 131.63318107203162,330.28302830283025 L 131.12502333163619,331.58315831583155 L 130.12903416046115,332.2332233223322 L 128.70619248735397,332.7332733273327 L 127.34432974309422,332.8332833283328 z" /><path fill-rule="evenodd" fill="#D2EBD9" stroke="#A6A6A6" stroke-width="0.25" opacity="1" d="M 119.05119541984084,334.2334233423342 L 117.79096422366017,333.18331833183316 L 117.93324839097089,332.1332133213321 L 121.20578423911745,328.23282328232824 L 122.14079448144503,328.23282328232824 L 123.44167829685733,329.48294829482944 L 124.03114127571602,331.7331733173317 L 123.1774362718517,333.68336833683367 L 121.34806840642817,334.7334733473347 L 119.05119541984084,334.2334233423342 z" /></g><path fill-rule="evenodd" fill="#D2EBD9" stroke="#A6A6A6" stroke-width="0.25" opacity="1" d="M 61.89361278016311,485.39853985398537 L 60.226855391666106,485.69856985698567 L 58.3161822877793,486.2986298629863 L 56.202246087734316,486.4986498649865 L 54.67777286654803,485.8985898589859 L 53.193952264593385,484.99849984998497 L 51.24262654147494,484.5484548454845 L 48.64085891065035,484.69846984698466 L 47.421280333701326,485.09850985098507 L 46.46594378175792,485.79857985798577 L 45.713870325972685,486.9486948694869 L 44.63657591633438,489.34893489348934 L 43.47797626823281,490.44904490449045 L 39.941198395080626,492.9492949294929 L 38.823251366210684,493.3493349334933 L 38.27444100658362,493.2493249324932 L 36.72964147578153,492.39923992399235 L 34.67668420458399,492.8492849284928 L 33.80265289110386,492.8492849284928 L 32.52209538530738,491.9491949194919 L 31.9529587160645,491.7491749174917 L 29.879675135251155,492.59925992599256 L 27.623454767895456,493.19931993199316 L 23.761455940890205,496.1996199619962 L 20.63120426005437,499.34993499349935 L 19.533583540800247,500.0 L 18.314004963851218,499.94999499949995 L 17.11475269651801,499.34993499349935 L 16.159416144574607,498.2998299829983 L 16.28137400226951,494.59945994599457 L 16.586268646506763,493.7493749374937 L 17.196057934981276,493.2493249324932 L 17.988784009998145,493.6493649364936 L 18.72053115616756,493.69936993699366 L 20.06206759081149,492.59925992599256 L 20.610877950438553,492.3492349234923 L 20.63120426005437,490.5990599059906 L 19.533583540800247,485.998599859986 L 20.28565699658548,484.29842984298426 L 21.119035690833982,483.99839983998396 L 22.501224744709546,484.79847984798477 L 23.354929748573863,484.99849984998497 L 24.046024275511645,484.69846984698466 L 24.432224158212172,483.2483248324832 L 24.77777142168106,482.6482648264826 L 26.159960475556623,482.1482148214821 L 26.708770835183685,483.29832983298326 L 26.91203393134186,485.19851985198517 L 27.277907504426565,486.8486848684868 L 28.7414017967654,486.0986098609861 L 32.11556919299104,485.9485948594859 L 33.3758003891717,485.048504850485 L 34.27015801226765,483.4483448344834 L 34.55472634688909,482.59825982598255 L 34.63603158535236,481.6481648164816 L 33.94493705841458,479.84798479847984 L 34.10754753534112,478.8978897889789 L 34.69701051419981,477.997799779978 L 36.28246266423355,477.047704770477 L 36.95323088155551,476.29762976297627 L 37.86791481426728,474.5474547454745 L 39.16879862967958,473.09730973097305 L 42.238071381667964,471.8471847184718 L 42.644597573984306,471.34713471347135 L 43.64058674515934,468.84688468846883 L 44.04711293747568,467.0967096709671 L 43.59993412592771,465.7465746574657 L 41.72991364127253,462.8462846284628 L 40.55098768355514,459.84598459845984 L 40.225766729702066,458.1958195819582 L 40.18511411047043,456.59565956595657 L 41.01849280471893,455.39553955395536 L 46.140722827904845,453.1453145314531 L 49.61652177220957,449.94499449944993 L 51.24262654147494,449.34493449344933 L 52.42155249919234,447.79477947794777 L 53.66145738575718,446.9446944694469 L 54.55581500885313,445.89458945894586 L 54.69809917616385,443.89438943894385 L 54.31189929346333,440.34403440344033 L 54.53548869923731,438.7938793879388 L 56.1819197781185,434.89348934893485 L 56.71040382812975,434.1434143414341 L 58.946297885869626,431.993199319932 L 60.16587646281866,429.1429142914291 L 61.141539324377874,428.042804280428 L 62.848949332106514,427.79277927792776 L 62.848949332106514,426.1426142614261 L 63.29612814365449,424.99249924992495 L 63.37743338211776,424.09240924092404 L 80.59381762671485,431.84318431843184 L 66.2840956571796,454.2454245424542 L 65.572674820626,455.69556955695566 L 65.0848433898464,456.3456345634563 L 64.63766457829843,456.49564956495647 L 60.958602537835525,456.29562956295626 L 60.369139558976826,456.49564956495647 L 59.57641348395996,456.9456945694569 L 56.933993233903735,459.04590459045903 L 55.16560429732765,459.34593459345933 L 54.49483608000568,459.6959695969597 L 53.193952264593385,461.2961296129613 L 51.56784749532802,462.39623962396234 L 51.28327916070658,462.8462846284628 L 51.161321303011675,463.39633963396335 L 51.303605470322395,464.39643964396436 L 53.17362595497757,465.09650965096506 L 56.202246087734316,466.996699669967 L 57.11693002044609,468.04680468046803 L 58.41781383585838,468.3968396839684 L 59.678045032039044,469.64696469646964 L 60.89762360898807,471.89718971897184 L 62.74731778402743,473.5473547354735 L 63.60102278789175,473.9473947394739 L 64.65799088791424,474.1474147414741 L 64.90190660330404,474.5474547454745 L 64.94255922253568,475.19751975197516 L 64.39374886290861,476.9476947694769 L 64.31244362444535,478.14781478147813 L 63.43841231096521,480.04800480048004 L 63.62134909750756,482.29822982298225 L 61.89361278016311,485.39853985398537 z" /><path fill-rule="evenodd" fill="#D2EBD9" stroke="#A6A6A6" stroke-width="0.25" opacity="1" d="M 39.351735416221935,398.4398439843984 L 39.5549985123801,396.58965896589655 L 40.16478780085462,394.63946394639464 L 41.05914542395057,392.8892889288929 L 42.217745072052146,391.2891289128913 L 43.62026043554353,389.88898889888986 L 45.63256508750942,386.3386338633863 L 45.08375472788236,384.43844384438444 L 44.23004972401804,382.6382638263826 L 39.819240537385724,375.7875787578758 L 39.71760898930664,375.3875387538754 L 39.941198395080626,374.6874687468747 L 39.85989315661736,374.2874287428743 L 39.514345893148466,373.987398739874 L 38.55900934120506,373.5873587358736 L 38.27444100658362,373.2373237323732 L 38.15248314888872,372.3372337233723 L 38.27444100658362,370.68706870687066 L 37.74595695657238,369.78697869786976 L 36.14017849692283,371.1371137113711 L 35.55071551806413,370.2370237023702 L 35.85561016230139,364.7864786478648 L 35.774304923838116,363.986398639864 L 34.45309479881001,360.78607860786076 L 34.65635789496818,360.28602860286026 L 35.71332599499067,359.9359935993599 L 37.84758850465146,360.03600360036 L 38.88423029505814,359.88598859885985 L 39.71760898930664,358.88588858885885 L 40.083482562391346,357.88578857885784 L 40.815229708560764,347.43474347434744 L 40.59164030278678,345.13451345134513 L 39.75826160853828,342.68426842684266 L 39.77858791815409,341.68416841684166 L 40.46968244509187,340.28402840284025 L 40.71359816048168,339.3339333933393 L 40.1444614912388,337.33373337333734 L 39.5549985123801,334.08340834083407 L 37.09551504886623,328.1828182818282 L 36.87192564309225,326.0826082608261 L 36.95323088155551,323.9323932393239 L 37.44106231233512,322.88228822882286 L 39.92087208546481,320.28202820282024 L 40.71359816048168,318.1818181818182 L 41.811218879735804,313.7313731373137 L 43.03079745668483,311.8311831183118 L 45.22603889519308,311.031103110311 L 49.86043748759938,312.4312431243124 L 52.299594641497436,311.58115811581155 L 53.35656274151992,311.6311631163116 L 54.06798357807352,311.3311331133113 L 54.16961512615261,310.03100310031 L 53.60047845690973,309.03090309030904 L 53.336236431904105,308.83088308830884 L 57.076277401214455,308.03080308030803 L 57.828350856999684,307.2307230723072 L 57.54378252237825,306.1806180618062 L 56.38518287427667,304.6304630463046 L 56.10061453965523,303.5303530353035 L 56.24289870696595,299.3799379937994 L 56.38518287427667,298.8798879887989 L 57.19823525890936,297.92979297929793 L 57.645414070457335,297.1297129712971 L 57.787698237768055,296.57965796579657 L 57.80802454738387,296.1296129612961 L 56.97464585313537,294.87948794879486 L 56.791709066593015,294.07940794079406 L 56.75105644736138,292.2292229222922 L 57.25921418775681,291.2291229122912 L 58.01128764354204,291.3291329132913 L 59.16988729164362,291.1291129112911 L 59.84065550896558,290.4790479047905 L 61.62937075515749,288.028802880288 L 62.279812662863634,287.5287528752875 L 63.29612814365449,287.17871787178717 L 64.98321184176731,286.97869786978697 L 65.71495898793673,287.07870787078707 L 66.6296429206485,287.4787478747875 L 67.60530578220772,288.1788178817882 L 68.94684221685165,288.3788378837884 L 69.94283138802669,287.978797879788 L 71.69089401498695,286.5286528652865 L 71.97546234960839,286.5286528652865 L 72.95112521116762,287.17871787178717 L 73.47960926117887,287.3287328732873 L 74.90245093428607,289.22892289228923 L 76.58953463239888,292.1292129212921 L 77.30095546895248,292.87928792879285 L 78.25629202089588,293.37933793379335 L 80.08565988631943,293.67936793679365 L 82.17926977674858,294.4294429442944 L 84.35418490564102,295.97959795979597 L 87.40313134801359,296.6296629662966 L 87.74867861148248,296.8296829682968 L 88.27716266149372,297.6297629762976 L 88.7243414730417,299.0799079907991 L 90.41142517115452,300.9300930093009 L 90.16750945576472,301.4301430143014 L 89.53739385767439,301.78017801780175 L 88.94793087881568,301.78017801780175 L 87.50476289609267,301.38013801380134 L 85.95996336529058,301.4301430143014 L 84.43549014410429,301.8301830183018 L 82.15894346713277,303.030303030303 L 79.6994600036189,303.08030803080305 L 79.0896707151444,303.4303430343034 L 77.62617642280556,305.4305430543054 L 77.3212817785683,306.3806380638064 L 76.99606082471523,308.7808780878088 L 75.1870192689075,311.08110811081104 L 74.25200902657991,313.031303130313 L 73.41863033233142,313.88138813881386 L 72.52427270923546,314.38143814381436 L 70.53229436688538,314.58145814581457 L 69.82087353033178,314.88148814881487 L 69.31271578993636,315.38153815381537 L 69.04847376493073,316.1316131613161 L 68.82488435915674,318.4818481848185 L 69.90217876879505,320.2320232023202 L 73.96744069195847,323.68236823682366 L 69.69891567263689,323.7323732373237 L 68.92651590723582,324.38243824382437 L 68.35737923799296,325.1825182518252 L 66.44670613410614,326.032603260326 L 66.06050625140561,326.43264326432643 L 65.97920101294235,326.93269326932693 L 66.14181148986889,327.5827582758276 L 67.38171637643373,329.28292829282924 L 67.97117935529242,329.7329732973297 L 69.98348400725833,330.18301830183015 L 70.61359960534865,330.48304830483045 L 72.38198854192474,332.7332733273327 L 72.60557794769873,333.3333333333333 L 71.93480973037677,335.5335533553355 L 71.87383080152931,337.6837683768377 L 71.3859993707497,340.1340134013401 L 71.56893615729206,341.28412841284126 L 72.13807282653494,342.18421842184216 L 72.8088410438569,344.6344634463446 L 72.8088410438569,345.73457345734573 L 72.5649253284671,346.2846284628463 L 71.69089401498695,346.984698469847 L 71.04045210728081,348.5348534853485 L 70.10544186495322,349.38493849384935 L 69.45499995724708,350.5350535053505 L 69.27206317070473,351.88518851885186 L 69.45499995724708,353.9353935393539 L 70.16642079380067,357.48574857485744 L 70.9184942495859,358.88588858885885 L 71.83317818229767,359.9359935993599 L 73.8861354534952,361.28612861286126 L 75.22767188813914,362.58625862586257 L 75.71550331891875,362.88628862886287 L 76.69116618047796,362.986298629863 L 79.51652321707655,362.2362236223622 L 80.47185976901996,362.2362236223622 L 81.06132274787865,362.4362436243624 L 81.58980679788989,362.7362736273627 L 82.09796453828532,363.3863386338634 L 83.29721680561853,366.03660366036604 L 83.90700609409305,366.8366836683668 L 84.55744800179919,367.28672867286724 L 85.83800550759567,367.28672867286724 L 87.15921563262378,366.78667866786674 L 89.41543599997948,367.58675867586754 L 89.96424635960655,367.88678867886784 L 90.22848838461216,368.4368436843684 L 90.2691410038438,369.48694869486945 L 89.51706754805856,371.88718871887187 L 88.39912051918863,373.2373237323732 L 86.95595253646562,379.037903790379 L 86.61040527299672,379.5379537953795 L 85.24854252873698,380.38803880388036 L 85.08593205181043,381.08810881088107 L 85.18756359988951,382.2382238223822 L 86.7120368210758,387.3387338733873 L 87.36247872878195,391.9391939193919 L 86.50877372491763,393.5893589358936 L 84.82169002680482,395.78957895789574 L 80.79708072287302,399.039903990399 L 80.34990191132505,399.18991899189916 L 79.98402833824034,398.38983898389836 L 79.55717583630818,395.6395639563956 L 79.02869178629693,395.23952395239525 L 78.13433416320099,395.13951395139514 L 72.21937806499821,395.98959895989594 L 70.30870496111139,395.7395739573957 L 68.01183197452406,395.13951395139514 L 67.68661102067098,394.93949394939494 L 67.56465316297609,394.53945394539454 L 68.15411614183478,393.23932393239323 L 68.09313721298733,392.83928392839283 L 67.50367423412864,391.9391939193919 L 66.56866399180105,391.4391439143914 L 65.51169589177856,391.4391439143914 L 64.92223291291987,391.7891789178918 L 64.08885421867136,393.2893289328933 L 63.702654335970834,393.5893589358936 L 63.15384397634377,393.6893689368937 L 60.77566575129317,393.2893289328933 L 59.33249776857016,393.43934393439343 L 58.47879276470584,393.8893889388939 L 56.56811966081903,395.48954895489544 L 55.917677753112876,395.68956895689564 L 55.084299058864374,395.5395539553955 L 54.29157298384751,394.7894789478948 L 53.15329964536175,392.8892889288929 L 52.197963093418345,391.9391939193919 L 49.84011117798356,390.08900890089006 L 49.270974508740686,389.88898889888986 L 48.78314307796107,390.03900390039 L 48.559553672187086,390.68906890689067 L 48.62053260103453,391.2391239123912 L 49.027058793350875,392.2392239223922 L 49.169342960661595,393.4893489348935 L 48.742490458729435,395.68956895689564 L 48.39694319526055,396.08960896089604 L 47.868459145249304,396.3396339633963 L 45.75452294520432,396.38963896389635 L 43.45764995861699,396.78967896789675 L 39.351735416221935,398.4398439843984 z" /><path fill-rule="evenodd" fill="#D2EBD9" stroke="#A6A6A6" stroke-width="0.25" opacity="1" d="M 53.336236431904105,308.83088308830884 L 51.71013166263874,307.83078307830783 L 51.24262654147494,306.7806780678068 L 50.28728998953154,306.6306630663066 L 50.0027216549101,306.1306130613061 L 49.96206903567847,304.58045804580456 L 49.413258676051406,303.78037803780376 L 47.50258557216459,303.030303030303 L 46.791164735611,302.38023802380235 L 45.815501874051776,300.88008800880084 L 44.51461805863948,299.5799579957996 L 43.09177638553228,298.6798679867987 L 41.709587331656714,298.3798379837984 L 40.06315625277553,299.1799179917992 L 39.29075648737448,299.22992299229924 L 37.11584135848205,298.72987298729873 L 36.38409421231263,297.8797879787979 L 35.34745242190596,295.67956795679567 L 33.17253729301353,294.4294429442944 L 32.481442766075745,293.8293829382938 L 31.97328502568032,293.07930793079305 L 31.343169427589988,293.029302930293 L 30.326853946799133,294.77947794779476 L 29.879675135251155,295.2295229522952 L 29.29021215639246,295.37953795379536 L 27.826717864053627,295.07950795079506 L 26.20061309478826,294.029402940294 L 25.163971304381587,295.3295329532953 L 24.737118802449427,295.4295429542954 L 23.334603438958045,294.4294429442944 L 22.66383522163608,293.5293529352935 L 20.753162117749273,289.6789678967897 L 18.476615440777756,286.27862786278627 L 17.643236746529254,284.57845784578456 L 17.419647340755265,283.4283428342834 L 17.785520913839974,278.7278727872787 L 18.192047106156316,278.027802780278 L 19.899457113884953,276.9276927692769 L 21.423930335071237,275.5275527552755 L 21.9727406946983,273.9273927392739 L 21.667846050461044,272.17721772177214 L 19.960436042732404,268.2268226822682 L 18.984773181173185,261.12611261126114 L 19.045752110020636,259.97599759976 L 19.30999413502626,258.9258925892589 L 19.79782556580587,257.8257825782578 L 20.814141046596724,256.3256325632563 L 20.997077833139077,255.57555755575555 L 20.671856879286004,254.67546754675467 L 18.78151008501501,254.12541254125412 L 17.216384244597094,252.1252125212521 L 16.078110906111338,249.62496249624962 L 15.183753283015383,245.97459745974595 L 29.85934882563534,246.9246924692469 L 30.225222398720046,246.7246724672467 L 30.591095971804755,246.3246324632463 L 30.895990616042013,245.37453745374535 L 30.916316925657828,244.72447244724472 L 30.63174859103639,243.37433743374336 L 30.692727519883842,242.6242624262426 L 33.2538425314768,236.7236723672367 L 34.00591598726203,235.77357735773577 L 37.766283266188196,232.023202320232 L 39.49401958353265,231.023102310231 L 42.01448197589397,228.1228122812281 L 43.132429004763914,229.42294229422941 L 45.22603889519308,231.3231323132313 L 45.530933539430336,232.9232923292329 L 45.51060722981452,233.5233523352335 L 45.104081037498176,234.57345734573457 L 45.18538627596144,235.02350235023502 L 45.7341966355885,236.4236423642364 L 47.07573307023243,236.97369736973695 L 47.60421712024368,237.67376737673766 L 48.76281676834525,239.92399239923992 L 49.20999557989323,241.37413741374135 L 50.20598475106827,243.024302430243 L 50.69381618184788,244.47444744474447 L 50.734468801079515,245.22452245224522 L 49.90109010683101,246.97469746974696 L 50.06370058375755,247.6247624762476 L 50.93773189723768,247.8247824782478 L 52.66546821458214,246.6246624662466 L 53.336236431904105,246.47464746474645 L 54.10863619730515,246.6246624662466 L 55.470498941564905,247.9247924792479 L 56.16159346850269,249.22492249224922 L 57.90965609546296,250.37503750375035 L 58.397487526242564,251.17511751175115 L 58.946297885869626,252.57525752575256 L 59.92196074742885,253.57535753575357 L 60.87729729937225,253.62536253625362 L 62.80829671287488,254.62546254625462 L 65.22712755715712,255.37553755375535 L 65.81659053601581,256.4256425642564 L 66.8735586360383,256.9256925692569 L 67.56465316297609,257.5257525752575 L 68.82488435915674,259.025902590259 L 70.00381031687414,260.92609260926093 L 70.83718901112265,261.5761576157616 L 71.77219925345022,261.976197619762 L 72.76818842462527,262.67626762676264 L 73.21536723617324,263.87638763876384 L 74.31298795542736,264.9264926492649 L 78.8660813093704,267.17671767176716 L 79.65880738438727,267.9267926792679 L 80.7564281036414,270.0770077007701 L 83.21591156715526,272.07720772077204 L 83.84602716524559,272.37723772377234 L 83.88667978447722,272.9272927292729 L 83.56145883062415,273.77737773777375 L 81.48817524981081,276.2276227622762 L 80.2889229824776,278.027802780278 L 79.51652321707655,278.4778477847785 L 77.84976582857955,278.7778777877788 L 74.31298795542736,278.3278327832783 L 73.33732509386815,278.5278527852785 L 73.01210414001507,278.8778877887789 L 72.5649253284671,280.22802280228024 L 72.62590425731455,282.2282228222822 L 73.47960926117887,287.3287328732873 L 72.95112521116762,287.17871787178717 L 71.97546234960839,286.5286528652865 L 71.69089401498695,286.5286528652865 L 69.94283138802669,287.978797879788 L 68.94684221685165,288.3788378837884 L 67.60530578220772,288.1788178817882 L 66.6296429206485,287.4787478747875 L 65.71495898793673,287.07870787078707 L 64.98321184176731,286.97869786978697 L 63.29612814365449,287.17871787178717 L 62.279812662863634,287.5287528752875 L 61.62937075515749,288.028802880288 L 59.84065550896558,290.4790479047905 L 59.16988729164362,291.1291129112911 L 58.01128764354204,291.3291329132913 L 57.25921418775681,291.2291229122912 L 56.75105644736138,292.2292229222922 L 56.791709066593015,294.07940794079406 L 56.97464585313537,294.87948794879486 L 57.80802454738387,296.1296129612961 L 57.787698237768055,296.57965796579657 L 57.645414070457335,297.1297129712971 L 57.19823525890936,297.92979297929793 L 56.38518287427667,298.8798879887989 L 56.24289870696595,299.3799379937994 L 56.10061453965523,303.5303530353035 L 56.38518287427667,304.6304630463046 L 57.54378252237825,306.1806180618062 L 57.828350856999684,307.2307230723072 L 57.076277401214455,308.03080308030803 L 53.336236431904105,308.83088308830884 z" /><path fill-rule="evenodd" fill="#D2EBD9" stroke="#A6A6A6" stroke-width="0.25" opacity="1" d="M 15.183753283015383,245.97459745974595 L 14.350374588766883,242.57425742574256 L 13.23242755989694,240.07400740074007 L 11.443712313705035,239.12391239123912 L 10.28511266560346,238.92389238923892 L 9.776954925208031,238.2238223822382 L 9.675323377128946,236.07360736073605 L 9.390755042507505,234.57345734573457 L 8.577702657874822,234.02340234023401 L 6.260503361671671,233.67336733673366 L 3.740040969310349,231.67316731673165 L 2.9473148942934815,231.57315731573155 L 1.7683889365760888,231.97319731973195 L 0.8740313134801359,232.023202320232 L 0.2642420250056225,231.5231523152315 L 0.0,230.22302230223022 L 0.731747146169416,228.17281728172816 L 2.7237254885194933,227.7227722772277 L 5.020598475106827,227.67276727672765 L 6.68735586360383,226.9226922692269 L 9.065534088654433,223.57235723572356 L 9.411081352123324,222.77227722772275 L 8.882597302112078,222.07220722072205 L 6.565398005908928,220.97209720972097 L 5.894629788586963,220.27202720272027 L 6.260503361671671,218.5218521852185 L 8.069544917479394,217.7217721772177 L 10.366417904066727,217.2217221722172 L 12.297417317569353,216.52165216521652 L 13.212101250281124,215.72157215721572 L 16.34235293111696,211.87118711871187 L 16.728552813817483,209.9209920992099 L 17.11475269651801,208.9208920892089 L 17.622910436913436,208.47084708470845 L 18.761183775399196,208.5208520852085 L 19.269341515794622,208.27082708270825 L 19.63521508887933,207.7207720772077 L 19.30999413502626,203.77037703770375 L 19.63521508887933,202.77027702770275 L 21.098709381218164,200.87008700870086 L 22.25730902931974,201.17011701170117 L 24.208634752438183,204.37043704370436 L 25.0623397563025,205.3205320532053 L 25.936371069782638,205.77057705770576 L 28.111286198675067,206.42064206420642 L 28.680422867917947,206.97069706970697 L 29.29021215639246,208.6208620862086 L 29.92032775448279,208.97089708970896 L 30.814685377578744,208.2208220822082 L 32.766011100697185,204.5204520452045 L 33.82297920071968,203.2203220322032 L 37.27845183540859,201.32013201320132 L 38.680967198899964,200.2200220022002 L 39.372061725837746,198.36983698369835 L 39.067167081600495,195.16951695169516 L 39.33140910660612,193.96939693969395 L 40.89653494702403,191.36913691369136 L 41.425018997035274,190.8190819081908 L 42.88851328937411,189.96899689968996 L 43.49830257784862,189.2189218921892 L 43.66091305477516,190.4190419041904 L 42.929165908605746,193.6193619361936 L 41.973829356662335,196.26962696269626 L 41.851871498967434,197.16971697169717 L 42.563292335521034,200.4200420042004 L 42.116113523973056,202.97029702970295 L 42.522639716289405,204.8204820482048 L 42.400681858594496,205.57055705570556 L 42.116113523973056,206.27062706270627 L 40.87620863740821,208.17081708170815 L 39.656630060459186,211.02110211021102 L 37.68497802772493,213.17131713171315 L 37.054862429634596,214.4214421442144 L 36.97355719117133,214.97149714971496 L 37.786609575804015,216.8216821682168 L 37.96954636234637,218.97189718971896 L 38.90455660467396,220.57205720572057 L 39.00618815275304,221.32213221322132 L 38.823251366210684,222.67226722672265 L 39.107819700832124,223.27232723272326 L 39.961524704696444,224.2224222422242 L 40.59164030278678,225.87258725872587 L 41.60795578357763,227.2227222722272 L 42.01448197589397,228.1228122812281 L 39.49401958353265,231.023102310231 L 37.766283266188196,232.023202320232 L 34.00591598726203,235.77357735773577 L 33.2538425314768,236.7236723672367 L 30.692727519883842,242.6242624262426 L 30.63174859103639,243.37433743374336 L 30.916316925657828,244.72447244724472 L 30.895990616042013,245.37453745374535 L 30.591095971804755,246.3246324632463 L 30.225222398720046,246.7246724672467 L 29.85934882563534,246.9246924692469 L 15.183753283015383,245.97459745974595 z" /><path fill-rule="evenodd" fill="#D2EBD9" stroke="#A6A6A6" stroke-width="0.25" opacity="1" d="M 106.12366250418115,319.7319731973197 L 85.61441610182167,319.7319731973197 L 81.02067012864701,320.8320832083208 L 78.47988142666988,321.9321932193219 L 76.28463998816163,323.7323732373237 L 75.12604034006004,323.9323932393239 L 73.96744069195847,323.68236823682366 L 69.90217876879505,320.2320232023202 L 68.82488435915674,318.4818481848185 L 69.04847376493073,316.1316131613161 L 69.31271578993636,315.38153815381537 L 69.82087353033178,314.88148814881487 L 70.53229436688538,314.58145814581457 L 72.52427270923546,314.38143814381436 L 73.41863033233142,313.88138813881386 L 74.25200902657991,313.031303130313 L 75.1870192689075,311.08110811081104 L 76.99606082471523,308.7808780878088 L 77.3212817785683,306.3806380638064 L 77.62617642280556,305.4305430543054 L 79.0896707151444,303.4303430343034 L 79.6994600036189,303.08030803080305 L 82.15894346713277,303.030303030303 L 84.43549014410429,301.8301830183018 L 85.95996336529058,301.4301430143014 L 87.50476289609267,301.38013801380134 L 88.94793087881568,301.78017801780175 L 89.53739385767439,301.78017801780175 L 90.16750945576472,301.4301430143014 L 90.41142517115452,300.9300930093009 L 88.7243414730417,299.0799079907991 L 88.27716266149372,297.6297629762976 L 87.74867861148248,296.8296829682968 L 87.40313134801359,296.6296629662966 L 84.35418490564102,295.97959795979597 L 82.17926977674858,294.4294429442944 L 80.08565988631943,293.67936793679365 L 78.25629202089588,293.37933793379335 L 77.30095546895248,292.87928792879285 L 76.58953463239888,292.1292129212921 L 74.90245093428607,289.22892289228923 L 73.47960926117887,287.3287328732873 L 72.62590425731455,282.2282228222822 L 72.5649253284671,280.22802280228024 L 73.01210414001507,278.8778877887789 L 73.33732509386815,278.5278527852785 L 74.31298795542736,278.3278327832783 L 77.84976582857955,278.7778777877788 L 79.51652321707655,278.4778477847785 L 80.2889229824776,278.027802780278 L 81.48817524981081,276.2276227622762 L 83.56145883062415,273.77737773777375 L 83.88667978447722,272.9272927292729 L 83.84602716524559,272.37723772377234 L 83.21591156715526,272.07720772077204 L 80.7564281036414,270.0770077007701 L 79.65880738438727,267.9267926792679 L 78.8660813093704,267.17671767176716 L 78.92706023821785,263.97639763976395 L 79.37423904976583,262.7262726272627 L 80.71577548440976,260.62606260626063 L 80.71577548440976,258.9258925892589 L 81.46784894019498,258.1258125812581 L 82.52481704021748,257.57575757575756 L 83.01264847099709,257.67576757675766 L 83.7443956171665,258.37583758375837 L 84.53712169218338,260.7760776077608 L 84.78103740757318,260.976097609761 L 87.72835230186666,261.7761776177618 L 87.87063646917738,261.42614261426144 L 87.50476289609267,259.7759775977598 L 87.5250892057085,259.1759175917592 L 87.7690049210983,258.5258525852585 L 88.134878494183,258.2258225822582 L 89.94392004999072,258.025802580258 L 90.28946731345961,257.5257525752575 L 91.00088815001321,253.52535253525352 L 90.43175148077033,251.57515751575156 L 90.37077255192288,250.57505750575055 L 91.65133005771936,245.6245624562456 L 92.20014041734643,237.07370737073705 L 94.09048721161741,237.97379737973796 L 96.36703388858894,238.37383738373836 L 98.9484752097977,239.47394739473947 L 104.37559987722088,242.6242624262426 L 120.37240554486894,242.6242624262426 L 120.0878372102475,242.97429742974296 L 118.01455362943416,247.6247624762476 L 117.87226946212344,252.9252925292529 L 118.27879565443978,258.37583758375837 L 114.82332301975087,288.72887288728873 L 106.12366250418115,319.7319731973197 z" /><path fill-rule="evenodd" fill="#D2EBD9" stroke="#A6A6A6" stroke-width="0.25" opacity="1" d="M 120.37240554486894,242.6242624262426 L 104.37559987722088,242.6242624262426 L 98.9484752097977,239.47394739473947 L 96.36703388858894,238.37383738373836 L 94.09048721161741,237.97379737973796 L 92.20014041734643,237.07370737073705 L 91.14317231732393,236.1236123612361 L 92.09850886926733,231.37313731373135 L 91.9358983923408,229.57295729572957 L 91.36676172309792,228.6228622862286 L 91.4480669615612,228.4228422842284 L 92.62699291927859,227.6227622762276 L 95.45234995587717,224.82248224822482 L 96.48899174628384,224.07240724072406 L 96.97682317706345,223.9223922392239 L 98.11509651554921,224.07240724072406 L 100.75751676560543,225.42254225422542 L 101.12339033869014,225.37253725372537 L 101.5502428406223,225.07250725072507 L 101.73317962716465,224.4224422442244 L 101.65187438870139,222.7222722272227 L 101.85513748485955,222.17221722172215 L 102.79014772718715,221.5221522152215 L 103.03406344257695,221.17211721172117 L 103.05438975219276,220.52205220522052 L 102.76982141757132,219.97199719971997 L 102.44460046371825,219.7219721972197 L 100.22903271559419,218.97189718971896 L 99.5379381886564,218.3218321832183 L 99.39565402134568,216.52165216521652 L 98.7045594944079,215.82158215821582 L 96.97682317706345,215.12151215121511 L 96.12311817319913,214.5214521452145 L 95.45234995587717,213.57135713571355 L 95.51332888472461,212.7212721272127 L 95.83854983857769,212.4212421242124 L 96.36703388858894,212.37123712371235 L 99.70054866558294,213.87138713871386 L 100.9607798617636,214.021402140214 L 101.61122176946975,213.77137713771376 L 104.35527356760505,209.87098709870986 L 108.23759870422613,206.07060706070607 L 109.11163001770626,205.020502050205 L 111.20523990813543,201.22012201220122 L 113.1972182504855,198.26982698269825 L 114.19320742166055,197.21972197219722 L 114.94528087744578,196.71967196719672 L 115.55507016592028,197.11971197119712 L 116.8762802909484,198.56985698569855 L 118.2991219640556,199.4199419941994 L 129.98674999315043,199.06990699069905 L 137.99531598178237,235.37353735373537 L 135.84072716250577,236.17361736173615 L 133.70646465284497,236.47364736473645 L 125.67757235459722,236.37363736373635 L 124.66125687380635,236.57365736573655 L 123.80755186994203,237.17371737173715 L 123.44167829685733,238.27382738273826 L 122.16112079106085,240.57405740574055 L 121.42937364489144,241.57415741574155 L 120.37240554486894,242.6242624262426 z" /><path fill-rule="evenodd" fill="#D2EBD9" stroke="#A6A6A6" stroke-width="0.25" opacity="1" d="M 137.99531598178237,235.37353735373537 L 129.98674999315043,199.06990699069905 L 130.7591497585515,187.21872187218722 L 130.73882344893568,184.5184518451845 L 131.16567595086784,177.96779677967797 L 132.06003357396378,173.41734173417342 L 133.80809620092407,168.21682168216822 L 141.0849150433866,158.41584158415841 L 141.89796742801926,157.66576657665766 L 143.80864053190606,156.8156815681568 L 145.92257673195107,155.2155215521552 L 163.7894028842543,155.2155215521552 L 163.87070812271756,155.7155715571557 L 163.5454871688645,156.66566656665665 L 163.50483454963285,157.7157715771577 L 164.17560276695482,159.11591159115912 L 164.27723431503392,159.8159815981598 L 164.58212895927116,160.16601660166015 L 165.31387610544058,160.01600160016 L 166.02529694199418,159.56595659565957 L 167.75303325933865,157.86578657865786 L 168.4238014766606,156.7156715671567 L 168.81000135936114,156.4156415641564 L 173.20048423637763,154.96549654965494 L 174.09484185947358,154.76547654765477 L 175.0705047210328,154.96549654965494 L 175.98518865374456,155.46554655465545 L 177.63161973262575,157.2157215721572 L 179.84718748074982,158.3158315831583 L 180.5382820076876,159.16591659165917 L 180.8838292711565,160.9160916091609 L 180.59926093653505,163.56635663566357 L 181.71720796540498,164.9164916491649 L 182.59123927888513,165.5165516551655 L 183.93277571352905,166.016601660166 L 187.04270108474907,166.76667666766676 L 190.43719479059052,167.06670667066706 L 191.83971015408193,167.56675667566756 L 193.60809909065802,168.96689668966897 L 179.31870343073857,187.11871187118712 L 175.11115734026444,195.26952695269526 L 151.817206520538,223.2223222322232 L 139.9059890856692,234.17341734173417 L 137.99531598178237,235.37353735373537 z" /><path fill-rule="evenodd" fill="#D2EBD9" stroke="#A6A6A6" stroke-width="0.25" opacity="1" d="M 193.60809909065802,168.96689668966897 L 191.83971015408193,167.56675667566756 L 190.43719479059052,167.06670667066706 L 187.04270108474907,166.76667666766676 L 183.93277571352905,166.016601660166 L 182.59123927888513,165.5165516551655 L 181.71720796540498,164.9164916491649 L 180.59926093653505,163.56635663566357 L 180.8838292711565,160.9160916091609 L 180.5382820076876,159.16591659165917 L 179.84718748074982,158.3158315831583 L 177.63161973262575,157.2157215721572 L 175.98518865374456,155.46554655465545 L 175.0705047210328,154.96549654965494 L 174.09484185947358,154.76547654765477 L 173.20048423637763,154.96549654965494 L 168.81000135936114,156.4156415641564 L 168.4238014766606,156.7156715671567 L 167.75303325933865,157.86578657865786 L 166.02529694199418,159.56595659565957 L 165.31387610544058,160.01600160016 L 164.58212895927116,160.16601660166015 L 164.27723431503392,159.8159815981598 L 164.17560276695482,159.11591159115912 L 163.50483454963285,157.7157715771577 L 163.5454871688645,156.66566656665665 L 163.87070812271756,155.7155715571557 L 163.7894028842543,155.2155215521552 L 165.4561602727513,153.5153515351535 L 166.1675811093049,150.7150715071507 L 166.30986527661562,147.6147614761476 L 165.6797496785253,142.4142414241424 L 165.27322348620893,141.014101410141 L 163.6674450265594,139.71397139713972 L 161.37057203997207,135.96359635963594 L 160.9640458476557,133.76337633763376 L 159.8664251284016,131.46314631463144 L 159.48022524570106,129.76297629762976 L 158.5655413129893,127.31273127312731 L 158.36227821683113,125.96259625962595 L 157.87444678605152,124.91249124912491 L 157.3662890456561,124.41244124412441 L 158.13868881105714,122.9122912291229 L 158.60619393222095,122.61226122612261 L 159.21598322069545,122.56225622562256 L 161.00469846688736,124.012401240124 L 161.6348140649777,124.11241124112411 L 163.70809764579104,123.56235623562355 L 165.06996039005077,123.4123412341234 L 165.7000759881411,123.8123812381238 L 167.30585444779067,125.36253625362535 L 167.99694897472844,125.56255625562555 L 168.72869612089787,125.6125612561256 L 169.9686010074627,125.36253625362535 L 173.1801579267618,124.012401240124 L 174.3387575748634,123.66236623662365 L 175.02985210180117,123.66236623662365 L 177.2047672306936,124.16241624162416 L 178.64793521341662,124.96249624962496 L 179.80653486151817,125.9125912591259 L 195.9862773157086,125.6125612561256 L 195.722035290703,126.66266626662666 L 195.70170898108717,128.2128212821282 L 196.12856148301933,129.8129812981298 L 203.24276984855533,146.7146714671467 L 201.0881810292787,146.76467646764675 L 200.66132852734654,147.36473647364735 L 200.0312129292562,160.9160916091609 L 199.6653393561715,162.016201620162 L 198.93359221000208,162.96629662966296 L 195.8846457676295,166.06660666066605 L 193.60809909065802,168.96689668966897 z" /><path fill-rule="evenodd" fill="#D2EBD9" stroke="#A6A6A6" stroke-width="0.25" opacity="1" d="M 59.90163443781303,167.76677667766776 L 60.26750801089774,166.7166716671667 L 60.816318370524804,165.86658665866585 L 61.548065516694216,165.2165216521652 L 62.64568623594835,164.86648664866485 L 63.275801834038674,165.3165316531653 L 63.47906493019684,166.46664666466646 L 63.47906493019684,168.66686668666867 L 64.00754898020809,170.56705670567055 L 64.96288553215149,172.017201720172 L 66.2840956571796,172.46724672467246 L 69.65826305340525,169.8169816981698 L 71.42665198998134,169.66696669666965 L 73.21536723617324,170.3170317031703 L 76.85377665740451,172.56725672567256 L 78.58151297474896,173.01730173017302 L 80.4108808401725,172.96729672967297 L 87.01693146531306,172.1172117211721 L 87.50476289609267,172.4172417241724 L 88.21618373264627,174.06740674067404 L 88.68368885381007,174.7174717471747 L 90.69599350577596,175.56755675567555 L 95.26941316933481,175.7175717571757 L 101.46893760215903,177.91779177917792 L 103.44058963489329,177.96779677967797 L 104.84310499838467,178.96789678967895 L 105.39191535801173,179.06790679067905 L 107.16030429458782,178.11781178117812 L 107.68878834459906,177.36773677367736 L 109.13195632732209,178.51785178517852 L 109.76207192541241,178.61786178617862 L 112.72971312932171,178.11781178117812 L 113.98994432550238,177.31773177317731 L 115.02658611590904,176.86768676867686 L 115.75833326207847,176.2176217621762 L 116.4087751697846,176.16761676167616 L 117.38443803134383,176.36763676367636 L 120.96186852372765,177.81778177817782 L 125.67757235459722,181.4181418141814 L 130.73882344893568,184.5184518451845 L 130.7591497585515,187.21872187218722 L 129.98674999315043,199.06990699069905 L 118.2991219640556,199.4199419941994 L 116.8762802909484,198.56985698569855 L 115.55507016592028,197.11971197119712 L 114.94528087744578,196.71967196719672 L 114.19320742166055,197.21972197219722 L 113.1972182504855,198.26982698269825 L 111.20523990813543,201.22012201220122 L 109.11163001770626,205.020502050205 L 108.23759870422613,206.07060706070607 L 104.35527356760505,209.87098709870986 L 101.61122176946975,213.77137713771376 L 100.4932747405998,211.87118711871187 L 99.35500140211406,210.77107710771077 L 96.99714948667926,209.2209220922092 L 96.67192853282619,208.8208820882088 L 96.14344448281494,207.37073707370735 L 94.4360344750863,204.17041704170416 L 91.2244775557872,200.27002700270026 L 90.69599350577596,199.4199419941994 L 89.67967802498511,196.81968196819682 L 87.74867861148248,195.1195119511951 L 87.03725777492888,194.1194119411941 L 85.51278455374259,192.61926192619262 L 84.84201633642063,192.31923192319232 L 82.44351180175421,191.96919691969197 L 81.54915417865826,191.46914691469146 L 81.06132274787865,190.8190819081908 L 80.77675441325721,189.9189918991899 L 80.49218607863577,186.96869686968697 L 80.16696512478269,185.86858685868586 L 79.65880738438727,185.3185318531853 L 79.15064964399184,185.06850685068505 L 77.97172368627444,184.96849684968495 L 75.85778748622947,184.16841684168415 L 74.73984045735952,184.26842684268425 L 73.9877670015743,184.06840684068405 L 71.18273627459153,181.76817681768176 L 66.0401799417898,179.16791679167915 L 65.02386446099895,177.76777677767777 L 64.69864350714587,176.8176817681768 L 64.33276993406116,173.01730173017302 L 64.129506837903,172.3172317231723 L 62.72699147441161,170.1170117011701 L 61.548065516694216,169.2169216921692 L 60.97892884745134,168.36683668366837 L 59.90163443781303,167.76677667766776 z" /><path fill-rule="evenodd" fill="#D2EBD9" stroke="#A6A6A6" stroke-width="0.25" opacity="1" d="M 59.90163443781303,167.76677667766776 L 60.97892884745134,168.36683668366837 L 61.548065516694216,169.2169216921692 L 62.72699147441161,170.1170117011701 L 64.129506837903,172.3172317231723 L 64.33276993406116,173.01730173017302 L 64.69864350714587,176.8176817681768 L 65.02386446099895,177.76777677767777 L 66.0401799417898,179.16791679167915 L 71.18273627459153,181.76817681768176 L 73.9877670015743,184.06840684068405 L 74.73984045735952,184.26842684268425 L 75.85778748622947,184.16841684168415 L 77.97172368627444,184.96849684968495 L 79.15064964399184,185.06850685068505 L 79.65880738438727,185.3185318531853 L 80.16696512478269,185.86858685868586 L 80.49218607863577,186.96869686968697 L 80.77675441325721,189.9189918991899 L 81.06132274787865,190.8190819081908 L 81.54915417865826,191.46914691469146 L 82.44351180175421,191.96919691969197 L 84.84201633642063,192.31923192319232 L 85.51278455374259,192.61926192619262 L 87.03725777492888,194.1194119411941 L 87.74867861148248,195.1195119511951 L 89.67967802498511,196.81968196819682 L 90.69599350577596,199.4199419941994 L 91.2244775557872,200.27002700270026 L 94.4360344750863,204.17041704170416 L 96.14344448281494,207.37073707370735 L 96.67192853282619,208.8208820882088 L 96.99714948667926,209.2209220922092 L 99.35500140211406,210.77107710771077 L 100.4932747405998,211.87118711871187 L 101.61122176946975,213.77137713771376 L 100.9607798617636,214.021402140214 L 99.70054866558294,213.87138713871386 L 96.36703388858894,212.37123712371235 L 95.83854983857769,212.4212421242124 L 95.51332888472461,212.7212721272127 L 95.45234995587717,213.57135713571355 L 96.12311817319913,214.5214521452145 L 96.97682317706345,215.12151215121511 L 98.7045594944079,215.82158215821582 L 99.39565402134568,216.52165216521652 L 99.5379381886564,218.3218321832183 L 97.78987556169614,217.37173717371735 L 97.15975996360581,217.3217321732173 L 94.88321328663429,217.6217621762176 L 94.0701609020016,217.47174717471745 L 91.468393271177,216.22162216221622 L 90.16750945576472,215.87158715871587 L 86.93562622684979,215.52155215521552 L 86.00061598452221,216.07160716071607 L 84.9233215748839,217.3217321732173 L 83.64276406908742,218.2218221822182 L 80.12631250555106,219.5219521952195 L 78.60183928436477,219.87198719871986 L 77.62617642280556,219.92199219921991 L 73.7641775958003,219.4219421942194 L 71.56893615729206,219.37193719371936 L 70.4306628188063,219.77197719771976 L 69.69891567263689,220.42204220422042 L 69.41434733801545,221.22212221222122 L 68.60129495338276,225.42254225422542 L 68.43868447645622,225.97259725972597 L 68.11346352260314,226.12261226122612 L 67.54432685336026,226.07260726072607 L 57.645414070457335,223.27232723272326 L 53.94602572037862,223.3223322332233 L 51.019037135700955,224.82248224822482 L 50.38892153761062,225.77257725772577 L 49.00673248373506,232.3232323232323 L 49.00673248373506,233.3233323332333 L 49.39293236643559,236.1236123612361 L 48.80346938757689,236.87368736873685 L 47.60421712024368,237.67376737673766 L 47.07573307023243,236.97369736973695 L 45.7341966355885,236.4236423642364 L 45.18538627596144,235.02350235023502 L 45.104081037498176,234.57345734573457 L 45.51060722981452,233.5233523352335 L 45.530933539430336,232.9232923292329 L 45.22603889519308,231.3231323132313 L 43.132429004763914,229.42294229422941 L 42.01448197589397,228.1228122812281 L 41.60795578357763,227.2227222722272 L 40.59164030278678,225.87258725872587 L 39.961524704696444,224.2224222422242 L 39.107819700832124,223.27232723272326 L 38.823251366210684,222.67226722672265 L 39.00618815275304,221.32213221322132 L 38.90455660467396,220.57205720572057 L 37.96954636234637,218.97189718971896 L 37.786609575804015,216.8216821682168 L 36.97355719117133,214.97149714971496 L 37.054862429634596,214.4214421442144 L 37.68497802772493,213.17131713171315 L 39.656630060459186,211.02110211021102 L 40.87620863740821,208.17081708170815 L 42.116113523973056,206.27062706270627 L 42.400681858594496,205.57055705570556 L 42.522639716289405,204.8204820482048 L 42.116113523973056,202.97029702970295 L 42.563292335521034,200.4200420042004 L 41.851871498967434,197.16971697169717 L 41.973829356662335,196.26962696269626 L 42.929165908605746,193.6193619361936 L 43.66091305477516,190.4190419041904 L 43.49830257784862,189.2189218921892 L 44.37233389132876,187.51875187518752 L 45.4902809201987,185.96859685968596 L 48.66118522026617,179.5179517951795 L 49.79945855875193,177.96779677967797 L 50.61251094338461,177.31773177317731 L 53.25493119344084,176.1176117611761 L 54.08830988768934,175.36753675367535 L 55.348541083869996,172.96729672967297 L 56.059961920423596,172.4172417241724 L 57.74704561853642,171.6171617161716 L 58.47879276470584,171.06710671067106 L 59.00727681471708,170.2170217021702 L 59.90163443781303,167.76677667766776 z" /><path fill-rule="evenodd" fill="#D2EBD9" stroke="#A6A6A6" stroke-width="0.25" opacity="1" d="M 139.41815765488957,28.5028502850285 L 139.86533646643755,28.152815281528152 L 140.12957849144317,27.602760276027603 L 140.31251527798554,26.352635263526352 L 140.61740992222278,25.852585258525853 L 141.04426242415494,25.6025602560256 L 142.42645147803051,25.302530253025303 L 143.28015648189483,24.652465246524653 L 144.96724018000765,22.5022502250225 L 146.816934355047,21.052105210521052 L 148.60564960123892,20.75207520752075 L 150.47567008589408,20.9020902090209 L 152.54895366670743,20.85208520852085 L 153.9514690301988,19.801980198019802 L 154.5206056994417,17.75177517751775 L 154.56125831867334,15.4015401540154 L 154.37832153213097,13.3013301330133 L 153.64657438596157,11.5011501150115 L 152.264385332086,10.501050105010501 L 150.67893318205225,9.7009700970097 L 149.31707043779252,8.55085508550855 L 148.82923900701292,6.5006500650065 L 150.86186996859462,3.35033503350335 L 150.67893318205225,1.6501650165016502 L 151.63426973399567,0.7500750075007501 L 154.92713189175805,0.2000200020002 L 161.24861418227715,0.0 L 164.8463709842768,0.4000400040004 L 165.65942336890947,2.05020502050205 L 165.82203384583602,3.1503150315031503 L 165.74072860737274,4.45044504450445 L 165.1919182477457,6.95069506950695 L 165.25289717659314,8.000800080008 L 166.24888634776818,10.05100510051005 L 165.86268646506764,10.6010601060106 L 163.85038181310176,11.8011801180118 L 163.5454871688645,12.1012101210121 L 163.52516085924867,12.55125512551255 L 164.41951848234464,13.451345134513451 L 164.27723431503392,15.95159515951595 L 164.41951848234464,17.35173517351735 L 165.98464432276253,18.651865186518652 L 165.6797496785253,20.3020302030203 L 164.41951848234464,22.852285228522852 L 164.155276457339,24.15241524152415 L 163.97233967079666,28.5028502850285 L 162.26492966306802,30.503050305030502 L 161.37057203997207,31.003100310031 L 160.51686703610775,32.3032303230323 L 158.74847809953167,33.1033103310331 L 157.4679205937352,33.4033403340334 L 155.84181582446982,36.253625362536255 L 154.80517403406313,39.15391539153915 L 159.9883829860965,42.65426542654265 L 160.84208798996082,43.55435543554355 L 161.1876352534297,44.75447544754475 L 161.16730894381388,47.35473547354735 L 161.4112246592037,48.204820482048206 L 158.46390976491023,49.154915491549154 L 157.40694166488774,48.9048904890489 L 157.16302594949792,48.5048504850485 L 156.045078920628,48.8048804880488 L 152.56927997632326,52.655265526552654 L 150.33338591858336,42.6042604260426 L 148.4633654339282,40.904090409040904 L 145.06887172808675,37.05370537053705 L 144.6826718453862,36.4036403640364 L 144.35745089153315,35.25352535253525 L 144.49973505884387,33.65336533653365 L 144.17451410499078,33.3033303330333 L 142.2841673107198,32.25322532253225 L 141.2271992106973,31.253125312531253 L 139.41815765488957,28.5028502850285 z" /><path fill-rule="evenodd" fill="#D2EBD9" stroke="#A6A6A6" stroke-width="0.25" opacity="1" d="M 139.41815765488957,28.5028502850285 L 141.2271992106973,31.253125312531253 L 142.2841673107198,32.25322532253225 L 144.17451410499078,33.3033303330333 L 144.49973505884387,33.65336533653365 L 144.35745089153315,35.25352535253525 L 144.6826718453862,36.4036403640364 L 145.06887172808675,37.05370537053705 L 148.4633654339282,40.904090409040904 L 150.33338591858336,42.6042604260426 L 152.56927997632326,52.655265526552654 L 151.73590128207476,55.4055405540554 L 151.6952486628431,57.05570557055705 L 143.32080910112646,66.7066706670667 L 139.74337860874266,72.55725572557256 L 139.35717872604212,72.20722072207221 L 139.15391562988395,72.35723572357236 L 138.7270631279518,73.7073707370737 L 138.78804205679924,74.65746574657466 L 139.25554717796305,75.3075307530753 L 139.29619979719467,75.6075607560756 L 139.05228408180488,75.95759575957595 L 138.3815158644829,76.15761576157615 L 137.16193728753387,76.1076107610761 L 136.85704264329664,76.35763576357635 L 136.89769526252826,77.10771077107711 L 137.83270550485585,78.95789578957896 L 137.81237919524003,80.7080708070807 L 138.0156422913982,81.45814581458146 L 138.9506525337258,83.3083308330833 L 138.8490209856467,84.05840584058406 L 138.2392316971722,85.5085508550855 L 137.97498967216657,85.75857585758575 L 137.1822635971497,85.9085908590859 L 130.84045499701475,86.50865086508651 L 117.50639588903873,86.85868586858686 L 115.02658611590904,87.65876587658765 L 105.29028380993265,91.85918591859185 L 104.57886297337905,91.40914091409141 L 102.22101105794427,90.5090509050905 L 101.10306402907432,89.65896589658965 L 99.31434878288242,87.7087708770877 L 98.64358056556046,86.05860586058606 L 98.33868592132319,83.8083808380838 L 98.44031746940227,81.45814581458146 L 99.13141199634006,79.65796579657966 L 99.90381176174111,78.95789578957896 L 102.91210558488204,77.4077407740774 L 108.13596715614705,71.85718571857186 L 109.19293525616953,70.4070407040704 L 109.47750359079097,68.55685568556855 L 108.23759870422613,64.35643564356435 L 107.9733566792205,62.106210621062104 L 110.5751243100451,56.405640564056405 L 111.79470288699412,55.155515551555155 L 113.94929170627074,55.055505550555054 L 116.73399612363768,54.65546554655465 L 118.13651148712906,53.2053205320532 L 119.88457411408933,48.65486548654865 L 120.5553423314113,47.65476547654765 L 121.34806840642817,46.854685468546855 L 123.78722556032622,44.85448544854485 L 124.90517258919616,42.3042304230423 L 129.7225079681448,39.703970397039704 L 130.5355603527775,38.8038803880388 L 131.67383369126327,36.6036603660366 L 132.3039492893536,35.75357535753575 L 135.21061156441544,33.25332533253325 L 135.71876930481088,32.35323532353235 L 136.16594811635883,30.95309530953095 L 136.79606371444916,29.952995299529952 L 139.41815765488957,28.5028502850285 z" /><path fill-rule="evenodd" fill="#D2EBD9" stroke="#A6A6A6" stroke-width="0.25" opacity="1" d="M 105.29028380993265,91.85918591859185 L 115.02658611590904,87.65876587658765 L 117.50639588903873,86.85868586858686 L 130.84045499701475,86.50865086508651 L 130.45425511431424,91.40914091409141 L 130.00707630276625,92.85928592859285 L 130.00707630276625,93.65936593659366 L 130.96241285470967,94.2094209420942 L 131.67383369126327,95.15951595159515 L 131.816117858574,95.6095609560956 L 131.67383369126327,99.65996599659965 L 110.1076191888813,101.96019601960195 L 109.90435609272313,99.35993599359935 L 109.1522826369379,97.3097309730973 L 105.29028380993265,91.85918591859185 z" /><path fill-rule="evenodd" fill="#D2EBD9" stroke="#A6A6A6" stroke-width="0.25" opacity="1" d="M 110.1076191888813,101.96019601960195 L 131.67383369126327,99.65996599659965 L 131.816117858574,100.76007600760076 L 132.5478650047434,101.5101510151015 L 135.61713775673178,103.46034603460346 L 136.67410585675427,103.86038603860385 L 137.62944240869768,105.41054105410541 L 139.926315395285,112.16121612161216 L 140.9629571856917,113.7113711371137 L 141.55242016455037,113.96139613961395 L 143.30048279151066,115.46154615461546 L 145.90225042233524,115.9115911591159 L 147.22346054736335,116.56165616561655 L 149.96751234549868,118.26182618261825 L 136.6944321663701,118.96189618961895 L 135.9830113298165,118.16181618161815 L 135.29191680287872,118.26182618261825 L 135.12930632595217,118.8118811881188 L 135.29191680287872,119.46194619461946 L 135.25126418364707,120.46204620462045 L 134.8040853720991,122.11221122112211 L 133.78776989130824,123.1123112311231 L 133.035696435523,123.46234623462345 L 128.21836105657434,124.66246624662466 L 126.42964581038244,124.51245124512451 L 122.70993115068791,125.7125712571257 L 118.88858494291429,126.36263626362636 L 119.51870054100462,121.76217621762176 L 119.27478482561482,120.06200620062006 L 118.11618517751324,118.36183618361835 L 115.6770280236152,116.76167616761676 L 114.9656071870616,115.8115811581158 L 114.35581789858708,113.36133613361335 L 113.94929170627074,112.51125112511251 L 112.68906051009007,111.76117611761175 L 111.44915562352523,109.76097609760976 L 110.3312085946553,109.16091609160915 L 109.53848251963842,108.06080608060806 L 109.53848251963842,105.91059105910591 L 110.1076191888813,101.96019601960195 z" /><path fill-rule="evenodd" fill="#D2EBD9" stroke="#A6A6A6" stroke-width="0.25" opacity="1" d="M 118.88858494291429,126.36263626362636 L 122.70993115068791,125.7125712571257 L 126.42964581038244,124.51245124512451 L 128.21836105657434,124.66246624662466 L 133.035696435523,123.46234623462345 L 133.78776989130824,123.1123112311231 L 134.8040853720991,122.11221122112211 L 135.25126418364707,120.46204620462045 L 135.29191680287872,119.46194619461946 L 135.12930632595217,118.8118811881188 L 135.29191680287872,118.26182618261825 L 135.9830113298165,118.16181618161815 L 136.6944321663701,118.96189618961895 L 141.3491570683922,139.86398639863987 L 141.18654659146566,141.76417641764175 L 141.36948337800803,142.2142214221422 L 144.58104029730714,146.6146614661466 L 144.84528232231276,147.2147214721472 L 146.02420828003014,151.76517651765175 L 145.59735577809798,154.41544154415442 L 145.92257673195107,155.2155215521552 L 143.80864053190606,156.8156815681568 L 141.89796742801926,157.66576657665766 L 141.0849150433866,158.41584158415841 L 133.80809620092407,168.21682168216822 L 132.06003357396378,173.41734173417342 L 131.16567595086784,177.96779677967797 L 130.73882344893568,184.5184518451845 L 125.67757235459722,181.4181418141814 L 120.96186852372765,177.81778177817782 L 117.38443803134383,176.36763676367636 L 116.4087751697846,176.16761676167616 L 115.75833326207847,176.2176217621762 L 115.02658611590904,176.86768676867686 L 113.98994432550238,177.31773177317731 L 112.72971312932171,178.11781178117812 L 109.76207192541241,178.61786178617862 L 109.13195632732209,178.51785178517852 L 107.68878834459906,177.36773677367736 L 108.52216703884757,176.16761676167616 L 110.5751243100451,171.9171917191719 L 112.01829229276811,170.1170117011701 L 115.29082814091467,166.86668666866686 L 116.30714362170552,164.8164816481648 L 116.3884488601688,162.66626662666266 L 115.53474385630447,158.81588158815882 L 116.14453314477899,156.56565656565655 L 117.18117493518565,154.51545154515452 L 117.87226946212344,152.56525652565256 L 118.21781672559233,150.5150515051505 L 118.23814303520815,145.76457645764575 L 118.38042720251887,144.66446644664467 L 118.74630077560357,143.36433643364336 L 120.00653197178424,141.36413641364135 L 120.45371078333221,140.36403640364037 L 120.33175292563732,139.26392639263926 L 119.88457411408933,138.3138313831383 L 118.60401660829285,136.5136513651365 L 118.23814303520815,135.61356135613562 L 118.38042720251887,134.7134713471347 L 118.92923756214593,133.16331633163315 L 118.36010089290305,132.4132413241324 L 118.21781672559233,131.3131313131313 L 118.88858494291429,126.36263626362636 z" /><path fill-rule="evenodd" fill="#D2EBD9" stroke="#A6A6A6" stroke-width="0.25" opacity="1" d="M 195.9862773157086,125.6125612561256 L 179.80653486151817,125.9125912591259 L 178.64793521341662,124.96249624962496 L 177.2047672306936,124.16241624162416 L 175.02985210180117,123.66236623662365 L 174.3387575748634,123.66236623662365 L 173.1801579267618,124.012401240124 L 169.9686010074627,125.36253625362535 L 168.72869612089787,125.6125612561256 L 167.99694897472844,125.56255625562555 L 167.30585444779067,125.36253625362535 L 165.7000759881411,123.8123812381238 L 165.06996039005077,123.4123412341234 L 163.70809764579104,123.56235623562355 L 161.6348140649777,124.11241124112411 L 161.00469846688736,124.012401240124 L 159.21598322069545,122.56225622562256 L 158.60619393222095,122.61226122612261 L 158.13868881105714,122.9122912291229 L 157.3662890456561,124.41244124412441 L 154.5002793898259,121.7121712171217 L 153.28070081287686,119.71197119711971 L 152.48797473786,118.9118911891189 L 149.96751234549868,118.26182618261825 L 147.22346054736335,116.56165616561655 L 148.52434436277565,114.1114111411141 L 149.96751234549868,112.91129112911291 L 152.6302589051707,109.1109110911091 L 153.2400481936452,108.66086608660865 L 155.27267915522694,108.4108410841084 L 155.35398439369018,108.16081608160816 L 155.21170022637946,107.81078107810781 L 153.9108164109672,106.26062606260625 L 153.5652691474983,105.46054605460546 L 153.62624807634575,104.96049604960496 L 153.9108164109672,104.6104610461046 L 154.6628898667524,104.4104410441044 L 155.45561594176928,104.4104410441044 L 156.32964725524943,104.6104610461046 L 156.7564997571816,104.46044604460445 L 158.30129928798368,105.36053605360536 L 158.64684655145257,105.21052105210521 L 158.76880440914746,104.8104810481048 L 158.70782548030002,103.26032603260326 L 159.155004291848,102.56025602560256 L 161.37057203997207,101.26012601260125 L 161.79742454190423,100.66006600660066 L 162.712108474616,98.35983598359836 L 163.60646609771194,97.05970597059705 L 165.04963408043497,95.90959095909591 L 167.89531742664934,94.9094909490949 L 169.6230537439938,95.05950595059505 L 171.00524279786939,95.65956595659566 L 171.81829518250206,95.80958095809581 L 174.44038912294246,95.90959095909591 L 175.70062031912312,96.20962096209621 L 177.5706408037783,98.40984098409841 L 179.56261914612838,99.9099909990999 L 180.35534522114526,101.9101910191019 L 180.8838292711565,102.4102410241024 L 185.59953310202607,105.41054105410541 L 187.97771132707666,107.81078107810781 L 189.52251085787876,108.5108510851085 L 191.88036277331355,109.2109210921092 L 199.055550067697,109.5109510951095 L 199.23848685423934,112.26122612261226 L 195.9862773157086,125.6125612561256 z" /><path fill-rule="evenodd" fill="#D2EBD9" stroke="#A6A6A6" stroke-width="0.25" opacity="1" d="M 199.055550067697,109.5109510951095 L 191.88036277331355,109.2109210921092 L 189.52251085787876,108.5108510851085 L 187.97771132707666,107.81078107810781 L 185.59953310202607,105.41054105410541 L 180.8838292711565,102.4102410241024 L 180.35534522114526,101.9101910191019 L 179.56261914612838,99.9099909990999 L 180.11142950575544,99.1099109910991 L 179.72522962305493,98.009800980098 L 179.29837712112277,97.6097609760976 L 177.85520913839974,95.15951595159515 L 177.6925986614732,94.4094409440944 L 178.42434580764262,94.25942594259425 L 178.79021938072734,93.95939593959396 L 179.19674557304367,87.95879587958795 L 179.78620855190238,85.65856585658565 L 179.98947164806054,85.35853585358535 L 180.68056617499832,85.008500850085 L 181.22937653462537,84.25842584258426 L 181.94079737117897,84.20842084208421 L 183.89212309429743,78.9078907890789 L 184.19701773853467,78.5078507850785 L 186.67682751166436,80.7080708070807 L 188.2622796616981,81.25812581258126 L 189.25826883287314,80.65806580658065 L 190.19327907520073,79.70797079707971 L 192.59178360986715,77.95779577957795 L 193.03896242141514,77.9077907790779 L 193.40483599449982,78.25782578257825 L 194.92930921568612,78.95789578957896 L 195.41714064646573,79.007900790079 L 196.49443505610404,78.65786578657865 L 197.12455065419437,81.05810581058105 L 199.055550067697,109.5109510951095 z" /><path fill-rule="evenodd" fill="#D2EBD9" stroke="#A6A6A6" stroke-width="0.25" opacity="1" d="M 196.49443505610404,78.65786578657865 L 195.41714064646573,79.007900790079 L 194.92930921568612,78.95789578957896 L 193.40483599449982,78.25782578257825 L 193.03896242141514,77.9077907790779 L 192.59178360986715,77.95779577957795 L 190.19327907520073,79.70797079707971 L 189.25826883287314,80.65806580658065 L 188.2622796616981,81.25812581258126 L 186.67682751166436,80.7080708070807 L 184.19701773853467,78.5078507850785 L 183.89212309429743,78.9078907890789 L 181.94079737117897,84.20842084208421 L 181.22937653462537,84.25842584258426 L 180.68056617499832,85.008500850085 L 179.98947164806054,85.35853585358535 L 179.78620855190238,85.65856585658565 L 179.19674557304367,87.95879587958795 L 178.79021938072734,93.95939593959396 L 178.42434580764262,94.25942594259425 L 177.6925986614732,94.4094409440944 L 177.85520913839974,95.15951595159515 L 179.29837712112277,97.6097609760976 L 179.72522962305493,98.009800980098 L 180.11142950575544,99.1099109910991 L 179.56261914612838,99.9099909990999 L 177.5706408037783,98.40984098409841 L 175.70062031912312,96.20962096209621 L 174.44038912294246,95.90959095909591 L 171.81829518250206,95.80958095809581 L 171.00524279786939,95.65956595659566 L 169.6230537439938,95.05950595059505 L 167.89531742664934,94.9094909490949 L 166.69606515931613,91.20912091209121 L 166.6350862304687,88.85888588858886 L 167.52944385356466,78.007800780078 L 167.4684649247172,77.10771077107711 L 167.14324397086412,76.35763576357635 L 166.83834932662685,76.05760576057605 L 166.00497063237836,73.95739573957395 L 166.7570440881636,67.95679567956795 L 166.5131283727738,66.1066106610661 L 165.25289717659314,64.8064806480648 L 164.8463709842768,64.15641564156415 L 164.27723431503392,62.306230623062305 L 164.378865863113,61.75617561756175 L 165.29354979582476,60.65606560656065 L 170.02957993631014,65.10651065106511 L 171.20850589402755,65.9065906590659 L 172.63134756713475,66.25662566256625 L 173.87125245369958,66.2066206620662 L 175.15180995949606,65.85658565856585 L 176.18845174990273,65.15651565156516 L 176.6356305614507,64.05640564056405 L 177.18444092107777,63.556355635563555 L 178.0178196153263,63.15631563156315 L 178.81054569034313,63.1063106310631 L 179.2170718826595,63.706370637063706 L 179.40000866920184,64.7064706470647 L 179.7049033134391,65.10651065106511 L 181.22937653462537,65.25652565256526 L 187.20531156167561,67.05670567056706 L 187.85575346938177,67.1067106710671 L 189.03467942709915,66.85668566856685 L 189.62414240595785,66.9066906690669 L 190.274584313664,67.25672567256726 L 194.82767766760702,70.45704570457045 L 195.7626879099346,71.5071507150715 L 196.37247719840914,72.95729572957295 L 196.4334561272566,73.95739573957395 L 196.04725624455605,76.95769576957696 L 196.49443505610404,78.65786578657865 z" /><path fill-rule="evenodd" fill="#D2EBD9" stroke="#A6A6A6" stroke-width="0.25" opacity="1" d="M 165.29354979582476,60.65606560656065 L 164.378865863113,61.75617561756175 L 164.27723431503392,62.306230623062305 L 164.8463709842768,64.15641564156415 L 165.25289717659314,64.8064806480648 L 166.5131283727738,66.1066106610661 L 166.7570440881636,67.95679567956795 L 166.00497063237836,73.95739573957395 L 164.72441312658188,74.65746574657466 L 163.50483454963285,76.05760576057605 L 162.52917168807363,79.007900790079 L 162.14297180537312,79.55795579557956 L 159.45989893608527,82.2082208220822 L 159.0533727437689,82.85828582858285 L 158.62652024183674,83.15831583158315 L 158.03705726297807,83.3083308330833 L 155.6995316571591,83.35833583358335 L 148.97152317432364,79.25792579257926 L 146.89823959351028,79.007900790079 L 146.16649244734086,78.7078707870787 L 145.31278744347654,77.7077707770777 L 144.11353517614333,75.55755575557555 L 143.50374588766883,74.80748074807481 L 141.4507886164713,73.007300730073 L 139.74337860874266,72.55725572557256 L 143.32080910112646,66.7066706670667 L 151.6952486628431,57.05570557055705 L 151.73590128207476,55.4055405540554 L 152.56927997632326,52.655265526552654 L 156.045078920628,48.8048804880488 L 157.16302594949792,48.5048504850485 L 157.40694166488774,48.9048904890489 L 158.46390976491023,49.154915491549154 L 161.4112246592037,48.204820482048206 L 161.5128562072828,48.55485548554855 L 162.97635049962162,50.355035503550354 L 163.2202662150114,51.005100510051 L 162.32590859191546,53.55535553555355 L 162.75276109384762,56.555655565556556 L 163.9113607419492,59.005900590059 L 165.29354979582476,60.65606560656065 z" /><path fill-rule="evenodd" fill="#D2EBD9" stroke="#A6A6A6" stroke-width="0.25" opacity="1" d="M 91.14317231732393,236.1236123612361 L 88.82597302112079,235.07350735073507 L 87.8909627787932,234.97349734973497 L 87.26084718070287,235.07350735073507 L 83.68341668831906,236.4236423642364 L 80.93936489018374,236.3236323632363 L 80.0450072670878,236.47364736473645 L 78.47988142666988,237.07370737073705 L 76.50822939393561,237.3237323732373 L 72.38198854192474,235.97359735973595 L 68.68260019184602,236.07360736073605 L 68.01183197452406,236.8236823682368 L 67.463021614897,241.7241724172417 L 66.10115887063725,245.27452745274528 L 64.47505410137188,247.87478747874786 L 62.828623022490696,249.57495749574957 L 60.43011848782428,251.27512751275125 L 59.92196074742885,253.57535753575357 L 58.946297885869626,252.57525752575256 L 58.397487526242564,251.17511751175115 L 57.90965609546296,250.37503750375035 L 56.16159346850269,249.22492249224922 L 55.470498941564905,247.9247924792479 L 54.10863619730515,246.6246624662466 L 53.336236431904105,246.47464746474645 L 52.66546821458214,246.6246624662466 L 50.93773189723768,247.8247824782478 L 50.06370058375755,247.6247624762476 L 49.90109010683101,246.97469746974696 L 50.734468801079515,245.22452245224522 L 50.69381618184788,244.47444744474447 L 50.20598475106827,243.024302430243 L 49.20999557989323,241.37413741374135 L 48.76281676834525,239.92399239923992 L 47.60421712024368,237.67376737673766 L 48.80346938757689,236.87368736873685 L 49.39293236643559,236.1236123612361 L 49.00673248373506,233.3233323332333 L 49.00673248373506,232.3232323232323 L 50.38892153761062,225.77257725772577 L 51.019037135700955,224.82248224822482 L 53.94602572037862,223.3223322332233 L 57.645414070457335,223.27232723272326 L 67.54432685336026,226.07260726072607 L 68.11346352260314,226.12261226122612 L 68.43868447645622,225.97259725972597 L 68.60129495338276,225.42254225422542 L 69.41434733801545,221.22212221222122 L 69.69891567263689,220.42204220422042 L 70.4306628188063,219.77197719771976 L 71.56893615729206,219.37193719371936 L 73.7641775958003,219.4219421942194 L 77.62617642280556,219.92199219921991 L 78.60183928436477,219.87198719871986 L 80.12631250555106,219.5219521952195 L 83.64276406908742,218.2218221822182 L 84.9233215748839,217.3217321732173 L 86.00061598452221,216.07160716071607 L 86.93562622684979,215.52155215521552 L 90.16750945576472,215.87158715871587 L 91.468393271177,216.22162216221622 L 94.0701609020016,217.47174717471745 L 94.88321328663429,217.6217621762176 L 97.15975996360581,217.3217321732173 L 97.78987556169614,217.37173717371735 L 99.5379381886564,218.3218321832183 L 100.22903271559419,218.97189718971896 L 102.44460046371825,219.7219721972197 L 102.76982141757132,219.97199719971997 L 103.05438975219276,220.52205220522052 L 103.03406344257695,221.17211721172117 L 102.79014772718715,221.5221522152215 L 101.85513748485955,222.17221722172215 L 101.65187438870139,222.7222722272227 L 101.73317962716465,224.4224422442244 L 101.5502428406223,225.07250725072507 L 101.12339033869014,225.37253725372537 L 100.75751676560543,225.42254225422542 L 98.11509651554921,224.07240724072406 L 96.97682317706345,223.9223922392239 L 96.48899174628384,224.07240724072406 L 95.45234995587717,224.82248224822482 L 92.62699291927859,227.6227622762276 L 91.4480669615612,228.4228422842284 L 91.36676172309792,228.6228622862286 L 91.9358983923408,229.57295729572957 L 92.09850886926733,231.37313731373135 L 91.14317231732393,236.1236123612361 z" /><path fill-rule="evenodd" fill="#D2EBD9" stroke="#A6A6A6" stroke-width="0.25" opacity="1" d="M 157.3662890456561,124.41244124412441 L 157.87444678605152,124.91249124912491 L 158.36227821683113,125.96259625962595 L 158.5655413129893,127.31273127312731 L 159.48022524570106,129.76297629762976 L 159.8664251284016,131.46314631463144 L 160.9640458476557,133.76337633763376 L 161.37057203997207,135.96359635963594 L 163.6674450265594,139.71397139713972 L 165.27322348620893,141.014101410141 L 165.6797496785253,142.4142414241424 L 166.30986527661562,147.6147614761476 L 166.1675811093049,150.7150715071507 L 165.4561602727513,153.5153515351535 L 163.7894028842543,155.2155215521552 L 145.92257673195107,155.2155215521552 L 145.59735577809798,154.41544154415442 L 146.02420828003014,151.76517651765175 L 144.84528232231276,147.2147214721472 L 144.58104029730714,146.6146614661466 L 141.36948337800803,142.2142214221422 L 141.18654659146566,141.76417641764175 L 141.3491570683922,139.86398639863987 L 136.6944321663701,118.96189618961895 L 149.96751234549868,118.26182618261825 L 152.48797473786,118.9118911891189 L 153.28070081287686,119.71197119711971 L 154.5002793898259,121.7121712171217 L 157.3662890456561,124.41244124412441 z" /><path fill-rule="evenodd" fill="#D2EBD9" stroke="#A6A6A6" stroke-width="0.25" opacity="1" d="M 167.89531742664934,94.9094909490949 L 165.04963408043497,95.90959095909591 L 163.60646609771194,97.05970597059705 L 162.712108474616,98.35983598359836 L 161.79742454190423,100.66006600660066 L 161.37057203997207,101.26012601260125 L 159.155004291848,102.56025602560256 L 158.70782548030002,103.26032603260326 L 158.76880440914746,104.8104810481048 L 158.64684655145257,105.21052105210521 L 158.30129928798368,105.36053605360536 L 156.7564997571816,104.46044604460445 L 156.32964725524943,104.6104610461046 L 155.45561594176928,104.4104410441044 L 153.1180903359503,100.06000600060005 L 153.05711140710287,99.3099309930993 L 153.13841664556614,98.40984098409841 L 153.54494283788247,97.9097909790979 L 153.8091848628881,96.7096709670967 L 153.97179533981463,94.8094809480948 L 153.9108164109672,87.2087208720872 L 154.31734260328352,86.05860586058606 L 155.6995316571591,83.35833583358335 L 158.03705726297807,83.3083308330833 L 158.62652024183674,83.15831583158315 L 159.0533727437689,82.85828582858285 L 159.45989893608527,82.2082208220822 L 162.14297180537312,79.55795579557956 L 162.52917168807363,79.007900790079 L 163.50483454963285,76.05760576057605 L 164.72441312658188,74.65746574657466 L 166.00497063237836,73.95739573957395 L 166.83834932662685,76.05760576057605 L 167.14324397086412,76.35763576357635 L 167.4684649247172,77.10771077107711 L 167.52944385356466,78.007800780078 L 166.6350862304687,88.85888588858886 L 166.69606515931613,91.20912091209121 L 167.89531742664934,94.9094909490949 z" /><path fill-rule="evenodd" fill="#D2EBD9" stroke="#A6A6A6" stroke-width="0.25" opacity="1" d="M 155.45561594176928,104.4104410441044 L 154.6628898667524,104.4104410441044 L 153.9108164109672,104.6104610461046 L 153.62624807634575,104.96049604960496 L 153.5652691474983,105.46054605460546 L 153.9108164109672,106.26062606260625 L 155.21170022637946,107.81078107810781 L 155.35398439369018,108.16081608160816 L 155.27267915522694,108.4108410841084 L 153.2400481936452,108.66086608660865 L 152.6302589051707,109.1109110911091 L 149.96751234549868,112.91129112911291 L 148.52434436277565,114.1114111411141 L 147.22346054736335,116.56165616561655 L 145.90225042233524,115.9115911591159 L 143.30048279151066,115.46154615461546 L 141.55242016455037,113.96139613961395 L 140.9629571856917,113.7113711371137 L 139.926315395285,112.16121612161216 L 137.62944240869768,105.41054105410541 L 136.67410585675427,103.86038603860385 L 135.61713775673178,103.46034603460346 L 132.5478650047434,101.5101510151015 L 131.816117858574,100.76007600760076 L 131.67383369126327,99.65996599659965 L 131.816117858574,95.6095609560956 L 131.67383369126327,95.15951595159515 L 130.96241285470967,94.2094209420942 L 130.00707630276625,93.65936593659366 L 130.00707630276625,92.85928592859285 L 130.45425511431424,91.40914091409141 L 130.84045499701475,86.50865086508651 L 137.1822635971497,85.9085908590859 L 137.97498967216657,85.75857585758575 L 138.2392316971722,85.5085508550855 L 138.8490209856467,84.05840584058406 L 138.9506525337258,83.3083308330833 L 138.0156422913982,81.45814581458146 L 137.81237919524003,80.7080708070807 L 137.83270550485585,78.95789578957896 L 136.89769526252826,77.10771077107711 L 136.85704264329664,76.35763576357635 L 137.16193728753387,76.1076107610761 L 138.3815158644829,76.15761576157615 L 139.05228408180488,75.95759575957595 L 139.29619979719467,75.6075607560756 L 139.25554717796305,75.3075307530753 L 138.78804205679924,74.65746574657466 L 138.7270631279518,73.7073707370737 L 139.15391562988395,72.35723572357236 L 139.35717872604212,72.20722072207221 L 139.74337860874266,72.55725572557256 L 141.4507886164713,73.007300730073 L 143.50374588766883,74.80748074807481 L 144.11353517614333,75.55755575557555 L 145.31278744347654,77.7077707770777 L 146.16649244734086,78.7078707870787 L 146.89823959351028,79.007900790079 L 148.97152317432364,79.25792579257926 L 155.6995316571591,83.35833583358335 L 154.31734260328352,86.05860586058606 L 153.9108164109672,87.2087208720872 L 153.97179533981463,94.8094809480948 L 153.8091848628881,96.7096709670967 L 153.54494283788247,97.9097909790979 L 153.13841664556614,98.40984098409841 L 153.05711140710287,99.3099309930993 L 153.1180903359503,100.06000600060005 L 155.45561594176928,104.4104410441044 z" /><path fill-rule="evenodd" fill="#D2EBD9" stroke="#A6A6A6" stroke-width="0.25" opacity="1" d="M 78.8660813093704,267.17671767176716 L 74.31298795542736,264.9264926492649 L 73.21536723617324,263.87638763876384 L 72.76818842462527,262.67626762676264 L 71.77219925345022,261.976197619762 L 70.83718901112265,261.5761576157616 L 70.00381031687414,260.92609260926093 L 68.82488435915674,259.025902590259 L 67.56465316297609,257.5257525752575 L 66.8735586360383,256.9256925692569 L 65.81659053601581,256.4256425642564 L 65.22712755715712,255.37553755375535 L 62.80829671287488,254.62546254625462 L 60.87729729937225,253.62536253625362 L 59.92196074742885,253.57535753575357 L 60.43011848782428,251.27512751275125 L 62.828623022490696,249.57495749574957 L 64.47505410137188,247.87478747874786 L 66.10115887063725,245.27452745274528 L 67.463021614897,241.7241724172417 L 68.01183197452406,236.8236823682368 L 68.68260019184602,236.07360736073605 L 72.38198854192474,235.97359735973595 L 76.50822939393561,237.3237323732373 L 78.47988142666988,237.07370737073705 L 80.0450072670878,236.47364736473645 L 80.93936489018374,236.3236323632363 L 83.68341668831906,236.4236423642364 L 87.26084718070287,235.07350735073507 L 87.8909627787932,234.97349734973497 L 88.82597302112079,235.07350735073507 L 91.14317231732393,236.1236123612361 L 92.20014041734643,237.07370737073705 L 91.65133005771936,245.6245624562456 L 90.37077255192288,250.57505750575055 L 90.43175148077033,251.57515751575156 L 91.00088815001321,253.52535253525352 L 90.28946731345961,257.5257525752575 L 89.94392004999072,258.025802580258 L 88.134878494183,258.2258225822582 L 87.7690049210983,258.5258525852585 L 87.5250892057085,259.1759175917592 L 87.50476289609267,259.7759775977598 L 87.87063646917738,261.42614261426144 L 87.72835230186666,261.7761776177618 L 84.78103740757318,260.976097609761 L 84.53712169218338,260.7760776077608 L 83.7443956171665,258.37583758375837 L 83.01264847099709,257.67576757675766 L 82.52481704021748,257.57575757575756 L 81.46784894019498,258.1258125812581 L 80.71577548440976,258.9258925892589 L 80.71577548440976,260.62606260626063 L 79.37423904976583,262.7262726272627 L 78.92706023821785,263.97639763976395 L 78.8660813093704,267.17671767176716 z" /></g></g></g></svg>