<svg xmlns="http://www.w3.org/2000/svg" xmlns:xlink="http://www.w3.org/1999/xlink" width="500.0" height="482.7001322861761" viewBox="0.0 0.0 500.0 482.7001322861761" preserveAspectRatio="xMinYMin meet"><g transform="matrix(1,0,0,-1,0,482.7001322861761)"><g><g><path fill-rule="evenodd" fill="#D2EBD9" stroke="#A6A6A6" stroke-width="0.25" opacity="1" d="M 114.91149114911491,164.0861835824295 L 115.41154115411541,163.02413708675036 L 115.76157615761575,161.4793421839443 L 115.66156615661565,159.7897227590002 L 114.91149114911491,156.89323231623885 L 115.01150115011501,156.41048390911197 L 113.86138613861385,153.36916894421256 L 113.9113911391139,152.54849665209687 L 114.26142614261425,151.0519765900035 L 114.46144614461446,149.12098296149594 L 115.36153615361536,146.61069124443614 L 115.76157615761575,143.7142008016748 L 116.6116611661166,142.94180335027178 L 116.76167616761676,142.07285621744336 L 116.66166616661666,140.47978647392463 L 115.56155615561555,138.35569348256632 L 115.36153615361536,137.5350211904506 L 115.31153115311531,133.38338488915937 L 115.36153615361536,132.9006364820325 L 116.011601160116,131.79031514564065 L 117.9117911791179,129.52139763214427 L 118.16181618161815,129.52139763214427 L 117.56175617561756,128.0248775700509 L 117.76177617761776,126.67318203009562 L 119.46194619461946,123.87324126875967 L 120.01200120012001,122.52154572880437 L 120.4120412041204,120.78365146314758 L 120.46204620462045,118.9974823567781 L 119.96199619961996,117.69406165753549 L 119.61196119611961,117.50096229468473 L 119.1119111911191,117.59751197611011 L 118.96189618961895,117.11476356898322 L 119.81198119811981,115.71479318831524 L 119.66196619661966,112.62520338270316 L 119.96199619961996,109.390789054953 L 120.26202620262026,109.00459032925149 L 122.46224622462246,108.0873683557104 L 123.86238623862386,107.12187154145663 L 125.1125112511251,105.86672568292671 L 125.96259625962595,104.37020562083336 L 126.4126412641264,101.85991390377353 L 127.41274127412741,98.77032409816145 L 127.41274127412741,98.33585053174724 L 126.51265126512651,95.39108524827323 L 126.26262626262626,95.39108524827323 L 126.16261626162616,97.37035371749347 L 124.56245624562456,96.88760531036658 L 124.26242624262426,96.30830722181432 L 124.16241624162416,95.4876349296986 L 124.26242624262426,94.52213811544483 L 125.46254625462545,92.20494576123576 L 125.3125312531253,91.04634958413122 L 126.71267126712671,87.86021009709376 L 127.06270627062706,86.17059067214964 L 127.46274627462745,85.83266678716083 L 127.76277627762775,85.20509385789587 L 129.06290629062906,84.91544481361974 L 129.6129612961296,84.1913222029294 L 129.86298629862986,83.3706499108137 L 129.86298629862986,80.7155336716158 L 130.81308130813082,78.39834131740675 L 130.56305630563057,77.77076838814179 L 131.1131113111311,75.0673773082312 L 130.81308130813082,73.3777578832871 L 130.91309130913092,72.84673463544752 L 131.6131613161316,71.83296298048106 L 132.1132113211321,68.5502738120182 L 133.8133813381338,66.13653177638376 L 134.91349134913492,63.964163944312766 L 135.21352135213522,63.577965218611254 L 135.86358635863584,63.28831617433512 L 136.3136313631363,62.61246840435748 L 136.86368636863685,61.30904770511488 L 140.41404140414042,55.61261650101759 L 140.7140714071407,54.74366936818919 L 140.7140714071407,52.57130153611819 L 140.9140914091409,51.55752988115172 L 141.36413641364135,50.83340727046139 L 145.06450645064507,47.11624453558434 L 146.06460646064605,45.71627415491637 L 146.5146514651465,44.41285345567377 L 146.2146214621462,43.15770759714386 L 146.26462646264625,42.67495919001697 L 147.66476647664766,41.130164287210924 L 148.8148814881488,39.24744549941606 L 151.96519651965195,36.54405441950548 L 154.8154815481548,33.116540728904575 L 159.7159715971597,29.544202516165594 L 162.06620662066206,26.74426175482964 L 164.31643164316432,23.70294678993024 L 165.26652665266525,23.171923542090664 L 169.2169216921692,19.165111762937485 L 169.76697669766975,18.296164630109086 L 170.9170917091709,16.992743930866485 L 173.61736173617362,14.820376098795487 L 174.56745674567455,14.67555157665742 L 175.4175417541754,15.785872913049264 L 176.1176117611761,16.268621320176152 L 178.76787678767874,17.76514138226951 L 180.16801680168015,18.247889789396396 L 182.96829682968297,21.04783055073235 L 183.36833683368337,21.19265507287042 L 183.66836683668365,20.999555710019663 L 184.1184118411841,19.551310488638997 L 184.7184718471847,19.503035647926307 L 185.46854685468546,20.130608577191264 L 186.5186518651865,21.771953161422683 L 186.86868686868686,24.23397003776982 L 187.76877687768777,24.958092648460152 L 187.51875187518752,25.73049009986317 L 186.46864686468646,27.56493404694535 L 186.3186318631863,28.43388117977375 L 186.5186518651865,29.206278631176772 L 187.16871687168717,29.495927675452904 L 188.2188218821882,28.964904427613327 L 188.56885688568855,29.206278631176772 L 188.6188618861886,29.73730187901635 L 188.01880188018802,30.99244773754626 L 188.36883688368835,31.52347098538584 L 189.7189718971897,31.668295507523904 L 189.7189718971897,31.95794455180004 L 189.06890689068905,32.77861684391575 L 189.018901890189,33.26136525104264 L 189.26892689268925,33.45446461389339 L 189.56895689568955,33.26136525104264 L 190.5190519051905,33.116540728904575 L 190.8190819081908,33.50273945460608 L 191.06910691069106,36.83370346378162 L 191.81918191819182,37.65437575589733 L 192.06920692069207,37.84747511874808 L 192.36923692369237,37.79920027803539 L 192.71927192719272,37.3164518709085 L 193.1193119311931,37.268177030195815 L 194.46944694469445,38.13712416302422 L 195.46954695469546,37.84747511874808 L 197.11971197119712,39.006071295852614 L 197.86978697869785,39.19917065870337 L 198.66986698669865,39.006071295852614 L 200.07000700070006,36.73715378235624 L 201.72017201720172,36.157855693803974 L 202.07020702070207,35.43373308311364 L 201.92019201920192,33.50273945460608 L 202.12021202120212,31.571745826098528 L 202.9202920292029,30.60624901184475 L 204.07040704070405,30.364874808281304 L 206.42064206420642,30.895898056120885 L 207.37073707370735,30.99244773754626 L 207.8207820782078,30.751073533982815 L 208.1208120812081,29.35110315331484 L 208.47084708470845,28.86835474618795 L 208.77087708770875,27.468384365519974 L 209.8209820982098,25.77876494057586 L 209.77097709770976,23.751221630642927 L 209.47094709470946,22.737449975676462 L 207.6207620762076,21.723678320709997 L 207.17071707170717,21.19265507287042 L 207.02070207020702,20.565082143605462 L 207.3207320732073,19.84095953291513 L 208.3208320832083,18.48926399295984 L 208.8208820882088,16.84791940872842 L 210.17101710171016,16.36517100160153 L 210.57105710571057,15.399674187347753 L 209.87098709870986,12.020435337459531 L 209.9209920992099,10.76528947892962 L 211.32113211321132,10.523915275366175 L 214.47144714471446,11.103213363918442 L 216.57165716571657,11.779061133896086 L 217.1217121712171,11.344587567481886 L 217.47174717471745,8.59292164685862 L 218.27182718271825,8.206722921157109 L 219.4219421942194,7.868799036168287 L 219.92199219921991,7.917073876880976 L 221.42214221422142,8.786021009709376 L 222.57225722572255,8.882570691134754 L 228.77287728772876,7.530875151179465 L 230.07300730073007,6.951577062627199 L 231.3231323132313,6.130904770511488 L 233.57335733573356,4.248185982716621 L 235.02350235023502,3.5240633720262884 L 238.1238123812381,2.413742035634444 L 238.77387738773876,2.413742035634444 L 240.12401240124012,2.896490442761333 L 243.37433743374336,3.3309640091755326 L 244.17441744174417,3.2826891684628436 L 245.7245724572457,2.703391079910577 L 246.6246624662466,2.5585665577725107 L 247.6247624762476,3.0413149648993993 L 248.97489748974897,3.3309640091755326 L 249.47494749474947,3.620613053451666 L 250.27502750275025,2.9930401241867104 L 251.07510751075105,3.234414327750155 L 252.4252425242524,4.006811779153177 L 259.4759475947595,5.020583434119644 L 267.17671767176716,3.910262097727799 L 267.8267826782678,3.3309640091755326 L 269.1269126912691,1.3999703806679775 L 271.0771077107711,1.0137716549664664 L 271.87718771877184,0.0 L 273.3273327332733,0.09654968142537776 L 274.8274827482748,0.5792980885522665 L 276.9276927692769,1.6896194249441108 L 277.6277627762776,2.703391079910577 L 277.8777877787779,2.848215602048644 L 279.0779077907791,2.9447652834740214 L 279.52795279527953,3.234414327750155 L 279.52795279527953,3.7171627348770437 L 278.1778177817782,6.130904770511488 L 277.9277927792779,7.048126744052577 L 278.0778077807781,7.917073876880976 L 278.6778677867787,9.123944894698198 L 279.5779577957796,10.089441708951975 L 280.12801280128014,10.137716549664665 L 280.978097809781,9.413593938974332 L 281.37813781378134,9.365319098261642 L 285.67856785678566,10.71701463821693 L 286.3286328632863,11.248037886056508 L 286.7286728672867,11.827335974608776 L 287.978797879788,15.592773550198508 L 288.5788578857886,15.882422594474642 L 289.0789078907891,16.992743930866485 L 289.8789878987899,18.05479042654564 L 290.57905790579053,18.392714311534462 L 294.27942794279426,18.682363355810597 L 295.67956795679567,19.599585329351687 L 296.47964796479647,19.88923437362782 L 298.2798279827983,19.985784055053195 L 299.3799379937994,20.32370794004202 L 301.030103010301,21.820228002135373 L 301.98019801980195,22.39952609068764 L 303.58035803580356,22.254701568549574 L 305.1305130513051,22.592625453538396 L 305.1305130513051,138.79016704898052 L 303.4303430343034,138.5487928454171 L 302.9302930293029,138.9832664118313 L 301.6301630163016,138.79016704898052 L 296.7296729672967,136.52124953548415 L 294.67946794679466,137.29364698688718 L 291.1291129112911,138.0177695975775 L 290.02900290029004,138.4522431639917 L 289.12891289128913,139.17636577468204 L 286.17861786178617,139.80393870394698 L 284.4284428442844,139.80393870394698 L 283.4283428342834,139.61083934109624 L 281.5281528152815,138.30741864185364 L 280.8780878087809,138.83844188969323 L 277.6277627762776,143.76247564238747 L 277.07770777077707,144.19694920880167 L 276.4276427642764,143.81075048310018 L 275.67756775677566,143.03835303169714 L 271.7271727172717,141.0590845624769 L 255.6255625562556,142.45905494314488 L 252.8252825282528,143.90730016452554 L 251.97519751975196,144.6314227752159 L 249.47494749474947,145.9348434744585 L 241.2241224122412,145.21072086376816 L 223.37233723372336,140.96253488105154 L 218.5218521852185,140.52806131463734 L 211.47114711471147,141.25218392532767 L 210.3210321032103,141.68665749174187 L 208.3208320832083,140.76943551820077 L 207.5207520752075,140.2384122703612 L 207.37073707370735,133.09373584488324 L 201.27012701270127,135.74885208408114 L 200.7200720072007,135.79712692479382 L 198.76987698769875,135.07300431410349 L 197.66976697669767,135.07300431410349 L 194.16941694169415,134.15578234056238 L 193.96939693969395,134.39715654412583 L 193.66936693669365,135.8454017655065 L 192.26922692269227,136.90744826118566 L 190.6190619061906,137.48674634973793 L 189.018901890189,137.67984571258867 L 188.11881188118812,138.35569348256632 L 187.21872187218722,138.79016704898052 L 180.7180718071807,140.14186258893582 L 179.56795679567955,140.09358774822311 L 179.26792679267925,140.2384122703612 L 178.96789678967895,140.6728858367754 L 178.11781178117812,142.36250526171952 L 177.76777677767777,142.748703987421 L 177.46774677467747,142.8452536688464 L 175.6175617561756,139.07981609325665 L 175.017501750175,138.25914380114097 L 173.46734673467347,137.1005476240364 L 172.91729172917292,139.03154125254397 L 173.21732173217322,140.1901374296485 L 172.2172217221722,141.01080972176422 L 171.3171317131713,141.1073594031896 L 169.06690669066907,140.38323679249928 L 168.76687668766877,140.14186258893582 L 168.76687668766877,139.36946513753279 L 170.7170717071707,129.18347374715543 L 170.46704670467045,128.942099543592 L 169.9169916991699,128.8938247028793 L 168.21682168216822,129.47312279143156 L 167.3167316731673,129.52139763214427 L 166.56665666566656,129.42484795071888 L 165.6165616561656,128.942099543592 L 165.16651665166515,128.942099543592 L 164.66646664666465,129.3282982692935 L 156.8156815681568,139.99703806679776 L 156.4156415641564,140.2866871110739 L 155.9155915591559,140.2384122703612 L 153.66536653665366,139.65911418180892 L 153.3153315331533,139.65911418180892 L 153.1153115311531,139.99703806679776 L 150.1150115011501,160.5621202104032 L 149.21492149214922,163.84480937886605 L 114.91149114911491,164.0861835824295 z" /><path fill-rule="evenodd" fill="#D2EBD9" stroke="#A6A6A6" stroke-width="0.25" opacity="1" d="M 92.35923592359235,465.803938036735 L 91.9091909190919,465.803938036735 L 91.55915591559156,464.8384412224812 L 90.7090709070907,464.74189154105585 L 89.10891089108911,464.9832657446193 L 88.25882588258825,464.5487921782051 L 87.4087408740874,464.4522424967797 L 84.9084908490849,464.9832657446193 L 83.55835583558355,464.4522424967797 L 82.7082708270827,464.59706701891776 L 82.15821582158216,465.031540585332 L 80.00800080008,467.7349316652425 L 72.95729572957295,471.64519376297034 L 69.75697569756976,474.34858484288094 L 66.6066606660666,476.08647910853773 L 66.95669566956695,477.1968004449296 L 66.1066106610661,478.3553966220341 L 65.6065606560656,479.9001915248401 L 65.05650565056506,480.4312147726797 L 62.75627562756275,481.0587877019447 L 61.45614561456145,481.9760096754858 L 60.75607560756075,482.21738387904924 L 59.2059205920592,481.782910312635 L 58.755875587558755,481.9760096754858 L 57.2057205720572,481.3967115869335 L 57.2057205720572,481.68636063120965 L 56.405640564056405,481.54153610907156 L 55.55555555555555,481.68636063120965 L 55.155515551555155,481.87945999406037 L 54.65546554655465,482.4587580826127 L 54.155415541554156,482.21738387904924 L 53.5053505350535,482.7001322861761 L 47.85478547854785,481.68636063120965 L 45.95459545954595,480.5277644541051 L 44.8044804480448,480.2863902505417 L 43.204320432043204,479.65881732127673 L 42.8042804280428,478.5002211441722 L 41.5041504150415,477.9691978963326 L 40.65406540654065,476.76232687851535 L 39.4039403940394,476.37612815281386 L 37.75377537753775,475.55545586069815 L 36.45364536453645,474.4451345243063 L 35.75357535753575,474.1072106393175 L 33.903390339033905,473.67273707290326 L 32.25322532253225,472.2244918515226 L 31.35313531353135,471.74174344439575 L 27.45274527452745,472.1762170108099 L 25.852585258525853,472.94861446221296 L 25.45254525452545,472.94861446221296 L 24.45244524452445,472.27276669223534 L 22.05220522052205,472.3693163736607 L 19.4019401940194,472.12794217009724 L 19.001900190019,472.99688930292564 L 17.451745174517452,473.7692867543287 L 17.1017101710171,474.2520351614556 L 16.951695169516952,474.83133325000784 L 16.75167516751675,475.07270745357124 L 16.4016401640164,475.16925713499666 L 15.601560156015601,474.7830584092951 L 13.7013701370137,475.4589061792728 L 13.201320132013201,475.265806816422 L 11.5011501150115,475.07270745357124 L 9.8009800980098,474.5416842057317 L 8.3008300830083,473.81756159504135 L 6.55065506550655,472.51414089579873 L 5.05050505050505,471.79001828510843 L 4.35043504350435,471.3072698779815 L 3.85038503850385,470.5831472672912 L 3.3003300330033003,470.5348724265785 L 1.8001800180018002,471.0658956744181 L 1.4001400140014,470.4865975858658 L 0.15001500150015,462.7143482311229 L 0.0,459.6730332662235 L 0.35003500350035,457.5972151155779 L 1.05010501050105,454.3628007878277 L 1.6001600160016,450.40426384938723 L 2.45024502450245,447.5560482473386 L 2.95029502950295,443.7906106717489 L 4.000400040004,440.5561963439987 L 4.3004300430043,438.2872788305023 L 4.85048504850485,436.5493845648455 L 8.1008100810081,433.07359603353194 L 9.55095509550955,429.2598836172295 L 10.4010401040104,428.0530125994123 L 10.4010401040104,426.41166801518085 L 10.9010901090109,425.20479699736364 L 11.6011601160116,422.45313107674036 L 14.2014201420142,420.86006133322167 L 16.901690169016902,417.6739218461842 L 21.002100210021002,414.9705307662736 L 27.052705270527053,406.90863236725454 L 27.35273527352735,406.0879600751389 L 27.8027802780278,403.2397444730902 L 28.152815281528152,402.70872122525066 L 29.5029502950295,401.69494957028417 L 30.603060306030603,400.39152887104154 L 31.35313531353135,399.18465785322434 L 33.15331533153315,394.6468228262316 L 33.903390339033905,393.2951272862763 L 35.103510351035105,391.75033238347027 L 35.5035503550355,390.88138525064187 L 35.75357535753575,389.09521614427234 L 36.45364536453645,387.1159476750521 L 38.4038403840384,383.73670882516393 L 39.753975397539755,381.17814226739137 L 40.05400540054005,380.30919513456297 L 42.75427542754275,375.28861170044337 L 44.354435443544354,373.2127935497977 L 44.7044704470447,372.0541973726932 L 47.55475547554755,366.5508655314467 L 48.7048704870487,361.6751066194651 L 49.95499549954995,359.5027387873941 L 51.555155515551554,358.39241745100225 L 53.05530553055305,357.90966904387534 L 53.905390539053904,356.55797350392004 L 55.205520552055205,353.22700949474455 L 55.95559555955595,350.04087000770704 L 56.155615561556154,348.35125058276293 L 57.05570557055705,344.923736892162 L 60.25602560256025,338.5997327587998 L 61.256125612561256,335.1239442274862 L 61.65616561656165,331.84125505902335 L 62.006200620062,330.53783435978073 L 62.75627562756275,329.1861388198255 L 64.3064306430643,327.8344432798702 L 64.75647564756476,326.33792321777685 L 66.3066306630663,324.2621050671312 L 69.6069606960696,318.32429965947046 L 70.55705570557055,317.1657034823659 L 72.9072907290729,318.66222354445927 L 74.50745074507451,319.28979647372427 L 75.4075407540754,320.3518429694034 L 77.8077807780778,320.88286621724296 L 78.4078407840784,321.75181335007136 L 79.50795079507951,321.9931875536348 L 80.75807580758075,323.15178373073934 L 83.5083508350835,324.16555538570583 L 85.2085208520852,324.16555538570583 L 87.2087208720872,325.0827773592469 L 89.30893089308931,325.37242640352304 L 90.65906590659066,326.0965490142134 L 91.95919591959195,326.19309869563875 L 94.7094709470947,325.0345025185342 L 98.009800980098,325.9034496513626 L 99.8099809980998,325.71035028851185 L 100.76007600760076,325.0345025185342 L 101.21012101210121,324.8896779963962 L 104.2104210421042,325.227601881385 L 106.06060606060605,324.50347927069464 L 108.16081608160816,324.5517541114073 L 109.56095609560955,324.4069295892693 L 111.46114611461145,324.6965786335454 L 113.6113611361136,325.46897608494845 L 114.56145614561456,326.3861980584895 L 116.26162616261625,327.54479423559405 L 117.96179617961795,327.88271812058287 L 118.46184618461845,328.5585658905605 L 119.26192619261926,329.0413142976874 L 119.76197619761976,329.8619865898031 L 120.5120512051205,330.1999104747919 L 123.06230623062305,332.37227830686294 L 125.86258625862585,334.11017257251973 L 126.012601260126,334.6411958203593 L 126.4126412641264,335.07566938677354 L 131.86318631863185,340.19280250231856 L 135.36353635363537,344.82718721073667 L 138.013801380138,344.53753816646054 L 139.4139413941394,343.0892929450799 L 141.7141714171417,342.1720709715388 L 143.36433643364336,341.83414708654993 L 145.9145914591459,341.6893225644119 L 149.51495149514952,341.0134747944343 L 152.26522652265226,342.12379613082607 L 152.86528652865286,342.5099948565276 L 155.7155715571557,345.74440918427774 L 156.96569656965696,346.56508147639346 L 159.56595659565957,347.6271279720726 L 162.56625662566256,347.77195249421067 L 164.4164416441644,348.64089962703906 L 165.2165216521652,348.83399898988984 L 166.3166316631663,348.64089962703906 L 166.96669666966696,348.1581512199122 L 167.46674667466746,348.10987637919953 L 168.56685668566857,348.44780026418834 L 169.5169516951695,349.12364803416597 L 169.8169816981698,350.0891448484198 L 169.56695669566955,351.87531395478925 L 169.46694669466945,355.1097282825394 L 169.66696669666965,355.3993773268155 L 170.06700670067005,355.7373012118044 L 176.66766676667666,359.11654006169255 L 177.71777177717772,359.06826522097987 L 178.31783178317832,359.21308974311796 L 177.66776677667767,361.2406330530509 L 177.66776677667767,363.8474744515361 L 177.81778177817782,363.99229897367417 L 181.26812681268126,364.0888486550995 L 182.26822682268227,364.37849769937566 L 184.36843684368435,365.77846808004364 L 184.018401840184,367.2267133014243 L 184.4184418441844,381.6126158338056 L 184.06840684068405,383.92980818801465 L 183.6183618361836,384.3160069137162 L 181.4181418141814,385.4746030908207 L 179.06790679067905,386.10217602008566 L 176.86768676867686,386.15045086079834 L 170.01700170017,387.16422251576483 L 165.06650665066505,388.6607425778582 L 162.96629662966296,388.9021167814216 L 160.36603660366035,389.57796455139925 L 155.9155915591559,390.2538123213769 L 152.96529652965296,391.8468820648956 L 151.66516651665165,392.13653110917176 L 150.3150315031503,392.0882562684591 L 147.2147214721472,392.4261801534479 L 141.014101410141,393.82615053411587 L 139.71397139713972,393.63305117126515 L 132.8132813281328,393.53650148983974 L 132.9132913291329,395.70886932191075 L 128.96289628962896,394.4537234633808 L 126.76267626762676,394.5985479855189 L 124.46244624462446,395.0812963926458 L 115.96159615961595,393.97097505625396 L 105.81058105810581,393.87442537482855 L 104.06040604060405,393.53650148983974 L 104.16041604160415,390.3020871620896 L 106.2106210621062,390.39863684351496 L 106.16061606160615,388.2745438521567 L 105.46054605460546,386.82629863077597 L 100.86008600860086,386.97112315291406 L 101.16011601160116,388.6124677371455 L 102.010201020102,389.77106391425 L 101.86018601860185,391.5089581799068 L 101.01010101010101,392.8606537198621 L 100.0100010001,393.7296008526905 L 99.25992599259925,394.74337250765694 L 97.7097709770977,399.32948237536243 L 97.95979597959796,403.3362941545156 L 98.60986098609861,407.34310593366877 L 97.95979597959796,409.5154737657398 L 96.95969596959695,411.63956675709807 L 95.45954595459546,416.3222263062289 L 95.25952595259525,419.02561738613946 L 95.6095609560956,424.528949227386 L 95.009500950095,439.0114014411927 L 93.90939093909391,443.7423358310362 L 90.35903590359035,451.0801116193649 L 89.85898589858985,452.91455556644706 L 90.9090909090909,454.31452594711504 L 91.15911591159116,456.05242021277184 L 90.95909590959096,456.9696421863129 L 89.4089408940894,457.88686415985404 L 89.30893089308931,458.9006358148205 L 91.20912091209121,461.5557520540184 L 92.25922592259225,463.6798450453767 L 92.45924592459245,464.35569281535436 L 92.2092209220922,464.59706701891776 L 92.35923592359235,465.803938036735 z" /><path fill-rule="evenodd" fill="#D2EBD9" stroke="#A6A6A6" stroke-width="0.25" opacity="1" d="M 141.8141814181418,465.803938036735 L 92.35923592359235,465.803938036735 L 92.2092209220922,464.59706701891776 L 92.45924592459245,464.35569281535436 L 92.25922592259225,463.6798450453767 L 91.20912091209121,461.5557520540184 L 89.30893089308931,458.9006358148205 L 89.4089408940894,457.88686415985404 L 90.95909590959096,456.9696421863129 L 91.15911591159116,456.05242021277184 L 90.9090909090909,454.31452594711504 L 89.85898589858985,452.91455556644706 L 90.35903590359035,451.0801116193649 L 93.90939093909391,443.7423358310362 L 95.009500950095,439.0114014411927 L 95.6095609560956,424.528949227386 L 95.25952595259525,419.02561738613946 L 95.45954595459546,416.3222263062289 L 96.95969596959695,411.63956675709807 L 97.95979597959796,409.5154737657398 L 98.60986098609861,407.34310593366877 L 97.95979597959796,403.3362941545156 L 97.7097709770977,399.32948237536243 L 99.25992599259925,394.74337250765694 L 100.0100010001,393.7296008526905 L 101.01010101010101,392.8606537198621 L 101.86018601860185,391.5089581799068 L 102.010201020102,389.77106391425 L 101.16011601160116,388.6124677371455 L 100.86008600860086,386.97112315291406 L 105.46054605460546,386.82629863077597 L 106.16061606160615,388.2745438521567 L 106.2106210621062,390.39863684351496 L 104.16041604160415,390.3020871620896 L 104.06040604060405,393.53650148983974 L 105.81058105810581,393.87442537482855 L 115.96159615961595,393.97097505625396 L 124.46244624462446,395.0812963926458 L 126.76267626762676,394.5985479855189 L 128.96289628962896,394.4537234633808 L 132.9132913291329,395.70886932191075 L 132.9132913291329,396.7709158175899 L 136.56365636563655,397.7364126318437 L 137.86378637863785,398.2191610389706 L 140.8140814081408,399.9087804639147 L 142.2142214221422,400.05360498605273 L 143.46434643464346,400.6811779153177 L 142.6142614261426,401.21220116315726 L 141.66416641664165,401.5501250481461 L 140.76407640764074,402.61217154382524 L 140.16401640164017,403.8190425616425 L 141.66416641664165,405.26728778302316 L 141.9141914191419,407.53620529651954 L 140.31403140314032,411.7361164385235 L 140.11401140114012,413.90848427059444 L 141.26412641264125,415.69465337696397 L 142.014201420142,417.86702120903493 L 140.11401140114012,432.3494734228416 L 140.06400640064007,434.3287418920618 L 139.66396639663967,436.2114606798567 L 138.26382638263826,437.1286826533978 L 136.66366636663665,437.75625558266273 L 131.76317631763175,440.5561963439987 L 131.8131813181318,441.13549443255096 L 145.06450645064507,454.5559001506785 L 144.76447644764477,457.69376479700327 L 144.31443144314431,458.9006358148205 L 143.014301430143,460.8799042840407 L 141.9141914191419,463.1970966382498 L 141.8141814181418,465.803938036735 z" /><path fill-rule="evenodd" fill="#D2EBD9" stroke="#A6A6A6" stroke-width="0.25" opacity="1" d="M 141.8141814181418,465.803938036735 L 141.9141914191419,463.1970966382498 L 143.014301430143,460.8799042840407 L 144.31443144314431,458.9006358148205 L 144.76447644764477,457.69376479700327 L 145.06450645064507,454.5559001506785 L 145.76457645764575,452.23870779646944 L 158.06580658065806,453.92832722141355 L 169.46694669466945,446.6388262737975 L 172.5172517251725,445.4319552559803 L 185.76857685768576,451.0801116193649 L 231.97319731973195,451.1766613007903 L 231.97319731973195,465.7556631960223 L 141.8141814181418,465.803938036735 z" /><path fill-rule="evenodd" fill="#D2EBD9" stroke="#A6A6A6" stroke-width="0.25" opacity="1" d="M 231.97319731973195,465.7556631960223 L 231.97319731973195,451.1766613007903 L 232.3232323232323,412.9429874563407 L 239.12391239123912,412.50851388992646 L 277.57775777577757,410.3844208985682 L 277.5277527752775,395.8054190033361 L 341.8341834183418,396.43299193260106 L 341.78417841784176,429.6943571836437 L 342.48424842484246,429.6943571836437 L 342.2342234223422,443.40441194604733 L 339.3339333933393,442.63201449464435 L 338.8338833883388,441.61824283967786 L 337.63376337633764,441.3768686361144 L 336.53365336533653,440.94239506970024 L 335.5835583558356,440.89412022898756 L 334.7834783478348,441.61824283967786 L 333.033303330333,442.3423654503682 L 332.48324832483246,441.8596170432413 L 331.28312831283125,442.1975409282301 L 330.38303830383035,442.8733886982078 L 327.63276327632764,442.9216635389205 L 326.6826682668267,442.68028933535703 L 323.88238823882386,444.32163391958846 L 321.9321932193219,446.2043527073833 L 321.032103210321,446.59055143308484 L 320.08200820082004,446.3491772295214 L 318.23182318231824,447.74914761018937 L 316.4816481648165,447.45949856591324 L 316.0816081608161,447.74914761018937 L 314.78147814781477,446.6388262737975 L 313.9313931393139,447.025024999499 L 312.9312931293129,447.0732998402117 L 312.031203120312,446.8319256366483 L 311.5311531153115,446.3491772295214 L 311.2311231123112,446.6388262737975 L 310.7310731073107,446.39745207023407 L 307.0807080708071,446.1560778666706 L 305.4305430543054,446.6388262737975 L 304.030403040304,447.45949856591324 L 298.1798179817982,447.45949856591324 L 297.3297329732973,446.3491772295214 L 296.7796779677968,446.39745207023407 L 295.1295129512951,447.025024999499 L 294.77947794779476,447.31467404377514 L 294.47944794479446,447.9905218137528 L 293.7293729372937,448.18362117660354 L 292.87928792879285,448.13534633589086 L 290.77907790779074,447.65259792876395 L 284.4284428442844,447.5560482473386 L 278.5778577857786,449.2939425129954 L 277.977797779778,449.68014123869693 L 276.3276327632763,449.5835915572715 L 274.8274827482748,449.82496576083497 L 272.77727772777274,449.14911799085735 L 269.62696269626963,449.00429346871925 L 264.8264826482648,449.87324060154765 L 261.52615261526154,451.56286002649176 L 260.0760076007601,451.9007839114806 L 256.7256725672567,455.56967180564493 L 255.3255325532553,456.48689377918606 L 254.82548254825483,457.7903144784286 L 252.9252925292529,459.43165906266006 L 252.4252425242524,459.6730332662235 L 251.025102510251,462.56952370898483 L 250.02500250025003,462.9557224346864 L 249.37493749374937,464.79016638176853 L 248.87488748874887,465.12809026675734 L 248.72487248724872,465.7556631960223 L 231.97319731973195,465.7556631960223 z" /><path fill-rule="evenodd" fill="#D2EBD9" stroke="#A6A6A6" stroke-width="0.25" opacity="1" d="M 342.48424842484246,429.6943571836437 L 360.28602860286026,430.46675463504675 L 415.89158915891585,441.32859379540173 L 425.99259925992595,442.1975409282301 L 427.39273927392736,442.14926608751745 L 428.042804280428,441.7147925211032 L 428.2428242824282,440.6527460254241 L 428.79287928792877,440.5561963439987 L 428.89288928892887,440.41137182186066 L 428.89288928892887,439.20450080404345 L 429.8429842984298,437.4666065383866 L 431.1931193119312,435.7287122727298 L 431.1931193119312,434.6666657770507 L 432.04320432043204,434.37701673277456 L 432.44324432443244,434.76321545847605 L 432.993299329933,434.28046705134915 L 433.69336933693364,433.3149702370954 L 435.09350935093505,432.88049667068117 L 435.4435443544354,431.9632746971401 L 435.8435843584358,431.67362565286396 L 436.043604360436,431.28742692716247 L 435.7435743574357,430.7081288386102 L 436.9436943694369,429.3564332986549 L 437.29372937293726,428.5357610065392 L 436.7436743674367,427.7150887144235 L 437.09370937093706,427.1840654665839 L 437.6437643764376,425.54272088235246 L 437.9437943794379,423.9013762981211 L 438.4438443844384,423.51517757241953 L 439.0939093909391,423.51517757241953 L 440.3940394039404,423.99792597954644 L 441.6941694169417,425.301346678789 L 442.44424442444245,425.4461712009271 L 442.99429942994294,425.7840950859159 L 446.4446444644464,429.59780750221836 L 447.044704470447,429.7909068650691 L 448.1448144814481,431.23915208644974 L 450.2950295029503,432.92877151139385 L 450.3950395039504,434.28046705134915 L 451.6951695169517,435.1976890248902 L 452.0952095209521,435.1976890248902 L 452.44524452445245,434.9563148213268 L 452.7452745274527,435.4390632284537 L 454.2454245424542,436.2114606798567 L 455.59555955595556,437.4666065383866 L 457.2457245724572,437.85280526408815 L 458.4958495849585,438.7700272376292 L 460.24602460246024,440.94239506970024 L 461.54615461546155,441.61824283967786 L 463.046304630463,441.61824283967786 L 464.4464446444644,441.0872195918383 L 464.79647964796476,441.32859379540173 L 465.8465846584658,443.2113125831966 L 466.4466446644664,443.7906106717489 L 466.996699669967,443.98371003459965 L 469.04690469046903,443.7906106717489 L 469.4969496949695,443.35613710533465 L 470.14701470147014,442.14926608751745 L 470.84708470847085,441.5216931582525 L 470.8970897089709,440.94239506970024 L 472.1472147214721,439.735524051883 L 474.3474347434743,440.02517309615916 L 474.69746974697466,440.1217227775845 L 475.4475447544754,441.2320441139764 L 477.4477447744774,443.5492364681854 L 479.2979297929793,444.85265716742805 L 480.44804480448045,446.3009023888087 L 481.69816981698165,446.78365079593556 L 481.9481948194819,447.31467404377514 L 482.9482948294829,447.6043230880513 L 483.79837983798376,448.32844569874163 L 485.1485148514851,448.5698199023051 L 487.84878487848783,449.4387670351335 L 488.6988698869887,450.3077141679619 L 489.0989098909891,450.35598900867456 L 488.84888488848884,449.82496576083497 L 489.7989798979898,449.05256830943193 L 490.34903490349035,449.2939425129954 L 490.6490649064906,448.8594689465812 L 491.1491149114911,448.9560186280066 L 492.1492149214921,449.5835915572715 L 492.49924992499245,448.7629192651558 L 493.6493649364936,448.81119410586854 L 494.8494849484948,449.34221735370807 L 496.0996099609961,450.54908837152533 L 497.5997599759976,450.54908837152533 L 500.0,450.0663399643984 L 499.74997499749975,450.597363212238 L 499.34993499349935,450.9835619379395 L 498.84988498849884,451.3214858229283 L 497.44974497449743,451.61113486720444 L 496.7996799679968,452.3835323186075 L 496.3496349634963,452.57663168145825 L 496.1496149614961,452.96283040715974 L 496.1996199619962,453.4938536549993 L 495.4995499549955,454.26625110640236 L 495.2495249524952,454.26625110640236 L 494.9494949494949,453.83177753998814 L 494.6494649464946,454.3628007878277 L 494.049404940494,454.65244983210385 L 493.69936993699366,455.9558705313465 L 492.79927992799276,456.7765428234622 L 492.09920992099205,456.8248176641749 L 491.6491649164916,457.25929123058904 L 491.89918991899185,458.22478804484285 L 491.7491749174917,458.3213377262682 L 490.69906990699064,458.0316886819921 L 490.34903490349035,458.07996352270476 L 488.84888488848884,459.47993390337274 L 488.0988098809881,459.1420100183839 L 487.64876487648763,459.81785778836155 L 486.6486648664866,460.30060619548846 L 484.09840984098406,460.78335460261536 L 482.9482948294829,460.7350797619027 L 481.89818981898185,461.26610300974227 L 478.74787478747874,461.7971262575818 L 477.0977097709771,461.7971262575818 L 474.9474947494749,460.2040565140631 L 474.2474247424742,460.2523313547758 L 473.6473647364736,460.44543071762655 L 472.79727972797275,461.16955332831685 L 467.8467846784678,462.56952370898483 L 467.1967196719672,462.52124886827215 L 465.3465346534653,461.9419507797199 L 464.9464946494649,462.13505014257066 L 461.64616461646165,462.2798746647087 L 434.1434143414341,456.5834434606114 L 433.44334433443345,456.5834434606114 L 356.985698569857,441.5216931582525 L 356.1856185618562,442.3906402910809 L 355.0855085508551,442.96993837963316 L 352.98529852985297,443.69406099032346 L 351.3351335133513,444.6595578045773 L 350.7350735073507,444.8043823267153 L 348.68486848684864,444.8043823267153 L 346.7846784678468,444.22508423816305 L 346.13461346134613,444.5147332824392 L 342.2342234223422,443.40441194604733 L 342.48424842484246,429.6943571836437 z" /><path fill-rule="evenodd" fill="#D2EBD9" stroke="#A6A6A6" stroke-width="0.25" opacity="1" d="M 305.1305130513051,138.79016704898052 L 305.08050805080507,210.1403816223347 L 281.57815781578154,210.23693130376006 L 279.02790279027903,210.5748551887489 L 278.8778877887789,217.71953161422684 L 278.7278727872787,218.15400518064104 L 278.3778377837784,218.44365422491717 L 277.47774777477747,218.63675358776794 L 276.9276927692769,218.63675358776794 L 276.47764776477646,218.3471045434918 L 274.8274827482748,216.2230115521335 L 274.47744774477445,215.98163734857005 L 271.02710271027104,216.07818702999543 L 270.2770277027703,216.2230115521335 L 270.1770177017702,216.51266059640963 L 270.3770377037704,217.4298825699507 L 268.1268126812681,217.67125677351416 L 260.92609260926093,214.82304117146552 L 260.42604260426043,214.7747663307528 L 257.4257425742574,215.3540644193051 L 256.1256125612561,215.93336250785737 L 254.27542754275427,217.8643561363649 L 253.47534753475347,218.49192906562988 L 253.12531253125312,218.3471045434918 L 252.1252125212521,217.38160772923803 L 251.9251925192519,217.28505804781264 L 251.67516751675166,217.4298825699507 L 248.27482748274826,224.14008542901448 L 248.32483248324831,224.67110867685403 L 247.27472747274726,226.31245326108547 L 246.4246424642464,226.2641784203728 L 243.87438743874387,224.8159331989921 L 240.7240724072407,223.31941313689876 L 240.37403740374037,223.02976409262263 L 240.12401240124012,221.3884195083912 L 238.1238123812381,220.76084657912625 L 235.27352735273527,219.50570072059634 L 234.02340234023401,219.26432651703288 L 233.07330733073306,219.6505252427344 L 231.27312731273125,218.92640263204407 L 230.62306230623062,219.2160516763202 L 229.022902290229,221.19532014554045 L 226.77267726772675,221.8711679155181 L 219.77197719771976,221.67806855266733 L 218.87188718871886,221.0022207826897 L 218.77187718771876,220.6160220569882 L 218.07180718071805,220.47119753485012 L 211.87118711871187,220.56774721627548 L 211.67116711671167,220.37464785342473 L 211.37113711371137,223.9469860661637 L 211.17111711171117,224.4780093140033 L 210.27102710271026,224.76765835827942 L 209.9209920992099,225.05730740255555 L 209.47094709470946,227.8572481638915 L 209.6209620962096,228.09862236745496 L 211.17111711171117,228.67792045600723 L 211.02110211021102,231.4778612173432 L 211.37113711371137,232.1537089873208 L 212.7212721272127,233.45712968656343 L 212.021202120212,233.45712968656343 L 209.9209920992099,232.97438127943653 L 207.4207420742074,232.82955675729846 L 204.07040704070405,232.29853350945888 L 202.8202820282028,232.53990771302233 L 202.22022202220222,233.45712968656343 L 202.17021702170217,235.19502395222023 L 201.97019701970197,236.25707044789937 L 201.67016701670167,236.78809369573895 L 199.4199419941994,237.65704082856735 L 197.86978697869785,237.65704082856735 L 195.4195419541954,237.17429242144047 L 193.2193219321932,235.53294783720904 L 191.36913691369136,234.71227554509332 L 188.36883688368835,233.988152934403 L 186.7186718671867,234.4226265008172 L 183.8183818381838,234.27780197867912 L 183.01830183018302,234.51917618224257 L 182.36823682368237,235.09847427079484 L 181.46814681468146,235.53294783720904 L 181.06810681068106,235.48467299649636 L 180.5180518051805,234.71227554509332 L 176.06760676067606,225.63660549110782 L 176.4176417641764,225.298681606119 L 179.16791679167915,223.70561186260028 L 179.5179517951795,222.11254211908152 L 179.4179417941794,221.3884195083912 L 175.6175617561756,217.57470709208877 L 174.86748674867485,217.28505804781264 L 172.4172417241724,217.23678320709996 L 172.1172117211721,217.38160772923803 L 171.9171917191719,219.6505252427344 L 171.46714671467146,220.27809817199935 L 170.96709670967095,220.6160220569882 L 170.5170517051705,220.13327364986128 L 168.76687668766877,216.51266059640963 L 168.16681668166817,214.19546824220055 L 168.16681668166817,213.51962047222293 L 171.6171617161716,212.60239849868182 L 172.91729172917292,212.98859722438334 L 175.7175717571757,212.2161997729803 L 176.3176317631763,211.8782758879915 L 176.76767676767676,210.71967971088696 L 176.7176717671767,210.1403816223347 L 176.16761676167616,209.31970933021898 L 172.5172517251725,209.51280869306973 L 171.3171317131713,209.85073257805857 L 171.017101710171,209.80245773734586 L 169.26692669266924,208.16111315311446 L 168.86688668866887,207.147341498148 L 169.9169916991699,203.67155296683438 L 167.86678667866786,204.10602653324858 L 165.8165816581658,205.6990962767673 L 165.6165616561656,206.27839436531957 L 165.6165616561656,206.71286793173377 L 165.86658665866585,206.90596729458454 L 166.76667666766676,207.0507918167226 L 167.06670667066706,207.24389117957335 L 167.2167216721672,207.53354022384949 L 167.06670667066706,208.30593767525252 L 167.16671667166716,208.8852357638048 L 167.76677667766776,210.38175582589813 L 164.86648664866485,208.93351060451747 L 163.016301630163,209.03006028594285 L 158.26582658265826,207.4852653831368 L 156.56565656565655,207.4852653831368 L 155.76557655765575,206.85769245387186 L 155.26552655265525,205.89219563961808 L 152.16521652165216,205.65082143605463 L 151.16511651165115,205.74737111748001 L 148.9148914891489,206.90596729458454 L 148.3148314831483,209.03006028594285 L 148.6148614861486,212.16792493226762 L 137.86378637863785,217.04368384424922 L 133.66336633663366,218.15400518064104 L 132.36323632363235,218.15400518064104 L 128.66286628662866,218.781578109906 L 125.96259625962595,218.54020390634255 L 124.41244124412441,218.781578109906 L 123.8123812381238,219.3126013577456 L 122.9122912291229,220.76084657912625 L 102.16021602160215,222.78838988905918 L 102.56025602560256,221.67806855266733 L 102.76027602760276,220.22982333128667 L 102.2102210221022,214.436842445764 L 103.01030103010301,211.7817262065661 L 102.96029602960296,209.51280869306973 L 103.26032603260326,209.03006028594285 L 102.6102610261026,207.67836474598755 L 101.7101710171017,207.34044086099874 L 100.96009600960096,205.11979818821504 L 101.26012601260125,204.25085105538665 L 101.4101410141014,202.85088067471867 L 101.4101410141014,201.4991851347634 L 101.21012101210121,200.67851284264768 L 101.5101510151015,200.0992147540954 L 101.76017601760175,198.21649596630053 L 102.46024602460245,196.86480042634525 L 103.26032603260326,194.0648596650093 L 105.26052605260526,190.2028724079942 L 106.06060606060605,188.12705425734856 L 106.86068606860685,186.6305341952552 L 107.06070607060705,185.85813674385219 L 107.06070607060705,184.16851731890807 L 106.4106410641064,183.34784502679236 L 106.26062606260625,182.91337146037816 L 106.5106510651065,181.8995998054117 L 107.76077607760776,180.40307974331833 L 108.26082608260826,179.19620872550112 L 110.11101110111011,177.41003961913162 L 110.96109610961095,176.1548937606017 L 113.11131113111311,172.09980714073586 L 113.56135613561355,170.50673739721714 L 113.66136613661365,167.27232306946698 L 114.1114111411141,165.67925332594822 L 114.91149114911491,164.0861835824295 L 149.21492149214922,163.84480937886605 L 150.1150115011501,160.5621202104032 L 153.1153115311531,139.99703806679776 L 153.3153315331533,139.65911418180892 L 153.66536653665366,139.65911418180892 L 155.9155915591559,140.2384122703612 L 156.4156415641564,140.2866871110739 L 156.8156815681568,139.99703806679776 L 164.66646664666465,129.3282982692935 L 165.16651665166515,128.942099543592 L 165.6165616561656,128.942099543592 L 166.56665666566656,129.42484795071888 L 167.3167316731673,129.52139763214427 L 168.21682168216822,129.47312279143156 L 169.9169916991699,128.8938247028793 L 170.46704670467045,128.942099543592 L 170.7170717071707,129.18347374715543 L 168.76687668766877,139.36946513753279 L 168.76687668766877,140.14186258893582 L 169.06690669066907,140.38323679249928 L 171.3171317131713,141.1073594031896 L 172.2172217221722,141.01080972176422 L 173.21732173217322,140.1901374296485 L 172.91729172917292,139.03154125254397 L 173.46734673467347,137.1005476240364 L 175.017501750175,138.25914380114097 L 175.6175617561756,139.07981609325665 L 177.46774677467747,142.8452536688464 L 177.76777677767777,142.748703987421 L 178.11781178117812,142.36250526171952 L 178.96789678967895,140.6728858367754 L 179.26792679267925,140.2384122703612 L 179.56795679567955,140.09358774822311 L 180.7180718071807,140.14186258893582 L 187.21872187218722,138.79016704898052 L 188.11881188118812,138.35569348256632 L 189.018901890189,137.67984571258867 L 190.6190619061906,137.48674634973793 L 192.26922692269227,136.90744826118566 L 193.66936693669365,135.8454017655065 L 193.96939693969395,134.39715654412583 L 194.16941694169415,134.15578234056238 L 197.66976697669767,135.07300431410349 L 198.76987698769875,135.07300431410349 L 200.7200720072007,135.79712692479382 L 201.27012701270127,135.74885208408114 L 207.37073707370735,133.09373584488324 L 207.5207520752075,140.2384122703612 L 208.3208320832083,140.76943551820077 L 210.3210321032103,141.68665749174187 L 211.47114711471147,141.25218392532767 L 218.5218521852185,140.52806131463734 L 223.37233723372336,140.96253488105154 L 241.2241224122412,145.21072086376816 L 249.47494749474947,145.9348434744585 L 251.97519751975196,144.6314227752159 L 252.8252825282528,143.90730016452554 L 255.6255625562556,142.45905494314488 L 271.7271727172717,141.0590845624769 L 275.67756775677566,143.03835303169714 L 276.4276427642764,143.81075048310018 L 277.07770777077707,144.19694920880167 L 277.6277627762776,143.76247564238747 L 280.8780878087809,138.83844188969323 L 281.5281528152815,138.30741864185364 L 283.4283428342834,139.61083934109624 L 284.4284428442844,139.80393870394698 L 286.17861786178617,139.80393870394698 L 289.12891289128913,139.17636577468204 L 290.02900290029004,138.4522431639917 L 291.1291129112911,138.0177695975775 L 294.67946794679466,137.29364698688718 L 296.7296729672967,136.52124953548415 L 301.6301630163016,138.79016704898052 L 302.9302930293029,138.9832664118313 L 303.4303430343034,138.5487928454171 L 305.1305130513051,138.79016704898052 z" /><path fill-rule="evenodd" fill="#D2EBD9" stroke="#A6A6A6" stroke-width="0.25" opacity="1" d="M 341.8341834183418,396.43299193260106 L 277.5277527752775,395.8054190033361 L 277.57775777577757,410.3844208985682 L 239.12391239123912,412.50851388992646 L 238.57385738573856,409.1775498807509 L 238.27382738273826,405.0741884201724 L 237.87378737873786,404.63971485375816 L 236.1236123612361,403.6742180395044 L 235.22352235223522,402.5156218623999 L 234.52345234523452,402.1294231366984 L 232.97329732973296,401.88804893313494 L 232.7232723272327,401.69494957028417 L 233.023302330233,398.12261135754517 L 232.5232523252325,396.8191906583026 L 232.47324732473245,394.9364718705077 L 232.1232123212321,393.05375308271283 L 231.87318731873185,392.7641040384367 L 230.22302230223022,392.18480594988443 L 229.87298729872987,390.8331104099292 L 228.5228522852285,390.1572626399515 L 227.87278727872786,389.1434909849851 L 227.77277727772776,388.2745438521567 L 227.87278727872786,387.2607721971902 L 229.52295229522952,385.0884043651192 L 229.72297229722972,384.6056559579923 L 229.07290729072906,383.92980818801465 L 227.37273727372735,382.9643113737609 L 226.57265726572655,382.72293717019744 L 225.97259725972597,384.07463271015274 L 225.72257225722572,384.3160069137162 L 224.37243724372436,384.1229075508654 L 222.67226722672265,383.4470597808878 L 220.37203720372037,383.54360946231316 L 218.07180718071805,385.28150372796995 L 217.4217421742174,385.5228779315334 L 216.52165216521652,385.42632825010804 L 215.52155215521552,385.76425213509685 L 214.57145714571456,386.63319926792525 L 214.5214521452145,387.2607721971902 L 214.37143714371436,387.45387156004097 L 212.9212921292129,388.4676432150074 L 211.92119211921192,388.70901741857085 L 211.12111211121112,388.5641928964328 L 209.9209920992099,389.1434909849851 L 209.67096709670966,391.31585881705604 L 209.9209920992099,391.75033238347027 L 210.87108710871087,391.94343174632104 L 210.92109210921092,392.23308079059717 L 210.77107710771077,393.82615053411587 L 210.62106210621062,394.115799578392 L 209.6209620962096,394.0675247376793 L 208.67086708670865,393.7778756934032 L 208.4208420842084,393.1985776048509 L 208.37083708370835,392.5227298348733 L 207.8207820782078,392.3779053127352 L 207.2207220722072,392.5227298348733 L 207.3207320732073,394.3088989412428 L 206.77067706770677,395.4192202776346 L 205.6205620562056,395.9985183661869 L 204.4204420442044,395.9502435254742 L 203.87038703870385,396.19161772903766 L 203.3203320332033,396.91574033972796 L 202.37023702370237,397.3502139061422 L 199.7199719971997,396.6743661361645 L 198.16981698169815,394.2123492598174 L 194.66946694669466,389.8193387549627 L 184.56845684568455,384.6056559579923 L 184.06840684068405,383.92980818801465 L 184.4184418441844,381.6126158338056 L 184.018401840184,367.2267133014243 L 184.36843684368435,365.77846808004364 L 182.26822682268227,364.37849769937566 L 181.26812681268126,364.0888486550995 L 177.81778177817782,363.99229897367417 L 177.66776677667767,363.8474744515361 L 177.66776677667767,361.2406330530509 L 178.31783178317832,359.21308974311796 L 177.71777177717772,359.06826522097987 L 176.66766676667666,359.11654006169255 L 170.06700670067005,355.7373012118044 L 169.66696669666965,355.3993773268155 L 169.46694669466945,355.1097282825394 L 169.56695669566955,351.87531395478925 L 169.8169816981698,350.0891448484198 L 169.5169516951695,349.12364803416597 L 168.56685668566857,348.44780026418834 L 167.46674667466746,348.10987637919953 L 166.96669666966696,348.1581512199122 L 166.3166316631663,348.64089962703906 L 165.2165216521652,348.83399898988984 L 164.4164416441644,348.64089962703906 L 162.56625662566256,347.77195249421067 L 159.56595659565957,347.6271279720726 L 156.96569656965696,346.56508147639346 L 155.7155715571557,345.74440918427774 L 152.86528652865286,342.5099948565276 L 152.26522652265226,342.12379613082607 L 149.51495149514952,341.0134747944343 L 145.9145914591459,341.6893225644119 L 143.36433643364336,341.83414708654993 L 143.2143214321432,337.6825107852587 L 143.56435643564356,336.66873913029224 L 145.4145414541454,336.08944104174 L 147.76477647764776,336.4273649267288 L 148.06480648064806,336.0411662010273 L 148.66486648664866,334.01362289109437 L 151.9151915191519,330.8757582447696 L 159.31593159315932,326.86894646561643 L 161.5161516151615,324.6965786335454 L 163.26632663266327,324.06900570428047 L 165.2165216521652,323.0069592086013 L 165.5165516551655,323.055234049314 L 167.3167316731673,324.98622767782155 L 167.66676667666766,325.0827773592469 L 168.01680168016802,323.4897076157282 L 168.26682668266827,323.0069592086013 L 169.66696669666965,321.655263668646 L 171.06710671067106,320.7380416951049 L 172.3172317231723,319.482895836575 L 172.91729172917292,318.42084934089587 L 173.51735173517352,318.1794751373324 L 177.1177117711771,317.7450015709182 L 177.1177117711771,315.4760840574218 L 176.8176817681768,314.17266335817925 L 177.91779177917792,309.24862960548495 L 177.76777677767777,308.0900334283804 L 176.3176317631763,306.69006304771244 L 174.26742674267425,303.8418474456638 L 173.76737673767377,300.17295955149945 L 172.61726172617261,295.73167420593205 L 174.06740674067404,291.1455643382266 L 174.3174317431743,289.6007694354206 L 175.1175117511751,289.02147134686834 L 175.7175717571757,288.1042493733272 L 175.76757675767576,287.47667644406226 L 175.3175317531753,285.88360670054357 L 175.86758675867586,284.91810988628976 L 175.46754675467545,283.4215898241964 L 175.4175417541754,282.31126848780457 L 174.8174817481748,281.7319703992523 L 173.9173917391739,281.63542071782695 L 175.4175417541754,279.1734038414798 L 174.4174417441744,278.6423805936402 L 172.56725672567256,276.9527611686961 L 173.61736173617362,274.2010952480728 L 173.56735673567357,273.67007200023323 L 173.16731673167317,273.1873235931064 L 173.21732173217322,272.41492614170335 L 174.6174617461746,270.0011841060689 L 177.56775677567757,270.67703187604656 L 178.46784678467847,270.24255830963233 L 178.66786678667864,270.0011841060689 L 179.2179217921792,270.4356576724831 L 180.01800180018,271.54597900887495 L 180.36803680368035,271.7390783717257 L 181.86818681868186,270.8218563981846 L 182.91829182918292,271.15978028317346 L 185.1185118511851,271.06323060174805 L 185.5185518551855,271.3528796460242 L 185.66856685668566,271.7390783717257 L 185.36853685368536,272.41492614170335 L 183.46834683468344,272.318376460278 L 183.26832683268327,272.8493997081176 L 184.56845684568455,275.2148669030393 L 185.2185218521852,275.6976153101662 L 185.76857685768576,275.6493404694535 L 186.56865686568656,274.10454556664746 L 187.01870187018702,273.8148965223713 L 188.06880688068807,273.76662168165865 L 189.018901890189,273.0424990709683 L 191.56915691569156,273.76662168165865 L 193.9193919391939,275.6010656287408 L 194.2194219421942,275.4079662658901 L 194.96949694969496,274.29764492949823 L 195.1195119511951,274.29764492949823 L 198.26982698269825,276.85621148727074 L 198.66986698669865,277.0010360094088 L 199.56995699569956,275.5527907880281 L 199.86998699869986,275.31141658446467 L 200.27002700270026,275.4079662658901 L 203.8203820382038,277.0975856908342 L 204.5204520452045,278.01480766437527 L 204.57045704570456,279.6561522486067 L 206.02060206020602,281.3457716735508 L 206.22062206220622,281.15267231070004 L 206.57065706570657,279.9940761335955 L 206.87068706870687,279.5113277264686 L 209.37093709370936,280.5250993814351 L 209.6209620962096,280.76647358499855 L 209.67096709670966,282.0698942842411 L 211.77117711771177,281.3457716735508 L 212.1212121212121,281.9250697621031 L 212.5212521252125,283.2767653020583 L 211.62116211621162,286.12498090410696 L 213.07130713071305,286.26980542624506 L 213.77137713771376,286.80082867408464 L 214.07140714071406,287.0904777183608 L 214.47144714471446,288.1042493733272 L 214.8214821482148,288.49044809902875 L 216.67166716671667,289.69731911684596 L 217.37173717371735,291.24211401965204 L 217.7217721772177,291.48348822321543 L 220.27202720272027,292.1593359931931 L 220.57205720572057,292.11106115248043 L 221.77217721772175,291.09728949751394 L 223.07230723072306,291.53176306392817 L 224.82248224822482,291.869686948917 L 226.27262726272625,292.6903592410327 L 228.3228322832283,294.52480318811484 L 230.07300730073007,295.2972006395179 L 231.6231623162316,295.6351245245067 L 232.4232423242324,295.53857484308134 L 236.3236323632363,296.60062133876045 L 236.7236723672367,297.0350949051747 L 239.07390739073907,298.09714140085384 L 239.87398739873987,298.6281646486934 L 240.87408740874085,299.8833105072233 L 241.024102410241,300.4143337550629 L 240.7240724072407,302.5867015871339 L 240.8240824082408,303.9866719678019 L 240.6240624062406,304.903893941343 L 240.67406740674065,305.1935429856191 L 241.6241624162416,305.7245662334587 L 241.7241724172417,306.448688844149 L 241.57415741574155,308.91070572049614 L 242.1242124212421,309.39345412762304 L 242.2242224222422,309.77965285332454 L 241.77417741774175,311.7106464818321 L 241.6241624162416,311.80719616325746 L 240.22402240224022,311.565821959694 L 239.67396739673967,311.7106464818321 L 239.77397739773977,314.55886208388074 L 240.47404740474047,315.138160172433 L 241.2241224122412,315.3312595352838 L 245.67456745674565,314.2692130396046 L 245.02450245024502,315.57263373884723 L 244.87448744874487,316.73122991595176 L 246.97469746974696,318.1794751373324 L 247.37473747374736,319.72427004013844 L 247.27472747274726,320.20701844726534 L 245.4245424542454,319.9173694029892 L 245.27452745274528,320.01391908441457 L 245.4245424542454,321.51043914650796 L 245.8245824582458,323.055234049314 L 246.57465746574655,323.5379824564409 L 249.82498249824982,324.16555538570583 L 250.47504750475045,323.58625729715357 L 250.7250725072507,323.10350889002666 L 251.97519751975196,325.9517244920753 L 253.32533253325332,331.98607958116145 L 259.9259925992599,342.99274326365446 L 260.976097609761,344.15133944075905 L 262.27622762276224,345.2616607771509 L 280.42804280428044,352.21323783977806 L 281.5281528152815,352.7925359283303 L 282.7282728272827,353.95113210543485 L 284.47844784478445,354.43388051256176 L 287.6787678767877,354.3373308311364 L 317.63176317631763,350.9580919812482 L 319.2319231923192,350.2822442112705 L 321.6321632163216,349.7512209634309 L 325.1825182518252,349.9443203262817 L 329.1329132913291,349.4132970784421 L 331.033103310331,348.8822738306025 L 332.38323832383236,348.7374493084645 L 334.983498349835,348.83399898988984 L 337.4837483748375,349.5581216005802 L 339.8339833983398,349.70294612271823 L 341.034103410341,350.13741968913246 L 341.98419841984196,350.18569452984514 L 341.8341834183418,396.43299193260106 z" /><path fill-rule="evenodd" fill="#D2EBD9" stroke="#A6A6A6" stroke-width="0.25" opacity="1" d="M 341.98419841984196,350.18569452984514 L 341.034103410341,350.13741968913246 L 339.8339833983398,349.70294612271823 L 337.4837483748375,349.5581216005802 L 334.983498349835,348.83399898988984 L 332.38323832383236,348.7374493084645 L 331.033103310331,348.8822738306025 L 329.1329132913291,349.4132970784421 L 325.1825182518252,349.9443203262817 L 321.6321632163216,349.7512209634309 L 319.2319231923192,350.2822442112705 L 317.63176317631763,350.9580919812482 L 287.6787678767877,354.3373308311364 L 284.47844784478445,354.43388051256176 L 282.7282728272827,353.95113210543485 L 281.5281528152815,352.7925359283303 L 280.42804280428044,352.21323783977806 L 262.27622762276224,345.2616607771509 L 260.976097609761,344.15133944075905 L 259.9259925992599,342.99274326365446 L 253.32533253325332,331.98607958116145 L 251.97519751975196,325.9517244920753 L 250.7250725072507,323.10350889002666 L 250.47504750475045,323.58625729715357 L 249.82498249824982,324.16555538570583 L 246.57465746574655,323.5379824564409 L 245.8245824582458,323.055234049314 L 245.4245424542454,321.51043914650796 L 245.27452745274528,320.01391908441457 L 245.4245424542454,319.9173694029892 L 247.27472747274726,320.20701844726534 L 247.37473747374736,319.72427004013844 L 246.97469746974696,318.1794751373324 L 244.87448744874487,316.73122991595176 L 245.02450245024502,315.57263373884723 L 245.67456745674565,314.2692130396046 L 241.2241224122412,315.3312595352838 L 240.47404740474047,315.138160172433 L 239.77397739773977,314.55886208388074 L 239.67396739673967,311.7106464818321 L 240.22402240224022,311.565821959694 L 241.6241624162416,311.80719616325746 L 241.77417741774175,311.7106464818321 L 242.2242224222422,309.77965285332454 L 242.1242124212421,309.39345412762304 L 241.57415741574155,308.91070572049614 L 241.7241724172417,306.448688844149 L 241.6241624162416,305.7245662334587 L 240.67406740674065,305.1935429856191 L 240.6240624062406,304.903893941343 L 240.8240824082408,303.9866719678019 L 240.7240724072407,302.5867015871339 L 241.024102410241,300.4143337550629 L 240.87408740874085,299.8833105072233 L 239.87398739873987,298.6281646486934 L 239.07390739073907,298.09714140085384 L 236.7236723672367,297.0350949051747 L 236.3236323632363,296.60062133876045 L 236.6236623662366,294.2351541438387 L 234.62346234623462,291.1455643382266 L 234.47344734473447,290.3731668868236 L 235.87358735873585,288.53872293974143 L 236.47364736473645,288.00769969190185 L 236.67366736673665,286.80082867408464 L 236.47364736473645,286.4146299483831 L 235.62356235623562,285.78705701911815 L 234.27342734273427,283.5181395056218 L 234.17341734173417,283.18021562063296 L 234.57345734573457,282.2629936470919 L 234.57345734573457,281.5871458771142 L 234.37343734373437,281.2974968328381 L 232.7232723272327,280.4285497000097 L 231.47314731473145,280.380274859297 L 231.17311731173115,280.23545033715897 L 231.023102310231,279.8975264521701 L 230.62306230623062,276.37346308014384 L 230.72307230723072,275.7458901508789 L 231.9231923192319,273.0424990709683 L 233.1233123312331,271.40115448673686 L 233.57335733573356,271.01495576103537 L 235.52355235523552,270.91840607961 L 235.8235823582358,270.72530671675923 L 237.023702370237,268.84258792896435 L 238.5238523852385,267.3943427075837 L 238.37383738373836,267.15296850402024 L 237.1237123712371,266.5253955747553 L 236.8236823682368,266.23574653047916 L 236.97369736973695,265.94609748620303 L 238.2238223822382,264.9323258312366 L 239.77397739773977,266.0909220083411 L 239.97399739973997,265.94609748620303 L 241.1241124112411,260.4910404856692 L 241.57415741574155,256.33940418437794 L 242.8242824282428,252.38086724593745 L 242.97429742974296,246.92581024540362 L 243.62436243624362,246.73271088255285 L 246.5246524652465,247.74648253751934 L 246.6246624662466,247.4568334932432 L 246.37463746374635,245.7189392275864 L 244.37443744374437,244.89826693547067 L 243.92439243924392,244.51206820976918 L 243.92439243924392,244.17414432478034 L 243.97439743974397,243.73967075836615 L 244.32443244324432,243.0638229883885 L 244.87448744874487,242.677624262687 L 245.67456745674565,241.66385260772054 L 247.77477747774776,241.13282935988096 L 248.27482748274826,239.87768350135104 L 248.57485748574857,238.57426280210845 L 248.37483748374837,238.28461375783232 L 248.024802480248,238.13978923569425 L 245.57455745574555,237.8984150321308 L 245.02450245024502,237.17429242144047 L 244.82448244824482,236.2087956071867 L 245.07450745074507,235.82259688148517 L 250.6250625062506,231.09166249164167 L 250.5250525052505,230.22271535881328 L 248.32483248324831,224.67110867685403 L 248.27482748274826,224.14008542901448 L 251.67516751675166,217.4298825699507 L 251.9251925192519,217.28505804781264 L 252.1252125212521,217.38160772923803 L 253.12531253125312,218.3471045434918 L 253.47534753475347,218.49192906562988 L 254.27542754275427,217.8643561363649 L 256.1256125612561,215.93336250785737 L 257.4257425742574,215.3540644193051 L 260.42604260426043,214.7747663307528 L 260.92609260926093,214.82304117146552 L 268.1268126812681,217.67125677351416 L 270.3770377037704,217.4298825699507 L 270.1770177017702,216.51266059640963 L 270.2770277027703,216.2230115521335 L 271.02710271027104,216.07818702999543 L 274.47744774477445,215.98163734857005 L 274.8274827482748,216.2230115521335 L 276.47764776477646,218.3471045434918 L 276.9276927692769,218.63675358776794 L 277.47774777477747,218.63675358776794 L 278.3778377837784,218.44365422491717 L 278.7278727872787,218.15400518064104 L 278.8778877887789,217.71953161422684 L 279.02790279027903,210.5748551887489 L 281.57815781578154,210.23693130376006 L 305.08050805080507,210.1403816223347 L 304.98049804980496,284.8698350455771 L 341.68416841684166,284.8698350455771 L 342.18421842184216,286.31808026695774 L 341.98419841984196,350.18569452984514 z" /><path fill-rule="evenodd" fill="#D2EBD9" stroke="#A6A6A6" stroke-width="0.25" opacity="1" d="M 102.16021602160215,222.78838988905918 L 122.9122912291229,220.76084657912625 L 123.8123812381238,219.3126013577456 L 124.41244124412441,218.781578109906 L 125.96259625962595,218.54020390634255 L 128.66286628662866,218.781578109906 L 132.36323632363235,218.15400518064104 L 133.66336633663366,218.15400518064104 L 137.86378637863785,217.04368384424922 L 148.6148614861486,212.16792493226762 L 151.7151715171517,212.50584881725644 L 152.4152415241524,213.2299714279468 L 152.66526652665266,214.7747663307528 L 152.2152215221522,216.94713416282383 L 152.66526652665266,222.7401150483465 L 152.56525652565256,223.41596281832415 L 149.41494149414942,224.96075772113016 L 148.9148914891489,225.3952312875444 L 149.06490649064907,226.11935389823472 L 150.2150215021502,228.8227449781453 L 150.46504650465045,229.11239402242143 L 150.86508650865085,229.2572185445595 L 152.56525652565256,229.643417270261 L 152.6152615261526,230.1261656773879 L 151.7151715171517,235.00192458936945 L 154.71547154715472,236.01569624433594 L 155.3155315531553,236.40189497003743 L 153.3153315331533,239.10528604994803 L 153.4153415341534,239.87768350135104 L 154.11541154115412,241.8569519705713 L 154.21542154215422,242.72589910339968 L 153.81538153815382,245.13964113903413 L 154.26542654265427,248.7602541924858 L 154.9154915491549,249.87057552887765 L 156.46564656465645,250.78779750241873 L 157.56575657565756,250.98089686526947 L 159.76597659765974,251.02917170598218 L 160.16601660166015,251.12572138740754 L 160.36603660366035,251.51192011310906 L 160.46604660466045,256.0980299808145 L 160.3160316031603,256.77387775079217 L 159.7159715971597,256.9187022729302 L 156.96569656965696,256.8704274322175 L 156.66566656665665,257.16007647649366 L 157.3157315731573,258.02902360932205 L 160.2160216021602,261.07033857422147 L 160.7160716071607,261.3599876184976 L 161.26612661266125,261.4082624592103 L 163.51635163516352,260.73241468923266 L 163.96639663966397,260.73241468923266 L 165.016501650165,261.2151630963595 L 166.06660666066605,262.1806599106133 L 166.56665666566656,262.95305736201635 L 168.21682168216822,264.4495774241097 L 170.56705670567055,264.49785226482237 L 170.76707670767075,264.9806006719493 L 170.76707670767075,266.76676977831875 L 171.36713671367136,268.02191563684863 L 173.11731173117312,269.32533633609125 L 174.6174617461746,270.0011841060689 L 173.21732173217322,272.41492614170335 L 173.16731673167317,273.1873235931064 L 173.56735673567357,273.67007200023323 L 173.61736173617362,274.2010952480728 L 172.56725672567256,276.9527611686961 L 174.4174417441744,278.6423805936402 L 175.4175417541754,279.1734038414798 L 173.9173917391739,281.63542071782695 L 174.8174817481748,281.7319703992523 L 175.4175417541754,282.31126848780457 L 175.46754675467545,283.4215898241964 L 175.86758675867586,284.91810988628976 L 175.3175317531753,285.88360670054357 L 175.76757675767576,287.47667644406226 L 175.7175717571757,288.1042493733272 L 175.1175117511751,289.02147134686834 L 174.3174317431743,289.6007694354206 L 174.06740674067404,291.1455643382266 L 172.61726172617261,295.73167420593205 L 173.76737673767377,300.17295955149945 L 174.26742674267425,303.8418474456638 L 176.3176317631763,306.69006304771244 L 177.76777677767777,308.0900334283804 L 177.91779177917792,309.24862960548495 L 176.8176817681768,314.17266335817925 L 177.1177117711771,315.4760840574218 L 177.1177117711771,317.7450015709182 L 173.51735173517352,318.1794751373324 L 172.91729172917292,318.42084934089587 L 172.3172317231723,319.482895836575 L 171.06710671067106,320.7380416951049 L 169.66696669666965,321.655263668646 L 168.26682668266827,323.0069592086013 L 168.01680168016802,323.4897076157282 L 167.66676667666766,325.0827773592469 L 167.3167316731673,324.98622767782155 L 165.5165516551655,323.055234049314 L 165.2165216521652,323.0069592086013 L 163.26632663266327,324.06900570428047 L 161.5161516151615,324.6965786335454 L 159.31593159315932,326.86894646561643 L 151.9151915191519,330.8757582447696 L 148.66486648664866,334.01362289109437 L 148.06480648064806,336.0411662010273 L 147.76477647764776,336.4273649267288 L 145.4145414541454,336.08944104174 L 143.56435643564356,336.66873913029224 L 143.2143214321432,337.6825107852587 L 143.36433643364336,341.83414708654993 L 141.7141714171417,342.1720709715388 L 139.4139413941394,343.0892929450799 L 138.013801380138,344.53753816646054 L 135.36353635363537,344.82718721073667 L 131.86318631863185,340.19280250231856 L 126.4126412641264,335.07566938677354 L 126.012601260126,334.6411958203593 L 125.86258625862585,334.11017257251973 L 123.06230623062305,332.37227830686294 L 120.5120512051205,330.1999104747919 L 119.76197619761976,329.8619865898031 L 119.26192619261926,329.0413142976874 L 118.46184618461845,328.5585658905605 L 117.96179617961795,327.88271812058287 L 116.26162616261625,327.54479423559405 L 114.56145614561456,326.3861980584895 L 113.6113611361136,325.46897608494845 L 111.46114611461145,324.6965786335454 L 109.56095609560955,324.4069295892693 L 108.16081608160816,324.5517541114073 L 106.06060606060605,324.50347927069464 L 104.2104210421042,325.227601881385 L 101.21012101210121,324.8896779963962 L 100.76007600760076,325.0345025185342 L 99.8099809980998,325.71035028851185 L 98.009800980098,325.9034496513626 L 94.7094709470947,325.0345025185342 L 91.95919591959195,326.19309869563875 L 90.65906590659066,326.0965490142134 L 89.30893089308931,325.37242640352304 L 87.2087208720872,325.0827773592469 L 85.2085208520852,324.16555538570583 L 83.5083508350835,324.16555538570583 L 80.75807580758075,323.15178373073934 L 79.50795079507951,321.9931875536348 L 78.4078407840784,321.75181335007136 L 77.8077807780778,320.88286621724296 L 75.4075407540754,320.3518429694034 L 74.50745074507451,319.28979647372427 L 72.9072907290729,318.66222354445927 L 70.55705570557055,317.1657034823659 L 71.95719571957196,315.37953437599646 L 74.25742574257426,311.5175471189813 L 78.05780578057805,306.49696368486167 L 79.20792079207921,303.64874808281303 L 79.75797579757976,301.0901815250405 L 82.9082908290829,296.26269745377164 L 83.008300830083,295.49030000236866 L 82.5082508250825,293.5110315331484 L 83.2083208320832,293.12483280744686 L 86.25862586258626,290.2766172053982 L 86.55865586558656,289.6490442761333 L 89.35893589358935,287.0422028776481 L 95.009500950095,279.5113277264686 L 95.15951595159515,278.207907027226 L 95.90959095909591,276.9044863279834 L 98.55985598559856,273.863171363084 L 99.7099709970997,271.3528796460242 L 100.46004600460046,268.98741245110244 L 101.76017601760175,266.23574653047916 L 102.16021602160215,264.4495774241097 L 103.06030603060306,263.00133220272903 L 103.76037603760375,257.7876494057586 L 104.010401040104,250.78779750241873 L 103.8103810381038,248.95335355533655 L 103.56035603560356,247.98785674108277 L 102.6102610261026,247.26373413039244 L 101.76017601760175,245.62238954616103 L 101.21012101210121,245.09136629832145 L 101.7101710171017,246.78098572326556 L 100.96009600960096,246.39478699756404 L 100.66006600660066,246.82926056397824 L 100.96009600960096,248.47060514820967 L 100.46004600460046,249.24300259961268 L 100.66006600660066,249.58092648460152 L 100.56005600560056,249.72575100673959 L 100.2100210021002,249.67747616602688 L 100.2100210021002,248.03613158179547 L 99.6099609960996,246.87753540469092 L 99.4099409940994,246.1051379532879 L 99.55995599559955,243.45002171409 L 99.8099809980998,242.09832617413474 L 100.71007100710071,239.6363092977876 L 101.36013601360135,238.62253764282113 L 101.76017601760175,237.17429242144047 L 102.4102410241024,232.49163287230965 L 102.5102510251025,230.9468379695036 L 102.36023602360235,230.0778908366752 L 102.16021602160215,229.88479147382444 L 101.96019601960195,230.22271535881328 L 101.96019601960195,231.09166249164167 L 101.5101510151015,230.60891408451477 L 100.3100310031003,228.62964561529452 L 100.76007600760076,226.40900294251085 L 102.16021602160215,222.78838988905918 z" /><path fill-rule="evenodd" fill="#D2EBD9" stroke="#A6A6A6" stroke-width="0.25" opacity="1" d="M 174.6174617461746,270.0011841060689 L 173.11731173117312,269.32533633609125 L 171.36713671367136,268.02191563684863 L 170.76707670767075,266.76676977831875 L 170.76707670767075,264.9806006719493 L 170.56705670567055,264.49785226482237 L 168.21682168216822,264.4495774241097 L 166.56665666566656,262.95305736201635 L 166.06660666066605,262.1806599106133 L 165.016501650165,261.2151630963595 L 163.96639663966397,260.73241468923266 L 163.51635163516352,260.73241468923266 L 161.26612661266125,261.4082624592103 L 160.7160716071607,261.3599876184976 L 160.2160216021602,261.07033857422147 L 157.3157315731573,258.02902360932205 L 156.66566656665665,257.16007647649366 L 156.96569656965696,256.8704274322175 L 159.7159715971597,256.9187022729302 L 160.3160316031603,256.77387775079217 L 160.46604660466045,256.0980299808145 L 160.36603660366035,251.51192011310906 L 160.16601660166015,251.12572138740754 L 159.76597659765974,251.02917170598218 L 157.56575657565756,250.98089686526947 L 156.46564656465645,250.78779750241873 L 154.9154915491549,249.87057552887765 L 154.26542654265427,248.7602541924858 L 153.81538153815382,245.13964113903413 L 154.21542154215422,242.72589910339968 L 154.11541154115412,241.8569519705713 L 153.4153415341534,239.87768350135104 L 153.3153315331533,239.10528604994803 L 155.3155315531553,236.40189497003743 L 154.71547154715472,236.01569624433594 L 151.7151715171517,235.00192458936945 L 152.6152615261526,230.1261656773879 L 152.56525652565256,229.643417270261 L 150.86508650865085,229.2572185445595 L 150.46504650465045,229.11239402242143 L 150.2150215021502,228.8227449781453 L 149.06490649064907,226.11935389823472 L 148.9148914891489,225.3952312875444 L 149.41494149414942,224.96075772113016 L 152.56525652565256,223.41596281832415 L 152.66526652665266,222.7401150483465 L 152.2152215221522,216.94713416282383 L 152.66526652665266,214.7747663307528 L 152.4152415241524,213.2299714279468 L 151.7151715171517,212.50584881725644 L 148.6148614861486,212.16792493226762 L 148.3148314831483,209.03006028594285 L 148.9148914891489,206.90596729458454 L 151.16511651165115,205.74737111748001 L 152.16521652165216,205.65082143605463 L 155.26552655265525,205.89219563961808 L 155.76557655765575,206.85769245387186 L 156.56565656565655,207.4852653831368 L 158.26582658265826,207.4852653831368 L 163.016301630163,209.03006028594285 L 164.86648664866485,208.93351060451747 L 167.76677667766776,210.38175582589813 L 167.16671667166716,208.8852357638048 L 167.06670667066706,208.30593767525252 L 167.2167216721672,207.53354022384949 L 167.06670667066706,207.24389117957335 L 166.76667666766676,207.0507918167226 L 165.86658665866585,206.90596729458454 L 165.6165616561656,206.71286793173377 L 165.6165616561656,206.27839436531957 L 165.8165816581658,205.6990962767673 L 167.86678667866786,204.10602653324858 L 169.9169916991699,203.67155296683438 L 168.86688668866887,207.147341498148 L 169.26692669266924,208.16111315311446 L 171.017101710171,209.80245773734586 L 171.3171317131713,209.85073257805857 L 172.5172517251725,209.51280869306973 L 176.16761676167616,209.31970933021898 L 176.7176717671767,210.1403816223347 L 176.76767676767676,210.71967971088696 L 176.3176317631763,211.8782758879915 L 175.7175717571757,212.2161997729803 L 172.91729172917292,212.98859722438334 L 171.6171617161716,212.60239849868182 L 168.16681668166817,213.51962047222293 L 168.16681668166817,214.19546824220055 L 168.76687668766877,216.51266059640963 L 170.5170517051705,220.13327364986128 L 170.96709670967095,220.6160220569882 L 171.46714671467146,220.27809817199935 L 171.9171917191719,219.6505252427344 L 172.1172117211721,217.38160772923803 L 172.4172417241724,217.23678320709996 L 174.86748674867485,217.28505804781264 L 175.6175617561756,217.57470709208877 L 179.4179417941794,221.3884195083912 L 179.5179517951795,222.11254211908152 L 179.16791679167915,223.70561186260028 L 176.4176417641764,225.298681606119 L 176.06760676067606,225.63660549110782 L 180.5180518051805,234.71227554509332 L 181.06810681068106,235.48467299649636 L 181.46814681468146,235.53294783720904 L 182.36823682368237,235.09847427079484 L 183.01830183018302,234.51917618224257 L 183.8183818381838,234.27780197867912 L 186.7186718671867,234.4226265008172 L 188.36883688368835,233.988152934403 L 191.36913691369136,234.71227554509332 L 193.2193219321932,235.53294783720904 L 195.4195419541954,237.17429242144047 L 197.86978697869785,237.65704082856735 L 199.4199419941994,237.65704082856735 L 201.67016701670167,236.78809369573895 L 201.97019701970197,236.25707044789937 L 202.17021702170217,235.19502395222023 L 202.22022202220222,233.45712968656343 L 202.8202820282028,232.53990771302233 L 204.07040704070405,232.29853350945888 L 207.4207420742074,232.82955675729846 L 209.9209920992099,232.97438127943653 L 212.021202120212,233.45712968656343 L 212.7212721272127,233.45712968656343 L 211.37113711371137,232.1537089873208 L 211.02110211021102,231.4778612173432 L 211.17111711171117,228.67792045600723 L 209.6209620962096,228.09862236745496 L 209.47094709470946,227.8572481638915 L 209.9209920992099,225.05730740255555 L 210.27102710271026,224.76765835827942 L 211.17111711171117,224.4780093140033 L 211.37113711371137,223.9469860661637 L 211.67116711671167,220.37464785342473 L 211.87118711871187,220.56774721627548 L 218.07180718071805,220.47119753485012 L 218.77187718771876,220.6160220569882 L 218.87188718871886,221.0022207826897 L 219.77197719771976,221.67806855266733 L 226.77267726772675,221.8711679155181 L 229.022902290229,221.19532014554045 L 230.62306230623062,219.2160516763202 L 231.27312731273125,218.92640263204407 L 233.07330733073306,219.6505252427344 L 234.02340234023401,219.26432651703288 L 235.27352735273527,219.50570072059634 L 238.1238123812381,220.76084657912625 L 240.12401240124012,221.3884195083912 L 240.37403740374037,223.02976409262263 L 240.7240724072407,223.31941313689876 L 243.87438743874387,224.8159331989921 L 246.4246424642464,226.2641784203728 L 247.27472747274726,226.31245326108547 L 248.32483248324831,224.67110867685403 L 250.5250525052505,230.22271535881328 L 250.6250625062506,231.09166249164167 L 245.07450745074507,235.82259688148517 L 244.82448244824482,236.2087956071867 L 245.02450245024502,237.17429242144047 L 245.57455745574555,237.8984150321308 L 248.024802480248,238.13978923569425 L 248.37483748374837,238.28461375783232 L 248.57485748574857,238.57426280210845 L 248.27482748274826,239.87768350135104 L 247.77477747774776,241.13282935988096 L 245.67456745674565,241.66385260772054 L 244.87448744874487,242.677624262687 L 244.32443244324432,243.0638229883885 L 243.97439743974397,243.73967075836615 L 243.92439243924392,244.17414432478034 L 243.92439243924392,244.51206820976918 L 244.37443744374437,244.89826693547067 L 246.37463746374635,245.7189392275864 L 246.6246624662466,247.4568334932432 L 246.5246524652465,247.74648253751934 L 243.62436243624362,246.73271088255285 L 242.97429742974296,246.92581024540362 L 242.8242824282428,252.38086724593745 L 241.57415741574155,256.33940418437794 L 241.1241124112411,260.4910404856692 L 239.97399739973997,265.94609748620303 L 239.77397739773977,266.0909220083411 L 238.2238223822382,264.9323258312366 L 236.97369736973695,265.94609748620303 L 236.8236823682368,266.23574653047916 L 237.1237123712371,266.5253955747553 L 238.37383738373836,267.15296850402024 L 238.5238523852385,267.3943427075837 L 237.023702370237,268.84258792896435 L 235.8235823582358,270.72530671675923 L 235.52355235523552,270.91840607961 L 233.57335733573356,271.01495576103537 L 233.1233123312331,271.40115448673686 L 231.9231923192319,273.0424990709683 L 230.72307230723072,275.7458901508789 L 230.62306230623062,276.37346308014384 L 231.023102310231,279.8975264521701 L 231.17311731173115,280.23545033715897 L 231.47314731473145,280.380274859297 L 232.7232723272327,280.4285497000097 L 234.37343734373437,281.2974968328381 L 234.57345734573457,281.5871458771142 L 234.57345734573457,282.2629936470919 L 234.17341734173417,283.18021562063296 L 234.27342734273427,283.5181395056218 L 235.62356235623562,285.78705701911815 L 236.47364736473645,286.4146299483831 L 236.67366736673665,286.80082867408464 L 236.47364736473645,288.00769969190185 L 235.87358735873585,288.53872293974143 L 234.47344734473447,290.3731668868236 L 234.62346234623462,291.1455643382266 L 236.6236623662366,294.2351541438387 L 236.3236323632363,296.60062133876045 L 232.4232423242324,295.53857484308134 L 231.6231623162316,295.6351245245067 L 230.07300730073007,295.2972006395179 L 228.3228322832283,294.52480318811484 L 226.27262726272625,292.6903592410327 L 224.82248224822482,291.869686948917 L 223.07230723072306,291.53176306392817 L 221.77217721772175,291.09728949751394 L 220.57205720572057,292.11106115248043 L 220.27202720272027,292.1593359931931 L 217.7217721772177,291.48348822321543 L 217.37173717371735,291.24211401965204 L 216.67166716671667,289.69731911684596 L 214.8214821482148,288.49044809902875 L 214.47144714471446,288.1042493733272 L 214.07140714071406,287.0904777183608 L 213.77137713771376,286.80082867408464 L 213.07130713071305,286.26980542624506 L 211.62116211621162,286.12498090410696 L 212.5212521252125,283.2767653020583 L 212.1212121212121,281.9250697621031 L 211.77117711771177,281.3457716735508 L 209.67096709670966,282.0698942842411 L 209.6209620962096,280.76647358499855 L 209.37093709370936,280.5250993814351 L 206.87068706870687,279.5113277264686 L 206.57065706570657,279.9940761335955 L 206.22062206220622,281.15267231070004 L 206.02060206020602,281.3457716735508 L 204.57045704570456,279.6561522486067 L 204.5204520452045,278.01480766437527 L 203.8203820382038,277.0975856908342 L 200.27002700270026,275.4079662658901 L 199.86998699869986,275.31141658446467 L 199.56995699569956,275.5527907880281 L 198.66986698669865,277.0010360094088 L 198.26982698269825,276.85621148727074 L 195.1195119511951,274.29764492949823 L 194.96949694969496,274.29764492949823 L 194.2194219421942,275.4079662658901 L 193.9193919391939,275.6010656287408 L 191.56915691569156,273.76662168165865 L 189.018901890189,273.0424990709683 L 188.06880688068807,273.76662168165865 L 187.01870187018702,273.8148965223713 L 186.56865686568656,274.10454556664746 L 185.76857685768576,275.6493404694535 L 185.2185218521852,275.6976153101662 L 184.56845684568455,275.2148669030393 L 183.26832683268327,272.8493997081176 L 183.46834683468344,272.318376460278 L 185.36853685368536,272.41492614170335 L 185.66856685668566,271.7390783717257 L 185.5185518551855,271.3528796460242 L 185.1185118511851,271.06323060174805 L 182.91829182918292,271.15978028317346 L 181.86818681868186,270.8218563981846 L 180.36803680368035,271.7390783717257 L 180.01800180018,271.54597900887495 L 179.2179217921792,270.4356576724831 L 178.66786678667864,270.0011841060689 L 178.46784678467847,270.24255830963233 L 177.56775677567757,270.67703187604656 L 174.6174617461746,270.0011841060689 z" /><path fill-rule="evenodd" fill="#D2EBD9" stroke="#A6A6A6" stroke-width="0.25" opacity="1" d="M 145.06450645064507,454.5559001506785 L 131.8131813181318,441.13549443255096 L 131.76317631763175,440.5561963439987 L 136.66366636663665,437.75625558266273 L 138.26382638263826,437.1286826533978 L 139.66396639663967,436.2114606798567 L 140.06400640064007,434.3287418920618 L 140.11401140114012,432.3494734228416 L 142.014201420142,417.86702120903493 L 141.26412641264125,415.69465337696397 L 140.11401140114012,413.90848427059444 L 140.31403140314032,411.7361164385235 L 141.9141914191419,407.53620529651954 L 141.66416641664165,405.26728778302316 L 140.16401640164017,403.8190425616425 L 140.76407640764074,402.61217154382524 L 141.66416641664165,401.5501250481461 L 142.6142614261426,401.21220116315726 L 143.46434643464346,400.6811779153177 L 142.2142214221422,400.05360498605273 L 140.8140814081408,399.9087804639147 L 137.86378637863785,398.2191610389706 L 136.56365636563655,397.7364126318437 L 132.9132913291329,396.7709158175899 L 132.9132913291329,395.70886932191075 L 132.8132813281328,393.53650148983974 L 139.71397139713972,393.63305117126515 L 141.014101410141,393.82615053411587 L 147.2147214721472,392.4261801534479 L 150.3150315031503,392.0882562684591 L 151.66516651665165,392.13653110917176 L 152.96529652965296,391.8468820648956 L 155.9155915591559,390.2538123213769 L 155.9155915591559,391.171034294918 L 155.56555655565555,392.0399814277464 L 155.1155115511551,395.9502435254742 L 156.4156415641564,396.7709158175899 L 156.7156715671567,397.97778683540713 L 155.5155515551555,398.75018428681017 L 154.86548654865484,399.52258173821315 L 152.6152615261526,404.39834065019477 L 152.5152515251525,405.4603871458739 L 152.26522652265226,405.9431355530008 L 152.26522652265226,408.35687758863526 L 152.4152415241524,409.6602982878778 L 152.96529652965296,410.86716930569503 L 154.36543654365437,412.7498880934899 L 155.96559655965595,414.39123267772135 L 157.1157115711571,415.839477899102 L 157.9157915791579,416.12912694337814 L 158.71587158715872,416.12912694337814 L 159.41594159415942,416.7084250319304 L 159.26592659265927,417.7704715276096 L 157.6157615761576,419.70146515611714 L 157.015701570157,421.72900846605006 L 156.5156515651565,422.64623043959114 L 156.2156215621562,423.6117272538449 L 156.46564656465645,426.4599428558936 L 156.06560656065605,428.1978371215504 L 156.015601560156,429.8874565464945 L 156.46564656465645,430.5633043164721 L 157.1157115711571,430.99777788288634 L 158.81588158815882,433.3149702370954 L 159.21592159215922,434.37701673277456 L 159.51595159515952,436.64593424627094 L 159.31593159315932,439.735524051883 L 159.11591159115912,440.5561963439987 L 158.56585658565857,441.13549443255096 L 158.06580658065806,441.2320441139764 L 158.06580658065806,453.92832722141355 L 145.76457645764575,452.23870779646944 L 145.06450645064507,454.5559001506785 z" /><path fill-rule="evenodd" fill="#D2EBD9" stroke="#A6A6A6" stroke-width="0.25" opacity="1" d="M 184.06840684068405,383.92980818801465 L 184.56845684568455,384.6056559579923 L 194.66946694669466,389.8193387549627 L 198.16981698169815,394.2123492598174 L 199.7199719971997,396.6743661361645 L 202.37023702370237,397.3502139061422 L 203.3203320332033,396.91574033972796 L 203.87038703870385,396.19161772903766 L 204.4204420442044,395.9502435254742 L 205.6205620562056,395.9985183661869 L 206.77067706770677,395.4192202776346 L 207.3207320732073,394.3088989412428 L 207.2207220722072,392.5227298348733 L 207.8207820782078,392.3779053127352 L 208.37083708370835,392.5227298348733 L 208.4208420842084,393.1985776048509 L 208.67086708670865,393.7778756934032 L 209.6209620962096,394.0675247376793 L 210.62106210621062,394.115799578392 L 210.77107710771077,393.82615053411587 L 210.92109210921092,392.23308079059717 L 210.87108710871087,391.94343174632104 L 209.9209920992099,391.75033238347027 L 209.67096709670966,391.31585881705604 L 209.9209920992099,389.1434909849851 L 211.12111211121112,388.5641928964328 L 211.92119211921192,388.70901741857085 L 212.9212921292129,388.4676432150074 L 214.37143714371436,387.45387156004097 L 214.5214521452145,387.2607721971902 L 214.57145714571456,386.63319926792525 L 215.52155215521552,385.76425213509685 L 216.52165216521652,385.42632825010804 L 217.4217421742174,385.5228779315334 L 218.07180718071805,385.28150372796995 L 220.37203720372037,383.54360946231316 L 222.67226722672265,383.4470597808878 L 224.37243724372436,384.1229075508654 L 225.72257225722572,384.3160069137162 L 225.97259725972597,384.07463271015274 L 226.57265726572655,382.72293717019744 L 227.37273727372735,382.9643113737609 L 229.07290729072906,383.92980818801465 L 229.72297229722972,384.6056559579923 L 229.52295229522952,385.0884043651192 L 227.87278727872786,387.2607721971902 L 227.77277727772776,388.2745438521567 L 227.87278727872786,389.1434909849851 L 228.5228522852285,390.1572626399515 L 229.87298729872987,390.8331104099292 L 230.22302230223022,392.18480594988443 L 231.87318731873185,392.7641040384367 L 232.1232123212321,393.05375308271283 L 232.47324732473245,394.9364718705077 L 232.5232523252325,396.8191906583026 L 233.023302330233,398.12261135754517 L 232.7232723272327,401.69494957028417 L 232.97329732973296,401.88804893313494 L 234.52345234523452,402.1294231366984 L 235.22352235223522,402.5156218623999 L 236.1236123612361,403.6742180395044 L 237.87378737873786,404.63971485375816 L 238.27382738273826,405.0741884201724 L 238.57385738573856,409.1775498807509 L 239.12391239123912,412.50851388992646 L 232.3232323232323,412.9429874563407 L 231.97319731973195,451.1766613007903 L 185.76857685768576,451.0801116193649 L 172.5172517251725,445.4319552559803 L 169.46694669466945,446.6388262737975 L 158.06580658065806,453.92832722141355 L 158.06580658065806,441.2320441139764 L 158.56585658565857,441.13549443255096 L 159.11591159115912,440.5561963439987 L 159.31593159315932,439.735524051883 L 159.51595159515952,436.64593424627094 L 159.21592159215922,434.37701673277456 L 158.81588158815882,433.3149702370954 L 157.1157115711571,430.99777788288634 L 156.46564656465645,430.5633043164721 L 156.015601560156,429.8874565464945 L 156.06560656065605,428.1978371215504 L 156.46564656465645,426.4599428558936 L 156.2156215621562,423.6117272538449 L 156.5156515651565,422.64623043959114 L 157.015701570157,421.72900846605006 L 157.6157615761576,419.70146515611714 L 159.26592659265927,417.7704715276096 L 159.41594159415942,416.7084250319304 L 158.71587158715872,416.12912694337814 L 157.9157915791579,416.12912694337814 L 157.1157115711571,415.839477899102 L 155.96559655965595,414.39123267772135 L 154.36543654365437,412.7498880934899 L 152.96529652965296,410.86716930569503 L 152.4152415241524,409.6602982878778 L 152.26522652265226,408.35687758863526 L 152.26522652265226,405.9431355530008 L 152.5152515251525,405.4603871458739 L 152.6152615261526,404.39834065019477 L 154.86548654865484,399.52258173821315 L 155.5155515551555,398.75018428681017 L 156.7156715671567,397.97778683540713 L 156.4156415641564,396.7709158175899 L 155.1155115511551,395.9502435254742 L 155.56555655565555,392.0399814277464 L 155.9155915591559,391.171034294918 L 155.9155915591559,390.2538123213769 L 160.36603660366035,389.57796455139925 L 162.96629662966296,388.9021167814216 L 165.06650665066505,388.6607425778582 L 170.01700170017,387.16422251576483 L 176.86768676867686,386.15045086079834 L 179.06790679067905,386.10217602008566 L 181.4181418141814,385.4746030908207 L 183.6183618361836,384.3160069137162 L 184.06840684068405,383.92980818801465 z" /></g></g></g></svg>