<svg xmlns="http://www.w3.org/2000/svg" xmlns:xlink="http://www.w3.org/1999/xlink" width="500.0" height="392.89337996416725" viewBox="0.0 0.0 500.0 392.89337996416725" preserveAspectRatio="xMinYMin meet"><g transform="matrix(1,0,0,-1,0,392.89337996416725)"><g><g><path fill-rule="evenodd" fill="#D2EBD9" stroke="#A6A6A6" stroke-width="0.25" opacity="1" d="M 141.4141414141414,65.6983429643052 L 147.66476647664766,67.230780389908 L 148.7148714871487,67.34866019187746 L 149.41494149414942,67.03431405329226 L 150.1150115011501,66.32703524147558 L 150.86508650865085,66.01268910289039 L 152.66526652665266,65.89480930092094 L 155.86558655865585,66.48420831076818 L 160.4160416041604,66.28774197415244 L 161.5161516151615,66.48420831076818 L 162.8162816281628,67.34866019187746 L 163.26632663266327,67.85947266707839 L 164.16641664166417,69.5490831619738 L 165.06650665066505,69.98130910252844 L 169.7169716971697,70.80646771631457 L 170.7170717071707,70.61000137969883 L 188.6188618861886,63.458626726885704 L 189.3189318931893,63.02640078633107 L 191.46914691469146,64.12661227137923 L 192.11921192119212,64.28378534067183 L 193.8193819381938,63.89085266744034 L 193.76937693769375,66.28774197415244 L 193.96939693969395,67.34866019187746 L 195.76957695769576,69.43120336000436 L 195.36953695369536,72.22102533994794 L 196.1196119611961,73.00689068641093 L 198.8198819881988,75.12872712186096 L 200.3200320032003,75.5609530624156 L 201.07010701070107,75.95388573564709 L 201.32013201320132,76.62187128014064 L 201.62016201620162,80.1189720719009 L 201.57015701570157,81.72999603215001 L 200.97009700970096,84.00900553689266 L 200.0200020002,86.40589484360474 L 199.76997699769976,88.25267840779274 L 201.67016701670167,104.8737304854848 L 206.12061206120612,121.41619602853054 L 204.27042704270426,140.1983778089958 L 204.9204920492049,145.5029688976209 L 204.77047704770476,146.48530058069963 L 204.27042704270426,146.79964671928482 L 199.16991699169915,148.17491107559505 L 196.16961696169616,150.53250711498399 L 195.6195619561956,151.47554553073957 L 188.46884688468845,168.8038764202483 L 185.7185718571857,171.9473378061002 L 178.61786178617862,177.36980869669478 L 161.06610661066105,188.56838988379226 L 160.36603660366035,189.23637542828578 L 156.16561656165615,194.97319245746556 L 150.26502650265024,200.0420239421518 L 150.01500150015002,200.51354315002956 L 149.11491149114912,204.28569681305186 L 148.7148714871487,204.48216314966763 L 145.36453645364534,204.7179227536065 L 144.31443144314431,205.110855426838 L 143.96439643964396,205.70025443668524 L 143.7143714371437,206.40753324850192 L 143.7143714371437,206.99693225834915 L 144.81448144814482,208.8830090898603 L 144.91449144914492,209.31523503041495 L 144.56445644564457,213.283855030053 L 144.91449144914492,214.54123958439376 L 144.46444644464447,216.34872988125863 L 144.46444644464447,216.97742215842902 L 144.76447644764477,217.9990471088309 L 148.9148914891489,226.68285918724683 L 145.9145914591459,227.58660433567925 L 128.86288628862886,227.783070672295 L 129.06290629062906,173.00825602382523 L 128.6128612861286,172.69390988524003 L 128.06280628062805,172.57603008327058 L 127.86278627862785,171.98663107342335 L 128.012801280128,168.13589087575474 L 127.36273627362736,166.83921305409083 L 127.41274127412741,153.87243483745164 L 127.16271627162716,153.08656949098867 L 124.61246124612461,151.39695899609325 L 123.5123512351235,149.9824013724599 L 120.7120712071207,142.98819978893937 L 120.56205620562055,142.08445464050695 L 120.66206620662065,141.1807094920745 L 121.1121112111211,140.15908454167263 L 121.1121112111211,139.72685860111798 L 119.26192619261926,137.8014885022837 L 118.76187618761875,137.05491642314385 L 118.56185618561855,136.42622414597346 L 118.26182618261825,133.20417622547527 L 118.011801180118,131.9467916711345 L 117.61176117611761,131.0037532553789 L 124.91249124912491,110.29620137607937 L 124.81248124812481,105.73818236659407 L 124.91249124912491,104.3236247429607 L 129.6129612961296,96.18991840706886 L 131.76317631763175,94.81465405075863 L 132.46324632463245,93.9894954369725 L 134.86348634863486,89.03854375425573 L 135.16351635163517,87.74186593259181 L 136.56365636563655,76.30752514155544 L 139.56395639563956,71.39586672616181 L 141.4141414141414,65.6983429643052 z" /><path fill-rule="evenodd" fill="#D2EBD9" stroke="#A6A6A6" stroke-width="0.25" opacity="1" d="M 85.05850585058505,22.750801780103295 L 86.60866086608661,21.37553742379308 L 87.25872587258725,21.021898017884737 L 87.8087808780878,20.275325938744906 L 88.008800880088,19.568047126928224 L 88.25882588258825,19.29299425566618 L 88.95889588958896,18.978648117080986 L 90.3090309030903,18.742888513142095 L 92.009200920092,16.110239602491106 L 97.95979597959796,10.609182177250242 L 98.50985098509851,8.408759207153896 L 99.25992599259925,7.190667920136275 L 99.95999599959995,6.404802573673294 L 100.81008100810081,6.051163167764953 L 101.66016601660165,6.522682375642741 L 102.06020602060205,6.444095840996443 L 104.16041604160415,5.2260045539788225 L 105.31053105310531,4.833071880747332 L 105.91059105910591,4.3222594055463945 L 106.96069606960695,2.829115247266731 L 107.5107510751075,2.3968893067120915 L 108.06080608060806,0.8251586137861299 L 108.86088608860885,0.0 L 110.46104610461046,0.9823316830787261 L 110.86108610861085,1.3752643563102165 L 111.06110611061105,2.0825431681268993 L 110.56105610561056,3.3006344551445195 L 109.36093609360935,4.636605544131587 L 109.1109110911091,6.758441979581635 L 109.2109210921092,7.308547722105722 L 110.11101110111011,8.330172672507597 L 110.66106610661066,9.39109089023262 L 110.51105110511051,10.491302375280794 L 109.7109710971097,12.888191681992886 L 109.76097609760976,14.263456038303103 L 110.61106110611061,18.5071289092032 L 110.26102610261026,26.6015419777719 L 110.41104110411041,26.915888116357095 L 117.31173117311731,32.14189267033591 L 119.36193619361936,34.106556036493366 L 124.41244124412441,42.08308930309262 L 125.5125512551255,49.784569698429834 L 125.56255625562555,57.564636628413346 L 128.56285628562856,57.80039623235224 L 129.46294629462946,58.23262217290688 L 134.4134413441344,63.02640078633107 L 135.9135913591359,64.08731900405608 L 137.6137613761376,64.75530454854962 L 141.4141414141414,65.6983429643052 L 139.56395639563956,71.39586672616181 L 136.56365636563655,76.30752514155544 L 135.16351635163517,87.74186593259181 L 134.86348634863486,89.03854375425573 L 132.46324632463245,93.9894954369725 L 131.76317631763175,94.81465405075863 L 129.6129612961296,96.18991840706886 L 129.06290629062906,92.2998849420771 L 128.1128112811281,91.23896672435208 L 126.96269626962696,90.84603405112058 L 126.71267126712671,90.57098117985853 L 126.36263626362636,89.54935622945666 L 125.4125412541254,88.80278415031684 L 122.96229622962295,87.66327939794552 L 121.46214621462146,87.62398613062237 L 120.21202120212021,87.11317365542142 L 115.86158615861585,83.34101999239911 L 114.96149614961496,82.0443421707352 L 114.6114611461146,81.21918355694908 L 113.26132613261325,75.60024632973875 L 112.66126612661266,74.85367425059893 L 106.8106810681068,69.35261682535806 L 105.81058105810581,68.76321781551083 L 100.16001600160016,66.44491504344504 L 96.40964096409641,67.97735246904784 L 95.5095509550955,68.13452553834044 L 95.15951595159515,67.7808861324321 L 94.2094209420942,65.89480930092094 L 93.65936593659366,63.183573855623656 L 93.3093309330933,62.20124217254493 L 92.3092309230923,62.00477583592919 L 89.9089908990899,61.96548256860604 L 89.6089608960896,61.808309499313445 L 88.75887588758876,59.88293940047914 L 88.45884588458846,59.5292999945708 L 86.40864086408641,58.97919425204671 L 86.2086208620862,58.62555484613837 L 85.7085708570857,56.15007900477998 L 86.1086108610861,55.01057425240866 L 85.8085808580858,53.3602570248364 L 85.3085308530853,52.024285935849335 L 84.50845084508451,50.88478118347801 L 84.10841084108411,50.76690138150856 L 83.05830583058305,51.23842058938635 L 82.3082308230823,51.31700712403265 L 80.8080808080808,51.081247520093754 L 77.6077607760776,48.684358213381664 L 76.65766576657666,48.52718514408907 L 75.55755575557555,48.80223801535111 L 75.15751575157515,48.76294474802796 L 74.45744574457446,48.487891876765914 L 73.55735573557355,47.46626692636404 L 73.4073407340734,46.64110831257791 L 75.35753575357535,42.24026237238522 L 80.4080408040804,41.690156629861136 L 81.25812581258126,41.297223956629644 L 81.45814581458146,40.747118214105555 L 81.3081308130813,40.31489227355092 L 77.85778577857785,37.83941643219253 L 77.4077407740774,36.81779148179065 L 78.1078107810781,33.51715702664613 L 77.85778577857785,30.923801383318295 L 78.35783578357835,26.483662175802454 L 80.00800080008,26.365782373833007 L 80.5080508050805,27.42670059155803 L 81.1081108110811,27.387407324234882 L 81.4081408140814,26.64083524509505 L 81.5081508150815,24.911931482876494 L 81.85818581858186,24.165359403736662 L 83.25832583258325,23.693840195858872 L 85.05850585058505,22.750801780103295 z" /><path fill-rule="evenodd" fill="#D2EBD9" stroke="#A6A6A6" stroke-width="0.25" opacity="1" d="M 331.7331733173317,54.18541563862253 L 335.6335633563356,54.61764157917717 L 341.38413841384136,53.949656034683635 L 356.7856785678568,54.02824256932993 L 366.33663366336634,51.59205999529469 L 369.8369836983698,50.177502371661326 L 374.23742374237423,47.46626692636404 L 375.6875687568757,46.287468906669574 L 376.3376337633763,46.012416035407526 L 378.18781878187815,45.54089682752974 L 379.68796879687966,45.69806989682234 L 380.3380338033803,46.16958910470012 L 380.8380838083808,46.287468906669574 L 382.8382838283828,45.50160356020659 L 382.988298829883,44.990791085005654 L 383.23832383238323,44.9514978176825 L 383.6883688368837,45.34443049091399 L 383.988398839884,45.383723758237146 L 384.7884788478848,44.75503148106676 L 385.0885088508851,44.9514978176825 L 385.5885588558856,44.79432474838991 L 387.58875887588755,44.71573821374361 L 389.4389438943894,44.28351227318897 L 389.88898889888986,44.51927187712786 L 390.03900390039,44.8729112830362 L 390.28902890289027,46.60181504525477 L 391.3891389138914,46.95545445116311 L 391.8391839183918,47.58414672833349 L 392.039203920392,48.29142554015017 L 391.4891489148915,48.487891876765914 L 392.1392139213921,49.54881009449094 L 392.2392239223922,50.09891583701503 L 393.3893389338934,51.199127322063205 L 393.8893889388939,51.199127322063205 L 394.2894289428943,51.552766727971544 L 394.3894389438944,52.299338807111376 L 395.33953395339535,51.51347346064839 L 395.78957895789574,51.39559365867895 L 396.08960896089604,51.59205999529469 L 396.28962896289624,52.33863207443452 L 397.38973897389735,52.652978213019715 L 397.88978897889785,53.08520415357435 L 398.7398739873987,54.06753583665308 L 399.08990899089906,54.774814648469764 L 399.48994899489946,54.26400217326883 L 399.9399939993999,54.303295440591974 L 399.58995899589956,55.049867519731805 L 400.3400340034003,55.4428001929633 L 400.69006900690067,55.40350692564015 L 400.69006900690067,55.83573286619479 L 401.990199019902,57.171703955181854 L 401.5901590159016,57.643223163059645 L 401.1401140114011,57.83968949967539 L 401.1401140114011,58.07544910361428 L 402.04020402040203,57.76110296502909 L 402.2902290229023,57.80039623235224 L 402.44024402440243,58.31120870755318 L 403.34033403340334,58.114742370937435 L 404.1904190419042,58.27191544023003 L 407.8407840784078,60.00081920244859 L 408.69086908690866,60.07940573709489 L 408.5408540854085,59.568593261893945 L 408.89088908890886,59.4507134599245 L 409.49094909490947,59.4507134599245 L 409.99099909990997,59.64717979654024 L 409.99099909990997,59.17566058866246 L 410.4910491049105,59.96152593512544 L 410.9410941094109,60.040112469771735 L 411.041104110411,59.765059598509694 L 410.8410841084108,59.17566058866246 L 411.6911691169117,59.568593261893945 L 413.34133413341334,60.00081920244859 L 413.8913891389139,60.74739128158842 L 413.44134413441344,60.82597781623472 L 413.3913391339134,60.983150885527316 L 413.7913791379138,61.49396336072825 L 414.24142414241425,61.49396336072825 L 414.34143414341435,61.76901623199029 L 414.14141414141415,62.161948905221784 L 414.2914291429143,62.633468113099575 L 416.2416241624162,64.48025167728758 L 416.2416241624162,65.03035741981166 L 416.5416541654165,65.26611702375055 L 417.49174917491746,65.42329009304315 L 425.29252925292525,65.06965068713481 L 421.6921692169217,81.69070276482685 L 420.2920292029203,87.11317365542142 L 420.2920292029203,89.03854375425573 L 421.34213421342133,90.49239464521224 L 423.2923292329233,91.35684652632152 L 425.8425842584258,91.71048593222986 L 426.89268926892686,92.6142310806623 L 427.1427142714271,93.20363009050953 L 427.19271927192716,93.83232236767991 L 426.99269926992696,95.05041365469754 L 426.49264926492646,95.71839919919107 L 428.5428542854285,97.72235583267167 L 429.7929792979298,97.91882216928741 L 430.24302430243023,98.19387504054946 L 430.54305430543053,98.94044711968928 L 430.4930493049305,99.60843266418283 L 430.04300430043,101.02299028781619 L 429.99299929993,102.35896137680325 L 430.1430143014301,102.98765365397364 L 432.44324432443244,108.01719187133672 L 449.3949394939494,131.9467916711345 L 483.6483648364836,169.0396360241872 L 484.048404840484,169.66832830135758 L 484.2484248424842,170.37560711317425 L 487.24872487248723,206.28965344653247 L 406.09060906090605,206.2503601792093 L 381.988198819882,194.89460592281924 L 374.43744374437443,189.7078946361636 L 374.4874487448745,94.57889444681975 L 372.987298729873,93.9894954369725 L 371.8371837183718,93.12504355586323 L 371.4371437143714,91.55331286293726 L 371.68716871687167,90.57098117985853 L 372.08720872087207,89.94228890268816 L 373.73737373737373,89.31359662551777 L 373.93739373937393,89.03854375425573 L 371.18711871187116,87.03458712077513 L 368.1368136813681,87.11317365542142 L 367.38673867386734,86.83812078415939 L 359.4359435943594,81.6514094975037 L 353.28532853285327,79.76533266599256 L 353.035303530353,79.76533266599256 L 350.9350935093509,80.82625088371758 L 350.5350535053505,80.74766434907129 L 349.88498849884985,80.31543840851664 L 337.03370337033704,68.40957840960249 L 336.8836883688369,68.17381880566359 L 336.8836883688369,65.97339583556725 L 336.43364336433643,65.10894395445796 L 330.98309830983095,59.411420192601355 L 330.6330633063306,58.07544910361428 L 331.7331733173317,54.18541563862253 z" /><path fill-rule="evenodd" fill="#D2EBD9" stroke="#A6A6A6" stroke-width="0.25" opacity="1" d="M 193.8193819381938,63.89085266744034 L 194.36943694369435,63.7729728654709 L 196.46964696469647,62.554881578453276 L 200.9200920092009,58.31120870755318 L 206.07060706070607,52.61368494569657 L 209.4209420942094,46.44464197596217 L 212.47124712471245,43.1833007881408 L 213.47134713471345,42.43672870900097 L 214.47144714471446,42.043796035769475 L 215.52155215521552,41.92591623380003 L 218.6218621862186,42.08308930309262 L 219.27192719271926,42.397435441677814 L 220.77207720772077,43.73340653066489 L 222.7222722272227,46.012416035407526 L 223.4223422342234,46.16958910470012 L 226.7226722672267,45.54089682752974 L 227.8227822782278,45.54089682752974 L 228.8228822882288,45.85524296611493 L 240.32403240324032,52.81015128231231 L 241.4241424142414,53.32096375751325 L 242.47424742474246,53.399550292159546 L 250.5250525052505,52.26004553978822 L 251.37513751375135,51.945699401203036 L 252.47524752475246,50.92407445080116 L 253.37533753375337,50.41326197560022 L 254.42544254425442,49.54881009449094 L 255.87558755875585,49.077290886613156 L 258.1258125812581,53.399550292159546 L 257.37573757375736,58.50767504416893 L 257.37573757375736,59.01848751936986 L 258.07580758075807,61.5332566280514 L 258.07580758075807,62.00477583592919 L 257.77577757775776,62.31912197451438 L 255.2255225522552,63.6943863308246 L 254.87548754875485,64.55883821193387 L 254.9254925492549,65.5411698950126 L 255.17551755175515,66.16986217218299 L 255.57555755575555,66.60208811273763 L 264.97649764976495,71.4744532608081 L 265.17651765176515,72.45678494388683 L 265.17651765176515,73.59628969625815 L 264.7264726472647,75.79671266635451 L 264.47644764476445,78.31148177503604 L 260.0760076007601,81.53352969553426 L 259.7759775977598,82.1229287053815 L 259.4759475947595,83.57677959633801 L 258.87588758875887,84.32335167547784 L 257.07570757075706,85.26639009123342 L 254.97549754975495,87.11317365542142 L 254.62546254625462,87.30963999203718 L 253.62536253625362,87.42751979400661 L 252.57525752575256,88.25267840779274 L 250.07500750075005,89.43147642748723 L 248.42484248424842,91.78907246687616 L 246.37463746374635,91.90695226884561 L 245.8245824582458,91.78907246687616 L 241.9241924192419,88.56702454637794 L 241.024102410241,88.68490434834739 L 239.07390739073907,89.7458225660724 L 238.82388238823881,90.64956771450484 L 238.67386738673866,94.6967742487892 L 238.5238523852385,95.16829345666697 L 237.8237823782378,95.75769246651421 L 235.12351235123512,97.29012989211702 L 234.12341234123411,98.15458177322631 L 233.47334733473346,100.2371249413532 L 232.27322732273225,101.76956236695602 L 231.07310731073105,107.54567266345893 L 230.72307230723072,108.60659088118395 L 229.47294729472947,110.8070138512803 L 229.32293229322931,111.43570612845069 L 229.17291729172916,116.03301840525913 L 228.7228722872287,117.13322989030729 L 226.7226722672267,118.31202791000176 L 220.37203720372037,121.76983543443887 L 218.67186718671866,121.88771523640833 L 206.12061206120612,121.41619602853054 L 201.67016701670167,104.8737304854848 L 199.76997699769976,88.25267840779274 L 200.0200020002,86.40589484360474 L 200.97009700970096,84.00900553689266 L 201.57015701570157,81.72999603215001 L 201.62016201620162,80.1189720719009 L 201.32013201320132,76.62187128014064 L 201.07010701070107,75.95388573564709 L 200.3200320032003,75.5609530624156 L 198.8198819881988,75.12872712186096 L 196.1196119611961,73.00689068641093 L 195.36953695369536,72.22102533994794 L 195.76957695769576,69.43120336000436 L 193.96939693969395,67.34866019187746 L 193.76937693769375,66.28774197415244 L 193.8193819381938,63.89085266744034 z" /><path fill-rule="evenodd" fill="#D2EBD9" stroke="#A6A6A6" stroke-width="0.25" opacity="1" d="M 331.7331733173317,54.18541563862253 L 330.6330633063306,58.07544910361428 L 330.98309830983095,59.411420192601355 L 336.43364336433643,65.10894395445796 L 336.8836883688369,65.97339583556725 L 336.8836883688369,68.17381880566359 L 337.03370337033704,68.40957840960249 L 349.88498849884985,80.31543840851664 L 350.5350535053505,80.74766434907129 L 350.9350935093509,80.82625088371758 L 353.035303530353,79.76533266599256 L 353.28532853285327,79.76533266599256 L 359.4359435943594,81.6514094975037 L 367.38673867386734,86.83812078415939 L 368.1368136813681,87.11317365542142 L 371.18711871187116,87.03458712077513 L 373.93739373937393,89.03854375425573 L 373.73737373737373,89.31359662551777 L 372.08720872087207,89.94228890268816 L 371.68716871687167,90.57098117985853 L 371.4371437143714,91.55331286293726 L 371.8371837183718,93.12504355586323 L 372.987298729873,93.9894954369725 L 374.4874487448745,94.57889444681975 L 374.43744374437443,189.7078946361636 L 363.6863686368637,185.77856790384868 L 350.78507850785076,176.85899622149384 L 341.48414841484146,174.0298809742271 L 289.7789778977898,140.15908454167263 L 278.6778677867787,135.91541167077253 L 265.7265726572657,128.6854504833131 L 259.9259925992599,126.60290731518621 L 258.025802580258,126.44573424589362 L 251.67516751675166,126.52432078053991 L 251.07510751075105,126.40644097857047 L 248.57485748574857,125.0704698895834 L 243.17431743174316,124.9918833549371 L 230.52305230523052,126.95654672109455 L 229.27292729272926,125.58128236478434 L 226.7226722672267,118.31202791000176 L 228.7228722872287,117.13322989030729 L 229.17291729172916,116.03301840525913 L 229.32293229322931,111.43570612845069 L 229.47294729472947,110.8070138512803 L 230.72307230723072,108.60659088118395 L 231.07310731073105,107.54567266345893 L 232.27322732273225,101.76956236695602 L 233.47334733473346,100.2371249413532 L 234.12341234123411,98.15458177322631 L 235.12351235123512,97.29012989211702 L 237.8237823782378,95.75769246651421 L 238.5238523852385,95.16829345666697 L 238.67386738673866,94.6967742487892 L 238.82388238823881,90.64956771450484 L 239.07390739073907,89.7458225660724 L 241.024102410241,88.68490434834739 L 241.9241924192419,88.56702454637794 L 245.8245824582458,91.78907246687616 L 246.37463746374635,91.90695226884561 L 248.42484248424842,91.78907246687616 L 250.07500750075005,89.43147642748723 L 252.57525752575256,88.25267840779274 L 253.62536253625362,87.42751979400661 L 254.62546254625462,87.30963999203718 L 254.97549754975495,87.11317365542142 L 257.07570757075706,85.26639009123342 L 258.87588758875887,84.32335167547784 L 259.4759475947595,83.57677959633801 L 259.7759775977598,82.1229287053815 L 260.0760076007601,81.53352969553426 L 264.47644764476445,78.31148177503604 L 264.7264726472647,75.79671266635451 L 265.17651765176515,73.59628969625815 L 265.17651765176515,72.45678494388683 L 264.97649764976495,71.4744532608081 L 255.57555755575555,66.60208811273763 L 255.17551755175515,66.16986217218299 L 254.9254925492549,65.5411698950126 L 254.87548754875485,64.55883821193387 L 255.2255225522552,63.6943863308246 L 257.77577757775776,62.31912197451438 L 258.07580758075807,62.00477583592919 L 258.07580758075807,61.5332566280514 L 257.37573757375736,59.01848751936986 L 257.37573757375736,58.50767504416893 L 258.1258125812581,53.399550292159546 L 255.87558755875585,49.077290886613156 L 256.27562756275626,48.880824549997406 L 257.47574757475746,47.54485346101034 L 260.62606260626063,44.637151679097315 L 261.2761276127613,44.36209880783527 L 262.1262126212621,44.75503148106676 L 262.9262926292629,44.8729112830362 L 264.17641764176415,44.67644494642046 L 264.9264926492649,44.28351227318897 L 266.9266926692669,42.593901778293564 L 268.3768376837684,40.393478808197216 L 269.52695269526953,39.72549326370368 L 277.8777877787779,37.250017422345294 L 288.1788178817882,36.03192613532767 L 289.32893289328933,36.03192613532767 L 291.6291629162916,36.54273861052861 L 298.32983298329833,35.756873264065625 L 298.979897989799,35.79616653138878 L 299.92999299929994,36.46415207588231 L 305.58055805580557,43.144007520817645 L 306.6306630663066,44.165632471219524 L 307.2307230723072,44.558565144451016 L 307.83078307830783,44.67644494642046 L 308.0808080808081,44.9514978176825 L 308.4808480848085,46.40534870863902 L 309.0809080908091,46.95545445116311 L 315.08150815081507,50.33467544095392 L 316.3816381638164,50.88478118347801 L 331.7331733173317,54.18541563862253 z" /><path fill-rule="evenodd" fill="#D2EBD9" stroke="#A6A6A6" stroke-width="0.25" opacity="1" d="M 85.05850585058505,22.750801780103295 L 83.25832583258325,23.693840195858872 L 81.85818581858186,24.165359403736662 L 81.5081508150815,24.911931482876494 L 81.4081408140814,26.64083524509505 L 81.1081108110811,27.387407324234882 L 80.5080508050805,27.42670059155803 L 80.00800080008,26.365782373833007 L 78.35783578357835,26.483662175802454 L 77.85778577857785,30.923801383318295 L 78.1078107810781,33.51715702664613 L 77.4077407740774,36.81779148179065 L 77.85778577857785,37.83941643219253 L 81.3081308130813,40.31489227355092 L 81.45814581458146,40.747118214105555 L 81.25812581258126,41.297223956629644 L 80.4080408040804,41.690156629861136 L 75.35753575357535,42.24026237238522 L 73.4073407340734,46.64110831257791 L 73.55735573557355,47.46626692636404 L 74.45744574457446,48.487891876765914 L 75.15751575157515,48.76294474802796 L 75.55755575557555,48.80223801535111 L 76.65766576657666,48.52718514408907 L 77.6077607760776,48.684358213381664 L 80.8080808080808,51.081247520093754 L 82.3082308230823,51.31700712403265 L 83.05830583058305,51.23842058938635 L 84.10841084108411,50.76690138150856 L 84.50845084508451,50.88478118347801 L 85.3085308530853,52.024285935849335 L 85.8085808580858,53.3602570248364 L 86.1086108610861,55.01057425240866 L 85.7085708570857,56.15007900477998 L 86.2086208620862,58.62555484613837 L 86.40864086408641,58.97919425204671 L 88.45884588458846,59.5292999945708 L 88.75887588758876,59.88293940047914 L 89.6089608960896,61.808309499313445 L 89.9089908990899,61.96548256860604 L 92.3092309230923,62.00477583592919 L 93.3093309330933,62.20124217254493 L 93.65936593659366,63.183573855623656 L 94.2094209420942,65.89480930092094 L 95.15951595159515,67.7808861324321 L 95.5095509550955,68.13452553834044 L 96.40964096409641,67.97735246904784 L 100.16001600160016,66.44491504344504 L 105.81058105810581,68.76321781551083 L 106.8106810681068,69.35261682535806 L 112.66126612661266,74.85367425059893 L 113.26132613261325,75.60024632973875 L 114.6114611461146,81.21918355694908 L 114.96149614961496,82.0443421707352 L 115.86158615861585,83.34101999239911 L 120.21202120212021,87.11317365542142 L 121.46214621462146,87.62398613062237 L 122.96229622962295,87.66327939794552 L 125.4125412541254,88.80278415031684 L 126.36263626362636,89.54935622945666 L 126.71267126712671,90.57098117985853 L 126.96269626962696,90.84603405112058 L 128.1128112811281,91.23896672435208 L 129.06290629062906,92.2998849420771 L 129.6129612961296,96.18991840706886 L 124.91249124912491,104.3236247429607 L 124.81248124812481,105.73818236659407 L 124.91249124912491,110.29620137607937 L 117.61176117611761,131.0037532553789 L 116.76167616761676,129.82495523568443 L 115.56155615561555,129.19626295851404 L 113.06130613061306,128.6854504833131 L 111.86118611861185,128.05675820614272 L 109.4109410941094,125.3062294935223 L 106.66066606660665,123.61661899862689 L 106.3106310631063,122.7521671175176 L 106.010601060106,118.94072018717215 L 92.3092309230923,121.37690276120739 L 91.05910591059106,121.33760949388424 L 90.3090309030903,121.0625566226222 L 90.00900090009,118.46920097929436 L 37.253725372537254,116.6617106824295 L 36.203620362036204,116.38665781116747 L 35.35353535353535,115.87584533596653 L 25.95259525952595,107.07415345558114 L 25.152515251525152,106.68122078234965 L 24.3024302430243,106.52404771305706 L 19.5019501950195,106.36687464376446 L 17.65176517651765,105.65959583194777 L 16.351635163516352,105.38454296068574 L 11.451145114511451,107.15273999022743 L 10.45104510451045,107.11344672290429 L 8.4008400840084,106.36687464376446 L 7.4007400740074,106.1704083071487 L 6.35063506350635,106.1704083071487 L 2.15021502150215,107.23132652487374 L 1.9001900190019,106.8776871189654 L 2.15021502150215,103.69493246579032 L 1.05010501050105,102.39825464412641 L 1.000100010001,101.45521622837083 L 1.9001900190019,99.56913939685967 L 2.1002100210021,98.58680771378094 L 0.0,92.53564454601599 L 0.2000200020002,90.88532731844373 L 1.15011501150115,89.31359662551777 L 6.1006100610061,84.75557761603248 L 7.55075507550755,82.71232771522874 L 7.1007100710071,81.76928929947316 L 6.95069506950695,80.74766434907129 L 6.0006000600060005,79.21522692346846 L 5.9005900590059,78.82229425023698 L 6.600660066006601,77.60420296321936 L 7.15071507150715,77.01480395337212 L 6.85068506850685,75.99317900297025 L 7.1007100710071,75.63953959706191 L 7.85078507850785,75.16802038918412 L 8.2008200820082,74.0285156368128 L 9.25092509250925,73.36053009231927 L 9.6009600960096,72.96759741908777 L 9.350935093509351,71.7887993993933 L 10.45104510451045,70.80646771631457 L 11.101110111011101,69.66696296394325 L 12.651265126512651,68.52745821157193 L 13.3013301330133,67.7022995977858 L 13.95139513951395,67.50583326117005 L 14.15141514151415,67.19148712258486 L 13.501350135013501,65.38399682572 L 13.95139513951395,64.59813147925702 L 14.8014801480148,64.28378534067183 L 19.301930193019302,64.36237187531813 L 19.4019401940194,63.537213261532 L 19.301930193019302,63.22286712294681 L 19.7019701970197,62.82993444971532 L 20.3020302030203,62.554881578453276 L 22.05220522052205,62.633468113099575 L 23.502350235023503,62.161948905221784 L 25.202520252025202,61.14032395481991 L 26.5026502650265,59.765059598509694 L 26.65266526652665,58.31120870755318 L 27.25272527252725,57.32887702447445 L 28.3028302830283,56.543011678011474 L 32.3032303230323,54.774814648469764 L 34.2034203420342,54.46046850988457 L 35.25352535253525,53.4388435594827 L 34.4034403440344,53.08520415357435 L 33.3033303330333,53.871069500037336 L 32.703270327032705,54.02824256932993 L 32.05320532053205,52.377925341757674 L 31.853185318531853,52.299338807111376 L 26.25262526252625,54.18541563862253 L 25.852585258525853,52.849444549635464 L 25.852585258525853,47.034040985809405 L 25.95259525952595,43.77269979798803 L 26.25262526252625,43.261887322787096 L 27.15271527152715,42.75107484758616 L 29.402940294029403,42.55460851097041 L 30.4030403040304,42.08308930309262 L 43.7043704370437,30.7666283140257 L 44.604460446044605,30.295109106147912 L 45.654565456545654,30.020056234885867 L 53.45534553455345,29.430657225038633 L 54.005400540054005,29.784296630946972 L 55.6055605560556,32.37765227427481 L 56.305630563056305,32.259772472305364 L 57.505750575057505,33.281397422707236 L 60.55605560556055,33.006344551445196 L 61.85618561856185,32.652705145536856 L 62.65626562656265,31.670373462458127 L 62.95629562956295,30.884508115995146 L 64.5064506450645,29.54853702700808 L 64.8064806480648,28.684085145898802 L 65.20652065206521,26.326489106509857 L 66.15661566156615,24.911931482876494 L 66.1066106610661,23.536667126566275 L 65.9065906590659,23.183027720657936 L 65.45654565456546,23.06514791868849 L 63.556355635563555,22.90797484939589 L 62.95629562956295,23.143734453334787 L 62.406240624062406,22.593628710810698 L 60.55605560556055,22.23998930490236 L 60.106010601060106,21.807763364347718 L 60.006000600060005,20.86472494859214 L 60.6060606060606,19.764513463543967 L 69.05690569056905,7.897946731952957 L 70.7070707070707,6.483389108319592 L 70.3070307030703,7.38713425675202 L 70.4070407040704,8.133706335891851 L 71.25712571257125,8.251586137861299 L 71.95719571957196,9.194624553616876 L 72.8072807280728,9.155331286293727 L 72.85728572857285,9.705437028817814 L 72.75727572757275,10.098369702049304 L 71.6071607160716,10.766355246542837 L 71.2071207120712,11.316460989066924 L 70.15701570157016,14.38133584027255 L 69.80698069806981,16.149532869814255 L 69.80698069806981,16.89610494895409 L 70.10701070107011,17.446210691478175 L 70.85708570857085,17.799850097386518 L 72.40724072407241,17.878436632032813 L 72.9072907290729,18.46783564188005 L 73.5073507350735,18.153489503294857 L 73.8073807380738,18.900061582434688 L 74.05740574057405,18.978648117080986 L 74.70747074707471,18.939354849757837 L 74.95749574957496,18.54642217652635 L 75.15751575157515,18.54642217652635 L 75.8075807580758,19.017941384404136 L 76.90769076907691,19.33228752298933 L 77.45774577457745,19.135821186373583 L 78.25782578257825,19.568047126928224 L 79.35793579357936,19.25370098834303 L 79.65796579657966,19.410874057635628 L 80.5080508050805,21.061191285207887 L 80.85808580858085,21.179071087177334 L 81.2081208120812,20.94331148323844 L 81.55815581558156,21.021898017884737 L 82.65826582658265,22.12210950293291 L 84.7084708470847,22.23998930490236 L 85.05850585058505,22.750801780103295 z M 60.65606560656065,62.554881578453276 L 62.156215621562154,62.24053543986808 L 65.30653065306531,62.39770850916068 L 65.6065606560656,62.27982870719123 L 65.55655565556555,61.2974970241125 L 65.85658565856585,60.94385761820416 L 66.6066606660666,61.14032395481991 L 67.1067106710671,60.82597781623472 L 67.2067206720672,59.96152593512544 L 67.1067106710671,58.97919425204671 L 66.45664566456645,56.26795880674943 L 65.85658565856585,55.01057425240866 L 64.65646564656466,54.06753583665308 L 64.05640564056405,55.599973262255894 L 63.05630563056305,55.521386727609595 L 60.906090609060904,55.796439598871636 L 59.805980598059804,56.22866553942628 L 58.855885588558856,57.13241068785871 L 57.555755575557555,59.3721269252782 L 57.505750575057505,60.55092494497267 L 57.655765576557656,61.2974970241125 L 58.3058305830583,62.12265563789864 L 59.4059405940594,62.554881578453276 L 60.65606560656065,62.554881578453276 z" /><path fill-rule="evenodd" fill="#D2EBD9" stroke="#A6A6A6" stroke-width="0.25" opacity="1" d="M 487.24872487248723,206.28965344653247 L 492.59925992599256,269.9054532427108 L 494.049404940494,273.44184730179416 L 499.74997499749975,283.89385640975183 L 500.0,284.48325541959906 L 499.94999499949995,285.03336116212313 L 499.4999499949995,285.779933241263 L 490.4990499049905,295.799716408666 L 487.8987898789879,297.8429663094697 L 487.34873487348733,298.51095185396326 L 486.5486548654865,300.08268254688926 L 486.2486248624862,301.61511997249204 L 486.5486548654865,303.18685066541804 L 487.2987298729873,304.4835284870819 L 488.5988598859886,305.2301005662218 L 478.84788478847884,320.51518155492676 L 477.74777477747773,321.8511526439138 L 475.6475647564756,323.0692439309314 L 475.1475147514751,323.58005640613237 L 474.99749974997496,324.9946140297657 L 474.7474747474747,340.63333442437903 L 468.6968696869687,374.93635679748814 L 447.044704470447,363.06979006589717 L 445.044504450445,362.00887184817213 L 444.5444544454445,361.9302853135258 L 444.09440944094405,362.1660449174647 L 425.042504250425,379.1800296683883 L 421.34213421342133,381.2625728365152 L 373.4873487348735,392.89337996416725 L 298.22982298229823,344.7198342259866 L 231.7231723172317,302.59745165557075 L 217.07170717071705,289.8271397755473 L 179.7179717971797,255.64199720440766 L 178.31783178317832,254.65966552132895 L 176.9176917691769,254.148853046128 L 128.8128812881288,244.36482948266388 L 128.86288628862886,227.783070672295 L 145.9145914591459,227.58660433567925 L 148.9148914891489,226.68285918724683 L 144.76447644764477,217.9990471088309 L 144.46444644464447,216.97742215842902 L 144.46444644464447,216.34872988125863 L 144.91449144914492,214.54123958439376 L 144.56445644564457,213.283855030053 L 144.91449144914492,209.31523503041495 L 144.81448144814482,208.8830090898603 L 143.7143714371437,206.99693225834915 L 143.7143714371437,206.40753324850192 L 143.96439643964396,205.70025443668524 L 144.31443144314431,205.110855426838 L 145.36453645364534,204.7179227536065 L 148.7148714871487,204.48216314966763 L 149.11491149114912,204.28569681305186 L 150.01500150015002,200.51354315002956 L 150.26502650265024,200.0420239421518 L 156.16561656165615,194.97319245746556 L 160.36603660366035,189.23637542828578 L 161.06610661066105,188.56838988379226 L 178.61786178617862,177.36980869669478 L 185.7185718571857,171.9473378061002 L 188.46884688468845,168.8038764202483 L 195.6195619561956,151.47554553073957 L 196.16961696169616,150.53250711498399 L 199.16991699169915,148.17491107559505 L 204.27042704270426,146.79964671928482 L 204.77047704770476,146.48530058069963 L 204.9204920492049,145.5029688976209 L 204.27042704270426,140.1983778089958 L 206.12061206120612,121.41619602853054 L 218.67186718671866,121.88771523640833 L 220.37203720372037,121.76983543443887 L 226.7226722672267,118.31202791000176 L 229.27292729272926,125.58128236478434 L 230.52305230523052,126.95654672109455 L 243.17431743174316,124.9918833549371 L 248.57485748574857,125.0704698895834 L 251.07510751075105,126.40644097857047 L 251.67516751675166,126.52432078053991 L 258.025802580258,126.44573424589362 L 259.9259925992599,126.60290731518621 L 265.7265726572657,128.6854504833131 L 278.6778677867787,135.91541167077253 L 289.7789778977898,140.15908454167263 L 341.48414841484146,174.0298809742271 L 350.78507850785076,176.85899622149384 L 363.6863686368637,185.77856790384868 L 374.43744374437443,189.7078946361636 L 381.988198819882,194.89460592281924 L 406.09060906090605,206.2503601792093 L 487.24872487248723,206.28965344653247 z" /><path fill-rule="evenodd" fill="#D2EBD9" stroke="#A6A6A6" stroke-width="0.25" opacity="1" d="M 60.65606560656065,62.554881578453276 L 59.4059405940594,62.554881578453276 L 58.3058305830583,62.12265563789864 L 57.655765576557656,61.2974970241125 L 57.505750575057505,60.55092494497267 L 57.555755575557555,59.3721269252782 L 58.855885588558856,57.13241068785871 L 59.805980598059804,56.22866553942628 L 60.906090609060904,55.796439598871636 L 63.05630563056305,55.521386727609595 L 64.05640564056405,55.599973262255894 L 64.65646564656466,54.06753583665308 L 65.85658565856585,55.01057425240866 L 66.45664566456645,56.26795880674943 L 67.1067106710671,58.97919425204671 L 67.2067206720672,59.96152593512544 L 67.1067106710671,60.82597781623472 L 66.6066606660666,61.14032395481991 L 65.85658565856585,60.94385761820416 L 65.55655565556555,61.2974970241125 L 65.6065606560656,62.27982870719123 L 65.30653065306531,62.39770850916068 L 62.156215621562154,62.24053543986808 L 60.65606560656065,62.554881578453276 z" /></g></g></g></svg>