<svg width="25" height="30" xmlns="http://www.w3.org/2000/svg" xmlns:xlink="http://www.w3.org/1999/xlink" xml:space="preserve" overflow="hidden"><g transform="translate(-927 -1085)"><path d="M5.31419-0.0309683 5.99984 1.18736 5.99984 3.9286 4.45723 4.78114 3.77158 5.96887 0.171321 5.5732 0 5.11633 0.685644 4.5374 0 2.74051 0.857325 2.43593 0.857325 2.37509 2.05729 3.41089 3.5999 2.40533 5.31419-0.0309683Z" stroke="#A6A6A6" stroke-width="0.859285" stroke-miterlimit="8" fill="#D2EBD9" fill-rule="evenodd" transform="matrix(1 0 0 -1 945.5 1093.5)"/><path d="M0 0.850748 0.667389-0.150635 1.00073 0.136941 0.333344 0.850748 0 0.850748Z" stroke="#A6A6A6" stroke-width="0.859285" stroke-miterlimit="8" fill="#D2EBD9" fill-rule="evenodd" transform="matrix(1 0 0 -1 946.5 1087.5)"/><path d="M6.00023 1.9517 4.12521 4.09084 2.43757 4.9733 1.12509 4.06429 1.12509 4.11771 1.87502 2.96786 0 2.05885 0.187384 0.561331 1.87502 0.106829 1.87502 0.133696 1.87502 0.106829 2.43757-0.0268671 3.00011 0.507917 3.75005 0.106829 5.62507 0.106829 6.00023 1.9517Z" stroke="#A6A6A6" stroke-width="0.859285" stroke-miterlimit="8" fill="#D2EBD9" fill-rule="evenodd" transform="matrix(1 0 0 -1 944.5 1095.5)"/><path d="M5.95383 4.81532 5.20931 5.25803 4.65111 4.66729 4.09331 4.81532 4.09331 4.84465 4.09331 4.81532 2.41872 5.31738 2.23278 6.97125 1.11639 6.82357 1.11639 6.85324 1.11639 6.82357 0 6.49887 1.48826 4.93333 0.372261 4.60828 0.558196 3.84018 0.558196 3.81085 0.930457 3.42715 1.67459 3.69284 2.23278 2.89541 1.86052 2.42232 2.23278 1.06383 3.90698 1.24119 6.3257-0.0289718 7.81436 1.09351 8.00029 2.36367 7.4421 3.16111 5.76751 3.39747 5.95383 4.81532Z" stroke="#A6A6A6" stroke-width="0.859285" stroke-miterlimit="8" fill="#D2EBD9" fill-rule="evenodd" transform="matrix(1 0 0 -1 942.5 1100.5)"/><path d="M9.83613 3.7607 7.70494 5.14238 6.22941 4.94945 5.90175 6.42721 6.22941 6.94183 5.73757 7.80927 5.0819 7.52025 4.75424 7.93764 4.75424 7.96954 2.78687 5.4633 2.1312 5.36722 2.78687 4.05011 2.45886 3.4394 2.9507 3.53587 2.9507 3.60005 3.27871 2.12191 0.819506 2.31484 0 0.868978 0.655674-0.0307467 2.62304 0.965446 4.75424 0.226372 4.75424 0.387024 4.75424 0.419308 4.75424 0.387024 5.0819 0.098005 5.0819 0.868978 6.39359 1.06191 5.90175 1.4793 6.22941 1.60805 7.37693 0.837078 9.6723 1.70413 9.99997 2.47549 9.18046 3.24646 9.83613 3.7607Z" stroke="#A6A6A6" stroke-width="0.859285" stroke-miterlimit="8" fill="#D2EBD9" fill-rule="evenodd" transform="matrix(1 0 0 -1 938.5 1104.5)"/><path d="M2.36389 9.65837 2.00007 9.94035 2.00007 9.97184 2.00007 9.94035 2.00007 9.78361 3.09115 7.87129 1.81835 7.90278 2.36389 6.11607 0.727262 5.45763 0 4.48609 1.81835 3.76503 0.36344 0.755556 0.908982 0.00337469 2.72733-0.0281224 3.09115 1.47662 2.72733 2.13468 2.00007 2.07244 1.81835 2.79312 2.54561 2.762 3.81841 4.11 3.09115 4.01551 3.09115 4.61133 4.00013 5.70848 4.00013 7.33846 2.36389 9.65837Z" stroke="#A6A6A6" stroke-width="0.859285" stroke-miterlimit="8" fill="#D2EBD9" fill-rule="evenodd" transform="matrix(1 0 0 -1 941.5 1113.5)"/><path d="M0.666665 0.280098 1.50026 0.803118 3.33368-0.0276049 5.00051 1.54146 3.66718 1.94154 2.66701 1.29559 1.00017 1.97246 0 1.60329 0.166579 0.372482 0.666665 0.280098Z" stroke="#A6A6A6" stroke-width="0.859285" stroke-miterlimit="8" fill="#D2EBD9" fill-rule="evenodd" transform="matrix(1 0 0 -1 928.5 1109.5)"/><path d="M5.00053-0.0245724 4.82784 0.597174 3.96588 0.624333 3.44856 1.32691 2.58624 1.48889 2.58624 1.97549 0 1.46206 0.517321 0.732323 2.2416 0.164894 3.10356 0.705164 5.00053-0.0245724Z" stroke="#A6A6A6" stroke-width="0.859285" stroke-miterlimit="8" fill="#D2EBD9" fill-rule="evenodd" transform="matrix(1 0 0 -1 929.5 1107.5)"/><path d="M1.00003-0.041872 0.875094 0.958705 0 0.958705 1.00003-0.041872Z" stroke="#A6A6A6" stroke-width="0.859285" stroke-miterlimit="8" fill="#D2EBD9" fill-rule="evenodd" transform="matrix(1 0 0 -1 932.5 1106.5)"/><path d="M0.667148-0.092075 1.00037 0.608652 0 0.907597 0.667148-0.092075Z" stroke="#A6A6A6" stroke-width="0.859285" stroke-miterlimit="8" fill="#D2EBD9" fill-rule="evenodd" transform="matrix(1 0 0 -1 933.5 1106.5)"/><path d="M2.40041 0.488973 0.999893 0.976412 0 0.540509 0.999893 0.591737 2.00021-0.0236204 3.0001 0.23283 2.40041 0.488973Z" stroke="#A6A6A6" stroke-width="0.859285" stroke-miterlimit="8" fill="#D2EBD9" fill-rule="evenodd" transform="matrix(1 0 0 -1 930.5 1105.5)"/><path d="M0.687432 1.44033 1.37486 1.25305 1.2031 2.15919 1.89053 2.4717 2.75009 1.9091 3.60929 2.65899 3.43752 1.8777 4.29672 1.65902 4.98452 2.4717 6.18761 0.346532 7.73425 0.627645 8.07814-0.0284104 8.76557 0.940159 10.3126 1.59659 9.7969 3.37784 11 3.34644 9.96867 5.25293 7.73425 5.97179 5.67195 5.00284 4.98452 5.87796 0.171768 4.0653 0 3.84662 0.171768 3.59653 0.343897 2.90907 0.515664 2.15919 0.687432 1.44033Z" stroke="#A6A6A6" stroke-width="0.859285" stroke-miterlimit="8" fill="#D2EBD9" fill-rule="evenodd" transform="matrix(1 0 0 -1 933.5 1109.5)"/><path d="M1.60013 0.0654656 2.13351-0.0300685 7.11119 1.81515 7.9999 3.2474 7.64457 3.62915 6.2221 2.99277 5.6891 3.78825 6.2221 5.25171 5.51106 5.79294 4.26664 5.79294 4.62235 6.71555 3.9113 6.97018 1.7778 3.62915 0.888712 3.37452 1.42209 2.00622 0 1.71999 0.888712 1.68802 1.95547 0.510784 1.60013 0.0654656Z" stroke="#A6A6A6" stroke-width="0.859285" stroke-miterlimit="8" fill="#D2EBD9" fill-rule="evenodd" transform="matrix(1 0 0 -1 931.5 1105.5)"/><path d="M0 1.577 0.666665 1.33901 0.333508 0.476693 1.50026 0.476693 3.1671 1.04161 3.1671-0.0291708 5.00051 1.07149 3.50025 1.81463 4.00034 2.43932 3.33368 3.89643 4.83393 4.9078 5.00051 5.85941 5.00051 5.88929 3.83376 7.97073 2.3335 6.9896 1.33333 7.49511 0 1.577Z" stroke="#A6A6A6" stroke-width="0.859285" stroke-miterlimit="8" fill="#D2EBD9" fill-rule="evenodd" transform="matrix(1 0 0 -1 935.5 1100.5)"/><path d="M1.00038 1.13304 0.666805 1.96657 0-0.0338994 0.833769 0.465818 1.00038 1.13304Z" stroke="#A6A6A6" stroke-width="0.859285" stroke-miterlimit="8" fill="#D2EBD9" fill-rule="evenodd" transform="matrix(1 0 0 -1 936.5 1092.5)"/><path d="M0 2.08886 1.13953-0.000357069 1.13953-0.0303509 2.76748 0.447051 3.41859 0.118904 4.39543 0.447051 4.39543 0.477045 4.39543 0.447051 5.37226 0.596306 7.00021 1.61145 6.3491 2.83549 6.3491 2.89476 5.53495 3.19363 6.18607 4.95469 5.53495 5.52172 5.69765 5.96948 2.27906 4.92506 1.13953 2.92475 0 2.08886Z" stroke="#A6A6A6" stroke-width="0.859285" stroke-miterlimit="8" fill="#D2EBD9" fill-rule="evenodd" transform="matrix(1 0 0 -1 939.5 1094.5)"/><path d="M0 0.031649 0.124938-0.0331929 1.00003 0.967226 0.500016 0.773472 0 0.031649Z" stroke="#A6A6A6" stroke-width="0.859285" stroke-miterlimit="8" fill="#D2EBD9" fill-rule="evenodd" transform="matrix(1 0 0 -1 937.5 1090.5)"/><path d="M1.28589 0.726275 0 0.301678 0-0.0315456 2.00007 0.96885 1.28589 0.726275Z" stroke="#A6A6A6" stroke-width="0.859285" stroke-miterlimit="8" fill="#D2EBD9" fill-rule="evenodd" transform="matrix(1 0 0 -1 939.5 1088.5)"/><path d="M0.09086 0.782649 0-0.0743346 1.00003 0.56819 0.818313 0.925337 0.09086 0.782649Z" stroke="#A6A6A6" stroke-width="0.859285" stroke-miterlimit="8" fill="#D2EBD9" fill-rule="evenodd" transform="matrix(1 0 0 -1 942.5 1088.5)"/><path d="M0.571601 0.847808 0-0.0520164 1.9997 0.74796 1.7142 0.947655 0.571601 0.847808Z" stroke="#A6A6A6" stroke-width="0.859285" stroke-miterlimit="8" fill="#D2EBD9" fill-rule="evenodd" transform="matrix(1 0 0 -1 944.5 1088.5)"/><path d="M4.50025 5.60544 3.75027 5.96786 1.87514 5.4406 1.87514 5.47373 1.87514 5.4406 1.68774 4.38529 0 3.26452 0.749975 1.64882 0.187395 0.956719 1.87514 0.132505 2.06253-0.0323376 2.8129 0.0662526 5.06283 2.60515 5.06283 2.63788 4.87543 3.49522 6.00059 3.85803 4.50025 5.60544Z" stroke="#A6A6A6" stroke-width="0.859285" stroke-miterlimit="8" fill="#D2EBD9" fill-rule="evenodd" transform="matrix(1 0 0 -1 938.5 1099.5)"/><path d="M3.79357 2.8346 3.62088 2.97349 1.72428 1.94544 1.72428 2.94558 0 2.41793 0.68964 1.94544 0.17232 0.667864 0.68964-0.0265816 2.06928 0.528975 2.41392 0.195707 5.00053 0.0289075 4.65552 1.30682 4.65552 1.25133 4.1382 1.16793 4.48321 1.69591 3.79357 2.8346Z" stroke="#A6A6A6" stroke-width="0.859285" stroke-miterlimit="8" fill="#D2EBD9" fill-rule="evenodd" transform="matrix(1 0 0 -1 936.5 1102.5)"/></g></svg>