<svg xmlns="http://www.w3.org/2000/svg" xmlns:xlink="http://www.w3.org/1999/xlink" width="417.2012661844492" height="500.0" viewBox="0.0 0.0 417.2012661844492 500.0" preserveAspectRatio="xMinYMin meet"><g transform="matrix(1,0,0,-1,0,500.0)"><g><g><path fill-rule="evenodd" fill="#D2EBD9" stroke="#A6A6A6" stroke-width="0.25" opacity="1" d="M 196.93869150821084,476.1476147614761 L 260.35962606170244,387.9387938793879 L 258.94099989405856,500.0 L 196.93869150821084,476.1476147614761 z" /><path fill-rule="evenodd" fill="#D2EBD9" stroke="#A6A6A6" stroke-width="0.25" opacity="1" d="M 147.53712143496472,457.1457145714571 L 252.72407933585447,336.33363336333633 L 260.35962606170244,387.9387938793879 L 196.93869150821084,476.1476147614761 L 147.53712143496472,457.1457145714571 z" /><path fill-rule="evenodd" fill="#D2EBD9" stroke="#A6A6A6" stroke-width="0.25" opacity="1" d="M 90.12448594443546,435.09350935093505 L 246.1316400862152,287.5787578757876 L 248.92716812245465,310.78107810781074 L 252.72407933585447,336.33363336333633 L 147.53712143496472,457.1457145714571 L 90.12448594443546,435.09350935093505 z" /><path fill-rule="evenodd" fill="#D2EBD9" stroke="#A6A6A6" stroke-width="0.25" opacity="1" d="M 52.322271006630594,420.5420542054205 L 242.54335036805713,257.57575757575756 L 246.1316400862152,287.5787578757876 L 90.12448594443546,435.09350935093505 L 52.322271006630594,420.5420542054205 z" /><path fill-rule="evenodd" fill="#D2EBD9" stroke="#A6A6A6" stroke-width="0.25" opacity="1" d="M 26.995621484282292,323.4323432343234 L 108.90042051619285,253.62536253625362 L 174.6161915173437,236.47364736473645 L 237.16091579082,216.9216921692169 L 240.33196251849458,239.32393239323932 L 242.54335036805713,257.57575757575756 L 52.322271006630594,420.5420542054205 L 26.995621484282292,323.4323432343234 z" /><path fill-rule="evenodd" fill="#D2EBD9" stroke="#A6A6A6" stroke-width="0.25" opacity="1" d="M 0.0,219.87198719871986 L 80.31927566807327,225.07250725072507 L 108.90042051619285,253.62536253625362 L 26.995621484282292,323.4323432343234 L 0.0,219.87198719871986 z" /><path fill-rule="evenodd" fill="#D2EBD9" stroke="#A6A6A6" stroke-width="0.25" opacity="1" d="M 40.68119157214101,121.16211621162115 L 88.91448127203333,136.46364636463645 L 74.60304669844936,185.06850685068505 L 80.31927566807327,225.07250725072507 L 0.0,219.87198719871986 L 40.68119157214101,121.16211621162115 z" /><path fill-rule="evenodd" fill="#D2EBD9" stroke="#A6A6A6" stroke-width="0.25" opacity="1" d="M 76.1468457632383,35.103510351035105 L 91.75173360732111,93.60936093609361 L 106.60558406853362,106.2106210621062 L 88.91448127203333,136.46364636463645 L 40.68119157214101,121.16211621162115 L 76.1468457632383,35.103510351035105 z" /><path fill-rule="evenodd" fill="#D2EBD9" stroke="#A6A6A6" stroke-width="0.25" opacity="1" d="M 208.70494383984547,9.650965096509651 L 148.91402330356027,142.16421642164215 L 106.60558406853362,106.2106210621062 L 91.75173360732111,93.60936093609361 L 76.1468457632383,35.103510351035105 L 208.70494383984547,9.650965096509651 z" /><path fill-rule="evenodd" fill="#D2EBD9" stroke="#A6A6A6" stroke-width="0.25" opacity="1" d="M 376.0611073227763,150.3150315031503 L 311.7639624892694,159.31593159315932 L 231.7784812135829,179.3179317931793 L 148.91402330356027,142.16421642164215 L 208.70494383984547,9.650965096509651 L 258.94099989405856,0.0 L 360.9151867682254,103.31033103310331 L 376.0611073227763,150.3150315031503 z" /><path fill-rule="evenodd" fill="#D2EBD9" stroke="#A6A6A6" stroke-width="0.25" opacity="1" d="M 410.14985964527807,329.78297829782974 L 323.1964204285172,350.78507850785076 L 260.35962606170244,387.9387938793879 L 252.72407933585447,336.33363336333633 L 248.92716812245465,310.78107810781074 L 246.1316400862152,287.5787578757876 L 242.54335036805713,257.57575757575756 L 240.33196251849458,239.32393239323932 L 237.16091579082,216.9216921692169 L 231.7784812135829,179.3179317931793 L 311.7639624892694,159.31593159315932 L 376.0611073227763,150.3150315031503 L 417.2012661844492,278.1278127812781 L 410.14985964527807,329.78297829782974 z" /><path fill-rule="evenodd" fill="#D2EBD9" stroke="#A6A6A6" stroke-width="0.25" opacity="1" d="M 395.33773348311394,438.39383938393837 L 260.35962606170244,387.9387938793879 L 323.1964204285172,350.78507850785076 L 410.14985964527807,329.78297829782974 L 395.33773348311394,438.39383938393837 z" /><path fill-rule="evenodd" fill="#D2EBD9" stroke="#A6A6A6" stroke-width="0.25" opacity="1" d="M 258.94099989405856,500.0 L 260.35962606170244,387.9387938793879 L 395.33773348311394,438.39383938393837 L 258.94099989405856,500.0 z" /><path fill-rule="evenodd" fill="#D2EBD9" stroke="#A6A6A6" stroke-width="0.25" opacity="1" d="M 237.16091579082,216.9216921692169 L 174.6161915173437,236.47364736473645 L 108.90042051619285,253.62536253625362 L 80.31927566807327,225.07250725072507 L 74.60304669844936,185.06850685068505 L 88.91448127203333,136.46364636463645 L 106.60558406853362,106.2106210621062 L 148.91402330356027,142.16421642164215 L 231.7784812135829,179.3179317931793 L 237.16091579082,216.9216921692169 z" /></g></g></g></svg>