<svg xmlns="http://www.w3.org/2000/svg" xmlns:xlink="http://www.w3.org/1999/xlink" width="374.931378999725" height="500.0" viewBox="0.0 0.0 374.931378999725 500.0" preserveAspectRatio="xMinYMin meet"><g transform="matrix(1,0,0,-1,0,500.0)"><g><g><g><path fill-rule="evenodd" fill="#D2EBD9" stroke="#A6A6A6" stroke-width="0.25" opacity="1" d="M 208.33270744299148,442.14421442144214 L 206.4203661759662,442.54425442544255 L 205.52044087383663,443.9443944394439 L 204.09555914546485,444.1444144414441 L 202.82066496744798,443.1443144314431 L 202.89565874262544,442.2942294229423 L 203.3456213936902,441.34413441344134 L 202.89565874262544,440.7940794079408 L 201.62076456460858,440.14401440144013 L 201.58326767701985,438.29382938293827 L 202.93315563021417,437.79377937793777 L 203.68309338198878,438.1438143814381 L 205.67042842419156,439.6439643964396 L 208.1077261174591,440.74407440744073 L 208.33270744299148,442.14421442144214 z M 204.20804980823104,439.7939793979398 L 204.05806225787612,441.1941194119412 L 204.32054047099723,441.4941494149415 L 204.73300623447327,441.4941494149415 L 205.40795021107044,440.994099409941 L 205.18296888553806,440.14401440144013 L 204.20804980823104,439.7939793979398 z" /><path fill-rule="evenodd" fill="#D2EBD9" stroke="#A6A6A6" stroke-width="0.25" opacity="1" d="M 198.95848554580866,461.3961396139614 L 200.27087661141425,461.0961096109611 L 200.6833423748903,460.6960696069607 L 201.47077701425366,459.24592459245923 L 202.22071476602827,459.04590459045903 L 204.9954844475944,459.74597459745974 L 204.3955342461747,462.1462146214621 L 204.73300623447327,464.09640964096405 L 206.04539730007886,466.9466946694669 L 206.04539730007886,465.79657965796576 L 206.75783816426477,466.2466246624662 L 207.282794590507,466.89668966896687 L 208.07022922987036,468.34683468346833 L 209.00765141958865,469.24692469246924 L 209.00765141958865,470.8970897089709 L 210.3950362603717,473.1473147314731 L 210.73250824867029,474.29742974297426 L 209.98257049689568,475.59755975597557 L 210.43253314796044,476.09760976097607 L 211.10747712455762,476.19761976197617 L 212.60735262810687,475.59755975597557 L 212.79483706605052,476.29762976297627 L 213.28229660470402,476.6976697669767 L 211.78242110115477,477.1977197719772 L 210.77000513625902,478.997899789979 L 211.85741487633223,479.74797479747974 L 211.8199179887435,480.74807480748075 L 211.18247089973508,481.29812981298124 L 209.98257049689568,480.6980698069807 L 209.795086058952,481.5481548154815 L 210.2450487100168,481.99819981998195 L 211.63243355079985,482.5482548254825 L 213.09481216676036,483.39833983398336 L 213.80725303094627,484.048404840484 L 214.2197187944223,484.7484748474847 L 209.94507360930695,484.6484648464846 L 209.00765141958865,485.048504850485 L 209.38262029547596,486.2986298629863 L 209.3076265202985,486.8986898689869 L 209.00765141958865,487.24872487248723 L 208.52019188093513,487.04870487048703 L 208.1077261174591,486.4986498649865 L 207.69526035398306,485.39853985398537 L 207.3952852532732,486.7486748674867 L 207.69526035398306,487.998799879988 L 207.35778836568446,488.64886488648864 L 208.07022922987036,489.64896489648964 L 209.23263274512104,490.34903490349035 L 210.32004248519425,490.14901490149015 L 209.75758917136326,489.6989698969897 L 209.6825953961858,488.6988698869887 L 210.95748957420267,489.3989398939894 L 210.9949864617914,488.54885488548854 L 211.33245845009,487.8987898789879 L 211.9324086515097,487.64876487648763 L 212.60735262810687,487.998799879988 L 213.4697810426477,487.34873487348733 L 214.55719078272088,487.24872487248723 L 214.2197187944223,488.1988198819882 L 212.2698806398083,489.7989798979898 L 212.49486196534068,490.3990399039904 L 212.2698806398083,491.2491249124912 L 213.28229660470402,491.2491249124912 L 213.5822717054139,490.1990199019902 L 214.03223435647865,490.3990399039904 L 214.89466277101948,491.99919991999195 L 214.36970634477723,492.7492749274927 L 213.844749918535,492.59925992599256 L 212.94482461640544,491.99919991999195 L 212.2698806398083,492.19921992199215 L 210.69501136108155,493.7493749374937 L 211.10747712455762,494.29942994299427 L 211.03248334938016,494.59945994599457 L 213.24479971711528,496.3996399639964 L 214.06973124406738,496.6996699669967 L 215.94457562350397,496.6996699669967 L 216.05706628627016,497.1997199719972 L 215.56960674761663,498.54985498549854 L 214.55719078272088,498.1998199819982 L 214.89466277101948,497.0997099709971 L 213.69476236818008,497.0997099709971 L 212.60735262810687,497.44974497449743 L 211.74492421356604,498.1998199819982 L 211.29496156250127,497.7997799779978 L 211.0699802369689,498.4998499849985 L 211.29496156250127,498.8998899889989 L 210.95748957420267,499.24992499249925 L 209.98257049689568,498.54985498549854 L 209.3076265202985,500.0 L 209.00765141958865,500.0 L 208.85766386923373,499.1999199919992 L 208.9326576444112,498.04980498049804 L 208.67017943129008,497.44974497449743 L 208.07022922987036,496.6996699669967 L 207.24529770291826,496.44964496449643 L 207.0578132649746,495.9495949594959 L 208.25771366781402,495.2995299529953 L 209.00765141958865,494.3494349434943 L 208.74517320646754,493.5493549354935 L 208.14522300504782,493.79937993799376 L 206.72034127667604,494.89948994899487 L 206.38286928837746,491.2491249124912 L 206.9078257146197,491.049104910491 L 207.47027902845068,491.3491349134913 L 208.2202167802253,492.1492149214921 L 208.63268254370135,492.39923992399235 L 209.1951358575323,492.4492449244924 L 210.47003003554917,492.19921992199215 L 211.0699802369689,491.3491349134913 L 210.95748957420267,490.89908990899085 L 210.6200175859041,490.8490849084908 L 209.15763896994358,491.2491249124912 L 208.67017943129008,491.1491149114911 L 207.35778836568446,490.14901490149015 L 206.7953350518535,490.14901490149015 L 206.0828941876676,490.3990399039904 L 205.74542219936902,489.7989798979898 L 205.5954346490141,490.7490749074907 L 205.03298133518314,491.3491349134913 L 204.3955342461747,491.5491549154915 L 203.87057781993246,491.049104910491 L 202.63318052950433,490.99909990999095 L 202.1457209908508,490.54905490549055 L 201.80824900255223,490.54905490549055 L 202.1457209908508,491.59915991599155 L 201.62076456460858,492.4492449244924 L 201.62076456460858,493.4493449344934 L 200.8333299252452,493.049304930493 L 200.3458703865917,492.5492549254925 L 199.18346687134104,490.14901490149015 L 196.0337283138876,485.1485148514851 L 195.35878433729044,482.7482748274827 L 196.48369096495236,482.8482848284828 L 198.88349177063117,483.4483448344834 L 199.44594508446215,483.39833983398336 L 200.1958828362368,481.3481348134813 L 200.42086416176917,480.24802480248024 L 200.0083983982931,477.6977697769777 L 199.82091396034946,472.9472947294729 L 198.58351666992132,470.8970897089709 L 198.3210384568002,470.0970097009701 L 198.5460197823326,469.1969196919692 L 199.67092640999454,467.6967696769677 L 199.89590773552692,467.046704670467 L 199.5209388596396,466.3466346634663 L 198.39603223197767,465.3465346534653 L 198.58351666992132,462.046204620462 L 198.95848554580866,461.3961396139614 z" /></g><path fill-rule="evenodd" fill="#D2EBD9" stroke="#A6A6A6" stroke-width="0.25" opacity="1" d="M 264.72802637644344,365.43654365436544 L 263.6406166363703,365.93659365936594 L 254.90384182819585,368.2368236823682 L 248.11690517463546,370.88708870887086 L 246.57953278349748,371.88718871887187 L 242.11740316043844,375.4875487548755 L 236.45537313454003,380.3380338033803 L 231.7682621859486,385.98859885988594 L 230.90583377140777,388.48884888488845 L 229.89341780651202,390.1390139013901 L 224.68135043167837,396.5396539653965 L 221.98157452528972,398.9398939893989 L 220.81917101003904,400.2400240024002 L 215.19463787172933,410.9410941094109 L 214.89466277101948,413.14131413141314 L 214.55719078272088,414.34143414341435 L 214.06973124406738,414.89148914891484 L 210.9949864617914,421.2921292129213 L 209.94507360930695,425.5425542554255 L 207.35778836568446,425.2425242524252 L 206.9078257146197,424.69246924692465 L 206.64534750149858,421.6921692169217 L 206.38286928837746,421.1921192119212 L 205.03298133518314,420.2420242024202 L 203.1956338433353,418.39183918391836 L 202.33320542879446,417.99179917991796 L 200.5708517121241,417.7417741774177 L 199.82091396034946,417.4417441744174 L 199.07097620857485,415.49154915491545 L 198.02106335609037,414.24142414241425 L 197.75858514296925,413.34133413341334 L 197.30862249190446,412.7912791279128 L 196.4086971897749,412.54125412541254 L 195.3212874497017,412.4912491249125 L 195.28379056211296,410.3410341034103 L 201.58326767701985,402.14021402140213 L 206.27037862561127,386.1386138613861 L 206.57035372632112,381.6381638163816 L 213.99473746888992,378.3378337833783 L 228.13106408984166,365.7865786578658 L 232.5181999377232,348.88488848884884 L 233.38062835226404,347.78477847784774 L 247.14198609732844,348.48484848484844 L 253.02899744875927,350.38503850385035 L 259.21598390089997,355.6855685568557 L 264.72802637644344,365.43654365436544 z" /><path fill-rule="evenodd" fill="#D2EBD9" stroke="#A6A6A6" stroke-width="0.25" opacity="1" d="M 195.3212874497017,412.4912491249125 L 194.64634347310454,412.5912591259126 L 193.18396485714402,413.7913791379138 L 191.79658001636096,417.39173917391736 L 189.99672941210184,418.99189918991897 L 189.65925742380327,419.7919791979198 L 189.8092449741582,420.4420442044204 L 190.6341765011103,420.6920692069207 L 191.94656756671588,420.2420242024202 L 193.07147419437783,419.39193919391937 L 192.4715239929581,422.84228422842284 L 191.94656756671588,424.39243924392434 L 190.5216858383441,425.2425242524252 L 188.6093445713188,425.49254925492545 L 186.77199707947094,425.042504250425 L 185.12213402556677,423.99239923992394 L 183.54726474684006,422.54225422542254 L 182.12238301846827,420.6920692069207 L 181.59742659222601,419.09190919091907 L 182.00989235570208,415.041504150415 L 181.78491103016967,412.0912091209121 L 181.89740169293586,411.1411141114111 L 182.87232077024288,408.99089908990896 L 183.0223083205978,407.9407940794079 L 181.67242036740348,406.7406740674067 L 181.37244526669363,404.99049904990494 L 180.2475386390317,403.4903490349035 L 180.28503552662042,402.3902390239024 L 180.88498572804014,400.19001900190017 L 180.77249506527392,397.3397339733973 L 180.92248261562887,396.5396539653965 L 182.57234566953304,395.0895089508951 L 182.49735189435557,392.0892089208921 L 180.32253241420915,388.038803880388 L 179.94756353832184,387.1387138713871 L 180.0225573134993,386.3386338633863 L 180.622507514919,386.038603860386 L 183.5847616344288,385.3885388538854 L 184.40969316138086,385.33853385338534 L 187.0719721801808,386.4386438643864 L 188.4968539085526,385.8385838583858 L 189.2467916603272,383.93839383938393 L 189.8092449741582,381.7381738173817 L 191.57159869082855,378.5378537853785 L 191.04664226458632,377.7377737773777 L 188.0468912574878,376.98769876987694 L 182.49735189435557,374.6874687468747 L 181.59742659222601,374.7874787478748 L 180.36002930179788,375.7875787578758 L 177.9977253837078,375.2875287528753 L 176.4228561049811,375.5875587558756 L 174.84798682625438,375.5875587558756 L 173.49809887306003,375.33753375337534 L 172.18570780745443,374.83748374837484 L 169.8609007769531,373.53735373537353 L 167.8360688471616,372.7872787278728 L 165.77374002978138,372.3872387238724 L 165.58625559183773,371.6371637163716 L 165.99872135531376,370.68706870687066 L 166.82365288226586,369.9369936993699 L 168.5485097113475,368.88688868886885 L 169.29844746312213,367.78677867786774 L 169.5234287886545,366.2866286628663 L 169.67341633900944,362.3362336233623 L 169.48593190106578,361.6361636163616 L 167.2361186457419,358.3358335833583 L 166.82365288226586,357.4357435743574 L 165.24878360353915,350.98509850985096 L 171.7732420439784,350.3350335033503 L 176.76032809327967,353.2353235323532 L 183.05980520818653,355.03550355035503 L 186.39702820358363,357.1857185718572 L 184.70966826209073,364.83648364836483 L 186.69700330429347,367.3367336733673 L 189.696754311392,368.78687868786875 L 189.696754311392,373.1873187318732 L 192.35903333019192,374.987498749875 L 199.33345442169596,376.4376437643764 L 204.95798756000565,376.4376437643764 L 206.57035372632112,381.6381638163816 L 206.27037862561127,386.1386138613861 L 201.58326767701985,402.14021402140213 L 195.28379056211296,410.3410341034103 L 195.3212874497017,412.4912491249125 z" /><path fill-rule="evenodd" fill="#D2EBD9" stroke="#A6A6A6" stroke-width="0.25" opacity="1" d="M 165.24878360353915,350.98509850985096 L 164.57383962694198,349.98499849984995 L 162.77398902268288,348.034803480348 L 161.91156060814205,346.6846684668467 L 161.3866041818998,344.9344934493449 L 160.37418821700408,339.78397839783975 L 159.3242753645196,336.5836583658366 L 154.7871519662831,328.63286328632864 L 153.28727646273384,323.6323632363236 L 153.13728891237892,322.08220822082205 L 153.43726401308876,314.5314531453145 L 152.9123075868465,306.980698069807 L 173.87306774894736,271.97719771977194 L 174.3980241751896,270.82708270827084 L 174.3980241751896,269.6769676967697 L 172.63567045851923,263.87638763876384 L 207.20780081532953,271.5271527152715 L 216.65701648768984,283.77837783778375 L 224.23138778061357,306.6806680668067 L 233.38062835226404,347.78477847784774 L 232.5181999377232,348.88488848884884 L 228.13106408984166,365.7865786578658 L 213.99473746888992,378.3378337833783 L 206.57035372632112,381.6381638163816 L 204.95798756000565,376.4376437643764 L 199.33345442169596,376.4376437643764 L 192.35903333019192,374.987498749875 L 189.696754311392,373.1873187318732 L 189.696754311392,368.78687868786875 L 186.69700330429347,367.3367336733673 L 184.70966826209073,364.83648364836483 L 186.39702820358363,357.1857185718572 L 183.05980520818653,355.03550355035503 L 176.76032809327967,353.2353235323532 L 171.7732420439784,350.3350335033503 L 165.24878360353915,350.98509850985096 z" /><g><path fill-rule="evenodd" fill="#D2EBD9" stroke="#A6A6A6" stroke-width="0.25" opacity="1" d="M 160.44918199218154,224.47244724472446 L 142.9756323758327,168.36683668366837 L 0.0,117.81178117811781 L 35.809527647238454,32.75327532753275 L 35.39706188376241,32.703270327032705 L 36.109502747948305,32.25322532253225 L 37.90935335220741,32.15321532153215 L 38.7342848791595,31.853185318531853 L 39.221744417813014,31.153115311531153 L 52.98310216287742,0.0 L 57.032766022460414,2.1002100210021 L 64.83211864091653,4.6004600460046 L 68.8442856129108,5.2005200520052 L 76.45615379342325,5.35053505350535 L 78.03102307214998,5.75057505750575 L 80.58081142818371,7.050705070507051 L 81.44323984272454,8.5008500850085 L 82.493152695209,9.650965096509651 L 84.59297840017797,11.2011201120112 L 85.45540681471878,10.95109510951095 L 88.26767338387364,12.2012201220122 L 92.0548590303355,12.901290129012901 L 94.22967851048193,13.001300130013 L 95.46707580091007,13.25132513251325 L 96.81696375410439,14.701470147014701 L 96.96695130445931,15.1015101510151 L 96.77946686651566,16.251625162516252 L 96.96695130445931,16.7016701670167 L 99.55423654808179,18.151815181518153 L 100.4166649626226,18.35183518351835 L 104.16635372149574,18.35183518351835 L 113.05311608002508,19.4019401940194 L 113.95304138215462,19.05190519051905 L 114.92796045946164,19.75197519751975 L 116.12786086230105,19.7019701970197 L 118.3401772300362,19.05190519051905 L 120.14002783429531,19.7019701970197 L 122.46483486479666,19.4019401940194 L 124.5646605697656,19.7019701970197 L 128.46433687899366,18.8018801880188 L 129.02679019282465,18.151815181518153 L 129.62674039424434,16.301630163016302 L 129.9642123825429,16.7016701670167 L 131.57657854885838,15.65156515651565 L 132.13903186268934,15.851585158515851 L 133.00146027723017,15.7015701570157 L 133.56391359106112,16.001600160016 L 134.08887001730338,15.4015401540154 L 134.87630465666675,15.4015401540154 L 136.4886708229822,16.001600160016 L 138.4385089775962,16.251625162516252 L 139.30093739213703,16.55165516551655 L 140.05087514391167,17.35173517351735 L 140.72581912050882,17.15171517151715 L 142.82564482547778,17.7017701770177 L 143.38809813930877,18.051805180518052 L 143.98804834072845,18.8018801880188 L 144.55050165455944,19.1019101910191 L 145.0004643056242,18.35183518351835 L 145.30043940633405,18.35183518351835 L 147.43776199889174,19.901990199019902 L 149.3876001535058,22.15221522152215 L 149.95005346733674,22.4022402240224 L 150.8499787694663,24.2024202420242 L 151.5999165212409,24.602460246024602 L 153.02479824961273,25.002500250025 L 153.4747609006775,25.55255525552555 L 153.32477335032257,25.802580258025802 L 154.44967997798452,28.3028302830283 L 156.17453680706615,29.2029202920292 L 156.43701502018726,29.5029502950295 L 156.66199634571967,30.15301530153015 L 156.62449945813094,30.503050305030502 L 155.94955548153376,30.95309530953095 L 155.9870523691225,32.25322532253225 L 156.0995430318887,32.75327532753275 L 158.04938118650273,35.35353535353535 L 158.34935628721257,36.303630363036305 L 158.34935628721257,38.603860386038605 L 157.97438741132527,39.653965396539654 L 157.0744621091957,40.65406540654065 L 155.46209594288027,41.5041504150415 L 154.937139516638,42.204220422042205 L 154.74965507869436,43.55435543554355 L 154.89964262904928,44.7044704470447 L 155.19961772975913,45.704570457045705 L 156.54950568295345,48.154815481548155 L 160.97413841842376,51.85518551855185 L 161.6115855074322,52.605260526052604 L 162.73649213509415,55.355535553555356 L 163.89889565034483,57.005700570057 L 164.57383962694198,59.005900590059 L 165.24878360353915,59.805980598059804 L 165.6612493670152,60.056005600560056 L 167.2361186457419,60.45604560456045 L 168.1735408354602,60.45604560456045 L 168.92347858723483,61.106110611061105 L 170.38585720319534,61.306130613061306 L 175.14796192696423,62.55625562556255 L 187.37194728089065,63.1063106310631 L 189.09680410997228,63.556355635563555 L 192.209045779837,64.8064806480648 L 193.1464679695553,64.95649564956496 L 197.233628716727,64.6064606460646 L 198.28354156921148,64.8064806480648 L 199.70842329758327,65.5065506550655 L 200.64584548730156,65.65656565656565 L 208.1077261174591,64.65646564656466 L 208.67017943129008,64.75647564756476 L 208.5951856561126,65.9065906590659 L 208.74517320646754,66.25662566256625 L 210.95748957420267,68.75687568756875 L 212.2698806398083,69.4069406940694 L 213.7322592557688,72.007200720072 L 216.8445009256335,73.55735573557355 L 217.74442622776306,74.3074307430743 L 218.41937020436023,75.25752575257525 L 218.53186086712643,76.3076307630763 L 217.85691689052925,77.30773077307731 L 220.2942145837968,83.1083108310831 L 220.74417723486158,85.2085208520852 L 220.85666789762777,87.85878587858785 L 221.53161187422492,89.65896589658965 L 222.24405273841083,90.6090609060906 L 222.39404028876575,91.25912591259126 L 222.01907141287845,93.45934593459346 L 222.24405273841083,95.85958595859586 L 223.10648115295163,97.65976597659765 L 228.20605786501912,102.76027602760276 L 228.61852362849515,103.31033103310331 L 229.06848627955992,104.36043604360435 L 230.19339290722186,105.21052105210521 L 232.21822483701337,106.26062606260625 L 235.29296961928935,108.5108510851085 L 243.35480045086658,111.8111811181118 L 249.2418118022974,113.5113511351135 L 260.56587185409427,115.31153115311531 L 219.20680484372357,126.4126412641264 L 160.44918199218154,224.47244724472446 z" /><path fill-rule="evenodd" fill="#D2EBD9" stroke="#A6A6A6" stroke-width="0.25" opacity="1" d="M 183.88473673513863,42.3042304230423 L 184.3346993862034,42.55425542554255 L 185.7595811145752,42.55425542554255 L 186.4720219787611,43.004300430043 L 185.1596309131555,43.7043704370437 L 183.92223362272736,43.254325432543254 L 183.65975540960625,42.85428542854285 L 183.88473673513863,42.3042304230423 z" /><path fill-rule="evenodd" fill="#D2EBD9" stroke="#A6A6A6" stroke-width="0.25" opacity="1" d="M 194.30887148480596,45.754575457545755 L 193.07147419437783,45.15451545154515 L 191.23412670252998,44.554455445544555 L 189.9592325245131,43.75437543754375 L 190.37169828798915,42.7042704270427 L 191.04664226458632,42.4042404240424 L 193.1464679695553,42.3042304230423 L 194.721337248282,42.75427542754275 L 196.22121275183125,43.7043704370437 L 194.90882168622565,44.354435443544354 L 194.45885903516088,44.95449544954495 L 194.30887148480596,45.754575457545755 z" /></g><path fill-rule="evenodd" fill="#D2EBD9" stroke="#A6A6A6" stroke-width="0.25" opacity="1" d="M 160.44918199218154,224.47244724472446 L 219.20680484372357,126.4126412641264 L 260.56587185409427,115.31153115311531 L 263.2656477604829,115.7115711571157 L 273.164826083908,115.21152115211521 L 274.2147389363925,115.7115711571157 L 275.1896580136995,116.7116711671167 L 277.51446504420085,117.06170617061706 L 279.3893094236374,118.8118811881188 L 279.3893094236374,119.56195619561956 L 277.5894588193783,122.8122812281228 L 277.62695570696707,123.86238623862386 L 278.0394214704431,125.96259625962595 L 277.73944636973323,126.76267626762676 L 276.53954596689385,128.2128212821282 L 276.0895833158291,129.012901290129 L 275.11466423852204,131.56315631563155 L 275.0021735757559,132.7132713271327 L 275.1896580136995,133.76337633763376 L 276.0145895406516,136.1136113611361 L 276.239570866184,137.36373637363735 L 276.239570866184,138.7138713871387 L 275.93959576547417,140.11401140114012 L 275.5646268895868,140.96409640964094 L 273.2773167466742,144.76447644764477 L 272.9398447583756,145.76457645764575 L 273.0148385335531,146.76467646764675 L 273.6147887349728,148.76487648764876 L 273.6522856225615,151.015101510151 L 273.5022980722066,151.7151715171517 L 272.3773914445447,153.26532653265326 L 272.189907006601,154.8154815481548 L 272.63986965766577,156.16561656165615 L 275.677117552353,160.66606660666065 L 276.239570866184,161.9161916191619 L 277.0270055055474,164.76647664766475 L 278.11441524562053,167.46674667466746 L 278.2644027959755,169.66696669666965 L 278.97684366016136,172.4172417241724 L 279.76427829952473,174.26742674267425 L 279.4643031988149,175.5175517551755 L 278.56437789668536,177.56775677567757 L 278.60187478427406,178.8178817881788 L 279.6142907491698,180.36803680368035 L 280.13924717541204,181.86818681868186 L 281.67661956655,183.36833683368337 L 282.50155109350214,183.86838683868385 L 284.56387991088235,184.7184718471847 L 285.4263083254232,185.36853685368536 L 285.7637803137218,186.5186518651865 L 285.61379276336686,186.96869686968697 L 284.93884878676965,187.76877687768777 L 284.78886123641473,188.2188218821882 L 284.90135189918095,188.9188918891889 L 285.61379276336686,190.01900190019 L 286.7386993910288,191.06910691069106 L 288.46355622011043,192.06920692069207 L 290.2259099367808,192.61926192619262 L 290.63837570025686,193.019301930193 L 290.18841304919204,194.019401940194 L 290.2259099367808,194.56945694569455 L 291.05084146373287,196.96969696969697 L 291.3508165644427,197.41974197419742 L 291.95076676586245,197.8197819781978 L 293.9006049204765,198.36983698369835 L 295.4004804240257,199.36993699369935 L 296.82536215239753,199.76997699769976 L 298.2127469931806,199.9199919991999 L 299.1876660704876,199.56995699569956 L 305.93710583645924,221.77217721772175 L 300.8375291243918,224.37243724372436 L 285.6887865385443,232.17321732173215 L 207.20780081532953,271.5271527152715 L 172.63567045851923,263.87638763876384 L 160.44918199218154,224.47244724472446 z" /><g><path fill-rule="evenodd" fill="#D2EBD9" stroke="#A6A6A6" stroke-width="0.25" opacity="1" d="M 357.75780448408597,302.6302630263026 L 355.1330223528748,299.82998299829984 L 355.20801612805224,297.3297329732973 L 356.1079414301818,294.6294629462946 L 355.65797877911706,287.7287728772877 L 353.3331717486157,281.5281528152815 L 337.13451631028374,272.7272727272727 L 290.9383508009667,255.87558755875585 L 295.4754741992032,239.82398239823982 L 300.8375291243918,224.37243724372436 L 305.93710583645924,221.77217721772175 L 299.1876660704876,199.56995699569956 L 299.60013183396364,198.46984698469845 L 299.4876411711974,196.96969696969697 L 299.00018163254396,195.5195519551955 L 297.875275004882,193.46934693469345 L 298.3627345435355,191.16911691169116 L 298.17525010559183,190.1190119011901 L 297.35031857863976,191.06910691069106 L 297.1628341406961,191.61916191619162 L 297.1628341406961,192.26922692269227 L 296.5628839392764,190.16901690169016 L 296.6753746020426,189.16891689168915 L 297.68779056693836,188.76887688768875 L 300.35006958573825,188.16881688168814 L 300.57505091127064,188.01880188018802 L 300.2750758105608,187.76877687768777 L 300.16258514779463,187.31873187318732 L 302.56238595347344,188.06880688068807 L 304.1372552322001,188.01880188018802 L 306.91202491376623,186.86868686868686 L 308.2619128669606,186.81868186818681 L 309.27432883185634,187.36873687368737 L 309.61180082015494,188.76887688768875 L 310.0617634712197,189.16891689168915 L 311.71162652512385,189.76897689768975 L 312.1240922885999,191.86918691869187 L 312.38657050172105,192.26922692269227 L 312.3490736141323,193.06930693069305 L 312.98652070314074,194.86948694869486 L 314.1864211059801,197.26972697269727 L 314.33640865633504,198.6198619861986 L 315.2363339584646,201.37013701370137 L 315.8362841598843,202.32023202320232 L 316.36124058612654,202.8202820282028 L 317.78612231449836,203.77037703770375 L 318.16109119038566,204.47044704470446 L 318.76104139180535,206.57065706570657 L 319.0610164925152,206.57065706570657 L 319.51097914358,206.02060206020602 L 320.3734075581208,206.27062706270627 L 321.2358359726616,206.92069206920692 L 321.72329551131514,207.6207620762076 L 321.7607923989039,208.6208620862086 L 320.44840133329825,207.57075707570755 L 319.7359604691124,207.2207220722072 L 318.8360351669828,207.87078707870785 L 318.4235694035068,208.8208820882088 L 318.53606006627297,209.1209120912091 L 319.13601026769265,209.7209720972097 L 319.43598536840256,210.72107210721072 L 321.4233204106053,211.77117711771177 L 322.24825193755737,212.47124712471245 L 322.023270612025,213.5213521352135 L 324.7980402935911,215.82158215821582 L 325.09801539430094,216.22162216221622 L 325.510481157777,219.021902190219 L 326.9728597737375,221.77217721772175 L 327.72279752551214,222.87228722872285 L 328.8477041531741,223.77237723772376 L 330.83503919537685,226.8226822682268 L 337.28450386063867,233.67336733673366 L 342.6090618982385,238.023802380238 L 343.99644673902156,238.87388738873886 L 350.70838961740446,241.87418741874185 L 351.0833584932918,242.2242224222422 L 351.60831491953405,244.32443244324432 L 356.07044454259307,251.47514751475146 L 356.97036984472265,253.62536253625362 L 358.3952515730944,258.2258225822582 L 362.1824372195563,263.3263326332633 L 362.96987185891965,265.2265226522652 L 363.53232517275063,266.1266126612661 L 365.4446664397759,266.9266926692669 L 365.8946290908407,267.9267926792679 L 366.11961041637306,270.42704270427043 L 366.9820388309139,272.87728772877284 L 367.1320263812688,274.07740774077405 L 367.4694983695674,274.97749774977495 L 368.2569330089308,275.87758775877586 L 369.68181473730255,277.07770777077707 L 372.41908753127996,280.92809280928094 L 373.35650972099825,282.9282928292829 L 373.9939568100067,285.2285228522852 L 374.931378999725,293.67936793679365 L 374.66890078660384,295.2295229522952 L 373.9939568100067,296.9296929692969 L 372.9440439575222,298.2798279827983 L 371.66914977950535,298.62986298629863 L 370.20677116354483,298.4798479847985 L 370.01928672560115,297.7797779777978 L 371.0317026904969,296.4296429642964 L 370.8442182525532,296.17961796179617 L 370.5442431518434,296.17961796179617 L 369.68181473730255,296.5296529652965 L 369.3818396365927,296.8796879687969 L 369.3818396365927,297.5797579757976 L 369.04436764829416,298.62986298629863 L 367.73197658268856,298.62986298629863 L 365.8196353156632,300.0800080008001 L 364.5447411376464,300.58005800580054 L 360.8700461539507,299.32993299329934 L 359.59515197593385,299.32993299329934 L 359.25767998763524,299.6799679967997 L 359.25767998763524,300.38003800380034 L 359.97012085182115,300.0800080008001 L 360.23259906494224,300.2300230023002 L 360.19510217735353,300.78007800780074 L 358.8452142241592,301.6301630163016 L 357.75780448408597,302.6302630263026 z" /><path fill-rule="evenodd" fill="#D2EBD9" stroke="#A6A6A6" stroke-width="0.25" opacity="1" d="M 330.19759210636846,200.4200420042004 L 330.7225485326107,202.37023702370237 L 330.79754230778815,203.27032703270325 L 330.19759210636846,204.1204120412041 L 329.48515124218255,203.9203920392039 L 329.0726854787065,203.3203320332033 L 328.54772905246426,201.62016201620162 L 327.6478037503347,199.76997699769976 L 324.948027843946,195.96959695969596 L 324.6480527432362,195.019501950195 L 324.23558697976017,192.31923192319232 L 323.6731336659292,191.56915691569156 L 322.81070525138836,190.96909690969096 L 321.1983390850729,190.8190819081908 L 320.41090444570955,190.5190519051905 L 319.9984386822335,189.2189218921892 L 318.6860476166279,188.3188318831883 L 317.8986129772645,187.36873687368737 L 317.63613476414343,186.7186718671867 L 317.3361596634336,181.26812681268126 L 317.63613476414343,178.11781178117812 L 318.0860974152082,177.26772677267726 L 318.6485507290392,177.31773177317731 L 319.1735071552814,177.71777177717772 L 319.9609417946448,179.16791679167915 L 321.53581107337146,179.5179517951795 L 322.81070525138836,181.2181218121812 L 324.4230714177038,182.81828182818282 L 324.6480527432362,183.16831683168317 L 324.53556208047,184.56845684568455 L 324.9855247315348,185.46854685468546 L 325.54797804536577,187.86878687868787 L 326.1104313591967,189.06890689068905 L 327.23533798685867,190.8190819081908 L 328.0977664013995,191.61916191619162 L 330.0476045560135,192.71927192719272 L 332.29741781133737,194.46944694469445 L 332.48490224928105,195.019501950195 L 330.57256098225577,198.46984698469845 L 330.19759210636846,200.4200420042004 z" /></g><path fill-rule="evenodd" fill="#D2EBD9" stroke="#A6A6A6" stroke-width="0.25" opacity="1" d="M 347.0336946337088,316.6316631663166 L 342.75904944859343,311.68116811681165 L 327.08535043650375,313.7313731373137 L 312.79903626519706,323.48234823482346 L 305.59963384816064,321.68216821682165 L 297.6502936793496,316.5316531653165 L 294.72553644742857,316.1816181618162 L 283.81394215910774,307.53075307530753 L 279.1268312105163,297.6797679767977 L 290.9383508009667,255.87558755875585 L 337.13451631028374,272.7272727272727 L 353.3331717486157,281.5281528152815 L 355.65797877911706,287.7287728772877 L 356.1079414301818,294.6294629462946 L 355.20801612805224,297.3297329732973 L 355.1330223528748,299.82998299829984 L 357.75780448408597,302.6302630263026 L 356.25792898053675,303.4303430343034 L 354.23309705074524,305.28052805280527 L 353.5956499617368,306.08060806080607 L 353.3331717486157,306.9306930693069 L 351.45832736917913,309.98099809980994 L 348.87104212555664,311.58115811581155 L 347.0336946337088,316.6316631663166 z" /><path fill-rule="evenodd" fill="#D2EBD9" stroke="#A6A6A6" stroke-width="0.25" opacity="1" d="M 293.30065471905675,359.38593859385935 L 292.850692067992,358.88588858885885 L 292.9631827307582,358.8358835883588 L 291.42581033962017,351.4351435143514 L 292.66320763004836,346.2846284628463 L 302.97485171694944,347.6847684768477 L 315.01135263293224,335.2335233523352 L 312.79903626519706,323.48234823482346 L 327.08535043650375,313.7313731373137 L 342.75904944859343,311.68116811681165 L 347.0336946337088,316.6316631663166 L 345.7588004556919,319.38193819381934 L 344.55890005285255,320.78207820782075 L 342.9465338865371,322.032203220322 L 340.4342424180921,323.48234823482346 L 338.8593731393654,324.8324832483248 L 338.1844291627682,327.13271327132713 L 335.147181268081,330.28302830283025 L 334.77221239219364,333.3333333333333 L 334.022274640419,334.38343834383437 L 332.59739291204727,335.7835783578358 L 332.10993337339374,336.5836583658366 L 331.3224987340304,338.8338833883388 L 330.6475547574332,339.7339733973397 L 328.92269792835157,340.5340534053405 L 326.1104313591967,343.18431843184317 L 325.510481157777,344.1844184418442 L 325.0230216191235,346.53465346534654 L 324.6480527432362,347.23472347234724 L 324.7980402935911,348.034803480348 L 324.49806519288126,348.88488848884884 L 323.3356616776306,350.4350435043504 L 322.7357114762109,350.18501850185015 L 322.32324571273483,350.4350435043504 L 322.023270612025,349.7349734973497 L 321.72329551131514,349.7349734973497 L 321.34832663542784,350.78507850785076 L 321.048351534718,350.08500850085005 L 320.7108795464194,350.08500850085005 L 320.1109293449997,350.9350935093509 L 319.43598536840256,351.5351535153515 L 318.4235694035068,351.5351535153515 L 317.18617211307867,352.68526852685267 L 315.8362841598843,355.43554355435543 L 314.8613650825773,355.8855885588559 L 313.7739553425041,356.13561356135614 L 311.71162652512385,356.1856185618562 L 310.8117012229943,356.43564356435644 L 310.39923545951825,356.3856385638564 L 310.0617634712197,355.43554355435543 L 309.64929770774364,355.0855085508551 L 306.64954670064515,354.2854285428543 L 304.3247396701438,354.2854285428543 L 302.1124233024086,354.5354535453545 L 300.4625602485045,355.0855085508551 L 297.8377781172933,357.58575857585754 L 293.30065471905675,359.38593859385935 z" /><path fill-rule="evenodd" fill="#D2EBD9" stroke="#A6A6A6" stroke-width="0.25" opacity="1" d="M 264.72802637644344,365.43654365436544 L 259.21598390089997,355.6855685568557 L 253.02899744875927,350.38503850385035 L 247.14198609732844,348.48484848484844 L 261.2783127182802,333.98339833983397 L 266.7903551938237,333.38333833383336 L 268.5902057980828,332.48324832483246 L 280.81419115200924,334.48344834483447 L 282.27656976796976,337.6837683768377 L 292.66320763004836,346.2846284628463 L 291.42581033962017,351.4351435143514 L 292.9631827307582,358.8358835883588 L 292.850692067992,358.88588858885885 L 293.30065471905675,359.38593859385935 L 291.1633321264991,359.8359835983598 L 289.0635064215301,359.9359935993599 L 282.8390230818007,359.58595859585955 L 281.6391226789613,359.7359735973597 L 280.28923472576696,360.4360436043604 L 279.1268312105163,360.7360736073607 L 278.6393716718628,361.1361136113611 L 277.28948371866846,362.9362936293629 L 276.38955841653893,363.1363136313631 L 272.0774163438348,362.986298629863 L 270.09008130163204,363.3863386338634 L 267.3153116200659,364.2864286428643 L 264.72802637644344,365.43654365436544 z" /><path fill-rule="evenodd" fill="#D2EBD9" stroke="#A6A6A6" stroke-width="0.25" opacity="1" d="M 290.9383508009667,255.87558755875585 L 279.1268312105163,297.6797679767977 L 283.81394215910774,307.53075307530753 L 294.72553644742857,316.1816181618162 L 297.6502936793496,316.5316531653165 L 305.59963384816064,321.68216821682165 L 312.79903626519706,323.48234823482346 L 315.01135263293224,335.2335233523352 L 302.97485171694944,347.6847684768477 L 292.66320763004836,346.2846284628463 L 282.27656976796976,337.6837683768377 L 280.81419115200924,334.48344834483447 L 268.5902057980828,332.48324832483246 L 266.7903551938237,333.38333833383336 L 261.2783127182802,333.98339833983397 L 247.14198609732844,348.48484848484844 L 233.38062835226404,347.78477847784774 L 224.23138778061357,306.6806680668067 L 216.65701648768984,283.77837783778375 L 207.20780081532953,271.5271527152715 L 285.6887865385443,232.17321732173215 L 300.8375291243918,224.37243724372436 L 295.4754741992032,239.82398239823982 L 290.9383508009667,255.87558755875585 z" /></g></g></g></svg>