<svg xmlns="http://www.w3.org/2000/svg" xmlns:xlink="http://www.w3.org/1999/xlink" width="347.5721857568715" height="500.0" viewBox="0.0 0.0 347.5721857568715 500.0" preserveAspectRatio="xMinYMin meet"><g transform="matrix(1,0,0,-1,0,500.0)"><g><g><path fill-rule="evenodd" fill="#D2EBD9" stroke="#A6A6A6" stroke-width="0.25" opacity="1" d="M 303.5303856414643,400.3400340034003 L 300.05431617694916,393.8893889388939 L 299.56766645191703,392.039203920392 L 299.9152733983685,391.5391539153915 L 300.7842907644973,392.3892389238924 L 302.20947924494857,394.33943394339434 L 303.0437359164322,394.6894689468947 L 303.94751397720614,394.73947394739474 L 304.3298816183028,395.0895089508951 L 303.5303856414643,396.3396339633963 L 304.81653134333493,398.38983898389836 L 304.78177064868976,399.18991899189916 L 304.6427278701092,399.78997899789977 L 304.2603602290125,400.19001900190017 L 303.5303856414643,400.3400340034003 z" /><g><path fill-rule="evenodd" fill="#D2EBD9" stroke="#A6A6A6" stroke-width="0.25" opacity="1" d="M 322.09259658197533,421.74217421742173 L 321.9535538033947,422.4922492249225 L 321.6407075515883,423.04230423042304 L 320.70216879616925,423.74237423742375 L 319.90267281933075,423.9423942394239 L 320.2502797657823,422.24222422242224 L 320.18075837649195,421.0921092109211 L 319.4855444835889,420.1420142014201 L 316.1137571030092,417.09170917091706 L 314.86237209578377,416.3416341634163 L 314.236679592171,416.2416241624162 L 311.1777384633977,419.49194919491947 L 310.8996529062365,419.19191919191917 L 310.83013151694615,417.4417441744174 L 311.00393499017196,416.2416241624162 L 311.5948667991395,415.29152915291525 L 312.5334055545586,414.6414641464146 L 313.81955125642924,414.4414441444144 L 315.24473973688043,414.9414941494149 L 317.5389455834604,417.2417241724172 L 318.4427236442344,417.7417741774177 L 320.38932254436287,417.79177917791776 L 321.57118616229803,418.09180918091806 L 322.09259658197533,418.7418741874187 L 320.8412115747499,420.5420542054205 L 320.70216879616925,421.34213421342133 L 322.09259658197533,421.74217421742173 z" /><path fill-rule="evenodd" fill="#D2EBD9" stroke="#A6A6A6" stroke-width="0.25" opacity="1" d="M 322.8225711695235,428.39283928392837 L 321.4321433837174,428.39283928392837 L 320.7369294908144,427.69276927692766 L 320.5631260175886,426.49264926492646 L 320.70216879616925,425.09250925092505 L 322.5097249177171,426.59265926592656 L 323.44826367313624,426.89268926892686 L 324.73440937500686,426.4426442644264 L 325.91627299294197,424.19241924192414 L 326.75052966442564,423.14231423142314 L 327.758589809135,423.3923392339234 L 328.2452395341671,425.39253925392535 L 326.75052966442564,426.89268926892686 L 324.4910845124908,427.9427942794279 L 322.8225711695235,428.39283928392837 z" /></g><path fill-rule="evenodd" fill="#D2EBD9" stroke="#A6A6A6" stroke-width="0.25" opacity="1" d="M 328.3495216181026,443.3443344334433 L 329.8789921824893,444.09440944094405 L 333.3898223416496,439.2439243924392 L 334.74548943281053,442.99429942994294 L 336.03163513468115,445.89458945894586 L 337.17873805797115,448.8948894889489 L 336.37924208113265,448.994899489949 L 335.1278570739072,450.54505450545054 L 333.84171137203657,449.1949194919492 L 330.1570777396505,449.64496449644963 L 330.0875563503602,447.7447744774477 L 329.9137528771344,447.8447844784478 L 328.7666499538444,447.044704470447 L 327.4805042519738,445.19451945194515 L 326.71576896978047,444.49444944494445 L 328.3495216181026,443.3443344334433 z" /><path fill-rule="evenodd" fill="#D2EBD9" stroke="#A6A6A6" stroke-width="0.25" opacity="1" d="M 324.3868024285553,438.8438843884388 L 327.7933505037802,438.8938893889389 L 329.7051887092635,437.99379937993797 L 330.4351632968117,436.09360936093606 L 331.96463386119837,435.19351935193515 L 333.3898223416496,439.2439243924392 L 329.8789921824893,444.09440944094405 L 328.3495216181026,443.3443344334433 L 329.0794962056508,442.5942594259426 L 329.357581762812,441.7941794179418 L 328.8709320377799,440.44404440444043 L 327.9671539770059,439.74397439743973 L 327.09813661087713,439.8939893989399 L 326.71576896978047,441.14411441144114 L 325.7424695197162,440.64406440644063 L 324.9429735428777,439.84398439843983 L 324.3868024285553,438.8438843884388 z" /><path fill-rule="evenodd" fill="#D2EBD9" stroke="#A6A6A6" stroke-width="0.25" opacity="1" d="M 326.611486885845,432.44324432443244 L 328.5233250913284,431.7931793179318 L 330.67848815932774,433.24332433243325 L 331.96463386119837,435.19351935193515 L 330.4351632968117,436.09360936093606 L 329.7051887092635,437.99379937993797 L 327.7933505037802,438.8938893889389 L 324.3868024285553,438.8438843884388 L 324.07395617674894,437.79377937793777 L 323.93491339816836,436.49364936493646 L 324.21299895532957,436.3436343634363 L 324.73440937500686,436.39363936393636 L 325.5339053518453,435.79357935793576 L 326.15959785545806,434.39343934393435 L 326.611486885845,432.44324432443244 z" /><path fill-rule="evenodd" fill="#D2EBD9" stroke="#A6A6A6" stroke-width="0.25" opacity="1" d="M 334.71072873816536,434.09340934093404 L 331.96463386119837,435.19351935193515 L 330.67848815932774,433.24332433243325 L 328.5233250913284,431.7931793179318 L 326.611486885845,432.44324432443244 L 327.89763258771563,428.2428242824282 L 328.31476092345747,427.89278927892786 L 329.357581762812,427.7427742774277 L 329.8789921824893,427.99279927992797 L 330.88705232719866,429.3929392939294 L 331.33894135758567,429.7429742974297 L 331.92987316655325,429.6429642964296 L 332.83365122732715,429.0929092909291 L 334.4674038756493,428.8428842884288 L 334.8845322113911,429.1429142914291 L 335.3711819364232,430.44304430443043 L 334.71072873816536,434.09340934093404 z" /><path fill-rule="evenodd" fill="#D2EBD9" stroke="#A6A6A6" stroke-width="0.25" opacity="1" d="M 337.97823403480965,440.74407440744073 L 337.1092166686808,440.994099409941 L 336.2054386079069,440.64406440644063 L 335.7535495775199,441.64416441644164 L 334.74548943281053,442.99429942994294 L 333.3898223416496,439.2439243924392 L 331.96463386119837,435.19351935193515 L 334.71072873816536,434.09340934093404 L 335.23213915784265,436.19361936193616 L 337.4915843097775,439.1439143914391 L 337.97823403480965,440.74407440744073 z" /><path fill-rule="evenodd" fill="#D2EBD9" stroke="#A6A6A6" stroke-width="0.25" opacity="1" d="M 337.7696698669387,444.79447944794475 L 336.03163513468115,445.89458945894586 L 334.74548943281053,442.99429942994294 L 335.7535495775199,441.64416441644164 L 336.2054386079069,440.64406440644063 L 337.1092166686808,440.994099409941 L 337.97823403480965,440.74407440744073 L 338.29108028661597,441.6941694169417 L 338.742969317003,442.0942094209421 L 338.742969317003,442.74427442744275 L 337.66538778300327,444.1444144414441 L 337.7696698669387,444.79447944794475 z" /><path fill-rule="evenodd" fill="#D2EBD9" stroke="#A6A6A6" stroke-width="0.25" opacity="1" d="M 340.8981323850024,450.6950695069507 L 337.5611056990678,451.54515451545154 L 337.17873805797115,448.8948894889489 L 336.03163513468115,445.89458945894586 L 337.7696698669387,444.79447944794475 L 339.6467473777769,447.39473947394737 L 340.8981323850024,450.6950695069507 z" /><path fill-rule="evenodd" fill="#D2EBD9" stroke="#A6A6A6" stroke-width="0.25" opacity="1" d="M 341.07193585822813,459.94599459945994 L 338.67344792771263,459.74597459745974 L 339.2296190420351,456.045604560456 L 338.6386872330675,454.39543954395435 L 337.4915843097775,454.09540954095405 L 337.5611056990678,451.54515451545154 L 340.8981323850024,450.6950695069507 L 341.3847821100345,455.29552955295526 L 341.07193585822813,459.94599459945994 z" /><path fill-rule="evenodd" fill="#D2EBD9" stroke="#A6A6A6" stroke-width="0.25" opacity="1" d="M 338.67344792771263,459.74597459745974 L 341.07193585822813,459.94599459945994 L 339.92483293493814,463.19631963196315 L 339.438183209906,463.89638963896385 L 338.56916584377717,464.4464446444644 L 337.7001484776484,464.6464646464646 L 337.3525415311969,464.19641964196416 L 337.5611056990678,463.046304630463 L 338.46488375984177,461.14611461146114 L 338.67344792771263,459.74597459745974 z" /><path fill-rule="evenodd" fill="#D2EBD9" stroke="#A6A6A6" stroke-width="0.25" opacity="1" d="M 330.1570777396505,449.64496449644963 L 333.84171137203657,449.1949194919492 L 335.1278570739072,450.54505450545054 L 336.37924208113265,448.994899489949 L 337.17873805797115,448.8948894889489 L 337.5611056990678,451.54515451545154 L 337.4915843097775,454.09540954095405 L 336.3444813864875,453.7453745374537 L 333.91123276132686,453.5453545354535 L 332.27748011300474,452.89528952895284 L 331.0956164950696,451.64516451645164 L 330.0875563503602,449.74497449744973 L 330.1570777396505,449.64496449644963 z" /><g><path fill-rule="evenodd" fill="#D2EBD9" stroke="#A6A6A6" stroke-width="0.25" opacity="1" d="M 1.0775815339997015,9.5009500950095 L 0.0,7.800780078007801 L 0.6952138929030333,6.750675067506751 L 2.8503769609024365,7.15071507150715 L 4.7622151663857775,8.150815081508151 L 5.874557395030631,9.650965096509651 L 5.075061418192143,10.75107510751075 L 2.885137655547588,10.6010601060106 L 1.0775815339997015,9.5009500950095 z" /><path fill-rule="evenodd" fill="#D2EBD9" stroke="#A6A6A6" stroke-width="0.25" opacity="1" d="M 63.82063536849845,2.8002800280028 L 63.194942864885725,2.4002400240024 L 62.25640410946663,1.45014501450145 L 62.60401105591814,0.35003500350035 L 64.16824231494996,0.0 L 65.90627704720755,1.1001100110011 L 65.28058454359483,2.45024502450245 L 63.82063536849845,2.8002800280028 z" /></g><path fill-rule="evenodd" fill="#D2EBD9" stroke="#A6A6A6" stroke-width="0.25" opacity="1" d="M 105.29014408016438,227.07270727072705 L 105.88107588913196,228.2228222822282 L 105.25538338551924,228.8228822882288 L 104.66445157655166,228.5228522852285 L 105.29014408016438,227.07270727072705 z" /><path fill-rule="evenodd" fill="#D2EBD9" stroke="#A6A6A6" stroke-width="0.25" opacity="1" d="M 292.71980960682214,381.8381838183818 L 294.04071600333793,382.7382738273827 L 294.4578443390797,384.23842384238424 L 294.00595530869276,385.7885788578858 L 292.71980960682214,386.7386738673867 L 290.77321070669365,386.68866886688664 L 290.49512514953244,385.1885188518852 L 291.3293818210161,383.2883288328833 L 292.71980960682214,381.8381838183818 z" /><path fill-rule="evenodd" fill="#D2EBD9" stroke="#A6A6A6" stroke-width="0.25" opacity="1" d="M 345.8689117192591,500.0 L 344.2351590709369,497.94979497949794 L 344.2003983762918,496.4996499649965 L 345.0346550477754,495.4495449544954 L 346.6684076960975,496.2996299629963 L 347.5721857568715,498.64986498649864 L 347.08553603183935,500.0 L 345.8689117192591,500.0 z" /></g></g></g></svg>