<svg xmlns="http://www.w3.org/2000/svg" xmlns:xlink="http://www.w3.org/1999/xlink" width="244.37518201582134" height="500.0" viewBox="0.0 0.0 244.37518201582134 500.0" preserveAspectRatio="xMinYMin meet"><g transform="matrix(1,0,0,-1,0,500.0)"><g><g><path fill-rule="evenodd" fill="#D2EBD9" stroke="#A6A6A6" stroke-width="0.25" opacity="1" d="M 56.06527328175759,379.1379137913791 L 55.96751343296638,382.8382838283828 L 54.9410350206587,386.4386438643864 L 53.27911759120817,389.1389138913891 L 51.34836057758182,390.2390239023902 L 48.73328462241702,388.5388538853885 L 47.78012609670274,385.13851385138514 L 46.46036813802144,382.6382638263826 L 42.54997418637313,383.63836383638363 L 42.54997418637313,374.1874187418742 L 42.867693694944556,372.8872887288729 L 44.309651464614866,370.98709870987096 L 44.676250897581895,369.68696869686966 L 44.040811880439044,368.08680868086805 L 41.30353611428523,365.7865786578658 L 40.61921717274678,364.33643364336433 L 38.566260348131415,349.58495849584955 L 38.883979856702844,345.13451345134513 L 42.96545354373576,336.7836783678368 L 48.92880431999943,334.3334333433343 L 56.1630331305488,335.6335633563356 L 63.959381071647606,338.68386838683864 L 61.808664398241035,334.8334833483348 L 57.849390522197126,325.6825682568257 L 56.06527328175759,323.5323532353235 L 52.15487933010928,323.7323732373237 L 49.8330829213181,325.8325832583258 L 47.87788594549395,326.83268326832683 L 44.676250897581895,323.5323532353235 L 43.429812825494,320.18201820182014 L 43.234293127911585,312.68126812681265 L 42.08561490461489,305.38053805380537 L 42.28113460219731,303.8303830383038 L 41.69457550945006,303.030303030303 L 38.883979856702844,302.18021802180215 L 36.85546299428528,303.9303930393039 L 35.486825111208375,305.6305630563056 L 33.2139086268128,311.58115811581155 L 32.94506904263698,313.9313931393139 L 32.94506904263698,320.4320432043204 L 34.802506169669925,328.9328932893289 L 35.34018533802156,334.18341834183417 L 33.87378760615345,336.53365336533653 L 31.771950857142485,337.1837183718372 L 29.987833616702947,340.1340134013401 L 28.13039648967,340.8340834083408 L 26.981718266373313,339.8339833983398 L 25.17316106373597,335.033503350335 L 24.2688824624173,333.2333233323332 L 20.480688321758002,331.18311831183115 L 16.545854407911897,330.68306830683065 L 12.830980153846005,329.6329632963296 L 9.604905143736152,325.6825682568257 L 12.855420116043806,324.1324132413241 L 19.063170514285492,322.9322932293229 L 21.36052696087887,321.38213821382135 L 23.12020423912061,317.53175317531753 L 22.924684541538195,313.6313631363136 L 21.922646091428316,309.9309930993099 L 21.36052696087887,306.4306430643064 L 21.7026864316481,300.78007800780074 L 22.680284919560176,295.37953795379536 L 27.152798001757926,282.7282728272827 L 19.625289644834936,284.1284128412841 L 19.625289644834936,290.22902290229024 L 17.13241350065914,292.57925792579255 L 16.22813489934047,298.32983298329833 L 13.026499851428419,302.28022802280225 L 7.625268205714197,301.38013801380134 L 0.0,291.27912791279124 L 3.641554367472485,287.4287428742874 L 3.2505149723076543,281.27812781278124 L 0.0,267.8267826782678 L 4.008153800439514,244.32443244324432 L 4.179233535824127,237.77377737773776 L 1.9307570136263512,220.87208720872087 L 2.272916484395578,214.021402140214 L 3.5193545564834756,207.12071207120712 L 3.95927387604391,200.57005700570056 L 1.9307570136263512,194.9194919491949 L 4.496953044395552,187.56875687568757 L 4.912432401758185,176.06760676067606 L 6.989829188571347,165.5165516551655 L 14.517337545494335,160.86608660866085 L 16.277014823736074,158.41584158415841 L 16.5947343323075,152.8152815281528 L 15.910415390769046,146.7146714671467 L 12.879860078241608,137.96379637963796 L 13.833018603955882,133.36333633363336 L 25.906359929670028,110.71107110711071 L 28.25259630065901,102.86028602860286 L 30.6721525582414,73.25732573257325 L 28.74139554461505,65.30653065306531 L 21.36052696087887,58.655865586558654 L 16.057055163955855,58.005800580058 L 36.70882322109847,23.75237523752375 L 50.150802429889524,8.5008500850085 L 64.35042046681244,2.45024502450245 L 81.28731426988917,0.0 L 97.24660958505382,0.1000100010001 L 111.93502686593276,5.1005100510051005 L 131.07151726681167,20.502050205020502 L 130.3138784386798,22.902290229022903 L 132.68455477186657,26.2026202620262 L 132.7089947340644,139.86398639863987 L 164.30986585582227,139.86398639863987 L 163.96770638505302,164.86648664866485 L 184.2284350470308,155.8155815581558 L 189.60522673054723,166.36663666366636 L 194.0288598883494,179.8179817981798 L 200.6276496817559,185.86858685868586 L 191.48710381977799,198.26982698269825 L 198.1103335753823,203.97039703970395 L 209.6459957327448,192.96929692969294 L 216.63582492131616,197.7197719771977 L 223.6989739964809,204.87048704870486 L 218.6643417837337,214.27142714271426 L 214.6317480210964,217.97179717971795 L 195.95961690197575,249.07490749074907 L 178.33840415736057,255.07550755075505 L 156.22023836834984,256.77567756775676 L 151.38112585318504,288.72887288728873 L 151.45444573977846,313.5313531353135 L 140.16318320439396,330.18301830183015 L 132.68455477186657,349.2349234923492 L 130.60715798505342,365.6865686568657 L 99.86168554021862,365.6865686568657 L 99.86168554021862,379.1379137913791 L 56.06527328175759,379.1379137913791 z" /><path fill-rule="evenodd" fill="#D2EBD9" stroke="#A6A6A6" stroke-width="0.25" opacity="1" d="M 242.8354643973598,210.92109210921092 L 232.32628065230497,212.7212721272127 L 223.6989739964809,204.87048704870486 L 216.63582492131616,197.7197719771977 L 209.6459957327448,192.96929692969294 L 204.85576314197564,189.7189718971897 L 200.6276496817559,185.86858685868586 L 194.0288598883494,179.8179817981798 L 189.60522673054723,166.36663666366636 L 184.2284350470308,155.8155815581558 L 163.96770638505302,164.86648664866485 L 164.30986585582227,139.86398639863987 L 132.7089947340644,139.86398639863987 L 132.68455477186657,26.2026202620262 L 137.20594777845994,28.002800280028 L 142.16726010461372,28.55285528552855 L 145.95545424527302,29.902990299029902 L 148.81492982241585,32.003200320032 L 150.5990470628554,31.853185318531853 L 151.03896638241582,26.452645264526453 L 160.9615910347234,27.4027402740274 L 166.0451031718662,26.8026802680268 L 168.22025980747057,23.352335233523352 L 166.75386207560246,17.001700170017 L 164.23654596922884,12.1012101210121 L 163.18562759472337,7.75077507750775 L 166.46058252922882,3.1003100310031 L 169.05121852219582,7.45074507450745 L 172.93717251164634,11.3011301130113 L 176.50540699252542,16.15161516151615 L 178.02068464878914,23.352335233523352 L 180.41580094417372,25.65256525652565 L 191.8292632905472,32.503250325032504 L 195.5441375446131,37.253725372537254 L 197.45045459604165,50.255025502550254 L 198.99017221450316,56.155615561556154 L 202.31400707340424,58.655865586558654 L 203.80484476747014,62.006200620062 L 211.55231278417335,91.85918591859185 L 212.92095066725025,94.55945594559455 L 214.77838779428322,95.7095709570957 L 217.3445838250524,96.55965596559655 L 219.617500309448,97.75977597759776 L 222.59917569757982,105.36053605360536 L 232.37516057670058,116.4116411641164 L 236.01671494417306,122.36223622362236 L 240.342588253184,141.16411641164115 L 242.811024435162,143.8143814381438 L 241.32018674109608,147.5147514751475 L 244.37518201582134,179.6179617961796 L 243.81306288527188,205.4205420542054 L 242.8354643973598,210.92109210921092 z" /><g><path fill-rule="evenodd" fill="#D2EBD9" stroke="#A6A6A6" stroke-width="0.25" opacity="1" d="M 215.9026260553821,256.3256325632563 L 195.95961690197575,249.07490749074907 L 214.6317480210964,217.97179717971795 L 218.6643417837337,214.27142714271426 L 223.6989739964809,204.87048704870486 L 232.32628065230497,212.7212721272127 L 242.8354643973598,210.92109210921092 L 241.85786590944772,216.42164216421642 L 239.46274961406314,222.57225722572255 L 236.89655358329395,225.37253725372537 L 220.30181925098645,227.97279727972796 L 216.78246469450298,229.52295229522952 L 215.19386715164583,233.023302330233 L 214.85170768087661,239.87398739873987 L 215.9026260553821,256.3256325632563 z" /><path fill-rule="evenodd" fill="#D2EBD9" stroke="#A6A6A6" stroke-width="0.25" opacity="1" d="M 209.6459957327448,192.96929692969294 L 198.1103335753823,203.97039703970395 L 191.48710381977799,198.26982698269825 L 200.6276496817559,185.86858685868586 L 204.85576314197564,189.7189718971897 L 209.6459957327448,192.96929692969294 z" /></g><path fill-rule="evenodd" fill="#D2EBD9" stroke="#A6A6A6" stroke-width="0.25" opacity="1" d="M 221.59713724746993,331.2331233123312 L 214.26514858812936,335.7835783578358 L 198.1103335753823,342.28422842284226 L 184.88831402637146,327.63276327632764 L 183.42191629450335,308.8808880888089 L 184.88831402637146,291.77917791779174 L 185.62151289230553,269.82698269826983 L 195.95961690197575,249.07490749074907 L 215.9026260553821,256.3256325632563 L 216.78246469450298,269.8769876987699 L 216.24478552615133,274.2274227422742 L 214.5828680967008,278.6278627862786 L 204.22032412483279,296.7296729672967 L 203.53600518329432,299.62996299629964 L 205.12460272615147,302.68026802680265 L 207.47083909714044,305.6305630563056 L 209.03499667779977,308.3808380838084 L 209.6704356949426,313.5313531353135 L 209.03499667779977,329.9329932993299 L 210.99019365362392,329.2329232923292 L 212.92095066725025,327.982798279828 L 216.78246469450298,330.08300830083004 L 221.59713724746993,331.2331233123312 z" /><path fill-rule="evenodd" fill="#D2EBD9" stroke="#A6A6A6" stroke-width="0.25" opacity="1" d="M 187.8944293767011,434.6434643464346 L 187.99218922549233,396.18961896189614 L 167.97586018549254,396.039603960396 L 167.92698026109693,408.040804080408 L 154.28948135472348,408.09080908090806 L 154.24060143032787,418.09180918091806 L 139.30778452747091,418.09180918091806 L 139.3322244896687,427.19271927192716 L 99.6417258804384,427.19271927192716 L 99.6417258804384,394.4894489448945 L 62.517423301977296,394.7894789478948 L 63.49502178988937,391.2391239123912 L 62.688503037361905,386.1386138613861 L 60.0489871199993,381.8381838183818 L 56.06527328175759,379.1379137913791 L 99.86168554021862,379.1379137913791 L 99.86168554021862,365.6865686568657 L 130.60715798505342,365.6865686568657 L 132.68455477186657,349.2349234923492 L 140.16318320439396,330.18301830183015 L 151.45444573977846,313.5313531353135 L 155.58479935120698,308.93089308930894 L 183.42191629450335,308.8808880888089 L 184.88831402637146,327.63276327632764 L 198.1103335753823,342.28422842284226 L 214.26514858812936,335.7835783578358 L 221.59713724746993,331.2331233123312 L 225.43421131252484,333.98339833983397 L 226.4118098004369,340.8340834083408 L 224.7743323331842,344.034403440344 L 221.3282976632941,347.1847184718472 L 217.02686431648098,349.8349834983498 L 212.92095066725025,351.5351535153515 L 222.574735735382,356.7856785678568 L 226.4118098004369,357.9357935793579 L 227.51160809933802,349.78497849784975 L 233.15723936703026,351.98519851985196 L 236.89655358329395,359.28592859285925 L 232.3507206145028,366.4866486648665 L 231.3242422021951,364.1864186418642 L 229.44236511296435,362.3362336233623 L 226.99836889318416,362.036203620362 L 224.48105278681058,364.33643364336433 L 224.06557342944794,367.28672867286724 L 225.1164918039534,370.88708870887086 L 227.12056870417317,373.93739373937393 L 229.34460526417314,375.2875287528753 L 231.81304144615115,374.1874187418742 L 233.40163898900826,369.68696869686966 L 235.03911645626098,368.6368636863686 L 237.31203294065656,370.18701870187016 L 238.14299165538185,373.7873787378738 L 238.21631154197524,378.08780878087805 L 233.35275906461266,412.24122412241223 L 231.3242422021951,417.79177917791776 L 228.24480696527206,422.5922592259226 L 224.48105278681058,426.4426442644264 L 219.7885800448326,429.99299929993 L 214.85170768087661,432.74327432743274 L 209.20607641318438,434.5434543454345 L 202.31400707340424,435.2435243524352 L 190.09402597450327,434.2434243424342 L 187.8944293767011,434.6434643464346 z" /><path fill-rule="evenodd" fill="#D2EBD9" stroke="#A6A6A6" stroke-width="0.25" opacity="1" d="M 62.517423301977296,394.7894789478948 L 99.6417258804384,394.4894489448945 L 99.6417258804384,427.19271927192716 L 139.3322244896687,427.19271927192716 L 139.30778452747091,418.09180918091806 L 154.24060143032787,418.09180918091806 L 154.28948135472348,408.09080908090806 L 167.92698026109693,408.040804080408 L 167.97586018549254,396.039603960396 L 187.99218922549233,396.18961896189614 L 187.8944293767011,434.6434643464346 L 184.35063485801982,435.2435243524352 L 179.9758816246133,439.2939293929393 L 178.58280377933858,445.1445144514451 L 178.28952423296496,451.5951595159516 L 176.6520467657122,456.8456845684568 L 171.29969504439362,458.995899589959 L 168.31801965626178,461.94619461946195 L 168.09805999648157,468.74687468746873 L 168.6846190892288,476.5976597659766 L 168.22025980747057,482.6482648264826 L 163.6744268386794,487.74877487748773 L 141.23854154109725,500.0 L 130.97375741802045,493.4493449344934 L 125.1814863771414,491.6491649164916 L 120.0246543534052,493.5493549354935 L 118.46049677274587,488.84888488848884 L 111.86170697933936,482.048204820482 L 110.34642932307564,477.2477247724772 L 107.90243310329545,475.4475447544754 L 96.02461147516371,470.6970697069707 L 91.74761809054839,469.74697469746974 L 83.68243056527375,466.3466346634663 L 78.03679929758151,458.1458145814581 L 71.63352920175741,439.2939293929393 L 69.89829188571348,439.2939293929393 L 69.0673331709882,441.14411441144114 L 68.18749453186733,442.04420442044204 L 65.84125816087835,443.79437943794375 L 65.05917937054869,429.5429542954295 L 63.8860611850542,423.44234423442344 L 56.529632563515825,405.49054905490544 L 56.016393357361984,398.78987898789876 L 60.0978670443949,394.33943394339434 L 62.02862405802126,396.48964896489645 L 62.517423301977296,394.7894789478948 z" /><path fill-rule="evenodd" fill="#D2EBD9" stroke="#A6A6A6" stroke-width="0.25" opacity="1" d="M 151.45444573977846,313.5313531353135 L 151.38112585318504,288.72887288728873 L 156.22023836834984,256.77567756775676 L 178.33840415736057,255.07550755075505 L 195.95961690197575,249.07490749074907 L 185.62151289230553,269.82698269826983 L 184.88831402637146,291.77917791779174 L 183.42191629450335,308.8808880888089 L 155.58479935120698,308.93089308930894 L 151.45444573977846,313.5313531353135 z" /></g></g></g></svg>