<svg xmlns="http://www.w3.org/2000/svg" xmlns:xlink="http://www.w3.org/1999/xlink" width="500.0" height="435.65227413942915" viewBox="0.0 0.0 500.0 435.65227413942915" preserveAspectRatio="xMinYMin meet"><g transform="matrix(1,0,0,-1,0,435.65227413942915)"><g><g><path fill-rule="evenodd" fill="#D2EBD9" stroke="#A6A6A6" stroke-width="0.25" opacity="1" d="M 270.72707270727074,123.21478460509108 L 275.5275527552755,119.07567408971497 L 277.4277427742774,118.81425658348068 L 279.4779477947795,119.03210450534259 L 281.87818781878184,118.94496533659783 L 284.67846784678466,117.94286489603309 L 287.6787678767877,115.63367692429694 L 295.3295329532953,106.57120337484186 L 299.3799379937994,103.04206704067907 L 304.48044804480446,99.64363945963342 L 310.1310131013101,97.4651602410144 L 315.6315631563156,97.63943857850393 L 319.8319831983198,100.51503114708102 L 330.98309830983095,114.50086773061506 L 331.48314831483145,116.20008152113788 L 331.58315831583155,118.5528390772464 L 332.48324832483246,120.20848328339684 L 335.3335333533353,119.90349619279019 L 343.034303430343,116.1565119367655 L 346.0846084608461,115.45939858680741 L 350.03500350035,115.67724650866931 L 354.7854785478548,116.63577736486168 L 359.38593859385935,118.1171432335226 L 362.9362936293629,119.94706577716256 L 366.0866086608661,122.86622793011205 L 368.2368236823682,125.69825091431674 L 370.6370637063706,127.92029971730814 L 374.5874587458746,129.0966784953624 L 375.7875787578758,128.48670431414908 L 383.5883588358836,126.65678177050911 L 384.43844384438444,126.96176886111577 L 385.5885588558856,125.61111174557199 L 386.88868886888685,122.12554499578158 L 388.28882888288825,120.20848328339684 L 401.6401640164016,109.22894802155704 L 409.8409840984098,105.35125501241522 L 417.9417941794179,105.04626792180855 L 422.6922692269227,107.87829090601326 L 427.9427942794279,107.18117755605519 L 433.2933293329333,105.65624210302188 L 438.4438443844384,105.96122919362854 L 441.1941194119412,108.27041716536469 L 444.7444744474447,114.89299398996647 L 447.5447544754475,117.11504279295787 L 450.74507450745074,117.55073863668166 L 453.39533953395335,116.72291653360644 L 466.2466246624662,110.36175721523894 L 468.24682468246823,109.88249178714275 L 470.4970497049705,110.49246596835607 L 472.2472247224722,111.49456640892082 L 475.69756975697567,112.36595809636842 L 479.4979497949795,114.54443731498743 L 483.6483648364836,116.3743598586274 L 486.8486848684868,118.68354783036355 L 489.3989398939894,123.30192377383584 L 490.44904490449045,128.31242597665957 L 489.3989398939894,145.17385512877067 L 491.5491549154915,156.02268163749335 L 500.0,183.47151979209283 L 497.94979497949794,190.6169316291632 L 495.2995299529953,194.18963754769837 L 491.5491549154915,197.93662180372306 L 487.0987098709871,200.15867060671442 L 482.49824982498245,199.1565701661497 L 485.7485748574857,213.49096342466277 L 484.99849984998497,220.02640108051978 L 477.64776477647763,221.20277985857405 L 478.84788478847884,223.16341115533115 L 480.34803480348035,224.77548577710922 L 484.3484348434843,227.9124958519206 L 482.4482448244824,232.313023873531 L 483.8483848384838,236.10357771392808 L 486.3486348634863,239.80699238558037 L 487.6987698769877,243.98967248532887 L 485.7485748574857,253.87996813785918 L 484.89848984898487,256.4505736158296 L 487.6987698769877,263.2474287779209 L 487.0987098709871,265.51304716528466 L 484.89848984898487,268.86790516195794 L 484.3484348434843,270.13142310875696 L 484.4484448444844,272.78916775547214 L 487.5987598759876,292.2212023855537 L 487.7987798779878,298.5387921195488 L 485.998599859986,303.76714224423444 L 480.14801480148014,301.54509344124307 L 476.29762976297627,304.55139476293726 L 473.9473947394739,310.08473197822957 L 471.54715471547155,318.9729271901951 L 470.44704470447044,320.8464193182075 L 467.3967396739674,324.114138146136 L 463.3463346334633,329.5603361926835 L 461.84618461846185,332.74091585186727 L 463.19631963196315,334.1787121361558 L 463.9463946394639,337.0978742891053 L 464.39643964396436,343.50260319184514 L 462.99629962996295,349.9509016789574 L 458.1958195819582,352.8264942475345 L 453.39533953395335,353.52360759749257 L 437.09370937093706,359.5797798252534 L 434.8434843484348,360.9304369407972 L 431.14311431143113,364.45957327496 L 428.5428542854285,366.28949581859996 L 421.2921292129213,369.2957971402942 L 418.1418141814181,371.6921242807751 L 416.79167916791675,375.61338687428935 L 417.041704170417,377.4433094179293 L 418.4418441844184,380.7545978302302 L 417.9417941794179,382.75879871135965 L 415.6415641564156,385.7215304486815 L 414.1914191419142,390.7320326515052 L 409.7409740974097,398.18243157918226 L 408.2408240824082,401.75513749771744 L 407.2407240724072,408.1162968160849 L 406.2406240624062,409.6848018534906 L 403.1903190319032,411.8632810721096 L 402.1902190219022,411.55829398150297 L 400.59005900590057,410.68690229405536 L 398.58985898589856,410.38191520344867 L 396.4396439643964,411.8632810721096 L 396.039603960396,413.34464694077053 L 396.68966896689665,414.82601280943146 L 397.6397639763976,416.2202395093476 L 398.1398139813981,417.6580357936362 L 397.3397339733973,421.0128937903094 L 393.73937393739374,423.49636009953514 L 392.93929392939293,426.1541047462503 L 393.6893689368937,428.89898856171027 L 395.58955895589554,431.60030279279783 L 397.5397539753975,433.6480732582997 L 391.1391139113911,435.65227413942915 L 387.78877887788775,435.173008711333 L 384.53845384538454,433.7352124270445 L 380.68806880688066,432.7766815708521 L 376.5376537653765,433.29951658332067 L 372.3372337233723,434.5194649457473 L 368.2368236823682,435.1294391269606 L 364.4864486448645,433.7787820114168 L 362.38623862386237,430.2932152616264 L 360.8360836083608,420.0979325184895 L 359.5359535953595,416.3509482624648 L 358.035803580358,415.13099990003815 L 353.9353935393539,413.2575077720258 L 352.18521852185216,411.8197114877372 L 351.48514851485146,410.33834561907634 L 350.9350935093509,406.8092092849135 L 350.48504850485045,405.19713466313544 L 347.8347834783478,400.7094674727803 L 344.5844584458446,396.61392654177655 L 333.6333633363336,386.2007958767777 L 329.8329832983298,383.93517748941395 L 328.03280328032804,383.41234247694535 L 324.08240824082407,382.8895074644768 L 322.18221822182215,381.7566982707949 L 320.38203820382034,378.40184027412164 L 318.8818881888189,368.8601012965704 L 317.63176317631763,365.1131170405457 L 314.98149814981497,362.62965073132006 L 304.9304930493049,358.7083881378058 L 297.6297629762976,354.7871255442916 L 299.3799379937994,354.09001219433355 L 300.78007800780074,353.00077258502404 L 301.5301530153015,350.473736691426 L 302.9302930293029,348.60024456341364 L 304.5304530453045,347.3367266166146 L 307.63076307630763,342.1519460763014 L 310.38103810381034,337.9692659765529 L 312.5312531253125,333.9608642142939 L 315.6815681568157,327.03330029908545 L 316.3316331633163,323.2427464586884 L 316.4816481648165,320.9771280713246 L 321.6321632163216,322.67634186184745 L 324.08240824082407,322.67634186184745 L 325.4325432543254,321.93565892751695 L 325.2825282528253,320.8028497338351 L 323.3323332333233,319.0600663589399 L 322.032203220322,314.9209558435638 L 323.08230823082306,309.43118821264386 L 324.98249824982497,304.37711642544775 L 327.3827382738274,300.02015798820975 L 330.6330633063306,296.6217304071641 L 339.88398839883985,284.9015122109938 L 343.38433843384337,281.0673887862244 L 344.8344834483448,277.7561003739235 L 343.034303430343,272.2227631586312 L 343.9343934393439,267.037982618318 L 346.4846484648465,258.5854832500762 L 348.38483848384834,251.00437556928208 L 348.48484848484844,247.2573913132574 L 344.9344934493449,244.99177292589363 L 343.2343234323432,243.11828079788128 L 342.2342234223422,242.42116744792318 L 342.5342534253425,241.1140799167518 L 344.2344234423442,238.71775277627088 L 345.1845184518452,235.1450468577357 L 344.984498449845,231.74661927669004 L 346.53465346534654,229.8731271486777 L 347.98479847984794,228.43533086438916 L 348.48484848484844,224.3833595177578 L 348.38483848384834,219.5471356524236 L 347.23472347234724,217.45579560254936 L 340.3340334033403,214.36235511211038 L 338.98389838983894,212.83741965907706 L 338.0838083808381,201.1172014629068 L 336.4836483648365,192.22900625094124 L 334.5334533453345,187.74133906058609 L 332.88328832883286,185.38858150447757 L 329.38293829382934,189.96338786357748 L 327.73277327732774,192.5339933415479 L 325.1325132513251,195.93242092259356 L 322.1322132213221,196.80381261004118 L 319.13191319131914,195.71457300073166 L 315.08150815081507,193.84108087271932 L 311.88118811881185,191.31404497912126 L 311.28112811281125,190.3990837073013 L 307.73077307730773,190.05052703232224 L 299.52995299529954,188.08989573556514 L 297.979797979798,187.87204781370323 L 295.87958795879587,188.08989573556514 L 293.8293829382938,190.70407079790795 L 292.07920792079204,190.18123578543938 L 290.77907790779074,188.8305786698956 L 286.9286928692869,186.95708654188326 L 285.77857785778576,185.9985556856909 L 285.47854785478546,183.64579812958235 L 285.4285428542854,176.32610795502248 L 283.8283828382838,173.31980663332826 L 280.1780178017802,169.3114048710693 L 277.5277527752775,164.2137634995008 L 277.9277927792779,156.02268163749335 L 276.57765776577656,143.91033718197164 L 273.47734773477345,134.97857238563373 L 272.5272527252725,129.92450059843762 L 271.9271927192719,125.17541590184818 L 271.32713271327134,123.86832837067678 L 270.72707270727074,123.21478460509108 z" /><path fill-rule="evenodd" fill="#D2EBD9" stroke="#A6A6A6" stroke-width="0.25" opacity="1" d="M 270.72707270727074,123.21478460509108 L 271.32713271327134,123.86832837067678 L 271.9271927192719,125.17541590184818 L 272.5272527252725,129.92450059843762 L 273.47734773477345,134.97857238563373 L 276.57765776577656,143.91033718197164 L 277.9277927792779,156.02268163749335 L 277.5277527752775,164.2137634995008 L 280.1780178017802,169.3114048710693 L 283.8283828382838,173.31980663332826 L 285.4285428542854,176.32610795502248 L 285.47854785478546,183.64579812958235 L 285.77857785778576,185.9985556856909 L 285.17851785178516,186.4342515294147 L 282.2282228222822,187.39278238560706 L 281.17811781178114,187.56706072309657 L 279.0779077907791,188.87414825426796 L 277.57775777577757,191.83687999158983 L 278.027802780278,194.23320713207073 L 279.82798279827983,196.0631296757107 L 281.8281828182818,196.89095177878593 L 282.7282728272827,197.8059130506059 L 283.8283828382838,199.67940517861825 L 282.2282228222822,203.5135286033877 L 279.8779877987799,207.17337369066763 L 280.72807280728074,208.43689163746666 L 281.2281228122812,210.00539667487234 L 281.47814781478144,212.9681284121942 L 281.9281928192819,214.01379843713133 L 280.4780478047805,217.67364352441126 L 279.72797279727973,219.19857897744455 L 278.5278527852785,220.98493193671214 L 277.1277127712771,224.94976411459874 L 276.6276627662766,225.77758621767396 L 276.7276727672767,226.08257330828062 L 276.07760776077606,226.51826915200442 L 274.1274127412741,226.91039541135586 L 271.7271727172717,228.5660396175063 L 265.8265826582658,234.57864226089475 L 263.97639763976395,235.79859062332142 L 262.026202620262,236.84426064825854 L 260.32603260326033,238.06420901068518 L 257.37573757375736,238.9356006981328 L 253.07530753075307,239.02273986687754 L 248.17481748174816,238.15134817942993 L 243.4243424342434,238.10777859505754 L 236.67366736673665,240.37339698242133 L 232.023202320232,243.37969830411555 L 230.77307730773077,246.90883463827834 L 227.37273727372735,250.17655346620685 L 218.6218621862186,263.4652766997828 L 217.77177717771775,265.77446467151896 L 215.87158715871587,266.0794517621256 L 212.77127712771275,265.51304716528466 L 208.17081708170815,267.1686913714351 L 204.1204120412041,269.87000560252267 L 201.37013701370137,270.39284061499126 L 198.56985698569855,270.00071435563984 L 197.06970697069707,269.52144892754364 L 197.7197719771977,268.65005724009603 L 198.4198419841984,266.16659093087037 L 199.36993699369935,261.67892374051524 L 200.2200220022002,253.40070270976298 L 199.5199519951995,246.5602779632993 L 198.7198719871987,243.6846853947222 L 198.66986698669865,240.72195365740035 L 199.8199819981998,234.6657814296395 L 200.5200520052005,228.1303437737825 L 198.26982698269825,223.03270240221403 L 198.3198319831983,220.33138817112646 L 199.26992699269925,217.5429347712941 L 200.37003700370036,215.53873389016462 L 199.8199819981998,212.9681284121942 L 197.56975697569757,210.92035794669235 L 194.7194719471947,210.04896625924474 L 188.46884688468845,210.22324459673425 L 189.6189618961896,207.73977828750859 L 190.46904690469046,202.29358024096106 L 190.2190219021902,197.10879970064784 L 191.81918191819182,192.66470209466505 L 190.96909690969096,186.1728340231804 L 188.01880188018802,181.8158755859424 L 186.5186518651865,179.07099177048244 L 186.5186518651865,177.24106922684248 L 185.1185118511851,173.84264164579682 L 182.86828682868287,169.7035311304207 L 182.56825682568257,167.17649523682266 L 183.31833183318332,165.65155978378937 L 184.2184218421842,162.2531322027437 L 184.3184318431843,158.85470462169806 L 177.96779677967797,155.2384291187905 L 174.16741674167415,153.97491117199147 L 171.26712671267126,155.0205811969286 L 170.26702670267025,153.58278491264005 L 168.86688668866887,152.05784945960676 L 165.7165716571657,150.09721816284963 L 163.016301630163,147.74446060674111 L 159.7159715971597,145.91453806310113 L 153.6153615361536,141.12188378213932 L 150.01500150015002,137.37489952611463 L 148.5148514851485,137.59274744797654 L 141.36413641364135,137.37489952611463 L 136.36363636363635,136.5470774230394 L 131.8131813181318,133.10508025762138 L 128.66286628662866,131.7108535577052 L 125.86258625862585,132.53867566078043 L 122.21222122212221,131.9722710639395 L 118.5118511851185,130.05520935155477 L 116.011601160116,127.09247761423292 L 115.36153615361536,123.73761961755964 L 116.96169616961696,119.68564827092828 L 118.66186618661865,116.28722068988263 L 118.46184618461845,113.9780327181465 L 113.9113911391139,106.74548171233138 L 115.36153615361536,101.69140992513529 L 114.36143614361436,99.42579153777152 L 104.1104110411041,93.89245432247924 L 102.010201020102,90.75544424766787 L 100.86008600860086,87.48772541973935 L 101.11011101110111,85.8320812135889 L 104.06040604060405,84.22000659181084 L 108.66086608660865,82.78221030752229 L 111.96119611961196,81.30084443886138 L 114.011401140114,78.55596062340142 L 114.56145614561456,74.80897636737673 L 116.011601160116,71.71553587693774 L 117.86178617861786,69.27563915208445 L 119.1119111911191,66.83574242723115 L 120.11201120112011,65.31080697419786 L 119.36193619361936,60.605291861980795 L 119.66196619661966,58.90607807145797 L 123.8123812381238,52.80633625932475 L 122.96229622962295,43.9181410473592 L 119.51195119511951,37.73126006648121 L 117.26172617261726,36.51131170405457 L 116.011601160116,36.16275502907553 L 111.36113611361135,33.72285830422224 L 111.4111411141114,33.46144079798796 L 116.76167616761676,28.450938595164242 L 118.26182618261825,25.40106768909763 L 117.71177117711771,22.612614289265302 L 114.3114311431143,18.429934189516807 L 113.46134613461345,15.859328711546377 L 114.06140614061405,12.983736142969287 L 116.3116311631163,7.886094771400808 L 116.6116611661166,4.792654280961817 L 118.8118811881188,0.08713916874476031 L 124.86248624862486,0.6535437655857024 L 135.46354635463547,5.271919709057999 L 139.91399139913992,5.7947547215265605 L 153.56535653565356,3.2241492435561314 L 159.26592659265927,0.0 L 163.96639663966397,1.5685050374056857 L 168.56685668566857,4.531236774727536 L 173.96739673967394,5.228350124685619 L 176.5176517651765,5.141210955940858 L 178.46784678467847,5.881893890271321 L 180.3180318031803,7.014703083953205 L 187.61876187618762,9.672447730668395 L 189.36893689368935,9.541738977551255 L 202.27022702270227,5.315489293430379 L 206.92069206920692,4.574806359099917 L 212.4212421242124,5.271919709057999 L 214.8214821482148,6.709715993346544 L 215.87158715871587,9.018903965082693 L 216.72167216721672,14.20368450539593 L 218.5218521852185,16.4693028927597 L 221.37213721372137,16.512872477132078 L 226.87268726872685,14.857228270981633 L 232.97329732973296,14.682949933492113 L 237.97379737973796,15.597911205312096 L 242.57425742574256,18.342795020772044 L 247.6247624762476,23.484005976712904 L 250.9250925092509,27.92810358269568 L 253.92539253925392,33.025744954264155 L 256.2256225622562,38.384803832066915 L 257.57575757575756,43.83100187861444 L 258.7258725872587,71.84624463005488 L 264.026402640264,90.45045715706121 L 262.27622762276224,109.40322635904657 L 263.87638763876384,122.03840582703681 L 263.87638763876384,124.30402421440058 L 264.57645764576455,125.69825091431674 L 267.07670767076706,125.78539008306151 L 269.0769076907691,124.65258088937962 L 270.72707270727074,123.21478460509108 z" /><path fill-rule="evenodd" fill="#D2EBD9" stroke="#A6A6A6" stroke-width="0.25" opacity="1" d="M 111.36113611361135,33.72285830422224 L 116.011601160116,36.16275502907553 L 117.26172617261726,36.51131170405457 L 119.51195119511951,37.73126006648121 L 122.96229622962295,43.9181410473592 L 123.8123812381238,52.80633625932475 L 119.66196619661966,58.90607807145797 L 119.36193619361936,60.605291861980795 L 120.11201120112011,65.31080697419786 L 119.1119111911191,66.83574242723115 L 117.86178617861786,69.27563915208445 L 116.011601160116,71.71553587693774 L 114.56145614561456,74.80897636737673 L 114.011401140114,78.55596062340142 L 111.96119611961196,81.30084443886138 L 108.66086608660865,82.78221030752229 L 104.06040604060405,84.22000659181084 L 101.11011101110111,85.8320812135889 L 100.86008600860086,87.48772541973935 L 102.010201020102,90.75544424766787 L 104.1104110411041,93.89245432247924 L 114.36143614361436,99.42579153777152 L 115.36153615361536,101.69140992513529 L 113.9113911391139,106.74548171233138 L 118.46184618461845,113.9780327181465 L 118.66186618661865,116.28722068988263 L 116.96169616961696,119.68564827092828 L 115.36153615361536,123.73761961755964 L 116.011601160116,127.09247761423292 L 118.5118511851185,130.05520935155477 L 122.21222122212221,131.9722710639395 L 125.86258625862585,132.53867566078043 L 128.66286628662866,131.7108535577052 L 131.8131813181318,133.10508025762138 L 136.36363636363635,136.5470774230394 L 141.36413641364135,137.37489952611463 L 148.5148514851485,137.59274744797654 L 150.01500150015002,137.37489952611463 L 153.6153615361536,141.12188378213932 L 159.7159715971597,145.91453806310113 L 163.016301630163,147.74446060674111 L 165.7165716571657,150.09721816284963 L 168.86688668866887,152.05784945960676 L 170.26702670267025,153.58278491264005 L 171.26712671267126,155.0205811969286 L 174.16741674167415,153.97491117199147 L 177.96779677967797,155.2384291187905 L 184.3184318431843,158.85470462169806 L 184.2184218421842,162.2531322027437 L 183.31833183318332,165.65155978378937 L 182.56825682568257,167.17649523682266 L 182.86828682868287,169.7035311304207 L 185.1185118511851,173.84264164579682 L 186.5186518651865,177.24106922684248 L 186.5186518651865,179.07099177048244 L 188.01880188018802,181.8158755859424 L 190.96909690969096,186.1728340231804 L 191.81918191819182,192.66470209466505 L 190.2190219021902,197.10879970064784 L 190.46904690469046,202.29358024096106 L 189.6189618961896,207.73977828750859 L 188.46884688468845,210.22324459673425 L 194.7194719471947,210.04896625924474 L 197.56975697569757,210.92035794669235 L 199.8199819981998,212.9681284121942 L 200.37003700370036,215.53873389016462 L 199.26992699269925,217.5429347712941 L 198.3198319831983,220.33138817112646 L 198.26982698269825,223.03270240221403 L 200.5200520052005,228.1303437737825 L 199.8199819981998,234.6657814296395 L 198.66986698669865,240.72195365740035 L 198.7198719871987,243.6846853947222 L 199.5199519951995,246.5602779632993 L 200.2200220022002,253.40070270976298 L 199.36993699369935,261.67892374051524 L 198.4198419841984,266.16659093087037 L 197.7197719771977,268.65005724009603 L 197.06970697069707,269.52144892754364 L 194.46944694469445,271.5692193930455 L 191.36913691369136,275.22906448032546 L 191.66916691669167,280.6316929425006 L 191.76917691769177,287.77710477957095 L 191.4191419141914,297.84167876959077 L 190.4190419041904,305.29207769726776 L 185.56855685568556,305.6406343722468 L 180.6180618061806,305.37921686601254 L 172.06720672067206,309.51832738138864 L 170.7170717071707,309.91045364074006 L 169.76697669766975,310.5204278219534 L 168.11681168116812,309.86688405636767 L 166.1166116611661,309.8233144719953 L 156.16561656165615,313.13460288429616 L 150.2150215021502,320.105736383877 L 144.76447644764477,327.64327448029877 L 143.4143414341434,325.7697823522864 L 142.86428642864286,325.4212256773074 L 142.26422642264225,325.29051692419023 L 123.4123412341234,324.5062644054874 L 119.56195619561956,322.89418978370935 L 116.7116711671167,319.2343446964294 L 109.96099609960996,305.33564728164015 L 107.46074607460746,302.0679284537116 L 95.6095609560956,292.2212023855537 L 92.6092609260926,287.8642439483157 L 87.4087408740874,278.01751788015775 L 71.9071907190719,253.22642437227347 L 67.3067306730673,242.37759786355082 L 66.05660566056605,233.57654182033002 L 66.6066606660666,224.55763785524732 L 73.15731573157315,185.86784693257374 L 73.65736573657365,177.02322130498058 L 72.20722072207221,166.74079939309885 L 68.35683568356835,155.06415078130098 L 62.206220622062204,145.47884221937733 L 53.7053705370537,138.7691262260308 L 42.75427542754275,135.84996407308134 L 35.7035703570357,136.0678119949432 L 33.6033603360336,135.32712906061278 L 31.053105310531052,132.97437150450423 L 30.75307530753075,130.83946187025762 L 29.952995299529952,128.18171722354242 L 28.05280528052805,124.52187213626249 L 25.202520252025202,120.07777453027971 L 21.702170217021703,116.50506861174453 L 17.451745174517452,113.9780327181465 L 12.301230123012301,112.45309726511319 L 5.7005700570057005,110.18747887774941 L 2.25022502250225,107.18117755605519 L 0.4000400040004,100.73287906894292 L 0.9000900090009001,95.46095935988492 L 1.8001800180018002,90.58116591017834 L 4.3004300430043,86.09349871982319 L 5.15051505150515,83.08719739812896 L 0.9000900090009001,79.29664355773188 L 0.0,76.02892472980338 L 0.9000900090009001,72.89191465499201 L 3.1003100310031,71.3669792019587 L 5.8505850585058505,70.0598916707873 L 8.4008400840084,67.48928619281686 L 10.05100510051005,61.73810105566268 L 8.4008400840084,42.91604060679445 L 10.3010301030103,40.955409310037346 L 19.5019501950195,34.942806666648885 L 22.752275227522752,33.63571913547748 L 30.15301530153015,32.85146661677464 L 35.2035203520352,30.368000307548968 L 38.95389538953895,26.185320207800473 L 43.154315431543154,50.845704962567645 L 48.75487548754875,56.29190300911516 L 63.1063106310631,57.25043386530753 L 67.1067106710671,56.68402926846658 L 82.05820582058206,50.14859161260956 L 87.55875587558755,48.44937782208673 L 97.95979597959796,47.14229029091533 L 103.16031603160316,45.922341928488684 L 107.66076607660766,43.35173645051825 L 110.66106610661066,41.08611806315449 L 110.8110811081108,39.9533088694726 L 110.51105110511051,37.03414671652313 L 111.36113611361135,33.72285830422224 z" /><path fill-rule="evenodd" fill="#D2EBD9" stroke="#A6A6A6" stroke-width="0.25" opacity="1" d="M 297.6297629762976,354.7871255442916 L 296.37963796379637,354.1335817787059 L 293.1293129312931,350.822293366405 L 290.9290929092909,345.4196649042299 L 288.3788378837884,344.89682989176134 L 271.6271627162716,335.61650842044435 L 266.2266226622662,333.6123075393148 L 261.0761076107611,333.0459029424739 L 256.2256225622562,334.4401296423901 L 252.025202520252,338.4049618202767 L 249.62496249624962,343.5897423605899 L 249.02490249024902,353.7414555193545 L 247.97479747974796,358.9262360596677 L 241.024102410241,368.94724046531513 L 238.3238323832383,370.34146716523134 L 236.1236123612361,370.64645425583797 L 233.97339733973396,370.03648007462465 L 231.7231723172317,368.5986837903361 L 229.47294729472947,365.94093914362094 L 228.022802280228,361.10471527828673 L 225.97259725972597,359.8847669158601 L 224.27242724272426,360.4947410970734 L 219.021902190219,363.6753207562572 L 216.07160716071607,364.3724341062152 L 210.1210121012101,363.28319449690576 L 205.97059705970597,361.1482848626591 L 202.17021702170217,358.40340104719917 L 197.11971197119712,355.5278084786221 L 192.51925192519252,354.30786011619546 L 187.36873687368737,353.915733856844 L 177.46774677467747,354.4385688693126 L 167.76677667766776,350.9965717038945 L 157.96579657965796,343.93829903556895 L 149.46494649464947,335.09367340797576 L 144.76447644764477,327.64327448029877 L 150.2150215021502,320.105736383877 L 156.16561656165615,313.13460288429616 L 166.1166116611661,309.8233144719953 L 168.11681168116812,309.86688405636767 L 169.76697669766975,310.5204278219534 L 170.7170717071707,309.91045364074006 L 172.06720672067206,309.51832738138864 L 180.6180618061806,305.37921686601254 L 185.56855685568556,305.6406343722468 L 190.4190419041904,305.29207769726776 L 191.4191419141914,297.84167876959077 L 191.76917691769177,287.77710477957095 L 191.66916691669167,280.6316929425006 L 191.36913691369136,275.22906448032546 L 194.46944694469445,271.5692193930455 L 197.06970697069707,269.52144892754364 L 198.56985698569855,270.00071435563984 L 201.37013701370137,270.39284061499126 L 204.1204120412041,269.87000560252267 L 208.17081708170815,267.1686913714351 L 212.77127712771275,265.51304716528466 L 215.87158715871587,266.0794517621256 L 217.77177717771775,265.77446467151896 L 218.6218621862186,263.4652766997828 L 227.37273727372735,250.17655346620685 L 230.77307730773077,246.90883463827834 L 232.023202320232,243.37969830411555 L 236.67366736673665,240.37339698242133 L 243.4243424342434,238.10777859505754 L 248.17481748174816,238.15134817942993 L 253.07530753075307,239.02273986687754 L 257.37573757375736,238.9356006981328 L 260.32603260326033,238.06420901068518 L 262.026202620262,236.84426064825854 L 263.97639763976395,235.79859062332142 L 265.8265826582658,234.57864226089475 L 271.7271727172717,228.5660396175063 L 274.1274127412741,226.91039541135586 L 276.07760776077606,226.51826915200442 L 276.7276727672767,226.08257330828062 L 277.37773777377737,226.3439908145149 L 278.2778277827783,227.08467374884538 L 275.97759775977596,233.75082015781953 L 277.07770777077707,236.2778560514176 L 280.978097809781,242.59544578541272 L 283.3283328332833,243.42326788848794 L 289.62896289628964,239.24058778873945 L 292.87928792879285,241.15764950112415 L 295.57955795579556,244.25108999156316 L 296.9296929692969,246.03744295083075 L 301.9301930193019,248.3030613381945 L 307.93079307930793,249.34873136313163 L 310.28102810281024,249.00017468815258 L 311.6311631163116,250.7429580630478 L 314.58145814581457,258.1497874063524 L 316.5316531653165,257.27839571890485 L 320.58205820582054,254.8820685784239 L 328.68286828682864,249.47944011624878 L 336.3836383638364,244.03324206970126 L 340.4340434043404,242.68258495415748 L 342.2342234223422,242.42116744792318 L 343.2343234323432,243.11828079788128 L 344.9344934493449,244.99177292589363 L 348.48484848484844,247.2573913132574 L 348.38483848384834,251.00437556928208 L 346.4846484648465,258.5854832500762 L 343.9343934393439,267.037982618318 L 343.034303430343,272.2227631586312 L 344.8344834483448,277.7561003739235 L 343.38433843384337,281.0673887862244 L 339.88398839883985,284.9015122109938 L 330.6330633063306,296.6217304071641 L 327.3827382738274,300.02015798820975 L 324.98249824982497,304.37711642544775 L 323.08230823082306,309.43118821264386 L 322.032203220322,314.9209558435638 L 323.3323332333233,319.0600663589399 L 325.2825282528253,320.8028497338351 L 325.4325432543254,321.93565892751695 L 324.08240824082407,322.67634186184745 L 321.6321632163216,322.67634186184745 L 316.4816481648165,320.9771280713246 L 316.3316331633163,323.2427464586884 L 315.6815681568157,327.03330029908545 L 312.5312531253125,333.9608642142939 L 310.38103810381034,337.9692659765529 L 307.63076307630763,342.1519460763014 L 304.5304530453045,347.3367266166146 L 302.9302930293029,348.60024456341364 L 301.5301530153015,350.473736691426 L 300.78007800780074,353.00077258502404 L 299.3799379937994,354.09001219433355 L 297.6297629762976,354.7871255442916 z" /><path fill-rule="evenodd" fill="#D2EBD9" stroke="#A6A6A6" stroke-width="0.25" opacity="1" d="M 285.77857785778576,185.9985556856909 L 286.9286928692869,186.95708654188326 L 290.77907790779074,188.8305786698956 L 292.07920792079204,190.18123578543938 L 293.8293829382938,190.70407079790795 L 295.87958795879587,188.08989573556514 L 297.979797979798,187.87204781370323 L 299.52995299529954,188.08989573556514 L 307.73077307730773,190.05052703232224 L 311.28112811281125,190.3990837073013 L 311.88118811881185,191.31404497912126 L 315.08150815081507,193.84108087271932 L 319.13191319131914,195.71457300073166 L 322.1322132213221,196.80381261004118 L 325.1325132513251,195.93242092259356 L 327.73277327732774,192.5339933415479 L 329.38293829382934,189.96338786357748 L 332.88328832883286,185.38858150447757 L 334.5334533453345,187.74133906058609 L 336.4836483648365,192.22900625094124 L 338.0838083808381,201.1172014629068 L 338.98389838983894,212.83741965907706 L 340.3340334033403,214.36235511211038 L 347.23472347234724,217.45579560254936 L 348.38483848384834,219.5471356524236 L 348.48484848484844,224.3833595177578 L 347.98479847984794,228.43533086438916 L 346.53465346534654,229.8731271486777 L 344.984498449845,231.74661927669004 L 345.1845184518452,235.1450468577357 L 344.2344234423442,238.71775277627088 L 342.5342534253425,241.1140799167518 L 342.2342234223422,242.42116744792318 L 340.4340434043404,242.68258495415748 L 336.3836383638364,244.03324206970126 L 328.68286828682864,249.47944011624878 L 320.58205820582054,254.8820685784239 L 316.5316531653165,257.27839571890485 L 314.58145814581457,258.1497874063524 L 311.6311631163116,250.7429580630478 L 310.28102810281024,249.00017468815258 L 307.93079307930793,249.34873136313163 L 301.9301930193019,248.3030613381945 L 296.9296929692969,246.03744295083075 L 295.57955795579556,244.25108999156316 L 292.87928792879285,241.15764950112415 L 289.62896289628964,239.24058778873945 L 283.3283328332833,243.42326788848794 L 280.978097809781,242.59544578541272 L 277.07770777077707,236.2778560514176 L 275.97759775977596,233.75082015781953 L 278.2778277827783,227.08467374884538 L 277.37773777377737,226.3439908145149 L 276.7276727672767,226.08257330828062 L 276.6276627662766,225.77758621767396 L 277.1277127712771,224.94976411459874 L 278.5278527852785,220.98493193671214 L 279.72797279727973,219.19857897744455 L 280.4780478047805,217.67364352441126 L 281.9281928192819,214.01379843713133 L 281.47814781478144,212.9681284121942 L 281.2281228122812,210.00539667487234 L 280.72807280728074,208.43689163746666 L 279.8779877987799,207.17337369066763 L 282.2282228222822,203.5135286033877 L 283.8283828382838,199.67940517861825 L 282.7282728272827,197.8059130506059 L 281.8281828182818,196.89095177878593 L 279.82798279827983,196.0631296757107 L 278.027802780278,194.23320713207073 L 277.57775777577757,191.83687999158983 L 279.0779077907791,188.87414825426796 L 281.17811781178114,187.56706072309657 L 282.2282228222822,187.39278238560706 L 285.17851785178516,186.4342515294147 L 285.77857785778576,185.9985556856909 z" /></g></g></g></svg>