<svg xmlns="http://www.w3.org/2000/svg" xmlns:xlink="http://www.w3.org/1999/xlink" width="500.0" height="298.0705395488767" viewBox="0.0 0.0 500.0 298.0705395488767" preserveAspectRatio="xMinYMin meet"><g transform="matrix(1,0,0,-1,0,298.0705395488767)"><g><g><g><path fill-rule="evenodd" fill="#D2EBD9" stroke="#A6A6A6" stroke-width="0.25" opacity="1" d="M 15.001500150015001,1.7886020975030104 L 13.85138513851385,1.2818315032104908 L 13.451345134513451,0.7750609089179712 L 13.501350135013501,0.23848027966706806 L 14.051405140514051,0.0 L 14.55145514551455,0.4471505243757526 L 15.001500150015001,1.7886020975030104 z" /><path fill-rule="evenodd" fill="#D2EBD9" stroke="#A6A6A6" stroke-width="0.25" opacity="1" d="M 64.5064506450645,2.1463225170036124 L 64.9064906490649,2.8021432860880497 L 64.75647564756476,3.070433600713501 L 64.5064506450645,2.8915733909632 L 64.5064506450645,2.1463225170036124 z" /><path fill-rule="evenodd" fill="#D2EBD9" stroke="#A6A6A6" stroke-width="0.25" opacity="1" d="M 353.4853485348535,216.98724446207356 L 353.6853685368537,216.45066383282264 L 354.035403540354,215.9737032734885 L 353.8853885388539,216.51028390273942 L 353.4853485348535,216.98724446207356 z" /><path fill-rule="evenodd" fill="#D2EBD9" stroke="#A6A6A6" stroke-width="0.25" opacity="1" d="M 14.3014301430143,20.002533457075334 L 11.9011901190119,21.01607464566037 L 12.15121512151215,19.764053177408265 L 12.45124512451245,19.316902653032514 L 12.95129512951295,18.988992268490293 L 12.95129512951295,18.601461814031307 L 11.9011901190119,18.988992268490293 L 11.6011601160116,18.601461814031307 L 11.25112511251125,18.988992268490293 L 9.350935093509351,17.975451079905255 L 8.000800080008,17.5283005555295 L 7.15071507150715,17.58792062544627 L 5.6005600560056,16.693619576694765 L 3.3003300330033003,16.57437943686123 L 1.15011501150115,17.200390170987284 L 0.0,18.601461814031307 L 1.3501350135013501,15.262737898692356 L 4.6004600460046,15.411788073484272 L 8.6008600860086,16.66380954173638 L 12.25122512251225,16.544569401902848 L 15.75157515751575,18.839942093698376 L 14.3014301430143,20.002533457075334 z" /><path fill-rule="evenodd" fill="#D2EBD9" stroke="#A6A6A6" stroke-width="0.25" opacity="1" d="M 3.8003800380038,20.33044384161755 L 4.4004400440044,20.509304051367852 L 5.5005500550055,20.360253876575936 L 6.150615061506151,20.717974296076537 L 6.95069506950695,20.270823771700783 L 8.55085508550855,20.032343492033718 L 10.1010101010101,20.241013736742403 L 10.9010901090109,21.01607464566037 L 5.35053505350535,21.582465309869658 L 3.4003400340034,20.926644540785222 L 3.4003400340034,20.717974296076537 L 3.7003700370037,20.688164261118153 L 3.8003800380038,20.33044384161755 z" /><path fill-rule="evenodd" fill="#D2EBD9" stroke="#A6A6A6" stroke-width="0.25" opacity="1" d="M 497.999799979998,128.54087074054968 L 499.7999799979998,131.5814943063048 L 500.0,132.684465599765 L 499.0999099909991,132.17769500547246 L 498.5998599859986,131.16415381688742 L 497.999799979998,128.54087074054968 z" /><path fill-rule="evenodd" fill="#D2EBD9" stroke="#A6A6A6" stroke-width="0.25" opacity="1" d="M 324.1324132413241,138.4676123816914 L 324.18241824182417,137.96084178739886 L 324.38243824382437,137.93103175244048 L 324.1324132413241,138.4676123816914 z" /><path fill-rule="evenodd" fill="#D2EBD9" stroke="#A6A6A6" stroke-width="0.25" opacity="1" d="M 455.1455145514551,195.3749691172455 L 454.99549954995496,194.8383884879946 L 454.99549954995496,194.6297182432859 L 455.09550955095506,194.8085784530362 L 455.1455145514551,195.3749691172455 z" /></g><g><path fill-rule="evenodd" fill="#D2EBD9" stroke="#A6A6A6" stroke-width="0.25" opacity="1" d="M 468.84688468846883,298.0705395488767 L 468.4968496849685,297.5637689545842 L 468.7968796879688,297.05699836029163 L 469.14691469146914,297.05699836029163 L 468.84688468846883,298.0705395488767 z" /><path fill-rule="evenodd" fill="#D2EBD9" stroke="#A6A6A6" stroke-width="0.25" opacity="1" d="M 449.044904490449,262.805268193109 L 449.4949494949495,263.78899934673564 L 449.044904490449,264.6534903605288 L 448.1448144814481,265.27950109465485 L 447.3447344734473,265.5477914092803 L 447.1447144714471,264.6236803255704 L 447.4447444744474,263.43127892723504 L 448.1448144814481,262.6264079833587 L 449.044904490449,262.805268193109 z" /><path fill-rule="evenodd" fill="#D2EBD9" stroke="#A6A6A6" stroke-width="0.25" opacity="1" d="M 477.3977397739774,270.9135977017893 L 476.997699769977,269.7808163733707 L 477.0977097709771,269.1846156742031 L 477.54775477547753,268.7374651498273 L 477.8977897789779,268.64803504495217 L 477.997799779978,269.06537553436954 L 478.64786478647864,269.5423360937037 L 477.997799779978,270.6453073871639 L 477.3977397739774,270.9135977017893 z" /><path fill-rule="evenodd" fill="#D2EBD9" stroke="#A6A6A6" stroke-width="0.25" opacity="1" d="M 479.24792479247924,271.897328855416 L 479.14791479147914,271.5992285058321 L 479.44794479447944,271.1520779814564 L 479.74797479747974,270.85397763187257 L 479.99799979998,270.9434077367477 L 479.94799479947994,271.33093819120666 L 479.24792479247924,271.897328855416 z" /><path fill-rule="evenodd" fill="#D2EBD9" stroke="#A6A6A6" stroke-width="0.25" opacity="1" d="M 479.0979097909791,273.59650084804383 L 479.2979297929793,272.9406800789594 L 479.4979497949795,272.9406800789594 L 479.2979297929793,273.59650084804383 L 479.0979097909791,273.59650084804383 z" /><path fill-rule="evenodd" fill="#D2EBD9" stroke="#A6A6A6" stroke-width="0.25" opacity="1" d="M 481.7481748174817,271.06264787658125 L 481.69816981698165,270.3770170725384 L 481.89818981898185,270.2875869676633 L 481.99819981998195,270.9135977017893 L 481.7481748174817,271.06264787658125 z" /><path fill-rule="evenodd" fill="#D2EBD9" stroke="#A6A6A6" stroke-width="0.25" opacity="1" d="M 482.7482748274827,258.90015361356075 L 482.39823982398235,258.7212934038105 L 482.39823982398235,258.5126231591018 L 482.69826982698265,258.2145228095179 L 483.2483248324832,258.2741428794347 L 482.99829982998295,258.84053354364397 L 482.7482748274827,258.90015361356075 z" /></g><path fill-rule="evenodd" fill="#D2EBD9" stroke="#A6A6A6" stroke-width="0.25" opacity="1" d="M 459.84598459845984,252.55061616742506 L 459.99599959996,252.99776669180082 L 460.54605460546054,253.44491721617658 L 460.6960696069607,253.9516878104691 L 460.0960096009601,254.72674871938707 L 459.84598459845984,254.60750857955352 L 459.94599459945994,254.24978816005293 L 458.8958895889589,254.96522899905415 L 458.6958695869587,254.60750857955352 L 458.2958295829583,254.54788850963678 L 458.3958395839584,253.9516878104691 L 459.34593459345933,252.58042620238345 L 459.84598459845984,252.55061616742506 z" /><path fill-rule="evenodd" fill="#D2EBD9" stroke="#A6A6A6" stroke-width="0.25" opacity="1" d="M 460.54605460546054,251.0601144195059 L 461.1961196119612,250.91106424471397 L 461.34613461346134,251.86498536338226 L 461.0961096109611,252.58042620238345 L 460.94609460946094,253.89206774055233 L 460.6960696069607,253.9516878104691 L 460.54605460546054,253.44491721617658 L 459.99599959996,252.99776669180082 L 459.84598459845984,252.55061616742506 L 460.04600460046004,252.22270578288285 L 459.94599459945994,251.80536529346548 L 460.54605460546054,251.0601144195059 z" /><path fill-rule="evenodd" fill="#D2EBD9" stroke="#A6A6A6" stroke-width="0.25" opacity="1" d="M 460.5960596059606,249.0628420772942 L 461.44614461446145,249.00322200737745 L 461.3961396139614,249.30132235696126 L 461.1961196119612,250.91106424471397 L 460.54605460546054,251.0601144195059 L 460.1960196019602,250.79182410488045 L 459.34593459345933,250.79182410488045 L 459.14591459145913,249.89752305612893 L 459.4959495949595,249.68885281142025 L 459.84598459845984,249.92733309108732 L 460.2960296029603,249.7782829162954 L 460.5960596059606,249.0628420772942 z" /><path fill-rule="evenodd" fill="#D2EBD9" stroke="#A6A6A6" stroke-width="0.25" opacity="1" d="M 462.19621962196214,249.36094242687804 L 461.3961396139614,249.30132235696126 L 461.44614461446145,249.00322200737745 L 460.5960596059606,249.0628420772942 L 461.14611461146114,248.07911092366754 L 461.8961896189619,247.69158046920856 L 462.79627962796275,247.69158046920856 L 462.6462646264626,248.40702130820978 L 462.29622962296224,248.7051216577936 L 462.19621962196214,249.36094242687804 z" /><path fill-rule="evenodd" fill="#D2EBD9" stroke="#A6A6A6" stroke-width="0.25" opacity="1" d="M 462.3462346234623,251.03030438454752 L 461.3961396139614,251.5966950487568 L 461.34613461346134,251.86498536338226 L 461.1961196119612,250.91106424471397 L 461.3961396139614,249.30132235696126 L 462.19621962196214,249.36094242687804 L 461.7961796179618,250.3446735805047 L 461.8961896189619,250.91106424471397 L 462.3462346234623,251.03030438454752 z" /><path fill-rule="evenodd" fill="#D2EBD9" stroke="#A6A6A6" stroke-width="0.25" opacity="1" d="M 462.2462246224622,253.4151071812182 L 461.14611461146114,253.80263763567717 L 460.94609460946094,253.89206774055233 L 461.0961096109611,252.58042620238345 L 461.34613461346134,251.86498536338226 L 461.3961396139614,251.5966950487568 L 462.3462346234623,251.03030438454752 L 462.19621962196214,252.16308571296608 L 461.996199619962,252.46118606254993 L 462.2462246224622,253.4151071812182 z" /><path fill-rule="evenodd" fill="#D2EBD9" stroke="#A6A6A6" stroke-width="0.25" opacity="1" d="M 462.3462346234623,253.86225770559395 L 461.24612461246124,253.98149784542747 L 461.14611461146114,253.80263763567717 L 462.2462246224622,253.4151071812182 L 462.3462346234623,253.86225770559395 z" /><path fill-rule="evenodd" fill="#D2EBD9" stroke="#A6A6A6" stroke-width="0.25" opacity="1" d="M 461.5961596159616,254.54788850963678 L 461.24612461246124,253.98149784542747 L 462.3462346234623,253.86225770559395 L 461.5961596159616,254.54788850963678 z" /><path fill-rule="evenodd" fill="#D2EBD9" stroke="#A6A6A6" stroke-width="0.25" opacity="1" d="M 460.54605460546054,255.29313938359635 L 460.3960396039604,254.93541896409576 L 460.0960096009601,254.72674871938707 L 460.6960696069607,253.9516878104691 L 460.94609460946094,253.89206774055233 L 461.14611461146114,253.80263763567717 L 461.24612461246124,253.98149784542747 L 461.5961596159616,254.54788850963678 L 460.54605460546054,255.29313938359635 z" /><path fill-rule="evenodd" fill="#D2EBD9" stroke="#A6A6A6" stroke-width="0.25" opacity="1" d="M 459.74597459745974,255.85953004780563 L 459.6959695969597,255.47199959334665 L 460.3960396039604,254.93541896409576 L 460.54605460546054,255.29313938359635 L 459.74597459745974,255.85953004780563 z" /><path fill-rule="evenodd" fill="#D2EBD9" stroke="#A6A6A6" stroke-width="0.25" opacity="1" d="M 459.54595459545953,256.0980103274727 L 459.1959195919592,255.50180962830504 L 458.8958895889589,254.96522899905415 L 459.94599459945994,254.24978816005293 L 459.84598459845984,254.60750857955352 L 459.64596459645963,255.11427917384606 L 459.6959695969597,255.47199959334665 L 459.74597459745974,255.85953004780563 L 459.54595459545953,256.0980103274727 z" /><g><path fill-rule="evenodd" fill="#D2EBD9" stroke="#A6A6A6" stroke-width="0.25" opacity="1" d="M 458.995899589959,256.57497088680685 L 458.995899589959,256.33649060713975 L 458.6958695869587,256.2470605022646 L 459.1959195919592,255.50180962830504 L 459.54595459545953,256.0980103274727 L 459.1959195919592,256.57497088680685 L 458.995899589959,256.57497088680685 z" /><path fill-rule="evenodd" fill="#D2EBD9" stroke="#A6A6A6" stroke-width="0.25" opacity="1" d="M 460.996099609961,256.3961106770565 L 460.64606460646064,256.4557307469733 L 460.54605460546054,256.12782036243107 L 461.24612461246124,255.85953004780563 L 461.14611461146114,256.36630064209817 L 460.996099609961,256.3961106770565 z" /><path fill-rule="evenodd" fill="#D2EBD9" stroke="#A6A6A6" stroke-width="0.25" opacity="1" d="M 461.14611461146114,256.78364113151554 L 461.1961196119612,256.54516085184844 L 461.4961496149615,256.36630064209817 L 461.5961596159616,256.4855407819317 L 461.14611461146114,256.78364113151554 z" /><path fill-rule="evenodd" fill="#D2EBD9" stroke="#A6A6A6" stroke-width="0.25" opacity="1" d="M 460.84608460846084,257.79718232010055 L 460.7960796079608,257.1115515160578 L 461.3961396139614,257.3798418306832 L 461.64616461646165,257.79718232010055 L 461.14611461146114,257.9164224599341 L 460.84608460846084,257.79718232010055 z" /></g><path fill-rule="evenodd" fill="#D2EBD9" stroke="#A6A6A6" stroke-width="0.25" opacity="1" d="M 458.8958895889589,256.93269130630745 L 458.3458345834583,256.8134511664739 L 457.6957695769577,256.33649060713975 L 458.045804580458,256.03839025755593 L 458.1958195819582,255.32294941855474 L 458.8958895889589,254.96522899905415 L 459.1959195919592,255.50180962830504 L 458.6958695869587,256.2470605022646 L 458.995899589959,256.33649060713975 L 458.995899589959,256.57497088680685 L 458.7958795879588,256.54516085184844 L 459.04590459045903,256.72402106159876 L 458.8958895889589,256.93269130630745 z" /><path fill-rule="evenodd" fill="#D2EBD9" stroke="#A6A6A6" stroke-width="0.25" opacity="1" d="M 458.94589458945893,257.9164224599341 L 458.6958695869587,257.9760425298509 L 457.995799579958,257.6183221103503 L 458.3958395839584,257.2009816209329 L 458.3458345834583,256.8134511664739 L 458.8958895889589,256.93269130630745 L 458.94589458945893,257.9164224599341 z" /><path fill-rule="evenodd" fill="#D2EBD9" stroke="#A6A6A6" stroke-width="0.25" opacity="1" d="M 459.14591459145913,259.25787403306134 L 458.8958895889589,259.0193937533943 L 458.2958295829583,259.10882385826943 L 457.995799579958,258.4828131241434 L 457.995799579958,257.6183221103503 L 458.6958695869587,257.9760425298509 L 458.94589458945893,257.9164224599341 L 459.2959295929593,258.6616733338937 L 459.14591459145913,259.25787403306134 z" /><path fill-rule="evenodd" fill="#D2EBD9" stroke="#A6A6A6" stroke-width="0.25" opacity="1" d="M 457.5957595759576,258.4828131241434 L 457.995799579958,258.4828131241434 L 458.2958295829583,259.10882385826943 L 458.8958895889589,259.0193937533943 L 459.14591459145913,259.25787403306134 L 458.6958695869587,259.7050245574371 L 457.6457645764576,259.7050245574371 L 457.5957595759576,258.4828131241434 z" /><path fill-rule="evenodd" fill="#D2EBD9" stroke="#A6A6A6" stroke-width="0.25" opacity="1" d="M 456.69566956695667,257.2009816209329 L 456.8456845684568,257.051931446141 L 457.2457245724572,257.2009816209329 L 457.5457545754575,256.664400991682 L 457.8957895789579,257.08174148109936 L 457.7457745774577,257.4096518656416 L 457.995799579958,257.6183221103503 L 457.995799579958,258.4828131241434 L 457.5957595759576,258.4828131241434 L 456.69566956695667,257.2009816209329 z" /><path fill-rule="evenodd" fill="#D2EBD9" stroke="#A6A6A6" stroke-width="0.25" opacity="1" d="M 454.99549954995496,256.4855407819317 L 456.39563956395637,255.7700999429305 L 456.9456945694569,256.0085802225976 L 456.8456845684568,256.3961106770565 L 457.5457545754575,256.664400991682 L 457.2457245724572,257.2009816209329 L 456.8456845684568,257.051931446141 L 456.69566956695667,257.2009816209329 L 455.39553955395536,256.8730712363907 L 454.99549954995496,256.4855407819317 z" /><g><path fill-rule="evenodd" fill="#D2EBD9" stroke="#A6A6A6" stroke-width="0.25" opacity="1" d="M 458.3958395839584,253.9516878104691 L 458.2958295829583,254.54788850963678 L 458.6958695869587,254.60750857955352 L 458.8958895889589,254.96522899905415 L 458.1958195819582,255.32294941855474 L 458.045804580458,256.03839025755593 L 457.6957695769577,256.33649060713975 L 457.5457545754575,256.664400991682 L 456.8456845684568,256.3961106770565 L 456.9456945694569,256.0085802225976 L 456.39563956395637,255.7700999429305 L 454.99549954995496,256.4855407819317 L 454.7454745474547,256.21725046730626 L 454.89548954895486,255.9489601526808 L 454.3454345434543,255.88934008276402 L 454.29542954295425,255.71047987301372 L 454.5454545454545,255.50180962830504 L 455.8455845584558,255.35275945351313 L 455.99559955995596,255.2037092787212 L 455.7455745574557,255.14408920880444 L 455.69556955695566,254.96522899905415 L 456.4456445644564,254.8161788242622 L 457.7457745774577,254.04111791534424 L 458.3958395839584,253.9516878104691 z" /><path fill-rule="evenodd" fill="#D2EBD9" stroke="#A6A6A6" stroke-width="0.25" opacity="1" d="M 454.1454145414541,254.87579889417898 L 454.09540954095405,254.6671286494703 L 454.6454645464546,254.45845840476161 L 454.69546954695466,254.54788850963678 L 454.1454145414541,254.87579889417898 z" /><path fill-rule="evenodd" fill="#D2EBD9" stroke="#A6A6A6" stroke-width="0.25" opacity="1" d="M 455.9455945594559,254.42864836980323 L 455.79557955795576,254.36902829988648 L 455.8455845584558,254.19016809013615 L 456.19561956195616,253.83244767063556 L 456.29562956295626,254.10073798526102 L 455.9455945594559,254.42864836980323 z" /></g><g><path fill-rule="evenodd" fill="#D2EBD9" stroke="#A6A6A6" stroke-width="0.25" opacity="1" d="M 469.99699969997,273.03011018383455 L 472.89728972897285,271.3011281562483 L 473.19731973197315,270.82416759691415 L 474.2474247424742,270.25777693270487 L 474.39743974397436,271.21169805137316 L 475.19751975197516,271.2415080863315 L 474.69746974697466,271.8377087854992 L 474.047404740474,271.92713889037435 L 473.5473547354735,271.71846864566567 L 473.19731973197315,272.1954292049998 L 471.79717971797174,272.6127696944172 L 471.0971097109711,273.23878042854324 L 469.99699969997,273.03011018383455 z" /><path fill-rule="evenodd" fill="#D2EBD9" stroke="#A6A6A6" stroke-width="0.25" opacity="1" d="M 471.44714471447145,273.74555102283574 L 471.89718971897184,273.3580205683768 L 472.49724972497245,273.1493503236681 L 472.4472447244724,273.59650084804383 L 472.89728972897285,273.59650084804383 L 472.99729972997295,273.8349811277109 L 471.59715971597154,273.92441123258607 L 471.44714471447145,273.74555102283574 z" /></g><g><path fill-rule="evenodd" fill="#D2EBD9" stroke="#A6A6A6" stroke-width="0.25" opacity="1" d="M 474.2474247424742,270.25777693270487 L 473.19731973197315,270.82416759691415 L 472.89728972897285,271.3011281562483 L 469.99699969997,273.03011018383455 L 469.74697469746974,272.9406800789594 L 470.0970097009701,271.8377087854992 L 470.44704470447044,271.4501783310402 L 471.7471747174717,271.27131812128994 L 471.99719971997195,270.6453073871639 L 472.49724972497245,270.16834682782974 L 473.19731973197315,269.8702464782459 L 473.79737973797376,269.8702464782459 L 474.2474247424742,270.25777693270487 z" /><path fill-rule="evenodd" fill="#D2EBD9" stroke="#A6A6A6" stroke-width="0.25" opacity="1" d="M 469.04690469046903,271.3607482261651 L 468.8968896889689,271.03283784162284 L 469.14691469146914,271.06264787658125 L 469.1969196919692,271.3011281562483 L 469.04690469046903,271.3607482261651 z" /><path fill-rule="evenodd" fill="#D2EBD9" stroke="#A6A6A6" stroke-width="0.25" opacity="1" d="M 468.24682468246823,270.4366371424552 L 468.04680468046803,270.31739700262165 L 468.44684468446843,270.10872675791296 L 468.34683468346833,270.34720703758 L 468.24682468246823,270.4366371424552 z" /><path fill-rule="evenodd" fill="#D2EBD9" stroke="#A6A6A6" stroke-width="0.25" opacity="1" d="M 469.1969196919692,277.2333251129666 L 468.8968896889689,277.2333251129666 L 468.84688468846883,277.0842749381747 L 469.44694469446944,276.99484483329957 L 469.64696469646964,277.1438950080915 L 469.3969396939694,277.20351507800825 L 469.1969196919692,277.2333251129666 z" /></g><path fill-rule="evenodd" fill="#D2EBD9" stroke="#A6A6A6" stroke-width="0.25" opacity="1" d="M 457.8957895789579,257.08174148109936 L 458.3458345834583,256.8134511664739 L 458.3958395839584,257.2009816209329 L 457.995799579958,257.6183221103503 L 457.7457745774577,257.4096518656416 L 457.8957895789579,257.08174148109936 z" /><path fill-rule="evenodd" fill="#D2EBD9" stroke="#A6A6A6" stroke-width="0.25" opacity="1" d="M 457.5457545754575,256.664400991682 L 457.6957695769577,256.33649060713975 L 458.3458345834583,256.8134511664739 L 457.8957895789579,257.08174148109936 L 457.5457545754575,256.664400991682 z" /><path fill-rule="evenodd" fill="#D2EBD9" stroke="#A6A6A6" stroke-width="0.25" opacity="1" d="M 459.84598459845984,254.60750857955352 L 460.0960096009601,254.72674871938707 L 460.3960396039604,254.93541896409576 L 459.6959695969597,255.47199959334665 L 459.64596459645963,255.11427917384606 L 459.84598459845984,254.60750857955352 z" /></g></g></g></svg>