<svg xmlns="http://www.w3.org/2000/svg" xmlns:xlink="http://www.w3.org/1999/xlink" width="500.0" height="246.24478858336806" viewBox="0.0 0.0 500.0 246.24478858336806" preserveAspectRatio="xMinYMin meet"><g transform="matrix(1,0,0,-1,0,246.24478858336806)"><g><g><path fill-rule="evenodd" fill="#D2EBD9" stroke="#A6A6A6" stroke-width="0.25" opacity="1" d="M 265.47654765476545,192.13939799254302 L 264.2264226422642,190.85879703181342 L 262.27622762276224,190.14461572679116 L 258.2258225822582,190.44013902542108 L 256.025602560256,191.2528280966533 L 254.87548754875485,192.8289523560128 L 255.2255225522552,194.6020921477922 L 258.57585758575857,200.04464623089297 L 260.02600260026003,200.80808141902023 L 260.22602260226023,201.57151660714746 L 260.0760076007601,202.1625632044073 L 259.3259325932593,202.95062533408702 L 259.2259225922592,203.24614863271694 L 258.025802580258,204.15734547015913 L 257.67576757675766,204.600630418104 L 257.7257725772577,205.1670500738113 L 258.4258425842584,206.1767546774635 L 258.57585758575857,206.7185473916183 L 258.025802580258,213.2446869030287 L 257.57575757575756,215.4857385843055 L 256.77567756775676,218.04694050576467 L 255.97559755975595,218.66261404457697 L 253.02530253025301,217.45589390850483 L 251.27512751275125,217.2835053176374 L 249.32493249324932,217.50514779160983 L 244.27442744274427,219.22903370028428 L 244.47444744474447,220.85441184274876 L 244.42444244424442,222.97232881626306 L 244.97449744974497,224.54845307562255 L 241.47414741474145,224.57308001717504 L 239.62396239623962,225.0656188482249 L 238.1238123812381,226.2477120427445 L 237.67376737673766,227.2081627632917 L 236.27362736273625,231.49325059342533 L 234.67346734673467,238.31491340346562 L 233.57335733573356,241.04850391579222 L 231.5231523152315,242.4276126427318 L 230.87308730873087,243.11716700620156 L 229.37293729372936,245.75224975231822 L 228.17281728172816,246.24478858336806 L 227.67276727672765,246.02314610939564 L 227.3227322732273,245.35821868747834 L 219.07190719071906,236.36938502081875 L 217.8217821782178,235.85221924821641 L 216.9216921692169,235.70445759890146 L 214.17141714171416,235.72908454045395 L 212.5212521252125,235.38430735871907 L 211.07110711071107,234.6701260536968 L 209.77097709770976,233.4387789760722 L 208.6208620862086,231.5178775349778 L 207.17071707170717,227.13428193863422 L 207.6207620762076,226.5924892244794 L 207.8207820782078,225.9521887441146 L 207.57075707570755,225.0409919066724 L 207.2207220722072,224.7454686080425 L 205.87058705870587,224.671587783385 L 205.020502050205,220.36187301169892 L 204.37043704370436,219.27828758338927 L 201.67016701670167,218.1947021550796 L 199.46994699469946,217.75141720713475 L 198.56985698569855,217.80067109023975 L 197.7197719771977,218.2439560381846 L 195.96959695969596,219.52455699891416 L 195.16951695169516,219.79545335599158 L 193.26932693269325,219.35216840804674 L 189.86898689868985,217.35738614229487 L 187.66876687668767,217.18499755142744 L 185.9185918591859,217.50514779160983 L 185.4185418541854,219.03201816786435 L 185.8185818581858,223.4648676473129 L 185.16851685168515,227.28204358794918 L 185.06850685068505,229.22757197059605 L 185.8185818581858,231.49325059342533 L 183.26832683268327,233.04474791123232 L 174.6174617461746,233.85743698246455 L 171.017101710171,233.7589292162546 L 169.36693669366935,233.14325567744228 L 165.76657665766575,229.81861856785585 L 163.31633163316332,229.6708569185409 L 160.76607660766075,230.45891904822065 L 157.86578657865786,231.91190859981768 L 157.26572657265726,232.03504330758014 L 156.66566656665665,231.91190859981768 L 154.16541654165417,230.5820537559831 L 150.26502650265024,231.14847341169042 L 148.46484648464846,229.9910071587233 L 148.014801480148,228.88279478886116 L 147.8147814781478,226.37084675050696 L 147.36473647364735,225.18875355598735 L 146.6146614661466,224.44994530941258 L 143.76437643764376,222.8984479916056 L 140.01400140014002,218.2932099212896 L 138.06380638063806,217.01260896056 L 135.46354635463547,217.5790286162673 L 135.26352635263527,211.17602381261938 L 133.2133213321332,209.5506456701549 L 133.6133613361336,208.9595990728951 L 135.16351635163517,208.44243330029275 L 135.36353635363537,206.62003962540834 L 140.8140814081408,197.58195207564376 L 141.1141114111411,196.79388994596403 L 140.9140914091409,196.07970864094173 L 141.56415641564155,194.35582273226728 L 143.26432643264326,191.37596280441576 L 145.86458645864585,189.50431524642636 L 146.8146814681468,189.20879194779647 L 147.86478647864786,188.1990873441443 L 149.06490649064907,187.68192157154195 L 151.16511651165115,186.25355896149742 L 151.86518651865185,185.24385435784524 L 152.1152115211521,184.57892693592794 L 152.26522652265226,182.2639944299937 L 153.36533653365336,180.58936240442424 L 150.96509650965095,178.10204130762253 L 150.66506650665065,177.60950247657271 L 150.76507650765075,177.3386061194953 L 151.26512651265125,177.3139791779428 L 152.7152715271527,176.79681340534046 L 153.26532653265326,176.18113986652816 L 153.71537153715371,175.29456997063843 L 154.46544654465447,174.65426949027366 L 154.31543154315432,173.66919182817398 L 154.36543654365437,172.6594872245218 L 154.11541154115412,171.9945598026045 L 154.36543654365437,169.95052365374767 L 154.16541654165417,169.1870884656204 L 152.56525652565256,166.62588654416123 L 151.56515651565155,165.41916640808913 L 150.7150715071507,164.75423898617186 L 148.1148114811481,163.9908037980446 L 147.56475647564756,163.6460266163097 L 147.014701470147,163.15348778525987 L 146.2146214621462,161.7251251752153 L 145.36453645364534,160.88780916243059 L 142.76427642764276,159.3609387861761 L 143.26432643264326,158.30198029941894 L 144.014401440144,157.7355606437116 L 147.16471647164715,156.94749851403188 L 147.8147814781478,157.0952601633468 L 150.16501650165014,158.47436889028637 L 150.76507650765075,159.04078854599368 L 151.3151315131513,160.17362785740832 L 152.4152415241524,161.40497493503293 L 152.66526652665266,161.40497493503293 L 152.86528652865286,161.207959402613 L 153.56535653565356,159.87810455877843 L 154.41544154415442,159.85347761722593 L 157.26572657265726,160.69079363001066 L 160.9160916091609,159.75496985101597 L 162.6162616261626,159.58258126014852 L 163.41634163416342,159.04078854599368 L 165.16651665166515,156.75048298161192 L 163.86638663866387,155.44525507932985 L 163.56635663566357,154.50943130033517 L 163.16631663166316,153.84450387841787 L 163.76637663766377,150.6183745350414 L 163.41634163416342,148.94374250947195 L 163.56635663566357,147.93403790581976 L 163.41634163416342,145.692986224543 L 164.01640164016402,144.7571624455483 L 165.96659665966595,142.93476877066388 L 167.96679667966797,142.0481988747742 L 169.36693669366935,140.69371708938712 L 170.1170117011701,140.20117825833728 L 169.9169916991699,139.04371200537014 L 170.16701670167015,138.10788822637545 L 171.06710671067106,136.53176396701596 L 174.36743674367435,132.3451839030923 L 174.56745674567455,131.0645829423627 L 178.31783178317832,133.72429263003187 L 179.4179417941794,134.06906981176675 L 180.36803680368035,132.24667613688234 L 181.86818681868186,131.87727201359496 L 189.3189318931893,131.4339870656501 L 190.5190519051905,133.65041180537438 L 191.06910691069106,136.6795256163309 L 191.019101910191,137.12281056427577 L 189.7189718971897,138.35415764190037 L 189.2189218921892,139.31460836244756 L 189.1189118911891,139.90565495970736 L 189.2189218921892,140.29968602454724 L 189.8189818981898,141.13700203733197 L 189.9189918991899,141.6787947514868 L 189.36893689368935,144.56014691312836 L 189.5189518951895,144.88029715331075 L 190.96909690969096,145.6191053998855 L 191.4191419141914,146.0623903478304 L 192.66926692669267,148.74672697705202 L 196.86968696869687,148.5004575615271 L 212.07120712071205,150.59374759348893 L 212.3212321232123,149.87956628846663 L 212.97129712971295,149.28851969120683 L 213.3213321332133,147.24448354235 L 213.3213321332133,146.9243333021676 L 212.77127712771275,146.75194471130015 L 212.47124712471245,146.0377634062779 L 212.9212921292129,145.93925564006793 L 216.47164716471647,146.48104835422274 L 216.97169716971695,146.6534369450902 L 217.6217621762176,147.2198566007975 L 218.07180718071805,149.0422502756819 L 219.021902190219,150.298224294859 L 220.87208720872087,151.35718278161616 L 223.8223822382238,155.001970131385 L 238.5238523852385,157.51391816973918 L 245.22452245224522,156.67660215695446 L 250.8250825082508,154.58331212499263 L 251.97519751975196,153.52435363823548 L 253.52535253525352,152.95793398252815 L 254.77547754775478,151.82509467111353 L 255.1255125512551,151.849721612666 L 256.17561756175616,152.4407682099258 L 260.1760176017602,153.59823446289295 L 261.02610261026103,153.59823446289295 L 263.47634763476344,152.90868009942318 L 271.87718771877184,152.71166456700323 L 273.17731773177314,152.88405315787068 L 274.67746774677465,153.64748834599794 L 275.17751775177516,153.64748834599794 L 275.5275527552755,153.59823446289295 L 276.67766776677666,152.73629150855572 L 279.6779677967797,154.0661463523903 L 281.57815781578154,155.81465920261724 L 281.77817781778174,156.35645191677204 L 281.57815781578154,156.65197521540196 L 280.62806280628064,156.8489907478219 L 279.8779877987799,157.29227569576676 L 279.52795279527953,158.17884559165648 L 278.7778777877788,161.30646716882296 L 277.77777777777777,162.3654256555801 L 274.8274827482748,166.30573630397885 L 274.7274727472747,166.87215595968615 L 274.8274827482748,167.19230619986857 L 276.2276227622762,167.21693314142107 L 277.17771777177717,167.6848450309184 L 277.7277727772777,167.73409891402338 L 278.0778077807781,168.0788760957583 L 278.3278327832783,170.59082413411247 L 278.7278727872787,172.51172557520684 L 278.8778877887789,175.122181379771 L 279.42794279427943,179.06249202816974 L 279.3779377937794,180.0968235733744 L 279.12791279127913,180.66324322908173 L 278.6278627862786,180.63861628752923 L 276.97769776977697,179.92443498250697 L 274.9274927492749,179.60428474232455 L 273.8273827382738,180.86025876150165 L 273.37733773377335,180.51548157976677 L 273.1273127312731,180.61398934597673 L 271.77717771777174,183.1751912674359 L 271.2771277127713,183.61847621538075 L 270.72707270727074,183.7416109231432 L 270.0770077007701,183.66773009848575 L 269.72697269726973,183.47071456606582 L 269.2769276927693,182.879667968806 L 269.026902690269,182.80578714414852 L 268.7268726872687,183.00280267656845 L 268.3268326832683,183.7416109231432 L 268.17681768176817,186.25355896149742 L 267.87678767876787,187.5095329806745 L 267.4267426742674,188.56849146743167 L 265.57655765576555,191.72073998615065 L 265.47654765476545,192.13939799254302 z" /><path fill-rule="evenodd" fill="#D2EBD9" stroke="#A6A6A6" stroke-width="0.25" opacity="1" d="M 485.19851985198517,146.2840328218028 L 485.8485848584858,147.24448354235 L 487.94879487948793,149.0176233341294 L 488.7988798879888,150.22434347020155 L 489.04890489048904,153.4258458720255 L 490.14901490149015,155.79003226106474 L 492.049204920492,161.40497493503293 L 493.59935993599356,162.61169507110503 L 496.94969496949693,163.10423390215487 L 498.2998299829983,164.2863270966745 L 498.2998299829983,166.52737877795127 L 498.6998699869987,169.63037341356528 L 499.34993499349935,172.6841141660743 L 500.0,174.90053890579858 L 496.94969496949693,176.40278234050058 L 490.0990099009901,176.6983056391305 L 486.8486848684868,177.68338330123018 L 482.4482448244824,182.16548666378372 L 480.54805480548055,182.9042949103585 L 475.69756975697567,182.73190631949106 L 471.59715971597154,183.98788033866813 L 470.94709470947095,184.55429999437547 L 470.74707470747074,185.3916160071602 L 470.997099709971,186.25355896149742 L 470.94709470947095,187.2140096820446 L 469.99699969997,188.27296816880175 L 469.2969296929693,188.4207298181167 L 467.1467146714671,188.1498334610393 L 466.29662966296627,188.2237142856968 L 465.29652965296526,188.66699923364163 L 462.39623962396234,190.51401985007854 L 456.19561956195616,191.69611304459815 L 453.69536953695365,193.51850671948256 L 453.1453145314531,197.80359454961618 L 452.04520452045205,202.55659426924714 L 449.4949494949495,206.64466656696084 L 446.3446344634463,209.6245264948124 L 441.5941594159416,212.0133398254041 L 438.39383938393837,214.96857281170315 L 436.79367936793676,215.90439659069784 L 434.99349934993495,215.55961940896296 L 433.49334933493344,214.1805106820234 L 432.24322432243224,212.70289418887387 L 431.34313431343134,212.08722065006157 L 429.99299929993,213.1708060783712 L 427.042704270427,217.72679026558225 L 425.5425542554255,219.25366064183677 L 424.69246924692465,219.52455699891416 L 423.34233423342334,219.20440675873178 L 422.64226422642264,219.30291452494174 L 421.7921792179218,219.91858806375404 L 420.1420142014201,221.51933926466603 L 419.2419241924192,222.11038586192583 L 417.59175917591756,222.5536708098707 L 411.34113411341133,221.83948950484844 L 408.39083908390836,220.6327693687763 L 407.09070907090705,221.0268004336162 L 403.84038403840384,220.31261912859392 L 402.3902390239024,220.28799218704143 L 393.83938393839384,222.72605940073814 L 388.9388938893889,225.3365152053023 L 387.68876887688765,225.63203850393222 L 386.1386138613861,224.54845307562255 L 383.3883388338834,220.46038077790888 L 381.8881888188819,219.05664510941682 L 379.98799879987996,218.73649486923443 L 378.6378637863786,219.67231864822912 L 377.38773877387735,221.05142737516869 L 375.7875787578758,222.15963974503083 L 374.43744374437443,222.2827744527933 L 370.88708870887086,221.56859314777103 L 369.5369536953695,220.92829266740623 L 367.7367736773677,218.93351040165436 L 368.8368836883688,217.70216332402975 L 370.8370837083708,216.47081624640515 L 371.9371937193719,214.42678009754832 L 371.18711871187116,213.1954330199237 L 369.58695869586955,212.87528277974133 L 367.7367736773677,212.85065583818883 L 366.33663366336634,212.55513253955894 L 364.53645364536453,210.7819927477795 L 361.68616861686166,206.57078574230334 L 359.78597859785975,204.9207806582864 L 357.7357735773577,204.18197241171163 L 356.0856085608561,204.502122651894 L 354.6854685468547,205.5364541970987 L 353.2353235323532,207.03869763180072 L 351.58515851585156,208.24541776787282 L 350.2350235023502,208.46706024184525 L 348.7348734873487,208.36855247563528 L 346.73467346734674,208.66407577426517 L 345.3845384538454,209.69840731946985 L 337.5837583758376,219.03201816786435 L 336.1836183618362,219.27828758338927 L 332.88328832883286,218.73649486923443 L 330.98309830983095,219.03201816786435 L 330.18301830183015,218.98276428475936 L 329.28292829282924,218.46559851215702 L 327.8827882788279,216.71708566193007 L 326.8826882688269,215.78126188293538 L 324.78247824782477,215.04245363636062 L 322.88228822882286,215.51036552585796 L 315.4315431543154,219.30291452494174 L 314.08140814081406,218.98276428475936 L 314.08140814081406,216.6678317788251 L 309.5809580958096,216.49544318795765 L 305.98059805980597,217.8499249733447 L 304.9304930493049,217.82529803179222 L 304.030403040304,217.16037060987495 L 303.68036803680366,216.32305459709022 L 303.08030803080305,213.1708060783712 L 302.4302430243024,211.29915852038184 L 301.98019801980195,210.68348498156953 L 295.2295229522952,210.09243838430973 L 293.87938793879385,209.35363013773497 L 291.1291129112911,206.25063550212096 L 289.1789178917892,206.47227797609338 L 288.978897889789,206.6939204500658 L 288.4788478847885,206.02899302814853 L 286.77867786778677,202.23644402906476 L 285.67856785678566,199.15807633500324 L 284.57845784578456,197.82822149116868 L 284.07840784078405,193.1244756546427 L 283.17831783178315,189.77521160350378 L 281.47814781478144,188.4453567596692 L 278.5778577857786,189.87371936971374 L 274.027402740274,194.13418025829486 L 271.57715771577153,195.41478121902446 L 268.7768776877688,195.09463097884205 L 267.17671767176716,193.91253778432244 L 265.47654765476545,192.13939799254302 L 265.57655765576555,191.72073998615065 L 267.4267426742674,188.56849146743167 L 267.87678767876787,187.5095329806745 L 268.17681768176817,186.25355896149742 L 268.3268326832683,183.7416109231432 L 268.7268726872687,183.00280267656845 L 269.026902690269,182.80578714414852 L 269.2769276927693,182.879667968806 L 269.72697269726973,183.47071456606582 L 270.0770077007701,183.66773009848575 L 270.72707270727074,183.7416109231432 L 271.2771277127713,183.61847621538075 L 271.77717771777174,183.1751912674359 L 273.1273127312731,180.61398934597673 L 273.37733773377335,180.51548157976677 L 273.8273827382738,180.86025876150165 L 274.9274927492749,179.60428474232455 L 276.97769776977697,179.92443498250697 L 278.6278627862786,180.63861628752923 L 279.12791279127913,180.66324322908173 L 279.3779377937794,180.0968235733744 L 279.42794279427943,179.06249202816974 L 278.8778877887789,175.122181379771 L 278.7278727872787,172.51172557520684 L 278.3278327832783,170.59082413411247 L 278.0778077807781,168.0788760957583 L 277.7277727772777,167.73409891402338 L 277.17771777177717,167.6848450309184 L 276.2276227622762,167.21693314142107 L 274.8274827482748,167.19230619986857 L 274.7274727472747,166.87215595968615 L 274.8274827482748,166.30573630397885 L 277.77777777777777,162.3654256555801 L 278.7778777877788,161.30646716882296 L 279.52795279527953,158.17884559165648 L 279.8779877987799,157.29227569576676 L 280.62806280628064,156.8489907478219 L 281.57815781578154,156.65197521540196 L 281.77817781778174,156.35645191677204 L 281.57815781578154,155.81465920261724 L 279.6779677967797,154.0661463523903 L 276.67766776677666,152.73629150855572 L 289.32893289328933,151.16016724919623 L 291.029102910291,151.2833019569587 L 292.37923792379235,152.4900220930308 L 292.9292929292929,152.4900220930308 L 294.57945794579456,151.65270608024608 L 296.27962796279627,151.08628642453877 L 300.98009800980094,148.22956120444968 L 302.28022802280225,149.46090828207429 L 303.28032803280325,152.04673714508596 L 303.88038803880386,152.93330704097565 L 304.38043804380436,153.450472813578 L 306.980698069807,155.12510483914747 L 305.7305730573057,156.75048298161192 L 303.5303530353035,157.29227569576676 L 303.28032803280325,157.56317205284418 L 303.3303330333033,157.85869535147407 L 304.38043804380436,158.81914607202125 L 305.9305930593059,160.83855527932562 L 307.0807080708071,161.62661740900535 L 310.9310931093109,163.3258763761273 L 311.78117811781175,163.9908037980446 L 312.18121812181215,163.89229603183463 L 312.88128812881286,164.16319238891205 L 314.2314231423142,165.49304723274662 L 314.6314631463146,165.66543582361405 L 315.1315131513151,165.2221508756692 L 315.7815781578158,165.07438922635424 L 317.7817781778178,163.71990744096718 L 319.13191319131914,161.7497521167678 L 319.6319631963196,161.25721328571797 L 319.03190319031904,162.21766400626515 L 318.8818881888189,163.3751302592323 L 321.5321532153215,164.40946180443697 L 321.032103210321,165.46842029119412 L 321.1321132113211,165.88707829758647 L 322.08220822082205,167.0445445505536 L 322.48224822482246,167.16767925831607 L 322.9322932293229,166.99529066744861 L 323.032303230323,166.62588654416123 L 322.8322832283228,165.69006276516654 L 322.98229822982296,165.29603170032667 L 323.48234823482346,164.85274675238182 L 325.7825782578258,163.0549800190499 L 327.8827882788279,161.7990059998728 L 329.7329732973297,161.60199046745288 L 330.88308830883085,161.207959402613 L 332.1332133213321,159.09004242909867 L 332.68326832683266,158.84377301357375 L 334.7834783478348,158.89302689667875 L 336.0836083608361,159.53332737704352 L 336.83368336833684,160.37064338982827 L 336.4836483648365,161.28184022727046 L 336.5836583658366,161.65124435055785 L 337.53375337533754,162.02064847384523 L 339.1339133913391,162.1191562400552 L 344.6344634463446,161.1833324610605 L 344.9344934493449,161.30646716882296 L 345.0845084508451,161.55273658434788 L 344.2344234423442,162.31617177247514 L 344.4344434443444,164.13856544735955 L 344.1344134413441,164.85274675238182 L 344.2344234423442,165.2221508756692 L 344.4844484448445,165.29603170032667 L 345.43454345434543,165.04976228480174 L 347.53475347534754,164.11393850580706 L 348.9348934893489,163.79378826562467 L 349.38493849384935,163.52289190854725 L 349.4349434943494,163.25199555146983 L 349.08490849084905,162.85796448662995 L 349.1349134913491,162.53781424644757 L 349.38493849384935,162.19303706471268 L 350.38503850385035,161.7251251752153 L 351.38513851385136,161.52810964279539 L 354.1354135413541,162.1437831816077 L 355.8855885588559,160.6169128053532 L 357.7357735773577,160.32138950672328 L 360.18601860186016,158.6960113642588 L 360.58605860586056,158.62213053960133 L 360.78607860786076,158.94228077978372 L 361.58615861586156,159.3116849030711 L 363.2863286328633,159.43481961083356 L 363.6363636363636,159.23780407841363 L 363.8863886388639,158.54824971494384 L 363.8863886388639,157.51391816973918 L 364.0864086408641,156.89824463092688 L 364.4864486448645,156.30719803366708 L 365.93659365936594,154.90346236517502 L 366.4866486648665,153.57360752134045 L 367.3367336733673,152.4653951514783 L 367.6367636763676,152.34226044371584 L 369.4369436943694,152.63778374234576 L 372.7872787278728,151.52957137248362 L 374.4874487448745,151.3079288985112 L 374.8874887488749,151.3079288985112 L 376.48764876487644,151.82509467111353 L 376.9376937693769,151.80046772956103 L 378.28782878287825,150.98777865832878 L 379.38793879387936,149.58404298983675 L 380.18801880188016,148.86986168481448 L 380.68806880688066,148.64821921084206 L 382.4882488248825,149.0176233341294 L 383.73837383738373,148.5250845030796 L 384.5884588458846,148.5004575615271 L 386.2386238623862,147.63851460718988 L 387.5387538753875,147.8601570811623 L 387.8387838783878,146.80119859440515 L 386.3386338633863,144.95417797796824 L 386.08860886088604,144.36313138070844 L 386.1386138613861,143.7720847834486 L 387.08870887088705,142.22058746564161 L 388.68886888688866,140.7675979140446 L 389.6389638963896,140.27505908299474 L 390.7390739073907,140.15192437523228 L 392.1392139213921,140.3735668492047 L 392.1892189218922,140.61983626472963 L 391.6391639163916,141.11237509577947 L 391.4391439143914,141.5802869852768 L 391.4891489148915,142.14670664098415 L 391.8391839183918,142.639245472034 L 392.63926392639263,142.86088794600641 L 393.8893889388939,142.86088794600641 L 395.33953395339535,143.35342677705626 L 396.7396739673967,143.50118842637121 L 397.6397639763976,144.04298114052602 L 398.1398139813981,145.56985151678055 L 398.38983898389836,147.293737425455 L 398.2398239823982,148.03254567202976 L 397.9397939793979,148.57433838618456 L 398.38983898389836,149.0422502756819 L 399.18991899189916,149.31314663275933 L 399.9399939993999,149.21463886654936 L 400.8900890089009,148.27881508755468 L 401.1401140114011,148.20493426289718 L 401.4901490149015,150.0273279377816 L 401.8401840184018,150.2735973533065 L 401.990199019902,149.60866993138924 L 402.5902590259026,148.69747309394702 L 403.74037403740374,148.13105343823972 L 404.3904390439044,148.03254567202976 L 405.09050905090504,148.20493426289718 L 406.99069906990695,149.33777357431183 L 407.99079907990796,146.77657165285265 L 408.19081908190816,144.7817893871008 L 408.49084908490846,143.94447337431606 L 411.94119411941193,137.68923021998307 L 417.4417441744174,135.49743242181128 L 419.7419741974197,135.1034013569714 L 421.992199219922,135.1034013569714 L 422.5922592259226,134.832504999894 L 424.2424242424242,133.6011579222694 L 425.2425242524252,133.281007682087 L 426.042604260426,133.20712685742953 L 427.2427242724272,133.50265015605942 L 427.8427842784278,133.8966812208993 L 428.19281928192817,134.73399723368402 L 428.7428742874287,135.00489359076144 L 430.74307430743073,135.39892465560132 L 432.1932193219322,136.7041525578834 L 433.89338933893384,137.24594527203823 L 434.69346934693465,137.9601265770605 L 435.1435143514351,139.2407275377901 L 434.99349934993495,140.27505908299474 L 434.3434343434343,141.85118334235423 L 434.39343934393435,143.03327653687384 L 433.9433943394339,144.68328162089082 L 433.89338933893384,146.94896024372008 L 433.69336933693364,147.8355301396098 L 433.79337933793374,151.20942113230123 L 437.09370937093706,151.13554030764374 L 445.59455945594556,148.35269591221214 L 447.29472947294727,147.46612601632242 L 447.49474947494747,147.24448354235 L 447.4447444744474,147.04746800993007 L 447.99479947994797,146.55492917888023 L 451.995199519952,144.141488906736 L 453.8453845384538,143.67357701723864 L 455.49554955495546,143.62432313413368 L 458.0958095809581,144.04298114052602 L 463.1463146314631,144.16611584828848 L 463.6463646364636,144.36313138070844 L 463.79637963796375,144.7817893871008 L 463.49634963496345,146.6780638866427 L 463.046304630463,148.22956120444968 L 463.09630963096305,148.82060780170949 L 463.6463646364636,149.4362813405218 L 465.49654965496546,150.22434347020155 L 468.7968796879688,154.7310737743076 L 471.14711471147115,154.7557007158601 L 472.69726972697265,153.86913081997037 L 472.9472947294729,153.35196504736803 L 473.2473247324732,151.70195996335107 L 474.59745974597456,148.5004575615271 L 474.7474747474747,146.94896024372008 L 475.047504750475,146.6534369450902 L 475.49754975497547,146.48104835422274 L 478.3978397839784,146.6534369450902 L 481.09810981098104,147.34299130855996 L 485.19851985198517,146.2840328218028 z" /><path fill-rule="evenodd" fill="#D2EBD9" stroke="#A6A6A6" stroke-width="0.25" opacity="1" d="M 485.19851985198517,146.2840328218028 L 481.09810981098104,147.34299130855996 L 478.3978397839784,146.6534369450902 L 475.49754975497547,146.48104835422274 L 475.047504750475,146.6534369450902 L 474.7474747474747,146.94896024372008 L 474.59745974597456,148.5004575615271 L 473.2473247324732,151.70195996335107 L 472.9472947294729,153.35196504736803 L 472.69726972697265,153.86913081997037 L 471.14711471147115,154.7557007158601 L 468.7968796879688,154.7310737743076 L 465.49654965496546,150.22434347020155 L 463.6463646364636,149.4362813405218 L 463.09630963096305,148.82060780170949 L 463.046304630463,148.22956120444968 L 463.49634963496345,146.6780638866427 L 463.79637963796375,144.7817893871008 L 463.6463646364636,144.36313138070844 L 463.1463146314631,144.16611584828848 L 458.0958095809581,144.04298114052602 L 455.49554955495546,143.62432313413368 L 453.8453845384538,143.67357701723864 L 451.995199519952,144.141488906736 L 447.99479947994797,146.55492917888023 L 447.4447444744474,147.04746800993007 L 447.49474947494747,147.24448354235 L 447.29472947294727,147.46612601632242 L 445.59455945594556,148.35269591221214 L 437.09370937093706,151.13554030764374 L 433.79337933793374,151.20942113230123 L 433.69336933693364,147.8355301396098 L 433.89338933893384,146.94896024372008 L 433.9433943394339,144.68328162089082 L 434.39343934393435,143.03327653687384 L 434.3434343434343,141.85118334235423 L 434.99349934993495,140.27505908299474 L 435.1435143514351,139.2407275377901 L 434.69346934693465,137.9601265770605 L 433.89338933893384,137.24594527203823 L 432.1932193219322,136.7041525578834 L 430.74307430743073,135.39892465560132 L 428.7428742874287,135.00489359076144 L 428.19281928192817,134.73399723368402 L 427.8427842784278,133.8966812208993 L 427.2427242724272,133.50265015605942 L 426.042604260426,133.20712685742953 L 425.2425242524252,133.281007682087 L 424.2424242424242,133.6011579222694 L 422.5922592259226,134.832504999894 L 421.992199219922,135.1034013569714 L 419.7419741974197,135.1034013569714 L 417.4417441744174,135.49743242181128 L 411.94119411941193,137.68923021998307 L 408.49084908490846,143.94447337431606 L 408.19081908190816,144.7817893871008 L 407.99079907990796,146.77657165285265 L 406.99069906990695,149.33777357431183 L 405.09050905090504,148.20493426289718 L 404.3904390439044,148.03254567202976 L 403.74037403740374,148.13105343823972 L 402.5902590259026,148.69747309394702 L 401.990199019902,149.60866993138924 L 401.8401840184018,150.2735973533065 L 401.4901490149015,150.0273279377816 L 401.1401140114011,148.20493426289718 L 400.8900890089009,148.27881508755468 L 399.9399939993999,149.21463886654936 L 399.18991899189916,149.31314663275933 L 398.38983898389836,149.0422502756819 L 397.9397939793979,148.57433838618456 L 398.2398239823982,148.03254567202976 L 398.38983898389836,147.293737425455 L 398.1398139813981,145.56985151678055 L 397.6397639763976,144.04298114052602 L 396.7396739673967,143.50118842637121 L 395.33953395339535,143.35342677705626 L 393.8893889388939,142.86088794600641 L 392.63926392639263,142.86088794600641 L 391.8391839183918,142.639245472034 L 391.4891489148915,142.14670664098415 L 391.4391439143914,141.5802869852768 L 391.6391639163916,141.11237509577947 L 392.1892189218922,140.61983626472963 L 392.1392139213921,140.3735668492047 L 390.7390739073907,140.15192437523228 L 389.6389638963896,140.27505908299474 L 388.68886888688866,140.7675979140446 L 387.08870887088705,142.22058746564161 L 386.1386138613861,143.7720847834486 L 386.08860886088604,144.36313138070844 L 386.3386338633863,144.95417797796824 L 387.8387838783878,146.80119859440515 L 387.5387538753875,147.8601570811623 L 386.2386238623862,147.63851460718988 L 384.5884588458846,148.5004575615271 L 383.73837383738373,148.5250845030796 L 382.4882488248825,149.0176233341294 L 380.68806880688066,148.64821921084206 L 380.18801880188016,148.86986168481448 L 379.38793879387936,149.58404298983675 L 378.28782878287825,150.98777865832878 L 376.9376937693769,151.80046772956103 L 376.48764876487644,151.82509467111353 L 374.8874887488749,151.3079288985112 L 374.4874487448745,151.3079288985112 L 372.7872787278728,151.52957137248362 L 369.4369436943694,152.63778374234576 L 367.6367636763676,152.34226044371584 L 367.3367336733673,152.4653951514783 L 366.4866486648665,153.57360752134045 L 365.93659365936594,154.90346236517502 L 364.4864486448645,156.30719803366708 L 364.0864086408641,156.89824463092688 L 363.8863886388639,157.51391816973918 L 363.8863886388639,158.54824971494384 L 363.6363636363636,159.23780407841363 L 363.2863286328633,159.43481961083356 L 361.58615861586156,159.3116849030711 L 360.78607860786076,158.94228077978372 L 360.58605860586056,158.62213053960133 L 360.18601860186016,158.6960113642588 L 357.7357735773577,160.32138950672328 L 355.8855885588559,160.6169128053532 L 354.1354135413541,162.1437831816077 L 351.38513851385136,161.52810964279539 L 350.38503850385035,161.7251251752153 L 349.38493849384935,162.19303706471268 L 349.1349134913491,162.53781424644757 L 349.08490849084905,162.85796448662995 L 349.4349434943494,163.25199555146983 L 349.38493849384935,163.52289190854725 L 348.9348934893489,163.79378826562467 L 347.53475347534754,164.11393850580706 L 345.43454345434543,165.04976228480174 L 344.4844484448445,165.29603170032667 L 344.2344234423442,165.2221508756692 L 344.1344134413441,164.85274675238182 L 344.4344434443444,164.13856544735955 L 344.2344234423442,162.31617177247514 L 345.0845084508451,161.55273658434788 L 344.9344934493449,161.30646716882296 L 344.6344634463446,161.1833324610605 L 339.1339133913391,162.1191562400552 L 337.53375337533754,162.02064847384523 L 336.5836583658366,161.65124435055785 L 336.4836483648365,161.28184022727046 L 336.83368336833684,160.37064338982827 L 336.0836083608361,159.53332737704352 L 334.7834783478348,158.89302689667875 L 332.68326832683266,158.84377301357375 L 332.1332133213321,159.09004242909867 L 330.88308830883085,161.207959402613 L 329.7329732973297,161.60199046745288 L 327.8827882788279,161.7990059998728 L 325.7825782578258,163.0549800190499 L 323.48234823482346,164.85274675238182 L 322.98229822982296,165.29603170032667 L 322.8322832283228,165.69006276516654 L 323.032303230323,166.62588654416123 L 322.9322932293229,166.99529066744861 L 322.48224822482246,167.16767925831607 L 322.08220822082205,167.0445445505536 L 321.1321132113211,165.88707829758647 L 321.032103210321,165.46842029119412 L 321.5321532153215,164.40946180443697 L 318.8818881888189,163.3751302592323 L 319.03190319031904,162.21766400626515 L 319.6319631963196,161.25721328571797 L 319.13191319131914,161.7497521167678 L 317.7817781778178,163.71990744096718 L 315.7815781578158,165.07438922635424 L 315.1315131513151,165.2221508756692 L 314.6314631463146,165.66543582361405 L 314.2314231423142,165.49304723274662 L 312.88128812881286,164.16319238891205 L 312.18121812181215,163.89229603183463 L 311.78117811781175,163.9908037980446 L 310.9310931093109,163.3258763761273 L 307.0807080708071,161.62661740900535 L 305.9305930593059,160.83855527932562 L 304.38043804380436,158.81914607202125 L 303.3303330333033,157.85869535147407 L 303.28032803280325,157.56317205284418 L 303.5303530353035,157.29227569576676 L 305.7305730573057,156.75048298161192 L 306.980698069807,155.12510483914747 L 304.38043804380436,153.450472813578 L 303.88038803880386,152.93330704097565 L 303.28032803280325,152.04673714508596 L 302.28022802280225,149.46090828207429 L 300.98009800980094,148.22956120444968 L 298.979897989799,147.61388766563738 L 294.47944794479446,140.61983626472963 L 294.57945794579456,139.95490884281236 L 294.4294429442944,136.90116809030334 L 294.7294729472947,134.88175888299898 L 292.9292929292929,132.61608026016972 L 292.9292929292929,131.23697153323016 L 293.2293229322932,129.66084727387067 L 293.57935793579355,128.84815820263844 L 294.27942794279426,128.15860383916865 L 295.4295429542954,127.83845359898626 L 299.92999299929994,124.09515848300747 L 300.4300430043004,123.11008082090778 L 302.28022802280225,117.7906614455695 L 302.8302830283028,115.35259423187279 L 302.6302630263026,114.58915904374552 L 302.8302830283028,114.0473663295907 L 303.9303930393039,113.30855808301594 L 305.8305830583058,112.88990007662358 L 307.53075307530753,112.02795712228635 L 306.980698069807,109.19585884374978 L 305.98059805980597,107.22570351955041 L 305.1305130513051,103.33464675425667 L 304.08040804080406,101.3891183716098 L 303.68036803680366,99.91150187846027 L 303.8303830383038,98.90179727480809 L 304.2304230423042,97.9167196127084 L 304.1304130413041,96.85776112595126 L 304.3304330433043,96.4391031195589 L 306.5306530653065,94.81372497709441 L 306.1306130613061,93.75476649033725 L 310.2310231023102,94.02566284741467 L 312.3312331233123,93.8779011980997 L 314.48144814481446,94.96148662640937 L 316.4316431643164,94.98611356796185 L 317.93179317931794,93.85327425654722 L 319.3319331933193,95.82342958074659 L 319.4319431943194,97.22716524923864 L 319.18191819181914,100.01000964467023 L 319.3319331933193,102.10329967663206 L 321.8321832183218,103.11300428028423 L 327.2827282728273,103.48240840357161 L 345.8845884588459,107.79212317525773 L 347.2847284728473,107.81675011681021 L 348.6348634863486,107.10256881178795 L 351.28512851285126,104.71375548119622 L 352.5352535253525,104.39360524101382 L 355.2855285528553,104.09808194238391 L 360.08600860086005,101.16747589763736 L 363.1863186318632,100.87195259900746 L 365.3865386538654,101.0443411898749 L 367.98679867986795,100.57642930037755 L 370.4370437043704,99.46821693051541 L 372.18721872187217,97.71970408028848 L 374.43744374437443,97.20253830768614 L 381.2381238123812,100.4532945926151 L 384.13841384138414,101.11822201453238 L 385.73857385738575,100.4286676510626 L 386.8386838683868,99.51747081362039 L 387.78877887788775,99.07418586567553 L 389.08890889088906,99.8129941122503 L 390.1390139013901,101.29061060539982 L 390.6390639063906,102.69434627389187 L 391.3891389138914,103.92569335151647 L 393.0893089308931,104.96002489672114 L 394.53945394539454,105.25554819535104 L 397.5397539753975,105.32942902000852 L 402.0902090209021,106.75779163005306 L 403.3903390339034,106.38838750676568 L 406.3406340634063,104.61524771498625 L 407.9407940794079,103.97494723462145 L 408.69086908690866,103.28539287115167 L 409.2409240924092,102.15255355973704 L 410.04100410041,99.59135163827787 L 410.6410641064106,98.65552785928317 L 412.04120412041203,98.01522737891838 L 415.29152915291525,98.06448126202336 L 416.79167916791675,97.71970408028848 L 417.5417541754175,96.21746064558646 L 418.69186918691867,90.75027962093323 L 419.39193919391937,89.32191701088868 L 424.29242924292424,81.76144595427363 L 426.39263926392636,79.32337874057691 L 428.69286928692867,77.59949283190247 L 431.44314431443144,76.66366905290776 L 434.1434143414341,76.8853115268802 L 438.6938693869387,79.22487097436694 L 442.44424442444245,79.79129063007426 L 445.1445144514451,81.31816100632876 L 446.39463946394636,81.8353267789311 L 450.995099509951,82.05696925290353 L 452.59525952595254,82.62338890861085 L 454.19541954195415,82.72189667482081 L 459.44594459445943,82.20473090221849 L 461.0961096109611,82.69726973326831 L 462.6462646264626,83.90398986934044 L 464.29642964296426,86.04653378440725 L 464.3464346434643,95.57716016522167 L 465.3465346534653,97.74433102184096 L 465.6465646564656,99.8129941122503 L 464.59645964596456,105.18166737069356 L 464.79647964796476,107.86600399991521 L 466.09660966096607,110.0331748565345 L 471.8471847184718,114.6876668099555 L 473.29732973297325,117.766034504017 L 473.99739973997396,118.7018582830117 L 475.047504750475,119.44066652958647 L 477.3977397739774,120.20410171771373 L 478.44784478447843,120.8936560811835 L 479.84798479847984,122.7653036391729 L 480.94809480948095,125.25262473597459 L 481.49814981498145,128.0600960729587 L 481.39813981398135,130.91682129304778 L 481.6481648164816,132.7145880263797 L 482.3482348234823,133.5765309807169 L 483.1483148314831,134.24145840263418 L 483.89838983898386,135.32504383094386 L 484.5484548454845,136.85191420719835 L 484.7484748474847,137.76311104464057 L 484.5484548454845,142.2944682902991 L 484.3484348434843,143.37805371860875 L 484.4484448444844,144.4123852638134 L 485.19851985198517,146.2840328218028 z" /><path fill-rule="evenodd" fill="#D2EBD9" stroke="#A6A6A6" stroke-width="0.25" opacity="1" d="M 9.2009200920092,104.59062077343376 L 9.000900090009,103.90106640996397 L 7.55075507550755,102.37419603370947 L 6.1006100610061,101.21672978074234 L 5.45054505450545,99.96075576156525 L 5.000500050005,98.18761596978582 L 2.7002700270027002,94.88760580175189 L 1.8001800180018002,93.08983906841996 L 1.45014501450145,91.19356456887807 L 0.65006500650065,84.15025928486536 L 0.05000500050005,82.30323866842845 L 0.0,80.85024911683142 L 0.25002500250025,80.06218698715168 L 0.95009500950095,79.6435289807593 L 2.7002700270027002,79.47114038989186 L 4.15041504150415,78.41218190313471 L 5.05050505050505,77.40247729948253 L 5.45054505450545,76.34351881272536 L 4.75047504750475,74.32410960542103 L 5.35053505350535,73.78231689126619 L 6.35063506350635,70.9748455542821 L 7.800780078007801,70.18678342460235 L 8.750875087508751,69.30021352871265 L 9.3009300930093,69.1031979962927 L 9.650965096509651,68.65991304834785 L 9.75097509750975,68.06886645108804 L 9.650965096509651,65.95094947757373 L 11.001100110011,61.19794975794276 L 11.451145114511451,58.83376336890352 L 11.451145114511451,55.977038148814444 L 12.051205120512051,53.908375058405106 L 14.3014301430143,51.494934786260885 L 15.5015501550155,50.73149959813363 L 16.901690169016902,50.5344840657137 L 17.8017801780178,49.918810526901396 L 19.55195519551955,46.76656200818241 L 20.7020702070207,45.53521493055781 L 19.801980198019802,44.42700256069567 L 19.35193519351935,43.097147716861095 L 18.85188518851885,40.65908050316438 L 20.25202520252025,39.55086813330224 L 19.75197519751975,37.40832421823543 L 21.8021802180218,36.30011184837329 L 24.602460246024602,35.290407244721116 L 26.65266526652665,33.44338662828421 L 29.902990299029902,35.388915010931086 L 33.05330533053305,34.699360647461305 L 36.7036703670367,33.66502910225664 L 37.15371537153715,37.038920094948054 L 38.8038803880388,39.009075419147415 L 40.45404540454045,40.14191473056205 L 40.55405540554055,40.43743802919195 L 40.3040304030403,41.496396515949115 L 40.3040304030403,42.25983170407637 L 40.45404540454045,42.53072806115378 L 41.3041304130413,42.50610111960129 L 41.9041904190419,42.7769974766787 L 44.604460446044605,44.87028750864052 L 44.504450445044505,45.264318573480395 L 44.2044204420442,45.461334105900335 L 42.45424542454245,45.436707164347844 L 41.1041104110411,46.56954647576248 L 40.954095409540955,46.96357754060235 L 41.15411541154115,48.17029767667446 L 40.6040604060406,49.30313698808909 L 40.65406540654065,49.475525578956535 L 41.15411541154115,49.598660286718996 L 43.204320432043204,49.10612145566916 L 44.2044204420442,49.13074839722165 L 45.45454545454545,49.820302760691426 L 46.45464546454645,50.73149959813363 L 47.7047704770477,51.22403842918347 L 48.054805480548055,51.913592792653255 L 47.2047204720472,53.09568598717287 L 47.1047104710471,53.71135952598517 L 47.35473547354735,55.01658742826725 L 47.55475547554755,55.36136461000214 L 48.75487548754875,56.075545915024406 L 49.204920492049204,56.124799798129395 L 49.55495549554955,55.01658742826725 L 49.154915491549154,54.30240612324498 L 49.204920492049204,53.68673258443268 L 50.65506550655065,53.46509011046025 L 51.705170517051705,52.75090880543798 L 52.5052505250525,52.60314715612303 L 54.85548554855485,53.637478701327694 L 57.605760576057605,55.804649557946995 L 58.605860586058604,56.124799798129395 L 59.05590559055905,55.952411207261946 L 59.4059405940594,56.247934505891855 L 59.705970597059704,56.81435416159917 L 60.35603560356035,58.85839031045601 L 60.35603560356035,59.27704831684838 L 60.056005600560056,59.769587147898214 L 59.805980598059804,59.868094914108184 L 59.45594559455945,59.74496020634572 L 59.05590559055905,60.459141511367996 L 59.25592559255925,62.478550718672345 L 59.05590559055905,62.9218356666172 L 56.6056605660566,64.05467497803184 L 56.255625562556254,65.68005312049631 L 56.355635563556355,66.3449805424136 L 56.75567556755675,67.15766961364584 L 59.2059205920592,70.0636487168399 L 54.45544554455445,73.90545159902865 L 53.905390539053904,75.40769503373068 L 53.955395539553955,75.99874163099048 L 55.355535553555356,78.85546685107956 L 55.6055605560556,79.59427509765432 L 55.6055605560556,80.11144087025666 L 54.35543554355435,81.85995372048359 L 54.055405540554055,82.130850077561 L 53.2053205320532,82.30323866842845 L 52.955295529552956,82.54950808395337 L 50.75507550755075,86.58832649856207 L 50.05500550055005,87.27788086203184 L 49.45494549454945,88.23833158257904 L 48.3048304830483,89.2480361862312 L 48.154815481548155,89.51893254330862 L 48.55485548554855,90.84878738714319 L 48.25482548254825,91.02117597801063 L 46.35463546354635,91.16893762732559 L 44.3044304430443,92.84356965289504 L 42.9042904290429,92.84356965289504 L 41.8041804180418,93.2868546008399 L 41.5041504150415,94.76447109398943 L 42.254225422542255,96.29134147024394 L 44.004400440044,98.97567809946557 L 45.15451545154515,99.88687493690777 L 40.4040404040404,104.63987465653874 L 40.854085408540854,105.6742062017434 L 40.804080408040804,106.51152221452814 L 42.004200420042004,107.22570351955041 L 42.75427542754275,109.1219780190923 L 42.95429542954295,109.34362049306472 L 44.1044104410441,109.49138214237968 L 45.95459545954595,111.90482241452389 L 46.904690469046905,114.34288962822062 L 46.65466546654665,116.53468742639241 L 45.95459545954595,117.64289979625455 L 45.3045304530453,118.33245415972432 L 44.05440544054405,118.75111216611668 L 43.5043504350435,119.26827793871902 L 43.05430543054305,119.36678570492899 L 41.7041704170417,117.91379615333196 L 39.05390539053905,113.55482749854086 L 38.553855385538554,113.40706584922592 L 37.65376537653765,112.64363066109865 L 36.75367536753675,111.09213334329166 L 34.903490349034904,110.0331748565345 L 33.853385338533855,108.38316977251753 L 33.15331533153315,108.1861542400976 L 32.05320532053205,108.13690035699261 L 30.503050305030502,107.69361540904775 L 29.302930293029302,106.95480716247299 L 25.65256525652565,105.3786829031135 L 25.152515251525152,105.25554819535104 L 24.25242524252425,105.52644455242846 L 20.402040204020402,107.37346516886537 L 19.251925192519252,107.69361540904775 L 18.751875187518753,107.66898846749527 L 19.05190519051905,106.51152221452814 L 14.8014801480148,106.26525279900322 L 9.2009200920092,104.59062077343376 z" /><path fill-rule="evenodd" fill="#D2EBD9" stroke="#A6A6A6" stroke-width="0.25" opacity="1" d="M 9.2009200920092,104.59062077343376 L 14.8014801480148,106.26525279900322 L 19.05190519051905,106.51152221452814 L 18.751875187518753,107.66898846749527 L 19.251925192519252,107.69361540904775 L 20.402040204020402,107.37346516886537 L 24.25242524252425,105.52644455242846 L 25.152515251525152,105.25554819535104 L 25.65256525652565,105.3786829031135 L 29.302930293029302,106.95480716247299 L 30.503050305030502,107.69361540904775 L 32.05320532053205,108.13690035699261 L 33.15331533153315,108.1861542400976 L 33.853385338533855,108.38316977251753 L 34.903490349034904,110.0331748565345 L 36.75367536753675,111.09213334329166 L 37.65376537653765,112.64363066109865 L 38.553855385538554,113.40706584922592 L 39.05390539053905,113.55482749854086 L 41.7041704170417,117.91379615333196 L 43.05430543054305,119.36678570492899 L 43.5043504350435,119.26827793871902 L 44.05440544054405,118.75111216611668 L 45.3045304530453,118.33245415972432 L 45.95459545954595,117.64289979625455 L 46.65466546654665,116.53468742639241 L 46.904690469046905,114.34288962822062 L 45.95459545954595,111.90482241452389 L 44.1044104410441,109.49138214237968 L 42.95429542954295,109.34362049306472 L 42.75427542754275,109.1219780190923 L 42.004200420042004,107.22570351955041 L 40.804080408040804,106.51152221452814 L 40.854085408540854,105.6742062017434 L 40.4040404040404,104.63987465653874 L 45.15451545154515,99.88687493690777 L 44.004400440044,98.97567809946557 L 42.254225422542255,96.29134147024394 L 41.5041504150415,94.76447109398943 L 41.8041804180418,93.2868546008399 L 42.9042904290429,92.84356965289504 L 44.3044304430443,92.84356965289504 L 46.35463546354635,91.16893762732559 L 48.25482548254825,91.02117597801063 L 48.55485548554855,90.84878738714319 L 48.154815481548155,89.51893254330862 L 48.3048304830483,89.2480361862312 L 49.45494549454945,88.23833158257904 L 50.05500550055005,87.27788086203184 L 50.75507550755075,86.58832649856207 L 52.955295529552956,82.54950808395337 L 53.2053205320532,82.30323866842845 L 54.055405540554055,82.130850077561 L 54.35543554355435,81.85995372048359 L 55.6055605560556,80.11144087025666 L 55.6055605560556,79.59427509765432 L 55.355535553555356,78.85546685107956 L 53.955395539553955,75.99874163099048 L 53.905390539053904,75.40769503373068 L 54.45544554455445,73.90545159902865 L 59.2059205920592,70.0636487168399 L 56.75567556755675,67.15766961364584 L 56.355635563556355,66.3449805424136 L 56.255625562556254,65.68005312049631 L 56.6056605660566,64.05467497803184 L 59.05590559055905,62.9218356666172 L 59.25592559255925,62.478550718672345 L 59.05590559055905,60.459141511367996 L 59.45594559455945,59.74496020634572 L 59.805980598059804,59.868094914108184 L 60.056005600560056,59.769587147898214 L 60.35603560356035,59.27704831684838 L 60.35603560356035,58.85839031045601 L 59.705970597059704,56.81435416159917 L 59.4059405940594,56.247934505891855 L 59.05590559055905,55.952411207261946 L 58.605860586058604,56.124799798129395 L 57.605760576057605,55.804649557946995 L 54.85548554855485,53.637478701327694 L 52.5052505250525,52.60314715612303 L 51.705170517051705,52.75090880543798 L 50.65506550655065,53.46509011046025 L 49.204920492049204,53.68673258443268 L 49.154915491549154,54.30240612324498 L 49.55495549554955,55.01658742826725 L 49.204920492049204,56.124799798129395 L 48.75487548754875,56.075545915024406 L 47.55475547554755,55.36136461000214 L 47.35473547354735,55.01658742826725 L 47.1047104710471,53.71135952598517 L 47.2047204720472,53.09568598717287 L 48.054805480548055,51.913592792653255 L 47.7047704770477,51.22403842918347 L 46.45464546454645,50.73149959813363 L 45.45454545454545,49.820302760691426 L 44.2044204420442,49.13074839722165 L 43.204320432043204,49.10612145566916 L 41.15411541154115,49.598660286718996 L 40.65406540654065,49.475525578956535 L 40.6040604060406,49.30313698808909 L 41.15411541154115,48.17029767667446 L 40.954095409540955,46.96357754060235 L 41.1041104110411,46.56954647576248 L 42.45424542454245,45.436707164347844 L 44.2044204420442,45.461334105900335 L 44.504450445044505,45.264318573480395 L 44.604460446044605,44.87028750864052 L 41.9041904190419,42.7769974766787 L 41.3041304130413,42.50610111960129 L 40.45404540454045,42.53072806115378 L 40.3040304030403,42.25983170407637 L 40.3040304030403,41.496396515949115 L 40.55405540554055,40.43743802919195 L 40.45404540454045,40.14191473056205 L 38.8038803880388,39.009075419147415 L 37.15371537153715,37.038920094948054 L 36.7036703670367,33.66502910225664 L 43.304330433043305,32.556816732394495 L 46.1046104610461,30.266511168012734 L 55.105510551055104,18.150055924186645 L 55.95559555955595,17.361993794506898 L 56.85568556855685,16.967962729667025 L 59.05590559055905,16.500050840169678 L 59.905990599059905,15.95825812601485 L 62.85628562856285,11.50078170501379 L 63.9063906390639,10.392569335151647 L 64.85648564856486,10.41719627670414 L 65.7065706570657,10.860481224648996 L 66.7066706670667,11.00824287396395 L 68.006800680068,10.343315452046664 L 69.80698069806981,9.038087549764585 L 71.45714571457145,7.486590231957584 L 72.15721572157216,6.132108446570522 L 73.05730573057305,5.122403842918348 L 76.8076807680768,3.078367694061507 L 77.5077507750775,3.8418028821887606 L 77.85778577857785,4.80225360273595 L 78.65786578657865,8.299279303189822 L 78.85788578857886,8.52092177716225 L 80.2080208020802,8.126890712322378 L 80.7080708070807,8.274652361637331 L 81.4081408140814,8.668683426477203 L 83.7083708370837,10.564957926019092 L 84.05840584058406,11.106750640173917 L 84.10841084108411,13.914221977158011 L 84.75847584758475,15.416465411860026 L 85.45854585458545,16.155273658434787 L 85.85858585858585,16.204527541539772 L 86.90869086908691,16.86945496345706 L 87.85878587858785,18.322444515054087 L 89.95899589958995,20.194092073043485 L 92.009200920092,21.671708566193008 L 92.1092109210921,22.16424739724285 L 91.25912591259126,23.764998598154833 L 91.40914091409141,25.316495915961834 L 91.75917591759175,26.670977701348896 L 91.55915591559156,27.55754759723861 L 90.9090909090909,28.14859419449842 L 91.10911091109111,31.547112128742324 L 90.5090509050905,36.10309631595335 L 90.9090909090909,39.64937589951221 L 90.45904590459045,40.33893026298199 L 88.75887588758876,40.65908050316438 L 88.1088108810881,41.077738509556745 L 87.95879587958795,41.299380983529176 L 88.008800880088,41.619531223711576 L 88.35883588358836,42.65386276891624 L 88.2088208820882,43.121774658413585 L 87.9087908790879,43.294163249281034 L 87.4087408740874,43.220282424623555 L 85.45854585458545,42.65386276891624 L 85.1085108510851,42.80162441823119 L 84.25842584258426,43.63894043101592 L 84.20842084208421,44.05759843740829 L 85.05850585058505,46.37253094334254 L 85.1085108510851,47.431489430099695 L 84.65846584658465,48.34268626754191 L 80.8080808080808,52.62777409767552 L 80.75807580758075,53.07105904562038 L 81.1081108110811,53.48971705201274 L 83.008300830083,54.105390590825046 L 84.75847584758475,53.2927015195928 L 85.25852585258525,53.39120928580277 L 85.75857585758575,53.735986467537664 L 86.1086108610861,54.59792942187489 L 86.15861586158616,55.36136461000214 L 84.9084908490849,58.168835946986235 L 84.9084908490849,58.5874939533786 L 85.8085808580858,59.08003278442844 L 86.25862586258626,58.98152501821847 L 87.65876587658765,57.35614687575399 L 90.3090309030903,59.05540584287595 L 90.9090909090909,59.84346797255569 L 91.20912091209121,60.80391869310289 L 91.05910591059106,62.035265770727484 L 89.9089908990899,63.38974755611455 L 89.20892089208921,63.8330325040594 L 88.5088508850885,65.75393394515379 L 88.6088608860886,66.14796500999365 L 89.15891589158916,66.86214631501593 L 88.90889088908891,67.92110480177308 L 90.05900590059005,69.94051400907743 L 87.75877587758775,71.98455015793428 L 87.55875587558755,72.64947757985156 L 88.05880588058805,73.4621666510838 L 89.10891089108911,79.0524823834995 L 90.55905590559055,80.53009887664902 L 96.75967596759675,91.7599842245854 L 98.65986598659866,93.9025281396522 L 94.75947594759475,97.89209267115592 L 92.8092809280928,99.46821693051541 L 88.35883588358836,101.6846416702397 L 90.05900590059005,103.67942393599155 L 92.75927592759275,110.6488483953468 L 93.15931593159316,111.33840275881658 L 93.70937093709371,111.19064110950163 L 94.8094809480948,110.42720592137438 L 96.10961096109611,110.47645980447936 L 100.61006100610061,112.42198818712623 L 100.81008100810081,112.69288454420365 L 100.4100410041004,114.0473663295907 L 91.85918591859185,115.89438694602761 L 90.95909590959096,117.10110708209972 L 90.55905590559055,117.29812261451966 L 90.05900590059005,117.34737649762464 L 88.95889588958896,116.8548376665748 L 88.6088608860886,116.95334543278477 L 87.5087508750875,118.45558886748678 L 86.25862586258626,119.44066652958647 L 86.1086108610861,119.16977017250906 L 86.15861586158616,118.4063349843818 L 85.65856585658565,118.28320027661934 L 82.6082608260826,118.23394639351436 L 81.008100810081,118.48021580903928 L 79.05790579057906,119.48992041269145 L 77.95779577957795,121.48470267844331 L 77.15771577157716,122.4451533989905 L 76.007600760076,123.0361999962503 L 74.50745074507451,122.61754198985794 L 71.75717571757176,121.43544879533832 L 71.007100710071,120.79514831497353 L 69.85698569856986,120.74589443186855 L 68.85688568856885,121.55858350310078 L 68.55685568556855,121.04141773049845 L 68.55685568556855,119.19439711406154 L 68.006800680068,118.35708110127682 L 65.15651565156516,117.4705112053871 L 63.9063906390639,118.18469251040938 L 63.506350635063505,118.13543862730438 L 60.5060506050605,115.67274447205519 L 58.605860586058604,119.85932453597883 L 57.605760576057605,121.28768714602337 L 56.155615561556154,122.96231917159282 L 55.9055905590559,124.43993566474235 L 55.005500550055004,125.59740191770948 L 55.105510551055104,126.41009098894172 L 56.005600560056,128.45412713779857 L 56.505650565056506,129.19293538437333 L 56.555655565556556,130.10413222181552 L 55.8055805580558,131.80339118893747 L 55.105510551055104,132.78846885103715 L 54.45544554455445,133.45339627295445 L 53.5053505350535,133.72429263003187 L 53.05530553055305,134.06906981176675 L 50.7050705070507,136.9996758565133 L 50.255025502550254,137.04892973961827 L 48.8048804880488,135.2019091231814 L 48.3048304830483,134.88175888299898 L 46.954695469546955,135.1280282985239 L 45.004500450045,135.89146348665116 L 47.75477547754775,138.5265462327678 L 48.7048704870487,139.8071471934974 L 49.75497549754975,142.540737705824 L 48.054805480548055,141.4078983944094 L 46.5046504650465,141.13700203733197 L 36.5036503650365,146.21015199714532 L 32.3032303230323,147.31836436700746 L 28.35283528352835,146.48104835422274 L 23.65236523652365,143.03327653687384 L 22.852285228522852,141.80192945924927 L 22.302230223022303,139.28998142089506 L 21.052105210521052,137.66460327843058 L 18.051805180518052,135.05414747386644 L 15.901590159015901,131.36010624099262 L 11.451145114511451,118.52946969214426 L 10.45104510451045,116.68244907570735 L 9.050905090509051,114.9831901085854 L 8.85088508850885,112.47124207023121 L 9.650965096509651,106.26525279900322 L 9.2009200920092,104.59062077343376 z" /><path fill-rule="evenodd" fill="#D2EBD9" stroke="#A6A6A6" stroke-width="0.25" opacity="1" d="M 133.2133213321332,209.5506456701549 L 129.96299629962996,207.01407069024822 L 118.1118111811181,202.38420567837971 L 115.56155615561555,199.9215115231305 L 113.4113411341134,196.4737397057816 L 111.8111811181118,192.38566740806795 L 110.66106610661066,187.97744487017187 L 110.36103610361036,184.381911403508 L 110.46104610461046,177.58487553502022 L 109.9109910991099,174.62964254872116 L 108.06080608060806,171.55127485465965 L 105.51055105510551,169.11320764096294 L 102.56025602560256,167.78335279712837 L 97.85978597859786,168.15275692041575 L 95.75957595759576,167.80797973868087 L 93.90939093909391,166.62588654416123 L 92.75927592759275,164.2863270966745 L 92.2092209220922,162.31617177247514 L 91.50915091509151,158.17884559165648 L 90.8090809080908,156.33182497521958 L 89.20892089208921,154.7557007158601 L 87.5087508750875,154.6571929496501 L 85.65856585658565,154.9773431898325 L 83.5083508350835,154.60793906654513 L 82.05820582058206,153.4258458720255 L 79.05790579057906,148.18030732134469 L 77.5077507750775,146.8997063606151 L 60.6060606060606,140.25043214144225 L 57.405740574057404,140.7429709724921 L 54.75547554755475,143.59969619258118 L 53.45534553455345,144.21536973139348 L 51.35513551355135,143.59969619258118 L 49.75497549754975,142.540737705824 L 48.7048704870487,139.8071471934974 L 47.75477547754775,138.5265462327678 L 45.004500450045,135.89146348665116 L 46.954695469546955,135.1280282985239 L 48.3048304830483,134.88175888299898 L 48.8048804880488,135.2019091231814 L 50.255025502550254,137.04892973961827 L 50.7050705070507,136.9996758565133 L 53.05530553055305,134.06906981176675 L 53.5053505350535,133.72429263003187 L 54.45544554455445,133.45339627295445 L 55.105510551055104,132.78846885103715 L 55.8055805580558,131.80339118893747 L 56.555655565556556,130.10413222181552 L 56.505650565056506,129.19293538437333 L 56.005600560056,128.45412713779857 L 55.105510551055104,126.41009098894172 L 55.005500550055004,125.59740191770948 L 55.9055905590559,124.43993566474235 L 56.155615561556154,122.96231917159282 L 57.605760576057605,121.28768714602337 L 58.605860586058604,119.85932453597883 L 60.5060506050605,115.67274447205519 L 63.506350635063505,118.13543862730438 L 63.9063906390639,118.18469251040938 L 65.15651565156516,117.4705112053871 L 68.006800680068,118.35708110127682 L 68.55685568556855,119.19439711406154 L 68.55685568556855,121.04141773049845 L 68.85688568856885,121.55858350310078 L 69.85698569856986,120.74589443186855 L 71.007100710071,120.79514831497353 L 71.75717571757176,121.43544879533832 L 74.50745074507451,122.61754198985794 L 76.007600760076,123.0361999962503 L 77.15771577157716,122.4451533989905 L 77.95779577957795,121.48470267844331 L 79.05790579057906,119.48992041269145 L 81.008100810081,118.48021580903928 L 82.6082608260826,118.23394639351436 L 85.65856585658565,118.28320027661934 L 86.15861586158616,118.4063349843818 L 86.1086108610861,119.16977017250906 L 86.25862586258626,119.44066652958647 L 87.5087508750875,118.45558886748678 L 88.6088608860886,116.95334543278477 L 88.95889588958896,116.8548376665748 L 90.05900590059005,117.34737649762464 L 90.55905590559055,117.29812261451966 L 90.95909590959096,117.10110708209972 L 91.85918591859185,115.89438694602761 L 100.4100410041004,114.0473663295907 L 102.3102310231023,116.06677553689505 L 102.66026602660266,116.16528330310503 L 103.31033103310331,115.82050612137013 L 103.6103610361036,116.31304495241997 L 103.76037603760375,117.15036096520471 L 103.6103610361036,119.3421587633765 L 102.91029102910291,120.22872865926621 L 102.010201020102,122.27276480812306 L 101.96019601960195,124.11978542455995 L 101.66016601660165,125.49889415149951 L 101.7101710171017,126.31158322273176 L 102.8102810281028,127.3705417094889 L 104.6104610461046,127.22278006017396 L 105.16051605160516,126.87800287843906 L 105.26052605260526,125.67128274236696 L 105.41054105410541,125.47426720994702 L 111.66116611661165,124.11978542455995 L 112.36123612361236,123.6765004766151 L 114.76147614761476,121.04141773049845 L 116.4116411641164,118.25857333506684 L 120.21202120212021,116.06677553689505 L 121.76217621762176,115.67274447205519 L 122.76227622762275,114.6876668099555 L 123.46234623462345,113.50557361543588 L 123.5123512351235,112.69288454420365 L 122.96229622962295,111.46153746657905 L 121.5121512151215,108.99884331132984 L 121.46214621462146,108.11227341544011 L 121.66216621662166,107.57048070128529 L 122.16221622162216,106.97943410402549 L 122.16221622162216,106.36376056521318 L 122.41224122412241,106.11749114968826 L 123.8123812381238,106.04361032503078 L 124.16241624162416,105.89584867571584 L 124.96249624962496,105.0831596044836 L 127.06270627062706,103.50703534512411 L 127.9127912791279,101.6600147286872 L 128.9128912891289,98.68015480083567 L 131.06310631063104,97.89209267115592 L 131.6131613161316,97.84283878805094 L 132.1132113211321,98.90179727480809 L 132.3132313231323,99.00030504101807 L 133.6133613361336,97.54731548942102 L 133.8133813381338,97.6211963140785 L 134.16341634163416,98.16298902823333 L 135.46354635463547,98.95105115791307 L 138.26382638263826,101.41374531316228 L 144.46444644464447,105.18166737069356 L 145.46454645464544,107.32421128576037 L 154.06540654065407,108.40779671407003 L 154.61546154615462,111.2645219341591 L 158.91589158915892,117.1749879067572 L 163.71637163716372,115.89438694602761 L 164.8164816481648,116.04214859534257 L 164.6164616461646,117.74140756246452 L 164.76647664766475,118.03693086109442 L 166.66666666666666,119.90857841908381 L 169.16691669166914,124.43993566474235 L 169.66696669666965,124.68620508026727 L 170.96709670967095,124.73545896337225 L 171.66716671667166,125.08023614510715 L 172.86728672867287,126.95188370309654 L 174.4174417441744,129.9317436309481 L 174.56745674567455,131.0645829423627 L 174.36743674367435,132.3451839030923 L 171.06710671067106,136.53176396701596 L 170.16701670167015,138.10788822637545 L 169.9169916991699,139.04371200537014 L 170.1170117011701,140.20117825833728 L 169.36693669366935,140.69371708938712 L 167.96679667966797,142.0481988747742 L 165.96659665966595,142.93476877066388 L 164.01640164016402,144.7571624455483 L 163.41634163416342,145.692986224543 L 163.56635663566357,147.93403790581976 L 163.41634163416342,148.94374250947195 L 163.76637663766377,150.6183745350414 L 163.16631663166316,153.84450387841787 L 163.56635663566357,154.50943130033517 L 163.86638663866387,155.44525507932985 L 165.16651665166515,156.75048298161192 L 163.41634163416342,159.04078854599368 L 162.6162616261626,159.58258126014852 L 160.9160916091609,159.75496985101597 L 157.26572657265726,160.69079363001066 L 154.41544154415442,159.85347761722593 L 153.56535653565356,159.87810455877843 L 152.86528652865286,161.207959402613 L 152.66526652665266,161.40497493503293 L 152.4152415241524,161.40497493503293 L 151.3151315131513,160.17362785740832 L 150.76507650765075,159.04078854599368 L 150.16501650165014,158.47436889028637 L 147.8147814781478,157.0952601633468 L 147.16471647164715,156.94749851403188 L 144.014401440144,157.7355606437116 L 143.26432643264326,158.30198029941894 L 142.76427642764276,159.3609387861761 L 145.36453645364534,160.88780916243059 L 146.2146214621462,161.7251251752153 L 147.014701470147,163.15348778525987 L 147.56475647564756,163.6460266163097 L 148.1148114811481,163.9908037980446 L 150.7150715071507,164.75423898617186 L 151.56515651565155,165.41916640808913 L 152.56525652565256,166.62588654416123 L 154.16541654165417,169.1870884656204 L 154.36543654365437,169.95052365374767 L 154.11541154115412,171.9945598026045 L 154.36543654365437,172.6594872245218 L 154.31543154315432,173.66919182817398 L 154.46544654465447,174.65426949027366 L 153.71537153715371,175.29456997063843 L 153.26532653265326,176.18113986652816 L 152.7152715271527,176.79681340534046 L 151.26512651265125,177.3139791779428 L 150.76507650765075,177.3386061194953 L 150.66506650665065,177.60950247657271 L 150.96509650965095,178.10204130762253 L 153.36533653365336,180.58936240442424 L 152.26522652265226,182.2639944299937 L 152.1152115211521,184.57892693592794 L 151.86518651865185,185.24385435784524 L 151.16511651165115,186.25355896149742 L 149.06490649064907,187.68192157154195 L 147.86478647864786,188.1990873441443 L 146.8146814681468,189.20879194779647 L 145.86458645864585,189.50431524642636 L 143.26432643264326,191.37596280441576 L 141.56415641564155,194.35582273226728 L 140.9140914091409,196.07970864094173 L 141.1141114111411,196.79388994596403 L 140.8140814081408,197.58195207564376 L 135.36353635363537,206.62003962540834 L 135.16351635163517,208.44243330029275 L 133.6133613361336,208.9595990728951 L 133.2133213321332,209.5506456701549 z" /><path fill-rule="evenodd" fill="#D2EBD9" stroke="#A6A6A6" stroke-width="0.25" opacity="1" d="M 317.93179317931794,93.85327425654722 L 316.4316431643164,94.98611356796185 L 314.48144814481446,94.96148662640937 L 312.3312331233123,93.8779011980997 L 310.2310231023102,94.02566284741467 L 306.1306130613061,93.75476649033725 L 306.5306530653065,94.81372497709441 L 304.3304330433043,96.4391031195589 L 304.1304130413041,96.85776112595126 L 304.2304230423042,97.9167196127084 L 303.8303830383038,98.90179727480809 L 303.68036803680366,99.91150187846027 L 304.08040804080406,101.3891183716098 L 305.1305130513051,103.33464675425667 L 305.98059805980597,107.22570351955041 L 306.980698069807,109.19585884374978 L 307.53075307530753,112.02795712228635 L 305.8305830583058,112.88990007662358 L 303.9303930393039,113.30855808301594 L 302.8302830283028,114.0473663295907 L 302.6302630263026,114.58915904374552 L 302.8302830283028,115.35259423187279 L 302.28022802280225,117.7906614455695 L 300.4300430043004,123.11008082090778 L 299.92999299929994,124.09515848300747 L 295.4295429542954,127.83845359898626 L 294.27942794279426,128.15860383916865 L 293.57935793579355,128.84815820263844 L 293.2293229322932,129.66084727387067 L 292.9292929292929,131.23697153323016 L 292.9292929292929,132.61608026016972 L 294.7294729472947,134.88175888299898 L 294.4294429442944,136.90116809030334 L 294.57945794579456,139.95490884281236 L 294.47944794479446,140.61983626472963 L 298.979897989799,147.61388766563738 L 300.98009800980094,148.22956120444968 L 296.27962796279627,151.08628642453877 L 294.57945794579456,151.65270608024608 L 292.9292929292929,152.4900220930308 L 292.37923792379235,152.4900220930308 L 291.029102910291,151.2833019569587 L 289.32893289328933,151.16016724919623 L 276.67766776677666,152.73629150855572 L 275.5275527552755,153.59823446289295 L 275.17751775177516,153.64748834599794 L 274.67746774677465,153.64748834599794 L 273.17731773177314,152.88405315787068 L 271.87718771877184,152.71166456700323 L 263.47634763476344,152.90868009942318 L 261.02610261026103,153.59823446289295 L 260.1760176017602,153.59823446289295 L 256.17561756175616,152.4407682099258 L 255.1255125512551,151.849721612666 L 254.77547754775478,151.82509467111353 L 253.52535253525352,152.95793398252815 L 251.97519751975196,153.52435363823548 L 250.8250825082508,154.58331212499263 L 245.22452245224522,156.67660215695446 L 238.5238523852385,157.51391816973918 L 223.8223822382238,155.001970131385 L 220.87208720872087,151.35718278161616 L 219.021902190219,150.298224294859 L 218.07180718071805,149.0422502756819 L 217.6217621762176,147.2198566007975 L 216.97169716971695,146.6534369450902 L 216.47164716471647,146.48104835422274 L 212.9212921292129,145.93925564006793 L 212.47124712471245,146.0377634062779 L 212.77127712771275,146.75194471130015 L 213.3213321332133,146.9243333021676 L 213.3213321332133,147.24448354235 L 212.97129712971295,149.28851969120683 L 212.3212321232123,149.87956628846663 L 212.07120712071205,150.59374759348893 L 196.86968696869687,148.5004575615271 L 192.66926692669267,148.74672697705202 L 191.4191419141914,146.0623903478304 L 190.96909690969096,145.6191053998855 L 189.5189518951895,144.88029715331075 L 189.36893689368935,144.56014691312836 L 189.9189918991899,141.6787947514868 L 189.8189818981898,141.13700203733197 L 189.2189218921892,140.29968602454724 L 189.1189118911891,139.90565495970736 L 189.2189218921892,139.31460836244756 L 189.7189718971897,138.35415764190037 L 191.019101910191,137.12281056427577 L 191.06910691069106,136.6795256163309 L 190.5190519051905,133.65041180537438 L 189.3189318931893,131.4339870656501 L 181.86818681868186,131.87727201359496 L 180.36803680368035,132.24667613688234 L 179.4179417941794,134.06906981176675 L 178.31783178317832,133.72429263003187 L 174.56745674567455,131.0645829423627 L 174.4174417441744,129.9317436309481 L 172.86728672867287,126.95188370309654 L 171.66716671667166,125.08023614510715 L 170.96709670967095,124.73545896337225 L 169.66696669666965,124.68620508026727 L 169.16691669166914,124.43993566474235 L 166.66666666666666,119.90857841908381 L 164.76647664766475,118.03693086109442 L 164.6164616461646,117.74140756246452 L 164.8164816481648,116.04214859534257 L 163.71637163716372,115.89438694602761 L 158.91589158915892,117.1749879067572 L 154.61546154615462,111.2645219341591 L 154.06540654065407,108.40779671407003 L 145.46454645464544,107.32421128576037 L 144.46444644464447,105.18166737069356 L 145.7145714571457,103.2115120464942 L 146.3146314631463,102.79285404010184 L 146.5146514651465,102.37419603370947 L 145.01450145014502,100.4532945926151 L 144.36443644364437,98.95105115791307 L 144.56445644564457,98.77866256704563 L 146.7146714671467,99.24657445654299 L 147.46474647464746,99.24657445654299 L 148.2148214821482,98.97567809946557 L 148.5148514851485,98.60627397617819 L 148.7148714871487,97.99060043736588 L 148.5148514851485,95.55253322366917 L 149.21492149214922,95.10924827572431 L 148.1148114811481,93.48387013325984 L 148.06480648064806,92.62192717892262 L 149.06490649064907,90.55326408851329 L 149.26492649264927,89.81445584193852 L 149.16491649164917,88.28758546568402 L 149.26492649264927,87.84430051773916 L 150.1150115011501,87.49952333600427 L 150.56505650565055,86.95773062184945 L 151.26512651265125,85.67712966111986 L 151.6151615161516,83.95324375244542 L 151.7151715171517,82.89428526568825 L 151.6151615161516,82.00771536979855 L 151.16511651165115,80.579352759754 L 150.8150815081508,80.01293310404668 L 149.96499649964997,79.20024403281445 L 149.66496649664967,78.28904719537225 L 149.26492649264927,77.67337365655995 L 148.06480648064806,76.29426492962038 L 148.96489648964896,74.81664843647086 L 149.36493649364937,74.79202149491837 L 149.66496649664967,75.3584411506257 L 150.5150515051505,76.14650328030544 L 151.96519651965195,78.11665860450479 L 153.1153115311531,78.48606272779217 L 158.61586158615862,79.3480056821294 L 161.4161416141614,80.2592025195716 L 161.7161716171617,80.92412994148889 L 161.8161816181618,81.76144595427363 L 162.36623662366236,82.47562725929589 L 162.6162616261626,83.36219715518561 L 163.71637163716372,84.81518670678264 L 165.76657665766575,87.08086532961191 L 166.26662666266625,87.4010155697943 L 166.66666666666666,87.54877721910925 L 167.7167716771677,87.27788086203184 L 170.2170217021702,83.53458574605305 L 172.5172517251725,81.61368430495867 L 173.06730673067307,80.94875688304138 L 176.5176517651765,73.04350864469143 L 175.76757675767576,69.32484047026513 L 175.3175317531753,68.1920011588505 L 174.2174217421742,67.13304267209334 L 172.91729172917292,65.13826040634149 L 172.86728672867287,64.67034851684414 L 173.66736673667367,63.8330325040594 L 173.56735673567357,63.41437449766704 L 173.21732173217322,63.11885119903714 L 173.16731673167317,62.77407401730225 L 174.017401740174,61.00093422552282 L 174.4174417441744,59.74496020634572 L 173.86738673867384,59.32630219995336 L 172.4172417241724,57.62704323283141 L 172.3172317231723,57.06062357712409 L 172.4172417241724,55.60763402552706 L 172.56725672567256,55.06584131137223 L 172.86728672867287,54.69643718808486 L 173.06730673067307,54.49942165566492 L 173.51735173517352,54.49942165566492 L 174.36743674367435,55.656887908632044 L 175.017501750175,55.829276499499485 L 175.9175917591759,55.681514850184534 L 178.01780178017802,54.130017532377536 L 178.76787678767874,53.785240350642646 L 179.76797679767975,53.834494233747634 L 180.9180918091809,53.56359787667022 L 182.16821682168217,53.883748116852615 L 183.31833183318332,53.859121175300125 L 183.56835683568355,54.77031801274233 L 184.1184118411841,55.656887908632044 L 184.4184418441844,55.85390344105198 L 186.4186418641864,56.66659251228422 L 187.46874687468747,56.91286192780914 L 188.7188718871887,57.55316240817393 L 190.7190719071907,58.070328180776265 L 191.96919691969197,58.021074297671284 L 192.86928692869287,58.5874939533786 L 194.3194319431943,59.91734879721317 L 195.6195619561956,58.36585147940617 L 195.66956695669566,57.13450440178157 L 194.96949694969496,55.927784265709455 L 194.56945694569455,54.42554083100744 L 194.56945694569455,53.71135952598517 L 195.1195119511951,51.29791925384095 L 195.06950695069506,50.38672241639875 L 194.76947694769476,49.50015252050903 L 193.6193619361936,48.047162968912 L 192.46924692469247,47.13596613146979 L 190.96909690969096,44.64864503466809 L 190.76907690769076,44.20536008672324 L 190.9190919091909,41.324007925081666 L 192.61926192619262,41.250127100424194 L 197.86978697869785,42.01356228855145 L 208.77087708770875,40.68370744471687 L 209.7209720972097,40.88072297713681 L 214.97149714971496,44.25461396982822 L 226.8226822682268,43.98371761275081 L 231.5231523152315,47.33298166388973 L 231.7231723172317,48.71209039082928 L 231.47314731473145,50.31284159174127 L 232.57325732573256,52.52926633146555 L 233.4233423342334,57.62704323283141 L 234.37343734373437,59.5233177323733 L 235.87358735873585,60.409887628263014 L 243.97439743974397,62.577058484882315 L 244.87448744874487,62.55243154332982 L 245.77457745774575,62.281535186252405 L 246.77467746774676,61.41959223191518 L 248.67486748674867,59.05540584287595 L 249.57495749574957,58.61212089493109 L 253.62536253625362,59.40018302461084 L 255.67556755675565,59.05540584287595 L 257.2257225722572,57.15913134333406 L 257.27572757275726,55.85390344105198 L 256.77567756775676,54.72106412963735 L 256.57565756575656,53.612851759775204 L 257.37573757375736,52.35687774059811 L 258.2258225822582,52.25836997438814 L 261.3761376137614,53.46509011046025 L 263.5263526352635,52.77553574699047 L 266.87668766876686,49.746421936033954 L 268.6768676867687,49.05686757256417 L 270.7770777077708,49.820302760691426 L 274.7274727472747,53.538970935117725 L 276.77767776777677,54.79494495429482 L 280.12801280128014,55.829276499499485 L 283.87838783878385,58.168835946986235 L 285.5285528552855,58.80913642735103 L 286.27862786278627,59.37555608305834 L 286.9286928692869,60.557649277577966 L 287.3787378737874,62.9218356666172 L 287.7287728772877,63.8576594456119 L 288.82888288828883,65.16288734789397 L 289.5789578957896,65.31064899720893 L 290.4790479047905,64.99049875702653 L 292.029202920292,64.81811016615909 L 293.5293529352935,65.45841064652389 L 296.17961796179617,67.92110480177308 L 297.1297129712971,68.36438974971794 L 298.8798879887989,67.47781985382824 L 299.8799879987999,66.36960748396609 L 300.9300930093009,65.92632253602123 L 302.9302930293029,66.9852810227784 L 305.48054805480547,69.54648294423757 L 307.6807680768077,72.92037393692897 L 309.53095309530954,76.73754987756524 L 312.9312931293129,87.22862697892685 L 313.98139813981396,89.2726631277837 L 315.28152815281527,91.02117597801063 L 317.93179317931794,93.85327425654722 z" /><path fill-rule="evenodd" fill="#D2EBD9" stroke="#A6A6A6" stroke-width="0.25" opacity="1" d="M 190.9190919091909,41.324007925081666 L 190.76907690769076,44.20536008672324 L 190.96909690969096,44.64864503466809 L 192.46924692469247,47.13596613146979 L 193.6193619361936,48.047162968912 L 194.76947694769476,49.50015252050903 L 195.06950695069506,50.38672241639875 L 195.1195119511951,51.29791925384095 L 194.56945694569455,53.71135952598517 L 194.56945694569455,54.42554083100744 L 194.96949694969496,55.927784265709455 L 195.66956695669566,57.13450440178157 L 195.6195619561956,58.36585147940617 L 194.3194319431943,59.91734879721317 L 192.86928692869287,58.5874939533786 L 191.96919691969197,58.021074297671284 L 190.7190719071907,58.070328180776265 L 188.7188718871887,57.55316240817393 L 187.46874687468747,56.91286192780914 L 186.4186418641864,56.66659251228422 L 184.4184418441844,55.85390344105198 L 184.1184118411841,55.656887908632044 L 183.56835683568355,54.77031801274233 L 183.31833183318332,53.859121175300125 L 182.16821682168217,53.883748116852615 L 180.9180918091809,53.56359787667022 L 179.76797679767975,53.834494233747634 L 178.76787678767874,53.785240350642646 L 178.01780178017802,54.130017532377536 L 175.9175917591759,55.681514850184534 L 175.017501750175,55.829276499499485 L 174.36743674367435,55.656887908632044 L 173.51735173517352,54.49942165566492 L 173.06730673067307,54.49942165566492 L 172.86728672867287,54.69643718808486 L 172.56725672567256,55.06584131137223 L 172.4172417241724,55.60763402552706 L 172.3172317231723,57.06062357712409 L 172.4172417241724,57.62704323283141 L 173.86738673867384,59.32630219995336 L 174.4174417441744,59.74496020634572 L 174.017401740174,61.00093422552282 L 173.16731673167317,62.77407401730225 L 173.21732173217322,63.11885119903714 L 173.56735673567357,63.41437449766704 L 173.66736673667367,63.8330325040594 L 172.86728672867287,64.67034851684414 L 172.91729172917292,65.13826040634149 L 174.2174217421742,67.13304267209334 L 175.3175317531753,68.1920011588505 L 175.76757675767576,69.32484047026513 L 176.5176517651765,73.04350864469143 L 173.06730673067307,80.94875688304138 L 172.5172517251725,81.61368430495867 L 170.2170217021702,83.53458574605305 L 167.7167716771677,87.27788086203184 L 166.66666666666666,87.54877721910925 L 166.26662666266625,87.4010155697943 L 165.76657665766575,87.08086532961191 L 163.71637163716372,84.81518670678264 L 162.6162616261626,83.36219715518561 L 162.36623662366236,82.47562725929589 L 161.8161816181618,81.76144595427363 L 161.7161716171617,80.92412994148889 L 161.4161416141614,80.2592025195716 L 158.61586158615862,79.3480056821294 L 153.1153115311531,78.48606272779217 L 151.96519651965195,78.11665860450479 L 150.5150515051505,76.14650328030544 L 149.66496649664967,75.3584411506257 L 149.36493649364937,74.79202149491837 L 148.96489648964896,74.81664843647086 L 148.06480648064806,76.29426492962038 L 149.26492649264927,77.67337365655995 L 149.66496649664967,78.28904719537225 L 149.96499649964997,79.20024403281445 L 150.8150815081508,80.01293310404668 L 151.16511651165115,80.579352759754 L 151.6151615161516,82.00771536979855 L 151.7151715171517,82.89428526568825 L 151.6151615161516,83.95324375244542 L 151.26512651265125,85.67712966111986 L 150.56505650565055,86.95773062184945 L 150.1150115011501,87.49952333600427 L 149.26492649264927,87.84430051773916 L 149.16491649164917,88.28758546568402 L 149.26492649264927,89.81445584193852 L 149.06490649064907,90.55326408851329 L 148.06480648064806,92.62192717892262 L 148.1148114811481,93.48387013325984 L 149.21492149214922,95.10924827572431 L 148.5148514851485,95.55253322366917 L 148.7148714871487,97.99060043736588 L 148.5148514851485,98.60627397617819 L 148.2148214821482,98.97567809946557 L 147.46474647464746,99.24657445654299 L 146.7146714671467,99.24657445654299 L 144.56445644564457,98.77866256704563 L 144.36443644364437,98.95105115791307 L 145.01450145014502,100.4532945926151 L 146.5146514651465,102.37419603370947 L 146.3146314631463,102.79285404010184 L 145.7145714571457,103.2115120464942 L 144.46444644464447,105.18166737069356 L 138.26382638263826,101.41374531316228 L 135.46354635463547,98.95105115791307 L 134.16341634163416,98.16298902823333 L 133.8133813381338,97.6211963140785 L 133.6133613361336,97.54731548942102 L 132.3132313231323,99.00030504101807 L 132.1132113211321,98.90179727480809 L 131.6131613161316,97.84283878805094 L 131.06310631063104,97.89209267115592 L 128.9128912891289,98.68015480083567 L 127.9127912791279,101.6600147286872 L 127.06270627062706,103.50703534512411 L 124.96249624962496,105.0831596044836 L 124.16241624162416,105.89584867571584 L 123.8123812381238,106.04361032503078 L 122.41224122412241,106.11749114968826 L 122.16221622162216,106.36376056521318 L 122.16221622162216,106.97943410402549 L 121.66216621662166,107.57048070128529 L 121.46214621462146,108.11227341544011 L 121.5121512151215,108.99884331132984 L 122.96229622962295,111.46153746657905 L 123.5123512351235,112.69288454420365 L 123.46234623462345,113.50557361543588 L 122.76227622762275,114.6876668099555 L 121.76217621762176,115.67274447205519 L 120.21202120212021,116.06677553689505 L 116.4116411641164,118.25857333506684 L 114.76147614761476,121.04141773049845 L 112.36123612361236,123.6765004766151 L 111.66116611661165,124.11978542455995 L 105.41054105410541,125.47426720994702 L 105.26052605260526,125.67128274236696 L 105.16051605160516,126.87800287843906 L 104.6104610461046,127.22278006017396 L 102.8102810281028,127.3705417094889 L 101.7101710171017,126.31158322273176 L 101.66016601660165,125.49889415149951 L 101.96019601960195,124.11978542455995 L 102.010201020102,122.27276480812306 L 102.91029102910291,120.22872865926621 L 103.6103610361036,119.3421587633765 L 103.76037603760375,117.15036096520471 L 103.6103610361036,116.31304495241997 L 103.31033103310331,115.82050612137013 L 102.66026602660266,116.16528330310503 L 102.3102310231023,116.06677553689505 L 100.4100410041004,114.0473663295907 L 100.81008100810081,112.69288454420365 L 100.61006100610061,112.42198818712623 L 96.10961096109611,110.47645980447936 L 94.8094809480948,110.42720592137438 L 93.70937093709371,111.19064110950163 L 93.15931593159316,111.33840275881658 L 92.75927592759275,110.6488483953468 L 90.05900590059005,103.67942393599155 L 88.35883588358836,101.6846416702397 L 92.8092809280928,99.46821693051541 L 94.75947594759475,97.89209267115592 L 98.65986598659866,93.9025281396522 L 96.75967596759675,91.7599842245854 L 90.55905590559055,80.53009887664902 L 89.10891089108911,79.0524823834995 L 88.05880588058805,73.4621666510838 L 87.55875587558755,72.64947757985156 L 87.75877587758775,71.98455015793428 L 90.05900590059005,69.94051400907743 L 88.90889088908891,67.92110480177308 L 89.15891589158916,66.86214631501593 L 88.6088608860886,66.14796500999365 L 88.5088508850885,65.75393394515379 L 89.20892089208921,63.8330325040594 L 89.9089908990899,63.38974755611455 L 91.05910591059106,62.035265770727484 L 91.20912091209121,60.80391869310289 L 90.9090909090909,59.84346797255569 L 90.3090309030903,59.05540584287595 L 87.65876587658765,57.35614687575399 L 86.25862586258626,58.98152501821847 L 85.8085808580858,59.08003278442844 L 84.9084908490849,58.5874939533786 L 84.9084908490849,58.168835946986235 L 86.15861586158616,55.36136461000214 L 86.1086108610861,54.59792942187489 L 85.75857585758575,53.735986467537664 L 85.25852585258525,53.39120928580277 L 84.75847584758475,53.2927015195928 L 83.008300830083,54.105390590825046 L 81.1081108110811,53.48971705201274 L 80.75807580758075,53.07105904562038 L 80.8080808080808,52.62777409767552 L 84.65846584658465,48.34268626754191 L 85.1085108510851,47.431489430099695 L 85.05850585058505,46.37253094334254 L 84.20842084208421,44.05759843740829 L 84.25842584258426,43.63894043101592 L 85.1085108510851,42.80162441823119 L 85.45854585458545,42.65386276891624 L 87.4087408740874,43.220282424623555 L 87.9087908790879,43.294163249281034 L 88.2088208820882,43.121774658413585 L 88.35883588358836,42.65386276891624 L 88.008800880088,41.619531223711576 L 87.95879587958795,41.299380983529176 L 88.1088108810881,41.077738509556745 L 88.75887588758876,40.65908050316438 L 90.45904590459045,40.33893026298199 L 90.9090909090909,39.64937589951221 L 90.5090509050905,36.10309631595335 L 91.10911091109111,31.547112128742324 L 90.9090909090909,28.14859419449842 L 91.55915591559156,27.55754759723861 L 91.75917591759175,26.670977701348896 L 91.40914091409141,25.316495915961834 L 91.25912591259126,23.764998598154833 L 92.1092109210921,22.16424739724285 L 92.009200920092,21.671708566193008 L 89.95899589958995,20.194092073043485 L 87.85878587858785,18.322444515054087 L 86.90869086908691,16.86945496345706 L 85.85858585858585,16.204527541539772 L 85.45854585458545,16.155273658434787 L 84.75847584758475,15.416465411860026 L 84.10841084108411,13.914221977158011 L 84.05840584058406,11.106750640173917 L 83.7083708370837,10.564957926019092 L 81.4081408140814,8.668683426477203 L 80.7080708070807,8.274652361637331 L 80.2080208020802,8.126890712322378 L 78.85788578857886,8.52092177716225 L 78.65786578657865,8.299279303189822 L 77.85778577857785,4.80225360273595 L 77.5077507750775,3.8418028821887606 L 76.8076807680768,3.078367694061507 L 78.8078807880788,2.0194092073043484 L 86.15861586158616,0.0 L 111.3111311131113,1.6253781424644755 L 122.16221622162216,0.5171657726023332 L 125.4125412541254,0.8126890712322378 L 131.96319631963195,3.4970257004538716 L 149.96499649964997,5.5903157324156965 L 153.91539153915392,5.319419375338284 L 157.1157115711571,3.8910567652937447 L 159.7159715971597,3.3738909926914116 L 162.26622662266226,3.644787349768824 L 164.4164416441644,4.974642193603395 L 167.3167316731673,8.299279303189822 L 168.86688668866887,9.45674555615695 L 173.11731173117312,10.78660039999152 L 169.76697669766975,13.249294555240725 L 167.16671667166716,15.785869535147407 L 166.6166616661666,18.22393674884412 L 166.8166816681668,20.98215420272323 L 167.7167716771677,26.400081344271484 L 167.4167416741674,27.92695172052599 L 166.8166816681668,28.444117493128324 L 166.7166716671667,28.936656324178166 L 167.8167816781678,30.340391992670213 L 168.61686168616862,30.80830388216756 L 170.3170317031703,31.103827180797467 L 171.16711671167116,31.818008485819735 L 173.51735173517352,36.718769854765654 L 175.06750675067505,37.97474387394275 L 187.66876687668767,40.806842152479334 L 188.9188918891889,41.422515691291636 L 190.9190919091909,41.324007925081666 z" /></g></g></g></svg>