<svg xmlns="http://www.w3.org/2000/svg" xmlns:xlink="http://www.w3.org/1999/xlink" width="424.70024217665195" height="500.0" viewBox="0.0 0.0 424.70024217665195 500.0" preserveAspectRatio="xMinYMin meet"><g transform="matrix(1,0,0,-1,0,500.0)"><g><g><path fill-rule="evenodd" fill="#D2EBD9" stroke="#A6A6A6" stroke-width="0.25" opacity="1" d="M 418.11673007170333,403.14031403140314 L 411.95796068320305,447.7447744774477 L 384.0098899409051,500.0 L 269.2868822282201,480.5980598059806 L 165.56471087154608,427.1427142714271 L 193.68267870042334,412.8912891289129 L 222.65013196219718,424.8424842484248 L 233.39612268833906,418.8418841884188 L 232.2917916255735,383.0883088308831 L 248.38954057896396,345.83458345834583 L 282.7087520679863,377.1377137713771 L 313.8423931836465,330.9330933093309 L 347.0997478815481,374.13741374137413 L 384.6470040155776,387.5387538753875 L 418.11673007170333,403.14031403140314 z" /><path fill-rule="evenodd" fill="#D2EBD9" stroke="#A6A6A6" stroke-width="0.25" opacity="1" d="M 418.11673007170333,403.14031403140314 L 384.6470040155776,387.5387538753875 L 347.0997478815481,374.13741374137413 L 313.8423931836465,330.9330933093309 L 282.7087520679863,377.1377137713771 L 248.38954057896396,345.83458345834583 L 240.8715944978291,304.08040804080406 L 235.51983627058056,266.8266826682668 L 251.617585223971,244.47444744474447 L 284.8749399218726,228.1228122812281 L 319.194151410895,245.97459745974595 L 339.58180180041325,274.27742774277425 L 370.7154429160734,275.77757775777576 L 382.52329043333606,284.7284728472847 L 407.2008422589821,299.62996299629964 L 421.2173519017759,315.031503150315 L 424.70024217665195,355.4855485548555 L 418.11673007170333,403.14031403140314 z" /><path fill-rule="evenodd" fill="#D2EBD9" stroke="#A6A6A6" stroke-width="0.25" opacity="1" d="M 421.2173519017759,315.031503150315 L 407.2008422589821,299.62996299629964 L 382.52329043333606,284.7284728472847 L 370.7154429160734,275.77757775777576 L 339.58180180041325,274.27742774277425 L 319.194151410895,245.97459745974595 L 284.8749399218726,228.1228122812281 L 300.9726888752631,213.2213221322132 L 321.3603392647813,213.2213221322132 L 322.4221960559021,198.3198319831983 L 313.8423931836465,178.9178917891789 L 327.7739542831506,168.51685168516852 L 342.8098464454203,174.46744674467445 L 367.572346814356,172.06720672067206 L 373.7311162028563,186.3186318631863 L 384.0098899409051,198.019801980198 L 416.460233477555,260.12601260126013 L 421.2173519017759,315.031503150315 z" /><path fill-rule="evenodd" fill="#D2EBD9" stroke="#A6A6A6" stroke-width="0.25" opacity="1" d="M 367.572346814356,172.06720672067206 L 342.8098464454203,174.46744674467445 L 327.7739542831506,168.51685168516852 L 325.65024070090914,155.1155115511551 L 316.0085810375328,138.7138713871387 L 311.718679601405,117.86178617861786 L 308.49063495639797,83.6083608360836 L 313.33270192390853,44.25442544254425 L 368.59172933383195,137.9137913791379 L 365.44863323211456,154.56545654565457 L 367.572346814356,172.06720672067206 z" /><path fill-rule="evenodd" fill="#D2EBD9" stroke="#A6A6A6" stroke-width="0.25" opacity="1" d="M 313.33270192390853,44.25442544254425 L 308.49063495639797,83.6083608360836 L 311.718679601405,117.86178617861786 L 316.0085810375328,138.7138713871387 L 325.65024070090914,155.1155115511551 L 327.7739542831506,168.51685168516852 L 313.8423931836465,178.9178917891789 L 285.9367967129934,140.21402140214022 L 254.84562986897805,123.8123812381238 L 220.48394410831085,123.8123812381238 L 214.07032908994157,88.1088108810881 L 196.91072334543037,65.75657565756575 L 213.00847229882083,43.404340434043405 L 221.33342954120744,6.750675067506751 L 297.65969568696636,17.7017701770177 L 313.33270192390853,44.25442544254425 z" /><path fill-rule="evenodd" fill="#D2EBD9" stroke="#A6A6A6" stroke-width="0.25" opacity="1" d="M 221.33342954120744,6.750675067506751 L 213.00847229882083,43.404340434043405 L 196.91072334543037,65.75657565756575 L 162.54903758476317,65.75657565756575 L 145.38943184025197,79.15791579157916 L 145.38943184025197,97.009700970097 L 142.16138719524494,116.36163616361635 L 92.84875781559768,138.7138713871387 L 54.197170618802666,144.66446644664467 L 17.24455428780085,142.76427642764276 L 55.51387303979239,61.6061606160616 L 174.314410830381,0.0 L 221.33342954120744,6.750675067506751 z" /><path fill-rule="evenodd" fill="#D2EBD9" stroke="#A6A6A6" stroke-width="0.25" opacity="1" d="M 17.24455428780085,142.76427642764276 L 54.197170618802666,144.66446644664467 L 92.84875781559768,138.7138713871387 L 142.16138719524494,116.36163616361635 L 145.38943184025197,97.009700970097 L 145.38943184025197,79.15791579157916 L 162.54903758476317,65.75657565756575 L 196.91072334543037,65.75657565756575 L 214.07032908994157,88.1088108810881 L 220.48394410831085,123.8123812381238 L 218.36023052606936,158.06580658065806 L 203.32433836379965,198.3198319831983 L 181.87483118316067,228.1228122812281 L 151.8455211302661,244.47444744474447 L 129.29168288686154,268.3268326832683 L 130.3960139496271,237.023702370237 L 114.29826499623665,216.17161716171617 L 87.4545253167043,199.8199819981998 L 49.90726918267487,186.36863686368636 L 0.0,179.3179317931793 L 17.24455428780085,142.76427642764276 z" /><path fill-rule="evenodd" fill="#D2EBD9" stroke="#A6A6A6" stroke-width="0.25" opacity="1" d="M 0.0,179.3179317931793 L 49.90726918267487,186.36863686368636 L 87.4545253167043,199.8199819981998 L 114.29826499623665,216.17161716171617 L 130.3960139496271,237.023702370237 L 129.29168288686154,268.3268326832683 L 130.3960139496271,305.58055805580557 L 130.3960139496271,318.981898189819 L 143.2657182580105,311.5311531153115 L 162.54903758476317,326.43264326432643 L 159.36346721140094,357.7357735773577 L 142.16138719524494,380.08800880088006 L 123.0904392267164,395.68956895689564 L 39.883341074495064,311.2311231123112 L 0.0,179.3179317931793 z" /><path fill-rule="evenodd" fill="#D2EBD9" stroke="#A6A6A6" stroke-width="0.25" opacity="1" d="M 123.0904392267164,395.68956895689564 L 142.16138719524494,380.08800880088006 L 159.36346721140094,357.7357735773577 L 162.54903758476317,326.43264326432643 L 143.2657182580105,311.5311531153115 L 130.3960139496271,318.981898189819 L 130.3960139496271,305.58055805580557 L 129.29168288686154,268.3268326832683 L 151.8455211302661,244.47444744474447 L 181.87483118316067,228.1228122812281 L 203.32433836379965,198.3198319831983 L 218.36023052606936,158.06580658065806 L 220.48394410831085,123.8123812381238 L 254.84562986897805,123.8123812381238 L 285.9367967129934,140.21402140214022 L 313.8423931836465,178.9178917891789 L 322.4221960559021,198.3198319831983 L 321.3603392647813,213.2213221322132 L 300.9726888752631,213.2213221322132 L 284.8749399218726,228.1228122812281 L 251.617585223971,244.47444744474447 L 235.51983627058056,266.8266826682668 L 240.8715944978291,304.08040804080406 L 248.38954057896396,345.83458345834583 L 232.2917916255735,383.0883088308831 L 233.39612268833906,418.8418841884188 L 222.65013196219718,424.8424842484248 L 193.68267870042334,412.8912891289129 L 165.56471087154608,427.1427142714271 L 142.24633573853458,415.1415141514151 L 123.0904392267164,395.68956895689564 z" /></g></g></g></svg>