<svg xmlns="http://www.w3.org/2000/svg" xmlns:xlink="http://www.w3.org/1999/xlink" width="500.0" height="367.9036462234799" viewBox="0.0 0.0 500.0 367.9036462234799" preserveAspectRatio="xMinYMin meet"><g transform="matrix(1,0,0,-1,0,367.9036462234799)"><g><g><path fill-rule="evenodd" fill="#D2EBD9" stroke="#A6A6A6" stroke-width="0.25" opacity="1" d="M 457.5957595759576,89.66708529319136 L 452.89528952895284,88.78402823654935 L 449.99499949995,88.04814735601434 L 447.8447844784478,85.58294640622204 L 445.7445744574457,84.11118464515201 L 444.044404440444,84.11118464515201 L 443.09430943094304,87.79058904782708 L 438.09380938093807,89.26235080889711 L 433.34333433343335,91.94831602284991 L 431.1931193119312,93.67763609210719 L 428.79287928792877,95.1493978531772 L 426.89268926892686,94.4135169726422 L 426.89268926892686,92.46343263922441 L 425.69256925692565,91.21243514231489 L 426.19261926192615,89.74067338124486 L 428.5428542854285,86.7971498591048 L 429.042904290429,84.84706552568703 L 427.8427842784278,83.375303764617 L 425.69256925692565,83.375303764617 L 423.0923092309231,83.89042038099151 L 422.14221422142214,83.375303764617 L 421.64216421642163,81.42521943119921 L 420.94209420942093,80.43178024247695 L 420.4420442044204,78.99681252543367 L 419.49194919491947,78.73925421724641 L 418.5418541854185,79.47513509778143 L 417.39173917391736,80.94689685885146 L 415.4415441544154,81.42521943119921 L 413.2913291329133,80.94689685885146 L 412.14121412141213,79.95345767012918 L 411.64116411641163,78.73925421724641 L 409.99099909990997,78.48169590905917 L 409.040904090409,77.26749245617638 L 408.79087908790876,75.53817238691911 L 407.8407840784078,73.84564636168858 L 406.39063906390635,72.85220717296632 L 403.7903790379038,72.1163262924313 L 401.8901890189019,72.37388460061855 L 399.48994899489946,73.84564636168858 L 398.5398539853985,73.10976548115356 L 397.08970897089705,72.37388460061855 L 395.4395439543954,72.37388460061855 L 393.7893789378938,72.1163262924313 L 392.5892589258926,71.15968114773578 L 392.5892589258926,69.17280277029124 L 393.03930393039303,67.22271843687346 L 391.8891889188919,65.75095667580344 L 389.98899889988996,64.53675322292067 L 389.2389238923892,63.06499146185063 L 389.2389238923892,61.59322970078061 L 388.038803880388,61.372465436620104 L 386.88868886888685,61.85078800896786 L 385.1885188518852,62.10834631715512 L 384.4884488448845,61.372465436620104 L 384.23842384238424,59.900703675550076 L 383.03830383038303,59.38558705917557 L 381.6381638163816,59.38558705917557 L 380.88808880888087,58.686500222667306 L 380.88808880888087,57.693061033945035 L 380.18801880188016,56.478857581062265 L 378.5378537853785,56.95718015341002 L 376.38763876387634,58.42894191448005 L 374.4874487448745,60.37902624789783 L 373.2873287328733,60.37902624789783 L 371.8371837183718,61.85078800896786 L 370.18701870187016,62.586668889502874 L 365.63656365636564,62.586668889502874 L 362.3362336233623,60.8573488202456 L 360.6360636063606,60.8573488202456 L 359.9359935993599,60.121467939710584 L 359.2359235923592,58.90726448682781 L 357.78577857785774,58.90726448682781 L 356.3856385638564,60.121467939710584 L 354.2354235423542,60.8573488202456 L 351.8351835183518,61.11490712843285 L 350.6350635063506,61.11490712843285 L 348.3348334833483,60.23185007179083 L 344.7844784478448,59.20161683904182 L 343.18431843184317,59.60635132333607 L 341.6341634163416,61.40925948064685 L 341.2341234123412,63.543314034198396 L 341.38413841384136,66.08210307204419 L 341.08410841084105,68.14256953754223 L 339.38393839383934,68.87845041807724 L 339.38393839383934,69.39356703445175 L 342.7342734273427,70.57097644330777 L 341.68416841684166,71.49082754397654 L 342.18421842184216,73.69847018558157 L 341.88418841884186,74.83908555041084 L 341.38413841384136,75.64855451899936 L 341.68416841684166,76.42122944356113 L 341.6341634163416,76.82596392785538 L 340.1340134013401,77.7826090725509 L 339.68396839683965,78.59207804113942 L 338.5338533853385,78.51848995308592 L 338.28382838283824,78.84963634932667 L 338.2338233823382,79.54872318583493 L 337.6837683768377,80.8365147267712 L 337.63376337633764,82.12430626770748 L 339.38393839383934,84.88385956971378 L 338.68386838683864,86.2084451546768 L 337.93379337933794,86.31882728675706 L 336.0836083608361,85.39897618608829 L 332.9332933293329,86.02447493454305 L 329.6329632963296,86.02447493454305 L 328.88288828882884,85.54615236219529 L 328.1828182818282,83.55927398475076 L 327.1827182718272,83.1545395004565 L 327.6827682768277,84.95744765776728 L 326.6826682668267,85.28859405400803 L 325.032503250325,84.84706552568703 L 323.8323832383238,84.25836082125902 L 322.98229822982296,82.74980501616224 L 322.18221822182215,82.60262884005523 L 321.2321232123212,82.86018714824249 L 320.7320732073207,83.48568589669725 L 321.032103210321,84.88385956971378 L 319.6319631963196,83.89042038099151 L 319.58195819581954,79.43834105375468 L 317.6817681768177,78.55528399711267 L 317.73177317731773,77.81940311657765 L 318.3818381838184,77.19390436812289 L 318.53185318531854,76.64199370772162 L 318.5818581858186,72.92579526101981 L 318.3818381838184,71.9691501163243 L 318.43184318431844,71.45403349994979 L 318.7818781878188,70.79174070746828 L 318.981898189819,68.65768615391674 L 319.58195819581954,67.40668865700721 L 320.68206820682065,66.19248520412444 L 321.8321832183218,65.27263410345567 L 321.8321832183218,63.72728425433215 L 321.98219821982195,63.32254977003789 L 323.2323232323232,62.51308080144938 L 325.3325332533253,60.19505602776408 L 325.4825482548255,59.900703675550076 L 325.032503250325,58.64970617864056 L 325.1825182518252,58.3185597823998 L 326.23262326232623,57.98741338615904 L 326.63266326632663,57.76664912199854 L 326.73267326732673,57.472296769784535 L 327.13271327132713,54.89671368791199 L 326.5826582658266,53.75609832308272 L 327.13271327132713,52.7258650903337 L 327.63276327632764,50.70219266886241 L 328.43284328432844,49.85592965624715 L 329.88298829882984,48.752108335444625 L 330.18301830183015,46.80202400202684 L 330.5330533053305,46.17652525357208 L 330.38303830383035,45.62461459317082 L 330.08300830083004,45.477438417063816 L 328.88288828882884,45.40385032901032 L 328.9328932893289,45.14629202082306 L 329.58295829582954,44.48399922834155 L 329.5329532953295,44.00567665599379 L 328.68286828682864,42.57070893895052 L 328.5828582858286,42.12918041062951 L 328.8328832883288,41.06215313385374 L 329.38293829382934,40.43665438539898 L 329.88298829882984,38.67054027211495 L 329.7329732973297,35.61663461789464 L 329.18291829182914,34.476019253065374 L 329.08290829082904,34.034490724744366 L 329.2329232923292,33.5561681523966 L 329.78297829782974,32.82028727186159 L 330.4330433043304,32.34196469951383 L 332.3332333233323,31.495701686898567 L 333.38333833383336,31.311731466764815 L 335.2335233523352,31.311731466764815 L 337.63376337633764,32.010818303273076 L 338.68386838683864,31.532495730925316 L 339.3339333933393,29.91355779374829 L 339.08390839083904,28.625766252812014 L 340.78407840784075,27.74270919617 L 341.28412841284126,27.77950324019675 L 341.68416841684166,28.221031768517758 L 342.08420842084206,28.331413900598008 L 345.23452345234523,28.92011860502602 L 345.8845884588459,28.736148384892267 L 346.8846884688469,28.073855592410755 L 347.63476347634764,27.963473460330505 L 350.28502850285025,28.515384120731763 L 350.7350735073507,28.29461985657126 L 351.88518851885186,27.26438662382224 L 353.2353235323532,27.632327064089747 L 354.5354535453545,27.70591515214325 L 355.0855085508551,27.6691211081165 L 355.73557355735574,27.19079853576874 L 356.4856485648565,28.147443680464256 L 357.9357935793579,27.374768755902494 L 359.4359435943594,27.411562799929243 L 360.8360836083608,27.6691211081165 L 362.08620862086207,27.485150887982744 L 363.1363136313631,26.344535523153475 L 363.4863486348635,24.762391630003197 L 363.3863386338634,23.106659648799415 L 363.0863086308631,21.67169193175614 L 361.88618861886187,18.83855054169634 L 361.58615861586156,17.477170912706566 L 361.9361936193619,15.858232975529535 L 362.88628862886287,14.49685334653976 L 364.0864086408641,13.871354598085 L 365.4865486548655,13.724178421977998 L 367.036703670367,13.871354598085 L 368.48684868486845,13.31944393768374 L 369.8369836983698,13.429826069763992 L 370.78707870787076,14.239295038352505 L 371.037103710371,15.821438931502785 L 372.3872387238724,19.132902893910344 L 375.33753375337534,19.169696937937093 L 378.5378537853785,17.513964956733314 L 380.5380538053805,15.747850843449283 L 380.38803880388036,14.864793786807267 L 380.5380538053805,14.165706950299004 L 381.38813881388137,13.35623798171049 L 382.1882188218822,13.061885629496485 L 384.5884588458846,12.877915409362732 L 385.88858885888584,12.25241666090797 L 386.68866886688664,10.743860855811194 L 388.38883888388835,10.52309659165069 L 393.63936393639364,10.854242987891446 L 395.2895289528953,10.633478723730942 L 396.88968896889685,9.97118593124943 L 398.18981898189816,8.90415865447366 L 400.49004900490047,6.328575572601114 L 400.9400940094009,5.55590064803935 L 400.990099009901,4.9671959436113395 L 401.2901290129013,4.636049547370583 L 402.44024402440243,4.599255503343833 L 403.14031403140314,4.820019767504337 L 405.5405540554055,6.1446053524673605 L 407.09070907090705,6.770104100922122 L 408.49084908490846,7.027662409109377 L 409.89098909890987,6.9540743210558755 L 411.5911591159116,6.549339836761618 L 415.09150915091504,5.261548295825345 L 416.5416541654165,4.231315063076326 L 418.8418841884188,0.662292792481512 L 420.1920192019202,0.0 L 433.89338933893384,3.569022270594814 L 436.89368936893686,5.261548295825345 L 439.5939593959396,7.726749245617639 L 441.04410441044104,8.462630126152652 L 443.044304430443,8.536218214206153 L 447.9447944794479,6.880486233002374 L 449.6949694969497,6.696516012868621 L 450.74507450745074,6.917280277029125 L 454.7454745474547,9.272099094741167 L 455.6455645564556,9.41927527084817 L 455.9455945594559,9.161716962660915 L 460.84608460846084,7.101250497162877 L 462.49624962496245,6.733310056895371 L 469.14691469146914,6.475751748708117 L 472.19721972197215,6.9540743210558755 L 478.44784478447843,9.308893138767917 L 481.8481848184818,9.934391887222679 L 488.84888488848884,10.48630254762394 L 491.5491549154915,10.191950195409934 L 496.8996899689969,8.241865861992148 L 499.14991499149914,8.168277773938646 L 499.2999299929993,10.375920415543687 L 499.84998499849985,12.583563057148726 L 500.0,14.533647390566511 L 498.94989498949894,15.968615107609788 L 498.14981498149814,14.46005930251301 L 496.7996799679968,18.580992233509086 L 496.1996199619962,18.360227969348582 L 495.7495749574957,17.477170912706566 L 495.7995799579958,16.851672164251802 L 495.09950995099507,17.440376868679813 L 494.19941994199417,19.096108849883592 L 492.69926992699266,19.795195686391857 L 493.2493249324932,20.310312302766366 L 494.9494949494949,21.08298722732813 L 495.1495149514951,22.039632372023647 L 494.79947994799477,24.100098837521685 L 495.19951995199517,27.595533020062998 L 494.79947994799477,28.441796032678262 L 493.2493249324932,29.32485308932028 L 493.1493149314931,30.5758505862298 L 493.6493649364936,31.20134933468456 L 494.29942994299427,31.64287786300557 L 495.1495149514951,33.81372646058386 L 497.34973497349733,34.36563712098512 L 497.999799979998,35.43266439776089 L 497.84978497849784,36.2421333663494 L 496.999699969997,37.78748321547293 L 496.999699969997,38.155423655740435 L 497.5997599759976,38.744128360168446 L 497.74977497749774,39.66397946083721 L 497.4997499749975,41.50368166217475 L 497.24972497249723,42.20276849868301 L 496.5996599659966,43.19620768740528 L 495.5995599559956,43.56414812767279 L 495.5495549554955,44.07926474404729 L 496.1496149614961,45.256674152903315 L 495.8495849584958,46.61805378189309 L 496.94969496949693,49.156842819738884 L 496.7996799679968,49.59837134805989 L 495.9495949594959,50.48142840470191 L 495.999599959996,50.996545021076415 L 496.4996499649965,51.29089737329042 L 497.5997599759976,50.81257480094266 L 497.94979497949794,50.81257480094266 L 499.1999199919992,51.69563185758468 L 499.44994499449945,52.21074847395919 L 499.2999299929993,54.38159707153748 L 498.74987498749874,56.18450522884826 L 498.04980498049804,56.92038610938327 L 497.84978497849784,55.448624348313245 L 497.24972497249723,54.49197920361773 L 496.2996299629963,54.12403876335022 L 495.049504950495,54.34480302751073 L 495.2995299529953,55.191066040125996 L 495.4995499549955,57.54588485783803 L 496.1996199619962,58.20817765031955 L 496.3496349634963,58.57611809058705 L 495.2995299529953,59.16482279501506 L 494.5494549454945,60.710172644138595 L 493.39933993399336,62.329110581315625 L 493.99939993999396,63.46972594614489 L 494.09940994099406,64.0584306505729 L 491.9491949194919,64.72072344305441 L 488.84888488848884,66.78118990855245 L 487.3987398739874,67.1123363047932 L 486.998699869987,68.43692188975623 L 486.9486948694869,71.38044541189629 L 486.1986198619862,72.4842667326988 L 485.2485248524852,73.36732378934082 L 484.4484448444844,74.39755702208984 L 484.19841984198416,75.86931878315987 L 484.49844984498446,76.78916988382863 L 485.5485548554855,78.29772568892541 L 485.6485648564856,79.18078274556743 L 485.29852985298527,79.99025171415595 L 483.49834983498346,81.64598369535972 L 481.49814981498145,84.44233104139278 L 480.8980898089809,86.0612689785698 L 480.8980898089809,87.86417713588058 L 479.2979297929793,87.34906051950607 L 478.3978397839784,87.42264860755958 L 478.1978197819782,88.26891162017483 L 478.2978297829783,89.44632102903086 L 477.8977897789779,89.81426146929837 L 475.8475847584758,89.74067338124486 L 474.29742974297426,89.4095269850041 L 473.49734973497345,89.51990911708437 L 472.69726972697265,90.14540786553913 L 472.2472247224722,90.95487683412763 L 471.6471647164716,91.61716962660915 L 470.4970497049705,91.8011398467429 L 469.24692469246924,91.13884705426139 L 468.44684468446843,89.74067338124486 L 467.9467946794679,88.01135331198758 L 467.7467746774677,86.4292094188373 L 463.89638963896385,83.33850972059025 L 463.4463446344634,83.41209780864375 L 462.4462446244624,84.22156677723227 L 462.09620962096204,84.77347743763353 L 461.2961296129613,87.01791412326531 L 458.4958495849585,88.52646992836209 L 457.7957795779578,88.7472341925226 L 457.5957595759576,89.66708529319136 z" /><path fill-rule="evenodd" fill="#D2EBD9" stroke="#A6A6A6" stroke-width="0.25" opacity="1" d="M 457.5957595759576,89.66708529319136 L 458.74587458745873,94.1191646204282 L 458.94589458945893,95.62772042552497 L 458.3958395839584,96.58436557022048 L 456.99569956995697,96.952306010488 L 456.1456145614561,97.393834538809 L 455.6455645564556,97.90895115518352 L 454.4454445444544,99.74865335652105 L 449.74497449744973,103.17049945100885 L 448.2448244824482,104.86302547623939 L 446.4446444644464,107.6961668662992 L 445.4445444544454,110.71327847649275 L 443.7443744374437,113.9511543508468 L 442.6942694269427,115.60688633205058 L 441.54415441544154,116.56353147674609 L 448.4948494849485,120.46370014358166 L 451.1951195119512,123.29684153364147 L 452.4952495249525,127.01303998034328 L 452.99529952995294,130.39809203080435 L 452.99529952995294,132.09061805603488 L 452.4952495249525,133.67276194918514 L 451.0951095109511,135.40208201844243 L 449.54495449544953,136.57949142729845 L 448.2448244824482,137.86728296823472 L 447.4447444744474,140.03813156581302 L 447.4447444744474,143.53356574835433 L 449.24492449244923,149.93572940900896 L 449.84498449844983,153.32078145947 L 449.6949694969497,155.1972777048343 L 446.69466946694666,162.22494011394366 L 445.89458945894586,163.47593761085318 L 444.7444744474447,164.24861253541496 L 441.54415441544154,165.38922790024424 L 440.54405440544053,166.2354909128595 L 439.0939093909391,168.44313355446454 L 440.2940294029403,168.88466208278555 L 440.64406440644063,169.91489531553455 L 440.0940094009401,171.01871663633707 L 432.54325432543254,173.85185802639688 L 431.4931493149315,174.03582824653063 L 431.64316431643164,177.67843860517894 L 431.44314431443144,179.37096463040947 L 430.44304430443043,183.05036903308454 L 430.2930293029303,184.81648314636857 L 430.7930793079308,186.25145086341186 L 432.8932893289329,187.72321262448187 L 433.3933393339334,190.51955997051493 L 433.99339933993394,191.40261702715694 L 435.5435543554355,192.94796687628047 L 435.99359935993596,193.68384775681548 L 436.09360936093606,195.082021429832 L 435.4435443544354,195.56034400217976 L 434.6434643464346,195.78110826634028 L 434.09340934093404,196.25943083868802 L 433.89338933893384,197.1792819393568 L 434.8434843484348,199.3501305369351 L 432.64326432643264,199.6444828891491 L 431.3931393139314,200.2331875935771 L 430.74307430743073,201.15303869424588 L 430.2930293029303,202.3304481031019 L 428.6428642864286,203.8022098641719 L 428.042804280428,206.23061676993746 L 423.54235423542355,209.79963904053227 L 418.4418441844184,212.19125190227106 L 416.99169916991696,213.40545535515383 L 414.24142414241425,216.68012527353466 L 413.14131413141314,217.37921211004291 L 413.0913091309131,218.26226916668492 L 411.1911191119112,224.9955792235803 L 410.7910791079108,225.8050481921688 L 410.09100910091007,226.61451716075732 L 409.2409240924092,227.09283973310508 L 407.3407340734073,227.5343682614261 L 405.040504050405,229.11651215457638 L 400.59005900590057,231.76568332450242 L 398.88988898889886,233.75256170194695 L 398.1398139813981,234.01012001013422 L 396.88968896889685,233.82614979000047 L 394.33943394339434,233.01668082141194 L 393.4893489348935,232.9062986893317 L 393.63936393639364,232.28079994087693 L 402.1902190219022,220.91144033661098 L 402.7902790279028,219.5500607076212 L 403.14031403140314,216.97447762574865 L 402.990299029903,216.2018027011869 L 396.78967896789675,200.49074590176437 L 390.1390139013901,190.26200166232766 L 389.1389138913891,189.15818034152517 L 388.1388138813881,188.6798577691774 L 375.93759375937594,187.09771387602711 L 372.4372437243724,187.06091983200037 L 350.5350535053505,191.10826467494294 L 348.98489848984894,190.48276592648818 L 327.6827682768277,175.1028555233064 L 326.7826782678268,174.6613269949854 L 304.58045804580456,174.2933865547179 L 300.58005800580054,174.91888530317266 L 265.2265226522652,188.42229946099013 L 263.87638763876384,189.19497438555192 L 262.4262426242624,190.2987957063544 L 261.6761676167617,191.8809395995047 L 258.1258125812581,195.22919760593902 L 254.77547754775478,194.1253762851365 L 253.57535753575357,193.49987753668174 L 252.07520752075206,192.21208599574547 L 249.67496749674967,189.3421505616589 L 245.77457745774575,186.54580321562585 L 235.72357235723572,184.08060226583356 L 235.62356235623562,168.29595737835754 L 237.47374737473746,162.85043886239842 L 238.5238523852385,161.3050890132749 L 238.97389738973897,159.83332725220487 L 239.32393239323932,153.46795763557702 L 240.07400740074007,149.75175918887518 L 240.22402240224022,148.09602720767143 L 240.22402240224022,146.69785353465488 L 239.47394739473947,143.23921339614031 L 238.82388238823881,142.13539207533782 L 236.87368736873685,141.1787469306423 L 236.57365736573655,139.70698516957228 L 236.6236623662366,138.1984293644755 L 236.07360736073605,136.1747569430042 L 231.27312731273125,131.57550143966037 L 229.37293729372936,130.06694563456358 L 228.97289728972896,129.8461813704031 L 225.27252725272527,128.88953622570756 L 224.47244724472446,128.52159578544007 L 222.9222922292229,128.41121365335982 L 221.12211221122112,127.8960970369853 L 219.021902190219,125.32051395511276 L 217.57175717571755,122.78172491726696 L 217.27172717271725,121.67790359646445 L 218.57185718571856,120.61087631968867 L 219.6219621962196,119.17590860264539 L 220.32203220322032,117.63055875352187 L 221.9221922192219,112.22183428158952 L 222.47224722472245,111.55954148910801 L 225.82258225822582,109.53586906763672 L 226.9226922692269,109.13113458334246 L 227.9227922792279,109.46228097958323 L 232.9232923292329,112.25862832561627 L 236.2236223622362,113.14168538225829 L 239.57395739573957,112.88412707407103 L 243.024302430243,111.26518913689401 L 244.62446244624462,109.97739759595773 L 245.7245724572457,108.61601796696796 L 246.47464746474645,106.99708002979092 L 247.57475747574756,103.39126371516936 L 248.07480748074806,102.25064835034009 L 248.92489248924892,101.36759129369807 L 255.47554755475545,96.62115961424723 L 257.4257425742574,95.70130851357847 L 258.87588758875887,95.51733829344472 L 260.32603260326033,95.84848468968548 L 265.07650765076505,97.57780475894276 L 269.5769576957696,100.3741521049758 L 271.12711271127114,101.07323894148406 L 275.77757775777576,102.14026621825984 L 279.5779577957796,104.05355650765087 L 281.17811781178114,104.45829099194513 L 283.47834783478345,104.38470290389162 L 284.3284328432843,104.53187907999863 L 286.9286928692869,105.93005275301516 L 288.028802880288,106.1140229731489 L 289.72897289728974,105.78287657690815 L 291.77917791779174,105.0837897403999 L 293.7293729372937,104.09035055167762 L 295.1295129512951,102.94973518684836 L 295.5295529552955,102.25064835034009 L 296.029602960296,100.66850445718981 L 296.6296629662966,99.82224144457454 L 298.42984298429843,100.59491636913631 L 299.7799779977998,100.77888658927006 L 300.0800080008001,101.03644489745732 L 300.38003800380034,101.88270791007258 L 300.9300930093009,102.4714126145006 L 303.08030803080305,102.4714126145006 L 303.48034803480346,102.3242364383936 L 303.68036803680366,102.02988408617959 L 303.3303330333033,100.66850445718981 L 303.28032803280325,99.60147718041404 L 302.5302530253025,98.31368563947777 L 302.7302730273027,97.35704049478225 L 303.28032803280325,96.91551196646124 L 303.78037803780376,96.84192387840774 L 305.3305330533053,97.541010714916 L 306.2806280628063,97.61459880296951 L 309.03090309030904,96.657953658274 L 309.13091309130914,96.47398343814024 L 308.73087308730874,95.70130851357847 L 307.2307230723072,94.22954675250844 L 306.8306830683068,93.49366587197343 L 306.6306630663066,91.10205301023464 L 305.68056805680567,89.77746742527161 L 305.58055805580557,89.4095269850041 L 305.78057805780577,89.00479250070985 L 306.2806280628063,88.71044014849585 L 307.33073307330733,88.48967588433534 L 310.3310331033103,88.8944103686296 L 311.38113811381135,88.9679984566831 L 311.8311831183118,88.8208222805761 L 312.08120812081205,88.52646992836209 L 312.08120812081205,87.97455926796083 L 311.08110811081104,86.2084451546768 L 311.2311231123112,85.84050471440929 L 312.1312131213121,85.25180000998128 L 312.4312431243124,84.88385956971378 L 312.48124812481245,84.22156677723227 L 312.18121812181215,82.78659906018899 L 312.2312231223122,82.30827648784123 L 312.58125812581255,81.82995391549348 L 313.3313331333133,81.27804325509221 L 314.88148814881487,80.57895641858396 L 315.6315631563156,78.33451973295216 L 316.2316231623162,77.89299120463116 L 317.73177317731773,77.81940311657765 L 317.6817681768177,78.55528399711267 L 319.58195819581954,79.43834105375468 L 319.6319631963196,83.89042038099151 L 321.032103210321,84.88385956971378 L 320.7320732073207,83.48568589669725 L 321.2321232123212,82.86018714824249 L 322.18221822182215,82.60262884005523 L 322.98229822982296,82.74980501616224 L 323.8323832383238,84.25836082125902 L 325.032503250325,84.84706552568703 L 326.6826682668267,85.28859405400803 L 327.6827682768277,84.95744765776728 L 327.1827182718272,83.1545395004565 L 328.1828182818282,83.55927398475076 L 328.88288828882884,85.54615236219529 L 329.6329632963296,86.02447493454305 L 332.9332933293329,86.02447493454305 L 336.0836083608361,85.39897618608829 L 337.93379337933794,86.31882728675706 L 338.68386838683864,86.2084451546768 L 339.38393839383934,84.88385956971378 L 337.63376337633764,82.12430626770748 L 337.6837683768377,80.8365147267712 L 338.2338233823382,79.54872318583493 L 338.28382838283824,78.84963634932667 L 338.5338533853385,78.51848995308592 L 339.68396839683965,78.59207804113942 L 340.1340134013401,77.7826090725509 L 341.6341634163416,76.82596392785538 L 341.68416841684166,76.42122944356113 L 341.38413841384136,75.64855451899936 L 341.88418841884186,74.83908555041084 L 342.18421842184216,73.69847018558157 L 341.68416841684166,71.49082754397654 L 342.7342734273427,70.57097644330777 L 339.38393839383934,69.39356703445175 L 339.38393839383934,68.87845041807724 L 341.08410841084105,68.14256953754223 L 341.38413841384136,66.08210307204419 L 341.2341234123412,63.543314034198396 L 341.6341634163416,61.40925948064685 L 343.18431843184317,59.60635132333607 L 344.7844784478448,59.20161683904182 L 348.3348334833483,60.23185007179083 L 350.6350635063506,61.11490712843285 L 351.8351835183518,61.11490712843285 L 354.2354235423542,60.8573488202456 L 356.3856385638564,60.121467939710584 L 357.78577857785774,58.90726448682781 L 359.2359235923592,58.90726448682781 L 359.9359935993599,60.121467939710584 L 360.6360636063606,60.8573488202456 L 362.3362336233623,60.8573488202456 L 365.63656365636564,62.586668889502874 L 370.18701870187016,62.586668889502874 L 371.8371837183718,61.85078800896786 L 373.2873287328733,60.37902624789783 L 374.4874487448745,60.37902624789783 L 376.38763876387634,58.42894191448005 L 378.5378537853785,56.95718015341002 L 380.18801880188016,56.478857581062265 L 380.88808880888087,57.693061033945035 L 380.88808880888087,58.686500222667306 L 381.6381638163816,59.38558705917557 L 383.03830383038303,59.38558705917557 L 384.23842384238424,59.900703675550076 L 384.4884488448845,61.372465436620104 L 385.1885188518852,62.10834631715512 L 386.88868886888685,61.85078800896786 L 388.038803880388,61.372465436620104 L 389.2389238923892,61.59322970078061 L 389.2389238923892,63.06499146185063 L 389.98899889988996,64.53675322292067 L 391.8891889188919,65.75095667580344 L 393.03930393039303,67.22271843687346 L 392.5892589258926,69.17280277029124 L 392.5892589258926,71.15968114773578 L 393.7893789378938,72.1163262924313 L 395.4395439543954,72.37388460061855 L 397.08970897089705,72.37388460061855 L 398.5398539853985,73.10976548115356 L 399.48994899489946,73.84564636168858 L 401.8901890189019,72.37388460061855 L 403.7903790379038,72.1163262924313 L 406.39063906390635,72.85220717296632 L 407.8407840784078,73.84564636168858 L 408.79087908790876,75.53817238691911 L 409.040904090409,77.26749245617638 L 409.99099909990997,78.48169590905917 L 411.64116411641163,78.73925421724641 L 412.14121412141213,79.95345767012918 L 413.2913291329133,80.94689685885146 L 415.4415441544154,81.42521943119921 L 417.39173917391736,80.94689685885146 L 418.5418541854185,79.47513509778143 L 419.49194919491947,78.73925421724641 L 420.4420442044204,78.99681252543367 L 420.94209420942093,80.43178024247695 L 421.64216421642163,81.42521943119921 L 422.14221422142214,83.375303764617 L 423.0923092309231,83.89042038099151 L 425.69256925692565,83.375303764617 L 427.8427842784278,83.375303764617 L 429.042904290429,84.84706552568703 L 428.5428542854285,86.7971498591048 L 426.19261926192615,89.74067338124486 L 425.69256925692565,91.21243514231489 L 426.89268926892686,92.46343263922441 L 426.89268926892686,94.4135169726422 L 428.79287928792877,95.1493978531772 L 431.1931193119312,93.67763609210719 L 433.34333433343335,91.94831602284991 L 438.09380938093807,89.26235080889711 L 443.09430943094304,87.79058904782708 L 444.044404440444,84.11118464515201 L 445.7445744574457,84.11118464515201 L 447.8447844784478,85.58294640622204 L 449.99499949995,88.04814735601434 L 452.89528952895284,88.78402823654935 L 457.5957595759576,89.66708529319136 z" /><path fill-rule="evenodd" fill="#D2EBD9" stroke="#A6A6A6" stroke-width="0.25" opacity="1" d="M 339.08390839083904,28.625766252812014 L 339.3339333933393,29.91355779374829 L 338.68386838683864,31.532495730925316 L 337.63376337633764,32.010818303273076 L 335.2335233523352,31.311731466764815 L 333.38333833383336,31.311731466764815 L 332.3332333233323,31.495701686898567 L 330.4330433043304,32.34196469951383 L 329.78297829782974,32.82028727186159 L 329.2329232923292,33.5561681523966 L 329.08290829082904,34.034490724744366 L 329.18291829182914,34.476019253065374 L 329.7329732973297,35.61663461789464 L 329.88298829882984,38.67054027211495 L 329.38293829382934,40.43665438539898 L 328.8328832883288,41.06215313385374 L 328.5828582858286,42.12918041062951 L 328.68286828682864,42.57070893895052 L 329.5329532953295,44.00567665599379 L 329.58295829582954,44.48399922834155 L 328.9328932893289,45.14629202082306 L 328.88288828882884,45.40385032901032 L 330.08300830083004,45.477438417063816 L 330.38303830383035,45.62461459317082 L 330.5330533053305,46.17652525357208 L 330.18301830183015,46.80202400202684 L 329.88298829882984,48.752108335444625 L 328.43284328432844,49.85592965624715 L 327.63276327632764,50.70219266886241 L 327.13271327132713,52.7258650903337 L 326.5826582658266,53.75609832308272 L 327.13271327132713,54.89671368791199 L 326.73267326732673,57.472296769784535 L 326.63266326632663,57.76664912199854 L 326.23262326232623,57.98741338615904 L 325.1825182518252,58.3185597823998 L 325.032503250325,58.64970617864056 L 325.4825482548255,59.900703675550076 L 325.3325332533253,60.19505602776408 L 323.2323232323232,62.51308080144938 L 321.98219821982195,63.32254977003789 L 321.8321832183218,63.72728425433215 L 321.8321832183218,65.27263410345567 L 320.68206820682065,66.19248520412444 L 319.58195819581954,67.40668865700721 L 318.981898189819,68.65768615391674 L 318.7818781878188,70.79174070746828 L 318.43184318431844,71.45403349994979 L 318.3818381838184,71.9691501163243 L 318.5818581858186,72.92579526101981 L 318.53185318531854,76.64199370772162 L 318.3818381838184,77.19390436812289 L 317.73177317731773,77.81940311657765 L 316.2316231623162,77.89299120463116 L 315.6315631563156,78.33451973295216 L 314.88148814881487,80.57895641858396 L 313.3313331333133,81.27804325509221 L 312.58125812581255,81.82995391549348 L 312.2312231223122,82.30827648784123 L 312.18121812181215,82.78659906018899 L 312.48124812481245,84.22156677723227 L 312.4312431243124,84.88385956971378 L 312.1312131213121,85.25180000998128 L 311.2311231123112,85.84050471440929 L 311.08110811081104,86.2084451546768 L 312.08120812081205,87.97455926796083 L 312.08120812081205,88.52646992836209 L 311.8311831183118,88.8208222805761 L 311.38113811381135,88.9679984566831 L 310.3310331033103,88.8944103686296 L 307.33073307330733,88.48967588433534 L 306.2806280628063,88.71044014849585 L 305.78057805780577,89.00479250070985 L 305.58055805580557,89.4095269850041 L 305.68056805680567,89.77746742527161 L 306.6306630663066,91.10205301023464 L 306.8306830683068,93.49366587197343 L 307.2307230723072,94.22954675250844 L 308.73087308730874,95.70130851357847 L 309.13091309130914,96.47398343814024 L 309.03090309030904,96.657953658274 L 306.2806280628063,97.61459880296951 L 305.3305330533053,97.541010714916 L 303.78037803780376,96.84192387840774 L 303.28032803280325,96.91551196646124 L 302.7302730273027,97.35704049478225 L 302.5302530253025,98.31368563947777 L 303.28032803280325,99.60147718041404 L 303.3303330333033,100.66850445718981 L 303.68036803680366,102.02988408617959 L 303.48034803480346,102.3242364383936 L 303.08030803080305,102.4714126145006 L 300.9300930093009,102.4714126145006 L 300.38003800380034,101.88270791007258 L 300.0800080008001,101.03644489745732 L 299.7799779977998,100.77888658927006 L 298.42984298429843,100.59491636913631 L 296.6296629662966,99.82224144457454 L 299.8799879987999,97.541010714916 L 301.8301830183018,93.60404800405368 L 301.48014801480144,89.33593889695061 L 299.1799179917992,85.7669166263558 L 295.17951795179516,84.00080251307176 L 289.02890289028903,83.48568589669725 L 285.77857785778576,82.60262884005523 L 282.5282528252825,82.56583479602848 L 279.02790279027903,81.27804325509221 L 277.6277627762776,81.31483729911896 L 276.37763776377636,80.7629266387177 L 272.47724772477244,77.81940311657765 L 270.72707270727074,76.93634605993563 L 268.3768376837684,76.82596392785538 L 263.97639763976395,77.67222694047065 L 259.3259325932593,77.26749245617638 L 257.17571757175716,77.4146686322834 L 255.025502550255,78.04016738073815 L 252.07520752075206,79.58551722986168 L 250.4250425042504,80.87330877079796 L 248.92489248924892,82.63942288408198 L 247.8247824782478,82.97056928032275 L 245.27452745274528,83.04415736837625 L 244.12441244124412,83.41209780864375 L 243.024302430243,84.03759655709851 L 239.92399239923992,86.90753199118507 L 239.02390239023902,87.23867838742582 L 236.37363736373635,86.57638559494431 L 233.37333733373336,86.2084451546768 L 230.42304230423042,86.57638559494431 L 227.7227722772277,87.71700095977359 L 225.42254225422542,89.74067338124486 L 223.77237723772376,92.05869815493016 L 222.9222922292229,92.57381477130467 L 219.77197719771976,93.38328373989319 L 217.07170717071705,95.07580976512371 L 215.82158215821582,95.44375020539121 L 212.7212721272127,95.70130851357847 L 209.97099709970996,96.40039535008674 L 204.67046704670466,99.12315460806629 L 200.6200620062006,102.10347217423309 L 196.96969696969697,105.5253182687209 L 194.7194719471947,106.99708002979092 L 192.86928692869287,106.26119914925592 L 189.36893689368935,102.58179474658084 L 188.2188218821882,100.70529850121656 L 187.91879187918792,95.55413233747147 L 187.41874187418742,93.23610756378618 L 185.7185718571857,91.06525896620789 L 183.4183418341834,89.4831150730576 L 180.76807680768076,88.48967588433534 L 178.11781178117812,88.01135331198758 L 177.86778677867787,84.36874295333926 L 177.16771677167716,81.16766112301197 L 176.2176217621762,78.0033733367114 L 176.7176717671767,75.05984981457135 L 179.56795679567955,73.10976548115356 L 183.36833683368337,72.37388460061855 L 184.56845684568455,70.42380026720076 L 186.2186218621862,66.0085149839907 L 186.7186718671867,61.372465436620104 L 192.16921692169217,57.693061033945035 L 191.96919691969197,55.48541839234 L 192.16921692169217,52.54189487019995 L 193.86938693869385,50.59181053678216 L 195.26952695269526,48.163403631016614 L 195.26952695269526,41.31971144204099 L 194.06940694069405,38.63374622808819 L 193.36933693369335,36.1685452782959 L 194.019401940194,31.05417315857756 L 309.1809180918092,30.5758505862298 L 335.4335433543354,29.619205441534284 L 339.08390839083904,28.625766252812014 z" /><path fill-rule="evenodd" fill="#D2EBD9" stroke="#A6A6A6" stroke-width="0.25" opacity="1" d="M 194.019401940194,31.05417315857756 L 193.36933693369335,36.1685452782959 L 194.06940694069405,38.63374622808819 L 195.26952695269526,41.31971144204099 L 195.26952695269526,48.163403631016614 L 193.86938693869385,50.59181053678216 L 192.16921692169217,52.54189487019995 L 191.96919691969197,55.48541839234 L 192.16921692169217,57.693061033945035 L 186.7186718671867,61.372465436620104 L 186.2186218621862,66.0085149839907 L 184.56845684568455,70.42380026720076 L 183.36833683368337,72.37388460061855 L 179.56795679567955,73.10976548115356 L 176.7176717671767,75.05984981457135 L 176.2176217621762,78.0033733367114 L 177.16771677167716,81.16766112301197 L 177.86778677867787,84.36874295333926 L 178.11781178117812,88.01135331198758 L 175.1175117511751,88.01135331198758 L 166.26662666266625,89.92464360137862 L 163.71637163716372,90.03502573345887 L 161.8161816181618,89.29914485292386 L 159.96599659965995,88.26891162017483 L 157.5157515751575,87.45944265158633 L 156.16561656165615,87.31226647547932 L 150.7150715071507,87.86417713588058 L 149.66496649664967,87.82738309185383 L 146.014601460146,86.64997368299781 L 140.36403640364037,86.09806302259655 L 139.4139413941394,85.58294640622204 L 139.1139113911391,84.40553699736601 L 138.8138813881388,71.27006327981603 L 138.26382638263826,70.86532879552178 L 133.06330633063305,70.90212283954853 L 132.26322632263225,69.57753725458551 L 130.86308630863087,68.03218740546197 L 130.46304630463047,67.0387482167397 L 130.56305630563057,66.33966138023145 L 132.26322632263225,65.56698645566968 L 132.7132713271327,64.97828175124167 L 132.7132713271327,64.38957704681366 L 129.4129412941294,57.54588485783803 L 125.76257625762575,51.69563185758468 L 125.8125812581258,49.85592965624715 L 126.2126212621262,48.42096193920387 L 125.9125912591259,47.5746989265886 L 125.8125812581258,45.882172901358075 L 125.46254625462545,44.888733712635805 L 124.56245624562456,44.042470700020544 L 123.96239623962396,43.012237467271525 L 123.3123312331233,37.82427725949968 L 122.96229622962295,37.08839637896467 L 122.8122812281228,35.910986970108645 L 122.9122912291229,35.21190013360038 L 123.3123312331233,34.255254988904866 L 123.66236623662365,32.48914087562083 L 124.61246124612461,31.75325999508582 L 125.7125712571257,29.545617353480782 L 126.26262626262626,28.846530516972518 L 127.16271627162716,28.47859007670501 L 128.26282628262825,28.331413900598008 L 128.56285628562856,28.110649636437508 L 128.4128412841284,27.006828315634987 L 128.5128512851285,26.602093831340728 L 130.51305130513052,25.203920158324202 L 131.76317631763175,24.578421409869442 L 132.7132713271327,24.32086310168219 L 133.66336633663366,24.50483332181594 L 135.06350635063507,25.277508246377703 L 136.06360636063604,25.46147846651146 L 137.013701370137,25.203920158324202 L 138.2138213821382,23.768952441280927 L 139.66396639663967,24.100098837521685 L 143.56435643564356,26.602093831340728 L 149.31493149314932,25.64544868664521 L 151.8151815181518,24.541627365842693 L 151.3151315131513,22.039632372023647 L 152.06520652065205,21.450927667595636 L 152.9152915291529,21.04619318330138 L 153.86538653865387,21.11978127135488 L 154.9154915491549,21.782074063836394 L 159.01590159015902,25.53506655456496 L 159.66596659665964,26.344535523153475 L 161.6161616161616,28.037061548384006 L 161.86618661866186,28.588972208785265 L 161.86618661866186,30.61264463025655 L 160.8160816081608,34.58640138514562 L 160.8160816081608,39.44321519667671 L 161.3161316131613,40.65741864955948 L 162.4162416241624,41.24612335398749 L 164.4164416441644,41.393299530094495 L 165.9165916591659,41.72444592633525 L 167.91679167916791,43.19620768740528 L 169.1169116911691,43.74811834780654 L 170.4170417041704,43.56414812767279 L 171.66716671667166,43.012237467271525 L 172.86728672867287,42.975443423244776 L 174.1174117411741,44.300029008207794 L 173.9173917391739,41.982004234522506 L 172.86728672867287,41.09894717788049 L 171.36713671367136,41.5404757062015 L 169.66696669666965,43.15941364337853 L 169.3169316931693,42.20276849868301 L 168.81688168816882,41.430093574121244 L 168.01680168016802,40.84138886969323 L 166.9166916691669,40.32627225331873 L 163.41634163416342,40.28947820929198 L 162.46624662466246,39.70077350486397 L 161.76617661766176,37.64030703936593 L 162.06620662066206,35.02792991346663 L 162.76627662766276,32.48914087562083 L 163.56635663566357,30.61264463025655 L 162.86628662866286,29.950351837775038 L 163.36633663366337,29.50882330945403 L 164.26642664266427,29.104088825159774 L 164.7164716471647,28.588972208785265 L 164.5164516451645,27.448356843955995 L 162.16621662166216,25.755830818725464 L 159.66596659665964,22.517954944371404 L 158.16581658165816,20.97260509524788 L 154.46544654465447,19.4640492901511 L 153.56535653565356,19.243285025990595 L 152.56525652565256,19.280079070017347 L 151.8151815181518,19.50084333417785 L 150.7150715071507,20.347106346793115 L 150.3150315031503,20.97260509524788 L 149.76497649764977,22.407572812291153 L 149.11491149114912,23.106659648799415 L 148.66486648664866,23.253835824906417 L 147.76477647764776,22.959483472692412 L 146.66466646664665,23.768952441280927 L 146.16461646164615,23.768952441280927 L 145.16451645164517,23.106659648799415 L 143.46434643464346,23.87933457336118 L 142.3142314231423,23.21704178087967 L 141.4141414141414,22.113220460077148 L 140.51405140514052,21.524515755649137 L 137.7137713771377,20.899017007194377 L 135.76357635763574,22.628337076451658 L 130.56305630563057,22.70192516450516 L 129.6129612961296,22.84910134061216 L 127.66276627662765,24.652009497922943 L 127.56275627562755,24.173686925575186 L 127.8127812781278,21.966044283970145 L 128.96289628962896,19.5376373782046 L 130.46304630463047,17.36678878062631 L 131.26312631263124,15.56388062331553 L 134.1134113411341,11.369359604265954 L 148.1148114811481,10.52309659165069 L 150.9150915091509,11.1118012960787 L 171.4171417141714,20.751840831087375 L 175.96759675967596,24.100098837521685 L 180.9180918091809,26.381329567180224 L 185.6185618561856,29.766381617641287 L 187.71877187718772,30.723026762336804 L 190.06900690069006,31.09096720260431 L 194.019401940194,31.05417315857756 z" /><g><path fill-rule="evenodd" fill="#D2EBD9" stroke="#A6A6A6" stroke-width="0.25" opacity="1" d="M 127.66276627662765,24.652009497922943 L 125.5125512551255,26.381329567180224 L 124.06240624062406,27.15400449174199 L 122.31223122312231,27.22759257979549 L 120.01200120012001,25.829418906778965 L 118.76187618761875,25.46147846651146 L 116.8116811681168,25.314302290404456 L 115.36153615361536,24.9831558941637 L 109.06090609060905,22.628337076451658 L 108.11081108110811,24.284069057655437 L 107.46074607460746,25.01994993819045 L 104.66046604660465,23.47460008906692 L 103.06030603060306,23.658570309200677 L 101.46014601460145,24.247275013628688 L 99.55995599559955,24.32086310168219 L 98.15981598159816,23.548188177120423 L 96.20962096209621,21.11978127135488 L 94.6094609460946,20.347106346793115 L 93.15931593159316,20.45748847887337 L 90.5090509050905,21.708485975782892 L 88.05880588058805,22.407572812291153 L 85.3085308530853,23.952922661414682 L 83.7083708370837,24.32086310168219 L 82.3082308230823,23.91612861738793 L 81.45814581458146,22.88589538463891 L 81.4081408140814,21.59810384370264 L 80.3080308030803,22.2971906802109 L 79.15791579157916,25.46147846651146 L 77.65776577657765,27.19079853576874 L 74.55745574557456,24.94636185013695 L 73.2073207320732,22.77551325255866 L 72.30723072307231,22.039632372023647 L 69.6069606960696,20.347106346793115 L 67.05670567056706,20.56787061095362 L 65.30653065306531,20.494282522900118 L 61.256125612561256,18.065875617134576 L 60.65606560656065,17.18281856049256 L 60.5060506050605,16.446937679957546 L 59.705970597059704,15.711056799422533 L 59.5059505950595,14.938381874860768 L 59.5059505950595,11.479741736346206 L 59.855985598559855,10.412714459570438 L 60.7060706070607,9.345687182794668 L 62.55625562556255,7.505984981457135 L 63.75637563756375,6.65972196884187 L 64.3064306430643,6.071017264413859 L 64.65646564656466,4.378491239183329 L 65.55655565556555,2.2444366856317903 L 67.40674067406741,3.532228226568064 L 70.4070407040704,4.231315063076326 L 81.4081408140814,3.495434182541313 L 82.9082908290829,3.569022270594814 L 87.15871587158715,4.636049547370583 L 91.25912591259126,4.672843591397334 L 93.70937093709371,5.666282780119602 L 105.81058105810581,12.25241666090797 L 106.66066606660665,12.436386881041724 L 109.96099609960996,11.442947692319455 L 111.2111211121112,12.105240484800968 L 117.36173617361736,13.209061805603488 L 120.26202620262026,12.951503497416233 L 125.3125312531253,11.222183428158951 L 126.86268626862686,10.927831075944948 L 134.1134113411341,11.369359604265954 L 131.26312631263124,15.56388062331553 L 130.46304630463047,17.36678878062631 L 128.96289628962896,19.5376373782046 L 127.8127812781278,21.966044283970145 L 127.56275627562755,24.173686925575186 L 127.66276627662765,24.652009497922943 z" /><path fill-rule="evenodd" fill="#D2EBD9" stroke="#A6A6A6" stroke-width="0.25" opacity="1" d="M 133.06330633063305,70.90212283954853 L 70.00700070007001,71.49082754397654 L 67.2067206720672,70.82853475149503 L 66.006600660066,68.80486233002374 L 65.75657565756575,67.99539336143522 L 64.45644564456445,66.7443958645257 L 63.95639563956395,66.04530902801744 L 63.656365636563656,65.12545792734868 L 63.506350635063505,63.212167637957634 L 63.85638563856385,62.51308080144938 L 64.006400640064,61.1517011724596 L 63.8063806380638,58.90726448682781 L 63.006300630063,55.448624348313245 L 62.85628562856285,53.71930427905597 L 63.406340634063405,49.745547524166895 L 63.1063106310631,48.67852024739113 L 60.2060206020602,44.33682305223455 L 59.705970597059704,43.30658981948553 L 59.5059505950595,42.27635658673651 L 59.755975597559754,41.025359089826985 L 60.25602560256025,40.69421269358623 L 60.8060806080608,41.09894717788049 L 61.156115611561155,42.018798278549255 L 61.8061806180618,42.018798278549255 L 62.206220622062204,40.583830561505984 L 61.85618561856185,39.33283306459646 L 60.056005600560056,36.86763211480417 L 60.55605560556055,36.1685452782959 L 60.7060706070607,35.46945844178764 L 60.55605560556055,34.73357756125262 L 60.056005600560056,34.071284768771115 L 61.106110611061105,33.85052050461061 L 62.006200620062,34.51281329709212 L 63.706370637063706,36.57327976259016 L 65.10651065106511,37.08839637896467 L 66.8066806680668,36.720455938697164 L 67.95679567956795,35.83739888205515 L 67.85678567856786,34.58640138514562 L 65.00650065006501,35.54304652984114 L 62.9062906290629,33.88731454863736 L 61.6061606160616,30.980585070524057 L 61.156115611561155,28.037061548384006 L 61.306130613061306,25.203920158324202 L 61.95619561956195,23.069865604772666 L 63.456345634563455,22.150014504103897 L 66.15661566156615,23.106659648799415 L 69.7069706970697,26.12377125899297 L 72.15721572157216,27.15400449174199 L 72.35723572357236,28.515384120731763 L 71.75717571757176,31.458907642871814 L 71.85718571857186,33.22502175615585 L 72.20722072207221,34.32884307695837 L 72.85728572857285,35.17510608957363 L 75.25752575257525,37.27236659909842 L 75.7075707570757,38.00824747963343 L 76.25762576257625,40.91497695774674 L 76.75767576757676,37.97145343560668 L 75.7075707570757,36.05816314621565 L 74.05740574057405,34.43922520903862 L 72.9072907290729,32.26837661146033 L 72.85728572857285,31.12776124663106 L 73.2073207320732,30.244704189989044 L 73.85738573857385,29.692793529587785 L 74.80748074807481,29.47202926542728 L 76.1076107610761,29.803175661668035 L 76.85768576857686,30.5758505862298 L 77.45774577457745,31.495701686898567 L 78.4078407840784,32.26837661146033 L 78.8078807880788,30.61264463025655 L 81.75817581758176,28.037061548384006 L 82.85828582858285,26.602093831340728 L 83.45834583458345,26.602093831340728 L 84.00840084008401,33.445786020316355 L 84.30843084308431,32.26837661146033 L 84.75847584758475,31.274937422738063 L 85.5085508550855,30.649438674283303 L 86.75867586758676,30.61264463025655 L 86.75867586758676,29.98714588180179 L 85.95859585958596,29.803175661668035 L 85.2085208520852,29.288059045293526 L 84.7084708470847,28.552178164758512 L 84.55845584558455,27.70591515214325 L 84.95849584958495,27.117210447715237 L 86.75867586758676,26.344535523153475 L 87.3087308730873,25.203920158324202 L 88.55885588558856,24.173686925575186 L 91.25912591259126,22.628337076451658 L 94.6094609460946,21.524515755649137 L 95.3095309530953,22.076426416050396 L 96.55965596559655,24.32086310168219 L 97.3097309730973,24.50483332181594 L 98.40984098409841,25.277508246377703 L 99.3099309930993,25.46147846651146 L 101.9101910191019,24.94636185013695 L 102.91029102910291,24.94636185013695 L 106.2106210621062,26.08697721496622 L 109.3109310931093,26.08697721496622 L 111.26112611261125,25.53506655456496 L 112.1112111211121,25.46147846651146 L 115.16151615161516,27.15400449174199 L 118.46184618461845,27.70591515214325 L 120.76207620762075,29.177676913213276 L 121.06210621062105,32.010818303273076 L 122.31223122312231,34.255254988904866 L 122.41224122412241,35.21190013360038 L 122.9122912291229,35.21190013360038 L 122.8122812281228,35.910986970108645 L 122.96229622962295,37.08839637896467 L 123.3123312331233,37.82427725949968 L 123.96239623962396,43.012237467271525 L 124.56245624562456,44.042470700020544 L 125.46254625462545,44.888733712635805 L 125.8125812581258,45.882172901358075 L 125.9125912591259,47.5746989265886 L 126.2126212621262,48.42096193920387 L 125.8125812581258,49.85592965624715 L 125.76257625762575,51.69563185758468 L 129.4129412941294,57.54588485783803 L 132.7132713271327,64.38957704681366 L 132.7132713271327,64.97828175124167 L 132.26322632263225,65.56698645566968 L 130.56305630563057,66.33966138023145 L 130.46304630463047,67.0387482167397 L 130.86308630863087,68.03218740546197 L 132.26322632263225,69.57753725458551 L 133.06330633063305,70.90212283954853 z" /></g><path fill-rule="evenodd" fill="#D2EBD9" stroke="#A6A6A6" stroke-width="0.25" opacity="1" d="M 309.88098809880984,320.84406391326576 L 309.5809580958096,321.76391501393454 L 310.4310431043104,324.2659100077536 L 310.58105810581054,325.3697313285561 L 309.0809080908091,325.40652537258285 L 308.33083308330833,325.2225551524491 L 307.6807680768077,324.81782066815487 L 307.030703070307,324.2291159637268 L 305.6305630563056,322.131855454202 L 305.030503050305,321.5063567057473 L 303.7303730373037,320.47612347299827 L 302.4302430243024,319.7034485484365 L 301.1301130113011,319.4090961962225 L 300.4300430043004,319.59306641635624 L 299.6799679967997,320.07138898870403 L 298.52985298529853,321.4327686176938 L 298.12981298129813,322.2422375862823 L 297.4797479747975,324.5234683159408 L 296.5296529652965,325.77446581285034 L 294.57945794579456,327.13584544184016 L 291.37913791379134,328.09249058653563 L 290.02900290029004,328.8651655110974 L 289.72897289728974,330.18975109606043 L 290.12901290129014,331.6983069011572 L 290.0790079007901,332.43418778169223 L 289.72897289728974,333.17006866222727 L 288.92889288928893,334.23709593900304 L 288.7788778877888,334.7890065994043 L 289.42894289428943,336.8126790208756 L 289.3789378937894,337.40138372530356 L 288.8788878887889,337.9900884297316 L 286.5286528652865,339.0203216624806 L 285.8285828582858,339.49864423482836 L 283.87838783878385,341.7062868764334 L 281.17811781178114,343.28843076958367 L 276.3276327632763,347.666922008767 L 273.57735773577355,350.9047978831211 L 271.0771077107711,352.8180881725121 L 269.72697269726973,354.65779037384965 L 269.026902690269,355.02573081411714 L 266.17661766176616,355.3568772103579 L 265.3265326532653,355.7616116946522 L 264.9264926492649,356.3871104431069 L 264.8264826482648,357.9324602922304 L 264.5264526452645,358.5579590406852 L 263.7263726372637,358.96269352497944 L 260.62606260626063,358.66834117276545 L 259.8759875987599,358.9994875690062 L 259.7259725972597,359.66178036148773 L 260.1760176017602,361.28071829866474 L 260.1760176017602,362.2005693993335 L 259.8759875987599,362.8260681477883 L 259.2259225922592,363.2675966761093 L 254.07540754075407,365.32806314160734 L 252.47524752475246,365.2176810095271 L 248.77487748774877,363.23080263208254 L 247.07470747074706,362.8996562358418 L 246.17461746174615,362.93645027986855 L 242.87428742874286,363.6355371163768 L 242.024202420242,363.59874307235003 L 238.6238623862386,362.6420979276545 L 237.7237723772377,362.60530388362776 L 236.8236823682368,362.75248005973475 L 234.57345734573457,363.8563013805373 L 233.8233823382338,364.0402716006711 L 233.023302330233,364.0402716006711 L 229.37293729372936,363.1940085880558 L 215.47154715471547,364.1874477767781 L 213.021302130213,363.59874307235003 L 211.52115211521152,363.8195073365105 L 210.67106710671067,364.92332865731305 L 209.97099709970996,366.2847082863028 L 208.9208920892089,367.4253236511321 L 207.97079707970795,367.9036462234799 L 206.17061706170617,367.1309712989181 L 205.3205320532053,366.57906063851686 L 204.8204820482048,365.8063857139551 L 204.37043704370436,364.0770656446978 L 203.47034703470345,363.15721454402905 L 202.9202920292029,362.93645027986855 L 202.32023202320232,362.86286219181505 L 201.72017201720172,363.0468324119488 L 200.87008700870086,363.8563013805373 L 199.5199519951995,365.6592095378481 L 198.3198319831983,366.0271499781156 L 197.16971697169717,365.69600358187483 L 196.46964696469647,364.84974056925955 L 196.31963196319631,363.7827132924838 L 196.76967696769677,362.6420979276545 L 198.1198119811981,361.35430638671824 L 198.36983698369835,360.802395726317 L 198.3198319831983,360.1768969778622 L 197.46974697469747,359.330633965247 L 195.76957695769576,358.7051352167922 L 187.01870187018702,357.3069615437757 L 185.7185718571857,357.27016749974894 L 181.86818681868186,357.8588722041769 L 179.26792679267925,357.7852841161234 L 178.01780178017802,357.49093176390943 L 174.56745674567455,356.05596404686617 L 173.46734673467347,355.7984057386789 L 172.26722672267226,355.7616116946522 L 171.26712671267126,356.20314022297316 L 170.2170217021702,357.8588722041769 L 169.46694669466945,358.4843709526317 L 168.21682168216822,358.59475308471195 L 167.06670667066706,358.0428424243107 L 166.06660666066605,357.1597853676687 L 164.06640664066407,354.32664397760885 L 163.31633163316332,353.5539690530471 L 162.3162316231623,353.07564648069933 L 161.1161116111611,352.9652643486191 L 157.66576657665766,353.7011452291541 L 156.4156415641564,353.4803809649936 L 155.46554655465545,352.8916762605656 L 153.66536653665366,351.23594427936183 L 152.5152515251525,350.53685744285355 L 151.3151315131513,350.09532891453256 L 150.06500650065004,350.0585348705058 L 148.8148814881488,350.3528872227198 L 146.2146214621462,351.4935025875491 L 143.56435643564356,351.64067876365607 L 139.91399139913992,352.85488221653884 L 138.6138613861386,352.92847030459234 L 135.9135913591359,352.56052986432485 L 133.06330633063305,353.25961670083313 L 131.9131913191319,353.1124405247261 L 128.7128712871287,351.6774728076828 L 128.1128112811281,351.56709067560257 L 125.86258625862585,352.19258942405736 L 125.26252625262525,352.0822072919771 L 124.11241124112411,351.3463264114421 L 122.16221622162216,351.08876810325484 L 120.36203620362035,351.30953236741533 L 118.7118711871187,352.11900133600386 L 117.31173117311731,353.5539690530471 L 116.36163616361635,355.02573081411714 L 115.76157615761575,355.6512295625719 L 115.01150115011501,356.12955213491966 L 113.96139613961395,356.3135223550534 L 113.01130113011301,356.1663461789464 L 112.06120612061206,355.7248176506254 L 109.66096609660966,353.9954975813681 L 108.86088608860885,353.6275571411006 L 107.91079107910791,353.4435869209669 L 107.010701070107,353.5171750090204 L 104.3104310431043,354.03229162539486 L 102.46024602460245,353.6643511851274 L 100.76007600760076,352.5973239083516 L 99.25992599259925,351.1255621472816 L 98.10981098109811,349.54341825413127 L 97.5097509750975,347.961274360981 L 97.1097109710971,344.57622231051994 L 93.75937593759376,330.26333918411393 L 93.40934093409341,329.26989999539165 L 92.9092909290929,328.3868429387497 L 91.65916591659166,327.5405799261344 L 88.65886588658866,326.8414930896261 L 87.45874587458745,325.8112598568771 L 86.85868586858686,324.1187338316466 L 86.50865086508651,318.37886296347347 L 85.1085108510851,314.9938109130124 L 84.00840084008401,311.24081842228384 L 83.5083508350835,310.2841732775883 L 83.3083308330833,301.0856622709007 L 82.5082508250825,296.4496127235301 L 80.65806580658065,293.24853089320277 L 80.8080808080808,292.9909725850155 L 94.05940594059406,293.2853249372295 L 95.6095609560956,293.5796772894435 L 97.1097109710971,294.09479390581805 L 98.85988598859885,295.34579140272757 L 100.0100010001,295.78731993104856 L 103.8103810381038,296.26564250339635 L 104.76047604760475,297.51664000030587 L 106.3106310631063,301.3432205790879 L 107.16071607160715,302.0055133715694 L 111.06110611061105,304.1763619691477 L 111.5111511151115,305.464153510084 L 112.46124612461246,306.8255331390738 L 115.7115711571157,309.4379102649731 L 131.06310631063104,318.1213046552862 L 132.1132113211321,319.188331932062 L 133.56335633563356,321.8007090579613 L 135.46354635463547,322.8309422907103 L 136.8136813681368,323.86117552345934 L 137.6137613761376,324.7810266241281 L 138.66386638663866,324.1187338316466 L 140.31403140314032,322.5365899384963 L 157.015701570157,303.3300989565325 L 157.9157915791579,302.74139425210444 L 170.66706670667065,303.6244513087465 L 171.26712671267126,309.2907340888661 L 217.7217721772177,309.18035195678584 L 219.1219121912191,308.70202938443805 L 225.62256225622562,305.16980115787 L 229.87298729872987,305.464153510084 L 239.02390239023902,299.0619898494294 L 243.1243124312431,292.91738449696203 L 246.67466746674666,288.0237766414042 L 253.42534253425342,284.34437223872914 L 259.6259625962596,281.2904665845088 L 262.87628762876284,278.8252656347165 L 274.97749774977495,288.3181289936182 L 287.9287928792879,299.0619898494294 L 297.029702970297,307.30385571142153 L 298.22982298229823,310.3945554096686 L 306.4806480648065,313.7428134161029 L 309.88098809880984,320.84406391326576 z" /><path fill-rule="evenodd" fill="#D2EBD9" stroke="#A6A6A6" stroke-width="0.25" opacity="1" d="M 309.88098809880984,320.84406391326576 L 306.4806480648065,313.7428134161029 L 298.22982298229823,310.3945554096686 L 297.029702970297,307.30385571142153 L 287.9287928792879,299.0619898494294 L 274.97749774977495,288.3181289936182 L 262.87628762876284,278.8252656347165 L 259.6259625962596,281.2904665845088 L 253.42534253425342,284.34437223872914 L 246.67466746674666,288.0237766414042 L 243.1243124312431,292.91738449696203 L 236.67366736673665,286.8095731885214 L 233.4233423342334,284.6387245909431 L 226.9226922692269,282.2103176851776 L 226.3226322632263,266.9039953700493 L 223.4223422342234,262.3415339107322 L 236.97369736973695,255.31387150162286 L 243.72437243724372,256.2337226022916 L 241.07410741074105,244.6068046898384 L 239.62396239623962,235.44508772717748 L 243.07430743074306,233.7157676579202 L 236.67366736673665,231.80247736852917 L 227.5227522752275,230.5882739156464 L 221.9221922192219,228.45421936209488 L 224.27242724272426,220.21235350010272 L 227.8227822782278,212.26483999032456 L 224.87248724872487,206.1938227259107 L 221.32213221322132,203.76541582014517 L 220.17201720172017,197.0321057632498 L 217.07170717071705,194.7140809895645 L 218.57185718571856,193.3894954046015 L 220.72207220722072,192.35926217185246 L 233.9233923392339,188.42229946099013 L 235.22352235223522,187.90718284461562 L 235.72357235723572,187.35527218421439 L 235.87358735873585,186.32503895146536 L 235.72357235723572,184.08060226583356 L 245.77457745774575,186.54580321562585 L 249.67496749674967,189.3421505616589 L 252.07520752075206,192.21208599574547 L 253.57535753575357,193.49987753668174 L 254.77547754775478,194.1253762851365 L 258.1258125812581,195.22919760593902 L 261.6761676167617,191.8809395995047 L 262.4262426242624,190.2987957063544 L 263.87638763876384,189.19497438555192 L 265.2265226522652,188.42229946099013 L 300.58005800580054,174.91888530317266 L 304.58045804580456,174.2933865547179 L 326.7826782678268,174.6613269949854 L 327.6827682768277,175.1028555233064 L 348.98489848984894,190.48276592648818 L 350.5350535053505,191.10826467494294 L 372.4372437243724,187.06091983200037 L 375.93759375937594,187.09771387602711 L 388.1388138813881,188.6798577691774 L 389.1389138913891,189.15818034152517 L 390.1390139013901,190.26200166232766 L 396.78967896789675,200.49074590176437 L 402.990299029903,216.2018027011869 L 403.14031403140314,216.97447762574865 L 402.7902790279028,219.5500607076212 L 402.1902190219022,220.91144033661098 L 393.63936393639364,232.28079994087693 L 393.4893489348935,232.9062986893317 L 391.2391239123912,233.82614979000047 L 388.2388238823882,236.80646735616727 L 386.18861886188614,237.46876014864878 L 385.8385838583858,238.46219933737103 L 385.7885788578858,239.12449212985254 L 386.18861886188614,241.9208394758856 L 385.98859885988594,242.5831322683671 L 385.5885588558856,243.17183697279512 L 384.83848384838484,243.68695358916963 L 383.988398839884,243.90771785333013 L 383.13831383138313,243.90771785333013 L 381.4381438143814,243.53977741306264 L 380.6380638063806,243.5765714570894 L 379.9379937993799,243.83412976527663 L 379.18791879187916,244.3860404256779 L 377.3377337733773,246.26253667104217 L 376.88768876887684,247.2927699037912 L 377.68776877687765,247.91826865224596 L 380.48804880488046,247.62391630003196 L 381.78817881788177,247.84468056419246 L 382.2382238223822,249.02208997304848 L 381.7381738173817,250.38346960203825 L 380.68806880688066,251.48729092284077 L 375.83758375837584,254.79875488524834 L 374.8874887488749,255.90257620605087 L 374.1874187418742,257.19036774698714 L 373.8873887388739,258.5517473759769 L 373.8873887388739,261.3848887660367 L 373.73737373737373,262.01038751449147 L 372.5372537253725,263.7397075837487 L 372.28722872287227,264.32841228817676 L 371.9371937193719,266.64643706186206 L 371.68716871687167,267.38231794239704 L 371.18711871187116,268.0078166908518 L 369.88698869886986,268.5965213952798 L 368.6368636863686,268.41255117514606 L 367.4367436743674,267.7502583826646 L 365.13651365136514,266.1313204454875 L 363.986398639864,265.9841442693805 L 361.48614861486146,266.6096430178353 L 361.036103610361,266.9775834581028 L 360.58605860586056,268.4493452191728 L 361.036103610361,272.3863079300352 L 360.8360836083608,273.5637173388912 L 360.2360236023602,274.5571565276134 L 359.38593859385935,275.36662549620195 L 358.38583858385834,275.95533020063 L 355.8855885588559,276.69121108116497 L 354.3854385438544,277.7950324019675 L 353.8353835383538,278.015796666128 L 352.6352635263526,278.0893847541815 L 350.18501850185015,277.6478562258605 L 348.98489848984894,277.61106218183374 L 348.08480848084804,280.4442035718935 L 348.18481848184814,281.18008445242856 L 348.48484848484844,281.87917128893685 L 349.68496849684965,283.79246157832785 L 349.8349834983498,284.41796032678263 L 349.7349734973497,285.04345907523737 L 348.48484848484844,287.1039255407354 L 347.9347934793479,287.6926302451634 L 346.03460346034603,288.943627742073 L 345.034503450345,289.97386097482195 L 344.9344934493449,290.67294781133023 L 345.5845584558456,292.8070023648818 L 345.53455345534553,294.46273434608554 L 345.1845184518452,295.8977020631288 L 344.4344434443444,297.1854936040651 L 342.6342634263426,299.42993028969687 L 342.4342434243424,299.98184095009816 L 342.8342834283428,302.81498234015794 L 342.6342634263426,303.5140691766662 L 342.18421842184216,304.1763619691477 L 340.1340134013401,305.758505862298 L 338.78387838783874,307.30385571142153 L 337.13371337133714,311.02005415812334 L 336.93369336933694,313.1541087116749 L 336.73367336733673,313.8164015041564 L 336.23362336233623,314.4051062085844 L 334.033403340334,315.9136620136812 L 332.58325832583256,318.010922523206 L 331.3331333133313,318.0477165672327 L 328.3828382838284,316.8703071583767 L 327.53275327532754,317.4590118628047 L 327.6827682768277,318.746803403741 L 329.08290829082904,321.32238648561355 L 328.9328932893289,322.49979589446957 L 327.93279327932794,322.57338398252307 L 326.3826382638264,321.98467927809503 L 322.08220822082205,321.06482817742625 L 319.03190319031904,319.81383068051673 L 316.7316731673167,319.66665450440973 L 313.98139813981396,318.3420689194467 L 313.4313431343134,318.45245105152696 L 312.48124812481245,319.15153788803525 L 311.78117811781175,319.44589024024924 L 311.48114811481145,320.0345949446773 L 309.88098809880984,320.84406391326576 z" /><path fill-rule="evenodd" fill="#D2EBD9" stroke="#A6A6A6" stroke-width="0.25" opacity="1" d="M 217.27172717271725,121.67790359646445 L 217.57175717571755,122.78172491726696 L 219.021902190219,125.32051395511276 L 221.12211221122112,127.8960970369853 L 222.9222922292229,128.41121365335982 L 224.47244724472446,128.52159578544007 L 225.27252725272527,128.88953622570756 L 228.97289728972896,129.8461813704031 L 229.37293729372936,130.06694563456358 L 231.27312731273125,131.57550143966037 L 236.07360736073605,136.1747569430042 L 236.6236623662366,138.1984293644755 L 236.57365736573655,139.70698516957228 L 236.87368736873685,141.1787469306423 L 238.82388238823881,142.13539207533782 L 239.47394739473947,143.23921339614031 L 240.22402240224022,146.69785353465488 L 240.22402240224022,148.09602720767143 L 240.07400740074007,149.75175918887518 L 239.32393239323932,153.46795763557702 L 238.97389738973897,159.83332725220487 L 238.5238523852385,161.3050890132749 L 237.47374737473746,162.85043886239842 L 235.62356235623562,168.29595737835754 L 235.72357235723572,184.08060226583356 L 235.87358735873585,186.32503895146536 L 235.72357235723572,187.35527218421439 L 235.22352235223522,187.90718284461562 L 233.9233923392339,188.42229946099013 L 220.72207220722072,192.35926217185246 L 218.57185718571856,193.3894954046015 L 217.07170717071705,194.7140809895645 L 215.17151715171516,197.2528700274103 L 214.17141714171416,198.02554495197205 L 212.87128712871285,197.73119259975806 L 211.47114711471147,197.06889980727655 L 204.27042704270426,192.6168204800397 L 202.7202720272027,191.99132173158495 L 200.8200820082008,191.54979320326396 L 198.019801980198,191.8073515114512 L 185.66856685668566,194.30934650527024 L 181.56815681568156,195.85469635439378 L 175.06750675067505,199.79165906525608 L 173.31733173317332,192.13849790769197 L 170.86708670867085,189.4157386497124 L 167.86678667866786,188.6062696811239 L 157.7157715771577,186.87694961186662 L 152.2152215221522,182.38807624060303 L 150.36503650365034,181.43143109590753 L 148.26482648264826,181.210666831747 L 143.16431643164316,175.1764436113599 L 141.014101410141,173.52071163015611 L 140.9140914091409,165.38922790024424 L 139.46394639463946,161.74661754159592 L 137.36373637363735,157.18415608227883 L 136.5136513651365,154.16704447208528 L 136.5136513651365,144.45341684902309 L 140.01400140014002,143.82791810056833 L 141.2141214121412,142.31936229547156 L 141.5141514151415,140.18530774192 L 142.36423642364235,138.38239958460923 L 145.3145314531453,135.32849393038893 L 148.86488648864886,133.1944393768374 L 149.16491649164917,131.0971788673126 L 148.26482648264826,128.96312431376106 L 148.26482648264826,126.82906976020953 L 149.46494649464947,124.400662854444 L 151.8151815181518,121.97225594867845 L 153.86538653865387,121.08919889203644 L 155.36553655365535,121.67790359646445 L 158.61586158615862,126.82906976020953 L 164.16641664166417,124.400662854444 L 167.4167416741674,124.10631050222999 L 169.76697669766975,124.10631050222999 L 173.9173917391739,122.1562261688122 L 177.66776677667767,123.59119388585547 L 181.16811681168116,123.03928322545421 L 181.96819681968196,122.3034023449192 L 183.5183518351835,120.20614183539442 L 184.2184218421842,119.6910252190199 L 185.9185918591859,120.09575970331416 L 192.06920692069207,124.03272241417648 L 197.96979697969795,126.24036505578152 L 199.7199719971997,126.12998292370126 L 204.5204520452045,124.29028072236373 L 212.7212721272127,123.92234028209623 L 215.72157215721572,122.92890109337397 L 217.27172717271725,121.67790359646445 z" /><path fill-rule="evenodd" fill="#D2EBD9" stroke="#A6A6A6" stroke-width="0.25" opacity="1" d="M 117.76177617761776,106.59234554549667 L 163.81638163816382,106.44516936938966 L 165.1165116511651,106.84990385368393 L 165.26652665266525,110.16136781609148 L 165.56655665566555,111.89068788534877 L 166.2166216621662,113.7303900866863 L 167.96679667966797,116.89467787298685 L 170.46704670467045,119.65423117499316 L 173.9173917391739,122.1562261688122 L 169.76697669766975,124.10631050222999 L 167.4167416741674,124.10631050222999 L 164.16641664166417,124.400662854444 L 158.61586158615862,126.82906976020953 L 155.36553655365535,121.67790359646445 L 153.86538653865387,121.08919889203644 L 151.8151815181518,121.97225594867845 L 149.46494649464947,124.400662854444 L 148.26482648264826,126.82906976020953 L 148.26482648264826,128.96312431376106 L 149.16491649164917,131.0971788673126 L 148.86488648864886,133.1944393768374 L 145.3145314531453,135.32849393038893 L 142.36423642364235,138.38239958460923 L 141.5141514151415,140.18530774192 L 141.2141214121412,142.31936229547156 L 140.01400140014002,143.82791810056833 L 136.5136513651365,144.45341684902309 L 136.5136513651365,154.16704447208528 L 137.36373637363735,157.18415608227883 L 139.46394639463946,161.74661754159592 L 140.9140914091409,165.38922790024424 L 141.014101410141,173.52071163015611 L 138.46384638463846,171.86497964895236 L 128.46284628462845,172.2697141332466 L 126.76267626762676,171.49703920868484 L 125.26252625262525,169.91489531553455 L 123.56235623562355,169.3629846551333 L 116.66166616661666,170.5403940639893 L 116.26162616261625,170.90833450425683 L 116.2116211621162,171.3130689885511 L 115.5115511551155,171.3866570766046 L 111.36113611361135,171.01871663633707 L 106.46064606460645,169.9516893595613 L 103.86038603860385,169.7309250954008 L 103.06030603060306,169.32619061110654 L 102.1102110211021,168.55351568654478 L 99.9099909990999,165.86755047259197 L 95.80958095809581,159.79653320817812 L 95.009500950095,156.96339181811834 L 93.85938593859386,155.38124792496805 L 95.1095109510951,155.3444538809413 L 94.5094509450945,154.9029253526203 L 100.16001600160016,154.6821610884598 L 103.41034103410341,152.54810653490824 L 104.5104510451045,151.59146139021271 L 105.61056105610561,150.00931749706245 L 105.96059605960596,148.20640933975167 L 105.91059105910591,146.21953096230712 L 105.66056605660566,145.5572381698256 L 104.5104510451045,143.68074192446133 L 104.56045604560455,143.01844913197982 L 106.2106210621062,140.8843945784283 L 107.26072607260726,139.96454347775952 L 107.76077607760776,139.11828046514427 L 108.7108710871087,132.7529108485164 L 108.36083608360836,131.46511930758012 L 107.96079607960796,130.80282651509862 L 107.06070607060705,129.6254171062426 L 105.41054105410541,128.0432732130923 L 105.1105110511051,126.90265784826303 L 105.16051605160516,124.989367558872 L 105.46054605460546,124.25348667833698 L 106.26062606260625,123.40722366572172 L 108.8108810881088,121.27316911217018 L 110.71107110711071,120.02217161526066 L 111.2111211121112,119.35987882277915 L 111.56115611561155,118.25605750197663 L 112.2112211221122,114.31909479111431 L 113.36133613361335,112.70015685393727 L 115.96159615961595,110.30854399219848 L 117.06170617061706,108.83678223112845 L 117.76177617761776,106.59234554549667 z" /><g><path fill-rule="evenodd" fill="#D2EBD9" stroke="#A6A6A6" stroke-width="0.25" opacity="1" d="M 117.76177617761776,106.59234554549667 L 117.06170617061706,108.83678223112845 L 115.96159615961595,110.30854399219848 L 113.36133613361335,112.70015685393727 L 112.2112211221122,114.31909479111431 L 111.56115611561155,118.25605750197663 L 111.2111211121112,119.35987882277915 L 110.71107110711071,120.02217161526066 L 108.8108810881088,121.27316911217018 L 106.26062606260625,123.40722366572172 L 105.46054605460546,124.25348667833698 L 105.16051605160516,124.989367558872 L 105.1105110511051,126.90265784826303 L 105.41054105410541,128.0432732130923 L 107.06070607060705,129.6254171062426 L 107.96079607960796,130.80282651509862 L 108.36083608360836,131.46511930758012 L 108.7108710871087,132.7529108485164 L 107.76077607760776,139.11828046514427 L 107.26072607260726,139.96454347775952 L 106.2106210621062,140.8843945784283 L 104.56045604560455,143.01844913197982 L 104.5104510451045,143.68074192446133 L 105.66056605660566,145.5572381698256 L 105.91059105910591,146.21953096230712 L 105.96059605960596,148.20640933975167 L 105.61056105610561,150.00931749706245 L 104.5104510451045,151.59146139021271 L 103.41034103410341,152.54810653490824 L 100.16001600160016,154.6821610884598 L 94.5094509450945,154.9029253526203 L 91.85918591859185,153.46795763557702 L 89.85898589858985,154.7557491765133 L 88.85888588858886,154.38780873624577 L 87.6087608760876,152.76887079906874 L 85.008500850085,152.03298991853373 L 83.85838583858386,151.0027566857847 L 81.75817581758176,148.42717360391217 L 80.4080408040804,147.2129701510294 L 76.75767576757676,144.93173942137085 L 77.55775577557755,144.0118883207021 L 78.55785578557855,143.82791810056833 L 80.65806580658065,144.41662280499634 L 79.55795579557956,143.53356574835433 L 78.5078507850785,143.01844913197982 L 77.9077907790779,142.20898016339132 L 77.9077907790779,140.3692779620538 L 76.05760576057605,141.0315707545353 L 74.95749574957496,140.33248391802704 L 74.05740574057405,139.11828046514427 L 72.9072907290729,138.08804723239524 L 73.007300730073,139.19186855319776 L 72.25722572257226,139.85416134567927 L 71.1071107110711,140.22210178594676 L 68.7068706870687,140.47966009413403 L 67.65676567656766,140.44286605010728 L 66.7066706670667,140.07492560983977 L 64.85648564856486,138.566369804743 L 64.35643564356435,138.01445914434174 L 64.05640564056405,137.2049901757532 L 64.006400640064,135.8068165027367 L 64.25642564256425,133.08405724475713 L 65.10651065106511,130.6556503389916 L 64.55645564556455,129.58862306221585 L 64.45644564456445,127.85930299295855 L 64.85648564856486,126.20357101175478 L 66.65666566656665,125.09974969095225 L 66.8066806680668,123.14966535753446 L 67.05670567056706,122.34019638894596 L 67.85678567856786,121.97225594867845 L 68.5068506850685,122.5241666090797 L 69.3069306930693,124.06951645820324 L 71.2071207120712,125.46769013121975 L 72.05720572057206,127.63853872879805 L 72.9072907290729,128.37441960933307 L 74.50745074507451,128.88953622570756 L 76.15761576157615,129.11030048986808 L 77.6077607760776,129.51503497416232 L 78.4078407840784,130.6556503389916 L 79.007900790079,130.6556503389916 L 80.1080108010801,130.3612979867776 L 81.15811581158115,131.72267761576737 L 82.00820082008201,133.78314408126542 L 82.65826582658265,137.24178421977996 L 83.4083408340834,138.89751620098374 L 85.15851585158515,141.50989332688306 L 85.05850585058505,140.14851369789326 L 83.25832583258325,132.34817636422213 L 82.85828582858285,131.2443550434196 L 84.05840584058406,130.61885629496484 L 84.40844084408441,128.96312431376106 L 84.55845584558455,126.86586380423628 L 85.15851585158515,124.95257351484526 L 84.00840084008401,124.73180925068475 L 83.05830583058305,125.65166035135351 L 82.5082508250825,127.23380424450379 L 82.35823582358235,128.88953622570756 L 79.50795079507951,128.37441960933307 L 80.1080108010801,126.60830549604903 L 77.9077907790779,127.78571490490505 L 77.4077407740774,126.60830549604903 L 74.55745574557456,123.18645940156122 L 73.8073807380738,122.0826380807587 L 73.6073607360736,121.23637506814343 L 73.4073407340734,119.17590860264539 L 72.75727572757275,115.90123868426458 L 73.1073107310731,114.35588883514106 L 74.55745574557456,112.84733303004428 L 76.1076107610761,112.36901045769652 L 77.7077707770777,112.81053898601753 L 78.95789578957896,113.98794839487356 L 79.50795079507951,115.75406250815759 L 80.7080708070807,115.68047442010408 L 81.55815581558156,116.7842957409066 L 81.95819581958196,118.40323367808364 L 81.75817581758176,119.7646133070734 L 83.4083408340834,119.5438490429129 L 83.5083508350835,118.55040985419063 L 82.75827582758275,117.26261831325436 L 81.75817581758176,116.26917912453209 L 83.45834583458345,115.20215184775633 L 81.4081408140814,113.58321391057929 L 79.35793579357936,112.51618663380353 L 77.95779577957795,111.1916010488405 L 77.9077907790779,108.87357627515522 L 79.1079107910791,106.73952172160367 L 117.76177617761776,106.59234554549667 z" /><path fill-rule="evenodd" fill="#D2EBD9" stroke="#A6A6A6" stroke-width="0.25" opacity="1" d="M 93.85938593859386,155.38124792496805 L 95.009500950095,156.96339181811834 L 95.80958095809581,159.79653320817812 L 99.9099909990999,165.86755047259197 L 102.1102110211021,168.55351568654478 L 103.06030603060306,169.32619061110654 L 103.86038603860385,169.7309250954008 L 106.46064606460645,169.9516893595613 L 111.36113611361135,171.01871663633707 L 115.5115511551155,171.3866570766046 L 116.2116211621162,171.3130689885511 L 116.26162616261625,170.90833450425683 L 116.66166616661666,170.5403940639893 L 123.56235623562355,169.3629846551333 L 125.26252625262525,169.91489531553455 L 126.76267626762676,171.49703920868484 L 128.46284628462845,172.2697141332466 L 138.46384638463846,171.86497964895236 L 141.014101410141,173.52071163015611 L 143.16431643164316,175.1764436113599 L 148.26482648264826,181.210666831747 L 150.36503650365034,181.43143109590753 L 152.2152215221522,182.38807624060303 L 157.7157715771577,186.87694961186662 L 167.86678667866786,188.6062696811239 L 170.86708670867085,189.4157386497124 L 169.76697669766975,192.32246812782572 L 167.86678667866786,193.86781797694923 L 154.46544654465447,199.3501305369351 L 152.6152615261526,201.30021487035287 L 151.1151115111511,201.48418509048662 L 148.8148814881488,200.71151016592486 L 147.1147114711471,200.49074590176437 L 143.1143114311431,203.43426942390442 L 141.3141314131413,202.4040361911554 L 141.014101410141,202.07288979491463 L 140.66406640664064,201.22662678229938 L 140.31403140314032,194.08858224110975 L 140.06400640064007,193.13193709641422 L 139.66396639663967,192.35926217185246 L 135.26352635263527,187.98077093266915 L 132.9132913291329,186.80336152381312 L 130.16301630163017,186.10427468730484 L 123.36233623362335,185.36839380676983 L 122.21222122212221,185.36839380676983 L 113.36133613361335,186.95053769992012 L 112.2112211221122,187.3184781401876 L 111.4111411141114,187.64962453642838 L 110.51105110511051,188.56947563709716 L 109.46094609460945,189.30535651763216 L 106.010601060106,190.55635401454168 L 103.31033103310331,190.88750041078242 L 98.20982098209821,189.89406122206017 L 97.65976597659765,189.93085526608692 L 97.05970597059705,190.04123739816717 L 96.35963596359636,190.4091778384347 L 94.9094909490949,191.62338129131746 L 94.1094109410941,191.8073515114512 L 87.2087208720872,192.17529195171872 L 83.6083608360836,191.84414555547795 L 82.55825582558255,191.47620511521043 L 81.55815581558156,189.93085526608692 L 80.4080408040804,185.66274615898385 L 77.85778577857785,182.16731197644253 L 76.5076507650765,180.73234425939924 L 75.8075807580758,180.29081573107825 L 74.55745574557456,179.8124931587305 L 73.9073907390739,179.33417058638273 L 72.50725072507251,177.75202669323244 L 72.10721072107211,177.5680564730987 L 68.95689568956895,177.2737041208847 L 68.3068306830683,177.01614581269743 L 64.2064206420642,165.20525768011046 L 63.05630563056305,160.38523791260613 L 64.2064206420642,159.17103445972336 L 64.2064206420642,158.65591784334885 L 63.85638563856385,157.99362505086734 L 61.75617561756175,156.2275109375833 L 61.5061506150615,155.82277645328907 L 61.55615561556155,155.12368961678078 L 62.256225622562255,154.01986829597828 L 62.156215621562154,153.57833976765727 L 61.75617561756175,153.173605283363 L 59.5059505950595,152.437724402828 L 58.855885588558856,151.73863756631974 L 59.55595559555955,150.30366984927645 L 60.906090609060904,146.29311905036064 L 61.306130613061306,143.8647121445951 L 61.8061806180618,127.78571490490505 L 62.306230623062305,127.78571490490505 L 61.9061906190619,135.7332284146832 L 62.306230623062305,138.08804723239524 L 62.65626562656265,138.82392811293025 L 64.25642564256425,140.66363031426778 L 64.65646564656466,141.36271715077604 L 65.10651065106511,143.20241935211357 L 66.5066506650665,144.8213572892906 L 66.55665566556655,145.59403221385236 L 65.6065606560656,146.69785353465488 L 66.2066206620662,147.0657939749224 L 68.7068706870687,147.24976419505614 L 69.6069606960696,147.6544986793504 L 70.65706570657065,149.27343661652745 L 71.75717571757176,149.6045830127682 L 69.5069506950695,147.10258801894915 L 68.15681568156815,146.69785353465488 L 68.05680568056805,146.07235478620012 L 66.15661566156615,142.6505086917123 L 68.1068106810681,142.46653847157856 L 69.85698569856986,141.87783376715055 L 71.6071607160716,141.50989332688306 L 73.4073407340734,142.13539207533782 L 74.25742574257426,142.94486104392632 L 75.25752575257525,144.8949453773441 L 75.95759575957595,145.81479647801288 L 76.95769576957696,146.4770892704944 L 78.7078707870787,146.88182375478866 L 79.50795079507951,147.24976419505614 L 80.25802580258025,148.13282125169818 L 82.35823582358235,151.84901969839999 L 83.05830583058305,153.909486163898 L 83.7083708370837,154.16704447208528 L 86.30863086308631,153.61513381168402 L 87.35873587358735,154.16704447208528 L 86.40864086408641,155.01330748470053 L 86.15861586158616,156.3010990256368 L 86.65866586658666,157.51530247851957 L 87.95879587958795,158.1775952710011 L 87.8087808780878,156.37468711369033 L 90.00900090009,155.52842410107505 L 93.85938593859386,155.38124792496805 z" /></g><path fill-rule="evenodd" fill="#D2EBD9" stroke="#A6A6A6" stroke-width="0.25" opacity="1" d="M 65.00650065006501,265.32185147689904 L 67.85678567856786,263.114208835294 L 68.6068606860686,261.53206494214373 L 68.65686568656865,261.05374236979594 L 68.65686568656865,260.5018317093947 L 68.25682568256825,258.88289377221764 L 66.8066806680668,255.97616429410436 L 66.2066206620662,253.9892859166598 L 65.8065806580658,250.45705769009174 L 66.05660566056605,248.83811975291474 L 66.5066506650665,247.91826865224596 L 68.6068606860686,246.9984175515772 L 69.15691569156915,246.26253667104217 L 69.65696569656966,245.19550939426642 L 70.9070907090709,243.5765714570894 L 71.95719571957196,242.84069057655438 L 73.25732573257325,242.25198587212637 L 74.25742574257426,241.2585466834041 L 74.60746074607461,240.3754896267621 L 74.007400740074,238.7197576455583 L 74.1074107410741,237.32158397254176 L 74.85748574857486,236.1809686077125 L 75.65756575657565,235.84982221147175 L 76.05760576057605,235.92341029952524 L 76.7076707670767,236.401732871873 L 78.2078207820782,238.35181720529079 L 81.85818581858186,242.21519182809962 L 82.3082308230823,242.91427866460788 L 83.3083308330833,245.93139027480143 L 88.05880588058805,252.11278967129553 L 88.95889588958896,252.48073011156305 L 89.55895589558955,252.48073011156305 L 93.35933593359336,251.52408496686752 L 96.00960096009601,251.96561349518853 L 96.8096809680968,251.89202540713504 L 97.6097609760976,251.34011474673378 L 97.75977597759776,250.97217430646626 L 98.35983598359836,246.52009497922944 L 98.60986098609861,245.45306770245367 L 98.9098909890989,244.9747451301059 L 99.25992599259925,244.7539808659454 L 99.65996599659965,244.8275689539989 L 101.16011601160116,245.7106260106409 L 101.7101710171017,245.23230343829317 L 102.96029602960296,242.7303084444741 L 103.31033103310331,241.88404543185885 L 103.51035103510351,240.74343006702958 L 103.21032103210321,237.50555419267553 L 103.46034603460346,235.960204343552 L 104.26042604260425,233.89973787805397 L 107.5107510751075,229.59483472692412 L 108.56085608560855,226.0258124563293 L 109.1109110911091,225.1427553996873 L 109.96099609960996,224.4068745191523 L 112.2112211221122,223.48702341848352 L 113.96139613961395,222.53037827378802 L 116.56165616561655,224.84840304747328 L 118.46184618461845,225.2899315757943 L 138.36383638363836,225.4371077519013 L 139.61396139613962,225.2163434877408 L 139.61396139613962,223.33984724237652 L 139.86398639863987,222.383202097681 L 140.41404140414042,221.79449739325298 L 141.6141614161416,221.16899864479822 L 142.56425642564255,219.2557083554072 L 142.86428642864286,218.9613560031932 L 145.26452645264527,217.85753468239068 L 146.6146614661466,216.90088953769515 L 147.06470647064705,216.2018027011869 L 147.26472647264725,214.6196588080366 L 147.6147614761476,213.51583748723408 L 149.06490649064907,212.37522212240484 L 151.16511651165115,213.0007208708596 L 155.46554655465545,213.1478970469666 L 157.7157715771577,212.96392682683285 L 159.51595159515952,211.82331146200357 L 161.46614661466145,211.2714008016023 L 166.86668666866686,211.78651741797682 L 168.61686168616862,211.52895910978955 L 169.1169116911691,210.79307822925455 L 169.5169516951695,205.71550015356294 L 170.06700670067005,203.91259199625216 L 172.16721672167216,201.59456722256687 L 175.06750675067505,199.79165906525608 L 181.56815681568156,195.85469635439378 L 185.66856685668566,194.30934650527024 L 198.019801980198,191.8073515114512 L 200.8200820082008,191.54979320326396 L 202.7202720272027,191.99132173158495 L 204.27042704270426,192.6168204800397 L 211.47114711471147,197.06889980727655 L 212.87128712871285,197.73119259975806 L 214.17141714171416,198.02554495197205 L 215.17151715171516,197.2528700274103 L 217.07170717071705,194.7140809895645 L 220.17201720172017,197.0321057632498 L 221.32213221322132,203.76541582014517 L 224.87248724872487,206.1938227259107 L 227.8227822782278,212.26483999032456 L 224.27242724272426,220.21235350010272 L 221.9221922192219,228.45421936209488 L 227.5227522752275,230.5882739156464 L 236.67366736673665,231.80247736852917 L 243.07430743074306,233.7157676579202 L 239.62396239623962,235.44508772717748 L 241.07410741074105,244.6068046898384 L 243.72437243724372,256.2337226022916 L 236.97369736973695,255.31387150162286 L 223.4223422342234,262.3415339107322 L 226.3226322632263,266.9039953700493 L 226.9226922692269,282.2103176851776 L 233.4233423342334,284.6387245909431 L 236.67366736673665,286.8095731885214 L 243.1243124312431,292.91738449696203 L 239.02390239023902,299.0619898494294 L 229.87298729872987,305.464153510084 L 225.62256225622562,305.16980115787 L 219.1219121912191,308.70202938443805 L 217.7217721772177,309.18035195678584 L 171.26712671267126,309.2907340888661 L 170.66706670667065,303.6244513087465 L 157.9157915791579,302.74139425210444 L 157.015701570157,303.3300989565325 L 140.31403140314032,322.5365899384963 L 138.66386638663866,324.1187338316466 L 137.6137613761376,324.7810266241281 L 136.8136813681368,323.86117552345934 L 135.46354635463547,322.8309422907103 L 133.56335633563356,321.8007090579613 L 132.1132113211321,319.188331932062 L 131.06310631063104,318.1213046552862 L 115.7115711571157,309.4379102649731 L 112.46124612461246,306.8255331390738 L 111.5111511151115,305.464153510084 L 111.06110611061105,304.1763619691477 L 107.16071607160715,302.0055133715694 L 106.3106310631063,301.3432205790879 L 104.76047604760475,297.51664000030587 L 103.8103810381038,296.26564250339635 L 100.0100010001,295.78731993104856 L 98.85988598859885,295.34579140272757 L 97.1097109710971,294.09479390581805 L 95.6095609560956,293.5796772894435 L 94.05940594059406,293.2853249372295 L 80.8080808080808,292.9909725850155 L 81.2081208120812,292.07112148434675 L 81.35813581358136,291.1880644277047 L 80.95809580958095,290.3418014150895 L 70.35703570357035,272.4231019740619 L 65.00650065006501,265.32185147689904 z" /><path fill-rule="evenodd" fill="#D2EBD9" stroke="#A6A6A6" stroke-width="0.25" opacity="1" d="M 28.752875287528752,216.49615505340088 L 30.503050305030502,212.59598638656533 L 31.003100310031,211.08743058146854 L 31.103110311031102,208.659023675703 L 32.653265326532654,205.71550015356294 L 33.003300330033,204.17015030443943 L 31.45314531453145,192.65361452406646 L 32.35323532353235,191.47620511521043 L 34.45344534453445,185.6995402030106 L 37.353735373537354,181.357843007854 L 37.8037803780378,180.2540216870515 L 38.7038703870387,179.29737654235598 L 44.504450445044505,176.53782324034967 L 47.05470547054705,173.96224015847713 L 48.054805480548055,172.45368435338037 L 48.4048404840484,171.09230472439057 L 48.35483548354835,170.13565957969507 L 47.8047804780478,167.633664585876 L 47.954795479547954,166.5298432650735 L 48.3048304830483,166.161902824806 L 49.55495549554955,165.68358025245823 L 51.05510551055105,164.10143635930794 L 51.705170517051705,163.0344090825322 L 52.25522552255225,161.5994413654889 L 52.955295529552956,157.11056799422533 L 53.35533553355335,155.89636454134256 L 54.155415541554156,155.16048366080753 L 56.305630563056305,154.6821610884598 L 57.355735573557354,154.16704447208528 L 58.05580558055805,153.28398741544325 L 58.855885588558856,151.73863756631974 L 59.5059505950595,152.437724402828 L 61.75617561756175,153.173605283363 L 62.156215621562154,153.57833976765727 L 62.256225622562255,154.01986829597828 L 61.55615561556155,155.12368961678078 L 61.5061506150615,155.82277645328907 L 61.75617561756175,156.2275109375833 L 63.85638563856385,157.99362505086734 L 64.2064206420642,158.65591784334885 L 64.2064206420642,159.17103445972336 L 63.05630563056305,160.38523791260613 L 64.2064206420642,165.20525768011046 L 68.3068306830683,177.01614581269743 L 68.95689568956895,177.2737041208847 L 72.10721072107211,177.5680564730987 L 72.50725072507251,177.75202669323244 L 73.9073907390739,179.33417058638273 L 74.55745574557456,179.8124931587305 L 75.8075807580758,180.29081573107825 L 76.5076507650765,180.73234425939924 L 77.85778577857785,182.16731197644253 L 80.4080408040804,185.66274615898385 L 81.55815581558156,189.93085526608692 L 79.85798579857985,190.48276592648818 L 75.75757575757575,192.28567408379897 L 74.80748074807481,192.91117283225373 L 74.35743574357436,193.61025966876198 L 74.25742574257426,194.5669048134575 L 75.15751575157515,195.89149039842053 L 76.35763576357635,197.1792819393568 L 76.8076807680768,198.02554495197205 L 77.00770077007701,198.72463178848034 L 76.95769576957696,199.23974840485482 L 76.35763576357635,200.41715781371084 L 74.90749074907491,201.26342082632613 L 74.50745074507451,201.92571361880763 L 74.95749574957496,204.61167883276042 L 74.90749074907491,205.01641331705468 L 74.15741574157416,205.89947037369672 L 73.007300730073,206.45138103409798 L 72.50725072507251,207.15046787060624 L 72.25722572257226,208.62222963167625 L 72.50725072507251,209.94681521663927 L 72.55725572557256,212.08086977019082 L 72.30723072307231,213.03751491488634 L 71.75717571757176,213.5894255752876 L 70.25702570257026,214.17813027971562 L 69.65696569656966,214.84042307219713 L 69.55695569556956,215.24515755649136 L 69.95699569956996,217.12165380185564 L 70.45704570457045,218.40944534279194 L 71.2071207120712,219.66044283970146 L 72.7072707270727,220.46991180828996 L 92.25922592259225,226.13619458840958 L 93.95939593959396,225.03237326760706 L 95.25952595259525,224.6276387833128 L 97.15971597159715,224.77481495941979 L 98.45984598459846,225.25313753176755 L 99.15991599159915,225.10596135566055 L 101.9101910191019,222.8983187140555 L 104.1104110411041,221.86808548130648 L 104.4104410441044,221.46335099701224 L 104.66046604660465,220.10197136802245 L 105.06050605060506,219.3292964434607 L 106.36063606360635,218.70379769500593 L 108.11081108110811,218.70379769500593 L 109.06090609060905,218.9613560031932 L 112.96129612961296,220.98502842466448 L 113.66136613661365,221.500145041039 L 113.96139613961395,222.53037827378802 L 112.2112211221122,223.48702341848352 L 109.96099609960996,224.4068745191523 L 109.1109110911091,225.1427553996873 L 108.56085608560855,226.0258124563293 L 107.5107510751075,229.59483472692412 L 104.26042604260425,233.89973787805397 L 103.46034603460346,235.960204343552 L 103.21032103210321,237.50555419267553 L 103.51035103510351,240.74343006702958 L 103.31033103310331,241.88404543185885 L 102.96029602960296,242.7303084444741 L 101.7101710171017,245.23230343829317 L 101.16011601160116,245.7106260106409 L 99.65996599659965,244.8275689539989 L 99.25992599259925,244.7539808659454 L 98.9098909890989,244.9747451301059 L 98.60986098609861,245.45306770245367 L 98.35983598359836,246.52009497922944 L 97.75977597759776,250.97217430646626 L 97.6097609760976,251.34011474673378 L 96.8096809680968,251.89202540713504 L 96.00960096009601,251.96561349518853 L 93.35933593359336,251.52408496686752 L 89.55895589558955,252.48073011156305 L 88.95889588958896,252.48073011156305 L 88.05880588058805,252.11278967129553 L 83.3083308330833,245.93139027480143 L 82.3082308230823,242.91427866460788 L 81.85818581858186,242.21519182809962 L 78.2078207820782,238.35181720529079 L 76.7076707670767,236.401732871873 L 76.05760576057605,235.92341029952524 L 75.65756575657565,235.84982221147175 L 74.85748574857486,236.1809686077125 L 74.1074107410741,237.32158397254176 L 74.007400740074,238.7197576455583 L 74.60746074607461,240.3754896267621 L 74.25742574257426,241.2585466834041 L 73.25732573257325,242.25198587212637 L 71.95719571957196,242.84069057655438 L 70.9070907090709,243.5765714570894 L 69.65696569656966,245.19550939426642 L 69.15691569156915,246.26253667104217 L 68.6068606860686,246.9984175515772 L 66.5066506650665,247.91826865224596 L 66.05660566056605,248.83811975291474 L 65.8065806580658,250.45705769009174 L 66.2066206620662,253.9892859166598 L 66.8066806680668,255.97616429410436 L 68.25682568256825,258.88289377221764 L 68.65686568656865,260.5018317093947 L 68.65686568656865,261.05374236979594 L 68.6068606860686,261.53206494214373 L 67.85678567856786,263.114208835294 L 65.00650065006501,265.32185147689904 L 53.4053405340534,244.7539808659454 L 47.75477547754775,238.42540529334428 L 45.15451545154515,234.56203067053548 L 32.25322532253225,219.07173813527345 L 29.5029502950295,216.82730144964165 L 28.752875287528752,216.49615505340088 z" /><path fill-rule="evenodd" fill="#D2EBD9" stroke="#A6A6A6" stroke-width="0.25" opacity="1" d="M 31.45314531453145,192.65361452406646 L 33.003300330033,204.17015030443943 L 32.653265326532654,205.71550015356294 L 31.103110311031102,208.659023675703 L 31.003100310031,211.08743058146854 L 30.503050305030502,212.59598638656533 L 28.752875287528752,216.49615505340088 L 17.35173517351735,211.60254719784305 L 13.4013401340134,208.364671323489 L 0.0,204.75885500886744 L 1.3001300130013,203.54465155598467 L 6.750675067506751,196.77454745506253 L 7.800780078007801,196.07546061855427 L 8.1008100810081,196.55378319090204 L 8.35083508350835,196.62737127895554 L 8.85088508850885,197.8415747318383 L 7.800780078007801,198.98219009666758 L 8.85088508850885,199.46051266901534 L 9.45094509450945,200.71151016592486 L 8.5008500850085,201.00586251813885 L 7.800780078007801,201.8153314867274 L 9.650965096509651,203.10312302766366 L 11.65116511651165,203.25029920377065 L 14.001400140014,202.95594685155666 L 16.7016701670167,202.9927408955834 L 17.2017201720172,202.36724214712865 L 20.65206520652065,200.56433398981787 L 23.75237523752375,199.90204119733636 L 25.302530253025303,199.12936627277458 L 26.7026702670267,198.17272112807908 L 29.05290529052905,196.00187253050078 L 31.45314531453145,192.65361452406646 z" /><path fill-rule="evenodd" fill="#D2EBD9" stroke="#A6A6A6" stroke-width="0.25" opacity="1" d="M 175.06750675067505,199.79165906525608 L 172.16721672167216,201.59456722256687 L 170.06700670067005,203.91259199625216 L 169.5169516951695,205.71550015356294 L 169.1169116911691,210.79307822925455 L 168.61686168616862,211.52895910978955 L 166.86668666866686,211.78651741797682 L 161.46614661466145,211.2714008016023 L 159.51595159515952,211.82331146200357 L 157.7157715771577,212.96392682683285 L 155.46554655465545,213.1478970469666 L 151.16511651165115,213.0007208708596 L 149.06490649064907,212.37522212240484 L 147.6147614761476,213.51583748723408 L 147.26472647264725,214.6196588080366 L 147.06470647064705,216.2018027011869 L 146.6146614661466,216.90088953769515 L 145.26452645264527,217.85753468239068 L 142.86428642864286,218.9613560031932 L 142.56425642564255,219.2557083554072 L 141.6141614161416,221.16899864479822 L 140.41404140414042,221.79449739325298 L 139.86398639863987,222.383202097681 L 139.61396139613962,223.33984724237652 L 139.61396139613962,225.2163434877408 L 138.36383638363836,225.4371077519013 L 118.46184618461845,225.2899315757943 L 116.56165616561655,224.84840304747328 L 113.96139613961395,222.53037827378802 L 113.66136613661365,221.500145041039 L 112.96129612961296,220.98502842466448 L 109.06090609060905,218.9613560031932 L 108.11081108110811,218.70379769500593 L 106.36063606360635,218.70379769500593 L 105.06050605060506,219.3292964434607 L 104.66046604660465,220.10197136802245 L 104.4104410441044,221.46335099701224 L 104.1104110411041,221.86808548130648 L 101.9101910191019,222.8983187140555 L 99.15991599159915,225.10596135566055 L 98.45984598459846,225.25313753176755 L 97.15971597159715,224.77481495941979 L 95.25952595259525,224.6276387833128 L 93.95939593959396,225.03237326760706 L 92.25922592259225,226.13619458840958 L 72.7072707270727,220.46991180828996 L 71.2071207120712,219.66044283970146 L 70.45704570457045,218.40944534279194 L 69.95699569956996,217.12165380185564 L 69.55695569556956,215.24515755649136 L 69.65696569656966,214.84042307219713 L 70.25702570257026,214.17813027971562 L 71.75717571757176,213.5894255752876 L 72.30723072307231,213.03751491488634 L 72.55725572557256,212.08086977019082 L 72.50725072507251,209.94681521663927 L 72.25722572257226,208.62222963167625 L 72.50725072507251,207.15046787060624 L 73.007300730073,206.45138103409798 L 74.15741574157416,205.89947037369672 L 74.90749074907491,205.01641331705468 L 74.95749574957496,204.61167883276042 L 74.50745074507451,201.92571361880763 L 74.90749074907491,201.26342082632613 L 76.35763576357635,200.41715781371084 L 76.95769576957696,199.23974840485482 L 77.00770077007701,198.72463178848034 L 76.8076807680768,198.02554495197205 L 76.35763576357635,197.1792819393568 L 75.15751575157515,195.89149039842053 L 74.25742574257426,194.5669048134575 L 74.35743574357436,193.61025966876198 L 74.80748074807481,192.91117283225373 L 75.75757575757575,192.28567408379897 L 79.85798579857985,190.48276592648818 L 81.55815581558156,189.93085526608692 L 82.55825582558255,191.47620511521043 L 83.6083608360836,191.84414555547795 L 87.2087208720872,192.17529195171872 L 94.1094109410941,191.8073515114512 L 94.9094909490949,191.62338129131746 L 96.35963596359636,190.4091778384347 L 97.05970597059705,190.04123739816717 L 97.65976597659765,189.93085526608692 L 98.20982098209821,189.89406122206017 L 103.31033103310331,190.88750041078242 L 106.010601060106,190.55635401454168 L 109.46094609460945,189.30535651763216 L 110.51105110511051,188.56947563709716 L 111.4111411141114,187.64962453642838 L 112.2112211221122,187.3184781401876 L 113.36133613361335,186.95053769992012 L 122.21222122212221,185.36839380676983 L 123.36233623362335,185.36839380676983 L 130.16301630163017,186.10427468730484 L 132.9132913291329,186.80336152381312 L 135.26352635263527,187.98077093266915 L 139.66396639663967,192.35926217185246 L 140.06400640064007,193.13193709641422 L 140.31403140314032,194.08858224110975 L 140.66406640664064,201.22662678229938 L 141.014101410141,202.07288979491463 L 141.3141314131413,202.4040361911554 L 143.1143114311431,203.43426942390442 L 147.1147114711471,200.49074590176437 L 148.8148814881488,200.71151016592486 L 151.1151115111511,201.48418509048662 L 152.6152615261526,201.30021487035287 L 154.46544654465447,199.3501305369351 L 167.86678667866786,193.86781797694923 L 169.76697669766975,192.32246812782572 L 170.86708670867085,189.4157386497124 L 173.31733173317332,192.13849790769197 L 175.06750675067505,199.79165906525608 z" /></g></g></g></svg>