<svg xmlns="http://www.w3.org/2000/svg" xmlns:xlink="http://www.w3.org/1999/xlink" width="379.39426013454795" height="500.0" viewBox="0.0 0.0 379.39426013454795 500.0" preserveAspectRatio="xMinYMin meet"><g transform="matrix(1,0,0,-1,0,500.0)"><g><g><path fill-rule="evenodd" fill="#D2EBD9" stroke="#A6A6A6" stroke-width="0.25" opacity="1" d="M 238.39725336787328,337.03370337033704 L 273.49473217819997,331.3331333133313 L 292.73194488829256,342.28422842284226 L 298.5372575996223,341.9341934193419 L 307.6436304801395,337.53375337533754 L 309.80639403926233,337.1837183718372 L 314.92872878455324,331.28312831283125 L 318.6851075977666,337.8837883788379 L 318.950710140115,340.1340134013401 L 321.41701946192177,343.38433843384337 L 321.6826220042702,344.984498449845 L 321.53084912292826,345.7845784578458 L 320.9996440382314,346.13461346134613 L 320.80992793655395,346.5846584658466 L 321.15141691957336,349.18491849184915 L 321.56879234326374,350.48504850485045 L 322.21382708896704,351.58515851585156 L 325.40105759714805,354.83548354835483 L 330.0680736984131,357.68576857685764 L 331.2443135288133,358.8358835883588 L 332.0411211558585,360.2360236023602 L 333.10353132525216,363.4863486348635 L 333.9762253929684,365.13651365136514 L 329.76452793572923,369.08690869086905 L 325.40105759714805,369.78697869786976 L 322.137940648296,365.03650365036503 L 319.9751770891732,372.3872387238724 L 316.33262793696633,374.1874187418742 L 307.9851194631589,374.5874587458746 L 302.1798067518292,378.2378237823782 L 298.1957686166029,381.18811881188117 L 295.6535728541252,385.9385938593859 L 294.553219464396,394.7894789478948 L 293.83229827802177,410.5910591059106 L 289.4308847191051,410.3410341034103 L 289.4308847191051,406.2406240624062 L 254.5990084511268,352.78527852785277 L 238.39725336787328,337.03370337033704 z" /><path fill-rule="evenodd" fill="#D2EBD9" stroke="#A6A6A6" stroke-width="0.25" opacity="1" d="M 199.69516862567517,299.42994299429944 L 240.82561946934453,289.97899789979 L 231.7571898091628,270.6770677067707 L 236.12066014774396,264.07640764076405 L 241.2050516726994,250.2250225022502 L 237.22101353747314,224.72247224722472 L 249.55256014650683,219.3219321932193 L 253.49865506139764,223.5223522352235 L 257.36886353561744,229.2229222922292 L 262.7188576029213,239.97399739973997 L 267.3099872635154,246.2246224622462 L 271.6355143817611,250.9250925092509 L 275.2401203136325,256.97569756975696 L 277.85820251678115,259.4759475947595 L 278.84472624550386,260.82608260826083 L 280.6280576012718,264.7264726472647 L 286.2057109905886,273.37733773377335 L 292.9596042103055,285.028502850285 L 294.24967370171214,287.8287828782878 L 294.78087878640895,291.029102910291 L 294.3635033627186,293.3293329332933 L 294.3635033627186,294.9294929492949 L 298.8408033623062,304.38043804380436 L 300.6241347180742,309.3809380938094 L 302.29363641283567,311.98119811981195 L 304.9876050566553,317.2817281728173 L 310.5652584459721,325.0825082508251 L 312.95568132710787,327.83278327832784 L 314.92872878455324,331.28312831283125 L 309.80639403926233,337.1837183718372 L 307.6436304801395,337.53375337533754 L 298.5372575996223,341.9341934193419 L 292.73194488829256,342.28422842284226 L 273.49473217819997,331.3331333133313 L 238.39725336787328,337.03370337033704 L 199.69516862567517,299.42994299429944 z" /><path fill-rule="evenodd" fill="#D2EBD9" stroke="#A6A6A6" stroke-width="0.25" opacity="1" d="M 165.28066778138722,263.026302630263 L 170.78243473003303,250.2250225022502 L 172.2242771027816,247.3247324732473 L 184.2143347287959,244.42444244424442 L 191.1200008298548,246.2246224622462 L 190.39907964348052,241.1241124112411 L 186.75653049127362,233.8233823382338 L 188.1983728640222,222.57225722572255 L 197.2668025242039,215.27152715271527 L 196.92531354118452,202.9202920292029 L 220.48805336952276,187.61876187618762 L 236.80363811378277,204.57045704570456 L 240.02881184229926,209.07090709070906 L 249.55256014650683,219.3219321932193 L 237.22101353747314,224.72247224722472 L 241.2050516726994,250.2250225022502 L 236.12066014774396,264.07640764076405 L 231.7571898091628,270.6770677067707 L 240.82561946934453,289.97899789979 L 199.69516862567517,299.42994299429944 L 180.4200126952471,279.6779677967797 L 165.28066778138722,263.026302630263 z" /><path fill-rule="evenodd" fill="#D2EBD9" stroke="#A6A6A6" stroke-width="0.25" opacity="1" d="M 165.28066778138722,263.026302630263 L 144.33601015619766,240.07400740074007 L 143.273599986804,239.67396739673967 L 131.81474744548652,240.32403240324032 L 134.85020507232556,221.8221822182218 L 137.3924008348033,209.47094709470946 L 139.21367541090675,201.82018201820182 L 138.11332202117757,195.96959695969596 L 138.45481100419698,180.36803680368035 L 149.00302625746272,179.6179617961796 L 151.88671100295986,178.16781678167817 L 156.250181341541,177.81778177817782 L 180.57178557658904,179.6179617961796 L 183.83490252544104,189.4189418941894 L 196.92531354118452,202.9202920292029 L 197.2668025242039,215.27152715271527 L 188.1983728640222,222.57225722572255 L 186.75653049127362,233.8233823382338 L 190.39907964348052,241.1241124112411 L 191.1200008298548,246.2246224622462 L 184.2143347287959,244.42444244424442 L 172.2242771027816,247.3247324732473 L 170.78243473003303,250.2250225022502 L 165.28066778138722,263.026302630263 z" /><path fill-rule="evenodd" fill="#D2EBD9" stroke="#A6A6A6" stroke-width="0.25" opacity="1" d="M 131.81474744548652,240.32403240324032 L 109.0488152441935,241.6241624162416 L 107.68285931211592,241.3241324132413 L 104.53357202427038,240.17401740174017 L 93.03677626261742,237.5237523752375 L 78.20097711144147,230.47304730473047 L 72.13006185776334,225.37253725372537 L 71.40914067138907,223.77237723772376 L 70.76410592568577,221.22212221222122 L 70.19495762065344,220.02200220022002 L 69.13254745125977,218.8218821882188 L 77.4800559250672,204.37043704370436 L 78.92189829781576,201.42014201420142 L 78.20097711144147,194.9194919491949 L 88.74919236470724,191.26912691269126 L 94.89599405905635,192.71927192719272 L 98.53854321126323,196.71967196719672 L 101.08073897374095,201.42014201420142 L 102.5225813464895,202.5202520252025 L 105.7856982953415,203.97039703970395 L 108.32789405781922,203.97039703970395 L 116.67540253162666,201.42014201420142 L 121.4183050735627,191.26912691269126 L 121.4183050735627,184.7184718471847 L 120.31795168383354,182.91829182918292 L 125.0229110054341,179.96799679967995 L 132.30800930984785,180.36803680368035 L 134.1292838859513,179.6179617961796 L 138.45481100419698,180.36803680368035 L 138.11332202117757,195.96959695969596 L 139.21367541090675,201.82018201820182 L 137.3924008348033,209.47094709470946 L 134.85020507232556,221.8221822182218 L 131.81474744548652,240.32403240324032 z" /><path fill-rule="evenodd" fill="#D2EBD9" stroke="#A6A6A6" stroke-width="0.25" opacity="1" d="M 69.13254745125977,218.8218821882188 L 67.7286482988467,217.9217921792179 L 66.21091948542717,217.3217321732173 L 48.33966270741215,214.2214221422142 L 42.458463555411456,214.17141714171416 L 41.28222372501132,213.87138713871386 L 40.03009745394021,213.27132713271325 L 37.981163555823834,211.62116211621162 L 35.438967793346116,210.02100210021 L 34.79393304764281,209.47094709470946 L 34.52833050529439,208.77087708770875 L 34.566273725629884,207.67076707670765 L 34.37655762395244,207.17071707170717 L 33.88329575959109,206.77067706770677 L 13.697502541111293,177.86778677867787 L 0.5312050846968368,164.76647664766475 L 0.0,163.76637663766377 L 0.11382966100646504,106.26062606260625 L 16.50530084593743,107.3107310731073 L 24.473377116389983,132.013201320132 L 52.0960415206255,132.36323632363235 L 59.34319660470377,173.06730673067307 L 71.33325423071808,171.96719671967196 L 77.4800559250672,172.71727172717272 L 77.4800559250672,178.9178917891789 L 78.20097711144147,194.9194919491949 L 78.92189829781576,201.42014201420142 L 77.4800559250672,204.37043704370436 L 69.13254745125977,218.8218821882188 z" /><path fill-rule="evenodd" fill="#D2EBD9" stroke="#A6A6A6" stroke-width="0.25" opacity="1" d="M 289.4308847191051,410.3410341034103 L 289.4308847191051,472.59725972597255 L 287.60961014300165,472.6472647264726 L 284.42237963482063,473.69736973697366 L 283.01848048240754,474.49744974497446 L 281.6145813299945,475.047504750475 L 279.11032878785227,475.59755975597557 L 276.6440194660455,475.09750975097506 L 274.29153980524524,475.19751975197516 L 272.73586777149023,474.3474347434743 L 267.80324912787677,473.5473547354735 L 266.9305550601605,472.79727972797275 L 266.3993499754637,471.79717971797174 L 264.6160186196957,471.2971297129713 L 263.6674381113085,471.2971297129713 L 263.3259491282891,471.14711471147115 L 263.1741762469472,470.5970597059706 L 262.45325506057287,470.24702470247024 L 261.20112878950175,468.74687468746873 L 260.1007753997726,468.3968396839684 L 253.46071184106214,467.996799679968 L 251.44972116328125,468.24682468246823 L 246.89653472302265,468.1968196819682 L 244.8476008249063,467.0967096709671 L 243.67136099450616,467.3467346734673 L 238.01782116451838,470.2970297029703 L 236.84158133411825,470.4970497049705 L 234.90647709700835,469.99699969997 L 233.80612370727917,470.1970197019702 L 233.08520252090491,470.04700470047004 L 228.60790252131727,467.8467846784678 L 227.2798898095752,466.8466846684668 L 225.6103881148137,466.3466346634663 L 223.86499997938122,464.69646964696466 L 219.34975675945813,461.0961096109611 L 214.94834320054147,459.5959595959596 L 214.1894787938317,458.64586458645863 L 212.5958635397412,457.8957895789579 L 211.15402116699264,456.7456745674567 L 207.96679065881162,455.29552955295526 L 206.7146643877405,454.29542954295425 L 206.22140252337917,454.045404540454 L 204.1345254049273,453.89538953895385 L 203.1100584558691,453.4453445344534 L 201.8958754051335,453.2453245324532 L 200.90935167641078,452.59525952595254 L 199.01219065963636,451.995199519952 L 197.6082915072233,451.94519451945195 L 196.20439235481024,452.14521452145215 L 194.91432286340364,452.6452645264526 L 193.88985591434545,453.39533953395335 L 192.29624066025494,455.09550955095506 L 191.3856033722032,455.69556955695566 L 190.28524998247406,455.8455845584558 L 187.74305421999634,455.09550955095506 L 186.45298472858974,454.89548954895486 L 183.22781100007322,455.79557955795576 L 181.93774150866662,455.9455945594559 L 178.56079489880815,457.4957495749575 L 177.95370337344033,457.4957495749575 L 178.1054762547823,456.8456845684568 L 177.49838472941448,456.8456845684568 L 176.62569066169826,458.0958095809581 L 176.09448557700142,458.5458545854585 L 175.03207540760775,458.84588458845883 L 174.38704066190442,458.84588458845883 L 173.8178923568721,458.5958595859586 L 173.2487440518398,457.5957595759576 L 172.11044744177514,457.19571957195717 L 170.8962643910395,455.8455845584558 L 167.25371523883263,454.39543954395435 L 166.15336184910348,453.09530953095305 L 164.1423711713226,451.6951695169517 L 162.62464235790304,451.0951095109511 L 161.29662964616097,450.7950795079508 L 160.68953812079315,450.74507450745074 L 158.71649066334774,451.1951195119512 L 158.10939913797992,450.8950895089509 L 155.6051465958377,448.5948594859486 L 152.15231354530826,446.39463946394636 L 150.48281185054677,445.8445844584458 L 146.4987737153205,443.4443444344434 L 146.00551185095915,443.4443444344434 L 146.23317117297208,442.7942794279428 L 145.09487456290742,441.7941794179418 L 142.81828134277814,441.64416441644164 L 137.3924008348033,442.24422442244224 L 132.91510083521567,440.84408440844084 L 131.43531524213162,440.5940594059406 L 129.80375676770564,440.94409440944094 L 127.03390168321498,441.24412441244124 L 124.30198981905981,441.0941094109411 L 122.78426100564029,441.74417441744174 L 120.1282355821561,443.29432943294324 L 115.5750491418975,447.044704470447 L 113.67788812512308,448.1948194819482 L 111.17363558298085,450.4950495049505 L 107.34137032909653,453.1453145314531 L 103.96442371923807,456.09560956095606 L 101.2704550754184,459.44594459445943 L 97.77967880455347,462.89628962896285 L 96.26194999113393,465.99659965996597 L 95.35131270308221,467.3467346734673 L 95.00982372006281,468.34683468346833 L 94.47861863536598,469.0969096909691 L 94.28890253368854,469.64696469646964 L 93.90947033033365,469.99699969997 L 93.07471948295291,470.24702470247024 L 92.23996863557217,471.0971097109711 L 91.55699066953338,472.19721972197215 L 91.25344490684947,473.39733973397335 L 91.7846499915463,476.8476847684768 L 91.63287711020435,477.4477447744774 L 91.21550168651399,477.3977397739774 L 90.79812626282362,476.997699769977 L 90.5325237204752,476.3476347634763 L 88.8630220257137,477.4477447744774 L 87.49706609363612,477.84778477847783 L 86.66231524625537,478.8978897889789 L 86.16905338189403,479.14791479147914 L 85.48607541585524,479.84798479847984 L 84.12011948377766,481.8481848184818 L 84.3098355854551,480.3980398039804 L 83.55097117874534,480.44804480448045 L 82.60239067035813,481.39813981398135 L 70.65027626467929,462.5462546254625 L 70.00524151897599,460.3960396039604 L 69.39814999360819,459.8959895989599 L 67.84247795985316,459.24592459245923 L 67.31127287515632,458.64586458645863 L 66.62829490911753,456.7456745674567 L 64.7690771126786,455.09550955095506 L 64.35170168898823,454.49544954495445 L 63.403121180601026,451.34513451345134 L 62.94780253657517,450.74507450745074 L 61.05064151980075,449.74497449744973 L 61.088584740136234,448.994899489949 L 61.80950592651052,447.3447344734473 L 62.79602965523321,445.79457945794576 L 64.8070203330141,443.8443844384438 L 65.33822541771093,443.09430943094304 L 65.7556008414013,442.0942094209421 L 66.21091948542717,438.7438743874387 L 66.89389745146595,436.3436343634363 L 67.91836440052414,434.09340934093404 L 68.86694490891135,432.993299329933 L 72.35772117977628,430.6930693069307 L 73.19247202715702,429.8429842984298 L 74.33076863722167,427.5427542754275 L 74.59637117957008,426.29262926292625 L 75.31729236594437,424.59245924592454 L 76.30381609466706,423.5923592359236 L 77.63182880640916,423.04230423042304 L 79.30133050117064,422.74227422742274 L 80.66728643324822,422.14221422142214 L 81.35026439928701,420.94209420942093 L 82.41267456868069,415.09150915091504 L 82.90593643304203,413.64136413641364 L 83.6648008397518,412.74127412741274 L 84.9548703311584,412.34123412341233 L 85.2963593141778,411.991199119912 L 85.90345083954561,410.7910791079108 L 87.30734999195869,409.6409640964096 L 88.36976016135236,407.3407340734073 L 88.59741948336529,405.39053905390534 L 89.05273812739115,404.84048404840485 L 93.7576974489917,401.990199019902 L 94.4406754150305,401.94019401940193 L 95.31336948274672,402.2902290229023 L 95.88251778777905,402.2902290229023 L 96.41372287247589,402.04020402040203 L 109.61796354922583,389.9389938993899 L 111.0218627016389,389.08890889088906 L 168.16435252688436,370.1370137013701 L 192.56184320260334,361.88618861886187 L 216.16252625127711,353.8853885388539 L 218.28734659006446,352.78527852785277 L 254.5990084511268,352.78527852785277 L 289.4308847191051,406.2406240624062 L 289.4308847191051,410.3410341034103 z" /><path fill-rule="evenodd" fill="#D2EBD9" stroke="#A6A6A6" stroke-width="0.25" opacity="1" d="M 289.4308847191051,410.3410341034103 L 293.83229827802177,410.5910591059106 L 294.553219464396,394.7894789478948 L 295.6535728541252,385.9385938593859 L 298.1957686166029,381.18811881188117 L 302.1798067518292,378.2378237823782 L 307.9851194631589,374.5874587458746 L 316.33262793696633,374.1874187418742 L 319.9751770891732,372.3872387238724 L 322.137940648296,365.03650365036503 L 325.40105759714805,369.78697869786976 L 329.76452793572923,369.08690869086905 L 333.9762253929684,365.13651365136514 L 336.3287050537687,368.2368236823682 L 337.2393423418204,370.28702870287026 L 338.49146861289154,370.78707870787076 L 338.98473047725287,371.4371437143714 L 339.5538787822852,372.7872787278728 L 339.66770844329164,373.4873487348735 L 339.5538787822852,375.6875687568757 L 339.8194813246336,376.4376437643764 L 341.5269262397306,378.58785878587855 L 342.0960745447629,379.8379837983798 L 342.7790525108017,382.8882888288829 L 343.27231437516303,384.3884388438844 L 343.91734912086633,385.53855385538554 L 344.7900431885826,386.7386738673867 L 345.92833979864724,387.88878887888785 L 349.91237793387353,391.039103910391 L 350.9747881032672,392.3392339233923 L 351.505993187964,393.6893689368937 L 351.2403906456156,396.8396839683968 L 351.43010674729305,397.38973897389735 L 352.98577878104805,399.7399739973997 L 355.1105991198354,400.7900790079008 L 355.8315203062097,401.3901390139014 L 358.108113526339,405.09050905090504 L 358.33577284835195,405.69056905690564 L 358.4496025093584,406.39063906390635 L 358.33577284835195,407.19071907190715 L 357.4630787806357,409.5409540954095 L 357.19747623828727,411.4911491149115 L 357.23541945862274,412.5912591259126 L 357.8804542043261,413.5913591359136 L 358.4116592890229,416.89168916891686 L 358.22194318734546,417.9417941794179 L 358.9428643737198,419.6419641964196 L 359.51201267875206,422.1922192219222 L 359.92938810244243,422.94229422942294 L 359.815558441436,423.3923392339234 L 360.3088203057973,425.9425942594259 L 360.6123660684812,426.4426442644264 L 360.65030928881674,427.3427342734273 L 360.23293386512637,428.49284928492847 L 360.0432177634489,430.1930193019302 L 361.1056279328426,432.94329432943294 L 360.6882525091522,435.09350935093505 L 360.9917982718361,437.3437343734373 L 361.6368330175394,438.5438543854385 L 364.86200674605595,440.54405440544053 L 367.5180321695401,441.44414441444144 L 373.0197991181859,442.14421442144214 L 373.58894742321826,441.94419441944194 L 374.15809572825054,440.3940394039404 L 375.18256267730874,440.1940194019402 L 375.8655406433476,440.3940394039404 L 376.92795081274124,440.2940294029403 L 377.9144745414639,439.99399939994 L 377.762701660122,440.4940494049405 L 378.21802030414784,440.8940894089409 L 378.6733389481737,441.04410441044104 L 379.39426013454795,442.94429442944295 L 378.9009982701866,443.29432943294324 L 378.5974525075027,444.09440944094405 L 377.2314965754251,444.29442944294425 L 376.0931999653605,443.89438943894385 L 374.87901691462486,444.1444144414441 L 372.2609347114762,445.79457945794576 L 370.66731945738564,447.19471947194717 L 371.27441098275347,445.6445644564456 L 371.3882406437599,444.044404440444 L 372.22299149114065,443.4443444344434 L 372.3747643724826,443.044304430443 L 372.2609347114762,442.74427442744275 L 371.160581321747,442.8942894289429 L 365.6208711527657,441.7941794179418 L 364.9378931867269,441.8941894189419 L 364.63434742404297,442.44424442444245 L 364.9378931867269,443.09430943094304 L 365.54498471209473,443.69436943694365 L 366.265905898469,443.9443944394439 L 367.06271352551425,443.99439943994395 L 367.59391861021106,444.2444244424442 L 367.97335081356596,444.69446944694465 L 368.1630669152434,445.4445444544454 L 367.97335081356596,447.044704470447 L 368.1630669152434,447.69476947694767 L 369.8705118303404,448.1448144814481 L 370.0981711523533,448.5448544854485 L 369.26342030497256,451.3951395139514 L 368.4286694575918,463.09630963096305 L 368.73221522027575,464.79647964796476 L 369.4151931863145,465.89658965896587 L 370.2120008133598,467.6967696769677 L 371.1226381014115,468.4968496849685 L 370.5914330167147,469.24692469246924 L 368.99781776262415,469.2969296929693 L 367.36625928819814,470.2970297029703 L 366.8729974238368,471.99719971997195 L 367.1385999661852,473.5473547354735 L 367.2144864068562,475.99759975997597 L 368.8081016609467,479.94799479947994 L 368.8839881016177,480.7980798079808 L 368.65632877960473,482.048204820482 L 368.7701584406112,482.29822982298225 L 373.24745844019884,487.4987498749875 L 373.5510042028828,488.5988598859886 L 373.32334488086985,490.34903490349035 L 373.9304364062376,491.49914991499145 L 374.3098686095925,492.99929992999296 L 374.87901691462486,494.19941994199417 L 373.20951521986336,494.7494749474947 L 370.8190923387276,495.049504950495 L 369.604909287992,495.6995699569957 L 368.8839881016177,495.8995899589959 L 366.03824657645606,495.8995899589959 L 365.3173253900818,496.1496149614961 L 363.1545618309589,497.8997899789979 L 359.4361262380811,498.2998299829983 L 356.93187369593886,500.0 L 355.9832931875517,499.8999899989999 L 355.6038609841968,499.5999599959996 L 354.27584827245465,499.34993499349935 L 352.75811945903513,498.64986498649864 L 351.9613118319899,498.44984498449844 L 351.2403906456156,498.6998699869987 L 350.7471287812543,498.1998199819982 L 348.84996776447986,497.44974497449743 L 348.318762679783,496.999699969997 L 347.18046606971836,495.19951995199517 L 346.57337454435054,491.89918991899185 L 343.8035194598599,488.94889488948894 L 343.1205414938211,488.44884488448844 L 341.4889830193951,488.14881488148814 L 338.45352539255606,485.6485648564856 L 337.69466098584627,485.19851985198517 L 336.13898895209127,484.7484748474847 L 335.1145220030331,484.19841984198416 L 333.8244525116265,484.19841984198416 L 332.7240991218973,483.3483348334833 L 330.5992787831099,482.19821982198215 L 329.91630081707115,482.29822982298225 L 326.6152406478837,482.19821982198215 L 325.8563762411739,482.4482448244824 L 323.921272004064,481.39813981398135 L 323.61772624138007,481.4481448144814 L 322.5553160719864,480.54805480548055 L 320.88581437722496,480.34803480348035 L 317.6606406487084,480.64806480648065 L 316.59823047931474,480.8980898089809 L 315.839366072605,480.7980798079808 L 315.04255844555973,480.3980398039804 L 312.576249123753,480.3980398039804 L 311.9312143780497,480.14801480148014 L 310.6032016663076,477.94779477947793 L 310.07199658161073,477.5977597759776 L 309.38901861557196,477.4977497749775 L 306.8847660734297,476.09760976097607 L 303.4698762432358,475.7475747574757 L 302.6730686161905,476.1476147614761 L 301.7624313281388,475.09750975097506 L 300.3585321757257,474.4474447444744 L 290.79684065118266,472.6472647264726 L 289.4308847191051,472.59725972597255 L 289.4308847191051,410.3410341034103 z" /><path fill-rule="evenodd" fill="#D2EBD9" stroke="#A6A6A6" stroke-width="0.25" opacity="1" d="M 0.11382966100646504,106.26062606260625 L 0.11382966100646504,61.5061506150615 L 0.5312050846968368,29.952995299529952 L 20.223736438815287,4.5004500450045 L 20.67905508284115,3.7003700370037 L 20.792884743847612,3.0003000300030003 L 20.67905508284115,0.0 L 21.62763559122836,0.95009500950095 L 21.399976269215426,0.95009500950095 L 22.120897455589706,1.6001600160016 L 23.410966946996307,3.7503750375037503 L 24.92869576041584,4.75047504750475 L 26.294651692493424,7.500750075007501 L 27.850323726248444,9.650965096509651 L 31.606702539461793,15.75157515751575 L 31.834361861474722,16.45164516451645 L 31.834361861474722,17.1017101710171 L 31.37904321744886,18.4018401840184 L 31.341099997113375,19.15191519151915 L 31.568759319126304,19.15191519151915 L 31.834361861474722,18.151815181518153 L 32.59322626818449,17.551755175517552 L 33.39003389522974,17.65176517651765 L 33.84535253925561,18.651865186518652 L 33.238261013887794,18.2018201820182 L 32.93471525120388,18.2018201820182 L 32.82088559019742,18.5018501850185 L 32.97265847153937,18.9018901890189 L 34.60421694596537,20.9020902090209 L 34.8318762679783,21.75217521752175 L 35.85634321703649,22.802280228022802 L 36.53932118307527,24.4024402440244 L 36.577264403410766,24.9024902490249 L 35.93222965770746,25.55255525552555 L 35.55279745435258,27.35273527352735 L 35.93222965770746,28.55285528552855 L 35.85634321703649,29.1029102910291 L 36.04605931871393,29.1029102910291 L 36.273718640726855,28.5028502850285 L 36.23577542039137,27.052705270527053 L 36.387548301733325,25.55255525552555 L 36.53932118307527,25.302530253025303 L 38.13293643716579,26.452645264526453 L 38.89180084387555,28.202820282028203 L 40.181870335282156,29.452945294529453 L 40.485416097966066,30.25302530253025 L 40.52335931830155,30.95309530953095 L 39.84038135226276,31.103110311031102 L 40.14392711494667,31.5031503150315 L 42.458463555411456,31.753175317531753 L 43.596760165476105,32.45324532453245 L 44.545340673863315,33.4033403340334 L 45.987183046611875,35.7035703570357 L 46.442501690637734,35.9035903590359 L 46.632217792315174,36.7036703670367 L 50.27476694452206,41.054105410541055 L 52.02015507995452,42.8042804280428 L 52.551360164651356,43.75437543754375 L 54.48646440176126,45.25452545254525 L 54.71412372377419,44.95449544954495 L 54.71412372377419,44.504450445044505 L 54.86589660511615,44.654465446544656 L 55.207385588135544,45.25452545254525 L 54.79001016444517,45.654565456545654 L 54.97972626612261,46.25462546254625 L 56.68717118121959,48.4048404840484 L 57.55986524893582,48.6048604860486 L 57.74958135061326,49.5049504950495 L 58.622275418329494,50.8050805080508 L 61.088584740136234,53.25532553255325 L 65.52794151938838,56.9056905690569 L 77.1385669420478,69.7069706970697 L 80.55345677224176,73.05730573057305 L 64.04815592630433,72.85728572857285 L 60.443549994432935,87.7087708770877 L 53.15845169001917,109.5109510951095 L 44.81094321621173,109.16091609160915 L 16.50530084593743,107.3107310731073 L 0.11382966100646504,106.26062606260625 z" /><path fill-rule="evenodd" fill="#D2EBD9" stroke="#A6A6A6" stroke-width="0.25" opacity="1" d="M 92.771173720269,86.008600860086 L 83.6648008397518,98.95989598959895 L 73.11658558648604,114.6114611461146 L 70.23290084098893,116.76167616761676 L 56.42156863887117,129.86298629862986 L 52.0960415206255,132.36323632363235 L 24.473377116389983,132.013201320132 L 16.50530084593743,107.3107310731073 L 44.81094321621173,109.16091609160915 L 53.15845169001917,109.5109510951095 L 60.443549994432935,87.7087708770877 L 64.04815592630433,72.85728572857285 L 80.55345677224176,73.05730573057305 L 84.23394914478412,76.65766576657666 L 90.8360694831591,84.10841084108411 L 92.771173720269,86.008600860086 z" /><path fill-rule="evenodd" fill="#D2EBD9" stroke="#A6A6A6" stroke-width="0.25" opacity="1" d="M 156.13635168053455,133.7133713371337 L 160.61365168012216,139.66396639663967 L 158.45088812099934,140.7140714071407 L 158.79237710401873,160.36603660366035 L 150.82430083356618,171.96719671967196 L 149.00302625746272,179.6179617961796 L 138.45481100419698,180.36803680368035 L 134.1292838859513,179.6179617961796 L 135.19169405534498,172.36723672367236 L 133.37041947924152,163.61636163616362 L 134.1292838859513,161.46614661466145 L 132.64949829286726,151.6151615161516 L 133.74985168259641,142.16421642164215 L 105.7856982953415,129.86298629862986 L 94.89599405905635,125.46254625462545 L 73.11658558648604,114.6114611461146 L 83.6648008397518,98.95989598959895 L 92.771173720269,86.008600860086 L 97.77967880455347,90.8090809080908 L 99.37329405864398,92.1092109210921 L 100.51159066870862,92.6092609260926 L 102.25697880414108,95.05950595059505 L 103.62293473621867,96.05960596059606 L 107.72080253245142,98.25982598259826 L 109.3903042272129,100.36003600360036 L 109.84562287123876,100.76007600760076 L 110.60448727794852,100.96009600960096 L 111.3633516846583,101.4101410141014 L 114.32292287082639,104.5104510451045 L 115.15767371820712,104.86048604860486 L 115.42327626055554,106.2106210621062 L 115.8785949045814,106.6106610661066 L 118.1931313450462,107.91079107910791 L 122.25305592094345,112.06120612061206 L 130.10730253038955,118.16181618161815 L 134.69843219098362,121.06210621062105 L 146.4987737153205,129.36293629362936 L 153.7079855790633,132.7132713271327 L 154.88422540946343,133.013301330133 L 156.13635168053455,133.7133713371337 z" /><path fill-rule="evenodd" fill="#D2EBD9" stroke="#A6A6A6" stroke-width="0.25" opacity="1" d="M 168.42995506923276,140.86408640864084 L 163.15584744259988,140.36403640364037 L 160.61365168012216,139.66396639663967 L 156.13635168053455,133.7133713371337 L 168.42995506923276,140.86408640864084 z" /><path fill-rule="evenodd" fill="#D2EBD9" stroke="#A6A6A6" stroke-width="0.25" opacity="1" d="M 220.48805336952276,187.61876187618762 L 196.92531354118452,202.9202920292029 L 183.83490252544104,189.4189418941894 L 180.57178557658904,179.6179617961796 L 156.250181341541,177.81778177817782 L 151.88671100295986,178.16781678167817 L 149.00302625746272,179.6179617961796 L 150.82430083356618,171.96719671967196 L 158.79237710401873,160.36603660366035 L 158.45088812099934,140.7140714071407 L 160.61365168012216,139.66396639663967 L 163.15584744259988,140.36403640364037 L 168.42995506923276,140.86408640864084 L 176.4359745600208,145.4145414541454 L 184.47993727114434,150.7150715071507 L 185.04908557617665,151.76517651765175 L 186.5668143895962,152.76527652765276 L 187.9327703216738,154.86548654865484 L 191.34766015186773,158.46584658465846 L 192.7515593042808,159.11591159115912 L 193.24482116864215,159.51595159515952 L 194.26928811770034,161.5161516151615 L 195.06609574474558,161.86618661866186 L 195.52141438877143,162.86628662866286 L 197.79800760890075,164.46644664466444 L 200.45403303238493,167.2167216721672 L 205.46253811666938,171.4171417141714 L 208.15650676048907,174.66746674667465 L 213.05118218376705,178.96789678967895 L 220.48805336952276,187.61876187618762 z" /><path fill-rule="evenodd" fill="#D2EBD9" stroke="#A6A6A6" stroke-width="0.25" opacity="1" d="M 134.1292838859513,179.6179617961796 L 132.30800930984785,180.36803680368035 L 125.0229110054341,179.96799679967995 L 120.31795168383354,182.91829182918292 L 121.4183050735627,184.7184718471847 L 121.4183050735627,191.26912691269126 L 116.67540253162666,201.42014201420142 L 108.32789405781922,203.97039703970395 L 105.7856982953415,203.97039703970395 L 102.5225813464895,202.5202520252025 L 101.08073897374095,201.42014201420142 L 98.53854321126323,196.71967196719672 L 94.89599405905635,192.71927192719272 L 88.74919236470724,191.26912691269126 L 78.20097711144147,194.9194919491949 L 77.4800559250672,178.9178917891789 L 77.4800559250672,172.71727172717272 L 71.33325423071808,171.96719671967196 L 59.34319660470377,173.06730673067307 L 52.0960415206255,132.36323632363235 L 56.42156863887117,129.86298629862986 L 70.23290084098893,116.76167616761676 L 73.11658558648604,114.6114611461146 L 94.89599405905635,125.46254625462545 L 105.7856982953415,129.86298629862986 L 133.74985168259641,142.16421642164215 L 132.64949829286726,151.6151615161516 L 134.1292838859513,161.46614661466145 L 133.37041947924152,163.61636163616362 L 135.19169405534498,172.36723672367236 L 134.1292838859513,179.6179617961796 z" /></g></g></g></svg>