<svg xmlns="http://www.w3.org/2000/svg" xmlns:xlink="http://www.w3.org/1999/xlink" width="500.0" height="373.64209164329804" viewBox="0.0 0.0 500.0 373.64209164329804" preserveAspectRatio="xMinYMin meet"><g transform="matrix(1,0,0,-1,0,373.64209164329804)"><g><g><path fill-rule="evenodd" fill="#D2EBD9" stroke="#A6A6A6" stroke-width="0.25" opacity="1" d="M 325.4325432543254,13.415092599254324 L 326.6826682668267,12.480893950281182 L 329.68296829682964,9.080410868018944 L 330.28302830283025,8.07147632712795 L 330.48304830483045,7.249381516031585 L 330.58305830583055,5.306248326167449 L 330.88308830883085,4.596257352947861 L 331.48314831483145,4.297313785276455 L 335.1335133513351,4.073106109522901 L 335.6335633563356,3.811530487810421 L 336.43364336433643,2.5036523792480216 L 337.0837083708371,1.831029351987359 L 337.7837783778378,1.457349892398102 L 340.4340434043404,0.9341986489731424 L 340.98409840984095,0.9341986489731424 L 341.2341234123412,1.3078781085623994 L 341.4341434143414,2.1673408656176902 L 341.28412841284126,4.895200920619266 L 341.8341834183418,5.493088055962077 L 349.58495849584955,10.23881719274564 L 351.48514851485146,10.649864598293822 L 365.8865886588659,11.845638868979446 L 369.48694869486945,12.92930930178829 L 372.7872787278728,14.610866869939947 L 375.33753375337534,16.51663211384516 L 376.0876087608761,16.778207735557636 L 376.9376937693769,16.441896221927305 L 382.2882288228823,12.069846544733 L 383.1883188318832,11.584063247266966 L 384.4884488448845,11.322487625554485 L 395.1895189518952,10.799336382129527 L 397.039703970397,11.02354405788308 L 398.78987898789876,12.069846544733 L 434.7434743474347,48.01781055721952 L 446.8446844684468,54.14615369448333 L 471.3971397139714,63.376036346337976 L 472.1472147214721,61.956054399898804 L 478.3978397839784,65.4312733740789 L 479.34793479347934,64.31023499531112 L 477.74777477747773,61.02185575092566 L 481.99819981998195,61.02185575092566 L 485.1485148514851,60.087657101952516 L 483.09830983098306,54.818776721743994 L 486.8486848684868,47.98044261126059 L 490.6490649064906,46.672564502698194 L 491.1491149114911,49.77410401728903 L 492.29922992299225,50.59619882838539 L 493.9493949394939,50.484094990508616 L 494.09940994099406,47.98044261126059 L 500.0,47.98044261126059 L 494.19941994199417,54.108785748524404 L 493.19931993199316,55.90244715455284 L 492.8492849284928,57.957684182293754 L 492.99929992999296,66.85125532051806 L 493.2493249324932,67.41177450990196 L 494.8494849484948,69.46701153764286 L 495.19951995199517,70.32647429469816 L 495.19951995199517,71.18593705175346 L 493.9493949394939,73.80169326887825 L 493.8493849384938,74.66115602593354 L 494.09940994099406,75.63272262086561 L 495.2495249524952,77.31428018901727 L 495.049504950495,77.68795964860652 L 492.7492749274927,78.58479035162074 L 489.94899489948995,80.30371586573132 L 488.8988898889889,80.60265943340272 L 487.34873487348733,80.04214024401884 L 486.3486348634863,79.85530051422421 L 485.29852985298527,80.11687613593669 L 483.4483448344834,81.61159397429373 L 482.49824982498245,82.17211316367761 L 480.84808480848085,82.47105673134901 L 479.1979197919792,82.3215849475133 L 478.2978297829783,81.7236978121705 L 476.5476547654765,79.81793256826529 L 475.59755975597557,79.14530954100462 L 474.5474547454745,78.99583775716891 L 473.79737973797376,79.36951721675818 L 473.1473147314731,80.07950818997776 L 471.59715971597154,82.65789646114364 L 471.6471647164716,83.1810477045686 L 472.59725972597255,84.56366170504884 L 472.09720972097205,85.9462757055291 L 470.44704470447044,87.2541538140915 L 467.046704670467,89.23465494991456 L 465.1465146514651,90.65463689635374 L 464.69646964696466,91.4767317074501 L 464.3464346434643,93.9430161407392 L 463.7463746374637,95.06405451950697 L 460.2960296029603,99.95925544012624 L 459.8959895989599,100.89345408909938 L 459.84598459845984,101.45397327848326 L 460.14601460146014,103.02342700875815 L 459.99599959996,103.50921030622418 L 459.2959295929593,104.25656922540269 L 459.0959095909591,104.7049845769098 L 459.24592459245923,105.67655117184187 L 459.6959695969597,106.57338187485608 L 459.64596459645963,107.05916517232211 L 426.59265926592656,97.1566594932068 L 342.68426842684266,102.31343603553856 L 341.6341634163416,97.56770689875499 L 341.98419841984196,70.81225759216419 L 343.58435843584357,65.39390542811996 L 346.984698469847,59.527137912568634 L 347.63476347634764,58.03242007421161 L 348.034803480348,56.500334289895655 L 347.98479847984794,55.19245618133325 L 347.4847484748475,53.73510628893515 L 346.63466346634664,52.12828461270134 L 344.2344234423442,48.5783297466034 L 340.28402840284025,39.946334230091566 L 338.68386838683864,33.631151363033126 L 337.8837883788379,31.912225848922542 L 336.83368336833684,30.604347740360144 L 335.4335433543354,29.221733739879895 L 330.98309830983095,26.045458333371208 L 330.18301830183015,25.07389173843914 L 329.38293829382934,23.541805954123188 L 326.5826582658266,15.806641140625569 L 325.5825582558256,14.162451518432839 L 325.4325432543254,13.415092599254324 z" /><path fill-rule="evenodd" fill="#D2EBD9" stroke="#A6A6A6" stroke-width="0.25" opacity="1" d="M 83.95839583958396,277.41963079906435 L 82.85828582858285,278.69014096166785 L 80.05800580058005,283.2116624226978 L 79.65796579657966,283.5853418822871 L 77.7077707770777,284.25796490954775 L 76.2076207620762,285.154795612562 L 75.45754575457545,285.9021545317405 L 75.1075107510751,293.0394322098953 L 74.80748074807481,293.5999513992792 L 72.8072807280728,296.02886788660936 L 70.45704570457045,295.50571664318437 L 69.15691569156915,294.9451974538005 L 67.1067106710671,294.98256539975944 L 65.25652565256526,294.6088859401702 L 63.656365636563656,294.53415004825234 L 61.8061806180618,294.08573469674525 L 58.005800580058,292.81522453414175 L 54.85548554855485,292.66575275030607 L 53.4053405340534,292.10523356092216 L 52.1052105210521,291.9931297230454 L 51.1051105110511,291.54471437153825 L 49.9049904990499,291.5820823174972 L 49.054905490549054,291.35787464174365 L 47.35473547354735,291.84365793920966 L 46.4046404640464,291.5820823174972 L 45.4045404540454,291.5820823174972 L 43.85438543854385,291.1336669659901 L 42.8042804280428,291.20840285790797 L 40.804080408040804,290.5731477766062 L 40.05400540054005,289.7510529655098 L 37.95379537953795,285.154795612562 L 37.8037803780378,284.3327008014656 L 38.453845384538454,282.3895676116015 L 38.4038403840384,281.64220869242297 L 36.203620362036204,276.52280009605016 L 33.55335533553355,273.2344208516647 L 32.1032103210321,272.33759014865046 L 30.653065306530653,271.10444793200594 L 29.902990299029902,270.7307684724167 L 28.9028902890289,270.58129668858095 L 28.6028602860286,270.13288133707385 L 28.45284528452845,269.2734185800186 L 28.45284528452845,257.3156758731623 L 28.102810281028102,256.3441092782303 L 25.5025502550255,253.39204154747515 L 24.3024302430243,252.27100316870738 L 23.65236523652365,251.0004930061039 L 22.802280228022802,242.5553372193867 L 18.55185518551855,234.96964418972476 L 18.5018501850185,230.11181121506442 L 17.85178517851785,229.58865997163946 L 15.75157515751575,228.8786689984199 L 10.95109510951095,228.28078186307707 L 6.35063506350635,225.32871413232195 L 5.05050505050505,224.73082699697912 L 2.6002600260026,222.86242969903284 L 2.05020502050205,221.6292874823883 L 4.05040504050405,221.74139132026508 L 4.85048504850485,221.3303439147169 L 4.75047504750475,220.73245677937408 L 3.95039503950395,219.5740504546474 L 3.8003800380038,218.97616331930456 L 4.1004100410041,218.37827618396176 L 5.2505250525052505,217.48144548094754 L 5.45054505450545,216.95829423752258 L 5.2005200520052,216.5472468319744 L 3.4503450345034503,215.38884050724772 L 3.05030503050305,214.90305720978168 L 0.65006500650065,210.90468699217664 L 0.15001500150015,209.44733709977854 L 0.0,208.06472309929828 L 0.4000400040004,206.7942129366948 L 1.3501350135013501,205.71054250388596 L 2.45024502450245,204.85107974683066 L 4.25042504250425,203.99161698977537 L 5.75057505750575,203.65530547614503 L 7.7007700770077,203.4684657463504 L 8.9008900890089,202.64637093525405 L 11.65116511651165,203.5805695842272 L 13.1013101310131,203.7300413680629 L 14.101410141014101,202.7584747731308 L 14.5014501450145,202.08585174587017 L 15.251525152515251,201.82427612415768 L 16.6016601660166,201.00218131306133 L 17.95179517951795,200.92744542114346 L 20.9020902090209,201.4132287186095 L 23.3023302330233,200.96481336710238 L 24.95249524952495,200.85270952922562 L 26.302630263026302,200.1053506100471 L 28.752875287528752,199.84377498833462 L 30.1030103010301,199.2085199070329 L 33.753375337533754,195.84540477072957 L 34.15341534153415,195.1727817434689 L 34.25342534253425,193.64069595915296 L 35.15351535153515,192.74386525613875 L 35.2035203520352,191.9591383910013 L 35.75357535753575,191.3612512556585 L 36.45364536453645,190.9502038501103 L 38.453845384538454,188.63339120065692 L 39.753975397539755,187.66182460572483 L 41.004100410041005,187.21340925421774 L 42.9042904290429,187.51235282188915 L 44.554455445544555,187.36288103805344 L 45.35453545354535,186.65289006483385 L 46.4046404640464,186.31657855120352 L 46.954695469546955,185.75605936181964 L 47.35473547354735,185.08343633455897 L 47.8047804780478,183.73819028003766 L 48.45484548454845,182.61715190126986 L 48.65486548654865,181.86979298209135 L 48.55485548554855,179.40350854880225 L 49.054905490549054,177.5724791968149 L 48.85488548854885,176.78775233167747 L 47.904790479047904,175.9656575205811 L 45.1045104510451,175.03145887160795 L 44.2044204420442,174.13462816859374 L 44.2044204420442,173.61147692516877 L 45.3045304530453,170.77151303229041 L 48.4048404840484,169.08995546413877 L 49.304930493049305,167.8194453015353 L 50.605060506050606,167.18419022023357 L 50.95509550955095,166.58630308489074 L 51.455145514551454,164.7552737329034 L 51.9051905190519,164.12001865160164 L 54.85548554855485,162.51319697536786 L 56.505650565056506,161.2426868127644 L 57.605760576057605,160.75690351529835 L 58.4058405840584,161.01847913701081 L 59.1059105910591,160.90637529913406 L 59.755975597559754,160.49532789358585 L 61.65616561656165,158.7764023794753 L 62.306230623062305,158.40272291988603 L 64.95649564956496,157.73009989262536 L 65.75657565756575,157.39378837899503 L 66.75667566756675,156.57169356789868 L 67.9067906790679,156.4969576759808 L 68.35683568356835,156.31011794618618 L 69.006900690069,155.6374949189255 L 70.55705570557055,155.48802313508983 L 70.75707570757075,155.11434367550055 L 70.75707570757075,154.55382448611667 L 71.15711571157115,153.84383351289708 L 73.7073707370737,153.47015405330782 L 74.4074407440744,153.1338425396775 L 74.90749074907491,151.60175675536155 L 76.2076207620762,150.85439783618304 L 77.9077907790779,150.40598248467592 L 78.15781578157815,150.10703891700453 L 78.3078307830783,149.54651972762062 L 80.7080708070807,149.24757615994923 L 80.95809580958095,148.27600956501715 L 81.1081108110811,146.07130075344054 L 81.5081508150815,145.09973415850848 L 81.75817581758176,144.95026237467277 L 82.5082508250825,145.06236621254956 L 82.7082708270827,144.91289442871386 L 82.6082608260826,144.16553550953535 L 82.85828582858285,143.11923302268542 L 83.008300830083,142.63344972521938 L 83.45834583458345,142.14766642775334 L 84.40844084408441,141.54977929241053 L 85.85858585858585,141.02662804898557 L 87.15871587158715,139.38243842679285 L 88.90889088908891,138.1866641561072 L 89.6089608960896,137.4393052369287 L 91.05910591059106,136.6919463177502 L 93.55935593559356,135.75774766877706 L 95.6095609560956,134.59934134405034 L 95.65956595659566,133.6277747491183 L 161.6161616161616,141.54977929241053 L 168.46684668466847,136.7293142637091 L 169.4169416941694,136.31826685816094 L 191.46914691469146,138.11192826418937 L 189.76897689768975,147.9023301054279 L 189.36893689368935,153.20857843159536 L 190.1190119011901,159.89744075824305 L 190.2190219021902,166.8105107606443 L 190.01900190019,168.5294362747549 L 189.5189518951895,169.5383708156459 L 187.86878687868787,170.8836168701672 L 187.51875187518752,171.70571168126358 L 188.16881688168814,173.6488448711277 L 188.2188218821882,174.76988324989549 L 187.61876187618762,175.74144984482754 L 186.26862686268626,176.52617670996497 L 184.46844684468445,177.16143179126672 L 179.1179117911791,180.11349952202184 L 175.6175617561756,182.84135957702344 L 172.56725672567256,184.7097568749697 L 170.46704670467045,185.60658757798393 L 164.06640664066407,186.7276259567517 L 162.6162616261626,187.51235282188915 L 161.66616661666166,188.4839194168212 L 159.01590159015902,191.80966660716558 L 153.5153515351535,200.89007747518454 L 151.66516651665165,202.8705786110076 L 145.6145614561456,201.2637569347738 L 120.16201620162016,189.1939103900408 L 115.56155615561555,186.0176349835321 L 112.91129112911291,184.59765303709293 L 110.76107610761075,183.92503000983228 L 109.56095609560955,183.88766206387334 L 108.11081108110811,184.07450179366796 L 106.4106410641064,184.74712482092863 L 92.45924592459245,193.8649036349065 L 90.00900090009,196.10698039244204 L 87.4087408740874,199.76903909641678 L 85.9085908590859,204.5895041251182 L 85.008500850085,210.4562716406695 L 84.8084808480848,216.43514299409762 L 82.55825582558255,230.89653808020188 L 82.7082708270827,259.18407317110865 L 84.15841584158416,273.8696759329664 L 83.95839583958396,277.41963079906435 z" /><path fill-rule="evenodd" fill="#D2EBD9" stroke="#A6A6A6" stroke-width="0.25" opacity="1" d="M 95.65956595659566,133.6277747491183 L 95.7095709570957,133.14199145165225 L 94.7094709470947,131.42306593754168 L 93.35933593359336,129.62940453151325 L 92.5092509250925,127.91047901740265 L 91.35913591359136,127.08838420630629 L 91.05910591059106,126.56523296288132 L 91.85918591859185,126.30365734116884 L 91.9091909190919,125.66840225986711 L 91.60916091609161,124.09894852959223 L 91.85918591859185,123.23948577253694 L 93.80938093809381,122.08107944781025 L 94.5094509450945,121.40845642054958 L 95.5095509550955,120.06321036602826 L 96.30963096309631,119.5400591226033 L 98.05980598059806,119.16637966301404 L 98.75987598759876,118.68059636554801 L 98.9098909890989,116.55062344588924 L 99.3099309930993,116.28904782417676 L 99.9099909990999,116.3264157701357 L 100.61006100610061,116.13957604034105 L 101.16011601160116,115.4669530130804 L 101.21012101210121,114.68222614794296 L 100.81008100810081,113.89749928280553 L 98.45984598459846,112.29067760657172 L 97.8097809780978,111.5433186873932 L 97.45974597459745,110.72122387629683 L 97.6097609760976,109.82439317328262 L 98.25982598259826,110.01123290307724 L 99.95999599959995,111.20700717376288 L 100.76007600760076,110.98279949800931 L 101.96019601960195,108.55388301067914 L 102.6102610261026,108.03073176725418 L 105.1105110511051,107.1712690101989 L 106.46064606460645,107.02179722636319 L 109.46094609460945,107.13390106423996 L 112.51125112511251,105.93812679355435 L 113.26132613261325,105.45234349608832 L 113.7113711371137,104.89182430670442 L 113.96139613961395,102.98605906279921 L 114.3114311431143,102.2387001436207 L 115.31153115311531,101.7902847921136 L 116.26162616261625,101.86502068403145 L 116.96169616961696,102.12659630574393 L 117.51175117511751,102.01449246786714 L 117.9117911791179,101.04292587293509 L 118.4118411841184,100.3329348997155 L 119.3119311931193,100.25819900779764 L 121.16211621162115,100.74398230526367 L 121.6121612161216,100.25819900779764 L 122.11221122112211,99.02505679115309 L 122.9122912291229,98.42716965581027 L 123.2123212321232,97.79191457450854 L 123.5123512351235,97.56770689875499 L 125.06250625062505,97.82928252046747 L 126.86268626862686,97.1566594932068 L 127.21272127212721,96.89508387149432 L 127.76277627762775,95.4003660331373 L 129.2129212921292,94.80247889779449 L 129.7129712971297,94.27932765436952 L 130.06300630063006,93.60670462710887 L 130.31303130313032,92.29882651854646 L 131.2131213121312,91.6262034912858 L 130.91309130913092,89.75780619333952 L 130.91309130913092,89.45886262566812 L 131.16311631163114,89.08518316607886 L 131.4131413141314,89.01044727416101 L 132.46324632463245,89.38412673375026 L 132.86328632863285,89.08518316607886 L 133.013301330133,88.74887165244853 L 133.013301330133,87.59046532772183 L 131.3131313131313,82.91947208285612 L 131.2131213121312,82.24684905559546 L 131.66316631663165,80.64002737936165 L 131.86318631863185,78.5474224056618 L 132.06320632063205,77.91216732436007 L 133.16331633163315,75.22167521531742 L 133.86338633863386,73.95116505271395 L 134.76347634763476,72.8674946199051 L 137.16371637163715,71.2606729436713 L 138.3138313831383,70.28910634873924 L 139.013901390139,68.60754878058758 L 140.26402640264027,67.71071807757336 L 140.66406640664064,67.15019888818948 L 140.76407640764074,66.62704764476452 L 140.46404640464047,64.72128240085931 L 142.86428642864286,63.00235688674872 L 143.2143214321432,62.59130948120054 L 143.76437643764376,60.87238396708996 L 144.56445644564457,60.23712888578822 L 145.4145414541454,59.938185318116815 L 149.11491149114912,59.527137912568634 L 149.91499149914992,59.0413546151026 L 150.46504650465045,58.03242007421161 L 150.76507650765075,56.2761266141421 L 151.06510651065105,55.56613564092251 L 151.6151615161516,55.1177202894154 L 153.1153115311531,55.37929591112788 L 153.86538653865387,54.70667288386722 L 154.31543154315432,53.809842180853 L 154.46544654465447,52.913011477838786 L 154.11541154115412,50.40935909859076 L 154.21542154215422,48.69043358448018 L 154.41544154415442,47.644131097630265 L 154.71547154715472,46.9715080703696 L 156.26562656265625,46.63519655673927 L 157.46574657465746,45.43942228605365 L 157.96579657965796,45.14047871838224 L 159.51595159515952,45.28995050221794 L 160.7160716071607,44.99100693454654 L 160.8160816081608,45.55152612393042 L 161.36613661366135,45.88783763756076 L 162.016201620162,45.32731844817687 L 164.96649664966495,45.02837488050546 L 165.06650665066505,44.54259158303943 L 164.7164716471647,42.86103401488777 L 164.8164816481648,42.03893920379141 L 166.46664666466646,39.46055093262554 L 166.86668666866686,39.49791887858446 L 167.96679667966797,40.46948547351653 L 168.66686668666867,40.4321175275576 L 168.91689168916892,40.09580601392727 L 169.1169116911691,39.2737112028309 L 170.3170317031703,37.77899336447388 L 171.86718671867186,36.396379363993624 L 173.56735673567357,36.17217168824007 L 175.4175417541754,36.54585114782933 L 177.2177217721772,36.62058703974718 L 178.61786178617862,35.57428455289726 L 179.16791679167915,34.079566714540235 L 179.5179517951795,33.66851930899205 L 180.5180518051805,33.33220779536172 L 181.46814681468146,33.4443116332385 L 182.36823682368237,34.00483082262238 L 183.16831683168317,34.7521897418009 L 184.8184818481848,36.91953060741859 L 185.4185418541854,37.33057801296677 L 186.36863686368636,37.55478568872032 L 187.56875687568757,37.40531390488462 L 187.96879687968797,37.517417742761396 L 188.26882688268824,37.89109720235066 L 188.5188518851885,38.86266379728272 L 189.018901890189,39.198975310913056 L 190.76907690769076,39.61002271646124 L 191.4191419141914,40.02107012200942 L 192.06920692069207,40.88053287906471 L 193.8193819381938,44.28101596132695 L 195.06950695069506,44.3557518532448 L 196.36963696369637,45.17784666434117 L 196.96969696969697,45.02837488050546 L 197.56975697569757,44.16891212345017 L 197.8197819781978,42.41261866338066 L 198.9198919891989,41.964203311873554 L 200.6200620062006,42.15104304166818 L 203.57035703570355,42.076307149750335 L 206.12061206120612,42.71156223105207 L 208.97089708970896,40.80579698714686 L 209.1209120912091,40.20790985180405 L 210.92109210921092,39.535286824543384 L 214.07140714071406,36.43374730995255 L 215.021502150215,35.98533195844544 L 216.12161216121612,36.13480374228115 L 216.42164216421642,36.80742676954181 L 216.52165216521652,37.59215363467925 L 217.021702170217,38.11530487810421 L 218.9218921892189,37.965833094268504 L 219.6219621962196,38.11530487810421 L 221.07210721072107,40.768429041187936 L 223.27232723272326,42.63682633913422 L 223.77237723772376,43.42155320427166 L 224.67246724672466,45.70099790776612 L 225.47254725472547,46.44835682694464 L 225.77257725772577,49.5872642874944 L 226.12261226122612,50.110415530919354 L 226.77267726772675,50.222519368796135 L 227.67276727672765,50.03567963900151 L 228.47284728472846,49.363056611740845 L 229.42294229422941,49.7367360713301 L 231.17311731173115,49.02674509811051 L 232.9232923292329,48.914641260233736 L 234.72347234723472,48.09254644913737 L 236.4236423642364,46.63519655673927 L 237.023702370237,46.29888504310894 L 237.37373737373736,46.224149151191085 L 238.3238323832383,46.44835682694464 L 240.47404740474047,45.28995050221794 L 240.12401240124012,44.57995952899835 L 241.3241324132413,45.252582556259014 L 249.12491249124912,51.30618980160498 L 250.7250725072507,53.06248326167449 L 251.7251725172517,53.99668191064763 L 252.7252725272527,54.669304937908294 L 253.77537753775377,55.1177202894154 L 254.67546754675467,55.30456001921003 L 255.77557755775575,55.2671920732511 L 256.7256725672567,54.89351261366185 L 257.67576757675766,54.25825753236011 L 260.42604260426043,51.71723720715316 L 261.4761476147615,51.081982125851425 L 262.57625762576254,50.820406504138944 L 263.9263926392639,51.0446141798925 L 265.4265426542654,51.791973099071015 L 271.02710271027104,57.28506115503309 L 272.97729772977294,58.74241104743119 L 277.77777777777777,61.20869548072029 L 283.67836783678365,63.15182867058442 L 284.6284628462846,63.71234785996831 L 285.37853785378536,64.60917856298252 L 285.67856785678566,66.0291605094217 L 286.3286328632863,78.62215829757966 L 286.77867786778677,80.67739532532057 L 287.5287528752875,82.50842467730793 L 289.4789478947895,85.497860354022 L 289.92899289928994,87.06731408429687 L 289.7789778977898,88.8609754903253 L 288.82888288828883,90.95358046402514 L 287.5787578757876,93.12092132964283 L 284.47844784478445,95.9982531684801 L 282.07820782078204,97.67981073663177 L 281.17811781178114,98.65137733156384 L 280.02800280028003,100.6318784673869 L 279.02790279027903,101.9397565759493 L 277.3277327732773,103.5465782521831 L 272.67726772677264,107.13390106423996 L 267.5267526752675,111.84226225506461 L 265.67656765676566,114.08433901260015 L 261.3761376137614,122.82843836698876 L 259.9259925992599,124.65946771897612 L 257.6257625762576,126.71470474671703 L 256.9256925692569,127.05101626034737 L 255.025502550255,126.78944063863489 L 246.47464746474645,126.63996885479918 L 245.8245824582458,126.228921449251 L 245.3245324532453,125.40682663815464 L 245.17451745174517,121.70739998822098 L 245.6245624562456,118.97953993321941 L 246.1246124612461,117.33535031102669 L 246.1246124612461,115.39221712116255 L 245.37453745374535,111.20700717376288 L 244.57445744574457,109.26387398389873 L 243.87438743874387,108.10546765917204 L 242.27422742274226,106.610749820815 L 239.27392739273927,102.72448344108673 L 238.4238423842384,101.11766176485293 L 237.07370737073705,97.19402743916574 L 236.57365736573655,95.17615835738374 L 234.47344734473447,93.9430161407392 L 231.5231523152315,93.86828024882135 L 212.97129712971295,95.6993096008087 L 211.47114711471147,96.11035700635689 L 210.02100210021,96.93245181745326 L 209.37093709370936,97.82928252046747 L 208.57085708570855,98.38980170985135 L 206.52065206520652,99.43610419670128 L 205.1205120512051,99.84715160224945 L 203.97039703970395,100.85608614314046 L 200.87008700870086,104.96656019862228 L 199.7199719971997,106.79758955060964 L 197.21972197219722,109.48808165965228 L 195.3195319531953,110.5343841465022 L 194.2194219421942,111.80489430910568 L 193.5193519351935,114.0096031206823 L 192.71927192719272,115.6164247969161 L 191.019101910191,118.12007717616412 L 190.66906690669066,119.16637966301404 L 190.56905690569056,120.43688982561751 L 190.8190819081908,121.96897560993347 L 190.4190419041904,124.47262798918149 L 189.86898689868985,125.81787404370282 L 190.5190519051905,127.27522393610091 L 190.2190219021902,128.9941494502115 L 190.66906690669066,130.52623523452746 L 190.4190419041904,132.39463253247374 L 191.46914691469146,138.11192826418937 L 169.4169416941694,136.31826685816094 L 168.46684668466847,136.7293142637091 L 161.6161616161616,141.54977929241053 L 95.65956595659566,133.6277747491183 z" /><path fill-rule="evenodd" fill="#D2EBD9" stroke="#A6A6A6" stroke-width="0.25" opacity="1" d="M 240.12401240124012,44.57995952899835 L 239.67396739673967,43.90733650173769 L 240.07400740074007,42.44998660933959 L 239.62396239623962,40.73106109522901 L 239.62396239623962,38.90003174324165 L 240.12401240124012,37.33057801296677 L 241.27412741274125,36.396379363993624 L 244.12441244124412,36.28427552611685 L 245.22452245224522,35.649020444815115 L 246.17461746174615,34.7521897418009 L 246.57465746574655,33.89272698474561 L 245.8245824582458,32.58484887618321 L 245.87458745874585,32.09906557871717 L 246.2246224622462,31.688018173168988 L 247.67476747674766,31.50117844337436 L 248.67486748674867,30.90329130803155 L 249.32493249324932,30.11856444289411 L 250.27502750275025,28.2127991989889 L 250.9250925092509,27.315968495974683 L 251.57515751575156,26.9049210904265 L 253.32533253325332,26.531241630837243 L 254.32543254325432,26.008090387412285 L 255.37553755375535,23.205494440492856 L 256.6256625662566,21.5239368723412 L 256.8256825682568,20.178690817819877 L 257.1257125712571,19.767643412271692 L 257.8257825782578,19.543435736518138 L 260.5760576057606,19.506067790559214 L 263.4263426342634,18.57186914158607 L 266.87668766876686,16.554000059804082 L 268.4768476847685,16.030848816379123 L 269.6769676967697,15.956112924461271 L 270.92709270927094,16.180320600214827 L 271.3771377137714,16.030848816379123 L 271.9271927192719,14.909810437611352 L 272.97729772977294,8.706731408429688 L 272.6272627262726,6.203079029181666 L 272.1272127212721,5.1941444882906715 L 272.9272927292729,4.708361190824638 L 273.37733773377335,4.708361190824638 L 274.7274727472747,4.932568866578192 L 276.8276827682768,5.9788713534281115 L 278.4778477847785,6.016239299387037 L 279.3779377937794,6.539390542811996 L 280.0780078007801,7.361485353908362 L 280.7780778077808,7.847268651374396 L 281.5281528152815,7.28674946199051 L 281.8281828182818,5.418352164044226 L 282.1282128212821,4.783097082742489 L 282.67826782678264,4.3346817312353805 L 283.97839783978395,3.848898433769347 L 284.57845784578456,3.064171568631907 L 284.17841784178415,0.8968307030142166 L 284.67846784678466,0.0 L 285.77857785778576,2.5036523792480216 L 288.5788578857886,6.576758488770922 L 289.12891289128913,8.034108381169025 L 289.5789578957896,8.445155786717207 L 290.02900290029004,8.59462757055291 L 291.3291329132913,8.631995516511836 L 291.87918791879184,8.893571138224315 L 293.17931793179315,9.939873625074235 L 294.77947794779476,10.388288976581343 L 297.4797479747975,12.518261896240109 L 298.5798579857986,12.817205463911513 L 300.58005800580054,12.817205463911513 L 302.3302330233023,12.592997788157959 L 303.98039803980396,12.069846544733 L 312.88128812881286,7.212013570072659 L 313.68136813681366,7.025173840278031 L 314.68146814681467,8.108844273086875 L 315.4315431543154,8.482523732676134 L 319.78197819781974,9.11777881397787 L 320.58205820582054,9.454090327608201 L 324.4324432443244,13.863507950761432 L 325.4325432543254,13.415092599254324 L 325.5825582558256,14.162451518432839 L 326.5826582658266,15.806641140625569 L 329.38293829382934,23.541805954123188 L 330.18301830183015,25.07389173843914 L 330.98309830983095,26.045458333371208 L 335.4335433543354,29.221733739879895 L 336.83368336833684,30.604347740360144 L 337.8837883788379,31.912225848922542 L 338.68386838683864,33.631151363033126 L 340.28402840284025,39.946334230091566 L 344.2344234423442,48.5783297466034 L 346.63466346634664,52.12828461270134 L 347.4847484748475,53.73510628893515 L 347.98479847984794,55.19245618133325 L 348.034803480348,56.500334289895655 L 347.63476347634764,58.03242007421161 L 346.984698469847,59.527137912568634 L 343.58435843584357,65.39390542811996 L 341.98419841984196,70.81225759216419 L 341.6341634163416,97.56770689875499 L 342.68426842684266,102.31343603553856 L 319.9319931993199,103.58394619814203 L 317.7817781778178,101.67818095423682 L 316.2316231623162,101.86502068403145 L 313.38133813381336,103.35973852238847 L 299.02990299029904,106.0128626854722 L 293.8293829382938,108.25493944300774 L 285.97859785978596,114.94380176965544 L 283.8283828382838,115.01853766157329 L 280.72807280728074,113.41171598533948 L 276.9276927692769,112.62698912020204 L 267.5267526752675,111.84226225506461 L 272.67726772677264,107.13390106423996 L 277.3277327732773,103.5465782521831 L 279.02790279027903,101.9397565759493 L 280.02800280028003,100.6318784673869 L 281.17811781178114,98.65137733156384 L 282.07820782078204,97.67981073663177 L 284.47844784478445,95.9982531684801 L 287.5787578757876,93.12092132964283 L 288.82888288828883,90.95358046402514 L 289.7789778977898,88.8609754903253 L 289.92899289928994,87.06731408429687 L 289.4789478947895,85.497860354022 L 287.5287528752875,82.50842467730793 L 286.77867786778677,80.67739532532057 L 286.3286328632863,78.62215829757966 L 285.67856785678566,66.0291605094217 L 285.37853785378536,64.60917856298252 L 284.6284628462846,63.71234785996831 L 283.67836783678365,63.15182867058442 L 277.77777777777777,61.20869548072029 L 272.97729772977294,58.74241104743119 L 271.02710271027104,57.28506115503309 L 265.4265426542654,51.791973099071015 L 263.9263926392639,51.0446141798925 L 262.57625762576254,50.820406504138944 L 261.4761476147615,51.081982125851425 L 260.42604260426043,51.71723720715316 L 257.67576757675766,54.25825753236011 L 256.7256725672567,54.89351261366185 L 255.77557755775575,55.2671920732511 L 254.67546754675467,55.30456001921003 L 253.77537753775377,55.1177202894154 L 252.7252725272527,54.669304937908294 L 251.7251725172517,53.99668191064763 L 250.7250725072507,53.06248326167449 L 249.12491249124912,51.30618980160498 L 241.3241324132413,45.252582556259014 L 240.12401240124012,44.57995952899835 z" /><path fill-rule="evenodd" fill="#D2EBD9" stroke="#A6A6A6" stroke-width="0.25" opacity="1" d="M 376.5376537653765,189.71706163346576 L 377.1377137713771,190.6512602824389 L 377.5377537753775,191.9591383910013 L 378.08780878087805,192.7064973101798 L 380.48804880488046,195.1727817434689 L 381.18811881188117,196.59276368990808 L 382.4882488248825,196.7796034197027 L 383.1883188318832,197.11591493333304 L 383.73837383738373,197.56433028484014 L 384.0884088408841,198.16221742018297 L 384.1884188418842,199.02168017723827 L 383.33833383338333,199.88114293429354 L 383.33833383338333,200.47903006963637 L 383.5883588358836,201.30112488073271 L 383.93839383938393,201.78690817819876 L 384.988498849885,202.42216325950048 L 385.03850385038504,202.9826824488844 L 384.0884088408841,203.43109780039148 L 383.1883188318832,204.66424001703604 L 383.03830383038303,205.15002331450208 L 383.5883588358836,206.7942129366948 L 383.03830383038303,207.3547321260787 L 383.33833383338333,208.06472309929828 L 383.3883388338834,209.14839353210712 L 383.5883588358836,209.44733709977854 L 384.83848384838484,209.8583845053267 L 385.13851385138514,210.11996012703918 L 384.988498849885,210.5683754785463 L 386.18861886188614,211.61467796539623 L 386.9386938693869,211.72678180327298 L 391.5391539153915,210.717847262382 L 391.9391939193919,210.82995110025877 L 392.83928392839283,211.46520618156052 L 393.73937393739374,211.39047028964265 L 396.58965896589655,211.72678180327298 L 396.98969896989695,211.95098947902653 L 396.78967896789675,212.39940483053365 L 397.6397639763976,212.43677277649257 L 399.6399639963996,211.24099850580694 L 400.4400440044004,211.39047028964265 L 401.6401640164016,211.98835742498548 L 402.54025402540253,211.83888564114977 L 403.84038403840384,210.717847262382 L 404.6904690469047,209.26049736998388 L 405.69056905690564,208.1020910452572 L 407.6407640764076,207.84051542354473 L 408.29082908290826,207.9526192614215 L 410.04100410041,209.48470504573746 L 411.1411141114111,210.08259218108026 L 413.2913291329133,210.4562716406695 L 415.69156915691565,210.4562716406695 L 416.49164916491645,210.68047931642306 L 417.3417341734173,211.20363055984802 L 422.44224422442244,215.9493596966316 L 422.992299229923,216.92092629156366 L 423.34233423342334,218.93879537334564 L 421.5921592159216,254.475711980284 L 414.3914391439144,254.5130799262429 L 413.8913891389139,255.18570295350358 L 413.5913591359136,256.3814772241892 L 413.44134413441344,258.2872424680944 L 413.6913691369137,261.57562171247986 L 414.59145914591454,265.49925603816706 L 417.29172917291726,270.9923440941291 L 417.49174917491746,271.7023350673487 L 416.89168916891686,273.79494004104856 L 416.7416741674167,275.102818149611 L 417.19171917191716,277.94278204248934 L 417.19171917191716,279.9606511242713 L 415.09150915091504,285.4537391802334 L 414.4414441444144,286.2010980994119 L 396.08960896089604,301.37248415873574 L 392.3892389238924,305.74453383593004 L 382.6382638263826,309.40659253990475 L 382.1382138213821,309.780271999494 L 382.4882488248825,310.9386783242207 L 383.63836383638363,312.9191794600438 L 383.93839383938393,314.2644255145651 L 379.7379737973797,346.92401028266613 L 381.1381138113811,348.97924731040706 L 381.8381838183818,350.69817282451766 L 382.4382438243824,356.4154685562333 L 382.3882388238824,361.46014126068826 L 384.83848384838484,369.8305611554876 L 385.0885088508851,373.38051602158555 L 364.8864886488649,373.64209164329804 L 364.73647364736473,373.4552519135034 L 364.7864786478648,372.147373804941 L 364.5864586458646,370.01740088528226 L 364.93649364936493,367.99953180350025 L 365.53655365536554,365.98166272171824 L 365.4865486548655,364.37484104548446 L 337.33373337333734,364.2627372076077 L 348.6348634863486,351.40816379773725 L 348.88488848884884,350.24975747301056 L 349.08490849084905,345.80297190389837 L 348.48484848484844,338.8151660095793 L 348.6348634863486,334.3310124945082 L 349.28492849284925,331.37894476375305 L 352.28522852285226,325.6616490320374 L 352.08520852085206,324.5779785992286 L 351.38513851385136,323.2327325447073 L 331.4331433143314,306.1555812414782 L 330.88308830883085,305.3708543763408 L 328.0828082808281,298.2709446441449 L 325.4825482548255,294.12310264270417 L 324.28242824282427,292.9646963179774 L 319.6319631963196,287.13529674838503 L 301.4301430143014,269.0118429583061 L 298.42984298429843,267.7787007416615 L 289.3789378937894,267.2929174441955 L 288.8788878887889,257.20357203528556 L 291.67916791679164,256.41884517014813 L 296.7796779677968,253.54151333131085 L 303.48034803480346,251.78521987124134 L 305.38053805380537,251.5610121954878 L 306.2806280628063,251.2994365737753 L 306.980698069807,250.40260587076108 L 308.63086308630864,249.80471873541828 L 309.2809280928093,249.6926148975415 L 311.1311131113111,249.95419051925398 L 313.2313231323132,250.7015494384325 L 313.78137813781376,250.5894456005557 L 314.28142814281426,250.1036623030897 L 328.3828382838284,231.2328495938322 L 329.78297829782974,229.96233943122874 L 331.5331533153315,229.28971640396807 L 333.1333133313331,229.327084349927 L 334.5334533453345,229.66339586355733 L 340.18401840184015,232.3912559185589 L 345.33453345334533,235.5675313250676 L 346.3846384638464,236.0533146225336 L 347.33473347334734,236.35225819020502 L 348.1348134813481,236.3148902442461 L 348.98489848984894,235.75437105486222 L 349.8349834983498,234.67070062205337 L 351.3351335133513,231.6438969993804 L 352.08520852085206,229.73813175547517 L 359.6359635963596,216.47251094005657 L 362.08620862086207,213.52044320930142 L 365.6865686568657,210.38153574875167 L 370.1370137013701,208.2515628290929 L 371.18711871187116,207.31736418011977 L 371.8371837183718,205.9347501796395 L 372.037203720372,203.84214520593966 L 371.88718871887187,202.1232196918291 L 371.5371537153715,200.32955828580066 L 369.6369636963696,195.95750860860636 L 369.38693869386935,194.76173433792073 L 369.48694869486945,193.5659600672351 L 371.4371437143714,191.92177044504237 L 376.5376537653765,189.71706163346576 z" /><path fill-rule="evenodd" fill="#D2EBD9" stroke="#A6A6A6" stroke-width="0.25" opacity="1" d="M 376.5376537653765,189.71706163346576 L 371.4371437143714,191.92177044504237 L 369.48694869486945,193.5659600672351 L 369.38693869386935,194.76173433792073 L 369.6369636963696,195.95750860860636 L 371.5371537153715,200.32955828580066 L 371.88718871887187,202.1232196918291 L 372.037203720372,203.84214520593966 L 371.8371837183718,205.9347501796395 L 371.18711871187116,207.31736418011977 L 370.1370137013701,208.2515628290929 L 365.6865686568657,210.38153574875167 L 362.08620862086207,213.52044320930142 L 359.6359635963596,216.47251094005657 L 352.08520852085206,229.73813175547517 L 351.3351335133513,231.6438969993804 L 349.8349834983498,234.67070062205337 L 348.98489848984894,235.75437105486222 L 348.1348134813481,236.3148902442461 L 347.33473347334734,236.35225819020502 L 346.3846384638464,236.0533146225336 L 345.33453345334533,235.5675313250676 L 340.18401840184015,232.3912559185589 L 334.5334533453345,229.66339586355733 L 333.1333133313331,229.327084349927 L 331.5331533153315,229.28971640396807 L 329.78297829782974,229.96233943122874 L 328.3828382838284,231.2328495938322 L 314.28142814281426,250.1036623030897 L 313.78137813781376,250.5894456005557 L 313.2313231323132,250.7015494384325 L 311.1311131113111,249.95419051925398 L 309.2809280928093,249.6926148975415 L 308.63086308630864,249.80471873541828 L 306.980698069807,250.40260587076108 L 306.2806280628063,251.2994365737753 L 305.38053805380537,251.5610121954878 L 303.48034803480346,251.78521987124134 L 296.7796779677968,253.54151333131085 L 291.67916791679164,256.41884517014813 L 288.8788878887889,257.20357203528556 L 287.7287728772877,256.5683169539838 L 287.07870787078707,256.45621311610705 L 283.67836783678365,256.45621311610705 L 281.87818781878184,256.64305284590165 L 276.47764776477646,257.95093095446407 L 271.2771277127713,258.17513863021765 L 269.7769776977698,257.65198738679265 L 268.4768476847685,256.1199016024767 L 267.1267126712671,255.70885419692854 L 266.7266726672667,255.2230708994625 L 266.27662766276626,253.84045689898224 L 264.77647764776475,252.3083711146663 L 264.57645764576455,251.33680451973422 L 264.1264126412641,250.62681354651463 L 263.3263326332633,250.32786997884324 L 262.87628762876284,249.87945462733612 L 263.37633763376334,248.8331521404862 L 264.47644764476445,248.12316116726663 L 264.57645764576455,244.68531013904544 L 263.97639763976395,243.8632153279491 L 264.27642764276425,243.52690381431876 L 263.8263826382638,243.0037525708938 L 262.6262626262626,242.25639365171529 L 262.2262226222622,241.47166678657786 L 261.82618261826184,239.60326948863155 L 261.32613261326134,239.0801182452066 L 260.1760176017602,238.5195990558227 L 259.8759875987599,237.3238247851371 L 259.0759075907591,236.50172997404073 L 257.87578757875787,236.2027864063693 L 257.3257325732573,235.26858775739618 L 257.2257225722572,234.5585967841766 L 257.27572757275726,233.81123786499808 L 258.025802580258,232.42862386451782 L 258.17581758175817,230.59759451253046 L 259.0759075907591,229.40182024184483 L 259.0759075907591,227.1597434843093 L 259.3259325932593,226.48712045704863 L 259.6259625962596,226.78606402472005 L 259.8759875987599,226.11344099745938 L 259.6759675967597,225.59028975403442 L 258.7258725872587,224.6934590510202 L 259.3759375937594,223.64715656417027 L 261.0761076107611,222.0403348879365 L 261.976197619762,221.81612721218292 L 262.2262226222622,221.47981569855258 L 262.2262226222622,220.84456061725086 L 261.92619261926194,220.2093055359491 L 261.0761076107611,219.12563510314027 L 260.62606260626063,218.1540685082082 L 260.52605260526053,217.07039807539937 L 260.7760776077608,217.07039807539937 L 260.7760776077608,217.66828521074217 L 261.1761176117612,217.4067095890297 L 260.7760776077608,216.06146353450836 L 260.92609260926093,215.6504161289602 L 261.52615261526154,215.01516104765844 L 261.6761676167617,214.56674569615134 L 263.1263126312631,213.55781115526034 L 263.1263126312631,212.6236125062872 L 263.97639763976395,212.6236125062872 L 264.37643764376435,211.83888564114977 L 263.87638763876384,209.44733709977854 L 263.1263126312631,208.8494499644357 L 262.8262826282628,207.69104363970902 L 263.2263226322632,207.27999623416082 L 263.4263426342634,206.0468540175163 L 263.67636763676364,205.6358066119681 L 262.5262526252625,205.00055153066637 L 263.37633763376334,203.6179375301861 L 263.4263426342634,202.94531450292544 L 262.67626762676264,202.68373888121297 L 263.07630763076304,201.45059666456842 L 262.37623762376234,201.22638898881488 L 262.1262126212621,200.32955828580066 L 262.27622762276224,198.53589687977222 L 262.87628762876284,197.19065082525088 L 263.97639763976395,197.71380206867585 L 263.97639763976395,196.92907520353842 L 265.37653765376535,197.07854698737412 L 265.67656765676566,196.630131635867 L 265.7265726572657,194.76173433792073 L 267.6267626762676,192.22071401271378 L 267.17671767176716,191.84703455312453 L 269.6769676967697,188.82023093045154 L 270.12701270127013,187.28814514613558 L 270.52705270527053,187.0265695244231 L 270.62706270627064,186.7276259567517 L 270.62706270627064,185.5318516860661 L 270.92709270927094,185.1581722264768 L 271.8271827182718,184.59765303709293 L 271.22712271227124,184.22397357750367 L 271.22712271227124,183.88766206387334 L 272.37723772377234,183.62608644216087 L 271.4771477147715,183.36451082044837 L 271.4771477147715,183.065567252777 L 271.87718771877184,182.72925573914665 L 270.6770677067707,181.08506611695393 L 270.3770377037704,179.1793008730487 L 270.6770677067707,178.35720606195235 L 270.12701270127013,177.8340548185274 L 270.02700270027003,177.46037535893814 L 271.22712271227124,176.30196903421142 L 271.2771277127713,175.03145887160795 L 272.2272227222722,174.58304352010086 L 273.1273127312731,173.16306157366168 L 273.27732773277324,172.3409667625653 L 273.07730773077304,171.51887195146895 L 271.97719771977194,171.10782454592075 L 273.5273527352735,169.5757387616048 L 273.5273527352735,168.7162760045495 L 274.57745774577455,168.49206832879597 L 274.97749774977495,167.14682227427463 L 276.3276327632763,165.72684032783545 L 276.7276727672767,164.86737757078018 L 276.9276927692769,163.14845205666958 L 277.2277227722772,162.4758290294089 L 277.9277927792779,161.65373421831256 L 278.1778177817782,160.5326958395448 L 279.2779277927793,158.6642985415985 L 279.4779477947795,157.3190524870772 L 280.22802280228024,156.68379740577544 L 281.07810781078103,155.52539108104875 L 283.1283128312831,154.40435270228096 L 283.4283428342834,153.91856940481495 L 283.67836783678365,152.8348989720061 L 285.2285228522852,150.59282221447054 L 287.028702870287,150.2565107008402 L 290.22902290229024,147.67812242967435 L 292.67926792679265,146.37024432111195 L 294.17941794179416,145.847093077687 L 294.4294429442944,145.43604567213882 L 294.7294729472947,144.09079961761748 L 296.029602960296,143.3808086443979 L 296.9296929692969,142.44660999542475 L 297.7797779777978,142.11029848179442 L 298.42984298429843,141.58714723836945 L 299.3799379937994,140.57821269747848 L 300.48004800480044,138.78455129145004 L 301.7301730173017,138.298767993984 L 302.58025802580255,136.20616302028415 L 303.88038803880386,134.89828491172176 L 304.08040804080406,134.56197339809142 L 304.18041804180416,133.73987858699508 L 304.98049804980496,133.2167273435701 L 305.48054805480547,130.37676345069175 L 306.08060806080607,128.88204561233474 L 306.6306630663066,128.47099820678653 L 307.3807380738074,128.32152642295083 L 307.980798079808,127.9852149093205 L 308.23082308230823,127.20048804418306 L 308.3808380838084,125.40682663815464 L 308.8808880888089,124.28578825938686 L 311.98119811981195,120.47425777157645 L 312.4312431243124,119.01690787917833 L 312.58125812581255,117.33535031102669 L 313.58135813581356,115.168009445409 L 314.4314431443144,112.10383787677709 L 315.38153815381537,111.3938469035575 L 316.2816281628163,110.12333674095403 L 317.5817581758176,106.79758955060964 L 317.83178317831783,105.48971144204724 L 318.4818481848185,104.4060410092384 L 318.8818881888189,104.06972949560806 L 319.68196819681964,104.25656922540269 L 319.9319931993199,103.58394619814203 L 342.68426842684266,102.31343603553856 L 426.59265926592656,97.1566594932068 L 459.64596459645963,107.05916517232211 L 459.24592459245923,109.3759778217755 L 458.94589458945893,110.19807263287187 L 456.69566956695667,112.62698912020204 L 455.89558955895586,114.71959409390189 L 454.39543954395435,117.33535031102669 L 454.19541954195415,118.19481306808197 L 454.1454145414541,120.69846544733 L 453.89538953895385,121.78213588013884 L 452.1952195219522,124.69683566493505 L 451.84518451845184,125.55629842199033 L 451.4951495149515,128.02258285527944 L 450.54505450545054,130.4514993426096 L 449.6949694969497,133.9267183167897 L 448.8948894889489,134.6740772359682 L 448.6948694869487,135.45880410110564 L 448.3948394839484,135.94458739857168 L 445.5445544554455,137.85035264247688 L 444.79447944794475,138.1492962101483 L 441.34413441344134,138.4108718318608 L 440.84408440844084,138.82191923740896 L 440.54405440544053,140.57821269747848 L 440.2940294029403,141.17609983282128 L 440.24402440244023,141.43767545453375 L 440.84408440844084,141.88609080604087 L 440.7940794079408,142.74555356309617 L 440.5940594059406,143.45554453631576 L 439.94399439943993,144.68868675296028 L 437.19371937193716,146.5944519968655 L 431.1931193119312,148.0518018892636 L 430.4930493049305,148.53758518672964 L 430.0930093009301,149.5091517816617 L 428.3428342834283,150.81702989022412 L 427.6427642764276,151.60175675536155 L 427.3427342734273,151.71386059323834 L 426.99269926992696,152.1249079987865 L 426.89268926892686,154.890135999747 L 426.69266926692666,155.7495987568023 L 426.29262926292625,156.53432562193973 L 425.69256925692565,156.87063713557006 L 424.19241924192414,156.3474858921451 L 423.3923392339234,156.94537302748793 L 422.24222422242224,158.40272291988603 L 420.04200420042,160.08428048803768 L 419.8919891989199,164.26949043543735 L 419.59195919591957,165.72684032783545 L 418.89188918891887,166.88524665256216 L 413.64136413641364,172.26623087064746 L 412.34123412341233,173.01358978982597 L 410.6410641064106,173.3499013034563 L 408.49084908490846,174.9193550337312 L 406.59065906590655,177.46037535893814 L 404.84048404840485,178.05826249428094 L 403.6903690369037,178.80562141345945 L 403.24032403240324,178.91772525133624 L 400.49004900490047,178.65614962962374 L 399.58995899589956,178.91772525133624 L 398.1398139813981,180.41244308969326 L 396.9396939693969,180.82349049524143 L 395.8395839583958,181.42137763058426 L 392.8892889288929,180.97296227907714 L 391.4891489148915,180.11349952202184 L 390.9390939093909,180.11349952202184 L 388.58885888588856,180.71138665736467 L 387.1387138713871,182.16873654976277 L 386.48864886488644,182.72925573914665 L 386.1386138613861,182.84135957702344 L 384.7884788478848,183.065567252777 L 383.1883188318832,183.62608644216087 L 381.58815881588157,183.2150390366127 L 381.3381338133813,182.84135957702344 L 380.78807880788077,182.91609546894128 L 379.8379837983798,183.36451082044837 L 378.68786878687865,183.47661465832516 L 378.38783878387835,183.62608644216087 L 377.9377937793779,184.63502098305187 L 377.2377237723772,185.04606838860005 L 375.7875787578758,188.596023254698 L 375.93759375937594,189.0444386062051 L 376.5376537653765,189.71706163346576 z" /><path fill-rule="evenodd" fill="#D2EBD9" stroke="#A6A6A6" stroke-width="0.25" opacity="1" d="M 289.3789378937894,267.2929174441955 L 284.57845784578456,267.1434456603598 L 283.2283228322832,266.69503030885267 L 282.1282128212821,265.8729354977563 L 281.5281528152815,266.059775227551 L 269.62696269626963,276.7470077718037 L 249.67496749674967,289.5642132357152 L 247.7247724772477,288.40580691098853 L 236.4236423642364,282.8753509090675 L 234.07340734073406,281.4553689626283 L 232.8232823282328,280.44643442173737 L 232.7232723272327,274.24335539255566 L 230.77307730773077,271.10444793200594 L 227.17271727172715,267.66659690378475 L 217.4217421742174,265.49925603816706 L 212.3212321232123,263.6308587402208 L 207.12071207120712,260.86563073926027 L 203.07030703070305,257.6893553327516 L 200.3200320032003,254.96149527775003 L 199.46994699469946,253.31730565555728 L 199.4199419941994,251.48627630356992 L 199.56995699569956,249.95419051925398 L 200.1200120012001,248.90788803240406 L 201.87018701870187,248.34736884302018 L 203.1203120312031,248.64631241069156 L 204.27042704270426,248.31000089706126 L 205.4205420542054,247.71211376171843 L 206.72067206720672,246.62844332890958 L 206.52065206520652,246.10529208548462 L 205.67056705670566,245.3579331663061 L 202.7202720272027,244.3116306794562 L 201.87018701870187,243.45216792240092 L 201.17011701170117,242.1442898138385 L 200.17001700170016,237.51066451493173 L 199.66996699669966,236.3148902442461 L 208.37083708370835,237.0248812174657 L 210.77107710771077,236.24015435232823 L 221.57215721572155,219.6114184006063 L 233.67336733673366,211.24099850580694 L 234.37343734373437,210.3067998568338 L 234.77347734773477,209.44733709977854 L 236.3236323632363,184.48554919921617 L 242.8242824282428,183.9623979557912 L 244.22442244224422,183.43924671236624 L 244.72447244724472,182.84135957702344 L 258.2258225822582,154.890135999747 L 263.17631763176314,153.32068226947212 L 283.67836783678365,152.8348989720061 L 283.4283428342834,153.91856940481495 L 283.1283128312831,154.40435270228096 L 281.07810781078103,155.52539108104875 L 280.22802280228024,156.68379740577544 L 279.4779477947795,157.3190524870772 L 279.2779277927793,158.6642985415985 L 278.1778177817782,160.5326958395448 L 277.9277927792779,161.65373421831256 L 277.2277227722772,162.4758290294089 L 276.9276927692769,163.14845205666958 L 276.7276727672767,164.86737757078018 L 276.3276327632763,165.72684032783545 L 274.97749774977495,167.14682227427463 L 274.57745774577455,168.49206832879597 L 273.5273527352735,168.7162760045495 L 273.5273527352735,169.5757387616048 L 271.97719771977194,171.10782454592075 L 273.07730773077304,171.51887195146895 L 273.27732773277324,172.3409667625653 L 273.1273127312731,173.16306157366168 L 272.2272227222722,174.58304352010086 L 271.2771277127713,175.03145887160795 L 271.22712271227124,176.30196903421142 L 270.02700270027003,177.46037535893814 L 270.12701270127013,177.8340548185274 L 270.6770677067707,178.35720606195235 L 270.3770377037704,179.1793008730487 L 270.6770677067707,181.08506611695393 L 271.87718771877184,182.72925573914665 L 271.4771477147715,183.065567252777 L 271.4771477147715,183.36451082044837 L 272.37723772377234,183.62608644216087 L 271.22712271227124,183.88766206387334 L 271.22712271227124,184.22397357750367 L 271.8271827182718,184.59765303709293 L 270.92709270927094,185.1581722264768 L 270.62706270627064,185.5318516860661 L 270.62706270627064,186.7276259567517 L 270.52705270527053,187.0265695244231 L 270.12701270127013,187.28814514613558 L 269.6769676967697,188.82023093045154 L 267.17671767176716,191.84703455312453 L 267.6267626762676,192.22071401271378 L 265.7265726572657,194.76173433792073 L 265.67656765676566,196.630131635867 L 265.37653765376535,197.07854698737412 L 263.97639763976395,196.92907520353842 L 263.97639763976395,197.71380206867585 L 262.87628762876284,197.19065082525088 L 262.27622762276224,198.53589687977222 L 262.1262126212621,200.32955828580066 L 262.37623762376234,201.22638898881488 L 263.07630763076304,201.45059666456842 L 262.67626762676264,202.68373888121297 L 263.4263426342634,202.94531450292544 L 263.37633763376334,203.6179375301861 L 262.5262526252625,205.00055153066637 L 263.67636763676364,205.6358066119681 L 263.4263426342634,206.0468540175163 L 263.2263226322632,207.27999623416082 L 262.8262826282628,207.69104363970902 L 263.1263126312631,208.8494499644357 L 263.87638763876384,209.44733709977854 L 264.37643764376435,211.83888564114977 L 263.97639763976395,212.6236125062872 L 263.1263126312631,212.6236125062872 L 263.1263126312631,213.55781115526034 L 261.6761676167617,214.56674569615134 L 261.52615261526154,215.01516104765844 L 260.92609260926093,215.6504161289602 L 260.7760776077608,216.06146353450836 L 261.1761176117612,217.4067095890297 L 260.7760776077608,217.66828521074217 L 260.7760776077608,217.07039807539937 L 260.52605260526053,217.07039807539937 L 260.62606260626063,218.1540685082082 L 261.0761076107611,219.12563510314027 L 261.92619261926194,220.2093055359491 L 262.2262226222622,220.84456061725086 L 262.2262226222622,221.47981569855258 L 261.976197619762,221.81612721218292 L 261.0761076107611,222.0403348879365 L 259.3759375937594,223.64715656417027 L 258.7258725872587,224.6934590510202 L 259.6759675967597,225.59028975403442 L 259.8759875987599,226.11344099745938 L 259.6259625962596,226.78606402472005 L 259.3259325932593,226.48712045704863 L 259.0759075907591,227.1597434843093 L 259.0759075907591,229.40182024184483 L 258.17581758175817,230.59759451253046 L 258.025802580258,232.42862386451782 L 257.27572757275726,233.81123786499808 L 257.2257225722572,234.5585967841766 L 257.3257325732573,235.26858775739618 L 257.87578757875787,236.2027864063693 L 259.0759075907591,236.50172997404073 L 259.8759875987599,237.3238247851371 L 260.1760176017602,238.5195990558227 L 261.32613261326134,239.0801182452066 L 261.82618261826184,239.60326948863155 L 262.2262226222622,241.47166678657786 L 262.6262626262626,242.25639365171529 L 263.8263826382638,243.0037525708938 L 264.27642764276425,243.52690381431876 L 263.97639763976395,243.8632153279491 L 264.57645764576455,244.68531013904544 L 264.47644764476445,248.12316116726663 L 263.37633763376334,248.8331521404862 L 262.87628762876284,249.87945462733612 L 263.3263326332633,250.32786997884324 L 264.1264126412641,250.62681354651463 L 264.57645764576455,251.33680451973422 L 264.77647764776475,252.3083711146663 L 266.27662766276626,253.84045689898224 L 266.7266726672667,255.2230708994625 L 267.1267126712671,255.70885419692854 L 268.4768476847685,256.1199016024767 L 269.7769776977698,257.65198738679265 L 271.2771277127713,258.17513863021765 L 276.47764776477646,257.95093095446407 L 281.87818781878184,256.64305284590165 L 283.67836783678365,256.45621311610705 L 287.07870787078707,256.45621311610705 L 287.7287728772877,256.5683169539838 L 288.8788878887889,257.20357203528556 L 289.3789378937894,267.2929174441955 z" /><path fill-rule="evenodd" fill="#D2EBD9" stroke="#A6A6A6" stroke-width="0.25" opacity="1" d="M 200.1200120012001,248.90788803240406 L 166.26662666266625,249.20683160007547 L 164.21642164216422,251.48627630356992 L 159.9159915991599,260.52931922562993 L 158.76587658765877,260.2303756579585 L 154.56545654565457,260.006167982205 L 149.16491649164917,260.82826279330135 L 147.8147814781478,260.52931922562993 L 144.36443644364437,260.9777345771371 L 138.3138313831383,260.9403666311781 L 136.36363636363635,261.27667814480844 L 125.36253625362535,261.015102523096 L 109.010901090109,255.44727857521605 L 106.1106110611061,255.59675035905175 L 105.06050605060506,256.0825336565178 L 103.21032103210321,257.3156758731623 L 87.2087208720872,276.1491206364609 L 83.95839583958396,277.41963079906435 L 84.15841584158416,273.8696759329664 L 82.7082708270827,259.18407317110865 L 82.55825582558255,230.89653808020188 L 84.8084808480848,216.43514299409762 L 85.008500850085,210.4562716406695 L 85.9085908590859,204.5895041251182 L 87.4087408740874,199.76903909641678 L 90.00900090009,196.10698039244204 L 92.45924592459245,193.8649036349065 L 106.4106410641064,184.74712482092863 L 108.11081108110811,184.07450179366796 L 109.56095609560955,183.88766206387334 L 110.76107610761075,183.92503000983228 L 112.91129112911291,184.59765303709293 L 115.56155615561555,186.0176349835321 L 120.16201620162016,189.1939103900408 L 145.6145614561456,201.2637569347738 L 151.66516651665165,202.8705786110076 L 154.41544154415442,215.16463283149415 L 155.3155315531553,217.03303012944045 L 156.56565656565655,218.78932358950993 L 157.76577657765776,221.10613623896333 L 158.3158315831583,222.9371655909507 L 158.86588658865887,229.4765561337627 L 159.76597659765974,231.98020851301072 L 160.6160616061606,233.17598278369633 L 161.46614661466145,233.848605810957 L 162.7162716271627,234.40912500034088 L 164.5164516451645,234.82017240588908 L 169.36693669366935,235.26858775739618 L 176.56765676567656,235.0070121356837 L 180.2180218021802,234.5585967841766 L 181.3181318131813,234.96964418972476 L 199.66996699669966,236.3148902442461 L 200.17001700170016,237.51066451493173 L 201.17011701170117,242.1442898138385 L 201.87018701870187,243.45216792240092 L 202.7202720272027,244.3116306794562 L 205.67056705670566,245.3579331663061 L 206.52065206520652,246.10529208548462 L 206.72067206720672,246.62844332890958 L 205.4205420542054,247.71211376171843 L 204.27042704270426,248.31000089706126 L 203.1203120312031,248.64631241069156 L 201.87018701870187,248.34736884302018 L 200.1200120012001,248.90788803240406 z" /><path fill-rule="evenodd" fill="#D2EBD9" stroke="#A6A6A6" stroke-width="0.25" opacity="1" d="M 236.3236323632363,184.48554919921617 L 230.82308230823082,176.07776135845788 L 216.9216921692169,160.60743173146264 L 214.17141714171416,156.57169356789868 L 213.4213421342134,155.0022398376238 L 208.17081708170815,137.88772058843583 L 207.7207720772077,136.91615399350374 L 206.87068706870687,135.75774766877706 L 205.57055705570556,135.01038874959855 L 204.1204120412041,134.41250161425572 L 202.7202720272027,134.03882215466646 L 199.76997699769976,133.777246532954 L 198.3198319831983,134.00145420870754 L 194.9194919491949,135.42143615514672 L 191.46914691469146,138.11192826418937 L 190.4190419041904,132.39463253247374 L 190.66906690669066,130.52623523452746 L 190.2190219021902,128.9941494502115 L 190.5190519051905,127.27522393610091 L 189.86898689868985,125.81787404370282 L 190.4190419041904,124.47262798918149 L 190.8190819081908,121.96897560993347 L 190.56905690569056,120.43688982561751 L 190.66906690669066,119.16637966301404 L 191.019101910191,118.12007717616412 L 192.71927192719272,115.6164247969161 L 193.5193519351935,114.0096031206823 L 194.2194219421942,111.80489430910568 L 195.3195319531953,110.5343841465022 L 197.21972197219722,109.48808165965228 L 199.7199719971997,106.79758955060964 L 200.87008700870086,104.96656019862228 L 203.97039703970395,100.85608614314046 L 205.1205120512051,99.84715160224945 L 206.52065206520652,99.43610419670128 L 208.57085708570855,98.38980170985135 L 209.37093709370936,97.82928252046747 L 210.02100210021,96.93245181745326 L 211.47114711471147,96.11035700635689 L 212.97129712971295,95.6993096008087 L 231.5231523152315,93.86828024882135 L 234.47344734473447,93.9430161407392 L 236.57365736573655,95.17615835738374 L 237.07370737073705,97.19402743916574 L 238.4238423842384,101.11766176485293 L 239.27392739273927,102.72448344108673 L 242.27422742274226,106.610749820815 L 243.87438743874387,108.10546765917204 L 244.57445744574457,109.26387398389873 L 245.37453745374535,111.20700717376288 L 246.1246124612461,115.39221712116255 L 246.1246124612461,117.33535031102669 L 245.6245624562456,118.97953993321941 L 245.17451745174517,121.70739998822098 L 245.3245324532453,125.40682663815464 L 245.8245824582458,126.228921449251 L 246.47464746474645,126.63996885479918 L 255.025502550255,126.78944063863489 L 256.9256925692569,127.05101626034737 L 257.6257625762576,126.71470474671703 L 259.9259925992599,124.65946771897612 L 261.3761376137614,122.82843836698876 L 265.67656765676566,114.08433901260015 L 267.5267526752675,111.84226225506461 L 276.9276927692769,112.62698912020204 L 280.72807280728074,113.41171598533948 L 283.8283828382838,115.01853766157329 L 285.97859785978596,114.94380176965544 L 293.8293829382938,108.25493944300774 L 299.02990299029904,106.0128626854722 L 313.38133813381336,103.35973852238847 L 316.2316231623162,101.86502068403145 L 317.7817781778178,101.67818095423682 L 319.9319931993199,103.58394619814203 L 319.68196819681964,104.25656922540269 L 318.8818881888189,104.06972949560806 L 318.4818481848185,104.4060410092384 L 317.83178317831783,105.48971144204724 L 317.5817581758176,106.79758955060964 L 316.2816281628163,110.12333674095403 L 315.38153815381537,111.3938469035575 L 314.4314431443144,112.10383787677709 L 313.58135813581356,115.168009445409 L 312.58125812581255,117.33535031102669 L 312.4312431243124,119.01690787917833 L 311.98119811981195,120.47425777157645 L 308.8808880888089,124.28578825938686 L 308.3808380838084,125.40682663815464 L 308.23082308230823,127.20048804418306 L 307.980798079808,127.9852149093205 L 307.3807380738074,128.32152642295083 L 306.6306630663066,128.47099820678653 L 306.08060806080607,128.88204561233474 L 305.48054805480547,130.37676345069175 L 304.98049804980496,133.2167273435701 L 304.18041804180416,133.73987858699508 L 304.08040804080406,134.56197339809142 L 303.88038803880386,134.89828491172176 L 302.58025802580255,136.20616302028415 L 301.7301730173017,138.298767993984 L 300.48004800480044,138.78455129145004 L 299.3799379937994,140.57821269747848 L 298.42984298429843,141.58714723836945 L 297.7797779777978,142.11029848179442 L 296.9296929692969,142.44660999542475 L 296.029602960296,143.3808086443979 L 294.7294729472947,144.09079961761748 L 294.4294429442944,145.43604567213882 L 294.17941794179416,145.847093077687 L 292.67926792679265,146.37024432111195 L 290.22902290229024,147.67812242967435 L 287.028702870287,150.2565107008402 L 285.2285228522852,150.59282221447054 L 283.67836783678365,152.8348989720061 L 263.17631763176314,153.32068226947212 L 258.2258225822582,154.890135999747 L 244.72447244724472,182.84135957702344 L 244.22442244224422,183.43924671236624 L 242.8242824282428,183.9623979557912 L 236.3236323632363,184.48554919921617 z" /><path fill-rule="evenodd" fill="#D2EBD9" stroke="#A6A6A6" stroke-width="0.25" opacity="1" d="M 199.66996699669966,236.3148902442461 L 181.3181318131813,234.96964418972476 L 180.2180218021802,234.5585967841766 L 176.56765676567656,235.0070121356837 L 169.36693669366935,235.26858775739618 L 164.5164516451645,234.82017240588908 L 162.7162716271627,234.40912500034088 L 161.46614661466145,233.848605810957 L 160.6160616061606,233.17598278369633 L 159.76597659765974,231.98020851301072 L 158.86588658865887,229.4765561337627 L 158.3158315831583,222.9371655909507 L 157.76577657765776,221.10613623896333 L 156.56565656565655,218.78932358950993 L 155.3155315531553,217.03303012944045 L 154.41544154415442,215.16463283149415 L 151.66516651665165,202.8705786110076 L 153.5153515351535,200.89007747518454 L 159.01590159015902,191.80966660716558 L 161.66616661666166,188.4839194168212 L 162.6162616261626,187.51235282188915 L 164.06640664066407,186.7276259567517 L 170.46704670467045,185.60658757798393 L 172.56725672567256,184.7097568749697 L 175.6175617561756,182.84135957702344 L 179.1179117911791,180.11349952202184 L 184.46844684468445,177.16143179126672 L 186.26862686268626,176.52617670996497 L 187.61876187618762,175.74144984482754 L 188.2188218821882,174.76988324989549 L 188.16881688168814,173.6488448711277 L 187.51875187518752,171.70571168126358 L 187.86878687868787,170.8836168701672 L 189.5189518951895,169.5383708156459 L 190.01900190019,168.5294362747549 L 190.2190219021902,166.8105107606443 L 190.1190119011901,159.89744075824305 L 189.36893689368935,153.20857843159536 L 189.76897689768975,147.9023301054279 L 191.46914691469146,138.11192826418937 L 194.9194919491949,135.42143615514672 L 198.3198319831983,134.00145420870754 L 199.76997699769976,133.777246532954 L 202.7202720272027,134.03882215466646 L 204.1204120412041,134.41250161425572 L 205.57055705570556,135.01038874959855 L 206.87068706870687,135.75774766877706 L 207.7207720772077,136.91615399350374 L 208.17081708170815,137.88772058843583 L 213.4213421342134,155.0022398376238 L 214.17141714171416,156.57169356789868 L 216.9216921692169,160.60743173146264 L 230.82308230823082,176.07776135845788 L 236.3236323632363,184.48554919921617 L 234.77347734773477,209.44733709977854 L 234.37343734373437,210.3067998568338 L 233.67336733673366,211.24099850580694 L 221.57215721572155,219.6114184006063 L 210.77107710771077,236.24015435232823 L 208.37083708370835,237.0248812174657 L 199.66996699669966,236.3148902442461 z" /></g></g></g></svg>