<svg xmlns="http://www.w3.org/2000/svg" xmlns:xlink="http://www.w3.org/1999/xlink" width="500.0" height="273.58625151449814" viewBox="0.0 0.0 500.0 273.58625151449814" preserveAspectRatio="xMinYMin meet"><g transform="matrix(1,0,0,-1,0,273.58625151449814)"><g><g><path fill-rule="evenodd" fill="#D2EBD9" stroke="#A6A6A6" stroke-width="0.25" opacity="1" d="M 75.7075707570757,188.27352701982815 L 75.9075907590759,187.91782932308965 L 75.8075807580758,186.74129078772376 L 72.8072807280728,185.09960911046903 L 69.75697569756976,186.33087036841007 L 64.4064406440644,190.5171586454096 L 60.65606560656065,191.50216765176242 L 57.605760576057605,191.2832767614618 L 48.45484548454845,187.80838387793932 L 46.25462546254625,186.35823172969765 L 41.85418541854185,181.95305256239752 L 22.002200220022,168.02611966702003 L 18.95189518951895,165.31734489954974 L 17.2017201720172,162.3075951579161 L 15.851585158515851,159.2157613324197 L 13.9013901390139,156.23337295207364 L 11.401140114011401,154.18127085550526 L 5.7005700570057005,151.17152111387162 L 3.25032503250325,148.6269145141268 L 1.6001600160016,145.53508068863042 L 0.5000500050005,142.19699461154585 L 0.0,138.72210172802338 L 0.1000100010001,135.38401565093878 L 3.4003400340034,121.59388956199918 L 19.35193519351935,113.9053470401896 L 33.3033303330333,107.50278849889621 L 37.05370537053705,113.46756525958834 L 38.603860386038605,115.32813782714368 L 40.3040304030403,116.4499536399344 L 42.154215421542155,116.88773542053566 L 43.75437543754375,116.80565133667292 L 44.8044804480448,116.36786955607167 L 45.654565456545654,115.79328096903252 L 48.75487548754875,112.31838808551004 L 50.65506550655065,110.59462232439259 L 51.95519551955195,110.32100871151681 L 58.15581558155815,109.96531101477828 L 59.855985598559855,110.18420190507891 L 60.906090609060904,110.59462232439259 L 62.456245624562456,116.36786955607167 L 65.10651065106511,121.12874642011035 L 65.40654065406541,123.61863029727999 L 65.7065706570657,124.52155521977008 L 66.3066306630663,125.67073239384838 L 67.9067906790679,127.53130496140373 L 68.8068806880688,129.39187752895907 L 66.8066806680668,136.0954110444158 L 67.3067306730673,138.09279041840907 L 71.5071507150715,144.52271032099003 L 71.65716571657165,145.26146707575464 L 70.95709570957095,146.7116192239963 L 70.25702570257026,148.92788948829016 L 69.75697569756976,152.89528687498907 L 70.00700070007001,155.16627986185807 L 70.45704570457045,155.7682298101848 L 71.05710571057105,156.1512888682109 L 73.55735573557355,156.5617092875246 L 78.1078107810781,157.8203319067532 L 81.75817581758176,159.3525681388576 L 85.9085908590859,173.58047600839848 L 86.50865086508651,177.38370522737188 L 85.85858585858585,178.7791346530384 L 84.25842584258426,180.1745640787049 L 83.2083208320832,181.37846397535836 L 82.55825582558255,183.62209560093982 L 81.95819581958196,184.5250205234299 L 81.2081208120812,185.18169319433179 L 77.45774577457745,187.53477026506354 L 75.7075707570757,188.27352701982815 z" /><path fill-rule="evenodd" fill="#D2EBD9" stroke="#A6A6A6" stroke-width="0.25" opacity="1" d="M 75.7075707570757,188.27352701982815 L 77.45774577457745,187.53477026506354 L 81.2081208120812,185.18169319433179 L 81.95819581958196,184.5250205234299 L 82.55825582558255,183.62209560093982 L 83.2083208320832,181.37846397535836 L 84.25842584258426,180.1745640787049 L 85.85858585858585,178.7791346530384 L 86.50865086508651,177.38370522737188 L 85.9085908590859,173.58047600839848 L 81.75817581758176,159.3525681388576 L 86.55865586558656,158.14866824220414 L 88.4088408840884,158.20339096477932 L 89.55895589558955,158.50436593894267 L 90.8090809080908,158.5864500228054 L 91.75917591759175,158.12130688091656 L 92.95929592959295,157.24574331971405 L 96.30963096309631,153.96237996520463 L 96.95969596959695,153.1141777652897 L 97.6097609760976,151.5819415331853 L 98.05980598059806,150.97999158485857 L 99.95999599959995,149.09205765601564 L 100.86008600860086,147.58718278519882 L 101.11011101110111,146.49272833369568 L 100.91009100910091,145.3161897983298 L 100.3100310031003,144.46798759841485 L 99.15991599159915,143.4008945081993 L 98.80988098809881,142.3885241405589 L 99.1099109910991,141.92338099867007 L 99.75997599759975,141.5129605793564 L 101.06010601060106,141.26670832776819 L 102.010201020102,140.30906068270292 L 102.96029602960296,138.44848811514757 L 103.8103810381038,137.68236999909539 L 105.41054105410541,137.21722685720655 L 106.9106910691069,137.57292455394506 L 107.66076607660766,137.95598361197116 L 108.11081108110811,138.44848811514757 L 108.26082608260826,138.96835397961158 L 108.26082608260826,140.8562879084545 L 108.5108510851085,142.03282644382037 L 109.16091609160915,143.5377013146372 L 110.11101110111011,144.82368529515338 L 110.51105110511051,145.12466026931676 L 111.06110611061105,145.26146707575464 L 112.46124612461246,144.6595171274279 L 114.46144614461446,143.45561723077446 L 118.8118811881188,140.19961523755262 L 121.56215621562156,137.6276472765202 L 122.8122812281228,134.50845208973627 L 123.4123412341234,133.66024988982133 L 126.06260626062605,132.75732496733124 L 135.9135913591359,130.86939103848832 L 136.86368636863685,136.80680643789287 L 140.46404640464047,146.7116192239963 L 140.86408640864084,151.22624383644677 L 140.66406640664064,155.05683441670777 L 140.96409640964094,160.74799756452413 L 141.2141214121412,161.95189746117757 L 141.5141514151415,162.36231788049125 L 142.46424642464245,162.77273829980493 L 143.5143514351435,162.58120877079187 L 144.1144114411441,162.66329285465463 L 144.76447644764477,163.10107463525588 L 146.4146414641464,165.755126680151 L 146.86468646864685,165.97401757045162 L 148.9148914891489,166.05610165431435 L 149.96499649964997,166.54860615749078 L 150.4150415041504,167.09583338324234 L 150.6150615061506,167.7798674154318 L 151.26512651265125,175.5778553823917 L 153.5153515351535,187.37060209733806 L 151.06510651065105,186.6865680651486 L 147.96479647964796,186.6865680651486 L 144.91449144914492,187.28851801347534 L 142.6142614261426,189.3953428326189 L 141.96419641964195,193.9646901676445 L 145.9145914591459,207.6453708114338 L 149.81498149814982,207.37175719855802 L 150.3150315031503,207.56328672757104 L 150.8150815081508,207.83690034044685 L 151.7151715171517,208.9039934306624 L 154.11541154115412,213.30917259796254 L 154.51545154515452,213.69223165598865 L 155.96559655965595,214.34890432689053 L 158.66586658665867,214.5404338559036 L 159.86598659865984,214.81404746877936 L 160.86608660866085,215.3065519719558 L 162.016201620162,216.31892233959618 L 166.016601660166,221.87327868097464 L 166.36663666366636,222.88564904861505 L 166.46664666466646,223.67912852595484 L 166.26662666266625,226.0322055966866 L 166.3166316631663,230.30057795754885 L 173.96739673967394,233.4197731443328 L 175.8175817581758,235.4718752409012 L 176.6176617661766,239.76760896305103 L 179.26792679267925,247.4561514848606 L 175.5175517551755,249.86395127816752 L 174.5174517451745,251.2046579812589 L 174.06740674067404,251.5603556779974 L 170.96709670967095,253.20203735525212 L 170.26702670267025,253.77662594229128 L 169.8169816981698,254.2417690841801 L 168.86688668866887,255.7740053162845 L 168.21682168216822,257.3883256322516 L 166.56665666566656,259.3309822836697 L 158.71587158715872,266.69118847002835 L 155.46554655465545,267.21105433449236 L 149.51495149514952,271.5888721405049 L 148.2148214821482,269.4546859600738 L 147.96479647964796,273.58625151449814 L 145.86458645864585,272.7654106758708 L 141.16411641164115,267.8950883666818 L 137.9137913791379,267.21105433449236 L 135.56355635563557,268.08661789569487 L 133.26332633263326,269.3178791536359 L 129.96299629962996,269.75566093423714 L 126.3126312631263,268.19606334084517 L 121.2121212121212,262.01239568985244 L 118.4118411841184,259.9876549545716 L 117.81178117811781,263.9276909799829 L 115.56155615561555,266.2260453281395 L 112.51125112511251,266.4722975797277 L 109.56095609560955,264.310750038009 L 108.26082608260826,260.9179412383493 L 109.1109110911091,258.51014144504234 L 110.61106110611061,256.4033166258988 L 111.2111211121112,253.91343274872915 L 109.9109910991099,251.83396929087317 L 107.86078607860786,250.35645578134395 L 106.6106610661066,248.57796729765133 L 107.91079107910791,245.5408561947301 L 112.2112211221122,244.96626760769095 L 113.66136613661365,244.33695629807664 L 114.86148614861486,243.21514048528593 L 115.46154615461546,242.39429964665857 L 116.66166616661666,240.095945298502 L 116.9116911691169,239.11093629214915 L 117.26172617261726,235.8549342989273 L 117.66176617661766,234.45950487326078 L 118.56185618561855,233.5565799507707 L 121.16211621162115,232.2705959702545 L 121.86218621862186,231.395032409052 L 121.86218621862186,228.0569463319674 L 120.56205620562055,226.74360099016363 L 98.35983598359836,221.4081355390858 L 92.95929592959295,218.91825166191617 L 87.75877587758775,214.9234929139297 L 83.6083608360836,210.38150694019166 L 74.75747574757476,194.7308082836967 L 74.2074207420742,193.00704252257924 L 74.4074407440744,191.36536084532455 L 75.7075707570757,188.27352701982815 z" /><path fill-rule="evenodd" fill="#D2EBD9" stroke="#A6A6A6" stroke-width="0.25" opacity="1" d="M 158.71587158715872,266.69118847002835 L 166.56665666566656,259.3309822836697 L 168.21682168216822,257.3883256322516 L 168.86688668866887,255.7740053162845 L 169.8169816981698,254.2417690841801 L 170.26702670267025,253.77662594229128 L 170.96709670967095,253.20203735525212 L 174.06740674067404,251.5603556779974 L 174.5174517451745,251.2046579812589 L 175.5175517551755,249.86395127816752 L 179.26792679267925,247.4561514848606 L 176.6176617661766,239.76760896305103 L 175.8175817581758,235.4718752409012 L 173.96739673967394,233.4197731443328 L 166.3166316631663,230.30057795754885 L 166.26662666266625,226.0322055966866 L 166.46664666466646,223.67912852595484 L 166.36663666366636,222.88564904861505 L 166.016601660166,221.87327868097464 L 162.016201620162,216.31892233959618 L 160.86608660866085,215.3065519719558 L 159.86598659865984,214.81404746877936 L 158.66586658665867,214.5404338559036 L 155.96559655965595,214.34890432689053 L 154.51545154515452,213.69223165598865 L 154.11541154115412,213.30917259796254 L 151.7151715171517,208.9039934306624 L 150.8150815081508,207.83690034044685 L 150.3150315031503,207.56328672757104 L 149.81498149814982,207.37175719855802 L 145.9145914591459,207.6453708114338 L 141.96419641964195,193.9646901676445 L 142.6142614261426,189.3953428326189 L 144.91449144914492,187.28851801347534 L 147.96479647964796,186.6865680651486 L 151.06510651065105,186.6865680651486 L 153.5153515351535,187.37060209733806 L 154.41544154415442,188.82075424557974 L 155.06550655065504,190.2709063938214 L 156.76567656765675,190.9275790647233 L 159.21592159215922,191.39272220661212 L 161.1161116111611,192.4324539355401 L 163.11631163116311,193.9646901676445 L 165.26652665266525,193.52690838704325 L 168.96689668966897,191.4200835678997 L 172.36723672367236,190.9275790647233 L 174.96749674967495,189.80576325193255 L 176.46764676467646,189.61423372291952 L 177.31773177317731,190.02465414223317 L 179.96799679967995,191.96731079365128 L 181.56815681568156,192.51453801940283 L 185.86858685868586,190.6266040905599 L 188.7188718871887,190.59924272927233 L 190.01900190019,193.22593341287987 L 192.9192919291929,190.9275790647233 L 195.26952695269526,190.35299047768413 L 200.97009700970096,192.97968116129167 L 204.6204620462046,194.89497645142217 L 205.97059705970597,194.78553100627187 L 208.57085708570855,193.4721856644681 L 213.9213921392139,191.52952901305002 L 214.9214921492149,190.98230178729844 L 216.42164216421642,189.6415950842071 L 219.92199219921991,187.15171120703744 L 221.17211721172117,185.09960911046903 L 225.72257225722572,179.68205957552848 L 226.17261726172617,178.75177329175082 L 226.02260226022602,177.79412564668556 L 226.07260726072607,176.69967119518242 L 226.57265726572655,175.1947963243656 L 227.1227122712271,174.01825778899973 L 228.2228222822282,172.40393747303258 L 229.1229122912291,171.55573527311765 L 234.32343234323432,168.9564059507977 L 238.07380738073806,169.25738092496104 L 241.27412741274125,168.02611966702003 L 244.67446744674467,167.64306060899392 L 250.77507750775075,167.8072287767194 L 256.17561756175616,167.31472427354296 L 258.975897589759,168.02611966702003 L 262.1262126212621,169.2026582023859 L 274.8274827482748,173.38894647938542 L 277.27772777277727,174.5381236534637 L 278.6778677867787,175.60521674367928 L 280.22802280228024,177.71204156282283 L 284.5284528452845,179.7915050206788 L 294.029402940294,181.24165716892045 L 294.07940794079406,182.33611162042362 L 293.6293629362936,184.11460010411622 L 292.57925792579255,185.5373908910703 L 291.1291129112911,186.8233748715865 L 290.12901290129014,187.15171120703744 L 285.7285728572857,187.75366115536417 L 282.47824782478244,189.8878473357953 L 282.6282628262826,192.89759707742894 L 283.8283828382838,196.399851322239 L 284.028402840284,199.9841896509118 L 282.5282528252825,202.41935080550627 L 280.72807280728074,202.22782127649324 L 278.6278627862786,200.91447593468945 L 276.1276127612761,199.9568282896242 L 267.07670767076706,200.64086232181367 L 263.47634763476344,200.09363509606212 L 262.1262126212621,206.08577321804182 L 259.025902590259,212.4609703980476 L 254.67546754675467,217.93324265556333 L 249.57495749574957,221.21660601007275 L 246.37463746374635,221.27132873264793 L 243.47434743474346,220.0127061134193 L 241.024102410241,218.58991532646522 L 239.02390239023902,218.15213354586396 L 237.17371737173715,219.46547888766773 L 236.5236523652365,221.73647187453676 L 236.2236223622362,224.47260800329462 L 235.42354235423542,227.12666004818973 L 233.57335733573356,230.27321659626128 L 231.67316731673165,232.57157094441786 L 226.4226422642264,236.56632969240434 L 225.52255225522552,238.48162498253484 L 224.67246724672466,245.02099033026613 L 223.37233723372336,247.64768101387367 L 220.07200720072007,249.2893626911284 L 213.021302130213,250.13756489104333 L 210.67106710671067,252.16230562632413 L 211.47114711471147,254.26913044546768 L 211.67116711671167,256.43067798718636 L 211.22112211221122,258.53750280632994 L 210.17101710171016,260.5075208190356 L 209.020902090209,262.09447977371514 L 207.97079707970795,263.0521274187804 L 206.77067706770677,263.2983796703686 L 204.97049704970496,262.7785138059046 L 203.3203320332033,261.0821094060747 L 200.3200320032003,255.33622353568325 L 198.36983698369835,253.53037369070304 L 188.86888688868885,256.3759552646112 L 183.6183618361836,260.0971003997219 L 173.06730673067307,262.36809338659094 L 166.66666666666666,265.40520448951213 L 158.71587158715872,266.69118847002835 z" /><path fill-rule="evenodd" fill="#D2EBD9" stroke="#A6A6A6" stroke-width="0.25" opacity="1" d="M 294.029402940294,181.24165716892045 L 284.5284528452845,179.7915050206788 L 280.22802280228024,177.71204156282283 L 278.6778677867787,175.60521674367928 L 277.27772777277727,174.5381236534637 L 274.8274827482748,173.38894647938542 L 262.1262126212621,169.2026582023859 L 258.975897589759,168.02611966702003 L 256.17561756175616,167.31472427354296 L 250.77507750775075,167.8072287767194 L 244.67446744674467,167.64306060899392 L 240.77407740774075,161.404670235426 L 239.32393239323932,160.0092408097595 L 236.1236123612361,158.093945519629 L 235.47354735473547,157.27310468100163 L 235.02350235023502,155.54933891988418 L 235.52355235523552,154.18127085550526 L 236.5236523652365,152.34805964923748 L 240.52405240524052,146.62953514013358 L 241.8241824182418,145.2888284370422 L 243.47434743474346,144.13965126296392 L 244.52445244524452,143.0178354501732 L 245.22452245224522,141.3487924116309 L 245.67456745674565,139.51558120536313 L 246.67466746674666,137.68236999909539 L 247.2247224722472,135.4934610960891 L 247.7247724772477,134.53581345102384 L 250.57505750575055,131.279811457802 L 251.87518751875186,129.25507072252117 L 252.07520752075206,128.7078434967696 L 253.97539753975397,127.64075040655405 L 261.0761076107611,125.67073239384838 L 261.3761376137614,131.7723159609784 L 262.3262326232623,133.22246810922007 L 263.67636763676364,133.16774538664492 L 267.026702670267,132.1553750190045 L 268.4268426842684,132.4016272705927 L 270.42704270427043,133.03093858020702 L 276.87768776877687,135.87652015411518 L 278.2278227822782,136.2595792121413 L 279.6779677967797,135.87652015411518 L 280.92809280928094,135.76707470896488 L 282.3282328232823,136.97097460561832 L 283.3283328332833,138.33904266999727 L 284.07840784078405,138.72210172802338 L 284.77847784778476,138.77682445059853 L 287.7287728772877,136.6426382701674 L 288.72887288728873,136.36902465729162 L 290.1790179017902,136.23221785085371 L 296.7796779677968,136.31430193471644 L 298.12981298129813,136.06804968312824 L 300.98009800980094,135.90388151540276 L 303.2303230323032,135.4934610960891 L 307.4807480748075,132.4289886318803 L 310.18101810181014,131.41661826423987 L 312.08120812081205,130.3495251740243 L 314.08140814081406,129.66549114183485 L 314.38143814381436,129.17298663865844 L 314.6314631463146,128.02380946458015 L 315.08150815081507,127.06616181951489 L 315.48154815481547,126.71046412277637 L 316.2316231623162,126.43685050990058 L 321.4321432143214,125.7801778389987 L 323.38233823382336,125.2603119745347 L 326.73267326732673,127.53130496140373 L 328.63286328632864,131.279811457802 L 330.5330533053305,134.2348384768605 L 330.08300830083004,137.18986549591895 L 332.3332333233323,138.61265628287305 L 333.78337833783377,140.7194811020166 L 334.08340834083407,143.2640877017614 L 332.78327832783276,145.89077838536895 L 334.08340834083407,147.06731692073484 L 335.8835883588359,150.07706666236848 L 335.73357335733573,153.46987546202823 L 333.5333533353335,159.05159316469425 L 332.9332933293329,161.07633389997505 L 333.38333833383336,164.2228904480466 L 334.08340834083407,166.82221977036656 L 334.2334233423342,169.28474228624864 L 332.9332933293329,172.10296249886923 L 333.8333833383338,171.9935170537189 L 334.033403340334,172.1303238601568 L 334.38343834383437,173.44366920196057 L 332.5332533253325,175.24951904694075 L 330.5330533053305,176.09772124685568 L 321.4321432143214,176.78175527904517 L 305.78057805780577,181.78888439467204 L 300.5300530053005,182.14458209141057 L 295.2295229522952,181.3237412527832 L 293.97939793979396,180.85859811089438 L 294.029402940294,181.24165716892045 z" /><path fill-rule="evenodd" fill="#D2EBD9" stroke="#A6A6A6" stroke-width="0.25" opacity="1" d="M 446.4446444644464,155.74086844889723 L 445.99459945994596,155.85031389404756 L 442.8942894289429,155.00211169413262 L 433.49334933493344,150.2959575526691 L 431.7931793179318,155.57670028117175 L 428.39283928392837,159.5988203904458 L 424.59245924592454,163.07371327396828 L 421.5921592159216,166.68541296392866 L 418.59185918591857,174.5654850147513 L 416.19161916191615,176.56286438874454 L 410.7410741074107,176.8638393629079 L 399.98999899989997,175.5778553823917 L 396.68966896689665,175.63257810496685 L 391.18911891189117,176.8638393629079 L 388.1388138813881,177.19217569835882 L 386.08860886088604,176.42605758230664 L 385.98859885988594,175.7146621888296 L 386.18861886188614,171.5010125505425 L 386.6386638663866,170.7348944344903 L 388.48884888488845,169.0384900346604 L 388.8388838883888,168.46390144762128 L 387.8387838783878,165.56359715113794 L 386.5386538653865,165.2626221769746 L 384.6884688468847,165.53623578985037 L 382.2382238223822,164.49650406092238 L 380.88808880888087,162.99162919010556 L 380.03800380038,161.5141156805763 L 381.1381138113811,159.95451808718434 L 383.5883588358836,154.20863221679284 L 384.03840384038403,151.80083242348593 L 385.8385838583858,147.5050987013361 L 385.88858885888584,146.2191147208199 L 385.53855385538554,145.09729890802916 L 384.988498849885,144.19437398553907 L 383.83838383838383,143.20936497918626 L 383.1883188318832,142.41588550184647 L 382.6882688268827,141.26670832776819 L 382.5382538253825,140.06280843111472 L 382.6382638263826,138.0107063345463 L 382.9382938293829,136.8888905217556 L 384.83848384838484,135.05567931548782 L 392.63926392639263,129.72021386441003 L 393.6893689368937,128.35214580003108 L 394.03940394039404,127.06616181951489 L 393.8893889388939,125.67073239384838 L 393.13931393139313,124.93197563908376 L 390.1390139013901,123.56390757470483 L 382.988298829883,118.2558034849146 L 382.7382738273827,117.24343311727418 L 383.0883088308831,111.90796766619636 L 384.7884788478848,109.66433604061491 L 387.4387438743874,107.31125896988316 L 388.1388138813881,106.27152724095518 L 388.48884888488845,104.98554326043899 L 391.18911891189117,102.76927299614512 L 392.3892389238924,100.96342315116493 L 392.63926392639263,99.7321618932239 L 393.13931393139313,98.80187560944623 L 395.58955895589554,97.02338712575362 L 395.88958895889584,96.47615990000205 L 395.8395839583958,95.92893267425048 L 395.6395639563956,95.40906680978648 L 394.43944394439444,93.76738513253177 L 394.1894189418942,93.30224199064293 L 394.1894189418942,92.91918293261683 L 394.53945394539454,92.67293068102863 L 395.68956895689564,93.00126701647957 L 397.3397339733973,94.01363738411997 L 399.58995899589956,94.67031005502186 L 407.5407540754075,95.29962136463617 L 408.3408340834083,95.05336911304796 L 409.09090909090907,94.58822597115913 L 409.99099909990997,93.43904879708083 L 410.7410741074107,92.01625801012673 L 411.64116411641163,87.09121297836259 L 412.1912191219122,86.1882880558725 L 415.69156915691565,84.0267405141538 L 416.8416841684168,82.82284061750033 L 417.69176917691766,81.45477255312142 L 418.69186918691867,81.31796574668351 L 420.2420242024202,81.48213391440899 L 428.29282928292827,83.97201779157864 L 430.44304430443043,84.10882459801654 L 434.89348934893485,83.37006784325192 L 441.2941294129413,90.21040816514656 L 442.7942794279428,92.50876251330315 L 443.1443144314431,96.50352126128962 L 447.89478947894787,108.76141111812483 L 449.14491449144913,114.47993562722876 L 449.74497449744973,119.43234202028047 L 449.7949794979498,123.4818234908421 L 449.5949594959496,124.7678074713583 L 449.24492449244923,125.80753920028627 L 447.99479947994797,127.47658223882857 L 447.59475947594757,128.51631396775656 L 448.3948394839484,142.1149105276831 L 447.99479947994797,148.1070486496628 L 447.09470947094707,151.5819415331853 L 446.4446444644464,155.74086844889723 z" /><path fill-rule="evenodd" fill="#D2EBD9" stroke="#A6A6A6" stroke-width="0.25" opacity="1" d="M 380.03800380038,161.5141156805763 L 379.3379337933793,160.28285442263527 L 377.7377737773777,158.7232568292433 L 375.4875487548755,157.9571387131911 L 372.987298729873,157.76560918417806 L 370.7370737073707,156.9447683455507 L 369.28692869286925,154.26335493936799 L 366.33663366336634,155.33044802958355 L 364.6864686468647,155.60406164245936 L 363.3363336333633,155.5219775585966 L 362.68626862686267,154.75585944254442 L 362.5362536253625,152.18389148151203 L 362.28622862286227,151.5819415331853 L 360.78607860786076,151.71874833962318 L 357.48574857485744,153.03209368142697 L 355.53555355535553,153.14153912657727 L 347.1847184718472,151.28096655902192 L 343.4343434343434,149.69400760434237 L 339.58395839583955,147.34093053361062 L 334.08340834083407,147.06731692073484 L 332.78327832783276,145.89077838536895 L 334.08340834083407,143.2640877017614 L 333.78337833783377,140.7194811020166 L 332.3332333233323,138.61265628287305 L 330.08300830083004,137.18986549591895 L 330.5330533053305,134.2348384768605 L 328.63286328632864,131.279811457802 L 326.73267326732673,127.53130496140373 L 327.2827282728273,122.52417584577685 L 333.6333633363336,116.14897866577104 L 336.03360336033603,112.42783353066035 L 344.4844484448445,113.3854811757256 L 346.93469346934694,113.24867436928771 L 348.18481848184814,111.66171541460815 L 349.9349934993499,108.9255792858503 L 351.3351335133513,107.58487258275895 L 353.1353135313531,106.29888860224276 L 354.73547354735473,105.75166137649119 L 359.7359735973597,105.12235006687688 L 361.036103610361,104.7119296475632 L 361.7361736173617,104.16470242181163 L 361.68616861686166,103.56275247348489 L 360.7360736073607,100.82661634472704 L 360.58605860586056,99.56799372549843 L 360.98609860986096,97.76214388051824 L 361.8361836183618,95.40906680978648 L 361.98619861986197,94.64294869373428 L 361.88618861886187,94.06836010669514 L 361.68616861686166,93.54849424223114 L 361.036103610361,92.72765340360378 L 358.98589858985895,91.87945120368884 L 358.4358435843584,91.00388764248633 L 358.1358135813581,89.82734910712045 L 358.18581858185814,88.56872648789184 L 358.4358435843584,87.39218795252596 L 361.18611861186116,81.31796574668351 L 360.78607860786076,79.12905684367723 L 360.78607860786076,78.25349328247472 L 360.9360936093609,77.15903883097158 L 361.78617861786176,74.36817997963855 L 361.88618861886187,73.54733914101121 L 361.5361536153615,72.53496877337079 L 360.38603860386036,71.46787568315523 L 359.78597859785975,70.56495076066514 L 359.5359535953595,69.38841222529926 L 359.58595859585955,68.0750668834955 L 359.3359335933593,66.21449431594014 L 359.035903590359,65.8861579804892 L 358.6358635863586,65.91351934177678 L 357.78577857785774,66.70699881911656 L 357.48574857485744,66.81644426426688 L 357.0857085708571,66.70699881911656 L 356.5856585658566,65.77671253533889 L 356.53565356535654,65.14740122572458 L 356.985698569857,60.304440277823176 L 357.6357635763576,56.39176561369944 L 357.88578857885784,55.707731581509975 L 358.1358135813581,55.461479329921765 L 358.5358535853585,55.461479329921765 L 359.48594859485945,55.81717702666029 L 360.3360336033603,55.51620205249692 L 360.6360636063606,54.96897482674535 L 360.8360836083608,51.7129728335235 L 361.1361136113611,50.071291156268785 L 362.2362236223622,46.268061937295364 L 363.3363336333633,43.997068950426346 L 365.43654365436544,40.658982873341756 L 366.88668866886684,38.79841030578642 L 367.68676867686764,38.22382171874727 L 369.2369236923692,37.5397876865578 L 370.3370337033703,37.238812712394434 L 374.3874387438744,36.773669570505604 L 375.33753375337534,36.226442344754034 L 376.38763876387634,35.3782401448391 L 379.08790879087906,32.36849040320545 L 379.68796879687966,31.95806998389177 L 380.78807880788077,31.95806998389177 L 381.28812881288127,31.766540454878722 L 382.988298829883,30.507917835650108 L 384.0884088408841,30.234304222774323 L 385.23852385238524,30.398472390499794 L 388.2388238823882,31.875985900029036 L 389.7389738973897,31.848624538741458 L 390.4390439043904,31.10986778397684 L 390.98909890989097,29.796522442173067 L 391.08910891089107,26.0480159457748 L 391.5891589158916,25.281897829722602 L 392.3392339233923,24.652586520108294 L 393.73937393739374,23.941191126631253 L 394.1894189418942,23.257157094441787 L 394.2894289428943,22.682568507402635 L 392.7892789278928,19.836986933494465 L 392.5892589258926,19.180314262592578 L 392.43924392439243,18.468918869115537 L 392.4892489248925,17.42918714018755 L 392.8892889288929,16.991405359586295 L 393.3893389338934,16.881959914435978 L 398.98989898989896,17.757523475638493 L 400.2400240024002,17.6207166692006 L 400.7900790079008,17.401825778899973 L 413.44134413441344,2.6540520448951215 L 414.9414941494149,3.25600199322185 L 416.3416341634163,3.25600199322185 L 417.7417741774177,2.9823883803460642 L 418.89188918891887,19.618096043193837 L 419.7419741974197,23.339241178304523 L 423.64236423642365,20.821995939847294 L 426.49264926492646,19.9190710173572 L 427.1427142714271,19.9190710173572 L 428.1428142814281,20.192684630232986 L 428.59285928592857,20.685189133409402 L 431.2931293129313,29.550270190584857 L 431.44314431443144,30.83625417110105 L 431.04310431043103,32.97044035153218 L 433.69336933693364,48.21071858871345 L 433.6433643364336,48.730584453177435 L 433.1933193319332,49.770316182105425 L 431.2931293129313,52.862150007601805 L 430.84308430843083,53.90188173652979 L 430.24302430243023,57.65038823292805 L 430.1430143014301,63.09529912915619 L 430.2930293029303,64.46336719353512 L 430.64306430643063,65.31156939345006 L 433.04330433043305,67.0353351545675 L 433.79337933793374,67.96562143834518 L 433.99339933993394,68.70437819310979 L 433.99339933993394,69.38841222529926 L 433.1933193319332,72.42552332822048 L 433.0933093309331,78.85544323080144 L 433.5433543354335,81.53685663698414 L 434.89348934893485,83.37006784325192 L 430.44304430443043,84.10882459801654 L 428.29282928292827,83.97201779157864 L 420.2420242024202,81.48213391440899 L 418.69186918691867,81.31796574668351 L 417.69176917691766,81.45477255312142 L 416.8416841684168,82.82284061750033 L 415.69156915691565,84.0267405141538 L 412.1912191219122,86.1882880558725 L 411.64116411641163,87.09121297836259 L 410.7410741074107,92.01625801012673 L 409.99099909990997,93.43904879708083 L 409.09090909090907,94.58822597115913 L 408.3408340834083,95.05336911304796 L 407.5407540754075,95.29962136463617 L 399.58995899589956,94.67031005502186 L 397.3397339733973,94.01363738411997 L 395.68956895689564,93.00126701647957 L 394.53945394539454,92.67293068102863 L 394.1894189418942,92.91918293261683 L 394.1894189418942,93.30224199064293 L 394.43944394439444,93.76738513253177 L 395.6395639563956,95.40906680978648 L 395.8395839583958,95.92893267425048 L 395.88958895889584,96.47615990000205 L 395.58955895589554,97.02338712575362 L 393.13931393139313,98.80187560944623 L 392.63926392639263,99.7321618932239 L 392.3892389238924,100.96342315116493 L 391.18911891189117,102.76927299614512 L 388.48884888488845,104.98554326043899 L 388.1388138813881,106.27152724095518 L 387.4387438743874,107.31125896988316 L 384.7884788478848,109.66433604061491 L 383.0883088308831,111.90796766619636 L 382.7382738273827,117.24343311727418 L 382.988298829883,118.2558034849146 L 390.1390139013901,123.56390757470483 L 393.13931393139313,124.93197563908376 L 393.8893889388939,125.67073239384838 L 394.03940394039404,127.06616181951489 L 393.6893689368937,128.35214580003108 L 392.63926392639263,129.72021386441003 L 384.83848384838484,135.05567931548782 L 382.9382938293829,136.8888905217556 L 382.6382638263826,138.0107063345463 L 382.5382538253825,140.06280843111472 L 382.6882688268827,141.26670832776819 L 383.1883188318832,142.41588550184647 L 383.83838383838383,143.20936497918626 L 384.988498849885,144.19437398553907 L 385.53855385538554,145.09729890802916 L 385.88858885888584,146.2191147208199 L 385.8385838583858,147.5050987013361 L 384.03840384038403,151.80083242348593 L 383.5883588358836,154.20863221679284 L 381.1381138113811,159.95451808718434 L 380.03800380038,161.5141156805763 z" /><g><path fill-rule="evenodd" fill="#D2EBD9" stroke="#A6A6A6" stroke-width="0.25" opacity="1" d="M 417.7417741774177,2.9823883803460642 L 423.04230423042304,1.9700180127056572 L 451.4951495149515,0.0 L 458.74587458745873,1.669043038542293 L 453.99539953995395,5.007129115626879 L 454.7454745474547,8.399937915286621 L 458.8958895889589,11.710662631083629 L 474.2474247424742,19.453927875468366 L 478.34783478347833,22.709929868690214 L 480.04800480048004,27.22455448114068 L 480.04800480048004,29.796522442173067 L 479.6979697969797,31.027783700114103 L 475.79757975797577,33.681835745009224 L 468.94689468946893,40.27592381531566 L 466.49664966496647,41.17884873780575 L 462.69626962696265,43.832900782700875 L 464.2464246424642,49.797677543393 L 470.04700470047004,59.894019858509495 L 471.59715971597154,55.35203388477145 L 472.6472647264726,53.60090676236642 L 474.39743974397436,52.58853639472602 L 490.6490649064906,60.058188026234966 L 494.2494249424942,64.10766949679659 L 494.69946994699467,66.84380562555445 L 494.3494349434943,69.66202583817504 L 493.29932993299326,72.20663243791985 L 491.69916991699165,74.0672050054752 L 488.6988698869887,75.24374354084108 L 484.29842984298426,73.79359139259941 L 482.19821982198215,74.55970950865161 L 480.04800480048004,79.40267045655303 L 481.2481248124812,85.28536313338242 L 486.1986198619862,97.26963937734183 L 486.6486648664866,101.15495268017798 L 486.4986498649865,109.03502473100062 L 487.24872487248723,112.78353122739888 L 489.04890489048904,115.38286054971884 L 491.09910991099105,117.3528785624245 L 492.09920992099205,119.6512329105811 L 490.79907990799074,123.15348715539116 L 491.79917991799175,126.62838003891363 L 495.999599959996,136.28694057342886 L 497.84978497849784,139.37877439892526 L 494.19941994199417,140.8289265471669 L 485.09850985098507,148.70899859798953 L 483.8483848384838,149.393032630179 L 480.94809480948095,150.51484844296974 L 479.8979897989799,151.17152111387162 L 478.1978197819782,153.68876635232886 L 476.19761976197617,159.27048405499488 L 474.2474247424742,160.83008164838685 L 471.14711471147115,160.69327484194895 L 469.0969096909691,158.9695090808315 L 467.3467346734673,156.78060017782522 L 465.3465346534653,155.35780939087113 L 463.39633963396335,155.22100258443325 L 459.34593459345933,156.0692047843482 L 457.29572957295727,156.20601159078606 L 455.69556955695566,155.63142300374693 L 452.99529952995294,153.57932090717853 L 452.04520452045205,153.1141777652897 L 450.64506450645064,153.52459818460338 L 447.59475947594757,155.5219775585966 L 446.4446444644464,155.74086844889723 L 447.09470947094707,151.5819415331853 L 447.99479947994797,148.1070486496628 L 448.3948394839484,142.1149105276831 L 447.59475947594757,128.51631396775656 L 447.99479947994797,127.47658223882857 L 449.24492449244923,125.80753920028627 L 449.5949594959496,124.7678074713583 L 449.7949794979498,123.4818234908421 L 449.74497449744973,119.43234202028047 L 449.14491449144913,114.47993562722876 L 447.89478947894787,108.76141111812483 L 443.1443144314431,96.50352126128962 L 442.7942794279428,92.50876251330315 L 441.2941294129413,90.21040816514656 L 434.89348934893485,83.37006784325192 L 433.5433543354335,81.53685663698414 L 433.0933093309331,78.85544323080144 L 433.1933193319332,72.42552332822048 L 433.99339933993394,69.38841222529926 L 433.99339933993394,68.70437819310979 L 433.79337933793374,67.96562143834518 L 433.04330433043305,67.0353351545675 L 430.64306430643063,65.31156939345006 L 430.2930293029303,64.46336719353512 L 430.1430143014301,63.09529912915619 L 430.24302430243023,57.65038823292805 L 430.84308430843083,53.90188173652979 L 431.2931293129313,52.862150007601805 L 433.1933193319332,49.770316182105425 L 433.6433643364336,48.730584453177435 L 433.69336933693364,48.21071858871345 L 431.04310431043103,32.97044035153218 L 431.44314431443144,30.83625417110105 L 431.2931293129313,29.550270190584857 L 428.59285928592857,20.685189133409402 L 428.1428142814281,20.192684630232986 L 427.1427142714271,19.9190710173572 L 426.49264926492646,19.9190710173572 L 423.64236423642365,20.821995939847294 L 419.7419741974197,23.339241178304523 L 418.89188918891887,19.618096043193837 L 417.7417741774177,2.9823883803460642 z" /><path fill-rule="evenodd" fill="#D2EBD9" stroke="#A6A6A6" stroke-width="0.25" opacity="1" d="M 493.1493149314931,8.4272992765742 L 492.7492749274927,5.745885870391501 L 493.8493849384938,3.4475315222349003 L 493.79937993799376,1.1491771740783001 L 495.5995599559956,1.9700180127056572 L 498.24982498249824,1.0123703676404072 L 500.0,1.9426566514180788 L 499.1999199919992,4.131565554424364 L 499.0999099909991,7.360206186358636 L 497.34973497349733,11.245519489194793 L 494.49944994499447,12.203167134260044 L 492.99929992999296,11.136074044044479 L 493.1493149314931,8.4272992765742 z" /><path fill-rule="evenodd" fill="#D2EBD9" stroke="#A6A6A6" stroke-width="0.25" opacity="1" d="M 484.99849984998497,18.96142337229195 L 483.2483248324832,18.824616565854058 L 482.048204820482,17.593355307913022 L 482.69826982698265,14.227907869540857 L 485.39853985398537,11.792746714946365 L 486.7486748674867,13.160814779325294 L 487.998799879988,14.911941901730323 L 486.6486648664866,18.0037757272267 L 484.99849984998497,18.96142337229195 z" /></g><path fill-rule="evenodd" fill="#D2EBD9" stroke="#A6A6A6" stroke-width="0.25" opacity="1" d="M 104.36043604360435,75.21638217955349 L 107.1107110711071,81.56421799827173 L 108.21082108210821,83.34270648196433 L 113.4113411341134,87.93941517827753 L 114.36143614361436,88.97914690720552 L 114.91149114911491,89.85471046840803 L 115.16151615161516,92.39931706815284 L 115.56155615561555,94.17780555184545 L 116.5116511651165,95.9015713129629 L 121.86218621862186,101.10022995760282 L 123.4123412341234,103.53539111219732 L 123.2123212321232,108.9255792858503 L 123.56235623562355,111.36074044044479 L 124.16241624162416,113.9053470401896 L 125.06250625062505,115.84800369160767 L 126.3126312631263,116.72356725281018 L 128.2128212821282,116.9698195043984 L 129.012901290129,117.32551720113692 L 129.86298629862986,118.00955123332639 L 132.3132313231323,120.99193961367244 L 133.4133413341334,122.05903270388801 L 136.46364636463645,123.81015982629305 L 137.76377637763775,124.7678074713583 L 139.26392639263926,126.08115281316206 L 139.81398139813982,126.90199365178943 L 140.11401140114012,127.6954731291292 L 140.01400140014002,128.27006171616836 L 139.51395139513951,129.25507072252117 L 138.26382638263826,130.13063428372368 L 135.9135913591359,130.86939103848832 L 126.06260626062605,132.75732496733124 L 123.4123412341234,133.66024988982133 L 122.8122812281228,134.50845208973627 L 121.56215621562156,137.6276472765202 L 118.8118811881188,140.19961523755262 L 114.46144614461446,143.45561723077446 L 112.46124612461246,144.6595171274279 L 111.06110611061105,145.26146707575464 L 110.51105110511051,145.12466026931676 L 110.11101110111011,144.82368529515338 L 109.16091609160915,143.5377013146372 L 108.5108510851085,142.03282644382037 L 108.26082608260826,140.8562879084545 L 108.26082608260826,138.96835397961158 L 108.11081108110811,138.44848811514757 L 107.66076607660766,137.95598361197116 L 106.9106910691069,137.57292455394506 L 105.41054105410541,137.21722685720655 L 103.8103810381038,137.68236999909539 L 102.96029602960296,138.44848811514757 L 102.010201020102,140.30906068270292 L 101.06010601060106,141.26670832776819 L 99.75997599759975,141.5129605793564 L 99.1099109910991,141.92338099867007 L 98.80988098809881,142.3885241405589 L 99.15991599159915,143.4008945081993 L 100.3100310031003,144.46798759841485 L 100.91009100910091,145.3161897983298 L 101.11011101110111,146.49272833369568 L 100.86008600860086,147.58718278519882 L 99.95999599959995,149.09205765601564 L 98.05980598059806,150.97999158485857 L 97.6097609760976,151.5819415331853 L 96.95969596959695,153.1141777652897 L 96.30963096309631,153.96237996520463 L 92.95929592959295,157.24574331971405 L 91.75917591759175,158.12130688091656 L 90.8090809080908,158.5864500228054 L 89.55895589558955,158.50436593894267 L 88.4088408840884,158.20339096477932 L 86.55865586558656,158.14866824220414 L 81.75817581758176,159.3525681388576 L 78.1078107810781,157.8203319067532 L 73.55735573557355,156.5617092875246 L 71.05710571057105,156.1512888682109 L 70.45704570457045,155.7682298101848 L 70.00700070007001,155.16627986185807 L 69.75697569756976,152.89528687498907 L 70.25702570257026,148.92788948829016 L 70.95709570957095,146.7116192239963 L 71.65716571657165,145.26146707575464 L 71.5071507150715,144.52271032099003 L 67.3067306730673,138.09279041840907 L 66.8066806680668,136.0954110444158 L 68.8068806880688,129.39187752895907 L 67.9067906790679,127.53130496140373 L 66.3066306630663,125.67073239384838 L 65.7065706570657,124.52155521977008 L 65.40654065406541,123.61863029727999 L 65.10651065106511,121.12874642011035 L 62.456245624562456,116.36786955607167 L 60.906090609060904,110.59462232439259 L 59.855985598559855,110.18420190507891 L 58.15581558155815,109.96531101477828 L 51.95519551955195,110.32100871151681 L 50.65506550655065,110.59462232439259 L 48.75487548754875,112.31838808551004 L 45.654565456545654,115.79328096903252 L 44.8044804480448,116.36786955607167 L 43.75437543754375,116.80565133667292 L 42.154215421542155,116.88773542053566 L 40.3040304030403,116.4499536399344 L 38.603860386038605,115.32813782714368 L 37.05370537053705,113.46756525958834 L 33.3033303330333,107.50278849889621 L 50.505050505050505,97.76214388051824 L 54.75547554755475,95.1354531969107 L 57.3057305730573,93.00126701647957 L 58.1058105810581,88.13094470729058 L 60.2060206020602,80.33295674033069 L 63.356335633563354,78.14404783732441 L 82.9082908290829,78.39030008891261 L 89.8089808980898,79.81309087586669 L 102.91029102910291,75.48999579242928 L 104.36043604360435,75.21638217955349 z" /><path fill-rule="evenodd" fill="#D2EBD9" stroke="#A6A6A6" stroke-width="0.25" opacity="1" d="M 202.17021702170217,54.28494079455589 L 202.77027702770275,56.254958807261545 L 203.37033703370335,57.51358142649016 L 204.97049704970496,60.38652436168591 L 206.57065706570657,62.438626458254305 L 207.07070707070707,63.36891274203197 L 206.92069206920692,63.9708626903587 L 206.22062206220622,64.68225808383575 L 204.2204220422042,65.53046028375068 L 203.07030703070305,65.77671253533889 L 201.72017201720172,65.80407389662646 L 201.07010701070107,66.70699881911656 L 200.37003700370036,70.15453034135146 L 198.86988698869885,70.83856437354092 L 197.56975697569757,71.08481662512914 L 196.31963196319631,70.94800981869123 L 193.019301930193,69.93563945105083 L 191.76917691769177,69.99036217362598 L 191.3191319131913,70.2366144252142 L 190.96909690969096,70.64703484452788 L 189.8189818981898,73.1642800829851 L 186.5186518651865,78.5271068953505 L 186.46864686468646,80.33295674033069 L 186.91869186918692,82.13880658531087 L 188.2188218821882,85.50425402368305 L 188.3188318831883,86.16092669458493 L 187.91879187918792,94.94392366789765 L 188.36883688368835,98.14520293854434 L 188.8188818881888,98.47353927399529 L 189.2189218921892,99.37646419648537 L 188.96889688968895,99.86896869966179 L 187.41874187418742,100.63508681571399 L 186.96869686968697,101.12759131889041 L 186.91869186918692,101.7842639897923 L 188.11881188118812,104.21942514438679 L 188.16881688168814,104.84873645400108 L 187.96879687968797,105.66957729262845 L 186.56865686568656,107.50278849889621 L 185.3185318531853,108.5425202278242 L 181.9181918191819,110.48517687924227 L 181.5181518151815,111.08712682756901 L 180.56805680568056,114.39785154336602 L 179.06790679067905,115.90272641418284 L 178.56785678567857,116.88773542053566 L 178.41784178417842,118.91247615581648 L 178.61786178617862,121.01930097496003 L 177.56775677567757,122.36000767805137 L 176.36763676367636,122.578898568352 L 176.017601760176,123.01668034895326 L 175.9175917591759,123.8648825488682 L 176.8176817681768,126.51893459376332 L 178.26782678267827,129.20034799994602 L 178.41784178417842,129.7475752256976 L 178.61786178617862,130.6505001481877 L 178.8178817881788,134.04330894784744 L 179.2179217921792,136.0133269605531 L 179.86798679867985,137.57292455394506 L 180.3180318031803,139.21460623119978 L 180.7180718071807,142.90839000502288 L 180.96809680968096,143.9207603726633 L 181.36813681368136,144.96049210159129 L 182.01820182018201,145.75397157893104 L 182.86828682868287,146.35592152725778 L 184.36843684368435,147.03995555944724 L 184.56845684568455,147.53246006262367 L 184.86848684868485,148.7363599592771 L 185.9185918591859,160.58382939679865 L 186.1186118611861,161.29522479027568 L 186.5186518651865,161.6509224870142 L 187.06870687068707,161.8150906547397 L 188.6188618861886,161.7603679321645 L 188.76887688768875,161.89717473860242 L 189.1189118911891,163.3473268868441 L 189.66896689668965,164.74275631251058 L 189.26892689268925,165.53623578985037 L 186.7186718671867,167.15055610581751 L 184.96849684968495,167.56097652513117 L 181.8181818181818,167.47889244126844 L 180.1180118011801,167.97139694444485 L 178.26782678267827,169.01112867337284 L 177.1177117711771,170.92642396350334 L 175.46754675467545,174.456039569601 L 174.96749674967495,175.1947963243656 L 173.71737173717372,176.15244396943086 L 173.56735673567357,176.91856208548305 L 173.66736673667367,178.06773925956136 L 174.76747674767475,182.63708659458698 L 174.96749674967495,189.80576325193255 L 172.36723672367236,190.9275790647233 L 168.96689668966897,191.4200835678997 L 165.26652665266525,193.52690838704325 L 163.11631163116311,193.9646901676445 L 161.1161116111611,192.4324539355401 L 159.21592159215922,191.39272220661212 L 156.76567656765675,190.9275790647233 L 155.06550655065504,190.2709063938214 L 154.41544154415442,188.82075424557974 L 153.5153515351535,187.37060209733806 L 151.26512651265125,175.5778553823917 L 150.6150615061506,167.7798674154318 L 150.4150415041504,167.09583338324234 L 149.96499649964997,166.54860615749078 L 148.9148914891489,166.05610165431435 L 146.86468646864685,165.97401757045162 L 146.4146414641464,165.755126680151 L 144.76447644764477,163.10107463525588 L 144.1144114411441,162.66329285465463 L 143.5143514351435,162.58120877079187 L 142.46424642464245,162.77273829980493 L 141.5141514151415,162.36231788049125 L 141.2141214121412,161.95189746117757 L 140.96409640964094,160.74799756452413 L 140.66406640664064,155.05683441670777 L 140.86408640864084,151.22624383644677 L 140.46404640464047,146.7116192239963 L 136.86368636863685,136.80680643789287 L 135.9135913591359,130.86939103848832 L 138.26382638263826,130.13063428372368 L 139.51395139513951,129.25507072252117 L 140.01400140014002,128.27006171616836 L 140.11401140114012,127.6954731291292 L 139.81398139813982,126.90199365178943 L 139.26392639263926,126.08115281316206 L 137.76377637763775,124.7678074713583 L 136.46364636463645,123.81015982629305 L 133.4133413341334,122.05903270388801 L 132.3132313231323,120.99193961367244 L 129.86298629862986,118.00955123332639 L 129.012901290129,117.32551720113692 L 128.2128212821282,116.9698195043984 L 126.3126312631263,116.72356725281018 L 125.06250625062505,115.84800369160767 L 124.16241624162416,113.9053470401896 L 123.56235623562355,111.36074044044479 L 123.2123212321232,108.9255792858503 L 123.4123412341234,103.53539111219732 L 121.86218621862186,101.10022995760282 L 116.5116511651165,95.9015713129629 L 115.56155615561555,94.17780555184545 L 115.16151615161516,92.39931706815284 L 114.91149114911491,89.85471046840803 L 114.36143614361436,88.97914690720552 L 113.4113411341134,87.93941517827753 L 108.21082108210821,83.34270648196433 L 107.1107110711071,81.56421799827173 L 104.36043604360435,75.21638217955349 L 108.8108810881088,74.34081861835098 L 121.36213621362135,71.19426207027945 L 150.66506650665065,71.44051432186765 L 156.06560656065605,70.15453034135146 L 163.11631163116311,70.15453034135146 L 178.26782678267827,66.57019201267867 L 192.26922692269227,60.35916300039833 L 202.17021702170217,54.28494079455589 z" /><path fill-rule="evenodd" fill="#D2EBD9" stroke="#A6A6A6" stroke-width="0.25" opacity="1" d="M 264.97649764976495,22.792013952552953 L 265.47654765476545,29.194572493846337 L 265.8265826582658,30.343749667924637 L 266.3266326632663,31.27403595170231 L 267.47674767476747,32.341129041917874 L 272.27722772277224,34.721567473937206 L 273.27732773277324,35.980190093165824 L 273.3273327332733,37.18408998981928 L 272.37723772377234,45.85764151798169 L 272.4272427242724,46.54167555017115 L 272.67726772677264,47.71821408553703 L 272.9272927292729,48.183357227425866 L 274.5274527452745,49.524063930517215 L 274.8274827482748,49.98920707240605 L 275.3275327532753,52.369645504425385 L 274.67746774677465,54.339663517131044 L 273.27732773277324,56.118152000823656 L 271.87718771877184,57.458858703915006 L 270.0770077007701,58.58067451670573 L 268.8268826882688,59.56568352305855 L 267.47674767476747,61.07055839387537 L 266.9266926692669,63.150021851731346 L 266.6266626662666,67.8014532706197 L 267.6267626762676,73.51997777972362 L 269.52695269526953,78.85544323080144 L 269.7769776977698,80.08670448874248 L 269.82698269826983,81.42741119183383 L 269.5769576957696,82.65867244977487 L 264.47644764476445,93.57585560351872 L 263.9263926392639,94.25988963570818 L 262.3262326232623,94.86183958403491 L 261.3761376137614,95.02600775176039 L 260.52605260526053,94.97128502918522 L 255.57555755575555,93.43904879708083 L 253.62536253625362,93.41168743579325 L 253.22532253225322,94.25988963570818 L 253.02530253025301,95.71004178394985 L 253.27532753275327,99.29438011262265 L 253.17531753175317,102.7966343574327 L 251.6251625162516,106.95556127314464 L 250.17501750175015,106.1073590732297 L 249.07490749074907,105.72430001520361 L 245.9245924592459,105.23179551202719 L 245.12451245124512,104.5751228411253 L 244.37443744374437,103.15233205417123 L 243.47434743474346,102.82399571872028 L 241.87418741874185,102.6598275509948 L 237.97379737973796,103.91845017022342 L 234.37343734373437,105.83374546035392 L 225.32253225322532,109.1718315374385 L 217.8217821782178,102.11260032524324 L 211.62116211621162,94.20516691313303 L 210.57105710571057,93.41168743579325 L 209.3209320932093,93.54849424223114 L 206.02060206020602,94.61558733244671 L 204.7204720472047,94.69767141630945 L 203.7203720372037,94.34197371957092 L 203.4203420342034,93.68530104866903 L 203.3203320332033,92.7002920423162 L 203.7203720372037,90.83971947476086 L 204.3204320432043,89.143315074931 L 205.87058705870587,86.35245622359797 L 206.27062706270627,85.28536313338242 L 206.17061706170617,83.80784962385317 L 205.72057205720571,81.50949527569657 L 203.97039703970395,76.25611390848148 L 202.9202920292029,73.98512092161246 L 201.42014201420142,72.34343924435774 L 200.8200820082008,71.93301882504407 L 200.37003700370036,70.15453034135146 L 201.07010701070107,66.70699881911656 L 201.72017201720172,65.80407389662646 L 203.07030703070305,65.77671253533889 L 204.2204220422042,65.53046028375068 L 206.22062206220622,64.68225808383575 L 206.92069206920692,63.9708626903587 L 207.07070707070707,63.36891274203197 L 206.57065706570657,62.438626458254305 L 204.97049704970496,60.38652436168591 L 203.37033703370335,57.51358142649016 L 202.77027702770275,56.254958807261545 L 202.17021702170217,54.28494079455589 L 216.77167716771675,45.25569156965496 L 264.97649764976495,22.792013952552953 z" /><path fill-rule="evenodd" fill="#D2EBD9" stroke="#A6A6A6" stroke-width="0.25" opacity="1" d="M 268.026802680268,21.341861804311286 L 267.9267926792679,21.834366307487702 L 268.7268726872687,24.844116049121343 L 270.32703270327033,26.978302229552472 L 272.77727772777274,27.908588513330145 L 276.8276827682768,28.483177100369293 L 278.7278727872787,30.070136055048852 L 279.97799779978,32.423213125780606 L 281.9281928192819,35.26879469968878 L 285.5285528552855,38.79841030578642 L 286.028602860286,40.2212010927405 L 286.3286328632863,46.81528916304694 L 286.8286828682868,49.49670256922964 L 287.6787678767877,51.74033419481108 L 297.0797079707971,69.7167485607502 L 298.82988298829883,75.9825002956057 L 299.32993299329934,82.43978155947424 L 300.5300530053005,84.10882459801654 L 303.88038803880386,84.68341318505568 L 304.18041804180416,85.99675852685945 L 310.1310131013101,93.38432607450567 L 314.68146814681467,92.34459434557769 L 318.83188318831884,94.97128502918522 L 321.88218821882185,99.21229602875991 L 323.08230823082306,102.96080252515817 L 336.03360336033603,112.42783353066035 L 333.6333633363336,116.14897866577104 L 327.2827282728273,122.52417584577685 L 326.73267326732673,127.53130496140373 L 323.38233823382336,125.2603119745347 L 321.4321432143214,125.7801778389987 L 316.2316231623162,126.43685050990058 L 315.48154815481547,126.71046412277637 L 315.08150815081507,127.06616181951489 L 314.6314631463146,128.02380946458015 L 314.38143814381436,129.17298663865844 L 314.08140814081406,129.66549114183485 L 312.08120812081205,130.3495251740243 L 310.18101810181014,131.41661826423987 L 307.4807480748075,132.4289886318803 L 303.2303230323032,135.4934610960891 L 300.98009800980094,135.90388151540276 L 298.12981298129813,136.06804968312824 L 296.7796779677968,136.31430193471644 L 290.1790179017902,136.23221785085371 L 288.72887288728873,136.36902465729162 L 287.7287728772877,136.6426382701674 L 284.77847784778476,138.77682445059853 L 284.07840784078405,138.72210172802338 L 283.3283328332833,138.33904266999727 L 282.3282328232823,136.97097460561832 L 280.92809280928094,135.76707470896488 L 279.6779677967797,135.87652015411518 L 278.2278227822782,136.2595792121413 L 276.87768776877687,135.87652015411518 L 270.42704270427043,133.03093858020702 L 268.4268426842684,132.4016272705927 L 267.026702670267,132.1553750190045 L 263.67636763676364,133.16774538664492 L 262.3262326232623,133.22246810922007 L 261.3761376137614,131.7723159609784 L 261.0761076107611,125.67073239384838 L 257.3257325732573,115.60175144001947 L 256.6256625662566,112.6193630596734 L 255.67556755675565,110.95032002113112 L 251.6251625162516,106.95556127314464 L 253.17531753175317,102.7966343574327 L 253.27532753275327,99.29438011262265 L 253.02530253025301,95.71004178394985 L 253.22532253225322,94.25988963570818 L 253.62536253625362,93.41168743579325 L 255.57555755575555,93.43904879708083 L 260.52605260526053,94.97128502918522 L 261.3761376137614,95.02600775176039 L 262.3262326232623,94.86183958403491 L 263.9263926392639,94.25988963570818 L 264.47644764476445,93.57585560351872 L 269.5769576957696,82.65867244977487 L 269.82698269826983,81.42741119183383 L 269.7769776977698,80.08670448874248 L 269.52695269526953,78.85544323080144 L 267.6267626762676,73.51997777972362 L 266.6266626662666,67.8014532706197 L 266.9266926692669,63.150021851731346 L 267.47674767476747,61.07055839387537 L 268.8268826882688,59.56568352305855 L 270.0770077007701,58.58067451670573 L 271.87718771877184,57.458858703915006 L 273.27732773277324,56.118152000823656 L 274.67746774677465,54.339663517131044 L 275.3275327532753,52.369645504425385 L 274.8274827482748,49.98920707240605 L 274.5274527452745,49.524063930517215 L 272.9272927292729,48.183357227425866 L 272.67726772677264,47.71821408553703 L 272.4272427242724,46.54167555017115 L 272.37723772377234,45.85764151798169 L 273.3273327332733,37.18408998981928 L 273.27732773277324,35.980190093165824 L 272.27722772277224,34.721567473937206 L 267.47674767476747,32.341129041917874 L 266.3266326632663,31.27403595170231 L 265.8265826582658,30.343749667924637 L 265.47654765476545,29.194572493846337 L 264.97649764976495,22.792013952552953 L 268.026802680268,21.341861804311286 z" /><path fill-rule="evenodd" fill="#D2EBD9" stroke="#A6A6A6" stroke-width="0.25" opacity="1" d="M 413.44134413441344,2.6540520448951215 L 400.7900790079008,17.401825778899973 L 400.2400240024002,17.6207166692006 L 398.98989898989896,17.757523475638493 L 393.3893389338934,16.881959914435978 L 392.8892889288929,16.991405359586295 L 392.4892489248925,17.42918714018755 L 392.43924392439243,18.468918869115537 L 392.5892589258926,19.180314262592578 L 392.7892789278928,19.836986933494465 L 394.2894289428943,22.682568507402635 L 394.1894189418942,23.257157094441787 L 393.73937393739374,23.941191126631253 L 392.3392339233923,24.652586520108294 L 391.5891589158916,25.281897829722602 L 391.08910891089107,26.0480159457748 L 390.98909890989097,29.796522442173067 L 390.4390439043904,31.10986778397684 L 389.7389738973897,31.848624538741458 L 388.2388238823882,31.875985900029036 L 385.23852385238524,30.398472390499794 L 384.0884088408841,30.234304222774323 L 382.988298829883,30.507917835650108 L 381.28812881288127,31.766540454878722 L 380.78807880788077,31.95806998389177 L 379.68796879687966,31.95806998389177 L 379.08790879087906,32.36849040320545 L 376.38763876387634,35.3782401448391 L 375.33753375337534,36.226442344754034 L 374.3874387438744,36.773669570505604 L 370.3370337033703,37.238812712394434 L 369.2369236923692,37.5397876865578 L 367.68676867686764,38.22382171874727 L 366.88668866886684,38.79841030578642 L 365.43654365436544,40.658982873341756 L 363.3363336333633,43.997068950426346 L 362.2362236223622,46.268061937295364 L 361.1361136113611,50.071291156268785 L 360.8360836083608,51.7129728335235 L 360.6360636063606,54.96897482674535 L 360.3360336033603,55.51620205249692 L 359.48594859485945,55.81717702666029 L 358.5358535853585,55.461479329921765 L 358.1358135813581,55.461479329921765 L 357.88578857885784,55.707731581509975 L 357.6357635763576,56.39176561369944 L 356.985698569857,60.304440277823176 L 356.53565356535654,65.14740122572458 L 356.5856585658566,65.77671253533889 L 357.0857085708571,66.70699881911656 L 357.48574857485744,66.81644426426688 L 357.78577857785774,66.70699881911656 L 358.6358635863586,65.91351934177678 L 359.035903590359,65.8861579804892 L 359.3359335933593,66.21449431594014 L 359.58595859585955,68.0750668834955 L 359.5359535953595,69.38841222529926 L 359.78597859785975,70.56495076066514 L 360.38603860386036,71.46787568315523 L 361.5361536153615,72.53496877337079 L 361.88618861886187,73.54733914101121 L 361.78617861786176,74.36817997963855 L 360.9360936093609,77.15903883097158 L 360.78607860786076,78.25349328247472 L 360.78607860786076,79.12905684367723 L 361.18611861186116,81.31796574668351 L 358.4358435843584,87.39218795252596 L 358.18581858185814,88.56872648789184 L 358.1358135813581,89.82734910712045 L 358.4358435843584,91.00388764248633 L 358.98589858985895,91.87945120368884 L 361.036103610361,92.72765340360378 L 361.68616861686166,93.54849424223114 L 361.88618861886187,94.06836010669514 L 361.98619861986197,94.64294869373428 L 361.8361836183618,95.40906680978648 L 360.98609860986096,97.76214388051824 L 360.58605860586056,99.56799372549843 L 360.7360736073607,100.82661634472704 L 361.68616861686166,103.56275247348489 L 361.7361736173617,104.16470242181163 L 361.036103610361,104.7119296475632 L 359.7359735973597,105.12235006687688 L 354.73547354735473,105.75166137649119 L 353.1353135313531,106.29888860224276 L 351.3351335133513,107.58487258275895 L 349.9349934993499,108.9255792858503 L 348.18481848184814,111.66171541460815 L 346.93469346934694,113.24867436928771 L 344.4844484448445,113.3854811757256 L 336.03360336033603,112.42783353066035 L 323.08230823082306,102.96080252515817 L 321.88218821882185,99.21229602875991 L 318.83188318831884,94.97128502918522 L 314.68146814681467,92.34459434557769 L 310.1310131013101,93.38432607450567 L 304.18041804180416,85.99675852685945 L 303.88038803880386,84.68341318505568 L 300.5300530053005,84.10882459801654 L 299.32993299329934,82.43978155947424 L 298.82988298829883,75.9825002956057 L 297.0797079707971,69.7167485607502 L 287.6787678767877,51.74033419481108 L 286.8286828682868,49.49670256922964 L 286.3286328632863,46.81528916304694 L 286.028602860286,40.2212010927405 L 285.5285528552855,38.79841030578642 L 281.9281928192819,35.26879469968878 L 279.97799779978,32.423213125780606 L 278.7278727872787,30.070136055048852 L 276.8276827682768,28.483177100369293 L 272.77727772777274,27.908588513330145 L 270.32703270327033,26.978302229552472 L 268.7268726872687,24.844116049121343 L 267.9267926792679,21.834366307487702 L 268.026802680268,21.341861804311286 L 274.4274427442744,18.359473423965223 L 327.73277327732774,8.4272992765742 L 330.78307830783075,6.895063044469801 L 333.48334833483347,4.842960947901408 L 337.63376337633764,2.6540520448951215 L 341.3341334133413,2.052102096568393 L 342.78427842784276,4.569347335025622 L 338.78387838783874,8.482021999149358 L 329.98299829982994,11.354964934345107 L 313.031303130313,14.857219179155164 L 313.031303130313,16.30737132739683 L 319.18191819181914,14.474160121129065 L 325.8325832583258,13.270260224475608 L 325.8325832583258,14.857219179155164 L 324.1324132413241,16.14320315967136 L 321.5321532153215,19.289759707742896 L 320.08200820082004,20.657827772121824 L 317.43174317431743,22.107979920363487 L 315.58155815581557,22.381593533239272 L 299.02990299029904,20.603105049546667 L 293.17931793179315,21.971173113925595 L 291.8291829182918,21.369223165598864 L 290.32903290329034,21.615475417187074 L 288.7788778877888,22.40895489452685 L 287.4287428742874,23.530770707317572 L 289.97899789979,24.679947881395872 L 301.6301630163016,24.980922855559236 L 309.98099809980994,26.567881810238795 L 313.031303130313,26.567881810238795 L 319.8319831983198,25.17245238457229 L 322.28222822282225,24.980922855559236 L 323.8323832383238,23.99591384920641 L 327.2827282728273,17.866968920788807 L 331.033103310331,15.869589546795572 L 339.78397839783975,13.680680643789286 L 342.78427842784276,11.956914882671835 L 343.68436843684367,14.145823785678122 L 343.08430843084307,16.389455411259565 L 341.9341934193419,18.906700649716793 L 341.2341234123412,21.971173113925595 L 343.8343834383438,20.356852797958457 L 347.6847684768477,14.884580540442744 L 351.2351235123512,13.270260224475608 L 351.2351235123512,11.956914882671835 L 348.4348434843484,9.056610586188508 L 347.63476347634764,9.603837811940078 L 345.5845584558456,10.506762734430172 L 346.8846884688469,5.308104089790243 L 350.98509850985096,2.7361361287578574 L 356.2856285628563,2.5993293223199645 L 361.08610861086106,4.569347335025622 L 361.08610861086106,6.156306289705179 L 358.18581858185814,6.101583567130022 L 356.23562356235624,5.526994980090872 L 354.63546354635463,5.308104089790243 L 352.6352635263526,6.156306289705179 L 355.7855785578558,7.469651631508951 L 359.4359435943594,7.8527106895350505 L 366.88668866886684,7.606458437946843 L 365.93659365936594,9.768005979665551 L 363.4363436343634,13.215537501900451 L 362.6362636263626,14.857219179155164 L 366.3866386638664,12.203167134260044 L 368.88688868886885,8.153685663698415 L 368.58685868586855,4.897683670476565 L 363.9363936393639,4.569347335025622 L 363.9363936393639,3.25600199322185 L 366.9366936693669,2.5993293223199645 L 369.5369536953695,1.669043038542293 L 374.53745374537453,3.3107247157970074 L 393.63936393639364,0.3830590580261 L 411.4911491149115,1.8879339288429215 L 413.44134413441344,2.6540520448951215 z" /><path fill-rule="evenodd" fill="#D2EBD9" stroke="#A6A6A6" stroke-width="0.25" opacity="1" d="M 244.67446744674467,167.64306060899392 L 241.27412741274125,168.02611966702003 L 238.07380738073806,169.25738092496104 L 234.32343234323432,168.9564059507977 L 229.1229122912291,171.55573527311765 L 228.2228222822282,172.40393747303258 L 227.1227122712271,174.01825778899973 L 226.57265726572655,175.1947963243656 L 226.07260726072607,176.69967119518242 L 226.02260226022602,177.79412564668556 L 226.17261726172617,178.75177329175082 L 225.72257225722572,179.68205957552848 L 221.17211721172117,185.09960911046903 L 219.92199219921991,187.15171120703744 L 216.42164216421642,189.6415950842071 L 214.9214921492149,190.98230178729844 L 213.9213921392139,191.52952901305002 L 208.57085708570855,193.4721856644681 L 205.97059705970597,194.78553100627187 L 204.6204620462046,194.89497645142217 L 200.97009700970096,192.97968116129167 L 200.87008700870086,190.9275790647233 L 199.96999699969996,188.38297246497848 L 198.76987698769875,185.6741976975082 L 199.66996699669966,179.18955507235208 L 199.06990699069905,175.27688040822835 L 198.7198719871987,174.18242595672518 L 198.16981698169815,173.30686239552267 L 197.11971197119712,172.34921475045743 L 196.96969696969697,172.02087841500648 L 197.61976197619762,168.60070825405916 L 199.56995699569956,164.55122678349753 L 203.87038703870385,157.49199557130225 L 205.17051705170516,155.87767525533513 L 205.3205320532053,155.4125321134463 L 204.97049704970496,154.61905263610652 L 204.57045704570456,154.18127085550526 L 202.5202520252025,153.14153912657727 L 202.17021702170217,152.78584142983874 L 202.7202720272027,151.17152111387162 L 208.2208220822082,142.4979695857092 L 210.1210121012101,140.3364220439905 L 211.57115711571157,139.15988350862463 L 213.47134713471345,138.96835397961158 L 214.4214421442144,138.44848811514757 L 217.021702170217,134.61789753488657 L 217.87178717871785,133.71497261239648 L 218.67186718671866,133.16774538664492 L 219.2219221922192,133.00357721891945 L 219.57195719571956,132.4016272705927 L 219.77197719771976,131.47134098681505 L 219.4219421942194,126.90199365178943 L 219.7219721972197,125.86226192286144 L 223.3223322332233,119.02192160096679 L 224.3224322432243,117.76329898173817 L 225.12251225122512,115.5743900787319 L 225.32253225322532,109.1718315374385 L 234.37343734373437,105.83374546035392 L 237.97379737973796,103.91845017022342 L 241.87418741874185,102.6598275509948 L 243.47434743474346,102.82399571872028 L 244.37443744374437,103.15233205417123 L 245.12451245124512,104.5751228411253 L 245.9245924592459,105.23179551202719 L 249.07490749074907,105.72430001520361 L 250.17501750175015,106.1073590732297 L 251.6251625162516,106.95556127314464 L 255.67556755675565,110.95032002113112 L 256.6256625662566,112.6193630596734 L 257.3257325732573,115.60175144001947 L 261.0761076107611,125.67073239384838 L 253.97539753975397,127.64075040655405 L 252.07520752075206,128.7078434967696 L 251.87518751875186,129.25507072252117 L 250.57505750575055,131.279811457802 L 247.7247724772477,134.53581345102384 L 247.2247224722472,135.4934610960891 L 246.67466746674666,137.68236999909539 L 245.67456745674565,139.51558120536313 L 245.22452245224522,141.3487924116309 L 244.52445244524452,143.0178354501732 L 243.47434743474346,144.13965126296392 L 241.8241824182418,145.2888284370422 L 240.52405240524052,146.62953514013358 L 236.5236523652365,152.34805964923748 L 235.52355235523552,154.18127085550526 L 235.02350235023502,155.54933891988418 L 235.47354735473547,157.27310468100163 L 236.1236123612361,158.093945519629 L 239.32393239323932,160.0092408097595 L 240.77407740774075,161.404670235426 L 244.67446744674467,167.64306060899392 z" /><path fill-rule="evenodd" fill="#D2EBD9" stroke="#A6A6A6" stroke-width="0.25" opacity="1" d="M 200.97009700970096,192.97968116129167 L 195.26952695269526,190.35299047768413 L 192.9192919291929,190.9275790647233 L 190.01900190019,193.22593341287987 L 188.7188718871887,190.59924272927233 L 185.86858685868586,190.6266040905599 L 181.56815681568156,192.51453801940283 L 179.96799679967995,191.96731079365128 L 177.31773177317731,190.02465414223317 L 176.46764676467646,189.61423372291952 L 174.96749674967495,189.80576325193255 L 174.76747674767475,182.63708659458698 L 173.66736673667367,178.06773925956136 L 173.56735673567357,176.91856208548305 L 173.71737173717372,176.15244396943086 L 174.96749674967495,175.1947963243656 L 175.46754675467545,174.456039569601 L 177.1177117711771,170.92642396350334 L 178.26782678267827,169.01112867337284 L 180.1180118011801,167.97139694444485 L 181.8181818181818,167.47889244126844 L 184.96849684968495,167.56097652513117 L 186.7186718671867,167.15055610581751 L 189.26892689268925,165.53623578985037 L 189.66896689668965,164.74275631251058 L 189.1189118911891,163.3473268868441 L 188.76887688768875,161.89717473860242 L 188.6188618861886,161.7603679321645 L 187.06870687068707,161.8150906547397 L 186.5186518651865,161.6509224870142 L 186.1186118611861,161.29522479027568 L 185.9185918591859,160.58382939679865 L 184.86848684868485,148.7363599592771 L 184.56845684568455,147.53246006262367 L 184.36843684368435,147.03995555944724 L 182.86828682868287,146.35592152725778 L 182.01820182018201,145.75397157893104 L 181.36813681368136,144.96049210159129 L 180.96809680968096,143.9207603726633 L 180.7180718071807,142.90839000502288 L 180.3180318031803,139.21460623119978 L 179.86798679867985,137.57292455394506 L 179.2179217921792,136.0133269605531 L 178.8178817881788,134.04330894784744 L 178.61786178617862,130.6505001481877 L 178.41784178417842,129.7475752256976 L 178.26782678267827,129.20034799994602 L 176.8176817681768,126.51893459376332 L 175.9175917591759,123.8648825488682 L 176.017601760176,123.01668034895326 L 176.36763676367636,122.578898568352 L 177.56775677567757,122.36000767805137 L 178.61786178617862,121.01930097496003 L 178.41784178417842,118.91247615581648 L 178.56785678567857,116.88773542053566 L 179.06790679067905,115.90272641418284 L 180.56805680568056,114.39785154336602 L 181.5181518151815,111.08712682756901 L 181.9181918191819,110.48517687924227 L 185.3185318531853,108.5425202278242 L 186.56865686568656,107.50278849889621 L 187.96879687968797,105.66957729262845 L 188.16881688168814,104.84873645400108 L 188.11881188118812,104.21942514438679 L 186.91869186918692,101.7842639897923 L 186.96869686968697,101.12759131889041 L 187.41874187418742,100.63508681571399 L 188.96889688968895,99.86896869966179 L 189.2189218921892,99.37646419648537 L 188.8188818881888,98.47353927399529 L 188.36883688368835,98.14520293854434 L 187.91879187918792,94.94392366789765 L 188.3188318831883,86.16092669458493 L 188.2188218821882,85.50425402368305 L 186.91869186918692,82.13880658531087 L 186.46864686468646,80.33295674033069 L 186.5186518651865,78.5271068953505 L 189.8189818981898,73.1642800829851 L 190.96909690969096,70.64703484452788 L 191.3191319131913,70.2366144252142 L 191.76917691769177,69.99036217362598 L 193.019301930193,69.93563945105083 L 196.31963196319631,70.94800981869123 L 197.56975697569757,71.08481662512914 L 198.86988698869885,70.83856437354092 L 200.37003700370036,70.15453034135146 L 200.8200820082008,71.93301882504407 L 201.42014201420142,72.34343924435774 L 202.9202920292029,73.98512092161246 L 203.97039703970395,76.25611390848148 L 205.72057205720571,81.50949527569657 L 206.17061706170617,83.80784962385317 L 206.27062706270627,85.28536313338242 L 205.87058705870587,86.35245622359797 L 204.3204320432043,89.143315074931 L 203.7203720372037,90.83971947476086 L 203.3203320332033,92.7002920423162 L 203.4203420342034,93.68530104866903 L 203.7203720372037,94.34197371957092 L 204.7204720472047,94.69767141630945 L 206.02060206020602,94.61558733244671 L 209.3209320932093,93.54849424223114 L 210.57105710571057,93.41168743579325 L 211.62116211621162,94.20516691313303 L 217.8217821782178,102.11260032524324 L 225.32253225322532,109.1718315374385 L 225.12251225122512,115.5743900787319 L 224.3224322432243,117.76329898173817 L 223.3223322332233,119.02192160096679 L 219.7219721972197,125.86226192286144 L 219.4219421942194,126.90199365178943 L 219.77197719771976,131.47134098681505 L 219.57195719571956,132.4016272705927 L 219.2219221922192,133.00357721891945 L 218.67186718671866,133.16774538664492 L 217.87178717871785,133.71497261239648 L 217.021702170217,134.61789753488657 L 214.4214421442144,138.44848811514757 L 213.47134713471345,138.96835397961158 L 211.57115711571157,139.15988350862463 L 210.1210121012101,140.3364220439905 L 208.2208220822082,142.4979695857092 L 202.7202720272027,151.17152111387162 L 202.17021702170217,152.78584142983874 L 202.5202520252025,153.14153912657727 L 204.57045704570456,154.18127085550526 L 204.97049704970496,154.61905263610652 L 205.3205320532053,155.4125321134463 L 205.17051705170516,155.87767525533513 L 203.87038703870385,157.49199557130225 L 199.56995699569956,164.55122678349753 L 197.61976197619762,168.60070825405916 L 196.96969696969697,172.02087841500648 L 197.11971197119712,172.34921475045743 L 198.16981698169815,173.30686239552267 L 198.7198719871987,174.18242595672518 L 199.06990699069905,175.27688040822835 L 199.66996699669966,179.18955507235208 L 198.76987698769875,185.6741976975082 L 199.96999699969996,188.38297246497848 L 200.87008700870086,190.9275790647233 L 200.97009700970096,192.97968116129167 z" /></g></g></g></svg>