<svg xmlns="http://www.w3.org/2000/svg" xmlns:xlink="http://www.w3.org/1999/xlink" width="500.0" height="459.040557611268" viewBox="0.0 0.0 500.0 459.040557611268" preserveAspectRatio="xMinYMin meet"><g transform="matrix(1,0,0,-1,0,459.040557611268)"><g><g><path fill-rule="evenodd" fill="#D2EBD9" stroke="#A6A6A6" stroke-width="0.25" opacity="1" d="M 11.001100110011,100.03494099759507 L 7.350735073507351,97.83132595955718 L 7.45074507450745,97.37223949329928 L 7.050705070507051,96.82133573378981 L 6.900690069006901,95.35225904176455 L 6.5006500650065,93.65363911661034 L 5.2505250525052505,92.73546618409455 L 4.7004700470047,92.0927451313335 L 3.05030503050305,91.31229813869508 L 5.9005900590059,89.38413498041193 L 3.4003400340034,85.80326054360036 L 3.9003900390039004,85.06872219758773 L 6.05060506050605,83.59964550556246 L 6.35063506350635,79.42195866261564 L 8.000800080008,78.36605979022248 L 8.25082508250825,75.74926693255249 L 7.45074507450745,74.00473836077249 L 6.600660066006601,72.6733876086246 L 6.600660066006601,71.3420368564767 L 9.45094509450945,70.14841204420618 L 9.2009200920092,68.95478723193565 L 10.201020102010201,60.41577895953883 L 10.6010601060106,59.313971440519886 L 12.351235123512351,56.37581805646936 L 11.3011301130113,54.35583760493463 L 10.801080108010801,54.218111665057265 L 9.5009500950095,51.96858798039358 L 8.6008600860086,49.3058864760978 L 8.9008900890089,48.20407895707885 L 8.35083508350835,45.90864662578938 L 4.55045504550455,41.45550790308781 L 2.5502550255025502,38.42553722578571 L 3.5003500350035,38.79280639879203 L 5.1005100510051005,41.0882387300815 L 6.900690069006901,42.19004624910044 L 9.4009400940094,46.13818985891833 L 9.25092509250925,46.597276325176225 L 10.3010301030103,50.5913285816199 L 12.55125512551255,54.9067413644441 L 14.2014201420142,56.60536128959831 L 15.05150515051505,58.44170715462988 L 13.151315131513151,60.00260113990672 L 11.55115511551155,60.64532219266778 L 10.6010601060106,68.63342670555512 L 10.9010901090109,70.9288590368446 L 13.501350135013501,71.15840226997355 L 13.501350135013501,71.7552146761088 L 13.05130513051305,71.7552146761088 L 12.651265126512651,72.48975302212143 L 12.901290129012901,72.81111354850196 L 14.051405140514051,73.45383460126301 L 14.101410141014101,76.16244475218458 L 13.7013701370137,77.17243497795195 L 13.3013301330133,77.44788685770669 L 13.001300130013,77.49379550433248 L 12.55125512551255,77.17243497795195 L 12.15121512151215,77.35606956445511 L 11.95119511951195,78.2742424969709 L 12.45124512451245,78.77923760985458 L 12.45124512451245,79.1465067828609 L 10.75107510751075,81.57966505402773 L 10.4010401040104,82.63556392642089 L 9.8009800980098,85.80326054360036 L 9.2009200920092,86.35416430310983 L 7.25072507250725,86.4918902429872 L 7.200720072007201,86.85915941599352 L 8.8008800880088,87.8232409951351 L 9.15091509150915,88.60368798777351 L 9.2009200920092,89.43004362703772 L 9.000900090009,90.30230791292772 L 8.000800080008,92.87319212397192 L 8.000800080008,94.06681693624245 L 8.4008400840084,95.26044174851297 L 9.15091509150915,96.22452332765455 L 10.4010401040104,97.14269626017034 L 11.001100110011,97.87723460618297 L 11.25112511251125,98.70359024544717 L 11.001100110011,100.03494099759507 z" /><path fill-rule="evenodd" fill="#D2EBD9" stroke="#A6A6A6" stroke-width="0.25" opacity="1" d="M 29.2029202920292,208.70070756083854 L 32.503250325032504,208.4711643277096 L 34.2034203420342,209.25161132034802 L 35.9035903590359,208.24162109458064 L 40.45404540454045,208.51707297433538 L 41.2041204120412,208.8384335007159 L 41.9041904190419,209.57297184672854 L 42.154215421542155,210.44523613261853 L 42.204220422042205,212.18976470439853 L 42.45424542454245,212.92430305041117 L 44.004400440044,214.0261105694301 L 45.1045104510451,213.29157222341746 L 46.904690469046905,210.03205831298644 L 48.4048404840484,208.65479891421273 L 50.2050205020502,208.05798650807748 L 52.05520552055205,208.10389515470328 L 53.855385538553854,208.70070756083854 L 53.55535553555355,205.8084628234138 L 53.05530553055305,205.3952850037817 L 52.25522552255225,206.03800605654274 L 51.1051105110511,206.3593665829233 L 50.00500050005,205.67073688353645 L 49.85498549854985,204.5689293645175 L 49.95499549954995,203.2375786123696 L 49.6049604960496,201.81441056697014 L 48.154815481548155,200.6207857546996 L 46.1046104610461,199.51897823568066 L 44.8044804480448,198.18762748353276 L 45.804580458045805,196.3512816185012 L 46.2046204620462,196.2594643252496 L 48.054805480548055,196.8103680847591 L 50.255025502550254,196.90218537801067 L 52.3052305230523,196.7185507915075 L 53.35533553355335,196.3512816185012 L 53.855385538553854,194.83629627985013 L 54.6054605460546,193.64267146757962 L 55.6055605560556,192.8163158283154 L 56.85568556855685,192.26541206880594 L 57.95579557955795,190.88815267003224 L 58.505850585058504,190.52088349702595 L 59.05590559055905,190.7045180835291 L 60.25602560256025,189.8781624442649 L 60.65606560656065,189.05180680500067 L 60.6060606060606,188.0418165792333 L 60.35603560356035,186.57273988720806 L 59.6059605960596,185.01184590193122 L 59.55595559555955,184.27730755591858 L 59.755975597559754,183.54276920990594 L 61.75617561756175,180.55870717922966 L 62.55625562556255,179.68644289333963 L 63.1063106310631,179.4568996602107 L 64.1064106410641,179.36508236695911 L 64.5064506450645,178.67645266757228 L 64.35643564356435,177.48282785530176 L 63.05630563056305,175.32512146388964 L 63.406340634063405,173.58059289210965 L 63.9063906390639,172.29515078658756 L 65.75657565756575,170.45880492155598 L 66.15661566156615,169.58654063566598 L 67.65676567656766,170.04562710192388 L 69.5069506950695,171.10152597431704 L 70.7070707070707,171.33106920744598 L 72.85728572857285,171.2851605608202 L 74.15741574157416,170.50471356818176 L 80.15801580158015,169.81608386879492 L 82.95829582958295,171.37697785407175 L 85.25852585258525,172.06560755345862 L 86.15861586158616,172.1115162000844 L 86.60866086608661,171.74424702707807 L 87.8087808780878,169.86199251542072 L 90.5090509050905,166.69429589824125 L 91.65916591659166,165.04158461971284 L 93.009300930093,163.61841657431336 L 96.15961596159616,158.47664815222495 L 97.4097409740974,156.04348988105812 L 98.009800980098,155.58440341480022 L 98.50985098509851,154.66623048228442 L 101.11011101110111,152.32488950436917 L 101.96019601960195,151.68216845160813 L 109.8109810981098,147.13721243565496 L 110.9110911091109,146.81585190927444 L 113.2113211321132,146.9994864957776 L 114.71147114711471,146.49449138289393 L 115.11151115111511,146.17313085651338 L 116.1116111611161,143.87769852522393 L 120.01200120012001,137.4504879976134 L 121.7121712171217,136.2568631853429 L 127.7127712771277,130.1969218307387 L 129.76297629762976,128.819662431965 L 137.013701370137,122.07109137797397 L 138.2138213821382,119.54611581355556 L 138.36383638363836,118.76566882091713 L 139.56395639563956,115.64388085036346 L 144.61446144614462,108.75758385649505 L 149.71497149714972,104.80944024667716 L 152.56525652565256,103.06491167489716 L 153.71537153715371,102.55991656201348 L 158.56585658565857,101.32038310311717 L 159.51595159515952,100.90720528348507 L 161.9161916191619,99.0708594184535 L 164.16641664166417,97.64769137305402 L 194.8194819481948,73.08656542825669 L 229.27292729272926,94.7095379890035 L 334.38343834383437,157.97165303934128 L 279.62796279627963,236.79679929582164 L 278.977897789779,238.17405869459532 L 278.9278927892789,239.1381402737369 L 279.3779377937794,245.28989892159268 L 279.12791279127913,246.16216320748268 L 274.37743774377435,256.30797411178213 L 271.97719771977194,259.33794478908425 L 264.4264426442644,265.5356120835658 L 222.47224722472245,276.82913915350997 L 200.4200420042004,278.57366772528997 L 193.76937693769375,277.79322073265155 L 193.86938693869385,276.18641810074894 L 193.6193619361936,265.90288125657213 L 193.26932693269325,264.38789591792107 L 192.46924692469247,262.5056414062637 L 189.9189918991899,258.41977185656845 L 189.26892689268925,256.81296922466584 L 189.06890689068905,256.0784308786532 L 188.96889688968895,254.51753689337633 L 189.36893689368935,251.44165756944844 L 188.56885688568855,250.52348463693266 L 178.66786678667864,246.11625456085687 L 175.36753675367535,243.22400982343214 L 175.06750675067505,242.85674065042585 L 174.8174817481748,241.52538989827795 L 174.26742674267425,240.8367601988911 L 173.41734173417342,238.90859704060796 L 173.31733173317332,237.02634252895058 L 172.66726672667266,235.3277226037964 L 171.2171217121712,233.67501132526795 L 170.46704670467045,233.35365079888743 L 170.01700170017,233.30774215226165 L 169.6169616961696,233.76682861851953 L 165.5165516551655,239.04632298048531 L 160.2160216021602,243.4076444099353 L 159.8159815981598,244.05036546269636 L 159.51595159515952,246.25398050073426 L 159.01590159015902,248.1821436590174 L 158.41584158415841,248.87077335840425 L 158.06580658065806,249.74303764429425 L 157.46574657465746,250.61530193018424 L 156.6156615661566,251.07438839644215 L 154.41544154415442,251.2580229829453 L 153.81538153815382,251.6712008025774 L 152.46524652465246,253.09436884797688 L 151.6151615161516,253.50754666760898 L 145.06450645064507,252.03846997558372 L 141.56415641564155,250.7989365166874 L 139.1139113911391,250.43166734368108 L 136.3136313631363,248.50350418539793 L 134.3134313431343,247.3557880197532 L 133.8133813381338,246.8048842602437 L 133.46334633463346,245.88671132772794 L 133.3133313331333,242.25992824429056 L 133.8133813381338,240.23994779275583 L 133.7133713371337,239.73495267987215 L 133.3133313331333,239.27586621361425 L 132.16321632163215,239.32177486024005 L 131.66316631663165,239.551318093369 L 130.76307630763077,241.11221207864583 L 130.21302130213022,241.43357260502637 L 127.96279627962795,241.52538989827795 L 126.56265626562656,241.38766395840057 L 124.26242624262426,240.3317650860074 L 123.56235623562355,240.3776737326332 L 122.11221122112211,241.15812072527163 L 121.7121712171217,241.15812072527163 L 121.06210621062105,240.4694910258848 L 120.9120912091209,239.50540944674322 L 120.76207620762075,239.41359215349163 L 118.5118511851185,239.64313538662057 L 117.9117911791179,239.36768350686583 L 117.36173617361736,237.89860681484058 L 116.46164616461645,236.88861658907322 L 116.011601160116,235.2359053105448 L 115.06150615061506,234.317732378029 L 114.5114511451145,234.27182373140323 L 113.6113611361136,234.50136696453217 L 112.71127112711271,234.96045343079007 L 111.86118611861185,236.61316470931848 L 111.46114611461145,237.07225117557638 L 110.66106610661066,237.53133764183426 L 110.06100610061006,237.53133764183426 L 107.4107410741074,235.74090042342849 L 107.16071607160715,235.41953989704797 L 107.06070607060705,234.91454478416426 L 106.8106810681068,234.7309101976611 L 104.66046604660465,235.92453500993165 L 103.96039603960395,235.97044365655742 L 103.46034603460346,235.6490831301769 L 102.66026602660266,234.54727561115797 L 100.1100110011001,233.9963718516485 L 95.90959095909591,230.64504064796586 L 93.85938593859386,229.86459365532744 L 92.009200920092,234.04228049827427 L 89.65896589658965,238.77087110073057 L 89.30893089308931,239.27586621361425 L 88.15881588158815,240.23994779275583 L 86.45864586458646,240.60721696576215 L 85.5085508550855,240.3776737326332 L 84.05840584058406,239.50540944674322 L 83.008300830083,239.4595008001174 L 82.10821082108211,239.1381402737369 L 81.1081108110811,238.17405869459532 L 80.8080808080808,238.08224140134374 L 76.8076807680768,237.806789521589 L 76.2076207620762,237.89860681484058 L 69.55695569556956,234.59318425778375 L 65.9065906590659,234.7309101976611 L 64.2064206420642,234.3636410246548 L 62.85628562856285,233.62910267864217 L 62.056205620562054,233.72091997189375 L 61.35613561356135,234.04228049827427 L 60.956095609560954,234.50136696453217 L 60.8060806080608,235.41953989704797 L 60.45604560456045,235.6490831301769 L 59.55595559555955,235.74090042342849 L 59.5059505950595,236.38362147618955 L 60.056005600560056,237.30179440870532 L 60.056005600560056,237.66906358171164 L 59.755975597559754,238.17405869459532 L 59.2059205920592,238.44951057435006 L 58.005800580058,238.2658759878469 L 57.655765576557656,238.03633275471796 L 56.455645564556455,236.24589553631216 L 54.6054605460546,234.18000643815165 L 54.6054605460546,232.61911245287482 L 53.905390539053904,231.51730493385585 L 53.805380538053804,230.27777147495954 L 52.955295529552956,229.1759639559406 L 52.3052305230523,229.03823801606322 L 50.00500050005,229.54323312894692 L 49.254925492549255,230.59913200134008 L 48.4048404840484,230.73685794121744 L 47.954795479547954,230.59913200134008 L 46.904690469046905,229.1759639559406 L 46.35463546354635,228.8546034295601 L 45.704570457045705,229.45141583569534 L 44.7044704470447,230.82867523446902 L 44.05440544054405,231.15003576084953 L 44.05440544054405,231.51730493385585 L 44.85448544854485,232.43547786637166 L 44.3044304430443,233.5372853853906 L 42.35423542354235,232.84865568600375 L 41.8041804180418,232.34366057312008 L 41.55415541554155,231.74684816698482 L 41.35413541354135,230.5073147080885 L 41.5041504150415,229.31368989581796 L 41.35413541354135,228.2577910234248 L 39.15391539153915,226.23781057189007 L 37.65376537653765,224.4014647068585 L 36.55365536553655,223.80465230072323 L 34.8034803480348,221.4174026761822 L 29.65296529652965,212.09794741114695 L 29.2029202920292,208.70070756083854 z" /><path fill-rule="evenodd" fill="#D2EBD9" stroke="#A6A6A6" stroke-width="0.25" opacity="1" d="M 15.601560156015601,266.6374196025847 L 17.25172517251725,263.2860883989021 L 17.95179517951795,260.8070214811095 L 16.351635163516352,259.20021884920686 L 12.85128512851285,253.7370899007379 L 12.351235123512351,252.63528238171898 L 12.351235123512351,248.2280523056432 L 13.3013301330133,244.64717786883162 L 12.901290129012901,243.22400982343214 L 12.301230123012301,242.62719741729688 L 11.3011301130113,240.65312561238795 L 11.5011501150115,240.0104045596269 L 11.701170117011701,239.87267861974954 L 11.3011301130113,239.41359215349163 L 11.3011301130113,238.77087110073057 L 11.751175117511751,238.21996734122112 L 11.85118511851185,237.57724628846006 L 11.751175117511751,236.934525235699 L 11.3011301130113,236.33771282956374 L 11.25112511251125,235.92453500993165 L 10.801080108010801,235.6490831301769 L 13.201320132013201,229.1300553093148 L 13.9013901390139,226.28371921851587 L 15.45154515451545,223.4373831277169 L 15.45154515451545,219.718782751028 L 15.601560156015601,218.89242711176377 L 16.351635163516352,217.5610763596159 L 16.851685168516852,215.08200944182326 L 18.2018201820182,212.2815819976501 L 18.5018501850185,210.5829620724959 L 19.5019501950195,210.5829620724959 L 20.15201520152015,210.39932748599273 L 20.7020702070207,210.1697842528638 L 22.002200220022,209.06797673384486 L 23.65236523652365,208.60889026758696 L 25.35253525352535,208.56298162096115 L 27.35273527352735,208.8384335007159 L 29.2029202920292,208.70070756083854 L 29.65296529652965,212.09794741114695 L 34.8034803480348,221.4174026761822 L 36.55365536553655,223.80465230072323 L 37.65376537653765,224.4014647068585 L 39.15391539153915,226.23781057189007 L 41.35413541354135,228.2577910234248 L 41.5041504150415,229.31368989581796 L 41.35413541354135,230.5073147080885 L 41.55415541554155,231.74684816698482 L 41.8041804180418,232.34366057312008 L 42.35423542354235,232.84865568600375 L 44.3044304430443,233.5372853853906 L 43.65436543654365,234.59318425778375 L 41.45414541454145,236.24589553631216 L 40.35403540354035,239.50540944674322 L 39.2039203920392,239.87267861974954 L 36.35363536353635,239.5972267399948 L 35.103510351035105,239.64313538662057 L 31.6031603160316,240.3317650860074 L 31.053105310531052,242.81083200380004 L 31.853185318531853,243.31582711668372 L 32.603260326032604,243.36173576330953 L 33.65336533653365,243.17810117680636 L 34.903490349034904,243.91263952281898 L 36.203620362036204,244.23400004919952 L 36.65366536653665,244.60126922220584 L 38.003800380038,244.784903808709 L 39.603960396039604,246.16216320748268 L 40.1040104010401,247.03442749337268 L 40.7040704070407,249.146225238159 L 40.7040704070407,250.56939328355844 L 39.803980398039805,263.1483624590247 L 36.9036903690369,264.57153050442423 L 35.9035903590359,264.6633477976758 L 34.003400340034,263.65335757190843 L 22.7022702270227,262.7810932860184 L 22.202220222022202,262.9188192258958 L 20.00200020002,264.80107373755317 L 18.85188518851885,265.5356120835658 L 15.601560156015601,266.6374196025847 z" /><path fill-rule="evenodd" fill="#D2EBD9" stroke="#A6A6A6" stroke-width="0.25" opacity="1" d="M 66.15661566156615,169.58654063566598 L 64.05640564056405,167.15338236449915 L 62.306230623062305,164.21522898044861 L 58.95589558955895,161.32298424302388 L 57.505750575057505,159.4866383779923 L 57.05570557055705,158.2011962724702 L 56.9056905690569,157.09938875345128 L 56.505650565056506,156.27303311418706 L 55.255525552555255,155.6762207080518 L 54.25542554255425,155.630312061426 L 52.605260526052604,156.22712446756128 L 51.755175517551756,156.27303311418706 L 50.15501550155015,155.49258612154864 L 47.65476547654765,152.2789808577434 L 44.7044704470447,149.6621880000734 L 43.5043504350435,148.19311130804812 L 42.45424542454245,146.5863086761455 L 40.854085408540854,143.32679476571445 L 41.004100410041005,143.00543423933394 L 41.45414541454145,142.13316995344394 L 41.95419541954195,141.58226619393446 L 44.15441544154415,139.83773762215446 L 47.1047104710471,139.3327425092708 L 48.4048404840484,138.55229551663237 L 48.55485548554855,136.670041004975 L 47.65476547654765,135.47641619270448 L 46.2046204620462,135.2468729595755 L 43.354335433543355,135.93550265896235 L 39.5039503950395,137.81775717061973 L 38.2038203820382,138.09320905037447 L 37.05370537053705,137.63412258411657 L 34.8034803480348,136.07322859883973 L 33.25332533253325,136.02731995221393 L 32.653265326532654,136.39458912522025 L 31.653165316531652,137.63412258411657 L 31.153115311531153,137.9095744638713 L 28.5028502850285,136.2568631853429 L 27.15271527152715,135.66005077920764 L 24.552455245524552,134.83369513994342 L 22.802280228022802,131.8955417558929 L 20.35203520352035,129.7837440111066 L 19.301930193019302,128.22285002582976 L 18.85188518851885,127.21285980006238 L 17.451745174517452,125.92741769454028 L 16.901690169016902,125.10106205527607 L 16.8016801680168,124.36652370926343 L 17.001700170017,122.71381243073502 L 16.8016801680168,121.84154814484502 L 16.45164516451645,121.52018761846449 L 15.5015501550155,121.15291844545818 L 15.2015201520152,120.83155791907765 L 14.9014901490149,118.9033947607945 L 15.901590159015901,118.26067370803345 L 17.551755175517552,117.93931318165292 L 19.301930193019302,116.97523160251134 L 20.35203520352035,116.65387107613083 L 21.75217521752175,115.96524137674398 L 23.002300230023,115.04706844422819 L 23.65236523652365,114.03707821846082 L 23.452345234523452,112.33845829330662 L 22.252225222522252,111.00710754115873 L 20.75207520752075,109.95120866876557 L 19.301930193019302,109.30848761600453 L 17.551755175517552,109.30848761600453 L 15.75157515751575,108.75758385649505 L 14.9014901490149,107.56395904422452 L 15.95159515951595,105.72761317919294 L 14.75147514751475,102.83536844176822 L 12.4012401240124,100.86129663685928 L 11.001100110011,100.03494099759507 L 11.25112511251125,98.70359024544717 L 11.001100110011,97.87723460618297 L 10.4010401040104,97.14269626017034 L 9.15091509150915,96.22452332765455 L 8.4008400840084,95.26044174851297 L 8.000800080008,94.06681693624245 L 8.000800080008,92.87319212397192 L 9.000900090009,90.30230791292772 L 12.901290129012901,88.09869287488982 L 12.001200120012001,86.4918902429872 L 11.701170117011701,85.06872219758773 L 11.85118511851185,84.19645791169773 L 12.5012501250125,82.91101580617563 L 12.651265126512651,82.86510715954984 L 12.85128512851285,83.09465039267879 L 13.151315131513151,84.01282332519457 L 13.801380138013801,84.38009249820088 L 17.551755175517552,83.8750973853172 L 18.051805180518052,83.55373685893667 L 18.051805180518052,80.70740076813773 L 17.9017901790179,79.69741054237036 L 19.75197519751975,78.87105490310616 L 20.75207520752075,77.4019782110809 L 21.25212521252125,77.26425227120353 L 23.1023102310231,77.31016091782932 L 23.85238523852385,77.58561279758406 L 25.55255525552555,79.00878084298353 L 31.853185318531853,79.60559324911878 L 32.95329532953295,80.20240565525405 L 36.103610361036104,81.25830452764721 L 36.8036803680368,81.62557370065352 L 37.75377537753775,83.78328009206562 L 37.75377537753775,84.47190979145246 L 37.503750375037505,85.43599137059404 L 37.6037603760376,86.12462106998088 L 38.2038203820382,87.27233723562561 L 38.453845384538454,87.41006317550298 L 38.9038903890389,87.08870264912245 L 39.853985398539855,85.57371731047141 L 41.35413541354135,84.56372708470404 L 41.7041704170417,82.91101580617563 L 42.104210421042104,82.63556392642089 L 44.15441544154415,82.26829475341458 L 44.95449544954495,80.98285264789247 L 46.5046504650465,79.78922783562194 L 48.45484548454845,79.19241542948669 L 49.45494549454945,79.1005981362351 L 49.9049904990499,79.46786730924143 L 50.05500550055005,80.79921806138931 L 50.405040504050405,81.48784776077615 L 52.655265526552654,83.55373685893667 L 56.7056705670567,86.0787124233551 L 57.355735573557354,86.85915941599352 L 58.605860586058604,87.73142370188351 L 59.15591559155915,87.7773323485093 L 59.705970597059704,87.18051994237403 L 60.55605560556055,84.97690490433615 L 63.356335633563354,81.62557370065352 L 63.706370637063706,78.73332896322879 L 82.7082708270827,81.48784776077615 L 84.45844584458446,79.74331918899615 L 85.1085108510851,79.23832407611248 L 87.3087308730873,78.04469926384195 L 88.35883588358836,76.89698309819721 L 88.70887088708871,76.34607933868774 L 88.90889088908891,74.96881993991406 L 89.20892089208921,74.41791618040459 L 91.85918591859185,71.7552146761088 L 92.1092109210921,71.3420368564767 L 92.45924592459245,70.28613798408354 L 92.55925592559255,69.13842181843881 L 92.95929592959295,68.31206617917461 L 94.75947594759475,67.0266240736525 L 96.5096509650965,66.84298948714934 L 101.4101410141014,65.78709061475618 L 101.9101910191019,65.46573008837566 L 103.7103710371037,64.18028798285356 L 103.96039603960395,63.44574963684093 L 103.86038603860385,62.894845877331456 L 104.06040604060405,61.88485565156409 L 104.9104910491049,60.92077407242251 L 105.26052605260526,60.14032707978409 L 105.76057605760576,59.58942332027462 L 105.91059105910591,59.038519560765145 L 109.7109710971097,56.83490452272726 L 110.71107110711071,56.37581805646936 L 111.9111911191119,56.97263046260463 L 114.06140614061405,56.88081316935305 L 115.26152615261526,56.51354399634673 L 116.1116111611161,55.457645123953576 L 116.36163616361635,54.86083271781831 L 116.56165616561655,53.988568431928314 L 116.96169616961696,49.53542970922675 L 117.26172617261726,49.03043459634306 L 127.46274627462745,38.70098910554045 L 131.16311631163114,35.99237895461888 L 133.1133113311331,33.60512933007783 L 175.3175317531753,60.78304813254514 L 194.8194819481948,73.08656542825669 L 164.16641664166417,97.64769137305402 L 161.9161916191619,99.0708594184535 L 159.51595159515952,100.90720528348507 L 158.56585658565857,101.32038310311717 L 153.71537153715371,102.55991656201348 L 152.56525652565256,103.06491167489716 L 149.71497149714972,104.80944024667716 L 144.61446144614462,108.75758385649505 L 139.56395639563956,115.64388085036346 L 138.36383638363836,118.76566882091713 L 138.2138213821382,119.54611581355556 L 137.013701370137,122.07109137797397 L 129.76297629762976,128.819662431965 L 127.7127712771277,130.1969218307387 L 121.7121712171217,136.2568631853429 L 120.01200120012001,137.4504879976134 L 116.1116111611161,143.87769852522393 L 115.11151115111511,146.17313085651338 L 114.71147114711471,146.49449138289393 L 113.2113211321132,146.9994864957776 L 110.9110911091109,146.81585190927444 L 109.8109810981098,147.13721243565496 L 101.96019601960195,151.68216845160813 L 101.11011101110111,152.32488950436917 L 98.50985098509851,154.66623048228442 L 98.009800980098,155.58440341480022 L 97.4097409740974,156.04348988105812 L 96.15961596159616,158.47664815222495 L 93.009300930093,163.61841657431336 L 91.65916591659166,165.04158461971284 L 90.5090509050905,166.69429589824125 L 87.8087808780878,169.86199251542072 L 86.60866086608661,171.74424702707807 L 86.15861586158616,172.1115162000844 L 85.25852585258525,172.06560755345862 L 82.95829582958295,171.37697785407175 L 80.15801580158015,169.81608386879492 L 74.15741574157416,170.50471356818176 L 72.85728572857285,171.2851605608202 L 70.7070707070707,171.33106920744598 L 69.5069506950695,171.10152597431704 L 67.65676567656766,170.04562710192388 L 66.15661566156615,169.58654063566598 z M 43.85438543854385,112.0170977669261 L 45.95459545954595,111.83346318042294 L 47.15471547154715,110.18075190189452 L 47.25472547254725,107.51805039759874 L 46.55465546554655,105.5439785926898 L 44.85448544854485,103.79945002090979 L 44.554455445544555,102.69764250189085 L 43.154315431543154,102.97309438164558 L 38.603860386038605,105.26852671293506 L 36.9036903690369,104.12081054729032 L 36.5036503650365,105.0389834798061 L 38.1038103810381,106.69169475833452 L 36.303630363036305,107.60986769085031 L 35.103510351035105,107.42623310434716 L 34.55345534553455,109.07894438287558 L 37.453745374537455,110.6857470147782 L 39.703970397039704,110.77756430802978 L 43.85438543854385,112.0170977669261 z" /><path fill-rule="evenodd" fill="#D2EBD9" stroke="#A6A6A6" stroke-width="0.25" opacity="1" d="M 419.6919691969197,293.4480692320457 L 422.24222422242224,297.25848690198626 L 423.3923392339234,300.0589143461594 L 423.84238423842385,302.9511590835841 L 423.4923492349235,315.71376284555356 L 423.14231423142314,318.7437335228557 L 422.34223422342234,321.727795553532 L 414.59145914591454,338.8976293915772 L 414.2914291429143,340.50443202347986 L 414.2914291429143,342.0653260087567 L 416.69166916691665,365.4328271412835 L 417.3417341734173,367.9578027057019 L 423.9423942394239,380.9499497008003 L 425.49254925492545,383.0617474455866 L 427.69276927692766,384.07173767135396 L 432.54325432543254,384.8980933106182 L 455.89558955895586,389.8562271462034 L 457.9457945794579,390.820308725345 L 459.8959895989599,392.5189286504992 L 492.79927992799276,427.82267790573127 L 497.64976497649764,432.459451214936 L 500.0,434.24988843334177 L 500.0,435.62714783211544 L 498.4998499849985,438.7489358026691 L 498.2998299829983,442.7429880591128 L 496.84968496849683,444.5334252775186 L 498.1998199819982,449.8129196394844 L 497.6997699769977,451.0065444517549 L 494.6494649464946,453.34788542967016 L 493.59935993599356,455.2760485879533 L 493.1493149314931,455.4137745278307 L 491.7491749174917,454.26605836218596 L 489.44894489448944,455.4137745278307 L 488.44884488448844,455.551500467708 L 488.3988398839884,457.9846587388749 L 487.54875487548753,459.040557611268 L 486.1486148614861,457.9387500922491 L 485.048504850485,457.296029039488 L 481.29812981298124,452.291986557277 L 475.6475647564756,446.92067490205966 L 472.3472347234723,444.9466030971507 L 432.54325432543254,435.5353305388639 L 411.64116411641163,434.52534031309654 L 410.04100410041,434.93851813272863 L 406.6406640664066,436.3157775315023 L 388.7388738873887,439.9425606149397 L 374.63746374637464,437.87667151677914 L 370.9370937093709,436.40759482475386 L 360.88608860886086,430.8526485830334 L 357.4357435743574,429.842658357266 L 355.6855685568557,429.7508410640144 L 354.0854085408541,429.3835718910081 L 352.48524852485247,428.78675948487285 L 335.6335633563356,417.53914106155446 L 332.8332833283328,416.20779030940656 L 330.03300330033,415.70279519652286 L 327.33273327332734,414.7387136173813 L 319.8319831983198,410.2855748946797 L 303.7303730373037,404.1797248934497 L 279.42794279427943,399.4970429376192 L 281.17811781178114,394.21754857565344 L 281.8281828182818,392.7025632370024 L 285.6285628562856,387.7444294014171 L 286.67866786678667,386.87216511552714 L 287.3287328732873,386.5508045891466 L 288.8788878887889,386.32126135601766 L 290.22902290229024,386.45898729589504 L 292.029202920292,387.1017083486561 L 293.07930793079305,387.1935256419077 L 300.3300330033003,384.20946361123134 L 305.030503050305,381.5926707535614 L 305.8305830583058,380.76631511429713 L 306.3306330633063,379.9858681216587 L 306.6806680668067,378.10361361000133 L 308.2808280828083,374.4309218799382 L 313.9313931393139,365.11146661490295 L 323.28232823282326,355.4706508234872 L 379.58795879587956,300.2884575792884 L 381.988198819882,298.86528953388887 L 383.3883388338834,298.22256848112784 L 388.038803880388,297.2125782553605 L 390.7390739073907,296.2025880295931 L 396.48964896489645,295.00896321732256 L 411.2411241124112,294.64169404431624 L 419.6919691969197,293.4480692320457 z" /><path fill-rule="evenodd" fill="#D2EBD9" stroke="#A6A6A6" stroke-width="0.25" opacity="1" d="M 279.42794279427943,399.4970429376192 L 264.2264226422642,396.60479820019447 L 260.1760176017602,396.4211636136913 L 248.62486248624862,400.3233985768834 L 244.72447244724472,400.0479466971287 L 243.07430743074306,399.5888602308708 L 230.82308230823082,398.99204782473555 L 225.57255725572557,399.68067752412236 L 220.97209720972097,402.06792714866344 L 218.8218821882188,404.36335947995286 L 219.8219821982198,399.81840346399974 L 219.6219621962196,398.76250459160656 L 219.2219221922192,397.93614895234236 L 218.47184718471846,397.3852451928329 L 214.4214421442144,396.74252414007185 L 214.17141714171416,396.60479820019447 L 214.1214121412141,395.27344744804657 L 214.77147714771476,392.84028917687976 L 215.021502150215,392.33529406399606 L 215.52155215521552,392.0139335376155 L 216.17161716171617,392.0139335376155 L 216.77167716771675,392.2434767707445 L 219.87198719871986,394.6766350419113 L 220.52205220522052,394.7225436885371 L 221.07210721072107,394.4470918087824 L 221.27212721272127,394.21754857565344 L 221.5221522152215,393.2075583498861 L 221.37213721372137,386.9639824087787 L 219.92199219921991,378.3790654897561 L 219.4219421942194,376.7722628578535 L 218.5218521852185,374.8900083461961 L 215.67156715671567,370.5745955633719 L 214.07140714071406,368.96779293146926 L 209.17091709170916,365.52464443453505 L 203.020302030203,362.0814959376009 L 190.56905690569056,360.01560683944035 L 187.76877687768777,359.92378954618874 L 185.7185718571857,359.37288578667926 L 182.61826182618262,357.8119918014024 L 180.9180918091809,356.7560929290093 L 180.1180118011801,355.8838286431193 L 178.61786178617862,353.4047617253267 L 177.66776677667767,351.20114668728877 L 175.7175717571757,348.0334500701093 L 175.46754675467545,346.7020993179614 L 175.86758675867586,344.0853064602914 L 176.76767676767676,341.2848790161183 L 177.46774677467747,339.9535282639704 L 180.2180218021802,336.64810570691355 L 181.2181218121812,334.90357713513356 L 184.2184218421842,332.4245102173409 L 184.5184518451845,331.96542375108305 L 184.6184618461846,331.46042863819935 L 184.5184518451845,330.450438412432 L 183.21832183218322,326.961381268872 L 181.2181218121812,324.6659489375825 L 177.76777677767777,319.79963239524886 L 177.06770677067706,318.6519162296041 L 174.96749674967495,313.5101478075157 L 173.06730673067307,305.10886547499626 L 172.61726172617261,301.8493515645652 L 172.66726672667266,300.9311786320494 L 173.16731673167317,299.5998278799015 L 174.26742674267425,298.1307511878762 L 188.7188718871887,282.70544592161104 L 191.71917191719172,280.45592223694734 L 192.56925692569257,279.53774930443154 L 193.76937693769375,277.79322073265155 L 200.4200420042004,278.57366772528997 L 222.47224722472245,276.82913915350997 L 264.4264426442644,265.5356120835658 L 296.3296329632963,312.45424893512256 L 296.9296929692969,313.6478737473931 L 293.6293629362936,315.621945552302 L 293.6293629362936,316.5860271314436 L 294.4294429442944,322.3246079596673 L 306.6806680668067,378.10361361000133 L 306.3306330633063,379.9858681216587 L 305.8305830583058,380.76631511429713 L 305.030503050305,381.5926707535614 L 300.3300330033003,384.20946361123134 L 293.07930793079305,387.1935256419077 L 292.029202920292,387.1017083486561 L 290.22902290229024,386.45898729589504 L 288.8788878887889,386.32126135601766 L 287.3287328732873,386.5508045891466 L 286.67866786678667,386.87216511552714 L 285.6285628562856,387.7444294014171 L 281.8281828182818,392.7025632370024 L 281.17811781178114,394.21754857565344 L 279.42794279427943,399.4970429376192 z" /><path fill-rule="evenodd" fill="#D2EBD9" stroke="#A6A6A6" stroke-width="0.25" opacity="1" d="M 218.8218821882188,404.36335947995286 L 210.87108710871087,412.76464181247235 L 207.12071207120712,414.8305309106329 L 192.86928692869287,419.14594369345707 L 187.91879187918792,419.7886647462181 L 185.36853685368536,419.5132128664634 L 180.3180318031803,417.53914106155446 L 171.66716671667166,412.0301034664597 L 169.56695669566955,411.43329106032445 L 157.5157515751575,405.9242534652297 L 145.06450645064507,403.26155196093396 L 140.51405140514052,401.1956628627734 L 129.46294629462946,394.07982263577605 L 126.3126312631263,394.07982263577605 L 114.1114111411141,396.32934632043975 L 112.46124612461246,396.23752902718815 L 107.66076607660766,394.99799556829186 L 106.26062606260625,395.181630154795 L 105.010501050105,395.54889932780134 L 103.76037603760375,395.6407166210529 L 102.36023602360235,394.99799556829186 L 101.21012101210121,393.80437075602134 L 100.61006100610061,392.9321064701313 L 99.9099909990999,392.74847188362816 L 98.40984098409841,393.5748275228924 L 97.009700970097,394.8143609817887 L 96.75967596759675,395.91616850080766 L 97.4097409740974,398.90023053148394 L 97.3097309730973,400.8743023363929 L 96.7096709670967,402.06792714866344 L 93.25932593259326,405.28153241246866 L 91.85918591859185,406.10788805173286 L 90.35903590359035,406.70470045786817 L 88.90889088908891,407.02606098424866 L 84.15841584158416,407.3474215106292 L 70.25702570257026,412.21373805296287 L 68.85688568856885,412.25964669958864 L 69.1069106910691,409.96421436829917 L 68.25682568256825,408.1278685032676 L 67.05670567056706,406.4751572247392 L 66.1066106610661,404.63881135970763 L 65.45654565456546,398.90023053148394 L 64.55645564556455,396.6966154934461 L 63.556355635563555,392.74847188362816 L 63.606360636063606,388.57078504068136 L 63.256325632563254,384.5308241376119 L 61.006100610061004,380.9499497008003 L 60.7060706070607,379.5726903020266 L 60.906090609060904,378.0117963167498 L 62.306230623062305,372.9159365412872 L 62.7062706270627,372.2273068419003 L 63.256325632563254,371.76822037564244 L 64.8064806480648,370.9418647363782 L 65.35653565356536,369.7023312774819 L 65.45654565456546,368.18734593883084 L 64.55645564556455,365.93782225416714 L 64.2064206420642,365.89191360754137 L 64.95649564956496,365.1573752615287 L 67.40674067406741,364.881923381774 L 68.65686568656865,364.42283691551614 L 69.55695569556956,363.36693804312296 L 70.45704570457045,363.87193315600666 L 73.05730573057305,364.42283691551614 L 75.5075507550755,364.42283691551614 L 75.9075907590759,364.56056285539347 L 77.45774577457745,365.75418766766404 L 78.35783578357835,365.8460049609156 L 78.9078907890789,365.11146661490295 L 79.15791579157916,363.3210293964972 L 79.55795579557956,362.54058240385876 L 81.85818581858186,360.33696736582084 L 83.85838583858386,357.8119918014024 L 84.15841584158416,357.1692707486414 L 84.15841584158416,356.6642756357577 L 83.6083608360836,355.3788335302356 L 81.2081208120812,352.6243147326883 L 79.9079907990799,351.75205044679825 L 78.8078807880788,350.3288824013988 L 76.3076307630763,348.26299330323826 L 75.35753575357535,346.65619067133565 L 76.90769076907691,344.6362102198009 L 77.45774577457745,343.5344027007819 L 78.85788578857886,342.1112346553825 L 79.50795079507951,341.6521481891246 L 85.8085808580858,338.7139948050741 L 86.95869586958695,337.7958218725583 L 87.25872587258725,336.4644711204104 L 87.4087408740874,332.74587074372147 L 87.55875587558755,332.0572410443346 L 91.60916091609161,326.13502562960775 L 95.4095409540954,319.2487286357394 L 96.45964596459645,317.8255605903399 L 98.30983098309831,317.4123827707078 L 99.2099209920992,316.8155703645725 L 100.76007600760076,315.3464936725473 L 102.91029102910291,313.83150833389624 L 103.51035103510351,313.005152694632 L 103.46034603460346,311.58198464923254 L 103.16031603160316,311.03108088972306 L 102.56025602560256,310.2965425437104 L 100.51005100510051,309.01110043818835 L 100.1100110011001,308.36837938542726 L 101.21012101210121,304.87932224186727 L 102.36023602360235,302.8134331437068 L 102.86028602860286,300.5639094590431 L 105.66056605660566,297.0748523154831 L 107.06070607060705,296.43213126272207 L 109.06090609060905,294.6876026909421 L 112.2112211221122,293.3562519387942 L 118.6118611861186,291.1067282541305 L 121.3121312131213,289.3162910357247 L 122.51225122512251,288.811295922841 L 126.86268626862686,288.7653872762152 L 139.2139213921392,289.683560208731 L 145.66456645664564,285.13860419277785 L 146.96469646964695,284.58770043326837 L 150.3150315031503,283.577710207501 L 156.66566656665665,282.61362862835944 L 188.7188718871887,282.70544592161104 L 174.26742674267425,298.1307511878762 L 173.16731673167317,299.5998278799015 L 172.66726672667266,300.9311786320494 L 172.61726172617261,301.8493515645652 L 173.06730673067307,305.10886547499626 L 174.96749674967495,313.5101478075157 L 177.06770677067706,318.6519162296041 L 177.76777677767777,319.79963239524886 L 181.2181218121812,324.6659489375825 L 183.21832183218322,326.961381268872 L 184.5184518451845,330.450438412432 L 184.6184618461846,331.46042863819935 L 184.5184518451845,331.96542375108305 L 184.2184218421842,332.4245102173409 L 181.2181218121812,334.90357713513356 L 180.2180218021802,336.64810570691355 L 177.46774677467747,339.9535282639704 L 176.76767676767676,341.2848790161183 L 175.86758675867586,344.0853064602914 L 175.46754675467545,346.7020993179614 L 175.7175717571757,348.0334500701093 L 177.66776677667767,351.20114668728877 L 178.61786178617862,353.4047617253267 L 180.1180118011801,355.8838286431193 L 180.9180918091809,356.7560929290093 L 182.61826182618262,357.8119918014024 L 185.7185718571857,359.37288578667926 L 187.76877687768777,359.92378954618874 L 190.56905690569056,360.01560683944035 L 203.020302030203,362.0814959376009 L 209.17091709170916,365.52464443453505 L 214.07140714071406,368.96779293146926 L 215.67156715671567,370.5745955633719 L 218.5218521852185,374.8900083461961 L 219.4219421942194,376.7722628578535 L 219.92199219921991,378.3790654897561 L 221.37213721372137,386.9639824087787 L 221.5221522152215,393.2075583498861 L 221.27212721272127,394.21754857565344 L 221.07210721072107,394.4470918087824 L 220.52205220522052,394.7225436885371 L 219.87198719871986,394.6766350419113 L 216.77167716771675,392.2434767707445 L 216.17161716171617,392.0139335376155 L 215.52155215521552,392.0139335376155 L 215.021502150215,392.33529406399606 L 214.77147714771476,392.84028917687976 L 214.1214121412141,395.27344744804657 L 214.17141714171416,396.60479820019447 L 214.4214421442144,396.74252414007185 L 218.47184718471846,397.3852451928329 L 219.2219221922192,397.93614895234236 L 219.6219621962196,398.76250459160656 L 219.8219821982198,399.81840346399974 L 218.8218821882188,404.36335947995286 z" /><path fill-rule="evenodd" fill="#D2EBD9" stroke="#A6A6A6" stroke-width="0.25" opacity="1" d="M 69.55695569556956,363.36693804312296 L 70.8070807080708,360.42878465907245 L 71.05710571057105,359.09743390692455 L 71.15711571157115,356.98563616213823 L 70.7070707070707,356.2051891694998 L 65.35653565356536,355.19519894373246 L 63.95639563956395,355.24110759035824 L 58.25582558255825,356.11337187624827 L 56.85568556855685,355.8838286431193 L 56.005600560056,355.60837676336456 L 55.65556555655565,354.32293465784244 L 55.305530553055306,353.8179395449588 L 54.65546554655465,353.49657901857825 L 51.755175517551756,353.9556654848361 L 50.7050705070507,354.27702601121666 L 49.75497549754975,354.9656557106035 L 48.8048804880488,356.11337187624827 L 47.954795479547954,355.19519894373246 L 49.004900490049,353.9556654848361 L 48.9048904890489,353.1293098455719 L 48.3048304830483,352.53249743943667 L 47.85478547854785,351.797959093424 L 47.75477547754775,350.4666083412761 L 47.5047504750475,337.0153748799199 L 47.7047704770477,334.3526733756241 L 46.1046104610461,333.8476782627404 L 43.154315431543154,334.9953944283851 L 41.65416541654165,334.39858202224985 L 41.004100410041005,331.093159465193 L 39.803980398039805,330.8177075854383 L 38.003800380038,331.32270269832196 L 35.6035603560356,330.450438412432 L 33.903390339033905,327.7418282615104 L 33.45334533453345,321.17689179402254 L 32.653265326532654,318.46828164310097 L 32.45324532453245,318.42237299647513 L 32.503250325032504,318.05510382346887 L 32.05320532053205,316.8614790111983 L 32.05320532053205,316.1728493118115 L 32.1032103210321,315.8973974320567 L 32.95329532953295,315.43831096579885 L 34.05340534053405,315.30058502592146 L 36.303630363036305,315.80558013880517 L 41.4041404140414,316.0810320185599 L 42.104210421042104,315.7596714921794 L 42.45424542454245,315.0710417927925 L 42.4042404240424,314.3365034467799 L 41.8041804180418,313.55605645414147 L 39.95399539953995,312.2706143486194 L 40.75407540754075,311.16880682960044 L 42.204220422042205,310.70972036334257 L 43.204320432043204,310.8015376565941 L 44.654465446544656,311.3983500627294 L 45.554555455545554,311.3524414161036 L 46.25462546254625,310.5719944234652 L 46.904690469046905,308.91928314493674 L 47.954795479547954,308.59792261855625 L 51.2051205120512,308.46019667867887 L 51.755175517551756,308.1388361522983 L 51.9051905190519,306.9452113400278 L 51.4051405140514,302.90525043695834 L 50.355035503550354,297.9012079547473 L 50.2050205020502,296.2484966762189 L 50.8050805080508,290.0049207351115 L 50.305030503050304,288.62766133633784 L 51.95519551955195,284.9549696062747 L 52.3052305230523,283.3481669743721 L 52.805280528052805,282.7513545682368 L 54.4054405440544,282.2922681019789 L 57.05570557055705,283.577710207501 L 57.9057905790579,283.48589291424946 L 59.45594559455945,282.61362862835944 L 60.4060406040604,280.6854654700763 L 61.156115611561155,280.1345617105668 L 63.706370637063706,280.1345617105668 L 69.45694569456946,278.61957637191574 L 73.35733573357335,278.4818504320384 L 82.4082408240824,280.96091734983105 L 83.05830583058305,280.96091734983105 L 83.65836583658366,280.73137411670206 L 85.9085908590859,278.71139366516735 L 86.65866586658666,277.3341342663937 L 87.9087908790879,276.4159613338779 L 88.4088408840884,275.68142298786523 L 89.20892089208921,275.5896056946137 L 90.5090509050905,275.77324028111684 L 91.45914591459146,276.2782353940005 L 92.75927592759275,278.29821584553525 L 94.4094409440944,279.95092712406364 L 95.3095309530953,281.4200038160889 L 95.75957595759576,281.78727298909524 L 96.10961096109611,281.69545569584363 L 96.55965596559655,281.28227787621154 L 97.009700970097,280.088653063941 L 97.009700970097,278.61957637191574 L 96.10961096109611,276.3700526872521 L 96.40964096409641,272.8809955436921 L 96.65966596659665,272.3300917841826 L 97.15971597159715,271.91691396455053 L 97.8097809780978,271.73327937804737 L 100.2100210021002,271.9628226111763 L 102.2102210221022,271.9628226111763 L 103.16031603160316,272.5137263706858 L 104.2104210421042,274.1205290025884 L 104.7104710471047,274.4877981755947 L 105.61056105610561,274.6255241154721 L 106.26062606260625,274.39598088234317 L 106.5106510651065,274.44188952896894 L 106.6106610661066,274.6714327620979 L 106.66066606660665,278.5277590786642 L 106.46064606460645,279.53774930443154 L 106.1106110611061,279.9968357706895 L 105.56055605560556,280.2263790038184 L 105.010501050105,279.9968357706895 L 104.2104210421042,278.61957637191574 L 103.56035603560356,277.9768553191547 L 102.56025602560256,277.93094667252893 L 102.2102210221022,278.0227639657805 L 101.76017601760175,278.4359417854126 L 101.66016601660165,279.12457148479945 L 101.9101910191019,280.1345617105668 L 103.36033603360336,283.3022583277463 L 104.16041604160415,284.4040658467652 L 107.2107210721072,286.0108684786679 L 109.5109510951095,289.95901208848574 L 110.56105610561056,292.300353066401 L 110.76107610761075,292.57580494615576 L 112.2112211221122,293.3562519387942 L 109.06090609060905,294.6876026909421 L 107.06070607060705,296.43213126272207 L 105.66056605660566,297.0748523154831 L 102.86028602860286,300.5639094590431 L 102.36023602360235,302.8134331437068 L 101.21012101210121,304.87932224186727 L 100.1100110011001,308.36837938542726 L 100.51005100510051,309.01110043818835 L 102.56025602560256,310.2965425437104 L 103.16031603160316,311.03108088972306 L 103.46034603460346,311.58198464923254 L 103.51035103510351,313.005152694632 L 102.91029102910291,313.83150833389624 L 100.76007600760076,315.3464936725473 L 99.2099209920992,316.8155703645725 L 98.30983098309831,317.4123827707078 L 96.45964596459645,317.8255605903399 L 95.4095409540954,319.2487286357394 L 91.60916091609161,326.13502562960775 L 87.55875587558755,332.0572410443346 L 87.4087408740874,332.74587074372147 L 87.25872587258725,336.4644711204104 L 86.95869586958695,337.7958218725583 L 85.8085808580858,338.7139948050741 L 79.50795079507951,341.6521481891246 L 78.85788578857886,342.1112346553825 L 77.45774577457745,343.5344027007819 L 76.90769076907691,344.6362102198009 L 75.35753575357535,346.65619067133565 L 76.3076307630763,348.26299330323826 L 78.8078807880788,350.3288824013988 L 79.9079907990799,351.75205044679825 L 81.2081208120812,352.6243147326883 L 83.6083608360836,355.3788335302356 L 84.15841584158416,356.6642756357577 L 84.15841584158416,357.1692707486414 L 83.85838583858386,357.8119918014024 L 81.85818581858186,360.33696736582084 L 79.55795579557956,362.54058240385876 L 79.15791579157916,363.3210293964972 L 78.9078907890789,365.11146661490295 L 78.35783578357835,365.8460049609156 L 77.45774577457745,365.75418766766404 L 75.9075907590759,364.56056285539347 L 75.5075507550755,364.42283691551614 L 73.05730573057305,364.42283691551614 L 70.45704570457045,363.87193315600666 L 69.55695569556956,363.36693804312296 z" /><path fill-rule="evenodd" fill="#D2EBD9" stroke="#A6A6A6" stroke-width="0.25" opacity="1" d="M 32.45324532453245,318.42237299647513 L 31.203120312031203,318.1928297633462 L 26.8026802680268,321.4064350271515 L 24.602460246024602,322.4164252529188 L 22.252225222522252,322.50824254617044 L 21.102110211021103,322.78369442592515 L 20.2020202020202,323.5182327719378 L 20.05200520052005,324.6659489375825 L 20.25202520252025,327.05319856212355 L 19.301930193019302,328.10909743451674 L 17.85178517851785,327.87955420138775 L 16.301630163016302,327.3286504418783 L 14.85148514851485,327.05319856212355 L 14.101410141014101,327.2827417952525 L 12.15121512151215,324.344588411202 L 11.85118511851185,322.5541511927962 L 11.101110111011101,321.17689179402254 L 9.3009300930093,320.76371397439044 L 5.65056505650565,320.9932572075194 L 6.65066506650665,319.6619064553715 L 7.650765076507651,317.59601735721094 L 8.450845084508451,315.43831096579885 L 8.750875087508751,313.6478737473931 L 8.8008800880088,311.490167355981 L 5.75057505750575,305.384317354751 L 4.000400040004,304.7875049486157 L 3.6003600360036003,304.1447838958547 L 3.7503750375037503,302.99706773020995 L 4.4004400440044,301.7116256246878 L 4.6004600460046,300.7016353989205 L 4.15041504150415,299.04892412039203 L 3.0003000300030003,297.71757336824413 L 1.5001500150015001,296.75349178910255 L 0.0,296.2025880295931 L 0.0,295.65168427008365 L 1.05010501050105,296.2025880295931 L 1.5001500150015001,296.2025880295931 L 1.05010501050105,294.32033351793575 L 3.65036503650365,292.89716547253624 L 4.1004100410041,292.4380790062784 L 4.05040504050405,291.29036284063363 L 3.65036503650365,290.05082938173734 L 3.55035503550355,288.99493050934416 L 4.35043504350435,288.58175268971206 L 5.95059505950595,289.2703823890989 L 7.15071507150715,289.4540169756021 L 7.7007700770077,288.9490218627184 L 8.000800080008,288.0308489302026 L 8.750875087508751,287.4799451706931 L 10.3010301030103,286.6994981780547 L 13.95139513951395,281.78727298909524 L 14.701470147014701,281.0068259964568 L 14.5014501450145,279.7213838909347 L 15.1015101510151,273.7532598295821 L 15.45154515451545,272.14645719767947 L 14.401440144014401,269.0705778737516 L 15.601560156015601,266.6374196025847 L 18.85188518851885,265.5356120835658 L 20.00200020002,264.80107373755317 L 22.202220222022202,262.9188192258958 L 22.7022702270227,262.7810932860184 L 34.003400340034,263.65335757190843 L 35.9035903590359,264.6633477976758 L 36.9036903690369,264.57153050442423 L 39.803980398039805,263.1483624590247 L 39.603960396039604,266.7292368958363 L 37.65376537653765,276.04869216087155 L 36.4036403640364,279.62956659768315 L 35.9035903590359,281.74136434246947 L 37.353735373537354,291.8871752467689 L 37.65376537653765,298.0389338946247 L 37.253725372537254,301.98707750444254 L 36.8036803680368,303.1347936700873 L 35.75357535753575,304.60387036211256 L 36.003600360036,305.4761346480025 L 37.9037903790379,307.0829372799052 L 38.25382538253825,308.0470188590468 L 38.4038403840384,310.388359836962 L 38.7038703870387,311.2147154762262 L 39.95399539953995,312.2706143486194 L 41.8041804180418,313.55605645414147 L 42.4042404240424,314.3365034467799 L 42.45424542454245,315.0710417927925 L 42.104210421042104,315.7596714921794 L 41.4041404140414,316.0810320185599 L 36.303630363036305,315.80558013880517 L 34.05340534053405,315.30058502592146 L 32.95329532953295,315.43831096579885 L 32.1032103210321,315.8973974320567 L 32.05320532053205,316.1728493118115 L 32.05320532053205,316.8614790111983 L 32.503250325032504,318.05510382346887 L 32.45324532453245,318.42237299647513 z" /><path fill-rule="evenodd" fill="#D2EBD9" stroke="#A6A6A6" stroke-width="0.25" opacity="1" d="M 133.1133113311331,33.60512933007783 L 131.16311631163114,35.99237895461888 L 127.46274627462745,38.70098910554045 L 117.26172617261726,49.03043459634306 L 116.96169616961696,49.53542970922675 L 116.56165616561655,53.988568431928314 L 116.36163616361635,54.86083271781831 L 116.1116111611161,55.457645123953576 L 115.26152615261526,56.51354399634673 L 114.06140614061405,56.88081316935305 L 111.9111911191119,56.97263046260463 L 110.71107110711071,56.37581805646936 L 109.7109710971097,56.83490452272726 L 105.91059105910591,59.038519560765145 L 105.76057605760576,59.58942332027462 L 105.26052605260526,60.14032707978409 L 104.9104910491049,60.92077407242251 L 104.06040604060405,61.88485565156409 L 103.86038603860385,62.894845877331456 L 103.96039603960395,63.44574963684093 L 103.7103710371037,64.18028798285356 L 101.9101910191019,65.46573008837566 L 101.4101410141014,65.78709061475618 L 96.5096509650965,66.84298948714934 L 94.75947594759475,67.0266240736525 L 92.95929592959295,68.31206617917461 L 92.55925592559255,69.13842181843881 L 92.45924592459245,70.28613798408354 L 92.1092109210921,71.3420368564767 L 91.85918591859185,71.7552146761088 L 89.20892089208921,74.41791618040459 L 88.90889088908891,74.96881993991406 L 88.70887088708871,76.34607933868774 L 88.35883588358836,76.89698309819721 L 87.3087308730873,78.04469926384195 L 85.1085108510851,79.23832407611248 L 84.45844584458446,79.74331918899615 L 82.7082708270827,81.48784776077615 L 63.706370637063706,78.73332896322879 L 62.206220622062204,77.95288197059037 L 61.6061606160616,77.86106467733879 L 58.705870587058705,78.04469926384195 L 57.005700570057,76.62153121844248 L 56.65566556655665,76.16244475218458 L 56.255625562556254,75.33608911292038 L 56.155615561556154,74.69336806015933 L 56.455645564556455,73.4997432478888 L 56.305630563056305,71.7552146761088 L 56.65566556655665,70.51568121721249 L 57.3057305730573,69.04660452518723 L 57.505750575057505,66.65935490064618 L 58.05580558055805,66.1543597877625 L 60.106010601060106,66.65935490064618 L 60.7060706070607,66.42981166751724 L 60.956095609560954,65.83299926138197 L 61.106110611061105,63.35393234358935 L 61.75617561756175,61.88485565156409 L 61.65616561656165,61.517586478557774 L 61.106110611061105,61.425769185306194 L 56.7056705670567,61.74712971168672 L 53.65536553655365,61.517586478557774 L 52.3052305230523,61.05850001229988 L 50.00500050005,59.268062793894096 L 48.95489548954895,58.25807256812673 L 48.054805480548055,57.753077455243044 L 46.55465546554655,56.559452642972516 L 46.4046404640464,56.10036617671462 L 46.854685468546855,54.86083271781831 L 46.854685468546855,54.35583760493463 L 46.05460546054605,52.47358309327726 L 46.5046504650465,50.178150761987794 L 48.104810481048105,46.04637256566675 L 47.85478547854785,45.44956015953149 L 47.85478547854785,44.026392114132015 L 48.45484548454845,38.0582680527794 L 47.65476547654765,37.32372970676677 L 47.45474547454745,36.864643240508876 L 47.5047504750475,35.12011466872888 L 48.054805480548055,34.201941736213094 L 49.154915491549154,34.01830714970993 L 50.8050805080508,33.42149474357467 L 52.3052305230523,33.2837688036973 L 54.105410541054106,32.18196128467836 L 54.65546554655465,31.493331585291518 L 54.35543554355435,30.207889479769413 L 53.1053105310531,29.381533840505206 L 52.4052405240524,28.646995494492575 L 51.15511551155115,28.23381767486047 L 50.85508550855085,27.912457148479945 L 50.8050805080508,27.040192862589947 L 51.3051305130513,25.754750757067843 L 50.9050905090509,24.46930865154574 L 50.9050905090509,23.64295301228153 L 51.005100510051,23.459318425778374 L 52.25522552255225,23.275683839275217 L 53.4053405340534,23.229775192649427 L 54.85548554855485,23.505227072404164 L 55.4055405540554,23.413409779152584 L 55.85558555855585,22.816597373017323 L 56.405640564056405,22.44932820001101 L 58.005800580058,22.541145493262587 L 58.855885588558856,21.163886094488905 L 58.95589558955895,20.61298233497943 L 58.005800580058,18.914362409825227 L 58.005800580058,18.409367296941543 L 58.35583558355835,17.81255489080628 L 59.4059405940594,16.664838725161545 L 60.15601560156015,15.471213912891022 L 60.4060406040604,14.736675566878391 L 60.35603560356035,14.002137220865762 L 59.705970597059704,11.523070303073135 L 59.955995599559955,7.207657520248933 L 59.55595559555955,4.45313872270157 L 59.6059605960596,3.9022349631920976 L 69.90699069906991,2.662701504295784 L 72.60726072607261,0.596812406135262 L 73.9073907390739,1.3772593987736814 L 75.55755575557555,1.331350752147892 L 80.35803580358035,0.04590864662578938 L 81.4081408140814,0.0 L 82.35823582358235,0.3213605263805257 L 94.45944594459445,8.630825565648404 L 133.1133113311331,33.60512933007783 z" /><path fill-rule="evenodd" fill="#D2EBD9" stroke="#A6A6A6" stroke-width="0.25" opacity="1" d="M 3.5003500350035,38.79280639879203 L 4.2004200420042,38.4714458724115 L 4.85048504850485,37.55327293989571 L 12.95129512951295,35.67101842823835 L 13.65136513651365,35.257840608606244 L 14.951495149514951,33.92648985645835 L 16.6016601660166,33.65103797670362 L 16.7016701670167,33.054225570568356 L 16.6016601660166,32.50332181105888 L 16.351635163516352,32.13605263805257 L 16.1016101610161,32.13605263805257 L 17.451745174517452,30.666975946027307 L 18.2018201820182,30.39152406627257 L 19.301930193019302,30.621067299401517 L 21.052105210521052,30.48334135952415 L 21.4021402140214,29.473351133756783 L 21.2021202120212,27.958365795105735 L 21.25212521252125,26.259745869951526 L 21.95219521952195,24.74476053130048 L 25.35253525352535,19.602992109212067 L 25.752575257525752,18.179824063812596 L 28.002800280028,18.042098123935226 L 30.8030803080308,18.455275943567333 L 32.503250325032504,17.99618947730944 L 33.703370337033704,18.960271056451017 L 34.1034103410341,19.052088349702593 L 34.903490349034904,18.63891053007049 L 37.353735373537354,16.159843612277864 L 42.204220422042205,12.808512408595238 L 48.8048804880488,6.519027820862092 L 49.95499549954995,5.876306768101041 L 51.4051405140514,5.4631289484689365 L 55.65556555655565,5.004042482211043 L 56.85568556855685,4.269504136198413 L 59.6059605960596,3.9022349631920976 L 59.55595559555955,4.45313872270157 L 59.955995599559955,7.207657520248933 L 59.705970597059704,11.523070303073135 L 60.35603560356035,14.002137220865762 L 60.4060406040604,14.736675566878391 L 60.15601560156015,15.471213912891022 L 59.4059405940594,16.664838725161545 L 58.35583558355835,17.81255489080628 L 58.005800580058,18.409367296941543 L 58.005800580058,18.914362409825227 L 58.95589558955895,20.61298233497943 L 58.855885588558856,21.163886094488905 L 58.005800580058,22.541145493262587 L 56.405640564056405,22.44932820001101 L 55.85558555855585,22.816597373017323 L 55.4055405540554,23.413409779152584 L 54.85548554855485,23.505227072404164 L 53.4053405340534,23.229775192649427 L 52.25522552255225,23.275683839275217 L 51.005100510051,23.459318425778374 L 50.9050905090509,23.64295301228153 L 50.9050905090509,24.46930865154574 L 51.3051305130513,25.754750757067843 L 50.8050805080508,27.040192862589947 L 50.85508550855085,27.912457148479945 L 51.15511551155115,28.23381767486047 L 52.4052405240524,28.646995494492575 L 53.1053105310531,29.381533840505206 L 54.35543554355435,30.207889479769413 L 54.65546554655465,31.493331585291518 L 54.105410541054106,32.18196128467836 L 52.3052305230523,33.2837688036973 L 50.8050805080508,33.42149474357467 L 49.154915491549154,34.01830714970993 L 48.054805480548055,34.201941736213094 L 47.5047504750475,35.12011466872888 L 47.45474547454745,36.864643240508876 L 47.65476547654765,37.32372970676677 L 48.45484548454845,38.0582680527794 L 47.85478547854785,44.026392114132015 L 47.85478547854785,45.44956015953149 L 48.104810481048105,46.04637256566675 L 46.5046504650465,50.178150761987794 L 46.05460546054605,52.47358309327726 L 46.854685468546855,54.35583760493463 L 46.854685468546855,54.86083271781831 L 46.4046404640464,56.10036617671462 L 46.55465546554655,56.559452642972516 L 48.054805480548055,57.753077455243044 L 48.95489548954895,58.25807256812673 L 50.00500050005,59.268062793894096 L 52.3052305230523,61.05850001229988 L 53.65536553655365,61.517586478557774 L 56.7056705670567,61.74712971168672 L 61.106110611061105,61.425769185306194 L 61.65616561656165,61.517586478557774 L 61.75617561756175,61.88485565156409 L 61.106110611061105,63.35393234358935 L 60.956095609560954,65.83299926138197 L 60.7060706070607,66.42981166751724 L 60.106010601060106,66.65935490064618 L 58.05580558055805,66.1543597877625 L 57.505750575057505,66.65935490064618 L 57.3057305730573,69.04660452518723 L 56.65566556655665,70.51568121721249 L 56.305630563056305,71.7552146761088 L 56.455645564556455,73.4997432478888 L 56.155615561556154,74.69336806015933 L 56.255625562556254,75.33608911292038 L 56.65566556655665,76.16244475218458 L 57.005700570057,76.62153121844248 L 58.705870587058705,78.04469926384195 L 61.6061606160616,77.86106467733879 L 62.206220622062204,77.95288197059037 L 63.706370637063706,78.73332896322879 L 63.356335633563354,81.62557370065352 L 60.55605560556055,84.97690490433615 L 59.705970597059704,87.18051994237403 L 59.15591559155915,87.7773323485093 L 58.605860586058604,87.73142370188351 L 57.355735573557354,86.85915941599352 L 56.7056705670567,86.0787124233551 L 52.655265526552654,83.55373685893667 L 50.405040504050405,81.48784776077615 L 50.05500550055005,80.79921806138931 L 49.9049904990499,79.46786730924143 L 49.45494549454945,79.1005981362351 L 48.45484548454845,79.19241542948669 L 46.5046504650465,79.78922783562194 L 44.95449544954495,80.98285264789247 L 44.15441544154415,82.26829475341458 L 42.104210421042104,82.63556392642089 L 41.7041704170417,82.91101580617563 L 41.35413541354135,84.56372708470404 L 39.853985398539855,85.57371731047141 L 38.9038903890389,87.08870264912245 L 38.453845384538454,87.41006317550298 L 38.2038203820382,87.27233723562561 L 37.6037603760376,86.12462106998088 L 37.503750375037505,85.43599137059404 L 37.75377537753775,84.47190979145246 L 37.75377537753775,83.78328009206562 L 36.8036803680368,81.62557370065352 L 36.103610361036104,81.25830452764721 L 32.95329532953295,80.20240565525405 L 31.853185318531853,79.60559324911878 L 25.55255525552555,79.00878084298353 L 23.85238523852385,77.58561279758406 L 23.1023102310231,77.31016091782932 L 21.25212521252125,77.26425227120353 L 20.75207520752075,77.4019782110809 L 19.75197519751975,78.87105490310616 L 17.9017901790179,79.69741054237036 L 17.25172517251725,75.33608911292038 L 18.6018601860186,74.23428159390143 L 19.15191519151915,73.22429136813406 L 19.301930193019302,72.6274789619988 L 17.75177517751775,69.82705151782565 L 16.8016801680168,63.5375669300925 L 18.45184518451845,60.46168760616462 L 19.251925192519252,59.313971440519886 L 19.851985198519852,56.88081316935305 L 19.65196519651965,56.6512699362241 L 19.15191519151915,56.83490452272726 L 18.85188518851885,57.20217369573357 L 18.6018601860186,57.936712041746205 L 18.3018301830183,58.07443798162357 L 16.6016601660166,58.07443798162357 L 15.851585158515851,57.615351515365674 L 15.7015701570157,57.15626504910778 L 16.05160516051605,56.6512699362241 L 16.251625162516252,55.82491429695989 L 16.5016501650165,54.034477078554104 L 16.4016401640164,53.48357331904463 L 16.05160516051605,52.97857820616095 L 13.751375137513751,51.14223234112937 L 9.8009800980098,47.46954061106622 L 9.25092509250925,46.597276325176225 L 9.4009400940094,46.13818985891833 L 6.900690069006901,42.19004624910044 L 5.1005100510051005,41.0882387300815 L 3.5003500350035,38.79280639879203 z" /><path fill-rule="evenodd" fill="#D2EBD9" stroke="#A6A6A6" stroke-width="0.25" opacity="1" d="M 419.6919691969197,293.4480692320457 L 411.2411241124112,294.64169404431624 L 396.48964896489645,295.00896321732256 L 390.7390739073907,296.2025880295931 L 388.038803880388,297.2125782553605 L 383.3883388338834,298.22256848112784 L 381.988198819882,298.86528953388887 L 379.58795879587956,300.2884575792884 L 323.28232823282326,355.4706508234872 L 313.9313931393139,365.11146661490295 L 308.2808280828083,374.4309218799382 L 306.6806680668067,378.10361361000133 L 294.4294429442944,322.3246079596673 L 293.6293629362936,316.5860271314436 L 293.6293629362936,315.621945552302 L 296.9296929692969,313.6478737473931 L 296.3296329632963,312.45424893512256 L 264.4264426442644,265.5356120835658 L 271.97719771977194,259.33794478908425 L 274.37743774377435,256.30797411178213 L 279.12791279127913,246.16216320748268 L 279.3779377937794,245.28989892159268 L 278.9278927892789,239.1381402737369 L 278.977897789779,238.17405869459532 L 279.62796279627963,236.79679929582164 L 334.38343834383437,157.97165303934128 L 373.2373237323732,181.52278875837123 L 391.6891689168917,186.52683124058225 L 393.8893889388939,187.94999928598173 L 395.58955895589554,190.38315755714856 L 398.28982898289826,196.3512816185012 L 411.1911191119112,221.4174026761822 L 411.84118411841183,223.66692636084588 L 412.04120412041203,226.05417598538693 L 410.8910891089109,259.33794478908425 L 411.64116411641163,264.93879967743055 L 414.79147914791474,276.3241440406263 L 415.4415441544154,285.322238779281 L 416.1416141614161,288.1226662234542 L 419.6919691969197,293.4480692320457 z" /><path fill-rule="evenodd" fill="#D2EBD9" stroke="#A6A6A6" stroke-width="0.25" opacity="1" d="M 9.25092509250925,46.597276325176225 L 9.8009800980098,47.46954061106622 L 13.751375137513751,51.14223234112937 L 16.05160516051605,52.97857820616095 L 16.4016401640164,53.48357331904463 L 16.5016501650165,54.034477078554104 L 16.251625162516252,55.82491429695989 L 16.05160516051605,56.6512699362241 L 15.7015701570157,57.15626504910778 L 15.851585158515851,57.615351515365674 L 16.6016601660166,58.07443798162357 L 18.3018301830183,58.07443798162357 L 18.6018601860186,57.936712041746205 L 18.85188518851885,57.20217369573357 L 19.15191519151915,56.83490452272726 L 19.65196519651965,56.6512699362241 L 19.851985198519852,56.88081316935305 L 19.251925192519252,59.313971440519886 L 18.45184518451845,60.46168760616462 L 16.8016801680168,63.5375669300925 L 17.75177517751775,69.82705151782565 L 19.301930193019302,72.6274789619988 L 19.15191519151915,73.22429136813406 L 18.6018601860186,74.23428159390143 L 17.25172517251725,75.33608911292038 L 17.9017901790179,79.69741054237036 L 18.051805180518052,80.70740076813773 L 18.051805180518052,83.55373685893667 L 17.551755175517552,83.8750973853172 L 13.801380138013801,84.38009249820088 L 13.151315131513151,84.01282332519457 L 12.85128512851285,83.09465039267879 L 12.651265126512651,82.86510715954984 L 12.5012501250125,82.91101580617563 L 11.85118511851185,84.19645791169773 L 11.701170117011701,85.06872219758773 L 12.001200120012001,86.4918902429872 L 12.901290129012901,88.09869287488982 L 9.000900090009,90.30230791292772 L 9.2009200920092,89.43004362703772 L 9.15091509150915,88.60368798777351 L 8.8008800880088,87.8232409951351 L 7.200720072007201,86.85915941599352 L 7.25072507250725,86.4918902429872 L 9.2009200920092,86.35416430310983 L 9.8009800980098,85.80326054360036 L 10.4010401040104,82.63556392642089 L 10.75107510751075,81.57966505402773 L 12.45124512451245,79.1465067828609 L 12.45124512451245,78.77923760985458 L 11.95119511951195,78.2742424969709 L 12.15121512151215,77.35606956445511 L 12.55125512551255,77.17243497795195 L 13.001300130013,77.49379550433248 L 13.3013301330133,77.44788685770669 L 13.7013701370137,77.17243497795195 L 14.101410141014101,76.16244475218458 L 14.051405140514051,73.45383460126301 L 12.901290129012901,72.81111354850196 L 12.651265126512651,72.48975302212143 L 13.05130513051305,71.7552146761088 L 13.501350135013501,71.7552146761088 L 13.501350135013501,71.15840226997355 L 10.9010901090109,70.9288590368446 L 10.6010601060106,68.63342670555512 L 11.55115511551155,60.64532219266778 L 13.151315131513151,60.00260113990672 L 15.05150515051505,58.44170715462988 L 14.2014201420142,56.60536128959831 L 12.55125512551255,54.9067413644441 L 10.3010301030103,50.5913285816199 L 9.25092509250925,46.597276325176225 z" /><path fill-rule="evenodd" fill="#D2EBD9" stroke="#A6A6A6" stroke-width="0.25" opacity="1" d="M 112.2112211221122,293.3562519387942 L 110.76107610761075,292.57580494615576 L 110.56105610561056,292.300353066401 L 109.5109510951095,289.95901208848574 L 107.2107210721072,286.0108684786679 L 104.16041604160415,284.4040658467652 L 103.36033603360336,283.3022583277463 L 101.9101910191019,280.1345617105668 L 101.66016601660165,279.12457148479945 L 101.76017601760175,278.4359417854126 L 102.2102210221022,278.0227639657805 L 102.56025602560256,277.93094667252893 L 103.56035603560356,277.9768553191547 L 104.2104210421042,278.61957637191574 L 105.010501050105,279.9968357706895 L 105.56055605560556,280.2263790038184 L 106.1106110611061,279.9968357706895 L 106.46064606460645,279.53774930443154 L 106.66066606660665,278.5277590786642 L 106.6106610661066,274.6714327620979 L 106.5106510651065,274.44188952896894 L 106.26062606260625,274.39598088234317 L 105.61056105610561,274.6255241154721 L 104.7104710471047,274.4877981755947 L 104.2104210421042,274.1205290025884 L 103.16031603160316,272.5137263706858 L 102.2102210221022,271.9628226111763 L 100.2100210021002,271.9628226111763 L 97.8097809780978,271.73327937804737 L 97.15971597159715,271.91691396455053 L 96.65966596659665,272.3300917841826 L 96.40964096409641,272.8809955436921 L 96.10961096109611,276.3700526872521 L 97.009700970097,278.61957637191574 L 97.009700970097,280.088653063941 L 96.55965596559655,281.28227787621154 L 96.10961096109611,281.69545569584363 L 95.75957595759576,281.78727298909524 L 95.3095309530953,281.4200038160889 L 94.4094409440944,279.95092712406364 L 92.75927592759275,278.29821584553525 L 91.45914591459146,276.2782353940005 L 90.5090509050905,275.77324028111684 L 89.20892089208921,275.5896056946137 L 88.4088408840884,275.68142298786523 L 87.9087908790879,276.4159613338779 L 86.65866586658666,277.3341342663937 L 85.9085908590859,278.71139366516735 L 83.65836583658366,280.73137411670206 L 83.05830583058305,280.96091734983105 L 82.4082408240824,280.96091734983105 L 73.35733573357335,278.4818504320384 L 69.45694569456946,278.61957637191574 L 63.706370637063706,280.1345617105668 L 61.156115611561155,280.1345617105668 L 60.4060406040604,280.6854654700763 L 59.45594559455945,282.61362862835944 L 57.9057905790579,283.48589291424946 L 57.05570557055705,283.577710207501 L 54.4054405440544,282.2922681019789 L 52.805280528052805,282.7513545682368 L 52.3052305230523,283.3481669743721 L 51.95519551955195,284.9549696062747 L 50.305030503050304,288.62766133633784 L 50.8050805080508,290.0049207351115 L 50.2050205020502,296.2484966762189 L 50.355035503550354,297.9012079547473 L 51.4051405140514,302.90525043695834 L 51.9051905190519,306.9452113400278 L 51.755175517551756,308.1388361522983 L 51.2051205120512,308.46019667867887 L 47.954795479547954,308.59792261855625 L 46.904690469046905,308.91928314493674 L 46.25462546254625,310.5719944234652 L 45.554555455545554,311.3524414161036 L 44.654465446544656,311.3983500627294 L 43.204320432043204,310.8015376565941 L 42.204220422042205,310.70972036334257 L 40.75407540754075,311.16880682960044 L 39.95399539953995,312.2706143486194 L 38.7038703870387,311.2147154762262 L 38.4038403840384,310.388359836962 L 38.25382538253825,308.0470188590468 L 37.9037903790379,307.0829372799052 L 36.003600360036,305.4761346480025 L 35.75357535753575,304.60387036211256 L 36.8036803680368,303.1347936700873 L 37.253725372537254,301.98707750444254 L 37.65376537653765,298.0389338946247 L 37.353735373537354,291.8871752467689 L 35.9035903590359,281.74136434246947 L 36.4036403640364,279.62956659768315 L 37.65376537653765,276.04869216087155 L 39.603960396039604,266.7292368958363 L 39.803980398039805,263.1483624590247 L 40.7040704070407,250.56939328355844 L 40.7040704070407,249.146225238159 L 40.1040104010401,247.03442749337268 L 39.603960396039604,246.16216320748268 L 38.003800380038,244.784903808709 L 36.65366536653665,244.60126922220584 L 36.203620362036204,244.23400004919952 L 34.903490349034904,243.91263952281898 L 33.65336533653365,243.17810117680636 L 32.603260326032604,243.36173576330953 L 31.853185318531853,243.31582711668372 L 31.053105310531052,242.81083200380004 L 31.6031603160316,240.3317650860074 L 35.103510351035105,239.64313538662057 L 36.35363536353635,239.5972267399948 L 39.2039203920392,239.87267861974954 L 40.35403540354035,239.50540944674322 L 41.45414541454145,236.24589553631216 L 43.65436543654365,234.59318425778375 L 44.3044304430443,233.5372853853906 L 44.85448544854485,232.43547786637166 L 44.05440544054405,231.51730493385585 L 44.05440544054405,231.15003576084953 L 44.7044704470447,230.82867523446902 L 45.704570457045705,229.45141583569534 L 46.35463546354635,228.8546034295601 L 46.904690469046905,229.1759639559406 L 47.954795479547954,230.59913200134008 L 48.4048404840484,230.73685794121744 L 49.254925492549255,230.59913200134008 L 50.00500050005,229.54323312894692 L 52.3052305230523,229.03823801606322 L 52.955295529552956,229.1759639559406 L 53.805380538053804,230.27777147495954 L 53.905390539053904,231.51730493385585 L 54.6054605460546,232.61911245287482 L 54.6054605460546,234.18000643815165 L 56.455645564556455,236.24589553631216 L 57.655765576557656,238.03633275471796 L 58.005800580058,238.2658759878469 L 59.2059205920592,238.44951057435006 L 59.755975597559754,238.17405869459532 L 60.056005600560056,237.66906358171164 L 60.056005600560056,237.30179440870532 L 59.5059505950595,236.38362147618955 L 59.55595559555955,235.74090042342849 L 60.45604560456045,235.6490831301769 L 60.8060806080608,235.41953989704797 L 60.956095609560954,234.50136696453217 L 61.35613561356135,234.04228049827427 L 62.056205620562054,233.72091997189375 L 62.85628562856285,233.62910267864217 L 64.2064206420642,234.3636410246548 L 65.9065906590659,234.7309101976611 L 69.55695569556956,234.59318425778375 L 76.2076207620762,237.89860681484058 L 76.8076807680768,237.806789521589 L 80.8080808080808,238.08224140134374 L 81.1081108110811,238.17405869459532 L 82.10821082108211,239.1381402737369 L 83.008300830083,239.4595008001174 L 84.05840584058406,239.50540944674322 L 85.5085508550855,240.3776737326332 L 86.45864586458646,240.60721696576215 L 88.15881588158815,240.23994779275583 L 89.30893089308931,239.27586621361425 L 89.65896589658965,238.77087110073057 L 92.009200920092,234.04228049827427 L 93.85938593859386,229.86459365532744 L 95.90959095909591,230.64504064796586 L 100.1100110011001,233.9963718516485 L 102.66026602660266,234.54727561115797 L 103.46034603460346,235.6490831301769 L 103.96039603960395,235.97044365655742 L 104.66046604660465,235.92453500993165 L 106.8106810681068,234.7309101976611 L 107.06070607060705,234.91454478416426 L 107.16071607160715,235.41953989704797 L 107.4107410741074,235.74090042342849 L 110.06100610061006,237.53133764183426 L 110.66106610661066,237.53133764183426 L 111.46114611461145,237.07225117557638 L 111.86118611861185,236.61316470931848 L 112.71127112711271,234.96045343079007 L 113.6113611361136,234.50136696453217 L 114.5114511451145,234.27182373140323 L 115.06150615061506,234.317732378029 L 116.011601160116,235.2359053105448 L 116.46164616461645,236.88861658907322 L 117.36173617361736,237.89860681484058 L 117.9117911791179,239.36768350686583 L 118.5118511851185,239.64313538662057 L 120.76207620762075,239.41359215349163 L 120.9120912091209,239.50540944674322 L 121.06210621062105,240.4694910258848 L 121.7121712171217,241.15812072527163 L 122.11221122112211,241.15812072527163 L 123.56235623562355,240.3776737326332 L 124.26242624262426,240.3317650860074 L 126.56265626562656,241.38766395840057 L 127.96279627962795,241.52538989827795 L 130.21302130213022,241.43357260502637 L 130.76307630763077,241.11221207864583 L 131.66316631663165,239.551318093369 L 132.16321632163215,239.32177486024005 L 133.3133313331333,239.27586621361425 L 133.7133713371337,239.73495267987215 L 133.8133813381338,240.23994779275583 L 133.3133313331333,242.25992824429056 L 133.46334633463346,245.88671132772794 L 133.8133813381338,246.8048842602437 L 134.3134313431343,247.3557880197532 L 136.3136313631363,248.50350418539793 L 139.1139113911391,250.43166734368108 L 141.56415641564155,250.7989365166874 L 145.06450645064507,252.03846997558372 L 151.6151615161516,253.50754666760898 L 152.46524652465246,253.09436884797688 L 153.81538153815382,251.6712008025774 L 154.41544154415442,251.2580229829453 L 156.6156615661566,251.07438839644215 L 157.46574657465746,250.61530193018424 L 158.06580658065806,249.74303764429425 L 158.41584158415841,248.87077335840425 L 159.01590159015902,248.1821436590174 L 159.51595159515952,246.25398050073426 L 159.8159815981598,244.05036546269636 L 160.2160216021602,243.4076444099353 L 165.5165516551655,239.04632298048531 L 169.6169616961696,233.76682861851953 L 170.01700170017,233.30774215226165 L 170.46704670467045,233.35365079888743 L 171.2171217121712,233.67501132526795 L 172.66726672667266,235.3277226037964 L 173.31733173317332,237.02634252895058 L 173.41734173417342,238.90859704060796 L 174.26742674267425,240.8367601988911 L 174.8174817481748,241.52538989827795 L 175.06750675067505,242.85674065042585 L 175.36753675367535,243.22400982343214 L 178.66786678667864,246.11625456085687 L 188.56885688568855,250.52348463693266 L 189.36893689368935,251.44165756944844 L 188.96889688968895,254.51753689337633 L 189.06890689068905,256.0784308786532 L 189.26892689268925,256.81296922466584 L 189.9189918991899,258.41977185656845 L 192.46924692469247,262.5056414062637 L 193.26932693269325,264.38789591792107 L 193.6193619361936,265.90288125657213 L 193.86938693869385,276.18641810074894 L 193.76937693769375,277.79322073265155 L 192.56925692569257,279.53774930443154 L 191.71917191719172,280.45592223694734 L 188.7188718871887,282.70544592161104 L 156.66566656665665,282.61362862835944 L 150.3150315031503,283.577710207501 L 146.96469646964695,284.58770043326837 L 145.66456645664564,285.13860419277785 L 139.2139213921392,289.683560208731 L 126.86268626862686,288.7653872762152 L 122.51225122512251,288.811295922841 L 121.3121312131213,289.3162910357247 L 118.6118611861186,291.1067282541305 L 112.2112211221122,293.3562519387942 z" /><path fill-rule="evenodd" fill="#D2EBD9" stroke="#A6A6A6" stroke-width="0.25" opacity="1" d="M 43.85438543854385,112.0170977669261 L 39.703970397039704,110.77756430802978 L 37.453745374537455,110.6857470147782 L 34.55345534553455,109.07894438287558 L 35.103510351035105,107.42623310434716 L 36.303630363036305,107.60986769085031 L 38.1038103810381,106.69169475833452 L 36.5036503650365,105.0389834798061 L 36.9036903690369,104.12081054729032 L 38.603860386038605,105.26852671293506 L 43.154315431543154,102.97309438164558 L 44.554455445544555,102.69764250189085 L 44.85448544854485,103.79945002090979 L 46.55465546554655,105.5439785926898 L 47.25472547254725,107.51805039759874 L 47.15471547154715,110.18075190189452 L 45.95459545954595,111.83346318042294 L 43.85438543854385,112.0170977669261 z" /></g></g></g></svg>