<svg xmlns="http://www.w3.org/2000/svg" xmlns:xlink="http://www.w3.org/1999/xlink" width="377.7702740319073" height="500.0" viewBox="0.0 0.0 377.7702740319073 500.0" preserveAspectRatio="xMinYMin meet"><g transform="matrix(1,0,0,-1,0,500.0)"><g><g><path fill-rule="evenodd" fill="#D2EBD9" stroke="#A6A6A6" stroke-width="0.25" opacity="1" d="M 328.73078851401397,49.004900490049 L 328.16407643175785,68.6068606860686 L 342.33187848816004,151.96519651965195 L 341.7273856004202,161.46614661466145 L 360.73113075874096,161.36613661366135 L 365.2648274167897,160.5160516051605 L 372.2164956257977,153.46534653465346 L 376.7879730893301,151.4151415141514 L 377.7702740319073,233.1233123312331 L 374.8611520096594,259.025902590259 L 361.48674686841576,286.07860786078606 L 359.37102176132635,294.9294929492949 L 355.8196260458549,327.4827482748275 L 357.21751584875324,336.6836683668367 L 366.5493748032368,361.6361636163616 L 367.60723735678147,370.03700370037 L 365.64263547162705,380.98809880988097 L 362.28014378357426,392.63926392639263 L 360.80669236970846,403.990399039904 L 364.50921130711487,413.84138413841384 L 345.6565893707291,418.69186918691867 L 337.53371619172515,423.0923092309231 L 330.166459122396,430.1430143014301 L 313.9207127643882,422.04220422042204 L 305.8734011963518,420.0920092009201 L 297.71274721186415,422.5922592259226 L 272.89075800904754,438.7438743874387 L 270.96393692937687,435.89358935893586 L 269.4527047100273,435.2435243524352 L 267.56366443584034,434.69346934693465 L 265.90130899455585,434.69346934693465 L 264.3522959697225,434.29342934293425 L 261.2542699200559,432.993299329933 L 259.5163528678039,432.64326432643264 L 257.7784358155519,432.64326432643264 L 256.0782995687837,432.94329432943294 L 251.65794532718618,434.69346934693465 L 250.7889868010602,431.993199319932 L 253.84923204524304,379.88798879887986 L 253.09361593556827,372.18721872187217 L 251.05345243944635,369.08690869086905 L 256.8339156784584,350.68506850685066 L 257.58953178813323,344.6344634463446 L 257.24950453877955,342.68426842684266 L 257.66509339910067,341.034103410341 L 258.94964078554784,338.38383838383834 L 256.64501165103974,330.18301830183015 L 255.96495715233243,322.28222822282225 L 254.90709459878775,317.33173317331733 L 253.13139674105201,312.58125812581255 L 250.48674035719026,308.93089308930894 L 247.7287415568773,305.88058805880587 L 242.32608637270263,301.08010801080104 L 240.36148448754818,298.6798679867987 L 239.94589562722706,296.47964796479647 L 239.9081148217433,293.77937793779375 L 238.96359468464985,292.37923792379235 L 237.30123924336533,291.1291129112911 L 233.56093950047514,288.978897889789 L 232.99422741821905,288.0788078807881 L 233.0320082237028,286.7286728672867 L 234.24099399918245,282.67826782678264 L 234.61880205401985,280.0780078007801 L 234.2787748046662,272.67726772677264 L 232.84310419628412,269.5769576957696 L 232.54085775241418,267.17671767176716 L 232.61641936338168,265.3265326532653 L 233.48537788950767,261.92619261926194 L 233.67428191692636,260.22602260226023 L 233.48537788950767,257.6257625762576 L 231.6718992262882,256.1256125612561 L 229.29170848081262,254.82548254825483 L 226.68483290243464,253.87538753875387 L 225.24916229405255,252.67526752675266 L 225.5136279324387,250.87508750875085 L 227.93159948339803,246.67466746674666 L 229.10280445339393,243.4243424342434 L 230.68959828371098,233.77337733773376 L 231.33187197693454,222.37223722372235 L 230.19844781242236,219.6219621962196 L 228.15828431630047,217.8217821782178 L 211.64807231990648,210.02100210021 L 210.5146481553943,209.17091709170916 L 209.38122399088212,207.87078707870785 L 208.36114224282116,206.32063206320632 L 201.78728208865056,189.86898689868985 L 199.93602261994735,182.46824682468247 L 199.67155698156117,176.1176117611761 L 216.06842656150394,176.7176717671767 L 218.03302844665836,175.66756675667565 L 219.5064798605242,174.26742674267425 L 218.6375213343982,172.16721672167216 L 216.37067300537385,167.86678667866786 L 215.87952253408525,165.6165616561656 L 215.8417417286015,163.21632163216321 L 216.48401542182506,159.46594659465947 L 215.8417417286015,156.96569656965696 L 214.4816327311869,154.51545154515452 L 209.38122399088212,148.2148214821482 L 207.52996452217891,144.014401440144 L 203.9407880012237,138.26382638263826 L 202.92070625316273,136.16361636163614 L 202.05174772703674,133.4133413341334 L 202.84514464219527,131.16311631163114 L 208.7011694921748,120.46204620462045 L 210.2501825170081,118.26182618261825 L 213.95270145441455,114.16141614161415 L 215.91730333956897,112.46124612461246 L 217.54187797536977,111.8111811181118 L 219.2042334166543,112.2112211221122 L 220.79102724697134,113.26132613261325 L 222.22669785535342,113.7113711371137 L 226.00477840372733,112.56125612561256 L 228.3094075382354,111.1111111111111 L 231.02962553306463,108.8108810881088 L 235.97891105143444,103.26032603260326 L 242.93057926044244,97.9097909790979 L 255.66271070846253,90.1090109010901 L 258.26958628684054,88.85888588858886 L 260.83868105973477,88.05880588058805 L 263.6344606655315,87.7087708770877 L 266.35467866036066,88.008800880088 L 274.59089425581584,90.2090209020902 L 276.9710850012914,90.25902590259025 L 279.65352219063686,89.25892589258926 L 281.3536584374051,87.3087308730873 L 286.52962878867737,74.75747574757476 L 288.07864181351067,73.4073407340734 L 290.3077093370513,72.85728572857285 L 292.91458491542926,72.60726072607261 L 295.67258371574223,71.8071807180718 L 304.6266346153884,68.2068206820682 L 305.6089355579656,67.45674567456746 L 305.986743612803,66.45664566456645 L 305.6844971689331,60.956095609560954 L 305.8734011963518,59.55595559555955 L 306.51567488957534,57.8057805780578 L 308.4047151637623,57.1057105710571 L 310.7093442982704,56.7056705670567 L 315.6586298166402,56.405640564056405 L 317.9632589511483,56.005600560056 L 318.7188750608231,55.255525552555255 L 318.79443667179055,53.905390539053904 L 318.3410670059857,50.405040504050405 L 319.2100255321117,49.75497549754975 L 320.4567921130751,49.5049504950495 L 328.73078851401397,49.004900490049 z" /><path fill-rule="evenodd" fill="#D2EBD9" stroke="#A6A6A6" stroke-width="0.25" opacity="1" d="M 272.89075800904754,438.7438743874387 L 182.29238645904118,497.5997599759976 L 175.11403341713074,500.0 L 166.7644754052244,499.84998499849985 L 156.97924678493598,497.24972497249723 L 149.00749682786704,493.29932993299326 L 95.39653384644124,445.2445244524452 L 91.6940149090348,438.6938693869387 L 87.38700308388854,422.0922092209221 L 72.1613384739417,385.3885388538854 L 52.930908482718486,351.035103510351 L 32.37815029956441,324.9324932493249 L 35.85398440406841,323.48234823482346 L 77.56399365811639,296.8296829682968 L 78.39517137875865,295.9295929592959 L 79.18856829391716,294.7294729472947 L 81.53097823390898,290.02900290029004 L 83.64670334099837,286.7286728672867 L 84.96903153292925,285.4285428542854 L 86.6691677796975,284.6284628462846 L 88.2181808045308,284.4284428442844 L 101.02587386351837,281.47814781478144 L 103.93499588576628,281.3281328132813 L 106.31518663124184,282.4282428242824 L 108.09088448897758,282.97829782978295 L 110.58441765090436,283.1283128312831 L 114.21137497734331,282.97829782978295 L 115.8359496131441,282.67826782678264 L 116.8182505557213,282.2282228222822 L 118.29170196958714,280.4780478047805 L 120.59633110409523,278.3778377837784 L 126.52791756504226,274.027402740274 L 129.9281900585788,273.027302730273 L 133.06399691372914,272.87728772877284 L 135.36862604823722,273.57735773577355 L 136.8042966566193,274.67746774677465 L 137.52213196081036,276.1276127612761 L 137.40878954435914,278.4278427842784 L 136.76651585113555,283.67836783678365 L 137.06876229500548,286.67866786678667 L 137.7865975991965,289.5789578957896 L 138.12662484855016,292.37923792379235 L 137.7865975991965,294.9294929492949 L 137.29544712790792,296.979697969797 L 137.33322793339164,298.62986298629863 L 138.23996726500138,300.2300230023002 L 141.48911653660295,303.4303430343034 L 142.47141747918016,305.1305130513051 L 142.81144472853381,306.9306930693069 L 142.66032150659885,309.3809380938094 L 141.94248620240782,313.5313531353135 L 142.0180478133753,315.18151815181517 L 142.73588311756635,316.4816481648165 L 143.86930728207852,317.93179317931794 L 145.72056675078173,319.2319231923192 L 148.47856555109468,320.5320532053205 L 156.9036851739685,323.18231823182316 L 159.77502639073268,324.4324432443244 L 160.90845055524485,325.0825082508251 L 161.39960102653345,325.6325632563256 L 161.92853230330581,326.982698269827 L 163.47754532813912,329.032903290329 L 164.68653110361876,329.3329332933293 L 174.5851021403584,327.982798279828 L 177.15419691325266,328.2828282828283 L 179.04323718743962,328.98289828982894 L 180.6678118232404,330.18301830183015 L 183.72805706742326,331.8331833183318 L 200.2004882583335,337.73377337733774 L 202.20287094897168,338.98389838983894 L 203.44963752993507,340.6340634063406 L 203.8652263902562,341.98419841984196 L 204.77196572186594,347.2847284728473 L 205.45202022057325,348.7348734873487 L 206.7365676070204,349.6349634963496 L 211.1947026541016,351.8351835183518 L 213.80157823247959,353.6853685368537 L 215.38837206279663,355.93559355935594 L 216.8996042821462,359.58595859585955 L 218.18415166859333,361.1361136113611 L 220.5643424140689,362.986298629863 L 222.717848326642,363.6363636363636 L 224.60688860082897,363.8363836383638 L 235.90334944046697,363.986398639864 L 241.7215934849628,365.0865086508651 L 251.05345243944635,369.08690869086905 L 253.09361593556827,372.18721872187217 L 253.84923204524304,379.88798879887986 L 250.7889868010602,431.993199319932 L 251.65794532718618,434.69346934693465 L 256.0782995687837,432.94329432943294 L 257.7784358155519,432.64326432643264 L 259.5163528678039,432.64326432643264 L 261.2542699200559,432.993299329933 L 264.3522959697225,434.29342934293425 L 265.90130899455585,434.69346934693465 L 267.56366443584034,434.69346934693465 L 269.4527047100273,435.2435243524352 L 270.96393692937687,435.89358935893586 L 272.89075800904754,438.7438743874387 z" /><path fill-rule="evenodd" fill="#D2EBD9" stroke="#A6A6A6" stroke-width="0.25" opacity="1" d="M 32.37815029956441,324.9324932493249 L 6.120490488365735,291.5291529152915 L 0.0,267.87678767876787 L 0.7933969151585212,190.46904690469046 L 3.626957326438954,168.66686668666867 L 5.5159976006259095,161.26612661266125 L 10.427502313511994,161.56615661566155 L 15.150102998979381,162.5162516251625 L 19.94826529541425,165.16651665166515 L 24.293057926044245,168.86688668866887 L 27.54220719764581,172.91729172917292 L 28.977877806027895,168.66686668666867 L 33.020423992787975,173.01730173017302 L 42.50340616920649,175.4175417541754 L 43.712391944686146,176.06760676067606 L 44.090199999523534,176.7176717671767 L 44.77025449823084,176.7176717671767 L 46.01702107919423,175.86758675867586 L 49.11504712886084,173.16731673167317 L 52.32641559497866,171.7171717171717 L 58.78693333269805,172.017201720172 L 68.6855043694377,174.26742674267425 L 71.25459914233195,174.26742674267425 L 73.86147472070995,173.56735673567357 L 76.27944627166926,171.1171117111711 L 77.18618560327899,169.6169616961696 L 77.6773360745676,167.8167816781678 L 78.01736332392124,163.21632163216321 L 77.97958251843751,160.56605660566055 L 77.56399365811639,158.41584158415841 L 77.07284318682777,156.9156915691569 L 77.18618560327899,155.66556655665565 L 78.01736332392124,154.11541154115412 L 81.98434789971385,148.9148914891489 L 82.21103273261629,147.7147714771477 L 80.85092373520169,143.5143514351435 L 80.54867729133177,141.8141814181418 L 80.39755406939682,140.26402640264027 L 80.88870454068542,139.46394639463946 L 82.05990951068134,139.71397139713972 L 94.71647934773394,149.71497149714972 L 109.86658234671332,157.8157815781578 L 113.60688208960349,158.91589158915892 L 116.8182505557213,158.91589158915892 L 119.19844130119688,159.46594659465947 L 121.72975526860739,160.76607660766075 L 124.44997326343662,161.66616661666166 L 127.69912253503817,161.06610661066105 L 130.68380616825357,159.31593159315932 L 143.5670608382086,149.61496149614962 L 145.41832030691182,149.16491649164917 L 146.32505963852157,149.41494149414942 L 146.58952527690772,153.76537653765376 L 146.81621010981016,155.16551655165514 L 147.5340454140012,156.5156515651565 L 148.55412716206217,157.9157915791579 L 151.27434515689137,160.01600160016 L 152.25664609946858,161.46614661466145 L 152.89891979269217,162.8162816281628 L 153.08782382011086,164.06640664066407 L 154.10790556817182,164.96649664966495 L 156.0347266478425,165.8165816581658 L 169.29578937263494,167.1167116711671 L 171.94044575649667,168.16681668166817 L 174.32063650197222,170.4170417041704 L 175.98299194325676,172.36723672367236 L 177.90981302292744,174.017401740174 L 182.44350968097615,176.96769676967696 L 188.2995345309557,178.11781178117812 L 199.67155698156117,176.1176117611761 L 199.93602261994735,182.46824682468247 L 201.78728208865056,189.86898689868985 L 208.36114224282116,206.32063206320632 L 209.38122399088212,207.87078707870785 L 210.5146481553943,209.17091709170916 L 211.64807231990648,210.02100210021 L 228.15828431630047,217.8217821782178 L 230.19844781242236,219.6219621962196 L 231.33187197693454,222.37223722372235 L 230.68959828371098,233.77337733773376 L 229.10280445339393,243.4243424342434 L 227.93159948339803,246.67466746674666 L 225.5136279324387,250.87508750875085 L 225.24916229405255,252.67526752675266 L 226.68483290243464,253.87538753875387 L 229.29170848081262,254.82548254825483 L 231.6718992262882,256.1256125612561 L 233.48537788950767,257.6257625762576 L 233.67428191692636,260.22602260226023 L 233.48537788950767,261.92619261926194 L 232.61641936338168,265.3265326532653 L 232.54085775241418,267.17671767176716 L 232.84310419628412,269.5769576957696 L 234.2787748046662,272.67726772677264 L 234.61880205401985,280.0780078007801 L 234.24099399918245,282.67826782678264 L 233.0320082237028,286.7286728672867 L 232.99422741821905,288.0788078807881 L 233.56093950047514,288.978897889789 L 237.30123924336533,291.1291129112911 L 238.96359468464985,292.37923792379235 L 239.9081148217433,293.77937793779375 L 239.94589562722706,296.47964796479647 L 240.36148448754818,298.6798679867987 L 242.32608637270263,301.08010801080104 L 247.7287415568773,305.88058805880587 L 250.48674035719026,308.93089308930894 L 253.13139674105201,312.58125812581255 L 254.90709459878775,317.33173317331733 L 255.96495715233243,322.28222822282225 L 256.64501165103974,330.18301830183015 L 258.94964078554784,338.38383838383834 L 257.66509339910067,341.034103410341 L 257.24950453877955,342.68426842684266 L 257.58953178813323,344.6344634463446 L 256.8339156784584,350.68506850685066 L 251.05345243944635,369.08690869086905 L 241.7215934849628,365.0865086508651 L 235.90334944046697,363.986398639864 L 224.60688860082897,363.8363836383638 L 222.717848326642,363.6363636363636 L 220.5643424140689,362.986298629863 L 218.18415166859333,361.1361136113611 L 216.8996042821462,359.58595859585955 L 215.38837206279663,355.93559355935594 L 213.80157823247959,353.6853685368537 L 211.1947026541016,351.8351835183518 L 206.7365676070204,349.6349634963496 L 205.45202022057325,348.7348734873487 L 204.77196572186594,347.2847284728473 L 203.8652263902562,341.98419841984196 L 203.44963752993507,340.6340634063406 L 202.20287094897168,338.98389838983894 L 200.2004882583335,337.73377337733774 L 183.72805706742326,331.8331833183318 L 180.6678118232404,330.18301830183015 L 179.04323718743962,328.98289828982894 L 177.15419691325266,328.2828282828283 L 174.5851021403584,327.982798279828 L 164.68653110361876,329.3329332933293 L 163.47754532813912,329.032903290329 L 161.92853230330581,326.982698269827 L 161.39960102653345,325.6325632563256 L 160.90845055524485,325.0825082508251 L 159.77502639073268,324.4324432443244 L 156.9036851739685,323.18231823182316 L 148.47856555109468,320.5320532053205 L 145.72056675078173,319.2319231923192 L 143.86930728207852,317.93179317931794 L 142.73588311756635,316.4816481648165 L 142.0180478133753,315.18151815181517 L 141.94248620240782,313.5313531353135 L 142.66032150659885,309.3809380938094 L 142.81144472853381,306.9306930693069 L 142.47141747918016,305.1305130513051 L 141.48911653660295,303.4303430343034 L 138.23996726500138,300.2300230023002 L 137.33322793339164,298.62986298629863 L 137.29544712790792,296.979697969797 L 137.7865975991965,294.9294929492949 L 138.12662484855016,292.37923792379235 L 137.7865975991965,289.5789578957896 L 137.06876229500548,286.67866786678667 L 136.76651585113555,283.67836783678365 L 137.40878954435914,278.4278427842784 L 137.52213196081036,276.1276127612761 L 136.8042966566193,274.67746774677465 L 135.36862604823722,273.57735773577355 L 133.06399691372914,272.87728772877284 L 129.9281900585788,273.027302730273 L 126.52791756504226,274.027402740274 L 120.59633110409523,278.3778377837784 L 118.29170196958714,280.4780478047805 L 116.8182505557213,282.2282228222822 L 115.8359496131441,282.67826782678264 L 114.21137497734331,282.97829782978295 L 110.58441765090436,283.1283128312831 L 108.09088448897758,282.97829782978295 L 106.31518663124184,282.4282428242824 L 103.93499588576628,281.3281328132813 L 101.02587386351837,281.47814781478144 L 88.2181808045308,284.4284428442844 L 86.6691677796975,284.6284628462846 L 84.96903153292925,285.4285428542854 L 83.64670334099837,286.7286728672867 L 81.53097823390898,290.02900290029004 L 79.18856829391716,294.7294729472947 L 78.39517137875865,295.9295929592959 L 77.56399365811639,296.8296829682968 L 35.85398440406841,323.48234823482346 L 32.37815029956441,324.9324932493249 z" /><path fill-rule="evenodd" fill="#D2EBD9" stroke="#A6A6A6" stroke-width="0.25" opacity="1" d="M 28.977877806027895,168.66686668666867 L 33.889382518913976,154.16541654165417 L 37.62968226180415,148.4148414841484 L 45.71477463532432,139.81398139813982 L 48.73723907402344,135.11351135113512 L 50.39959451530797,128.8128812881288 L 50.059567265954314,120.9120912091209 L 47.1504452437064,108.4108410841084 L 48.32165021370231,100.51005100510051 L 54.66882553497049,89.5089508950895 L 83.76004575744959,63.05630563056305 L 97.24779331514446,42.55425542554255 L 101.6303667512582,38.15381538153815 L 105.8995977709207,35.25352535253525 L 191.51090299707352,5.6005600560056 L 210.5146481553943,1.7001700170017 L 335.5691143065707,0.0 L 335.4179910846358,4.2004200420042 L 334.5868133639935,7.85078507850785 L 333.15114275561143,11.25112511251125 L 331.22432167594076,14.701470147014701 L 329.6375278456237,19.35193519351935 L 328.73078851401397,49.004900490049 L 320.4567921130751,49.5049504950495 L 319.2100255321117,49.75497549754975 L 318.3410670059857,50.405040504050405 L 318.79443667179055,53.905390539053904 L 318.7188750608231,55.255525552555255 L 317.9632589511483,56.005600560056 L 315.6586298166402,56.405640564056405 L 310.7093442982704,56.7056705670567 L 308.4047151637623,57.1057105710571 L 306.51567488957534,57.8057805780578 L 305.8734011963518,59.55595559555955 L 305.6844971689331,60.956095609560954 L 305.986743612803,66.45664566456645 L 305.6089355579656,67.45674567456746 L 304.6266346153884,68.2068206820682 L 295.67258371574223,71.8071807180718 L 292.91458491542926,72.60726072607261 L 290.3077093370513,72.85728572857285 L 288.07864181351067,73.4073407340734 L 286.52962878867737,74.75747574757476 L 281.3536584374051,87.3087308730873 L 279.65352219063686,89.25892589258926 L 276.9710850012914,90.25902590259025 L 274.59089425581584,90.2090209020902 L 266.35467866036066,88.008800880088 L 263.6344606655315,87.7087708770877 L 260.83868105973477,88.05880588058805 L 258.26958628684054,88.85888588858886 L 255.66271070846253,90.1090109010901 L 242.93057926044244,97.9097909790979 L 235.97891105143444,103.26032603260326 L 231.02962553306463,108.8108810881088 L 228.3094075382354,111.1111111111111 L 226.00477840372733,112.56125612561256 L 222.22669785535342,113.7113711371137 L 220.79102724697134,113.26132613261325 L 219.2042334166543,112.2112211221122 L 217.54187797536977,111.8111811181118 L 215.91730333956897,112.46124612461246 L 213.95270145441455,114.16141614161415 L 210.2501825170081,118.26182618261825 L 208.7011694921748,120.46204620462045 L 202.84514464219527,131.16311631163114 L 202.05174772703674,133.4133413341334 L 202.92070625316273,136.16361636163614 L 203.9407880012237,138.26382638263826 L 207.52996452217891,144.014401440144 L 209.38122399088212,148.2148214821482 L 214.4816327311869,154.51545154515452 L 215.8417417286015,156.96569656965696 L 216.48401542182506,159.46594659465947 L 215.8417417286015,163.21632163216321 L 215.87952253408525,165.6165616561656 L 216.37067300537385,167.86678667866786 L 218.6375213343982,172.16721672167216 L 219.5064798605242,174.26742674267425 L 218.03302844665836,175.66756675667565 L 216.06842656150394,176.7176717671767 L 199.67155698156117,176.1176117611761 L 188.2995345309557,178.11781178117812 L 182.44350968097615,176.96769676967696 L 177.90981302292744,174.017401740174 L 175.98299194325676,172.36723672367236 L 174.32063650197222,170.4170417041704 L 171.94044575649667,168.16681668166817 L 169.29578937263494,167.1167116711671 L 156.0347266478425,165.8165816581658 L 154.10790556817182,164.96649664966495 L 153.08782382011086,164.06640664066407 L 152.89891979269217,162.8162816281628 L 152.25664609946858,161.46614661466145 L 151.27434515689137,160.01600160016 L 148.55412716206217,157.9157915791579 L 147.5340454140012,156.5156515651565 L 146.81621010981016,155.16551655165514 L 146.58952527690772,153.76537653765376 L 146.32505963852157,149.41494149414942 L 145.41832030691182,149.16491649164917 L 143.5670608382086,149.61496149614962 L 130.68380616825357,159.31593159315932 L 127.69912253503817,161.06610661066105 L 124.44997326343662,161.66616661666166 L 121.72975526860739,160.76607660766075 L 119.19844130119688,159.46594659465947 L 116.8182505557213,158.91589158915892 L 113.60688208960349,158.91589158915892 L 109.86658234671332,157.8157815781578 L 94.71647934773394,149.71497149714972 L 82.05990951068134,139.71397139713972 L 80.88870454068542,139.46394639463946 L 80.39755406939682,140.26402640264027 L 80.54867729133177,141.8141814181418 L 80.85092373520169,143.5143514351435 L 82.21103273261629,147.7147714771477 L 81.98434789971385,148.9148914891489 L 78.01736332392124,154.11541154115412 L 77.18618560327899,155.66556655665565 L 77.07284318682777,156.9156915691569 L 77.56399365811639,158.41584158415841 L 77.97958251843751,160.56605660566055 L 78.01736332392124,163.21632163216321 L 77.6773360745676,167.8167816781678 L 77.18618560327899,169.6169616961696 L 76.27944627166926,171.1171117111711 L 73.86147472070995,173.56735673567357 L 71.25459914233195,174.26742674267425 L 68.6855043694377,174.26742674267425 L 58.78693333269805,172.017201720172 L 52.32641559497866,171.7171717171717 L 49.11504712886084,173.16731673167317 L 46.01702107919423,175.86758675867586 L 44.77025449823084,176.7176717671767 L 44.090199999523534,176.7176717671767 L 43.712391944686146,176.06760676067606 L 42.50340616920649,175.4175417541754 L 33.020423992787975,173.01730173017302 L 28.977877806027895,168.66686668666867 z" /></g></g></g></svg>