<svg xmlns="http://www.w3.org/2000/svg" xmlns:xlink="http://www.w3.org/1999/xlink" width="316.3529455401003" height="500.0" viewBox="0.0 0.0 316.3529455401003 500.0" preserveAspectRatio="xMinYMin meet"><g transform="matrix(1,0,0,-1,0,500.0)"><g><g><path fill-rule="evenodd" fill="#D2EBD9" stroke="#A6A6A6" stroke-width="0.25" opacity="1" d="M 4.777407218377352,216.17161716171617 L 2.8474612559865013,215.97159715971597 L 0.9807922103953505,215.12151215121511 L 0.0,213.7213721372137 L 0.0,211.92119211921192 L 0.9807922103953505,208.17081708170815 L 4.745768759977502,190.96909690969096 L 18.47685970551241,171.66716671667166 L 29.107381727862013,171.76717671767176 L 29.613597062259615,171.4171417141714 L 30.974050773453165,169.26692669266924 L 46.793279973378176,169.26692669266924 L 47.07802609897682,169.56695669566955 L 47.710795266973825,171.36713671367136 L 47.868987558973075,172.26722672267226 L 47.29949530777577,174.2174217421742 L 46.63508768137892,175.06750675067505 L 46.508533847779525,176.16761676167616 L 46.22378772218087,176.86768676867686 L 46.22378772218087,177.06770677067706 L 46.47689538937967,177.26772677267726 L 49.41927202056572,176.2176217621762 L 51.66560256695507,175.6175617561756 L 51.91871023415388,175.46754675467545 L 52.04526406775327,174.7174717471747 L 53.12097165334818,174.06740674067404 L 53.72210236294533,173.41734173417342 L 54.22831769734292,172.46724672467246 L 54.671256114940824,172.4172417241724 L 55.272386824537975,173.76737673767377 L 55.77860215893558,173.9173917391739 L 56.15826365973378,173.61736173617362 L 56.411371326932574,173.66736673667367 L 57.96165578852523,174.96749674967495 L 58.08820962212463,175.36753675367535 L 57.93001733012538,175.86758675867586 L 57.58199428772703,176.16761676167616 L 56.12662520133393,176.4176417641764 L 55.74696370053573,176.66766676667666 L 52.994417819748776,180.7180718071807 L 53.468994695746524,181.018101810181 L 57.613632746126875,181.7181718171817 L 59.54357870851773,179.2179217921792 L 63.40347063329943,177.41774177417741 L 57.86674041332568,192.46924692469247 L 52.96277936134893,192.41924192419242 L 43.787626425392425,190.16901690169016 L 42.30061888059947,190.46904690469046 L 41.76276508780202,190.4190419041904 L 40.71869596060697,189.7189718971897 L 40.43394983500832,189.96899689968996 L 35.878011825429915,197.31973197319732 L 33.50512744544117,199.7199719971997 L 30.879135398253617,203.37033703370335 L 29.803427812658715,203.9203920392039 L 27.841843391868014,204.1204120412041 L 27.240712682270864,204.3204320432043 L 25.785343595877762,206.27062706270627 L 24.393251426284362,206.72067206720672 L 22.24183625509456,208.97089708970896 L 21.03957483590026,209.67096709670966 L 20.50172104310281,211.87118711871187 L 20.18533645910431,212.2212221222122 L 19.67912112470671,212.3212321232123 L 19.17290579030911,213.021302130213 L 18.76160583111106,213.27132713271325 L 17.05312907751916,213.37133713371335 L 16.42035990952216,214.1214121412141 L 15.059906198328607,214.57145714571456 L 10.092668229552155,214.87148714871486 L 8.953683727157554,216.02160216021602 L 8.605660684759204,216.12161216121612 L 4.777407218377352,216.17161716171617 z" /><path fill-rule="evenodd" fill="#D2EBD9" stroke="#A6A6A6" stroke-width="0.25" opacity="1" d="M 267.72463497953083,106.46064606460645 L 268.9901733155248,106.7106710671067 L 270.19243473471914,107.81078107810781 L 271.8692730299112,107.61076107610761 L 272.12238069711,107.86078607860786 L 272.8184267819067,107.26072607260726 L 273.4511959499037,107.2107210721072 L 274.81164966109725,107.46074607460746 L 275.91899570509196,107.06070607060705 L 277.27944941628556,107.06070607060705 L 278.38679546028027,106.76067606760675 L 279.1461184618767,106.1106110611061 L 280.981149049068,105.56055605560556 L 282.6263488858602,105.36053605360536 L 283.7969718466546,109.66096609660966 L 284.46137947305147,110.51105110511051 L 284.65121022345056,112.06120612061206 L 285.4738101418467,114.2114211421142 L 285.410533225047,115.5115511551155 L 284.65121022345056,117.81178117811781 L 284.23991026425256,119.96199619961996 L 283.7969718466546,120.36203620362035 L 280.2534645058714,120.06200620062006 L 279.93707992187296,120.21202120212021 L 279.84216454667336,121.4121412141214 L 279.082841545077,122.11221122112211 L 275.6342495794933,123.46234623462345 L 274.5585419938984,124.51245124512451 L 273.6410267003028,125.8125812581258 L 273.03989599070565,127.21272127212721 L 272.88170369870636,128.7128712871287 L 274.5585419938984,138.16381638163816 L 275.0963957866959,139.71397139713972 L 275.1596727034956,140.7140714071407 L 275.00148041149635,140.86408640864084 L 274.7483727442975,140.41404140414042 L 274.3370727850995,140.66406640664064 L 273.16644982430506,140.46404640464047 L 271.2365038619142,139.86398639863987 L 270.50881931871766,139.4139413941394 L 271.2997807787139,142.8142814281428 L 271.2365038619142,143.9143914391439 L 269.0218117739247,150.76507650765075 L 268.0093811051295,152.36523652365236 L 267.9461041883298,152.7152715271527 L 268.6421502731265,153.71537153715371 L 270.1607962763193,157.26572657265726 L 269.7494963171212,157.66576657665766 L 266.6805658523358,158.81588158815882 L 262.91558930275363,161.36613661366135 L 262.0613509259577,160.06600660066005 L 261.08055871556235,159.11591159115912 L 259.9415742131677,158.46584658465846 L 257.34722062438004,157.9157915791579 L 256.08168228838605,157.9157915791579 L 254.84778241079187,158.16581658165816 L 253.77207482519697,158.66586658665867 L 253.17094411559984,159.26592659265927 L 252.00032115480536,161.5161516151615 L 251.05116740280988,162.9162916291629 L 247.66585235402593,164.01640164016402 L 243.9957911796433,165.6165616561656 L 241.24324529885638,164.66646664666465 L 238.1743148340709,162.76627662766276 L 235.39013049488412,159.96599659965995 L 233.87148449169132,159.31593159315932 L 232.63758461409716,159.6159615961596 L 229.56865414931173,159.96599659965995 L 226.21497755892761,159.01590159015902 L 222.2285318005465,160.56605660566055 L 222.2285318005465,163.41634163416342 L 221.91214721654802,165.6165616561656 L 219.4443474613597,165.9165916591659 L 217.32457074856976,166.56665666566656 L 217.00818616457124,170.66706670667065 L 209.03529464780905,170.66706670667065 L 205.55506422382555,172.1172117211721 L 204.54263355503036,170.56705670567055 L 196.3482728294692,168.81688168816882 L 196.12680362067024,168.71687168716872 L 196.4115497462689,168.31683168316832 L 200.80929546384806,164.96649664966495 L 200.9674877558473,164.86648664866485 L 201.63189538224415,164.96649664966495 L 201.9166415078428,164.56645664566454 L 201.9166415078428,162.96629662966296 L 201.4737030902449,162.3162316231623 L 200.39799550465,162.1162116211621 L 198.1833034166605,159.01590159015902 L 198.21494187506033,158.61586158615862 L 199.35392637745494,157.4157415741574 L 199.5753955862539,157.015701570157 L 199.54375712785404,156.76567656765675 L 198.02511112466124,155.66556655665565 L 197.07595737266575,154.31543154315432 L 195.968611328671,153.2153215321532 L 195.27256524387428,152.16521652165216 L 194.16521919987954,151.015101510151 L 193.27934236468374,149.01490149014901 L 191.34939640229288,143.5143514351435 L 191.31775794389304,141.16411641164115 L 191.8556117366905,139.96399639963997 L 192.14035786228914,138.013801380138 L 192.45674244628765,137.7137713771377 L 195.27256524387428,137.76377637763775 L 195.05109603507535,140.21402140214022 L 195.2092883270746,140.56405640564054 L 195.5256729110731,140.66406640664064 L 203.3720105942359,140.9140914091409 L 204.22624897103185,140.7140714071407 L 204.8906565974287,140.46404640464047 L 212.3573327797933,135.41354135413542 L 227.607069728521,127.76277627762775 L 234.59916903488786,126.1126112611261 L 251.39919044520823,129.2129212921292 L 251.93704423800568,129.2129212921292 L 253.55060561639803,128.36283628362835 L 258.1381820843763,127.01270127012701 L 259.245528128371,126.06260626062605 L 267.72463497953083,106.46064606460645 z" /><path fill-rule="evenodd" fill="#D2EBD9" stroke="#A6A6A6" stroke-width="0.25" opacity="1" d="M 267.72463497953083,106.46064606460645 L 259.245528128371,126.06260626062605 L 258.1381820843763,127.01270127012701 L 253.55060561639803,128.36283628362835 L 251.93704423800568,129.2129212921292 L 251.39919044520823,129.2129212921292 L 234.59916903488786,126.1126112611261 L 227.607069728521,127.76277627762775 L 212.3573327797933,135.41354135413542 L 204.8906565974287,140.46404640464047 L 204.22624897103185,140.7140714071407 L 203.3720105942359,140.9140914091409 L 195.5256729110731,140.66406640664064 L 195.2092883270746,140.56405640564054 L 195.05109603507535,140.21402140214022 L 195.27256524387428,137.76377637763775 L 192.45674244628765,137.7137713771377 L 192.14035786228914,138.013801380138 L 191.8556117366905,139.96399639963997 L 191.31775794389304,141.16411641164115 L 185.9708584743184,141.46414641464145 L 179.76972062794778,143.16431643164316 L 178.3776284583544,143.36433643364336 L 173.25219819757868,138.46384638463846 L 175.3403364519688,135.06350635063507 L 175.49852874396802,134.56345634563456 L 175.2770595351691,133.7133713371337 L 172.39795982078275,128.46284628462845 L 171.54372144398678,127.8127812781278 L 168.88609093839938,126.81268126812681 L 168.25332177040238,126.71267126712671 L 167.2408911016072,129.06290629062906 L 166.76631422560942,129.5129512951295 L 163.28608380162592,129.46294629462946 L 162.8747838424279,129.36293629362936 L 162.62167617522908,128.66286628662866 L 162.05218392403177,119.76197619761976 L 162.49512234162967,118.4118411841184 L 163.22280688482624,118.26182618261825 L 163.85557605282324,117.61176117611761 L 164.51998367922008,117.51175117511751 L 165.15275284721707,116.66166616661666 L 165.9120758488135,116.36163616361635 L 167.58891414400554,115.21152115211521 L 168.44315252080148,115.01150115011501 L 168.79117556319983,114.5114511451145 L 169.61377548159592,114.26142614261425 L 170.75275998399053,113.46134613461345 L 171.67027527758617,113.4113411341134 L 172.14485215358394,113.01130113011301 L 173.3154751143784,112.46124612461246 L 174.35954424157345,112.2112211221122 L 175.02395186797028,111.6111611161116 L 176.1629363703649,111.011101110111 L 177.33355933115934,111.06110611061105 L 177.61830545675798,110.9110911091109 L 178.47254383355394,109.8109810981098 L 179.35842066874974,109.6109610961096 L 180.5290436295442,109.76097609760976 L 181.19345125594103,109.16091609160915 L 181.63638967353893,109.010901090109 L 182.4906280503349,109.06090609060905 L 183.5663356359298,108.4108410841084 L 184.2623817207265,108.26082608260826 L 184.73695859672424,107.86078607860786 L 185.55955851512033,107.61076107610761 L 186.6669045591151,106.010601060106 L 187.3629506439118,105.71057105710571 L 187.4895044775112,105.31053105310531 L 186.69854301751494,104.66046604660465 L 187.01492760151345,98.80988098809881 L 186.44543535031613,96.15961596159616 L 184.86351243032365,88.25882588258825 L 185.17989701432214,86.2086208620862 L 185.55955851512033,85.8085808580858 L 185.87594309911884,84.95849584958495 L 185.93922001591855,84.15841584158416 L 185.65447389031988,83.45834583458345 L 185.27481238952168,83.008300830083 L 185.17989701432214,82.05820582058206 L 184.80023551352394,81.5081508150815 L 184.83187397192378,80.6080608060806 L 184.10418942872724,80.1080108010801 L 183.85108176152843,79.60796079607961 L 186.2239661415172,75.1075107510751 L 194.67143453427715,48.8048804880488 L 195.0194575766755,48.85488548854885 L 195.7787805782719,49.404940494049406 L 196.50646512146844,49.45494549454945 L 196.69629587186753,50.05500550055005 L 196.9177650806665,50.2050205020502 L 197.13923428946543,50.1050105010501 L 197.23414966466498,49.6049604960496 L 197.4239804150641,49.6049604960496 L 197.6138111654632,49.7049704970497 L 197.64544962386304,50.2050205020502 L 198.53132645905885,50.95509550955095 L 198.78443412625765,51.05510551055105 L 199.7019494198533,50.85508550855085 L 199.73358787825316,51.35513551355135 L 199.98669554545194,51.455145514551454 L 200.8409339222479,50.555055505550555 L 201.3471492566455,50.405040504050405 L 202.64432605103934,51.15511551155115 L 203.08726446863724,51.25512551255125 L 203.7516720950341,50.95509550955095 L 204.41607972143095,50.405040504050405 L 205.0172104310281,50.555055505550555 L 207.51664864461625,50.405040504050405 L 208.0545024374137,50.505050505050505 L 209.09857156460876,51.15511551155115 L 209.7629791910056,51.05510551055105 L 210.3957483590026,51.705170517051705 L 211.18670981899885,53.1053105310531 L 211.94603282059526,53.35533553355335 L 212.1042251125945,53.65536553655365 L 211.5980097781969,55.105510551055104 L 212.73699428059152,55.65556555655565 L 212.9901019477903,56.65566556655665 L 213.90761724138596,56.255625562556254 L 214.5087479509831,56.255625562556254 L 215.0149632853807,56.05560556055605 L 216.75507849737247,56.05560556055605 L 216.37541699657424,57.3057305730573 L 219.25451671096062,58.555855585558554 L 219.47598591975955,58.35583558355835 L 220.013839712557,59.25592559255925 L 220.48841658855477,59.45594559455945 L 220.67824733895387,59.755975597559754 L 221.50084725734996,59.55595559555955 L 221.9754241333477,61.6061606160616 L 222.95621634374305,62.156215621562154 L 224.1268393045375,63.406340634063405 L 224.47486234693585,64.2064206420642 L 225.42401609893136,64.8064806480648 L 225.7720391413297,65.45654565456546 L 226.21497755892761,65.20652065206521 L 226.02514680852852,66.05660566056605 L 226.43644676772655,66.2066206620662 L 226.62627751812565,66.6066606660666 L 226.75283135172506,68.1068106810681 L 227.16413131092312,68.9068906890689 L 227.25904668612267,69.5069506950695 L 227.51215435332145,69.80698069806981 L 228.17656197971831,70.25702570257026 L 228.71441577251576,69.80698069806981 L 229.53701569091186,70.4070407040704 L 229.8850387333102,70.4070407040704 L 229.94831565010992,71.05710571057105 L 230.7076386517063,72.7072707270727 L 232.60594615569732,73.85738573857385 L 232.9223307396958,74.75747574757476 L 234.8839151604865,76.90769076907691 L 236.52911499727873,76.15761576157615 L 236.94041495647676,76.1076107610761 L 237.98448408367182,76.5076507650765 L 238.96527629406717,77.45774577457745 L 239.75623775406342,78.7078707870787 L 241.30652221565606,82.3082308230823 L 242.16076059245202,83.4083408340834 L 243.10991434444753,84.00840084008401 L 244.12234501324272,83.75837583758376 L 246.43195247643177,84.45844584458446 L 247.41274468682712,86.1086108610861 L 248.33025998042277,86.35863586358636 L 248.45681381402218,86.65866586658666 L 248.26698306362306,87.65876587658765 L 248.36189843882264,88.3088308830883 L 249.27941373241828,89.85898589858985 L 249.0579445236193,90.1090109010901 L 249.08958298201918,90.7090709070907 L 248.26698306362306,91.85918591859185 L 247.91896002122473,93.55935593559356 L 247.91896002122473,94.75947594759475 L 248.42517535562232,96.75967596759675 L 248.83647531482038,97.009700970097 L 249.81726752521573,97.2097209720972 L 250.29184440121347,97.75977597759776 L 251.7472134876066,98.05980598059806 L 252.66472878120223,97.7097709770977 L 253.6138825331977,98.65986598659866 L 254.53139782679338,99.3099309930993 L 256.8726437483823,100.0100010001 L 257.18902833238076,100.36003600360036 L 256.9042822067821,100.96009600960096 L 257.3155821659802,102.010201020102 L 257.6636052083785,102.6102610261026 L 258.23309745957584,102.86028602860286 L 261.2071125491617,102.66026602660266 L 262.0613509259577,102.2102210221022 L 262.4726508851557,102.86028602860286 L 262.7890354691542,103.8103810381038 L 263.95965842994866,104.96049604960496 L 264.3709583891467,105.26052605260526 L 265.0670044739434,105.06050605060506 L 266.3325428099374,106.010601060106 L 267.72463497953083,106.46064606460645 z" /><path fill-rule="evenodd" fill="#D2EBD9" stroke="#A6A6A6" stroke-width="0.25" opacity="1" d="M 194.67143453427715,48.8048804880488 L 186.2239661415172,75.1075107510751 L 183.85108176152843,79.60796079607961 L 184.10418942872724,80.1080108010801 L 184.83187397192378,80.6080608060806 L 184.80023551352394,81.5081508150815 L 185.17989701432214,82.05820582058206 L 185.27481238952168,83.008300830083 L 185.65447389031988,83.45834583458345 L 185.93922001591855,84.15841584158416 L 185.87594309911884,84.95849584958495 L 185.55955851512033,85.8085808580858 L 185.17989701432214,86.2086208620862 L 184.86351243032365,88.25882588258825 L 186.44543535031613,96.15961596159616 L 184.99006626392304,95.35953595359535 L 185.02170472232288,95.05950595059505 L 184.10418942872724,93.80938093809381 L 183.66125101112934,94.15941594159415 L 183.4397818023304,94.15941594159415 L 183.3765048855307,93.60936093609361 L 182.71209725913383,92.4092409240924 L 180.62395900474374,92.009200920092 L 180.2759359623454,92.15921592159215 L 180.24429750394555,92.6092609260926 L 179.9595513783469,92.6092609260926 L 178.25107462475498,91.8091809180918 L 176.7957055383619,90.1090109010901 L 176.6691517047625,89.7089708970897 L 176.76406707996205,89.20892089208921 L 176.32112866236415,89.00890089008901 L 176.19457482876473,88.2088208820882 L 175.1505057015697,87.95879587958795 L 175.5301672023679,87.4087408740874 L 175.43525182716834,86.80868086808681 L 175.7832748695667,86.45864586458646 L 175.18214415996954,86.25862586258626 L 174.96067495117057,85.8085808580858 L 174.16971349117435,85.25852585258525 L 173.44202894797778,84.00840084008401 L 172.4928751959823,83.5083508350835 L 171.8601060279853,82.35823582358235 L 171.6069983607865,81.5081508150815 L 170.91095227598979,81.45814581458146 L 170.43637539999204,81.05810581058105 L 170.15162927439337,81.05810581058105 L 169.07592168879847,79.35793579357936 L 167.81038335280448,78.1078107810781 L 166.63976039201003,77.5077507750775 L 164.99456055521782,77.30773077307731 L 160.53353792083897,77.15771577157716 L 159.55274571044362,73.8073807380738 L 157.59116128965292,73.25732573257325 L 157.36969208085398,73.25732573257325 L 156.2623460368592,74.25742574257426 L 155.31319228486373,74.35743574357436 L 154.68042311686673,74.65746574657466 L 154.96516924246538,77.35773577357736 L 154.87025386726583,77.95779577957795 L 154.17420778246913,78.3078307830783 L 153.8578231984706,79.007900790079 L 152.6239233208765,80.1080108010801 L 151.86460031928007,80.4080408040804 L 150.15612356568818,82.85828582858285 L 148.09962376969793,83.55835583558355 L 147.15047001770242,84.50845084508451 L 144.58775488731456,84.85848584858485 L 144.2397318449162,85.2085208520852 L 143.51204730171966,85.55855585558555 L 143.22730117612102,86.1086108610861 L 142.2781474241255,86.25862586258626 L 141.93012438172718,86.60866086608661 L 141.48718596412928,86.70867086708671 L 141.13916292173093,87.6087608760876 L 140.82277833773242,87.8087808780878 L 140.41147837853435,87.8087808780878 L 140.00017841933632,87.45874587458745 L 139.71543229373768,87.5087508750875 L 139.33577079293946,87.85878587858785 L 138.3549785825441,88.1088108810881 L 137.81712478974666,87.8087808780878 L 134.59000203296196,88.95889588958896 L 131.45779465137682,91.75917591759175 L 122.6623032162185,91.45914591459146 L 116.52444228664761,71.7071707170717 L 117.06229607944506,71.65716571657165 L 119.46681891783366,70.45704570457045 L 122.31428017382017,68.3068306830683 L 122.94704934181716,67.65676567656766 L 123.48490313461461,66.75667566756675 L 122.72558013301821,64.7064706470647 L 124.02275692741206,63.85638563856385 L 124.84535684580815,62.55625562556255 L 125.38321063860562,60.6060606060606 L 128.04084114419302,60.7060706070607 L 128.67361031219002,59.955995599559955 L 129.30637948018702,58.755875587558755 L 130.5086408993813,55.7055705570557 L 132.24875611137307,55.155515551555155 L 136.51994799535282,52.955295529552956 L 138.98774775054113,52.855285528552855 L 140.91769371293196,52.55525552555255 L 141.61373979772867,51.705170517051705 L 141.04424754653138,51.25512551255125 L 140.91769371293196,50.355035503550354 L 140.28492454493497,49.154915491549154 L 139.39904770973916,48.104810481048105 L 138.57644779134307,47.5047504750475 L 137.65893249774743,47.5047504750475 L 137.34254791374892,47.35473547354735 L 136.77305566255163,46.854685468546855 L 135.98209420255537,47.4047404740474 L 135.66570961855686,47.1047104710471 L 135.28604811775867,43.85438543854385 L 135.5075173265576,43.55435543554355 L 135.47587886815776,43.354335433543355 L 135.0645789089597,43.154315431543154 L 134.77983278336106,42.6042604260426 L 134.8747481585606,42.3042304230423 L 136.42503262015327,41.5041504150415 L 137.0894402465501,40.904090409040904 L 137.34254791374892,39.9039903990399 L 136.86797103775118,37.253725372537254 L 137.0261633297504,35.35353535353535 L 137.59565558094772,34.003400340034 L 138.70300162494246,33.25332533253325 L 139.30413233453962,32.3032303230323 L 139.36740925133932,30.653065306530653 L 139.77870921053736,29.352935293529352 L 140.50639375373393,28.002800280028 L 140.66458604573316,26.8026802680268 L 140.47475529533406,23.002300230023 L 141.36063213052986,18.95189518951895 L 141.93012438172718,17.15171517151715 L 151.92787723607978,17.451745174517452 L 154.33240007446838,17.95179517951795 L 155.21827690966418,19.251925192519252 L 155.21827690966418,20.7020702070207 L 155.8194076192613,21.9021902190219 L 156.86347674645637,22.802280228022802 L 158.12901508245037,23.452345234523452 L 160.40698408723958,24.3024302430243 L 161.07139171363642,24.9024902490249 L 162.33693004963044,26.8026802680268 L 163.72902221922382,28.3028302830283 L 164.29851447042114,29.6029602960296 L 167.30416801840687,33.05330533053305 L 168.50642943760118,35.5035503550355 L 169.13919860559818,35.85358535853585 L 169.42394473119683,36.303630363036305 L 170.40473694159218,37.003700370037 L 169.80360623199502,37.7037703770377 L 168.41151406240164,38.653865386538655 L 168.126767936803,39.15391539153915 L 164.55162213761994,40.65406540654065 L 164.2035990952216,40.954095409540955 L 163.98212988642263,41.85418541854185 L 163.7606606776237,42.154215421542155 L 163.28608380162592,41.85418541854185 L 162.77986846722834,42.3042304230423 L 162.77986846722834,42.75427542754275 L 163.44427609362518,43.75437543754375 L 163.98212988642263,43.65436543654365 L 164.2035990952216,43.8043804380438 L 164.36179138722082,44.354435443544354 L 165.84879893201378,45.004500450045 L 166.22846043281197,45.554555455545554 L 167.33580647680674,46.4046404640464 L 168.50642943760118,47.004700470047005 L 169.70869085679547,47.3047304730473 L 171.73355219438588,46.904690469046905 L 171.92338294478498,46.954695469546955 L 172.08157523678423,47.3047304730473 L 172.46123673758242,47.45474547454745 L 174.29626732477374,47.7047704770477 L 174.58101345037238,47.7047704770477 L 175.56180566076773,47.15471547154715 L 175.84655178636638,47.5047504750475 L 176.70079016316234,47.05470547054705 L 177.77649774875724,46.854685468546855 L 179.32678221034988,47.4047404740474 L 179.61152833594855,47.25472547254725 L 181.88949734073773,47.3047304730473 L 182.33243575833563,47.1047104710471 L 182.61718188393428,47.3047304730473 L 183.31322796873098,47.25472547254725 L 184.1991048039268,47.65476547654765 L 185.11662009752243,47.8047804780478 L 185.90758155751868,47.3047304730473 L 186.38215843351645,47.5047504750475 L 187.71097368631015,47.5047504750475 L 188.84995818870473,48.054805480548055 L 190.24205035829814,48.35483548354835 L 193.3742577398833,48.25482548254825 L 193.78555769908135,48.45484548454845 L 194.1335807414797,48.95489548954895 L 194.67143453427715,48.8048804880488 z" /><path fill-rule="evenodd" fill="#D2EBD9" stroke="#A6A6A6" stroke-width="0.25" opacity="1" d="M 141.93012438172718,17.15171517151715 L 141.36063213052986,18.95189518951895 L 140.47475529533406,23.002300230023 L 140.66458604573316,26.8026802680268 L 140.50639375373393,28.002800280028 L 139.77870921053736,29.352935293529352 L 139.36740925133932,30.653065306530653 L 139.30413233453962,32.3032303230323 L 138.70300162494246,33.25332533253325 L 137.59565558094772,34.003400340034 L 137.0261633297504,35.35353535353535 L 136.86797103775118,37.253725372537254 L 137.34254791374892,39.9039903990399 L 137.0894402465501,40.904090409040904 L 136.42503262015327,41.5041504150415 L 134.8747481585606,42.3042304230423 L 134.77983278336106,42.6042604260426 L 135.0645789089597,43.154315431543154 L 135.47587886815776,43.354335433543355 L 135.5075173265576,43.55435543554355 L 135.28604811775867,43.85438543854385 L 135.66570961855686,47.1047104710471 L 135.98209420255537,47.4047404740474 L 136.77305566255163,46.854685468546855 L 137.34254791374892,47.35473547354735 L 137.65893249774743,47.5047504750475 L 138.57644779134307,47.5047504750475 L 139.39904770973916,48.104810481048105 L 140.28492454493497,49.154915491549154 L 140.91769371293196,50.355035503550354 L 141.04424754653138,51.25512551255125 L 141.61373979772867,51.705170517051705 L 140.91769371293196,52.55525552555255 L 138.98774775054113,52.855285528552855 L 136.51994799535282,52.955295529552956 L 132.24875611137307,55.155515551555155 L 130.5086408993813,55.7055705570557 L 129.30637948018702,58.755875587558755 L 128.67361031219002,59.955995599559955 L 128.04084114419302,60.7060706070607 L 125.38321063860562,60.6060606060606 L 124.84535684580815,62.55625562556255 L 124.02275692741206,63.85638563856385 L 122.72558013301821,64.7064706470647 L 122.12444942342105,65.25652565256526 L 121.0171033794263,65.65656565656565 L 120.28941883622976,66.4066406640664 L 119.9413957938314,66.45664566456645 L 118.70749591623726,65.85658565856585 L 117.44195758024325,65.8065806580658 L 115.82839620185091,65.10651065106511 L 114.27811174025825,65.15651565156516 L 112.75946573706545,64.15641564156415 L 112.6012734450662,63.456345634563455 L 112.94929648746455,63.15631563156315 L 113.1707656962635,62.306230623062305 L 112.82274265386515,60.6060606060606 L 112.91765802906471,58.605860586058604 L 108.77301997868436,55.255525552555255 L 108.51991231148556,54.85548554855485 L 108.9944891874833,54.25542554255425 L 111.81031198506996,52.1052105210521 L 112.18997348586815,51.605160516051605 L 109.78545064747955,49.004900490049 L 110.41821981547655,46.754675467546754 L 110.1334736898779,40.3040304030403 L 109.69053527228,39.003900390039 L 107.63403547628975,35.7035703570357 L 107.69731239308945,35.3035303530353 L 114.11991944825901,25.152515251525152 L 113.67698103066111,24.75247524752475 L 113.4238733634623,23.7023702370237 L 112.82274265386515,23.05230523052305 L 112.47471961146681,22.35223522352235 L 112.12669656906846,22.1022102210221 L 111.74703506827025,21.4021402140214 L 111.49392740107146,21.2021202120212 L 110.60805056587566,21.25212521252125 L 109.40578914668136,21.002100210021002 L 109.02612764588315,20.65206520652065 L 113.64534257226126,10.75107510751075 L 114.15155790665885,11.151115111511151 L 118.20128058183965,12.55125512551255 L 119.21371125063486,13.4013401340134 L 120.63744187862811,13.001300130013 L 120.98546492102646,13.201320132013201 L 121.2702110466251,13.9013901390139 L 121.74478792262286,14.25142514251425 L 124.05439538581192,14.701470147014701 L 124.65552609540906,15.001500150015001 L 125.25665680500622,15.851585158515851 L 125.8261490562035,16.05160516051605 L 127.0284104753978,16.05160516051605 L 131.17304852577817,15.35153515351535 L 132.40694840337233,15.301530153015301 L 133.57757136416677,15.5015501550155 L 135.98209420255537,16.4016401640164 L 138.76627854174217,17.1017101710171 L 141.93012438172718,17.15171517151715 z" /><path fill-rule="evenodd" fill="#D2EBD9" stroke="#A6A6A6" stroke-width="0.25" opacity="1" d="M 113.64534257226126,10.75107510751075 L 109.02612764588315,20.65206520652065 L 109.40578914668136,21.002100210021002 L 110.60805056587566,21.25212521252125 L 111.49392740107146,21.2021202120212 L 111.74703506827025,21.4021402140214 L 112.12669656906846,22.1022102210221 L 112.47471961146681,22.35223522352235 L 112.82274265386515,23.05230523052305 L 113.4238733634623,23.7023702370237 L 113.67698103066111,24.75247524752475 L 114.11991944825901,25.152515251525152 L 107.69731239308945,35.3035303530353 L 107.63403547628975,35.7035703570357 L 109.69053527228,39.003900390039 L 110.1334736898779,40.3040304030403 L 110.41821981547655,46.754675467546754 L 109.78545064747955,49.004900490049 L 106.58996634909471,48.004800480048004 L 104.18544351070611,47.954795479547954 L 96.62385195314195,49.9049904990499 L 93.6814753219559,51.005100510051 L 92.0995524019634,51.15511551155115 L 89.66339110517494,50.75507550755075 L 90.23288335637224,49.8049804980498 L 90.5176294819709,48.7048704870487 L 91.30859094196714,47.5047504750475 L 91.97299856836399,46.804680468046804 L 92.2261062355628,46.25462546254625 L 92.89051386195965,46.25462546254625 L 93.08034461235874,45.4045404540454 L 93.71311378035574,45.2045204520452 L 94.37752140675259,44.354435443544354 L 94.504075240352,43.9043904390439 L 94.53571369875185,43.254325432543254 L 92.00463702676385,39.35393539353935 L 91.340229400367,38.7038703870387 L 88.90406810357854,37.95379537953795 L 88.36621431078109,37.55375537553755 L 87.9865528099829,36.45364536453645 L 87.543614392385,36.203620362036204 L 85.23400692919594,35.95359535953595 L 80.96281504521619,34.65346534653465 L 79.57072287562279,33.5033503350335 L 76.72326161963629,32.003200320032 L 75.99557707643973,31.253125312531253 L 73.36958502925219,29.8029802980298 L 72.64190048605563,29.05290529052905 L 72.32551590205713,27.602760276027603 L 71.15489294126269,26.15261526152615 L 70.30065456446674,26.002600260026 L 68.43398551887559,26.302630263026302 L 67.54810868367979,25.95259525952595 L 66.66223184848398,24.95249524952495 L 65.80799347168804,24.8024802480248 L 65.01703201169178,24.45244524452445 L 63.87804750929718,24.3024302430243 L 63.561662925298684,24.4024402440244 L 63.34019371649973,24.95249524952495 L 62.67578609010288,24.9024902490249 L 62.16957075570528,25.1025102510251 L 62.07465538050573,25.5025502550255 L 62.23284767250498,26.002600260026 L 61.03058625331068,27.052705270527053 L 60.23962479331443,27.3027302730273 L 59.51194025011788,27.25272527252725 L 57.04414049492958,28.9028902890289 L 55.96843290933468,29.352935293529352 L 54.76617149014038,30.1030103010301 L 52.89950244454923,29.302930293029302 L 56.94922511973003,20.6020602060206 L 58.78425570692133,14.101410141014101 L 59.796686375716526,11.65116511651165 L 61.22041700370978,10.6010601060106 L 63.46674755009913,10.201020102010201 L 63.43510909169928,7.1007100710071 L 63.05544759090108,5.3005300530053 L 62.23284767250498,3.65036503650365 L 60.998947794910826,2.05020502050205 L 62.04301692210588,1.7001700170017 L 63.15036296610063,1.6501650165016502 L 65.33341659569028,1.9501950195019502 L 66.63059339008413,1.85018501850185 L 68.18087785167678,0.4000400040004 L 69.35150081247123,0.0 L 70.39556993966629,0.05000500050005 L 74.35037723964754,1.000100010001 L 75.86902324284034,1.8001800180018002 L 77.38766924603314,3.6003600360036003 L 77.89388458043074,3.9003900390039004 L 80.4565997108186,4.35043504350435 L 81.46903037961378,4.7004700470047 L 82.82948409080734,4.8004800480048 L 84.47468392759954,5.95059505950595 L 85.07581463719669,6.2006200620062 L 87.73344514278409,6.55065506550655 L 88.08146818518244,6.8006800680068 L 88.20802201878185,7.25072507250725 L 88.20802201878185,9.3009300930093 L 88.36621431078109,9.950995099509951 L 88.84079118677884,10.3010301030103 L 89.72666802197465,10.1010101010101 L 90.1379679811727,10.201020102010201 L 90.86565252436924,11.5011501150115 L 91.37186785876685,11.95119511951195 L 93.08034461235874,12.55125512551255 L 93.14362152915845,12.051205120512051 L 92.95379077875934,10.851085108510851 L 93.08034461235874,10.251025102510251 L 93.90294453075485,9.45094509450945 L 94.7571829075508,9.15091509150915 L 95.01029057474959,8.85088508850885 L 95.16848286674885,8.450845084508451 L 94.91537519955004,7.45074507450745 L 95.04192903314944,6.8006800680068 L 95.35831361714794,6.450645064506451 L 97.2249826627391,5.75057505750575 L 97.9210287475358,5.2005200520052 L 99.02837479153055,3.95039503950395 L 99.66114395952755,2.8502850285028503 L 100.10408237712545,2.6002600260026 L 100.80012846192214,2.65026502650265 L 101.7176437555178,3.4003400340034 L 102.2238590899154,3.4003400340034 L 102.2871360067151,3.65036503650365 L 102.0340283395163,4.1004100410041 L 102.25549754831525,4.7004700470047 L 102.57188213231375,5.1005100510051005 L 103.0464590083115,5.35053505350535 L 104.21708196910595,5.7005700570057005 L 106.0837510146971,5.8505850585058505 L 106.55832789069486,6.4006400640064 L 107.79222776828901,6.25062506250625 L 107.9820585186881,6.95069506950695 L 108.39335847788615,7.3007300730073 L 109.5007045218809,6.750675067506751 L 110.10183523147805,7.000700070007 L 112.2848888610677,9.350935093509351 L 112.94929648746455,9.45094509450945 L 113.07585032106395,10.05100510051005 L 113.64534257226126,10.75107510751075 z" /><path fill-rule="evenodd" fill="#D2EBD9" stroke="#A6A6A6" stroke-width="0.25" opacity="1" d="M 30.974050773453165,169.26692669266924 L 31.701735316649714,168.31683168316832 L 31.796650691849266,167.76677667766776 L 31.258796899051816,165.36653665366535 L 31.575181483050315,164.9164916491649 L 33.03055056944341,163.66636663666367 L 33.03055056944341,162.46624662466246 L 33.18874286144267,162.06620662066206 L 33.63168127904056,162.16621662166216 L 33.66331973744042,161.56615661566155 L 33.82151202943967,161.36613661366135 L 34.86558115663472,161.9161916191619 L 35.118688823833516,161.8161816181618 L 35.276881115832765,161.3161316131613 L 36.479142535027066,160.5160516051605 L 37.36501937022287,160.7160716071607 L 37.87123470462047,160.56605660566055 L 38.061065455019566,160.06600660066005 L 37.618127037421665,159.06590659065907 L 37.96615007982002,158.56585658565857 L 38.598919247817015,159.41594159415942 L 39.13677304061447,159.06590659065907 L 39.61134991661222,157.96579657965796 L 40.14920370940967,157.9157915791579 L 41.12999591980502,158.1158115811581 L 41.47801896220337,157.5157515751575 L 42.49044963099857,153.71537153715371 L 42.11078813020037,153.06530653065306 L 42.04751121340067,152.5152515251525 L 42.49044963099857,152.2152215221522 L 42.42717271419887,152.36523652365236 L 42.55372654779827,152.4152415241524 L 42.90174959019662,152.2152215221522 L 42.90174959019662,151.6151615161516 L 43.31304954939467,150.86508650865085 L 43.81926488379227,148.5148514851485 L 43.724349508592724,146.1146114611461 L 46.508533847779525,146.46464646464645 L 48.65994901896932,146.46464646464645 L 54.48142536454173,147.7147714771477 L 55.715325242135876,148.96489648964896 L 57.55035582932718,148.66486648664866 L 58.78425570692133,147.06470647064705 L 61.53680158770828,146.76467646764675 L 63.08708604930093,148.014801480148 L 67.99104710127769,149.26492649264927 L 72.89500815325444,148.96489648964896 L 75.96393861803989,149.91499149914992 L 78.40009991482833,152.7152715271527 L 92.19446777716294,147.36473647364735 L 95.89616740994539,145.5145514551455 L 96.81368270354105,142.06420642064205 L 96.81368270354105,138.6138613861386 L 99.8826131683265,134.86348634863486 L 100.16735929392514,130.46304630463047 L 101.7176437555178,129.2129212921292 L 104.15380505230625,129.2129212921292 L 106.30522022349605,128.9128912891289 L 108.45663539468585,127.01270127012701 L 110.29166598187716,125.1125112511251 L 114.59449632425675,122.96229622962295 L 120.41597266982916,128.26282628262825 L 125.41484909700546,129.76297629762976 L 122.15608788182091,136.4136413641364 L 122.25100325702046,137.3137313731373 L 123.67473388501371,142.46424642464245 L 123.45326467621476,143.26432643264326 L 122.56738784101896,143.76437643764376 L 121.30184950502496,144.014401440144 L 120.92218800422675,144.31443144314431 L 119.90975733543156,144.16441644164416 L 118.83404974983665,144.31443144314431 L 118.16964212343981,144.91449144914492 L 118.04308828984041,146.36463646364635 L 117.3470422050437,147.3147314731473 L 116.96738070424551,148.16481648164816 L 115.98658849385016,148.56485648564856 L 115.32218086745331,149.36493649364937 L 114.3730271154578,154.31543154315432 L 114.15155790665885,154.66546654665467 L 113.7402579474608,154.86548654865484 L 112.9809349458644,154.8154815481548 L 112.5379965282665,155.015501550155 L 111.81031198506996,155.86558655865585 L 111.30409665067235,157.06570657065706 L 110.48149673227626,157.5157515751575 L 109.69053527228,159.21592159215922 L 109.21595839628225,161.2161216121612 L 107.79222776828901,164.01640164016402 L 104.84985113710295,166.4166416641664 L 104.84985113710295,167.016701670167 L 105.70408951389891,168.31683168316832 L 108.8046584370842,171.2171217121712 L 110.5764121074758,173.66736673667367 L 108.424996936286,174.5174517451745 L 106.55832789069486,174.86748674867485 L 105.8306433474983,174.26742674267425 L 103.90069738510745,173.96739673967394 L 103.01482054991165,173.66736673667367 L 102.0340283395163,173.76737673767377 L 101.17978996272035,174.16741674167415 L 99.72442087632724,173.66736673667367 L 99.06001324993039,173.11731173117312 L 98.20577487313444,172.71727172717272 L 91.2769524835673,171.76717671767176 L 90.04305260597314,170.8170817081708 L 89.66339110517494,170.8170817081708 L 88.90406810357854,171.16711671167116 L 86.3413529731907,171.56715671567156 L 85.80349918039325,171.5171517151715 L 84.00010705160179,170.86708670867085 L 76.59670778603689,170.7170717071707 L 76.18540782683884,170.8170817081708 L 75.55263865884184,173.01730173017302 L 73.11647736205339,175.017501750175 L 72.73681586125518,174.5174517451745 L 69.88935460526868,174.56745674567455 L 68.87692393647349,174.86748674867485 L 63.40347063329943,177.41774177417741 L 59.54357870851773,179.2179217921792 L 57.613632746126875,181.7181718171817 L 53.468994695746524,181.018101810181 L 52.994417819748776,180.7180718071807 L 55.74696370053573,176.66766676667666 L 56.12662520133393,176.4176417641764 L 57.58199428772703,176.16761676167616 L 57.93001733012538,175.86758675867586 L 58.08820962212463,175.36753675367535 L 57.96165578852523,174.96749674967495 L 56.411371326932574,173.66736673667367 L 56.15826365973378,173.61736173617362 L 55.77860215893558,173.9173917391739 L 55.272386824537975,173.76737673767377 L 54.671256114940824,172.4172417241724 L 54.22831769734292,172.46724672467246 L 53.72210236294533,173.41734173417342 L 53.12097165334818,174.06740674067404 L 52.04526406775327,174.7174717471747 L 51.91871023415388,175.46754675467545 L 51.66560256695507,175.6175617561756 L 49.41927202056572,176.2176217621762 L 46.47689538937967,177.26772677267726 L 46.22378772218087,177.06770677067706 L 46.22378772218087,176.86768676867686 L 46.508533847779525,176.16761676167616 L 46.63508768137892,175.06750675067505 L 47.29949530777577,174.2174217421742 L 47.868987558973075,172.26722672267226 L 47.710795266973825,171.36713671367136 L 47.07802609897682,169.56695669566955 L 46.793279973378176,169.26692669266924 L 30.974050773453165,169.26692669266924 z" /><path fill-rule="evenodd" fill="#D2EBD9" stroke="#A6A6A6" stroke-width="0.25" opacity="1" d="M 43.724349508592724,146.1146114611461 L 43.50288029979377,144.86448644864487 L 43.88254180059197,144.31443144314431 L 43.91418025899182,144.014401440144 L 43.40796492459422,143.6143614361436 L 43.50288029979377,143.16431643164316 L 45.49610317898432,141.3141314131413 L 45.87576467978252,141.36413641364135 L 46.38198001418012,141.76417641764175 L 46.91983380697757,141.8141814181418 L 47.20457993257622,143.26432643264326 L 47.647518350174124,143.86438643864386 L 48.05881830937217,144.06440644064406 L 48.786502852568724,144.014401440144 L 49.79893352136392,143.2143214321432 L 50.146956563762274,142.6142614261426 L 50.33678731416138,141.96419641964195 L 50.24187193896182,141.26412641264125 L 49.70401814616437,140.66406640664064 L 49.229441270166625,140.36403640364037 L 47.77407218377353,140.21402140214022 L 48.153733684571726,139.66396639663967 L 48.05881830937217,138.86388638863886 L 48.88141822776827,137.96379637963796 L 49.007972061367674,137.6137613761376 L 48.027179850972324,137.36373637363735 L 48.470118268570225,136.26362636263624 L 47.83734910057322,135.51355135513552 L 47.90062601737292,134.7134713471347 L 48.090456767772025,134.26342634263426 L 48.43847981017037,134.013401340134 L 48.97633360296783,133.9133913391339 L 49.893848896563476,131.8131813181318 L 49.071248978167375,130.76307630763077 L 49.48254893736542,130.11301130113011 L 49.35599510376603,129.96299629962996 L 48.849779769368425,129.96299629962996 L 48.56503364376977,128.7128712871287 L 48.65994901896932,128.06280628062805 L 49.13452589496708,126.71267126712671 L 50.273510397361676,125.1125112511251 L 50.653171898159876,124.11241124112411 L 50.24187193896182,123.26232623262325 L 48.849779769368425,121.7121712171217 L 48.37520289337068,120.56205620562055 L 48.05881830937217,118.16181618161815 L 48.43847981017037,117.66176617661766 L 48.470118268570225,117.31173117311731 L 47.58424143337442,115.8115811581158 L 47.20457993257622,113.4113411341134 L 47.426049141375174,110.31103110311031 L 50.08367964696257,111.011101110111 L 51.09611031575778,111.46114611461145 L 52.07690252615313,112.16121612161216 L 53.50063315414638,113.5113511351135 L 55.46221757493708,113.4113411341134 L 56.854309744530475,113.06130613061306 L 59.54357870851773,111.4111411141114 L 59.54357870851773,109.9109910991099 L 59.73340945891683,109.36093609360935 L 60.71420166931218,108.56085608560855 L 62.01137846370603,108.16081608160816 L 62.16957075570528,107.96079607960796 L 62.32776304770453,106.96069606960695 L 63.05544759090108,105.56055605560556 L 64.32098592689508,104.8104810481048 L 65.55488580448923,104.76047604760475 L 66.53567801488458,104.46044604460445 L 68.97183931167304,102.06020602060205 L 69.54133156287034,101.8101810181018 L 74.25546186444798,101.01010101010101 L 76.62834624443674,101.4101410141014 L 78.4950152900279,100.26002600260026 L 78.84303833242623,100.71007100710071 L 79.63399979242249,100.61006100610061 L 80.61479200281784,100.1100110011001 L 80.77298429481709,99.7099709970997 L 79.85546900122144,90.9090909090909 L 80.39332279401889,86.90869086908691 L 80.64643046121769,86.25862586258626 L 81.7854149636123,85.5085508550855 L 82.48146104840899,83.75837583758376 L 83.1775071332057,83.25832583258325 L 89.8215833971742,83.2083208320832 L 91.62497552596564,83.5083508350835 L 93.64983686355605,84.95849584958495 L 94.8204598243505,83.65836583658366 L 94.85209828275035,81.75817581758176 L 95.23175978354854,81.3081308130813 L 95.61142128434675,80.2080208020802 L 95.92780586834525,79.9079907990799 L 98.14249795633475,78.8078807880788 L 98.8069055827316,78.1078107810781 L 100.48374387792364,78.007800780078 L 101.5278130051187,77.45774577457745 L 103.01482054991165,77.30773077307731 L 104.09052813550655,76.35763576357635 L 104.3119973443055,75.8075807580758 L 104.72329730350356,75.4075407540754 L 107.50748164269035,75.45754575457545 L 109.1210430210827,75.05750575057505 L 109.62725835548031,74.70747074707471 L 110.54477364907595,74.75747574757476 L 110.7662428578749,74.60746074607461 L 111.30409665067235,73.45734573457345 L 113.45551182186216,72.15721572157216 L 114.72105015785615,72.10721072107211 L 115.5752885346521,71.75717571757176 L 116.52444228664761,71.7071707170717 L 122.6623032162185,91.45914591459146 L 115.51201161785241,95.15951595159515 L 116.11314232744955,100.1100110011001 L 115.51201161785241,107.010701070107 L 114.27811174025825,115.11151115111511 L 114.59449632425675,122.96229622962295 L 110.29166598187716,125.1125112511251 L 108.45663539468585,127.01270127012701 L 106.30522022349605,128.9128912891289 L 104.15380505230625,129.2129212921292 L 101.7176437555178,129.2129212921292 L 100.16735929392514,130.46304630463047 L 99.8826131683265,134.86348634863486 L 96.81368270354105,138.6138613861386 L 96.81368270354105,142.06420642064205 L 95.89616740994539,145.5145514551455 L 92.19446777716294,147.36473647364735 L 78.40009991482833,152.7152715271527 L 75.96393861803989,149.91499149914992 L 72.89500815325444,148.96489648964896 L 67.99104710127769,149.26492649264927 L 63.08708604930093,148.014801480148 L 61.53680158770828,146.76467646764675 L 58.78425570692133,147.06470647064705 L 57.55035582932718,148.66486648664866 L 55.715325242135876,148.96489648964896 L 54.48142536454173,147.7147714771477 L 48.65994901896932,146.46464646464645 L 46.508533847779525,146.46464646464645 L 43.724349508592724,146.1146114611461 z" /><path fill-rule="evenodd" fill="#D2EBD9" stroke="#A6A6A6" stroke-width="0.25" opacity="1" d="M 47.77407218377353,140.21402140214022 L 49.229441270166625,140.36403640364037 L 49.70401814616437,140.66406640664064 L 50.24187193896182,141.26412641264125 L 50.33678731416138,141.96419641964195 L 50.146956563762274,142.6142614261426 L 49.79893352136392,143.2143214321432 L 48.786502852568724,144.014401440144 L 48.05881830937217,144.06440644064406 L 47.647518350174124,143.86438643864386 L 47.20457993257622,143.26432643264326 L 46.91983380697757,141.8141814181418 L 47.489326058174875,141.56415641564155 L 48.05881830937217,141.06410641064105 L 47.90062601737292,140.9140914091409 L 47.77407218377353,140.21402140214022 z" /><path fill-rule="evenodd" fill="#D2EBD9" stroke="#A6A6A6" stroke-width="0.25" opacity="1" d="M 47.426049141375174,110.31103110311031 L 47.61587989177427,107.66076607660766 L 48.94469514456797,104.7104710471047 L 48.470118268570225,102.66026602660266 L 48.533395185369926,101.5101510151015 L 50.84300264855897,97.05970597059705 L 51.06447185735792,96.30963096309631 L 51.032833398958076,95.85958595859586 L 50.52661806456047,94.55945594559455 L 50.52661806456047,93.80938093809381 L 50.71644881495958,93.2093209320932 L 51.191025690957325,92.9092909290929 L 52.171817901352675,92.75927592759275 L 53.12097165334818,92.15921592159215 L 53.81701773814488,90.5090509050905 L 54.92436378213963,89.35893589358935 L 55.114194532538725,87.95879587958795 L 55.62040986693633,86.80868086808681 L 59.76504791731668,82.95829582958295 L 60.87239396131143,81.35813581358136 L 61.31533237890933,81.1081108110811 L 61.28369392050948,80.95809580958095 L 62.67578609010288,79.75797579757976 L 64.66900896929343,78.55785578557855 L 65.71307809648849,78.2078207820782 L 67.01025489088234,77.05770577057706 L 59.76504791731668,75.2075207520752 L 58.056571163724776,75.15751575157515 L 53.02605627814862,76.8076807680768 L 51.22266414935717,76.90769076907691 L 49.57746431256498,76.65766576657666 L 48.406841351770524,75.75757575757575 L 47.552602974974576,75.55755575557555 L 46.63508768137892,75.6075607560756 L 44.89497246938717,76.05760576057605 L 43.50288029979377,76.1076107610761 L 39.73790375021162,74.90749074907491 L 38.53564233101732,75.00750075007501 L 38.25089620541867,70.8070807080708 L 38.69383462301657,67.1067106710671 L 40.33903445980877,67.05670567056706 L 44.80005709418762,68.006800680068 L 46.41361847257997,67.3067306730673 L 47.36277222457547,66.4066406640664 L 47.23621839097607,64.85648564856486 L 48.691587477369175,62.9062906290629 L 49.26107972856647,58.855885588558856 L 53.18424857014788,55.75557555755575 L 55.55713295013663,54.3054305430543 L 59.73340945891683,52.55525552555255 L 60.87239396131143,54.2054205420542 L 62.29612458930468,56.75567556755675 L 63.37183217489958,57.8057805780578 L 64.54245513569403,59.6059605960596 L 66.82042414048323,61.95619561956195 L 67.83285480927843,64.85648564856486 L 71.50291598366104,69.4069406940694 L 71.91421594285909,69.55695569556956 L 73.24303119565279,69.4069406940694 L 73.97071573884934,69.1069106910691 L 75.64755403404139,67.60676067606761 L 75.80574632604063,67.65676567656766 L 81.3424765460144,72.9072907290729 L 82.95603792440674,75.95759575957595 L 83.65208400920343,78.007800780078 L 83.90519167640224,79.50795079507951 L 84.00010705160179,81.85818581858186 L 83.87355321800239,82.35823582358235 L 83.1775071332057,83.25832583258325 L 82.48146104840899,83.75837583758376 L 81.7854149636123,85.5085508550855 L 80.64643046121769,86.25862586258626 L 80.39332279401889,86.90869086908691 L 79.85546900122144,90.9090909090909 L 80.77298429481709,99.7099709970997 L 80.61479200281784,100.1100110011001 L 79.63399979242249,100.61006100610061 L 78.84303833242623,100.71007100710071 L 78.4950152900279,100.26002600260026 L 76.62834624443674,101.4101410141014 L 74.25546186444798,101.01010101010101 L 69.54133156287034,101.8101810181018 L 68.97183931167304,102.06020602060205 L 66.53567801488458,104.46044604460445 L 65.55488580448923,104.76047604760475 L 64.32098592689508,104.8104810481048 L 63.05544759090108,105.56055605560556 L 62.32776304770453,106.96069606960695 L 62.16957075570528,107.96079607960796 L 62.01137846370603,108.16081608160816 L 60.71420166931218,108.56085608560855 L 59.73340945891683,109.36093609360935 L 59.54357870851773,109.9109910991099 L 59.54357870851773,111.4111411141114 L 56.854309744530475,113.06130613061306 L 55.46221757493708,113.4113411341134 L 53.50063315414638,113.5113511351135 L 52.07690252615313,112.16121612161216 L 51.09611031575778,111.46114611461145 L 50.08367964696257,111.011101110111 L 47.426049141375174,110.31103110311031 z" /><path fill-rule="evenodd" fill="#D2EBD9" stroke="#A6A6A6" stroke-width="0.25" opacity="1" d="M 38.53564233101732,75.00750075007501 L 29.771789354258864,77.15771577157716 L 21.98872858789576,76.65766576657666 L 21.73562092069696,76.55765576557656 L 21.60906708709756,75.7075707570757 L 20.12205954230461,72.8072807280728 L 19.20454424870896,71.5071507150715 L 16.736744493520657,69.35693569356935 L 14.901713906329357,66.7066706670667 L 14.964990823129057,66.25662566256625 L 17.62262132871646,64.15641564156415 L 26.196643555075813,54.25542554255425 L 26.481389680674464,52.955295529552956 L 27.050881931871764,51.95519551955195 L 40.37067291820862,41.2041204120412 L 40.84524979420637,41.054105410541055 L 41.41474204540367,41.2041204120412 L 41.95259583820112,41.1041104110411 L 43.53451875819362,40.00400040004 L 43.97745717579152,39.35393539353935 L 44.768418635787775,38.653865386538655 L 45.21135705338567,37.003700370037 L 47.52096451657472,36.5036503650365 L 48.12209522617187,36.053605360536054 L 49.893848896563476,33.35333533353335 L 52.07690252615313,31.053105310531052 L 52.89950244454923,29.302930293029302 L 54.76617149014038,30.1030103010301 L 54.513063822941575,31.753175317531753 L 55.74696370053573,36.9036903690369 L 57.835101954925825,39.15391539153915 L 57.93001733012538,40.7040704070407 L 57.70854812132643,41.75417541754175 L 57.77182503812613,42.75427542754275 L 59.10064029091983,47.004700470047005 L 60.49273246051323,47.65476547654765 L 60.14470941811488,48.4048404840484 L 60.14470941811488,51.2051205120512 L 59.73340945891683,52.55525552555255 L 55.55713295013663,54.3054305430543 L 53.18424857014788,55.75557555755575 L 49.26107972856647,58.855885588558856 L 48.691587477369175,62.9062906290629 L 47.23621839097607,64.85648564856486 L 47.36277222457547,66.4066406640664 L 46.41361847257997,67.3067306730673 L 44.80005709418762,68.006800680068 L 40.33903445980877,67.05670567056706 L 38.69383462301657,67.1067106710671 L 38.25089620541867,70.8070807080708 L 38.53564233101732,75.00750075007501 z" /><path fill-rule="evenodd" fill="#D2EBD9" stroke="#A6A6A6" stroke-width="0.25" opacity="1" d="M 223.52570859494037,421.34213421342133 L 196.82284970546695,365.63656365636564 L 201.2838723398458,346.83468346834684 L 209.4465946070071,324.1324132413241 L 209.4465946070071,313.2313231323132 L 208.71891006381054,299.22992299229924 L 205.74489497422465,286.028602860286 L 213.14829423978955,264.37643764376435 L 215.8375632037768,257.4257425742574 L 211.2183482773987,253.32533253325332 L 213.1166557813897,252.5252525252525 L 213.7494249493867,252.47524752475246 L 216.5336092885735,254.07540754075407 L 221.7223164661489,256.025602560256 L 223.62062397013992,257.27572757275726 L 224.41158543013617,258.2258225822582 L 225.04435459813317,259.3759375937594 L 225.48729301573107,259.7759775977598 L 227.79690047892012,260.5760576057606 L 229.47373877411215,261.82618261826184 L 230.0748694837093,261.6761676167617 L 232.2262846548991,260.32603260326033 L 235.54832278688338,258.87588758875887 L 236.33928424687963,258.8258825882588 L 238.42742250126972,259.9259925992599 L 246.05229097563358,261.5761576157616 L 248.70992148122096,262.3262326232623 L 249.62743677481663,262.27622762276224 L 254.02518249239577,260.5760576057606 L 254.43648245159383,260.62606260626063 L 257.3155821659802,261.8761876187619 L 259.5619127123695,262.026202620262 L 261.08055871556235,261.62616261626164 L 262.0929893843575,262.3262326232623 L 264.2444045555473,260.4760476047605 L 265.161919849143,260.0760076007601 L 266.1427120595383,260.02600260026003 L 267.66135806273115,260.72607260726073 L 268.07265802192916,260.6760676067607 L 268.6737887315263,260.1760176017602 L 270.88848081951585,259.4759475947595 L 271.39469615391346,258.47584758475847 L 272.18565761390965,257.97579757975797 L 272.4387652811085,257.37573757375736 L 272.8184267819067,257.1257125712571 L 273.1031729075053,256.5256525652565 L 273.2930036579044,256.4256425642564 L 273.79921899230203,256.37563756375636 L 274.5269035354986,256.7256725672567 L 276.8681494570875,256.97569756975696 L 278.60826466907923,256.9256925692569 L 279.5574184210747,257.27572757275726 L 280.00035683867264,257.2257225722572 L 280.88623367386845,256.57565756575656 L 281.8353874258639,256.4256425642564 L 283.0692873034581,255.97559755975595 L 283.6387795546554,256.025602560256 L 285.0941486410485,256.6256625662566 L 286.01166393464416,256.7256725672567 L 288.7958482738309,255.7255725572557 L 290.37777119382343,253.17531753175317 L 291.8015018218167,253.32533253325332 L 296.4207167481948,252.37523752375236 L 298.66704729458417,252.57525752575256 L 302.6218545945654,254.02540254025402 L 304.5834390153561,254.47544754475447 L 308.03203098093974,254.47544754475447 L 311.70209215532236,253.92539253925392 L 315.18232257930583,252.7252725272527 L 316.00492249770195,252.67526752675266 L 316.3529455401003,253.62536253625362 L 316.25803016490073,372.5372537253725 L 223.52570859494037,421.34213421342133 z" /><path fill-rule="evenodd" fill="#D2EBD9" stroke="#A6A6A6" stroke-width="0.25" opacity="1" d="M 223.52570859494037,421.34213421342133 L 164.2035990952216,452.8452845284528 L 158.25556891604978,448.0948094809481 L 159.74257646084274,432.14321432143214 L 158.98325345924633,424.99249924992495 L 141.17080138013077,418.59185918591857 L 135.25440965935883,415.4415441544154 L 131.52107156817652,411.4911491149115 L 127.81937193539406,410.6910691069107 L 118.92896512503621,410.6910691069107 L 117.44195758024325,401.94019401940193 L 84.75943005319819,340.9340934093409 L 61.28369392050948,297.5297529752975 L 60.65092475251248,290.6290629062906 L 96.75040578674135,272.97729772977294 L 131.93237152737456,255.8255825582558 L 132.56514069537155,255.3255325532553 L 133.92559440656512,253.17531753175317 L 136.42503262015327,250.3250325032503 L 139.20921695934007,247.67476747674766 L 142.94255505052237,245.37453745374535 L 144.77758563771368,244.57445744574457 L 151.07363885928382,243.07430743074306 L 154.42731544966793,243.27432743274326 L 160.40698408723958,245.17451745174517 L 163.44427609362518,246.57465746574655 L 164.74145288801904,247.37473747374736 L 168.09512947840312,250.27502750275025 L 169.70869085679547,252.17521752175216 L 170.59456769199127,253.92539253925392 L 172.90417515518033,260.42604260426043 L 173.25219819757868,264.57645764576455 L 173.1256443639793,267.7267726772677 L 173.3154751143784,267.97679767976797 L 173.821690448776,267.9267926792679 L 174.48609807517283,267.3267326732673 L 175.94146716156592,267.37673767376737 L 177.39683624795904,266.8266826682668 L 178.06124387435588,266.07660766076606 L 178.66237458395304,262.3262326232623 L 178.97875916795155,261.7761776177618 L 179.39005912714958,261.32613261326134 L 183.34486642713085,258.77587758775877 L 186.19232768311733,258.17581758175817 L 192.6149347382869,256.025602560256 L 196.69629587186753,255.57555755575555 L 199.132457168656,255.2255225522552 L 200.11324937905135,254.9254925492549 L 202.20138763344144,253.47534753475347 L 205.460148848626,251.97519751975196 L 207.2951794358173,252.4252425242524 L 208.4974408550116,252.9252925292529 L 211.2183482773987,253.32533253325332 L 215.8375632037768,257.4257425742574 L 213.14829423978955,264.37643764376435 L 205.74489497422465,286.028602860286 L 208.71891006381054,299.22992299229924 L 209.4465946070071,313.2313231323132 L 209.4465946070071,324.1324132413241 L 201.2838723398458,346.83468346834684 L 196.82284970546695,365.63656365636564 L 223.52570859494037,421.34213421342133 z" /><path fill-rule="evenodd" fill="#D2EBD9" stroke="#A6A6A6" stroke-width="0.25" opacity="1" d="M 164.2035990952216,452.8452845284528 L 76.15376936843899,500.0 L 75.52100020044199,499.8999899989999 L 45.970680054982076,485.3485348534853 L 51.728879483754774,452.7452745274527 L 51.98198715095358,437.043704370437 L 52.108540984552974,436.49364936493646 L 52.58311786055073,436.043604360436 L 54.576340739741276,434.89348934893485 L 55.62040986693633,433.59335933593354 L 64.85883971969253,419.09190919091907 L 63.65657830049823,418.39183918391836 L 62.89725529890183,417.1417141714171 L 62.67578609010288,415.69156915691565 L 62.89725529890183,414.24142414241425 L 63.68821675889808,412.74127412741274 L 64.22607055169553,412.0912091209121 L 66.66223184848398,410.1410141014101 L 67.51647022527993,409.2409240924092 L 75.20461561644349,400.6400640064006 L 75.64755403404139,399.9399939993999 L 75.71083095084109,399.38993899389936 L 69.60460847967003,388.038803880388 L 68.65545472767454,385.53855385538554 L 61.28369392050948,297.5297529752975 L 84.75943005319819,340.9340934093409 L 117.44195758024325,401.94019401940193 L 118.92896512503621,410.6910691069107 L 127.81937193539406,410.6910691069107 L 131.52107156817652,411.4911491149115 L 135.25440965935883,415.4415441544154 L 141.17080138013077,418.59185918591857 L 158.98325345924633,424.99249924992495 L 159.74257646084274,432.14321432143214 L 158.25556891604978,448.0948094809481 L 164.2035990952216,452.8452845284528 z" /><path fill-rule="evenodd" fill="#D2EBD9" stroke="#A6A6A6" stroke-width="0.25" opacity="1" d="M 4.777407218377352,216.17161716171617 L 8.605660684759204,216.12161216121612 L 8.953683727157554,216.02160216021602 L 10.092668229552155,214.87148714871486 L 15.059906198328607,214.57145714571456 L 16.42035990952216,214.1214121412141 L 17.05312907751916,213.37133713371335 L 18.76160583111106,213.27132713271325 L 19.17290579030911,213.021302130213 L 19.67912112470671,212.3212321232123 L 20.18533645910431,212.2212221222122 L 20.50172104310281,211.87118711871187 L 21.03957483590026,209.67096709670966 L 22.24183625509456,208.97089708970896 L 24.393251426284362,206.72067206720672 L 25.785343595877762,206.27062706270627 L 27.240712682270864,204.3204320432043 L 27.841843391868014,204.1204120412041 L 29.803427812658715,203.9203920392039 L 30.879135398253617,203.37033703370335 L 33.50512744544117,199.7199719971997 L 35.878011825429915,197.31973197319732 L 40.43394983500832,189.96899689968996 L 40.71869596060697,189.7189718971897 L 41.76276508780202,190.4190419041904 L 42.30061888059947,190.46904690469046 L 43.787626425392425,190.16901690169016 L 52.96277936134893,192.41924192419242 L 57.86674041332568,192.46924692469247 L 63.40347063329943,177.41774177417741 L 68.87692393647349,174.86748674867485 L 69.88935460526868,174.56745674567455 L 72.73681586125518,174.5174517451745 L 73.11647736205339,175.017501750175 L 73.59105423805114,176.96769676967696 L 73.55941577965129,185.3185318531853 L 73.49613886285158,185.76857685768576 L 72.32551590205713,187.16871687168717 L 71.78766210925968,189.06890689068905 L 71.85093902605938,189.5189518951895 L 72.54698511085608,190.86908690869086 L 72.32551590205713,192.26922692269227 L 71.85093902605938,192.86928692869287 L 69.50969310447049,193.6193619361936 L 69.16167006207213,193.6193619361936 L 68.08596247647723,192.56925692569257 L 64.60573205249374,192.51925192519252 L 64.28934746849524,202.5202520252025 L 69.82607768846898,204.7204720472047 L 78.08371533082983,214.8214821482148 L 79.95038437642098,218.021802180218 L 80.55151508601814,225.32253225322532 L 91.2769524835673,263.47634763476344 L 96.75040578674135,272.97729772977294 L 60.65092475251248,290.6290629062906 L 60.14470941811488,289.72897289728974 L 27.620374183069064,254.47544754475447 L 11.548037315945257,231.77317731773175 L 9.175152935956504,226.4226422642264 L 9.143514477556655,225.72257225722572 L 9.744645187153806,223.1223122312231 L 9.459899061555154,222.4222422242224 L 9.016960643957255,222.17221722172215 L 7.846337683162804,221.97219721972195 L 6.580799347168803,220.67206720672067 L 5.979668637571653,220.27202720272027 L 5.916391720771953,219.92199219921991 L 6.327691679970003,219.47194719471946 L 6.485883971969253,217.67176717671765 L 6.264414763170303,217.1217121712171 L 5.251984094375103,216.27162716271627 L 4.777407218377352,216.17161716171617 z" /><path fill-rule="evenodd" fill="#D2EBD9" stroke="#A6A6A6" stroke-width="0.25" opacity="1" d="M 262.18790475955706,197.66976697669767 L 261.365304841161,197.56975697569757 L 260.511066464365,197.66976697669767 L 259.30880504517074,199.3199319931993 L 258.04326670917675,200.1200120012001 L 247.82404464602516,203.57035703570355 L 239.40821471166507,204.8204820482048 L 237.60482258287362,204.7204720472047 L 236.75058420607766,204.5204520452045 L 234.59916903488786,203.3203320332033 L 233.71329219969206,203.020302030203 L 232.82741536449626,203.020302030203 L 231.7833462373012,203.27032703270325 L 228.87260806451502,204.7204720472047 L 226.75283135172506,206.22062206220622 L 225.80367759972955,206.27062706270627 L 225.48729301573107,206.47064706470647 L 223.71553934533947,208.3208320832083 L 222.98785480214292,209.3209320932093 L 222.07033950854725,211.12111211121112 L 221.18446267335145,211.42114211421142 L 220.14039354615642,212.27122712271225 L 219.3177936277603,212.5212521252125 L 218.9381321269621,212.8212821282128 L 213.27484807338897,214.7214721472147 L 211.4714559445975,214.5214521452145 L 209.7629791910056,213.67136713671366 L 208.14941781261325,213.97139713971396 L 207.45337172781655,213.7213721372137 L 206.31438722542194,214.021402140214 L 205.36523347342646,213.8213821382138 L 204.827379680629,212.97129712971295 L 203.84658747023366,212.57125712571255 L 203.59347980303485,211.92119211921192 L 201.44206463184506,210.2210221022102 L 196.69629587186753,204.97049704970496 L 196.69629587186753,200.47004700470046 L 203.46692596943544,197.01970197019702 L 203.8782259286335,196.61966196619662 L 203.65675671983456,189.9189918991899 L 204.0680566790326,188.56885688568855 L 205.2070411814272,186.6186618661866 L 205.17540272302736,181.66816681668166 L 205.87144880782404,176.1176117611761 L 205.8398103494242,172.91729172917292 L 205.55506422382555,172.1172117211721 L 209.03529464780905,170.66706670667065 L 217.00818616457124,170.66706670667065 L 217.32457074856976,166.56665666566656 L 219.4443474613597,165.9165916591659 L 221.91214721654802,165.6165616561656 L 222.2285318005465,163.41634163416342 L 222.2285318005465,160.56605660566055 L 226.21497755892761,159.01590159015902 L 229.56865414931173,159.96599659965995 L 232.63758461409716,159.6159615961596 L 233.87148449169132,159.31593159315932 L 235.39013049488412,159.96599659965995 L 238.1743148340709,162.76627662766276 L 241.24324529885638,164.66646664666465 L 243.9957911796433,165.6165616561656 L 247.66585235402593,164.01640164016402 L 251.05116740280988,162.9162916291629 L 252.34834419720372,166.36663666366636 L 254.81614395239203,171.06710671067106 L 255.670382329188,172.26722672267226 L 256.714451456383,173.26732673267327 L 260.4794280059652,174.86748674867485 L 260.95400488196293,175.2175217521752 L 263.73818922114975,178.16781678167817 L 264.81389680674465,179.56795679567955 L 265.0670044739434,180.86808680868086 L 263.23197388675214,183.56835683568355 L 263.07378159475286,185.96859685968596 L 262.66248163555485,187.16871687168717 L 260.73253567316397,188.96889688968895 L 260.19468188036655,190.16901690169016 L 260.1630434219667,191.76917691769177 L 258.99242046117223,193.06930693069305 L 259.7517434627686,194.5194519451945 L 262.18790475955706,197.66976697669767 z" /><path fill-rule="evenodd" fill="#D2EBD9" stroke="#A6A6A6" stroke-width="0.25" opacity="1" d="M 290.37777119382343,253.17531753175317 L 288.7958482738309,255.7255725572557 L 286.01166393464416,256.7256725672567 L 285.0941486410485,256.6256625662566 L 283.6387795546554,256.025602560256 L 283.0692873034581,255.97559755975595 L 281.8353874258639,256.4256425642564 L 280.88623367386845,256.57565756575656 L 280.00035683867264,257.2257225722572 L 279.5574184210747,257.27572757275726 L 278.60826466907923,256.9256925692569 L 276.8681494570875,256.97569756975696 L 274.5269035354986,256.7256725672567 L 273.79921899230203,256.37563756375636 L 273.2930036579044,256.4256425642564 L 273.1031729075053,256.5256525652565 L 272.8184267819067,257.1257125712571 L 272.4387652811085,257.37573757375736 L 272.18565761390965,257.97579757975797 L 271.39469615391346,258.47584758475847 L 270.88848081951585,259.4759475947595 L 268.6737887315263,260.1760176017602 L 268.07265802192916,260.6760676067607 L 267.66135806273115,260.72607260726073 L 266.1427120595383,260.02600260026003 L 265.161919849143,260.0760076007601 L 264.2444045555473,260.4760476047605 L 262.0929893843575,262.3262326232623 L 261.08055871556235,261.62616261626164 L 259.5619127123695,262.026202620262 L 257.3155821659802,261.8761876187619 L 254.43648245159383,260.62606260626063 L 254.02518249239577,260.5760576057606 L 249.62743677481663,262.27622762276224 L 248.70992148122096,262.3262326232623 L 246.05229097563358,261.5761576157616 L 238.42742250126972,259.9259925992599 L 236.33928424687963,258.8258825882588 L 235.54832278688338,258.87588758875887 L 232.2262846548991,260.32603260326033 L 230.0748694837093,261.6761676167617 L 229.47373877411215,261.82618261826184 L 227.79690047892012,260.5760576057606 L 225.48729301573107,259.7759775977598 L 225.04435459813317,259.3759375937594 L 224.41158543013617,258.2258225822582 L 223.62062397013992,257.27572757275726 L 221.7223164661489,256.025602560256 L 216.5336092885735,254.07540754075407 L 213.7494249493867,252.47524752475246 L 213.1166557813897,252.5252525252525 L 211.2183482773987,253.32533253325332 L 208.4974408550116,252.9252925292529 L 207.2951794358173,252.4252425242524 L 205.460148848626,251.97519751975196 L 202.20138763344144,253.47534753475347 L 200.11324937905135,254.9254925492549 L 199.132457168656,255.2255225522552 L 196.69629587186753,255.57555755575555 L 196.69629587186753,204.97049704970496 L 201.44206463184506,210.2210221022102 L 203.59347980303485,211.92119211921192 L 203.84658747023366,212.57125712571255 L 204.827379680629,212.97129712971295 L 205.36523347342646,213.8213821382138 L 206.31438722542194,214.021402140214 L 207.45337172781655,213.7213721372137 L 208.14941781261325,213.97139713971396 L 209.7629791910056,213.67136713671366 L 211.4714559445975,214.5214521452145 L 213.27484807338897,214.7214721472147 L 218.9381321269621,212.8212821282128 L 219.3177936277603,212.5212521252125 L 220.14039354615642,212.27122712271225 L 221.18446267335145,211.42114211421142 L 222.07033950854725,211.12111211121112 L 222.98785480214292,209.3209320932093 L 223.71553934533947,208.3208320832083 L 225.48729301573107,206.47064706470647 L 225.80367759972955,206.27062706270627 L 226.75283135172506,206.22062206220622 L 228.87260806451502,204.7204720472047 L 231.7833462373012,203.27032703270325 L 232.82741536449626,203.020302030203 L 233.71329219969206,203.020302030203 L 234.59916903488786,203.3203320332033 L 236.75058420607766,204.5204520452045 L 237.60482258287362,204.7204720472047 L 239.40821471166507,204.8204820482048 L 247.82404464602516,203.57035703570355 L 258.04326670917675,200.1200120012001 L 259.30880504517074,199.3199319931993 L 260.511066464365,197.66976697669767 L 261.365304841161,197.56975697569757 L 262.18790475955706,197.66976697669767 L 263.2003354283523,198.76987698769875 L 264.0862122635481,199.36993699369935 L 268.8319810235256,201.67016701670167 L 270.54045777711747,203.1203120312031 L 272.72351140670713,203.9203920392039 L 273.16644982430506,204.47044704470446 L 273.1980882827049,205.37053705370536 L 273.0082575323058,206.37063706370637 L 272.72351140670713,206.97069706970697 L 272.2172960723095,207.3207320732073 L 270.50881931871766,207.6207620762076 L 270.00260398432005,207.87078707870785 L 269.369834816323,208.97089708970896 L 269.30655789952334,209.6209620962096 L 269.591304025122,210.1210121012101 L 270.2873501099187,210.62106210621062 L 270.31898856831856,210.82108210821082 L 269.9393270675203,211.37113711371137 L 269.5280271083223,214.7214721472147 L 269.30655789952334,215.12151215121511 L 268.35740414752786,215.82158215821582 L 267.69299652113096,216.97169716971695 L 268.23085031392844,218.07180718071805 L 269.46475019152257,219.021902190219 L 270.73028852751656,219.6219621962196 L 276.77323408188795,221.27212721272127 L 277.08961866588646,221.47214721472147 L 277.184534041086,222.17221722172215 L 276.551764873089,223.7223722372237 L 276.2986572058902,225.42254225422542 L 276.2986572058902,226.22262226222622 L 276.551764873089,226.7226722672267 L 278.2602416266809,228.022802280228 L 278.60826466907923,229.87298729872987 L 278.9562877114776,230.52305230523052 L 282.246687385062,233.87338733873386 L 283.9551641386539,234.62346234623462 L 285.53708705864636,237.4237423742374 L 285.75855626744533,238.1238123812381 L 286.1382177682435,241.7241724172417 L 286.07494085144384,242.77427742774276 L 285.7901947258452,243.72437243724372 L 283.9868025970537,246.1246124612461 L 283.7653333882548,247.024702470247 L 283.9868025970537,247.97479747974796 L 284.556294848251,248.72487248724872 L 286.9291792282398,250.17501750175015 L 288.85912519063066,252.5252525252525 L 289.6500866506269,253.07530753075307 L 290.37777119382343,253.17531753175317 z" /><path fill-rule="evenodd" fill="#D2EBD9" stroke="#A6A6A6" stroke-width="0.25" opacity="1" d="M 73.11647736205339,175.017501750175 L 75.55263865884184,173.01730173017302 L 76.18540782683884,170.8170817081708 L 76.59670778603689,170.7170717071707 L 84.00010705160179,170.86708670867085 L 85.80349918039325,171.5171517151715 L 86.3413529731907,171.56715671567156 L 88.90406810357854,171.16711671167116 L 89.66339110517494,170.8170817081708 L 90.04305260597314,170.8170817081708 L 91.2769524835673,171.76717671767176 L 98.20577487313444,172.71727172717272 L 99.06001324993039,173.11731173117312 L 99.72442087632724,173.66736673667367 L 101.17978996272035,174.16741674167415 L 102.0340283395163,173.76737673767377 L 103.01482054991165,173.66736673667367 L 103.90069738510745,173.96739673967394 L 105.8306433474983,174.26742674267425 L 106.55832789069486,174.86748674867485 L 108.424996936286,174.5174517451745 L 110.5764121074758,173.66736673667367 L 112.69618882026576,176.96769676967696 L 112.5379965282665,184.66846684668465 L 113.51878873866185,190.7190719071907 L 113.77189640586066,191.46914691469146 L 114.11991944825901,191.71917191719172 L 123.16851855061611,194.56945694569455 L 136.42503262015327,250.3250325032503 L 133.92559440656512,253.17531753175317 L 132.56514069537155,255.3255325532553 L 131.93237152737456,255.8255825582558 L 96.75040578674135,272.97729772977294 L 91.2769524835673,263.47634763476344 L 80.55151508601814,225.32253225322532 L 79.95038437642098,218.021802180218 L 78.08371533082983,214.8214821482148 L 69.82607768846898,204.7204720472047 L 64.28934746849524,202.5202520252025 L 64.60573205249374,192.51925192519252 L 68.08596247647723,192.56925692569257 L 69.16167006207213,193.6193619361936 L 69.50969310447049,193.6193619361936 L 71.85093902605938,192.86928692869287 L 72.32551590205713,192.26922692269227 L 72.54698511085608,190.86908690869086 L 71.85093902605938,189.5189518951895 L 71.78766210925968,189.06890689068905 L 72.32551590205713,187.16871687168717 L 73.49613886285158,185.76857685768576 L 73.55941577965129,185.3185318531853 L 73.59105423805114,176.96769676967696 L 73.11647736205339,175.017501750175 z" /><path fill-rule="evenodd" fill="#D2EBD9" stroke="#A6A6A6" stroke-width="0.25" opacity="1" d="M 89.66339110517494,50.75507550755075 L 92.0995524019634,51.15511551155115 L 93.6814753219559,51.005100510051 L 96.62385195314195,49.9049904990499 L 104.18544351070611,47.954795479547954 L 106.58996634909471,48.004800480048004 L 109.78545064747955,49.004900490049 L 112.18997348586815,51.605160516051605 L 111.81031198506996,52.1052105210521 L 108.9944891874833,54.25542554255425 L 108.51991231148556,54.85548554855485 L 108.77301997868436,55.255525552555255 L 112.91765802906471,58.605860586058604 L 112.82274265386515,60.6060606060606 L 113.1707656962635,62.306230623062305 L 112.94929648746455,63.15631563156315 L 112.6012734450662,63.456345634563455 L 112.75946573706545,64.15641564156415 L 114.27811174025825,65.15651565156516 L 115.82839620185091,65.10651065106511 L 117.44195758024325,65.8065806580658 L 118.70749591623726,65.85658565856585 L 119.9413957938314,66.45664566456645 L 120.28941883622976,66.4066406640664 L 121.0171033794263,65.65656565656565 L 122.12444942342105,65.25652565256526 L 122.72558013301821,64.7064706470647 L 123.48490313461461,66.75667566756675 L 122.94704934181716,67.65676567656766 L 122.31428017382017,68.3068306830683 L 119.46681891783366,70.45704570457045 L 117.06229607944506,71.65716571657165 L 116.52444228664761,71.7071707170717 L 115.5752885346521,71.75717571757176 L 114.72105015785615,72.10721072107211 L 113.45551182186216,72.15721572157216 L 111.30409665067235,73.45734573457345 L 110.7662428578749,74.60746074607461 L 110.54477364907595,74.75747574757476 L 109.62725835548031,74.70747074707471 L 109.1210430210827,75.05750575057505 L 107.50748164269035,75.45754575457545 L 104.72329730350356,75.4075407540754 L 104.3119973443055,75.8075807580758 L 104.09052813550655,76.35763576357635 L 103.01482054991165,77.30773077307731 L 101.5278130051187,77.45774577457745 L 100.48374387792364,78.007800780078 L 98.8069055827316,78.1078107810781 L 98.14249795633475,78.8078807880788 L 95.92780586834525,79.9079907990799 L 95.61142128434675,80.2080208020802 L 95.23175978354854,81.3081308130813 L 94.85209828275035,81.75817581758176 L 94.8204598243505,83.65836583658366 L 93.64983686355605,84.95849584958495 L 91.62497552596564,83.5083508350835 L 89.8215833971742,83.2083208320832 L 83.1775071332057,83.25832583258325 L 83.87355321800239,82.35823582358235 L 84.00010705160179,81.85818581858186 L 83.90519167640224,79.50795079507951 L 83.65208400920343,78.007800780078 L 82.95603792440674,75.95759575957595 L 81.3424765460144,72.9072907290729 L 75.80574632604063,67.65676567656766 L 75.64755403404139,67.60676067606761 L 73.97071573884934,69.1069106910691 L 73.24303119565279,69.4069406940694 L 71.91421594285909,69.55695569556956 L 71.50291598366104,69.4069406940694 L 67.83285480927843,64.85648564856486 L 66.82042414048323,61.95619561956195 L 64.54245513569403,59.6059605960596 L 63.37183217489958,57.8057805780578 L 62.29612458930468,56.75567556755675 L 60.87239396131143,54.2054205420542 L 59.73340945891683,52.55525552555255 L 60.14470941811488,51.2051205120512 L 60.14470941811488,48.4048404840484 L 60.49273246051323,47.65476547654765 L 62.13793229730543,46.704670467046704 L 63.68821675889808,46.6046604660466 L 69.25658543727168,47.85478547854785 L 71.12325448286283,47.6047604760476 L 75.93230015964004,50.1050105010501 L 76.62834624443674,50.305030503050304 L 77.60913845483209,50.455045504550455 L 80.99445350361604,49.55495549554955 L 81.46903037961378,49.8049804980498 L 82.7345687156078,51.605160516051605 L 84.09502242680134,52.25522552255225 L 85.74022226359354,52.705270527052704 L 87.32214518358604,54.105410541054106 L 87.73344514278409,54.105410541054106 L 89.22045268757704,52.35523552355235 L 89.60011418837524,51.455145514551454 L 89.66339110517494,50.75507550755075 z" /><path fill-rule="evenodd" fill="#D2EBD9" stroke="#A6A6A6" stroke-width="0.25" opacity="1" d="M 89.66339110517494,50.75507550755075 L 89.60011418837524,51.455145514551454 L 89.22045268757704,52.35523552355235 L 87.73344514278409,54.105410541054106 L 87.32214518358604,54.105410541054106 L 85.74022226359354,52.705270527052704 L 84.09502242680134,52.25522552255225 L 82.7345687156078,51.605160516051605 L 81.46903037961378,49.8049804980498 L 80.99445350361604,49.55495549554955 L 77.60913845483209,50.455045504550455 L 76.62834624443674,50.305030503050304 L 75.93230015964004,50.1050105010501 L 71.12325448286283,47.6047604760476 L 69.25658543727168,47.85478547854785 L 63.68821675889808,46.6046604660466 L 62.13793229730543,46.704670467046704 L 60.49273246051323,47.65476547654765 L 59.10064029091983,47.004700470047005 L 57.77182503812613,42.75427542754275 L 57.70854812132643,41.75417541754175 L 57.93001733012538,40.7040704070407 L 57.835101954925825,39.15391539153915 L 55.74696370053573,36.9036903690369 L 54.513063822941575,31.753175317531753 L 54.76617149014038,30.1030103010301 L 55.96843290933468,29.352935293529352 L 57.04414049492958,28.9028902890289 L 59.51194025011788,27.25272527252725 L 60.23962479331443,27.3027302730273 L 61.03058625331068,27.052705270527053 L 62.23284767250498,26.002600260026 L 62.07465538050573,25.5025502550255 L 62.16957075570528,25.1025102510251 L 62.67578609010288,24.9024902490249 L 63.34019371649973,24.95249524952495 L 63.561662925298684,24.4024402440244 L 63.87804750929718,24.3024302430243 L 65.01703201169178,24.45244524452445 L 65.80799347168804,24.8024802480248 L 66.66223184848398,24.95249524952495 L 67.54810868367979,25.95259525952595 L 68.43398551887559,26.302630263026302 L 70.30065456446674,26.002600260026 L 71.15489294126269,26.15261526152615 L 72.32551590205713,27.602760276027603 L 72.64190048605563,29.05290529052905 L 73.36958502925219,29.8029802980298 L 75.99557707643973,31.253125312531253 L 76.72326161963629,32.003200320032 L 79.57072287562279,33.5033503350335 L 80.96281504521619,34.65346534653465 L 85.23400692919594,35.95359535953595 L 87.543614392385,36.203620362036204 L 87.9865528099829,36.45364536453645 L 88.36621431078109,37.55375537553755 L 88.90406810357854,37.95379537953795 L 91.340229400367,38.7038703870387 L 92.00463702676385,39.35393539353935 L 94.53571369875185,43.254325432543254 L 94.504075240352,43.9043904390439 L 94.37752140675259,44.354435443544354 L 93.71311378035574,45.2045204520452 L 93.08034461235874,45.4045404540454 L 92.89051386195965,46.25462546254625 L 92.2261062355628,46.25462546254625 L 91.97299856836399,46.804680468046804 L 91.30859094196714,47.5047504750475 L 90.5176294819709,48.7048704870487 L 90.23288335637224,49.8049804980498 L 89.66339110517494,50.75507550755075 z" /><path fill-rule="evenodd" fill="#D2EBD9" stroke="#A6A6A6" stroke-width="0.25" opacity="1" d="M 114.59449632425675,122.96229622962295 L 114.27811174025825,115.11151115111511 L 115.51201161785241,107.010701070107 L 116.11314232744955,100.1100110011001 L 115.51201161785241,95.15951595159515 L 122.6623032162185,91.45914591459146 L 131.45779465137682,91.75917591759175 L 134.59000203296196,88.95889588958896 L 137.81712478974666,87.8087808780878 L 138.3549785825441,88.1088108810881 L 139.33577079293946,87.85878587858785 L 139.71543229373768,87.5087508750875 L 140.00017841933632,87.45874587458745 L 140.41147837853435,87.8087808780878 L 140.82277833773242,87.8087808780878 L 141.13916292173093,87.6087608760876 L 141.48718596412928,86.70867086708671 L 141.93012438172718,86.60866086608661 L 142.2781474241255,86.25862586258626 L 143.22730117612102,86.1086108610861 L 143.51204730171966,85.55855585558555 L 144.2397318449162,85.2085208520852 L 144.58775488731456,84.85848584858485 L 147.15047001770242,84.50845084508451 L 148.09962376969793,83.55835583558355 L 150.15612356568818,82.85828582858285 L 151.86460031928007,80.4080408040804 L 152.6239233208765,80.1080108010801 L 153.8578231984706,79.007900790079 L 154.17420778246913,78.3078307830783 L 154.87025386726583,77.95779577957795 L 154.96516924246538,77.35773577357736 L 154.68042311686673,74.65746574657466 L 155.31319228486373,74.35743574357436 L 156.2623460368592,74.25742574257426 L 157.36969208085398,73.25732573257325 L 157.59116128965292,73.25732573257325 L 159.55274571044362,73.8073807380738 L 160.53353792083897,77.15771577157716 L 164.99456055521782,77.30773077307731 L 166.63976039201003,77.5077507750775 L 167.81038335280448,78.1078107810781 L 169.07592168879847,79.35793579357936 L 170.15162927439337,81.05810581058105 L 170.43637539999204,81.05810581058105 L 170.91095227598979,81.45814581458146 L 171.6069983607865,81.5081508150815 L 171.8601060279853,82.35823582358235 L 172.4928751959823,83.5083508350835 L 173.44202894797778,84.00840084008401 L 174.16971349117435,85.25852585258525 L 174.96067495117057,85.8085808580858 L 175.18214415996954,86.25862586258626 L 175.7832748695667,86.45864586458646 L 175.43525182716834,86.80868086808681 L 175.5301672023679,87.4087408740874 L 175.1505057015697,87.95879587958795 L 176.19457482876473,88.2088208820882 L 176.32112866236415,89.00890089008901 L 176.76406707996205,89.20892089208921 L 176.6691517047625,89.7089708970897 L 176.7957055383619,90.1090109010901 L 178.25107462475498,91.8091809180918 L 179.9595513783469,92.6092609260926 L 180.24429750394555,92.6092609260926 L 180.2759359623454,92.15921592159215 L 180.62395900474374,92.009200920092 L 182.71209725913383,92.4092409240924 L 183.3765048855307,93.60936093609361 L 183.4397818023304,94.15941594159415 L 183.66125101112934,94.15941594159415 L 184.10418942872724,93.80938093809381 L 185.02170472232288,95.05950595059505 L 184.99006626392304,95.35953595359535 L 186.44543535031613,96.15961596159616 L 187.01492760151345,98.80988098809881 L 186.69854301751494,104.66046604660465 L 187.4895044775112,105.31053105310531 L 187.3629506439118,105.71057105710571 L 186.6669045591151,106.010601060106 L 185.55955851512033,107.61076107610761 L 184.73695859672424,107.86078607860786 L 184.2623817207265,108.26082608260826 L 183.5663356359298,108.4108410841084 L 182.4906280503349,109.06090609060905 L 181.63638967353893,109.010901090109 L 181.19345125594103,109.16091609160915 L 180.5290436295442,109.76097609760976 L 179.35842066874974,109.6109610961096 L 178.47254383355394,109.8109810981098 L 177.61830545675798,110.9110911091109 L 177.33355933115934,111.06110611061105 L 176.1629363703649,111.011101110111 L 175.02395186797028,111.6111611161116 L 174.35954424157345,112.2112211221122 L 173.3154751143784,112.46124612461246 L 172.14485215358394,113.01130113011301 L 171.67027527758617,113.4113411341134 L 170.75275998399053,113.46134613461345 L 169.61377548159592,114.26142614261425 L 168.79117556319983,114.5114511451145 L 168.44315252080148,115.01150115011501 L 167.58891414400554,115.21152115211521 L 165.9120758488135,116.36163616361635 L 165.15275284721707,116.66166616661666 L 164.51998367922008,117.51175117511751 L 163.85557605282324,117.61176117611761 L 163.22280688482624,118.26182618261825 L 162.49512234162967,118.4118411841184 L 162.05218392403177,119.76197619761976 L 162.62167617522908,128.66286628662866 L 162.8747838424279,129.36293629362936 L 163.28608380162592,129.46294629462946 L 166.76631422560942,129.5129512951295 L 167.2408911016072,129.06290629062906 L 168.25332177040238,126.71267126712671 L 168.88609093839938,126.81268126812681 L 171.54372144398678,127.8127812781278 L 172.39795982078275,128.46284628462845 L 175.2770595351691,133.7133713371337 L 175.49852874396802,134.56345634563456 L 175.3403364519688,135.06350635063507 L 173.25219819757868,138.46384638463846 L 178.3776284583544,143.36433643364336 L 179.76972062794778,143.16431643164316 L 185.9708584743184,141.46414641464145 L 191.31775794389304,141.16411641164115 L 191.34939640229288,143.5143514351435 L 193.27934236468374,149.01490149014901 L 194.16521919987954,151.015101510151 L 195.27256524387428,152.16521652165216 L 195.968611328671,153.2153215321532 L 197.07595737266575,154.31543154315432 L 198.02511112466124,155.66556655665565 L 199.54375712785404,156.76567656765675 L 199.5753955862539,157.015701570157 L 199.35392637745494,157.4157415741574 L 198.21494187506033,158.61586158615862 L 198.1833034166605,159.01590159015902 L 200.39799550465,162.1162116211621 L 201.4737030902449,162.3162316231623 L 201.9166415078428,162.96629662966296 L 201.9166415078428,164.56645664566454 L 201.63189538224415,164.96649664966495 L 200.9674877558473,164.86648664866485 L 200.80929546384806,164.96649664966495 L 196.4115497462689,168.31683168316832 L 187.86916597830938,170.96709670967095 L 180.81378975514284,167.8167816781678 L 171.70191373598604,162.36623662366236 L 170.05671389919382,161.6161616161616 L 169.13919860559818,161.46614661466145 L 150.85216965048488,162.16621662166216 L 149.71318514809028,161.96619661966196 L 138.92447083374142,156.015601560156 L 138.03859399854562,155.36553655365535 L 136.26684032815402,153.3153315331533 L 132.470225320172,152.86528652865286 L 131.42615619297698,152.5152515251525 L 123.57981850981416,145.76457645764575 L 123.01032625861686,144.91449144914492 L 123.45326467621476,143.26432643264326 L 123.67473388501371,142.46424642464245 L 122.25100325702046,137.3137313731373 L 122.15608788182091,136.4136413641364 L 125.41484909700546,129.76297629762976 L 120.41597266982916,128.26282628262825 L 114.59449632425675,122.96229622962295 z" /><path fill-rule="evenodd" fill="#D2EBD9" stroke="#A6A6A6" stroke-width="0.25" opacity="1" d="M 110.5764121074758,173.66736673667367 L 108.8046584370842,171.2171217121712 L 105.70408951389891,168.31683168316832 L 104.84985113710295,167.016701670167 L 104.84985113710295,166.4166416641664 L 107.79222776828901,164.01640164016402 L 109.21595839628225,161.2161216121612 L 109.69053527228,159.21592159215922 L 110.48149673227626,157.5157515751575 L 111.30409665067235,157.06570657065706 L 111.81031198506996,155.86558655865585 L 112.5379965282665,155.015501550155 L 112.9809349458644,154.8154815481548 L 113.7402579474608,154.86548654865484 L 114.15155790665885,154.66546654665467 L 114.3730271154578,154.31543154315432 L 115.32218086745331,149.36493649364937 L 115.98658849385016,148.56485648564856 L 116.96738070424551,148.16481648164816 L 117.3470422050437,147.3147314731473 L 118.04308828984041,146.36463646364635 L 118.16964212343981,144.91449144914492 L 118.83404974983665,144.31443144314431 L 119.90975733543156,144.16441644164416 L 120.92218800422675,144.31443144314431 L 121.30184950502496,144.014401440144 L 122.56738784101896,143.76437643764376 L 123.45326467621476,143.26432643264326 L 123.01032625861686,144.91449144914492 L 123.57981850981416,145.76457645764575 L 131.42615619297698,152.5152515251525 L 132.470225320172,152.86528652865286 L 136.26684032815402,153.3153315331533 L 138.03859399854562,155.36553655365535 L 138.92447083374142,156.015601560156 L 149.71318514809028,161.96619661966196 L 150.85216965048488,162.16621662166216 L 169.13919860559818,161.46614661466145 L 170.05671389919382,161.6161616161616 L 171.70191373598604,162.36623662366236 L 180.81378975514284,167.8167816781678 L 187.86916597830938,170.96709670967095 L 196.4115497462689,168.31683168316832 L 196.12680362067024,168.71687168716872 L 196.3482728294692,168.81688168816882 L 204.54263355503036,170.56705670567055 L 205.55506422382555,172.1172117211721 L 205.8398103494242,172.91729172917292 L 205.87144880782404,176.1176117611761 L 205.17540272302736,181.66816681668166 L 205.2070411814272,186.6186618661866 L 204.0680566790326,188.56885688568855 L 203.65675671983456,189.9189918991899 L 203.8782259286335,196.61966196619662 L 203.46692596943544,197.01970197019702 L 196.69629587186753,200.47004700470046 L 196.69629587186753,204.97049704970496 L 196.69629587186753,255.57555755575555 L 192.6149347382869,256.025602560256 L 186.19232768311733,258.17581758175817 L 183.34486642713085,258.77587758775877 L 179.39005912714958,261.32613261326134 L 178.97875916795155,261.7761776177618 L 178.66237458395304,262.3262326232623 L 178.06124387435588,266.07660766076606 L 177.39683624795904,266.8266826682668 L 175.94146716156592,267.37673767376737 L 174.48609807517283,267.3267326732673 L 173.821690448776,267.9267926792679 L 173.3154751143784,267.97679767976797 L 173.1256443639793,267.7267726772677 L 173.25219819757868,264.57645764576455 L 172.90417515518033,260.42604260426043 L 170.59456769199127,253.92539253925392 L 169.70869085679547,252.17521752175216 L 168.09512947840312,250.27502750275025 L 164.74145288801904,247.37473747374736 L 163.44427609362518,246.57465746574655 L 160.40698408723958,245.17451745174517 L 154.42731544966793,243.27432743274326 L 151.07363885928382,243.07430743074306 L 144.77758563771368,244.57445744574457 L 142.94255505052237,245.37453745374535 L 139.20921695934007,247.67476747674766 L 136.42503262015327,250.3250325032503 L 123.16851855061611,194.56945694569455 L 114.11991944825901,191.71917191719172 L 113.77189640586066,191.46914691469146 L 113.51878873866185,190.7190719071907 L 112.5379965282665,184.66846684668465 L 112.69618882026576,176.96769676967696 L 110.5764121074758,173.66736673667367 z" /></g></g></g></svg>