<svg xmlns="http://www.w3.org/2000/svg" xmlns:xlink="http://www.w3.org/1999/xlink" width="191.26203642599285" height="500.0" viewBox="0.0 0.0 191.26203642599285 500.0" preserveAspectRatio="xMinYMin meet"><g transform="matrix(1,0,0,-1,0,500.0)"><g><g><path fill-rule="evenodd" fill="#D2EBD9" stroke="#A6A6A6" stroke-width="0.25" opacity="1" d="M 114.17572711538666,408.2408240824082 L 91.77670274746612,423.2923292329233 L 90.97332185638783,424.79247924792475 L 90.89680939057085,427.09270927092706 L 92.27403377527648,437.3437343734373 L 93.70864250934483,442.8942894289429 L 93.7851549751618,446.8446844684468 L 93.00090220053777,455.79557955795576 L 94.39725470169763,459.14591459145913 L 99.73399919243191,464.29642964296426 L 101.0155829948663,466.09660966096607 L 101.32163285813422,467.1467146714671 L 101.66593895431062,470.4970497049705 L 103.1961882706502,473.4473447344734 L 103.04316333901625,474.5474547454745 L 102.22065433148371,476.5476547654765 L 101.99111693403279,477.64776477647763 L 102.27803868084645,479.5979597959796 L 104.80295005280675,485.7485748574857 L 82.59520684942865,485.3485348534853 L 76.43595335116186,484.1484148414841 L 64.17483070399099,479.84798479847984 L 65.36077392415417,484.048404840484 L 63.77314025845186,484.4484448444844 L 64.11744635462826,484.8484848484848 L 64.46175245080467,486.1486148614861 L 64.28959940271646,486.6986698669867 L 64.07919012171978,486.7986798679868 L 0.0,500.0 L 0.7268684252612989,498.34983498349834 L 2.352758323872099,496.84968496849683 L 4.361210551567794,495.6995699569957 L 6.159253498266796,495.2495249524952 L 7.957296444965799,495.4495449544954 L 11.285588708004378,496.3496349634963 L 13.141016004066115,496.3496349634963 L 16.41192391774196,495.09950995099507 L 17.903917001173046,492.7492749274927 L 18.20996686444096,489.64896489648964 L 17.693507720176356,484.8484848484848 L 16.144130287382534,483.6483648364836 L 15.359877512758501,482.79827982798275 L 14.881674601402382,481.8481848184818 L 12.75845367498122,471.79717971797174 L 12.8349661407982,470.84708470847085 L 13.332297168608562,468.8968896889689 L 13.160144120520359,467.8467846784678 L 12.318506996533593,466.996699669967 L 10.310054768837897,465.6465646564656 L 8.913702267678033,463.89638963896385 L 8.16770572596249,462.1462146214621 L 7.651246581697883,457.9457945794579 L 6.7139688754398925,453.99539953995395 L 6.656584526077158,451.94519451945195 L 7.651246581697883,449.8949894989499 L 8.512011822138895,449.14491449144913 L 9.602314460030843,448.6448644864486 L 13.026247305340647,448.044804480448 L 15.225980697578787,446.3446344634463 L 18.305607446712187,445.3445344534453 L 19.185500803607443,444.79447944794475 L 19.969753578231476,443.8443844384438 L 21.11744056548616,441.64416441644164 L 21.920821456564436,440.64406440644063 L 27.123669132118998,437.3437343734373 L 28.673046564912816,435.69356935693565 L 33.95240670628436,425.99259925992595 L 34.717531364454146,426.042604260426 L 35.65480907071213,427.59275927592756 L 38.256232908489416,426.5426542654265 L 39.19351061474741,426.4426442644264 L 40.3029413690936,426.69266926692666 L 42.12011243224685,427.4427442744274 L 43.13390260432182,427.2427242724272 L 44.09030842703405,426.2426242624262 L 44.14769277639679,425.1425142514251 L 43.66948986504067,423.24232423242324 L 44.77892061938686,421.44214421442143 L 46.443066750906155,419.8919891989199 L 47.475985039435365,418.29182918291826 L 46.61521979899435,416.29162916291625 L 47.99244418369997,416.29162916291625 L 52.29627038590503,417.041704170417 L 53.233548092163026,416.59165916591655 L 55.24200031985872,414.89148914891484 L 52.83185764662389,413.0913091309131 L 52.35365473526777,411.5911591159116 L 52.08586110490834,409.9409940994099 L 51.358992679647045,408.59085908590856 L 51.53114572773524,405.2405240524052 L 51.014686583470635,398.18981898189816 L 51.97109240618287,395.58955895589554 L 53.21441997570878,394.7894789478948 L 54.304722613600724,394.53945394539454 L 55.08897538822476,393.8893889388939 L 55.395025251492676,391.8391839183918 L 55.031591038862025,390.18901890189017 L 55.60543453248937,389.7389738973897 L 56.31317484129642,388.78887888788876 L 57.61388676018506,386.6386638663866 L 57.72865545891053,386.038603860386 L 57.59475864373082,383.7883788378838 L 57.99644908926996,382.8382838283828 L 58.41726765126334,382.5882588258826 L 60.11967001569112,382.2882288228823 L 60.578744810592994,382.0882088208821 L 61.30561323585429,381.4381438143814 L 61.860328613027384,381.2381238123812 L 63.81139649136035,381.1381138113811 L 65.37990204060841,380.8380838083808 L 66.85276700758526,380.8380838083808 L 67.31184180248712,380.68806880688066 L 67.57963543284656,380.3380338033803 L 67.52225108348382,379.98799879987996 L 66.96753570631073,378.68786878687865 L 67.23532933667015,377.7377737773777 L 67.86655717966022,376.98769876987694 L 69.16726909854887,376.23762376237624 L 70.3340842022578,374.63746374637464 L 70.71664653134269,374.33743374337433 L 71.27136190851579,374.1874187418742 L 72.05561468313982,374.23742374237423 L 74.71442287027983,374.987498749875 L 75.97687855625998,374.987498749875 L 79.07563342184763,375.33753375337534 L 80.51024215591598,374.5874587458746 L 81.08408564954333,374.4874487448745 L 82.0596195887098,374.73747374737474 L 82.9586410620593,374.53745374537453 L 83.09253787723901,374.5874587458746 L 83.20730657596448,375.33753375337534 L 83.09253787723901,376.5376537653765 L 81.90659465707584,379.8379837983798 L 81.86833842416735,380.9380938093809 L 82.86300047978807,384.23842384238424 L 83.39858774050693,385.03850385038504 L 83.83853441895455,386.2386238623862 L 83.83853441895455,390.6390639063906 L 84.50801849485312,393.03930393039303 L 85.4452962011111,394.93949394939494 L 88.33364178570206,399.039903990399 L 88.79271658060394,400.0400040004 L 89.04138209450912,401.2401240124012 L 88.63969164896997,403.5903590359036 L 89.09876644387185,403.990399039904 L 90.16994096530955,404.44044404440444 L 93.17305524862597,404.24042404240424 L 94.28248600297216,403.74037403740374 L 94.99022631177922,402.44024402440243 L 95.37278864086412,402.24022402240223 L 95.90837590158297,402.24022402240223 L 97.47688145083103,403.34033403340334 L 99.98266470633709,404.5904590459046 L 102.18239809857523,404.3904390439044 L 103.9230566959115,403.44034403440344 L 104.43951584017611,403.5903590359036 L 105.58720282743079,404.74047404740475 L 106.19930255396662,405.09050905090504 L 107.97821738421138,405.1405140514051 L 110.5987693384429,404.6904690469047 L 111.19174094852448,404.74047404740475 L 112.41594040159615,405.5405540554055 L 114.17572711538666,408.2408240824082 z" /><path fill-rule="evenodd" fill="#D2EBD9" stroke="#A6A6A6" stroke-width="0.25" opacity="1" d="M 55.031591038862025,390.18901890189017 L 54.97420668949929,389.88898889888986 L 53.883904051607345,389.6389638963896 L 52.35365473526777,389.88898889888986 L 50.632124254385744,389.5389538953895 L 51.22509586446733,388.5388538853885 L 51.16771151510459,387.9387938793879 L 50.82340541892819,387.28872887288725 L 50.632124254385744,386.38863886388634 L 50.80427730247395,385.73857385738575 L 51.97109240618287,383.33833383338333 L 52.640576482081435,381.38813881388137 L 52.5831921327187,380.58805880588056 L 50.632124254385744,378.58785878587855 L 49.84787147976171,377.08770877087704 L 49.65659031521926,375.6875687568757 L 50.09653699366689,371.68716871687167 L 50.0582807607584,370.5370537053705 L 47.954187950791486,362.8362836283628 L 48.10721288242544,360.98609860986096 L 48.604543910235805,359.88598859885985 L 49.96264017848718,358.1358135813581 L 50.42171497338905,356.6856685668567 L 50.65125237083999,354.83548354835483 L 50.38345874048056,353.08530853085307 L 49.350540451951346,351.88518851885186 L 47.590753738160835,351.6351635163516 L 45.94573572309579,352.58525852585257 L 43.325183768864264,355.33553355335533 L 41.9288312677044,352.5352535253525 L 41.98621561706714,349.58495849584955 L 43.554721166315204,347.53475347534754 L 46.61521979899435,347.1847184718472 L 50.593868021477256,348.18481848184814 L 52.54493589981021,347.8347834783478 L 53.386573023796984,345.7845784578458 L 52.69796083144417,344.3844384438444 L 51.11032716574186,343.9343934393439 L 49.31228421904286,344.2344234423442 L 47.954187950791486,345.13451345134513 L 46.19440123700097,343.98439843984397 L 43.84164291312887,343.8343834383438 L 38.906588867933735,344.3844384438444 L 38.657923354028554,343.78437843784377 L 38.19884855912668,340.98409840984095 L 38.23710479203517,340.3340334033403 L 38.485770305940356,340.03400340034 L 40.169044553913885,338.7338733873387 L 41.182834725988855,338.28382838283824 L 43.688617981494914,338.7338733873387 L 45.084970482654775,338.68386838683864 L 45.94573572309579,337.5837583758376 L 45.563173394010896,336.5836583658366 L 44.319845824484986,335.6835683568357 L 42.789596508145415,335.0835083508351 L 38.69617958693704,334.28342834283427 L 38.6770514704828,332.88328832883286 L 39.36566366283561,331.28312831283125 L 38.56228277175733,330.1330133013301 L 39.021357566659205,328.78287828782874 L 40.83852862981245,328.5828582858286 L 42.6556996929657,328.98289828982894 L 47.15080705971321,330.5330533053305 L 47.89680360142875,331.18311831183115 L 48.27936593051364,332.033203320332 L 48.58541579378156,334.033403340334 L 49.06361870513768,334.8334833483348 L 50.55561178856876,335.4835483548355 L 52.77447329726115,335.8835883588359 L 56.71486528683556,336.0836083608361 L 58.551164466443055,335.7835783578358 L 63.77314025845186,333.88338833883387 L 64.40436810144193,332.98329832983296 L 64.57652114953014,332.033203320332 L 64.3469837520792,330.98309830983095 L 63.69662779263488,329.68296829682964 L 66.68061395949705,328.5828582858286 L 68.45952878974181,327.03270327032703 L 69.07162851627764,324.68246824682467 L 68.1534789264739,319.6319631963196 L 68.00045399483994,316.7316731673167 L 67.5987635493008,315.48154815481547 L 66.60410149368008,314.4314431443144 L 65.49467073933388,313.78137813781376 L 64.69128984825561,312.8312831283128 L 64.59564926598438,310.88108810881084 L 65.81984871905604,307.33073307330733 L 65.83897683551028,305.7305730573057 L 64.65303361534711,303.7303730373037 L 62.43417210665473,301.7301730173017 L 61.8220723801189,300.78007800780074 L 61.8220723801189,299.22992299229924 L 61.30561323585429,296.029602960296 L 59.641467104335,292.9292929292929 L 58.64680504871428,289.8789878987899 L 59.947516967602915,286.77867786778677 L 64.71041796470985,278.7278727872787 L 65.93461741778151,273.87738773877385 L 63.77314025845186,270.72707270727074 L 66.4893327949546,271.4771477147715 L 68.53604125555879,272.27722772277224 L 70.50623725034599,274.07740774077405 L 71.04182451106485,274.3274327432743 L 72.55294571095018,274.3274327432743 L 73.71976081465911,274.87748774877485 L 74.1405793766525,275.67756775677566 L 74.1405793766525,276.2276227622762 L 73.27981413621148,277.27772777277727 L 73.22242978684875,277.8277827782778 L 73.39458283493694,278.2778277827783 L 73.9301700956558,278.8278827882788 L 77.85143396877596,281.4281428142814 L 78.34876499658633,282.3282328232823 L 78.90348037375942,284.5284528452845 L 79.84075808001741,285.2285228522852 L 81.60054479380793,285.5285528552855 L 82.28915698616073,285.8285828582858 L 84.04894369995125,287.8287828782878 L 86.11478027700967,289.2789278927893 L 86.95641740099644,290.32903290329034 L 87.6641577098035,291.7291729172917 L 88.08497627179688,291.97919791979194 L 88.58230729960725,292.1292129212921 L 90.83942504120812,291.77917791779174 L 92.10188072718827,291.9291929192919 L 92.67572422081561,291.67916791679164 L 93.03915843344626,291.2291229122912 L 93.13479901571749,290.67906790679064 L 93.59387381061936,289.72897289728974 L 96.71175679266125,288.5788578857886 L 99.21754004816731,288.3288328832883 L 101.43640155685969,287.6287628762876 L 102.66060100993136,287.5787578757876 L 106.33319936914633,288.3288328832883 L 108.09298608293685,288.52885288528853 L 109.71887598154764,289.32893289328933 L 114.13747088247817,293.27932793279325 L 114.50090509510882,293.9293929392939 L 114.57741756092581,294.47944794479446 L 113.48711492303386,296.8296829682968 L 113.25757752558292,297.8297829782978 L 113.27670564203716,301.48014801480144 L 113.08542447749471,303.3303330333033 L 113.39147434076263,305.68056805680567 L 114.04183030020695,307.1307130713071 L 114.53916132801731,307.5807580758076 L 117.86745359105589,308.3808380838084 L 125.25090654239435,309.3809380938094 L 126.76202774227968,309.3809380938094 L 131.63969743811208,308.33083308330833 L 134.7193241872455,308.3808380838084 L 148.281158753305,312.18121812181215 L 150.00268923418702,312.1312131213121 L 151.83898841379448,313.08130813081306 L 155.70286793755193,316.1816181618162 L 153.84744064149018,319.0819081908191 L 152.4319600238761,323.032303230323 L 151.76247594797752,333.1333133313331 L 150.63391707717707,335.93359335933593 L 148.95064282920353,335.1335133513351 L 147.49690597868096,336.63366336633663 L 146.50224392306023,339.033903390339 L 146.1961940597923,341.08410841084105 L 146.59788450533145,342.38423842384236 L 148.3385431026677,345.0845084508451 L 148.95064282920353,346.33463346334634 L 149.04628341147477,349.3349334933493 L 149.4097176241054,351.5351535153515 L 148.64459296593563,356.1856185618562 L 148.22377440394226,382.9382938293829 L 146.9613187179621,386.3386338633863 L 114.17572711538666,408.2408240824082 L 112.41594040159615,405.5405540554055 L 111.19174094852448,404.74047404740475 L 110.5987693384429,404.6904690469047 L 107.97821738421138,405.1405140514051 L 106.19930255396662,405.09050905090504 L 105.58720282743079,404.74047404740475 L 104.43951584017611,403.5903590359036 L 103.9230566959115,403.44034403440344 L 102.18239809857523,404.3904390439044 L 99.98266470633709,404.5904590459046 L 97.47688145083103,403.34033403340334 L 95.90837590158297,402.24022402240223 L 95.37278864086412,402.24022402240223 L 94.99022631177922,402.44024402440243 L 94.28248600297216,403.74037403740374 L 93.17305524862597,404.24042404240424 L 90.16994096530955,404.44044404440444 L 89.09876644387185,403.990399039904 L 88.63969164896997,403.5903590359036 L 89.04138209450912,401.2401240124012 L 88.79271658060394,400.0400040004 L 88.33364178570206,399.039903990399 L 85.4452962011111,394.93949394939494 L 84.50801849485312,393.03930393039303 L 83.83853441895455,390.6390639063906 L 83.83853441895455,386.2386238623862 L 83.39858774050693,385.03850385038504 L 82.86300047978807,384.23842384238424 L 81.86833842416735,380.9380938093809 L 81.90659465707584,379.8379837983798 L 83.09253787723901,376.5376537653765 L 83.20730657596448,375.33753375337534 L 83.09253787723901,374.5874587458746 L 82.9586410620593,374.53745374537453 L 82.0596195887098,374.73747374737474 L 81.08408564954333,374.4874487448745 L 80.51024215591598,374.5874587458746 L 79.07563342184763,375.33753375337534 L 75.97687855625998,374.987498749875 L 74.71442287027983,374.987498749875 L 72.05561468313982,374.23742374237423 L 71.27136190851579,374.1874187418742 L 70.71664653134269,374.33743374337433 L 70.3340842022578,374.63746374637464 L 69.16726909854887,376.23762376237624 L 67.86655717966022,376.98769876987694 L 67.23532933667015,377.7377737773777 L 66.96753570631073,378.68786878687865 L 67.52225108348382,379.98799879987996 L 67.57963543284656,380.3380338033803 L 67.31184180248712,380.68806880688066 L 66.85276700758526,380.8380838083808 L 65.37990204060841,380.8380838083808 L 63.81139649136035,381.1381138113811 L 61.860328613027384,381.2381238123812 L 61.30561323585429,381.4381438143814 L 60.578744810592994,382.0882088208821 L 60.11967001569112,382.2882288228823 L 58.41726765126334,382.5882588258826 L 57.99644908926996,382.8382838283828 L 57.59475864373082,383.7883788378838 L 57.72865545891053,386.038603860386 L 57.61388676018506,386.6386638663866 L 56.31317484129642,388.78887888788876 L 55.60543453248937,389.7389738973897 L 55.031591038862025,390.18901890189017 z" /><path fill-rule="evenodd" fill="#D2EBD9" stroke="#A6A6A6" stroke-width="0.25" opacity="1" d="M 63.77314025845186,270.72707270727074 L 63.27580923064149,269.4769476947695 L 63.122784299007535,267.9267926792679 L 62.77847820283113,266.6266626662666 L 61.70730368139343,266.1266126612661 L 58.53203634998881,266.7266726672667 L 57.49911806145959,266.37663766376636 L 58.0155772057242,266.026602660266 L 57.36522124627988,264.3264326432643 L 56.33230295775066,263.17631763176314 L 55.280256552767206,265.4265426542654 L 54.132569565512526,265.87658765876586 L 52.889241995986616,265.67656765676566 L 52.21975792008806,264.7264726472647 L 53.06139504407482,259.7759775977598 L 55.930612512211525,253.57535753575357 L 59.832748268877445,248.07480748074806 L 63.77314025845186,245.4245424542454 L 65.43728638997115,243.47434743474346 L 67.80917283029748,241.27412741274125 L 70.37234043516628,239.37393739373937 L 76.79938756379251,236.37363736373635 L 78.52091804467453,232.7232723272327 L 79.78337373065467,228.97289728972896 L 83.55161267214089,225.82258225822582 L 83.97243123413428,222.2222222222222 L 83.95330311768002,220.72207220722072 L 84.33586544676491,220.42204220422042 L 85.5218086669281,220.22202220222022 L 85.88524287955875,219.87198719871986 L 86.26780520864364,217.4217421742174 L 85.5218086669281,215.92159215921592 L 83.95330311768002,214.9214921492149 L 79.63034879902072,213.021302130213 L 77.98533078395567,211.92119211921192 L 74.71442287027983,208.97089708970896 L 73.8919138627473,208.57085708570855 L 73.14591732103176,208.47084708470845 L 72.62945817676716,208.1208120812081 L 72.51468947804169,206.82068206820682 L 72.93550804003507,205.77057705770576 L 74.37011677410342,204.17041704170416 L 74.54226982219163,202.8202820282028 L 74.00668256147277,201.52015201520152 L 73.24155790330299,200.9200920092009 L 72.74422687549263,200.2200220022002 L 73.26068601975723,197.8197819781978 L 73.62412023238788,193.16931693169315 L 74.52314170573739,189.46894689468945 L 74.50401358928313,183.86838683868385 L 75.46041941199537,177.31773177317731 L 77.46887163969107,177.66776677667767 L 82.38479756843196,178.11781178117812 L 83.91504688477154,178.76787678767874 L 85.21575880366018,179.86798679867985 L 86.765136236454,180.86808680868086 L 87.64502959334925,181.2181218121812 L 95.50668545604383,182.26822682268227 L 96.5204756281188,182.56825682568257 L 97.26647216983434,183.06830683068307 L 98.2802623419093,184.56845684568455 L 98.75846525326543,184.7184718471847 L 99.71487107597767,184.36843684368435 L 101.13035169359178,184.36843684368435 L 110.54138498908017,185.56855685568556 L 111.97599372314852,185.56855685568556 L 113.06629636104047,185.16851685168515 L 117.21709763161158,184.3184318431843 L 119.01514057831058,183.6183618361836 L 120.46887742883317,183.26832683268327 L 122.03738297808124,183.11831183118312 L 123.8545540412345,183.21832183218322 L 132.11790034946821,184.9184918491849 L 135.06363028342187,185.76857685768576 L 138.21976949837227,188.11881188118812 L 138.29628196418923,188.4188418841884 L 137.53115730601945,189.4189418941894 L 137.47377295665672,189.9189918991899 L 139.11879097172175,193.6193619361936 L 139.137919088176,196.61966196619662 L 139.5969938830779,198.8198819881988 L 139.8647875134373,201.92019201920192 L 140.43863100706466,204.1204120412041 L 140.43863100706466,206.07060706070607 L 140.20909360961372,207.17071707170717 L 138.90838169072507,208.6208620862086 L 138.4875631287317,209.5209520952095 L 138.52581936164017,212.2212221222122 L 138.21976949837227,213.2213221322132 L 137.89459151865012,215.62156215621562 L 137.11033874402608,217.5217521752175 L 137.11033874402608,222.37223722372235 L 137.64592600474492,223.7223722372237 L 137.6841822376534,224.77247724772477 L 173.74068175390468,224.3224322432243 L 173.47288812354526,224.72247224722472 L 173.95109103490137,227.17271727172715 L 173.95109103490137,228.87288728872886 L 174.10411596653535,229.72297229722972 L 177.33676764730268,235.07350735073507 L 177.70020185993334,236.8236823682368 L 177.27938329793994,237.8237823782378 L 174.75447192597966,241.024102410241 L 174.2571408981693,242.1242124212421 L 174.10411596653535,243.3243324332433 L 173.47288812354526,292.07920792079204 L 172.95642897928064,294.77947794779476 L 172.1721762046566,297.1797179717972 L 170.14459586050668,300.7300730073007 L 156.21932708181654,315.4315431543154 L 155.70286793755193,316.1816181618162 L 151.83898841379448,313.08130813081306 L 150.00268923418702,312.1312131213121 L 148.281158753305,312.18121812181215 L 134.7193241872455,308.3808380838084 L 131.63969743811208,308.33083308330833 L 126.76202774227968,309.3809380938094 L 125.25090654239435,309.3809380938094 L 117.86745359105589,308.3808380838084 L 114.53916132801731,307.5807580758076 L 114.04183030020695,307.1307130713071 L 113.39147434076263,305.68056805680567 L 113.08542447749471,303.3303330333033 L 113.27670564203716,301.48014801480144 L 113.25757752558292,297.8297829782978 L 113.48711492303386,296.8296829682968 L 114.57741756092581,294.47944794479446 L 114.50090509510882,293.9293929392939 L 114.13747088247817,293.27932793279325 L 109.71887598154764,289.32893289328933 L 108.09298608293685,288.52885288528853 L 106.33319936914633,288.3288328832883 L 102.66060100993136,287.5787578757876 L 101.43640155685969,287.6287628762876 L 99.21754004816731,288.3288328832883 L 96.71175679266125,288.5788578857886 L 93.59387381061936,289.72897289728974 L 93.13479901571749,290.67906790679064 L 93.03915843344626,291.2291229122912 L 92.67572422081561,291.67916791679164 L 92.10188072718827,291.9291929192919 L 90.83942504120812,291.77917791779174 L 88.58230729960725,292.1292129212921 L 88.08497627179688,291.97919791979194 L 87.6641577098035,291.7291729172917 L 86.95641740099644,290.32903290329034 L 86.11478027700967,289.2789278927893 L 84.04894369995125,287.8287828782878 L 82.28915698616073,285.8285828582858 L 81.60054479380793,285.5285528552855 L 79.84075808001741,285.2285228522852 L 78.90348037375942,284.5284528452845 L 78.34876499658633,282.3282328232823 L 77.85143396877596,281.4281428142814 L 73.9301700956558,278.8278827882788 L 73.39458283493694,278.2778277827783 L 73.22242978684875,277.8277827782778 L 73.27981413621148,277.27772777277727 L 74.1405793766525,276.2276227622762 L 74.1405793766525,275.67756775677566 L 73.71976081465911,274.87748774877485 L 72.55294571095018,274.3274327432743 L 71.04182451106485,274.3274327432743 L 70.50623725034599,274.07740774077405 L 68.53604125555879,272.27722772277224 L 66.4893327949546,271.4771477147715 L 63.77314025845186,270.72707270727074 z" /><path fill-rule="evenodd" fill="#D2EBD9" stroke="#A6A6A6" stroke-width="0.25" opacity="1" d="M 75.46041941199537,177.31773177317731 L 75.46041941199537,170.86708670867085 L 76.34031276889063,165.2165216521652 L 76.12990348789394,160.01600160016 L 76.41682523470762,158.1158115811581 L 73.56673588302515,158.56585658565857 L 72.304280197045,156.56565656565655 L 71.99823033377709,153.5153515351535 L 72.03648656668557,150.8150815081508 L 71.48177118951247,149.46494649464947 L 70.14280303771534,148.76487648764876 L 68.57429748846728,148.36483648364836 L 67.29271368603288,147.76477647764776 L 66.29805163041216,146.8146814681468 L 65.68595190387633,145.76457645764575 L 65.32251769124568,144.51445144514452 L 64.95908347861503,138.76387638763876 L 65.43728638997115,133.9133913391339 L 67.02492005567346,129.56295629562956 L 70.1236749212611,126.81268126812681 L 71.90258975150586,126.56265626562656 L 73.85365762983882,126.91269126912691 L 77.46887163969107,128.26282628262825 L 78.11922759913539,127.36273627362736 L 79.68773314838346,120.9120912091209 L 79.57296444965799,118.76187618761875 L 78.2531244143151,115.11151115111511 L 77.33497482451136,110.51105110511051 L 74.98221650063925,104.6104610461046 L 74.63791040446286,100.71007100710071 L 75.07785708291048,96.25962596259626 L 75.00134461709351,91.95919591959195 L 73.12678920457752,88.55885588558856 L 71.86433351859736,87.85878587858785 L 67.73266036448051,86.75867586758676 L 66.27892351395792,86.65866586658666 L 64.84431477988956,86.2086208620862 L 65.97287365069,84.7084708470847 L 68.76557865300973,82.55825582558255 L 69.93239375671865,80.45804580458045 L 69.68372824281347,78.8078807880788 L 67.61789166575504,75.3075307530753 L 66.96753570631073,73.25732573257325 L 67.27358556957864,72.30723072307231 L 69.41593461245405,70.8070807080708 L 72.26602396413651,65.5065506550655 L 72.91637992358083,64.6064606460646 L 74.59965417155436,64.25642564256425 L 76.30205653598215,63.306330633063304 L 77.7366652700505,61.95619561956195 L 78.57830239403727,60.35603560356035 L 78.67394297630848,58.755875587558755 L 77.81317773586747,53.75537553755375 L 78.36789311304057,51.705170517051705 L 79.64947691547496,50.505050505050505 L 81.02670130018059,49.5049504950495 L 81.8874665406216,47.954795479547954 L 85.56006489983658,47.904790479047904 L 86.45908637318608,47.75477547754775 L 87.70241394271198,46.5046504650465 L 87.64502959334925,45.604560456045604 L 86.95641740099644,44.654465446544656 L 86.34431767446061,43.404340434043405 L 86.30606144155212,42.8042804280428 L 91.39414041838121,43.55435543554355 L 93.02003031699202,44.15441544154415 L 96.44396316230181,46.3046304630463 L 97.43862521792255,47.45474547454745 L 98.43328727354327,49.104910491049104 L 99.37056497980126,50.2050205020502 L 102.92839464029078,53.7053705370537 L 103.84654423009452,55.355535553555356 L 104.4777720730846,57.555755575557555 L 104.87946251862374,61.35613561356135 L 104.6881813540813,66.1066106610661 L 104.84120628571524,67.25672567256726 L 105.58720282743079,69.1069106910691 L 106.04627762233267,69.55695569556956 L 106.96442721213641,70.05700570057006 L 107.9399611513029,70.45704570457045 L 109.81451656381887,70.9070907090709 L 126.3029529473778,69.85698569856986 L 126.49423411192025,69.55695569556956 L 126.28382483092356,68.85688568856885 L 126.43684976255753,68.55685568556855 L 126.83854020809666,68.3068306830683 L 128.5600706889787,68.1068106810681 L 129.01914548388055,67.9067906790679 L 129.55473274459942,67.1067106710671 L 130.28160116986072,66.45664566456645 L 131.88836295201727,65.8065806580658 L 132.2517971646479,65.45654565456546 L 133.41861226835684,63.456345634563455 L 134.14548069361814,62.8062806280628 L 138.12412891610103,61.35613561356135 L 143.6330264549235,66.85668566856685 L 150.44263591263464,71.9071907190719 L 152.3554475580591,72.60726072607261 L 154.57430906675148,73.1073107310731 L 155.7411241704604,73.2073207320732 L 156.6784018767184,73.15731573157315 L 160.08320660557396,72.20722072207221 L 161.84299331936447,72.25722572257226 L 163.526267567338,72.85728572857285 L 165.30518239758277,73.75737573757375 L 165.93641024057285,74.3074307430743 L 168.53783407835013,78.3078307830783 L 169.857674113693,79.30793079307931 L 168.59521842771287,81.05810581058105 L 166.68240678228838,88.05880588058805 L 174.10411596653535,88.008800880088 L 175.8830307967801,88.55885588558856 L 175.4622122347867,187.56875687568757 L 175.86390268032585,214.7214721472147 L 174.83098439179665,223.2223222322232 L 174.33365336398626,224.1224122412241 L 173.74068175390468,224.3224322432243 L 137.6841822376534,224.77247724772477 L 137.64592600474492,223.7223722372237 L 137.11033874402608,222.37223722372235 L 137.11033874402608,217.5217521752175 L 137.89459151865012,215.62156215621562 L 138.21976949837227,213.2213221322132 L 138.52581936164017,212.2212221222122 L 138.4875631287317,209.5209520952095 L 138.90838169072507,208.6208620862086 L 140.20909360961372,207.17071707170717 L 140.43863100706466,206.07060706070607 L 140.43863100706466,204.1204120412041 L 139.8647875134373,201.92019201920192 L 139.5969938830779,198.8198819881988 L 139.137919088176,196.61966196619662 L 139.11879097172175,193.6193619361936 L 137.47377295665672,189.9189918991899 L 137.53115730601945,189.4189418941894 L 138.29628196418923,188.4188418841884 L 138.21976949837227,188.11881188118812 L 135.06363028342187,185.76857685768576 L 132.11790034946821,184.9184918491849 L 123.8545540412345,183.21832183218322 L 122.03738297808124,183.11831183118312 L 120.46887742883317,183.26832683268327 L 119.01514057831058,183.6183618361836 L 117.21709763161158,184.3184318431843 L 113.06629636104047,185.16851685168515 L 111.97599372314852,185.56855685568556 L 110.54138498908017,185.56855685568556 L 101.13035169359178,184.36843684368435 L 99.71487107597767,184.36843684368435 L 98.75846525326543,184.7184718471847 L 98.2802623419093,184.56845684568455 L 97.26647216983434,183.06830683068307 L 96.5204756281188,182.56825682568257 L 95.50668545604383,182.26822682268227 L 87.64502959334925,181.2181218121812 L 86.765136236454,180.86808680868086 L 85.21575880366018,179.86798679867985 L 83.91504688477154,178.76787678767874 L 82.38479756843196,178.11781178117812 L 77.46887163969107,177.66776677667767 L 75.46041941199537,177.31773177317731 z" /><path fill-rule="evenodd" fill="#D2EBD9" stroke="#A6A6A6" stroke-width="0.25" opacity="1" d="M 86.30606144155212,42.8042804280428 L 86.1721646263724,40.75407540754075 L 86.78426435290824,38.35383538353835 L 87.95107945661717,36.003600360036 L 89.50045688941098,33.6033603360336 L 91.56629346646942,31.5031503150315 L 96.42483504584757,29.1029102910291 L 98.89236206844514,27.502750275027502 L 102.086757516304,23.65236523652365 L 103.34921320228416,22.7022702270227 L 105.35766542997986,22.15221522152215 L 112.85588708004379,22.15221522152215 L 115.41905468491257,14.2014201420142 L 116.9301758847979,12.051205120512051 L 117.71442865942194,11.451145114511451 L 119.18729362639878,10.75107510751075 L 122.28604849198642,6.65066506650665 L 123.62501664378355,5.95059505950595 L 131.75446613683755,5.05050505050505 L 132.92128124054648,3.4503450345034503 L 132.6726157266413,0.0 L 134.04984011134692,0.2000200020002 L 141.06985885005471,3.3003300330033003 L 156.62101752735566,8.05080508050805 L 175.2900591866985,11.2011201120112 L 174.58231887789145,13.25132513251325 L 176.6098992220414,14.351435143514351 L 189.21532796538867,17.35173517351735 L 191.26203642599285,17.451745174517452 L 187.51292560096087,32.1032103210321 L 184.98801422900058,36.203620362036204 L 184.1463771050138,36.8036803680368 L 182.02315617859264,37.9037903790379 L 181.37280021914833,38.453845384538454 L 181.16239093815165,39.3039303930393 L 181.4110564520568,41.45414541454145 L 181.29628775333134,42.4042404240424 L 180.66505991034128,43.254325432543254 L 179.03917001173048,44.604460446044605 L 178.79050449782528,45.3045304530453 L 178.65660768264559,46.45464546454645 L 177.9488673738385,46.704670467046704 L 176.97333343467204,46.6046604660466 L 176.0551838448683,46.704670467046704 L 174.46755017916598,47.8047804780478 L 173.10945391091462,49.404940494049406 L 172.78427593119244,50.405040504050405 L 172.99468521218915,52.955295529552956 L 171.92351069075144,54.9054905490549 L 170.6610550047713,55.95559555955595 L 170.0298271617812,57.05570557055705 L 170.8332080528595,59.25592559255925 L 173.07119767800611,62.256225622562255 L 173.47288812354526,63.8063806380638 L 171.71310140975476,69.90699069906991 L 171.65571706039202,71.6071607160716 L 172.38258548565332,75.75757575757575 L 172.19130432111086,77.15771577157716 L 171.3114109642156,78.2078207820782 L 169.857674113693,79.30793079307931 L 168.53783407835013,78.3078307830783 L 165.93641024057285,74.3074307430743 L 165.30518239758277,73.75737573757375 L 163.526267567338,72.85728572857285 L 161.84299331936447,72.25722572257226 L 160.08320660557396,72.20722072207221 L 156.6784018767184,73.15731573157315 L 155.7411241704604,73.2073207320732 L 154.57430906675148,73.1073107310731 L 152.3554475580591,72.60726072607261 L 150.44263591263464,71.9071907190719 L 143.6330264549235,66.85668566856685 L 138.12412891610103,61.35613561356135 L 134.14548069361814,62.8062806280628 L 133.41861226835684,63.456345634563455 L 132.2517971646479,65.45654565456546 L 131.88836295201727,65.8065806580658 L 130.28160116986072,66.45664566456645 L 129.55473274459942,67.1067106710671 L 129.01914548388055,67.9067906790679 L 128.5600706889787,68.1068106810681 L 126.83854020809666,68.3068306830683 L 126.43684976255753,68.55685568556855 L 126.28382483092356,68.85688568856885 L 126.49423411192025,69.55695569556956 L 126.3029529473778,69.85698569856986 L 109.81451656381887,70.9070907090709 L 107.9399611513029,70.45704570457045 L 106.96442721213641,70.05700570057006 L 106.04627762233267,69.55695569556956 L 105.58720282743079,69.1069106910691 L 104.84120628571524,67.25672567256726 L 104.6881813540813,66.1066106610661 L 104.87946251862374,61.35613561356135 L 104.4777720730846,57.555755575557555 L 103.84654423009452,55.355535553555356 L 102.92839464029078,53.7053705370537 L 99.37056497980126,50.2050205020502 L 98.43328727354327,49.104910491049104 L 97.43862521792255,47.45474547454745 L 96.44396316230181,46.3046304630463 L 93.02003031699202,44.15441544154415 L 91.39414041838121,43.55435543554355 L 86.30606144155212,42.8042804280428 z" /></g></g></g></svg>