<svg xmlns="http://www.w3.org/2000/svg" xmlns:xlink="http://www.w3.org/1999/xlink" width="500.0" height="210.55354885291308" viewBox="0.0 0.0 500.0 210.55354885291308" preserveAspectRatio="xMinYMin meet"><g transform="matrix(1,0,0,-1,0,210.55354885291308)"><g><g><path fill-rule="evenodd" fill="#D2EBD9" stroke="#A6A6A6" stroke-width="0.25" opacity="1" d="M 64.05640564056405,49.548204865577006 L 60.15601560156015,49.33763025926346 L 57.15571557155715,48.748021361585536 L 55.85558555855585,47.042367050445826 L 54.155415541554156,46.136896243297585 L 39.25392539253925,43.27308159743338 L 29.1029102910291,40.135519963361574 L 24.45244524452445,37.98765897896342 L 23.05230523052305,36.40834943161183 L 19.7019701970197,31.607248407663022 L 17.75177517751775,30.617547757989364 L 15.1015101510151,30.301685848519046 L 2.8002800280028,25.353182600150753 L 0.0,24.574056556790637 L 4.9504950495049505,15.96155515856667 L 9.15091509150915,12.297557008710996 L 13.85138513851385,11.476316044088172 L 15.8015801580158,12.655533839444022 L 18.85188518851885,16.888083426346263 L 20.9020902090209,18.614795198117328 L 23.402340234023402,19.667668229685052 L 25.5025502550255,19.772955532841824 L 27.502750275027502,18.888542186324937 L 29.8029802980298,16.93019834760897 L 31.55315531553155,14.824452284473528 L 33.003300330033,12.297557008710996 L 34.1034103410341,9.644316969160336 L 34.65346534653465,7.075306772135093 L 34.003400340034,3.2007340159658755 L 34.003400340034,2.27420574818628 L 34.65346534653465,0.0 L 35.25352535253525,0.5053790551525067 L 37.1037103710371,0.9686431890423044 L 40.05400540054005,1.2634476378812667 L 42.65426542654265,1.9372863780846088 L 44.7044704470447,3.22179147659723 L 46.05460546054605,5.348595000364029 L 46.2046204620462,6.801559783927486 L 45.504550455045504,9.4758572841095 L 45.45454545454545,10.528730315677223 L 46.004600460046,11.686890650401716 L 47.45474547454745,13.792636713537162 L 48.004800480048004,14.992911969524364 L 48.4048404840484,19.541323465896923 L 49.404940494049406,21.162747934511216 L 49.95499549954995,21.45755238335018 L 50.65506550655065,21.49966730461289 L 52.05520552055205,22.25773588734165 L 56.6056605660566,26.15336610414222 L 59.5059505950595,29.98582393904873 L 60.6060606060606,31.143984273773224 L 61.206120612061206,32.49166175417991 L 61.9061906190619,37.882371675806645 L 64.2064206420642,46.4106432315052 L 64.05640564056405,49.548204865577006 z" /><path fill-rule="evenodd" fill="#D2EBD9" stroke="#A6A6A6" stroke-width="0.25" opacity="1" d="M 163.41634163416342,117.37428555916968 L 163.016301630163,111.52031150365313 L 162.4162416241624,108.80389908220842 L 160.16601660166015,106.88767016475516 L 153.3153315331533,104.33971742836127 L 151.9151915191519,102.97098248732323 L 151.26512651265125,100.61254689661153 L 143.86438643864386,89.34680545883691 L 140.66406640664064,86.18818636413374 L 135.46354635463547,83.1980269544814 L 135.9135913591359,79.44979896210032 L 133.86338633863386,74.20649126489306 L 133.7133713371337,71.55325122534241 L 134.46344634463446,69.1948156346307 L 135.71357135713572,67.23647179591474 L 137.5137513751375,65.84667939424534 L 139.76397639763977,65.23601303593607 L 142.5142514251425,65.42553018161826 L 144.51445144514452,66.22571368560973 L 148.4148414841484,68.77366642200361 L 155.6155615561556,71.93228551670678 L 157.66576657665766,73.76428459163462 L 158.16581658165816,74.88033000509641 L 158.81588158815882,77.89154687538009 L 159.36593659365937,78.75490276126563 L 160.9160916091609,79.47085642273167 L 161.66616661666166,79.0918221313673 L 162.2162216221622,78.14423640295634 L 163.31633163316332,77.13347829265133 L 166.2166216621662,75.51205382403704 L 168.96689668966897,73.51159506405837 L 171.16711671167116,71.04787217018989 L 172.4172417241724,67.9945403786435 L 172.36723672367236,64.64640413825815 L 169.8169816981698,54.93891478720374 L 170.1170117011701,53.507007464271645 L 170.96709670967095,51.001169649140465 L 176.96769676967696,49.16917057421263 L 179.16791679167915,47.94783785759407 L 180.2180218021802,46.36852831024249 L 180.9180918091809,44.3259546290011 L 186.5186518651865,43.8205755738486 L 195.1195119511951,45.0208508298358 L 196.31963196319631,49.67454962936513 L 192.16921692169217,54.91785732657239 L 194.8194819481948,55.549581145513024 L 199.8199819981998,55.31794907856813 L 201.37013701370137,58.35022340948316 L 201.92019201920192,64.05679524058021 L 202.6202620262026,68.03665529990622 L 206.27062706270627,71.13210201271531 L 210.27102710271026,72.07968774112626 L 210.62106210621062,80.08152278104095 L 206.92069206920692,79.00759228884188 L 197.41974197419742,78.64961545810885 L 195.8195819581958,82.31361360796453 L 195.4195419541954,86.90414002559979 L 194.56945694569455,89.97852927777754 L 190.3190319031903,98.69631797915828 L 186.018601860186,107.056129849806 L 184.16841684168415,110.17263402324646 L 181.7181718171817,111.37290927923365 L 176.1176117611761,112.48895469269544 L 175.017501750175,115.1843096535088 L 173.9173917391739,114.95267758656391 L 169.4169416941694,114.9105626653012 L 163.41634163416342,117.37428555916968 z" /><path fill-rule="evenodd" fill="#D2EBD9" stroke="#A6A6A6" stroke-width="0.25" opacity="1" d="M 170.96709670967095,51.001169649140465 L 171.16711671167116,50.22204360578035 L 170.66706670667065,48.748021361585536 L 169.4169416941694,48.17946992453897 L 165.66656665666565,48.41110199148387 L 164.01640164016402,48.26369976706439 L 161.66616661666166,47.00025212918312 L 160.3160316031603,45.63151718814508 L 158.96589658965897,44.747103841628196 L 156.8156815681568,44.87344860541632 L 155.86558655865585,45.46305750309425 L 154.01540154015402,47.52668864496698 L 152.96529652965296,48.32687214895845 L 151.9151915191519,48.600619137166056 L 148.8148814881488,48.642734058428765 L 143.8143814381438,47.737263251280524 L 141.3141314131413,44.641816538471424 L 140.7140714071407,40.093405042098865 L 141.66416641664165,34.76586750236619 L 142.5142514251425,32.09157000218417 L 143.56435643564356,30.343800769781755 L 147.2147214721472,27.079894371921817 L 150.4150415041504,25.05837815131179 L 151.26512651265125,24.026562580375423 L 151.5151515151515,23.03686193070176 L 151.16511651165115,20.615253958096 L 151.3151315131513,19.52026600526557 L 154.76547654765477,14.108498623007478 L 155.46554655465545,11.813235414189844 L 157.1157115711571,2.379493051343052 L 162.4162416241624,6.190893425618206 L 165.016501650165,8.75990362264345 L 167.6167616761676,10.42344301252045 L 170.56705670567055,11.286798898405982 L 177.66776677667767,11.813235414189844 L 179.86798679867985,12.592361457549957 L 181.5181518151815,13.918981477325287 L 183.16831683168317,15.750980552253125 L 186.018601860186,20.02564506041808 L 187.86878687868787,22.215620966078937 L 192.06920692069207,24.047620041006777 L 199.9199919991999,30.617547757989364 L 205.4205420542054,33.986741459006076 L 222.022202220222,40.19869234525564 L 223.1223122312231,44.41018447152652 L 225.57255725572557,51.96981283818277 L 223.1223122312231,53.40172016111487 L 219.77197719771976,54.265076047000406 L 217.77177717771775,56.66562655897481 L 217.2217221722172,62.68806029954218 L 215.62156215621562,66.54157559508005 L 213.47134713471345,67.5312762447537 L 212.4212421242124,69.82653945357134 L 210.42104210421041,72.12180266238897 L 210.27102710271026,72.07968774112626 L 206.27062706270627,71.13210201271531 L 202.6202620262026,68.03665529990622 L 201.92019201920192,64.05679524058021 L 201.37013701370137,58.35022340948316 L 199.8199819981998,55.31794907856813 L 194.8194819481948,55.549581145513024 L 192.16921692169217,54.91785732657239 L 196.31963196319631,49.67454962936513 L 195.1195119511951,45.0208508298358 L 186.5186518651865,43.8205755738486 L 180.9180918091809,44.3259546290011 L 180.2180218021802,46.36852831024249 L 179.16791679167915,47.94783785759407 L 176.96769676967696,49.16917057421263 L 170.96709670967095,51.001169649140465 z" /><path fill-rule="evenodd" fill="#D2EBD9" stroke="#A6A6A6" stroke-width="0.25" opacity="1" d="M 249.77497749774977,47.52668864496698 L 249.37493749374937,48.600619137166056 L 248.22482248224821,54.265076047000406 L 250.2250225022502,59.38203898041953 L 248.92489248924892,62.856519984593014 L 246.7246724672467,64.98332350835982 L 238.4238423842384,68.81578134326632 L 236.27362736273625,72.37449218996522 L 235.87358735873585,77.470397662753 L 236.17361736173615,80.41844215114263 L 237.37373737373736,82.58736059617213 L 238.67386738673866,85.5143476239304 L 239.17391739173917,88.44133465168866 L 242.67426742674266,90.29439118724785 L 247.7247724772477,90.23121880535379 L 250.02500250025003,91.72629851017996 L 250.47504750475045,96.08519286087034 L 250.57505750575055,98.92795004610318 L 252.5252525252525,108.9934162278906 L 253.02530253025301,112.65741437774628 L 250.4250425042504,113.09962105100472 L 245.97459745974595,112.40472485017003 L 242.17421742174216,109.85677211377613 L 238.92389238923892,109.11976099167873 L 237.87378737873786,106.27700380644588 L 234.82348234823482,102.52877581406479 L 229.82298229822982,100.6757192785056 L 222.022202220222,99.60178878630653 L 222.77227722772275,98.23305384526849 L 222.27222722272225,94.29530870720521 L 219.5219521952195,91.85264327396808 L 218.5218521852185,89.19940323441743 L 216.67166716671667,87.15682955317605 L 215.22152215221521,85.13531333256601 L 215.12151215121511,81.40814280081628 L 210.62106210621062,80.08152278104095 L 210.27102710271026,72.07968774112626 L 210.42104210421041,72.12180266238897 L 212.4212421242124,69.82653945357134 L 213.47134713471345,67.5312762447537 L 215.62156215621562,66.54157559508005 L 217.2217221722172,62.68806029954218 L 217.77177717771775,56.66562655897481 L 219.77197719771976,54.265076047000406 L 223.1223122312231,53.40172016111487 L 225.57255725572557,51.96981283818277 L 223.1223122312231,44.41018447152652 L 222.022202220222,40.19869234525564 L 231.77317731773175,43.841633034479955 L 234.92349234923492,45.61045972751373 L 238.023802380238,48.095240082013554 L 240.52405240524052,48.62167659779741 L 248.27482748274826,47.48457372370427 L 249.77497749774977,47.52668864496698 z" /><path fill-rule="evenodd" fill="#D2EBD9" stroke="#A6A6A6" stroke-width="0.25" opacity="1" d="M 307.2307230723072,68.49991943379601 L 306.8806880688069,70.33191850872385 L 304.88048804880486,73.84851443416004 L 298.32983298329833,78.50221323368937 L 291.6291629162916,82.4189009111213 L 289.2789278927893,86.14607144287103 L 285.7285728572857,90.44179341166733 L 275.77757775777576,95.53769888445511 L 271.12711271127114,99.41227164062433 L 269.3269326932693,106.31911872770858 L 270.32703270327033,115.39488425982236 L 266.37663766376636,115.71074616929268 L 263.8263826382638,114.88950520466985 L 261.0761076107611,112.15203532259378 L 255.5255525552555,109.30927813736092 L 252.5252525252525,108.9934162278906 L 250.57505750575055,98.92795004610318 L 250.47504750475045,96.08519286087034 L 250.02500250025003,91.72629851017996 L 247.7247724772477,90.23121880535379 L 242.67426742674266,90.29439118724785 L 239.17391739173917,88.44133465168866 L 238.67386738673866,85.5143476239304 L 237.37373737373736,82.58736059617213 L 236.17361736173615,80.41844215114263 L 235.87358735873585,77.470397662753 L 236.27362736273625,72.37449218996522 L 238.4238423842384,68.81578134326632 L 246.7246724672467,64.98332350835982 L 248.92489248924892,62.856519984593014 L 250.2250225022502,59.38203898041953 L 248.22482248224821,54.265076047000406 L 249.37493749374937,48.600619137166056 L 249.77497749774977,47.52668864496698 L 251.07510751075105,47.56880356622969 L 260.82608260826083,53.08585825164455 L 264.026402640264,53.88604175563602 L 270.32703270327033,53.88604175563602 L 272.1272127212721,54.47565065331395 L 275.4275427542754,57.27629291728409 L 277.1277127712771,58.18176372443233 L 280.1780178017802,58.413395791377226 L 289.12891289128913,57.04466085033919 L 291.9291929192919,57.95013165748743 L 307.2307230723072,68.49991943379601 z" /><path fill-rule="evenodd" fill="#D2EBD9" stroke="#A6A6A6" stroke-width="0.25" opacity="1" d="M 321.032103210321,77.34405289896488 L 316.981698169817,82.58736059617213 L 314.38143814381436,86.39876097044728 L 312.68126812681265,90.98928738808256 L 312.031203120312,94.29530870720521 L 311.9311931193119,97.6223874869592 L 308.73087308730874,103.5395339243698 L 305.1305130513051,109.07764607041602 L 305.6305630563056,112.08886294069971 L 307.63076307630763,114.69998805898766 L 310.48104810481044,116.5741020551782 L 314.031403140314,125.41823552034707 L 316.981698169817,127.43975174095709 L 319.98199819981994,126.95543014643594 L 321.3321332133213,126.49216601254615 L 324.5324532453245,129.46126796156713 L 326.2826282628263,131.9249908554356 L 327.2827282728273,135.33629947771502 L 327.03270327032703,140.34797510797736 L 326.0826082608261,148.60249967546832 L 324.5324532453245,151.63477400638337 L 321.58215821582155,153.95109467583234 L 320.3320332033203,153.76157753015016 L 313.88138813881386,151.74006130954012 L 310.5310531053105,151.0662225693368 L 306.4306430643064,151.48737178196387 L 300.3300330033003,154.45647373098484 L 284.4284428442844,157.27817345558634 L 277.27772777277727,156.87808170359062 L 273.87738773877385,155.78309375076017 L 276.5276527652765,152.28755528595534 L 274.17741774177415,149.08682126998946 L 271.1771177117712,146.8547304430659 L 267.87678767876787,142.70641069868907 L 264.026402640264,141.63248020649 L 263.07630763076304,136.34705758802002 L 265.2265226522652,131.4196118002831 L 267.37673767376737,128.19782032368585 L 269.72697269726973,122.7228805595337 L 270.32703270327033,115.39488425982236 L 269.3269326932693,106.31911872770858 L 271.12711271127114,99.41227164062433 L 275.77757775777576,95.53769888445511 L 285.7285728572857,90.44179341166733 L 289.2789278927893,86.14607144287103 L 291.6291629162916,82.4189009111213 L 298.32983298329833,78.50221323368937 L 304.88048804880486,73.84851443416004 L 306.8806880688069,70.33191850872385 L 307.2307230723072,68.49991943379601 L 318.5818581858186,76.33329478865986 L 321.032103210321,77.34405289896488 z" /><path fill-rule="evenodd" fill="#D2EBD9" stroke="#A6A6A6" stroke-width="0.25" opacity="1" d="M 410.9410941094109,114.1735515432038 L 410.8910891089109,119.54320400419918 L 411.991199119912,123.39671929973704 L 412.54125412541254,124.1126729612031 L 410.3910391039104,126.91331522517324 L 407.6407640764076,129.01906128830868 L 399.1399139913991,131.48278418217714 L 395.5395539553955,129.71395748914338 L 393.73937393739374,126.09207426055042 L 391.7891789178918,125.14448853213946 L 389.2389238923892,126.63956823696563 L 385.23852385238524,127.16600475274949 L 379.037903790379,126.15524664244448 L 374.8874887488749,128.19782032368585 L 372.28722872287227,134.93620772571927 L 369.3369336933693,137.8842522141089 L 368.3368336833683,133.84121977288885 L 367.8367836783678,129.20857843399088 L 368.4368436843684,124.55487963446154 L 365.83658365836584,122.59653579574558 L 357.03570357035704,125.90255711486823 L 350.4350435043504,127.37657935906303 L 342.9342934293429,126.91331522517324 L 335.6835683568357,124.21796026435987 L 327.53275327532754,124.36536248877935 L 321.3321332133213,126.49216601254615 L 319.98199819981994,126.95543014643594 L 316.981698169817,127.43975174095709 L 314.031403140314,125.41823552034707 L 310.48104810481044,116.5741020551782 L 307.63076307630763,114.69998805898766 L 305.6305630563056,112.08886294069971 L 305.1305130513051,109.07764607041602 L 308.73087308730874,103.5395339243698 L 311.9311931193119,97.6223874869592 L 312.031203120312,94.29530870720521 L 312.68126812681265,90.98928738808256 L 314.38143814381436,86.39876097044728 L 316.981698169817,82.58736059617213 L 321.032103210321,77.34405289896488 L 325.2825282528253,79.13393705263 L 365.53655365536554,84.33512982857455 L 371.9371937193719,86.14607144287103 L 377.3377337733773,90.9261150061885 L 382.8882888288829,100.42302975092935 L 388.8388838883888,107.26670445611954 L 390.38903890389037,107.85631335379746 L 393.73937393739374,108.0247730388483 L 395.03950395039504,108.31957748768727 L 396.1396139613961,108.80389908220842 L 400.6400640064006,112.15203532259378 L 402.3902390239024,112.99433374784795 L 405.7405740574057,113.79451725183942 L 410.9410941094109,114.1735515432038 z" /><path fill-rule="evenodd" fill="#D2EBD9" stroke="#A6A6A6" stroke-width="0.25" opacity="1" d="M 404.7904790479048,164.96414658603072 L 407.1407140714071,161.5528379637513 L 408.2408240824082,157.69932266821343 L 409.89098909890987,155.951553435811 L 412.34123412341233,154.49858865224755 L 411.8911891189119,151.88746353395962 L 410.6410641064106,149.80277493145553 L 418.29182918291826,142.68535323805773 L 422.4922492249225,138.3896312692614 L 423.64236423642365,135.8627359934989 L 417.59175917591756,131.25115211523226 L 412.54125412541254,124.1126729612031 L 411.991199119912,123.39671929973704 L 410.8910891089109,119.54320400419918 L 410.9410941094109,114.1735515432038 L 428.89288928892887,115.47911410234778 L 433.24332433243325,117.64803254737728 L 443.044304430443,124.78651170140644 L 453.69536953695365,127.16600475274949 L 455.49554955495546,127.31340697716897 L 456.5456545654565,128.89271652452055 L 466.39663966396637,138.4949185724182 L 480.34803480348035,149.40268317945979 L 487.34873487348733,156.43587503033217 L 498.4998499849985,164.7956869009799 L 500.0,167.4278694798992 L 498.8998899889989,170.52331619270828 L 495.999599959996,172.48166003142424 L 489.0989098909891,174.3557740276148 L 485.8485848584858,176.2930604056994 L 484.8484848484848,177.80919757115694 L 484.39843984398436,179.15687505156362 L 483.69836983698366,180.14657570123728 L 481.69816981698165,180.5887823744957 L 480.64806480648065,180.16763316186862 L 475.99759975997597,176.81949692148328 L 473.29732973297325,175.51393436233928 L 469.5969596959696,175.15595753160628 L 465.8465846584658,175.51393436233928 L 462.89628962896285,176.2930604056994 L 452.1952195219522,181.45213826038125 L 449.84498449844983,183.17885003215233 L 447.29472947294727,183.78951639046159 L 443.8443844384438,182.29443668563542 L 428.2428242824282,171.15504001164894 L 421.74217421742173,168.22805298389065 L 415.09150915091504,166.83826058222127 L 413.94139413941394,166.98566280664073 L 411.3911391139114,167.80690377126356 L 409.69096909690967,167.80690377126356 L 408.4408440844084,167.21729487358564 L 405.5405540554055,165.17472119234426 L 404.7904790479048,164.96414658603072 z" /><path fill-rule="evenodd" fill="#D2EBD9" stroke="#A6A6A6" stroke-width="0.25" opacity="1" d="M 321.58215821582155,153.95109467583234 L 324.5324532453245,151.63477400638337 L 326.0826082608261,148.60249967546832 L 327.03270327032703,140.34797510797736 L 327.2827282728273,135.33629947771502 L 326.2826282628263,131.9249908554356 L 324.5324532453245,129.46126796156713 L 321.3321332133213,126.49216601254615 L 327.53275327532754,124.36536248877935 L 335.6835683568357,124.21796026435987 L 342.9342934293429,126.91331522517324 L 350.4350435043504,127.37657935906303 L 357.03570357035704,125.90255711486823 L 365.83658365836584,122.59653579574558 L 368.4368436843684,124.55487963446154 L 367.8367836783678,129.20857843399088 L 368.3368336833683,133.84121977288885 L 369.3369336933693,137.8842522141089 L 372.28722872287227,134.93620772571927 L 374.8874887488749,128.19782032368585 L 379.037903790379,126.15524664244448 L 385.23852385238524,127.16600475274949 L 389.2389238923892,126.63956823696563 L 391.7891789178918,125.14448853213946 L 393.73937393739374,126.09207426055042 L 395.5395539553955,129.71395748914338 L 399.1399139913991,131.48278418217714 L 407.6407640764076,129.01906128830868 L 410.3910391039104,126.91331522517324 L 412.54125412541254,124.1126729612031 L 417.59175917591756,131.25115211523226 L 423.64236423642365,135.8627359934989 L 422.4922492249225,138.3896312692614 L 418.29182918291826,142.68535323805773 L 410.6410641064106,149.80277493145553 L 411.8911891189119,151.88746353395962 L 412.34123412341233,154.49858865224755 L 409.89098909890987,155.951553435811 L 408.2408240824082,157.69932266821343 L 407.1407140714071,161.5528379637513 L 404.7904790479048,164.96414658603072 L 401.5401540154015,164.07973323951384 L 389.88898889888986,158.54162109346763 L 383.5883588358836,156.4148175697008 L 377.98779877987795,161.76341257006484 L 375.73757375737574,162.54253861342497 L 372.18721872187217,162.77417068036985 L 368.68686868686865,163.51118180246726 L 365.43654365436544,164.81674436161123 L 362.68626862686267,166.83826058222127 L 361.08610861086106,166.12230692075522 L 358.035803580358,166.05913453886114 L 356.3856385638564,165.78538755065355 L 351.3351335133513,162.94263036542068 L 346.43464346434644,161.53178050311993 L 339.7339733973397,156.7517369398025 L 336.5836583658366,155.1724273924509 L 330.48304830483045,154.30907150656537 L 323.6323632363236,154.22484166403996 L 321.58215821582155,153.95109467583234 z" /><g><path fill-rule="evenodd" fill="#D2EBD9" stroke="#A6A6A6" stroke-width="0.25" opacity="1" d="M 222.3222322232223,143.8856284940449 L 223.47234723472346,137.48416046211318 L 225.67256725672567,135.8627359934989 L 227.07270727072705,134.80986296193115 L 233.023302330233,135.7153337690794 L 237.87378737873786,137.35781569832506 L 241.5241524152415,138.09482682042244 L 246.7246724672467,140.9375840056553 L 253.67536753675367,144.36995008856607 L 259.5759575957596,143.9909157972017 L 263.7263726372637,141.52719290333323 L 264.026402640264,141.63248020649 L 267.87678767876787,142.70641069868907 L 271.1771177117712,146.8547304430659 L 274.17741774177415,149.08682126998946 L 276.5276527652765,152.28755528595534 L 273.87738773877385,155.78309375076017 L 259.3759375937594,151.0662225693368 L 251.1251125112511,149.69748762829875 L 246.57465746574655,149.82383239208687 L 243.77437743774377,151.0662225693368 L 239.62396239623962,146.8547304430659 L 237.8237823782378,146.74944313990912 L 233.9233923392339,147.90760347463362 L 230.17301730173017,147.44433934074382 L 222.3222322232223,143.8856284940449 z" /><path fill-rule="evenodd" fill="#D2EBD9" stroke="#A6A6A6" stroke-width="0.25" opacity="1" d="M 234.42344234423442,201.1198064900663 L 233.3233323332333,199.14040519071898 L 227.9227922792279,195.05525782823622 L 226.02260226022602,193.20220129267702 L 224.82248224822482,191.180685072067 L 224.4224422442244,189.66454790660947 L 224.92249224922492,188.19052566241467 L 226.5226522652265,186.37958404811818 L 228.5228522852285,185.24248117402504 L 233.4233423342334,183.74740146919888 L 234.42344234423442,183.17885003215233 L 235.07350735073507,182.50501129194896 L 236.5236523652365,182.94721796520741 L 237.9237923792379,184.04220591803784 L 238.57385738573856,185.28459609528775 L 239.62396239623962,189.95935235544843 L 245.5245524552455,204.4468852698203 L 246.8246824682468,209.35327359692587 L 244.02440244024402,210.55354885291308 L 239.87398739873987,207.79502151020566 L 236.07360736073605,203.79410399024832 L 234.42344234423442,201.1198064900663 z" /></g><path fill-rule="evenodd" fill="#D2EBD9" stroke="#A6A6A6" stroke-width="0.25" opacity="1" d="M 163.41634163416342,117.37428555916968 L 169.4169416941694,114.9105626653012 L 173.9173917391739,114.95267758656391 L 175.017501750175,115.1843096535088 L 182.26822682268227,116.76361920086039 L 189.26892689268925,119.54320400419918 L 193.26932693269325,121.69106498859733 L 206.72067206720672,124.28113264625394 L 213.57135713571355,129.62972764661797 L 219.021902190219,131.5038416428085 L 223.07230723072306,131.3143244971263 L 225.67256725672567,135.8627359934989 L 223.47234723472346,137.48416046211318 L 222.3222322232223,143.8856284940449 L 218.8218821882188,143.04333006879074 L 208.8208820882088,143.71716880899407 L 205.72057205720571,143.3802494388924 L 195.66956695669566,140.45326241113415 L 191.1191119111911,137.77896491095214 L 189.4189418941894,137.29464331643098 L 183.86838683868385,138.1158842810538 L 182.61826182618262,137.82107983221485 L 179.7179717971797,136.24177028486326 L 172.71727172717272,135.16783979266418 L 169.66696669666965,134.1360242217278 L 167.2167216721672,131.94604831606694 L 165.2165216521652,128.8295441426265 L 163.91639163916392,125.3129482171903 L 163.41634163416342,117.37428555916968 z" /><path fill-rule="evenodd" fill="#D2EBD9" stroke="#A6A6A6" stroke-width="0.25" opacity="1" d="M 223.07230723072306,131.3143244971263 L 219.021902190219,131.5038416428085 L 213.57135713571355,129.62972764661797 L 206.72067206720672,124.28113264625394 L 193.26932693269325,121.69106498859733 L 189.26892689268925,119.54320400419918 L 182.26822682268227,116.76361920086039 L 175.017501750175,115.1843096535088 L 176.1176117611761,112.48895469269544 L 181.7181718171817,111.37290927923365 L 184.16841684168415,110.17263402324646 L 186.018601860186,107.056129849806 L 190.3190319031903,98.69631797915828 L 194.56945694569455,89.97852927777754 L 195.4195419541954,86.90414002559979 L 195.8195819581958,82.31361360796453 L 197.41974197419742,78.64961545810885 L 206.92069206920692,79.00759228884188 L 210.62106210621062,80.08152278104095 L 215.12151215121511,81.40814280081628 L 215.22152215221521,85.13531333256601 L 216.67166716671667,87.15682955317605 L 218.5218521852185,89.19940323441743 L 219.5219521952195,91.85264327396808 L 222.27222722272225,94.29530870720521 L 222.77227722772275,98.23305384526849 L 222.022202220222,99.60178878630653 L 220.77207720772077,101.96022437701822 L 220.07200720072007,104.76086664098837 L 215.97159715971597,106.80344032222975 L 213.77137713771376,109.07764607041602 L 216.22162216221622,112.15203532259378 L 217.4217421742174,115.54228648424184 L 214.97149714971496,118.0060093781103 L 215.37153715371537,119.88012337430085 L 220.27202720272027,121.56472022480921 L 223.5223522352235,123.4598916816311 L 225.32253225322532,128.19782032368585 L 223.77237723772376,131.29326703649497 L 223.07230723072306,131.3143244971263 z" /><path fill-rule="evenodd" fill="#D2EBD9" stroke="#A6A6A6" stroke-width="0.25" opacity="1" d="M 264.026402640264,141.63248020649 L 263.7263726372637,141.52719290333323 L 259.5759575957596,143.9909157972017 L 253.67536753675367,144.36995008856607 L 246.7246724672467,140.9375840056553 L 241.5241524152415,138.09482682042244 L 237.87378737873786,137.35781569832506 L 233.023302330233,135.7153337690794 L 227.07270727072705,134.80986296193115 L 225.67256725672567,135.8627359934989 L 223.07230723072306,131.3143244971263 L 223.77237723772376,131.29326703649497 L 225.32253225322532,128.19782032368585 L 223.5223522352235,123.4598916816311 L 220.27202720272027,121.56472022480921 L 215.37153715371537,119.88012337430085 L 214.97149714971496,118.0060093781103 L 217.4217421742174,115.54228648424184 L 216.22162216221622,112.15203532259378 L 213.77137713771376,109.07764607041602 L 215.97159715971597,106.80344032222975 L 220.07200720072007,104.76086664098837 L 220.77207720772077,101.96022437701822 L 222.022202220222,99.60178878630653 L 229.82298229822982,100.6757192785056 L 234.82348234823482,102.52877581406479 L 237.87378737873786,106.27700380644588 L 238.92389238923892,109.11976099167873 L 242.17421742174216,109.85677211377613 L 245.97459745974595,112.40472485017003 L 250.4250425042504,113.09962105100472 L 253.02530253025301,112.65741437774628 L 252.5252525252525,108.9934162278906 L 255.5255525552555,109.30927813736092 L 261.0761076107611,112.15203532259378 L 263.8263826382638,114.88950520466985 L 266.37663766376636,115.71074616929268 L 270.32703270327033,115.39488425982236 L 269.72697269726973,122.7228805595337 L 267.37673767376737,128.19782032368585 L 265.2265226522652,131.4196118002831 L 263.07630763076304,136.34705758802002 L 264.026402640264,141.63248020649 z" /></g></g></g></svg>