<svg xmlns="http://www.w3.org/2000/svg" xmlns:xlink="http://www.w3.org/1999/xlink" width="500.0" height="346.8651372017339" viewBox="0.0 0.0 500.0 346.8651372017339" preserveAspectRatio="xMinYMin meet"><g transform="matrix(1,0,0,-1,0,346.8651372017339)"><g><g><path fill-rule="evenodd" fill="#D2EBD9" stroke="#A6A6A6" stroke-width="0.25" opacity="1" d="M 432.54325432543254,74.37532294834658 L 433.8433843384338,76.76893175591931 L 434.29342934293425,78.26060101281244 L 434.1434143414341,79.96041016601626 L 433.49334933493344,83.32533848970546 L 433.6433643364336,85.05983762562772 L 434.29342934293425,86.16991707261796 L 435.3435343534353,86.93309669242376 L 441.6941694169417,90.40209496426829 L 444.29442944294425,91.23465454951096 L 459.74597459745974,91.65093434213232 L 460.996099609961,92.31004401378277 L 462.59625962596255,94.56489289048172 L 464.046404640464,96.19532207824864 L 464.2464246424642,97.09726162892821 L 463.9463946394639,99.97653019455916 L 464.09640964096405,100.98253969339407 L 465.2465246524652,103.51490843184058 L 466.046604660466,104.24339806892793 L 466.6466646664666,104.3821579998017 L 468.0968096809681,104.34746801708327 L 468.54685468546853,104.72905782698616 L 468.8968896889689,106.53293692834532 L 470.3970397039704,105.9778972048502 L 471.24712471247125,104.20870808620948 L 472.19721972197215,103.41083848368524 L 480.0980098009801,100.42749996989896 L 480.6980698069807,99.90715022912228 L 482.29822982298225,97.96451119688935 L 482.99829982998295,97.61761136970489 L 484.9484948494849,97.51354142154956 L 485.4485448544854,97.09726162892821 L 486.3486348634863,96.71567181902532 L 487.64876487648763,95.57090238931663 L 488.54885488548854,95.50152242387973 L 490.99909990999095,96.29939202640398 L 491.8491849184918,96.4034619745593 L 492.19921992199215,96.23001206096708 L 492.69926992699266,95.43214245844284 L 493.1493149314931,95.22400256213217 L 493.49934993499346,95.29338252756907 L 494.9494949494949,96.68098183630687 L 495.5495549554955,97.02788166349133 L 494.69946994699467,97.72168131786023 L 494.7494749474947,98.51955092038446 L 496.4996499649965,100.87846974523875 L 496.3496349634963,101.6069593823261 L 495.09950995099507,102.78641879475323 L 494.6494649464946,104.03525817261726 L 494.7494749474947,105.63099737766574 L 495.5495549554955,108.61433589145203 L 495.6995699569957,110.38352501009274 L 495.3995399539954,113.88721326465571 L 495.5495549554955,115.62171240057796 L 496.74967496749673,117.80718131184001 L 498.6998699869987,120.37424003300497 L 500.0,122.90660877145147 L 499.24992499249925,125.05738769999508 L 498.04980498049804,125.88994728523775 L 496.7996799679968,126.51436697416977 L 495.4495449544954,126.89595678407267 L 492.7492749274927,126.89595678407267 L 491.6491649164916,127.24285661125712 L 488.0988098809881,128.9079757817425 L 486.4486448644864,130.98937474484921 L 485.39853985398537,131.96069426096568 L 484.2484248424842,132.5157339844608 L 481.99819981998195,133.1401536733928 L 479.7979797979798,134.90934279203353 L 478.7978797879788,135.4296925328102 L 476.4976497649765,135.8112823427131 L 472.9472947294729,137.54578147863535 L 471.7471747174717,137.6498514267907 L 470.74707470747074,137.23357163416935 L 469.04690469046903,135.84597232543155 L 468.14681468146813,135.32562258465487 L 465.69656965696566,135.15217267106263 L 463.3463346334633,135.9500422735869 L 449.2949294929493,145.45509753844087 L 441.2941294129413,152.7746838920328 L 438.9438943894389,154.26635314892596 L 433.7433743374337,156.10492223300355 L 429.2429242924292,158.70667093688695 L 421.84218421842183,164.98555780892553 L 418.7418741874187,168.97490582154674 L 417.9417941794179,169.49525556232342 L 416.8416841684168,169.35649563144963 L 414.14141414141415,168.00358630543028 L 413.24132413241324,167.7954464091196 L 412.1912191219122,168.00358630543028 L 411.1411141114111,168.5586260289254 L 396.6396639663966,178.93093086174053 L 394.53945394539454,181.15108975572102 L 390.7390739073907,186.45865711164313 L 388.48884888488845,188.5747460574683 L 357.38573857385734,210.84571496271013 L 354.985498549855,213.13525382212754 L 352.4352435243524,216.3267322322245 L 351.4351435143514,220.14263033125346 L 351.3351335133513,221.18332981280682 L 351.98519851985196,223.85445848212711 L 351.8351835183518,224.82577799824358 L 350.78507850785076,227.18469682309785 L 350.48504850485045,230.27210528503946 L 349.28492849284925,232.9085439716413 L 349.034903490349,233.77579353960243 L 348.9348934893489,235.71843257183536 L 348.58485848584854,236.1347123644567 L 345.6845684568457,237.83452151766053 L 344.034403440344,238.32018127571877 L 343.28432843284327,238.90991098193234 L 342.5342534253425,240.78317004872838 L 341.2341234123412,242.55235916736908 L 340.7340734073407,243.52367868348554 L 340.03400340034,246.36825726639805 L 338.0838083808381,248.90062600484455 L 337.7837783778378,249.90663550367947 L 337.3837383738374,252.02272444950464 L 336.2836283628363,255.94269249668895 L 335.8835883588359,256.8446320473685 L 336.1836183618362,257.191531874553 L 335.983598359836,257.8853315289219 L 335.7835783578358,262.1175094205722 L 335.4835483548355,262.880689040378 L 332.88328832883286,267.25162686290207 L 332.2332233223322,268.0148064827079 L 324.3324332433243,273.8427235794067 L 321.28212821282125,275.1609429227076 L 317.8817881788179,276.06288247338716 L 316.5816581658166,276.20164240426095 L 315.7815781578158,275.82005259435806 L 315.28152815281527,274.8487330782416 L 314.9314931493149,273.18361390775624 L 314.08140814081406,272.697954149698 L 313.4313431343134,271.2409748755233 L 312.4312431243124,270.13089542853305 L 311.2311231123112,269.50647573960106 L 309.88098809880984,269.4717857568826 L 308.43084308430844,270.06151546309616 L 304.8304830483048,272.6285741842611 L 304.18041804180416,272.66326416697956 L 302.1302130213021,272.3163643397951 L 301.8301830183018,273.14892392503776 L 301.68016801680164,273.25299387319313 L 301.48014801480144,272.90609404600866 L 301.3301330133013,263.92138852193136 L 301.1301130113011,263.192898884844 L 300.6300630063006,262.2909593341644 L 274.8274827482748,262.1868893860091 L 275.07750775077506,231.6597045937773 L 275.27752775277526,231.34749474931127 L 275.7275727572757,231.24342480115592 L 282.7282728272827,231.03528490484527 L 283.17831783178315,230.86183499125303 L 283.37833783378335,230.3761752331948 L 284.028402840284,192.8069239491186 L 284.3284328432843,192.49471410465262 L 285.8285828582858,192.35595417377883 L 302.08020802080205,193.6394835343613 L 309.13091309130914,193.04975382814774 L 322.4322432243224,179.31252067164343 L 362.5362536253625,136.71322189339267 L 365.6865686568657,133.93802327591706 L 377.38773877387735,129.42832552251917 L 379.7379737973797,128.00603623106292 L 391.8891889188919,114.16473312640326 L 396.6396639663966,108.30212604698602 L 397.039703970397,106.35948701475309 L 392.2892289228923,100.18467009086984 L 390.88908890889087,97.9992011796078 L 388.88888888888886,96.16063209553019 L 389.3389338933893,75.79761223980285 L 389.58895889588956,74.6181528273757 L 390.58905890589057,74.37532294834658 L 432.54325432543254,74.37532294834658 z" /><path fill-rule="evenodd" fill="#D2EBD9" stroke="#A6A6A6" stroke-width="0.25" opacity="1" d="M 432.54325432543254,74.37532294834658 L 390.58905890589057,74.37532294834658 L 389.58895889588956,74.6181528273757 L 389.3389338933893,75.79761223980285 L 388.88888888888886,96.16063209553019 L 390.88908890889087,97.9992011796078 L 392.2892289228923,100.18467009086984 L 397.039703970397,106.35948701475309 L 396.6396639663966,108.30212604698602 L 391.8891889188919,114.16473312640326 L 379.7379737973797,128.00603623106292 L 377.38773877387735,129.42832552251917 L 365.6865686568657,133.93802327591706 L 362.5362536253625,136.71322189339267 L 322.4322432243224,179.31252067164343 L 309.13091309130914,193.04975382814774 L 302.08020802080205,193.6394835343613 L 301.88018801880185,186.49334709436158 L 301.1301130113011,184.86291790659465 L 298.8798879887989,184.34256816581797 L 294.37943794379436,182.95496885708016 L 293.2293229322932,181.49798958290546 L 291.029102910291,169.11366575242053 L 290.42904290429044,167.5526165300905 L 289.82898289828984,167.24040668562446 L 287.6287628762876,166.89350685844002 L 287.028702870287,166.65067697941092 L 286.5286528652865,165.36714761882843 L 285.8285828582858,160.71868993455678 L 285.3285328532853,159.26171066038208 L 284.77847784778476,159.01888078135295 L 284.17841784178415,158.9841907986345 L 282.27822782278224,159.15764071222674 L 286.6286628662866,140.87601981960609 L 287.3287328732873,138.82931083921784 L 296.17961796179617,129.6017754361114 L 297.5797579757976,127.55506645572314 L 300.4300430043004,121.86590928989811 L 300.68006800680064,120.8598997910632 L 300.3300330033003,120.47830998116031 L 297.6797679767977,119.85389029222829 L 297.4297429742974,119.61106041319917 L 299.52995299529954,112.70775385222856 L 299.1799179917992,112.22209409417033 L 298.5798579857986,111.94457423242277 L 297.8297829782978,111.90988424970433 L 297.4797479747975,110.62635488912186 L 297.5297529752975,108.30212604698602 L 300.0800080008001,98.24203105863691 L 300.4300430043004,97.9992011796078 L 301.3301330133013,97.860441248734 L 303.48034803480346,97.9992011796078 L 307.3807380738074,97.61761136970489 L 308.0808080808081,96.85443174989909 L 309.98099809980994,93.59357337436525 L 312.2312231223122,94.59958287320016 L 313.28132813281326,94.6342728559186 L 314.8314831483148,94.28737302873415 L 315.38153815381537,94.00985316698659 L 316.031603160316,93.1772935817439 L 316.1816181618162,92.4141139619381 L 316.1316131613161,91.58155437669542 L 315.7315731573157,90.40209496426829 L 314.9314931493149,89.1879455691227 L 313.8313831383138,88.4247659493169 L 312.98129812981296,88.14724608756934 L 311.4311431143114,88.1125561048509 L 310.3310331033103,88.52883589747223 L 309.43094309430944,89.60422536174404 L 309.43094309430944,91.78969427300609 L 309.1809180918092,92.76101378912256 L 307.980798079808,95.32807251028751 L 307.4807480748075,96.05656214737486 L 306.7806780678068,96.68098183630687 L 306.2806280628063,96.95850169805443 L 304.7304730473047,97.236021559802 L 301.88018801880185,97.02788166349133 L 301.38013801380134,96.85443174989909 L 317.43174317431743,70.14314505669627 L 319.13191319131914,66.18848702679351 L 319.3319331933193,40.344449901551805 L 319.58195819581954,38.124291007571316 L 320.38203820382034,37.63863124951308 L 321.9321932193219,37.53456130135775 L 322.18221822182215,37.22235145689174 L 322.3322332233223,35.106262511066575 L 321.6321632163216,34.377772873979225 L 320.48204820482044,33.649283236891876 L 318.23182318231824,33.40645335786276 L 317.4817481748175,32.46982382446474 L 317.4817481748175,31.914784100969616 L 318.2818281828183,30.423114844076473 L 320.68206820682065,27.786676157474634 L 321.58215821582155,27.092876503105728 L 320.3320332033203,25.497137298057247 L 319.78197819781974,21.056819510096258 L 318.6818681868187,19.773290149513784 L 317.13171317131713,18.732590667960427 L 316.0816081608161,17.4837512900964 L 318.6818681868187,15.263592396115904 L 320.28202820282024,13.425023312038306 L 322.58225822582256,12.488393778640285 L 327.33273327332734,11.759904141552935 L 329.4329432943294,11.933354055145161 L 333.68336833683367,13.425023312038306 L 335.73357335733573,13.39033332931986 L 336.7836783678368,12.869983588543182 L 337.6837683768377,12.210873916892723 L 341.28412841284126,8.637805696892864 L 342.28422842284226,7.978696025242404 L 344.2344234423442,7.146136439999719 L 344.7344734473447,6.591096716504595 L 345.33453345334533,5.16880742504834 L 345.33453345334533,2.671128669320283 L 346.23462346234624,0.45096977533978805 L 346.5846584658466,0.0 L 347.13471347134714,0.31220984446600714 L 350.58505850585055,4.960667528737669 L 351.68516851685166,6.0360569930094705 L 352.6352635263526,6.070746975727916 L 355.33553355335533,3.7465181335920854 L 356.43564356435644,3.8852780644658664 L 357.78577857785774,3.399618306407633 L 360.9360936093609,4.648457684271661 L 361.4361436143614,4.960667528737669 L 363.2863286328633,6.972686526407492 L 365.63656365636564,8.117455956116185 L 368.8368836883688,10.684514677281133 L 371.18711871187116,11.79459412427138 L 374.03740374037403,12.280253882329614 L 374.53745374537453,12.765913640387847 L 374.8874887488749,15.228902413397458 L 375.23752375237524,16.58181173941682 L 375.13751375137514,17.03278151475661 L 374.53745374537453,17.518441272814844 L 374.3874387438744,20.883369596504032 L 375.33753375337534,21.819999129902055 L 378.037803780378,22.687248697863183 L 378.98789878987895,23.415738334950532 L 379.2379237923792,23.832018127571878 L 379.08790879087906,24.352367868348555 L 377.9377937793779,24.87271760912523 L 377.4377437743774,25.566517263494138 L 375.63756375637564,27.196946451261063 L 375.2875287528753,28.515165794561984 L 374.6874687468747,29.625245241552232 L 374.83748374837484,30.388424861358025 L 375.3875387538754,30.94346458485315 L 376.0876087608761,31.116914498445375 L 383.7883788378838,30.94346458485315 L 386.8386838683868,31.567884273785165 L 389.68896889688966,32.920793599804526 L 391.5391539153915,35.03688254562969 L 392.1892189218922,35.38378237281414 L 392.8892889288929,35.55723228640637 L 397.2397239723972,35.834752148153925 L 398.6398639863986,36.18165197533838 L 401.94019401940193,38.124291007571316 L 402.990299029903,38.47119083475577 L 404.14041404140414,38.64464074834799 L 405.1405140514051,38.43650085203732 L 408.49084908490846,37.1182815087364 L 408.19081908190816,40.517899815144034 L 408.4408440844084,41.211699469512936 L 408.89088908890886,41.766739193008064 L 411.2411241124112,43.53592831164877 L 412.4912491249125,44.16034800058078 L 413.7913791379138,44.4031778796099 L 415.2415241524152,44.16034800058078 L 416.2416241624162,43.81344817339633 L 416.59165916591655,44.12565801786234 L 417.1417141714171,45.8601571537846 L 418.09180918091806,46.76209670446418 L 422.54225422542254,48.080316047765095 L 423.6923692369237,49.016945581163114 L 424.4424442444244,49.884195149124245 L 427.19271927192716,54.185753006211456 L 427.79277927792776,55.6774222631046 L 428.19281928192817,57.30785145087153 L 428.39283928392837,59.04235058679379 L 427.6427642764276,62.511348858638314 L 427.7427742774277,64.31522795999747 L 428.19281928192817,66.04972709591972 L 428.7428742874287,67.43732640465754 L 432.54325432543254,74.37532294834658 z" /><path fill-rule="evenodd" fill="#D2EBD9" stroke="#A6A6A6" stroke-width="0.25" opacity="1" d="M 165.4165416541654,137.06012172057711 L 165.7165716571657,137.37233156504314 L 166.7166716671667,137.75392137494603 L 167.86678667866786,137.44171153048003 L 168.21682168216822,137.16419166873246 L 168.51685168516852,136.15818216989754 L 169.96699669966995,133.24422362154814 L 171.5171517151715,131.33627457203366 L 171.9171917191719,130.01805522873275 L 172.66726672667266,128.94266576446094 L 172.86728672867287,128.1447961619367 L 172.76727672767277,127.41630652484935 L 172.06720672067206,125.05738769999508 L 172.96729672967297,123.87792828756794 L 178.01780178017802,121.86590928989811 L 179.7179717971797,122.17811913436412 L 182.11821182118211,121.58838942815055 L 184.86848684868485,121.76183934174277 L 186.2186218621862,120.7905198256263 L 187.41874187418742,120.82520980834475 L 188.16881688168814,119.64575039591762 L 188.7188718871887,119.4029205168885 L 190.46904690469046,119.64575039591762 L 191.66916691669167,119.29885056873316 L 197.16971697169717,116.66241188213132 L 201.27012701270127,115.86454227960708 L 201.87018701870187,115.58702241785953 L 202.12021202120212,115.27481257339352 L 202.07020702070207,114.30349305727705 L 202.77027702770275,112.95058373125768 L 203.020302030203,111.00794469902475 L 203.6203620362036,110.48759495824807 L 206.97069706970697,109.86317526931606 L 208.3208320832083,108.99592570135493 L 208.8208820882088,108.85716577048115 L 212.021202120212,109.16937561494716 L 212.6212621262126,109.44689547669472 L 213.8213821382138,111.56298442251988 L 214.37143714371436,111.97926421514121 L 215.07150715071506,112.01395419785966 L 215.67156715671567,111.70174435339365 L 217.4217421742174,110.14069513106362 L 218.9218921892189,109.5162754421316 L 219.7219721972197,109.41220549397627 L 220.52205220522052,109.48158545941317 L 221.32213221322132,110.14069513106362 L 222.47224722472245,110.00193520018983 L 223.17231723172316,110.14069513106362 L 223.67236723672366,110.73042483727718 L 223.7223722372237,111.38953450892765 L 223.9223922392239,111.70174435339365 L 226.02260226022602,110.52228494096651 L 228.77287728772876,109.8978652520345 L 230.17301730173017,109.27344556310248 L 230.67306730673067,108.8918557531996 L 232.17321732173215,108.57964590873358 L 233.67336733673366,107.19204659999578 L 238.37383738373836,103.79242829358815 L 239.12391239123912,103.72304832815125 L 241.1241124112411,104.62498787883082 L 241.9241924192419,104.41684798252015 L 243.3243324332433,102.78641879475323 L 243.47434743474346,102.19668908853966 L 243.37433743374336,101.22536957242319 L 243.67436743674367,100.35812000446207 L 243.17431743174316,99.03990066116114 L 243.97439743974397,95.05055264853995 L 244.37443744374437,94.46082294232637 L 246.57465746574655,92.62225385824878 L 247.47474747474746,91.58155437669542 L 247.07470747074706,90.43678494698673 L 247.17471747174716,90.12457510252072 L 247.77477747774776,89.9511251889285 L 248.57485748574857,89.36139548271493 L 248.87488748874887,89.32670549999648 L 249.97499749974997,89.77767527533626 L 250.5250525052505,89.67360532718094 L 251.07510751075105,89.04918563824891 L 251.77517751775176,86.79433676154997 L 252.2252225222522,86.41274695164708 L 252.57525752575256,86.48212691708397 L 253.22532253225322,87.418756450482 L 253.52535253525352,87.59220636407422 L 253.92539253925392,87.55751638135577 L 258.975897589759,85.8923972108704 L 261.2761276127613,83.94975817863747 L 262.57625762576254,83.18657855883167 L 265.47654765476545,82.66622881805499 L 266.8266826682668,82.11118909455988 L 267.8267826782678,80.68889980310361 L 269.1769176917692,77.87901120290955 L 270.7770777077708,75.38133244718149 L 274.5274527452745,70.83694471106517 L 275.27752775277526,69.62279531591959 L 276.27762776277626,66.9516666465993 L 277.027702770277,65.66813728601683 L 278.1778177817782,65.00902761436637 L 303.98039803980396,65.45999738970616 L 307.1307130713071,64.97433763164793 L 307.93079307930793,61.85223918698785 L 307.73077307730773,60.8115397054345 L 307.1807180718072,59.597390310288915 L 307.43074307430743,58.41793089786177 L 306.6806680668067,54.914242643298806 L 306.4806480648065,52.763463714755204 L 306.980698069807,51.514624336891174 L 306.7306730673067,50.89020464795916 L 307.5807580758076,50.265784959027144 L 307.83078307830783,49.57198530465824 L 307.93079307930793,48.080316047765095 L 308.53085308530854,46.796786687182625 L 309.0809080908091,44.090968035143895 L 309.23092309230924,42.5646087955323 L 308.4808480848085,41.1076295213576 L 308.2808280828083,39.82410016077513 L 307.43074307430743,39.269060437280004 L 307.33073307330733,38.74871069650333 L 307.43074307430743,37.46518133592085 L 305.88058805880587,35.90413211359082 L 307.2307230723072,35.55723228640637 L 308.5808580858086,34.5859127702899 L 309.4809480948095,33.302383409707424 L 310.03100310031,31.81071415281428 L 310.3310331033103,29.590555258833785 L 310.1310131013101,27.925436088348413 L 310.3310331033103,27.61322624388241 L 310.3310331033103,27.16225646854262 L 310.08100810081004,25.91341709067859 L 310.1310131013101,25.115547488154352 L 309.3809380938094,24.10953798931944 L 309.4809480948095,22.9300785768923 L 309.9309930993099,21.958759060775833 L 310.8310831083108,20.640539717474915 L 313.1313131313131,21.160889458251592 L 313.68136813681366,21.022129527377814 L 314.031403140314,20.74460966563025 L 313.68136813681366,20.120189976698235 L 314.8314831483148,19.252940408737107 L 314.68146814681467,18.42038082349442 L 315.1315131513151,17.83065111728085 L 316.0816081608161,17.4837512900964 L 317.13171317131713,18.732590667960427 L 318.6818681868187,19.773290149513784 L 319.78197819781974,21.056819510096258 L 320.3320332033203,25.497137298057247 L 321.58215821582155,27.092876503105728 L 320.68206820682065,27.786676157474634 L 318.2818281828183,30.423114844076473 L 317.4817481748175,31.914784100969616 L 317.4817481748175,32.46982382446474 L 318.23182318231824,33.40645335786276 L 320.48204820482044,33.649283236891876 L 321.6321632163216,34.377772873979225 L 322.3322332233223,35.106262511066575 L 322.18221822182215,37.22235145689174 L 321.9321932193219,37.53456130135775 L 320.38203820382034,37.63863124951308 L 319.58195819581954,38.124291007571316 L 319.3319331933193,40.344449901551805 L 319.13191319131914,66.18848702679351 L 317.43174317431743,70.14314505669627 L 301.38013801380134,96.85443174989909 L 301.88018801880185,97.02788166349133 L 304.7304730473047,97.236021559802 L 306.2806280628063,96.95850169805443 L 306.7806780678068,96.68098183630687 L 307.4807480748075,96.05656214737486 L 307.980798079808,95.32807251028751 L 309.1809180918092,92.76101378912256 L 309.43094309430944,91.78969427300609 L 309.43094309430944,89.60422536174404 L 310.3310331033103,88.52883589747223 L 311.4311431143114,88.1125561048509 L 312.98129812981296,88.14724608756934 L 313.8313831383138,88.4247659493169 L 314.9314931493149,89.1879455691227 L 315.7315731573157,90.40209496426829 L 316.1316131613161,91.58155437669542 L 316.1816181618162,92.4141139619381 L 316.031603160316,93.1772935817439 L 315.38153815381537,94.00985316698659 L 314.8314831483148,94.28737302873415 L 313.28132813281326,94.6342728559186 L 312.2312231223122,94.59958287320016 L 309.98099809980994,93.59357337436525 L 308.0808080808081,96.85443174989909 L 307.3807380738074,97.61761136970489 L 303.48034803480346,97.9992011796078 L 301.3301330133013,97.860441248734 L 300.4300430043004,97.9992011796078 L 300.0800080008001,98.24203105863691 L 297.5297529752975,108.30212604698602 L 297.4797479747975,110.62635488912186 L 297.8297829782978,111.90988424970433 L 298.5798579857986,111.94457423242277 L 299.1799179917992,112.22209409417033 L 299.52995299529954,112.70775385222856 L 297.4297429742974,119.61106041319917 L 297.6797679767977,119.85389029222829 L 300.3300330033003,120.47830998116031 L 300.68006800680064,120.8598997910632 L 300.4300430043004,121.86590928989811 L 297.5797579757976,127.55506645572314 L 296.17961796179617,129.6017754361114 L 287.3287328732873,138.82931083921784 L 286.6286628662866,140.87601981960609 L 282.27822782278224,159.15764071222674 L 284.17841784178415,158.9841907986345 L 284.77847784778476,159.01888078135295 L 285.3285328532853,159.26171066038208 L 285.8285828582858,160.71868993455678 L 286.5286528652865,165.36714761882843 L 287.028702870287,166.65067697941092 L 287.6287628762876,166.89350685844002 L 289.82898289828984,167.24040668562446 L 290.42904290429044,167.5526165300905 L 291.029102910291,169.11366575242053 L 293.2293229322932,181.49798958290546 L 294.37943794379436,182.95496885708016 L 298.8798879887989,184.34256816581797 L 301.1301130113011,184.86291790659465 L 301.88018801880185,186.49334709436158 L 302.08020802080205,193.6394835343613 L 285.8285828582858,192.35595417377883 L 284.3284328432843,192.49471410465262 L 279.7779777977798,191.8009144502837 L 278.6778677867787,191.9396743811575 L 278.2278227822782,193.22320374173995 L 277.5277527752775,193.88231341339042 L 277.1277127712771,194.5414230850409 L 276.5276527652765,197.6288315469825 L 276.17761776177616,198.21856125319607 L 275.47754775477546,198.8429809421281 L 275.2275227522752,198.87767092484654 L 274.27742774277425,198.3226312013514 L 273.9273927392739,198.28794121863297 L 271.67716771677163,198.56546108038052 L 270.5770577057706,197.3860016679534 L 269.0769076907691,196.83096194445827 L 268.5768576857686,197.03910184076892 L 266.5266526652665,199.43271064834167 L 266.17661766176616,200.40403016445813 L 266.17661766176616,215.1125828370789 L 266.1266126612661,215.66762256057402 L 265.9265926592659,215.84107247416625 L 237.4237423742374,216.08390235319536 L 234.82348234823482,216.67363205940893 L 232.67326732673266,218.13061133358363 L 230.47304730473047,220.94049993377772 L 216.47164716471647,224.44418818834066 L 214.9214921492149,225.10329785999113 L 212.57125712571255,225.72771754892315 L 209.77097709770976,225.7624075316416 L 209.3209320932093,225.6236476007678 L 208.97089708970896,224.79108801552513 L 209.1209120912091,223.57693862037954 L 208.87088708870886,223.12596884503975 L 208.2208220822082,223.05658887960286 L 204.4204420442044,223.43817868950575 L 195.8195819581958,220.90580995105927 L 191.66916691669167,220.35077022756414 L 177.41774177417741,220.59360010659324 L 175.2175217521752,219.72635053863212 L 174.4174417441744,219.24069078057389 L 172.86728672867287,217.74902152368074 L 170.4170417041704,217.36743171377785 L 169.6169616961696,217.61026159280695 L 168.36683668366837,218.82441098795255 L 166.86668666866686,219.24069078057389 L 166.36663666366636,220.14263033125346 L 162.16621662166216,217.95716141999142 L 160.26602660266025,216.53487212853517 L 160.06600660066005,216.1879723013507 L 159.96599659965995,215.45948266426336 L 160.7160716071607,213.58622359746732 L 161.16611661166115,210.84571496271013 L 164.16641664166417,199.0164308557203 L 163.31633163316332,198.07980132232228 L 161.06610661066105,197.2472417370796 L 160.2160216021602,196.76158197902137 L 159.76597659765974,196.03309234193404 L 149.01490149014901,160.96151981358588 L 148.7148714871487,158.84543086776074 L 147.4147414741474,156.38244209475113 L 147.46474647464746,154.6132529761104 L 147.36473647364735,154.3704230970813 L 146.26462646264625,153.74600340814928 L 145.86458645864585,153.12158371921726 L 145.46454645464544,148.57719598310095 L 145.6145614561456,147.57118648426604 L 146.014601460146,147.0855267262078 L 147.56475647564756,146.77331688174178 L 150.1150115011501,145.6285474520331 L 150.5150515051505,145.59385746931466 L 152.3152315231523,146.14889719280978 L 153.015301530153,146.21827715824668 L 154.41544154415442,145.69792741747 L 155.1155115511551,145.76730738290686 L 156.1156115611561,146.18358717552823 L 156.9156915691569,146.14889719280978 L 157.16571657165716,145.8713773310622 L 157.7157715771577,144.03280824698462 L 158.46584658465846,142.8880388172759 L 159.01590159015902,142.36768907649923 L 162.4162416241624,140.0434602343634 L 165.4165416541654,137.06012172057711 z" /><g><path fill-rule="evenodd" fill="#D2EBD9" stroke="#A6A6A6" stroke-width="0.25" opacity="1" d="M 144.16441644164416,276.13226243882406 L 122.21222122212221,277.450481782125 L 121.012101210121,277.3464118339696 L 117.86178617861786,275.82005259435806 L 114.6114611461146,275.33439283629986 L 112.51125112511251,274.5365232337756 L 108.11081108110811,274.259003372028 L 106.010601060106,275.19563290542607 L 105.31053105310531,275.75067262892117 L 104.7104710471047,276.58323221416384 L 103.26032603260326,279.7400206415424 L 102.7102710271027,280.3644403304744 L 100.51005100510051,281.89079957008596 L 99.3099309930993,282.9661890343578 L 98.20982098209821,284.2844083776587 L 93.70937093709371,292.36717435105646 L 88.45884588458846,299.51331079105614 L 88.05880588058805,300.3458703762988 L 87.85878587858785,301.28249990969687 L 88.1088108810881,303.95362857901716 L 87.75877587758775,304.85556812969674 L 86.90869086908691,305.965647576687 L 80.95809580958095,311.4466648462013 L 61.85618561856185,324.2472684693076 L 59.3059305930593,325.18389800270563 L 56.65566556655665,325.5654878126085 L 34.3034303430343,321.4026898863951 L 26.55265526552655,318.3152814244535 L 24.552455245524552,317.1358220120263 L 19.05190519051905,315.158492997075 L 11.5011501150115,308.8796061250364 L 0.0,297.2931518970757 L 0.45004500450045004,296.6340422254252 L 1.6001600160016,296.21776243280385 L 2.15021502150215,295.5586527611534 L 2.7002700270027002,295.3158228821243 L 3.5003500350035,294.4138833314447 L 4.05040504050405,294.5179532796 L 4.3004300430043,294.4138833314447 L 4.75047504750475,293.75477365979424 L 5.1005100510051005,292.7140741782409 L 5.45054505450545,292.43655431649336 L 5.5505550555055505,291.8815145929982 L 5.2505250525052505,291.0489550077555 L 5.3005300530053,289.45321580270706 L 4.3004300430043,287.64933670134786 L 4.4004400440044,286.5045672716392 L 4.85048504850485,285.9842175308625 L 5.5005500550055,285.70669766911493 L 6.1006100610061,285.2210379110567 L 7.350735073507351,283.62529870600827 L 7.7007700770077,283.3824688269791 L 8.6008600860086,283.2437088961053 L 9.6009600960096,282.41114931086264 L 9.8009800980098,282.1336294491151 L 10.05100510051005,280.6072702095035 L 11.401140114011401,279.8440905896977 L 11.95119511951195,278.04021148833857 L 12.4012401240124,277.6586216784357 L 13.201320132013201,274.4324532856202 L 13.201320132013201,272.52450423610577 L 13.95139513951395,271.5878747027077 L 14.55145514551455,269.7839956013486 L 14.651465146514651,267.73728662096033 L 14.401440144014401,266.3149973295041 L 14.45144514451445,265.7946475887274 L 15.2015201520152,264.9620880034847 L 15.4015401540154,264.51111822814494 L 15.65156515651565,264.51111822814494 L 15.65156515651565,265.5518177096983 L 16.4016401640164,266.9394170184361 L 16.6016601660166,267.91073653455254 L 16.4016401640164,268.7086061370768 L 14.3014301430143,273.3917538040669 L 14.051405140514051,276.34040233513474 L 13.7013701370137,278.2830413673677 L 13.201320132013201,279.9134705551346 L 13.9013901390139,282.6539791898918 L 16.251625162516252,288.6900361829012 L 16.351635163516352,290.28577538794974 L 16.15161516151615,291.6733746966875 L 16.251625162516252,292.1937244374642 L 16.8016801680168,293.13035397086225 L 16.851685168516852,293.7894636425127 L 16.4016401640164,294.5179532796 L 15.601560156015601,294.89954308950297 L 13.85138513851385,295.0729930030952 L 13.3013301330133,294.6914031931923 L 12.2012201220122,293.23442391901756 L 11.8011801180118,293.13035397086225 L 11.65116511651165,293.82415362523113 L 12.1012101210121,296.18307245008543 L 13.501350135013501,298.05633151688147 L 17.551755175517552,307.04103704095877 L 18.4018401840184,308.4286363496966 L 21.9021902190219,311.23852494989063 L 24.102410241024103,313.4239938611527 L 25.55255525552555,314.08310353280314 L 27.502750275027502,313.00771406853136 L 30.25302530253025,312.90364412037604 L 30.95309530953095,313.07709403396825 L 33.003300330033,314.15248349824003 L 43.8043804380438,315.99105258231765 L 45.3045304530453,315.1238030143565 L 46.804680468046804,315.60946277241476 L 48.6048604860486,315.0544230489196 L 50.255025502550254,313.9790335846478 L 51.35513551355135,312.90364412037604 L 51.705170517051705,312.1404645005702 L 52.05520552055205,310.26720543377417 L 52.05520552055205,309.5040258139684 L 52.005200520052,308.9489860904733 L 51.555155515551554,307.838906643483 L 51.8051805180518,306.0350275421239 L 51.4051405140514,304.6821182161045 L 51.555155515551554,304.12707849260937 L 52.605260526052604,303.6761087172696 L 53.005300530053,302.461959322124 L 54.7054705470547,299.58269075649304 L 55.305530553055306,298.05633151688147 L 55.85558555855585,294.7607831586292 L 56.05560556055605,288.828796113775 L 56.455645564556455,287.1983669260081 L 57.1057105710571,285.70669766911493 L 58.1058105810581,284.38847832581405 L 58.805880588058805,283.9721985331927 L 60.056005600560056,283.6946786714451 L 60.35603560356035,283.4171588096976 L 61.156115611561155,282.27238937998885 L 61.5061506150615,281.47451977746465 L 62.406240624062406,280.6766501749404 L 64.05640564056405,279.7400206415424 L 65.95659565956595,278.0055215056201 L 69.05690569056905,276.6179221968823 L 76.1076107610761,271.1715949100864 L 77.30773077307731,269.7839956013486 L 77.35773577357736,268.3963962926108 L 78.2078207820782,267.98011649998944 L 80.15801580158015,267.5638367073681 L 80.75807580758075,266.76596710484387 L 80.65806580658065,266.8700370529992 L 80.45804580458045,266.76596710484387 L 80.3080308030803,265.9334075196012 L 80.75807580758075,265.2049178825138 L 81.75817581758176,264.30297833183425 L 82.00820082008201,263.8866985392129 L 80.45804580458045,264.92739802076625 L 79.60796079607961,265.3436778133876 L 78.85788578857886,265.4824377442614 L 78.85788578857886,265.2049178825138 L 79.25792579257926,264.92739802076625 L 81.25812581258126,261.97874948969843 L 81.60816081608161,261.31963981804796 L 81.70817081708171,260.5564601982422 L 81.60816081608161,259.7585905957179 L 81.25812581258126,259.03010095863056 L 79.9079907990799,256.8099420646501 L 78.1078107810781,255.73455260037827 L 77.5077507750775,254.65916313610646 L 75.75757575757575,254.10412341261136 L 71.7071707170717,253.3062538100871 L 70.4070407040704,253.65315363727157 L 71.45714571457145,255.24889284232003 L 71.35713571357135,255.94269249668895 L 70.4070407040704,256.56711218562094 L 69.80698069806981,256.56711218562094 L 67.65676567656766,258.3016113215432 L 66.65666566656665,258.75258109688303 L 65.95659565956595,258.61382116600925 L 64.6064606460646,257.191531874553 L 63.75637563756375,257.0874619263976 L 63.706370637063706,256.35897228931026 L 64.6064606460646,256.2202123584365 L 64.65646564656466,255.87331253125205 L 64.35643564356435,255.11013291144627 L 64.8064806480648,253.96536348173757 L 65.00650065006501,252.75121408659197 L 65.65656565656565,251.4676847260095 L 65.9065906590659,249.62911564193192 L 66.15661566156615,249.21283584931058 L 70.10701070107011,249.21283584931058 L 69.55695569556956,248.623106143097 L 68.2068206820682,248.27620631591256 L 67.75677567756776,247.65178662698054 L 69.2069206920692,246.99267695533007 L 63.85638563856385,247.13143688620386 L 62.65626562656265,247.75585657513588 L 63.256325632563254,249.42097574562123 L 63.15631563156315,249.52504569377658 L 61.006100610061004,249.59442565921347 L 59.955995599559955,249.0046959529999 L 58.905890589058906,248.83124603940766 L 56.9056905690569,248.935315987563 L 57.2057205720572,248.623106143097 L 58.35583558355835,248.10275640232032 L 58.1058105810581,247.37426676523296 L 57.8057805780578,247.0967469034854 L 55.355535553555356,246.26418731824273 L 54.45544554455445,246.4029472491165 L 53.15531553155315,246.99267695533007 L 51.25512551255125,246.05604742193205 L 50.15501550155015,244.80720804406803 L 48.104810481048105,245.08472790581558 L 46.5046504650465,244.7725180613496 L 45.15451545154515,244.7725180613496 L 44.604460446044605,245.91728749105826 L 45.3045304530453,247.65178662698054 L 45.1045104510451,248.13744638503877 L 44.1044104410441,248.58841616037856 L 43.6043604360436,249.42097574562123 L 43.05430543054305,251.29423481241727 L 42.65426542654265,252.09210441494153 L 43.404340434043405,253.375633775524 L 43.004300430043,253.61846365455312 L 42.65426542654265,254.93668299785404 L 42.9042904290429,255.9080025139705 L 42.254225422542255,256.2202123584365 L 41.75417541754175,256.9140120128054 L 41.1041104110411,257.191531874553 L 40.45404540454045,257.1221519091161 L 39.603960396039604,255.31827280775693 L 39.45394539453945,254.5897831706696 L 39.5039503950395,252.57776417299976 L 39.35393539353935,251.64113463960174 L 38.85388538853885,251.08609491610662 L 36.8036803680368,249.94132548639791 L 36.4036403640364,249.83725553824257 L 36.003600360036,249.94132548639791 L 35.5035503550355,250.3922952617377 L 34.5034503450345,250.63512514076683 L 33.803380338033804,251.12078489882506 L 33.3033303330333,251.8492745359124 L 33.003300330033,252.75121408659197 L 33.25332533253325,254.312263308922 L 32.8032803280328,254.48571322251425 L 31.9031903190319,253.51439370639778 L 31.753175317531753,251.9880344667862 L 31.45314531453145,251.74520458775706 L 28.802880288028803,251.43299474329106 L 28.4028402840284,251.7105146050386 L 28.55285528552855,252.40431425940753 L 29.15291529152915,253.65315363727157 L 28.6028602860286,253.4450137409609 L 27.002700270027002,251.74520458775706 L 26.2026202620262,251.39830476057261 L 23.952395239523952,251.4676847260095 L 23.55235523552355,251.64113463960174 L 23.402340234023402,253.02873394833955 L 22.302230223022303,254.17350337804822 L 22.05220522052205,254.9019930151356 L 23.55235523552355,255.56110268678606 L 24.102410241024103,256.2202123584365 L 23.7023702370237,255.9773824794074 L 22.4022402240224,255.9080025139705 L 21.2021202120212,256.8446320473685 L 20.2020202020202,260.0708004401839 L 18.701870187018702,262.0481294551353 L 18.3018301830183,262.9153790230964 L 18.55185518551855,264.47642824542646 L 18.4018401840184,265.0314679689216 L 18.101810181018102,265.37836779610603 L 16.851685168516852,266.1415474159118 L 16.851685168516852,264.2682883491158 L 17.35173517351735,261.0421199563004 L 17.1017101710171,259.4463807512519 L 15.75157515751575,255.9080025139705 L 14.951495149514951,252.40431425940753 L 15.251525152515251,251.22485484698038 L 15.15151515151515,250.80857505435904 L 14.9014901490149,250.8432650370775 L 13.9013901390139,250.3229152963008 L 14.051405140514051,250.04539543455326 L 13.7013701370137,248.7618660739708 L 13.9013901390139,248.44965622950477 L 14.85148514851485,248.20682635047567 L 15.15151515151515,247.9293064887281 L 14.951495149514951,246.26418731824273 L 13.9013901390139,244.2521683205729 L 11.8011801180118,241.30351978950506 L 11.001100110011,239.77716054989347 L 10.501050105010501,238.21611132756342 L 9.3009300930093,230.27210528503946 L 9.2009200920092,228.50291616639876 L 9.85098509850985,226.73372704775807 L 10.6010601060106,226.0052374106707 L 10.75107510751075,225.51957765261247 L 10.3010301030103,225.13798784270958 L 11.25112511251125,223.81976849940867 L 11.65116511651165,222.9525189314475 L 11.101110111011101,221.46084967455437 L 10.6010601060106,218.37344121261276 L 11.101110111011101,217.36743171377785 L 12.301230123012301,216.08390235319536 L 15.7015701570157,213.37808370115664 L 16.001600160016,212.85773396037996 L 16.45164516451645,210.15191530834124 L 16.851685168516852,209.38873568853543 L 18.101810181018102,208.8336959650403 L 18.6018601860186,208.24396625882676 L 19.6019601960196,205.81566746853557 L 20.05200520052005,205.19124777960357 L 21.2021202120212,204.08116833261332 L 21.45214521452145,204.35868819436087 L 20.00200020002,205.95442739940935 L 21.652165216521652,205.01779786601134 L 21.652165216521652,205.2953177277589 L 20.25202520252025,206.57884708834138 L 18.9018901890189,209.11121582678788 L 18.55185518551855,209.38873568853543 L 17.35173517351735,211.1232348244577 L 17.1017101710171,213.72498352834108 L 16.951695169516952,214.2800232518362 L 16.1016101610161,215.8063824914478 L 16.15161516151615,216.29204224950604 L 16.75167516751675,216.8817719557196 L 17.25172517251725,216.39611219766138 L 17.8017801780178,215.04320287164202 L 18.9018901890189,214.69630304445755 L 20.25202520252025,214.8697529580498 L 22.65226522652265,215.66762256057402 L 21.85218521852185,214.83506297533134 L 21.652165216521652,214.41878318271 L 24.2024202420242,214.730993027176 L 24.75247524752475,215.00851288892358 L 25.252525252525253,215.52886262970026 L 25.852585258525853,215.77169250872936 L 28.152815281528152,213.96781340737022 L 29.75297529752975,213.13525382212754 L 31.3031303130313,214.00250339008866 L 32.75327532753275,215.66762256057402 L 33.35333533353335,216.04921237047694 L 33.95339533953395,216.1879723013507 L 35.15351535153515,216.0145223877585 L 36.5036503650365,214.93913292348668 L 37.1037103710371,214.730993027176 L 38.4038403840384,214.83506297533134 L 38.9038903890389,214.69630304445755 L 39.5039503950395,214.106573338244 L 40.00400040004,214.41878318271 L 39.753975397539755,213.58622359746732 L 38.3038303830383,211.8864144442635 L 38.7038703870387,211.47013465164216 L 38.7038703870387,211.1232348244577 L 37.503750375037505,210.91509492814703 L 36.85368536853685,210.63757506639948 L 37.353735373537354,209.73563551571988 L 36.253625362536255,208.48679613785586 L 34.4034403440344,205.88504743397246 L 33.25332533253325,205.2953177277589 L 33.25332533253325,205.01779786601134 L 34.05340534053405,204.70558802154534 L 34.903490349034904,205.01779786601134 L 34.3034303430343,201.47941962872991 L 34.45344534453445,199.848990440963 L 35.65356535653565,199.05112083843875 L 35.6035603560356,199.7796104755261 L 34.953495349534954,200.68155002620568 L 34.903490349034904,201.5487995941668 L 35.9035903590359,200.92437990523482 L 35.4035403540354,202.20790926581728 L 36.35363536353635,201.96507938678815 L 37.303730373037304,201.06313983610858 L 38.553855385538554,199.05112083843875 L 38.8038803880388,199.05112083843875 L 38.553855385538554,201.2365897497008 L 39.003900390039,200.99375987067168 L 39.653965396539654,199.98775037183677 L 39.9039903990399,198.3226312013514 L 41.6041604160416,198.49608111494362 L 42.054205420542054,198.3920111667883 L 42.55425542554255,197.94104139144852 L 42.85428542854285,197.2472417370796 L 42.8042804280428,196.76158197902137 L 42.5042504250425,196.41468215183693 L 41.95419541954195,196.2412322382447 L 42.55425542554255,195.65150253203112 L 44.85448544854485,194.99239286038068 L 45.604560456045604,194.29859320601176 L 45.704570457045705,193.81293344795353 L 45.3045304530453,193.3966536553322 L 43.85438543854385,194.0210733442642 L 43.154315431543154,193.81293344795353 L 42.104210421042104,192.8069239491186 L 41.45414541454145,192.77223396640017 L 40.4040404040404,194.0904533097011 L 40.00400040004,194.2639032232933 L 39.5039503950395,193.0844438108662 L 39.9039903990399,193.0150638454293 L 40.1040104010401,192.8069239491186 L 40.25402540254025,192.00905434659438 L 40.1040104010401,191.5580845712546 L 39.753975397539755,191.52339458853615 L 39.15391539153915,191.83560443300215 L 37.7037703770377,191.9396743811575 L 37.1037103710371,192.14781427746814 L 36.6036603660366,192.49471410465262 L 35.5035503550355,194.4026631541671 L 34.8034803480348,194.6454930331962 L 32.603260326032604,194.74956298135154 L 28.752875287528752,193.98638336154576 L 27.4027402740274,194.15983327513797 L 27.2027202720272,195.30460270484667 L 28.05280528052805,196.2412322382447 L 28.55285528552855,197.94104139144852 L 29.55295529552955,199.36333068290477 L 30.85308530853085,200.26527023358435 L 29.5029502950295,200.5427900953319 L 28.3028302830283,199.22457075203098 L 27.35273527352735,197.28193171979805 L 26.05260526052605,193.70886349979818 L 25.6025602560256,192.84161393183706 L 24.9024902490249,192.28657420834193 L 24.45244524452445,190.76021496873034 L 23.1023102310231,189.3379256772741 L 22.802280228022802,188.47067610931296 L 22.902290229022903,187.67280650678873 L 24.4024402440244,185.41795763008977 L 24.602460246024602,184.86291790659465 L 25.45254525452545,178.4452711036823 L 25.852585258525853,178.34120115552696 L 26.15261526152615,178.86155089630364 L 26.25262526252625,179.97163034329387 L 25.802580258025802,182.64275901261416 L 26.1026102610261,183.96097835591507 L 26.75267526752675,184.96698785475 L 25.05250525052505,185.903617388148 L 27.502750275027502,186.80555693882758 L 28.202820282028203,186.84024692154603 L 29.1029102910291,186.31989718076935 L 30.25302530253025,186.14644726717714 L 30.35303530353035,185.93830737086645 L 30.1030103010301,185.62609752640046 L 30.1030103010301,185.279197699216 L 30.653065306530653,185.31388768193443 L 32.05320532053205,185.903617388148 L 32.503250325032504,185.279197699216 L 33.003300330033,185.62609752640046 L 33.95339533953395,185.62609752640046 L 33.5033503350335,184.3772581485364 L 34.05340534053405,184.41194813125486 L 34.5034503450345,184.72415797572089 L 35.15351535153515,185.62609752640046 L 35.4035403540354,185.62609752640046 L 35.4035403540354,184.75884795843933 L 35.7035703570357,184.72415797572089 L 36.4036403640364,185.279197699216 L 37.9037903790379,185.38326764737133 L 38.3038303830383,185.62609752640046 L 38.553855385538554,185.279197699216 L 39.15391539153915,186.1117572844587 L 39.55395539553955,186.31989718076935 L 39.653965396539654,185.93830737086645 L 39.3039303930393,184.96698785475 L 40.25402540254025,185.279197699216 L 39.5039503950395,183.09372878795395 L 40.5040504050405,184.03035832135197 L 39.803980398039805,181.463299600187 L 39.653965396539654,180.11039027416766 L 39.753975397539755,179.03500080989585 L 40.854085408540854,181.25515970387636 L 41.2041204120412,180.97763984212878 L 41.25412541254125,180.3532201531968 L 40.954095409540955,179.03500080989585 L 41.7041704170417,178.96562084445895 L 41.95419541954195,178.3065111728085 L 42.154215421542155,176.57201203688624 L 43.85438543854385,174.07433328115818 L 43.5043504350435,179.03500080989585 L 43.004300430043,179.38190063708032 L 43.6043604360436,180.0757002914492 L 45.3045304530453,181.25515970387636 L 44.504450445044505,179.17376074076964 L 44.504450445044505,178.23713120737162 L 45.554555455545554,178.13306125921628 L 44.354435443544354,177.19643172581826 L 44.3044304430443,176.74546195047847 L 44.604460446044605,175.9129023652358 L 44.25442544254425,174.6987529700902 L 44.454445444544454,173.83150340212907 L 45.004500450045,173.1723937304786 L 45.554555455545554,172.8601838860126 L 45.554555455545554,173.13770374776016 L 44.95449544954495,174.28247317746886 L 44.85448544854485,175.01096281455622 L 45.2045204520452,175.32317265902222 L 46.4046404640464,172.06231428348838 L 46.804680468046804,171.68072447358546 L 47.1047104710471,172.06231428348838 L 47.5047504750475,172.20107421436214 L 48.65486548654865,171.9235543526146 L 50.05500550055005,171.88886436989614 L 50.455045504550455,171.57665452543014 L 50.85508550855085,170.709404957469 L 51.005100510051,169.77277542407097 L 51.35513551355135,169.11366575242053 L 52.05520552055205,168.8014559079545 L 52.25522552255225,168.21172620174096 L 53.5053505350535,167.76075642640114 L 53.955395539553955,167.30978665106136 L 54.005400540054005,166.37315711766334 L 54.35543554355435,166.47722706581868 L 54.2054205420542,165.85280737688666 L 53.05530553055305,163.56326851746928 L 52.605260526052604,161.82876938154703 L 52.05520552055205,161.41248958892567 L 52.4052405240524,160.0595802629063 L 51.8051805180518,158.4291510751394 L 50.15501550155015,155.79271238853755 L 49.6049604960496,154.3010431316444 L 49.204920492049204,152.49716403028526 L 48.9048904890489,148.8547158448485 L 49.55495549554955,144.2409481432953 L 50.1050105010501,142.74927888640215 L 50.355035503550354,139.1068307009654 L 50.305030503050304,137.16419166873246 L 49.85498549854985,135.77659235999465 L 50.00500050005,134.56244296484905 L 48.204820482048206,126.75719685319889 L 48.8048804880488,113.9565932300926 L 50.05500550055005,107.98991620252002 L 50.255025502550254,106.04727717028709 L 51.1051105110511,103.41083848368524 L 51.455145514551454,101.67633934776299 L 51.95519551955195,96.0912521300933 L 62.256225622562255,95.29338252756907 L 62.9062906290629,95.57090238931663 L 64.2064206420642,96.64629185358842 L 66.55665566556655,96.57691188815153 L 67.80678067806781,96.99319168077288 L 73.75737573757375,100.42749996989896 L 74.55745574557456,100.56625990077274 L 76.7076707670767,100.0806001427145 L 77.45774577457745,100.11529012543295 L 78.007800780078,100.35812000446207 L 78.85788578857886,101.29474953786008 L 79.55795579557956,101.57226939960765 L 82.55825582558255,103.82711827630659 L 82.8082808280828,104.8331277751415 L 83.3083308330833,105.94320722213175 L 83.45834583458345,107.64301637533556 L 83.25832583258325,108.26743606426759 L 82.7082708270827,108.85716577048115 L 82.7082708270827,109.79379530387916 L 83.25832583258325,111.18139461261698 L 83.6083608360836,112.77713381766546 L 84.05840584058406,113.50562345475281 L 85.1085108510851,114.6503928844615 L 90.4090409040904,118.32753105261669 L 92.05920592059205,120.1661001366943 L 92.5092509250925,121.24148960096609 L 93.80938093809381,121.69245937630589 L 94.75947594759475,123.18412863319902 L 97.9097909790979,123.98199823572327 L 98.20982098209821,124.67579789009217 L 99.009900990099,125.12676766543196 L 101.01010101010101,125.71649737164553 L 105.06050605060506,128.6998358854318 L 105.91059105910591,129.04673571261628 L 108.16081608160816,129.1508056607716 L 115.11151115111511,130.60778493494632 L 116.16161616161615,130.60778493494632 L 118.3118311831183,130.1221251768881 L 120.21202120212021,129.1508056607716 L 122.01220122012201,129.1508056607716 L 124.06240624062406,128.28355609281047 L 124.61246124612461,128.24886611009202 L 129.6129612961296,129.18549564349004 L 131.06310631063104,129.01204572989784 L 132.3132313231323,128.4570060064027 L 132.9132913291329,128.3876260409658 L 135.9135913591359,128.9079757817425 L 136.46364636463645,129.32425557436383 L 136.8136813681368,130.01805522873275 L 136.96369636963695,130.85061481397543 L 136.76367636763675,131.6137944337812 L 135.8135813581358,132.72387388077146 L 136.013601360136,133.3482935697035 L 138.26382638263826,135.39500255009176 L 139.46394639463946,136.22756213533444 L 140.7140714071407,136.71322189339267 L 143.96439643964396,136.817291841548 L 144.56445644564457,136.67853191067422 L 145.96459645964595,135.8112823427131 L 146.5146514651465,135.91535229086844 L 149.36493649364937,137.16419166873246 L 151.015101510151,137.44171153048003 L 151.36513651365135,137.37233156504314 L 152.76527652765276,136.26225211805288 L 153.96539653965397,135.56845246368397 L 159.8159815981598,134.38899305125685 L 161.16611661166115,133.79926334504327 L 161.9161916191619,133.69519339688793 L 164.16641664166417,135.25624261921797 L 165.4165416541654,137.06012172057711 L 162.4162416241624,140.0434602343634 L 159.01590159015902,142.36768907649923 L 158.46584658465846,142.8880388172759 L 157.7157715771577,144.03280824698462 L 157.16571657165716,145.8713773310622 L 156.9156915691569,146.14889719280978 L 156.1156115611561,146.18358717552823 L 155.1155115511551,145.76730738290686 L 154.41544154415442,145.69792741747 L 153.015301530153,146.21827715824668 L 152.3152315231523,146.14889719280978 L 150.5150515051505,145.59385746931466 L 150.1150115011501,145.6285474520331 L 147.56475647564756,146.77331688174178 L 146.014601460146,147.0855267262078 L 145.6145614561456,147.57118648426604 L 145.46454645464544,148.57719598310095 L 145.86458645864585,153.12158371921726 L 146.26462646264625,153.74600340814928 L 147.36473647364735,154.3704230970813 L 147.46474647464746,154.6132529761104 L 147.4147414741474,156.38244209475113 L 148.7148714871487,158.84543086776074 L 149.01490149014901,160.96151981358588 L 159.76597659765974,196.03309234193404 L 160.2160216021602,196.76158197902137 L 161.06610661066105,197.2472417370796 L 163.31633163316332,198.07980132232228 L 164.16641664166417,199.0164308557203 L 161.16611661166115,210.84571496271013 L 160.7160716071607,213.58622359746732 L 159.96599659965995,215.45948266426336 L 160.06600660066005,216.1879723013507 L 160.26602660266025,216.53487212853517 L 162.16621662166216,217.95716141999142 L 166.36663666366636,220.14263033125346 L 165.76657665766575,222.0158893980495 L 165.36653665366535,222.64030908698152 L 163.31633163316332,223.95852843028243 L 164.8164816481648,228.43353620096187 L 165.1165116511651,229.89051547513657 L 163.51635163516352,234.08800338406846 L 162.06620662066206,240.05468041164102 L 161.56615661566155,241.44227972037885 L 159.56595659565957,244.07871840698067 L 158.51585158515852,244.98065795766024 L 157.4157415741574,246.50701719727184 L 156.8156815681568,248.44965622950477 L 152.76527652765276,258.92603101047524 L 151.5151515151515,260.2789403364946 L 150.01500150015002,262.4297192650382 L 149.01490149014901,262.9847589885333 L 148.4148414841484,263.5744886947469 L 148.26482648264826,264.1989083836789 L 148.6148614861486,265.37836779610603 L 148.4148414841484,266.0027874850381 L 147.16471647164715,266.3496873122225 L 146.6146614661466,267.04348696659144 L 144.46444644464447,273.35706382134845 L 144.26442644264426,274.259003372028 L 144.16441644164416,276.13226243882406 z" /><path fill-rule="evenodd" fill="#D2EBD9" stroke="#A6A6A6" stroke-width="0.25" opacity="1" d="M 20.85208520852085,173.0683237823233 L 20.7020702070207,172.06231428348838 L 21.102110211021103,168.9402158388283 L 21.2021202120212,166.06094727319734 L 22.002200220022,164.15299822368286 L 23.05230523052305,160.267720159217 L 23.1023102310231,159.22702067766363 L 23.402340234023402,159.22702067766363 L 23.25232523252325,159.85144036659565 L 23.402340234023402,160.40648009009075 L 22.6022602260226,164.1183082409644 L 21.702170217021703,171.50727455999325 L 21.85218521852185,173.3111536613524 L 22.902290229022903,174.07433328115818 L 22.65226522652265,174.6987529700902 L 21.8021802180218,174.55999303921644 L 21.2021202120212,173.97026333300286 L 20.85208520852085,173.0683237823233 z" /><path fill-rule="evenodd" fill="#D2EBD9" stroke="#A6A6A6" stroke-width="0.25" opacity="1" d="M 36.253625362536255,196.90034190989516 L 36.103610361036104,196.37999216911848 L 36.9036903690369,193.74355348251663 L 37.1037103710371,193.3966536553322 L 37.6037603760376,193.3966536553322 L 38.603860386038605,194.2639032232933 L 38.8038803880388,194.81894294678844 L 38.05380538053805,195.9290223937787 L 37.85378537853785,197.1778617716427 L 37.7037703770377,196.90034190989516 L 37.503750375037505,196.9350318926136 L 37.1037103710371,197.49007161610874 L 36.253625362536255,196.90034190989516 z" /></g><path fill-rule="evenodd" fill="#D2EBD9" stroke="#A6A6A6" stroke-width="0.25" opacity="1" d="M 301.48014801480144,272.90609404600866 L 301.030103010301,272.1082244434844 L 300.5300530053005,271.6572546681446 L 298.8798879887989,273.3917538040669 L 296.37963796379637,273.98148351028044 L 289.32893289328933,273.56520371765913 L 285.07850785078506,272.1429144262029 L 282.9282928292829,272.073534460766 L 281.7281728172817,272.42043428795046 L 280.72807280728074,273.14892392503776 L 278.8278827882788,275.0915629572707 L 276.67766776677666,276.65261217960074 L 269.4269426942694,280.3991303131928 L 268.4768476847685,281.3704498293093 L 268.2268226822682,282.48052927629954 L 268.6268626862686,286.2617373926101 L 269.3769376937694,287.71871666678476 L 269.97699769977,288.23906640756144 L 271.42714271427144,288.9675560446488 L 271.9271927192719,289.5572857508624 L 271.6271627162716,290.42453531882353 L 269.2769276927693,293.75477365979424 L 268.17681768176817,295.87086260561944 L 267.87678767876787,297.5012917933863 L 268.7768776877688,298.81951113668725 L 269.72697269726973,299.4786208083377 L 270.82708270827084,299.58269075649304 L 272.17721772177214,299.1664109638717 L 274.07740774077405,298.0910214995999 L 274.6274627462746,298.1604014650368 L 275.027502750275,298.75013117125036 L 274.97749774977495,299.44393082561925 L 274.17741774177415,300.6233902380464 L 272.027202720272,302.04567952950265 L 271.4771477147715,302.6007192529978 L 270.2770277027703,304.43928833707537 L 269.2269226922692,305.34122788775494 L 265.57655765576555,306.7635171792112 L 263.7263726372637,306.6941372137743 L 263.2263226322632,306.902277110085 L 262.8262826282628,307.5960767644539 L 262.87628762876284,308.2204964533859 L 263.27632763276324,308.6714662287257 L 266.026602660266,309.6774757275606 L 265.9265926592659,311.55073479435663 L 265.2265226522652,313.8749636364925 L 265.57655765576555,316.06043254775454 L 267.4267426742674,317.2052019774632 L 267.5267526752675,318.0030715799875 L 267.1267126712671,318.62749126891947 L 266.3266326632663,319.11315102697773 L 264.7264726472647,319.7375707159097 L 263.5263526352635,320.8476501629 L 262.5262526252625,322.37400940251155 L 261.42614261426144,323.5881587976572 L 259.8259825982598,323.7962986939678 L 258.27582758275827,323.5881587976572 L 255.2255225522552,323.8656786594047 L 247.77477747774776,322.720909229696 L 245.9245924592459,322.7902891951329 L 245.07450745074507,323.1024990395989 L 243.67436743674367,324.62885827921053 L 242.8242824282428,324.90637814095805 L 241.024102410241,325.11451803726874 L 240.02400240024002,325.6695577607639 L 239.57395739573957,326.50211734600657 L 239.12391239123912,330.1445655314433 L 238.82388238823881,331.0811950648413 L 238.3238323832383,331.8790646673656 L 236.07360736073605,334.2032935095014 L 235.22352235223522,334.7583332329965 L 234.32343234323432,334.6542632848412 L 233.3233323332333,334.16860352678293 L 232.27322732273225,333.8910836650354 L 231.27312731273125,333.8217036995985 L 229.67296729672967,334.09922356134604 L 227.2227222722272,335.2093030083363 L 224.87248724872487,337.4294619023168 L 217.27172717271725,346.3794774436757 L 216.42164216421642,346.8651372017339 L 215.77157715771577,345.7897477374621 L 215.32153215321532,341.69632977668556 L 214.57145714571456,340.3087304679478 L 213.1213121312131,339.8924506753264 L 211.27112711271127,339.99652062348173 L 209.47094709470946,340.4128004161031 L 205.67056705670566,341.97384963843314 L 204.8204820482048,342.00853962115156 L 204.17041704170416,341.8003997248409 L 202.32023202320232,340.6209403124138 L 200.97009700970096,340.0659005889186 L 200.3200320032003,339.5802408308604 L 200.0200020002,338.8864411764915 L 200.2200220022002,337.9498116430935 L 200.87008700870086,337.3600819368799 L 205.27052705270526,335.2786829737732 L 206.52065206520652,334.3073634576567 L 207.6207620762076,332.64224428717137 L 208.5208520852085,330.42208539319086 L 211.17111711171117,326.1552175188221 L 212.97129712971295,324.10850853843385 L 213.1213121312131,323.65753876309407 L 213.021302130213,323.2759489531911 L 212.57125712571255,323.033119074162 L 210.3210321032103,322.6862192469776 L 209.7209720972097,322.82497917785133 L 209.3209320932093,323.4493988667834 L 209.6209620962096,325.8776976570745 L 209.27092709270926,327.57750681027835 L 208.37083708370835,328.7916562054239 L 207.17071707170717,329.6935957561035 L 203.67036703670365,331.3240249438704 L 202.9202920292029,331.4627848747442 L 202.27022702270227,331.3587149265889 L 201.02010201020101,330.80367520309375 L 200.4200420042004,330.7689852203753 L 199.86998699869986,331.0811950648413 L 198.56985698569855,332.8156942007636 L 197.86978697869785,333.0585240797927 L 196.31963196319631,332.91976414891894 L 195.66956695669566,332.6075543044529 L 194.06940694069405,330.56084532406464 L 193.1193119311931,330.10987554872486 L 192.51925192519252,329.6242157906666 L 192.71927192719272,328.34068643008413 L 193.46934693469345,326.7102572423172 L 193.56935693569355,325.9817676052299 L 191.81918191819182,321.57613979998735 L 191.3191319131913,321.0211000764922 L 189.96899689968996,320.5701303011524 L 189.66896689668965,319.9457106122204 L 189.9189918991899,319.21722097513305 L 190.36903690369036,318.69687123435637 L 190.46904690469046,318.2459014590166 L 189.7189718971897,317.6908617355215 L 189.018901890189,317.5174118219292 L 186.6186618661866,317.656171752803 L 185.96859685968596,317.4827218392108 L 184.018401840184,316.51140232309433 L 182.36823682368237,316.19919247862833 L 177.36773677367736,317.06644204658943 L 174.017401740174,316.92768211571564 L 170.7170717071707,315.29725292794876 L 167.86678667866786,312.5220543104731 L 165.9165916591659,308.8449161423179 L 164.6164616461646,306.902277110085 L 163.16631663166316,305.7921976630947 L 159.8159815981598,304.19645845804627 L 158.81588158815882,302.8435491320269 L 158.76587658765877,301.0049800479493 L 159.56595659565957,297.2931518970757 L 159.16591659165917,292.5059342819302 L 159.8159815981598,290.8061251287264 L 160.56605660566055,289.52259576814396 L 160.96609660966095,288.30844637299833 L 161.1161116111611,286.955537046979 L 161.06610661066105,285.2904178764936 L 161.26612661266125,283.9721985331927 L 161.7161716171617,282.6886691726102 L 162.4162416241624,281.50920976018307 L 163.16631663166316,280.641960192222 L 164.21642164216422,280.0175405032899 L 165.96659665966595,279.6012607106686 L 166.2166216621662,279.3931208143579 L 166.16661666166615,279.04622098717346 L 165.76657665766575,278.59525121183367 L 165.016501650165,278.04021148833857 L 163.36633663366337,277.2423418858143 L 162.66626662666266,276.40978230057164 L 161.6161616161616,274.4324532856202 L 160.9160916091609,274.05086347571734 L 153.26532653265326,275.64660268076585 L 144.16441644164416,276.13226243882406 L 144.26442644264426,274.259003372028 L 144.46444644464447,273.35706382134845 L 146.6146614661466,267.04348696659144 L 147.16471647164715,266.3496873122225 L 148.4148414841484,266.0027874850381 L 148.6148614861486,265.37836779610603 L 148.26482648264826,264.1989083836789 L 148.4148414841484,263.5744886947469 L 149.01490149014901,262.9847589885333 L 150.01500150015002,262.4297192650382 L 151.5151515151515,260.2789403364946 L 152.76527652765276,258.92603101047524 L 156.8156815681568,248.44965622950477 L 157.4157415741574,246.50701719727184 L 158.51585158515852,244.98065795766024 L 159.56595659565957,244.07871840698067 L 161.56615661566155,241.44227972037885 L 162.06620662066206,240.05468041164102 L 163.51635163516352,234.08800338406846 L 165.1165116511651,229.89051547513657 L 164.8164816481648,228.43353620096187 L 163.31633163316332,223.95852843028243 L 165.36653665366535,222.64030908698152 L 165.76657665766575,222.0158893980495 L 166.36663666366636,220.14263033125346 L 166.86668666866686,219.24069078057389 L 168.36683668366837,218.82441098795255 L 169.6169616961696,217.61026159280695 L 170.4170417041704,217.36743171377785 L 172.86728672867287,217.74902152368074 L 174.4174417441744,219.24069078057389 L 175.2175217521752,219.72635053863212 L 177.41774177417741,220.59360010659324 L 191.66916691669167,220.35077022756414 L 195.8195819581958,220.90580995105927 L 204.4204420442044,223.43817868950575 L 208.2208220822082,223.05658887960286 L 208.87088708870886,223.12596884503975 L 209.1209120912091,223.57693862037954 L 208.97089708970896,224.79108801552513 L 209.3209320932093,225.6236476007678 L 209.77097709770976,225.7624075316416 L 212.57125712571255,225.72771754892315 L 214.9214921492149,225.10329785999113 L 216.47164716471647,224.44418818834066 L 230.47304730473047,220.94049993377772 L 232.67326732673266,218.13061133358363 L 234.82348234823482,216.67363205940893 L 237.4237423742374,216.08390235319536 L 265.9265926592659,215.84107247416625 L 266.1266126612661,215.66762256057402 L 266.17661766176616,215.1125828370789 L 266.17661766176616,200.40403016445813 L 266.5266526652665,199.43271064834167 L 268.5768576857686,197.03910184076892 L 269.0769076907691,196.83096194445827 L 270.5770577057706,197.3860016679534 L 271.67716771677163,198.56546108038052 L 273.9273927392739,198.28794121863297 L 274.27742774277425,198.3226312013514 L 275.2275227522752,198.87767092484654 L 275.47754775477546,198.8429809421281 L 276.17761776177616,198.21856125319607 L 276.5276527652765,197.6288315469825 L 277.1277127712771,194.5414230850409 L 277.5277527752775,193.88231341339042 L 278.2278227822782,193.22320374173995 L 278.6778677867787,191.9396743811575 L 279.7779777977798,191.8009144502837 L 284.3284328432843,192.49471410465262 L 284.028402840284,192.8069239491186 L 283.37833783378335,230.3761752331948 L 283.17831783178315,230.86183499125303 L 282.7282728272827,231.03528490484527 L 275.7275727572757,231.24342480115592 L 275.27752775277526,231.34749474931127 L 275.07750775077506,231.6597045937773 L 274.8274827482748,262.1868893860091 L 300.6300630063006,262.2909593341644 L 301.1301130113011,263.192898884844 L 301.3301330133013,263.92138852193136 L 301.48014801480144,272.90609404600866 z" /></g></g></g></svg>