<svg xmlns="http://www.w3.org/2000/svg" xmlns:xlink="http://www.w3.org/1999/xlink" width="174.5504207131453" height="500.0" viewBox="0.0 0.0 174.5504207131453 500.0" preserveAspectRatio="xMinYMin meet"><g transform="matrix(1,0,0,-1,0,500.0)"><g><g><g><path fill-rule="evenodd" fill="#D2EBD9" stroke="#A6A6A6" stroke-width="0.25" opacity="1" d="M 157.73953410980906,280.62806280628064 L 156.79686757130423,280.72807280728074 L 154.40528764954195,280.3780378037804 L 153.93395438028955,279.8779877987799 L 152.92146069078436,277.8777877787779 L 150.9663004627743,276.8276827682768 L 149.63958459376752,275.7275727572757 L 150.56479434452226,273.57735773577355 L 151.49000409527702,273.67736773677365 L 151.55983124627735,274.07740774077405 L 152.60723851128273,273.57735773577355 L 153.1483989315355,275.37753775377536 L 153.93395438028955,276.07760776077606 L 154.6845962535434,274.87748774877485 L 154.61476910254302,274.027402740274 L 153.4975346865373,273.57735773577355 L 154.0037815312899,271.8271827182718 L 154.4925715882924,270.977097709771 L 155.3654109757969,270.52705270527053 L 155.3479541880468,271.77717771777174 L 155.6796331552985,273.027302730273 L 156.3255343020518,273.77737773777375 L 157.30311441605681,273.57735773577355 L 158.26323774231173,275.07750775077506 L 157.6522501710586,275.7275727572757 L 157.58242302005826,276.27762776277626 L 157.98392913831032,276.7276727672767 L 158.73457101156416,277.07770777077707 L 160.07874366832107,275.5275527552755 L 160.61990408857383,276.27762776277626 L 160.60244730082374,278.5778577857786 L 159.72960791331926,279.22792279227923 L 158.78694137481443,280.22802280228024 L 157.73953410980906,280.62806280628064 z" /><path fill-rule="evenodd" fill="#D2EBD9" stroke="#A6A6A6" stroke-width="0.25" opacity="1" d="M 109.12238022580969,262.2262226222622 L 110.06504676431453,262.3262326232623 L 110.76331827431811,262.87628762876284 L 111.00771330281937,263.7263726372637 L 110.51892324581686,264.6264626462646 L 109.41914561756121,265.026502650265 L 108.6161333810571,264.47644764476445 L 108.40665192805602,263.4263426342634 L 109.12238022580969,262.2262226222622 z" /></g><path fill-rule="evenodd" fill="#D2EBD9" stroke="#A6A6A6" stroke-width="0.25" opacity="1" d="M 90.9324073902164,78.6078607860786 L 90.68801236171514,79.15791579157916 L 90.14685194146237,78.4078407840784 L 89.46603721920887,76.8076807680768 L 88.34880280320314,75.00750075007501 L 86.96971657094608,74.4074407440744 L 86.60312402819419,73.55735573557355 L 86.67295117919456,72.50725072507251 L 87.0919140851967,71.7071707170717 L 86.13179075894178,71.2071207120712 L 86.13179075894178,70.7070707070707 L 88.13932135020207,69.15691569156915 L 89.02961752545664,68.25682568256825 L 89.46603721920887,67.1067106710671 L 90.54835805971443,66.45664566456645 L 91.00223454121675,67.2067206720672 L 90.9324073902164,71.9071907190719 L 91.33391350846846,74.65746574657466 L 91.36882708396864,75.8075807580758 L 90.9324073902164,78.6078607860786 z" /><g><path fill-rule="evenodd" fill="#D2EBD9" stroke="#A6A6A6" stroke-width="0.25" opacity="1" d="M 80.4234211646625,91.15911591159116 L 79.60295214040829,91.35913591359136 L 78.66028560190345,91.25912591259126 L 77.05426112889522,90.65906590659066 L 76.04176743939003,89.65896589658965 L 75.22129841513582,87.85878587858785 L 74.19134793788054,87.6087608760876 L 73.63273072987766,87.75877587758775 L 72.3932987996213,88.45884588458846 L 71.53791619986693,88.6088608860886 L 70.80473111436316,88.35883588358836 L 69.40818809435599,87.5087508750875 L 68.67500300885224,87.8087808780878 L 68.3956944048508,88.6088608860886 L 68.86702767410323,89.20892089208921 L 69.9144349391086,89.9089908990899 L 69.7398670616077,90.7090709070907 L 68.22112652734991,91.9091909190919 L 67.57522538059659,92.1092109210921 L 63.62999134907636,91.35913591359136 L 63.00154699007314,91.35913591359136 L 62.25090511681929,91.65916591659166 L 61.2384114273141,92.75927592759275 L 61.70974469656651,93.70937093709371 L 62.809522324822154,94.65946594659465 L 63.68236171232663,95.75957595759576 L 61.84939899856723,95.1095109510951 L 60.2259177378089,93.70937093709371 L 59.5625598033055,91.9091909190919 L 60.557596705060604,89.9089908990899 L 62.28581869231947,87.45874587458745 L 62.94917662682287,87.05870587058705 L 63.822016014327346,86.90869086908691 L 64.79959612833237,86.50865086508651 L 66.52781811559123,85.5085508550855 L 67.05152174809392,86.05860586058606 L 70.38576820836101,84.40844084408441 L 71.29352117136567,83.5083508350835 L 72.4107555873714,81.35813581358136 L 73.12648388512507,80.75807580758075 L 74.62776763163276,80.4080408040804 L 76.18142174139074,80.8080808080808 L 76.79240931264387,81.3081308130813 L 77.05426112889522,82.2082208220822 L 76.56547107189272,84.6084608460846 L 76.80986610039396,85.25852585258525 L 80.77255691966428,88.2088208820882 L 81.38354449091742,88.85888588858886 L 81.45337164191778,90.00900090009 L 81.19151982566643,90.6090609060906 L 80.4234211646625,91.15911591159116 z" /><path fill-rule="evenodd" fill="#D2EBD9" stroke="#A6A6A6" stroke-width="0.25" opacity="1" d="M 0.40150611825205934,1.1001100110011 L 0.06982715100035815,1.05010501050105 L 0.0,0.65006500650065 L 0.6284443590032234,0.0 L 1.2219751425062675,0.2000200020002 L 1.4838269587576107,0.5000500050005 L 1.0474072650053723,0.9000900090009001 L 0.40150611825205934,1.1001100110011 z" /></g><g><path fill-rule="evenodd" fill="#D2EBD9" stroke="#A6A6A6" stroke-width="0.25" opacity="1" d="M 129.52936510566437,189.56895689568955 L 129.75630334641554,189.06890689068905 L 130.50694521966938,188.3188318831883 L 131.04810563992214,188.06880688068807 L 132.37482150892896,188.2188218821882 L 132.74141405168083,189.3189318931893 L 132.8286979904313,190.8190819081908 L 133.38731519843415,192.11921192119212 L 131.990772178427,192.66926692669267 L 131.72892036217564,191.51915191519151 L 131.20521672967297,190.56905690569056 L 130.4720316441692,189.9189918991899 L 129.52936510566437,189.56895689568955 z" /><path fill-rule="evenodd" fill="#D2EBD9" stroke="#A6A6A6" stroke-width="0.25" opacity="1" d="M 80.16156934841115,196.16961696169616 L 78.67774238965355,196.1196119611961 L 78.2587794836514,195.5195519551955 L 77.99692766740006,194.1194119411941 L 78.06675481840041,193.36933693369335 L 78.90468063040471,191.06910691069106 L 78.90468063040471,190.56905690569056 L 79.70769286690883,190.26902690269026 L 80.4234211646625,189.56895689568955 L 80.85984085841474,190.1190119011901 L 80.85984085841474,189.56895689568955 L 81.66285309491886,191.06910691069106 L 81.78505060916947,193.26932693269325 L 81.27880376441688,195.3195319531953 L 80.16156934841115,196.16961696169616 z" /><path fill-rule="evenodd" fill="#D2EBD9" stroke="#A6A6A6" stroke-width="0.25" opacity="1" d="M 133.38731519843415,194.6194619461946 L 133.6317102269354,193.8193819381938 L 134.6616607041907,193.3193319331933 L 135.76143833244632,193.4193419341934 L 136.28514196494902,194.36943694369435 L 137.12306777695332,197.11971197119712 L 136.75647523420145,198.2198219821982 L 135.88363584669696,197.31973197319732 L 134.60929034094042,195.3195319531953 L 133.38731519843415,194.6194619461946 z" /><path fill-rule="evenodd" fill="#D2EBD9" stroke="#A6A6A6" stroke-width="0.25" opacity="1" d="M 136.5120802057002,202.22022202220222 L 136.04074693644776,202.5202520252025 L 135.69161118144598,204.17041704170416 L 135.3250186386941,204.77047704770476 L 134.27761137368873,205.020502050205 L 134.59183355319033,203.67036703670365 L 135.5170433039451,201.82018201820182 L 136.28514196494902,200.7200720072007 L 137.3325492299544,200.5200520052005 L 137.69914177270627,201.07010701070107 L 137.41983316870483,201.82018201820182 L 136.5120802057002,202.22022202220222 z" /></g><g><path fill-rule="evenodd" fill="#D2EBD9" stroke="#A6A6A6" stroke-width="0.25" opacity="1" d="M 40.988537637210236,500.0 L 38.71915522969859,499.54995499549955 L 37.35752578519161,498.34983498349834 L 37.14804433219054,496.8996899689969 L 38.370019474696804,495.4995499549955 L 40.447377216957456,495.2995299529953 L 41.93120417571507,496.94969496949693 L 42.29779671846695,498.999899989999 L 40.988537637210236,500.0 z" /><path fill-rule="evenodd" fill="#D2EBD9" stroke="#A6A6A6" stroke-width="0.25" opacity="1" d="M 173.29353199513884,472.4472447244724 L 171.8271618241313,471.7471747174717 L 171.09397673862756,471.0971097109711 L 171.05906316312738,470.54705470547054 L 171.65259394663042,469.7969796979698 L 172.73491478713598,469.7969796979698 L 173.76486526439126,470.7970797079708 L 174.5155071376451,472.047204720472 L 174.5504207131453,472.99729972997295 L 174.2012849581435,473.047304730473 L 173.29353199513884,472.4472447244724 z" /></g></g></g></g></svg>