<svg xmlns="http://www.w3.org/2000/svg" xmlns:xlink="http://www.w3.org/1999/xlink" width="500.0" height="473.5403889613226" viewBox="0.0 0.0 500.0 473.5403889613226" preserveAspectRatio="xMinYMin meet"><g transform="matrix(1,0,0,-1,0,473.5403889613226)"><g><g><path fill-rule="evenodd" fill="#D2EBD9" stroke="#A6A6A6" stroke-width="0.25" opacity="1" d="M 204.77047704770476,275.43863408331356 L 205.92059205920592,273.1180541194067 L 208.57085708570855,264.0725281376472 L 211.47114711471147,258.1053225161724 L 211.07110711071107,254.032467885642 L 208.8208820882088,251.33301772354625 L 206.67066706670667,250.66999487671572 L 200.5200520052005,252.13811689469762 L 197.9197919791979,252.28019321901846 L 195.3195319531953,251.56981159741431 L 193.019301930193,251.33301772354625 L 183.56835683568355,252.70642219198092 L 180.5180518051805,251.80660547128235 L 178.51785178517852,248.15997981371441 L 177.76777677767777,241.90862154359795 L 180.3180318031803,225.9960732196651 L 180.2180218021802,216.99790601267927 L 184.46844684468445,189.38774031966486 L 198.96989698969895,189.1035876710232 L 200.5200520052005,191.9451141574398 L 202.27022702270227,191.9451141574398 L 205.72057205720571,191.23473253583563 L 210.17101710171016,191.4715264097037 L 214.57145714571456,193.4605949501953 L 219.57195719571956,194.59720554476192 L 234.92349234923492,195.26022839159248 L 245.12451245124512,198.48062507619792 L 254.27542754275427,202.88499113014362 L 255.77557755775575,205.15821231927688 L 257.97579757975797,207.95238003091984 L 258.57585758575857,210.60447141824199 L 258.57585758575857,213.20920403079052 L 257.8257825782578,215.38770767037656 L 255.1255125512551,218.89225700362366 L 253.77537753775377,221.4969896161722 L 252.6252625262526,227.464195237647 L 254.17541754175417,232.9104543366121 L 254.27542754275427,239.3038889310494 L 253.92539253925392,242.33485051656044 L 252.07520752075206,243.99240763363676 L 250.5250525052505,244.75014803001451 L 248.32483248324831,244.89222435433535 L 244.97449744974497,246.1709112732228 L 245.67456745674565,247.59167451643108 L 255.7255725572557,248.5862087866769 L 258.9258925892589,249.5807430569227 L 260.976097609761,251.0962238496782 L 266.77667766776676,257.67909354320994 L 269.0769076907691,259.2892918855127 L 272.1272127212721,260.8047726782682 L 274.2274227422742,262.7938412187598 L 274.3274327432743,266.01423790336526 L 273.97739773977395,269.2346345879707 L 270.52705270527053,274.2546647139733 L 269.1269126912691,275.34391653376633 L 266.1266126612661,273.07069534463307 L 224.87248724872487,273.2127716689539 L 206.02060206020602,275.5333516328608 L 204.77047704770476,275.43863408331356 z M 228.67286728672866,221.1181194179833 L 233.67336733673366,216.28752439107512 L 234.17341734173417,213.77750932807382 L 235.77357735773577,208.7101204272976 L 235.8235823582358,206.53161678771156 L 235.27352735273527,205.11085354450327 L 234.22342234223422,204.68462457154078 L 232.5232523252325,204.2583955985783 L 229.42294229422941,204.3057543733519 L 226.12261226122612,205.39500619314492 L 225.27252725272527,205.96331149042823 L 225.07250725072507,206.62633433725878 L 225.17251725172517,207.2893571840893 L 225.57255725572557,207.95238003091984 L 227.5227522752275,209.98880734618507 L 227.87278727872786,212.02523466145027 L 227.77277727772776,214.06166197671547 L 227.9227922792279,214.6299672739988 L 228.7228722872287,215.95601296765986 L 228.3228322832283,216.99790601267927 L 228.27282728272826,217.89772273337786 L 228.67286728672866,221.1181194179833 z" /><path fill-rule="evenodd" fill="#D2EBD9" stroke="#A6A6A6" stroke-width="0.25" opacity="1" d="M 155.9155915591559,257.5370172188891 L 156.66566656665665,248.49149123712968 L 154.61546154615462,240.10898810220078 L 148.3148314831483,229.02703480517613 L 153.4153415341534,226.32758464308037 L 154.76547654765477,223.6281344809846 L 155.36553655365535,222.06529491345552 L 153.91539153915392,214.48789094967796 L 156.3156315631563,212.83033383260164 L 153.71537153715371,210.60447141824199 L 162.2162216221622,199.75931199508537 L 165.86658665866585,186.45149628370106 L 165.8165816581658,179.2056037433388 L 166.36663666366636,179.2056037433388 L 173.36733673367337,188.91415257192878 L 184.46844684468445,189.38774031966486 L 180.2180218021802,216.99790601267927 L 180.3180318031803,225.9960732196651 L 177.76777677767777,241.90862154359795 L 178.51785178517852,248.15997981371441 L 180.5180518051805,251.80660547128235 L 183.56835683568355,252.70642219198092 L 193.019301930193,251.33301772354625 L 195.3195319531953,251.56981159741431 L 197.9197919791979,252.28019321901846 L 200.5200520052005,252.13811689469762 L 206.67066706670667,250.66999487671572 L 208.8208820882088,251.33301772354625 L 211.07110711071107,254.032467885642 L 211.47114711471147,258.1053225161724 L 208.57085708570855,264.0725281376472 L 205.92059205920592,273.1180541194067 L 204.77047704770476,275.43863408331356 L 199.8199819981998,275.01240511035104 L 197.56975697569757,273.02333656985945 L 190.8190819081908,265.11442118266666 L 187.91879187918792,262.4623297953445 L 187.26872687268727,262.65176489443894 L 180.36803680368035,262.4623297953445 L 178.11781178117812,259.9049559575696 L 176.06760676067606,258.20004006571963 L 173.11731173117312,257.4896584441155 L 175.76757675767576,260.1891086062113 L 174.76747674767475,261.56251307464595 L 173.9173917391739,262.3676122457973 L 173.36733673367337,263.31478774126947 L 173.11731173117312,265.1617799574403 L 170.9170917091709,265.1617799574403 L 171.017101710171,261.4204367503251 L 170.9170917091709,260.1891086062113 L 168.26682668266827,260.1891086062113 L 166.46664666466646,264.6408334349306 L 164.6164616461646,263.1727114169487 L 161.9161916191619,259.5734445341543 L 157.46574657465746,257.4896584441155 L 155.9155915591559,257.5370172188891 z" /><path fill-rule="evenodd" fill="#D2EBD9" stroke="#A6A6A6" stroke-width="0.25" opacity="1" d="M 134.96349634963497,225.85399689534427 L 136.36363636363635,226.51701974217482 L 140.16401640164017,229.59534010245943 L 143.1143114311431,229.78477520155388 L 148.3148314831483,229.02703480517613 L 154.61546154615462,240.10898810220078 L 156.66566656665665,248.49149123712968 L 155.9155915591559,257.5370172188891 L 147.014701470147,257.63173476843633 L 130.66306630663067,253.79567401177394 L 116.1116111611161,255.0270021558878 L 111.26112611261125,253.0379336153962 L 92.8092809280928,240.20370565174798 L 95.05950595059505,235.98877469689674 L 96.8096809680968,234.04706493117874 L 99.05990599059905,233.3366833095746 L 117.16171617161716,232.10535516546074 L 124.81248124812481,230.49515682315803 L 134.96349634963497,225.85399689534427 z" /><path fill-rule="evenodd" fill="#D2EBD9" stroke="#A6A6A6" stroke-width="0.25" opacity="1" d="M 153.91539153915392,214.48789094967796 L 155.36553655365535,222.06529491345552 L 154.76547654765477,223.6281344809846 L 153.4153415341534,226.32758464308037 L 148.3148314831483,229.02703480517613 L 143.1143114311431,229.78477520155388 L 140.16401640164017,229.59534010245943 L 136.36363636363635,226.51701974217482 L 134.96349634963497,225.85399689534427 L 142.16421642164215,222.5388826611916 L 153.91539153915392,214.48789094967796 z" /><path fill-rule="evenodd" fill="#D2EBD9" stroke="#A6A6A6" stroke-width="0.25" opacity="1" d="M 165.76657665766575,173.61726832005286 L 170.76707670767075,173.09632179754317 L 173.11731173117312,172.48065772548622 L 175.76757675767576,170.8231006084099 L 179.1179117911791,170.16007776157937 L 181.8181818181818,167.8868565724461 L 186.1186118611861,166.56081087878502 L 195.2195219521952,167.22383372561558 L 197.7197719771977,169.49705491474884 L 198.1198119811981,173.09632179754317 L 200.57005700570056,181.43146615769845 L 198.96989698969895,189.1035876710232 L 184.46844684468445,189.38774031966486 L 173.36733673367337,188.91415257192878 L 166.36663666366636,179.2056037433388 L 165.8165816581658,179.2056037433388 L 165.76657665766575,173.61726832005286 z" /><path fill-rule="evenodd" fill="#D2EBD9" stroke="#A6A6A6" stroke-width="0.25" opacity="1" d="M 166.7166716671667,96.65925931293724 L 168.61686168616862,96.13831279042753 L 178.01780178017802,96.75397686248445 L 185.16851685168515,97.5117172588622 L 197.31973197319732,102.62646493441204 L 209.2209220922092,104.89968612354531 L 219.37193719371936,105.08912122263975 L 225.57255725572557,104.04722817762034 L 230.12301230123012,102.8632588082801 L 233.17331733173316,101.44249556507181 L 236.023602360236,100.54267884437323 L 240.37403740374037,98.69568662820245 L 243.52435243524351,95.71208381746504 L 248.62486248624862,103.14741145692176 L 251.5251525152515,112.99803660983255 L 253.62536253625362,133.69382118589996 L 255.27552755275525,140.8923549514886 L 260.02600260026003,149.6537282846064 L 253.12531253125312,151.642796825098 L 252.6252625262526,153.20563639262713 L 252.4252425242524,156.33131552768535 L 255.3255325532553,164.4770247887462 L 255.4255425542554,170.207436536353 L 252.6252625262526,173.09632179754317 L 251.5251525152515,176.03256583350696 L 250.5250525052505,191.28209131060925 L 249.02490249024902,195.16551084204525 L 245.12451245124512,198.48062507619792 L 234.92349234923492,195.26022839159248 L 219.57195719571956,194.59720554476192 L 214.57145714571456,193.4605949501953 L 210.17101710171016,191.4715264097037 L 205.72057205720571,191.23473253583563 L 202.27022702270227,191.9451141574398 L 200.5200520052005,191.9451141574398 L 198.96989698969895,189.1035876710232 L 200.57005700570056,181.43146615769845 L 198.1198119811981,173.09632179754317 L 197.7197719771977,169.49705491474884 L 195.2195219521952,167.22383372561558 L 186.1186118611861,166.56081087878502 L 181.8181818181818,167.8868565724461 L 179.1179117911791,170.16007776157937 L 175.76757675767576,170.8231006084099 L 173.11731173117312,172.48065772548622 L 170.76707670767075,173.09632179754317 L 165.76657665766575,173.61726832005286 L 165.76657665766575,172.2438638516182 L 163.41634163416342,158.5098191672714 L 158.71587158715872,147.28578954592592 L 156.66566656665665,140.18197332988447 L 157.46574657465746,134.9725081047874 L 158.76587658765877,132.50985181655972 L 160.86608660866085,125.40603560051828 L 161.2161216121612,122.61186788887531 L 160.6160616061606,121.56997484385589 L 159.36593659365937,121.28582219521424 L 158.41584158415841,120.76487567270453 L 158.56585658565857,118.82316590698653 L 159.66596659665964,117.21296756468381 L 162.76627662766276,114.60823495213528 L 163.41634163416342,112.66652518641729 L 164.36643664366434,105.8468616190175 L 166.16661666166615,100.02173232186352 L 166.7166716671667,96.65925931293724 z" /><path fill-rule="evenodd" fill="#D2EBD9" stroke="#A6A6A6" stroke-width="0.25" opacity="1" d="M 155.96559655965595,74.8268641423032 L 156.36563656365635,74.3532763945671 L 173.16731673167317,78.37877225032392 L 178.01780178017802,96.75397686248445 L 168.61686168616862,96.13831279042753 L 166.7166716671667,96.65925931293724 L 167.16671667166716,93.95980915084148 L 165.86658665866585,86.71391661047922 L 163.11631163116311,82.07275668266547 L 158.81588158815882,77.14744410621007 L 155.96559655965595,74.8268641423032 z" /><path fill-rule="evenodd" fill="#D2EBD9" stroke="#A6A6A6" stroke-width="0.25" opacity="1" d="M 145.01450145014502,71.51174990815052 L 146.56465646564655,69.14381116947004 L 156.2156215621562,60.571872935446706 L 160.66606660666065,57.777705223803736 L 162.5162516251625,54.46259098965106 L 163.46634663466347,51.85785837710253 L 163.31633163316332,45.653858881759675 L 161.86618661866186,39.070989188227934 L 160.2160216021602,35.56643985498082 L 155.76557655765575,30.309615855110156 L 153.96539653965397,27.27865426959914 L 152.66526652665266,23.347875963389544 L 150.9150915091509,9.897983927684411 L 181.7181718171817,12.313281441138502 L 195.36953695369536,11.12931207179826 L 197.56975697569757,63.31868187231606 L 194.8194819481948,67.06002507943123 L 190.9190919091909,70.61193318745194 L 173.16731673167317,78.37877225032392 L 156.36563656365635,74.3532763945671 L 155.96559655965595,74.8268641423032 L 154.06540654065407,73.3113833495477 L 150.06500650065004,71.70118500724496 L 145.01450145014502,71.51174990815052 z" /><path fill-rule="evenodd" fill="#D2EBD9" stroke="#A6A6A6" stroke-width="0.25" opacity="1" d="M 102.86028602860286,60.666590484993925 L 105.36053605360536,57.91978154812457 L 106.3106310631063,56.16750688150101 L 105.91059105910591,54.22579711578302 L 102.7102710271027,49.726713512290104 L 101.3101310131013,47.31141599883601 L 99.1099109910991,44.280454413324996 L 91.55915591559156,37.887019818887694 L 87.5087508750875,36.513615350453016 L 84.10841084108411,36.22946270181136 L 79.8079807980798,43.14384381875836 L 78.65786578657865,44.70668338628748 L 77.00770077007701,43.90158421513612 L 49.6049604960496,35.708516179301654 L 43.65436543654365,32.77227214333786 L 38.1038103810381,28.5573411884866 L 34.4034403440344,23.158440864295105 L 32.05320532053205,20.837860900388232 L 20.502050205020502,18.7067160355758 L 16.6016601660166,17.47538789146195 L 14.951495149514951,16.14934219780088 L 3.4503450345034503,10.08741902677885 L 0.0,5.209465225097058 L 7.650765076507651,0.0 L 13.85138513851385,0.09471754954721924 L 21.102110211021103,2.888885261190187 L 28.05280528052805,7.009098666494224 L 33.25332533253325,11.08195329702465 L 39.703970397039704,14.207632432082885 L 48.104810481048105,15.202166702328688 L 78.9078907890789,15.107449152781468 L 86.2086208620862,14.254991206856495 L 92.8092809280928,12.313281441138502 L 96.9096909690969,9.94534270245802 L 100.16001600160016,7.530045189003929 L 103.66036603660365,5.6830529728331545 L 108.7108710871087,4.925312576455401 L 112.31123112311231,5.304182774644278 L 119.26192619261926,7.009098666494224 L 123.26232623262325,7.387968864683101 L 133.36333633363336,11.508182269987138 L 136.7136713671367,12.313281441138502 L 150.9150915091509,9.897983927684411 L 152.66526652665266,23.347875963389544 L 153.96539653965397,27.27865426959914 L 155.76557655765575,30.309615855110156 L 160.2160216021602,35.56643985498082 L 161.86618661866186,39.070989188227934 L 163.31633163316332,45.653858881759675 L 163.46634663466347,51.85785837710253 L 162.5162516251625,54.46259098965106 L 160.66606660666065,57.777705223803736 L 156.2156215621562,60.571872935446706 L 146.56465646564655,69.14381116947004 L 145.01450145014502,71.51174990815052 L 131.013101310131,70.99080338564082 L 112.66126612661266,74.21120007024628 L 107.26072607260726,74.11648252069905 L 102.76027602760276,71.70118500724496 L 103.06030603060306,60.80866680931475 L 102.86028602860286,60.666590484993925 z" /><path fill-rule="evenodd" fill="#D2EBD9" stroke="#A6A6A6" stroke-width="0.25" opacity="1" d="M 78.65786578657865,44.70668338628748 L 79.8079807980798,43.14384381875836 L 84.10841084108411,36.22946270181136 L 87.5087508750875,36.513615350453016 L 91.55915591559156,37.887019818887694 L 99.1099109910991,44.280454413324996 L 101.3101310131013,47.31141599883601 L 102.7102710271027,49.726713512290104 L 105.91059105910591,54.22579711578302 L 106.3106310631063,56.16750688150101 L 105.36053605360536,57.91978154812457 L 102.86028602860286,60.666590484993925 L 92.3092309230923,51.24219430504561 L 78.65786578657865,44.70668338628748 z" /><path fill-rule="evenodd" fill="#D2EBD9" stroke="#A6A6A6" stroke-width="0.25" opacity="1" d="M 266.97669766976696,11.934411242949624 L 261.8761876187619,67.9124830253562 L 256.025602560256,78.2366959260031 L 252.67526752675266,82.30955055653352 L 249.72497249724972,82.97257340336405 L 248.37483748374837,86.00353498887507 L 246.1246124612461,87.6137333311778 L 243.52435243524351,95.71208381746504 L 240.37403740374037,98.69568662820245 L 236.023602360236,100.54267884437323 L 233.17331733173316,101.44249556507181 L 230.12301230123012,102.8632588082801 L 225.57255725572557,104.04722817762034 L 219.37193719371936,105.08912122263975 L 209.2209220922092,104.89968612354531 L 197.31973197319732,102.62646493441204 L 185.16851685168515,97.5117172588622 L 178.01780178017802,96.75397686248445 L 173.16731673167317,78.37877225032392 L 190.9190919091909,70.61193318745194 L 194.8194819481948,67.06002507943123 L 197.56975697569757,63.31868187231606 L 195.36953695369536,11.12931207179826 L 209.7209720972097,9.850625152910801 L 232.37323732373235,14.302349981630105 L 240.17401740174017,15.012731603234249 L 261.976197619762,11.460823495213528 L 266.97669766976696,11.934411242949624 z" /><path fill-rule="evenodd" fill="#D2EBD9" stroke="#A6A6A6" stroke-width="0.25" opacity="1" d="M 316.4316431643164,152.30581967192853 L 296.2296229622962,154.43696453674096 L 260.02600260026003,149.6537282846064 L 255.27552755275525,140.8923549514886 L 253.62536253625362,133.69382118589996 L 251.5251525152515,112.99803660983255 L 248.62486248624862,103.14741145692176 L 243.52435243524351,95.71208381746504 L 246.1246124612461,87.6137333311778 L 248.37483748374837,86.00353498887507 L 249.72497249724972,82.97257340336405 L 252.67526752675266,82.30955055653352 L 256.025602560256,78.2366959260031 L 261.8761876187619,67.9124830253562 L 266.97669766976696,11.934411242949624 L 270.62706270627064,12.313281441138502 L 286.6286628662866,16.14934219780088 L 294.67946794679466,19.180303783311896 L 300.98009800980094,23.395234738163154 L 307.2307230723072,28.79413506235465 L 315.3315331533153,33.76680641358366 L 323.88238823882386,36.418897800905796 L 331.5331533153315,34.71398190905585 L 328.9328932893289,53.089186521216384 L 329.1329132913291,74.21120007024628 L 333.58335833583357,92.87055733104846 L 343.88438843884387,103.99986940284673 L 330.68306830683065,113.37690680802143 L 324.3324332433243,122.84866176274336 L 321.9321932193219,127.4424629157835 L 320.1320132013201,132.36777549223888 L 316.4316431643164,152.30581967192853 z" /><path fill-rule="evenodd" fill="#D2EBD9" stroke="#A6A6A6" stroke-width="0.25" opacity="1" d="M 269.1269126912691,275.34391653376633 L 270.52705270527053,274.2546647139733 L 273.97739773977395,269.2346345879707 L 274.3274327432743,266.01423790336526 L 274.2274227422742,262.7938412187598 L 272.1272127212721,260.8047726782682 L 269.0769076907691,259.2892918855127 L 266.77667766776676,257.67909354320994 L 260.976097609761,251.0962238496782 L 258.9258925892589,249.5807430569227 L 255.7255725572557,248.5862087866769 L 245.67456745674565,247.59167451643108 L 244.97449744974497,246.1709112732228 L 248.32483248324831,244.89222435433535 L 250.5250525052505,244.75014803001451 L 252.07520752075206,243.99240763363676 L 253.92539253925392,242.33485051656044 L 254.27542754275427,239.3038889310494 L 254.17541754175417,232.9104543366121 L 252.6252625262526,227.464195237647 L 253.77537753775377,221.4969896161722 L 255.1255125512551,218.89225700362366 L 257.8257825782578,215.38770767037656 L 258.57585758575857,213.20920403079052 L 258.57585758575857,210.60447141824199 L 257.97579757975797,207.95238003091984 L 255.77557755775575,205.15821231927688 L 254.27542754275427,202.88499113014362 L 245.12451245124512,198.48062507619792 L 249.02490249024902,195.16551084204525 L 250.5250525052505,191.28209131060925 L 251.5251525152515,176.03256583350696 L 252.6252625262526,173.09632179754317 L 255.4255425542554,170.207436536353 L 255.3255325532553,164.4770247887462 L 252.4252425242524,156.33131552768535 L 252.6252625262526,153.20563639262713 L 253.12531253125312,151.642796825098 L 260.02600260026003,149.6537282846064 L 296.2296229622962,154.43696453674096 L 316.4316431643164,152.30581967192853 L 315.2315231523152,158.88868936546027 L 315.031503150315,169.02346716701274 L 325.2825282528253,177.87955804967774 L 323.88238823882386,188.62999992328713 L 316.981698169817,210.60447141824199 L 316.5816581658166,220.9760430936625 L 318.4818481848185,231.82120251681908 L 322.68226822682266,238.73558363376608 L 329.3329332933293,237.55161426442587 L 347.98479847984794,260.71005512872097 L 363.0863086308631,287.3730453262632 L 348.28482848284824,290.309289362227 L 302.2302230223022,285.14718291190354 L 295.77957795779577,282.40037397503414 L 275.07750775077506,279.89035891203287 L 269.1269126912691,275.34391653376633 z" /><path fill-rule="evenodd" fill="#D2EBD9" stroke="#A6A6A6" stroke-width="0.25" opacity="1" d="M 452.8452845284528,457.9119932860314 L 455.59555955595556,452.08686398887744 L 448.6448644864486,443.5149257548541 L 438.7438743874387,436.97941483609594 L 435.2435243524352,433.56958305239607 L 444.19441944194415,430.01767494437536 L 455.5455545554555,420.3091261157854 L 459.4959495949595,422.67706485446587 L 462.09620962096204,424.7608509445047 L 470.2970297029703,429.8755986200545 L 471.59715971597154,430.1597512686962 L 476.8976897689769,437.31092625951123 L 477.5977597759776,438.921124601814 L 481.09810981098104,439.0158421513612 L 484.6484648464846,437.7845140072473 L 487.74877487748773,438.4001780793042 L 489.94899489948995,443.84643717826935 L 492.1492149214921,443.84643717826935 L 496.0996099609961,442.89926168279715 L 498.74987498749874,450.71345952044277 L 500.0,461.84277159224104 L 499.64996499649965,470.8409387992268 L 496.999699969997,473.5403889613226 L 493.1493149314931,470.74622124967965 L 486.3986398639864,462.69522953816596 L 483.7483748374837,462.41107688952434 L 478.0978097809781,465.726191123677 L 473.79737973797376,464.9210919525256 L 469.5969596959696,462.5531532138452 L 459.5959595959596,460.42200834903275 L 452.8452845284528,457.9119932860314 z" /><path fill-rule="evenodd" fill="#D2EBD9" stroke="#A6A6A6" stroke-width="0.25" opacity="1" d="M 455.5455545554555,420.3091261157854 L 444.19441944194415,430.01767494437536 L 435.2435243524352,433.56958305239607 L 438.7438743874387,436.97941483609594 L 448.6448644864486,443.5149257548541 L 455.59555955595556,452.08686398887744 L 452.8452845284528,457.9119932860314 L 447.89478947894787,456.1123598446342 L 443.39433943394334,453.7444211059538 L 439.74397439743973,450.9976121690844 L 433.2933293329333,444.6515363494207 L 403.24032403240324,424.8082097192783 L 399.68996899689967,420.1196910166909 L 397.68976897689765,415.38381353933 L 393.0893089308931,413.5368213231592 L 388.1388138813881,412.7317221520078 L 385.13851385138514,411.2162413592523 L 384.33843384338434,405.7226234855136 L 387.2387238723872,402.1707153774929 L 392.1892189218922,401.31825743156793 L 397.48974897489745,404.01770759366366 L 400.0400040004,398.2399370712833 L 406.040604060406,400.6552345847374 L 415.59155915591555,408.99037894489265 L 421.8921892189219,410.45850096287455 L 443.39433943394334,421.3510191608048 L 446.7446744674467,421.20894283648397 L 451.04510451045104,420.356484890559 L 455.5455545554555,420.3091261157854 z" /><path fill-rule="evenodd" fill="#D2EBD9" stroke="#A6A6A6" stroke-width="0.25" opacity="1" d="M 228.67286728672866,221.1181194179833 L 228.27282728272826,217.89772273337786 L 228.3228322832283,216.99790601267927 L 228.7228722872287,215.95601296765986 L 227.9227922792279,214.6299672739988 L 227.77277727772776,214.06166197671547 L 227.87278727872786,212.02523466145027 L 227.5227522752275,209.98880734618507 L 225.57255725572557,207.95238003091984 L 225.17251725172517,207.2893571840893 L 225.07250725072507,206.62633433725878 L 225.27252725272527,205.96331149042823 L 226.12261226122612,205.39500619314492 L 229.42294229422941,204.3057543733519 L 232.5232523252325,204.2583955985783 L 234.22342234223422,204.68462457154078 L 235.27352735273527,205.11085354450327 L 235.8235823582358,206.53161678771156 L 235.77357735773577,208.7101204272976 L 234.17341734173417,213.77750932807382 L 233.67336733673366,216.28752439107512 L 228.67286728672866,221.1181194179833 z" /></g></g></g></svg>