<svg xmlns="http://www.w3.org/2000/svg" xmlns:xlink="http://www.w3.org/1999/xlink" width="500.0" height="499.3510602120077" viewBox="0.0 0.0 500.0 499.3510602120077" preserveAspectRatio="xMinYMin meet"><g transform="matrix(1,0,0,-1,0,499.3510602120077)"><g><g><path fill-rule="evenodd" fill="#D2EBD9" stroke="#A6A6A6" stroke-width="0.25" opacity="1" d="M 405.39522666018456,117.61167989484966 L 406.5573417758569,119.2873306130059 L 407.0953579475172,120.7017981671961 L 406.8586308849044,121.94214525376447 L 406.29909398732707,123.53061596362386 L 406.2237717760727,125.70652348524891 L 406.4712591357529,128.50242936145514 L 407.3966470565647,126.70740993996151 L 407.5042502908036,123.44357783382293 L 408.60180349228904,121.72454270429444 L 408.870811578352,120.48419034236576 L 407.8378204233013,119.23292723787017 L 405.39522666018456,117.61167989484966 z" /><path fill-rule="evenodd" fill="#D2EBD9" stroke="#A6A6A6" stroke-width="0.25" opacity="1" d="M 298.2008737162687,180.69420735584572 L 297.2432049042545,180.82462249067612 L 297.53373358398676,182.55259416007902 L 298.5452041453682,184.80213491187897 L 299.5351539803669,186.49737932812423 L 298.2008737162687,180.69420735584572 z" /><path fill-rule="evenodd" fill="#D2EBD9" stroke="#A6A6A6" stroke-width="0.25" opacity="1" d="M 135.8383369068615,297.11004365002736 L 135.80605588341132,297.4137247335166 L 135.50476677482948,298.3356047755806 L 135.89213852398098,297.4245705677895 L 135.8383369068615,296.7195940921083 L 135.8383369068615,297.11004365002736 z" /><path fill-rule="evenodd" fill="#D2EBD9" stroke="#A6A6A6" stroke-width="0.25" opacity="1" d="M 24.996233764104545,416.27932037692517 L 25.641853301785886,418.02224410534836 L 26.13682828564197,418.07637146429624 L 26.072266239207238,417.2428053562762 L 24.996233764104545,416.27932037692517 z" /><path fill-rule="evenodd" fill="#D2EBD9" stroke="#A6A6A6" stroke-width="0.25" opacity="1" d="M 161.15738050593063,440.39491826226003 L 160.59784360788763,441.2606748075923 L 160.24275288172066,442.1047772162128 L 161.7814793176949,441.7909454317996 L 162.8144704727456,441.2606748075923 L 162.7714291526936,440.6979342591949 L 161.15738050593063,440.39491826226003 z" /><path fill-rule="evenodd" fill="#D2EBD9" stroke="#A6A6A6" stroke-width="0.25" opacity="1" d="M 1.3235198347829282,497.31811973359436 L 0.0,499.13479253591504 L 0.6133383829146624,499.3510602120077 L 2.001420264132321,498.0642585125752 L 3.0666924426332116,495.4689620496938 L 1.3235198347829282,497.31811973359436 z" /><path fill-rule="evenodd" fill="#D2EBD9" stroke="#A6A6A6" stroke-width="0.25" opacity="1" d="M 500.0,2.8576587102143094 L 499.913917359896,0.2726849459577352 L 499.8063141251914,0.0 L 499.64490927383304,2.7049639640608802 L 498.9239675248973,4.537269233493134 L 499.2682979539968,4.384579878649674 L 500.0,2.8576587102143094 z" /><path fill-rule="evenodd" fill="#D2EBD9" stroke="#A6A6A6" stroke-width="0.25" opacity="1" d="M 494.85656495019794,10.38271285861265 L 495.5775066995993,9.89198557625059 L 496.25540712848306,8.027174560818821 L 496.06172125414014,7.732723985682242 L 495.3730605277233,9.444873894914053 L 494.8027633330785,10.230042674811557 L 494.85656495019794,10.38271285861265 z" /><path fill-rule="evenodd" fill="#D2EBD9" stroke="#A6A6A6" stroke-width="0.25" opacity="1" d="M 338.16471906518564,257.9004976551514 L 336.20633998932317,261.61209234024864 L 335.84048896608874,262.8926461156225 L 338.8964211116545,260.17957498144824 L 339.26227213442326,260.04934445687104 L 339.56356124347076,258.8989615913015 L 339.6604041811079,257.58576090075076 L 339.3053134549409,256.9454290299909 L 338.16471906518564,257.9004976551514 z" /></g></g></g></svg>