<svg xmlns="http://www.w3.org/2000/svg" xmlns:xlink="http://www.w3.org/1999/xlink" width="500.0" height="495.4860650780611" viewBox="0.0 0.0 500.0 495.4860650780611" preserveAspectRatio="xMinYMin meet"><g transform="matrix(1,0,0,-1,0,495.4860650780611)"><g><g><path fill-rule="evenodd" fill="#D2EBD9" stroke="#A6A6A6" stroke-width="0.25" opacity="1" d="M 361.28612861286126,445.7342889666126 L 362.88628862886287,445.18919978610865 L 369.88698869886986,445.6847354047486 L 372.2372237223722,444.0494678632368 L 374.23742374237423,439.6392008573415 L 376.78767876787674,438.64812962006164 L 379.037903790379,438.0039333158298 L 381.08810881088107,437.0128620785499 L 384.5884588458846,435.8731301556781 L 386.4386438643864,433.7423269955264 L 385.8385838583858,430.76911328368686 L 387.6387638763876,428.88607793285513 L 390.9390939093909,427.7958995718473 L 393.0893089308931,426.25973915406354 L 394.6894689468947,424.67402517441576 L 396.6396639663966,424.27759667950386 L 398.58985898589856,424.4758109269598 L 400.3400340034003,422.6918826998561 L 401.6901690169017,420.36286529224844 L 403.8903890389039,419.22313336937657 L 405.6405640564056,417.8851871990488 L 405.79057905790575,415.35795554398516 L 406.6406640664066,411.64143840418575 L 405.6405640564056,407.67715345506633 L 403.2903290329033,404.3570648101788 L 403.5903590359036,402.1271545262992 L 406.19061906190615,400.14501205173946 L 409.3409340934093,398.2124231390438 L 412.1912191219122,397.7664410822678 L 414.24142414241425,396.27983422634804 L 417.9417941794179,394.1490310661964 L 420.3920392039204,393.05885270518854 L 420.6920692069207,393.85170969501246 L 422.6922692269227,394.6445666848363 L 424.3424342434243,394.34724531365237 L 426.09260926092605,394.9914416178843 L 427.2427242724272,396.92403053057996 L 425.6425642564256,403.266886449171 L 428.39283928392837,405.2985824855947 L 429.9429942994299,405.69501098050665 L 428.69286928692867,408.5195640067542 L 424.1424142414241,412.83072388892157 L 423.3923392339234,415.6552769151691 L 422.992299229923,418.3311692558247 L 424.59245924592454,420.21420460665644 L 425.3425342534253,422.89009694731203 L 421.04210421042103,429.1833993040391 L 418.49184918491846,430.22402410318296 L 414.69146914691464,430.02580985572695 L 412.0912091209121,431.4628631497827 L 412.74127412741274,434.88205891839823 L 412.24122412241223,437.5083976971898 L 409.49094909490947,440.1347364759814 L 408.9408940894089,442.71152169290906 L 409.49094909490947,445.6847354047486 L 409.39093909390937,448.8066098021801 L 411.2911291129113,450.8878594004678 L 417.9417941794179,452.8204483131635 L 419.6419641964196,454.60437654026725 L 420.1420142014201,456.78473326228294 L 419.9419941994199,458.8164292987066 L 417.29172917291726,462.63205356223403 L 415.1415141514151,463.77178548510585 L 413.04130413041304,464.26732110374576 L 411.44114411441143,465.75392795966553 L 408.99089908990896,467.2900883774493 L 405.79057905790575,468.8262487952331 L 403.64036403640364,471.2048197647047 L 393.3893389338934,469.32178441387305 L 388.8388838883888,467.68651687236127 L 386.5386538653865,466.44767782576145 L 384.63846384638464,464.7628567223857 L 382.4382438243824,463.4249105520579 L 373.037303730373,460.3030361546264 L 369.38693869386935,457.23071531905885 L 365.83658365836584,452.9691089987555 L 361.28612861286126,445.7342889666126 z" /><path fill-rule="evenodd" fill="#D2EBD9" stroke="#A6A6A6" stroke-width="0.25" opacity="1" d="M 353.6353635363536,431.16554177859877 L 357.88578857885784,429.3320599896311 L 365.5865586558656,426.90393545829545 L 368.3368336833683,425.4173286023757 L 370.28702870287026,423.48473968967994 L 371.2371237123712,421.60170433884826 L 370.7370737073707,419.71866898801653 L 369.5369536953695,419.0249191219206 L 366.88668866886684,418.5789370651447 L 363.9363936393639,417.3896515804089 L 362.18621862186217,415.1597412965292 L 361.036103610361,412.28563470841766 L 359.7359735973597,410.7494742906339 L 362.036203620362,405.10036823813874 L 363.986398639864,402.82090439239505 L 367.036703670367,400.5414405466514 L 373.2373237323732,397.56822683481187 L 375.23752375237524,395.88340573143614 L 375.63756375637564,393.20751339078055 L 375.43754375437544,391.2253709162208 L 374.53745374537453,387.85572870946936 L 375.53755375537554,384.33742581712585 L 374.8874887488749,381.9588548476542 L 374.43744374437443,379.3820696307266 L 376.5376537653765,378.8865340120867 L 380.4380438043804,379.97671237309453 L 383.8883888388839,380.1749266205505 L 386.3386338633863,379.9271588112305 L 392.73927392739273,381.5624263527423 L 395.2895289528953,379.5307303163186 L 395.98959895989594,377.30082003243893 L 397.68976897689765,375.6159989290632 L 399.98999899989997,371.6517139799438 L 400.29002900290027,369.17403588674415 L 400.69006900690067,369.4218036960641 L 406.09060906090605,369.96689287656807 L 407.5407540754075,369.5704643816561 L 409.7409740974097,374.9222490629673 L 416.89168916891686,382.1075155332462 L 418.8418841884188,385.08072924508576 L 418.5418541854185,387.3601930908294 L 420.3920392039204,393.05885270518854 L 417.9417941794179,394.1490310661964 L 414.24142414241425,396.27983422634804 L 412.1912191219122,397.7664410822678 L 409.3409340934093,398.2124231390438 L 406.19061906190615,400.14501205173946 L 403.5903590359036,402.1271545262992 L 403.2903290329033,404.3570648101788 L 405.6405640564056,407.67715345506633 L 406.6406640664066,411.64143840418575 L 405.79057905790575,415.35795554398516 L 405.6405640564056,417.8851871990488 L 403.8903890389039,419.22313336937657 L 401.6901690169017,420.36286529224844 L 400.3400340034003,422.6918826998561 L 398.58985898589856,424.4758109269598 L 396.6396639663966,424.27759667950386 L 394.6894689468947,424.67402517441576 L 393.0893089308931,426.25973915406354 L 390.9390939093909,427.7958995718473 L 387.6387638763876,428.88607793285513 L 385.8385838583858,430.76911328368686 L 386.4386438643864,433.7423269955264 L 384.5884588458846,435.8731301556781 L 381.08810881088107,437.0128620785499 L 379.037903790379,438.0039333158298 L 376.78767876787674,438.64812962006164 L 374.23742374237423,439.6392008573415 L 372.2372237223722,444.0494678632368 L 369.88698869886986,445.6847354047486 L 362.88628862886287,445.18919978610865 L 361.28612861286126,445.7342889666126 L 360.2360236023602,444.0494678632368 L 359.08590859085905,440.92759346580533 L 358.7358735873587,439.44098660988556 L 358.8358835883588,438.79679030565364 L 357.58575857585754,438.4003618107417 L 356.23562356235624,437.26062988786987 L 355.13551355135513,435.8235765938141 L 354.4354435443544,432.3548272633346 L 353.6353635363536,431.16554177859877 z" /><path fill-rule="evenodd" fill="#D2EBD9" stroke="#A6A6A6" stroke-width="0.25" opacity="1" d="M 347.98479847984794,415.55616979144116 L 351.5351535153515,414.21822362111334 L 353.6853685368537,412.88027745078557 L 355.0855085508551,410.94768853808984 L 357.28572857285724,410.05572442453797 L 359.6359635963596,410.6008136050419 L 359.7359735973597,410.7494742906339 L 361.036103610361,412.28563470841766 L 362.18621862186217,415.1597412965292 L 363.9363936393639,417.3896515804089 L 366.88668866886684,418.5789370651447 L 369.5369536953695,419.0249191219206 L 370.7370737073707,419.71866898801653 L 371.2371237123712,421.60170433884826 L 370.28702870287026,423.48473968967994 L 368.3368336833683,425.4173286023757 L 365.5865586558656,426.90393545829545 L 357.88578857885784,429.3320599896311 L 353.6353635363536,431.16554177859877 L 352.7352735273527,430.22402410318296 L 351.98519851985196,428.7374172472632 L 352.88528852885287,426.6561676489755 L 352.88528852885287,425.76420353542363 L 352.5352535253525,424.9713465455997 L 351.38513851385136,423.48473968967994 L 348.58485848584854,417.63741938972885 L 347.98479847984794,415.55616979144116 z" /><path fill-rule="evenodd" fill="#D2EBD9" stroke="#A6A6A6" stroke-width="0.25" opacity="1" d="M 314.28142814281426,372.49412453163166 L 318.981898189819,365.2097509376248 L 321.38213821382135,362.68251928256115 L 324.58245824582457,359.8579662563136 L 332.28322832283226,354.2088602038184 L 336.03360336033603,352.37537841485073 L 339.38393839383934,351.7311821106188 L 345.2845284528453,348.3615399038673 L 351.5351535153515,348.65886127505127 L 354.1854185418542,350.09591456910704 L 354.63546354635463,353.8619852707705 L 357.4357435743574,355.54680637414623 L 362.48624862486247,355.15037787923427 L 365.53655365536554,353.91153883263445 L 368.08680868086805,351.0869858063869 L 370.8370837083708,349.9968074453791 L 375.3875387538754,352.4249319767147 L 378.88788878887885,353.8619852707705 L 384.7884788478848,358.5695736478498 L 387.78877887788775,360.2048411893615 L 390.1390139013901,362.4843050351052 L 392.2892289228923,363.97091189102497 L 394.989498949895,363.92135832916097 L 397.48974897489745,364.9619831283048 L 398.38983898389836,367.8360897164164 L 400.29002900290027,369.17403588674415 L 399.98999899989997,371.6517139799438 L 397.68976897689765,375.6159989290632 L 395.98959895989594,377.30082003243893 L 395.2895289528953,379.5307303163186 L 392.73927392739273,381.5624263527423 L 386.3386338633863,379.9271588112305 L 383.8883888388839,380.1749266205505 L 380.4380438043804,379.97671237309453 L 376.5376537653765,378.8865340120867 L 374.43744374437443,379.3820696307266 L 374.8874887488749,381.9588548476542 L 375.53755375537554,384.33742581712585 L 374.53745374537453,387.85572870946936 L 375.43754375437544,391.2253709162208 L 375.63756375637564,393.20751339078055 L 375.23752375237524,395.88340573143614 L 373.2373237323732,397.56822683481187 L 367.036703670367,400.5414405466514 L 363.986398639864,402.82090439239505 L 362.036203620362,405.10036823813874 L 359.7359735973597,410.7494742906339 L 359.6359635963596,410.6008136050419 L 357.28572857285724,410.05572442453797 L 355.0855085508551,410.94768853808984 L 353.6853685368537,412.88027745078557 L 351.5351535153515,414.21822362111334 L 347.98479847984794,415.55616979144116 L 347.8347834783478,414.91197348720925 L 345.984598459846,413.9704558117934 L 345.53455345534553,413.0289381363775 L 344.6344634463446,410.105277986402 L 342.7342734273427,408.1726890737063 L 341.3341334133413,406.28965372287456 L 341.8341834183418,403.51465425849096 L 338.13381338133814,404.2084041245869 L 335.2835283528353,403.46510069662696 L 332.9332933293329,401.73072603138723 L 330.8330833083308,399.4512621856436 L 329.5329532953295,396.87447696871595 L 328.5828582858286,395.78429860770814 L 325.1325132513251,394.79322737042827 L 324.3324332433243,393.4057276382365 L 323.48234823482346,390.234299678941 L 320.48204820482044,384.8825149976298 L 319.38193819381934,382.0579619713822 L 318.93189318931894,378.6883197646307 L 317.981798179818,376.607070166343 L 314.28142814281426,372.49412453163166 z" /><path fill-rule="evenodd" fill="#D2EBD9" stroke="#A6A6A6" stroke-width="0.25" opacity="1" d="M 294.67946794679466,335.8244887522772 L 297.6797679767977,334.88297107686134 L 299.6799679967997,333.0990428497576 L 301.030103010301,329.8285077667341 L 301.58015801580154,325.9633299413427 L 303.88038803880386,323.1883304769591 L 309.9309930993099,321.40440224985537 L 312.1312131213121,319.5709204608877 L 313.78137813781376,317.04368880582405 L 314.78147814781477,315.01199276940036 L 314.8314831483148,312.9802967329767 L 315.4315431543154,311.2954756296009 L 317.63176317631763,310.899047134689 L 320.4320432043204,309.06556534572127 L 320.4320432043204,308.37181547962535 L 322.58225822582256,308.27270835589735 L 331.7331733173317,306.9843157474336 L 333.88338833883387,307.33119068048154 L 336.43364336433643,309.7593152118171 L 340.28402840284025,317.09324236768805 L 342.18421842184216,321.40440224985537 L 345.43454345434543,322.99011622950314 L 350.6350635063506,322.2468128015433 L 353.6853685368537,322.34591992527123 L 356.63566356635664,326.26065131252665 L 358.18581858185814,327.2517225498065 L 362.7362736273627,323.832526781191 L 364.53645364536453,324.32806239983097 L 365.83658365836584,327.1030618642145 L 368.2368236823682,329.08520433877425 L 371.6371637163716,329.03565077691024 L 374.1874187418742,330.0267220141901 L 378.18781878187815,333.8918998395815 L 380.78807880788077,335.3785066955013 L 383.03830383038303,335.7749351904132 L 387.5387538753875,338.15350615988484 L 390.7390739073907,338.30216684547685 L 393.8893889388939,338.79770246411675 L 399.58995899589956,341.02761274799644 L 401.94019401940193,341.1762734335884 L 404.34043404340434,340.6311842530845 L 411.1911191119112,340.0365415107166 L 412.5912591259126,341.02761274799644 L 413.24132413241324,342.06823754714026 L 414.99149914991494,343.0097552225561 L 416.5416541654165,344.89279057338786 L 417.19171917191716,347.51912935217945 L 418.7418741874187,350.04636100724304 L 422.5922592259226,352.4744855385787 L 423.7923792379238,355.64591349787423 L 423.99239923992394,357.77671665802586 L 426.39263926392636,360.2543947512255 L 423.3923392339234,362.63296572069714 L 420.8920892089209,362.63296572069714 L 418.4418441844184,361.4932337978253 L 416.4416441644164,361.14635886477737 L 414.5414541454145,362.4843050351052 L 412.34123412341233,363.77269764356896 L 409.79097909790977,364.3177868240729 L 409.040904090409,366.2008221749046 L 409.39093909390937,369.0253752011522 L 407.5407540754075,369.5704643816561 L 406.09060906090605,369.96689287656807 L 400.69006900690067,369.4218036960641 L 400.29002900290027,369.17403588674415 L 398.38983898389836,367.8360897164164 L 397.48974897489745,364.9619831283048 L 394.989498949895,363.92135832916097 L 392.2892289228923,363.97091189102497 L 390.1390139013901,362.4843050351052 L 387.78877887788775,360.2048411893615 L 384.7884788478848,358.5695736478498 L 378.88788878887885,353.8619852707705 L 375.3875387538754,352.4249319767147 L 370.8370837083708,349.9968074453791 L 368.08680868086805,351.0869858063869 L 365.53655365536554,353.91153883263445 L 362.48624862486247,355.15037787923427 L 357.4357435743574,355.54680637414623 L 354.63546354635463,353.8619852707705 L 354.1854185418542,350.09591456910704 L 351.5351535153515,348.65886127505127 L 345.2845284528453,348.3615399038673 L 339.38393839383934,351.7311821106188 L 336.03360336033603,352.37537841485073 L 332.28322832283226,354.2088602038184 L 324.58245824582457,359.8579662563136 L 321.38213821382135,362.68251928256115 L 318.981898189819,365.2097509376248 L 314.28142814281426,372.49412453163166 L 307.4807480748075,364.9619831283048 L 305.78057805780577,362.18698366392124 L 304.3304330433043,357.132520353794 L 299.5799579957996,348.8570755225072 L 298.1798179817982,342.56377316578016 L 297.0797079707971,339.29323808275666 L 295.37953795379536,337.9057383505649 L 294.97949794979496,336.22091724718916 L 294.67946794679466,335.8244887522772 z" /><path fill-rule="evenodd" fill="#D2EBD9" stroke="#A6A6A6" stroke-width="0.25" opacity="1" d="M 263.6263626362636,281.6624456349334 L 267.47674767476747,279.43253535105373 L 278.7278727872787,280.77048152138156 L 282.57825782578254,280.57226727392555 L 285.97859785978596,279.6307495985097 L 291.87918791879184,277.40083931463005 L 301.9301930193019,276.26110739175823 L 308.13081308130813,273.1887865561907 L 311.1311131113111,273.2383401180547 L 317.23172317231723,271.99950107145486 L 317.7817781778178,272.3463760045028 L 320.2320232023202,274.3285184790625 L 322.2322232223222,275.1213754688864 L 322.68226822682266,276.90530369599014 L 319.8319831983198,278.3423569900459 L 317.8817881788179,279.0856604180058 L 315.981598159816,280.77048152138156 L 314.98149814981497,283.99146304254106 L 315.4315431543154,290.829854579772 L 315.981598159816,294.1994967865235 L 316.031603160316,297.1231569364991 L 316.8816881688169,299.84860283901867 L 317.93179317931794,302.1776202466263 L 317.63176317631763,304.258869844914 L 318.23182318231824,305.74547670083376 L 320.4320432043204,306.4887801287936 L 320.4320432043204,308.37181547962535 L 320.4320432043204,309.06556534572127 L 317.63176317631763,310.899047134689 L 315.4315431543154,311.2954756296009 L 314.8314831483148,312.9802967329767 L 314.78147814781477,315.01199276940036 L 313.78137813781376,317.04368880582405 L 312.1312131213121,319.5709204608877 L 309.9309930993099,321.40440224985537 L 303.88038803880386,323.1883304769591 L 301.58015801580154,325.9633299413427 L 301.030103010301,329.8285077667341 L 299.6799679967997,333.0990428497576 L 297.6797679767977,334.88297107686134 L 294.67946794679466,335.8244887522772 L 288.8788878887889,329.08520433877425 L 287.5287528752875,327.7472581684464 L 287.07870787078707,326.35975843625465 L 286.77867786778677,321.2061880023994 L 286.17861786178617,319.62047402275164 L 283.5283528352835,317.58877798632795 L 282.9282928292829,316.1517246922722 L 282.6282628262826,314.6651178363524 L 281.8281828182818,313.92181440839255 L 279.42794279427943,312.5343146762007 L 277.8777877787779,310.99815425841695 L 276.5276527652765,308.6195832889453 L 273.57735773577355,300.3936920195226 L 271.4771477147715,296.42940707040316 L 270.0770077007701,292.46512212128374 L 269.026902690269,291.02806882722797 L 265.4265426542654,287.5593194967485 L 264.8264826482648,286.02315907896474 L 263.97639763976395,282.4057490628933 L 263.6263626362636,281.6624456349334 z" /><path fill-rule="evenodd" fill="#D2EBD9" stroke="#A6A6A6" stroke-width="0.25" opacity="1" d="M 247.57475747574756,235.03254392091645 L 253.47534753475347,235.72629378701234 L 257.7257725772577,233.29816925567673 L 260.82608260826083,233.29816925567673 L 262.8262826282628,234.88388323532448 L 263.7263726372637,237.4111148903881 L 264.77647764776475,238.89772174630787 L 267.47674767476747,239.3437038030838 L 271.02710271027104,242.26736395305937 L 273.27732773277324,243.4566494377952 L 275.2275227522752,245.3892383504909 L 283.57835783578355,250.19593385129815 L 287.2287228722872,251.18700508857802 L 293.67936793679365,252.4258441351778 L 297.1797179717972,252.5745048207698 L 299.8799879987999,250.24548741316215 L 302.4302430243024,247.2227201394586 L 308.8808880888089,244.89370273185096 L 310.7310731073107,245.14147054117092 L 314.98149814981497,246.38030958777074 L 317.43174317431743,244.645934922531 L 318.63186318631864,242.6142388861073 L 321.8321832183218,242.96111381915526 L 327.83278327832784,244.19995286575508 L 329.8329832983298,244.84414916998696 L 330.03300330033,249.1553090521543 L 330.28302830283025,249.10575549029033 L 328.9328932893289,250.93923727925804 L 324.7324732473247,250.4932552224821 L 321.28212821282125,249.4030768614743 L 318.2818281828183,250.7410230318021 L 316.2816281628163,253.11959400127373 L 316.7316731673167,256.0432541512493 L 317.73177317731773,258.6695929300409 L 317.1817181718172,262.5843243172963 L 317.73177317731773,266.2512878952317 L 318.73187318731874,268.62985886470335 L 317.7817781778178,272.3463760045028 L 317.23172317231723,271.99950107145486 L 311.1311131113111,273.2383401180547 L 308.13081308130813,273.1887865561907 L 301.9301930193019,276.26110739175823 L 291.87918791879184,277.40083931463005 L 285.97859785978596,279.6307495985097 L 282.57825782578254,280.57226727392555 L 278.7278727872787,280.77048152138156 L 267.47674767476747,279.43253535105373 L 263.6263626362636,281.6624456349334 L 263.17631763176314,280.8695886451095 L 260.32603260326033,278.68923192309387 L 259.4259425942594,276.5088752010782 L 256.27562756275626,272.3463760045028 L 255.6255625562556,270.81021558671904 L 254.42544254425442,266.3503950189597 L 253.82538253825382,261.1968245851045 L 251.57515751575156,257.33164675971307 L 250.17501750175015,252.27718344958583 L 249.77497749774977,246.03343465472278 L 249.87498749874987,237.65888269970804 L 247.57475747574756,235.03254392091645 z" /><g><path fill-rule="evenodd" fill="#D2EBD9" stroke="#A6A6A6" stroke-width="0.25" opacity="1" d="M 246.5246524652465,205.44906748811292 L 249.17491749174917,204.45799625083308 L 253.72537253725372,203.7642463847372 L 257.4257425742574,202.87228227118533 L 260.5760576057606,204.2597820033771 L 261.8761876187619,206.7870136584407 L 264.8264826482648,208.62049544740844 L 268.17681768176817,211.24683422620006 L 270.5770577057706,213.67495875753568 L 273.7273727372737,216.00397616514334 L 277.67776777677767,217.78790439224707 L 285.4285428542854,219.27451124816685 L 289.7789778977898,219.4727254956228 L 293.4293429342934,218.28344001088698 L 295.47954795479546,217.04460096428718 L 296.5296529652965,214.9137978041355 L 297.4297429742974,212.2874590253439 L 302.48024802480245,207.13388859148867 L 302.98029802980295,203.31826432796126 L 302.08020802080205,196.03389073395437 L 302.88028802880285,193.7048733263467 L 305.18051805180517,191.97049866110697 L 307.1307130713071,191.92094509924297 L 309.88098809880984,193.1597841458428 L 312.4312431243124,193.50665907889072 L 314.28142814281426,192.9120163365228 L 318.5818581858186,192.4164807178829 L 318.0818081808181,195.8356764864984 L 317.33173317331733,198.11514033224205 L 317.43174317431743,200.64237198730567 L 319.2319231923192,202.47585377627337 L 322.7322732273227,202.07942528136144 L 325.7325732573257,202.3767466525454 L 331.98319831983196,206.14281735420883 L 334.28342834283427,208.8682632567284 L 338.3338333833383,211.99013765415995 L 342.28422842284226,214.1704943761756 L 344.4344434443444,216.74727959310323 L 346.23462346234624,220.21602892358268 L 350.5350535053505,223.68477825406217 L 359.98599859985995,228.49147375486945 L 346.4846484648465,228.68968800232543 L 342.58425842584256,229.3834378684213 L 342.034203420342,231.36558034298102 L 341.8341834183418,234.33879405482057 L 340.48404840484045,237.65888269970804 L 339.8339833983398,240.08700723104369 L 341.38413841384136,242.7133460098353 L 341.58415841584156,245.43879191235487 L 338.9338933893389,246.82629164454667 L 333.38333833383336,248.75888055724238 L 330.28302830283025,249.10575549029033 L 330.03300330033,249.1553090521543 L 329.8329832983298,244.84414916998696 L 327.83278327832784,244.19995286575508 L 321.8321832183218,242.96111381915526 L 318.63186318631864,242.6142388861073 L 317.43174317431743,244.645934922531 L 314.98149814981497,246.38030958777074 L 310.7310731073107,245.14147054117092 L 308.8808880888089,244.89370273185096 L 302.4302430243024,247.2227201394586 L 299.8799879987999,250.24548741316215 L 297.1797179717972,252.5745048207698 L 293.67936793679365,252.4258441351778 L 287.2287228722872,251.18700508857802 L 283.57835783578355,250.19593385129815 L 275.2275227522752,245.3892383504909 L 273.27732773277324,243.4566494377952 L 271.02710271027104,242.26736395305937 L 267.47674767476747,239.3437038030838 L 264.77647764776475,238.89772174630787 L 263.7263726372637,237.4111148903881 L 262.8262826282628,234.88388323532448 L 260.82608260826083,233.29816925567673 L 257.7257725772577,233.29816925567673 L 253.47534753475347,235.72629378701234 L 247.57475747574756,235.03254392091645 L 247.67476747674766,230.57272335315713 L 252.025202520252,230.82049116247708 L 249.97499749974997,228.1445988218215 L 249.47494749474947,226.8562062133577 L 248.62486248624862,225.81558141421385 L 248.42484248424842,224.923617300662 L 249.97499749974997,224.1803138727021 L 249.97499749974997,223.13968907355826 L 248.97489748974897,221.30620728459053 L 251.07510751075105,217.19326164987916 L 252.97529752975296,211.84147696856797 L 250.2250225022502,211.89103053043195 L 248.32483248324831,211.74236984483997 L 247.07470747074706,208.8682632567284 L 247.1247124712471,207.18344215335267 L 248.37483748374837,207.13388859148867 L 249.32493249324932,206.88612078216872 L 250.4250425042504,207.72853133385658 L 250.87508750875085,206.09326379234483 L 250.1250125012501,206.34103160166478 L 248.47484748474847,205.5977281737049 L 246.5246524652465,205.44906748811292 z M 291.67916791679164,234.63611542600452 L 294.5294529452945,233.54593706499668 L 296.6296629662966,232.40620514212486 L 297.8797879787979,230.37450910570115 L 299.1799179917992,226.9057597752217 L 297.6797679767977,225.76602785234985 L 295.3295329532953,225.4687064811659 L 291.87918791879184,224.0812067489741 L 288.1288128812881,224.923617300662 L 284.57845784578456,227.25263470826962 L 281.47814781478144,228.49147375486945 L 281.02810281028104,231.36558034298102 L 282.9282928292829,233.4468299412687 L 287.6787678767877,234.23968693109256 L 291.67916791679164,234.63611542600452 z" /><path fill-rule="evenodd" fill="#D2EBD9" stroke="#A6A6A6" stroke-width="0.25" opacity="1" d="M 233.8233823382338,225.02272442438996 L 231.9231923192319,222.2477249600064 L 233.5233523352335,223.09013551169426 L 237.3237323732373,225.96424209980583 L 239.22392239223922,227.89683101250154 L 240.7240724072407,229.73031280146927 L 243.024302430243,232.0097766472129 L 247.6247624762476,239.49236448867578 L 246.3246324632463,239.09593599376385 L 240.9240924092409,232.20799089466888 L 233.8233823382338,225.02272442438996 z" /></g><path fill-rule="evenodd" fill="#D2EBD9" stroke="#A6A6A6" stroke-width="0.25" opacity="1" d="M 253.37533753375337,149.10666764875344 L 256.5256525652565,150.98970299958518 L 258.57585758575857,146.38122174623385 L 261.02610261026103,145.14238269963406 L 269.026902690269,144.0026507767622 L 273.2273227322732,144.44863283353814 L 277.5277527752775,143.90354365303423 L 279.6779677967797,144.69640064285812 L 281.47814781478144,145.98479325132192 L 284.77847784778476,147.32273942164971 L 287.978797879788,149.60220326739338 L 289.22892289228923,152.37720273177695 L 290.7290729072907,155.05309507243254 L 293.4293429342934,158.670505088504 L 296.57965796579657,161.9410401715275 L 299.8799879987999,164.6664860740471 L 303.68036803680366,168.38300321384654 L 306.980698069807,172.64460953414988 L 312.08120812081205,181.31648286034857 L 317.43174317431743,189.0468385111314 L 318.5818581858186,192.4164807178829 L 314.28142814281426,192.9120163365228 L 312.4312431243124,193.50665907889072 L 309.88098809880984,193.1597841458428 L 307.1307130713071,191.92094509924297 L 305.18051805180517,191.97049866110697 L 302.88028802880285,193.7048733263467 L 302.08020802080205,196.03389073395437 L 302.98029802980295,203.31826432796126 L 302.48024802480245,207.13388859148867 L 297.4297429742974,212.2874590253439 L 296.5296529652965,214.9137978041355 L 295.47954795479546,217.04460096428718 L 293.4293429342934,218.28344001088698 L 289.7789778977898,219.4727254956228 L 285.4285428542854,219.27451124816685 L 277.67776777677767,217.78790439224707 L 273.7273727372737,216.00397616514334 L 270.5770577057706,213.67495875753568 L 268.17681768176817,211.24683422620006 L 264.8264826482648,208.62049544740844 L 261.8761876187619,206.7870136584407 L 260.5760576057606,204.2597820033771 L 257.4257425742574,202.87228227118533 L 253.72537253725372,203.7642463847372 L 249.17491749174917,204.45799625083308 L 246.5246524652465,205.44906748811292 L 245.7245724572457,203.36781788982523 L 247.6247624762476,202.12897884322544 L 246.3246324632463,201.78210391017748 L 245.47454745474545,200.89013979662562 L 243.77437743774377,196.33121210513832 L 243.52435243524351,195.19148018226647 L 243.77437743774377,194.00219469753065 L 242.6242624262426,192.66424852720286 L 241.4241424142414,189.24505275858738 L 242.1242124212421,187.60978521707563 L 242.5242524252425,185.62764274251592 L 241.87418741874185,184.33925013405212 L 240.47404740474047,183.8437145154122 L 239.22392239223922,183.1499646493163 L 238.87388738873886,181.06871505102862 L 240.27402740274027,179.43344750951687 L 242.47424742474246,177.55041215868513 L 242.87428742874286,176.21246598835734 L 238.87388738873886,176.21246598835734 L 238.87388738873886,175.2213947510775 L 243.62436243624362,173.98255570447768 L 244.37443744374437,173.18969871465382 L 243.82438243824382,171.65353829687004 L 242.27422742274226,171.1580026782301 L 240.37403740374037,170.91023486891015 L 238.87388738873886,170.11737787908626 L 238.27382738273826,168.92809239435044 L 237.9237923792379,167.19371772911072 L 238.27382738273826,165.409789502007 L 239.77397739773977,164.17095045540717 L 241.17411741174115,164.51782538845512 L 242.1242124212421,166.0044322443749 L 243.27432743274326,167.04505704351874 L 245.37453745374535,166.15309292996687 L 245.77457745774575,164.91425388336705 L 245.5245524552455,161.2968438672956 L 246.17461746174615,160.15711194442378 L 247.87478747874786,160.10755838255977 L 248.77487748774877,161.49505811475157 L 249.32493249324932,163.17987921812733 L 249.97499749974997,164.17095045540717 L 253.17531753175317,163.67541483676723 L 253.72537253725372,160.99952249611164 L 252.37523752375236,157.9272016605441 L 249.97499749974997,156.1928269953044 L 251.9251925192519,154.16113095888068 L 252.87528752875286,152.32764916991297 L 253.37533753375337,149.10666764875344 z" /><path fill-rule="evenodd" fill="#D2EBD9" stroke="#A6A6A6" stroke-width="0.25" opacity="1" d="M 286.1286128612861,83.79507311201132 L 290.32903290329034,94.25087466531375 L 290.12901290129014,98.46292742375311 L 288.6788678867887,102.27855168728053 L 288.7788778877888,105.94551526521597 L 291.67916791679164,116.74819175156634 L 291.7291729172917,121.6044408142376 L 291.4291429142914,125.17229726844506 L 292.77927792779275,129.18613577942847 L 293.4293429342934,132.8530993573639 L 294.3294329432943,135.33077745056355 L 303.4303430343034,134.7856882700596 L 307.4807480748075,136.2227415641154 L 310.7310731073107,139.84015158018684 L 315.5315531553155,142.1691689877945 L 322.2322232223222,138.74997321917903 L 325.6325632563256,141.77274049288255 L 329.28292829282924,142.6647046064344 L 333.18331833183316,138.15533047681112 L 336.1836183618362,135.33077745056355 L 340.5340534053405,138.74997321917903 L 342.68426842684266,138.898633904771 L 345.3845384538454,138.40309828613107 L 347.3847384738474,138.65086609545102 L 346.73467346734674,141.17809775051464 L 343.58435843584357,144.44863283353814 L 342.08420842084206,146.7776502411458 L 341.38413841384136,150.94014943772117 L 342.58425842584256,155.89550562412043 L 346.93469346934694,159.61202276391987 L 349.1349134913491,162.58523647575942 L 349.1349134913491,168.33344965198253 L 350.68506850685066,175.07273406548552 L 349.58495849584955,180.12719737561275 L 350.03500350035,183.59594670609223 L 353.7853785378538,185.67719630437992 L 355.13551355135513,188.15487439757953 L 354.035403540354,191.22719523314709 L 354.4854485448545,194.15085538312263 L 358.4358435843584,196.72764060005025 L 360.4360436043604,198.70978307460996 L 363.7363736373637,200.79103267289764 L 371.7371737173717,202.77317514745732 L 371.5371537153715,204.01201419405714 L 370.1370137013701,207.92674558131256 L 366.88668866886684,210.55308436010415 L 364.0864086408641,212.38656614907188 L 363.5863586358636,214.41826218549556 L 364.23642364236423,216.05352972700732 L 367.1367136713671,217.34192233547114 L 368.6368636863686,219.86915399053476 L 367.68676867686764,222.8423677023743 L 367.3367336733673,223.83343893965414 L 365.1865186518652,226.8066526514937 L 362.2362236223622,227.94638457436554 L 359.98599859985995,228.49147375486945 L 350.5350535053505,223.68477825406217 L 346.23462346234624,220.21602892358268 L 344.4344434443444,216.74727959310323 L 342.28422842284226,214.1704943761756 L 338.3338333833383,211.99013765415995 L 334.28342834283427,208.8682632567284 L 331.98319831983196,206.14281735420883 L 325.7325732573257,202.3767466525454 L 322.7322732273227,202.07942528136144 L 319.2319231923192,202.47585377627337 L 317.43174317431743,200.64237198730567 L 317.33173317331733,198.11514033224205 L 318.0818081808181,195.8356764864984 L 318.5818581858186,192.4164807178829 L 317.43174317431743,189.0468385111314 L 312.08120812081205,181.31648286034857 L 306.980698069807,172.64460953414988 L 303.68036803680366,168.38300321384654 L 299.8799879987999,164.6664860740471 L 296.57965796579657,161.9410401715275 L 293.4293429342934,158.670505088504 L 290.7290729072907,155.05309507243254 L 289.22892289228923,152.37720273177695 L 287.978797879788,149.60220326739338 L 284.77847784778476,147.32273942164971 L 281.47814781478144,145.98479325132192 L 279.6779677967797,144.69640064285812 L 277.5277527752775,143.90354365303423 L 273.2273227322732,144.44863283353814 L 269.026902690269,144.0026507767622 L 261.02610261026103,145.14238269963406 L 258.57585758575857,146.38122174623385 L 256.5256525652565,150.98970299958518 L 253.37533753375337,149.10666764875344 L 254.42544254425442,142.1691689877945 L 254.82548254825483,141.17809775051464 L 256.27562756275626,138.70041965731502 L 256.57565756575656,137.5111341725792 L 257.2257225722572,136.81738430648332 L 257.9257925792579,136.3714022497074 L 258.17581758175817,135.67765238361147 L 258.025802580258,134.48836689887565 L 257.2257225722572,132.60533154804395 L 257.17571757175716,131.11872469212418 L 257.7257725772577,128.8392608463805 L 260.0760076007601,123.6361368506613 L 262.57625762576254,119.72140546340589 L 263.9263926392639,116.79774531343034 L 264.7264726472647,113.87408516345478 L 264.1264126412641,111.7928355651671 L 263.026302630263,109.41426459569546 L 263.87638763876384,107.03569362622382 L 265.6265626562656,104.85533690420814 L 270.22702270227023,100.59373058390479 L 272.9272927292729,97.47185618647326 L 274.87748774877485,93.80489260853781 L 275.67756775677566,90.08837546873838 L 269.1269126912691,97.9178382432492 L 275.3275327532753,89.14685779332251 L 281.97819781978194,83.9437337976033 L 283.07830783078305,83.9932873594673 L 284.028402840284,84.34016229251525 L 284.8284828482848,84.38971585437923 L 286.1286128612861,83.79507311201132 z" /><path fill-rule="evenodd" fill="#D2EBD9" stroke="#A6A6A6" stroke-width="0.25" opacity="1" d="M 348.4348434843484,48.21561569366471 L 346.13461346134613,48.06695500807273 L 340.9340934093409,50.44552597754437 L 338.58385838583854,52.97275763260799 L 336.93369336933694,55.99552490631153 L 336.63366336633663,59.06784574187907 L 336.73367336733673,61.99150589185462 L 335.1335133513351,64.27096973759828 L 333.38333833383336,65.11338028928616 L 331.98319831983196,67.09552276384585 L 332.28322832283226,69.4245401714535 L 333.3333333333333,71.4066826460132 L 336.03360336033603,72.99239662566096 L 337.33373337333734,74.97453910022067 L 334.9334933493349,77.79909212646824 L 333.58335833583357,80.37587734339584 L 333.58335833583357,83.10132324591544 L 333.08330833083306,86.71873326198688 L 332.033203320332,89.84060765941841 L 331.4331433143314,93.16069630430592 L 331.8331833183318,100.64328414576877 L 333.38333833383336,104.50846197116019 L 335.2835283528353,107.82855061604769 L 336.4836483648365,111.19819282279919 L 339.2339233923392,113.47765666854283 L 343.1343134313431,114.32006722023071 L 345.5845584558456,115.7075669524225 L 350.5350535053505,117.83837011257418 L 351.58515851585156,120.3656017676378 L 351.68516851685166,122.9919405464294 L 353.08530853085307,130.02854633111633 L 350.2350235023502,131.91158168194804 L 347.53475347534754,132.55577798617995 L 347.13471347134714,135.0334560793796 L 345.3845384538454,138.40309828613107 L 342.68426842684266,138.898633904771 L 340.5340534053405,138.74997321917903 L 336.1836183618362,135.33077745056355 L 333.18331833183316,138.15533047681112 L 329.28292829282924,142.6647046064344 L 325.6325632563256,141.77274049288255 L 322.2322232223222,138.74997321917903 L 315.5315531553155,142.1691689877945 L 310.7310731073107,139.84015158018684 L 307.4807480748075,136.2227415641154 L 303.4303430343034,134.7856882700596 L 294.3294329432943,135.33077745056355 L 293.4293429342934,132.8530993573639 L 292.77927792779275,129.18613577942847 L 291.4291429142914,125.17229726844506 L 291.7291729172917,121.6044408142376 L 291.67916791679164,116.74819175156634 L 288.7788778877888,105.94551526521597 L 288.6788678867887,102.27855168728053 L 290.12901290129014,98.46292742375311 L 290.32903290329034,94.25087466531375 L 286.1286128612861,83.79507311201132 L 287.4787478747875,83.00221612218745 L 289.92899289928994,80.87141296203576 L 292.2292229222922,79.28569898238801 L 297.3297329732973,76.80802088918838 L 299.5799579957996,75.3709675951326 L 299.92999299929994,74.67721772903671 L 300.4300430043004,72.794182378205 L 303.18031803180315,71.25802196042122 L 307.33073307330733,67.98748687739771 L 308.3808380838084,66.55043358334194 L 310.58105810581054,61.4959702732147 L 313.4313431343134,57.97766738087123 L 314.2314231423142,56.540614086815445 L 324.4324432443244,30.178119175171435 L 324.1324132413241,28.64195875738767 L 322.88228822882286,26.858030530283937 L 322.58225822582256,25.222762988772185 L 322.58225822582256,19.77187118373301 L 322.38223822382236,17.046425281213423 L 322.58225822582256,15.80758623461361 L 325.3825382538254,11.099997857534321 L 324.78247824782477,7.532141403326861 L 324.88248824882487,6.342855918591041 L 326.73267326732673,4.75714193894328 L 328.4828482848285,4.311159882167348 L 329.68296829682964,5.5499989287671605 L 329.8329832983298,8.919641135518651 L 333.88338833883387,7.928569898238801 L 337.8837883788379,6.095088109271078 L 341.3341334133413,3.468749330479475 L 343.6343634363436,0.0 L 343.8343834383438,3.022767273703543 L 343.08430843084307,7.680802088918838 L 343.034303430343,11.942408409222194 L 345.0845084508451,13.82544376005391 L 346.7846784678468,15.113836368517713 L 348.08480848084804,18.136603642221257 L 348.88488848884884,21.902674343884687 L 348.4348434843484,48.21561569366471 z" /><g><path fill-rule="evenodd" fill="#D2EBD9" stroke="#A6A6A6" stroke-width="0.25" opacity="1" d="M 429.4429442944294,222.59459989305432 L 427.6427642764276,223.13968907355826 L 422.14221422142214,220.46379673290267 L 420.1920192019202,217.68879726851907 L 421.04210421042103,214.1704943761756 L 421.34213421342133,210.65219148383213 L 419.49194919491947,207.18344215335267 L 417.79177917791776,204.50754981269708 L 416.39163916391635,201.13790760594557 L 415.1415141514151,196.82674772377823 L 413.2913291329133,192.9120163365228 L 410.8410841084108,186.17273192301985 L 409.2409240924092,183.1004110874523 L 409.29092909290927,179.63166175697285 L 408.79087908790876,176.46023379767732 L 405.49054905490544,174.57719844684559 L 401.3401340134013,175.1718411892135 L 395.33953395339535,180.07764381374878 L 390.6390639063906,188.25398152130754 L 387.7387738773877,189.0468385111314 L 384.53845384538454,189.49282056790733 L 381.988198819882,191.97049866110697 L 378.8378837883788,193.40755195516275 L 374.8874887488749,194.84460524921852 L 372.28722872287227,199.0071044457939 L 371.7371737173717,202.77317514745732 L 363.7363736373637,200.79103267289764 L 360.4360436043604,198.70978307460996 L 358.4358435843584,196.72764060005025 L 354.4854485448545,194.15085538312263 L 354.035403540354,191.22719523314709 L 355.13551355135513,188.15487439757953 L 353.7853785378538,185.67719630437992 L 350.03500350035,183.59594670609223 L 349.58495849584955,180.12719737561275 L 350.68506850685066,175.07273406548552 L 349.1349134913491,168.33344965198253 L 349.1349134913491,162.58523647575942 L 346.93469346934694,159.61202276391987 L 342.58425842584256,155.89550562412043 L 341.38413841384136,150.94014943772117 L 342.08420842084206,146.7776502411458 L 343.58435843584357,144.44863283353814 L 346.73467346734674,141.17809775051464 L 347.3847384738474,138.65086609545102 L 345.3845384538454,138.40309828613107 L 347.13471347134714,135.0334560793796 L 347.53475347534754,132.55577798617995 L 350.2350235023502,131.91158168194804 L 353.08530853085307,130.02854633111633 L 351.68516851685166,122.9919405464294 L 351.58515851585156,120.3656017676378 L 350.5350535053505,117.83837011257418 L 345.5845584558456,115.7075669524225 L 343.1343134313431,114.32006722023071 L 339.2339233923392,113.47765666854283 L 336.4836483648365,111.19819282279919 L 335.2835283528353,107.82855061604769 L 333.38333833383336,104.50846197116019 L 331.8331833183318,100.64328414576877 L 331.4331433143314,93.16069630430592 L 332.033203320332,89.84060765941841 L 333.08330833083306,86.71873326198688 L 333.58335833583357,83.10132324591544 L 333.58335833583357,80.37587734339584 L 334.9334933493349,77.79909212646824 L 337.33373337333734,74.97453910022067 L 336.03360336033603,72.99239662566096 L 333.3333333333333,71.4066826460132 L 332.28322832283226,69.4245401714535 L 331.98319831983196,67.09552276384585 L 333.38333833383336,65.11338028928616 L 335.1335133513351,64.27096973759828 L 336.73367336733673,61.99150589185462 L 336.63366336633663,59.06784574187907 L 336.93369336933694,55.99552490631153 L 338.58385838583854,52.97275763260799 L 340.9340934093409,50.44552597754437 L 346.13461346134613,48.06695500807273 L 348.4348434843484,48.21561569366471 L 348.28482848284824,55.698203535127575 L 349.1349134913491,63.92409480455033 L 349.8349834983498,66.8477549545259 L 354.73547354735473,75.3709675951326 L 357.1857185718572,83.9437337976033 L 358.1358135813581,90.18748259246637 L 359.78597859785975,93.25980342803389 L 363.8863886388639,98.36382030002513 L 365.23652365236524,100.94060551695273 L 367.88678867886784,107.7789970541837 L 368.98689868986895,109.21605034823948 L 370.3370337033703,109.90980021433538 L 375.83758375837584,115.95533476174246 L 384.03840384038403,121.45578012864563 L 386.48864886488644,123.73524397438929 L 388.88888888888886,126.80756480995682 L 389.98899889988996,128.59149303706056 L 390.6390639063906,130.2267605785723 L 390.68906890689067,131.66381387262808 L 390.38903890389037,134.8847953937876 L 390.6390639063906,136.2227415641154 L 392.2892289228923,138.15533047681112 L 399.38993899389936,144.1513114623542 L 400.0400040004,145.53881119454599 L 405.29052905290524,153.12050615973683 L 406.3406340634063,156.09371987157638 L 407.89078907890786,162.78345072321537 L 410.3410341034103,167.09461060538274 L 411.1911191119112,170.0678243172223 L 411.6911691169117,171.2075562400941 L 412.7912791279128,172.34728816296592 L 415.2415241524152,174.13121639006965 L 416.29162916291625,175.2213947510775 L 418.79187918791877,180.27585806120473 L 419.29192919291927,185.231214247604 L 419.19191919191917,190.3847846814592 L 419.9419941994199,196.23210498141032 L 420.992099209921,199.35397937884184 L 422.34223422342234,201.83165747204148 L 425.9425942594259,206.63835297284874 L 427.09270927092706,209.11603106604838 L 429.4429442944294,222.59459989305432 z" /><path fill-rule="evenodd" fill="#D2EBD9" stroke="#A6A6A6" stroke-width="0.25" opacity="1" d="M 440.6940694069407,20.267406802372935 L 440.24402440244023,21.55579941083674 L 440.3940394039404,23.042406266756515 L 441.0941094109411,24.826334493860244 L 441.0941094109411,25.71829860741211 L 431.0931093109311,25.71829860741211 L 431.993199319932,24.628120246404276 L 432.54325432543254,23.438834761668456 L 432.54325432543254,22.15044215320465 L 431.94319431943194,20.76294242101286 L 433.9433943394339,18.879907070181144 L 437.39373937393736,16.45178253884551 L 441.14411441144114,14.915622121061745 L 443.9443944394439,15.80758623461361 L 444.09440944094405,17.1950859668054 L 443.044304430443,18.483478575269203 L 440.6940694069407,20.267406802372935 z" /><path fill-rule="evenodd" fill="#D2EBD9" stroke="#A6A6A6" stroke-width="0.25" opacity="1" d="M 426.89268926892686,109.41426459569546 L 428.3428342834283,106.88703294063184 L 429.6929692969297,106.3914973219919 L 429.9429942994299,106.09417595080795 L 431.64316431643164,105.846408141488 L 431.6931693169317,106.44105088385591 L 431.4931493149315,107.23390787367978 L 431.6931693169317,108.12587198723165 L 432.14321432143214,108.91872897705552 L 432.54325432543254,110.95042501347922 L 432.1932193219322,111.94149625075907 L 431.5931593159316,112.23881762194303 L 426.49264926492646,111.89194268889507 L 426.19261926192615,111.54506775584713 L 426.89268926892686,109.41426459569546 z" /></g><path fill-rule="evenodd" fill="#D2EBD9" stroke="#A6A6A6" stroke-width="0.25" opacity="1" d="M 467.4967496749675,353.31689609026654 L 461.2961296129613,354.2088602038184 L 451.84518451845184,359.8084126944496 L 449.8949894989499,359.36243063767364 L 448.6948694869487,356.3396633639701 L 446.19461946194616,354.01064595636245 L 442.84428442844285,354.06019951822645 L 438.6438643864386,355.64591349787423 L 430.94309430943093,357.5785024105699 L 427.6427642764276,359.2137699520817 L 426.39263926392636,360.2543947512255 L 423.99239923992394,357.77671665802586 L 423.7923792379238,355.64591349787423 L 422.5922592259226,352.4744855385787 L 418.7418741874187,350.04636100724304 L 417.19171917191716,347.51912935217945 L 416.5416541654165,344.89279057338786 L 414.99149914991494,343.0097552225561 L 413.24132413241324,342.06823754714026 L 412.5912591259126,341.02761274799644 L 411.1911191119112,340.0365415107166 L 411.8911891189119,336.8155599895571 L 411.991199119912,334.98207820058934 L 409.3409340934093,333.7432391539895 L 405.9405940594059,332.6035072311177 L 404.0904090409041,331.16645393706193 L 404.1904190419042,326.0624370650707 L 405.6405640564056,324.4767230854229 L 408.29082908290826,322.7919019820472 L 409.040904090409,320.46288457443956 L 408.9408940894089,318.4807420998798 L 404.84048404840485,313.17851098043263 L 402.24022402240223,307.72761917539344 L 401.040104010401,303.86244135000203 L 402.0902090209021,302.1280666847623 L 402.990299029903,299.84860283901867 L 402.6902690269027,295.98342501362725 L 401.8901890189019,290.9289617035 L 400.3400340034003,286.4195875738767 L 398.38983898389836,282.1084276917093 L 397.08970897089705,278.49101767563786 L 396.98969896989695,276.6079823248062 L 394.0894089408941,271.8508403858629 L 395.13951395139514,269.7695907875752 L 396.78967896789675,267.7378947511515 L 397.38973897389735,264.91334172490394 L 397.8397839783978,261.2959317088325 L 397.2397239723972,257.0343253885291 L 395.58955895589554,250.5428087843461 L 394.7894789478948,247.9660235674185 L 392.4892489248925,246.38030958777074 L 388.58885888588856,244.94325629371497 L 386.58865886588654,242.31691751492335 L 385.88858885888584,237.956204070892 L 383.1883188318832,235.5280795395564 L 379.38793879387936,235.42897241582838 L 375.63756375637564,234.58656186414052 L 372.987298729873,232.6044193895808 L 372.2372237223722,230.52316979129313 L 371.4371437143714,229.18522362096533 L 372.3372337233723,226.0137956616698 L 370.7370737073707,224.57674236761403 L 367.68676867686764,222.8423677023743 L 368.6368636863686,219.86915399053476 L 367.1367136713671,217.34192233547114 L 364.23642364236423,216.05352972700732 L 363.5863586358636,214.41826218549556 L 364.0864086408641,212.38656614907188 L 366.88668866886684,210.55308436010415 L 370.1370137013701,207.92674558131256 L 371.5371537153715,204.01201419405714 L 371.7371737173717,202.77317514745732 L 372.28722872287227,199.0071044457939 L 374.8874887488749,194.84460524921852 L 378.8378837883788,193.40755195516275 L 381.988198819882,191.97049866110697 L 384.53845384538454,189.49282056790733 L 387.7387738773877,189.0468385111314 L 390.6390639063906,188.25398152130754 L 395.33953395339535,180.07764381374878 L 401.3401340134013,175.1718411892135 L 405.49054905490544,174.57719844684559 L 408.79087908790876,176.46023379767732 L 409.29092909290927,179.63166175697285 L 409.2409240924092,183.1004110874523 L 410.8410841084108,186.17273192301985 L 413.2913291329133,192.9120163365228 L 415.1415141514151,196.82674772377823 L 416.39163916391635,201.13790760594557 L 417.79177917791776,204.50754981269708 L 419.49194919491947,207.18344215335267 L 421.34213421342133,210.65219148383213 L 421.04210421042103,214.1704943761756 L 420.1920192019202,217.68879726851907 L 422.14221422142214,220.46379673290267 L 427.6427642764276,223.13968907355826 L 429.4429442944294,222.59459989305432 L 435.043504350435,255.29995072328938 L 437.5437543754375,260.3048604715526 L 441.5941594159416,280.77048152138156 L 444.8444844484448,289.44235484758025 L 446.49464946494646,297.767353240731 L 446.69466946694666,301.0378883237545 L 447.09470947094707,302.8218165508582 L 448.9448944894489,305.74547670083376 L 449.4949494949495,307.5789584898015 L 449.4949494949495,309.2637795931772 L 447.59475947594757,311.59279700078486 L 446.69466946694666,314.26868934144045 L 446.59465946594656,316.6968138727761 L 447.3447344734473,318.9267241566558 L 451.14511451145114,324.4767230854229 L 452.59525952595254,330.72047188028597 L 454.045404540454,333.7927927158535 L 455.29552955295526,335.03163176245334 L 458.6958695869587,337.60841697938093 L 459.14591459145913,338.35172040734085 L 458.7958795879588,339.44189876834866 L 459.54595459545953,340.43297000562853 L 461.8961896189619,342.3160053564602 L 465.09650965096506,346.77582592421953 L 468.04680468046803,349.64993251233113 L 468.7968796879688,350.88877155893096 L 468.6968696869687,351.43386073943486 L 467.4967496749675,353.31689609026654 z" /><path fill-rule="evenodd" fill="#D2EBD9" stroke="#A6A6A6" stroke-width="0.25" opacity="1" d="M 495.5495549554955,450.9869665241958 L 495.1495149514951,451.5320557046997 L 493.4493449344934,452.47357338011557 L 490.44904490449045,451.87893063774766 L 486.1486148614861,449.599466792004 L 484.29842984298426,448.3110741835402 L 478.5978597859786,447.1713422606684 L 477.84778477847783,445.6351818428846 L 479.14791479147914,443.8512536157809 L 478.2978297829783,441.91866470308514 L 475.9475947594759,440.43205784716537 L 474.1474147414741,439.7878615429335 L 472.29722972297225,438.79679030565364 L 470.5970597059706,436.66598714550196 L 469.04690469046903,434.1387554904383 L 466.4466446644664,432.30527370147064 L 463.29632963296325,431.31420246419077 L 456.4456445644564,427.2012568294794 L 449.74497449744973,424.4758109269598 L 447.8447844784478,423.336079004088 L 445.39453945394536,421.30438296766425 L 444.4444444444444,418.77715131260067 L 444.49444944494445,416.646348152449 L 445.2445244524452,413.9704558117934 L 443.2443244324432,412.5829560796016 L 439.84398439843983,410.89813497622583 L 437.3437343734373,409.1637603109861 L 435.39353935393535,407.4789392076104 L 432.8932893289329,406.5374215321945 L 429.9429942994299,405.69501098050665 L 428.39283928392837,405.2985824855947 L 425.6425642564256,403.266886449171 L 427.2427242724272,396.92403053057996 L 426.09260926092605,394.9914416178843 L 424.3424342434243,394.34724531365237 L 422.6922692269227,394.6445666848363 L 420.6920692069207,393.85170969501246 L 420.3920392039204,393.05885270518854 L 418.5418541854185,387.3601930908294 L 418.8418841884188,385.08072924508576 L 416.89168916891686,382.1075155332462 L 409.7409740974097,374.9222490629673 L 407.5407540754075,369.5704643816561 L 409.39093909390937,369.0253752011522 L 409.040904090409,366.2008221749046 L 409.79097909790977,364.3177868240729 L 412.34123412341233,363.77269764356896 L 414.5414541454145,362.4843050351052 L 416.4416441644164,361.14635886477737 L 418.4418441844184,361.4932337978253 L 420.8920892089209,362.63296572069714 L 423.3923392339234,362.63296572069714 L 426.39263926392636,360.2543947512255 L 427.6427642764276,359.2137699520817 L 430.94309430943093,357.5785024105699 L 438.6438643864386,355.64591349787423 L 442.84428442844285,354.06019951822645 L 446.19461946194616,354.01064595636245 L 448.6948694869487,356.3396633639701 L 449.8949894989499,359.36243063767364 L 451.84518451845184,359.8084126944496 L 461.2961296129613,354.2088602038184 L 467.4967496749675,353.31689609026654 L 466.89668966896687,354.2584137656824 L 467.9467946794679,356.4883240495621 L 468.1968196819682,359.7588591325856 L 468.5968596859686,361.3941266740973 L 469.84698469846984,363.92135832916097 L 469.64696469646964,367.4396612215044 L 469.74697469746974,369.0749287630162 L 473.3473347334733,373.18787439772757 L 476.4976497649765,375.0213561866953 L 477.7977797779778,376.2601952332951 L 477.4977497749775,377.6476949654869 L 476.6476647664766,379.03519469767866 L 476.2476247624762,380.57135511546244 L 476.4976497649765,381.81019416206226 L 479.54795479547954,383.544568827302 L 479.94799479947994,386.41867541541353 L 479.24792479247924,389.73876406030104 L 477.8977897789779,392.3155492772287 L 478.84788478847884,393.00929914332454 L 480.1980198019802,393.4057276382365 L 481.7481748174817,393.60394188569245 L 483.39833983398336,393.4057276382365 L 483.39833983398336,394.34724531365237 L 479.4979497949795,395.0409951797483 L 476.19761976197617,397.12224477803596 L 474.4474447444744,400.29367273733146 L 474.3474347434743,404.40661837204283 L 475.047504750475,406.4383144084665 L 475.1475147514751,408.47001044489025 L 473.49734973497345,416.349026781265 L 473.3473347334733,420.16465104479244 L 473.6473647364736,424.02982887018385 L 474.39743974397436,427.99411381930327 L 475.59755975597557,431.4133095879188 L 477.0977097709771,433.84143411925436 L 486.6486648664866,445.4865211572926 L 489.44894489448944,447.91464568862824 L 495.5495549554955,450.9869665241958 z" /><path fill-rule="evenodd" fill="#D2EBD9" stroke="#A6A6A6" stroke-width="0.25" opacity="1" d="M 467.2467246724672,474.0293727909523 L 467.0967096709671,467.8847311198172 L 467.1967196719672,466.34857070203344 L 469.04690469046903,464.36642822747376 L 468.84688468846883,463.12758918087394 L 467.5967596759676,462.1860715054581 L 465.5465546554655,461.3932145156342 L 462.89628962896285,461.74008944868217 L 457.4957495749575,464.0195532944258 L 455.99559955995596,465.1097316554337 L 454.1454145414541,466.8441063206734 L 452.6452645264526,468.62803454777713 L 451.7951795179518,470.41196277488086 L 450.34503450345034,472.2949981257126 L 450.04500450045003,473.78160498163237 L 451.64516451645164,474.8717833426402 L 455.3455345534553,476.5070508841519 L 457.5957595759576,477.9936577400717 L 456.39563956395637,478.8360682917596 L 455.8455845584558,479.48026459599146 L 455.79557955795576,480.57044295699933 L 456.8456845684568,482.15615693664705 L 456.9456945694569,482.602138993423 L 455.79557955795576,482.89946036460697 L 454.2454245424542,482.701246117151 L 452.24522452245225,482.1066033747831 L 450.44504450445044,485.9222276383105 L 445.29452945294526,493.10749410858944 L 443.044304430443,494.84186877382916 L 437.49374937493747,495.4860650780611 L 431.8931893189319,494.19767246959725 L 426.99269926992696,491.7199943763976 L 423.64236423642365,488.6476735408301 L 421.992199219922,485.67445982899056 L 420.94209420942093,483.0481210501989 L 420.5420542054205,482.602138993423 L 419.5419541954195,482.1066033747831 L 418.6418641864186,481.3632999468232 L 418.19181918191816,479.9758002146314 L 419.7419741974197,478.98472897735155 L 422.6922692269227,476.011515265512 L 424.5424542454245,473.08785511553646 L 422.7922792279228,472.39410524944054 L 421.992199219922,473.13740867740046 L 421.3921392139214,474.57446197145623 L 420.3920392039204,475.912408141784 L 418.59185918591857,476.5070508841519 L 417.041704170417,476.5070508841519 L 415.89158915891585,476.25928307483196 L 414.99149914991494,475.81330101805605 L 411.84118411841183,473.18696223926446 L 409.39093909390937,472.2454445638486 L 403.64036403640364,471.2048197647047 L 405.79057905790575,468.8262487952331 L 408.99089908990896,467.2900883774493 L 411.44114411441143,465.75392795966553 L 413.04130413041304,464.26732110374576 L 415.1415141514151,463.77178548510585 L 417.29172917291726,462.63205356223403 L 419.9419941994199,458.8164292987066 L 420.1420142014201,456.78473326228294 L 419.6419641964196,454.60437654026725 L 417.9417941794179,452.8204483131635 L 411.2911291129113,450.8878594004678 L 409.39093909390937,448.8066098021801 L 409.49094909490947,445.6847354047486 L 408.9408940894089,442.71152169290906 L 409.49094909490947,440.1347364759814 L 412.24122412241223,437.5083976971898 L 412.74127412741274,434.88205891839823 L 412.0912091209121,431.4628631497827 L 414.69146914691464,430.02580985572695 L 418.49184918491846,430.22402410318296 L 421.04210421042103,429.1833993040391 L 425.3425342534253,422.89009694731203 L 424.59245924592454,420.21420460665644 L 422.992299229923,418.3311692558247 L 423.3923392339234,415.6552769151691 L 424.1424142414241,412.83072388892157 L 428.69286928692867,408.5195640067542 L 429.9429942994299,405.69501098050665 L 432.8932893289329,406.5374215321945 L 435.39353935393535,407.4789392076104 L 437.3437343734373,409.1637603109861 L 439.84398439843983,410.89813497622583 L 443.2443244324432,412.5829560796016 L 445.2445244524452,413.9704558117934 L 444.49444944494445,416.646348152449 L 444.4444444444444,418.77715131260067 L 445.39453945394536,421.30438296766425 L 447.8447844784478,423.336079004088 L 449.74497449744973,424.4758109269598 L 456.4456445644564,427.2012568294794 L 463.29632963296325,431.31420246419077 L 466.4466446644664,432.30527370147064 L 469.04690469046903,434.1387554904383 L 470.5970597059706,436.66598714550196 L 472.29722972297225,438.79679030565364 L 474.1474147414741,439.7878615429335 L 475.9475947594759,440.43205784716537 L 478.2978297829783,441.91866470308514 L 479.14791479147914,443.8512536157809 L 477.84778477847783,445.6351818428846 L 478.5978597859786,447.1713422606684 L 484.29842984298426,448.3110741835402 L 486.1486148614861,449.599466792004 L 490.44904490449045,451.87893063774766 L 493.4493449344934,452.47357338011557 L 495.1495149514951,451.5320557046997 L 495.5495549554955,450.9869665241958 L 500.0,453.1673232462115 L 498.94989498949894,454.45571585467525 L 497.04970497049703,455.3972335300911 L 494.89948994899487,455.991876272459 L 493.09930993099306,456.19009051991503 L 489.4989498949895,455.64500133941107 L 488.44884488448844,456.14053695805103 L 487.0987098709871,458.2217865563387 L 485.8485848584858,462.63205356223403 L 485.49854985498547,465.3079459028896 L 485.69856985698567,466.7945527588094 L 486.5486548654865,468.67758810964114 L 484.89848984898487,469.71821290878495 L 467.2467246724672,474.0293727909523 z M 440.84408440844084,483.3949959832469 L 442.7942794279428,482.75079967901496 L 443.8443844384438,481.66062131800714 L 443.5443544354435,479.7775859671754 L 443.79437943794375,478.0432113019357 L 445.4445444544454,474.57446197145623 L 446.69466946694666,469.420891537601 L 448.6948694869487,467.68651687236127 L 449.4949494949495,465.40705302661763 L 448.6948694869487,462.0374108198661 L 448.7448744874487,459.41107204107453 L 451.0951095109511,458.1226794326107 L 452.99529952995294,456.487411891099 L 451.995199519952,454.3070551690833 L 448.0948094809481,449.401252544548 L 445.99459945994596,448.50928843099615 L 442.99429942994294,448.55884199286015 L 440.54405440544053,449.10393117336406 L 438.6938693869387,450.73919871487584 L 436.7436743674367,452.9691089987555 L 433.79337933793374,455.29812640636317 L 431.7931793179318,458.7173221749786 L 432.5932593259326,462.53294643850603 L 431.993199319932,465.7043743978016 L 429.042904290429,468.52892742404913 L 427.09270927092706,470.6597305842008 L 427.9427942794279,472.1958910019846 L 428.8428842884288,473.4347300485844 L 429.9429942994299,475.76374745619205 L 431.74317431743174,477.79544349261573 L 437.29372937293726,481.11553213750324 L 438.7938793879388,482.35437118410306 L 440.84408440844084,483.3949959832469 z" /><path fill-rule="evenodd" fill="#D2EBD9" stroke="#A6A6A6" stroke-width="0.25" opacity="1" d="M 457.5957595759576,477.9936577400717 L 455.3455345534553,476.5070508841519 L 451.64516451645164,474.8717833426402 L 450.04500450045003,473.78160498163237 L 450.34503450345034,472.2949981257126 L 451.7951795179518,470.41196277488086 L 452.6452645264526,468.62803454777713 L 454.1454145414541,466.8441063206734 L 455.99559955995596,465.1097316554337 L 457.4957495749575,464.0195532944258 L 462.89628962896285,461.74008944868217 L 465.5465546554655,461.3932145156342 L 467.5967596759676,462.1860715054581 L 468.84688468846883,463.12758918087394 L 469.04690469046903,464.36642822747376 L 467.1967196719672,466.34857070203344 L 467.0967096709671,467.8847311198172 L 467.2467246724672,474.0293727909523 L 461.4961496149615,475.4168725231441 L 459.54595459545953,476.11062238924 L 458.2958295829583,477.4981221214318 L 457.5957595759576,477.9936577400717 z" /><path fill-rule="evenodd" fill="#D2EBD9" stroke="#A6A6A6" stroke-width="0.25" opacity="1" d="M 15.4015401540154,382.35528334256617 L 14.2014201420142,379.5307303163186 L 13.65136513651365,375.0709097485593 L 10.1010101010101,374.67448125364734 L 5.000500050005,377.99456989853485 L 0.35003500350035,375.6655524909272 L 0.45004500450045004,374.57537412991934 L 1.3501350135013501,372.44457096976765 L 1.75017501750175,368.9758216392882 L 1.6501650165016502,367.93519684014433 L 0.0,365.50707230880874 L 0.6000600060006,364.4168939478009 L 1.8001800180018002,363.92135832916097 L 3.2003200320032,363.82225120543296 L 5.2005200520052,362.83117996815315 L 6.900690069006901,363.723144081705 L 8.9008900890089,366.8450184791365 L 12.5012501250125,369.12448232488015 L 16.65166516651665,369.5704643816561 L 19.251925192519252,368.72805382996825 L 22.7022702270227,366.54769710795256 L 24.652465246524653,368.8767145155602 L 25.202520252025202,373.3860886451835 L 22.802280228022802,379.8280516875026 L 19.2019201920192,383.0985867705261 L 15.4015401540154,382.35528334256617 z" /><g><path fill-rule="evenodd" fill="#D2EBD9" stroke="#A6A6A6" stroke-width="0.25" opacity="1" d="M 183.6183618361836,247.2227201394586 L 182.81828182818282,245.83522040726683 L 180.1180118011801,245.9343275309948 L 178.06780678067807,245.3396847886269 L 178.96789678967895,248.21379137673847 L 176.6176617661766,247.42093438691458 L 172.81728172817282,245.04236341744294 L 171.7171717171717,245.3396847886269 L 170.8170817081708,245.3396847886269 L 170.7170717071707,243.30798875220322 L 170.8170817081708,241.2267391539155 L 171.46714671467146,241.62316764882746 L 171.7171717171717,242.21781039119537 L 173.26732673267327,240.28522147849966 L 174.2174217421742,239.69057873613176 L 175.46754675467545,239.24459667935582 L 173.66736673667367,237.75798982343605 L 171.46714671467146,237.16334708106814 L 169.4169416941694,237.60932913784407 L 168.06680668066807,239.24459667935582 L 167.4167416741674,237.956204070892 L 169.9169916991699,235.47852597769239 L 172.36723672367236,234.53700830227652 L 174.8174817481748,234.88388323532448 L 177.2177217721772,236.22182940565227 L 177.56775677567757,236.86602570988418 L 178.11781178117812,238.94727530817187 L 178.51785178517852,239.69057873613176 L 179.2179217921792,240.08700723104369 L 180.66806680668066,240.23566791663566 L 182.66826682668267,241.37539983950748 L 184.1184118411841,241.12763203018753 L 185.4185418541854,240.23566791663566 L 186.36863686368636,239.24459667935582 L 186.66866686668666,240.78075709713957 L 186.018601860186,242.81245313356328 L 183.6183618361836,247.2227201394586 z" /><path fill-rule="evenodd" fill="#D2EBD9" stroke="#A6A6A6" stroke-width="0.25" opacity="1" d="M 160.7160716071607,247.2227201394586 L 160.66606660666065,244.794595608123 L 160.36603660366035,243.75397080897915 L 159.21592159215922,243.3575423140672 L 157.96579657965796,243.2584351903392 L 157.015701570157,242.96111381915526 L 156.36563656365635,242.31691751492335 L 156.06560656065605,241.2267391539155 L 157.96579657965796,241.2267391539155 L 158.56585658565857,241.77182833441944 L 159.21592159215922,242.0691497056034 L 162.66626662666266,242.46557820051532 L 162.8162816281628,243.15932806661124 L 162.46624662466246,244.15039930389108 L 162.5162516251625,245.3396847886269 L 163.96639663966397,249.65084467079424 L 164.8164816481648,251.48432645976197 L 166.1166116611661,252.22762988772186 L 163.96639663966397,254.11066523855357 L 162.36623662366236,252.52495125890582 L 160.7160716071607,247.2227201394586 z" /><path fill-rule="evenodd" fill="#D2EBD9" stroke="#A6A6A6" stroke-width="0.25" opacity="1" d="M 173.51735173517352,250.79057659366606 L 174.1174117411741,250.04727316570617 L 175.2175217521752,250.34459453689013 L 175.96759675967596,251.53388002162595 L 175.46754675467545,253.31780824872968 L 176.66766676667666,254.5070937334655 L 176.017601760176,256.0432541512493 L 174.36743674367435,257.43075388344107 L 172.71727172717272,258.32271799699294 L 169.86698669866985,256.24146839870525 L 172.06720672067206,254.0115581148256 L 173.06730673067307,252.52495125890582 L 173.51735173517352,250.79057659366606 z" /></g><path fill-rule="evenodd" fill="#D2EBD9" stroke="#A6A6A6" stroke-width="0.25" opacity="1" d="M 411.1911191119112,340.0365415107166 L 404.34043404340434,340.6311842530845 L 401.94019401940193,341.1762734335884 L 399.58995899589956,341.02761274799644 L 393.8893889388939,338.79770246411675 L 390.7390739073907,338.30216684547685 L 387.5387538753875,338.15350615988484 L 383.03830383038303,335.7749351904132 L 380.78807880788077,335.3785066955013 L 378.18781878187815,333.8918998395815 L 374.1874187418742,330.0267220141901 L 371.6371637163716,329.03565077691024 L 368.2368236823682,329.08520433877425 L 365.83658365836584,327.1030618642145 L 364.53645364536453,324.32806239983097 L 362.7362736273627,323.832526781191 L 358.18581858185814,327.2517225498065 L 356.63566356635664,326.26065131252665 L 353.6853685368537,322.34591992527123 L 350.6350635063506,322.2468128015433 L 345.43454345434543,322.99011622950314 L 342.18421842184216,321.40440224985537 L 340.28402840284025,317.09324236768805 L 336.43364336433643,309.7593152118171 L 333.88338833883387,307.33119068048154 L 331.7331733173317,306.9843157474336 L 322.58225822582256,308.27270835589735 L 320.4320432043204,308.37181547962535 L 320.4320432043204,306.4887801287936 L 318.23182318231824,305.74547670083376 L 317.63176317631763,304.258869844914 L 317.93179317931794,302.1776202466263 L 316.8816881688169,299.84860283901867 L 316.031603160316,297.1231569364991 L 315.981598159816,294.1994967865235 L 315.4315431543154,290.829854579772 L 314.98149814981497,283.99146304254106 L 315.981598159816,280.77048152138156 L 317.8817881788179,279.0856604180058 L 319.8319831983198,278.3423569900459 L 322.68226822682266,276.90530369599014 L 322.2322232223222,275.1213754688864 L 320.2320232023202,274.3285184790625 L 317.7817781778178,272.3463760045028 L 318.73187318731874,268.62985886470335 L 317.73177317731773,266.2512878952317 L 317.1817181718172,262.5843243172963 L 317.73177317731773,258.6695929300409 L 316.7316731673167,256.0432541512493 L 316.2816281628163,253.11959400127373 L 318.2818281828183,250.7410230318021 L 321.28212821282125,249.4030768614743 L 324.7324732473247,250.4932552224821 L 328.9328932893289,250.93923727925804 L 330.28302830283025,249.10575549029033 L 333.38333833383336,248.75888055724238 L 338.9338933893389,246.82629164454667 L 341.58415841584156,245.43879191235487 L 341.38413841384136,242.7133460098353 L 339.8339833983398,240.08700723104369 L 340.48404840484045,237.65888269970804 L 341.8341834183418,234.33879405482057 L 342.034203420342,231.36558034298102 L 342.58425842584256,229.3834378684213 L 346.4846484648465,228.68968800232543 L 359.98599859985995,228.49147375486945 L 362.2362236223622,227.94638457436554 L 365.1865186518652,226.8066526514937 L 367.3367336733673,223.83343893965414 L 367.68676867686764,222.8423677023743 L 370.7370737073707,224.57674236761403 L 372.3372337233723,226.0137956616698 L 371.4371437143714,229.18522362096533 L 372.2372237223722,230.52316979129313 L 372.987298729873,232.6044193895808 L 375.63756375637564,234.58656186414052 L 379.38793879387936,235.42897241582838 L 383.1883188318832,235.5280795395564 L 385.88858885888584,237.956204070892 L 386.58865886588654,242.31691751492335 L 388.58885888588856,244.94325629371497 L 392.4892489248925,246.38030958777074 L 394.7894789478948,247.9660235674185 L 395.58955895589554,250.5428087843461 L 397.2397239723972,257.0343253885291 L 397.8397839783978,261.2959317088325 L 397.38973897389735,264.91334172490394 L 396.78967896789675,267.7378947511515 L 395.13951395139514,269.7695907875752 L 394.0894089408941,271.8508403858629 L 396.98969896989695,276.6079823248062 L 397.08970897089705,278.49101767563786 L 398.38983898389836,282.1084276917093 L 400.3400340034003,286.4195875738767 L 401.8901890189019,290.9289617035 L 402.6902690269027,295.98342501362725 L 402.990299029903,299.84860283901867 L 402.0902090209021,302.1280666847623 L 401.040104010401,303.86244135000203 L 402.24022402240223,307.72761917539344 L 404.84048404840485,313.17851098043263 L 408.9408940894089,318.4807420998798 L 409.040904090409,320.46288457443956 L 408.29082908290826,322.7919019820472 L 405.6405640564056,324.4767230854229 L 404.1904190419042,326.0624370650707 L 404.0904090409041,331.16645393706193 L 405.9405940594059,332.6035072311177 L 409.3409340934093,333.7432391539895 L 411.991199119912,334.98207820058934 L 411.8911891189119,336.8155599895571 L 411.1911191119112,340.0365415107166 z" /><path fill-rule="evenodd" fill="#D2EBD9" stroke="#A6A6A6" stroke-width="0.25" opacity="1" d="M 440.84408440844084,483.3949959832469 L 438.7938793879388,482.35437118410306 L 437.29372937293726,481.11553213750324 L 431.74317431743174,477.79544349261573 L 429.9429942994299,475.76374745619205 L 428.8428842884288,473.4347300485844 L 427.9427942794279,472.1958910019846 L 427.09270927092706,470.6597305842008 L 429.042904290429,468.52892742404913 L 431.993199319932,465.7043743978016 L 432.5932593259326,462.53294643850603 L 431.7931793179318,458.7173221749786 L 433.79337933793374,455.29812640636317 L 436.7436743674367,452.9691089987555 L 438.6938693869387,450.73919871487584 L 440.54405440544053,449.10393117336406 L 442.99429942994294,448.55884199286015 L 445.99459945994596,448.50928843099615 L 448.0948094809481,449.401252544548 L 451.995199519952,454.3070551690833 L 452.99529952995294,456.487411891099 L 451.0951095109511,458.1226794326107 L 448.7448744874487,459.41107204107453 L 448.6948694869487,462.0374108198661 L 449.4949494949495,465.40705302661763 L 448.6948694869487,467.68651687236127 L 446.69466946694666,469.420891537601 L 445.4445444544454,474.57446197145623 L 443.79437943794375,478.0432113019357 L 443.5443544354435,479.7775859671754 L 443.8443844384438,481.66062131800714 L 442.7942794279428,482.75079967901496 L 440.84408440844084,483.3949959832469 z" /><path fill-rule="evenodd" fill="#D2EBD9" stroke="#A6A6A6" stroke-width="0.25" opacity="1" d="M 291.67916791679164,234.63611542600452 L 287.6787678767877,234.23968693109256 L 282.9282928292829,233.4468299412687 L 281.02810281028104,231.36558034298102 L 281.47814781478144,228.49147375486945 L 284.57845784578456,227.25263470826962 L 288.1288128812881,224.923617300662 L 291.87918791879184,224.0812067489741 L 295.3295329532953,225.4687064811659 L 297.6797679767977,225.76602785234985 L 299.1799179917992,226.9057597752217 L 297.8797879787979,230.37450910570115 L 296.6296629662966,232.40620514212486 L 294.5294529452945,233.54593706499668 L 291.67916791679164,234.63611542600452 z" /></g></g></g></svg>