<svg xmlns="http://www.w3.org/2000/svg" xmlns:xlink="http://www.w3.org/1999/xlink" width="500.0" height="325.62355418875813" viewBox="0.0 0.0 500.0 325.62355418875813" preserveAspectRatio="xMinYMin meet"><g transform="matrix(1,0,0,-1,0,325.62355418875813)"><g><g><g><path fill-rule="evenodd" fill="#D2EBD9" stroke="#A6A6A6" stroke-width="0.25" opacity="1" d="M 460.2960296029603,104.50304884405689 L 459.5959595959596,104.27508956019638 L 458.045804580458,103.20042436485394 L 457.29572957295727,103.16785875287387 L 456.79567956795677,102.61424334921261 L 457.09570957095707,102.06062794555136 L 458.2958295829583,101.34418448198973 L 459.04590459045903,101.11622519812921 L 459.4959495949595,101.21392203406944 L 459.7959795979598,101.66984060179047 L 460.44604460446044,104.07969588831594 L 460.2960296029603,104.50304884405689 z" /><path fill-rule="evenodd" fill="#D2EBD9" stroke="#A6A6A6" stroke-width="0.25" opacity="1" d="M 430.34303430343033,131.46737556355802 L 429.8929892989299,131.14171944375727 L 429.6429642964296,130.65323526405618 L 428.89288928892887,130.42527598019566 L 426.29262926292625,128.2433799775307 L 424.89248924892485,126.6476649905071 L 423.64236423642365,126.15918081080599 L 422.24222422242224,124.17267848002149 L 419.9419941994199,123.58649746438016 L 419.09190919091907,123.0328820607189 L 418.6418641864186,122.2838729851772 L 418.79187918791877,121.17664217785469 L 419.5419541954195,120.10197698251226 L 419.1419141914191,118.79935250330931 L 421.1921192119212,117.95264659182739 L 422.94229422942294,118.24573709964805 L 423.5923592359236,117.98521220380746 L 424.3424342434243,116.71515333658458 L 425.2425242524252,113.3283296906569 L 426.4426442644264,112.48162377917498 L 427.6427642764276,112.38392694323475 L 428.89288928892887,112.51418939115506 L 433.04330433043305,113.78424825837793 L 436.2436243624362,113.9470763182783 L 437.29372937293726,115.02174151362074 L 438.993899389939,115.3148320214414 L 442.3942394239424,114.8263478417403 L 443.29432943294324,114.92404467768051 L 444.39443944394435,117.10594068034547 L 444.8444844484448,117.23620312826576 L 445.69456945694566,116.25923476886355 L 446.09460946094606,116.0638410969831 L 448.0948094809481,116.09640670896317 L 448.994899489949,115.21713518550118 L 450.2950295029503,114.8263478417403 L 450.7950795079508,113.78424825837793 L 451.94519451945195,112.90497673491593 L 452.59525952595254,112.64445183907534 L 453.99539953995395,112.35136133125468 L 454.69546954695466,112.4490581671949 L 454.9454945494549,112.87241112293587 L 455.19551955195516,114.27273243807905 L 455.7455745574557,114.72865100580007 L 456.2456245624562,114.30529805005912 L 456.6456645664566,113.42602652659713 L 456.8456845684568,112.64445183907534 L 456.8456845684568,111.08130246403181 L 457.045704570457,110.49512144839048 L 457.6457645764576,110.23459655254989 L 459.54595459545953,111.27669613591225 L 460.04600460046004,111.73261470363329 L 460.8960896089609,113.4585921385772 L 461.7961796179618,114.37042927401926 L 462.8462846284628,114.43556049797941 L 463.99639963996395,114.14246999015874 L 465.1465146514651,114.04477315421852 L 465.6465646564656,114.17503560213882 L 466.69666966696667,113.91451070629823 L 467.0967096709671,114.01220754223846 L 467.2967296729673,114.43556049797941 L 467.1467146714671,114.72865100580007 L 465.3465346534653,115.80331620114251 L 465.1465146514651,116.35693160480376 L 465.29652965296526,116.91054700846502 L 467.7967796779678,118.1806058756879 L 468.5968596859686,118.96218056320967 L 469.44694469446944,121.14407656587461 L 471.3971397139714,122.21874176121706 L 473.19731973197315,122.4141354330975 L 472.8472847284728,124.00985042012111 L 473.047304730473,126.06148397486577 L 472.59725972597255,126.6476649905071 L 470.74707470747074,127.1361491702082 L 469.99699969997,128.1456831415905 L 469.54695469546954,128.43877364941116 L 468.94689468946893,127.78746140980968 L 468.44684468446843,127.72233018584953 L 465.3465346534653,128.56903609733146 L 463.9463946394639,128.40620803743107 L 463.2463246324632,128.5039048733713 L 462.7462746274627,128.73186415723183 L 461.04610461046104,131.07658821979715 L 459.24592459245923,131.7604660713787 L 457.995799579958,131.69533484741854 L 456.5456545654565,132.2489502510798 L 456.3456345634563,132.1186878031595 L 456.29562956295626,131.43480995157793 L 454.39543954395435,134.46341186572482 L 451.995199519952,133.68183717820304 L 449.3949394939494,132.2489502510798 L 448.7948794879488,131.79303168335875 L 447.89478947894787,130.3601447562355 L 445.99459945994596,128.56903609733146 L 445.3445344534453,128.43877364941116 L 443.59435943594355,129.28547956089307 L 442.99429942994294,129.77396374059418 L 441.84418441844184,130.0996198603949 L 440.5940594059406,131.20685066771742 L 439.4439443944394,131.30454750365766 L 439.2939293929393,131.49994117553808 L 441.14411441144114,134.00749329800377 L 437.8437843784378,133.8446652381034 L 436.89368936893686,133.9749276860237 L 436.043604360436,134.49597747770488 L 435.4435443544354,134.49597747770488 L 434.09340934093404,133.25848422246207 L 432.4932493249325,133.25848422246207 L 431.993199319932,133.03052493860156 L 431.0931093109311,131.92329413127905 L 430.34303430343033,131.46737556355802 z" /><path fill-rule="evenodd" fill="#D2EBD9" stroke="#A6A6A6" stroke-width="0.25" opacity="1" d="M 437.69376937693767,110.88590879215137 L 436.79367936793676,110.39742461245025 L 436.09360936093606,108.54118472958605 L 436.09360936093606,107.88987248998457 L 436.9436943694369,105.70797648731963 L 437.29372937293726,105.21949230761852 L 438.4438443844384,104.86127057583771 L 438.7938793879388,104.56818006801704 L 438.8938893889389,103.46094926069453 L 437.6437643764376,101.5070125418901 L 437.69376937693767,100.53004418248788 L 438.09380938093807,100.36721612258752 L 439.1939193919392,101.24648764604952 L 439.7939793979398,101.21392203406944 L 439.99399939994,100.46491295852775 L 440.34403440344033,100.13925683872701 L 443.49434943494344,100.66030663040819 L 443.8443844384438,101.11622519812921 L 443.89438943894385,102.28858722941187 L 442.5942594259426,103.65634293257497 L 442.54425442544255,104.66587690395727 L 444.3444344434443,106.06619821910044 L 444.5444544454445,106.65237923474177 L 444.3444344434443,107.01060096652257 L 443.9443944394439,107.07573219048273 L 443.19431943194314,106.88033851860229 L 442.5942594259426,106.4895511748414 L 440.54405440544053,107.33625708632331 L 439.74397439743973,107.8573068780045 L 439.2439243924392,108.50861911760597 L 438.3438343834383,110.4625558364104 L 437.69376937693767,110.88590879215137 z" /></g><path fill-rule="evenodd" fill="#D2EBD9" stroke="#A6A6A6" stroke-width="0.25" opacity="1" d="M 422.04220422042204,158.8550552388001 L 421.54215421542153,158.8550552388001 L 421.0921092109211,159.27840819454107 L 419.9419941994199,161.16721368938533 L 418.3418341834183,162.30701010868793 L 414.24142414241425,162.76292867640896 L 413.1913191319132,163.31654408007023 L 412.64126412641264,164.5866029472931 L 413.24132413241324,165.5961369186754 L 417.99179917991796,168.36421393698166 L 419.6919691969197,169.73196964014477 L 421.54215421542153,170.8066348354872 L 422.24222422242224,171.81616880686948 L 423.0923092309231,173.6724086897337 L 424.3424342434243,175.1704268408171 L 427.2427242724272,177.6454133513027 L 428.09280928092807,178.16646314298387 L 430.993099309931,178.5246848747647 L 432.04320432043204,178.8829066065455 L 432.34323432343234,179.56678445812705 L 432.44324432443244,181.81381168475215 L 432.94329432943294,183.2466986118754 L 434.1434143414341,183.57235473167614 L 435.59355935593555,183.507223507716 L 436.79367936793676,183.76774840355657 L 440.8940894089409,186.86148154166358 L 443.29432943294324,187.5779250052252 L 444.39443944394435,188.3269340807669 L 444.79447944794475,189.79238661987023 L 443.79437943794375,190.15060835165104 L 439.6939693969397,193.0815134298577 L 438.7938793879388,193.47230077361857 L 437.8437843784378,193.34203832569827 L 433.9433943394339,190.18317396363113 L 432.84328432843284,189.5969929479898 L 431.74317431743174,189.4341648880894 L 430.3930393039304,189.82495223185032 L 429.6929692969297,189.79238661987023 L 428.7428742874287,187.9687123489861 L 427.9427942794279,186.99174398958388 L 427.2427242724272,185.721685122361 L 426.09260926092605,183.11643616395511 L 425.19251925192515,182.69308320821415 L 424.49244924492444,182.79078004415436 L 423.64236423642365,183.2466986118754 L 422.992299229923,184.7447167629588 L 421.992199219922,185.65655389840086 L 421.5921592159216,185.721685122361 L 418.7418741874187,184.4841918671182 L 417.49174917491746,183.40952667177578 L 416.39163916391635,180.90197454931007 L 414.69146914691464,179.95757180188795 L 414.2914291429143,179.53421884614698 L 412.2912291229123,176.11482958823922 L 411.54115411541153,175.23555806477722 L 409.1409140914091,173.44444940587317 L 407.49074907490746,172.85826839023184 L 405.79057905790575,170.83920044746728 L 404.54045404540454,170.3181506557861 L 401.3401340134013,170.1878882078658 L 397.38973897389735,169.0806574005433 L 396.08960896089604,167.71290169738018 L 393.0893089308931,165.36817763481486 L 391.4391439143914,164.84712784313368 L 390.68906890689067,164.29351243947244 L 390.28902890289027,163.25141285611008 L 390.9390939093909,161.55800103314624 L 390.58905890589057,161.3626073612658 L 388.8388838883888,161.6882634810665 L 387.28872887288725,160.8415575695846 L 386.88868886888685,160.77642634562446 L 385.98859885988594,161.06951685344512 L 385.53855385538554,160.9718200175049 L 383.5883588358836,159.6366299263219 L 383.23832383238323,159.27840819454107 L 382.9382938293829,158.46426789503923 L 382.3882388238824,158.69222717889974 L 380.48804880488046,157.8455212674178 L 380.1380138013801,157.35703708771672 L 380.18801880188016,157.06394657989605 L 380.68806880688066,156.47776556425472 L 380.78807880788077,155.37053475693222 L 380.3380338033803,151.69062060318387 L 380.1380138013801,151.23470203546282 L 379.1379137913791,150.3879961239809 L 377.58775877587755,149.54129021249898 L 375.73757375737574,149.1830684807182 L 374.63746374637464,147.4245254337942 L 372.6372637263726,146.5452539103322 L 371.8371837183718,145.63341677489012 L 370.7370737073707,142.5396836367831 L 370.18701870187016,141.8232401732215 L 368.98689868986895,141.3021903815403 L 370.48704870487046,139.93443467837722 L 370.78707870787076,139.21799121481558 L 370.9370937093709,138.01306357155286 L 371.08710871087106,137.91536673561262 L 371.4371437143714,138.11076040749307 L 371.6371637163716,137.19892327205102 L 372.08720872087207,137.39431694393144 L 373.3873387338734,137.00352960017057 L 373.83738373837383,136.67787348036984 L 374.63746374637464,135.37524900116688 L 375.93759375937594,134.5936743136451 L 376.4376437643764,133.58414034226283 L 376.38763876387634,132.9653937146414 L 376.58765876587654,132.77000004276098 L 377.18771877187714,132.7374344307809 L 377.9377937793779,131.890728519299 L 377.98779877987795,131.3696787276178 L 377.58775877587755,130.8811945479167 L 378.037803780378,130.6206696520761 L 379.28792879287926,131.17428505573736 L 379.58795879587956,131.011456995837 L 378.98789878987895,129.83909496455433 L 380.78807880788077,130.03448863643476 L 381.1381138113811,129.05752027703255 L 381.6381638163816,128.63416732129159 L 381.78817881788177,128.2433799775307 L 381.68816881688167,127.91772385772997 L 381.18811881188117,127.46180529000894 L 381.18811881188117,127.20128039416835 L 381.4381438143814,127.03845233426797 L 382.2882288228823,127.72233018584953 L 382.7382738273827,127.33154284208864 L 382.7382738273827,127.07101794624805 L 382.038203820382,126.74536182644732 L 381.7381738173817,126.19174642278605 L 381.4381438143814,124.82399071962296 L 382.038203820382,124.85655633160303 L 382.5882588258826,124.56346582378237 L 382.038203820382,124.23780970398163 L 382.5882588258826,123.3911037924997 L 382.8382838283828,122.4141354330975 L 381.9381938193819,120.85098605805395 L 381.28812881288127,117.10594068034547 L 381.8881888188819,115.73818497718236 L 381.9381938193819,115.15200396154104 L 381.3381338133813,113.13293601877646 L 382.3382338233823,112.64445183907534 L 384.988498849885,111.8303115395735 L 386.4386438643864,111.79774592759343 L 387.5387538753875,112.28623010729454 L 387.5387538753875,113.1980672427366 L 385.3885388538854,115.11943834956097 L 385.2885288528853,116.25923476886355 L 386.038603860386,116.35693160480376 L 387.1387138713871,115.90101303708273 L 388.08880888088805,116.0638410969831 L 388.28882888288825,117.95264659182739 L 388.1388138813881,118.79935250330931 L 387.038703870387,120.88355167003402 L 386.1386138613861,123.71675991230045 L 384.988498849885,125.70326224308495 L 384.988498849885,126.5174025425868 L 386.038603860386,127.23384600614843 L 387.78877887788775,127.36410845406871 L 388.2388238823882,127.6246333499093 L 388.3388338833883,128.1456831415905 L 388.1388138813881,131.59763801147832 L 388.3388338833883,132.7374344307809 L 388.78887888788876,133.7469684021632 L 389.9389938993899,135.04959288136615 L 391.3891389138914,135.63577389700748 L 391.8891889188919,135.57064267304733 L 393.0893089308931,134.5936743136451 L 394.03940394039404,134.49597747770488 L 394.6894689468947,133.8772308500835 L 395.8395839583958,132.1186878031595 L 397.2397239723972,130.91376015989675 L 398.039803980398,129.61113568069382 L 398.4398439843984,129.28547956089307 L 399.3399339933993,128.92725782911225 L 400.09000900090007,129.18778272495285 L 400.7900790079008,129.80652935257424 L 402.04020402040203,131.3696787276178 L 402.5902590259026,131.82559729533884 L 403.24032403240324,132.15125341513956 L 408.59085908590856,133.8446652381034 L 411.34113411341133,135.99399562878827 L 414.3914391439144,137.19892327205102 L 416.49164916491645,138.4689821392739 L 418.09180918091806,140.35778763411818 L 418.89188918891887,144.4284891316274 L 419.99199919992,144.72157963944807 L 421.2921292129213,144.1679642357868 L 421.64216421642163,143.77717689202592 L 421.8921892189219,144.689014027468 L 421.6921692169217,148.4014937931964 L 420.2420242024202,150.74621785576173 L 420.2920292029203,151.23470203546282 L 421.0921092109211,153.22120436624732 L 420.992099209921,153.51429487406799 L 420.0920092009201,153.7748197699086 L 419.8919891989199,155.0123130251514 L 419.99199919992,155.53336281683258 L 421.44214421442143,157.42216831167684 L 422.04220422042204,158.8550552388001 z M 386.68866886688664,158.78992401483995 L 387.38873887388735,158.30143983513884 L 388.28882888288825,158.17117738721856 L 389.3389338933893,157.487299535637 L 389.4389438943894,156.8685529080156 L 388.98889888988896,156.08697822049382 L 389.68896889688966,155.40310036891228 L 389.48894889488946,155.0123130251514 L 389.78897889788976,154.71922251733073 L 388.68886888688866,154.16560711366947 L 387.2387238723872,152.83041702248644 L 386.28862886288624,151.65805499120378 L 385.43854385438544,151.85344866308424 L 385.03850385038504,152.53732651466578 L 385.1885188518852,153.05837630634696 L 384.73847384738474,152.56989212664587 L 383.988398839884,153.41659803812777 L 383.73837383738373,154.32843517356983 L 383.1883188318832,154.10047588970932 L 383.93839383938393,155.9892813845536 L 384.13841384138414,157.22677463979642 L 385.6885688568857,158.78992401483995 L 386.68866886688664,158.78992401483995 z" /><path fill-rule="evenodd" fill="#D2EBD9" stroke="#A6A6A6" stroke-width="0.25" opacity="1" d="M 422.04220422042204,158.8550552388001 L 421.44214421442143,157.42216831167684 L 419.99199919992,155.53336281683258 L 419.8919891989199,155.0123130251514 L 420.0920092009201,153.7748197699086 L 420.992099209921,153.51429487406799 L 421.0921092109211,153.22120436624732 L 420.2920292029203,151.23470203546282 L 420.2420242024202,150.74621785576173 L 421.6921692169217,148.4014937931964 L 421.8921892189219,144.689014027468 L 421.64216421642163,143.77717689202592 L 423.2923292329233,142.11633068104217 L 428.8428842884288,135.76603634492776 L 428.79287928792877,135.04959288136615 L 428.2428242824282,135.24498655324658 L 427.19271927192716,136.15682368868866 L 426.6426642664266,136.0916924647285 L 426.3426342634263,135.6032082850274 L 426.4426442644264,134.91933043344585 L 426.89268926892686,134.33314941780452 L 429.5429542954295,133.7144027901831 L 430.64306430643063,133.06309055058165 L 430.34303430343033,131.46737556355802 L 431.0931093109311,131.92329413127905 L 431.993199319932,133.03052493860156 L 432.4932493249325,133.25848422246207 L 434.09340934093404,133.25848422246207 L 435.4435443544354,134.49597747770488 L 436.043604360436,134.49597747770488 L 436.89368936893686,133.9749276860237 L 437.8437843784378,133.8446652381034 L 441.14411441144114,134.00749329800377 L 439.2939293929393,131.49994117553808 L 439.4439443944394,131.30454750365766 L 440.5940594059406,131.20685066771742 L 441.84418441844184,130.0996198603949 L 442.99429942994294,129.77396374059418 L 443.59435943594355,129.28547956089307 L 445.3445344534453,128.43877364941116 L 445.99459945994596,128.56903609733146 L 447.89478947894787,130.3601447562355 L 448.7948794879488,131.79303168335875 L 449.3949394939494,132.2489502510798 L 451.995199519952,133.68183717820304 L 454.39543954395435,134.46341186572482 L 455.19551955195516,135.31011777720673 L 454.39543954395435,136.74300470433 L 454.39543954395435,137.00352960017057 L 456.19561956195616,138.92490070699492 L 459.1959195919592,139.73904100649676 L 460.1960196019602,139.25055682679567 L 461.74617461746175,139.93443467837722 L 463.8463846384638,139.96700029035728 L 467.6967696769677,139.02259754293516 L 470.84708470847085,139.21799121481558 L 471.3971397139714,139.5762129465964 L 472.2472247224722,143.4189551602451 L 471.34713471347135,143.15843026440453 L 471.9471947194719,144.75414525142813 L 471.9471947194719,145.50315432696985 L 471.4971497149715,149.67155266041928 L 471.14711471147115,150.42056173596097 L 470.44704470447044,150.87648030368203 L 469.6969696969697,150.74621785576173 L 467.5467546754675,149.21563409269825 L 467.046704670467,149.47615898853886 L 466.59665966596657,150.1274712281403 L 465.89658965896587,150.71365224378164 L 463.59635963596355,150.32286490002076 L 462.79627962796275,150.68108663180158 L 462.6462646264626,152.30936723080526 L 462.7462746274627,153.97021344178904 L 462.5462546254625,155.2402723090119 L 462.09620962096204,156.38006872831448 L 459.14591459145913,160.7112951216643 L 458.8958895889589,160.80899195760452 L 458.6958695869587,160.64616389770416 L 458.6958695869587,159.8320235982023 L 458.4458445844584,159.6040643143418 L 458.1958195819582,159.7343267622621 L 458.045804580458,160.3530733898835 L 457.6957695769577,160.4833358378038 L 457.29572957295727,159.53893309038165 L 456.99569956995697,159.6366299263219 L 457.4957495749575,162.30701010868793 L 457.4957495749575,163.0885847962097 L 457.3457345734573,163.87015948373147 L 456.99569956995697,164.39120927541265 L 456.3456345634563,164.48890611135286 L 455.69556955695566,164.2283812155123 L 455.3455345534553,163.77246264779126 L 454.79547954795476,162.30701010868793 L 455.09550955095506,161.6231322571064 L 455.89558955895586,160.581032673744 L 455.99559955995596,159.8645892101824 L 455.89558955895586,159.08301452266062 L 455.4455445544554,157.78039004345766 L 454.49544954495445,155.69619087673294 L 453.69536953695365,154.84948496525104 L 452.69526952695264,154.65409129337058 L 451.44514451445144,155.17514108505176 L 450.04500450045003,156.51033117623479 L 449.64496449644963,156.608028012175 L 449.44494449444943,156.1195438324739 L 449.6949694969497,149.44359337655877 L 449.54495449544953,148.07583767339568 L 448.8948894889489,147.5222222697344 L 446.89468946894686,149.2481997046783 L 445.8445844584458,147.55478788171447 L 445.49454945494546,147.55478788171447 L 444.8444844484448,148.46662501715656 L 444.49444944494445,149.93207755625988 L 444.1444144414441,150.42056173596097 L 443.4443444344434,150.45312734794106 L 442.84428442844285,150.1274712281403 L 442.99429942994294,148.10840328537574 L 442.6942694269427,147.35939420983405 L 442.24422442244224,147.65248471765472 L 441.4941494149415,148.88997797289753 L 441.04410441044104,149.2807653166584 L 439.94399439943993,149.44359337655877 L 438.1438143814381,150.5182585719012 L 436.79367936793676,150.74621785576173 L 434.9434943494349,150.61595540784143 L 433.5433543354335,152.17910478288496 L 432.44324432443244,152.79785141050638 L 430.74307430743073,152.40706406674548 L 430.3930393039304,152.92811385842666 L 430.34303430343033,153.57942609802814 L 430.7930793079308,155.9892813845536 L 430.74307430743073,156.80342168405545 L 430.44304430443043,157.58499637157723 L 428.79287928792877,160.41820461384364 L 428.3428342834283,161.06951685344512 L 427.79277927792776,161.42773858522594 L 426.79267926792676,161.26491052532558 L 423.1923192319232,159.21327697058092 L 422.04220422042204,158.8550552388001 z M 427.09270927092706,140.6834437539189 L 426.5426542654265,140.8137062018392 L 426.042604260426,141.26962476956024 L 424.69246924692465,142.93047098054402 L 424.3424342434243,143.74461128004586 L 424.79247924792475,143.87487372796613 L 425.59255925592555,143.5492176081654 L 426.29262926292625,142.93047098054402 L 427.042704270427,141.3347559935204 L 427.09270927092706,140.6834437539189 z" /><path fill-rule="evenodd" fill="#D2EBD9" stroke="#A6A6A6" stroke-width="0.25" opacity="1" d="M 473.19731973197315,122.4141354330975 L 473.9473947394739,122.34900420913735 L 474.2474247424742,122.15361053725691 L 474.09740974097406,121.76282319349602 L 472.8472847284728,121.46973268567535 L 472.69726972697265,121.11151095389454 L 473.09730973097305,120.98124850597425 L 474.39743974397436,121.0463797299344 L 477.3477347734773,119.58092719083108 L 478.04780478047803,119.71118963875136 L 478.5978597859786,120.52532993825322 L 478.94789478947894,121.50229829765543 L 478.94789478947894,122.4141354330975 L 478.64786478647864,123.16314450863919 L 477.3977397739774,124.07498164408126 L 477.1477147714771,124.43320337586208 L 477.3477347734773,126.15918081080599 L 476.6976697669767,127.23384600614843 L 476.7976797679768,127.85259263376983 L 477.64776477647763,128.2433799775307 L 478.64786478647864,127.39667406604879 L 479.5979597959796,126.2568776467462 L 480.44804480448045,125.86609030298533 L 481.5481548154815,125.70326224308495 L 483.59835983598356,124.30294092794178 L 484.7484748474847,124.36807215190193 L 485.49854985498547,125.18221245140377 L 485.8985898589859,126.94075549832776 L 486.4486448644864,126.94075549832776 L 487.4987498749875,126.45227131862666 L 488.34883488348834,126.84305866238753 L 488.6988698869887,129.3831763968333 L 489.3989398939894,130.45784159217573 L 490.3990399039904,130.91376015989675 L 492.49924992499245,131.43480995157793 L 494.99949994999497,132.9979593266215 L 497.74977497749774,134.04005890998386 L 499.0999099909991,134.8216335975056 L 500.0,135.99399562878827 L 499.84998499849985,136.77557031631005 L 498.94989498949894,136.9709639881905 L 497.24972497249723,136.87326715225026 L 495.7495749574957,138.17589163145323 L 493.59935993599356,137.16635766007093 L 492.2492249224922,136.22195491264878 L 491.89918991899185,136.15682368868866 L 491.99919991999195,136.8081359282901 L 491.8491849184918,137.9479323475927 L 490.7490749074907,138.24102285541338 L 486.9486948694869,137.91536673561262 L 485.69856985698567,138.04562918353292 L 484.59845984598456,138.5666789752141 L 483.69836983698366,139.54364733461634 L 482.4482448244824,141.49758405342075 L 481.89818981898185,141.72554333728127 L 481.1481148114811,141.75810894926136 L 480.64806480648065,142.05119945708202 L 480.5980598059806,143.51665199618535 L 478.04780478047803,144.03770178786652 L 477.4477447744774,144.39592351964734 L 476.5976597659766,145.73111361083036 L 476.2476247624762,145.99163850667094 L 475.69756975697567,145.56828555092997 L 474.99749974997496,144.07026739984659 L 473.89738973897386,143.94000495192628 L 472.2472247224722,143.4189551602451 L 471.3971397139714,139.5762129465964 L 470.84708470847085,139.21799121481558 L 467.6967696769677,139.02259754293516 L 463.8463846384638,139.96700029035728 L 461.74617461746175,139.93443467837722 L 460.1960196019602,139.25055682679567 L 459.1959195919592,139.73904100649676 L 456.19561956195616,138.92490070699492 L 454.39543954395435,137.00352960017057 L 454.39543954395435,136.74300470433 L 455.19551955195516,135.31011777720673 L 454.39543954395435,134.46341186572482 L 456.29562956295626,131.43480995157793 L 456.3456345634563,132.1186878031595 L 456.5456545654565,132.2489502510798 L 457.995799579958,131.69533484741854 L 459.24592459245923,131.7604660713787 L 461.04610461046104,131.07658821979715 L 462.7462746274627,128.73186415723183 L 463.2463246324632,128.5039048733713 L 463.9463946394639,128.40620803743107 L 465.3465346534653,128.56903609733146 L 468.44684468446843,127.72233018584953 L 468.94689468946893,127.78746140980968 L 469.54695469546954,128.43877364941116 L 469.99699969997,128.1456831415905 L 470.74707470747074,127.1361491702082 L 472.59725972597255,126.6476649905071 L 473.047304730473,126.06148397486577 L 472.8472847284728,124.00985042012111 L 473.19731973197315,122.4141354330975 z" /><g><path fill-rule="evenodd" fill="#D2EBD9" stroke="#A6A6A6" stroke-width="0.25" opacity="1" d="M 381.3381338133813,113.13293601877646 L 381.9381938193819,115.15200396154104 L 381.8881888188819,115.73818497718236 L 381.28812881288127,117.10594068034547 L 381.9381938193819,120.85098605805395 L 382.8382838283828,122.4141354330975 L 382.5882588258826,123.3911037924997 L 382.038203820382,124.23780970398163 L 382.5882588258826,124.56346582378237 L 382.038203820382,124.85655633160303 L 381.4381438143814,124.82399071962296 L 381.7381738173817,126.19174642278605 L 382.038203820382,126.74536182644732 L 382.7382738273827,127.07101794624805 L 382.7382738273827,127.33154284208864 L 382.2882288228823,127.72233018584953 L 381.4381438143814,127.03845233426797 L 381.18811881188117,127.20128039416835 L 381.18811881188117,127.46180529000894 L 381.68816881688167,127.91772385772997 L 381.78817881788177,128.2433799775307 L 381.6381638163816,128.63416732129159 L 381.1381138113811,129.05752027703255 L 380.78807880788077,130.03448863643476 L 378.98789878987895,129.83909496455433 L 379.58795879587956,131.011456995837 L 379.28792879287926,131.17428505573736 L 378.037803780378,130.6206696520761 L 377.58775877587755,130.8811945479167 L 377.98779877987795,131.3696787276178 L 377.9377937793779,131.890728519299 L 377.18771877187714,132.7374344307809 L 376.58765876587654,132.77000004276098 L 376.38763876387634,132.9653937146414 L 376.4376437643764,133.58414034226283 L 375.93759375937594,134.5936743136451 L 374.63746374637464,135.37524900116688 L 373.83738373837383,136.67787348036984 L 373.3873387338734,137.00352960017057 L 372.08720872087207,137.39431694393144 L 371.6371637163716,137.19892327205102 L 371.4371437143714,138.11076040749307 L 371.08710871087106,137.91536673561262 L 370.9370937093709,138.01306357155286 L 370.78707870787076,139.21799121481558 L 370.48704870487046,139.93443467837722 L 368.98689868986895,141.3021903815403 L 367.58675867586754,140.48805008203846 L 367.2367236723672,139.5762129465964 L 366.73667366736674,139.836737842437 L 366.78667866786674,138.37128530333368 L 366.53665366536654,137.75253867571226 L 366.1866186618662,137.39431694393144 L 366.0866086608661,136.8081359282901 L 366.3866386638664,133.58414034226283 L 366.5866586658666,132.8676968787012 L 366.9366936693669,132.47690953494032 L 367.8367836783678,132.21638463909972 L 367.78677867786774,131.7604660713787 L 368.3368336833683,130.3601447562355 L 367.58675867586754,128.92725782911225 L 368.1368136813681,128.63416732129159 L 367.98679867986795,128.1456831415905 L 367.3367336733673,127.7548957978296 L 366.5866586658666,127.88515824574989 L 365.0865086508651,128.53647048535137 L 364.7864786478648,128.34107681347092 L 364.43644364436443,127.72233018584953 L 363.986398639864,127.7548957978296 L 363.5363536353635,127.20128039416835 L 357.8357835783578,130.19731669633515 L 357.78577857785774,128.63416732129159 L 357.38573857385734,128.2433799775307 L 355.43554355435543,127.88515824574989 L 355.03550355035503,127.49437090198902 L 354.8854885488549,124.95425316754326 L 355.03550355035503,124.82399071962296 L 355.53555355535553,124.85655633160303 L 356.33563356335634,125.05195000348348 L 356.3856385638564,124.56346582378237 L 352.98529852985297,116.65002211262443 L 352.78527852785277,115.54279130530192 L 352.98529852985297,114.17503560213882 L 353.28532853285327,113.75168264639785 L 354.0854085408541,113.62142019847757 L 360.68606860686066,113.4585921385772 L 369.5369536953695,115.64048814124214 L 369.036903690369,114.63095416985985 L 368.4368436843684,112.57932061511521 L 368.78687868786875,111.86287715155358 L 371.08710871087106,112.35136133125468 L 372.7372737273727,112.05827082343401 L 373.4373437343734,112.15596765937424 L 375.03750375037504,112.97010795887608 L 379.78797879787976,113.71911703441779 L 380.4380438043804,113.62142019847757 L 381.3381338133813,113.13293601877646 z" /><path fill-rule="evenodd" fill="#D2EBD9" stroke="#A6A6A6" stroke-width="0.25" opacity="1" d="M 368.7368736873687,99.12972286734471 L 369.036903690369,98.99946041942442 L 370.03700370037,99.87873194288642 L 370.5370537053705,99.5205102111056 L 371.28712871287127,98.25045134388272 L 371.68716871687167,98.0224920600222 L 371.88718871887187,98.28301695586279 L 372.1372137213721,99.45537898714545 L 372.6872687268727,99.65077265902589 L 373.037303730373,100.3997817345676 L 373.037303730373,100.92083152624878 L 372.08720872087207,103.1352931408938 L 371.98719871987197,103.85173660445543 L 372.18721872187217,104.14482711227608 L 372.7872787278728,103.72147415653512 L 373.3873387338734,102.41884967733218 L 373.83738373837383,100.79056907832847 L 374.4874487448745,99.74846949496612 L 375.73757375737574,100.2695192866473 L 375.63756375637564,101.11622519812921 L 372.9372937293729,105.02409863573807 L 372.9372937293729,106.16389505504065 L 372.8372837283728,106.45698556286132 L 372.3372337233723,106.88033851860229 L 372.28722872287227,107.20599463840303 L 372.6372637263726,107.92243810196464 L 373.0873087308731,107.56421637018383 L 373.7873787378738,106.35928872692111 L 375.1875187518752,107.36882269830339 L 375.7875787578758,107.56421637018383 L 377.88778877887785,107.2385602503831 L 378.5378537853785,107.33625708632331 L 378.78787878787875,107.82474126602442 L 378.8378837883788,108.37835666968567 L 378.5378537853785,109.4855874770082 L 377.18771877187714,110.4625558364104 L 370.38703870387036,109.12736574522738 L 369.1369136913691,107.46651953424362 L 368.5368536853685,106.2290262790008 L 368.58685868586855,105.48001720345911 L 369.2369236923692,103.49351487267461 L 369.08690869086905,101.70240621377054 L 368.4368436843684,102.09319355753144 L 368.1368136813681,101.80010304971077 L 369.08690869086905,100.92083152624878 L 368.7368736873687,99.12972286734471 z" /></g><path fill-rule="evenodd" fill="#D2EBD9" stroke="#A6A6A6" stroke-width="0.25" opacity="1" d="M 368.78687868786875,111.86287715155358 L 368.4368436843684,112.57932061511521 L 369.036903690369,114.63095416985985 L 369.5369536953695,115.64048814124214 L 360.68606860686066,113.4585921385772 L 354.0854085408541,113.62142019847757 L 353.28532853285327,113.75168264639785 L 352.98529852985297,114.17503560213882 L 352.78527852785277,115.54279130530192 L 352.98529852985297,116.65002211262443 L 356.3856385638564,124.56346582378237 L 356.33563356335634,125.05195000348348 L 355.53555355535553,124.85655633160303 L 355.03550355035503,124.82399071962296 L 354.8854885488549,124.95425316754326 L 355.03550355035503,127.49437090198902 L 355.43554355435543,127.88515824574989 L 357.38573857385734,128.2433799775307 L 357.78577857785774,128.63416732129159 L 357.8357835783578,130.19731669633515 L 356.6856685668567,130.81606332395654 L 354.73547354735473,132.34664708702002 L 352.035203520352,135.01702726938606 L 351.18511851185116,135.50551144908718 L 349.8349834983498,135.89629879284806 L 350.18501850185015,136.44991419650933 L 351.68516851685166,137.29662010799123 L 352.68526852685267,138.76207264709456 L 353.3353335333533,140.5531813059986 L 353.5853585358536,141.8232401732215 L 353.6353635363536,142.93047098054402 L 353.2353235323532,143.58178322014547 L 352.98529852985297,143.71204566806577 L 353.9353935393539,144.3307922956872 L 353.5353535353535,144.49362035558755 L 353.6353635363536,144.91697331132852 L 353.5353535353535,145.76367922281042 L 352.88528852885287,145.69854799885027 L 352.48524852485247,144.81927647538828 L 352.18521852185216,145.24262943112925 L 351.8351835183518,145.2751950431093 L 351.08510851085106,144.81927647538828 L 350.68506850685066,145.47058871498976 L 350.48504850485045,146.93604125409308 L 350.18501850185015,147.65248471765472 L 348.88488848884884,149.34589654061855 L 348.28482848284824,150.9090459156621 L 345.83458345834583,149.31333092863846 L 345.2845284528453,149.21563409269825 L 342.78427842784276,150.2902992880407 L 315.58155815581557,148.66201868903698 L 313.9313931393139,149.08537164477795 L 313.9313931393139,148.95510919685765 L 310.3310331033103,147.48965665775435 L 310.1310131013101,146.90347564211302 L 309.7309730973097,146.4149914624119 L 310.28102810281024,140.84627181381927 L 310.78107810781074,140.03213151431743 L 311.3311331133113,139.6739097825366 L 314.1314131413141,138.8272038710547 L 314.3314331433143,138.2084572434333 L 314.2314231423142,136.51504542046945 L 315.18151815181517,134.52854308968494 L 314.38143814381436,132.47690953494032 L 309.9309930993099,123.7818911362606 L 310.1310131013101,123.58649746438016 L 313.8313831383138,123.45623501645986 L 315.981598159816,122.9026196127986 L 317.5817581758176,123.13057889665912 L 317.8817881788179,122.77235716487831 L 318.2818281828183,121.5348639096355 L 317.73177317731773,119.4180991309307 L 317.83178317831783,116.71515333658458 L 318.33183318331834,114.53325733391964 L 318.63186318631864,114.17503560213882 L 319.38193819381934,113.75168264639785 L 319.48194819481944,112.51418939115506 L 320.28202820282024,111.53722103175284 L 320.28202820282024,110.65794950829084 L 320.1320132013201,110.33229338849011 L 319.88198819881984,110.07176849264953 L 319.18191819181914,109.81124359680892 L 319.0819081908191,109.42045625304804 L 319.2319231923192,107.69447881810413 L 319.48194819481944,107.33625708632331 L 320.03200320032,107.2385602503831 L 321.1321132113211,107.66191320612405 L 321.58215821582155,107.62934759414398 L 321.9321932193219,107.27112586236316 L 321.88218821882185,105.96850138316022 L 322.9322932293229,104.86127057583771 L 323.58235823582356,105.05666424771815 L 323.9323932393239,104.47048323207682 L 326.23262326232623,103.85173660445543 L 327.43274327432744,103.91686782841556 L 328.0828082808281,103.49351487267461 L 329.3329332933293,103.49351487267461 L 334.38343834383437,102.54911212525246 L 334.8334833483348,101.73497182575062 L 335.6335633563356,98.21788573190264 L 335.5335533553355,97.92479522408198 L 333.4333433343334,97.37117982042072 L 331.8331833183318,96.32908023705836 L 331.68316831683165,95.31954626567608 L 331.88318831883186,94.14718423439342 L 331.78317831783176,93.26791271093143 L 331.4331433143314,92.97482220311076 L 329.88298829882984,92.84455975519046 L 329.6329632963296,92.16068190360892 L 329.58295829582954,89.55543294520301 L 329.88298829882984,88.9366863175816 L 333.68336833683367,85.41960022373364 L 334.8834883488349,85.35446899977349 L 335.2835283528353,85.582428283634 L 335.3835383538354,85.7126907315543 L 335.1835183518352,87.37353694253807 L 335.73357335733573,87.9597179581794 L 338.0838083808381,88.3179396899602 L 340.78407840784075,90.27187640876464 L 341.88418841884186,90.59753252856537 L 343.2343234323432,90.5649669165853 L 353.18531853185317,87.99228357015947 L 357.5357535753575,87.86202112223917 L 359.9359935993599,87.01531521075725 L 361.3361336133613,86.88505276283696 L 362.78627862786277,87.04788082273733 L 364.5864586458646,87.50379939045835 L 365.13651365136514,87.76432428629894 L 364.83648364836483,88.48076774986058 L 365.23652365236524,89.0669487655019 L 366.4866486648665,89.84852345302367 L 367.18671867186714,90.59753252856537 L 367.58675867586754,91.34654160410707 L 368.036803680368,98.34814817982294 L 368.3368336833683,99.16228847932479 L 368.7368736873687,99.12972286734471 L 369.08690869086905,100.92083152624878 L 368.1368136813681,101.80010304971077 L 368.4368436843684,102.09319355753144 L 369.08690869086905,101.70240621377054 L 369.2369236923692,103.49351487267461 L 368.58685868586855,105.48001720345911 L 368.5368536853685,106.2290262790008 L 369.1369136913691,107.46651953424362 L 370.38703870387036,109.12736574522738 L 370.08700870087006,109.06223452126723 L 369.08690869086905,109.4855874770082 L 367.78677867786774,110.29972777651004 L 367.036703670367,111.14643368799196 L 367.6367636763676,111.56978664373291 L 368.78687868786875,111.86287715155358 z" /><path fill-rule="evenodd" fill="#D2EBD9" stroke="#A6A6A6" stroke-width="0.25" opacity="1" d="M 333.68336833683367,85.41960022373364 L 329.88298829882984,88.9366863175816 L 329.58295829582954,89.55543294520301 L 329.6329632963296,92.16068190360892 L 329.88298829882984,92.84455975519046 L 331.4331433143314,92.97482220311076 L 331.78317831783176,93.26791271093143 L 331.88318831883186,94.14718423439342 L 331.68316831683165,95.31954626567608 L 331.8331833183318,96.32908023705836 L 333.4333433343334,97.37117982042072 L 335.5335533553355,97.92479522408198 L 335.6335633563356,98.21788573190264 L 334.8334833483348,101.73497182575062 L 334.38343834383437,102.54911212525246 L 329.3329332933293,103.49351487267461 L 328.0828082808281,103.49351487267461 L 327.43274327432744,103.91686782841556 L 326.23262326232623,103.85173660445543 L 323.9323932393239,104.47048323207682 L 323.58235823582356,105.05666424771815 L 322.9322932293229,104.86127057583771 L 321.88218821882185,105.96850138316022 L 321.9321932193219,107.27112586236316 L 321.58215821582155,107.62934759414398 L 321.1321132113211,107.66191320612405 L 320.03200320032,107.2385602503831 L 319.48194819481944,107.33625708632331 L 319.2319231923192,107.69447881810413 L 319.0819081908191,109.42045625304804 L 319.18191819181914,109.81124359680892 L 319.88198819881984,110.07176849264953 L 320.1320132013201,110.33229338849011 L 320.28202820282024,110.65794950829084 L 320.28202820282024,111.53722103175284 L 319.48194819481944,112.51418939115506 L 319.38193819381934,113.75168264639785 L 318.63186318631864,114.17503560213882 L 318.33183318331834,114.53325733391964 L 317.83178317831783,116.71515333658458 L 317.73177317731773,119.4180991309307 L 318.2818281828183,121.5348639096355 L 317.8817881788179,122.77235716487831 L 317.5817581758176,123.13057889665912 L 315.981598159816,122.9026196127986 L 313.8313831383138,123.45623501645986 L 310.1310131013101,123.58649746438016 L 309.9309930993099,123.7818911362606 L 309.33093309330934,124.33550653992185 L 308.83088308830884,125.11708122744362 L 309.03090309030904,126.3871400946665 L 308.8808880888089,126.71279621446725 L 307.93079307930793,127.85259263376983 L 306.7806780678068,128.7644297692119 L 306.2306230623062,128.69929854525174 L 303.4303430343034,126.94075549832776 L 302.38023802380235,126.94075549832776 L 300.3300330033003,128.1131175296104 L 299.8799879987999,128.1456831415905 L 299.1799179917992,127.7548957978296 L 298.5798579857986,126.94075549832776 L 297.92979297929793,125.41017173526429 L 297.8297829782978,124.17267848002149 L 298.32983298329833,123.16314450863919 L 298.42984298429843,122.57696349299786 L 298.1798179817982,122.12104492527683 L 297.2797279727973,121.43716707369528 L 297.5797579757976,120.23223943043256 L 297.6797679767977,118.86448372726944 L 297.029702970297,116.94311262044509 L 297.2297229722972,116.45462844074399 L 297.6797679767977,116.09640670896317 L 297.6297629762976,115.7056193652023 L 296.5296529652965,113.91451070629823 L 295.27952795279526,110.49512144839048 L 295.47954795479546,110.20203094056981 L 296.47964796479647,110.29972777651004 L 296.979697969797,110.16946532858974 L 297.2297229722972,109.38789064106797 L 296.8296829682968,108.73657840146649 L 294.6294629462946,106.81520729464214 L 288.3288328832883,105.48001720345911 L 287.07870787078707,105.7405420992997 L 285.8285828582858,106.55468239880155 L 285.2285228522852,106.32672311494103 L 284.07840784078405,107.07573219048273 L 282.9282928292829,107.49908514622369 L 281.7281728172817,109.02966890928715 L 280.72807280728074,109.25762819314767 L 278.0778077807781,110.42999022443033 L 277.47774777477747,110.36485900047018 L 277.027702770277,109.58328431294841 L 276.87768776877687,107.75961004206428 L 275.97759775977596,106.35928872692111 L 276.07760776077606,105.96850138316022 L 276.7276727672767,105.64284526335948 L 276.77767776777677,105.2520579195986 L 276.17761776177616,103.94943344039564 L 275.4275427542754,101.31161887000967 L 274.77747774777475,101.018528362189 L 273.1273127312731,101.11622519812921 L 271.0771077107711,102.09319355753144 L 270.72707270727074,101.73497182575062 L 270.5770577057706,100.85570030228862 L 270.0770077007701,100.46491295852775 L 266.6266626662666,99.74846949496612 L 266.3266326632663,99.48794459912553 L 266.27662766276626,99.29255092724509 L 266.5266526652665,98.83663235952405 L 268.4268426842684,96.71986758081925 L 269.2769276927693,93.52843760677202 L 269.3269326932693,92.6817316952901 L 268.27682768276827,89.84852345302367 L 268.6268626862686,88.74129264570117 L 270.1770177017702,85.64755950759415 L 282.6282628262826,85.32190338779341 L 283.57835783578355,85.77782195551444 L 284.3284328432843,86.36400297115577 L 284.47844784478445,86.72222470293659 L 284.5284528452845,87.86202112223917 L 285.07850785078506,88.08998040609968 L 286.028602860286,88.05741479411961 L 286.77867786778677,87.73175867431888 L 287.2787278727873,85.94065001541482 L 287.7787778777878,85.25677216383326 L 289.2789278927893,83.75875401274988 L 290.87908790879084,82.58639198146722 L 291.07910791079104,82.19560463770632 L 291.029102910291,80.76271771058308 L 291.27912791279124,79.81831496316094 L 291.4291429142914,79.65548690326057 L 293.37933793379335,79.13443711157939 L 294.4294429442944,79.13443711157939 L 294.87948794879486,79.29726517147975 L 298.2798279827983,81.08837383038382 L 303.18031803180315,82.0979078017661 L 305.6305630563056,80.2416679189019 L 306.4806480648065,79.88344618712108 L 306.7306730673067,79.91601179910116 L 308.8808880888089,80.79528332256315 L 310.5310531053105,82.91204810126796 L 310.98109810981094,83.17257299710855 L 311.9311931193119,83.33540105700891 L 317.2817281728173,82.3584326976067 L 317.8817881788179,81.25120189028418 L 317.981798179818,80.730152098603 L 317.7817781778178,78.80878099177865 L 318.4818481848185,78.25516558811739 L 322.48224822482246,78.3854280360377 L 322.88228822882286,78.7436497678185 L 322.9322932293229,79.88344618712108 L 324.48244824482447,79.81831496316094 L 331.4331433143314,78.05977191623695 L 332.2332233223322,78.19003436415724 L 332.8332833283328,80.69758648662292 L 333.033303330333,83.5959259528495 L 333.4333433343334,85.06137849195282 L 333.68336833683367,85.41960022373364 z" /><path fill-rule="evenodd" fill="#D2EBD9" stroke="#A6A6A6" stroke-width="0.25" opacity="1" d="M 331.4331433143314,78.05977191623695 L 324.48244824482447,79.81831496316094 L 322.9322932293229,79.88344618712108 L 322.88228822882286,78.7436497678185 L 322.48224822482246,78.3854280360377 L 318.4818481848185,78.25516558811739 L 317.7817781778178,78.80878099177865 L 317.981798179818,80.730152098603 L 317.8817881788179,81.25120189028418 L 317.2817281728173,82.3584326976067 L 311.9311931193119,83.33540105700891 L 310.98109810981094,83.17257299710855 L 310.5310531053105,82.91204810126796 L 308.8808880888089,80.79528332256315 L 306.7306730673067,79.91601179910116 L 306.4806480648065,79.88344618712108 L 305.6305630563056,80.2416679189019 L 303.18031803180315,82.0979078017661 L 298.2798279827983,81.08837383038382 L 294.87948794879486,79.29726517147975 L 294.4294429442944,79.13443711157939 L 293.37933793379335,79.13443711157939 L 291.4291429142914,79.65548690326057 L 291.27912791279124,79.81831496316094 L 291.029102910291,80.76271771058308 L 291.07910791079104,82.19560463770632 L 290.87908790879084,82.58639198146722 L 289.2789278927893,83.75875401274988 L 287.7787778777878,85.25677216383326 L 287.2787278727873,85.94065001541482 L 286.77867786778677,87.73175867431888 L 286.028602860286,88.05741479411961 L 285.07850785078506,88.08998040609968 L 284.5284528452845,87.86202112223917 L 284.47844784478445,86.72222470293659 L 284.3284328432843,86.36400297115577 L 283.57835783578355,85.77782195551444 L 282.6282628262826,85.32190338779341 L 270.1770177017702,85.64755950759415 L 269.62696269626963,85.28933777581334 L 266.77667766776676,84.6054599242318 L 265.37653765376535,83.56336034086942 L 262.47624762476244,80.63245526266279 L 261.7761776177618,80.20910230692182 L 261.12611261126114,80.20910230692182 L 260.72607260726073,79.94857741108123 L 258.2258225822582,77.14793478079488 L 258.025802580258,76.6268849891137 L 258.1258125812581,76.07326958545245 L 259.5759575957596,73.98907041872772 L 259.5259525952595,73.43545501506647 L 259.2259225922592,73.20749573120595 L 248.82488248824882,69.23449106963695 L 247.4247424742474,68.32265393419488 L 244.32443244324432,64.90326467628712 L 245.97459745974595,62.753934285602256 L 252.1252125212521,57.57600198077052 L 255.87558755875585,55.39410597810557 L 260.12601260126013,53.89608782702218 L 262.07620762076203,52.65859457177937 L 268.7268726872687,46.60139074348564 L 280.32803280328034,38.720512644307775 L 282.27822782278224,38.0692004047063 L 284.27842784278425,38.232028464606664 L 286.47864786478647,39.79517783965021 L 287.2787278727873,40.12083395945095 L 288.2788278827883,40.055702735490804 L 291.2291229122912,38.622815808367555 L 293.1293129312931,38.297159688566815 L 293.9293929392939,37.873806732825855 L 295.7295729572957,36.440919805702606 L 297.6297629762976,35.88730440204135 L 298.5798579857986,35.43138583432032 L 299.42994299429944,34.61724553481847 L 300.78007800780074,32.923833711854634 L 303.7303730373037,31.52351239671146 L 304.68046804680466,31.26298750087087 L 306.8806880688069,31.230421888890795 L 307.980798079808,30.93733138107013 L 309.03090309030904,30.416281589388948 L 310.03100310031,29.7324037378074 L 310.38103810381034,28.72286976642511 L 311.28112811281125,29.276485170086367 L 311.7311731173117,30.15575669354836 L 312.18121812181215,32.72844003997419 L 315.981598159816,36.37578858174246 L 316.981698169817,38.818209480247994 L 317.6817681768177,39.892874675590434 L 317.93179317931794,40.08826834747087 L 319.3319331933193,40.34879324331146 L 320.98209820982095,41.29319599073361 L 324.2324232423242,43.86587933715944 L 324.58245824582457,44.2892322929004 L 325.5325532553255,48.3924994023897 L 327.33273327332734,50.08591122535354 L 327.8827882788279,51.160576420695975 L 329.48294829482944,51.681626212377154 L 330.28302830283025,52.430635287918854 L 332.4332433243324,56.436205561467936 L 333.3333333333333,57.02238657710926 L 334.1334133413341,57.120083413049485 L 335.3835383538354,56.76186168126867 L 336.03360336033603,56.110549441667196 L 336.3836383638364,55.9802869937469 L 336.53365336533653,56.273377501567566 L 336.5836583658366,57.217780248989705 L 337.1837183718372,58.29244544433214 L 337.2837283728373,58.78092962403325 L 337.03370337033704,59.72533237145539 L 337.1837183718372,61.19078491055871 L 336.3836383638364,62.851631121542475 L 335.983598359836,65.0660927361875 L 336.0836083608361,65.65227375182883 L 336.43364336433643,66.14075793152993 L 337.13371337133714,66.53154527529082 L 339.6339633963396,66.72693894717126 L 340.58405840584055,67.24798873885244 L 340.38403840384035,68.22495709825466 L 340.7340734073407,71.12329656448122 L 340.68406840684065,71.6443463561624 L 340.4340434043404,72.10026492388344 L 339.5339533953395,72.06769931190337 L 339.033903390339,72.81670838744506 L 337.8837883788379,73.2726269551661 L 335.4835483548355,73.37032379110632 L 331.98319831983196,74.6403826583292 L 331.18311831183115,75.3893917338709 L 330.9330933093309,76.8874098849543 L 331.08310831083105,77.70155018445614 L 331.4331433143314,78.05977191623695 z" /><path fill-rule="evenodd" fill="#D2EBD9" stroke="#A6A6A6" stroke-width="0.25" opacity="1" d="M 340.58405840584055,67.24798873885244 L 339.6339633963396,66.72693894717126 L 337.13371337133714,66.53154527529082 L 336.43364336433643,66.14075793152993 L 336.0836083608361,65.65227375182883 L 335.983598359836,65.0660927361875 L 336.3836383638364,62.851631121542475 L 337.1837183718372,61.19078491055871 L 337.03370337033704,59.72533237145539 L 337.2837283728373,58.78092962403325 L 337.1837183718372,58.29244544433214 L 336.5836583658366,57.217780248989705 L 336.53365336533653,56.273377501567566 L 336.3836383638364,55.9802869937469 L 336.03360336033603,56.110549441667196 L 335.3835383538354,56.76186168126867 L 334.1334133413341,57.120083413049485 L 333.3333333333333,57.02238657710926 L 332.4332433243324,56.436205561467936 L 330.28302830283025,52.430635287918854 L 329.48294829482944,51.681626212377154 L 327.8827882788279,51.160576420695975 L 327.33273327332734,50.08591122535354 L 325.5325532553255,48.3924994023897 L 324.58245824582457,44.2892322929004 L 324.2324232423242,43.86587933715944 L 320.98209820982095,41.29319599073361 L 319.3319331933193,40.34879324331146 L 317.93179317931794,40.08826834747087 L 317.6817681768177,39.892874675590434 L 316.981698169817,38.818209480247994 L 315.981598159816,36.37578858174246 L 312.18121812181215,32.72844003997419 L 311.7311731173117,30.15575669354836 L 311.28112811281125,29.276485170086367 L 310.38103810381034,28.72286976642511 L 310.68106810681064,27.94129507890334 L 309.5809580958096,25.857095912178615 L 307.980798079808,23.740331133473816 L 306.980698069807,21.916656862589683 L 306.8806880688069,20.483769935466434 L 307.0807080708071,17.585430469239864 L 306.980698069807,16.119977930136542 L 306.3306330633063,13.644991419650932 L 306.2306230623062,12.34236694044798 L 306.6306630663066,11.300267357085616 L 307.6807680768077,10.323298997683402 L 307.7807780778078,9.737117982042072 L 307.33073307330733,8.9555432945203 L 306.3306330633063,7.783181263237643 L 306.2806280628063,7.099303411656093 L 306.980698069807,6.545688007994838 L 307.53075307530753,6.741081679875281 L 308.980898089809,6.708516067895207 L 310.9310931093109,5.8943757683933615 L 312.08120812081205,5.7966789324531405 L 313.28132813281326,6.513122396014764 L 317.0817081708171,6.6759504559151335 L 319.7319731973197,7.32726269551661 L 321.1321132113211,7.294697083536536 L 323.8323832383238,5.6989820965129185 L 324.28242824282427,4.103267109489302 L 324.58245824582457,3.5496517058280466 L 325.1325132513251,3.1588643620671606 L 326.43264326432643,2.6703801823660536 L 327.03270327032703,2.1167647787047983 L 327.8827882788279,0.2605248958405906 L 328.53285328532854,0.0 L 329.18291829182914,0.1302624479202953 L 330.28302830283025,0.8467059114819193 L 332.38323832383236,1.270058867222879 L 333.5333533353335,1.9865023307845031 L 335.033503350335,3.3868236459276773 L 335.6335633563356,3.5496517058280466 L 336.2836283628363,3.2239955860273084 L 336.83368336833684,1.6934118229638386 L 337.33373337333734,1.270058867222879 L 337.63376337633764,1.4003213151431744 L 338.2338233823382,2.2795928386051676 L 339.4339433943394,2.5075521224656843 L 340.68406840684065,1.7585430469239864 L 342.7342734273427,1.628280599003691 L 343.2343234323432,1.3026244792029529 L 343.58435843584357,0.8141402995018455 L 343.68436843684367,0.1302624479202953 L 344.7344734473447,2.9960363021667917 L 344.8844884488449,4.3312263933498185 L 344.7844784478448,5.861810156413288 L 344.1844184418442,8.760149622639858 L 344.2844284428443,10.290733385703328 L 345.13451345134513,12.570326224308495 L 346.3846384638464,14.719656614993367 L 347.88478847884784,16.64102772181772 L 349.4349434943494,18.139045872901118 L 351.5351535153515,21.102516563087836 L 352.4352435243524,22.795928386051674 L 353.6353635363536,26.57353937574024 L 354.1854185418542,27.094589167421418 L 356.8856885688569,27.713335795042823 L 357.3357335733573,28.071557526823636 L 357.88578857885784,29.7324037378074 L 359.38593859385935,32.174824636312934 L 360.1360136013601,34.22645819105759 L 360.58605860586056,36.37578858174246 L 360.48604860486046,37.808675508865704 L 359.7359735973597,38.94847192816829 L 357.4357435743574,41.00010548291294 L 355.93559355935594,41.84681139439486 L 355.43554355435543,42.36786118607604 L 354.3854385438544,44.354363516860545 L 353.2353235323532,45.42902871220298 L 352.9352935293529,45.98264411586424 L 352.6352635263526,48.2622369544694 L 351.68516851685166,49.825386329512945 L 351.7351735173517,52.78885701969966 L 351.18511851185116,55.622065261966085 L 351.4351435143514,56.17568066562734 L 352.28522852285226,56.92468974116904 L 352.3352335233523,57.34804269691 L 351.9351935193519,58.42270789225244 L 352.035203520352,59.20428257977421 L 352.38523852385237,59.43224186363472 L 353.5353535353535,59.52993869957495 L 354.035403540354,59.823029207395614 L 354.4854485448545,60.2138165511565 L 355.13551355135513,61.35361297045908 L 355.13551355135513,62.167753269960926 L 354.83548354835483,62.9493279574827 L 354.035403540354,64.1868212127255 L 353.035303530353,66.36871721539045 L 352.58525852585257,66.9223326190517 L 352.3352335233523,66.98746384301185 L 351.6351635163516,66.9223326190517 L 350.68506850685066,66.40128282737052 L 350.18501850185015,66.46641405133067 L 349.5349534953495,67.052595066972 L 348.58485848584854,67.21542312687237 L 345.5845584558456,66.17332354351001 L 344.7844784478448,66.14075793152993 L 341.08410841084105,66.75950455915134 L 340.58405840584055,67.24798873885244 z" /><path fill-rule="evenodd" fill="#D2EBD9" stroke="#A6A6A6" stroke-width="0.25" opacity="1" d="M 176.2176217621762,240.75756936868578 L 174.96749674967495,241.24605354838687 L 157.5157515751575,261.40416736405257 L 150.96509650965095,268.50347077570865 L 149.26492649264927,271.27154779401496 L 148.6148614861486,275.3096836795441 L 148.1148114811481,276.38434887488654 L 147.3147314731473,277.2310547863685 L 113.56135613561355,299.76645827657956 L 75.9075907590759,325.2002012330172 L 75.1075107510751,325.558422964798 L 74.4074407440744,325.62355418875813 L 70.3070307030703,324.4511921574755 L 47.4047404740474,317.5472824176998 L 0.0,302.3065760110253 L 0.1000100010001,155.59849404079273 L 23.8023802380238,154.32843517356983 L 30.1030103010301,152.9932450823868 L 30.7030703070307,153.31890120218756 L 31.55315531553155,154.94718180119125 L 32.15321532153215,155.6310596527728 L 34.1034103410341,156.7382904600953 L 34.45344534453445,157.12907780385618 L 34.5034503450345,157.42216831167684 L 32.85328532853285,157.94321810335805 L 32.003200320032,158.46426789503923 L 31.35313531353135,159.18071135860083 L 30.4030403040304,161.19977930136542 L 30.15301530153015,164.78199661917353 L 29.852985298529852,165.79153059055582 L 29.2029202920292,166.86619578589827 L 28.65286528652865,168.26651710104144 L 29.002900290029,172.20695615063036 L 28.35283528352835,175.30068928873737 L 28.35283528352835,176.7987074398208 L 29.2029202920292,177.93850385912336 L 32.003200320032,179.27369395030638 L 33.2033203320332,180.18553108574847 L 34.25342534253425,181.78124607277206 L 35.85358535853585,184.80984798691895 L 38.2038203820382,187.12200643750418 L 40.954095409540955,188.4571965286872 L 43.75437543754375,188.5874589766075 L 47.85478547854785,187.87101551304588 L 49.204920492049204,188.13154040888648 L 51.4051405140514,189.0759431563086 L 53.35533553355335,188.97824632036838 L 53.955395539553955,189.1085087682887 L 54.6054605460546,189.56442733600971 L 53.905390539053904,190.9647486511529 L 54.155415541554156,191.48579844283407 L 55.255525552555255,191.84402017461488 L 55.65556555655565,192.332504354316 L 56.85568556855685,195.0354501486621 L 57.1057105710571,195.97985289608425 L 57.05570557055705,196.56603391172558 L 56.455645564556455,197.9337896148887 L 56.255625562556254,198.97588919825105 L 56.75567556755675,199.39924215399202 L 57.555755575557555,199.75746388577284 L 58.855885588558856,201.45087570873667 L 59.4059405940594,201.71140060457725 L 60.7060706070607,201.80909744051746 L 61.256125612561256,201.61370376863704 L 62.356235623562355,200.18081684151377 L 62.8062806280628,199.9202919456732 L 63.306330633063304,199.95285755765326 L 64.85648564856486,200.50647296131453 L 65.5065506550655,200.4087761253743 L 68.4068406840684,199.0410204222112 L 69.4069406940694,198.2920113466695 L 70.15701570157016,197.28247737528721 L 70.45704570457045,195.88215606014404 L 70.15701570157016,193.89565372935954 L 70.5070507050705,193.34203832569827 L 71.007100710071,193.24434148975806 L 72.85728572857285,193.50486638559866 L 73.2073207320732,193.73282566945917 L 73.3073307330733,194.0584817892599 L 73.2073207320732,194.41670352104072 L 71.7071707170717,196.11011534400456 L 69.5069506950695,199.62720143785253 L 68.75687568756875,201.48344132071674 L 67.85678567856786,202.85119702387985 L 66.8066806680668,203.6653373233817 L 63.15631563156315,205.35874914634553 L 62.65626562656265,205.8797989380267 L 62.456245624562456,206.6288080135684 L 62.75627562756275,207.21498902920973 L 63.256325632563254,207.6057763729706 L 66.45664566456645,209.20149135999424 L 67.15671567156716,209.20149135999424 L 70.3070307030703,207.89886688079127 L 71.8071807180718,207.57321076099055 L 73.3073307330733,207.4755139250503 L 74.50745074507451,207.83373565683112 L 75.1075107510751,208.97353207613372 L 75.5075507550755,212.3277901100813 L 76.05760576057605,213.2396272455234 L 76.75767576757676,212.81627428978243 L 83.008300830083,205.42388037030568 L 84.95849584958495,203.60020609942154 L 87.008700870087,202.68836896397946 L 88.3088308830883,202.46040968011894 L 89.15891589158916,202.49297529209903 L 90.85908590859086,203.1442875317005 L 91.60916091609161,203.20941875566064 L 92.3092309230923,202.7860657999197 L 94.15941594159415,200.83212908111526 L 94.55945594559455,200.18081684151377 L 94.85948594859485,199.43180776597208 L 95.2095209520952,196.40320585182522 L 95.55955595559556,195.6867623882636 L 96.40964096409641,195.23084382054256 L 97.9097909790979,195.0680157606422 L 98.55985598559856,194.84005647678168 L 99.75997599759975,193.60256322153887 L 100.46004600460046,193.3094727137182 L 101.96019601960195,193.27690710173815 L 108.11081108110811,194.22130984916026 L 110.66106610661066,193.99335056529975 L 111.96119611961196,194.1561786252001 L 113.26132613261325,193.99335056529975 L 114.2114211421142,192.98381659391748 L 115.01150115011501,191.71375772669458 L 116.011601160116,190.80192059125253 L 118.011801180118,189.89008345581047 L 118.36183618361835,189.36903366412926 L 118.26182618261825,188.7177214245278 L 116.7116711671167,187.77331867710566 L 116.4116411641164,185.94964440622152 L 117.01170117011701,184.02827329939717 L 117.06170617061706,182.46512392435363 L 114.81148114811481,181.6509836248518 L 114.5114511451145,181.26019628109088 L 114.46144614461446,180.7391464894097 L 114.76147614761476,180.18553108574847 L 115.16151615161516,179.990137413868 L 116.7116711671167,180.05526863782816 L 119.76197619761976,178.8829066065455 L 120.6120612061206,178.16646314298387 L 121.26212621262125,177.12436355962151 L 121.6121612161216,177.5151509033824 L 121.96219621962196,178.3944224268444 L 121.46214621462146,179.82730935396765 L 121.56215621562156,180.02270302584807 L 122.21222122212221,180.25066230970862 L 123.012301230123,180.28322792168868 L 123.6123612361236,180.54375281752928 L 125.8125812581258,182.17203341653297 L 126.26262626262626,182.26973025247318 L 127.21272127212721,181.6184180128717 L 128.66286628662866,181.22763066911082 L 130.11301130113011,181.09736822119052 L 130.51305130513052,180.7391464894097 L 130.61306130613062,178.16646314298387 L 131.6131613161316,176.34278887209976 L 131.96319631963195,175.33325490071746 L 133.16331633163315,173.34675256993296 L 133.66336633663366,173.0210964501322 L 135.71357135713572,172.7931371662717 L 136.16361636163614,172.53261227043112 L 136.96369636963695,170.38328187974625 L 137.7137713771377,169.0480917885632 L 138.66386638663866,167.97342659322078 L 145.56455645564554,161.7208290930466 L 146.3146314631463,161.55800103314624 L 147.014701470147,161.16721368938533 L 148.96489648964896,159.18071135860083 L 151.3151315131513,158.5945303429595 L 151.86518651865185,158.26887422315878 L 153.4153415341534,156.54289678821488 L 153.76537653765376,155.9892813845536 L 154.11541154115412,154.84948496525104 L 155.4155415541554,154.23073833762962 L 156.16561656165615,154.29586956158977 L 156.66566656665665,154.68665690535065 L 157.8157815781578,156.93368413197575 L 158.3158315831583,157.487299535637 L 159.26592659265927,158.1060461632584 L 159.86598659865984,158.2363086111787 L 161.4161416141614,158.2363086111787 L 167.016701670167,156.90111851999566 L 169.7169716971697,155.5007972048525 L 171.4171417141714,154.16560711366947 L 176.36763676367636,148.69458430101707 L 179.96799679967995,142.99560220450417 L 180.8180818081808,142.63738047272335 L 182.36823682368237,143.12586465242444 L 188.96889688968895,146.2847290144916 L 188.9188918891889,146.83834441815287 L 180.66806680668066,158.366571059099 L 168.16681668166817,175.56121418457798 L 167.91679167916791,176.08226397625916 L 167.91679167916791,176.60331376794034 L 168.56685668566857,177.1569291716016 L 174.8174817481748,180.67401526544955 L 175.26752675267525,181.26019628109088 L 171.36713671367136,188.62002458858757 L 171.3171317131713,189.4667305000695 L 171.96719671967196,197.64069910706803 L 173.56735673567357,201.41831009675658 L 188.96889688968895,230.7599264908031 L 189.1189118911891,231.6391980142651 L 188.66886688668865,231.89972291010568 L 180.8180818081808,234.08161891277064 L 179.3179317931793,235.41680900395366 L 176.2176217621762,240.75756936868578 z" /><path fill-rule="evenodd" fill="#D2EBD9" stroke="#A6A6A6" stroke-width="0.25" opacity="1" d="M 313.9313931393139,149.08537164477795 L 313.18131813181316,149.2807653166584 L 311.88118811881185,150.87648030368203 L 307.53075307530753,171.9138656428097 L 306.5306530653065,181.78124607277206 L 305.98059805980597,181.94407413267245 L 292.37923792379235,181.94407413267245 L 292.1292129212921,182.13946780455288 L 292.029202920292,182.56282076029385 L 292.27922792279224,197.9012240029086 L 292.4292429242924,198.42227379458978 L 293.1293129312931,198.71536430241045 L 293.4293429342934,199.36667654201193 L 294.8294829482948,221.15307095668132 L 286.4286428642864,216.59388527947098 L 285.87858785878586,216.65901650343113 L 277.77777777777777,233.3977410611891 L 276.6276627662766,234.43984064455145 L 270.62706270627064,238.18488602225995 L 267.7267726772677,241.27861916036696 L 261.4761476147615,249.4525877673655 L 260.52605260526053,250.33185929082748 L 259.5759575957596,250.49468735072784 L 258.5258525852585,250.10390000696697 L 247.07470747074706,243.7210400588725 L 246.07460746074605,243.42794955105182 L 210.57105710571057,246.65194513707914 L 191.96919691969197,243.62334322293225 L 176.2176217621762,240.75756936868578 L 179.3179317931793,235.41680900395366 L 180.8180818081808,234.08161891277064 L 188.66886688668865,231.89972291010568 L 189.1189118911891,231.6391980142651 L 188.96889688968895,230.7599264908031 L 173.56735673567357,201.41831009675658 L 171.96719671967196,197.64069910706803 L 171.3171317131713,189.4667305000695 L 171.36713671367136,188.62002458858757 L 175.26752675267525,181.26019628109088 L 174.8174817481748,180.67401526544955 L 168.56685668566857,177.1569291716016 L 167.91679167916791,176.60331376794034 L 167.91679167916791,176.08226397625916 L 168.16681668166817,175.56121418457798 L 180.66806680668066,158.366571059099 L 190.96909690969096,162.27444449670784 L 193.4193419341934,162.20931327274772 L 195.06950695069506,158.78992401483995 L 199.96999699969996,153.0258106943669 L 203.87038703870385,146.0567697306311 L 204.57045704570456,145.6659823868702 L 207.17071707170717,145.0472357592488 L 210.97109710971097,143.58178322014547 L 215.47154715471547,141.04166548569972 L 224.2224222422242,135.63577389700748 L 224.87248724872487,134.46341186572482 L 225.97259725972597,133.38874667038237 L 225.92259225922592,132.63973759484068 L 229.37293729372936,133.8446652381034 L 231.47314731473145,136.9709639881905 L 233.17331733173316,140.5857469179787 L 233.7233723372337,141.3347559935204 L 234.27342734273427,141.79067456124142 L 234.87348734873487,142.01863384510193 L 235.42354235423542,141.85580578520157 L 235.97359735973595,141.36732160550045 L 236.57365736573655,140.48805008203846 L 236.77367736773675,136.64530786838975 L 237.17371737173715,135.79860195690785 L 238.4238423842384,135.37524900116688 L 246.3246324632463,134.43084625374473 L 246.97469746974696,135.04959288136615 L 247.87478747874786,138.4689821392739 L 249.37493749374937,139.15285999085543 L 253.22532253225322,139.31568805075582 L 254.52545254525452,139.5762129465964 L 255.4255425542554,139.99956590233737 L 256.37563756375636,141.3347559935204 L 256.7256725672567,141.26962476956024 L 256.97569756975696,140.35778763411818 L 257.57575757575756,136.4824798084894 L 258.27582758275827,134.33314941780452 L 259.2759275927593,133.4864435063226 L 260.2760276027603,132.90026249068126 L 263.17631763176314,132.21638463909972 L 271.97719771977194,131.59763801147832 L 273.37733773377335,131.9884253552392 L 272.67726772677264,129.61113568069382 L 272.57725772577254,128.63416732129159 L 272.47724772477244,127.6246333499093 L 272.67726772677264,125.01938439150341 L 270.4770477047705,125.37760612328421 L 269.97699769977,125.08451561546354 L 269.62696269626963,124.59603143576244 L 268.7768776877688,121.69769196953587 L 267.6267626762676,120.427633102313 L 266.97669766976696,118.34343393558827 L 266.6266626662666,117.6921216959868 L 263.2263226322632,117.72468730796686 L 262.57625762576254,117.95264659182739 L 261.32613261326134,118.86448372726944 L 260.7760776077608,119.02731178716982 L 259.1259125912591,118.86448372726944 L 258.6258625862586,118.60395883142886 L 258.37583758375837,118.24573709964805 L 258.2258225822582,117.20363751628568 L 258.37583758375837,116.48719405272406 L 259.1259125912591,115.73818497718236 L 258.6258625862586,114.30529805005912 L 258.2258225822582,114.01220754223846 L 258.2258225822582,113.75168264639785 L 259.8759875987599,111.76518031561336 L 259.97599759976,111.40695858383255 L 258.9258925892589,111.24413052393217 L 258.5258525852585,110.9510400161115 L 258.2258225822582,110.9510400161115 L 257.77577757775776,110.56025267235063 L 256.025602560256,107.17342902642295 L 254.97549754975495,106.32672311494103 L 253.17531753175317,105.51258281543919 L 252.97529752975296,104.991533023758 L 251.67516751675166,103.39581803673438 L 250.8250825082508,101.3767500939698 L 251.27512751275125,100.43234734654767 L 253.37533753375337,97.50144226834102 L 255.57555755575555,96.19881778913808 L 255.8255825582558,95.31954626567608 L 256.27562756275626,95.09158698181557 L 256.8256825682568,95.05902136983549 L 258.07580758075807,95.64520238547682 L 258.5258525852585,95.58007116151667 L 258.77587758775877,95.12415259379563 L 262.27622762276224,93.49587199479194 L 262.77627762776274,92.61660047132995 L 263.026302630263,91.76989455984803 L 263.1263126312631,90.33700763272478 L 263.37633763376334,89.52286733322293 L 265.07650765076505,88.70872703372109 L 266.17661766176616,87.34097133055799 L 266.6266626662666,85.90808440343474 L 266.77667766776676,84.6054599242318 L 269.62696269626963,85.28933777581334 L 270.1770177017702,85.64755950759415 L 268.6268626862686,88.74129264570117 L 268.27682768276827,89.84852345302367 L 269.3269326932693,92.6817316952901 L 269.2769276927693,93.52843760677202 L 268.4268426842684,96.71986758081925 L 266.5266526652665,98.83663235952405 L 266.27662766276626,99.29255092724509 L 266.3266326632663,99.48794459912553 L 266.6266626662666,99.74846949496612 L 270.0770077007701,100.46491295852775 L 270.5770577057706,100.85570030228862 L 270.72707270727074,101.73497182575062 L 271.0771077107711,102.09319355753144 L 273.1273127312731,101.11622519812921 L 274.77747774777475,101.018528362189 L 275.4275427542754,101.31161887000967 L 276.17761776177616,103.94943344039564 L 276.77767776777677,105.2520579195986 L 276.7276727672767,105.64284526335948 L 276.07760776077606,105.96850138316022 L 275.97759775977596,106.35928872692111 L 276.87768776877687,107.75961004206428 L 277.027702770277,109.58328431294841 L 277.47774777477747,110.36485900047018 L 278.0778077807781,110.42999022443033 L 280.72807280728074,109.25762819314767 L 281.7281728172817,109.02966890928715 L 282.9282928292829,107.49908514622369 L 284.07840784078405,107.07573219048273 L 285.2285228522852,106.32672311494103 L 285.8285828582858,106.55468239880155 L 287.07870787078707,105.7405420992997 L 288.3288328832883,105.48001720345911 L 294.6294629462946,106.81520729464214 L 296.8296829682968,108.73657840146649 L 297.2297229722972,109.38789064106797 L 296.979697969797,110.16946532858974 L 296.47964796479647,110.29972777651004 L 295.47954795479546,110.20203094056981 L 295.27952795279526,110.49512144839048 L 296.5296529652965,113.91451070629823 L 297.6297629762976,115.7056193652023 L 297.6797679767977,116.09640670896317 L 297.2297229722972,116.45462844074399 L 297.029702970297,116.94311262044509 L 297.6797679767977,118.86448372726944 L 297.5797579757976,120.23223943043256 L 297.2797279727973,121.43716707369528 L 298.1798179817982,122.12104492527683 L 298.42984298429843,122.57696349299786 L 298.32983298329833,123.16314450863919 L 297.8297829782978,124.17267848002149 L 297.92979297929793,125.41017173526429 L 298.5798579857986,126.94075549832776 L 299.1799179917992,127.7548957978296 L 299.8799879987999,128.1456831415905 L 300.3300330033003,128.1131175296104 L 302.38023802380235,126.94075549832776 L 303.4303430343034,126.94075549832776 L 306.2306230623062,128.69929854525174 L 306.7806780678068,128.7644297692119 L 307.93079307930793,127.85259263376983 L 308.8808880888089,126.71279621446725 L 309.03090309030904,126.3871400946665 L 308.83088308830884,125.11708122744362 L 309.33093309330934,124.33550653992185 L 309.9309930993099,123.7818911362606 L 314.38143814381436,132.47690953494032 L 315.18151815181517,134.52854308968494 L 314.2314231423142,136.51504542046945 L 314.3314331433143,138.2084572434333 L 314.1314131413141,138.8272038710547 L 311.3311331133113,139.6739097825366 L 310.78107810781074,140.03213151431743 L 310.28102810281024,140.84627181381927 L 309.7309730973097,146.4149914624119 L 310.1310131013101,146.90347564211302 L 310.3310331033103,147.48965665775435 L 313.9313931393139,148.95510919685765 L 313.9313931393139,149.08537164477795 z" /><path fill-rule="evenodd" fill="#D2EBD9" stroke="#A6A6A6" stroke-width="0.25" opacity="1" d="M 121.26212621262125,177.12436355962151 L 122.06220622062206,176.1473952002193 L 123.8123812381238,175.0075987809167 L 124.46244624462446,173.99806480953444 L 124.51245124512451,173.44444940587317 L 124.16241624162416,172.923399614192 L 123.7123712371237,172.89083400221193 L 122.16221622162216,173.77010552567393 L 121.06210621062105,174.1283272574547 L 120.16201620162016,174.0306304215145 L 119.36193619361936,173.47701501785326 L 118.6118611861186,172.4023498225108 L 118.86188618861885,171.0345941193477 L 119.76197619761976,169.3086166844038 L 121.7121712171217,166.54053966609752 L 121.96219621962196,165.85666181451597 L 121.56215621562156,165.3356120228348 L 120.36203620362035,164.74943100719346 L 119.86198619861986,164.29351243947244 L 119.46194619461946,163.77246264779126 L 119.26192619261926,163.0885847962097 L 118.9118911891189,159.9622860461226 L 119.1119111911191,159.05044891068056 L 119.91199119911991,158.2363086111787 L 125.9125912591259,155.1425754730717 L 127.66276627662765,153.83995099386874 L 129.2129212921292,152.2768016188252 L 130.06300630063006,151.65805499120378 L 131.06310631063104,151.36496448338312 L 132.8132813281328,151.3975300953632 L 136.36363636363635,152.60245773862593 L 142.2142214221422,152.96067947040675 L 144.26442644264426,152.47219529070563 L 145.66456645664564,151.0067427516023 L 146.56465646564655,152.34193284278533 L 146.96469646964695,151.56035815526357 L 149.16491649164917,151.82088305110415 L 152.16521652165216,149.70411827239937 L 153.36533653365336,149.21563409269825 L 154.46544654465447,149.2481997046783 L 155.46554655465545,149.76924949635952 L 156.3156315631563,150.6485210198215 L 156.86568656865686,151.8860142750643 L 157.56575657565756,152.2768016188252 L 157.86578657865786,153.6445573219883 L 158.26582658265826,154.45869762149013 L 158.91589158915892,154.7843537412909 L 159.96599659965995,154.65409129337058 L 162.8162816281628,153.9050822178289 L 165.3165316531653,152.79785141050638 L 171.86718671867186,148.01070644943553 L 172.4172417241724,147.35939420983405 L 174.56745674567455,143.77717689202592 L 174.9174917491749,142.34428996490269 L 174.96749674967495,139.60877855857646 L 175.1175117511751,139.05516315491522 L 174.9174917491749,138.76207264709456 L 176.1176117611761,134.78906798552555 L 176.7176717671767,132.21638463909972 L 178.31783178317832,130.0996198603949 L 178.9178917891789,127.7548957978296 L 180.56805680568056,125.11708122744362 L 180.86808680868086,124.17267848002149 L 186.91869186918692,131.7279004593986 L 188.4188418841884,135.01702726938606 L 188.06880688068807,136.31965174858902 L 187.11871187118712,137.78510428769235 L 182.36823682368237,143.12586465242444 L 180.8180818081808,142.63738047272335 L 179.96799679967995,142.99560220450417 L 176.36763676367636,148.69458430101707 L 171.4171417141714,154.16560711366947 L 169.7169716971697,155.5007972048525 L 167.016701670167,156.90111851999566 L 161.4161416141614,158.2363086111787 L 159.86598659865984,158.2363086111787 L 159.26592659265927,158.1060461632584 L 158.3158315831583,157.487299535637 L 157.8157815781578,156.93368413197575 L 156.66566656665665,154.68665690535065 L 156.16561656165615,154.29586956158977 L 155.4155415541554,154.23073833762962 L 154.11541154115412,154.84948496525104 L 153.76537653765376,155.9892813845536 L 153.4153415341534,156.54289678821488 L 151.86518651865185,158.26887422315878 L 151.3151315131513,158.5945303429595 L 148.96489648964896,159.18071135860083 L 147.014701470147,161.16721368938533 L 146.3146314631463,161.55800103314624 L 145.56455645564554,161.7208290930466 L 138.66386638663866,167.97342659322078 L 137.7137713771377,169.0480917885632 L 136.96369636963695,170.38328187974625 L 136.16361636163614,172.53261227043112 L 135.71357135713572,172.7931371662717 L 133.66336633663366,173.0210964501322 L 133.16331633163315,173.34675256993296 L 131.96319631963195,175.33325490071746 L 131.6131613161316,176.34278887209976 L 130.61306130613062,178.16646314298387 L 130.51305130513052,180.7391464894097 L 130.11301130113011,181.09736822119052 L 128.66286628662866,181.22763066911082 L 127.21272127212721,181.6184180128717 L 126.26262626262626,182.26973025247318 L 125.8125812581258,182.17203341653297 L 123.6123612361236,180.54375281752928 L 123.012301230123,180.28322792168868 L 122.21222122212221,180.25066230970862 L 121.56215621562156,180.02270302584807 L 121.46214621462146,179.82730935396765 L 121.96219621962196,178.3944224268444 L 121.6121612161216,177.5151509033824 L 121.26212621262125,177.12436355962151 z" /><path fill-rule="evenodd" fill="#D2EBD9" stroke="#A6A6A6" stroke-width="0.25" opacity="1" d="M 180.86808680868086,124.17267848002149 L 180.96809680968096,123.9121535841809 L 181.6181618161816,123.45623501645986 L 183.01830183018302,123.0328820607189 L 185.4185418541854,121.63256074557573 L 185.66856685668566,121.30690462577499 L 185.76857685768576,119.6786240267713 L 186.91869186918692,116.78028456054473 L 187.16871687168717,114.2076012141189 L 188.06880688068807,112.28623010729454 L 188.2188218821882,111.4720898077927 L 187.66876687668767,109.25762819314767 L 188.26882688268824,106.26159189098088 L 188.56885688568855,105.21949230761852 L 190.66906690669066,102.58167773723254 L 192.66926692669267,100.72543785436834 L 218.4218421842184,82.29330147364655 L 220.27202720272027,80.53475842672256 L 223.37233723372336,76.1384008094126 L 225.17251725172517,74.31472653852846 L 237.1237123712371,65.71740497578897 L 238.023802380238,65.26148640806794 L 238.87388738873886,65.09865834816758 L 239.62396239623962,65.26148640806794 L 241.87418741874185,66.40128282737052 L 242.77427742774276,66.49897966331075 L 243.47434743474346,66.0430610955897 L 244.32443244324432,64.90326467628712 L 247.4247424742474,68.32265393419488 L 248.82488248824882,69.23449106963695 L 259.2259225922592,73.20749573120595 L 259.5259525952595,73.43545501506647 L 259.5759575957596,73.98907041872772 L 258.1258125812581,76.07326958545245 L 258.025802580258,76.6268849891137 L 258.2258225822582,77.14793478079488 L 260.72607260726073,79.94857741108123 L 261.12611261126114,80.20910230692182 L 261.7761776177618,80.20910230692182 L 262.47624762476244,80.63245526266279 L 265.37653765376535,83.56336034086942 L 266.77667766776676,84.6054599242318 L 266.6266626662666,85.90808440343474 L 266.17661766176616,87.34097133055799 L 265.07650765076505,88.70872703372109 L 263.37633763376334,89.52286733322293 L 263.1263126312631,90.33700763272478 L 263.026302630263,91.76989455984803 L 262.77627762776274,92.61660047132995 L 262.27622762276224,93.49587199479194 L 258.77587758775877,95.12415259379563 L 258.5258525852585,95.58007116151667 L 258.07580758075807,95.64520238547682 L 256.8256825682568,95.05902136983549 L 256.27562756275626,95.09158698181557 L 255.8255825582558,95.31954626567608 L 255.57555755575555,96.19881778913808 L 253.37533753375337,97.50144226834102 L 251.27512751275125,100.43234734654767 L 250.8250825082508,101.3767500939698 L 251.67516751675166,103.39581803673438 L 252.97529752975296,104.991533023758 L 253.17531753175317,105.51258281543919 L 254.97549754975495,106.32672311494103 L 256.025602560256,107.17342902642295 L 257.77577757775776,110.56025267235063 L 258.2258225822582,110.9510400161115 L 258.5258525852585,110.9510400161115 L 258.9258925892589,111.24413052393217 L 259.97599759976,111.40695858383255 L 259.8759875987599,111.76518031561336 L 258.2258225822582,113.75168264639785 L 258.2258225822582,114.01220754223846 L 258.6258625862586,114.30529805005912 L 259.1259125912591,115.73818497718236 L 258.37583758375837,116.48719405272406 L 258.2258225822582,117.20363751628568 L 258.37583758375837,118.24573709964805 L 258.6258625862586,118.60395883142886 L 259.1259125912591,118.86448372726944 L 260.7760776077608,119.02731178716982 L 261.32613261326134,118.86448372726944 L 262.57625762576254,117.95264659182739 L 263.2263226322632,117.72468730796686 L 266.6266626662666,117.6921216959868 L 266.97669766976696,118.34343393558827 L 267.6267626762676,120.427633102313 L 268.7768776877688,121.69769196953587 L 269.62696269626963,124.59603143576244 L 269.97699769977,125.08451561546354 L 270.4770477047705,125.37760612328421 L 272.67726772677264,125.01938439150341 L 272.47724772477244,127.6246333499093 L 272.57725772577254,128.63416732129159 L 272.67726772677264,129.61113568069382 L 273.37733773377335,131.9884253552392 L 271.97719771977194,131.59763801147832 L 263.17631763176314,132.21638463909972 L 260.2760276027603,132.90026249068126 L 259.2759275927593,133.4864435063226 L 258.27582758275827,134.33314941780452 L 257.57575757575756,136.4824798084894 L 256.97569756975696,140.35778763411818 L 256.7256725672567,141.26962476956024 L 256.37563756375636,141.3347559935204 L 255.4255425542554,139.99956590233737 L 254.52545254525452,139.5762129465964 L 253.22532253225322,139.31568805075582 L 249.37493749374937,139.15285999085543 L 247.87478747874786,138.4689821392739 L 246.97469746974696,135.04959288136615 L 246.3246324632463,134.43084625374473 L 238.4238423842384,135.37524900116688 L 237.17371737173715,135.79860195690785 L 236.77367736773675,136.64530786838975 L 236.57365736573655,140.48805008203846 L 235.97359735973595,141.36732160550045 L 235.42354235423542,141.85580578520157 L 234.87348734873487,142.01863384510193 L 234.27342734273427,141.79067456124142 L 233.7233723372337,141.3347559935204 L 233.17331733173316,140.5857469179787 L 231.47314731473145,136.9709639881905 L 229.37293729372936,133.8446652381034 L 225.92259225922592,132.63973759484068 L 225.97259725972597,133.38874667038237 L 224.87248724872487,134.46341186572482 L 224.2224222422242,135.63577389700748 L 215.47154715471547,141.04166548569972 L 210.97109710971097,143.58178322014547 L 207.17071707170717,145.0472357592488 L 204.57045704570456,145.6659823868702 L 203.87038703870385,146.0567697306311 L 199.96999699969996,153.0258106943669 L 195.06950695069506,158.78992401483995 L 193.4193419341934,162.20931327274772 L 190.96909690969096,162.27444449670784 L 180.66806680668066,158.366571059099 L 188.9188918891889,146.83834441815287 L 188.96889688968895,146.2847290144916 L 182.36823682368237,143.12586465242444 L 187.11871187118712,137.78510428769235 L 188.06880688068807,136.31965174858902 L 188.4188418841884,135.01702726938606 L 186.91869186918692,131.7279004593986 L 180.86808680868086,124.17267848002149 z" /><path fill-rule="evenodd" fill="#D2EBD9" stroke="#A6A6A6" stroke-width="0.25" opacity="1" d="M 386.68866886688664,158.78992401483995 L 385.6885688568857,158.78992401483995 L 384.13841384138414,157.22677463979642 L 383.93839383938393,155.9892813845536 L 383.1883188318832,154.10047588970932 L 383.73837383738373,154.32843517356983 L 383.988398839884,153.41659803812777 L 384.73847384738474,152.56989212664587 L 385.1885188518852,153.05837630634696 L 385.03850385038504,152.53732651466578 L 385.43854385438544,151.85344866308424 L 386.28862886288624,151.65805499120378 L 387.2387238723872,152.83041702248644 L 388.68886888688866,154.16560711366947 L 389.78897889788976,154.71922251733073 L 389.48894889488946,155.0123130251514 L 389.68896889688966,155.40310036891228 L 388.98889888988896,156.08697822049382 L 389.4389438943894,156.8685529080156 L 389.3389338933893,157.487299535637 L 388.28882888288825,158.17117738721856 L 387.38873887388735,158.30143983513884 L 386.68866886688664,158.78992401483995 z" /></g></g></g></svg>