<svg xmlns="http://www.w3.org/2000/svg" xmlns:xlink="http://www.w3.org/1999/xlink" width="500.0" height="225.83161109336652" viewBox="0.0 0.0 500.0 225.83161109336652" preserveAspectRatio="xMinYMin meet"><g transform="matrix(1,0,0,-1,0,225.83161109336652)"><g><g><g><path fill-rule="evenodd" fill="#D2EBD9" stroke="#A6A6A6" stroke-width="0.25" opacity="1" d="M 154.8154815481548,225.83161109336652 L 136.96369636963695,159.27237938098017 L 145.56455645564554,159.04652518446716 L 161.76617661766176,158.6174022110924 L 175.3175317531753,158.2560354966716 L 180.4180418041804,188.02361859708734 L 208.1208120812081,189.31098751721154 L 186.66866686668666,214.0646074550383 L 179.1179117911791,220.61437915391582 L 171.1171117111711,224.27321713742668 L 162.9162916291629,225.76385483441263 L 154.8154815481548,225.83161109336652 z" /><path fill-rule="evenodd" fill="#D2EBD9" stroke="#A6A6A6" stroke-width="0.25" opacity="1" d="M 359.7359735973597,92.3969517934756 L 360.8360836083608,71.52802403567274 L 368.48684868486845,69.78894672252251 L 368.18681868186815,90.52236196241755 L 359.7359735973597,92.3969517934756 z" /><path fill-rule="evenodd" fill="#D2EBD9" stroke="#A6A6A6" stroke-width="0.25" opacity="1" d="M 345.1845184518452,19.51380257872474 L 347.4847484748475,41.8056117745596 L 338.68386838683864,42.618686882006465 L 337.1837183718372,18.452287855113557 L 345.1845184518452,19.51380257872474 z" /></g><path fill-rule="evenodd" fill="#D2EBD9" stroke="#A6A6A6" stroke-width="0.25" opacity="1" d="M 53.4053405340534,203.17843518311082 L 56.05560556055605,173.43343750234638 L 75.75757575757575,160.8985295958739 L 136.96369636963695,159.27237938098017 L 154.8154815481548,225.83161109336652 L 146.2146214621462,224.2506317177754 L 130.51305130513052,218.92047268006817 L 122.96229622962295,217.74603085820047 L 93.65936593659366,217.74603085820047 L 89.35893589358935,216.25539316121456 L 79.30793079307931,211.08333206106644 L 74.60746074607461,209.90889023919877 L 66.4066406640664,209.1635713907058 L 62.156215621562154,208.03430040814072 L 53.4053405340534,203.17843518311082 z" /><path fill-rule="evenodd" fill="#D2EBD9" stroke="#A6A6A6" stroke-width="0.25" opacity="1" d="M 29.402940294029403,167.01917832137667 L 46.854685468546855,179.28306119203356 L 56.05560556055605,173.43343750234638 L 53.4053405340534,203.17843518311082 L 45.1045104510451,202.00399336124315 L 32.503250325032504,202.36536007566397 L 18.651865186518652,207.60517743476598 L 5.95059505950595,207.60517743476598 L 0.0,203.85599777264989 L 2.25022502250225,195.52197792131952 L 7.950795079507951,186.75883509661443 L 12.2012201220122,181.67711567507155 L 14.15141514151415,181.0221385051838 L 19.05190519051905,181.4512614785585 L 21.2021202120212,180.27681965669083 L 22.15221522152215,178.22154646842236 L 22.55225522552255,174.20134177049064 L 23.75237523752375,172.3041665197813 L 29.402940294029403,167.01917832137667 z" /><g><path fill-rule="evenodd" fill="#D2EBD9" stroke="#A6A6A6" stroke-width="0.25" opacity="1" d="M 64.55645564556455,137.77105987294087 L 75.75757575757575,160.8985295958739 L 56.05560556055605,173.43343750234638 L 46.854685468546855,179.28306119203356 L 29.402940294029403,167.01917832137667 L 33.15331533153315,164.15083002566135 L 42.8042804280428,160.42423578319656 L 47.6047604760476,154.5520266738581 L 55.6055605560556,142.0397041870369 L 59.5059505950595,139.80374764155803 L 64.55645564556455,137.77105987294087 z" /><path fill-rule="evenodd" fill="#D2EBD9" stroke="#A6A6A6" stroke-width="0.25" opacity="1" d="M 172.56725672567256,107.84537883496601 L 161.76617661766176,158.6174022110924 L 145.56455645564554,159.04652518446716 L 159.16591659165917,102.96692819028482 L 172.56725672567256,107.84537883496601 z" /></g><g><path fill-rule="evenodd" fill="#D2EBD9" stroke="#A6A6A6" stroke-width="0.25" opacity="1" d="M 159.16591659165917,102.96692819028482 L 145.56455645564554,159.04652518446716 L 136.96369636963695,159.27237938098017 L 75.75757575757575,160.8985295958739 L 64.55645564556455,137.77105987294087 L 68.95689568956895,134.88012615757424 L 70.8070807080708,130.27270054870868 L 71.6071607160716,125.64268952019181 L 75.1075107510751,117.96364683874921 L 75.85758575857585,114.44032137314613 L 77.10771077107711,111.09767926475347 L 80.00800080008,108.77138104066938 L 86.05860586058606,105.45132435192802 L 89.00890089008901,102.49263437760749 L 92.8092809280928,97.38832953641328 L 96.45964596459645,94.79100627651358 L 153.91539153915392,101.04716751992417 L 159.16591659165917,102.96692819028482 z" /><path fill-rule="evenodd" fill="#D2EBD9" stroke="#A6A6A6" stroke-width="0.25" opacity="1" d="M 211.77117711771177,96.48491275036122 L 203.4203420342034,107.46142670089388 L 196.61966196619662,113.60466084604796 L 175.3175317531753,158.2560354966716 L 161.76617661766176,158.6174022110924 L 172.56725672567256,107.84537883496601 L 180.3180318031803,108.41001432624856 L 183.96839683968395,106.42249739693399 L 187.01870187018702,102.65073231516661 L 192.86928692869287,97.591598313275 L 196.81968196819682,95.73959390186826 L 200.67006700670066,94.88134795511878 L 209.5209520952095,94.79100627651358 L 211.77117711771177,96.48491275036122 z" /></g><path fill-rule="evenodd" fill="#D2EBD9" stroke="#A6A6A6" stroke-width="0.25" opacity="1" d="M 208.1208120812081,189.31098751721154 L 180.4180418041804,188.02361859708734 L 175.3175317531753,158.2560354966716 L 196.61966196619662,113.60466084604796 L 203.4203420342034,107.46142670089388 L 211.77117711771177,96.48491275036122 L 212.021202120212,100.43736118933903 L 210.87108710871087,109.22308943369542 L 212.3212321232123,118.05398851735441 L 215.77157715771577,123.58741633192335 L 220.07200720072007,128.24001278009152 L 223.8223822382238,134.2025635680352 L 225.62256225622562,142.67209593727335 L 223.5223522352235,147.48279032300064 L 220.22202220222022,151.95470341395838 L 218.47184718471846,159.27237938098017 L 218.2218221822182,168.08069304498787 L 217.47174717471745,172.19123942152478 L 216.22162216221622,176.2340295391078 L 214.6214621462146,178.08603395051455 L 210.07100710071006,179.9606237815726 L 208.1208120812081,181.67711567507155 L 207.8207820782078,183.34843672926786 L 208.47084708470845,187.68483730231782 L 208.1208120812081,189.31098751721154 z" /><path fill-rule="evenodd" fill="#D2EBD9" stroke="#A6A6A6" stroke-width="0.25" opacity="1" d="M 451.6951695169517,59.806191236647116 L 444.19441944194415,54.88256975266333 L 439.94399439943993,55.7634011190641 L 445.19451945194515,64.7298127206309 L 437.09370937093706,67.68850269495144 L 420.992099209921,69.56309252600948 L 415.29152915291525,47.00025829435901 L 420.1920192019202,2.9361045546692317 L 426.3426342634263,2.5521524205971016 L 432.3932393239324,5.872209109338463 L 440.0940094009401,1.9423460900119534 L 447.39473947394737,1.2873689201242016 L 463.09630963096305,2.7554211974588174 L 489.3989398939894,0.0 L 498.84988498849884,0.3839521340721303 L 497.14971497149713,4.3589859927012435 L 496.0996099609961,5.872209109338463 L 500.0,17.910237783482312 L 488.24882488248824,31.958368806592024 L 482.49824982498245,23.33073849979474 L 469.74697469746974,29.451387225297523 L 455.29552955295526,26.831478545746517 L 442.4942494249425,32.09388132449983 L 445.044504450445,47.88108966075978 L 454.89548954895486,48.82967728611445 L 455.49554955495546,52.71436946613836 L 451.6951695169517,59.806191236647116 z" /><g><path fill-rule="evenodd" fill="#D2EBD9" stroke="#A6A6A6" stroke-width="0.25" opacity="1" d="M 445.19451945194515,64.7298127206309 L 439.94399439943993,55.7634011190641 L 444.19441944194415,54.88256975266333 L 451.6951695169517,59.806191236647116 L 445.19451945194515,64.7298127206309 z" /><path fill-rule="evenodd" fill="#D2EBD9" stroke="#A6A6A6" stroke-width="0.25" opacity="1" d="M 454.89548954895486,48.82967728611445 L 445.044504450445,47.88108966075978 L 442.4942494249425,32.09388132449983 L 455.29552955295526,26.831478545746517 L 469.74697469746974,29.451387225297523 L 482.49824982498245,23.33073849979474 L 488.24882488248824,31.958368806592024 L 469.5969596959696,41.39907422083617 L 452.9452945294529,39.63741148803463 L 450.7950795079508,43.928641221781966 L 452.3952395239524,46.52596448168167 L 454.89548954895486,48.82967728611445 z" /></g><path fill-rule="evenodd" fill="#D2EBD9" stroke="#A6A6A6" stroke-width="0.25" opacity="1" d="M 368.18681868186815,90.52236196241755 L 368.48684868486845,69.78894672252251 L 360.8360836083608,71.52802403567274 L 359.7359735973597,92.3969517934756 L 352.4352435243524,94.02310200836932 L 343.78437843784377,94.40705414244145 L 345.53455345534553,68.90811535612174 L 348.9348934893489,55.7634011190641 L 347.4847484748475,41.8056117745596 L 345.1845184518452,19.51380257872474 L 351.18511851185116,19.0169233463961 L 357.03570357035704,17.006820997430243 L 363.6363636363636,13.43832469252456 L 371.1371137113711,11.721832799025625 L 374.7874787478748,10.163438843085801 L 376.3376337633763,6.8885529936470435 L 377.18771877187714,3.6814234031621904 L 379.4379437943794,1.558393955939823 L 382.6882688268827,0.49687923232863923 L 386.48864886488644,0.3839521340721303 L 402.44024402440243,5.307573618055919 L 408.4408440844084,5.872209109338463 L 420.1920192019202,2.9361045546692317 L 415.29152915291525,47.00025829435901 L 420.992099209921,69.56309252600948 L 368.18681868186815,90.52236196241755 z" /><g><path fill-rule="evenodd" fill="#D2EBD9" stroke="#A6A6A6" stroke-width="0.25" opacity="1" d="M 293.67936793679365,86.05044887145979 L 301.28012801280124,68.90811535612174 L 275.8275827582758,52.71436946613836 L 284.2284228422842,51.69802558182978 L 288.62886288628863,48.987775223673566 L 295.07950795079506,39.63741148803463 L 297.6297629762976,39.63741148803463 L 301.2301230123012,40.857024149204925 L 305.1305130513051,36.29476937964196 L 312.88128812881286,23.91795941072859 L 318.23182318231824,19.80741303419166 L 323.98239823982397,17.774725265574503 L 330.5330533053305,17.548871069061484 L 337.1837183718372,18.452287855113557 L 338.68386838683864,42.618686882006465 L 347.4847484748475,41.8056117745596 L 348.9348934893489,55.7634011190641 L 345.53455345534553,68.90811535612174 L 343.78437843784377,94.40705414244145 L 335.4835483548355,94.79100627651358 L 303.88038803880386,89.75445769427328 L 293.67936793679365,86.05044887145979 z" /><path fill-rule="evenodd" fill="#D2EBD9" stroke="#A6A6A6" stroke-width="0.25" opacity="1" d="M 270.2770277027703,73.13158883091518 L 279.12791279127913,69.78894672252251 L 284.2284228422842,72.40885540207351 L 280.52805280528054,81.26233990538381 L 274.57745774577455,79.09413961885885 L 270.2770277027703,73.13158883091518 z" /></g><path fill-rule="evenodd" fill="#D2EBD9" stroke="#A6A6A6" stroke-width="0.25" opacity="1" d="M 280.52805280528054,81.26233990538381 L 284.2284228422842,72.40885540207351 L 279.12791279127913,69.78894672252251 L 270.2770277027703,73.13158883091518 L 267.27672767276727,64.27810432760488 L 268.27682768276827,56.19252409243884 L 275.8275827582758,52.71436946613836 L 301.28012801280124,68.90811535612174 L 293.67936793679365,86.05044887145979 L 280.52805280528054,81.26233990538381 z" /></g></g></g></svg>