<svg xmlns="http://www.w3.org/2000/svg" xmlns:xlink="http://www.w3.org/1999/xlink" width="500.0" height="417.5709690442309" viewBox="0.0 0.0 500.0 417.5709690442309" preserveAspectRatio="xMinYMin meet"><g transform="matrix(1,0,0,-1,0,417.5709690442309)"><g><path fill-rule="evenodd" fill="#D2EBD9" stroke="#A6A6A6" stroke-width="0.25" opacity="1" d="M 419.0201729685068,140.05254090763628 L 405.7636882122606,124.32010685186833 L 390.20172772556543,117.04089989885688 L 373.3429383598268,116.84548896551132 L 356.7723338101059,122.90331187378615 L 353.1700278054923,128.76601638551801 L 349.27953838184476,130.329453474842 L 345.1008641421795,128.2285904288292 L 340.05763685144484,122.31705854367465 L 324.92795358784497,71.32404120266438 L 280.2593658324331,52.42703946214169 L 192.36311300098896,40.95359025616199 L 184.58213275671005,32.06853184662759 L 178.53026000969112,21.23161773290485 L 169.74063430912793,10.493311304599047 L 153.60230558551848,1.5617365520447493 L 142.2190207336098,0.0 L 57.78098010458052,11.27424716297537 L 41.78674378991127,23.184142258018255 L 41.78674378991127,46.86105757858604 L 1.5850150883197784,109.7621390838176 L 25.21613784506917,120.55831220839173 L 33.14121049456298,122.6101848455146 L 60.662824070081115,142.49565187375993 L 55.90778159536421,172.40344387479126 L 31.41210439428687,194.30152406543493 L 0.0,190.09756084159017 L 4.610951462760568,211.6077886344865 L 27.6657073777169,251.70549035072327 L 27.809798389673233,258.9929972188547 L 16.138328721746802,266.9168375506997 L 17.86743621714413,284.7718838211149 L 25.64841646142304,303.9017914282158 L 31.844380222260952,315.3029311876744 L 62.68011638149619,327.92865339946 L 84.14985581487417,402.5850421944633 L 128.24207533337176,400.28345116972923 L 169.16426467895508,416.00372582580894 L 190.48991449177265,417.5709690442309 L 266.13832942023873,365.56914997752756 L 281.4121036976576,358.3729635681957 L 439.9135441649705,342.70931475330144 L 427.80979866907,304.2442997805774 L 450.2881835605949,289.9576910343021 L 482.7089320179075,279.87982109747827 L 500.0,254.68891175929457 L 464.98558960296214,251.41204177122563 L 439.48126833699644,226.56948463525623 L 424.0634002573788,187.2624126430601 L 419.0201729685068,140.05254090763628 z" /></g></g></svg>