<svg xmlns="http://www.w3.org/2000/svg" xmlns:xlink="http://www.w3.org/1999/xlink" width="500.0" height="393.81008537486196" viewBox="0.0 0.0 500.0 393.81008537486196" preserveAspectRatio="xMinYMin meet"><g transform="matrix(1,0,0,-1,0,393.81008537486196)"><g><g><path fill-rule="evenodd" fill="#D2EBD9" stroke="#A6A6A6" stroke-width="0.25" opacity="1" d="M 489.13841166161,342.18338248692453 L 491.34521116502583,340.883029777091 L 493.72865880280733,339.9223071639426 L 495.4697589147836,339.5474091153592 L 496.29804931767285,338.2259752000682 L 498.5800736993551,330.4686202867888 L 497.9377260711044,319.8327626939863 L 498.4110348727554,315.58444849587977 L 498.2673518061638,314.72839294280857 L 497.46441727131605,313.29707371024415 L 497.56584062986076,312.24472728557885 L 499.88167279958725,307.6013233750127 L 500.0,306.0632161432877 L 499.1294499952346,299.0901017948054 L 498.1659285519272,294.09142176341265 L 497.75178340263665,276.66140891611576 L 499.96619221381843,267.6001943158917 L 494.32507089711726,266.9668262861669 L 493.31607805751264,265.80349690048024 L 492.72570994868875,259.22198419831693 L 492.17827755585313,258.0888767275028 L 489.2693726196885,256.00632603280246 L 485.2548691239208,252.05209826352075 L 483.38715886697173,251.1413332261145 L 479.5014629326761,250.65640420280397 L 477.93430371955037,249.94086852716282 L 476.23833704926074,245.67501529026777 L 474.0056719649583,242.94412340875715 L 473.3723679333925,240.98494332563132 L 472.43851296044886,239.80897394521162 L 470.45272912085056,239.2476157117635 L 468.2522658761591,239.16193671384826 L 466.60996900498867,239.39238494448364 L 463.4327148646116,241.95120194833726 L 460.3735343031585,249.82851500390097 L 456.49857234954834,253.35920760361478 L 455.7579286135733,255.05389788048342 L 456.09068160131574,256.4943963792175 L 457.91545603983104,257.0505211860873 L 459.36454146541655,256.69554532691836 L 460.70628729090095,256.00632603280246 L 463.19656760059297,254.19617584254593 L 461.9192255549133,261.68969196034595 L 460.73848923295736,265.07535473862663 L 457.91545603983104,266.86025774339214 L 453.45012587308884,267.54408629611135 L 449.45709023438394,266.49911479698494 L 445.83974350616336,264.1903872182593 L 442.4370760805905,261.0653270473704 L 439.29202377796173,257.0505211860873 L 438.20789317786694,253.51299320021644 L 439.077344475314,244.7203256157227 L 439.077344475314,242.5688145342283 L 438.626517906785,238.3081291266717 L 438.84119721129537,236.2078031678684 L 440.9343207515776,231.50018057925627 L 441.2778077200055,229.2886662883684 L 438.3689026813954,226.6022407640703 L 437.72486466914415,222.7712683477439 L 436.2650452628732,221.18074229592457 L 435.2131165023893,219.59629385964945 L 435.3526580426842,217.1889758692123 L 436.65146804973483,212.372603894677 L 436.4153207857162,206.1930264676921 L 436.7480737734586,204.459919789806 L 437.4135796427727,203.6582811609842 L 439.49596909992397,202.2437336635776 L 440.2795487586409,201.2359533472918 L 440.51569602265954,200.2783326236531 L 440.1507411971688,194.75483994418755 L 439.4852352235466,193.09967668307945 L 435.44926376640797,185.88632077304646 L 434.62274839170277,183.89371304679662 L 434.78375779278576,182.1691659023054 L 436.0288979988545,181.54826152464375 L 442.53368180431426,180.11233794968575 L 444.28331837803125,180.01524158846587 L 450.1011282466352,182.3869301583618 L 453.21397860720754,181.07450869027525 L 454.85627547837794,176.98792947502807 L 456.07994772307575,172.1614215541631 L 459.93344171717763,165.2024216465652 L 458.7849073354155,163.39486000314355 L 452.2157196458429,161.77559259859845 L 440.1185392551124,156.8101750332862 L 438.186425216496,157.04812397109345 L 435.48146560415626,159.16045822482556 L 433.6137554496527,158.8343338384293 L 431.90705479867756,158.18798263464123 L 430.30769374780357,158.14685228141025 L 426.92649418115616,158.7197513715364 L 423.4808909371495,158.80495363892987 L 420.51831609755754,158.2496787221171 L 417.68454892374575,157.09806429827586 L 412.6181166674942,154.3046012450941 L 408.20645640417933,152.61879439419135 L 403.74112623743713,151.77302709175274 L 403.32250150851905,150.1139378733933 L 404.2348887268454,148.067497019656 L 405.9737913198769,146.47927989438176 L 409.7414135709405,144.2102769361809 L 411.40517840348184,141.7185935517773 L 411.87747293151915,138.44981651892886 L 412.2102259192616,129.84120547492057 L 411.77013322897255,128.33411545632407 L 406.91838027350605,121.1291822148487 L 405.9737913198769,119.21275649406016 L 402.5496558304876,105.1460333885625 L 401.1113043855876,102.95653503155336 L 397.21487447060645,98.6809156392701 L 395.27202645130455,95.75511980755255 L 394.1127580907196,91.98168894369155 L 391.94449689053,80.69632368069142 L 389.64742792211473,73.77726952079684 L 379.76144475862384,56.394304510671645 L 376.5305207129568,45.537889608647674 L 376.1655658874661,42.196771192364395 L 376.8203377779573,25.73219194309786 L 375.7040052358061,9.299827869050205 L 368.80206476710737,0.27908787317574024 L 367.23490555398166,0.0 L 150.84887167997658,28.851263001095504 L 105.283183099702,34.93688330473378 L 102.72849901020527,35.77898137224838 L 100.65147649124265,37.60320103447884 L 78.82395518943667,65.7927522463724 L 2.5108193680644035,164.86734450934455 L 0.9543941374868155,167.54229739680886 L 0.3962278664112091,170.50001463107765 L 0.6431091111153364,180.73318086005747 L 0.0,185.11241213278845 L 2.214408913627267,188.32958059804514 L 2.315832167863846,193.36537562077865 L 0.4817607216536999,197.45187330339104 L 2.5355827286839485,199.78554605459794 L 3.431488597765565,197.8462050287053 L 5.654349433258176,194.58981204871088 L 6.085398422554135,192.35436621680856 L 6.085398422554135,185.77989264391363 L 6.761553838849068,181.7754707369022 L 8.240643789991736,180.83014354808256 L 9.719733636826277,182.45206618122756 L 10.725514786317945,187.6063507674262 L 11.427025962620974,186.2063545663841 L 12.458162875846028,182.66524666082114 L 13.151222234591842,181.48815886117518 L 13.641434878110886,181.21012061834335 L 14.588052375242114,181.11744238855317 L 15.467054404318333,181.34450511494651 L 16.024882515892386,181.87742142518982 L 16.151661740615964,182.42426022328436 L 15.737516487017274,182.66524666082114 L 17.73217484354973,187.5460831699893 L 19.676121570169926,189.02502806065604 L 21.822914911434054,185.77989264391363 L 22.110280940309167,183.31407596869394 L 21.045336240902543,176.02105039916933 L 21.197471227496862,173.3901588106528 L 22.465262539684772,167.75942653417587 L 22.583589740097523,166.5372525616549 L 22.465262539684772,162.7047347566113 L 22.685013100504875,161.48298410046846 L 23.656986463814974,159.16934258444235 L 23.868284998461604,158.0496716592461 L 24.933229696005583,156.0372555903159 L 27.409648772329092,155.38501457311213 L 32.455458261072636,155.26474632835016 L 33.672537945210934,154.8669431260787 L 34.602251602336764,154.33038850827143 L 36.38561142235994,152.59134661732242 L 37.32377699948847,151.953133078292 L 38.11825961433351,151.953133078292 L 38.40562564320862,152.45722696511075 L 37.80553772114217,153.35908962367103 L 37.60269110649824,154.59403790021315 L 39.83400386199355,154.92707554716617 L 45.76726740412414,154.58016153378412 L 46.48568242229521,154.7883088644594 L 47.21254946477711,154.58016153378412 L 48.50569664314389,153.35908962367103 L 51.725886603817344,151.80514541873708 L 56.9745428096503,152.65146957989782 L 58.80861425772309,152.15661838138476 L 59.8397511690855,152.77634124085307 L 60.87934010475874,152.15661838138476 L 62.4936610981822,152.93358857603744 L 68.0296832267195,153.00758780585602 L 69.75387949869037,153.6458474099636 L 73.70938842371106,156.11589645035565 L 75.45894045755267,156.3842040374875 L 78.77210185676813,156.39808222837746 L 80.14976844750345,156.8144316910766 L 83.99540219642222,160.27984478557482 L 85.47449204325676,160.77034346200526 L 87.19023639522493,161.10352182900533 L 89.18489474989474,161.94575645588338 L 90.85837928950787,163.08886679587886 L 92.14307454787195,165.5882866261527 L 95.30410096049309,166.94926186930388 L 96.84235435537994,168.18535979883745 L 98.21156902611256,169.5882496992126 L 100.0287366323173,170.95422933297232 L 101.8543561603874,172.00542647065595 L 103.26583053916693,172.42222163127735 L 104.39839080907404,173.26047927327454 L 104.71956462413073,175.1872655726038 L 104.75337230600417,177.28571539977565 L 105.04073843918741,178.64315225556493 L 107.06920458003879,179.80147523758933 L 108.95398765429854,179.1342699090019 L 110.58521248959005,177.56367846904323 L 114.32097095623612,172.42222163127735 L 115.48733901418746,171.97764050541446 L 115.90993608348072,172.27865751693025 L 116.24801384285092,172.86218509171158 L 117.16082355566323,173.26974203484133 L 119.51046351157129,173.1956399953924 L 123.76179048605263,171.9544856697321 L 126.01845910772681,171.64421363221481 L 127.33696204796433,171.87112833932042 L 129.56827480345964,172.94554810086265 L 130.68393123336136,173.26974203484133 L 131.88410697318614,173.25121651776135 L 134.25065087340772,172.42222163127735 L 143.0913823787123,171.64421363221481 L 144.08871160820127,171.84334263112396 L 147.77375844866037,173.26974203484133 L 148.26397109031677,173.69583657290787 L 148.55978903919458,174.80744619620964 L 149.1936847474426,174.82597369607538 L 149.72615709528327,174.47858620807528 L 150.61361104622483,173.26974203484133 L 153.65631025843322,170.74122064746916 L 155.56644919887185,169.82439292641357 L 159.71635281667113,171.64421363221481 L 161.84624231606722,170.82457150612026 L 163.79864096455276,169.75956884305924 L 165.55664491839707,170.15777811361477 L 164.12826669961214,171.00053597195074 L 163.72257347218692,172.08415356464684 L 163.68031376414,173.37163314037025 L 163.37604379095137,174.82597369607538 L 165.7510396130383,175.33549056062475 L 168.4810169301927,174.09415358817205 L 170.9743399526924,172.06099844584242 L 172.65627641417086,170.15777811361477 L 174.09310665726662,167.8057230147533 L 174.93830079771578,167.1946213329211 L 180.68562156520784,166.852045154199 L 193.97207484394312,169.5882496992126 L 194.88488455489278,169.5882496992126 L 195.79769437015057,168.97244310937822 L 197.2176206689328,167.37054194696248 L 198.30792123265564,166.6159501010552 L 199.78701107949018,166.26875836588442 L 201.32526457868516,166.37060037860647 L 202.51698839850724,166.9770382414572 L 204.40177157707512,165.54662611382082 L 205.51742790453136,164.9171039769426 L 206.47249742597342,164.6486396114342 L 206.90354641713202,164.2135527660139 L 208.23895330168307,162.14475299511105 L 208.95736842416227,161.47835646336898 L 209.81946650706232,161.31176205398515 L 212.15220262110233,161.52926066471264 L 213.9271105211228,162.4455669755116 L 216.81767474673688,161.47835646336898 L 220.0209608655423,163.01944464538246 L 221.57611820660532,163.97750031249598 L 224.6188174188137,163.0934949433431 L 237.25447114743292,163.01018839841709 L 239.86612126417458,163.33416132023558 L 240.99868153594434,164.2968661817722 L 247.3714459873736,167.75942653417587 L 253.93015321344137,168.84280292876065 L 255.9924270361662,169.9216294796206 L 258.17302816547453,170.33836496807635 L 260.91145750693977,171.64421363221481 L 264.0809358395636,172.08878457034007 L 265.1712364051491,172.42222163127735 L 266.50664328970015,173.25584789505228 L 268.39987828582525,174.7611274360679 L 270.10717061161995,176.56303615495563 L 270.83403765410185,178.28177441563457 L 271.86517467163503,179.1250034077093 L 278.6943439785391,181.11744238855317 L 284.213462267071,185.1819398533553 L 285.15162784419954,185.3488079267554 L 285.9883701670915,186.76262826891616 L 287.9576726555824,186.6606430867687 L 292.17519184574485,184.93164146132767 L 292.9612225405872,186.21562559483573 L 296.81530820950866,189.21048633335158 L 298.75925493612885,191.94627240300179 L 302.87535076774657,200.17530161468312 L 302.29216678999364,203.0338310538791 L 302.621792525053,204.37048108223826 L 304.2952770665288,205.23380016628653 L 303.3317556232214,205.8836444830522 L 302.87535076774657,206.01361686969176 L 302.87535076774657,206.86310811014846 L 304.4896717593074,206.70991750480607 L 307.0421583298594,205.52158478274941 L 308.5550559628755,205.23380016628653 L 307.8958044927567,206.6681385114789 L 306.1208965945989,208.6225966741331 L 305.76591499336064,209.98298209160566 L 310.4567429833114,208.0886921742931 L 311.44562018848956,206.86310811014846 L 312.0964197386056,206.86310811014846 L 311.77524592354894,209.87154641235247 L 309.8228472750634,210.81877770274878 L 307.07596611604095,210.95808168128133 L 304.2952770665288,211.53852953203022 L 298.209878642112,215.6441270033829 L 295.7841711938381,216.220119306352 L 295.7841711938381,216.92156056361273 L 297.035058664158,217.28390787681565 L 298.3113020006567,218.13406641734764 L 299.37624670006335,219.3699060198851 L 299.908719047904,217.6973666306585 L 300.74546137079597,216.92156056361273 L 300.4665472637862,218.0922541548498 L 300.8215287607163,219.11901262495667 L 302.1653876695782,220.89394527906552 L 302.87535076774657,220.89394527906552 L 303.69518914446235,217.74382341466844 L 305.7067514453083,214.65941959433258 L 308.2592380139977,212.73664813535288 L 310.7356570903212,213.0988897117786 L 310.1017613839358,213.43791901739314 L 308.5550559628755,214.724445305299 L 309.74677978269756,214.66406426997855 L 311.97809253819287,213.93951121997088 L 312.8655464872718,213.87913337536156 L 314.10798203758895,215.8624439514242 L 314.64045438729227,216.220119306352 L 318.536799762398,224.08194250473753 L 316.81260359473526,224.82560098683462 L 316.0181209798902,225.84354623639956 L 316.4069103654474,226.74999683024362 L 318.1818181630224,227.13118817470968 L 319.2636668048799,227.82386662764475 L 319.56793667562306,229.38600327214226 L 320.16802459582686,231.004110773094 L 322.08661556243896,231.88298751041293 L 322.08661556243896,232.59449881128967 L 321.1822576671839,233.25953821884468 L 319.9651779830456,237.34346763323992 L 320.5230061970651,238.17155977291986 L 319.77078328840435,238.65541118150577 L 318.95939683169127,239.48823232669383 L 319.2552148848772,241.32619472872466 L 320.2102843038738,242.39185647200793 L 324.27566860988736,245.15643466636539 L 325.28144965693355,246.99978587171063 L 325.87308565713465,247.64222218934447 L 329.2369586843997,246.00825660908595 L 330.766760263592,246.32944862823933 L 332.26275395043194,247.36289853602648 L 332.78677438013256,248.88527930760756 L 331.37530010566115,250.6918636346236 L 342.6755468454212,257.3428246709518 L 347.75516411848366,261.032941670157 L 350.9077386111021,263.95962914731354 L 352.9869163800031,265.35794247686863 L 356.9086176212877,266.6491749519482 L 361.4895703326911,269.33923401869833 L 360.9317421168089,271.68937674956396 L 364.3632307164371,272.41688151611015 L 364.8449914380908,272.0251435241662 L 372.595422482118,281.1872077109292 L 383.2026099655777,294.7873924425803 L 383.7350823134184,296.61389643047005 L 383.6505628991872,298.1930105914362 L 385.6283174138516,300.00126907229424 L 387.28489811345935,299.7489399276674 L 388.8400554526597,297.501542086713 L 389.36407588236034,295.9365205555223 L 388.93302678875625,294.4183835913427 L 387.5722641404718,292.3072796771303 L 390.4543764460832,293.20399282407016 L 391.0122046601027,295.24049261398613 L 390.209270125255,297.7631747825071 L 388.12164033204317,301.65086703933775 L 387.8427262250334,302.56687536276877 L 388.41745838336647,303.56707581086084 L 391.54467700980604,306.97951488755643 L 392.4574867207557,307.36288217594847 L 394.0295480079949,307.27872744807974 L 393.5477872863412,308.71877828007564 L 393.623854778707,310.09818762307987 L 394.25775048695505,311.24857943784446 L 395.4494743067771,311.9828223134391 L 396.49751516245306,311.0755469314754 L 398.5935967732221,312.8761255936697 L 401.8898543305695,317.47918561287224 L 402.53220185637474,317.47918561287224 L 402.9886068161577,316.08032996719703 L 403.5886947363615,315.99612253019586 L 404.1972345802933,316.85693477094173 L 404.6620913557708,318.26522651314735 L 405.3720544539392,317.47918561287224 L 406.78352883271873,321.75148120336235 L 407.77240614034235,323.61429634550586 L 408.9134183321148,324.61601416859776 L 407.62027115374804,325.29947086796165 L 408.2795226238668,326.7039397386834 L 409.61492950841784,328.5299625652842 L 410.33334463089705,330.4686202867888 L 410.7897494863719,332.41691754572093 L 411.93076167814434,334.6934018074535 L 413.52817882969975,336.5579629810527 L 415.3030866254121,337.25606718007475 L 414.4156326763332,335.37267254060134 L 413.2746204845607,333.8267945176922 L 412.61536901444197,332.4075500979088 L 413.2323607765138,330.90415319334716 L 414.8466817699373,330.2438344429247 L 421.346225341782,331.69095734274015 L 421.99702489189804,332.5949007230811 L 423.6113458853215,337.0827091424726 L 424.5241557005793,338.76015665382147 L 427.27948877960443,341.7313333465718 L 428.944521503523,343.0202924795449 L 432.5196930654347,344.41250399453565 L 435.18205481022596,348.20078311813995 L 436.3230670019984,349.0636065946892 L 438.5797356236726,349.62634672923014 L 439.74610368162394,350.24538761842996 L 440.25322016328573,351.0239180061035 L 440.71807704493403,351.2959451843053 L 443.794584043324,352.1355109368451 L 447.49653472565114,355.16118850093335 L 453.1424321345985,362.36921540508047 L 455.97383281216025,364.80559895094484 L 455.35684104822576,363.75869887135923 L 454.69758947379887,361.3929061917588 L 453.6326447762549,359.3841812508181 L 454.05524184554815,358.6943367989734 L 454.8074647542089,358.49255206715316 L 455.20470606163144,358.8585822582245 L 455.4244565181434,360.58562614768744 L 456.38797795958817,363.84789351467043 L 456.62463236041367,366.0216060690582 L 457.28388383053243,367.01702838856727 L 461.65353800728917,371.1732315621339 L 463.35237841308117,373.7145401565358 L 463.98627401702106,375.35889253765345 L 464.4173231124878,377.48744940105826 L 463.7073599100113,377.48744940105826 L 463.33547446876764,376.41608117939904 L 462.71848270483315,375.51394178997725 L 461.9155481699854,374.82328175753355 L 460.9435748066753,374.4098420548253 L 463.6566482819617,378.9771673036739 L 465.90486498363316,383.8657164070755 L 467.7642921935767,391.2112500616349 L 468.19466431997716,392.22104206169024 L 470.60300453938544,392.4299017507583 L 475.87338222377,393.81008537486196 L 477.05411854572594,393.66668305406347 L 478.6856814343482,389.2100200857967 L 479.21164586767554,386.84488001745194 L 478.98623258434236,384.7309371070005 L 478.29925864748657,381.29797401605174 L 477.86990004219115,370.9386651706882 L 477.1721921265125,369.2804751568474 L 475.1649404298514,366.4477029903792 L 474.66044395789504,364.72447236953303 L 475.1220045071095,362.75703544402495 L 477.5371470544487,359.50244314875454 L 478.02017556503415,358.06613861816004 L 477.2795318290591,356.5584788764827 L 475.93778600357473,355.5157283367589 L 474.82145356573164,354.312195151113 L 474.73558172024786,352.33434014813974 L 475.2293442096561,347.1825328776613 L 475.81971242278814,345.8011051886715 L 476.39934655092657,345.4617238980718 L 478.83595706149936,345.02113618003204 L 479.76981213875115,344.2531183571555 L 480.80027283355594,341.9314648779109 L 481.5301825888455,341.0683859065175 L 483.16174558363855,340.61603521648794 L 484.82551041431725,340.9314888129011 L 489.13841166161,342.18338248692453 z M 487.22425065003335,308.08687616698444 L 484.42009905539453,305.9556376254186 L 484.63229896873236,304.09001210471615 L 484.96596050076187,302.93678325554356 L 485.58980218321085,301.98813559440896 L 484.5760594252497,300.78085913928226 L 481.79778506048024,299.39104877086356 L 481.56384445540607,296.5460227490403 L 481.7198049277067,295.42541422555223 L 483.0007360801101,294.7851496739313 L 484.64303294941783,294.3165100486949 L 486.34973370470107,295.05803564283997 L 490.6022315695882,298.2970289909281 L 493.01961806230247,299.1592049561441 L 495.9224004969001,300.6719865738414 L 496.4154621567577,303.83017989993095 L 492.2866922877729,304.66914466861635 L 490.3465949334204,307.6809912840836 L 487.22425065003335,308.08687616698444 z" /><path fill-rule="evenodd" fill="#D2EBD9" stroke="#A6A6A6" stroke-width="0.25" opacity="1" d="M 487.4736827388406,298.68474216759205 L 487.1155869718641,301.75776269985363 L 487.6865034084767,302.3542693858035 L 488.59383276849985,302.36734554497525 L 490.10145091079175,301.2919673747383 L 489.5459232442081,299.40280684269965 L 487.4736827388406,298.68474216759205 z" /><path fill-rule="evenodd" fill="#D2EBD9" stroke="#A6A6A6" stroke-width="0.25" opacity="1" d="M 216.81767474673688,173.97836258960888 L 215.00050714053214,174.2145771915093 L 213.8256871625781,174.64069930557162 L 213.78342745639384,175.5207738080062 L 215.39774844795465,177.1513684783131 L 216.72470330819488,177.97600016603246 L 220.36749044246972,179.48176887771115 L 222.34524495713413,181.2564599555917 L 223.6552959755063,182.11839865986258 L 225.32878061942756,182.66524666082114 L 226.3007539846003,182.63744029402733 L 227.8221035376191,181.98400699160993 L 228.58277836628258,181.81717777065933 L 229.29274146445096,182.11839865986258 L 231.7776125650853,184.15296273026615 L 234.6428209245205,185.3719841367565 L 235.78383311629295,186.04411218548194 L 236.67128706723452,187.2632927983068 L 237.22911528125405,185.85405896790326 L 236.67128706723452,184.93164146132767 L 237.7362317647785,183.17967321584 L 238.2179924864322,182.66524666082114 L 241.26069169864058,180.74673527665436 L 244.81895941868424,180.00998322945088 L 247.72642758861184,178.82847770256922 L 248.79137228615582,175.59488781401888 L 247.35454204306006,172.9918610774912 L 244.17661178857088,171.8664974034764 L 240.4577571619302,172.0193194160238 L 237.38125026784837,173.26974203484133 L 237.6010007224977,174.32573823817074 L 236.79806618764997,175.78017436899245 L 235.55563073977828,176.1461222670041 L 234.47378209792078,173.97836258960888 L 235.2513607684523,173.26974203484133 L 232.42841211520135,171.42656405176967 L 229.0391832217574,170.75974308233708 L 225.5907907821238,171.1440875902772 L 222.4889280218631,172.42222163127735 L 220.6971161775291,173.43184176879004 L 219.64907542429864,173.78846745286137 L 216.81767474673688,173.97836258960888 z" /><path fill-rule="evenodd" fill="#D2EBD9" stroke="#A6A6A6" stroke-width="0.25" opacity="1" d="M 272.2539639547467,181.81717777065933 L 271.22282704152167,183.84706468647346 L 268.99151428602636,184.84357450995594 L 266.37141214311123,185.59447820996866 L 264.1316474676132,186.8785212333314 L 262.99063527584076,189.85033565200865 L 264.410561574623,192.21524203848094 L 266.66723019629717,193.17058853898197 L 268.0618006289005,191.9277230044827 L 272.0004057120532,187.54144722921774 L 273.0991581976414,184.76477819355205 L 272.2539639547467,181.81717777065933 z" /><path fill-rule="evenodd" fill="#D2EBD9" stroke="#A6A6A6" stroke-width="0.25" opacity="1" d="M 104.38993888907135,195.11393956607208 L 105.70844182930887,197.00188441807404 L 108.19331282563508,198.45396081963554 L 110.6201051697135,197.6972712255083 L 111.75356058776379,195.8867689613253 L 112.3227099943906,192.94363587815315 L 112.10656214691699,191.1904017641209 L 109.86679747141898,188.23685681074858 L 106.22621678933501,184.79309577681124 L 104.86678445152938,186.26165637373924 L 103.73208409361541,188.18344805948436 L 102.48216270469129,190.89759556157514 L 102.70390223897994,193.16175585333258 L 104.38993888907135,195.11393956607208 z" /><path fill-rule="evenodd" fill="#D2EBD9" stroke="#A6A6A6" stroke-width="0.25" opacity="1" d="M 182.10499170795083,185.85511329676956 L 180.64135772176087,187.67024331679568 L 179.17051810398698,187.78917684266344 L 177.24953353405,188.81456332374364 L 176.2249185591936,187.1218289337121 L 170.79266759194434,187.93259508442134 L 167.95699650235474,187.36528211273253 L 167.70343826152384,187.96796116465703 L 167.7541498877108,188.62630077963695 L 168.44720914401114,190.14708703150973 L 168.76838295906782,190.44384438730776 L 172.65627641417086,189.59995640069246 L 173.70431727170944,189.854972332716 L 176.37513104081154,191.04665172565728 L 177.4654316045344,191.94627240300179 L 182.816148230806,194.22206481732428 L 183.72183498181403,194.21809457754716 L 184.73318694345653,192.40369879966602 L 185.74936599098146,191.8337238729 L 186.6695967335254,192.29871640726924 L 186.89779911004007,193.54161385912448 L 186.77101998962462,194.76606511697173 L 186.13712438568473,195.8885701452382 L 190.03346976079047,201.66946209594607 L 191.86754120886326,202.96885822620243 L 192.577504305169,200.56506771640852 L 195.01166367530823,199.2055722172372 L 194.32705634087324,194.80780961271375 L 192.9968302808702,193.38362060301006 L 188.9160360172391,191.47995999269187 L 186.98773012124002,190.2447708528489 L 184.4972145743668,189.9162932340987 L 183.02206113375723,188.79140325030312 L 183.01712208800018,187.5475320587866 L 182.10499170795083,185.85511329676956 z" /><path fill-rule="evenodd" fill="#D2EBD9" stroke="#A6A6A6" stroke-width="0.25" opacity="1" d="M 292.17519184574485,206.01361686969176 L 287.21390177309513,207.57337702717632 L 287.21390177309513,209.37009621132165 L 291.4229690413922,213.32645640149713 L 292.88515504822135,215.50477752042934 L 293.5951181445271,215.50477752042934 L 292.88515504822135,213.09424554277211 L 293.637377852574,211.02773412084207 L 295.47144940309227,209.56045955466107 L 299.32553507201374,207.57337702717632 L 301.22722198814154,205.6654791929759 L 301.3117414023727,204.36119838617742 L 299.87491126172245,203.8785051824525 L 297.14493394456804,204.38440513750538 L 292.17519184574485,206.01361686969176 z" /><path fill-rule="evenodd" fill="#D2EBD9" stroke="#A6A6A6" stroke-width="0.25" opacity="1" d="M 280.10581835731864,189.47940507531166 L 279.1676527801901,188.7097543166019 L 278.17877547070384,188.19049513991922 L 277.2913215216249,187.96332508837804 L 276.15030932985246,187.98650548420846 L 275.51641372591257,188.33885298669338 L 273.7415058258921,190.43920751754194 L 272.42300278134644,191.3712506433949 L 271.45948144234717,191.81642677262425 L 271.0791439767927,192.54914240771905 L 271.61161632463336,194.33007442671806 L 272.3722911532968,195.36905283853412 L 273.6062747836113,196.23183280602098 L 275.08536463044584,196.71426993981004 L 276.58135842345655,196.66788105946034 L 277.4941681344062,194.75215034978464 L 278.52530515007675,193.13348650792614 L 280.84113731980324,190.43920751754194 L 280.10581835731864,189.47940507531166 z" /><path fill-rule="evenodd" fill="#D2EBD9" stroke="#A6A6A6" stroke-width="0.25" opacity="1" d="M 286.2841881159693,198.43076362041757 L 287.2646133992821,197.4008429455571 L 287.3491328135133,195.8421839196235 L 286.2419284079224,192.53059212118387 L 284.52618416026235,191.68658230872825 L 281.6863315626979,196.6586033240892 L 281.42432129755616,197.45187330339104 L 282.15964026004076,197.57713046390563 L 283.30910447612405,197.270948252175 L 284.7797424029559,196.40810604020953 L 284.91497344337404,196.92766075581312 L 284.62760741636157,197.53537795646116 L 283.0978059414774,198.6812959201634 L 282.7681801021099,199.7391472933814 L 284.10358698666096,199.90154366800562 L 286.2841881159693,198.43076362041757 z" /><path fill-rule="evenodd" fill="#D2EBD9" stroke="#A6A6A6" stroke-width="0.25" opacity="1" d="M 76.89577070064843,217.42327465908602 L 79.26590277440846,215.81561346538365 L 79.95901925489306,213.09185292292386 L 78.60733821615577,210.70594502985477 L 77.36146259494126,210.13590576453134 L 75.84772984497249,210.96272515924647 L 75.30680557526648,211.6592656672001 L 74.14043751731515,212.57410676358268 L 74.04943989031017,214.10203301906586 L 75.74059775099158,216.717864013277 L 76.89577070064843,217.42327465908602 z" /></g></g></g></svg>