<svg xmlns="http://www.w3.org/2000/svg" xmlns:xlink="http://www.w3.org/1999/xlink" width="500.0" height="380.8931848630309" viewBox="0.0 0.0 500.0 380.8931848630309" preserveAspectRatio="xMinYMin meet"><g transform="matrix(1,0,0,-1,0,380.8931848630309)"><g><path fill-rule="evenodd" fill="#D2EBD9" stroke="#A6A6A6" stroke-width="0.25" opacity="1" d="M 487.8535248283297,317.15281165437773 L 488.093871537596,316.59909316990525 L 487.68133618310094,314.57033361913636 L 487.1253102645278,314.40759281488135 L 486.44373015500605,315.01258019078523 L 485.70116655156016,316.07690818980336 L 484.89044495113194,316.4014392658137 L 484.1478813495487,316.35090468544513 L 482.70580132864416,315.95114694768563 L 481.8053980860859,315.20117029268295 L 478.90688897296786,313.35389946354553 L 477.2101132385433,311.96183303836733 L 476.3778680283576,311.65680075204 L 474.09636826068163,311.9416462061927 L 473.5295805707574,311.79922043858096 L 473.0309509113431,311.4134679334238 L 472.8049532752484,310.81025905068964 L 472.63635189831257,309.32176707312465 L 472.3027363475412,308.8847615439445 L 470.2544087190181,308.205836313311 L 469.2499748636037,308.21255769440904 L 467.1872981954366,308.86907519353554 L 464.3461853079498,310.6779713877477 L 463.27000618726015,311.12418303918093 L 461.1463460251689,311.5211152797565 L 456.5367120690644,311.7218420198187 L 451.99882338009775,310.9425519509241 L 449.7962434142828,311.2811562307179 L 447.5003946069628,310.96721732756123 L 445.8359042201191,311.09054692229256 L 443.60462614148855,310.4156539104879 L 440.9787490516901,310.8707992383279 L 435.79515286907554,310.3170099654235 L 433.99075921811163,309.33297313703224 L 433.51365313492715,309.3553852480836 L 432.4410612490028,309.7946943412535 L 429.72908981889486,308.8489072304219 L 426.66197929531336,308.69204915035516 L 423.76347018405795,309.1223060968332 L 421.46403410844505,308.95871226955205 L 419.2291687615216,308.423166885972 L 417.54674203135073,307.5561700039543 L 415.37286018021405,305.70867619104683 L 414.6446456499398,305.51167076732963 L 413.05548779666424,305.614649401512 L 411.62775681726635,305.142317160964 L 410.09240792132914,305.0483064353466 L 407.02529739774764,304.34331066999584 L 405.50071027316153,303.6899242475629 L 404.9375098850578,303.2894528256729 L 404.8047811258584,302.7369261630811 L 405.5688683036715,301.1916806860827 L 404.96262069419026,300.83845458133146 L 402.9465784486383,300.55455949762836 L 401.6623380333185,300.0449502905831 L 401.3610078636557,299.6784374746494 L 401.56548192352057,298.95446946285665 L 401.5188474673778,298.563502763398 L 400.9592343494296,298.02739426493645 L 399.535090636462,297.681203332264 L 398.8140505757183,297.2747540315613 L 398.25443745590746,296.6941979327239 L 396.6078833770007,295.7431972352788 L 395.26265946775675,294.51131708035246 L 394.70304631255567,294.299354549963 L 392.4538318924606,294.1521042282693 L 391.7399664018303,293.6903158095665 L 391.7866008579731,292.325400932692 L 392.37491212412715,291.1549614383839 L 392.47535550408065,290.56432349886745 L 392.0664074178785,290.0874314401299 L 390.96870472095907,289.8534671445377 L 390.45931325666606,290.0606918479316 L 389.4369430579245,291.1616484890692 L 387.4388371538371,292.51270921574906 L 386.7393207028508,292.80484190257266 L 386.09002594091,292.73570894123986 L 385.75282315537333,292.36330774612725 L 385.0461322031915,290.33701131353155 L 383.89462054893374,289.013558588922 L 383.7224318701774,288.35648238286376 L 384.2820450235158,287.12731581833214 L 383.60763941705227,286.75776316365227 L 382.1117504388094,286.34150858875364 L 381.53061370924115,285.94978671055287 L 378.88141942583025,282.97330213338137 L 378.1765220556408,282.4218962579034 L 375.9793230108917,281.64830149011686 L 375.3874244745821,280.04610296478495 L 372.6449613161385,278.4157979679294 L 372.10866538994014,276.7929391209036 L 370.98943908140063,275.6567362686619 L 370.66120444983244,274.9933882923797 L 370.83518674597144,274.19044550834224 L 372.9516723714769,272.7735614650883 L 373.8377265408635,271.8115715137683 L 376.757759263739,270.7700933772139 L 377.27253161370754,270.16086632106453 L 377.42140306532383,268.7567381709814 L 377.790891231969,268.108023582492 L 379.3657000120729,266.98137053940445 L 381.02122224494815,264.2360276435502 L 381.24721988104284,263.60365214571357 L 381.2543944194913,262.42102747317404 L 381.4086467549205,261.93925333674997 L 382.3520971145481,261.00021081371233 L 382.78974331356585,260.2491631167941 L 382.94399561546743,259.491656224709 L 382.7431088592857,258.714448004961 L 381.6776915099472,257.0480216201395 L 382.00413252413273,256.32211145106703 L 382.70006167143583,255.75517039373517 L 384.6120733059943,254.8134178770706 L 385.17886099778116,254.38563480554149 L 385.5017147101462,253.75287850899622 L 385.4801911339164,252.9350986853242 L 385.09276665747166,251.35519909393042 L 385.30441522039473,250.40804950613528 L 386.50614856369793,248.64880813192576 L 386.4523396063596,247.81904120370746 L 386.11154955253005,247.19409731589258 L 384.4183610510081,245.7092114808038 L 383.3529437016696,244.31949979020283 L 383.29196024127305,243.16989389574155 L 383.9161440897733,242.09537063306198 L 385.83891749568284,239.8748727813363 L 386.8971603419632,239.0142928706482 L 387.0442381426692,238.44361850759014 L 386.7429079711437,237.61191985104233 L 385.87120287679136,236.25617580581456 L 383.4713234230876,234.57649320410565 L 382.56733294576406,233.44985262257978 L 382.51711125671864,231.5919160703197 L 382.7072362434119,231.1648192149587 L 382.64984001778066,230.76624294137582 L 381.74943680875003,229.69775911187753 L 381.2005854602903,228.26633145101368 L 380.86696990951896,227.96873866394162 L 376.1802097670734,226.0590625582263 L 374.94977831095457,225.10571097768843 L 373.7749494276941,222.36518721142784 L 371.9508257843554,219.74251068104059 L 371.4808942396194,219.27321378560737 L 370.14105121418834,218.56611346174031 L 367.6999182254076,216.5656206025742 L 367.337604559958,216.07276329537854 L 367.2891764882952,215.42735613742843 L 367.6748073808849,213.61169693944976 L 367.56001492775977,212.58331385534257 L 367.1869394928217,211.73817402683198 L 366.5519938040525,211.42892121942714 L 364.4103973340243,211.64234629226848 L 363.81491156481206,211.37012269813567 L 363.40955074876547,210.62324969144538 L 363.3629162926227,209.69695610925555 L 363.55662854760885,208.75349818821996 L 364.6076968573034,206.8782167970203 L 366.6703735254705,204.63658849895 L 369.1384109761566,203.2501460998319 L 369.2890760451555,202.21610228344798 L 368.2720868010074,199.28506292495877 L 368.2649122644216,198.52447593212128 L 368.70255842991173,196.21008676011115 L 368.6541303563863,195.2041140939109 L 368.4353072922677,194.64163114316761 L 367.4667460527271,193.52776661375538 L 367.081115193665,192.69151474442333 L 367.2371611818671,191.3378979153931 L 367.0757343079895,190.5519541800022 L 366.52329569123685,190.0334997344762 L 364.1090671643615,189.42746939789504 L 363.30552010051906,188.48183563817292 L 362.81047767587006,188.3184850588441 L 361.2338752783835,188.67224055714905 L 360.8877043053508,188.5748731708154 L 360.1200298219919,186.80541448434815 L 357.65916690789163,186.33615807909518 L 352.9688194990158,186.38589200889692 L 348.3107574712485,185.71454255701974 L 347.2525146584958,185.7523769387044 L 344.3880845438689,186.37183669023216 L 341.58463792316616,186.491849206388 L 339.7587206289172,187.2823029793799 L 337.78931283578277,187.47156215412542 L 330.2919315379113,190.11359009053558 L 329.12068989127874,190.19476449722424 L 327.27862997353077,189.90795643487945 L 326.3495286516845,189.58654236607254 L 325.7719791904092,189.00114570185542 L 325.75045558065176,187.08764690347016 L 324.67786372825503,185.8442620933056 L 324.8895122911781,185.22273240378127 L 325.9065015334636,184.20257787080482 L 326.2167998570949,183.65479757543653 L 326.67955690063536,182.06811396311969 L 327.8095449786633,180.185314795468 L 328.71891637519,177.94107048772275 L 329.24445053189993,177.61318341037259 L 330.6040234807879,177.4244462447241 L 332.46940065920353,176.61892006220296 L 333.9473533295095,176.88093880238011 L 334.2935242690146,176.4313134471886 L 334.7939475439489,174.13339044619352 L 335.26029185578227,173.65178928570822 L 336.101505221799,173.18425625748932 L 336.2360276337713,172.9106591809541 L 336.21450402215123,171.90046950615942 L 335.50422579981387,169.27078501414508 L 335.5723837967962,167.68292575050145 L 335.8773012366146,166.93549719592556 L 336.35799458809197,166.30111117614433 L 337.84491541050375,165.57761726062745 L 338.28076795861125,164.60387085611 L 340.1102724876255,162.53579987119883 L 340.6609174888581,161.24399046832696 L 340.41339627467096,159.8796620699577 L 334.52490279078484,154.90223595965654 L 333.8504972178489,154.5196397039108 L 332.26851386763155,154.86150951962918 L 331.8595657814294,154.69646487338468 L 330.6972923222929,152.48623255360872 L 330.4318348020315,152.11459974385798 L 330.010331293568,151.9293330493383 L 328.65972653217614,151.94432542053983 L 326.06075390428305,150.35120018199086 L 324.59535665623844,150.24416028894484 L 322.2743969708681,151.40892327064648 L 320.92558579333127,151.1819365406409 L 319.29517440497875,150.0001211403869 L 318.66202236898243,149.84385901642963 L 317.7221592422575,150.143545685336 L 314.4882409591228,149.76144953537732 L 313.33134838566184,149.00272744335234 L 312.4130088686943,147.83017570804805 L 311.7457778006792,146.419547685422 L 312.3950725272298,141.93567859288305 L 312.05069520510733,140.73549819737673 L 310.949405239895,139.86123690055683 L 310.0992237199098,138.66920421086252 L 308.9226011876017,137.78263417165726 L 308.54593848250806,137.22690336732194 L 308.60692201182246,136.41959018912166 L 308.786285193637,136.09543507779017 L 309.876813352108,135.31608683383092 L 310.3790302798152,132.91511166794226 L 310.27141236513853,132.4091137307696 L 308.0221980139613,128.84033879311755 L 307.4087759014219,128.3285152344033 L 305.97028311528265,127.82314575323835 L 305.2707666642964,127.37103162007406 L 304.2161111216992,126.04373109852895 L 303.5668163597584,124.48518614750355 L 303.39821498282254,122.78386753750965 L 303.76411588303745,121.01536604110152 L 304.6627254728228,118.71810297155753 L 304.79007331468165,117.85434258496389 L 304.19817477837205,110.85190849239007 L 304.87796130403876,106.9736777418293 L 305.9720767326653,103.86044948641211 L 306.06355195865035,103.32985083526 L 305.8572842814028,102.95150153758004 L 304.1945875454694,101.69835920864716 L 303.25113718397915,100.67164308484644 L 299.45222482830286,94.7829367686063 L 298.42626736313105,93.88671707175672 L 297.9706848561764,93.15513745043427 L 296.87656942754984,92.14549467433244 L 295.62461435981095,91.24779210425913 L 294.69551303982735,90.85590412281454 L 293.43638346903026,90.94439144479111 L 292.25617370195687,90.5630681104958 L 290.05359370075166,89.42985812714323 L 288.6760844103992,89.26980374520645 L 287.7541576270014,89.92269968707114 L 285.2610093317926,93.294274286367 L 284.9991390798241,93.893042572774 L 284.89510839805007,95.54225388541818 L 284.6655235271901,96.04222085978836 L 284.23146459646523,96.29117427067831 L 282.2764058448374,96.64986488316208 L 280.24960182607174,97.806346450001 L 279.08374109864235,98.26228334847838 L 278.30709846131504,98.24961767438799 L 275.9843451939523,97.16264055017382 L 275.30993958748877,96.63087452482432 L 275.4301129244268,96.22787951445207 L 276.0327732656151,95.95994328986853 L 279.539323605597,95.79328389652073 L 279.85859008319676,95.42623722972348 L 279.40838846191764,94.91580627439544 L 278.06137093529105,94.2725927005522 L 276.775336869061,94.48557918844745 L 273.13426411896944,95.79328389652073 L 269.62771374359727,95.95150465145707 L 268.8385157212615,96.9220704222098 L 267.9542552381754,97.64593731565401 L 266.2987330034375,98.38260918855667 L 265.5848675146699,98.33194521348923 L 265.1400467790663,97.79368234751746 L 264.0208204705268,95.34608233068138 L 262.8746897019446,94.28524504415691 L 262.5895022209734,93.0560583025217 L 262.39220273308456,92.76937575731426 L 260.56987274065614,91.7514065457508 L 259.5977242682129,90.72317707398906 L 259.2210615631193,90.5188286206685 L 257.8148541599512,90.442990783602 L 256.28667976520956,90.59888136386871 L 255.3163249436766,90.12280319444835 L 253.18010932393372,87.70541659416631 L 251.28962133452296,86.37103822501376 L 250.23496579006314,85.93967535160482 L 249.16416755504906,85.83026423724368 L 246.90957224927843,86.33316049352288 L 245.81545678712428,86.30790885491297 L 245.36884246766567,85.58830859977752 L 245.62174456566572,84.9803313924931 L 246.5831312686205,83.65952522819862 L 246.78760529495776,82.06801536679268 L 247.28982222266495,81.46270120469853 L 247.98216413520277,81.02769092144445 L 248.66733151301742,80.83226767648011 L 251.55328523740172,81.21681972919032 L 252.805240271613,80.80705250892788 L 252.96846076101065,79.10331263765693 L 252.6097343992442,78.34307218808681 L 252.07881935872138,78.0973914093338 L 250.6761992238462,78.14988598041236 L 250.11299880035222,77.98400562489405 L 246.96696847490966,75.7862447090447 L 246.32484825141728,75.54702310170978 L 244.47023287788033,75.1987095437944 L 243.18957973085344,74.64273240417242 L 241.12690302729607,74.3637252333574 L 238.7216426897794,73.33388194348663 L 238.08310973271728,73.21434572339058 L 235.86079980805516,73.41776921087876 L 233.48603119887412,73.39679723232985 L 230.81351968832314,74.56720967963338 L 228.79030290432274,74.20010638749227 L 227.29082665778697,74.35743208415806 L 226.5966911278665,74.71196292573586 L 226.54826305620372,75.03715317463502 L 226.96797291189432,75.86389002483338 L 226.89622764661908,76.76846898719668 L 226.65050008520484,77.33105279551819 L 226.13931497000158,77.60397770535201 L 224.09816187806427,77.55778906401247 L 222.80136604048312,77.18410129705444 L 220.46067639626563,76.02548125525936 L 217.72000688686967,73.49956107977778 L 216.39271928556263,73.31710468558595 L 215.5497123040259,72.72994762659073 L 214.3730898052454,68.15948176104575 L 213.70944597013295,67.22970762383193 L 210.44862319156528,63.86010813480243 L 209.66659973934293,63.51075899787247 L 204.9744586776942,62.5507343118079 L 204.38614741154015,62.23077905504033 L 204.07046823576093,61.67039830191061 L 200.6589803546667,48.685139511246234 L 200.5531560573727,46.92884829547256 L 201.143260974437,45.32949696062133 L 202.24813820794225,43.72455490473658 L 202.52794480323792,42.07658223807812 L 201.87506277300417,36.76283489307389 L 201.95398257486522,34.33079961268231 L 201.80152385681868,33.56058683432639 L 199.56127765774727,28.98392683453858 L 198.9693791233003,26.82813174603507 L 199.17564676515758,26.289365872275084 L 200.3971101026982,25.435778833925724 L 203.17723956517875,22.768464609514922 L 202.54946837946773,22.366865638643503 L 200.9100888017565,19.908471426460892 L 198.14789571799338,17.914725294336677 L 157.911351531744,6.121467918623239 L 156.18408403359354,6.17713209381327 L 150.4121766164899,7.22767952689901 L 138.52039719372988,7.326665734872222 L 129.15046421438456,4.518875557463616 L 127.93079452961683,3.8934702863916755 L 127.13800923712552,2.8633596152067184 L 125.87529239803553,0.38598761428147554 L 124.92825473472476,0.0 L 120.96791550517082,1.7120064571499825 L 106.96682499535382,4.418927849270403 L 69.09608129784465,0.8451033714227378 L 65.51957927644253,1.5246078921481967 L 13.509635388851166,18.322080079466105 L 12.411932691931725,18.828746777959168 L 45.658693393692374,58.604377114214 L 45.52596463263035,58.86344251316041 L 45.57618632167578,59.59267926448956 L 45.87034192122519,59.99392250040546 L 45.73761319555342,62.75777826085687 L 45.586948128417134,63.23046567523852 L 46.25059192813933,64.54634701088071 L 46.498113106936216,65.39803859684616 L 46.32592442817986,66.99939286522567 L 45.29637976363301,69.61113201640546 L 45.152889197692275,71.22052733460441 L 44.85873356461525,72.13239782582968 L 43.592429457232356,74.50427519204095 L 43.81842705793679,77.05604816926643 L 43.57808041758835,77.80763436853886 L 42.33688712120056,79.39106738753617 L 41.655307011678815,79.93302936665714 L 40.76207830570638,80.28807713743299 L 12.781420860439539,84.38927708566189 L 11.626321902498603,84.87515490408987 L 11.217373851686716,88.69071586057544 L 10.697220616042614,90.65997538529336 L 10.614713544026017,91.6144336485304 L 11.055946977809072,94.62898280471563 L 10.575253626331687,98.40794147225097 L 10.499921092763543,100.38649386260659 L 10.758204076439142,102.91345733590424 L 10.697220616042614,103.80125548737124 L 10.316970642656088,105.06144355190918 L 10.614713544026017,105.96244135685265 L 10.001291433349252,106.61400176817551 L 10.270336221903563,107.24239938985556 L 11.17791393212974,108.41484364913777 L 11.38597522675991,109.09858610108495 L 11.852319538593292,112.36025396594778 L 11.924064803868532,115.70112001197413 L 9.215680677443743,125.79810512717813 L 3.1496176291257143,146.4216861492023 L 2.643813433125615,149.06799918878824 L 2.593591708689928,152.3427156866528 L 2.805240271613002,152.92217297991738 L 9.380694819614291,161.84849549131468 L 10.38154137134552,162.7398685081862 L 11.51870402134955,163.45097665395588 L 11.88101765140891,163.92476842133328 L 12.074729906395078,164.7553968867287 L 11.888192154467106,166.16457146871835 L 11.988635567948222,166.76237402996048 L 12.602057678624988,167.17315195221454 L 14.248611759394407,167.2839194019325 L 14.761590456590056,167.47104899492115 L 15.06650786101818,167.9948482271284 L 14.758003188297153,168.59187870146707 L 14.173279190436006,169.12014500051737 L 13.635189646854997,169.43542024865746 L 12.469328884035349,169.73027606774122 L 11.127692243084311,169.82928416412324 L 8.577147686854005,169.69153450336307 L 5.858001755550504,169.90138953644782 L 3.056348752230406,171.06388560961932 L 0.8681178614497185,173.17240714933723 L 0.0035873036831617355,176.2167639201507 L 0.28339386358857155,177.582984757144 L 1.355985714122653,180.00615510391071 L 1.4313182830810547,181.64806874236092 L 0.43764619901776314,188.0394000923261 L 0.0,192.2290611686185 L 0.20806129463016987,194.1052421592176 L 1.1837970707565546,196.0810721204616 L 2.2779125329107046,197.50483013456687 L 3.493994951248169,198.77292359154671 L 5.144136264920235,199.65293761948124 L 5.68581311032176,200.2466098088771 L 5.445466434583068,201.1411051559262 L 14.011852316558361,201.6568457330577 L 13.61725333891809,202.44417413463816 L 11.041597904637456,205.80179609637707 L 10.155543768778443,207.38392212847248 L 9.735833913087845,207.76569626899436 L 8.885652394965291,208.15730258077383 L 8.577147686854005,208.45103594008833 L 8.056994451209903,209.74484306480736 L 7.389763383194804,209.9657846284099 L 7.899154847487807,210.85186738241464 L 8.763685438781977,211.2982592061162 L 10.664935234934092,211.55523245455697 L 11.529465792700648,211.7991566718556 L 12.207458667457104,212.2630951325409 L 14.184040995314717,214.6839772448875 L 14.650385273620486,214.95209859265015 L 15.992021948099136,215.0916170538403 L 16.354335578158498,215.5734344930388 L 16.49423887580633,216.60051579168066 L 16.42249361053109,218.68831808678806 L 17.05026476085186,219.4238184769638 L 18.1479674577713,220.28391759237275 L 18.822373064234853,221.49802253674716 L 19.019672587513924,222.19697971828282 L 20.085089903324842,222.5552496369928 L 20.511974330991507,225.44460188550875 L 20.296738466247916,227.032363074366 L 20.407943649217486,227.56396589893848 L 20.899398805573583,228.3604286108166 L 21.627613335847855,231.18234012508765 L 21.835674630478024,232.93487650342286 L 22.08678311109543,233.54189897654578 L 22.92620282433927,234.72557035367936 L 22.560301890596747,235.11144712986425 L 22.66791984066367,236.31978298397735 L 21.15768178924918,238.59286263305694 L 21.71370767429471,238.96819639671594 L 21.72805674932897,239.37650056788698 L 21.36574308387935,239.96928617311642 L 21.369330352172256,241.28914909204468 L 21.57380437850952,242.1942391525954 L 22.072434036061168,242.60732045769691 L 23.64006831496954,242.76553493458778 L 24.307299382984638,243.14791661687195 L 24.583518709987402,243.90181650966406 L 24.422091836109757,246.0919206403196 L 24.583518709987402,246.96527306502685 L 25.51261999644339,248.4198868777603 L 26.004075152799487,250.19222415145487 L 26.38791235908866,251.0115517876111 L 27.664978271350265,252.81167725287378 L 27.880214102566242,253.69776590215042 L 27.428218863904476,256.30666818795726 L 27.17352314852178,256.7038017869927 L 29.465784687548876,257.23338511027396 L 30.014636071398854,257.10098162060603 L 30.341077050194144,256.81191840814427 L 30.014636071398854,256.2184226051904 L 31.123100573197007,255.3360915724188 L 31.01189535483718,254.5201381421648 L 31.460303358733654,253.93365404568613 L 32.65844946913421,253.47512003034353 L 34.91483839228749,251.39925890928134 L 36.51117074675858,249.61528832186013 L 38.80343231931329,248.69063188275322 L 43.484811540693045,247.97309418860823 L 45.54748820886016,248.1315558650531 L 49.72306323423982,249.59547163685784 L 51.74986728653312,249.55583865288645 L 52.78120560385287,249.04505410511047 L 53.69595788605511,248.40888143982738 L 57.25452356599271,244.89114859560505 L 58.210529347881675,244.24475272605196 L 60.1243345644325,243.39846557937562 L 60.633726028725505,242.86662022117525 L 61.241767255589366,241.44730301760137 L 61.2327990680933,238.98136680340394 L 62.09194877371192,236.80235822685063 L 62.45605602115393,236.36145726498216 L 63.00490736961365,236.6531913941726 L 66.3823162522167,241.25839778408408 L 67.51230433024466,242.30849070847034 L 68.45037380605936,242.36122351046652 L 71.10853627696633,240.04394044354558 L 72.17395359277725,240.18886224832386 L 73.50482846237719,239.70581332361326 L 76.59704983048141,240.93772186757997 L 77.56919830292463,241.7043186603114 L 78.91800951585174,243.23582649044693 L 81.24614370428026,244.37885887129232 L 84.39217402972281,246.88386811502278 L 86.72030821815133,248.0083072669804 L 89.5506593696773,248.47711574845016 L 90.01520999521017,248.9658012315631 L 90.7272818684578,252.7125025196001 L 90.60531491413713,253.15991357993335 L 90.02776541747153,253.63163195503876 L 89.91656023263931,254.15412500640377 L 89.89144942350686,256.9685831805691 L 90.81158255599439,257.8800294836983 L 93.47512591257691,258.75197954429314 L 94.44009988382459,259.46736577525735 L 94.67327202297747,260.1541894893162 L 94.49749611131847,260.37727130390704 L 93.38365072384477,260.9074253765866 L 92.89757648669183,261.5658148601651 L 91.12008726224303,263.1747650289908 L 90.74701182730496,264.48591477423906 L 90.16049417667091,265.57855721376836 L 90.30757201090455,266.3197191967629 L 90.84386793710291,266.8795696259476 L 91.5792570374906,267.0411246824078 L 99.1340345274657,266.8707175482996 L 102.16347878426313,267.5037014768459 L 104.9705127067864,268.8231664625928 L 106.78746177814901,270.9141085026786 L 107.43496288917959,271.275281092152 L 112.41946593113244,271.69632840529084 L 113.81491153128445,272.05758439563215 L 117.07573430798948,273.97976011643186 L 118.11604081466794,274.3035557786934 L 119.2316798530519,274.47877320693806 L 120.20382832549512,274.27028764924034 L 123.50590463913977,272.9775207401253 L 123.19739996641874,276.311337727122 L 123.92740814760327,277.5498801134527 L 126.22146330215037,279.3041498004459 L 127.4483075607568,279.9150274451822 L 128.73972247727215,280.1571878241375 L 130.1710407603532,279.92169220605865 L 131.17726823315024,279.57958641368896 L 131.5216455552727,279.8705962719396 L 132.07049693912268,281.5994020276703 L 132.47944498993456,282.11955070402473 L 133.6453057192266,282.7398329661228 L 136.20123116113245,283.337991183158 L 137.37067915685475,283.7738909460604 L 138.52039719372988,284.70592740084976 L 139.23067541606724,285.5581105076708 L 141.95520226843655,289.78885138593614 L 142.57041799649596,291.2797888624482 L 142.9686042778194,292.8717461042106 L 143.1300311498344,294.59164327103645 L 142.3838802780956,298.01845988538116 L 142.37670577690005,298.8919117115438 L 142.93273162655532,301.4912815243006 L 143.50669385492802,302.87784528918564 L 148.5001650173217,312.0683766868897 L 148.97009656392038,313.53790690004826 L 148.82660603150725,315.2370934425853 L 148.16654950007796,318.54257106082514 L 148.32438910380006,320.23871302232146 L 148.97009656392038,321.3452160684392 L 149.98170495592058,322.10558998491615 L 156.2701783720404,325.51030344329774 L 158.8386592362076,326.3628774951212 L 174.05224493145943,326.75714102527127 L 175.28267638757825,327.4038357282989 L 176.8897705487907,329.62655193917453 L 178.31032702699304,331.2449419675395 L 178.4968647453934,332.1306014582515 L 178.47713478654623,333.0966381300241 L 178.20270911231637,334.9697102610953 L 178.71568784490228,336.88001567171887 L 179.51206037029624,338.46242656186223 L 180.2869093902409,339.16797671373934 L 182.3137134090066,339.28445241600275 L 182.7728831488639,339.6700957128778 L 183.0778005886823,341.4439631123096 L 184.56651506386697,340.8714234204963 L 185.42566473595798,339.13405256392434 L 186.3314488288015,338.36067711235955 L 194.12298575975,335.42713299719617 L 194.75434418022633,334.88275068392977 L 196.31839118897915,332.98828341672197 L 197.01790760457516,332.631640996784 L 198.9406810104847,332.5402293992229 L 199.4285488985479,332.1306014582515 L 200.30384126119316,331.75600031763315 L 201.57731987163424,330.63696520449594 L 202.48848488368094,330.54673704504967 L 204.88118983618915,331.33406120119616 L 205.7098477780819,331.44123308965936 L 206.06139960326254,331.2686316310428 L 206.5833464898169,330.4926013755612 L 207.01381815224886,330.2760675898753 L 207.66849379986525,330.57380525860935 L 208.8128309175372,331.70410116994753 L 210.06657963618636,332.29083551233634 L 211.78667259775102,332.26375311706215 L 214.08072778768837,331.28893721848726 L 215.44926892593503,331.1693617054261 L 216.86803175136447,332.03807549830526 L 221.4077140595764,332.24005625909194 L 224.59679153747857,332.99505547014996 L 226.27204372920096,332.9589379397221 L 228.29167324490845,331.656715631485 L 229.01988780871034,331.44123308965936 L 229.44677216745913,331.0464065121487 L 230.34717541001737,328.48795449128374 L 231.04669182747602,328.0472767325118 L 232.58562799170613,327.4534133723937 L 233.2851444426924,326.80896204151213 L 234.28419737704098,324.5836473950185 L 235.06083997897804,324.26731547992676 L 235.83568896353245,324.4204118466005 L 237.15938929654658,325.2817115280777 L 239.6435694731772,325.76819218927994 L 241.0300469174981,326.64786895690486 L 242.8093297574669,328.28733169380575 L 243.530369784683,328.48795449128374 L 244.32853596284986,328.09235615376383 L 244.98321161046624,326.2885359209031 L 245.55179291777313,325.78170658648014 L 245.92666197009385,325.9236109168269 L 246.62438477016985,326.9711896223016 L 248.04314763098955,327.27088111266494 L 249.5820837598294,326.3763942942023 L 251.26092322170734,326.3763942942023 L 251.98016959801316,326.19617456011474 L 252.59359170868993,325.824502479285 L 253.00074614211917,325.2434267671779 L 253.15858578309417,324.4294177037664 L 252.89850914664567,320.99433340271935 L 253.3253935072571,320.4096120093018 L 254.11279794760048,319.83061512187123 L 254.97553488984704,319.38884701998904 L 256.5449627842754,319.01232292409986 L 257.02565610036254,318.4729006565176 L 257.9439956508577,316.811359686777 L 259.4506464339793,315.77374189766124 L 260.643411623314,314.28975099977106 L 261.1617712415755,313.2080472111702 L 261.4774504862726,312.9825497432612 L 261.9115093816072,312.96347851026803 L 262.6827710978687,313.3718509403989 L 264.9786199051887,315.3538463865407 L 266.051211791113,315.8972507501021 L 267.2457705978304,317.0067916815169 L 268.15334834344685,317.1348396362737 L 269.58287297561765,316.6552470130846 L 270.41691180318594,316.64850851520896 L 270.7828127015382,317.27187887905166 L 270.5209424495697,319.97900854283944 L 270.7828127015382,320.69971083290875 L 271.4410756174475,321.1787670808844 L 272.1136875730008,321.12703464599326 L 273.4732605200261,320.69971083290875 L 274.3772510327399,320.79641608474776 L 275.0570374894887,321.1416546073742 L 275.28482874296606,321.7906208964996 L 274.7879927009344,322.80762942507863 L 276.94214462675154,322.96965977549553 L 278.9581868406385,323.374770518858 L 279.26669154688716,323.56383930752054 L 279.91598627343774,324.5926537425257 L 282.53468886204064,325.1871263831854 L 282.8647171109915,326.21870147576556 L 283.2880142368376,326.8483915962279 L 284.0736249908805,326.9711896223016 L 283.5983125604689,327.8647114671767 L 283.99111792072654,328.32790610706434 L 287.14073554985225,328.1949141221121 L 288.83751128427684,327.16497195186093 L 289.2500466387719,327.13342521339655 L 289.39712447300553,327.55707818921655 L 289.30744282901287,328.48795449128374 L 288.89670116081834,329.8024497050792 L 289.02225538529456,330.29636703198776 L 289.78634256497025,330.54673704504967 L 290.51276347599924,330.36177716078237 L 291.6768305879086,328.48795449128374 L 292.17725386470556,328.25802829675376 L 292.56288475729525,328.36171851539984 L 292.7476288229227,328.7494587963447 L 292.62566186860204,329.38076184270903 L 291.6768305879086,330.2760675898753 L 291.4956737551838,330.7948703924194 L 291.592529900372,330.93924752948806 L 294.2847713716328,330.54673704504967 L 294.97173236496747,330.16329520987347 L 295.67483608424664,329.5160568272695 L 296.2147192787379,328.7494587963447 L 296.72590436041355,327.1627186220139 L 298.8316281810403,325.4821508899331 L 299.45222482830286,323.9330048589036 L 299.77507857605815,323.5728428643197 L 304.01163709536195,320.72894698614255 L 304.70935989543796,320.7952916417271 L 306.3164540566504,321.32047310844064 L 306.7271957937628,321.4734325222671 L 307.66167799942195,322.4813424712047 L 309.0625044833869,323.374770518858 L 309.6364666763693,323.9330048589036 L 310.8310255538672,325.9438834702596 L 310.93684981763363,326.5014275587164 L 309.71000559441745,326.90472043910995 L 309.98981215432286,327.8647114671767 L 309.7046247087419,328.2602824214846 L 309.4750398043543,329.7618570593186 L 308.8974903766066,331.0870150597766 L 308.829332344234,331.90041979262605 L 309.0625044833869,332.3607993382029 L 308.57104936242104,332.7964140032418 L 308.61768378317356,335.2757811448537 L 308.829332344234,335.9693465284072 L 309.7745763566345,336.8110851957463 L 310.2498887889087,337.76155005488545 L 312.5421503614634,339.63164244638756 L 313.1394297480583,341.4699899884872 L 313.83356531336904,341.7789341076277 L 318.56516625732183,341.3466468914412 L 319.34001520834863,341.497148769442 L 320.8072061073035,342.13204892678186 L 321.66456216201186,342.2452348135412 L 322.7120431698859,341.9713316243142 L 323.32905251532793,341.5808896580711 L 324.05009257793427,342.08224834827706 L 326.55758991092443,343.18709405558184 L 327.3754860833287,343.14180611632764 L 327.9458610434085,342.63915242487565 L 328.6453774590045,341.31722626881674 L 329.8291744943708,340.9596739769913 L 330.45694568008184,340.1507999682799 L 331.8595657814294,339.8261754112318 L 331.6407427173108,340.1507999682799 L 332.5949548818171,339.9913113922812 L 334.6755678579211,339.42581196594983 L 335.6728271767497,339.8261754112318 L 337.11490723118186,341.4835693943314 L 337.7068057656288,343.14180611632764 L 338.55698728375137,343.14180611632764 L 338.81168299913406,343.41354310978204 L 339.05202967487276,344.03296170709655 L 338.9946334492415,344.7827630424872 L 339.74257793836296,345.6992956120521 L 340.0187972635031,346.98672912595794 L 339.55065933428705,349.52342193806544 L 339.74257793836296,350.03054443001747 L 339.09687047824264,350.804427722469 L 338.77222308143973,352.0064685656689 L 338.53546370752156,352.37545618927106 L 336.99652754329145,352.91822818340734 L 336.4118035454303,353.8359238724224 L 335.92752292566,355.11636196123436 L 335.76430243626237,356.4689271049574 L 336.1678696013987,357.58777790889144 L 336.8655924014747,357.00670040911064 L 337.6458222717047,356.84751927061006 L 339.27085277438164,357.2886975700967 L 338.87625376321375,358.00744672399014 L 339.0071888715029,358.79006423428655 L 340.04211449064314,359.1632392946631 L 340.39007908292115,359.79022489953786 L 341.5182735081762,360.4583089957014 L 343.0769396331161,362.5305903451517 L 344.6104948762804,364.12783832941204 L 346.16198649816215,364.9096617666073 L 346.5171255916357,365.27442563604563 L 346.94400998577476,366.01775987725705 L 347.84441319294274,368.4518982740119 L 348.8649897389114,370.4642474860884 L 349.1860498338938,371.55141742154956 L 350.43083039857447,372.1008522887714 L 350.90076194517314,373.60914029274136 L 350.87206379696727,374.89174282131717 L 351.0191416312009,375.2850855886936 L 351.3419953789562,375.4680521860719 L 352.13298705406487,375.42002245178446 L 352.45404714904726,375.60070943972096 L 353.68089137226343,376.51802487298846 L 353.96069793216884,377.0374196176417 L 353.27014966867864,377.56834182236344 L 353.27014966867864,377.868168709334 L 353.91047624126077,378.2744674962014 L 355.9408675637096,378.4896550341509 L 356.60989224910736,379.55664972169325 L 357.17129901982844,379.687186346855 L 358.2690017167479,379.68260606145486 L 359.4545924048871,379.40779863949865 L 360.01958644390106,379.9173560817726 L 360.4249472618103,379.986066670157 L 361.8562655095011,379.29673733981326 L 362.6885107215494,379.09065442020074 L 363.05441161990166,379.54405437828973 L 362.93961916677654,380.5506945922971 L 363.1925212647766,380.8656926159747 L 364.00144924782217,380.8931848630309 L 364.840868961066,380.53809528891 L 365.549353601411,379.8360504321754 L 366.0461896080524,378.6762389782816 L 366.63091360777617,378.01237029209733 L 367.574364002794,378.16802368080243 L 368.9769841041416,377.56834182236344 L 370.31503351032734,376.5752228195779 L 372.4584236331284,374.3452593777329 L 375.31926647759974,373.1451519280672 L 376.5084443986416,372.34761456307024 L 377.33351507410407,371.04775620950386 L 377.5541318245232,369.0841173501685 L 377.3658004552126,368.08106947969645 L 376.7362356521189,366.1751133664511 L 376.5138253197074,364.88458575634286 L 375.87170509435236,363.63217383949086 L 375.39818628132343,361.8267763927579 L 374.3650543130934,359.87330109765753 L 373.78033031336963,357.75495649920776 L 373.86642465367913,356.72472774004564 L 374.68432079069316,356.65992300678045 L 376.0008465871215,355.5857175895944 L 376.743410224095,355.2652300973423 L 378.0635232552886,356.1290277177468 L 382.29828815720975,357.5934641114436 L 383.54306868836284,357.516132555902 L 384.59413699992,356.7952186143957 L 385.6487925425172,355.4879769333638 L 385.39050956070423,355.18340856814757 L 385.5555236674845,353.6928007644601 L 385.39050956070423,351.85547956544906 L 384.84883271344006,351.07680585607886 L 383.56817953288555,350.2438545394689 L 383.28119843639433,349.4576266342774 L 383.7331936750561,347.63290455238894 L 383.02291545271873,344.03975670132786 L 382.3090499639511,342.8440536838025 L 382.1583848595619,340.9257311960682 L 382.64625274948776,337.39534536888823 L 381.81042026914656,334.0381208760664 L 382.07229052111506,332.3607993382029 L 382.04359244182706,329.6040015919134 L 381.83553114905953,329.0560765042901 L 381.80683300085366,327.8376656761393 L 380.52617982029915,325.6409345236607 L 380.651734078303,324.5926537425257 L 380.2105006445199,323.53907967498526 L 379.9378685876727,321.7501270920038 L 379.86612332239747,319.12358972616494 L 379.9378685876727,318.5908917640336 L 380.74500295333564,317.1910025877878 L 380.86696990951896,316.6777087999508 L 380.9745878241956,313.9553276235238 L 381.27591796033084,313.17214604560286 L 383.2453257869929,309.96505434578285 L 383.59329037740827,309.0954134105705 L 383.83004978485405,307.0969998370856 L 384.0919200722128,306.21243623876944 L 384.9421015549451,304.63871927233413 L 386.11154955253005,303.4080231357366 L 387.5679786466062,302.63627330958843 L 389.1965964175761,302.27394816465676 L 390.88261038064957,302.27394816465676 L 392.5865606870502,302.59601300302893 L 393.93895913288,303.16193851688877 L 404.00840856321156,310.6846977812238 L 404.91598627343774,311.6814714469947 L 406.0961960423738,312.3622305346653 L 407.2584695369005,313.84535685461015 L 408.6288042906672,314.79032706841826 L 412.14073554985225,316.22288711182773 L 413.7011952549219,316.54406332038343 L 416.097487475723,316.1016118656844 L 417.2669354714453,316.6923090610653 L 422.4397698491812,317.46396806882694 L 422.7482745219022,317.8773909108713 L 422.9599230848253,318.71562975039706 L 424.40559040755033,320.99433340271935 L 426.02344637550414,324.3697541691363 L 427.0565783083439,325.79747343203053 L 428.43767486698925,326.64786895690486 L 430.9272359646857,327.2596140289679 L 431.6913231089711,328.176881742198 L 434.1665351316333,329.6806733175181 L 436.6632707286626,329.93212399818003 L 437.3663744479418,330.4125273274258 L 438.3600464630872,332.28970708558336 L 438.9053105786443,332.9589379397221 L 440.2290109116584,334.00199183868244 L 440.53392831608653,334.1103801904246 L 441.2836664561182,333.8236106294207 L 441.6603291593492,334.00199183868244 L 443.3535176962614,335.82813643524423 L 443.9023690447211,336.2404870092869 L 444.60547272861004,336.48001314047724 L 445.4700032863766,336.57040490442887 L 446.29507395997643,336.459675330203 L 447.4537601862103,335.937714939937 L 449.61329296417534,337.13541014352813 L 451.16299089975655,337.1806147978641 L 455.32062965258956,335.64174847491086 L 457.7312708757818,334.9979443643242 L 460.47194041870534,334.8816213635728 L 460.21007016673684,333.4183374205604 L 460.20289563015103,331.58225414482877 L 459.97331075929105,330.94827132252976 L 459.3885867614299,330.254640547093 L 458.2837094925344,329.5025270995684 L 456.9492473900318,329.3649777439423 L 456.2210328243673,329.1000424507074 L 455.48923102766275,328.4631577869877 L 455.051584828645,327.60891178110614 L 455.20224993117154,326.6963086905889 L 455.75827581621706,326.3606246719137 L 457.2254666797817,326.82135417079553 L 457.93933217041194,326.7650267565623 L 458.93659152276814,325.6555745024234 L 459.30966695956886,325.6792239565402 L 460.21724470332265,326.2457339866087 L 461.53018323145807,326.04299550689757 L 462.0252256579697,326.1578791057691 L 463.3453386873007,327.3880611304194 L 465.5335696134716,327.76892516901717 L 467.48862836509943,328.69760711025447 L 470.83913271687925,329.80921522388235 L 474.69544133357704,330.58733940543607 L 475.54203554801643,330.95052729640156 L 476.18056850507855,331.70410116994753 L 476.2379647307098,333.20048146368936 L 476.8011651542038,333.78748395945877 L 477.71950466930866,333.8021603343077 L 478.72752579301596,333.5323507199064 L 479.5741200428456,333.64862577803433 L 479.98306812904775,334.8172501823865 L 480.16601854376495,334.2481288141571 L 480.5677921269089,334.5304186847061 L 480.96239110454917,334.55864904168993 L 481.3031811583787,334.33620066102594 L 481.8089853543788,333.4826810974628 L 482.15336271189153,333.36866952711716 L 483.5488083101809,333.16887662606314 L 484.8151124175638,333.3630254534073 L 487.1181357614696,332.57521378807724 L 490.9457462299615,332.8144718008116 L 491.9501800853759,333.3776999693364 L 496.3983871676028,330.6347094899975 L 497.38129744678736,329.5769414231181 L 498.9704553000629,326.85853070952 L 500.0,326.27051400206983 L 496.58851215429604,325.52156453207135 L 496.2154367174953,325.77157079428434 L 494.6226915959269,329.10567910270765 L 494.07025294564664,329.1778297582641 L 492.50261870212853,327.69229803746566 L 491.62373907119036,327.5142596838996 L 490.6623523682356,326.2569975950755 L 490.1673099771142,326.22996499110013 L 489.50725344382226,326.80445582792163 L 487.5019729677588,326.3178217988461 L 486.3863339629024,326.2930414271541 L 485.94151322729886,326.0452480688691 L 484.8796831816435,323.9262514282018 L 484.3559426423162,323.63136649737135 L 483.6169663425535,323.5233236500062 L 482.296853242442,323.6966441171244 L 481.812572658062,323.47943227924407 L 481.7372400891036,322.63885625684634 L 482.3076150137931,321.7163825840689 L 483.4124922826886,320.90099591063336 L 485.5720250606537,319.82611845061183 L 486.1782726701349,319.1011112923734 L 487.04997776448727,317.5257535208948 L 487.8535248283297,317.15281165437773 z" /></g></g></svg>