<svg xmlns="http://www.w3.org/2000/svg" xmlns:xlink="http://www.w3.org/1999/xlink" width="408.28759290091693" height="500.0" viewBox="0.0 0.0 408.28759290091693 500.0" preserveAspectRatio="xMinYMin meet"><g transform="matrix(1,0,0,-1,0,500.0)"><g><g><path fill-rule="evenodd" fill="#D2EBD9" stroke="#A6A6A6" stroke-width="0.25" opacity="1" d="M 278.7093421611935,73.41359595372342 L 281.34532827697694,80.58751512155868 L 279.19748771749437,86.71505334158428 L 279.4171532765031,92.10244562313892 L 289.1556577514857,97.15813843510114 L 284.8599766306579,98.84341813786887 L 272.38785656914115,105.73799673211761 L 279.0022293757647,111.99454076797701 L 289.64380330592394,116.59139821352437 L 303.4583239424974,120.72872515232302 L 298.60127561353147,129.02936032949947 L 299.60197394154966,136.46212238632143 L 305.06920451298356,142.975757608423 L 313.7093817908317,148.5701114141848 L 332.84468969143927,146.1688489264343 L 340.4597608242184,135.00618377071805 L 345.0483297575265,122.05678745289333 L 355.0064997933805,114.29294687369838 L 355.5922748185694,119.86038547474891 L 357.2031553890556,123.5381051057484 L 362.86564430221915,131.4558114442043 L 366.28266378492117,126.09214500524104 L 370.94445377215743,122.97622332815081 L 376.8022010270506,121.95462793973275 L 383.6850544270128,122.8740636378061 L 380.75618050061166,119.55391422659159 L 379.0720782764256,117.20432658842765 L 376.5337210316211,115.51878208410926 L 371.0664904601872,114.29294687369838 L 373.80010604672134,105.30388149153441 L 379.9507405143231,101.0649601642508 L 387.85869945958257,101.29477730859071 L 395.986323364079,105.73799673211761 L 400.45285560935736,105.73799673211761 L 403.5281734447926,102.64815417025238 L 405.5783845335245,99.53285782854073 L 408.28759290091693,92.48544468311593 L 404.21157674118876,92.79184495937079 L 395.9619161467999,92.1790452094283 L 391.88590058498085,92.48544468311593 L 397.4507606290281,85.48952004755847 L 402.6006967704743,82.14490047725849 L 405.5295700971037,78.77484612702392 L 404.18716952204704,71.4478657071013 L 397.4263528101146,60.57312247203663 L 390.64112948067486,60.11364838574082 L 382.87961384281516,64.09581606835127 L 373.11670215055346,66.80172515986487 L 368.45491156354547,64.52977856644429 L 368.2352460026741,58.83734126575291 L 371.0664904601872,43.39512288593687 L 366.57555099762976,35.917223795782775 L 356.73941705189645,40.66423109034076 L 347.0009119771421,49.54624257981777 L 342.75404529087245,54.29379979753867 L 338.7024369481951,53.27280360646546 L 326.42557462863624,47.249106478644535 L 318.1515068169683,45.76875292416662 L 305.6549795381725,45.69218364707194 L 297.844649463892,47.45329403388314 L 278.6849349439144,59.143653583247215 L 274.65773381851614,64.86163299251348 L 278.7093421611935,73.41359595372342 z" /><path fill-rule="evenodd" fill="#D2EBD9" stroke="#A6A6A6" stroke-width="0.25" opacity="1" d="M 305.50853563286364,415.42099875514396 L 297.79583502933383,411.1706595933065 L 294.5008522346616,420.23482687887736 L 293.2560811303556,445.9205625159666 L 290.52246554382145,457.4720759561751 L 287.0322244092822,467.1291227999609 L 284.5670894179493,476.991944210371 L 285.05523497238755,489.2640322241932 L 287.2518899682909,487.1887006284669 L 288.17936664260924,485.1390271317214 L 289.1556577514857,480.2712024105713 L 292.8167500104755,472.6368259433657 L 302.33558952622116,461.134996912675 L 305.50853563286364,454.5008425673004 L 305.3376845084131,445.6900564490352 L 302.97017838805914,438.23728083772585 L 302.97017838805914,432.3215077344794 L 309.9994750954211,428.3266151128337 L 312.977163458243,440.05561028723605 L 313.8558256961405,456.08890563156456 L 310.1459190007299,470.2800087919459 L 299.3579011633992,476.3514755323995 L 295.0134050063789,483.2431130774785 L 297.8690572809428,495.3365187451709 L 306.1919395290315,500.0 L 318.1515068169683,484.57537373667583 L 314.12430569157004,482.1670672490727 L 309.9994750954211,480.2712024105713 L 317.9318412579596,477.4274653859902 L 330.50159079022706,481.8083880022168 L 338.2875130455941,480.2712024105713 L 347.9527958687395,472.89300469262525 L 356.3000859320164,462.90246253390796 L 362.89005151949823,451.9394965902902 L 367.30776933021843,441.5922494952101 L 371.6034504510462,422.74424434406683 L 372.18922547623515,412.3484485188965 L 371.0664904601872,402.51684641931206 L 367.01488211750984,390.6893254381139 L 362.89005151949823,388.538998833159 L 356.7150098346174,389.1021760934964 L 346.46395198628306,385.3647815033328 L 342.6808236371726,396.6029323935509 L 332.0148418880999,404.5906296502799 L 305.50853563286364,415.42099875514396 z" /><path fill-rule="evenodd" fill="#D2EBD9" stroke="#A6A6A6" stroke-width="0.25" opacity="1" d="M 1.6022497601807117,4.495742510538548 L 2.192552302032709,5.28912662086077 L 3.120170583948493,5.597666327375919 L 3.120170583948493,1.9393188962712884 L 2.2768812384456396,0.3526010650675744 L 0.7167959455400705,0.0 L 0.0,1.0578063558787107 L 0.5903025437146425,3.3938289873767644 L 1.6022497601807117,4.495742510538548 z" /></g></g></g></svg>