<svg xmlns="http://www.w3.org/2000/svg" xmlns:xlink="http://www.w3.org/1999/xlink" width="499.09586416743696" height="500.0" viewBox="0.0 0.0 499.09586416743696 500.0" preserveAspectRatio="xMinYMin meet"><g transform="matrix(1,0,0,-1,0,500.0)"><g><g><path fill-rule="evenodd" fill="#D2EBD9" stroke="#A6A6A6" stroke-width="0.25" opacity="1" d="M 246.85989139974117,500.0 L 252.69212510995567,487.5711205024272 L 251.10373741947114,483.1527544055134 L 251.97531424090266,480.5543806673959 L 254.6796462610364,479.38527307473123 L 264.97565712593496,479.3744487715885 L 267.67184347845614,478.49768401682377 L 275.92331399582326,472.0048763593659 L 277.9678541868925,469.03003259096295 L 278.17149367183447,465.6989728324115 L 272.76282978989184,461.73087535519153 L 257.1721932850778,462.39034340158105 L 255.4942040387541,455.6674144929275 L 257.5224530529231,452.1775443088263 L 260.93545027449727,449.8658576477319 L 263.9818965513259,449.55262175016105 L 264.9430747721344,452.0371035961434 L 265.3992271143943,455.84031037800014 L 268.00581222586334,454.4355944460258 L 273.15381758101285,449.0557794496417 L 276.379466496408,447.0469905268401 L 278.82313998788595,444.40145286079496 L 281.4134337641299,442.2206166619435 L 288.84220099262893,441.3462199838832 L 295.7496513258666,438.49672002904117 L 299.34185118600726,437.9139404874295 L 308.19609464518726,442.3501615971327 L 312.5458333976567,442.82517026457936 L 313.5070116184652,437.8815644187853 L 312.12226341106,431.12745319493115 L 314.0609108693898,429.01342821493745 L 317.8567503709346,428.01045814342797 L 322.02728632837534,424.570717966184 L 328.77182504348457,415.86198496446013 L 331.264372067526,413.3086095703766 L 334.473729647696,412.2744654258713 L 338.18811341933906,412.0051694959402 L 340.92502763681114,410.55106367357075 L 341.2101228516549,405.94202166236937 L 338.2532779723406,397.36339281965047 L 334.09903319366276,392.61891057994217 L 315.51082394458354,383.6293004602194 L 309.34462117031217,378.54565905593336 L 305.37772453948855,371.5519852824509 L 305.3614335190505,362.7048360258341 L 307.6096130385995,357.88637343235314 L 310.6397681366652,354.8931159451604 L 313.82468918710947,352.3724139807746 L 316.5697489157319,348.9299818184227 L 317.18881303444505,346.8820858709514 L 317.54721831157804,342.2941798046231 L 318.27217485010624,340.0650899410248 L 319.7302332781255,338.4256510864943 L 322.9966102167964,336.2614590935409 L 324.3243393804878,333.85124590341 L 329.42347135953605,322.9515855079517 L 338.75830384902656,314.18879537750036 L 375.4785701613873,293.3151124212891 L 382.3045646045357,285.7663785526529 L 385.4650489669293,285.59559157770127 L 388.7721536140889,286.56697036139667 L 392.225878700614,286.7804690916091 L 394.52293175272644,285.5635693166405 L 396.7874026056379,283.3542061531916 L 400.83575496822596,277.98701543640345 L 401.2348882686347,275.57618488837034 L 401.12899585068226,274.34959398023784 L 398.2698977217078,261.087949462235 L 396.3475412838161,256.0381811829284 L 393.34182302840054,251.9911571647972 L 389.84737007692456,248.92471712082624 L 389.2608884703368,247.35981326177716 L 387.40369658358395,237.88895115070045 L 386.3284802790731,235.6977293053642 L 384.21062986552715,233.9109664009884 L 373.19780828617513,232.8262570053339 L 347.2948697376996,237.13368552271277 L 337.3165365997702,230.64645695406944 L 337.81341680698097,225.76705740578473 L 342.8148017209023,223.50333584751934 L 359.2525785174221,221.80312776286155 L 363.5615894049406,219.66753206029534 L 366.9745864700526,215.87525882013142 L 375.23420281149447,198.84917777962983 L 382.3371469601989,191.7433721581474 L 390.8900040257722,187.35440920107067 L 400.83575496822596,184.34441207069904 L 405.1447656992823,180.12725620809942 L 411.22136707417667,167.75854390580207 L 416.1738784555346,163.77913623861969 L 422.1527329236269,162.04378770012408 L 424.86521045304835,160.50966283027083 L 427.1378268171102,157.7063471954316 L 430.8359190952033,150.67405452486128 L 433.14926348254085,148.45405557844788 L 436.6518619451672,147.36532619968057 L 442.12569053657353,148.5069086207077 L 452.89414492435753,154.0364294499159 L 458.28651762753725,153.64516867883503 L 460.51840596832335,151.815903570503 L 464.2327895835042,146.7734305402264 L 466.5950073450804,145.06130059622228 L 469.70661817491055,144.52233952935785 L 479.660514626652,145.47346115671098 L 482.2019350267947,144.9133484661579 L 484.81666564941406,143.20144315529615 L 486.74716759845614,140.5600195126608 L 487.21961111947894,137.19027710985392 L 485.80228055641055,134.59221337456256 L 483.5052275042981,133.16664895880967 L 481.66432679630816,131.4772764723748 L 481.6154534202069,128.09913428965956 L 482.6988152358681,125.94598837662488 L 482.64179619401693,124.0358719797805 L 481.56657988764346,122.53750758618116 L 479.660514626652,121.60902299359441 L 468.06121128425,119.425213040784 L 463.05982637032866,116.32414686493576 L 460.99084948934615,111.07286254968494 L 463.15757343545556,104.66428296919912 L 468.32186996750534,100.64985033869743 L 479.660514626652,95.57284521963447 L 482.17749818228185,93.48779452871531 L 483.34231604263186,90.52923119720072 L 484.17316484078765,87.28709797374904 L 485.70453364774585,84.28772894479334 L 489.51666416972876,80.25799041427672 L 496.2449117060751,75.51950601488352 L 497.28754565678537,74.56253341957927 L 498.3464709408581,73.34274943731725 L 499.09586416743696,71.392363069579 L 497.7111158017069,70.70900228433311 L 494.3958654869348,70.58284677565098 L 487.08928185515106,65.35889127850533 L 485.1506342384964,65.07514950633049 L 475.57143439911306,69.95208695810288 L 470.0487324334681,70.66695032361895 L 466.41580454818904,67.26115701161325 L 466.57057050056756,61.00880384724587 L 470.6026318427175,56.98562554921955 L 475.84838394634426,53.997861137613654 L 479.660514626652,50.91623397357762 L 481.6480357758701,44.240775243379176 L 482.5277581065893,38.48096944950521 L 482.07160576432943,32.79687320999801 L 480.0026288833469,26.355173765681684 L 479.1066152174026,22.67175837047398 L 478.83781133778393,20.16254720557481 L 478.99257729016244,17.695670570246875 L 479.660514626652,15.328705625608563 L 485.13434306159616,3.740393005311489 L 482.2996819354594,4.530446377582848 L 465.87819647602737,11.878452626988292 L 463.72776386514306,12.354842173866928 L 462.04977477528155,12.13496805075556 L 458.2294985856861,10.889079358428717 L 452.11216934397817,10.643055093474686 L 450.0269012860954,10.171956966631114 L 446.972309499979,8.680247684940696 L 438.7778580263257,2.72542083542794 L 436.0246524736285,1.386186028830707 L 425.5250022802502,0.0 L 416.336790073663,17.580455428920686 L 408.1260474231094,40.558009467087686 L 404.9329807050526,46.9903514245525 L 400.83575496822596,52.879579029046 L 397.50421347655356,58.38257997576147 L 396.0705917365849,63.72482646163553 L 397.03176995553076,68.90088220499456 L 401.90282560512424,75.29866033606231 L 402.2286488432437,76.76576955337077 L 401.8702434077859,78.3014000095427 L 400.83575496822596,79.9003139929846 L 397.61825156211853,82.98293699417263 L 386.3284802790731,88.52912697196007 L 382.56522328965366,91.45569035038352 L 379.5676503870636,94.71983309928328 L 376.3257102947682,97.37381633277982 L 367.38186559453607,99.68065561074764 L 366.0622819401324,102.75702300015837 L 367.06418786756694,106.83528765290976 L 372.36695933155715,115.59644332434982 L 373.0674790237099,118.81338468752801 L 371.6420029513538,128.14135636482388 L 372.1551743373275,133.35671599488705 L 372.1225919816643,136.82060491200536 L 370.7052614185959,139.39794885646552 L 367.137498088181,141.97576142195612 L 362.78775933384895,143.6558175040409 L 359.13039492070675,143.59241566248238 L 338.921215467155,138.66906244307756 L 334.7018059771508,136.915662586689 L 322.02728632837534,128.81692235078663 L 318.5898524187505,127.20195053890347 L 316.79782508686185,126.84309278521687 L 315.02208908833563,127.11751271318644 L 313.32780882157385,128.1096898475662 L 308.3264239076525,133.23000442236662 L 305.57321851328015,134.67669587489218 L 298.1118689291179,135.37369467876852 L 295.8148158788681,136.30307981278747 L 294.22642818652093,138.6056826878339 L 292.3610907904804,142.8527470966801 L 287.4574527852237,149.775441381149 L 283.23804329521954,148.34834988228977 L 278.75797527842224,144.17361098248512 L 272.9501779396087,142.78934864141047 L 269.86300395429134,144.77596584614366 L 269.2439399920404,147.7564135743305 L 270.791599817574,155.1256718672812 L 271.0522583462298,159.90663874335587 L 270.3680296726525,163.69448024779558 L 268.7470596265048,167.11287231277674 L 257.12331975251436,182.0343566853553 L 251.763529246673,184.73652322031558 L 245.84983948990703,182.70190284401178 L 240.03389679826796,178.1992276739329 L 234.99992952868342,175.37122219707817 L 229.62384784594178,174.0792132113129 L 222.73268884792924,174.18511107284576 L 215.41795954853296,172.85085505712777 L 210.9460371993482,170.88146943040192 L 208.51050937362015,175.04291352909058 L 198.8417079783976,187.7890041153878 L 197.93754895962775,189.3790993904695 L 197.17186455614865,190.0681962892413 L 196.42247133143246,190.2378253247589 L 194.66302651166916,189.96217925474048 L 193.86475991085172,190.0681962892413 L 190.94864274002612,191.86000578757375 L 185.24673813395202,198.46728216856718 L 183.14517889916897,197.17315775621682 L 182.5586972925812,198.36120198108256 L 182.50982391647995,200.67393245361745 L 182.02108921855688,202.67931338306516 L 179.64258043654263,204.43027599528432 L 178.30670560337603,205.799362285994 L 177.72022399678826,207.58255742676556 L 176.98712194897234,210.70369248464704 L 175.21138595230877,213.69808430597186 L 171.16303358972073,218.23335894569755 L 162.0481316037476,226.20283888466656 L 140.1853999067098,239.03788377717137 L 134.41833059117198,240.8359389519319 L 129.0911224409938,240.8359389519319 L 119.59337833151221,238.24000384937972 L 115.08072795905173,237.6761961048469 L 111.85507904365659,236.71883859485388 L 110.20967230945826,236.49546458758414 L 108.8737974781543,236.94221636187285 L 106.86998530849814,238.8889425760135 L 105.32232548110187,239.303853623569 L 101.95820163562894,238.41021442133933 L 96.47622753307223,234.54906990379095 L 93.96738948859274,233.6770024895668 L 75.00448346883059,236.9103049170226 L 57.768440229818225,246.465660976246 L 43.334475761279464,250.58562241867185 L 36.11749352701008,254.58963835053146 L 34.081099001690745,260.5338776614517 L 36.264113968238235,262.579790327698 L 43.39964031428099,264.1357365902513 L 44.9391546305269,266.8004298815504 L 43.92095736786723,269.1244562128559 L 39.00102818571031,275.2028631279245 L 37.3230390958488,278.84050651453435 L 40.20657375454903,281.09183867648244 L 37.77919143997133,286.73776900209486 L 30.76584868878126,295.8999163303524 L 26.505711333826184,299.92761031445116 L 24.892886796966195,303.16556525882334 L 25.968103101477027,306.55393330939114 L 27.31212360225618,308.863198492676 L 29.796524802222848,317.21609607338905 L 29.796524802222848,318.62834797240794 L 23.418537033721805,324.0968263903633 L 20.070704521611333,327.85430558025837 L 19.419058362022042,330.58473481051624 L 24.81143106520176,337.03281554579735 L 28.21628262102604,339.4007188156247 L 31.94695756956935,339.8507731454447 L 31.523387424647808,341.3403426827863 L 30.76584868878126,342.8086357768625 L 33.12806645035744,342.0155240697786 L 34.081099001690745,341.2653245758265 L 33.918187383562326,346.23883031494915 L 36.01974646188319,350.527764855884 L 42.69912062212825,358.39067765697837 L 41.49357505328953,363.09124414250255 L 42.45475327223539,364.37934868969023 L 45.72927572205663,370.2417357796803 L 46.193573573604226,371.9278994202614 L 45.3708702865988,386.3277204884216 L 44.816971035674214,389.76870085299015 L 43.35076694004238,393.6730993865058 L 36.801722042262554,404.1871134461835 L 35.1888976637274,408.3217319715768 L 34.341757372021675,413.0608387729153 L 33.9914976041764,417.241219884716 L 33.31541460007429,421.2288460843265 L 31.507096245884895,425.3254465246573 L 26.5708760432899,431.54813977796584 L 20.355799736455083,436.72687303833663 L 13.570533158257604,440.13726903963834 L 6.825994601473212,441.10873901844025 L 3.812130680307746,443.9803733602166 L 1.3032926339656115,449.95226894970983 L 0.0,456.5967553174123 L 0.6516461595892906,461.48223143815994 L 2.2318883407860994,461.0822490565479 L 3.7876938357949257,461.04981839936227 L 5.335353661328554,461.39574782550335 L 13.847482861950994,464.87714727874845 L 20.54314804263413,465.13666594587266 L 46.25059277564287,461.50385247915983 L 50.103451162576675,461.8281717542559 L 53.19062530435622,463.1363373491913 L 60.53793680295348,469.62494980636984 L 67.29876669310033,472.448453607969 L 81.89564278163016,472.76221223082393 L 89.03116912767291,474.5150642618537 L 95.36842887289822,477.38286694604903 L 98.51262205839157,477.71838483121246 L 105.1919960603118,475.835261227563 L 108.51539204269648,476.4412957550958 L 111.61071169376373,478.118852507323 L 114.08696754276752,480.5976829174906 L 114.89337981119752,482.6438675131649 L 114.99927222914994,484.41964025516063 L 115.40655119717121,485.9790449831635 L 117.28003410249949,487.3111770544201 L 118.95802335068583,487.3328388379887 L 123.23445188254118,485.556688638404 L 130.85871292836964,480.2404439691454 L 133.7748299408704,479.12548501603305 L 137.4810678884387,479.74248995352536 L 138.939126316458,480.7384160691872 L 140.07136182114482,482.0483854357153 L 141.35836312174797,483.2068923935294 L 143.22370051592588,483.81325280759484 L 145.17049380019307,483.58586471900344 L 153.5767304264009,478.4652123944834 L 157.02230984531343,477.19887677859515 L 160.56563648954034,476.94995251391083 L 164.39405818842351,478.06473460420966 L 167.5708335712552,481.6261503947899 L 168.59717650152743,482.41649861074984 L 170.2914567682892,482.4706336911768 L 171.12230572476983,480.88997636642307 L 171.69249615445733,478.746636165306 L 172.5559274647385,477.15558526013047 L 175.789721891284,476.2248518979177 L 178.11121178790927,478.30285522621125 L 180.033568225801,481.6261503947899 L 182.06996275112033,484.3438403829932 L 185.4585231281817,485.88157696276903 L 188.6515898462385,485.4483943125233 L 195.24136245064437,482.8171035228297 L 218.35036773979664,482.3407098148018 L 222.4883213415742,482.90372224431485 L 224.05227250233293,485.0910289371386 L 222.3742834124714,487.48447227850556 L 216.46059365570545,490.34415617771447 L 215.15730117820203,493.30195709038526 L 218.22003847546875,496.41212946828455 L 233.43597852438688,493.98461725376546 L 239.414832836017,494.17966932523996 L 241.33718927390873,495.50176190026104 L 244.90495244786143,498.742512376979 L 246.85989139974117,500.0 z M 243.2432545349002,456.3482045000419 L 240.79958119988441,454.6192798409611 L 240.28640965744853,451.72381802648306 L 241.27202456444502,448.5697551416233 L 243.2432545349002,446.02110943198204 L 248.9614504761994,444.05595077201724 L 251.2096299957484,448.87216815538704 L 249.4583306852728,454.856993984431 L 243.2432545349002,456.3482045000419 z M 279.57253305613995,432.5190039565787 L 281.2342309691012,434.8277779109776 L 276.7215807531029,438.74494826979935 L 276.0699344370514,438.86366785224527 L 275.45087047480047,438.76653359178454 L 274.8969712238759,438.45355026610196 L 274.40823652409017,437.9139404874295 L 275.92331399582326,433.11234356462955 L 279.57253305613995,432.5190039565787 z" /><path fill-rule="evenodd" fill="#D2EBD9" stroke="#A6A6A6" stroke-width="0.25" opacity="1" d="M 327.4522415455431,356.31992872804403 L 322.02728632837534,357.95075174048543 L 321.0823992881924,359.94662498962134 L 320.7728672269732,362.11451117135584 L 321.09869046509266,364.2827366767451 L 322.02728632837534,366.34393847361207 L 323.99851630069315,367.77192971576005 L 326.1733855996281,368.4161845035851 L 328.47858431749046,368.4591359421611 L 330.75934619270265,368.14774133451283 L 334.86471759714186,365.8071375824511 L 332.7305760066956,360.38661399204284 L 327.4522415455431,356.31992872804403 z" /></g></g></g></svg>