<svg xmlns="http://www.w3.org/2000/svg" xmlns:xlink="http://www.w3.org/1999/xlink" width="444.4519451651722" height="500.0" viewBox="0.0 0.0 444.4519451651722 500.0" preserveAspectRatio="xMinYMin meet"><g transform="matrix(1,0,0,-1,0,500.0)"><g><g><path fill-rule="evenodd" fill="#D2EBD9" stroke="#A6A6A6" stroke-width="0.25" opacity="1" d="M 50.36568805016577,491.217387806857 L 50.06544032692909,490.18722449359484 L 48.78290067613125,489.7223355753813 L 41.740052834153175,488.07470015459694 L 40.65397157520056,487.45727383950725 L 40.05347613058984,486.7877581026405 L 39.64573231339455,486.02895167306997 L 39.33807105757296,484.38479089620523 L 39.00446246936917,483.9495533553418 L 36.854540480300784,482.5693897397723 L 36.46903722733259,481.23007215582766 L 36.20585713908076,480.8171008331701 L 35.327354572713375,480.5194593979977 L 33.94473232328892,480.4152840380557 L 33.625950802117586,480.1715863372665 L 33.51845467090607,479.43861783482134 L 32.936493061482906,478.08051993348636 L 31.59835197776556,477.22097104624845 L 28.58846122212708,476.17905134893954 L 27.795214150100946,476.10834795143455 L 27.59875575825572,475.4534012135118 L 27.806334415450692,474.72400699113496 L 30.21943649277091,473.75268609286286 L 30.653127644211054,473.4437900579069 L 30.89036040008068,472.2342172663193 L 30.11194039694965,451.92955890810117 L 24.2107752840966,451.98916449188255 L 21.14528309740126,451.55329498951323 L 19.408299988135695,450.5894594897982 L 17.65999254025519,453.55212076962925 L 17.13754341751337,455.8339613454882 L 17.960619715973735,458.1155539015308 L 18.398426244035363,458.5260971386451 L 19.697252279147506,458.8545260159299 L 20.04457880742848,459.22986713191494 L 20.184676898643374,459.6902374555357 L 20.079603347927332,461.27653333125636 L 18.900764293968678,463.827065280173 L 18.003143794834614,466.2409039614722 L 18.029269555583596,467.2132049428765 L 16.603912878781557,469.7187692860607 L 16.326436130329967,471.4366675349884 L 14.358352767303586,473.77898450475186 L 12.68651027791202,476.43588790437207 L 12.692347683012486,476.8226534316782 L 14.289682196453214,476.42655380489305 L 14.523643912747502,476.2158226261381 L 14.758401654660702,475.3731728135608 L 15.462642565369606,475.21067253127694 L 16.046804785728455,475.5848781594541 L 16.42138359695673,476.17043980420567 L 16.468080081045628,476.66208005091175 L 16.79637066088617,476.8498058023397 L 16.77267763018608,477.55192241072655 L 16.608480263501406,477.87943293573335 L 15.905843062326312,478.0194604618009 L 15.624860536307096,477.6213713597972 L 15.577804900705814,476.33356847590767 L 15.366940028965473,476.14607963198796 L 15.109101617708802,476.262926466763 L 14.711637243628502,477.36342205433175 L 14.430597009137273,477.4569307761267 L 14.24328938499093,477.12909313919954 L 13.891748778522015,477.10545619786717 L 13.469720244407654,477.3393018974457 L 12.201796844601631,477.3850560942665 L 16.54889819957316,481.226351684425 L 17.494122497737408,482.75168006052263 L 18.583910522982478,486.4418345198501 L 18.750714818015695,486.6054978813045 L 19.176992433145642,486.6054978813045 L 19.514307789504528,486.4009185284376 L 20.29272779263556,485.1473678422626 L 21.13045602850616,485.62350143981166 L 23.40270114503801,486.07730766991153 L 23.777084132656455,486.5199467090424 L 25.27461594156921,489.49546671425924 L 25.44512700289488,490.24672962282784 L 25.40064587071538,491.7900959183462 L 25.737961227074265,492.29213464073837 L 27.246613370254636,492.21775919850916 L 29.689369548112154,493.0172843579203 L 34.230153013020754,493.95437065023 L 35.90560941584408,496.397329115076 L 37.13996117003262,497.23762433603406 L 37.62554698623717,497.81763555225916 L 38.3224182613194,499.50554464082234 L 39.17497353069484,500.0 L 41.08024919219315,499.2192768219393 L 42.49623230844736,499.57246392499655 L 43.05595335364342,499.2527368613519 L 43.578606801107526,498.52776013687253 L 44.22358341142535,496.79888946493156 L 44.92416141740978,496.0031991028227 L 46.34385126456618,494.86911253468134 L 48.69764514453709,492.05041355476715 L 50.36568805016577,491.217387806857 z" /><path fill-rule="evenodd" fill="#D2EBD9" stroke="#A6A6A6" stroke-width="0.25" opacity="1" d="M 441.07137818820775,265.34749741945416 L 441.31602448038757,263.55445522256196 L 442.2390082105994,261.85928596300073 L 442.3724516760558,261.32311915117316 L 442.0128957554698,259.9674800403882 L 442.04254985414445,257.94314328953624 L 441.88315905816853,256.5341904750094 L 442.0870309844613,256.0279796384275 L 442.78760899044573,255.91464560152963 L 442.6393385324627,250.7075275075622 L 442.84691722504795,249.7739043624606 L 444.4297045636922,246.24277092539705 L 444.4519451651722,245.8041312478017 L 442.5948574002832,243.88297352497466 L 442.5874438676983,241.54155269707553 L 441.4383476432413,239.57041225256398 L 440.61173970624804,237.38695960841142 L 440.61173970624804,236.4597022801172 L 441.56808430328965,234.16958152898587 L 441.886865824461,230.53081799508072 L 441.05655115656555,228.37571505410597 L 440.6006194408983,218.51080847345293 L 440.7896643001586,216.8688538891729 L 441.56808430328965,215.73107853368856 L 442.47624100372195,214.7752441111952 L 442.84321042336524,213.84966371790506 L 442.99148091860116,211.60741877905093 L 443.3436233047396,209.95290631637909 L 442.95070655457675,208.70044781221077 L 440.11503359116614,204.5281947720796 L 439.68134244158864,203.46870479593053 L 438.35432165674865,198.19606532505713 L 437.6574503816664,196.53920555789955 L 437.4202176257968,195.08350987290032 L 437.74641267955303,193.90510335960425 L 438.4766447842121,192.87482510856353 L 440.4301083814353,190.85575470980257 L 441.22706218250096,189.79851297358982 L 441.8386779278517,188.6308419876732 L 442.26124881207943,187.29183077113703 L 369.78663785383105,187.29183077113703 L 369.8125852216035,76.15019706496969 L 369.92749481648207,70.00478304573335 L 370.8801326472312,68.80056363088079 L 372.1293114684522,66.77764926571399 L 370.92832058109343,66.77764926571399 L 371.31011703051627,66.252527003875 L 371.66225945204496,64.75803954154253 L 372.3739577587694,63.99330006563105 L 372.51110795512795,62.579479961888865 L 374.29406045377254,62.02701132930815 L 374.22363202646375,61.55950518930331 L 373.5934824459255,60.4234560043551 L 373.3747834879905,59.09784078481607 L 374.3570754546672,57.05676982924342 L 374.23845905810595,56.14428670168854 L 374.38672955334187,55.87361273728311 L 375.07248049229383,55.78080793260597 L 375.4616905115545,55.54879058548249 L 375.9472763631493,53.86257379571907 L 379.0350091140717,51.32476840214804 L 379.79860208556056,51.18547261087224 L 380.9365780092776,51.66525783529505 L 381.5185396205634,51.18547261087224 L 382.47488425299525,51.01908797817305 L 384.0650851614773,48.72800366720185 L 384.8397983983159,48.51898308098316 L 385.4514141436666,47.992533643497154 L 388.0498543139547,43.8376359695103 L 388.74672558903694,42.30749383964576 L 390.3962346948683,41.63335147732869 L 390.8521664105356,41.156763727078214 L 391.0745721012354,39.87795446929522 L 393.8805909641087,38.83923539123498 L 395.98973855376244,36.71093194070272 L 397.2203835416585,34.729361730860546 L 397.6170070953667,32.97999408142641 L 397.9506156463176,32.42522489326075 L 399.5371098238975,31.42032050481066 L 400.9642131701112,30.12032512575388 L 401.9316780678928,29.47993939812295 L 406.3241910729557,27.764190030749887 L 407.82172291725874,26.137328433804214 L 408.3147222660482,24.70040121814236 L 408.9930597078055,23.58172049955465 L 409.87526907399297,22.56387348030694 L 410.7315311115235,21.860616178717464 L 412.3180252518505,21.238892120076343 L 412.6924082040787,20.834741218481213 L 412.7405961025506,19.109059018315747 L 413.1779940184206,18.638696150155738 L 413.79702329821885,18.463759523583576 L 415.63928399421275,18.778642212972045 L 416.80320728570223,18.681457733968273 L 417.855927715078,18.26938020461239 L 418.5898665878922,17.72897665342316 L 419.2644972614944,16.896904597524554 L 420.0836916640401,16.21250738343224 L 419.8279250729829,15.67194041586481 L 420.061451099813,14.70347900991328 L 348.517237406224,0.6392765073105693 L 348.3133655153215,0.7094372711144388 L 347.727697102353,1.4850539655890316 L 344.6177237853408,2.7476736849639565 L 342.99045527912676,3.655520852888003 L 342.41220036521554,3.7996740608941764 L 340.4290827065706,3.7996740608941764 L 338.56828817538917,3.2581094035413116 L 337.9826197978109,3.519156854134053 L 331.3549292739481,1.7071988580282778 L 330.8582231942564,0.7094372711144388 L 328.615632141009,0.077963832532987 L 327.6926484089345,0.0 L 326.9179351720959,0.7094372711144388 L 325.22765166684985,1.430490928934887 L 324.69017118774354,0.9394034163560718 L 323.51142086461186,1.2979788014199585 L 322.6736926622689,1.9293363352771848 L 319.9640495926142,1.983895282028243 L 319.05959966033697,1.7422736617736518 L 317.5694813504815,2.7476736849639565 L 316.3351295944303,3.3672050940804183 L 314.4706282969564,5.163131596753374 L 313.5772986635566,5.552639796864241 L 312.6506081651896,5.318937583360821 L 311.24945211596787,6.502944731386378 L 310.834294764325,6.6548252468928695 L 309.1403045281768,6.4016891666688025 L 308.7548012752086,6.6548252468928695 L 307.50932922028005,5.603274190565571 L 306.6641875207424,5.957704296335578 L 305.70413612015545,6.004440916003659 L 304.8478741198778,5.778544168220833 L 304.32151390612125,5.318937583360821 L 304.0546270497143,5.603274190565571 L 303.0797486528754,5.3033571629785 L 300.00684293173254,5.1085986024700105 L 298.401814956218,5.603274190565571 L 297.05626033991575,6.374427751172334 L 291.38862121477723,6.374427751172334 L 290.5657200459391,5.318937583360821 L 289.9985854662955,5.365678664064035 L 288.4232116267085,5.973283230792731 L 288.09701657295227,6.245908343465999 L 287.7745282854885,6.9235284542664886 L 287.0368826445192,7.114340176340193 L 284.1752623487264,6.565255104796961 L 278.0220374111086,6.483472634805366 L 272.32474418729544,8.196801773970947 L 271.7576095722616,8.570560936583206 L 270.15258163399994,8.45376342930831 L 268.68099712207913,8.68735641404055 L 266.6830523945391,8.03716914425604 L 263.65092107467353,7.8814263043459505 L 258.9692806471139,8.749646510696039 L 255.77034503221512,10.357309910003096 L 254.37660248205066,10.692029301077127 L 251.11094517074525,14.25226098112762 L 250.10270590893924,14.820168398087844 L 249.56893216073513,15.504705915926024 L 249.27239120565355,16.445832362398505 L 246.9223040919751,18.26938020461239 L 245.5767494738102,21.091224398463964 L 244.61669811047614,21.425415275152773 L 243.96430800110102,23.235980197088793 L 243.49725598469377,23.573951198952273 L 243.315624659881,24.152736503165215 L 91.02701398171484,24.222653592005372 L 90.65633779577911,23.28648269781843 L 89.86309069022536,23.16216823924333 L 88.276596583426,23.426333755021915 L 87.46852244623005,23.00288708228618 L 86.64932804368436,22.886337500065565 L 84.2288124319166,23.426333755021915 L 82.89067134819925,22.886337500065565 L 82.05664991401136,23.05339126009494 L 81.53399646654725,23.465180742554367 L 79.88819412700832,25.686864596325904 L 79.43967590853572,26.082963672932237 L 72.61738042719662,29.910750832641497 L 69.47404624335468,32.51057687890716 L 66.41967435739934,34.217397064203396 L 66.76440321095288,35.291703866794705 L 66.4530352242291,35.9044114225544 L 65.93408854305744,36.40849763690494 L 65.46332976035774,37.889525801176205 L 64.92955601215363,38.40509836561978 L 64.18079007230699,38.722951317206025 L 62.68696499429643,39.025285923387855 L 61.42295914143324,39.90120761212893 L 60.76686226576567,40.1337348530069 L 59.2545033544302,39.730682694585994 L 58.783744571730494,39.90895861759782 L 57.31586682610214,39.33923500101082 L 57.31586682610214,39.61828907672316 L 56.9451906401664,39.47876342223026 L 55.71454561688006,39.61828907672316 L 55.32904236391187,39.81207011686638 L 54.828629517927766,40.38950602244586 L 54.35416400432587,40.1337348530069 L 53.68694679252803,40.62589227152057 L 48.23429989628494,39.61828907672316 L 46.34755803272128,38.51363512757234 L 43.67498263157904,37.672431303188205 L 43.28947937861085,36.54808432562277 L 42.066247925162315,36.01298690075055 L 41.20627912133932,34.857347005512565 L 39.98675443418324,34.47338407090865 L 38.39284675940871,33.70539488038048 L 37.13254767283797,32.62696426734328 L 36.45791696384549,32.27779626427218 L 34.674964427948,31.843251617858186 L 33.069936487823725,30.438555450644344 L 32.19884742051363,29.988371701911092 L 28.373468993231654,30.419151555281132 L 26.846283050253987,31.156460523605347 L 26.475606866180897,31.13317828718573 L 25.46736760251224,30.520051144296303 L 23.143227787688375,30.60542652499862 L 20.559614684432745,30.353178017307073 L 20.1704046651721,31.21466579195112 L 19.047255773097277,31.688050508731976 L 18.49494826234877,32.14588381093927 L 18.20952757075429,32.98387343576178 L 17.97970831207931,33.19335510767996 L 17.649806490167975,33.30197274079546 L 16.87509321793914,32.937321114586666 L 15.018005454912782,33.56963043101132 L 12.894030833616853,33.2011135770008 L 11.248228494077921,32.71619328367524 L 9.780350748449564,32.01784871192649 L 8.09006724320352,30.73736817878671 L 5.958679124712944,29.58085257629864 L 5.48792034201324,28.866666045971215 L 4.5723501071333885,28.88995589176193 L 3.4713740684092045,29.30503421020694 L 3.4692233093082905,29.58507023169659 L 3.177352277562022,29.814273869385943 L 2.917587084695697,30.65156690403819 L 3.2007019724696875,32.59162081265822 L 3.2240516655147076,37.55386917619035 L 3.9673633109778166,43.68436459964141 L 3.541675029322505,46.34280706406571 L 3.5415684022009373,47.47671103896573 L 4.179263606667519,47.653930065454915 L 4.356744585558772,46.0595058130566 L 4.817235583439469,45.38693218561821 L 5.418497931212187,46.98149087349884 L 5.3167669009417295,49.85736521985382 L 5.51232048869133,50.82025030464865 L 5.179587511345744,54.378146606031805 L 5.471458543092012,58.299543196568266 L 3.9362169355154037,72.46959329303354 L 4.128851821646094,73.80612930073403 L 4.934415867552161,75.49468090268783 L 4.123120900243521,77.21762505080551 L 2.411004362627864,79.91916206665337 L 2.371788267046213,81.52600708347745 L 2.9555302932858467,83.68906117719598 L 4.134689263999462,84.50194217148237 L 4.861448120325804,84.80220072995871 L 5.179587511345744,84.58686499577016 L 5.343035297468305,83.93778778146952 L 5.754573429003358,83.73759382916614 L 6.2711851466447115,83.89532284019515 L 8.080785496160388,85.64225471904501 L 8.390168778598309,86.2123465812765 L 8.63534045778215,88.26796040614136 L 9.365018017590046,89.1530977517832 L 11.571562947705388,90.4624274133239 L 12.041475312784314,91.31700752163306 L 12.161142449826002,92.39570277766325 L 12.879145162180066,95.19475431670435 L 13.305276844650507,96.19416861305945 L 12.934600658714771,97.17528564459644 L 13.530017530545592,100.38424316886812 L 13.880262760445476,104.75658398820087 L 14.388118371367455,105.8122355688829 L 15.622732801362872,106.99778350815177 L 15.89125414006412,107.06431407039054 L 16.734761392697692,106.76794640370645 L 17.067494370043278,107.15201256447472 L 17.19883631914854,108.43108972813934 L 16.979933071881533,108.9329875651747 L 16.445809066295624,109.20508748199791 L 15.89125414006412,109.13857502350584 L 15.981734139844775,109.92761829216033 L 17.277641508728266,113.33985248743556 L 17.613293189555407,115.1405817354098 L 18.69321597740054,116.3096291073598 L 18.891688268631697,116.8140488511417 L 19.309063842520118,119.60439523076639 L 19.574666475877166,119.94255301961675 L 20.307262737303972,119.98482174659148 L 20.619564725086093,120.46787707228214 L 20.92311060242355,121.49427333800122 L 21.638194611296058,122.6714491774328 L 21.410535221919417,124.69337636581622 L 22.35619732365012,128.71762347547337 L 22.580938011407852,131.67873161332682 L 23.322290416806936,133.11969865835272 L 23.739665990695357,134.42177805118263 L 24.12785446457565,136.88070079381578 L 24.244602862745523,139.25455594598316 L 24.12785446457565,140.45929918112233 L 23.126736829057336,143.72327954159118 L 23.176354920491576,143.9912066629622 L 23.462388509884477,143.89788468996994 L 24.370107404887676,144.22902241465636 L 24.618197785690427,145.19827779126354 L 24.594848092645407,145.5173249882646 L 23.649185989052057,147.05219448264688 L 24.221253167837858,147.9910358004272 L 24.402213206514716,148.779341225978 L 25.123134657740593,149.65180751495063 L 25.595965726301074,151.3002230208367 L 26.200138743966818,152.2506239656359 L 26.462822638452053,154.50589856598526 L 26.760531110689044,154.94786268565804 L 27.61279447376728,155.218441672856 L 28.015576496720314,155.54312523500994 L 29.013775393366814,154.968908009585 L 29.276459325104952,155.00197914452292 L 29.87771363928914,155.8106792678591 L 30.11121047101915,157.12728452752344 L 30.373894402757287,160.9857629062608 L 30.24547112174332,164.6142900553532 L 31.004335816949606,166.51806196104735 L 30.58404153957963,167.29266453231685 L 30.741651885211468,167.58687547198497 L 30.759164137765765,168.75761735299602 L 30.324276311323047,170.4864283206407 L 30.338869862258434,171.65378447202966 L 30.972229978069663,172.6469662738964 L 32.230194102972746,172.89299410930835 L 33.18753105215728,174.06903300550766 L 34.611861664801836,174.69898985209875 L 34.927082389593124,175.69483070913702 L 34.67607330530882,176.49562209751457 L 35.40283216163516,177.93206804222427 L 36.427299454808235,178.4777971478179 L 36.75127628818154,179.3053230312653 L 37.396311251446605,179.14941818476655 L 39.16796835698187,180.24069530982524 L 41.52336752228439,183.30395979317836 L 42.9155923333019,184.44867108459584 L 43.53144019842148,185.4314494500868 L 45.74382256902754,187.99576187250204 L 46.24000329710543,188.98414810886607 L 46.245840702205896,189.95445997617207 L 45.38482119515538,191.99058398464695 L 45.122137263417244,193.15815805085003 L 45.5511876847595,194.09211114188656 L 47.2090150937438,195.80411407817155 L 48.06711589731276,196.30388760846108 L 50.4137589558959,198.56600014399737 L 51.63961724191904,199.31991590815596 L 52.48604323528707,200.71091081365012 L 54.126358391717076,201.99403310148045 L 54.82393014803529,202.0807646587491 L 54.85603595152497,201.9252454645466 L 56.07021942548454,201.57830867613666 L 57.20559771172702,202.69683483010158 L 57.65216038376093,202.8553318087943 L 58.27676435559988,202.75066430098377 L 58.89553092233837,202.2602067461703 L 59.49970397539437,202.0807646587491 L 60.7780990563333,202.32600129395723 L 61.814241195097566,203.14540432277136 L 64.55199139378965,205.92307070153765 L 64.90223662368953,208.7029136752244 L 65.85665487125516,210.45708617474884 L 68.11573662981391,212.65607256209478 L 68.36090827360749,212.65607256209478 L 68.36090827360749,212.40512671484612 L 67.74506040848792,212.03765845810995 L 67.69252361543477,211.73291806317866 L 67.87056495063007,211.38335101678967 L 68.4338760226965,211.93906702590175 L 69.15187873505056,213.12209756928496 L 70.66960808821023,214.9590923958458 L 71.52187148667872,217.86173062375747 L 73.01041370444,221.22018718812615 L 73.37233377993107,223.774829817703 L 73.63501767627895,224.3477429265622 L 74.577761111781,225.50540358945727 L 75.21112122945487,226.99703508452512 L 75.78610714524984,230.64760694094002 L 76.13635237514973,231.74490429530852 L 76.22099497169256,232.50518954568543 L 75.61390325240791,239.13662849459797 L 75.76567619107664,243.09257686766796 L 75.911611687392,243.92646846361458 L 76.22099497169256,244.57268818328157 L 75.93496138229966,244.90322738373652 L 76.22099497169256,246.20741446944885 L 76.24434466473758,248.5384651091881 L 77.09660806506872,249.8779141306877 L 77.19584420882165,251.3153991745785 L 78.08313211426139,256.52798887039535 L 78.15318115986884,261.3366621581372 L 77.97222112119198,262.66558225336485 L 77.44101585261524,263.8367993310094 L 74.23627199046314,268.5946875154041 L 73.9560758061707,269.2928918329999 L 73.94440099596977,269.9167816156987 L 74.2421094328165,270.5346947526559 L 75.33078836463392,271.8476454059128 L 75.40083741210401,272.4446596875787 L 74.72661531157792,273.60295400209725 L 73.23807309381664,274.84724347339943 L 72.85864076577127,275.61928648734465 L 69.46126205287874,279.7310046975035 L 67.17299319431186,281.6097241365351 L 66.64470666460693,282.34569371235557 L 66.46666532941163,283.02820357983 L 66.39953498542309,285.4908346545417 L 65.97632200829685,287.0660476551857 L 63.59757314808667,290.62505908240564 L 63.186035016551614,292.40415571955964 L 61.23341783694923,294.5831800720189 L 59.105678061023355,298.0213635789696 L 59.74487561918795,299.82897354196757 L 59.45592329092324,301.31041663116775 L 58.676627676934004,302.895357665373 L 57.69302233122289,304.37938401615247 L 54.84436110407114,307.7644152978901 L 54.57875846885145,308.4424927919172 L 54.756799805909395,309.0701991019305 L 55.562363816425204,309.92880182689987 L 55.80461679212749,310.5801154912915 L 55.533176716417074,311.93000117037445 L 55.24130572192371,312.539769455092 L 54.94651598855853,312.7913640702609 L 54.981540493667126,313.2087039106991 L 53.81697510741651,316.57650732970797 L 53.84324350580573,318.89911110908724 L 53.69438926875591,319.45824712025933 L 53.02016720548272,320.7302630529739 L 52.86547556333244,321.5259474820923 L 52.04823670722544,322.1500367419794 L 49.35134841874242,326.65676954807714 L 48.326881125569344,329.0632610982284 L 47.59136616066098,330.11559102730826 L 47.448349330574274,332.14315530401655 L 48.808468302711844,334.9918550562579 L 50.8223783839494,337.4322640153114 L 52.62030388601124,338.20624674274586 L 51.838089568540454,337.04821007396095 L 49.257949678227305,334.88548318389803 L 47.96787975169718,331.86829989543185 L 47.72854551486671,330.90773819806054 L 48.18970173597336,330.48211285844445 L 48.56329666078091,330.8013331850525 L 50.57720674201846,334.2265492712613 L 50.839890636503696,334.98594554443844 L 52.12996056303382,335.1868679712061 L 52.65240972302854,335.67143302131444 L 53.040598161518574,336.8650419705082 L 54.57875846885145,338.9506456987001 L 54.55832751467824,340.2000793647021 L 54.70134430937469,340.5633679621387 L 55.76083614304662,341.7329133981839 L 56.38544011488557,342.21133448556066 L 57.03047507815063,342.42396064521745 L 55.24422442354262,340.6283453926444 L 54.82393014803529,339.9431131463498 L 57.69302233122289,341.41986323078163 L 57.801014583557844,342.0636754739098 L 58.01991786621511,342.3796638092026 L 60.49498416855931,342.10502016730607 L 61.35600367560983,342.4151013114024 L 62.45927616022527,346.1561877091881 L 62.287072230130434,346.69349690596573 L 61.23341783694923,348.1636088055093 L 60.82771711051464,349.2439522780478 L 59.99004729837179,352.84743866859935 L 61.084563637152314,352.9566206582822 L 61.34724753163755,353.3431770100724 L 61.47858951613307,356.42639389052056 L 61.312223026528955,357.21110495273024 L 60.97073394060135,358.06656749174 L 57.65216038376093,363.3073677169159 L 57.22310996428132,363.64056721841916 L 56.718173092231154,365.2799151635263 L 54.82393014803529,369.0060921823606 L 54.511628126725554,370.6654696795158 L 52.12996056303382,374.95305585325696 L 47.231268318369985,386.0528568730224 L 45.54469287022948,390.2017205429729 L 44.54728304222226,393.8492843254935 L 42.34123792871833,396.351131913485 L 42.52876942418516,397.6035068265628 L 41.742270804941654,405.75345272407867 L 41.09431713819504,407.87942032143474 L 41.75102694891393,409.1319404109381 L 41.58174175769091,409.41124573978595 L 40.53392477147281,408.7350249928422 L 39.81884076073766,409.0437377905473 L 37.209513772279024,412.6743711035233 L 34.10884063690901,415.542088446673 L 31.605685962364078,419.2320118139032 L 28.289935275912285,425.2567066177726 L 26.04457794688642,430.3561843247153 L 23.303541535511613,434.1199097307399 L 21.879604218527675,436.73300335532986 L 21.72228725068271,437.9210416683927 L 22.268636025488377,438.57595599186607 L 23.070614960044622,438.79477760684676 L 23.82352766022086,439.23153592669405 L 23.585523372516036,438.67699497239664 L 23.505516592413187,437.6474825029727 L 24.297854483127594,437.72828463301994 L 25.565102757886052,438.08701848378405 L 27.385328540578485,438.12972801271826 L 29.67958048917353,438.64874198497273 L 30.785684952512383,439.3617427730933 L 32.68201316520572,439.7992656494025 L 35.00880624726415,441.0150468775537 L 35.88026339933276,440.98892167187296 L 38.488414872437716,440.2803625916131 L 41.17446447350085,440.91534509393387 L 42.753881530836225,441.47083792695776 L 43.50408734753728,442.02478675497696 L 45.1245825830847,442.7376669377554 L 46.50556633621454,444.51775691402145 L 46.74175807274878,445.1898338883184 L 47.215899078175426,445.62520292634144 L 48.793523671105504,445.9049684170168 L 49.3854681905359,446.1826435558032 L 51.733015982434154,446.0184910169337 L 54.35416400432587,447.2388029335998 L 57.382588557899,446.9816927933134 L 58.87641363590956,446.6053372344468 L 60.006976060569286,446.00538957165554 L 61.36735771037638,447.2388029335998 L 65.41143509559333,447.1642785712611 L 66.4678622558713,446.8363682141062 L 67.8986724037677,447.20154078677297 L 70.73063860088587,446.8997149611823 L 81.5636505652219,447.7716438889038 L 82.95368631370366,447.3505888876971 L 84.34742882847786,446.65750574553385 L 88.61391193978488,446.9816927933134 L 89.43681310862303,446.8885361251887 L 91.5570809636265,446.1358144960832 L 92.26136573590338,446.04265393782407 L 99.2486121095717,445.9047754830681 L 100.87958741746843,446.187984228367 L 103.15924606658518,445.60665666358545 L 104.26756792701781,445.49858745816164 L 108.8268851917237,446.3370398832485 L 166.6412523575127,447.30214837775566 L 167.55682255513966,447.1158376131207 L 168.7429864127189,446.2848705390934 L 169.52511318214238,445.8786902651191 L 170.1107815951109,445.7818019890692 L 172.50905660539865,446.30722884088755 L 173.79159625805914,446.132088112412 L 176.74217881448567,444.77562693553045 L 176.14168336987495,443.89984058821574 L 176.1453901734203,443.66877560317516 L 176.66804362088442,442.83393772831187 L 176.8793290462345,440.23602364514954 L 176.9905319083482,439.8297189474106 L 177.85420744121075,440.0645566652529 L 177.9913576375693,439.7067076123785 L 177.23517819866538,438.8232395432424 L 177.9468765053898,438.7524112262763 L 178.38056765682995,438.42808891879395 L 178.99218336492777,437.58929895213805 L 180.27472305297852,436.9778912991751 L 180.43782057985663,436.49322498659603 L 181.38304491341114,435.23676384449936 L 180.95306049473584,433.7080197802279 L 180.9753010608256,431.06411933898926 L 181.22365411743522,430.0683648758568 L 181.1754662208259,429.7103278413415 L 180.33032444864511,429.441795489518 L 180.19317428953946,429.0800166318659 L 180.17093372531235,427.68878055596724 L 180.43782057985663,427.2225251835771 L 181.1013309545815,427.07705111568794 L 181.1754662208259,426.6070500195492 L 180.64169250801206,425.6371684144251 L 180.64169250801206,425.28277577785775 L 181.4201125111431,425.2492013736628 L 181.186586484313,424.72319442243315 L 181.2014135159552,424.3165545333177 L 182.12069055251777,423.22716242377646 L 181.52760860696435,421.49966973415576 L 182.16887845098972,419.7048415534664 L 182.4283517729491,417.7344269270543 L 182.8657496906817,416.4990741421934 L 184.83774708397686,413.7257449426688 L 185.1898894701153,412.1839861245826 L 185.99425684288144,411.66505820467137 L 187.26567623019218,411.485856465064 L 188.13305852934718,410.87356971926056 L 188.56304291449487,409.98870217241347 L 188.83363653719425,407.923833220033 L 188.62605784274638,407.0948280110024 L 189.35628998465836,406.8520935946144 L 189.5786957088858,406.6317623751238 L 190.2199655175209,405.42922627716325 L 189.83075553365052,404.2490141193848 L 189.78998113423586,403.460914791096 L 188.64088490977883,403.7709298378322 L 188.56674968078732,402.86701439204626 L 189.3006885536015,400.50240811053663 L 189.23396682180464,398.5671386986505 L 190.79080686345696,396.7512148676906 L 191.0428666882217,395.19294583052397 L 192.00291805155575,394.9014543907251 L 194.53092975914478,393.2271452601999 L 194.69032051973045,392.68146221200004 L 194.70144082047045,391.4180971980095 L 194.91272624582052,390.9209468641784 L 195.42055262625217,390.5807824176736 L 195.7096800841391,391.08915736339986 L 195.92467227578163,391.15644104382955 L 197.51487318240106,390.4835912603885 L 197.64831661060452,390.2219197410159 L 197.45556498505175,389.99762644595467 L 196.61783678270876,389.64996559266 L 196.42508512176573,389.22005179920234 L 196.51034065149724,388.8761123898439 L 197.3814297541976,388.10969868511893 L 197.86330880224705,387.2946422023233 L 198.46009751595557,385.5597021668218 L 198.99387122876942,384.77442890405655 L 200.74346289783716,383.8918841036502 L 201.4551612045616,383.3570973377209 L 201.32171777635813,382.6764329141006 L 201.4922288376838,382.08924230583943 L 201.5441235024482,380.6679238693323 L 202.0778972133994,380.9222747243475 L 202.23358124308288,380.5818924768828 L 202.0778972133994,380.4060877272859 L 202.67468589171767,380.1554689228069 L 202.68209942430258,379.8375137739349 L 202.32254350557923,379.17165692988783 L 202.515295131132,378.7077843789011 L 203.16397847235203,378.12792385625653 L 203.4642261955887,377.6079010970425 L 204.6466833204031,377.3085993458517 L 204.67263061739504,376.5191625703592 L 204.84684844501317,376.1899066299666 L 205.52889265306294,376.18242344725877 L 205.52889265306294,375.9354766935576 L 205.19528406485915,375.60994971566834 L 206.26653829216957,375.44157094461843 L 206.47411698661745,374.29654534976 L 206.99677043408155,374.4537108852528 L 207.40822098217905,373.989693577867 L 206.75212410651147,372.83707221294753 L 207.20805585943162,372.3617770955898 L 207.97906236350536,371.98003304190934 L 207.79001746885478,371.6057646300178 L 207.97906236350536,371.2389724487439 L 208.4646481797099,371.7554731327109 L 208.97988809272647,370.2508341174107 L 210.42552527226508,369.2401698047761 L 210.5515552032739,368.62625097623095 L 210.13269108347595,367.593012656318 L 210.42552527226508,367.03518342529424 L 210.703532429412,366.7169491541572 L 212.70889068953693,366.21899223607033 L 213.72083668224514,366.2377127530053 L 216.76408834010363,367.31222874857485 L 217.84275609999895,367.22612064983696 L 219.05857402086258,366.7693646803964 L 219.49967870488763,366.82552396925166 L 221.73114945739508,368.05723014031537 L 222.31311106681824,368.1770258396864 L 223.51039518974721,368.0459992659744 L 224.56682234816253,367.5368562764488 L 226.39796281792223,365.97187948878855 L 227.35430741496384,365.75846057082526 L 230.56807006150484,365.8296005455777 L 230.33825083822012,366.7394129689783 L 230.37902523763478,367.74650554545224 L 230.7126337904483,368.58132905862294 L 231.36502389982343,368.9743909961544 L 233.3815024588257,369.8166312633548 L 233.95975730195642,369.89898106246255 L 238.3893379420042,369.7267945855856 L 239.731185792014,369.21022313577123 L 240.19453104026616,369.1802764062304 L 241.5326721239835,369.7642266100738 L 242.12946080230176,369.850319881225 L 245.2542611863464,369.87652207841165 L 245.06150956079364,371.23148682620376 L 245.13564478978515,371.93512130971067 L 245.57304270751774,372.24201529473066 L 253.53516751341522,372.2382727183867 L 253.85024230368435,372.0399150804151 L 254.02075332775712,371.0218871028628 L 254.7991733662784,369.7155649487395 L 275.66453676484525,369.7155649487395 L 274.89353025890887,372.53019048576243 L 274.78232739679515,373.4583012475632 L 274.8861167617142,374.5921648845542 L 276.4614906013012,379.5607004307676 L 276.5912272632122,380.5070821924601 L 276.57640023157,381.3823398074601 L 275.59781503118575,384.2583706462756 L 275.6682435311377,385.2044644122943 L 278.1443605385721,385.0025361722801 L 278.83381827920675,385.1633310785983 L 279.34905819408596,385.70553424838 L 279.7234411817044,387.1226524398662 L 280.21273376233876,387.7582575075794 L 281.3173488210887,388.6293686248828 L 281.3395894225687,389.7509001658764 L 280.3869515545666,392.1544492901303 L 279.99774157069623,394.5426885378547 L 280.3869515545666,400.40154059208 L 280.7390939425677,401.56334741041064 L 282.14395679347217,403.49079597950913 L 282.3737760167569,404.07346912520006 L 281.6287168432027,405.8923248637002 L 309.33305615372956,405.8923248637002 L 309.48874014802277,407.6064260834828 L 309.9409650955349,408.6706500921864 L 310.2375060878694,408.90589065430686 L 320.70910876616836,408.99923919071443 L 317.58801514841616,400.79006385663524 L 317.3656094223261,399.10515156108886 L 317.44715822301805,395.61148843425326 L 362.79568467848003,395.7198593057692 L 362.9143010750413,395.4171664295718 L 363.6519467141479,394.886505987728 L 364.8566443696618,392.5917591014877 L 364.5156222824007,391.83673809678294 L 365.1865462269634,390.90599475079216 L 365.2755084875971,390.4574242697563 L 365.0086216311902,389.7284703203477 L 365.5201547779143,388.97705189860426 L 365.0086216311902,387.36941981036216 L 364.982674298808,386.9170099834446 L 365.2755084875971,386.1355440975167 L 365.2755084875971,384.77442890405655 L 364.5156222824007,383.7535144747235 L 364.4489005859941,383.08034729305655 L 362.2767379973084,376.7848070457112 L 362.06545260734856,375.1946120506618 L 362.3360462319106,373.8362653537188 L 361.5798667576164,372.3505494541023 L 361.68365612253547,369.8840084222611 L 361.8467536494136,369.2401698047761 L 363.32204492762685,368.3080512806773 L 363.5629844516516,367.888765797019 L 363.8780592419207,366.28264182270505 L 365.3904181178659,364.1034215025138 L 365.57575620897114,361.94634444033727 L 365.96125946193933,360.2197007986251 L 366.25409365072846,359.56794168334454 L 367.3031073138118,358.53780183871277 L 367.65895646624267,357.86723435507156 L 367.11035568639636,357.56752915494144 L 366.9176040608436,357.1479312106967 L 368.21126401238143,354.8211842800956 L 368.49668466858566,353.26605820376426 L 368.3558277413249,351.66953183338046 L 367.5032724738121,348.8807919251267 L 368.21126401238143,348.6521202989388 L 367.55887390486896,347.4899597039912 L 367.1696638856083,346.39143996476196 L 366.3764168135822,341.4263751085382 L 366.12435698881745,341.17507336474955 L 365.483087182045,339.100716621615 L 365.1902529578656,336.2155870627612 L 365.2755084875971,334.3280949878972 L 364.76026857458055,330.1694021606818 L 365.1976664904505,326.5163127242122 L 365.1865462269634,325.0330055956729 L 364.80845647118986,323.50445620389655 L 363.70013461075723,321.2394622634165 L 363.4703153874725,319.973443594994 L 363.09593239985406,319.2257943034638 L 363.0477445013821,318.7674145149067 L 364.0485702659935,317.2568970855791 L 364.4896749500185,315.776262836298 L 364.9011255353689,312.5851602309849 L 365.2755084875971,311.0701320171356 L 366.16513135284185,309.64139848412015 L 368.44108327291906,307.2460156250745 L 368.9489096533507,305.8318793801591 L 369.94973541609943,306.3057838277891 L 370.01645711250603,305.12851082510315 L 370.4501482639462,304.1091179996729 L 372.51110795512795,301.697590947384 L 372.86695710755885,301.4906510640867 L 373.3747834879905,301.8330405568704 L 373.7714070416987,301.6336280500982 L 375.7545247003436,300.2301218244247 L 376.24381728097796,299.65437317383476 L 378.0304765831679,293.58285044366494 L 377.78212352469563,292.4005531028379 L 379.9579928461462,287.38763431762345 L 380.79942781478167,285.8957678733859 L 381.10708907060325,284.79558058059774 L 381.62974251806736,284.1512437558267 L 381.7483589146286,283.72920232708566 L 381.3072542306036,281.6752954092808 L 380.5028868597001,280.3598462988157 L 380.2582405693829,279.60216869111173 L 380.33608256466687,278.8255906542763 L 381.140449937433,277.8529077307321 L 381.4814720582217,277.087520535104 L 381.62974251806736,272.7769983606413 L 382.2154109310359,271.833966976963 L 381.9670578725636,271.4982283883728 L 382.07084716670215,270.0985792046413 L 381.9670578725636,269.4005745553877 L 381.61491548642516,269.0911745519843 L 380.0432483404875,268.72139239148237 L 378.5420097652823,268.0949983233586 L 377.0630116853863,266.87606867495924 L 376.44398244284093,266.07595436042175 L 376.45139597542584,265.47583014471456 L 376.7775910291821,264.90964490151964 L 377.54118400253356,262.357670632191 L 377.54118400253356,260.9644011594355 L 378.2973634749651,260.2167189507745 L 378.41968660242856,259.58605770766735 L 379.25370807386935,257.82227525347844 L 379.67257219180465,254.59610380185768 L 379.54654226079583,253.0582277001813 L 379.0313023477793,251.5617010802962 L 379.94316577911377,251.61083284229971 L 380.6140897218138,252.03033325145952 L 382.1894635632634,253.72706120810471 L 382.7121170107275,254.0973576051183 L 386.30026264488697,255.31395485182293 L 387.34186277352273,256.2093116613105 L 388.47613192908466,259.13286510668695 L 389.7883257176727,259.3254742715508 L 393.8546436317265,257.67496552853845 L 395.21873204782605,257.2859069383703 L 396.6087677963078,257.14614456682466 L 397.91725481674075,257.37656260607764 L 400.2488081306219,258.7778508171905 L 401.10507013089955,258.7438594654668 L 403.90367546118796,257.14614456682466 L 405.28259094431996,256.93838629336096 L 406.88761888444424,256.93838629336096 L 413.4300538431853,258.0564558240585 L 419.7612033765763,261.5912058863323 L 421.2735622879118,262.0254167034291 L 422.7266129665077,262.1084811340552 L 424.12035551667213,261.98765991977416 L 429.3839575536549,260.5188190205954 L 430.57753494381905,260.4281899156049 L 431.9861044920981,260.54147621407174 L 433.3538996744901,260.3828750406392 L 436.2748281676322,259.6427054423839 L 437.4832325540483,260.0845475096721 L 438.21346466057,261.61763660795987 L 439.65539510920644,262.6785879803356 L 440.3967475146055,265.01156040350907 L 441.07137818820775,265.34749741945416 z" /><path fill-rule="evenodd" fill="#D2EBD9" stroke="#A6A6A6" stroke-width="0.25" opacity="1" d="M 2.02154303714633,53.086785305291414 L 2.053799580782652,51.656699462095276 L 2.478729134425521,49.8147926593665 L 1.664119727909565,50.5942062207032 L 1.168446384370327,51.69238397781737 L 0.0,55.377513020532206 L 0.07086020708084106,56.405117318267 L 1.1685884818434715,57.503065834520385 L 1.8058725278824568,57.29025573050603 L 2.02154303714633,53.086785305291414 z" /></g></g></g></svg>