<svg xmlns="http://www.w3.org/2000/svg" xmlns:xlink="http://www.w3.org/1999/xlink" width="226.8216726668179" height="500.0" viewBox="0.0 0.0 226.8216726668179 500.0" preserveAspectRatio="xMinYMin meet"><g transform="matrix(1,0,0,-1,0,500.0)"><g><g><path fill-rule="evenodd" fill="#D2EBD9" stroke="#A6A6A6" stroke-width="0.25" opacity="1" d="M 72.66558604873717,487.2523677619174 L 73.58451684936881,488.6377369463444 L 74.57114593870938,489.5105107240379 L 74.50168159976602,490.9271739469841 L 75.12332857586443,490.95266563724726 L 75.61134499125183,491.4700643699616 L 77.32264020852745,492.1223240438849 L 77.26082872599363,492.6062622657046 L 77.88306436687708,494.6169647956267 L 78.29985040426254,494.9158245343715 L 78.95976163446903,494.77085224632174 L 79.12635830976069,495.0162806715816 L 81.96615470945835,495.82226164638996 L 82.44710695743561,496.37250324338675 L 82.76205120421946,496.4373008143157 L 83.53204575553536,499.93279846198857 L 83.73190290480852,500.0 L 85.18977099843323,499.43568085692823 L 85.54180214740336,499.05386999528855 L 85.73606683127582,498.39152887742966 L 87.03293072618544,498.06534157972783 L 88.49256489239633,496.3293035104871 L 89.17543465457857,495.98239613790065 L 90.76222387887537,496.1666596150026 L 91.05185484699905,496.3216799199581 L 92.4479114767164,496.1374329216778 L 97.42579669132829,496.19715649913996 L 99.56624024175107,495.6938891671598 L 100.3653744906187,495.24006067123264 L 101.55627583153546,495.19047556445 L 102.25768905691803,494.8446116056293 L 102.86638506129384,493.9961884710938 L 102.53319169953465,493.1626223186031 L 103.07389504276216,492.6431887652725 L 102.99677785858512,492.1465242113918 L 104.17060746252537,490.7079297360033 L 103.92983700707555,490.15587011072785 L 103.8809764944017,489.46713784430176 L 104.99711536802351,488.120750637725 L 104.94854920729995,487.4899404933676 L 105.13192328251898,486.74006723519415 L 105.34384839050472,486.63784394133836 L 105.69352480210364,487.98541449476033 L 105.70058898255229,488.87511471658945 L 106.19213748723269,490.7283257506788 L 107.22056291997433,491.9885801374912 L 108.06708597764373,494.2124679097906 L 108.46827196516097,494.56608990579844 L 108.99955642595887,496.16411818005145 L 109.4128103852272,496.566888704896 L 109.64651667326689,497.2908785864711 L 110.11569531075656,497.4191331062466 L 111.17826423235238,497.34675299189985 L 112.00653818808496,496.7625227002427 L 112.53635093569756,497.2362723117694 L 113.15740923583508,497.41532369703054 L 122.01293516531587,497.4673848412931 L 122.66990299336612,497.3340544383973 L 122.90773004665971,495.7752351993695 L 124.09451063349843,494.9895777152851 L 124.32586220651865,494.5355642437935 L 124.71498024836183,494.34349459037185 L 124.70968212001026,493.6322688292712 L 125.40020474791527,493.4235529024154 L 125.87056073918939,492.895286465995 L 126.47219256311655,492.6864809114486 L 126.84247281588614,492.22039626631886 L 127.63778063468635,491.66882611624897 L 128.5608322005719,491.4280156577006 L 128.62735313735902,491.0813927873969 L 129.0853468310088,490.7563698403537 L 129.17600368522108,490.5358287570998 L 128.9528936445713,489.9518304122612 L 129.63458605483174,489.6482760133222 L 129.61103882454336,489.08821584284306 L 129.82885073684156,488.94912892766297 L 129.68815601989627,488.6594341387972 L 131.42476450651884,486.47810760326684 L 131.7638446725905,485.83517477475107 L 131.76561072282493,485.3147681206465 L 132.3289782833308,484.6278902189806 L 133.59876285865903,483.8498544571921 L 134.4611802920699,483.0035834880546 L 134.87443425133824,482.0389996217564 L 135.4745943751186,481.5943075157702 L 136.3308306541294,481.46997735928744 L 136.90626619569957,480.8610088210553 L 137.34571643732488,480.7789411274716 L 137.22856894880533,480.40958586521447 L 137.5164338890463,479.99909383803606 L 139.84172321669757,479.0853807395324 L 140.11899190023541,478.5615626461804 L 140.7821408715099,478.1441854983568 L 141.17125891149044,478.1441854983568 L 141.97304221242666,477.52498656045645 L 141.8706117477268,476.78600776102394 L 142.65502897277474,475.93608822021633 L 143.15216994471848,475.05548242107034 L 143.51126525178552,474.82383371982723 L 143.9460060633719,474.951244616881 L 145.07421290688217,474.22911662980914 L 146.30838228203356,474.2252541091293 L 146.7596061564982,473.95743046235293 L 147.414807934314,473.9741707406938 L 147.8424845673144,473.7964573400095 L 148.03704358823597,473.32761191390455 L 148.51063732989132,473.2850999487564 L 149.092548340559,472.91403864324093 L 150.30611389875412,472.7748685479164 L 150.77293781004846,472.4268905315548 L 152.98431740142405,472.3173262765631 L 153.79169318079948,472.5712461322546 L 154.2326151356101,472.54418044909835 L 158.3339545801282,469.818513257429 L 159.05302821844816,469.0165664097294 L 159.85657756961882,468.77629092521966 L 160.70045156404376,468.2167987655848 L 160.8785275220871,467.8561898106709 L 161.70444674044847,467.21619718242437 L 162.12358750402927,466.53972079977393 L 165.99740180186927,464.5784942423925 L 168.18140773661435,462.91567746084183 L 168.99849674850702,462.8404653649777 L 169.49122261628509,462.4734300514683 L 172.00665586069226,461.98045485373586 L 172.40401543304324,461.71054952405393 L 173.57195823267102,460.214837603271 L 173.84569481387734,460.19275464490056 L 174.63688187859952,460.84471884928644 L 174.84704092517495,460.85121113061905 L 175.98672704026103,459.9498211508617 L 176.9203748628497,459.5548102147877 L 177.39426294341683,459.5548102147877 L 177.58440686017275,459.1791960960254 L 178.8724405374378,459.04010466486216 L 180.201093217358,457.8371539460495 L 180.56901874393225,457.01600511185825 L 181.14180519804358,456.4613828677684 L 181.49148162081838,455.4219002155587 L 182.43337096460164,454.5277425730601 L 182.23734024353325,453.00150551926345 L 181.8234976194799,452.73001338914037 L 181.69339914806187,452.3579377196729 L 181.18065813928843,452.397107896395 L 181.05644647218287,451.9583438504487 L 180.34708605334163,451.77026304230094 L 179.96738691814244,451.2672927575186 L 180.3570936359465,451.00855686236173 L 179.44287228770554,450.2987646907568 L 179.65656343474984,449.6265709735453 L 178.81945927254856,449.060072472319 L 179.09260718896985,448.651746513322 L 178.47213756293058,447.8884534537792 L 178.99900691956282,447.73260462097824 L 178.84948199428618,447.36059697531164 L 177.53378031030297,446.36855845618993 L 176.41410934738815,445.87819167785347 L 175.98672704026103,444.92977624293417 L 175.67590356990695,445.18956870865077 L 175.70298287831247,444.9625808317214 L 176.1851124893874,444.62268990650773 L 176.1921766679734,444.4520587865263 L 175.4633897729218,444.060845320113 L 175.48988041840494,443.2386961998418 L 174.97242995537817,442.1755252657458 L 175.28737420402467,441.7547752968967 L 174.92356944456697,440.7892232090235 L 175.52049181610346,439.9652371481061 L 175.2090796455741,439.7032015696168 L 175.36449139937758,439.2211436945945 L 174.7163537889719,439.23168217390776 L 174.5750703830272,437.85048876237124 L 174.11943140625954,437.71730810031295 L 174.26895634271204,437.3374781711027 L 174.11236723698676,437.16995205916464 L 173.52604111097753,437.2068886253983 L 173.3853464052081,436.92720265407115 L 173.80213244259357,436.37030817288905 L 173.1310362778604,436.1987097384408 L 172.91263568773866,435.916187858209 L 171.983108619228,435.5543734105304 L 171.91305560432374,435.2241714531556 L 172.0837730448693,435.06961091887206 L 171.57220939919353,433.9925100300461 L 171.29317467845976,434.29920258559287 L 171.18603475950658,434.23707619309425 L 170.9576266016811,433.27840261068195 L 170.38071936927736,433.17787000816315 L 169.95745784044266,432.7624368229881 L 169.96805409900844,432.2277528177947 L 170.54672736860812,431.61738603468984 L 170.5167046468705,430.71260916721076 L 171.5810396168381,431.1975244777277 L 174.68574239127338,431.4717067666352 L 175.93197972513735,431.3101177997887 L 177.14937172085047,431.43594685569406 L 180.71030213683844,430.5390063980594 L 182.94316858239472,429.4571555480361 L 184.9723514635116,429.5168379349634 L 185.33968830108643,429.18258419819176 L 186.09025637619197,428.94245644751936 L 186.73957134783268,428.5178215159103 L 187.92281983420253,428.5602907380089 L 189.049554977566,429.18523732014 L 189.88077233545482,429.39879700820893 L 190.28048662282526,429.2343191038817 L 191.3980972096324,428.2682890314609 L 193.1997549328953,429.04328854195774 L 193.95797586254776,428.9318421250209 L 194.92576716281474,427.6628568479791 L 195.62924077548087,427.2391653805971 L 195.9959889370948,427.3188662864268 L 196.7995382901281,428.6001044837758 L 196.9949803352356,429.7714545633644 L 197.8426807448268,430.1241292031482 L 198.76396627165377,430.93521375767887 L 200.35546493716538,430.50719902385026 L 201.40361117199063,430.47406557109207 L 201.84423878788948,429.62293375004083 L 202.97686073556542,429.07778207212687 L 203.80866676010191,429.90272339992225 L 204.8382695671171,430.5575603870675 L 205.09640610963106,431.6134131690487 L 204.75909198261797,432.61819772515446 L 205.24828576110303,432.79419394023716 L 205.49317699484527,433.49002707749605 L 206.31320940889418,433.5085427444428 L 206.53072698414326,434.56354014761746 L 206.8583278786391,435.0194081971422 L 208.37800747714937,435.60191625729203 L 209.2825155928731,435.33116517961025 L 209.9983514919877,435.35361964814365 L 210.22028418071568,435.7841493068263 L 210.06310638971627,436.28715148288757 L 210.14169528521597,436.5049326820299 L 210.8807840887457,437.25041977874935 L 211.8562282435596,437.47201267350465 L 212.4869997650385,438.92208218574524 L 212.94881988689303,439.17371952999383 L 213.45449673943222,439.17371952999383 L 213.65553124062717,439.02880281675607 L 213.93191689625382,439.2935942709446 L 214.07673238031566,440.18246712721884 L 213.9687094502151,440.7773800548166 L 215.0186217352748,442.05457201134413 L 215.40597373619676,443.5775928068906 L 215.39832088164985,444.4940621126443 L 215.69501602835953,444.9927604198456 L 215.4042076971382,445.59884609561414 L 215.64674419350922,446.69494276400656 L 215.4218681231141,447.74570179358125 L 215.58493270911276,447.9264309499413 L 215.9575676880777,447.97619310580194 L 216.05823211185634,448.1673690872267 L 215.9575676880777,448.97501375246793 L 216.2689798567444,449.88685293029994 L 215.93578649498522,450.3589074118063 L 215.64262342639267,451.7741816248745 L 216.3207837715745,451.9857703410089 L 216.12887362204492,452.8687599292025 L 216.75052078068256,452.87098654266447 L 216.9024004433304,452.4179982431233 L 217.14022749848664,452.47413961123675 L 217.57761737331748,452.2260573133826 L 217.87019175477326,451.42538722697645 L 218.03207897767425,451.5847714589909 L 217.9832184780389,451.98315832484514 L 218.35173267871141,452.3017920302227 L 218.46181599795818,452.7913644388318 L 218.98279855027795,452.77439524047077 L 219.30127487704158,453.11896297801286 L 219.55735104344785,453.15028342884034 L 220.05419768951833,452.56813910324126 L 220.19018295407295,452.83574447687715 L 220.7988789472729,452.7952803717926 L 220.51925553940237,453.4177858578041 L 221.0855665244162,453.38125171884894 L 221.64010387659073,453.883518781513 L 221.74547774344683,453.80786321219057 L 221.56357535719872,452.9088382059708 L 221.8396666776389,452.5877215806395 L 221.9891916140914,452.67127069085836 L 222.0239237882197,453.1829081987962 L 222.33533594757318,452.9218902895227 L 222.62202351354063,453.0302181839943 L 222.99524717777967,452.8683760566637 L 223.33373866789043,451.87997969426215 L 223.99188384972513,452.1829652003944 L 224.37334902398288,451.31563745904714 L 224.2938771136105,450.83865555003285 L 224.78483694233,450.13270593993366 L 224.86372017674148,447.96964554023 L 225.64313361048698,447.1352513516322 L 226.00340629182756,445.8886824930087 L 226.76280458457768,444.7106228461489 L 226.8216726668179,444.1947622867301 L 226.10524808056653,442.71706321649253 L 226.23652390390635,441.13394844625145 L 225.95690050721169,440.81817272957414 L 226.07816876098514,440.52207100763917 L 225.9009758271277,439.8599018761888 L 225.93335326574743,438.90363585203886 L 225.53717106767,438.40945043973625 L 225.83857565559447,438.09308348596096 L 225.78088492527604,437.6579662375152 L 225.99634212441742,437.60521586984396 L 226.24123335629702,435.9822025941685 L 225.60369199328125,434.4538459610194 L 225.23400042951107,434.26219143439084 L 225.18867199495435,433.55483083147556 L 224.91729013063014,433.2982437219471 L 225.0309055391699,433.0799762448296 L 224.90257310681045,432.7558206729591 L 224.7659991644323,432.6698078736663 L 224.3080054614693,433.2281371848658 L 223.9971819780767,432.6089341668412 L 223.52564862556756,432.87093738559633 L 223.37494632415473,432.7915475377813 L 223.401436958462,432.3124685706571 L 222.9075337368995,432.35350096132606 L 221.92090463638306,431.1114177033305 L 221.16562711074948,431.18427762854844 L 221.18976302817464,431.4637601990253 L 220.9495812356472,431.6465201023966 L 220.3255795557052,430.26066766213626 L 220.32734558358788,429.8881385792047 L 219.99003146775067,429.78338858671486 L 219.69804577343166,429.2741138972342 L 219.4696375913918,429.2674815012142 L 219.00516841746867,429.711782890372 L 219.00516841746867,429.1786045068875 L 218.73319786414504,428.9398028841242 L 218.535989779979,429.495617817156 L 217.9019805174321,429.52346916496754 L 217.67416103370488,429.33910965081304 L 217.85841813497245,428.88274985644966 L 216.77760010026395,428.52180306613445 L 216.46677660755813,428.9238813482225 L 216.2513194307685,428.96368486527354 L 215.8360050842166,428.1581090549007 L 215.54755148105323,428.0226954212412 L 215.37418497540057,428.3054562341422 L 215.10221442207694,427.6960561228916 L 214.14972882159054,427.5353643326089 L 213.9242640528828,427.7226149821654 L 213.9413358028978,428.05721385218203 L 213.79534294456244,428.01605715509504 L 213.53926677815616,427.77573121432215 L 213.33911528997123,426.9176593059674 L 212.73336271196604,426.7661806046963 L 212.56323394738138,425.309025763534 L 211.7432015221566,424.6863487698138 L 210.84193114750087,424.86998740863055 L 210.6500211916864,424.7768403813243 L 211.1139017008245,424.2457839148119 L 211.2369360048324,423.8436973001808 L 210.4360357169062,423.9329119324684 L 210.2161634042859,423.454814738594 L 209.55183708108962,423.8064118884504 L 208.60994772613049,422.960564465262 L 207.99624794349074,423.0151937212795 L 207.72516042552888,422.3941593244672 L 207.23508361168206,422.19952933490276 L 207.207121277228,421.7355068558827 L 206.55368553847075,420.90040940698236 L 205.81106465682387,420.90040940698236 L 205.26947827637196,420.0394391743466 L 205.00045113824308,420.055462108925 L 204.948647223413,420.3558578705415 L 204.6855068784207,420.40925474558026 L 203.78188178874552,419.38501054327935 L 202.77406018413603,418.92271699383855 L 202.84175847284496,418.59126677922904 L 203.7459722608328,418.17149367928505 L 204.0149994008243,417.6994303204119 L 203.66591166332364,416.7467864546925 L 203.42985063791275,416.6905705155805 L 203.20615192130208,417.1897409725934 L 201.9787523522973,417.4426026074216 L 201.2582070119679,417.03318425361067 L 201.29882598109543,415.90464469231665 L 200.05082259699702,415.49744617845863 L 199.93338076025248,414.340823343955 L 199.71792358532548,414.03910932596773 L 199.00944617949426,413.53207938279957 L 198.07874177023768,412.28381982445717 L 196.92316126823425,411.81643402948976 L 196.75391552969813,410.4993655430153 L 196.50254880450666,410.0434685703367 L 195.72166366875172,409.5779989771545 L 195.30752669647336,408.0459260372445 L 193.93678334727883,407.52316788956523 L 193.1508944220841,406.8586476864293 L 192.7706065978855,406.2302178684622 L 192.7729613147676,405.67841267678887 L 192.33792617544532,404.65649885870516 L 191.41193120740354,404.0094667831436 L 191.25828550569713,403.39861754793674 L 191.07137933932245,403.29182523768395 L 190.8526844009757,402.75503005087376 L 189.34212935902178,401.29769145231694 L 188.5527083426714,400.02577492501587 L 187.7185475938022,399.12561671063304 L 187.27173883467913,398.86114599741995 L 186.2892304994166,398.7797596883029 L 185.47037544846535,398.29676386527717 L 185.27669944241643,397.8583863209933 L 185.08714421279728,396.1170002296567 L 184.10404721274972,395.3460834464058 L 183.02499521896243,393.96763032022864 L 182.31328007392585,393.54277776461095 L 181.5691874921322,393.4501632573083 L 181.4724159501493,393.3248405409977 L 181.68574630469084,392.4677700493485 L 181.3554963450879,391.5310096088797 L 179.1126223281026,389.4682882241905 L 178.65521731227636,388.6018066247925 L 178.70054574497044,388.08491942100227 L 179.4740723632276,386.4672748306766 L 179.7219070084393,384.3936415538192 L 179.5953406151384,383.87367609795183 L 178.4933300781995,383.5799868311733 L 178.40502795018256,383.3452610615641 L 178.95662190020084,382.4828544324264 L 179.0484561175108,381.86177790816873 L 178.54984344542027,380.96397579461336 L 178.40502795018256,380.37655314523727 L 178.4803791064769,379.4391367128119 L 177.78279230743647,378.45830061938614 L 177.51082175597548,377.3277358962223 L 176.68666857481003,376.72757082246244 L 176.54244176857173,376.31487658061087 L 177.54967469535768,375.25974731426686 L 177.6320900078863,374.66273456811905 L 176.84266899339855,372.0072574838996 L 176.7243441529572,371.8146909289062 L 175.65824313275516,371.4862889209762 L 175.16669462621212,370.9956020405516 L 175.0913434829563,370.7196783898398 L 175.5905448421836,370.03861803002656 L 175.74419054575264,369.0447882451117 L 175.5905448421836,367.9202103866264 L 175.27442323043942,367.22925504203886 L 176.29990524984896,365.5050346618518 L 176.2422145307064,365.09554059710354 L 175.52049181610346,364.0419245753437 L 174.8924017213285,362.6918481225148 L 174.98927912302315,360.4234411921352 L 175.35639348253608,358.10774627234787 L 175.83011932112277,357.13097716588527 L 175.58259525708854,356.0528503963724 L 175.72721605747938,355.09873957838863 L 175.07039655931294,354.5290061850101 L 173.0345806069672,354.75250677764416 L 172.49920551292598,354.38293370977044 L 172.69666853174567,354.163791526109 L 172.46444089338183,352.61758548393846 L 172.70223086699843,351.719510788098 L 171.84192248806357,350.7474954351783 L 171.45626700110734,349.6591364732012 L 171.1429219264537,346.1584960985929 L 171.4266012031585,345.16627817507833 L 172.1473875902593,344.0459595480934 L 172.39444812759757,342.3958908719942 L 172.30545070953667,341.97210537828505 L 172.812087059021,341.7595956167206 L 172.98173838853836,341.47768083401024 L 172.93121381662786,339.9976281169802 L 173.0869592987001,339.52702028118074 L 172.15712168253958,338.3608839949593 L 171.21291469223797,338.43268010020256 L 170.90142372623086,338.14995723962784 L 171.5638055484742,337.77064124308527 L 172.22077093832195,337.07398915383965 L 171.57306159846485,336.11082974262536 L 171.66693772748113,335.73532531876117 L 171.9624398238957,335.4561397610232 L 171.9976679701358,334.9274229519069 L 173.08466083556414,334.22303744219244 L 173.81077666953206,333.0508397743106 L 175.6352583989501,331.7593170115724 L 177.39734301157296,331.24818763136864 L 177.7978553082794,330.7310804594308 L 178.10327029973269,330.60423245001584 L 178.8686647694558,330.656360396184 L 180.14668611437082,329.5490964902565 L 180.96716940961778,329.21279148291796 L 181.91544994711876,328.4645018018782 L 182.8443546667695,328.11055241245776 L 184.8088763896376,326.20724815130234 L 185.95728395693004,324.82832704577595 L 187.26944107748568,322.4843308394775 L 187.33140614442527,322.1395223364234 L 187.14042455144227,321.53980000223964 L 184.77418266050518,318.130546733737 L 184.31083170510828,316.22827373538166 L 184.61676033586264,314.4709693910554 L 184.82673861831427,314.28534580301493 L 185.2731162942946,312.89332562405616 L 185.73618098907173,312.49856359977275 L 185.96562746539712,311.8992661619559 L 187.55784691683948,310.3179499125108 L 188.72825568169355,309.59203836880624 L 189.50049369595945,309.35034522227943 L 189.60339695960283,309.1673136949539 L 189.40593394078314,308.96467725746334 L 189.48380668833852,308.8679512673989 L 190.42384192347527,309.4470288371667 L 191.43526050448418,309.4470288371667 L 191.34255485795438,309.9774867417291 L 191.74628794379532,309.83367848489434 L 191.9534850642085,309.0878754397854 L 192.23577374778688,308.7078740913421 L 192.21352439187467,306.9339488223195 L 192.52455183118582,305.8120953589678 L 192.60891396924853,302.2519454229623 L 192.36324401386082,301.1600583838299 L 190.05950873717666,297.81497376877815 L 188.15440773963928,294.2260931665078 L 186.90288153849542,292.4622243447229 L 185.26940806768835,290.88279310800135 L 184.8183951098472,290.1191499233246 L 184.49717005342245,289.88713783491403 L 183.2386909238994,288.19238786026835 L 182.76635566540062,287.0167936310172 L 182.61849016323686,285.7846058579162 L 182.76635566540062,285.429263016209 L 182.72185695543885,284.7205747673288 L 182.429834170267,284.0208389069885 L 182.02934578433633,283.55880662519485 L 178.97284067608416,281.5090482486412 L 177.18640290759504,280.43715025205165 L 176.6468560565263,280.2881562700495 L 175.62616690061986,279.5334019754082 L 173.62928732298315,278.621768518351 L 172.62064990401268,278.45593183580786 L 170.94036008790135,277.659550270997 L 169.0922730639577,277.2279239417985 L 166.6879521701485,276.38787667267025 L 166.0404032357037,275.9509751480073 L 165.28763340227306,275.69207227416337 L 158.80380061082542,274.3775652553886 L 156.93021953105927,273.578067031689 L 155.87708340212703,273.578067031689 L 144.75426015257835,271.5694738905877 L 143.0368880815804,271.6791770765558 L 141.59114355035126,271.19735059700906 L 139.37686922214925,271.48599629756063 L 138.34830009564757,271.4692999878898 L 137.32297566905618,271.0446459967643 L 135.53329318761826,271.3023219611496 L 134.99050163663924,271.6791770765558 L 134.21919067762792,271.4692999878898 L 133.66666503623128,271.4931517932564 L 131.52840933389962,272.1274087680504 L 130.77146774716675,272.6493071792647 L 130.0404837410897,273.9874106645584 L 128.20213080570102,274.1325462050736 L 127.74926372990012,274.3264252608642 L 127.38771171681583,273.9255434619263 L 127.6398710757494,272.9304040959105 L 127.57312301173806,272.67789677903056 L 127.72979554906487,272.81845086533576 L 128.00513131543994,272.72316203732044 L 128.02274538762867,271.98437712714076 L 128.18219908699393,271.78886866848916 L 128.71108479239047,271.8794747237116 L 128.5984474364668,271.18064962606877 L 128.2044484410435,270.8895323704928 L 127.75668018497527,269.71349320560694 L 127.96897611394525,269.3586282338947 L 127.96897611394525,268.36387944966555 L 128.90252194739878,267.4603628637269 L 128.2869564704597,267.66147869825363 L 128.12379453144968,267.47353235725313 L 128.47978420741856,267.20771538373083 L 129.9204299300909,267.0508272545412 L 130.8187476284802,266.59679503552616 L 131.30174404382706,266.23726085107774 L 131.56966335512698,265.67133943457156 L 131.18354434147477,265.16270378325135 L 130.05578017793596,266.03826462943107 L 129.68727523833513,266.64831798896194 L 128.5984474364668,266.64831798896194 L 128.72823533788323,266.23726085107774 L 129.23394463397563,266.12338217906654 L 129.38551836274564,265.68453182000667 L 130.07617541402578,264.92869488336146 L 131.13301976956427,264.6346081402153 L 131.25631826929748,264.2311522150412 L 131.00879420526326,263.81071696057916 L 130.47202851623297,258.8509863773361 L 129.9626110047102,258.5466932207346 L 129.10369320586324,258.69643613230437 L 128.3578762896359,259.2541555482894 L 128.36343862488866,258.941532257013 L 128.5984474364668,258.6384737472981 L 128.2494106888771,258.389681042172 L 128.2396765872836,257.57161820307374 L 127.65980278328061,255.64409218728542 L 127.96897611394525,254.77169116120785 L 127.73535788431764,253.59275661688298 L 127.63245462067425,253.30387797392905 L 126.68639351055026,252.73073148354888 L 126.25021345168352,251.86067604087293 L 127.10635008849204,249.554315966554 L 128.0885663870722,249.04242761805654 L 128.11869572289288,248.6107763266191 L 128.60122861154377,248.02152897696942 L 128.82372215762734,248.21432290039957 L 128.97761352173984,247.15349761024117 L 128.78895753994584,246.98493183963 L 128.24431186914444,247.08754047285765 L 127.89110336638987,247.49786998797208 L 128.0765146613121,246.44973086193204 L 129.40035126172006,247.06677528191358 L 129.76468444801867,247.08754047285765 L 129.22142937034369,246.60738825518638 L 128.936359513551,245.28914638608694 L 127.98473606817424,243.38698543980718 L 123.74391634948552,240.95777713693678 L 122.59482988528907,240.80291208159178 L 121.99224318750203,240.18198045250028 L 121.18014174513519,239.96179465390742 L 119.83081108890474,239.24431440792978 L 119.30748771876097,239.12735163979232 L 116.82992936111987,239.23077206127346 L 116.06510779075325,239.03377149440348 L 114.97906116209924,239.13720167335123 L 113.35763944126666,239.0362342512235 L 111.05205005779862,239.1889127176255 L 110.56812658905983,239.44742748420686 L 109.4269201066345,240.5582744628191 L 108.333457024768,240.84470344148576 L 108.45351083390415,241.36080485209823 L 108.34180053323507,241.4762765839696 L 107.51996498927474,241.21091727353632 L 107.06385322287679,241.33254908397794 L 104.29798030667007,242.81428009830415 L 102.76045719534159,243.23372395988554 L 101.70453989319503,243.78290410060436 L 100.67736134678125,244.0255258269608 L 99.32942128367722,243.98631822504103 L 98.66935708373785,244.1235380899161 L 98.6605500485748,244.3501545842737 L 99.16162406280637,244.5999856228009 L 99.36743059009314,244.55590232647955 L 99.31829660013318,244.29871103726327 L 100.56286988407373,244.5228385925293 L 100.46506542898715,244.83506365306675 L 99.93293502368033,245.10068425163627 L 100.25925888866186,245.4371988615021 L 99.97928785160184,245.63538357988 L 98.90575647726655,245.89590004552156 L 97.86467208713293,245.63538357988 L 97.75620648637414,245.53996621537954 L 98.54095976427197,245.53996621537954 L 98.3824331201613,245.3136193798855 L 98.69624172151089,244.93177240528166 L 97.53417646512389,244.97461507748812 L 96.15749764628708,243.84417777508497 L 95.65642363205552,241.93311845883727 L 95.98552867025137,238.73819725774229 L 96.96079205162823,234.676205445081 L 97.58655515685678,233.99200983345509 L 97.75620648637414,233.52529653534293 L 97.63661620393395,232.57509277574718 L 97.23381018266082,231.37704832386225 L 97.67833373881876,229.96753751020879 L 97.65886555798352,229.41933025140315 L 96.80875479616225,227.00904788076878 L 96.86530524305999,226.47539278212935 L 97.60092452913523,224.8276990968734 L 98.39309426397085,223.89526822417974 L 99.28353198058903,223.28482946753502 L 99.80917298421264,223.25730066373944 L 100.65047671087086,222.77667208388448 L 101.71149282157421,222.65397355426103 L 102.18151043355465,222.2907952433452 L 102.99500246718526,222.5062139518559 L 103.57163158245385,222.34590690210462 L 103.76121461950243,222.02771918755025 L 103.22954775206745,221.6668131398037 L 102.35718763619661,220.39505275711417 L 102.18846336193383,219.7660808749497 L 102.59868583641946,219.55130825005472 L 103.51600819081068,219.6241604508832 L 103.97953642345965,219.38548622094095 L 104.76521675661206,219.4646320939064 L 105.45494675263762,219.75101067498326 L 107.86946527473629,219.67691207304597 L 108.46185434423387,220.53435052465647 L 108.36914869770408,221.08381659165025 L 108.53138357028365,221.29824963584542 L 108.26995366066694,222.1154191363603 L 107.51996498927474,222.28829008433968 L 105.67048738338053,222.30081576760858 L 105.17961098626256,222.61140105780214 L 105.55738648958504,222.8142297519371 L 107.20198463276029,223.04204851016402 L 109.52941696159542,224.51608895882964 L 110.51998648606241,224.97324425261468 L 111.21436140313745,225.18102382402867 L 111.68497163243592,225.06517455913126 L 112.35734553076327,224.1953434869647 L 112.82782668061554,222.7466248990968 L 113.37525351345539,222.2031111428514 L 113.62926697917283,221.64801227208227 L 113.8415629081428,217.12521025538445 L 113.2269244864583,215.24074684549123 L 113.37525351345539,214.6727940365672 L 112.7916714809835,213.88215012848377 L 112.04956279322505,213.53082476742566 L 109.71059937216341,212.98968392424285 L 108.75758534483612,212.9492125287652 L 107.82033128477633,212.61525840125978 L 107.20198463276029,213.18822196125984 L 106.61191320046782,214.0375516526401 L 106.18639428541064,214.30281324777752 L 106.55907098017633,216.15003527980298 L 106.82050090096891,216.3315379144624 L 106.74401874653995,216.46764244697988 L 105.69551790133119,217.2372795632109 L 105.3742928430438,217.9069056995213 L 104.06297149509192,218.45535090379417 L 102.87263102270663,218.46541121415794 L 101.76294444687665,218.2264506407082 L 100.6796789932996,217.66780685726553 L 99.89029043354094,216.68310200236738 L 98.54095976427197,216.3756479686126 L 98.27257692627609,216.1765065388754 L 97.44239787384868,214.74096608255059 L 97.69038547575474,214.15124416165054 L 100.64352379366755,212.81260898988694 L 101.69619638286531,211.9672581376508 L 102.4434038810432,211.69248516391963 L 103.31761811673641,211.78239650372416 L 104.11164196021855,211.1743807103485 L 105.45216557942331,211.5772343305871 L 105.60791106335819,211.10342039261013 L 105.3107894808054,210.6521923970431 L 103.95079766772687,209.73640741873533 L 100.33203282766044,208.5072173802182 L 98.29668038897216,207.06903753615916 L 97.7149524781853,206.38160719070584 L 97.28943356312811,206.1306988131255 L 97.16381741687655,205.78415819164366 L 97.21295140869915,204.62385713402182 L 95.88911479525268,203.32927865162492 L 95.26752345636487,202.25806527025998 L 94.52077948488295,201.61321960482746 L 93.889454042539,200.41704526450485 L 93.8713764436543,199.35535812936723 L 94.1712791994214,198.59297702182084 L 94.03268426284194,197.75415960885584 L 94.28020833805203,197.5035257022828 L 94.52077948488295,196.70490843057632 L 94.55971585959196,195.6699422793463 L 94.9314654879272,195.68153402861208 L 95.05357165634632,195.49251545965672 L 94.78872810676694,195.28860515262932 L 94.90129407122731,194.66878971736878 L 95.1246074642986,194.51622713916004 L 95.53090649098158,194.53772223182023 L 95.01400869525969,194.03217115066946 L 94.948152506724,193.76695811003447 L 95.21069187484682,192.92171967960894 L 94.43890232779086,192.65052984841168 L 94.1411189455539,191.9267468675971 L 94.18650742433965,191.2908621877432 L 94.6050184443593,190.77902519330382 L 94.62915566004813,190.3152989530936 L 94.78325478546321,190.22121413145214 L 94.71643985249102,189.9690708303824 L 95.13556507788599,189.72554782032967 L 95.18713873252273,189.28009373415262 L 94.40371213853359,188.54670151416212 L 94.40197701565921,188.22491706255823 L 94.12744311988354,188.2923993198201 L 94.17451142705977,188.11145080253482 L 93.88045361079276,187.77542309463024 L 94.10718185082078,187.61171751935035 L 94.0855348650366,187.24005938414484 L 94.43851864337921,187.26747183222324 L 94.47637556679547,186.88912208005786 L 94.20646008104086,186.89677252899855 L 94.01094480976462,186.6248245406896 L 93.94743781164289,187.0166869489476 L 93.40756553784013,186.89040100201964 L 93.54286230169237,186.50352859683335 L 93.17737988941371,186.31926618050784 L 93.59864613413811,185.96437872201204 L 93.45794560573995,185.77335323020816 L 93.29739995859563,185.92819268349558 L 93.16143705509603,185.64695641305298 L 92.7678723204881,186.0341097395867 L 92.39700732380152,185.92535723373294 L 92.40723012760282,185.5344924936071 L 91.47511102072895,185.23686841037124 L 91.07005517929792,184.78396712243557 L 90.83972940407693,184.86628049518913 L 90.3305990640074,184.46182055491954 L 89.7311393469572,183.3910544924438 L 89.6350705716759,182.32497373688966 L 89.37492928653955,182.1908578965813 L 89.50772569328547,181.2211874080822 L 89.84512013196945,181.16435604915023 L 90.08546597510576,180.90015025343746 L 90.43534617312253,180.98655078653246 L 90.84411921910942,180.75078522320837 L 91.13134735263884,180.80532182846218 L 91.71820475161076,180.22511876933277 L 90.76089329831302,179.56767463870347 L 91.0072594564408,179.0082439566031 L 90.68710874766111,179.14687394723296 L 90.56956152617931,179.01469881739467 L 90.79271214455366,178.68247775360942 L 90.32864090427756,178.3648117026314 L 89.85388925671577,178.41082739364356 L 89.79051474481821,178.1176111875102 L 89.09839969687164,178.74760321713984 L 88.5081881005317,178.68434573709965 L 88.34630438685417,178.47930937446654 L 88.19490913115442,178.5687125660479 L 88.07068135589361,179.07680352497846 L 87.52143108285964,178.99835829716176 L 87.54590350948274,178.4929442089051 L 86.99250463023782,178.34397133253515 L 86.67374542541802,178.45372203364968 L 86.07981472276151,179.0785632804036 L 85.00955004431307,179.31528911553323 L 83.98363764956594,179.24268945027143 L 83.05849522165954,178.20015861466527 L 82.2823979947716,178.42836015019566 L 80.60915963351727,177.70366918761283 L 80.29836203344166,177.37138148769736 L 80.28209419362247,177.00154990609735 L 81.08569412492216,176.71955937240273 L 80.87444401718676,176.40723287779838 L 79.57014015503228,176.8811348695308 L 79.56541202962399,176.43974009063095 L 80.07931126467884,176.31814343947917 L 80.31317438185215,176.0111051313579 L 80.29694596864283,175.64065338578075 L 78.63925303332508,175.66502765286714 L 76.36768155731261,175.32525556813926 L 75.6802581679076,174.98650886211544 L 74.13635141402483,173.4735361551866 L 72.33039157092571,170.57183249294758 L 71.09330409392715,169.19163507875055 L 70.8157936129719,168.45077701937407 L 70.83697188831866,167.68711896706372 L 71.05698079802096,167.47427309677005 L 70.92997406050563,167.22726530209184 L 70.72899884171784,167.19950903207064 L 70.7211053147912,166.3679302074015 L 70.35098665207624,166.29571671783924 L 69.68131264671683,165.74053300730884 L 69.47455476596951,165.13205107674003 L 69.12464139610529,164.86810166202486 L 68.63490061089396,163.96605034545064 L 68.80145245976746,163.55942496471107 L 68.5228221770376,163.40783770009875 L 68.28461849316955,162.99249148741364 L 67.7979138623923,161.24143281765282 L 67.78354447893798,160.18595848977566 L 68.71291856840253,156.2703562732786 L 70.0532986074686,153.52200689725578 L 71.0412026643753,152.56422442384064 L 71.95511857792735,152.2617893703282 L 72.23063426464796,151.80417159572244 L 72.66859850846231,151.4719099542126 L 73.39362062700093,151.21293557155877 L 73.56003320030868,150.72405130881816 L 73.93914249911904,150.3736404804513 L 74.49636022001505,149.3419252410531 L 74.87645335868001,149.2457332732156 L 77.3071953728795,146.21513538714498 L 79.10311791300774,145.46955509204417 L 79.57014015503228,145.64396609086543 L 79.80144073814154,145.5228856317699 L 80.51063891686499,145.64396609086543 L 81.24625821597874,145.30108887609094 L 81.87294837646186,145.35960503481328 L 83.98220056667924,144.82782277092338 L 86.49896004237235,145.21943199634552 L 87.18556364066899,144.75538385566324 L 87.61998261511326,144.7112234896049 L 88.00473141483963,143.98918207269162 L 89.17213790491223,142.90871403738856 L 89.05306031554937,142.5852422453463 L 89.53539976105094,140.60298572201282 L 89.27736314572394,137.77356592193246 L 88.02472736127675,133.84087783657014 L 87.46284025162458,133.69758264161646 L 85.90088072046638,133.8862834488973 L 85.17686332389712,133.07398081943393 L 83.14579687826335,131.85216145962477 L 81.83308494836092,131.77754624094814 L 82.38561058789492,131.58545207045972 L 82.83616001904011,131.63106095883995 L 83.71315541863441,132.13674656767398 L 84.62069901265204,132.38288447074592 L 85.70372946932912,132.9992680149153 L 86.0090146176517,133.35308235231787 L 86.56069375574589,133.46059247944504 L 87.38453637436032,133.370764227584 L 87.580430874601,133.1354685323313 L 87.93605985678732,131.51048898976296 L 88.23646171577275,131.18868954386562 L 88.98034065961838,130.96140984911472 L 88.60005662962794,130.55296974163502 L 88.97790829837322,130.33840375579894 L 88.12593208253384,130.09278997872025 L 88.00830306857824,130.4087270796299 L 87.41034281253815,130.61340237874538 L 87.09335635602474,130.45987823512405 L 86.81284908019006,129.79160106368363 L 87.06367090716958,129.61699784733355 L 86.98520114645362,129.19389389827847 L 86.62561211176217,128.65956752281636 L 86.97839496470988,128.24168212339282 L 87.3690025229007,128.12472286447883 L 87.43165082857013,127.85340098757297 L 87.20895153656602,127.52318093460053 L 86.89301670156419,127.45520637277514 L 86.58881479874253,127.76824157498777 L 85.02864852175117,127.36122268717736 L 84.76232677698135,127.13873984105885 L 84.44877470470965,126.30232770647854 L 83.55166331492364,125.89888895582408 L 83.24949648790061,125.31996853835881 L 82.65631107240915,124.95253542531282 L 82.2222472447902,123.97725695371628 L 82.38028267025948,123.43730351608247 L 81.15587020292878,123.47930369339883 L 80.91709696874022,123.22802019212395 L 80.92925995774567,122.62180459219962 L 80.55828860774636,122.38648432958871 L 78.85028081946075,122.09300702158362 L 77.72427342273295,121.33370537217706 L 76.49424275569618,120.07814760226756 L 76.3960010651499,119.3632424371317 L 75.02344565279782,118.98661827016622 L 73.57185815274715,117.9168102601543 L 73.31664757058024,117.58810376562178 L 73.21365361660719,116.73124857153744 L 72.77116382680833,116.22755017969757 L 72.61568493209779,115.41866032872349 L 70.25245777890086,113.93156173452735 L 68.53445945121348,111.9956344338134 L 68.08095386065543,110.41391990147531 L 67.66858948767185,110.01045423559844 L 67.63850874826312,109.56524111703038 L 67.86442258767784,109.46772777941078 L 67.9263624548912,109.1721517816186 L 67.46834529563785,108.86068838927895 L 67.1809995546937,107.93956509325653 L 66.53201827779412,107.48775222525 L 66.8527798075229,106.97749042324722 L 66.76470944099128,106.77273215632886 L 66.24185340479016,106.43759251013398 L 66.37881002575159,106.07194895297289 L 66.05377012677491,105.74456917773932 L 65.4093529228121,105.65423367824405 L 65.59847243130207,105.44916018843651 L 66.61342227086425,105.4586886158213 L 66.92428437061608,105.78739401884377 L 67.31943962164223,107.61902988888323 L 67.61991902440786,107.96646955702454 L 67.78678917884827,107.90540173277259 L 67.95226875320077,107.65540457889438 L 67.90955965220928,106.64015489816666 L 67.43219008482993,105.69695116207004 L 66.89959616214037,102.9430286558345 L 66.53563893772662,98.59599973354489 L 65.83162713609636,96.40438043046743 L 65.3828594069928,95.53421210497618 L 64.67976441979408,94.78432707674801 L 62.61305224150419,93.18095102068037 L 61.544985769316554,92.7055981438607 L 60.53957254625857,92.51704255864024 L 59.58836548961699,92.64210121426731 L 58.67605642788112,93.82127565611154 L 58.214699948206544,95.0763960108161 L 57.54832759127021,95.7823438309133 L 57.00019685551524,97.22733839973807 L 56.03217695839703,99.00862035434693 L 55.55659699998796,99.40172834414989 L 55.055986512452364,99.5408510165289 L 55.91814901120961,98.83926997706294 L 56.69587814249098,97.23638334590942 L 56.90671353414655,96.01079344656318 L 55.800412837415934,95.28954689670354 L 53.51077937707305,95.39335549995303 L 51.93736862204969,94.59167427290231 L 51.9957731757313,94.45318530220538 L 53.05928662605584,94.52926518209279 L 53.889285976067185,95.06467514578253 L 55.840795485302806,94.82241267710924 L 56.83611400425434,95.2544717984274 L 57.572229489684105,94.45126212853938 L 57.65595082193613,93.65132267866284 L 57.85813031159341,93.30796270538121 L 58.41052485629916,92.78318205103278 L 59.34615963883698,92.34655686747283 L 59.497174890711904,92.0875900182873 L 59.35789898224175,91.72301213257015 L 58.492121232673526,91.16322494018823 L 55.09114556759596,89.54832026548684 L 54.74164432473481,89.597512293607 L 54.430379871279,89.0829557152465 L 53.498815413564444,88.85018474888057 L 53.44745730049908,88.45421833079308 L 52.37503389082849,87.09353735949844 L 51.219464395195246,84.74296313337982 L 51.18085238710046,83.94702970702201 L 50.38269496336579,81.47393700201064 L 50.64135590009391,79.58874136768281 L 50.53276074305177,78.56415362749249 L 48.12902073375881,76.48115973453969 L 47.646951384842396,75.94013765174896 L 47.41240609996021,75.29841966833919 L 48.80939747393131,76.5333305541426 L 49.85083220526576,77.17422197572887 L 50.17986407503486,77.21289271209389 L 51.3774265255779,70.97951230872422 L 52.504263646900654,67.70515475887805 L 52.51770596392453,66.61730260495096 L 52.2979935798794,66.40851106960326 L 51.548931973055005,66.56212706491351 L 50.72848702222109,65.79973424039781 L 50.13331677950919,65.89824300259352 L 48.85212476737797,66.62475847732276 L 47.79435335844755,66.67694771662354 L 47.32804396376014,66.42640952859074 L 46.39635223709047,66.24889938347042 L 45.876273568719625,65.77883693948388 L 45.064635653048754,65.42499590106308 L 47.549040120095015,66.02254838682711 L 48.621704475954175,66.0062455246225 L 50.302847960963845,65.24686152860522 L 50.2140226457268,64.93707907106727 L 49.597478145733476,64.4104152880609 L 49.597478145733476,64.29528161790222 L 49.82460698671639,64.29677695874125 L 50.97379678487778,64.9118751809001 L 51.761691430583596,65.62656934466213 L 52.08358212560415,65.6786724217236 L 52.39289139397442,65.52086755353957 L 52.82102999277413,65.05168980825692 L 53.536077473312616,62.96635309793055 L 54.06521675735712,62.14177125226706 L 55.67884278483689,58.425775662995875 L 59.31789308972657,52.833190706558526 L 59.44094028882682,52.483337371610105 L 59.353643065318465,52.220608131960034 L 58.53030248731375,51.25654298905283 L 58.305305540561676,52.95048926770687 L 56.95369431748986,53.31621090415865 L 56.40033432841301,53.62598504591733 L 54.13597344793379,54.00679017137736 L 52.00494880229235,55.198075582273304 L 49.6731839813292,55.96189969033003 L 46.562888730317354,56.06356174964458 L 41.23768181912601,58.381133161485195 L 18.853681394830346,58.70239931717515 L 18.312095027416945,59.061763756908476 L 18.502827620133758,60.44042974803597 L 18.124305836856365,61.38240876886994 L 16.297040505334735,63.32591204531491 L 14.490378979593515,64.20764960441738 L 14.146589372307062,65.89819812588394 L 13.91170572116971,66.19004407897592 L 13.027507085353136,66.32645646482706 L 12.789091344922781,66.75449477508664 L 13.105212956666946,67.3091023620218 L 13.915237799286842,68.15828072000295 L 13.909350994974375,68.80829186551273 L 14.230182059109211,69.71443909779191 L 14.265502899885178,71.14151436835527 L 14.96779914945364,72.36869725491852 L 14.795315669849515,72.88575828913599 L 13.562029285356402,73.9067208589986 L 13.324202232062817,74.53352191206068 L 13.398964701220393,75.15048190578818 L 13.920535927638412,75.97301422059536 L 14.573382979258895,76.289446240291 L 14.886561188846827,77.52968326862901 L 14.914817873388529,79.77727026399225 L 13.958800181746483,81.45530946087092 L 14.46624306216836,83.1504401480779 L 13.5490783136338,83.66462542675436 L 12.15213866904378,84.00600512046367 L 11.660590162500739,83.75740531273186 L 10.874701237305999,82.82914744783193 L 10.36784703284502,82.81057186704129 L 9.306455476209521,83.73328351322562 L 7.631069784983993,82.83286250010133 L 5.935080278664827,81.19106778968126 L 5.429992113262415,80.9602537509054 L 4.935500204563141,80.96770034357905 L 4.499876379966736,81.34180735051632 L 4.334457056596875,83.28597786743194 L 3.734591281041503,84.21744287759066 L 3.5415039621293545,84.80696345120668 L 3.2854277957230806,88.80595189984888 L 2.5790107790380716,90.39990968257189 L 0.4803635720163584,92.22972871270031 L 0.35615192726254463,92.71089591644704 L 0.4697673134505749,93.25417744740844 L 1.0725765023380518,94.5614032605663 L 0.8262135684490204,95.10716736037284 L 0.0,95.92698795720935 L 0.35085379891097546,96.59616767335683 L 0.4356238376349211,97.42551459092647 L 1.250358121469617,98.49298029113561 L 1.2262222040444613,98.97244952432811 L 4.28315400518477,100.33865514304489 L 5.843868995085359,102.57968179602176 L 5.870310924947262,103.96671603433788 L 5.563740663230419,104.9007451152429 L 5.172821817919612,105.42925756331533 L 5.412331687286496,107.62951284460723 L 4.672359870746732,107.77564653754234 L 4.438064895570278,108.1093157492578 L 4.42452522367239,108.5419914694503 L 4.572872808203101,108.97625160589814 L 5.418218502774835,110.1607956988737 L 5.629554912447929,111.25029241573066 L 6.870494140312076,112.88913972955197 L 9.016824496909976,113.41800569649786 L 10.867048382759094,115.39614658616483 L 11.168452981859446,115.88953047525138 L 11.33151757903397,117.08607201743871 L 11.260875875130296,118.91341846995056 L 10.91355417855084,120.73693444486707 L 11.345645925030112,121.7315867561847 L 12.260455949231982,122.36685981974006 L 12.98217866383493,122.6204849248752 L 13.68506358936429,123.54568030592054 L 14.472129879519343,123.52619396615773 L 14.554545203223825,123.77062758151442 L 14.206634817644954,124.58845158666372 L 14.390303242951632,125.85969294421375 L 14.008249370381236,128.26275510247797 L 13.496097046881914,128.47768628317863 L 13.141122482717037,129.2999286716804 L 12.477090498432517,129.569146909751 L 12.11269705183804,129.92270042560995 L 11.818356631323695,130.38509549759328 L 11.720046931877732,130.91224557626992 L 12.21512751467526,131.96384433750063 L 12.70667603239417,133.7236454533413 L 13.992354983463883,136.20837345346808 L 14.260793458670378,137.961484731175 L 13.695659847930074,138.36394825670868 L 13.80162239074707,138.76100571081042 L 14.171313965693116,139.1735479561612 L 14.633428424596786,139.36669791676104 L 15.533521436154842,139.2779585774988 L 15.973266027867794,139.49196190107614 L 17.48146635480225,141.51808362733573 L 17.58095341734588,141.80963121633977 L 17.40199443511665,142.71316816005856 L 17.57094583660364,143.01991909649223 L 18.91254947707057,142.39937553275377 L 19.27517688460648,142.61089433263987 L 19.473562333732843,143.03551378007978 L 19.481803853064775,143.49976347386837 L 19.12977272644639,144.29604589100927 L 17.85704473592341,145.2903989488259 L 17.91650149412453,145.62045183219016 L 18.88664753176272,146.35097214765847 L 18.25381562113762,147.18610653001815 L 18.449257655069232,148.414956336841 L 18.642933662980795,148.7559083038941 L 18.48457851819694,149.4271005820483 L 18.666480904445052,149.66791869793087 L 19.80616700835526,149.85020931530744 L 20.467844277620316,150.68895588628948 L 21.479786647483706,151.4874417288229 L 21.559258557856083,151.99363971780986 L 21.384420352056623,153.19535955786705 L 21.55572647973895,154.0070247584954 L 20.742758233100176,156.40690993890166 L 20.612071085721254,158.8566041616723 L 18.887824894860387,160.37388674449176 L 19.004383696243167,160.63728077989072 L 20.534365214407444,161.02628401946276 L 21.065944012254477,161.92935028951615 L 22.332785185426474,163.35849745292217 L 22.00194655172527,164.4200001358986 L 21.722323155030608,164.7752502951771 L 20.667407089844346,165.3619548752904 L 20.594410659745336,165.64249245543033 L 20.77513568289578,166.36540758889169 L 20.17409253306687,167.3896803529933 L 20.41662904061377,167.9544783802703 L 20.39484784938395,168.73113664332777 L 20.84577737376094,169.5037695383653 L 20.59205593355,169.86040779855102 L 20.768660189583898,170.237082015723 L 21.17720469646156,170.49763627629727 L 22.026082480326295,170.7127477377653 L 23.317648246884346,170.72955119609833 L 23.736200323328376,171.06219601258636 L 23.86100066639483,171.3191569391638 L 23.517211047932506,172.5257406476885 L 24.87235434912145,173.13597892038524 L 25.75890769995749,174.2916362984106 L 25.694741500541568,174.81371718645096 L 25.16963817179203,175.75839783623815 L 24.193605341017246,176.5635360851884 L 23.757981514558196,177.13939581625164 L 22.983277522027493,179.03468595072627 L 22.601223660632968,179.48085448239 L 21.306714480742812,179.55242115352303 L 20.651512702926993,180.22620743047446 L 20.394259173423052,180.29771638475358 L 19.175689823925495,179.9783777585253 L 17.8040634598583,180.66515190619975 L 17.078808654099703,180.70338341593742 L 16.90514780022204,182.6212413040921 L 17.047608580440283,182.9744908241555 L 17.371383035555482,183.07065751124173 L 19.573049385100603,182.49018964357674 L 20.61972394026816,183.07728932145983 L 21.645205959677696,182.68924816232175 L 22.117327999323606,182.66602687444538 L 23.644954793155193,183.261303326115 L 24.100593769922853,183.11210558377206 L 24.991856563836336,182.4752585273236 L 25.480461666360497,182.3192969681695 L 25.91490812972188,182.415531671606 L 26.31403373926878,182.71246885322034 L 26.594834500923753,183.18173418566585 L 26.56657782755792,184.61955648567528 L 26.87681263498962,185.4368630759418 L 27.157024707645178,185.79400216508657 L 27.629146737977862,185.85681800357997 L 27.913479598239064,186.35919199790806 L 27.91053618490696,186.66478030011058 L 27.537312529981136,187.17167042102665 L 27.35599884390831,187.9125213874504 L 26.918020291253924,188.3049831930548 L 24.320171723142266,188.72035101242363 L 21.980754047632217,188.70387168135494 L 20.902879428118467,188.85052743274719 L 19.94332964718342,188.69398393295705 L 19.504173731431365,189.10917863063514 L 19.46355476230383,189.39575289282948 L 20.075782833620906,189.80240559764206 L 20.148779252544045,190.1019311454147 L 19.83206896483898,190.81250876560807 L 20.136416966095567,191.84615847934037 L 19.525366246700287,193.392037040554 L 20.625022070482373,194.08537696115673 L 21.679938135668635,195.73716588877141 L 21.790610130876303,196.26695668604225 L 21.00648724474013,197.53299461305141 L 20.629142824560404,197.8137427503243 L 20.70684869401157,198.71418407931924 L 20.227073810994625,198.56580092106014 L 20.018092116340995,198.66689967550337 L 19.975707096979022,198.92448944132775 L 20.157609470188618,199.42968292627484 L 21.229008609429002,200.0860306415707 L 21.170729203149676,201.379476075992 L 20.18645483069122,202.29114647116512 L 19.35347144305706,202.37398208118975 L 19.26575799100101,202.60133678186685 L 19.526543609797955,203.00719172600657 L 19.410573486238718,203.57347489055246 L 18.984368555247784,203.782703185454 L 18.629982678219676,203.6626864047721 L 18.42747646383941,203.87189503386617 L 18.636458169668913,204.13617800921202 L 18.58877502195537,204.68396608252078 L 18.914904214441776,205.05977991595864 L 19.035583781078458,205.77697750367224 L 20.136416966095567,206.12162274774164 L 20.64032776840031,206.01322666555643 L 20.756297893822193,206.19441915675998 L 20.676825972273946,207.2889294931665 L 20.844011345878243,207.83975066803396 L 20.534365214407444,208.28857193049043 L 19.489456709474325,208.72911547962576 L 17.8040634598583,208.9291487382725 L 17.296031892299652,209.16300543956459 L 16.44303334131837,210.14780094195157 L 16.2240440659225,210.82576914783567 L 16.632588582113385,212.92426477652043 L 16.534867560490966,215.1624207580462 L 16.304693350568414,216.15388616267592 L 16.417131384834647,216.64363609533757 L 16.225221429020166,217.12993874866515 L 16.28467819839716,217.6799330143258 L 16.518973173573613,218.1002114797011 L 17.469692735001445,218.85242068674415 L 17.059382189065218,219.5849024867639 L 17.224801501259208,220.58618039358407 L 17.120016310364008,220.8777593439445 L 16.53133548051119,221.4471209216863 L 16.392995478585362,221.83871129341424 L 16.495425932109356,222.2126439427957 L 17.244816664606333,223.22392708435655 L 17.461451202630997,224.03727778140455 L 17.8040634598583,224.34369641542435 L 18.172577660530806,224.33417190425098 L 18.508125737309456,223.6894630100578 L 18.784217055886984,223.54172319266945 L 19.23455790616572,224.04362939856946 L 20.500810403376818,224.41671458538622 L 20.920539842918515,224.97052200511098 L 20.882864264771342,225.76814930699766 L 20.414863001555204,226.4653402240947 L 20.486093379557133,227.18894101586193 L 20.262394661083817,228.2867767289281 L 19.546558750793338,229.5302394554019 L 19.40880743600428,230.60810379032046 L 18.7600811496377,231.56188545003533 L 18.75949246250093,232.0203167712316 L 19.587766418233514,232.86730061192065 L 19.190995521843433,233.69783281441778 L 19.285184456035495,234.85437707509845 L 19.010270511731505,235.90289385151118 L 19.358769573271275,237.69910845719278 L 19.175689823925495,238.75087173003703 L 19.38172811642289,238.94795312266797 L 19.57952487654984,240.27644847892225 L 19.423524459823966,241.48305697366595 L 19.608370246365666,242.3983534788713 L 18.933741992339492,243.7284775590524 L 18.422178335487843,245.67995741218328 L 19.58953245729208,247.24150689132512 L 19.65075526572764,247.7935205930844 L 19.490045396611094,248.24142080452293 L 20.235315341502428,250.26610227581114 L 21.000011751428246,250.16403703205287 L 21.629311583936214,251.6182635165751 L 21.485084775835276,252.14935986045748 L 21.271393628790975,252.2481376454234 L 20.847543423995376,252.0305050117895 L 19.923903170973063,253.32018108759075 L 20.161730237305164,254.7221476668492 L 20.034575179219246,255.06694958452135 L 20.18645483069122,255.2639266019687 L 20.573218144476414,255.30547156184912 L 21.519228264689445,254.97614260111004 L 21.664632435888052,255.54547572880983 L 21.55572647973895,256.30818879883736 L 22.283335998654366,257.78892205189914 L 21.509220695123076,258.9225906264037 L 21.170140516012907,260.51128505915403 L 21.401492100208998,261.29323380161077 L 21.150714050978422,261.7183873131871 L 21.170140516012907,262.36037064995617 L 21.450352612882853,262.8477034326643 L 22.269796339794993,262.13419387862086 L 23.384169183671474,262.15864784643054 L 23.571958363056183,262.35578647628427 L 23.661437856033444,262.8889404060319 L 23.133979823440313,263.3806015374139 L 24.04878985695541,264.8343561263755 L 23.879249768331647,265.5840734122321 L 24.52091188542545,266.1855853796005 L 24.613923467695713,266.5417583975941 L 24.728716228157282,267.7478745467961 L 24.406707800924778,271.22600396722555 L 24.75226346962154,272.52351542562246 L 26.12094642035663,273.40677313506603 L 26.61897041834891,273.9705164367333 L 27.566746577620506,274.15785949490964 L 28.756176218390465,274.9204814871773 L 29.933832248672843,274.9114238936454 L 30.338255988433957,275.50754688307643 L 30.74503445625305,275.7262914152816 L 30.63583416119218,276.4319958528504 L 31.19537529349327,277.57850338332355 L 31.031722020357847,278.1144150616601 L 29.872020764276385,279.1072348607704 L 29.606820041313767,279.61230973433703 L 29.08289409801364,282.3768995804712 L 29.209166131913662,283.3432441521436 L 29.039920391514897,284.25633864849806 L 29.22329447977245,284.7425016751513 L 28.309956146404147,286.6341689741239 L 28.226657796651125,287.2520399177447 L 27.789856618270278,288.1021444424987 L 27.199998416006565,290.01016903389245 L 27.13465482927859,290.9606726812199 L 27.85049075074494,291.7602852592245 L 27.693312959745526,292.3425265084952 L 27.96704955212772,293.45414406526834 L 27.089326418936253,295.2179012969136 L 26.965703438967466,295.9462742032483 L 27.639154318720102,297.06008744891733 L 27.720980955287814,298.22591876611114 L 28.292590057477355,298.65263247303665 L 27.71803755313158,299.2488638777286 L 27.530248362571,300.08952363952994 L 26.948043001815677,300.5228724256158 L 27.468436866998672,300.47866108920425 L 27.76218861155212,300.8205151958391 L 27.38190078921616,301.24179074540734 L 27.49904828891158,301.801274927333 L 27.12464725971222,302.14712771307677 L 27.084616966545582,302.4207886001095 L 27.58146360144019,303.5397285092622 L 27.65210530348122,304.5664958246052 L 27.82753218524158,304.72798791434616 L 28.475964145734906,304.4446268938482 L 28.65345141477883,304.5753050968051 L 28.522764267399907,306.29615665227175 L 28.814749972894788,307.4594630068168 L 29.19415477104485,307.5561055075377 L 29.63772578909993,307.4433550890535 L 30.048625022172928,307.6263856124133 L 30.35827114060521,308.5805787453428 L 30.556656578555703,308.6478678379208 L 31.50413839891553,308.18114778306335 L 32.51284302957356,308.44745120964944 L 32.62734145112336,308.9374565612525 L 32.35831431299448,309.58363745268434 L 32.60556025989354,310.5507385181263 L 33.16245234012604,310.85150644090027 L 33.81471071578562,311.5563839171082 L 34.076085010543466,312.28268163558096 L 34.48757293075323,312.28851341549307 L 35.01355925016105,311.99396978411824 L 35.55632299371064,312.15437454450876 L 36.2915853690356,313.4731869837269 L 36.328672260046005,313.870708684437 L 35.99959966354072,314.90098122600466 L 36.328672260046005,315.52188473846763 L 35.905999418348074,315.6541636567563 L 35.91218055970967,316.152612188831 L 36.62889949604869,316.8991411374882 L 35.8974635489285,319.0821229638532 L 36.0490488614887,321.23193117138 L 35.6249043084681,321.86233977228403 L 35.325265757739544,323.00513906404376 L 35.819463327527046,323.31700425967574 L 35.68995354324579,323.66486321017146 L 35.28523546643555,323.9173907022923 L 34.31538376584649,324.13668304216117 L 34.104930371046066,324.676076490432 L 34.514946576207876,325.3794972933829 L 36.295117458328605,325.9730288507417 L 36.670107152312994,328.94322150200605 L 37.54724160768092,331.0958989961073 L 37.09631208330393,331.8254536939785 L 37.58786058798432,332.0833382178098 L 37.826276330277324,332.51588082127273 L 38.10413368791342,334.04565828852355 L 38.98244550637901,334.97483728360385 L 39.397465504705906,335.9532385133207 L 39.92963297851384,336.40573614183813 L 40.04354272596538,338.1085077775642 L 40.239867797121406,338.3037243038416 L 40.82207313552499,338.4134301170707 L 41.70686044730246,338.1997079104185 L 41.812528662383556,338.4191288296133 L 42.648749800398946,338.90626580361277 L 42.14336729794741,340.1914966655895 L 42.342047084122896,342.32613889686763 L 42.23049206286669,342.69809342268854 L 41.72981901280582,342.7250626273453 L 41.869630705565214,343.8827320775017 L 41.676249047741294,345.2460655430332 L 42.293775260448456,345.87051579821855 L 41.891411896795034,346.74786718562245 L 42.14689938724041,347.7913469960913 L 42.07978977449238,348.17429020348936 L 42.50540601834655,348.5189741663635 L 42.62579125724733,349.53831131383777 L 43.040811244398355,350.1322844121605 L 43.118222776800394,350.61317038722336 L 42.819467240944505,351.8391822660342 L 42.55809294618666,352.16308909095824 L 41.77838517539203,352.5375844715163 L 41.37661049887538,352.47423825599253 L 40.88329595513642,351.77157319989055 L 40.585423443466425,351.70818620175123 L 40.23103756830096,352.52773082628846 L 39.452507158741355,353.47190157324076 L 39.64942090585828,354.5305663123727 L 39.43278634548187,355.2554847486317 L 39.68650779686868,355.6655154535547 L 40.21543754264712,355.8774968497455 L 40.69697846472263,357.4528466798365 L 39.70534558594227,358.17600209545344 L 38.925343465059996,359.3257097834721 L 38.63659551180899,361.09644136950374 L 38.756392063573,361.56736093293875 L 39.13049874268472,361.6176560623571 L 38.90091320872307,361.97664682753384 L 38.8673583958298,362.7487456910312 L 38.73461086116731,363.0236786827445 L 38.110609179362655,363.4324742341414 L 37.90486522577703,363.8467105347663 L 37.938420025631785,364.8405820829794 L 37.6328946724534,365.26130473427474 L 37.03361756168306,365.5161754414439 L 36.763413060456514,366.93579411972314 L 36.88056054711342,367.4030731972307 L 36.267155112698674,368.57188234850764 L 36.44670277275145,368.87675732560456 L 37.456290416419506,368.65661599859595 L 37.946072882041335,369.8027253905311 L 37.9145784471184,370.0608173701912 L 37.130161222070456,370.86804699897766 L 35.820640690624714,371.0288750920445 L 35.4120961856097,371.4557999270037 L 35.18604274094105,372.0003311401233 L 35.15955210849643,372.89074047561735 L 34.69361122325063,373.51904300414026 L 33.98101305216551,375.0787389315665 L 34.10375301912427,376.89178250543773 L 34.381021689623594,377.8131763311103 L 34.21795709244907,378.5961047047749 L 34.47050118073821,379.1251320214942 L 34.59441849775612,380.350408536382 L 35.233725890517235,381.3600222636014 L 35.37059419229627,381.4576396411285 L 35.594881596043706,381.34764770045877 L 35.737048003822565,380.7659059660509 L 35.87627103365958,380.6008240431547 L 36.0443394202739,380.65035088919103 L 36.828756634145975,382.09128194116056 L 37.66291739419103,382.1613617045805 L 36.99564765766263,383.0226138746366 L 36.83523212559521,383.46743369009346 L 37.060108207166195,385.2903913082555 L 37.55342276208103,386.28786676283926 L 37.555483140051365,386.98344615101814 L 38.01789194718003,388.06166827399284 L 38.226284954696894,389.07338719815016 L 38.455576149746776,389.44779462646693 L 38.97714737802744,389.8057027719915 L 39.05985704064369,390.0720202066004 L 38.7240146137774,391.06169248744845 L 39.02571354061365,391.20359704084694 L 40.355543572455645,390.6331552444026 L 41.10287390649319,390.92796047218144 L 41.70038495399058,391.5255534183234 L 41.94409883581102,392.85209569055587 L 42.420047303661704,393.24584315530956 L 42.57045525498688,393.73615738842636 L 42.41121707484126,394.20042329188436 L 42.05830290913582,394.5542976912111 L 41.625916834920645,394.7121490696445 L 41.0042698699981,394.6903776144609 L 40.923031909391284,394.9135178811848 L 41.51995428092778,396.17272788193077 L 41.660943349823356,398.4216000242159 L 41.5072976462543,399.5676387567073 L 41.004858545958996,400.25207337830216 L 41.05872284807265,401.3369537256658 L 40.476811837404966,403.67839970998466 L 40.213965840637684,404.21887482330203 L 40.23633569665253,405.0750786848366 L 40.344947315752506,405.3410111758858 L 40.92362059652805,405.6959552336484 L 40.819129744544625,406.16007433179766 L 41.58824125863612,406.7656155191362 L 41.71392462588847,407.0891778031364 L 42.47243989445269,407.2711472688243 L 42.93308265134692,407.67004576604813 L 42.946033623069525,409.7381063532084 L 43.74369618110359,411.6323902467266 L 43.508812518790364,413.2033479809761 L 43.865553110837936,414.0176515756175 L 44.362988421693444,414.4950069654733 L 44.43186407350004,416.0010687056929 L 44.652030711993575,416.7762319743633 L 46.28032193146646,418.46294207591563 L 46.50343197211623,419.35695667844266 L 46.66679090820253,419.491877197288 L 47.30315490812063,419.1725885095075 L 48.53967900946736,421.4474149681628 L 48.63681135699153,421.92486806213856 L 49.924550695344806,422.5461117848754 L 50.67482443153858,425.3409504657611 L 51.22730140760541,425.8330309940502 L 51.03921786695719,426.55355140101165 L 51.76565003581345,427.6960561228916 L 51.89280509389937,428.8628471130505 L 52.8720756880939,429.6998482523486 L 53.42337530106306,430.98555997014046 L 53.56348133087158,432.2224579099566 L 54.20632082410157,433.2228459920734 L 54.77616387605667,433.4238977879286 L 55.29655773937702,433.3974452195689 L 56.084212716668844,432.82727350946516 L 56.808878833428025,432.6790710501373 L 57.13324197754264,433.3881867043674 L 57.58181678690016,433.77831515017897 L 59.18420603685081,434.19345393776894 L 59.71813956089318,434.18684439267963 L 60.00423845089972,436.06537685822695 L 56.98783780634403,440.49574795365334 L 56.70115022920072,441.6837618248537 L 56.71704461611807,442.684208589606 L 56.930735763162374,443.6393213784322 L 57.261574398726225,444.07660089526325 L 58.69972169958055,445.2171197766438 L 58.823344668373466,445.66180182714015 L 57.804338140413165,450.59422537870705 L 57.110872097313404,451.75589478667825 L 57.00314350426197,452.7065165787935 L 57.16032129712403,452.89839647430927 L 56.61461415141821,453.68002283666283 L 56.57988198660314,454.6098810136318 L 57.60418664291501,457.80332765262574 L 58.0827841758728,458.2833309546113 L 58.93519403785467,458.29113463126123 L 59.30606297776103,458.5603377427906 L 59.29782143421471,458.8125915825367 L 58.43010587245226,459.84718001261353 L 58.50015888735652,460.4382475344464 L 58.13929754123092,460.90704365912825 L 58.09396910853684,461.2692569941282 L 57.15855524688959,461.8442104430869 L 56.89835831336677,462.5149366213009 L 56.962524523958564,463.00255586765707 L 57.83789295330644,465.10949717927724 L 57.99389337003231,465.1470491103828 L 58.339449018239975,464.7650133399293 L 58.95285446383059,466.3779960637912 L 59.15594935230911,466.4957333179191 L 59.75993590429425,466.40646082442254 L 60.69770448282361,467.818702429533 L 70.17782079987228,471.9383050650358 L 70.74648648872972,472.25287321582437 L 71.00374003127217,472.62408733926713 L 74.71537274681032,485.0449112439528 L 72.66558604873717,487.2523677619174 z" /><path fill-rule="evenodd" fill="#D2EBD9" stroke="#A6A6A6" stroke-width="0.25" opacity="1" d="M 56.03111399337649,3.289820942096412 L 56.16545066609979,3.9350195666775107 L 56.169381303712726,5.012490256689489 L 56.96850396692753,3.7554716048762202 L 57.00975797511637,3.44614446349442 L 56.792826764285564,3.3075527902692556 L 56.03111399337649,3.289820942096412 z" /><path fill-rule="evenodd" fill="#D2EBD9" stroke="#A6A6A6" stroke-width="0.25" opacity="1" d="M 56.17070187442005,5.332496075890958 L 56.29201704822481,36.48333083745092 L 56.333205753937364,46.59872633032501 L 56.809513783082366,46.16303869150579 L 57.12795767746866,45.383121993392706 L 58.60568565316498,42.928430976346135 L 59.93508460186422,41.467758828774095 L 60.45284562371671,40.170783683657646 L 60.91034798324108,37.862529288977385 L 60.85657870955765,37.556739933788776 L 60.28829310461879,39.5130483917892 L 60.01017118617892,39.67825967632234 L 59.50063547492027,39.498519917950034 L 57.55098991468549,37.517894143238664 L 57.162725042551756,36.63627144135535 L 57.062748001888394,35.97109645791352 L 57.20883731357753,35.27674684859812 L 58.34117033332586,34.149511435069144 L 60.11003264784813,33.72145174536854 L 61.32600264437497,33.84410761948675 L 62.21375558525324,33.270643286406994 L 62.61294022761285,32.28744183201343 L 62.54289438948035,31.628370706923306 L 62.939674546942115,29.840154508128762 L 63.66926797106862,28.34175174869597 L 65.83194868825376,25.922333292663097 L 66.87227258272469,25.005819466896355 L 66.80029724538326,24.430748650804162 L 67.35426184721291,24.517345817759633 L 68.5151024647057,23.820553805679083 L 68.6177319418639,23.603938073851168 L 68.30132738314569,23.51989529002458 L 68.1789340544492,23.180760237388313 L 68.36388182081282,22.433586205355823 L 71.48249971307814,19.608532207086682 L 73.27002475969493,18.256913624703884 L 74.56321832723916,17.62550923228264 L 75.93046389892697,16.517152216285467 L 77.53350307792425,15.795305268839002 L 78.27226112410426,15.045829208567739 L 78.81573232449591,13.907634458504617 L 79.9527582116425,12.77558122202754 L 80.24877030216157,12.281774474307895 L 80.6578727029264,12.052716639824212 L 80.77293321490288,11.573498543351889 L 81.97294271923602,11.187862051650882 L 82.99144197627902,10.520970473065972 L 86.90222960151732,8.5443962700665 L 87.53170092403889,8.409888790920377 L 88.04065492004156,8.006230638362467 L 89.70518477074802,7.711367469280958 L 92.45298007503152,8.140805984847248 L 93.33229312114418,8.057500108145177 L 94.13419694453478,8.416294424794614 L 96.04115206375718,8.01584392786026 L 95.45108062960207,7.1630176939070225 L 95.10389799065888,6.110158857889473 L 95.26752345636487,5.692483242601156 L 94.7933340780437,5.179728966206312 L 94.88511267118156,4.581367528066039 L 94.1712791994214,3.963233466260135 L 93.8727670237422,2.743268419057131 L 93.56869251281023,2.4884034981951118 L 93.18164644576609,2.5126030519604683 L 93.08198788203299,3.1415334111079574 L 92.77559572458267,3.333339123055339 L 92.38669553771615,3.325280988588929 L 92.12804679200053,3.1238011494278908 L 92.21936185657978,2.7352043222635984 L 91.96581191755831,2.362554077990353 L 91.04339074529707,2.456136311404407 L 90.65031881444156,2.339963615871966 L 90.42689821310341,1.7862973101437092 L 90.03568039089441,1.594119113869965 L 89.56751688756049,2.0575288515537977 L 89.46878537908196,2.833580751903355 L 88.88816313073039,2.900888942182064 L 88.42043088003993,2.7084765061736107 L 87.66601282171905,3.021286390721798 L 87.38597379811108,2.7935883216559887 L 86.65090088918805,2.976276176981628 L 86.40788382478058,2.8056834219023585 L 86.82628907449543,2.2255064994096756 L 86.34184463135898,1.582382339052856 L 84.93263500742614,1.1225126376375556 L 82.65421181730926,1.1334817335009575 L 82.03263302892447,0.9249414503574371 L 82.03275072947145,0.28354568779468536 L 81.13223026879132,0.0 L 80.10886253230274,0.0192868085578084 L 79.08862892910838,0.4158888068050146 L 78.75154931098223,0.6212127106264234 L 78.1299579590559,1.4228961523622274 L 77.12085702456534,2.173742700368166 L 75.49480000883341,2.449682713486254 L 74.52139074727893,2.9142081094905734 L 71.083865435794,3.1705490043386817 L 68.71430916152894,3.520265022292733 L 67.26717403717339,3.4010242335498333 L 64.25794881209731,3.7603038968518376 L 62.59851776994765,4.084000397473574 L 62.07426734641194,4.521828559227288 L 60.988220719620585,4.628030098043382 L 60.0416960939765,5.150786306709051 L 59.7436474468559,4.158061727881432 L 57.55533069930971,3.963233466260135 L 57.051011983305216,4.228896579705179 L 56.17070187442005,5.332496075890958 z" /><path fill-rule="evenodd" fill="#D2EBD9" stroke="#A6A6A6" stroke-width="0.25" opacity="1" d="M 110.3206025250256,6.37992553319782 L 110.55051251500845,6.317309242673218 L 111.03536303900182,6.6752798752859235 L 111.18971794098616,6.37992553319782 L 110.85041528381407,6.065188890323043 L 110.52640905231237,5.35818549990654 L 110.00725743919611,5.197415621951222 L 109.42784716188908,4.69882327131927 L 109.15390197560191,4.774436328560114 L 109.4723458699882,5.509279677644372 L 109.28137224167585,5.837087973020971 L 108.80115700140595,5.3517553228884935 L 108.10540114156902,5.361400558613241 L 107.83145595528185,4.9095567325130105 L 106.49510408937931,4.566885483451188 L 106.26380350627005,4.2627019211649895 L 105.96529133059084,4.504126936197281 L 106.1836131233722,5.449809856712818 L 105.80212939158082,5.303527373820543 L 105.50547132641077,5.438558298163116 L 103.9786093570292,4.138742050155997 L 103.37741325236857,4.087220590561628 L 103.53269520960748,4.504126936197281 L 103.27868174389005,4.45584777649492 L 103.06592228636146,4.233726007863879 L 103.21378778666258,4.087220590561628 L 102.52869307249784,3.681372908875346 L 102.13283997960389,3.006113369949162 L 101.93630400300026,2.943231971003115 L 101.19187767989933,3.006113369949162 L 101.13161901757121,3.1818325500935316 L 101.43291235342622,3.681372908875346 L 100.40712440013885,4.3576711332425475 L 100.46321130916476,4.730999910272658 L 101.26789630763233,5.584816062822938 L 102.17177634313703,5.033397015184164 L 103.09651515074074,5.35818549990654 L 103.29954051785171,5.570352199487388 L 102.55743182823062,6.53403705637902 L 102.87124042958021,6.662440644577146 L 103.37741325236857,5.975241381675005 L 103.77233930304646,5.840301105752587 L 104.41247178055346,6.105340780690312 L 104.67065700143576,5.303527373820543 L 104.82640248537064,5.438558298163116 L 104.77216968499124,6.548483490943909 L 104.9042752198875,6.851798285730183 L 105.36177757941186,6.5308267110958695 L 105.56897469982505,6.662440644577146 L 105.95602076686919,6.432904723100364 L 106.49510408937931,6.51477475091815 L 106.91737830266356,6.042702957056463 L 107.12364835850894,6.235418988391757 L 107.0619991030544,6.5966363763436675 L 107.24092099443078,6.662440644577146 L 107.59783773683012,6.37992553319782 L 107.98720143921673,6.662440644577146 L 108.29776535183191,5.975241381675005 L 108.77241825684905,6.307675535790622 L 110.02857973985374,6.665650461800396 L 110.40542818792164,6.51477475091815 L 110.3206025250256,6.37992553319782 z" /><path fill-rule="evenodd" fill="#D2EBD9" stroke="#A6A6A6" stroke-width="0.25" opacity="1" d="M 132.88979172892869,269.2080426765606 L 133.1943297777325,268.8565910626203 L 133.40801628865302,268.13179304730147 L 133.33338824287057,267.6973881116137 L 132.85270947404206,267.77638443373144 L 132.5050633084029,268.10666716936976 L 131.52701875381172,268.52894009742886 L 130.8525851946324,269.40881855320185 L 130.71630789153278,269.9249205319211 L 132.49579274468124,269.4852943457663 L 132.752587383613,268.9749503489584 L 132.88979172892869,269.2080426765606 z" /><path fill-rule="evenodd" fill="#D2EBD9" stroke="#A6A6A6" stroke-width="0.25" opacity="1" d="M 130.8539757747203,270.8704398628324 L 130.68849620223045,270.6985914269462 L 130.34316767007113,270.9110110299662 L 130.47202851623297,271.18064962606877 L 131.37498149834573,271.1329310918227 L 131.80235452018678,270.9969212030992 L 132.20562407933176,270.5243271170184 L 131.71613827347755,270.2688456112519 L 130.8539757747203,270.8704398628324 z" /><path fill-rule="evenodd" fill="#D2EBD9" stroke="#A6A6A6" stroke-width="0.25" opacity="1" d="M 130.0637041889131,250.8693316373974 L 130.7620381321758,250.8212688844651 L 131.50796689279377,249.66224796138704 L 131.40458391420543,249.22075798548758 L 130.59445145353675,248.02635652199388 L 129.99489637464285,248.13075415417552 L 130.07093203254044,248.58760124258697 L 129.94489067047834,248.84571039490402 L 129.62801032699645,248.6478732265532 L 129.31325383670628,248.65025337412953 L 129.12928812392056,248.83749755006284 L 129.5655900388956,249.533618289046 L 129.8639359753579,250.85673310421407 L 130.0637041889131,250.8693316373974 z" /><path fill-rule="evenodd" fill="#D2EBD9" stroke="#A6A6A6" stroke-width="0.25" opacity="1" d="M 130.47765121795237,254.50362097937614 L 131.37054764293134,254.26914222631603 L 131.66582635045052,253.84122978057712 L 131.59172680787742,251.32757574226707 L 131.3550622407347,252.02586326096207 L 130.31568939052522,253.75280337408185 L 130.47765121795237,254.50362097937614 z" /></g></g></g></svg>