<svg xmlns="http://www.w3.org/2000/svg" xmlns:xlink="http://www.w3.org/1999/xlink" width="500.0" height="256.3346709012985" viewBox="0.0 0.0 500.0 256.3346709012985" preserveAspectRatio="xMinYMin meet"><g transform="matrix(1,0,0,-1,0,256.3346709012985)"><g><path fill-rule="evenodd" fill="#D2EBD9" stroke="#A6A6A6" stroke-width="0.25" opacity="1" d="M 486.67299032211304,215.96124458312988 L 487.28276702202857,211.32703687995672 L 486.7949456349015,209.5768826752901 L 484.6336257942021,207.55882329121232 L 484.14580440707505,206.6255217473954 L 483.80026418715715,205.30896706413478 L 482.0861140284687,202.83018067199737 L 481.42213487811387,201.49929675739259 L 480.5684474185109,194.81445407308638 L 480.12127780355513,193.44999207928777 L 480.0806260332465,192.36633763555437 L 480.28388495370746,191.77233912516385 L 480.79203226044774,191.46389553695917 L 482.1132151875645,191.32370014488697 L 483.1769368760288,190.533581122756 L 483.84769133105874,189.78180904407054 L 484.14580440707505,188.9995756112039 L 483.6173311844468,187.49150817282498 L 484.0780514124781,187.0789063544944 L 484.80978349223733,184.9909470938146 L 485.9073817115277,184.39272822067142 L 486.6323384847492,183.73095194529742 L 487.03885632939637,183.5909719467163 L 487.28276702202857,183.24994608946145 L 487.28276702202857,181.2246269006282 L 488.305836873129,177.68990383017808 L 488.6175005622208,175.9107662215829 L 488.62427586875856,173.77917000092566 L 489.09177140146494,172.24772130232304 L 490.74494393728673,170.42988857068121 L 491.64605847373605,169.87654449045658 L 492.69622954912484,169.71410635951906 L 493.38730985857546,169.26996633317322 L 494.6813916284591,166.9077986823395 L 495.5350790861994,165.99215359147638 L 494.86432463116944,165.16288988664746 L 494.1529184039682,162.3439050745219 L 495.19631423801184,161.5253762472421 L 494.8439987786114,159.91658062674105 L 496.34811477549374,159.09084685053676 L 498.4687828440219,158.333620631136 L 500.0,156.95368424616754 L 495.88739454746246,153.49663577228785 L 496.5784748569131,152.69218608736992 L 496.5513736978173,152.08513897750527 L 496.2329347021878,151.47310694865882 L 496.0500016976148,150.6335801044479 L 495.1353365499526,149.77396813966334 L 495.2030895445496,149.3492725128308 L 496.0093499273062,148.84625662583858 L 495.738338008523,147.1050450252369 L 495.3589213900268,145.8241586079821 L 494.7084927856922,144.83655615150928 L 493.63122055120766,143.9829783262685 L 491.36149601079524,143.47544546239078 L 490.54168501496315,143.04370385035872 L 490.5620109345764,141.97839371673763 L 490.9753040187061,141.5392078915611 L 492.86561194062233,140.51206541340798 L 493.4957146253437,138.68794968537986 L 493.92255832254887,138.06996806617826 L 492.9401402436197,136.97292089741677 L 493.0282190926373,135.2937638675794 L 493.4686134662479,133.31781054474413 L 493.59056878089905,130.1337096588686 L 493.9157830160111,129.15167662966996 L 494.47135739959776,128.4089829036966 L 495.2166401576251,127.94076408911496 L 493.86835600435734,127.31150571070611 L 489.09177140146494,126.66974239517003 L 483.8951184079051,125.36381592135876 L 481.408584266901,125.82173261605203 L 480.45326741039753,128.37373912520707 L 479.5860293395817,127.63619321212173 L 478.29872287623584,125.58018905110657 L 477.57376603782177,124.86317399237305 L 476.9978657364845,124.72481440752745 L 473.3053288049996,125.30846622027457 L 472.6006978843361,125.74121688306332 L 471.8689657393843,126.50365220755339 L 471.36759373918176,127.51034292485565 L 470.7713675852865,129.41353349015117 L 469.9447813499719,129.99520629830658 L 464.69392597302794,132.04796116892248 L 461.943155284971,132.3956264415756 L 459.5379246864468,131.3023248175159 L 459.14495745301247,130.360359611921 L 459.26013752631843,129.07614344358444 L 458.90104676038027,128.23780108895153 L 458.34547237865627,127.69911962281913 L 455.7302076164633,126.31240358017385 L 454.5174294542521,125.33865687344223 L 454.21254107169807,125.40155472699553 L 453.5079101510346,126.18658599629998 L 453.0268640704453,125.6984433401376 L 451.4549950771034,123.34896956477314 L 452.64067207835615,122.66244414728135 L 456.31288322247565,121.17151973862201 L 458.12866290844977,121.5787777658552 L 462.4445272181183,119.80920225381851 L 464.6058471240103,120.18116416037083 L 466.03543481975794,119.52270957268775 L 467.1804600507021,117.97994773834944 L 467.7360344324261,116.0157396029681 L 467.3701683599502,114.13262026757002 L 468.48131712526083,113.5050687789917 L 469.3892069682479,112.57894397713244 L 469.89735420793295,111.36193590145558 L 469.8228259719908,109.86679436080158 L 469.12497035600245,108.62786536104977 L 467.2143365815282,107.8204665305093 L 466.4690538235009,107.01068881060928 L 466.7332903686911,103.10400371160358 L 463.3591923676431,100.45948178693652 L 456.31288322247565,97.23081717267632 L 455.5269487593323,98.51202715281397 L 454.65293544717133,99.12271690648049 L 453.83312438614666,98.8974539982155 L 453.169145302847,97.67119680531323 L 453.33175245299935,93.95918570458889 L 453.18947115540504,93.67414278443903 L 452.5796943884343,93.24410820845515 L 452.53904268331826,92.67161839734763 L 452.72197568789124,92.30165899079293 L 453.4875842984766,91.8367482451722 L 455.47952168248594,87.64696108084172 L 455.74375822767615,86.05888790078461 L 455.3101392239332,84.76582157891244 L 454.38192346319556,83.91227741539478 L 452.34255900233984,82.80687488708645 L 452.5593685358763,81.11305324546993 L 451.54984923265874,78.99843415617943 L 451.7802093140781,77.4055659044534 L 452.17317661084235,77.06661577522755 L 453.24367360398173,77.05913905333728 L 453.68406784906983,76.43612815253437 L 453.704393832013,75.58895498421043 L 453.169145302847,73.9448422351852 L 453.148819450289,73.41186430118978 L 454.0296080689877,72.82913883402944 L 456.24513029307127,73.89502890221775 L 457.3224025275558,73.79042232502252 L 458.12188753671944,72.61997162271291 L 457.81022397987545,71.49210917297751 L 456.31288322247565,69.50837085302919 L 454.93072260543704,68.6474134074524 L 454.5038788430393,67.24182550795376 L 454.9917002953589,65.97090848907828 L 457.08526707440615,65.13540857564658 L 457.3156272210181,64.63566568866372 L 457.05139060877264,64.10862636193633 L 456.31288322247565,63.63384015019983 L 453.37917946465313,62.43836882710457 L 452.5593685358763,61.6978629976511 L 454.43612591177225,61.46678753197193 L 455.3711169138551,61.153733919374645 L 456.31288322247565,60.28424085956067 L 456.60422099381685,59.243527138605714 L 455.36434160918,58.9430261394009 L 453.65696668997407,58.9231588980183 L 452.566143842414,58.719524337910116 L 451.963142381981,58.366908088326454 L 451.62437746860087,58.46126780845225 L 450.1405874565244,59.578817600384355 L 448.7516514658928,59.75019675120711 L 446.0821843203157,59.42482956778258 L 443.6363020148128,59.91909776348621 L 442.74196278490126,59.797389103099704 L 442.11863547191024,58.734424219466746 L 441.8340729419142,57.27693041600287 L 441.3055997826159,56.837528774514794 L 440.65517124533653,56.6935521773994 L 439.9911920968443,56.122650363482535 L 439.8218097053468,55.536921413615346 L 439.84213555790484,54.42025035619736 L 439.40174124762416,53.72059343755245 L 438.94779632613063,53.36831994354725 L 437.5791863221675,52.78290475998074 L 435.9124631732702,51.55771751049906 L 435.15362986922264,50.76918870769441 L 432.77550056017935,47.51220894046128 L 431.93536364659667,46.70200224779546 L 426.8200142607093,43.79176115244627 L 423.9066364225,43.06879041157663 L 423.5204444974661,42.845977464690804 L 422.883566506207,42.170170260593295 L 423.2358819656074,41.74690766725689 L 423.29008435085416,41.068770055659115 L 422.8361394293606,38.09492791071534 L 422.7887124158442,34.739664365537465 L 423.5407703500241,32.39944287389517 L 424.9364815801382,31.505150767974555 L 425.6749889664352,30.02570939436555 L 425.816958418116,27.825750016607344 L 424.58416611887515,29.37627222109586 L 423.8659845851362,29.880011035129428 L 421.20329274609685,30.35416302829981 L 416.75869775004685,32.606980414129794 L 414.9361428245902,32.96772019285709 L 413.11358783207834,32.80958448909223 L 408.66899283602834,31.01113320235163 L 406.93451675772667,30.912335420958698 L 401.9140214622021,31.660776045173407 L 400.85707508027554,32.30555964354426 L 400.6605915296823,29.635543446056545 L 400.2676242981106,28.79851464368403 L 399.5900945365429,28.289943953044713 L 398.74318231642246,28.04802027437836 L 397.75398899801075,28.3294428428635 L 396.3582777027041,28.309693455696106 L 394.9557911660522,27.93940506875515 L 393.9530472327024,27.171758542768657 L 393.30939400196075,25.811996064148843 L 393.0993597730994,24.726417331025004 L 392.6792913172394,23.784122518263757 L 391.45973778516054,22.82227109838277 L 389.49490156024694,22.474568813107908 L 388.01111154817045,23.404293147847056 L 386.540872015059,24.699280724860728 L 384.6099123209715,25.427082924172282 L 372.59731026366353,24.795492812991142 L 363.2270740624517,25.807061044499278 L 359.45323352329433,24.593202896416187 L 357.01412645727396,21.10125038959086 L 355.7539211548865,22.915982065722346 L 354.8121549114585,23.09354442730546 L 352.46112676151097,21.606648391112685 L 351.1060673035681,21.42420636396855 L 350.18462684750557,21.5376154249534 L 349.35804061219096,21.18506913073361 L 348.2604424599558,19.587817448191345 L 347.5151597019285,17.981204078532755 L 346.52596638165414,14.976304199546576 L 345.30641278252006,12.177405904978514 L 344.9405467752367,11.855026728473604 L 343.49063316360116,11.190644282847643 L 341.810359403491,10.910152833908796 L 341.2276838608086,11.325974532403052 L 340.1368610151112,10.831421219743788 L 338.6530709359795,8.804491999559104 L 338.18557540141046,7.629039567895234 L 337.01344894617796,7.7077226201072335 L 335.69904132559896,6.33094181958586 L 335.02151156403124,5.888482789508998 L 332.9347200244665,5.56403679959476 L 332.29784210026264,5.303511566482484 L 331.3289745673537,3.905255644582212 L 330.1703987233341,0.5033426992595196 L 329.03214879892766,0.0 L 328.16491072811186,0.9109633406624198 L 327.4264033418149,2.5393098955973983 L 326.53206411004066,3.7750331107527018 L 324.26911480911076,3.234521485865116 L 323.1715166568756,3.4064963199198246 L 321.14570280723274,4.345088175497949 L 320.2581388168037,5.770500131882727 L 319.56028326787055,5.927810907363892 L 317.35153635032475,5.441145988181233 L 303.43507575802505,5.839323038235307 L 302.60848945751786,6.065461907535791 L 298.92272776551545,9.254578835330904 L 296.8901386111975,10.058929778635502 L 295.738338008523,10.088449757546186 L 293.5295910909772,9.689946055412292 L 292.45231885649264,9.822777152061462 L 286.45618078671396,12.667165400460362 L 284.4777940157801,12.996979310177267 L 280.2229073308408,12.29553466849029 L 279.3285680990666,12.285690493881702 L 274.99915311113,13.341583520174026 L 274.0065720397979,13.425276526249945 L 272.98350218869746,13.223430790007114 L 271.99430873803794,13.326814234256744 L 264.060435667634,15.912069503217936 L 261.2757885158062,16.015506574884057 L 260.7744164504111,16.367700718343258 L 259.8462008200586,17.426890396513045 L 259.3922558333725,17.6018007947132 L 255.39483045227826,17.308644541539252 L 252.52887969091535,17.81367188412696 L 245.84843662008643,16.382478591054678 L 243.2060706987977,16.515481624752283 L 241.82391007989645,17.07216084562242 L 237.6571022439748,19.642037058249116 L 232.28429148718715,20.88924446515739 L 216.93824319913983,21.996208312921226 L 213.21182973869145,24.435323590412736 L 211.003082819283,25.180358797311783 L 209.43798913247883,24.699280724860728 L 208.82143706083298,24.679545214399695 L 206.3958806078881,26.137714224867523 L 203.1572885978967,26.46838838327676 L 199.34279615618289,25.96498227957636 L 198.3807039950043,26.058750267140567 L 197.29665639065206,26.581908406689763 L 195.2708425410092,27.964090211316943 L 191.71381147019565,28.591130383312702 L 189.05111963115633,29.68246056791395 L 186.78139502368867,31.692889812402427 L 185.54151570424438,34.76191021781415 L 184.96561540290713,36.85592122655362 L 183.87479255534708,37.560708922334015 L 182.5129577908665,37.74866853188723 L 181.14434771984816,38.277960231527686 L 180.14160372130573,39.099211865104735 L 179.98577187769115,39.747400359250605 L 179.99932255595922,40.98462774138898 L 180.602323949337,43.45007052831352 L 180.581998096779,44.62875132262707 L 179.9789965711534,46.7242998117581 L 178.9423761088401,47.44035062100738 L 176.18483011424541,47.53698789700866 L 175.2904908824712,47.869037641212344 L 173.78637488558888,49.70065216626972 L 173.05464280582964,50.070028374902904 L 171.50987503677607,50.34769767522812 L 170.8187946639955,50.630340710282326 L 171.78088695555925,51.587475722655654 L 171.787662262097,52.46541928593069 L 170.9068735782057,54.442581405863166 L 170.22256857529283,57.75609477329999 L 169.7889495063573,58.709591140039265 L 170.4800298139453,60.39354050997645 L 174.45035403594375,62.61481378041208 L 175.84606526605785,64.5113591644913 L 175.88671710155904,67.0478098783642 L 174.34194926917553,67.58012639824301 L 170.1209391131997,66.746851622127 L 163.4811478126794,63.275915179401636 L 158.8061926048249,63.05222478322685 L 155.9131407495588,62.04822327103466 L 153.12849359586835,60.5376207632944 L 150.86554422974586,58.734424219466746 L 147.89118876680732,58.2576515590772 L 145.87892546504736,56.735751814208925 L 145.12009215913713,56.55950863659382 L 143.8937633857131,57.026193771511316 L 141.77309531718493,58.605293860659 L 139.53724724054337,58.709591140039265 L 136.04796916618943,59.42482956778258 L 134.48965078406036,59.278296982869506 L 131.32558694668114,58.26261767093092 L 130.72936079278588,58.371874305419624 L 130.18056171573699,58.709591140039265 L 129.4556048773229,59.53659460041672 L 129.02876118011773,59.78745381999761 L 127.87696064263582,60.063164801336825 L 127.21975679881871,59.911646098829806 L 126.63708119280636,59.46705174446106 L 126.1289339531213,58.709591140039265 L 123.89986118115485,56.54709738586098 L 121.89437312074006,56.64887060876936 L 119.85500872507691,57.64685133099556 L 117.51753112114966,58.15832946728915 L 112.92387958802283,57.388648722320795 L 108.38443043641746,55.90919908788055 L 107.2123039830476,55.20437620859593 L 102.97096790932119,50.9725085105747 L 102.42894407361746,49.79237406142056 L 101.73786382935941,46.4195749219507 L 100.5047596860677,43.46492614224553 L 100.40990553051233,41.62315332517028 L 99.1293743737042,40.72725992184132 L 97.65913484245539,38.20375714544207 L 96.74446969293058,37.23674195818603 L 95.80947869084775,37.10567707475275 L 94.69832992553711,37.47909691464156 L 92.41505477204919,37.70415123831481 L 91.29035539366305,37.545870227739215 L 89.10193439386785,36.80399336759001 L 88.45150585658848,36.75453863572329 L 87.78075140155852,37.03396379202604 L 86.6628273949027,37.995994340628386 L 86.07337648235261,38.30269470345229 L 85.40262209065259,38.312588582746685 L 84.15596739947796,37.95642136782408 L 83.51231416873634,37.981154488399625 L 81.62878148630261,39.054682809859514 L 80.86994824744761,39.309492979198694 L 79.48778756521642,38.871622999198735 L 78.7831566426903,38.89636032003909 L 78.39018941111863,39.735029593110085 L 78.69507779367268,40.207614227198064 L 80.15176664851606,41.3929780209437 L 80.47020564414561,42.056306819431484 L 79.83332771807909,43.0242270315066 L 74.81960772909224,46.03559758234769 L 73.81008842401206,46.30314008705318 L 72.65151264704764,46.17432154715061 L 65.984620122239,44.33405580371618 L 63.267725897952914,44.636180776171386 L 61.14028258807957,46.36755046993494 L 60.98445074446499,48.41424044594169 L 61.797486366704106,51.6742713265121 L 61.44517097249627,53.293899106793106 L 60.86249536462128,53.99349794816226 L 58.63342259451747,55.77021229825914 L 57.26481252349913,57.97955456096679 L 56.23496736586094,58.95047630276531 L 55.510010592639446,58.95047630276531 L 53.606152057647705,57.855409087613225 L 51.95297952182591,55.95387422479689 L 50.80795422568917,53.75036417134106 L 50.77407776005566,51.95698737446219 L 49.14123107865453,51.8801068905741 L 47.86747522838414,52.21491724997759 L 46.80375360511243,52.01650859322399 L 45.80778484791517,50.33282218221575 L 45.26576107740402,47.57663445640355 L 44.59500668756664,46.597948256880045 L 41.73583116568625,45.13893638178706 L 40.04200685955584,44.65599299315363 L 38.68694746680558,44.70800005458295 L 35.85487316921353,45.61944811884314 L 34.37785833142698,46.47655464056879 L 31.84389717876911,48.89257946610451 L 24.831464564427733,51.16095836739987 L 23.205393187701702,52.41085352282971 L 22.372031580656767,53.596550713293254 L 22.26362687908113,54.497168738394976 L 22.90728010982275,59.27084634359926 L 22.656594110652804,59.568882739171386 L 22.250076266005635,59.53659460041672 L 21.972289042547345,59.77503476757556 L 22.080693874508142,60.87051141541451 L 9.695450438186526,64.78732380457222 L 8.597852285951376,64.9539043456316 L 5.162776594981551,64.52627567294985 L 3.9364477563649416,64.85196637455374 L 5.745452135801315,67.1522789504379 L 6.199397057294846,69.65519596543163 L 5.5354179088026285,72.11202929355204 L 3.9770995266735554,74.29354931972921 L 2.025813914835453,75.44943402335048 L 2.0190386082977057,76.2866169065237 L 2.669467145577073,77.73706105072051 L 2.7372201420366764,78.42504426836967 L 2.174870453774929,79.76388525776565 L 1.551543140783906,80.6042679157108 L 1.2602053042501211,81.45227163750678 L 1.700599679723382,82.7968949014321 L 0.5962262209504843,83.82243892736733 L 0.0,84.70591901708394 L 2.107117522507906,88.28632487822324 L 4.342965601012111,90.98951946292073 L 5.2373048309236765,94.2267404217273 L 7.7780412919819355,97.44599787238985 L 8.414919281378388,98.9174769949168 L 8.469121666625142,103.02384652104229 L 6.59236428886652,104.68235495407134 L 4.153257289901376,105.80002303980291 L 2.215522224083543,108.7281723190099 L 1.7258566450327635,111.02377436403185 L 5.996138134971261,109.79405541159213 L 10.196822438389063,109.86679436080158 L 11.98550090007484,110.71967360936105 L 12.934042513370514,112.20502798818052 L 13.747078202664852,113.97195977251977 L 15.176665896549821,115.63905993755907 L 16.12520751170814,116.14632835518569 L 17.107625655829906,116.25682911742479 L 18.03584141843021,115.92031148541719 L 18.80144996382296,115.08162528742105 L 19.018259497359395,113.93179536797106 L 18.88952881284058,112.74959922581911 L 19.140214877203107,111.72324399929494 L 20.474948352202773,111.03075927775353 L 21.00342157483101,111.07090070191771 L 22.14167156443,111.68309733457863 L 24.113283030688763,110.95047728251666 L 26.064568642526865,110.7949345735833 L 27.0537620279938,110.99061817117035 L 27.846471797674894,111.62789623625576 L 28.029404802247882,110.02230881899595 L 29.5335207991302,108.29185155592859 L 30.12974701821804,106.985620460473 L 30.251702332869172,105.83009815402329 L 30.969883864745498,105.3990376656875 L 32.87374233454466,106.50182325486094 L 36.09878386370838,101.76654567848891 L 36.674684097990394,100.62973160110414 L 36.36979578062892,99.61082074791193 L 34.879230396822095,98.44695791974664 L 35.59741186350584,97.60613839048892 L 35.83454731665552,95.5597220454365 L 36.186862712726,94.63435072265565 L 36.82374063692987,94.01419583614916 L 37.26413501240313,94.03419958800077 L 38.62596977688372,94.81941154971719 L 39.62871377542615,94.36427402030677 L 39.967478623613715,94.3617733977735 L 41.024424938485026,95.4396643564105 L 43.90392631292343,95.9649373870343 L 45.109929233789444,95.31210622284561 L 45.06250222027302,93.56913100276142 L 43.87682515382767,89.99002028442919 L 44.059758158400655,88.77589176874608 L 43.897151071578264,88.13147157710046 L 43.57871207781136,87.81678430084139 L 42.44723739288747,87.3747562225908 L 41.57999932207167,85.67942130286247 L 41.871337158605456,85.50966916419566 L 47.08154076337814,86.14876559190452 L 48.51112845912576,86.70554361771792 L 51.44483215175569,88.51112015079707 L 52.72536337375641,89.68521196581423 L 53.90426506847143,91.27441258635372 L 55.753921285271645,94.81941154971719 L 56.431450981646776,95.27709082420915 L 57.813611598685384,95.75982424244285 L 58.375961288809776,96.14004037715495 L 59.46678413450718,97.59362715110183 L 60.422101056203246,99.55324718821794 L 61.018327210098505,101.73148585949093 L 61.00477659702301,103.81044338829815 L 60.73376474529505,105.01061325613409 L 60.38144928403199,105.86518607661128 L 59.81909959577024,106.49179684277624 L 58.897659204900265,106.99564784392715 L 59.642941897735,111.76339088287205 L 58.64019783399999,113.92175441328436 L 58.54534374549985,114.7602492487058 L 59.527761824429035,115.14941814728081 L 61.12673197686672,115.54614992067218 L 61.35709212347865,115.36535687278956 L 61.64842982776463,114.45897776633501 L 61.00477659702301,112.99304392002523 L 61.119956670328975,112.15985878650099 L 62.00074535422027,111.33182801026851 L 63.023815205320716,110.86016153916717 L 65.81523766554892,110.43369234260172 L 66.587621582672,110.56915521249175 L 67.42098312266171,111.24150559864938 L 68.74894142337143,113.10096639767289 L 69.6568312663585,113.73599867895246 L 71.24225080572069,113.71591736841947 L 79.89430540800095,110.43369234260172 L 80.70056572556496,109.16453036479652 L 81.2629154138267,108.99399513192475 L 83.20065047964454,109.2297365469858 L 85.84301640093327,110.4437264194712 L 86.77123209647834,110.70963889174163 L 87.67912200465798,110.64692247565836 L 89.88109361752868,109.11437248717993 L 89.33229454047978,108.44731783401221 L 87.2184017766267,107.00066149514169 L 87.66557132825255,106.23111735191196 L 91.0396693944931,104.66230930853635 L 94.31213800050318,101.12549158744514 L 94.50862161628902,100.6848136857152 L 94.52894746884704,100.03388191573322 L 94.37989092990756,99.36300837714225 L 94.16985676810145,98.9174769949168 L 94.01402492262423,98.90746548678726 L 94.68477931432426,97.59612935781479 L 95.59944446198642,97.06068064365536 L 102.4357193801552,96.96060306113213 L 103.71625060215592,97.35341908968985 L 107.99823844619095,100.32679091300815 L 109.65141104720533,100.77995680831373 L 111.05389751680195,100.20411752536893 L 110.91161628440022,97.57110715284944 L 112.48348521254957,97.39095074497163 L 113.91307297348976,98.04655031859875 L 115.71530204638839,100.22414565179497 L 116.98228259198368,101.40594288520515 L 118.20183612406254,101.79659700579941 L 121.04746103286743,101.86421328503639 L 122.11118265427649,102.32252487260848 L 122.67353234253824,103.28436192683876 L 122.42284634336829,104.00585879664868 L 121.71144011616707,104.47438547946513 L 120.90517973527312,104.6948834983632 L 123.99471527151763,108.26176180969924 L 125.48528072051704,108.61281952168792 L 127.09780142083764,108.39215189684182 L 128.5815915632993,107.92075758986175 L 131.65757648833096,108.43227262515575 L 133.0803889427334,108.99901084695011 L 134.27284125052392,110.32833485584706 L 135.11975340358913,113.47494820971042 L 135.5669230185449,114.50416737608612 L 137.61983809247613,116.3773782569915 L 138.8326163198799,116.33719486091286 L 141.69179177470505,115.76461672689766 L 147.03072600066662,115.74201627448201 L 150.72326299734414,114.98119307029992 L 151.40079275891185,115.20716832205653 L 152.05799660272896,116.85960309021175 L 152.79650392383337,117.30168272461742 L 158.29804536513984,118.42714978195727 L 173.3595311883837,117.76892226748168 L 173.88122904114425,117.8769461940974 L 175.75121111050248,120.28421248774976 L 175.98834649845958,120.90505991317332 L 176.05609949305654,121.81510290969163 L 175.94769472628832,124.4154054671526 L 175.76476172357798,124.95122305955738 L 174.41647757031024,126.34763305447996 L 174.07771272212267,127.68150011822581 L 175.11433318443596,128.10438403766602 L 177.26210241392255,129.7811631374061 L 178.38002641871572,130.2344417758286 L 177.77702496014535,127.9785220483318 L 177.35695656947792,127.39456323999912 L 177.14014703407884,126.71504067908973 L 177.499237800017,125.64057386573404 L 178.149666339159,125.0593997342512 L 178.86107256636024,125.1675786152482 L 180.3245367910713,125.93496017716825 L 181.7541244868189,126.14129242487252 L 185.54151570424438,125.33110924251378 L 186.6526644024998,125.51225695665926 L 189.22727732919157,126.50365220755339 L 190.3045496288687,126.29227263107896 L 191.6528337802738,122.8585848165676 L 192.18130700476468,122.2224125098437 L 194.1325925514102,120.64866837393492 L 195.0540330056101,120.19373090751469 L 196.40231715887785,120.15854407288134 L 197.78447784110904,120.42999166809022 L 198.80754769220948,120.88495027832687 L 201.72770077176392,123.49986670911312 L 202.97435552999377,124.12865303270519 L 205.3118330668658,124.69211174547672 L 207.64931060560048,124.69211174547672 L 211.32829705625772,123.74131147935987 L 212.45299636758864,123.88718985486776 L 211.7754666712135,122.18721172586083 L 212.80531189404428,120.92014223895967 L 214.50591144151986,119.7941232221201 L 215.80676858127117,118.53267508000135 L 214.01809005439281,117.64331609476358 L 213.21860497817397,115.39046670962125 L 213.56414513289928,112.99304392002523 L 215.18344120308757,111.68309733457863 L 216.80951251462102,111.28666665311903 L 220.3597682788968,107.53214091155678 L 223.57125919498503,105.10082525387406 L 224.28944072686136,104.80764188151807 L 225.38703888095915,105.29629023838788 L 226.07134388387203,105.31633837800473 L 227.47383041866124,104.3415901819244 L 228.17846134118736,104.37416232191026 L 230.50238826684654,106.99564784392715 L 230.48206241242588,107.80291585344821 L 229.95358925499022,109.42034396901727 L 229.8993868716061,111.71320730354637 L 230.7598496377468,113.68077541142702 L 230.61756840534508,113.62555264588445 L 230.5633659567684,115.8299075094983 L 230.73952371813357,115.76461672689766 L 231.7964701000601,117.1559930993244 L 232.77888818085194,119.56291814614087 L 232.96182124875486,121.92069865111262 L 232.77888818085194,123.16789886821061 L 232.25719032809138,124.58142738696188 L 230.97665910609066,126.78047226928174 L 230.17039872333407,127.75952963717282 L 229.35736310109496,128.37373912520707 L 228.34106849133968,128.53737302776426 L 226.68112064898014,127.80483764410019 L 225.69870257005095,127.63619321212173 L 222.04681727848947,128.31835660990328 L 220.97632035054266,129.40849769487977 L 222.62949288636446,132.0026152729988 L 222.8937294986099,133.89237071573734 L 223.25282026454806,134.65855202823877 L 227.48060572519898,141.46349008195102 L 225.75968019478023,143.89207326434553 L 223.53738272935152,149.06616196222603 L 222.43300927057862,150.1531906882301 L 221.90453611128032,150.43889043759555 L 220.583353118971,151.80693338438869 L 219.01148412562907,152.75289478618652 L 218.4830109681934,153.52952472306788 L 217.9342118911445,155.7487635044381 L 216.95179381221533,157.93605909775943 L 212.33781635947526,162.77983227930963 L 211.72803959436715,163.74813069216907 L 211.14536405168474,164.92960477620363 L 210.81337444484234,166.22295154538006 L 210.94210512936115,167.54707320500165 L 211.34184766747057,168.2523987442255 L 212.5885023586452,168.55942360591143 L 213.78772997297347,170.35373674612492 L 216.39621942862868,172.18677776306868 L 219.04536065645516,175.7227225722745 L 220.0345540419221,176.25383670814335 L 223.66611334867775,176.96292309090495 L 223.57803449966013,177.1967655941844 L 224.59432911127806,178.0203842902556 L 226.7082218080759,179.20266509242356 L 229.14732887223363,181.55279542598873 L 230.20427525416017,182.30842751078308 L 236.9998984001577,185.01640477683395 L 246.03136962279677,186.59758032485843 L 248.23334130086005,187.83282168209553 L 254.64277245476842,193.44999207928777 L 255.55743760429323,194.98790760338306 L 256.0588096026331,197.59298125188798 L 256.64826044999063,198.78242603782564 L 256.78376644290984,199.81129340268672 L 256.6618110630661,202.6028069909662 L 256.78376644290984,203.52258433401585 L 257.97621875070035,206.30338129866868 L 258.1591517534107,207.26730768103153 L 258.01687052100897,208.13679026253521 L 257.40709375590086,209.09083718806505 L 256.9057217556983,211.6802122965455 L 257.26481252349913,212.36871995776892 L 257.85426337085664,212.9165222523734 L 259.99525735899806,213.7229757849127 L 262.1904535982758,214.01998830772936 L 268.9860767442733,212.11531769298017 L 271.1948236618191,210.70264281053096 L 272.1975676603615,209.1573459310457 L 275.02625427022576,207.79153642058372 L 275.60892987810075,210.43397252168506 L 276.1645042616874,211.56248439103365 L 277.7499238010496,211.73139917012304 L 278.2716216519475,211.95662776753306 L 278.81364548765123,212.49670581053942 L 280.2500084899366,215.40798674710095 L 280.65652626752853,216.70926459133625 L 280.9072123337537,219.8050010195002 L 280.5616721790284,223.01038817688823 L 280.7310545705259,224.1956192739308 L 281.60506788268685,225.03212036658078 L 280.4600427169353,225.73016701452434 L 279.76218710280955,227.11114937625825 L 279.423422254622,226.98792349547148 L 279.57247879356146,227.93273236136883 L 281.5305396448821,232.0735127646476 L 284.1661303266883,231.36430182121694 L 285.4127850178629,230.68088228441775 L 288.04160032607615,228.5490084439516 L 292.45231885649264,226.11516085639596 L 293.0282191578299,225.48891932331026 L 294.53911039605737,222.99499734211713 L 295.71801215596497,222.2203900264576 L 295.88739454746246,221.6151512172073 L 295.765439234674,220.9946009432897 L 294.95240354537964,220.82024538516998 L 294.5120092369616,219.89216035138816 L 294.13936785794795,219.75373144540936 L 294.01741247810423,219.46663193404675 L 294.3223008606583,218.11338452715427 L 294.6068633906543,217.5701380977407 L 296.2871370855719,215.66411700565368 L 298.5162099227309,214.726743911393 L 307.8051424510777,213.6820099800825 L 314.309427825734,211.3782202443108 L 314.93953044340014,211.44987763650715 L 315.45445312187076,211.65461905580014 L 316.7756360489875,212.7168491333723 L 320.183610515669,214.18898597545922 L 321.22023104317486,215.25687597878277 L 322.6904705762863,219.1692962180823 L 323.64578743092716,219.83063595369458 L 325.2176564242691,217.97500491142273 L 327.83292118646204,216.6016657119617 L 328.6053050365299,216.41209252085537 L 329.58772311732173,216.63240802660584 L 331.5525593422353,217.58038749732077 L 332.56207864545286,217.66238335426897 L 332.9821471013129,217.29085044469684 L 333.0702260155231,215.9971059989184 L 333.2802601791918,215.57959256507456 L 333.78840748406947,215.52324369736016 L 334.7911514826119,215.8741536717862 L 335.21799524500966,215.7793799508363 L 336.82374063692987,213.26468950137496 L 337.901012936607,213.19300594832748 L 339.21542055904865,214.51163374818861 L 339.54741010069847,217.08844065945596 L 339.51353363506496,220.120319978334 L 339.75066908821464,222.8000517897308 L 340.99054847471416,224.8165668528527 L 344.43917477689683,227.85570325609297 L 344.7711643856019,229.75610236730427 L 345.42836816236377,230.92238074727356 L 346.07879669964314,233.07583031058311 L 347.0679901521653,233.4562496440485 L 350.4895152300596,232.9833002379164 L 353.87716390937567,231.5904161017388 L 355.20512214303017,231.71375554148108 L 355.95718014240265,233.4562496440485 L 355.5235611386597,234.27887700498104 L 355.1102679222822,235.69308458268642 L 355.6929435301572,237.6427765954286 L 357.08187945373356,243.88279457576573 L 357.0886547602713,246.63974414765835 L 356.8176429066807,249.6922035422176 L 356.84474406577647,252.53494128026068 L 357.73908336274326,254.64095475152135 L 357.6781056728214,255.64782023523003 L 357.9897692967206,256.1487471200526 L 359.42613236419857,256.3346709012985 L 363.0712422821671,255.07981978543103 L 368.1730411220342,254.6616063816473 L 368.9318743608892,251.89505466539413 L 368.90477320179343,250.53814824856818 L 368.4711541328579,249.1145678050816 L 369.77201127260923,249.08878197148442 L 374.77218065038323,250.44013502262533 L 376.0188353434205,251.7505755610764 L 376.23564487695694,252.2769126072526 L 376.39825202710927,253.61880752071738 L 376.6624885741621,254.02660888433456 L 377.163860572502,254.03177109640092 L 377.766862032935,253.12329654581845 L 378.0920762680471,252.89620380941778 L 381.1612859517336,252.8600763771683 L 382.6247501131147,252.44204941019416 L 385.77526340447366,250.8321992987767 L 388.6886412445456,249.84693878982216 L 390.09790302067995,249.03721090499312 L 393.3364951610565,246.2222388498485 L 398.74318231642246,244.11462876200676 L 403.8314306102693,241.23549693264067 L 405.30167007632554,240.88537595514208 L 406.81256137788296,240.88537595514208 L 407.9169348385185,241.23549693264067 L 410.247637135908,242.47141424380243 L 410.8167620655149,242.6104741524905 L 412.82225006073713,242.61562454979867 L 413.20166668109596,242.3272081092 L 413.46590335667133,241.1016242923215 L 413.79111759364605,240.5919112432748 L 414.23828720860183,240.40142580494285 L 415.4917172063142,240.30875982157886 L 416.697720060125,239.56234676856548 L 417.2465191371739,239.5983779327944 L 416.5757647473365,238.70796961337328 L 417.4023509826511,238.90353706572205 L 418.1408584341407,238.8726575523615 L 418.6286798212677,238.4249250954017 L 418.6964328158647,237.37522764131427 L 419.8075815811753,237.6633579088375 L 420.15312173590064,237.23631359264255 L 420.247975891456,236.05312864296138 L 426.84034011512995,231.24097110982984 L 430.31606764160097,229.7304163966328 L 436.3731833361089,230.09516840148717 L 445.54016054980457,228.73390600085258 L 446.97652355208993,229.0061288336292 L 447.84376162290573,228.29735316056758 L 448.20962769538164,228.17923365533352 L 449.23947285301983,228.48224140610546 L 449.9576543867588,229.1550872689113 L 453.2843253109604,234.87022418994457 L 454.4225753005594,235.63136536534876 L 456.9904129188508,235.38449612725526 L 458.1760899871588,235.888533920981 L 458.77909144572914,235.97083055321127 L 459.38209284096956,235.7650913167745 L 460.50001697801054,235.04507070872933 L 464.41613874956965,233.9035364082083 L 465.6289169099182,233.7595777651295 L 466.88234690763056,233.250614002347 L 467.39726958423853,232.05295448284596 L 467.6411802768707,230.6243630219251 L 468.1154510527849,229.44788043014705 L 468.975913817063,228.84176599327475 L 470.01930958777666,228.65686444658786 L 472.5126190353185,228.75958674959838 L 473.51536296866834,228.41547545883805 L 475.88671703636646,226.839029639028 L 477.0927198920399,226.38724108971655 L 478.35292519442737,226.5412553306669 L 480.8733358029276,227.439766343683 L 481.95060810260475,227.35761005152017 L 483.5021511763334,225.17069533281028 L 484.4100409541279,218.60030641127378 L 486.67299032211304,215.96124458312988 z" /></g></g></svg>