<svg xmlns="http://www.w3.org/2000/svg" xmlns:xlink="http://www.w3.org/1999/xlink" width="500.0" height="391.1405037473887" viewBox="0.0 0.0 500.0 391.1405037473887" preserveAspectRatio="xMinYMin meet"><g transform="matrix(1,0,0,-1,0,391.1405037473887)"><g><g><path fill-rule="evenodd" fill="#D2EBD9" stroke="#A6A6A6" stroke-width="0.25" opacity="1" d="M 17.509023569524288,298.9229680178687 L 20.878351448103786,298.1145503828302 L 21.827768871560693,294.8700462076813 L 20.60898188687861,292.2590700732544 L 17.509023569524288,293.3244252996519 L 16.440376952290535,294.70610153954476 L 15.906053686514497,296.41598758939654 L 16.184255136176944,297.9856803789735 L 17.509023569524288,298.9229680178687 z" /><path fill-rule="evenodd" fill="#D2EBD9" stroke="#A6A6A6" stroke-width="0.25" opacity="1" d="M 19.469681028276682,322.58755522500724 L 40.595322577282786,340.1279050493613 L 43.33759331703186,341.0882041864097 L 46.13285478018224,340.94091103132814 L 51.84260698594153,337.9721045503393 L 53.171791449189186,337.707090517506 L 54.893990436568856,337.86020858120173 L 57.720163248479366,338.7259743679315 L 58.98310915753245,338.4962714156136 L 60.21955974586308,337.07109539583325 L 63.001573637127876,334.4393633110449 L 75.28659339994192,329.6316559044644 L 80.85062109306455,328.49638594686985 L 82.84660567343235,327.6965074175969 L 82.95258712023497,326.99080391973257 L 81.73380013369024,326.320447855629 L 79.77314276061952,325.6207548705861 L 77.87430782616138,323.2458187174052 L 79.91445132903755,320.00208508130163 L 83.4471673220396,316.9653078028932 L 89.39979377016425,313.3075520135462 L 102.08224408887327,308.70708994939923 L 106.2066900152713,308.19675497338176 L 108.27332883700728,308.3844603635371 L 109.96020079031587,309.0062682610005 L 114.38492754101753,311.85786457452923 L 116.28817824833095,312.29802312143147 L 122.71330543607473,312.3273679353297 L 124.25003684870899,311.7874415256083 L 125.6013007722795,310.46126716490835 L 128.083033753559,307.34627432655543 L 133.11715395376086,302.7612194083631 L 134.89234383776784,301.7003750661388 L 139.97945476137102,300.03615026641637 L 141.37929346598685,298.7999422997236 L 143.768292658031,295.56685126945376 L 145.30060821399093,294.6241305563599 L 147.16853179968894,294.70610153954476 L 147.91923390328884,295.888926086016 L 148.3961505871266,297.6693724403158 L 149.35881567001343,299.4853971581906 L 151.16491673141718,300.6221025781706 L 152.83854093961418,300.4580312073231 L 154.4635903686285,300.0127131054178 L 156.14163043536246,300.28224456869066 L 157.79317509941757,302.6146849244833 L 158.50855008140206,306.26131950784475 L 158.95897136069834,310.1561630964279 L 159.78915959224105,313.21363644860685 L 161.92645282670856,315.702796889469 L 162.36804230324924,319.31473656743765 L 163.11874449253082,320.20183922629803 L 163.82528758980334,320.0960862953216 L 164.09024137817323,320.23709046281874 L 163.5515021700412,321.89409062545747 L 160.86663801036775,326.0205713324249 L 159.2150933481753,327.87882513925433 L 158.64102693274617,328.8551829820499 L 157.94331555441022,329.3198804054409 L 156.61854711920023,328.79636263567954 L 155.26728319749236,331.97333172149956 L 151.07218294404447,334.4864555010572 L 142.75263684988022,338.0133298141882 L 138.75183597393334,341.74811401125044 L 137.01197338290513,342.1782655166462 L 136.0139811784029,342.64380006305873 L 131.54509533382952,345.74418284278363 L 130.07460230402648,347.6427778219804 L 129.31506839767098,350.1258386326954 L 128.50695962831378,355.4073309795931 L 126.60812477953732,359.0564240729436 L 126.41382540203631,359.6943149641156 L 125.23036562278867,359.6470619402826 L 124.6651310082525,358.78474651649594 L 124.24120504781604,357.73061420582235 L 123.49050294421613,357.1106068575755 L 121.18982168287039,359.03870558645576 L 120.09909560345113,364.18178403470665 L 120.05935253947973,369.98498176783323 L 120.86746139638126,373.9076134916395 L 122.51900605857372,375.66844903305173 L 124.38251378759742,375.8756338618696 L 128.3833146635443,374.958145304583 L 130.16292023286223,375.1297958008945 L 131.52743181586266,375.79867876600474 L 132.77271420694888,376.91756615322083 L 136.44673885405064,381.4185163322836 L 138.2793352343142,384.39895202964544 L 141.53826572187245,391.1405037473887 L 143.37086210213602,390.65113247092813 L 145.6759593077004,390.74603828880936 L 149.62376946024597,390.20627791341394 L 151.16491673141718,389.2869972260669 L 151.64183341525495,387.11676562111825 L 151.23115519993007,382.4582724198699 L 151.70365594141185,380.50922064948827 L 153.21830797940493,379.2387646064162 L 154.8433572370559,379.25060935132205 L 156.32709801197052,380.2130573745817 L 159.109111815691,382.6597237251699 L 160.86663801036775,383.2878131829202 L 164.319867875427,384.00188576616347 L 165.86543109081686,385.1783311115578 L 167.3050128594041,386.6602686140686 L 168.02038784138858,386.6424836246297 L 168.3824912775308,385.3680024333298 L 169.15085698477924,380.8675939915702 L 169.61011006496847,379.30983324628323 L 170.44029838219285,377.9833315461874 L 176.0529008563608,372.7743912143633 L 177.5145619995892,371.86912219505757 L 178.5920404177159,371.5644325809553 L 180.8176514953375,371.26862941961735 L 181.8156437855214,370.77170698996633 L 182.21307434141636,370.10623835306615 L 182.99027176387608,367.13159009441733 L 184.14723630994558,365.56195701658726 L 188.39532728679478,361.9332766234875 L 190.50612503103912,358.4953617891297 L 191.24799550324678,355.07675804011524 L 192.48003014922142,352.95790096744895 L 196.07898461073637,353.45362367574126 L 197.71286567114294,354.10283444076777 L 199.35557861626148,354.4392662560567 L 200.90114183165133,354.0261066062376 L 202.25240566954017,352.4386082123965 L 202.8794627226889,350.46208923123777 L 203.17974363267422,348.52738311793655 L 203.78472131118178,346.858516455628 L 205.29495731927454,345.714705417864 L 206.1560568138957,344.8186472347006 L 207.30418955907226,341.5359938023612 L 209.94931065291166,338.1959016798064 L 210.5984471682459,336.8473322791979 L 210.91639159619808,334.0626371446997 L 210.7574194241315,328.10231736302376 L 211.60527125932276,325.49728637654334 L 213.10667555220425,323.99231323506683 L 219.60687301121652,320.06083572935313 L 222.26524176448584,319.062137263827 L 231.11469526588917,318.21041238307953 L 232.97820299305022,317.57021459098905 L 235.38928156159818,314.18806691654027 L 236.9392608050257,312.9495056802407 L 238.6879551988095,312.93189732637256 L 241.7128431610763,314.951264414005 L 243.36438790895045,315.60885115806013 L 245.07775518111885,315.4033490475267 L 252.08578050136566,311.8226529667154 L 253.72407750412822,311.47641477081925 L 260.9882247261703,312.127825435251 L 264.60925864987075,313.23711522854865 L 266.6184908878058,314.49920717347413 L 266.98059423826635,315.60885115806013 L 266.54783647693694,317.065143362619 L 266.1592378076166,319.40285455435514 L 266.4065279085189,321.7706842562184 L 267.20138902030885,322.8755383165553 L 268.34068987704813,323.6984087508172 L 269.59480407088995,325.2150807213038 L 270.3190108537674,327.2848389185965 L 270.72527321241796,329.06694027781487 L 271.6261157710105,330.0199227621779 L 273.8428950458765,329.63753853552043 L 275.76380935683846,330.7376818731427 L 278.5767344236374,338.8908936018124 L 280.1973679084331,342.04273563902825 L 283.01912477612495,343.7930298196152 L 292.87098642624915,345.714705417864 L 295.3924624696374,347.08258260414004 L 299.8657640852034,350.9694435959682 L 307.25355635769665,355.6080432534218 L 309.20979787409306,357.7483295490965 L 310.93641280569136,361.0322933867574 L 314.53978312574327,370.96100684814155 L 320.9693262577057,379.318716917187 L 325.09578818641603,385.95847043115646 L 325.9859213754535,385.1650307001546 L 328.6145958006382,383.5644104378298 L 331.6327035948634,380.8352944040671 L 339.1710188090801,370.33415679913014 L 342.0917681977153,367.3678432367742 L 343.28788464702666,365.5849049575627 L 343.7816304024309,362.8066162178293 L 349.61617511697114,356.2071452056989 L 352.8776785880327,349.1259107477963 L 354.60926576144993,348.4896755916998 L 356.0487779714167,346.9852209640667 L 357.84295264445245,343.73590125516057 L 360.60375629737973,339.6623439434916 L 362.71782252565026,339.0176470866427 L 363.4341015983373,338.61416034400463 L 364.7067138403654,336.6944213556126 L 370.38131273537874,324.78369214665145 L 371.61915415525436,322.955461720936 L 372.6900956053287,320.82695086766034 L 373.2047038022429,318.3475427692756 L 374.261736959219,308.4982227506116 L 374.80416183173656,306.4154069451615 L 375.74297413975,305.53812024742365 L 376.3271240685135,304.2316165911034 L 377.7805445715785,296.1161165460944 L 381.8556854389608,289.31310540344566 L 392.10612510330975,277.6619184752926 L 392.95453332178295,276.36948462203145 L 393.719491513446,274.5438997410238 L 395.5275744795799,272.97158680297434 L 399.4219070840627,270.54939996637404 L 401.3273483738303,271.0549149988219 L 402.9407146964222,269.6303690318018 L 404.4706310797483,267.7191459024325 L 406.18135572597384,266.76831019762903 L 407.12016803212464,265.6706354925409 L 406.73768897913396,263.2003072882071 L 405.24949756637216,258.9961924152449 L 404.6166685204953,255.62909201812 L 404.7209809888154,254.3771361289546 L 405.0756434518844,253.66182645969093 L 406.2230806965381,252.22682712227106 L 407.1271221805364,250.55377149023116 L 408.6431302689016,249.11020090337843 L 410.31212994270027,247.84558591526002 L 411.45956718735397,247.30956334993243 L 415.1730915289372,247.0850866222754 L 416.84209120459855,246.63615326676518 L 418.19815338775516,245.84829415287822 L 421.24407777376473,243.13264492806047 L 422.92698582820594,242.30852714832872 L 427.21075163409114,241.7316982327029 L 430.8686426244676,240.57817321643233 L 432.88535052910447,240.39966728258878 L 434.450037734583,240.72006554715335 L 439.19973262026906,242.7068395074457 L 441.244257286191,243.06396505516022 L 450.9731345195323,242.7068395074457 L 451.6894135084003,241.9926391337067 L 452.7255842220038,239.6307670492679 L 454.24854637123644,237.750038289465 L 455.8758210763335,236.27232542075217 L 457.60740824975073,235.30259093176574 L 465.33348587341607,233.6378660807386 L 466.8286314345896,232.79649671260267 L 467.7674437407404,231.11403958965093 L 468.810568517074,228.5179399214685 L 470.10404328629375,226.10546510107815 L 471.7939054891467,225.05481760576367 L 473.65066757425666,224.3788259504363 L 475.2362173087895,222.66628029290587 L 476.4879670217633,220.41544422134757 L 477.3363752402365,218.0922618918121 L 478.21260004863143,208.83856774494052 L 478.8037041258067,207.9179219370708 L 479.51302896626294,205.8218192299828 L 479.9511413704604,203.50766636244953 L 479.67297478578985,201.9546647593379 L 478.0317917857319,205.15210000798106 L 476.25847964175045,207.9179219370708 L 474.1374591831118,210.40209904219955 L 469.9162808768451,213.84939041920006 L 468.1151520572603,214.85742708202451 L 466.18189409188926,215.57818718720227 L 462.3640572819859,216.10739659145474 L 459.15123292803764,217.16592662781477 L 457.4405082836747,217.39407746959478 L 456.48083344846964,217.28456413932145 L 454.526712955907,216.55907882098109 L 451.2443469557911,216.55907882098109 L 449.74224724806845,215.91578205116093 L 446.849314449355,213.498205576092 L 445.1385898049921,213.498205576092 L 444.5266232844442,214.04095261823386 L 443.4278651587665,215.8062901282683 L 442.75331114046276,216.55907882098109 L 441.8562238048762,216.91953138448298 L 439.65870755165815,217.30281630624086 L 437.41946632787585,218.52580755390227 L 435.72264997661114,217.57660309877247 L 432.88535052910447,215.02620654646307 L 433.469500457868,212.37178752664477 L 431.063359266147,209.89608123339713 L 427.58627653867006,208.0774317998439 L 421.91167764365673,206.79233390185982 L 416.9324952941388,203.8902728287503 L 410.39557988382876,201.4628713466227 L 408.8656635861844,200.3382413731888 L 405.5832975022495,196.7059606835246 L 404.1090144701302,195.6684854356572 L 403.16324801556766,194.4446289949119 L 402.98243966698647,192.0293425656855 L 403.51095624640584,187.80102911777794 L 398.9003446530551,186.0012997854501 L 398.04498228803277,184.27468709275126 L 398.25360731221735,182.02159261144698 L 399.4219070840627,179.76008399296552 L 400.1868652757257,178.92467647604644 L 401.40384416654706,177.97133419010788 L 402.07144403643906,177.1315839374438 L 402.426106499508,175.98331857845187 L 401.94626903906465,175.27538349945098 L 401.090906759724,174.72178773861378 L 399.58880705200136,173.32436430547386 L 398.28142390213907,172.525951561518 L 397.66945738345385,171.3874508701265 L 397.28002409636974,170.05412440095097 L 397.2313449792564,169.05201537255198 L 397.66945738345385,166.81701552774757 L 398.64999474585056,164.42860139161348 L 398.9420696236193,163.13273498415947 L 398.5456821899861,161.84161814954132 L 396.6680575776845,159.835157440044 L 396.50115760974586,158.77099588420242 L 397.16875747963786,156.89662065170705 L 397.08530753850937,156.10897689592093 L 396.7236909288913,155.6201353855431 L 395.3328578379005,154.59276469610631 L 394.8112954925746,153.0180326392874 L 394.84606631472707,152.3212718795985 L 395.3328578379005,151.55219401512295 L 394.9434245508164,150.0956819532439 L 395.43021615967155,148.57613859139383 L 397.37738241814077,145.8634179038927 L 397.27306994982064,144.91419255174696 L 396.09781602956355,144.00575840566307 L 393.88639148138463,142.75853178557009 L 389.89470055513084,137.9071227312088 L 388.2535175550729,135.13046184647828 L 388.3369675818831,133.22124369163066 L 387.3425219245255,131.38017779402435 L 386.4662971161306,128.93964072875679 L 385.7917430140078,126.36911795660853 L 385.423172255978,124.13301123399287 L 385.4996681343764,121.14053030312061 L 386.3480762671679,119.0951360585168 L 394.3036413565278,111.80101566202939 L 395.3328578379005,110.53650308400393 L 396.02132023498416,109.10573881212622 L 395.94482435658574,108.61987924389541 L 395.56234530359507,108.22851460054517 L 395.0268745776266,104.54526100214571 L 395.14509542658925,103.43927887827158 L 395.86137441545725,102.17164034489542 L 394.8112954925746,102.72452092729509 L 394.02547477185726,103.4168011546135 L 392.95453332178295,105.18824216444045 L 392.4260167442262,105.18824216444045 L 392.74590838328004,103.55166814662516 L 393.46914151869714,101.74464594945312 L 394.5192205272615,100.16272458992898 L 395.86137441545725,99.21911887638271 L 395.86137441545725,98.39692782331258 L 393.935070598498,98.85968037042767 L 392.7250458560884,100.20316741522402 L 391.6401961091906,101.78060237877071 L 387.25907189771533,104.69363657850772 L 384.4148183017969,103.59662433434278 L 382.21034790202975,100.73793120495975 L 381.33412309363484,97.23342977743596 L 381.39671059139073,85.15955399069935 L 380.70129404589534,81.76071969978511 L 379.49822345003486,78.20205949433148 L 379.08792763762176,76.48605974949896 L 378.8375777285546,72.59398299083114 L 378.4481444414705,70.25251018349081 L 377.64146127924323,68.29660045076162 L 371.22972086817026,63.786902913823724 L 367.849996548146,62.46759468037635 L 365.47862617857754,64.4130934625864 L 365.74983861483634,65.70141545590013 L 365.84719693660736,67.32554191723466 L 366.6469259522855,68.16234552487731 L 370.4856252055615,68.91420298349112 L 371.79996241629124,69.59451768361032 L 372.926537219435,71.27765715774149 L 373.62195376493037,73.47613553702831 L 373.6984495576471,75.67971563711762 L 372.7318205758929,77.753981243819 L 371.02109592966735,78.6367201441899 L 366.93900091573596,78.75771251507103 L 366.4383010137826,84.25813482142985 L 366.11145522631705,85.52284204494208 L 364.59544713795185,86.80121337156743 L 362.9751266669482,87.22289789561182 L 359.32418982312083,87.09728733729571 L 358.30888172239065,86.7384112002328 L 357.8081818204373,85.85923512093723 L 356.7650570459664,83.15056420210749 L 356.72333198972046,81.39312499947846 L 356.54252372682095,80.53248371183872 L 355.5063530988991,80.19183956552297 L 355.3464072793722,75.04813798703253 L 355.63848224282265,72.34323706012219 L 357.02931533381343,69.97945894114673 L 356.6816070191562,67.29421943891793 L 354.38673244416714,59.40497818868607 L 352.4187037423253,54.748531389050186 L 349.7900292314589,51.5415799645707 L 346.70237979106605,52.3454272756353 L 346.76496728882194,48.44754074793309 L 346.95272978395224,46.65329190436751 L 347.3352088369429,44.926382006146014 L 349.3797334190458,39.78807044867426 L 350.33245410583913,4.517575826495886 L 344.815159086138,5.669993218034506 L 342.0817200616002,5.689727013930678 L 340.16963755339384,4.643906833603978 L 338.48276568576694,2.93593836016953 L 336.3189771324396,1.577719608321786 L 334.0050481259823,0.5859732832759619 L 331.94724110513926,0.0 L 327.56667327694595,0.363411002792418 L 324.8376501966268,3.023300725966692 L 322.5060575865209,6.9386916272342205 L 318.0018447935581,12.839416000060737 L 316.5622630249709,14.416889112442732 L 315.15800837799907,16.621366335079074 L 313.78908093832433,17.87489182781428 L 312.68510719947517,19.357358992099762 L 312.0889614094049,22.252506585791707 L 311.1086327228695,24.620260136201978 L 309.0994004830718,24.620260136201978 L 304.76740751974285,22.594345804303885 L 302.139950029552,22.656499999575317 L 300.59438681416214,24.12291601859033 L 299.25195469148457,26.11530780978501 L 295.1098452489823,29.44274128228426 L 294.95087299123406,31.292240239679813 L 295.30414454080164,33.43073750752956 L 294.67708748579025,35.93204922042787 L 293.5996091533452,36.84052877034992 L 282.2860861904919,42.44940051715821 L 276.73089029826224,46.90312238223851 L 275.0351867135614,50.03244578279555 L 274.83205553516746,54.54723119083792 L 275.6269166469574,55.79549727216363 L 280.10463412106037,58.576444894075394 L 280.3519242219627,59.28602919541299 L 280.33426061831415,60.114905485883355 L 280.6257097274065,60.82462993822992 L 296.4037025049329,63.62725410051644 L 299.92317075282335,65.81724004726857 L 300.7180318646133,67.00480541959405 L 301.3804160375148,68.41989257745445 L 301.7955101970583,69.9603002499789 L 301.83966920524836,71.49248448573053 L 301.38483198173344,72.88279783818871 L 298.8059493564069,78.41808662936091 L 297.5209239013493,79.68157304264605 L 292.6369440704584,81.71382739115506 L 287.77062775567174,86.44928074255586 L 285.68632533214986,89.40934039838612 L 284.538192672655,92.3648307416588 L 284.6971649285406,96.15418290253729 L 286.26922346279025,99.29199647251517 L 288.7421247269958,101.66046269796789 L 291.62128817662597,103.15610925946385 L 296.9733528904617,104.23520974535495 L 301.4687339682132,107.27919968124479 L 304.5863558873534,108.27889538090676 L 302.68752095475793,112.28468969278038 L 300.28527418896556,115.58917875867337 L 294.42979738488793,121.01206838898361 L 280.06930699944496,138.31305026449263 L 274.83205553516746,143.21826416719705 L 273.1805107872933,144.36039586458355 L 271.9705555178225,144.67035037185997 L 270.98139502853155,143.18383074365556 L 270.0893843565136,142.3574733203277 L 269.0384013429284,142.09351681545377 L 262.53820388391614,142.21975568681955 L 260.50689218379557,141.66891021933407 L 258.8553475216031,140.51570553332567 L 253.85655435547233,135.3943587364629 L 242.0396194756031,128.71822563186288 L 237.5177429933101,124.10848914925009 L 236.41376925632358,123.35287036187947 L 234.49727080389857,123.13535768352449 L 228.51814895123243,121.08645938895643 L 224.9412741214037,119.10675741359591 L 222.15042851679027,116.75580733828247 L 217.9023374542594,111.26732944324613 L 215.06733292527497,108.35316358599812 L 211.50812152773142,106.325325245969 L 202.9942760579288,102.99625535774976 L 198.9051573369652,100.4846995677799 L 198.0749691054225,99.53737005405128 L 197.78351999633014,98.43610272742808 L 194.69239348173141,93.47948883846402 L 193.25281171314418,89.29536150768399 L 192.8112222366035,88.47761164605618 L 191.9192114789039,87.4149506893009 L 186.21829107403755,84.1851282697171 L 185.1805557217449,83.99149568844587 L 183.89994620904326,84.33889886084944 L 181.51536287553608,85.40683407802135 L 180.1729308385402,85.36980984080583 L 178.7333490718156,84.70340424962342 L 177.43507595732808,83.61563428211957 L 176.2736956384033,82.26610041316599 L 173.5932473372668,77.76650403812528 L 170.83772893808782,75.89173060189933 L 169.79999358393252,74.26482836622745 L 168.36482775956392,70.92676339950413 L 166.9605731125921,69.57374865096062 L 162.00593895465136,67.03890081495047 L 160.44712799414992,65.72349262610078 L 159.30782705172896,64.24356907978654 L 156.90116434171796,59.24629076849669 L 155.9208356551826,57.6739469897002 L 154.73737578839064,56.357282244600356 L 153.41260726936162,55.26212272327393 L 152.0348480269313,54.39404862746596 L 150.1845881305635,53.64519958663732 L 148.64344068802893,53.55443499144167 L 145.6759593077004,59.836711160838604 L 145.3138559591025,61.119894308038056 L 145.22995397262275,62.457241754978895 L 145.3756783977151,63.81753967050463 L 146.98306422308087,69.30658451654017 L 147.2303543239832,72.38805664423853 L 146.7534377258271,75.51057256665081 L 145.6759593077004,79.12948384974152 L 143.60932040214539,80.80010092165321 L 140.7654841579497,82.41983295511454 L 138.57961605861783,84.60088536236435 L 138.49571407213807,87.99042192194611 L 140.46520324796438,89.83677650801837 L 143.45918003097177,89.44923353940248 L 148.65227248892188,86.80533973500133 L 149.7032555025071,86.9591623172164 L 153.66431331448257,89.79118214640766 L 155.46158257313073,89.85957378987223 L 156.2122847624123,90.23003852646798 L 155.8060224056244,91.28738537244499 L 155.23195599019527,91.94865678343922 L 151.01919222064316,95.03628782369196 L 148.95255339890718,97.22089667618275 L 148.1223650816828,98.84691982436925 L 147.6719438880682,100.60455071926117 L 147.04047080501914,102.20845221262425 L 145.6759593077004,103.33880351576954 L 139.52903356775641,106.0911583499983 L 136.7293561603874,108.2674695411697 L 135.55472801066935,111.74169983621687 L 136.6763653513044,114.58853521198034 L 139.38772482983768,116.2696905946359 L 145.6759593077004,117.45358143933117 L 146.70927871763706,117.95693311933428 L 147.2921768501401,118.76922902744263 L 147.3230881113559,119.8047446468845 L 146.73577412217855,120.97201184928417 L 146.76226944290102,122.80337615776807 L 147.76026173122227,123.71922170557082 L 149.0055441223085,124.49205116275698 L 149.77390982955694,125.90051798895001 L 149.51778792776167,127.72732859384269 L 148.47122085653245,129.15930176712573 L 147.05371855013072,130.08736284822226 L 145.6759593077004,130.39101211354136 L 140.27973567135632,129.87538840435445 L 138.59286380372941,130.16757091414183 L 137.31225420720875,131.09575377311558 L 135.29860610887408,133.82938801217824 L 134.08865092508495,134.82107239123434 L 131.16532846726477,135.033183359541 L 125.32751526683569,132.03550992161036 L 122.36003380268812,131.41663327626884 L 120.46119903959334,132.0068571390584 L 119.20708476193249,133.2103668237105 L 117.2022685520351,137.02272554300725 L 115.97023382037878,138.5424638846889 L 114.49974079057574,139.3741463245824 L 111.25847381912172,140.31491648871452 L 108.57360974699259,142.47223988641053 L 105.27935205213726,149.17758768610656 L 102.9433436691761,151.46379954833537 L 97.55153589136899,153.0955844214186 L 92.91484616138041,155.4749366445467 L 89.06418574042618,159.32714833132923 L 84.58646818064153,168.5573569620028 L 82.7362082824111,170.61323071923107 L 80.40019981376827,171.77098357118666 L 71.488923702389,172.69270333182067 L 68.77756422571838,173.9199159955606 L 68.50819466263056,176.56514455471188 L 73.91766595840454,180.08201217651367 L 87.96021200157702,177.74686154536903 L 93.93050196766853,178.33490608725697 L 95.07863471284509,179.3035490969196 L 95.66153284348547,180.4914580900222 L 96.66835693642497,185.62581831030548 L 96.9863013625145,186.47418670915067 L 98.88072026893497,188.13657051324844 L 100.51018546894193,190.33055020403117 L 101.55233668163419,193.06813935562968 L 103.1023159250617,200.25756511930376 L 103.15972250699997,200.92252671346068 L 102.9433436691761,202.22949035838246 L 100.74864385463297,205.1391611136496 L 99.52102498151362,206.33690490946174 L 98.2757425904274,206.9966127295047 L 96.40340314619243,206.880870427005 L 94.61054982990026,206.35426487401128 L 92.89718255773187,206.4468522053212 L 89.19666259177029,210.53918492328376 L 69.28980802930892,221.85526218824089 L 64.22919242456555,226.60576119739562 L 60.745051296427846,233.8213329864666 L 58.974277356639504,234.994588509202 L 58.18383218720555,235.88336394913495 L 57.79081748984754,237.09180201869458 L 57.59651819802821,239.57900562509894 L 57.26091008260846,240.68921453412622 L 55.77275353483856,242.55543183721602 L 54.04613860324025,243.9219591654837 L 52.40342565625906,245.54466911405325 L 51.18463866971433,248.15686242561787 L 51.19347038678825,252.95309435017407 L 53.34401127882302,256.7445169258863 L 56.6868438385427,259.50046943407506 L 66.76391612738371,264.373932489194 L 69.0160225238651,266.946019442752 L 70.6189924068749,271.59668061416596 L 70.46443609334528,274.0953424759209 L 68.98069540411234,274.8836448499933 L 66.96704722009599,275.0296360272914 L 65.22718471474946,275.5902680475265 L 63.87592079117894,276.97450835164636 L 60.21955974586308,281.69570181518793 L 57.958621548488736,283.5604597358033 L 55.900814443826675,284.1041916133836 L 54.84983151592314,285.2502505071461 L 55.60053361952305,288.91180101782084 L 55.07945801317692,291.5918372068554 L 52.72137008421123,291.3343246821314 L 47.92129223793745,288.9293527882546 L 45.97388260997832,289.2452902458608 L 42.22920363582671,290.79006611090153 L 38.20190744102001,291.26409555692226 L 36.79765287972987,292.44637426547706 L 35.472884360700846,293.8805777411908 L 33.72418996691704,294.9695858815685 L 30.93334436044097,297.88610053248703 L 29.5202579125762,298.64762757439166 L 29.27296781167388,296.5858265068382 L 28.75189220532775,295.23893489222974 L 27.10034745745361,295.4087468814105 L 25.250087475404143,296.6619624700397 L 24.15052959509194,298.5538969570771 L 25.060204042121768,302.19854285568 L 33.51222698763013,301.841030892916 L 36.444381246343255,303.9922227906063 L 36.333983855322,305.79806269332767 L 35.22559417411685,307.41079016495496 L 30.75229264423251,310.9306823313236 L 29.290631415322423,311.4059955626726 L 23.708940118551254,311.41186365298927 L 22.24286294542253,312.0456622922793 L 21.770362205803394,313.45429717656225 L 22.631461700424552,315.8495894810185 L 19.469681028276682,322.58755522500724 z M 63.16054589301348,244.69546539057046 L 66.02204573899508,246.90010386984795 L 67.17901028692722,249.83868753537536 L 64.95339920930564,251.10757970716804 L 62.46725028567016,251.25310858432204 L 61.28820636309683,250.90384405944496 L 60.21955974586308,250.1296989666298 L 59.71614774316549,249.01227666810155 L 59.53951188363135,247.83683449029922 L 59.707315942272544,246.66157626733184 L 60.21955974586308,245.57956999447197 L 63.16054589301348,244.69546539057046 z" /><path fill-rule="evenodd" fill="#D2EBD9" stroke="#A6A6A6" stroke-width="0.25" opacity="1" d="M 116.32792131230235,51.526686638593674 L 115.48890119232237,51.41326169949025 L 110.52543531917036,52.669534490443766 L 104.87308969534934,55.23375277873129 L 86.8650700673461,59.03624815214425 L 80.52384486421943,61.528740546666086 L 72.91084195300937,61.60824089497328 L 68.0445256382227,62.8036833582446 L 65.67760599404573,62.88603647891432 L 64.62662298046052,63.12174169626087 L 62.86909678392112,64.15268083009869 L 60.502177054062486,64.7832399699837 L 58.55918328277767,65.74337829556316 L 56.74425042048097,66.96502746362239 L 55.75950587540865,68.13571792375296 L 55.60494956187904,69.31795303244144 L 56.20551129616797,71.1712409351021 L 56.395394729450345,72.30560285877436 L 55.984716430306435,73.04203159920871 L 53.94457301311195,73.96622069180012 L 53.1364642418921,74.56629154272377 L 52.70370648056269,75.49350625928491 L 51.67921887151897,78.73109339922667 L 50.87552595883608,79.59050407074392 L 49.33879454433918,80.62078403215855 L 48.7691440731287,81.73660068307072 L 49.5065985172987,83.36222281027585 L 49.020850118249655,84.54393095057458 L 47.88154917396605,85.2615862460807 L 46.689257591962814,85.50081940647215 L 45.85023755952716,85.90810240618885 L 46.08869585767388,87.88785954471678 L 45.85023755952716,88.58018183149397 L 45.04654464684427,88.67420565709472 L 44.26934713870287,88.36934452876449 L 43.456822423264384,87.75680961832404 L 34.554378198459744,90.70881918631494 L 32.31551946140826,90.01345703098923 L 31.76353259384632,91.68357137963176 L 30.871521750465035,97.1809635674581 L 29.55116917565465,99.43465453200042 L 27.471282608807087,104.09817280061543 L 26.782403029501438,105.16027300525457 L 25.991957776248455,105.60571339447051 L 25.130858283489943,106.65088587906212 L 24.433146903291345,107.79902533814311 L 24.15052959509194,108.58739911857992 L 23.682444714009762,109.15302111860365 L 20.60014999844134,111.26732944324613 L 19.809704830870032,112.5933535695076 L 19.142904713749886,112.77627147827297 L 17.769561415538192,112.83915038406849 L 15.592525202780962,114.422726765275 L 15.274580774828792,115.21177796460688 L 15.985539814457297,116.55563793238252 L 14.19710235670209,118.13997826911509 L 13.14611934311688,120.3711904278025 L 10.584900235757232,131.0212657833472 L 9.560412626713514,133.4167016390711 L 7.7587275095283985,134.7064202139154 L 8.35045744292438,135.5376870399341 L 6.380968181416392,135.59501906577498 L 4.552787745371461,135.95048743020743 L 2.998392729088664,136.85643287561834 L 1.810517005622387,138.5654057795182 L 0.834604175761342,142.77064084261656 L 0.0,144.16524569690228 L 2.4243263136595488,145.2328924536705 L 6.389800067991018,145.95622164290398 L 10.125647155568004,145.89881210960448 L 13.040137896314263,146.59923826623708 L 15.76916097663343,148.13236150797457 L 18.922109931707382,150.57335959281772 L 22.12804969586432,151.67637152597308 L 25.033708637580276,150.21146830916405 L 31.335190689191222,142.1222072802484 L 32.21395378746092,140.26902263518423 L 32.58488902263343,138.2155514191836 L 32.443580370396376,135.6236853506416 L 31.604560336098075,131.62865024339408 L 31.94016836769879,130.01288474351168 L 33.61379249021411,128.9358963733539 L 36.762325674295425,129.6863350784406 L 39.191067930310965,131.94955178257078 L 41.4785015322268,132.72320910543203 L 44.136870285496116,128.9702660543844 L 45.148110235109925,126.66784011945128 L 46.00920972973108,125.41954904794693 L 47.254492120817304,124.91570916492492 L 51.29945191927254,124.53785096295178 L 52.79202440939844,123.75356807932258 L 55.503383887931705,120.97773424722254 L 56.421890050172806,120.43985345494002 L 57.38455513305962,120.29108444787562 L 58.35605210438371,120.48562903609127 L 60.21955974586308,121.36114036012441 L 67.09069235622883,125.75164348632097 L 69.37812596000731,126.70219966210425 L 80.33396143093705,129.37125646229833 L 82.3166981805116,129.40562797896564 L 84.67478610947728,128.49483305681497 L 86.60894816368818,127.09734483063221 L 87.37731387093663,125.70011065434664 L 87.39497747458518,123.82226117700338 L 87.1167761106044,120.99490135442466 L 87.88955767638981,115.93800514470786 L 87.50979072228074,114.19403130467981 L 84.63504304550588,109.44441837165505 L 84.09188806451857,107.23350245412439 L 84.80726304650307,105.5657368209213 L 89.65591567195952,104.31514910422266 L 91.41344186849892,102.87636710237712 L 93.0384912956506,101.10680436529219 L 95.07863471284509,99.5202507423237 L 101.19906513392925,96.5135405967012 L 102.9433436691761,94.84238366037607 L 103.50416233949363,93.97557763475925 L 103.69846171699464,93.14307898376137 L 103.5218258574605,92.34772718604654 L 100.88112070597708,88.87935259193182 L 100.36004509963095,86.07330026011914 L 101.13724260777235,83.17715231515467 L 102.9433436691761,80.1938558826223 L 105.16453880257905,77.0011775828898 L 106.89556968025863,73.5140651864931 L 111.34679174982011,61.05743367597461 L 116.32792131230235,51.526686638593674 z" /><path fill-rule="evenodd" fill="#D2EBD9" stroke="#A6A6A6" stroke-width="0.25" opacity="1" d="M 37.20391515083611,286.00464042369276 L 35.22559417411685,286.32630272302777 L 34.40423774346709,288.9293527882546 L 34.669191448017955,289.2218869784847 L 34.96947227232158,289.39156204275787 L 35.65835193544626,289.3798601711169 L 38.10475770942867,287.25627697072923 L 37.20391515083611,286.00464042369276 z" /><path fill-rule="evenodd" fill="#D2EBD9" stroke="#A6A6A6" stroke-width="0.25" opacity="1" d="M 499.4158500712365,210.78505391348153 L 497.8094378951937,211.1999434698373 L 496.73849644325674,210.85344068240374 L 495.47283834964037,211.91123579908162 L 494.6383385118097,213.57117763347924 L 494.83305515535176,215.02620654646307 L 495.9457215759903,214.15041899029166 L 496.7663131188601,214.4104078458622 L 497.5173629298806,214.98515173234046 L 498.3935878239572,215.02620654646307 L 499.61752086132765,213.70800237730145 L 500.0,211.9477140326053 L 499.4158500712365,210.78505391348153 z" /><path fill-rule="evenodd" fill="#D2EBD9" stroke="#A6A6A6" stroke-width="0.25" opacity="1" d="M 479.72165390476584,222.1868370771408 L 478.4490416627377,221.89461991377175 L 476.752225311473,221.98593665473163 L 477.1764294207096,224.71681421250105 L 474.3878090903163,228.5179399214685 L 474.4225800000131,231.19175343960524 L 475.46570477448404,230.62948840577155 L 476.752225311473,231.05461175367236 L 477.3363752402365,230.35522785969079 L 477.5310918837786,228.01070795580745 L 478.36559172160923,226.77704264223576 L 479.42957902513444,225.81309637706727 L 480.30580383352935,224.28748038597405 L 480.38925377465785,222.95396087598056 L 479.72165390476584,222.1868370771408 z" /></g></g></g></svg>