<svg xmlns="http://www.w3.org/2000/svg" xmlns:xlink="http://www.w3.org/1999/xlink" width="500.0" height="484.8644972778857" viewBox="0.0 0.0 500.0 484.8644972778857" preserveAspectRatio="xMinYMin meet"><g transform="matrix(1,0,0,-1,0,484.8644972778857)"><g><path fill-rule="evenodd" fill="#D2EBD9" stroke="#A6A6A6" stroke-width="0.25" opacity="1" d="M 248.1874136403203,57.85091247688979 L 235.78065718337893,65.51665955223143 L 238.02221404761076,65.43121733237058 L 241.49402076378465,63.85065747611225 L 243.65217081829906,63.24554972909391 L 241.74424106255174,65.13217463437468 L 238.87713338807225,66.79837485775352 L 245.7761770207435,68.25430248957127 L 249.39092212542892,70.93194737285376 L 248.95397487096488,75.78235053922981 L 244.99496839940548,85.10016988962889 L 239.73836125992239,91.33466625958681 L 221.1217626426369,103.67386182118207 L 219.16212067008018,106.00634305365384 L 217.67914847657084,109.38798027206212 L 216.606641728431,112.98412502650172 L 215.75922890007496,114.8507817024365 L 214.40866473689675,116.09085740242153 L 211.81346339918673,117.75360160320997 L 206.59657865576446,122.64338261354715 L 201.63126964308321,130.22331929206848 L 198.77125147543848,139.01039431244135 L 201.18108154647052,153.82962341792881 L 199.14199465326965,158.3893166128546 L 195.1697474680841,161.07132579758763 L 182.77633600868285,163.0011476939544 L 175.32175200618804,167.22242433205247 L 168.39680114760995,173.45014724414796 L 162.17361373640597,180.73718604631722 L 141.91515282727778,201.5612851511687 L 127.66802612692118,212.94669299013913 L 125.82755159772933,215.88551524467766 L 124.7418040074408,219.65536845196038 L 124.2783750705421,222.64193328935653 L 123.31179505214095,225.22546314727515 L 118.02870623022318,230.15105793159455 L 113.85784655250609,235.9563761204481 L 107.58169590122998,242.43140737060457 L 102.55018268153071,249.91778726130724 L 100.56405915506184,252.26411993149668 L 98.31311905384064,254.01270653959364 L 92.69900970719755,256.05615862552077 L 91.65298451296985,258.15525074023753 L 91.07038825750351,260.77970255259424 L 89.41528525389731,263.5061395978555 L 88.13092529773712,264.0312439063564 L 84.7942376062274,263.7825071811676 L 83.41719188913703,263.92069350741804 L 82.15931361727417,264.6392920669168 L 80.71606381982565,265.7633518213406 L 78.25327051244676,268.2422349732369 L 76.37307345867157,271.3854482797906 L 73.52629626169801,278.3665469586849 L 71.67258089222014,281.6235152166337 L 66.11143478378654,287.63263368140906 L 64.01938465237617,290.6985125904903 L 61.62279542349279,298.3856042670086 L 60.404639545828104,303.97890595532954 L 60.285472229123116,306.6980476556346 L 60.65621527843177,308.64997447282076 L 61.95381607487798,311.54615452792495 L 62.404004042968154,313.04544953256845 L 62.748265536502004,316.04468175023794 L 62.36428152024746,317.83166856411844 L 60.987235801294446,319.20220674108714 L 58.325830256566405,320.9341557910666 L 55.99544523470104,321.5362373208627 L 54.56543627940118,321.59181569796056 L 54.08876662701368,321.0267815673724 L 54.15497070737183,322.42552828323096 L 56.08813099749386,323.88931719306856 L 56.85609877668321,325.16798357013613 L 56.82961709424853,327.9296933570877 L 55.96896355226636,331.331858869642 L 52.81764738447964,340.1715252082795 L 52.14236536808312,343.6890589604154 L 51.29495266824961,346.84563601017 L 49.81198034621775,348.80504943896085 L 47.097611306235194,349.26013133861125 L 42.436841264367104,347.17991761956364 L 39.788676431402564,347.5142097240314 L 37.153752440586686,350.3561245724559 L 38.16005523875356,353.23597604222596 L 40.278586925938725,355.96792243793607 L 40.84794246777892,358.33804576005787 L 42.105820739641786,359.0538356266916 L 41.64239192940295,361.47115086205304 L 41.00683230906725,363.72161568235606 L 40.00052963942289,365.41443347837776 L 38.42487155646086,366.17722111940384 L 35.30003707110882,366.6237568901852 L 33.69789743423462,367.15404291730374 L 32.40029663592577,368.02860827650875 L 30.69223026558757,370.54106536414474 L 29.725650249049067,375.02776958141476 L 28.3486045319587,376.98316098190844 L 27.382024386897683,377.0762841152027 L 26.322758350521326,376.470999407582 L 25.237010760232806,376.1823374070227 L 24.25718990340829,377.1973451618105 L 22.999311501160264,382.3204502481967 L 22.125417118892074,383.3453733101487 L 20.523277351632714,383.4478711914271 L 19.62290141545236,382.3204502481967 L 18.934378555044532,380.77393904235214 L 17.981039252132177,379.6188631821424 L 16.882050819694996,379.24628541525453 L 14.591388195753098,379.06931564956903 L 13.359991604462266,378.6595023656264 L 11.47979455254972,378.37077983189374 L 10.367565408349037,379.5629757679999 L 9.533393420279026,381.38878967799246 L 8.553572434931993,383.04720366187394 L 5.5346645545214415,385.13457112107426 L 4.819660011678934,386.0572462277487 L 1.5888989251106977,391.4364827023819 L 0.15888996981084347,394.57021196372807 L 0.0,397.59291502274573 L 1.866956340149045,400.08450575731695 L 4.501880329102278,400.90583460312337 L 6.73957946151495,401.9512562714517 L 7.34865739941597,405.14417552948 L 6.143742363899946,408.5809255903587 L 4.091414757072926,411.83194043673575 L 2.330385150387883,415.46718007698655 L 1.8934378940612078,420.01067985314876 L 2.91298127733171,423.1997946584597 L 6.090779127553105,428.7573658162728 L 6.580689620226622,431.9585290644318 L 5.057994902133942,437.4552252693102 L 5.110958268865943,440.8370931362733 L 8.116625178605318,448.66364699602127 L 8.672739880159497,451.4864048594609 L 8.196070227771997,462.26872794888914 L 8.315237544476986,463.66778066474944 L 9.771728310734034,467.63122468907386 L 13.929347019642591,471.48341884091496 L 20.854298004880548,472.6205600788817 L 33.11530117876828,472.2822240861133 L 36.054764138534665,472.8555224305019 L 37.458291409537196,472.78973231837153 L 38.99422709830105,472.019081460312 L 40.1196970846504,470.4027807135135 L 40.05349300429225,468.80552213825285 L 39.576823353767395,467.4715305939317 L 39.497378304600716,466.6355248345062 L 40.609607577323914,465.7995867943391 L 43.41666237823665,465.19850442465395 L 45.018802016973495,463.9588824175298 L 46.978443989530206,460.69149952195585 L 49.70605374313891,453.5969424061477 L 51.94375300221145,450.6235535060987 L 63.66188244521618,438.8884030720219 L 67.27662729285657,436.6216378044337 L 72.16249151341617,434.4864604398608 L 76.88946563564241,433.4096737392247 L 80.0143001191318,434.26173055451363 L 82.10635037906468,441.99898646678776 L 84.71479268558323,446.89161026943475 L 85.31062978319824,448.3635981073603 L 85.57544622756541,450.49225632473826 L 85.31062978319824,451.67399084288627 L 85.28414822928607,452.69639377016574 L 86.23748753219843,454.3756046080962 L 87.42916159704328,455.21062094252557 L 90.79233097098768,456.27090711984783 L 92.16937668994069,457.28437945991755 L 93.91716545447707,460.05316568817943 L 98.11450668796897,469.3974185362458 L 104.13908173516393,473.5322431847453 L 111.58042489737272,473.278467644006 L 137.1087336577475,465.6399209648371 L 140.36597642675042,466.07196379546076 L 141.96811606548727,467.49971168302 L 142.16672855988145,468.82431200612336 L 142.0740426685661,470.4027807135135 L 142.80228805169463,472.5735683226958 L 144.08664800785482,473.85182104166597 L 145.51665696315467,474.47220658604056 L 146.7745353654027,475.3464490622282 L 147.48953977786005,477.37723381165415 L 148.52232412993908,478.0260405568406 L 149.85964732430875,479.5306770177558 L 150.90567239001393,481.0449385261163 L 151.2896562796086,481.88211034704 L 154.7984747812152,484.8644972778857 L 155.85774056054652,483.8200934808701 L 156.89052491262555,479.99151591025293 L 157.07589643634856,478.55263855773956 L 156.9964515157044,476.98232765775174 L 157.73793774098158,475.97632582485676 L 160.3861024454236,476.26777435000986 L 159.51220806129277,478.7501194747165 L 161.4056458286941,478.0636538490653 L 162.96806306950748,476.1267498033121 L 164.31862723268569,475.1960366182029 L 165.55002382211387,477.5182752367109 L 166.22530596889555,475.0456261811778 L 166.0928976815194,473.9364168867469 L 165.55002382211387,472.42319620773196 L 169.13828711770475,475.02682500798255 L 171.62756210751832,469.5665380647406 L 177.09602245502174,465.4239061316475 L 188.45664956234396,460.13764879480004 L 189.83369527943432,460.93557865638286 L 195.93771524727345,461.3768132533878 L 196.48058897815645,462.1936162803322 L 198.94338228739798,467.5842555919662 L 203.92193214036524,464.28755576722324 L 206.3185212407261,463.2921773744747 L 210.52910331450403,460.52252496033907 L 211.70753666758537,459.50873568095267 L 213.48180711641908,458.5138169908896 L 215.83867382071912,458.7672305190936 L 220.10221913270652,460.13764879480004 L 220.69805622845888,461.87439831346273 L 221.28065248392522,462.58795825671405 L 222.28695515356958,461.94011887628585 L 223.02844125032425,460.7290496574715 L 223.17409037798643,459.69646700192243 L 222.7768656462431,458.69214424770325 L 221.85000802576542,457.54714770428836 L 223.46538850665092,456.9934651227668 L 225.00132406502962,457.26561034750193 L 228.0599544700235,458.8892465978861 L 226.88152111694217,455.10741318017244 L 226.21947994083166,453.934668189846 L 227.17281924560666,454.2724051643163 L 233.60785986483097,455.12617801874876 L 236.41491453908384,454.8353244708851 L 237.81844181194901,455.0229710973799 L 240.4666066430509,456.6931751044467 L 245.19358089379966,461.73357001971453 L 247.96091317012906,463.1888888506219 L 252.2112176399678,462.9353670729324 L 256.024574983865,460.76660011149943 L 259.4671892784536,457.35945534333587 L 266.65695683658123,448.04480603151023 L 268.97410101629794,445.90727620664984 L 271.5560616403818,444.8667962020263 L 272.82718088291585,445.0167690580711 L 276.61405641399324,446.60098755639046 L 280.12287491746247,447.28536999132484 L 281.2218632195145,447.8854136709124 L 283.34039516188204,449.87330617476255 L 291.1259996891022,459.2740765437484 L 293.0459191389382,460.2784555638209 L 295.04528363607824,460.2972299568355 L 297.0843705292791,459.18960048351437 L 304.1682113558054,452.77143641002476 L 307.00174784101546,451.43012985400856 L 309.4910227023065,450.93304627388716 L 312.28483666293323,450.87677427288145 L 315.0124464146793,451.45826731808484 L 317.2633865159005,452.8652406996116 L 318.1372809000313,454.7696489812806 L 318.229966532439,457.05915489513427 L 318.521264789626,459.3210077639669 L 319.9247920624912,461.08578392025083 L 323.07610822841525,461.7523468695581 L 326.1612203158438,460.52252496033907 L 331.9871829971671,456.31782491505146 L 333.89386160485446,455.47333658114076 L 342.93734440393746,454.70397372730076 L 345.38689687103033,453.5781801547855 L 347.5981145761907,451.7208880055696 L 352.3118478562683,446.61036245524883 L 355.476404864341,444.5668573612347 L 358.8395741097629,443.3109579766169 L 361.9246861971915,443.20786845497787 L 361.686351435259,445.75729065202177 L 361.06403265707195,447.96979761030525 L 361.13023673556745,449.582600036636 L 363.01043378748,450.3703389260918 L 364.04321801289916,450.30469173099846 L 366.1087865885347,449.78890673816204 L 367.14157094061375,449.75139623880386 L 368.0022244825959,450.0889967083931 L 369.78973564505577,451.1862746030092 L 370.6371484734118,451.33633855357766 L 371.6037286184728,450.8955314513296 L 372.1730840317905,450.07024080865085 L 373.04697841592133,447.69789624400437 L 373.77522379904985,446.2353771170601 L 374.6623590234667,445.0355156362057 L 375.7083840891719,444.54811144899577 L 376.9132989961654,445.2042376343161 L 377.9328425079584,448.23232973366976 L 378.60812452435493,448.9355733320117 L 379.48201890848577,449.0293429074809 L 380.236745974049,448.56050423905253 L 380.8723054677248,447.73539949487895 L 385.6522429548204,437.92356233112514 L 387.1881786417216,436.06907163746655 L 388.69763264618814,435.4041583677754 L 392.27265509963036,435.0576709052548 L 393.1597903240472,434.7205593502149 L 393.6761823706329,434.2242759857327 L 394.0336845777929,433.4658510517329 L 394.40442775562406,432.36108424700797 L 394.55007688328624,430.4795063212514 L 395.4769345037639,429.0755659947172 L 395.6755468696356,428.44853371102363 L 395.2915628515184,426.661232159473 L 392.51098986156285,424.53745659906417 L 391.58413211256266,422.76953434664756 L 392.961177829653,417.57040531467646 L 397.3703723978251,412.83173825312406 L 402.61373869515955,409.3935841154307 L 406.57274503819644,408.0672086952254 L 421.34950475767255,408.45015890337527 L 426.831205945462,410.1502542188391 L 429.4793707784265,410.53328092209995 L 431.5449393540621,411.2806910369545 L 443.03797462023795,419.6834067385644 L 444.6533552277833,420.0667847469449 L 445.461045531556,418.9821417480707 L 445.9377151839435,417.4675710313022 L 446.57327467761934,416.5981947835535 L 447.8576346319169,416.5981947835535 L 450.12181557528675,417.57040531467646 L 451.3929346892983,417.82282100245357 L 457.0732482429594,416.5981947835535 L 458.2516815960407,416.7851513149217 L 459.3109475020319,417.3179957559332 L 460.4496583305299,417.3179957559332 L 463.01837824098766,414.8503145975992 L 464.28949735686183,414.40170815680176 L 465.5870980247855,414.541895669885 L 465.9313596468419,414.73816103767604 L 465.95784120075405,414.9063916504383 L 467.9439648576081,412.756983589381 L 468.4735977463424,411.72916288208216 L 468.8443407956511,410.2249899720773 L 468.9635082408786,408.39411646313965 L 468.51332027092576,407.89908864721656 L 467.83803825452924,407.72163162380457 L 467.30840536393225,406.88108663633466 L 462.7800433523953,385.097293167375 L 461.4559610001743,381.76144395861775 L 460.2245644107461,379.8983052819967 L 457.64260365627706,377.7188553940505 L 456.27879878133535,376.24751842208207 L 455.31221863627434,374.58087436202914 L 453.4717441070825,369.18240246735513 L 447.4471690598875,358.877207624726 L 446.8645728044212,358.29156761895865 L 445.47428624518216,357.47358563449234 L 444.83872675150633,356.6556674465537 L 444.57391017861664,355.4474967168644 L 444.7063184659928,352.567036524415 L 444.45474286191165,351.2943117162213 L 443.72649760730565,349.86384220886976 L 442.8923256210983,348.63788134790957 L 441.8860229514539,347.78350851591676 L 437.35766119509935,346.27923895884305 L 437.02664041519165,343.4477128619328 L 439.07896827720106,335.48640818241984 L 438.82739254646003,330.57160628400743 L 437.317938670516,327.93896198645234 L 435.5436682216823,325.6869070716202 L 434.44467991776764,321.9438195163384 L 434.6697738375515,318.52617569454014 L 435.6628356669098,314.9522696090862 L 438.5096128638834,308.79800267424434 L 440.8267570436001,305.9765742365271 L 443.4087177962065,304.7927250061184 L 448.90365969762206,303.59051437024027 L 451.5518246591091,302.24050339870155 L 452.67729464545846,301.88915917743 L 454.4912876188755,301.78745639603585 L 458.62242464348674,302.7952814679593 L 460.09215612336993,302.50864237640053 L 462.263651303947,300.67803585343063 L 464.47486888058484,297.43365238420665 L 466.06376780569553,293.58975253719836 L 466.3285842500627,289.95966488681734 L 467.1362745538354,287.6695668948814 L 469.5461044963449,285.14918757323176 L 475.14697312936187,280.98680503480136 L 476.5107780061662,279.6120109464973 L 477.4111540708691,279.0953560760245 L 478.1658810097724,279.316776541993 L 479.6091308053583,280.79303110204637 L 480.3770985864103,280.81148561742157 L 481.4628461766988,279.3998103933409 L 481.7409035898745,276.20809148810804 L 482.5485937651247,275.0736961103976 L 484.5347174219787,273.2109696203843 L 487.5933478269726,268.71227474696934 L 491.7642073761672,266.26092486735433 L 493.85625750757754,263.6995961824432 L 495.0479317009449,262.7415609834716 L 496.29256926104426,264.30762523785233 L 497.4445209298283,264.7129971627146 L 499.04666069708765,263.2758391033858 L 500.0,259.9232306405902 L 498.9142524097115,256.9951747134328 L 496.7295163888484,254.5557476747781 L 491.45966840721667,250.60783097613603 L 488.42751968465745,249.50378268864006 L 485.28944436088204,249.22778841108084 L 477.99375032633543,249.96378875058144 L 471.187966786325,249.47618282958865 L 469.2812880501151,248.9058044301346 L 467.42757268063724,248.80461143981665 L 465.77246967703104,249.8441851520911 L 462.46226366981864,252.9543168572709 L 459.21826174110174,255.25529915932566 L 457.5234362129122,255.88125315401703 L 455.6564800012857,255.77078786399215 L 453.00831529684365,254.89631308149546 L 451.9093268662691,253.92066850792617 L 451.20756316557527,252.22731064260006 L 451.2208038792014,250.95747028198093 L 451.82988181710243,248.72181808855385 L 451.5518246591091,247.46159680280834 L 450.09533389285207,246.02678322978318 L 451.59154705516994,245.07954540010542 L 456.0007414948195,241.68214130681008 L 459.9067845996469,236.6087548425421 L 466.76553150452673,225.49624256324023 L 479.86070653796196,211.2827912159264 L 482.4294263217598,205.4451549788937 L 485.5012975670397,195.59626524709165 L 485.71315077506006,190.91083066910505 L 482.4294263217598,187.67707203980535 L 481.8865525908768,185.5644534761086 L 481.6482177004218,183.01340868603438 L 481.80710767023265,180.55894808657467 L 482.4294263217598,178.68991526495665 L 483.35628407076,177.81720328703523 L 483.7137864045799,177.00852322857827 L 483.43572898954153,176.27299760095775 L 482.4294263217598,175.63345146086067 L 477.5832847543061,177.58418752253056 L 476.0341083537787,177.456259297207 L 474.4319687150419,173.58716180641204 L 473.33298028446734,172.0846678391099 L 472.326677614823,173.65566939488053 L 471.26741170696914,176.62933287397027 L 469.4534187335521,180.01054260786623 L 467.26868271268904,182.83970388863236 L 465.110428372398,184.1242723343894 L 463.73338265530765,183.7128278799355 L 460.7674381416291,181.34961562231183 L 459.25798413716257,180.49039590079337 L 457.76177110150456,180.42641404736787 L 454.4912876188755,180.961130047217 L 453.0877600889653,180.54980766307563 L 451.3134897686541,177.6298762820661 L 450.1085747331381,173.67393824178725 L 448.5726391747594,170.6782697942108 L 445.73910281807184,170.6782697942108 L 439.6350828502327,171.62345841061324 L 436.4440442863852,171.23532742075622 L 433.0146708339453,167.16308666858822 L 430.4989141598344,166.16352552734315 L 427.75806356593966,166.06768203526735 L 425.5998093560338,166.82988932635635 L 423.9182246681303,168.95248966943473 L 422.5411789510399,171.55952997412533 L 420.7404268197715,173.3451043171808 L 417.8274455424398,173.05281589739025 L 415.9340077769011,171.65085637848824 L 412.8886182140559,168.23121461551636 L 410.53175150975585,167.03984800167382 L 409.31359563209116,166.16808948200196 L 408.5588686950505,164.71683815680444 L 408.6250729020685,163.2292821276933 L 409.8564694914967,162.30308675207198 L 411.82935217767954,161.75561991799623 L 412.75620992667973,161.16712439898401 L 414.4642761684954,158.49421230331063 L 414.3980720899999,157.34497483540326 L 413.84195751696825,155.8949232250452 L 413.8287166748196,154.98760093934834 L 416.649012317881,155.72165963985026 L 417.549388255924,155.04687091708183 L 421.98506437800825,149.17618529405445 L 425.7851808797568,138.55061170645058 L 429.6382607463747,131.17403199430555 L 428.7246438395232,130.39162113610655 L 425.3614744655788,130.20512463338673 L 423.8785021454096,129.39549475628883 L 421.0846883133054,125.03455287963152 L 419.7473651189357,123.82980918791145 L 419.297177022323,124.85724254045635 L 416.6887347139418,128.24938168004155 L 415.52354220300913,130.22786791808903 L 415.2190032340586,131.7017367426306 L 415.2454847898334,134.17228714749217 L 414.3451088517904,135.44190777745098 L 410.90249455720186,137.8678028518334 L 407.7909009139985,138.760015190579 L 400.1641862299293,138.04077695310116 L 397.8073195256293,136.90739201381803 L 399.3829776085913,133.87196867819875 L 396.00656739249825,132.79362234752625 L 379.65414971858263,120.72992180008441 L 377.7077484577894,117.86264299135655 L 380.79286054708064,116.33162142708898 L 375.2714369613677,108.5481452262029 L 373.1926275435835,104.10492418985814 L 372.106879953295,98.42989868670702 L 372.1730840317905,93.84579730313271 L 374.4637465290725,80.48552773799747 L 369.26010275632143,81.22355631086975 L 361.6466289125383,81.12394208833575 L 354.4833430368453,79.50307738687843 L 350.6037816144526,75.78235053922981 L 348.1409883070737,68.91912858281285 L 348.20719251409173,65.88930156547576 L 349.47831149958074,62.38571314048022 L 352.51046022213995,56.235714136622846 L 353.2387056052685,52.88880474679172 L 352.2986070141196,51.18638972938061 L 350.6964673772454,49.93571488931775 L 349.4385891035199,47.98097881767899 L 349.5577564202249,44.943488775752485 L 350.74943061359227,40.76551469787955 L 352.4839785397053,36.584646492265165 L 356.9328955039382,29.30017887149006 L 359.54133781045675,26.587788115255535 L 361.73931467346847,23.72294425778091 L 363.063397154212,18.949888499453664 L 363.01043378748,13.872945836745203 L 361.5804247036576,10.282715177163482 L 358.8660559207201,7.615556741133332 L 354.94677184708416,5.326731173321605 L 355.8471479136497,3.586827498860657 L 356.12520519830287,2.0269963005557656 L 355.648535547778,0.9662592634558678 L 354.324453195557,0.7774947360157967 L 352.8812033981085,1.712360112927854 L 351.39823094941676,1.8292238181456923 L 349.95498128049076,1.21795017644763 L 348.63089879974723,0.0 L 346.53884866833687,0.7685061134397984 L 341.9575234185904,1.271884604357183 L 340.06408565305173,2.507957831956446 L 337.3894391376525,6.4508484825491905 L 335.9859117362648,7.534607701934874 L 332.5168158877641,7.309752449393272 L 325.53890153579414,9.6889569433406 L 321.3150786217302,11.983202600851655 L 298.92484518513083,27.08786237705499 L 291.999894073233,31.56703385990113 L 288.9942270331085,34.100344150327146 L 283.4860442895442,40.35502338781953 L 280.36120967939496,42.75503935944289 L 275.8725703191012,44.02293223980814 L 274.4690429177135,44.92543769814074 L 270.4570732098073,51.24057394172996 L 270.1922568921,53.23654614016414 L 270.3379057645798,57.45097589865327 L 269.9671627152711,59.14986123237759 L 268.4841903951019,61.16085619479418 L 267.31899801269174,61.12018066365272 L 266.2994545008987,60.23891522176564 L 265.2799111176282,59.67855848465115 L 262.55230123735964,60.157571443356574 L 257.1897674947977,62.27723313122988 L 254.36947198025882,62.8467656634748 L 251.53593562357128,62.1777940094471 L 249.8013876993209,60.338336462154984 L 248.1874136403203,57.85091247688979 z" /></g></g></svg>