<svg xmlns="http://www.w3.org/2000/svg" xmlns:xlink="http://www.w3.org/1999/xlink" width="500.0" height="408.30953384097666" viewBox="0.0 0.0 500.0 408.30953384097666" preserveAspectRatio="xMinYMin meet"><g transform="matrix(1,0,0,-1,0,408.30953384097666)"><g><path fill-rule="evenodd" fill="#D2EBD9" stroke="#A6A6A6" stroke-width="0.25" opacity="1" d="M 0.0,323.49277517199516 L 2.621893735602498,325.42029250226915 L 7.5434978529810905,327.0601236214861 L 25.15988351032138,340.44157210644335 L 52.14421512000263,356.3891367651522 L 78.26251339539886,373.64792840275913 L 107.40640594810247,383.1166043635458 L 108.52948200702667,375.113408931531 L 107.9929637350142,369.96210408583283 L 107.89907318353653,365.1245609233156 L 109.73664815351367,359.91434604953974 L 112.88869266211987,356.4478081194684 L 116.81868856959045,354.6266392627731 L 120.96329178474844,354.1392679391429 L 127.1064253859222,355.10332351736724 L 127.48198811151087,357.0638704271987 L 127.14666430652142,359.68927771784365 L 127.38809743151069,362.0849228054285 L 128.80987062491477,363.55369204375893 L 130.71451045945287,364.03082290291786 L 132.79351842403412,364.1541300257668 L 137.95750629343092,365.31758659519255 L 141.1632026936859,365.505254031159 L 144.47620275057852,364.9637091131881 L 160.3437289521098,359.6732015227899 L 162.79829990118742,358.0550106726587 L 163.46894764341414,355.33899626135826 L 163.25434033572674,353.0360793918371 L 163.46894764341414,350.8729152875021 L 165.40041316486895,348.57107617519796 L 167.00996785238385,347.8592246565968 L 182.36780185624957,348.05190111510456 L 185.27841311134398,348.9885780448094 L 191.19352656044066,353.6412105644122 L 207.2756602000445,361.7633246956393 L 213.7138786893338,366.8404813501984 L 218.82421479560435,373.8414213778451 L 219.54851430095732,375.90781615301967 L 220.5830176025629,381.61512204352766 L 223.12243239209056,379.2443253332749 L 224.1574477981776,377.1812221268192 L 225.07628816738725,373.39439315907657 L 227.22024872526526,370.77492367010564 L 229.57543690875173,368.7136543896049 L 231.15964434295893,366.678166215308 L 231.63490649499,365.3608206436038 L 231.82501140795648,364.0943138021976 L 231.4764857776463,362.63381831534207 L 230.34641778469086,360.7599842986092 L 231.85669547319412,361.5196022707969 L 232.9022723659873,362.6844676695764 L 234.77163703925908,366.678166215308 L 230.39922482147813,368.5616111718118 L 229.38533212430775,369.38943120092154 L 228.8783857766539,371.23116659745574 L 228.97343810275197,375.72717212326825 L 228.57210556790233,377.89142032247037 L 227.61101990751922,379.5572120035067 L 225.7191383149475,381.9017146686092 L 229.48751433938742,381.7713043419644 L 234.1820488013327,379.209611190483 L 236.69027151353657,378.350497527048 L 242.73951430432498,377.958552361466 L 245.20749809779227,379.2740477267653 L 245.85132002457976,382.8563382746652 L 245.05995565280318,384.8978263353929 L 242.14934439957142,388.38011124171317 L 241.14337258972228,390.2507533095777 L 241.23726340010762,392.3583540832624 L 242.0822795331478,393.9823853550479 L 242.3505386058241,395.46684205532074 L 240.7812228370458,397.1936210980639 L 247.56817823648453,401.17017111275345 L 254.5295021533966,403.7431693915278 L 258.36560737900436,404.3784520253539 L 260.00198801234365,404.07695673871785 L 261.0347855091095,402.3381614657119 L 260.860417118296,398.856144040823 L 259.7605547569692,396.2629504837096 L 259.51912163197994,394.229778714478 L 262.0005183983594,392.4443884268403 L 263.71737674064934,392.2830745931715 L 267.4595911540091,392.97136651631445 L 271.60419449955225,391.92281657550484 L 273.61613786034286,392.0572396963835 L 275.359822018072,392.7240056777373 L 276.7011175043881,393.72424271237105 L 286.73400835320354,406.09608097281307 L 291.01274103857577,408.30953384097666 L 292.89055479876697,408.12640631198883 L 295.25123493745923,407.22159238439053 L 297.4241337124258,405.78376182354987 L 298.7654291987419,404.0177354393527 L 299.0471013728529,400.87415946740657 L 298.2423240300268,397.88764873333275 L 297.6655668374151,394.7353417985141 L 298.6044737827033,391.11631856672466 L 292.9442065600306,393.7672660695389 L 291.4821944460273,393.5521514406428 L 290.7444818392396,391.0518015883863 L 293.49413780495524,389.8583179656416 L 302.5747086070478,389.54653170891106 L 304.9622146934271,388.90148888900876 L 309.97865998744965,386.5850707134232 L 312.78196771629155,387.3589388662949 L 316.0547288544476,390.5571865811944 L 319.04581794701517,394.6223944583908 L 321.07117414847016,397.9898741124198 L 321.9698423035443,400.55124820396304 L 322.4124697651714,402.4888803400099 L 323.1904212925583,403.7431693915278 L 325.1889515481889,404.26000624801964 L 325.5511014312506,403.76470372546464 L 329.44085841812193,401.17017111275345 L 331.98931992053986,396.28984718583524 L 331.53327948600054,392.8261757744476 L 330.08468034490943,389.49815197009593 L 329.6286397818476,384.99453928973526 L 330.4602430704981,382.9745177999139 L 334.92675724998116,378.01224266551435 L 335.6108179669827,376.20842000842094 L 336.9387004803866,371.62524169124663 L 337.5691094342619,370.2678849538788 L 339.8090730737895,369.0233642542735 L 344.8255183696747,369.4632192328572 L 347.22643729671836,369.2218327494338 L 349.50663985684514,366.31494771223515 L 349.5737045928836,358.9283707300201 L 351.8539070226252,358.3443357627839 L 356.7496356908232,359.571386734955 L 372.1074696946889,358.92301269993186 L 374.81688661314547,359.92506385035813 L 380.2625466566533,363.7788518536836 L 382.82442113012075,365.0173262199387 L 385.6277288608253,364.6956289364025 L 388.6724697146565,362.7656747009605 L 391.0733886435628,359.6142558455467 L 391.99888261407614,355.596100688912 L 392.4146842584014,350.88362272270024 L 395.3789474051446,348.34092289209366 L 402.72924702242017,346.1146097192541 L 404.4863441530615,344.8732376275584 L 405.7337490878999,343.4340902334079 L 407.14210943877697,342.4230718081817 L 409.36865997873247,342.4444679412991 L 414.8009069170803,343.56783097051084 L 416.46411349624395,343.3912937846035 L 418.5833603814244,342.11818258464336 L 421.292777299881,338.3640287872404 L 423.0230487436056,336.90447844658047 L 427.0066964123398,337.9202589476481 L 429.2198341079056,337.74382618255913 L 430.6952591948211,334.11431126855314 L 428.87109719775617,332.30274277646095 L 428.4552955534309,329.9412727262825 L 431.4061458557844,326.7686325414106 L 430.21239268407226,325.96228746976703 L 428.89792314358056,325.4283215338364 L 427.5029757656157,325.21474347356707 L 426.08120244182646,325.3695869827643 L 426.4031134042889,323.8746506087482 L 426.9664576239884,322.41197489667684 L 426.000724863261,319.5780104007572 L 425.2898380719125,318.11065643653274 L 424.31069233827293,316.7715593939647 L 422.79502833262086,318.0733086569235 L 421.7354048900306,317.417076876387 L 421.0781701207161,315.416647833772 L 420.7696721293032,312.6807385664433 L 422.52676925994456,310.2814624905586 L 420.4745871126652,305.2502689063549 L 415.3642511367798,297.0589222414419 L 418.26144941709936,297.8468614919111 L 419.50885435193777,297.81491680815816 L 420.7696721293032,297.0589222414419 L 419.28083406947553,294.5464680157602 L 417.0408704280853,289.75759761128575 L 415.3642511367798,287.2257849276066 L 414.7472551558167,286.7258840845898 L 411.7427530903369,285.5772748477757 L 402.3805102426559,275.0866365721449 L 402.6621821578592,270.48798092175275 L 404.7680163271725,267.3562098927796 L 407.6920405551791,265.3078417852521 L 410.4953481554985,263.96019033901393 L 412.52070448733866,263.3554003722966 L 412.2926843352616,260.936622004956 L 410.95138871856034,256.22811775188893 L 413.3120688572526,254.87113973405212 L 414.72042920812964,254.58492684271187 L 416.0751376673579,254.8605391876772 L 418.1139069739729,257.9246098343283 L 419.2674212269485,258.815388164483 L 420.56847779266536,258.31696632225066 L 423.2242429498583,255.37998422048986 L 424.5521255917847,254.4471235340461 L 435.8055951707065,254.7333323173225 L 438.70279358141124,253.8111342387274 L 448.11868832074106,253.50375442299992 L 450.73421468771994,253.99132685363293 L 450.43912966921926,253.2387799685821 L 450.64032387547195,252.48629185091704 L 452.7998098079115,251.35237198602408 L 452.86687454394996,249.38157731853426 L 452.38400816358626,247.22052582353354 L 452.8937003593892,245.50474275555462 L 454.6105587016791,245.3035288527608 L 459.7477206233889,246.72270521055907 L 461.9072065576911,246.52146600279957 L 464.40201629698277,244.0222139423713 L 472.3022468984127,231.91639808751643 L 470.57197571359575,230.80605057626963 L 472.0876397192478,227.86689254175872 L 474.75681784935296,226.4610660057515 L 483.7166720237583,226.2391122058034 L 484.01175704039633,225.01317388378084 L 483.0996760427952,223.19569076504558 L 481.62425108626485,221.39967824425548 L 481.62425108626485,220.6602409798652 L 478.72705254517496,218.92806786298752 L 474.63610122166574,215.51744317635894 L 472.2485951371491,211.75976372975856 L 474.40808106958866,209.0268671400845 L 473.3886962868273,207.45501171052456 L 473.5630648061633,206.52678798045963 L 474.60927527584136,206.08380366303027 L 476.1249392814934,205.96778726857156 L 475.09214165620506,204.2066198354587 L 476.1383522544056,203.2365332916379 L 477.2516275886446,200.90661569591612 L 478.284425213933,200.07388593349606 L 479.5720688086003,200.01064369361848 L 483.9581052791327,201.37044576182961 L 484.56168828718364,201.76050196401775 L 487.1369757335633,200.42172628361732 L 492.7570040374994,199.12529406510293 L 495.1176841761917,198.98828288074583 L 493.6690850351006,197.56559041049331 L 493.3471740707755,195.93238748423755 L 493.7227367963642,194.0993150807917 L 494.43362345919013,192.0348920589313 L 495.54689879342914,190.19203076511621 L 496.4723927639425,190.0130287744105 L 496.9686721172184,189.31811098288745 L 496.87478130683303,185.9179478380829 L 495.9492874648422,181.11975616402924 L 495.05061944015324,178.39552966691554 L 495.22498782910407,175.9874904854223 L 499.73174092918634,168.12611259985715 L 500.0,165.29002043791115 L 498.3770323395729,163.5572625109926 L 494.929902812466,162.92724558059126 L 493.1862186547369,163.24224901292473 L 491.7107934374362,163.81978163681924 L 490.26219429820776,163.94579329434782 L 488.5050971657038,162.92724558059126 L 487.21745344251394,161.3523836331442 L 486.35902433656156,159.39991100970656 L 486.0907652657479,157.35338704939932 L 486.6675221975893,155.52762383315712 L 484.28001624159515,153.36653362121433 L 478.70022672973573,151.79322801623493 L 476.0042226538062,150.51379480492324 L 474.72999190352857,148.54254060983658 L 471.7925547026098,146.45638455916196 L 470.4512592162937,144.69555781409144 L 472.18153040111065,142.76740062609315 L 472.9058299064636,140.46249955985695 L 472.82535232789814,138.17909323144704 L 472.04740080051124,136.26270492281765 L 471.08166803978384,135.6344631612301 L 468.492967620492,135.42505850084126 L 467.379692286253,134.73405492678285 L 466.42737249843776,130.7983680991456 L 467.74184203892946,129.73098412994295 L 468.1978826019913,128.48585153277963 L 467.8223198764026,127.1258052662015 L 466.6419798079878,125.73457113094628 L 464.71051415614784,126.60276156757027 L 464.4154291395098,128.20336464233696 L 464.5629717130214,130.11815884616226 L 463.99962749518454,131.98099950607866 L 462.32300820201635,133.60342791769654 L 461.3170363921672,133.4673427566886 L 460.4854332320392,132.56713578943163 L 459.3587450552732,131.86586970370263 L 456.4078947529197,131.3948986940086 L 454.9458826389164,131.60421622544527 L 453.2290244270116,132.44153220020235 L 452.4376599267125,133.92794613726437 L 452.0084454379976,135.8648137608543 L 451.1768421474844,136.7757990565151 L 449.17831176146865,135.17377880495042 L 446.4152429513633,134.88062713108957 L 445.3153805900365,133.0067612817511 L 444.7788624484092,130.23326767329127 L 443.74606482312083,127.32456927932799 L 441.814599301666,125.30573463439941 L 436.9859352391213,122.93178844172508 L 434.8398624099791,120.96614080760628 L 434.3704090025276,119.68032140377909 L 434.11556277424097,116.39859563950449 L 433.79365181177855,115.01934804301709 L 433.0022874418646,113.87012515310198 L 431.1110607087612,112.21966133639216 L 430.3331093117595,110.96633207332343 L 430.4806518852711,106.72710172552615 L 430.15874092280865,105.1300397273153 L 429.2198341079056,104.12809587828815 L 426.59089476801455,102.95929187722504 L 425.7861174251884,101.88453407026827 L 425.63857498019934,99.09906514827162 L 426.5506559778005,97.97258550673723 L 427.07376114837825,96.85666521918029 L 425.651987824589,94.08306346926838 L 424.5789514090866,93.07183459959924 L 422.66089886054397,92.62359119486064 L 421.7488178629428,92.00859370268881 L 420.72943321056664,90.65365169849247 L 419.4149635396898,87.2983780419454 L 414.9216235447675,79.4773783031851 L 414.3985182456672,77.56214055698365 L 415.9275952242315,76.82320963498205 L 418.79796768911183,74.62756277713925 L 420.0051335748285,72.79650182463229 L 416.59824296832085,73.1502025090158 L 416.61165594123304,71.98511926084757 L 415.95442104153335,70.18575545586646 L 417.2018259745091,69.02102676592767 L 415.65933602303267,67.98120839428157 L 415.0825790911913,66.05783719848841 L 415.27036045491695,63.65675586927682 L 416.06172469444573,61.13158217817545 L 417.42984625697136,58.84598130732775 L 418.74431579746306,58.20195453520864 L 420.1392631754279,57.96305213775486 L 421.7890567816794,56.94518599379808 L 422.6474858876318,55.667810403741896 L 425.7056397162378,49.605158381164074 L 425.906834051013,48.66080402396619 L 426.1348542030901,45.392591399140656 L 426.9664576239884,44.718334718607366 L 428.77720651589334,44.16859067976475 L 429.55515791475773,43.732966324314475 L 430.2794575486332,43.598134336061776 L 431.1110607087612,43.87817241344601 L 431.95607697218657,43.815940766595304 L 432.7072024233639,42.62324986793101 L 432.8815709426999,41.088523054495454 L 431.7682956084609,39.54367055557668 L 431.50003653764725,37.12838482949883 L 431.1110607087612,36.48579150158912 L 430.9232793468982,35.770697100088 L 431.37931990996003,34.299218646250665 L 432.2645749617368,33.625728603452444 L 434.866688227281,33.32526332885027 L 435.8055951707065,32.52752142865211 L 436.52989480644464,29.67897535022348 L 435.8055951707065,27.939181895926595 L 433.48515382036567,25.51641475595534 L 431.8219475019723,20.900326353497803 L 430.78914987668395,18.893112394958735 L 429.32713776268065,17.506927124224603 L 431.5268623549491,16.296762173995376 L 430.29287052340806,13.173781131394207 L 427.3151944037527,9.979445838369429 L 424.2302146293223,8.501514793373644 L 422.7145507540554,8.873560227453709 L 419.87100410461426,10.630633273161948 L 418.4760567266494,10.837368603795767 L 417.08110947720706,10.093142162077129 L 415.4044899251312,7.871136485598981 L 413.79493536800146,7.168467824347317 L 410.9916276372969,7.654130469076335 L 408.2017328813672,9.03891836758703 L 405.2777085248381,9.710714495740831 L 402.04518630728126,8.057145334780216 L 400.5026964843273,5.938918954692781 L 400.2076114676893,4.50291916821152 L 399.7783968485892,3.6971986573189497 L 397.8603443019092,3.4389691343531013 L 396.7470689676702,3.7385160932317376 L 392.6829434596002,5.639304365962744 L 390.2417854834348,4.544240009970963 L 386.9824373200536,1.9723537806421518 L 383.61578550189734,0.0 L 380.81247790157795,0.743458392098546 L 380.0077005568892,2.5197267094627023 L 380.14183002896607,4.306647653691471 L 380.5576316732913,6.186882648617029 L 380.58445748873055,8.274160499684513 L 380.04793934710324,10.103478166274726 L 373.79750209115446,21.448760706931353 L 371.38317018933594,23.622105369344354 L 367.35928347148,25.102326560765505 L 365.8838583845645,25.99263775907457 L 365.0790810417384,26.127226600423455 L 364.5962146613747,25.588881766423583 L 363.36222269944847,23.477200685068965 L 362.43672885745764,23.187397769652307 L 360.27724305540323,23.61175504885614 L 359.64683410152793,24.398417262360454 L 359.3383362405002,26.241111070849 L 359.74072478339076,29.078297284431756 L 360.7869353815913,29.751473476178944 L 361.37710541673005,30.476484563201666 L 360.4784373920411,33.480675301514566 L 357.9702146779746,36.56870449427515 L 355.2607976309955,39.263756953179836 L 352.4574900306761,39.191188094206154 L 346.5960284732282,37.55334866512567 L 343.60493938066065,38.43443080317229 L 341.2442592419684,40.19683334324509 L 339.3127937205136,42.07362396735698 L 333.7866559699178,50.103316119872034 L 332.2441660184413,51.58756272960454 L 327.61669655144215,52.926692148670554 L 325.02799600176513,54.400985774584115 L 320.1993320696056,59.18878735601902 L 317.8520649038255,60.49779375176877 L 315.1292348820716,60.362729327753186 L 309.49579360708594,58.36815077252686 L 306.585182223469,57.900730659253895 L 303.1917045880109,58.38892555143684 L 302.0247774925083,59.91599129140377 L 302.0516033079475,67.44054662436247 L 301.7296923454851,68.63628099858761 L 300.45546159520745,70.7473707748577 L 300.1872026529163,71.7562798652798 L 300.4286357779056,72.98375364486128 L 301.582149900496,74.33623458445072 L 302.0113645195961,75.38713797368109 L 302.7088382076472,77.8535656100139 L 303.3660729788244,79.53983813989908 L 303.701396914199,81.27846229914576 L 303.4733767621219,83.90260379761457 L 301.44802043028176,87.6109322430566 L 295.30488669872284,90.14299184922129 L 293.5746155139059,92.96759003121406 L 294.13795973174274,96.18926007300615 L 299.12757908180356,108.65854095946997 L 299.2482957094908,110.82012088783085 L 299.0471013728529,112.50168280210346 L 299.19464381597936,114.32979800738394 L 301.6358017940074,119.71168076898903 L 302.42716616392136,119.89983949717134 L 303.8221135418862,118.37376884743571 L 304.1171985603869,121.91754818987101 L 304.814672248438,126.100666009821 L 304.98904063925147,129.647272602655 L 303.7952875960618,131.22744780406356 L 299.73116208799183,130.37977218348533 L 298.269149845466,130.99720748048276 L 297.67897994071245,134.01169446855783 L 294.1781985219568,132.3996646311134 L 280.33602852374315,118.34241360798478 L 279.58490294218063,116.75388817396015 L 279.23616616241634,114.75814920198172 L 279.5446641519666,113.54627789463848 L 280.0275305323303,112.53301875665784 L 280.1616601329297,111.14387713186443 L 279.16910129599273,104.69167655147612 L 278.2570202983916,101.48805137630552 L 277.0632673855871,99.18251318763942 L 275.65490703471005,98.25419321469963 L 270.24948591180146,97.38853647746146 L 252.15540917217731,88.39236163627356 L 248.3058908432722,87.71511914394796 L 227.86454667896032,93.34287531021982 L 217.93895974382758,91.90436074603349 L 216.19527545571327,92.40468950010836 L 208.92545354738832,96.3352510035038 L 209.95825117267668,96.24139941018075 L 209.79729575663805,99.20337535999715 L 209.0864090938121,102.29146726988256 L 208.469413112849,102.55233067739755 L 209.00593138486147,104.93173015210778 L 209.66316615603864,106.44524828437716 L 210.60207309946418,107.60403202008456 L 212.97616621106863,109.82803171221167 L 215.98066814802587,111.97942713927478 L 219.09247386828065,113.53583127167076 L 219.13271278701723,114.8626278936863 L 218.23404476232827,116.47174302022904 L 217.45609336346388,118.37376884743571 L 215.2697816155851,127.10488294344395 L 213.9821378905326,127.76395689602941 L 212.58719051256776,127.54426079895347 L 209.99849009141326,126.36217067670077 L 208.16091512329876,127.2931852703914 L 208.469413112849,130.95534635800868 L 210.96422285214067,139.07982233166695 L 211.66169654205441,142.76740062609315 L 212.25186657719314,144.4230773691088 L 213.6334009822458,146.4039744026959 L 216.69155480898917,148.80465236585587 L 217.96578556112945,150.27260934375226 L 218.27428355067968,152.3910538535565 L 217.48291918076575,153.71269514597952 L 215.873364623636,155.12893987633288 L 214.1296804640442,156.23060680553317 L 212.96275323815644,156.6503226403147 L 211.3397857081145,155.95780142582953 L 211.27272084355354,154.6568353874609 L 211.43367625959218,153.26163848210126 L 210.48135647177696,152.31763484701514 L 208.09385038726032,153.43996079452336 L 204.53941720724106,161.08993152249604 L 201.85682610422373,163.4942589085549 L 199.0937572941184,165.1009771702811 L 194.78819853067398,169.89121243543923 L 192.2665629759431,171.09965143725276 L 189.5169070083648,170.80540892109275 L 181.2679394967854,167.31721608061343 L 178.3305022958666,167.2857022723183 L 176.01006094552577,168.39926168881357 L 173.7835104074329,169.9647652618587 L 171.10091930627823,171.33084839116782 L 165.70891115628183,171.99294268060476 L 160.04864393360913,171.56205087900162 L 158.2915468029678,170.91049444675446 L 157.24533620476723,169.7125865323469 L 154.91148201189935,165.73113544192165 L 153.9994010142982,163.4312559198588 L 153.409231107682,163.0217454917729 L 153.19462366960943,163.21074808575213 L 153.0068423077464,163.09524624142796 L 152.49715011008084,161.78282051626593 L 147.9367452505976,166.06723679415882 L 146.7966439705342,174.37896067183465 L 146.783230997622,183.87632014323026 L 145.6833686362952,191.75054182577878 L 143.57753472588956,195.59524472802877 L 141.0022471472621,198.07141264341772 L 138.15870062820613,199.4941797759384 L 135.22126329876482,200.11604779399931 L 126.83816631510854,200.16875027585775 L 125.22861162759364,201.37044576182961 L 126.48942940495908,203.63720947131515 L 126.69062374159694,205.28226447291672 L 125.84560747817159,206.34748220443726 L 123.98120682314038,206.91705297492445 L 122.13021888025105,206.76938329078257 L 120.80233623832464,205.8939594179392 L 119.51469251513481,204.5967908585444 L 117.75759538263083,203.2365332916379 L 112.07050221599638,201.15961127635092 L 108.91845770552754,200.7801207024604 L 106.65166824869812,201.42315530776978 L 100.97798818349838,204.38588556926697 L 99.2745428159833,205.73575887456536 L 97.23577363975346,208.36222584173083 L 96.56512576714158,210.68339518737048 L 96.36393143050373,217.19620660785586 L 92.93021487817168,228.70202954206616 L 91.88400427810848,234.624068075791 L 93.69475330226123,238.04147465340793 L 92.21932821534574,242.92105494439602 L 91.18653059005737,244.81639721989632 L 89.44284643232822,245.38825002592057 L 87.61868443526328,245.6424176171422 L 86.58588694036007,246.84980602469295 L 84.98974522575736,250.74837576877326 L 81.03292337246239,257.88219382148236 L 78.83319865167141,259.9714026013389 L 75.46654696203768,261.00026613939553 L 58.35161569714546,255.6132131954655 L 55.3605266045779,253.73693823814392 L 52.99984646588564,251.18282535672188 L 49.096676375716925,244.3928246498108 L 47.37981816381216,243.06928052473813 L 45.354461831972,243.50338296592236 L 34.382664296776056,248.54464178718626 L 31.98174523934722,250.5682439925149 L 28.81628775782883,257.3308033272624 L 23.98762382566929,261.9655892327428 L 23.129194589331746,263.5039417166263 L 22.726806048303843,264.89397569932044 L 22.06957114674151,266.0825616363436 L 20.366125779226422,266.9847117178142 L 19.13213394768536,267.12269495707005 L 16.717801915481687,266.78304733429104 L 15.658178474754095,266.82550250086933 L 13.753538770601153,267.2288374984637 L 12.80121898278594,267.65341899544 L 12.117158265784383,268.8211145065725 L 11.003882931545377,271.4224019506946 L 10.413712898269296,272.0914184888825 L 8.844397129490972,272.89854846987873 L 8.428595485165715,273.59953214786947 L 8.562725085765123,274.54487893916667 L 9.568696634843946,276.8289667330682 L 9.716239208355546,278.1678012618795 L 7.154364733025432,287.19387544784695 L 7.905490186065435,289.07670818828046 L 10.896579278632998,292.07724023330957 L 11.66111770272255,293.31177453603595 L 11.245316058397293,297.4102924885228 L 9.206546882167459,300.4986468339339 L 4.565664313733578,305.6658814949915 L 3.278020588681102,309.64708780217916 L 1.9769638925790787,318.756264555268 L 0.0,323.49277517199516 z" /></g></g></svg>