<svg xmlns="http://www.w3.org/2000/svg" xmlns:xlink="http://www.w3.org/1999/xlink" width="500.0" height="367.94164338568226" viewBox="0.0 0.0 500.0 367.94164338568226" preserveAspectRatio="xMinYMin meet"><g transform="matrix(1,0,0,-1,0,367.94164338568226)"><g><path fill-rule="evenodd" fill="#D2EBD9" stroke="#A6A6A6" stroke-width="0.25" opacity="1" d="M 500.0,161.0516822207719 L 497.72075683251023,154.80913686961867 L 496.8325704038143,153.13126589148305 L 494.40311916172504,150.39964424842037 L 493.7239177413285,148.5721265191678 L 493.7369792610407,146.73812726163305 L 493.50840187445283,146.1246130876243 L 492.6332769654691,145.27106319717132 L 489.25033144280314,143.36739307595417 L 484.63306798785925,139.57398938480765 L 476.02549616992474,130.75023483484983 L 474.2948387861252,129.91906298231333 L 472.0613109692931,130.093955691671 L 467.7509943321347,131.90794213162735 L 466.980361957103,132.0212181059178 L 466.372999176383,131.6147603439167 L 465.2758276127279,131.94792174641043 L 464.06763284653425,131.6980501404032 L 461.58593533560634,130.6936007020995 L 460.3908020891249,130.6069840490818 L 457.59562703222036,130.80686920764856 L 455.40128396451473,129.9090691159945 L 452.48202400282025,129.28779725870118 L 451.404444873333,128.71151574212126 L 450.17012694105506,128.28681116644293 L 448.84437799453735,130.7602290965151 L 447.74720649048686,130.6936007020995 L 448.13252267614007,132.452672917163 L 442.18951027467847,132.93411521054804 L 440.96825386211276,133.18733566394076 L 439.93639020994306,133.77208843966946 L 439.57066633552313,132.8458220968023 L 438.133894123137,132.22944791638292 L 437.31101547926664,131.6147603439167 L 436.78855292499065,130.8468464759644 L 436.7101834304631,130.3054949119687 L 437.31101547926664,128.9313666522503 L 433.58193845301867,126.831231625285 L 433.0333527363837,125.61056559463032 L 433.39907654747367,124.50654046866111 L 434.0129701830447,123.62403397378512 L 434.13705502822995,122.79651440028101 L 433.0333527363837,121.85248798294924 L 432.59579027816653,122.38360095652752 L 432.14516630396247,122.56341693387367 L 431.70107305794954,122.38360095652752 L 431.27004139497876,121.85248798294924 L 430.1336851455271,123.39092612452805 L 429.4283606223762,123.74558425787836 L 429.11488301306963,122.97133934986778 L 429.252029504627,122.46018910664134 L 429.87245386838913,121.84249856276438 L 430.0161310881376,121.20984505931847 L 429.91816928237677,120.70873223361559 L 429.11488301306963,119.21379833109677 L 427.0185016877949,120.21762150223367 L 425.9931688308716,120.51228635339066 L 424.79803558439016,120.57221877831034 L 423.5898407548666,120.08111166465096 L 423.0347241796553,120.08943540020846 L 423.1196243427694,120.41905855061486 L 422.6428772620857,121.15324029535986 L 422.03551442176104,121.6393810894806 L 421.3759053759277,120.6288217662368 L 420.7228271178901,120.00120396818966 L 420.40934951230884,119.19382234080695 L 421.5914211757481,117.23960470501333 L 421.8395909331739,115.04426762508228 L 422.1661301217973,113.93421445973217 L 420.25261076912284,114.76799640757963 L 419.5799400769174,114.77465344290249 L 419.2991164252162,114.44513026974164 L 418.8680846989155,113.27187530277297 L 418.5023609511554,113.01227135770023 L 416.09250201657414,112.39655855041929 L 416.15780986845493,111.42477178457193 L 416.7912958152592,111.87405045516789 L 417.3855970725417,111.73593770712614 L 417.3855970725417,110.37649667216465 L 418.2868450842798,109.9771691490896 L 418.53501484170556,107.78268296970055 L 418.93339255079627,107.09893395449035 L 419.65177872031927,106.35532268485986 L 419.5799400769174,105.32230045692995 L 419.3709550052881,105.03120132652111 L 418.2868450842798,106.42186384950764 L 417.6468283496797,106.64477860066108 L 415.7006551027298,106.85937812831253 L 414.7667531333864,106.44182628323324 L 414.368375364691,106.42186384950764 L 413.9242821149528,107.19874984910712 L 412.65731029212475,108.08214290090837 L 410.9788991138339,108.40822687395848 L 410.69807539880276,108.29509509704076 L 409.3723265118897,106.12908436218277 L 409.15027985721827,105.97936926223338 L 409.11109517142177,104.60703641013242 L 409.33314176276326,104.02153793466277 L 410.2017359472811,103.43605767353438 L 410.2605129443109,102.68094773543999 L 410.10377413779497,101.92919420078397 L 409.8360120691359,101.58492758218199 L 407.85718486458063,101.71132423030213 L 405.930603928864,102.78240347187966 L 391.6412510462105,102.51130163250491 L 387.67706591263413,101.74126041517593 L 379.7813494056463,98.95240861736238 L 380.54545098915696,101.68471429916099 L 379.5266489200294,101.94249926833436 L 379.7486955113709,102.19862458505668 L 379.9707421027124,103.0152547636535 L 379.71604155376554,103.45601689442992 L 329.90412812680006,113.74116846872494 L 329.72779701277614,112.70108424173668 L 330.1180112436414,111.51629065279849 L 329.62330447509885,110.55952463392168 L 328.8216508887708,109.77584475348704 L 325.6542212292552,107.44829163816758 L 324.51786497980356,108.812512349803 L 323.31946636736393,109.7825000800658 L 322.0982099547982,109.7825000800658 L 320.8867496997118,108.23520204075612 L 320.5928645282984,107.29856614279561 L 320.4524526707828,105.83797281375155 L 320.109586533159,105.15595759428106 L 319.3618119619787,104.54549162695184 L 317.6997277289629,103.75208167429082 L 316.94868766516447,102.84227926377207 L 316.553575322032,102.5894716985058 L 313.8694235943258,102.60277729271911 L 312.5567362308502,102.46140603837557 L 311.6489574238658,102.1187929213047 L 311.0644523203373,101.04608802078292 L 310.6040321290493,99.46624505170621 L 309.9640154540539,98.01290511502884 L 308.85704773291945,97.32618227344938 L 305.8234990760684,100.26280214218423 L 306.7574009858072,101.73793419869617 L 306.3818810172379,102.18864556844346 L 305.0724590755999,102.13875082181767 L 304.9875588528812,102.86556433793157 L 297.3432775326073,103.00527538219467 L 297.01673840358853,103.48262924328446 L 296.66081074625254,103.62567144213244 L 296.2885561436415,103.46932309633121 L 295.9260976947844,103.0219077731017 L 294.57422564178705,102.79404600081034 L 293.16031116992235,101.23068874585442 L 292.059874240309,101.07602315885015 L 292.4811097458005,101.95580440969206 L 291.8215006366372,101.92919420078397 L 291.4982269369066,102.13542447146028 L 291.0573990531266,103.00527538219467 L 290.5773865506053,103.34125143568963 L 290.04512771219015,103.44936379720457 L 281.3330634199083,104.1446241682861 L 279.54036355018616,103.86518632457592 L 278.98198161274195,102.88552295882255 L 263.32769509777427,103.03854004992172 L 261.7439802996814,103.33127188310027 L 258.22388834506273,104.71182918967679 L 250.24000631272793,104.96133820922114 L 249.13956938311458,104.61535327415913 L 248.68567998334765,103.48595582973212 L 247.9477015659213,103.06515187723562 L 175.15233052521944,102.33833072311245 L 175.12620736286044,103.0219077731017 L 169.677901789546,103.1217021024786 L 169.76606737822294,102.74913925305009 L 169.59136894717813,102.29176189634018 L 169.97015434131026,101.06271863286383 L 170.66241734474897,99.92189162177965 L 171.0412027426064,98.68967551062815 L 170.6852750852704,97.21644193935208 L 167.97826555371284,94.51469973474741 L 167.51131457090378,93.17477660696022 L 166.81415352225304,90.19103967188857 L 165.751268658787,88.44921585032716 L 165.52269127592444,86.98008924839087 L 164.3079656548798,85.31166849378496 L 164.52348145470023,84.3728292947635 L 165.2108464129269,84.18174366117455 L 165.39370825514197,83.89594947453588 L 165.39534100145102,83.48055849410594 L 163.84428003057837,80.3604238065891 L 163.6646834909916,79.72416342562065 L 163.93244555965066,78.49655483686365 L 165.82637260109186,75.11479809950106 L 166.25413890182972,72.48254451807588 L 167.5864186398685,70.94819333544001 L 167.77907670289278,69.6929032637272 L 168.27378353476524,68.88099189288914 L 170.4926169589162,66.91527389758267 L 171.26978012546897,66.51684112031944 L 173.84290858730674,66.30268677906133 L 174.0878129824996,66.027111699339 L 173.81352005898952,65.42451192322187 L 173.2355457469821,64.82027037115768 L 171.11304132267833,64.26086511649191 L 170.6264980249107,63.86746484832838 L 169.74484238773584,62.33045573881827 L 169.42809934914112,61.02093688980676 L 169.42809934914112,59.67333327513188 L 169.94076581299305,58.626181316096336 L 171.6779540516436,58.178129602456465 L 172.0583721920848,57.01656025927514 L 173.62739272415638,56.65150939999148 L 174.66905259341002,56.06578238285147 L 174.88456845656037,55.72397777857259 L 174.920487716794,54.89935644646175 L 174.71150264516473,54.04490479524247 L 174.24128629639745,53.47916134959087 L 172.96125288680196,52.468825734453276 L 172.13510888069868,51.148331072414294 L 172.10572034865618,49.86939043318853 L 172.76532939821482,46.97009006002918 L 172.76532939821482,41.47116393246688 L 173.07554157823324,40.17126920539886 L 174.50904842838645,38.006063433596864 L 174.920487716794,36.85226296749897 L 174.84538377448916,35.207875788910314 L 174.25761330500245,32.295703790616244 L 174.5319061651826,30.678188611753285 L 176.0339862294495,28.2438628510572 L 176.21358277276158,27.61585544119589 L 175.81193957477808,26.9630126405973 L 173.62739272415638,24.50923199742101 L 172.56940590962768,22.36716817319393 L 172.33429773524404,21.025381345767528 L 172.76532939821482,19.695273105986416 L 173.2812612876296,19.117206918774173 L 173.98005501925945,19.097330966731533 L 174.5319061651826,18.81906995247118 L 174.85191456601024,18.30065265344456 L 175.13273815065622,17.12639277963899 L 175.81847036629915,16.59145484957844 L 175.01191866770387,15.890921625075862 L 174.46986374258995,14.9519446012564 L 174.15638613328338,13.903716712258756 L 174.0584244504571,12.872098022373393 L 174.16944771632552,11.828937826678157 L 174.49598690867424,11.169951325049624 L 176.75890312716365,9.095432904781774 L 179.03814635425806,6.203356156591326 L 177.062584515661,4.313034544000402 L 175.51805440336466,1.0392883738968521 L 174.3327172473073,0.0 L 172.82084102928638,0.11749675357714295 L 171.37917077168822,1.2312640878371894 L 165.07696528360248,9.66329828905873 L 161.9340260438621,15.80811776430346 L 160.80093521997333,18.792569054523483 L 160.03193559125066,20.283293393207714 L 159.04088924452662,21.292075571371242 L 157.842490632087,21.57699464983307 L 155.66773993894458,20.932618947932497 L 154.52811832353473,20.987282514804974 L 153.42441603168845,21.913270394550636 L 152.80399160832167,23.40586836868897 L 152.01213423907757,26.494104942772537 L 150.7467950321734,28.048333474434912 L 149.28226697072387,28.379740190925077 L 147.8634543865919,28.409567057853565 L 146.76138477772474,29.064111474901438 L 146.4838265515864,30.346745901741087 L 146.59974792599678,33.09622082323767 L 145.82911555096507,33.57024736027233 L 144.85113085061312,32.87081331643276 L 142.7139321602881,29.814791155280545 L 141.8420726135373,28.941486419411376 L 140.33346175774932,28.792348824674264 L 139.6967104524374,29.625875858590007 L 139.63793345540762,32.21615098672919 L 139.35710974037647,32.65369519055821 L 137.38807875663042,31.733868325827643 L 136.71377538144588,32.08687827293761 L 135.6051750406623,33.11279498669319 L 134.8084194995463,33.417762130266055 L 124.86856800317764,34.24484200007282 L 121.09051013737917,33.73433592938818 L 120.01129826530814,33.96306763403118 L 119.33699495345354,34.44374375697225 L 118.44227773323655,35.42833554954268 L 117.59001056104898,35.706814310280606 L 116.45365430787206,34.63435977557674 L 114.75891618430614,35.25097302463837 L 111.68944820389152,34.86973158107139 L 110.76860788092017,34.57800358021632 L 110.1285911463201,34.15202180366032 L 108.5791629217565,32.657009990885854 L 107.36443730071187,32.29238904709928 L 103.17983819171786,32.21283625578508 L 101.89164131134748,31.829992527374998 L 99.51280365511775,30.282115139532834 L 98.15766617655754,29.937421271577477 L 97.21886616200209,29.435305133461952 L 96.55109364166856,27.486610845429823 L 94.52491821348667,27.456785276299343 L 94.00082291662693,27.284460657509044 L 93.03100162371993,26.81554586533457 L 92.81875118985772,26.002011521020904 L 92.42690427228808,25.915854934370145 L 91.39830592274666,26.398004963761196 L 87.80310996249318,27.46341318404302 L 86.71573467925191,27.32754171313718 L 85.57611300423741,26.46428076713346 L 83.76382081955671,23.907842078479007 L 82.59807604178786,23.260082845808938 L 80.21760570257902,22.951948546571657 L 79.12859767302871,22.559332242701203 L 78.28775934129953,21.7956561348401 L 79.30656153336167,21.490855916636065 L 77.39304218068719,19.47663302370347 L 77.04527793452144,18.89194746199064 L 77.22324173152447,16.813377989688888 L 77.06487030908465,16.006847537122667 L 76.24688971042633,14.398844913113862 L 75.8289196304977,13.903716712258756 L 73.14476783946157,14.882392370607704 L 72.95537520572543,13.870598194887862 L 72.96843672543764,12.819110834272578 L 72.75618635118008,12.241228485479951 L 71.89085759595037,12.655182779300958 L 71.46635666117072,13.352299636462703 L 70.92430173233151,15.457033021608368 L 70.35938900336623,16.39271976449527 L 68.82628772780299,16.76038122200407 L 66.56173876300454,16.651075763860717 L 64.50780761614442,16.859750259900466 L 63.609824907034636,18.184714417671785 L 63.75350212678313,19.359032119391486 L 64.37392648681998,21.01875543780625 L 64.51433840766549,22.121995906578377 L 64.3657630160451,22.436744657345116 L 63.9869776815176,22.632222458487377 L 62.3444857634604,22.73161865421571 L 62.14529684558511,22.609030081424862 L 61.585282288491726,21.041946092853323 L 61.55589376017451,20.178939300822094 L 61.317520156502724,19.516385647002608 L 60.3999451957643,19.256338904146105 L 59.66686476394534,19.519698336953297 L 58.757453341037035,20.88623796356842 L 58.04233259707689,21.484229864785448 L 57.22598468139768,20.631143925478682 L 56.481475472450256,20.236913684057072 L 54.770410399883986,20.132559881079942 L 54.83898355439305,19.970232701161876 L 54.20059956237674,19.1569587495178 L 53.173633959144354,18.593813616782427 L 53.14424542710185,18.89194746199064 L 52.824237029999495,19.256338904146105 L 51.632369209080935,19.877474863315 L 51.40379182621837,21.04525908222422 L 51.168683651834726,21.464351785602048 L 49.555580258369446,23.150744372745976 L 48.27554678916931,23.160684193251655 L 48.05186751484871,22.9453220423311 L 48.517185755074024,22.3207840831019 L 47.55716074630618,22.138561565428972 L 46.72122051939368,23.48538814065978 L 45.88364761322737,23.23688978771679 L 45.58159890398383,24.003930760314688 L 45.0199516043067,24.50923199742101 L 45.0199516043067,24.986379873240367 L 46.17100205644965,25.022829125169665 L 47.18164071440697,25.385668084491044 L 46.58080866187811,26.46428076713346 L 46.270596481859684,27.919086180161685 L 45.75629733875394,28.881831293925643 L 44.54973525553942,28.492419615155086 L 44.12523431703448,29.808162512024865 L 43.22888441383839,30.60858514904976 L 41.9733413644135,31.00963652320206 L 39.96839105710387,31.25325408158824 L 39.46552075073123,31.856509587960318 L 38.747134644538164,31.994067532010376 L 38.260591350495815,31.700722181936726 L 37.56996102631092,30.704704224830493 L 37.02300798892975,30.900258085224777 L 35.16500026732683,32.633806655416265 L 35.08663083612919,33.361409198027104 L 35.99440963938832,35.99192742491141 L 35.18785800784826,37.89996417169459 L 34.47926811873913,38.83000882458873 L 34.196811724454165,39.47990413219668 L 35.53562219068408,39.52798391319811 L 35.775628473609686,40.3950973211322 L 35.33806601911783,41.570649025263265 L 34.63110874965787,42.547286296729 L 33.03433236852288,43.44105753628537 L 32.35676363110542,44.05627310578711 L 32.03675523027778,45.215448677772656 L 31.408167395740747,44.67814032896422 L 30.668556295335293,44.358083706581965 L 29.96649707481265,44.46089920820668 L 29.452197931706905,45.215448677772656 L 30.312628637999296,45.615122283110395 L 29.122393436729908,46.046314098872244 L 28.591767348349094,46.05294789839536 L 29.164843551814556,46.5853166107554 L 30.645698495209217,47.101113692391664 L 30.52814443781972,47.60531364940107 L 28.931367993354797,48.66185178188607 L 28.55258259922266,49.317032194230705 L 28.980348899960518,50.47484530555084 L 27.28887613862753,50.403516778722405 L 27.324795458465815,51.10188306681812 L 27.865217704325914,52.263114913133904 L 27.687253907322884,53.58202266157605 L 27.21377219632268,52.740898021962494 L 26.83825210109353,52.41573887038976 L 26.392526235431433,52.26643284945749 L 25.623526480048895,52.336108865216374 L 25.55168789997697,52.62145122885704 L 25.956596460193396,53.34311979915947 L 25.956596460193396,56.87053917883895 L 25.48964547738433,57.826333003817126 L 24.447985604405403,58.51665661088191 L 23.41285652667284,58.602948700776324 L 22.94264017790556,57.74834120157175 L 22.377727448940277,57.68528422480449 L 19.272340212017298,59.52231438271701 L 18.263334300369024,59.24849169654772 L 14.276291362941265,59.72146047302522 L 13.802809584885836,59.42440165835433 L 13.08442347869277,58.57971617649309 L 12.35297578945756,58.40713256271556 L 11.29825433716178,58.44032159005292 L 10.694156922399998,58.77221511420794 L 9.923524547368288,57.965723427711055 L 8.646756503731012,58.01550590409897 L 7.585504323244095,58.277695785975084 L 6.720175568014383,58.72574963909574 L 6.040974147617817,59.32482976722531 L 5.355241999030113,60.81182010518387 L 4.979721903800964,61.03753360779956 L 3.957654405385256,61.14209286728874 L 3.0596717596054077,61.47403072868474 L 2.9878331795334816,62.59104189067148 L 2.217200804501772,64.21106721740216 L 1.1037023551762104,65.66521767619997 L 0.0,66.30268677906133 L 0.34613149985671043,67.23402579850517 L 0.8587979637086391,70.50816862541251 L 2.5861900448799133,73.3610305795446 L 3.441722583025694,76.73584281816147 L 3.255595311522484,77.3487520723138 L 2.7821135334670544,77.7905900478363 L 2.8539521135389805,78.7756255979184 L 3.2915146313607693,79.8072249777615 L 3.918469723314047,80.38368169078603 L 2.9486484937369823,80.75747398776002 L 2.5241476222872734,82.93391750683077 L 3.128245037049055,86.38349602860399 L 3.45151873677969,87.33572732121684 L 3.8792850375175476,87.80936763295904 L 4.809921577572823,88.36611747159623 L 4.881760220974684,89.54282362782396 L 5.760150495916605,93.25457094074227 L 5.528307747095823,94.04089489602484 L 4.774002257734537,95.39750410686247 L 3.601726748049259,99.89528419147246 L 2.746194213628769,101.67473568115383 L 1.3126874268054962,101.33213674137369 L 1.7045343443751335,103.00527538219467 L 0.9632904976606369,106.91593962581828 L 1.159213986247778,107.92908500414342 L 2.073523584753275,108.53633286827244 L 8.36919828131795,109.34658178011887 L 10.508029587566853,110.13190761208534 L 12.010109651833773,111.0770041947253 L 12.653391815721989,111.97721971338615 L 13.041973367333412,114.60323412087746 L 13.639539990574121,116.08947549434379 L 15.628163412213326,118.10682586324401 L 16.411857306957245,119.45184772927314 L 16.5326767899096,120.49230896425433 L 16.095114335417747,127.21260225726292 L 16.372672621160746,128.3834097411018 L 17.339228484779596,129.22117422684096 L 18.713958274573088,129.88575022271834 L 19.226624734699726,130.44707759912126 L 18.82824696600437,132.75586352869868 L 18.824981603771448,138.0925117568113 L 18.24047650024295,140.36393819143996 L 15.993887227028608,142.1772849506233 L 14.06730629131198,142.3272942728363 L 13.584028359502554,143.0506898968015 L 13.57096677646041,143.784116207622 L 14.743242282420397,145.81119553768076 L 15.285297274589539,148.33202863461338 L 15.3571359179914,150.88323413720354 L 14.877123348414898,152.16731238458306 L 14.12934871390462,153.05454794783145 L 11.899086389690638,154.22536655329168 L 10.697422351688147,154.46554402029142 L 9.600250784307718,154.24204536434263 L 9.355346456170082,154.51224550628103 L 7.366723094135523,155.61310354829766 L 6.974876116961241,156.34037465741858 L 6.96507989987731,156.66065027192235 L 8.2320517860353,156.9075333806686 L 9.649231687188148,156.12018848746084 L 9.985567037016153,156.22360894689336 L 10.664768394082785,156.86749805975705 L 12.862376887351274,157.23449197597802 L 13.652601573616266,157.79167016176507 L 14.054244708269835,157.8116888271179 L 15.171008583158255,157.1711015801411 L 15.634694203734398,157.23449197597802 L 16.072256594896317,157.59815713879652 L 17.335963122546673,159.36654424201697 L 19.785006675869226,161.37204352137633 L 21.46341785416007,163.27097194292583 L 22.416912134736776,164.09535117144696 L 24.364718187600374,164.7061511632055 L 27.37704172730446,166.3951407717541 L 32.72412018850446,166.485269339988 L 33.38536198064685,166.65217524697073 L 34.57233168929815,167.49340554699302 L 35.94379611685872,168.0642635312397 L 38.66549984738231,167.61358464718796 L 39.974921848624945,167.60023135854863 L 42.67376784235239,168.57838553353213 L 44.00114940851927,168.5550160864368 L 45.228936675935984,167.49340554699302 L 46.32121006771922,167.8506068699062 L 48.10574646294117,168.1610775894951 L 49.015158012509346,168.70858775521629 L 50.3898877389729,170.9722579398658 L 51.05439489707351,171.5465692882426 L 51.72380016371608,171.70684564160183 L 53.64711573347449,171.59331639669836 L 54.902658723294735,172.20104028610513 L 55.22103437781334,173.02918201428838 L 55.34838465228677,174.06775447214022 L 56.01452448964119,175.33015484712087 L 58.27744077146053,176.62270811758935 L 60.17789854109287,176.70954978419468 L 60.7950575388968,177.39427841757424 L 59.21134267747402,180.48090600268915 L 65.02373937889934,185.36920461431146 L 64.99435085058212,186.48538995767012 L 65.3633401542902,188.46395827899687 L 66.05723584070802,188.8917872097809 L 66.98623970150948,188.94860902312212 L 68.67118167132139,187.23735246690921 L 70.54714902117848,187.6083328386303 L 69.96427666023374,190.37924508564174 L 67.67197191342711,195.87896223226562 L 68.17484215646982,197.44060750491917 L 70.45408538356423,199.9321841353085 L 71.34880260750651,201.12961057084613 L 71.76350732147694,202.01937415706925 L 71.7406495846808,202.26356563717127 L 71.39941619336605,202.4876897658687 L 70.84593230113387,203.32734577148221 L 69.51365262269974,206.3584882055875 L 68.46546202525496,207.39910726738162 L 65.7192678116262,209.53408654453233 L 65.16415129974484,210.60502627654932 L 65.5478347428143,213.96555097145028 L 65.77151408046484,214.14296824787743 L 66.19928037747741,214.03584814653732 L 66.8672930188477,214.13225352438167 L 68.70710099115968,214.8560041275341 L 70.8067476786673,215.38326886366121 L 72.90312893688679,215.54061468155123 L 74.7611366584897,215.13888377230614 L 76.56363274902105,214.05258560436778 L 77.42896144092083,213.8015253979247 L 78.75144502520561,213.96555097145028 L 79.93025132268667,214.37060073087923 L 80.79394733160734,214.95308655314147 L 81.41600437834859,215.75822295225225 L 82.73358979076147,219.9586300579831 L 82.8217553794384,220.73722182074562 L 82.01520374417305,223.6744379994925 L 82.22582143545151,227.35256759892218 L 81.71968576684594,229.14838768565096 L 80.54904294013977,230.63947213138454 L 78.71226027607918,232.21447501447983 L 77.90244315192103,233.33215035847388 L 76.21750118210912,237.054385505151 L 74.38724937289953,238.75406363909133 L 74.02642360702157,239.33910312596709 L 74.02642360702157,240.1337183834985 L 74.75134050473571,241.23518089810386 L 75.54483055323362,243.39306114474311 L 76.6093481592834,243.84747732128017 L 80.65516815707088,243.64793503214605 L 81.37355426326394,243.8508309663739 L 81.81764751300216,244.4243194758892 L 81.67560297250748,244.98944385908544 L 80.33679250255227,245.74241541535594 L 79.90086279436946,246.35119143640622 L 80.19148259982467,247.32226271787658 L 81.12211914360523,248.47118921531364 L 83.22503119334579,250.17208920419216 L 83.83565939962864,250.2828050099779 L 85.0340580753982,250.13182904478163 L 85.71979028731585,250.50759407528676 L 86.91492353379726,251.9000156717375 L 87.89617360010743,253.4737681883853 L 88.9655893817544,256.11661781789735 L 89.6219329982996,257.29639554489404 L 90.67828713357449,258.2899615939241 L 92.89058982953429,259.00496549811214 L 93.462033290416,259.3591226800345 L 94.42858921736479,260.4686434988398 L 95.87189222127199,260.9873422982637 L 97.66949019953609,262.3588716292288 L 98.00419279932976,262.9649347504601 L 97.50785328447819,263.3175030918792 L 96.70130165293813,263.372907476034 L 96.33884314075112,263.65161103918217 L 97.19111031293869,264.66069407667965 L 97.6172438673675,264.9125552882906 L 98.08582759648561,264.6674103322439 L 98.45481677353382,264.12508270004764 L 98.98707561194897,262.4260242972523 L 101.39366911351681,261.7377234031446 L 101.35448436811566,261.03938100649975 L 99.82954662665725,260.49550136132166 L 97.21886616200209,258.1909378040582 L 98.00419279932976,257.55988579802215 L 99.47035354375839,257.1755607733503 L 101.96837793663144,257.24940412305295 L 102.99697628617287,257.0513704151381 L 105.17825777083635,256.1803872999735 L 107.76771311834455,255.4772590843495 L 108.93509058281779,254.98726950911805 L 113.62419261410832,251.20043424982578 L 116.51243136823177,249.44239065563306 L 121.68317865207791,245.39527268521488 L 122.13053732737899,245.26446722401306 L 122.96484486758709,245.38856467814185 L 123.38444763049483,245.22421962185763 L 124.39835165441036,244.15266444534063 L 124.95836633816361,243.77872710628435 L 126.78698552772403,243.7401600824669 L 130.231973413378,243.21196898887865 L 130.9977077394724,243.40982902701944 L 131.62956100329757,244.45114982500672 L 131.5593550428748,245.61831519124098 L 130.82137662544847,247.86904068826698 L 131.0564847998321,249.70407183119096 L 132.44754147157073,250.2526097013615 L 142.81842463463545,250.88169043068774 L 143.68865149840713,251.45711159170605 L 141.4567564278841,267.6597876853775 L 142.39065839722753,270.05813776142895 L 142.72372831776738,271.59005226637237 L 142.98822508379817,275.2087982976809 L 142.57352036610246,276.7714732834138 L 141.26736379042268,277.77469398034737 L 142.52453946322203,279.0283922513481 L 144.20784875005484,278.4385025857482 L 147.0258814804256,276.2875310818199 L 148.78756020218134,276.1060567153618 L 150.17208614572883,276.4017938566394 L 151.4945697300136,276.442122079432 L 153.07828452810645,275.4961169164162 L 154.20484456047416,274.4224801475648 L 155.13384842127562,271.8571451078169 L 155.8603980652988,272.1225626615342 L 156.9592022486031,273.3405183982104 L 158.19188749790192,273.85628880839795 L 159.72988688200712,273.69164356356487 L 161.14869940280914,273.0078809480183 L 166.01903072744608,274.7753102085553 L 164.24102505668998,280.91417514765635 L 163.94550720602274,284.40063124801964 L 164.94961500912905,286.89408958586864 L 166.0680116303265,288.75730566238053 L 168.5382802374661,297.1951090027578 L 168.14806594327092,297.55688325618394 L 167.78560749441385,297.4794796607457 L 169.45585519820452,300.244382527424 L 178.78671117126942,305.4693117358256 L 183.42683236300945,310.70955490903 L 184.84074683859944,311.92895259172656 L 189.97394224628806,314.8987092594616 L 193.41566476598382,315.7494874736294 L 198.22232091799378,314.693182133371 L 212.99168630316854,307.61603786679916 L 215.01622904837132,307.1361544118263 L 215.9958464950323,307.2927463010419 L 220.31922471523285,309.25112597923726 L 220.8645450733602,309.7007648295257 L 221.10944940149784,310.3861956798937 L 222.27192875370383,326.40272369841114 L 222.77479906007648,328.1292784810066 L 224.6719914674759,328.98082898929715 L 227.69900926947594,329.11910523753613 L 232.89098167046905,328.70933911623433 L 237.33191401138902,328.9437306798063 L 241.74019245803356,329.7885836260393 L 263.64443806931376,344.0793346101418 L 266.3318552225828,345.3656956732739 L 278.4040073007345,348.3575259160716 L 280.8138661682606,349.3977229737211 L 283.04086313024163,350.8061632697936 L 296.12528654560447,362.4573631314561 L 299.5017012767494,365.8788682448212 L 301.39236295595765,367.275435015792 L 303.4887442179024,367.84695194195956 L 319.40099658071995,367.94164338568226 L 319.98550168797374,367.6508074197918 L 321.4418662749231,363.70483065536246 L 322.06555599719286,362.8833151210565 L 323.838663559407,362.8528895394411 L 326.1260702610016,363.87387278908864 L 330.0624996125698,366.2947803414427 L 334.01035786420107,367.00659356894903 L 338.41537088528275,365.9634022207465 L 346.85640774294734,362.44722152873874 L 362.7719255387783,356.8907518980559 L 362.9221335500479,355.40230211336166 L 362.35395539179444,354.5255250823684 L 361.47883054614067,353.80589911318384 L 360.7049327455461,352.7856472041458 L 360.6004402078688,350.9142508180812 L 362.43232476338744,347.12830055831 L 362.850294906646,345.1411650062073 L 358.6314091607928,333.0908976176288 L 359.0036637634039,329.7885836260393 L 360.8877946510911,326.63201989769004 L 370.8537692502141,317.4882610202767 L 373.5346556119621,313.83909596852027 L 373.71425215527415,313.46850206842646 L 373.6489443667233,312.9277885307092 L 373.04974500089884,312.1479158841539 L 372.816269505769,311.5567224349361 L 372.48319958895445,309.5390953430906 L 372.18278356269,308.76613764837384 L 370.6709073446691,306.40373079665005 L 370.39824716746807,305.63767120731063 L 370.6774381361902,304.8918533551041 L 371.4790917225182,303.6780854454264 L 372.61381528899074,302.58224420412444 L 372.8815773576498,302.03182903979905 L 372.287276096642,300.5607886761427 L 372.2938068881631,299.9885696526617 L 372.87504656612873,299.32044757111 L 373.6979252099991,298.91487661446445 L 374.36079961806536,298.34272059006616 L 374.49141532182693,297.18837839365005 L 374.99265294522047,296.03917272319086 L 377.1445458382368,294.7470526378602 L 377.8253799416125,293.98327352525666 L 377.797624155879,293.4163524522446 L 377.28005964681506,292.24220410967246 L 377.31597884371877,291.55928889638744 L 377.7061932012439,291.086648957571 L 379.02377861365676,290.213733777171 L 379.52011812850833,289.653681849828 L 380.0556423291564,288.44787480845116 L 380.81974391266704,287.3766875967849 L 381.7797689847648,286.48380934726447 L 383.90880420058966,285.0781791496556 L 385.26720698177814,283.45077009359375 L 386.4819326028228,283.00023717666045 L 386.91296426579356,282.3900218408089 L 385.6459923759103,278.81663434184156 L 386.5211173482239,277.1966157895513 L 388.1864669434726,276.61687902524136 L 396.571992110461,276.8857397355605 L 397.21200884506106,276.75130875757895 L 397.39487075433135,276.30097373225726 L 397.43405543640256,275.37513997219503 L 397.17282415926456,274.8660392779857 L 397.2250703647733,274.43592109763995 L 397.9826412200928,273.7118041308131 L 399.2234900072217,273.1053194357082 L 400.34678461030126,273.0448402657639 L 402.72398952394724,273.2766783332918 L 405.643249489367,272.3879847943317 L 409.05884896591306,270.3252040434163 L 411.61238499358296,267.58925361931324 L 411.93892412260175,264.66069407667965 L 413.12099584937096,262.686243502656 L 415.2043155878782,261.1451375472825 L 422.0877606905997,257.94254194526 L 423.2175860852003,257.5699555578176 L 426.95972469449043,256.96410212037154 L 427.9262805581093,256.28107657353394 L 429.13447538763285,254.9167927550152 L 427.4168795235455,254.23385642538778 L 426.1890923194587,254.82282432890497 L 425.1572286039591,255.75078731263056 L 424.0143416263163,256.0897676113527 L 423.68127170577645,255.73736254964024 L 423.38085574284196,255.0174739107024 L 422.74736973643303,252.79760576412082 L 422.3098073452711,252.6600278695114 L 420.90568896383047,253.24893675465137 L 417.5096819214523,254.10633361712098 L 412.45485600829124,256.13675555191 L 411.11604554206133,256.36834106058814 L 410.2866361066699,253.76571824215353 L 410.371536269784,236.824758392293 L 410.55439817532897,235.59287363523617 L 411.11604554206133,234.55715803592466 L 412.93160308897495,233.55334864347242 L 417.45090486109257,233.17128068371676 L 419.3578934855759,232.21447501447983 L 446.0165490433574,209.61440459499136 L 447.78639117628336,208.62049589096569 L 449.88277243450284,208.0716964371968 L 464.3549872264266,206.81019588420168 L 465.471751101315,206.93399938382208 L 466.54279950261116,207.64337775087915 L 469.7494139075279,212.797322739847 L 470.2653457336128,212.90778201492503 L 471.20577843114734,212.5964895565994 L 471.9045722261071,213.0684514150489 L 472.9756205640733,214.25343655445613 L 473.5568603053689,214.58484599273652 L 479.7023269869387,214.06932314368896 L 482.23627070337534,213.3797528592404 L 483.88855877891183,211.43505233409815 L 484.2542825937271,210.17329532350414 L 484.4959215596318,209.8252413822338 L 485.83473202586174,208.59372472926043 L 486.99068058654666,207.87426690524444 L 487.5588587448001,207.15149418404326 L 487.98335955291986,206.27483997959644 L 488.6690917648375,201.5577615776565 L 489.49197040870786,199.73150651692413 L 490.9091503098607,197.85863135079853 L 490.7066960297525,196.90555210062303 L 490.82425014674664,195.1567085958086 L 490.3801569007337,194.46457789186388 L 489.45278572291136,194.22384346555918 L 485.6975855976343,193.9028695379384 L 484.50898314267397,194.35424086614512 L 484.1106053702533,194.13356898282655 L 483.3660961613059,193.2776567400433 L 479.721919298172,192.51539645693265 L 478.76842495426536,191.71305446932092 L 478.6182170063257,189.8377284416929 L 479.82641177251935,187.57156869885512 L 496.7084854915738,163.8650550825987 L 500.0,161.0516822207719 z" /></g></g></svg>