<svg xmlns="http://www.w3.org/2000/svg" xmlns:xlink="http://www.w3.org/1999/xlink" width="279.20388686284423" height="500.0" viewBox="0.0 0.0 279.20388686284423 500.0" preserveAspectRatio="xMinYMin meet"><g transform="matrix(1,0,0,-1,0,500.0)"><g><g><path fill-rule="evenodd" fill="#D2EBD9" stroke="#A6A6A6" stroke-width="0.25" opacity="1" d="M 108.71878399513662,433.9675258193165 L 136.12883455306292,409.9367498490028 L 142.56858230568469,420.1517413253896 L 152.11863088048995,427.7530056149699 L 156.21150884218514,417.1114316061139 L 160.3043868020177,400.3917287536897 L 168.49014272540808,399.63182266335934 L 162.03772946633399,391.58482001395896 L 161.66867945715785,378.3572879820131 L 148.8512359764427,375.1419747197069 L 152.5748655218631,333.971699538175 L 151.17850420437753,271.59306352352723 L 141.7142791878432,193.74295643530786 L 135.97368371859193,178.31380705023184 L 117.40725293569267,147.83739466266707 L 113.16645267233253,169.17833433719352 L 105.92606199532747,192.5935733774677 L 95.89294868335128,215.41179129015654 L 83.1705478951335,235.0450522173196 L 55.45019439980388,266.5311693693511 L 50.7956579439342,286.118957453873 L 63.207756428048015,309.85484321275726 L 70.13784480281174,330.4602179354988 L 66.5176491457969,357.0878730346449 L 56.84655571728945,383.2632862990722 L 46.03768632747233,402.3313430873677 L 43.45183274149895,410.8586654388346 L 43.865569569170475,422.441100475844 L 51.26111171580851,455.92982382746413 L 55.915648171678185,464.17440207628533 L 64.13866333849728,468.21051070280373 L 78.41257691383362,467.8068905840628 L 86.32528977841139,466.1636020434089 L 104.78828603588045,457.6882140291855 L 131.00884432531893,468.1528507671319 L 135.19792764261365,465.38521424960345 L 137.83549817465246,456.13160454295576 L 142.49003526382148,449.73252007970586 L 145.28275726549327,443.91036132210866 L 141.7142791878432,436.38827988365665 L 135.71509836055338,434.7167993988842 L 117.61412134952843,437.25285197328776 L 108.71878399513662,433.9675258193165 z" /><path fill-rule="evenodd" fill="#D2EBD9" stroke="#A6A6A6" stroke-width="0.25" opacity="1" d="M 10.914341229945421,420.1517413253896 L 17.735804498195648,417.87149853864685 L 24.557267766445875,414.0712338462472 L 24.557267766445875,401.9115619007498 L 27.285853073000908,381.396172107663 L 15.689365517348051,384.43516789609566 L 3.4107316341251135,383.6754084788263 L 0.0,395.07253286382183 L 1.3642926532775164,409.511147076264 L 10.914341229945421,420.1517413253896 z" /><path fill-rule="evenodd" fill="#D2EBD9" stroke="#A6A6A6" stroke-width="0.25" opacity="1" d="M 140.5221433248371,493.9135971534997 L 160.3043868020177,500.0 L 174.62945966608822,492.39206682518125 L 175.3116059936583,481.74214246310294 L 175.3116059936583,471.0935962125659 L 184.86165456846356,457.4046314037405 L 193.0474104899913,453.6025448408909 L 189.6366788558662,443.7179405842908 L 186.22594722174108,439.9164852751419 L 175.99375231936574,445.9988979031332 L 173.2651670128107,455.88377572596073 L 169.8544353786856,465.76983953872696 L 160.98653312958777,468.05140739679337 L 152.80077720806003,469.57248775521293 L 147.34360659308732,467.2908777538687 L 139.15785067155957,482.50280563067645 L 140.5221433248371,493.9135971534997 z" /><path fill-rule="evenodd" fill="#D2EBD9" stroke="#A6A6A6" stroke-width="0.25" opacity="1" d="M 250.24754852987826,99.93509234022349 L 255.47577628307045,99.04228875832632 L 260.7040040381253,103.05997970234603 L 267.1387458909303,106.63142209406942 L 267.1387458909303,102.16714286385104 L 265.5300604272634,95.91755103133619 L 260.7040040381253,88.77573023876175 L 255.87794764898717,82.52713543921709 L 259.09531857445836,79.40301240468398 L 263.92137496359646,74.04764326149598 L 261.50834676995873,70.47758682444692 L 253.86709082126617,72.26259608054534 L 250.24754852987826,69.58509641652927 L 245.01932077482343,64.67656859848648 L 242.60629257932305,61.999310611747205 L 245.42149214074016,52.62957900762558 L 250.24754852987826,45.937552655115724 L 251.4540626257658,41.47649747086689 L 247.03017760254443,39.69214161625132 L 244.6171494089067,35.23141748365015 L 243.81280667707324,29.432829472701997 L 247.43234896846116,26.756692765280604 L 250.24754852987826,22.74264714680612 L 246.22583487071097,18.728792808018625 L 242.60629257932305,12.485399453435093 L 239.38892165385187,6.242468589916825 L 240.99760711751878,1.7835152964107692 L 238.98675028793514,0.0 L 231.7476657051593,3.5670683165080845 L 226.9216093160212,11.147589627187699 L 229.33463750965893,17.836851147934794 L 234.16069389879704,28.986800781916827 L 233.7585225328803,35.67747925920412 L 233.7585225328803,45.4914364926517 L 228.1281234137714,51.73727806471288 L 228.53029477968812,57.983583498280495 L 229.33463750965893,66.46145463408902 L 231.7476657051593,75.83272837242112 L 238.18240755610168,86.0977040939033 L 246.6280062366277,96.36393501097336 L 250.24754852987826,99.93509234022349 z" /><path fill-rule="evenodd" fill="#D2EBD9" stroke="#A6A6A6" stroke-width="0.25" opacity="1" d="M 251.05189125984907,121.81174953002483 L 255.87794764898717,124.04438251582906 L 260.30183267220855,123.59785115998238 L 261.106175404042,119.13266845839098 L 254.2692621871829,116.4536730190739 L 251.05189125984907,121.81174953002483 z" /><path fill-rule="evenodd" fill="#D2EBD9" stroke="#A6A6A6" stroke-width="0.25" opacity="1" d="M 269.551774084568,70.03134043561295 L 279.20388686284423,69.58509641652927 L 277.1930300332606,62.891720465850085 L 271.96480227820575,59.3221378903836 L 269.1496027186513,63.33792894612998 L 267.9430886209011,66.90768206631765 L 269.551774084568,70.03134043561295 z" /><path fill-rule="evenodd" fill="#D2EBD9" stroke="#A6A6A6" stroke-width="0.25" opacity="1" d="M 262.3126895017922,50.844986588228494 L 266.33440315909684,50.398844399955124 L 273.9756591077894,49.060432032682 L 277.1930300332606,45.4914364926517 L 276.3886873014271,40.13822703296319 L 273.9756591077894,36.569609900936484 L 271.562630912289,37.46174999885261 L 268.34525998681784,38.3538995529525 L 263.92137496359646,37.46174999885261 L 260.7040040381253,35.67747925920412 L 257.8888044785708,41.47649747086689 L 259.09531857445836,45.04532269574702 L 257.08446174673736,48.16816895222291 L 258.29097584448755,51.29113114345819 L 262.3126895017922,50.844986588228494 z" /></g></g></g></svg>