<svg xmlns="http://www.w3.org/2000/svg" xmlns:xlink="http://www.w3.org/1999/xlink" width="426.73640991561115" height="500.0" viewBox="0.0 0.0 426.73640991561115 500.0" preserveAspectRatio="xMinYMin meet"><g transform="matrix(1,0,0,-1,0,500.0)"><g><path fill-rule="evenodd" fill="#D2EBD9" stroke="#A6A6A6" stroke-width="0.25" opacity="1" d="M 362.194065079093,477.4401237880229 L 354.5411529596895,467.80867280997336 L 351.4489466417581,462.9091855661245 L 342.6857056636363,441.5656215758063 L 340.79934026300907,434.2276730388985 L 339.7964626122266,431.7896168116131 L 337.5758046619594,428.8973868188332 L 332.05997735634446,423.662616096728 L 330.17361218854785,420.79420819482766 L 329.27818551659584,415.1051142417127 L 331.84507493674755,412.6190879099304 L 336.3341467510909,412.5712794352439 L 341.20526703074574,414.17285686312243 L 349.49094725586474,417.9496753910207 L 354.7918723728508,419.90977665997343 L 353.299494817853,415.5353859172901 L 340.0113650318235,401.5751289947657 L 338.14887770451605,398.53915891295765 L 337.39671946689487,394.9533245447092 L 337.3131463304162,389.07245517900446 L 332.2748795449734,382.2590940956143 L 329.62441721744835,377.11907603021245 L 330.1258560437709,373.1265291069285 L 335.9043419137597,365.6433301458601 L 339.4144139178097,362.3439610102796 L 343.61694909632206,361.1963444771827 L 342.5663153026253,358.66200717393076 L 343.90348573215306,356.82101063244045 L 345.90924103185534,354.8365452470025 L 346.9121189136058,351.87177379080094 L 348.02244777418673,352.39778415852925 L 352.5950924940407,358.7098249210976 L 355.3410673420876,360.98116578761255 L 358.5646029431373,362.1766006083344 L 360.4390291906893,361.8657881823601 L 375.44637787155807,352.8759741768008 L 378.5027669649571,351.5848584451596 L 379.5056448467076,350.9153884482803 L 380.1025957297534,349.50471372529864 L 380.7473027575761,345.7269363437081 L 381.36813217401505,344.72270775033394 L 384.4483993407339,344.05321982549503 L 386.86008140817285,344.6509768861579 L 389.1643124949187,345.55956518574385 L 392.01773832179606,345.7508465332212 L 394.85922522842884,344.69879746448714 L 400.14821142330766,341.2317868859973 L 403.1926615983248,340.3231831322191 L 408.58909877203405,340.80139595468063 L 419.3819733541459,343.81411646993365 L 424.7784105297178,343.7662959569716 L 422.5458136573434,339.77323716686806 L 415.39434059523046,331.5239043246838 L 413.86614581756294,327.8415058606188 L 415.0122916698456,324.4459989683819 L 420.6952654812485,319.0896123351995 L 422.9756182655692,315.8852894953452 L 423.0114354901016,314.66572281497065 L 421.9130455516279,311.58090915792855 L 421.7220212034881,310.2417532276013 L 422.5458136573434,308.4960566337686 L 425.54250791855156,306.2959825996659 L 426.4976296555251,304.64591393090086 L 426.73640991561115,301.72837380866986 L 426.3304831478745,298.8347129666945 L 424.3247278481722,293.31035368703306 L 421.05343610420823,288.64683344383957 L 421.17282623425126,286.94881102390354 L 422.1995821874589,282.8352407977218 L 422.3189723175019,281.49592316971393 L 418.83277838490903,275.2775627801893 L 413.26919470354915,271.4747140951222 L 406.8579409569502,270.7571884167264 L 400.74516230635345,273.79469850321766 L 400.0407602135092,271.04419886361575 L 398.5603215806186,268.96336443850305 L 396.30384663678706,267.6957203708007 L 393.4623599629849,267.3369519151165 L 387.14661781303585,264.9451477780822 L 382.04865619540215,261.78792841598624 L 377.6909136623144,257.72174747590907 L 373.4406223408878,252.6030399359297 L 382.02477812208235,247.9147754025762 L 381.7263025660068,241.74333868565736 L 375.661280291155,235.85878563905135 L 364.8206495642662,230.81134071794804 L 361.8120163846761,227.22303885559086 L 359.9734073597938,225.62024496635422 L 358.3855177462101,225.04610691807466 L 352.236921871081,223.63467791170115 L 351.8787514809519,223.06053484539734 L 351.48476363532245,221.05102143908152 L 351.2340442221612,220.54864022985566 L 346.8166068550199,220.18979576113634 L 346.6972164940089,220.62040891323704 L 346.24353381432593,220.66825484321453 L 342.3991692587733,220.09410367865348 L 341.80221814475954,219.37641286634607 L 340.9426084663719,216.6491650713724 L 340.36953542381525,215.71615151595324 L 333.93440360575914,211.0988697799039 L 332.68080654367805,208.323668244062 L 333.2300012819469,203.6823020890588 L 333.14642814546824,199.44756447320106 L 331.41527009755373,195.14096471923403 L 321.8879319615662,180.13894763204735 L 320.2642251253128,175.97551567835035 L 320.00156656093895,171.5009282170795 L 320.98056637123227,167.60053931141738 L 322.2938587293029,164.03508776787203 L 323.0101997423917,160.4217135781655 L 322.22222428023815,156.35359839251032 L 311.9188498351723,159.72774664056487 L 306.080668669194,155.99464310600888 L 297.1980373300612,140.6307506453595 L 285.0679927803576,128.18559808825376 L 282.2981398589909,123.44665785378311 L 278.28662902861834,106.76370131620206 L 274.084093619138,96.61438612139318 L 268.66377837210894,87.23056867346168 L 261.69139050506055,78.73205928120296 L 245.9557616598904,65.61246229941025 L 243.56795743480325,62.16482035157969 L 237.67008120380342,48.03837624529842 L 234.75696008093655,44.350951448082924 L 229.62318146973848,41.45363555889344 L 227.28313338942826,39.56197375553893 L 219.355623787269,35.060216632671654 L 211.06994356028736,27.277651476033498 L 198.79663034528494,21.506356611207593 L 196.7669969741255,20.81187254784163 L 192.8987543452531,21.458461183821782 L 190.39155999012291,22.727683927631006 L 187.93212177976966,23.039001464901958 L 184.1832695119083,20.740029346139636 L 183.7654038257897,19.925802615645807 L 183.2759039197117,16.14199345599627 L 182.08200169168413,14.154263286152855 L 178.1421250794083,12.310203705797903 L 176.68556451797485,10.945107824227307 L 175.8259550705552,7.664044269826263 L 175.70656470954418,4.67031781852711 L 175.00216261669993,2.0597457895055413 L 172.3397609051317,0.0 L 171.28912734240294,0.40716129989596084 L 161.85730126313865,1.1496286616893485 L 150.49135364033282,3.8320651397225447 L 96.4075908344239,3.1375097693526186 L 89.14866633154452,59.124137036385946 L 81.45993698947132,85.74635003809817 L 67.19280739501119,109.89934682520106 L 58.42956641688943,119.37777820852352 L 54.90755549073219,124.35616047517397 L 52.710775611922145,130.53109164338093 L 50.7527762260288,157.83727325405926 L 54.609079932793975,184.44585805409588 L 55.050823694095016,202.605681962159 L 50.77665429934859,261.4052318871254 L 51.25421528145671,268.1740775933722 L 52.257092932239175,271.2594565798645 L 58.68028583005071,277.19092216482386 L 54.74040921591222,280.3479307531379 L 53.14058022014797,284.8681189001654 L 52.495873192325234,300.2935051631648 L 53.28384865447879,304.980711576005 L 55.01500670053065,308.8786761845695 L 57.963944816961884,310.5287157674902 L 59.01457837969065,313.1831040267134 L 57.235664419829845,328.032800415589 L 55.09857960790396,331.4521697133314 L 51.89892230927944,333.9150430463487 L 47.959045466035604,335.4214489373262 L 43.68487606942654,335.92358215275453 L 39.24356063082814,337.6929961180431 L 37.26168294250965,341.82955080643296 L 36.354317581281066,346.6116107093985 L 35.00520822964609,350.2937360126525 L 31.530953217297792,352.6368792784633 L 27.30454019829631,354.0475368584157 L 23.770589888095856,355.91246209159726 L 22.26627341285348,359.6183636877686 L 21.90810279175639,363.3481214075582 L 20.952981054782867,365.6433301458601 L 17.51454326696694,370.68793805438327 L 15.389397604390979,376.8800029565464 L 14.362641651183367,378.7208595877746 L 10.900325790047646,380.25091247155797 L 6.0650225058197975,380.70514540036675 L 1.8505481760948896,381.92439804330934 L 0.0,385.8211882900796 L 0.4417437594383955,390.745886076882 L 1.9938166104257107,394.69036164530553 L 4.930815573781729,397.22435830987524 L 9.634789576753974,397.8219957649126 L 6.578400481492281,403.4158189530135 L 10.55409432016313,426.5548982847831 L 15.795324141159654,431.69400646258146 L 29.23866151086986,432.57840197969927 L 32.9994529299438,432.0286428940599 L 47.02780180051923,425.9095155602554 L 52.18545871600509,424.33190686715534 L 61.93963842280209,423.11284011631506 L 66.82269808277488,421.9415748833562 L 71.04911110177636,419.527318896784 L 73.866719936952,417.4237922859611 L 74.03386621177197,416.3481192457257 L 73.73539088480175,413.6230628575431 L 74.58306118100882,410.27646614646073 L 79.59744966030121,405.56725954974536 L 81.00625407882035,402.6986686330638 L 80.50481548346579,400.06910064502154 L 77.30515795573592,396.14860776939895 L 76.51718249544501,393.7341302742716 L 77.04249939136207,391.05666493909666 L 79.19152312539518,386.25150534685235 L 79.4661206100136,383.3588059148751 L 81.50769313424826,378.9599310194026 L 87.19066694565117,379.48588723456487 L 97.15974907204509,383.813033378392 L 101.30258895456791,384.2911669941386 L 114.12509713880718,381.90049114997964 L 119.4976564720273,378.86430237977766 L 123.89121576584876,380.34654061769834 L 128.21314130537212,383.0958318322082 L 133.2752859313041,383.7652201553574 L 135.66309015639126,383.6695934526506 L 137.50169918127358,384.3867934771115 L 139.22091807611287,385.43868371803546 L 146.09779388457537,387.924953573558 L 147.74537879414856,387.8293283371604 L 159.82766743004322,383.8369401023374 L 164.18541019409895,383.1675519567798 L 169.35500602796674,383.813033378392 L 171.59954182058573,385.17571165633854 L 172.60241946950555,387.3272947742371 L 173.3665168583393,392.18024739588145 L 175.0857357531786,394.3317752999137 L 177.73619831167161,394.35568110167515 L 182.89385522529483,392.8018015110283 L 188.6365241035819,392.6344603706384 L 193.30468111298978,393.5189777282649 L 197.6504844930023,396.07689105632016 L 202.37833656929433,400.88187870616093 L 205.45860396698117,405.06525827170117 L 208.27621280029416,409.8461867076112 L 210.47299244627357,414.8899783909437 L 211.7146508190781,419.98148752044654 L 212.78916245512664,446.2742420450086 L 217.7916122470051,463.74568887636997 L 216.13208818621933,481.52682910923613 L 217.6364048924297,493.3564711462823 L 217.61252681910992,495.5072687079082 L 218.28111192025244,496.79774025880033 L 220.64503807201982,496.8694330762373 L 222.49558624997735,495.8179382333183 L 228.54866960458457,490.6082090414129 L 230.33952248468995,490.3453307065065 L 232.28558295033872,490.5365150763537 L 234.50624090060592,490.46482109540375 L 237.14476430602372,489.53279581596144 L 239.96237314119935,487.358060315717 L 247.12578558549285,478.874061494309 L 250.9223939962685,475.55209599016234 L 255.74575836025178,472.34959240671014 L 261.0466834772378,470.2942369155353 L 266.2043401617557,470.46153400529874 L 270.14421700686216,473.18607030663406 L 280.57892096601427,486.28263648058055 L 281.0564819481224,487.9077201321488 L 281.17587208002806,490.08245192677714 L 281.99966430291533,491.6358229548787 L 284.6859440859407,491.3729452226544 L 291.89711221307516,487.859923834505 L 294.7624774221331,487.21467092551757 L 298.48745161667466,487.3819588494953 L 302.90488921292126,488.2900918764062 L 307.2506928257644,489.7000827684533 L 310.5697402525693,491.3968432281399 L 313.5425566714257,494.1450984280091 L 315.56025089137256,496.79774025880033 L 317.8167258352041,498.90072028228315 L 321.5297613404691,500.0 L 322.652029119432,499.42646341520594 L 329.95870976895094,497.68194965290604 L 330.74668499827385,497.968719592609 L 331.84507493674755,496.7021500422852 L 333.0389769356698,493.45206234260695 L 334.36420821398497,491.6358229548787 L 346.9121189136058,481.33563937217696 L 354.600848255679,477.7269117567339 L 362.194065079093,477.4401237880229 z" /></g></g></svg>