<svg xmlns="http://www.w3.org/2000/svg" xmlns:xlink="http://www.w3.org/1999/xlink" width="245.3761383704841" height="500.0" viewBox="0.0 0.0 245.3761383704841 500.0" preserveAspectRatio="xMinYMin meet"><g transform="matrix(1,0,0,-1,0,500.0)"><g><path fill-rule="evenodd" fill="#D2EBD9" stroke="#A6A6A6" stroke-width="0.25" opacity="1" d="M 226.1593887284398,442.64774247282185 L 224.40417104028165,440.7964796463493 L 218.86658280156553,431.3153384284815 L 217.9189300853759,427.64844967995305 L 215.81761307828128,422.03361270180903 L 215.95770082063973,420.1630054907873 L 217.1443269122392,417.95210135693196 L 231.43328226171434,397.69595919537824 L 233.36154956929386,395.8545944237849 L 234.02078633010387,395.7433193117613 L 235.51230939477682,395.8398976364406 L 236.17978654429317,395.19324980687816 L 235.36398110352457,392.0379449814791 L 235.36398110352457,390.27888168918435 L 235.68535901419818,388.65637637721375 L 236.27867201901972,387.1662034029141 L 237.09447738155723,385.77895693387836 L 238.7343286573887,378.52502639743034 L 238.6436836514622,376.133407674497 L 236.9131872933358,371.8584529074142 L 236.81430181860924,370.4532100573415 L 237.21808426454663,369.48426900594495 L 239.16283259168267,367.52133743208833 L 239.55837456882,366.65107097115833 L 240.3082563355565,363.9880380948307 L 241.05813802219927,363.08854349527974 L 243.2088977675885,362.5622810765635 L 244.2224741578102,361.9752286626026 L 244.95587498508394,360.40702891000547 L 245.351417042315,358.0465312593151 L 245.3761383704841,353.5902910877485 L 244.77458489499986,351.41486347524915 L 242.73919164389372,347.36630739597604 L 242.02227167598903,345.20399320777506 L 241.93986714072526,341.0181819499703 L 241.4124777317047,339.5183309575077 L 240.20113039202988,337.99971771927085 L 238.95682109333575,337.80701754486654 L 233.84773663058877,340.4923859605333 L 232.16668308898807,340.79194174776785 L 230.60099595971406,340.28290861542337 L 229.04354922100902,338.73073531407863 L 228.51615989021957,337.9703937572194 L 228.29366753436625,337.4551339519676 L 228.21126291900873,335.8591517730383 L 227.89812555722892,334.89574657636695 L 225.88745363242924,331.7837787340395 L 224.24760235846043,328.1173380325781 L 224.32176642492414,326.601499100565 L 225.45894969813526,324.7528830183437 L 230.88117160275578,319.13038968888577 L 231.59809149056673,318.1111038675299 L 231.82882423885167,316.8449010347249 L 231.54864875413477,314.94048094563186 L 230.82348831743002,313.1638456712244 L 229.82639286480844,312.4168161563575 L 228.66448818147182,311.85812736849766 L 227.4284193534404,310.66755338956136 L 226.90927041508257,309.3577754730359 L 226.4148429632187,302.4417260502232 L 225.6072779893875,300.833262324566 L 223.0280144698918,297.73583333403803 L 220.92669746093452,293.88389698788524 L 219.51757901348174,292.56031443190295 L 214.72163207270205,293.08513949543703 L 211.61497914232314,292.255042525474 L 205.87961995601654,289.88825773319695 L 204.59410831145942,288.92864044057205 L 203.8936693612486,287.31053979252465 L 203.71237927116454,285.4793187882751 L 203.99255483597517,283.88859866710845 L 204.9731694292277,281.3971465001814 L 205.60768478177488,278.93727138033137 L 205.04733357392251,276.8182372142328 L 202.451589114964,275.35757887142245 L 199.48502392694354,275.7337065177271 L 198.1995124425739,275.3366830520099 L 197.5979588869959,273.3432940579951 L 198.1171078272164,271.76790910831187 L 198.0264627430588,271.35005032958 L 193.16459212452173,264.95760208182037 L 192.5712791197002,264.4354087569518 L 191.28576755337417,263.99886256060563 L 190.7089354880154,263.5685894188937 L 189.17621015571058,261.0727188879391 L 188.86307271383703,258.8339361040853 L 189.39870251342654,256.57862772012595 L 190.412278983742,254.03953521233052 L 190.68421407975256,252.69073587527964 L 190.67597360908985,247.444395400933 L 190.18154607899487,245.76610620389692 L 188.5416948031634,242.62688625173178 L 185.88826713711023,234.3421721078921 L 184.6686792485416,231.81758317234926 L 182.70745014213026,230.44897268817294 L 177.26050690934062,229.02827317651827 L 176.32933505252004,229.0199285869021 L 173.88191880472004,230.35717791621573 L 173.01667070575058,230.46149015030824 L 169.71224666759372,230.21948638441972 L 168.8634795062244,229.66872664098628 L 167.4213992599398,228.38366144674364 L 166.35013958252966,228.23346277989913 L 160.20275739952922,228.7403865059605 L 160.4582116343081,226.60010192892514 L 160.285161934793,221.48366461019032 L 159.84841769002378,219.2730064393254 L 158.49698244966567,217.25853236974217 L 158.6370702702552,216.59749798791017 L 159.37047109752893,216.27845513285138 L 159.67536807060242,215.71544675948098 L 159.6424061935395,214.48312133701984 L 158.64531066082418,212.18541976739652 L 158.3486541584134,210.94073195906822 L 158.85956262797117,208.985196980997 L 158.76067707315087,208.27014535223134 L 158.33217329904437,207.84487487724982 L 156.98897852748632,207.2257420438109 L 156.5357532631606,206.6170448169578 L 158.25800915248692,183.662263711798 L 157.63173426873982,180.93992168444674 L 156.9972189962864,179.9901783580426 L 155.40681045874953,178.1886617721757 L 154.98654699325562,177.1806908599101 L 155.16783716343343,174.22985593392514 L 154.55804321728647,170.89201971772127 L 154.45915774442255,169.34919698233716 L 154.7475737761706,167.42962267284747 L 155.3656081110239,165.6517259547254 L 156.9312952402979,162.29814256518148 L 157.47516558878124,160.5829762041103 L 157.43396332114935,158.81586818106007 L 155.35736772231758,154.62848114559893 L 155.14311575330794,153.15511650871485 L 154.97006613388658,148.34009545040317 L 153.96473021246493,143.24077758740168 L 153.65983316116035,138.1651317445794 L 152.38256206549704,135.2989842024399 L 152.47320714965463,134.62928151281085 L 153.11596297100186,133.64347027684562 L 154.01417294889688,131.33503907069098 L 155.92595931887627,129.19312374980655 L 156.63463873788714,128.03696224314626 L 156.8571311738342,126.88084048533347 L 155.90947845950723,113.40120739606209 L 156.32974176481366,110.2461931653088 L 157.92839077301323,107.25356026587542 L 160.285161934793,104.43157703534234 L 162.04862017184496,101.48515445017256 L 161.83436820469797,98.12345955555793 L 161.5871544405818,96.95172032678965 L 161.33170020394027,96.78967433155049 L 159.60944431461394,97.13454232667573 L 158.7771580927074,97.1428524509538 L 158.16736406832933,96.78967433155049 L 157.96959304064512,95.90051217831206 L 159.6424061935395,76.12859124026727 L 159.56000165641308,75.01570284739137 L 159.29630695283413,74.25580219202675 L 158.66179160028696,73.42532758379821 L 157.58229153230786,71.36583148210775 L 157.49988691695035,70.80945505772252 L 157.80478389002383,69.76315788703505 L 158.48874197900295,68.89956978370901 L 160.5818184390664,67.17660543392412 L 161.04328417219222,66.41686589759775 L 160.73014673031867,65.54920401528943 L 157.96135265007615,64.36606130865403 L 155.89299752004445,61.47685936768539 L 156.1566921453923,58.56297547079157 L 157.2361922916025,55.48330246261321 L 157.63173426873982,52.117530187941156 L 156.7829670291394,48.74997952254489 L 156.56871514208615,47.01133496197872 L 156.97249758802354,45.428365297964774 L 157.58229153230786,44.61304696998559 L 158.25800915248692,44.125523885246366 L 160.06266957893968,43.787373204831965 L 160.53237578086555,43.42433124128729 L 160.95263908617198,38.90629812551197 L 160.5076543726027,37.99985021154862 L 159.52703977935016,37.350622445112094 L 158.08495945297182,36.06256963184569 L 157.17026861570776,34.33693523716647 L 157.1455472074449,32.692260096315295 L 157.82950529828668,29.307720885495655 L 157.66469614766538,27.6093380888924 L 155.9177188500762,22.510474609211087 L 155.02774934098125,17.279572721919976 L 154.99450372718275,12.389731373870745 L 123.35197712481022,9.432427218416706 L 116.96075524576008,8.002738897921517 L 89.66991326399148,4.885666351416148 L 68.5496825426817,0.0 L 67.97554371878505,1.6737576836021617 L 69.62363546341658,2.5503802398452535 L 79.86652563884854,4.983466602279805 L 81.52285785228014,5.082948490511626 L 78.4738881289959,16.99347849341575 L 76.42201393842697,20.304415441816673 L 73.49665109813213,22.137260663090274 L 73.32360147871077,22.838076340965927 L 73.52137250639498,24.559065889916383 L 73.42248695343733,25.36567556054797 L 72.91981903091073,26.049958583782427 L 71.59310511872172,27.146909379400313 L 71.27996775694191,28.623382157064043 L 70.70313561148942,28.82660878985189 L 69.17041027918458,28.83905132766813 L 67.87665824405849,29.74943667871412 L 66.77243684977293,31.04350561904721 L 66.51698253490031,31.8647634225199 L 66.69003223441541,33.90139035927132 L 65.8165435846895,35.50878207583446 L 64.786486255005,36.348799882573076 L 64.27557786367834,37.25106133101508 L 64.93481454625726,39.05149766302202 L 66.74771536141634,41.4909306865884 L 67.0690933521837,42.73352364310995 L 65.64349396526814,47.698069369536825 L 65.59405114687979,49.06950019428041 L 66.19560470245779,52.44122905912809 L 66.03079555183649,53.557596114464104 L 65.3138755839318,54.42498191585764 L 64.00364268943667,55.40859650343191 L 63.10543263144791,56.740874464740045 L 61.55622644163668,62.44820413575508 L 67.58000174164772,62.406693106750026 L 69.03032245859504,62.838409571675584 L 68.68422321788967,143.24077758740168 L 69.02208198793232,165.30198746174574 L 68.1733147483319,172.21420196490362 L 67.76953230053186,172.95756335894112 L 67.29832794703543,173.11800663429312 L 67.0690933521837,173.45314750494435 L 67.46463532932103,175.41890277189668 L 67.58824221231043,177.50140536553226 L 70.20870799943805,181.8501195750432 L 70.50536458194256,183.27483097056393 L 70.1675058118999,184.06219951726962 L 68.10739115066826,186.68482339126058 L 67.70360862463713,187.58685758837964 L 67.58824221231043,188.5368345467141 L 67.07733374089003,228.1333307668101 L 66.64882988668978,230.33631553058513 L 66.01431461237371,232.2807556843618 L 64.3744633384049,235.1747090839781 L 53.052073096856475,247.1103996107122 L 51.132046177983284,250.08101362735033 L 49.97838196530938,253.302489772439 L 49.4345116969198,261.4925106744049 L 48.519820779562,263.7858139226446 L 47.15190467983484,263.1153476992622 L 45.973519057035446,264.3247049760539 L 45.165954085066915,266.3007288292283 L 44.91049985028803,267.94682712235954 L 45.24011822976172,268.9976239177631 L 47.15190467983484,272.21293580683414 L 47.226068744435906,274.6617562487954 L 47.53096571750939,276.4504532099236 L 46.90469091385603,280.22674478567205 L 46.55859159305692,301.93554104759824 L 45.53677473217249,304.69039310573135 L 0.7086794190108776,334.7135414390359 L 0.06592375412583351,335.9345502598444 L 0.0,337.7986392956227 L 1.1124620232731104,346.1489349952899 L 2.2826070971786976,350.6667112290161 L 2.340290302410722,353.8376061320305 L 1.7057750299572945,361.1470894238446 L 2.851198773831129,363.860135938623 L 7.185680061578751,368.0162496723933 L 8.215737391263247,369.50943577243015 L 8.462951077148318,370.3441498449538 L 8.743126720190048,373.06660712638404 L 9.98743593879044,375.4600208722986 L 9.872069604694843,376.3389936644817 L 9.204592375084758,377.9879405546235 L 9.01506189443171,378.8628091936698 L 9.245794642716646,380.47625926090404 L 11.289428442716599,385.47675345407333 L 13.72036375105381,384.12527929700445 L 16.217222737148404,383.96579361485783 L 16.555081507191062,384.40018485323526 L 16.752852534875274,385.3487378968857 L 16.67868847027421,386.3015260080574 L 16.217222737148404,386.73805822781287 L 15.582707384601235,387.0402775510447 L 15.302531819790602,387.7790520769777 L 15.351974556222558,389.51064420619514 L 15.632150201126933,389.69955281424336 L 17.30496327392757,392.432597596664 L 17.65930306352675,392.5753458329709 L 19.77710092999041,392.163897225284 L 21.375749856233597,391.04924311384093 L 21.93610106408596,390.06897824583575 L 22.438769064843655,390.09416659059934 L 23.617154685780406,390.6210281953681 L 26.07281132414937,390.35024924215395 L 26.880376296117902,390.06897824583575 L 27.66321986168623,388.8620695058489 L 28.2482923977077,388.31425797066186 L 28.511987103149295,388.68156314932276 L 28.60263218730688,389.985017450992 L 27.69618166051805,390.92329668824095 L 27.193513737991452,391.7860424948158 L 26.880376296117902,394.5550172304502 L 25.74319302290678,395.0588836176321 L 25.74319302290678,396.77420901623555 L 24.993311256170273,396.94847792421933 L 24.19398675300181,396.38158381485846 L 24.11158213764429,397.607771989773 L 27.152311470359564,398.3846705749165 L 27.613777045160532,398.7122355294414 L 28.157647393643856,400.1926337168552 L 28.511987103149295,400.60842186340597 L 29.360754422843456,400.6000221009599 L 31.775208791717887,399.54796664917376 L 31.363185796886683,400.94861760758795 L 31.050048355013132,403.7186659987783 L 29.55852537229657,406.18447294377256 L 29.954067427664995,407.203216806869 L 30.77811326086521,407.9951369580813 L 31.610399562865496,409.27024785231333 L 32.37676226720214,408.6568415844813 L 32.97831566259265,407.73046040174086 L 32.871189719066024,407.31454610521905 L 33.57162874750793,407.30404332163744 L 34.403915049508214,407.7640700035263 L 35.09611360915005,407.92371602810454 L 36.60411753132939,407.8480940568261 L 37.89786948636174,407.4762896975735 L 40.54305676370859,406.2096783941379 L 41.556633153930306,408.0959669688018 L 41.680240117013454,408.72826475533657 L 41.49895002692938,409.52653889532667 L 40.716106463223696,410.3059329636162 L 40.54305676370859,410.95089583599474 L 40.93859882093966,411.9278282081941 L 41.82856832817197,411.48032508871984 L 42.75974018499255,410.4151762331603 L 43.262408185750246,409.5391434188932 L 43.80627845413983,410.2092950101942 L 44.36662966012955,410.4361845222302 L 44.93522125855088,410.2092950101942 L 45.48733199574053,409.5391434188932 L 46.87996950559318,410.7303039391991 L 46.723400823771954,411.7744576066034 L 45.9487976487726,412.88799307181034 L 45.48733199574053,414.2810379267903 L 46.17953047528863,415.82125879079103 L 47.76993909291923,416.86143842944875 L 49.57459951750934,417.6578905333299 L 50.88483241200447,418.47118244331796 L 50.126710176467896,420.205039995024 L 50.22559580951929,420.88811050984077 L 50.88483241200447,421.8570544566028 L 51.92313021235168,422.63265941350255 L 53.736031107604504,423.4103925108211 L 54.197496838867664,424.57914359518327 L 55.499489264562726,423.84130998386536 L 57.040455063804984,423.5217996381689 L 64.53927248902619,422.91432187880855 L 64.05308542773128,420.69474694225937 L 65.43748246692121,420.77881780278403 L 67.11029561981559,417.6578905333299 L 68.66774227842689,418.1937773623504 L 70.02741790935397,418.9209220466437 L 73.71090298518538,419.7048349704128 L 75.2353878468275,420.442536037066 L 76.47969714552164,420.83766770141665 L 80.00661345943809,420.58545515174046 L 81.51461738161743,420.69474694225937 L 84.64599172025919,421.96214846195653 L 86.17047650180757,422.27743327454664 L 87.55487362109125,421.8570544566028 L 88.3212362471968,422.36991768842563 L 89.29361036978662,422.22698750544805 L 94.73231305554509,419.93812249880284 L 97.5505500305444,419.71744510391727 L 99.7342714946717,420.7662071704399 L 110.59519608318806,431.8999083772069 L 116.42120035365224,436.6863768826006 L 120.68975796550512,439.08840361691546 L 121.79397944174707,440.16540200694 L 122.08239547535777,440.93952638469636 L 122.06591461598873,443.2536433095811 L 122.92292232625186,445.5595819246955 L 125.98837298713624,449.00630735361483 L 127.10907532274723,451.1234236025484 L 129.98499534651637,459.0001878886251 L 129.82842674478889,459.83391595154535 L 128.89725488983095,461.2445879293373 L 128.79012886621058,462.1373581220396 L 129.24335404857993,463.1859881528653 L 129.91907167062163,463.362870400073 L 130.6689534354955,463.2575831540162 L 131.36115191690624,463.4555236182641 L 131.89678179472685,464.06620197405573 L 132.52305667847395,465.2454909218941 L 133.0751673374325,465.8309470982058 L 133.8744919206947,465.9067627246259 L 134.70677822083235,465.5992898939876 L 135.29185075685382,465.72564805927686 L 135.34129357524216,467.1240601436002 L 135.17648434452713,468.1392283583991 L 134.6573354844004,468.52256137062795 L 133.05044600740075,469.0912544381572 L 131.65780849941075,470.43090095184743 L 131.21282370388508,471.2397836818127 L 128.52643416076899,478.8835202344926 L 127.7435905970633,483.4272123526316 L 127.67766691930592,485.28205471031833 L 128.37810594961047,486.69858710304834 L 130.30637325719,487.5923994425684 L 134.253553038463,487.75683124456555 L 135.10232019796968,488.8825903646648 L 135.51434319466352,489.18617591960356 L 136.10765619948506,489.0470319436863 L 136.5608814638108,488.5747927535558 L 136.9646639097482,488.4398690465605 L 137.7887097429484,490.2993596654851 L 138.34906095080078,490.53128014481626 L 140.0383550412953,490.38369406573474 L 140.63166804797947,489.3843521164963 L 141.23322152160108,489.42651747970376 L 142.77418724261224,490.63669949863106 L 145.60890507884324,491.41260110982694 L 147.00154258683324,490.9065750995651 L 148.44362283311784,491.85960068542045 L 148.99573357217014,491.9650264836382 L 151.80572999827564,491.2101892575156 L 152.5308903567493,491.6318827102659 L 153.6433523017913,493.4030859018676 L 154.29434851370752,495.2630069440929 L 154.72285236790776,495.7438291455619 L 155.58810046873987,496.0812547458336 L 156.42862731963396,495.5118522235425 L 157.26091362163424,495.71852240979206 L 157.99431444890797,496.3174557972234 L 159.27158554457128,497.85282643372193 L 160.15331466309726,498.43494643701706 L 160.9196772892028,498.586806391133 L 162.53480723500252,498.5277496817289 L 165.24591810628772,498.7597594803665 L 166.19357090257108,500.0 L 170.0171437188983,496.5578773729503 L 171.64051405526698,495.68056240305305 L 172.43983855843544,494.80750110466033 L 173.05787297338247,493.80373549077194 L 173.5687813628465,491.96924357209355 L 174.21977757662535,491.28609348856844 L 176.04091894067824,490.4764623865485 L 178.68610621616244,490.1770753406454 L 179.35358344763517,489.9662418256048 L 180.43308351375163,488.02245446282905 L 183.6633432470262,483.23330619512126 L 197.37546652927995,470.6541832515504 L 197.62268029525876,470.22025917621795 L 198.70218036323786,469.39877614204306 L 198.94939412921667,468.96066430036444 L 199.54270721413195,465.3718470565509 L 200.12777975015342,463.8893140865257 L 201.9489211142063,460.8024272877956 L 203.08610438741744,459.47599853842985 L 204.74243660271168,458.17491222405806 L 205.84665807709098,457.8885993117001 L 208.0386200901121,459.06334796512965 L 208.97803241573274,458.87807888526004 L 209.83504012599587,458.372807128937 L 210.72500963509083,458.08228120277636 L 214.30136868730187,455.8592515902128 L 217.218491056934,454.8151781958295 L 218.10846064426005,454.1921253360342 L 218.7512163091451,453.5775092804106 L 221.42112499289215,449.74285592208616 L 222.75607929565012,448.6653988065664 L 224.18991907127202,444.77267477521673 L 224.85739630274475,444.4065830690088 L 225.59903760068119,443.1147896934999 L 226.1593887284398,442.64774247282185 z" /></g></g></svg>