<svg xmlns="http://www.w3.org/2000/svg" xmlns:xlink="http://www.w3.org/1999/xlink" width="500.0" height="383.20044292794773" viewBox="0.0 0.0 500.0 383.20044292794773" preserveAspectRatio="xMinYMin meet"><g transform="matrix(1,0,0,-1,0,383.20044292794773)"><g><g><path fill-rule="evenodd" fill="#D2EBD9" stroke="#A6A6A6" stroke-width="0.25" opacity="1" d="M 421.22641506185755,328.4092973351944 L 421.45810876972973,319.97346732695587 L 424.8350306772627,316.53665361367166 L 429.7296700733714,314.2137372099678 L 434.47253823513165,310.9864430075977 L 443.69267324451357,297.85873655672185 L 467.6726127942093,228.2999367559678 L 469.2662166347727,219.56358520925278 L 468.6970721175894,213.18756504030898 L 465.73752275807783,198.62797962286277 L 465.5478077963926,184.13580116600497 L 467.59672717703506,168.59778614813695 L 472.4154805885628,154.12625838414533 L 480.8767568538897,142.83310260390863 L 493.7773573421873,130.674690275162 L 499.0893692863174,122.79769580246648 L 500.0,115.16825967823388 L 494.68798805586994,109.3559491468477 L 486.6440843385644,109.66035487118643 L 478.1448650807142,113.37984340271214 L 471.5048502422869,117.82236638525501 L 468.27969993650913,119.02100348344538 L 461.2223129174672,118.73561301908921 L 457.39007546938956,120.3623415241018 L 451.6606909772381,125.18550499941921 L 448.58731264062226,126.28904132096795 L 437.6218021889217,125.18550499941921 L 429.9573280271143,126.84081094787689 L 409.05076681403443,134.61327249970054 L 404.19407004257664,137.87643918400863 L 401.2724633081816,143.099490096909 L 396.8710820772685,179.38771448488114 L 392.5835294565186,193.8986656749039 L 380.5935596814379,222.58035351068247 L 377.40635236818343,236.8652723703999 L 375.92657787166536,266.82715059182374 L 378.49686509091407,296.03262532374356 L 385.22543413657695,289.10037172335433 L 391.94760904693976,293.41775380371837 L 399.20755803817883,301.5580205140868 L 407.4235494318418,305.9205929057789 L 415.3706537852995,307.5996791025391 L 415.60966456960887,311.9023889784585 L 412.47264958685264,317.6744340014411 L 410.3215536302887,323.8214354356169 L 411.1282147518359,326.6551044639782 L 413.51832112530246,328.09444103739224 L 416.9540994046256,328.5292422764469 L 421.22641506185755,328.4092973351944 z" /><path fill-rule="evenodd" fill="#D2EBD9" stroke="#A6A6A6" stroke-width="0.25" opacity="1" d="M 360.8463466283865,321.24267474689987 L 352.4778391122818,312.8523663895321 L 351.3016078202054,307.18800001434283 L 350.9980646162294,301.0287430531462 L 348.60765903955325,295.40272304188693 L 342.76444593723863,291.79490200191503 L 336.3141456930898,291.6425942464266 L 329.5603018780239,292.78490595612675 L 322.8444010550156,293.14663899625884 L 314.6107823760249,290.88105575030204 L 307.97076753759757,286.70215610810556 L 296.1325697316788,275.37473490746925 L 289.9099270743318,271.44357173598837 L 276.44018243579194,265.7801391983521 L 272.8356029414572,262.4392484687269 L 272.6079449877143,256.3572271312587 L 275.3398371282965,249.52345378830796 L 282.4351675068028,235.93258885579417 L 284.5599717707373,228.31897073070286 L 285.8120890473947,220.1536130491877 L 287.59540748177096,177.1136108757346 L 289.7960980972275,163.64065344358096 L 296.36022695107386,153.37463537883013 L 303.56938593974337,150.74872803431936 L 308.9952272279188,151.6430561617599 L 311.72711900109425,149.84488920983858 L 310.89237427245826,139.30349258129718 L 307.51545199751854,125.35674315021606 L 304.7835602243431,119.19223782903282 L 300.8374941665679,112.92322849162156 L 289.6822691205889,102.1359145155875 L 287.51952149765566,98.73999428929528 L 287.7471794509329,91.18730977235828 L 299.2059480682947,95.8577749398537 L 300.45806497801095,89.43709463288542 L 297.8020588224754,82.67413537600078 L 289.41666854172945,70.12836792337475 L 286.83654873771593,62.96639825589955 L 284.7876297244802,47.76801335217897 L 281.9798519667238,42.37553590472089 L 248.2106328899972,10.07980791782029 L 230.90865117078647,0.0 L 215.80736006703228,1.7496782652451657 L 213.98609900753945,4.659491708909627 L 211.2542068674229,13.788502000679728 L 209.47088879998773,17.563810052233748 L 206.54928206512704,20.369170844438486 L 198.77097892668098,25.856343145482242 L 175.70167009020224,47.216397165029775 L 170.46554376371205,54.273356794787105 L 166.8609642693773,61.47315479267854 L 159.2344327326864,84.74771186534781 L 154.60539391543716,89.60831092181616 L 147.81360710784793,90.00781550776446 L 132.7882019886747,87.30641197954537 L 116.73833681223914,90.48341785202501 L 104.21716587943956,91.36803948442684 L 102.50973342964426,94.73533419938758 L 101.86470366176218,100.2429454929079 L 103.04093458736315,102.40226328873541 L 108.16323193721473,106.88266187731642 L 109.37740622181445,110.42137173656374 L 106.87317203497514,126.85983772220789 L 101.86470366176218,134.42300131038064 L 101.86470366176218,144.68830667820293 L 99.01898291194811,155.0015688802814 L 96.85623492160812,159.04515926499153 L 92.98605521582067,163.3266734792851 L 91.77188093122095,165.73386547120754 L 91.43039436778054,168.6358451495762 L 90.59564963914454,171.09065896482207 L 87.9396434831433,172.11826229578583 L 82.28614534297958,172.2704999554553 L 80.00956837600097,173.383741588681 L 77.20179098518565,180.92916823440464 L 72.87629537191242,183.75519014865858 L 63.84587532375008,187.21877232153201 L 51.8559051817283,196.58208888798254 L 44.11554503533989,200.62630642950535 L 24.005785558838397,203.71898496244103 L 0.0,215.17656328820158 L 92.85564194293693,212.05939726659562 L 120.37174443388358,217.28966291173128 L 145.73675096826628,231.6022433838807 L 194.76381302485242,249.30297620320925 L 202.47190696094185,256.9022246573004 L 208.11853370955214,267.5595390960807 L 221.3836256256327,281.0504513600026 L 265.74997959285975,316.44505191926146 L 341.2773488583043,362.3261620044359 L 388.78071780782193,382.0607082018396 L 397.9826282276772,383.20044292794773 L 404.91393729904667,380.50108000432374 L 405.4517113799229,375.7022881307057 L 400.1038479283452,371.9233071882045 L 388.6313361595385,366.7797895737458 L 385.58395031280816,361.8163245669566 L 379.4891782524064,347.1664488958195 L 378.413630457595,342.75816377211595 L 375.9338945806958,337.7052276551258 L 364.521135692019,327.1048965608352 L 360.8463466283865,321.24267474689987 z" /></g></g></g></svg>