<svg xmlns="http://www.w3.org/2000/svg" xmlns:xlink="http://www.w3.org/1999/xlink" width="441.8653136882931" height="499.98860871745273" viewBox="0.0 0.0 441.8653136882931 499.98860871745273" preserveAspectRatio="xMinYMin meet"><g transform="matrix(1,0,0,-1,0,499.98860871745273)"><g><path fill-rule="evenodd" fill="#D2EBD9" stroke="#A6A6A6" stroke-width="0.25" opacity="1" d="M 5.664309807121754,208.12352280784398 L 5.617348304018378,212.22016983968206 L 5.211229829117656,213.34191199345514 L 3.967609003186226,214.76932212151587 L 2.5068925973027945,215.94553914177231 L 0.0,216.40813016239554 L 0.6185352727770805,217.37633593333885 L 1.1827966701239347,219.4808393116109 L 1.5823648273944855,220.30365760647692 L 2.5873676650226116,220.52697735722177 L 4.5449709594249725,222.3250306271948 L 5.664136152714491,223.0887705187779 L 8.65762229077518,224.04430800676346 L 9.433364700525999,224.94881662982516 L 9.605543930083513,225.5478430467192 L 9.05157588236034,226.1233305267524 L 9.159187922254205,226.4913047850132 L 10.943676201626658,227.66947690653615 L 11.373188581317663,228.1782615375705 L 12.333275141194463,230.2795478994958 L 16.008927991613746,234.21437118691392 L 16.50862212665379,235.01593388430774 L 17.196403404697776,237.06049120705575 L 17.53327587246895,237.59987603244372 L 18.112509325146675,237.96335173025727 L 20.07947021909058,238.25255591771565 L 22.795036546885967,239.8117138550151 L 23.835598135367036,241.17521305102855 L 22.865218302235007,242.54236163385212 L 22.684617223218083,243.1711635417305 L 22.72953357361257,246.55248360265978 L 22.80439410917461,247.32145670475438 L 23.12816598266363,247.9771668901667 L 24.075151909142733,249.1596387429163 L 29.358434991911054,251.41088222386315 L 30.167864656075835,252.70201271632686 L 29.80011221766472,253.71993524301797 L 28.96635289862752,254.28928668540902 L 27.07986710779369,255.0535526573658 L 25.604178573936224,256.68710180721246 L 24.788198594003916,257.1899598638993 L 23.77009516209364,256.8469285776373 L 22.19802368246019,257.25232745008543 L 20.690519427880645,256.3908284101635 L 19.762248624116182,256.3908284101635 L 18.89760929904878,256.68320354493335 L 17.44250745885074,257.7551472734194 L 16.182978719472885,259.34913437254727 L 8.769913075491786,278.046440504957 L 8.564046556130052,279.1736609749496 L 8.884075433015823,280.2968303693924 L 11.23001778870821,283.86734699714 L 11.700703486800194,286.0927462768741 L 12.173260720446706,286.76839612214826 L 13.782762486487627,287.4750476903282 L 13.801477611064911,287.80117302341387 L 13.383194291964173,288.91921371710487 L 13.592803807929158,289.52475243015215 L 14.87011188827455,290.9336134272162 L 16.076302463188767,291.35272993100807 L 16.563831752166152,292.8000623558182 L 18.120931139215827,292.7884226955939 L 18.68987131677568,293.25011689122766 L 18.77408941462636,293.93678861646913 L 16.435633087530732,296.6402211736422 L 13.686379505321383,298.865885785548 L 11.603384794667363,302.07145624933764 L 10.219400422647595,303.37347355345264 L 9.989204246550798,304.0244030035101 L 10.819220570847392,306.4184401992243 L 10.718158807605505,310.1281830240041 L 11.048480996862054,310.6353332665749 L 11.858846409246325,311.1308388458565 L 13.869787832722068,311.6959880401846 L 14.445278288796544,312.03273641271517 L 14.944972459226847,313.11255969502963 L 15.174232887104154,317.91005114489235 L 15.6393040176481,318.6371682214085 L 16.353286487981677,318.71064991271123 L 17.966531286016107,318.51340812654234 L 18.1798838339746,318.93109098426066 L 18.074143290519714,320.65574265341274 L 18.18830564804375,321.30142774712294 L 19.28407689742744,321.7614959804341 L 20.712977584451437,323.4198497699108 L 23.77009516209364,325.2633654968813 L 24.490627946332097,325.93960557109676 L 24.332485023885965,326.68920206301846 L 23.552063832059503,328.103206503205 L 23.568907460197806,330.2701115999371 L 23.77009516209364,330.91505399765447 L 24.684329621493816,331.5715315404814 L 25.900813506916165,331.884305821266 L 28.34875337406993,332.2009297220502 L 29.04682796448469,332.95769004011527 L 28.885877795517445,334.26641682791524 L 27.986615465953946,336.76749264867976 L 27.550552807748318,338.63124312250875 L 27.173442805185914,339.16752662998624 L 25.23455459997058,340.4521555942483 L 24.75451137498021,341.1348981296178 L 24.534608475863934,342.33438788075 L 24.391437681391835,344.9564851913601 L 23.77009516209364,345.90487164561637 L 23.30128099769354,347.3349656634964 L 23.258236180990934,347.83987529808655 L 23.55954989604652,349.30818649334833 L 23.158110205084085,349.8630744279362 L 21.20237840898335,351.45818105409853 L 20.458451718091965,352.5329804273788 L 20.965631917119026,353.38039971957915 L 22.543317964300513,353.22632954339497 L 22.955986715853214,353.3033649874851 L 23.274144023656845,353.71164145250805 L 23.29753796570003,355.1289071547799 L 24.657192645594478,356.8693678434938 L 25.19712435081601,358.68647515028715 L 25.0633111204952,359.52945587411523 L 25.485337434336543,366.7973479917273 L 24.96973542124033,369.72362442710437 L 24.874288227409124,371.22484947228804 L 25.14659347012639,375.6290684060659 L 24.63660598732531,379.8199554749299 L 24.62350542843342,381.413607865572 L 24.82750041410327,382.25064591225237 L 25.969123728573322,383.1451952350326 L 26.795397019013762,384.738278982928 L 27.591726088896394,384.6269638754893 L 28.049311192706227,385.6748089247849 L 28.607957987114787,386.44622444640845 L 29.345334397628903,386.9489537340123 L 32.332270219922066,387.76631114748307 L 32.60738274641335,388.0963038946502 L 33.44675659574568,389.75760381948203 L 33.08368293941021,390.16808794857934 L 31.912115402519703,390.49416075996123 L 31.57617868296802,390.8432380743325 L 31.619223499670625,391.44929780322127 L 32.463276168331504,392.40817415271886 L 33.544075325131416,392.9949587814044 L 34.05874159000814,393.4628265008796 L 34.775531305000186,394.5748790628277 L 35.205979470163584,395.65613026730716 L 35.57279612496495,395.81715722265653 L 3.2180677838623524,453.1576246214099 L 5.925212297588587,453.04706246824935 L 7.355984518304467,453.1957492562942 L 9.798309855163097,453.7942883919459 L 13.507649959996343,453.0584999995772 L 15.561636198312044,453.1347497913521 L 18.3969794139266,452.79543407983147 L 19.737918969243765,452.4827967796009 L 20.990897357463837,452.60861532296985 L 21.555158717557788,452.50567301316187 L 24.246395390480757,451.3351122485474 L 25.75202814862132,451.38086941628717 L 28.337524278089404,450.7936376291327 L 31.212169278413057,451.59440037002787 L 32.9152467045933,450.95760813495144 L 31.900886306539178,449.21100413170643 L 31.700634352862835,448.2574986964464 L 31.851291209459305,446.74697364890017 L 31.96077474951744,446.403642925201 L 32.252730866894126,446.2090839864686 L 32.88998126424849,446.19000940257683 L 38.054423281922936,447.24669098481536 L 39.057554583996534,447.75782824796624 L 40.938425842672586,449.1270989954937 L 42.488039165735245,449.6495883683674 L 43.706394551321864,449.7449304340407 L 44.33148013986647,449.63814725074917 L 44.84614636749029,449.78688065195456 L 45.99712728150189,450.8660900425166 L 46.65402858890593,451.2130921804346 L 48.360849084332585,451.38086941628717 L 49.73079707659781,452.17396333348006 L 50.41764257103205,452.8716857091058 L 51.52557866834104,454.4614112332929 L 52.474436128512025,456.6340444451198 L 55.019694689661264,459.52641241042875 L 56.294195521622896,461.94185710069723 L 56.80886178649962,462.54373188409954 L 58.768336579203606,463.6788252328988 L 59.982948968186975,463.94544124091044 L 61.01228145882487,463.77404597145505 L 65.32799199223518,463.9797199880704 L 66.38914027623832,463.7511930782348 L 68.50395070761442,462.2199425075669 L 69.19828230142593,461.93804765841924 L 70.43160977959633,462.25803587329574 L 71.03236567601562,463.32078808010556 L 71.77348512038589,465.75826214347035 L 73.26508149690926,467.08341726474464 L 74.43664903379977,468.770099864807 L 75.39673559181392,469.76371649606153 L 78.88898007944226,471.12646733107977 L 79.6188703905791,471.5870250768494 L 80.7567507084459,472.8696378695313 L 81.02250563539565,473.8667036755942 L 81.41926658339798,474.19396595307626 L 83.3506686873734,474.31954089109786 L 84.1535480376333,474.5250241474714 L 84.42678902857006,474.7533346125856 L 84.4848059732467,475.1072068796493 L 84.27706792019308,475.9100382090546 L 84.33508486486971,476.2334379320964 L 84.85349416173995,476.49976029712707 L 87.18352867476642,476.6899868142791 L 89.26278035528958,476.20680535864085 L 89.88037987984717,476.2106099841185 L 90.32954313233495,476.4731283362489 L 91.07440557330847,477.59922655532137 L 92.58471711166203,477.8350846127141 L 94.24100672639906,478.77846909337677 L 100.09510148316622,484.8059660475701 L 104.87681893259287,488.50460405810736 L 108.87998668849468,490.2413901388645 L 109.51255826838315,491.6169592742808 L 114.17637036554515,492.4984569402877 L 116.38475649431348,492.32368233194575 L 117.11464680545032,492.41866889200173 L 119.91911005042493,493.7597988017369 L 123.4665642362088,494.3030471401289 L 125.8808168489486,495.5528060765937 L 127.87959346175194,495.76171984989196 L 128.50561479851604,495.362881380599 L 129.09233431704342,496.0465964486357 L 129.63507326878607,496.15294871479273 L 131.7180679794401,495.2793135738466 L 132.40959229134023,495.43505313806236 L 134.0293874051422,496.437816221267 L 134.70687533542514,496.6353204580955 L 135.85411321744323,496.62392605491914 L 137.76680019684136,496.2517035533674 L 138.79519697651267,497.11767317098565 L 139.2275166027248,496.2517035533674 L 139.43057584017515,496.09977271594107 L 139.79645678028464,496.1567469967995 L 139.93307725898921,497.1518548959866 L 140.22784069553018,497.87344746803865 L 140.4430647417903,498.0443447495345 L 141.02697697468102,496.7302732958924 L 141.36197798140347,496.601137253223 L 142.7272471562028,497.1708447430283 L 143.28963705338538,497.20122839999385 L 143.02388208918273,495.90605817898177 L 143.17547469586134,495.7959054047242 L 144.41254520602524,495.9744283838663 L 146.22604199498892,494.59555544005707 L 146.75100157037377,494.3372367916163 L 147.85238735191524,494.2156731656287 L 148.2903215456754,494.89185534231365 L 148.43162083998322,495.5072244312614 L 149.1980057246983,495.76171984989196 L 149.61441751010716,496.2289140573703 L 150.50338649190962,498.00636776932515 L 152.63784779794514,499.94304355583154 L 153.92732072249055,499.98860871745273 L 154.58796506375074,499.74559251614846 L 155.58361033722758,498.86841599759646 L 156.19091651402414,497.60380471288227 L 156.68593190424144,495.9630333641544 L 157.97821207530797,494.6411404989194 L 158.16910646669567,494.06751589267515 L 158.00722054950893,493.2127268956974 L 156.93110020831227,490.92159453290515 L 156.8029015082866,489.4357350966893 L 156.94420076720417,487.9230854739435 L 157.93516725860536,484.61206938745454 L 158.16910646669567,482.2356262060348 L 158.6865800153464,480.6231739274226 L 157.94265332445502,479.3224020190537 L 157.5711578540504,477.51553379162215 L 157.12948062829673,476.6633552906569 L 155.7819907926023,476.00896145030856 L 155.26732452958822,475.3012612995226 L 154.7058704160154,473.79059484321624 L 154.97630416043103,473.2654300685972 L 154.11915089935064,471.70121008576825 L 153.59606282040477,471.1873685659375 L 152.70522230491042,471.0046638136264 L 152.70522230491042,470.7534399467986 L 153.22269581630826,469.85888592828996 L 153.01308633573353,469.33734756405465 L 153.00747177004814,468.8043639254756 L 153.45663505978882,467.5669839759357 L 153.22269581630826,465.1946432408877 L 154.99501932226121,463.583603722509 L 155.2008858062327,462.5323041691445 L 154.88553574681282,460.47893744846806 L 154.34373254328966,458.8024386628531 L 154.5262051206082,458.3223037130665 L 155.95323430933058,457.94122934830375 L 157.15474606864154,456.91226295614615 L 157.4495094679296,456.3634415913839 L 157.67409111373127,453.20718663185835 L 158.15132712759078,452.51711107511073 L 158.02874295786023,451.7392940404825 L 157.17907575890422,451.05293870461173 L 156.61668586172163,450.1873065645341 L 156.5904847085476,449.5313630513847 L 156.93110020831227,448.1316296758596 L 156.6503731161356,447.464117995929 L 155.2514166869223,446.36549441469833 L 154.7058704160154,445.7360240155831 L 154.5823505334556,444.8279955771286 L 155.0511646978557,444.25185355800204 L 155.66221394203603,443.8168648732826 L 155.96352762170136,443.32080347207375 L 155.74456050619483,442.7598447701894 L 154.9276448134333,442.05383425205946 L 154.97630416043103,441.1531258376781 L 155.439503794536,440.47754432819784 L 157.17907575890422,439.2980359767098 L 157.04806977510452,438.828486304963 L 156.19091651402414,437.6487937797792 L 156.15348626300693,437.2822604405228 L 157.42892280966043,433.80719350115396 L 158.4095959905535,432.7606282371562 L 159.6738034747541,433.1082218058873 L 160.93801096081734,432.29078553267755 L 161.17943623289466,431.8209215484094 L 160.90338795632124,430.7932587582618 L 161.06153087876737,429.8113443541806 L 161.92336288653314,429.52859688852914 L 162.93772328458726,428.66502275969833 L 162.0871203392744,428.38224383606575 L 161.99915920756757,428.04213457438163 L 162.14700881950557,427.12875183625147 L 161.67445158585906,425.85599512816407 L 161.69129521213472,424.50662385998294 L 161.8962259478867,423.99435128993355 L 163.04533536359668,422.95825857738964 L 163.51508527621627,422.8359085926786 L 163.8032983969897,423.18001421377994 L 164.14952839165926,425.4431752420496 L 164.37130278907716,425.7413246384822 L 164.8943908661604,425.89039604295976 L 165.0010671224445,425.542559314752 L 164.88877633586526,424.7054093265906 L 165.40905713103712,424.2007925712969 L 166.62741251662374,423.5776329252403 L 166.96241344884038,422.37325929570943 L 167.6090214457363,421.1496223832946 L 167.6090214457363,419.67723833792843 L 167.7821364607662,418.8893290795386 L 167.98425994999707,418.55272776889615 L 168.83579864539206,418.2008143120911 L 169.06973788887262,417.8106350332964 L 169.1286905463785,417.3554067253135 L 168.47178923897445,416.2803739372175 L 168.41002929769456,415.60698507609777 L 168.6598763819784,415.021559080109 L 169.09406754374504,414.57768380013295 L 170.1748667024076,414.1452690907754 L 171.7123151794076,414.0725603697356 L 173.9964975938201,413.5214874204248 L 174.80218422599137,413.81998906098306 L 176.51649078540504,413.2344582264777 L 176.95161769539118,411.93315513571724 L 177.3830016106367,411.23650519549847 L 178.53398252278566,410.0038506479468 L 178.26635602489114,409.49083731346764 L 178.43479225970805,409.08500193827786 L 178.838103486225,408.88973552780226 L 179.27697342820466,409.01225607167 L 179.4940690100193,410.294801606331 L 179.63536830432713,410.50918102194555 L 180.23144538514316,410.5742595840711 L 180.53369484841824,409.7511757730972 L 180.26513263769448,408.74041159800254 L 181.13912956416607,407.7372022061609 L 183.72649719193578,406.4390045676846 L 185.35564983077347,406.32411154778674 L 186.69378210417926,405.4508805896621 L 186.7892292998731,405.69600590108894 L 187.4938542060554,405.56961394217797 L 188.08618828840554,405.060199418338 L 188.2630463000387,404.3400794514455 L 188.03565740771592,402.7157839636784 L 187.38343488052487,401.2291627197992 L 187.47981786169112,400.5968965231441 L 188.82917919382453,399.97608588798903 L 189.8304390348494,398.454547948204 L 190.88597275316715,397.4924441680778 L 191.57281824573874,397.17427712492645 L 192.42622847668827,397.0516074919142 L 193.89443098381162,397.32377865631133 L 194.43623415008187,397.1819439344108 L 194.80398662388325,396.01652019727044 L 195.48615333624184,396.0126863280311 L 196.6502348445356,396.8215977647342 L 197.4231700077653,396.8829342452809 L 198.58631573058665,396.3577279788442 L 199.59506160020828,395.2803901419975 L 199.97404313459992,395.15386211080477 L 200.87798424623907,396.29255438549444 L 201.43475954048336,395.64462822233327 L 203.60758691839874,395.5717817291152 L 204.39081539213657,394.505858900724 L 206.21554120630026,395.0234981048852 L 206.69090568460524,394.8701264602132 L 207.4245390649885,394.27195345261134 L 208.070211276412,394.26428431482054 L 208.50814547017217,394.6362299246248 L 210.17192111164331,396.8445989815518 L 210.18315020948648,397.0516074919142 L 212.4102514628321,397.58060907851905 L 217.61305947974324,396.8215977647342 L 219.68856812641025,395.68296828097664 L 221.1988796647638,394.4291692345869 L 221.79776406288147,394.13007359276526 L 223.84145699068904,393.77728208573535 L 224.4571849796921,393.0985052466858 L 224.6836381237954,392.0092933487613 L 225.5651210770011,391.4876547267195 L 225.80841784738004,390.8278942669276 L 227.1895949356258,389.8036402929574 L 228.41543642245233,389.4276691179257 L 229.46722710691392,388.5989451261703 L 229.92013339325786,388.41477430216037 L 232.88835405558348,388.54139210889116 L 233.3693331014365,389.1360893503297 L 234.12355306744576,389.68087585363537 L 234.8890021648258,389.68087585363537 L 235.3830818068236,390.4404554227367 L 236.48353183828294,390.94680797634646 L 238.71624762378633,390.24481196608394 L 239.08867884241045,389.74225829099305 L 239.3394616767764,388.41477430216037 L 239.85974250733852,387.7778226954397 L 239.58275848440826,387.3442105080467 L 239.58275848440826,386.92209098278545 L 240.9003040958196,385.60188578721136 L 241.1772881206125,384.40432969038375 L 241.8678766824305,383.1451952350326 L 242.3282690346241,382.8111889800057 L 243.0581593811512,382.6384224430658 L 244.00888830423355,383.0645741056651 L 246.32020769268274,379.73930559447035 L 246.49987298808992,379.5626413964201 L 247.53856307826936,379.3898144699633 L 247.94655308686197,378.27596354996786 L 249.04513158462942,377.31948100728914 L 249.7469492070377,376.9545318193268 L 249.812452217564,377.692098448053 L 250.2017270643264,377.89568719337694 L 251.50055755116045,377.9917180738412 L 252.33525265567005,378.58324619336054 L 252.78254441171885,378.64470145921223 L 253.4768759701401,378.2221880464349 L 254.06078824028373,377.622954065213 L 254.4107613041997,376.2284319975879 L 257.5642618611455,374.8605963208247 L 259.8063352089375,374.9259189227596 L 260.5511976480484,374.79911573254503 L 261.0452772527933,374.4455946609378 L 262.0427940618247,373.2619681255892 L 262.28983386419713,372.63934988947585 L 262.920533945784,372.63934988947585 L 263.8207320254296,372.14353093202226 L 265.5163234230131,371.9475020666141 L 266.002916963771,372.00131432828493 L 266.4034209083766,372.3626170656644 L 267.1351827532053,372.0628136782907 L 269.9892411287874,372.8699541485403 L 270.3729014098644,372.7815565573983 L 271.3498315215111,372.10893790004775 L 271.40410543605685,372.96219424554147 L 271.76905059069395,372.854580727173 L 272.58503057062626,371.8783143851906 L 273.4964577089995,371.7591566508636 L 273.6873521003872,368.0856413701549 L 276.43286268785596,365.23576684552245 L 276.9362998548895,364.97419477184303 L 277.5314411856234,363.93552474165335 L 279.15778657794,363.0044665329624 L 280.915137918666,361.2767509284895 L 282.27385685034096,360.37620546738617 L 283.15533980354667,357.5931755665224 L 283.57643037103117,357.22742904745974 L 284.38679578341544,357.0926765098702 L 286.54652252979577,357.6124249144923 L 287.2427256219089,357.32367960037664 L 288.77175232209265,358.070548246149 L 292.24060290306807,358.5132500284817 L 292.5681177712977,358.45550757064484 L 293.917479140684,357.32367960037664 L 295.63365720026195,356.9463714961894 L 297.2515807431191,357.11192701919936 L 298.81897347792983,357.6932719578035 L 301.2725278753787,358.9751761476509 L 303.68116599321365,358.47090557869524 L 304.8639626260847,357.831865116721 L 306.07763922959566,358.08979663299397 L 308.4656906891614,358.00125381955877 L 308.8203425332904,358.21683475305326 L 309.02808055095375,358.9636283086147 L 309.5661407224834,359.3177559149917 L 311.1129467971623,359.5487010651268 L 311.6884372178465,359.9643872855231 L 312.155379883945,360.06060820049606 L 312.3715397156775,359.6872652943712 L 312.3715397156775,358.1744888902176 L 313.0686785578728,357.4276289951522 L 317.60522770136595,356.7692621462047 L 318.5494063459337,355.9298696576152 L 321.037583746016,354.85933613358065 L 326.4434509985149,350.5874584210105 L 327.69736517220736,349.9131667322945 L 328.76412795111537,349.6280220358167 L 329.25259302556515,348.84189925622195 L 332.31345363520086,348.0171648231335 L 332.96474041230977,347.6394566698 L 333.23143108934164,346.9418096821755 L 333.3090989086777,345.9395667510107 L 333.82750820554793,343.95015671034344 L 334.1990036405623,343.14423825242557 L 335.2826100811362,342.16855199751444 L 335.35185608640313,341.9487181142904 L 335.1749980393797,341.570744949393 L 335.96851982548833,341.0346116835717 L 336.0592882409692,340.7221732728649 L 334.8914637006819,337.2267153551802 L 334.2467272747308,336.66329584107734 L 333.12288329936564,336.22719901404344 L 332.93292469345033,335.7216075025499 L 332.73641573637724,334.02321738074534 L 333.33530009910464,332.6874262592755 L 333.2651183437556,329.70236693299375 L 333.6281920000911,329.01870512170717 L 335.5979601405561,327.3691902915016 L 335.90863141976297,326.7587488624267 L 336.43920552544296,324.4092925663572 L 337.6304239705205,321.7537639788352 L 337.8250614311546,320.19561294442974 L 336.7105750180781,319.8127964376472 L 337.3075878843665,318.5946259216871 L 339.070553753525,317.3685392655898 L 339.5169097613543,316.54846770502627 L 340.31043158471584,299.5637011646759 L 340.12328018806875,299.1217585259583 L 328.9952599108219,298.9821925989818 L 330.90607535652816,297.2994551344309 L 340.649175548926,285.5723783574067 L 341.1582272835076,284.73738694144413 L 341.4632839951664,283.8207349788863 L 343.0643639471382,265.0519667142071 L 343.5696726497263,256.7377789944876 L 344.26213267445564,255.1237363712862 L 345.37942633219063,254.81180357607082 L 405.6833398528397,252.61620440660045 L 406.4974483344704,252.72151445387863 L 407.24418227374554,253.09983824542724 L 408.0152459014207,254.39067346276715 L 408.282872363925,254.5739459756296 L 409.8474577795714,254.53495222330093 L 410.216145966202,254.19959723739885 L 410.39768283069134,250.52529327035882 L 410.2423471920192,250.0024726651609 L 409.39267995767295,249.2923134821467 L 409.34589214622974,248.6367209451273 L 410.10385517962277,247.25900504528545 L 409.6172616034746,245.8849337308202 L 406.0033686943352,241.7455406174995 L 405.3951267693192,240.59312014002353 L 405.1200142428279,239.30375446099788 L 405.2510202266276,237.6663192093838 L 405.9902681000531,234.81261910544708 L 406.1100449860096,233.34232568647712 L 405.70766954496503,232.40368271968327 L 405.62719444185495,231.6018275830429 L 405.98652506805956,229.72004805039614 L 406.85116439312696,227.88865016726777 L 407.05703091435134,225.2424633789342 L 407.6297140866518,223.9934014917817 L 407.80002181977034,223.16318175918423 L 407.85242423415184,219.77079578395933 L 408.0582907181233,218.33656954951584 L 408.70957745984197,217.20779154496267 L 410.0664248932153,216.45909169642255 L 411.57112186588347,216.20036005275324 L 412.93358382955194,215.2045455565676 L 414.1276095584035,214.8359797373414 L 415.123254833743,213.02815621672198 L 415.6903234757483,212.60456340759993 L 417.0003830604255,212.3064641316887 L 418.8513100631535,210.6039146881085 L 420.5693596191704,209.8034933451563 L 422.1451741307974,208.49672414571978 L 423.18386422097683,208.04145516408607 L 424.55755524523556,207.69605860556476 L 425.92937477119267,207.60185654112138 L 427.7971454374492,208.04930485622026 L 428.42597402073443,207.95510761789046 L 429.2344679366797,207.62540716840886 L 429.73041903972626,207.10334922210313 L 430.09162116236985,206.25541140674613 L 430.2675434611738,201.6291660857387 L 430.9319308344275,200.44264696235768 L 431.9163470119238,199.62532174238004 L 432.49277321621776,199.38167701731436 L 432.1839734725654,198.17118349438533 L 432.31685095466673,197.7584660453722 L 433.4940330218524,196.01691511576064 L 433.42291551828384,195.3327524852939 L 432.2887782305479,195.21871866169386 L 435.6631173659116,189.3177898179274 L 437.525273501873,184.6838959751185 L 438.77170157432556,182.3637728872709 L 440.2165101375431,181.52848806232214 L 441.5434133503586,181.43392093037255 L 441.8653136882931,181.06351988832466 L 441.8241403698921,180.2320125042461 L 439.3275411557406,180.19654307700694 L 438.6706398483366,180.0428398931399 L 438.20463296584785,179.60141611984 L 430.3966779112816,154.60065159830265 L 431.84897250309587,154.4779964601621 L 432.227018289268,154.15749951894395 L 432.80531599372625,149.46294790133834 L 430.77472366020083,149.30455527361482 L 430.15525263920426,148.90063639334403 L 417.9997713677585,123.1507587148808 L 418.2786268889904,122.06906416709535 L 427.59315045177937,113.5161520356778 L 426.29431996308267,111.8192659469787 L 425.4858260117471,111.43281938624568 L 423.9923581369221,111.73958827322349 L 423.3897307049483,110.91884708590806 L 421.7034969050437,110.24543754779734 L 420.57497414946556,108.59945224248804 L 419.39030598104,108.08922527264804 L 418.7633488960564,107.19622424431145 L 416.7627008203417,106.3828402783256 L 416.7364995945245,107.38759273081087 L 417.2717525549233,109.42847908637486 L 417.3765572756529,112.71556776599027 L 417.25678038969636,113.92237835424021 L 416.639180900529,116.12827073619701 L 416.6766111869365,118.63580654235557 L 416.55870583467185,119.18493883125484 L 416.1656879559159,119.63057522382587 L 385.895825823769,138.48091598623432 L 383.7754008267075,139.9959967045579 L 383.0548680778593,140.17841631849296 L 349.85047250427306,139.74218671349809 L 295.3650949522853,127.88093875232153 L 287.16599358804524,126.625211001141 L 286.58769584819674,126.3827784541063 L 286.2976112291217,125.92570762103423 L 281.54022347182035,112.71556776599027 L 279.6687098108232,108.73497405042872 L 267.91373244673014,91.39521117554978 L 267.6068041995168,90.36377177224495 L 267.8033131584525,74.04853109270334 L 267.66482110880315,71.50203327019699 L 256.90361752174795,35.12959496607073 L 254.92355606891215,27.947129308944568 L 254.09634699299932,25.994367618812248 L 253.78380421735346,26.103546533733606 L 253.4768759701401,27.08605916169472 L 253.04829934053123,27.546930376905948 L 251.50055755116045,28.662563844351098 L 249.78625099174678,29.503181559499353 L 249.27532775886357,30.044665331952274 L 249.00582979992032,30.7355860339012 L 249.0002152696252,31.971754355123267 L 248.75691849924624,32.44837274868041 L 248.85798022523522,33.15918478113599 L 248.62778404913843,34.63302084477618 L 248.51923625916243,35.000409258529544 L 248.00456999614835,35.12555795209482 L 246.43062698096037,35.42428864049725 L 241.05563973635435,35.12959496607073 L 218.2774468511343,35.25877766055055 L 216.88504066690803,35.01655762223527 L 216.30299989506602,34.68954372010194 L 214.61863762885332,33.18341542966664 L 214.2069045882672,33.37321826838888 L 212.7134366761893,34.70973031013273 L 211.98541786521673,35.040780059760436 L 208.60733569785953,35.2708884018939 L 207.637891612947,35.08922473411076 L 206.99409089796245,34.737991428235546 L 206.37274837866426,32.56146263098344 L 205.3752315696329,31.919243041658774 L 205.05894576199353,31.28098858264275 L 204.5012346804142,29.086930151097476 L 203.36990467831492,26.200592655222863 L 203.08824187330902,25.76387164229527 L 202.09446813352406,25.07636990142055 L 199.4032314606011,18.00626321998425 L 198.52829882130027,16.722380534745753 L 196.65865665860474,14.939831700641662 L 196.1336970832199,13.999706290662289 L 194.57098316587508,8.108042206382379 L 194.54852497205138,5.27953819395043 L 193.37695743516088,1.495044548297301 L 193.43684588000178,0.9953887448646128 L 192.76310094445944,1.320373485563323 L 192.62460893206298,3.1561658270657063 L 192.1801244597882,3.7043444770388305 L 192.4580442328006,4.64220890076831 L 192.33452431298792,5.709794155787677 L 191.8544810526073,6.582377179525793 L 190.6688771713525,7.264110813383013 L 189.70691911503673,9.357466717250645 L 188.78613441437483,9.990181550383568 L 188.69443021528423,10.574160109041259 L 188.94147005304694,12.179775224998593 L 189.65077370405197,13.355301839997992 L 189.70691911503673,13.934863988310099 L 187.69878493994474,15.940561965107918 L 187.1775683965534,16.6616214660462 L 186.82665958628058,17.79162890650332 L 185.9751208536327,18.508393526542932 L 186.26614122092724,19.662307624006644 L 186.22028912231326,20.087372207082808 L 184.97760408185422,21.05477664526552 L 184.5013038534671,21.73873730027117 L 184.86157022602856,22.653249034658074 L 185.57929572835565,23.76178809371777 L 185.56058060191572,24.38878183113411 L 184.9289447348565,25.654685924295336 L 183.6254354286939,27.08605916169472 L 182.89835240133107,27.255858276737854 L 181.39552689157426,28.18561783293262 L 180.32127804867923,28.403886408777907 L 179.03741968981922,27.995636273175478 L 177.60945475287735,28.34325708122924 L 175.0688749384135,29.786052856361493 L 168.2640512213111,31.386022858088836 L 152.43853162787855,31.196151736890897 L 148.00023692660034,31.781903389841318 L 147.68769415095448,31.749587713042274 L 147.0794522240758,31.289068225305527 L 142.03478709422052,30.703264186857268 L 140.92310800217092,31.054754093755037 L 139.86383128911257,31.806140042841434 L 135.2234130986035,37.32529191253707 L 134.43363434448838,37.77320425584912 L 131.1004684921354,38.36229522759095 L 130.91144559904933,38.572093377355486 L 130.48286896757782,40.46798708103597 L 129.3637037742883,41.68182689533569 L 127.79443961381912,42.48015567334369 L 124.72890022210777,43.47589069604874 L 124.09352132305503,43.262245901627466 L 122.3717286977917,36.8410217333585 L 122.02362716943026,33.19553067511879 L 121.64558142051101,32.14948131632991 L 120.95499285683036,32.13736373744905 L 120.64432161487639,31.94347913074307 L 119.99303483776748,30.876991862198338 L 119.11529495194554,30.19417017744854 L 110.08711297623813,27.631823485950008 L 109.74088298343122,26.900082611711696 L 109.55747462064028,26.851565970573574 L 107.45950778014958,27.312456828076392 L 106.96917120739818,27.090102065354586 L 106.13447610288858,26.362332336371765 L 105.66472615301609,25.58593828906305 L 105.40271425805986,24.671916788909584 L 104.71212573163211,20.87668997887522 L 104.15628618560731,19.96997676626779 L 104.3527951054275,18.431457195430994 L 103.94106206670403,18.14799822634086 L 99.87800590321422,16.868199517950416 L 98.91230485029519,16.357815919676796 L 97.82869840972126,15.03302491037175 L 97.36082003079355,14.712919858284295 L 96.80310894921422,14.583251636242494 L 95.384501574561,14.631877563660964 L 95.68768678791821,10.983718426665291 L 95.60534018650651,10.128071100451052 L 95.20483624376357,9.531876292545348 L 92.46868329308927,7.353379051433876 L 91.401920478791,6.071020148461685 L 89.5472504440695,2.9490615085233003 L 76.75545448623598,0.18690345203503966 L 74.23265404812992,0.0 L 68.6312136221677,0.3372341098729521 L 67.46713215112686,0.7313241104129702 L 66.40036933682859,2.246471400372684 L 64.83204088918865,2.5023386157117784 L 64.44276604242623,3.0871319316793233 L 64.28368736989796,4.102246375521645 L 64.289301937446,7.134263441897929 L 65.47022703662515,12.974297086242586 L 65.45338340848684,13.740332577144727 L 64.349190345034,15.940561965107918 L 64.04039059951901,17.888822838431224 L 63.724104791879654,18.727048685541376 L 62.33544163964689,21.305707096820697 L 62.09588790126145,22.094848598586395 L 62.08465880341828,22.875784010626376 L 62.71535892225802,25.319027388934046 L 62.672314105555415,26.079284744802862 L 62.34667073562741,27.01732942298986 L 61.33043880201876,28.49280811450444 L 61.20130435191095,28.913145997095853 L 61.90499350987375,30.29114406905137 L 61.77960209175944,31.13959311461076 L 61.34541093185544,32.0808147622738 L 60.70909624546766,32.90879554208368 L 59.982948968186975,33.40552448644303 L 57.3572152685374,35.9288647104986 L 57.02034280076623,36.393034123815596 L 56.868750194087625,36.95805752999149 L 56.45701722614467,43.37108481908217 L 55.704668721184134,46.3854849494528 L 53.45136624202132,50.51355226757005 L 53.1668961904943,51.85804443922825 L 53.33720392175019,61.32886965223588 L 52.83750974945724,63.04439758369699 L 45.27659453265369,75.64403280476108 L 44.70578285679221,76.21718377037905 L 43.91413260623813,76.42158051533625 L 41.87605420872569,76.40554967266507 L 40.249708814546466,77.42342154262587 L 39.63959535583854,79.03401996777393 L 39.60965113341808,84.05126711330377 L 39.88850665651262,84.95575561164878 L 40.42750261165202,85.74806893640198 L 42.911001266911626,87.91638012579642 L 42.93533092178404,88.62430861522444 L 41.87605420872569,89.50810001255013 L 40.93093977868557,89.89996511023492 L 39.22786231525242,91.01144080748782 L 35.5260083116591,92.79815961769782 L 33.9277356415987,94.25271800952032 L 33.16602957621217,95.31144412048161 L 32.63358389958739,96.49379810830578 L 32.502577951177955,97.67991032544523 L 32.913375206291676,98.69410844752565 L 33.729355150833726,99.3408691349905 L 35.78053414262831,100.07138490281068 L 34.3488262090832,102.64544182061218 L 33.93522167019546,103.93006100016646 L 34.159803315997124,106.54233597032726 L 34.05125552602112,106.92909553879872 L 32.86471585929394,107.19223733060062 L 31.762394294142723,107.89787905709818 L 31.649167757481337,108.63931192038581 L 32.26676724664867,109.2929728794843 L 36.70880494453013,110.6598523161374 L 37.822355572134256,110.77142066461965 L 39.04632552340627,110.60805199365132 L 39.54601969383657,111.3929781196639 L 39.89412122219801,113.46835893578827 L 40.74004538729787,115.81774219637737 L 40.37884322926402,116.81695069978014 L 40.30772576108575,118.22591477259994 L 40.032613234594464,118.74722870974801 L 37.9402609243989,119.93693136563525 L 36.80050910823047,121.16220277943648 L 35.06000139378011,122.51846775203012 L 34.8054755628109,122.99965102900751 L 34.885950630530715,123.7034628787078 L 35.35382904484868,124.47875561239198 L 37.50232673063874,126.53380312561058 L 41.87605420872569,133.0799618207384 L 42.37761984206736,133.58811261411756 L 44.142457246780396,134.50109188025817 L 43.87483078427613,135.239316532854 L 42.49178219772875,136.71550406096503 L 38.621491888538,139.5399244860746 L 37.330147463828325,140.03168792207725 L 36.330759193748236,140.6820255680941 L 35.05812989547849,142.90614793612622 L 34.23279235325754,143.82173486822285 L 30.82289443165064,146.8291581859812 L 29.665363239124417,147.6451557581313 L 27.948249466717243,148.23926268680952 L 27.45136258006096,148.5679779846687 L 27.04617985524237,149.11051900708117 L 25.524639256298542,152.34104647673666 L 24.514021852985024,153.2196568569634 L 25.592013727873564,154.69956526043825 L 25.883969880640507,155.40774263907224 L 25.896134689450264,156.25033220858313 L 23.756058817729354,160.94782100757584 L 24.02274949476123,161.5209333221428 L 24.01152043417096,162.54845574731007 L 22.91200615093112,164.58325933176093 L 22.586362779140472,166.45550501695834 L 22.8923552762717,171.12192682363093 L 22.627536062151194,171.90723203658126 L 21.319348011165857,174.1560783206951 L 21.172434221953154,174.77930650534108 L 21.26600988395512,176.85762211936526 L 20.669932767748833,178.81308613531291 L 20.503368068486452,180.43300254433416 L 20.130001064389944,181.0556387808174 L 19.023936500772834,182.24163869256154 L 18.508334452286363,184.01827271818183 L 19.57696876488626,185.12892066780478 L 20.906679259613156,186.19607138843276 L 21.17804871685803,187.83781209867448 L 20.803745998069644,188.4715659734793 L 19.037037095054984,188.18815548252314 L 18.42598788626492,188.38103337353095 L 16.743497082963586,189.3177898179274 L 15.633689487352967,189.62870112271048 L 14.64740177616477,190.73054931405932 L 14.084076166152954,190.59676306974143 L 13.633977126330137,190.25048053334467 L 13.185749622061849,190.26622101990506 L 12.626167006790638,191.20271468884312 L 12.2995878867805,192.5914760795422 L 12.271515162661672,195.39173478470184 L 12.032897174358368,196.75211640191264 L 11.121470034122467,198.51706078788266 L 9.840418923646212,199.97112513403408 L 6.9068212285637856,202.58373216213658 L 6.133886065334082,203.76202524616383 L 5.808242730796337,205.14037105534226 L 5.664309807121754,208.12352280784398 z" /></g></g></svg>