<svg xmlns="http://www.w3.org/2000/svg" xmlns:xlink="http://www.w3.org/1999/xlink" width="500.0" height="480.8208016892895" viewBox="0.0 0.0 500.0 480.8208016892895" preserveAspectRatio="xMinYMin meet"><g transform="matrix(1,0,0,-1,0,480.8208016892895)"><g><g><path fill-rule="evenodd" fill="#D2EBD9" stroke="#A6A6A6" stroke-width="0.25" opacity="1" d="M 481.49819114245474,42.2293686484918 L 479.00912857428193,40.98846430052072 L 478.2745022699237,40.218114932999015 L 477.5939738024026,40.126873155124485 L 477.455081384629,40.95329707348719 L 477.6575985401869,41.92254205187783 L 477.13666293770075,43.43230688525364 L 476.17863051220775,44.94620444485918 L 475.9009255524725,46.551638522185385 L 476.6347140427679,47.1286524287425 L 478.34074616990983,47.69784556282684 L 479.71194462664425,48.5432360204868 L 480.98782987333834,50.1063090399839 L 482.0856679510325,50.884498747531325 L 482.76896751858294,50.456455698702484 L 483.6553616952151,49.3056811648421 L 484.4270556308329,48.61827557301149 L 487.32627846859396,47.1795843988657 L 488.0060341041535,46.39896910171956 L 487.6985452696681,44.846205120906234 L 486.32743756845593,43.935253207571805 L 483.6013581175357,43.619551797397435 L 482.32631615921855,42.41642472893 L 481.49819114245474,42.2293686484918 z" /><path fill-rule="evenodd" fill="#D2EBD9" stroke="#A6A6A6" stroke-width="0.25" opacity="1" d="M 471.307360034436,113.97178802359849 L 470.04771208018064,114.31231612199917 L 469.34658735245466,114.82955353101715 L 469.5129559542984,115.57814514543861 L 470.8528172764927,116.61919000791386 L 470.4339249115437,117.17831037566066 L 470.4042162373662,117.54464607592672 L 471.1944670602679,119.35722370957956 L 471.0815740842372,120.92258055787534 L 471.8510288130492,121.56871710484847 L 473.10176411271095,119.91005515726283 L 473.7226753998548,119.51149946870282 L 474.83675077185035,119.36043775780126 L 474.8308090530336,119.52435584692284 L 475.25267227739096,119.8811273095198 L 476.34000983648,120.44041399238631 L 478.553306279704,119.94862589798868 L 480.35662293992937,119.27365855686367 L 484.11477055959404,116.68024199921638 L 485.8527281526476,116.61919000791386 L 484.85451661609113,118.33520155912265 L 487.28765721432865,117.09476181957871 L 488.5027421209961,116.79270702786744 L 489.2929928712547,117.20401775743812 L 490.43974777683616,116.31393514340743 L 491.5657066628337,115.82875802367926 L 494.57519557513297,115.58457102905959 L 495.0624179393053,115.36609254172072 L 496.5924147441983,113.67624384816736 L 497.28759782388806,113.17190971318632 L 498.72252688743174,113.17190971318632 L 499.3553216867149,112.89244787860662 L 500.0,111.44064541859552 L 499.6553793568164,109.85737117519602 L 498.7106433734298,108.56651264149696 L 497.5698301885277,108.04314789222553 L 496.2715610526502,108.47018598625436 L 492.87585930898786,111.81321361893788 L 491.39636719971895,112.91172091057524 L 490.22881620004773,113.56702306540683 L 488.94540136680007,113.88505140412599 L 487.0945507995784,113.97178802359849 L 484.60496371239424,113.38391999294981 L 483.74341210350394,113.55738601041958 L 482.8937439341098,114.328379066661 L 482.31739562004805,114.51149778952822 L 480.74283569678664,114.17738866107538 L 477.8492106180638,112.65153818251565 L 476.0845152121037,112.30463752802461 L 475.31208962388337,112.47487441450357 L 474.07026697695255,113.38391999294981 L 471.307360034436,113.97178802359849 z" /><path fill-rule="evenodd" fill="#D2EBD9" stroke="#A6A6A6" stroke-width="0.25" opacity="1" d="M 447.24356069788337,131.69564618729055 L 446.7692239359021,131.5776536227204 L 442.32412271387875,132.9451603149064 L 440.8416953012347,133.18332773586735 L 440.6639298852533,133.5984683460556 L 443.2143899612129,133.95228859828785 L 444.8743387106806,133.53574572503567 L 446.5334644690156,132.76335366722196 L 447.24356069788337,131.69564618729055 z" /><path fill-rule="evenodd" fill="#D2EBD9" stroke="#A6A6A6" stroke-width="0.25" opacity="1" d="M 434.22298961132765,11.663973112590611 L 434.36151791736484,13.148837708868086 L 432.70505103841424,15.06341053918004 L 432.707089971751,15.86364615149796 L 435.2178452964872,14.648916891310364 L 437.9619497396052,15.661808656528592 L 438.820832028985,16.3424624488689 L 441.09951382502913,17.036238552071154 L 441.6174481213093,18.565729331690818 L 443.23065594770014,20.016322454437613 L 443.8946382086724,21.47233231505379 L 445.4993537850678,21.09798314468935 L 446.94921600073576,21.928682898636907 L 449.8279867786914,21.973292089998722 L 451.3193623293191,22.903750650119036 L 453.000873433426,25.109109078533947 L 453.2682514972985,24.77126676402986 L 453.7376486286521,23.142750398721546 L 456.36291516572237,19.792541745584458 L 458.25324765220284,18.904295689892024 L 462.83775456622243,17.41633620671928 L 466.05968158505857,19.21791284251958 L 469.7148466669023,20.14093680679798 L 471.41066032089293,22.318365453276783 L 472.8965036030859,25.375291370321065 L 476.48855320364237,31.109051355626434 L 477.59371599555016,32.63025585981086 L 479.0019072443247,33.500972816254944 L 480.5764671675861,32.843942204955965 L 481.1290485281497,31.46621340373531 L 481.04883508756757,29.66457156976685 L 479.60202251188457,21.291428107302636 L 478.9896639287472,19.112840718589723 L 474.3413981515914,13.21671668998897 L 471.9884220007807,6.353348941542208 L 470.4279831908643,5.450961741618812 L 464.99804141931236,3.1318638222292066 L 461.83326297067106,3.6215416956692934 L 460.21414014697075,2.9852887582965195 L 458.80000710487366,1.9737178538925946 L 458.3009013719857,1.9737178538925946 L 458.3009013719857,2.552656547166407 L 458.7851528041065,2.978926420211792 L 457.7062825988978,3.8257206487469375 L 456.13750070147216,4.020367722492665 L 452.33825138770044,1.826167547609657 L 449.82204498536885,1.9737178538925946 L 445.5001792591065,0.942528439220041 L 442.27331436239183,2.254137471783906 L 437.59989542514086,2.667175304610282 L 436.5482082609087,2.514483903069049 L 435.3656226210296,1.898076978046447 L 434.36614381335676,0.0 L 433.8914191387594,0.10803531715646386 L 433.03398292697966,0.678706634324044 L 432.10051357746124,1.779336373321712 L 431.7140749208629,3.9745914237573743 L 431.6536691375077,5.73731349920854 L 430.1242618318647,8.394876506645232 L 430.36509863100946,8.95067051332444 L 432.5420451518148,9.179237735457718 L 433.76561004295945,9.968730578199029 L 434.22298961132765,11.663973112590611 z" /><path fill-rule="evenodd" fill="#D2EBD9" stroke="#A6A6A6" stroke-width="0.25" opacity="1" d="M 387.7368523813784,138.3527253284119 L 387.3595522046089,136.1313887005672 L 385.27103224769235,132.86781331477687 L 382.55565921217203,129.7692880271934 L 380.3037415128201,128.0418323832564 L 380.95139068737626,131.435882658232 L 383.07259017787874,133.69487933907658 L 385.675070239231,135.70327022206038 L 387.7368523813784,138.3527253284119 z" /><path fill-rule="evenodd" fill="#D2EBD9" stroke="#A6A6A6" stroke-width="0.25" opacity="1" d="M 408.76762467063963,137.22268423298374 L 407.270307328552,139.38628466520458 L 409.6856227684766,138.6811353424564 L 410.2619710806757,138.3527253284119 L 410.5055822636932,139.23172747017816 L 411.04628018289804,139.9079314689152 L 411.69987107627094,140.21706733573228 L 412.2999863419682,139.97233404126018 L 412.94169372320175,140.41672223154455 L 413.25066397339106,140.4618061548099 L 413.25066397339106,141.0543545712717 L 412.4069375246763,141.38928759330884 L 411.75928842276335,142.18157422123477 L 415.52634862437844,142.1397039159201 L 417.32669442519546,142.4295782749541 L 419.2815253119916,143.21871983679011 L 419.49542782083154,142.41347390506417 L 419.7806311175227,142.18157422123477 L 418.0575278997421,139.11581099918112 L 417.2375684026629,138.3527253284119 L 417.2019180096686,139.14800988603383 L 416.94642338715494,139.77912747161463 L 416.46811367571354,140.22350774379447 L 415.7907558269799,140.4618061548099 L 416.04327959008515,139.38628466520458 L 416.6463657170534,138.3527253284119 L 417.4395873993635,137.85047027561814 L 418.2833137754351,138.3527253284119 L 418.77647786028683,137.19371036300436 L 419.4449230544269,131.2846560194157 L 420.77884265594184,128.0418323832564 L 419.52513649500906,127.7362588266842 L 418.9992929492146,126.39826909638941 L 418.74082746729255,124.66491552069783 L 418.2833137754351,123.1890481216833 L 416.51861844211817,121.21189076406881 L 415.407513929531,120.3214828115888 L 414.52219536714256,119.94862589798868 L 413.6844106372446,119.24473230913281 L 411.26018261909485,114.51149778952822 L 407.44855944253504,111.34429363394156 L 406.7741724550724,111.00385738164186 L 406.00174686685205,110.94604848697782 L 401.56327053904533,109.12201282894239 L 399.73915778659284,108.72384799597785 L 398.62211155332625,107.69960295083001 L 396.79799880087376,104.76224856637418 L 394.27870303951204,102.41292726621032 L 393.54192784428596,102.06634835107252 L 391.88715455308557,101.8096301597543 L 390.58591448515654,101.11331223556772 L 388.2329873275012,98.83855083258823 L 388.2329873275012,102.33590874774382 L 388.5627535972744,103.11253636702895 L 389.3292374648154,103.33077210048214 L 392.20800824277103,103.09648975357413 L 392.82297788374126,103.38533172616735 L 395.02736167423427,105.34965692274272 L 395.0867790225893,105.85363330552354 L 394.31138257309794,106.42825853638351 L 394.31138257309794,106.9130215793848 L 396.2573008816689,108.04314789222553 L 395.4967588055879,108.31606507208198 L 395.27691457793117,108.60183261800557 L 395.2174972295761,109.12201282894239 L 396.6851058267057,109.70001956168562 L 398.83007226884365,111.01670380914584 L 400.51752516813576,111.27363613108173 L 400.90967964567244,111.53057452756912 L 401.7088430467993,112.6419019298628 L 402.6743750516325,113.3260985952802 L 402.31787096709013,115.40786020411178 L 402.3327252678573,116.1243600952439 L 403.6785283088684,116.67060213442892 L 405.674951383844,116.88267992809415 L 407.48123897612095,117.32612858479843 L 408.2685188651085,118.57944975420833 L 408.57154739648104,120.48862965451553 L 409.4093320518732,121.40798307629302 L 412.2999863419682,122.06057794531807 L 415.193611420691,123.14082048740238 L 417.2019180096686,124.99612875841558 L 417.885217577219,127.5561352558434 L 416.7859965059906,130.74090098030865 L 414.77471905760467,132.23387923883274 L 409.5846132338047,132.32397930603474 L 407.270307328552,133.48891147226095 L 406.17405718937516,134.54453786555678 L 407.18118130788207,136.26980651216581 L 407.66246187873185,136.72691986197606 L 408.76762467063963,137.22268423298374 z" /><path fill-rule="evenodd" fill="#D2EBD9" stroke="#A6A6A6" stroke-width="0.25" opacity="1" d="M 387.51106650568545,143.21871983679011 L 382.75767820701003,150.29457813408226 L 383.03099798969924,150.54921499732882 L 383.29837612621486,151.37118524173275 L 384.10051038861275,151.41953833773732 L 385.79093407280743,151.91920014843345 L 386.6643691956997,151.66775453928858 L 388.73506391979754,150.29457813408226 L 391.7712907195091,149.75309179956093 L 393.8122767675668,148.07723500626162 L 394.31138257309794,145.42540070833638 L 395.75819514878094,145.42540070833638 L 396.2573008816689,144.29462190531194 L 397.6833173632622,143.80175528861582 L 400.3036226592958,143.61814404977486 L 401.83361953496933,143.21871983679011 L 401.2899507563561,144.29462190531194 L 402.9120445139706,143.8983940212056 L 407.270307328552,142.18157422123477 L 401.83361953496933,137.22268423298374 L 401.54841623827815,138.04042302444577 L 400.790844950825,138.3527253284119 L 400.8562040179968,139.65676507586613 L 397.61795829609036,138.8260253192857 L 392.2258334774524,140.23638864979148 L 390.2799151688814,142.18157422123477 L 389.8758771046996,141.25402496941388 L 389.0024420544505,140.4682467081584 L 388.13494865223765,140.04317729640752 L 387.7368523813784,140.21706733573228 L 388.1587156057358,141.93035505432636 L 388.1468321662396,142.83219435345381 L 387.51106650568545,143.21871983679011 z" /><path fill-rule="evenodd" fill="#D2EBD9" stroke="#A6A6A6" stroke-width="0.25" opacity="1" d="M 432.8286818936467,171.4564606361091 L 426.32545256242156,170.14210283383727 L 423.2506045829505,170.20668665412813 L 421.818646306172,172.590103270486 L 427.3028680793941,172.04749002680182 L 431.40266541205347,172.483516309876 L 432.8286818936467,172.04749002680182 L 432.8286818936467,171.4564606361091 z" /><path fill-rule="evenodd" fill="#D2EBD9" stroke="#A6A6A6" stroke-width="0.25" opacity="1" d="M 287.72556314244866,200.85725105786696 L 290.17652897536755,200.66941622225568 L 293.31673609651625,199.77562744403258 L 296.0321091338992,198.32823944743723 L 297.1966892722994,196.51200053095818 L 294.57044225744903,197.3666621800512 L 291.4985650628805,197.98827784508467 L 288.91093930229545,198.94991192175075 L 287.72556314244866,200.85725105786696 z" /><path fill-rule="evenodd" fill="#D2EBD9" stroke="#A6A6A6" stroke-width="0.25" opacity="1" d="M 277.1641285214573,207.16138274408877 L 278.30791264027357,204.68592759314924 L 281.0529943499714,202.70987113378942 L 287.17892350256443,200.31318699242547 L 286.1331780590117,199.19276264682412 L 284.46355039440095,199.64933733874932 L 281.195595998317,201.4531631018035 L 277.4879531431943,201.73817645665258 L 276.10352877527475,202.45722181303427 L 276.7095858361572,204.11898808646947 L 275.3548701405525,205.07146402448416 L 273.9734167046845,206.35452751023695 L 272.7078270316124,207.07388939941302 L 271.67693596147,206.34480668697506 L 269.14278582669795,209.0540100093931 L 266.41255841590464,211.09609789634123 L 263.3287977837026,212.11404942674562 L 259.7162227425724,211.7801244482398 L 259.7162227425724,212.3247842793353 L 262.20878069102764,213.1645237626508 L 262.06914990209043,213.87786903325468 L 261.58489846996963,214.60099146328866 L 261.65917019173503,215.04526640381664 L 260.88674460351467,215.56415164936334 L 260.2806875426322,216.4852364473045 L 260.1321441754699,217.510201160796 L 260.7114634215832,218.3600901775062 L 261.6116362847388,218.18167260149494 L 263.16242925450206,218.90184944914654 L 263.72689405456185,218.63907640241086 L 264.74887254461646,217.2247578385286 L 265.55694852769375,216.4203686611727 L 266.44820888340473,215.9403595677577 L 267.5919929295778,215.70036326674744 L 269.14278582669795,215.63550036214292 L 268.5723792333156,214.8117765141651 L 268.1445742882788,214.55234933365136 L 272.92172954045236,209.44294836651534 L 276.37981949187815,207.42710766475648 L 277.1641285214573,207.16138274408877 z" /><path fill-rule="evenodd" fill="#D2EBD9" stroke="#A6A6A6" stroke-width="0.25" opacity="1" d="M 345.72878357581794,162.788557483349 L 346.6111312061548,161.98184736073017 L 347.2379842866212,159.94275478180498 L 347.6063718833029,157.54280049866065 L 347.70738141797483,154.4372037248686 L 347.56477976962924,153.5956542585045 L 347.1280622445047,153.24744618171826 L 346.2278893087059,153.53761886293069 L 345.80602608434856,154.08896834682673 L 345.27424081787467,156.78163664368913 L 344.27900014072657,156.24627406615764 L 343.80366128869355,158.31046949326992 L 341.718112193048,162.0399284712039 L 340.9605409037322,165.2800619341433 L 340.268328756094,166.39045279705897 L 337.8054794818163,169.41879061423242 L 337.0479081943631,170.1388736614026 L 336.13288095779717,170.5845098560676 L 327.7847427800298,172.2509667770937 L 319.81984657235444,177.48456039559096 L 318.676062528044,177.95958800520748 L 318.88996496237814,178.73518881667405 L 319.6861575059593,180.08616202976555 L 320.26250589080155,180.72292435728014 L 320.7140777166933,180.72292435728014 L 321.44491119123995,179.57548690633848 L 323.500751612708,178.56067366991192 L 324.2494102474302,177.4651720165275 L 322.3688510078937,177.7333817044273 L 321.759823160246,177.95958800520748 L 322.25892896577716,177.03863550024107 L 323.0105584617704,176.2534653339535 L 323.8839935846627,175.7946684048511 L 324.74851605296135,175.8399009881541 L 327.69561675935984,173.6754125468433 L 329.69798155501485,173.3717732047662 L 330.44366940297186,173.60757741471753 L 329.95941797085106,174.46039258455858 L 325.79129056446254,179.11331472126767 L 325.24762178584933,180.45140681322664 L 325.52391250245273,182.59464481147006 L 326.804356476292,185.40122824488208 L 327.19651102647185,186.6883664992638 L 327.13709367997944,188.57731517171487 L 326.655813107267,190.71249221125618 L 325.829911891371,192.60863239364699 L 324.74851605296135,193.79955668980256 L 323.705741468817,192.70571357291192 L 323.830517956987,194.58279216615483 L 321.0676110126078,196.93284799298272 L 321.2131835222244,198.68116355547681 L 319.33856600150466,199.2899046028033 L 318.878081522882,199.88572778878734 L 319.2167604472488,200.85725105786696 L 317.73726833611727,202.03939219657332 L 317.1846869774163,203.3026490090415 L 316.7271733600646,206.88270282605663 L 315.22985601611435,210.6908900104463 L 314.5257603544742,211.06368069071323 L 312.6927350219339,210.20141980145127 L 313.19184082746506,214.03675710735843 L 312.77591932192445,215.18795729940757 L 311.2459224462509,213.95893403096125 L 311.9321929458529,215.0128369377926 L 312.6927350219339,215.63550036214292 L 311.77770778536797,215.92738660844043 L 310.59530248492956,214.50370750995353 L 309.6981004085392,213.95893403096125 L 309.6981004085392,214.55234933365136 L 310.44378818385303,215.35010835900903 L 311.0141947772354,216.28414763929322 L 311.3172233067453,217.44208330567926 L 311.2459224462509,218.90184944914654 L 312.05696936137974,218.5547309750691 L 312.6927350219339,217.8151151961647 L 316.9767261892557,210.6908900104463 L 317.96899600699544,210.06527987774462 L 319.285090373829,208.54841164313257 L 320.5061170011759,206.74012523749843 L 321.2131835222244,205.20753904338926 L 322.1014729440212,199.8209627685137 L 322.9778789281845,198.4415623699315 L 324.25535204075277,197.01701944041997 L 328.5749936029315,188.5967238796875 L 328.4650714881718,187.7751176734455 L 329.03844894096255,187.0441358089447 L 329.2285844963044,185.31714925495908 L 329.23452621512115,181.80583119625226 L 329.82869976200163,177.97897728625685 L 331.0645806901157,175.5943547859788 L 333.13527548499405,174.14057893445715 L 339.35924324020743,171.7891125176102 L 342.03896588273346,169.6932559912093 L 346.77155808731914,164.3634306951426 L 345.72878357581794,162.788557483349 z" /><path fill-rule="evenodd" fill="#D2EBD9" stroke="#A6A6A6" stroke-width="0.25" opacity="1" d="M 342.7400906831026,220.5370304635726 L 346.41505400277674,221.62404894363135 L 349.14231047965586,221.58835400780663 L 350.07219208963215,221.1794933541678 L 351.70914014801383,219.99194160895422 L 350.5059387553483,217.73402013955638 L 349.76916356012225,217.15339824929833 L 348.22431238368154,217.2247578385286 L 348.22431238368154,216.72525081411004 L 348.6788551416248,216.1187387793325 L 347.3627607729286,216.09927905350924 L 345.6099488083273,216.6636249809526 L 344.7305720373988,217.8151151961647 L 343.41150673665106,217.2085397434421 L 340.99916223064065,217.1858343728818 L 339.703863883391,216.72525081411004 L 339.4305441007018,218.55148693965748 L 339.9237081129104,219.56692183483392 L 341.0585795789957,220.11847755266353 L 342.7400906831026,220.5370304635726 z" /><path fill-rule="evenodd" fill="#D2EBD9" stroke="#A6A6A6" stroke-width="0.25" opacity="1" d="M 238.68842131458223,241.89265986625105 L 237.59217117540538,243.0241966554895 L 236.2463681343943,245.86008830787614 L 235.05207931995392,247.69147552037612 L 234.15487724356353,250.07634674478322 L 233.40027689002454,251.3649936891161 L 233.11804445274174,252.19814452901483 L 233.11804445274174,253.353602651041 L 234.92136111296713,252.07446940802038 L 239.1429640725255,242.38687901198864 L 238.68842131458223,241.89265986625105 z" /><path fill-rule="evenodd" fill="#D2EBD9" stroke="#A6A6A6" stroke-width="0.25" opacity="1" d="M 374.2372297067195,245.71046903170645 L 373.6341435816139,244.7672667587176 L 372.58542727679014,241.50575489690527 L 372.5111556276679,240.80351064773276 L 367.70726256258786,240.2573538441211 L 367.70726256258786,240.80351064773276 L 368.94908528216183,242.3738729748875 L 369.7838990781456,244.85182620724663 L 370.08989846892655,247.62315860390663 L 369.74824868515134,250.07634674478322 L 369.78092821873724,251.99635961651802 L 370.58306248113513,253.15830481844023 L 373.2806103564799,254.4473394858651 L 374.51649128459394,255.4793352941051 L 375.0037135761231,255.26771889673546 L 376.27227403596044,253.10297108627856 L 376.4178466182202,252.26974665233865 L 377.27048557437956,250.62302567902952 L 376.7268167939037,247.59713321225718 L 373.7381239756942,242.38687901198864 L 373.5182797461748,243.3038484719582 L 373.64899788051844,244.09732054825872 L 374.2372297067195,245.71046903170645 z" /><path fill-rule="evenodd" fill="#D2EBD9" stroke="#A6A6A6" stroke-width="0.25" opacity="1" d="M 125.11809197999537,258.8657946307212 L 124.17038520984352,258.1753868502565 L 120.4538297764957,256.3030534144491 L 119.1407062690705,256.13700208440423 L 118.66536741703749,256.7295895884745 L 118.29103809967637,257.79112343117595 L 118.14249473065138,258.9113892042078 L 118.35045544616878,259.6604726710357 L 119.01890064030886,259.73864110931754 L 119.93095701746643,259.4845959334634 L 120.74497479200363,259.45202650874853 L 121.08959543704987,260.2109212446958 L 121.81448711827397,260.4812706988305 L 125.82515850104392,263.2405484179035 L 127.35812623798847,264.08444363996387 L 128.1127265933901,264.33534489013255 L 131.10439034551382,264.33534489013255 L 130.83404142223299,263.5240112110041 L 130.3943529650569,263.1232557538897 L 129.1109381299466,262.7420639996417 L 128.51082286424935,262.73228998389095 L 127.82752329669893,263.1428043837659 L 127.07292294129729,262.7420639996417 L 126.56787541694939,261.98623865423724 L 125.86377975530922,259.79726773127913 L 125.11809197999537,258.8657946307212 z" /><path fill-rule="evenodd" fill="#D2EBD9" stroke="#A6A6A6" stroke-width="0.25" opacity="1" d="M 122.1293991599232,264.93166747223586 L 121.05097418278456,264.89256322197616 L 120.59643142484128,264.2180396192707 L 120.64990705065429,263.20470878714696 L 121.08959543704987,262.1458695689216 L 120.03790827095509,262.4097545724362 L 118.19002856500447,262.13609612500295 L 117.1026910059154,262.1458695689216 L 116.3094693236053,262.4814282087609 L 115.46277208812535,263.1395462760702 L 115.17162707075477,263.8433235627599 L 116.05991649441421,264.33534489013255 L 117.95830089598894,264.70682036317885 L 119.8477727882564,265.60623836005107 L 121.35697349905968,266.02664580382407 L 122.1293991599232,264.93166747223586 z" /><path fill-rule="evenodd" fill="#D2EBD9" stroke="#A6A6A6" stroke-width="0.25" opacity="1" d="M 228.62609256990254,261.0545656965114 L 227.25355164147913,261.0675954683684 L 226.42467956617475,261.4715276877396 L 223.34983158670366,265.4400355988182 L 222.66950287856162,266.6132897492498 L 222.6457359250635,267.61718130484223 L 223.76872387714684,266.9652924519032 L 225.64037053845823,263.7879319055937 L 227.99329769797623,262.1751897162758 L 228.62609256990254,261.0545656965114 z" /><path fill-rule="evenodd" fill="#D2EBD9" stroke="#A6A6A6" stroke-width="0.25" opacity="1" d="M 151.0894171912223,238.619056917727 L 151.70735768973827,237.48475387552753 L 151.26172751188278,234.46272101206705 L 151.6360568292439,233.11771329678595 L 150.38829238899052,230.2755791186355 L 149.41384780593216,229.7721967161633 L 147.601618565619,230.3437811844051 L 147.8422588147223,229.3402816192247 L 149.16429490223527,228.2459608525969 L 149.59209984727204,227.07058768253773 L 149.48514866642654,225.99923100881279 L 149.07219802215695,224.82411235477775 L 148.10072429850698,223.26290355669335 L 145.80721448548138,222.46129287360236 L 144.06331517361104,223.21422094898298 L 142.47390094958246,224.39564913138747 L 140.62305038236082,224.89552458422258 L 141.87972740270197,223.36351491184905 L 141.85596044920385,222.66250111721456 L 141.16671916283667,221.62729393690825 L 140.62305038236082,221.62729393690825 L 139.41093633696437,223.3245684779249 L 137.24517387151718,223.90553492866457 L 132.60170768760145,223.7529875189066 L 135.09426563605666,224.89552458422258 L 134.72587803937495,226.26219010120258 L 136.2885544486344,226.21998636377975 L 140.12394457682967,224.89552458422258 L 140.56957475468516,226.34010523650795 L 141.30932081118226,227.36279505072162 L 142.32535758055747,228.11283180955797 L 146.24690287187696,229.98328960640356 L 147.35206566378474,230.85693509550765 L 147.35206566378474,231.75663960212842 L 146.0448838751763,232.2633669259958 L 144.76146904192865,231.5195257999003 L 143.5255881138146,230.4119836986065 L 142.34318274259567,229.84689059341326 L 138.082958528772,227.07058768253773 L 138.58206425979733,226.5771005335264 L 136.83519408851862,226.78488175570965 L 135.07644040323794,229.3045601369813 L 133.5969483666122,229.84689059341326 L 138.39489963836968,231.59748039906844 L 140.82209851779044,233.0624872329645 L 141.16671916283667,234.75513720931485 L 140.1209737174213,233.62450723396614 L 138.68901551514864,233.15994514944032 L 134.82094585336745,233.11771329678595 L 133.77817126736045,232.90980498632416 L 132.04021367616951,232.28285688208416 L 131.10439034551382,232.51998825976625 L 130.51318765990436,233.15994514944032 L 130.0705284141004,234.11508148163557 L 129.0039869491011,239.4869317789562 L 128.9089191351086,241.50575489690527 L 129.36049103364348,242.38687901198864 L 128.29097870737314,242.75430731661618 L 128.25235738046467,243.64204214839265 L 128.564298491925,244.73474409151822 L 128.564298491925,245.71046903170645 L 127.73542641475797,246.6374934320338 L 126.15195398405194,247.76955260988325 L 126.6213510427624,248.4429917712696 L 126.6213510427624,248.98307637497783 L 125.19533456116915,249.88111136574298 L 120.63802353851497,251.71321647427976 L 121.58573030866683,252.86211022362113 L 122.63444661349058,252.16559830401093 L 123.04442639648914,252.3869146895595 L 123.12761069834232,254.105534164235 L 122.90479560941458,254.82822170248255 L 123.53759040869772,255.54119324171916 L 126.25593430548906,256.59934764541686 L 127.07292294129729,257.23103661322966 L 128.1127265933901,260.50407160865143 L 130.61419719271362,260.679965918418 L 131.5589331034571,261.0545656965114 L 132.29570829868317,261.6930456873961 L 133.1453764680773,263.7879319055937 L 134.24162660725415,264.71007905201986 L 137.257057312876,265.97776029491797 L 138.082958528772,267.0695918444544 L 140.12394457682967,268.210436549969 L 141.9450864698738,264.78176887426525 L 142.84228854626417,264.33534489013255 L 143.33248169906437,263.8954570912756 L 142.6372986920178,262.9505773354322 L 138.13049243576825,259.18496116111055 L 136.34203007631004,258.18841294711456 L 134.09605409763753,257.77158505190164 L 134.09605409763753,257.23103661322966 L 135.39135244488716,257.123581642285 L 135.93502122536302,256.52771529974416 L 135.61416746117175,255.85374437412247 L 134.3218400478363,255.54119324171916 L 134.03663675114512,255.2253960785456 L 134.79717889986932,254.50593583937734 L 136.5915829781443,253.353602651041 L 137.75022132508457,253.86139456368983 L 138.14534673653543,252.98253990663216 L 137.95818211324513,251.53747635753825 L 136.75795150734484,249.26289043715224 L 136.13109842687845,247.3759201685898 L 135.09426563605666,246.80339089874178 L 136.45195219106972,246.4195538442582 L 137.61059053614736,247.46050108969212 L 139.87736260704696,252.1037607532926 L 141.3984468318522,253.84186361171305 L 142.1173967923969,254.99425178347155 L 142.40854188241065,256.56678741890937 L 142.75316252559423,260.48452795669436 L 143.61471413634717,261.65395394479856 L 145.06152671203017,261.4259216734208 L 146.15183513052762,259.8233241601847 L 147.85117139481008,256.38445203518495 L 148.778082145378,255.24818526068702 L 149.3009548317641,254.03717448562384 L 149.5386242941022,252.62776445643976 L 149.6782550085336,249.98523642262444 L 150.13873955979943,247.59713321225718 L 149.59209984727204,244.31846302049235 L 150.85471866093576,242.36086687399074 L 151.0894171912223,241.60004132892936 L 150.85471866093576,240.65721585182473 L 149.59209984727204,239.38941411767155 L 148.84047035314143,239.03835815982893 L 147.25105612911284,238.9993526977487 L 145.82503964565694,238.40453738626093 L 145.5606324430555,236.3863213500008 L 148.1126078106463,238.2127735731192 L 149.6247794535011,238.90183956874534 L 151.0894171912223,238.619056917727 z" /><path fill-rule="evenodd" fill="#D2EBD9" stroke="#A6A6A6" stroke-width="0.25" opacity="1" d="M 133.36819155700505,270.1045216433704 L 131.9689128883183,269.1427647713572 L 131.02417690493166,269.3579295934178 L 130.68549805507064,270.1534269223921 L 131.10439034551382,270.94572604307905 L 132.71162980236113,271.7511304705404 L 134.0722871441394,272.72944041062146 L 135.44482799991965,273.35234692599624 L 136.906494949013,273.72089072084054 L 138.082958528772,273.6295689442195 L 138.59097691439092,273.34908554377034 L 139.17920866794884,272.8435826669447 L 139.59215931221843,272.20114130480215 L 139.58027579821646,271.49352447642013 L 139.01581099815667,271.05332694621757 L 136.86193190142512,272.04135256120935 L 135.56960448808968,271.9533067587763 L 134.80312061868608,271.65330459270626 L 133.36819155700505,270.1045216433704 z" /><path fill-rule="evenodd" fill="#D2EBD9" stroke="#A6A6A6" stroke-width="0.25" opacity="1" d="M 312.4669490735978,261.354255377315 L 313.0284430850297,260.1685779429972 L 314.23758619837463,255.54119324171916 L 310.92506875656545,256.6449321843684 L 309.4188388325274,256.7751747085713 L 307.70761905424297,256.63516400614753 L 304.40401426516473,255.96118607698008 L 303.2513175662607,255.3263198696077 L 301.9738444518298,254.19668113905936 L 300.167556932196,254.02089847717434 L 298.2127259708941,255.32957556424662 L 297.3808830343187,256.97054160619155 L 301.5935734137893,258.81368672754616 L 303.0314733367413,259.86240896815434 L 303.762306811288,261.0545656965114 L 305.16752720065415,261.0154763213359 L 305.818147232756,263.1916762837209 L 305.50323526374996,265.8017745045945 L 303.9940344803035,267.0695918444544 L 301.86095147766173,267.5389524679631 L 300.35472162626684,268.7254884536378 L 296.4539723582566,275.12343679508194 L 295.8776240441948,277.3874906860292 L 294.47537444345653,279.469301215373 L 293.7148323673755,283.1053404840641 L 292.4759805072099,285.02180558023974 L 290.5865086875856,286.14181669056416 L 288.17713504098356,286.33121862029657 L 288.46233833767474,287.1737738251686 L 288.52175568416715,288.14051313418895 L 288.17713504098356,290.1167387315072 L 287.7849804889411,291.10009640967473 L 283.6881539449096,294.55077694449574 L 281.33522678539157,295.7404909641482 L 280.69649019278586,296.19484201958403 L 280.2033261805773,296.8780417800881 L 280.13202539272606,297.48936526523903 L 280.46476252377033,298.13995891576633 L 281.9858468193561,299.9579220903106 L 282.5919038057327,300.2162566492334 L 283.6881539449096,300.08218342484906 L 286.1331780590117,297.8424460371025 L 288.91093930229545,296.6099866149016 L 289.71307356469333,295.6489694863558 L 290.28050929680467,290.5283651300706 L 290.714256035164,289.0191506478004 L 293.6791819743812,285.82833165768534 L 294.55855874344707,283.3208022224717 L 296.5846904926002,279.5867829443887 L 300.6844878979027,273.6295689442195 L 301.99464054591954,272.56638221489266 L 304.84964437037706,271.00441733235493 L 306.2103017847985,269.8534780233167 L 308.01956016384065,266.0462000085972 L 308.45627776160836,265.43025907408446 L 309.26732460409403,264.88278722250834 L 312.4669490735978,261.354255377315 z" /><path fill-rule="evenodd" fill="#D2EBD9" stroke="#A6A6A6" stroke-width="0.25" opacity="1" d="M 154.37519682012498,323.5101922573522 L 153.2700340282172,324.1526538981125 L 149.59209984727204,324.35916832694784 L 148.39484017528594,325.7262055752799 L 149.1880618557334,327.2704965164885 L 150.92899030819535,328.5887446301058 L 152.58376359939575,329.30696875369176 L 153.65327599830925,329.49391236761585 L 156.1220669914037,330.4090032018721 L 157.2331715039909,330.5336457975209 L 160.35555346496403,330.4090032018721 L 163.4541683997959,330.9797479612753 L 164.59498158469796,330.9600665275939 L 165.6110183559358,330.5992477876134 L 167.3638303205371,329.533269347623 L 170.15644586458802,328.8871784848161 L 169.36025339737535,327.91976094804704 L 161.7102690860629,324.3296660017222 L 159.94557368010283,324.37883653864264 L 157.61344261467457,325.4049184601754 L 156.35379473492503,323.77241645008326 L 155.33775796368718,323.1594782313332 L 154.37519682012498,323.5101922573522 z" /><path fill-rule="evenodd" fill="#D2EBD9" stroke="#A6A6A6" stroke-width="0.25" opacity="1" d="M 90.59066794998944,296.7930478658527 L 91.37497697770596,297.2834071787074 L 91.94241271167994,297.88494731346145 L 92.07016005925834,298.6303841355257 L 91.54134557954967,299.5393689805642 L 92.49796500429511,300.92262294190004 L 93.66848686337471,300.8801087718457 L 94.65481488779187,299.81404252303764 L 95.07667811214924,298.13995891576633 L 94.99052295088768,296.7603581030853 L 94.72017395496368,295.5509117040783 L 94.25077689625323,294.46907096123323 L 93.58233170211315,293.45270454511046 L 92.08501436002553,292.3547521997243 L 92.2305868677795,291.5640394324437 L 92.58114923164248,290.8615987985395 L 93.11590543016791,290.5675685037859 L 95.08261983282864,291.8221578220837 L 96.1640156712383,292.13582962052897 L 96.75818921625614,292.7730055828579 L 96.5739953815937,294.55077694449574 L 97.9940701443702,293.8644676110707 L 98.00595365650952,292.42010314017534 L 97.62568254582584,290.7341846069321 L 97.84255591593683,289.3164022262208 L 99.05169902928174,288.571656471584 L 99.74094039015472,289.5842628898099 L 99.91027977876365,291.3549356823787 L 99.56268827430904,292.9037134111859 L 101.67794604413211,291.9365162262693 L 102.0582171548158,292.3547521997243 L 102.01365410722792,293.50825891364366 L 101.47592704929411,294.30892923427746 L 100.10635705292225,295.6489694863558 L 100.10635705292225,297.8424460371025 L 98.07131272554398,300.08218342484906 L 97.5781487133354,302.47287939302623 L 97.12954767420888,303.2284712307155 L 96.07488965056837,302.82940700883046 L 96.84731523878872,302.1621547997929 L 97.1206350941211,300.91281198197976 L 97.07310118712485,297.8424460371025 L 96.38385989889503,298.69577596802264 L 95.34702703543007,301.20714568393305 L 94.33099033683538,301.73042705934495 L 94.20621384866536,302.3355052229017 L 95.07667811214924,306.1238000681624 L 96.19372434355319,307.30180113809183 L 97.79205114766955,308.62721865205094 L 98.91206824034452,310.22777243703604 L 98.6120106447488,312.2116376403719 L 99.30422279238701,312.70275445561856 L 101.21151984669268,313.0792937390506 L 101.60367439687252,313.5639043613337 L 101.82648948580027,314.57904380420223 L 102.82470102235675,316.53757329145446 L 103.05048697255552,317.6578423609026 L 103.70704872533679,317.73318659560755 L 102.55732288770378,319.91186599619687 L 103.10099166631699,321.66826275503263 L 103.66248567961156,322.73011624393985 L 104.32201829366386,323.20864295680076 L 104.89242488518357,324.2214915356599 L 104.73199807666242,326.48684527073056 L 104.048698509112,330.107243409846 L 103.2614185474813,332.6626531551592 L 101.73736346513033,336.0096343867481 L 100.75697708688676,339.09183205198497 L 101.60367439687252,340.8746302416548 L 102.83361360430717,340.8056762483902 L 105.48659843206406,340.2934616417624 L 106.59176122397184,339.82067184057087 L 107.48599236831069,338.973646979779 L 108.59115516021848,337.35202774824575 L 109.80326913297176,337.06318437866867 L 110.91734450496733,337.5358416028321 L 111.99279862269759,338.4221351048909 L 113.10984485596418,338.9670811975375 L 114.36355101689696,338.41556969098747 L 117.30768086202443,336.4789589513093 L 118.09496082365513,335.3631189772859 L 117.00762326456606,334.1030282545835 L 116.82342942990363,332.682337986771 L 117.39977781660855,331.36026280838996 L 118.60000834800303,330.4090032018721 L 117.6820102520287,327.2278695660643 L 117.38789430260658,325.24427881557494 L 117.8246119003743,324.35916832694784 L 119.16150228865445,324.1526538981125 L 120.25775250047445,323.49380343593657 L 121.21140099130571,322.2909408202395 L 125.6528481785208,311.2098345933482 L 128.87921046093106,306.3561170264147 L 130.09132450819016,305.0440877727233 L 132.21252399683,303.94486430846155 L 134.9160135947168,301.23330911481753 L 135.5933714415878,300.08218342484906 L 135.5517792534083,296.66882739868015 L 135.25766337662935,294.82204550132155 L 134.39908262901008,292.1979116597213 L 134.99028524197638,290.23434449732304 L 136.5915829781443,286.8243334791623 L 136.94214534200728,283.99333353573456 L 136.27370007522404,281.9367039897479 L 134.58030552975833,280.6768172606826 L 131.8322529606521,280.2525384016335 L 130.70926493406296,279.90007417695597 L 129.30701540596783,278.17709251632914 L 128.564298491925,277.5179991242476 L 126.34803118743002,277.2243574252352 L 125.77465373463929,276.5327018829994 L 126.6213510427624,274.777674857527 L 125.74791591987014,273.8839675630443 L 123.08304765075445,272.04135256120935 L 121.76398242264986,271.640261256136 L 119.22389056906104,271.62069620285183 L 118.35045544616878,271.2196216043085 L 115.47465552762151,269.1069044242613 L 115.1062679309398,268.46143957367167 L 115.55189810879529,266.5220317863859 L 115.1062679309398,265.97450128011405 L 114.40217234380543,265.79851554566994 L 113.70698926225305,266.0462000085972 L 112.6166808437556,267.0695918444544 L 111.78483790718019,269.27316713053733 L 111.3184116370976,272.0120038758032 L 110.55489870160818,274.340596455615 L 108.85556236281991,275.3256804244593 L 106.61255724541843,276.30433545215055 L 106.12236409261823,278.67307231063023 L 106.59176122397184,284.1369868530892 L 105.27566685713828,283.1053404840641 L 104.37549391947687,282.0346292210743 L 103.2614185474813,281.1925031640567 L 101.33332540094852,280.84979754313827 L 99.87462938390672,281.23819808801636 L 90.73326959833503,286.4520458630286 L 86.36312319710851,290.5120303891599 L 84.9727571811527,292.1783067341894 L 84.06367166526616,294.0017257728614 L 85.04108710959554,294.24356600129977 L 86.55622961185873,294.93970635998994 L 87.94659570045769,295.78625197615474 L 88.55265268683434,296.4923060843721 L 88.7784386370331,297.6103267404251 L 89.31319483555853,297.50898048840463 L 89.99055268242955,296.9695744747296 L 90.59066794998944,296.7930478658527 z" /><path fill-rule="evenodd" fill="#D2EBD9" stroke="#A6A6A6" stroke-width="0.25" opacity="1" d="M 250.65507632493973,337.5653834384866 L 252.84757667407393,336.1179380323738 L 253.79528344608843,335.00213905097917 L 254.18743799626827,333.4664812097326 L 253.5724683571607,326.6311111599207 L 253.18922645784914,324.6345274937339 L 252.89511058293283,323.7920835763216 L 251.15418205596507,322.70717374049127 L 250.89868750609457,321.15704057272524 L 251.21954119764268,319.7218267954886 L 252.1464518737048,317.6578423609026 L 252.43165517039597,316.32794630900025 L 252.1464518737048,312.4866600744426 L 251.76023911684752,310.8595546018332 L 250.04307761788368,308.09048515418544 L 249.6568647865206,306.9712923900224 L 249.47267102450132,301.3379634418525 L 249.72816557437181,298.24458099529147 L 250.65507632493973,295.6489694863558 L 248.23084830492735,296.72439949493855 L 246.9682295639068,299.2843217519112 L 246.17500788159668,302.2341112084687 L 245.16788376495242,304.47483196109533 L 243.9587405771017,305.35490206675604 L 240.76802868954837,306.66369996825233 L 239.4133130684495,307.51778310444206 L 237.87440361082554,309.30799541948363 L 238.06453916616738,310.05101159075275 L 239.25288618728518,310.1393915815279 L 246.4156481307,308.915233974345 L 246.8969287034124,309.13125080568716 L 247.91296547465026,310.8169980957173 L 249.11022514663637,312.0315676163882 L 249.46078751049936,312.74531902279705 L 249.6568647865206,313.8618861893192 L 249.5974474400282,315.71219275100157 L 249.00030303373933,315.2929780310951 L 248.1625183764845,314.00269383657724 L 247.39306364953518,313.2626571706496 L 246.95040433108807,314.172975609079 L 247.03061777167022,316.2362359003164 L 247.66341257095337,319.91186599619687 L 248.07636321522295,321.261904489249 L 248.70618715696037,322.10741057805717 L 250.80361969210207,324.06087109958753 L 251.15418205596507,324.6345274937339 L 251.71864692866802,329.2380956998095 L 251.6948799751699,330.9600665275939 L 250.38769826106727,334.6707054236904 L 248.09418837726116,336.64306371007115 L 245.47091222181916,337.9888260564767 L 243.1744315493852,339.82067184057087 L 237.14951185695827,348.68927328195423 L 235.3016322236508,350.2207407457754 L 232.52981262654066,351.24623503675684 L 226.68314504995942,352.5479788132943 L 223.6736561357975,354.0932028926909 L 219.26488848216832,358.30600303504616 L 216.3950303569436,359.1711513302289 L 214.80264527350664,359.34221633709967 L 211.78424370661378,360.10217620106414 L 210.39090675860643,360.27654769225046 L 208.81931776739657,359.865299270954 L 206.25545896030962,358.4277112050913 L 205.15326710045338,358.61850014934316 L 206.97737985476851,360.5265952316113 L 207.99935827217996,363.698808521498 L 209.14314231835306,369.7170128314756 L 208.64403658546507,369.7170128314756 L 211.154419766739,369.74335892451927 L 212.28929123282433,369.5918699284084 L 213.1330176088959,369.163761659991 L 212.3338542059064,367.91247676173225 L 211.98032098263502,366.66793755907565 L 212.13480607047677,363.5869079180993 L 213.2815610487014,365.1075504333712 L 214.09854961186647,364.34719943255186 L 214.7551113665104,362.78718484938145 L 215.41761483997107,361.9282963555306 L 216.82877702079713,361.5334305735305 L 226.09788415580988,354.3398038414307 L 228.7776067983359,352.81097838748246 L 232.1643959619105,351.9957027332857 L 235.54227247275412,351.8543513198383 L 236.7573573794216,351.5223480411805 L 237.91599572449923,350.59214132418856 L 241.68305592611432,345.3281148187816 L 246.09776530228555,340.9829874834977 L 250.65507632493973,337.5653834384866 z" /><path fill-rule="evenodd" fill="#D2EBD9" stroke="#A6A6A6" stroke-width="0.25" opacity="1" d="M 129.60707307606936,381.3755703466013 L 128.71284185908735,381.46459594834596 L 127.791872901842,382.5494552203454 L 126.6213510427624,384.693153320346 L 125.13294635340571,386.3523733764887 L 124.63384054787457,387.3618997344747 L 125.11809197999537,388.01847865618765 L 126.04203186929226,387.84690600726753 L 126.75504011102021,387.0253792311996 L 129.4852674473077,382.1075828974135 L 129.60707307606936,381.3755703466013 z" /><path fill-rule="evenodd" fill="#D2EBD9" stroke="#A6A6A6" stroke-width="0.25" opacity="1" d="M 150.13873955979943,430.0375256957486 L 149.82382758893073,429.41781121399254 L 147.601618565619,426.95261207642034 L 148.0175399966538,428.7683146353811 L 147.12033799290657,430.96883083647117 L 147.10251276008785,432.5632000323385 L 147.7739288881421,432.1654112134129 L 150.13873955979943,430.0375256957486 z" /><path fill-rule="evenodd" fill="#D2EBD9" stroke="#A6A6A6" stroke-width="0.25" opacity="1" d="M 73.32398500107229,448.757534455508 L 70.48465635068715,447.11748030409217 L 68.52762254327536,445.62329515395686 L 66.99821509420872,445.48811725433916 L 66.31084437482059,445.1438071397133 L 63.32928687520325,445.43216831516474 L 60.418225061148405,446.4649122557603 L 58.64773425087333,448.2270479197614 L 55.47401153482497,450.18180118175223 L 47.804644864052534,458.1136337853968 L 44.32237478531897,461.00896396301687 L 43.54994919709861,462.2426408389583 L 44.972994819283485,462.0863438760862 L 45.516663597896695,461.71722748689353 L 45.99794416874647,461.1286666332744 L 55.3829151391983,455.1553810532205 L 57.55461939610541,452.1552225551568 L 60.160070756450295,452.6041293228045 L 62.51252107322216,451.5823223153129 L 64.25504943914711,451.5587629219517 L 65.90263250470161,452.3302419888787 L 67.39722722768784,453.3873971980065 L 69.82660055160522,454.7602587961592 L 70.09873629920185,455.420799148269 L 71.0216336492449,456.17169046215713 L 71.21144831739366,457.1930026235059 L 72.27572385407984,458.0929621057585 L 73.16954649426043,459.9322987385094 L 74.52459563501179,460.84018945880234 L 74.3560133818537,461.70724415872246 L 72.59909331984818,462.80466649727896 L 69.5628665201366,463.3600742393173 L 70.06791404634714,464.42109499918297 L 72.05839540064335,466.70652586687356 L 72.48620034568012,467.71468930412084 L 73.05066521838307,471.1725563243963 L 74.44103123433888,470.17067396780476 L 75.72444606758654,468.5565729159862 L 76.66918205097318,466.7963577853516 L 77.04054050892591,465.3391918577254 L 78.42168459109962,464.5046919621527 L 84.44085677526891,462.12008328782395 L 85.95639631897211,462.52283294545487 L 89.32210741564631,461.68729976331815 L 93.0440633315593,461.0337051493116 L 95.4462953787297,460.9490971476771 L 96.4295290056616,462.427532043308 L 97.93981949426234,463.19250496895984 L 100.22106926888227,462.15870582312346 L 101.61147770471871,461.9024957125075 L 104.20999941788614,462.98470610706136 L 107.72208133898675,462.4884458389133 L 110.03796773590147,463.207084341906 L 112.36118622124195,464.2614352349192 L 113.84067833051085,464.4709892729297 L 118.47523186169565,464.5508205704391 L 119.59821988642216,465.02982298936695 L 121.43421608023345,467.8977009351365 L 122.58394184522331,468.38353126402944 L 122.75328130833805,466.8662276281975 L 122.18881650827825,463.51971853524446 L 123.4930273629725,460.6299154511653 L 123.54947385005653,459.0640100874007 L 122.93747514300048,457.74765616003424 L 121.58573030866683,457.1693170061335 L 121.05988676287234,457.3787115640007 L 119.1407062690705,458.84460486099124 L 118.20191207714379,459.01082044281065 L 113.43069861829281,458.7382283783518 L 99.05131754092872,455.70713337045163 L 94.98603716492653,455.70507438573986 L 79.65193315036595,451.76656817784533 L 78.33286792226136,451.54733435437083 L 76.96923964843154,451.10888212313876 L 74.75594320334494,449.1958765289746 L 73.32398500107229,448.757534455508 z" /><path fill-rule="evenodd" fill="#D2EBD9" stroke="#A6A6A6" stroke-width="0.25" opacity="1" d="M 130.10617880895734,479.05159194534644 L 128.76928834617138,479.26481210161 L 122.99392163008451,478.8250509542413 L 120.67961572483182,477.9655782254413 L 119.1407062690705,477.92560471454635 L 119.35460870340466,478.24539780197665 L 120.09732561931014,478.4852499165572 L 122.7265434935689,480.21103572426364 L 126.03311921656132,480.8208016892895 L 132.87205661088228,480.72416944010183 L 139.59810103103518,479.1848539360799 L 143.43646209314466,478.8383767893538 L 145.11203140579164,480.16438866220415 L 149.00089723430574,478.332010357175 L 152.0876287277788,476.0004174779169 L 165.47435842826962,462.88115778332576 L 166.99544272385538,461.84359002811834 L 168.7066625021398,461.29159781429917 L 171.12197786942124,461.1286666332744 L 170.49809564836323,460.23093364806846 L 169.5147384852171,459.9283839073032 L 167.1321025788784,460.0115009509027 L 168.2016149777919,457.8008386003785 L 169.71378662064672,456.0127462274395 L 171.6121710948646,454.82309017702937 L 176.07441430352628,453.98909207759425 L 178.08272081799805,452.99237918201834 L 181.5883446764201,450.43131460109726 L 184.26806731894612,448.946816011332 L 185.12367720901966,448.1996742868796 L 185.78320982307196,447.13717534719035 L 186.32984953559935,445.6432399628684 L 186.3417329750955,444.3221354186535 L 185.3732301108539,443.7479444895871 L 185.14150244183838,443.18042611470446 L 185.12367720901966,439.54381271917373 L 185.3732301108539,438.21361509151757 L 186.041675304994,437.3479265673086 L 187.01314910314977,436.8239086898975 L 188.16287486813962,436.50553230708465 L 187.22705153934658,434.61207849532366 L 187.11415856331587,434.0053253392689 L 187.28052716515958,433.1201326721348 L 188.16287486813962,431.75106566073373 L 188.34112691134214,430.77659662393853 L 188.2133796364069,430.4551102295518 L 187.03097426332533,429.29188490705565 L 186.4249172769487,428.99364512739703 L 185.12367720901966,428.721923685167 L 185.6227830145508,430.28608563216403 L 183.25203062221408,430.00107079092413 L 181.00011292286217,428.721923685167 L 179.00368984788656,426.91616907529533 L 177.3756543714553,425.05776161747053 L 176.68641301058233,423.04407093767077 L 176.04173476994038,416.8268527071923 L 176.15165688470006,415.2847658437677 L 175.38517301529646,410.70630831224844 L 175.75356061384082,404.1633333032951 L 175.49212427064776,398.30524246720597 L 172.86884811520576,395.76884064264596 L 170.94372582808137,396.7859627744183 L 169.25033128261566,399.0913991648704 L 168.0471298880875,401.6286818785593 L 167.5896161980927,403.30735884420574 L 166.41612347774208,404.36494468385354 L 161.07747428677976,405.54164656531066 L 159.60986568965018,407.51526179583743 L 160.79227099008858,407.5251804664731 L 162.11727801151574,407.98145169764757 L 163.1986738499254,408.82792559918016 L 164.01863327249885,410.83860282134265 L 165.97940595261753,411.2090369849466 L 166.86175365559757,411.6522540166043 L 169.53256371803582,414.7156467936002 L 171.24378349632025,416.15836369106546 L 173.11543008498847,416.9526133304462 L 172.34894621558487,418.28975032409653 L 172.1647524535656,420.03095870185643 L 171.87063657678664,420.5937750497833 L 170.69714378379285,421.6797739351168 L 170.57830909080803,422.56058400217444 L 171.0328518487513,423.4779055356048 L 172.34300449676812,424.9451426449232 L 172.6163243521005,426.140960033983 L 172.58364481851459,428.2878484441899 L 172.3786548897624,429.3382786572911 L 171.13980310223997,430.5644806274213 L 173.45707986876369,434.0053253392689 L 173.36498298682272,434.7911279089749 L 172.72624646686018,435.76932817092165 L 172.6163243521005,441.51789438771084 L 173.6888075377792,441.5378032368608 L 174.48202922008932,441.99571767868474 L 175.09402799978852,442.7755510066636 L 175.60501724481583,443.7479444895871 L 175.60501724481583,445.7195908543654 L 175.80703623965383,446.28726288629696 L 177.14689756184816,447.0906937243417 L 177.88664361648262,448.3690211693756 L 178.20749730616808,449.84014375088736 L 177.6846245471388,451.0424517695792 L 175.0969988591969,451.7333506066352 L 173.38874994032085,452.53060497390106 L 166.62705512717366,453.5305909188464 L 165.34364029206336,454.33796661393717 L 164.52368079684675,455.72362592536956 L 163.64430395513773,457.7277128845453 L 163.9770411569625,458.2263087942265 L 164.0602254588157,458.8911448922008 L 163.8582064639777,459.602571987547 L 163.02933438681066,460.68976419977844 L 162.39653951488435,461.9633034262806 L 162.0132976155728,462.09632025519386 L 161.3151436764747,461.34480048017576 L 160.88139701075852,461.1286666332744 L 159.39299232140183,461.2683218154125 L 158.24326655454934,461.7371793012135 L 157.73227730952203,462.58517315099016 L 158.1600822545588,463.8656239202246 L 156.95093906857073,466.6366572249681 L 153.62653818540275,472.2178245866671 L 151.6360568292439,474.5817640866153 L 150.4001759029925,475.48088541440666 L 148.80779081955552,476.0836784862913 L 147.18272620067,476.13363551627845 L 145.8309814389795,475.3876391458325 L 144.5653917659074,474.9347420190461 L 142.83337589353323,475.2144699594937 L 138.54047214612365,476.6398816164583 L 137.21843605861068,476.8064159709029 L 134.3218400478363,476.81307739112526 L 133.46028843708336,477.086200483609 L 131.39850629493594,478.4719245904125 L 130.10617880895734,479.05159194534644 z" /><path fill-rule="evenodd" fill="#D2EBD9" stroke="#A6A6A6" stroke-width="0.25" opacity="1" d="M 5.864492811262608,203.73996562231332 L 5.606027327477932,203.61038844147697 L 4.2156612407416105,204.60169461695477 L 4.084943104535341,204.8997527542524 L 5.864492811262608,203.73996562231332 z" /><path fill-rule="evenodd" fill="#D2EBD9" stroke="#A6A6A6" stroke-width="0.25" opacity="1" d="M 2.263801211491227,207.80302278045565 L 3.0273141469806433,206.77252905396745 L 2.9055085927248,206.72392340702936 L 0.0,210.02962447982281 L 0.4129506442695856,209.76707470882684 L 2.263801211491227,207.80302278045565 z" /><path fill-rule="evenodd" fill="#D2EBD9" stroke="#A6A6A6" stroke-width="0.25" opacity="1" d="M 23.77585400082171,367.68857964500785 L 23.936280881986022,367.62931361375377 L 24.257134571671486,366.839134584181 L 24.096707690507174,366.89839579025283 L 23.77585400082171,367.68857964500785 z" /><path fill-rule="evenodd" fill="#D2EBD9" stroke="#A6A6A6" stroke-width="0.25" opacity="1" d="M 22.299332750961185,369.35476145520806 L 22.33498314395547,369.66432086052373 L 22.994515830650926,368.74884403590113 L 22.95886536501348,368.43602104019374 L 22.299332750961185,369.35476145520806 z" /><path fill-rule="evenodd" fill="#D2EBD9" stroke="#A6A6A6" stroke-width="0.25" opacity="1" d="M 282.722621941939,101.28658537613228 L 283.2603489998728,99.73684930196032 L 282.7345054540783,99.14011436374858 L 281.82541993819177,99.1144490512088 L 281.2193629518151,99.76251605618745 L 280.7024319861084,101.44060826580971 L 281.047052629292,101.53687372943386 L 281.9234585389495,101.06518124090508 L 281.45109062083066,102.88467712793499 L 281.6887600105256,103.03872226458043 L 282.722621941939,101.28658537613228 z" /><path fill-rule="evenodd" fill="#D2EBD9" stroke="#A6A6A6" stroke-width="0.25" opacity="1" d="M 280.978722628206,103.92452346580103 L 280.7083737067878,103.83144681807607 L 280.4350538495928,104.03043919196352 L 280.54794682376087,106.07192318001762 L 280.8628587946296,105.93067626096308 L 281.0589360706508,104.60817941185087 L 280.978722628206,103.92452346580103 z" /><path fill-rule="evenodd" fill="#D2EBD9" stroke="#A6A6A6" stroke-width="0.25" opacity="1" d="M 276.18077135644853,114.62072803406045 L 276.8403039705008,113.16869747638702 L 276.6323432549834,112.72862874623388 L 276.07382010295987,113.41283080587164 L 275.55985999666154,114.60145200649276 L 275.30733623355627,115.7387937582098 L 275.6044230442494,115.95085355686024 L 276.18077135644853,114.62072803406045 z" /><path fill-rule="evenodd" fill="#D2EBD9" stroke="#A6A6A6" stroke-width="0.25" opacity="1" d="M 436.3325814269483,132.7701565362513 L 437.22286532074213,133.4221845017746 L 438.11280525289476,132.82895460352302 L 437.1035195402801,130.8727114610374 L 435.79806485399604,130.63570700585842 L 436.3325814269483,132.7701565362513 z" /><path fill-rule="evenodd" fill="#D2EBD9" stroke="#A6A6A6" stroke-width="0.25" opacity="1" d="M 327.48171432316303,231.74039879534394 L 327.6985876187682,231.37661045370623 L 327.71938371285796,230.50616888143122 L 327.35990869626403,229.48641631100327 L 326.8697155434638,229.20389115298167 L 326.41517278552055,230.4704433772713 L 326.87862819619477,231.6234654225409 L 327.48171432316303,231.74039879534394 z" /><path fill-rule="evenodd" fill="#D2EBD9" stroke="#A6A6A6" stroke-width="0.25" opacity="1" d="M 125.95587670989335,271.7250434830785 L 128.1067848727107,271.9859162173234 L 128.61183239892125,271.94352396577597 L 127.45913570001721,270.18277023453265 L 126.09550749696791,269.53397695021704 L 124.89824782498181,270.1632080702111 L 124.90418954379857,271.26853225473315 L 125.95587670989335,271.7250434830785 z" /><path fill-rule="evenodd" fill="#D2EBD9" stroke="#A6A6A6" stroke-width="0.25" opacity="1" d="M 205.89598401635885,287.108456955757 L 206.0237312912941,285.54097895603627 L 205.5602759514004,285.1589431595057 L 204.80270466394722,285.4919991614297 L 204.38084143958986,286.5304210181348 L 204.57691871374846,287.9510771804489 L 205.14138358831406,288.2580958059989 L 205.89598401635885,287.108456955757 z" /><path fill-rule="evenodd" fill="#D2EBD9" stroke="#A6A6A6" stroke-width="0.25" opacity="1" d="M 126.32723516598344,357.1218940508552 L 125.20424714125693,357.11860506841913 L 123.21673671901226,357.21727527678013 L 123.70692987181246,357.7336656805128 L 124.26248209178448,357.99351586122066 L 126.69265190325677,358.0395659347996 L 127.55717437341809,358.57244734000415 L 128.11866838671267,359.30931898392737 L 128.32068738155067,359.27313203178346 L 127.93150369077921,358.36192278563976 L 127.20958286896348,357.5132918935269 L 126.32723516598344,357.1218940508552 z" /><path fill-rule="evenodd" fill="#D2EBD9" stroke="#A6A6A6" stroke-width="0.25" opacity="1" d="M 25.13651141524315,386.8175341463648 L 25.427656430751085,385.936716852244 L 25.635617146268487,384.2379898689687 L 25.43953987210989,383.5618808725849 L 25.285054782405496,383.9180689989589 L 23.903601275756955,383.3936855555512 L 23.77585400082171,384.13244773214683 L 24.286843245849013,385.35284874169156 L 24.007581669837236,385.75528516341 L 23.021253645420074,384.8118951781653 L 22.106226336210966,383.502517465502 L 21.939857807010412,382.4373364895582 L 22.70931253582239,381.7976249130443 L 23.817446114495397,381.3360037030652 L 24.554221307858825,380.68317715777084 L 24.277930665761232,380.254577757325 L 21.443722860887647,380.5941588492133 L 21.179315658286214,380.95023725554347 L 21.39915988780558,382.1273678224534 L 21.94282866641879,383.6806087847799 L 22.926185831427574,385.3990290760994 L 24.334377152845263,386.589899498038 L 25.13651141524315,386.8175341463648 z" /><path fill-rule="evenodd" fill="#D2EBD9" stroke="#A6A6A6" stroke-width="0.25" opacity="1" d="M 171.58543328009546,444.04665220016614 L 172.06968471221626,443.6882040882483 L 172.18257768638432,443.38618908356875 L 171.74288922920823,443.4061018945649 L 171.67753016203642,443.2799883284606 L 171.8617239240557,443.08086503855884 L 171.7131805550307,443.0476782480255 L 171.63890883512795,442.0853122677654 L 171.820131810382,441.1396348439157 L 171.4101520255208,440.80120506417006 L 170.8338037133217,440.7580726738088 L 170.1950671914965,441.0898650325835 L 169.8920386619866,441.9923993861303 L 169.10475877299905,443.01449157483876 L 169.21765174902976,443.3530012136325 L 169.53256371803582,443.3131759404205 L 170.3020184468478,443.9968668939546 L 170.89025020040572,444.176095134113 L 171.58543328009546,444.04665220016614 z" /><path fill-rule="evenodd" fill="#D2EBD9" stroke="#A6A6A6" stroke-width="0.25" opacity="1" d="M 127.0788646619767,454.02896278211847 L 128.27018261514604,455.06898425519466 L 128.48111419007182,454.8264130190946 L 127.57202867418528,453.54720292426646 L 127.56608695350587,453.19171330565587 L 126.95111738704145,451.73999409517273 L 126.48766197450459,451.0358087765053 L 126.01529405638576,451.0158797441982 L 124.68731617555022,452.78972727200016 L 124.20900646410882,454.17847946006805 L 124.59819015488029,454.5041020261124 L 126.80554480478168,454.9260990759358 L 127.13234028965235,454.53732944699004 L 126.30049735307693,453.4475315804593 L 127.0788646619767,454.02896278211847 z" /><path fill-rule="evenodd" fill="#D2EBD9" stroke="#A6A6A6" stroke-width="0.25" opacity="1" d="M 206.19799637421966,368.71985493507236 L 207.05615268275142,368.5296203009784 L 207.9715194106102,368.2125708684325 L 207.68546730838716,367.7687190696597 L 204.93936712294817,367.958938782569 L 205.39705048687756,368.46620958531275 L 206.19799637421966,368.71985493507236 z" /><path fill-rule="evenodd" fill="#D2EBD9" stroke="#A6A6A6" stroke-width="0.25" opacity="1" d="M 201.90721483528614,367.1346802888438 L 202.70816072262824,367.198082302697 L 203.33747534826398,366.9444767315872 L 203.2230545077473,366.50068292440847 L 201.90721483528614,365.9301206935197 L 200.4769543223083,365.9301206935197 L 199.56158759444952,365.2328123766929 L 198.76064170710742,365.10603442415595 L 198.70343128591776,365.7399407327175 L 199.84763969667256,366.50068292440847 L 201.90721483528614,367.1346802888438 z" /></g></g></g></svg>