<svg xmlns="http://www.w3.org/2000/svg" xmlns:xlink="http://www.w3.org/1999/xlink" width="500.0" height="279.05899018375203" viewBox="0.0 0.0 500.0 279.05899018375203" preserveAspectRatio="xMinYMin meet"><g transform="matrix(1,0,0,-1,0,279.05899018375203)"><g><path fill-rule="evenodd" fill="#D2EBD9" stroke="#A6A6A6" stroke-width="0.25" opacity="1" d="M 259.79690745007247,230.73263922752813 L 262.38172177877277,231.08138667745516 L 264.98192177619785,231.0290741994977 L 274.6903608040884,229.63412783993408 L 277.98292191606015,230.43620893452317 L 281.6293562715873,230.83726262301207 L 285.96815144177526,233.20453302701935 L 288.4144935468212,233.76696852967143 L 290.8608355037868,233.2176126181148 L 297.2613278981298,228.93669499456882 L 306.4620356410742,226.53947362769395 L 315.724286660552,225.95547136710957 L 324.448034459725,224.03798440098763 L 332.0486192526296,217.64201456215233 L 334.21801691222936,215.51197680877522 L 339.23378737736493,212.92925994098186 L 345.6496654422954,212.25859733717516 L 351.696284445934,213.75673456676304 L 355.7273638304323,217.66815149458125 L 357.8352180654183,220.90942879440263 L 364.09723823703825,228.22621263889596 L 366.8974537346512,230.43620893452317 L 370.7592892581597,231.15985584584996 L 374.55958165507764,230.5844233906828 L 378.0675437869504,230.81982546066865 L 381.11393194273114,233.95009103789926 L 384.0064620561898,228.04314812272787 L 388.7452882248908,223.685014446266 L 400.26925152074546,217.64201456215233 L 404.37725985236466,216.23067333968356 L 406.53127169329673,215.89527805522084 L 411.9778444971889,215.8473650207743 L 417.9321487341076,213.3647682000883 L 424.0556966839358,212.58086063992232 L 427.3328718272969,211.6663446011953 L 430.47157474886626,210.22498627612367 L 432.88714536465704,208.3744670599699 L 435.102700333111,204.4998714667745 L 434.5180399529636,201.20928898314014 L 432.7640588115901,197.84532624622807 L 431.4562659775838,193.71193914767355 L 421.93103763926774,193.48944984236732 L 422.17945043649524,188.38880898803473 L 428.0317528452724,186.63567451573908 L 432.56236532889307,181.90124348178506 L 432.441403423436,175.85249387891963 L 431.21009317040443,170.78209727117792 L 424.2403262145817,160.95635483041406 L 423.25563513394445,154.52598898112774 L 426.5020386399701,142.20992764504626 L 427.9021463887766,139.81970811728388 L 432.13324112351984,136.3802440785803 L 433.4410341065377,133.5788337471895 L 435.7796754781157,130.92525795195252 L 439.1799370255321,129.86740251258016 L 442.8571428703144,129.18243009969592 L 446.1571855749935,127.70229380298406 L 453.9671509070322,127.12076106900349 L 465.43332689255476,128.75878620985895 L 471.9854274559766,127.66676944913343 L 481.32164021767676,129.2084413659759 L 483.07562120910734,129.79803713737056 L 490.29703697934747,125.49429688462988 L 499.4153397688642,101.5965000926517 L 500.0,99.60538469767198 L 498.9691516114399,96.72297319816425 L 494.32264035753906,92.7506513162516 L 492.260943133384,90.24999426817521 L 491.72244021017104,88.73591861873865 L 491.2454805634916,85.56108516035601 L 490.81467807572335,84.11658503534272 L 489.9838450374082,82.77598134754226 L 488.0452343663201,80.7090455070138 L 487.229786997661,79.55892521096393 L 486.1681668218225,77.12055832566693 L 485.41426272969693,74.23297510575503 L 484.9834603909403,71.13839584449306 L 484.95268875267357,68.08753803418949 L 486.76821302063763,62.652538823895156 L 494.18416813388467,55.180907796602696 L 496.7535964939743,49.85324908187613 L 499.27686754614115,40.229298792313784 L 497.61520117148757,31.9557722103782 L 492.1224709106609,26.462223795242608 L 483.07562120910734,25.09124195855111 L 480.4446495724842,26.367372752167284 L 475.72120937146246,30.437771605793387 L 473.1210093740374,31.524509713985026 L 470.8746827673167,30.8862589946948 L 471.2285561589524,28.70429526316002 L 471.2285561589524,26.23803132586181 L 468.0283099617809,24.703246221411973 L 469.7976767728105,22.46164968702942 L 469.9515348142013,19.720365952700377 L 468.7206709263846,17.815494176466018 L 466.39741522539407,18.10853894939646 L 464.8126779459417,20.401339534204453 L 464.38187560718507,23.10823689447716 L 463.5510424198583,25.548224678263068 L 460.75082707125694,27.065832200925797 L 456.30433116760105,26.23803132586181 L 446.82667897827923,20.013440245296806 L 442.44172635115683,17.893064414616674 L 435.24117255583405,16.970861152280122 L 432.88714536465704,17.14323221333325 L 426.3020232897252,19.1083727395162 L 423.6095085265115,19.004939068108797 L 418.20909317955375,17.11737651238218 L 415.4242635015398,16.910531676840037 L 413.454881192185,18.651545544154942 L 410.0392338251695,26.108690618071705 L 408.639126076363,28.2472359794192 L 406.4851142363623,28.88539726752788 L 400.469267020002,29.24760649027303 L 398.40756979584694,28.9112690766342 L 395.7458266709,27.065832200925797 L 394.20724684838206,24.453208728693426 L 393.0071544498205,21.427156302612275 L 391.26855927705765,18.341254224069417 L 389.36072009429336,16.427902799099684 L 387.0528502119705,14.893914062995464 L 384.5449649794027,13.756429846864194 L 382.0678513851017,13.075695221778005 L 379.00607741065323,12.98952809907496 L 376.91360884625465,13.816749268211424 L 372.5286560691893,16.50546734780073 L 367.42057098727673,17.70344880130142 L 356.8351413141936,17.462122708559036 L 351.6039696801454,18.10853894939646 L 347.1574737755582,18.074062818661332 L 339.0183862084523,14.333780646324158 L 295.7996770227328,11.817693386226892 L 276.55204267892987,13.989091436378658 L 259.79690745007247,22.720281881745905 L 246.01123172976077,32.628561603371054 L 240.98007544502616,33.43939081020653 L 237.96445892751217,32.43879799405113 L 235.82583290617913,30.722387372516096 L 233.84106477722526,28.70429526316002 L 231.39472282025963,26.83300945814699 L 228.64835761580616,25.918992727529258 L 223.16332033928484,26.134558622259647 L 220.4477269211784,25.901747528929263 L 215.46272809430957,22.659933891613036 L 211.70859300531447,12.601780564524233 L 207.98522970452905,9.207175318151712 L 202.3232557317242,7.596243109088391 L 185.3681053025648,5.950993558391929 L 175.9673822093755,3.427406524773687 L 172.73636452201754,3.1173643157817423 L 171.22855604067445,3.3498954977840185 L 168.19755370356143,4.288661229424179 L 166.8359104283154,4.503981057088822 L 166.27432885114104,4.779593990184367 L 165.08962242119014,5.8476317301392555 L 164.4818832371384,5.899312573485076 L 163.70490034203976,5.244699792470783 L 163.3971845563501,4.38340167934075 L 163.03561818040907,1.920304901432246 L 162.56635136902332,0.8094322113320231 L 161.85091175045818,0.008610726799815893 L 161.31240882724524,0.0 L 159.2891762247309,0.7233206545934081 L 153.36564362607896,0.6716540749184787 L 150.15770444460213,1.1883272011764348 L 142.18016790319234,4.736529069952667 L 138.91837842948735,4.89156277384609 L 133.71797828376293,2.729818845167756 L 130.96392039302737,2.6781468028202653 L 129.1330103063956,4.133632453624159 L 131.5101162996143,8.733357434161007 L 131.19470738153905,11.636754801496863 L 127.43287960719317,14.65262380009517 L 121.54011849686503,16.901913267560303 L 115.42426338233054,17.92754004849121 L 106.11585520394146,16.815728556364775 L 100.82314029335976,19.547971569467336 L 91.045465153642,26.375995479058474 L 84.86806676350534,24.720490325707942 L 82.81406267173588,24.81533309724182 L 80.91391647327691,24.634270128328353 L 79.32917919382453,23.37549929600209 L 77.7905993713066,21.78060187958181 L 76.0366182308644,20.608222553972155 L 71.86706677265465,19.487633873242885 L 67.66674367524683,19.07389478618279 L 59.250711811706424,19.556591184809804 L 54.5503501156345,20.88406999083236 L 52.4578814022243,23.323770713526756 L 51.25009631831199,26.720910605974495 L 49.21917088050395,30.903508747927845 L 46.865143690258265,33.517025251407176 L 43.39564588200301,36.11364954710007 L 39.67997556459159,37.79603896662593 L 36.51050085667521,37.62347939424217 L 35.09500743821263,36.579527085181326 L 33.417955392971635,36.10502236802131 L 31.663974252529442,36.286195458844304 L 30.11000846233219,37.209342568181455 L 29.06377425417304,38.90045846812427 L 29.07915992476046,40.514062635134906 L 29.30994706135243,42.24862544471398 L 28.940687851049006,44.29406189080328 L 26.28663741145283,47.53959883376956 L 23.27871387731284,47.1856699497439 L 20.401569434441626,44.725617018993944 L 18.109085370786488,41.58412245474756 L 17.201323236338794,49.83598179044202 L 17.201323236338794,58.981134177651256 L 16.485883617773652,63.274589168373495 L 14.52419429179281,67.05917404359207 L 11.193168707191944,69.5912980735302 L 1.8616817248985171,74.5614799875766 L 0.0,75.93607635982335 L 1.2462497064843774,80.7609322075732 L 3.6156628653407097,86.25310081150383 L 6.81590891443193,90.98544683726504 L 10.585429673083127,93.59004744561389 L 19.555350427515805,95.92671016324311 L 23.009462416172028,98.60125064849854 L 24.15570437349379,103.49258636683226 L 27.554218819364905,106.06068838527426 L 32.86104076355696,105.61820018477738 L 36.00582413747907,102.96349223610014 L 39.740254394710064,106.06068838527426 L 37.38166686426848,110.0435566464439 L 34.82653037272394,116.46219831798226 L 32.89846368599683,123.2070879242383 L 33.86454113852233,127.19860374974087 L 35.15264440886676,130.73725836677477 L 37.64834449440241,133.18749302718788 L 36.49361723754555,135.5718497261405 L 36.15802913997322,137.3880645208992 L 36.96344057377428,139.50720764230937 L 39.11120439786464,140.7182558341883 L 40.923380124382675,142.7620799522847 L 40.58779202681035,144.57900267839432 L 42.60132061224431,147.1532831378281 L 45.1517901532352,147.683326699771 L 46.091436826623976,150.25804097019136 L 47.76937731355429,152.60588836856186 L 49.715788279660046,153.89354474516585 L 53.809963068924844,155.5600573606789 L 56.49466784950346,154.9540353063494 L 57.971255478449166,154.27228435734287 L 58.741035542450845,153.70963278738782 L 59.14356781449169,155.79945129621774 L 63.41040989663452,162.25212880317122 L 69.68991333898157,173.1632195082493 L 72.42713278811425,179.98594990139827 L 73.66720522101969,186.15678587649018 L 78.69836150575429,189.4794505937025 L 84.76805916242301,192.28940029349178 L 90.2069391310215,196.47032716823742 L 95.28425272367895,203.25495161302388 L 102.85406573023647,217.64201456215233 L 106.36202801112086,223.7895973646082 L 108.48526821378618,226.5917733227834 L 110.94699613749981,228.87567072408274 L 113.92414818238467,230.00029084971175 L 116.85514276940376,232.34565328853205 L 123.77105928398669,241.24597132904455 L 126.44049554225057,242.93408062122762 L 129.17916776333004,243.80655022338033 L 147.04208032600582,247.06123363273218 L 152.70405429974198,249.64445571415126 L 155.35041160602123,254.44097850797698 L 156.4274176005274,257.1431300826371 L 158.6891300259158,259.07286258833483 L 163.70490034203976,262.277897241991 L 165.02807914465666,263.75834433035925 L 167.3205632083118,267.02973381010816 L 168.64374186098576,268.47125583607703 L 170.23617212474346,269.2838006913662 L 171.38241408206522,268.7639424884692 L 176.56530951987952,271.8204421387054 L 181.98322957381606,270.5769590009004 L 184.82190954405814,272.23286143131554 L 187.62981787603348,272.6698003197089 L 199.59950321447104,276.83143402589485 L 207.44093085546046,275.1609481549822 L 211.8517339034006,272.9338751747273 L 215.2823584964499,273.4906175523065 L 218.71298308856785,277.388297167141 L 222.63369690906256,279.05899018375203 L 228.02467841282487,275.1609481549822 L 228.02467841282487,269.0371611015871 L 232.4409571774304,262.64908943511546 L 238.10293100122362,261.71020650677383 L 241.7471767840907,269.0371611015871 L 246.64806905947626,269.0371611015871 L 251.0588721074164,266.2543105650693 L 256.9399428376928,266.2543105650693 L 264.2912812512368,260.68989954330027 L 270.6624412089586,260.1335529596545 L 276.54351193923503,257.9083383330144 L 278.0137796225026,252.3465027040802 L 273.6029765745625,250.67828624276444 L 270.6624412089586,245.11867735395208 L 265.76154893357307,244.56281053833663 L 261.35074588563293,239.5607780199498 L 259.79690745007247,230.73263922752813 z" /></g></g></svg>