<svg xmlns="http://www.w3.org/2000/svg" xmlns:xlink="http://www.w3.org/1999/xlink" width="475.09952465444803" height="500.0" viewBox="0.0 0.0 475.09952465444803 500.0" preserveAspectRatio="xMinYMin meet"><g transform="matrix(1,0,0,-1,0,500.0)"><g><path fill-rule="evenodd" fill="#D2EBD9" stroke="#A6A6A6" stroke-width="0.25" opacity="1" d="M 267.74221479706466,499.3451992785558 L 265.69358158297837,494.7823505140841 L 265.69358158297837,493.2792664221488 L 266.03414719738066,492.00723925372586 L 267.5011991132051,488.3168384102173 L 269.59698757715523,484.7186798066832 L 270.9697290416807,483.22501073405147 L 272.6935150232166,482.1996976137161 L 274.218201097101,480.96476244647056 L 275.297532197088,478.990731892176 L 276.92176819965243,474.87038612831384 L 278.56172268651426,472.1886964486912 L 278.9651619847864,471.1235299529508 L 279.4393341112882,468.8713745861314 L 280.3510021176189,467.07698456337675 L 283.69378472678363,463.5202971994877 L 285.4175707101822,462.3436360331252 L 286.109180893749,461.6254117670469 L 288.51409815624356,458.1550413640216 L 289.9706711154431,456.8616040875204 L 291.9302333034575,455.87205590493977 L 293.1981853079051,454.7165255015716 L 293.779766658321,452.83087108749896 L 294.0888954550028,448.9145355038345 L 295.90175241045654,444.88579916395247 L 302.26247039809823,439.1384095349349 L 303.63521186076105,434.86700764484704 L 303.46230928972363,433.7586577818729 L 302.63447287864983,431.7688238644041 L 302.4720492642373,430.6711762906052 L 302.66067021898925,429.3793263719417 L 303.06410951912403,428.37011111853644 L 304.3111036103219,426.24040073528886 L 305.8462686892599,424.1989472284913 L 307.00943128578365,421.84070298913866 L 311.87166048772633,408.01142718223855 L 313.1500914487988,406.0713559226133 L 315.1253720726818,404.8314846861176 L 317.3888235799968,404.22538449568674 L 320.10286963917315,404.16977683175355 L 320.6530141197145,403.913977060467 L 321.54372421465814,403.11872527655214 L 322.046713443473,402.42351528350264 L 322.17246076464653,401.98967592651024 L 321.81093723885715,400.86604215670377 L 321.444174233824,400.19846784789115 L 321.0931296646595,399.92586017679423 L 322.11482655629516,399.33054405497387 L 323.65523106232285,399.05234490241855 L 324.79743579775095,398.43471069587395 L 326.1963746007532,396.25316190253943 L 327.16043728776276,395.340309118852 L 331.0638432819396,394.11559834703803 L 333.1124764960259,392.77935110777617 L 333.9769892003387,391.87726658117026 L 334.76814936473966,389.64949059672654 L 335.4597595501691,388.92533860728145 L 336.39762489683926,388.50195983657613 L 338.69775269925594,387.83899562153965 L 339.42603917978704,387.4267061674036 L 341.4589540604502,385.0528689972125 L 342.323466764763,384.5958573934622 L 346.4259726703167,384.02734522055835 L 352.1631935853511,381.0894272858277 L 353.989149261266,380.7492990694009 L 355.67363923601806,380.7716029509902 L 357.31359367258847,380.59317004308105 L 359.011182365939,379.6507591721602 L 360.3472474832088,377.87160326819867 L 360.8973919637501,377.4197832038626 L 361.5208890363574,377.1854966552928 L 363.1556040439755,377.17991837114096 L 364.221836425364,377.0069882874377 L 365.27758979797363,376.69458948774263 L 366.19187757000327,376.1199687696062 L 366.8572904150933,375.1770598613657 L 369.4482088666409,368.49556728685275 L 370.3598768245429,362.15523730171844 L 369.5687166582793,354.3503013057634 L 371.47588421963155,355.34589413460344 L 373.23634649813175,355.58079185476527 L 378.9735673610121,355.56401364319026 L 383.0393970217556,355.03827988076955 L 385.91586664505303,355.56401364319026 L 387.6868079304695,354.73624752881005 L 389.72496218793094,354.70828103320673 L 390.62615123949945,354.33352066064253 L 391.3544377181679,353.62870156159624 L 391.73167962767184,352.6776602375321 L 391.582354683429,350.5402157236822 L 390.96147732436657,348.6261185943149 L 390.5606577899307,346.6835837755352 L 391.8207506015897,342.3826261628419 L 391.93601896613836,340.2144933468662 L 391.16581676341593,335.8204437219538 L 390.23319089598954,334.2505675237626 L 390.06290803849697,331.1660016165115 L 390.45324866846204,328.11954576941207 L 390.38251578994095,326.9747254131362 L 389.76687796227634,324.0951236798428 L 389.7563990056515,323.14625846315175 L 390.17031721025705,322.1186632863246 L 391.9150611050427,319.70919769862667 L 392.68526340834796,318.88341087894514 L 396.20618796534836,316.287529012654 L 397.71515565365553,314.42157198954374 L 399.00930504873395,312.3583973888308 L 400.8274015337229,310.1540921824053 L 401.30419342406094,309.383566649165 L 401.47709594480693,307.69039909541607 L 402.6297795865685,306.2894672281109 L 404.1335077956319,303.17727894335985 L 404.2749735508114,302.61436616210267 L 403.7143501136452,301.5334618813358 L 403.6095607057214,301.0154763609171 L 404.14398675225675,300.79588533053175 L 404.3483260907233,300.4805645449087 L 404.086352545768,299.7766782194376 L 404.2854524552822,299.2473144745454 L 404.8172588404268,299.2473144745454 L 405.16568364575505,299.0333063872531 L 406.17166205495596,296.98867386300117 L 406.78729993477464,296.31827977858484 L 407.4972483161837,295.8450262611732 L 408.3250847272575,295.57458295859396 L 411.2591885570437,295.3886477719061 L 415.0578051432967,294.6279583708383 L 421.0989153776318,294.5377976624295 L 422.9772657826543,294.1771447993815 L 424.99708189442754,293.4783329279162 L 429.1205457113683,291.3251519105397 L 430.2103557176888,291.0771037773229 L 434.74249826185405,292.37363292695954 L 436.3614947851747,291.94523823913187 L 437.8704625237733,291.79867682466283 L 438.5804108567536,291.567555133719 L 440.5425928104669,290.0058967489749 L 442.86367847397923,289.2672427324578 L 450.2984880320728,285.7816626476124 L 451.8284136336297,285.3698332309723 L 454.9144621230662,285.1836566342972 L 456.3815140388906,284.8282163706608 L 457.2879425175488,284.2188525823876 L 459.31561792083085,283.56994088878855 L 460.1539332345128,282.909688454587 L 460.2744410764426,281.8599416879006 L 458.2624841593206,278.0943657681346 L 458.05290534347296,275.7844389579259 L 458.4458656348288,273.4681753469631 L 459.40730865858495,271.3829468381591 L 460.93985392153263,269.7381023671478 L 462.8260635212064,268.74311265861616 L 464.6965547353029,268.4095362573862 L 469.4854313470423,268.55653780605644 L 470.2346757389605,267.76495814789087 L 471.22493576444685,265.6838474231772 L 475.09952465444803,262.31216068426147 L 474.15903959423304,261.97830598335713 L 472.7077061124146,262.11977163050324 L 469.93602584674954,262.7195569477044 L 468.61043968610466,262.56112769199535 L 466.8133010622114,261.16341332392767 L 465.9121120609343,260.8181896591559 L 459.77669132500887,260.4729504818097 L 459.31561792083085,260.2748554451391 L 458.25724468007684,258.82577621750534 L 458.2677236367017,258.5710269692354 L 457.49228190630674,258.1124569522217 L 455.3362395707518,255.5473560122773 L 455.72658015042543,251.7009238949977 L 455.49604342132807,251.05494117876515 L 454.9930541925132,250.58458596421406 L 453.8246521167457,248.385431796778 L 452.9182236380875,247.68247535964474 L 450.7307444345206,247.9432571181096 L 449.57544103078544,247.88656617561355 L 449.0776912793517,247.16088506719097 L 448.79475987143815,246.11192659428343 L 448.0664733424783,245.52784910565242 L 443.7334307078272,244.37657448044047 L 440.0658009201288,242.289089133963 L 438.28438073024154,241.69336961349472 L 435.9370976239443,241.84655908774585 L 435.0385283380747,241.68202210543677 L 433.9565775748342,240.73444641847163 L 433.14445949718356,240.48476600041613 L 429.94576240703464,241.31889341492206 L 425.76204471848905,241.02383840689436 L 423.82082062773407,240.496115304064 L 421.9581886548549,239.4405585490167 L 421.19846530631185,238.7821796555072 L 419.35941096022725,236.5966314249672 L 418.85904144495726,236.30706974631175 L 417.0750015396625,236.02885296661407 L 416.6034491285682,235.71655654534698 L 415.0054104644805,233.68347439169884 L 414.7539158258587,233.1609176271595 L 414.6543658450246,232.45086393039674 L 414.8953815288842,230.91691880021244 L 414.5129001401365,230.20097056496888 L 414.05182668566704,229.7747783777304 L 412.6109721586108,229.240583403036 L 411.91412244550884,227.7400875017047 L 409.04813172854483,226.63157360907644 L 408.959060754627,226.03461356135085 L 409.39393682032824,224.8576097576879 L 409.1791185270995,223.6349217207171 L 408.5556214544922,222.53148711798713 L 407.7644612900913,221.69527073344216 L 407.0780905839056,221.24583689076826 L 405.0556547604501,220.3525776253082 L 404.08111311867833,220.19325900031254 L 403.4890528637916,219.64699779776856 L 403.51001077517867,218.38930660113692 L 403.92392892949283,216.05546975694597 L 403.11181095428765,214.51245780009776 L 401.36182758025825,213.27667807089165 L 399.2450812552124,212.38815604662523 L 397.3169558327645,211.88689146842808 L 397.64704254083335,210.8785632867366 L 396.845403470099,210.5823051542975 L 395.2106884624809,210.7589220176451 L 395.08494114130735,210.32591834058985 L 395.23164632357657,209.89858728041872 L 395.975651236251,208.62784344889224 L 395.2106884624809,208.12062454828992 L 394.16803370788693,205.48708506533876 L 393.4345077499747,205.11078826291487 L 392.75337652117014,205.43577299220487 L 391.37015610188246,206.9920798735693 L 389.3581991828978,205.33884916221723 L 388.76875869370997,205.11078826291487 L 387.3514817431569,205.69232973037288 L 386.785618878901,205.70943316211924 L 386.3402638062835,204.16996228788048 L 385.38668007589877,203.1092505468987 L 385.0146775934845,201.6376873711124 L 384.5195476077497,201.15851015411317 L 384.82605663873255,199.98895832477137 L 384.5378857553005,198.7507417378947 L 383.78864136338234,197.7577349259518 L 382.77218394726515,197.07853213325143 L 381.677134513855,196.7474692077376 L 379.57086709327996,196.6732634184882 L 378.9106937274337,196.40497465897352 L 378.0147442035377,195.22895446093753 L 377.51699440181255,194.8920983155258 L 376.8044263571501,195.27462873561308 L 377.17642878741026,196.07388131925836 L 376.7729894891381,196.1823445595801 L 375.41596650891006,195.61717620445415 L 374.7872299607843,194.65229302970693 L 374.27376177348197,194.34967021038756 L 373.7052791956812,196.0624640248716 L 372.9743729531765,195.45732270460576 L 371.7797735389322,193.54451850056648 L 370.94669760018587,192.7335667051375 L 370.06122698262334,192.0767439068295 L 368.114763462916,191.0942550986074 L 366.2285538148135,190.5058409194462 L 365.6705501936376,189.8545308979228 L 366.3883577156812,188.7917421394959 L 365.42429503053427,188.5574506521225 L 365.0208557303995,188.76317042578012 L 364.6540927775204,189.2031626822427 L 363.93104572594166,188.0374108091928 L 363.5223669987172,188.54602159000933 L 362.9407857004553,188.77459914656356 L 362.4220780879259,188.6831689858809 L 362.202020265162,188.2431453424506 L 362.4220780879259,187.56305633392185 L 363.1189276985824,186.8428928651847 L 362.8936304487288,186.1855384344235 L 362.2701333761215,186.57424214622006 L 361.70950999110937,186.51136504486203 L 361.22223919443786,186.09979216894135 L 360.81879989616573,185.43093657540157 L 361.159365510568,185.43093657540157 L 360.2267396915704,184.75630183937028 L 359.9333292786032,184.42467867583036 L 359.77614514157176,183.9157792935148 L 359.08191519230604,184.29316880879924 L 359.51417159475386,181.43366777105257 L 358.7387298140675,180.8616320346482 L 357.8689776305109,180.90167605830356 L 357.1930858809501,182.1829661470838 L 356.6638992615044,182.40602469909936 L 356.17400875128806,181.99993856390938 L 355.28067889250815,179.723146407865 L 354.29827805794775,177.96643746411428 L 354.03892422653735,176.93052276642993 L 354.2694609556347,175.9459798191674 L 352.82598666474223,173.30364904738963 L 353.1744114719331,172.17542481422424 L 352.9805510379374,170.68039815407246 L 349.41771070845425,155.94256243109703 L 349.3181607276201,153.46797849517316 L 348.34361908584833,148.59092325624079 L 347.8091930896044,147.61970666982234 L 347.00231449119747,146.88402182562277 L 345.93870187550783,146.2804732043296 L 341.4641934875399,144.82024680497125 L 340.3953413926065,144.228021630086 L 339.9473665561527,143.39997291006148 L 336.8744167871773,140.17310447897762 L 333.57354995049536,138.0152809806168 L 332.19556906074286,136.87568259984255 L 330.9223775267601,135.1947249332443 L 329.4396072290838,131.2325163576752 L 329.06760479696095,130.59305432904512 L 325.76673796214163,127.17007254762575 L 321.7795004211366,127.75221323035657 L 319.4007805492729,127.41215680260211 L 305.95629757642746,123.16869994811714 L 303.5461408365518,121.54789254022762 L 300.9421237129718,121.64595932746306 L 298.8830115441233,120.99984716577455 L 298.5948406085372,120.73446231428534 L 298.5214880183339,119.36699223937467 L 299.0454351603985,115.28605725849047 L 299.01923776976764,113.03387407632545 L 298.48481172323227,111.23737548990175 L 297.007280850783,107.82793973106891 L 296.91297039948404,105.74677571747452 L 295.37780532054603,103.03453522361815 L 294.2617979757488,99.30851531028748 L 289.82920541241765,89.30069099878892 L 288.2102088369429,82.0056241741404 L 285.43852857127786,75.30671955784783 L 284.34347908757627,71.91990335052833 L 277.8124783448875,66.76378414500505 L 274.1658064182848,64.94337172061205 L 263.58731416240335,63.8322695675306 L 261.4653284084052,64.21041405946016 L 259.14948211982846,64.93755496107042 L 257.1951594091952,65.26328839315102 L 255.2460761256516,64.97245566640049 L 252.9459482729435,63.85554064670578 L 249.92801294475794,61.53385411761701 L 248.9220344349742,61.10899695754051 L 245.89885963127017,60.299947642721236 L 244.36369455233216,60.119498839601874 L 241.28812496736646,60.87036673910916 L 237.58905836194754,60.45128810219467 L 235.7971592657268,60.85872606234625 L 233.114550024271,62.70352637581527 L 227.0315240174532,64.97245566640049 L 226.02030613087118,64.84448528010398 L 223.61014934070408,64.04752367734909 L 221.05852694809437,64.4780111014843 L 218.9208227097988,66.07173675717786 L 215.42085596360266,70.26363422349095 L 213.1783623676747,71.55962692666799 L 210.51671098917723,71.54219368426129 L 205.25104248709977,70.10670334473252 L 204.1664719581604,69.94395632622764 L 204.09311936795712,70.21132431970909 L 204.36557186953723,70.69372237473726 L 204.31841666810215,71.15283998986706 L 203.27052243612707,71.91990335052833 L 202.68370166048408,72.03030674252659 L 200.0639660526067,71.37367029162124 L 199.09990336745977,71.97801065770909 L 198.33494059182703,73.08195363823324 L 196.04005221650004,74.75495327590033 L 194.1171663235873,77.31012227386236 L 192.1680830400437,78.22161857038736 L 191.30880981311202,79.89334255037829 L 190.83201792277396,80.32281596818939 L 187.99746402166784,81.19908909872174 L 186.98100660555065,82.41755819134414 L 181.62626707926393,86.64568499149755 L 178.35683711245656,88.50082032801583 L 176.4653880354017,90.85958860581741 L 175.73710155673325,91.08557019662112 L 173.4212553203106,90.34385912166908 L 172.52006626874208,90.27431958308443 L 169.4235388226807,91.35210280772299 L 166.651858555153,91.87934319069609 L 164.13691240735352,91.69973841216415 L 161.7267557196319,90.98127194261178 L 157.91766022704542,89.16158980457112 L 156.81737126596272,88.40227899840102 L 156.5030029900372,88.69210229348391 L 155.94761903211474,89.71797749586403 L 154.7373012341559,89.89183923695236 L 153.5374623425305,89.25432425038889 L 151.56218171864748,87.23126689018682 L 150.9596425089985,85.81650739628822 L 149.1520249787718,84.78424245724455 L 148.2979911789298,83.61260513216257 L 147.4858731534332,81.43119535548612 L 146.93572867289186,80.76967138936743 L 145.64681880548596,80.24736993620172 L 145.30625314079225,79.69600781612098 L 144.29503525421023,76.21848680730909 L 143.75536973029375,74.89435114897788 L 143.7239328622818,74.41806320333853 L 144.73515079915524,72.67525886837393 L 143.59294606372714,71.59449321869761 L 143.53007242828608,71.14702856214717 L 143.80252498202026,70.04857983859256 L 143.56150929816067,68.66509224660695 L 143.26809888333082,68.11278006620705 L 141.00464737601578,65.43196555087343 L 140.32875557430089,64.28022304782644 L 140.02486625686288,63.05846104025841 L 140.06154255196452,62.278743780218065 L 140.55405287630856,61.98778111394495 L 140.91033687256277,61.42909731855616 L 141.29281826131046,60.27084333822131 L 140.74791325815022,59.32197281438857 L 138.96125358901918,57.58105521649122 L 138.42158811539412,56.6376254609786 L 139.07128247618675,55.624162858817726 L 139.33325607143342,54.913481979165226 L 139.3542139325291,53.655040924903005 L 138.95601411163807,51.38225110527128 L 138.50541961193085,50.67111590085551 L 138.00766986049712,50.3096900396049 L 136.56681528314948,49.7675143298693 L 136.027149759233,49.31275209505111 L 136.24196810275316,48.245687186252326 L 136.200052279979,47.592535318341106 L 134.08330600336194,44.32580732135102 L 132.47478833422065,42.977811011485755 L 131.90368599258363,42.224913927260786 L 131.0706100538373,40.269314331468195 L 130.12226580269635,38.78617388615385 L 129.2525136191398,38.42993680620566 L 126.95238576456904,38.932167074177414 L 125.34386814571917,38.63433746714145 L 124.2278607506305,37.70572328334674 L 122.51455367356539,35.14113200688735 L 119.86862077750266,32.569692665711045 L 118.64782397262752,31.920829268638045 L 115.53033866547048,31.236822525970638 L 115.07450468838215,30.897715795319527 L 114.54007863998413,29.775030222721398 L 112.49668490514159,27.6636252803728 L 111.52738274075091,25.63345948467031 L 109.89790716022253,21.14378856960684 L 107.96978183835745,18.156763775274158 L 105.4129199180752,15.566897062584758 L 102.4369002636522,13.714683833532035 L 99.23558340780437,12.940817647147924 L 94.31571999937296,12.905639723408967 L 92.7176813352853,12.618346124421805 L 91.36589778400958,12.131676794495434 L 90.76335857436061,11.533551113214344 L 90.70048493891954,10.647988920565695 L 91.20871359668672,7.004764394834638 L 90.99913478083909,5.965980590321124 L 90.43851139396429,4.96225075237453 L 89.50064599700272,4.052302003372461 L 86.62941585108638,2.079326151870191 L 85.48197168856859,1.63297383999452 L 84.40788006596267,1.6505936202593148 L 81.39518416672945,2.466922741383314 L 77.07262048870325,2.578499224036932 L 74.57863220199943,3.7176433596760035 L 73.42070908471942,3.9290087409317493 L 71.099623369053,3.8526831651106477 L 66.84517280384898,2.690073828212917 L 63.989661041647196,2.831007320433855 L 59.572786862030625,1.5507476744242013 L 58.000945538282394,1.5037608137354255 L 51.30490141734481,3.0247859158553183 L 49.266747107729316,4.304752277210355 L 47.113324485719204,5.2146654152311385 L 44.28401011414826,4.844845251645893 L 42.97414228506386,4.1462381589226425 L 40.611140847206116,2.484540179371834 L 37.34171083010733,0.9516394813545048 L 36.115674547851086,0.0 L 35.340232817456126,2.372962066438049 L 33.47498113103211,4.251914709340781 L 32.772891990840435,5.819246256258339 L 32.25942380540073,7.87322355620563 L 31.9817318264395,9.973472729790956 L 31.966013442724943,11.680155629757792 L 33.07154183089733,15.525872758124024 L 33.15537337772548,16.83266243338585 L 32.91959717310965,17.65293401433155 L 31.782631915062666,19.527451457921416 L 31.63068730570376,20.973974884022027 L 31.782631915062666,22.613369644619524 L 32.65762357600033,26.33560559200123 L 34.1561123598367,27.453032196499407 L 34.85820150002837,28.35970389423892 L 36.35669023171067,31.178357193246484 L 39.28555463626981,34.895719919819385 L 40.44871723279357,36.911332834511995 L 41.3865825291723,39.095675681717694 L 43.576681496575475,42.2074036472477 L 43.75482349470258,43.08285954827443 L 41.8528954628855,46.472696216311306 L 41.679992942139506,47.534215026535094 L 41.79526130668819,51.592079705093056 L 41.35514571145177,56.474549911916256 L 39.9771647695452,60.03800421580672 L 39.41130190528929,60.69575383141637 L 39.117891542613506,60.7248563375324 L 37.92853160761297,60.22427615337074 L 37.959968423470855,60.74231772404164 L 38.49963394924998,61.82483651675284 L 37.43078185431659,65.55992469796911 L 36.93303205259144,66.56024825572968 L 36.409084962680936,66.9963889978826 L 35.114935617893934,67.64763970812783 L 34.701017362996936,68.22324612131342 L 34.69577788375318,68.80461650388315 L 35.1358934789896,70.01951792510226 L 35.10445666126907,70.64141582325101 L 34.711496317759156,70.97849525138736 L 33.5954889729619,71.26325604878366 L 33.43830478563905,71.8734171539545 L 33.710757337510586,72.27434994420037 L 34.82152520492673,72.95994775136933 L 35.1358934789896,73.51186127448454 L 34.72721470147371,74.99889761675149 L 32.45328423753381,77.0372299705632 L 32.547594740986824,78.60475851595402 L 32.87768139876425,79.49286308605224 L 34.38140965998173,80.44468855997548 L 33.72123624198139,81.03080700244755 L 33.2601627856493,81.01339830923826 L 32.353734308853745,80.53754240833223 L 31.85074502788484,80.76967138936743 L 31.814068783074617,81.34415642917156 L 32.12319757975638,82.51038494240493 L 31.35823475383222,82.40595474373549 L 31.19057166017592,83.50819200044498 L 30.907640254125,84.02444132883102 L 28.586554538458586,85.24820114299655 L 28.261707358062267,85.86869640368968 L 27.92638117261231,87.61389698134735 L 26.978036919608712,89.1731816935353 L 26.972797391936183,89.59627154609188 L 27.38671564683318,90.2511394857429 L 27.276686761528254,90.7784652095288 L 25.710084915161133,91.92569204326719 L 25.516224483028054,93.75621919613332 L 23.598578015342355,94.71762825222686 L 23.121786126866937,95.47623485187069 L 23.567141199484468,96.41424241336063 L 23.645733267068863,97.23634059121832 L 23.095588786527514,98.44615014456213 L 21.722847374156117,100.62789703998715 L 20.13528761640191,104.08139044698328 L 19.595622092485428,104.80426353542134 L 13.046283150091767,110.23783453088254 L 9.174313923344016,112.6064538154751 L 7.125680759549141,112.95878860773519 L 6.565057374536991,113.35153411980718 L 5.208034293726087,114.89919600496069 L 2.583059260621667,116.98914447147399 L 1.6294755302369595,118.50713664386421 L 0.40867872536182404,119.58049689279869 L 0.15718413703143597,120.4921455187723 L 0.0,272.4906176687218 L 50.37227554805577,272.4906176687218 L 51.021969959139824,274.49645572528243 L 50.529459685087204,471.3387807076797 L 75.90945789217949,472.3984038447961 L 152.23807352036238,487.3086115177721 L 166.10695360414684,488.5151653890498 L 168.02460001967847,488.43252965202555 L 168.97294427081943,487.85405920119956 L 169.0358179565519,486.7796623115428 L 169.1982415728271,486.39946163538843 L 169.9422464352101,486.24517292669043 L 170.10467010177672,486.0688398354687 L 170.10467010177672,484.43209024798125 L 170.82771710306406,483.34076487785205 L 171.40929835103452,482.02328828861937 L 173.24835274741054,479.6634932006709 L 173.24835274741054,478.16901486739516 L 174.41675482317805,477.79397900169715 L 174.95118086971343,478.3234370658174 L 175.70566473901272,477.6726406184025 L 176.71164319850504,476.3488462292589 L 178.608331752941,475.708944669459 L 179.10084202699363,474.4896997134201 L 179.63002859428525,474.0703747891821 L 179.91296005249023,473.5627455902286 L 179.48332341387868,472.707437756937 L 181.13899628445506,470.9027546774596 L 181.61054869554937,469.7822388666682 L 180.89274112135172,468.66158701851964 L 181.343335673213,467.9328141254373 L 182.1449747439474,465.64122060127556 L 182.5431745648384,463.4042950710282 L 183.20334793254733,462.8518838309683 L 184.09929750487208,462.87950516771525 L 185.90167555585504,463.5037255869247 L 186.46229899302125,463.9180076592602 L 187.66213788464665,465.34851811639965 L 188.71527154557407,465.5362905669026 L 189.46975541487336,466.0112273739651 L 194.2376741655171,471.21183853270486 L 195.03407375700772,471.46020201873034 L 195.62613396160305,472.06176594411954 L 196.53780196793377,473.4358339300379 L 199.46142689324915,475.802726123482 L 199.6186110302806,477.64506345568225 L 201.38431278802454,478.90249734418467 L 201.95017565228045,478.89146794658154 L 202.41648863628507,478.57161016762257 L 202.84612527489662,479.2113147377968 L 203.45914339087903,479.6634932006709 L 204.90523739531636,480.2920950590633 L 206.76524965278804,482.0288010840304 L 207.17916785739362,482.2327739777975 L 209.02870121225715,482.5745562892407 L 210.72628980502486,483.8203023010865 L 213.15740445628762,486.80721252132207 L 214.9440640732646,487.70530390786007 L 215.95528201200068,487.8485497799702 L 217.01889467798173,487.70530390786007 L 218.90510427579284,486.9780217502266 L 219.3818961661309,487.34166984353215 L 220.8227507416159,489.89232080662623 L 221.6505871526897,490.71851733652875 L 222.39459206536412,490.9994075866416 L 224.12885700538754,490.9167937110178 L 225.2501038275659,490.69648634130135 L 225.8736009001732,490.1236631204374 L 226.74335313402116,488.43252965202555 L 227.69169738516212,487.60613236762583 L 227.78076835907996,486.7796623115428 L 229.50979387015104,485.15956981945783 L 232.49105295352638,485.56186380656436 L 233.00452113896608,485.68861039727926 L 234.0419364143163,487.1598475840874 L 236.78741929121315,490.36050770338625 L 237.54190311022103,491.0489756069146 L 239.2866470552981,492.16694033378735 L 240.92136201448739,494.13820088794455 L 242.63466904126108,494.7878558845259 L 242.94903736561537,495.54206041945145 L 244.3008209168911,495.9384065712802 L 245.49018085375428,496.9402076546103 L 247.34495368413627,497.24292893894017 L 251.08069658651948,498.4702270384878 L 251.79326463118196,499.0315392757766 L 252.20718283578753,499.64784389315173 L 252.76256679557264,499.7413865989074 L 252.44819852150977,498.9820130513981 L 253.72662948071957,497.9419029522687 L 254.49683178588748,498.28861895995215 L 254.93170785158873,497.6612187968567 L 255.57092330604792,497.7657883535139 L 256.980341065675,498.65183169720694 L 257.4623724333942,497.55664803506806 L 259.02897427789867,497.60618169466034 L 260.700365582481,498.31063227774575 L 262.3769963141531,500.0 L 264.4151506219059,499.97248828969896 L 267.74221479706466,499.3451992785558 z" /></g></g></svg>