<svg xmlns="http://www.w3.org/2000/svg" xmlns:xlink="http://www.w3.org/1999/xlink" width="500.0" height="435.6686155926436" viewBox="0.0 0.0 500.0 435.6686155926436" preserveAspectRatio="xMinYMin meet"><g transform="matrix(1,0,0,-1,0,435.6686155926436)"><g><path fill-rule="evenodd" fill="#D2EBD9" stroke="#A6A6A6" stroke-width="0.25" opacity="1" d="M 23.058324651792645,23.66302691679448 L 22.852784803137183,24.78882963489741 L 21.305827025324106,25.536649827845395 L 20.65675388649106,26.85221131425351 L 21.370734376832843,26.85221131425351 L 20.224038392305374,28.831841502338648 L 19.76968719996512,30.004874650388956 L 19.585783153772354,31.215282149612904 L 19.861639197915792,33.49127532355487 L 19.791322948411107,34.30834963917732 L 19.196339208632708,34.95777593459934 L 19.196339208632708,35.5876939734444 L 19.9860448949039,35.849282156676054 L 20.65675388649106,36.6843041991815 L 19.910319697111845,38.17602457199246 L 20.59725548699498,38.642852101475 L 19.937364395707846,40.19862821139395 L 20.2348562926054,42.14587748423219 L 20.65675388649106,43.659392326138914 L 21.543820574879646,44.6862158710137 L 22.641836006194353,45.36144824139774 L 23.647899441421032,46.36249786335975 L 24.232065280899405,48.33039123285562 L 23.26927339658141,49.63632071297616 L 22.447114059701562,51.17031980026513 L 23.031279899179935,51.872970435768366 L 23.247637648135424,53.71010534837842 L 23.875075036659837,54.062743752263486 L 23.81016773916781,54.55342551972717 L 23.512675842270255,54.641053933650255 L 23.853439236059785,55.60071652010083 L 23.891301887109876,58.347388309426606 L 24.232065280899405,59.90902964118868 L 25.221901865676045,62.265863831155 L 25.908837655559182,63.352605655789375 L 26.73099699243903,63.965269605629146 L 26.130604354664683,65.4171719737351 L 25.389579113572836,68.63045958802104 L 24.956863671541214,69.69042891077697 L 24.691825475543737,71.65501215215772 L 23.561356343328953,72.32183720357716 L 22.63642705604434,74.21511369477957 L 21.651999421417713,74.81411386281252 L 19.169294510036707,74.73703130614012 L 18.152413174510002,75.06078842096031 L 16.69740749709308,77.97584479115903 L 16.908356241881847,78.27562981564552 L 17.05439774133265,79.29639871232212 L 16.854266844689846,79.93810244463384 L 15.978018058463931,79.08472649566829 L 14.90704732388258,80.30420884676278 L 14.187657833099365,79.43090500961989 L 13.69003509171307,79.52572371438146 L 13.219457048922777,80.01308518555015 L 12.564974961802363,80.30420884676278 L 11.81313182041049,80.01308518555015 L 11.661681422963738,80.15423325821757 L 12.045716365799308,80.94167107064277 L 12.045716365799308,81.4711328977719 L 10.947700934484601,81.58806572016329 L 7.696926083415747,82.81276684720069 L 7.009990345686674,83.50804342050105 L 6.204057807102799,83.19239421002567 L 2.439433364197612,84.21227880008519 L 1.2602837309241295,84.96964337211102 L 1.6767723746597767,86.48924459144473 L 1.5090951267629862,87.61387639120221 L 0.9357471354305744,88.45591161120683 L 0.0,89.14780228585005 L 2.428615463897586,94.12296494282782 L 3.39140734821558,95.6285255746916 L 5.490077318623662,98.20486570522189 L 11.861812267452478,108.03898273129016 L 16.47564085200429,111.89128591679037 L 21.111105078831315,114.60114354919642 L 29.857366198673844,117.1013656836003 L 36.80785809084773,121.85702579468489 L 38.89030120894313,124.4312374535948 L 39.60969064757228,128.12386031541973 L 39.06338740698993,141.22232063207775 L 38.53871991485357,142.84321848116815 L 38.49003941565752,143.77392531652004 L 39.37169715203345,146.16566505655646 L 38.90652805939317,149.2821465730667 L 39.025524808093905,150.88180693611503 L 38.93898170813918,151.5492824697867 L 38.33858901821077,152.83737372141331 L 36.753768691793084,154.8816930288449 L 36.30482639931142,156.35771361365914 L 36.375142646953464,158.05720644816756 L 37.9815987739712,161.56442232895643 L 38.10059552080929,163.67889642622322 L 37.54888333007693,164.72981459647417 L 36.650998743250966,165.42908654548228 L 35.71525155566633,166.4601868726313 L 34.17370278015733,170.3186136689037 L 33.232546696439385,171.5860565872863 L 32.30761740915477,174.0770075758919 L 30.21435639075935,182.3596974676475 L 29.165021458640695,185.13450519088656 L 26.698543395847082,190.28151609841734 L 22.25780101120472,203.9778735600412 L 21.008335128426552,210.13714925013483 L 20.889338433742523,215.56575675867498 L 19.612827852368355,217.44110672548413 L 19.061115661635995,219.26247375831008 L 18.579719718545675,223.97562723979354 L 16.810995295643806,230.42524846736342 L 16.746087996289134,233.02937268652022 L 18.552675019949675,232.5561772212386 L 23.253046598285437,229.69990963395685 L 24.15093113295734,229.37860235013068 L 24.962272621691227,229.44745153095573 L 27.54233848117292,230.55839562043548 L 30.81474908068776,231.02674441598356 L 31.723451517522335,231.69722891692072 L 32.529384054243565,232.0187371391803 L 33.8329393863678,231.38952586147934 L 34.27647273056209,231.25175651535392 L 34.68214342184365,231.32064045965672 L 38.6793524120003,233.63129113055766 L 39.46905815042555,233.7829348128289 L 40.28580853715539,233.44289392605424 L 41.82735731266439,232.44592668768018 L 42.68737930059433,232.2392159132287 L 46.04092404991388,232.28055716492236 L 47.58788182772696,232.7123710345477 L 50.82242983020842,234.46311021968722 L 52.54247370176017,234.77566499821842 L 54.192201375961304,234.20113600511104 L 55.65802495367825,232.41377100721002 L 56.56131849065423,229.86057379748672 L 57.11843963339925,229.00683861225843 L 58.12991201877594,228.80949764698744 L 59.898636389523745,228.8875149572268 L 61.55918196588755,228.38731515128165 L 63.44149418734014,228.36896045226604 L 65.3346242569387,229.3327035177499 L 71.33314221724868,234.72510285302997 L 73.97270647622645,236.26066027302295 L 77.31543332524598,236.91829399764538 L 78.56489915400743,237.88426122721285 L 79.14365614950657,237.74625048413873 L 79.81977398693562,236.01235334947705 L 80.59325287491083,235.2445466099307 L 81.55063581094146,235.1755897551775 L 84.9420432113111,235.73187859077007 L 85.866972444579,236.2330697644502 L 86.54849928431213,237.7692519025877 L 86.65126923471689,240.2036104016006 L 86.18610008992255,241.8980208588764 L 85.48293750174344,243.42273169849068 L 84.86090900935233,245.34909464977682 L 84.61750656366348,246.70921265427023 L 84.70945861376822,247.00896675419062 L 85.03940415754914,247.04124951083213 L 85.50457325018942,247.63161079213023 L 86.4835919868201,248.24974619224668 L 86.45113828592002,249.86476606037468 L 86.66208708286285,250.42788157705218 L 88.46326515637338,251.5174301667139 L 90.88647172041237,251.78986752405763 L 93.29345138184726,251.44355240091681 L 97.42047502100468,249.83245875593275 L 99.7679563332349,250.22016510739923 L 102.05053034983575,251.70213130302727 L 104.19247186928988,254.1087055001408 L 105.0579027030617,255.97591844387352 L 106.12887348793447,260.18985542748123 L 106.79417347721756,261.3656192570925 L 107.72992066293955,261.5230333004147 L 111.05101171135902,260.32870568707585 L 115.3511215467006,260.5693917851895 L 116.62222317792475,261.39802740328014 L 118.72089314647019,264.5059092976153 L 120.0406752768904,265.1407760716975 L 120.70597526617348,264.9832077687606 L 121.05214761011302,264.64028800465167 L 124.99256270006299,259.07924122270197 L 124.54902935773134,258.741495532915 L 123.32660817354918,258.84327859897166 L 122.25563744083047,258.22799621801823 L 122.13123174197972,257.3399494877085 L 123.39151552505791,256.66018299758434 L 123.68359847180545,255.89270569663495 L 123.30497242510319,255.22707131318748 L 121.81210409849882,254.70943853165954 L 121.4226602036506,254.080981772393 L 121.81751304864883,252.48259513638914 L 123.00748058222234,251.34197281580418 L 124.41921476088464,250.64484235364944 L 129.05467898771167,249.87399678304791 L 130.20137492008507,249.91091981437057 L 130.74767821282148,250.23401239607483 L 131.57524649985135,251.3927622148767 L 132.1431855428964,251.65133756678551 L 134.10663191229105,251.38352779205889 L 134.7286603525281,251.4758737757802 L 135.93485468439758,252.38560547027737 L 136.35134332813323,253.78989455197006 L 136.40002377703786,257.8810775531456 L 137.30331731401384,259.5234468327835 L 137.16809376701713,260.0695227794349 L 136.62719942443073,260.3657332630828 L 136.4162506274879,260.661967583932 L 135.65899858810008,262.4583966769278 L 134.69079775363207,263.6765762725845 L 133.64146281965077,263.5839248942211 L 132.42445058748126,267.1202221522108 L 131.71047009900212,267.53757107350975 L 130.9261733610183,267.3288906691596 L 127.78898630850017,265.67377776280046 L 125.51723019219935,265.52082161046565 L 124.38135210983455,265.9611670365557 L 123.66737162135541,267.1202221522108 L 123.73768792115152,269.3791068503633 L 124.72211550362408,271.31904761120677 L 127.12368626706302,274.22622684109956 L 128.05943345278502,276.17801591940224 L 128.44346839748323,282.1466752272099 L 129.01681638881564,283.9722330411896 L 129.8173399772495,285.0577512299642 L 133.0194343291223,286.9640058847144 L 134.02008881419897,287.99444676563144 L 134.75029610097408,289.3983621550724 L 135.02074329927564,291.1948488615453 L 134.72325145453215,292.94084780849516 L 133.42510507255793,296.1502316053957 L 133.07352377846837,297.9406683659181 L 133.13302217796445,299.08176710642874 L 133.63605386950076,300.8127978667617 L 133.92272781394422,302.70851022098213 L 133.74423271790147,307.33722135890275 L 133.90650101564825,308.551584164612 L 134.46362215653062,309.3629461955279 L 135.604909138754,310.39030343759805 L 136.74078722298145,310.8360501304269 L 136.97337176837027,311.6009837668389 L 136.94091811962426,312.3519941223785 L 136.4162506274879,314.9770438782871 L 136.96255386807024,316.68738935608417 L 138.001071004197,317.7732147593051 L 139.21808318421245,318.7182857012376 L 140.31068966723979,320.01168809179217 L 140.92730920761824,322.4492283454165 L 141.54392874985933,322.9811853002757 L 143.5127840191126,323.82400085404515 L 144.47016695328057,323.7957469644025 L 146.37411497719586,323.3531302716583 L 147.34772470965981,323.3342966819182 L 153.70323296636343,324.638749986887 L 155.59095408581197,325.72693465743214 L 156.3752508237958,326.5986577812582 L 158.16561099514365,329.35655431170017 L 160.09119476750493,333.57048308104277 L 160.3400061633438,334.34962402656674 L 160.43736711144447,335.4501482890919 L 160.38868666253984,337.71836708299816 L 160.52931921184063,338.7584379129112 L 162.17363788560033,341.3646418619901 L 164.53193709999323,341.78104977775365 L 170.33032416179776,340.2670663325116 L 170.77385750599205,340.27652670349926 L 171.2877070978284,340.44208861887455 L 172.3640867806971,341.79051425121725 L 173.11052091792226,341.8756946120411 L 178.63305188529193,339.3920805044472 L 179.78515676781535,339.6001662341878 L 180.59108930639923,340.9340879600495 L 181.1752551458776,343.5939239738509 L 181.51060964167118,346.13725048396736 L 181.88923563435674,347.11337292194366 L 182.71680397354066,348.2604132350534 L 184.22049015015364,349.7540016695857 L 185.0264226887375,350.2330277292058 L 188.40160318650305,351.13908056821674 L 189.6618869677186,352.1023048181087 L 190.24064391106367,353.58322405442595 L 189.76195241697133,355.1312373364344 L 188.56116703525186,356.0575102660805 L 179.87710881605744,357.5875633973628 L 176.71828601509333,356.7321750940755 L 175.83121932670474,356.77969146426767 L 172.71025917679071,357.9535407554358 L 171.8880997877568,358.5239683734253 L 171.65010629221797,359.4843897521496 L 172.1585469339043,361.1966594532132 L 173.7704120092094,364.39505017362535 L 174.46275674924254,367.8297821069136 L 174.91169904358685,368.84986853413284 L 176.76696651428938,370.73825924191624 L 176.93464376218617,371.81164515484124 L 175.95021607540548,373.7445377660915 L 176.182800674811,375.969828478992 L 177.20509090833366,377.65641672350466 L 178.48701038584113,379.1429827818647 L 179.50389172136784,380.7592970300466 L 180.00692341290414,382.80223666876554 L 180.13673811405897,385.2437875876203 L 179.9366071652621,387.73011010792106 L 179.44980232417583,389.9304156275466 L 180.55322670564055,391.8777671055868 L 181.83514623716474,392.58310034219176 L 183.236062515527,392.4343451485038 L 186.02166822366416,391.3116804147139 L 187.22245360538363,391.4028239855543 L 191.39815774187446,393.56215719133615 L 192.4420837778598,394.7911513838917 L 195.4440471790731,400.3123558033258 L 198.46223748475313,404.0243099145591 L 199.67924966476858,404.7970088813454 L 206.46747331134975,405.67341524362564 L 208.5958924293518,405.31704863812774 L 209.7344750147313,404.6910839639604 L 212.9960677139461,401.9068517051637 L 214.4348465912044,401.1035036444664 L 215.45172787457705,401.5364235667512 L 217.89657018892467,403.9304418582469 L 218.96754092164338,405.20147774741054 L 220.27380070276558,403.6753253657371 L 221.9100059773773,402.6983475750312 L 223.6354589033872,402.1762776002288 L 230.21814270317554,401.5700972797349 L 231.6893751770258,401.7577137192711 L 232.6007821150124,405.17740096896887 L 232.968590259552,409.6150477733463 L 234.42630043625832,413.74921275675297 L 239.62970375828445,417.1971550351009 L 241.33352083154023,420.25185857433826 L 241.55528753064573,422.4961954867467 L 243.19419730454683,424.19488478358835 L 246.75869079865515,426.94545312877744 L 248.3705558758229,430.3575158379972 L 249.1873063147068,431.2134602693841 L 249.84719735197723,431.5602603815496 L 252.01077461987734,432.02594650443643 L 254.25007708743215,433.11763355508447 L 256.5759226512164,434.8019048217684 L 258.8125206157565,435.6686155926436 L 260.7976027354598,434.31644349358976 L 261.8550511188805,432.7051796298474 L 265.48445201665163,428.70439554098994 L 267.10172604210675,426.4150309981778 L 268.1726967766881,425.32778798788786 L 269.2761211581528,424.95979760214686 L 270.4552707914263,425.6691809296608 L 272.1861325632781,428.3748315330595 L 273.40314474515617,429.26181493792683 L 281.15145582705736,430.11992408242077 L 284.12907903268933,429.62054766342044 L 285.00532781891525,429.2521199407056 L 285.48942821100354,428.7383230496198 L 286.3467457499355,427.11985541787 L 288.16955951973796,424.48049787431955 L 288.62391081638634,423.52692895941436 L 289.11612460576,421.3279022881761 L 289.4027986023575,419.10604245308787 L 289.9734421465546,417.20681776385754 L 291.3094510734081,415.9871037667617 L 295.34181816130877,414.84505128115416 L 296.48851409368217,415.13475565519184 L 296.60210194438696,417.3131093941629 L 297.9976092725992,418.7604350037873 L 301.26461092196405,420.2276814132929 L 304.3368906248361,422.23009137250483 L 306.9494101870805,423.22687294427305 L 309.9784183409065,423.1373448362574 L 312.9506325945258,422.089789875783 L 317.0641338303685,418.9223589031026 L 325.0910055115819,416.6633300157264 L 326.04297949559987,416.0740400906652 L 326.95709088258445,415.16372731141746 L 327.9252916648984,413.87471054308116 L 328.42291445843875,413.0107950968668 L 328.59870510548353,412.26287844218314 L 328.39586975984275,411.66706844605505 L 327.6115729715675,411.6164169097319 L 326.2539282422513,410.85914244130254 L 325.8536664992571,410.53120000008494 L 325.44258680567145,409.7452237345278 L 324.80433151498437,405.6830471791327 L 323.56027458421886,402.5588007569313 L 323.3222810346633,401.0818590000272 L 323.6954981293529,399.1343703502789 L 324.35809366963804,397.77895850874484 L 326.95709088258445,395.57389189396054 L 329.4668404944241,391.8153972607106 L 330.5053575783968,391.2397266095504 L 331.93061405420303,391.6474838797003 L 335.97379909455776,396.52733461372554 L 341.1447487678379,399.55743945296854 L 342.54025609605014,399.8507321961224 L 346.1534300893545,398.9252578057349 L 347.5056659206748,399.63677048590034 L 349.5502463877201,403.46354426816106 L 350.8429838195443,405.13887847587466 L 352.8497016876936,406.3188169505447 L 354.937553755939,406.78367373812944 L 357.05785947293043,406.6536041488871 L 363.23487258143723,404.3348139328882 L 364.60063070990145,404.7970088813454 L 366.95081652514637,407.07996066473424 L 368.15430630370975,407.6967006707564 L 369.0711221899837,407.4316823016852 L 370.83714216575027,405.7986334292218 L 371.8459100499749,405.14850908424705 L 382.2094451431185,401.69036312028766 L 382.65838738530874,401.15160336717963 L 382.6800231859088,400.3508271370083 L 382.2337853927165,398.8171009523794 L 382.8314735312015,398.0096311653033 L 387.4831646606326,395.7371842423454 L 388.03487690351903,395.2953513711691 L 388.41891184821725,394.69512119330466 L 388.635269543156,393.52375777903944 L 388.22418990172446,391.93054241966456 L 388.22418990172446,391.05744985304773 L 388.8840809389949,389.77217917796224 L 389.9442338254303,389.0434217983857 L 391.1233834065497,388.77017554920167 L 393.25991597399116,388.94274981319904 L 393.97930541448295,388.55446924921125 L 396.51609972305596,383.19947537686676 L 398.00896805152297,382.9362400416285 L 399.75605667568743,383.9366357466206 L 402.0359261892736,384.7409811737016 L 404.050757560879,383.7642991198227 L 405.44626488909125,381.0893430262804 L 405.80866408348083,377.65641672350466 L 404.74310230091214,374.38906348869205 L 405.7924372330308,373.75885929260403 L 405.46790063753724,372.5942235868424 L 404.10484701022506,371.5206069909036 L 403.7965372130275,369.9846930000931 L 404.2049124594778,368.3207226805389 L 405.74916568398476,365.9428987223655 L 405.7329388335347,364.1141265928745 L 405.0865701958537,363.0287272743881 L 401.9304518420249,360.7399756042287 L 400.12927377037704,358.15793375950307 L 399.3936574794352,356.4280853513628 L 399.2422070838511,354.70380605291575 L 399.75605667568743,353.5499917101115 L 400.6593502126634,352.7619990212843 L 402.51461768336594,351.76063946262 L 403.19614452309906,350.6646792506799 L 404.069688860327,347.2697662767023 L 404.8134185504168,346.1325126104057 L 407.2474429104477,344.2284057503566 L 407.9046295005828,343.4234850136563 L 407.9776502493769,343.05422783084214 L 407.7504746541381,342.22590179089457 L 407.85324455052614,341.7621211782098 L 408.70244863815606,341.3125941744074 L 409.17302668094635,340.52250704262406 L 409.24875188060105,340.058942633681 L 408.9945315849036,339.0988889699802 L 408.57804294116795,338.47948076575994 L 408.45363729447126,337.82708800025284 L 408.599678741768,337.1417281543836 L 409.70580762438476,334.680218805559 L 410.34406291507185,332.43276318814605 L 410.3034958150238,330.6584375957027 L 408.9945315849036,330.2621631771326 L 406.52805352397263,330.8990535819903 L 405.46790063753724,330.80469241645187 L 405.1217282935977,329.7055645240471 L 405.66262258403003,328.196570251137 L 406.41987462341785,327.2066308129579 L 406.6632770691067,326.1180064016953 L 405.68425838649273,324.3608671622351 L 404.7485111989081,323.6686069779098 L 401.5626436974853,323.0141409235075 L 400.3185867667198,321.99736104812473 L 400.4538103658706,321.0514442427084 L 400.97847785800695,319.67771137319505 L 400.9081615563482,317.39713495224714 L 400.102229019627,315.9448886215687 L 398.9068525880575,314.69049811922014 L 397.8737444523722,313.0749866971746 L 397.5870704576373,310.53575163614005 L 398.00355910137296,309.0862188106403 L 398.8121960889548,308.4812433505431 L 400.9703644067049,307.72633639443666 L 408.9945315849036,301.80031861457974 L 409.7734193727374,300.3682661950588 L 409.9573234189302,298.6935666240752 L 411.10401940345764,298.90403167065233 L 415.51230803504586,298.41764193214476 L 416.7401381675154,295.8931908449158 L 418.79824103601277,294.19250134471804 L 417.3080772086978,290.69547753967345 L 414.695557648316,286.45588556770235 L 413.39200236834586,282.52382084261626 L 414.90650644525886,281.3645701305941 L 418.79553653486073,280.2522186283022 L 419.38781582564116,278.99599098972976 L 420.9482959024608,278.5401328271255 L 421.80290894024074,276.7405088720843 L 423.0253300704062,272.1315267095342 L 424.9130512420088,269.4904633797705 L 425.2916772868484,268.0430901590735 L 425.6648943312466,262.7825877228752 L 426.22201552428305,260.25002326536924 L 427.0009033102542,258.8987978240475 L 436.5098253674805,251.2680983748287 L 437.79174489714205,250.68638950027525 L 440.52596565522254,249.98015161510557 L 444.91261853836477,247.51168596185744 L 446.52989251352847,247.16115901060402 L 447.9930116403848,247.1196514191106 L 448.56635963357985,246.82449978590012 L 449.1613434255123,246.12360908463597 L 450.37294665537775,242.75472982041538 L 451.0139063950628,242.51059355866164 L 452.6014312226325,243.51487938407809 L 453.06119136326015,243.19237264804542 L 453.10987186431885,242.4829565687105 L 454.3106572460383,237.74625048413873 L 454.04561905004084,237.05627383012325 L 453.8617150038481,235.06066433526576 L 453.26132231391966,233.1074787788093 L 452.4067092742771,227.99270966742188 L 451.48718893900514,225.75893214344978 L 449.4588352702558,222.40391163621098 L 448.98014377616346,220.21012056805193 L 451.21133284270763,220.16891349572688 L 455.7061645742506,218.63999668043107 L 466.71877285838127,221.5198275130242 L 467.8925134893507,221.28166459780186 L 470.9702021423727,219.04276404622942 L 477.54206804186106,217.19863018393517 L 479.3946311157197,215.83556589577347 L 481.0470632407814,213.55880796257406 L 481.80161077715456,213.08808608353138 L 484.40601693838835,213.21147345472127 L 485.4823966231197,213.0469578690827 L 486.49927790649235,212.4163823882118 L 487.8731494862586,210.46136380266398 L 487.9975551851094,209.79469974059612 L 487.8731494862586,209.13272018171847 L 487.49452349357307,208.49367918726057 L 483.59737995266914,206.46316973865032 L 483.2295718062669,206.10737423505634 L 483.33504620566964,203.854791960679 L 483.87864494509995,201.43045650422573 L 484.8170966338366,199.59957953356206 L 486.04763121530414,198.2611491465941 L 487.49452349357307,197.31452256068587 L 490.1232698522508,196.06334180012345 L 491.3510999325663,195.12636861298233 L 492.53024956583977,192.94858804624528 L 492.92239796184003,192.78950987104326 L 493.3524089027196,192.9849496865645 L 493.7743064984679,193.50768803991377 L 494.6938267815858,193.67134286928922 L 495.6133471708745,193.53041744045913 L 496.3760081063956,193.0894915862009 L 495.9243613630533,191.44897739216685 L 496.19210406020284,190.48136683087796 L 496.7924966979772,190.27697419840842 L 498.37731707654893,190.85384453553706 L 499.042617065832,190.84475926030427 L 500.0,188.8556192163378 L 499.2102943658829,182.44128006976098 L 499.89182115346193,179.68205807730556 L 498.8695309199393,178.88955483958125 L 498.0257357824594,178.96879755984992 L 497.2360300421715,179.36730094626546 L 496.35437230579555,179.57109755370766 L 492.6952223125845,178.75597786251456 L 493.53090405091643,177.3457879247144 L 492.1299877204001,176.51984012499452 L 490.46403324604034,176.18951203860343 L 488.8061921708286,176.37503527011722 L 487.49452349357307,177.07422331161797 L 486.14769666455686,176.66012529842556 L 485.74743481725454,175.63752212189138 L 486.2071950118989,174.67625861335546 L 487.41879829391837,174.4252398815006 L 486.19096816144884,171.07993162609637 L 484.51419578678906,168.2590872105211 L 483.56763075105846,167.23426265921444 L 482.7076087631285,166.79417080245912 L 480.80906974337995,166.1668470967561 L 479.1052526701242,164.62380735296756 L 477.7908794376999,162.71168075222522 L 476.36832741089165,161.30752057861537 L 473.63140215165913,161.37287107668817 L 473.36095500551164,161.04612980224192 L 473.1608241610229,160.22827497590333 L 473.12025706097484,159.17861813306808 L 472.86874121427536,158.93539197463542 L 472.21425907313824,159.08177621196955 L 470.31572005338967,158.82954839523882 L 468.4820883311331,157.50112861022353 L 466.67550130933523,157.5754177076742 L 462.8621964175254,159.14483570773154 L 461.3260564878583,158.97592849936336 L 459.97382076084614,158.27560772560537 L 458.7189459297806,158.13150647375733 L 457.4857068452984,158.4444833919406 L 454.7812353409827,160.04129740223289 L 454.10782190039754,160.2102526118979 L 452.2336230762303,160.02102328184992 L 451.681910937652,160.22827497590333 L 450.85434259846807,161.57794384658337 L 450.2918125074357,165.18996595963836 L 449.5886498671025,166.7016452336684 L 448.6610161308199,167.22297752648592 L 446.3541018664837,167.25457584485412 L 445.33181163296103,167.45771376229823 L 442.1432396825403,168.72644616663456 L 441.07497334480286,168.8077319553122 L 440.0310473628342,168.49388831760734 L 438.0567831452936,167.42611372936517 L 436.8073172625154,167.35614342615008 L 434.2921587023884,167.87305207923055 L 431.79863588884473,167.87305207923055 L 429.8189626671374,166.30448823142797 L 428.8453529328108,162.098563821055 L 429.21857002936304,159.0547508765012 L 429.04277932830155,158.169782852754 L 428.5424521397799,157.58892493415624 L 427.2497147079557,157.34805290400982 L 426.71422931551933,157.0891889706254 L 424.1017097532749,152.9138189209625 L 422.93878702260554,151.6931310556829 L 426.89272446371615,148.45337711460888 L 427.75815534964204,146.79638670757413 L 429.17529847845435,142.49790652189404 L 430.31117651052773,140.7135522281751 L 431.8905879370868,139.1742183426395 L 433.6106318086386,138.04532590322196 L 435.1629985384643,137.5011594677344 L 436.44491806812584,137.32426636479795 L 436.84517981112003,136.64364140294492 L 436.96958550810814,135.5468404199928 L 437.42934570275247,134.0991049874574 L 438.1838932391256,133.07685143500566 L 438.8221485298127,132.63403562549502 L 439.36033837124705,131.9699095962569 L 439.8146896157414,130.277700365521 L 439.8525522146374,126.62538904044777 L 438.684220533818,124.93557830154896 L 435.1629985384643,122.92977214418352 L 435.74175542779267,121.60282300412655 L 438.06760099343956,118.44455530121922 L 439.6253766193986,114.96839204989374 L 440.31231235712767,113.90680749248713 L 442.2054424788803,112.24937406927347 L 442.9086050670594,111.34421083144844 L 442.68142952397466,110.48372847307473 L 441.97285798564553,110.30587537307292 L 440.0689099114388,110.75941724982113 L 439.27920427545905,110.69716310873628 L 440.15004411153495,109.33672346360981 L 439.219705875963,108.9300204962492 L 438.8221485298127,108.2322823163122 L 438.9492587298155,107.40360782295465 L 439.60374081879854,106.57733596581966 L 440.777481501922,105.71571787819266 L 440.85320669971406,103.604695382528 L 440.5367835033685,101.05128970276564 L 440.51244330592453,98.860860735178 L 441.8322253841907,96.26192567497492 L 441.85927013494074,94.71626153308898 L 441.55366489104927,93.55853395536542 L 441.0046570971608,92.5051544001326 L 439.70110181719065,91.02958777081221 L 441.25887744501233,88.71231641247869 L 442.1243083309382,87.74646803550422 L 443.0546465665102,87.04157612938434 L 443.95794005319476,86.7190046980977 L 445.7753449752927,86.39425169955939 L 446.61373116262257,85.90386092104018 L 446.06201891973615,85.19931142777205 L 445.6969152763486,84.10851178411394 L 445.56980512849987,82.86132172867656 L 445.7212555259466,81.67190651409328 L 446.0944726206362,80.78725863154978 L 446.57586856372654,80.26450884714723 L 449.21002387441695,78.42994012031704 L 449.91859546490014,77.22648584842682 L 450.1295442096889,75.5409687878564 L 450.01054746098816,73.02620196621865 L 444.02284740284085,72.7092216713354 L 434.86009769141674,74.49257994443178 L 430.0569562166929,74.46835592295974 L 425.94075047783554,72.76425104308873 L 424.8860065434128,71.37995329219848 L 423.220052016899,68.25228483323008 L 421.9922219365835,67.71806716918945 L 420.7319382056594,68.20391633361578 L 418.3411853425205,70.26231916993856 L 417.06467476300895,70.99050412978977 L 415.0498434435576,71.24133126437664 L 407.88028924912214,70.82109515648335 L 406.5767340231687,70.39870578050613 L 405.7599835842848,69.50128398742527 L 406.0682933293283,68.06321151554585 L 405.3651307411492,66.3861472485587 L 406.8958616685122,66.17519289720803 L 407.39889336004853,65.04370995052159 L 406.9337242152542,63.94111255928874 L 405.570670587942,63.837897608056664 L 405.21368029154837,64.32764421217144 L 404.9215973969549,64.46601455006748 L 404.6132876519114,64.32544791698456 L 403.7749014124274,63.46239482983947 L 403.69376726448536,62.22854686714709 L 402.57952498085797,60.86782622616738 L 401.1840176526457,59.87173577025533 L 399.7019672766328,59.297017987817526 L 399.8155550751835,58.46580498851836 L 400.096820121631,58.11275879107416 L 400.096820121631,57.536113964393735 L 398.92307943850756,56.028041334822774 L 398.46872819401324,55.80012883711606 L 396.91095262020826,55.94476403761655 L 396.48905502445996,55.80012883711606 L 396.28892412781715,55.26327336486429 L 396.11583792977035,53.74952915683389 L 395.03945824690163,53.17573404312134 L 394.4552924055606,52.05686308629811 L 392.3187598902732,49.14845891389996 L 392.71902163140476,48.017647083848715 L 392.7677021306008,46.7035267110914 L 391.83736389502883,45.73954308219254 L 390.66903221420944,44.96809447556734 L 390.0253679212183,44.23394252639264 L 391.06929400749505,43.70745026599616 L 391.4911915510893,43.659392326138914 L 391.4911915510893,43.02814222779125 L 390.90973015874624,42.40354756452143 L 390.67444116435945,40.368863781914115 L 390.3823582176119,39.56576763279736 L 389.79819237813354,39.29737917520106 L 388.17550940066576,39.245012815110385 L 387.5210273116827,39.0442820051685 L 387.8185191564262,37.90337136015296 L 387.2073085643351,36.121788875199854 L 387.5210273116827,34.95777593459934 L 386.45546547695994,33.75054127164185 L 386.8043423220515,32.606852936558425 L 386.1363378316164,32.312816922552884 L 384.63265165500343,30.925707291811705 L 384.63265165500343,30.300910210236907 L 386.0984752327204,29.149547779932618 L 386.0984752327204,28.627304752357304 L 385.6873955912888,28.511985645629466 L 385.02209554985166,27.99853162560612 L 385.02209554985166,27.47644569259137 L 385.6278971899301,26.680401600897312 L 387.3695768620819,26.175891049206257 L 388.23771225102246,25.754066774621606 L 387.84015495702624,24.817087644711137 L 387.1315834186971,24.030289074406028 L 388.3107329476625,22.98944220598787 L 388.53790859505534,22.365938699804246 L 388.23771225102246,21.681722363457084 L 388.4946370460093,20.671911910176277 L 388.9327614400536,20.0379303926602 L 390.0253679212183,19.43878402095288 L 390.0253679212183,18.80934696085751 L 389.3276142831892,18.941737186163664 L 388.7380394935608,18.74640896357596 L 388.34318664856255,18.15397402551025 L 388.23771225102246,17.093028344213963 L 388.44054759666324,16.097438317723572 L 389.38981713168323,15.863219336606562 L 390.0253679212183,15.373140809126198 L 390.77180211246014,12.457817354239523 L 391.40464845113456,11.511084741912782 L 391.4587379023433,11.073543578386307 L 390.77180211246014,10.791983944363892 L 391.080111855641,8.425534116104245 L 389.62240173108876,6.891260557807982 L 388.024059003219,5.729602122679353 L 387.8834265079349,4.5034276228398085 L 386.8043423220515,2.687591679394245 L 386.73673052340746,0.6933225281536579 L 386.49332812801003,0.13606274221092463 L 385.91457113437355,0.0 L 385.51701389439404,0.790527293458581 L 384.930143551901,1.4407822107896209 L 384.26484351046383,1.8815490687265992 L 383.5616809222847,2.069538561627269 L 382.8314735312015,1.980944663286209 L 382.01201869547367,2.2380886785686016 L 380.84639146365225,4.0039872117340565 L 380.0783215239644,4.732629804871976 L 379.3156605362892,4.925083679147065 L 377.7578849103302,4.914271414279938 L 376.9573613218963,5.227839712053537 L 376.25960763171315,5.863704867660999 L 374.6585605069995,7.932076056487858 L 374.26911656185985,8.821644984185696 L 374.4151580091566,8.906067394651473 L 374.945234503597,11.316134512424469 L 374.89384950324893,12.84784381184727 L 374.4313848596066,13.976977217011154 L 373.7606759201735,14.607789471745491 L 371.11840715818107,15.904423472471535 L 370.3800864201039,16.689555413089693 L 368.42204900085926,19.384518003091216 L 366.95352097414434,20.476495418697596 L 365.45253924652934,20.891224469058216 L 358.1288302075118,20.69362553488463 L 356.9280448257923,20.339709886349738 L 353.7529952246696,18.659599567763507 L 353.09851308353245,18.62270615529269 L 352.26012689620256,19.191337794065475 L 351.7219370547682,19.24125978164375 L 351.0593415144831,18.77028185222298 L 350.17768377810717,17.147261770442128 L 349.64760738797486,16.563750020228326 L 348.7064512502402,16.316489345394075 L 343.9573991727084,17.11689094081521 L 343.2975081335753,18.036799926310778 L 342.83774794079363,19.315058869309723 L 341.9723170530051,20.83042369876057 L 341.0690235681832,21.46019278280437 L 339.9223276358098,21.623080919496715 L 338.71613325178623,21.434131287038326 L 337.68302511796355,20.993285067379475 L 336.6012364849448,20.011878565885127 L 335.07591455988586,17.967365205287933 L 333.86431127786636,17.46616996731609 L 332.5012575984001,17.30996673554182 L 331.79268605820835,16.945517187938094 L 330.5053575783968,13.90761587023735 L 329.74269658885896,12.548820057883859 L 328.70147500373423,12.535819491371512 L 326.4161965921521,13.478470440022647 L 325.2100022062659,13.09271396882832 L 323.1627172380686,11.294473911635578 L 322.0836331062019,10.915434412658215 L 320.8828477244824,11.597732429392636 L 320.2337745334953,13.110050611197948 L 319.2006663996726,16.563750020228326 L 318.1296956669539,17.821990126743913 L 317.2588557768613,18.47079596761614 L 316.90727448277175,19.42358937114477 L 317.3994883261621,21.6013620281592 L 317.1939484793693,23.80210424773395 L 316.5827379412949,25.182286512106657 L 314.8356492649764,27.837547513656318 L 313.73492933250964,30.895227015949786 L 313.08315169252455,31.93387045711279 L 311.82286790944636,32.726651881821454 L 309.718789042905,33.247276328504086 L 308.64781831018627,33.194992867298424 L 307.6201191265136,32.822493774816394 L 306.57619309052825,31.7988526718691 L 305.33754510991275,29.13431464228779 L 304.3368906248361,28.044217661954463 L 302.9630190972239,27.522125330753624 L 299.7338800467551,27.48949695006013 L 298.203149067238,27.156703152693808 L 296.54260354302824,26.26069633010775 L 294.8658312205225,24.943164179101586 L 293.40000759251416,23.148049814626575 L 292.3723084088415,20.83042369876057 L 292.2262669093907,19.41490688547492 L 292.33985475823283,16.214553087949753 L 292.0856343600899,14.97635324113071 L 291.1444783266634,13.90761587023735 L 290.59276608377695,14.776890806853771 L 289.8463319465518,17.37938963714987 L 289.17562295496464,17.446644288487732 L 287.7314351256937,16.65485009085387 L 286.86600429192185,17.07567377667874 L 286.35756359808147,17.967365205287933 L 286.0222091022879,19.143586836755276 L 285.20004976540804,23.845567028969526 L 285.0702351164073,25.558390958234668 L 284.61047497577965,26.704323979094625 L 283.25823919661343,27.256755769252777 L 278.5632765162736,28.25960142351687 L 277.14342893846333,28.229142291471362 L 275.78848871029913,27.76358413975686 L 273.18137809820473,25.988891053944826 L 271.8264378178865,24.66927880048752 L 271.1584333796054,24.314995897002518 L 270.4769065398723,24.586682388558984 L 269.2761211581528,28.464118355885148 L 268.6270479671657,29.18219031393528 L 267.1206572894007,30.133299027569592 L 266.49592434987426,30.76460000127554 L 266.055095506832,31.71827979106456 L 266.030755257234,33.194992867298424 L 265.83332880958915,34.04032998718321 L 265.0625544209033,34.92726342473179 L 263.99699263833463,34.99700656533241 L 262.8232520073652,34.4260227503255 L 261.70360072143376,33.406309651210904 L 260.6813104879111,31.829340147785842 L 258.982902366668,28.56202934216708 L 257.7226185835898,27.41989061795175 L 256.7111461982131,27.04795326385647 L 251.5996949262917,27.06317810062319 L 250.63690309226513,27.313308350741863 L 249.65788435563445,27.837547513656318 L 246.49365260452032,31.29366698861122 L 245.37400137074292,31.907737653702497 L 244.17321598902345,31.70521410368383 L 243.19419730454683,30.786370931193233 L 242.5126704648137,29.369346287101507 L 242.18272491917014,27.67004426009953 L 242.38826476596296,24.773613838478923 L 242.14756682142615,23.654334735125303 L 239.42686841264367,19.796958070248365 L 238.88056511990726,19.27164744399488 L 238.05029233172536,19.150098239071667 L 237.30656269565225,19.471343816258013 L 236.4546541571617,20.142139384523034 L 235.75149151682854,20.923796689137816 L 235.42695497348905,21.599190170876682 L 237.16322569735348,25.83233993407339 L 237.57430539093912,27.950670841149986 L 236.919823249802,29.708862075582147 L 236.09225491061807,30.17901038657874 L 233.14978990890086,30.270434911362827 L 227.48121744208038,32.56546873040497 L 225.64758572168648,32.611209243535995 L 224.67938488535583,32.09067136142403 L 223.22437915578485,30.483767016790807 L 222.0749787762761,29.917809711769223 L 220.99589464254677,29.83509990107268 L 217.89116123877466,30.359684620052576 L 215.80871817283332,29.68709727562964 L 214.66743113845587,29.563040709123015 L 213.96426855027676,30.226899131201208 L 214.2617603931576,31.652951716445386 L 215.03523928299546,33.46513179317117 L 215.19209863059223,34.92726342473179 L 213.6451409049332,35.308686283417046 L 212.374039221555,35.14303506910801 L 211.32470428943634,35.2650932027027 L 210.56204330176115,35.993163261562586 L 210.14555465616286,37.650366669520736 L 210.30782295390964,41.7070048796013 L 209.97787740826607,43.02814222779125 L 208.5769611299038,43.847258573397994 L 206.4242017623037,44.32570387329906 L 201.79955538362265,44.50486312247813 L 196.52583581395447,42.64376420434564 L 193.06952111423016,43.22034575045109 L 183.176564168185,47.62183268275112 L 171.65551524236798,47.97828248515725 L 170.91989895142615,48.369759464636445 L 170.2762347124517,49.275340775959194 L 170.15723796375096,50.097987367771566 L 170.30327946320176,51.47237806767225 L 169.6758420728147,51.78978386707604 L 157.5111289061606,52.30644571967423 L 155.94253537990153,52.99616712797433 L 152.56194593198597,56.032424449920654 L 150.98253455758095,56.38527790270746 L 147.34772470965981,56.27130918111652 L 136.18907503038645,58.39563162159175 L 131.76996844634414,57.50542049203068 L 114.42078336328268,57.79921104200184 L 105.59338809549809,60.19861774798483 L 103.22427098080516,60.13060649018735 L 100.84974496811628,59.349660349078476 L 96.14396443963051,56.86529867351055 L 81.44245696254075,54.47894300799817 L 80.355259379372,54.52713736332953 L 77.14775607734919,55.309286538511515 L 64.11761207692325,54.281790317967534 L 63.00877869129181,53.865612673573196 L 61.872900661081076,52.68303998187184 L 59.968952691182494,49.83760925102979 L 59.16302015259862,48.192605620250106 L 57.9189631678164,42.674338310956955 L 56.44232174381614,40.58930829074234 L 50.50871108286083,36.50115052238107 L 42.68737930059433,29.43681177403778 L 40.59411833435297,29.092967978678644 L 39.10665895603597,30.49682861752808 L 37.640835328027606,32.291037389077246 L 35.56921010836959,33.12963948212564 L 34.26024588011205,33.2516332808882 L 30.56593773700297,34.365006630308926 L 29.338107604533434,34.39769369829446 L 24.24829213321209,33.06428721360862 L 23.604627892374992,32.7048699920997 L 23.069142499938607,32.142939729616046 L 22.436296159401536,31.034567425958812 L 22.382206708192825,30.359684620052576 L 24.107659636065364,25.638834265992045 L 24.232065280899405,24.825782380998135 L 23.994071785360575,23.53699234407395 L 23.53972059302032,23.302318427711725 L 23.058324651792645,23.66302691679448 z" /></g></g></svg>