<svg xmlns="http://www.w3.org/2000/svg" xmlns:xlink="http://www.w3.org/1999/xlink" width="265.86604278348386" height="500.0" viewBox="0.0 0.0 265.86604278348386 500.0" preserveAspectRatio="xMinYMin meet"><g transform="matrix(1,0,0,-1,0,500.0)"><g><g><path fill-rule="evenodd" fill="#D2EBD9" stroke="#A6A6A6" stroke-width="0.25" opacity="1" d="M 7.933778258040547,97.68267273111269 L 9.541104901582003,117.37423455319367 L 15.970411475747824,220.613925405778 L 15.691816432401538,275.13528725667857 L 13.904982198029757,369.7818500699941 L 13.744285482913256,386.525899768807 L 15.105480322614312,394.14587109396234 L 19.014188583940268,399.76010962878354 L 34.21892240457237,405.3255803924985 L 38.1370836943388,403.9540045710746 L 41.152507904917,401.21101941843517 L 43.88907657749951,398.14033156191 L 46.965943640097976,395.7555225789547 L 49.1448005028069,395.5269871610217 L 51.21967717073858,395.96418666793033 L 52.954255083575845,395.56673219869845 L 55.463957857340574,390.16181416693144 L 57.8129639159888,388.35374278132804 L 65.15301735512912,384.0326416848693 L 66.79306791722775,384.50942582520656 L 67.8895858451724,386.0590208827052 L 68.71670071221888,390.3108354297001 L 69.5296365879476,391.69179568905383 L 78.8689444847405,398.7464970969595 L 80.58934340439737,400.78369014686905 L 83.207752706483,408.3074582668487 L 84.07740473560989,410.0470080252271 L 86.79506790079176,412.3334095743485 L 89.29531783051789,413.804740663385 L 91.48362735658884,415.4650360487867 L 93.26546912640333,418.313576761866 L 93.84208625927567,420.38674943801016 L 94.39979806914926,424.73237333795987 L 94.90079335682094,426.64681311440654 L 99.44756178557873,434.340477013262 L 100.0572634190321,436.50417072791606 L 99.42865628004074,439.1853541631717 L 98.75751161202788,439.7425100118853 L 103.96597186289728,443.6279344242066 L 109.30677047744393,446.20022321888246 L 111.4856273420155,447.8770439228974 L 113.32418544963002,450.78804472414777 L 114.02368828468025,453.70427523204125 L 114.3309023566544,456.75016599567607 L 115.02095253020525,460.02530583017506 L 116.78388861194253,463.1265321425162 L 122.43662781268358,469.6833635873627 L 124.70055936649442,473.28842808958143 L 125.33389283530414,475.499461827334 L 126.052301177755,480.39015329256654 L 127.701804401353,485.02253073477186 L 128.68016314134002,490.85127954906784 L 129.6348900422454,492.93891849461943 L 131.02916919998825,494.3689521388151 L 136.69136124663055,498.7939779795706 L 138.52991935424507,498.5846730847843 L 140.22195992060006,497.6378330443986 L 142.10778188705444,497.0996414858382 L 143.71947409771383,497.3238869844936 L 147.37295847572386,498.6544413000811 L 149.36276045441628,499.6611133131664 L 150.5963430777192,500.0 L 151.55579649284482,499.65114619536325 L 153.3140062429011,497.94679897627793 L 154.70355925150216,497.0946583128534 L 155.77644534222782,497.2740545629058 L 156.84460491873324,497.8670656743925 L 158.23888425901532,498.2707178418059 L 169.56799431703985,498.3654023995623 L 170.6092087943107,498.18529510102235 L 170.6092087943107,497.49469236354344 L 173.75764141231775,494.6068734319415 L 170.1626226529479,489.8833212975878 L 155.99839741550386,479.5989768754225 L 154.66608188673854,476.8303575546015 L 156.7575938217342,473.81102100550197 L 159.34779366850853,473.6463378460612 L 168.10832613892853,477.6460173584055 L 167.08117797411978,474.83834892953746 L 165.37670732848346,471.8584012570791 L 161.18624019436538,466.51868861331604 L 160.18142128176987,464.81737381243147 L 160.70243844762444,463.93930977070704 L 162.1166280824691,464.0333870933391 L 163.73178153671324,465.20153404888697 L 166.81322621554136,468.68269804748707 L 172.87935529462993,473.0817160294391 L 175.74494998529553,474.44623535871506 L 178.7817359752953,475.0108803261537 L 182.86799974925816,474.43055095057935 L 188.18237532489002,471.82703488646075 L 190.57905462011695,471.0585661116056 L 194.4643543921411,471.65451999171637 L 200.00202303752303,475.5127951586619 L 206.33610387705266,477.4734722918365 L 208.48716066591442,477.7636623578146 L 209.4398779887706,477.04995616921224 L 209.0826090388,474.32860209210776 L 208.07034685835242,472.5484708098229 L 204.4381126780063,469.74123215000145 L 200.26253171265125,467.93782380386256 L 199.45123353414237,467.12240179255605 L 199.39168867841363,465.01337346690707 L 200.70911785587668,464.56649609678425 L 202.30938514135778,465.240734416293 L 203.67891608923674,467.5301103051752 L 205.17497983202338,468.5886078015901 L 207.04319869354367,469.41190689452924 L 208.81465728022158,469.74123215000145 L 209.41754855401814,468.6905388974119 L 210.8987261299044,445.9127377017867 L 209.4398779887706,428.25609280425124 L 208.84442961588502,425.2489629762713 L 206.28400210477412,420.6448149010539 L 205.68855391442776,417.63053417019546 L 198.8111266568303,399.96519991150126 L 195.6850232910365,397.81342864921317 L 188.0781719647348,382.78612113907 L 189.18719423748553,377.8201954020187 L 186.97659259289503,361.86372913303785 L 182.51073079928756,345.9771751726512 L 181.0593255609274,342.7663713393267 L 176.30318275652826,337.07203030516393 L 174.38286212272942,333.5496633781586 L 173.55667759291828,329.44198988797143 L 174.36053287051618,324.8429101689253 L 176.57113451510668,322.50846641068347 L 183.09129282087088,319.17493422795087 L 184.45338068529963,316.2710401925724 L 186.20250983536243,314.67868517618626 L 193.86890620179474,313.32836273289286 L 195.58081993088126,311.7517519381363 L 193.3776613716036,308.0290481352713 L 188.6587339863181,308.07587220030837 L 183.9695789385587,308.77823957055807 L 181.85573757067323,307.0457588287536 L 181.37937909178436,304.0726477294229 L 173.8171862680465,278.70613465155475 L 172.0457276813686,259.24904515687376 L 171.85965021513402,255.24358761194162 L 171.21210025250912,247.72483677137643 L 172.5072001758963,243.68173233838752 L 173.22173807770014,240.03632159763947 L 173.40037246234715,237.96452408120967 L 174.36053287051618,233.564301248407 L 175.07507077232003,231.17361156689003 L 176.8093137536198,230.19246287131682 L 180.709499694407,228.86873349943198 L 182.92754442244768,225.95670180022717 L 184.4459375999868,222.25860812095925 L 185.30933755077422,218.10162873077206 L 185.7856960296631,212.0382865036372 L 186.8426167126745,207.38445230433717 L 186.4109167382121,205.15891865664162 L 185.26467886194587,204.6764783980325 L 183.6569686755538,204.6998222589027 L 181.85573757067323,204.04620351851918 L 179.8535428289324,202.18656769162044 L 177.35266017355025,199.28448293474503 L 175.2462620716542,195.97032383386977 L 174.36053287051618,192.89760820171796 L 175.1718310471624,189.38180910935625 L 178.74452055618167,183.73546741367318 L 179.45161537267268,180.43828725046478 L 179.77166872099042,180.4227352652233 L 180.41177559830248,179.91729804337956 L 180.88069117628038,179.054183088243 L 180.709499694407,177.95004806108773 L 180.03217739611864,177.76343711651862 L 177.62061193212867,178.0900069954805 L 176.85397225804627,177.95004806108773 L 174.53172416985035,176.09175615175627 L 173.59389319643378,174.93328744359314 L 173.22173807770014,173.19954117015004 L 172.8198104389012,172.26661769929342 L 171.9117518030107,171.3337183976546 L 171.01113643310964,170.035473177908 L 170.6092087943107,168.0454391532112 L 170.79528644680977,165.76014365581796 L 171.65868639573455,162.74439540598541 L 171.85965021513402,160.87910914514214 L 170.1700657363981,147.34309851028956 L 169.0387140288949,145.26884893188253 L 167.43844692595303,143.62973114545457 L 165.60744348354638,141.19061126722954 L 163.51593155041337,133.39273026119918 L 162.51855572126806,131.00864911801182 L 161.89333501271904,127.64634800003842 L 163.10656082816422,122.84803001722321 L 162.34736423939466,121.08569789724424 L 161.04482123069465,119.40108029544353 L 159.80926616303623,119.27687203790992 L 159.25847647711635,122.25022512325086 L 164.98966585844755,143.94045889540575 L 168.07111071795225,147.21879572654143 L 169.24712093174458,149.13776886765845 L 164.42399018630385,146.64390020235442 L 159.48176954872906,134.13050660747103 L 155.50715258531272,129.4711154201068 L 156.7129353173077,129.27698685834184 L 159.25847647711635,128.05011842260137 L 158.02292140759528,127.42117022559978 L 157.0702042672783,127.14940570876934 L 155.9388525597751,127.32022897759452 L 154.26415424980223,128.05011842260137 L 154.6437526345253,126.37294699135236 L 155.11266802996397,125.58097582054324 L 156.072828438133,125.37133941845968 L 157.99314907193184,125.44121795939282 L 157.99314907193184,124.26106197782792 L 156.05049900338054,122.94895900622942 L 154.67352497205138,121.03135414351709 L 154.35347162373364,118.73346513696015 L 155.50715258531272,116.32704569818452 L 152.068438956514,113.73449822515249 L 148.32455796562135,106.19075372396037 L 144.88584433682263,104.59993400471285 L 144.52857538498938,103.55235828203149 L 144.19363568723202,99.0209641053807 L 144.26806670986116,98.089924153639 L 143.226032378152,97.45372711471282 L 142.25842888467014,97.43821028713137 L 141.64809452742338,97.75630731135607 L 141.64809452742338,98.089924153639 L 140.1073720958084,96.91839897423051 L 139.16209803894162,95.49865292222239 L 136.8100774306804,89.79694016417488 L 136.08809644542634,88.86613135435618 L 134.65902064181864,88.05169263551943 L 129.84333298169076,81.70743646286428 L 129.29998637922108,80.6992800803855 L 128.54078979045153,78.18676232080907 L 128.02721570804715,77.27175160637125 L 127.90812599658966,76.72120495815761 L 128.14630541950464,75.09287550812587 L 128.02721570804715,74.55786824016832 L 127.52108470909297,74.43380983965471 L 126.03246405161917,74.6741735667456 L 124.72247795946896,74.0926509310957 L 122.51187631487846,73.59642539685592 L 121.67080561816692,73.1312200424727 L 121.28376433067024,72.38690342730843 L 120.42036438174546,69.34776411065832 L 120.42036438174546,77.27175160637125 L 119.16992296092212,77.27175160637125 L 117.91203864105046,73.1312200424727 L 115.34416804648936,72.52646168880165 L 112.82095595449209,74.11591160204262 L 111.6821611635387,76.55836884095334 L 110.96762326173484,77.64395667403005 L 109.42690101452172,77.7680257265456 L 107.90106475166976,77.47336228005588 L 107.24607170559466,77.27175160637125 L 107.01533555053174,76.5893853076268 L 107.09720965847373,73.23976755561307 L 106.56874940730631,71.95272553828545 L 105.25132004730403,71.5185528753791 L 99.07354452461004,70.650222271448 L 98.01662383973598,69.93696573725902 L 97.1532238908112,69.03766175336204 L 95.843237798661,68.25466474029236 L 93.40189999900758,67.92906667711213 L 90.81169996783137,66.71972769149579 L 90.05250356160104,63.73530785553157 L 90.44698793254793,56.341169976163656 L 89.77710871957242,52.373426870210096 L 88.04286573641002,49.49087571282871 L 85.46755205653608,47.708763694157824 L 82.27446075156331,47.11991032795049 L 81.34407286345959,46.62404088675976 L 80.26482292637229,45.423134262207896 L 79.364207373932,43.94335987302475 L 78.56035228073597,40.63538272702135 L 77.44388674013317,39.66706015029922 L 75.86594888940454,39.047346773324534 L 74.10193338803947,38.02484174328856 L 71.16190767288208,35.29829696333036 L 70.35060949623585,34.120985955698416 L 69.91146643646061,32.01431011315435 L 70.06032848358154,29.907751515274867 L 69.55419748649001,28.273700170917436 L 64.77572524547577,26.872034429572523 L 61.61984954401851,24.95160404779017 L 58.56073411926627,22.419572059530765 L 56.4989945217967,19.825769303599373 L 55.85888764448464,15.103178913937882 L 59.67719965800643,7.176735510816798 L 58.99987717717886,2.718833781313151 L 52.065697364509106,0.0 L 35.88733131811023,4.196693262318149 L 30.021905394271016,4.157377976924181 L 24.80399248190224,3.262963057961315 L 10.804483115673065,3.921486161882058 L 7.453486479818821,2.5258234578650445 L 5.794530412182212,2.4275393267162144 L 3.6534843780100346,1.7100722822360694 L 1.9236327968537807,0.8353705685585737 L 1.5124387107789516,0.22603950882330537 L 0.0,2.7125640786252916 L 0.43482610769569874,14.321761669125408 L 5.1209566332399845,58.33078168472275 L 7.933778258040547,97.68267273111269 z" /><path fill-rule="evenodd" fill="#D2EBD9" stroke="#A6A6A6" stroke-width="0.25" opacity="1" d="M 255.76575188338757,288.06433426309377 L 258.05078455246985,290.10787324863486 L 260.17206900566816,286.68384305597283 L 263.25351368263364,277.474157453049 L 262.4049999024719,276.0628946926445 L 262.09238945506513,274.168305039173 L 262.11471889168024,269.6310599523131 L 260.8642774708569,269.6310599523131 L 260.8642774708569,272.250429085223 L 259.82968622259796,271.9229973682668 L 259.13003448955715,271.38508035684936 L 258.26663454063237,269.6310599523131 L 258.4154965877533,281.2481989010703 L 257.7902758773416,286.0755082294345 L 255.76575188338757,288.06433426309377 z" /><path fill-rule="evenodd" fill="#D2EBD9" stroke="#A6A6A6" stroke-width="0.25" opacity="1" d="M 257.69351560249925,318.18352365121245 L 259.8892310783267,318.10546104679815 L 262.4943170938641,317.46535433921963 L 264.74213415943086,315.576327357674 L 265.86604278348386,311.7517519381363 L 265.11428946070373,308.8484771049116 L 261.3331930488348,301.3572715539485 L 258.90674141794443,298.0803743391298 L 257.04596563987434,294.8193864112254 L 254.39622093737125,293.07199620618485 L 250.76398657262325,295.92715193284675 L 248.88832462579012,292.8067750816699 L 246.57351943850517,291.01268420997076 L 244.46712133660913,288.69610274606384 L 243.1571350619197,284.0244055003859 L 242.0183402709663,275.45474369614385 L 239.80773880891502,269.72460545040667 L 239.62910424172878,267.0118853957392 L 237.0240182261914,269.6310599523131 L 237.70878360792994,270.27029288490303 L 237.9469628483057,270.9095372175798 L 238.27445946261287,272.250429085223 L 238.71360252052546,276.320192434825 L 240.40318699926138,283.08078268379904 L 241.2814731169492,292.2763386662118 L 242.73287817277014,295.3030543469358 L 245.07745569571853,297.4952464159578 L 248.2631039172411,299.8436190073844 L 252.01442780904472,303.76832783059217 L 253.86031741835177,303.93219203245826 L 256.58449314534664,302.7929613806773 L 258.8769688978791,302.4652444389649 L 260.64098440110683,304.13507268647663 L 262.04773095063865,307.8963804524392 L 262.39011373370886,311.92345850612037 L 260.8642774708569,314.35866168513894 L 258.8471965622157,312.5478533015121 L 257.15761208347976,311.580046024872 L 255.76575188338757,311.7517519381363 L 255.8550690766424,312.96932623302564 L 257.69351560249925,318.18352365121245 z" /><path fill-rule="evenodd" fill="#D2EBD9" stroke="#A6A6A6" stroke-width="0.25" opacity="1" d="M 212.05240708962083,336.6502647069283 L 214.56073282845318,334.4946535273921 L 216.3768501020968,329.8324321715627 L 218.17063794098794,319.6042938362807 L 216.92763960547745,319.6042938362807 L 216.00469480082393,321.46231176075526 L 214.3969846125692,326.0140950398054 L 212.05240708962083,336.6502647069283 z" /><path fill-rule="evenodd" fill="#D2EBD9" stroke="#A6A6A6" stroke-width="0.25" opacity="1" d="M 196.83126116730273,344.5162615538575 L 200.6644593514502,346.29749067523517 L 211.04758817702532,353.43895694613457 L 213.17631571367383,354.4079351737164 L 211.49417432025075,348.1725682448596 L 207.22183307819068,344.3365811361 L 201.51297313161194,342.414841752965 L 195.58081993088126,341.8914596885443 L 195.565933579579,342.7898069131188 L 195.81899917125702,343.3756979738828 L 196.83126116730273,344.5162615538575 z" /><path fill-rule="evenodd" fill="#D2EBD9" stroke="#A6A6A6" stroke-width="0.25" opacity="1" d="M 242.0183402709663,410.4678019066341 L 243.1571350619197,410.4678019066341 L 241.7131730914116,402.1562346306164 L 238.15536975115538,394.503878909396 L 232.4390665385872,388.8948097778484 L 224.53449111618102,386.7280945389066 L 224.53449111618102,388.02654265542515 L 227.03537377156317,388.02654265542515 L 233.70439412631094,392.8374899660703 L 236.0787439867854,396.2094693889376 L 237.0240182261914,401.15460116253234 L 234.13609410077333,401.0059237279929 L 234.91017685830593,406.969182115281 L 238.27445946261287,419.00062840408646 L 238.66894401609898,419.846199975349 L 240.38830083049834,421.4356187048834 L 240.76789903454483,422.94681033398956 L 240.87954566068947,424.8261067776475 L 243.58883503638208,434.9604525603354 L 245.3900661431253,436.6680847473908 L 248.2631039172411,435.4382674258668 L 252.28982265293598,438.12512377486564 L 254.1133830100298,435.4930991339497 L 253.80821564793587,431.2164982412942 L 251.38920728303492,428.9765907165129 L 250.03456250205636,426.7994808726944 L 246.29812459647655,416.4483831159305 L 244.51922292634845,412.9804567066021 L 243.26133860647678,413.84936190070584 L 242.0183402709663,414.4129881777335 L 241.57175412774086,412.39337112149224 L 240.87954566068947,410.960925121326 L 239.82262497767806,409.92772294254974 L 238.27445946261287,409.1528420855757 L 238.27445946261287,407.85358644183725 L 239.62910424172878,405.09087745752186 L 241.34846105612814,407.6266131848097 L 241.7578317783773,408.7771486262791 L 242.0183402709663,410.4678019066341 z" /><path fill-rule="evenodd" fill="#D2EBD9" stroke="#A6A6A6" stroke-width="0.25" opacity="1" d="M 208.6955675687641,312.78200423624367 L 212.09706577658653,310.15960340970196 L 213.80153642222285,307.6310467927251 L 213.41449495218694,305.7347494114656 L 212.90092086978257,304.868573958287 L 212.85626218281686,303.71370653714985 L 212.08962269313633,301.9814772210084 L 210.8242951054126,302.12192507158034 L 210.48935540765524,303.71370653714985 L 210.24373308382928,307.7012820162345 L 209.99811057560146,308.54411554150283 L 208.53181935288012,308.34901328920387 L 206.9538815021515,309.08260317821987 L 205.2866262756288,311.37712224246934 L 204.72839368879795,311.91565366112627 L 204.7507229410112,313.04737731441855 L 205.97883492521942,313.85911904880777 L 208.6955675687641,312.78200423624367 z" /><path fill-rule="evenodd" fill="#D2EBD9" stroke="#A6A6A6" stroke-width="0.25" opacity="1" d="M 231.84361834824085,422.96247066534124 L 232.90053903125226,423.4087943129707 L 233.44388545118272,422.8685085948091 L 233.041957994923,420.8640458271839 L 231.5607804208994,419.5486816139892 L 229.5809149313718,419.1885312832892 L 229.0450115967542,420.40209647640586 L 230.3624407723546,422.3047414724715 L 231.29282866232097,422.93115001008846 L 231.84361834824085,422.96247066534124 z" /><path fill-rule="evenodd" fill="#D2EBD9" stroke="#A6A6A6" stroke-width="0.25" opacity="1" d="M 237.24731129780412,428.3030814083759 L 237.6864543557167,427.5356101025827 L 237.82043023593724,425.4682238115929 L 236.74862338230014,423.46360644651577 L 235.2376734726131,422.32823152514175 L 234.5975665934384,422.4613425170537 L 234.06910615973175,424.20749351917766 L 234.37427333928645,424.87309060199186 L 235.31210449524224,425.40557768568397 L 236.27970780432224,426.2356478644069 L 236.60720442049205,427.30850464641117 L 237.24731129780412,428.3030814083759 z" /><path fill-rule="evenodd" fill="#D2EBD9" stroke="#A6A6A6" stroke-width="0.25" opacity="1" d="M 248.42685213312507,445.552305190824 L 249.09673153050244,445.21538258739747 L 249.20837797410786,444.4396902138833 L 249.09673153050244,443.45247125811875 L 248.4491813853383,441.5251273387112 L 246.7074953187257,439.2688653424848 L 245.6580177191645,440.18545365636237 L 246.16414871625602,443.47597607411444 L 246.88612988591194,444.6277353137266 L 247.45924882404506,444.17329503363 L 247.55600909888744,444.5650534967426 L 247.25084191933274,445.40343203558587 L 247.32527294382453,445.7325208657421 L 248.42685213312507,445.552305190824 z" /></g></g></g></svg>