<svg xmlns="http://www.w3.org/2000/svg" xmlns:xlink="http://www.w3.org/1999/xlink" width="430.837189020589" height="500.0" viewBox="0.0 0.0 430.837189020589 500.0" preserveAspectRatio="xMinYMin meet"><g transform="matrix(1,0,0,-1,0,500.0)"><g><path fill-rule="evenodd" fill="#D2EBD9" stroke="#A6A6A6" stroke-width="0.25" opacity="1" d="M 429.9204087499529,486.73087634172407 L 430.38767099380493,485.145796682511 L 430.837189020589,477.95721846791275 L 430.1924854889512,469.6543829258153 L 429.1574110072106,466.7428932344046 L 428.25837483629584,465.96691474391264 L 426.2414582874626,464.94512628301163 L 425.0585159957409,464.14251611271175 L 424.3132623527199,463.1089119121025 L 422.4205546770245,457.45253006223356 L 421.302674183622,455.4536684712075 L 421.072000477463,454.19515802917886 L 419.78259335644543,452.1194096636027 L 418.40446561947465,449.2057738889853 L 418.01409466937184,446.8903534755227 L 416.5768197979778,442.99103273794753 L 412.028406701982,435.10127347527305 L 411.4428502470255,434.90589085740794 L 408.16018545255065,431.83312293219205 L 407.409017091617,430.89770051233063 L 406.9594990052283,429.97413032995246 L 406.32662485539913,426.6055624765577 L 405.4689917191863,424.39742458115506 L 404.8302028477192,423.35553662024904 L 404.03171684779227,421.3635558893002 L 403.44616039283574,420.4992943617399 L 402.47023304365575,420.20627626740315 L 402.2395592816174,419.6202432507416 L 400.4355723373592,417.30574991129106 L 398.2175555061549,411.27712057490135 L 398.6966471876949,406.93274268263485 L 398.4245704486966,401.45373797623324 L 398.7498795464635,398.8157032697345 L 398.55469409935176,396.91896687266126 L 397.97505236417055,395.02522600459633 L 397.85675809532404,394.03842363803415 L 398.2885320801288,377.62659717608767 L 398.15840842947364,376.43138143143733 L 394.7751934658736,369.0177507555927 L 394.4557990320027,367.8980515103176 L 394.1896370127797,365.8021534590516 L 392.18454984389246,359.38745064346585 L 391.9775349572301,355.82302538455406 L 391.569419849664,354.6901172287471 L 389.19762060791254,350.7028166821692 L 387.92004292458296,349.29486070448183 L 386.8199065886438,347.1326646596135 L 386.441365076229,345.81642947372166 L 387.1038127653301,341.84115935312 L 387.08606860786676,337.3040062325017 L 388.7895054984838,330.01044712692965 L 388.7835907805711,328.4429224264604 L 387.9259575866163,324.0243264892488 L 387.9614459015429,322.4095152287773 L 388.31041387468576,321.0135679347004 L 389.40463549271226,318.26309602407855 L 390.2445245273411,317.7958137036476 L 390.8478250838816,316.8671659024112 L 391.2086224947125,315.7610725295235 L 391.32691670767963,314.7791955827706 L 390.95428985729814,309.2251275538292 L 390.6348954793066,308.30832818095223 L 385.719770308584,301.42942252592184 L 381.21867485158145,289.1445262231573 L 380.17177093215287,287.0921213023248 L 377.84137460775673,276.4278747811768 L 377.6875921394676,274.99059039446 L 377.8354599457234,273.5414740883134 L 379.2372465599328,267.82187092465756 L 379.7399970032275,257.6778447311517 L 378.50973701663315,255.98024757264648 L 374.8544453717768,252.5672823482455 L 374.29846251383424,251.72142899298342 L 374.09736229106784,250.6448850723391 L 372.5003902297467,249.10104293334007 L 371.305618558079,248.21968872311118 L 360.39297592639923,235.07589864605688 L 358.9024686384946,233.69758912947145 L 357.73135578632355,232.27786126793944 L 357.2936671394855,231.91701210426982 L 355.75584215670824,231.17164948000573 L 354.472349813208,229.54485560207104 L 353.88087863847613,229.1958325368323 L 350.8880346827209,228.3498925572785 L 347.9957407824695,227.94171028304845 L 346.8837750647217,227.64000976702664 L 343.06287145614624,226.07234196885838 L 338.13591684773564,224.84777659139945 L 337.18364826217294,224.29169089869538 L 335.675396874547,222.37495583681448 L 333.4396359436214,220.39903903452796 L 331.6474783793092,218.31660917839326 L 328.9799435213208,216.15724194067298 L 327.3001655060798,215.00359470532567 L 326.418873494491,212.99208567049936 L 325.09397811442614,210.62556848899112 L 324.2126861028373,208.5134180085879 L 323.2663322929293,207.17038096686883 L 321.1370361931622,202.9281873677246 L 319.25024323537946,200.4668223057961 L 317.9312625769526,197.81014955150022 L 316.0267255194485,194.8634813640674 L 315.31696013361216,192.97591766671394 L 315.2755571566522,190.37824738341442 L 314.93841862119734,188.6858827596152 L 314.19316497817636,187.23610888583062 L 309.52054295130074,181.06990925545688 L 309.02962188981473,179.6022754108999 L 307.67515297047794,178.67315730608243 L 306.5158695578575,178.15237392456038 L 305.1199976634234,176.56041665948578 L 301.51202365756035,173.02724261664844 L 299.08699199929833,171.1984623948374 L 295.8930478207767,168.13857732861652 L 294.2724168840796,167.03770361514762 L 292.85288617014885,165.7651713682717 L 291.45109949819744,163.9362440220866 L 290.7531635519117,162.728775754862 L 290.3391337823123,161.4384234244353 L 290.48700153268874,159.30160407420772 L 289.7417479455471,156.72669396850688 L 289.6234536767006,155.7973388474784 L 289.8186391815543,154.91532961666235 L 290.3450484443456,154.12210512413003 L 290.58755164407194,153.2874349844642 L 290.62303990125656,150.52289789046335 L 292.5275770165026,136.76976366971212 L 291.3209759052843,128.32002540506073 L 289.96650698781013,124.22800968954107 L 289.7476626653224,122.6053458568349 L 290.3923661969602,117.22183758406027 L 290.17352187260985,114.37295370681386 L 290.4810868129134,111.15077369382198 L 290.24449838884175,108.0528186862357 L 290.48700153268874,107.09911402808211 L 291.0193255711347,106.02099468343658 L 291.0311550088227,104.70589950781141 L 290.6821870356798,102.2059527347592 L 290.98383731395006,100.9974091398035 L 292.3264767918736,99.87178197283356 L 292.6340418457985,99.25563987370697 L 292.5275770165026,97.91669279294729 L 292.249585557729,96.85617686195474 L 291.504331914708,95.12613043493184 L 288.6830145865679,90.2319403696165 L 287.5059870146215,87.16840495359793 L 286.22840933315456,84.67359813921212 L 282.66775302402675,80.32962747053534 L 280.34327141940594,75.61188866577868 L 279.91741221025586,74.31976861183648 L 279.1070968285203,73.50773124850821 L 278.14299886114895,70.7810863556515 L 275.6292464733124,66.6434124489897 L 274.58825727179646,63.27017782369512 L 272.9203086383641,61.66943900095066 L 270.7022918649018,60.507387477424345 L 268.1707953196019,59.74848138050584 L 263.0900581832975,58.98363393296313 L 254.82720636576414,56.35104061879974 L 253.80987598374486,55.88261321448954 L 252.93449869006872,55.206646305756294 L 252.21290392428637,54.12745067436481 L 250.45031989738345,48.48201305528346 L 248.6522476132959,46.26396987137559 L 246.73588111810386,45.32690248536528 L 244.5119496267289,44.51436608826043 L 234.06065457500517,39.081255389755825 L 233.14978902228177,37.17713374309824 L 227.99216065369546,29.844582592661027 L 226.74415650963783,28.687631467808387 L 223.69216541945934,27.13904652254132 L 222.85819110274315,25.762477955504437 L 218.43990165740252,21.40699515605229 L 212.726290429011,11.75085717967886 L 211.82725431583822,11.008892658443074 L 209.13606058061123,9.845463934500003 L 205.34473056718707,7.4710111184976995 L 203.65903777629137,6.87737503342214 L 201.47059459798038,6.663663814906613 L 200.8318057283759,6.90112068282906 L 199.045562883839,7.987467020546319 L 198.06963547877967,8.385192723944783 L 197.33029661141336,9.406201156351017 L 195.63277438096702,9.3883930775919 L 194.91117955744267,10.243170541158179 L 193.8583609741181,10.278785848320695 L 192.74048048071563,9.981990547457826 L 192.06028869189322,9.619897175885853 L 190.88326111994684,8.367384232347831 L 190.1853251736611,8.011211984674446 L 188.09151733107865,7.660972739264253 L 187.8490141313523,9.406201156351017 L 188.77170911990106,13.869830193812959 L 188.0323701966554,15.52575488538423 L 187.99688193947077,16.202349356550258 L 188.67707372829318,18.29734510963317 L 188.44640002399683,19.733511055863346 L 187.81352593004704,20.64740812369564 L 186.0923448819667,22.53448084044794 L 185.18739404901862,25.999820615063072 L 185.23471168801188,26.450767981048557 L 185.70197393000126,27.28144756621623 L 186.60692476294935,28.106177222070983 L 188.77170911990106,29.008021159490454 L 189.45781563036144,29.7081233557401 L 191.85918846726418,32.82284303968481 L 192.04254459030926,33.8966263691691 L 191.66991773992777,34.28223253248143 L 189.68848944827914,35.55767423380166 L 188.57060895487666,36.86866997550533 L 187.63608452677727,38.29233048360038 L 187.23388413712382,39.43122501975449 L 187.6774875614792,40.564158267268795 L 187.78395233489573,41.91059032319754 L 187.6419992465526,42.36730019199604 L 187.31077537313104,42.634206348491716 L 186.25204207003117,42.557100307327346 L 183.78560737892985,41.21661950965063 L 181.18313443101943,40.587884275460965 L 180.01793624088168,39.775260259979405 L 177.8768107034266,37.88896477712842 L 175.7297703884542,36.87460205703974 L 173.53541249223053,36.16275416746794 L 168.50199311040342,35.55174202733906 L 166.36678223498166,34.697496837587096 L 164.5805393885821,32.25331152378931 L 163.54546490684152,31.470193080589524 L 162.58136693947017,30.307354032382136 L 161.98398104682565,29.951376429817174 L 161.41616880707443,29.927644508716185 L 159.68907303921878,30.426012541283853 L 158.08027154020965,30.319219915618305 L 157.55386221967638,30.455677159043262 L 156.9269027877599,31.007434476559865 L 155.59609274752438,33.2143915018969 L 154.31260034628212,34.05086928889796 L 153.14148749411106,34.16951721046644 L 149.50985472649336,32.899966495198896 L 148.84740697965026,32.538078213110566 L 148.62264799326658,31.879552258295007 L 149.23777798749506,26.33803157332295 L 149.03076310269535,25.22845187751227 L 148.1405989807099,22.9083244814683 L 147.9394987579435,21.650297386586317 L 148.70545394718647,19.181602143435157 L 148.3269123788923,18.683097263477976 L 147.42491893470287,18.86706999123271 L 146.95765669085085,18.623751006889506 L 146.72106826677918,17.994675472858944 L 146.88076545670629,16.93828114689677 L 146.57911517843604,16.534707349012024 L 146.07636467926204,16.48129285198229 L 144.21323059871793,16.884867191838566 L 143.01845886930823,16.107389419237734 L 141.77636950276792,13.798606087919325 L 140.59342721104622,13.424677272763802 L 139.90140598267317,13.739252529587247 L 138.7716960515827,14.914435931845219 L 138.04418656602502,15.24086958548287 L 137.3876535948366,15.145907343918225 L 135.5304341763258,14.059760589516372 L 136.110075969249,13.561191374712507 L 136.34074967354536,13.068551363307051 L 136.17513776570559,12.635260370443575 L 132.58490791730583,10.12445253819169 L 131.00567995756865,8.201170883970917 L 130.4023794028908,7.714399225937086 L 129.18394885398448,10.219426946612657 L 128.76991902664304,12.219771378528094 L 128.46235408820212,12.914229080954101 L 127.92411532998085,13.442483509337762 L 127.07831157371402,13.905442255869275 L 123.61229071393609,15.15184249788581 L 122.57130151242018,15.834378405299503 L 119.88010777719319,18.178651364680263 L 118.35411223396659,19.15786398090131 L 117.79812931641936,19.727576641118503 L 117.088363988325,21.6087580932508 L 115.6037714201957,23.964562497727457 L 114.36168205365539,25.424262210697634 L 112.96581010147929,25.275921147098416 L 112.02537101134658,24.006099385936977 L 112.14957994222641,22.071622106959694 L 109.48795980401337,23.400843375988188 L 105.73211804777384,27.89851303921023 L 103.46678357757628,29.7081233557401 L 102.3489031419158,30.97777024912648 L 101.31974332034588,33.736450487122056 L 100.48576900362968,34.89326284755953 L 99.59264761023223,35.40343677024066 L 97.33322780393064,34.83987218589755 L 96.54657123982906,35.005976253407425 L 94.29306615144014,36.08563662474626 L 92.93268251419067,35.29665671449038 L 91.82071674056351,32.60333701025229 L 91.04588955827057,31.677839512893115 L 89.07629064656794,30.33701867677155 L 88.27780464664102,29.41740439910791 L 87.03571522049606,27.1034461993695 L 86.40284112654626,26.43890105059836 L 85.50380495749414,26.10662440568558 L 79.15731963515282,24.94363510722178 L 75.25952479057014,23.66786920260347 L 74.40189165435731,23.59072860305605 L 72.85223723202944,23.786546710398397 L 72.31399847380817,22.985466372498195 L 72.38497499004006,20.522787024237914 L 72.11289825104177,19.324030996111105 L 69.72335490770638,14.576129160646815 L 69.12596901506186,13.869830193812959 L 68.30973879806697,13.555256038773223 L 65.50025090947747,13.1457122482243 L 64.67219131067395,12.825196734294877 L 64.16352609172463,12.385967538808472 L 62.921436723321676,14.3862013106409 L 62.38319796510041,14.712639272329397 L 61.703006176277995,14.712639272329397 L 61.43684415705502,14.451489096070873 L 59.69791900739074,8.56327759011765 L 58.189667619764805,6.129380528742331 L 51.737581042572856,0.6337135093053803 L 51.253195855766535,0.0 L 49.58623040467501,1.7346986273332732 L 48.29151404090226,3.8897972920385655 L 46.1398631259799,6.5028657865623245 L 44.73604673705995,7.868853465202847 L 44.193131336942315,9.44293932808796 L 40.41429626941681,13.488326840262744 L 40.360261742025614,13.812243974476587 L 40.63512893393636,14.20274036716728 L 40.972295282408595,14.135392129916 L 41.73675114661455,13.259590100118658 L 42.02894255518913,13.416912816392141 L 42.29866303317249,14.113252781549818 L 42.140089865773916,15.32373307798116 L 40.634989926591516,17.28516657074215 L 38.206614131107926,19.482881467585685 L 37.936067048460245,20.202402330804034 L 37.98081238940358,20.786765328244655 L 39.33327385224402,20.773123282109736 L 40.41158857010305,21.959201532707084 L 40.66691245883703,23.25185136133223 L 39.624455923214555,25.413406745850807 L 33.133257161825895,31.93636341461388 L 21.96871953085065,41.66212805763644 L 19.261402459815145,43.3442379283224 L 16.446680238470435,45.832663460460026 L 14.349453518167138,49.19478251754481 L 14.195764159783721,49.75045819688239 L 14.200421400368214,51.660249544191174 L 13.976873252540827,52.11317118782608 L 8.937022436410189,56.1400255940971 L 0.0,62.15607295729569 L 0.8931286558508873,63.81954533304088 L 4.69701742567122,74.08860601611377 L 5.637456573545933,75.89638777505024 L 7.127963859587908,77.17068707779981 L 9.079818613827229,78.43902787743718 L 10.783255504444242,79.84364921631641 L 12.628645427525043,80.98154236467963 L 14.982700627297163,81.45565715708653 L 17.16522914171219,82.18460030861024 L 18.44280682504177,83.82616680169303 L 19.513369565829635,85.59212728351122 L 21.092597525566816,86.67656382628775 L 23.961232548579574,86.2617546361871 L 26.08461393043399,84.63211574862362 L 30.627112306654453,77.27144423007849 L 31.58529555425048,76.23422834984376 L 32.82738497853279,75.8134089896921 L 35.944437865167856,76.2164472987206 L 37.09189195558429,76.0860529060883 L 40.38638618774712,75.14364714147814 L 41.451034266501665,75.11401147388096 L 42.5984882991761,75.55261786047777 L 43.834662947803736,76.47723513988603 L 44.8460786100477,77.68632472511672 L 45.29559669457376,78.97835953728645 L 44.89339630678296,80.19331695124856 L 43.79325996898115,80.78596872551134 L 42.438791051506996,81.22452677074762 L 41.25584876164794,81.92976764458581 L 40.68803646415472,83.12687757848471 L 40.84773365408182,84.45433393637359 L 44.112654404714704,92.1813731998991 L 44.88748158700764,93.5619327393797 L 47.3539162799716,95.41052526776912 L 48.12282874248922,96.64288634748664 L 47.519528187811375,98.49137743758911 L 45.3074260763824,99.52816509291006 L 42.59257357940078,100.27464054137818 L 40.51059511862695,101.26400182032376 L 38.20385767146945,103.16566061093181 L 36.99725656211376,103.88839312977507 L 33.75599468871951,105.2449736129347 L 32.82147026062012,106.06838495917327 L 32.7150054872036,106.28756447025808 L 32.862873293459415,110.58213603460172 L 33.14677941426635,111.5890948359447 L 33.90386249497533,113.01065548672341 L 34.5012482739985,113.37196366148419 L 36.606885612010956,113.4430403948063 L 38.02050160616636,114.31372400980035 L 38.02050160616636,115.54569088146673 L 37.180612571537495,116.86647450768214 L 32.82738497853279,121.49788422667189 L 30.851871406659484,124.37013893169933 L 29.91734697856009,125.42425449560687 L 28.775807663798332,125.79733635055891 L 27.149262007325888,125.29989337304141 L 24.830695124343038,123.67133393985569 L 23.84885305725038,123.5055146694358 L 23.553117498755455,124.84982281259727 L 24.233309287577868,127.46137430497038 L 28.40318081341684,134.27106905526307 L 29.207581592723727,136.91186689371534 L 29.207581592723727,138.10197020776104 L 28.90001659654081,139.56440854350512 L 28.361777836456895,140.8491984338616 L 26.912673527374864,143.16413185937563 L 26.469070218503475,144.37189455244516 L 26.445411399006844,145.37242840821273 L 26.85944116860628,148.54563190952467 L 26.652426283806562,149.80658878208487 L 25.422166297212243,153.14536260266323 L 25.87759904563427,154.27009533335513 L 28.11927469447255,154.23457771020185 L 31.01156859472394,153.35847110945906 L 31.79822521470487,152.9559324249276 L 32.82147026062012,151.52335184028198 L 34.75558091327548,150.0078664287139 L 35.79657011479139,149.45731169424835 L 36.74292398057878,149.3803521389782 L 37.69519251026213,149.9368272949505 L 39.635217824950814,151.72462503338465 L 40.90688078850508,152.23372557024413 L 42.97111509181559,152.64218763119425 L 45.38431736826897,153.4176677653595 L 47.176474932581186,154.3056129408651 L 48.80302058905363,153.19272014855233 L 50.74304590374231,150.783372374397 L 52.49380049109459,149.58163088565925 L 54.2682138979435,149.38627211628773 L 76.98662050068378,154.25825616555812 L 76.33600224927068,155.5191222426365 L 76.75003207661211,157.37190882964933 L 77.51894453912973,159.34303875542537 L 77.91523020900786,160.9885711377283 L 77.50711515918374,163.35618784117105 L 77.61357993260026,164.20259505094145 L 79.0508548039943,166.6944176525576 L 79.30518738552928,167.68284090615634 L 77.07534117437899,168.694927711098 L 75.88648416474462,170.52967613030341 L 75.39556315913796,172.84377436159411 L 74.91647147759795,179.01639939019515 L 75.13531580194831,179.79164869428496 L 75.77410461381078,179.64370079551009 L 77.54260335862637,177.76770261721686 L 78.54810436069965,177.4540463561425 L 79.28744322806597,177.85647300002165 L 79.53586114756763,178.4364379025792 L 79.67781417816877,179.55493201946956 L 80.02678215131164,180.2828340864653 L 80.65965630300343,180.98114168546454 L 83.46322952955961,182.86299750753096 L 84.0783595237881,183.08787104875955 L 86.89376218989491,183.16480134127778 L 89.33062328584492,182.15286736557027 L 93.36445644311607,179.2294456003874 L 95.78357338160276,178.44827390057617 L 96.74767134897411,177.7854566773167 L 97.41011909581721,176.38879140098288 L 98.66995256394148,172.234183746099 L 99.18453250266612,171.0209089935379 L 100.6632103510201,169.38148310108227 L 100.88796939328313,168.0734722995985 L 100.72827214747667,167.44017509481637 L 100.8524811360985,167.14424033957766 L 101.92895865254104,166.86606079923513 L 101.21919320896268,165.09042588710145 L 101.35523157939315,164.71161916809797 L 102.32524426467717,163.57518909469945 L 102.61506510339677,161.9652209703636 L 103.43129526264966,161.99481628362264 L 104.82125243917108,162.70509976474568 L 105.31808827631176,162.21973998662725 L 106.92688977532089,159.81065732771822 L 107.37049308419228,157.8040223870048 L 107.77860819362104,157.36598949959443 L 108.3996529057622,157.31863438569417 L 108.54160593636334,156.67341916447913 L 107.74311993457377,155.69670738869172 L 107.58342268876731,154.6252708199172 L 107.19305179640651,153.64261486538453 L 106.28810096345842,152.7013848749193 L 105.9923653472215,152.16860826854827 L 106.15797725506127,151.82526146661257 L 106.92688977532089,151.86669995065313 L 108.62441194802523,153.56565938568383 L 109.36375087313354,153.7846863088198 L 110.78328164294362,153.53014139422157 L 114.47406154684722,151.85486042691628 L 115.66883327439427,151.56479048241454 L 116.29579264856875,151.69502608168114 L 117.39001426659524,152.3343614149053 L 118.05246195569634,152.42315752136346 L 128.59247773885727,148.59299216755608 L 129.60980812087655,148.47459149673523 L 130.70994445681572,148.74691282033746 L 132.24776938185096,148.5397118680703 L 133.05217016115785,148.78835287550464 L 133.41888223402202,148.69363262680417 L 133.89797385782003,147.98914677432913 L 134.19370941631496,147.89442548817897 L 134.7970100287348,148.23778955364833 L 135.5304341763258,149.7829090551677 L 137.9554659500718,151.61806866378174 L 139.8422588482499,153.65445412375266 L 141.8887490518391,154.4358440728538 L 142.46247601136565,154.8265362668899 L 142.71680864878,155.3356171179621 L 142.8824205007404,156.54911100128083 L 143.2668767888099,157.14105269566062 L 147.62010437995195,161.36147514462937 L 148.08145184628665,162.00073534503463 L 148.53392726369202,164.36240525449102 L 150.46212319657207,167.5940608745732 L 152.03543643839657,166.33337406616192 L 152.72745766676962,165.25023452671303 L 153.22429344803095,164.04278449706908 L 153.7447880487889,161.67518675941392 L 155.04602460749447,159.01747994459583 L 155.74987521767616,157.96384462103015 L 157.18123542703688,156.33601094476762 L 157.3705061543733,154.7436623401445 L 159.00888124853373,153.6130165686336 L 159.78962309285998,152.5474720299535 L 159.54711995087564,152.1745280358591 L 158.86692816019058,151.75422397402872 L 158.05661266297102,150.02562615911302 L 156.86775571107864,149.42771188751794 L 156.44189650192857,148.92451310536126 L 156.3354316726327,146.43215091993625 L 157.2699561007321,145.6092391689017 L 158.57710732147098,145.1770589180087 L 159.9788938779384,145.1060153730068 L 161.17958032526076,145.35466754549998 L 162.717405308038,146.2012629489618 L 163.27338816784322,146.2012629489618 L 163.7997974883765,145.8164479914849 L 163.97132411412895,144.76855747729132 L 164.33803618885577,144.4310981266026 L 164.77572489343584,144.42517776555906 L 167.76856884732842,145.31322557356907 L 168.34229586459696,145.26586328394478 L 169.79140011779964,144.51990342901263 L 170.31189477443695,144.59686787467217 L 170.65494802966714,145.02905144757824 L 171.27007802203298,146.79328206402715 L 172.70735289528966,148.2318694886053 L 172.68369401805103,149.73554952249106 L 172.94394137524068,150.31570171940257 L 173.4112035613507,150.80705185614352 L 174.50542517751455,151.73646463388286 L 175.59373207576573,152.34620086713403 L 178.32632873021066,152.98553090727364 L 178.57474664971232,152.82569889213482 L 178.1488874424249,154.64894910345902 L 173.8134039491415,158.31900409016816 L 173.63004788383842,160.27827335891197 L 174.40487506613135,160.88202681888652 L 176.36855931580067,161.59823875047732 L 177.13155705854297,162.43282509507844 L 177.1433864980936,162.85307478239702 L 176.78850380517542,163.87705477474083 L 176.853565601632,164.43935079939547 L 177.16113059781492,164.71161916809797 L 178.1488874424249,165.06083168811165 L 178.5392583347857,165.451474609843 L 178.80542035400867,166.26826766399608 L 179.12481478974223,169.28678605347523 L 179.5625034365803,170.9853982837376 L 179.2845120355487,171.47071028851497 L 178.5215142350644,172.10989780053205 L 178.48602592013776,172.46500009531155 L 178.78767625428736,173.00356934129377 L 178.75810265913606,173.66050125019683 L 179.1839619241655,174.59558559887228 L 179.59207697585225,175.00986057567934 L 186.376251000911,177.66117795999162 L 187.89633188396692,178.48969982509152 L 188.31036165356636,179.27678914685384 L 187.8726730067283,181.77412920862844 L 188.25712923891842,183.73290028737392 L 188.43457058630884,188.29533329419792 L 188.801282716915,189.5320683085738 L 189.49330394528806,190.30132229700394 L 190.8418581429869,191.1179090787773 L 190.40416949614882,191.49661394703435 L 188.2216409817338,191.99957942355832 L 187.52961969561875,194.31910880173382 L 186.41765397787094,194.9404033500614 L 186.03911246545613,195.36643195034412 L 186.5536923483014,195.8220441868907 L 187.72480520047247,196.23623553910875 L 188.80719743669033,196.89893873003894 L 189.789039503783,198.6385170109279 L 191.6640030220151,198.99352984593133 L 191.64034420251846,199.85739024601935 L 191.001555332914,200.88691453308275 L 190.25038702599704,201.63242675746733 L 190.97198179364204,203.28910471983545 L 191.06661718524992,204.66768100380432 L 191.27363207004964,205.20609089364007 L 192.66358924657106,206.31248677404074 L 193.07170435413718,206.9692200402933 L 192.75230992026627,208.15843153270544 L 190.7413080316037,209.4896260491223 L 189.90141905285418,210.35933280839527 L 189.55836574174464,211.4538540157955 L 189.7180629298091,212.08689750432677 L 191.001555332914,213.33522740426997 L 191.52796465158463,214.48888768559846 L 191.75863841362298,215.77269387128763 L 191.81778554804623,217.55935506609967 L 191.72315015643835,218.07405165661476 L 191.27954678982496,218.8135552443855 L 190.07294562272727,220.00266956067935 L 189.67074529081583,220.7007524443179 L 189.65300113335252,221.19177504100662 L 190.0197132639587,222.6707497022726 L 187.58285211212933,229.0656881747418 L 187.59468154981732,229.88796243013348 L 188.19798210449517,231.1065779691853 L 188.7835385594517,234.8925189436559 L 189.66483051516116,236.30039756074257 L 190.67624623514712,237.41249661523034 L 191.3209497667849,238.6369820756954 L 190.69399033486843,241.8312600399222 L 190.68216089718044,243.23909453210945 L 191.001555332914,244.64100561339 L 193.32603693567216,249.66889391938457 L 193.71640788577497,251.5262318331952 L 193.20182800479233,253.24159724032506 L 191.85918846726418,256.00390749367943 L 191.15533785894513,256.75510998099344 L 188.87817395105958,258.32257459213724 L 187.61242570728064,260.02607566313236 L 185.68422977253795,261.2327176983381 L 183.50761597789824,262.1968457880139 L 181.9106438588351,262.6582069430733 L 180.92880179174244,262.50441992770357 L 179.16621776670218,261.7887182017148 L 177.19070419296622,262.43344132181664 L 176.2088620699942,262.42752642792766 L 174.29841029271483,261.58761174032406 L 174.19786018133163,263.7287994261569 L 173.77791563421488,266.0888260143547 L 173.07406502589583,268.3837784706993 L 172.1099670585245,270.34157836501254 L 170.61945977248251,271.8025307599164 L 168.52565192990005,272.8198722533416 L 166.2307439222932,273.17475842442946 L 164.14876546151936,272.6246847311704 L 163.27338816784322,273.56513312591414 L 162.717405308038,273.78397943241 L 160.67091510631144,274.020569987857 L 160.22731179744005,273.8667861206486 L 159.61218180321157,272.8198722533416 L 158.48838664777577,272.47090063392534 L 155.5014573559165,275.87780321217724 L 155.55468977056444,277.49844325188315 L 156.15799032524228,278.9179798985424 L 159.4643140528351,283.30670475454826 L 160.6472562868148,284.60202736129577 L 160.1799941007048,286.6840061833209 L 160.42249730043113,287.2518184928049 L 161.23281268402934,288.29872241917474 L 161.3215334136039,288.89610833878396 L 160.87201532907784,289.59995903473464 L 159.5175464693457,289.741912150741 L 159.1449195612222,290.13228319799236 L 158.9024164751172,294.26667080642073 L 157.79045070149004,298.8742485308612 L 158.0506979431957,300.24055587394105 L 159.9966380354017,303.1387911616621 L 162.0253840815276,307.6872714898054 L 163.24381462857127,308.9826191547472 L 167.47283329069614,311.31307046330767 L 168.54339602962136,312.5433642272983 L 168.7681551296264,313.72634224376816 L 168.41327238082886,314.8974939235195 L 167.76856884732842,316.0923087340052 L 169.5074939969927,318.5056098316272 L 172.34064076282084,318.890083317121 L 175.55232909880579,318.52926975781156 L 178.42687889933586,318.6830590883619 L 179.52110045962036,319.21540734902374 L 183.97487816214561,323.18438696816156 L 184.35341967456043,324.4088067069388 L 184.52494635991752,327.34566076371993 L 186.18106555379927,329.72651739740104 L 188.81902681663632,331.9890911584225 L 190.77679634653032,334.34633095757454 L 190.20306927338243,337.71808390528895 L 191.84144436754286,339.1200386724231 L 191.94790919870138,339.89792058641615 L 191.5102204941213,340.35636946630257 L 190.14392219670117,341.04552355433407 L 188.09743205085397,343.16624031001993 L 186.66015717945993,345.75727303663734 L 185.76703572645783,348.68553870932374 L 184.98629382625222,349.850942764504 L 182.24186773225665,351.11692360624147 L 181.3487462811172,352.3119234562764 L 180.88148409686983,353.77314784692135 L 180.94063123129308,358.09182426279585 L 180.7868487033993,359.5885990978859 L 179.9351302292198,363.1619884517422 L 179.59207697585225,363.80094823376567 L 177.83540772646666,364.8688457553362 L 177.65796632133424,365.50337595448946 L 176.97777459025383,365.6335364195256 L 175.68245274946094,366.6644703430211 L 173.42894766107202,367.28125957505836 L 172.28149368613958,367.3936722704675 L 169.2058437205851,366.3361089548853 L 167.9933278914541,366.41006411999115 L 166.2484880220145,367.88326036860235 L 165.20749882049859,368.5059715932439 L 164.2197420336306,368.72488272204646 L 153.41356423310935,369.73217413517705 L 152.6032487358898,369.53692759123805 L 152.01769233681262,367.78563845057215 L 151.13048560544848,366.29173581778014 L 150.51535561308265,366.0595167857973 L 149.38564573787153,366.49881048550014 L 147.9394987579435,365.6305782517884 L 144.68640750274062,365.32144744010293 L 143.13083842024207,364.1795923903119 L 141.07843355461955,363.38089100422803 L 139.77128233388066,361.623763785552 L 139.03194335103035,361.0913051850657 L 137.1155768558383,360.7363338615687 L 135.38848114572465,360.7274595494091 L 133.61998245865107,361.06764043014846 L 131.62080995179713,361.78054363541014 L 130.75134737603366,361.860412639624 L 129.50334328971803,361.71842324652243 L 128.38546279631555,361.4107801235077 L 127.92411532998085,360.9818556039827 L 127.55740319751203,359.96723229858617 L 125.5464013684541,359.5590184410248 L 124.48175323195755,358.25747449735354 L 123.43484936840832,357.8019367846864 L 122.25190707854927,357.5593782468495 L 120.28230810910463,357.70727969425207 L 119.11711003445089,357.5209238629177 L 118.51380947977304,357.60079064463207 L 118.33636807650328,358.3994605234184 L 117.10610808990896,359.0443156371475 L 116.5264664106071,359.55310229890165 L 117.61477330885828,359.6655089247506 L 118.04063251800835,360.3695311024785 L 118.25356212072074,361.16821573654306 L 118.70899492688477,361.54685299388075 L 120.48340833373368,361.99056969123194 L 121.29963849298656,362.5407803814742 L 121.83787725120783,363.688538464281 L 122.18684522435069,363.8896928729082 L 122.31105421297252,364.19142505271884 L 121.6426918040961,365.2711583101627 L 121.63677708432078,369.36238931279513 L 120.7199968136847,369.9362957577541 L 119.69083704985678,372.7052824372513 L 118.51380947977304,373.30730833057896 L 118.85686273314059,374.1193822510686 L 118.78588616102934,374.9018774008582 L 118.3836857713759,375.577874403607 L 117.73306757770479,376.0763691150205 L 117.34269656985998,375.6518349242979 L 116.28396326862276,377.11626228442765 L 115.34943884052336,378.77892671401787 L 116.33128090761602,379.9120370113378 L 116.5146369729191,381.2877601951186 L 116.17158371768892,383.8942832871544 L 116.94641089998186,387.1769322418986 L 116.5264664106071,388.159231389669 L 117.24806123413146,388.5793740769441 L 117.83361763320863,389.34125679466524 L 118.2713062800467,390.2037442651781 L 118.86277739517391,392.30599484578124 L 118.9455833490938,393.22324638943246 L 118.70899492688477,393.9008342827292 L 117.95191184431314,395.36254594815546 L 117.21257291920483,396.37747164606117 L 117.4491613432765,396.6378624229692 L 118.12935318984091,396.8331559278886 L 118.90418042987585,398.3955182521313 L 119.96291373111308,399.61169259816234 L 120.08120800182223,400.1901945949503 L 119.75589884631336,401.2628737841296 L 119.77364294789732,401.74521345083485 L 120.59578788280487,402.16097444974 L 121.97983033955097,403.56214721333527 L 124.02040582336485,404.6881312683108 L 124.60596222057939,406.0612291215366 L 124.80706238560379,407.90192305122036 L 124.78931828588247,411.33630978607107 L 180.43788073025644,410.84208128767204 L 180.9702047687024,410.90718904553796 L 183.48987182043493,411.8867712275678 L 187.1155899260193,411.39549903753505 L 188.01462609693408,410.8835135072295 L 189.12067715078592,409.8595514446206 L 189.93690725415945,409.67902760482684 L 191.43924397975206,410.5047053086746 L 196.46674869768322,411.65001318101713 L 196.65010476484895,412.1442462773557 L 196.50815173238516,413.2037495601544 L 197.33029661141336,414.07089468312915 L 198.80305973999202,413.66543661664764 L 200.6957673598081,411.5523507002217 L 202.06206571497023,410.94270245096413 L 201.5770593713969,410.0341568711301 L 202.13304223120213,409.75005332056026 L 203.61763485521078,409.80628205758694 L 204.41612085700035,409.32094034440524 L 205.54583078995347,408.1564270408853 L 206.3916344884783,407.8161020525149 L 206.00126353651285,409.2129226280522 L 206.41529330797493,409.4200800790568 L 207.95903300866485,408.59589219730697 L 206.7820054385811,407.8161020525149 L 207.343903016299,407.61486701481044 L 208.73386024869978,407.8161020525149 L 208.74568963050842,406.1322519641544 L 208.9290456958115,405.8614776242466 L 213.30001744441688,406.4607334348548 L 213.70221783407032,406.99192893202417 L 213.81459732726216,408.4005740759749 L 214.20496827736497,408.7527388615272 L 215.03302787430584,407.9344758120569 L 215.78419623710215,406.81437024314073 L 215.96755230240524,406.2506235683686 L 217.08543273992836,405.48565004440024 L 216.47030274569988,403.8847010341269 L 216.23371426574886,402.4790847041877 L 218.5049634538591,402.3044938718522 L 219.7470528781414,402.44653382695105 L 220.27346219867468,402.7099002568575 L 220.72889500297606,404.08592782195774 L 221.28487786091864,404.008988121117 L 224.00564513541758,401.84434489264095 L 224.88693714886904,401.5898584125098 L 225.9989028647542,401.9508743742481 L 226.67317999340594,400.9314515830629 L 227.63136324100196,401.2214459527604 L 228.54814351163805,402.16097444974 L 229.1277851909399,403.08719610514527 L 230.31664225645363,402.7720429941983 L 231.06781056150794,404.4602700588148 L 232.89545638486743,403.79296539326606 L 234.5574902985245,404.3818503855873 L 235.7640914078802,403.90541553702496 L 236.5862362869084,402.3044938718522 L 238.84565609320998,401.4137896170869 L 239.2951741795987,401.0557347512222 L 239.74469220638275,400.1901945949503 L 239.65005687251687,398.88228206815256 L 240.09957489930093,398.3955182521313 L 241.7202058378607,397.74748993832327 L 241.69654696062207,397.61581349594053 L 242.3708240892738,397.7208587244095 L 244.60067035630345,398.65147585823433 L 247.52253773994744,400.38549530907767 L 250.02446069009602,400.73023151139205 L 252.5263835825026,400.27009024389554 L 257.4001058321446,398.82310090537067 L 262.83572565950453,398.2179758208804 L 263.68152935802937,397.62469053782115 L 264.3972094617784,397.34358406843967 L 265.73393427953124,397.13053549607866 L 266.1479640491307,396.88641788085806 L 268.33640722744167,394.0946430457989 L 270.57808287627995,393.1892191672814 L 272.5003641489893,392.02194444711495 L 272.88482032343745,391.6180615368794 L 273.03268818743527,390.7555624014931 L 273.3165943082422,390.2762349243567 L 273.9967861548066,390.30286417738535 L 275.3749138340354,390.93309165946266 L 275.5523551814258,390.0291750756878 L 276.39815893583,389.6090265847015 L 278.49788149632514,388.97732766979607 L 279.089352613315,389.29687515362457 L 279.7754591796547,389.28208122016804 L 280.4083332736045,389.01875043212203 L 280.87559545971453,388.5882503322209 L 281.12401337735355,387.9299288183538 L 280.87559545971453,386.24050189011905 L 281.3606018014252,385.2449062176456 L 283.61410688981414,382.3336166951776 L 286.1870063561946,386.02747620199807 L 286.68975679948926,386.17245196677686 L 287.9200167860836,385.75527729342866 L 288.5351467784494,386.02747620199807 L 288.7185028437525,386.92840023832105 L 287.34628982655704,393.25579419020505 L 285.41809389181435,398.2653204413218 L 284.3948487918824,399.99489427998196 L 283.33020077086985,400.90777864164556 L 283.2651389166713,403.02209393828525 L 283.41892138682306,403.5725043995044 L 284.29429873637855,404.79466400833917 L 283.93941604346037,406.4340997515392 L 284.00447783991694,407.033359409892 L 284.17600446753204,407.2819423338806 L 284.7852197419852,407.4239899948152 L 284.90942873060703,408.23484998002823 L 284.3948487918824,410.00160328199854 L 284.5249724406749,410.6556365429278 L 285.2110789511353,411.9370823707868 L 285.58962051942945,413.1978305034281 L 286.5064007900655,413.7571824579063 L 287.6656842622906,413.5559336855222 L 288.73033228330314,412.54081860334554 L 291.0311550088227,414.2632659473893 L 291.504331914708,414.8877356787125 L 290.8714578207582,415.65427120136155 L 307.03636410087347,450.0170781867055 L 307.30252612009645,451.39691069806577 L 306.7997756768018,452.4273623980698 L 305.2737801335752,454.4379746285849 L 305.1140828859061,456.9698362433701 L 307.3261849973351,461.2253684757743 L 307.7047265097499,463.28364603618684 L 306.2142192237079,466.95021740021184 L 306.2556222565472,468.3659645267617 L 306.91806994751096,469.67807827022625 L 308.88766879960895,472.4208752673003 L 309.2129779551178,473.6501403292641 L 309.24846621230245,475.05716258854955 L 310.67982636392117,478.6637407303351 L 311.18849152699113,483.45707082370063 L 312.1052718553692,486.01536267889605 L 313.8678558245301,488.15304352024395 L 316.2100815270096,489.696730083655 L 318.8953605443239,490.47747917792003 L 321.36770995520055,490.47747917792003 L 326.0817349012941,489.2996932458627 L 327.2883360683918,489.36784110478766 L 328.4121312238276,489.93821290973574 L 328.52451077476144,490.4271079428145 L 328.364813528955,491.0330476626841 L 328.44170476309955,491.50269280005887 L 329.2815938554704,491.58565892555634 L 331.3931457977742,490.9604530259385 L 333.5401860550046,491.1011978017341 L 335.04843744263053,489.97673176796525 L 336.2550386097282,490.3204395352659 L 337.37291904725134,490.24340140602726 L 338.89299987256527,491.27601814504305 L 340.3598483391106,491.849373539706 L 341.90358804166317,491.75159156783775 L 342.69024460576475,491.87604139212635 L 345.0147262085229,492.69238032438443 L 347.3096342738718,492.6212650160742 L 348.1317791529,492.7427537212643 L 349.089962400496,493.17685603497375 L 350.07180446758866,494.31324337402475 L 350.8643758073449,494.97256679288694 L 351.6924354042858,495.27630291289825 L 352.4258596096188,495.19925745129876 L 353.90453745797276,494.7029099274514 L 355.98060125671327,494.8525545191078 L 357.2049464676529,495.99490512913326 L 358.34648578055203,497.42917613511963 L 363.10782848112285,500.0 L 364.42089442163706,499.798478304976 L 364.6693122833967,499.5421320047317 L 364.89407132565975,498.78791823888605 L 365.17206278443336,498.56269349461945 L 365.97054878622293,498.4797161595343 L 368.34826280362904,496.55201390606817 L 370.4243265464902,495.6393069067999 L 372.7428933735937,495.3000092494476 L 377.4273448381573,495.30593577794207 L 378.8054725751281,495.63782526507566 L 380.1067091356963,494.62290209105413 L 382.2360052354634,494.7947709412256 L 383.1054678093642,494.2836111323704 L 383.8388920146972,493.4465050667495 L 384.37713077291846,492.39606709846703 L 385.03957846201956,490.358958670462 L 385.85580862127244,490.1959933687758 L 386.9382007997483,490.5071093317965 L 389.4519531894475,491.81826110050315 L 392.3265029322356,490.20784538846056 L 393.03626831807196,490.28192042800947 L 394.82251110486686,491.1515696776187 L 396.76845125481486,491.6775144145213 L 398.7676237039268,491.6952929424733 L 400.73722255788743,491.0389737657242 L 401.7427235580981,490.0537695107341 L 402.47023304365575,487.764906654309 L 403.2214013505727,486.92790358244383 L 404.463490774855,486.7605044230295 L 405.6641772221774,487.3308485572343 L 406.66376344673336,488.28341072214243 L 407.32621113583446,489.27006370680465 L 408.2962238229811,492.35162028447667 L 408.7161683123559,492.484960896516 L 409.8636222872883,492.3219890386972 L 414.4238648209721,492.72793807199923 L 415.41162166558206,492.33087838201027 L 415.81382205337286,492.3219890386972 L 416.0326663199812,492.5294078232546 L 416.2692548017949,493.31316195272666 L 416.52358738332987,493.5531797453732 L 418.144218320027,493.5828116869525 L 418.66471292078495,493.8035698795429 L 420.344490936026,495.59041235098266 L 421.08974457904696,495.6289353009488 L 422.5211047884077,494.448070650571 L 423.4556291587651,493.3457569111488 L 425.7978548631072,489.5693223774142 L 426.70872047170997,487.4612137659715 L 427.40665641985834,486.7605044230295 L 429.9204087499529,486.73087634172407 z" /></g></g></svg>