<svg xmlns="http://www.w3.org/2000/svg" xmlns:xlink="http://www.w3.org/1999/xlink" width="500.0" height="320.72848334815353" viewBox="0.0 0.0 500.0 320.72848334815353" preserveAspectRatio="xMinYMin meet"><g transform="matrix(1,0,0,-1,0,320.72848334815353)"><g><path fill-rule="evenodd" fill="#D2EBD9" stroke="#A6A6A6" stroke-width="0.25" opacity="1" d="M 498.57975697889924,167.55247593298554 L 497.99562476947904,162.3358924165368 L 497.5947497449815,160.87949169240892 L 496.9418960083276,159.8501139972359 L 494.52519216388464,156.93002171255648 L 494.73135641403496,154.52105471678078 L 495.5216529853642,152.1671006269753 L 495.7965387646109,149.93916495423764 L 494.4564706366509,147.89564960636199 L 492.57808476127684,146.68815311789513 L 492.13139538653195,145.20930218696594 L 492.23447745479643,143.36735519394279 L 491.99395255185664,141.07486296538264 L 490.9287703130394,139.16699985507876 L 489.72614512965083,138.01914327591658 L 489.19928075000644,136.4833384528756 L 490.12702015414834,133.39585317485034 L 492.13139538653195,131.0601033642888 L 496.8502674140036,130.55132650956511 L 499.16388918831944,128.59989978093654 L 500.0,125.49019315745682 L 499.9198249951005,121.32758649718016 L 499.0378998313099,117.33351441752166 L 497.49166756495833,114.76061576232314 L 495.4872923325747,114.37349748890847 L 487.5499661900103,116.46747062262148 L 483.69011203944683,116.10109306965023 L 482.26986912824214,116.33424052875489 L 481.0214297045022,116.91297272313386 L 479.73862951621413,118.4661628799513 L 478.8681578282267,119.24077912326902 L 474.29818233288825,120.81521033123136 L 473.8056787159294,122.56491111032665 L 474.4127179905772,125.87780396454036 L 474.1951001510024,127.69938840251416 L 472.43124993517995,129.1502579730004 L 469.57931030355394,129.1252411454916 L 459.08783737383783,126.09454005304724 L 458.0226551350206,125.50686425808817 L 457.5416051056236,124.31496203970164 L 456.178629912436,119.05753032583743 L 455.26234409585595,117.82486602012068 L 452.86854731850326,115.42666572052985 L 451.9179008472711,113.9947208520025 L 451.7690044268966,112.83768077474087 L 451.7460971400142,109.30091710668057 L 451.26504711061716,107.5871410202235 L 451.40249005518854,106.09825833234936 L 451.66592224501073,104.92978755291551 L 452.2042401023209,104.02755204960704 L 453.166340271011,103.37068332545459 L 451.2077791709453,100.03721029125154 L 452.9487223215401,97.85991528909653 L 456.20153708942235,96.58869164530188 L 461.1609341315925,95.6250109821558 L 463.0736807715148,94.85248130187392 L 463.8868845179677,93.0667864549905 L 463.05077370628715,89.56289823073894 L 462.24902354739606,88.48378359619528 L 459.92394829541445,86.39233900234103 L 459.08783737383783,84.83237948082387 L 458.5266123395413,82.65885596629232 L 458.45789092220366,81.1907878536731 L 458.9045802988112,79.8390550808981 L 459.9124947078526,78.04812256991863 L 464.48247031494975,73.38180576451123 L 465.90271333791316,70.52356428094208 L 464.4481095522642,67.45923655759543 L 461.3556449059397,65.5052502118051 L 456.6825871169567,63.72551343496889 L 453.0174437388778,63.8000068385154 L 452.9258151464164,67.4178340639919 L 451.80336507968605,70.14253562875092 L 447.4281001351774,74.03643247671425 L 445.80169286206365,76.24097744189203 L 445.08011781796813,79.75613352283835 L 445.03430346772075,82.93259087298065 L 444.3012748360634,85.54594364762306 L 441.52951009757817,87.37160415202379 L 439.2502490878105,87.96502548549324 L 437.0969774350524,88.12687476538122 L 432.26356963813305,87.2927608191967 L 424.8874686397612,83.49252950493246 L 422.58530045486987,82.74180494900793 L 421.16505743190646,83.04872319381684 L 418.4620142225176,84.6830361764878 L 417.2708426285535,84.71207502484322 L 416.0682174451649,83.34735672269017 L 415.8505996055901,81.51423943974078 L 415.97658896259964,78.42949428409338 L 414.2814600523561,76.07520304713398 L 412.196909815073,75.2298016231507 L 399.49489740282297,75.37898420635611 L 396.91784355044365,76.32386597339064 L 394.56986112333834,77.92376573290676 L 393.16107157990336,79.87222398817539 L 390.9505319856107,85.66211055777967 L 389.96552475355566,86.47532328404486 L 387.5144601445645,87.84052821900696 L 386.71271009743214,88.62904123030603 L 386.49509214796126,89.5296928351745 L 386.65544215776026,91.97893666569144 L 385.99113494344056,107.40413613710552 L 385.63607415929437,108.41486945841461 L 384.76560258306563,108.219368734397 L 382.97884530201554,106.89673379249871 L 382.2229093834758,105.86954180430621 L 381.83348794840276,104.72604892868549 L 381.2951699793339,103.76147266943008 L 380.0925447959453,103.2792246164754 L 379.2564340941608,103.6450655022636 L 376.4274015277624,106.34777407161891 L 376.3472265228629,108.33999629691243 L 374.14814051799476,108.92651981115341 L 368.75350757688284,108.26096440758556 L 366.63459668681026,106.28955310117453 L 364.7103963494301,102.41456998232752 L 363.83992488496006,98.47482166439295 L 364.90510723367333,96.30206847190857 L 366.3826180845499,95.27611810248345 L 366.6002359241247,93.66474606003612 L 366.3138965573162,91.63849245756865 L 366.32535014487803,89.34291412401944 L 367.81431458331645,83.64600025303662 L 367.96321111544967,81.58058987837285 L 367.27599672600627,78.04812256991863 L 364.03463554754853,71.25253465212882 L 362.3853210993111,65.51352882944047 L 361.3774066902697,63.891055206768215 L 360.0946065019816,62.690948315896094 L 358.7659920733422,62.061992179602385 L 357.5633668899536,61.16828974802047 L 356.4294631239027,57.735000108368695 L 355.55899165757,56.08088096883148 L 347.5071298573166,50.624491763301194 L 345.4569402746856,47.54229991976172 L 345.0217044875026,45.47709115128964 L 345.26222961209714,41.876524719409645 L 344.9071688298136,39.91169850341976 L 344.025243666023,38.41773292887956 L 342.97151490300894,37.79876047838479 L 340.5433574728668,37.031295120716095 L 337.7028714288026,34.82829783950001 L 337.22182128950953,33.01350723858923 L 339.191835867241,27.45597147755325 L 335.5495996642858,24.085225249640644 L 335.3090746514499,23.689720766618848 L 335.3090746514499,22.874048912897706 L 336.7407712601125,21.259405287913978 L 337.6570571884513,18.36037796549499 L 338.66497148759663,16.86182195134461 L 339.7416073139757,16.244359145872295 L 342.1583112683147,15.758651919662952 L 343.2005864419043,15.091877106577158 L 344.46047945320606,12.449967635795474 L 344.03669725358486,9.743035146035254 L 341.2763862144202,4.356318495236337 L 337.7372320815921,0.0 L 334.4042424224317,0.6245480058714747 L 330.7734598070383,2.2436472522094846 L 326.3867412749678,0.9039652049541473 L 326.79906988702714,3.3533532666042447 L 327.4633772112429,5.244284228421748 L 327.91006658785045,7.217860279604793 L 327.72680929116905,9.973380111157894 L 327.10831642895937,12.05498355999589 L 326.18057702481747,14.13707732129842 L 324.2563766874373,17.56989911571145 L 323.16828727163374,20.114505278877914 L 322.4467122294009,21.12761066481471 L 321.70223001018167,21.71246429439634 L 315.3454970084131,25.131749546155334 L 313.6503682099283,25.733351211063564 L 311.7490751594305,25.856972976587713 L 314.3032219465822,31.537203167565167 L 317.4758615978062,35.405809429474175 L 319.11372256837785,39.15230309590697 L 316.2961435895413,42.88387463521212 L 314.6239218544215,43.47017203364521 L 311.22221077792346,43.387592610903084 L 309.4469069726765,43.635333359241486 L 308.5993425734341,44.21342213638127 L 307.78613882511854,45.70837044622749 L 306.8698530085385,46.047040436416864 L 306.1826386190951,45.72489065118134 L 304.46460275352,44.196904765442014 L 303.6743061821908,43.75094808079302 L 301.727198779583,43.85004759859294 L 296.5616373755038,46.87311926018447 L 294.4198191985488,47.616656482219696 L 293.34318337216973,48.170219384133816 L 286.3450503349304,58.537359916605055 L 283.19531774893403,61.7806317480281 L 280.137213755399,63.32822599261999 L 277.23945988342166,64.49530898220837 L 275.2007238883525,66.18412837013602 L 273.9866451174021,68.75937488581985 L 273.5514093283564,72.66922960244119 L 273.92937728762627,76.79634481854737 L 275.72758815810084,85.11033074744046 L 276.1055561173707,89.7372293844819 L 276.0482882875949,94.58668039832264 L 275.59014532342553,98.21722040232271 L 274.0668201223016,100.42785094399005 L 270.8827268835157,100.98890793137252 L 264.70925106853247,99.65489793755114 L 261.6969613172114,98.00948301237077 L 259.3375254124403,95.50040459260345 L 258.4097860082984,93.46126920543611 L 258.83356809802353,92.78027857281268 L 259.5665967296809,92.21974680386484 L 259.6124110799283,90.5923317167908 L 258.9481038656086,89.12293537333608 L 257.8485608641058,87.79902936238796 L 256.5772142633796,86.82386602927 L 253.43893526680768,85.23064066376537 L 247.987034605816,78.01496055349708 L 245.6963198967278,76.41504418104887 L 240.88581927493215,75.3375443816185 L 238.49202260747552,74.22702934592962 L 236.32729725539684,72.02298949938267 L 235.21630066633224,70.4572973176837 L 234.74670422449708,69.10721516702324 L 235.13612566143274,68.4860813273117 L 237.72463321313262,66.22552521433681 L 241.00035504437983,59.88581997063011 L 241.30960158631206,54.01366902887821 L 238.90435121953487,48.831235483288765 L 234.05948983505368,44.618106845766306 L 232.8568646516651,44.21342213638127 L 230.5661500543356,43.96566513739526 L 229.45515357330441,43.106828139163554 L 228.66485700383782,41.463709832169116 L 228.42433198913932,39.63104472029954 L 228.41287839971483,37.84002392459661 L 227.82874619029462,33.2939505148679 L 226.46577099896967,30.250793212093413 L 225.07988862879574,28.44518772047013 L 224.2895920574665,27.785697855055332 L 223.22440982051194,27.45597147755325 L 215.3672589045018,25.67566145490855 L 213.76892215758562,24.38711452204734 L 212.5649113059044,22.077518306672573 L 212.26390859298408,19.047089432366192 L 209.98310089670122,18.94229981955141 L 209.5030295215547,17.042952495627105 L 209.59465800225735,16.21142880152911 L 209.33122581243515,15.676331371068954 L 207.94534355401993,14.919017784297466 L 207.30394340492785,14.95194299519062 L 205.32247534953058,15.56108382716775 L 202.27582494542003,15.503460619598627 L 196.94991352967918,17.45462687779218 L 195.86182411573827,17.331122485920787 L 194.0979737881571,16.71362705156207 L 192.73499870672822,17.182919717393816 L 190.49009834975004,20.633398378267884 L 188.82933031395078,22.182022554799914 L 187.08838727138937,23.187126151286066 L 175.79516429454088,26.02180484868586 L 173.93968548439443,25.057582466863096 L 172.86304954625666,23.244799492880702 L 171.64897088706493,21.65480079781264 L 169.32389563508332,21.35825250670314 L 166.0252665169537,19.925075687468052 L 159.47382285445929,15.116571526043117 L 155.92321524582803,13.86547212023288 L 147.59646766632795,14.754392933100462 L 146.141863880679,14.252306300215423 L 143.0264920592308,12.318304476328194 L 136.18870902992785,9.504469967447221 L 132.84426578134298,8.879294951446354 L 129.22493675537407,8.813489542342722 L 125.82322545722127,9.51269618049264 L 123.2461716029793,11.05937313195318 L 118.27532097138464,16.63953045476228 L 117.50793157704175,17.92395889479667 L 116.9123457800597,19.52975742612034 L 116.13350290618837,22.445645235478878 L 114.86215619556606,25.758075393736362 L 114.4612811729312,27.45597147755325 L 113.92296320386231,27.81867121811956 L 106.42087296023965,36.313404181972146 L 103.90108693577349,37.42739798966795 L 102.97334753163159,37.04779907129705 L 101.3354865591973,35.58732081297785 L 100.28175790980458,35.73583300691098 L 99.30820415355265,36.478431328199804 L 99.239482736215,36.97353161498904 L 99.46855416148901,37.641961079090834 L 99.42273992113769,38.87992709875107 L 99.5830899309367,39.03674867283553 L 99.54872927814722,40.704180729575455 L 99.35401850380003,42.28935926128179 L 99.04477196186781,42.132479815743864 L 101.22095079161227,45.270597024820745 L 101.3354865591973,46.493113345466554 L 99.6403577607125,48.13716983329505 L 90.82110656425357,50.08730298373848 L 89.85900650732219,52.773574645631015 L 90.87837450392544,58.25611202325672 L 92.80257473140955,63.99038170091808 L 96.73115029931068,71.650180388242 L 94.21136427484453,76.00060552544892 L 90.28278870694339,80.18318814225495 L 88.16387770697474,83.84924970474094 L 88.7594635039568,85.70359930768609 L 91.68012466281652,89.13953752629459 L 92.4704211242497,91.82947164122015 L 92.22989610955119,94.87740066088736 L 91.19454929605126,96.4746277667582 L 89.52685290016234,97.30321278329939 L 73.01652753725648,101.5874084988609 L 65.6289729513228,101.8243261622265 L 58.52775773219764,100.41122755873948 L 49.07856008596718,93.91390794701874 L 45.482138235121965,92.99204435199499 L 41.839901922270656,92.82180084567517 L 38.42673725634813,91.71322302427143 L 34.83031529560685,88.5875388039276 L 29.332600282505155,81.21566827222705 L 28.737014485523105,79.026457128115 L 30.214525336399674,74.69939540978521 L 30.27179327607155,74.05300596076995 L 31.336975624784827,71.40164971444756 L 31.806572066619992,70.72236848715693 L 32.963382897898555,70.11768655665219 L 34.81886170618236,70.97087978944182 L 35.59770468994975,70.63124934118241 L 36.17038331180811,66.93757910188287 L 33.30699020251632,63.899332464672625 L 26.217228461056948,59.19088240433484 L 20.559163440018892,52.550376346334815 L 16.962741477414966,50.6988743506372 L 13.194516029208899,52.385047944262624 L 8.143490282818675,52.186657736077905 L 3.115371821448207,50.988145851530135 L 0.44668937660753727,49.39313834998757 L 1.924200227484107,52.864508991129696 L 2.771764626726508,54.47668228112161 L 3.115371821448207,55.84932894259691 L 1.1568108312785625,58.314015252515674 L 0.0,60.50634661037475 L 0.4123286120593548,62.43439490068704 L 3.115371821448207,64.15592829789966 L 9.75844407826662,67.4178340639919 L 10.331122810021043,67.47579764109105 L 11.865901600569487,67.11146148107946 L 14.946912659332156,67.94780109077692 L 15.42796279862523,69.0161127652973 L 15.382148446515203,72.23011257871985 L 16.17244490608573,76.77147691976279 L 16.538959277793765,78.02325096540153 L 20.1239276509732,86.06870757974684 L 19.975031228736043,87.84467806760222 L 18.62350962497294,90.2768473001197 L 16.997102241963148,92.03706262353808 L 11.018337201327085,95.7205434050411 L 12.289683690294623,96.94179077446461 L 12.49584805034101,98.00117368996143 L 12.266776625066996,99.08977119252086 L 12.186601620167494,100.81019702926278 L 11.682644415646791,102.23167332541198 L 11.682644415646791,103.05473875813186 L 12.117880202829838,104.03586725052446 L 13.37777310423553,105.39965215232223 L 17.237627256661654,112.03866318706423 L 21.154749237000942,117.00041048880666 L 18.47461320273578,120.00713359564543 L 18.131006008014083,122.13161917030811 L 19.6199704464525,124.08993595186621 L 34.52106886357069,137.76872188225389 L 42.4583948943764,142.1396070253104 L 43.557937897741795,143.07084251660854 L 46.478598944842815,146.3748163189739 L 50.155195912346244,148.33022224809974 L 51.32346033118665,149.20361143164337 L 52.57189986668527,150.77509655151516 L 52.99568195454776,152.1169345518574 L 52.949867714196444,154.84723015781492 L 51.54107828065753,156.55357665382326 L 51.23183184862137,157.46543803066015 L 53.13312489911914,163.52044409140944 L 53.90051429532468,164.91448682546616 L 54.51900715753436,166.46368512138724 L 54.702264454215765,168.70841844379902 L 54.34720356017351,170.50127061642706 L 52.86969270929694,173.3253434682265 L 52.41154985688627,174.79221201874316 L 54.06086430512369,180.48600603826344 L 59.432589961215854,183.60701622534543 L 71.3557593896985,187.3671409552917 L 78.74904071353376,193.01458321139216 L 81.28028032556176,196.68213954940438 L 79.95166589692235,199.6996886683628 L 81.44063033536077,202.28519308939576 L 82.48290550895035,203.31540555506945 L 85.2661237232387,204.3163005337119 L 85.67845233529806,205.3509605526924 L 87.68282767757773,206.46146498713642 L 87.54538473300636,209.24676435999572 L 90.8669209163636,210.40827162005007 L 98.12848614528775,217.14471692126244 L 100.23594355769455,220.63288625143468 L 103.45439755916595,223.9580663703382 L 110.97939497977495,229.49443872552365 L 110.53270571492612,233.5446018986404 L 111.24282716959715,236.89585907850415 L 113.32737751677632,239.0491151623428 L 114.93087772466242,239.41226639412344 L 116.54583152011037,241.60416439175606 L 117.70264235138893,242.28423047997057 L 118.83654600568116,242.5968253891915 L 119.87882117927074,243.26429560873657 L 120.73783916793764,245.05996217392385 L 119.58102833665907,246.72075799107552 L 116.27094574086368,249.5824713865295 L 114.23220974579453,248.59746140055358 L 101.04914730414748,247.29556066729128 L 101.59891875088215,249.3879970004782 L 102.97334753163159,251.94610815588385 L 104.61120850220323,254.09466179087758 L 107.46314813382924,255.77835133951157 L 107.63495173119009,258.86738008540124 L 110.54415919072926,259.51917971484363 L 112.34237028285861,260.56046799290925 L 113.99168473109603,261.97021741233766 L 114.82779554277658,263.3505559191108 L 114.2894775737077,265.3028841987252 L 113.14412033185363,267.5691562592983 L 112.86923455260694,269.39531574677676 L 114.93087772466242,270.0267230467871 L 115.91588495858014,270.8022731570527 L 116.9123457800597,271.0608055451885 L 117.9202601891011,270.8022731570527 L 118.92817470990121,270.0267230467871 L 121.80302140675485,269.60719211027026 L 127.32364359498024,270.5734149608761 L 129.93505821190774,270.0267230467871 L 131.3782084081322,269.1919191107154 L 132.85571937076747,268.9546292424202 L 135.86800901032984,269.2597175100818 L 133.85218019224703,264.6082959398627 L 134.48212664201856,261.93211303651333 L 136.88737700879574,260.4842720348388 L 140.14019177481532,259.4599230187014 L 140.598334627226,259.0916952257976 L 141.35427054576576,257.9109324775636 L 142.21328842267394,257.54700211714953 L 142.95777075365186,257.69934312906116 L 147.14977840147913,259.5276448968798 L 150.08189303800464,260.1456307154149 L 157.77869405411184,259.8154684891924 L 160.85970522277057,261.05999254621565 L 163.04733764007688,263.93070266675204 L 163.40239842422307,265.46383351646364 L 163.21914112754166,266.3872316777706 L 161.75308386422694,268.56481003109366 L 161.7416302766651,269.5732914758846 L 163.03588405251503,269.95468089170754 L 164.75392002798617,269.3529409347102 L 166.19707022607327,268.429224868305 L 167.6287667248398,268.2173773124814 L 169.5186062976718,270.0267230467871 L 169.6789564192295,270.92094272747636 L 169.56442064978182,271.3320607058704 L 168.7741240784526,272.44684017729014 L 168.53359906375408,273.1081462530419 L 168.68249548599124,273.6253572702408 L 169.32389563508332,273.9730080664158 L 170.46925287880003,273.72710710950196 L 171.3626315202564,274.02388489060104 L 171.84368165954947,274.96092214901 L 171.80932100676,276.60204260982573 L 171.43135304749012,276.5935606332496 L 169.32389563508332,278.1204637410119 L 174.1573033221066,282.0916804866865 L 176.81453229114413,283.5771150747314 L 180.77185503207147,285.07596183847636 L 186.4240799471736,286.7780373385176 L 188.93241249397397,287.0412962641567 L 187.47780870832503,282.92773643508554 L 186.29809070192277,281.78613728191704 L 183.40033671818674,281.81159876007587 L 189.12712315656245,278.77372170519084 L 191.5667341761291,278.44708660710603 L 200.79831398278475,280.368897812441 L 202.88286432996392,281.5569868767634 L 204.64671454764903,283.67473833076656 L 206.66254336573184,286.83748217113316 L 208.22022933326662,286.03925732150674 L 215.3672589045018,285.6062086718157 L 216.04301970638335,284.90149023756385 L 216.6156983282417,281.820086046122 L 216.91349117085338,281.1241639824584 L 231.3335394486785,281.1241639824584 L 236.315843667835,282.244456239976 L 237.39247949421406,282.978666389361 L 238.33167248778045,284.5236828448251 L 239.2708654794842,285.6062086718157 L 240.17569782026112,286.31098502129316 L 242.5809480752796,287.614548984915 L 244.6082304827869,288.2218138054013 L 245.91393784619868,289.8272383166477 L 246.48661646805704,290.2010311149061 L 252.4653815086931,291.21205165144056 L 254.46975685097277,291.22054805606604 L 257.3446036595851,290.33695958927274 L 258.6274037361145,290.2010311149061 L 259.22298964485526,289.48744098003954 L 260.597418313846,286.31947674788535 L 261.68550772964954,285.6062086718157 L 265.88896907679737,284.4854785306379 L 272.978730706498,284.4430296923965 L 276.39189548417926,285.02035437431186 L 276.5293383169919,285.8015025248751 L 277.82359209284186,288.6125244507566 L 281.21384958177805,290.86370334681123 L 284.5353857651353,291.2035552561283 L 286.2419681530446,289.5978737194091 L 287.55912910588086,287.3725041616708 L 288.78466135263443,285.86094044335186 L 290.2736257929355,286.36193501297385 L 290.99520094692707,287.6315348567441 L 291.20136530697346,291.15257656387985 L 290.70886158011854,293.10697353165597 L 290.9608401823789,294.0163444839418 L 291.36171531677246,294.3648206004873 L 292.4268975555897,294.6028123628348 L 292.5987011529505,293.3279332946986 L 293.3202763069421,292.9625029442832 L 293.9502227585763,296.8598121255636 L 292.94230834953487,296.95758634619415 L 291.1670045442879,297.68880268745124 L 289.62077216617763,297.952396042645 L 284.2375929225236,297.0341060915962 L 282.57682477496564,296.19667720329016 L 281.0420460961759,295.09581629373133 L 279.4041851237416,294.245827190578 L 277.43417054601014,294.16083295363933 L 275.1434560585767,295.46983815263957 L 272.3029699046165,297.6420368840918 L 270.012255307287,298.3690597526729 L 270.7223768737167,300.1507387543097 L 270.44749109447,301.5542304283008 L 269.9778945427388,302.75801362562925 L 270.1038838997483,303.9747293284163 L 271.19197331368923,305.22140355501324 L 273.9980987049639,306.76616919226944 L 275.1778167113662,307.8727840036154 L 276.0139275249094,311.1679357616231 L 276.5293383169919,312.3688095770776 L 278.0297563429922,314.58362784795463 L 278.9002279192209,315.10334105137736 L 280.137213755399,315.06926048360765 L 286.1045253202319,316.2621593102813 L 287.776746943593,317.1143317054957 L 286.745925469324,319.7139802519232 L 288.50977568514645,320.72848334815353 L 291.2700867243111,320.5750213675201 L 293.3202763069421,319.64578275289387 L 293.5951619744301,316.3132873252034 L 293.9845835212618,314.31100378278643 L 295.07267293706536,313.49744348041713 L 296.4471016060561,314.4004576122388 L 297.01978033967316,317.996419086121 L 298.02769474871457,319.05333915445954 L 299.4593913592398,318.576004342176 L 300.5245737079531,316.9524123277515 L 301.3950451724231,315.04370022937655 L 302.21970239654183,313.7317068921402 L 303.36505975201726,313.47188790980726 L 304.59059199877083,313.72744737099856 L 305.6786814145744,313.5144806243479 L 306.4117101561278,311.849261874333 L 304.63640635088086,309.00082655157894 L 304.26989198103547,307.92386187426746 L 304.739488421008,306.578910138458 L 305.6214135847986,305.48522808402777 L 306.11391731351614,303.1578941065818 L 311.9666929971427,303.24297742173076 L 311.06186076812446,304.2597889723256 L 312.058321589604,307.48970883805305 L 315.03625046648085,307.35350863821805 L 318.65557960420847,305.2384242741391 L 321.5189728233963,302.51979562919587 L 319.4802369400859,302.0433799577877 L 319.491690415889,300.8992389589548 L 321.14100497588515,299.24497026763856 L 324.3594588674605,296.83430604077876 L 327.0739556644112,296.1201649168506 L 331.4148598462343,296.53248909674585 L 335.4465174842626,297.8248498234898 L 337.2103677019477,299.7467456962913 L 339.3063716366887,300.5802679527551 L 351.66477674245834,299.1854397142306 L 357.7924383152276,299.1854397142306 L 359.2928564529866,296.83430604077876 L 363.43904986046255,296.8385570216924 L 367.7455932777375,295.83962580375373 L 398.1402582079172,276.8531822375953 L 398.9680330231786,272.9724897099659 L 402.24375496432185,268.022482345812 L 406.3670411966741,266.133075513877 L 409.5396809577942,263.32938342913985 L 409.44805236533284,256.38760640472174 L 408.3714164271951,253.9000855172053 L 404.0763265993446,248.45796267222613 L 403.5609158053994,246.99124865792692 L 402.98823718354106,244.10926876962185 L 402.56445498391986,242.98547269403934 L 398.78477594815195,238.41574901528656 L 393.3901431169361,229.24980221316218 L 391.47739636711776,223.74730708170682 L 391.21396417729557,218.25673422031105 L 392.06152857653797,215.56118126027286 L 393.26415375992656,213.21168043930084 L 394.19189316406846,210.60187130235136 L 394.24916099384427,207.1261530155316 L 393.19543223269284,204.9555882839486 L 391.50030354224145,203.2060711812228 L 390.2060497663915,201.46111130248755 L 390.33203912340105,199.94349185191095 L 392.8289179727435,199.20369619131088 L 399.5979795847088,198.07310786098242 L 401.87724059447646,198.80019799806178 L 403.95033735223114,198.24962109141052 L 409.75729879550636,198.97252312954515 L 411.6127776056528,198.69092037249357 L 432.5499090049416,192.06958781089634 L 432.3666517082602,190.21769538428634 L 432.8362482599914,189.81461464241147 L 433.5234626494348,189.86919742263854 L 433.947244849056,189.36536984704435 L 433.947244849056,188.408177588135 L 433.48910188674927,186.8550639823079 L 433.2142162192613,183.04481601249427 L 432.8591554351151,181.29551512096077 L 433.04241251014173,179.7730292668566 L 434.45120205543935,177.76861990615726 L 437.20005961693823,175.6556845223531 L 449.05450751818717,171.8210124503821 L 453.3381437584758,167.73674640432 L 455.8350227177143,166.28781631682068 L 460.62261627428234,164.74702238850296 L 462.91333076171577,164.6591049656272 L 465.7767239809036,165.47551598306745 L 470.6101318895817,167.94196111056954 L 471.7440355438739,169.59642044082284 L 472.0418283883482,170.83642413280904 L 472.13345698080957,172.20230854395777 L 472.66032136045396,174.2557285008952 L 474.3439966849983,177.1019837083295 L 476.1422075536102,177.4373915772885 L 478.2954792063683,176.87139798048884 L 481.0557903572917,177.00136367604136 L 481.11305818520486,180.0330493953079 L 483.0487121101469,183.75806132238358 L 485.8433839138597,186.9725871803239 L 489.0618379153311,188.82378746569157 L 489.66887718997896,188.94553551543504 L 490.28737016394734,188.82378746569157 L 490.88295585103333,188.44176153559238 L 492.0283132046461,187.18245387356728 L 494.34193497896194,183.44758265465498 L 498.110160427168,180.44406463764608 L 499.0951677709818,179.26139972358942 L 499.6907534580678,176.52343499660492 L 498.31632478907704,171.0123850721866 L 498.57975697889924,167.55247593298554 z" /></g></g></svg>