<svg xmlns="http://www.w3.org/2000/svg" xmlns:xlink="http://www.w3.org/1999/xlink" width="333.69421722367406" height="500.0" viewBox="0.0 0.0 333.69421722367406 500.0" preserveAspectRatio="xMinYMin meet"><g transform="matrix(1,0,0,-1,0,500.0)"><g><path fill-rule="evenodd" fill="#D2EBD9" stroke="#A6A6A6" stroke-width="0.25" opacity="1" d="M 122.03877219557762,22.158939064713195 L 64.37378427013755,22.15221811248921 L 63.49620542675257,22.29559886350762 L 60.75601038150489,23.664452676777728 L 59.22472487576306,24.130452062236145 L 58.127751341089606,24.880987024051137 L 56.569601183757186,26.45601900247857 L 56.57855608314276,29.057261010515504 L 56.08085445873439,29.788713325629942 L 56.62731406278908,30.30211111647077 L 56.93051099218428,31.31480551045388 L 57.09268610924482,39.379936352488585 L 58.40418906509876,45.19263374025468 L 59.31730538792908,47.689782645436935 L 59.46890385262668,53.192763865110464 L 59.909597055986524,55.16607831988949 L 60.57592516578734,56.9629584235372 L 62.31049364246428,59.340662792208605 L 62.84637659415603,60.52691198303364 L 62.94509183615446,61.903846205212176 L 61.28455984406173,68.23298254876863 L 60.52304198592901,69.25702755211387 L 60.52304198592901,69.52893317851704 L 60.93553085438907,69.51833944825921 L 61.707625322043896,69.82555945264176 L 61.707625322043896,70.11865641037002 L 60.565348556265235,70.17692289175466 L 59.909597055986524,70.71191897790413 L 58.49585323408246,73.24397060996853 L 55.27350453659892,77.2877975536976 L 53.45784854516387,78.86481991386972 L 49.25892369262874,81.72763307346031 L 50.21787207759917,81.9395705210045 L 51.27553579211235,82.46765291155316 L 54.83281133323908,85.18588681868277 L 55.78823418170214,85.553277769126 L 56.94813871756196,85.5833050783258 L 55.562599275261164,85.98426005954389 L 54.34981156140566,85.50912004394922 L 53.22516252286732,84.77787490002811 L 52.0652579870075,84.39636105741374 L 49.10027411207557,84.12965681217611 L 48.571442276239395,84.3733997103991 L 48.35990956053138,84.92800867161714 L 48.56086562387645,85.52148422109894 L 49.25892369262874,85.87828038528096 L 47.9791506100446,88.93061092402786 L 45.92375752143562,91.79239098227117 L 45.334991389885545,92.89123067201581 L 45.09172871336341,93.90883440000471 L 46.63591773621738,92.52730273955967 L 47.1859028339386,91.24121660215314 L 47.7358879763633,90.98329801345244 L 48.48682918213308,90.89320354443043 L 50.14736117236316,90.91616880137008 L 47.912165239453316,91.77825819759164 L 47.32339910976589,92.573235168471 L 46.96731900051236,93.47422940144315 L 47.094238666817546,94.58195214020088 L 47.59839170239866,95.61903669219464 L 48.34933290630579,96.3045531976968 L 49.992237171158195,94.83636201673653 L 50.887725768610835,94.6225869167829 L 51.324893433600664,95.68617434648331 L 52.78446931950748,94.95826735999435 L 53.34150553308427,94.53955064201728 L 53.694060103967786,93.90883440000471 L 53.947899390012026,94.36994522053283 L 53.95495046488941,94.82576155406423 L 53.426118629053235,95.68617434648331 L 54.01841029711068,95.68617434648331 L 51.98064489103854,96.42116295569576 L 51.02522204257548,96.98301513749175 L 50.739652840420604,97.7887050594436 L 51.30021459236741,98.3717812175164 L 52.41781255789101,98.75873694801703 L 54.55781878530979,98.97607006540056 L 54.28635177202523,99.56976717361249 L 54.55781878530979,99.67048461956438 L 54.55781878530979,99.89312417281326 L 50.24255092069507,99.15099764964543 L 48.93457345850766,99.27291737718042 L 48.254143157973886,100.01858038688079 L 48.46215038187802,101.12296754762065 L 49.16373394429684,102.12136294017546 L 49.99928824417293,102.55960553104524 L 50.71144846081734,103.20991096098442 L 52.58703874796629,106.06397530110553 L 53.85976075939834,106.71081119903829 L 54.229943012818694,107.37886751664337 L 54.13122777082026,107.63336857117247 L 52.61171759106219,106.73201912723016 L 51.917185101658106,105.8200894575566 L 51.62103924714029,105.8200894575566 L 51.62103924714029,106.71081119903829 L 50.85247031413019,106.12759793712758 L 49.44225203059614,103.97509552887641 L 48.6666320245713,103.12685501831584 L 47.721785785630345,102.63735883159097 L 46.540727987885475,102.30514143605251 L 45.67344377189875,102.46948263526428 L 45.68402038142085,103.45024430088233 L 45.09172871336341,102.85648264118936 L 44.256174413487315,103.29473429289646 L 43.4735032916069,104.09349739435129 L 43.0398611612618,105.09374399110675 L 43.2866493742913,106.11699417803902 L 42.673204401507974,106.77266769623384 L 42.17257694527507,106.57826186623424 L 40.95273815654218,105.22805490961764 L 41.25240954943001,104.82865820243023 L 42.42641623131931,104.34090553945862 L 42.912941539660096,103.10741637542378 L 44.12572921253741,102.00473477190826 L 44.510013699531555,101.28200213471428 L 43.90714537911117,100.45679714775179 L 42.673204401507974,100.9003203586908 L 42.10206604003906,101.34561616799328 L 41.545029824599624,102.26273095281795 L 41.10433662123978,102.54900280758739 L 40.95273815654218,103.12685501831584 L 40.416855204850435,103.06323779199738 L 40.036096297204494,102.89359244436491 L 39.81398692727089,102.58611233171541 L 39.73995044268668,102.10369198361877 L 40.910431588068604,101.39862793462817 L 41.22067963331938,101.04875167831779 L 41.31939487531781,100.53984689840581 L 40.95273815654218,99.12449343816843 L 41.07965777814388,98.79230864474084 L 42.10206604003906,98.08554264868144 L 40.861073944717646,97.64735468151048 L 39.29573170281947,97.49186984682456 L 36.32369671203196,98.08554264868144 L 35.03334701806307,98.7375337985577 L 34.55034724622965,100.22001807426568 L 34.76893107779324,101.82449202763382 L 35.57275550626218,102.85648264118936 L 35.57275550626218,103.12685501831584 L 34.50098964571953,102.88475675066002 L 34.01798987388611,102.1620062040165 L 33.7606250513345,101.40392910258379 L 32.286946976557374,100.03978433273733 L 31.003648355603218,100.26419317291584 L 30.570006227120757,100.18821204395499 L 30.679298164322972,101.59123802138492 L 30.56648069061339,102.09308943990618 L 29.953035758808255,102.55960553104524 L 28.65563494898379,102.64796153805219 L 27.449898350983858,102.41116790939122 L 26.78709577769041,102.51719474338461 L 24.48138889670372,103.97332830098458 L 20.19432541169226,106.11699417803902 L 20.11676343344152,107.34175294474699 L 20.94174108095467,109.94517298648134 L 21.05103302001953,111.1859768293798 L 19.721902292221785,112.42152334353887 L 18.68186634965241,113.88161274977028 L 17.930925101041794,115.55566825845744 L 16.883838083595037,121.74529120931402 L 17.11299852654338,122.81325854035094 L 18.2376476097852,124.74771482811775 L 18.65718750655651,125.77687984530348 L 17.698239121586084,124.7052757354686 L 17.13415179029107,124.40113073249813 L 16.883838083595037,125.0200335624395 L 17.296326907351613,126.64161686610896 L 17.179983895272017,127.25879562518094 L 16.841531513258815,127.57357916259207 L 15.893159737810493,127.91489303729031 L 15.554707357659936,128.6205228168983 L 14.814342761412263,129.53309049585368 L 14.493518106639385,129.66042770200875 L 14.324291916564107,129.09448871738277 L 15.66752483136952,127.0554259205237 L 15.970721760764718,126.07042799738701 L 15.716882474720478,125.39845441817306 L 15.322021333500743,125.23576823342592 L 14.96946676261723,125.52223792439327 L 14.814342761412263,126.20836119458545 L 12.716643104329705,127.85653342166916 L 12.755424136295915,126.84144704369828 L 12.959905780851841,126.50898692407645 L 13.3336136136204,126.34452662011608 L 12.758949672803283,125.29412298137322 L 12.568570218980312,125.15619381540455 L 12.275949900969863,125.26229311327916 L 11.41571675799787,125.76980644871946 L 10.915089301764965,126.28970666811801 L 9.490768870338798,126.9581626082072 L 8.70104663260281,129.31378884555306 L 6.769047629088163,132.10115966317244 L 6.5011061523109674,133.81686414324213 L 5.788945937529206,132.7219857745804 L 6.078040676191449,131.46089074830525 L 6.7337921764701605,130.15386428602505 L 7.826711298897862,126.12171078263782 L 9.1628930978477,125.15619381540455 L 9.427309038117528,124.03156313614454 L 8.517718251794577,123.51700496370904 L 3.102480148896575,123.10854721302167 L 2.615954838693142,123.34195100911893 L 2.827487599104643,123.88126180542167 L 3.842844743281603,124.88564219919499 L 3.321063982322812,125.13320565095637 L 2.8380642514675856,125.13674232072663 L 2.4960862901061773,124.90332523814868 L 2.2246192786842585,123.96967427898198 L 1.8755902871489525,123.799922531005 L 0.8884374778717756,123.96967427898198 L 0.22563490644097328,124.63631237007212 L 0.0,125.67431549087632 L 0.21153271570801735,126.45239833858795 L 0.8884374778717756,126.34452662011608 L 2.037765361368656,128.44720875879284 L 1.4419481568038464,128.0086223988328 L 0.8954885955899954,127.99977997515816 L 0.4794741924852133,128.37116307532415 L 0.2679414749145508,129.06972910056356 L 0.37370783276855946,129.64627909264527 L 1.4525248110294342,131.1195374330273 L 2.7111445870250463,131.97911842388567 L 2.9544072207063437,132.3310937603237 L 2.7111445870250463,133.90176752058323 L 2.9544072207063437,134.43595675949473 L 3.250553075224161,134.1122581618838 L 3.0954290740191936,135.8333844000008 L 3.1765166334807873,136.70371421135496 L 4.640217715874314,137.88638631079812 L 4.210383148863912,140.0365626149578 L 4.590965865179896,140.7027673892444 L 5.77301075309515,141.57795676589012 L 6.037179889157414,142.36441390018445 L 8.383359998464584,145.9711574401008 L 9.6952507738024,149.3086460524937 L 10.537010069936514,150.59879861248191 L 10.971322042867541,151.06295348482672 L 12.417536109685898,151.57881515659392 L 12.730957137420774,152.13964297506027 L 13.890614869073033,158.04982545343228 L 13.438393143936992,160.13859363086522 L 13.715994579717517,161.19090904959012 L 14.647302724421024,163.03143723553512 L 14.93385910242796,164.0051590129733 L 14.696554575115442,166.61617145547643 L 14.965201158076525,167.55853928765282 L 17.08750913105905,170.03719851537608 L 17.280039213597775,171.08766458090395 L 16.83677234314382,172.24840126023628 L 14.181648653000593,174.70389478979632 L 13.61301338672638,175.80517665029038 L 13.944344211369753,176.4306453432655 L 14.709986921399832,176.9987554718973 L 15.471152225509286,177.93363442004193 L 15.66368230804801,179.027183713275 L 14.817445563152432,180.4774490041891 L 14.736851571127772,181.36070144700352 L 15.198028236627579,182.07745332852937 L 16.72931370139122,183.10592219117098 L 18.050159372389317,184.55868067406118 L 19.926207963377237,184.08492103102617 L 20.691850716248155,184.1794471903704 L 20.942587547004223,185.98789324611425 L 21.17541458271444,186.2838746740017 L 21.869418198242784,186.64400912553538 L 23.34249695762992,188.5820756665198 L 27.340853521600366,192.7502436740324 L 33.2824203632772,197.5541831025621 L 34.38834875077009,199.10804996429943 L 35.62412302568555,201.72621734184213 L 36.215145491063595,202.40079633437563 L 36.810645362362266,202.7285206078086 L 38.55237070471048,202.7735689614201 L 39.761280328035355,203.5067440556595 L 41.07317110337317,206.04882850660942 L 42.34924232959747,206.84744291519746 L 45.223760752007365,208.03246391471475 L 45.90880951471627,208.70498033973854 L 46.92071160674095,210.62914388638455 L 47.56546337157488,211.17217610694934 L 48.85048954002559,211.43243075127248 L 50.923545617610216,211.44482389022596 L 51.46531623415649,211.8752087597968 L 54.792056338861585,222.44824753329158 L 55.60247349366546,223.36583207163494 L 56.63228538073599,223.29143179999664 L 58.31580393202603,222.62973217095714 L 59.33218351751566,223.0580872935243 L 69.93924588896334,232.07813830010127 L 70.95562542974949,232.65781180688646 L 71.56008024141192,232.52924464654643 L 71.91379822231829,231.82101215131115 L 72.53616278618574,228.60946277622133 L 72.98838455602527,227.7592980704503 L 73.89730545505881,227.04897507000715 L 75.0927827320993,226.6926952546928 L 86.25057061761618,226.85279489634559 L 86.45653296075761,228.5170028801076 L 87.34306670166552,229.8250111642992 L 88.04602521471679,230.23321699700318 L 88.30123945139349,233.57584996602964 L 88.66838977858424,235.21804651257116 L 89.20568294636905,236.80397574836388 L 89.83252495899796,238.03355193452444 L 90.63398725911975,237.00476379087195 L 90.86681429482996,234.85711276973598 L 91.65036680176854,234.2322614021832 L 92.79211477935314,233.85329963546246 L 95.82334365136921,232.24053543573245 L 99.38291079178452,230.8962869021343 L 100.80226020887494,229.93100857245736 L 101.50969621352851,228.19001376326196 L 101.90818863920867,226.20338418567553 L 102.77681254409254,224.29698465531692 L 104.16034245491028,222.9081620379584 L 108.19899601489305,222.16644209518563 L 109.67655217833817,221.00093504379038 L 110.509356578812,219.24828644667286 L 110.71084151603281,213.73542537470348 L 111.44066472165287,210.36777220340446 L 112.29137887246907,208.29155496077146 L 113.00329228304327,207.6325685919728 L 114.16742746345699,207.47035953914747 L 118.12548702955246,207.88602257170714 L 119.15529896132648,207.45684220071416 L 120.03735521063209,208.0775230146246 L 121.9268361479044,207.77562889747787 L 122.99694498814642,208.03021098172758 L 124.10735086910427,208.581064549624 L 124.953587571159,209.37301103398204 L 125.49088073708117,212.17490586312488 L 126.14010995067656,213.64979108970147 L 127.28185788728297,214.5771384339314 L 128.99224113114178,214.74728791054804 L 130.16980865597725,215.40761570620816 L 131.19514305144548,216.83764419483487 L 132.44882707856596,219.7768835577881 L 132.73090600781143,220.93781459820457 L 132.8428420983255,222.12135360995308 L 132.63240226358175,222.90478030522354 L 131.6787069197744,223.98471703822725 L 131.3966279886663,224.63744061265606 L 131.63840992376208,225.80653202405665 L 132.42196242883801,226.9136782089481 L 135.08604101650417,229.3671987839043 L 137.59340906888247,230.9526713967789 L 138.08592779003084,231.95634130830877 L 140.1903259679675,232.21346912020817 L 140.44106275588274,232.55631138186436 L 140.64254769310355,233.36832910147496 L 143.1275285873562,235.46168041345663 L 144.2155472226441,235.9444452560274 L 145.45579890348017,235.61508109176066 L 145.87220108136535,235.7865302239079 L 146.26621610112488,236.77690341195557 L 145.72892289236188,237.87110819132067 L 144.04092693515122,239.7167274892563 L 141.8872768636793,242.84654970350675 L 141.2783446032554,243.36560209165327 L 140.2485327590257,243.56194283417426 L 139.99779592826962,243.81696309091058 L 141.9947355054319,245.6179970134981 L 144.68120125122368,249.63142598210834 L 149.94219673797488,254.7882619437296 L 151.09737702086568,256.5180564079201 L 152.31971899047494,257.48915926297195 L 152.4898617863655,258.3790044838097 L 151.87197467125952,260.9426271256525 L 151.8003355767578,261.86426210205536 L 152.23017010092735,263.7234837025171 L 153.78832025825977,266.5680258736247 L 158.09114295057952,272.5771365282126 L 159.7298870999366,274.2972984468797 L 159.97614643909037,274.93251164839603 L 159.32243977673352,278.40963068732526 L 159.31796232797205,280.1088739654515 L 159.56422166712582,281.17169080802705 L 161.33281165920198,283.69783503981307 L 161.66414243914187,284.6387304980308 L 161.70443939231336,285.5095564327203 L 161.014913180843,289.0453332590405 L 160.90745458193123,291.0374964582734 L 161.24326276779175,292.9269286610652 L 162.2372551523149,294.3481008071685 L 163.18199559859931,294.7430177330971 L 164.8476043548435,294.46125658857636 L 165.76100274547935,294.59025509736966 L 166.2759086675942,294.96028251119424 L 167.22512660734355,296.4416049621068 L 168.90416770800948,297.75442118512 L 168.75641207024455,299.5891405940056 L 167.38631454855204,302.7067017497029 L 168.57731437683105,302.3206539353123 L 169.79517885670066,302.27763446746394 L 171.523471808061,303.21389841171913 L 172.3115017618984,303.3056030656444 L 174.27262179367244,302.4995253563393 L 174.9128961544484,302.37499441520777 L 175.58003516308963,302.53575277212076 L 180.01718114875257,304.886172721046 L 180.78730135038495,305.7353951196419 L 182.11710187606514,308.9005510599818 L 182.6096205972135,309.14404998905957 L 184.31552634947002,309.01040830113925 L 184.89311651140451,309.2573065061588 L 185.82890210486948,310.55301745736506 L 186.31246592849493,312.433341277414 L 187.28854851610959,320.6980456970632 L 186.9751274883747,322.2973206372699 L 187.02437938190997,324.0690668064635 L 187.89300332963467,326.15846533316653 L 189.89442031271756,329.76994147873484 L 190.32873228564858,331.33725495811086 L 190.36902923882008,333.0748683384154 L 190.01978870667517,334.3906854604138 L 189.59890908002853,335.27892592235 L 188.16164986789227,335.6181271747919 L 188.46611599996686,336.4156768079847 L 191.6540554072708,338.0846535611199 L 193.3868258073926,340.19070809765253 L 193.9688934199512,340.6525814998895 L 196.96878019347787,341.96678526257165 L 200.37611429020762,342.4945418504067 L 203.1969033703208,343.62275479524396 L 204.41029040142894,346.7388354680734 L 204.6252076420933,349.5853129851166 L 205.18488805182278,352.5481854202226 L 206.0132150016725,354.3234698884189 L 206.1206736434251,355.0277371952543 L 205.6460646316409,356.01717653218657 L 204.38790315575898,357.33161057322286 L 203.94463632814586,358.03602353914175 L 203.8729972783476,359.0302130583441 L 204.20432801358402,359.9222013229737 L 205.22518500499427,361.5370109403739 L 205.4042827412486,362.58031309663784 L 204.7147565316409,364.8626594794914 L 204.7013241853565,365.74136920052115 L 205.47144438698888,367.2408711683238 L 206.9176584519446,367.79910379624926 L 210.31603765301406,368.1708921259269 L 212.14283439144492,369.13167478039395 L 213.06518768146634,369.84008065378293 L 213.57113870605826,370.4973493347643 L 214.26066491566598,371.982571294182 L 214.3546912111342,372.57056245428976 L 213.98754088394344,373.97751958761364 L 214.000973187387,374.54966958938166 L 214.9681009221822,377.28448433685116 L 216.44565708562732,385.59804957092274 L 218.07096884399652,391.1102128593484 L 219.26196871697903,393.64900189149193 L 226.9788416158408,404.74038070673123 L 227.52508968114853,405.96484472963493 L 227.23853334598243,407.6398330091033 L 227.43106338568032,408.5452601942234 L 227.9101497605443,409.30363248777576 L 228.60863091051579,409.90465984435286 L 230.25632991455495,410.8649928207742 L 230.77571328543127,411.5504998055985 L 231.51896879449487,413.30606564087793 L 232.55773558095098,415.1577114199754 L 233.99051734246314,416.99136671365704 L 235.6203065942973,418.65637580154 L 237.28591534867883,420.0054324606899 L 238.62019336782396,420.0099980455125 L 240.32609911821783,419.51464230567217 L 243.36180543899536,418.2147106521297 L 244.257294036448,418.0823281798512 L 245.2199443206191,418.3299757936038 L 246.9168951753527,419.3811050236691 L 248.1078950036317,420.62522479787003 L 250.1451315358281,421.1354633565061 L 254.0046874023974,424.72141181642655 L 254.8195819631219,425.1804320863448 L 257.38515680655837,425.9888966198778 L 258.29407774843276,426.5267599414801 L 259.88356996141374,427.9611750666518 L 260.7924909032881,428.51511343743186 L 263.7744679246098,429.7350067854859 L 264.74607302062213,431.60277172818314 L 265.238591786474,433.6227875687182 L 265.22068199142814,434.7426216886379 L 264.9699452035129,435.6317052700324 L 263.2192650064826,437.99757486593444 L 262.89688912406564,438.1941797109321 L 261.98349073156714,438.2513328846544 L 261.58947575464845,438.78629943565466 L 261.52679155766964,439.1726787108928 L 263.3177687507123,441.67415152071044 L 263.64014463312924,442.417375362711 L 264.56697532720864,446.9234305846039 L 265.05949405021966,448.3213355813641 L 265.22068199142814,449.80635875754524 L 265.13561059348285,450.6050065738382 L 264.31623849645257,452.5160279024858 L 264.2311670985073,453.36521465540864 L 265.0057647060603,453.8779604447773 L 264.9072609618306,454.3426554927137 L 265.65499396435916,457.520466528018 L 266.2370615750551,458.57839984458406 L 267.07434337958694,459.4348915889859 L 267.0027043297887,459.90667566272896 L 266.7922644931823,460.328091045958 L 266.27735857106745,460.6029352948535 L 264.7505504693836,459.94561012939084 L 264.50429113022983,460.14944572083186 L 264.22221220098436,461.0701852546772 L 261.81334789283574,462.72174231300596 L 262.40437040291727,463.0241330836434 L 262.40437040291727,463.35402278171387 L 261.9297613892704,463.55791758175474 L 260.3357917293906,464.8409329386195 L 260.2507202886045,465.25106937473174 L 260.4745924696326,465.9041097579757 L 260.3357917293906,466.3555309851654 L 259.15374675393105,466.98800851532724 L 256.38220956735313,467.6686477550538 L 247.47657554224133,467.9413730275119 L 246.8094365336001,468.08346767909825 L 246.23632382042706,468.4341281437082 L 245.84230884164572,469.1079760962166 L 246.0840907767415,471.8335647024214 L 245.79305699281394,472.77815786236897 L 245.73485019989312,476.2064000243554 L 240.86339228600264,499.85980073700193 L 256.16729232668877,500.0 L 256.91502528451383,499.51735441898927 L 259.914912102744,495.0136832615826 L 260.0447579026222,494.2774158923421 L 259.9775962997228,493.3723680409603 L 259.30597984045744,491.339724975056 L 259.2835926413536,490.77363689697813 L 259.7313369177282,490.12950262916274 L 261.8357351385057,488.31211929768324 L 261.8357351385057,486.6350615505362 L 262.0864719264209,486.0324840066023 L 262.7177913878113,486.1438149512978 L 262.77599813602865,485.2991046443349 L 262.973005624488,485.0558031135006 L 263.38940780237317,485.12007092428394 L 264.2177347522229,485.76162157801446 L 264.50429113022983,485.83048428979237 L 264.84009936079383,485.69046386063565 L 265.0953135974705,484.921530438005 L 266.83703889511526,483.7705237950431 L 268.1175876148045,484.11478070367593 L 268.8071138244122,483.8715047604637 L 269.10262505710125,483.1417084604036 L 268.4668281469494,481.6845518463524 L 268.9683017656207,480.95260226528626 L 269.626485876739,482.0493970202515 L 269.8548354636878,482.19166690227576 L 270.6339105218649,481.6822572344681 L 271.3592563215643,480.0968089152593 L 272.11146672815084,480.0073329511797 L 273.5397710427642,480.3445923094405 L 274.04124461859465,479.4314914277056 L 275.4740263801068,473.98193882394116 L 274.9635979067534,473.0601752655348 L 274.8561392650008,472.2760464871535 L 275.4740263801068,471.8335647024214 L 275.38895498402417,472.05365713033825 L 275.56357522681355,472.0788763364544 L 276.0650488473475,471.8335647024214 L 276.0650488473475,470.9532369461376 L 276.660548761487,469.8643828064669 L 277.39932686463,466.50448091723956 L 277.2515712697059,463.0241330836434 L 276.95605999417603,461.20990575116593 L 277.4799208138138,460.4517701449804 L 277.5426050107926,459.99828640103806 L 277.3635073173791,459.70284427702427 L 276.817259253934,459.4326013959944 L 276.95605999417603,458.7867918211268 L 277.17545468360186,458.47993021062575 L 278.2858605645597,457.7151007974753 L 279.8484881259501,456.1123255181592 L 280.36787153966725,456.1878800393315 L 281.10664964467287,456.74425098579377 L 281.88572470098734,456.82896819803864 L 282.6916644498706,456.4878133654129 L 283.5155139528215,455.76432296680287 L 283.1438862197101,455.01111561153084 L 283.13045382872224,454.48229643679224 L 283.6722244452685,453.70170163258445 L 283.5155139528215,452.54578276572283 L 283.9587807804346,451.8980594360037 L 284.70203633233905,451.2572369942209 L 284.89008892327547,450.76291173906066 L 283.64983724430203,450.56610269565135 L 283.4662621021271,450.3692969321273 L 284.1199687216431,448.79725520976353 L 283.19313802570105,447.6944317732705 L 283.2871643640101,446.58484625141136 L 283.58267559856176,445.8894055127166 L 284.093104114756,445.53026271087583 L 284.8318821750581,445.42961313028354 L 286.17959254048765,442.4059408567846 L 284.9930701162666,440.86923409975134 L 285.5303632821888,440.2472888350021 L 285.58409258164465,439.9614790418418 L 285.40499488823116,439.7511272963602 L 284.67069423384964,439.68710792658385 L 284.33040855638683,438.742861117702 L 284.25429205596447,437.8809851077385 L 284.3796604499221,437.00316837755963 L 285.06470921076834,435.0168822843116 L 286.73927286453545,432.6858614073135 L 287.2497013807297,431.2554718462052 L 286.6721112187952,430.03542956430465 L 284.67069423384964,427.8286903037224 L 283.99907777644694,426.18531111371703 L 283.5155139528215,422.70055151579436 L 284.0707168709487,421.93910220556427 L 284.10653641819954,421.4927567333216 L 283.8155025895685,420.76334107050207 L 282.8170328438282,419.2989289048128 L 282.5976381544024,418.60159476997796 L 282.2931720241904,415.8662676549284 L 282.89762683585286,407.5702750990167 L 284.79606262780726,403.3131239670329 L 284.64830699004233,402.22568588668946 L 284.10653641819954,400.34055006178096 L 284.2274273633957,398.68016661098227 L 287.5362577587366,392.2468567506876 L 287.86758849583566,391.18537871644367 L 287.80490429885685,390.48954102478456 L 287.3705923259258,389.71174861630425 L 287.1064231917262,388.641360805952 L 287.07955854199827,387.55284040479455 L 287.3616374284029,386.71373735240195 L 288.02877643704414,386.28680520830676 L 289.4570807516575,386.01812940323725 L 290.8316557649523,385.19619664060883 L 291.82117065787315,382.8035383740207 L 293.4330501127988,381.1020684898831 L 293.6882643494755,379.1208894299343 L 293.96138838119805,378.22655019920785 L 294.4315199032426,377.4676588041475 L 300.3999513518065,371.89841214520857 L 302.01183085143566,369.5876429823693 L 302.62971796654165,369.2226398224011 L 302.6073307208717,369.03161385376006 L 304.59979285113513,367.28975826734677 L 307.4877435769886,365.5503901740303 L 309.01007418707013,365.0649966542842 L 310.88612277805805,363.36340783152264 L 300.40890624932945,360.74265197024215 L 297.96422239392996,360.67674148920923 L 290.68390012718737,363.04743698367383 L 288.1093704290688,363.15427528321743 L 285.73632566817105,362.8189876335673 L 284.0259424261749,361.51428190467414 L 282.8036004975438,361.23358111886773 L 281.4782774206251,361.33017792599276 L 278.95299957320094,361.935911627952 L 276.9605374429375,362.0086468574591 L 271.5204442627728,360.30514824180864 L 269.78319636918604,360.3960570024792 L 257.13442001864314,363.5407182160998 L 245.92290283553302,362.7871641762322 L 245.56918480992317,362.64850537804887 L 245.34531267173588,361.4483678868273 L 243.24091449566185,357.23844887223095 L 241.88424927555025,355.37533969583455 L 238.34259188733995,352.2824224123033 L 235.7098553981632,348.47481511335354 L 235.78149453550577,347.82081851619296 L 239.63209545984864,344.7896479400806 L 251.97192827612162,330.49120351602323 L 252.39728535152972,328.60646699077915 L 253.19427020289004,327.2083716414636 L 272.44279750809073,311.64946897828486 L 273.13680116832256,311.42971961549483 L 273.9203536733985,311.6290797361871 L 274.7039061784744,311.5339302647626 L 277.0142667423934,309.9266687692143 L 277.39932686463,309.51100404630415 L 277.6187215540558,308.96737138275057 L 278.2231763675809,308.64459802536294 L 278.77837928570807,307.96849345380906 L 279.42760849930346,305.6266922345385 L 282.72748399712145,304.8612628460396 L 283.6229725945741,304.20569403725676 L 284.3438408598304,303.3327748978045 L 286.17063759826124,300.32149995979853 L 288.6735282447189,297.84496399899945 L 289.33171235769987,296.9927489407128 L 296.3344331420958,281.96884563565254 L 298.98507938347757,272.5884379678173 L 300.4671129975468,268.99493410240393 L 302.508826976642,267.48768221307546 L 303.4401351213455,267.4470084646018 L 305.7594505827874,266.940853940323 L 305.728108484298,262.4696746672271 L 305.1549958139658,259.8742200525012 L 303.9863831847906,257.4823839227902 L 299.5447597503662,251.38558777351864 L 299.3746169116348,250.69925575482193 L 300.2163761667907,249.91587376606185 L 300.12234991416335,249.34020994789898 L 298.8418011944741,249.19347481743898 L 298.0672035869211,247.96997328614816 L 296.0254895631224,246.38991951209027 L 292.69427200965583,244.51433629076928 L 291.0734376553446,243.12864167895168 L 290.25854305177927,241.06382174789906 L 289.4570807516575,239.58360250934493 L 289.6137912441045,236.63477393891662 L 289.4973777476698,236.19034388789441 L 289.13022742047906,235.74366780405398 L 287.74222010187805,235.0217879685806 L 287.272088624537,234.2999339425005 L 286.2780962847173,230.7812630776316 L 284.84979192726314,227.00162107252982 L 282.8707621432841,222.58126096893102 L 282.34242387488484,222.13488017162308 L 279.74102952703834,220.83299005811568 L 279.0380709711462,220.35508691286668 L 278.447048548609,219.6810813775519 L 273.0248650778085,207.3622208883753 L 271.936846440658,205.8719882828882 L 271.84282014518976,205.37526621797588 L 272.0443050824106,203.8750299725216 L 271.5070119164884,202.58999737957492 L 269.8861775621772,200.50324227067176 L 269.2011288013309,199.95483935717493 L 263.0222574751824,196.98783602577168 L 261.22680287621915,197.00134709954727 L 260.1880360916257,195.48702731949743 L 258.9388295132667,194.25537857739255 L 258.28512285090983,194.0606174056884 L 256.7045854497701,192.5566208109958 L 256.83443133719265,191.93748864950612 L 256.3553449623287,190.95704187685624 L 255.93894273974,190.76793630514294 L 255.48672101460397,191.11012844590005 L 255.2807586286217,191.06960541952867 L 254.82853686064482,190.42012105649337 L 255.2807586286217,189.55454486585222 L 257.4120214562863,187.41381462453865 L 258.2269161026925,185.2642734249821 L 258.9388295132667,184.78374788560905 L 261.0387502424419,184.6216992798727 L 261.6790246460587,184.69372075761203 L 262.85211467929184,185.41732341633178 L 263.3849303536117,185.38356228847988 L 263.95804306678474,184.51591814868152 L 264.17296035028994,183.64042816241272 L 264.7998023647815,182.83811097964644 L 265.0863586999476,178.19351676711813 L 265.39082483015954,177.31150289205834 L 263.61775743216276,171.66240259143524 L 263.89535886980593,170.31049550208263 L 264.7908474653959,168.59765772870742 L 264.7998023647815,166.7443674611859 L 264.02520475536585,165.0621265427908 L 263.8819265663624,164.34248444647528 L 263.9267010111362,163.0966507489793 L 263.73417092859745,162.59855866699945 L 263.16105825826526,162.39617631130386 L 263.14762591198087,162.05775151401758 L 262.7804755847901,161.33257011254318 L 262.1357237752527,160.47924248932395 L 261.8088704440743,159.13803310669027 L 261.42828781343997,158.4016893983353 L 260.92681419476867,157.94190642458852 L 260.57309617102146,157.8362361092586 L 260.74771650135517,157.36184913711622 L 261.4327652622014,156.58396237704437 L 262.33273126371205,156.00955460465048 L 265.10426849499345,154.94170545460656 L 265.7982721105218,154.2538079866208 L 266.59525700472295,152.35318757453933 L 266.7833095956594,151.36527645378374 L 266.77435469813645,149.173790340079 L 266.9668847806752,147.4915198632516 L 266.6221216544509,145.06774342036806 L 267.2713508680463,143.7868323394796 L 267.16836971975863,142.62282593594864 L 267.81312148459256,141.2341693607159 L 268.43996349722147,137.12588616728317 L 267.97430942580104,134.85461188247427 L 268.260865803808,134.11889990686905 L 268.5608544424176,130.82133369101211 L 269.1250122580677,128.76390530436765 L 270.27123764157295,126.93681753892452 L 271.8293877989054,125.41863083385397 L 278.7022627424449,120.67701456043869 L 281.11112709343433,119.69352346251253 L 281.39768342860043,119.25455479021184 L 281.9752735476941,117.56272872083355 L 283.4752169549465,115.7115875055315 L 284.13787851668894,114.48578298080247 L 284.5274160448462,113.29145297512878 L 284.96620546653867,110.66609716950916 L 285.03336711227894,108.19470003887545 L 285.3244008962065,107.02977089828346 L 285.81691966205835,106.62239164195489 L 286.4751037284732,106.70543825894129 L 287.1288104355335,106.45405449159443 L 287.54969006218016,105.23419588978868 L 287.80490429885685,104.9514012526488 L 289.0720206722617,104.84367056260817 L 289.5958814918995,104.48120418644976 L 289.69438523612916,104.00876903079916 L 287.88997569680214,103.41290386521723 L 286.1930248439312,102.60608933470212 L 285.3467881400138,102.42879459168762 L 283.2423899192363,102.87539951934014 L 282.49913436733186,102.8731552347308 L 285.05127686448395,96.78275244811084 L 288.79441923461854,91.27443672029767 L 315.40834015980363,63.02127589134034 L 316.6172497421503,62.63116622110829 L 317.5127383377403,63.04593811975792 L 318.4037495292723,62.63116622110829 L 320.2663657721132,62.828462697332725 L 320.9693243280053,62.58632626873441 L 321.8110836260021,61.884586237953044 L 322.5319519340992,60.983325615059584 L 323.4632600340992,57.954589377040975 L 323.7319066617638,57.51071987510659 L 323.91548180393875,57.326896306709386 L 324.95872599445283,57.640741830691695 L 325.83182738907635,57.42553324170876 L 327.09446631371975,55.72407452005427 L 328.6973909139633,52.40651342191268 L 328.81828185915947,51.25662694138009 L 328.46008642949164,50.23228641413152 L 327.2914738021791,49.06227731204126 L 327.1302858609706,47.91919081227388 L 327.26460915245116,45.83704533788841 L 327.4078873414546,45.462760998518206 L 328.4332217797637,45.538962390390225 L 329.4809434209019,45.386559760198 L 328.60784202441573,43.672060218290426 L 328.7287329696119,42.78681732690893 L 329.39587198011577,41.27409411105327 L 329.52571782283485,40.388890415546484 L 329.3242329284549,39.55748420848977 L 328.64813902042806,38.07174072705675 L 328.60784202441573,37.10591650905553 L 329.33318778313696,35.53060511429794 L 329.52571782283485,34.737363695167005 L 329.52571782283485,33.11954331188463 L 329.93316514603794,31.862514202599414 L 330.47493576072156,30.789242926985025 L 331.59429649449885,29.40679024590645 L 331.88533028028905,27.75326556910295 L 332.7763414271176,27.01165844150819 L 332.48083019442856,25.680820541107096 L 333.4613902308047,25.03109502978623 L 333.69421722367406,24.64350336336065 L 333.33602179400623,24.170779099687934 L 331.59429649449885,22.86688459292054 L 330.78835678845644,23.635327810654417 L 329.91077794507146,23.787673349492252 L 329.2167742867023,23.364243313553743 L 328.3123307917267,20.94469584187027 L 328.7018683645874,19.607261676923372 L 328.60784202441573,18.993439789046533 L 328.14666540175676,18.885909555712715 L 327.96756770834327,18.438988673733547 L 328.23621429130435,17.003037166665308 L 327.57355268858373,16.077861017896794 L 327.45713919214904,15.661199701949954 L 327.5063910856843,14.060660730232485 L 328.3123307917267,13.369606278720312 L 329.0869284439832,12.060317007824779 L 330.5465748552233,8.26810020476114 L 331.5853415969759,3.4782561234897003 L 331.4465408567339,2.7962556512793526 L 330.9808867853135,2.590200782404281 L 330.0495786424726,2.906002462375909 L 329.6689960118383,2.7962556512793526 L 327.72130832634866,0.0 L 326.0154025312513,2.2038493247237056 L 325.64825220406055,2.95751632808242 L 325.8363048378378,4.236414344399236 L 325.64825220406055,4.734764444059692 L 325.2945342231542,5.060653486405499 L 324.29606443457305,5.271194202126935 L 323.84832015633583,5.029296410386451 L 322.25882790237665,5.507493173819967 L 321.61855354346335,5.825546037056483 L 321.48423025012016,6.50981187087018 L 320.4409861024469,6.032728983671404 L 319.9260801374912,6.012570610269904 L 319.59922676347196,7.028334810747765 L 319.30819302238524,7.334074611542746 L 317.8530240152031,8.217702840222046 L 316.1560731176287,8.903109697857872 L 314.4994192607701,11.016486274660565 L 312.63232552446425,11.575359476380982 L 311.9920512083918,12.024477078812197 L 307.87728110700846,12.482557423878461 L 304.1878680791706,13.577929921797477 L 302.29390973597765,13.926257360144518 L 300.3999513518065,13.665291681303643 L 298.1880945749581,12.352637077099644 L 295.9896700158715,11.56863954605069 L 294.7807604353875,12.15887689171359 L 294.4404748007655,12.527357628219761 L 294.5121138524264,13.51744882890489 L 294.17182821780443,14.172663665609434 L 293.83154253847897,14.443711587227881 L 292.1211592964828,15.1179756737547 L 291.4987947307527,16.329875109833665 L 290.5853963829577,16.690536806709133 L 289.3272349089384,16.244750229176134 L 287.94370503909886,16.749900584341958 L 287.37506981752813,15.471910866210237 L 286.4751037284732,15.710482112830505 L 285.34231069125235,14.298107224865817 L 284.61696493439376,14.078581172507256 L 284.10653641819954,14.850285330670886 L 283.26477716490626,14.576995856245048 L 282.5976381544024,14.76964239764493 L 280.53801437839866,16.408279668306932 L 280.117134751752,16.46652310527861 L 279.77237162552774,15.42486874666065 L 279.3738791998476,15.225500073749572 L 278.43361615762115,15.1179756737547 L 276.7142780609429,15.2501411230769 L 276.8933757971972,16.314194208709523 L 277.35902986861765,17.52611434517894 L 276.5127931665629,18.105200132122263 L 275.80535716190934,19.37987810606137 L 275.1785151474178,19.999304121593013 L 274.88300391472876,19.732714997138828 L 274.7979325167835,18.666369096026756 L 274.4934663865715,18.264253528788686 L 271.18463603407145,17.810616230475716 L 271.04583529382944,18.015592699404806 L 271.03688043914735,19.290269041783176 L 269.98468130640686,19.13793390011415 L 269.55932423099875,19.290269041783176 L 270.45033537968993,19.88057102682069 L 269.28172275051475,20.50448214681819 L 268.9683017656207,20.347663731779903 L 269.26381299830973,19.290269041783176 L 268.62353868223727,19.547895426978357 L 267.76834703981876,20.429433260229416 L 267.16389227099717,20.79683746327646 L 266.04005404375494,20.754272248363122 L 265.6191744171083,20.969338944065385 L 265.98632474429905,21.65710893308278 L 264.95203540846705,22.11861331865657 L 263.5192536879331,23.71822164824698 L 262.40437040291727,24.025153844151646 L 261.7820058390498,23.368724045925774 L 261.88946443609893,22.566678912262432 L 261.75066369585693,22.192543922457844 L 257.944837173447,21.32554462144617 L 256.80756664276123,20.700505704502575 L 256.1896795704961,20.837162446929142 L 255.35239772312343,21.612302838475443 L 254.6718263681978,21.999876439920627 L 251.92715383134782,22.371770020457916 L 249.61679326742887,21.580938603379764 L 207.49077116698027,21.955070112482645 L 207.6564365569502,24.32984703814145 L 207.4728613719344,24.966122913057916 L 207.0609366428107,25.474700002465397 L 205.74009092710912,26.54339746630285 L 205.2520496547222,26.742800023057498 L 203.92672657594085,26.42017146165017 L 203.03571542911232,27.01165844150819 L 201.82680580578744,27.24915101006627 L 200.5059601329267,27.307404030114412 L 199.62838128954172,26.79657159699127 L 198.7597573865205,25.96087668137625 L 196.50312612205744,25.559836642816663 L 194.5957354325801,26.245414998033084 L 193.5256265476346,25.82644957571756 L 191.470480222255,26.42017146165017 L 191.02721339464188,26.007926231599413 L 190.53469462879002,25.82644957571756 L 189.37503694184124,26.12218957731966 L 189.00340916588902,25.59344331594184 L 186.41992457024753,26.42017146165017 L 184.77222556620836,25.407486973446794 L 183.89464672282338,25.234973719227128 L 178.03367391601205,26.1109872860834 L 176.9993845783174,26.49186652037315 L 176.30985836870968,27.01165844150819 L 175.297956276685,26.77640724054072 L 172.13240407034755,27.800316467764787 L 170.46679527126253,27.914583091042005 L 168.08031816408038,27.36789763357956 L 167.29676565900445,27.526973619125783 L 165.3401231188327,28.58898453239817 L 164.92819834686816,28.539692461141385 L 164.02375489659607,28.055736262351274 L 160.18658623099327,27.092316210037097 L 158.3060601912439,27.172974039334804 L 156.55537999607623,27.450796351768076 L 153.22416244260967,27.284998982562684 L 149.94219673797488,27.4911254637409 L 146.6333663854748,27.202100485214032 L 142.8364947605878,27.320847019087523 L 141.36341604404151,27.11920209811069 L 140.69627703540027,27.193138523725793 L 138.47098791226745,27.923545200028457 L 137.1635745447129,28.88921878580004 L 136.55911973118782,28.954195068450645 L 134.88455607928336,28.429905815515667 L 123.31932087056339,28.004204152035527 L 123.23872692137957,27.609872549423017 L 123.5073735062033,26.469461808446795 L 122.6387495584786,24.90787196997553 L 122.48651651479304,23.124524865066633 L 122.03877219557762,22.158939064713195 z" /></g></g></svg>