<svg xmlns="http://www.w3.org/2000/svg" xmlns:xlink="http://www.w3.org/1999/xlink" width="395.4854409378022" height="500.0" viewBox="0.0 0.0 395.4854409378022 500.0" preserveAspectRatio="xMinYMin meet"><g transform="matrix(1,0,0,-1,0,500.0)"><g><g><path fill-rule="evenodd" fill="#D2EBD9" stroke="#A6A6A6" stroke-width="0.25" opacity="1" d="M 297.0520538520068,475.81598233419936 L 297.88844019174576,475.93767665943597 L 298.33132713474333,475.7134322383208 L 298.6292209401727,475.7592620544601 L 299.0932478271425,475.51865551958326 L 298.86982747353613,474.8770380932838 L 299.24219473078847,474.9228679095395 L 299.68330671079457,475.3410649819998 L 299.7565112374723,475.7031446386827 L 301.57941788993776,474.872934471583 L 303.32473462447524,472.83640099084005 L 305.5434772595763,468.7422222433379 L 307.11920856684446,464.3861084317323 L 306.91782586835325,461.591522039962 L 305.64240209944546,463.1740058296127 L 303.36006491817534,468.83215777913574 L 304.8298052586615,461.77494145336095 L 304.6814180407673,458.92309181496967 L 302.17296692728996,456.76552678016014 L 303.50138609297574,457.0100420617964 L 306.3772723134607,459.12087736139074 L 305.98157295398414,458.6713669325691 L 305.88971415534616,458.1319643754978 L 306.3772723134607,456.76552678016014 L 307.07681214623153,459.83291741949506 L 307.56437030248344,460.93338033999316 L 311.77220870926976,449.25136480049696 L 317.05055507458746,436.7515699972864 L 323.2722204811871,426.29035801661666 L 339.8385968580842,404.52199120423757 L 341.1705491319299,403.49915317993145 L 346.70327368192375,396.69552708638366 L 350.11971336975694,393.3050856431946 L 352.1865357682109,394.46747742779553 L 352.9779344853014,393.9616159243742 L 355.2673377096653,393.5598033100832 L 355.7407636959106,392.88534467469435 L 355.8043582420796,391.2387278267415 L 356.07993455044925,389.86482570739463 L 356.71587992459536,388.6452287459979 L 357.84644941054285,387.4687253164593 L 361.88823540881276,381.44348325161263 L 363.1813243664801,380.51828918606043 L 368.1840944252908,373.7344306684099 L 371.95737015642226,370.1566865858622 L 374.17611287906766,370.8377866471419 L 374.6778031196445,369.45409459853545 L 375.154762128368,365.905544411391 L 375.95675982162356,364.2783720967127 L 377.29577813483775,363.2462034082273 L 383.12174409627914,361.2106426852988 L 385.192099602893,360.9956268342212 L 387.2271247282624,361.06729861174244 L 389.14202680438757,360.90962087654043 L 390.83081503398716,360.0137407380389 L 393.0036283135414,356.7242999529699 L 394.55109528265893,355.7748012103839 L 395.4854409378022,352.4726425065892 L 394.8101553041488,352.4316938347183 L 393.48426221869886,353.1369286867557 L 392.16285613179207,353.3507773143938 L 391.54590076580644,352.39984500419814 L 391.18245799839497,349.0217760539381 L 390.6215896178037,347.89583726611454 L 389.46844396553934,347.7161457913462 L 387.855386281386,347.99591896729544 L 385.48179088905454,348.8693737530848 L 384.5597231090069,349.8975352770649 L 383.44920353777707,352.01993548998144 L 382.5607879329473,353.0277299943846 L 381.8630675766617,352.7046860647388 L 381.02625178545713,353.01863010658417 L 377.4030414763838,356.0968207044061 L 372.37317308969796,358.11044273362495 L 370.77133268117905,357.928414841881 L 369.1582749094814,356.5564151662402 L 368.1733899526298,355.1571768721333 L 368.0118597969413,354.3404159536585 L 369.0640491005033,352.4680926904548 L 369.66530010662973,350.0522175038932 L 370.0377167817205,349.54495386371855 L 371.0046539232135,349.12641088932287 L 370.86555857770145,348.4098970472114 L 369.57107412442565,347.66610540705733 L 364.9405440464616,347.0292341435561 L 363.31851245462894,346.45378710946534 L 362.5893834643066,345.22332234692294 L 362.3650360442698,343.5335049550049 L 362.7912960741669,310.31778602150735 L 365.38923880271614,311.4105476766126 L 366.19015905074775,311.415091425064 L 366.7936535105109,310.9652598083485 L 367.3500349801034,309.60671607067343 L 367.7359124738723,309.06604105746374 L 370.1970033105463,307.8915812514024 L 374.18365647271276,304.9363148466218 L 378.13217046670616,303.58484345441684 L 379.30999429896474,302.8012433779659 L 381.54898125492036,299.00843680580147 L 381.89447620883584,298.1818008517148 L 380.6358873844147,296.11303336697165 L 378.03794465586543,294.5280523840338 L 369.08199682831764,290.8474728730507 L 368.0701901502907,290.11867258581333 L 367.2244004532695,288.9903129489394 L 368.32594611682,288.1639336050721 L 368.3124853000045,286.9675370445475 L 367.50259123183787,286.025434158626 L 364.91810932196677,284.409166751313 L 364.21590205281973,283.6510014963569 L 364.11270216293633,282.33673861646093 L 364.54120573587716,281.09516058897134 L 365.3129607196897,279.9398769942345 L 368.0387815181166,276.8782314907294 L 369.49030904471874,274.82670234376565 L 370.5694199837744,272.5574598775711 L 371.25816652178764,269.88902951811906 L 371.7696785405278,263.7678767562611 L 371.5139224883169,260.6827678430127 L 370.69954150915146,258.0969383812044 L 368.77912786975503,255.72223254677374 L 366.51321927830577,254.6018464777153 L 364.0588588938117,253.84662734984886 L 361.56411588191986,252.56075235444587 L 357.72104514949024,248.88028822338674 L 353.76804415881634,246.64907215163112 L 353.00301953963935,246.02553674811497 L 352.90430664643645,244.92587453173473 L 353.70073989778757,244.07110988977365 L 356.1326655577868,242.6359690359095 L 357.4316370077431,240.90163689805195 L 357.9162273928523,240.51397454366088 L 358.4658784978092,240.4822363879066 L 359.5135808046907,240.90163689805195 L 360.3055270574987,240.79055197257549 L 361.82435884699225,239.98803023830988 L 362.41887940093875,239.0880492015276 L 362.8159742541611,236.304376588203 L 367.3904175199568,226.24828101298772 L 366.9596705790609,222.33268830913585 L 366.41617521457374,220.33355704077985 L 365.2340145967901,221.263726735604 L 365.3682697303593,222.60180777672213 L 366.0254132281989,224.07910785858985 L 366.41757956519723,225.42443231469952 L 366.1773335505277,226.49858762137592 L 360.2630418110639,236.68863688292913 L 358.17148818075657,238.89836042537354 L 347.38161538913846,246.77097806811798 L 344.42800254002213,249.68126804102212 L 346.9788499902934,252.809659739607 L 347.4487429559231,253.05965783295687 L 347.9363010264933,253.95966593758203 L 348.8796199820936,255.12756915856153 L 349.48023506067693,256.4741007335251 L 348.929082358256,257.88140847499017 L 346.092059539631,261.43565741041675 L 345.6151005309075,262.4323432717938 L 345.56917108781636,263.7291508845519 L 346.1874513588846,264.1828667342197 L 347.26855838112533,264.5044013503939 L 348.6323079261929,265.37256037886254 L 347.60772923380136,265.70125190296676 L 345.074546976015,265.5654875963228 L 343.83445350266993,266.0263739663642 L 343.1879090666771,266.7516575398622 L 341.4602575227618,270.1710639670491 L 342.053806560114,271.4252916077385 L 342.64735551178455,271.4252916077385 L 343.73906168341637,269.30278014042415 L 343.83445350266993,268.12723862938583 L 344.21602069213986,267.93072354851756 L 346.79866549931467,268.9704800604377 L 346.79866549931467,269.62436413404066 L 345.61156751029193,270.12818515871186 L 344.3538088463247,271.06438367743976 L 343.28330088593066,272.1864272149978 L 342.64735551178455,273.2263168543577 L 342.053806560114,273.2263168543577 L 341.3966629765928,272.1471193267498 L 339.81739873439074,272.082797396346 L 338.0120204742998,272.29363089520484 L 336.6659362055361,272.0256225200137 L 336.02999083325267,273.20487546978984 L 335.01247826963663,274.4413494357141 L 333.80771517567337,275.0703250851948 L 332.5746877435595,274.41990735183936 L 329.822457594797,276.0459756484488 L 329.0169267933816,277.3647579846438 L 329.55394732765853,279.2197201111121 L 328.3703823592514,279.2197201111121 L 328.7272184025496,280.6565835386282 L 327.4977239910513,281.3464432936162 L 324.21553943678737,282.21504391531926 L 323.70678315497935,281.1855939249508 L 323.2474892511964,281.260656877188 L 322.6751384232193,281.6788679760648 L 321.7954140137881,281.67529350868426 L 321.38204955123365,281.20346599898767 L 321.27605867013335,280.5850963171106 L 320.91568960621953,280.0489471203182 L 319.7427237853408,279.8201927419286 L 316.8703705854714,280.25268280971795 L 315.7009377852082,279.82376700721215 L 315.2699081338942,278.07599317247514 L 315.9164525680244,278.61925853812136 L 316.45700612291694,278.61925853812136 L 319.5060107912868,274.0125093446113 L 319.90877619199455,272.6152437515557 L 321.6894231326878,269.79945001995657 L 322.3818970117718,268.9704800604377 L 323.5265985801816,268.3809234686196 L 326.76991990581155,267.3947793309344 L 328.07360783964396,267.22685188718606 L 329.26777195744216,266.50870365684386 L 330.4054074846208,265.1117530214833 L 331.50417978316545,264.1721489931224 L 332.5746877435595,264.8259391398169 L 332.62061718665063,262.66097791830543 L 332.4474986512214,261.77145510178525 L 331.9210772663355,261.1784529928118 L 331.9210772663355,260.5783168480266 L 333.2318313289434,258.77797270857263 L 333.76178573444486,255.7061783162644 L 333.53213878162205,252.51323593885172 L 332.5746877435595,250.33477822178975 L 330.6244553755969,250.26335574220866 L 327.4482616148889,251.28828275145497 L 324.4557854514569,252.73823207535315 L 323.0355074889958,253.92752237443347 L 323.56899500079453,253.92752237443347 L 324.2756008747965,253.47394432185683 L 325.45563282445073,253.33465778711252 L 323.7809767629951,254.0882404941367 L 322.3818970117718,255.1811437032884 L 322.3818970117718,253.92752237443347 L 317.37559384666383,256.12406882457435 L 315.5949469041079,256.38123482989613 L 310.2777371369302,255.73475187795702 L 308.8044636901468,255.72760850714985 L 307.55023813433945,256.3240866404958 L 306.3949374165386,257.51707451289985 L 304.27865264192224,260.278252785909 L 296.7285680696368,267.33046658558305 L 296.24454301968217,268.12723862938583 L 293.55237439647317,269.2956338842632 L 293.2838641293347,272.0256225200137 L 295.9265703763813,276.1138791461708 L 296.5413175392896,276.821513401228 L 297.9050669968128,277.6363836788805 L 298.837786803022,277.99736342963297 L 299.2652834355831,277.7436049504904 L 299.54085974395275,277.21822402835824 L 300.1414748225361,277.8258082232205 L 302.25422657839954,281.0676381291123 L 302.8230443838984,281.67529350868426 L 301.7348712347448,283.0693690124899 L 303.04562529549,284.63866859267 L 305.43042033724487,285.9256221430842 L 307.56437030248344,286.4725927760592 L 307.56437030248344,287.0159975452116 L 305.6847984343767,287.24122712621465 L 304.7414795663208,287.1554252222413 L 303.09155465103686,285.5466805603355 L 302.0740420874208,285.06764749623835 L 301.7348712347448,285.91132232930977 L 302.14823569729924,287.4021064158296 L 303.3635979387909,288.8715072090272 L 305.5152130071074,289.92265216074884 L 306.5044614057988,290.6091326007154 L 306.91782586835325,291.59954930644017 L 306.3772723134607,292.4898775626207 L 305.2502358481288,293.10847347811796 L 304.2256571575999,293.9380542251747 L 304.01014237478375,295.47211973473895 L 305.6883314549923,294.6103163921507 L 306.5009282976389,294.3564284614986 L 307.56437030248344,294.32424571632873 L 307.045014873147,294.9679083082592 L 305.137178838253,296.1265335360076 L 304.3069168943912,296.9740728744073 L 303.84408996813,297.2530147408834 L 302.8230443838984,297.32453868200537 L 303.8758872412145,297.96110879583284 L 303.72750002518296,298.42245129239745 L 302.8230443838984,299.07334882731084 L 303.21521072275937,300.0389903940959 L 303.66037245839834,300.75787582446355 L 305.137178838253,302.1241603655508 L 302.8371764663607,308.18730775045697 L 302.4132129419595,308.95646236103494 L 300.9894019588828,310.5270266531734 L 300.39585291966796,309.93313667806797 L 298.44562055170536,312.4769248146331 L 296.66850662976503,315.44314820633736 L 294.38616936281323,317.7690922215115 L 290.91320117004216,318.3917588525219 L 291.114583870396,320.660660632886 L 289.2032147292048,322.60045203811023 L 286.57817367091775,323.9426293576835 L 284.6350073441863,324.45088232064154 L 277.812726944685,331.0016490689013 L 271.12470158934593,334.1235968482215 L 270.05419363081455,334.96142129658256 L 261.7021113652736,338.26281572296284 L 261.16155781038105,338.26281572296284 L 260.5998060442507,337.8510171326343 L 260.1122479736805,337.85459795675706 L 259.7059495523572,338.2305878015468 L 259.3809107821435,338.91812405420933 L 258.1902797706425,338.40247041289695 L 256.67460998892784,339.79905246861745 L 255.18367143720388,340.067633301951 L 256.1163913309574,341.689911786234 L 254.87629785761237,343.9784386319807 L 252.60809275694191,345.9841752949869 L 250.43527947738767,346.7291970922379 L 250.43527947738767,346.13461095886305 L 251.71423626691103,345.76926860189997 L 252.86247094161808,344.93114702566527 L 250.604864904657,345.32871459051967 L 247.02237281017005,347.4455815096153 L 244.75063469074667,347.93273259478156 L 242.54955715872347,348.1046701541636 L 230.9400214832276,351.3573403855553 L 228.71774573996663,351.54004490887746 L 225.41082995384932,350.76624533487484 L 224.24493008852005,350.9417814358603 L 223.227417524904,351.80156494118273 L 222.47488220967352,353.6788445066195 L 221.28425119817257,353.9475487235468 L 221.81773871183395,352.6900337606203 L 220.3833285793662,353.85081491735764 L 217.16473848372698,355.9396177243907 L 216.53939225897193,357.2510161319515 L 216.23201867751777,358.4621401365148 L 215.46888421103358,359.04622048931196 L 213.5716473273933,360.0137407380389 L 213.27487280778587,360.9060373114189 L 213.39852879196405,361.8270301532466 L 213.15828277729452,362.4219278335804 L 211.79806634038687,362.36458774702623 L 212.14077021554112,363.36447096278425 L 211.79806634038687,366.02382259326987 L 212.31035564281046,367.0130764490459 L 213.80482721328735,368.50777282740455 L 214.39484323188663,369.99896036821883 L 215.61373849399388,371.7017309856601 L 215.8928478229791,372.97080739657395 L 215.60313934460282,374.02482780918945 L 214.9247976373881,374.93906000303105 L 213.5716473273933,376.30508368788287 L 210.05981573276222,381.5546519426862 L 209.07763346470892,382.32567243115045 L 207.6679545622319,382.9317448474467 L 207.85520518012345,384.265866023954 L 209.07763346470892,386.28868322097696 L 206.94368349947035,388.05338413489517 L 206.55151724629104,388.9106660707621 L 207.0002120025456,390.20201755012386 L 204.50942599400878,390.9696817531949 L 196.8144872263074,390.20201755012386 L 196.8144872263074,390.8584768061992 L 197.88146225176752,391.2781881141709 L 199.24874472990632,391.42885526956525 L 202.25888608396053,391.40733131661545 L 202.25888608396053,392.01000721985474 L 199.49252376519144,392.14274111704435 L 197.02293605357409,392.5839959421428 L 194.79006124846637,393.34813641454093 L 192.71970582939684,394.46747742779553 L 189.70249843411148,397.12608807813376 L 189.14074666798115,397.2552576782182 L 188.03844143636525,398.00517042155843 L 187.26117488741875,398.83763252676 L 187.67807237058878,399.23234285996296 L 186.2259971331805,399.98948445089627 L 182.66470316424966,403.34483350475784 L 180.76746619306505,404.2922980199801 L 179.87360970117152,405.12135552964173 L 179.32599010504782,405.3079865988111 L 178.5169262830168,404.78039818874095 L 178.02230208553374,404.7050292446511 L 177.2556346859783,405.3079865988111 L 177.93750941380858,406.84415022842586 L 177.20617222227156,407.2784546876792 L 176.06853669509292,408.31937680218834 L 174.50340453721583,407.8060896953102 L 168.62797602452338,407.7163552021375 L 167.0734430141747,408.118368138792 L 165.6849623247981,409.0947093591094 L 163.50861593708396,411.38134679209907 L 163.50861593708396,411.9305982759688 L 164.00677315704525,413.5425160462037 L 162.49110337346792,415.3986699109664 L 158.76375708542764,418.01257330318913 L 159.29371149092913,416.22805507224984 L 161.80216260440648,414.38620703550987 L 162.37804645113647,412.2321527011227 L 162.60769340395927,408.1399047442246 L 163.1305817682296,405.7386782228714 L 164.15516045875847,404.10208483354654 L 163.0245908871293,403.36995519755874 L 163.1835772525519,402.14978133083787 L 164.2081558573991,400.9978418298997 L 166.86146116629243,400.06125246488955 L 167.80478012003005,399.0313987864647 L 168.94948177598417,396.8246946487343 L 169.4900353308767,396.8246946487343 L 170.18957516364753,397.11532400059514 L 170.49341572262347,396.878514704993 L 170.62413783557713,396.2757363481214 L 169.087269930169,396.318791504018 L 167.70938830077648,396.8246946487343 L 167.70938830077648,396.2757363481214 L 171.32367775589228,393.057545360527 L 177.2556346859783,390.5284517474938 L 177.87391486763954,390.77238297776785 L 179.2588625382632,390.20201755012386 L 182.61170776747167,388.2650120164035 L 184.15917473472655,387.7628466265742 L 185.81969871371984,387.7198043112876 L 187.38129785098135,388.3977286205627 L 190.59282190538943,386.19184298452456 L 191.58913625590503,385.331055299961 L 191.58913625590503,384.7823165280279 L 189.85795169137418,384.36269980773795 L 189.93567840754986,383.09312723134644 L 190.98498824238777,381.61561563040596 L 192.126156790182,380.51828918606043 L 191.41955083049834,380.27444450359326 L 190.75180827081203,379.80110474594403 L 189.70249843411148,378.71460407739505 L 190.98498824238777,378.13371932611335 L 192.50065793842077,377.96160755318124 L 195.62738923542202,378.05842022877187 L 195.62738923542202,377.50981899525505 L 194.40496095083654,376.6815580462571 L 192.8504279423505,376.02542002522387 L 191.51140962727368,375.1219098350266 L 190.93905880115926,373.57310011878144 L 190.61402011662722,373.21459106518887 L 188.56839584186673,372.0422969557112 L 188.18329563178122,371.39701740967575 L 187.73813389614224,369.7731266764458 L 187.38129785098135,369.08846671076026 L 184.65733195468783,370.44346359861083 L 183.21232276037335,370.5617599929683 L 182.5869765356183,369.3895717674168 L 182.97207674570382,368.66907556005754 L 184.30756203830242,366.96648035908584 L 184.0955801885575,366.6259731100872 L 180.80986261367798,365.12778792798053 L 180.4918898846954,364.67619675491005 L 178.43566663376987,363.62251074961387 L 178.01170302182436,362.9236580982106 L 176.11446605063975,356.8640401412267 L 175.31953439861536,355.32335199345835 L 174.28082362562418,353.9475487235468 L 173.6413452308625,353.9475487235468 L 171.2141538541764,358.98172024532687 L 163.9785089045763,368.82679456321057 L 163.50861593708396,369.96669829345774 L 163.1517799794674,370.37893850926775 L 162.34624917805195,370.8843887747498 L 160.16990287788212,371.78776828502305 L 159.98971838876605,372.4868311116006 L 159.95085507445037,373.9029323939467 L 157.88403267599642,376.1939349512104 L 155.00814645551145,377.83252436842304 L 145.67034889943898,381.17452843650244 L 144.83655384741724,380.9952266396722 L 143.59292735345662,380.12383551499806 L 143.0311756748706,379.9158530358691 L 142.19384760037065,380.1130777914077 L 141.01734867319465,380.9737104631495 L 139.50521199777722,381.22114705853164 L 138.87986568547785,382.02443413296714 L 138.27218456566334,382.30774153443053 L 137.76696139015257,382.17505289101973 L 137.37126203253865,381.7231988746207 L 132.46388370729983,383.3083050827263 L 130.11441895924509,383.6741111690644 L 128.42563072778285,384.7823165280279 L 127.45051450096071,384.73927865584847 L 126.80750308558345,384.34835399256554 L 126.23515234515071,384.3089031918207 L 125.46141881681979,385.331055299961 L 126.08323202095926,386.97374731022865 L 125.16464429721236,389.19404100370593 L 116.27200847864151,400.16172800632194 L 115.7420539855957,401.13061744871084 L 115.04251415282488,403.5063308432 L 113.97200610674918,405.16801322542597 L 110.58736360445619,413.492254356388 L 110.27999002300203,415.99108535808045 L 109.90902189537883,417.5098805935122 L 109.40026561357081,418.61581662960816 L 110.59796266630292,419.79361497354694 L 111.0961198862642,420.6410861397162 L 110.90886935591698,421.3557110510301 L 109.06109476089478,423.725955785485 L 107.89872800186276,424.4370687624905 L 108.54173941724002,425.3062316009309 L 110.04681004956365,426.50586490670685 L 111.06432261317968,428.0036837786902 L 111.77446159534156,429.4656622951152 L 113.25833410397172,428.87295890040696 L 114.06386490352452,429.8105137370294 L 114.69274414889514,431.1791854656767 L 116.53698572516441,432.58025873382576 L 115.82331372238696,434.1646354510449 L 113.60810402035713,436.7515699972864 L 114.78813596814871,437.3552232461516 L 114.78813596814871,437.95888993365224 L 113.60810402035713,437.95888993365224 L 113.60810402035713,438.5625698923832 L 114.59735233150423,438.74942598713096 L 115.23329770378768,439.36390394927 L 115.97523395903409,441.0313291531056 L 116.56878299638629,441.0313291531056 L 117.77707911096513,440.0430798524758 L 119.47999942488968,440.7510220874101 L 121.21825011819601,441.73210946272593 L 123.08722283691168,441.57398314145394 L 122.97063280642033,442.73479583789594 L 123.26740732602775,443.2954538963968 L 124.22132534347475,443.989104493754 L 125.01625708118081,445.3692704300629 L 126.40473777242005,445.19315159972757 L 129.0191797669977,447.93570362753235 L 128.8213300872594,448.66901503747795 L 128.3620361816138,449.2297960338183 L 127.23853273876011,450.0170660139993 L 123.6807717885822,446.40084666537587 L 123.51118636131287,447.0945768437814 L 123.08722283691168,447.05863184062764 L 123.08722283691168,447.6085956832394 L 124.09413625113666,448.7121516027255 L 124.70888349972665,449.1758743248647 L 125.46141881681979,449.41313088079914 L 124.86786977946758,450.0170660139993 L 124.22132534347475,449.41313088079914 L 124.48276956938207,450.4017222506227 L 125.46141881681979,450.67493938084226 L 125.46141881681979,451.2249770073686 L 124.86786977946758,451.2249770073686 L 124.86786977946758,451.88287990994286 L 126.31641199439764,453.0441358516691 L 126.60258736461401,456.0463771057548 L 126.10796325281262,461.8684499160154 L 124.80427523329854,463.4149832318071 L 121.93192212097347,464.6990340919001 L 119.0560359004885,465.1702279219171 L 117.75234787911177,464.2782038083533 L 117.23299253545702,464.2782038083533 L 114.83759834617376,466.2709119413048 L 114.14159153401852,467.0263098012656 L 114.55495599471033,466.88961716054473 L 115.0707783177495,467.12703115085606 L 115.28629318811,467.61985179479234 L 114.78813596814871,468.23499122587964 L 114.15219059586525,468.378885537968 L 111.77446159534156,468.23499122587964 L 109.22008112445474,469.19909819040913 L 107.20978723093867,470.38269552518614 L 104.96278025582433,471.37926095351577 L 101.69472778402269,471.79660639807116 L 101.69472778402269,472.4550182723906 L 103.65909232385457,472.95153654308524 L 107.33344321511686,474.62825426703785 L 109.40026561357081,474.872934471583 L 108.8102496843785,475.75092347641475 L 107.62315169349313,476.0819760700688 L 107.62315169349313,476.6793207435403 L 111.91578277014196,476.9384142892668 L 113.00748902745545,476.6793207435403 L 113.46324982494116,475.999212551862 L 113.14174407348037,474.54909353598487 L 114.78813596814871,473.06307451264 L 115.32868952304125,473.06307451264 L 115.97523395903409,473.7179200008977 L 115.97523395903409,474.26843460509554 L 114.98598564788699,475.2543522887863 L 115.93283762410283,475.8912604949437 L 117.78414515219629,476.16833836142905 L 119.532994909212,476.0819760700688 L 120.12654385901988,475.80130074266344 L 120.90381040796638,475.0276599464705 L 121.61041636951268,474.872934471583 L 122.17570115439594,475.08163409819826 L 122.41594716906548,475.5889970465796 L 122.32055535167456,476.18992891244125 L 121.90012484788895,476.6793207435403 L 121.90012484788895,477.3378551645437 L 123.1896806973964,477.8200711446116 L 123.55358269624412,478.7917273356579 L 123.25327524356544,479.9397676695371 L 122.54666928201914,480.96548907563556 L 119.82976942695677,482.4735526505392 L 119.09843223541975,483.251013396075 L 119.09843223541975,483.4597799431067 L 119.53652792982757,483.5533654296305 L 120.12654385901988,483.9853031410603 L 121.45496311224997,485.21996457024943 L 122.22516353242099,484.7952055685455 L 123.12608615122736,483.95650705858134 L 124.86786977946758,483.9853031410603 L 125.91364659368992,484.94998984748963 L 125.68046662025154,486.23509455274325 L 124.7406806871295,487.4734629781451 L 123.6807717885822,488.2654738057172 L 122.94196549989283,488.57887799700256 L 125.03915164619684,492.00780038547236 L 126.62528769485652,495.47649848798756 L 129.07067417353392,498.78557412535883 L 131.96699903532863,500.0 L 134.45276805199683,498.71239030733705 L 136.90264152549207,496.4941023666179 L 139.70922731421888,494.9094018054893 L 189.8284338209778,476.2844415066065 L 191.82512562908232,476.0605110084871 L 193.85995643399656,476.7962898304686 L 209.2457002736628,487.0010755609255 L 211.96479061990976,487.652580763679 L 213.50381367653608,486.9736440840643 L 216.80845075659454,484.58721969556063 L 218.32279563322663,484.36778945068363 L 220.19385282695293,484.47293282696046 L 222.19727499969304,483.8306501324987 L 227.4447603560984,481.59992639161646 L 228.2299762442708,481.10169649182353 L 230.20423324033618,478.63354227214586 L 230.94682313501835,478.005114343483 L 232.65186326019466,477.19617833651137 L 233.6030962150544,477.1002045487985 L 234.42645110189915,477.4475399617804 L 239.8354666158557,480.9485727675492 L 240.6588215008378,480.53034382441547 L 240.86073419824243,479.8653049576096 L 241.02226426824927,477.8771454166854 L 242.5590439569205,475.7794580333866 L 242.80133910663426,475.1579532682663 L 243.71891988813877,474.2965537919663 L 247.75268595665693,472.7406225564191 L 248.67475364916027,472.11233577528037 L 249.45099562965333,471.2464667818276 L 251.1066793948412,470.3966178955743 L 252.60756345652044,469.1287490372779 L 252.93062368407845,467.0089168614941 L 251.3669223599136,466.129510522238 L 250.9810448680073,465.44656318833586 L 251.14257493801415,464.9486393184634 L 251.6944695841521,464.2657224056311 L 253.6059093158692,462.72408481454477 L 254.06357797980309,462.1234413366765 L 255.03500211797655,462.83370938769076 L 257.7608229164034,462.6053253557766 L 258.80403822660446,462.78118087153416 L 260.41709599643946,461.19623887271155 L 261.4154418576509,460.81486203090753 L 262.413787804544,461.5753374551423 L 263.0105518139899,461.5753374551423 L 264.0627411175519,460.5408222404076 L 266.2164759989828,461.93160371121485 L 267.6994122453034,461.5753374551423 L 268.72916673868895,462.6098930684384 L 269.8980165757239,462.8063032461796 L 270.8559799846262,462.15313063561916 L 271.2530748397112,460.6458704419201 L 276.4893429186195,456.49677770538256 L 277.07488956674933,456.21821562212426 L 277.88254017941654,456.09263527893927 L 278.7328167874366,456.25931477802806 L 279.942049164325,457.10414455342107 L 280.523108901456,457.3005142521579 L 282.8967042937875,456.8255761441542 L 283.2197645213455,457.02194370829966 L 284.9965958185494,459.1090096887201 L 290.76008027791977,461.3058572371956 L 296.90944214351475,462.78118087153416 L 299.95832316949964,464.3593654220458 L 300.20959222503006,466.7599391589174 L 299.4131589755416,469.9054542159429 L 299.3656028583646,471.84768133226316 L 298.4992932602763,472.31568766687997 L 298.758190382272,473.4906822941266 L 298.58891149424016,474.0084765366046 L 298.39992087334394,474.0938111607684 L 297.7245672494173,475.63846611615736 L 297.0520538520068,475.81598233419936 z" /><path fill-rule="evenodd" fill="#D2EBD9" stroke="#A6A6A6" stroke-width="0.25" opacity="1" d="M 172.46837940998375,401.8196256174706 L 173.31630654633045,401.6150746542262 L 173.79679857566953,401.2023884333903 L 174.50340453721583,401.0121958923992 L 175.42199225910008,401.03731560718734 L 175.42199225910008,400.491864441894 L 173.03366410918534,399.78494657878764 L 171.55685772933066,399.6557655923534 L 170.08358428254724,399.83159549336415 L 168.57851364836097,400.45597986865323 L 167.78358199633658,401.26698232488707 L 166.58235183730721,403.49915317993145 L 168.2181445825845,404.05183999449946 L 168.94948177598417,404.10208483354654 L 171.71937711536884,403.62835175159853 L 174.28082362562418,402.8424030028982 L 174.28082362562418,402.2394982462283 L 171.27068227156997,402.2394982462283 L 172.09387826360762,401.79809391405433 L 172.46837940998375,401.8196256174706 z" /><path fill-rule="evenodd" fill="#D2EBD9" stroke="#A6A6A6" stroke-width="0.25" opacity="1" d="M 1.618127554655075,0.0816377067239955 L 0.0,0.0 L 1.1341025047004223,1.9486905697267503 L 3.3987745828926563,3.489237524801865 L 4.607070697471499,3.730617722030729 L 4.525811048224568,1.7037690728902817 L 3.3987745828926563,0.4862784257857129 L 1.618127554655075,0.0816377067239955 z" /><path fill-rule="evenodd" fill="#D2EBD9" stroke="#A6A6A6" stroke-width="0.25" opacity="1" d="M 279.6762771848589,279.2879389101872 L 280.81839658133686,279.85897542978637 L 282.0643479768187,279.91121681267396 L 281.96091938205063,278.8737210347317 L 281.28616652451456,278.61415338504594 L 280.19574983231723,278.8212226162432 L 279.6762771848589,279.2879389101872 z" /></g></g></g></svg>