<svg xmlns="http://www.w3.org/2000/svg" xmlns:xlink="http://www.w3.org/1999/xlink" width="500.0" height="170.82736620213836" viewBox="0.0 0.053984550293534994 500.0 170.82736620213836" preserveAspectRatio="xMinYMin meet"><g transform="matrix(1,0,0,-1,0,170.93533530272543)"><g><g><path fill-rule="evenodd" fill="#D2EBD9" stroke="#A6A6A6" stroke-width="0.25" opacity="1" d="M 455.5261901598424,3.4108926192857325 L 455.52875654399395,7.067123640794307 L 453.5833681244403,7.065496695227921 L 453.9201450534165,7.537462491542101 L 454.59954930096865,8.003300178796053 L 455.1993300970644,8.1156065040268 L 455.7514503803104,9.16027439199388 L 455.9953106380999,9.738751700613648 L 455.7201540507376,10.209737427998334 L 455.6449185721576,11.477138878777623 L 454.70406552776694,11.293106791563332 L 453.64073468744755,9.512469799257815 L 452.7838099524379,9.998068556655198 L 452.08616586215794,9.723091406747699 L 451.7195070516318,8.660306082572788 L 451.87185889296234,8.143897890578955 L 452.6110475566238,8.039819810539484 L 452.8311113473028,8.424115133937448 L 453.1229302678257,7.691466436255723 L 452.5622304994613,7.371325362008065 L 452.51295868493617,7.021104043815285 L 451.64996146038175,7.025225407909602 L 449.3337712716311,5.388060586061329 L 449.15397694706917,3.5497791743837297 L 446.7596075516194,2.969704722519964 L 442.2003370579332,2.68568401504308 L 440.15205089747906,3.089716569520533 L 439.3752444945276,3.385753713082522 L 438.570224808529,2.68568401504308 L 437.31943480297923,2.519676696509123 L 435.8391765933484,2.5456776381470263 L 434.4548436626792,2.8176923524588346 L 433.4937102794647,3.385753713082522 L 431.96454903669655,3.155723859090358 L 426.5513557307422,6.374760222155601 L 425.53943843208253,6.490822493098676 L 422.23095789924264,6.374760222155601 L 418.60272653214633,7.079164880793542 L 416.8309308178723,6.875041025225073 L 415.90177252702415,6.606886500027031 L 415.28860330581665,6.222681247163564 L 414.61336482688785,6.1226309281773865 L 408.5136477034539,7.6035075900144875 L 404.3437208291143,8.087855658493936 L 402.22208011709154,8.003793095238507 L 398.53177944757044,6.997114421799779 L 396.76938819140196,6.742963752243668 L 393.41388545930386,6.742963752243668 L 392.4170152656734,6.600883161649108 L 389.45273703709245,5.706435381900519 L 383.5730837509036,6.060600382741541 L 377.5881007295102,5.550367816351354 L 376.6326100397855,5.058175228536129 L 373.6419994570315,5.400305792223662 L 372.93102407455444,5.090186821762472 L 371.4375996887684,3.873839602340013 L 370.45953836478293,3.385753713082522 L 369.36862377636135,3.107718511018902 L 363.39868785999715,2.8316933806054294 L 362.22501426003873,3.021709599532187 L 359.9152848497033,3.94585487479344 L 358.73408767580986,4.165905612986535 L 358.0945860557258,3.6898036119528115 L 357.7785969860852,3.6898036119528115 L 357.4325137529522,4.019871212076396 L 356.9622919615358,4.091887836810201 L 356.5052363909781,3.8858420685864985 L 356.20053266361356,3.385753713082522 L 355.0268590655178,3.7698187078349292 L 353.68202470988035,3.87584001198411 L 352.48766135796905,3.5617811898700893 L 351.752234460786,2.68568401504308 L 353.0124288778752,2.68568401504308 L 353.0124288778752,2.349672880023718 L 352.19236208871007,2.309672526549548 L 350.8964308127761,1.8016858766786754 L 345.7446808498353,1.5597038487903774 L 342.81425859592855,0.8398018083535135 L 341.1515543349087,0.6718342071399093 L 339.20295521616936,0.8258043578825891 L 336.34776848740876,0.053984550293534994 L 334.8317734207958,0.10796947358176112 L 333.69759849086404,0.8338028695434332 L 333.3910138811916,1.3697232329286635 L 333.4474404901266,2.2776724216528237 L 334.30888678506017,3.9018454351462424 L 334.3634325116873,4.36195607110858 L 335.2907099202275,4.530003276653588 L 335.93773511610925,5.002155331894755 L 336.25372413918376,5.508350169286132 L 336.5753558538854,5.706435381900519 L 336.43428930826485,6.240690446458757 L 336.64871045202017,6.618893239181489 L 337.52144208550453,7.4153805379755795 L 338.55216825567186,8.848463371861726 L 338.7891600802541,9.465010758955032 L 340.99355984665453,11.471131712663919 L 340.9032772630453,11.89965225243941 L 340.28258446604013,12.522451088298112 L 340.36158175580204,12.820851610973477 L 341.9979535713792,12.390277347527444 L 342.45689006894827,12.832868000958115 L 343.3446688093245,13.11726093199104 L 344.4957717731595,14.835858402308077 L 347.2851274330169,16.458662854507565 L 348.0431249663234,17.57278624176979 L 348.9158566016704,18.21408163383603 L 353.5710523724556,20.41493436926976 L 354.46259292401373,20.55326043535024 L 355.15099762380123,20.932166416663677 L 355.87890094704926,22.708663747180253 L 356.54473501443863,23.274181878194213 L 357.1466188952327,23.274181878194213 L 356.8832947164774,22.700642535928637 L 357.1616660002619,22.417899470310658 L 358.43502664007246,22.572303951252252 L 359.0670047327876,22.98339606868103 L 359.5541545115411,23.595061806496233 L 359.8739052992314,24.329125503543764 L 359.9867585655302,25.12544383108616 L 362.22501426003873,26.6119937133044 L 362.37172350101173,28.975825030822307 L 363.039438450709,29.65420786337927 L 363.65825031884015,31.386567152570933 L 362.22501426003873,33.71373123349622 L 360.5284540709108,34.97097891289741 L 358.423741299659,35.67400415614247 L 358.72280238196254,35.12162168044597 L 358.43502664007246,34.784186051692814 L 356.8607240356505,35.71217026049271 L 356.37921695038676,36.212364939041436 L 356.20053266361356,37.31331188650802 L 356.35664626955986,37.64684219984338 L 357.46260796301067,38.157212286256254 L 358.43502664007246,39.50764977745712 L 358.43502664007246,39.841277334839106 L 356.75915615819395,40.914613532833755 L 355.86385384202003,41.103568751364946 L 355.54034124314785,40.17893962189555 L 354.60930211655796,41.101558569818735 L 352.91462276503444,43.42368345241994 L 351.607406148687,43.89020571671426 L 350.2851424738765,43.773572425358 L 348.8312167096883,43.42971586668864 L 347.6218062546104,42.89888063678518 L 347.01992232725024,42.20523214619607 L 346.5797947458923,42.48268381971866 L 346.3127087559551,42.476652167737484 L 344.6612898353487,41.86345792748034 L 343.34090704470873,42.00418658135459 L 340.99355984665453,42.87676332471892 L 339.1954316869378,41.91170748369768 L 338.7853982690722,41.86747869942337 L 338.11580243706703,42.38014614395797 L 337.4556110650301,42.609349984675646 L 335.7270757369697,42.58321231929585 L 334.5233079288155,43.03158593038097 L 333.75590598396957,42.87676332471892 L 331.4856751486659,43.0134896133095 L 330.6938216406852,43.26684198062867 L 329.46560231409967,44.11543378699571 L 328.60227509215474,44.37284555984661 L 326.9057148564607,44.5659102126956 L 325.90132113173604,44.32458019955084 L 324.6241987273097,43.21858370024711 L 323.9226278029382,42.87676332471892 L 320.916970115155,42.7882946790196 L 319.34266755729914,43.19847618788481 L 318.84423243813217,44.26022680429742 L 318.4981492049992,44.26022680429742 L 318.2141352277249,43.55237636528909 L 316.69625927880406,45.35430927481502 L 315.13888470828533,45.81290616141632 L 314.58214209601283,46.34998302627355 L 313.76583707146347,47.94132512668148 L 312.4247644804418,49.28547905571759 L 311.48808270692825,49.8731194967404 L 310.75453669019043,49.84494386892766 L 310.25798245333135,49.57124358601868 L 309.97773028723896,50.64195207180455 L 309.12945017032325,51.78528460022062 L 308.6686327904463,52.92073958320543 L 305.40341268852353,55.310997092630714 L 304.77143459767103,55.49024716857821 L 303.14822896011174,55.40162860881537 L 302.57267747819424,55.73395358910784 L 301.37079055048525,57.800745776854455 L 299.1024406440556,59.67666860623285 L 298.6905263438821,59.72503384761512 L 298.3745372761041,60.188549872953445 L 298.0905233453959,61.88163884822279 L 297.92876704595983,65.10361470282078 L 297.56387489661574,66.49123366596177 L 296.85666132718325,67.8871851186268 L 296.3657497819513,69.29349200613797 L 296.66481086425483,70.72025173390284 L 297.0880104582757,70.2197442157194 L 297.6014926843345,70.1470927298069 L 298.0340966898948,70.48008457245305 L 298.2146618589759,71.19455468514934 L 297.8761022016406,71.70320311374962 L 296.3751542400569,72.2058310448192 L 296.0328327715397,72.56516061536968 L 295.2052424065769,76.82597995875403 L 294.33627253584564,78.33705028286204 L 293.85852716863155,80.71742258500308 L 293.14755183272064,82.30207705358043 L 292.2071082480252,83.66062883427367 L 291.24221310019493,84.64735644496977 L 290.48797737807035,85.15694894082844 L 289.76571670360863,85.42793740471825 L 286.74501186423004,85.9962373264134 L 286.52494807355106,86.36636423086748 L 286.82400915399194,87.05205940501764 L 287.3468957915902,86.75066913571209 L 287.93373256735504,86.65155696868896 L 289.20521232672036,86.68189725698903 L 289.3895392604172,86.90844234125689 L 288.5732342340052,88.21121489210054 L 286.82400915399194,89.40090903406963 L 285.81209185533226,89.55874039884657 L 284.93183664418757,89.09132679831237 L 282.7895061336458,88.59359512431547 L 280.6396520938724,88.3811591565609 L 280.1487405486405,88.06555161206052 L 279.69920850917697,87.36155385058373 L 276.8703541792929,87.56182208796963 L 276.3794426359236,87.36155385058373 L 276.065334495157,87.73175095859915 L 275.2716001048684,87.28873046860099 L 274.4270817525685,87.09049263270572 L 271.52675370685756,86.89226030604914 L 269.0947666205466,85.69489123579115 L 267.19507058151066,85.18323840247467 L 265.36308644525707,85.02348074968904 L 263.4897228050977,85.19537205900997 L 259.7843750771135,86.27534763840958 L 259.02073489688337,86.74662372469902 L 258.1630503218621,87.5476615135558 L 257.51038247719407,87.64678602153435 L 254.20378282666206,87.36155385058373 L 253.18810376152396,87.68319945735857 L 252.30784855224192,88.3811591565609 L 251.2000060211867,89.99987725680694 L 250.8802551869303,89.07716326089576 L 250.53417195565999,88.74938548728824 L 250.07335457392037,88.67654800135642 L 248.90532366931438,89.46768344938755 L 246.65202082134783,90.13546145800501 L 246.28336690738797,90.44913620734587 L 245.4689427651465,91.94686927879229 L 244.876463342458,92.14524121582508 L 241.61124319583178,92.2302594059147 L 238.49649400822818,93.13515860075131 L 237.30965418741107,93.11693802336231 L 236.7886484786868,92.31527860509232 L 236.47454029135406,91.4469155203551 L 235.69021035917103,91.5663345050998 L 233.6306389030069,92.48532007914037 L 233.6306389030069,92.82541513815522 L 234.57860601693392,93.19589417753741 L 234.57860601693392,93.505653669592 L 233.86198803409934,93.67167404992506 L 233.6306389030069,95.54270700039342 L 232.84630892425776,94.96352546242997 L 232.0300038997084,94.71242635278031 L 230.1039754152298,94.86632476234809 L 228.62559813447297,95.33411525562406 L 228.20804114080966,95.23488441482186 L 228.0839026272297,94.88252474553883 L 228.37732101604342,94.54435686115175 L 229.2124349102378,94.21632901905105 L 228.64440700411797,93.59676191862673 L 227.7867224290967,94.00980072375387 L 227.00051161460578,94.9027748266235 L 226.6581901460886,95.71282520750538 L 226.5547413378954,96.78223237860948 L 226.23687138780951,97.71809511771426 L 225.6857714690268,98.38259170390666 L 223.94595080055296,98.79793357243761 L 222.05001652613282,99.521293990314 L 220.0938938781619,99.94683446269482 L 218.73213157989085,101.0938940946944 L 216.31707243435085,101.8681626287289 L 214.8913599513471,103.09662563353777 L 209.84682056121528,108.52995759807527 L 209.7226820010692,109.28474815469235 L 209.53083149157465,109.55259641818702 L 208.58286437764764,109.55259641818702 L 208.0806674938649,110.00512084830552 L 207.95088628679514,110.91431586816907 L 209.41045469790697,110.82095560757443 L 210.20418908819556,111.07262519886717 L 210.82300100289285,111.59628911782056 L 209.84682056121528,111.28776922635734 L 210.48256041668355,112.55441067833453 L 210.47503684088588,112.96043373644352 L 210.10638297349215,113.11472864216194 L 209.13208341412246,112.98682607803494 L 209.18662914261222,113.63854447985068 L 208.2743988391012,113.64260520925745 L 207.69132382795215,114.00402050325647 L 207.6348972171545,114.61928134318441 L 208.2969695199281,115.37472481559962 L 207.19476963579655,116.05916176736355 L 206.40103524550796,117.07883259328082 L 206.08504617586732,116.56897865328938 L 205.5170182697475,116.38820270076394 L 204.83049445226789,116.47351210797206 L 204.16466038487852,116.76600944483653 L 203.9145023841411,115.70170270418748 L 204.35086820088327,115.02339288685471 L 205.74460559152067,114.01011191587895 L 207.02925152517855,111.94136027107015 L 207.31514638476074,110.72759663360193 L 207.03301333636045,109.55259641818702 L 205.0467964783311,110.3074963465333 L 199.30256704613566,110.14311611978337 L 193.61288329400122,110.54494123766199 L 186.94890002906322,109.7981329774484 L 182.93508680723608,110.2039972404018 L 180.29620210640132,111.4095518141985 L 178.48114595748484,111.77897176379338 L 177.77769415080547,112.28035836201161 L 177.31123417057097,113.04570158477873 L 175.96075716800988,116.05509964050725 L 175.93066295795143,116.84726091148332 L 176.27862707339227,118.96825623139739 L 174.8435101788491,121.01265873434022 L 174.22469831071794,121.41510659921914 L 173.60400551371276,121.5492610395886 L 173.0848806872964,121.37445425335318 L 172.77829607576132,120.8602224108763 L 172.78958136960864,120.23831669194624 L 173.436606567353,118.09865177189931 L 173.46858165971935,112.0489447042346 L 173.10745132155716,110.50435180356726 L 172.14631798490882,110.57335401093587 L 172.80462847463787,111.66124242683873 L 172.61089708283544,113.23248228896409 L 171.94694394618273,114.67817052034661 L 171.5162207763642,115.03354676580057 L 169.93627552315593,114.35124032245949 L 169.7914472129196,113.92686287267134 L 169.8459929395467,112.99697696650401 L 169.6484997831285,112.61531263636425 L 169.10304251126945,112.36358797503635 L 168.04222213290632,112.96043373644352 L 167.7074242401868,112.72087731864303 L 167.51933549530804,112.07127380277961 L 166.95130758918822,111.93730052281171 L 165.27731798775494,112.69245588313788 L 164.2597580421716,116.01447840128094 L 162.50489031523466,116.76600944483653 L 160.28168167732656,116.76600944483653 L 158.3707002978772,117.72686784761027 L 157.3362123183906,116.92038796143606 L 156.1663005296141,116.39632734283805 L 155.70548314973712,117.07883259328082 L 153.00641007348895,118.11084171151742 L 152.4553101081401,118.12303172238171 L 152.20703298971057,117.57450307440013 L 151.75562006607652,117.37135517923161 L 149.6584308706224,117.43433042615652 L 148.7330343928188,117.72686784761027 L 148.6126575972885,117.11539725540206 L 148.3135965615511,116.95695179700851 L 147.4427457638085,117.07883259328082 L 147.78506723232567,116.39632734283805 L 145.11796924844384,116.66850897762924 L 144.45965871028602,116.92241927515715 L 143.29350868798792,118.22461580531672 L 142.87407081201673,118.91949052968994 L 142.70667186565697,119.6510120825842 L 141.90541394613683,120.49235645867884 L 135.35616478323936,123.13491778587922 L 133.57308372668922,124.33456425042823 L 132.26586715877056,124.580618979875 L 131.46272830851376,125.97780513111502 L 129.98435102961957,126.07543560769409 L 129.2019019331783,126.46190303238109 L 128.76553611457348,127.31220696400851 L 129.0237526036799,128.0950319780968 L 129.57807937636971,128.57768434099853 L 130.85643750615418,129.0598194100894 L 136.17725489474833,128.87603604327887 L 137.91297145746648,129.32465084129944 L 139.14288491755724,129.12921297643334 L 141.40314606018364,129.3959921351634 L 143.68835059553385,129.00627668155357 L 146.06876910291612,129.3843216667883 L 147.8979204967618,130.1690137651749 L 148.41704532317817,130.07336088689044 L 148.89479069039226,130.32979496056214 L 149.80890187621117,130.32775973714888 L 150.97505069710314,130.64861978357658 L 152.01753739640117,131.67866529896855 L 152.45142723433673,131.8608249956742 L 152.39405676349998,132.9093026588671 L 152.5794486682862,133.38534712139517 L 152.46317565441132,134.16321883909404 L 152.86346264369786,135.57045678934082 L 152.83544530905783,136.1100600627251 L 152.16878187842667,136.33626583451405 L 151.47754096984863,136.35751145798713 L 147.74467661231756,139.37973579578102 L 142.00750134326518,141.46820266498253 L 136.68971379846334,141.06581866228953 L 131.7783250696957,140.22542439540848 L 130.290935639292,140.87421205826104 L 127.15300232358277,141.77096536569297 L 123.6405659597367,141.7631101179868 L 120.6739594861865,141.41439339565113 L 118.24418300203979,141.90357656497508 L 115.20387117750943,141.50099211232737 L 112.77047155611217,142.0973249869421 L 110.8782990463078,141.41439339565113 L 108.72956276498735,141.88293652702123 L 107.08732194080949,141.49097551219165 L 102.21117093600333,142.80275251623243 L 101.21994343400002,142.78236342174932 L 100.25881005078554,142.28896576631814 L 99.78670737706125,141.47554867342114 L 99.61554666608572,139.51884944736958 L 99.33341357111931,138.61406429624185 L 98.65253240056336,138.14745355350897 L 97.08951518312097,137.6217902339995 L 93.76034484989941,134.88613561727107 L 91.99795359373093,134.57454754738137 L 88.91894126310945,132.95777365379035 L 87.40670800767839,131.9418836394325 L 86.14087089709938,130.60862694261596 L 83.50198619440198,125.53238350013271 L 82.4073098860681,124.44640623684973 L 80.90636192448437,124.26949339965358 L 79.38472416438162,124.70873352186754 L 78.75650788471103,124.76567409140989 L 78.09631646424532,124.580618979875 L 78.01920010335743,123.56798668485135 L 76.9094766434282,123.60458529600874 L 76.83424116484821,122.56566622992977 L 75.16213244572282,121.48218347225338 L 74.59786630421877,120.8602224108763 L 74.34958918578923,120.43951546214521 L 74.28187728114426,119.80545419640839 L 73.75146706961095,118.76303611742333 L 73.33391012251377,118.43997895298526 L 73.11384632997215,118.75287683680654 L 73.0875139310956,118.16772852744907 L 72.76023952290416,117.8243830348365 L 72.50191098451614,118.33219556417316 L 72.11857273802161,118.49287570733577 L 71.71262368559837,118.43871710868552 L 71.67709451541305,117.617423185613 L 70.91525580361485,116.78179864538833 L 68.61100244708359,116.58116598334163 L 66.22415658086538,116.88788697263226 L 64.18151311390102,117.72686784761027 L 64.5652141328901,118.14741175808012 L 64.4429564550519,118.65534872328863 L 63.83731076307595,119.80545419640839 L 63.52132174000144,119.80545419640839 L 62.86677301488817,118.47045542718843 L 61.72131269797683,117.2636892227456 L 60.36895481310785,116.39226502086967 L 59.10311774723232,116.05509964050725 L 59.39089348912239,116.76600944483653 L 54.02472238242626,116.05509964050725 L 53.71813777089119,116.5953845535405 L 53.708733312785625,117.07883259328082 L 53.18020402826369,116.91632533585653 L 52.630984991788864,116.21555583877489 L 51.95950823277235,116.05509964050725 L 48.36889465153217,116.2622716575861 L 47.341930247843266,116.05509964050725 L 45.44599597342312,114.18067404953763 L 44.815898763015866,111.93730052281171 L 45.05853318981826,111.61049760924652 L 45.16010111384094,110.57335401093587 L 44.63533359579742,111.01579579291865 L 44.12749406322837,110.90213840547949 L 43.81338587589562,110.36837888602167 L 43.867931604385376,109.55259641818702 L 44.21777664683759,108.89313971949741 L 44.67107045277953,108.64966361131519 L 45.20524238422513,108.78357445215806 L 45.79207920655608,109.24213682161644 L 45.52875498123467,108.16273652203381 L 43.930000906810164,106.97396382084116 L 43.55194258131087,105.96183874737471 L 44.21777664683759,105.07355960505083 L 44.01275991462171,104.5990451881662 L 42.53626351803541,103.5041330945678 L 41.971997329965234,103.39465116104111 L 41.103027459234,103.60753421625122 L 39.35568326152861,104.5442955577746 L 38.32871890440583,104.75721313012764 L 37.32432513311505,104.52401802968234 L 34.68732131458819,103.05405158689246 L 32.79514880478382,103.05405158689246 L 31.23401246778667,102.17627195781097 L 29.78949111700058,101.7424902478233 L 24.331156497821212,97.15089092683047 L 22.346820520237088,96.06320044444874 L 20.396340519189835,95.88294746587053 L 19.796337520703673,96.86528015555814 L 21.647130524739623,100.77975160442293 L 22.00637998059392,102.7438768837601 L 20.960606707260013,104.19755776645616 L 19.117337277159095,104.51590705476701 L 17.05964670330286,104.2036407738924 L 13.388154903426766,103.1148717389442 L 11.597550319507718,102.25735563365743 L 6.929188370704651,99.1322506791912 L 5.070871837437153,98.67434148769826 L 3.0602034144103527,98.70675888471305 L 1.1191278714686632,99.31461206590757 L 0.48526889830827713,99.82930169813335 L 0.10909145511686802,100.53858062205836 L 0.0,101.35737912356853 L 0.16551806405186653,102.19248861866072 L 0.556742612272501,102.91822178149596 L 1.1586264930665493,103.37234950391576 L 2.1291642878204584,102.19654277758673 L 3.329170286655426,102.03235080558807 L 4.119142912328243,102.36681997776031 L 4.662719301879406,102.93241279711947 L 4.687170818448067,103.56495710415766 L 3.9291732851415873,104.10631383489817 L 4.717265028506517,104.53821230819449 L 5.418835952877998,104.53618455957621 L 5.857082651928067,104.05359561927617 L 5.853320887312293,103.05405158689246 L 9.639546789228916,105.09586661402136 L 12.99693040177226,106.09569869330153 L 16.931746380403638,107.87262507900596 L 19.796337520703673,109.89350898377597 L 20.971892001107335,109.85901112109423 L 21.26154862344265,109.63173535838723 L 21.058412820100784,109.24213682161644 L 22.510457748547196,108.59691154118627 L 23.588206069543958,108.90125576406717 L 24.635860225185752,109.54245048994198 L 25.991979874670506,109.89350898377597 L 26.663456635549664,109.68855361267924 L 27.44778656773269,109.19749671034515 L 28.102335292845964,108.57865130295977 L 28.597008649259806,107.72655951650813 L 29.85156037285924,108.6395189310424 L 30.556893061846495,108.52995759807527 L 31.21520359814167,111.28776922635734 L 30.173192089423537,109.79001590143889 L 29.65030545182526,109.32735969498754 L 29.005161138251424,109.89350898377597 L 28.732432501390576,110.84531037369743 L 28.790739994496107,111.58005088381469 L 28.632745506241918,112.15247095841914 L 27.71675343811512,112.61531263636425 L 28.373183047398925,114.01011191587895 L 27.51549851708114,114.10757547849789 L 25.738060109317303,114.90560923842713 L 25.158746862784028,115.37472481559962 L 24.052785214036703,117.56231401767582 L 23.294787680730224,117.72686784761027 L 24.274729887023568,118.93168189842254 L 24.696048645302653,119.84203309658915 L 25.158746862784028,122.9072115700692 L 25.820819163694978,125.10732728242874 L 26.610791789367795,126.50258505763486 L 27.57192512601614,126.82804987579584 L 28.059074906632304,128.0222293669358 L 29.04465975984931,129.47505160048604 L 29.72742181457579,130.2504214970395 L 30.556893061846495,130.7572061792016 L 30.556893061846495,131.12968601100147 L 29.608925947919488,131.12968601100147 L 30.406422102823853,131.78310068370774 L 32.38511538691819,132.1474926029332 L 33.250323491171,132.6503442930989 L 34.382617585361004,134.52974520483986 L 34.59703872911632,135.61322915554047 L 34.055343221873045,136.252808842808 L 34.055343221873045,136.62762195710093 L 35.00331033580005,136.252808842808 L 35.66162087395787,136.75799653027207 L 36.286075389012694,136.85577906528488 L 36.824009131640196,136.57465803297237 L 37.211471915245056,135.94319596141577 L 37.62150528654456,137.81738119991496 L 37.8697824049741,138.30230776406825 L 38.32495709322393,138.48976753512397 L 39.521201372146606,138.5957252830267 L 39.765716679394245,138.83209848497063 L 39.94628184847534,140.18936389312148 L 40.27731797657907,140.79064058465883 L 41.48672843165696,140.14452498825267 L 41.971997329965234,140.40133337397128 L 42.91996449045837,141.41439339565113 L 42.57011944614351,141.98723588185385 L 42.094255005940795,142.3378961570561 L 41.47732402011752,142.4765342241153 L 40.71368383988738,142.40721486555412 L 41.25914111174643,143.1493764440529 L 41.67669805884361,143.3981408867985 L 42.1187065243721,143.49601788911968 L 42.863537879660726,143.22278141509742 L 43.56322787515819,142.00150660332292 L 44.01275991462171,141.72629104042426 L 44.63345271348953,141.83637596201152 L 47.998359855264425,144.15264554973692 L 48.630337946116924,143.49601788911968 L 49.070465529337525,144.56052051484585 L 49.775798263028264,145.0296067390591 L 52.55574946664274,145.3273911755532 L 55.7419723700732,146.9511562185362 L 57.340726444497705,147.53058281214908 L 58.098723977804184,147.60403472092003 L 59.19904297962785,147.24086337629706 L 60.02287157997489,147.336755071301 L 60.99717113934457,147.91417387546971 L 60.99717113934457,148.28962430218235 L 60.33509883843362,147.91417387546971 L 60.24857806414366,148.26717832311988 L 60.019109815359116,148.28962430218235 L 61.00469466857612,148.91610114462674 L 62.02037377841771,149.22017742646858 L 64.326341426,149.3140560653992 L 65.09750518202782,151.2000656821765 L 65.3909235689789,151.35929816635326 L 67.30754759535193,151.37154699256644 L 66.99155857227743,150.6856476906687 L 67.89438441768289,150.51826605433598 L 68.43607992492616,151.03675418905914 L 69.20348186977208,152.40052543068305 L 69.89376750029624,152.68638040404767 L 71.75584579817951,151.7145225140266 L 71.4285714365542,151.19598285714164 L 71.93264920264482,151.35317378677428 L 73.0461343806237,152.21064268937334 L 73.32450570911169,153.03759007388726 L 74.01291041076183,154.1240045200102 L 74.88188028149307,155.07578094955534 L 76.33768697269261,155.69062586221844 L 78.72829455696046,157.22900351975113 L 79.66497637704015,157.62540175765753 L 80.52266090549529,157.66626886511222 L 81.26937314495444,157.4006370198913 L 81.88254236616194,156.8551027518697 L 81.88254236616194,156.5425130072981 L 81.45934272557497,156.21768013434485 L 81.28065843880177,155.61708664754406 L 81.36906014196575,154.9123763446696 L 81.72454783134162,154.28330543870106 L 82.28881397284567,154.02393277687952 L 82.7627975307405,154.330279531423 L 83.49070090055466,155.1738255796954 L 82.64618254639208,155.87243451783434 L 82.70072827488184,156.52616888377815 L 83.3797285631299,157.1002812832594 L 84.40669292211533,157.53958159359172 L 86.33272140659392,157.91556354844943 L 87.29385474324226,158.51636065915227 L 88.04432874545455,158.51227343454957 L 89.16909926384687,157.91556354844943 L 90.02678384073079,158.49796811770648 L 90.46314965747297,158.25478260358796 L 90.75280628167093,157.7377868713811 L 89.98916610144079,157.50484517076984 L 89.80107735656202,157.22900351975113 L 89.99104698374867,156.70799992745742 L 90.27318003028631,156.5363839562051 L 90.6343103684485,156.7100429958664 L 91.06315265595913,157.22900351975113 L 90.96722742542624,156.23606649041176 L 91.77412799187005,156.1706929844804 L 92.78040264360607,156.84488719934598 L 93.27507600001991,158.0872144359164 L 93.92962472513318,159.16217479342595 L 95.42869180440903,159.19487589830533 L 97.0838725361973,158.92714036861435 L 99.21303677745163,159.48101713042706 L 103.39989163912833,159.28480467619374 L 107.68643354251981,159.84893082920462 L 108.79427607357502,160.31293941335753 L 109.74224323406816,160.24548241775483 L 111.74914984405041,161.40460933512077 L 112.77047155611217,161.7174236816354 L 113.71467695198953,162.74797343974933 L 114.72659425064921,162.98518572561443 L 117.53663966432214,164.94045990845188 L 119.37614732794464,165.2207078449428 L 121.5053116157651,166.1474499902688 L 124.73855667002499,166.6835047826171 L 126.2056486569345,167.29326789593324 L 129.39751420728862,166.5218654507771 L 133.3398537132889,167.2093710466288 L 134.81070751138031,167.60840204544365 L 137.00006017275155,166.1474499902688 L 138.3731078095734,165.75464303884655 L 141.3336242288351,165.46414429601282 L 142.70667186565697,165.12047181045637 L 143.7373980358243,165.4600528641604 L 152.15060638077557,165.41095572942868 L 152.87850974872708,165.5132417678833 L 153.49544073455036,165.8344300929457 L 154.0220891367644,165.5521108750254 L 155.70548314973712,165.4600528641604 L 157.8139576856047,164.03229133877903 L 157.9738331027329,163.02404025848955 L 157.825242979452,161.86872471962124 L 157.59953654184937,160.99981230078265 L 157.02774682454765,160.2618355685845 L 158.12618494406343,159.90207558544353 L 159.33371451683342,160.31293941335753 L 159.96569260768592,162.21632100455463 L 160.34939358010888,162.57211453514174 L 164.99894670583308,163.3778312895447 L 165.51807157695293,163.60688505508006 L 166.01462576910853,164.15091902390122 L 170.0246772263199,165.04683003062382 L 171.74192721396685,165.89580538962036 L 172.87045954354107,166.7653489606455 L 174.91498389281332,167.97675940115005 L 175.6748623084277,168.20596973225474 L 176.5325468853116,167.86625006003305 L 175.8779981136322,167.29531416855752 L 174.59899482503533,166.7612567381002 L 172.49804386496544,166.2088281409815 L 169.9870594870299,164.66636009840295 L 169.33627252466977,164.0895596211776 L 169.33627252466977,163.7745901136659 L 171.38643956929445,163.24490183591843 L 174.02344338968396,160.14736439380795 L 175.6748623084277,159.28480467619374 L 176.59273525886238,159.26436620811 L 176.98960245400667,159.48919280199334 L 178.01468597725034,160.8464864003472 L 178.95889132656157,162.74797343974933 L 180.72504439391196,163.0915249553509 L 182.64543018490076,162.74797343974933 L 183.14574618637562,162.85021908348426 L 183.2510758768767,161.87281397311017 L 183.59715911000967,160.768802607432 L 184.44732010923326,160.4969163616188 L 193.69376146793365,162.40443935990334 L 194.82981732487679,162.43511135457084 L 196.98531401343644,161.98322505271062 L 198.1401787418872,162.03025251440704 L 199.10695477202535,162.44533534999937 L 199.97216287627816,163.20604603085667 L 200.226082643494,164.15091902390122 L 199.3740407600999,165.12047181045637 L 199.97592464089394,165.4068643306382 L 201.18533509783447,165.37413312587887 L 201.63862890191376,165.12047181045637 L 201.63862890191376,164.80545412562788 L 201.24364258907735,164.43727033771574 L 200.03235125169158,162.03025251440704 L 201.32075894996524,161.0550104319118 L 203.05681780911982,157.90330296941102 L 204.0066658500582,157.22900351975113 L 206.61357546038926,156.8121974337846 L 207.32266996055841,156.5425130072981 L 208.8480694387108,155.0185888982378 L 209.68882602639496,154.79595298180357 L 212.29573563672602,154.8020805120468 L 212.87128711864352,154.62438538996503 L 214.31016582250595,153.58077557617798 L 215.07944864965975,153.2989671570249 L 215.86942127533257,153.11518535437062 L 217.3910589888692,153.06617768201977 L 218.8242950476706,153.3683971101418 L 221.57979473285377,154.45486446889117 L 221.23371150158346,155.65181340556592 L 222.01239878684282,155.67836925480515 L 224.4669565539807,154.4466948644258 L 225.55599026195705,154.10766616649926 L 226.48138674162328,154.281263100449 L 226.6581901460886,155.48226683959365 L 227.65882210433483,154.8551856689155 L 228.05004665255547,154.42218621028587 L 229.35538234002888,151.7145225140266 L 231.10460742004216,150.6856476906687 L 232.5002256911248,150.57133784284815 L 232.65445846132934,149.96920156199485 L 233.6137109156698,150.26311906334013 L 235.1203015241772,151.69410682143643 L 237.95856026560068,152.49853149056435 L 238.36483191885054,152.40052543068305 L 238.36483191885054,152.0166819775477 L 237.07266240753233,151.0285886870697 L 236.01184207573533,151.5430325693451 L 235.4983598496765,151.13474062504247 L 234.89459508657455,149.3140560653992 L 235.3967919703573,148.53449442610145 L 236.12657617591321,147.91417387546971 L 238.52282645367086,147.60403472092003 L 239.33913147822022,147.32655373960733 L 242.65325465984643,144.833810322918 L 243.44322728551924,145.5497181271203 L 244.4965240880847,145.6843416430056 L 244.893391283229,145.429375117179 L 246.03508983552456,140.35445495555177 L 247.31409312412143,139.8062047776766 L 248.33541483432055,138.83209848497063 L 248.86394411884248,138.0333526735194 L 249.9266453795135,135.75580547377467 L 251.09843809716403,134.4279227568768 L 251.35988143831491,134.20188224036247 L 252.0482861381024,134.069519655779 L 253.916007084772,133.89439761685207 L 255.3868608828634,131.40651458874345 L 259.22010893560946,128.12599228601903 L 260.5743477027863,127.4830939960666 L 261.80444791167974,127.6824674862437 L 263.1417586915195,126.58191569615155 L 263.98251527920365,126.28900705417618 L 264.36057360470295,126.82804987579584 L 264.8571277949959,126.88907621568069 L 267.2778295893222,126.36223307112232 L 268.14679946005344,126.35002871463075 L 268.6489963438362,126.71006712736562 L 268.8652983698994,127.25117691000924 L 269.438968969509,127.31220696400851 L 271.1599807217717,126.6571789435111 L 272.15308915264904,126.80160530982539 L 274.7750458661467,127.6824674862437 L 275.8283427171409,127.69874313473701 L 282.9380962103605,126.88500778656453 L 285.1029973551631,126.99892500741407 L 286.22212522663176,123.58628596644849 L 286.82400915399194,123.92788128787652 L 287.2867073714733,123.28130424255505 L 287.71554965898395,123.67981637222692 L 288.43028680607677,125.26392391743138 L 287.83968821913004,126.10391144827008 L 287.13999817706645,126.6571789435111 L 287.13999817706645,126.99892500741407 L 288.5130458138883,126.81381045887247 L 289.9895422589034,125.31883526965976 L 295.039724342525,123.52122210012749 L 295.68863042257726,123.06172568444163 L 296.08361668884754,122.42336055869237 L 297.0033705215901,121.63463336555287 L 298.87297239527106,120.48829176044092 L 299.9770531617105,120.15296142036095 L 302.758885294199,119.67539748968557 L 303.6090462934226,119.80545419640839 L 303.6090462934226,118.43997895298526 L 304.26735682971776,118.8118007290177 L 305.3469860330224,116.92241927515715 L 307.310632256791,115.66920731030405 L 308.6874416600913,115.68139307806268 L 310.9858858231455,114.83250312646851 L 313.2768064085394,114.66192517243326 L 313.67931625247,114.44870861526579 L 313.80721657536924,113.38881345279515 L 314.051731929183,112.96043373644352 L 315.6185109131038,112.87719711614773 L 315.31380718387663,112.61531263636425 L 315.7990760821849,112.15856076776981 L 317.553943855688,111.59628911782056 L 318.23670586384833,111.8358072754927 L 318.6749526094645,111.36083851661533 L 319.288121830672,110.04976606881246 L 320.4204158782959,108.87082073185593 L 320.72511960566044,107.9598601590842 L 321.5564717371017,106.48512382246554 L 321.9270065333694,106.0044302623719 L 323.0310872979462,105.41628426034003 L 325.1546088941395,103.22434930549935 L 326.09693340584636,101.3654865399003 L 326.4185650758445,101.01282374281436 L 326.97342680580914,101.0959208603017 L 327.2367510292679,101.59452406549826 L 327.45681482180953,105.31691269390285 L 327.71073458716273,105.80972824199125 L 328.2185741197318,106.02876837924123 L 330.20479097776115,105.80972824199125 L 329.7947575598955,105.29257702361792 L 328.3163802791387,105.02489002048969 L 327.9966294448823,104.5990451881662 L 328.24490656517446,103.04188759904355 L 328.54020583443344,102.5127751273103 L 329.47124500758946,101.53168999170884 L 329.8737548496574,101.34116441803053 L 331.0098107084632,101.35332544334233 L 331.5082457829267,101.02093071630225 L 331.85809082724154,100.25080748647451 L 332.2963375262916,98.19620229117572 L 332.72706069611013,97.76468892628327 L 334.90512801893055,96.99896887969226 L 335.5841283071786,97.3291502352804 L 336.74463568255305,96.59588478459045 L 339.5546811427921,97.02327622566372 L 340.36158175580204,96.93212422961369 L 343.2017213795334,95.23488441482186 L 343.22805377840996,95.9234533556737 L 343.58918411657214,96.26978813903406 L 344.77978570200503,96.59588478459045 L 344.8531403001398,96.1016820105724 L 345.1239880528301,95.85054289968684 L 345.5471876934171,95.79383528744802 L 346.07195521332324,95.88294746587053 L 345.7559661436826,96.59588478459045 L 346.40675310604274,96.38118594838306 L 347.9622468408197,94.86632476234809 L 347.29829365573823,94.77722526108846 L 346.5497005339712,95.07895301375538 L 346.38794423639774,94.21632901905105 L 346.4951548073441,93.30521949427202 L 347.57854582183063,90.44913620734587 L 349.5704053733498,90.0767754460685 L 350.9773089848459,89.40090903406963 L 351.42119833268225,89.50410611042753 L 351.91210987605155,90.0767754460685 L 351.61869148910046,90.94294879725203 L 351.1785639077425,91.53799758804962 L 349.9766769800335,92.08451449824497 L 349.48012278974056,92.7484874650836 L 348.9102139547467,94.21632901905105 L 348.6506515406072,95.37259289436042 L 348.4381112791598,95.71282520750538 L 347.01992232725024,96.4257455393672 L 346.72274217382073,97.62896007066593 L 346.24499680660665,97.99563650367782 L 345.43997712247074,97.58236714918166 L 344.77978570200503,98.29344834852964 L 344.1534503046423,97.70999190350994 L 343.4989015329629,98.12326860660687 L 342.2537542190403,99.68340162793174 L 340.51581447944045,101.18307252973318 L 340.0267838165164,101.95329675776884 L 339.71079479530454,102.03843190707266 L 339.0712931267917,101.72627461375669 L 339.46439855732024,102.57764501823112 L 340.19982545636594,103.47372126020491 L 341.0443437639624,104.04954039957374 L 341.7666044384241,103.9359948928468 L 343.37476301938295,102.57359064184129 L 344.00674111023545,100.64396527130157 L 348.9158566016704,97.05973730050027 L 349.85818111523986,96.59588478459045 L 352.21117095835507,95.85864405240864 L 355.0926900859922,93.42871868703514 L 355.7133828829974,93.19589417753741 L 358.43502664007246,91.12914921436459 L 359.1177886482328,90.77901542093605 L 359.76105207949877,90.57460997579619 L 360.4494567811489,90.57056241156533 L 361.2770471461117,90.78913467843086 L 360.9177976921201,89.85013050446287 L 361.1679556928575,89.24915141100064 L 361.90902523882687,88.3811591565609 L 361.7472689393908,87.39392006816342 L 360.63566459715366,86.19039988983423 L 360.3309609144926,85.3268211260438 L 358.89772485755384,86.68189725698903 L 355.1716873757541,88.29214021749794 L 354.3045983891934,88.3811591565609 L 353.8889223244041,87.70747516676784 L 352.068223528564,88.74938548728824 L 351.00364138558507,88.6603619880043 L 350.63122570700943,88.16872946638614 L 350.7835775949061,87.62251051655039 L 351.8443979732692,87.23411337845027 L 353.0124288778752,86.34613822773099 L 353.47136537730694,86.23894137330353 L 354.76729660481215,86.34613822773099 L 355.6757651437074,85.96589987678453 L 355.9127569217235,85.14077083906159 L 355.5779589843005,84.3157361689955 L 354.76729660481215,83.93964876001701 L 354.63751539960504,83.53123192396015 L 355.54034124314785,81.44098447076976 L 357.8312618304044,81.42481474066153 L 357.46260796301067,80.5476587493904 L 359.5503927003592,81.56832270557061 L 359.9867585655302,81.62693946063519 L 360.3930301722139,82.37889311043546 L 360.96293900720775,85.01943630771711 L 362.13096991181374,87.24625044083223 L 362.5109091196209,87.73175095859915 L 363.3874025642872,87.89156875154004 L 364.23568268306553,87.3736911774613 L 369.19558218307793,81.25503431027755 L 369.9291281532496,80.57999442517757 L 370.707815438509,80.02828704565763 L 372.3818050380796,79.2179798190482 L 374.93604980409145,78.67041702289134 L 375.53793373145163,78.20370788639411 L 375.221944661811,77.52491188887507 L 376.16991182230413,77.52491188887507 L 375.8990640696138,76.50077737262473 L 375.53229103796184,75.99179374892265 L 374.9699057787657,75.82012085802853 L 373.33165308088064,75.71509938593954 L 372.6714616622776,75.44649374205619 L 372.2087634000927,74.97191406833008 L 372.0357218068093,74.27322752727196 L 372.6789851915091,73.049677928444 L 375.0413794927299,74.2954390658997 L 374.90595564059913,73.05977235548198 L 375.35172586888075,73.38482123194262 L 375.85392275452614,75.09308039722964 L 375.53793373145163,75.09308039722964 L 376.18495892733335,76.06248380010948 L 376.4558066818863,77.15523720020428 L 379.2959463056177,76.17154979007319 L 379.9222817495465,76.40382536966354 L 380.90410483814776,75.79992431076244 L 382.65332991816103,75.4606306469068 L 383.36618613637984,75.1435669879429 L 383.99440246261656,74.44688323931769 L 384.2671310994774,73.74420887930319 L 383.928571395576,73.42923895874992 L 383.1780974380672,73.25964539172128 L 380.5881157685071,72.07260098587722 L 380.7668000552803,72.81549054384232 L 380.3417195789516,73.2535885674879 L 379.8827830813825,73.27579699689522 L 379.9561376776546,72.75088841700926 L 379.7323121223599,71.96763358823955 L 380.34924310818315,71.64466637000442 L 382.01947094500065,71.19455468514934 L 382.7153991740197,70.65163176041096 L 383.4940864611417,70.29845079081133 L 385.3505221121013,70.04215295892209 L 385.3505221121013,70.34890414122492 L 384.0414246600121,70.93015221552923 L 383.46023053117096,72.07663821429014 L 383.48280116543174,72.39356844685972 L 384.37434167042375,72.75088841700926 L 385.18312316574156,72.77511412277818 L 386.2853230498731,72.42788656754419 L 387.30852568894625,71.81220383895561 L 387.90288604050875,71.02703139185905 L 388.1925426647067,71.02703139185905 L 388.1925426647067,72.07260098587722 L 388.50476992316544,72.07260098587722 L 388.34301362372935,70.0865503931418 L 387.8126034568995,69.43676079856232 L 385.3505221121013,69.32981341704726 L 385.3505221121013,68.99283838784322 L 386.29660839028656,68.99283838784322 L 385.66651118174195,68.6538612600416 L 386.03892681375146,68.01630391180515 L 387.5605645738542,68.31893493700773 L 387.9555508401245,67.98402398778126 L 388.42012998461723,67.12058928795159 L 388.84897227212787,66.96324527869001 L 389.4019531197846,67.30819608969614 L 389.90791177004576,67.9860414727591 L 390.71669321879745,67.97998901968822 L 392.6088657286018,68.99283838784322 L 389.7969393879175,69.67083982331678 L 389.2383159380406,70.33477719593793 L 389.0840831696987,71.12794855702668 L 389.4000721909106,71.7940369383432 L 390.24270966276526,72.07260098587722 L 395.77816064469516,71.90707615530118 L 396.91233562119305,71.54777899710461 L 397.5706461109221,71.00079317204654 L 399.0621896609664,70.41348500968888 L 400.9411959480494,68.96660747006536 L 405.85031148418784,67.0883133104071 L 407.323046118021,66.0999308321625 L 407.6841764561832,64.53089502826333 L 407.65032048150897,63.470271510537714 L 407.8421709910035,62.873486009426415 L 408.2954647950828,62.34730654256418 L 408.6152156293392,62.383593580685556 L 409.07791384495795,62.873486009426415 L 409.8189833909273,63.290827550925314 L 410.33434649929404,63.41180052282289 L 411.00018056482077,63.24243889003992 L 411.79767671972513,62.60333552258089 L 411.97448012419045,61.51880130544305 L 412.2641367483884,61.51880130544305 L 412.6045773345977,62.22635107394308 L 412.92056635580957,61.4643772081472 L 413.315552668646,61.29707608092576 L 413.5920430701226,61.68207600945607 L 413.5525444485247,62.56503140507266 L 415.75882509723306,62.56503140507266 L 416.76886151358485,63.40978429513052 L 417.16572870872915,63.54688937449828 L 418.32059343904257,63.401719390414655 L 418.7663637138903,63.151711089070886 L 419.15006468631327,62.286828559823334 L 419.539408352226,62.212239717599005 L 419.78204277716577,62.42592866765335 L 419.54693188145757,62.873486009426415 L 421.9318968169391,64.59542457666248 L 422.87986397743225,64.22035442804918 L 423.21466187015176,63.71222539944574 L 424.47109452448785,63.91990878153592 L 426.06796771660447,63.921925148926675 L 427.3751843329519,63.70819273032248 L 428.2855337075889,62.92187224328518 L 428.6993288900703,61.212419079616666 L 430.5237894486636,61.59741458343342 L 431.5752053707838,60.91411181492731 L 433.1777212563902,58.47771560167894 L 432.2316350247711,56.44699209276587 L 431.2535736542195,55.40162860881537 L 430.9657979141921,54.05234086047858 L 429.9294290971011,52.836178412195295 L 429.1714315637946,52.37513579428196 L 428.41343403048813,52.39325483562425 L 427.7269102130085,54.096641917247325 L 427.151358731091,53.74224077537656 L 426.46859667636454,54.02414943045005 L 425.9193776398897,53.74224077537656 L 426.57016460224986,53.58115495368838 L 426.8353697080165,53.03952947165817 L 425.5262722093612,52.942886700853705 L 425.55448553711176,52.338897893670946 L 426.5513557307422,50.64195207180455 L 426.8353697080165,50.64195207180455 L 427.352613652125,51.4229418663308 L 428.57142856530845,51.789310719352216 L 429.95576154254377,51.853729071095586 L 430.9657979141921,51.71684071049094 L 432.88242198713124,50.73051377572119 L 433.1777212563902,50.48898428538814 L 433.4165939167142,49.28145424183458 L 433.80405670031905,48.98161466093734 L 434.44167743995786,48.98362696217373 L 434.074904454872,47.80450868140906 L 433.42411749251187,47.80450868140906 L 431.7125101517886,48.73812961066142 L 431.2535736542195,49.691992511507124 L 430.76830480247736,50.05022570909932 L 428.2366306260228,49.65576763311401 L 427.3413283582777,49.33780129114166 L 424.31309998966753,49.691992511507124 L 424.5557344146073,49.12650206685066 L 424.4936651587486,48.49264034582302 L 424.02532424777746,47.297504908405244 L 424.0196816008538,46.37211060896516 L 423.68112189881504,45.26983399037272 L 424.10996418632567,44.83540462423116 L 424.64601700007915,43.76753973402083 L 426.42721717245877,42.75411388790235 L 427.151358731091,42.51083169365302 L 427.97518733143806,44.1073897825554 L 430.1871106289327,45.977846978697926 L 430.65168977342546,46.95952149666846 L 431.3833549078554,46.368087366689 L 431.82536337152123,45.60371812386438 L 431.9194077216089,44.7549575236626 L 431.5996569339186,43.89020571671426 L 432.79213940165937,44.0390163641423 L 433.22286252491176,43.888194787781686 L 432.942610360682,42.88882727781311 L 433.4165939167142,42.55104308249429 L 434.44167743995786,42.20523214619607 L 434.18399590812624,43.29499275051057 L 436.90752054937184,42.65157249895856 L 437.62601941265166,43.55237636528909 L 437.91191427223384,43.55237636528909 L 438.43668179214,43.00745748449117 L 439.20408378355205,42.53897962346673 L 439.5482861325145,43.55237636528909 L 438.78464590758085,43.86406363127753 L 437.91191427223384,43.89020571671426 L 438.48746575415134,44.6604332709685 L 439.59342740289867,44.984234070871025 L 441.69814017415047,44.901774168014526 L 443.46053143031895,43.960588773246855 L 443.77463961578906,43.395532198715955 L 442.67432061582804,43.18641173560172 L 443.30629870668054,41.86747869942337 L 443.61852596513927,41.86747869942337 L 443.93451503291726,42.53897962346673 L 444.32950134575367,41.477472845930606 L 445.45803362876177,41.23423206107691 L 448.06870505027473,41.52974051097408 L 445.5144602395594,42.94914748473093 L 444.5984681714326,43.18641173560172 L 445.18530499376357,43.821834282483906 L 446.31383727677166,44.11945576779544 L 447.5307713076472,44.12951077893376 L 448.38469407334924,43.89020571671426 L 448.06870505027473,44.26022680429742 L 450.93517707288265,43.749441638588905 L 451.5069667901844,43.427705061621964 L 451.6630804426968,43.08587509440258 L 450.9088446740061,42.87676332471892 L 450.9088446740061,42.53897962346673 L 452.1991332564503,42.20523214619607 L 452.4869089964777,42.53897962346673 L 453.0267236214131,42.14089700439945 L 453.8242197763175,42.35400932747871 L 454.58597912080586,42.3137989458628 L 455.0129404794425,41.16186440223828 L 455.35526194795966,42.20523214619607 L 456.2016611825675,41.67448357306421 L 456.5928857307881,41.65438020136207 L 456.9333263169974,41.86747869942337 L 456.2768966630101,42.53897962346673 L 459.99352973140776,43.0134896133095 L 462.17912063002586,42.16502261161804 L 462.3277107067406,41.69860772928223 L 462.65686599723995,41.415154211223125 L 464.53775316663086,41.52974051097408 L 466.8098648842424,39.74480518978089 L 470.46442865021527,39.31069588335231 L 471.41803845763206,39.00321693625301 L 472.14029913395643,38.49479895690456 L 471.4801077134907,38.157212286256254 L 472.14029913395643,36.977787310257554 L 472.2794847525656,36.30075622256845 L 473.3309007193893,35.6780216707848 L 475.01053296774626,35.12162168044597 L 475.17228926718235,34.46484127175063 L 478.1666616592556,32.39645638782531 L 480.49708086811006,28.87949155503884 L 480.8469258658588,28.662745715118945 L 480.9992777071893,28.3416521018371 L 483.26198501326144,25.95595009252429 L 485.3290799986571,25.3601429364644 L 486.57046554610133,24.595892870798707 L 487.60119171626866,23.595061806496233 L 487.9773691575974,22.572303951252252 L 488.3196906261146,22.572303951252252 L 488.9385024961084,23.262149123474956 L 489.87518431432545,23.25813822587952 L 491.793689224869,22.937272410374135 L 494.25388963893056,24.204770926386118 L 495.2357127740979,24.28299371059984 L 495.80938337370753,24.0924524217844 L 497.1880736593157,22.937272410374135 L 498.76237621717155,21.92663326440379 L 499.3228805940598,21.224879099987447 L 499.6877726968378,20.39488732162863 L 500.0,18.534749458543956 L 499.5805621240288,17.45254928106442 L 497.63384393416345,16.47068487526849 L 496.9868187382817,15.79146845312789 L 495.7379096597433,15.142361900769174 L 495.4971560705453,14.877926777582616 L 495.2357127740979,13.123269330710173 L 493.78178696520627,11.82556055067107 L 492.0664178598672,11.875622398685664 L 490.12158055230975,12.380264303646982 L 487.9773691575974,12.452358657028526 L 485.0676367022097,11.843582792207599 L 483.105871360749,11.69339874619618 L 479.3101234976202,10.80877683358267 L 477.545587092638,11.147181558888406 L 476.0879412125796,10.539193223696202 L 473.1785479541868,11.013390098232776 L 468.56285172887146,10.297828091774136 L 467.4061061181128,9.765295105986297 L 465.1039001904428,7.681561635807157 L 464.0769357867539,7.4153805379755795 L 462.35226812399924,7.281847467646003 L 461.9740655776113,6.881688948255032 L 461.6946458257735,5.858607509639114 L 460.94085062481463,4.67974281962961 L 459.4518342241645,4.115893510635942 L 457.80682685412467,3.9209189331158996 L 457.5587409194559,4.499645137693733 L 457.22607407718897,4.676335379946977 L 456.9817097391933,4.609429887030274 L 456.8515893369913,3.786282283719629 L 455.5261901598424,3.4108926192857325 z" /><path fill-rule="evenodd" fill="#D2EBD9" stroke="#A6A6A6" stroke-width="0.25" opacity="1" d="M 305.845421154052,35.79653815180063 L 306.17081463336945,34.832390239462256 L 306.065484944731,34.15153492288664 L 305.57457339949906,33.98886179178953 L 304.18835953995585,34.90268849674612 L 302.911237180233,35.39278621971607 L 302.3018297236413,36.734691977500916 L 299.82093950919807,38.157212286256254 L 300.4792500473559,38.67565515777096 L 301.2052724864334,38.50685587199405 L 301.8786300830543,37.99244337761775 L 303.4849077332765,36.16816970985383 L 304.26735682971776,35.79653815180063 L 304.3952571544796,36.56593624316156 L 304.82033763080835,36.72464691149071 L 305.36203313805163,36.42330035287887 L 305.845421154052,35.79653815180063 z" /><path fill-rule="evenodd" fill="#D2EBD9" stroke="#A6A6A6" stroke-width="0.25" opacity="1" d="M 301.0830148104578,44.26022680429742 L 300.48301181197166,43.550365526694804 L 298.327515123412,43.03761802939698 L 297.58456469513476,42.53897962346673 L 296.0328327715397,43.18641173560172 L 296.59709891304374,43.60868020681664 L 298.20713832974434,43.972654472570866 L 298.87297239527106,44.5659102126956 L 299.219055628404,44.26022680429742 L 299.7080862913281,44.517643607221544 L 300.1745463181287,44.54579908121377 L 301.0830148104578,44.26022680429742 z" /><path fill-rule="evenodd" fill="#D2EBD9" stroke="#A6A6A6" stroke-width="0.25" opacity="1" d="M 283.0359023697674,45.60774090513587 L 283.9387282151729,45.804860330652446 L 284.91302777454257,45.396547274664044 L 286.5362334139645,44.26022680429742 L 285.74061814136803,43.58052820852026 L 284.61772845871747,43.960588773246855 L 283.5794787593186,44.82735989475623 L 283.0359023697674,45.60774090513587 z" /><path fill-rule="evenodd" fill="#D2EBD9" stroke="#A6A6A6" stroke-width="0.25" opacity="1" d="M 436.0159799978137,47.63550357893109 L 436.4278942979872,47.255256108008325 L 437.4661439973861,45.438785513397306 L 437.62978122383356,44.84344941144809 L 436.76645400188863,44.85149415815249 L 434.4097023475915,45.3985586091876 L 433.6836799066514,45.78273442806676 L 433.21157723106444,46.41234275465831 L 433.1777212563902,47.297504908405244 L 435.4573565032333,47.711957790423185 L 436.0159799978137,47.63550357893109 z" /><path fill-rule="evenodd" fill="#D2EBD9" stroke="#A6A6A6" stroke-width="0.25" opacity="1" d="M 278.4465376660228,48.30752268061042 L 280.7224111482501,48.3759351791814 L 281.5575250443071,47.89706072118133 L 282.0898160934448,46.59137843642384 L 281.74561374261975,46.59137843642384 L 280.95940292812884,47.17075932305306 L 277.7167534157634,47.555026318877935 L 276.66721837595105,48.61739619448781 L 277.6885401327163,49.877144581172615 L 278.1286677159369,49.84494386892766 L 278.3430888596922,49.4585463819094 L 278.4465376660228,48.30752268061042 z" /><path fill-rule="evenodd" fill="#D2EBD9" stroke="#A6A6A6" stroke-width="0.25" opacity="1" d="M 273.85341115295887,52.20602693874389 L 276.35122935287654,51.55579881975427 L 276.2214481011033,50.827127777505666 L 275.53304339945316,49.850981522817165 L 275.24526765942574,50.35212104441598 L 274.1449486576021,50.64195207180455 L 271.8201721422374,52.171802977100015 L 271.3292605970055,52.73148502223194 L 272.76249660924077,52.76772488839924 L 273.5261367894709,52.55632819700986 L 273.85341115295887,52.20602693874389 z" /><path fill-rule="evenodd" fill="#D2EBD9" stroke="#A6A6A6" stroke-width="0.25" opacity="1" d="M 271.61703629232943,53.74224077537656 L 270.6709500607103,53.74224077537656 L 270.9869391284883,52.73148502223194 L 269.67596074938774,53.4019510820508 L 267.19883234612644,56.078378872945905 L 267.19883234612644,56.44699209276587 L 268.00385203026235,56.1347775249742 L 269.7229829467833,54.39064667932689 L 268.0941346138716,56.666557310614735 L 266.9279845915735,57.66777684306726 L 265.9085437171161,57.800745776854455 L 265.9085437171161,57.43206508550793 L 266.2546269502491,56.785407308489084 L 265.727978548035,56.94454836379737 L 264.91167352348566,57.593234695028514 L 264.6445875335485,58.104971578810364 L 266.60071022994816,58.21175576001406 L 268.65463899075985,56.95663513569161 L 270.4452436231077,55.192170813214034 L 271.61703629232943,53.74224077537656 z" /><path fill-rule="evenodd" fill="#D2EBD9" stroke="#A6A6A6" stroke-width="0.25" opacity="1" d="M 257.04204156808555,63.91990878153592 L 258.50161002390087,64.13566378317773 L 259.6771645043045,63.42188171809539 L 261.492220653221,61.51880130544305 L 260.78124527074397,61.222497262991965 L 260.0063197501004,61.19830971537158 L 259.2690120153129,61.426079016178846 L 258.6502001006156,61.88768627634272 L 259.9122754018754,61.88768627634272 L 259.7110204808414,62.4218967538327 L 259.3705798946321,62.76058608479798 L 258.98875980451703,62.83114834688604 L 258.6502001006156,62.56503140507266 L 257.04204156808555,63.91990878153592 z" /><path fill-rule="evenodd" fill="#D2EBD9" stroke="#A6A6A6" stroke-width="0.25" opacity="1" d="M 165.36007704213262,92.82541513815522 L 163.2685304954648,90.96116384770721 L 159.61020491831005,88.50255035515875 L 158.17696890607476,87.8753845053725 L 156.65345031023026,87.73175095859915 L 156.64780761674047,88.69678055681288 L 157.08229255117476,88.9557623071596 L 158.3707002978772,88.74938548728824 L 158.88230159506202,89.11763068474829 L 159.75691411085427,90.42080375319347 L 160.88732732273638,89.97964103054255 L 161.5606849193573,90.15974545339122 L 162.10614223591983,90.56651480030268 L 162.61398176848888,91.81125083426014 L 163.27981583587825,92.41851761704311 L 165.11179992370307,93.49957979097962 L 165.39017120748758,93.29104763176292 L 165.49550089612603,92.98332188790664 L 165.36007704213262,92.82541513815522 z" /><path fill-rule="evenodd" fill="#D2EBD9" stroke="#A6A6A6" stroke-width="0.25" opacity="1" d="M 110.08832646720111,89.40090903406963 L 109.75729029253125,88.81210722541437 L 110.12970597110689,88.18086815532297 L 111.34852088429034,87.36155385058373 L 110.88017997518182,86.60301270429045 L 109.9303319323808,85.58365926286206 L 108.8582262583077,84.69184323074296 L 108.0231123175472,84.3076480817981 L 107.15602332912385,84.14184389496222 L 101.25191848166287,81.15397643949836 L 97.72149327397346,79.86864325543866 L 94.45439224503934,79.50895253149793 L 93.90517316199839,79.71304450416937 L 93.48385445028543,80.17985078506172 L 90.46314965747297,80.23643541382626 L 88.56909626536071,80.91548540070653 L 86.90827288851142,80.88314827578142 L 86.49071593955159,81.08525786409155 L 84.98224440217018,83.09857791289687 L 83.10699988156557,84.49772102478892 L 82.62737367674708,85.06190315680578 L 82.19853138923645,86.00634985463694 L 81.25432603992522,89.09132679831237 L 81.56655329838395,89.09132679831237 L 84.40669292211533,86.87001008540392 L 84.71139664947987,86.17826455784962 L 85.43741913698614,85.58568164147437 L 86.3289596401155,85.17110481578857 L 87.10388516075909,85.01943630771711 L 89.01486654020846,85.01943630771711 L 91.54277890734375,87.1491542677395 L 91.69513074867427,87.5476615135558 L 92.07883172109723,87.203770713415 L 92.12961568310857,86.69807881908491 L 91.69513074867427,86.00634985463694 L 92.01111981645226,85.69489123579115 L 92.84623371250927,87.24018190708011 L 92.61112281493843,87.81469394313172 L 91.23431341350079,88.04127464443445 L 90.6907369773835,88.56729315593839 L 86.72394595481455,95.57105977879837 L 86.16344157792628,97.54792915889993 L 86.64494866319001,99.68340162793174 L 88.60295224003494,101.23576943483204 L 89.25750096701086,102.39925420703366 L 91.24371782504022,103.60145177040249 L 92.01111981645226,103.76568004162982 L 91.50328023917973,104.00898823142052 L 90.46314965747297,104.10631383489817 L 89.9026452805847,104.39018777897581 L 90.60609708726406,104.92755180411041 L 96.63810225948691,104.1914748144336 L 100.40551924519241,103.25476007116958 L 103.81556770391762,102.15600119577721 L 104.44190314784646,101.60871243616566 L 104.69394203089178,100.82839209074154 L 104.28955130651593,99.29840201558545 L 104.33281169459224,98.73107200395316 L 105.00993105396628,97.92270487127826 L 107.08643049746752,96.22117871139199 L 107.7071232944727,96.25561034865677 L 108.1660597473383,96.02066843863577 L 108.95227060839534,94.38641566084698 L 108.96355590224266,94.00372641719878 L 108.19427307508886,92.48532007914037 L 107.85007072426379,92.48532007914037 L 108.16982151195407,91.64122540364042 L 107.85007072426379,90.78913467843086 L 109.4469439163804,89.85822487203404 L 110.08832646720111,89.76918763061985 L 110.08832646720111,89.40090903406963 z" /><path fill-rule="evenodd" fill="#D2EBD9" stroke="#A6A6A6" stroke-width="0.25" opacity="1" d="M 338.1534201782197,110.2039972404018 L 338.5051461029798,109.59520957572386 L 338.60671398229897,108.9803874026984 L 338.482575468719,108.30475344182923 L 337.48382434621453,106.05919117992744 L 338.1534201782197,104.75721313012764 L 337.438683077693,104.73085157806054 L 336.88946399465203,104.51387931220233 L 335.91516443528235,103.76568004162982 L 336.13334734365344,104.657850807067 L 335.83616719022393,105.06342010153458 L 335.339612999931,104.90930103417486 L 334.96719732135534,104.10631383489817 L 335.28882903791964,103.62375414790586 L 335.32268501259387,103.2709791958332 L 334.96719732135534,103.05405158689246 L 334.52706973813474,103.35815755883232 L 333.30261217802763,105.36558428499848 L 332.728941578418,105.80972824199125 L 332.07063104212284,105.49334888998419 L 331.07752261310816,105.70629498688504 L 329.4449125621468,106.65753242373466 L 329.32829757779837,107.09161500399932 L 329.9170152377337,108.7003871332854 L 329.6969514451921,109.05951992794871 L 328.3126184679568,109.55259641818702 L 328.63613106682897,108.69430025946349 L 328.3126184679568,107.84828061703593 L 327.9966294448823,108.87082073185593 L 327.71073458716273,108.87082073185593 L 327.2423936780542,108.15867894748226 L 326.4862770270556,107.9578313799575 L 325.78094433806837,108.2560616247356 L 325.06996900215745,109.64999832073227 L 324.2724728472531,110.2973493328318 L 323.68751690723,111.1294550630264 L 323.9226278029382,112.27832838986069 L 323.58030633442104,112.61531263636425 L 324.4718468859792,112.59095179988071 L 325.6981853283942,111.64906362304464 L 326.4185650758445,111.28776922635734 L 327.1746817268431,111.26950202230364 L 328.65493993647397,112.27832838986069 L 329.44867432676256,112.51177962636575 L 330.0956995226443,112.46305875433609 L 331.1809714194387,111.93730052281171 L 331.982229385525,110.91431586816907 L 333.3910138811916,111.59628911782056 L 335.91516443528235,110.2039972404018 L 336.51328659802675,110.53276441292837 L 336.89322580583394,110.95490766270086 L 337.3427577987313,111.00158855039626 L 338.1534201782197,110.2039972404018 z" /><path fill-rule="evenodd" fill="#D2EBD9" stroke="#A6A6A6" stroke-width="0.25" opacity="1" d="M 328.3126184679568,120.48829176044092 L 328.65870174765587,121.15900074830279 L 328.145219521597,121.91108430130407 L 326.7590056620538,122.9072115700692 L 327.8950615208596,123.09222231665626 L 328.9069788195193,122.26479484559968 L 329.6367630716413,121.02891881205142 L 330.22359984740615,118.88494833372533 L 332.4430467206985,116.39632734283805 L 331.3333233073354,116.36789108766243 L 330.1596497092396,117.60497573390603 L 328.3126184679568,120.48829176044092 z" /><path fill-rule="evenodd" fill="#D2EBD9" stroke="#A6A6A6" stroke-width="0.25" opacity="1" d="M 321.36838303878903,114.84874886879697 L 321.0523939691484,115.59203138994053 L 319.57777845300734,116.64819655288011 L 319.1301272958517,117.42011015489697 L 319.8824821356684,117.70248922519386 L 320.4824851807207,118.346518649254 L 320.8774714935571,119.16535449959338 L 321.0900117084384,121.78911931300536 L 320.4204158782959,123.21421007905155 L 321.83672394789755,122.86045141518116 L 322.4028709717095,122.41522891633213 L 322.63233922049403,121.71187591226771 L 321.5489482078701,120.12857439834625 L 321.8254386074841,119.30962585611269 L 322.23171026073396,119.13487505028024 L 323.3715278841555,119.29946578200907 L 323.9226278029382,119.1226832778193 L 324.7840741444379,117.7939093708992 L 325.4705979619175,117.72686784761027 L 324.8668331988156,118.09865177189931 L 325.7583737038076,119.1226832778193 L 326.10445693694055,118.51718622492626 L 326.5652743168175,118.21445735543966 L 327.0185681208968,118.28963043121621 L 327.3646513540298,118.8118007290177 L 327.7333052214235,117.95643697539344 L 327.23110833764076,117.58669210225344 L 325.7583737038076,117.07883259328082 L 326.2925456352532,116.93460721941665 L 327.3646513540298,116.05509964050725 L 328.80541094206274,115.68951690150425 L 329.28691802732646,115.37472481559962 L 328.24678744748235,113.28526906156912 L 327.5565018169582,112.44478850159794 L 327.0486622862518,112.96043373644352 L 326.10257605463266,112.61531263636425 L 325.4705979619175,113.63854447985068 L 325.2731048054993,114.64161855261773 L 324.29692436382174,114.99090063152835 L 323.52011796087027,114.58882164536044 L 323.9226278029382,113.3279047999531 L 321.36838303878903,114.84874886879697 z" /><path fill-rule="evenodd" fill="#D2EBD9" stroke="#A6A6A6" stroke-width="0.25" opacity="1" d="M 312.1595594212413,123.92788128787652 L 313.13762074522674,124.55011583631858 L 312.69749316200614,125.3798483745195 L 311.7589304614812,125.86797251319513 L 311.2398055884987,125.44899718603119 L 311.0028138104826,124.46470782440156 L 310.69811008125544,124.14138688333333 L 310.2673869114369,124.26949339965358 L 309.97773028723896,124.80024538747966 L 309.9551596529782,125.42459164746106 L 310.1676998678595,125.81509073032066 L 310.579614168033,125.6361092729494 L 310.59089950844646,126.50665331305936 L 309.8573534935713,127.49936912767589 L 308.77396247908473,127.97543484484777 L 307.7394745461643,127.31220696400851 L 307.5043636485934,127.5705734770745 L 306.79338831454515,127.6824674862437 L 307.4347708169371,128.4881574427709 L 308.3451202381402,128.74046342168003 L 309.97773028723896,128.7058725329116 L 311.46363114379346,129.29801073111594 L 312.1087754573673,129.328534710221 L 312.47554844245315,128.7058725329116 L 313.3971831575036,129.22068402078003 L 314.57838033139706,128.91545521095395 L 315.7407685890794,128.1565111130476 L 317.0498660877347,126.69175963569432 L 317.75143696554005,125.17240595957264 L 317.93200213462114,123.51308912830427 L 318.1445423960686,122.99260055506602 L 319.1301272958517,121.8826256338507 L 320.7364049460739,121.54113036533818 L 319.9652411900461,120.77282711444423 L 318.8592795431614,121.08176431478932 L 316.60597669519484,122.56566622992977 L 313.31442414969206,123.00683211255819 L 312.1595594212413,123.92788128787652 z" /><path fill-rule="evenodd" fill="#D2EBD9" stroke="#A6A6A6" stroke-width="0.25" opacity="1" d="M 301.5438321903348,130.5984503729269 L 300.6428872272372,130.19750639237463 L 299.3902163859457,130.02655253419653 L 297.29678895510733,130.07336088689044 L 296.24349210597575,130.39288737718016 L 294.9776550401002,131.2843829789199 L 293.06855454295874,131.64264182699844 L 291.733124691993,132.07013404695317 L 290.9205814320594,132.62591342022642 L 291.58641545102,133.17766526294872 L 290.8754401151091,133.9697402822785 L 289.18264164589345,132.84579448169097 L 289.06226489692926,134.54400048265234 L 289.6641487777233,134.20188224036247 L 289.82214331254363,135.1936644334346 L 290.2434620242566,135.2995715914294 L 290.7343735694885,135.06739269476384 L 291.6014625560492,135.14071146352217 L 293.6516296006739,134.71506595658138 L 294.77640011906624,133.99417590303347 L 299.68363477289677,133.96363135334104 L 301.0510397646576,135.24254446988925 L 301.87298743613064,135.57045678934082 L 302.9225224740803,135.46250879159197 L 304.03036505170166,135.1488580745645 L 304.9708086363971,134.62342320242897 L 305.50121880322695,133.89439761685207 L 304.8993349224329,134.20188224036247 L 305.10623249039054,133.52787746861577 L 308.19841099716723,130.34200636250898 L 308.3714526370168,129.90241008857265 L 308.23226697184145,129.4078976251185 L 307.109377335757,129.73146355431527 L 301.37079055048525,128.3986316989176 L 301.37079055048525,128.7058725329116 L 301.85041680186987,129.76198939047754 L 302.66296006180346,129.73146355431527 L 302.70245868340135,130.20157676329836 L 302.54070238396525,130.68393380148336 L 302.16076317615807,130.90985943749547 L 301.5438321903348,130.5984503729269 z" /><path fill-rule="evenodd" fill="#D2EBD9" stroke="#A6A6A6" stroke-width="0.25" opacity="1" d="M 275.74934542551637,139.3619299819693 L 275.4879021309316,140.05077192327008 L 274.81078272499144,140.31572952959687 L 272.0402359329164,140.49712944217026 L 270.9869391284883,141.07193389022723 L 271.7656264156103,141.18200827483088 L 276.102952234447,140.9068255443126 L 276.82897467538714,140.48693833407015 L 276.8139275703579,139.93460147967562 L 275.74934542551637,139.3619299819693 z" /><path fill-rule="evenodd" fill="#D2EBD9" stroke="#A6A6A6" stroke-width="0.25" opacity="1" d="M 258.49220561236143,139.3619299819693 L 257.6589725539088,139.63908885605633 L 257.04204156808555,140.0446576536633 L 254.80190494284034,142.40721486555412 L 253.96867193095386,142.0973249869421 L 253.1203918121755,142.19926088955253 L 250.97806130163372,143.5204873457551 L 250.57178969494998,144.50341655500233 L 249.22695533931255,145.49872509529814 L 248.58933459967375,146.90831325529143 L 247.71660296618938,147.22862196201459 L 246.34355532936752,146.65126106142998 L 245.7285052239895,146.6859421050176 L 245.65138881653547,147.60403472092003 L 246.96424807980657,148.0100750187412 L 247.9065725468099,148.05904635693878 L 248.67209365591407,147.70197187783197 L 251.07586746104062,144.96841976372525 L 252.0764994211495,144.14448831882328 L 254.20566370896995,143.48174405889586 L 255.93231815472245,142.05043499497697 L 257.8244906645268,141.31450760783628 L 258.75176802650094,140.34426400903612 L 259.9122754018754,138.30230776406825 L 258.86462124437094,139.24373326823115 L 258.49220561236143,139.3619299819693 z" /><path fill-rule="evenodd" fill="#D2EBD9" stroke="#A6A6A6" stroke-width="0.25" opacity="1" d="M 233.6306389030069,155.48226683959365 L 234.01245899312198,155.50882207602262 L 233.97860301844776,154.8347605476156 L 233.48392970860004,154.3547878540121 L 232.5002256911248,154.98590792808682 L 232.06009810976684,154.84497312549502 L 231.5767100956291,154.16076594684273 L 231.11965452507138,153.93815818382427 L 230.76228595152497,155.1738255796954 L 232.15790422447026,155.83974948804826 L 232.90837822668254,155.84383510192856 L 233.6306389030069,155.48226683959365 z" /><path fill-rule="evenodd" fill="#D2EBD9" stroke="#A6A6A6" stroke-width="0.25" opacity="1" d="M 213.97724876739085,156.8551027518697 L 216.22678984887898,157.9686931311153 L 217.24999248981476,158.08108398830518 L 218.07946369051933,157.53958159359172 L 217.16347166895866,156.8551027518697 L 217.88197058066726,156.36477232631296 L 218.07946369051933,155.48226683959365 L 213.42426796630025,156.29326879931614 L 212.71705434843898,156.8551027518697 L 213.27379696071148,157.19835516810417 L 213.97724876739085,156.8551027518697 z" /><path fill-rule="evenodd" fill="#D2EBD9" stroke="#A6A6A6" stroke-width="0.25" opacity="1" d="M 219.68762226961553,163.7745901136659 L 219.9772788938135,163.1283350926824 L 220.48135661520064,162.56802480760962 L 221.09828764759004,162.17747112037614 L 222.727135932073,161.90143886674196 L 222.595473844558,161.69288871251047 L 222.21177282556891,161.34327489417046 L 221.28637634590268,160.91394934197888 L 220.3478136435151,161.09589825337753 L 218.39545276015997,162.03025251440704 L 218.5026633311063,162.5434867478907 L 219.34341987408698,163.7745901136659 L 219.68762226961553,163.7745901136659 z" /><path fill-rule="evenodd" fill="#D2EBD9" stroke="#A6A6A6" stroke-width="0.25" opacity="1" d="M 190.5094194933772,166.5218654507771 L 190.85362184420228,166.5218654507771 L 191.59281050786376,165.44777853460982 L 191.59092957898974,165.21457087015733 L 190.39844710938632,164.34727288549766 L 189.84546630829573,164.39840766228735 L 188.7846459299326,164.80545412562788 L 187.2931023798883,164.65408726455644 L 186.16645097918808,164.2572766346857 L 183.8792921565473,163.0915249553509 L 184.3984170295298,163.66824006615207 L 187.20093891397119,165.52960768854246 L 188.02664839662611,165.71168117877096 L 189.90565468370914,165.4600528641604 L 189.27367659285665,166.5218654507771 L 189.58966566063464,166.83491732506081 L 190.5094194933772,165.8344300929457 L 190.5094194933772,166.5218654507771 z" /><path fill-rule="evenodd" fill="#D2EBD9" stroke="#A6A6A6" stroke-width="0.25" opacity="1" d="M 206.05871377699077,167.2093710466288 L 206.91263654269278,167.38330473890528 L 207.03301333636045,167.02316464995965 L 206.9295645300299,166.65485957590863 L 205.90260012447834,165.9919611606747 L 203.69067682884634,166.68759695766494 L 202.90070420317352,166.5218654507771 L 202.72013903409243,166.8165021026507 L 202.51700323075056,166.83491732506081 L 201.95461792498827,166.5218654507771 L 202.12389780022204,167.2093710466288 L 202.4267206452787,167.62886581057683 L 202.9232748374343,167.8375998144038 L 203.677510606125,167.89694693358615 L 204.48064940795302,167.2093710466288 L 206.05871377699077,167.2093710466288 z" /><path fill-rule="evenodd" fill="#D2EBD9" stroke="#A6A6A6" stroke-width="0.25" opacity="1" d="M 294.3550814073533,41.07944655744359 L 294.51307589560747,40.428176269400865 L 294.1707544736564,40.19099923828617 L 293.46354085579515,40.27139742206782 L 292.88987030275166,40.898532449733466 L 293.09112522378564,41.03522267891094 L 294.43595953285694,40.703552164603025 L 294.3550814073533,41.07944655744359 z" /><path fill-rule="evenodd" fill="#D2EBD9" stroke="#A6A6A6" stroke-width="0.25" opacity="1" d="M 291.12747900001705,41.244283152744174 L 292.13375365175307,40.94275547377765 L 292.0679225847125,40.66134061291814 L 291.36070901341736,40.61912929825485 L 290.91305785626173,40.92667437996715 L 291.12747900001705,41.244283152744174 z" /><path fill-rule="evenodd" fill="#D2EBD9" stroke="#A6A6A6" stroke-width="0.25" opacity="1" d="M 137.21448131650686,89.9594048615545 L 137.5643263142556,89.56683443766087 L 137.6038249824196,88.68868754757568 L 136.81573323905468,88.02306699706241 L 133.3266875371337,86.57671806169674 L 132.9091305900365,86.20253524277359 L 132.26022450998425,86.00230481149629 L 131.2595925051719,85.96589987678453 L 131.06398023106158,86.10747566819191 L 131.62260372564197,86.31377672078088 L 132.5461193230003,87.08846983127296 L 133.4865629542619,87.50315708853304 L 134.11101746931672,88.11410569446161 L 136.4997441712767,88.90720253996551 L 136.91730116494,89.31592436600477 L 137.21448131650686,89.9594048615545 z" /><path fill-rule="evenodd" fill="#D2EBD9" stroke="#A6A6A6" stroke-width="0.25" opacity="1" d="M 143.1618465539068,90.7446101703681 L 143.78630111552775,90.87616065656766 L 143.84272772446275,90.62115722429007 L 140.90478194132447,88.36092748958617 L 140.09600049071014,88.35283480864018 L 139.4715459290892,89.00027577346191 L 139.31731315888464,89.66801032144576 L 139.94176772236824,89.04276611469686 L 140.70728878490627,89.12572417687625 L 141.32798158191144,89.6255162814632 L 141.46904812939465,90.03832624852657 L 143.1618465539068,90.7446101703681 z" /><path fill-rule="evenodd" fill="#D2EBD9" stroke="#A6A6A6" stroke-width="0.25" opacity="1" d="M 106.52216435596347,105.23173813940957 L 108.25258056633174,104.44290849752724 L 109.01810162886977,103.84272672608495 L 108.4764061216265,103.60753421625122 L 107.21809263341129,103.54670984158292 L 105.93532758019865,104.1123967138119 L 105.4632249046117,104.96202561398968 L 106.52216435596347,105.23173813940957 z" /><path fill-rule="evenodd" fill="#D2EBD9" stroke="#A6A6A6" stroke-width="0.25" opacity="1" d="M 64.5652141328901,105.57244240259752 L 64.91317824833095,105.56635827058926 L 62.72758734971285,105.50957313692197 L 62.02413554303348,105.827981332317 L 62.486833760514855,106.08961406163871 L 64.5652141328901,105.57244240259752 z" /><path fill-rule="evenodd" fill="#D2EBD9" stroke="#A6A6A6" stroke-width="0.25" opacity="1" d="M 156.85658611357212,110.78848280012608 L 157.17445601895452,110.41099697118625 L 157.28354747220874,109.72102140635252 L 156.91865536943078,109.6926120663993 L 156.43338647298515,109.9848276055418 L 155.67350805737078,110.0213554049842 L 155.3499954584986,110.70730136148632 L 155.3499954584986,111.12336614308879 L 155.64341389387846,111.3182146884501 L 156.85658611357212,110.78848280012608 z" /><path fill-rule="evenodd" fill="#D2EBD9" stroke="#A6A6A6" stroke-width="0.25" opacity="1" d="M 287.1456408239901,134.8922453620471 L 287.2490896321833,135.03480679169297 L 287.58012580499053,134.86780651519075 L 287.0948569085449,133.68670046888292 L 286.2522194366902,133.39756386308 L 285.8365433719009,133.40978067647666 L 285.73685633018613,134.55418280605227 L 286.01146589405835,134.64786113472655 L 286.65472927875817,134.46050579706207 L 287.0892142150551,134.5215993737802 L 287.1456408239901,134.8922453620471 z" /><path fill-rule="evenodd" fill="#D2EBD9" stroke="#A6A6A6" stroke-width="0.25" opacity="1" d="M 112.56357398815453,138.7342878980562 L 112.87580124475062,136.97800917131826 L 112.6049534920603,136.09596374398097 L 112.17611120454967,135.43806797638535 L 111.96357098780572,135.6458177389577 L 112.06325798481703,138.79541934560984 L 111.92407231964171,139.48012872599065 L 112.09711395949125,139.52088738093153 L 112.31905863247812,139.31098290299997 L 112.56357398815453,138.7342878980562 z" /><path fill-rule="evenodd" fill="#D2EBD9" stroke="#A6A6A6" stroke-width="0.25" opacity="1" d="M 264.6408257689327,139.4638253217563 L 265.04709742218256,139.6288990196772 L 266.8433446548879,139.71245632413775 L 265.4778205472976,138.69760928023607 L 265.1618315242231,138.69760928023607 L 265.0151223298162,139.30894503183663 L 264.6408257689327,139.4638253217563 z" /><path fill-rule="evenodd" fill="#D2EBD9" stroke="#A6A6A6" stroke-width="0.25" opacity="1" d="M 243.58241294883192,150.47744189808145 L 244.21627192385495,150.1100354413502 L 244.47395345382392,149.76101764291525 L 244.05639650672674,149.3140560653992 L 243.34165940620005,149.1854834659025 L 243.01438499614596,149.5099808415398 L 242.88460379093885,150.02839226135984 L 242.12848713994026,150.17739183595404 L 241.23506575264037,150.81220722617581 L 240.81938968785107,151.2980544664897 L 240.8701736498624,151.80026908032596 L 241.45136777870357,151.9595156465657 L 241.38929847627878,152.71088280295953 L 241.63757559470832,152.874234452378 L 241.94792197085917,152.31885480042547 L 241.81437899917364,151.51036834344268 L 243.03131298348308,151.20414850953966 L 243.58241294883192,150.47744189808145 z" /><path fill-rule="evenodd" fill="#D2EBD9" stroke="#A6A6A6" stroke-width="0.25" opacity="1" d="M 236.82438533566892,155.7580374754034 L 237.25134669430554,154.88378097163513 L 236.41811368241906,154.46711886906996 L 236.0908393189311,154.10766616649926 L 236.29961781576276,153.8258359101601 L 236.69836589321494,153.7543590562418 L 236.77360137365758,153.47254344448447 L 236.42375632934272,153.10497537488118 L 235.88958439789712,153.03146413434297 L 235.35729330219328,153.36227092286572 L 235.05823226831853,153.81562486337498 L 235.59240419976413,154.6019184780307 L 234.74976677447557,154.90624876506627 L 235.2162268012762,155.65385615546256 L 236.25823826529086,155.92963376222178 L 236.82438533566892,155.7580374754034 z" /><path fill-rule="evenodd" fill="#D2EBD9" stroke="#A6A6A6" stroke-width="0.25" opacity="1" d="M 225.95661922171712,160.03289515618235 L 226.3177495598793,158.99867173843086 L 226.19173011742532,158.8719595465809 L 225.717746514827,159.48510493990034 L 224.84877664409578,159.4564902749844 L 224.4124108273536,159.95930885523558 L 224.42745793238282,160.0778650152497 L 224.58545246720314,160.04311556834728 L 224.74344700202346,160.9200823563151 L 225.24564384110272,161.04274416388944 L 225.80802909843624,160.44581112638116 L 225.95661922171712,160.03289515618235 z" /><path fill-rule="evenodd" fill="#D2EBD9" stroke="#A6A6A6" stroke-width="0.25" opacity="1" d="M 217.48322245664895,162.9320167140104 L 217.78604530356824,162.43715615244582 L 217.7277378104627,162.1038614162244 L 217.48698426783085,161.8155644997023 L 217.22366004437208,161.79511838080361 L 216.91143278591335,162.01798442518339 L 216.5051611326635,162.74388360604644 L 215.24872852489352,163.3532902346924 L 215.0907339900732,163.6927822669968 L 214.78979202732444,163.8829870247282 L 214.66189170256257,164.29000241402537 L 215.45562609285116,164.65408726455644 L 216.2004574034363,164.56817780435085 L 216.19481475651264,164.28795705456287 L 217.48322245664895,162.9320167140104 z" /><path fill-rule="evenodd" fill="#D2EBD9" stroke="#A6A6A6" stroke-width="0.25" opacity="1" d="M 210.2380450628698,165.30048857303336 L 211.40043336711824,165.17774934042245 L 211.32143607735634,164.9527333136648 L 209.39540763944387,164.7359067783691 L 208.25182820484042,164.0731971981004 L 207.61985011212528,163.9013942279853 L 207.5408528689295,163.99343099771068 L 207.42799964919686,164.3247737227939 L 208.01859818957746,164.3759083286859 L 207.94336271099746,164.8218183265999 L 208.172830959782,165.1000156714581 L 210.2380450628698,165.30048857303336 z" /><path fill-rule="evenodd" fill="#D2EBD9" stroke="#A6A6A6" stroke-width="0.25" opacity="1" d="M 197.89190162345767,168.19778348552063 L 198.11760810762644,167.653422400821 L 198.0028740055859,167.3055455922149 L 197.65302896127105,167.28303654119372 L 197.6078876927495,166.9208556623198 L 196.83860481902957,166.965871415101 L 196.49064070358872,166.7735334634781 L 196.3984772376716,166.4359321598895 L 196.2404827028513,166.5934773068875 L 196.20850761048496,167.233926105313 L 196.6730867549777,167.78029963932931 L 197.89190162345767,168.19778348552063 z" /><path fill-rule="evenodd" fill="#D2EBD9" stroke="#A6A6A6" stroke-width="0.25" opacity="1" d="M 192.9696199093014,167.91536511527374 L 195.8605434950441,167.57770653953776 L 195.88687589392066,167.12138275243342 L 195.61602814123034,167.02725708205253 L 194.94455142691731,167.233926105313 L 194.5495651140809,166.7919485680759 L 193.0241656359285,167.4119530483149 L 191.35017603449523,167.4119530483149 L 189.58402296714485,168.00950327003375 L 188.97461555711925,168.60710657574236 L 189.16458513773978,168.88136699656025 L 190.06364921852946,168.76674933172762 L 191.3558186814189,168.2775995261036 L 192.9696199093014,167.91536511527374 z" /><path fill-rule="evenodd" fill="#D2EBD9" stroke="#A6A6A6" stroke-width="0.25" opacity="1" d="M 188.17335759103298,170.11977181071416 L 188.3877787347883,170.0460751997307 L 188.53636881150305,169.61414752155542 L 188.18276204913855,169.19862248934805 L 186.06112129054964,169.75129690067843 L 185.632279003039,170.32244161469862 L 185.21848386526108,170.4636999485083 L 185.53447288833559,170.7585095539689 L 186.59153150208294,170.8813507524319 L 187.85736856795847,170.10134758194908 L 188.17335759103298,170.11977181071416 z" /></g></g></g></svg>