<svg xmlns="http://www.w3.org/2000/svg" xmlns:xlink="http://www.w3.org/1999/xlink" width="500.0" height="462.03361496538855" viewBox="0.0 0.0 500.0 462.03361496538855" preserveAspectRatio="xMinYMin meet"><g transform="matrix(1,0,0,-1,0,462.03361496538855)"><g><g><path fill-rule="evenodd" fill="#D2EBD9" stroke="#A6A6A6" stroke-width="0.25" opacity="1" d="M 121.77511941641569,18.6038650770206 L 123.8595856577158,16.65792079945095 L 125.037762157619,13.868112167576328 L 125.5588786713779,10.65654824115336 L 125.68726974725723,7.39835446421057 L 125.01510478928685,4.359166639158502 L 123.45175524428487,2.968558376422152 L 121.76001462712884,1.9373510316945612 L 120.61960009858012,0.0 L 119.2375083938241,0.0 L 117.85541668906808,1.952975156949833 L 114.29822982475162,4.351354123558849 L 113.01431943103671,6.687367640202865 L 111.63978012278676,5.359183237189427 L 112.42523118108511,7.078018139349297 L 112.69711812213063,8.71879057190381 L 112.42523118108511,10.351814239053056 L 111.63978012278676,12.039599908515811 L 114.16228635236621,12.039599908515811 L 113.40704486891627,15.657631711801514 L 115.59724500402808,16.915811682352796 L 118.98827863484621,17.37689364142716 L 121.77511941641569,18.6038650770206 z" /><path fill-rule="evenodd" fill="#D2EBD9" stroke="#A6A6A6" stroke-width="0.25" opacity="1" d="M 197.46541004627943,21.816045748302713 L 196.54401551559567,19.690194978378713 L 197.1557609476149,17.57226871722378 L 198.06960308551788,15.4388216661755 L 198.15267961099744,13.23515641828999 L 196.90653137490153,11.344161391956732 L 190.42656044662,5.359183237189427 L 182.61736457049847,2.3123326145578176 L 175.47278107702732,3.249801268801093 L 169.15141079947352,6.554547250038013 L 158.47985020279884,15.556041073054075 L 155.9195820018649,19.205641471315175 L 154.83203442022204,23.19165439135395 L 155.87426744773984,27.13896803301759 L 158.44964062795043,31.735524140764028 L 161.757597733289,35.8400258673355 L 166.2739412896335,39.13956046383828 L 177.62521905452013,44.965215457370505 L 180.9407287426293,46.020959643879905 L 184.78490733727813,46.38070095772855 L 188.79523898288608,45.481353691546246 L 191.40082173794508,43.17442263639532 L 193.08500996232033,40.156058063264936 L 195.47912511974573,33.7056337906979 L 197.60890591144562,24.30155395064503 L 197.46541004627943,21.816045748302713 z" /><path fill-rule="evenodd" fill="#D2EBD9" stroke="#A6A6A6" stroke-width="0.25" opacity="1" d="M 353.3321251012385,42.20476832939312 L 354.23841466009617,40.56266430369578 L 354.8954746462405,40.03876869054511 L 355.8697361238301,39.71035980642773 L 354.9936559572816,36.8408045116812 L 353.72485053911805,34.948727815179154 L 349.41242219135165,31.712071081856266 L 350.7945140823722,30.39871764392592 L 348.9819347821176,27.396924359258264 L 347.84907265007496,24.371900712372735 L 346.42166639119387,22.034889539470896 L 343.7707692682743,21.09699571179226 L 342.29804845899343,20.909419616218656 L 339.397921577096,20.104414742905647 L 338.01582987233996,19.909027511719614 L 336.520452067256,20.08096829545684 L 334.9495499432087,20.901603980222717 L 333.57501063495874,21.09699571179226 L 327.412241011858,21.237678438425064 L 322.2690472342074,21.92546740290709 L 312.54909074679017,25.27078640786931 L 305.3894024640322,31.594805603381246 L 302.51948534697294,34.9330912202131 L 302.4892755821347,41.211678460473195 L 300.382152158767,42.72087181615643 L 297.36873917654157,43.67489840066992 L 294.8084707856178,44.95739525160752 L 293.4263790808618,50.079962976044044 L 291.46275152266026,52.590646440163255 L 291.002054348588,54.13936900929548 L 291.50806607306004,55.688150473637506 L 294.1514107994735,60.38178615272045 L 294.8084707856178,62.13421544013545 L 294.6498701311648,64.65346429892816 L 292.2708597667515,71.20267661870457 L 294.0456770956516,71.72697219066322 L 295.1709866449237,73.02600225131027 L 295.7978370524943,74.90419157175347 L 295.9639901034534,77.16595990816131 L 296.37182051315904,79.24001071602106 L 297.2932150475681,80.54710846231319 L 298.1995046027005,81.5098482426256 L 298.6148874089122,82.54305768175982 L 297.9880370013416,85.78374995617196 L 296.43979224935174,89.5257416118402 L 294.37798319011927,92.57908812188543 L 292.2708597667515,93.7691729364451 L 293.5019032098353,94.21546379686333 L 297.3460818082094,96.28255944047123 L 294.62721294909716,97.3866199881304 L 293.4263790808618,97.59020897070877 L 298.6148874089122,101.64654144528322 L 299.9969791136682,101.64654144528322 L 300.1027128212154,100.18214250379242 L 301.1449460349977,97.59020897070877 L 304.6190563775599,99.75144705362618 L 307.58715499565005,97.93474630988203 L 308.59162586554885,94.63827008986846 L 306.20506328716874,92.33637781743892 L 308.6822549700737,88.80549879209138 L 311.5748294554651,86.6526752144564 L 317.73759907856584,83.26318912953138 L 316.34040239825845,81.82293923897669 L 319.5501783788204,81.15762366983108 L 321.12863270938396,79.79571773391217 L 323.94568306580186,75.14679732033983 L 329.67796508967876,68.87864188547246 L 332.80466436222196,66.8911888494622 L 335.59150514006615,67.25893858610652 L 336.9584920555353,65.16985136806034 L 338.01582987233996,64.63781634904444 L 337.74394311755896,64.38744939048775 L 340.2513443753123,62.14203893346712 L 341.0519002266228,62.00903936591931 L 342.6983264759183,62.25939170643687 L 343.19678580760956,62.13421544013545 L 343.30251951515675,61.53180942265317 L 343.075947124511,59.974983093794435 L 343.19678580760956,59.380431943107396 L 350.7945140823722,44.95739525160752 L 351.5195458009839,44.23794076917693 L 352.6070933826268,43.604518624255434 L 353.3321251012385,42.20476832939312 z" /><path fill-rule="evenodd" fill="#D2EBD9" stroke="#A6A6A6" stroke-width="0.25" opacity="1" d="M 414.3933902531862,97.59020897070877 L 415.4884902276099,95.178529339144 L 415.7452721968293,92.14064465253614 L 415.5489095672965,86.95797773869708 L 417.61071844398975,75.99201588146389 L 417.33883149921894,70.7096883666236 L 414.3933902531862,65.84272917266935 L 413.4644433259964,65.47499223425984 L 410.51900189369917,65.09943455527537 L 409.31816821172833,64.63781634904444 L 408.6308984644711,63.714595636120066 L 407.7397136949003,61.437928814673796 L 406.78055719286203,60.69471456622705 L 404.19763161987066,60.45219481224194 L 401.7430971227586,61.11717139813118 L 397.80828960612416,63.32340674777515 L 393.4505468904972,66.49996943585575 L 391.3283186778426,68.76126983505674 L 390.19545654579997,71.20267661870457 L 390.76188760995865,73.57379843643866 L 392.2119510509074,75.95288510154933 L 392.959639955312,78.28515147953294 L 391.4642619639635,80.50797309237532 L 394.09250208735466,82.07341374107637 L 395.2631261907518,84.56258896901272 L 394.5229896828532,86.6526752144564 L 391.4642619639635,86.95797773869708 L 392.5064951777458,89.77626403188333 L 396.5168268196285,92.78265282232314 L 399.1752765253186,97.59020897070877 L 398.3067489378154,97.95040713297203 L 398.2161200195551,98.38891381002031 L 397.80828960612416,99.03102153120562 L 400.38366260007024,100.13515744754113 L 402.8759592548013,101.64654144528322 L 402.8759592548013,99.03102153120562 L 404.90000615641475,100.72247594129294 L 405.398465488106,101.64654144528322 L 406.78055719286203,100.2212969516404 L 405.398465488106,99.03102153120562 L 408.05691500380635,97.76247727172449 L 412.2182950936258,98.76478044968098 L 414.3933902531862,97.59020897070877 z" /><path fill-rule="evenodd" fill="#D2EBD9" stroke="#A6A6A6" stroke-width="0.25" opacity="1" d="M 497.1149780936539,252.2125028448645 L 497.8098000474274,251.8823313829489 L 499.2145491242409,250.01927511161193 L 500.0,247.9362178912852 L 498.8973476290703,246.94582287059166 L 498.32336416840553,246.1126531905029 L 498.04392483457923,244.3048943351023 L 497.5454656891525,242.4815020642709 L 494.4565283879638,240.49315979448147 L 484.31363670155406,232.31295940070413 L 477.53912164643407,228.65168377384543 L 474.0952208824456,227.55179771292023 L 463.4161078929901,226.86831281497143 L 461.520452067256,227.1589888553135 L 459.7078727670014,228.09388051764108 L 457.08718522265553,230.36442612973042 L 454.9498520344496,230.9929744193796 L 448.22065134346485,234.07300948351622 L 445.9549272656441,236.226037371438 L 444.7994079515338,240.35170061071403 L 444.9353514201939,244.02194842975587 L 445.9549272656441,247.46459806361236 L 447.87324027344584,250.01927511161193 L 450.62231889367104,251.01761048729531 L 454.15684857591987,254.5237817936577 L 452.14035407081246,271.41451084427536 L 453.77922792732716,277.40827164496295 L 454.519364438951,276.00806985469535 L 455.33502507582307,274.9854829760734 L 457.5856443680823,273.32580445264466 L 460.7727629765868,271.79204273130745 L 465.48546915873885,270.1875581010245 L 469.7752403244376,269.6842042186763 L 471.6482387818396,271.41451084427536 L 473.06809264421463,274.40340752364136 L 476.3836023323238,274.96975112659857 L 487.3572594486177,272.1695783608593 L 489.3662015609443,271.3515891947318 L 491.22409522533417,270.0223944329191 L 491.9717843160033,268.64605791680515 L 493.0970938690007,264.96558543806896 L 493.87499253451824,264.21066057658754 L 497.0470063574612,262.8502607601695 L 497.7493807077408,259.5870712613687 L 497.1149780936539,252.2125028448645 z" /><path fill-rule="evenodd" fill="#D2EBD9" stroke="#A6A6A6" stroke-width="0.25" opacity="1" d="M 239.97039459645748,348.99787238193676 L 243.60310559347272,346.07397352159023 L 245.5591807588935,344.94703333219513 L 246.41260355710983,345.6878153765574 L 246.41260355710983,339.0213075187057 L 244.32058491930366,338.532792247599 L 231.2095946148038,338.4146041641943 L 216.87511326000094,344.8445859856438 L 209.20186104252934,346.7123253105674 L 201.9590962342918,343.8280075683724 L 199.3535134755075,340.6366047593765 L 193.97619491815567,330.8907257770188 L 192.23913974687457,323.58101422013715 L 190.6229230724275,325.95966467633843 L 188.00978792086244,333.12803503870964 L 186.9146879464388,334.76671251584776 L 185.65343492478132,336.07455501309596 L 184.64141147211194,337.7054827508982 L 184.21847627311945,340.3292989190668 L 184.0976375900209,342.33865217189305 L 183.65959759801626,343.81224692310207 L 182.70044109597802,344.7106166698504 L 181.03135766088963,345.0258392198011 L 176.72648189216852,346.3340413973201 L 173.6753067523241,349.6205114268232 L 172.57265419512987,353.94774572807364 L 174.06803219020367,358.37008524802513 L 185.4117575585842,362.1070185978897 L 186.75608729198575,361.91779763577506 L 189.29369831457734,360.9007521243766 L 191.4990030527115,359.43436329695396 L 195.86429834738374,355.5794566448312 L 198.15267961099744,354.4049328826368 L 200.09364998713136,354.31034202175215 L 210.41024711728096,355.9105373201892 L 212.2077216282487,355.54004259058274 L 218.98978926241398,352.27669571409933 L 220.49271946400404,351.9377653885167 L 235.80146211385727,350.65301143564284 L 239.97039459645748,348.99787238193676 z" /><path fill-rule="evenodd" fill="#D2EBD9" stroke="#A6A6A6" stroke-width="0.25" opacity="1" d="M 451.2567216977477,345.0258392198011 L 448.99099761620164,359.74182707839645 L 446.1814996562898,365.56835403852165 L 442.2693493254483,363.54985946882516 L 441.4990032352507,366.35685854195617 L 441.24222108349204,370.14191361004487 L 441.8162045441568,373.64343464840204 L 443.53060253337026,375.56783528788947 L 443.53060253337026,376.8928909432143 L 441.3177452124655,377.57121162186377 L 440.1093589514494,379.42482583993115 L 439.67887135595083,382.0200426571537 L 439.822367221117,388.0946692302823 L 443.6589934229851,391.15603011404164 L 452.5104223266244,396.7507744273171 L 453.5224457755685,395.36976393219084 L 456.87571762129664,392.19758226373233 L 457.5856443680823,390.7378395765554 L 457.35907197743654,389.9093627356924 L 456.1657906882465,387.6133960552979 L 454.85922311246395,385.7120336855296 L 455.1990817897022,385.1755675408058 L 455.9241135120392,384.7811121591367 L 456.3319437392056,384.11054761731066 L 455.8108272254467,372.618180247955 L 456.3319437392056,368.9590422071051 L 457.162709351629,367.665812875377 L 459.60969126597047,365.37123068305664 L 460.13836036249995,364.25947389472276 L 459.9419975504279,362.09913439606316 L 459.1565464884043,358.25183412455954 L 458.9752886518836,356.26526962942444 L 458.61277279257774,355.19319975050166 L 456.8983748033643,353.94774572807364 L 456.3319437392056,352.97032996523194 L 456.399915471673,351.9377653885167 L 456.7850885167718,350.49537598900497 L 457.26089066267014,349.2973682791926 L 457.5856443680823,348.99787238193676 L 456.35460092127323,347.4452613943722 L 451.2567216977477,345.0258392198011 z" /><path fill-rule="evenodd" fill="#D2EBD9" stroke="#A6A6A6" stroke-width="0.25" opacity="1" d="M 81.79264090955257,403.498745709192 L 81.20355266332626,402.66998048941605 L 82.77445478364825,400.84676309046336 L 85.43290448561311,399.0236364568118 L 88.07624921575189,398.19497250416316 L 88.96743398159742,397.1374666786287 L 89.85861893743277,394.7226796520408 L 90.35707808285952,392.02398825180717 L 90.08519132807851,390.130288079381 L 87.10954031720757,387.7633001646027 L 82.57809197157621,386.1222779061645 L 77.50286993011832,385.1519001566339 L 72.81282093375921,384.84422477474436 L 71.62709204107523,384.4182168650441 L 69.82961752638221,382.6037942566909 L 69.11969078332186,382.1778124682605 L 67.7829134427011,382.3671370560769 L 56.09932939708233,386.92700067185797 L 54.233883149921894,387.9842124138959 L 52.76116252690554,389.41228552069515 L 51.83976799249649,391.3296202167403 L 49.422995653003454,390.130288079381 L 50.2386562936008,394.2649928552564 L 52.383541874587536,397.67410759301856 L 55.09485834091902,399.9943809453398 L 57.594707388430834,400.84676309046336 L 63.410065937787294,400.9651511600241 L 65.78907630592585,402.0622312678024 L 64.63355698809028,404.698515297845 L 69.86737968400121,407.54812581813894 L 70.96247965842485,408.91380734345876 L 72.23128507658839,408.91380734345876 L 73.35659481585026,406.1824953209143 L 75.21448866650462,406.5456058131531 L 78.45447403937578,408.91380734345876 L 80.31236789375544,407.90335585339926 L 81.97389893233776,406.0561967464164 L 82.72914023324847,404.28806347120553 L 81.79264090955257,403.498745709192 z" /><path fill-rule="evenodd" fill="#D2EBD9" stroke="#A6A6A6" stroke-width="0.25" opacity="1" d="M 58.176243241876364,430.66108577279374 L 56.58268393948674,428.6705982219428 L 45.39000664278865,423.3631648574956 L 40.27702262625098,418.04071326879784 L 36.651864025741816,413.2401182909962 L 32.02978676557541,409.9163921296131 L 23.963808923959732,408.91380734345876 L 16.93251171708107,408.91380734345876 L 14.77252134308219,408.4717314024456 L 13.133647486567497,407.78494552266784 L 11.45701165497303,407.82441552565433 L 9.213944759219885,409.5137760776561 L 8.730590403079987,411.9137493884191 L 8.639961298555136,424.816313595511 L 6.102350279688835,429.33408194896765 L 5.452842690050602,429.86329786339775 L 2.250619288533926,430.47940966067836 L 1.0346806310117245,431.32460568100214 L 0.0,434.579189293785 L 0.8987373486161232,437.36003589001484 L 5.47550005838275,442.6537145113107 L 8.096187602728605,444.4553219070658 L 10.815056461840868,444.8346191435121 L 13.231828983873129,444.62916611740366 L 14.968884155154228,444.69238238362595 L 16.856987584382296,446.0515579713974 L 21.358226165175438,450.39810290490277 L 24.89275585114956,451.9471798154991 L 29.273155748844147,454.68193728872575 L 33.57047912478447,455.7727367046755 L 44.87644252181053,461.3062854236923 L 47.852093532681465,462.03361496538855 L 49.9969791136682,461.3379080654122 L 52.14186451211572,459.851670058677 L 56.88478045538068,460.0097775424365 L 59.558334946632385,459.2824889058247 L 61.295390117913485,457.9307194650173 L 62.02042184025049,456.4209083407186 L 62.095945969223976,451.99460166157223 L 63.07775965705514,451.1094054381829 L 67.44305476546288,449.908102492569 L 68.42486863955855,449.2758539246861 L 68.9988521002233,448.26427920581773 L 71.54401551559567,446.08316743164323 L 72.23128507658839,444.69238238362595 L 71.90653137490153,442.6142064863816 L 70.79632661119103,440.7257776448969 L 64.08978310599923,433.3942343997769 L 63.24391270428896,433.3705355608836 L 62.458461828529835,432.6674810622353 L 58.969246700406075,431.32460568100214 L 58.176243241876364,430.66108577279374 z" /><path fill-rule="evenodd" fill="#D2EBD9" stroke="#A6A6A6" stroke-width="0.25" opacity="1" d="M 142.50299701467156,351.01119646942243 L 146.79937397316098,350.1704946218524 L 145.72527973353863,347.3682923838496 L 143.0400441326201,347.64850310911424 L 140.8918556533754,348.20893089077435 L 140.35480853542686,350.45072645857 L 142.50299701467156,351.01119646942243 z" /><path fill-rule="evenodd" fill="#D2EBD9" stroke="#A6A6A6" stroke-width="0.25" opacity="1" d="M 108.93755201995373,385.49640901363455 L 113.50245253741741,383.81345603778027 L 115.91916457936168,381.008705381304 L 117.79882949963212,376.80197969730943 L 121.28963577747345,375.9606921505183 L 123.43782425671816,377.36284872191027 L 125.58601273596287,376.52154838317074 L 125.3174891769886,373.99776246678084 L 122.09520645812154,372.59573374013416 L 118.33587661758065,372.315334382467 L 115.11359389871359,372.315334382467 L 113.50245253741741,373.99776246678084 L 112.42835829779506,376.24111920106225 L 108.93755201995373,377.6432864330709 L 106.2523164190352,380.1673218321521 L 106.2523164190352,382.9720084078144 L 108.93755201995373,385.49640901363455 z" /></g></g></g></svg>