<svg xmlns="http://www.w3.org/2000/svg" xmlns:xlink="http://www.w3.org/1999/xlink" width="500.0" height="281.1673099519685" viewBox="0.0 0.0 500.0 281.1673099519685" preserveAspectRatio="xMinYMin meet"><g transform="matrix(1,0,0,-1,0,281.1673099519685)"><g><g><path fill-rule="evenodd" fill="#D2EBD9" stroke="#A6A6A6" stroke-width="0.25" opacity="1" d="M 325.33838262967765,92.14539912855253 L 325.14552204310894,92.1774951168336 L 324.9851864371449,92.95787092903629 L 323.98318767920136,93.16168935084715 L 322.98118892125785,93.16168935084715 L 322.6471891198307,94.18081119284034 L 320.4650586936623,95.41741019999608 L 320.9549247380346,95.83868561172858 L 321.9569234959781,95.83868561172858 L 323.64918787777424,95.41741019999608 L 324.49532039277256,94.37105257064104 L 326.3434512335807,94.37105257064104 L 327.3454499915242,93.77315671974793 L 328.03571583144367,92.55023960908875 L 326.00945186428726,92.14261600608006 L 325.33838262967765,92.14539912855253 z" /><path fill-rule="evenodd" fill="#D2EBD9" stroke="#A6A6A6" stroke-width="0.25" opacity="1" d="M 316.9278675355017,98.72225008625537 L 316.26207126677036,99.07564397947863 L 316.0594375450164,99.78244917700067 L 316.60944317653775,102.00903744669631 L 317.65155890770257,102.39783030329272 L 318.92525612562895,102.18576052971184 L 318.92525612562895,99.53506458550692 L 316.9278675355017,98.72225008625537 z" /><path fill-rule="evenodd" fill="#D2EBD9" stroke="#A6A6A6" stroke-width="0.25" opacity="1" d="M 352.1987350862473,116.58077188348398 L 352.5735516361892,117.00819461559877 L 353.90954998135567,117.62034035800025 L 355.4236814510077,119.63374226307496 L 353.7314166389406,122.31403599400073 L 352.0614189244807,122.31403599400073 L 352.0614189244807,123.75636342260987 L 350.547287452966,127.03597719362006 L 349.0331559814513,127.47148205665872 L 348.5210232697427,129.71719559421763 L 345.6708936691284,129.71719559421763 L 344.6688949111849,124.77693631825969 L 344.6688949111849,120.88541161082685 L 345.82676012814045,118.61341350805014 L 344.6688949111849,117.62034035800025 L 343.6668959390372,115.96078601107001 L 340.79449967108667,113.70290974294767 L 338.45650256983936,113.29488539183512 L 336.7642379719764,115.13105703797191 L 334.4262410849333,115.96078601107001 L 328.8818479143083,112.2476575053297 L 328.03571583144367,108.97030057478696 L 326.3434512335807,108.53517037210986 L 323.98318767920136,108.97030057478696 L 321.9569234959781,106.7131584524177 L 316.2566638663411,110.81970206229016 L 311.69200300239027,106.91710720723495 L 309.3428724575788,106.10132352961227 L 311.8812693543732,114.91342820227146 L 310.87927081249654,115.96078601107001 L 308.8530066292733,115.96078601107001 L 306.51500931195915,113.70290974294767 L 303.1527472138405,113.0772751509212 L 302.12848178856075,110.61571575747803 L 302.46248137392104,108.14084115065634 L 304.4776123315096,106.10132352961227 L 308.1850074566901,104.25232780259103 L 308.8530066292733,102.40349100809544 L 306.98260890319943,100.75870372587815 L 307.65060807578266,99.11404190585017 L 311.0351372715086,97.68695814581588 L 310.17787153087556,94.60206240601838 L 308.3408739157021,95.2271595755592 L 308.03352267481387,91.26812494266778 L 303.4749982692301,89.53507900098339 L 297.8119081389159,83.86621040897444 L 296.2164245750755,80.50837682327256 L 294.7436706330627,76.23163882968947 L 293.6566378623247,71.49614117015153 L 293.2709164749831,66.81511301873252 L 293.70923630334437,61.803904448170215 L 293.1832525525242,59.635234486777335 L 291.13191663473845,58.73791741859168 L 289.81695757992566,57.744502963963896 L 288.32667089626193,53.06645439425483 L 287.37990027293563,51.571401444263756 L 284.0486709997058,50.59967223601416 L 276.8952941838652,50.52492558397353 L 274.1426466703415,49.79882940975949 L 272.2666385974735,47.83422081777826 L 270.0399746187031,44.80224027764052 L 267.46265516616404,42.048204108607024 L 264.51714706607163,40.83141593495384 L 257.6442947592586,39.12375841010362 L 251.4026228673756,36.09299812652171 L 246.35318041034043,34.96190764894709 L 243.10961484350264,38.87829383369535 L 242.899221515283,31.515647308900952 L 236.79781177081168,27.7285940265283 L 220.7903779130429,24.400800552684814 L 217.5643453039229,22.875732664950192 L 212.9356897175312,19.77260425174609 L 209.81485377065837,19.17548954160884 L 194.29833775013685,20.988209953531623 L 178.85195312649012,19.17548954160884 L 175.52072363719344,18.279848566744477 L 172.4700188729912,16.16884061647579 L 162.47633062116802,6.8849767171777785 L 160.26698917336762,2.462520082015544 L 154.9014671742916,2.462520082015544 L 150.33680609427392,1.840098524466157 L 148.82267483882606,0.0 L 147.33081003651023,1.014740797225386 L 146.99681066535413,4.695265710353851 L 149.49067422747612,6.955308749340475 L 150.4926727693528,5.520763326436281 L 154.70106738060713,5.520763326436281 L 154.2112013362348,12.667364750988781 L 147.14154368266463,13.6962357936427 L 144.4584137685597,11.029393871780485 L 143.1224154252559,8.565902065020055 L 141.76415041461587,9.811148706823587 L 139.0698872730136,11.029393871780485 L 138.2986911777407,9.233614809345454 L 132.01573375239968,10.890865981578827 L 127.94590790756047,14.06812154687941 L 126.82927027158439,16.395994184538722 L 126.66975076310337,19.79125657165423 L 125.39359361678362,19.500213236082345 L 122.60200006328523,19.500213236082345 L 121.48536242544651,19.597227159887552 L 120.76752420701087,19.888271797914058 L 117.97593043744564,16.395994184538722 L 115.10457712970674,15.91100023733452 L 113.5093807503581,12.031437900848687 L 109.2023503575474,12.613328081090003 L 106.65003628283739,13.389205755665898 L 105.21435962803662,11.546541248913854 L 105.33698002062738,7.3858416373841465 L 102.86485723033547,6.501343271695077 L 93.85300508327782,5.339828074444085 L 84.89375116117299,7.108765936922282 L 76.37281706742942,10.860243920236826 L 65.34469448588789,17.757408063858747 L 61.38228479772806,19.474044841248542 L 56.89389157295227,20.572337202727795 L 47.74177706427872,21.542719276156276 L 43.97222796268761,23.099687170702964 L 40.3429412227124,25.371354294009507 L 31.751875948160887,32.219792214687914 L 30.507048074156046,33.66015984211117 L 29.157023537904024,41.24767784541473 L 28.280384311452508,42.46448942879215 L 28.14012194983661,44.93034372385591 L 23.143277931958437,58.73791741859168 L 20.72375336661935,60.82103210315108 L 16.147696003317833,63.8659453545697 L 14.201556749641895,65.91749755572528 L 12.430745342746377,68.54633387876675 L 11.13331924378872,71.69922245154157 L 10.993056882172823,75.09844544762745 L 12.851532213389874,78.47682049311697 L 8.713794680312276,85.32072113081813 L 8.310540549457073,88.08028348442167 L 8.310540549457073,93.81445816159248 L 7.363770142197609,98.76890200329944 L 2.6825161166489124,106.91464659012854 L 0.9467704053968191,110.96190583100542 L 0.0,117.55907287728041 L 0.7363768629729748,122.35828544106334 L 3.2084998674690723,123.96540442248806 L 7.574163686484098,120.92269428027794 L 13.991163423284888,113.85327193280682 L 17.585384463891387,111.00473793689162 L 21.670523773878813,109.31293043494225 L 30.612244738265872,109.71980872703716 L 38.39680196903646,113.87469085631892 L 44.79626896418631,120.22635994385928 L 49.60025239549577,127.13713846169412 L 52.80875226482749,135.30436870921403 L 55.12308016419411,139.74298682063818 L 58.54197336174548,142.2307301866822 L 59.55887494981289,144.72948722587898 L 60.803702821955085,145.27646452980116 L 61.87320285104215,144.97616161359474 L 63.87194032780826,143.62485070386901 L 65.27456330507994,143.31384676182643 L 67.44862884283066,143.81788967642933 L 74.90006312541664,147.07837016042322 L 81.58005462959409,147.91502075316384 L 102.04081622883677,145.27646452980116 L 108.72080773301423,143.3781918711029 L 114.1209060959518,139.76443159626797 L 119.92425837554038,137.51284150918946 L 127.86661049351096,139.72154206689447 L 133.75762669555843,144.48281594133005 L 138.526544643566,151.28340653609484 L 141.68244607187808,159.76035199174657 L 142.83961002156138,169.67942230962217 L 143.12013453245163,187.11335775442421 L 142.278560789302,194.9487628978677 L 139.75383955985308,203.270987380296 L 144.9084786809981,202.41065866407007 L 153.74500298313797,197.14190232986584 L 158.215863680467,195.8947955169715 L 171.93564297445118,192.9530484112911 L 187.07787568494678,193.86057992558926 L 213.4441405106336,190.4771777652204 L 217.3539517596364,188.66086411383003 L 249.0006310455501,185.08242584113032 L 299.1619326751679,193.11057014530525 L 325.69975875876844,208.27870343485847 L 336.7171611171216,206.49752972787246 L 348.1986345462501,210.17921724030748 L 380.0160406772047,222.73502718983218 L 388.7775647882372,228.80439796717837 L 400.60547402873635,233.30980674177408 L 411.4769618809223,244.6508216401562 L 417.66749043390155,245.96440009539947 L 430.0348602384329,249.436769511085 L 441.2125673945993,253.1218740604818 L 450.21974938735366,258.988447916694 L 489.58552487567067,277.56247032480314 L 496.96682797558606,280.58445012476295 L 500.0,281.1673099519685 L 498.8253033068031,280.30381948081776 L 497.05449189804494,277.56247032480314 L 496.31811481900513,270.0741375111975 L 495.7395328450948,268.32652161829174 L 494.16158202290535,267.7008670512587 L 489.18227074481547,266.66534145502374 L 488.0952379759401,265.79165621707216 L 467.4416157901287,252.4535512230359 L 448.24321480467916,235.78462549764663 L 402.0092571657151,207.85282323509455 L 395.83771645464003,202.3461353047751 L 390.75320851430297,195.8947955169715 L 387.03625763580203,187.40350643452257 L 385.0375201590359,183.81453470746055 L 381.7764218505472,181.47235737461597 L 376.60424998775125,181.23600521078333 L 371.23921732231975,182.53597475029528 L 366.172242121771,183.06243124930188 L 361.9293077085167,180.48399257054552 L 355.88049640506506,171.78405937133357 L 353.40837361477315,166.88787674438208 L 352.39147202670574,162.37922681868076 L 350.77845572307706,141.6945542357862 L 353.7590293046087,139.5285397209227 L 362.35009458102286,130.67374637303874 L 364.13843873143196,128.0373106575571 L 365.19040601700544,124.73686408763751 L 367.7501927278936,121.41549838939682 L 380.075741622597,110.8119938694872 L 383.3368399310857,107.08594353916124 L 385.738831538707,99.89263867633417 L 388.1583561040461,95.26964085549116 L 391.1038642041385,91.01136869331822 L 393.6987166143954,89.235554268118 L 390.70061007514596,89.0216106181033 L 385.14271682314575,89.62065803585574 L 379.77768415771425,91.16114275623113 L 377.39322528988123,93.81445816159248 L 374.83343836292624,95.14123848779127 L 363.1390700992197,93.64326683385298 L 352.98758674412966,90.55135436262935 L 350.77845572307706,89.235554268118 L 349.0393323916942,87.39108780538663 L 343.1324967741966,88.66454169992357 L 339.1245017424226,87.80869554029778 L 337.45450381189585,88.85473435278982 L 340.1265005003661,91.30021830834448 L 341.97463155537844,91.7350001190789 L 341.97463155537844,96.2463786737062 L 337.94436985626817,96.65408024610952 L 335.5841063018888,98.70629399456084 L 335.7622394300997,104.4562532226555 L 334.06997504644096,106.30526648182422 L 329.0377145893872,108.53517037210986 L 330.1955795902759,111.43167127529159 L 332.2218437753618,113.0772751509212 L 335.09424047358334,114.51898247702047 L 336.7642379719764,113.29488539183512 L 338.12250298447907,111.83966025477275 L 341.1284992583096,112.45165877183899 L 343.8227626122534,114.31496105901897 L 346.5170259680599,117.62034035800025 L 350.39142099395394,114.51898247702047 L 352.1987350862473,116.58077188348398 z" /></g></g></g></svg>