<svg xmlns="http://www.w3.org/2000/svg" xmlns:xlink="http://www.w3.org/1999/xlink" width="500.0" height="284.45330338180065" viewBox="0.0 0.0 500.0 284.45330338180065" preserveAspectRatio="xMinYMin meet"><g transform="matrix(1,0,0,-1,0,284.45330338180065)"><g><path fill-rule="evenodd" fill="#D2EBD9" stroke="#A6A6A6" stroke-width="0.25" opacity="1" d="M 202.19888564385474,263.1411722935736 L 203.77333973534405,263.0866869390011 L 206.44838313944638,263.83742176089436 L 214.89387719146907,263.21382035687566 L 215.04673679172993,264.2249381849542 L 214.82509034499526,269.07727498188615 L 214.89387719146907,269.73185271956027 L 215.82632084563375,270.9563661683351 L 216.0556103568524,271.55053601041436 L 215.97153752855957,274.95916832145303 L 214.84801931865513,276.6035940274596 L 213.6480712722987,277.55649558641016 L 213.3347090817988,278.885980415158 L 214.05314928106964,279.596386032179 L 214.89387719146907,279.88786116149276 L 215.96389453858137,280.6712780594826 L 216.30782869271934,281.2118405532092 L 216.51418923027813,282.18073567189276 L 217.9204977415502,280.883852426894 L 221.66555841639638,280.05789555516094 L 222.292282871902,278.89812333881855 L 223.1635826714337,278.03604403324425 L 224.20302812755108,277.5200759759173 L 225.03611304610968,277.6900365492329 L 225.28068846464157,278.89812333881855 L 225.9456278756261,280.43441920913756 L 226.90100043080747,281.1085829315707 L 227.76465731300414,280.6712780594826 L 228.1085914671421,278.885980415158 L 228.80410276912153,277.1619620239362 L 233.01538530923426,277.0951975984499 L 234.98727441951632,276.11203476414084 L 236.17193648405373,274.1887039327994 L 236.09550672210753,273.05443863384426 L 235.4534962847829,271.82339074090123 L 234.9337735567242,269.6651791492477 L 235.1554200015962,267.9986051991582 L 235.8432883117348,265.9327598065138 L 236.7145881112665,263.9948469484225 L 237.5018151588738,262.72346520330757 L 238.9769105874002,261.5371092315763 L 240.31443225219846,260.9440277097747 L 241.43795038945973,260.01217267662287 L 242.32453624531627,257.8162855133414 L 242.34746521897614,256.6793683115393 L 242.07996089942753,254.39415419194847 L 242.55382568202913,253.42715542204678 L 243.6009141281247,253.09478904493153 L 244.41871306486428,253.95898359268904 L 245.1218673568219,255.20414727088064 L 245.80973559431732,256.06262905243784 L 248.88985700532794,256.32261849660426 L 263.68666836619377,251.12517763860524 L 264.5273962020874,250.56342448387295 L 265.5056978035718,249.05965978931636 L 266.0483494307846,248.52830764558166 L 266.8279335591942,248.2807635506615 L 272.9728903286159,249.77223569713533 L 274.8072058223188,249.59710257221013 L 275.20464084111154,248.08756609726697 L 278.9420585259795,241.70984244532883 L 279.4159233812243,241.54099708609283 L 281.4642422553152,241.60129836946726 L 285.84367045015097,243.2538129966706 L 287.0665473956615,243.07888817042112 L 288.06013498082757,242.11388643365353 L 289.6651609633118,238.70155646838248 L 290.07023897208273,237.09259061608464 L 289.90209339000285,235.70696857851 L 288.8397190347314,234.8396270358935 L 288.69450235180557,234.46020827349275 L 288.6333585716784,234.08683761861175 L 288.8397190347314,233.3702781703323 L 291.9809842277318,233.94833561684936 L 296.56677288748324,238.400216110982 L 299.6851091813296,238.08081333804876 L 302.02386142127216,236.2852726066485 L 303.1473795566708,235.75515830889344 L 304.39318547584116,236.04430523794144 L 305.2950573153794,237.18296937923878 L 306.3727176524699,239.84077307302505 L 307.3280902057886,240.04573668073863 L 310.01077659986913,239.9914808580652 L 312.4259586762637,239.3705914625898 L 314.69592399708927,238.08081333804876 L 320.993740439415,231.38968900498003 L 321.6663226932287,229.1691495515406 L 319.342856509611,228.21260872203857 L 319.62564673647285,226.9495084574446 L 319.0982810910791,225.95126347895712 L 318.983636373654,225.3620234215632 L 318.8919206280261,223.7810079762712 L 319.0982810910791,223.84712500032037 L 318.4639136455953,222.9576175874099 L 316.94296041689813,221.44939054828137 L 316.2474491149187,220.4701660303399 L 314.97871429659426,220.18784543313086 L 312.60939016751945,220.84861855674535 L 311.4476570747793,220.4701660303399 L 310.87443348392844,218.96862722095102 L 309.76620125584304,218.0138620128855 L 308.4668943993747,217.23936321213841 L 307.3280902057886,216.28489847108722 L 306.2427869513631,215.69069284759462 L 305.7918510697782,215.648680745624 L 306.288644824177,214.00445914454758 L 304.8135494682938,214.34046452026814 L 304.2326829601079,212.49868783261627 L 304.92819418758154,210.42367887403816 L 307.3280902057886,209.99797914735973 L 308.2834628354758,207.00701822061092 L 308.6350399814546,206.33592382632196 L 309.5827696919441,205.569059018977 L 310.1254213191569,205.68887464608997 L 310.6527870390564,206.15018886793405 L 311.5164438467473,206.43178945872933 L 314.8869984783232,206.43178945872933 L 315.59015277028084,206.21010274160653 L 316.10987549833953,205.1317542186007 L 316.1022325064987,202.99964261613786 L 316.29330706223845,201.98777759447694 L 317.60789982788265,200.2339196903631 L 320.90202462114394,199.0251006986946 L 322.54526555910707,197.87038784381002 L 323.6076399143785,196.36902480758727 L 325.4878132790327,192.93716609757394 L 326.557830626145,191.47897431626916 L 327.4979173466563,189.77624704875052 L 329.73731077462435,187.43510881066322 L 330.53982380218804,185.2501471163705 L 331.38055163808167,181.31223839335144 L 332.0760629400611,179.86904219631106 L 333.37536972388625,178.16393330413848 L 335.92048242501915,175.80984078347683 L 339.0235327370465,174.19533471483737 L 342.02722423896194,174.41573750320822 L 344.3048326242715,177.53210368100554 L 345.94807356223464,178.72429567296058 L 348.98233702778816,183.58514268044382 L 350.6408639475703,185.01140586473048 L 352.10831631347537,185.2262725038454 L 353.59105466119945,185.1248067235574 L 355.3183684274554,185.56649509444833 L 356.0138796530664,186.18730599805713 L 357.24439959041774,187.90086823236197 L 358.1309853736311,188.51596996933222 L 358.7806388027966,188.53985882923007 L 360.14873243123293,188.05015858914703 L 360.81367176771164,188.09793225955218 L 360.99710325710475,188.52194223273546 L 360.9818173497915,189.91961429733783 L 361.1881778128445,190.23623017035425 L 362.27348114177585,190.218308175914 L 362.7167741060257,189.9136405205354 L 363.84793523326516,188.0322434687987 L 364.74216400645673,187.69186873175204 L 365.21602886356413,188.67722160648555 L 365.0708121806383,190.20038600824773 L 364.10779656097293,191.47897431626916 L 364.000794833526,194.28813052084297 L 363.22121077775955,196.36304415017366 L 361.8760461229831,197.84645850025117 L 360.0723025947809,198.9054300421849 L 358.6889229826629,200.33566416893154 L 357.96283979155123,202.58050438575447 L 357.41254517249763,205.04789153207093 L 356.57181726396084,207.1688122022897 L 354.2024931330234,210.67551690805703 L 354.1948501430452,212.29475060105324 L 356.20495413430035,213.5184879610315 L 357.8940529450774,213.30251445714384 L 361.0735330954194,211.3891203245148 L 362.7855608779937,211.59302407782525 L 370.3826840315014,209.45840702485293 L 371.19284005090594,208.96084854006767 L 372.9125108253211,207.5103928660974 L 373.8602403886616,207.00701822061092 L 374.87675694562495,206.9950337735936 L 377.131436355412,207.46245038323104 L 377.9950932394713,207.19877454731613 L 377.83459057472646,206.8751896955073 L 378.5453878566623,204.1194971287623 L 378.98868074826896,203.1134141990915 L 379.71476393938065,202.3230495173484 L 382.32102042250335,200.67083548009396 L 384.07890615426004,200.16210126504302 L 387.5488195195794,200.2638444174081 L 389.07741574011743,199.61152438353747 L 387.7169651016593,199.0610024370253 L 388.18318696692586,198.2353227045387 L 388.8251973297447,197.6071711247787 L 388.7334815841168,196.09989945590496 L 388.87869826704264,194.63489175308496 L 389.39077800512314,193.4452333850786 L 390.37672252207994,192.6980918655172 L 391.1792355515063,194.8142595225945 L 392.81483349762857,194.9398204255849 L 394.42750247195363,193.63054011482745 L 395.1153707820922,191.47897431626916 L 395.4898768272251,191.2280130367726 L 396.27710394747555,191.2220379570499 L 396.65925298444927,191.47897431626916 L 398.8298595678061,194.12073642201722 L 402.35327387042344,194.44357255194336 L 408.9644525051117,193.2718874728307 L 410.67648021504283,193.72020698152483 L 411.9452151078731,194.76044856756926 L 414.13875066302717,197.8045824561268 L 414.7425461448729,199.53971396107227 L 415.2240539174527,199.8508987603709 L 416.4775028284639,199.3841281561181 L 418.43410603143275,196.88937125634402 L 418.4188200496137,196.23147017415613 L 417.44816143997014,193.70227342192084 L 417.3029448296875,192.64430157188326 L 417.47109041176736,191.47897431626916 L 418.2506744675338,190.70222653541714 L 419.4047646410763,188.5637476760894 L 418.70925334095955,186.8141573201865 L 417.21122908592224,185.51277433615178 L 414.06232082657516,183.62094398681074 L 412.0904317162931,182.84530195221305 L 408.5211595389992,182.70808445475996 L 407.7110035941005,182.29645197093487 L 407.1683519668877,181.13330918177962 L 407.32121156714857,180.29242013487965 L 410.9134126417339,175.7323813298717 L 412.06750281713903,175.20806928165257 L 414.23046640865505,175.89325970318168 L 415.2011250182986,175.63108981959522 L 417.21122908592224,174.63019194826484 L 418.2506744675338,174.40978060290217 L 418.2506744675338,174.01663599535823 L 417.56280623190105,173.42697171960026 L 417.32587380334735,172.7956836586818 L 417.5551631655544,172.13469519093633 L 419.0684734042734,170.45578273478895 L 420.5664977338165,166.38564453925937 L 421.39958272501826,165.23179388139397 L 426.1917317751795,160.45242067426443 L 428.8820611592382,159.882025022991 L 431.5723904706538,160.7019871044904 L 433.75064004585147,162.6513704881072 L 435.09580477513373,163.00209472700953 L 438.0612813960761,163.09126549679786 L 440.468820406124,163.8106284327805 L 440.8433265257627,164.31602192670107 L 440.7133958246559,165.46373422723264 L 440.1936730965972,166.26073156762868 L 439.5593056511134,166.27857618778944 L 438.9707961510867,166.09418532904238 L 438.5810041241348,166.26073156762868 L 438.2523559499532,168.86664403695613 L 440.52996426075697,168.29538006335497 L 444.8482486028224,165.46373422723264 L 444.3667407557368,163.34095100034028 L 445.3297563754022,162.22339823562652 L 450.0531187262386,161.32595283538103 L 451.17663693614304,160.7019871044904 L 453.50774618424475,158.6879496211186 L 454.37904598377645,158.29592140670866 L 456.11400266736746,157.9336168607697 L 456.99294553138316,157.28034092392772 L 457.81838745996356,154.86982569098473 L 458.23110846057534,154.09227246884257 L 459.69856082461774,152.8875775327906 L 460.76857817173004,153.10119896475226 L 462.8398260194808,154.91137740388513 L 462.6563944555819,155.2378660524264 L 462.36596123687923,155.30316611472517 L 465.34672376699746,155.6712352829054 L 468.20519880764186,154.65020036883652 L 473.7005021478981,151.60602227132767 L 475.42017284967005,151.6119546648115 L 478.33214868046343,153.4809905802831 L 479.42509492486715,152.81637214217335 L 479.8836737982929,150.73402215819806 L 479.70024223439395,148.97264481987804 L 480.0212474912405,147.5675027249381 L 481.9854936096817,146.50647125020623 L 479.9524606447667,144.1421092133969 L 479.98303260840476,141.06816876586527 L 481.2670534104109,137.5876109804958 L 483.0096530839801,133.99096119310707 L 483.7510222569108,130.6625871695578 L 484.21724404767156,129.8056911546737 L 485.2031886409968,129.11436104401946 L 487.48079702444375,128.91347780637443 L 488.5355283152312,128.5944429812953 L 489.4985440094024,127.80284298863262 L 490.95071039162576,126.08415962290019 L 491.88315412029624,125.52319250348955 L 492.9608143828809,125.61176255531609 L 494.11490455828607,126.11368587333709 L 495.26899473182857,126.31446780171245 L 496.37722695991397,125.48776496946812 L 496.68294623307884,124.5962445801124 L 497.1797399148345,120.6658137049526 L 498.7236221898347,116.54361686110497 L 499.7859965451062,111.68228872586042 L 500.0,109.32680833339691 L 499.6866378095001,107.42548449058086 L 496.6600172612816,107.34308884851635 L 495.2766376491636,106.81343162059784 L 492.2423741836101,104.01297039538622 L 490.1711263358593,103.89533483237028 L 488.03109164349735,104.55412633158267 L 485.60826664976776,105.77780299820006 L 485.0961869135499,105.88371075224131 L 484.58410717733204,105.77780299820006 L 482.47464444860816,104.66001083236188 L 479.20344847999513,105.13651586975902 L 477.68249525129795,104.17178248055279 L 477.30034621432424,103.23662107624114 L 477.1169146504253,101.1198541643098 L 476.74240860529244,100.12054909206927 L 476.1309700589627,99.49754344765097 L 473.7005021478981,98.18710812367499 L 470.5515939630568,94.32223559357226 L 468.89306704327464,93.23021866194904 L 466.73774636909366,93.71749012451619 L 466.5543148033321,88.32464986946434 L 462.0755279455334,84.80656071379781 L 452.12436657212675,80.91578911058605 L 449.9461169987917,78.84845363628119 L 448.16530236788094,75.94493301771581 L 446.7819227576256,72.49310980178416 L 445.8418361861259,68.78038877341896 L 445.5743317939341,65.74772421550006 L 445.681333521381,60.01994252577424 L 445.1921826824546,57.540303472429514 L 443.6559435464442,54.93348899949342 L 441.4776939712465,52.89903280790895 L 439.0242970138788,51.7684504725039 L 435.0575898941606,52.07729818671942 L 433.2691322732717,51.79758631531149 L 431.7176070790738,50.79539963416755 L 430.7393055520952,48.826507213525474 L 430.28072667866945,47.15523825213313 L 429.7075030878186,43.66872034687549 L 429.1037076059729,42.126961048692465 L 427.74325696751475,40.79498884547502 L 426.3293054662645,40.71356847323477 L 424.7701372820884,40.98109701182693 L 422.95110784471035,40.667043012566864 L 421.7588027883321,39.672654647380114 L 419.2060470953584,35.2668975526467 L 417.899097321555,34.18051952961832 L 403.6907955352217,28.571873211301863 L 400.9851802419871,28.99551991187036 L 398.7228578403592,31.392915904521942 L 397.6451975014061,31.91548653971404 L 395.88731184601784,31.398721928708255 L 393.08998080715537,29.55849687755108 L 391.8059600070119,29.314726828597486 L 383.3681088704616,33.605463303625584 L 379.81412267684937,34.53487661201507 L 376.5047118999064,33.82618499174714 L 372.53036178834736,30.92264392785728 L 371.85777938738465,29.877735720016062 L 371.4221294876188,27.759489418938756 L 370.35975505784154,26.407710346393287 L 367.8146424293518,24.197989414446056 L 365.99561291746795,21.090767124667764 L 362.2581951599568,10.283906511031091 L 361.40982425771654,8.725235451944172 L 360.24044817499816,7.294181878678501 L 360.05701668560505,5.169952974654734 L 357.5042609181255,8.146988342516124 L 356.48010151833296,15.558819317258894 L 354.7298588529229,18.02580299973488 L 353.51462482474744,18.118480702862144 L 350.67143583856523,17.10490116570145 L 349.2498413454741,16.931162969209254 L 347.88939078338444,17.44081017654389 L 345.2143473792821,19.21914477646351 L 344.08318625204265,19.60732495225966 L 341.27056915685534,19.491447435691953 L 340.0935500841588,19.7000285461545 L 339.1228914745152,20.383765507489443 L 338.58788283728063,21.71091527212411 L 338.31273552775383,23.32246042881161 L 337.731868872419,24.67349916230887 L 336.31791737116873,25.24764377158135 L 334.94982381537557,25.41003859229386 L 330.53218081220984,26.697764384560287 L 329.2710888367146,27.509995002299547 L 328.59086359106004,27.742082396522164 L 327.9106382727623,27.649246380664408 L 326.57311653345823,27.080658588558435 L 325.80881846137345,27.045848795212805 L 323.6764267589897,27.359143330715597 L 322.3924058843404,26.500526008196175 L 318.6397022176534,20.053475558757782 L 317.82954619824886,19.29446115810424 L 316.66781310737133,18.952648479491472 L 316.25509210675955,19.085895053111017 L 315.27679050527513,19.88544064387679 L 313.6564785409719,19.578355377539992 L 303.3155251387507,21.113948924466968 L 296.4827001336962,20.702484665438533 L 292.5618508104235,22.406489762477577 L 285.1252302490175,27.834920056164265 L 285.0182285234332,29.169630521908402 L 284.62843649461865,29.651364605873823 L 283.3749875854701,29.32633470837027 L 283.2985577471554,30.510462497361004 L 282.74826312996447,31.01553416531533 L 281.91517813690007,31.050368287600577 L 280.9827344827354,30.829755335114896 L 281.73938956297934,31.834194499999285 L 281.12030809931457,31.79354897607118 L 279.75985753536224,32.63555200677365 L 278.345906034112,32.74008533265442 L 277.8414692878723,32.954965439625084 L 277.4746062345803,33.5299552930519 L 277.1765298768878,34.912494470365345 L 276.7485229689628,35.23784719128162 L 274.4862005673349,35.23203720431775 L 273.8441902026534,35.07516847830266 L 271.21500467322767,33.68097243923694 L 269.96919875219464,33.28601294197142 L 268.26481395959854,33.28601294197142 L 266.6062871143222,33.68097243923694 L 260.86640828102827,36.92882256396115 L 254.76730945706367,39.30634540412575 L 251.11396445333958,42.48181908112019 L 249.5242244526744,43.39524540770799 L 246.23774257674813,44.506684084422886 L 242.6837563086301,46.32270092237741 L 241.03287245333195,46.794262843206525 L 237.57060200348496,46.835016964003444 L 237.20373895019293,47.091192511841655 L 236.52351363003254,48.116011573933065 L 235.95793303102255,48.11018825881183 L 235.65985682234168,47.65016149170697 L 235.47642525658011,46.13641574513167 L 235.23184983804822,45.54267292842269 L 234.2076903656125,44.30882024951279 L 233.8255413286388,44.06440978590399 L 228.18502130545676,42.53999463748187 L 226.7175688650459,42.56908275466412 L 227.20671970397234,44.17497515305877 L 227.2372915931046,45.70565486326814 L 226.9239294026047,47.236751915887 L 226.38127777539194,48.826507213525474 L 220.6261130347848,49.298279447481036 L 216.51418923027813,50.71383406408131 L 214.89387719146907,50.50409980677068 L 214.65694476477802,50.31767585873604 L 214.54230011999607,49.93902132380754 L 214.61108696460724,48.803210815414786 L 213.60221339948475,46.427489063702524 L 213.57164150848985,43.22069386858493 L 213.87736070901155,39.77731884736568 L 213.86971771717072,36.667298348620534 L 212.3029066156596,29.62814753036946 L 211.76789798028767,28.212088737636805 L 211.64561019651592,27.428766667842865 L 212.11183213442564,25.833447478711605 L 212.60098289884627,24.905469694174826 L 211.75261199846864,22.939821707084775 L 210.25458774343133,22.80068670399487 L 206.4330971557647,24.371951648965478 L 202.57339176163077,24.905469694174826 L 201.45751646906137,24.476331658661366 L 201.02186656929553,23.40942747052759 L 200.7237902879715,22.047098874114454 L 199.98242118768394,20.731460130773485 L 199.60791506804526,18.58768490422517 L 195.71763771027327,15.159339093603194 L 194.31897219084203,12.884577434509993 L 194.05146779865026,9.861663648858666 L 194.08968267962337,6.441504307091236 L 193.7151766344905,3.53469658177346 L 192.23243836127222,2.0471976697444916 L 191.01720433309674,2.1280614333227277 L 190.43633775040507,2.858774732798338 L 190.00068792328238,3.910243629477918 L 189.2058178856969,4.964797704480588 L 188.72431004047394,5.071708695963025 L 187.59314883872867,4.675859158858657 L 187.01992524787784,4.739424388855696 L 186.78299289382994,5.210407011210918 L 186.68363408371806,6.669835862703621 L 186.2097692284733,7.088949427939951 L 185.0709650348872,6.996452706865966 L 182.85450050607324,5.927069495432079 L 181.74626827798784,5.678539109416306 L 180.87496847845614,5.892390141263604 L 177.924777764827,7.441607112064958 L 176.15160612761974,9.534881010651588 L 175.0739458631724,8.788846279494464 L 173.41541894339025,4.375378848053515 L 172.24604278616607,3.1707286667078733 L 168.40162337571383,1.5100614558905363 L 166.9112421106547,0.31179604306817055 L 166.33037545345724,0.08083425182849169 L 165.6195782441646,0.0 L 158.2823164202273,2.598826389759779 L 147.8037894014269,3.777354998514056 L 145.28924858942628,4.834773518145084 L 143.39378931373358,6.984890709631145 L 143.07278405874968,7.59770842269063 L 142.7288499046117,9.124260528944433 L 142.8664235956967,9.448127665556967 L 143.2867875881493,9.604284579865634 L 143.78358134254813,10.651225556619465 L 144.00522778742015,10.813200615346432 L 144.70073908939958,10.847910096868873 L 144.83831270597875,11.547931632958353 L 144.6472382247448,12.230680828914046 L 143.31735947728157,13.104488843120635 L 141.61297475919127,15.917796915397048 L 140.9633213300258,16.624238565564156 L 135.98774064332247,19.369778770022094 L 133.0222640223801,21.774672718718648 L 131.6159555129707,22.545614919625223 L 128.64283582754433,23.34565152321011 L 127.19831243529916,24.84747619368136 L 123.6290402598679,31.985166140832007 L 121.90936955809593,34.67430179566145 L 120.86992410197854,35.25527741294354 L 118.11462940275669,35.6910485913977 L 116.7159638851881,36.35348520707339 L 115.45487198233604,37.61465507093817 L 114.3007818814367,39.3703024731949 L 113.51355483569205,41.41731208562851 L 113.33012327179313,43.54652776475996 L 111.98495861701667,43.39524540770799 L 110.72386671416461,44.093505796045065 L 108.17111102119088,45.89774688333273 L 106.47436921857297,46.25866467412561 L 105.45020981878042,45.787147716619074 L 104.7470555268228,44.54742149822414 L 103.98275738023221,42.58653560653329 L 102.25544368848205,43.41851938609034 L 99.9166915230453,45.100317290984094 L 97.79194273799658,47.097014769911766 L 96.72956838272512,48.826507213525474 L 96.68371050991118,51.98988675698638 L 95.85826850868762,53.95405986253172 L 92.71700331568718,57.161161228083074 L 90.46996689587831,60.17750951088965 L 89.5680951308459,60.959574547596276 L 88.08535678312182,61.53160159662366 L 83.61421291716397,61.74174870830029 L 81.52003609761596,62.967763661406934 L 80.34301694855094,64.86569659225643 L 79.37235833890736,67.0914770392701 L 72.447817588225,76.52434599772096 L 71.51537385955453,77.05699060857296 L 69.15369272045791,79.87909756042063 L 68.81740155816078,80.93336166255176 L 68.71804282069206,82.02883574739099 L 68.30532182008028,82.95459068566561 L 67.0213010199368,83.48784823343158 L 64.94241018034518,85.69760047458112 L 63.872392835095525,86.56532835401595 L 62.618943924084306,87.23966946266592 L 59.79104092158377,88.01966116391122 L 58.77452436462045,87.69709499552846 L 59.10317261144519,86.23698306083679 L 57.71979307383299,86.04936581011862 L 53.36329385265708,86.68846292793751 L 51.89584141224623,87.22207695618272 L 50.726465329527855,88.4360921997577 L 48.30364033766091,93.87600932177156 L 46.81325899809599,95.4203388672322 L 43.40448948740959,97.02971501741558 L 41.95996609516442,98.23411388229579 L 41.11923811212182,99.8795668631792 L 40.75237505696714,101.72540258523077 L 40.43901286646724,107.37840105220675 L 39.88871824927628,107.8257093289867 L 39.10913411900401,107.71387883648276 L 38.276049200445414,107.96697195246816 L 37.47353624552488,108.80873617902398 L 36.89266959019005,109.66240337025374 L 35.9525830168277,112.04747754242271 L 35.3105725068599,115.91287768539041 L 34.7908497788012,117.15084462612867 L 34.011265797540545,118.011688712053 L 32.24573715031147,118.98472078610212 L 31.489081993699074,119.90483503602445 L 31.89416000433266,121.0787914050743 L 31.1145759485662,121.52130153030157 L 31.741300329566002,122.91986523848027 L 31.68779953941703,124.4368486944586 L 31.076361067593098,125.64719099458307 L 27.59116164408624,127.36573908943683 L 25.397626088932157,129.10254416801035 L 23.869029868394136,131.30682359542698 L 23.104731721803546,132.77288762293756 L 22.737868666648865,133.97913393750787 L 23.60916854068637,135.70026240684092 L 26.666360907256603,137.00181348528713 L 27.843380054458976,138.19714285247028 L 28.08031240850687,140.0794210182503 L 28.118527363985777,142.48350964300334 L 28.56946324557066,144.10063818003982 L 30.052201518788934,143.6444772845134 L 30.594853220507503,145.41601357236505 L 32.299238013103604,148.57537433039397 L 32.89539050497115,150.33069433737546 L 33.12467994168401,152.561227414757 L 32.666101140901446,153.39197450689971 L 31.61136970296502,153.80146015621722 L 28.584749227389693,155.58218399249017 L 28.66882198303938,156.82903149537742 L 29.180901719257236,158.3790765935555 L 28.989827163517475,160.0602673329413 L 27.744021244347095,161.24869608320296 L 25.023120041936636,161.5339570119977 L 23.89195884205401,162.6513704881072 L 12.626204703003168,168.6583638684824 L 12.389272274449468,169.39035471435636 L 12.22112669236958,171.61667837947607 L 11.56383034773171,172.75399725232273 L 10.493813000619411,173.6830807654187 L 9.309150936082006,174.3680820139125 L 8.26206256262958,175.32722678221762 L 7.620052125304937,177.07317828945816 L 7.574194252490997,178.80179699603468 L 8.093916980549693,181.4255630131811 L 7.879913527518511,183.16151204984635 L 7.314332852140069,184.53395458962768 L 6.481247933581471,185.82316803000867 L 4.669861488044262,187.81726748216897 L 1.0165164824575186,190.104802521877 L 0.2522183358669281,191.47897431626916 L 1.1770191472023726,192.87739648111165 L 2.438110975548625,193.9174790615216 L 2.575684593990445,195.4002348864451 L 2.300537284463644,197.0508679896593 L 1.7043847925961018,198.0797737510875 L 0.0,199.86286777630448 L 5.411230586469173,199.46192056685686 L 6.83282507956028,198.45070540625602 L 7.268474979326129,197.37985764909536 L 7.245546080172062,195.3942552804947 L 7.535979371517897,194.49140167143196 L 8.3614213000983,193.76205198746175 L 9.439081637188792,193.4273007204756 L 11.56383034773171,193.37350330874324 L 12.091196067631245,193.08061570860445 L 12.33577148616314,192.6622315729037 L 12.297556530684233,192.13033194001764 L 11.968908356502652,191.47897431626916 L 11.365112874656916,191.05473696719855 L 11.372755866497755,190.5648131771013 L 13.176499394699931,188.55180318187922 L 14.575164914131165,183.34647358953953 L 15.324177004396915,182.17714406177402 L 16.585268907248974,182.01608233712614 L 17.617071371525526,182.7677438268438 L 17.617071371525526,183.79398662038147 L 17.18906438909471,185.02931117545813 L 16.96741801686585,186.46191778965294 L 17.19670738093555,188.51596996933222 L 17.59414247237146,189.60301649197936 L 19.053951846435666,191.47897431626916 L 19.25266931951046,193.31372907478362 L 19.856464801356196,194.2163897017017 L 20.681906728073955,194.79632251802832 L 21.522634712979198,195.6812859866768 L 23.815529005602002,199.86286777630448 L 24.610399041324854,200.65287938993424 L 26.781005699187517,201.87402927689254 L 27.659948490560055,202.66432947851717 L 28.8904684279114,202.95772735681385 L 29.05097101815045,203.38288271520287 L 28.8904684279114,204.46687797643244 L 29.501906901597977,206.15018886793405 L 32.10052046738565,208.3914091559127 L 35.0812831427902,209.2725667124614 L 40.614801440387964,209.68621996976435 L 44.566222578287125,208.96684290189296 L 45.529238272458315,209.07474346924573 L 46.35468019917607,209.87207426130772 L 47.99027814716101,212.41471285093576 L 48.93800778314471,213.35650703776628 L 50.14559882134199,213.79446628782898 L 51.3302608858794,213.86646303441375 L 52.65249656885862,213.68047354277223 L 54.15052089840174,214.55047823954374 L 54.81546023488045,214.6884916415438 L 55.43454169854522,214.50247444584966 L 62.28265275992453,210.32174779102206 L 64.81247948110104,210.17784828785807 L 68.06838939338923,213.6024799235165 L 68.54989716596901,215.7207017885521 L 69.03140501119196,220.4581520743668 L 69.64284348487854,220.88466318044811 L 70.26192494854331,221.0348508860916 L 70.87336342222989,220.90268534887582 L 71.44658708758652,220.4701660303399 L 72.78410875238478,220.21787883434445 L 74.15984529815614,220.4581520743668 L 76.26166510954499,221.19105052761734 L 80.15958545915782,220.96276025194675 L 81.97861496917903,222.32663557026535 L 83.04098932631314,224.25586599484086 L 85.50202919915318,230.85402950737625 L 86.93890960142016,230.7216274049133 L 88.13885772228241,229.87914301082492 L 89.36937765963376,229.33159749675542 L 90.9209027774632,230.12585720047355 L 91.70812982320786,232.48524565249681 L 92.12085082568228,233.22577335964888 L 94.89525296352804,235.20100268628448 L 95.33854585513473,235.68287398852408 L 95.38440372794867,236.10454605799168 L 95.59076419100165,236.2491267742589 L 96.49263595603406,235.91780148539692 L 98.41866719350219,233.09933462832123 L 100.06955119781196,232.2865845579654 L 101.44528774358332,232.62973106466234 L 102.69873658008873,233.77370771672577 L 103.98275738023221,235.38169944658875 L 104.71648363769054,235.79732461180538 L 105.15977652743459,236.34551607538015 L 105.2285632994026,237.05041434708983 L 104.80055646412075,237.98439339455217 L 106.03107632882893,238.91853189002723 L 107.01702092029154,240.19645010493696 L 107.30745421163738,241.77014558762312 L 106.45144031941891,243.5614528702572 L 109.47806079499424,245.39558644220233 L 112.8333295173943,246.02922939974815 L 119.47508004121482,245.993019211106 L 120.90049606561661,246.27667168714106 L 123.71311308629811,247.32088100351393 L 125.31049607880414,247.48386797774583 L 128.7039796821773,247.10357243195176 L 130.03385842964053,247.3752094944939 L 132.17389312200248,248.71548270061612 L 133.05283591337502,248.87851132825017 L 133.5572727341205,249.60314150340855 L 133.32798322290182,252.03135242592543 L 133.64134548790753,253.1673035947606 L 134.32157080620527,254.0073342360556 L 134.94829518720508,254.03150960151106 L 135.66673546098173,253.81393434293568 L 136.59917919151485,253.95293985120952 L 137.3558342717588,254.52108546718955 L 138.48699547350407,255.97193804197013 L 139.28186551108956,256.54029359668493 L 140.72638890333474,256.8547283578664 L 143.43200419656932,256.5040137730539 L 144.85359868779778,256.6007603891194 L 156.3792141545564,261.9063046379015 L 157.2810859195888,262.75373285636306 L 158.6338935662061,264.8002085071057 L 159.4364065937698,265.5935753369704 L 162.09616401419044,266.15081796515733 L 167.89718662947416,265.6904830187559 L 170.06779321283102,267.5381144611165 L 170.51108617708087,270.45925324689597 L 168.5391970667988,271.6051058890298 L 165.81065279990435,272.41159091331065 L 163.92283644340932,274.2857644474134 L 163.9916232880205,275.5173679962754 L 164.73299246281385,276.19092405214906 L 163.2578971069306,276.79173344094306 L 160.75864234939218,277.1194754978642 L 159.8949854671955,277.6900365492329 L 160.72042739391327,278.885980415158 L 161.75987285003066,282.2688256725669 L 163.53304441459477,284.07954059541225 L 165.88708256185055,284.45330338180065 L 168.63855580240488,283.5508469156921 L 169.19649341143668,283.0404325677082 L 170.06779321283102,281.74638218898326 L 170.8703062403947,281.30902614910156 L 171.68810517713428,281.2908036597073 L 173.75935309752822,282.21111144218594 L 176.44203949160874,282.0592346349731 L 177.28276740200818,282.4966509947553 L 177.924777764827,284.12208139989525 L 178.76550574973226,281.71297173481435 L 179.46101697534323,280.7502333363518 L 180.37817472219467,280.10647785197943 L 182.37299273349345,279.6024582227692 L 183.28250748850405,278.885980415158 L 184.74231693707407,276.87063244357705 L 184.97160629928112,275.7236735448241 L 184.8340326808393,273.9581924825907 L 183.37422323413193,270.85936497244984 L 182.96914529800415,269.4287976846099 L 183.81751619838178,268.7560757333413 L 187.90651102922857,270.45925324689597 L 188.80073980242014,270.4410672020167 L 189.1981748957187,269.1136383982375 L 188.77016791142523,267.55629095528275 L 187.51671900227666,264.6064264513552 L 187.2568576745689,262.51159702893347 L 187.61607781238854,261.63394486065954 L 190.18411941453815,260.90771876089275 L 191.23885077796876,260.3207563208416 L 194.0667537804693,258.1670842971653 L 196.8105840291828,257.5501773105934 L 198.415610011667,257.4896999001503 L 199.60791506804526,257.8162855133414 L 200.32635526917875,258.64493264537305 L 201.02950956113636,260.00007169134915 L 202.19888564385474,263.1411722935736 z" /></g></g></svg>