<svg xmlns="http://www.w3.org/2000/svg" xmlns:xlink="http://www.w3.org/1999/xlink" width="367.6753106918186" height="500.0" viewBox="0.0 0.0 367.6753106918186 500.0" preserveAspectRatio="xMinYMin meet"><g transform="matrix(1,0,0,-1,0,500.0)"><g><g><path fill-rule="evenodd" fill="#D2EBD9" stroke="#A6A6A6" stroke-width="0.25" opacity="1" d="M 319.30450526438653,89.64715901296586 L 318.10683885216713,87.11441157571971 L 318.01566701196134,86.5365103110671 L 318.22287573106587,86.6118825841695 L 318.6497257091105,85.76719168201089 L 319.350091163069,85.34022485744208 L 318.8154926672578,84.82857106439769 L 318.7118883281946,84.10361327137798 L 318.9232412260026,82.14300794620067 L 318.7699067275971,80.24947152566165 L 317.642691295594,77.67282016575336 L 316.9920558799058,77.20471313223243 L 316.02231904678047,77.10139481257647 L 315.68249672837555,76.41112987045199 L 315.32609769143164,74.79485887568444 L 313.5959048140794,75.63026916049421 L 312.98256697691977,76.57546458952129 L 311.6315660662949,77.43954052217305 L 307.47495899535716,78.60455029085279 L 306.13224648498,78.42287977598608 L 304.8226872943342,77.9296048572287 L 304.24250285699964,77.17340419720858 L 304.54917177557945,75.58958846051246 L 304.92214749380946,75.00603664852679 L 305.00917515158653,74.47420941665769 L 304.16790773905814,72.18371401820332 L 304.0850242190063,69.28435143269598 L 303.72448104061186,68.55681629665196 L 303.4178121238947,66.96339839883149 L 302.8583485465497,66.02271784469485 L 298.93795945495367,62.586922525428236 L 297.5911026839167,61.831375484354794 L 292.066918021068,60.86423452850431 L 287.9103109501302,59.20787466131151 L 285.77191684395075,57.30820574890822 L 283.85730821825564,56.08127837814391 L 283.91118247807026,55.93824640288949 L 281.6899049319327,55.50452702026814 L 281.08485545776784,55.179666044190526 L 279.46448320895433,53.01687200926244 L 277.8689759988338,51.89567516092211 L 277.135457104072,50.79816658422351 L 276.37292899005115,50.61037192866206 L 276.12842269055545,50.17895290162414 L 276.0496833510697,49.36904138419777 L 276.25274793058634,48.57795361895114 L 276.98212264478207,47.26302496995777 L 279.8043055254966,44.30028536077589 L 280.405210820958,42.962405355647206 L 280.74088895879686,41.60498699825257 L 281.0641345568001,41.12995396275073 L 282.0255830697715,40.55134773813188 L 283.83244317770004,38.874929015524685 L 285.19173240847886,35.710148802027106 L 286.24435276165605,34.224682964384556 L 283.6583878584206,30.062378341332078 L 283.43874660134315,29.593736305832863 L 283.2771237809211,28.437849543057382 L 282.26594518870115,26.85113302897662 L 282.9207247439772,26.184337940067053 L 285.1544348690659,25.76708625536412 L 286.7706629373133,26.31830140016973 L 287.39228913374245,26.218213179148734 L 288.3827468268573,25.24367646034807 L 289.16599584184587,23.89860989060253 L 289.48509725928307,23.034011824056506 L 289.5969899985939,22.27115003298968 L 289.48509725928307,20.828991321846843 L 288.88419196382165,19.356772887520492 L 288.2377007268369,18.505724389106035 L 288.12995216809213,18.54566011298448 L 288.25013326853514,17.231123169884086 L 287.7238230910152,16.027641556225717 L 287.7569764908403,14.625190044753253 L 288.09265458770096,13.14210176281631 L 286.67120273783803,11.538645386695862 L 286.24020858109,11.518722329288721 L 285.38236444815993,12.114936268888414 L 284.9638028293848,12.102673634886742 L 284.29244655556977,11.803787252865732 L 283.85316403768957,11.983115632086992 L 281.8888252917677,13.470252813771367 L 279.71727782674134,15.766743939369917 L 278.7226759530604,16.009224509820342 L 277.73221822082996,16.810465708374977 L 277.52086532115936,18.276871997863054 L 278.0098779182881,19.654848598875105 L 279.1039400305599,20.19883342087269 L 278.3082584757358,20.970410089939833 L 277.26807070337236,21.659150254912674 L 276.6381561476737,22.434165271930397 L 277.05257358402014,23.47397294919938 L 276.364640628919,23.384745063260198 L 274.11435382440686,23.96631102450192 L 272.68461361527443,23.96631102450192 L 271.25487340427935,23.621666181832552 L 270.49234524928033,23.237063088454306 L 268.70620604231954,21.63762476015836 L 268.0804357063025,21.35934503003955 L 266.4103333372623,21.214833904989064 L 265.84672558121383,21.49310070183128 L 264.3299577124417,22.84481696318835 L 263.5052669774741,24.945064540952444 L 262.84634320251644,25.074356854893267 L 261.2715568933636,24.46796058770269 L 260.59191229753196,24.357159877195954 L 258.2753186933696,24.8527160724625 L 257.4008978791535,24.726511004380882 L 256.5057561658323,24.257134824991226 L 256.07061782851815,24.19096619077027 L 255.6727770715952,24.546446836553514 L 255.4531358126551,25.203654610551894 L 255.84268821030855,25.97647492121905 L 256.2115197479725,27.356329526752234 L 255.52773097343743,27.07907736673951 L 254.2140276413411,26.053459595888853 L 253.57996894605458,25.794798652641475 L 253.7871776651591,24.978926266543567 L 254.61186839826405,24.12479890603572 L 254.72376109845936,23.797061015851796 L 254.79006789810956,22.206561400555074 L 254.60358003899455,21.27017781790346 L 253.45978784747422,19.797750655561686 L 243.9281863924116,20.134287876076996 L 240.56311661563814,19.44588532205671 L 240.1114016380161,19.1754831392318 L 239.70941670238972,18.16475580818951 L 239.2949992250651,18.026535911485553 L 237.03642410039902,18.491900608874857 L 233.7708145622164,18.505724389106035 L 231.28016563877463,18.880525765940547 L 230.02448074892163,17.734758640639484 L 229.23294341377914,15.180571245960891 L 228.50356869772077,14.367477661930025 L 227.63329202495515,14.020826877094805 L 225.7518367972225,13.707953874953091 L 223.8579490315169,14.13126009143889 L 222.9462305959314,13.916532325558364 L 221.05648700892925,11.734817523509264 L 221.9847821239382,11.313369057141244 L 222.1381165832281,10.872058684006333 L 221.79415008425713,10.283741966821253 L 221.14351470954716,10.00341135635972 L 219.40296136029065,9.962053219787776 L 218.65700992569327,9.72310593817383 L 216.7796988785267,7.668301749974489 L 215.905278025195,7.267298080027103 L 214.94382955133915,7.377492448315024 L 215.03085721097887,8.98799810744822 L 214.17301311716437,9.340215642936528 L 213.16183448396623,9.063032443635166 L 210.54271618276834,7.244341488927603 L 209.7594671677798,7.00407185498625 L 205.57799505628645,7.065285253338516 L 205.01853148080409,7.39279751572758 L 204.6082582231611,8.194888642989099 L 204.92321546003222,8.883871889673173 L 204.79060190171003,9.551565253175795 L 202.78896557539701,11.714893212541938 L 200.72516662999988,12.674469467252493 L 200.45165115222335,13.14516840968281 L 201.74463362246752,14.030029420740902 L 202.08031176030636,14.438039698638022 L 200.73345503024757,15.375438371673226 L 200.17813559435308,15.413799460045993 L 197.99415562860668,14.50860321521759 L 196.8089216761291,14.364409752190113 L 196.46495517902076,14.46871923841536 L 195.97179844230413,15.245014146901667 L 190.67968753911555,17.25261808000505 L 189.7099507059902,17.264901003800333 L 189.15463130921125,16.876477510668337 L 188.3423730749637,15.739120754413307 L 187.83263961784542,15.327871290966868 L 187.36020370200276,15.245014146901667 L 185.65280379354954,15.505868058651686 L 185.02703345753253,15.79436730965972 L 184.48829074203968,16.300840153358877 L 184.41783976182342,16.810465708374977 L 184.81153634004295,17.70711798965931 L 184.63333688117564,18.26151332911104 L 184.4924349207431,18.372097104787827 L 183.51440972834826,18.12943236809224 L 182.91350443288684,17.8913935367018 L 182.97152283228934,17.37852025218308 L 183.58486070856452,16.058336816728115 L 183.12900151126087,13.14210176281631 L 183.69260922633111,12.83391653932631 L 184.25207280367613,11.927936611697078 L 184.41783976182342,11.193841377273202 L 184.42612812109292,9.922227372415364 L 184.06144076399505,8.589887118898332 L 183.4771121479571,7.3912670174613595 L 182.80990005284548,6.502166940830648 L 181.2061045244336,5.694391846656799 L 180.07474483177066,3.526059754192829 L 179.35365847684443,2.554010186344385 L 178.5704094618559,1.8358658403158188 L 176.77598189376295,0.7314679026603699 L 175.90156108140945,0.3909093653783202 L 172.7146908417344,0.0 L 172.53649130277336,0.10383049864321947 L 173.06694566085935,1.1407981123775244 L 173.9537990540266,1.6036502048373222 L 174.0532592125237,1.9978159004822373 L 173.94136651419103,2.740449072793126 L 174.66659708879888,4.929645943455398 L 174.69560626894236,5.995753196068108 L 173.95794319361448,6.395063542760909 L 172.1966689862311,6.073775333352387 L 171.55017779022455,5.41447314992547 L 170.72963123582304,5.694391846656799 L 169.62728076428175,5.201874051243067 L 169.2377283666283,5.581197644583881 L 169.0222313273698,6.147209752351046 L 168.87718518823385,7.39891963545233 L 168.43790271133184,7.91321484092623 L 169.34962110593915,8.625102530233562 L 169.53610892407596,9.248328976333141 L 169.18385410681367,9.94367204234004 L 167.21122699975967,12.840049289166927 L 166.046713989228,12.16552006918937 L 165.6074314713478,12.429182287305593 L 165.53283635154366,13.13596841879189 L 165.1681489534676,13.934937003068626 L 164.24814220145345,14.993387529626489 L 164.13624950125813,15.975460236892104 L 163.65138108469546,15.58566308952868 L 163.04633160866797,15.465971369296312 L 161.8528093378991,15.561110536567867 L 160.64685456641018,16.009224509820342 L 159.6273875720799,15.610215776599944 L 158.81098523736,16.033780596219003 L 158.60377647913992,18.087966226041317 L 158.1354847829789,18.60095655824989 L 157.56773284636438,18.806790746748447 L 156.96682750992477,18.739201911725104 L 156.38664307445288,18.428926393389702 L 155.51222226023674,17.409228834323585 L 154.4347368683666,15.419937290251255 L 153.34067479521036,14.898265643045306 L 150.77128657326102,14.853774177841842 L 148.2557726111263,15.545765318907797 L 137.16181734763086,22.475689336657524 L 135.60360771790147,22.837126362137496 L 134.10341652855277,22.835588255897164 L 133.56052963249385,23.686284226365387 L 131.3433962278068,23.686284226365387 L 126.87183191813529,24.19096619077027 L 126.11344794370234,23.889378054067492 L 125.47524506784976,23.193990509025753 L 124.01649563759565,22.726383722387254 L 122.44585346803069,22.57719504646957 L 121.46368409506977,22.835588255897164 L 119.70240992680192,24.306377472355962 L 119.69826578721404,24.720354842953384 L 120.43592882156372,24.89273334108293 L 119.39988518878818,25.876397714950144 L 118.09032599814236,26.641685442067683 L 117.01284064538777,26.690965907648206 L 116.65229746885598,25.522304234094918 L 116.97968724556267,25.15439767949283 L 114.86201408132911,25.12361251655966 L 114.68381454236805,25.965697191655636 L 114.1948019452393,26.84805278107524 L 114.9697625990957,28.268355675041676 L 114.70453540235758,28.870871344581246 L 113.45299468934536,28.94946896471083 L 112.45424863696098,30.70225076749921 L 111.93622682057321,30.874961832538247 L 111.57153946347535,30.49254306498915 L 111.36433070525527,29.19143884908408 L 110.86702978797257,28.864706901833415 L 110.47333320975304,29.159072330221534 L 110.23297109268606,31.089321988634765 L 109.49116383679211,31.425542576238513 L 108.49241778440773,31.4810687629506 L 107.85421490855515,31.11399746313691 L 108.22719058580697,30.173382912762463 L 107.62214110977948,29.865046712569892 L 105.01545530743897,29.445758760906756 L 104.70049802958965,29.25771418772638 L 103.97112331539392,28.02183571550995 L 103.66859857738018,26.829571595415473 L 102.22642582654953,25.87023921497166 L 101.83272925019264,25.419162889011204 L 101.78714331053197,24.978926266543567 L 102.05651468783617,24.035552331246436 L 101.79957585036755,23.39089857880026 L 102.62841076403856,23.12784444820136 L 104.48500095121562,21.868262235075235 L 105.1977989859879,21.899015167728066 L 106.94664065539837,22.907880657352507 L 108.89440268091857,23.240139758214355 L 110.46090066991746,22.84481696318835 L 110.23297109268606,21.434677993878722 L 109.97188807465136,21.566899368539453 L 109.9097254537046,22.028180876746774 L 109.37927109748125,21.815982877276838 L 109.39170363731682,19.505807203240693 L 109.13062061928213,19.046435844153166 L 108.59187794290483,18.865164116956294 L 107.67187118902802,20.21727527678013 L 107.05438917316496,20.798248969949782 L 105.85257854312658,20.67528248205781 L 104.62590291164815,19.860752522945404 L 104.10788109526038,18.56102012563497 L 102.87291706353426,18.35213035158813 L 100.30767302028835,18.367489349097013 L 98.78676093183458,18.772996115498245 L 98.39306435361505,19.031073436141014 L 97.68026631884277,20.43551193922758 L 96.17593098804355,20.804397367872298 L 95.4507004134357,20.801323167048395 L 93.28744130954146,20.43551193922758 L 92.60779667273164,19.719384137541056 L 91.87427777796984,19.499661311507225 L 90.67661132663488,18.772996115498245 L 89.9969666916877,17.82228894997388 L 89.60741429403424,17.55663429107517 L 87.8046983666718,17.15128596033901 L 82.5871826224029,17.15128596033901 L 82.27222538553178,18.518012259155512 L 82.02771908603609,18.772996115498245 L 79.4417541436851,18.929683396592736 L 78.87814638763666,19.21850009355694 L 77.51056879758835,17.307891556993127 L 76.75632900185883,16.878012732602656 L 73.41612430475652,16.182655822485685 L 72.53341513127089,16.300840153358877 L 70.4613278657198,17.400016180239618 L 71.50980403833091,17.39080361276865 L 71.93665401637554,17.803861283697188 L 72.46296419203281,19.292244870215654 L 71.55538993887603,19.196991542354226 L 69.51028080098331,18.581140225753188 L 69.76925073005259,19.40132881514728 L 69.68222303129733,19.96831971593201 L 68.97356921620667,20.804397367872298 L 68.07013914175332,22.61564508639276 L 67.52725228667259,23.37551475223154 L 66.93463530950248,23.686284226365387 L 66.77715667150915,23.96015630941838 L 66.53679455257952,25.884095842950046 L 67.57698240503669,27.344006607308984 L 67.59770326502621,28.317662028595805 L 67.10040230862796,30.406196976080537 L 67.78004694357514,33.16892193350941 L 68.54671923816204,33.75386784039438 L 68.63374685868621,34.4222921943292 L 68.42653813958168,36.35273308120668 L 69.22636387497187,37.76503329630941 L 69.25122887454927,39.00480353832245 L 69.46672599203885,39.80427040159702 L 70.53592302463949,40.94119888730347 L 70.91718706302345,41.662243525497615 L 70.83015940338373,43.53217236883938 L 69.09789445437491,46.593370877206326 L 68.97356921620667,49.06964511144906 L 69.49573517218232,51.15671553462744 L 70.26240746676922,52.52920992765576 L 70.34114680625498,53.39587277173996 L 70.6063739657402,54.13070791773498 L 73.14260882698,57.69240130856633 L 73.565314585343,58.56674151401967 L 74.17865242063999,62.07749206852168 L 75.5628067702055,63.01073324214667 L 76.11398194730282,63.897496750578284 L 76.16371206752956,64.7408606139943 L 75.69956450909376,66.31596715375781 L 75.61668103002012,67.83569625020027 L 76.11398194730282,70.11982433032244 L 76.85578924231231,71.6711273919791 L 76.93867268040776,72.82300448417664 L 77.14588144049048,73.37174388580024 L 78.62949590943754,74.6603384623304 L 78.62949590943754,75.07643241155893 L 78.15705999359488,76.3626136733219 L 78.1612042132765,78.46986251324415 L 78.50102652981877,80.45005564484745 L 80.19184975884855,83.0996263641864 L 81.32320937141776,83.64864088315517 L 81.93654720671475,84.18206357304007 L 84.47278202883899,86.90710835997015 L 84.9120645467192,89.09078020136803 L 86.80180813372135,89.3673852942884 L 87.02973775193095,89.56542472168803 L 87.20379307121038,90.474055939354 L 87.66379644721746,91.12818621471524 L 88.01605126447976,91.14391215424985 L 89.73173957318068,92.14739910978824 L 90.22904049046338,92.98756174743176 L 92.04833313822746,98.011335789226 L 93.29987384937704,100.38909512478858 L 94.14114126376808,101.35775961820036 L 93.67699370533228,101.79644195269793 L 89.73588371276855,102.61716855689883 L 83.3787199575454,106.01922901067883 L 82.6534893810749,106.10140561964363 L 80.37004921771586,105.86120319366455 L 77.03398870117962,106.8316107550636 L 75.16082179360092,106.06979892216623 L 73.48243114538491,106.50599980913103 L 72.02782585471869,106.07295960746706 L 71.47250645980239,106.19938825722784 L 71.09953074157238,106.51864420063794 L 70.41574192605913,107.67899493407458 L 69.52474443241954,108.14389172941446 L 67.77175858430564,108.450699377805 L 66.8973377700895,109.00746023003012 L 65.463453380391,111.15320845413953 L 64.89984562434256,111.74213000852615 L 65.36813736148179,112.27732430119067 L 65.10291016288102,113.16424442455173 L 64.37767958827317,113.43037101626396 L 62.64541468024254,113.54760082345456 L 62.47135931998491,114.23205974604934 L 61.69225452654064,114.2986125908792 L 60.0843148175627,113.63314977567643 L 59.40467018261552,112.09997135959566 L 57.9251998513937,111.7294637504965 L 57.013481417670846,110.31435067765415 L 55.6832014080137,110.8587904451415 L 52.22695983201265,110.8904469627887 L 50.967130759730935,111.43498996365815 L 49.214144952595234,112.58138199709356 L 48.84945755451918,112.22031691297889 L 48.948917753994465,111.2513540899381 L 47.718097902834415,110.47260802704841 L 46.835388727486134,111.16903817560524 L 46.37124117091298,112.85062526073307 L 46.391962030902505,115.01494032423943 L 45.52582957781851,115.05932023003697 L 43.022748155519366,116.47981800418347 L 42.579321498051286,116.54642021097243 L 41.41066422499716,116.4322459641844 L 39.73641771636903,116.81601529475302 L 39.33443281985819,116.71768957655877 L 39.10235902108252,115.86461015790701 L 39.55821821838617,113.85495450999588 L 38.86614108271897,112.93298675213009 L 38.35640758648515,112.81578066572547 L 36.79405377805233,113.39551976881921 L 35.00791456922889,113.41136117838323 L 34.535478653386235,113.61413860693574 L 34.02160101570189,114.47292460128665 L 34.33655825443566,116.0009598787874 L 34.083763636648655,116.97461178060621 L 33.205198641866446,116.59716563206166 L 32.52969818748534,118.83080727048218 L 31.588970532640815,119.37677668500692 L 31.564105493947864,120.50711871217936 L 28.225972866639495,123.90385536756366 L 27.97317824885249,124.61927593871951 L 28.192819505929947,125.1821922827512 L 28.905617501586676,125.21717925183475 L 29.079672859981656,125.7134013613686 L 28.942915081977844,126.08243976999074 L 26.717493357136846,128.56825825478882 L 26.787944335490465,128.93764494359493 L 26.431545298546553,129.96006220579147 L 25.74361234344542,130.62593408767134 L 22.0635853279382,132.47138822171837 L 21.620158672332764,132.54790808912367 L 20.530240738764405,131.8943635718897 L 19.7606570571661,131.8477810882032 L 19.639243245124817,134.17122252751142 L 19.979065522551537,136.75948554929346 L 19.979065522551537,138.71731528826058 L 20.20699510164559,139.3979025427252 L 21.856376610696316,141.64205231238157 L 22.67277898453176,143.2062720404938 L 22.635481445118785,143.61585409380496 L 22.0635853279382,144.2367331283167 L 22.685211524367332,145.11066106520593 L 25.631719645112753,147.02586533501744 L 25.279464786872268,147.4776210486889 L 25.41622252576053,147.77882919181138 L 25.602710384875536,147.87176114879549 L 25.95082106254995,147.7339664399624 L 25.474240966141224,148.564034528099 L 25.383069125935435,149.07052044384181 L 25.412078386172652,149.6251882361248 L 25.801630783826113,149.96829979680479 L 25.714603083208203,150.92408771347255 L 26.066857980564237,152.91361328400671 L 25.85136086307466,153.14795049466193 L 24.45891823247075,153.52357005421072 L 22.536021245643497,153.52357005421072 L 21.8356557097286,153.716213690117 L 19.324285928159952,155.6818839609623 L 18.97203111089766,155.69152280967683 L 18.37112577445805,155.32526997104287 L 18.047880217432976,155.35418305452913 L 17.41382148116827,156.97697366960347 L 15.470203593373299,157.96393023058772 L 14.844433259218931,158.60064106155187 L 13.526585748419166,161.78622136078775 L 12.838652791455388,162.90358382556587 L 12.407658634707332,162.04700938984752 L 11.479363521561027,164.34356618393213 L 10.613231027498841,165.90674541983753 L 10.725123725831509,166.59996182937175 L 10.476473288610578,167.90299772843719 L 10.215390270575881,168.41598150134087 L 9.780251974239945,168.66766606271267 L 10.302417969331145,169.60037386231124 L 9.900432992726564,169.63588054012507 L 10.348003869876266,172.25162386894226 L 10.625663567334414,173.15636306162924 L 10.990350924432278,173.58620994444937 L 11.106387803331017,174.006420773454 L 10.965485844761133,174.39112695120275 L 10.559356767684221,174.7209144840017 L 10.778997985646129,175.72990204114467 L 11.197559643536806,176.15041394811124 L 11.9973853379488,176.2151132952422 L 12.295765895396471,176.40921992156655 L 12.536128055304289,177.00132266059518 L 12.560993054881692,177.7068222379312 L 12.337207656353712,178.41896300204098 L 11.802609158679843,179.01470194850117 L 12.2170265968889,179.55874113645405 L 13.124600810930133,180.20329668186605 L 13.51829738728702,180.81235122680664 L 14.35127648152411,181.20765519794077 L 16.07525311037898,181.69375634659082 L 16.81291614472866,182.36146415304393 L 16.63471668586135,182.92556663509458 L 16.717600164934993,183.55787713173777 L 17.380668081343174,184.6477107796818 L 17.923554936423898,184.96240947023034 L 19.365727687254548,184.6477107796818 L 20.430780539289117,184.84236587490886 L 20.932225676253438,185.37773269601166 L 20.849342197179794,186.25399453099817 L 19.456899527460337,188.68290904629976 L 19.403025267645717,189.42691619228572 L 19.966632982715964,191.75110298860818 L 19.99564224295318,192.80164473038167 L 19.842307783663273,193.01635211799294 L 19.556359726935625,193.0716580124572 L 19.21239322796464,193.6410432541743 L 18.8767150901258,194.84524477552623 L 18.976175289601088,195.3498522816226 L 19.42374612763524,195.78941878583282 L 16.957962283864617,196.23230698425323 L 16.162280770018697,196.6459458814934 L 14.620647819712758,196.10529560223222 L 14.222807101905346,196.12483543343842 L 13.2364935092628,197.4017181256786 L 13.55559496767819,197.94586257450283 L 12.764057632535696,198.11857592873275 L 12.710183333605528,198.40536739584059 L 13.025140650570393,198.8910204861313 L 12.357928516343236,199.73539818823338 L 13.095591589808464,200.89640104118735 L 15.254706555977464,202.48536119703203 L 15.254706555977464,202.7138236798346 L 15.992369590327144,203.83027834352106 L 15.901197751984,204.20905410405248 L 13.132889170199633,204.27763073518872 L 12.308198435232043,204.71198620367795 L 11.839906699955463,205.6200921004638 L 12.374505195766687,205.96315399371088 L 9.933586431667209,209.703464188613 L 9.162769958376884,210.47565319854766 L 8.495557822287083,210.53782968223095 L 6.908338973298669,210.09934954438359 L 6.377884617075324,210.16151820961386 L 6.2204060181975365,210.6916403407231 L 6.3488754369318485,211.96824875008315 L 5.623644862323999,212.43647616542876 L 5.7977001797407866,213.60900596156716 L 4.832107527181506,214.80493975710124 L 4.662196388468146,215.61779467761517 L 5.2713900450617075,215.4637284623459 L 5.847430299967527,216.00463455542922 L 6.058783199638128,216.75878963898867 L 5.9344579596072435,217.89038211107254 L 6.286712817847729,218.52688768412918 L 6.837888034060597,218.841910216026 L 7.741318067535758,218.7631514267996 L 8.18888894468546,219.3013779548928 L 8.445827743038535,220.46020957641304 L 8.106005424633622,221.76731170341372 L 8.47069282270968,222.78909231349826 L 7.161133632063866,223.24588643945754 L 5.909592919051647,224.17941168509424 L 5.747970100492239,225.60327599663287 L 6.145810898393393,226.66915639676154 L 6.062927378341556,227.00150009058416 L 4.624898808076978,226.82709729392081 L 3.01695909909904,227.2516052275896 L 0.8868533540517092,226.46845205314457 L 0.8454115949571133,228.07446845714003 L 0.22792957909405231,229.9069849466905 L 0.0,231.39952235482633 L 1.1230713333934546,231.99279296118766 L 1.6783906891942024,231.67966308258474 L 2.689569281414151,230.56749621313065 L 3.4272323567420244,230.64656984526664 L 3.920389134436846,231.19025812577456 L 4.69120560772717,232.81368043925613 L 5.229948284104466,233.43691598903388 L 8.938984518870711,236.35369173716754 L 11.22242472320795,237.5968368416652 L 11.81918583996594,238.39120508916676 L 10.977918425574899,239.17917866632342 L 12.212882416322827,240.11775314249098 L 11.292875662446022,240.43508534971625 L 9.295383555814624,239.0585736632347 L 8.354655902832747,239.58398489188403 L 8.068707844242454,240.7656760038808 L 8.184744764119387,242.1942537976429 L 8.528711222112179,243.46964601706713 L 9.784396113827825,245.21076091378927 L 11.839906699955463,249.0159969581291 L 13.277935268357396,250.14177857059985 L 13.675776027143002,250.70731893740594 L 14.01559834368527,252.91413174103945 L 14.247672103345394,253.47854535654187 L 13.642622666433454,254.2041418645531 L 13.696496926248074,255.38839452713728 L 14.148211942985654,258.0293519059196 L 13.667487666010857,261.30684104096144 L 12.05125959776342,263.1818122314289 L 9.38241121545434,266.8653055243194 L 9.20835585705936,267.6576111000031 L 9.892144672572613,270.0257961722091 L 7.177710350602865,271.22313386946917 L 6.25770359672606,272.3992389263585 L 6.796446273103356,274.23116139229387 L 6.398605516180396,274.6424985732883 L 5.043460424989462,275.54396409820765 L 3.878947414457798,275.51720048487186 L 3.4811066165566444,275.6794588295743 L 3.5142600163817406,276.37543172296137 L 4.405257550999522,277.2640415178612 L 4.475708529353142,278.5731828128919 L 3.9411099925637245,279.82762861438096 L 3.029391599819064,280.52961623389274 L 3.166149379685521,281.10775171313435 L 3.8333614747971296,281.58207573741674 L 5.470310442149639,281.8737477781251 L 6.245271056890488,282.2056859191507 L 7.650146227329969,283.13296544458717 L 9.282950976863503,283.5740714026615 L 12.175584835931659,282.82104468811303 L 11.636842161417007,283.6730359075591 L 9.643494194373488,285.6295308349654 L 11.006927605718374,286.3715294385329 L 12.299910075962543,285.75877950154245 L 13.588748367503285,284.70984856504947 L 14.94389345869422,284.1511319540441 L 16.52696812711656,284.38769264146686 L 17.43868651986122,283.0876845559105 L 18.976175289601088,282.8529060864821 L 19.626810666173697,282.4722696347162 L 19.746991764754057,281.4613923281431 L 21.251327134668827,281.8821295853704 L 21.417094092816114,282.5292780827731 L 21.08970431610942,283.99343545082957 L 23.659092538058758,283.23023781739175 L 24.475494952872396,283.23023781739175 L 25.138562828302383,283.5321383345872 L 27.111189933493733,285.05217820219696 L 31.1020300462842,286.42189827002585 L 34.65151557140052,286.53607056941837 L 35.73728928528726,287.1254723779857 L 36.669728538021445,288.24247175920755 L 37.58559111133218,289.90952741727233 L 38.42271438613534,290.5231496002525 L 38.36055176705122,291.7575095454231 L 37.117299415171146,293.1724527999759 L 34.49818107299507,294.64364497270435 L 33.6196160800755,294.9046318586916 L 32.98141320422292,295.35762598831207 L 32.89852968417108,296.35142840910703 L 33.17618938162923,297.0304409787059 L 34.44016263447702,297.47533895727247 L 35.30215094797313,299.0869777482003 L 35.98179558292031,299.7969887154177 L 36.62414259836078,300.15796333923936 L 39.22254008054733,300.4514989871532 L 39.728129398077726,300.9154806705192 L 40.61498271115124,302.7316258456558 L 41.39408754557371,303.55061223357916 L 43.11391999386251,304.30732415337116 L 43.913745649158955,305.0202998369932 L 45.28546745888889,307.0605110479519 L 47.06746248714626,308.1496604792774 L 47.17935522645712,308.4862969825044 L 46.84367708861828,309.1072313981131 L 46.48727804981172,310.50693539809436 L 46.51214313134551,311.7074606185779 L 47.6062052026391,314.57108246162534 L 47.946027521044016,316.96411840151995 L 47.382419764995575,318.65281188488007 L 44.94150096178055,322.63659194204956 L 44.68870630301535,322.5175938261673 L 44.06708010658622,321.72213183064014 L 43.06418991461396,321.42643886990845 L 42.01156956143677,321.3567684646696 L 40.88020986877382,321.5419934177771 L 38.80812264420092,322.33740589767694 L 35.6336849052459,322.78789659868926 L 34.57692041248083,323.3064725548029 L 33.78538307733834,324.2316385312006 L 33.540876779705286,325.2132496489212 L 33.34195638075471,327.55038066394627 L 32.84879960492253,328.5842223903164 L 33.51186751946807,328.64384564291686 L 35.73728928528726,329.7735119201243 L 34.42358595319092,330.8899805350229 L 34.1417820751667,331.3145220549777 L 34.39043255336583,333.0030751749873 L 34.05475437641144,333.69413112010807 L 35.46791794709861,334.7233428163454 L 36.81063045747578,335.1416181297973 L 40.61498271115124,335.20308410655707 L 42.740944277495146,334.55775666050613 L 44.717715522274375,334.85308708716184 L 46.75250524841249,334.1480997139588 L 47.48187996447086,335.5616615843028 L 47.77611634135246,337.89179155696183 L 48.14909205958247,345.04081766400486 L 48.497202737256885,347.2585937222466 L 49.214144952595234,349.2773270215839 L 52.5046195294708,354.4755954341963 L 53.37489620409906,356.70408865902573 L 53.743727741762996,358.8275768943131 L 53.805890360847116,361.21622269414365 L 53.43291460350156,365.99429910909384 L 52.93561368621886,367.35105835366994 L 52.906604466959834,368.15056901983917 L 53.84733208082616,371.31280291546136 L 53.9716573189944,372.35554850194603 L 53.81466786749661,375.3321017837152 L 54.66634467057884,376.04109809175134 L 55.377706941217184,377.24952274747193 L 55.51475839316845,378.0490542985499 L 55.21455043926835,378.788751328364 L 56.2261206228286,380.32880715467036 L 56.77106326818466,380.60741626564413 L 57.701055182144046,380.62380590848625 L 58.569047670811415,380.39435977861285 L 60.70966064184904,379.2064506150782 L 59.747037436813116,380.6320007313043 L 58.15789331495762,381.2166268080473 L 49.027656773105264,381.5417741984129 L 47.5461959708482,382.2796405488625 L 46.95883262716234,384.1497534047812 L 46.9457801040262,389.13448427803814 L 47.12198912911117,390.268963846378 L 47.898613944649696,392.31435645744205 L 48.074822971597314,393.3183955224231 L 48.407662177458405,393.933063428849 L 49.194076396524906,393.92208608519286 L 50.80932552739978,393.56808845698833 L 51.0246920902282,394.11145166121423 L 51.40647823549807,394.3172980733216 L 51.69689678400755,394.9761062366888 L 51.625107917934656,395.827291700989 L 51.26942682266235,396.31065835244954 L 50.097963297739625,396.9039928102866 L 49.57586253993213,397.44249567203224 L 49.491021187976,398.33014795929193 L 50.05880572274327,399.0751094799489 L 51.351005053147674,399.97977070417255 L 52.80636084638536,401.61658874247223 L 53.589511942118406,402.1587337628007 L 55.07749902643263,403.7141885785386 L 58.24273470789194,404.9536536009982 L 64.41004956513643,405.6535006761551 L 64.84078268893063,405.3559069139883 L 65.26825265027583,404.76632211264223 L 66.21782337129116,404.5376841481775 L 72.13061413355172,405.7775072744116 L 84.16177289560437,407.46728994045407 L 87.36942923255265,406.5299294684082 L 87.10837889276445,404.12452959269285 L 88.23089543916285,401.67162414453924 L 89.88203902542591,399.5370283294469 L 91.22644841484725,398.59402353689075 L 91.22644841484725,398.1789802145213 L 90.88708292506635,397.321598415263 L 92.39464877732098,396.76388884708285 L 92.84496066905558,396.0579792112112 L 92.7209617421031,394.84433244913816 L 92.34243871830404,394.2239791704342 L 90.75003147311509,393.1921854214743 L 89.17067675478756,393.049519889988 L 88.46584076806903,392.60510744154453 L 89.19678180478513,390.35941278841347 L 89.56551546417177,389.5125941047445 L 90.11045807227492,388.9262712066993 L 91.0763444378972,389.37011208664626 L 91.74854913167655,389.34271250944585 L 92.21843979135156,389.08516927901655 L 93.59548047371209,387.7211249470711 L 94.34273715689778,386.45626758784056 L 94.92031105607748,386.1688779676333 L 95.59251574985683,386.18803639523685 L 96.51271829940379,386.56301965005696 L 97.0054508857429,387.04755990207195 L 97.85060140676796,388.46058630384505 L 98.7446989454329,390.7788041923195 L 98.96006546728313,393.0906726475805 L 97.79839134588838,394.4490475524217 L 96.22229979000986,394.0263728303835 L 95.38041234947741,394.16908714547753 L 96.08851145766675,398.56103777326643 L 96.42787694744766,399.5177802005783 L 96.96303018927574,400.08702918421477 L 97.64176112785935,400.3593188058585 L 99.31574660167098,400.4418359398842 L 100.08258205279708,400.08702918421477 L 101.65541048906744,397.6733136391267 L 103.27392278239131,396.83806070126593 L 106.69694568030536,396.1623439639807 L 108.24693222902715,395.40990453213453 L 108.24693222902715,394.910218548961 L 107.28757214546204,394.08126211352646 L 106.40652717091143,393.00562420487404 L 105.75716436468065,391.5519613204524 L 105.51242967136204,389.5947985732928 L 105.55811348930001,385.81583883520216 L 105.79305881820619,384.15248844306916 L 106.3347383029759,382.91654473543167 L 106.4522109888494,384.5791769400239 L 106.02800414711237,388.7810789961368 L 106.06063544005156,390.76783888880163 L 106.6741037927568,392.2320738201961 L 108.42966749891639,393.6970592085272 L 108.79513799585402,395.61859049182385 L 106.49136852286756,400.9177313549444 L 105.63969171978533,403.7444801805541 L 105.51242967136204,404.87100584525615 L 105.60053414478898,406.01175664924085 L 105.84526887722313,407.0095989992842 L 107.34630848653615,410.7753272149712 L 108.41008873097599,414.86671310756356 L 109.09534591063857,416.6808489076793 L 109.669656727463,417.549610061571 L 110.4528078250587,418.30514996219426 L 111.34037908166647,418.8394073266536 L 112.24752910621464,419.0498160198331 L 113.08289026282728,418.98890659213066 L 113.55930716358125,418.7785024056211 L 114.54477229714394,417.65476476214826 L 115.96749679557979,416.44295423291624 L 117.4848520513624,415.6491939080879 L 120.62071956135333,414.8694776715711 L 122.34038885310292,414.9192404160276 L 125.25436355732381,415.6464285189286 L 126.85982332751155,415.51646116934717 L 127.61034309118986,416.40422910731286 L 130.79842070117593,417.18989973701537 L 133.97018266282976,417.15946473553777 L 134.65543984249234,417.65476476214826 L 135.20038248971105,417.2424699533731 L 135.85953466035426,417.12349660973996 L 137.2202596962452,417.18989973701537 L 137.56941454857588,416.9519624914974 L 138.45045956224203,415.79022920597345 L 142.35316252149642,408.8573564197868 L 143.96514853276312,406.95170351769775 L 145.09092823974788,406.02553658746183 L 145.6423971299082,405.3118215659633 L 146.19060289673507,403.265359682031 L 148.94468426145613,399.1905822176486 L 149.55815261416137,398.62975860666484 L 151.75750192813575,397.9343803199008 L 154.13958651199937,396.2886853571981 L 159.0473334118724,395.19025159906596 L 159.56943413056433,395.40990453213453 L 159.0701753012836,396.2886853571981 L 157.56587257049978,397.17323151323944 L 153.96990376710892,397.5908764991909 L 152.50149548985064,398.1789802145213 L 149.61036267317832,400.059526626952 L 148.29205833375454,401.5560509711504 L 147.82216767594218,403.7141885785386 L 147.54806477203965,406.73943034838885 L 147.14669986069202,407.1088509876281 L 144.66019511781633,408.3828924084082 L 143.6812562663108,409.28223426640034 L 142.74473807029426,411.3219783278182 L 142.11169091053307,413.5123962825164 L 142.0529546085745,414.8694776715711 L 140.59107253327966,415.4500970877707 L 138.05888401344419,417.6492302212864 L 136.5447918791324,418.57918652147055 L 135.0470153912902,418.9335355674848 L 129.95327013917267,419.0498160198331 L 128.4293886423111,419.7586755976081 L 127.40802909433842,420.04670031834394 L 126.94140155799687,419.7475983351469 L 126.52045783773065,419.0498160198331 L 125.59046592563391,419.35992031544447 L 124.18079395033419,420.4400119651109 L 122.83964768238366,422.10803636536 L 119.52430802583694,428.86217681504786 L 121.06776832975447,429.57904724031687 L 121.82155125588179,429.6374051151797 L 122.7809113394469,429.3706359965727 L 124.35700293816626,428.306587850675 L 125.21846914477646,428.0177245521918 L 126.09625099785626,428.4371414873749 L 126.72929811663926,430.53793608769774 L 126.94140155799687,433.06038789916784 L 125.18257469125092,435.12562895100564 L 125.29678425379097,436.33151219040155 L 124.31784536316991,436.6323666963726 L 122.91796279139817,436.37329559307545 L 121.61271097697318,435.73825380112976 L 120.89155934378505,434.9279464157298 L 120.62071956135333,434.9279464157298 L 119.52430802583694,436.8413122519851 L 118.7019993942231,438.71415202878416 L 119.02831235714257,440.08612366300076 L 120.05946126766503,442.3518891129643 L 119.77556900121272,443.8624762604013 L 120.26830158755183,444.2395507013425 L 122.65691241249442,444.7982718767598 L 123.08111925423145,445.14473440498114 L 124.32763476669788,447.0901826489717 L 124.7289997190237,448.1249457625672 L 123.81206029094756,447.9459326155484 L 122.30123131908476,446.6288562649861 L 121.43976511247456,446.2458727294579 L 121.7138679753989,447.18525322619826 L 120.49672063440084,447.0398524682969 L 118.40505460090935,446.3940280666575 L 117.1715916134417,446.2458727294579 L 115.73907775059342,446.4946663463488 L 115.11908311396837,446.2458727294579 L 113.784463128075,444.9547335812822 L 113.31457247026265,444.7982718767598 L 112.24752910621464,445.18664803076535 L 111.10543375276029,446.23469146713614 L 110.27659883908927,447.74455642607063 L 110.16238931566477,449.5322716264054 L 110.73017385043204,450.2403962397948 L 111.82658538594842,450.7415084745735 L 113.05678521282971,450.99069797527045 L 113.99982969090343,450.94309827685356 L 113.99982969090343,451.4135302808136 L 113.2786780167371,451.58436133433133 L 112.72720912843943,452.11092181596905 L 112.19858216680586,452.2789936810732 L 111.56227188557386,451.4135302808136 L 111.2196432761848,452.16974582429975 L 111.33711596019566,452.94577730447054 L 112.11047765426338,454.2349648270756 L 112.96541757881641,453.85094966366887 L 116.2154946513474,454.7451971285045 L 120.62071956135333,454.7451971285045 L 121.6388159878552,455.01997575722635 L 122.48722966946661,455.5527860317379 L 124.18079395033419,457.0564137836918 L 125.72751733660698,457.8225618461147 L 126.39645891077816,458.33625005185604 L 126.66729865409434,459.4565829783678 L 126.67056177556515,461.12808129377663 L 125.64920222759247,462.7134077725932 L 122.37628326751292,466.263947061263 L 121.90965577028692,466.9988086214289 L 121.7138679753989,467.73386188130826 L 121.34513431601226,468.05497970432043 L 120.5195625629276,468.02962702699006 L 119.674412002787,467.7901956997812 L 119.2241001110524,467.47474076226354 L 118.94999724812806,467.99300675746053 L 120.32377476803958,468.9396515516564 L 118.92389219813049,472.7068415405229 L 118.40505460090935,473.672007705085 L 117.25316984392703,474.3946878602728 L 115.08645182289183,476.3067326247692 L 113.7257267870009,476.98487440124154 L 113.9508827123791,478.7177037857473 L 113.42878199368715,480.1318954369053 L 112.11047765426338,482.7245410196483 L 111.88205856643617,484.5572512606159 L 112.0615307148546,486.172840137966 L 112.60479043610394,488.18962004128844 L 114.01245826669037,487.7484801122919 L 115.49192859604955,487.68363229651004 L 118.22293959744275,488.71417010203004 L 119.159523030743,488.85833132173866 L 122.36296998895705,488.30335092078894 L 125.51254264637828,487.0064217336476 L 134.01638886891305,484.9901658790186 L 134.68774514459074,484.3927679453045 L 135.28450625948608,481.89299194235355 L 135.99316011555493,481.6053905999288 L 139.5198526699096,481.70604773052037 L 139.90940506756306,482.11230774223804 L 140.48130114376545,482.2705133855343 L 140.92058366164565,482.66606648638844 L 141.6458141952753,482.8314961027354 L 142.45392820984125,482.06556691229343 L 143.13357284665108,481.9864687100053 L 143.74947779625654,482.2064044047147 L 144.30777714401484,482.20355560071766 L 146.69638796895742,483.4183942405507 L 147.4566971771419,484.3702430585399 L 148.43563602864742,484.7612743601203 L 148.93815797939897,485.6710578389466 L 149.46025869622827,486.0962912645191 L 149.59078390710056,483.5883435839787 L 151.53234600275755,482.8661298006773 L 153.99600881710649,482.735867831856 L 155.66346804983914,481.99122518952936 L 158.3555499110371,480.3271097224206 L 158.77323050796986,479.12209000997245 L 159.23659492470324,478.4745344687253 L 160.28405952081084,478.6554957013577 L 162.10814893245697,479.3596586911008 L 161.95151871442795,480.80530057568103 L 162.89782627299428,480.8703860603273 L 164.19981500692666,480.05833991989493 L 165.12001751549542,478.8845413932577 L 165.92274742014706,475.9592482801527 L 167.03547460213304,474.6205634307116 L 166.5199001263827,474.22246985323727 L 165.12001751549542,474.6205634307116 L 165.14285944402218,474.46809539105743 L 164.15086802840233,473.67765290942043 L 163.59287289716303,473.5111237000674 L 163.47540021128953,472.7237714547664 L 164.0627635549754,472.6842685714364 L 165.110228151083,473.0031292885542 L 166.15769274905324,473.0623905658722 L 166.7613716982305,472.2497730143368 L 167.1921048220247,472.6221936335787 L 167.64894295483828,472.6560524767265 L 167.87083575874567,472.23284601885825 L 167.5836803689599,471.2597123431042 L 167.78599436581135,470.2981916256249 L 167.81209941580892,468.9255622802302 L 167.3813663329929,464.83419076912105 L 166.7222141623497,463.06207422632724 L 166.2164290510118,462.32542637642473 L 164.9242297615856,461.11684105265886 L 163.30898062884808,460.21495531499386 L 161.5729956906289,459.64475266542286 L 159.89248397387564,459.4565829783678 L 159.89248397387564,458.9848097041249 L 161.62520574964583,458.07518375478685 L 171.3036480601877,460.3975568888709 L 172.0541678648442,460.1278725946322 L 174.47867314517498,457.9993948088959 L 173.6792064011097,457.19671838358045 L 173.6759432796389,456.44196168053895 L 174.2045702394098,454.4900694936514 L 173.97288803197443,453.56787696667016 L 173.40510349720716,452.7104240003973 L 172.68068874254823,452.0941152200103 L 171.98890528082848,451.8840406574309 L 172.24995561875403,451.3967278311029 L 171.98890528082848,450.94309827685356 L 172.41963836364448,450.47554396279156 L 172.54037416912615,449.89890689589083 L 172.38374394923449,449.24963113758713 L 171.98890528082848,448.59211146924645 L 172.86995025351644,448.9194531850517 L 173.5356287062168,449.7421714961529 L 174.47867314517498,451.8840406574309 L 175.01056326553226,454.1676883576438 L 175.30098177678883,454.7451971285045 L 175.70234672911465,455.0143677769229 L 177.2164388615638,455.17700413707644 L 177.76464463025331,455.4995004814118 L 178.60979519039392,456.627124956809 L 179.0698964446783,456.7786312336102 L 180.77325009182096,456.627124956809 L 181.65429506450891,456.189485902898 L 184.0820634663105,454.2349648270756 L 190.40600858442485,451.4135302808136 L 193.97913545928895,448.0298435986042 L 195.627015883103,447.6159068858251 L 197.46415781974792,447.95432365033776 L 198.81509349308908,448.7963459081948 L 201.10581044107676,450.94309827685356 L 202.42737790197134,451.8000152176246 L 203.80768170580268,452.38544437941164 L 207.15565265528858,452.8224945701659 L 207.15565265528858,452.35462930146605 L 205.43272024206817,452.3070066990331 L 206.12776682525873,451.99327747058123 L 206.82281344942749,452.2229686155915 L 207.7625947650522,451.56475723255426 L 210.57867559418082,453.3044487303123 L 211.83498046919703,452.8224945701659 L 209.91952338442206,450.47274447605014 L 209.071109700948,450.94309827685356 L 209.505105946213,449.81773927249014 L 210.19036316685379,445.7818891359493 L 209.89341837354004,444.9156173095107 L 210.19036316685379,441.77132324688137 L 210.01741730049253,440.5993895120919 L 209.24731872789562,439.5422749435529 L 209.071109700948,438.94834407791495 L 204.4146238155663,435.9053562656045 L 202.8059009257704,433.8339812560007 L 202.10432809963822,433.37759131379426 L 200.16929224692285,432.826681824401 L 199.82992675714195,432.52066716644913 L 199.27519474737346,433.02421785891056 L 198.9162504915148,433.06038789916784 L 198.59972693026066,432.85450296942145 L 196.48195584863424,429.7958111483604 L 196.48195584863424,429.3706359965727 L 197.01384596899152,428.0371663691476 L 197.59794615209103,427.05413367040455 L 198.3680447228253,426.4128466481343 L 199.46119313687086,426.06311476416886 L 201.01117968559265,426.2240971075371 L 201.40928147733212,426.06311476416886 L 201.69317374378443,425.3554558195174 L 201.88569841720164,423.91570594441146 L 202.47632484138012,423.74098831694573 L 203.29863351210952,423.74098831694573 L 204.98567147180438,425.3804289540276 L 206.41165913268924,425.8022317029536 L 208.5457458626479,426.9541833586991 L 213.42086143046618,427.60392359178513 L 213.77327944524586,427.4678545696661 L 214.050645429641,427.0791218150407 L 214.5955880768597,425.6412732694298 L 216.02157569676638,425.247241102159 L 216.2402053810656,424.9032014515251 L 216.05420698970556,423.3499924466014 L 216.1423115041107,422.64023681357503 L 216.6513596959412,422.3436335865408 L 218.1785043552518,422.3436335865408 L 219.80027973093092,423.74098831694573 L 220.10701392591,423.5330050904304 L 220.51816824264824,422.5681621488184 L 220.7661660965532,422.3436335865408 L 222.43688845075667,422.3436335865408 L 222.45646721683443,422.13020933791995 L 223.99340124055743,420.18241437431425 L 224.29687227495015,419.980230522342 L 224.7537104487419,419.980230522342 L 224.80592050775886,420.69763289857656 L 225.520545899868,423.1503557767719 L 225.3443368729204,424.24853126052767 L 225.6412816643715,424.74784232489765 L 226.36569642089307,425.13625600747764 L 226.11769860610366,426.53498542122543 L 227.48821300640702,427.9288494763896 L 227.48821300640702,428.4371414873749 L 227.21411014162004,428.4371414873749 L 227.21411014162004,428.86217681504786 L 228.23873281106353,428.43436369486153 L 228.5846245419234,428.4371414873749 L 229.39714380912483,429.0399882728234 L 230.11176920123398,430.85485755931586 L 230.9732354078442,431.35255125164986 L 231.44312606565654,432.0867394134402 L 231.64544010162354,432.9324036417529 L 231.34523214772344,433.17446579039097 L 231.47249423712492,433.87572793476284 L 232.78100917302072,436.0947509817779 L 234.05689285695553,436.9834039984271 L 235.62319505028427,437.2090938407928 L 238.97116596065462,436.6128658801317 L 248.52887246385217,438.67512186802924 L 250.03317523561418,439.6454587401822 L 250.23875239305198,437.68282220326364 L 250.08864841610193,435.780028459616 L 250.17348976805806,434.1624048789963 L 251.1100079640746,433.06038789916784 L 250.72169553674757,433.8896435853094 L 250.31054122000933,436.33151219040155 L 250.72822181880474,437.1310755740851 L 251.88336969725788,437.78872526902705 L 252.22599830664694,438.71415202878416 L 251.3449532929808,438.68069762084633 L 250.5618021953851,438.2458259938285 L 250.865273270756,438.88700614962727 L 252.22599830664694,440.68029315862805 L 253.03851753473282,441.4169016741216 L 253.99135137535632,443.0247128587216 L 258.1028946544975,445.2034136960283 L 259.6235130317509,446.48627970926464 L 260.21740261651576,447.18525322619826 L 261.6629690043628,450.00246898271143 L 264.0744217596948,453.50622135587037 L 265.98987880535424,457.0564137836918 L 266.62618908658624,458.86687865201384 L 267.0862903408706,459.4650081973523 L 267.90533589199185,459.8806846393272 L 267.90533589199185,459.4565829783678 L 267.6312329880893,459.4565829783678 L 268.4861729517579,458.0723767289892 L 270.21563160791993,457.35948046762496 L 279.3426050283015,457.35948046762496 L 280.8469077590853,456.627124956809 L 281.77037343010306,457.15743242017925 L 282.9222581461072,456.87122235726565 L 283.4345695003867,456.10252725705504 L 282.43931496329606,455.17700413707644 L 281.4146922957152,454.95268059149384 L 277.12041378580034,455.32282405067235 L 275.4072707761079,455.9706918047741 L 274.35001677647233,456.1137475501746 L 274.036756336689,455.97349674254656 L 273.3808672875166,455.17700413707644 L 271.52740970626473,455.3733018543571 L 271.1390972789377,455.154570966959 L 270.8943625446409,454.2349648270756 L 270.64636473171413,454.7451971285045 L 269.8240560591221,454.2349648270756 L 270.0622645094991,453.3829141696915 L 270.64636473171413,453.2484033321962 L 270.391840595752,453.2091721734032 L 270.34615677781403,452.8224945701659 L 269.5760582052171,453.24279879778624 L 268.7145919986069,453.16153509914875 L 267.990177243948,452.67400197312236 L 267.6312329880893,451.8840406574309 L 266.97860706038773,452.7104240003973 L 266.18566660024226,453.1110967276618 L 264.7335739284754,453.2484033321962 L 264.08094800263643,452.93456958513707 L 263.5392685160041,452.13613196555525 L 263.27821813710034,451.0858997059986 L 263.50011094100773,450.00246898271143 L 262.69085483439267,450.2208014559001 L 262.40696256794035,450.47274447605014 L 262.1328596621752,450.00246898271143 L 262.39717316254973,449.1796749457717 L 262.20138536952436,448.3655124939978 L 261.6988634187728,447.7697276743129 L 261.0364481266588,447.6159068858251 L 261.74128411524,445.34033679869026 L 261.28770910203457,444.7982718767598 L 263.03674656525254,443.57760885357857 L 264.01242229528725,443.3234866913408 L 264.87062538042665,443.8624762604013 L 264.24736762419343,443.83733974583447 L 262.95190517418087,444.7982718767598 L 263.5914785768837,446.20114808063954 L 264.5997856389731,447.18525322619826 L 265.44167303852737,447.6159068858251 L 265.69293401390314,449.1041242191568 L 266.37166498973966,449.68339797854424 L 268.97564237751067,450.94309827685356 L 268.182701876387,451.4135302808136 L 268.182701876387,451.8840406574309 L 268.92669543996453,452.1613423395902 L 269.5238481462002,451.8840406574309 L 269.5238481462002,452.35462930146605 L 270.2743679508567,451.68238374311477 L 271.468673363328,451.99887945782393 L 273.65497019328177,453.2484033321962 L 273.3808672875166,454.2349648270756 L 273.798547886312,454.54333600588143 L 274.26843854412436,454.7339822696522 L 275.27021932415664,454.7451971285045 L 275.27021932415664,454.2349648270756 L 274.66654033586383,454.0779887987301 L 274.2619122620672,453.53144395537674 L 273.9290730562061,451.8840406574309 L 274.43159500695765,452.7580534014851 L 274.75138172879815,453.76686572190374 L 275.5214802995324,452.50310511887074 L 275.971792191267,452.2901988681406 L 276.4155777990818,452.8224945701659 L 276.88546845689416,452.40225277561694 L 277.3162015415728,452.42186268698424 L 278.0601951032877,453.2484033321962 L 278.3636661376804,452.22016739845276 L 279.30018433369696,450.9010991929099 L 279.450288310647,450.7751058228314 L 279.9984940774739,450.94309827685356 L 280.7685926500708,450.89269947912544 L 281.1732207238674,451.01029802672565 L 281.6235325746238,451.4135302808136 L 282.73952291719615,453.76686572190374 L 283.76414558663964,454.7844496211037 L 285.35655282996595,455.8192288633436 L 286.9489600341767,456.4167130794376 L 287.96705645881593,456.1137475501746 L 287.4580082669854,455.6172909773886 L 287.438429499045,454.7956646801904 L 287.74190053343773,453.92102156113833 L 288.2150543127209,453.2484033321962 L 289.9510392509401,452.34622526727617 L 290.42745615169406,451.8840406574309 L 289.6704101059586,450.52593532484025 L 289.8335666079074,449.46790548507124 L 290.9756619203836,447.6159068858251 L 291.20408100634813,445.54154199454933 L 291.64786661602557,445.3068040134385 L 293.43932477384806,445.3068040134385 L 293.43932477384806,444.7982718767598 L 293.0640648715198,444.7870964007452 L 292.3461763598025,444.37363372184336 L 293.6579544581473,444.4993423447013 L 295.75288361124694,443.3011473575607 L 297.14950310252607,442.9660787153989 L 298.1773888915777,442.402135993354 L 299.4989563934505,439.6761357160285 L 300.5855785254389,438.71415202878416 L 299.4891669880599,437.7775774197653 L 300.49094776809216,437.785938302055 L 301.985461095348,438.5524593060836 L 302.77513847500086,438.2458259938285 L 302.4618780352175,437.44316145963967 L 301.9528298024088,436.8413122519851 L 302.4259836226702,436.5515785505995 L 302.98397875390947,436.94161160103977 L 303.34618613123894,436.8413122519851 L 304.65470110811293,433.9174751602113 L 305.24532757140696,433.09934082999825 L 305.9860579725355,432.6096862414852 L 306.929102409631,432.59299493487924 L 306.929102409631,433.06038789916784 L 305.81311210617423,434.4602455748245 L 305.81311210617423,434.9279464157298 L 310.76327966339886,435.9053562656045 L 311.9510588347912,436.4568643141538 L 314.0003041718155,437.8611875595525 L 315.14239952526987,438.2458259938285 L 315.32513479329646,437.88905815407634 L 315.25334592722356,437.5880702221766 L 314.59419375658035,437.26482247933745 L 314.59419375658035,436.8413122519851 L 315.8178673814982,436.20616554189473 L 318.9994187075645,433.5250751879066 L 318.9994187075645,433.06038789916784 L 318.4218447674066,432.05614445731044 L 317.5995360966772,429.53736374061555 L 316.5129139646888,428.86217681504786 L 316.9958571474999,428.48992019239813 L 318.57847498729825,426.3018159950152 L 320.22309229150414,425.4414755208418 L 320.6440360099077,424.165321293287 L 320.6244572028518,423.34444680809975 L 320.78108742274344,423.22799061238766 L 321.3553982414305,423.2834453545511 L 322.92496355623007,422.4933173228055 L 322.986963018775,421.84474486205727 L 322.73896516487,421.07995209656656 L 322.2886533141136,420.4400119651109 L 319.4170992653817,418.0643516695127 L 318.9994187075645,417.18989973701537 L 319.35836296342313,416.35997240804136 L 321.19224177859724,415.56623516138643 L 321.4467658754438,414.82248031534255 L 322.0341291781515,413.96560608409345 L 322.68022886291146,413.3852894017473 L 323.11096194572747,413.4764742255211 L 326.06083106435835,410.9989445209503 L 327.38892480917275,410.69527095742524 L 328.19491783343256,409.72925209999084 L 329.4544858317822,409.72925209999084 L 330.9489991981536,408.92080821841955 L 334.1729711815715,408.68080248869956 L 335.30201401002705,409.02288576122373 L 335.7784309498966,409.9610667563975 L 336.0819019842893,410.1708200741559 L 336.7247385084629,410.04662214778364 L 337.29904932715,409.48090022895485 L 337.41652197018266,408.3828924084082 L 337.09999841079116,407.8781715100631 L 335.2236988991499,406.5299294684082 L 336.31684731319547,406.03380465041846 L 337.27516856603324,405.9813209110871 L 337.32337621971965,404.07112644519657 L 337.15760926157236,403.0185060054064 L 337.76265873759985,401.6936657363549 L 338.60392619110644,399.0667787929997 L 338.59978201054037,394.4337035557255 L 338.88987424969673,393.04315457493067 L 339.86375526338816,391.53139557130635 L 340.28231688030064,390.1248541465029 L 341.12358433380723,388.7016094997525 L 341.54214591160417,385.2178238099441 L 342.6527847032994,380.03996956534684 L 342.86413764208555,377.5957630770281 L 344.4016264118254,375.78908399119973 L 343.3572943788022,373.72224006429315 L 342.2425114456564,372.45586576964706 L 341.95656338892877,371.6378636714071 L 341.84467068873346,370.74749229475856 L 342.3129623848945,367.74646889045835 L 340.9992590546608,363.4068407667801 L 340.4605163782835,362.20188038237393 L 339.229696566239,360.9078432396054 L 336.8675170633942,359.01866450347006 L 334.42659821920097,357.7381040090695 L 332.4871245138347,356.29127458576113 L 333.3076711073518,352.0169694488868 L 333.1419041082263,350.7601183084771 L 332.7274866718799,349.95512886624783 L 331.6624337788671,349.02683812659234 L 332.1224371958524,348.09370108507574 L 332.81865851022303,347.54493803344667 L 333.6599259246141,347.2808829853311 L 334.55092345923185,347.21573029085994 L 335.3548932932317,346.8591310791671 L 336.66445252485573,345.3063810542226 L 337.7585145570338,344.7187477936968 L 342.0187260080129,341.5667600193992 L 342.6403522025794,340.83618214540184 L 344.01207397319376,338.120806097053 L 344.4306355919689,337.71577040385455 L 345.1931637059897,337.3586341999471 L 346.3452442586422,335.77682942710817 L 348.7447213009,334.8223576564342 L 351.30167702399194,331.938660139218 L 352.54907355457544,330.9087340431288 L 351.4260022621602,328.5416351519525 L 351.11518916487694,327.01061330735683 L 351.8611405994743,326.3262581070885 L 352.0476284585893,325.62334526423365 L 351.3845605030656,324.0785575537011 L 350.41482366994023,322.5328933149576 L 348.33859222382307,320.6958326473832 L 348.56237766332924,318.08584431093186 L 349.51553777605295,315.22044987697154 L 350.35680522955954,313.3117575868964 L 350.11644311249256,312.1190383769572 L 351.01572896540165,311.10459613986313 L 352.37501819618046,310.40366939269006 L 353.51466620899737,310.13790324050933 L 354.6377375405282,309.6453691823408 L 355.2593636959791,308.49475568253547 L 355.24693119712174,307.1552034895867 L 354.46368222124875,306.11713685654104 L 354.46368222124875,305.71147863939404 L 355.0438666585833,304.80064415186644 L 354.8905321992934,303.8664479954168 L 354.4595380425453,302.6775977322832 L 354.2150317430496,300.9829751038924 L 354.61701668053865,300.0466299103573 L 357.22370248287916,298.0871846303344 L 356.1793704498559,296.61088353581727 L 355.80639473348856,294.8120209798217 L 354.7247652001679,292.6020184708759 L 354.583863241598,288.62890183832496 L 354.2440409641713,287.35723554249853 L 352.88889587298036,285.19482743833214 L 350.5888790283352,282.8445214945823 L 350.06256885267794,281.7195267220959 L 350.18274987116456,280.3453072803095 L 350.8416736461222,279.33516517374665 L 351.5669041816145,278.8310622954741 L 352.12222357839346,278.0842788564041 L 352.2797022163868,276.37543172296137 L 352.69411965459585,274.7294553630054 L 353.59754972718656,273.6660849498585 L 355.5453117545694,272.0400089779869 L 356.0633335709572,270.9225009167567 L 356.4570301491767,269.282924676314 L 356.52333694696426,267.5825414378196 L 356.0509010720998,266.2899757400155 L 355.2717962358147,265.05131528154016 L 354.944406459108,263.79818331170827 L 355.1640476770699,262.65383503213525 L 356.0509010720998,261.7246926650405 L 358.6700193732977,260.84078186936677 L 360.43129354156554,259.702577075921 L 362.31274880841374,259.1436205133796 L 363.2203230615705,258.707841174677 L 364.58790065161884,257.4341397918761 L 365.0023180898279,256.5481954133138 L 364.6624958124012,255.74392952676862 L 365.2261035274714,250.11524565238506 L 366.07980348169804,248.36459986120462 L 366.98737773671746,247.29251193162054 L 367.57170631177723,246.03533587791026 L 367.36449755355716,244.1762292655185 L 367.6753106918186,243.79892249125987 L 366.98737773671746,242.44399534352124 L 366.4444908387959,240.73922735173255 L 366.1171010620892,238.94458175916225 L 365.9886316433549,236.508849946782 L 365.1970943082124,235.34536243788898 L 364.99817395024,232.75762861594558 L 361.1855333354324,223.3806377593428 L 359.75993726588786,221.7903060996905 L 359.19218537025154,220.85096611920744 L 359.18804118968546,219.6690034624189 L 358.55398249439895,217.96583697851747 L 357.783166019246,216.7817451916635 L 357.1366747841239,216.6046640528366 L 356.26639815047383,216.63745609298348 L 354.7786394599825,216.9719551866874 L 352.6733987946063,218.45798105932772 L 351.2809561640024,218.85175512451679 L 351.0861799456179,219.32763537950814 L 351.22708186507225,220.46349306590855 L 352.1388002987951,222.9073919709772 L 351.9233031794429,223.6271499581635 L 351.4384347628802,223.63701078947634 L 349.2213013973087,222.71351446583867 L 348.7612980213016,223.07827753014863 L 349.7724766135216,225.53420441318303 L 349.8470717333257,226.49148294515908 L 349.722746534273,227.11338660307229 L 348.931209160015,228.20614788401872 L 348.4380523841828,228.5946362335235 L 347.35642285086215,228.8679255824536 L 346.8591218944639,229.21698245871812 L 346.482002036646,229.73899814020842 L 346.0261428002268,231.04526475071907 L 345.67803216166794,230.1639244388789 L 345.22217296622694,229.9267486911267 L 343.7675676755607,230.00909928046167 L 342.6444963440299,229.5100903129205 L 342.2010696865618,229.51997090503573 L 341.7659313492477,229.75711394567043 L 340.99097073450685,230.73553018644452 L 339.4990678653121,231.2248598197475 L 338.22266211360693,231.02219829056412 L 337.2612136397511,230.0403930703178 L 336.69760588370264,228.20614788401872 L 336.2500350475311,227.55768361408263 L 336.71832678467035,227.24831419810653 L 338.0734718348831,227.07060601282865 L 338.8732975292951,226.74483535345644 L 338.47131259180605,226.37962002120912 L 338.4340150114149,225.71182037051767 L 339.45762614533305,224.69560664426535 L 340.9370964746922,224.25831461325288 L 342.00629350729287,223.63701078947634 L 341.7659313492477,222.05311192572117 L 340.5889857970178,221.05128984339535 L 337.4435573183,221.3008924992755 L 336.001384569332,220.9987445930019 L 334.3437147401273,218.9994339486584 L 328.09429950267076,216.12266357801855 L 325.8564452379942,216.26037000212818 L 325.07319626398385,216.08987729530782 L 323.6185910142958,214.68696324061602 L 322.3836269825697,214.71645694598556 L 322.01479544490576,214.2609758209437 L 321.84488426707685,213.64504077099264 L 321.9692095462233,212.3284170832485 L 321.695693988353,211.93550836015493 L 321.21911393105984,211.84711103327572 L 320.0587450582534,211.12038855906576 L 319.33765866421163,210.9731016047299 L 317.497645156458,211.1793053233996 L 316.6315127015114,211.09093058295548 L 314.33356788754463,210.37093782052398 L 310.7322802133858,210.39057169668376 L 308.91298756562173,210.04699803050607 L 307.2718944568187,209.05249475874007 L 307.73604201339185,208.08121274318546 L 307.5785633753985,207.2279241224751 L 307.0439648386091,206.5350117487833 L 306.37675278261304,206.02850349619985 L 306.60882650129497,205.52208169922233 L 306.571528961882,205.13987200241536 L 304.55746013484895,203.12510033790022 L 303.8115087412298,202.9390395572409 L 302.91636698693037,203.37972861994058 L 301.8720349930227,204.90795674547553 L 301.3830223977566,205.08760782890022 L 301.0059025399387,204.51929434854537 L 299.5015671700239,203.44828618504107 L 298.85093175433576,201.76745071541518 L 298.0096643399447,201.33678749296814 L 296.6918167900294,202.09048902988434 L 295.9127119947225,202.16228005290031 L 294.57828780449927,198.58462611213326 L 294.0022475477308,197.5385594572872 L 293.0159339942038,196.79903945326805 L 290.9024049695581,196.9228229271248 L 289.01680556312203,196.3951501082629 L 287.6492279320955,196.8381284121424 L 286.9820158369839,196.5254309810698 L 286.4598498400301,192.80815079528838 L 284.69443149119616,190.95124821271747 L 283.3227097224444,191.0292733516544 L 279.27385116927326,193.3970076944679 L 278.10104975663126,192.85044046863914 L 276.7417605277151,192.91224957536906 L 276.08698093146086,192.67477946169674 L 274.2386791035533,190.35312309861183 L 273.7165130674839,190.29461729060858 L 271.57397486269474,190.6846776753664 L 268.5735924821347,190.46038674935699 L 266.9573643747717,189.9826058037579 L 265.54834502376616,188.7673721127212 L 265.2168110664934,187.85464786272496 L 265.2168110664934,187.03635673504323 L 264.5495989713818,186.87727063894272 L 262.4650791641325,185.35826304275542 L 261.22182681411505,183.0909272087738 L 260.3183967396617,182.2966316509992 L 259.99100696109235,181.80719131790102 L 259.88325844332576,180.81235122680664 L 259.09172110818326,179.79517002310604 L 258.87622398883104,179.20575203280896 L 258.75189878977835,178.09200456924736 L 259.1041536089033,176.08895083889365 L 258.5446900315583,175.68138520605862 L 257.860901216045,175.76871603820473 L 257.4547721389681,176.40274949092418 L 256.69638820551336,179.22518150508404 L 255.71836301125586,180.31667508929968 L 255.7142188306898,180.58232139702886 L 256.219808107242,181.1655301321298 L 256.1079154089093,181.68079266883433 L 255.82196735031903,181.83960208203644 L 254.66988683864474,181.86877209693193 L 254.08555822260678,182.05028081219643 L 253.63798738643527,182.44574854616076 L 253.4805087465793,182.93529351893812 L 253.4929412472993,184.0119261490181 L 253.25672330893576,184.59256085008383 L 252.4859068337828,185.14086158480495 L 249.55183125287294,185.35826304275542 L 250.47598218731582,184.3914344161749 L 250.7992277853191,183.83354148920625 L 250.94841806404293,182.93853577878326 L 250.87382294423878,182.13455642666668 L 250.19003416970372,181.5706032095477 L 249.68858899362385,180.81235122680664 L 250.1030064690858,180.0672482708469 L 252.08392193727195,178.82690181117505 L 253.51780628599226,177.04662502929568 L 253.82447524368763,176.3024597093463 L 253.94051212444901,175.36119402199984 L 253.6587082464248,173.9385365182534 L 253.68357328511775,173.00124548003078 L 254.03168396279216,172.05455625709146 L 255.82196735031903,170.65930062998086 L 256.1783663481474,170.0426239836961 L 256.3980076070875,168.43856771104038 L 262.5065209250897,165.1814578352496 L 263.1198587603867,164.57557428628206 L 264.59518487006426,164.42090020421892 L 265.270685326308,163.77651077788323 L 265.3742897044867,162.8649361152202 L 265.05104410648346,161.34840597584844 L 267.2640333324671,160.16083134431392 L 267.512683769688,159.71038394328207 L 267.38835853151977,158.5009450679645 L 267.0651129335165,157.54917606059462 L 266.1409619990736,155.83610856160522 L 265.84672558121383,154.87554676737636 L 265.04275574721396,155.12288617063314 L 264.7982494495809,154.24604729376733 L 264.6490591708571,151.92189497314394 L 264.0108562540263,151.2737638959661 L 262.3531864657998,150.5680373199284 L 261.8807505480945,149.63480763603002 L 262.49408838525414,148.18582844547927 L 263.32292329892516,146.9906248152256 L 264.5123013909906,146.04889496602118 L 266.4020450171083,145.1170644108206 L 266.73357897624373,144.4607930276543 L 266.76258815452456,143.63825478218496 L 266.42276587709785,142.87992605101317 L 266.8454716745764,142.63998836372048 L 266.6258304156363,142.00344614684582 L 267.0361037142575,141.50454211607575 L 267.9934080466628,140.97694500070065 L 268.41611380316317,140.51017841789871 L 268.6979176811874,139.8389284107834 L 269.04602839984,137.74303248059005 L 269.8707191348076,135.98692325688899 L 270.3058574311435,135.5305021489039 L 271.1802782844752,135.45390677824616 L 271.4786588437855,135.2113674385473 L 271.6485699824989,132.14620056189597 L 271.84749034047127,131.14535215497017 L 272.30334957689047,130.25315520726144 L 273.08659855276346,129.60010647121817 L 274.9349003788084,128.72747109085321 L 275.7430144343525,127.8901052577421 L 277.0567177645862,124.9404752748087 L 277.6907764598727,124.28221234865487 L 278.48645801469684,123.99287633504719 L 280.8486375194043,123.64634531643242 L 281.59873309358954,123.7480750773102 L 281.4205335546285,124.53977646585554 L 281.9717088099569,124.71467818319798 L 283.50505340099335,124.29175135213882 L 284.1846980359405,123.92611034866422 L 285.89209794439375,122.25744014047086 L 286.5883192587644,121.96829741727561 L 287.0483226366341,120.3007045974955 L 288.3288725670427,118.77050274051726 L 288.83446188271046,118.48169236350805 L 292.58908397704363,113.36700541526079 L 293.7535970695317,111.1310469713062 L 294.8891009017825,110.46627756673843 L 297.3134429845959,110.35233167279512 L 298.11741285957396,110.04216736368835 L 298.6064254567027,109.6181163303554 L 299.8248127680272,107.98259300552309 L 301.52806849591434,106.24363961070776 L 301.97563937306404,105.17862634826452 L 302.00050441361964,103.46337978448719 L 302.57654466852546,102.52561498899013 L 303.72862522117794,101.44296637177467 L 304.99674261175096,100.53106249310076 L 305.9333260450512,100.07994453515857 L 306.72900759987533,101.81537932809442 L 307.2843269556761,102.07104509044439 L 308.2043337095529,101.87534836959094 L 310.2722768355161,100.51844288408756 L 311.00165155157447,100.60047115199268 L 311.10111175104976,99.44596856087446 L 311.52796172723174,98.33603971637785 L 312.15373206324875,97.38409318868071 L 312.837520878762,96.7002621004358 L 313.5959048140794,96.34107594750822 L 315.0898797530681,96.10479224938899 L 315.65348750911653,95.78977585118264 L 316.5859267618507,94.33167364541441 L 318.52125628851354,90.46147786732763 L 319.30450526438653,89.64715901296586 z" /><path fill-rule="evenodd" fill="#D2EBD9" stroke="#A6A6A6" stroke-width="0.25" opacity="1" d="M 335.11601565778255,422.1800992935896 L 334.4348865803331,420.3434512829408 L 333.7220885846764,420.002248050645 L 334.42245404049754,419.1371121024713 L 334.74574907682836,418.0752452565357 L 330.1984793934971,417.549610061571 L 329.30438189581037,417.6824376946315 L 328.63217720016837,418.1584543287754 L 327.69892212562263,417.10136257857084 L 326.52745860256255,416.4152933554724 L 324.22695224918425,415.79852559790015 L 321.69150060787797,415.75704381335527 L 320.28182863257825,416.18018678948283 L 319.54762447439134,417.18989973701537 L 320.0664620716125,417.3835842590779 L 320.8985601067543,418.02283683232963 L 322.19075939804316,418.30514996219426 L 323.5808526035398,419.11072668340057 L 323.9528493862599,419.5149851804599 L 324.2465310562402,421.48171972483397 L 322.758543971926,424.3151009622961 L 322.8629640918225,426.06311476416886 L 324.88284129835665,425.9382209321484 L 325.59746668860316,425.6412732694298 L 325.32336378470063,425.13625600747764 L 325.42125770263374,424.75616489723325 L 325.10147098079324,423.42485984042287 L 325.0492609217763,422.3436335865408 L 325.6757817994803,423.46645371150225 L 326.19135627523065,423.7437615217641 L 327.8098685275763,423.74098831694573 L 327.4378717467189,423.39990382362157 L 327.2681890428066,422.7677579186857 L 328.63217720016837,422.3436335865408 L 328.30912735685706,423.22799061238766 L 328.8214387111366,424.9032014515251 L 328.7496498450637,426.7209795108065 L 328.19491783343256,427.8566404879093 L 327.2681890428066,427.4678545696661 L 326.94187607988715,428.57881283573806 L 325.95967406593263,430.2210500082001 L 325.32336378470063,430.7297527315095 L 324.53042332455516,430.9215823439881 L 323.7309565804899,430.7464330792427 L 323.3198022246361,430.2238295497373 L 323.6787464823574,429.3706359965727 L 323.6787464823574,428.86217681504786 L 322.9739104937762,428.25103494152427 L 322.5627561789006,427.2123956112191 L 322.318021485582,427.06801597587764 L 320.9181388746947,426.53498542122543 L 321.002980267629,427.45119347888976 L 321.62297486141324,428.4204747751355 L 321.73392126336694,428.86217681504786 L 321.5250809844583,429.69576418958604 L 321.2248730715364,429.7874737903476 L 319.5965714138001,428.9621943933889 L 318.441423535347,427.61225453950465 L 317.6354305502027,427.9288494763896 L 317.95521723106503,429.25115382578224 L 319.0451025236398,431.50271066464484 L 319.2735215704888,433.29133075103164 L 318.9211035966873,434.34333236608654 L 317.28301253542304,436.0724685816094 L 316.7870168276131,436.8413122519851 L 317.15901360847056,437.61593813076615 L 317.7757451236248,438.27091292850673 L 318.5197386443615,438.56361020356417 L 319.2735215704888,438.2458259938285 L 320.9181388746947,434.4602455748245 L 321.9819191172719,433.3720260504633 L 324.62505408003926,431.8225210355595 L 326.1391461752355,431.23854667227715 L 327.3595566377044,430.4712202558294 L 334.40791651047766,422.70122446026653 L 335.11601565778255,422.1800992935896 z" /><path fill-rule="evenodd" fill="#D2EBD9" stroke="#A6A6A6" stroke-width="0.25" opacity="1" d="M 37.916700599715114,399.5177802005783 L 37.01607685722411,399.3857966577634 L 34.881990088149905,398.59402353689075 L 34.881990088149905,398.1789802145213 L 35.67493058927357,397.755753159523 L 36.24924140609801,396.7116950014606 L 35.37145955488086,397.5414153439924 L 35.028830943629146,397.6733136391267 L 33.785578552633524,397.211696295999 L 33.064426919445395,397.5716414889321 L 32.51295802928507,398.3631310556084 L 32.35959093272686,399.1575895594433 L 32.82621846906841,399.5177802005783 L 35.88050774671137,400.45833967998624 L 37.378284234553576,400.5738683314994 L 37.916700599715114,399.5177802005783 z" /><path fill-rule="evenodd" fill="#D2EBD9" stroke="#A6A6A6" stroke-width="0.25" opacity="1" d="M 40.95141110941768,404.1383004123345 L 42.436135072261095,404.8765156073496 L 47.898613944649696,405.58736607432365 L 49.43881112895906,405.10242564138025 L 40.95141110941768,404.1383004123345 z" /><path fill-rule="evenodd" fill="#D2EBD9" stroke="#A6A6A6" stroke-width="0.25" opacity="1" d="M 51.351005053147674,406.5299294684082 L 53.188146989792585,407.61343563441187 L 55.351601891219616,407.97745382227004 L 59.89387825317681,407.8781715100631 L 59.84819443523884,407.4783195173368 L 57.87073792517185,406.72840363066643 L 52.97278042882681,406.07790109701455 L 51.351005053147674,406.5299294684082 z" /><path fill-rule="evenodd" fill="#D2EBD9" stroke="#A6A6A6" stroke-width="0.25" opacity="1" d="M 60.70966064184904,407.8781715100631 L 61.37207597307861,408.34427675325423 L 62.191121485084295,408.4711588444188 L 62.95795693434775,408.3001451585442 L 63.476794531568885,407.8781715100631 L 63.349532483145595,407.61343563441187 L 62.90248371474445,407.4148998996243 L 61.297023985534906,407.91402309481055 L 60.70966064184904,407.8781715100631 z" /><path fill-rule="evenodd" fill="#D2EBD9" stroke="#A6A6A6" stroke-width="0.25" opacity="1" d="M 90.92624046094716,407.4148998996243 L 91.4287624116987,408.28911240026355 L 92.21843979135156,408.63666568137705 L 93.11906353197992,408.4904675008729 L 93.96747725456953,407.8781715100631 L 92.99506460502744,407.715466350317 L 92.1597034484148,406.95170351769775 L 91.35044730082154,407.2329209186137 L 90.92624046094716,406.95170351769775 L 90.92624046094716,407.4148998996243 z" /><path fill-rule="evenodd" fill="#D2EBD9" stroke="#A6A6A6" stroke-width="0.25" opacity="1" d="M 66.75950285606086,410.19290028046817 L 70.33589289337397,410.2260208763182 L 71.14188587851822,409.72925209999084 L 71.16146468557417,409.4339917311445 L 70.89715118519962,409.3098259251565 L 67.97338707745075,409.40088034328073 L 66.61918832361698,409.06702848430723 L 66.5115050431341,407.8781715100631 L 65.33677839674056,407.82025844883174 L 64.9778341408819,408.14293198287487 L 64.84078268893063,409.0559927560389 L 65.04309672489762,409.8341182935983 L 65.5390924345702,410.14598005637527 L 66.75950285606086,410.19290028046817 z" /><path fill-rule="evenodd" fill="#D2EBD9" stroke="#A6A6A6" stroke-width="0.25" opacity="1" d="M 72.51240031793714,410.19290028046817 L 73.530496744439,411.4738445132971 L 75.21427158266306,411.85216452833265 L 78.60466322861612,411.62019596993923 L 78.60466322861612,411.15907636191696 L 78.03361553139985,411.15907636191696 L 76.01373832672834,410.11286039091647 L 74.86185360886157,410.04386226274073 L 73.87965159676969,410.69527095742524 L 73.16176308505237,409.90035159513354 L 72.82239763624966,409.9058710895479 L 72.51240031793714,410.19290028046817 z" /><path fill-rule="evenodd" fill="#D2EBD9" stroke="#A6A6A6" stroke-width="0.25" opacity="1" d="M 81.04874727502465,411.15907636191696 L 80.27538554184139,411.71684721671045 L 80.451594568789,412.1476757787168 L 81.16621991991997,412.41559560317546 L 82.66399640776217,412.44874205999076 L 83.26114911399782,412.2581551177427 L 84.32819247804582,411.6036274814978 L 83.5156732108444,411.62019596993923 L 81.82863525114954,412.01510621700436 L 81.1074836179614,411.97644122038037 L 81.04874727502465,411.15907636191696 z" /><path fill-rule="evenodd" fill="#D2EBD9" stroke="#A6A6A6" stroke-width="0.25" opacity="1" d="M 221.46447584219277,425.13625600747764 L 222.0551022645086,426.6876662578434 L 223.50719493627548,427.93995875120163 L 225.16812788508832,428.487142348662 L 226.36569642089307,427.9288494763896 L 225.17791729047894,424.3761246390641 L 224.7537104487419,423.74098831694573 L 224.257714740932,423.7243490740657 L 224.2250834479928,424.1986049739644 L 224.50244947336614,425.388753448613 L 224.32624044641852,426.17968725040555 L 223.99340124055743,426.18801408819854 L 223.77477155812085,425.60797268059105 L 223.95424370653927,424.67016594670713 L 223.3668803628534,424.17364216037095 L 222.7240438386798,424.20692593883723 L 221.46447584219277,425.13625600747764 z" /><path fill-rule="evenodd" fill="#D2EBD9" stroke="#A6A6A6" stroke-width="0.25" opacity="1" d="M 227.5926331654191,431.50271066464484 L 227.8112628478557,432.17018189746886 L 230.53597604110837,433.4888991517946 L 231.09723433479667,434.0343708116561 L 230.4185033570975,433.0715172830969 L 228.565045773983,431.36367393657565 L 228.0364187732339,430.2627435522154 L 227.8112628478557,430.2627435522154 L 227.5926331654191,431.50271066464484 z" /><path fill-rule="evenodd" fill="#D2EBD9" stroke="#A6A6A6" stroke-width="0.25" opacity="1" d="M 124.7289997190237,462.32542637642473 L 124.45489681512117,462.03306994307786 L 124.47773870266974,461.3416549284011 L 123.74027142487466,460.6279325960204 L 122.65038617141545,458.9988494012505 L 121.7138679753989,458.5131151927635 L 119.97135679423809,458.37835981696844 L 119.14578500203788,458.6787608116865 L 118.7019993942231,459.4565829783678 L 119.13925875909626,459.6924992231652 L 119.21104758605361,460.0829276945442 L 118.7019993942231,460.8246097471565 L 119.97135679423809,462.05274678301066 L 121.3810287695378,462.70216114539653 L 122.96690973080695,462.7949468707666 L 124.7289997190237,462.32542637642473 z" /><path fill-rule="evenodd" fill="#D2EBD9" stroke="#A6A6A6" stroke-width="0.25" opacity="1" d="M 216.6513596959412,459.2206864506006 L 219.00081298686564,454.7451971285045 L 213.9592777956277,455.59765887632966 L 213.22507367655635,455.17700413707644 L 213.58075477182865,454.77323453780264 L 211.96876876056194,454.66669384762645 L 210.91804104298353,454.84332931414247 L 210.46446602977812,455.4125630753115 L 210.54278114065528,456.81510614976287 L 210.35678274929523,457.35386784002185 L 209.78247197158635,457.56996260676533 L 208.73174425400794,457.6036411859095 L 208.30101113021374,457.4661227874458 L 208.0008032154292,457.0564137836918 L 207.7038584239781,457.0564137836918 L 207.43301868066192,457.8478230200708 L 206.74123521894217,457.5615430427715 L 206.63028877601027,458.5131151927635 L 207.75280536152422,461.3023111661896 L 209.32563383877277,462.84555853996426 L 211.2639327738434,463.1745564574376 L 214.6836925894022,461.69015188049525 L 215.7083152588457,460.8049414008856 L 216.6513596959412,459.2206864506006 z" /><path fill-rule="evenodd" fill="#D2EBD9" stroke="#A6A6A6" stroke-width="0.25" opacity="1" d="M 292.3461763598025,467.47474076226354 L 291.3639743477106,466.6637330604717 L 291.13229214027524,465.53209146205336 L 291.09313460439444,464.1927248118445 L 290.7080852985382,462.75839452445507 L 289.846619091928,461.87565975356847 L 289.6051475200802,461.3416549284011 L 289.3310446161777,458.5131151927635 L 289.05694175325334,458.5131151927635 L 289.17115127667785,461.04378037154675 L 290.42745615169406,465.582752276212 L 290.6982959359884,467.3339240886271 L 290.9919776059687,467.8183630313724 L 291.64786661602557,467.99300675746053 L 292.6529105566442,467.94511947315186 L 292.90090836957097,467.5395187744871 L 292.894382128492,466.7707276623696 L 292.59743733517826,467.00725646782666 L 292.59743733517826,466.061260368675 L 292.3461763598025,466.061260368675 L 292.3461763598025,467.47474076226354 z" /><path fill-rule="evenodd" fill="#D2EBD9" stroke="#A6A6A6" stroke-width="0.25" opacity="1" d="M 314.59419375658035,453.2484033321962 L 315.66123716160655,451.2875140700489 L 316.34649434126914,450.3859615745023 L 317.328696353361,450.00246898271143 L 316.2714423518628,448.96422083489597 L 315.87334056198597,448.0718000577763 L 315.5927114151418,445.42975952569395 L 314.3005121257156,445.7818891359493 L 314.77040278352797,445.7818891359493 L 315.14239952526987,445.99151080846786 L 315.3055560272187,446.45273334067315 L 315.14239952526987,447.18525322619826 L 314.8682966604829,447.18525322619826 L 314.4571423456073,446.7378902565688 L 313.84041083045304,446.5030530076474 L 313.19431118667126,446.4946663463488 L 312.7048417609185,446.72111556492746 L 312.7048417609185,447.18525322619826 L 314.1928288452327,447.82846143562347 L 314.80956031754613,448.32075432129204 L 315.14239952526987,449.1041242191568 L 313.05725973472,448.9614228438586 L 312.1272678207606,448.667648518458 L 311.33432731963694,448.1249457625672 L 313.5467291995883,449.6861966829747 L 314.3005121257156,450.00246898271143 L 314.3005121257156,450.47274447605014 L 313.223679356277,450.5763275846839 L 312.66242106445134,450.5203362554312 L 311.7291659899056,449.6022365409881 L 310.6262282114476,450.47274447605014 L 306.6321576181799,450.00246898271143 L 305.91426910459995,449.54626449849457 L 303.79323490150273,447.66624731663615 L 302.8795585948974,445.89927536435425 L 301.89735662192106,445.6924552116543 L 301.01631164737046,445.2285623466596 L 300.85968142934144,443.3932982357219 L 301.4078871961683,443.8624762604013 L 301.41767656058073,444.21161754149944 L 301.156626181677,444.37363372184336 L 303.0720832683146,444.7088691005483 L 303.34618613123894,444.58315117191523 L 303.63986780308187,443.01633642893285 L 303.55828957259655,442.2960603069514 L 302.9252424109727,441.9862303780392 L 301.7798839379102,442.16765820235014 L 300.51052653603256,442.6198827335611 L 299.08780203573406,443.5580602325499 L 299.40758875757456,443.92112897336483 L 300.0373727567494,445.7818891359493 L 299.4500094540417,445.42975952569395 L 298.940961221233,444.7982718767598 L 299.21506412513554,444.37363372184336 L 297.9913905002177,444.3624599231407 L 297.3387646134943,443.9267149968073 L 296.3174050655216,444.7982718767598 L 295.02194261550903,445.2537112208083 L 294.5846832487732,445.84337654616684 L 294.8098391741514,446.72111556492746 L 294.22573899291456,446.89725519903004 L 292.9988022875041,446.29339343495667 L 292.59743733517826,446.2458727294579 L 292.3233344722539,446.7770317271352 L 292.5680691637099,447.24117856286466 L 293.1032224074006,447.4425189178437 L 293.71342763863504,447.18525322619826 L 293.71342763863504,447.6159068858251 L 291.2269229348749,449.5322716264054 L 291.7783918250352,451.01029802672565 L 292.5680691637099,452.22857112716883 L 293.58616559021175,452.6908120866865 L 294.8098391741514,451.8840406574309 L 295.08394207805395,452.35462930146605 L 295.5505696143955,451.90084600355476 L 296.10530162602663,452.0016804561019 L 297.2963439170271,452.8224945701659 L 296.6665599178523,452.8925409000367 L 296.19014297798276,453.35489048436284 L 295.99435522407293,454.0275340657681 L 296.18035361357033,455.17700413707644 L 295.63214784674346,455.2302836040035 L 295.08067895658314,455.93703262507915 L 294.67278776317835,456.1137475501746 L 292.8911190070212,455.642532363534 L 293.8863735049963,457.44928430207074 L 294.9697325155139,457.718712804839 L 296.18035361357033,458.36151582188904 L 297.0026622451842,458.5131151927635 L 297.0026622451842,458.9848097041249 L 297.5476048924029,459.4565829783678 L 295.94867140613496,460.21214615926147 L 295.63214784674346,460.8246097471565 L 295.96498705260456,461.32760350219905 L 295.92909263819456,461.81382239516824 L 294.7478397116065,461.34446520823985 L 294.02995119802654,461.26296802051365 L 293.6253231652081,461.7969579519704 L 293.25332638435066,462.01058222632855 L 292.9661709945649,463.50078032072634 L 292.3461763598025,463.6554686361924 L 293.26637890934944,464.10270612314343 L 296.336983833462,464.5584550574422 L 297.0026622451842,464.4065305395052 L 297.2180288080126,463.9929997930303 L 298.1545470021665,463.45015689358115 L 298.5395962689072,462.0499357972294 L 298.8463304657489,462.30855887569487 L 298.99643444269896,463.09581841062754 L 298.666858356446,464.1702198702842 L 299.9753732923418,465.7403695071116 L 300.73241933993995,466.32025151047856 L 301.4078871961683,466.57645101659 L 300.96083842776716,465.16623492352664 L 300.3114756606519,464.1702198702842 L 300.7846294399351,464.1364627601579 L 301.156626181677,463.6554686361924 L 300.5855785254389,462.32542637642473 L 301.16315246373415,462.28888018243015 L 301.62651683948934,462.45755896903574 L 301.985461095348,462.89335922151804 L 302.22693270631135,463.6554686361924 L 301.156626181677,464.1702198702842 L 301.156626181677,464.64286108128726 L 301.70156882703304,465.1577925924212 L 303.32987048476934,462.3872749498114 L 303.0720832683146,461.3416549284011 L 303.8650237284601,460.1896729487926 L 304.86354138702154,459.8273173496127 L 306.929102409631,459.8806846393272 L 306.6321576181799,460.3975568888709 L 307.01720692403615,461.31074196565896 L 307.4773081783205,461.81382239516824 L 307.4773081783205,462.32542637642473 L 307.1640477385372,463.28423095680773 L 306.6321576181799,464.1702198702842 L 306.6321576181799,464.64286108128726 L 307.4773081783205,465.1577925924212 L 307.4773081783205,465.582752276212 L 306.9780493490398,465.5546072749421 L 306.10679377801716,464.64286108128726 L 304.29575685225427,464.64286108128726 L 303.5909208636731,465.8416995322332 L 302.6054557301104,466.19075299985707 L 301.3980977926403,468.443750356324 L 300.5464209895581,467.66062957327813 L 299.9003213047981,466.7622805936262 L 298.9605399891734,466.19075299985707 L 297.5541311353445,464.90172203071415 L 296.7514012698084,465.1577925924212 L 296.611086698249,465.97681187465787 L 296.8949789647013,467.25225363392383 L 297.4170797225088,468.4212114531547 L 297.9816011376679,468.9396515516564 L 298.3633872810751,470.5321972584352 L 298.24591463804245,470.82825630530715 L 296.4544564783573,470.36021536402404 L 295.86709317564964,469.94862908963114 L 295.6093059182167,470.0247398307547 L 295.63214784674346,470.82825630530715 L 296.28151061199605,471.75893019419163 L 296.7644537948072,472.10871747881174 L 302.26609024219215,473.71434715762734 L 303.3853437062353,473.73128306213766 L 304.4425976667553,473.15269592870027 L 304.4425976667553,472.7237714547664 L 302.2693534027785,471.1046061422676 L 301.9528298024088,470.1234049703926 L 302.0735656078905,468.8945660619065 L 302.4161942191422,467.9113172022626 L 302.9448212198913,467.1480568218976 L 303.62028903514147,466.57645101659 L 305.29427451081574,466.0049610910937 L 310.49243992194533,467.00725646782666 L 312.2773717585951,466.61305281706154 L 313.48799285665154,465.26754424721 L 313.7523063570261,463.4867181358859 L 312.7048417609185,461.81382239516824 L 310.92643612623215,460.61950390506536 L 310.04539115168154,459.75990744680166 L 309.6701312493533,458.74895259644836 L 309.816972065717,457.5896084252745 L 310.169390078634,456.3830486536026 L 311.03738252818584,454.7451971285045 L 311.85969119891524,454.3134561115876 L 313.7588325999677,453.85094966366887 L 314.59419375658035,453.2484033321962 z" /><path fill-rule="evenodd" fill="#D2EBD9" stroke="#A6A6A6" stroke-width="0.25" opacity="1" d="M 99.43648240715265,474.10389970149845 L 101.4400439672172,470.3151070680469 L 102.20361625775695,469.8866144809872 L 101.65541048906744,469.41309326700866 L 100.29142233170569,468.91710868198425 L 99.35164101608098,469.77950151637197 L 97.79839134588838,472.2497730143368 L 98.96006546728313,474.4455082975328 L 99.67795397900045,475.2389906188473 L 100.55899895355105,475.5637899013236 L 100.57205147854984,475.23051804769784 L 100.28489608876407,475.08931309822947 L 99.43648240715265,474.10389970149845 z" /><path fill-rule="evenodd" fill="#D2EBD9" stroke="#A6A6A6" stroke-width="0.25" opacity="1" d="M 106.06063544005156,478.45191512443125 L 108.29261604696512,478.3162029478699 L 109.20302919112146,477.75645945686847 L 109.91765458323061,476.5129834813997 L 109.91765458323061,476.0383466379717 L 108.79513799585402,473.672007705085 L 108.24693222902715,473.4941890509799 L 107.56820129230618,473.576040671207 L 106.60884120687842,474.10389970149845 L 105.56463973224163,473.7058791751042 L 104.26591415889561,474.10672273579985 L 101.92951339296997,475.5637899013236 L 102.71919073350728,477.0187857626006 L 103.623077634722,477.90062515158206 L 104.71948917210102,478.3388212006539 L 106.06063544005156,478.45191512443125 z" /><path fill-rule="evenodd" fill="#D2EBD9" stroke="#A6A6A6" stroke-width="0.25" opacity="1" d="M 100.55899895355105,491.80916326493025 L 100.32405362464488,489.33584799058735 L 101.681515539065,488.0446835840121 L 103.61328823119402,487.5595862045884 L 112.35194922611117,488.0021277992055 L 111.34690532460809,487.20219965744764 L 106.3347383029759,487.48299952968955 L 104.6020165272057,486.27207327168435 L 103.99507441744208,486.0962912645191 L 101.23120364919305,486.0962912645191 L 100.97015330940485,486.23237956967205 L 100.62426157854497,486.8391868798062 L 99.89984678290784,486.9894911395386 L 98.4249122235924,486.0339196808636 L 98.2193350661546,485.8411434851587 L 98.11165178567171,485.3309173649177 L 97.93544279783964,483.676154833287 L 98.0724942497909,479.87728847935796 L 97.96807409077883,478.6385300671682 L 97.76576005481184,477.68013940844685 L 97.51449907943606,477.4766293996945 L 97.25018557906151,478.45191512443125 L 97.21755428612232,480.28467071801424 L 97.6809187028557,487.84042188338935 L 98.05944172479212,489.32165617961437 L 101.09415223635733,497.8753111269325 L 102.7811901960522,500.0 L 104.69012100063264,498.9744799369946 L 102.2427738327533,498.84062027186155 L 101.92951339296997,498.4960322380066 L 103.03897745348513,498.37928063981235 L 103.36855353973806,497.52799512445927 L 103.01287240348756,496.5659834528342 L 101.3813076261431,495.6441282443702 L 100.62426157854497,494.5064531136304 L 100.20658097974956,493.10490306746215 L 100.55899895355105,491.80916326493025 z" /><path fill-rule="evenodd" fill="#D2EBD9" stroke="#A6A6A6" stroke-width="0.25" opacity="1" d="M 111.55248248204589,463.63578054495156 L 114.13361798040569,464.73852433729917 L 114.21519621275365,463.9901868728921 L 113.89214641042054,462.2973138615489 L 112.96541757881641,460.8217999851331 L 111.82332226447761,460.164390809834 L 110.92269848287106,460.1812455672771 L 110.41365029104054,460.636361381039 L 110.00249593518674,461.63393979053944 L 110.2504937890917,462.747147786431 L 111.55248248204589,463.63578054495156 z" /><path fill-rule="evenodd" fill="#D2EBD9" stroke="#A6A6A6" stroke-width="0.25" opacity="1" d="M 82.26589457690716,438.7085762778297 L 82.06684370152652,438.55524702649564 L 82.00810735858977,438.8396096602082 L 81.29348196834326,439.63430351484567 L 81.88084531016648,439.6845022030175 L 82.12558004446328,439.4112090598792 L 82.26589457690716,438.7085762778297 z" /><path fill-rule="evenodd" fill="#D2EBD9" stroke="#A6A6A6" stroke-width="0.25" opacity="1" d="M 82.59547070227563,439.52275409083813 L 83.29704352840781,439.7291240207851 L 83.44062122143805,439.3582267006859 L 82.80757410265505,439.16024879552424 L 82.59547070227563,439.52275409083813 z" /></g></g></g></svg>