<svg xmlns="http://www.w3.org/2000/svg" xmlns:xlink="http://www.w3.org/1999/xlink" width="267.3770648762584" height="500.0" viewBox="0.0 0.0 267.3770648762584 500.0" preserveAspectRatio="xMinYMin meet"><g transform="matrix(1,0,0,-1,0,500.0)"><g><path fill-rule="evenodd" fill="#D2EBD9" stroke="#A6A6A6" stroke-width="0.25" opacity="1" d="M 140.63398086838424,0.0 L 128.10493648797274,3.4810696106869727 L 125.83518235385418,12.748483469244093 L 129.55758002586663,40.92923136521131 L 129.0128381419927,74.71279627480544 L 129.55758002586663,79.65368364332244 L 123.42924218997359,92.78281579096802 L 109.31137047335505,109.25405803322792 L 106.76924539729953,123.13783257710747 L 104.77186220511794,151.8021089595277 L 99.68761205300689,172.7023456050083 L 83.89012194052339,206.73971022292972 L 81.71115774847567,214.93199247587472 L 79.03284775838256,236.1202222208958 L 75.53742605820298,246.29123564739712 L 49.88920155540109,271.86193186906166 L 45.80364299751818,281.46930567757227 L 43.67007377743721,292.49000321072526 L 38.67661468312144,304.26481136959046 L 32.23051204904914,313.5908691706136 L 26.05678035877645,317.3590773527976 L 18.79356601461768,323.43543615657836 L 16.342231994494796,337.42577994824387 L 15.29814431257546,365.55025924090296 L 10.667846102267504,374.45467904862016 L 4.539509382098913,380.1084504376631 L 0.0,386.3277545450255 L 0.04539497010409832,397.16480761766434 L 5.4928060080856085,404.7039178996347 L 24.150187108665705,417.89793375646695 L 29.86996797285974,429.4904227128718 L 22.152802800759673,430.9984297922347 L 8.625066824257374,435.9466464566067 L 0.04539497010409832,436.7477962265257 L 9.26059753447771,450.36775040021166 L 22.24359274469316,500.0 L 57.65176169760525,498.58583231293596 L 70.27159490436316,493.77772546582855 L 83.89012194052339,483.4547645889688 L 101.9119712151587,456.87167108547874 L 116.34760884568095,447.30437064846046 L 132.96221066825092,456.0704535378609 L 146.80771256051958,458.8040294437669 L 202.18971900828183,436.7477962265257 L 204.18710331618786,428.87779666041024 L 211.2687366604805,411.20659123477526 L 222.3451375029981,392.40586779499426 L 228.564265280962,381.33345234859735 L 247.40322626568377,354.0079877679236 L 257.98028131201863,313.2611546861008 L 259.84147959016263,270.82586580654606 L 252.124315533787,238.38041013502516 L 257.20856457203627,236.54400590993464 L 261.83886389806867,232.6828933393117 L 267.3770648762584,230.46984589193016 L 260.3862214758992,188.23747616587207 L 262.38360466621816,142.10576704051346 L 259.1151589360088,96.59463194361888 L 236.19063939340413,55.9853927125223 L 228.15570942498744,49.72756324172951 L 222.70829838700593,48.31604379275814 L 218.35037000477314,48.64539767499082 L 207.0015982184559,47.139785387320444 L 197.51402471028268,49.3982078935951 L 190.4777863379568,48.08079211902805 L 184.44023955985904,42.528904812410474 L 178.720458695665,27.47357531567104 L 163.14994455687702,20.651936230715364 L 159.5183368269354,12.183960034046322 L 154.1617168467492,3.8574045947752893 L 140.63398086838424,0.0 z" /></g></g></svg>