<svg xmlns="http://www.w3.org/2000/svg" xmlns:xlink="http://www.w3.org/1999/xlink" width="500.0" height="343.13156557269394" viewBox="0.0 0.0 500.0 343.13156557269394" preserveAspectRatio="xMinYMin meet"><g transform="matrix(1,0,0,-1,0,343.13156557269394)"><g><g><path fill-rule="evenodd" fill="#D2EBD9" stroke="#A6A6A6" stroke-width="0.25" opacity="1" d="M 34.28223602287471,310.27356599643826 L 36.885307997465134,309.698249632027 L 39.322579227387905,308.4478668551892 L 38.80859681777656,311.2950811977498 L 36.39895911514759,316.8672454622574 L 36.542653013020754,319.3748655486852 L 32.89503632299602,319.56280120415613 L 32.43079415149987,321.10158264124766 L 33.90089429356158,323.3805777588859 L 36.039724096655846,325.7302940781228 L 36.65318698063493,326.17089267866686 L 37.34955016896129,326.3177606621757 L 38.86386373266578,326.276637612842 L 39.78682139702141,326.65849820012227 L 41.29560828395188,328.51501924172044 L 42.10803198069334,329.23769308580086 L 43.72735283523798,329.889881757088 L 44.93217175453901,330.1895421585068 L 46.120410503819585,330.7536195102148 L 47.6789376270026,332.1932547860779 L 46.75045342184603,334.0032106079161 L 46.6012327093631,335.6193633172661 L 47.31970274448395,336.76543171005324 L 49.06613732688129,337.2121201022528 L 50.11620885692537,337.04754967195913 L 51.74105638638139,336.3069974621758 L 52.780074425041676,336.14243354462087 L 53.23326323926449,336.44805325288326 L 54.17832761630416,337.805759022478 L 54.67020317725837,338.10552306612954 L 68.61957407183945,339.18117950158194 L 72.1677104216069,338.6815513386391 L 75.67163321375847,337.41195726860315 L 88.63725285045803,330.6478539314121 L 92.44514374434948,329.872254694812 L 96.05960036627948,331.28833058290184 L 98.79531302116811,329.2788215880282 L 100.75176204368472,328.37401244416833 L 106.77032969146967,328.16250372864306 L 108.35649034008384,328.6031490387395 L 108.72677871398628,329.7136126095429 L 108.7986256647855,331.18256268044934 L 109.51709569990635,332.68686491344124 L 111.11430970579386,333.3097690171562 L 112.258335031569,331.9699584711343 L 113.76712191849947,328.16250372864306 L 115.62961714528501,329.52559386286885 L 116.18781311251223,330.3364360225387 L 116.55257467366755,331.28833058290184 L 115.15432161837816,331.8289304175414 L 114.69560612551868,333.18048568069935 L 116.82338270917535,332.34603776736185 L 118.60850417241454,332.4459348884411 L 120.42678583972156,332.9042918025516 L 122.62088269367814,333.18048568069935 L 124.0136090721935,334.2500337800011 L 126.52825392782688,339.0048389281146 L 128.18626166135073,340.08053769590333 L 130.2532445155084,340.6095885518007 L 134.65801812522113,342.81409866921604 L 137.0400224365294,343.13156557269394 L 139.23411915637553,342.56130396109074 L 141.32320872321725,341.3267657193355 L 142.45065401494503,339.5162303834222 L 141.75429069064558,337.2121201022528 L 144.37394283525646,336.14243354462087 L 145.38532748259604,336.14243354462087 L 144.37394283525646,339.18117950158194 L 150.94517977163196,338.10552306612954 L 152.87952194921672,338.30536804161966 L 156.89190047048032,339.2517162277363 L 158.45042759366333,339.18117950158194 L 160.11948868446052,338.05262322630733 L 166.09384277276695,330.8770132549107 L 166.59124514646828,329.5020916820504 L 165.86724843271077,328.16250372864306 L 170.98496526293457,328.12725241761655 L 172.94141428731382,327.1578641072847 L 178.11439816839993,322.78731248434633 L 183.03868086449802,320.26757384091616 L 188.27245820313692,318.4175918828696 L 194.32971273176372,317.50146546121687 L 202.53132387809455,317.4368681977503 L 203.21663371101022,317.8538174391724 L 203.91299689933658,318.8228132687509 L 205.5544244647026,319.9621698046103 L 207.41139301285148,320.91950775589794 L 208.77648600190878,321.34826703509316 L 214.07658374868333,319.66851573018357 L 227.3240646403283,305.589264835231 L 229.57895508781075,303.97522061597556 L 232.05491306260228,302.70754121104255 L 234.84036595374346,301.86246024863794 L 241.0357878394425,301.1993281603791 L 246.01533744856715,299.39194924524054 L 255.1343793105334,297.58471122337505 L 257.16820209659636,297.6199158639647 L 258.5277682710439,298.1303883716464 L 259.73811386711895,299.180706334766 L 264.6955567654222,304.5034407940693 L 267.26546853780746,305.70665425015613 L 274.79282320663333,305.589264835231 L 278.47912677936256,305.9473044006154 L 280.1481878682971,305.7360016251914 L 282.21517072431743,304.5093099605292 L 286.84653867036104,299.579722258728 L 288.3055854551494,296.22937530465424 L 288.2282116934657,292.5686040604487 L 286.00095476955175,284.64477626234293 L 288.7200872544199,283.49542949022725 L 289.753578748554,280.93892298219725 L 289.71489186771214,274.3613115590997 L 290.04649336077273,271.5010390849784 L 290.9141841083765,269.2154172481969 L 299.9613790214062,255.62350335391238 L 304.53748018853366,251.14341092994437 L 309.1854281704873,249.24621701892465 L 311.93772085756063,249.70293503860012 L 317.21018507890403,251.73485145065933 L 319.92931769788265,252.1916175945662 L 326.0418391432613,252.44342830218375 L 328.74991827085614,253.02318903664127 L 331.52984434738755,254.15932703204453 L 335.54222286865115,256.8534819604829 L 337.09522331506014,257.19320167182013 L 338.4990031849593,256.8886250620708 L 341.37840973585844,255.46536789182574 L 343.16353133507073,255.14910015836358 L 346.45191314443946,255.9749192041345 L 347.8777995891869,256.1272010952234 L 349.4031666442752,255.92220647726208 L 349.9392557647079,255.4829383981414 L 350.16032342612743,254.6512801446952 L 350.59140552952886,253.94849311280996 L 351.53094309195876,254.2178923287429 L 353.02314994484186,255.14910015836358 L 360.90421295538545,251.91638562595472 L 363.22542367503047,250.22992817265913 L 364.7618440873921,253.3511406518519 L 367.2599089089781,255.6586446161382 L 373.427697269246,259.07932109665126 L 377.39586223103106,260.29776459233835 L 378.33539992943406,258.63413636619225 L 377.28532839939,255.20181115204468 L 375.28466581739485,251.12584366369992 L 377.9927449449897,250.12452857382596 L 381.0545324124396,250.14209509268403 L 384.02789276093245,250.91503691859543 L 386.4927973803133,252.1916175945662 L 387.2996944002807,249.03542723879218 L 385.53115296922624,246.55878726625815 L 383.0938817411661,244.310715185944 L 381.861429432407,241.8345711180009 L 381.2756000738591,239.22992416471243 L 379.6949661038816,236.88306115288287 L 377.3240151461214,235.16256644343957 L 374.35618161037564,234.4252498219721 L 363.69519252330065,236.39147855667397 L 352.01729197613895,235.49612199887633 L 349.2649994250387,236.28614071616903 L 344.2301828991622,238.80852520186454 L 326.91505643352866,240.96242136647925 L 324.9641342237592,240.42392885219306 L 324.2180307973176,238.49833341967314 L 323.7758953385055,231.65759121859446 L 322.75898401252925,225.81906685465947 L 323.1790126245469,223.63145253015682 L 326.16342632845044,221.47328172903508 L 333.6576207950711,222.62545162951574 L 336.2441127356142,221.66628084285185 L 339.4717009495944,222.7073337775655 L 345.86055697128177,220.2159012290649 L 349.23183922097087,220.59603241924196 L 348.40283535420895,221.31537444889545 L 347.3140770792961,221.97040402004495 L 346.01530436240137,222.45583937224 L 344.51204415410757,222.64884645910934 L 344.51204415410757,223.63145253015682 L 351.7630642466247,224.01748750172555 L 353.8742605242878,223.63145253015682 L 356.2838983628899,221.85343315126374 L 358.1519202683121,217.43820279091597 L 360.44549746252596,215.6898808851838 L 362.766708182171,215.0701052439399 L 367.4367630109191,214.4912727707997 L 385.27692510560155,209.64483219524845 L 387.42128172144294,209.7968166344799 L 389.9746134597808,211.24656259827316 L 389.1290295589715,212.29885272216052 L 387.4378617554903,213.3161105583422 L 387.42128172144294,214.70760249253362 L 389.8585529513657,215.40337883448228 L 391.9808027204126,213.4739648285322 L 394.83810256049037,208.81478073541075 L 396.68401761725545,207.7392637114972 L 398.73994711600244,207.11969442525879 L 400.4974351897836,206.34817785630003 L 401.41486617550254,204.81106341956183 L 403.0397135708481,206.14361316431314 L 406.355728905648,207.68081309832633 L 407.914256028831,208.81478073541075 L 406.87523785606027,209.97218443080783 L 407.3726402297616,210.2527756113559 L 408.59403918311,210.2878497946076 L 409.7601712215692,210.69705173419788 L 411.611613092944,212.76655204920098 L 412.14770221337676,212.80747621972114 L 417.01671799086034,212.5443936972879 L 419.8629643395543,211.9656225000508 L 422.4162960778922,211.0478018349968 L 424.682239882648,209.7968166344799 L 424.94199442490935,209.399321034085 L 425.05805493332446,208.33546824520454 L 425.61072422377765,207.84447520412505 L 428.39065030030906,206.86251951754093 L 433.49731377512217,205.88060400821269 L 436.53146771900356,205.76371201034635 L 437.7583934850991,205.31952756876126 L 440.34488528966904,203.65975354239345 L 442.76557648554444,203.4610558389686 L 444.15830286219716,202.93509951792657 L 459.9425355941057,188.21300126845017 L 465.7455622572452,181.13558134250343 L 473.9361199121922,174.86574046872556 L 479.80546698346734,170.75678261229768 L 481.47452793829143,170.00977417221293 L 482.3477453645319,169.43786150496453 L 488.482373656705,163.4977701236494 L 496.25290269963443,158.76074281008914 L 500.0,153.02154134679586 L 499.2594232521951,147.40030042175204 L 486.4927644301206,127.91089531872422 L 484.69658947363496,126.1632000496611 L 484.282087540254,124.80008389940485 L 484.53078872710466,119.8259319877252 L 484.282087540254,118.40492988564074 L 482.74014045111835,115.97660350706428 L 480.5018301717937,114.82949146302417 L 477.69427056983113,114.4917732141912 L 474.4666823539883,114.4917732141912 L 471.97967102378607,115.33025461575016 L 466.59667283669114,118.88247068272904 L 464.6402238123119,119.47067371988669 L 462.3963868562132,117.96233939519152 L 462.7500951960683,115.66216137073934 L 463.47409177571535,112.93716430198401 L 462.31901309266686,110.14260719623417 L 460.6499521378428,107.90718858037144 L 459.59435393102467,105.31691650208086 L 457.4997376874089,96.99495048029348 L 456.7425807695836,95.51707444759086 L 455.20063368044794,94.9585299496539 L 443.71616753935814,94.04510387219489 L 441.3728501070291,94.87707651266828 L 441.0633553266525,100.1139063173905 L 437.7583934850991,107.03985382243991 L 433.2375592328608,113.77559298556298 L 429.236234202981,118.40492988564074 L 424.9751546289772,121.36350168986246 L 419.33240189775825,123.76905885664746 L 413.65096242167056,124.57873026374727 L 407.1018323302269,121.88187078526244 L 397.2035267036408,121.42174484720454 L 394.6336149331182,121.88187078526244 L 388.68136755749583,123.90303149912506 L 385.9843417853117,124.34572861576453 L 383.64102435298264,125.11464239051566 L 379.7115461360663,128.4701840360649 L 376.7105523981154,129.2392268241383 L 374.0909003894776,128.6915726722218 L 371.4270346853882,127.78272682055831 L 368.73553572781384,127.59630109276623 L 366.01087643019855,129.2392268241383 L 363.17015676014125,126.60011226730421 L 345.52342880144715,125.23697192873806 L 340.25096458010375,123.28559882659465 L 337.4655116889626,123.21570165501907 L 330.0321108177304,128.37696846202016 L 327.02559026516974,129.9849881734699 L 325.03045449592173,130.21804336924106 L 324.16829055920243,128.87800684431568 L 324.48331201821566,125.65639163181186 L 324.1074968315661,124.34572861576453 L 322.8916246909648,123.94380579562858 L 320.98491590470076,123.94963084347546 L 319.2329545095563,124.28747854847461 L 318.46474423632026,124.80008389940485 L 316.1822203975171,128.70322487410158 L 315.0989888012409,129.75193533068523 L 314.08760415390134,130.07820998691022 L 293.1580210663378,132.38556133350357 L 288.78640766069293,132.17579326964915 L 286.59231080673635,131.5231925896369 L 282.32570455409586,129.44896996673197 L 278.8107284065336,127.06033479655161 L 277.47879562340677,126.41952098766342 L 273.86433886550367,125.23697192873806 L 270.73070444725454,123.63508708588779 L 267.6965505052358,120.93250665673986 L 265.4084999896586,117.32176202908158 L 264.50764917209744,113.02449921658263 L 263.78917927108705,111.86005793977529 L 260.66659821011126,110.206645576749 L 259.95365485176444,109.16458665858954 L 259.40098569728434,107.58702790737152 L 254.8138311728835,103.3030941854231 L 251.51439600996673,99.49124771077186 L 249.6519007831812,97.89102833066136 L 248.82289691641927,98.28670933376998 L 245.5289884302765,98.19360744766891 L 242.99776354059577,97.76301527395844 L 241.3176490943879,96.82039363263175 L 238.9190647471696,98.30416609253734 L 236.36573300883174,98.84532854286954 L 218.98428627289832,98.77550049126148 L 216.06619283929467,97.85029692295939 L 210.47870715893805,94.67344437260181 L 207.30638585984707,93.98110714973882 L 197.89442925341427,94.00437875697389 L 195.71138575300574,94.87707651266828 L 195.52347829565406,96.10472325747833 L 196.50722941756248,97.06477353395894 L 197.77836860902607,97.9026658879593 L 198.40841152518988,98.77550049126148 L 198.02154311724007,100.32340248255059 L 197.09858558885753,101.17304374976084 L 196.14246785640717,101.72008848423138 L 195.11450303904712,103.1226730258204 L 192.51695774309337,104.81635580025613 L 191.92560170777142,106.14344583731145 L 192.25720319896936,107.56374357547611 L 193.9815312065184,108.71051887236536 L 194.69447442889214,109.69434302486479 L 195.32451734505594,112.57036062702537 L 195.40741778723896,115.59228593157604 L 195.03712941333652,118.24186930060387 L 194.27997249551117,119.9540591002442 L 191.29555878974497,123.70498530426994 L 189.499383835122,124.99231360293925 L 186.35469606146216,126.21562911197543 L 183.6742504592985,126.84478642838076 L 180.28638817556202,127.10694011673331 L 177.38487477600574,126.32048757188022 L 176.15794914588332,123.82148282276466 L 176.62219131737947,120.82767112320289 L 176.2795363329351,119.62791853770614 L 172.24505109898746,115.62722369842231 L 171.1341859754175,114.91101043112576 L 169.6696126498282,114.4917732141912 L 168.08345199935138,114.55000016419217 L 165.25931222736835,115.43506680894643 L 164.0102798845619,115.55734821455553 L 162.96020835451782,115.14392300508916 L 161.07007973827422,113.80470552900806 L 159.79894054867327,113.51358092390001 L 158.07461254298687,113.73483533971012 L 157.47220315039158,113.36219742661342 L 156.1292168740183,112.09294178243726 L 154.37172880023718,108.59991386951879 L 151.87366397865117,107.6568807484582 L 148.25920735672116,103.34965472947806 L 146.33039185777307,102.1973074558191 L 143.10833032242954,101.79574450058863 L 141.80403092876077,102.28460467793047 L 139.36123302206397,106.14344583731145 L 137.94087325409055,107.21448250999674 L 136.49840650334954,107.8431560001336 L 130.60695272125304,109.12965801684186 L 127.87676688097417,109.18205092614517 L 125.75451711192727,108.3263141354546 L 124.90340653248131,106.14344583731145 L 124.61601846292615,104.93858477892354 L 123.41119967959821,102.84913370478898 L 123.12381161004305,101.25451766420156 L 123.38356615416706,99.42141784494743 L 124.04676927439868,98.41472522867844 L 124.94762009195983,97.50117230694741 L 125.90926450118423,95.93017265340313 L 128.12546806782484,88.15227467613295 L 128.83841129019856,86.8203274263069 L 128.8605180028826,85.11623657867312 L 126.21875928156078,81.09201861498877 L 123.96386883407831,75.34758000122383 L 111.10878302715719,56.50713381031528 L 109.9813378714025,53.27742851153016 L 109.41761522553861,52.12738121114671 L 108.12989600002766,51.23293616063893 L 105.4273435510695,49.82163587771356 L 103.75828246027231,48.41041423426941 L 102.56451703235507,47.0166921755299 L 101.63603269122541,45.29206717852503 L 100.78492211177945,42.91727036004886 L 99.7790641412139,43.2714435053058 L 98.84505325742066,43.97399845579639 L 98.64056563004851,42.94049462117255 L 97.916568916291,42.12185024283826 L 98.84505325742066,42.12185024283826 L 98.29791064560413,40.92005821317434 L 97.59049410000443,40.002786714117974 L 96.72280348837376,39.404836325440556 L 95.64509843289852,39.19584725052118 L 95.14769619517028,38.609526134096086 L 94.2634254116565,35.76518936781213 L 93.74391646124423,34.732019123155624 L 92.08590872585773,32.33499351236969 L 87.50980769470334,18.932049181312323 L 86.10602796077728,16.327702696435153 L 80.4909087549895,8.440870916005224 L 79.13134244456887,9.078686552587897 L 77.95968372933567,10.19200251577422 L 77.89336345903575,10.7892699027434 L 76.56695735268295,11.937454212456942 L 67.22684769332409,27.396554238162935 L 64.95537721179426,29.862752873450518 L 60.38480285741389,31.63856351096183 L 49.53590617701411,30.176122147589922 L 44.89348487183452,31.31937271170318 L 46.20331094413996,32.33499351236969 L 50.536237467080355,36.84483890188858 L 51.46472181007266,38.66757712839171 L 51.26576085947454,41.73866400402039 L 50.696511536836624,43.89851646963507 L 48.60189529135823,47.96906061191112 L 47.13179515115917,50.21075198519975 L 46.8444072175771,51.03546561487019 L 46.75045342184603,52.748864877037704 L 47.6789376270026,58.15118904877454 L 46.667552979663014,60.643618470057845 L 44.28002198971808,63.415210315957665 L 39.322579227387905,67.54701698524877 L 31.728904286399484,70.42399183940142 L 33.35380791127682,74.74408245459199 L 33.84513080492616,77.21751669701189 L 33.543318228796124,81.36752822250128 L 33.634563967585564,83.74560277163982 L 33.31169459968805,85.3446526476182 L 31.851763600483537,89.44060774240643 L 31.648215467110276,90.79253122024238 L 32.02723596431315,93.60742682870477 L 33.10112748853862,96.29332576133311 L 40.814897591248155,109.59409504849464 L 39.27073969319463,111.12826285278425 L 37.33352361805737,112.41112216515467 L 30.033868623897433,115.16930977301672 L 24.91007244773209,118.597138219513 L 23.808105289936066,119.87298865476623 L 21.74454900249839,122.93160051340237 L 20.600468397140503,123.94875617744401 L 15.301199719309807,125.28406798886135 L 13.265719065442681,126.40859730169177 L 12.451526667922735,129.05736260395497 L 12.963906353339553,130.62973959278315 L 13.981646748259664,131.2143196244724 L 14.70459340699017,131.99871454527602 L 14.36768608726561,134.14852888602763 L 13.490323854610324,135.50659814896062 L 1.207250576466322,148.13987941620871 L 0.0,150.48365812236443 L 2.337293365970254,152.24997183308005 L 7.383881621062756,153.32019054004923 L 17.596379635855556,151.42789795901626 L 22.853535136207938,153.23131247842684 L 24.62229768745601,155.13855937682092 L 27.415819473564625,159.92029494978487 L 29.268808651715517,162.00218067644164 L 34.19607580639422,165.06235791230574 L 36.09819740988314,166.62964417040348 L 37.72658193297684,169.3013039571233 L 38.65307672508061,171.7249504616484 L 39.31987198255956,174.37493348121643 L 39.52342011593282,177.06968932645395 L 38.42847179993987,182.7085210508667 L 38.2880937717855,188.52668574638665 L 37.537071615457535,191.18222372327 L 36.52635019645095,192.4804284912534 L 33.41697801835835,195.33672615652904 L 32.17463296838105,196.80210151523352 L 30.251454573124647,200.86852335510775 L 29.00910952500999,201.87781520746648 L 25.829548263922334,201.98542599659413 L 22.453457845374942,200.82770735491067 L 20.017899764701724,200.44552393164486 L 19.617822609841824,202.93539092177525 L 21.962134953588247,204.523697481025 L 28.931901602074504,206.40902070328593 L 30.71470196917653,207.51504710875452 L 36.603558119386435,214.0631786719896 L 40.66750072315335,219.77755799656734 L 42.724038168787956,221.6306628473103 L 47.32843581959605,224.94358677510172 L 49.04104710556567,227.4880178947933 L 49.73591813258827,229.95841985940933 L 50.35358123667538,238.53438495658338 L 39.83927050791681,243.66361356014386 L 34.78566341474652,248.84600983001292 L 32.36414314992726,252.26686675753444 L 31.690328780561686,255.1377958622761 L 32.58172896318138,256.0452606966719 L 36.245594412088394,258.14297771360725 L 37.537071615457535,259.16214908566326 L 39.256701877340674,263.5517865247093 L 40.00772403366864,264.37400477565825 L 41.55890076979995,267.68177191587165 L 41.65014650858939,274.1126055023633 L 40.028780825436115,285.3782758647576 L 36.231556460261345,294.40293535683304 L 35.6068745162338,297.6777093792334 L 35.96483835764229,303.7516101496294 L 35.48053430393338,306.30461498117074 L 34.28223602287471,310.27356599643826 z" /><path fill-rule="evenodd" fill="#D2EBD9" stroke="#A6A6A6" stroke-width="0.25" opacity="1" d="M 65.92254829965532,0.0 L 63.65660449489951,1.2926191263832152 L 63.62897110544145,4.359225566033274 L 64.87247676961124,7.9422261216677725 L 66.38679047115147,10.7892699027434 L 68.30455261282623,9.704920816235244 L 70.25547495856881,8.278520377352834 L 73.71518418937922,4.944762717466801 L 71.62056794576347,4.28386026294902 L 68.24375901930034,0.8115021917037666 L 65.92254829965532,0.0 z" /><path fill-rule="evenodd" fill="#D2EBD9" stroke="#A6A6A6" stroke-width="0.25" opacity="1" d="M 454.437950219959,89.01313421083614 L 461.4568491578102,89.22253701556474 L 463.3027643505484,88.56525085447356 L 464.6733840163797,86.73308439087123 L 466.1932242587209,83.92402352858335 L 467.1880288720131,81.34787452640012 L 466.9614345319569,80.22561715776101 L 464.8999783564359,80.6849806457758 L 460.5173114594072,82.69697589240968 L 458.2347876224667,83.15638474747539 L 455.8140965625644,82.85980340559036 L 451.6082839053124,81.51650821929798 L 449.2981265410781,81.20250150561333 L 444.5230645593256,82.47599740093574 L 441.1241489201784,85.55824204254895 L 438.93557887896895,89.39704064792022 L 437.7473399937153,92.92227579792961 L 439.7645826097578,93.52149903867394 L 442.1465869229287,93.06189940543845 L 444.5064845252782,91.89839381398633 L 446.5237271413207,90.43245414225385 L 448.09330762177706,89.8740235841833 L 454.437950219959,89.01313421083614 z" /></g></g></g></svg>