<svg xmlns="http://www.w3.org/2000/svg" xmlns:xlink="http://www.w3.org/1999/xlink" width="500.0" height="199.06620587935322" viewBox="0.0 0.0 500.0 199.06620587935322" preserveAspectRatio="xMinYMin meet"><g transform="matrix(1,0,0,-1,0,199.06620587935322)"><g><g><path fill-rule="evenodd" fill="#D2EBD9" stroke="#A6A6A6" stroke-width="0.25" opacity="1" d="M 392.71475881896913,192.21022023813566 L 394.4639041721821,191.01200614633854 L 395.0889110043645,190.14043857326033 L 395.9679230619222,189.43133539534756 L 397.0162718947977,187.66823105473304 L 397.60048396140337,187.2139881645271 L 398.2978437896818,186.99841618275968 L 399.18378326296806,187.20782894906006 L 399.4631890077144,187.12467970736907 L 399.6279075462371,186.2439189812285 L 400.2513749357313,185.58489468993503 L 400.41917232982814,185.10448783027823 L 400.84944180585444,185.3508499606105 L 401.296644942835,185.387804334081 L 402.946909269318,185.00902269672952 L 403.4918659515679,184.58405025638058 L 406.29516007192433,181.46765038385638 L 406.9979078769684,180.93183774044155 L 409.94898687675595,179.8540629830095 L 413.8260304108262,176.92257572928793 L 415.07912290096283,176.31288610360934 L 417.1912149041891,176.23590532311937 L 419.21709907613695,175.47225899985642 L 419.8359481971711,175.52768477750942 L 420.1253602132201,175.22284339842736 L 420.2839210703969,174.26675531524234 L 420.5995033122599,173.99732770974515 L 421.92956709861755,173.58625933653093 L 423.1318585202098,173.6986486854439 L 425.50719234347343,174.60084639742854 L 426.24303779006004,174.59468801983166 L 427.1328258253634,173.89571519155288 L 427.32679344527423,171.75263406417798 L 427.9594973716885,170.8165868560609 L 429.91764684580266,169.4648720342375 L 431.00448135472834,169.0338039303315 L 432.0174234267324,169.17544046134572 L 433.2474245466292,168.86753515937016 L 433.64921464957297,167.4234674682957 L 433.8401034139097,164.29213105904637 L 434.2403540723026,162.40165386983426 L 434.5482392217964,161.6411570085038 L 435.3502800129354,161.02537191467127 L 436.3909317534417,160.64358590566553 L 439.5606091544032,160.00009298030636 L 441.02614239789546,159.43357414423372 L 441.6742406003177,159.47052097972482 L 443.69242765009403,160.1294072139426 L 444.7223034091294,159.87077877725824 L 445.861478401348,158.58379791217158 L 446.74664814025164,158.28514521790203 L 447.9381636418402,158.26359297402087 L 448.80332083441317,158.02959727676352 L 449.7562253307551,157.15827248376445 L 450.69219613820314,156.63178393026465 L 453.2122359238565,156.92427747725742 L 454.6500594969839,156.4101047552831 L 455.10419008135796,156.42242024865118 L 455.0287581998855,157.60778959208983 L 455.3966809529811,157.7463395028608 L 458.3061954509467,157.17982466024114 L 459.57314277626574,156.1083749360405 L 460.13657253049314,155.9144058956881 L 460.5722300130874,155.9698256299307 L 461.34348228015006,156.3670004865853 L 464.29917951859534,156.70875590815558 L 464.82566312886775,157.05974824688747 L 464.5177779812366,159.036395819654 L 464.57627617381513,161.4502634733799 L 465.5014709699899,161.43794777910807 L 466.0956892799586,161.6011309355381 L 467.00241097435355,162.6356533788785 L 468.0292079113424,163.22989015336498 L 469.1483703572303,162.22923330173944 L 470.31525501795113,161.59497309935978 L 472.919963221997,161.29631717558368 L 473.4187371339649,159.95698824920692 L 475.3876625560224,160.30798412195873 L 475.80330749228597,159.50746784970397 L 477.79994258470833,156.98277623046306 L 478.0831968896091,156.03448194556404 L 478.411094551906,155.55417784544989 L 479.1515583265573,154.87066901809885 L 480.961922891438,153.75304148206487 L 481.21130984835327,153.34355306098587 L 482.405904147774,152.45992097820272 L 483.24489114433527,151.9919349521224 L 484.3132525514811,151.65326098987134 L 485.66024999693036,151.66249756349134 L 487.5060213841498,152.02272350969724 L 488.0987002514303,151.8287556611176 L 488.9484631959349,150.97899216553196 L 489.7859107796103,150.60952988901408 L 491.1867881193757,149.35951617048704 L 492.9201814197004,148.2942335230473 L 493.63601432181895,148.04484649351798 L 494.21637782640755,147.6261225065682 L 495.88357581198215,147.30900060164277 L 498.32510492019355,146.28989954970893 L 497.97180673852563,145.83422863908345 L 496.91730013489723,145.16919493750902 L 496.04521549493074,145.01217300415738 L 494.77749846316874,145.13532747942372 L 493.9754576999694,144.60268424410606 L 493.20805399492383,144.67657698012772 L 490.705717574805,145.90196351901977 L 489.7551222573966,145.85270178329665 L 488.21107830666006,146.30221496275044 L 487.7761905621737,146.15750867774477 L 487.6091628745198,145.64026052411646 L 487.7523294854909,144.98138440406183 L 488.31345012038946,144.08851375849918 L 489.52266898937523,144.0361730135919 L 490.5079013928771,143.22950924540055 L 491.98882888257504,142.53368362766923 L 492.3290419373661,142.09956176631385 L 493.2834858763963,138.73432930748095 L 493.83460023999214,137.47197221918032 L 494.68667236343026,136.2988978997455 L 495.5795392245054,135.56610822724178 L 496.4223747830838,135.44910792380688 L 497.70548609271646,134.3714707120671 L 498.1018881909549,133.7495173587231 L 498.6660877112299,133.8172549805313 L 499.00399161688983,133.2876694909064 L 499.156394764781,130.87988253499498 L 498.82695768773556,130.3318134941219 L 498.14807093143463,129.93461614928674 L 498.01260150410235,129.58052462656633 L 498.1865566074848,128.43818862110493 L 497.9217754062265,127.22502360848011 L 499.244911743328,122.72943626155029 L 499.26107569783926,121.6701761391887 L 499.9930726122111,120.786424742284 L 500.0,120.58627096869168 L 496.3815800175071,120.43230620684335 L 494.6635809633881,122.21520374034299 L 494.4796196166426,121.95346768619493 L 490.08686848171055,104.71104023430962 L 489.69970292039216,103.6761820409738 L 487.3628547731787,101.31072809529724 L 474.2623423989862,86.04373501575901 L 458.3539176341146,73.85674796847161 L 456.58665695413947,72.78424094902584 L 421.338427644223,60.358720098796766 L 419.14474608004093,58.44100692853681 L 416.1336294747889,54.401714843465015 L 414.2755426950753,52.74576099656406 L 412.9870434422046,50.44824385509128 L 411.54998957552016,49.21768812224036 L 411.546910719946,48.56383783783531 L 411.8909723665565,48.02100752273691 L 412.73457763157785,47.25917723405291 L 412.7976940628141,46.43872184501379 L 412.5236762929708,45.82799150928622 L 411.5369044467807,45.519536793086445 L 410.65943183377385,44.93963275512215 L 410.37463805638254,45.48252198274713 L 409.73962501063943,47.84828665005625 L 409.36708398908377,48.147463243454695 L 408.0762755572796,48.508321586297825 L 407.45203846134245,48.5946801736136 L 406.9509554002434,48.44355247638305 L 406.62536688521504,47.87912975199288 L 406.8347287811339,47.101873684325255 L 406.5891903862357,45.485606584494235 L 405.4138388969004,42.33299946296029 L 405.4631005227566,39.781650441727834 L 404.7149396240711,39.49472417295328 L 405.08055325970054,37.035668681550305 L 404.89890100061893,36.46175285844947 L 404.1722920909524,35.7520543532446 L 403.38872443139553,35.29228267350118 L 403.081609018147,34.71524207244511 L 402.8683985620737,34.14436014860985 L 402.5766773968935,31.727997565089026 L 402.0378784239292,31.376170466450276 L 400.96028045006096,31.141616264969343 L 400.65701360069215,30.826816346438136 L 400.51307731308043,30.336090790951857 L 400.54232639446855,28.55828531572479 L 400.2236652672291,27.234105666691903 L 398.40791269764304,23.43092211172916 L 397.8668046053499,21.541447248106124 L 397.31876903772354,21.08449200470932 L 397.0716912318021,20.457707353081787 L 397.1078677289188,19.336861916235648 L 397.348018148914,18.22831231795135 L 397.710552867502,17.657032615679782 L 398.418688705191,17.22470304989838 L 398.33863855712116,16.74295440915739 L 397.4480808135122,15.482946436095517 L 397.36264269053936,13.762670725292992 L 397.094012895599,13.280845362081891 L 395.960995644331,12.530288165580714 L 393.23313337378204,11.439925453072647 L 391.9885076843202,10.73563869544887 L 390.6307342592627,9.481455504952464 L 390.0734621845186,8.712227062147576 L 389.7378673981875,7.890449547645403 L 389.75941935554147,7.0717288336891215 L 390.4313786663115,5.727720091061201 L 390.5837817825377,5.013968996383483 L 390.2681995406747,4.420702165836701 L 388.1969023048878,4.108612090174574 L 387.8790109138936,3.6172921113902703 L 387.334823936224,1.5329102966061328 L 385.70688130520284,0.0 L 384.5084384456277,0.9364493334724102 L 383.4154461938888,0.8406430627510417 L 381.3757072184235,1.3938406995148398 L 379.262075772509,1.3165794085070956 L 378.57857077755034,1.4989156126684975 L 377.45171120762825,3.20321437966777 L 376.3487127125263,3.7841568543808535 L 375.83454452455044,4.896552982740104 L 374.1888984963298,6.015067324915435 L 373.87716481648386,7.241654696961632 L 373.0974457189441,8.712227062147576 L 372.7549235150218,10.48542584865936 L 371.8866874370724,11.75808240121114 L 371.90669998154044,12.400559564906871 L 372.5932838022709,13.623683755897218 L 372.6679459773004,14.062261774524814 L 372.5016879979521,14.343317667429801 L 371.8959240037948,14.698492967145285 L 370.9953599590808,14.791146402218146 L 370.3380252197385,15.217347255907953 L 368.8340063299984,16.705896366387606 L 368.0104136392474,17.116619343840284 L 366.9335853718221,16.971477512444835 L 365.90678843669593,16.36001848540036 L 363.90630481392145,15.742365786805749 L 362.80022746510804,15.915310287527973 L 361.43398721143603,17.616888090386055 L 360.6788989249617,18.31477498629829 L 358.3574449978769,18.614303802489303 L 356.94964024052024,19.478900521731703 L 355.4487002361566,20.99186479175114 L 353.8338427320123,21.442646881361725 L 353.64372364617884,21.766833957721246 L 352.3452181201428,21.578497260372387 L 351.7132838703692,21.316058281896403 L 351.2098916899413,20.69545527244918 L 350.6818686965853,19.17629545935779 L 350.2131135724485,18.66988600915647 L 347.9224481675774,16.90971475437982 L 346.4161201585084,15.99560550460592 L 345.6525650434196,15.958546228677733 L 343.8214182257652,16.89736216404708 L 343.4173189755529,17.258672122407006 L 343.15638633444905,17.885546261590207 L 343.2679946832359,18.395061440445716 L 347.20738494209945,23.63467975606909 L 347.5360523406416,24.2953361896798 L 346.1613452285528,24.12554308975814 L 344.8713065031916,23.742732318962226 L 343.8321942053735,23.853871577448444 L 343.20179939828813,25.17515331238974 L 343.30878948047757,26.30188855587039 L 342.5075184237212,27.731067440268816 L 342.5629377607256,28.305184348893818 L 343.1656228993088,29.777454101102194 L 343.9353357255459,30.57682530223974 L 345.087595814839,30.78052189940354 L 346.309130076319,30.55213468807051 L 347.5660711284727,29.876219535886776 L 348.124882645905,29.76202197695966 L 348.7468106225133,30.067576391011244 L 350.1038143411279,31.903909270156873 L 352.425268240273,32.97169735812349 L 352.8986416030675,33.505574318929575 L 352.9047993142158,33.820340351143386 L 352.19820294715464,34.47146167323808 L 352.08043688721955,35.54839809203986 L 351.21912822686136,37.10663588668103 L 351.07981020770967,37.7083065364568 L 351.36152509972453,38.374756327830255 L 351.1206049732864,39.756968730449444 L 351.37537993490696,41.222405674285255 L 351.1190655604005,42.40703744086204 L 350.3747532553971,42.82966699398821 L 350.66339556500316,44.72987729473971 L 350.40169321745634,45.21107871571439 L 349.7297339066863,45.58122799533885 L 349.6627688854933,46.20430168136954 L 349.90753757208586,47.345539577363525 L 349.4880440738052,47.669396070356015 L 348.3596450611949,47.96857452750555 L 347.6713960953057,48.3275701776729 L 347.66170927882195,49.071007963764714 L 348.0617175102234,49.311427325650584 L 348.67991206236184,50.498924186918885 L 348.2726309429854,49.45956352134817 L 348.45808931067586,48.84758618235355 L 348.8156724460423,49.124434670375194 L 348.98294860869646,50.06181436049519 L 349.2884094696492,50.498924186918885 L 350.1029717102647,49.68298060487723 L 352.66302446089685,50.2949404019746 L 353.4969810191542,50.18566281159292 L 353.78304753266275,50.2949404019746 L 354.5963976290077,51.212856273457874 L 356.0376394521445,53.98100311867893 L 356.7043198477477,53.854742312192684 L 356.84250451624393,53.14330129988957 L 356.6315910834819,51.71794069829048 L 356.9515976626426,51.90734517673263 L 357.5552464686334,52.85192132170778 L 358.77466554008424,53.665350062423386 L 359.21588675677776,54.17767760856077 L 359.6692294329405,55.47424087804393 L 359.80741410143673,56.625077418779256 L 361.5492681544274,59.90497482405044 L 361.25229235365987,60.424483809416415 L 361.36017335765064,61.09934769154643 L 362.74929287843406,65.83029587188503 L 363.7384041696787,67.79384924890473 L 364.48144978657365,70.22569049173035 L 365.7166267503053,71.65268382220529 L 365.9711774531752,72.18172532963217 L 365.8196591809392,74.23229813249782 L 365.4172266628593,75.273316437233 L 365.3202549479902,75.43832378566731 L 364.0911387298256,75.54509287606925 L 362.60383535176516,78.64612535669585 L 362.5747438278049,80.80554765736451 L 362.36261825077236,82.5815293501364 L 362.5929260328412,83.63932000339264 L 361.9359427820891,84.5321144532063 L 361.7347265239805,85.09010194599978 L 361.7529087290168,85.44915113016032 L 362.1674627084285,86.300668629352 L 361.9359427820891,86.66698611280299 L 362.3965583462268,87.15217041171854 L 363.2329392209649,87.50635174935451 L 363.60385595820844,88.53976982133463 L 364.5881186462939,89.09285763092339 L 364.8038806822151,89.73811870577629 L 362.8450524508953,88.58828654466197 L 362.74929287843406,87.79988360957941 L 361.5650260746479,87.63977555418387 L 361.34562760964036,87.38990886081592 L 361.0401667486876,86.43166991436738 L 360.7456152327359,84.37684714759234 L 360.92743717320263,83.51316281611798 L 361.8341225255281,81.93374125013361 L 361.902002716437,81.02876251141424 L 361.43896286562085,75.2223581551516 L 360.91652785614133,73.68629834288731 L 359.81105053052306,72.5869951863715 L 357.86919233202934,71.75460983384983 L 357.56979221478105,71.90264473645948 L 357.3952431641519,72.30306406042655 L 356.52007362246513,72.31277114801924 L 355.9273341335356,72.67678494084976 L 355.768542971462,73.16698467658716 L 356.1673390902579,73.63291126966942 L 357.0558422356844,74.23229813249782 L 357.460699070245,75.30728859850205 L 357.7685841880739,75.57178512582323 L 358.57102496549487,75.65914136933861 L 359.1637644544244,75.05007009586552 L 359.49710466712713,75.0306573000853 L 359.9165072478354,75.45288321733824 L 359.71771527454257,76.08378711520345 L 359.58437917754054,75.45773637993261 L 359.1819466613233,75.58877106645377 L 358.4789018537849,76.27062979515176 L 357.8255550619215,76.19540750639862 L 356.79886724613607,75.75863021973055 L 356.6315910834819,76.17599527401035 L 356.7564421184361,76.83115258370526 L 357.31645365431905,78.10503898546449 L 357.5552464686334,79.18963092603371 L 358.4789018537849,79.52931829367299 L 359.31043415516615,80.72790742147481 L 358.32374715059996,80.1358960068319 L 357.443729005754,80.15530635873438 L 356.84250451624393,79.56086056053755 L 355.5564173962921,76.24151149805402 L 353.523648256436,73.39024187112227 L 352.60484144464135,72.39528124706703 L 351.63754875957966,71.97544856119202 L 351.1914789713919,71.30564795792452 L 350.91632177494466,71.14304962632013 L 350.63146743550897,71.14790333548444 L 350.21448914147913,71.65268382220529 L 349.7781165279448,71.84682836337015 L 349.49205001443624,71.6235620706866 L 349.38780544139445,71.13091539533343 L 349.49205001443624,70.53147939877817 L 350.5223742891103,69.36898257018765 L 350.5102528296411,68.38604921899969 L 350.2108527123928,68.11422092234716 L 349.52720225416124,68.20644860668108 L 348.2726309429854,68.69913460221142 L 346.0156147368252,70.53147939877817 L 345.01801844500005,70.73533725284506 L 343.8834495972842,71.4633919429034 L 340.71974803879857,75.19323908584192 L 338.2603034321219,77.4911520521855 L 336.43102871999145,78.22249106093659 L 335.4639704488218,78.1896699902718 L 333.8868799768388,78.7140639219433 L 333.3377777580172,78.96397993105347 L 332.0856307335198,80.07038605515845 L 331.42864751257,80.32029389895615 L 330.6043880973011,80.38337721876451 L 330.37892891839147,80.65269333068863 L 330.20316769368947,81.65958079489064 L 329.97407208383083,82.10842664030497 L 329.0746595915407,83.22930784910568 L 327.9703944399953,84.11483231600141 L 327.6443271152675,84.91057627202827 L 327.7582688331604,85.04158157354686 L 327.9958495032042,84.9833570519113 L 328.26737024076283,84.63400834446657 L 329.5413359012455,84.33560416277032 L 329.6913241147995,83.82687132823048 L 330.07885799743235,83.4078287652519 L 330.8219143990427,83.43986580046476 L 331.8875032495707,83.82615271615214 L 333.40412753261626,85.04940059379442 L 334.56470976397395,85.62845950160408 L 335.62889236211777,86.81874375135521 L 335.85328429564834,88.58993102895329 L 335.10629904828966,90.66475695345434 L 335.2387182787061,90.97571917856112 L 335.98023648932576,91.26451400417136 L 336.0687431320548,91.99161458737217 L 335.1643789932132,95.92081273000804 L 334.52204459160566,97.72557909434545 L 333.62505641393363,99.07893999182852 L 332.9244358930737,100.80818851289223 L 332.5147304870188,101.33689678658266 L 332.3341207206249,102.15662806201726 L 332.4541231840849,102.49615850744885 L 333.498619671911,103.23115013973438 L 333.3777785692364,104.790366227302 L 334.00102474167943,105.36037030231091 L 334.8578610736877,105.44901844035485 L 335.1879072599113,107.35528543958208 L 335.05362426675856,108.0398346236907 L 335.1809491291642,108.46566551193246 L 335.6978928539902,108.71700366892037 L 335.6504259686917,109.44373595670913 L 332.9892289470881,112.79708087665495 L 331.54258926026523,115.34371613839176 L 330.5288642849773,117.7345205884194 L 330.724561881274,118.34858208452351 L 331.8893118426204,119.48013066701242 L 333.179964562878,121.1564454115578 L 333.50232423096895,121.28544157592114 L 334.3412253446877,121.15817842786782 L 335.1466664224863,121.57720650621923 L 335.59781556390226,121.4811616622901 L 336.3061318974942,121.73884343833197 L 336.24269495904446,121.4778568840702 L 337.2406422626227,121.18875520990696 L 338.0459551271051,121.88248017182923 L 338.367682447657,121.97900524875149 L 338.6572347134352,121.56090253655566 L 339.4615997597575,121.43248742466676 L 340.20144766010344,121.72207843718934 L 340.8449521418661,122.30143352755113 L 341.5203196927905,123.00911040272331 L 342.45273888111115,127.3707565132645 L 342.9993885420263,128.8500064391992 L 344.0446650441736,131.06959473059396 L 344.44694563373923,131.42332889753743 L 345.2505959048867,131.6157935547235 L 345.31473176926374,130.8438014817948 L 345.7322073727846,130.2324479398667 L 346.5373200196773,129.8793755240331 L 348.91427371650934,129.74998426259845 L 348.9145984239876,130.1037135020306 L 347.1814478505403,130.523096195393 L 346.5700042396784,130.5229254004662 L 346.1518660839647,130.84458517647 L 345.4422034639865,132.38578646985115 L 345.02445182949305,132.5467401658243 L 344.7997652757913,132.86886065022554 L 344.3549744784832,135.27593498447095 L 343.9324830044061,136.21638115966925 L 343.3856155499816,136.85925926279742 L 343.0320999622345,138.11691427286132 L 343.3542194943875,138.538553704042 L 343.9647380746901,138.59713826180086 L 344.9308602325618,139.37367828542483 L 346.1634965799749,141.30528277377016 L 346.76270082220435,142.8399469764554 L 347.40538772568107,143.06533812568523 L 348.1788164898753,144.31924988635 L 348.72530254535377,143.8368232206849 L 350.91492317803204,145.31643023199285 L 352.6878052651882,147.24746905147913 L 354.607306946069,149.68851706635905 L 354.87882768176496,150.64611263779807 L 355.8418097682297,151.03333271972951 L 356.29192818515,152.15886854808195 L 356.7200777363032,154.720144126768 L 356.4449205715209,156.70565295487177 L 356.377040380612,158.96027204967686 L 356.73341134004295,160.11546744633233 L 357.19281476177275,159.81242518109502 L 357.443729005754,159.14573333680164 L 357.66555175743997,159.14573333680164 L 358.0910150837153,160.3651745118259 L 358.02071060426533,160.74215993226971 L 357.443729005754,161.4003704834031 L 356.52371005155146,163.149546693312 L 356.5297707952559,164.4090108150267 L 357.25827063806355,165.50604824128095 L 357.31645365431905,166.1279077481595 L 356.73825994320214,168.10381161779515 L 356.05097305588424,168.68325308608473 L 355.13095409981906,168.9063022636983 L 354.86670622229576,169.26512121671112 L 354.5963976290077,170.18399268374196 L 354.58548831008375,171.46654368090094 L 354.92367709614336,172.72486192084034 L 355.56247813999653,173.79165412543807 L 356.4449205715209,174.49234777066158 L 357.39039459079504,174.18321772268973 L 358.3782937396318,174.2705014082312 L 358.8219392411411,174.39779025618918 L 359.40740584023297,174.94331546447938 L 361.92745778150856,175.58703854650958 L 362.4886814597994,176.00891559780575 L 363.0826330911368,176.21379322576104 L 363.98931844346225,176.93389880057657 L 364.8038806822151,177.93284125174978 L 367.29605324193835,178.82025944525958 L 368.07667538523674,179.37671833694912 L 368.2488001510501,178.7984375883534 L 367.6499999165535,176.93389880057657 L 367.7881845869124,176.48898452721187 L 368.6851727645844,175.6961445393681 L 369.2948823161423,174.6596420481801 L 368.80759954452515,175.9955803840421 L 368.2984981369227,176.5108058967453 L 368.4815322197974,177.1205936287879 L 368.50335085392,178.4347407456953 L 368.76396227255464,178.85299223961192 L 369.2948823161423,179.1524371514388 L 370.57854512147605,178.78388969635125 L 371.9870589915663,179.58039036937407 L 374.0113431289792,181.42800644107047 L 374.6513563171029,181.59409973750007 L 376.74836921691895,181.42800644107047 L 377.68657037988305,181.75655622855993 L 378.7920477036387,181.80262600400602 L 379.5023653693497,182.0390372319962 L 380.21874378062785,181.66077958303504 L 382.6733398158103,182.24271506580408 L 383.2224420327693,182.53368423104985 L 385.47097320854664,185.5125378119701 L 385.90613367781043,185.75017178128473 L 386.6406942643225,185.4979888246744 L 387.2225244361907,185.0130238145357 L 387.5970776323229,184.40318440514966 L 387.8589011952281,182.83556575721013 L 388.4286099039018,183.13744832674274 L 388.7389193382114,183.57996885481407 L 388.9643785189837,185.4470673748874 L 389.72803062945604,186.51399996402324 L 390.00076350942254,186.1417843515228 L 390.54016858153045,186.31031173976953 L 390.8092650324106,186.562497236504 L 390.9474497027695,187.32754578223103 L 391.43352030031383,187.87920991439023 L 391.9292881041765,187.95923182781553 L 393.1862837020308,187.5312366989383 L 392.96930952370167,187.96165675998782 L 391.3353364728391,188.364192646608 L 391.1280594691634,188.7824927919719 L 391.49291546083987,189.52331422644784 L 392.6056656744331,190.63152929584612 L 392.7777904383838,191.0268049298611 L 392.71475881896913,192.21022023813566 z" /><path fill-rule="evenodd" fill="#D2EBD9" stroke="#A6A6A6" stroke-width="0.25" opacity="1" d="M 356.0376394521445,70.1261871883471 L 357.38918244838715,70.08250272471923 L 359.4364973641932,68.81805778754642 L 360.7165237404406,68.49526534698089 L 360.58561192825437,68.05111764729372 L 359.97711455076933,67.40066187427146 L 358.4789018537849,66.75504848820856 L 357.96495187468827,66.09243296130444 L 355.8873812239617,62.32782168890117 L 355.4040910471231,62.13071207946632 L 355.01030010543764,61.68298007969861 L 355.0284227617085,60.984816646174295 L 354.57457899302244,60.55800116114551 L 353.9181645177305,59.44395399847417 L 352.85211925953627,59.55053867623792 L 351.75270264968276,59.050437266269 L 351.02662709355354,59.10870190625428 L 349.89933113381267,59.51655144421966 L 349.7231585737318,60.175275041663554 L 349.90355078689754,61.23280792465084 L 350.0106289871037,64.81529890248203 L 351.11996234953403,67.06814819030114 L 351.5454256758094,68.27440569913597 L 351.9708889722824,68.58021099522011 L 353.78304753266275,69.10686963103944 L 356.0376394521445,70.1261871883471 z" /><path fill-rule="evenodd" fill="#D2EBD9" stroke="#A6A6A6" stroke-width="0.25" opacity="1" d="M 70.01477604173124,109.55314068071311 L 70.80751964636147,109.29366997376201 L 71.40631988085806,108.6607514990319 L 71.44510854780674,108.01570240629371 L 70.55054465681314,107.71985085419146 L 69.57355482690036,107.84110163417063 L 67.16623249091208,108.94204930306296 L 67.77715418674052,109.55314068071311 L 70.01477604173124,109.55314068071311 z" /><path fill-rule="evenodd" fill="#D2EBD9" stroke="#A6A6A6" stroke-width="0.25" opacity="1" d="M 48.58403140679002,112.10415037281928 L 48.9319173656404,111.79376595417853 L 48.990100383758545,111.38153467635857 L 48.72706467844546,110.97415101272054 L 48.19614463672042,110.79228261768003 L 48.19614463672042,110.16422697139205 L 48.02886847406626,109.97750670430833 L 47.051878644153476,109.3785436655453 L 45.76821580901742,109.4949417221651 L 44.313640382140875,110.57161501795053 L 44.844560423865914,111.27241427707486 L 45.23123505152762,112.59639818454161 L 45.5221501365304,113.06439446451259 L 45.866399666294456,113.22928368885187 L 46.145193291828036,112.80736057835747 L 46.73672063648701,112.96255093990476 L 47.55128287523985,112.80008601109148 L 48.27372200228274,112.46303084504325 L 48.58403140679002,112.10415037281928 z" /><path fill-rule="evenodd" fill="#D2EBD9" stroke="#A6A6A6" stroke-width="0.25" opacity="1" d="M 80.53620496019721,129.05245284660487 L 80.90712169744074,128.81970392278163 L 81.29622061178088,128.8245528501866 L 82.05259983427823,129.1736760813219 L 82.12411648407578,128.05356930699782 L 81.57622640952468,126.83889759512385 L 80.71439043991268,125.76483705441933 L 79.83316018246114,125.0665714617644 L 78.77253227122128,124.75865445425734 L 78.20524784736335,123.42272154861712 L 77.2015908099711,122.08919728032197 L 76.29975403100252,121.64549372892361 L 74.8306328561157,121.60912450580508 L 73.4912113212049,120.97872255404945 L 72.27058010548353,121.60912450580508 L 70.94812860153615,121.89522876238334 L 70.90449133142829,122.16920920272241 L 71.09237401746213,122.48925629397854 L 71.7032956816256,123.17056546884123 L 73.28757074661553,124.04826013217098 L 73.60151661001146,125.0665714617644 L 75.1494272928685,125.40115756826708 L 75.49852539598942,125.74059179099277 L 75.9506559278816,126.6958516916493 L 77.40401921235025,128.22328301952803 L 78.47798072732985,128.61604828457348 L 78.79798733629286,128.93365394088323 L 80.17498539760709,129.1979207159602 L 80.53620496019721,129.05245284660487 z" /><path fill-rule="evenodd" fill="#D2EBD9" stroke="#A6A6A6" stroke-width="0.25" opacity="1" d="M 54.20596542954445,133.4430979747558 L 54.54657853022218,133.13762340424 L 54.09444799646735,131.188391915377 L 54.31748289056122,130.06830052222358 L 54.0023248847574,129.1736760813219 L 53.50292065180838,128.9748699044867 L 52.828967368230224,127.96143890538951 L 52.193802781403065,127.33349581607035 L 50.58164833672345,127.3189488442149 L 50.27739964798093,126.6328144717263 L 49.883452132344246,126.33217492842232 L 48.80706630088389,126.28853363820235 L 47.148850329220295,126.76373791211518 L 46.42883548885584,127.3189488442149 L 45.534271597862244,128.54331406901474 L 44.542736019939184,128.62574618309736 L 43.702718717977405,129.1736760813219 L 43.702718717977405,131.00171057650005 L 44.20818366482854,132.5000041287858 L 45.10759615898132,133.6297766288044 L 46.20458845235407,134.17041633449844 L 46.87490527704358,134.2455724219617 L 47.77189348451793,134.0540455847513 L 48.58403140679002,134.4443722081487 L 51.40833203680813,134.7643909380422 L 52.060466684401035,135.08925792516675 L 52.69078269787133,134.66499124842812 L 52.75745074637234,133.7485720316763 L 54.20596542954445,133.4430979747558 z" /><path fill-rule="evenodd" fill="#D2EBD9" stroke="#A6A6A6" stroke-width="0.25" opacity="1" d="M 18.185829281806946,135.98627603033674 L 15.834265677258372,134.99228277089424 L 15.014854865148664,134.86863935753354 L 14.102108769118786,135.385031907761 L 12.658442659303546,135.88445256772684 L 12.066915314644575,135.88445256772684 L 10.960225846618414,137.45543831493706 L 10.7129480317235,138.124558688869 L 10.512943916022778,139.4918863576895 L 10.134754288941622,140.61435084798723 L 10.218392370268703,140.99012101301923 L 12.828143138438463,140.9222400051658 L 13.934832606464624,141.48710675165057 L 16.00881472788751,142.05197265272727 L 16.56034123338759,141.8046923885413 L 18.23310298100114,140.3064614321629 L 18.185829281806946,135.98627603033674 z" /><path fill-rule="evenodd" fill="#D2EBD9" stroke="#A6A6A6" stroke-width="0.25" opacity="1" d="M 43.093009166419506,140.99012101301923 L 43.49544171243906,140.75738598732278 L 43.29664974100888,140.21918561961502 L 42.44451097585261,138.64336823133635 L 41.9051059037447,138.46154256668524 L 39.95718698948622,138.93428902202868 L 37.878356263041496,138.93428902202868 L 36.21529169008136,139.62764900317416 L 35.54982343688607,139.36097227680148 L 35.13648160174489,139.8652335354709 L 34.63465308398008,141.26649365885532 L 33.8843345772475,141.3974069308315 L 35.14981520548463,143.14291308345855 L 35.22618039883673,143.54049962869613 L 35.047994919121265,144.06899827634334 L 35.294060591608286,144.5877992209862 L 35.78376764804125,144.97083884169115 L 36.3437791839242,145.0775080943713 L 36.559541219845414,144.91992853340344 L 36.77045465260744,145.0775080943713 L 37.35713342577219,144.6581039831508 L 41.083270804956555,143.48231625609333 L 42.633605774492025,141.74166015689843 L 43.48089596629143,141.19376404577633 L 43.093009166419506,140.99012101301923 z" /><path fill-rule="evenodd" fill="#D2EBD9" stroke="#A6A6A6" stroke-width="0.25" opacity="1" d="M 35.75225186906755,127.71171670194599 L 36.313475547358394,127.46441855022567 L 36.3437791839242,127.01588640868431 L 35.22618039883673,126.40006134318537 L 34.29161569662392,123.48091132994159 L 34.34616228379309,122.20557823308627 L 33.701300494372845,122.40439539856743 L 32.2588465269655,120.5713838430529 L 31.75459372252226,120.80414902084158 L 30.316988358274102,120.77505338797346 L 29.746067475527525,120.61987662766478 L 28.78968413732946,119.91672889195615 L 25.375068336725235,118.78683261523838 L 21.577414305880666,119.18448003858794 L 18.227042265236378,119.13598651703796 L 17.59915053844452,119.33480972572579 L 17.150656435638666,119.7615507665032 L 16.85489277727902,121.42970281359158 L 15.913055187091231,121.60912450580508 L 15.17122171074152,122.77778274533921 L 15.441530304029584,124.13554429632495 L 16.25609254464507,125.4108557071886 L 17.150656435638666,126.28853363820235 L 20.627091713249683,128.54331406901474 L 20.886490989476442,129.1227623411978 L 23.141082908958197,129.7603951486817 L 23.819884764030576,129.67553923785454 L 24.80657176859677,129.16397822037106 L 25.434463495388627,129.256107828347 L 26.036900158971548,129.96889806113904 L 26.31205732561648,130.9047331798065 L 26.72782347537577,131.36537531527574 L 27.17268112115562,131.188391915377 L 27.52783996798098,131.68055076050223 L 27.549658603966236,132.12664422547095 L 26.952070511877537,132.83457271181396 L 25.324158176779747,133.4430979747558 L 23.912007877603173,135.0407703538658 L 23.34593559615314,136.10749441964435 L 23.06835414469242,137.10633129812777 L 23.024716874584556,138.27244376184535 L 22.662285167723894,138.54881891072728 L 21.847722928971052,138.75246355310082 L 21.45862398482859,139.36097227680148 L 19.6501018833369,140.32585603071493 L 18.9640271384269,141.0798209371569 L 19.000391520559788,142.02530516215484 L 18.406439889222383,142.37683077604743 L 18.02582597732544,143.0313948697003 L 18.084008995443583,143.6423204918101 L 18.79675097577274,143.85565944289556 L 18.047644613310695,145.06781088758726 L 17.93491500802338,146.8714883113862 L 17.523997459560633,148.626676976186 L 16.862165635451674,149.11880835297052 L 15.942146679386497,149.14789984721574 L 14.9130345787853,148.75516448469716 L 13.883922446519136,148.04969524629996 L 13.360275292769074,147.93575345515274 L 12.76996012032032,148.2472751358291 L 12.160250570625067,149.05456458899425 L 12.131159076467156,149.52124090288999 L 14.53848141245544,150.8594504466164 L 15.106977948918939,151.44855376289343 L 15.320315698161721,152.6388826809998 L 16.057300571352243,152.4037259524921 L 16.64761577360332,152.56857808536734 L 18.185829281806946,153.12737856965396 L 18.79675097577274,153.85830475500552 L 19.14948550797999,153.9649739745946 L 20.01617001928389,154.05952173704281 L 20.493755616247654,153.6279962536064 L 20.8283079713583,152.30554198476602 L 20.942249720916152,152.02796015836066 L 21.33740937896073,151.73946907219943 L 21.68893176689744,150.4667149783345 L 22.76410542614758,149.36366188453394 L 23.89988641627133,149.16002130808192 L 24.110799850896,148.63637412208482 L 24.086556928232312,146.51754113545758 L 24.63687128946185,143.1913992872869 L 24.96415078639984,142.67259688844206 L 26.32054235599935,141.41195287017035 L 26.43690839037299,140.55374272188055 L 29.98486028984189,138.36214450618718 L 30.83578691072762,137.10633129812777 L 31.444284288212657,136.90268528537126 L 31.258825920522213,136.311141118058 L 31.64792486280203,133.9449479529576 L 31.47337581217289,133.3824879868189 L 30.669722890481353,132.69395698499284 L 30.4285057913512,132.223620893521 L 31.092761900275946,132.66001527471235 L 31.28912958689034,132.40302758882171 L 31.444284288212657,131.39204405187047 L 32.70491634495556,131.15929874885478 L 33.32311089895666,130.83684895455372 L 33.274625055491924,130.17012735878234 L 33.691603349521756,130.1143650499289 L 34.31343433074653,129.69251044181874 L 34.51343844644725,129.33853952822392 L 34.309797901660204,128.93365394088323 L 34.70980613306165,128.76636556137237 L 35.75225186906755,127.71171670194599 z" /><path fill-rule="evenodd" fill="#D2EBD9" stroke="#A6A6A6" stroke-width="0.25" opacity="1" d="M 44.61910124309361,157.92387275083456 L 44.04333178885281,158.27539962471928 L 43.702718717977405,158.73844595524133 L 43.76938676647842,159.41483422502642 L 44.2409116178751,159.91303518752102 L 44.896682696416974,160.2330479323864 L 45.534271597862244,160.3651745118259 L 46.92339114844799,159.80393999430817 L 47.50279700383544,159.33483122792677 L 47.77189348451793,158.73844595524133 L 47.57552579790354,158.30449150607456 L 46.38277393206954,157.44385728857014 L 45.75488220527768,157.31536841686466 L 45.39729907177389,157.4341600383923 L 45.005775870755315,157.8390214680694 L 44.61910124309361,157.92387275083456 z" /><path fill-rule="evenodd" fill="#D2EBD9" stroke="#A6A6A6" stroke-width="0.25" opacity="1" d="M 36.15953298844397,168.9463057014509 L 37.374103458598256,168.26382453128463 L 37.74623234011233,166.91705424600514 L 37.267434598878026,165.97274570251466 L 35.93649806454778,166.50611575017683 L 36.147411527112126,167.13646430711378 L 35.94619523920119,168.41171540293726 L 36.15953298844397,168.9463057014509 z" /><path fill-rule="evenodd" fill="#D2EBD9" stroke="#A6A6A6" stroke-width="0.25" opacity="1" d="M 390.54016858153045,190.41812988277525 L 390.75593058764935,188.5848608367378 L 390.61168520338833,187.35664446433657 L 390.21773768775165,186.5770464478992 L 389.50620787777007,186.9213780273567 L 388.8952861838043,186.31031173976953 L 387.84677973389626,187.2632862800092 L 387.747383762151,187.81494991888758 L 388.18375637568533,188.45633972564247 L 390.54016858153045,190.41812988277525 z" /><path fill-rule="evenodd" fill="#D2EBD9" stroke="#A6A6A6" stroke-width="0.25" opacity="1" d="M 5.732239339500666,190.78309177584015 L 5.977092869579792,190.50785454091965 L 5.7746644373983145,190.23625586854178 L 5.54920525662601,190.50300456778496 L 5.732239339500666,190.78309177584015 z" /><path fill-rule="evenodd" fill="#D2EBD9" stroke="#A6A6A6" stroke-width="0.25" opacity="1" d="M 5.647389115765691,191.02316742320545 L 5.780725182965398,191.03165493899724 L 5.693450642749667,190.92980457903468 L 5.647389115765691,191.02316742320545 z" /><path fill-rule="evenodd" fill="#D2EBD9" stroke="#A6A6A6" stroke-width="0.25" opacity="1" d="M 0.0,198.89522136960295 L 0.1636397335678339,199.06620587935322 L 0.3503102455288172,198.93523896110128 L 0.3503102455288172,198.67330605673487 L 0.14666970074176788,198.62601273844484 L 0.0,198.89522136960295 z" /><path fill-rule="evenodd" fill="#D2EBD9" stroke="#A6A6A6" stroke-width="0.25" opacity="1" d="M 363.19448208250105,75.40022322960431 L 363.5112355966121,74.63169818132883 L 364.2347030043602,74.36087388385204 L 364.59665432199836,73.72811161741265 L 363.9640780426562,72.7782706701837 L 362.92452110536397,72.23524287278997 L 362.7894325405359,70.92412390327081 L 362.06631108000875,70.4717697853921 L 361.47860506922007,70.51675138415885 L 361.34271200187504,71.19482603034703 L 362.38134733587503,73.95307437962038 L 363.19448208250105,75.40022322960431 z" /></g></g></g></svg>