<svg xmlns="http://www.w3.org/2000/svg" xmlns:xlink="http://www.w3.org/1999/xlink" width="499.9700093474239" height="444.14379802625626" viewBox="0.0 0.0 499.9700093474239 444.14379802625626" preserveAspectRatio="xMinYMin meet"><g transform="matrix(1,0,0,-1,0,444.14379802625626)"><g><g><path fill-rule="evenodd" fill="#D2EBD9" stroke="#A6A6A6" stroke-width="0.25" opacity="1" d="M 391.455864014104,422.7865722840652 L 394.77916161715984,412.41120335739106 L 400.95790153741837,396.04255462717265 L 401.85085640102625,392.2587036145851 L 401.9397287219763,390.2930154115893 L 402.18518550880253,389.48486886452883 L 403.24318887479603,388.00404313765466 L 403.2347248774022,387.3583256518468 L 402.84537960216403,385.93953685229644 L 402.8623076789081,384.5579855889082 L 403.1458525955677,384.11146211391315 L 405.3803558256477,382.14677882241085 L 405.8331812657416,381.467549955938 L 411.3094069417566,365.7454863213934 L 411.64373600669205,362.32560254028067 L 415.0420429594815,352.9532108521089 L 416.09581438824534,348.10112271178514 L 416.0196381248534,344.84604067727923 L 416.30741506256163,343.7197540360503 L 417.59569632075727,341.1007095188834 L 416.4893746897578,340.2585618891753 L 415.60631673038006,338.41401247959584 L 415.08314652740955,338.21123208431527 L 415.40637905709445,338.09645455610007 L 415.3863853029907,337.85925637790933 L 414.76657856814563,337.43844989081845 L 414.66660975292325,337.1668581063859 L 414.82655987516046,336.8991067074239 L 414.2567375488579,336.69830297864974 L 414.54664714075625,336.2852475293912 L 414.0701290592551,335.8263389058411 L 413.1270898357034,334.33327844413 L 412.2840193863958,333.7216595681384 L 411.7908398360014,332.9113848977722 L 411.4476135522127,332.6973729864694 L 411.4476135522127,332.4088541427627 L 411.8041690196842,331.76118307653815 L 411.1377101633698,329.8435196396895 L 411.1377101633698,327.4246125849895 L 410.9177787359804,326.85013400856405 L 409.7448111847043,325.8101396164857 L 409.5448735523969,324.4022116018459 L 408.90840534865856,323.0919490144588 L 408.90840534865856,319.7139904014766 L 408.9917126968503,319.2642824300565 L 409.3982525728643,318.6850592698902 L 409.4882245324552,318.1211454211734 L 409.3649296350777,317.5725355613977 L 407.76876073889434,316.5783385839313 L 407.5055094733834,315.70620357245207 L 407.7387700844556,314.4687266233377 L 407.78542220778763,311.68650800175965 L 406.6924296785146,310.89133746922016 L 406.9323548618704,309.5409868811257 L 406.9323548618704,308.8602479635738 L 406.6924296785146,308.30888116918504 L 407.2255967799574,307.379303958267 L 406.8523798007518,307.1284055165015 L 406.7890662085265,306.87181820720434 L 406.9490163307637,306.24846232216805 L 406.859044412151,305.7581956582144 L 406.4791628625244,305.20717953378335 L 406.16925951465964,304.14712341316044 L 405.2095587812364,302.78724484005943 L 404.6397364549339,300.6323459302075 L 402.9935831092298,298.13878321507946 L 402.4337576813996,296.5662514572032 L 402.1938324980438,296.52073328755796 L 402.7269995585084,295.0909196091816 L 402.233820008114,294.1809100075625 L 400.4910301733762,292.6721816956997 L 400.7476168256253,292.3253911836073 L 400.1911236848682,292.0506291105412 L 399.8878849092871,291.43862811336294 L 399.35138552077115,288.85882741678506 L 398.78822780773044,288.05031285621226 L 398.0817814413458,286.371221838519 L 397.9884771965444,285.02949467720464 L 398.5083151143044,283.40249975956976 L 398.195079440251,282.33200148353353 L 399.931204745546,279.6246339925565 L 399.24764894507825,276.5916122365743 L 398.7609504815191,275.2912944108248 L 399.4682426135987,273.9918229319155 L 398.78822780773044,270.7226441144012 L 399.09479886852205,270.3754975250922 L 397.6952353194356,270.0585586549714 L 397.2553724627942,268.97017734637484 L 396.72220540232956,268.64201174816117 L 396.47228332050145,267.9687737347558 L 394.85278834216297,267.52754080016166 L 395.1560271177441,267.18250107672065 L 394.42958699539304,265.0788380783051 L 394.0330439750105,264.651050359942 L 393.7531312406063,264.651050359942 L 393.6231717709452,264.89603447308764 L 393.0133619364351,265.22395496070385 L 392.73011691495776,264.94314814079553 L 392.45353650674224,263.91616975842044 L 392.07698724232614,263.38862947467715 L 392.41354899667203,262.81781791336834 L 391.89704336598516,262.32052992098033 L 391.093960467726,261.9701974792406 L 390.05428467318416,261.8477752106264 L 390.3441942650825,260.84590804576874 L 391.8237329162657,260.8308438877575 L 391.8237329162657,260.5446335845627 L 391.5171618144959,260.5446335845627 L 391.5171618144959,260.2283147876151 L 392.07698724232614,259.28136005811393 L 391.5171618144959,259.59573681559414 L 391.5738108344376,259.3378334771842 L 391.8237329162657,259.28136005811393 L 391.8237329162657,258.93688586587086 L 391.5171618144959,258.93688586587086 L 390.60411320254207,260.30739264795557 L 389.82435638830066,261.1283691818826 L 389.0579287149012,261.62930596992373 L 388.4447865523398,261.83647482749075 L 384.4993502292782,262.27344083366916 L 383.51632341369987,262.91389056062326 L 380.77717757970095,266.25497102644295 L 380.5672430489212,266.40766232972965 L 380.2140198647976,266.3737305169925 L 377.8780816234648,268.52885614708066 L 377.3549114186317,268.80986386863515 L 376.81841207295656,268.8438121811487 L 376.34855856373906,268.47793696727604 L 375.7820685636252,269.71523084351793 L 375.5088204406202,269.42851357441396 L 373.71604615822434,271.09245724603534 L 373.2695187292993,271.3245478179306 L 372.8396527711302,272.117133399006 L 372.2431720774621,272.4738379698247 L 371.59670701622963,272.62105679512024 L 371.62003309838474,273.7819727426395 L 369.65731179341674,274.9998090141453 L 369.63731803931296,275.81941983895376 L 369.0608311407268,276.32560628838837 L 368.3610493466258,277.2776783714071 L 367.87786669284105,278.2828410244547 L 367.9611740410328,278.95936179719865 L 367.46466220356524,279.3411264452152 L 367.37802253104746,279.6246339925565 L 367.1214358769357,279.6246339925565 L 367.1214358769357,279.276866955217 L 366.81819710321724,279.276866955217 L 366.331682164222,279.9232794921845 L 365.6518941242248,282.3395660123788 L 365.43196273595095,282.6799826254137 L 365.13872081786394,282.47762105753645 L 363.46257686056197,285.30575852654874 L 358.1075800489634,288.5293465019204 L 356.7246779277921,290.7660830607638 L 355.4484092351049,292.06389314495027 L 355.45507384836674,292.3253911836073 L 352.8358905855566,294.27190339006484 L 352.40935691073537,294.72310374630615 L 351.75622727908194,296.0333362366073 L 351.3063675649464,296.5624582255259 L 350.82984948530793,296.80712532857433 L 351.08643613755703,297.1542320968583 L 351.08643613755703,296.80712532857433 L 351.386342626065,296.80712532857433 L 351.1064298916608,298.341788450256 L 350.4166449960321,298.45562683045864 L 350.07008638232946,297.83144546626136 L 350.82984948530793,297.1542320968583 L 350.1433968730271,297.38754717167467 L 349.7035340163857,297.9851119108498 L 349.47693801671267,298.844594639726 L 349.30699103698134,300.71776435989887 L 348.317299650982,302.91637905547395 L 349.6868725474924,307.05998090142384 L 348.94377095624804,308.0503306542523 L 348.723839526996,308.98954300396144 L 347.75080960989,309.61324967676774 L 347.48755838535726,310.47668289160356 L 347.19098418205976,313.4409088892862 L 347.5475396923721,313.8786565028131 L 347.61085324175656,314.28218057518825 L 347.13100287504494,316.9820874859579 L 347.62418242543936,317.61444105161354 L 347.33094054833055,318.2468772791326 L 346.85775475390255,318.76317412778735 L 346.60783271305263,318.7288796333596 L 346.52452536672354,319.23379530059174 L 346.2779355701059,319.5882203988731 L 345.9280446730554,319.7235185406171 L 345.5181725099683,319.57297576544806 L 345.09163883700967,320.1218125829473 L 343.98531716503203,320.72408026410267 L 343.5587834920734,321.1415186980739 L 342.84567255340517,322.85167748807 L 341.9859406352043,323.63546451507136 L 341.2994880247861,324.69025012198836 L 340.71300422772765,325.0088293030858 L 340.45974986068904,325.6517748488113 L 338.61365888267756,327.573491981253 L 337.0541451703757,328.2969588311389 L 335.65458162128925,329.4959774101153 L 334.9481352549046,332.04775237943977 L 334.0317543577403,332.5597989037633 L 333.76183851994574,332.9304935694672 L 332.86211905255914,334.97556234290823 L 333.0120723173022,336.7269886820577 L 332.8554544802755,337.5264336457476 L 331.75246509350836,338.0620218263939 L 329.7564208507538,339.4969291095622 L 330.0696565248072,339.4969291095622 L 329.9130386877805,339.8337165187113 L 329.22325379028916,340.1399075575173 L 329.5031664837152,340.49970715167 L 329.47650815732777,340.80785493180156 L 329.22325379028916,340.80785493180156 L 328.93334419839084,340.0384796280414 L 329.22325379028916,339.4969291095622 L 328.6700929328799,339.4969291095622 L 328.97666399367154,341.2270445092581 L 329.04330991208553,343.42887392127886 L 328.5634595453739,345.3558317325078 L 327.2705293837935,346.2716978387907 L 327.5171191394329,347.1302431183867 L 327.2705293837935,349.1660761469975 L 327.8036964442581,351.2718400415033 L 327.673736974597,352.57258831430227 L 327.2705293837935,353.38237920124084 L 326.27084109932184,354.6222804435529 L 325.9442762825638,355.44970208080485 L 325.00456930324435,356.4232120262459 L 324.14483738690615,356.8437843611464 L 324.35143963061273,357.3028079168871 L 325.00456930324435,357.89057690044865 L 324.9979047328234,359.2085216026753 L 324.47140224277973,360.1289961170405 L 322.79525824449956,361.78976455982774 L 323.3184284493327,362.2531159236096 L 323.0518448986113,362.7299733236432 L 323.3650805708021,362.90303835785016 L 323.0518448986113,363.07995590753853 L 322.38871836848557,364.03388693602756 L 322.57199453003705,364.2531646140851 L 323.0518448986113,364.3724252167158 L 323.0518448986113,365.6902639660984 L 322.79525824449956,365.6902639660984 L 322.26542346924543,364.54170348867774 L 322.21877134777606,364.0377338617109 L 322.7519384082407,363.0588023811579 L 322.79525824449956,362.4357773582451 L 322.49201946891844,362.4357773582451 L 322.39538293890655,363.03380284272134 L 322.07548269443214,363.3588068392128 L 321.6156260818243,363.3799617169425 L 321.0957882050425,363.07995590753853 L 320.41600016504526,363.33380570448935 L 319.61624955385923,362.8165050204843 L 318.9198000859469,361.9454916473478 L 318.5532477181405,361.14384049968794 L 318.5065955966711,360.2769806254655 L 318.7565176766366,359.5736152320169 L 319.33300457522273,359.0817062254064 L 320.25605004280806,358.85882687941194 L 319.51961302384734,358.2555684139952 L 315.47754017077386,352.60712633281946 L 314.2945757228881,350.4317236649804 L 314.0546505395323,349.6646242043935 L 314.0279921721667,347.7148326896131 L 313.7880669888109,346.9194252244197 L 313.21824466250837,346.2716978387907 L 313.21824466250837,345.9210420558229 L 314.117964129895,344.92286860430613 L 314.8210781700909,343.2660951470025 L 315.26760559901595,342.7739626066759 L 317.87345967814326,340.9705497082323 L 319.75620592199266,338.75072346813977 L 321.0358068998903,337.9778539710678 L 322.19877759180963,336.7652365863323 L 323.1918012648821,335.41527067357674 L 323.6116703264415,334.49384135054424 L 324.18482493795455,331.7898392127827 L 324.72465660981834,330.34578168252483 L 325.2844820395112,329.4959774101153 L 325.13452877290547,328.363775213249 L 326.37414224259555,323.2921844376251 L 326.40413289517164,322.2758373096585 L 325.7709969766438,321.51705347467214 L 325.5543978754431,320.9756826781668 L 325.1145350188017,320.7736372901127 L 324.9712463654578,320.358136523515 L 325.2844820395112,319.8626318834722 L 325.00456930324435,316.82591646164656 L 325.2744851410389,316.31934760697186 L 326.96395832300186,314.43065542029217 L 327.2705293837935,312.51415613340214 L 328.3635218720883,311.3821211340837 L 330.0696565248072,308.97433163644746 L 331.51587219536304,308.7195484195836 L 332.4322531335056,307.7271617795341 L 332.99541084840894,306.3130747554824 L 334.9714612942189,298.42906432412565 L 337.3607162721455,297.1542320968583 L 338.8469194956124,295.57632691785693 L 339.2301333323121,294.7420626501553 L 340.45974986068904,294.26052910787985 L 340.87295434996486,293.0284727709368 L 342.0492542274296,290.7509281653911 L 342.41913888044655,290.4156382102519 L 342.36915447190404,290.15613559633493 L 342.1092355325818,290.12961787497625 L 343.9253358580172,288.63159681949764 L 344.70842500030994,287.63190648378804 L 344.65177598036826,286.63241836521775 L 345.24492438696325,285.8488701186143 L 345.5181725099683,284.859202736523 L 346.60783271305263,283.40249975956976 L 348.550560221076,281.3203471186571 L 349.02707830257714,280.3240218781866 L 350.2466979753226,279.6246339925565 L 350.5499367509037,278.13923392491415 L 351.2363893613219,278.0088573517278 L 351.93617115728557,277.6517565441318 L 353.2957471963018,275.97995848441496 L 354.18546976707876,275.47191862855107 L 354.10216237977147,274.14257234567776 L 354.4087334405631,273.855600906536 L 354.8952484186739,273.738551530987 L 355.3284466639161,273.85937677603215 L 355.68166984803975,273.17222227482125 L 356.58138927444816,272.77205500844866 L 358.42748029343784,272.2756656240672 L 361.32657624967396,269.6095962491818 L 362.2629509437829,267.63313148217276 L 363.03937547281384,266.7092884965241 L 363.9324303288013,264.5794418808073 L 364.0224022883922,263.73340846411884 L 364.5822277162224,261.83647482749075 L 363.742489553988,261.83647482749075 L 363.2726360857487,262.8630283260718 L 360.36021094582975,264.36650690389797 L 360.08363049663603,264.36650690389797 L 359.7270750273019,263.3151550446637 L 360.08363049663603,262.46933441236615 L 361.2932533118874,261.088823673781 L 361.7431130260229,260.01556396344677 L 362.91941290162504,260.4655520459637 L 363.18266412615776,260.3864717031829 L 362.96273269690573,259.0893551269546 L 362.3195999227464,257.9882916486822 L 362.87942535057664,257.3861021907069 L 363.8824459221214,256.7538805482909 L 364.5822277162224,255.46334037696943 L 364.5822277162224,255.14733992423862 L 363.18266412615776,256.7538805482909 L 362.87942535057664,256.7538805482909 L 363.18266412615776,255.74926255783066 L 362.87942535057664,255.74926255783066 L 362.62283869832754,256.65228091040626 L 361.8997308630496,256.577023176942 L 361.1066448222846,255.93737805308774 L 360.6634497195482,255.14733992423862 L 361.6198181267828,254.64704628381878 L 363.46257686056197,251.67639630055055 L 363.19932559505105,251.01105908025056 L 363.18266412615776,250.07146593928337 L 363.862452166155,249.56791562214494 L 365.6518941242248,248.74881362821907 L 366.2583716735244,248.18153137760237 L 366.5616104491055,246.28854423156008 L 367.82121767289937,244.70033055869862 L 368.3810431007296,241.7167285582982 L 368.6609558351338,241.07895198324695 L 370.01719954796135,239.7811349160038 L 371.59670701622963,238.70487181656063 L 373.3294999934733,237.86501885624602 L 374.13591521792114,237.29332282347605 L 374.66908227838576,236.50429960433394 L 374.66908227838576,234.2747004381381 L 374.10925685055554,233.64534189272672 L 374.38916958495975,232.7014486179687 L 374.60243640094995,230.8965481366031 L 375.02897007390857,230.26385948201641 L 376.50184411369264,229.0585967823863 L 377.24827799014747,228.04444811074063 L 377.5481844805181,227.28116151317954 L 376.9350423589349,227.3634712775238 L 376.94170692935586,226.6264712573029 L 377.2282842360437,225.99804673204198 L 378.04802860319614,224.8536127312109 L 379.30763582512736,222.17303833924234 L 380.9171339459717,221.09110752725974 L 381.12706847675145,220.59226211998612 L 381.43363953754306,218.40687577426434 L 381.12706847675145,217.89895190484822 L 380.45394505001605,217.8634737818502 L 379.6342006828636,218.44609254272655 L 379.1676794588566,217.5833918307908 L 379.06771064177155,216.16080857813358 L 379.30763582512736,214.7516771228984 L 379.3176327235997,213.56307724537328 L 378.50788521394134,210.77829887438565 L 378.88776676543057,209.445189896971 L 379.4609213769436,208.96423539565876 L 380.78717447817326,208.5560180065222 L 381.43363953754306,208.1683341609314 L 381.86017321050167,207.52722778217867 L 382.2667130883783,206.11110793799162 L 383.59629847481847,204.35267046140507 L 384.1794499848038,203.09753621788695 L 385.57901353389025,199.06228004954755 L 387.56506088003516,195.42612360371277 L 388.5547522660345,193.95191498380154 L 392.013673691079,185.94666857924312 L 393.6131749153137,183.59011101862416 L 395.1560271177441,179.66976916510612 L 398.3816879298538,175.17807393427938 L 399.08813429810107,173.30023682117462 L 401.83394470252097,169.1949824122712 L 403.66670653782785,167.07694583619013 L 407.2255967799574,160.0074122035876 L 407.78542220778763,157.8578819418326 L 408.7784458808601,155.9380569923669 L 409.2083118390292,153.62408938631415 L 409.94808114506304,152.36971609853208 L 411.7241939585656,150.11625610804185 L 412.61058420315385,147.6149313915521 L 413.8368684872985,145.72632935876027 L 414.3267157524824,143.79049462405965 L 419.7416938301176,134.37335267383605 L 419.9016439523548,132.92301274323836 L 420.33899543248117,131.69830260658637 L 421.8143808487803,129.93161808419973 L 421.98432782664895,127.41736988164485 L 422.324221868068,125.89724918687716 L 422.6541189700365,125.3924696217291 L 424.8334393762052,123.57380540110171 L 425.539885783568,122.28036232059821 L 426.7195179052651,118.15067938249558 L 428.21267294324934,115.54345818748698 L 428.79641679674387,115.03555188886821 L 428.81219867803156,114.3097885446623 L 428.1484199408442,112.92228717077523 L 428.1530028767884,111.68610269809142 L 429.8385452888906,111.03170646121725 L 431.87504056468606,107.18436989281327 L 437.40951777249575,102.95813275268301 L 438.27924654632807,101.91067058779299 L 439.78565411642194,97.56260175071657 L 440.8949839770794,96.3523448719643 L 442.4547113124281,94.10492864903063 L 443.1377315223217,94.20958507293835 L 442.4521911330521,95.45488386927173 L 442.86711167916656,95.52438153652474 L 443.69791053049266,94.6601061723195 L 444.83910007961094,94.17670748056844 L 446.326017299667,92.62191160814837 L 446.9137538764626,91.37811386678368 L 447.0175570733845,90.06519785756245 L 448.26113275811076,89.3052867189981 L 449.53945929557085,89.54679751303047 L 451.6125851869583,88.9238700713031 L 452.4762534443289,88.47400701791048 L 453.0976635478437,87.81712877005339 L 453.96076722443104,85.81227823719382 L 454.6859412174672,84.84382897568867 L 454.40928264148533,84.42977217072621 L 452.9588055089116,86.19356684619561 L 452.3714727126062,86.2287455489859 L 450.26303245685995,85.23014964535832 L 448.6754864323884,85.88619235670194 L 446.7420912887901,86.05872689234093 L 445.98243534751236,86.36941021913663 L 445.2370768673718,87.30274329986423 L 444.81387552060187,87.44677937962115 L 444.77722025476396,87.67469192156568 L 443.2776878885925,88.19618966104463 L 442.90893849916756,87.92204001965001 L 442.3479777686298,86.87247968045995 L 442.0469996482134,85.53791769128293 L 442.3249065410346,83.39754665177315 L 441.67424136027694,80.17088061757386 L 442.02049442380667,79.03302197344601 L 442.7779156714678,78.86334965517744 L 443.12296939082444,78.312325688079 L 442.95778764411807,77.33648793632165 L 443.12594125792384,75.07165639288723 L 442.9344615638256,73.2190760797821 L 442.8578187879175,69.33902617963031 L 442.27466731891036,66.72044280264527 L 442.43461744114757,66.06643327046186 L 443.6975569501519,64.12844809517264 L 444.65392539836466,62.12211467791349 L 444.81387552060187,61.38693236280233 L 444.7672233991325,59.27810147032142 L 445.76538754440844,54.03349652606994 L 447.6656127292663,50.769822185859084 L 439.80865429900587,43.60651542339474 L 430.9182188715786,35.07012861035764 L 447.6656127292663,50.769822185859084 L 449.03959908150136,47.85192139213905 L 449.5790562108159,43.796932119876146 L 450.7046394608915,41.551898032892495 L 452.4148386158049,39.41156785655767 L 453.50449881888926,38.809372240677476 L 451.8550131879747,41.540531023871154 L 452.6547637991607,41.51520335674286 L 453.17793396115303,41.11540182866156 L 453.8110698796809,39.6918896054849 L 454.3742275927216,37.15499979350716 L 455.04401873610914,36.68317983765155 L 455.67382236756384,35.631208029109985 L 456.93852682597935,34.03654996911064 L 458.51158047653735,32.82463752711192 L 460.7322449758649,31.97783822612837 L 461.93187089264393,31.15062464028597 L 462.54168072901666,30.964607374742627 L 464.82096995040774,30.80387861467898 L 468.1199412550777,30.16100599616766 L 471.27895614877343,29.095720504876226 L 472.4385945573449,28.3754042503424 L 474.4279741868377,26.463999821338803 L 475.0777715742588,25.39214253704995 L 475.31650175340474,23.344582008197904 L 476.01454935222864,21.997753861825913 L 478.51669920422137,19.943730605300516 L 479.75463076494634,19.395537331234664 L 479.6236350443214,20.090496266726404 L 479.84080740623176,20.0907782651484 L 480.71054093167186,19.09259712835774 L 480.4944919142872,17.832925455179065 L 481.1905773207545,16.01018157415092 L 483.96988538838923,14.753099359106272 L 486.2277479059994,13.364582111593336 L 488.7035813815892,11.280082950368524 L 492.4057014770806,7.722640382591635 L 493.18545833416283,7.301653232425451 L 493.79193588346243,7.361021509859711 L 494.17181739397347,8.066287758294493 L 495.2114931885153,7.515741439536214 L 495.7613217588514,6.911276133265346 L 496.6843672282994,5.056869394611567 L 497.3008416760713,4.48321227915585 L 498.88457039371133,3.5225327080115676 L 499.8444921616465,3.1699632429517806 L 499.9700093474239,1.020809430629015 L 499.36353179626167,0.05937098618596792 L 276.27643130905926,0.04335997020825744 L 278.53209459222853,6.797495444305241 L 278.58287874236703,7.903331487905234 L 278.218925582245,8.885954185854644 L 277.3175066392869,9.772733240388334 L 276.5642082467675,10.156738709658384 L 275.77705369889736,10.280174081213772 L 274.9898991510272,10.138452215120196 L 274.2239047009498,9.72701986785978 L 273.1659012529999,8.56144296657294 L 269.15818435512483,0.3263482772745192 L 268.6164865940809,0.0 L 11.993526723235846,0.04335997020825744 L 11.993526723235846,326.6015641754493 L 11.709981806576252,329.3022237494588 L 10.986307464540005,331.82485701236874 L 7.592232530936599,340.07878231815994 L 7.185959221795201,341.7050227448344 L 7.092854920774698,343.52395818103105 L 7.465272078290582,348.0816464005038 L 6.872790168970823,350.01992892101407 L 4.773711431771517,353.57103982940316 L 4.498630510643125,355.53473671805114 L 5.184216761961579,357.99569129617885 L 5.2350009102374315,358.9326061788015 L 5.048792351037264,359.99418022017926 L 1.523524945601821,368.85730364266783 L 0.3681852202862501,370.95093812281266 L 0.0,371.97119090147316 L 0.012696098536252975,373.79939519474283 L 0.6686581745743752,375.46424701763317 L 3.440627144649625,380.8276455127634 L 5.789394728839397,383.5104406741448 L 8.180482422932982,387.15701769525185 L 8.980332985520363,388.7873727986589 L 9.500870691612363,391.33964018849656 L 10.740850679576397,394.6161769335158 L 11.172516105696559,397.23564104083925 L 12.29399967752397,400.7749020033516 L 12.552152520045638,402.41993807442486 L 11.993526723235846,404.3415359854698 L 10.20761695690453,408.1748232510872 L 9.674383234232664,410.60958246933296 L 8.239730609580874,413.57399722374976 L 7.956185691058636,414.5419841730036 L 7.008214619010687,419.6520238639787 L 6.970126487314701,423.5749420155771 L 6.5638531763106585,427.60528597282246 L 6.576549233868718,429.3591628340073 L 7.080158863216639,430.880732731428 L 13.73288432136178,436.35420909384266 L 15.235249171033502,440.435754400678 L 16.382124857977033,442.0778618794866 L 18.940010279417038,444.14379802625626 L 18.880028972402215,443.7777817226015 L 19.38653770647943,440.63753560511395 L 19.839729707688093,439.10049832891673 L 20.57949905283749,438.1347419479862 L 21.465889297425747,437.888448712416 L 23.548573173582554,437.7594433561899 L 25.13141292706132,436.9366328949109 L 27.850565005093813,437.21218917611986 L 29.21680565737188,436.77443387778476 L 29.966571861878037,437.2082804678939 L 32.16588602215052,437.6069872751832 L 38.823809852823615,439.53848067624494 L 46.50474800914526,442.1457526558079 L 48.33750984445214,442.43336922256276 L 52.349592085927725,442.22597037488595 L 68.53787737712264,437.6753964340314 L 80.35086038522422,436.0827111424878 L 81.68044577352703,435.480959944427 L 83.7198098115623,435.6255291895941 L 84.54955107532442,435.54152215318754 L 87.47863768599927,434.1175491819158 L 89.15811396948993,433.5902662212029 L 91.03752792812884,433.574643956963 L 92.52373114973307,434.13707936601713 L 93.24350670166314,434.2054357021116 L 94.50977849587798,433.19972608378157 L 95.76272110641003,432.89122337056324 L 96.88237196207047,432.2371894097887 L 99.46156767383218,431.36464128131047 L 102.23403648845851,431.0718778106384 L 103.25371848791838,430.7732786354609 L 103.9201773442328,430.2717546103522 L 104.73325713910162,430.92550318548456 L 107.78563864715397,430.9118417846039 L 108.67202888987958,430.29907352570444 L 108.67202888987958,429.6161497873254 L 109.16520844213665,428.74215825879946 L 109.49177325703204,428.4905269430019 L 109.55175456404686,427.77082172269 L 109.95162986963987,426.95178472576663 L 110.35816978663206,425.5188271785155 L 110.77137423492968,424.85806516511366 L 111.75106876529753,424.0200693141669 L 112.9307008869946,423.3497843788937 L 114.23029566183686,422.90558044984937 L 116.78949761763215,422.5140158198774 L 118.72222822904587,421.90822870470583 L 119.6286122687161,422.39129354199395 L 121.69463467411697,421.29278523894027 L 124.1172125916928,421.72514500515535 L 128.87572870962322,424.05514510255307 L 129.5788427889347,424.168168916367 L 130.00537646375597,423.84469449846074 L 130.21864327974617,423.1666423850693 L 130.27529229968786,422.2276690271683 L 131.1116981357336,420.1049820045009 L 131.3916108701378,418.142867279239 L 132.61123054288328,417.4072928437963 L 134.58394870348275,417.1232139952481 L 141.93165747262537,417.1348881367594 L 142.411507839337,417.012311313767 L 143.44118673540652,416.1835454357788 L 143.95102775655687,416.0434872312471 L 145.1673151422292,416.1835454357788 L 148.639565711841,415.53192250430584 L 149.4693069756031,415.7380975666456 L 151.2487520761788,416.62903696205467 L 152.1851267684251,416.8080239901319 L 152.97821276821196,416.6621100893244 L 153.71131750196218,416.3255532463081 L 155.19752072542906,415.15071773156524 L 157.20689415186644,415.06903517525643 L 158.3298772946,414.52452216716483 L 165.60427557304502,411.91370944166556 L 167.86023875512183,410.74778355052695 L 168.85326242819428,410.60983534669504 L 169.09985218197107,410.3417226783931 L 169.54304732382298,408.6246207887307 L 169.822960017249,408.41488334024325 L 170.58605540543795,408.183794955723 L 177.70050356164575,404.4200584553182 L 184.29844608716667,404.71498940559104 L 185.514733472839,404.9439620417543 L 197.1577694620937,410.6059495531954 L 199.33042529784143,412.24022217234597 L 201.273152846843,413.24906104942784 L 201.88296268321574,414.0734036071226 L 207.91441520676017,418.4853975973092 L 208.5508834104985,419.74675489543006 L 209.69052802212536,419.47810309380293 L 210.88015704229474,420.0426795720123 L 212.7729001417756,421.73683099495247 L 212.40634781494737,422.280261981301 L 211.90983597934246,422.0640504239127 L 212.45966450870037,422.888047024142 L 212.77956475503743,422.89778780797496 L 213.0294868350029,422.39129354199395 L 213.32939328439534,422.39129354199395 L 215.70531907863915,424.63588369404897 L 216.8083084654063,425.26737539842725 L 217.62472054548562,426.4097419027239 L 217.95794997364283,426.67100622318685 L 218.52443997375667,426.78214562963694 L 219.507466789335,427.6538073467091 L 219.2042280137539,427.77082172269 L 219.2275540549308,428.0107107106596 L 220.34720491059124,428.63292126590386 L 220.22724233940244,427.2618312421255 L 221.3835484199226,426.33760441001505 L 223.06635699048638,425.8229271019809 L 224.5658893957734,425.659178476315 L 223.42291245795786,424.7099429718219 L 223.39625413157046,424.4682803363539 L 223.72615123353899,424.3513514525257 L 223.23630400933325,424.0220179562457 L 223.38292494788766,423.64984151674435 L 224.26265062205493,423.0419542421587 L 225.9654529467225,424.05514510255307 L 225.7555184159428,423.50760418735445 L 225.9821144156158,423.2387293097563 L 226.52527837455273,423.205608187709 L 226.68522849678993,423.52514006150886 L 227.92150967940688,424.7099429718219 L 228.2014223728329,424.3513514525257 L 228.50466114841402,425.36483566695824 L 228.7612478006631,425.36483566695824 L 228.82456139288843,424.4604850024916 L 229.32107322849333,424.05514510255307 L 229.90422473847866,425.659178476315 L 229.27442110702395,425.98473221994936 L 227.36168425157666,425.36483566695824 L 227.36168425157666,425.659178476315 L 227.92150967940688,425.659178476315 L 227.92150967940688,425.98668170906603 L 227.26171539351344,425.78198938956484 L 224.84580208919942,425.659178476315 L 224.84580208919942,425.98668170906603 L 226.36532825231552,426.3785471566953 L 227.80487935245037,427.19163019629195 L 230.30743232928216,429.45226346421987 L 231.19382257387042,430.9118417846039 L 231.76364490017295,432.8463164786808 L 231.92692730762064,434.8558492544107 L 231.58036869578063,436.52626121835783 L 231.86028143018484,436.52626121835783 L 232.4267714302987,434.7073982334696 L 232.99326146952808,434.0628651082516 L 233.81967040896416,433.90272275498137 L 232.67336122505367,434.7796698338352 L 232.06355138868093,436.19603694509715 L 232.32680261321366,437.04216307168826 L 233.81967040896416,436.1979908584617 L 234.9259920809418,435.35593083081767 L 236.18559930473566,434.83240925800055 L 237.6651379559189,434.66442645154893 L 239.43791848421097,434.88710269285366 L 245.19945517368615,436.43832929618657 L 257.3756582234055,440.7900947770104 L 257.3756582234055,440.4615122107789 L 256.75585148856044,440.373503155075 L 252.9736975748092,438.94213128322735 L 249.80801806785166,437.11838087206706 L 247.63869451731443,436.0807572794147 L 245.88924007117748,434.88710269285366 L 244.76958921551704,434.5589521145448 L 243.21674011461437,433.46919517731294 L 242.50362913496792,433.22120490297675 L 240.87746958620846,433.0981912231073 L 240.3409701976925,432.8873184178956 L 239.71783117763698,431.93851296883076 L 239.71783117763698,431.5812985440716 L 240.56090162694454,431.3529304061085 L 241.39064289070666,431.5812985440716 L 242.0104495845735,431.21630539232865 L 243.16009109281003,431.27876204345375 L 244.269745092839,431.62228891579434 L 244.76958921551704,432.08687264844775 L 245.13947386667132,432.8580312873237 L 245.95921823382378,432.633503110148 L 246.8156178649515,431.92289643734694 L 247.28880362026393,431.25338890682906 L 247.56871635466814,431.25338890682906 L 247.82863529399037,432.08687264844775 L 248.46177121065557,432.9263681904413 L 249.2182019855827,433.5902662212029 L 250.19456418976188,434.05310019059107 L 251.78740084171295,433.22120490297675 L 253.27360406331718,433.47895882697776 L 253.7667835727334,433.22120490297675 L 253.4668771252036,433.1177169815637 L 253.4868708793074,432.89122337056324 L 254.04003169573843,432.73893235530704 L 254.73648120462894,432.96541830105707 L 255.97609467431903,433.90272275498137 L 255.7128434088081,433.9886520751752 L 255.97609467431903,434.5589521145448 L 257.37899050861597,433.9378754775971 L 257.6555709578097,433.574643956963 L 258.3186974879354,434.27574615506455 L 258.7752218134701,435.2465332155116 L 258.5352966301143,435.64506592741236 L 258.67858524248004,435.96157294884324 L 259.33504724130034,436.52626121835783 L 259.39836079254746,437.2864554761909 L 259.6382859759033,437.51121623348445 L 261.36441438272595,437.454536373727 L 262.4340808317065,436.85455553000793 L 262.6040278505534,436.26247066492215 L 263.32380340248346,436.29177993442863 L 263.7370078917593,436.8369677220471 L 262.99390625953674,437.21218917611986 L 263.50374727882445,437.4818990016356 L 263.78366001322865,437.438900668174 L 262.99390625953674,438.5315762120299 L 261.3444206286222,439.7633543200791 L 259.395028507337,440.6101537127979 L 257.545605244115,440.6727411141619 L 258.95183340646327,441.27910152077675 L 262.4340808317065,441.807288789656 L 263.71368180960417,441.66447643516585 L 267.4925034791231,440.4615122107789 L 273.9471573513001,437.51121623348445 L 275.6266336347908,436.1979908584617 L 279.8886379580945,434.2054357021116 L 281.24488167092204,433.90272275498137 L 282.9076964855194,433.9574048817158 L 289.0857699904591,435.7388434591703 L 292.75462590530515,437.8395826420747 L 294.247493699193,438.33217727020383 L 295.8270011674613,438.29894496686757 L 297.1332605127245,437.6284871720709 L 297.9263465125114,435.77791800443083 L 299.2192766740918,434.0179465673864 L 299.76244063302875,432.6471697357483 L 300.4122380204499,431.8252944019623 L 301.72516193799675,430.6308167036623 L 303.66122487559915,429.9751596581191 L 304.68090691417456,428.8201863700524 L 305.5206450354308,428.35984023474157 L 307.5633414015174,426.79189480561763 L 306.31039875000715,427.0629310416989 L 302.26166128367186,429.6161497873254 L 302.6715334877372,429.6161497873254 L 303.1013994459063,429.28838314535096 L 302.8114898558706,429.8483322393149 L 301.68517438694835,430.04150159144774 L 301.19199483655393,430.6308167036623 L 299.66247181780636,431.5988658075221 L 299.18595373630524,431.5812985440716 L 298.806072184816,432.79945764597505 L 298.0929612480104,433.574643956963 L 299.1259724292904,433.63713333941996 L 297.06328230910003,436.22143793152645 L 296.0336034130305,437.7750801788643 L 295.5670822300017,438.0448238388635 L 295.5537530463189,437.8395826420747 L 294.86730043403804,438.1621087244712 L 294.60071688331664,437.99204662581906 L 294.4341021887958,437.51121623348445 L 293.8742767609656,437.8395826420747 L 293.8742767609656,437.21218917611986 L 293.28779296576977,437.51121623348445 L 293.30445443466306,437.13401546142995 L 293.03453859873116,436.52626121835783 L 293.8742767609656,436.52626121835783 L 293.6476807612926,435.99283407907933 L 294.2741520665586,434.8617092487402 L 294.1541894543916,434.203482654877 L 294.4341021887958,434.203482654877 L 294.4341021887958,433.90272275498137 L 294.1541894543916,433.90272275498137 L 294.4341021887958,433.22120490297675 L 294.1541894543916,433.22120490297675 L 293.74431729130447,434.2503561154008 L 293.32778051681817,434.51598175195977 L 292.75462590530515,434.5589521145448 L 292.9079114161432,434.9183563962579 L 292.74462900683284,434.9652373115532 L 292.44805484451354,434.64489397685975 L 292.1948004774749,433.90272275498137 L 292.58467888459563,433.92420493112877 L 292.75462590530515,434.203482654877 L 293.27446378208697,433.88319358881563 L 293.5943640265614,433.90272275498137 L 293.5943640265614,433.574643956963 L 293.28779296576977,433.574643956963 L 293.447743088007,432.93417816609144 L 294.0042362306267,432.61788416747004 L 294.4341021887958,432.5944558791816 L 294.1441925987601,432.29380351677537 L 293.7276558224112,432.18838469684124 L 293.321115905419,432.2859946517274 L 293.03453859873116,432.5944558791816 L 292.75462590530515,432.5944558791816 L 292.78128427267075,432.3426093724556 L 292.44805484451354,432.2371894097887 L 293.03453859873116,431.5812985440716 L 292.46138402819633,430.8532934533432 L 292.3447537012398,430.3049276378006 L 292.71463835425675,429.99467188166454 L 293.5943640265614,429.9751596581191 L 293.5943640265614,429.6161497873254 L 292.2281234152615,429.9361354643479 L 291.8882294166833,429.6161497873254 L 291.6349750496447,429.6161497873254 L 291.3617269266397,429.90686756465584 L 291.0884788054973,429.8815021510236 L 290.80190149880946,429.11085278959945 L 291.3150748051703,428.52758804289624 L 290.80190149880946,428.3052260116674 L 291.0351620707661,427.55434751696885 L 290.28206358104944,427.2676814147271 L 289.9355050101876,426.9693339644 L 289.8488653358072,426.2927627884783 L 290.10545198991895,425.8716629873961 L 290.55531170219183,425.7527484134771 L 291.05515586584806,425.98668170906603 L 290.80190149880946,426.3142087282613 L 292.04484725371003,425.98668170906603 L 292.3747443538159,425.7878376455046 L 292.44472255930305,424.9087396739051 L 292.6013403534889,424.7099429718219 L 293.7009974550456,424.26755424495786 L 294.7140148822218,423.36926800291985 L 295.02725055627525,424.15063054999337 L 295.5537530463189,424.7099429718219 L 295.32382475957274,423.9655075222254 L 295.5537530463189,423.36926800291985 L 294.993927616626,423.36926800291985 L 294.993927616626,423.0419542421587 L 295.5537530463189,423.0419542421587 L 295.23385279998183,422.7127160197124 L 295.2738403119147,422.39129354199395 L 295.8270011674613,422.7477816771716 L 295.9136408008635,422.44194043334574 L 296.1069138608873,422.39129354199395 L 296.1069138608873,422.7477816771716 L 296.3868265952915,422.7477816771716 L 296.1835566367954,422.06989387609065 L 296.3801620248705,421.61607742728665 L 296.7200560234487,421.6433440637775 L 296.9466520231217,422.39129354199395 L 297.42317010462284,422.45752420974895 L 298.8427274506539,423.68881143210456 L 299.77243753150105,423.36926800291985 L 299.18595373630524,423.36926800291985 L 299.18595373630524,423.0419542421587 L 299.77243753150105,422.7477816771716 L 300.3255983479321,423.36926800291985 L 300.9120821431279,423.0419542421587 L 300.6055110823363,421.73683099495247 L 301.19199483655393,422.0640504239127 L 301.0453738979995,421.3921075151302 L 300.6055110823363,421.08246298041195 L 300.6055110823363,420.78452313365415 L 300.8820914886892,420.3756179702468 L 300.9020852446556,419.8596712569706 L 300.05235022492707,419.1238185586408 L 300.05235022492707,418.79681125702336 L 300.8321070820093,418.874667998869 L 301.19199483655393,419.4508494772017 L 301.44524920359254,419.4508494772017 L 301.6251930799335,418.5535175232217 L 302.26166128367186,418.142867279239 L 302.26166128367186,417.7847950216383 L 301.5452180188149,417.4909633169882 L 301.19199483655393,416.8080239901319 L 301.72516193799675,416.48118340270594 L 302.1183726321906,416.73409369727597 L 302.8214867115021,416.7088020485826 L 303.1013994459063,416.48118340270594 L 303.1013994459063,416.1835454357788 L 302.8214867115021,416.1835454357788 L 302.8214867115021,415.82757268380374 L 303.7511967923492,415.22462227893993 L 304.29769307747483,415.20322874141857 L 304.80086948536336,415.53192250430584 L 304.80086948536336,415.82757268380374 L 304.20105654746294,415.84313375968486 L 303.7911843433976,416.1543662715703 L 303.4046382214874,417.1348881367594 L 305.3840209543705,416.48118340270594 L 305.0574561394751,417.1348881367594 L 305.92052034288645,417.1348881367594 L 305.92052034288645,417.4909633169882 L 305.6506045050919,417.769227294717 L 306.20043307729065,418.142867279239 L 306.2237591166049,417.8529043882154 L 306.7602585051209,417.7847950216383 L 306.60030838288367,418.3063444062136 L 306.9202086273581,418.64694077474996 L 307.3700683414936,418.68781404336914 L 307.816595768556,417.8937705080025 L 308.9795664213598,417.68749761627987 L 309.5560533180833,417.7847950216383 L 310.5390801336616,418.3569456874393 L 310.99893674626946,419.2016809117049 L 310.87897413410246,420.08356546470895 L 310.1392048280686,420.78452313365415 L 311.25885568372905,420.78452313365415 L 311.4754547867924,422.8783062133007 L 311.25885568372905,423.696605484467 L 310.5690707862377,424.5774167077616 L 310.46910193003714,424.99449777649716 L 310.97894294932485,425.36483566695824 L 309.4960720539093,426.03346985019743 L 308.65966617688537,426.16798837669194 L 308.1598220542073,425.98668170906603 L 307.869912462309,426.79189480561763 L 311.6953862141818,426.1387448552996 L 312.2418824583292,425.7196088284254 L 312.9616580083966,425.659178476315 L 313.06162682548165,424.85806516511366 L 313.48816049844027,424.2441692738794 L 314.097970334813,423.84079731907696 L 315.35757755860686,423.50760418735445 L 316.5971910264343,422.0640504239127 L 319.0964116770774,419.7915317188017 L 320.25605004280806,417.7847950216383 L 321.3323811031878,416.8138606757857 L 322.55533306114376,416.04543244931847 L 324.02487481571734,415.58832795964554 L 325.8243136703968,415.53192250430584 L 327.5437775067985,415.75365833658725 L 330.5928267277777,416.55510958097875 L 334.22835970297456,418.35305327223614 L 337.0808035377413,420.1049820045009 L 337.3607162721455,420.1049820045009 L 337.3607162721455,419.74675489543006 L 336.05445692688227,419.24255922436714 L 333.77183537743986,417.5123676257208 L 332.4422499909997,417.1348881367594 L 330.2029482796788,416.08433707943186 L 326.68404558859766,415.1740559153259 L 328.6700929328799,415.1740559153259 L 328.6700929328799,414.85122213186696 L 328.0836091786623,414.52452216716483 L 329.33655178919435,414.5264667356387 L 329.809737585485,414.7112050023861 L 330.0696565248072,415.1740559153259 L 330.3229108918458,415.1740559153259 L 330.3562338296324,414.89789549820125 L 330.9027300737798,414.85122213186696 L 333.42194448038936,416.48118340270594 L 335.5412836205214,417.1465622605756 L 335.96115268208086,417.4909633169882 L 336.9708378240466,417.08235480776057 L 336.8342137839645,416.8469351483509 L 336.5209781099111,416.8080239901319 L 336.5209781099111,416.48118340270594 L 336.9508440680802,416.63292789971456 L 337.92054169997573,417.1348881367594 L 337.92054169997573,417.4909633169882 L 336.8008908443153,417.4909633169882 L 336.8008908443153,417.7847950216383 L 337.35405166074634,418.0183171853423 L 338.04716888442636,417.83149847434834 L 338.68030476011336,417.3800516570918 L 339.0601863116026,416.8080239901319 L 339.3201052509248,415.82757268380374 L 338.753615250811,415.82757268380374 L 340.1131912898272,415.3296466115862 L 340.7463271673769,415.36465526139364 L 341.2994880247861,415.82757268380374 L 341.2994880247861,416.1835454357788 L 340.71300422772765,416.48118340270594 L 340.71300422772765,416.8080239901319 L 342.29917626827955,417.22049926547334 L 342.69238700158894,417.4909633169882 L 342.48911704309285,417.850958396215 L 342.97229969501495,419.1238185586408 L 342.69238700158894,419.1238185586408 L 341.5794007182121,418.142867279239 L 341.3128172084689,417.82371454825625 L 341.5794007182121,417.4909633169882 L 340.0998621061444,417.3800516570918 L 338.4737025164068,417.7847950216383 L 339.7099836990237,417.9093386619352 L 340.41309773921967,418.6411017323844 L 341.5794007182121,420.42818943364546 L 343.5587834920734,421.08246298041195 L 344.34520491957664,421.8342152563855 L 344.81839071400464,422.06794607359916 L 345.5181725099683,422.0640504239127 L 345.5181725099683,421.73683099495247 L 344.3785278573632,421.73683099495247 L 344.3785278573632,421.4388481238857 L 344.8883688785136,421.05909445369616 L 346.3579106312245,419.1238185586408 L 346.7977734878659,418.3082906412892 L 346.6278264671564,418.04556220117956 L 346.1113208774477,417.91323069669306 L 345.5181725099683,417.4909633169882 L 345.41820365190506,417.8159305877052 L 345.2116014081985,417.7847950216383 L 345.2116014081985,417.4909633169882 L 345.8980540204793,417.012311313767 L 346.2646063864231,416.3955861548893 L 346.2479449175298,415.66418467415497 L 345.7980852033943,414.85122213186696 L 348.02405773103237,415.6213935636915 L 349.4069598540664,415.53192250430584 L 349.4069598540664,415.82757268380374 L 348.8471344243735,416.1835454357788 L 348.5672216899693,416.1835454357788 L 348.5672216899693,415.82757268380374 L 348.317299650982,415.82757268380374 L 348.317299650982,416.1835454357788 L 350.4899554438889,417.0356590091251 L 351.08643613755703,417.4909633169882 L 351.386342626065,417.4909633169882 L 351.08643613755703,417.1348881367594 L 351.386342626065,416.8080239901319 L 351.68958136066794,417.0765178245492 L 352.0261431168765,417.10570286307484 L 352.31605270691216,416.9014113396406 L 352.482667401433,416.48118340270594 L 352.7859061770141,416.48118340270594 L 352.755915524438,417.4442633180879 L 353.34573160484433,417.4909633169882 L 352.9558531977236,417.6991732083261 L 351.68958136066794,417.7847950216383 L 356.16485249996185,418.142867279239 L 355.80496474541724,419.010920511093 L 356.98126458004117,419.2367194155231 L 356.98126458004117,420.1049820045009 L 357.5644160900265,419.74675489543006 L 358.39415735565126,419.9025023235008 L 360.79340918920934,418.79681125702336 L 363.7824771050364,418.4853975973092 L 364.5822277162224,418.142867279239 L 364.5822277162224,418.471773725003 L 365.51193779706955,418.18957441532984 L 366.87151383794844,418.2790978252888 L 375.3222119510174,420.4904971155338 L 383.21308463811874,423.6362021593377 L 389.48706316389143,427.7118470794521 L 390.4836677405983,425.8644692762755 L 391.455864014104,422.7865722840652 z M 416.5811329372227,30.360531849320978 L 413.1254507675767,22.359052040614188 L 415.20013317652047,27.10876858467236 L 416.5811329372227,30.360531849320978 z M 409.21618627756834,13.419271364808083 L 398.59744700044394,11.26409474434331 L 387.32530177757144,8.727339200209826 L 401.82914231158793,11.835589133668691 L 409.21618627756834,13.419271364808083 z" /><path fill-rule="evenodd" fill="#D2EBD9" stroke="#A6A6A6" stroke-width="0.25" opacity="1" d="M 379.4475921932608,215.70349893253297 L 380.287330314517,215.70349893253297 L 381.40698117017746,213.0257772365585 L 381.43363953754306,211.95134321739897 L 380.86048492603004,212.50532063283026 L 379.4475921932608,215.70349893253297 z" /><path fill-rule="evenodd" fill="#D2EBD9" stroke="#A6A6A6" stroke-width="0.25" opacity="1" d="M 381.5569344367832,248.81080524018034 L 382.4533215779811,248.46704299887642 L 382.85986145585775,246.83308142516762 L 383.38636394403875,246.28854423156008 L 383.38636394403875,246.00315489573404 L 382.5599549654871,246.13458223594353 L 381.576928190887,247.26875320076942 L 380.30732411146164,247.7908572521992 L 379.5009088870138,248.57599244685844 L 378.57453109137714,248.1289388788864 L 378.19464958272874,248.43886677687988 L 377.7481221538037,249.47021763538942 L 377.9780504386872,249.76895396597683 L 378.54787276498973,250.05267585301772 L 379.8174768462777,249.9493315992877 L 381.5569344367832,248.81080524018034 z" /><path fill-rule="evenodd" fill="#D2EBD9" stroke="#A6A6A6" stroke-width="0.25" opacity="1" d="M 405.2462140060961,269.42851357441396 L 406.6924296785146,268.16111822612584 L 406.6924296785146,267.8160348748788 L 403.69336490519345,267.783979147207 L 402.5004035588354,268.2818087413907 L 401.61068102903664,269.42851357441396 L 401.67066229507327,270.0585586549714 L 401.33076829463243,271.3245478179306 L 401.53070596791804,271.5906160818413 L 401.61068102903664,271.3245478179306 L 401.9605718869716,271.96804222883657 L 402.4704129062593,272.2756656240672 L 403.18685617111623,271.890667559579 L 403.57007000781596,271.3245478179306 L 402.0405469480902,270.8698113989085 L 401.89059372246265,270.3754975250922 L 402.2471491917968,270.00007808813825 L 402.9402664154768,269.9265066762455 L 404.6497333534062,270.30758039234206 L 405.2462140060961,269.42851357441396 z" /><path fill-rule="evenodd" fill="#D2EBD9" stroke="#A6A6A6" stroke-width="0.25" opacity="1" d="M 339.4600616171956,416.57845492707565 L 339.3201052509248,416.8080239901319 L 339.1001738216728,416.81191508099437 L 339.4000803120434,417.0356590091251 L 339.6466701067984,416.97145312372595 L 339.8999244328588,416.1835454357788 L 339.4600616171956,416.57845492707565 z" /><path fill-rule="evenodd" fill="#D2EBD9" stroke="#A6A6A6" stroke-width="0.25" opacity="1" d="M 355.73498654179275,421.73683099495247 L 356.9646031111479,421.49532703030854 L 358.06759249791503,420.90135994181037 L 359.82704384438694,419.4508494772017 L 358.94398588500917,420.06993679283187 L 352.5693070329726,422.85103214066476 L 351.386342626065,423.0419542421587 L 352.6692758910358,422.9990934417583 L 354.7752858065069,421.993930015713 L 355.73498654179275,421.73683099495247 z" /><path fill-rule="evenodd" fill="#D2EBD9" stroke="#A6A6A6" stroke-width="0.25" opacity="1" d="M 343.5587834920734,423.53683065017685 L 344.62844993919134,424.168168916367 L 351.08643613755703,423.36926800291985 L 350.8265171982348,423.16274583758786 L 350.3100115656853,423.16274583758786 L 346.60783271305263,423.75895814504474 L 345.2116014081985,423.36926800291985 L 344.53847797960043,423.5192947308533 L 343.4688115734607,423.1354700513184 L 338.53368382155895,420.4749201028608 L 337.6672873329371,419.74675489543006 L 338.14713769964874,420.48076150612906 L 340.9462648406625,422.0815807073377 L 343.07893312349916,423.0731259319 L 343.5587834920734,423.53683065017685 z" /><path fill-rule="evenodd" fill="#D2EBD9" stroke="#A6A6A6" stroke-width="0.25" opacity="1" d="M 411.2551260218024,269.5210202857852 L 411.2665893640369,267.7505774702877 L 410.141884021461,267.2605486251414 L 409.17326186969876,267.5758989308961 L 408.38487874157727,268.27310071419924 L 409.2033141888678,269.59343680227175 L 411.2551260218024,269.5210202857852 z" /></g></g></g></svg>