<svg xmlns="http://www.w3.org/2000/svg" xmlns:xlink="http://www.w3.org/1999/xlink" width="500.0" height="436.67710451898165" viewBox="0.0 0.0 500.0 436.67710451898165" preserveAspectRatio="xMinYMin meet"><g transform="matrix(1,0,0,-1,0,436.67710451898165)"><g><g><path fill-rule="evenodd" fill="#D2EBD9" stroke="#A6A6A6" stroke-width="0.25" opacity="1" d="M 499.53845604136586,26.594986950978637 L 483.3204399961978,19.59482973604463 L 482.55688838101923,19.51974686444737 L 481.6313712913543,20.258733021095395 L 480.96808408387005,20.341722592245787 L 479.7186360415071,19.2391764158383 L 477.98329149745405,15.102217788109556 L 474.728556452319,12.012908204458654 L 474.9907863344997,9.737715961877257 L 475.6849241517484,7.3403573404066265 L 475.2530161421746,5.282888719579205 L 474.3197864741087,4.7813884450588375 L 472.0908328499645,4.358874298399314 L 470.4403274077922,2.1990592933725566 L 467.73319000937045,1.4370598157402128 L 466.7459717746824,0.0 L 455.0536060836166,10.409186454722658 L 451.6291929837316,11.945754704996943 L 449.60076802410185,12.482989331008866 L 448.28961876221,12.249922481365502 L 444.44872295856476,8.09073490370065 L 440.88548226468265,11.878601357806474 L 434.8002075329423,20.175743878586218 L 429.93353023193777,28.517918976489455 L 426.37800219096243,31.599955168087035 L 422.22860066592693,33.94097005878575 L 417.9712221547961,35.704827724955976 L 412.148177228868,39.47037420258857 L 408.24558013118804,44.96773835644126 L 402.44567323848605,57.59256024798378 L 400.07017944194376,61.560463113477454 L 397.5327200964093,64.91324209747836 L 394.62505396083,67.94967887015082 L 381.1125046983361,79.13509128731675 L 358.0902675297111,93.93324454198591 L 355.83817602321506,96.17889968724921 L 344.7628217767924,115.89392377948388 L 329.0598820783198,133.84933194844052 L 324.5171358026564,137.11212200461887 L 319.4499298390001,139.02514348272234 L 312.70908055081964,139.993665688904 L 310.6035291403532,140.6778286974877 L 302.690358184278,144.5048639040906 L 298.34814057312906,146.76488122530282 L 287.55815408937633,156.8410673062317 L 284.61963741853833,158.60296521824785 L 281.388040330261,159.92898729885928 L 274.6857541538775,161.5717244562693 L 273.36689231544733,161.5557941060979 L 269.68024933338165,160.4586283438839 L 268.6159047242254,160.43075209134258 L 265.37659498490393,161.01417171233334 L 264.01145730540156,160.66571047576144 L 261.71308988519013,158.70649476582184 L 260.2554004546255,158.2923802456353 L 258.84398693591356,158.5352731742896 L 257.7102285306901,159.07880822056904 L 253.78449362516403,162.5096487533301 L 251.72521812841296,163.81804945040494 L 249.48855185322464,164.56290679308586 L 247.113058058545,164.4812497140374 L 242.8325415905565,163.75033670826815 L 240.83496723882854,163.93156844144687 L 236.5698760766536,165.31775519438088 L 234.59543968364596,167.61038906429894 L 233.46168127655983,168.56458222935908 L 231.9808539636433,169.40527269942686 L 230.69284265860915,169.42320257425308 L 230.10668190009892,167.8813028074801 L 228.78010740876198,166.08259623171762 L 225.7336136791855,164.58879807777703 L 219.6174884121865,162.87806195649318 L 218.198362166062,162.7924300171435 L 214.15693769976497,163.4476244917605 L 212.29819086752832,163.1489004783798 L 211.2878347504884,162.2228893849533 L 209.6604672651738,159.60444082831964 L 207.79400785453618,159.5845302180387 L 206.2514793947339,162.43795844120905 L 204.08422691561282,168.83152684103698 L 203.0584454201162,170.48309076274745 L 201.77043419145048,172.07503963937052 L 200.26646891981363,173.45591230131686 L 198.63910143449903,174.4861604636535 L 195.7622859068215,175.27931490750052 L 193.0937116201967,175.5882167383097 L 192.98573463596404,175.8552719380241 L 192.02165443263948,174.90465437667444 L 191.90596472285688,173.6213057532441 L 192.02165443263948,172.18064349680208 L 191.79798773862422,170.7600273292046 L 190.74135570786893,169.36941308365203 L 189.21425255388021,168.40720640635118 L 186.10605775378644,166.94706710521132 L 183.645724857226,164.67643065890297 L 182.26516187563539,163.70652281469665 L 178.9410131070763,163.38389619020745 L 174.49081851169467,161.53189868549816 L 173.07169234193861,161.19338314444758 L 171.69112943299115,161.0659437282011 L 170.3337043337524,161.20134814898483 L 168.9762793071568,161.65934149338864 L 167.51858987659216,161.707132877782 L 162.89871722646058,159.29981083492748 L 160.12216595746577,158.55518256686628 L 154.42252339422703,157.89818434626795 L 149.48643229715526,157.81257736799307 L 148.56091528199613,158.51536372792907 L 148.15985780581832,159.20623278361745 L 147.65853614918888,160.8708039938938 L 147.0569500103593,161.44428222370334 L 143.05408865585923,163.6308444517199 L 141.8894796408713,164.54896535421722 L 141.01795111596584,165.6862290573772 L 140.40865240059793,167.04068762226962 L 139.69908927753568,169.9670843060594 L 139.2209055032581,170.95926509494893 L 137.57039998658001,172.04116680682637 L 136.86083693802357,172.70867280382663 L 136.4906300716102,173.46388304326683 L 136.12813585810363,175.5842309051659 L 135.51112456433475,177.11487269820645 L 134.7475729510188,178.05365530378185 L 133.59838923998177,178.5280494284816 L 131.83219416067004,178.63967349659652 L 127.58252822980285,177.9021709607914 L 126.23281585611403,178.15331683401018 L 118.13454146683216,181.50029271049425 L 117.51753017306328,182.0026955800131 L 117.09333481453359,182.76230928883888 L 116.87738077156246,184.04037206084467 L 116.14467976801097,184.59868279960938 L 115.30400177836418,184.74025736795738 L 114.98007082752883,185.11114857601933 L 114.53273751214147,186.1839876375161 L 114.47103644348681,187.55405122507364 L 114.20880663581192,187.81730775511824 L 113.48381820879877,187.90107197035104 L 113.15988725610077,188.1743060797453 L 111.73304843343794,191.0026409716811 L 110.83066930063069,192.33120625582524 L 109.5349454190582,193.4743359265849 L 85.17070845514536,134.6744164803531 L 84.33003046736121,133.81354602030478 L 82.98803074657917,134.68634575186297 L 82.20905382744968,135.60889646806754 L 81.861984917894,136.88742535212077 L 81.77714589051902,138.85411645122804 L 81.55347927100956,139.58994244551286 L 80.97503108903766,140.17265920503996 L 80.21147947572172,140.55451821465977 L 78.48384765908122,141.05373203521594 L 78.03651441819966,141.91893716272898 L 77.65859497524798,143.844421481248 L 77.11099725402892,145.29066406353377 L 76.78706637583673,145.7502244093921 L 73.77142318151891,148.2929470851086 L 72.69165326841176,148.9197318246588 L 72.4834119528532,149.7395607342478 L 72.41399815492332,152.64310257835314 L 72.12863039039075,153.26606442919 L 70.98715933412313,154.41054197982885 L 68.16433229856193,158.51934564625844 L 66.7529187053442,159.34958657762036 L 64.93273521028459,160.91461070161313 L 63.90695378743112,160.76128775370307 L 62.27958630211651,160.19579685200006 L 56.75733437202871,160.3073006826453 L 54.181311912834644,159.7199229320977 L 52.044909968972206,158.09329033154063 L 50.91115156374872,156.4289885130711 L 50.309565499424934,154.9101551065687 L 49.800531040877104,149.88084590574726 L 49.2375081628561,148.61131113674492 L 48.435393361374736,147.6542469477281 L 47.502163618803024,147.00164304859936 L 46.92371551319957,146.8862461776007 L 44.956991696730256,147.00164304859936 L 43.869509130716324,146.09639480803162 L 43.42988854274154,145.94917200598866 L 42.6663370039314,146.0207937329542 L 42.01847502589226,146.2316816027742 L 40.83844070509076,147.00164304859936 L 39.488728331401944,148.86003709910437 L 39.04910781793296,149.15055358386599 L 36.57334961742163,149.48087266646326 L 31.706672316417098,150.92559562646784 L 29.308040564879775,151.25594870210625 L 24.209984065964818,151.25594870210625 L 23.484995713457465,151.08082099002786 L 22.274110859259963,150.3305779953953 L 21.641674185171723,150.15545966103673 L 18.278962155804038,150.15545966103673 L 16.78270953707397,149.90870507783256 L 14.47662946395576,148.82024072948843 L 13.443135464563966,148.57947442959994 L 11.854331092908978,148.53569909161888 L 10.597170397639275,148.2412134555634 L 9.656228078529239,147.4592590786051 L 9.108630506321788,145.94917200598866 L 7.666366379708052,145.9770248560235 L 0.0,211.39566695154645 L 0.10797698423266411,213.09139778348617 L 0.709563048556447,214.43772142194211 L 6.200964294373989,219.810137597844 L 7.558389395475388,221.94241267093457 L 11.337584130465984,233.20195612311363 L 12.79527348652482,235.5940207419917 L 15.240181079134345,237.24227235116996 L 14.214399730786681,240.6213173631113 L 14.407215742394328,243.89500968670473 L 18.45635293610394,258.7411267766729 L 19.374157374724746,260.45187724917196 L 23.06080035492778,264.2947322302498 L 25.066087359562516,267.6093986579217 L 34.49864881671965,294.5777949714102 L 35.70953359641135,296.6097545456141 L 38.833153776824474,299.8630577127915 L 39.596705390140414,301.839476340916 L 39.39617665298283,303.49472307413816 L 38.03875162638724,306.6450100077782 L 37.653119530528784,308.2806841772981 L 38.061889585107565,312.71034878189676 L 37.50657928548753,314.28234705049545 L 34.30583280697465,318.3397435969673 L 33.796798346564174,320.141593887005 L 33.85078691318631,321.2115446398966 L 34.76859127730131,324.317246861523 L 34.99225789681077,325.8220539786853 L 34.8534303791821,328.36125600361265 L 34.976832592859864,329.7417004229501 L 35.65554518066347,331.21082666586153 L 36.78930351138115,332.2413138744887 L 39.249636482447386,334.02470813295804 L 40.05175128392875,335.0996786793694 L 41.88736008480191,339.77892084093764 L 42.17272784933448,344.4435255243443 L 42.99026795476675,345.7368241259828 L 42.35783128067851,347.19141692179255 L 42.49665887467563,350.32270368700847 L 42.311555441468954,351.3142151676584 L 41.663693537935615,352.27757697715424 L 40.884716618806124,353.04347455874085 L 40.63019938953221,353.8860081238672 L 42.44267030805349,356.50663713319227 L 42.78973921760917,358.01471934397705 L 42.51979675702751,359.5068253555801 L 41.03896951675415,361.5798958588857 L 40.86929131485522,362.27367392065935 L 41.03125686571002,362.93118010181934 L 41.52486594580114,363.51610323018394 L 43.04425644688308,363.7178062500898 L 44.2320033442229,363.1893501887098 L 45.35804917104542,362.4067862611264 L 46.692336240783334,361.8582097841427 L 48.61278414353728,361.5274604547303 L 49.38404833525419,361.24108594143763 L 52.268576588481665,359.4584302743897 L 53.00899024680257,359.33341050730087 L 57.05812744051218,359.99481730838306 L 58.16874788887799,359.8294628588483 L 60.42855212278664,359.9746521152556 L 63.976367585361004,362.1849329834804 L 66.12819468416274,362.37048276071437 L 73.1158486250788,360.3860294104088 L 77.31923864409328,365.44449894106947 L 77.93625008687377,367.0019254931249 L 78.29103157296777,368.74515020358376 L 79.92611178569496,371.6832806887105 L 80.3965829089284,373.28174480213784 L 80.74365181662142,376.53976811794564 L 80.67423802055418,377.96109412098303 L 79.84127268381417,381.5392570926342 L 80.02637611702085,382.431917286478 L 80.82849091850221,382.9247217059601 L 90.70838561654091,386.0152339616325 L 93.72402873821557,386.43947386043146 L 96.77052246779203,388.03553657070734 L 100.01754486002028,393.9202845473774 L 102.6244179289788,395.33120653475635 L 104.14380843006074,394.9067023906391 L 106.38047470524907,392.7399071713444 L 108.08496863953769,392.2144280197099 L 109.86658902466297,392.626725432463 L 111.33199103362858,393.758583326824 L 113.66892164200544,396.78674522717483 L 118.78240351937711,400.2482915110886 L 120.53317321836948,400.8913586246781 L 122.24537980556488,400.88326953863725 L 122.94723027572036,400.102695427835 L 122.91637974046171,397.23556638113223 L 123.34057502448559,395.545484844828 L 124.45890819840133,395.5576138785109 L 125.69293086230755,396.63714132341556 L 126.47190778143704,398.1332512011286 L 126.49504566378891,398.9541568008717 L 126.20967797376215,399.98945509735495 L 126.54903423041105,400.689133095555 L 129.6186658423394,401.6072600274347 L 130.8295506220311,400.84282425651327 L 131.9633091017604,399.68209308572114 L 133.28217094019055,398.8651893334463 L 135.04836594499648,399.1320933296811 L 136.30552663840353,400.3938890104182 L 136.498342724517,401.94297768641263 L 136.40579096972942,403.6014587683603 L 136.78371048904955,405.1468524765223 L 138.07172179222107,406.34040048951283 L 141.77379000373185,408.14912131475285 L 143.28546792827547,409.3267353444826 L 145.3447434231639,412.6861065190751 L 149.84121385775506,424.6892710342072 L 151.90820200555027,427.7281439509243 L 162.5263539403677,436.67710451898165 L 162.6842505224049,435.85657295328565 L 163.3826393932104,435.00097318086773 L 163.9292046111077,432.5781247308478 L 167.1053557191044,428.05915837641805 L 167.35434656590223,427.2742334101349 L 167.61548320017755,424.8463513783645 L 168.96367741562426,422.91966043412685 L 169.5588261578232,421.13356195553206 L 176.5670066513121,410.3420794880949 L 181.78366783820093,398.1578007983044 L 186.9638912882656,389.07338351849467 L 188.77362938784063,382.4371974419337 L 189.62384190782905,380.878806771012 L 188.72504586353898,377.84519966319203 L 190.1096776649356,375.48934783553705 L 192.1501877438277,373.35002048360184 L 193.18866165168583,370.9599429045338 L 193.57125728204846,367.9411264585797 L 194.2089166920632,365.31685508810915 L 196.43161515146494,360.714403222315 L 196.75955425202847,359.20915449759923 L 197.00854510068893,356.0435569002293 L 197.3972136620432,354.4562531094998 L 198.56321942061186,352.18988103675656 L 198.97617978043854,349.0194514587056 L 199.34662954881787,347.7343367605936 L 201.80617292039096,342.052615853725 L 203.4276497066021,335.979932727525 L 202.40739466808736,336.512580470182 L 203.89526659622788,333.03486206475645 L 204.30215402692556,331.3232479484286 L 204.44790474697948,329.06358416355215 L 203.06934587657452,327.599580561975 L 204.27178929559886,324.0510751809925 L 203.9377772640437,322.05540992482565 L 203.4276497066021,322.58756141597405 L 203.5187438968569,321.3775776603725 L 204.24749749712646,321.041840283433 L 205.06734528765082,321.01966919004917 L 205.4681597854942,320.7536189293023 L 205.35884672775865,318.04587438865565 L 205.4681597854942,317.32389137963764 L 206.36088297329843,315.3354502362199 L 206.48234189487994,314.3729869041126 L 206.37910176627338,311.29604803654365 L 206.48234189487994,310.3211813624948 L 207.4175756741315,308.36530696507543 L 207.54510752670467,307.4001220220234 L 206.98032351396978,304.5239181024954 L 206.99246937595308,303.41661374410614 L 209.275897372514,293.2711177174933 L 209.58561760559678,289.8380972009618 L 209.84068138338625,288.66232149861753 L 211.5836170911789,284.80059243552387 L 214.20713005028665,274.6926064763684 L 215.652491312474,271.98983382969163 L 220.11003416962922,269.23702303809114 L 220.80235010758042,268.0343989019748 L 221.39142591692507,267.5199185980018 L 224.12425193563104,266.2827099512797 L 224.8712244015187,265.6294273920357 L 224.90766206383705,264.62588693364523 L 224.08174134232104,263.00710304966196 L 223.85096936300397,262.18673040601425 L 224.0878142733127,261.27490485133603 L 225.14450697414577,260.1202119241934 L 225.3813518844545,259.5176598546095 L 225.4906649440527,257.4546454444062 L 225.90362530387938,256.2119196741842 L 227.9198435842991,253.93489403417334 L 226.63237890414894,253.81821316457354 L 225.74572872184217,253.05823185271583 L 225.4360084142536,251.92936422745697 L 225.89147944189608,250.71544815879315 L 226.2072726059705,251.37757270107977 L 226.8874426819384,252.16900539584458 L 227.70121754147112,252.50324779679067 L 228.44211700372398,251.82215747586451 L 228.28422041982412,250.35602067923173 L 226.83885908313096,249.65610632137395 L 224.36109684593976,249.43857166334055 L 224.53113936446607,248.7071725758724 L 225.89147944189608,246.53208942129277 L 226.40160692483187,243.3582615677733 L 227.45829962566495,242.9580321763642 L 229.18908946961164,242.80991831421852 L 230.82878505066037,243.00845417543314 L 231.53931978158653,243.62298576091416 L 232.10410386882722,244.53379649412818 L 233.43407914042473,244.7292020735331 L 234.9462428689003,244.42663955665193 L 236.07581096701324,243.88456271635368 L 237.87947613559663,241.45174673502333 L 241.77830791287124,228.77052296162583 L 242.088028145954,228.48715213593096 L 243.49087881483138,227.95505802775733 L 243.8066720534116,227.6905918016564 L 243.97671457380056,226.33369584823959 L 244.4200396630913,225.04616648284718 L 245.06984500959516,223.95074526406825 L 245.85932807065547,223.1795878414996 L 244.74797884002328,218.96247619902715 L 244.36538313515484,212.3305992600508 L 245.39778411015868,211.22659616405144 L 245.65892082080245,210.04718772694468 L 246.3694555517286,209.43707361910492 L 247.34112699329853,209.39619052573107 L 248.39781976863742,209.93396895518526 L 249.13871923089027,208.49049824429676 L 249.99500475637615,208.26722763688304 L 252.80070609599352,208.87729823123664 L 253.31690650992095,209.26725213974714 L 253.72986694425344,210.16984225157648 L 253.9120553266257,211.1416759097483 L 253.8027422670275,211.7833063704893 L 253.42621956765652,212.50045252544805 L 253.7116480767727,213.00058612623252 L 254.6165171265602,213.62656109547243 L 256.037586664781,216.18733112234622 L 256.1954832468182,217.6912627350539 L 254.70153838582337,220.30931543163024 L 253.89383645914495,223.41250500967726 L 253.2804688476026,224.52048099879175 L 252.29057853855193,224.53621979849413 L 251.1913752462715,222.6822894748766 L 250.535496968776,224.28125250642188 L 250.35330858826637,225.7859324903693 L 250.535496968776,229.78440163028426 L 249.9767858888954,232.9775908049196 L 250.1468284074217,233.92244256590493 L 251.05777038820088,234.38229047623463 L 251.4950225483626,234.85160091868602 L 251.99300416745245,237.4976340283174 L 252.49098578840494,238.26947586541064 L 253.54767848923802,237.49448373774067 L 254.05780604667962,237.49448373774067 L 254.6165171265602,239.6053224944044 L 255.06591514870524,239.6053224944044 L 255.06591514870524,238.5971259966027 L 255.89183594472706,239.2524464991875 L 257.57404219172895,241.7700085712131 L 258.67324548587203,239.7660096383188 L 260.1671903450042,238.15606002998538 L 267.2664650287479,232.2406448367983 L 268.35959546640515,231.68008464598097 L 270.6733881160617,231.0880533887539 L 272.28879189677536,229.89775849459693 L 272.8475029785186,229.12316921027377 L 273.0904208943248,228.31083498662338 L 272.9507431052625,227.45446482906118 L 272.4102508183569,226.535176636884 L 270.4061784762889,224.76286082412116 L 268.8697229474783,221.11495481873862 L 269.70171667449176,221.19048559269868 L 270.33330307900906,221.00480643101037 L 270.7644823063165,220.52330949087627 L 270.9102330263704,219.7239931197837 L 270.7280446458608,219.4942755533848 L 269.96285338513553,219.20162645122036 L 269.8474673945457,218.95618283492513 L 269.9810721781105,218.62263716873713 L 270.33330307900906,218.31427076715045 L 270.80091996863484,217.47415946330875 L 272.54992860741913,216.16216188459657 L 272.9507431052625,215.49519156152382 L 273.16329621709883,214.51051621697843 L 274.48112570121884,211.51281202561222 L 274.15925945714116,208.63829879346304 L 274.48112570121884,207.77352722012438 L 275.4102864768356,208.11314122611657 L 276.43054151535034,207.89616477652453 L 277.2503893803805,207.3112861912232 L 277.72407920099795,205.8837665359024 L 278.3981762714684,205.66053120652214 L 278.60465645231307,205.18577332026325 L 278.56214585900307,204.48152176686563 L 278.0459453705698,202.78389618871734 L 278.78077190183103,201.40706131211482 L 280.51156167313457,200.52695299009793 L 286.0318702366203,198.55002310220152 L 287.22824072651565,197.95604728115723 L 287.77480594441295,197.51293630921282 L 288.28493342734873,196.09568922733888 L 289.4023555871099,196.35964627726935 L 291.1027807034552,197.7989144010935 L 292.79105988144875,198.4588825784158 L 293.96921150386333,200.00519659835845 L 294.92266415059566,201.75283101201057 L 295.9732839204371,203.02909798012115 L 295.87611672468483,201.8031253311783 L 296.1433264389634,200.73754608258605 L 296.83564230427146,200.16235039802268 L 298.0563045926392,200.3886545524001 L 298.45104615949094,201.0675854270812 L 298.2810036409646,201.94772251555696 L 298.42675436101854,202.70216304133646 L 300.7952035404742,203.12340732500888 L 301.57254073768854,202.54812864377163 L 301.293185159564,201.74025739799254 L 301.4450088851154,201.2090328980703 L 302.89644308015704,200.73754608258605 L 303.41264356672764,199.8857606924139 L 304.12317829951644,199.8606163887307 L 305.05233914777637,200.50180771248415 L 305.7021444942802,201.44478134508245 L 305.1616522055119,202.68330165650696 L 305.1434333380312,204.12940734275617 L 305.56246670521796,203.74586260179058 L 306.21227197535336,202.54812864377163 L 308.2406361922622,202.02002162043937 L 308.42282457463443,201.3630548187066 L 308.36816804483533,200.00519659835845 L 308.75076367519796,199.3325951383449 L 309.32162069156766,198.95544733921997 L 310.79127375409007,199.3325951383449 L 312.15768676251173,199.14402012713253 L 312.880367429927,198.81401911750436 L 313.19616067036986,198.088040035218 L 313.4694432411343,195.06189791415818 L 313.7245070207864,194.43662673374638 L 315.8804030884057,193.53489512647502 L 315.5403180513531,194.8325243263971 L 316.1658315975219,195.25356862857006 L 318.20026867091656,195.11845627357252 L 318.7103962264955,194.763398691779 L 318.92902226932347,194.08158378186636 L 318.57679137028754,193.65742720966227 L 317.41078560985625,194.06273212330416 L 316.9492416512221,193.53489512647502 L 320.52013432607055,189.79338742652908 L 320.81163576617837,190.10750362742692 L 321.16386666707695,189.96929175872356 L 321.5403893664479,189.31594224693254 L 321.5403893664479,186.63684781547636 L 320.9209488257766,184.88451854814775 L 320.9027299564332,184.02098273835145 L 321.5403893664479,182.9910781586077 L 323.4472945872694,181.62529591098428 L 324.07280813343823,180.74309099372476 L 324.0788810644299,179.2550635987427 L 325.5849718619138,180.08382210857235 L 326.35016312263906,180.14032986783423 L 327.1882297806442,179.83581813471392 L 327.1882297806442,181.32075731409714 L 328.90080068446696,180.56100463215262 L 332.8846537210047,180.73995156493038 L 335.08306038193405,179.55014721257612 L 337.37863423861563,177.86761208670214 L 339.46772791445255,177.27437010826543 L 344.5082736518234,177.10487620718777 L 353.1561496499926,175.11188138695434 L 354.0063622444868,174.75410875305533 L 354.9051582887769,173.58355475310236 L 356.1076017841697,170.75635685189627 L 357.08534615673125,169.44489772967063 L 362.62387351319194,165.54876644560136 L 364.4032468833029,163.34072658699006 L 365.575325647369,160.6908281513024 L 366.0065048020333,157.8469553941395 L 366.577361818403,156.64307623985223 L 369.04297812096775,155.31389094959013 L 369.61383513733745,154.6618752933573 L 371.3324790466577,152.3800148712471 L 372.31022349372506,149.2899541410152 L 373.86489781551063,147.40986271062866 L 377.30218563228846,144.386476671556 L 379.2576744519174,142.12163153849542 L 379.90140679106116,141.02533938363194 L 380.41153427399695,139.65350510389544 L 381.3164033982903,136.2337847785093 L 381.9358439389616,135.40400843997486 L 385.4338612165302,133.09649723465554 L 386.727398827672,131.98824828513898 L 387.84482098929584,130.592079364229 L 390.55335520766675,125.42784205079079 L 391.3428382668644,122.24867455405183 L 391.9926436133683,121.10356302768923 L 396.73561490513384,119.66445656726137 L 397.731578219682,119.60188937233761 L 400.1364650595933,120.53103497438133 L 401.0656259097159,120.65304759773426 L 401.65470171906054,120.29014071007259 L 403.106135988608,117.76251204777509 L 404.308579409495,116.49570445809513 L 404.86121755838394,116.1766708821524 L 405.93005619570613,115.92958015343174 L 406.7499039862305,115.94834637106396 L 408.990821313113,116.45504301972687 L 410.2782859932631,115.94209096301347 L 412.90787188336253,114.20629551121965 L 413.8734703939408,113.83101061661728 L 414.7115370519459,113.22744388994761 L 415.6589167676866,109.06245015049353 L 418.73790067993104,106.65519968047738 L 419.21766350604594,105.64862683252431 L 419.5456026084721,105.63612320832908 L 421.25817358493805,103.28871547011659 L 421.76830106787384,102.23857606807724 L 422.7885561082512,101.71665453258902 L 423.5658933054656,99.13539574248716 L 424.08816672489047,98.30422123265453 L 424.8594309166074,98.09174666088074 L 426.54163716360927,98.8916639436502 L 426.86350333318114,98.82916914275847 L 427.1246400438249,98.34796634945087 L 428.90401341207325,96.99816692434251 L 429.92426845245063,93.85527280997485 L 431.65505822375417,92.54641442210414 L 431.96477853134274,92.47144690062851 L 432.2502070385963,91.41880997386761 L 432.83928284980357,91.42505688220263 L 433.312972670421,91.89045871631242 L 433.25831614248455,92.18719766335562 L 432.86964758113027,92.47457053489052 L 431.54574523866177,94.32698470843025 L 430.9627423584461,94.86118968599476 L 430.94452349096537,95.42352775391191 L 432.4749060869217,95.42352775391191 L 432.529562542215,97.46058686519973 L 431.527526371181,98.3292184183374 L 430.25220755301416,99.01040467456914 L 428.6489496342838,99.0916488012299 L 428.06594675406814,99.30413509835489 L 428.2481352109462,99.74473959067836 L 428.9404510743916,100.11973066837527 L 429.92426845245063,100.1416054063011 L 432.4749060869217,98.04800223908387 L 435.2259508986026,94.34572843159549 L 437.655129538849,93.01184496167116 L 438.12881935946643,91.11896012467332 L 438.1227464284748,87.99269392201677 L 438.9608130864799,85.45397169259377 L 439.62276429496706,84.29245947138406 L 440.41832028515637,83.79915128252469 L 441.1470738854259,82.949942774605 L 441.6936391033232,81.001906769583 L 442.8535719309002,72.13220027484931 L 443.91633756272495,70.30385800916702 L 444.25034959614277,66.2297338815406 L 444.4446839131415,66.01139094890095 L 446.7402577716857,64.62653216253966 L 448.3192238919437,64.1524598908145 L 451.7140011154115,63.85617081588134 L 453.1411435101181,64.11503358720802 L 454.0035019684583,64.81055027595721 L 454.9873193465173,66.9970736769028 L 455.977209655568,66.77248312719166 L 456.2626381646842,66.28899883967824 L 456.2869298886508,65.63397553889081 L 456.560212533921,64.9041194980964 L 457.91447960585356,63.84057674743235 L 458.0845221262425,63.048417053418234 L 458.67359793558717,62.05046813841909 L 462.4327519237995,58.860506147146225 L 465.0441190190613,54.492725079646334 L 466.00364459864795,53.86616698210128 L 467.4915165286511,53.651084675686434 L 468.71217881701887,53.090011849300936 L 470.5887193083763,51.49104558117688 L 471.17779511772096,50.309829572215676 L 471.8944028560072,46.02191595197655 L 473.1211380753666,43.22718937299214 L 473.8863293360919,38.395799388643354 L 474.4328945539892,37.61093025095761 L 475.48958725482225,37.34308541077189 L 476.4612586963922,37.642075238516554 L 478.5017687752843,38.61070961644873 L 479.5098779518157,36.53645895770751 L 480.9734580833465,35.27519957884215 L 483.0139681622386,34.64927198411897 L 485.6921376492828,34.47800176544115 L 484.6718826107681,32.91172844450921 L 485.38241741620004,32.8556813262403 L 486.70024682581425,33.43484339141287 L 486.62129849754274,33.52514442172833 L 488.2427752856165,34.47800176544115 L 489.11727960407734,35.47450422332622 L 489.80959546752274,36.564487885916606 L 490.11931577697396,38.20269364444539 L 490.8298505079001,38.61070961644873 L 490.37437955476344,39.373816180741414 L 490.2711394280195,40.115148664684966 L 490.4472548775375,40.78174951276742 L 490.8298505079001,41.31753892940469 L 492.9553818460554,39.67595244850963 L 493.9756368845701,38.66365890344605 L 494.7286822833121,37.07524430169724 L 497.2064445223659,35.237830211408436 L 497.7165720798075,34.23511210246943 L 498.00807351991534,30.77270951354876 L 500.0,27.16151062119752 L 499.53845604136586,26.594986950978637 z" /><path fill-rule="evenodd" fill="#D2EBD9" stroke="#A6A6A6" stroke-width="0.25" opacity="1" d="M 295.7182201426476,252.3960371662397 L 296.81742350943387,252.35819832491688 L 297.2000191397965,252.1532393814996 L 297.79516788199544,249.06656268960796 L 297.3336239233613,247.65111682307906 L 296.2769312225282,247.05534312850796 L 294.71011096425354,247.8497129571624 L 293.49552168138325,248.12712127738632 L 289.8760454840958,247.22556193172932 L 288.3274440933019,247.10577815701254 L 286.73025910556316,247.64796453085728 L 284.13103794679046,248.9215446827002 L 282.4245398994535,249.17375084292144 L 278.7261153720319,248.38877223222516 L 277.57832848094404,248.59683508705348 L 276.0479458849877,250.28035281342454 L 275.37384881451726,249.00981639930978 L 274.51149043254554,248.3509429357946 L 273.248317476362,248.24060791754164 L 271.420360583812,248.59683508705348 L 268.4021060578525,249.78536744369194 L 266.9931824579835,250.07226792443544 L 265.3049032781273,249.70339681813493 L 264.18748104199767,251.235686523607 L 262.2077004238963,257.1108358663041 L 263.5801864396781,256.92474026349373 L 263.6652076244354,256.590404499555 L 263.22188253328204,256.05106640793383 L 264.27857530862093,255.237363060005 L 264.75226512923837,253.93489403417334 L 265.3049032781273,253.93489403417334 L 266.00936507992446,254.21240870514885 L 268.8697229474783,252.87533722817898 L 269.8171026650816,252.92579073365778 L 272.9507431052625,253.93489403417334 L 271.58433009684086,256.3948529304471 L 269.7624461352825,258.4198754327372 L 267.539747601375,259.7826536775101 L 265.02554770186543,260.2874162767548 L 262.56600433029234,259.7700348526705 L 261.6915000118315,260.0161043810658 L 261.18137245438993,261.3916408275254 L 261.28461258113384,262.9219084994402 L 261.94049078412354,263.7896522441879 L 262.91216230019927,263.9158734900411 L 265.1470066215843,262.45176921831444 L 266.136896930635,262.3697329016868 L 266.4283983707428,262.9881708614994 L 265.5356752574444,264.3324108584784 L 265.03769363835454,265.8913683532737 L 266.5073466990143,266.6172516308725 L 268.4689084496349,266.8003057583701 L 269.3798505049199,266.7371834095102 L 269.67742487601936,267.68088912195526 L 269.1794432550669,268.9150516479276 L 268.32923066057265,269.98515875497833 L 267.5761853363365,270.44289654376917 L 264.97089117206633,270.2692703411449 L 264.132824588567,270.682819645619 L 263.22188253328204,271.98983382969163 L 265.9486356191337,271.76567631284706 L 268.83935821801424,271.11216489155777 L 271.56003829836845,270.0419806591235 L 273.7159343659878,268.5678349288646 L 274.7665541358292,266.9265512190759 L 274.39003143645823,265.7998463266995 L 273.61269431374967,264.9446145701222 L 273.4608706627041,264.0925849690102 L 274.02565467357635,263.5088135236874 L 274.7301164753735,263.4804143826477 L 276.0479458849877,264.0925849690102 L 275.5560371968895,264.90043407841586 L 275.49530773609877,265.4022051021457 L 276.28479079529643,265.6294273920357 L 277.0682009253651,265.1844534720294 L 277.2503893803805,264.09889611345716 L 276.8131372202188,257.8142339908518 L 277.0256903320551,256.62825345713645 L 277.51152601465583,255.51174671249464 L 279.10871100239456,252.63568538590334 L 279.8374646026641,252.57892626151443 L 284.2039132695645,251.29244084237143 L 285.34562722966075,253.46186889661476 L 285.77680645883083,253.93489403417334 L 286.40231993049383,254.09887944115326 L 283.88204709999263,254.934600408189 L 283.2322418279946,255.81452040956356 L 283.7909529078752,256.6755648399703 L 285.1270011868328,257.1108358663041 L 286.8031344283372,257.2212326331064 L 289.1655106768012,256.9499734514393 L 290.3983189035207,256.4390094974078 L 290.8780816551298,256.05106640793383 L 291.1695830952376,255.46443888940848 L 291.5035951267928,254.17771911504678 L 293.2040202431381,253.69522616825998 L 294.758694563061,252.63568538590334 L 295.7182201426476,252.3960371662397 z" /><path fill-rule="evenodd" fill="#D2EBD9" stroke="#A6A6A6" stroke-width="0.25" opacity="1" d="M 274.00136287510395,283.8969229061622 L 272.8960865754634,282.8732491747942 L 272.6592416651547,281.6980036289897 L 275.0641285814345,279.84053905587643 L 275.42850534431636,279.12667483091354 L 274.0985299963504,278.747645160649 L 271.9122691974044,279.4804441174492 L 270.09038523584604,280.48494037264027 L 266.8838693983853,280.82294584368356 L 266.136896930635,281.596911346307 L 266.15511579811573,282.8795679244213 L 266.7502645403147,284.0738610434346 L 268.06809402629733,284.57940972340293 L 269.74422726780176,284.71843845630065 L 270.4061784762889,285.14817166374996 L 269.99929104559124,286.5575277728494 L 269.9689263161272,287.372864253819 L 270.10860410518944,288.2261694939807 L 270.6490963175893,288.5485414979048 L 273.0782749578357,286.7408167109825 L 275.1673686336726,285.96343371714465 L 275.75037151388824,285.0344176478684 L 275.24024403095245,284.3266332785133 L 274.00136287510395,283.8969229061622 z" /></g></g></g></svg>