<svg xmlns="http://www.w3.org/2000/svg" xmlns:xlink="http://www.w3.org/1999/xlink" width="500.0" height="388.4194131413242" viewBox="0.0 0.0 500.0 388.4194131413242" preserveAspectRatio="xMinYMin meet"><g transform="matrix(1,0,0,-1,0,388.4194131413242)"><g><path fill-rule="evenodd" fill="#D2EBD9" stroke="#A6A6A6" stroke-width="0.25" opacity="1" d="M 36.0554869286716,203.22594128816854 L 35.928525649011135,205.81603184563573 L 36.97312990762293,210.84146415442228 L 41.09983385540545,222.56625942583196 L 43.06493094563484,224.39831264154054 L 43.819941932335496,225.5311355900485 L 43.76478133909404,227.11500937805977 L 44.285359712317586,227.8260329051409 L 44.568057864904404,229.25960564462002 L 44.53358249925077,230.7879675977165 L 42.909791730344296,238.25074617099017 L 42.76154753379524,239.65416597167496 L 43.020112950354815,240.85611985891592 L 45.89191276580095,244.93818954192102 L 47.18129229918122,247.45224975550082 L 47.70876572653651,248.16464963706676 L 52.30433493293822,251.45795279170852 L 52.869731303304434,251.67385811370332 L 53.27998842485249,251.50885689281859 L 57.31705638021231,247.93565855699126 L 58.73744235932827,246.9127187866252 L 58.94774220138788,246.39865552214906 L 58.86155375279486,244.8820556384744 L 59.209755159914494,244.75049299374223 L 59.478663206100464,245.0223909362685 L 59.923395693302155,246.06531768862624 L 60.33365281485021,246.42760382185224 L 61.667850345373154,246.41005938290618 L 62.095345148816705,246.97412737819832 L 62.43665147013962,248.3945232660044 L 64.84648111462593,250.35480120917782 L 65.40842994302511,251.16569811233785 L 65.66354778036475,252.32862346922047 L 65.48082825168967,252.83859747904353 L 64.49138461984694,253.56893216224853 L 64.17076349258423,254.01225003029685 L 66.39787357486784,260.88750917452853 L 66.52543251030147,261.94613709452096 L 65.5187511947006,263.29660197219346 L 65.19468252360821,264.21927745151334 L 65.29121360369027,264.9548438800266 L 69.49376343749464,274.282126069651 L 69.61787483096123,274.9524772344157 L 69.53513389080763,275.5894424726721 L 68.59740331023932,277.6765946064843 L 68.6594590228051,279.0688717191806 L 68.40778869390488,280.3592436366016 L 68.66290656663477,281.85756475501694 L 69.47997326590121,283.4758799584815 L 69.99020900949836,284.1345564329531 L 71.27958850935102,284.9782234632876 L 74.24447189457715,286.12495844624937 L 75.25115320831537,287.2595024523325 L 75.44076782464981,288.68668887007516 L 76.98871277272701,289.7052360200323 L 77.6402975935489,290.4595270472346 L 78.26085459068418,293.14058262703475 L 78.85383124090731,294.63216167560313 L 79.4330177847296,295.2969276382355 L 80.50864986516535,295.96526933449786 L 80.81548082083464,296.42731801012997 L 81.00164796039462,297.8047865178669 L 81.356744421646,298.75908456742764 L 87.6312650218606,309.28606052021496 L 87.93120092526078,309.6269315206446 L 89.15162965841591,309.9183602381963 L 89.48259341716766,310.2822181895608 L 89.9928291272372,312.16003646561876 L 91.351159427315,312.6776998892892 L 101.41107762232423,314.14075147139374 L 102.10058538615704,314.08243674295954 L 102.81767346151173,313.65834133012686 L 103.72782373055816,313.40566098480485 L 104.24840207211673,313.6159329410875 L 104.5345478001982,314.28742360754404 L 105.18958016298711,318.087628297857 L 105.18268511071801,318.92213000427 L 104.25874470174313,320.79651863256004 L 104.22771684452891,321.55523219378665 L 105.41022263467312,323.1418512953678 L 105.02754582837224,324.27406806556974 L 104.9792803209275,324.9286997616291 L 108.20272908732295,336.2078642634442 L 113.15684233233333,343.39004249544814 L 113.46367328800261,344.36185784603003 L 113.70155347697437,346.99414634751156 L 115.6942308805883,351.9426535173552 L 115.60114734433591,353.65586612245534 L 115.02196080051363,355.37211091583595 L 114.82545113191009,357.0896146190353 L 117.96960650198162,367.18819077441003 L 118.61429626867175,367.1757405947428 L 118.85907150991261,367.8507471100893 L 119.27967122755945,368.20027947064955 L 121.01378325000405,368.4591037394712 L 122.04459736682475,368.94564556889236 L 124.2165468223393,369.0559444742976 L 125.36457724682987,369.5478613221785 L 127.64340037852526,369.5478613221785 L 128.7155849505216,369.4001940237358 L 130.89098194986582,368.75440516264644 L 131.9976419210434,368.6067530590808 L 132.79747086949646,367.6461934738327 L 133.6145376022905,367.2077553925337 L 134.15235362574458,367.24154895276297 L 134.63845659978688,367.6461934738327 L 135.77614439465106,367.6461934738327 L 136.5518406406045,368.36571254441515 L 136.8035109695047,368.9331925632432 L 137.03104856051505,371.1812857623445 L 137.80674477480352,372.6041421360569 L 138.76171303912997,373.33124431665055 L 139.9131909739226,373.59380123519804 L 142.38162878714502,373.54395920061506 L 143.5675821211189,373.8652678459184 L 145.01210087165236,372.79458818282 L 146.78413580171764,370.446379849338 L 147.03580613061786,368.5035761005711 L 148.8664492648095,367.0868113361066 L 149.62490779347718,364.9874867282342 L 150.39715646393597,364.7643389458535 L 150.99702823348343,364.33317511400674 L 151.29006901569664,362.553653905401 L 152.23814219422638,361.7511351159774 L 152.61392391473055,362.13594283990096 L 163.5046990159899,388.4194131413242 L 164.08388552628458,387.9084359998815 L 165.1250422410667,386.05030824476853 L 165.71112383902073,385.77305531303864 L 165.9386613983661,384.68108172144275 L 166.78675591945648,384.20244632521644 L 166.88328703306615,383.63115430262405 L 167.34870474785566,383.0670349029824 L 170.9686204958707,381.5709420192288 L 171.57193977572024,381.4586802141275 L 173.4715336766094,381.7883426724002 L 174.2610200624913,381.7384468918899 L 174.77470334991813,381.52639347396325 L 175.39181276969612,380.42256470257416 L 175.7193289846182,379.1371948131127 L 176.77427587285638,378.35521235479973 L 177.57755239866674,375.9981736479094 L 178.48770263418555,375.07942000427283 L 180.27697528153658,374.102030172362 L 180.5458833258599,373.8456863174215 L 180.94924536161125,372.7928082717117 L 181.36294999346137,372.4786638886435 L 183.56937484815717,372.5169300715206 L 186.11710599251091,372.81060722924303 L 187.35821998491883,373.143454878591 L 189.42329569905996,374.2195239958819 L 191.28841423243284,373.9329134677537 L 191.90552365221083,373.9898786837002 L 194.52910068258643,374.9690345248673 L 196.01498988457024,375.113248111913 L 197.7318642232567,376.5617662463337 L 199.8038350213319,377.6445510389749 L 200.27614785544574,378.266153390985 L 200.3761265128851,380.11879507720005 L 200.8070688266307,380.5437196124112 L 200.85533436760306,380.4243463636376 L 203.33411477692425,379.9317289649043 L 204.73381553031504,378.853961798246 L 205.7680771909654,377.40411674557254 L 206.73683559708297,374.5462018583203 L 207.42634335905313,373.2707239892334 L 208.2606477420777,373.2796240003081 L 208.98807841539383,374.45006633282173 L 209.43970599025488,374.8639918161789 L 210.27056286297739,374.99752097413875 L 212.0770731586963,374.70465008798055 L 212.71142032928765,374.74292742833495 L 215.44531857967377,375.5076237487374 L 216.8070964217186,376.17534914333373 L 217.40007310546935,376.9793681167066 L 217.66208603046834,377.66859485558234 L 218.2378250323236,377.6605802300619 L 218.89975248090923,377.2847929295385 L 220.28911060467362,375.8334664183203 L 222.19559955783188,375.21384314855095 L 223.08851210959256,375.13283285254147 L 226.06373809091747,375.4960503857583 L 227.06352435424924,375.1631003404036 L 227.98401721939445,374.5782473135041 L 229.73881446570158,373.0446670621168 L 230.2456026673317,372.80170776252635 L 230.87650226056576,372.6931350104278 L 231.52808711491525,372.87824354111217 L 232.55545368790627,373.75400984159205 L 233.16566805541515,373.9097714590607 L 235.08939469233155,373.66144445864484 L 236.73731823079288,374.1518758061575 L 237.32684737071395,374.15899664722383 L 240.3227586131543,373.42469575535506 L 241.7672773618251,372.8319659982808 L 243.08078963123262,372.0444004390156 L 247.9038963969797,367.5403613160597 L 249.84486075118184,366.53013717464637 L 253.3820355590433,364.8194585351739 L 254.32321368530393,364.5136387604289 L 257.33636257611215,364.080710877548 L 259.6013955678791,363.2255933249835 L 261.63199591450393,361.76713136886247 L 268.651184938848,353.7410925271688 L 273.6018506400287,344.9285081716953 L 274.6085319556296,343.9247039000038 L 284.89943528547883,337.30995297431946 L 290.9395232759416,332.3100914466195 L 292.23924540542066,330.9528090474196 L 293.3734856899828,329.45412218384445 L 294.43532763049006,327.6804759253282 L 297.02787677012384,322.03720065613743 L 298.77233145572245,319.57988763868343 L 301.37522325851023,317.8966943632113 L 303.27826466970146,317.10825279704295 L 305.13304053992033,316.0618228709791 L 306.7223559077829,314.6841576042352 L 308.89775290712714,310.95521862781607 L 311.61786101572216,307.246409141575 L 313.21062392927706,305.5532388720894 L 311.2007088083774,302.83672097185627 L 310.18368489667773,300.6044658290921 L 305.73980736359954,294.5034460584866 L 304.96755865961313,292.8391229209956 L 304.1815198175609,292.45129471691325 L 303.81263314932585,292.044092751923 L 302.46464551240206,289.5237219405826 L 298.4310250673443,283.7682279481087 L 297.600168261677,283.0356141376542 L 296.4762706067413,282.4967570184963 L 295.9591397754848,281.5740802590735 L 294.1560769882053,280.6602972014807 L 293.6286035273224,279.5776056847535 L 293.17008090019226,276.9954919788288 L 292.1840847786516,273.90738334681373 L 292.20821758173406,272.0497206854634 L 293.07010224461555,268.1376646667486 L 293.4803593661636,264.4398536852095 L 293.4010659698397,257.9002414428396 L 293.1907661277801,256.4486532569863 L 292.59089435637,255.48104493145365 L 293.00804656371474,254.93230681214482 L 293.83890340290964,254.61361350433435 L 297.7794402465224,253.81121835298836 L 297.97939749248326,253.43637949740514 L 298.46894801035523,253.2257033691276 L 299.02400175109506,253.61457982903812 L 300.9132530204952,253.69358589395415 L 301.8337458856404,253.9262185335392 L 302.8680075481534,254.98147251980845 L 303.76436761021614,255.2791058003204 L 305.6019057966769,255.48104493145365 L 307.9462321847677,255.07804873317946 L 309.58726067095995,255.7295234297635 L 310.7559763211757,255.76640065491665 L 311.8453985750675,256.1369361835532 L 313.6208810489625,255.81030222575646 L 316.55473657883704,257.61921571043786 L 319.5575428735465,258.53784793557134 L 321.08825010433793,258.6572939050384 L 324.8908853828907,257.8194457368227 L 325.732084851712,255.96834957716055 L 326.2974812220782,255.4898250141414 L 329.6829643249512,254.87085001636297 L 330.1759623847902,255.05170969222672 L 330.8447848893702,255.75235216575675 L 331.36536326259375,255.5688458319055 L 330.9516586307436,254.84099968418013 L 330.3586819488555,252.88073072140105 L 329.8001806307584,252.40761949506123 L 328.4004798773676,251.81867519789375 L 327.8867966234684,251.28066816891078 L 327.2800297997892,249.52203184878454 L 325.5666030049324,247.99531855410896 L 325.1735835671425,247.45049511792604 L 324.2910136450082,244.5777099818224 L 323.8910991214216,244.0137733098818 L 322.1431969590485,243.1201326455921 L 322.1880149897188,242.40106657228898 L 322.8533899821341,240.88066889694892 L 323.74285499192774,239.47182472317945 L 326.0975239761174,237.0035167648457 L 326.4595155585557,236.07629786024336 L 326.8870103619993,232.98060616839211 L 327.5110148694366,230.8037340734154 L 328.4487454518676,228.73502029385418 L 329.3175252005458,227.6868016885128 L 332.516841230914,225.59942389663775 L 333.3063276167959,224.78874682122841 L 333.90619935281575,223.78380098566413 L 335.2403968498111,219.99069753009826 L 336.1677848342806,219.0605623963056 L 337.3882135692984,218.56621372629888 L 338.90857817046344,218.29761228826828 L 340.1548634301871,217.73330791515764 L 340.7926581092179,216.64589959732257 L 341.75796897150576,211.2497847530758 L 342.2095965463668,209.9147093835054 L 342.93875104002655,209.10342371708248 L 344.1160855330527,208.73801430116873 L 344.43670666217804,208.40321156266145 L 344.97624647431076,207.30096685048193 L 346.27424481511116,206.25738452747464 L 347.2343843784183,204.11719977064058 L 347.4636456929147,202.34872119640931 L 347.88769295439124,201.82015197491273 L 352.19711649790406,199.2187160035828 L 352.81767346151173,199.15932122524828 L 354.16566113196313,199.50783303100616 L 354.64142147637904,199.24666658916976 L 366.7595203984529,188.14408986479975 L 368.062690038234,187.37443832599092 L 426.18819424137473,168.02831581118517 L 464.68686004914343,154.99807709513698 L 466.6450620871037,154.01977147511207 L 500.0,154.01977147511207 L 448.12143608368933,103.58562387328129 L 431.845605423674,86.80588678899221 L 398.6733870729804,50.44154549203813 L 397.7080762106925,50.03670058446005 L 366.23204693757,51.86375134775881 L 362.10189547762275,50.537567511200905 L 351.53863655775785,48.10081237740815 L 337.88810668326914,41.61185231257696 L 332.58923953957856,37.2505630973028 L 332.10658410936594,36.56410384271294 L 331.65840404480696,35.4384907388594 L 331.0654273945838,33.09924749867059 L 330.5620867367834,32.02219761942979 L 329.5381677057594,30.873452864121646 L 328.2936062011868,30.05579275463242 L 326.89735299162567,29.49658366141375 L 310.46983059309423,26.691214364604093 L 305.06753728352487,26.635905139846727 L 303.98501008190215,26.36195340845734 L 302.8335321471095,25.782083932543173 L 300.94772842153907,24.27500157011673 L 298.5930594019592,22.8276263223961 L 298.00008275173604,22.30399820173625 L 297.7725451942533,21.65336555498652 L 297.80012550763786,20.62862922740169 L 297.62430099770427,20.21131517260801 L 296.71759830601513,19.183177102240734 L 295.0800173636526,18.254429902299307 L 293.5941281616688,18.54557799338363 L 292.12547664158046,19.323139850399457 L 290.53960878401995,19.841526583302766 L 289.1261178571731,19.031983601278625 L 288.64346242696047,18.923124748282135 L 286.7542111556977,19.4147208025679 L 281.52429481223226,18.235423333826475 L 274.37754685245454,17.825056858127937 L 272.6330922357738,18.02807951660361 L 271.01619655266404,18.685537509038113 L 269.5337548609823,19.841526583302766 L 267.3928332608193,22.843179759336635 L 265.98278991132975,23.96996607678011 L 263.78326014243066,24.82459272793494 L 262.0594907179475,27.134556569741108 L 260.04957559891045,28.500927854445763 L 259.3152498397976,29.474111823830754 L 257.21225118264556,28.08867540920619 L 246.60417430102825,24.00366672652308 L 246.03877793066204,23.117095083813183 L 240.02971776388586,21.020029040286317 L 239.41605588793755,21.13062423595693 L 239.2574690952897,20.593204829958268 L 228.78384623490274,15.507247304311022 L 228.11157615482807,14.6814170780126 L 226.5257082954049,10.46884231432341 L 225.97410209849477,9.438464805833064 L 225.336307419464,8.597261030692607 L 220.5235432498157,4.196436953498051 L 219.66165855526924,3.1602277125930414 L 218.9342278484255,0.9350838569225743 L 218.37227902002633,0.05612156342249364 L 217.30698953568935,0.0 L 216.77606856636703,0.35313559614587575 L 216.0589804891497,1.6267009093426168 L 215.03161394782364,1.9729467744473368 L 210.86698705516756,2.097285369527526 L 211.17381801083684,2.7138048143824562 L 211.01867876201868,3.060062645468861 L 210.5808413270861,3.085967391380109 L 209.07426689751446,2.2173071522265673 L 207.80212504789233,2.1844953789841384 L 206.5024029519409,2.461669387295842 L 202.74803318083286,4.1187200479907915 L 200.83120162971318,3.71373186877463 L 199.25567640177906,3.968467970844358 L 196.98719583265483,3.684372566640377 L 191.20912083610892,5.249088212149218 L 190.59890643507242,5.584148006979376 L 189.17507291212678,7.3061369236093014 L 189.15094014257193,6.387270147679374 L 187.20308073610067,6.528034582966939 L 186.93072514794767,6.934787038364448 L 186.2756927832961,6.724933168501593 L 185.37588517926633,6.890743517433293 L 184.9104674309492,7.66971878381446 L 184.10374332778156,8.270804336178117 L 183.78312223404646,8.140395405120216 L 183.70038129389286,7.372634953586385 L 182.00074467249215,6.628210899420083 L 180.1321786288172,6.468447098392062 L 173.02680118754506,7.271592577919364 L 170.93069755285978,6.927014645654708 L 170.52388800680637,6.995239030569792 L 169.7550868485123,7.664537073695101 L 168.33125332556665,8.20775890396908 L 166.96947548165917,10.179503831663169 L 166.3489185180515,10.79877797793597 L 137.49991381913424,29.385953318094835 L 136.93106990493834,29.472383237211034 L 136.30017031170428,31.0177994039841 L 135.38312499038875,31.047187445568852 L 134.29025522619486,32.33942980424035 L 132.92847738228738,32.652343958383426 L 130.556570680812,33.85130827350076 L 128.56734078750014,34.40196952514816 L 122.13768090307713,34.346643470576964 L 121.07583896256983,34.77455888118129 L 109.6575904674828,34.542878488777205 L 108.2923650816083,34.9846291274298 L 106.79268570430577,34.82642788335215 L 101.79030688665807,34.78493265947327 L 101.02495327033103,34.967339336988516 L 98.42550904490054,36.938455190043896 L 98.20141899585724,37.411373768467456 L 98.27726484835148,39.29708814970218 L 97.83597990497947,40.084791728295386 L 97.77047668024898,40.662399905966595 L 93.22317301481962,45.51037159829866 L 92.40610628202558,46.901129313511774 L 92.12685563974082,48.52897707943339 L 92.26820474863052,55.52955544402357 L 92.43713413737714,55.961325149284676 L 93.71272349916399,57.578591521363705 L 93.98507905378938,58.25010877579916 L 93.97818396613002,58.939820540254004 L 93.0197681915015,61.01255262317136 L 92.91634202562273,61.663406680570915 L 93.14043204113841,62.44324653968215 L 94.04368722252548,63.75804828829132 L 93.87820537760854,64.05668184603564 L 92.05100978724658,64.76476349623408 L 89.85837510414422,66.11953554209322 L 89.01372812502086,66.3480810582405 L 87.0072605162859,65.75594575842842 L 86.19708890281618,65.97669593780302 L 84.00100667774677,67.58781193953473 L 82.70817963406444,67.83368936053012 L 81.40500999428332,67.71507911861409 L 80.67068420164287,67.22419585369062 L 79.31235393509269,65.73257234378252 L 78.5607904586941,65.20711053838022 L 77.75406638905406,65.08505295263603 L 77.14040447957814,65.37504905904643 L 76.64395887590945,65.93514279229566 L 75.41663508862257,67.98087095527444 L 75.45455799810588,68.39038771856576 L 76.18198870494962,69.47958708216902 L 75.79241680912673,70.55239384539891 L 74.50648481957614,71.59495073230937 L 71.83464225009084,73.158889199025 L 70.34530550427735,74.25874330208171 L 69.99710406176746,74.90482825832441 L 69.70751082338393,76.85014146810863 L 69.23175044544041,77.7440467159031 L 66.53232759609818,81.58519801823422 L 66.20136387087405,82.32596999884117 L 66.14275570213795,82.76698150369339 L 66.38408340141177,83.99389746796805 L 66.28065726719797,84.36909347004257 L 65.56356919184327,85.32574767922051 L 65.69457563757896,86.0952664577635 L 66.04622462205589,86.80588678899221 L 65.70147072337568,88.98731731937733 L 65.43601025640965,89.639977432671 L 63.68121297471225,91.56862659356557 L 63.05031338147819,93.21139300242066 L 61.87470264360309,95.26007973542437 L 61.70922079868615,95.93117835756857 L 61.68508802726865,97.9082079117652 L 61.47134060971439,98.77886596904136 L 59.85789247043431,101.74238179880194 L 59.5855368822813,103.67670692887623 L 58.84431606903672,105.58956471923739 L 58.16515090316534,108.31565680447966 L 57.5308037661016,108.92219079658389 L 57.165364641696215,109.9044934954727 L 54.89688413962722,111.41277233324945 L 54.32804022543132,111.6384186843643 L 52.17677599564195,111.72954594681505 L 51.58724685572088,111.85799289203715 L 51.20112253725529,112.18692587641999 L 50.74604738689959,114.25093713134993 L 51.20112253725529,114.59554335975554 L 51.15285699814558,115.25439546245616 L 50.49782460182905,116.79442688787822 L 48.34656040556729,118.30161417392083 L 43.623432230204344,119.43383538199123 L 43.06148340180516,119.82110149541404 L 42.73051967844367,120.6043459426146 L 41.36529432423413,121.61168017413002 L 40.31034746952355,122.65381846704986 L 40.227606531232595,124.8269019840518 L 39.74839864298701,126.11074589006603 L 39.293323524296284,126.38524881401099 L 38.11426521092653,125.98218293196987 L 37.47302302159369,126.45821876253467 L 36.56287278607488,127.5997227046173 L 34.81841813400388,128.90291407052428 L 34.718439511954784,132.21352569991723 L 34.48745440877974,133.3485126136802 L 33.91516298614442,134.27325203234795 L 29.77466886304319,138.51701954053715 L 28.778330145403743,139.10474185249768 L 27.409657249227166,139.35513961606193 L 25.727258311584592,140.60545424825978 L 24.225855180993676,142.59157297434285 L 22.857182282954454,143.05248916207347 L 21.595383062958717,143.7412821170874 L 19.430328695103526,143.5360322589986 L 18.71496440656483,143.7412821170874 L 17.579000366851687,144.9119585410226 L 15.762147406116128,145.70000150846317 L 13.459191504865885,145.37121002899949 L 12.342188904061913,144.68233831156977 L 10.066813316196203,145.14680120407138 L 8.939468150958419,146.30367555166595 L 8.143086679279804,146.834303703974 L 7.06055947765708,147.00132523127832 L 5.8280643578618765,147.43802622135263 L 4.747260946780443,147.1961861460004 L 4.371479224413633,146.8377833032282 L 3.1889734007418156,147.23098303587176 L 2.2857182193547487,147.33189446525648 L 2.051285605877638,147.43802622135263 L 1.6996366549283266,148.23664998321328 L 1.1238976549357176,148.58116834179964 L 0.8411994688212872,149.10492209461518 L 0.0,151.34806328290142 L 1.0618419740349054,152.96495061542373 L 1.3790155593305826,154.01106800721027 L 3.695761600509286,156.52834300138056 L 4.261157970875502,157.64437917305622 L 5.2609442342072725,157.8097901175497 L 5.836683200672269,158.0788049271796 L 6.253835408017039,158.4174751751125 L 6.515848333016038,158.88849341170862 L 6.6054843589663506,159.55630530812778 L 5.943556910380721,160.24591896566562 L 6.00906016677618,161.05922099924646 L 6.398632027208805,161.74107434879988 L 7.241555284708738,162.24704420240596 L 7.288097070530057,162.68336068536155 L 6.53653359413147,163.0482750654919 L 5.822893060743809,164.00110586814117 L 5.716019317507744,164.39915511303116 L 6.146961698308587,165.69616456713993 L 5.716019317507744,166.13607921311632 L 5.74015212059021,166.31814719864633 L 6.146961698308587,167.7669409182854 L 7.108825016766787,168.09191784041468 L 7.357047801837325,168.31670555798337 L 7.226041356101632,168.6469239856815 L 8.184457132592797,169.49211214797106 L 8.770538728684187,169.57750537618995 L 12.3939019870013,168.77239174966235 L 13.419544773176312,169.3648947654292 L 14.121118921786547,169.29257309692912 L 16.368914229795337,169.56007815769408 L 16.682640271261334,169.73783699108753 L 16.510263338685036,170.11166128411423 L 17.18942847289145,170.14128883497324 L 18.75805864855647,169.19498305907473 L 19.3924057520926,169.3065145763103 L 20.357716612517834,169.77269192843232 L 21.035158025100827,169.66289913188666 L 22.07803849503398,168.7793621920282 L 22.733070857822895,167.62580063391943 L 23.54151871614158,166.70145650976337 L 25.05843580700457,166.50631582189817 L 25.565223975107074,166.60911279334687 L 26.947687078267336,167.80527556256857 L 27.830257000401616,168.27314173942432 L 29.53334116563201,168.55805168184452 L 31.41914489120245,168.56502207706217 L 32.03970185481012,168.7357968618162 L 32.72231453284621,169.14618831465486 L 36.70766940526664,172.89433425478637 L 37.13861175253987,173.66396759066265 L 37.428204990923405,175.25742127466947 L 36.0554869286716,203.22594128816854 z" /></g></g></svg>