<svg xmlns="http://www.w3.org/2000/svg" xmlns:xlink="http://www.w3.org/1999/xlink" width="222.7323220707476" height="500.0" viewBox="0.0 0.0 222.7323220707476 500.0" preserveAspectRatio="xMinYMin meet"><g transform="matrix(1,0,0,-1,0,500.0)"><g><g><path fill-rule="evenodd" fill="#D2EBD9" stroke="#A6A6A6" stroke-width="0.25" opacity="1" d="M 169.51420199871063,438.9473629910499 L 167.06001934967935,436.51726820506155 L 164.61424864642322,435.58522631414235 L 159.3841267582029,431.74131533689797 L 158.44829872995615,431.65077206492424 L 158.50718230567873,430.6085369773209 L 158.78477622754872,430.07170179486275 L 159.14018056727946,429.80337064899504 L 163.2388969194144,430.1329593658447 L 164.91918135993183,429.7596264947206 L 166.40914570726454,428.09265625849366 L 165.30613046512008,423.8536562602967 L 164.67733815684915,422.0467135421932 L 159.21483651548624,410.97793808579445 L 159.2053730841726,410.1537204179913 L 159.48086403869092,408.83093659207225 L 163.60691918246448,393.0002976860851 L 164.1473861373961,391.8595610950142 L 164.8981515094638,391.28533908724785 L 176.52555156312883,386.3206527866423 L 177.18063117936254,385.824979795143 L 177.77682721801102,384.95520848594606 L 183.69883094541728,372.3229098916054 L 184.97323941625655,370.6498135421425 L 190.98777445033193,364.920802898705 L 190.3421582672745,363.65583024546504 L 189.9804449863732,358.81252246163785 L 189.0919341146946,355.4326905142516 L 181.02593792788684,344.31414113380015 L 180.43289635889232,342.4600983187556 L 179.18582669831812,340.8709454666823 L 172.48151281289756,328.2290841899812 L 171.4973161648959,323.8986948337406 L 172.26280244626105,320.25920146517456 L 177.0050319954753,312.1385400984436 L 177.85463763587177,309.2903186827898 L 178.43295831792057,308.3008405547589 L 178.7799507100135,306.4154167547822 L 181.12057220190763,302.4684041570872 L 182.0406278371811,296.71508427895606 L 182.51905674673617,295.0786669999361 L 183.69252198375762,292.13893007300794 L 186.57150746509433,286.73529617488384 L 188.26020383276045,284.35516625083983 L 188.76492004841566,283.0720011573285 L 189.95100318826735,276.3487345073372 L 190.75434317439795,274.23408919014037 L 191.59553688950837,270.938156157732 L 192.3252724315971,268.82088973373175 L 193.06972886435688,263.32826477847993 L 193.11389153078198,261.02960354834795 L 192.80054689012468,260.579294487834 L 192.11287100613117,260.84078613482416 L 190.85738939791918,261.65366464853287 L 185.9994957242161,260.1699442230165 L 184.75032307580113,259.247154885903 L 185.34967360645533,258.2282712366432 L 186.8638222757727,257.05374101921916 L 187.5115414261818,256.07091623172164 L 187.25077138096094,255.4355966411531 L 185.6167525947094,253.44273924455047 L 185.22770050168037,252.46648256480694 L 185.0615647509694,250.6364216990769 L 185.31392284855247,246.29400584474206 L 185.10152146220207,244.52436877042055 L 182.964889427647,241.61808760091662 L 182.25197776034474,239.96532582491636 L 183.20042366907,238.9854744989425 L 186.05207034014165,239.08957171998918 L 187.40218624286354,238.49018774554133 L 187.52626233547926,236.64238544739783 L 186.9121909160167,235.5925152078271 L 186.89326405338943,235.11228846386075 L 187.14036469347775,234.68723752349615 L 187.74812715128064,234.44477137550712 L 187.6545443609357,233.7925896998495 L 187.1435191836208,233.09829251095653 L 184.03741140849888,232.3394900932908 L 183.21304157190025,231.58113525435328 L 182.62420597672462,230.23765082098544 L 182.41601052507758,228.16908784024417 L 183.34132361784577,224.1187726072967 L 184.65779176913202,220.859971486032 L 186.3254583068192,218.7767811268568 L 188.31067546084523,218.26329688169062 L 192.06870836019516,218.23121089302003 L 192.86994536034763,217.8166332449764 L 193.21483478695154,217.45645383372903 L 193.01715425029397,215.17436879500747 L 193.46929589100182,214.2759516146034 L 194.2663269173354,213.34619530290365 L 194.61752530373633,212.42693693004549 L 194.47557385265827,211.49605678766966 L 194.06023447401822,210.70325072482228 L 193.57234211452305,210.1954236254096 L 190.10031506232917,208.45266829058528 L 189.87739874236286,207.9946970306337 L 190.15499266423285,207.70334537141025 L 190.36844557337463,205.59728668257594 L 190.6239581629634,205.35534664988518 L 190.60292831249535,204.9277857132256 L 191.52403541095555,204.3269964493811 L 192.2285351511091,203.40193670801818 L 191.45673992857337,199.86889100633562 L 191.87418231368065,198.98105743899941 L 192.69119170680642,198.18860337138176 L 194.14225084520876,197.28006667084992 L 197.33037501387298,196.1416531521827 L 198.33455000817776,195.3509363308549 L 199.87078003026545,193.003464166075 L 201.0400392729789,192.67675464600325 L 201.70668530650437,192.25094600580633 L 202.1598783917725,191.54963488131762 L 201.9926911573857,190.57568451203406 L 201.6309778559953,189.65557587519288 L 201.63728681579232,188.8784605897963 L 202.72873564064503,185.2476475853473 L 202.60781405866146,183.68473785184324 L 202.03475083597004,182.32053592428565 L 201.15990937128663,180.91220680065453 L 197.48178987577558,176.4932242576033 L 196.2000209800899,173.47609507478774 L 194.8972222134471,171.72250884585083 L 191.83948305808008,170.3922204580158 L 190.40524779632688,169.36984750814736 L 190.8195356912911,168.1654304228723 L 195.73000397905707,162.04420937597752 L 198.53748798184097,159.78918259590864 L 200.1778157092631,157.0718139950186 L 200.73931251466274,156.5822064038366 L 207.500406967476,152.6508351750672 L 210.6338535323739,148.72894046455622 L 214.76201168261468,145.83841562829912 L 215.2940666899085,145.27134344168007 L 215.7356933951378,144.52029367536306 L 216.04272909462452,141.8019337542355 L 216.49066474288702,140.22057438082993 L 217.0143078211695,139.5072634369135 L 218.88280936703086,137.85443600267172 L 220.18771110102534,135.79133454337716 L 220.92375560477376,135.09200955368578 L 221.42847182042897,134.2796872034669 L 222.04674921371043,132.10209715925157 L 222.7323220707476,131.49477499723434 L 220.1225185841322,126.26798847131431 L 219.49793227016926,124.39295190386474 L 218.53686843812466,120.1804612763226 L 218.20459693484008,119.19548704475164 L 217.30451966635883,117.72226562164724 L 216.9238795209676,116.7037493698299 L 216.10371563769877,113.63129440322518 L 215.6641919184476,113.11896766908467 L 214.57484608143568,112.42707440070808 L 214.25624394230545,112.04600586183369 L 213.6537389419973,110.61485728248954 L 210.74951767735183,107.27664328366518 L 209.63073002174497,104.79266696423292 L 206.94837359339,102.64419851079583 L 205.1177257951349,100.78336883336306 L 203.97580532170832,100.01452698744833 L 203.1514354851097,98.20579784736037 L 200.57738271541893,94.56995048001409 L 197.70575769990683,91.27208452112973 L 190.3421582672745,79.90383095107973 L 187.58619735389948,76.985591750592 L 187.17190947942436,76.31791781261563 L 186.30232547037303,74.11465715803206 L 183.37181689962745,70.61158885620534 L 182.7440760936588,70.10356282815337 L 181.43076241202652,69.49661115370691 L 180.96915734000504,69.07488266192377 L 179.87770851515234,66.46820746734738 L 176.92722157761455,63.26582074910402 L 174.58239411003888,59.34633722156286 L 173.09558421187103,57.973258167505264 L 170.05887492746115,56.05964861996472 L 168.95060220733285,55.209553798660636 L 167.5079550165683,53.72319291345775 L 166.33028380572796,53.05623116157949 L 165.36501402035356,51.56357825733721 L 164.12004734575748,50.135546108707786 L 162.60589865781367,47.38912452198565 L 160.81205308064818,46.89855221286416 L 159.88673998788,46.19603768363595 L 156.93625304847956,43.09705304726958 L 155.06459705345333,40.267023311927915 L 153.11513062007725,38.85533039458096 L 149.7146050464362,34.35455806553364 L 147.92286243662238,32.478788597509265 L 146.1916591487825,30.35738182067871 L 145.25939132273197,31.47948077507317 L 144.80070891790092,31.231729386374354 L 145.07889896444976,30.64034509845078 L 144.7328172903508,30.461801771074533 L 144.67651692591608,29.993659703060985 L 145.07889896444976,28.946826331317425 L 144.66161390580237,28.664220668375492 L 145.07889896444976,28.405217833817005 L 144.37183259800076,27.68733542226255 L 144.1068897023797,27.56128337047994 L 142.70434821024537,27.843656443059444 L 142.89312003180385,28.31104739382863 L 143.82704376801848,28.946826331317425 L 142.61658587493002,29.059548806399107 L 142.28706315159798,28.664220668375492 L 142.12975330092013,28.161397302523255 L 142.56525319814682,26.97151741012931 L 141.80851004086435,27.22856297530234 L 140.09962833113968,28.736548567190766 L 139.37103534676135,28.405217833817005 L 139.6492253933102,28.243786858394742 L 139.78832040540874,27.843656443059444 L 139.37103534676135,27.253766153007746 L 139.78500862792134,26.9328808542341 L 140.0631986744702,26.407198190689087 L 139.0481361784041,26.664135510101914 L 137.2680510636419,28.07565025612712 L 136.37055698409677,28.405217833817005 L 134.81567334756255,28.48930416442454 L 134.482838826254,28.664220668375492 L 134.449720967561,29.25136706791818 L 134.97463908791542,29.380944069474936 L 136.02281944267452,29.229491682723165 L 134.06555374711752,30.64034509845078 L 134.38679702579975,31.45588344708085 L 134.12019822373986,31.678389225155115 L 133.65489226393402,31.462625486776233 L 133.37007864378393,30.948641046881676 L 133.8370405100286,29.12516774609685 L 133.37007864378393,28.664220668375492 L 133.20614521577954,29.347286503762007 L 132.80376319773495,29.229491682723165 L 132.55537921190262,29.364115180447698 L 132.27718916721642,29.963353982195258 L 132.043708242476,30.099735125899315 L 131.55190798081458,29.229491682723165 L 130.85974465496838,30.099735125899315 L 130.43252422101796,29.89264333061874 L 130.25037597492337,29.655284812673926 L 130.30502045154572,28.98720346018672 L 129.99205665662885,28.554895171895623 L 129.71717838943005,27.668847052380443 L 129.28333440050483,27.48397735133767 L 128.3576901294291,27.56128337047994 L 129.04819756746292,26.449178060516715 L 128.9885854255408,25.98411468602717 L 128.01823205314577,27.11263437010348 L 126.15369637869298,26.41895242780447 L 125.554263073951,26.407198190689087 L 125.9831393957138,27.56128337047994 L 125.62381057068706,27.581450931727886 L 124.805799363181,27.198319755494595 L 124.51270629651845,26.842173263430595 L 124.4431587792933,25.561164662241936 L 123.67813615873456,24.858221707865596 L 123.39166662842035,24.786102805286646 L 122.34514218382537,26.125127652660012 L 121.96097496338189,26.22082349844277 L 121.50063669122756,26.193960843607783 L 121.14958733133972,25.989150596782565 L 121.09494287520647,25.561164662241936 L 120.66606655344367,25.398398054763675 L 120.13618074543774,25.68199391849339 L 119.6195420883596,26.225860338658094 L 119.22709542512894,26.842173263430595 L 119.06812968477607,27.636913185939193 L 120.32495256699622,28.805516066029668 L 120.95584784261882,30.229394257068634 L 120.89126801304519,31.166007122024894 L 121.20423180796206,31.94477060623467 L 122.12325250171125,32.70036820322275 L 122.97106979228556,32.56878258474171 L 124.73128418065608,31.231729386374354 L 124.29578428156674,32.83534128591418 L 123.63342703692615,33.96965287066996 L 122.81872760690749,34.45101310312748 L 121.92951301299036,34.08786564692855 L 121.44764810428023,33.48677768930793 L 118.88432552851737,28.499394895508885 L 118.6889301519841,27.11263437010348 L 119.28836345672607,25.843116514384747 L 118.957184843719,25.1702224817127 L 118.59288835152984,24.717341914772987 L 118.01994933001697,24.710633739829063 L 117.87754251994193,24.529525216668844 L 118.0365082602948,23.872373973950744 L 117.5976965855807,24.147265419363976 L 117.20524989999831,24.717341914772987 L 117.16219668649137,23.986346513032913 L 116.5561397857964,23.74165265634656 L 116.365712095052,23.03128800354898 L 115.99810380488634,23.337837914004922 L 115.31090816669166,24.99911630898714 L 114.40347873419523,26.13520059362054 L 114.1219768896699,26.125127652660012 L 114.07230010069907,25.62157792970538 L 114.96979417838156,24.12714947015047 L 113.04730225168169,24.475868152454495 L 112.30380622856319,23.872373973950744 L 111.33014107681811,24.99911630898714 L 110.4061527159065,25.58298027329147 L 109.68418330699205,26.618790043517947 L 109.01851426437497,27.163036877289414 L 108.31310378573835,27.51086587831378 L 107.72194994613528,27.56128337047994 L 107.72194994613528,27.253766153007746 L 108.83305424079299,26.71452114917338 L 109.4821643345058,25.707168024033308 L 109.9954912122339,25.4118213634938 L 110.22069267183542,24.283055754378438 L 110.06669461727142,24.0634510461241 L 109.5450882744044,24.06009859032929 L 109.65437722578645,23.567377470433712 L 109.87792279571295,23.242347637191415 L 110.63797775097191,22.7248081471771 L 111.20926088280976,21.730486946180463 L 111.60667523369193,21.400883186608553 L 111.43777414038777,20.420915799215436 L 111.2639053594321,20.19692819006741 L 110.22069267183542,19.916160689666867 L 110.19585427641869,20.85562529042363 L 109.346381098032,22.18235975317657 L 109.52521756663918,22.7248081471771 L 109.2735218051821,22.71308625303209 L 108.75522725842893,22.18738144636154 L 108.52174633555114,22.227555414661765 L 107.13410788401961,23.590836256742477 L 106.19190470315516,24.12714947015047 L 106.917185889557,23.12843831256032 L 107.72194994613528,22.443511251360178 L 107.51827508211136,21.608340084552765 L 107.05131323449314,20.746934704482555 L 107.02647484093904,20.19692819006741 L 107.8030887041241,18.49984911084175 L 107.98523695021868,17.675468979403377 L 107.26657934114337,17.855654636397958 L 106.7366935312748,18.516542192548513 L 106.8873798083514,18.797017024829984 L 106.57772779092193,19.267945896834135 L 105.34739919193089,19.635451951995492 L 104.39526063762605,20.77703275717795 L 104.09554399549961,20.477754401043057 L 104.22470365464687,19.752406787127256 L 106.33099971525371,18.516542192548513 L 104.94004948623478,17.930739087983966 L 104.94004948623478,17.675468979403377 L 104.56250586360693,17.47862714715302 L 104.02434059046209,17.760553650557995 L 102.27737333253026,19.916160689666867 L 102.302211727947,20.477754401043057 L 102.70293787680566,21.05296297930181 L 102.27737333253026,21.318913098424673 L 102.27737333253026,21.62507187575102 L 103.39013351686299,21.62507187575102 L 103.10200811736286,22.508807061240077 L 102.66319644264877,22.582477923482656 L 101.32192300073802,21.509626761078835 L 99.76372756622732,21.037910774350166 L 99.76372756622732,20.785393424332142 L 100.07172369398177,20.596454607322812 L 100.14955065399408,19.60872083157301 L 100.05350885540247,19.050830494612455 L 99.68424469605088,18.750267185270786 L 99.57495574466884,18.05922671407461 L 99.28848623298109,17.715508161112666 L 96.41716755181551,17.675468979403377 L 96.45359718799591,18.28619597479701 L 96.19858964718878,18.579977808520198 L 95.44350237958133,18.797017024829984 L 95.59584454447031,17.930739087983966 L 94.96991695649922,17.705498242750764 L 93.07723111100495,17.675468979403377 L 92.83878250047565,16.77156902104616 L 92.2376932874322,17.141727555543184 L 92.21285489201546,16.79824371635914 L 93.20804665982723,15.99823359027505 L 92.74936425685883,15.844952693209052 L 93.06895162723958,15.440175328403711 L 92.65994603186846,15.140418823808432 L 91.43955278582871,14.830740695819259 L 90.98583807051182,14.855712071061134 L 91.12493310309947,15.440175328403711 L 90.25062153115869,14.895667294040322 L 90.03204362653196,14.551092710345984 L 90.42945797741413,14.296463930979371 L 90.30029832012951,14.046874722465873 L 89.97905506007373,14.056857377290726 L 89.6545000039041,13.690874265506864 L 89.27695635892451,13.83392852731049 L 89.01532524265349,14.296463930979371 L 89.27695635892451,14.591038877144456 L 89.58495248667896,15.801637342199683 L 89.44585747458041,16.278182921931148 L 89.03354008309543,16.34984602406621 L 88.05987491086125,13.511246299371123 L 86.32615480571985,13.374878147616982 L 85.90886974707246,13.522888137027621 L 85.68366826884449,14.016927124932408 L 86.43213196098804,14.256526559591293 L 86.38907874748111,14.995560487732291 L 85.85256938263774,15.60506989620626 L 85.12728817760944,15.440175328403711 L 85.54457325674593,14.296463930979371 L 84.4318130724132,13.458027819171548 L 83.38032094016671,13.305036364123225 L 82.54078311659396,12.965856587514281 L 82.34869951568544,11.786044592037797 L 82.06719767302275,11.776078743860126 L 81.77907227165997,12.924296306446195 L 81.54227955080569,13.218570662662387 L 79.98408411629498,14.021918330341578 L 79.88141874037683,13.892152659595013 L 80.11324377544224,13.458027819171548 L 80.85508391074836,12.849491095170379 L 80.66796797700226,12.340925805270672 L 79.86154803261161,11.722928898409009 L 79.70589406974614,11.228071657940745 L 81.08525305613875,11.786044592037797 L 80.80209532380104,11.121817326173186 L 80.38977793231606,10.67198970168829 L 80.80706301145256,10.368316622450948 L 80.80706301145256,10.11447861418128 L 79.43432760052383,9.099605206400156 L 78.23546097055078,7.514154348522425 L 77.77843447588384,7.345282178372145 L 77.18065706081688,7.308861561119556 L 78.15432221069932,9.557198459282517 L 77.78836983069777,9.595338238403201 L 76.33615154959261,7.861898997798562 L 76.19208884984255,8.55765800178051 L 75.07270509004593,7.5588593147695065 L 75.20352065749466,8.236238922923803 L 75.98841400630772,9.127785811200738 L 76.19705653563142,10.67198970168829 L 75.21511190012097,10.749993311241269 L 74.73159110359848,10.602288194000721 L 74.37888587452471,10.11447861418128 L 74.65707591921091,9.810931337997317 L 73.84734417684376,9.278644930571318 L 72.30239589326084,9.616896018385887 L 71.93478762358427,9.412940317764878 L 71.92485225014389,9.064794708043337 L 72.43321144208312,8.696852980181575 L 72.05235601961613,8.451614381745458 L 70.8667365424335,8.960368609055877 L 70.09674623422325,8.498007411137223 L 69.65462278015912,8.696852980181575 L 69.28370271250606,8.040774138644338 L 68.9061590693891,8.090465880930424 L 68.76375227794051,8.514576790854335 L 69.10155446641147,8.975286092609167 L 69.10155446641147,9.278644930571318 L 68.72732262127101,9.21896237693727 L 67.80167837068439,7.805591404438019 L 66.12757040932775,7.378392692655325 L 64.63064302504063,5.895839771255851 L 64.05604809522629,6.357307950034738 L 60.72604700922966,5.895839771255851 L 60.032227793708444,6.752741616219282 L 58.44422627799213,6.362270820885897 L 57.57985005900264,5.922299595549703 L 57.10129694826901,5.895839771255851 L 58.20246588811278,8.120281817391515 L 58.50218255072832,8.44498690776527 L 59.36821463890374,8.846006408333778 L 59.23574320226908,9.84741972759366 L 59.4758477024734,10.67198970168829 L 58.50218255072832,10.23890303261578 L 58.10476819984615,9.131101205945015 L 57.596409007906914,8.799601338803768 L 57.3099394980818,7.43468246050179 L 56.6641411613673,6.863616248592734 L 55.78982958942652,5.439489129930735 L 55.00493625923991,4.53220758587122 L 53.18842148594558,3.5165790002793074 L 52.88704893551767,3.03793016821146 L 52.88373715803027,2.2922369334846735 L 53.10728272795677,1.6508089806884527 L 53.476546885445714,1.4876151047647 L 53.476546885445714,1.2107251938432455 L 50.002483101561666,0.6324065513908863 L 49.749131448566914,0.3869844041764736 L 48.50224391929805,0.6044031027704477 L 46.43237751536071,0.0 L 46.08795175142586,0.07903460413217545 L 46.45059233345091,0.34086979180574417 L 46.96723099052906,1.2799423206597567 L 47.2669476531446,1.4876151047647 L 48.089926548302174,1.6491604633629322 L 50.95627754367888,3.044531049206853 L 51.784224105998874,3.1468490660190582 L 51.641817294061184,4.0119119342416525 L 51.73785909451544,4.314154466614127 L 52.888704823330045,4.249736441299319 L 53.39044043980539,4.507427029311657 L 54.33926721662283,5.980182347819209 L 55.00493625923991,8.040774138644338 L 55.135751808062196,8.875839084386826 L 54.791326044127345,8.572571061551571 L 53.44508491642773,5.565135475248098 L 52.90857555158436,4.809780756011605 L 52.506193513050675,4.809780756011605 L 52.630385506898165,5.365098780021071 L 52.20482096262276,5.634576626121998 L 51.784224105998874,5.365098780021071 L 51.847148045897484,5.075842086225748 L 51.0456957668066,5.340302938595414 L 50.76088216714561,4.561944840475917 L 50.615163557231426,4.542119903489947 L 50.409832805395126,5.237818179652095 L 50.62841070815921,6.613747503608465 L 50.97118058428168,6.972844967618585 L 52.506193513050675,7.5588593147695065 L 53.27452793344855,9.008436769247055 L 53.6040506567806,9.278644930571318 L 52.53599959425628,9.684888107702136 L 50.52408944442868,9.250461168587208 L 49.571950890123844,9.278644930571318 L 49.085118314251304,9.47594772092998 L 48.30022496543825,10.189131891354918 L 48.17437708564103,10.811403593048453 L 48.30684854276478,11.314409457147121 L 49.29707262292504,12.620114283636212 L 48.87978756427765,13.17866526171565 L 48.46250248514116,12.036875711753964 L 47.74218898639083,11.507029168307781 L 47.71735059097409,12.178092623129487 L 47.521955193951726,12.61679027788341 L 46.48867787979543,13.034018192440271 L 45.813073482364416,13.762399513274431 L 46.03496316447854,14.569401206448674 L 45.66073131747544,15.158735351637006 L 46.766867926344275,17.100037962198257 L 48.517146959900856,18.98069304600358 L 48.87978756427765,19.635451951995492 L 49.29707262292504,21.037910774350166 L 50.04884811118245,21.810808766633272 L 50.002483101561666,22.18738144636154 L 49.590165708214045,22.28112263418734 L 49.058624010533094,21.730486946180463 L 48.32340747117996,20.19692819006741 L 47.16593816690147,20.60147032700479 L 45.862750271335244,19.969635708257556 L 42.99474336579442,17.38855662755668 L 40.45129151828587,16.641537537798285 L 39.27560741454363,16.029891604557633 L 38.69935659505427,15.99823359027505 L 38.99907325766981,16.379845663905144 L 40.090306824073195,17.141727555543184 L 39.68461300805211,17.255129860714078 L 39.654806926846504,17.572040025144815 L 40.027382884174585,18.37632672674954 L 40.24596078693867,18.62004392966628 L 41.203067008405924,19.050830494612455 L 39.70613962598145,18.72689283452928 L 38.262200808152556,17.75221176072955 L 37.16103188879788,17.675468979403377 L 37.35808315500617,18.486494785174727 L 37.566725704818964,18.97735326550901 L 39.009008610621095,20.70513296313584 L 39.11829756386578,21.318913098424673 L 40.14991898648441,22.54229332320392 L 40.78578194975853,23.024588258937 L 40.86195302195847,23.60759279690683 L 40.717890322208405,23.999755650758743 L 39.83364339545369,23.046362593770027 L 39.073588440194726,22.907347852364182 L 37.437566025182605,23.03128800354898 L 37.854851104319096,24.12714947015047 L 34.65235378779471,23.312708258628845 L 33.94694330915809,23.322760047391057 L 33.09250246360898,24.227732116356492 L 31.708175791427493,25.294372035190463 L 30.39008487574756,25.561164662241936 L 30.072153395041823,26.600316412746906 L 29.32700148038566,25.535993298515677 L 28.972640343010426,25.636681670323014 L 28.383142391219735,26.407198190689087 L 28.383142391219735,26.97151741012931 L 28.050307869911194,26.929521173238754 L 27.647925851866603,27.20336023159325 L 27.687667287886143,27.843656443059444 L 26.700754964724183,27.843656443059444 L 27.005439314991236,28.946826331317425 L 26.045021295547485,29.357383700087667 L 25.4522115457803,29.38430986367166 L 25.034926487132907,29.229491682723165 L 24.83953109011054,28.805516066029668 L 25.4522115457803,27.253766153007746 L 24.067884892225266,27.58481220714748 L 23.647288035601377,27.253766153007746 L 24.006616860628128,29.20256859064102 L 24.105970438569784,31.29071362875402 L 24.344419049099088,31.681760801002383 L 24.88258432224393,31.798085706308484 L 24.524911407381296,32.567095678299665 L 24.76998359337449,33.49352996982634 L 23.415463000535965,32.46588491089642 L 22.557710357010365,31.54521843418479 L 21.4830357208848,31.327790815383196 L 21.133642269298434,30.948641046881676 L 21.279360856860876,30.03406841121614 L 21.00779438763857,29.23622252047062 L 20.981300104409456,28.534712990745902 L 20.719668988138437,27.98822759091854 L 20.12189157307148,27.702462466433644 L 19.466157883405685,27.662124088034034 L 19.024034429341555,27.843656443059444 L 19.54564075358212,28.37158478051424 L 19.259171241894364,29.256415273994207 L 18.202711423859,30.948641046881676 L 18.52229881286621,30.978969080373645 L 19.44131948798895,30.64034509845078 L 19.44131948798895,30.948641046881676 L 18.961110489442945,31.149155780673027 L 17.558568997308612,31.231729386374354 L 16.6743220705539,30.948641046881676 L 15.980502855032682,31.489594066515565 L 15.980502855032682,31.798085706308484 L 16.384540781378746,32.056059539318085 L 16.108006624504924,32.64638280496001 L 17.08167177438736,32.374801740050316 L 17.23070216178894,32.64638280496001 L 15.804978184401989,33.71637491136789 L 15.392660792917013,34.253381095826626 L 14.856151407584548,35.4801850002259 L 14.856151407584548,36.044960614293814 L 16.599806886166334,35.63572810590267 L 16.735590122640133,36.15659121796489 L 16.257037011906505,37.49349971488118 L 17.23070216178894,37.49349971488118 L 17.23070216178894,37.74918769299984 L 16.358046477660537,37.972743049263954 L 15.549970643594861,38.63177160732448 L 15.874525681138039,38.87750809825957 L 16.257037011906505,38.91310126148164 L 15.811601739376783,39.55733205191791 L 15.283371841534972,39.7676219753921 L 15.417499186471105,40.342696495354176 L 15.283371841534972,40.93499364890158 L 15.010149482637644,41.294912768527865 L 14.717056395485997,41.16587399877608 L 14.35938347876072,41.767029248178005 L 14.299771316349506,42.07280524633825 L 14.513381533324718,42.48401446826756 L 14.14908504113555,43.31871682405472 L 14.433898663148284,43.47177390754223 L 15.447305267676711,43.2557984944433 L 15.967255702242255,43.313615238294005 L 16.384540781378746,43.783044062554836 L 15.92751426808536,44.04334206134081 L 15.417499186471105,44.04334206134081 L 14.856151407584548,44.9011535551399 L 15.61951814033091,45.4988839738071 L 16.136156797409058,44.93009730055928 L 16.384540781378746,44.9011535551399 L 16.066609300673008,46.19742688909173 L 15.655947797000408,46.42921949736774 L 14.49847849085927,49.1780091971159 L 14.14908504113555,49.504281524568796 L 14.56637012027204,50.10237021185458 L 14.00667822919786,50.56222656928003 L 13.74504711292684,51.51150266453624 L 14.185514697805047,51.51492469385266 L 15.549970643594861,50.6767879743129 L 15.987126430496573,50.80332994274795 L 15.963943924754858,51.11631639301777 L 15.631109403446317,51.41911094263196 L 15.134341454133391,51.51150266453624 L 15.710592273622751,51.901671608909965 L 16.90283532626927,51.29593198932707 L 17.480742014944553,51.51150266453624 L 16.92270603403449,52.27141084522009 L 16.833287810906768,52.800521828234196 L 17.09160714969039,53.237325210124254 L 16.7438695859164,54.67036081291735 L 16.523635793477297,54.989403957501054 L 17.23070216178894,55.27763773687184 L 16.6743220705539,55.53847446106374 L 16.952512115240097,56.13927974924445 L 16.6743220705539,56.13927974924445 L 17.252228777855635,56.48443630896509 L 17.91127424687147,56.453523110598326 L 17.77217921242118,57.030687822028995 L 19.024034429341555,57.58232018351555 L 18.725973656401038,58.46609606593847 L 18.33187110349536,58.86863218806684 L 17.354894153773785,59.34013285115361 L 17.54863364249468,59.78081012889743 L 18.010627822950482,60.23196702450514 L 17.91127424687147,60.78320611268282 L 18.74584438279271,60.78320611268282 L 18.74584438279271,62.52110496163368 L 18.467654338106513,63.09745801985264 L 18.335182880982757,64.83147535845637 L 17.91127424687147,65.41747683659196 L 16.80182584002614,65.99854774773121 L 17.39132379181683,66.37222763337195 L 18.689544018357992,66.23727553896606 L 19.315471606329083,66.5781425461173 L 18.7011352609843,67.6722765211016 L 18.050369258970022,68.34790436550975 L 16.66273082792759,69.07415472902358 L 16.257037011906505,69.51287073642015 L 18.97435761988163,69.07935603149235 L 19.716197757050395,69.51287073642015 L 19.176376594230533,70.96878242306411 L 18.050369258970022,70.96878242306411 L 17.23070216178894,72.13605369627476 L 17.030339097604156,72.80178882554173 L 17.480742014944553,73.03478816710413 L 18.00400424748659,73.13217312470078 L 20.35206071846187,72.09608543477952 L 21.643657349050045,71.18235792033374 L 22.24309067428112,70.96878242306411 L 22.24309067428112,71.28655361942947 L 20.85545222274959,72.71138217113912 L 20.166600674390793,73.78622916899621 L 19.70957417972386,75.61268402449787 L 18.909777790308,76.15466242842376 L 18.606749350205064,76.54342013411224 L 18.73922080732882,77.5289002712816 L 18.202711423859,79.17707492411137 L 19.27241839468479,78.48019146174192 L 19.59034987539053,78.5936938431114 L 19.04887282475829,79.26617668196559 L 17.623148826882243,80.28166155703366 L 17.23070216178894,81.25943032465875 L 17.618181159719825,82.95605960674584 L 17.558568997308612,83.4747623000294 L 16.714063504710793,84.1269340608269 L 16.80182584002614,84.78644537553191 L 15.871213903650641,86.28735762089491 L 15.689065657556057,86.84778391756117 L 16.050050349906087,87.31000690162182 L 16.09310358390212,87.60359364002943 L 15.67581850476563,87.87790131010115 L 15.410875611007214,88.94050160236657 L 14.026548957452178,89.02850350551307 L 13.314514903351665,89.53198714740574 L 13.6688760407269,90.39152139611542 L 13.375782955437899,90.7474759798497 L 12.481600673869252,90.98365721479058 L 13.288020620122552,93.81053336709738 L 13.549651736393571,96.91258749552071 L 13.698682121932507,97.29864372685552 L 14.021581269800663,96.37088262289762 L 14.364351145923138,97.63343529962003 L 14.433898663148284,98.26250652782619 L 14.299771316349506,98.75002162344754 L 14.592864403501153,99.27141904272139 L 15.48042312823236,100.08939979970455 L 15.60130332224071,100.68590533919632 L 14.856151407584548,101.72688593529165 L 15.283371841534972,103.24719981849194 L 14.836280699819326,103.2133959941566 L 14.369318833574653,102.13924212567508 L 14.021581269800663,101.72688593529165 L 14.438866348937154,104.44156522862613 L 14.56637012027204,107.1333013381809 L 13.473480643704534,106.68370164744556 L 13.175419889390469,106.86031177081168 L 12.966777360066772,107.85440881550312 L 13.314514903351665,108.92966406606138 L 13.175419889390469,109.55879210308194 L 11.840770024806261,107.31532585993409 L 11.786125550046563,106.85495961457491 L 12.064315594732761,106.23425544053316 L 11.622192122042179,106.32341909967363 L 11.529462119564414,106.99769159778953 L 11.786125550046563,108.65987459942698 L 11.357249228283763,108.92966406606138 L 11.786125550046563,109.8591639008373 L 11.453291026875377,110.12025698646903 L 11.06084436364472,110.02189390175045 L 10.385239966213703,109.25848892517388 L 10.340530844405293,109.81803753972054 L 10.812460398301482,111.93324283324182 L 10.196468144655228,111.49453231878579 L 10.035846514627337,111.7290899399668 L 10.019287586212158,113.29865848459303 L 10.196468144655228,113.92449989542365 L 10.812460398301482,114.69600396975875 L 10.246144933626056,115.8720732498914 L 11.49634426087141,117.22900267504156 L 11.92522058263421,117.10673170909286 L 11.605633191764355,117.9376792088151 L 10.141823668032885,118.31555651687086 L 9.828859874978662,118.91678549721837 L 9.361898006871343,118.45953836850822 L 8.994289737194777,117.71100501902401 L 9.360242117196321,120.52020838670433 L 9.274135671555996,121.36414311639965 L 10.226274225860834,121.89097579754889 L 10.713106801733375,122.49565065465868 L 10.939964169636369,123.18369435891509 L 10.926717016845942,123.66608191095293 L 10.524334978312254,123.78715832158923 L 10.037502404302359,124.53193368762732 L 9.863633623346686,125.30427126027644 L 9.977890260517597,125.93405403383076 L 10.294165832921863,126.36313100531697 L 10.737945195287466,126.52067552879453 L 11.398646552115679,125.98654958605766 L 12.064315594732761,127.43190784007311 L 12.28123758919537,129.37605432607234 L 12.620695687830448,129.86617325991392 L 13.109184151515365,129.84801743924618 L 14.49847849085927,129.2417574841529 L 14.925698924809694,129.42324299551547 L 15.61951814033091,130.35102674923837 L 16.257037011906505,133.09828567691147 L 17.09160714969039,133.52789535187185 L 16.753804940730333,135.12195967137814 L 16.63623652420938,137.398916086182 L 16.952512115240097,137.83724704757333 L 17.444312378764153,137.63450069911778 L 17.480742014944553,138.31409876607358 L 17.742373131215572,138.92274831607938 L 18.318623950704932,138.5736083984375 L 19.16809712909162,137.5322261825204 L 20.400081617757678,136.7745481375605 L 21.030976893380284,136.50627102516592 L 21.676775209605694,136.9187470022589 L 20.805775433778763,138.18253607302904 L 19.053840490058064,139.97438724711537 L 18.924680830910802,140.58014936372638 L 19.315471606329083,141.24479746632278 L 18.775650445371866,140.99940592050552 L 18.492492731660604,141.07997714169323 L 18.26563536375761,141.3986484631896 L 18.16959356330335,142.6906126178801 L 17.91127424687147,142.7804561946541 L 18.055336946621537,143.27378920279443 L 18.29378555715084,143.43888643570244 L 18.89818654768169,143.39669295027852 L 18.89818654768169,143.70308544114232 L 18.103357845917344,144.02239720337093 L 17.861597437411547,144.35830932855606 L 17.77217921242118,145.10386560484767 L 17.94108030758798,145.48599036037922 L 19.024034429341555,146.17152315936983 L 20.18978318013251,144.87611362338066 L 20.83723740465939,144.59331564046443 L 21.2594901509583,145.5815390571952 L 22.20997279509902,144.80449016578496 L 22.772976463660598,144.6832901723683 L 23.2167558260262,144.96427096799016 L 21.964900629594922,145.5815390571952 L 21.964900629594922,145.8627131972462 L 22.799470767378807,146.47856741398573 L 23.91223094984889,146.47856741398573 L 25.367761008441448,147.38357275165617 L 25.869496624916792,147.43141570873559 L 25.627736216410995,146.3204398099333 L 25.806572685018182,144.54557655379176 L 25.59130657836795,143.70308544114232 L 26.093042194843292,143.5911612994969 L 27.687667287886143,142.13885178416967 L 27.118040043860674,144.01138518191874 L 27.90127750299871,144.53823225572705 L 28.51892562583089,146.47856741398573 L 28.89315747283399,146.75809560902417 L 29.48099953494966,145.8627131972462 L 29.797275125980377,145.8627131972462 L 30.603695092722774,146.47856741398573 L 31.254461074247956,146.13291792571545 L 31.57736024260521,146.17152315936983 L 31.716455275192857,146.81327271275222 L 32.14533157646656,146.47856741398573 L 32.99314886704087,147.72955355793238 L 33.67372095026076,149.28576022200286 L 33.812815964221954,149.28576022200286 L 34.27481014467776,148.12717661261559 L 34.731836657971144,148.48808757402003 L 35.61939538270235,150.18718263693154 L 34.808007730171084,151.9254226628691 L 34.228445153683424,152.51643505506217 L 33.1123731713742,154.2707329429686 L 32.456639502197504,154.40947678685188 L 32.2032878510654,154.6796071343124 L 31.9946453217417,155.1756085921079 L 31.900259410962462,156.41458573006094 L 32.35728590376675,156.98168561980128 L 33.03620209917426,156.9242230989039 L 34.22016568854451,155.38665152154863 L 35.48195623792708,155.04233590699732 L 36.1873667165637,154.58153962157667 L 34.490076249465346,156.5090852715075 L 33.71180649660528,157.74376719631255 L 33.53462591767311,158.9350647237152 L 33.74161255732179,159.5032630711794 L 33.96184634976089,159.6648549232632 L 34.880867045372725,159.3732612039894 L 34.798072377219796,157.9997485782951 L 35.75186681933701,157.64361423626542 L 36.08966902829707,157.25791188515723 L 36.04827170446515,156.13668573275208 L 36.882841842249036,157.06881107017398 L 36.73215556703508,157.79570138826966 L 37.437566025182605,160.80771436728537 L 38.050246480852365,161.6631922814995 L 38.133041149005294,162.2251379340887 L 38.25888903066516,162.28655732423067 L 39.11829756386578,161.74132912792265 L 38.133041149005294,163.92920425720513 L 38.84010751731694,164.89676570892334 L 38.69935659505427,165.51981606148183 L 39.56042101606727,165.31085573136806 L 39.93299697339535,165.48996251821518 L 40.090306824073195,166.2906474415213 L 40.00088860094547,167.6131363734603 L 40.494344752281904,167.42813118733466 L 40.9778655488044,166.6846383959055 L 41.323947202414274,167.63369412347674 L 41.75613532215357,167.57015303708613 L 42.30589183792472,166.69957875274122 L 42.31251541338861,165.51981606148183 L 43.082505721598864,163.92920425720513 L 44.100879995152354,164.38772748410702 L 44.501606123521924,164.87998105213046 L 44.88908512145281,164.99374793097377 L 45.114286579191685,166.4344123005867 L 45.422282706946135,166.871405640617 L 46.063113356009126,167.24128398299217 L 46.36614179611206,167.7140594124794 L 44.96525619365275,168.65638551302254 L 46.36614179611206,168.65638551302254 L 45.813073482364416,169.59939513541758 L 46.336335714906454,169.30182417482138 L 46.62777291238308,169.2625274527818 L 46.8529743719846,169.45527994818985 L 46.92252188920975,170.41947134584188 L 46.485366102308035,170.79036057926714 L 46.30321785621345,171.29066679812968 L 46.37938892841339,171.82491414807737 L 46.783426854759455,172.139941804111 L 47.200711933895946,172.08368126489222 L 47.81670416891575,170.7247916739434 L 48.15947404503822,170.27901061438024 L 48.376396058127284,170.38575938157737 L 48.3995785433799,170.85218577459455 L 48.17437708564103,171.48559476993978 L 48.17437708564103,172.7702264022082 L 49.33184638991952,173.96598103828728 L 49.64149840734899,174.5050874929875 L 49.888226483017206,174.7080148346722 L 50.83208557218313,174.347277097404 L 51.06059880927205,174.48254198394716 L 51.48616335168481,174.9899109005928 L 51.24440294317901,175.26622848585248 L 51.249370630830526,175.56704909726977 L 51.76766517572105,176.07484201341867 L 52.39028100669384,176.2441504895687 L 53.963379461318254,176.16513710469007 L 54.59924242272973,176.41159943677485 L 55.00493625923991,177.1851552631706 L 55.500048300251365,176.62423430383205 L 55.94879532977939,176.70703957229853 L 56.823106901720166,177.8178939074278 L 55.90905389375985,178.83167180977762 L 56.06967552378774,179.87076775543392 L 55.8395063970238,181.18450068309903 L 56.12763179652393,183.5491727795452 L 56.43066023662686,183.92004804313183 L 56.81151565909386,183.9238330218941 L 57.5185820274055,183.5491727795452 L 58.07496211864054,182.9419990386814 L 58.67108364589512,183.24649609811604 L 59.31688196025789,182.79261353053153 L 60.663123067468405,182.59598045051098 L 60.97443099319935,183.07816279120743 L 60.692929150536656,184.15095250494778 L 59.88154151849449,185.80255052261055 L 60.03388368152082,186.29919896647334 L 60.27564409188926,186.35987139493227 L 60.86514204181731,186.12099025771022 L 61.02079598419368,186.29351108893752 L 61.7113034222275,187.36327383480966 L 61.79906575754285,187.9801164828241 L 63.087350610643625,189.62520034052432 L 62.948255598545074,189.62520034052432 L 63.10225365124643,191.04590817540884 L 63.332422798499465,191.38657712750137 L 63.779513938352466,191.074452387169 L 64.0858541764319,191.04590817540884 L 65.02971326559782,191.59406755305827 L 65.32280635274947,191.88537165150046 L 65.88415411114693,193.8061919156462 L 66.30143919028342,193.72228704206645 L 67.55826207250357,192.81684217229486 L 67.23701879382133,193.96066733077168 L 67.26682487502694,195.37850673496723 L 68.38952041231096,197.6506693083793 L 68.80018191598356,199.49962554313242 L 69.22740234807134,199.90192266367376 L 70.10668160766363,200.2755963858217 L 70.4345484431833,200.70689268410206 L 70.35009788535535,201.50660913996398 L 70.84355403669178,201.48358881101012 L 71.25421554036438,202.00740300491452 L 71.33866609632969,201.93639742396772 L 72.15502139553428,202.47383387573063 L 72.89686153270304,202.47383387573063 L 73.14193369820714,204.11631939932704 L 73.38038230873644,204.21820303052664 L 73.95166544057429,204.06826384179294 L 74.18183458782732,204.2604967057705 L 74.52957214973867,205.43758567608893 L 75.7118798494339,206.18440076336265 L 76.05796150304377,207.02026781626046 L 75.93376953154802,208.15745332837105 L 76.31793672963977,208.4949468318373 L 76.19705653563142,209.31687154620886 L 76.35105459019542,210.28417153842747 L 77.02997078560293,211.90762075595558 L 77.31478438712656,213.0568656809628 L 77.687360342592,213.31820057332516 L 78.29341724514961,214.18388762138784 L 79.50056331790984,215.06760379858315 L 79.82180659845471,215.8083764463663 L 79.54361655190587,216.7844414692372 L 79.77378569729626,217.302851928398 L 80.66796797700226,218.08960322663188 L 79.66615263558924,219.24242967925966 L 80.0370727032423,219.42526590451598 L 80.47919617593288,219.36691110767424 L 82.11025090515614,218.44525584578514 L 82.30895808152854,218.46858074702322 L 82.47620328702033,218.7426801249385 L 82.19635735079646,219.58867342583835 L 82.35697898082435,220.40991540439427 L 82.74280206859112,220.6474336758256 L 83.59889882430434,220.70195224508643 L 83.69328473508358,221.63691528886557 L 84.4417484253645,222.13583988323808 L 86.96201776899397,222.48676204681396 L 90.55861765705049,224.547434033826 L 90.98583807051182,224.65680425427854 L 91.34351098537445,224.469318151474 L 91.97275039181113,223.01917653903365 L 92.44964761473238,223.22010810486972 L 92.66491371951997,223.01917653903365 L 92.86858856119215,221.89025126956403 L 93.48623670451343,220.9706845972687 L 94.33405399508774,220.70195224508643 L 94.33405399508774,220.4021286815405 L 93.63857886940241,220.07512797228992 L 94.33902166225016,219.77545024827123 L 96.27807251736522,220.4021286815405 L 96.4271029047668,220.5695539712906 L 96.1886542942375,221.46155798248947 L 96.55626256391406,223.70403316244483 L 96.37411431781948,224.30919537134469 L 96.13566570729017,224.33067408949137 L 95.59584454447031,224.00267445109785 L 94.75133905373514,224.84627107158303 L 93.96644570492208,225.1686240695417 L 92.94310376606882,226.98312112502754 L 93.36038882471621,227.6387679632753 L 93.20804665982723,227.93832382000983 L 93.55412833206356,228.12631605379283 L 95.6024681199342,227.79147399030626 L 97.17887839488685,226.26718418858945 L 97.63590488769114,226.12248029373586 L 97.9737070966512,226.32389690354466 L 98.08299602754414,226.98312112502754 L 97.5382071994245,228.51413678750396 L 97.66736685857177,229.28424878045917 L 97.46369199641049,229.76065568067133 L 97.52827184647322,230.27058701962233 L 96.80795832723379,231.27927733957767 L 96.58606864511967,232.6522887852043 L 96.29131967015564,233.23611553385854 L 95.65214490890503,233.8792215436697 L 93.36038882471621,234.55414051748812 L 93.65348191000521,236.1454395726323 L 94.33405399508774,236.8984483871609 L 94.80598352849483,237.8294777162373 L 94.75133905373514,239.2154361642897 L 95.25307467021048,239.20160866715014 L 95.72169242613018,239.5512922462076 L 95.16531233489513,239.8793306015432 L 95.44350237958133,240.87581635080278 L 94.75133905373514,241.20815026387572 L 95.04443214088678,241.70285407826304 L 95.59584454447031,243.8976796530187 L 95.30440736748278,244.5600338410586 L 95.61902705021203,244.74253880791366 L 95.87403459101915,245.2266994304955 L 94.4731490071863,246.89289365708828 L 95.59584454447031,247.2566063515842 L 96.29131967015564,248.56324523687363 L 96.06777410022914,249.38131795078516 L 96.35589949972928,251.192488450557 L 96.21680448576808,252.1040226779878 L 95.64220955595374,253.2158949263394 L 95.03449678607285,254.1148811765015 L 93.51438689790666,255.69663010537624 L 93.06895162723958,255.9607785306871 L 92.04560968652368,255.7826724946499 L 91.59851852618158,255.88473021797836 L 91.12493310309947,256.6614359766245 L 90.56855301186442,258.49697348475456 L 90.29367474280298,258.6493853032589 L 89.78697146102786,258.49697348475456 L 89.15773205459118,259.1308049503714 L 88.18737868219614,258.9221675284207 L 87.78002897650003,258.98636001721025 L 86.93221168778837,260.3311305511743 L 86.19202746078372,260.7147494982928 L 85.38560751453042,260.8654166702181 L 84.58746701478958,260.7448815330863 L 83.87543298117816,260.3311305511743 L 83.09219552017748,259.43981128931046 L 82.68981350213289,259.3535228148103 L 82.46130024641752,259.5461749099195 L 82.29736681841314,262.2825558986515 L 80.84846033528447,263.1879343725741 L 80.59345279447734,263.5683845281601 L 80.00064304471016,264.96635290049016 L 79.91122482158244,265.8776678033173 L 80.41792812384665,268.0941467434168 L 81.85027567856014,271.6388033796102 L 82.34869951568544,272.24269861355424 L 82.90507960878313,272.38662185147405 L 83.10709856078029,272.6238264590502 L 83.17002250254154,273.26470194011927 L 82.84381155669689,272.8610751312226 L 81.77907227165997,272.24269861355424 L 81.28396023251116,272.1251395791769 L 81.21441271528602,270.9764681812376 L 80.65803262405097,270.38733926415443 L 79.77212980948389,268.13455542363226 L 79.26708239503205,267.492208622396 L 77.92746484279633,267.5366373024881 L 77.47043834999204,267.148948026821 L 77.31478438712656,266.5272753164172 L 76.94717611745,266.16208265163004 L 75.97682274319232,266.6564291976392 L 75.15384386852384,267.7992020510137 L 74.36398283392191,268.15476024337113 L 73.55921877734363,268.81563397310674 L 73.82250578328967,267.3972979411483 L 73.681754861027,266.7734861560166 L 73.28102873079479,266.4425252005458 L 72.90679688565433,266.63422990590334 L 72.02917351387441,268.47605980187654 L 72.03562338277698,269.71464711613953 L 71.2427983097732,271.1130388341844 L 70.79275965504348,273.0898486431688 L 69.8253869023174,275.0516635477543 L 69.83590181730688,276.9131459593773 L 69.11037224903703,280.1054087653756 L 68.19347110390663,281.30262518301606 L 66.90854771621525,285.11164374649525 L 66.45850908197463,285.73978316411376 L 64.34711286984384,286.5244167409837 L 63.62368626706302,287.1779961232096 L 63.097940200939775,288.03388470970094 L 62.39133749529719,290.57627874426544 L 61.84876755438745,293.58831700123847 L 62.13897937722504,295.9766001906246 L 61.91185706295073,298.10664464347064 L 61.432376651093364,299.6680536586791 L 61.638469114899635,300.8179920669645 L 62.13477340340614,301.59090325422585 L 63.23884014971554,302.26149127073586 L 63.23884014971554,303.07615829631686 L 64.35342181101441,303.857041278854 L 64.7656067404896,304.3532566688955 L 64.79715150408447,304.92097461782396 L 66.30709419958293,306.1629163362086 L 66.53842248767614,307.82690594159067 L 66.30709419958293,309.66008058562875 L 66.74030895717442,312.45997958257794 L 66.5215985905379,315.7854083869606 L 67.17983267642558,316.92337467707694 L 67.47425047494471,317.85956394299865 L 68.39325460605323,317.9556224010885 L 68.69398136623204,318.12641102448106 L 68.79282161407173,318.58685426972806 L 67.35438037663698,322.9111572895199 L 66.13885547965765,324.7729792315513 L 64.98011111095548,327.4155878443271 L 64.47960086911917,328.1147597860545 L 63.49750720895827,328.7443446479738 L 63.02012978307903,329.56946696154773 L 62.13267041556537,331.7405034452677 L 61.9265779517591,333.8004305642098 L 60.191615929827094,336.6907855346799 L 60.042304053902626,337.7338534332812 L 60.52178446575999,338.6380898002535 L 60.875085819512606,339.8836591653526 L 60.504960590973496,340.0927311517298 L 60.397708393633366,340.46344362199306 L 60.62693367525935,342.3172783330083 L 61.024397695437074,342.7784409094602 L 63.32716548256576,343.8673975430429 L 63.892868261784315,344.7528662774712 L 64.34921585768461,346.3905741982162 L 63.65312804467976,346.8504958860576 L 63.932824954390526,350.75770642235875 L 63.67626088298857,351.1411492507905 L 61.84666456654668,351.6137657314539 L 60.46079792454839,352.53621995449066 L 59.63222211226821,352.45121080614626 L 58.82677913829684,352.07011132501066 L 58.07180779054761,352.0166568905115 L 57.39044086821377,352.9298044424504 L 57.13808276876807,354.23074065335095 L 57.386234913021326,355.2512944228947 L 58.225325640290976,357.28662372753024 L 57.99610035866499,357.9281576741487 L 59.2578909099102,359.10193535126746 L 59.62591315060854,359.63683484122157 L 59.56072065420449,360.91158186644316 L 58.91931044496596,363.1524089742452 L 58.223222652450204,367.6738045848906 L 58.06339586339891,373.28155723772943 L 58.15592714957893,374.5394955109805 L 58.51343447715044,375.48586954176426 L 59.19900735281408,376.0808581802994 L 60.639551578089595,376.61183672584593 L 61.30619761161506,377.17939310334623 L 61.81722276844084,378.22850841097534 L 61.83614963106811,379.1804632321 L 61.44920052587986,379.8724824152887 L 60.0359950941056,380.4218861721456 L 58.225325640290976,382.734253725037 L 56.15598910860717,384.65697891265154 L 55.09608504921198,388.83017940819263 L 54.599780740216374,389.80432322621346 L 53.89948697388172,389.7704273443669 L 52.17293688096106,388.5282070636749 L 51.733413182199,388.5169198233634 L 51.44951029866934,388.9656672440469 L 51.40324464440346,389.4654048960656 L 51.61354308389127,391.61626253277063 L 51.40324464440346,392.45386029966176 L 51.52101177535951,393.7368071973324 L 51.211873069405556,394.65521641634405 L 50.02368696406484,396.36342956125736 L 49.725063191726804,397.7356556802988 L 49.424336433410645,398.17349269241095 L 46.40445102378726,400.2880638297647 L 45.821924390271306,401.08586683124304 L 44.97231872752309,402.94557706080377 L 44.461293552070856,403.50517063960433 L 43.2478716224432,402.9855397474021 L 41.48977676220238,405.3026978094131 L 40.379401076585054,405.1654347460717 L 39.515074545517564,405.7946805097163 L 38.62340920418501,405.90053924173117 L 37.31114702671766,406.65325228869915 L 35.70657001808286,406.7820887658745 L 35.56567006930709,407.5725758485496 L 34.18190641514957,408.00239752978086 L 29.48383955284953,408.0511199980974 L 28.79616368934512,408.6760814636946 L 28.74989803507924,409.68872183933854 L 26.371422816067934,413.119992390275 L 22.66596453078091,414.2168765347451 L 22.25377960316837,415.96350875869393 L 21.12868300639093,416.7626989595592 L 19.315910566598177,418.65451314114034 L 17.753393257036805,419.10839597694576 L 17.101468132808805,419.7446872740984 L 15.936414843425155,423.2210744228214 L 15.520023960620165,423.4996031858027 L 13.881799200549722,423.6098712552339 L 13.64416197128594,424.3065260015428 L 12.075335700064898,427.0650222618133 L 9.13536367751658,430.00753044337034 L 5.749559013172984,431.428822895512 L 5.318447241559625,432.11231905408204 L 5.38153675198555,433.2640083562583 L 5.9956081714481115,433.59743643179536 L 6.329982660710812,434.50750427506864 L 6.3362916223704815,435.52370085567236 L 5.861017184332013,436.3032473567873 L 4.899953372776508,436.6198939308524 L 3.503571815788746,438.0369909647852 L 1.0641100332140923,438.43042511865497 L 0.0,439.46451492235065 L 1.90109777264297,443.01985125243664 L 2.4668005723506212,443.3382062204182 L 8.329920722171664,439.7290503680706 L 9.122745795175433,439.4821489006281 L 9.682139612734318,439.88779861293733 L 10.849295869469643,442.3833849057555 L 8.350950552150607,447.7297609243542 L 9.288881547749043,450.5346148032695 L 9.669521691277623,451.07142515294254 L 14.047934971749783,454.0562691409141 L 20.66602646932006,452.9030642770231 L 21.156021816655993,452.4337657764554 L 28.48492201603949,438.08102591894567 L 31.286097057163715,434.908612832427 L 32.08943706564605,432.21166153624654 L 33.65616034902632,429.33101450279355 L 35.2754582464695,427.9383117482066 L 35.57197903096676,427.36769353970885 L 36.08721016161144,422.26410465687513 L 36.34167126752436,421.2035935651511 L 36.73913528583944,421.0443048570305 L 39.062932923436165,421.9394811876118 L 39.616017781198025,421.98295268416405 L 40.1522787604481,421.86123633384705 L 45.34454694390297,419.11996203660965 L 48.7555874325335,419.73600841499865 L 49.81759449839592,419.4091479126364 L 50.35595846734941,418.80771629698575 L 51.93109369836748,416.0990754850209 L 52.38323531858623,415.8971728757024 L 58.1622361112386,419.67525797337294 L 61.417655762284994,420.1989657934755 L 63.31454758159816,421.34552243351936 L 63.98960554227233,423.61857702955604 L 64.38076060079038,426.0818463154137 L 65.71194964274764,427.0330132227391 L 67.26605504378676,427.006824625656 L 71.37949228473008,424.7537505533546 L 72.51300078816712,422.9774126615375 L 75.47610564902425,420.96322019584477 L 82.2098613101989,418.5822539739311 L 84.05628150142729,417.0051535665989 L 85.5914600007236,414.5625509042293 L 86.22866423614323,412.85239478200674 L 86.60089247301221,412.3748896177858 L 87.12874150462449,412.49281068332493 L 87.57457418553531,413.24086163938046 L 88.07718743570149,415.173475548625 L 88.67653794586658,415.73279058374465 L 89.19807803817093,415.70395382121205 L 90.50192830711603,416.6443751305342 L 91.45037419721484,416.9936069753021 L 91.75320394337177,417.5508480630815 L 91.99294413812459,418.68919900618494 L 91.7468949817121,419.16911890544 L 91.96981130167842,420.25395340658724 L 92.10229932144284,424.1061980128288 L 92.36937832832336,425.2272859495133 L 93.15379147417843,426.8060636892915 L 96.9370601773262,430.2963276207447 L 97.88760907389224,430.82158442027867 L 98.84656989946961,431.0405065063387 L 101.3165249414742,430.1592135373503 L 101.83175607211888,430.27298796735704 L 102.31754544563591,430.8011535871774 L 103.19659288600087,433.18212736584246 L 103.8380030747503,434.13578874617815 L 104.39739689230919,436.17133500799537 L 105.25120850838721,437.01874828897417 L 105.43206516839564,437.74639901705086 L 105.35846072435379,438.14561339467764 L 104.64134306274354,439.1412698905915 L 104.62662219442427,439.8642790559679 L 104.32379242777824,440.767158837989 L 104.53198789991438,443.9545127414167 L 104.7506982665509,445.0935639888048 L 103.99572689831257,448.30976232513785 L 104.05881642922759,449.8498498722911 L 105.0640429276973,455.28495188616216 L 106.9104630984366,458.6320370081812 L 106.17862456850708,461.3478994052857 L 107.09973168745637,463.51527390256524 L 107.0808048453182,464.9032964464277 L 107.50140168145299,466.2238033115864 L 107.09973168745637,467.32930412516 L 107.37522264197469,467.9786427356303 L 108.59705649875104,468.9472676254809 L 109.12490555271506,469.92267057299614 L 109.48661885410547,471.1912358663976 L 109.50975167006254,472.57276095449924 L 108.68117585964501,474.4333054572344 L 108.62649827823043,475.01076090335846 L 109.02606528438628,476.3178281355649 L 109.50975167006254,477.16573592089117 L 110.05652758665383,477.5959674548358 L 113.09744284488261,478.4508125502616 L 113.44022928364575,478.69646196067333 L 114.86394963040948,481.2133722770959 L 115.8523522336036,483.37000496312976 L 117.9258947391063,485.771340733394 L 118.51893630996346,486.97680521197617 L 118.27499011904001,488.0520288217813 L 119.19399427063763,489.54116209223866 L 119.59356127865613,490.6614820994437 L 120.2686192188412,491.07190698571503 L 123.79111787676811,491.6540853548795 L 125.111792024225,491.25878710485995 L 126.9981689080596,491.833390051499 L 127.63116716966033,491.6111786849797 L 128.75836673378944,490.77020087465644 L 129.36823217757046,490.95550409704447 L 129.90659614652395,490.9064956046641 L 131.4060239456594,489.75076255761087 L 131.79507603682578,489.6803817972541 L 136.09778184629977,491.3231293987483 L 136.92425469122827,492.4634604752064 L 136.32911013439298,493.11532979272306 L 136.56043840385973,493.6462810318917 L 137.5046783387661,493.98092778399587 L 138.81273456290364,495.7031754143536 L 141.21539410203695,496.9152512755245 L 141.36996343545616,497.9467558208853 L 142.2174661103636,499.20882097631693 L 143.2857821173966,499.5804426558316 L 145.87245278805494,499.0222812164575 L 147.39291041716933,500.0 L 148.0111877899617,499.7238782886416 L 148.6189502477646,498.6847308333963 L 149.7146050464362,496.08297538012266 L 153.5062856990844,489.24135722219944 L 153.95211835950613,488.7505065202713 L 157.85736014693975,486.9859650991857 L 157.82791836932302,484.98765371739864 L 158.33263460546732,483.80239025503397 L 159.1086358036846,483.1660445034504 L 173.1187170483172,476.2784750685096 L 173.44257664494216,475.67622530832887 L 174.58239411003888,471.1218983512372 L 177.45927658304572,464.0487150643021 L 175.11339763365686,458.9812715575099 L 167.69722358509898,449.7579836472869 L 167.44065951369703,449.0084894448519 L 166.94014925137162,442.56309481337667 L 167.18514692410827,441.96514392644167 L 169.51420199871063,438.9473629910499 z" /><path fill-rule="evenodd" fill="#D2EBD9" stroke="#A6A6A6" stroke-width="0.25" opacity="1" d="M 36.324805840849876,9.810931337997317 L 36.19233440421522,10.746673924848437 L 36.39435335807502,11.13177832774818 L 36.773552890866995,10.9956512209028 L 37.16103188879788,10.368316622450948 L 37.13122580572963,8.163350408896804 L 37.02193685434759,7.5588593147695065 L 36.882841842249036,7.5588593147695065 L 36.67585518211126,7.941396111622453 L 36.34798834659159,8.040774138644338 L 36.043304016813636,7.8652113154530525 L 35.80485540628433,7.3585262931883335 L 35.20211030356586,8.975286092609167 L 35.11434796825051,10.235584907233715 L 35.23522816225886,10.741694821044803 L 35.55647144280374,10.950831934809685 L 35.80154360830784,10.696883995085955 L 35.8942736312747,9.76449298299849 L 36.324805840849876,9.810931337997317 z" /><path fill-rule="evenodd" fill="#D2EBD9" stroke="#A6A6A6" stroke-width="0.25" opacity="1" d="M 17.77217921242118,13.17866526171565 L 18.447783609852195,14.163343919441104 L 19.287321435287595,14.611012386158109 L 20.171568362042308,14.551092710345984 L 20.981300104409456,14.016927124932408 L 20.84220507182181,13.577772373333573 L 20.14672996662557,12.924296306446195 L 20.491155730560422,12.899360787123442 L 20.628594875335693,12.703217284753919 L 20.411672860383987,12.036875711753964 L 20.143418168649077,11.82258659787476 L 19.307192143052816,12.036875711753964 L 18.13481981679797,11.628260908648372 L 17.480742014944553,12.340925805270672 L 18.21927035227418,12.669975468888879 L 19.024034429341555,12.620114283636212 L 18.838574385270476,13.102183254435658 L 18.514019329100847,13.248500479385257 L 17.77217921242118,13.17866526171565 z" /><path fill-rule="evenodd" fill="#D2EBD9" stroke="#A6A6A6" stroke-width="0.25" opacity="1" d="M 22.799470767378807,15.440175328403711 L 23.937069345265627,15.68502607010305 L 25.034926487132907,15.69168932363391 L 25.730401592329144,15.158735351637006 L 25.730401592329144,14.855712071061134 L 25.283310452476144,14.85904161632061 L 24.88258432224393,14.601025573909283 L 25.326363684609532,14.016927124932408 L 23.773135917261243,14.016927124932408 L 24.478546395897865,13.762399513274431 L 23.875801293179393,13.426430333405733 L 24.061261316761374,13.17866526171565 L 23.60423482209444,12.684934187680483 L 22.97168363817036,12.355880863964558 L 22.322573544457555,12.296061623841524 L 21.82580559514463,12.620114283636212 L 22.05100705474615,12.944245103746653 L 21.964900629594922,13.458027819171548 L 22.36893853545189,13.762399513274431 L 22.36893853545189,14.016927124932408 L 22.01457741856575,14.216590333729982 L 22.07750135846436,14.669270191341639 L 22.388809263706207,15.152074782177806 L 22.799470767378807,15.440175328403711 z" /><path fill-rule="evenodd" fill="#D2EBD9" stroke="#A6A6A6" stroke-width="0.25" opacity="1" d="M 14.856151407584548,16.278182921931148 L 15.174082888290286,15.68502607010305 L 15.692377435043454,15.450168337672949 L 16.80182584002614,15.440175328403711 L 16.80182584002614,15.158735351637006 L 15.997061783447862,15.19037359021604 L 15.689065657556057,14.950607618317008 L 15.549970643594861,14.296463930979371 L 15.410875611007214,14.296463930979371 L 15.241974515840411,14.611012386158109 L 14.933978389948606,14.779134577140212 L 14.294803649187088,14.855712071061134 L 13.562898887321353,15.450168337672949 L 13.175419889390469,15.440175328403711 L 13.470168866217136,15.981571780517697 L 13.902356965467334,16.221521819010377 L 14.856151407584548,16.278182921931148 z" /><path fill-rule="evenodd" fill="#D2EBD9" stroke="#A6A6A6" stroke-width="0.25" opacity="1" d="M 29.214400751516223,16.278182921931148 L 29.48099953494966,15.69168932363391 L 28.244047379121184,14.601025573909283 L 28.785524429753423,14.016927124932408 L 28.204305943101645,13.2584772054106 L 27.561819406226277,13.18531610071659 L 27.012062890455127,13.740775179117918 L 26.700754964724183,14.855712071061134 L 27.96585733257234,15.440175328403711 L 28.865007299929857,16.291515305638313 L 29.214400751516223,16.278182921931148 z" /><path fill-rule="evenodd" fill="#D2EBD9" stroke="#A6A6A6" stroke-width="0.25" opacity="1" d="M 105.62558923661709,16.138200944289565 L 105.7845549788326,16.49151685833931 L 106.8873798083514,16.5298538710922 L 106.62078100442886,15.99823359027505 L 106.06108913570642,15.661705046892166 L 105.75640480592847,15.710013369098306 L 105.62558923661709,16.138200944289565 z" /><path fill-rule="evenodd" fill="#D2EBD9" stroke="#A6A6A6" stroke-width="0.25" opacity="1" d="M 32.272835368290544,15.99823359027505 L 33.017987260594964,17.588721577078104 L 33.54290538281202,17.995815698057413 L 33.9519109968096,17.675468979403377 L 34.05623226054013,16.694882253184915 L 33.49488448165357,15.655041942372918 L 32.74145310372114,15.20869079977274 L 32.272835368290544,15.99823359027505 z" /><path fill-rule="evenodd" fill="#D2EBD9" stroke="#A6A6A6" stroke-width="0.25" opacity="1" d="M 101.72099324129522,17.395228296518326 L 101.10500100627542,17.56870374828577 L 100.65956573560834,18.202746914699674 L 100.54365322738886,19.032460810616612 L 100.89470256865025,19.77579900249839 L 102.9844397008419,17.675468979403377 L 102.83375342562795,17.395228296518326 L 102.15649313852191,16.974976865574718 L 101.954474164173,16.574859611690044 L 101.99918328784406,15.99823359027505 L 101.33517013303936,16.454847652465105 L 101.72099324129522,17.395228296518326 z" /><path fill-rule="evenodd" fill="#D2EBD9" stroke="#A6A6A6" stroke-width="0.25" opacity="1" d="M 45.178866408765316,17.53534134849906 L 46.14425211586058,19.33141702786088 L 46.75030899606645,19.78916611894965 L 47.475590182468295,19.635451951995492 L 47.33483928069472,18.71186669357121 L 46.0134365465492,17.27013970911503 L 45.65410774201155,16.12986916489899 L 45.1043512262404,15.869942966848612 L 44.975191567093134,15.540109012275934 L 45.114286579191685,14.601025573909283 L 44.687066147103906,14.296463930979371 L 45.114286579191685,14.016927124932408 L 44.96525619365275,13.458027819171548 L 45.246758038178086,12.186399940401316 L 44.56121828593314,11.005611287429929 L 42.878830859437585,9.557198459282517 L 42.878830859437585,9.278644930571318 L 43.19013876467943,9.227251438423991 L 43.438522728160024,8.975286092609167 L 42.86558370664716,7.861898997798562 L 42.36881577782333,7.941396111622453 L 41.89523033425212,7.5588593147695065 L 41.34216204099357,8.975286092609167 L 41.164981462061405,8.552687032148242 L 40.39499115385115,7.6664885599166155 L 40.35524971783161,7.030772855505347 L 40.22940185852349,7.030772855505347 L 40.20290755480528,7.987771600484848 L 40.0505653899163,8.10537376627326 L 39.79886962659657,7.861898997798562 L 39.71276320144534,8.353862760588527 L 40.090306824073195,9.557198459282517 L 38.79871019348502,7.99605312384665 L 37.57666105777025,7.5588593147695065 L 37.72734733298421,9.557198459282517 L 37.65283212997019,11.367543201893568 L 36.86297111399472,11.945507960394025 L 36.60465179570019,12.340925805270672 L 37.79192716255784,13.055631160736084 L 38.20590044371784,13.17866526171565 L 40.22940185852349,13.17866526171565 L 40.22940185852349,13.458027819171548 L 36.463900873437524,13.762399513274431 L 37.13288169540465,16.699883457273245 L 37.72734733298421,16.83492225781083 L 37.192493837326765,15.355237504467368 L 37.507113540545106,15.158735351637006 L 39.54386208578944,15.55010280571878 L 40.64337513782084,16.278182921931148 L 44.59764792397618,16.929957715794444 L 45.178866408765316,17.53534134849906 z" /><path fill-rule="evenodd" fill="#D2EBD9" stroke="#A6A6A6" stroke-width="0.25" opacity="1" d="M 30.18806590139866,20.477754401043057 L 30.70139278098941,20.568032471463084 L 33.0974701307714,20.395840683951974 L 34.55300018936396,19.804204324260354 L 34.92557614669204,19.3581425845623 L 34.87589935772121,18.87716346234083 L 34.76661040633917,18.670128325000405 L 34.3807873185724,18.516542192548513 L 33.91216956079006,18.82206229120493 L 33.325983388349414,18.236125899478793 L 32.400339137762785,18.000821750611067 L 32.10227836482227,18.050883010029793 L 32.423521623015404,18.516542192548513 L 32.16520230472088,18.952305102720857 L 31.701552234590054,19.157713692635298 L 30.881885137408972,19.050830494612455 L 31.716455275192857,19.050830494612455 L 31.338911632075906,18.251146718859673 L 30.800746358931065,18.38133419677615 L 30.246022175997496,18.74692793749273 L 29.644932962954044,18.671797830611467 L 29.575385445728898,19.247903015464544 L 29.721104035153985,19.98467593640089 L 30.18806590139866,20.477754401043057 z" /><path fill-rule="evenodd" fill="#D2EBD9" stroke="#A6A6A6" stroke-width="0.25" opacity="1" d="M 35.9091766718775,20.785393424332142 L 35.54156840220094,20.52122086659074 L 35.14912171661854,20.48611324466765 L 34.3807873185724,20.785393424332142 L 34.71693361736834,21.45943629182875 L 35.14249816164374,21.891135396435857 L 36.1178192012012,22.18738144636154 L 36.1873667165637,21.62507187575102 L 36.74374680966139,21.318913098424673 L 37.55844623968005,21.220221066847444 L 37.72734733298421,20.785393424332142 L 36.669231625273824,19.88608193770051 L 36.04827170446515,19.64380550943315 L 35.49189161323011,19.635451951995492 L 35.9091766718775,20.785393424332142 z" /><path fill-rule="evenodd" fill="#D2EBD9" stroke="#A6A6A6" stroke-width="0.25" opacity="1" d="M 27.96585733257234,21.318913098424673 L 27.214081844314933,21.05630792863667 L 26.42256491817534,21.318913098424673 L 26.008591637015343,21.037910774350166 L 26.008591637015343,21.62507187575102 L 25.33795492723584,22.142187137156725 L 24.24009778536856,22.56573418714106 L 23.826124504208565,22.965966753661633 L 23.647288035601377,23.43836136907339 L 23.788038957864046,23.91259845159948 L 24.125841166824102,24.252878926694393 L 24.88258432224393,24.43562677502632 L 24.88258432224393,24.717341914772987 L 23.91223094984889,25.843116514384747 L 24.1109381262213,26.788423538208008 L 24.309645300731063,27.00679524615407 L 24.60439427755773,26.97151741012931 L 25.824787503108382,26.066370461136103 L 26.074827376753092,25.34135054051876 L 26.631207467988133,24.99911630898714 L 27.005439314991236,23.872373973950744 L 26.1228482760489,24.110386434942484 L 25.869496624916792,23.872373973950744 L 27.005439314991236,23.03128800354898 L 26.83984999731183,22.7248081471771 L 27.503863152116537,22.78006985411048 L 27.783709086477757,22.63438487239182 L 27.96585733257234,22.18738144636154 L 27.270382208749652,21.88109433092177 L 27.96585733257234,21.62507187575102 L 27.96585733257234,21.318913098424673 z" /><path fill-rule="evenodd" fill="#D2EBD9" stroke="#A6A6A6" stroke-width="0.25" opacity="1" d="M 22.438486052677035,27.406675750389695 L 21.925159193575382,26.499555617570877 L 21.66683985479176,26.318205228075385 L 21.537680195644498,26.71452114917338 L 21.72645201906562,27.505824245512486 L 22.200037442147732,28.519576543942094 L 22.763041108846664,29.256415273994207 L 23.2167558260262,29.229491682723165 L 23.142240641638637,28.660856682807207 L 22.438486052677035,27.406675750389695 z" /><path fill-rule="evenodd" fill="#D2EBD9" stroke="#A6A6A6" stroke-width="0.25" opacity="1" d="M 14.160676304250956,27.406675750389695 L 13.774853194132447,27.65708184428513 L 13.079378090798855,27.75288716889918 L 12.759790720418096,28.099188128486276 L 12.970089137554169,28.978791441768408 L 12.330914398655295,30.64034509845078 L 12.759790720418096,30.64034509845078 L 13.334385629743338,29.912845987826586 L 13.872550902888179,28.946826331317425 L 14.278244720771909,27.423480063676834 L 14.160676304250956,27.406675750389695 z" /><path fill-rule="evenodd" fill="#D2EBD9" stroke="#A6A6A6" stroke-width="0.25" opacity="1" d="M 15.689065657556057,30.64034509845078 L 16.03017964400351,29.938099768012762 L 17.066768733784556,29.7916345782578 L 17.480742014944553,29.229491682723165 L 17.09160714969039,29.229491682723165 L 16.952512115240097,28.443896878510714 L 17.09160714969039,27.843656443059444 L 16.752149051055312,27.88904338516295 L 16.490517934784293,27.71254727244377 L 16.43090577237308,27.384830471128225 L 16.6743220705539,26.97151741012931 L 15.649324221536517,27.749525472521782 L 15.222103789448738,28.50948566198349 L 14.995246440172195,29.535779803991318 L 14.506757955998182,28.967014763504267 L 14.354415791109204,29.210982013493776 L 14.299771316349506,29.94820138067007 L 14.460392946377397,30.53591122291982 L 14.841248366981745,30.721202740445733 L 15.689065657556057,30.64034509845078 z" /><path fill-rule="evenodd" fill="#D2EBD9" stroke="#A6A6A6" stroke-width="0.25" opacity="1" d="M 13.74504711292684,30.948641046881676 L 13.385718308389187,30.908204765990376 L 13.047916119918227,31.798085706308484 L 12.412053158506751,32.049314469099045 L 12.019606472924352,32.98045251145959 L 12.125583646818995,33.24034217186272 L 12.620695687830448,33.49352996982634 L 12.943594854325056,34.273649690672755 L 13.175419889390469,34.08786564692855 L 13.26152633689344,33.412504652515054 L 13.592704948037863,32.929830534383655 L 13.331073831766844,31.727278033271432 L 13.395653681829572,31.292398927733302 L 13.74504711292684,31.231729386374354 L 13.74504711292684,30.948641046881676 z" /><path fill-rule="evenodd" fill="#D2EBD9" stroke="#A6A6A6" stroke-width="0.25" opacity="1" d="M 13.047916119918227,44.04334206134081 L 12.382247077301145,44.04334206134081 L 11.786125550046563,44.35474557429552 L 12.302764205262065,44.783682495355606 L 13.296300083398819,44.33942894637585 L 13.74504711292684,44.61515512689948 L 13.592704948037863,45.21275735460222 L 14.021581269800663,45.757813315838575 L 13.430427430197597,46.58774790726602 L 13.05619558505714,46.87246458791196 L 12.620695687830448,46.925322862342 L 13.162172738462687,47.64167393557727 L 13.466857068240643,47.81058416329324 L 13.872550902888179,47.78499035164714 L 14.5266286842525,46.751409932971 L 15.283371841534972,46.06791326031089 L 14.339512750506401,45.21956920437515 L 14.140805575996637,43.96677854284644 L 13.047916119918227,44.04334206134081 z" /><path fill-rule="evenodd" fill="#D2EBD9" stroke="#A6A6A6" stroke-width="0.25" opacity="1" d="M 16.257037011906505,146.81327271275222 L 16.108006624504924,145.62196558527648 L 16.384540781378746,144.6282029915601 L 15.347951669245958,144.25367173925042 L 15.073073422536254,144.41338517144322 L 15.410875611007214,144.96427096799016 L 15.049890916794538,144.9808011353016 L 13.592704948037863,143.70308544114232 L 13.592704948037863,143.39669295027852 L 14.14908504113555,143.11788317002356 L 13.803003387525678,142.721782149747 L 13.435395117849112,142.53110964410007 L 12.620695687830448,142.47611313685775 L 11.887135036289692,143.94715005718172 L 11.509591393172741,144.31975765526295 L 10.956523098051548,143.88475328683853 L 10.663430012762547,143.89576424099505 L 10.385239966213703,144.6282029915601 L 10.812460398301482,144.6282029915601 L 10.812460398301482,144.96427096799016 L 9.759312357753515,146.3241169694811 L 9.274135671555996,148.6667386442423 L 10.115329384803772,147.95044029131532 L 10.911813976243138,148.03144148550928 L 11.726513406261802,148.34628921560943 L 12.620695687830448,148.35917935147882 L 12.620695687830448,148.0793081484735 L 12.291172962635756,147.9357133358717 L 12.046100776642561,147.5841568093747 L 11.637095162644982,146.47856741398573 L 11.637095162644982,145.8627131972462 L 11.930188249796629,145.66423106193542 L 13.047916119918227,145.5815390571952 L 13.50328672491014,145.2122454047203 L 13.728488184511662,145.73957720212638 L 13.592704948037863,146.47856741398573 L 14.092784674838185,147.04504203237593 L 14.910795884206891,147.44245660863817 L 15.732118869200349,147.44061645306647 L 16.257037011906505,146.81327271275222 z" /><path fill-rule="evenodd" fill="#D2EBD9" stroke="#A6A6A6" stroke-width="0.25" opacity="1" d="M 14.14908504113555,148.6667386442423 L 14.082849321886897,149.40185943990946 L 13.8924216106534,149.48663684912026 L 13.314514903351665,149.28576022200286 L 12.330914398655295,150.5246850270778 L 12.52630977705121,150.77740786597133 L 13.296300083398819,151.0670847594738 L 13.996742876246572,151.74078616686165 L 14.707121040672064,152.11008525267243 L 15.283371841534972,151.4528054650873 L 15.27509237639606,150.73313168995082 L 14.957160895690322,149.92904307693243 L 14.14908504113555,148.6667386442423 z" /><path fill-rule="evenodd" fill="#D2EBD9" stroke="#A6A6A6" stroke-width="0.25" opacity="1" d="M 88.92461930029094,231.23720215633512 L 89.7415655143559,231.35340260528028 L 90.31600425578654,230.67651341296732 L 89.62807315215468,230.24927285686135 L 88.289396494627,230.25699052028358 L 86.56305860541761,230.76213453896344 L 85.38860988803208,230.6669009886682 L 85.02022297494113,229.7502779942006 L 83.40898356772959,228.74834627099335 L 83.98702715337276,227.42476123571396 L 85.24071139842272,227.5800494235009 L 85.54457325674593,227.28056724742055 L 85.31605999916792,227.04573562927544 L 84.58415523730218,226.98312112502754 L 84.01452799327672,226.3258525542915 L 83.66016687452793,226.22025139257312 L 83.22135519981384,226.2593619134277 L 82.96800354868174,226.56837687455118 L 83.17002250254154,227.28056724742055 L 82.62688956223428,228.41619122587144 L 82.10693910717964,227.2335974741727 L 81.56215027906,227.0339951571077 L 80.49199545755982,229.04062396287918 L 80.16126469522715,230.3725975267589 L 82.02175640128553,232.44956831261516 L 83.78585114143789,232.59693839401007 L 85.69074492529035,233.153842208907 L 86.67943562939763,232.77236736379564 L 86.96200383082032,232.0727050807327 L 86.47427659109235,231.75502826832235 L 86.67428381554782,231.4319190941751 L 87.15610556676984,231.4967280253768 L 88.92461930029094,231.23720215633512 z" /><path fill-rule="evenodd" fill="#D2EBD9" stroke="#A6A6A6" stroke-width="0.25" opacity="1" d="M 66.9853230509907,6.580655787140131 L 67.1542241461575,6.4119006507098675 L 67.09130020439625,6.009951585903764 L 66.85285159386694,5.781737623736262 L 66.59453227557242,5.801580773666501 L 66.55810261890292,5.614735938608646 L 66.08120539784431,5.494044637307525 L 65.60596406459808,5.816463336348534 L 66.07127004303038,6.554182982072234 L 66.51836118474603,6.704753937199712 L 66.9853230509907,6.580655787140131 z" /><path fill-rule="evenodd" fill="#D2EBD9" stroke="#A6A6A6" stroke-width="0.25" opacity="1" d="M 46.07139282114804,10.421412967145443 L 46.68904094398022,10.457917958498001 L 46.869533302262425,10.323518192395568 L 46.55160181969404,9.353251807391644 L 46.19392890483141,9.010094318538904 L 45.76339669339359,7.9066155552864075 L 45.505077354609966,8.12525119073689 L 45.33286448381841,8.796286761760712 L 45.42725039459765,9.343304006382823 L 45.98859815299511,9.416256414726377 L 45.9985335059464,9.618554316461086 L 45.41565913148224,9.923716863617301 L 45.581248447299004,10.209040118381381 L 46.07139282114804,10.421412967145443 z" /><path fill-rule="evenodd" fill="#D2EBD9" stroke="#A6A6A6" stroke-width="0.25" opacity="1" d="M 47.49877268821001,12.176431123167276 L 47.61302932724357,11.60833166539669 L 47.28019480407238,11.111856440082192 L 47.07817583158612,11.078653935343027 L 46.89602758549154,11.324371883645654 L 46.30652963370085,10.960791628807783 L 45.218607844784856,11.010591328144073 L 45.78492331132293,12.138218091800809 L 46.15749924629927,12.515411825850606 L 46.674137903377414,12.759730285033584 L 47.0947347600013,12.72981134802103 L 47.49877268821001,12.176431123167276 z" /><path fill-rule="evenodd" fill="#D2EBD9" stroke="#A6A6A6" stroke-width="0.25" opacity="1" d="M 27.843321230262518,12.959206834435463 L 28.2672298848629,12.664989279583097 L 28.16456450894475,12.367512661963701 L 27.763838360086083,12.227937418967485 L 26.872967856004834,12.2860919944942 L 26.589810144156218,12.739784266799688 L 26.707378540188074,13.014068104326725 L 27.24388792552054,13.283419428393245 L 27.551884051412344,12.992455845698714 L 27.843321230262518,12.959206834435463 z" /><path fill-rule="evenodd" fill="#D2EBD9" stroke="#A6A6A6" stroke-width="0.25" opacity="1" d="M 34.38741089403629,15.495137922465801 L 35.64588966593146,15.989902639761567 L 35.86115577071905,15.630055708810687 L 35.5018269661814,14.898996938019991 L 34.526505906134844,14.353043952956796 L 34.87093167193234,13.717487871646881 L 34.092661898583174,13.650954883545637 L 33.882363479584455,13.772380055859685 L 33.93204026855528,14.3763422742486 L 34.2118862029165,15.365229921415448 L 34.38741089403629,15.495137922465801 z" /><path fill-rule="evenodd" fill="#D2EBD9" stroke="#A6A6A6" stroke-width="0.25" opacity="1" d="M 27.67276424728334,19.308032555505633 L 27.464121717959642,19.32306537218392 L 28.18443521670997,19.814229901880026 L 28.13807020522654,19.60203815624118 L 27.67276424728334,19.308032555505633 z" /><path fill-rule="evenodd" fill="#D2EBD9" stroke="#A6A6A6" stroke-width="0.25" opacity="1" d="M 27.137910751625896,19.16105392202735 L 26.887870898470283,18.984032832086086 L 26.17749275267124,19.107611145824194 L 25.8993027061224,19.5018017180264 L 25.674101227894425,19.493449043482542 L 25.47870584949851,20.125059470534325 L 25.56812407448888,20.357393126934767 L 26.154310246929526,20.31058886833489 L 26.498736010864377,20.444319628179073 L 27.482336536049843,20.30724577791989 L 27.513798505067825,20.02979758940637 L 27.137910751625896,19.16105392202735 z" /><path fill-rule="evenodd" fill="#D2EBD9" stroke="#A6A6A6" stroke-width="0.25" opacity="1" d="M 34.11253262683749,22.703039031475782 L 33.90720187500119,22.307907005771995 L 31.90357118844986,21.6401306707412 L 31.478006664663553,21.74052692577243 L 31.21471964009106,22.05682429112494 L 31.357126450166106,22.458579236641526 L 33.21835032477975,22.974341114982963 L 33.812815964221954,23.007839001715183 L 34.11253262683749,22.703039031475782 z" /><path fill-rule="evenodd" fill="#D2EBD9" stroke="#A6A6A6" stroke-width="0.25" opacity="1" d="M 32.21156731620431,23.319409443065524 L 32.23806159943342,23.03128800354898 L 30.303978430107236,22.100341903045774 L 30.136733224615455,22.15055631659925 L 30.820617087185383,23.17701610736549 L 32.21156731620431,23.319409443065524 z" /><path fill-rule="evenodd" fill="#D2EBD9" stroke="#A6A6A6" stroke-width="0.25" opacity="1" d="M 14.546499392017722,23.352915950119495 L 14.836280699819326,22.82026157900691 L 14.897548731416464,22.053476806730032 L 14.553122967481613,22.10703707486391 L 14.404092580080032,22.604245122522116 L 13.851024286821485,22.56573418714106 L 13.658940687775612,22.82361093722284 L 13.930507156997919,23.60926845856011 L 14.175579344853759,23.68802711367607 L 14.546499392017722,23.352915950119495 z" /><path fill-rule="evenodd" fill="#D2EBD9" stroke="#A6A6A6" stroke-width="0.25" opacity="1" d="M 121.65629063360393,25.95557813718915 L 122.51073149964213,25.351417550817132 L 122.6846002805978,25.146736042574048 L 122.6249881181866,24.925312515348196 L 122.35673342645168,24.650261513888836 L 121.06679268367589,24.25790833681822 L 120.77866728417575,23.931035075336695 L 120.56836884468794,23.146864160895348 L 120.35972631536424,23.13513861782849 L 119.72551924176514,24.180792620405555 L 119.85302301310003,24.502696435898542 L 120.81840871833265,24.730758406221867 L 121.09991054236889,24.935376442968845 L 121.30855307169259,25.73066432774067 L 121.65629063360393,25.95557813718915 z" /><path fill-rule="evenodd" fill="#D2EBD9" stroke="#A6A6A6" stroke-width="0.25" opacity="1" d="M 28.54873170889914,150.22590801678598 L 28.6961062066257,150.22037572413683 L 29.25248629786074,149.31708753667772 L 28.964360877871513,148.41258264519274 L 28.62159100174904,148.19714135304093 L 28.29703594557941,148.21187125705183 L 28.10826414451003,148.81962437927723 L 27.906245170161128,148.31866797618568 L 27.69760264083743,148.1860940232873 L 27.493927778676152,148.62253402918577 L 27.561819406226277,149.1586157232523 L 27.79198855161667,149.68938772939146 L 28.0618991330266,149.82764505408704 L 28.459313483908772,149.5456156656146 L 28.624902799725533,149.60091073438525 L 28.169532176107168,150.3476237282157 L 28.39307774603367,150.4084858186543 L 28.54873170889914,150.22590801678598 z" /><path fill-rule="evenodd" fill="#D2EBD9" stroke="#A6A6A6" stroke-width="0.25" opacity="1" d="M 30.94977674447,147.02112739160657 L 29.754221914336085,147.49030172266066 L 29.630029920488596,147.69458324834704 L 29.707856902852654,147.88232954777777 L 29.379990067332983,148.26895116642118 L 29.413107927888632,148.4899292513728 L 29.71116868034005,148.6777899991721 L 29.82376940920949,148.9762127082795 L 29.42304328083992,150.0599503237754 L 30.257613418623805,150.53021856583655 L 30.70304867066443,150.39373110048473 L 31.234590366482735,149.71888140961528 L 31.46807129122317,150.0876084882766 L 31.99630121141672,149.66173804923892 L 32.62057290971279,151.06154894456267 L 33.026266725733876,149.54008630104363 L 32.54605772718787,148.31314380839467 L 32.26124410517514,148.00934972427785 L 31.825744207948446,148.02039555832744 L 31.199816619977355,148.7017350103706 L 30.34371986426413,148.50282076187432 L 31.24121394380927,148.04616947472095 L 31.33394394442439,147.56023233570158 L 30.94977674447,147.02112739160657 z" /><path fill-rule="evenodd" fill="#D2EBD9" stroke="#A6A6A6" stroke-width="0.25" opacity="1" d="M 27.144534327089787,150.65196267142892 L 26.977289121598005,150.75157990306616 L 27.025310020893812,151.19810630008578 L 27.942674826830626,153.0615119971335 L 28.631526356562972,153.00052594579756 L 29.232615569606423,153.22785200551152 L 29.969488019123673,153.00607004202902 L 29.969488019123673,152.86193193867803 L 29.631685810163617,152.70487658120692 L 29.74759833700955,152.25783415324986 L 29.56545009277761,151.94204122945666 L 29.222680216655135,151.84233300201595 L 28.561978859826922,152.21904845163226 L 28.273853439837694,152.10823850147426 L 27.955921959131956,151.4158894624561 L 27.144534327089787,150.65196267142892 z" /><path fill-rule="evenodd" fill="#D2EBD9" stroke="#A6A6A6" stroke-width="0.25" opacity="1" d="M 44.45524111203849,171.1182548739016 L 44.880805656313896,170.97022378258407 L 44.336016807705164,169.21574720554054 L 43.92866710200906,169.52078488841653 L 43.80613101832569,168.75551905110478 L 43.06429088301957,168.40390976145864 L 42.31748308055103,169.13341799378395 L 41.88198318332434,170.37639508210123 L 43.017925871536136,171.3974986989051 L 43.557747034356,171.66742893494666 L 43.92204352654517,171.6205620057881 L 44.29958716966212,170.95898163318634 L 44.45524111203849,171.1182548739016 z" /><path fill-rule="evenodd" fill="#D2EBD9" stroke="#A6A6A6" stroke-width="0.25" opacity="1" d="M 38.15953543223441,2.689778681844473 L 38.45097263157368,2.531407767906785 L 38.29200688935816,2.328522214666009 L 37.043463472276926,1.6293783690780401 L 36.71890841424465,1.5502528492361307 L 36.48045980371535,1.6887255255132914 L 36.43575068190694,2.025075638666749 L 36.59968410991132,2.204826494678855 L 38.15953543223441,2.689778681844473 z" /><path fill-rule="evenodd" fill="#D2EBD9" stroke="#A6A6A6" stroke-width="0.25" opacity="1" d="M 19.885098850354552,18.070908028632402 L 20.4199523255229,17.9791290871799 L 20.315631061792374,17.590389739722013 L 19.911593133583665,16.74822912737727 L 19.426416447386146,16.70988584123552 L 19.1333233602345,16.89827848225832 L 19.108484966680408,17.460278959944844 L 19.61022058315575,18.66678927652538 L 19.971205295994878,18.643416419625282 L 19.885098850354552,18.070908028632402 z" /><path fill-rule="evenodd" fill="#D2EBD9" stroke="#A6A6A6" stroke-width="0.25" opacity="1" d="M 12.948562521487474,42.8341519292444 L 13.107528261840343,42.74915868230164 L 13.02307772450149,41.88083768449724 L 11.93681182526052,42.50780733115971 L 11.845737712457776,42.4228348582983 L 11.458258714526892,42.976952750235796 L 11.522838544100523,43.145273400470614 L 11.870576106011868,43.2557984944433 L 12.175260435789824,43.07896274700761 L 12.277925811707973,42.58428715914488 L 12.670372476801276,42.53839875198901 L 12.948562521487474,42.8341519292444 z" /><path fill-rule="evenodd" fill="#D2EBD9" stroke="#A6A6A6" stroke-width="0.25" opacity="1" d="M 16.25206932425499,56.42432796768844 L 16.4507765006274,56.20109226368368 L 15.57977670431137,56.602943524718285 L 15.184018263593316,56.39685080945492 L 14.722024062648416,56.45867524668574 L 14.645852990448475,57.010070495307446 L 15.056514471769333,57.76796759292483 L 15.40094025619328,57.99834387935698 L 15.631109403446317,57.812664318829775 L 15.586400281637907,57.07707800716162 L 16.25206932425499,56.42432796768844 z" /><path fill-rule="evenodd" fill="#D2EBD9" stroke="#A6A6A6" stroke-width="0.25" opacity="1" d="M 18.273914828896523,75.86360467039049 L 18.373268427327275,75.6545008122921 L 18.000692469999194,75.1823960300535 L 17.40125914476812,75.30084193870425 L 17.02702729962766,75.6649552360177 L 17.25057289004326,75.7067736722529 L 17.527107026427984,76.14071807451546 L 18.273914828896523,75.86360467039049 z" /><path fill-rule="evenodd" fill="#D2EBD9" stroke="#A6A6A6" stroke-width="0.25" opacity="1" d="M 11.910317542031407,133.2966895699501 L 11.562579980120063,133.64078233204782 L 11.088994536548853,133.28576749935746 L 10.65183874964714,133.61164926737547 L 10.434916755184531,134.04507031291723 L 10.554141061380506,134.28187353909016 L 10.731321619823575,134.0723915938288 L 10.910158088430762,134.60253691487014 L 10.350466197356582,135.38265996798873 L 10.320660136640072,135.74006793648005 L 10.62203268893063,136.159599756822 L 11.426796743646264,135.67806158028543 L 11.887135036289692,135.08367934264243 L 12.183539900928736,133.5260746795684 L 11.910317542031407,133.2966895699501 z" /></g></g></g></svg>