<svg xmlns="http://www.w3.org/2000/svg" xmlns:xlink="http://www.w3.org/1999/xlink" width="371.82910016318783" height="500.0" viewBox="0.0 0.0 371.82910016318783 500.0" preserveAspectRatio="xMinYMin meet"><g transform="matrix(1,0,0,-1,0,500.0)"><g><g><path fill-rule="evenodd" fill="#D2EBD9" stroke="#A6A6A6" stroke-width="0.25" opacity="1" d="M 279.6409088843502,302.917626327835 L 279.6409088843502,304.0207670975942 L 280.2849203767255,304.61229679360986 L 281.03562722122297,304.9931902976241 L 282.8146132044494,305.5185383216012 L 282.3036278830841,304.3933863369748 L 281.6160056418739,303.71911378833465 L 279.6409088843502,302.917626327835 z" /><path fill-rule="evenodd" fill="#D2EBD9" stroke="#A6A6A6" stroke-width="0.25" opacity="1" d="M 279.6409088843502,282.90914434869774 L 279.6409088843502,285.66767266299576 L 280.08515244117007,286.4316815712955 L 281.46460255328566,287.41842177766375 L 281.7568946047686,287.98849586746655 L 284.1982689984143,288.81285574822687 L 284.93005045643076,288.909319173079 L 284.93005045643076,288.5497691954952 L 284.2298112739809,288.295445938129 L 284.61252457415685,287.8043214685749 L 284.61252457415685,287.40526583441533 L 283.3445239122957,287.0763623560779 L 282.8734921780415,286.33958102879114 L 282.896623193752,285.83082072623074 L 283.67256392072886,285.2606288304087 L 282.12068251892924,283.8832674459554 L 279.6409088843502,282.90914434869774 z" /><path fill-rule="evenodd" fill="#D2EBD9" stroke="#A6A6A6" stroke-width="0.25" opacity="1" d="M 279.6409088843502,260.07842479250394 L 279.6409088843502,269.6594098294154 L 280.16505961539224,270.4992998873349 L 283.98798693623394,274.6361790187657 L 284.93005045643076,275.2289076836314 L 285.98987187165767,275.5362350875512 L 286.6648772233166,275.3474493501708 L 287.0980581850745,274.71521149063483 L 287.57329560117796,273.19153445679694 L 287.78568042628467,271.7115515151527 L 288.8959695547819,270.9165765319485 L 289.1672334051691,270.44219753169455 L 287.0496933381073,268.1929908618331 L 286.3936133729294,266.7518331829924 L 286.27795829297975,265.4950480919797 L 285.31907220138237,265.2797092641704 L 282.16484173573554,263.22277449956164 L 280.52464189985767,261.7941030843649 L 279.6409088843502,260.07842479250394 z" /><path fill-rule="evenodd" fill="#D2EBD9" stroke="#A6A6A6" stroke-width="0.25" opacity="1" d="M 279.6409088843502,285.69030493637547 L 279.6409088843502,284.232732438948 L 279.6409088843502,282.9005166525021 L 278.99378869868815,282.83915871661156 L 278.8339743502438,283.4972226158716 L 278.9769661272876,284.1376982294023 L 279.6409088843502,285.69030493637547 z" /><path fill-rule="evenodd" fill="#D2EBD9" stroke="#A6A6A6" stroke-width="0.25" opacity="1" d="M 279.6409088843502,269.734122056514 L 279.6409088843502,260.1519869174808 L 279.58829499734566,260.05312105291523 L 279.23771585151553,259.49022219982 L 277.9255559723824,258.5007998012006 L 276.59657352184877,258.03903628117405 L 275.3769377581775,258.20615313062444 L 275.11618803441525,259.0592856197618 L 274.1741245142184,259.8991552365478 L 273.9638425037265,260.6334345357027 L 274.2287978576496,261.4292102311738 L 276.08348538540304,263.0337617942132 L 277.9507898031734,265.7938781285193 L 278.480700510554,267.4197120144963 L 279.6409088843502,269.734122056514 z" /><path fill-rule="evenodd" fill="#D2EBD9" stroke="#A6A6A6" stroke-width="0.25" opacity="1" d="M 279.6409088843502,304.02073035086505 L 279.6409088843502,302.95328285335563 L 279.5881186691113,302.90342109673657 L 276.4367591734044,299.9748095043469 L 274.670390130952,299.60687671322376 L 274.2498260587454,299.1995076946914 L 273.7745886426419,298.34967662999406 L 272.31523135630414,296.8338290802203 L 272.36149338819087,296.63666531513445 L 271.95354625722393,296.38691922766156 L 271.276438142173,295.14248223765753 L 269.20726292254403,292.15348018100485 L 268.3198727457784,291.5222625909373 L 268.3240783754736,290.3517795079388 L 267.41565999761224,288.7470847433433 L 266.1245283195749,287.3219446018338 L 264.9553602174856,286.7079782166984 L 263.81983725819737,286.348352572415 L 258.5459639104083,282.68121720920317 L 258.05390397505835,281.5141303408891 L 257.8898839452304,279.11811988358386 L 257.49455375550315,278.35443964833394 L 255.0216370341368,276.554740392603 L 254.14265816845,275.2289076836314 L 252.70012340182438,274.49128459743224 L 253.22162284934893,273.9292506019119 L 253.39825976919383,272.98953156126663 L 253.22162284934893,271.9750655796379 L 252.70012340182438,271.1713265872095 L 253.08283670200035,270.77602210477926 L 253.90293664578348,271.39093366707675 L 254.84920579614118,271.66323989094235 L 255.71977340150625,271.5007354193367 L 256.2875348813832,270.77602210477926 L 257.03193328063935,271.3821494439617 L 258.2053070124239,272.75239258934744 L 260.1104622022249,273.37596846278757 L 260.6529898508452,273.78873735200614 L 261.08196523506194,275.0269446815364 L 262.64225789671764,275.58891883539036 L 262.99553168425336,276.73911425098777 L 264.0553531511687,277.063955378253 L 265.30863405717537,279.49555017007515 L 266.7091123703867,280.14066091249697 L 267.0665918397717,280.98758207424544 L 268.3198727457784,281.5141303408891 L 270.03577412618324,282.62856947095133 L 271.0240996782668,283.48844872647896 L 271.46569195156917,284.3131640984211 L 274.670390130952,285.97117089363746 L 275.3601151872426,286.9097140347585 L 275.7302115461789,287.0763623560779 L 276.5124607179314,287.1026750539895 L 277.2358309160918,285.14658673177473 L 276.344235109631,283.79553125891834 L 275.7302115461789,282.26002805354074 L 273.9638425037265,278.94256616802886 L 273.9638425037265,277.8013946863357 L 272.90402103727683,277.8013946863357 L 271.81896573957056,276.37036324315704 L 273.181593331974,276.26500340155326 L 274.05636656749994,275.6372120436281 L 274.5316039836034,274.6230068630539 L 274.670390130952,273.3847509289626 L 275.3769377581775,273.4462281439919 L 276.3105899672955,273.23983895545825 L 277.042371425312,272.7172604666557 L 277.14330680062994,271.8740526526235 L 276.6386299240403,271.5007354193367 L 274.2834711493924,272.2780983506236 L 275.0236639189534,270.77602210477926 L 273.9638425037265,271.1713265872095 L 273.2194441044703,270.591541437665 L 272.59280365146697,270.841907242313 L 272.29840878536925,271.5402637734078 L 272.51710210694,272.2780983506236 L 270.6666202088818,272.33958217920735 L 269.92642749100924,272.6557788962964 L 269.4091336731799,273.3847509289626 L 268.31146148592234,272.98953156126663 L 265.49788786657155,273.3847509289626 L 264.989005359821,273.1564038337674 L 264.13105469569564,272.43619884271175 L 262.39412511419505,272.14634607429616 L 262.061879475601,271.816957941046 L 261.9020651271567,271.1713265872095 L 261.5824364298023,271.8740526526235 L 261.2333682719618,271.8740526526235 L 260.6908406233415,270.7848067926243 L 258.80671363463625,269.5504813059233 L 258.05390397505835,268.56203521508723 L 257.1665137982927,269.39233631268144 L 256.12351490277797,269.4406586289406 L 253.96602124907076,268.9310662150383 L 252.32582141272724,268.8783483377192 L 251.42160866502672,268.6674740081653 L 250.6099200323224,268.1929908618331 L 248.8309340486303,268.8168437688146 L 247.3799880221486,268.88713465142064 L 243.30472223693505,268.57521508983336 L 243.8766893465072,269.08043213235214 L 244.67576108966023,270.4992998873349 L 246.29493272444233,271.1845031629782 L 245.99212659848854,271.8740526526235 L 246.1225014347583,272.64699575374834 L 245.51268355268985,273.02466275403276 L 243.8766893465072,273.3847509289626 L 241.72760700434446,274.8864463986829 L 241.34489370370284,274.6756953303702 L 240.78974911384284,274.6581325379666 L 236.85326947644353,273.12127303681336 L 235.8607382941991,272.4801152716391 L 234.3130625220947,271.1713265872095 L 234.64951379038393,270.24892572383396 L 234.33829640457407,269.5021594534628 L 233.65698260813951,268.9442456688266 L 232.90837857918814,268.56203521508723 L 231.34388023568317,269.0013563677203 L 230.2588249896653,267.65697423694655 L 228.9887215127237,263.8029776015319 L 230.3092926517129,264.6160855072085 L 230.88967107282951,264.7303549083881 L 231.84855711227283,264.5413701669313 L 231.35229154722765,263.8952795777004 L 229.88872857904062,262.8579328372143 L 229.35040661180392,262.2952599104028 L 228.9887215127237,262.2952599104028 L 226.28028895007446,263.20079646096565 L 225.607386413496,263.5963939013891 L 225.13635467924178,264.75672457995825 L 224.13541218591854,264.99404871929437 L 223.84101737150922,265.3280510159675 L 223.6727917115204,266.3475695508532 L 223.31110661197454,266.3475695508532 L 223.31110661197454,265.2797092641704 L 222.51203492097557,265.7411440771539 L 221.9568903306499,265.8290340474341 L 221.45221345406026,265.6444642036222 L 220.81295611150563,265.2797092641704 L 218.72695832047611,263.4029926173389 L 217.99517686245963,260.8180952339899 L 217.1204036269337,260.1937527109403 L 216.9942344208248,259.8771700100042 L 217.67554816510528,259.3451129514724 L 215.69889706093818,257.8675187632907 L 214.21010031364858,257.7619680732023 L 213.5371977770701,257.84113120730035 L 212.73392045591027,258.20615313062444 L 212.0399897187017,258.9097727460321 L 211.45961129758507,260.3960087338928 L 210.9297005897388,263.5963939013891 L 210.41240682359785,264.6512454303447 L 209.39043612917885,265.6752261030488 L 208.7091223327443,266.91001892322674 L 209.1717428076081,268.56203521508723 L 208.06565930880606,268.95742505183443 L 207.61145014548674,269.3264418633189 L 207.40957939485088,270.03807958913967 L 204.2259094165638,268.4478085990995 L 202.72029004665092,268.17541698156856 L 201.37869070656598,269.3000839757733 L 201.73196454625577,269.6603027526289 L 201.15158612513915,270.1698589178268 L 201.03803380858153,270.7848067926243 L 201.27354970155284,271.10544356377795 L 201.73196454625577,270.77602210477926 L 202.0852383337915,270.77602210477926 L 201.9464521864429,271.7949983603321 L 202.45954037457705,272.699694333598 L 204.20067558577284,274.12245323113166 L 204.20067558577284,273.0158799805213 L 204.62965091783553,273.4637930027675 L 205.07544882129878,274.4298136199359 L 205.63900467101485,274.12245323113166 L 206.54742304887623,276.2211031548213 L 206.70303176762536,277.063955378253 L 205.5885370094329,276.4932817085646 L 204.84834423987195,276.554740392603 L 204.33525605173782,277.1517485214863 L 203.8768412587233,278.1700946483761 L 205.8324641622603,278.8986772876233 L 206.34975792840123,278.94256616802886 L 206.7324712285772,278.6880080506671 L 207.72500241082162,277.46779769612476 L 209.87829043483362,277.063955378253 L 211.47222823882475,276.0630607318599 L 211.99793331651017,275.9664780211169 L 212.67924711294472,276.1157417902723 L 213.3689721687697,277.063955378253 L 216.24563033971936,279.55699102091603 L 217.02367388131097,279.89929768047296 L 217.50732255680487,279.37705611390993 L 217.67554816510528,277.8013946863357 L 218.34845070168376,278.11742400657386 L 218.52508756984025,278.50805804505944 L 218.34845070168376,279.86418981151655 L 218.57555528357625,280.4434541235678 L 220.14005357492715,282.62856947095133 L 220.49332741461694,281.5141303408891 L 221.13679043855518,282.0494270748459 L 221.19987504184246,282.98832351434976 L 221.5531488293782,282.98832351434976 L 222.08305958891287,282.3039027156774 L 222.6718492694199,282.8040608409792 L 223.28166715148836,283.69463370810263 L 224.3919562799856,284.44476156076416 L 223.6727917115204,286.7079782166984 L 224.72420186642557,286.3044949430041 L 225.0017741615884,287.26054958137684 L 225.48962846724316,287.3000178541988 L 226.15832537366077,286.7079782166984 L 228.36628668941557,287.30440319655463 L 230.76350186625496,287.6026029207278 L 233.4719344289042,288.56730851205066 L 235.0280214608647,288.909319173079 L 237.13925303099677,288.909319173079 L 237.8458006582223,290.0843474282883 L 239.45235540391877,290.5665970342234 L 240.38600761257112,290.61482081282884 L 241.9042439237237,290.2071039855946 L 243.380423781462,290.022968610283 L 244.20052367355675,290.7507228634786 L 244.97856721561402,290.0843474282883 L 245.44118769001216,290.29917048756033 L 245.85334045113996,290.8471684521064 L 246.50100910523906,291.15403477824293 L 246.86269420431927,290.98306749295443 L 247.19073416106403,290.2509452572558 L 247.58185877278447,290.0843474282883 L 248.4524263786152,290.2071039855946 L 248.8183171073906,290.0843474282883 L 248.73840993316844,290.8910070480779 L 248.4145756061189,291.6537693706341 L 247.93513256078586,292.26744595868513 L 247.40101622324437,292.6268684589304 L 247.93513256078586,293.1352988106664 L 248.51551098143682,293.3237624433823 L 249.07486120145768,293.2580197067 L 249.55430419556797,292.9950446507428 L 250.25664619309828,294.87517201551236 L 250.86646407470107,295.34843794838525 L 251.64030198659748,294.8269678298384 L 251.99778145598248,295.75595543556847 L 252.31320447148755,297.298244780628 L 253.08283670200035,297.7714020800777 L 254.92070165881887,297.6224474499468 L 255.64407185697928,297.92035461147316 L 254.84920579614118,298.8709728398826 L 255.53051959211007,298.8665923178196 L 255.99734569666907,298.55118915229104 L 256.61136920843273,297.37272466975264 L 257.31791683565825,299.9748095043469 L 257.57025529956445,299.322158095194 L 259.11372539028525,298.4767175640445 L 259.5637289234437,298.94982214365155 L 259.94644222361967,298.9892465751618 L 260.5268206447363,298.1087327571586 L 260.5268206447363,298.94544165418483 L 260.72869139537215,299.24331156443805 L 261.4057995621115,299.2082684615161 L 261.7254282073118,299.3834827088285 L 261.8852425557561,300.34272946813144 L 262.81889481656253,299.9748095043469 L 263.8030146867968,299.8959678313695 L 264.23199007101357,300.04051043256186 L 264.66937666293234,300.863927612314 L 267.4661277108826,302.2828583314549 L 267.7899620379321,301.46831020363607 L 267.8951030434109,300.2376107738819 L 268.3198727457784,299.60687671322376 L 268.9423075686209,299.8565467747394 L 270.05259669711813,300.86830730899237 L 270.7927894666791,301.0478737936355 L 271.35213963501155,300.86830730899237 L 271.4404581207782,300.5573435551487 L 270.7927894666791,299.9748095043469 L 272.1974734100513,299.60687671322376 L 272.82831949274987,300.42156781838275 L 274.64515624847263,301.8931092361454 L 275.0236639189534,302.3660613510292 L 278.7708897469565,304.02122817980126 L 279.5797889586538,304.02122817980126 L 279.6409088843502,304.02073035086505 z" /><path fill-rule="evenodd" fill="#D2EBD9" stroke="#A6A6A6" stroke-width="0.25" opacity="1" d="M 352.5819857525639,142.7421724649612 L 352.92264265054837,141.94981199945323 L 353.7301256530918,141.19745037681423 L 354.6763948034495,140.74778419709764 L 355.43761577410623,140.8724463826511 L 355.24836191302165,139.76823570020497 L 354.2726533021778,139.88845876371488 L 352.4221714041196,140.8724463826511 L 351.9742706855759,141.37998176552355 L 352.14039347926155,142.43057835451327 L 352.9394652219489,143.36087756883353 L 354.3777943071909,143.48995458846912 L 354.07498818123713,142.96028201654553 L 352.5819857525639,142.7421724649612 z" /><path fill-rule="evenodd" fill="#D2EBD9" stroke="#A6A6A6" stroke-width="0.25" opacity="1" d="M 332.75869860267267,151.3646270011086 L 332.918512951117,152.59192762197927 L 333.4967885571532,153.39669809443876 L 334.2348784599453,153.4811726536136 L 334.87413585418835,152.51189130079 L 334.88675279542804,151.02219843538478 L 334.19071924313903,150.15495158545673 L 333.3075346960686,150.18163737631403 L 332.75869860267267,151.3646270011086 z" /><path fill-rule="evenodd" fill="#D2EBD9" stroke="#A6A6A6" stroke-width="0.25" opacity="1" d="M 286.71744769997895,151.3246035403572 L 287.40927562257275,153.64122759224847 L 289.3207392571494,153.4278204201255 L 290.63920763274655,151.8982562578749 L 289.5520495204255,150.1994278416969 L 289.11045724665746,152.06723234732635 L 288.0254019489512,152.2539917586837 L 287.12329206755385,151.47135535231791 L 287.24315277766436,150.4084630566649 L 287.68474505096674,149.34099862119183 L 286.96558053418994,149.13193887704983 L 286.2590329069644,149.79913414572366 L 286.71744769997895,151.3246035403572 z" /><path fill-rule="evenodd" fill="#D2EBD9" stroke="#A6A6A6" stroke-width="0.25" opacity="1" d="M 343.37583839707077,193.55498386290856 L 344.2842567753978,192.9042075087782 L 344.4629965098575,191.9036069305148 L 344.14547062758356,190.98703491385095 L 343.55247531691566,190.58406935608946 L 341.3150744889863,190.69920415547676 L 339.30898392386734,192.1338429711759 L 340.3688053386286,193.67008255352266 L 342.1835392797366,194.59524794714525 L 343.37583839707077,193.55498386290856 z" /><path fill-rule="evenodd" fill="#D2EBD9" stroke="#A6A6A6" stroke-width="0.25" opacity="1" d="M 328.72068499261513,206.34645039960742 L 329.6748542464338,205.78275134274736 L 329.8744149496779,204.50209365203045 L 329.879762631841,203.78948882571422 L 328.9314592964947,203.5448884088546 L 328.26445327233523,203.9175874509383 L 327.7366240359843,204.53365138662048 L 327.25248239561915,205.76570823485963 L 328.2443381343037,206.5330065479502 L 328.72068499261513,206.34645039960742 z" /><path fill-rule="evenodd" fill="#D2EBD9" stroke="#A6A6A6" stroke-width="0.25" opacity="1" d="M 367.84846125682816,210.32260622177273 L 369.4108567852527,209.31498892093077 L 370.26460181968287,208.43102737423033 L 370.6410066750832,207.52488247072324 L 370.1489466885105,206.5302348921541 L 368.98188145319,206.03508306504227 L 367.5835059033707,205.9466604150366 L 366.4080293565057,206.21192592242733 L 364.7930633514188,206.901582054561 L 364.50918261148036,208.60782616538927 L 365.53746175114065,210.14583889814094 L 367.84846125682816,210.32260622177273 z" /><path fill-rule="evenodd" fill="#D2EBD9" stroke="#A6A6A6" stroke-width="0.25" opacity="1" d="M 333.1435147174634,248.5748292277567 L 335.5911975563504,247.258550562663 L 335.93395726941526,246.5409077052027 L 335.0675953454338,244.4757461475674 L 334.09609231259674,244.12343714060262 L 333.0804301146418,243.26463189627975 L 332.30448943935335,242.18551526986994 L 332.05215097544715,241.1811710554175 L 331.2846215600148,241.78026572917588 L 331.44023027829826,242.8285947353579 L 332.0773848062381,243.8768134843558 L 332.75869860267267,244.4757461475674 L 332.57154760789126,245.17151988693513 L 333.4652462298982,245.9861300601624 L 333.473657540977,246.71261834097095 L 333.37272216565907,247.0296148636844 L 332.75869860267267,247.46546865906566 L 330.6411585356109,248.20065386593342 L 330.4371849698946,248.5968391050119 L 330.28788474807516,250.08019367256202 L 331.00704926485196,249.77649799338542 L 332.07317917607725,248.63205482997 L 333.1435147174634,248.5748292277567 z" /><path fill-rule="evenodd" fill="#D2EBD9" stroke="#A6A6A6" stroke-width="0.25" opacity="1" d="M 268.1432358259335,142.7421724649612 L 268.71520298719406,142.32374360389076 L 269.4091336731799,139.38083943747915 L 267.8656635824591,138.99342651851475 L 266.51144724944606,139.06022303225473 L 266.3011652389541,139.2739685701672 L 266.20443549379706,139.75487751956098 L 266.6712615978904,139.9819644461386 L 266.87313234852627,140.4984546576161 L 267.966598957777,140.1244474798441 L 267.12547081289813,141.80735783930868 L 267.06238620961085,142.47509245667607 L 268.1432358259335,142.7421724649612 z" /><path fill-rule="evenodd" fill="#D2EBD9" stroke="#A6A6A6" stroke-width="0.25" opacity="1" d="M 198.52306073671207,151.90270302561112 L 200.8109292271547,151.60921098547988 L 201.37869070656598,151.3646270011086 L 201.76981526659802,150.64862534124404 L 202.03897630190477,149.63456384069286 L 201.9464521864429,148.73159819375724 L 200.10438159992918,147.67283451091498 L 199.7384908706881,147.99314578063786 L 198.19922640966251,148.34013689565472 L 198.45156482234597,147.4459405587986 L 198.25389970140532,147.10336438566446 L 197.81651310948655,146.84531140420586 L 196.0543496455066,147.1122626089491 L 194.80527436966076,147.06777129601687 L 193.93050113413483,146.84531140420586 L 194.28377497335896,148.34013689565472 L 193.48470323067158,148.05542722018436 L 192.84544583642855,148.34013689565472 L 193.543582203798,149.08745740097947 L 192.1641320916824,149.61232438636944 L 190.83094401145354,149.05187213979661 L 188.61036575445905,147.21904088091105 L 186.36455361451954,146.86310840281658 L 186.10800957260653,146.3024864741601 L 186.03651365777478,144.88742931280285 L 185.78417524555698,145.6884321817197 L 185.2921152585186,145.31018967786804 L 185.1154783386737,144.69161784020253 L 185.22903065523133,144.1130591793917 L 185.5949213844724,143.86382249253802 L 186.36034798482433,143.68579211551696 L 186.59165824810043,143.22289667092264 L 186.34352541388944,141.4423087076284 L 185.53183678118512,140.84573321789503 L 185.07762761833146,140.8724463826511 L 184.63603534456342,141.2241625005845 L 184.6991199478507,143.1160712847486 L 183.66873799357563,142.3682582322508 L 182.93275085370988,142.3682582322508 L 181.79302226472646,141.00601107557304 L 181.0191843523644,140.8724463826511 L 178.2014051550068,141.65154595021158 L 177.07849908526987,140.9303246808704 L 176.47288683336228,140.84573321789503 L 176.2247540508397,141.65154595021158 L 175.8714802111499,141.65154595021158 L 175.46353308018297,141.41559717454948 L 174.93782800249755,141.540250136517 L 173.76024864101782,142.3682582322508 L 175.32474693236873,143.92168163275346 L 176.25839919317514,144.27327909995802 L 177.28457546560094,143.86382249253802 L 177.82289748452604,144.32668514642864 L 178.01215134561062,145.51933746249415 L 178.41168716549873,146.09780631307513 L 178.9584204442799,146.35588056058623 L 179.55141580663621,146.37367846467532 L 182.45751348976046,145.60833511967212 L 182.93275085370988,145.6884321817197 L 183.25658518075943,146.09780631307513 L 183.48789544403553,147.16565187461674 L 184.02201178111136,147.59275491419248 L 184.72014814894646,147.04997469880618 L 185.1785629936494,147.52602139580995 L 185.40146194538102,148.50917905918323 L 185.40146194538102,149.49667835817672 L 186.1374490330927,150.7019938409794 L 187.96690273005515,151.41799136041664 L 190.0234610089101,151.5291660365183 L 191.4617900941521,150.95549007994123 L 191.88655979651958,152.51633776933886 L 192.24403926590458,152.7608908584807 L 193.03049401566386,152.81424699095078 L 193.68657398130745,153.44560455088504 L 194.11134368367493,153.5612004736904 L 195.5034107370302,153.26331563736312 L 196.0543496455066,153.5612004736904 L 196.42865168629214,152.836478629848 L 198.12773049529642,152.75199810275808 L 198.52306073671207,151.90270302561112 z" /><path fill-rule="evenodd" fill="#D2EBD9" stroke="#A6A6A6" stroke-width="0.25" opacity="1" d="M 203.49412795854732,156.20172494533472 L 204.0997402104549,155.34386041481048 L 203.8768412587233,154.3436576463282 L 203.18291052104905,154.5837162779644 L 202.5520644383505,153.47672665514983 L 202.0852383337915,153.5612004736904 L 200.67214307934046,154.53037043008953 L 200.78569539589807,155.17939012963325 L 201.37869070656598,156.3883998519741 L 201.90860141441226,156.9439573660493 L 202.9684228808619,157.2506106584333 L 203.7548776823096,157.08173038926907 L 203.49412795854732,156.20172494533472 z" /><path fill-rule="evenodd" fill="#D2EBD9" stroke="#A6A6A6" stroke-width="0.25" opacity="1" d="M 276.7172568049282,173.67406298452988 L 277.1811575726606,173.0094979039859 L 276.7830743957311,172.350855181925 L 275.5472516599111,172.05495378212072 L 274.050854598172,170.7681608123239 L 274.41308692563325,170.34159000474028 L 275.3744918988086,170.66689973790199 L 275.5592474206351,170.0593081684783 L 274.5696040042676,169.21375896572135 L 274.5139126898721,168.09845887543634 L 273.58176273526624,167.8841539719142 L 273.0370473116636,168.78945831465535 L 273.0035775154829,169.72219829447567 L 272.43184187589213,170.1472431095317 L 272.04068046901375,170.69153097062372 L 271.0143377901986,171.2804244654253 L 270.8898964682594,171.87732179136947 L 273.8626224808395,173.09713696409017 L 276.7172568049282,173.67406298452988 z" /><path fill-rule="evenodd" fill="#D2EBD9" stroke="#A6A6A6" stroke-width="0.25" opacity="1" d="M 158.13208803720772,177.1346169009339 L 158.40545465098694,176.52261779503897 L 158.87228075508028,171.92246867949143 L 158.13208803720772,172.423849002691 L 157.49703627312556,173.32449079444632 L 157.0049763377756,174.3625608626753 L 156.59282352495939,176.09685561899096 L 156.68534764042124,176.52261779503897 L 157.4255404099822,177.50711847050115 L 158.13208803720772,177.1346169009339 z" /><path fill-rule="evenodd" fill="#D2EBD9" stroke="#A6A6A6" stroke-width="0.25" opacity="1" d="M 182.60471089696512,183.8639653630089 L 182.87807756196707,184.82553985272534 L 183.46266161324456,184.9850541865453 L 184.0388343525119,184.48877841793 L 184.3458461081609,183.4917166074738 L 184.16920924047008,182.33499225624837 L 183.6392984809354,181.54603334423155 L 182.84443241963163,181.3509995676577 L 181.9023688994348,182.00257387151942 L 182.57947706617415,182.2374841060955 L 182.28928782977164,182.74717477336526 L 182.50377552164719,183.01308932201937 L 182.60471089696512,183.8639653630089 z" /><path fill-rule="evenodd" fill="#D2EBD9" stroke="#A6A6A6" stroke-width="0.25" opacity="1" d="M 245.81548967864364,204.0188439032063 L 246.6103557916358,202.54176796367392 L 246.71970242680982,199.6179002188146 L 246.0636225133203,197.49410636653192 L 244.54959188308567,198.4188997480087 L 244.02809243556112,199.073723110836 L 243.63276219414547,200.5734531818889 L 243.32995606819168,201.21485870005563 L 242.34583614580333,202.4533130803611 L 241.75704646483064,204.0188439032063 L 241.55517571419477,203.43511654995382 L 241.69816749170423,202.32947484822944 L 241.55097008449957,201.9579505866859 L 241.09255523979664,201.82525985641405 L 240.85703939851373,202.20563501305878 L 240.6425517066382,203.7579398888629 L 240.6972250500694,205.31883609108627 L 240.11264099925756,206.41529122600332 L 239.99067742284387,206.95463044662029 L 240.54161633132026,206.61865216959268 L 240.89909580070525,206.60096882260405 L 242.0262075001374,207.5116211597342 L 243.32995606819168,207.3259612105321 L 244.1122052394785,206.8087465823628 L 245.3654861454852,204.5317870392464 L 245.81548967864364,204.0188439032063 z" /><path fill-rule="evenodd" fill="#D2EBD9" stroke="#A6A6A6" stroke-width="0.25" opacity="1" d="M 250.22720673214644,215.13827135390602 L 250.15571081778035,214.7407384121325 L 249.87813857430592,214.43153488542885 L 250.3029082766734,213.03557871165685 L 250.22720673214644,212.58494226261973 L 249.80243702977896,212.0724281531293 L 249.50383653398603,212.34636147064157 L 249.1715909470804,213.29181360290386 L 248.37672483408824,214.46687289862894 L 248.20849922578782,215.19127453910187 L 248.46504331985489,215.88028918905184 L 250.22720673214644,215.13827135390602 z" /><path fill-rule="evenodd" fill="#D2EBD9" stroke="#A6A6A6" stroke-width="0.25" opacity="1" d="M 213.78967091673985,218.90048836893402 L 214.62444245209917,217.55086565809324 L 215.69889706093818,216.87839028751478 L 216.5694647184573,216.6575803272426 L 216.21619087876752,215.88028918905184 L 215.8629170912318,216.28660821705125 L 215.51384888170287,216.03486907389015 L 215.17739766463637,216.10994987585582 L 214.92926483042538,216.44559801672585 L 214.2508282577619,216.57508482434787 L 213.1399301965721,219.64545607566833 L 213.78967091673985,218.90048836893402 z" /><path fill-rule="evenodd" fill="#D2EBD9" stroke="#A6A6A6" stroke-width="0.25" opacity="1" d="M 216.4054446881637,224.10052965744399 L 216.72789696604013,224.42249141121283 L 217.5169998984784,224.6554239692632 L 218.49223254667595,224.09442555345595 L 219.18631428992376,222.09748172340915 L 219.4630723320879,220.61211134446785 L 219.13615830382332,219.21809569839388 L 218.81013542646542,218.6606758076232 L 215.976469356101,217.68209621985443 L 215.4654965926893,218.61803378048353 L 214.49213265394792,221.68765263841487 L 215.098799362313,223.31290894653648 L 216.4054446881637,224.10052965744399 z" /><path fill-rule="evenodd" fill="#D2EBD9" stroke="#A6A6A6" stroke-width="0.25" opacity="1" d="M 228.24011748330668,224.506505866535 L 227.82796467049047,225.23016080912203 L 227.88684364408255,225.82140014483593 L 228.31581897614524,226.03317868476734 L 228.98031020117924,225.6184414450545 L 229.3083502096124,225.08896408136934 L 230.06957112858072,222.61769062746316 L 229.68685782840475,222.61769062746316 L 229.16115275071934,223.74308011261746 L 228.24011748330668,224.506505866535 z" /><path fill-rule="evenodd" fill="#D2EBD9" stroke="#A6A6A6" stroke-width="0.25" opacity="1" d="M 213.049343471881,204.3902882055845 L 212.37644098699093,202.90442446945235 L 212.37644098699093,201.6085276384838 L 212.17457023635507,200.86098509468138 L 211.66148204822093,200.12665560329333 L 210.57642680220306,199.16220929496922 L 207.96051830379292,197.84367995662615 L 206.70303176762536,196.5603721276857 L 206.70303176762536,197.67553221993148 L 205.21002933895215,197.0471644445788 L 204.5833888859488,196.93653197190724 L 205.25208574114367,198.04722326202318 L 204.96610218612477,198.56048700562678 L 204.48245351063088,198.6666760549415 L 204.03244992578402,198.9940848215483 L 203.52356741949916,199.0604500907939 L 201.37869070656598,198.04722326202318 L 201.4922430231236,196.93653197190724 L 200.5838246452622,196.241730943555 L 199.45671294583008,195.93193064420484 L 198.9057740373537,195.9850400071591 L 198.9268022379838,197.26842542295344 L 197.63146487856284,198.3304066641722 L 196.43285731598735,198.4188997480087 L 196.7566916430369,198.04722326202318 L 196.50435323035344,197.53393180901185 L 195.83986200531945,197.03831386566162 L 195.34780201828107,196.93653197190724 L 195.20060461107641,197.32152727083303 L 194.64125439105555,197.67553221993148 L 192.97161509422585,197.12681895680726 L 192.26927309669554,196.3302434454672 L 190.59963374817744,196.00274300784804 L 190.0234610089101,195.44950723880902 L 189.31691338168457,193.96224975935183 L 187.35287916706875,193.019314044388 L 185.86408236809075,191.2394331744872 L 184.98089787270874,190.44236313854344 L 183.58883081935346,190.21208593784831 L 183.28602469339967,189.84451650548726 L 182.12526785116643,190.9338976086583 L 178.29392921878025,189.54779338790104 L 175.84204075066373,189.8755168656353 L 175.16493258392438,190.21208593784831 L 174.20604654448107,189.50350556126796 L 173.482676345855,189.33963876403868 L 172.8770640939474,189.65851204679348 L 172.20416160905734,189.778086719336 L 170.8078889255412,189.100476751104 L 170.3789135417901,190.26965577737428 L 169.0162860006094,189.49907672358677 L 167.72935995273292,190.53978638444096 L 167.35085228225216,191.20400930056348 L 160.7059400822036,193.00603256956674 L 157.93862854642794,193.5638376872521 L 155.17972827050835,194.89181299461052 L 153.93906430574134,194.7059076181613 L 152.3493321314454,195.4273771403823 L 151.73110298998654,195.50704527529888 L 148.63995712716132,195.44950723880902 L 148.08060690714046,195.69293497502804 L 147.19742236007005,196.5603721276857 L 143.55533758876845,197.48083114577457 L 141.96560541493818,198.2153644375503 L 140.81325988424942,199.93642850220203 L 140.45998604455963,199.53384236851707 L 140.22447020327672,200.10011247405782 L 140.1109178867191,201.79429838852957 L 139.46745486278087,202.74963375320658 L 139.37493079854175,203.46607270953245 L 138.19314575567842,204.28858468472026 L 138.37398830521852,205.07123209675774 L 137.7894042544067,205.97318728477694 L 137.6085617048666,206.54791842377745 L 138.66838317131624,208.46638735965826 L 138.6347380289808,209.15588185144588 L 138.12164984131232,209.96464898437262 L 137.99127500504255,210.50820845668204 L 138.331931903027,211.58197975810617 L 139.18147130776197,212.00615280424245 L 141.51980751147494,212.17846777639352 L 143.2861765534617,212.9207125569228 L 143.79926474159583,213.5436240483541 L 143.8749662344344,213.98979837703519 L 143.66888985410333,214.95275800395757 L 143.74038576846942,217.5452059789095 L 143.9464621488005,217.66443305904977 L 146.10395580297336,216.99320952501148 L 146.49087473284453,217.02853820216842 L 147.0502249528654,217.51871082535945 L 147.100692614913,217.89405153528787 L 146.81050343019888,218.71091943024658 L 146.33947169594467,221.4171321366448 L 145.48152097966522,221.83646163903177 L 145.05254564760253,222.24694566079415 L 144.703477489762,223.46505477372557 L 145.38479123450816,224.0078588302713 L 146.3310603844002,224.4535534295719 L 147.0502249528654,225.777279043803 L 148.19836485385895,226.0596506667789 L 148.63995712716132,226.31554298615083 L 148.8418278777972,226.9464212032035 L 148.76192070357502,228.0845464731101 L 149.31706524221227,228.5741644038353 L 149.9058549227193,227.8948680954054 L 150.41894311085343,228.0624910388142 L 150.64604769228026,228.67120292107575 L 150.40632616961375,229.31516134901904 L 151.22642611339688,230.8102173213847 L 151.70586910750717,231.0439370982349 L 152.1684895819053,230.4265520744957 L 152.48811827925965,230.4265520744957 L 154.64561193296686,232.269772663014 L 156.75263787340373,233.5395423071459 L 157.0680609405972,233.8745931724552 L 157.21946402965114,234.37714810320176 L 157.62320553092286,234.49176235496998 L 158.51900696754456,234.1831825566478 L 158.0311526618898,233.69825199758634 L 158.1993782701902,232.74154642340727 L 158.87228075508028,231.1674094677437 L 159.19190945243463,231.49813134479336 L 158.67041000444442,232.81649908260442 L 158.65779311489314,233.4337344111409 L 158.87228075508028,234.12146544014104 L 161.3031410742551,235.5320460300427 L 163.30082037951797,234.86204533930868 L 163.56577573344111,235.15297227399424 L 163.92746083252132,236.4179640954826 L 164.16297667380422,236.68240185431205 L 165.29008837370202,237.33905848674476 L 166.34149852907285,237.5329622356221 L 166.6779497973621,238.05736457393505 L 167.4938440597616,238.44954657484777 L 167.66627534944564,238.3173521491699 L 167.6873035505414,237.0305675335694 L 167.3256184514612,236.02570167882368 L 166.98916718317196,235.5717157057952 L 167.82188406819478,235.34691879013553 L 168.5242260657251,235.787692213431 L 169.87423666520044,237.07904530852102 L 170.9761145338416,236.34303874731995 L 172.49014516361058,236.17996406299062 L 174.0209983647801,236.36507566366345 L 175.16493258392438,236.68240185431205 L 176.65372938290238,237.39634862798266 L 178.46636050892994,238.83730675233528 L 179.6902019539848,238.8901819959283 L 180.48927364498377,239.29995535477065 L 182.16311862366274,239.0355873957742 L 184.08930206578225,239.37926439149305 L 185.62856652680784,240.33092328649946 L 186.10800957260653,241.88598457886837 L 188.63980521494523,240.82874554488808 L 189.85944097861648,239.98727921303362 L 191.0874880538322,237.38312783883885 L 191.07907679397613,236.68240185431205 L 190.7300086361356,236.10062942910008 L 188.96363954199478,234.12146544014104 L 189.51457845093682,233.81287412764505 L 189.61971950763837,233.38964745751582 L 189.39682050421834,232.95317592518404 L 188.96363954199478,232.64013900002465 L 189.6491589685902,232.76800034590997 L 191.06225422304124,234.4388636222575 L 191.97908386029303,234.86204533930868 L 193.20713093550876,234.72539491555654 L 194.28377497335896,234.32865708717145 L 195.12490306654945,233.6365318505559 L 195.70107585797086,232.64013900002465 L 195.70107585797086,231.1674094677437 L 197.13940494321287,229.87087238417007 L 199.30530985677615,228.38008454767987 L 201.02541691903025,228.20364499581046 L 201.92962961504236,227.55520231183618 L 203.6875873976387,225.2125113159418 L 204.80628783768043,225.08013918437064 L 205.8955487650819,224.69183724652976 L 206.81658403249457,223.98579421569593 L 207.40957939485088,222.9531144022476 L 207.46004705689847,221.62017816421576 L 206.28667332511395,219.69548515370116 L 205.62218210007995,217.2581717132125 L 205.79881901992485,216.8430610098876 L 207.40957939485088,215.5446214810945 L 207.4474301673472,214.89975356822833 L 207.23294247547165,213.76008742069826 L 207.72500241082162,213.29181360290386 L 208.35584854520857,213.53920638910495 L 208.69650544319302,213.3580801365897 L 208.6502433596179,212.96489204629324 L 208.1119213923812,212.58494226261973 L 208.73435616400093,212.32868863339536 L 209.10024694446474,211.9133665629197 L 209.15071460651234,211.35663028177805 L 208.8184690196067,210.69380706571974 L 208.1119213923812,211.06499368022196 L 208.46519518038258,209.91603649919853 L 206.82920097419992,209.51828863169067 L 207.02686609467492,207.97133525041863 L 207.96892956318334,206.29150416748598 L 208.6418320997618,205.50453489343636 L 209.655391483102,205.40726452483796 L 210.09698375640437,205.12429065676406 L 211.2703574881889,203.33340288931504 L 211.82129639666528,203.28033441398293 L 212.14092509401962,203.41300496947952 L 212.73392045591027,204.3902882055845 L 213.049343471881,204.3902882055845 z" /><path fill-rule="evenodd" fill="#D2EBD9" stroke="#A6A6A6" stroke-width="0.25" opacity="1" d="M 129.45803013490513,244.87648251117207 L 130.8122464157641,244.32601635111496 L 131.455709440168,244.37886239262298 L 132.31366015598178,244.87648251117207 L 133.0202077832073,243.76671161083505 L 132.66693394398317,243.70064993575215 L 131.72066479362547,242.19432483590208 L 131.039351049345,241.5467992941849 L 130.3832710837014,241.35737910214812 L 129.8407434350811,241.88598457886837 L 129.74401368945837,242.78454952361062 L 130.04261418571696,244.09701347863302 L 129.45803013490513,244.4757461475674 L 129.45803013490513,244.87648251117207 z" /><path fill-rule="evenodd" fill="#D2EBD9" stroke="#A6A6A6" stroke-width="0.25" opacity="1" d="M 251.31646765954792,242.44099016860127 L 251.2113266545348,241.04460768355057 L 250.87487538624555,239.82426438527182 L 250.33234773715958,238.75799338612705 L 249.55430419556797,237.8194039191585 L 248.1622371939011,236.70443801558577 L 247.77952389372513,237.012939178152 L 247.77952389372513,240.22518790978938 L 247.67017720686272,241.0930658618454 L 247.0225085527636,242.63038974930532 L 247.19073416106403,243.3571221511811 L 247.15288344072178,244.08820559387095 L 247.53139105951414,244.6518959614914 L 250.58889183122665,245.06583585916087 L 251.12721379846334,244.66951078292914 L 251.31646765954792,242.44099016860127 z" /><path fill-rule="evenodd" fill="#D2EBD9" stroke="#A6A6A6" stroke-width="0.25" opacity="1" d="M 138.66838317131624,253.77222357783467 L 139.37493079854175,255.61993068363518 L 139.70717638544738,254.97767087141983 L 139.72820458654314,254.22978259879164 L 139.48007180402055,253.53463668748736 L 139.05109647195786,253.0374459424056 L 138.64735497068614,252.04739131522365 L 137.09547356842086,250.96482012374327 L 136.90621970733628,250.08019367256202 L 136.3552807988599,250.50711266533472 L 136.19546645041555,250.8195882833097 L 135.32910447428003,250.12860806426033 L 135.13564503518865,249.63565047457814 L 135.13564503518865,248.97099968232214 L 133.69731589825824,249.30993308126926 L 133.69731589825824,249.71047598030418 L 134.433303038124,249.71047598030418 L 134.1347025418654,250.97362196305767 L 134.2188153457828,251.63814031076618 L 135.06835475051776,252.1398005669471 L 135.5183583353646,253.77222357783467 L 135.88424906460568,254.15059116669 L 137.44874735642225,255.25041634449735 L 138.11323858145624,254.03620243258774 L 138.34454884473234,253.77222357783467 L 138.66838317131624,253.77222357783467 z" /><path fill-rule="evenodd" fill="#D2EBD9" stroke="#A6A6A6" stroke-width="0.25" opacity="1" d="M 147.5338736283593,265.2797092641704 L 145.94414145452902,264.01395236491226 L 145.46469840873033,263.4029926173389 L 146.12918963376433,263.0337617942132 L 145.71283124294132,262.22052754159085 L 145.03572307666764,261.55670440685935 L 143.88337754597887,263.3854104904458 L 144.18618367193267,263.88648896990344 L 145.4226420065388,264.5413701669313 L 145.05675127729774,265.37199787423015 L 145.70021430170164,265.6444642036222 L 146.7348018856719,265.5477834683843 L 147.5338736283593,265.2797092641704 z" /><path fill-rule="evenodd" fill="#D2EBD9" stroke="#A6A6A6" stroke-width="0.25" opacity="1" d="M 193.543582203798,269.3000839757733 L 193.34171145316213,268.1842039525509 L 193.62769500818104,267.58667485276237 L 193.5267596328631,267.3845615675673 L 192.1683377213776,267.45486228656955 L 191.280947544612,267.0857780522201 L 190.9066455042921,267.736060439609 L 190.75524246692657,269.6603027526289 L 192.11787000810727,269.2737259664573 L 193.543582203798,269.3000839757733 z" /><path fill-rule="evenodd" fill="#D2EBD9" stroke="#A6A6A6" stroke-width="0.25" opacity="1" d="M 153.58158483635634,275.58891883539036 L 154.57411601860076,275.5186737605836 L 155.15449443971738,275.0840215925127 L 155.30169189861044,274.3419973170385 L 154.59514427138492,272.80509062903 L 153.74981049634516,272.1858719452284 L 153.3628915147856,271.4348545088433 L 150.10352004365996,268.7992709593382 L 149.3717385851778,268.0216443373356 L 148.96379145421088,267.0857780522201 L 148.26144945668057,267.45486228656955 L 147.630603373982,266.86168465879746 L 147.19742236007005,266.782591693569 L 146.81050343019888,267.0857780522201 L 147.19742236007005,269.3000839757733 L 147.55069619975984,269.3000839757733 L 148.19836485385895,268.64111437113024 L 149.16986783454195,269.1243628668599 L 151.11287379683927,271.1713265872095 L 153.47223820118234,273.1827518257778 L 154.1914027701132,274.36834227573127 L 153.58158483635634,275.58891883539036 z" /><path fill-rule="evenodd" fill="#D2EBD9" stroke="#A6A6A6" stroke-width="0.25" opacity="1" d="M 275.3769377581775,276.73911425098777 L 273.61056866450235,276.73911425098777 L 274.8470269991085,277.063955378253 L 275.0362808601931,277.23954091919586 L 274.99843008769676,278.00330344378017 L 275.2003008387983,278.1700946483761 L 276.26012225355953,278.38077442650683 L 276.79844427248463,278.72311990568414 L 277.14330680062994,279.31122548528947 L 277.1937745139003,278.2052082065493 L 276.9246134785935,277.33611172786914 L 276.3232069085352,276.81813056534156 L 275.3769377581775,276.73911425098777 z" /><path fill-rule="evenodd" fill="#D2EBD9" stroke="#A6A6A6" stroke-width="0.25" opacity="1" d="M 206.6820035665296,281.1894287557807 L 207.5567768025212,280.81206006766297 L 208.4567839205265,281.1894287557807 L 208.1035100808367,280.6102060461417 L 207.60724451579154,280.1801561897155 L 206.90069688856602,279.9695130076725 L 205.57171443803236,280.14066091249697 L 205.2436744295992,280.4171246418264 L 206.6820035665296,281.1894287557807 z" /><path fill-rule="evenodd" fill="#D2EBD9" stroke="#A6A6A6" stroke-width="0.25" opacity="1" d="M 246.68605728447437,294.4676204738207 L 248.0991525389254,294.0907307974994 L 247.46830645622686,293.79709809669293 L 246.62717831134796,293.7050622475799 L 245.72717124503106,293.8014807233121 L 244.91968824202195,294.0907307974994 L 244.91968824202195,294.4676204738207 L 246.68605728447437,294.4676204738207 z" /><path fill-rule="evenodd" fill="#D2EBD9" stroke="#A6A6A6" stroke-width="0.25" opacity="1" d="M 131.05196793889627,499.4271118075121 L 131.2748668906279,498.604350811569 L 130.47579519916326,498.0874075712636 L 129.3108327272348,497.8246205809992 L 128.39820871967822,497.7987724218983 L 126.85894425911829,498.2424925691448 L 125.1977161699906,498.19079778296873 L 124.90752698574215,499.2461948134005 L 125.68136484595016,499.03081424417906 L 126.30800529848784,499.14712017565034 L 127.6916610924527,500.0 L 128.49073278345168,499.7157126071397 L 130.34962594136596,499.7157126071397 L 131.05196793889627,499.4271118075121 z" /><path fill-rule="evenodd" fill="#D2EBD9" stroke="#A6A6A6" stroke-width="0.25" opacity="1" d="M 1.3962727347388864,0.0 L 0.41215281235054135,0.7061443226411939 L 0.0,1.6430473702494055 L 0.26495540514588356,2.358097745338455 L 1.3037486192770302,2.3852502861991525 L 1.951417273376137,1.9236443638801575 L 2.186933166347444,1.1949769493658096 L 2.0102962465025485,0.47529628803022206 L 1.3962727347388864,0.0 z" /><path fill-rule="evenodd" fill="#D2EBD9" stroke="#A6A6A6" stroke-width="0.25" opacity="1" d="M 345.83824099227786,57.651642485521734 L 345.41557410452515,57.99775165063329 L 345.2200117991306,58.388792875921354 L 345.25786257116124,58.80678235786036 L 345.53333205124363,59.23373929783702 L 345.7478197431192,58.2988999618683 L 346.40389965707436,57.633662389125675 L 345.83824099227786,57.651642485521734 z" /><path fill-rule="evenodd" fill="#D2EBD9" stroke="#A6A6A6" stroke-width="0.25" opacity="1" d="M 371.27816120302305,103.42673848406412 L 371.084701763466,103.69052489032038 L 371.1667117527686,104.03030570293777 L 371.82910016318783,104.79029399389401 L 371.27816120302305,103.42673848406412 z" /><path fill-rule="evenodd" fill="#D2EBD9" stroke="#A6A6A6" stroke-width="0.25" opacity="1" d="M 361.3044844320975,140.30254806531593 L 362.26967896847054,142.15903753857128 L 362.6923458557576,142.4839952290058 L 362.8815996651538,141.45121249789372 L 362.7428135178052,140.39159703883342 L 362.3474833276123,140.10663721710443 L 361.8428064510226,140.06211143312976 L 361.3549521458335,139.68808610038832 L 361.1909321672283,139.95524864364415 L 361.3044844320975,140.30254806531593 z" /><path fill-rule="evenodd" fill="#D2EBD9" stroke="#A6A6A6" stroke-width="0.25" opacity="1" d="M 336.5059244306758,156.17061206349172 L 335.7194696292281,155.79280473990366 L 334.905678181909,155.89948134031147 L 336.11059418926015,156.88618093892 L 337.5278950734064,157.41948781441897 L 336.5059244306758,156.17061206349172 z" /><path fill-rule="evenodd" fill="#D2EBD9" stroke="#A6A6A6" stroke-width="0.25" opacity="1" d="M 356.7897292403504,167.73732672282495 L 356.3165946393274,168.56740439939313 L 356.5857556229457,169.2243115263991 L 357.1997791863978,169.45510562625714 L 357.7801576075144,169.0378966596909 L 357.8789901677519,168.46975204301998 L 357.66029684618115,167.98147491854616 L 357.25655534490943,167.69737457553856 L 356.7897292403504,167.73732672282495 z" /><path fill-rule="evenodd" fill="#D2EBD9" stroke="#A6A6A6" stroke-width="0.25" opacity="1" d="M 314.6492100181058,216.4323489482049 L 313.9489708356559,217.06828285753727 L 314.0478033958934,218.07067741453648 L 314.7669679643586,218.8919456920121 L 315.9151078653522,218.98024996812455 L 316.86347983032465,218.10158664593473 L 316.8109093019739,216.97554511134513 L 315.99922066926956,216.21594527736306 L 314.6492100181058,216.4323489482049 z" /><path fill-rule="evenodd" fill="#D2EBD9" stroke="#A6A6A6" stroke-width="0.25" opacity="1" d="M 323.2266141055152,232.63572996971197 L 322.3896916420199,233.36319514759816 L 322.25090549420565,234.35069849248976 L 322.74086261494085,235.1177088425029 L 323.7964784000069,235.1882355795242 L 324.3579314346425,234.588742548367 L 324.5598021852784,233.59244580264203 L 324.2359678586945,232.76800034590997 L 323.2266141055152,232.63572996971197 z" /><path fill-rule="evenodd" fill="#D2EBD9" stroke="#A6A6A6" stroke-width="0.25" opacity="1" d="M 323.1908661480993,243.39235633425415 L 323.2224084753543,244.40088150301017 L 323.75021636812016,244.7311623855494 L 324.3747540060431,244.50657256762497 L 324.7112052743323,243.81515660439618 L 324.5598021852784,243.15892767417245 L 324.1224155416712,242.8197857302148 L 323.594607649371,242.88144871103577 L 323.1908661480993,243.39235633425415 z" /></g></g></g></svg>