<svg xmlns="http://www.w3.org/2000/svg" xmlns:xlink="http://www.w3.org/1999/xlink" width="500.0" height="310.5086398376152" viewBox="0.0 0.0 500.0 310.5086398376152" preserveAspectRatio="xMinYMin meet"><g transform="matrix(1,0,0,-1,0,310.5086398376152)"><g><g><path fill-rule="evenodd" fill="#D2EBD9" stroke="#A6A6A6" stroke-width="0.25" opacity="1" d="M 226.53216469101608,45.27467507030815 L 228.9845364522189,43.57000026013702 L 228.6609596144408,40.456374182365835 L 226.69679149612784,37.45304075907916 L 224.18765187636018,36.11793952062726 L 223.00688024051487,35.802681676112115 L 221.5763300806284,34.968127691186965 L 220.37285135872662,33.70689341146499 L 219.24317081086338,30.256242376752198 L 217.94318668544292,30.349017213098705 L 216.79647582024336,32.00026708841324 L 216.6886168755591,34.745568476617336 L 216.5012829825282,35.45032289158553 L 216.05849365331233,36.11793952062726 L 217.56851889938116,37.82387088984251 L 218.85147256962955,40.79002288915217 L 219.48159592971206,44.496489526703954 L 219.00474582985044,48.53499201312661 L 217.25061883218586,51.46097269654274 L 215.01396496407688,52.92364569939673 L 213.0611503906548,54.70078675542027 L 212.24369313567877,58.6056984430179 L 212.90220035612583,62.91600812226534 L 214.34410405904055,61.047815987840295 L 216.5694043841213,54.756317471154034 L 223.44966970942914,55.53371413145214 L 226.4299825169146,54.79333762731403 L 228.52471680752933,51.79425841383636 L 227.87756313197315,50.701780419796705 L 227.3098844010383,49.14618449751288 L 226.8387112133205,47.312496261671185 L 226.53216469101608,45.27467507030815 z" /><path fill-rule="evenodd" fill="#D2EBD9" stroke="#A6A6A6" stroke-width="0.25" opacity="1" d="M 17.32555236108601,133.9105878584087 L 15.792820028960705,133.41468559391797 L 11.609028358012438,130.69597747083753 L 11.609028358012438,129.2996014272794 L 12.909012483432889,128.52783760335296 L 14.316855553537607,128.30732302181423 L 15.798496801406145,128.60134147666395 L 17.32555236108601,129.2996014272794 L 14.044369803741574,123.74894788861275 L 9.196394139900804,123.76733249146491 L 4.098639952018857,127.29656933806837 L 0.0,132.23911722470075 L 1.3737824391573668,133.41468559391797 L 2.8611004576087,133.9105878584087 L 4.109993496909738,133.30448188167065 L 7.095983216539025,132.42280873376876 L 9.423465576022863,130.14479915704578 L 10.05926570855081,131.0634129308164 L 10.570176439359784,133.9105878584087 L 11.02431945130229,135.01250624563545 L 11.296805202960968,136.55499116517603 L 11.898544564843178,137.96873029973358 L 13.38018581084907,138.5378426555544 L 14.600694850087166,138.22575268894434 L 15.628193223848939,137.32614602241665 L 16.530802335590124,135.83886652160436 L 17.32555236108601,133.9105878584087 z" /><path fill-rule="evenodd" fill="#D2EBD9" stroke="#A6A6A6" stroke-width="0.25" opacity="1" d="M 51.698494562879205,104.46352343820035 L 47.679329697042704,103.10038084350526 L 44.85229001007974,103.24775649700314 L 38.27857134863734,105.99223566707224 L 39.2322714086622,109.08579238131642 L 37.22836574725807,109.14102575927973 L 36.35414063371718,110.57699198368937 L 35.94541207700968,112.41767715662718 L 35.33231917209923,113.72436093632132 L 33.952859960496426,114.29483232088387 L 31.006607783958316,114.60765767563134 L 29.621471939608455,115.27007993869483 L 28.400962760671973,116.81556353811175 L 27.714071679860353,116.81556353811175 L 28.792661141604185,121.7815981823951 L 27.83896094188094,124.99902831669897 L 25.647721389308572,126.8554817410186 L 23.03639959357679,127.62737253215164 L 25.46606426872313,130.60411653108895 L 27.38481806963682,131.92683413252234 L 29.610118394717574,132.27585592772812 L 35.286904856562614,132.16563964635134 L 36.09300856664777,132.36770176514983 L 37.80172124877572,136.16939192265272 L 40.43007335998118,140.35511679481715 L 42.06498786620796,142.00690272729844 L 44.07457030005753,143.03454535547644 L 46.22039553895593,143.1629932736978 L 46.856195671483874,143.03454535547644 L 47.93478513136506,142.26382311526686 L 48.32080660201609,141.4012790163979 L 48.44569586403668,140.63043303694576 L 48.76359592936933,140.07979310117662 L 51.59063561633229,138.64798967633396 L 52.78843756765127,136.99565821047872 L 52.17534466274083,134.62684828974307 L 49.535638868808746,132.36770176514983 L 42.68943445570767,128.38082826323807 L 40.18029483594,124.53945782966912 L 39.839687541127205,122.66419471800327 L 40.56063953228295,122.1309684868902 L 50.67667295970023,125.62401087768376 L 54.91723249107599,129.52009448688477 L 57.664797089993954,131.0634129308164 L 59.941188503056765,133.41468559391797 L 61.229819083586335,138.5378426555544 L 60.62240295112133,140.41018072981387 L 59.27700451016426,141.1259836340323 L 58.62985083460808,142.08030924666673 L 60.185290394350886,144.70424318499863 L 61.96780125238001,146.35532308369875 L 63.52324081212282,146.57544696796685 L 64.61318381689489,145.2729786830023 L 65.03326605819166,142.30052540171891 L 64.77213385142386,140.30005278717726 L 64.12498017400503,138.00544830970466 L 61.831558445468545,132.56975964270532 L 61.53636546805501,127.02089186105877 L 61.229819083586335,124.53945782966912 L 60.34424042701721,121.87353888899088 L 57.32418993674219,115.27007993869483 L 63.125865798443556,115.27007993869483 L 62.02456911094487,113.1906652720645 L 61.048161963000894,109.06738118920475 L 60.185290394350886,107.41023282427341 L 58.23247582092881,105.99223566707224 L 51.698494562879205,104.46352343820035 z" /><path fill-rule="evenodd" fill="#D2EBD9" stroke="#A6A6A6" stroke-width="0.25" opacity="1" d="M 6.670224202796817,164.7009738124907 L 9.673244239762425,164.77421689406037 L 14.680169936269522,162.3569182883948 L 17.32555236108601,161.75250400416553 L 14.929948460310698,160.32374596502632 L 9.446172803640366,160.67179525550455 L 7.18681170605123,159.3894495256245 L 6.119575928896666,157.13579401560128 L 5.699493687599897,154.51506311632693 L 5.716524004936218,147.786042669788 L 3.996457777917385,148.46464678272605 L 2.242330640554428,149.56499009393156 L 0.8061037100851536,151.3069569831714 L 0.0,153.94684378337115 L 0.8628715686500072,158.43674557097256 L 1.9301074855029583,161.44112520944327 L 3.678557712584734,163.40082212071866 L 6.670224202796817,164.7009738124907 z" /><path fill-rule="evenodd" fill="#D2EBD9" stroke="#A6A6A6" stroke-width="0.25" opacity="1" d="M 235.18926410004497,150.99525839556009 L 231.40284744277596,146.41035455744714 L 222.1780694425106,137.93201238196343 L 207.42977824434638,116.31882669962943 L 204.62544564530253,110.50335760042071 L 203.30275443196297,106.98669592477381 L 201.79840595833957,104.09512441884726 L 199.66393426433206,102.10553977265954 L 193.52165124751627,100.46568127907813 L 184.620450085029,93.77452427521348 L 183.55321416817605,100.410400679335 L 183.10474806837738,101.36855762265623 L 179.5908173006028,101.90287506114691 L 177.72315444611013,102.58454942982644 L 176.91137410327792,103.6161860441789 L 176.3209882862866,106.08431940898299 L 174.9472059868276,105.99223566707224 L 173.49394859932363,104.77665180992335 L 172.6197234876454,103.6161860441789 L 172.3018234204501,101.25800550356507 L 173.95944501645863,96.61373590119183 L 173.5734235458076,94.47518283035606 L 170.77476785890758,92.83409061748534 L 158.73430371657014,93.77452427521348 L 155.49853547289968,91.9304547086358 L 153.8465905096382,91.7275866586715 L 153.01210294105113,93.77452427521348 L 153.47759949602187,95.13891985453665 L 155.98673911578953,97.83029777277261 L 156.82690345868468,99.69172365870327 L 147.64753977395594,95.839484189637 L 145.39385544881225,93.77452427521348 L 143.92924451828003,89.64334275946021 L 144.74670177325606,86.17480195593089 L 146.3475556485355,82.37280395254493 L 147.2104272171855,77.3135668663308 L 146.4951519984752,73.91470506694168 L 144.79211608879268,71.10608934890479 L 133.6202002875507,57.68050019722432 L 131.97393223457038,56.31105131376535 L 128.8971140254289,56.49612276442349 L 124.5600490923971,59.67882257793099 L 121.49458442628384,59.41980300564319 L 122.0679397881031,59.08676807023585 L 122.25527382083237,57.902555397711694 L 122.16444518975914,56.477615816518664 L 121.92602021060884,55.53371413145214 L 120.97799678333104,54.94141735136509 L 120.01861995086074,55.86686598043889 L 119.06491975300014,57.162352150306106 L 116.73743725381792,58.82773357722908 L 114.13179237022996,63.08246376551688 L 113.31433511711657,64.04415510036051 L 111.69645092450082,64.69139605946839 L 108.97159341163933,67.13204626832157 L 107.12096101231873,67.15053375158459 L 106.25808944366872,66.18913737125695 L 106.00831091962755,64.63591981306672 L 106.43406979180872,63.15644329972565 L 110.18642567843199,61.25129911955446 L 112.30954382941127,58.12460595369339 L 113.84227616339922,54.08992968685925 L 114.73920850455761,50.09068189933896 L 109.03971481509507,43.236443256028 L 101.20574943162501,38.75088694691658 L 93.67833057045937,39.58512853179127 L 88.8530621342361,48.53499201312661 L 90.66395699232817,48.34977490641177 L 92.03206251934171,47.83114887867123 L 93.28095555864275,47.682965064421296 L 94.74556648917496,48.53499201312661 L 92.12289115041494,50.57215665560216 L 88.68275855854154,54.49717190489173 L 85.61729375086725,58.92024672217667 L 84.17539004795253,62.49060848914087 L 85.23127228207886,63.193432978354394 L 87.08190468139946,65.41255848202854 L 87.8369173053652,67.77908969577402 L 85.65135452337563,68.85124218836427 L 71.60698471963406,69.46120937727392 L 69.80176663585007,68.85124218836427 L 68.6550557706505,67.18750884383917 L 69.48386656865478,66.22611597366631 L 71.30043833702803,65.74538519978523 L 73.08862596563995,65.59746364038438 L 75.90998888015747,64.2290852451697 L 79.06628217734396,60.8258295385167 L 81.74572537466884,56.6996976332739 L 83.13653813116252,53.05323957372457 L 75.03576376847923,53.05323957372457 L 72.74234203994274,53.47903574630618 L 71.58995440416038,54.5712142046541 L 70.86900255270302,56.12597647961229 L 64.55641595833004,64.82083915174007 L 62.904471134766936,66.41100627928972 L 61.099252911284566,66.70682370197028 L 59.20888310857117,66.63287009950727 L 57.32418993674219,67.15053375158459 L 54.866141403093934,69.55362542998046 L 50.30768180638552,75.98371319845319 L 47.79854218661785,78.01536375191063 L 41.37809678725898,79.49267186503857 L 39.237948179244995,81.98514162469655 L 40.18029483594,87.42951747402549 L 41.633552081882954,89.71712865121663 L 45.13045253418386,88.94235035218298 L 52.65219462290406,85.7503776839003 L 58.73203300870955,85.30748129077256 L 60.185290394350886,84.32934989221394 L 60.79838329926133,82.11436397209764 L 60.73026189766824,79.54806682188064 L 61.366061890497804,77.75681264698505 L 64.07956585846841,78.01536375191063 L 62.08701388165355,85.7503776839003 L 71.52750977315009,87.02359698247164 L 80.36058953031898,90.52873758226633 L 80.36058953031898,92.07799268327653 L 75.92134242504835,94.62268357351422 L 72.15195622295141,95.32328355591744 L 68.89348075166345,97.09300484322011 L 65.98696611821651,102.78720075730234 L 78.09555166214705,102.89773599524051 L 84.43652225658298,101.29485641885549 L 87.02513682283461,96.59530207142234 L 87.97883702255785,96.59530207142234 L 88.52380852401257,98.25421668495983 L 89.10284065827727,99.30472248513252 L 90.83993734046817,101.36855762265623 L 91.07268554903567,99.02828416973352 L 91.78796076774597,97.03770586661994 L 92.87790377251804,96.2081827847287 L 94.25736284442246,97.36949588544667 L 95.70494331978261,98.93613639101386 L 97.05034176073968,99.04671357944608 L 98.53198300674558,98.4938153596595 L 102.42058183811605,97.83029777277261 L 103.85113199800253,97.09300484322011 L 106.16726081259549,95.17579299863428 L 108.47771299630404,92.61279957182705 L 109.67551494762301,92.55747594311833 L 110.93008475750685,95.17579299863428 L 109.02268449962139,96.59530207142234 L 109.02268449962139,98.14363085944206 L 112.57067603804171,98.05147504713386 L 116.51604258827865,98.82555799745023 L 120.2797520197928,100.44725444633514 L 123.3111560549587,102.78720075730234 L 128.11371740326285,111.42374845035374 L 127.3303209207952,113.1906652720645 L 125.77488135918975,114.22122488822788 L 123.8334204684943,112.95141344051808 L 118.78108045645058,108.29407891258597 L 112.09382593818009,105.71597943082452 L 105.1738232113421,105.86331688985229 L 99.41756180301309,109.08579238131642 L 110.49297220259905,108.33090406935662 L 113.31433511711657,109.80380466859788 L 114.33615657873452,110.54017474595457 L 117.04398377612233,111.7366624744609 L 117.60030882246792,112.95141344051808 L 118.0487749222666,114.99407598748803 L 119.11033406667411,117.03632784634829 L 120.39896464906633,118.78387513477355 L 121.49458442628384,119.90582580585033 L 120.19460030086339,122.57226116489619 L 120.33651987835765,124.33724027778953 L 121.06314864195883,125.80782195180655 L 121.49458442628384,127.62737253215164 L 120.60900563001633,134.68194324336946 L 120.46140928007662,137.76677966024727 L 121.8919594399631,141.6215100940317 L 125.26397062838078,144.42903693020344 L 129.09012468904257,145.58485255669802 L 131.97393223457038,144.70424318499863 L 130.8953427746892,142.81434486154467 L 129.72592482157052,141.16269002482295 L 127.21110842935741,138.5378426555544 L 131.48572859168053,139.58419154025614 L 133.24553236179054,139.58419154025614 L 133.96080744080245,137.76677966024727 L 133.5804627444595,135.65523670706898 L 130.92940354533494,129.2996014272794 L 132.56431805342436,128.2338170222938 L 136.64592755027115,124.53945782966912 L 136.85596867091954,128.19706371054053 L 137.95726521871984,130.98992685601115 L 139.84195825085044,132.47791563067585 L 142.45328004471958,132.23911722470075 L 140.79565844871104,135.56342055648565 L 140.28474757820368,138.15231835097075 L 140.54587978683412,145.47478038351983 L 141.07382097281516,147.58428656868637 L 142.36245155334473,148.94147690478712 L 143.95195174589753,149.49163754377514 L 145.39385544881225,149.32659242954105 L 146.31349487788975,148.2812447026372 L 147.3069324810058,144.6858961675316 L 148.16412727721035,143.03454535547644 L 149.1178274769336,143.27309023123235 L 150.3894276022911,144.3556475788355 L 151.49640092253685,144.59416148625314 L 151.97325102239847,142.30052540171891 L 152.58066715672612,141.71327157970518 L 153.94877268373966,142.61249039135873 L 158.22339298576117,146.5204163864255 L 158.62076799944043,150.66521424613893 L 158.46181796491146,155.37649666890502 L 158.73430371657014,158.674929802306 L 154.99897814542055,159.99400404002517 L 151.55884555354714,159.24288560822606 L 148.2322486806661,157.79545205738395 L 144.87159117497504,157.00752206798643 L 136.68566495366395,158.23520042281598 L 133.12064309976995,157.11746961437166 L 133.96080744080245,152.40699289366603 L 132.84815734811127,149.82171974424273 L 131.82633574679494,149.82171974424273 L 130.65124102309346,150.75689422525465 L 129.1185086891055,150.99525839556009 L 122.85701318271458,146.8872807053849 L 120.97799678333104,146.24525946937501 L 114.69379418902099,146.24525946937501 L 112.72962607070804,145.45643498096615 L 111.67374369688332,143.6033741813153 L 110.93008475750685,141.56645271461457 L 109.89123284071684,140.07979310117662 L 107.08122346922755,140.061437969096 L 105.65067330934107,143.40153536386788 L 104.32798209786415,147.40086862444878 L 101.83587279357016,149.32659242954105 L 98.7760848980397,150.66521424613893 L 96.15340955927968,154.1118137864396 L 94.59796999953687,158.6566081708297 L 94.74556648917496,163.2909426027909 L 96.70973460562527,167.1360228220001 L 98.95774201862514,166.71496569830924 L 101.5917709004134,164.59110831748694 L 115.52828175760806,160.2138332510367 L 119.50770908035338,160.0856000650674 L 122.80024532228708,161.5876575000584 L 129.21501395106316,166.67835108656436 L 132.450782334432,167.77672840375453 L 143.45239455997944,166.64173656795174 L 153.26755837537348,170.59535478893667 L 156.16271946579218,170.10123629774898 L 162.00413273274899,164.16994601115584 L 165.33072960563004,162.57669651228935 L 173.10792713053524,161.75250400416553 L 171.07563746906817,165.92772535141557 L 167.71497996337712,168.23435058631003 L 163.83205804415047,169.22274441923946 L 160.19891464710236,169.44237460009754 L 157.42296604812145,170.81495516747236 L 149.19730242341757,180.18017215374857 L 147.71566117741168,181.0577203873545 L 144.89429826289415,182.15454961918294 L 143.40698024444282,183.37920276541263 L 139.59217972680926,189.39066534116864 L 135.97038987465203,189.7925214273855 L 115.48854421451688,199.28633174858987 L 113.7911850772798,200.92859536781907 L 112.32657414674759,205.56200412660837 L 112.01435099169612,208.24258375912905 L 113.31433511711657,209.42764999903738 L 121.49458442628384,209.42764999903738 L 128.20454603247344,207.640882153064 L 129.66348019056022,208.6983948731795 L 127.68795838952065,213.25538613647223 L 124.82118129916489,216.2801059326157 L 121.10856295749545,218.32037537451833 L 117.21428735181689,219.61354932561517 L 111.90081527270377,220.32381478138268 L 108.04060043953359,219.9960062429309 L 106.16726081259549,220.26918086688966 L 101.79613524861634,222.80025217868388 L 99.89441176317632,223.20079583581537 L 98.5149526912719,223.71055618487298 L 96.95951312966645,225.0576576832682 L 95.90930766798556,226.80498426686972 L 96.07961124554276,228.51561887562275 L 96.59052211605012,230.95368883013725 L 95.8752470370382,233.64580743387341 L 93.78051274456084,238.44620702136308 L 95.35865939408541,238.28259407449514 L 96.81191677972674,238.4098489144817 L 98.15731508098543,238.99156447220594 L 99.41756180301309,240.1185446018353 L 104.01008203066885,236.95541490521282 L 119.50770908035338,230.8081486504525 L 124.36703828908503,227.80592219531536 L 138.63847952708602,215.67887744680047 L 150.01475967653096,209.9380977069959 L 162.53775069117546,208.02378739789128 L 185.48899842612445,212.48995356727391 L 182.13401755318046,216.44407122023404 L 172.2393787894398,217.31850818637758 L 173.5734235458076,222.3996926061809 L 176.4969686344266,226.2771775070578 L 179.77247442305088,229.27985263057053 L 180.5501941330731,232.22707653418183 L 181.4641567878425,233.1547304354608 L 183.10474806837738,231.57221116125584 L 183.61565893888474,230.20777402352542 L 184.620450085029,224.58437188807875 L 193.05047805793583,231.68135822657496 L 197.64867505803704,233.68218247126788 L 201.77002209797502,232.33621661365032 L 201.77002209797502,230.8081486504525 L 200.98094870522618,230.09861101210117 L 199.86262184008956,227.75132801756263 L 212.975998532027,225.2396847801283 L 217.09734557196498,223.20079583581537 L 214.8890755623579,222.1083668395877 L 212.53320920281112,221.63494451344013 L 207.5660210493952,221.63494451344013 L 211.55112514458597,217.08168882969767 L 218.98771551437676,217.08168882969767 L 245.23717612586915,223.20079583581537 L 247.7236086577177,224.22029112372547 L 252.42398783192039,228.5702089741826 L 255.27941151708364,229.27985263057053 L 255.27941151708364,227.75132801756263 L 245.46424756199121,220.5969808716327 L 241.8594881631434,218.73930867388844 L 248.17775152996182,215.13227548450232 L 254.87068282067776,215.02295162901282 L 268.6141828726977,220.26918086688966 L 267.6604828145355,222.36327742319554 L 265.99150753580034,224.2931083580479 L 264.072753733024,225.71294002607465 L 262.3810713663697,226.25897661037743 L 261.47846225462854,227.53294883854687 L 261.39331053569913,234.11867394763976 L 261.0016122944653,236.91905127838254 L 262.1767070181668,236.77359614800662 L 264.5950181465596,237.08268602378666 L 265.7644360996783,236.91905127838254 L 264.8902109861374,241.49983488209546 L 266.87708619236946,241.53618201613426 L 269.41460981220007,240.99096012394875 L 271.58881904929876,239.7550162244588 L 272.51413524895906,237.6826576339081 L 273.56434071063995,236.2281204937026 L 287.70521591603756,230.4260961059481 L 291.45757166296244,227.80592219531536 L 293.5579827260226,224.58437188807875 L 287.5746497437358,224.91203358303756 L 285.122277982533,223.76517193764448 L 283.9528600294143,220.26918086688966 L 284.4694475326687,216.8995164288208 L 286.25763530284166,216.77199390530586 L 288.55673380196095,217.55532205663621 L 290.6060537789017,217.08168882969767 L 286.88775866292417,214.8589635407552 L 280.41622203588486,207.45854136254638 L 277.18613056465983,204.8324727471918 L 276.2608143631369,207.31266652140766 L 274.8018802050501,208.11495315562934 L 273.11019783839583,207.640882153064 L 271.47528333216906,206.36442826502025 L 271.47528333216906,204.8324727471918 L 271.98619406297803,203.64687346946448 L 271.8158904854208,202.33343345019966 L 270.6067349910736,198.7206021239981 L 271.60017259418964,199.32282927073538 L 274.5066872276366,200.12574399728328 L 274.5066872276366,198.7206021239981 L 270.0901473481208,192.45898292213678 L 269.59059016034007,191.03452168870717 L 269.13644728809595,184.80473310127854 L 268.14868645742536,183.37920276541263 L 266.42294332012534,182.3739011771977 L 262.98281072825193,177.98597113322467 L 261.0016122944653,177.12644699402153 L 259.4348191898316,178.02254515048116 L 258.66845302283764,179.97905678022653 L 258.6116851642728,182.41045946162194 L 259.1793637536466,184.78645837772638 L 254.83662205003202,179.54024569038302 L 252.45804860256612,177.58364985790104 L 250.51658757217228,178.6625668592751 L 242.89834008179605,170.9796524597332 L 246.76423168741167,171.29074013326317 L 246.18519955314696,168.83838049322367 L 241.3826382048428,162.52175234537572 L 235.18926410004497,150.99525839556009 z" /><path fill-rule="evenodd" fill="#D2EBD9" stroke="#A6A6A6" stroke-width="0.25" opacity="1" d="M 197.95522158034146,249.12992209475487 L 195.92860883288085,247.8223108369857 L 195.02032294869423,247.71333575155586 L 195.02032294869423,246.0422383910045 L 196.9504302944988,243.4260600572452 L 195.33822301402688,241.2454006653279 L 192.1365154031664,240.00948748830706 L 189.29812217131257,240.1185446018353 L 186.57326466031373,241.82695533055812 L 184.15495353005826,244.33453097753227 L 182.15672478079796,247.38640331383795 L 180.7204977106303,250.80051597766578 L 187.28853973932564,252.87022138666362 L 189.44004175066948,252.88837502524257 L 191.58586712740362,252.28929376415908 L 197.0355821531266,249.1844023577869 L 197.95522158034146,249.12992209475487 z" /><path fill-rule="evenodd" fill="#D2EBD9" stroke="#A6A6A6" stroke-width="0.25" opacity="1" d="M 160.19891464710236,229.27985263057053 L 150.24183111265302,227.3509625531733 L 148.1754808202386,227.69673377089202 L 145.6209268849343,228.84315465111285 L 143.62837490811944,230.91730409115553 L 143.23667666688561,233.93680478073657 L 145.19516801275313,237.137230431661 L 148.64097737707198,238.99156447220594 L 155.35093898326159,240.1185446018353 L 156.88367131724954,239.1369883082807 L 159.70503423176706,234.84611851535738 L 161.1526147071272,233.8640561643988 L 163.2132882270962,234.0277397679165 L 165.0128295402974,234.5187748707831 L 166.68180481903255,235.4644055943936 L 168.33942641317844,236.91905127838254 L 165.80757970549166,239.3914749370888 L 158.15527144260705,243.78945809882134 L 152.7963850479573,245.4972564149648 L 146.25105024687946,250.32841916196048 L 144.3493267595768,252.28929376415908 L 142.07861211895943,255.52028654143214 L 141.92533899843693,257.0265247533098 L 143.40698024444282,258.3873931206763 L 145.68904842808843,258.6595450639725 L 146.93794146552682,257.2261300133541 L 148.6863916926086,252.99729506578296 L 151.56452232599258,250.54631275497377 L 155.19198895059526,249.29336179140955 L 159.02949655614793,248.87567762937397 L 162.53775069117546,249.12992209475487 L 170.06516955047846,250.92761511076242 L 173.53936291486025,249.94709449913353 L 175.0153273884207,245.31558931060135 L 175.63977383822203,244.38903675880283 L 176.71836329996586,242.00868434645236 L 177.0476169101894,239.57324719522148 L 175.4410864021629,238.44620702136308 L 170.16167495399714,232.33621661365032 L 167.97611217200756,227.16897302959114 L 167.30057449638844,226.25897661037743 L 165.85299402102828,226.38638108596206 L 161.81112192757428,228.69758444000036 L 160.19891464710236,229.27985263057053 z" /><path fill-rule="evenodd" fill="#D2EBD9" stroke="#A6A6A6" stroke-width="0.25" opacity="1" d="M 488.5669519919902,161.75250400416553 L 494.118849189952,163.74876629468054 L 496.8437067028135,164.11501043569297 L 500.0,163.2909426027909 L 500.0,161.75250400416553 L 496.08301730826497,161.42280855309218 L 481.9251117873937,154.38675837684423 L 479.0526579245925,153.83686199691147 L 469.58377803489566,153.63522601034492 L 467.7331456337124,152.95696627907455 L 467.61393314413726,151.21528195869178 L 465.84277569130063,149.60166605841368 L 463.9864665195346,148.79476228822023 L 442.7836690098047,146.26360344979912 L 431.9523603618145,148.00613538641483 L 426.4742614775896,147.786042669788 L 426.4742614775896,146.24525946937501 L 428.188650932163,145.89671664871275 L 433.0593338236213,143.03454535547644 L 435.35843232274055,142.19041792023927 L 442.6758100632578,141.6215100940317 L 442.6758100632578,140.07979310117662 L 438.7645041439682,138.86828013975173 L 430.5388406589627,139.4006293285638 L 426.4742614775896,138.5378426555544 L 416.8010172378272,132.38607078790665 L 413.05433826334774,132.23911722470075 L 416.06303507089615,130.76946544460952 L 418.93548907339573,130.98992685601115 L 427.6096187978983,135.2512393090874 L 436.9592860583216,135.32469459529966 L 435.0462090279907,132.7901817979291 L 431.543631805107,130.2734101852402 L 427.7345080599189,128.38082826323807 L 421.7682055309415,126.634930877015 L 411.1469380054623,119.90582580585033 L 404.4653602577746,116.94434335734695 L 391.60743886232376,119.02298963814974 L 384.39792006649077,118.48957228753716 L 379.36828728206456,116.81556353811175 L 357.20611280202866,117.14670808799565 L 353.81707129627466,118.48957228753716 L 349.0656010340899,122.99514848738909 L 342.61109472438693,125.44019648060203 L 339.50589251331985,128.16031049191952 L 336.49719570577145,129.8324517328292 L 335.0836758632213,131.4675765093416 L 334.38543109968305,133.3779512308538 L 333.8745203670114,135.69196284469217 L 333.1251845173538,137.6382633652538 L 331.74572544544935,138.5378426555544 L 330.002951990813,137.21598468720913 L 328.4758964292705,134.0391512652859 L 327.3916301969439,130.60411653108895 L 326.982901500538,128.4543331991881 L 327.72656057961285,125.62401087768376 L 329.5601626634598,122.86644556187093 L 331.9103522505611,120.73341519478709 L 338.40459596551955,118.71030022203922 L 344.04164488241076,115.73006985895336 L 349.1564295254648,111.71825608704239 L 351.83587272278965,107.41023282427341 L 349.8660278338939,103.43197294231504 L 353.5275550894439,102.25292987190187 L 361.4466723315418,104.46352343820035 L 365.48286751285195,104.205645641312 L 370.75092527642846,102.73193257302046 L 374.7133222837001,99.80229261424392 L 374.78144368715584,95.17579299863428 L 378.5962442047894,92.07799268327653 L 371.34131109528244,87.09740193746984 L 369.05924291163683,84.32934989221394 L 370.6941574178636,82.7604514574632 L 371.7046254761517,80.71128916647285 L 372.3461023811251,78.12616928480566 L 373.53255064971745,70.3668506173417 L 373.47010601870716,68.07486739289016 L 372.39719346910715,67.26145839691162 L 370.0242966543883,67.15053375158459 L 368.7413429841399,68.24123849533498 L 364.3929245080799,76.61172138061374 L 362.79207063280046,78.99410453997552 L 361.16850980743766,80.96976491902024 L 359.20434169098735,82.31742443051189 L 356.6441109832376,82.7789106760174 L 355.400894716382,83.25883380696177 L 353.72056589461863,85.30748129077256 L 352.82931046560407,85.7503776839003 L 351.9777924399823,85.30748129077256 L 351.02409224025905,83.25883380696177 L 349.49135990813375,82.7789106760174 L 348.2651740964502,83.03733348939568 L 346.2215308919549,84.10787318926305 L 345.1656486596912,84.32934989221394 L 343.35475380159914,83.55415980890393 L 343.445582292974,81.78207428380847 L 344.1778878290206,79.65885559935123 L 344.21194845996797,78.01536375191063 L 342.3215786572546,75.94677019491792 L 337.97883695177734,73.23110051453114 L 336.0714366938919,71.12456957995892 L 333.77233819290996,69.47969283629209 L 332.30772726237774,72.12245453614742 L 330.7068735267967,79.71424964815378 L 327.8003587536514,76.4454876743257 L 326.22221210598946,78.34777694288641 L 325.23445127531886,82.44664276950061 L 324.1218011826277,85.7503776839003 L 321.11310437321663,87.30036285053939 L 318.02493247948587,86.52539988234639 L 315.6179750338197,86.58075619861484 L 314.59615343250334,90.52873758226633 L 312.0643067229539,89.16372171696275 L 309.99795643240213,89.79091400653124 L 305.933377251029,93.77452427521348 L 304.90587887726724,95.47077219653875 L 304.1224823947996,96.31878970563412 L 303.08363047614694,96.59530207142234 L 301.40330165438354,95.87635456211865 L 300.7675015218556,94.71487053390592 L 300.3360657375306,93.368857646361 L 299.2688299585134,92.07799268327653 L 297.2706010695547,91.06362615991384 L 295.47673652879894,90.82385193929076 L 293.6828719880432,91.22962035890669 L 291.6562592405826,92.07799268327653 L 290.413042973727,92.96317502018064 L 289.48205000162125,94.03266728017479 L 288.4204909969121,94.84393100719899 L 286.8026068042964,95.17579299863428 L 285.80349243059754,94.69643325451761 L 283.75984922610223,92.59435824491084 L 282.56204727478325,92.07799268327653 L 281.1031131166965,90.75007432512939 L 281.909216824919,88.18596223648638 L 283.9925974328071,86.61766046844423 L 288.10826770216227,89.2928526122123 L 295.4199686702341,87.42951747402549 L 297.4636118747294,85.97181873954833 L 297.7360976263881,82.74199243169278 L 297.6793297659606,79.49267186503857 L 298.7465655449778,78.01536375191063 L 301.49413028359413,78.53244617581367 L 303.37882331572473,79.38188127055764 L 305.22945571504533,79.56653166376054 L 307.84077750891447,78.01536375191063 L 303.08363047614694,71.95614716410637 L 308.14732403308153,72.288759178482 L 310.62807965278625,71.84527414198965 L 312.7001067176461,70.25595997273922 L 310.3555939011276,68.01940967608243 L 304.9229093324393,65.78236542269588 L 303.08363047614694,64.04415510036051 L 302.01071778684855,59.80832999199629 L 304.0373305361718,58.45767231564969 L 307.261745236814,58.75372240692377 L 315.2603374235332,61.565764986909926 L 317.99087170884013,61.71374567877501 L 318.4109539501369,59.41980300564319 L 316.92931270226836,57.49545040074736 L 309.7481777686626,53.05323957372457 L 311.5136583093554,50.053644536063075 L 314.6756283789873,47.27544872649014 L 316.58302863687277,44.2741399332881 L 314.59615343250334,40.60466390661895 L 311.5988101679832,39.93734325002879 L 308.13597034849226,41.42021806631237 L 302.12993027828634,45.27467507030815 L 298.48543333634734,45.71932561323047 L 295.3348169513047,45.163509437814355 L 292.49074680916965,45.47847559582442 L 289.7488589808345,48.53499201312661 L 289.03358390182257,50.498085089959204 L 288.7213606070727,52.38673963397741 L 288.18774264864624,54.27504175528884 L 286.8026068042964,56.31105131376535 L 285.1847226135433,57.27338604256511 L 283.48736347444355,57.68050019722432 L 281.8183883354068,58.56869222782552 L 280.2288880031556,60.973821045830846 L 277.8105770125985,59.86383246816695 L 272.2359727267176,66.41100627928972 L 269.56788307242095,67.15053375158459 L 268.9718204829842,65.74538519978523 L 268.3530506659299,63.045473909936845 L 267.6604828145355,58.6056984430179 L 266.9338540509343,57.14384642150253 L 265.3330003153533,58.69821361731738 L 262.9033356420696,62.49060848914087 L 259.79245665855706,60.27084246277809 L 261.14353187195957,56.23702174052596 L 265.7644360996783,50.09068189933896 L 265.24217168428004,50.127719355747104 L 264.2714413087815,48.72020572796464 L 263.31774110905826,46.645618044771254 L 262.9033356420696,44.57060504797846 L 263.6242876332253,43.032597550190985 L 265.31029322743416,42.495166284032166 L 268.6141828726977,42.16157382912934 L 272.0656691491604,40.12271446548402 L 274.2852925620973,37.52720791939646 L 275.15384090319276,34.152052904479206 L 274.5066872276366,29.736687464639544 L 273.6551693417132,28.901632679626346 L 272.02025483362377,26.767289996147156 L 271.2538886666298,24.53966903500259 L 272.9909853488207,23.499944397248328 L 273.2975317314267,22.608666737563908 L 276.4311179406941,19.098496383056045 L 277.18613056465983,18.81985919829458 L 276.1302481908351,14.806630643084645 L 273.3372692745179,16.18171254079789 L 268.6141828726977,21.940156998112798 L 265.40112171694636,23.871287072077394 L 258.30513864196837,25.319392298348248 L 255.27941151708364,28.029390533454716 L 255.83005979284644,32.44550174660981 L 254.10431665368378,35.26486599165946 L 251.3113377392292,36.859684120863676 L 244.89656897075474,38.49133103620261 L 242.47258120961487,40.363692057318985 L 242.4101364389062,43.19938078895211 L 245.75944053940475,46.97906264849007 L 243.39222049713135,48.23864283319563 L 238.5896591488272,46.608568066731095 L 236.614137487486,47.75705724302679 L 236.2735303323716,49.03506117220968 L 236.37003573589027,51.97941247932613 L 236.14296416006982,53.05323957372457 L 231.77751536853611,58.05058964341879 L 226.61731654964387,62.0097003467381 L 225.28894842416048,63.41536729969084 L 223.7448625471443,65.59746364038438 L 222.75142494402826,68.13032457884401 L 223.05797132849693,70.57014660071582 L 224.00599475577474,71.34633041359484 L 225.2208270225674,71.14304977841675 L 226.45836651697755,70.44077673647553 L 227.43477380275726,69.62755771074444 L 230.3639955241233,66.2446051100269 L 231.3858171273023,65.59746364038438 L 233.95740137808025,65.78236542269588 L 235.76261946186423,67.44632980320603 L 236.08619630150497,70.1081042708829 L 234.23556390032172,73.36043452657759 L 239.98614867590368,74.57978937774897 L 242.5463793836534,76.35313446260989 L 243.8520402815193,79.71424964815378 L 241.34857743233442,80.9328403128311 L 238.56127528846264,83.03733348939568 L 236.25650001689792,85.76883123349398 L 235.18926410004497,88.97924602869898 L 235.35956767760217,91.00829408038408 L 236.06348921358585,91.9488970162347 L 237.16478576138616,91.63537254650146 L 238.57262883335352,89.75402128323913 L 239.9180272743106,88.83166297059506 L 241.9446400217712,88.64718124177307 L 245.75944053940475,88.97924602869898 L 243.56820098683238,93.40573722403497 L 242.4328436665237,95.02830007020384 L 240.90578810498118,96.59530207142234 L 243.22759369201958,97.7565708681941 L 248.1947819851339,98.58596715517342 L 250.51658757217228,99.69172365870327 L 250.51658757217228,101.36855762265623 L 242.6939758732915,103.57934378180653 L 239.04947893321514,106.0106524368748 L 238.99838784523308,110.50335760042071 L 242.31930794753134,112.62013209052384 L 246.93453526310623,110.90833976119757 L 251.66329843737185,108.20201521087438 L 255.27941151708364,107.41023282427341 L 258.2086332384497,110.17199638206512 L 256.13660617545247,112.96981759276241 L 252.45237183198333,115.76686806231737 L 250.51658757217228,118.48957228753716 L 251.33404482714832,120.99087367672473 L 253.1335861403495,121.13798971939832 L 255.28508828952909,120.69663474988192 L 257.18681177683175,121.45060466136783 L 258.0553601179272,123.30770630482584 L 257.99859211966395,125.29314247798175 L 257.05624560266733,126.8554817410186 L 255.27941151708364,127.62737253215164 L 257.6977225076407,129.17097807861865 L 268.14868645742536,133.08407087437809 L 270.9473421443254,130.32852850668132 L 272.6674085110426,132.7167084282264 L 274.5066872276366,143.03454535547644 L 276.69792691990733,140.79561925120652 L 278.9459343329072,140.35511679481715 L 283.9528600294143,141.6215100940317 L 281.59131675958633,146.96065202727914 L 281.0917595718056,149.32659242954105 L 294.51168278604746,158.674929802306 L 296.83348851278424,155.59642534796149 L 298.63302982598543,157.0441714571789 L 300.39283359609544,160.0856000650674 L 302.6067803762853,161.75250400416553 L 313.2564317639917,163.74876629468054 L 315.54985363036394,163.2909426027909 L 316.3502804301679,161.5510246809572 L 316.208360850811,157.48395226430148 L 316.418401831761,155.46813423372805 L 317.1677376832813,153.78187088295817 L 318.93889513611794,150.6285421140492 L 319.2795022893697,148.55634658318013 L 318.8707735929638,146.44704189151525 L 317.57078960724175,142.55743837542832 L 318.3768931776285,139.2537773102522 L 318.2860646881163,137.34450609143823 L 317.45725389011204,133.9105878584087 L 319.7960897926241,134.90231962129474 L 322.4755331296474,135.56342055648565 L 324.7973387185484,136.94057578966022 L 326.02920144051313,140.07979310117662 L 325.37069422006607,143.32813837565482 L 323.69036539644003,147.2357896035537 L 322.36199741251767,151.2886218642816 L 322.87290814332664,157.22741574887186 L 321.0506596043706,159.0963193560019 L 319.4668361824006,161.69755561556667 L 320.31835420802236,166.36712280754 L 321.5558937024325,167.52045095991343 L 323.1453938949853,167.74011760670692 L 324.4964691065252,168.2526550013572 L 325.0755012407899,170.2110426267609 L 324.6440654564649,172.31543211825192 L 323.53709213621914,172.53499544225633 L 322.14060260914266,172.3520262595266 L 319.2170576583594,174.10839504282922 L 309.367833070457,177.8945358535275 L 303.08363047614694,183.37920276541263 L 300.0011353548616,188.69651314616203 L 302.4818911142647,192.4772439096123 L 306.444287981838,197.09623601008207 L 307.84077750891447,204.8324727471918 L 314.914053497836,191.1441026367247 L 319.3533004652709,186.39451276231557 L 322.3052294142544,192.45898292213678 L 318.59261107072234,197.68030755408108 L 317.67864855378866,202.78950810991228 L 319.77338270656765,205.452577595599 L 325.0755012407899,203.31852924544364 L 321.4253275282681,207.05738025624305 L 308.71500262245536,212.89090142771602 L 305.933377251029,214.8589635407552 L 306.43861120939255,218.2475155889988 L 307.76697933487594,221.8534499006346 L 309.6005812790245,224.80281425919384 L 311.655578026548,226.25897661037743 L 312.5070960521698,225.85855272132903 L 315.2546606529504,223.7833770494908 L 316.418401831761,223.20079583581537 L 318.1554985139519,223.16438350640237 L 322.73666519857943,224.58437188807875 L 323.9514976050705,225.5309213520959 L 324.66109591163695,227.69673377089202 L 325.1209155563265,229.86208767816424 L 325.5523513406515,230.8081486504525 L 334.9871704597026,231.08103484474123 L 338.27970670349896,232.0633641211316 L 341.04997839033604,233.91861773096025 L 342.30454820021987,236.91905127838254 L 341.4870909471065,239.97313471045345 L 337.5019868519157,245.9150786139071 L 336.0316991508007,249.783665234223 L 334.7260382529348,251.52677601017058 L 333.25007377937436,253.0517545407638 L 332.2225754056126,253.6689434722066 L 331.5413610972464,254.64910792000592 L 329.83832518570125,261.4350824719295 L 332.79593090713024,260.2378839664161 L 337.24653155729175,254.90320935472846 L 339.369649708271,253.6689434722066 L 342.4351143743843,253.2332847006619 L 349.02018672041595,250.6915723523125 L 360.59515430592,243.62593053188175 L 363.87066009268165,243.02630717959255 L 370.9779968522489,243.02630717959255 L 372.5788505896926,242.31761618051678 L 373.9753401167691,241.17270398139954 L 375.53077953867614,240.24577661696821 L 377.6311906017363,240.1185446018353 L 377.6311906017363,241.49983488209546 L 377.10892618633807,244.26185644883662 L 379.23204433731735,246.6780140399933 L 382.49619658105075,248.43981494009495 L 395.7628465332091,249.72918815817684 L 398.20386475138366,248.42165341600776 L 400.51431693322957,246.55086215771735 L 406.2024569399655,244.62522482685745 L 408.6832125596702,242.26309959311038 L 414.99012238159776,234.66426227707416 L 415.90976181067526,231.57221116125584 L 416.42067254148424,227.0415783021599 L 417.016735130921,223.96542683057487 L 416.35822791047394,221.4528532344848 L 413.05433826334774,218.73930867388844 L 410.32948075048625,217.51888939086348 L 406.71904444135725,216.5533798765391 L 403.1710529047996,216.2801059326157 L 400.5824383366853,217.08168882969767 L 399.21433280967176,219.63176205474883 L 396.87549676559865,227.24176927190274 L 394.8659143317491,229.27985263057053 L 392.51004797406495,228.661191675812 L 390.27907087653875,226.1679725376889 L 386.30532032623887,220.26918086688966 L 391.0170530434698,220.14170014951378 L 391.86857106909156,217.1181230545044 L 390.10876729898155,207.20325874350965 L 391.93101570010185,205.61671672854573 L 400.78112577460706,210.539664035663 L 404.00554061308503,210.19331199675798 L 404.6186335179955,207.8596869399771 L 404.3802085388452,205.01486042141914 L 403.5286905132234,199.39582414831966 L 403.68196377530694,195.52637831307948 L 404.16449064575136,194.13886120915413 L 406.2989623416215,194.1206031953916 L 406.84393384307623,194.46750077418983 L 407.8203411307186,196.54863871261477 L 408.6832125596702,197.0232246890664 L 409.2622448336333,196.32959143444896 L 410.1364699471742,193.0067996578291 L 410.6303503625095,191.72851486504078 L 412.5036899894476,190.48659907095134 L 414.7119598593563,190.6144502228126 L 416.6590976603329,191.9111367808655 L 417.7320103496313,194.1206031953916 L 420.66123207099736,192.3676772741601 L 422.4153590686619,190.066505048424 L 423.30093786492944,186.9061133414507 L 423.53368607349694,182.5566906137392 L 424.35682009905577,179.52196153160185 L 426.3266649879515,175.68155184015632 L 428.69956180267036,172.3520262595266 L 430.72049777954817,170.9796524597332 L 433.16151599772274,172.42521437164396 L 432.0148051325232,175.79129785019904 L 428.3816617373377,181.71583212632686 L 429.87465652637184,184.4575068615377 L 432.8776765614748,183.8361251791939 L 438.86100954562426,180.18017215374857 L 437.82783439941704,185.46260290872306 L 434.47285366617143,187.7100051837042 L 430.9021549001336,189.09839657135308 L 429.2445333059877,191.72851486504078 L 430.1868798211217,193.3719947040081 L 432.0375122204423,194.77787292003632 L 433.32046603038907,196.58514602389187 L 432.6278980374336,199.39582414831966 L 430.8340334985405,200.381203584373 L 426.57076687924564,198.39209945313632 L 424.493063043803,198.7206021239981 L 423.10225028917193,200.4906842438504 L 422.97736102715135,202.20572876092046 L 423.12495737709105,204.06640903744847 L 422.5856627859175,206.36442826502025 L 420.93371782265604,209.00833457242697 L 420.03110885061324,209.28180304914713 L 419.07173187844455,205.05133769940585 L 417.6979495789856,203.86576360557228 L 415.97788321226835,203.37325409054756 L 414.40541333705187,203.31852924544364 L 412.79320605657995,204.17585019674152 L 413.451713277027,206.16382819600403 L 415.90976181067526,209.42764999903738 L 422.2961465790868,222.56355977244675 L 424.01053617335856,224.58437188807875 L 425.58300604857504,225.29429214354604 L 429.3240082524717,228.5702089741826 L 431.1973478794098,229.27985263057053 L 460.4327982105315,231.4630629317835 L 468.10781355947256,233.90043064858764 L 472.2859284579754,233.8640561643988 L 475.98719311878085,232.82733289897442 L 477.5426326803863,231.57221116125584 L 479.04130438156426,229.27985263057053 L 481.40284751169384,220.10527692362666 L 482.32816371135414,218.73930867388844 L 483.7984514143318,217.55532205663621 L 488.090102031827,210.19331199675798 L 489.5660665053874,208.6619306160137 L 491.5075273960829,207.53147811442614 L 495.32232791371644,206.36442826502025 L 494.1812938209623,204.1393697913736 L 491.5075273960829,202.46113631874323 L 490.4686754774302,200.12574399728328 L 494.0280207004398,200.16223851963878 L 495.13499402068555,198.1183392284438 L 493.9088080711663,195.5628895042464 L 490.4686754774302,194.1206031953916 L 473.0806784853339,196.5121310474351 L 461.3467608653009,203.59215009119362 L 458.45159977674484,204.24881039187312 L 457.2254138253629,202.46113631874323 L 458.94548019208014,197.0232246890664 L 451.49753627739847,200.1987329106778 L 442.6758100632578,195.65416657365859 L 445.1395353693515,191.50936411693692 L 449.8399146813899,188.09365844074637 L 455.01714395545423,185.7367028258741 L 458.94548019208014,184.78645837772638 L 466.9667794685811,186.77821548935026 L 470.8667318429798,184.34785407409072 L 483.90063358843327,182.99537194054574 L 489.1119234934449,181.45990485418588 L 493.48304919712245,178.42484910972416 L 495.32232791371644,173.28513493947685 L 492.75642043352127,170.41235078312457 L 486.9604214839637,168.2526550013572 L 477.04875226318836,166.36712280754 L 477.04875226318836,164.7009738124907 L 485.4333659224212,161.62429041136056 L 488.5669519919902,161.75250400416553 z" /><path fill-rule="evenodd" fill="#D2EBD9" stroke="#A6A6A6" stroke-width="0.25" opacity="1" d="M 219.00474582985044,253.6689434722066 L 213.1292717922479,255.15730448812246 L 211.81225735135376,255.9558480763808 L 210.88126437924802,257.84306732658297 L 210.5860714018345,259.76622202899307 L 211.26728584989905,261.163004222326 L 213.28254505433142,261.4350824719295 L 216.4445151221007,263.0674003250897 L 220.00953697785735,261.79784223716706 L 223.66538746096194,259.548524428159 L 227.04875233396888,258.3873931206763 L 241.3826382048428,259.9113509710878 L 242.61450078710914,259.584807571955 L 242.71100618876517,258.76840377319604 L 242.5236722957343,257.6979090915993 L 242.89834008179605,256.5910087293014 L 243.8179795090109,255.06655696593225 L 244.27779929339886,253.6689434722066 L 245.1236404068768,252.67053124587983 L 247.17863715440035,252.28929376415908 L 248.14369089901447,252.88837502524257 L 249.56288751401007,256.5910087293014 L 250.9877609014511,257.7341987872496 L 252.00390559062362,258.20595447625965 L 253.37768803164363,258.3873931206763 L 256.52262764424086,257.18983851745725 L 258.88984768651426,254.0319782588631 L 260.40554970502853,249.60207415279 L 261.0016122944653,244.5525521384552 L 257.6125706490129,243.7167794778943 L 254.35977208986878,241.89964736811817 L 246.23629063926637,241.49983488209546 L 242.9494311697781,243.1898443242535 L 238.30014308169484,250.6007852619514 L 234.71241400018334,252.28929376415908 L 219.00474582985044,253.6689434722066 z" /><path fill-rule="evenodd" fill="#D2EBD9" stroke="#A6A6A6" stroke-width="0.25" opacity="1" d="M 216.21096290275455,18.178534627892077 L 218.54641939140856,22.2256899215281 L 222.08990201726556,23.440887606702745 L 226.82883915491402,23.484194478020072 L 227.32778109051287,20.883129578083754 L 224.0181338954717,19.904543904587626 L 224.04657035134733,16.823913007974625 L 221.4618812520057,14.193397044204175 L 219.82893415354192,11.09676802996546 L 222.93254731409252,8.988737630657852 L 228.38411074317992,9.74957653414458 L 232.1621917951852,11.683191187679768 L 233.85071336105466,8.853784273378551 L 230.31832869164646,6.208433545194566 L 227.4985319469124,3.334178232587874 L 226.34040615335107,0.0 L 222.52400793507695,1.8646581564098597 L 219.4175342079252,3.975359315983951 L 217.26006412133574,6.331055699847639 L 213.70501770451665,5.827320145443082 L 212.021223526448,8.660944119095802 L 208.919187836349,11.009058645926416 L 213.15885057859123,14.59830525983125 L 216.70708431117237,15.5754180168733 L 216.21096290275455,18.178534627892077 z" /><path fill-rule="evenodd" fill="#D2EBD9" stroke="#A6A6A6" stroke-width="0.25" opacity="1" d="M 404.947887128219,93.88515773136169 L 406.81554984487593,92.05955038405955 L 406.84393384307623,91.74602933507413 L 406.21948725543916,91.39561184216291 L 405.61774789355695,87.96456952672452 L 403.98851015791297,87.90922053717077 L 401.36583481915295,89.0530365249142 L 400.1112650092691,89.01614134386182 L 400.1112650092691,88.07526637241244 L 400.95710626244545,85.84264532197267 L 400.29292226955295,84.88302071299404 L 398.74315948039293,85.08602595329285 L 398.57853267528117,84.47699849121273 L 400.0431436058134,83.48032905813307 L 401.56452239491045,84.18169914279133 L 402.75664757564664,85.54738597199321 L 403.0064260996878,85.06757093407214 L 402.35359564982355,83.00041641294956 L 402.0413724947721,80.8220652313903 L 402.279797475785,78.7171120448038 L 403.47192265465856,76.09454094618559 L 403.34703339263797,74.76452728547156 L 402.93262792378664,73.80385324824601 L 403.0291333254427,72.39962734747678 L 403.9487727545202,70.68103357870132 L 403.27323507890105,69.70148945227265 L 400.3837507609278,70.23747815657407 L 399.2881309837103,71.43872927036136 L 400.29292226955295,72.67679280228913 L 400.37807398848236,74.22877802886069 L 399.58900073356926,74.2472525658086 L 398.0903290323913,73.7299514375627 L 395.8820591624826,74.91231527831405 L 393.8724767304957,76.4454876743257 L 390.66509234532714,78.10770181752741 L 390.3244851920754,79.27108946535736 L 390.27907087653875,81.26515761204064 L 389.5978564284742,83.0927090793848 L 387.8153455723077,84.77228901255876 L 386.6516042519361,86.74682378768921 L 387.6450418550521,88.2413094881922 L 389.3594314493239,89.49576936569065 L 391.31224602274597,90.56562726199627 L 393.3331819996238,91.11895793676376 L 394.71831784397364,92.05955038405955 L 396.01262519694865,92.3361786371097 L 396.3872931227088,92.63124063890427 L 395.3881787471473,93.66388938669115 L 395.8820591624826,94.29080371558666 L 397.9654397703707,94.1801744569093 L 399.5946775060147,93.49793524388224 L 400.98549012281,91.41405512206256 L 401.74617951735854,91.28495123051107 L 403.0064260996878,91.48782813362777 L 403.8011762648821,92.52059350721538 L 403.61951914429665,94.05110576562583 L 404.22125850617886,94.27236543875188 L 404.947887128219,93.88515773136169 z" /><path fill-rule="evenodd" fill="#D2EBD9" stroke="#A6A6A6" stroke-width="0.25" opacity="1" d="M 228.55877744033933,100.33669251669198 L 229.3875882383436,99.24943556077778 L 229.70548830367625,96.94554000999779 L 228.50768635235727,95.32328355591744 L 227.12822728045285,94.82549396250397 L 226.33347711525857,95.10204680263996 L 225.74876820854843,96.50313219614327 L 225.23218056559563,97.14830374531448 L 224.52258225902915,97.20360211934894 L 223.68809468857944,97.03770586661994 L 223.12041595950723,97.94088701251894 L 223.94355012476444,100.70522774755955 L 223.6767411455512,102.43716437276453 L 224.18197510391474,104.79507078509778 L 225.9133950136602,106.48947785887867 L 227.3325916286558,105.99223566707224 L 227.38935948722064,104.50036249123514 L 226.9238629322499,102.65824126917869 L 227.66184523887932,100.96319449227303 L 228.55877744033933,100.33669251669198 z" /><path fill-rule="evenodd" fill="#D2EBD9" stroke="#A6A6A6" stroke-width="0.25" opacity="1" d="M 219.58559065312147,243.47502207756042 L 223.4125202652067,239.4464403660968 L 227.23657759092748,236.608779235743 L 227.45285339467227,241.13473086245358 L 230.55103713832796,240.6760383658111 L 231.2844707723707,237.10817642975599 L 234.3930886723101,235.22139961179346 L 239.64172501303256,234.54020250495523 L 240.1348180193454,231.92249847389758 L 236.08600963279605,230.94309264887124 L 230.8538825288415,228.29045928176492 L 226.5735523905605,225.88397493492812 L 222.52267517149448,225.3870817180723 L 218.4595375750214,227.9895193427801 L 218.9222225304693,231.3270027274266 L 221.77082125470042,233.722443157807 L 218.43193428777158,234.65951807238162 L 212.95856823213398,233.68420727644116 L 208.66322708688676,236.2887421026826 L 207.7029692325741,238.66700982954353 L 215.5546251051128,239.6478506559506 L 216.72849393077195,243.699757181108 L 219.58559065312147,243.47502207756042 z" /><path fill-rule="evenodd" fill="#D2EBD9" stroke="#A6A6A6" stroke-width="0.25" opacity="1" d="M 109.48250414431095,253.65079121664166 L 111.33313654363155,251.563087570481 L 111.83269373141229,248.87567762937397 L 111.20257050916553,246.5871913637966 L 110.3794364836067,246.24205780401826 L 109.93664715439081,247.49538210127503 L 109.8004042096436,248.74855280760676 L 109.34626133739948,249.72918815817684 L 107.66025574319065,250.3828930510208 L 104.92972145788372,251.05471289064735 L 102.1083585433662,253.3785062013194 L 100.6607779301703,258.1152339493856 L 102.58520864322782,259.98391478322446 L 106.43974656425416,256.79062247276306 L 108.39256113767624,254.43130157794803 L 109.48250414431095,253.65079121664166 z" /><path fill-rule="evenodd" fill="#D2EBD9" stroke="#A6A6A6" stroke-width="0.25" opacity="1" d="M 36.637980069965124,300.91865642089397 L 37.46679086610675,299.942902456969 L 37.59735690057278,298.84055026900023 L 36.50173712335527,298.5333164278418 L 34.59433686546981,299.0935595938936 L 30.00749340839684,301.22581916768104 L 28.094416378065944,301.659444918856 L 26.83984656818211,302.20145132020116 L 26.766048254445195,303.35763615369797 L 28.73589328303933,305.38064695801586 L 28.63371110893786,306.4461799012497 L 27.680010909214616,308.59496985189617 L 27.75948599539697,310.5086398376152 L 29.655532570555806,310.0212293174118 L 31.500488199293613,308.1616366170347 L 33.43627245724201,305.3625859487802 L 34.95765124633908,301.9123848415911 L 36.637980069965124,300.91865642089397 z" /></g></g></g></svg>