<svg xmlns="http://www.w3.org/2000/svg" xmlns:xlink="http://www.w3.org/1999/xlink" width="500.0" height="178.2079919440439" viewBox="0.0 0.0008144666207954288 500.0 178.2079919440439" preserveAspectRatio="xMinYMin meet"><g transform="matrix(1,0,0,-1,0,178.2096208772855)"><g><g><path fill-rule="evenodd" fill="#D2EBD9" stroke="#A6A6A6" stroke-width="0.25" opacity="1" d="M 499.5895605140031,88.67002643377054 L 500.0,88.3215995579958 L 499.45274733866245,87.29927678441163 L 497.39077748468844,87.58551867573988 L 497.3093410850852,87.93228913005441 L 497.5487641319269,88.27089037094265 L 498.8826924814348,89.35218650207389 L 499.28010215549875,89.45034216227941 L 499.5895605140031,89.23194690945093 L 499.5895605140031,88.67002643377054 z" /><path fill-rule="evenodd" fill="#D2EBD9" stroke="#A6A6A6" stroke-width="0.25" opacity="1" d="M 404.8187551269584,120.81926482694689 L 405.0972676496094,120.54526477761101 L 405.5028209636366,120.68144346750341 L 405.7683036543458,119.63226163107902 L 405.77644729430904,119.43047756841406 L 405.09238145762356,119.36731838574633 L 405.35460670035536,118.5356244831346 L 405.2796851967141,118.21248073305469 L 404.852958430798,117.93855514202733 L 403.89200881547004,117.8015952607384 L 403.50925769733294,117.82619868859183 L 403.3040379543381,118.05337331537157 L 402.87242497642,117.90575020527467 L 402.6053135617258,118.08781902270857 L 402.2111613556481,118.60451947827823 L 402.3219148671051,119.12616895709652 L 402.0629470923668,119.56828085693996 L 402.2111613556481,119.85619772935752 L 401.660651226317,119.89064989297185 L 401.5173231550216,120.20318598672748 L 401.6508788623687,120.88735589187127 L 401.83818260145927,121.08178725163452 L 402.5662240859165,121.18351665011141 L 402.61997211765265,121.64541469374672 L 403.1672247789902,121.36974991776515 L 403.362672158044,121.48214797175024 L 404.5353564323377,121.36974991776515 L 405.072836729727,120.91770989727229 L 404.8187551269584,120.81926482694689 z" /><path fill-rule="evenodd" fill="#D2EBD9" stroke="#A6A6A6" stroke-width="0.25" opacity="1" d="M 270.6832188953995,129.80831592553295 L 271.35914107210556,129.97255209716968 L 271.6392823187416,129.87893710809294 L 271.91453737340635,129.52090989192948 L 271.802155137957,128.8492369611049 L 271.5969353949549,128.6833792614052 L 271.36565598807647,128.9822537684813 L 271.05945509756566,128.85005804442335 L 270.2727793893864,128.9822537684813 L 271.36565598807647,129.4511126986472 L 271.2793333964946,129.6522943614982 L 270.849349162585,129.589065348031 L 270.6832188953995,129.80831592553295 z" /><path fill-rule="evenodd" fill="#D2EBD9" stroke="#A6A6A6" stroke-width="0.25" opacity="1" d="M 276.44891656735126,131.3243310097605 L 276.59061591465434,131.42206787131727 L 277.2681668353689,131.3243310097605 L 276.72742909000226,130.85044581070542 L 276.03847708135436,130.6360970592359 L 276.17529023667885,131.4623127686791 L 276.44891656735126,131.3243310097605 z" /><path fill-rule="evenodd" fill="#D2EBD9" stroke="#A6A6A6" stroke-width="0.25" opacity="1" d="M 2.573390487479628,174.17158161534462 L 2.358398380529252,173.82389841938857 L 2.410517688280379,173.5323865704704 L 2.6760003789895563,173.42338248121087 L 3.105984612899192,173.61744400230236 L 2.773724058512016,173.06169933243655 L 2.285105620889226,172.63563106535003 L 2.006593098245503,172.7297601774335 L 1.856750110971916,173.155008476926 L 1.601039784211025,173.06417654361576 L 0.08632259157457156,170.84741955820937 L 0.0,171.3352933410788 L 0.18404629110591486,172.0312534600962 L 0.5065344615359209,172.6554476241581 L 0.9837518112180987,173.06747951358557 L 1.2492345019200002,173.97089773591142 L 1.5472917524748482,174.14102442981675 L 1.726451851602178,173.4671490638284 L 2.0131080142091378,174.17158161534462 L 2.5978214273709455,174.4350396975642 L 2.573390487479628,174.17158161534462 z" /><path fill-rule="evenodd" fill="#D2EBD9" stroke="#A6A6A6" stroke-width="0.25" opacity="1" d="M 335.11733358599304,0.19302933849394321 L 335.307894773061,0.0806324559962377 L 334.9902927746007,0.0008144666207954288 L 334.92677237890894,0.12624275009147823 L 335.11733358599304,0.19302933849394321 z" /><path fill-rule="evenodd" fill="#D2EBD9" stroke="#A6A6A6" stroke-width="0.25" opacity="1" d="M 333.25081111107284,0.948862393386662 L 333.3925104583759,1.0213511227630079 L 333.61238875730487,0.9781836550682783 L 333.49023415790725,0.8503104092087597 L 333.25081111107284,0.948862393386662 z" /><path fill-rule="evenodd" fill="#D2EBD9" stroke="#A6A6A6" stroke-width="0.25" opacity="1" d="M 334.81764759144426,1.079993741470389 L 334.8013603115178,0.8951067498419434 L 334.51796161690436,1.0140207965159789 L 334.6417449603032,1.1475957308430225 L 334.81764759144426,1.079993741470389 z" /><path fill-rule="evenodd" fill="#D2EBD9" stroke="#A6A6A6" stroke-width="0.25" opacity="1" d="M 336.54084199506906,56.76769484428223 L 336.49035141131026,57.089246417279355 L 336.7932948538364,57.306337890564464 L 336.842156693594,56.98641456256155 L 336.54084199506906,56.76769484428223 z" /><path fill-rule="evenodd" fill="#D2EBD9" stroke="#A6A6A6" stroke-width="0.25" opacity="1" d="M 334.74109738382685,57.56750414147973 L 334.78995922358445,57.26145032979548 L 334.42838157734514,57.05496905161999 L 334.3795197175714,57.36020309233572 L 334.74109738382685,57.56750414147973 z" /><path fill-rule="evenodd" fill="#D2EBD9" stroke="#A6A6A6" stroke-width="0.25" opacity="1" d="M 312.29396588499367,87.56752613990102 L 312.6457711672847,88.0435194321908 L 313.15393435281294,88.14166463841684 L 313.09367142511474,87.95600727281999 L 312.29396588499367,87.56752613990102 z" /><path fill-rule="evenodd" fill="#D2EBD9" stroke="#A6A6A6" stroke-width="0.25" opacity="1" d="M 382.22503810885246,97.37661910406314 L 382.1664039051466,97.45765253598802 L 382.1566315411983,97.48384529910982 L 382.2657563086468,97.47402299579699 L 382.22503810885246,97.37661910406314 z" /><path fill-rule="evenodd" fill="#D2EBD9" stroke="#A6A6A6" stroke-width="0.25" opacity="1" d="M 225.19447014065372,115.96061479393393 L 225.21727233654383,116.22218510659877 L 225.34919931989862,116.41488244303036 L 225.37363023978105,116.16560661431868 L 225.19447014065372,115.96061479393393 z" /><path fill-rule="evenodd" fill="#D2EBD9" stroke="#A6A6A6" stroke-width="0.25" opacity="1" d="M 397.72564400146075,116.36896273319144 L 397.7826494811816,116.57396308600437 L 397.97646813624306,116.66088453086559 L 397.91457646454364,116.47802239027806 L 397.72564400146075,116.36896273319144 z" /><path fill-rule="evenodd" fill="#D2EBD9" stroke="#A6A6A6" stroke-width="0.25" opacity="1" d="M 276.0498781692877,128.45594570226967 L 275.97821413364,129.20723730733152 L 276.0042737775075,129.534869404044 L 276.2257808204449,129.14319030859042 L 276.0498781692877,128.45594570226967 z" /><path fill-rule="evenodd" fill="#D2EBD9" stroke="#A6A6A6" stroke-width="0.25" opacity="1" d="M 222.59176254131307,129.56689423753414 L 222.4940388617906,129.75904566980898 L 222.64225312507187,129.7311259667622 L 222.59176254131307,129.56689423753414 z" /><path fill-rule="evenodd" fill="#D2EBD9" stroke="#A6A6A6" stroke-width="0.25" opacity="1" d="M 247.043858394376,153.89634414354805 L 246.98685291466245,154.108828511904 L 247.08131914620026,154.08164996025153 L 247.043858394376,153.89634414354805 z" /><path fill-rule="evenodd" fill="#D2EBD9" stroke="#A6A6A6" stroke-width="0.25" opacity="1" d="M 232.25826417429926,153.87987273419276 L 232.24034815037157,154.47780758945737 L 232.39507732962375,154.72490171145182 L 232.62961418448685,154.71666511287913 L 232.25826417429926,153.87987273419276 z" /><path fill-rule="evenodd" fill="#D2EBD9" stroke="#A6A6A6" stroke-width="0.25" opacity="1" d="M 241.25372978254018,162.0128706501564 L 241.37588440194668,162.19920127512887 L 241.55015830909542,162.2107440258842 L 241.50129646933783,162.1068598415004 L 241.25372978254018,162.0128706501564 z" /><path fill-rule="evenodd" fill="#D2EBD9" stroke="#A6A6A6" stroke-width="0.25" opacity="1" d="M 49.0410048614649,178.06832658906933 L 49.19247659273242,178.2088064106647 L 49.41561233964603,178.1517877841834 L 49.06543578134006,177.93363397778012 L 49.0410048614649,178.06832658906933 z" /></g></g></g></svg>