<svg xmlns="http://www.w3.org/2000/svg" xmlns:xlink="http://www.w3.org/1999/xlink" width="463.3035970609635" height="500.0" viewBox="0.0 0.0 463.3035970609635 500.0" preserveAspectRatio="xMinYMin meet"><g transform="matrix(1,0,0,-1,0,500.0)"><g><g><path fill-rule="evenodd" fill="#D2EBD9" stroke="#A6A6A6" stroke-width="0.25" opacity="1" d="M 367.15115380100906,487.10214088478824 L 367.17590660229325,482.3112135792762 L 366.89537434093654,479.7434681593004 L 366.07853036001325,477.8280135218083 L 363.2319526281208,476.2572795972228 L 361.301230404526,474.3026608046639 L 360.15434831753373,473.72267931859824 L 360.12959551624954,473.04982140881475 L 360.5833977907896,471.55344711719954 L 360.41837873868644,470.74644393827475 L 358.9414587877691,469.04989566560835 L 357.860584307462,466.8704194160673 L 356.9117250367999,466.5979873757751 L 356.5816870909184,466.23474544075725 L 357.61305580846965,464.81893655998283 L 358.6691774073988,462.779866743047 L 358.99921535141766,461.83463995571947 L 358.883702063933,460.5550853202585 L 358.0586071219295,457.6224715853459 L 357.44803683646023,456.419312159167 L 356.63119285553694,455.3564951272565 L 355.6245769392699,454.7704012397444 L 356.21039434336126,453.40010599562083 L 355.1295199431479,448.8208510293334 L 355.60807501897216,445.1847833356587 L 355.35229555889964,443.2656663943344 L 353.982637938112,441.684991449205 L 355.28628803417087,439.3655949948734 L 356.76320798508823,437.3227368171938 L 357.30777074582875,437.91495679806394 L 358.21537513285875,437.21956279937876 L 358.7764397356659,436.27655528482865 L 358.87545118294656,435.1849841633957 L 358.3968961071223,434.05215102020884 L 360.0388351101428,433.21233229456993 L 361.4745003376156,429.34962989218184 L 362.7533975522965,428.5490374515939 L 362.7616485133767,422.8418204615009 L 363.6940058618784,421.3356058313075 L 363.5207358505577,420.9146931471041 L 363.03392981365323,420.6340852181311 L 362.2830933574587,419.03297679219395 L 361.1444623116404,418.2654396383441 L 359.79130653105676,417.8032682003104 L 358.6691774073988,417.6464602963679 L 358.0338542405516,417.11826597373874 L 357.7368200570345,416.0041107206198 L 357.1427516937256,415.0220084312459 L 355.6245769392699,414.8652025690244 L 356.43316996097565,414.15545142606425 L 357.39028019085526,413.76756522330106 L 358.14936752803624,413.25588646410324 L 358.3968961071223,412.141751794421 L 359.23849296942353,412.0303386150481 L 360.8639299720526,412.2903027104767 L 363.61149633675814,412.08398200823285 L 365.2616862989962,412.42234818881843 L 366.72210432961583,413.0578177019779 L 368.2072753999382,414.8734555146075 L 371.01259824819863,415.4429088312172 L 371.524157166481,416.85829587814806 L 372.16773121617734,417.4566403137869 L 373.7271607723087,417.88579869116074 L 375.46811114251614,418.08387215026596 L 376.68100075237453,417.97245587053476 L 379.4698218405247,416.97796465683496 L 381.9368557855487,416.5034165071411 L 384.34613308496773,416.5157960635988 L 387.01944080367684,417.0109766992391 L 388.0508096013218,417.75374990595446 L 389.8742694966495,420.2049207906384 L 392.7373490706086,421.3190994126053 L 394.9073488339782,422.9119731799874 L 397.97670218348503,423.07291194090794 L 399.4453711733222,423.3432068647817 L 400.91816576197743,424.3480467535701 L 401.4627284426242,424.5543801650492 L 403.0386598408222,423.941570850453 L 403.89675862528384,424.2655135473906 L 404.1607890445739,424.43883341748733 L 405.13440111652017,426.34948936833825 L 405.95124509744346,428.79251620591094 L 407.08162526227534,429.06488273621653 L 422.15611054748297,427.65972358893487 L 423.5340191312134,427.354345253465 L 424.98618627898395,426.48567074474704 L 426.16607204824686,425.32813195583003 L 427.4202164616436,424.43058007535 L 429.11166114732623,424.3274135285319 L 431.9664898402989,425.4312991268962 L 433.4021550677717,425.80270136217587 L 435.0028392672539,425.6458870330098 L 438.14645118266344,424.7854736312438 L 439.9534092377871,423.34733347244037 L 440.9022683482617,423.1657612226554 L 441.1497969273478,422.28059938970546 L 442.74223024584353,421.4594038562209 L 443.6003289502114,420.79089546565956 L 444.07888402603567,419.89955441902566 L 445.26702083460987,414.914720167566 L 445.48154556937516,412.82673765967775 L 445.3990360442549,406.8022371121624 L 446.0508610531688,404.7638470375532 L 447.2967545054853,403.09683692669205 L 451.1251951921731,401.3308092043444 L 452.2143205534667,399.70508486374456 L 453.4602140057832,395.6201902225148 L 454.343065591529,393.75518931083207 L 455.4651947952807,392.0057313983125 L 456.8018486555666,390.4295784654387 L 458.3200234081596,389.047357575997 L 460.2259927522391,388.0859960890957 L 460.83656311780214,387.44646553343046 L 460.6880459859967,386.3613298192795 L 459.9537114519626,385.61865371909516 L 459.0048521794379,385.0533959733875 L 458.4025328550488,384.40562014140596 L 458.67481423541903,383.4195182577387 L 459.20287507399917,379.70206619950477 L 456.471810631454,376.41374563710997 L 452.7918870765716,373.2574830349913 L 450.48162114433944,369.93621727853315 L 450.24234352633357,365.8393419470085 L 449.71428276598454,364.1312914527516 L 443.7983518447727,359.01543185841 L 443.5013175830245,358.5946136408311 L 441.97489194758236,357.85199435682443 L 437.96493028849363,357.63746012993215 L 433.48466451466084,358.1407906127424 L 429.53245957940817,357.60445482355135 L 427.10668035782874,354.23792943847366 L 428.00603386573493,352.57117745549476 L 428.5010909419507,350.9374352492159 L 428.1875547580421,349.28719544847263 L 426.694132886827,347.57095076121914 L 420.79470380581915,344.3199998141208 L 419.0950081590563,342.5130057341594 L 416.2649323493242,336.16793155204505 L 413.55036982521415,332.12492892892624 L 413.1873281188309,330.21894696968957 L 414.7385067138821,323.7914326457103 L 415.0767955388874,318.024012720678 L 415.5966054983437,317.4794499052514 L 417.4860729202628,317.28142705225036 L 418.11314512602985,316.2995639778237 L 417.98938079737127,315.46621795852843 L 416.8590007927269,314.00579984189244 L 416.5207118075341,313.2137086454459 L 416.67747989855707,312.0420737324748 L 417.0900273695588,311.15097100021376 L 417.172536816448,310.30937376469956 L 415.522346932441,308.50241464063583 L 410.91006594896317,302.3801973796217 L 410.0684690847993,300.3999611957697 L 409.9942105207592,298.1391882490716 L 413.6823851149529,293.7413955608645 L 414.1609401907772,293.38660100438574 L 415.728620627895,293.87341212652973 L 416.06690953299403,294.22820651187794 L 416.5867194123566,295.3338441106607 L 417.20554057881236,295.54837071624934 L 420.060369271785,295.2183297977899 L 420.83595852926373,294.9130418886489 L 421.47953265719116,294.37672501639463 L 422.0570991002023,293.60112793088774 L 424.96143347769976,294.36847397562815 L 428.1628019567579,293.87341212652973 L 431.08363817445934,292.4542332407 L 433.16287752985954,290.4162225968321 L 434.5077823512256,287.6851157947822 L 435.48964530415833,284.48368531043525 L 436.07546278834343,281.1914772115706 L 436.21572895906866,278.2045466931595 L 437.5606337785721,278.92240150866564 L 438.8807857166976,279.37621736446454 L 440.2504434194416,279.38446856878 L 441.7108615282923,278.7903822820808 L 443.00626058503985,278.48508773632057 L 445.4650436490774,279.4834828520543 L 446.8347012717277,279.69801384930906 L 449.06245775707066,279.0544207055791 L 452.0988072641194,277.7094738642627 L 454.7886169049889,276.0262230481021 L 456.55432015657425,273.6498599806655 L 459.7309358343482,271.4632661035721 L 460.7127987872809,270.41534786188276 L 462.5857644472271,266.56195899195154 L 463.3035970609635,264.1690453213523 L 462.75903438031673,261.5780817479972 L 459.51641109772027,254.56423932602047 L 459.07085978612304,252.60859058935603 L 459.0873617064208,250.64467876724666 L 459.6236735060811,248.61474079357868 L 459.96196241118014,246.18870024713397 L 459.0626089051366,244.48055807192577 L 457.65169639885426,242.9291935524525 L 456.4223049469292,240.96522017667303 L 456.0015065167099,239.13326649804367 L 455.6054608859122,235.6838790255133 L 454.76386402361095,233.98392531857826 L 454.74736210145056,232.83686283351562 L 457.02462427318096,226.57331439730478 L 457.8744720965624,224.84854068463028 L 458.14675347693264,223.9160022227734 L 458.0807458702475,223.2310380252311 L 457.63519455865026,221.85285073872365 L 457.6599474400282,221.16788024829293 L 458.22101196087897,220.19406320119742 L 459.9042057674378,218.53526333758782 L 460.5230270139873,217.50366491706518 L 460.65504222363234,216.7856694960501 L 460.57253269664943,214.2932990774716 L 460.25074563361704,212.5024052193039 L 459.51641109772027,210.89306329893589 L 457.72595496475697,209.15165842357965 L 457.5031793490052,208.26857053367712 L 457.9817345030606,206.74172689495026 L 459.1533693112433,205.5284966496547 L 461.9586922414601,203.67149665227043 L 462.40424355491996,202.01256122915947 L 461.8349279910326,201.09642639037338 L 460.82006119564176,200.44439975274145 L 459.8959548063576,199.55301772868552 L 459.60717158578336,198.80194254642993 L 459.47515637613833,196.87884556537028 L 458.46854053996503,194.5678001592605 L 459.51641109772027,193.52781976446568 L 460.40751372464,192.09164603117097 L 460.4405174870044,190.88657138509734 L 457.8249664120376,190.39133284140553 L 457.31340757384896,189.69799630685884 L 456.99162050895393,188.77354323703912 L 456.45530878938735,187.96464250936697 L 454.94538491778076,187.04017969896086 L 453.3116968758404,186.46238785074092 L 452.59386426210403,185.82681437770952 L 453.1219250205904,185.23250971383823 L 454.6731035374105,184.3658114511927 L 455.6384647283703,181.1300964628026 L 456.9998714700341,180.70911847573007 L 458.68306519649923,180.42846580171317 L 459.2936354819685,179.90017716269358 L 457.41241894103587,178.76104863343062 L 456.44705782830715,177.68794876945321 L 455.9354989118874,175.96271861702553 L 455.6879704128951,169.5981806195341 L 455.1516586933285,166.8657190271333 L 455.7622289787978,163.38196031944244 L 455.184662533924,162.2839803845418 L 453.0641683768481,161.12820256066334 L 443.6003289502114,157.42964737956936 L 442.6349678374827,156.2573161353066 L 442.43694502301514,155.54730769667367 L 442.47819982655346,154.63089575379854 L 442.0574013143778,153.87959827169834 L 442.1069070789963,153.38423493271694 L 443.171279637143,152.49257620553544 L 443.5590742267668,151.8155719206552 L 443.4765646997839,151.0229770193837 L 442.94850394129753,149.44602872598625 L 442.50295262783766,145.23523265354743 L 442.1316598802805,144.09581637685187 L 441.58709727972746,143.55087429987907 L 440.20918861590326,143.06372712436132 L 439.7801392246038,142.6839160946838 L 439.68937881849706,141.89952004778024 L 440.18443581461906,140.47108053750708 L 440.1679338943213,139.884837386242 L 439.1035614144057,138.72059968796384 L 436.3642460089177,137.72149284167972 L 435.28337160870433,136.8792641818145 L 435.5391510669142,134.14610762047232 L 441.58709727972746,129.0264259986725 L 442.18116564303637,126.48301435152825 L 441.83462569862604,126.70597804918361 L 438.0226869340986,125.81412049701612 L 436.5045121796429,124.96354594192235 L 434.9780864659697,123.66702653431275 L 434.3262614570558,122.98159912951814 L 433.9632195904851,122.17229394169408 L 433.9962234329432,120.07467876630835 L 431.99124264344573,118.067866981306 L 431.1331438589841,115.60678694397211 L 430.65458878315985,115.00389616891334 L 429.9285051282495,114.89653171270038 L 427.90702249854803,115.93713654659223 L 427.10668035782874,116.00320635881508 L 422.9316998068243,114.76439057583048 L 422.3211294412613,114.77264940676105 L 421.80957060307264,115.24340105545707 L 421.5702930651605,116.70519544999115 L 420.83595852926373,117.24200758842926 L 420.060369271785,117.24200758842926 L 417.9151223115623,116.06101740057056 L 416.24017946608365,115.71415067448106 L 414.28470444120467,115.81325554703653 L 412.46124454401433,116.41614168793603 L 411.15759444609284,117.56409347159206 L 411.30611157789826,121.04090810293565 L 411.9001799430698,121.74286422251316 L 413.55862078629434,122.57694728633214 L 414.6890009511262,124.9883200032491 L 415.63786014169455,125.57463900629955 L 415.9761490467936,126.09489129664144 L 414.88702376559377,127.5813128384616 L 413.2203318811953,128.57224953449622 L 412.6015106346458,129.15854980034055 L 412.3374802954495,131.37985654265503 L 411.80116849578917,132.16432256439293 L 410.34075038693845,133.65066452395695 L 409.3588874321431,135.120472857001 L 407.54367841780186,138.82794121516054 L 406.8175948429853,142.13071097452485 L 406.1245150305331,143.8150889330136 L 405.159153919667,145.32605528476415 L 404.061777677387,146.38289504643762 L 402.9644012749195,147.0846978956397 L 400.27459163405,142.5765780047659 L 399.936302728951,140.1160321743373 L 399.64339398778975,139.28207749292778 L 398.99981993995607,138.3903173663275 L 392.9271209258586,132.50287989563367 L 392.3908091261983,131.6771285036666 L 392.15978262759745,129.98431944355252 L 391.80499172210693,129.27415791009844 L 391.0046496614814,128.72914709884208 L 389.0986802391708,128.11807139765006 L 388.1498209685087,127.63911771880521 L 385.5177680514753,124.79838501804625 L 382.92696977965534,123.00637371769699 L 382.1348785199225,122.2383599079767 L 381.1117608435452,120.08293718431378 L 380.2701639011502,119.60394853103207 L 379.8576164301485,119.73608356162731 L 379.1892894990742,120.7188326715841 L 378.6777306608856,120.8509662549477 L 377.5556014571339,120.50411510399135 L 375.4103545770049,120.79315788704844 L 373.8756779022515,120.4132729859557 L 372.45651451684535,120.5784404672595 L 358.5371621977538,125.74805668090994 L 357.7533219791949,125.92147408430174 L 356.82921558991075,125.79760460660327 L 355.3027898762375,124.90573967063392 L 354.42818924970925,124.72406260954449 L 352.7614973653108,125.12870661876514 L 347.6129047423601,127.46570298822189 L 345.6326767541468,127.8207900171401 L 344.6013080365956,127.51525015001243 L 342.2332854606211,125.14522260894591 L 341.16066193953156,125.0874164327397 L 340.9296353626996,125.56638100362034 L 341.3421829137951,126.30959782462742 L 342.2332854606211,127.06106757135422 L 342.6045782081783,127.62260209882515 L 343.1491408087313,128.9933950840059 L 343.3719165045768,130.48803593542834 L 344.4857946690172,131.85053686426545 L 344.28777193278074,132.75060417174245 L 343.4214221891016,132.816663973892 L 342.85210662707686,133.4277144708176 L 342.2332854606211,136.22694556271017 L 341.4824490044266,137.1434934042336 L 339.98902713134885,139.58758627758652 L 339.29594724066556,140.26465720568376 L 337.3569740559906,139.27382047496212 L 336.21834301017225,139.23253537651908 L 335.8140465002507,141.47842113238585 L 335.50876135751605,142.03988605436462 L 334.4608907196671,143.06372712436132 L 334.2711188644171,143.59215784391563 L 335.2117271758616,145.60677920730086 L 335.26123293861747,146.06914673364372 L 333.7595600262284,146.45720377512043 L 333.5862900149077,146.8700291232817 L 333.668799540028,147.72044515504967 L 333.8090657107532,147.7534709442407 L 333.49552960693836,149.5781299441005 L 331.43279217369854,151.8651089246123 L 330.7149594798684,153.55761230000644 L 328.95750726759434,159.35323894144676 L 328.0334008000791,161.3015698446543 L 326.68849597871304,162.22619172873965 L 323.3138575665653,163.31591665370797 L 317.6867098659277,167.39405410346808 L 314.287318572402,168.80568956851494 L 310.3598664402962,168.6983727554907 L 309.50176765583456,168.38467692794802 L 305.59081744402647,165.75951117374643 L 304.7079657781869,164.78538065147586 L 304.22115974128246,163.76996620990394 L 304.02313700690866,162.2096806569316 L 303.6765970606357,161.40063674242992 L 302.6452284231782,160.83925651780737 L 301.24256687797606,161.27680314892496 L 298.77553285472095,163.89379756199196 L 297.88443030789495,164.10018306331767 L 297.5791451651603,163.0187198076601 L 298.24747217446566,154.40798372012796 L 298.9323009457439,151.1798451149225 L 300.59074187092483,148.62039360903145 L 303.7013499420136,147.20854494908417 L 303.34655911661685,145.82970665257017 L 301.9108938090503,143.567387751129 L 301.3415783252567,142.35364473400114 L 301.1930612754077,141.1729170740291 L 301.76237675733864,137.870120857624 L 301.2095631156117,135.57462339880294 L 300.1369396764785,132.82492136659857 L 299.5593731533736,130.24030683819728 L 300.46697762049735,128.48141414974816 L 268.7750794943422,121.68505625071703 L 266.29979459010065,121.95757933410641 L 263.8575134463608,123.63399394815497 L 261.1512019652873,126.99500449556217 L 258.8821907546371,128.54747626953758 L 256.3821529690176,127.30880365765188 L 253.01576543785632,126.22701839683577 L 250.13618394173682,125.65721883953665 L 248.36222972907126,124.94702984466858 L 245.65591824799776,122.45307396168937 L 244.32751534879208,121.6767979550932 L 243.00736333057284,121.78415558929555 L 241.55519618093967,122.55217268060369 L 238.85713558085263,124.666256212804 L 237.4297213125974,126.66468852992693 L 236.3323449920863,127.22622504987521 L 232.29763052985072,128.44838299541152 L 229.17052053660154,128.4979296433885 L 228.53519744984806,126.92894130079367 L 230.25139501690865,122.27139283614815 L 230.54017823934555,120.5123734890949 L 229.9626117963344,116.0857935858512 L 229.99561555869877,114.69006114808144 L 230.61443672515452,113.00524702796247 L 232.63591943494976,109.77594333708112 L 233.38675589114428,107.98367722299008 L 233.8158052843064,105.94359370990423 L 233.8158052843064,104.28341420658398 L 233.4280106946826,102.62320702437137 L 232.69367608055472,100.59953366272384 L 226.87675652466714,91.10009313949558 L 225.92789733409882,87.45701088913484 L 226.34044480510056,85.5817175435368 L 227.71010242775083,85.81303338878206 L 230.9444747492671,88.08485379208287 L 233.21348595805466,88.77878063490789 L 234.8059192765504,88.25833603035426 L 236.1095693744719,86.78785776795121 L 238.86538654007018,82.78109773855249 L 244.93808555416763,76.3203380749328 L 246.1097204424441,74.47786114146584 L 246.1097204424441,72.75928248954006 L 244.13774349354208,71.54468954251206 L 242.297781676054,71.35464963344566 L 241.20040527544916,71.44553837267449 L 240.36705945245922,70.94151790735486 L 239.31093785353005,68.95845826261211 L 238.9148923046887,67.55376310469 L 238.84063373878598,62.01738377175934 L 238.70861852914095,61.56288852894795 L 238.85713558085263,61.25713580347656 L 240.16078567691147,60.1084870906343 L 244.68230617418885,58.21607398148626 L 246.36549990065396,57.207870996091515 L 249.5833703018725,54.555080344041926 L 252.48770467750728,53.174933513684664 L 256.2748905606568,52.13360943313455 L 259.3607458304614,50.687303390339366 L 260.20234269462526,48.10868102735549 L 259.12971925362945,46.38955246003752 L 255.68907315656543,43.81078859191621 L 254.60819875635207,41.88492499374843 L 250.05367441661656,31.105800143661327 L 249.83089879900217,29.25401483150199 L 250.62298997864127,27.584061179557466 L 252.273179942742,26.600258824051707 L 254.1626474428922,25.988475738398847 L 255.69732411764562,25.161733793705935 L 256.25838871859014,23.466883126326138 L 255.6313165128231,21.66451043532288 L 254.22040408663452,19.977845316927414 L 252.49595563858747,18.688015570573043 L 250.89527135901153,18.076165049307747 L 249.41010036878288,18.117506441558362 L 244.81432138383389,19.432150906242896 L 243.21363702602684,19.614049482130213 L 238.86538654007018,19.05181599216303 L 237.1326870508492,19.638853830023436 L 235.79603319056332,21.085757241307874 L 229.45930375903845,31.353803587786388 L 226.4972128160298,33.62712981669756 L 222.495502198115,34.20578354118334 L 220.29249859414995,32.69300788574037 L 218.7990767210722,30.22951470746193 L 217.0168715491891,27.939549615388387 L 213.97227108106017,26.92268287370098 L 210.68839299678802,26.26129856253101 L 208.1140967234969,24.67395159896114 L 205.73782318644226,22.71452208624396 L 203.01500978320837,20.945202251619776 L 200.93577042780817,19.16757037838397 L 199.62386937066913,16.645737032289617 L 194.3174912650138,2.320523529284401 L 193.07158776186407,0.0 L 189.57051596045494,2.244593029754469 L 185.66890890151262,6.324596372272936 L 184.4249695967883,11.498989032756072 L 183.6713395509869,12.911877757447655 L 183.151594735682,14.357291700493079 L 182.8527414035052,15.945910376307438 L 182.74229566194117,17.781892012571916 L 181.0778169836849,19.631884015456308 L 178.40921381115913,21.58092403014598 L 168.61429837346077,29.91526865560445 L 155.74317218735814,38.7950624460791 L 155.0983654409647,42.39387722899846 L 155.18932080082595,43.62393858634459 L 155.65709118172526,45.01017484573822 L 155.9429508447647,46.80638778259163 L 155.61811033636332,48.348755186380004 L 154.86448029056191,49.85204616084229 L 153.70776312239468,50.790581621433375 L 151.9342961292714,51.83889813767746 L 149.63968588970602,53.62076494800567 L 148.2849922887981,54.24721003425657 L 147.973327787593,55.814190680524916 L 140.26834834367037,64.27466655416356 L 131.8368049710989,71.37342934770277 L 121.6313651856035,79.3069004714198 L 117.56855452433228,82.64839759847382 L 107.23521786555648,90.17701502998534 L 102.42403981648386,94.26010141512961 L 96.3478464409709,98.87503413918603 L 82.19115404598415,116.38057124397892 L 80.46300239302218,119.4433969699021 L 81.91828797012568,118.34443137436756 L 84.19866864942014,115.91236080581439 L 85.92032350972295,115.02795765944757 L 87.7654177788645,114.81986168652656 L 88.85688200220466,115.50917800197203 L 89.85739086568356,116.79675661129295 L 91.37114783190191,118.3509342254838 L 91.16974665224552,117.22594602291065 L 90.57204006612301,115.47016016229463 L 90.82541568018496,114.48170495913655 L 91.56605213694274,114.84587371570524 L 91.96235754154623,115.57420759607339 L 91.93637036532164,114.11753485538065 L 92.18324918486178,112.62182297713298 L 92.85891745984554,111.7894174435205 L 94.09980835020542,112.29666540614562 L 96.95190827734768,111.29517356719589 L 97.57560211978853,110.89847603233648 L 98.75802170112729,109.07104633448762 L 99.05037823878229,107.34113614086527 L 99.59611031040549,107.34113614086527 L 99.74553697742522,108.12155042139057 L 100.03139664046466,108.47923825519683 L 100.49916702322662,108.40770080522634 L 101.2333066854626,107.93295085801219 L 101.33075883798301,108.36217696897802 L 101.7790387570858,108.47923825519683 L 102.03241437114775,105.55266400070104 L 102.32477090880275,104.60963850372354 L 102.87050298042595,105.22098017708049 L 103.5006936173886,105.59168553128256 L 104.23483327962458,105.75427514506737 L 105.04693463258445,105.70224646538554 L 104.78056543134153,104.57712022984924 L 105.09241235256195,104.3104699998512 L 105.79406788386405,104.62264585825324 L 106.68413100764155,105.20146930147894 L 107.29483118094504,105.84532522961672 L 107.89903463982046,107.31512221450976 L 108.36680502258241,107.93295085801219 L 109.5167404729873,108.35567349364283 L 112.92756622098386,108.66783680366643 L 113.81762926466763,108.47923825519683 L 115.90960235148668,108.69385038288601 L 116.6372452210635,109.06454298438621 L 117.09202193282545,110.07255986213568 L 114.95457120612264,111.204128365207 L 115.11049466766417,112.69986069033621 L 113.55126006156206,113.49324033955054 L 111.60871355980635,114.23458968134946 L 110.54973346740007,115.57420759607339 L 110.00400131754577,115.57420759607339 L 110.54973346740007,114.1565531186352 L 111.64119769074023,110.07255986213568 L 110.51075254380703,110.24164564152306 L 109.88705870136619,110.82694027599064 L 109.50374688394368,111.46425725462905 L 108.51623160764575,112.08856397688214 L 107.61967177130282,113.59078659406805 L 106.98298425972462,113.93544932753139 L 104.80005581304431,114.48170495913655 L 104.50769935548306,114.27360790090461 L 104.55317699536681,112.88845148831024 L 103.4941968228668,111.52278618024138 L 102.87050298042595,110.07255986213568 L 101.74655470624566,110.55380318463722 L 100.73305225372314,111.204128365207 L 101.04489917494357,112.02353220935038 L 100.57063199952245,113.67532663940801 L 100.73305225372314,114.48170495913655 L 101.46719183586538,114.85887976783852 L 103.18884669616818,114.89789775472309 L 103.46171277202666,115.57420759607339 L 102.51967521384358,116.35455967404414 L 100.47317976504564,117.0308600913122 L 98.27076093666255,117.4080257795722 L 96.86744979210198,117.25846029663808 L 95.06783316284418,120.94551508610311 L 94.93789695948362,121.56976582296193 L 94.11929881200194,122.13548994029406 L 93.72949012182653,122.13548994029406 L 93.55407627858222,121.3226669964497 L 91.96235754154623,120.52934587362688 L 89.92885576188564,120.94551508610311 L 88.02529018558562,119.51492685670382 L 86.2061831727624,117.7656817099487 L 84.33510164730251,117.25846029663808 L 83.5684779342264,117.68764776088938 L 82.84083514474332,118.42246484242787 L 82.32109025120735,119.32634790324664 L 82.10019868798554,120.28224466947722 L 83.22414696216583,121.38769304963353 L 83.9452929571271,121.81686408666428 L 83.32159911468625,122.31105884863064 L 82.43803286552429,122.72071872092783 L 82.10019868798554,122.71421613314305 L 81.97026248462498,123.3774717014312 L 82.10019868798554,124.55441516730934 L 81.6064410507679,124.89904265230871 L 80.93077277392149,125.00308098109963 L 80.41102788038552,124.95106182896416 L 80.06020011380315,124.67796099784027 L 79.91727024130523,124.12525496112357 L 80.92427597939968,122.23302827541193 L 81.19714197702706,121.049557098886 L 80.46300239302218,120.02864022973517 L 79.20262104086578,120.57486449681164 L 75.86326026916504,124.57392244235962 L 74.47294279374182,125.49075904226629 L 77.69536094926298,121.0755676064291 L 75.91523478366435,122.27204356901348 L 73.7842808496207,124.3398352334334 L 71.96517375856638,126.70019152169698 L 71.1465756110847,128.76139835982758 L 71.1465756110847,129.2035450461699 L 70.53587535768747,131.0306329895975 L 70.06810497492552,138.28668179787928 L 69.47039839066565,139.4569703037414 L 61.55078595876694,147.25860437049414 L 59.41333523020148,148.46781355989515 L 56.99002475850284,151.34776515804697 L 55.853082897141576,152.25789436827472 L 56.39881496876478,153.36304261896294 L 54.67066331394017,153.83110258274246 L 53.683148039504886,155.22227093111724 L 52.578690227121115,158.2645879060001 L 49.232832580804825,161.5538528337638 L 48.706590892747045,162.38590728658892 L 48.34276953712106,162.50941493916616 L 47.589139491319656,163.19195514578314 L 46.91347113624215,163.952496107755 L 46.809522189199924,164.31001386405842 L 45.958439910784364,164.6935319876793 L 46.14684742316604,165.4670651636261 L 46.73156042024493,165.98708513900056 L 47.08238818496466,165.6750734005036 L 47.67359797656536,164.21900941542117 L 49.13538042828441,163.08794925294933 L 50.94799064658582,162.50941493916616 L 52.578690227121115,162.6849255686393 L 51.980983562767506,162.08038787149417 L 53.020473351702094,161.65135946308146 L 53.59219267964363,162.08038787149417 L 54.20289293304086,163.76398635921942 L 54.6966504920274,163.76398635921942 L 55.29435715638101,162.08038787149417 L 54.47575892880559,161.6968625809095 L 54.28085462376475,161.33933797264763 L 54.20289293304086,160.7737972138857 L 54.47575892880559,160.28626015286136 L 55.02149108052254,160.63728705138783 L 55.43079015426338,161.25483200643794 L 55.29435715638101,161.5798546243459 L 59.38734797388315,161.5798546243459 L 61.60925726592541,161.0338162227854 L 62.72670874558389,159.70121346270025 L 62.52530764602125,158.06956961700052 L 60.75167827308178,156.62642588160816 L 62.219957519322634,155.15726340169203 L 64.86415955238044,154.71521131548798 L 65.06556065194309,154.24065374094062 L 65.16950959898531,152.25789436827472 L 66.7937123067677,151.17874040281458 L 67.24199230410159,149.82653471389494 L 67.6707818415016,149.17643068448524 L 68.1385522224009,150.19059153599665 L 69.2625004965812,150.61315611124155 L 69.52237290330231,150.87969618776697 L 69.30797813646495,152.30990158479835 L 68.78173644654453,153.90911245298048 L 68.0930745024234,155.02074750108295 L 67.339444456622,154.9882436905027 L 66.46887179650366,156.00235885902657 L 64.51333170756698,157.35450033514644 L 64.06505178846419,158.2645879060001 L 65.00059255026281,159.66871079463453 L 65.76071939058602,160.18875254660088 L 65.63727998174727,160.7152928524738 L 63.038555666804314,165.19405397982337 L 61.5572827514261,166.71510981764004 L 60.75167827308178,165.94808372946864 L 59.11448189802468,167.04011968364648 L 58.82862223312259,166.2925959800632 L 58.822125440463424,165.5320677557611 L 59.11448189802468,163.76398635921942 L 57.62021539546549,164.98604502965463 L 55.593210408464074,168.71065840111987 L 54.20289293304086,169.27616709604627 L 53.61817993596196,168.74965913279448 L 52.81907217204571,166.49410272104433 L 52.0589453317225,166.24709436658304 L 51.61716220714152,165.59707039767818 L 51.44824507832527,164.73253374600608 L 51.48722600378096,163.76398635921942 L 50.29181275330484,164.73253374600608 L 48.706590892747045,164.90804156369995 L 49.62913806736469,166.49410272104433 L 49.44722734950483,167.39112943255168 L 47.628120336681604,168.73015876827412 L 45.873981427401304,167.586134465324 L 44.69156184606254,168.00214440580748 L 44.01589348912239,169.5751708343305 L 43.80799551680684,171.94767838373082 L 44.288759564980865,174.95063301516348 L 44.288759564980865,178.24601411135518 L 44.14582969434559,179.11697079818987 L 43.21028893068433,181.81430559937144 L 43.21028893068433,185.09004306296993 L 41.87194588780403,188.404709906652 L 40.05283887684345,190.91991272185987 L 35.62851067632437,195.49527693758137 L 25.62991874292493,209.48061447558575 L 24.869791904464364,210.86479546576447 L 23.36902860738337,214.601387050614 L 22.99221358448267,216.2649610894441 L 24.057690551504493,214.13350449527206 L 24.869791904464364,211.7550851816195 L 25.85081030614674,210.36441191205813 L 27.397051321342587,208.63580449469737 L 28.631445417180657,208.7592769516632 L 29.878833102062345,208.21339819151035 L 30.872845171019435,207.27110377552162 L 31.691443318501115,204.74963163131906 L 33.562524843961,202.80001684937452 L 33.99131438136101,201.24031045971788 L 37.012331357225776,197.3279886120581 L 38.08430519886315,196.63260019393056 L 42.41118124499917,193.0126369730715 L 43.08035272732377,192.65518592156877 L 45.43219822272658,191.95327975947293 L 46.19232514128089,182.02879048323666 L 46.679585905745625,180.79387361563568 L 47.628120336681604,181.22284579447296 L 47.862005488947034,182.0417896037252 L 47.13436269946396,183.1337080025114 L 47.35525426082313,183.72516067547258 L 48.05690987408161,184.03063530997315 L 48.65461645834148,183.71866114425939 L 49.083405915647745,183.06221351858403 L 49.25232304446399,182.36026656370086 L 50.44773621484637,183.72516067547258 L 52.31881774030626,184.81056807206187 L 54.45626854710281,185.47350801416906 L 56.39881496876478,185.6359928486636 L 55.937541380524635,184.3881050053751 L 55.84008922800422,183.04271508274542 L 56.28836922720075,181.88580064629787 L 57.47728560306132,181.22284579447296 L 58.04250813648105,183.92014457237383 L 58.003527292981744,185.23952950249077 L 57.47728560306132,186.18194071864127 L 59.97206097096205,186.52640690785483 L 66.57931761816144,185.6359928486636 L 68.97664075158536,186.18194071864127 L 65.68275769986212,187.44931279070443 L 64.41587955318391,188.39821056213987 L 63.467345202341676,189.99702617515868 L 62.72670874558389,192.97364236497378 L 62.63575338758528,194.71539385968936 L 62.973587565124035,196.04119299222657 L 62.32390646636486,196.24266164367145 L 60.75167827308178,197.13302012658096 L 59.38734797388315,197.13302012658096 L 58.815628645941615,196.92505362414522 L 58.776647720485926,196.41813406554866 L 59.11448189802468,195.228817239622 L 58.99753928370774,194.40993868969963 L 56.39881496876478,191.06289473401557 L 54.566714288666844,189.75005565863103 L 52.39677950926125,189.10663074837066 L 49.7980551160872,188.90515379775024 L 48.23882050998509,188.59318894952594 L 47.628120336681604,188.90515379775024 L 47.186337212100625,189.49658555661154 L 47.08888505958021,190.7834298411326 L 46.52366244606674,191.95327975947293 L 46.52366244606674,194.13697829234297 L 46.19232514128089,194.53342062795127 L 44.288759564980865,194.95585820228735 L 44.14582969434559,196.21016672572296 L 44.78901399858296,197.0550327365927 L 45.958439910784364,197.52945572488534 L 47.35525426082313,197.67893122184614 L 48.02442582324147,198.1533525562263 L 48.16085882112384,199.2386679507763 L 47.83601823076606,200.36946866735525 L 47.08238818496466,200.99985453413683 L 47.08238818496466,201.50026240777515 L 50.343787267804146,202.09165179503907 L 50.98047469742596,202.87150305623072 L 51.337799336761236,204.38570504395466 L 52.604677403345704,206.7122235912102 L 52.34480499662459,208.08992539277824 L 50.88951933942735,210.86479546576447 L 51.318308874964714,211.35218080476625 L 51.39627064578235,211.7225929266424 L 51.08442372456193,212.07350902236067 L 50.343787267804146,212.50240569841117 L 50.3048064224422,210.91028478184307 L 50.88951933942735,206.73821806701017 L 50.66862777620554,205.88039900180593 L 50.083914859220386,205.08756274897314 L 49.29130388982594,204.502681534359 L 48.43372489698231,204.26872848150379 L 47.71257890202105,204.51567888224963 L 47.04990413412452,205.62045301223407 L 46.52366244606674,205.9063935894519 L 45.22430032864213,205.46448528167093 L 43.782008258625865,203.16394649120048 L 42.95691331848502,202.63104932103306 L 39.130291702225804,201.91618486162042 L 37.804942328482866,202.09165179503907 L 36.91487920470536,203.14445024976158 L 36.661503590643406,204.8211171007424 L 36.79793666861951,206.37429532823444 L 37.012331357225776,207.04365275740565 L 36.284688567742705,207.66101926978445 L 35.99882890470326,208.16790818001027 L 34.38112299144268,207.38807851348247 L 34.22519953176379,207.0761457762419 L 33.87437176518142,206.8681903139659 L 32.854372438043356,207.04365275740565 L 31.691443318501115,207.70650931888667 L 28.88482103124261,209.81203898202511 L 26.7018925845623,210.8193060595804 L 26.000236973166466,212.14499191739014 L 25.805332666262984,213.76959516841453 L 26.35756161250174,215.22522883224883 L 25.766351820901036,216.2649610894441 L 27.319089632481337,217.3956640803517 L 26.942274529486895,219.25416309620778 L 25.56495064124465,221.13863898043928 L 24.083677807822824,222.30830565502401 L 25.084186671301723,219.9039841220365 L 24.34355021454394,217.0252620169631 L 23.83679898828268,217.10324148960353 L 23.576926581561565,217.96101334581908 L 22.99221358448267,222.85414809342183 L 21.64087687432766,226.36310406595294 L 13.721264520660043,236.53879055699508 L 15.793747145682573,234.5764611637278 L 16.937185883522034,234.01764945028117 L 18.132599053904414,234.40751816923148 L 16.995657190680504,234.9013511085359 L 17.469924366101623,235.97348524477275 L 18.132599053904414,236.88966910280578 L 18.76928648352623,237.48746115043468 L 19.17208876274526,237.61741575850465 L 18.23654800094664,238.0332701834559 L 15.8976960927248,236.44782195844164 L 14.5203722063452,236.79870062305417 L 13.994130516424775,238.07875418034382 L 13.487379290163517,240.04755586344982 L 12.88317591138184,241.4120637903252 L 12.09056494012475,240.89225200159126 L 11.499355148524046,240.89225200159126 L 10.817189998924732,243.73820998620067 L 10.401394132524729,244.71284673575428 L 9.19298729300499,246.77256873097213 L 7.08802061714232,251.53521786199417 L 5.379359345883131,254.45254999127064 L 4.320379173383117,258.65632451586134 L 1.8645846508443356,261.826991672875 L 0.0,267.70695392585185 L 1.0849673487246037,269.38321589067345 L 1.6761771403253078,268.7984740320244 L 0.9680248145014048,267.25865028603585 L 1.8385973945260048,266.5699510152481 L 4.411334533244371,266.06966878702224 L 3.982544995844364,264.86119240171683 L 4.411334533244371,263.9320926111686 L 6.1264925971627235,263.9840703022928 L 7.328402642160654,262.03490331697685 L 7.997574122622609,259.3060535375844 L 8.361395556479692,255.9664342989272 L 8.816172270104289,254.79691050174006 L 9.589292777702212,253.86128868775268 L 10.700247464701533,253.48444030436804 L 11.323941305279732,252.938659181993 L 11.492858355864882,251.76262771102483 L 11.882667046040297,250.6515665359184 L 13.182029163464904,250.26171967007394 L 12.48037363216281,251.62618175639363 L 12.55833532102406,252.96464871444914 L 13.182029163464904,255.9664342989272 L 13.610818699002266,257.0969702706352 L 14.676295666024089,257.18793278983503 L 16.079606810584664,256.87606122356374 L 17.48291795514524,256.79809325025417 L 17.48291795514524,257.343868472919 L 16.703300653025508,257.7077180886845 L 15.884702505543828,258.3509514765901 L 15.33897035382688,259.18910237873206 L 15.358460815623403,260.12471048322914 L 15.943173812702298,260.6444918039633 L 16.71629432030022,260.579519187042 L 18.639350280165672,259.66990124149015 L 19.431961249560118,258.545870436079 L 20.02966783568263,257.1814354849048 L 20.270049860700965,255.9664342989272 L 20.87425323948264,254.38107892192784 L 23.758837217465043,251.6911560768931 L 24.674887597560883,250.26171967007394 L 24.71386844292283,248.65034744852164 L 24.16163949854672,245.84342140005901 L 24.674887597560883,244.71284673575428 L 25.22061966918409,244.71284673575428 L 25.56495064124465,246.20728364751267 L 25.766351820901036,251.05440785772225 L 26.201638152822852,252.56180969969137 L 28.105203729122877,254.64747105856077 L 28.53399326466024,255.9664342989272 L 28.33908887952566,257.51279868798156 L 28.4560314938426,257.80517783015966 L 29.508514871820807,258.7342920162191 L 31.262653782963753,259.48148012836464 L 31.477048551663756,260.3066340290534 L 31.321125090122223,261.15127787567326 L 31.41857724264264,261.852980574462 L 32.354118006303906,262.25580936987535 L 33.44558222964406,260.12471048322914 L 33.28316197544336,261.9829254560609 L 32.354118006303906,263.25638234887447 L 31.691443318501115,264.58831014497264 L 32.354118006303906,266.66091136581963 L 37.077299458906054,270.8840499118669 L 38.51309473440051,273.75576266503776 L 45.65308978408575,281.61715988580545 L 47.628120336681604,284.70321771323506 L 48.77155899442732,288.0101572684507 L 48.706590892747045,298.3272076902067 L 49.304297557100654,300.00339438574156 L 51.10391410626471,303.57665427612665 L 51.48722600378096,305.18786737378105 L 51.980983562767506,308.7351310742524 L 50.88951933942735,311.5125190446561 L 50.98047469742596,312.5097796663322 L 51.227353516966105,313.4615624711878 L 52.66964550502598,315.8296500590659 L 51.980983562767506,317.7786936087359 L 51.87703461572528,319.48410709548625 L 49.07041232660413,334.59900091873715 L 48.16085882112384,337.17176610913884 L 48.97945696860552,340.44620494572155 L 51.87703461572528,342.94102431007195 L 52.74111048132181,343.1684170857625 L 53.514230988919735,342.6031836963375 L 54.20289293304086,341.0439213417849 L 54.534230237826705,339.0915992249793 L 54.37180998176336,337.4738715070562 L 53.60518626868725,334.50154783320613 L 53.75461293384433,333.5724954213656 L 54.11193757504225,332.69541871655383 L 54.150918420404196,332.03598741738824 L 53.332320272922516,331.7793615566479 L 52.916524324566126,331.4350281871448 L 52.76060086488724,330.64241205813596 L 52.825568966567516,329.71661115190363 L 53.05945419706404,328.99546129247756 L 53.75461293384433,329.6354005398898 L 54.67066331394017,330.93477044154133 L 55.56722315214574,331.1784023723885 L 58.17894113622606,331.1589118608972 L 58.56874982640147,330.90553460019873 L 58.99753928370774,329.8757838950987 L 61.08951237052679,327.82927840799675 L 61.830148827284575,326.27653477816784 L 62.10301490314305,323.25551011401694 L 63.26594402268529,322.38818450637336 L 63.818172968924046,322.3979297120677 L 64.06505178846419,323.25551011401694 L 63.62326866388321,326.6728416130645 L 63.71422402188182,328.1086424823734 L 64.55880942568183,329.5444446888432 L 68.50887037068605,328.4334844559198 L 69.52237290330231,327.9072405092156 L 69.95116244070232,327.0301674682414 L 70.62683071568608,324.2592694965715 L 71.1465756110847,323.5023893942707 L 71.49740337580442,324.0546194672497 L 73.74529992416501,326.2895284892875 L 74.47294279374182,326.81577199403546 L 75.68134955316782,326.75405206803407 L 76.38300516456366,326.2635411469819 L 77.20160331204534,324.6393338088383 L 81.17765159346163,325.3020102201408 L 84.08822282962501,322.3492035242525 L 86.53752055764198,318.4868461545411 L 89.1427416652441,316.4143630912149 L 86.21917676180601,321.7547445336968 L 85.07573810592294,323.25551011401694 L 84.86134333722293,324.56137185005355 L 86.4205779414624,325.27277448558016 L 88.48006697930396,325.1753220668179 L 89.7339514568448,324.04487425484695 L 90.71496985852718,324.6588242391299 L 92.18974597938359,326.5753891200584 L 93.05382176488638,327.4134808389499 L 95.86044405400753,329.1871182509203 L 96.86744979210198,329.5444446888432 L 98.15381832234561,329.5217057070404 L 100.486173434183,328.6641223714396 L 101.7790387570858,328.40100025544234 L 102.9549615457654,328.5049497633154 L 106.1838765759021,329.5444446888432 L 106.1838765759021,330.14215462050925 L 102.17534424178302,330.05119873571675 L 100.60961284302175,330.5059782216849 L 99.05037823878229,331.7793615566479 L 97.82248093746603,330.9672547016089 L 96.3412081040442,330.2526010888396 L 94.76897983066738,329.73935005706153 L 88.6035063881427,329.36253300447424 L 87.5510230101645,328.99546129247756 L 83.95828662440181,330.22011684658355 L 81.099689822644,332.35758192632056 L 78.56593361124396,332.27312280389015 L 77.7083545383066,332.6791766031529 L 73.88822979666293,335.5410479681159 L 71.12058835290372,337.18151141982526 L 69.97714961692691,338.3542009365192 L 69.52237290330231,339.9491910898214 L 68.97664075158536,339.9491910898214 L 68.52186403982341,338.977903456107 L 68.06708724610507,338.69203967905196 L 67.06657838262618,338.8609591794666 L 64.06505178846419,337.76623176780413 L 63.428364276885986,338.68229435190733 L 62.95409710146487,341.5279419846338 L 62.10301490314305,342.1321561995428 L 60.97256983444095,343.27236807649024 L 57.145948220044374,352.05303957000433 L 56.13244576752186,353.5538553898223 L 53.91053639538586,356.058473034238 L 52.42276676557958,356.7893949456047 L 49.772067937999964,356.74066675288486 L 48.706590892747045,357.9881091158022 L 48.641622791066766,359.15758930410084 L 48.95996658504009,363.55616082591587 L 49.525189120322466,364.527490922148 L 53.05945419706404,365.0765045378794 L 56.39881496876478,366.7105555108719 L 57.464291935786605,366.8469974071486 L 58.867603078484535,366.3629536819062 L 59.95257050730288,366.21351745205175 L 60.60874840058386,366.3824453160487 L 61.6872190348804,367.1361244783475 L 63.149001486599445,367.70463348244084 L 64.40288596600294,368.4940500958328 L 65.81919069774449,369.1080419493228 L 67.339444456622,368.94236146335606 L 68.64530344866216,367.64615822919586 L 69.23651324026287,365.8041924643476 L 68.95065357536077,364.15715074130276 L 67.61231053248048,363.4359629287501 L 64.14301347732544,364.1766423510562 L 62.44734587520361,363.9622350126738 L 61.34938485734165,362.34768629432074 L 63.1944791264832,362.91294007086253 L 65.53333103470504,362.77000222903735 L 67.40441256016493,361.7402016752021 L 67.88517653010786,359.62538217585825 L 68.83371096104383,359.927498600955 L 69.53536649234593,360.4830036291096 L 69.95116244070232,361.29514667970943 L 70.06810497492552,362.34768629432074 L 71.02963299490511,361.0677465004119 L 71.17256286740303,358.741773756803 L 70.75676691904664,356.4580435369717 L 70.06810497492552,355.2593330560485 L 70.82823189534247,352.98861258993566 L 71.4714161194861,352.2901811441552 L 72.83574641868472,351.99456629880297 L 72.48491865210235,353.25823978194967 L 72.49791224114597,354.88250323828834 L 72.88772093318403,356.302113552636 L 73.60237013362348,356.8965968746925 L 74.10912135988474,357.60802869778126 L 74.92771950736642,361.07424363083555 L 75.56440701708198,362.34768629432074 L 74.47294279374182,363.9329976531444 L 74.20007671788335,365.57678980889614 L 74.47294279374182,369.4881326059549 L 73.6543445661664,378.9482960442547 L 70.82823189534247,386.44644904696906 L 70.60084345936775,388.36650024109986 L 70.25001569278538,389.6497904379212 L 69.57434741780162,390.47174908962916 L 69.1325642131269,391.40417150726716 L 69.52237290330231,393.02535956163774 L 70.52288176864386,394.72453113339725 L 71.56886835210025,395.5205140154285 L 72.7382942661643,395.75443592941156 L 74.18058625608683,395.75443592941156 L 75.59039419330657,396.1540531073115 L 76.36351470276713,397.11573600668635 L 76.90924685262144,398.20738046483893 L 77.69536094926298,399.01961900974857 L 79.13115614466369,399.26654006184253 L 83.78936949558556,399.14307950498187 L 85.07573810592294,398.7467065417295 L 86.14771186560392,396.99877436053066 L 86.81688334792852,393.580919183456 L 87.5510230101645,391.8850037879456 L 88.51893518865108,394.24333234249207 L 90.89285317063332,393.9697462270269 L 92.13049566186965,393.51587591625866 L 93.45064760185778,392.5833812963683 L 95.52163599617779,390.21502436451556 L 96.84178793430328,389.1917683813517 L 98.25270036049187,388.5893694782135 L 99.67186366580427,388.37481678991753 L 100.94250992126763,388.65538582102454 L 101.8831182308495,389.5713628990925 L 102.17190145328641,390.619376506118 L 102.18015241250396,392.9836109178723 L 102.60095092467964,394.1512945540744 L 106.48714825510979,394.65467923400865 L 210.8204082865268,394.30808635932044 L 210.29234744608402,484.4166390451719 L 209.68177716061473,487.47782685131824 L 210.19333599880338,488.3200283295737 L 210.50687218271196,489.2571906568628 L 210.78740444406867,492.5435099978349 L 211.9095335677266,494.29817782620376 L 212.38808872364461,495.4211791148409 L 212.25607351399958,496.4822601575288 L 211.89303172565997,497.5227071147674 L 212.04154877737164,498.24937416061584 L 233.3537521287799,499.0338493793097 L 236.43960731849074,500.0 L 237.55348556302488,499.8802628979611 L 238.3373257815838,499.43434672334115 L 239.96276294253767,498.10073732303863 L 244.063484929502,496.7547572946787 L 245.29287645965815,496.61850860541745 L 248.00743890367448,496.9900961678941 L 255.00424430519342,496.77127223293064 L 261.1016962006688,497.3038821631053 L 267.14964241348207,496.924036063574 L 271.84443284384906,497.2832383349014 L 273.2883490305394,497.2295644149417 L 276.5144703928381,496.7175985524809 L 279.97986929118633,496.56896378376405 L 281.5723026096821,496.87036231174716 L 284.64165595918894,497.89842644531745 L 287.0509333387017,498.34433658845956 L 288.71762514300644,499.2361621965392 L 289.47671256028116,499.3269967216329 L 290.46682647429407,498.96778801198525 L 293.08237754926085,497.36994248631527 L 294.52629373781383,497.0768001774559 L 298.92404998652637,498.08422211307334 L 301.9934033341706,497.87365367518214 L 307.82682489044964,495.9868125281937 L 309.6915395092219,496.420329127257 L 310.9621857646853,495.46246610718663 L 312.86815518699586,494.7605888389953 L 323.6686483938247,493.14628710270335 L 325.2858345936984,493.46419136408076 L 327.31556826643646,494.9092213609547 L 328.3221841007471,495.33034776757995 L 329.6835908424109,494.9463794412877 L 331.50705073960125,494.15367478644475 L 333.0829821359366,493.8068683016754 L 333.7678109873086,494.78123221569695 L 334.88994011096656,494.31882120070804 L 335.90480690822005,494.2362479643052 L 336.81241145543754,494.5706698176509 L 337.62925543636084,495.33034776757995 L 340.03028185479343,494.46745307793026 L 341.4164413996041,494.2362479643052 L 343.3884184267372,495.0083097614115 L 344.66731556132436,494.7110446540173 L 346.90332300774753,493.74493854089815 L 350.3027143031359,494.1701894333237 L 351.06180171854794,494.4839677692944 L 352.66248591803014,496.02397103450494 L 353.5865923073143,496.6886973257497 L 354.2796721197665,496.9653236742597 L 356.71370230056345,496.85797607716813 L 358.9414587877691,496.420329127257 L 360.0553369503468,495.5574263892777 L 360.5833977907896,495.33034776757995 L 361.3259832058102,495.32209036138374 L 363.02567885257304,495.92488176419283 L 363.92503236047924,495.5574263892777 L 366.35906262136996,493.58805030136136 L 367.11814995855093,492.65085376745265 L 367.4564389437437,491.4783362535527 L 367.1264009978622,489.07553745979385 L 367.15115380100906,487.10214088478824 z" /><path fill-rule="evenodd" fill="#D2EBD9" stroke="#A6A6A6" stroke-width="0.25" opacity="1" d="M 24.083677807822824,264.4323773584765 L 26.974758660420775,263.80864562843635 L 27.6179428845644,261.0603163112537 L 27.325586427003145,257.68822620116407 L 27.397051321342587,255.16076277886168 L 25.98074658960104,254.21864458244818 L 24.830811059102416,253.69235673519142 L 23.739346835762262,253.77032531441364 L 22.491959150880575,254.61498422156728 L 21.79030353948474,255.66755633939465 L 22.004698308184743,258.98118912692007 L 21.64087687432766,259.66990124149015 L 20.542915856465697,260.82641502561455 L 20.270049860700965,261.7100412753498 L 20.270049860700965,262.5936654738762 L 20.44546370394528,263.2044046455121 L 21.36151408404112,264.4323773584765 L 22.25807392038405,265.2835097576899 L 23.99272244796157,266.34255001584825 L 24.674887597560883,267.20667299305205 L 25.10367713496089,266.4140189529571 L 25.13616118580103,265.75780424580444 L 24.772339751943946,265.2835097576899 L 24.083677807822824,265.0236222039239 L 24.083677807822824,264.4323773584765 z" /><path fill-rule="evenodd" fill="#D2EBD9" stroke="#A6A6A6" stroke-width="0.25" opacity="1" d="M 54.383575743064284,379.2034784453863 L 54.96635526791215,379.1749700950313 L 54.61166327446699,378.96282809482364 L 54.383575743064284,379.2034784453863 z" /></g></g></g></svg>