<svg xmlns="http://www.w3.org/2000/svg" xmlns:xlink="http://www.w3.org/1999/xlink" width="342.0725941900164" height="500.0" viewBox="0.0 0.0 342.0725941900164 500.0" preserveAspectRatio="xMinYMin meet"><g transform="matrix(1,0,0,-1,0,500.0)"><g><g><path fill-rule="evenodd" fill="#D2EBD9" stroke="#A6A6A6" stroke-width="0.25" opacity="1" d="M 164.65969578921795,200.6677673792001 L 172.43235742859542,184.56987664289773 L 174.09253806248307,170.7890486039687 L 170.80990899540484,124.16371145262383 L 168.5837583448738,117.52570467023179 L 164.5087697710842,110.96505595860071 L 158.32082529179752,96.45504639390856 L 158.62267640046775,89.04600076796487 L 163.8296050094068,73.53401338704862 L 161.4902605395764,70.60150519222952 L 156.66064558550715,68.36356129660271 L 153.94398653507233,62.768787822453305 L 152.81204557418823,55.36072545568459 L 152.510194465518,47.605641348985955 L 147.3787284027785,39.11776050948538 L 107.64759629406035,18.207915021805093 L 107.64759629406035,25.267689250642434 L 99.72400863468647,21.37128741759807 L 93.80018399097025,16.047585825202987 L 90.02704745344818,8.94949077675119 L 88.63098665513098,0.0 L 79.99050296284258,1.6201428598724306 L 71.65187037736177,4.204678328009322 L 63.76601399295032,7.792211479274556 L 56.44612855091691,12.305630694143474 L 46.86236118711531,3.8575003447476774 L 31.128379689529538,0.5400471102911979 L 13.88514357432723,1.42726862244308 L 0.0,5.246215110179037 L 32.14712683297694,26.000682501820847 L 38.03322020359337,31.748966121813282 L 41.315849270671606,45.59938888740726 L 38.63692242093384,56.71113678836264 L 34.071426374837756,67.6304460002575 L 31.618887159973383,80.5953231912572 L 36.599428134039044,101.70325225102715 L 55.84242633357644,138.9068851112388 L 56.44612855091691,155.34924040548503 L 110.40198661573231,221.20662168506533 L 129.83364210650325,224.68140690168366 L 151.0009398497641,221.82435796945356 L 171.074027903378,209.16107493219897 L 170.47032661363482,206.22699069045484 L 164.65969578921795,200.6677673792001 z" /><path fill-rule="evenodd" fill="#D2EBD9" stroke="#A6A6A6" stroke-width="0.25" opacity="1" d="M 336.1110373456031,428.6975680314936 L 319.77335455827415,433.56634440342896 L 304.1148365326226,429.1612566469703 L 288.64497487060726,421.16274581849575 L 272.87326209805906,415.13505463674664 L 276.0804286208004,420.93090940173715 L 282.30610529892147,435.8848429939244 L 285.4755396209657,441.6811859514564 L 282.60795548185706,442.14489901950583 L 272.87326209805906,441.6811859514564 L 274.2315916232765,445.46820332156494 L 279.702640067786,454.6654889343772 L 299.73799777776003,448.559689136222 L 311.7365730814636,464.94521450647153 L 321.81084884516895,487.4770977096632 L 336.1110373456031,500.0 L 342.0725941900164,484.46242067264393 L 340.4878761023283,467.1867156580556 L 336.7147395629436,448.4051143026445 L 336.1110373456031,428.6975680314936 z" /></g></g></g></svg>