<svg xmlns="http://www.w3.org/2000/svg" xmlns:xlink="http://www.w3.org/1999/xlink" width="500.0" height="255.20471226610243" viewBox="0.0 0.0 500.0 255.20471226610243" preserveAspectRatio="xMinYMin meet"><g transform="matrix(1,0,0,-1,0,255.20471226610243)"><g><path fill-rule="evenodd" fill="#D2EBD9" stroke="#A6A6A6" stroke-width="0.25" opacity="1" d="M 116.65366888418794,136.04988512955606 L 112.8511045947671,159.72446033265442 L 111.5531605090946,163.7451749369502 L 109.6608307491988,167.13694171607494 L 107.19837596826255,169.7955155307427 L 104.15366595052183,171.55888502206653 L 98.47667667269707,172.61218698881567 L 97.26364475116134,173.29382929205894 L 96.06274319067597,174.40527129732072 L 94.26139081455767,175.41358947753906 L 92.36906105652452,176.13273481000215 L 90.87703184224665,176.3476677397266 L 90.00971402041614,176.09140239376575 L 88.51161958649755,175.165627325885 L 87.56545474380255,174.96726470720023 L 86.77091879956424,175.45491743739694 L 83.3804946821183,180.63132711872458 L 81.67011968791485,186.892544683069 L 78.57688836939633,192.30631264206022 L 77.29713971540332,195.2243135003373 L 75.45333125628531,195.17041767574847 L 72.51779405400157,193.83975154161453 L 70.63759458251297,194.4863951485604 L 68.41774622909725,197.9114029686898 L 67.11980206891894,198.70779916644096 L 67.09554149210453,199.23048923909664 L 65.34877556189895,202.25963268242776 L 64.83930212818086,202.67469805292785 L 59.40491920337081,204.82933019660413 L 51.93870791234076,205.8633191054687 L 48.46337155625224,205.67644104827195 L 46.061568362638354,205.0660113627091 L 45.15179445967078,204.97881201747805 L 44.26628112979233,205.3027014909312 L 42.83490350469947,206.74795138277113 L 42.07675857283175,207.0677788509056 L 39.814454136416316,209.2280814629048 L 39.074504636228085,209.5023270510137 L 36.70909245684743,209.9178738091141 L 30.72884516045451,212.81084502488375 L 27.96313243545592,213.13098312355578 L 26.022281451150775,210.61605446133763 L 25.270201662555337,211.4306973433122 L 24.17240777425468,214.17882271204144 L 23.480979647487402,215.50134750828147 L 21.788800086826086,217.2235452439636 L 21.04885066114366,218.33449028711766 L 21.376369254663587,221.56859175302088 L 20.21185863390565,224.57943743187934 L 18.574265591800213,227.34586738049984 L 17.37336403131485,228.84208488557488 L 15.074668584391475,229.92175205331296 L 10.992816265672445,231.1558867143467 L 8.597078217193484,233.57066247053444 L 7.523544978350401,234.09628191962838 L 4.084599560126662,234.65949492994696 L 1.7737738247960806,235.61916055623442 L 0.0,236.01204447541386 L 0.39561847038567066,237.78944768756628 L 5.456326965242624,251.02494369540364 L 6.473090291023254,252.6561264079064 L 8.252426076680422,253.84657617285848 L 13.290026282891631,255.20471226610243 L 18.42005949281156,255.19673806149513 L 36.80652976222336,248.30548906885087 L 39.772089501842856,247.9390912251547 L 42.09832076355815,248.5630426313728 L 46.92024383880198,251.09135150536895 L 49.63161278516054,251.41277554258704 L 51.80378894135356,250.29184825718403 L 56.2097634319216,246.92231795098633 L 63.850893907248974,244.26303557958454 L 66.25415272079408,242.8515841504559 L 76.452597187832,234.62008860707283 L 78.74031463451684,234.04786829277873 L 86.50468916259706,235.07578322757035 L 89.04659755527973,234.5459089251235 L 91.45755912922323,233.3247205298394 L 93.75297934003174,231.4205689644441 L 96.34880692139268,230.29265406914055 L 101.67911166138947,231.33318807650357 L 103.94372089579701,230.45415046438575 L 104.62156318686903,229.4402342075482 L 105.66913756541908,227.04772907029837 L 106.36238523386419,225.99997435044497 L 107.44077058695257,225.1719493176788 L 111.33066065050662,223.94730930496007 L 113.29486258886755,222.77579470165074 L 116.60704612731934,219.3471408104524 L 118.6174645666033,218.22405208460987 L 121.34423896297812,217.99153193458915 L 126.8054905179888,218.72611369285733 L 129.51685938984156,218.42222949117422 L 134.36959351599216,217.02455248776823 L 136.71123030222952,216.78679356072098 L 141.9028855394572,217.37856572400779 L 144.09046722203493,217.26760426908731 L 146.2472379282117,216.6679174946621 L 148.58887471444905,215.5004109730944 L 150.94591695070267,214.80582195147872 L 153.33377031236887,214.67377951741219 L 155.71392083726823,215.15442729834467 L 162.01477240398526,218.6785483090207 L 163.91735231503844,219.26521452795714 L 176.5267582088709,220.34355585742742 L 181.61827767826617,219.62464088015258 L 185.8547915406525,216.75245134159923 L 187.81899347901344,214.7741314759478 L 189.96806142292917,213.08948838431388 L 194.51268534176052,210.53170704841614 L 195.95310009270906,210.22030475828797 L 197.0083772316575,210.65838369447738 L 199.01109283417463,212.55092101264745 L 200.3051553182304,213.17397376708686 L 202.63908934220672,213.22941796202213 L 206.11303067207336,214.3040756462142 L 209.07859041169286,214.22485617920756 L 211.9440143853426,213.46704127267003 L 214.0237575415522,212.10742985177785 L 216.118906294927,210.1041925549507 L 218.28337976522744,208.68463214486837 L 224.6381505932659,206.30798637121916 L 224.64585335552692,204.94993204064667 L 224.07584966532886,203.26266411691904 L 223.86787537299097,201.61538057774305 L 224.545717516914,200.54817255586386 L 228.22763328813016,197.97444663662463 L 236.22694181650877,190.37798583414406 L 239.11547400429845,188.7866861699149 L 263.1942784842104,182.0419555157423 L 268.3243116196245,179.5178316021338 L 269.57215760089457,178.41762065514922 L 272.6532585583627,174.737646587193 L 274.0320513546467,173.85078536346555 L 280.9722313247621,172.15350335929543 L 284.29982046224177,170.4619237370789 L 285.13171770982444,167.4994772709906 L 283.4140038769692,165.04668294638395 L 280.81047353334725,163.17890253849328 L 278.7153248526156,161.1257690275088 L 278.48424227163196,158.13368660584092 L 280.6102020032704,155.48832944128662 L 283.96860204078257,154.58586487174034 L 287.6081526558846,154.30338079854846 L 290.61607755348086,153.51092348899692 L 293.258121708408,151.4766206080094 L 294.66772533394396,150.77862398792058 L 296.06192358210683,151.00082423072308 L 297.16341722384095,151.97075464576483 L 299.01207779720426,154.53878329787403 L 300.01728701777756,155.64790904521942 L 303.26399718411267,157.16542516183108 L 310.40059748850763,157.5056082783267 L 313.87068747356534,158.56290946062654 L 316.31246002577245,161.0655468897894 L 317.69125267490745,163.92280487064272 L 319.43207479454577,165.98995229415596 L 326.0410364922136,166.12883438821882 L 329.0759209468961,167.119441177696 L 334.87609368748963,170.2416584920138 L 337.02901297435164,170.85002891346812 L 340.7686993535608,171.13587858900428 L 343.94993614964187,170.73202150221914 L 347.0387399420142,169.73298019263893 L 349.7963253892958,168.149523046799 L 350.9594409838319,167.19020478520542 L 353.15472542867064,164.83970664348453 L 354.0405420139432,163.4722619354725 L 355.88149982504547,157.5631795534864 L 356.80583014898,156.5923892268911 L 357.46441542357206,157.30149624682963 L 358.66989624872804,162.88293762411922 L 360.8266669549048,167.57024504896253 L 361.29268353432417,169.20599074009806 L 363.20681755430996,171.78630017209798 L 366.45737906359136,171.1332559781149 L 374.5914858262986,165.272006704472 L 375.9086564499885,164.6091587645933 L 377.2720436472446,164.31836608517915 L 378.68164734728634,164.57772102952003 L 381.4315300323069,165.80390736833215 L 382.8526879120618,165.97947073355317 L 385.26750075630844,165.0650229966268 L 387.41656877472997,163.1972371507436 L 394.75729195587337,154.23799270112067 L 395.57378367707133,152.8728453014046 L 396.9833874516189,149.7173986081034 L 397.7382571455091,148.54398529138416 L 400.21854351088405,147.51710072066635 L 403.3920775447041,147.96389258001 L 409.4079272635281,149.7801262587309 L 413.69836046360433,149.68080791831017 L 419.94529276527464,148.57011683098972 L 425.7608709540218,146.26572908554226 L 428.811160935089,142.6149166021496 L 428.5723755918443,140.1978702461347 L 419.9992120284587,117.7082677911967 L 420.74637903645635,115.36308337934315 L 422.9955827444792,113.90752827748656 L 425.99195353500545,112.50427273567766 L 434.17612806893885,106.74896684195846 L 439.37548606842756,105.39660187065601 L 440.40380350127816,104.3766777087003 L 442.5143577065319,99.13170814979821 L 443.30774121545255,98.01427286211401 L 444.3090990167111,97.45433248672634 L 445.711000027135,97.36879038624465 L 446.2424899786711,97.57875938899815 L 447.2284423299134,98.35648277588189 L 447.85621662810445,98.51203883439302 L 450.20940751954913,96.8400100665167 L 451.55738919228315,96.93332097958773 L 452.57415251992643,97.19511745125055 L 453.30591400153935,96.69227038696408 L 453.80659297667444,94.50249656941742 L 455.6090370491147,93.65788529347628 L 457.896754572168,93.60089108441025 L 463.5813859459013,94.7641933253035 L 464.93707038089633,94.50249656941742 L 466.8858667947352,92.92218003887683 L 470.14027972333133,89.00416397117078 L 472.262388035655,88.04121273290366 L 476.69147081300616,87.66331984568387 L 478.51702309958637,86.64105044491589 L 480.3310213536024,84.17792357504368 L 477.48870566673577,78.29819761309773 L 475.89038454182446,75.698774529621 L 472.6860394589603,71.7732163304463 L 471.5999513436109,70.79736514762044 L 470.409876042977,70.21399076934904 L 468.85777149535716,70.06428371090442 L 465.36842456646264,70.86448246520013 L 463.74314373731613,70.68378370814025 L 462.3027290608734,69.14804966934025 L 461.59792713820934,65.72687891311944 L 461.6325895320624,60.665549740195274 L 462.583879487589,56.179951595142484 L 464.5904465094209,54.49833694193512 L 465.245180439204,55.039083858020604 L 466.10788881219923,56.71053695585579 L 467.1400575879961,56.75174925196916 L 468.96560994908214,53.0128042595461 L 469.670411799103,48.40648675709963 L 470.33284849114716,46.24085520487279 L 471.61535679362714,44.58497260324657 L 475.5129496958107,41.88093622028828 L 476.3833606801927,41.474914629012346 L 477.90080290846527,41.09975278470665 L 481.3901498373598,37.842415522783995 L 488.6461427025497,34.76640938501805 L 492.3049501851201,32.574558049440384 L 493.48347137868404,29.80372599232942 L 494.63888420909643,30.260318354703486 L 495.2474016379565,29.855026869103312 L 495.7480806130916,29.003484553657472 L 497.1884952876717,27.38278599549085 L 499.53013207390904,23.78382588084787 L 500.0,22.338653123937547 L 499.7689173426479,22.21567463222891 L 499.1526972260326,22.30790833104402 L 498.4979632217437,21.53421100601554 L 498.11282561160624,18.384014079347253 L 496.24875943921506,16.213062659837306 L 495.5247007198632,13.54645025357604 L 495.1318603474647,10.149515255354345 L 494.5079373922199,6.969058747403324 L 493.0675227176398,4.9347926480695605 L 491.60399975441396,4.699717518873513 L 490.18669321760535,5.0881070932373405 L 488.7270215973258,5.231203925795853 L 487.1518086884171,4.23981252964586 L 486.31220867857337,2.655944583006203 L 485.89626001752913,1.1031067352741957 L 485.241526087746,0.07149198465049267 L 483.6123939137906,0.0 L 482.27596634812653,0.8222052846103907 L 480.19237177446485,3.641984775662422 L 478.9714854992926,4.720158522948623 L 474.5347001068294,6.171632333658636 L 472.9864467550069,7.0968605717644095 L 468.59587786346674,11.09577173832804 L 466.43140439502895,13.81255046185106 L 465.252883201465,14.969189488328993 L 463.912604290992,15.440092844888568 L 458.3088518138975,15.414499409496784 L 456.6489086635411,15.030609803274274 L 452.7898296508938,12.543555548414588 L 451.3186038490385,12.0012382613495 L 449.5161597765982,11.837528732605278 L 445.91897432133555,12.282623562030494 L 434.8578217048198,16.29497225768864 L 429.66616646945477,19.485128260217607 L 426.58506543934345,22.13369033485651 L 424.8057295810431,24.96275190357119 L 426.4618214610964,27.034081226214767 L 428.17183252982795,27.64432693645358 L 429.23481235839427,28.22898609470576 L 429.1423793565482,28.84447394590825 L 427.4015572350472,29.54209769051522 L 422.5488231088966,30.532237131148577 L 411.83429436571896,34.72533736098558 L 409.4079272635281,37.020634366199374 L 408.32954191043973,38.26361888833344 L 407.22804834507406,38.46395710017532 L 404.7631675042212,37.70886898599565 L 403.26113080233335,37.575325212441385 L 402.10186647996306,37.80646041035652 L 397.122036954388,40.39574093092233 L 394.68411582149565,40.52420443948358 L 392.2924111895263,39.686667919158936 L 373.8674271069467,24.3886394277215 L 372.94309670850635,23.794076597318053 L 371.2561939265579,22.26179131772369 L 370.34726912900805,21.636682100594044 L 367.5203589666635,21.544457962736487 L 360.3259880542755,22.6922295242548 L 358.87787061557174,21.221683924086392 L 359.49409080669284,19.823182301595807 L 362.29018999263644,18.47107217181474 L 363.08357349969447,17.339408989064395 L 362.3441091813147,16.30521093029529 L 360.3876100797206,16.039008498191833 L 349.4612555503845,16.26425603684038 L 346.3454921990633,17.508377783931792 L 344.8357526604086,17.71319435443729 L 343.233580192551,16.98612476233393 L 342.27073612995446,15.701151915825903 L 341.3618113324046,14.129838015884161 L 340.2641690336168,13.147320561110973 L 338.7351727001369,13.587388082407415 L 337.66449010930955,16.100438850931823 L 336.86340383812785,16.07484280783683 L 334.87609368748963,14.017250291071832 L 333.0659468509257,13.490161210298538 L 331.3905981015414,13.607857093214989 L 329.76146600209177,14.206603413447738 L 325.7868456989527,16.62774019688368 L 324.8663667179644,16.735253386199474 L 323.9844015520066,16.44855524599552 L 322.8405427541584,15.281415114179254 L 322.15114642865956,14.81052328273654 L 320.39877027645707,14.51879221946001 L 319.0199775528163,15.04596492368728 L 315.41508940793574,17.5595812946558 L 313.3931168615818,18.399377146735787 L 312.5997332781553,18.389135064557195 L 311.7139167673886,17.759278992190957 L 311.471280079335,16.18234692607075 L 311.08999381400645,15.214873941615224 L 309.91917538270354,14.042838212102652 L 308.4556524194777,13.249659120105207 L 306.88429085351527,12.963115064427257 L 303.72616234607995,13.853489871136844 L 302.23953109420836,13.694850963540375 L 299.2431603781879,12.338902126066387 L 295.869354814291,11.510122068226337 L 288.9676885101944,11.361771332100034 L 285.77104618772864,10.02676780615002 L 282.29710478521883,6.958834797143936 L 280.8374331649393,6.340310508385301 L 279.015732223168,6.186966504901648 L 266.86078865639865,7.904626239091158 L 263.69495738483965,7.781921132467687 L 259.6702691614628,6.1358526749536395 L 258.2028947789222,5.987624801695347 L 257.4557277727872,6.176743687130511 L 258.30303061939776,8.748286174610257 L 257.2439021356404,11.085541187785566 L 255.22963227704167,12.963115064427257 L 253.19610569812357,14.155426381155849 L 250.84676614776254,14.79005047492683 L 248.6745899170637,14.636506773531437 L 241.81914011202753,12.712399398908019 L 240.7446061782539,13.495278430171311 L 238.95756755582988,17.897534873336554 L 237.4516795091331,19.61829891614616 L 235.98430512845516,19.797571449540555 L 234.34361877292395,19.61317695863545 L 232.31779488176107,20.25858079176396 L 236.35018579475582,22.33352901507169 L 237.44012532941997,23.28669113945216 L 238.44533454813063,24.721823515370488 L 238.34519878402352,25.23444791417569 L 236.16531978920102,25.52153531089425 L 233.8660481609404,26.618736798875034 L 230.2688627038151,29.788335828110576 L 224.78450286015868,33.54463006462902 L 223.7061175070703,34.73560534231365 L 221.48002201132476,38.94171139411628 L 220.90231563337147,39.6044615926221 L 220.23987894132733,39.86649797856808 L 219.1229797732085,41.135726255364716 L 216.92769532836974,41.88093622028828 L 216.35769156366587,42.220163692720234 L 215.74147137254477,43.34076941199601 L 215.32552278786898,44.5798308160156 L 214.79403283633292,45.22773365024477 L 213.79267503507435,44.590114493854344 L 211.9594199117273,42.47202605661005 L 210.55751897394657,42.934655888937414 L 209.14021243713796,44.49756208714098 L 207.22992983832955,45.63913431111723 L 207.8538527917117,46.62660331558436 L 209.32507851719856,47.876585682854056 L 209.9258932583034,48.60199532750994 L 210.23400331661105,49.487002805806696 L 210.6345465257764,51.47871467657387 L 211.21225290372968,52.410450340248644 L 209.79494644142687,53.095181844197214 L 199.36541946977377,53.99625548347831 L 195.6064762212336,53.67700352240354 L 193.7193018347025,53.04884431697428 L 192.22496789507568,51.89051486272365 L 191.46239536255598,50.217740282416344 L 190.76144493184984,46.1637084139511 L 190.0142779238522,44.559263510629535 L 188.39669985696673,42.842127246782184 L 186.16290159896016,39.45546526554972 L 184.61464839428663,38.427998525090516 L 182.73517677001655,38.33039760123938 L 169.66360571607947,43.44872794020921 L 165.99709546938539,43.23795340396464 L 164.21005684882402,43.387037144973874 L 162.9699137043208,44.559263510629535 L 161.90693380124867,45.19687971379608 L 160.77462925761938,45.23287605307996 L 158.43299247138202,44.559263510629535 L 157.37001264467835,45.042611851356924 L 156.3224382661283,45.21744895540178 L 155.2748639639467,45.0683229714632 L 154.19647861085832,44.559263510629535 L 151.56213714182377,43.72120276931673 L 146.22412971407175,45.76255971007049 L 143.22775899805129,44.559263510629535 L 142.20329283364117,43.76747323386371 L 139.8693588115275,40.41115639731288 L 136.88069085776806,37.84755194187164 L 136.1643348261714,37.43151181563735 L 135.25541010126472,37.8167332932353 L 132.28985036164522,40.585867951624095 L 131.30389801226556,40.91474957577884 L 129.12401909194887,41.18711724691093 L 128.25360803119838,41.54172649141401 L 127.9377951361239,42.16876446735114 L 128.0379309747368,43.72634387202561 L 127.9377951361239,44.11708290874958 L 127.36779144592583,44.12222432624549 L 125.49602258391678,43.26365722715855 L 123.26992716267705,43.088873110711575 L 122.3224885519594,43.26879796478897 L 114.38558996655047,46.62308047898114 L 119.26804337278008,55.4377903053537 L 121.46363107673824,58.41928646713495 L 125.95791430026293,61.36563292518258 L 127.21340230479836,64.37018728721887 L 130.70693416707218,70.12336596380919 L 131.0162572544068,72.99375828541815 L 131.47114424407482,73.88034322485328 L 132.68417616561055,75.5481059635058 L 133.09660699777305,76.38621888775378 L 133.25430111400783,77.2895507933572 L 133.25430111400783,85.82867093291134 L 132.36272271722555,92.13547283131629 L 132.23535432107747,94.41185355465859 L 131.89570536464453,95.79929368104786 L 126.6190166324377,105.08658835384995 L 125.06633582897484,106.59490680228919 L 124.70242622122169,108.50840998627245 L 124.55686239525676,111.9320720937103 L 123.95641165226698,116.47525686770678 L 120.00799280032516,130.29667893517762 L 119.18919627927244,131.6509283715859 L 117.18769362941384,133.66231755912304 L 116.65366888418794,136.04988512955606 z" /></g></g></svg>