<svg xmlns="http://www.w3.org/2000/svg" xmlns:xlink="http://www.w3.org/1999/xlink" width="500.0" height="490.1074429200962" viewBox="0.0 0.0 500.0 490.1074429200962" preserveAspectRatio="xMinYMin meet"><g transform="matrix(1,0,0,-1,0,490.1074429200962)"><g><g><path fill-rule="evenodd" fill="#D2EBD9" stroke="#A6A6A6" stroke-width="0.25" opacity="1" d="M 92.64051695168018,125.40118999965489 L 113.18236903846264,134.1796684237197 L 134.41164553165436,150.2450804123655 L 154.26607320830226,158.96418940927833 L 170.6833808273077,145.38773209229112 L 166.63970859348774,132.12503945920616 L 150.38414842262864,104.54864964820445 L 145.81479922309518,71.69433457124978 L 139.6279825270176,47.80933282896876 L 139.78972897678614,41.77708469238132 L 138.4957543797791,37.67294824682176 L 130.6510305851698,29.527521688491106 L 120.62272571027279,23.12372386921197 L 114.03154089301825,23.86976881697774 L 107.92559642717242,27.41358562745154 L 99.71694311499596,29.527521688491106 L 4.084107853472233,29.527521688491106 L 0.0,33.50685638003051 L 2.668823417276144,41.590528576634824 L 10.432672992348671,49.23972999211401 L 21.471896175295115,51.41647517401725 L 16.7812371365726,73.12518774345517 L 23.048928055912256,79.65769353788346 L 35.301253601908684,79.90656152367592 L 48.52405985072255,82.7686104234308 L 92.64051695168018,125.40118999965489 z" /><path fill-rule="evenodd" fill="#D2EBD9" stroke="#A6A6A6" stroke-width="0.25" opacity="1" d="M 307.7638497762382,53.90426050219685 L 315.1233322285116,44.01580041181296 L 317.0642946213484,24.80233658850193 L 306.8742413073778,9.634019344113767 L 298.0590378046036,0.0 L 293.5301252231002,1.802399529144168 L 296.76506221294403,11.623131578788161 L 298.463404931128,19.393608974292874 L 295.7137082889676,28.78142043016851 L 296.11807541176677,36.49149566423148 L 298.94864527881145,40.47119857929647 L 301.69834192097187,46.62772045005113 L 305.41852025687695,52.224995887838304 L 307.7638497762382,53.90426050219685 z" /><path fill-rule="evenodd" fill="#D2EBD9" stroke="#A6A6A6" stroke-width="0.25" opacity="1" d="M 495.87545454129577,490.1074429200962 L 500.0,486.0411840956658 L 500.0,477.53403716161847 L 482.53133845701814,458.2089023012668 L 469.67246272042394,450.6428169487044 L 453.74039644375443,446.5161861721426 L 444.43995159864426,453.894264430739 L 452.1229279488325,470.59142330195755 L 465.8309745453298,478.91012866795063 L 475.6570963561535,479.9734874572605 L 491.75091007724404,489.35673275589943 L 495.87545454129577,490.1074429200962 z" /><path fill-rule="evenodd" fill="#D2EBD9" stroke="#A6A6A6" stroke-width="0.25" opacity="1" d="M 218.39870543405414,107.4738786527887 L 224.22159261628985,110.6481951046735 L 226.80954280495644,96.3337195571512 L 218.72219933196902,77.29348278883845 L 217.58997118845582,83.39080930128694 L 217.02385761216283,97.01826240029186 L 218.39870543405414,107.4738786527887 z" /></g></g></g></svg>