<svg xmlns="http://www.w3.org/2000/svg" xmlns:xlink="http://www.w3.org/1999/xlink" width="342.78200739622116" height="499.91823639255017" viewBox="0.0 0.08176360744982958 342.78200739622116 499.91823639255017" preserveAspectRatio="xMinYMin meet"><g transform="matrix(1,0,0,-1,0,500.08176360744983)"><g><path fill-rule="evenodd" fill="#D2EBD9" stroke="#A6A6A6" stroke-width="0.25" opacity="1" d="M 238.48906323313713,497.8052977825282 L 239.06221071258187,496.50723670073785 L 240.33985196053982,495.320792234852 L 241.90605710074306,494.446716108243 L 243.32300509512424,494.0816825304646 L 244.73398277908564,494.2276952175889 L 247.34896832704544,494.92329639499076 L 248.79775781556964,494.94763263198547 L 251.36896116659045,493.9600059617078 L 252.53117699176073,492.12276815541554 L 252.77794884890318,489.6936215158785 L 252.3759495317936,485.93077426822856 L 250.54506167396903,484.3090459756786 L 250.17092369124293,483.5711971075507 L 248.50322368368506,475.6914565055631 L 248.956965431571,473.3896466246806 L 248.81367859989405,472.55691707797814 L 248.1489866450429,471.91871367546264 L 246.57681126892567,470.84697610267904 L 245.4902191311121,469.4592597405426 L 244.90513102337718,468.09188179008197 L 244.49517139419913,464.8145478577353 L 243.7588359825313,461.7260039332323 L 243.70908362790942,460.09176938212477 L 244.49517139419913,458.4718207377009 L 245.17180382087827,457.90486468875315 L 246.01759441569448,457.49787944881245 L 248.71417381241918,457.02813400281593 L 250.44157672673464,455.712085812469 L 252.84959222748876,454.91034422209486 L 253.55010583251715,454.4791154762497 L 254.15907504037023,453.7462468270678 L 255.05859822407365,452.0052671128651 L 255.69343869015574,451.2340128576616 L 259.7691542766988,448.6592950313352 L 260.98908277228475,447.3558475713944 L 265.1364417374134,439.72479617781937 L 265.72551000118256,439.78549523849506 L 266.4618454128504,440.9853434594115 L 268.505673404783,440.17801913409494 L 269.24598897248507,440.0728059245739 L 271.5405690521002,440.8801266954979 L 272.32864689826965,440.69802196742967 L 273.08886333182454,439.9311734577641 L 273.1226949803531,439.06723312987015 L 272.7585075497627,437.5680552922422 L 273.6222089268267,436.1478662065929 L 274.93368189781904,434.95634629786946 L 275.7436507642269,433.7082456444623 L 275.0670182593167,432.1244422859745 L 276.1416698433459,432.13657830050215 L 279.51886182650924,432.70293340529315 L 280.2571872398257,432.34693727770355 L 281.82936277240515,431.0382910587359 L 279.938772007823,429.622523121885 L 279.3516938202083,427.1390570112271 L 278.7944671213627,426.0895234949421 L 278.92183324694633,423.45476244052406 L 278.5178438536823,417.91316746431403 L 279.2720900475979,415.89173009980004 L 280.249226924032,415.2590535248164 L 281.09700759500265,415.05288121523336 L 281.7179174311459,414.5374578151386 L 281.94876842573285,412.95487046439666 L 281.62239279970527,411.41886516835075 L 280.7626715004444,411.19251446262933 L 279.57259441912174,411.3905712097185 L 278.2233097180724,411.13188508700114 L 278.6810316257179,410.3619051716523 L 278.2233097180724,408.65631097124424 L 279.79548509791493,404.73428229801357 L 279.7477228976786,404.093802219606 L 278.2233097180724,402.5401488870848 L 277.60239988192916,401.3542637771461 L 277.44518234580755,400.263378603966 L 277.7695678919554,396.2416443283437 L 276.1177886687219,390.1668003266677 L 276.22923400625587,388.71292597742286 L 276.633223477751,387.8709275168367 L 277.6979245133698,386.48380942165386 L 278.0561417117715,385.335000173538 L 278.23127011209726,383.91369607520755 L 278.01633982360363,382.5469747562893 L 277.21234119683504,381.58405421988573 L 275.8312149271369,381.4104497128865 L 274.53765282034874,382.13111795065925 L 272.48586443811655,384.2992979341652 L 271.3833515159786,382.07863161165733 L 271.43907418474555,379.7955784436781 L 272.6669630743563,378.1586035989458 L 275.0670182593167,377.90024943475146 L 278.1914682276547,378.6995409213705 L 279.7158813290298,378.4048497818876 L 280.3765930496156,376.7861257167533 L 279.84324745088816,375.71039499226026 L 278.59545754268765,375.355191425886 L 277.17452938854694,375.5973750889534 L 276.1177886687219,376.2956839239923 L 274.7406426332891,375.39151885395404 L 272.8898538313806,375.28253671887796 L 269.01314782351255,375.71846786653623 L 268.4638814404607,373.0182317625731 L 268.4897526949644,372.51978769816924 L 268.68279195949435,372.2957935911836 L 270.0081955604255,371.26261988678016 L 270.8082139566541,370.9155471746344 L 272.7724381759763,371.2868344685994 L 273.8610203899443,371.230333889951 L 274.53765282034874,370.3848573541036 L 274.24311868846416,369.5757269161986 L 273.2580214180052,368.8937359037809 L 272.05799386650324,368.4236160152359 L 268.8479698933661,367.76990085537545 L 268.84000949934125,366.6582181529375 L 269.3813154883683,365.4114127767971 L 268.75244525820017,364.5197201813571 L 269.1027021408081,363.47474240139127 L 270.5296006053686,363.31739403365646 L 271.9624693095684,363.6058667295147 L 275.4849383570254,364.84250146744307 L 276.0700263902545,365.33878510457 L 276.3725209161639,366.0025285392767 L 276.6073522232473,367.5822633448988 L 276.9914405941963,368.19965624646284 L 278.1596266552806,368.71214352874085 L 279.8910097293556,369.0228689913638 L 282.98958843946457,369.1963924955344 L 284.4363877736032,368.9583022915758 L 288.52404398843646,367.4612075756304 L 289.01758762076497,366.7671650837874 L 289.1529141366482,365.99849360936787 L 288.9777857363224,365.1975652357796 L 288.4683212414384,364.1707173351897 L 290.8166339918971,363.3052903751377 L 292.20970080792904,362.08082930988166 L 292.6873237378895,360.24928427976556 L 291.97088934481144,356.29211741196923 L 291.8435232229531,354.005209953757 L 291.52510791271925,353.02314882562496 L 290.74499053508043,352.2145377956331 L 289.87730884552,351.7063953784527 L 289.2484387680888,350.95831404277124 L 289.17679531499743,349.41987113282084 L 290.132041092962,346.6275047719246 L 290.1559221930802,345.38363190123346 L 289.22455751523376,343.7910725128604 L 287.4812339693308,342.2288404611172 L 286.99366057291627,341.47698463033885 L 287.00162088871,340.2575298396405 L 286.5956414155662,337.7442105234368 L 285.29212891310453,335.3218023404479 L 284.50007091090083,332.93587448378094 L 285.5329303815961,330.51589596050326 L 289.2643594779074,324.17375453095883 L 290.22756564617157,320.36270303989295 L 288.52404398843646,317.905528826057 L 288.13398529961705,316.9327877466567 L 287.7518869265914,314.6893649599515 L 286.9041062556207,314.2805734059075 L 284.41250667348504,314.78199843119364 L 283.6005477271974,314.5101403526496 L 284.0144875943661,314.2040514178807 L 283.50104293972254,312.90119600459 L 282.69306422770023,312.00111220916733 L 281.8691646568477,313.7529788701795 L 280.9577009230852,314.1073924610391 L 279.9865342825651,313.92615776893217 L 279.46313923597336,313.1871345359832 L 280.1218607984483,309.32921605103184 L 282.3786290772259,304.44513203040697 L 285.44337613880634,300.14354466076475 L 288.52404398843646,298.03424509312026 L 289.83750695735216,296.50670702336356 L 291.7002363912761,294.78203202574514 L 293.70625265315175,293.3250916394172 L 298.75313480198383,290.9446365474723 L 300.09843934327364,288.0835119409021 L 301.0934870801866,285.13615454453975 L 304.0467888042331,282.67588506266475 L 304.3811248242855,279.8336476321565 L 304.3652040399611,278.6851613947656 L 304.66769856214523,278.41966808913276 L 305.5911029241979,278.2708320429083 L 305.87767666578293,278.0053424249636 L 306.18017111346126,276.0906671284465 L 305.59906323999166,274.9061224866891 L 304.3652040399611,274.1358913508011 L 300.96612095832825,272.6236400686903 L 299.6765390858054,271.7710205054609 L 297.11329604685307,269.4565991666168 L 296.46850511431694,269.14695042185485 L 295.8794368468225,269.0745655039791 L 295.48141776770353,268.77296320558526 L 295.39385360479355,267.76563293405343 L 295.7122688367963,266.9473269144073 L 296.84264309331775,265.7028194005834 L 296.97796960920095,264.62723505019676 L 296.55606935173273,263.6200393412728 L 295.9510802999139,263.15163407986984 L 295.5689820051193,262.6008145563537 L 295.97496147826314,260.6911139130825 L 296.26153521984816,257.0328545497032 L 296.9700092151761,254.13066977611743 L 296.94612811505795,249.74172100622673 L 297.7580869831145,244.22022035368718 L 297.69440399855375,239.56344755296595 L 298.39491760358214,235.12024870188907 L 298.2277495190501,231.0552115533501 L 298.44267988204956,229.53697710682172 L 296.21377294138074,229.9145208861446 L 295.22668559476733,228.33207889983896 L 294.98787413164973,225.9224143505562 L 295.0117552317679,223.81008598871995 L 294.57393426820636,222.7660189033486 L 293.5311242491007,222.22793554980308 L 291.28629652410746,221.436888494296 L 290.50617907196283,220.67396746296436 L 290.02855614572763,219.84280484018382 L 289.74994279816747,218.88719412486535 L 289.4554086625576,214.37450911046471 L 289.83750695735216,210.54883472202346 L 291.07932655513287,207.12897395447362 L 293.5072430744767,204.9736740682274 L 294.9082702845335,204.7810281374259 L 296.43666362017393,205.05795698822476 L 299.2705596126616,206.10950420971494 L 299.7800240330398,205.4312124181306 L 301.0138832330704,200.33843084936962 L 300.91835860162973,198.6570546446601 L 299.89146937057376,195.80813053285237 L 299.17503505945206,192.20517620828468 L 297.32026601955295,187.55157270550262 L 297.0575734563172,184.51101413264405 L 297.3998697884381,181.01750015409198 L 297.3441471979022,177.64062676997855 L 295.87147653102875,174.9698323479388 L 294.8764287158847,174.41644911083858 L 289.37580481544137,173.13327417045366 L 290.2594072148204,171.9463776529301 L 292.44851227104664,170.24629588180687 L 293.3559958487749,168.60643349355087 L 293.1729070544243,167.29940747248475 L 291.5489890873432,164.57725398428738 L 291.03156427666545,162.94566172838677 L 291.2783361338079,162.20405265362933 L 292.95797676965594,161.03554743202403 L 295.18688371032476,156.87291985645425 L 295.696348130703,156.19155173387844 L 297.0177714936435,155.9109919911716 L 298.36307603493333,155.16751877218485 L 299.48548989742994,154.09942790842615 L 300.1382412277162,152.84701479622163 L 300.21784507483244,151.58863191236742 L 299.54917296022177,147.67348486720584 L 299.97903361171484,146.052643627394 L 302.07261403650045,144.32569184398744 L 302.7492465414107,143.0936333546415 L 305.6229444183409,143.08962675835937 L 306.3234580233693,142.94538832770195 L 307.3105453699827,141.97780308197252 L 307.2627830915153,141.25463400862645 L 306.2358938604593,139.53991626296192 L 306.100567266345,137.4767465182813 L 306.5781901925802,135.5739199471427 L 307.5015945546329,133.73327394213993 L 308.71953297406435,131.8586677381536 L 310.3434509411454,130.18842087639496 L 314.1485134959221,128.3059731409885 L 316.08288630098104,127.07842513523065 L 318.5904065929353,124.04876644827891 L 319.5854543298483,123.29389055934735 L 321.16160994395614,122.86940428125672 L 327.03637189790606,122.84537693741731 L 329.05034847557545,116.63477791217156 L 330.24440579488873,114.92112479137722 L 332.01161059364676,113.9181907492457 L 334.4395270347595,110.70536411949433 L 335.4982579126954,110.16291166318115 L 341.8745238184929,109.43431521463208 L 342.78200739622116,108.20533841429278 L 342.5837807394564,105.48201299831271 L 338.55344569683075,103.40183905244339 L 335.91461039707065,101.34067814098671 L 332.00336761027575,97.13042557623703 L 331.1070411205292,95.77541868167464 L 329.20783189311624,91.98793112381827 L 328.85055489838123,90.47240007889923 L 328.7377305664122,88.87500639015343 L 327.941692404449,85.25824705627747 L 327.27101457864046,83.81855839735363 L 324.8264877796173,81.52208578411955 L 321.71128322929144,80.43846982647665 L 307.0065146535635,78.76269791461527 L 279.38963047787547,80.77867192565463 L 276.08011734858155,80.60227056208532 L 273.3096537142992,79.80217295221519 L 272.5324195586145,79.12808634224348 L 270.6708184145391,79.04618864809163 L 270.02521266788244,78.8193959306227 L 268.56476460397243,77.77049460541457 L 263.4061864130199,76.37199834990315 L 262.2277991734445,75.57512718462385 L 260.10920928791165,73.59403537597973 L 257.11309706792235,72.73422483215109 L 256.0349980816245,71.5941354164388 L 255.1825476810336,70.19583325216081 L 253.94148027524352,68.92669136822224 L 247.81449342519045,66.8577204181347 L 245.99990236759186,65.2769266879186 L 245.3229565396905,65.03445921745151 L 244.10069314017892,64.92424713086803 L 227.57193158194423,59.56511359335855 L 224.08691395819187,59.12431967165321 L 222.6640740558505,58.43165208003484 L 217.00405445322394,53.68400987808127 L 216.40232479572296,52.81198241712991 L 215.99803763628006,51.62202178291045 L 214.96068081259727,50.54541672184132 L 212.1996191777289,48.845564272487536 L 206.81225832551718,47.51405597990379 L 205.89085975289345,47.504612816730514 L 204.07940277457237,45.99687471310608 L 202.80072721093893,45.58768471307121 L 202.1613894663751,46.68306266819127 L 198.17493050917983,43.88801023515407 L 197.1908517703414,43.5197554276092 L 192.6904153265059,39.82162673806306 L 190.8601543419063,37.662680433364585 L 189.70057110860944,36.93256294645835 L 183.97473734244704,36.09545895480551 L 182.20715644583106,36.17413355677854 L 181.0789132975042,37.17803224932868 L 180.5555338859558,36.51400914846454 L 179.82844389230013,36.25910217396449 L 177.92296666279435,36.12692876486108 L 176.0676335208118,35.65488367306534 L 175.15563702955842,35.69264716771431 L 174.48809312283993,37.08362083800603 L 173.87382746115327,36.910533688846044 L 172.92735688760877,36.12692876486108 L 171.6580833233893,36.01363751292229 L 170.42641792073846,35.68320625263732 L 162.39081976562738,32.21853321127128 L 161.57597752287984,31.085723147145472 L 160.886495616287,30.41548949969001 L 159.31322329863906,29.49039316899143 L 156.26696691662073,28.10907413775567 L 154.68742652237415,27.78184243803844 L 149.67301274463534,27.630813155905344 L 148.84563442319632,27.397977222455665 L 146.22560320422053,25.99783832137473 L 143.07279049232602,25.99783832137473 L 141.64681658893824,25.535329103586264 L 138.85441487282515,24.166704620583914 L 133.49526010081172,23.402178951422684 L 131.75588528811932,22.74777934490703 L 130.39885955303907,21.772488089394756 L 129.29255448654294,22.282154089189135 L 127.9355287514627,22.382829436450265 L 126.62551318109035,22.055635196506046 L 125.67277452722192,21.297433665255085 L 125.55054819211364,20.671375393518247 L 126.08646368607879,19.507368117105216 L 125.91095918789506,18.89706145855598 L 125.42832186073065,18.34338746580761 L 125.10865294933319,18.053969439468347 L 119.8341164290905,15.442989253322594 L 118.89704785495996,14.728925151983276 L 116.67503571510315,12.272242639679462 L 116.50266521796584,11.7060584515566 L 116.60295346751809,10.825339638395235 L 115.20518564805388,10.63347077916842 L 109.914979044348,9.120562238851562 L 104.01050677895546,6.472291492857039 L 102.77884137630463,5.384086003294215 L 100.91724023222923,2.7297136060660705 L 99.76079107820988,1.6227161369752139 L 98.67015601322055,1.1824394062859938 L 93.36114540323615,0.5031625330448151 L 92.32378850504756,0.08176360744982958 L 89.8009116128087,0.1037768452661112 L 89.2399240359664,0.6132299138698727 L 89.0236774533987,1.4088670065393671 L 89.10516162589192,2.2737033183220774 L 88.92338912561536,2.971872389432974 L 86.1372554898262,3.698355380212888 L 85.27226908504963,3.7832696423865855 L 85.35061933100224,4.138652991154231 L 84.62979733943939,4.899747444316745 L 81.35162429511547,7.52277716237586 L 78.9823137409985,8.661351304966956 L 78.53728449717164,9.913182417978533 L 77.77258642017841,10.976318933069706 L 69.77459634840488,14.106093130772933 L 56.743388418108225,16.795649076113477 L 44.06318940222263,21.108671586262062 L 34.0155576877296,21.873162418720312 L 22.914899066090584,23.823767814203165 L 11.00566628575325,27.382245145970955 L 11.337871197611094,28.656562736723572 L 12.59460860490799,29.07504949741997 L 13.468997087329626,29.210350443958305 L 18.97858427464962,29.169445483828895 L 20.642742838710546,28.681734784971923 L 22.04364473745227,26.86308801942505 L 22.45733382180333,26.57362102228217 L 23.472752641886473,26.712061526603065 L 25.89220728352666,27.630813155905344 L 25.68536277860403,29.75470465014223 L 27.82589067146182,30.651486243354157 L 30.593220304697752,31.092016448033974 L 32.25737887248397,31.850367105798796 L 35.326185040175915,31.73071318550501 L 37.095379915088415,31.986477614496835 L 38.19391268119216,32.77176258235704 L 38.93422817066312,34.22846955538262 L 37.25458753481507,35.86307034199126 L 37.19090447202325,36.56848343589809 L 37.55708205699921,38.84665811213199 L 37.214785646647215,39.735974705428816 L 36.14013406261802,41.28482374467421 L 35.92122361809015,42.35805548832286 L 36.42670787870884,47.14492276660167 L 39.0217923335731,46.6692124750698 L 40.044701404869556,46.8570974401664 L 40.80889807268977,47.830513580236584 L 41.003927417099476,49.179737408063374 L 40.67357163503766,50.570977498427965 L 38.57203074172139,55.50461614294909 L 37.206825256347656,61.04259060509503 L 37.02373646199703,65.09753167699091 L 36.73318248614669,66.34727817110252 L 36.12819351255894,67.36109783279244 L 35.141106087714434,68.16297137725633 L 29.65441282093525,69.58078265597578 L 28.40264283120632,69.08084409765434 L 25.895122464746237,67.56106491014361 L 24.388620227575302,67.3730958896922 L 22.567682836204767,68.39093797374517 L 22.151752892881632,70.39069496956654 L 22.929880268871784,75.22847649955656 L 17.9267801605165,74.80047464987729 L 18.681026358157396,83.63335507770535 L 18.484006859362125,86.43200617004186 L 17.544681791216135,89.23483967792708 L 14.577449437230825,94.67497972922865 L 13.459015730768442,97.44233497139066 L 11.124633762985468,110.3610761561431 L 9.484795089811087,114.68490260909311 L 7.218076340854168,116.75890050211456 L 6.077751614153385,118.14229197241366 L 0.0,145.52172790351324 L 0.10746518149971962,146.8239872410195 L 0.6627018004655838,147.6374208937632 L 2.081639874726534,148.42482522688806 L 2.49955989792943,148.93173792329617 L 4.012032449245453,153.18766706751194 L 2.794094033539295,155.71460134151857 L 1.8308878615498543,156.95909382554237 L 1.4965517669916153,157.74468836456072 L 1.604016948491335,160.5485140106175 L 2.893598821014166,163.53495090873912 L 11.777385093271732,178.81968910770956 L 12.865967385470867,179.50147739693057 L 16.68098033219576,180.74878252274357 L 17.071039095520973,181.29825212876312 L 17.70786964148283,185.1808773574885 L 18.097928404808044,185.96306902111974 L 21.628357768058777,190.39581433229614 L 22.312950666993856,191.90427810989786 L 22.368673257529736,192.96345095941797 L 21.510942116379738,194.23530306271277 L 21.02535879611969,195.31862050981726 L 20.953715417534113,196.22943559323903 L 24.722956243902445,220.03553637326695 L 25.751835633069277,223.18364174547605 L 31.314152512699366,235.14435117284302 L 32.68333815410733,237.1087661976926 L 32.54204148054123,238.9286676000338 L 33.20474328100681,239.5594298754586 L 34.91821548715234,240.59599585295655 L 35.53116485476494,241.25893331877887 L 35.78589702397585,242.1187633802183 L 36.12023311853409,247.92522695241496 L 36.34511387720704,248.49588433571626 L 36.82870711758733,248.5521467968356 L 37.34215169399977,248.21055436995812 L 37.839675564318895,247.51934312807862 L 39.09741594269872,248.58027810347266 L 42.61192459985614,252.65154225658625 L 44.02887251973152,253.66441563819535 L 48.6259931512177,255.20790384954307 L 50.21408939361572,256.0178633991163 L 50.97430582344532,257.02481487742625 L 51.04594928026199,258.38153679471 L 50.548425409942865,260.2428537297528 L 49.52949656918645,262.48220868129283 L 49.34242754429579,263.4652436540928 L 49.66880324482918,264.691568026552 L 50.206128999590874,265.73096602992155 L 50.699672635644674,266.19337864755653 L 51.33650317788124,266.1531686084345 L 52.315630208700895,265.69075651164167 L 53.20321284234524,265.5962644845713 L 54.25398317351937,265.9521190384403 L 57.71276916190982,268.0008748365799 L 58.24213460087776,269.1871644248022 L 51.15341446176171,312.81259595346637 L 50.787236873060465,314.03489841660485 L 50.090703424066305,313.70867754507344 L 49.70064473897219,314.34904053772334 L 49.89965423941612,315.3418325468665 L 51.28476074337959,316.31452002120204 L 51.368344746530056,317.3798820177326 L 49.80014952644706,322.818073826842 L 49.52949656918645,324.828452641028 L 48.582211032509804,325.090336071793 L 48.12448912486434,325.44086070836056 L 46.92247141525149,329.09946873027366 L 46.84286756813526,330.6932062297128 L 46.34534369781613,331.946499296464 L 44.3990303426981,332.98826602322515 L 42.452716905623674,333.4275525143603 L 39.41185109689832,333.70160625502467 L 38.31331833451986,334.6426789064426 L 37.56106221675873,335.07191523665097 L 38.285457000136375,336.1742564799497 L 38.60387223213911,337.39756356109865 L 38.751139376312494,341.2996060688747 L 39.07353484258056,341.9486558968201 L 40.71337351948023,343.6419007508084 L 42.05469782650471,346.40574048960116 L 42.95422101020813,347.8210304287495 L 45.398058239370584,349.1073539968347 L 46.31748244166374,350.5913382258732 L 46.420967388898134,352.073386200238 L 45.210989363491535,352.74487105803564 L 43.86568474397063,353.04331398336217 L 42.77511237561703,353.84791647375096 L 42.170123398303986,355.0518394805258 L 42.297489523887634,356.52404548600316 L 43.08954752609134,357.5647213420598 L 45.0557618252933,358.6377078969963 L 45.44980074837804,359.9668985265307 L 45.44980074837804,362.07276046916377 L 44.96819758787751,363.98915689019486 L 45.28263274207711,366.4826935759047 L 45.19904873520136,367.5943690064596 L 41.37806539610028,372.4471407375531 L 38.619793094694614,374.97577465337235 L 38.22177393734455,375.77901438449044 L 38.08644749596715,377.0505240635248 L 38.20585315302014,378.30796578200534 L 38.5879515260458,379.5856524806004 L 39.248663168400526,380.73017311969306 L 40.2317703589797,381.58405421988573 L 39.39593023434281,382.23609094286803 L 39.05363390222192,383.66739823517855 L 38.66357513517141,384.2992979341652 L 37.99092286452651,384.6384707422694 L 37.1391620375216,384.6626975728432 L 36.5102918073535,385.36730339971837 L 35.98490660265088,386.9885745217325 L 36.2714803442359,388.62408069346566 L 37.56106221675873,391.2350458133733 L 40.22380996495485,394.2259630765766 L 40.71337351948023,395.0217142405454 L 40.49446299672127,395.78719350579195 L 38.66357513517141,398.7543971807463 L 38.32923911884427,400.7259890938876 L 39.04567350819707,404.2756403341191 L 39.137217830866575,406.2799865719862 L 38.635713800787926,407.68635585845914 L 36.888409946113825,410.32552873622626 L 36.5102918073535,411.90997255791444 L 36.5102918073535,418.61262266291305 L 35.70629325509071,422.146584658185 L 35.74211498349905,423.7054875076283 L 36.749103270471096,425.3150406238856 L 38.309338100254536,426.54654036764987 L 38.88248557969928,427.236125984462 L 39.137217830866575,428.27761850808747 L 39.093435786664486,429.282750806422 L 38.83074314519763,429.6993770012632 L 37.56106221675873,430.4133206261322 L 36.82074672728777,430.69243168924004 L 36.148094456642866,430.6722060793545 L 35.64858050644398,430.8582817191491 L 35.18488821014762,432.274120502756 L 33.74007887765765,432.52493469952606 L 33.06742660701275,432.8202514736913 L 32.44253661483526,434.0966267196927 L 32.44253661483526,435.7392229826655 L 32.828615222126245,437.3353976624785 L 33.354000348597765,438.4804994344013 L 33.90326672792435,439.2088605950121 L 34.49631515145302,439.6883768293774 L 35.24260103330016,439.95545328455046 L 36.23963885381818,440.0363860578509 L 37.08343929052353,440.37023681472056 L 37.78793312981725,441.10674783657305 L 38.122269224375486,441.84125769522507 L 37.823754858225584,442.1771566135576 L 35.941124483942986,442.22572067927103 L 34.68736433982849,442.4381896923296 L 33.74007887765765,442.9238400600152 L 31.0355391651392,445.31985695892945 L 30.43254019320011,446.30949706491083 L 30.19770896434784,447.839572198689 L 28.57379099726677,449.7097953798948 L 28.052385952323675,452.9182536012959 L 25.743875164538622,457.04028245282825 L 25.417499538511038,458.53661658160854 L 25.63641005754471,459.3121554068057 L 27.527000822126865,463.11529271118343 L 27.5250106677413,463.62161346082576 L 27.302120067179203,463.96996846527327 L 26.464289788156748,464.202883058344 L 26.201597224920988,465.34723570290953 L 27.682228282094,467.38087650586385 L 27.96084162965417,469.1715973382816 L 29.256393738090992,471.29470926045906 L 30.10616449266672,474.93159111985005 L 30.675331816077232,476.564825624926 L 31.710181515663862,477.7624682027381 L 32.93807040527463,478.7088720489992 L 33.97491018474102,479.85798364365473 L 34.408750992268324,481.6537104677409 L 33.94704885035753,483.1556607130915 L 33.103248335421085,484.54621663410217 L 32.641546193510294,486.04429949016776 L 32.854486398398876,486.60179750283714 L 32.74702121689916,487.0559149730252 L 39.387969844043255,486.9342755008256 L 39.41981141269207,486.1010623098118 L 128.15020895004272,486.9869858105667 L 129.04973205551505,487.49990444036666 L 129.60297859460115,488.8765288438881 L 130.94430297985673,489.29825045040343 L 140.67586992308497,488.9941234958824 L 144.9665157943964,487.31135992344934 L 146.89690836891532,486.9545486102579 L 165.97794396057725,486.76803582615685 L 166.658556625247,487.96214911481366 L 168.84368144720793,488.302756362129 L 179.4628309495747,487.45530235173646 L 180.11160212010145,487.3235240166541 L 180.69669014960527,486.91400225216057 L 181.23401598259807,485.853739545797 L 181.6280548274517,485.6023651295109 L 182.43205345794559,485.6348003569292 L 181.91860880330205,484.5624335426837 L 183.25993318483233,484.75095568120014 L 184.98335586488247,486.6565344114788 L 186.6311549320817,486.9342755008256 L 187.07295613363385,487.4796307744691 L 187.5266978815198,487.67020403034985 L 187.9605386890471,487.4958496587351 L 188.35855776816607,486.91400225216057 L 197.67618484795094,486.7437082303222 L 197.77966987341642,485.8577940397663 L 199.3757264278829,485.918610828463 L 199.83344833552837,485.36923799826764 L 198.69511376321316,483.5711971075507 L 202.3927112147212,479.9917463174788 L 203.74199599027634,480.8287939190632 L 204.52211336418986,482.60027235909365 L 205.08332029730082,484.5259455536725 L 205.79577453061938,485.83346732193604 L 206.9022676087916,486.2510790141532 L 208.5023043975234,486.4233966686297 L 211.7740213535726,486.4071784578264 L 212.25562443956733,486.7153260152554 L 213.17106840759516,487.8242856703 L 215.19698561355472,488.7913743670797 L 216.1084492728114,489.535472339252 L 216.52636937052011,490.3667818122776 L 216.69751761481166,492.1471014244016 L 217.05573473125696,493.28876846132334 L 218.53238563239574,495.1747725874884 L 220.0209770835936,495.1747725874884 L 221.48170712217689,493.9924529470736 L 222.86681362614036,492.32960207702126 L 226.727598849684,495.16666039905977 L 227.7047357261181,496.1218890948221 L 228.30773461982608,497.2880927694496 L 227.83210184797645,498.7322396246018 L 228.04703213647008,500.0 L 238.48906323313713,497.8052977825282 z" /></g></g></svg>