<svg xmlns="http://www.w3.org/2000/svg" xmlns:xlink="http://www.w3.org/1999/xlink" width="500.0" height="128.90250166878104" viewBox="0.0 0.0 500.0 128.90250166878104" preserveAspectRatio="xMinYMin meet"><g transform="matrix(1,0,0,-1,0,128.90250166878104)"><g><path fill-rule="evenodd" fill="#D2EBD9" stroke="#A6A6A6" stroke-width="0.25" opacity="1" d="M 12.628709480166435,0.0 L 10.101616200059652,2.185051262844354 L 7.533981256186962,3.066040499834344 L 7.13532218337059,4.273095138603821 L 9.000235974788666,8.137290785089135 L 8.696173898875713,10.711306306067854 L 5.473116382956505,19.135202187346295 L 5.351491555571556,21.16163148614578 L 5.7569077126681805,29.143390720011666 L 5.371762469410896,31.364674374694005 L 4.439305491745472,33.62772938562557 L 1.6013933829963207,36.890633451985195 L 0.8716444000601768,39.153990232385695 L 2.168975703418255,41.88962349598296 L 1.5608517192304134,42.778396053472534 L 0.0,46.65311263501644 L 1.4932823851704597,48.45866060000844 L 3.2771128490567207,53.709087647497654 L 5.006887976080179,54.80648389947601 L 7.033968102186918,55.29268138832413 L 9.196187052875757,56.49430855549872 L 11.08812851458788,57.99465550784953 L 20.797842390835285,70.02025300310925 L 25.054710797965527,73.5639981077984 L 25.399314377456903,71.81293267640285 L 26.331771355122328,70.57611418375745 L 27.764241326600313,69.63115461100824 L 29.466988623142242,68.7973849719856 L 32.3927409760654,70.35376883740537 L 35.34552116319537,70.49273455818184 L 37.91315594315529,69.47829560399987 L 39.683472737669945,67.62318806629628 L 40.58214480057359,64.54542388999835 L 38.75777267292142,64.0174334209878 L 36.02121448144317,63.82985947234556 L 34.11575919017196,61.794390458613634 L 36.696907967329025,59.48811072832905 L 38.88615442067385,54.59811530797742 L 40.07537489384413,49.514248124323785 L 39.683472737669945,46.65311263501644 L 45.80525477230549,39.36228079604916 L 47.14988465979695,38.39026696467772 L 55.5487533994019,38.015353579074144 L 57.93395109847188,37.32802104856819 L 60.102926801890135,35.96033248817548 L 61.40025810524821,34.76624544034712 L 63.103005569428205,33.94706613989547 L 66.4814724996686,33.62772938562557 L 68.08962279558182,32.49618645221926 L 69.04235035926104,29.837529048556462 L 69.11667660996318,26.783406767295673 L 68.13016429543495,24.416616348316893 L 71.3937633112073,27.16515982639976 L 72.87353186309338,27.248451815918088 L 75.0425077304244,25.5826428597793 L 74.06950925290585,27.310920960037038 L 71.03564590215683,30.413672788999975 L 70.40049408003688,30.871816862840205 L 69.98156425729394,33.03765711071901 L 68.81937161460519,34.4538445728831 L 67.03554098680615,35.08559096348472 L 64.7246697023511,34.89120644633658 L 64.7246697023511,36.05752705503255 L 69.60993284732103,35.96033248817548 L 71.88701954856515,36.30745723191649 L 73.9073427580297,37.32802104856819 L 75.54927780479193,33.91235542600043 L 77.45473309606314,34.66905390191823 L 79.71154904738069,37.036428747233 L 82.41432249173522,38.39026696467772 L 85.50224134325981,39.32062253123149 L 91.62402337789536,43.40332585363649 L 94.94167789071798,44.32685040612705 L 99.56342079117894,42.87560681067407 L 100.26614194363356,39.49419871275313 L 99.54990695789456,35.57849854393862 L 99.98235061764717,32.57254724903032 L 102.95540155097842,31.74646952515468 L 106.98253413289785,32.961295457789674 L 112.6583586782217,36.05752705503255 L 112.6583586782217,37.32802104856819 L 110.83398638293147,37.126683364855126 L 109.13123908638954,36.54350382136181 L 107.59741520136595,35.59932587412186 L 106.25954223051667,34.266405353089795 L 104.68517668172717,33.1001349624712 L 103.98245552927256,34.09979321598075 L 103.22567887976766,38.77906975732185 L 103.13783879950643,40.68147889478132 L 102.7797212228179,42.34789450909011 L 100.90805051475763,43.451931768329814 L 100.37425277382135,44.486559682758525 L 100.06343378126621,45.82675373181701 L 99.98235061764717,47.23643486131914 L 100.50939143821597,50.36846061004326 L 101.874292075634,52.49365144176409 L 108.52311509847641,58.07106350385584 L 109.76639090850949,59.41864649322815 L 110.29343172907829,61.21086161327548 L 111.00966671481729,62.04447664692998 L 112.63133084774017,61.74576269462705 L 115.34086137264967,60.641234289389104 L 138.6320124566555,59.370021547423676 L 147.5241374336183,61.488731406861916 L 150.69313944876194,61.794390458613634 L 154.2810712903738,61.502624911954626 L 155.84192300587893,61.794390458613634 L 157.07844189554453,62.336246052291244 L 159.14606368541718,64.12858879705891 L 162.76778027415276,64.35090028424747 L 173.47752046212554,63.07957244198769 L 176.88977213948965,63.44776706909761 L 186.5657014325261,66.46292025223374 L 188.1333100683987,67.3661198625341 L 191.24149966612458,69.61725834500976 L 192.7955944687128,70.07583881472237 L 194.4172585979104,69.50608804589137 L 196.78218538314104,67.0326284179464 L 198.40384951606393,66.46292025223374 L 200.74174879863858,66.50460584647954 L 202.47152376174927,66.78251157701015 L 204.05264639481902,67.46338880551048 L 205.93107401952147,68.7973849719856 L 207.37030090764165,70.49273455818184 L 210.00550501793623,74.64802866638638 L 211.60689839720726,75.79463084531017 L 213.59343702346087,75.87107228604145 L 215.6610588133335,75.21785126416944 L 217.54624335467815,74.16160116251558 L 219.02601173892617,72.98030121973716 L 220.74227303639054,72.20205186889507 L 222.5261035002768,72.50084223598242 L 224.2356078773737,73.18876339821145 L 225.78294576331973,73.5639981077984 L 228.93167686089873,72.6676100352779 L 230.95875698700547,70.56221759621985 L 232.52636578679085,68.19986046408303 L 234.28316858038306,66.46292025223374 L 239.99953462556005,64.57321297866292 L 247.28350930288434,64.1146942304913 L 253.22285426035523,66.58797733322717 L 254.89181680977345,73.5639981077984 L 253.66205483302474,73.5639981077984 L 253.3444789238274,70.99996357387863 L 252.12823095172644,68.72790476633236 L 250.3916989043355,67.08821016480215 L 248.56056986004114,66.46292025223374 L 245.4388664253056,66.83114532520995 L 239.7427711300552,68.43608994362876 L 237.1683792695403,68.7973849719856 L 234.79669557139277,69.64505088189617 L 232.06013721227646,71.61837447201833 L 228.03976154699922,75.25954580120742 L 226.58026391267776,75.95446291053668 L 225.10725227743387,75.67649471247569 L 222.33015241846442,74.73141678725369 L 220.83011312037706,75.0927675680723 L 217.83679143339396,77.0663546777796 L 215.53943398222327,77.5945139741525 L 213.66100635379553,78.58135630004108 L 211.4852735698223,79.05393712641671 L 208.21491763740778,78.1296297069639 L 206.52568417415023,76.78837888943963 L 204.08643097802997,73.4528170551639 L 202.43098226189613,72.3966126863379 L 199.5930699892342,72.25764048169367 L 195.1267366670072,74.3839672668837 L 192.2280119806528,74.73141678725369 L 189.2279333770275,74.04346959362738 L 181.9169308654964,70.07583881472237 L 175.99109990894794,68.25544362748042 L 122.7937594614923,64.05911652371287 L 117.53686490654945,65.9557475601323 L 114.26650881022215,66.46292025223374 L 111.1448053792119,65.78205968323164 L 108.1447267755866,64.14248319761828 L 103.48244237527251,60.641234289389104 L 96.52280052378774,53.55628802371211 L 94.94167789071798,52.36863715806976 L 93.67137441784143,51.806077752960846 L 92.44161244481802,50.76432118099183 L 91.18482280522585,50.27817721595056 L 89.76586666703224,51.31992131378502 L 89.67126950249076,52.57699445169419 L 90.1645257435739,54.348074324429035 L 90.46858781948686,56.34844445530325 L 89.76586666703224,58.30723455734551 L 86.96173897758126,55.7233182201162 L 86.61713540181518,54.30640091816895 L 87.6104046292603,52.36863715806976 L 85.94819900020957,51.500493039842695 L 85.23872093111277,51.31992131378502 L 85.23872093111277,50.1531696615275 L 86.02928216382861,49.910100483801216 L 86.79957264661789,49.3892428886611 L 87.6104046292603,49.08367628301494 L 84.32653486728668,47.38921103300527 L 78.67098123580217,46.55589315155521 L 72.92758736014366,46.368398897582665 L 69.36668318510056,46.65311263501644 L 56.494724210351706,49.8267628736794 L 51.12296174094081,50.1531696615275 L 52.1297448053956,51.66023028641939 L 54.163582012057304,55.876126071671024 L 54.52845633774996,57.66818645782769 L 54.163582012057304,60.036882339278236 L 52.52164712920785,63.419978744350374 L 52.143258802592754,64.71215904736891 L 51.467565320432186,65.90711485291831 L 48.406674299389124,68.21375624788925 L 47.35934957489371,70.10363166360185 L 45.71065777540207,71.11808615690097 L 45.35929711535573,71.75734449899755 L 45.35929711535573,75.25954580120742 L 46.77825325354934,82.4316601944156 L 46.589059088379145,85.12848013686016 L 45.649845357984304,87.38060125824995 L 44.55382450297475,89.06521904584952 L 217.7865884900093,88.41355926636606 L 220.39530561864376,89.29639189736918 L 220.72997657954693,96.08160250191577 L 221.33924918994308,99.56073403754272 L 222.64360792189837,103.31835692725144 L 224.3598688878119,106.8952683811076 L 226.20484985783696,109.80560762877576 L 231.3793772868812,115.42815058259293 L 238.39888568222523,120.61413339572027 L 246.08773583173752,123.54314146772958 L 253.2788704112172,122.38564947876148 L 254.83208676055074,120.9012815519236 L 258.0500765070319,116.60310985869728 L 259.4574107117951,115.53416067757644 L 262.9929087795317,116.37783319898881 L 275.5044529289007,124.42232760693878 L 287.6126757450402,128.90250166878104 L 291.16533644869924,128.72575953183696 L 301.0510009974241,124.9524994767271 L 317.8188730329275,124.19258869648911 L 323.88585629314184,122.16475785244256 L 329.74688843637705,117.39379746234044 L 331.84930842742324,114.47849048208445 L 333.3338742405176,111.32931390730664 L 336.5604453869164,100.24070102162659 L 337.7103404067457,98.93817711202428 L 344.53247858956456,94.78362776245922 L 346.85801266506314,93.94040783192031 L 348.9089447557926,94.60262095648795 L 359.10353622585535,100.33783995197155 L 365.83128033578396,102.15261727548204 L 372.66199992224574,101.63157804566436 L 379.79306519404054,98.27589304512367 L 383.0067643225193,95.68425891478546 L 385.25077567622066,92.85440215561539 L 386.8297360613942,89.58773080003448 L 389.04800371080637,82.16806855867617 L 390.12495774403214,79.87756046443246 L 391.80260298773646,78.03730351803824 L 405.20231218636036,68.39165684836917 L 409.1926196552813,66.5078008219134 L 412.2261112034321,66.08427600190043 L 415.10513953492045,66.7813295032829 L 424.85779379308224,70.2844239580445 L 434.0612445734441,76.05592067237012 L 437.2105837762356,77.42831574613228 L 446.79161202162504,79.60835686419159 L 454.4718809351325,83.56715141609311 L 457.84004344046116,84.41456903424114 L 459.6249551102519,84.47636058367789 L 462.5125646777451,84.22919495031238 L 464.24598844349384,84.50284265633672 L 466.19823567196727,85.3767624576576 L 469.57927019521594,87.37625579745509 L 471.8061190806329,87.73820540471934 L 475.294420029968,87.12907249061391 L 479.51213186606765,85.65041807480156 L 483.4981485493481,83.61128728161566 L 486.2784916944802,81.32952443277463 L 487.13662242516875,79.84225494461134 L 488.19641365483403,76.60310806683265 L 489.05883483961225,75.164550665766 L 490.57343547046185,73.86283226823434 L 494.34062868729234,71.62573876045644 L 496.0182740986347,70.23147832881659 L 500.0,62.158056960674 L 499.3606927357614,53.42467145319097 L 494.6323931440711,46.17913387203589 L 486.40721137076616,42.563456148374826 L 473.8613419532776,41.478814623784274 L 467.1936671473086,39.67555087246001 L 460.5002484731376,39.59619141626172 L 453.3734736517072,36.999458112288266 L 450.498736102134,37.034726958721876 L 448.0101574137807,35.91055401763879 L 440.0338335894048,29.862586761591956 L 436.403940949589,28.059828074416146 L 431.59840958565474,27.89233861793764 L 422.58374778553843,29.59371057525277 L 413.1400204524398,28.75623896624893 L 408.64770663157105,29.108856659615412 L 404.3055657334626,30.347449473803863 L 398.25145449116826,33.49919607443735 L 396.4922866933048,34.71146995713934 L 394.9219077080488,36.13097751280293 L 393.65187441185117,37.8459135980811 L 391.79402175173163,39.78136366070248 L 389.584335334599,40.40742843877524 L 384.35832000523806,40.6190580308903 L 381.95555432513356,41.32008894183673 L 379.75015852600336,42.58109285472892 L 373.46006118133664,48.46775695309043 L 371.5635926388204,49.146871832432225 L 366.1831137649715,47.78865309478715 L 360.0303173325956,47.06105447676964 L 353.96333407238126,47.78865309478715 L 348.41122901812196,50.14792527910322 L 343.7773238308728,54.30674725607969 L 340.4306144118309,59.004120043013245 L 338.65428414568305,60.10686762887053 L 335.25608698651195,60.759708180092275 L 332.2097232565284,61.75663343141787 L 326.6576182022691,65.17988886777312 L 324.16045827791095,65.91663202550262 L 317.8017103970051,66.43721296172589 L 312.18953620642424,67.91516971238889 L 301.2483710460365,73.5451311445795 L 293.0017360188067,79.55981223192066 L 285.54458102211356,86.59939883206971 L 280.97932620719075,89.58773080003448 L 277.1863889545202,88.05160362645984 L 269.9695106744766,80.52189064607956 L 267.64397659897804,76.72666768287309 L 267.01754135265946,66.16368658212014 L 266.01352847367525,61.443437384208664 L 262.598168682307,56.970731139183044 L 257.8269624225795,53.78190997312777 L 252.38641440868378,51.75759955798276 L 246.9801916666329,50.75650714547373 L 240.86172050237656,50.74768712837249 L 222.74658339843154,54.62870969134383 L 217.56347457319498,54.8580542660784 L 213.67614291235805,53.38938876707107 L 209.84029915183783,51.28571606660262 L 204.84597914293408,49.605501151876524 L 202.1342863701284,49.33208692399785 L 190.93568202108145,50.43016504100524 L 188.8418432623148,50.37724487413652 L 181.38468842953444,47.98709138785489 L 169.80850645527244,46.86703023337759 L 167.88629404082894,45.799913722556084 L 167.2255335263908,43.39238846418448 L 166.5733542405069,16.482601006515324 L 165.45778432488441,15.65861184289679 L 25.93432965502143,16.932056520599872 L 20.14194804802537,15.632174005266279 L 17.68769446387887,11.464009206276387 L 17.16423485800624,9.825056074885651 L 14.538355257362127,7.225772394333035 L 13.4828544780612,5.8336800031829625 L 12.882163099944592,3.926235813414678 L 12.628709480166435,0.0 z" /></g></g></svg>