<svg xmlns="http://www.w3.org/2000/svg" xmlns:xlink="http://www.w3.org/1999/xlink" width="500.0" height="375.3268364055548" viewBox="0.0 0.0 500.0 375.3268364055548" preserveAspectRatio="xMinYMin meet"><g transform="matrix(1,0,0,-1,0,375.3268364055548)"><g><path fill-rule="evenodd" fill="#D2EBD9" stroke="#A6A6A6" stroke-width="0.25" opacity="1" d="M 119.96944068744779,126.03965485701337 L 118.58726639673114,127.07268826360814 L 118.30479821190238,127.83360622893088 L 118.5488726273179,128.877824136056 L 119.99960718303919,128.98335927980952 L 119.96944068744779,129.76933272182941 L 121.80959738790989,131.67188192438334 L 123.08481771871448,133.78291342430748 L 123.88011649250984,134.79405141319148 L 125.03467078506947,135.44409100757912 L 126.22761891037226,135.49965074728243 L 128.39137989655137,135.0607321956195 L 129.6336913332343,135.44409100757912 L 129.6336913332343,135.86912630940787 L 125.53653176501393,135.71633496508002 L 123.59490590542555,135.90524073969573 L 122.77218310907483,136.6108724095393 L 123.6936326622963,137.77771022566594 L 123.6936326622963,138.66676743351854 L 124.57120364159346,141.46195483230986 L 123.08481771871448,139.91983810835518 L 122.43212434276938,138.25557437958196 L 122.03995979204774,136.45252025988884 L 121.34887257963419,134.4718160557095 L 119.01233983784914,135.63577265571803 L 118.5488726273179,136.37751166592352 L 119.1275210082531,136.71921932301484 L 119.25915665924549,137.3526413491927 L 119.05347594246268,139.13353554485366 L 119.2893231511116,139.4530546744354 L 119.50871594622731,140.29493847605772 L 119.36611061915755,140.53389436216094 L 118.5488726273179,141.03959954157472 L 118.35416158661246,142.41228159866296 L 118.33496470376849,144.44088306534104 L 118.78471983596683,145.70259335637093 L 119.96944068744779,144.77158919768408 L 119.78569925948977,146.26955107226968 L 119.96944068744779,147.5702696600929 L 119.50871594622731,147.5702696600929 L 119.10283932089806,147.07276421342976 L 118.5488726273179,146.7892740969546 L 116.95827521756291,146.63641317700967 L 116.48109599202871,146.33625282743014 L 116.14652203023434,145.63033506437205 L 115.46640449017286,142.47063621087 L 115.0221341624856,141.82874316046946 L 112.778843306005,142.8013151474297 L 112.49637512117624,143.23759595188312 L 113.02566012367606,144.263026162982 L 112.35651226341724,144.8632984785363 L 111.69833401218057,145.9360448946245 L 111.22663959488273,147.24230399657972 L 111.14710972458124,148.5430759130977 L 111.60783446580172,149.8272412235383 L 113.0805083066225,151.75917962682433 L 113.53026343882084,153.20754226273857 L 113.02566012367606,153.20754226273857 L 111.39118413999677,151.93431282253005 L 108.89559159055352,151.75917962682433 L 106.61939183995128,152.48473976622336 L 105.62115481868386,153.90812577982433 L 105.15768760815263,155.9488332956098 L 105.16591488197446,157.0165221481584 L 107.01978359371424,159.7332315435633 L 107.3461303524673,160.80943622277118 L 107.46131151914597,162.07202409137972 L 107.00058671087027,162.07202409137972 L 105.51145845651627,159.02413154346868 L 104.60646338760853,157.73946411465295 L 103.36415188387036,157.3640876142308 L 102.42624791711569,157.96469294815324 L 101.49108628556132,159.21322282380424 L 100.799999140203,160.7093221109826 L 100.6025456301868,162.07202409137972 L 98.54299620166421,161.20433519221842 L 94.5692450106144,158.90177925885655 L 92.69343701004982,158.34007909195498 L 92.11753103509545,157.872932768194 L 91.57453401759267,157.74780592997558 L 91.31674752384424,158.1065047630109 L 91.45935278385878,158.68488354119472 L 92.69343701004982,159.26883817394264 L 94.88187968730927,162.39463461912237 L 96.27502365782857,163.99106656387448 L 97.07580716907978,165.80735029210337 L 98.08501386269927,167.41792650707066 L 98.27149769663811,168.48614276759326 L 98.26052802056074,172.89306007395498 L 98.57316269725561,173.21582218864933 L 99.49461224675179,173.57754374016076 L 100.13085127994418,174.78517892560922 L 102.08070434257388,175.88156669214368 L 102.44544473290443,177.05592894554138 L 101.05230082944036,176.2989870409947 L 100.2076386809349,176.09862433117814 L 99.5467180274427,176.5049172763247 L 96.60411281511188,180.0143666760996 L 96.37375041097403,180.79091627686284 L 95.45778566598892,180.36506325402297 L 96.19823618978262,178.2192196219694 L 96.4176289178431,176.2878557597287 L 95.69363287463784,174.75178718171082 L 93.61488656327128,173.78344937763177 L 91.13574849441648,174.03666021907702 L 89.90440667048097,175.65616282634437 L 89.72615004330873,177.85185820003971 L 90.39529797062278,179.85572003386915 L 93.1980403251946,183.38517540856265 L 94.297746501863,185.62338159861974 L 94.07561137154698,187.88130103680305 L 93.4914781190455,188.38247312721796 L 92.948481105268,185.50088696926832 L 92.22448499500751,185.05545742297545 L 90.89441648125648,183.11237440560944 L 89.93731556460261,182.700395592954 L 90.0223303064704,182.41090144426562 L 89.73163491487503,182.20213392865844 L 87.10714912042022,181.28357990295626 L 85.6920658648014,181.39213433815166 L 83.45700221136212,182.01842011720873 L 81.68540577217937,184.44300625217147 L 80.54182102531195,185.53429452283308 L 77.74182107299566,187.1601898188237 L 76.54613061249256,189.28182672080584 L 75.9482853487134,189.55470277834684 L 74.2479915060103,189.78859922871925 L 72.41057727485895,191.61530345026404 L 69.96983290836215,192.4228882547468 L 68.93320218846202,193.27506125555374 L 68.69461251050234,194.97393516916782 L 69.75592498481274,196.98490209202282 L 71.49461252987385,198.00716748088598 L 73.28540585190058,196.75650054612197 L 71.86758019402623,198.71748872078024 L 70.96532752364874,199.52533292444423 L 70.56767817214131,199.34704755665734 L 70.06033238768578,198.47792682400905 L 69.04015614837408,198.84005630784668 L 68.2585694566369,199.6284048485104 L 68.45053809136152,200.07134103868157 L 69.91224232316017,200.66472233226523 L 71.04759979993105,202.0827736465726 L 72.87130201607943,205.21451304364018 L 71.8867770768702,204.74082255084068 L 69.85465173795819,202.64556207717396 L 66.8434862010181,201.00738646183163 L 66.7200777567923,200.1716296595987 L 66.8434862010181,197.01275610248558 L 66.64603275805712,196.23842762340792 L 66.08658119291067,195.53375662048347 L 65.21997982636094,195.03520844783634 L 64.08462234959006,194.8903809527401 L 62.54064591228962,195.3527182682883 L 61.375121880322695,196.38883465225808 L 60.747110188007355,197.723045357503 L 60.815670382231474,199.09355043736286 L 61.89617967605591,200.21063097077422 L 63.55259494483471,201.433634666726 L 64.53163507953286,202.67342326371 L 63.580019034445286,203.810190086253 L 63.31674773618579,202.80715746665373 L 62.543388314545155,202.24436488188803 L 60.40156654641032,201.94347182591446 L 60.56611116230488,200.4112100112252 L 59.37316303700209,199.2606910262257 L 57.87580757215619,198.80662867287174 L 57.13535698130727,199.34704755665734 L 55.97531782090664,201.16339792544022 L 55.75866749510169,202.17749936296605 L 56.685601849108934,203.5315652678255 L 56.42781542241573,204.02473358507268 L 56.06581736728549,204.15847605420277 L 55.40763911604881,203.8380527566187 L 54.658961318433285,202.47839570278302 L 53.17806027084589,203.30309563688934 L 49.116551999002695,207.03135080682114 L 47.47659121081233,207.59426689636894 L 44.654651902616024,207.15117822634056 L 43.75239923596382,207.59426689636894 L 42.36474006995559,206.23437569173984 L 41.68462260067463,206.95889729866758 L 41.46522980555892,208.63932305760682 L 41.44877539202571,210.16937606595457 L 41.98080279678106,212.37685625441372 L 41.95612110942602,213.24653155496344 L 41.65719844400883,214.14133032876998 L 36.6550437361002,219.18467773823068 L 35.931047692894936,220.69038474350236 L 35.73633665591478,222.1292707384564 L 35.761018343269825,223.87781535321847 L 36.0983346439898,225.44800279987976 L 36.80587626993656,226.3516802585218 L 35.700685288757086,226.25405890028924 L 33.58354527875781,224.47742920857854 L 32.66758053004742,224.14275891147554 L 31.515768576413393,223.96427030698396 L 30.47365305200219,224.16228121728636 L 29.903231877833605,224.9487654021941 L 29.44250713661313,224.9487654021941 L 28.97629752010107,224.08140328875743 L 28.532027192413807,224.3881832435727 L 28.200195632874966,225.38664340297692 L 28.126150634139776,227.79094992228784 L 28.307149592787027,228.7114644255489 L 29.025660898536444,230.60561917955056 L 29.77159622684121,230.3573328917846 L 31.658373903483152,232.1623569696676 L 32.66758053004742,232.90170828159899 L 31.038589350879192,232.94076911453158 L 30.495592337101698,233.8280267706141 L 30.577864609658718,235.07806360162795 L 31.400587406009436,238.90676651569083 L 31.935357213020325,239.87242510099895 L 32.66758053004742,239.4593632996548 L 33.0844267681241,239.4593632996548 L 33.2160624191165,240.48365987371653 L 34.54887333512306,241.63082039216533 L 35.42644438147545,244.69580890773796 L 37.05543556064367,247.97344919550233 L 37.99059712141752,248.35596760525368 L 38.51439731940627,249.27739163697697 L 38.60215440019965,250.37477773986757 L 38.22918673232198,251.29629245889373 L 39.15063628554344,252.61440978734754 L 37.82331017404795,252.22343388968147 L 37.645053550601006,251.69004321401007 L 37.875415954738855,250.9276815969497 L 37.727325823158026,249.8498121870216 L 34.21429943665862,247.21401765546761 L 33.07345709204674,245.4886485231109 L 32.13281072303653,243.64897218137048 L 31.351224027574062,241.42427104571834 L 30.42428967356682,239.94499080395326 L 28.526542387902737,237.628593665082 L 26.62331023067236,235.94866902683862 L 25.69911827892065,235.60265481867827 L 25.301468927413225,236.4342147372663 L 25.435846976935863,237.50301320641302 L 25.814299516379833,238.2565071694553 L 26.398432698100805,238.7448974994477 L 27.1471104323864,239.02956450241618 L 26.24211535975337,239.12445441447198 L 25.301468927413225,238.5662848467473 L 24.382761776447296,239.4593632996548 L 25.22193905711174,242.19186359690502 L 25.748481657356024,243.36145028541796 L 26.469735361635685,244.43898002570495 L 28.296179983764887,245.86832899204455 L 28.965327844023705,247.04649970843457 L 28.065817579627037,247.5043851803057 L 27.17179211974144,246.33735574246384 L 24.12771775200963,243.96999647724442 L 23.34338865429163,242.80316677573137 L 22.556317154318094,240.24083840986714 L 21.62115552648902,239.4593632996548 L 20.968462146818638,240.79347072564997 L 19.42997044697404,242.59102298808284 L 19.279137913137674,244.18494596355595 L 20.186875451356173,244.1514471436385 L 20.968462146818638,244.7795581286773 L 22.038001760840416,246.56628928822465 L 22.580998845398426,248.50395112950355 L 22.65504391118884,249.38628992671147 L 22.539862673729658,249.8498121870216 L 22.95945131406188,251.29629245889373 L 21.71713987737894,250.37477773986757 L 21.286581628024578,249.81630421825685 L 21.122037015855312,249.16849385621026 L 20.795690327882767,248.866933980491 L 18.862291745841503,247.97344919550233 L 18.36043083295226,247.97344919550233 L 18.33574914187193,249.49239651556127 L 18.862291745841503,250.7852655686438 L 18.456415116786957,251.41357909375802 L 18.40979414060712,252.0223635311704 L 18.68951992318034,252.59486079774797 L 19.279137913137674,253.128275150666 L 18.012144789099693,253.24836515379138 L 17.617237839847803,254.04991396609694 L 17.81743374839425,255.0916951422114 L 18.36043083295226,255.94359339983203 L 19.20783531665802,256.4910616239067 L 20.38707136362791,256.937985308934 L 22.751028195023537,257.3458117756527 L 23.546326968818903,257.78716750466265 L 24.588442493230104,260.1561267047655 L 25.723799966275692,260.4690288496204 L 26.982565883547068,261.9777320283465 L 28.065817579627037,262.54771588370204 L 27.221155498176813,263.35801485273987 L 26.686385687440634,264.461750269169 L 26.354554127901793,263.1959524671547 L 26.02546503394842,262.73212588671595 L 23.880900863558054,261.8631784073077 L 23.609402358531952,260.4913791976869 L 22.888148717582226,259.3403689460829 L 21.85700273513794,258.79841106012464 L 20.661312274634838,259.26494093448855 L 19.986679542809725,258.792823886266 L 18.862291745841503,258.7537141253706 L 19.251713823527098,260.06952073820867 L 18.862291745841503,260.90765869803727 L 18.228795181959867,261.08367211697623 L 17.89970602095127,260.4131531214807 L 16.01567081734538,257.8570031723939 L 13.917727623134851,258.2564675938338 L 12.582174237817526,262.1677248580381 L 10.955925460904837,262.07831626501866 L 12.10773741453886,260.89089564117603 L 12.288736443966627,259.6253216555342 L 11.457786370068789,257.3458117756527 L 10.053672790527344,258.4184903923888 L 9.247404407709837,258.7201915231999 L 8.191576804965734,258.7537141253706 L 10.429382856935263,257.03854452003725 L 11.23565123975277,256.1307364802342 L 11.457786370068789,255.00511077442206 L 10.799608118832111,253.751074958127 L 9.524387788027525,252.47756738984026 L 8.29030355811119,251.59230293915607 L 7.73085206374526,251.50852596154436 L 7.590989205986261,251.7067986894399 L 7.272869657725096,251.77382093458436 L 6.8121449165046215,251.50852596154436 L 7.272869657725096,250.08157727890648 L 7.272869657725096,247.73891585087404 L 7.558080244809389,247.34803295345046 L 8.82507336884737,246.62212712760083 L 9.113026358187199,245.86832899204455 L 8.191576804965734,244.18494596355595 L 6.982174266129732,244.787933049025 L 4.53046029061079,245.1703923183959 L 3.340254634618759,245.86832899204455 L 1.922428973019123,247.35082494094968 L 0.7870714999735355,248.911609263625 L 0.11243876814842224,250.39153220807202 L 0.0,251.73193199699745 L 0.4579824097454548,253.01097868056968 L 1.4973555319011211,254.32082781777717 L 3.3183153457939625,254.97438738192432 L 3.5925563238561153,255.23972739302553 L 3.8777668438851833,256.21732563572004 L 4.470127303153276,256.9184322403744 L 4.470127303153276,257.3458117756527 L 4.168462302535772,257.32346496428363 L 4.05328106507659,257.8570031723939 L 5.966770306229591,259.82935827528127 L 8.227146349847317,262.54553611017764 L 14.691334389150143,275.10753413150087 L 16.03223542496562,280.5053446427919 L 17.04574767500162,283.08935870975256 L 23.732838701456785,292.9365995610133 L 24.94139102473855,294.28181044454686 L 26.57833516970277,295.1863705825526 L 29.36810600757599,295.48493809159845 L 34.97028615325689,294.83449347130954 L 37.75483267754316,295.33565372671 L 50.002309542149305,302.0581470297184 L 50.86083447188139,302.74439295427874 L 52.09202553331852,305.08065802627243 L 52.619678776711226,305.6745487204753 L 53.34063081070781,306.065744219115 L 54.07899706810713,305.8061317796819 L 59.72123010456562,305.43627893016674 L 61.274585638195276,305.64609841117635 L 61.95722619816661,305.5216289786622 L 63.77179626375437,304.2023027522955 L 64.87412137165666,303.94271554774605 L 68.90030744671822,304.35876795393415 L 71.84506546705961,303.88226426928304 L 73.10411937534809,304.34454377298243 L 76.5434434749186,306.5351894397754 L 78.00450325384736,305.8025754299015 L 79.35933574661613,305.82746961759403 L 80.52086951583624,306.5280765378848 L 81.38984307274222,307.8333367735613 L 81.58140038326383,308.49489240860566 L 81.72593907266855,310.07062571076676 L 81.42118882015347,310.8496482260525 L 81.62319469079375,311.2160488173831 L 82.63496552035213,311.19826222676784 L 83.22531025856733,310.77494599018246 L 83.44821324944496,309.398344286019 L 84.01591945067048,309.0426494709682 L 84.98763738945127,308.7652121009305 L 84.88315159082413,307.8119966916274 L 85.28193901851773,307.3033974249847 L 86.63503009825945,307.11134254490025 L 88.36601148173213,307.4314351323992 L 89.99947272986174,308.0858633951284 L 91.06696932762861,308.886145854136 L 91.41525530442595,309.8002874625381 L 91.76528269425035,312.7599894455634 L 91.77921421825886,313.994520915905 L 90.75002909824252,322.10815118439496 L 90.97293208912015,324.97011039126664 L 91.56153540685773,327.75773889315315 L 91.47098106890917,329.06091143912636 L 90.73087332770228,330.1968114338815 L 90.09002713859081,330.5172972837463 L 87.7164580821991,330.8912045599427 L 86.6210987046361,331.36839237622917 L 85.82178230211139,331.9203786905855 L 84.34679113700986,333.562190229306 L 83.48652472347021,335.16140498779714 L 81.64583329111338,335.8096785864327 L 79.65189595893025,337.56939331651665 L 78.36497920379043,338.3638136931695 L 76.9996981471777,338.812694223132 L 75.23388818651438,339.0620770000387 L 74.71668350324035,339.31502582039684 L 74.99705367162824,340.07389335124753 L 75.00401939824224,341.54896530904807 L 75.17467959225178,342.2580397541169 L 76.64444644376636,343.9399745259434 L 80.74028967320919,345.8572843198199 L 82.37026815861464,347.20451116980985 L 83.64847777038813,347.9743998995982 L 85.49265203252435,348.41995234857313 L 86.63503009825945,348.084895912325 L 85.76779802143574,346.52375704585575 L 90.33208583295345,346.5807826635428 L 92.28771175816655,347.311438215198 L 93.41964119672775,349.06513156811707 L 93.68956287205219,350.8831633855589 L 94.22940615937114,352.22006806731224 L 94.15278320759535,355.8997407394927 L 95.4814942702651,359.3162344316952 L 95.7322601750493,360.5003903103061 L 95.55115142464638,361.68105747387744 L 94.79014656320214,363.08297808654606 L 91.3943581841886,367.36790227657184 L 90.75002909824252,369.24488883442245 L 90.63683608546853,370.78302403655834 L 91.17842085659504,375.3268364055548 L 112.9828653037548,374.52364216861315 L 116.22540791705251,373.6348166631069 L 117.44092596694827,372.9673345508054 L 117.83448921516538,372.99588945508003 L 118.50145683437586,373.4706208547577 L 121.11186033859849,373.94179543992504 L 121.67956653982401,373.78473582305014 L 122.51022862270474,373.2421770435758 L 123.09709052741528,373.145803184947 L 125.3313451372087,373.5991217470728 L 126.6548318862915,372.5640019790735 L 127.77979566156864,372.86739288736135 L 128.8577408194542,372.9352103730198 L 129.30180538073182,372.89237825013697 L 129.83642442151904,372.524739992572 L 130.46856346353889,373.2921489349101 L 131.68234016746283,372.66394192469306 L 134.08203065395355,372.89594756113365 L 135.10947429388762,372.7388972551562 L 135.97322360426188,371.7966247522272 L 136.26404239982367,370.49751323857345 L 136.19090234860778,369.1092823515646 L 135.93491213023663,367.9209861031268 L 134.93184850737453,365.5731748819817 L 134.6880483329296,364.4350618266035 L 134.9875742048025,363.09368024230935 L 135.7642520070076,361.9806954290252 L 136.7586085498333,361.43849715939723 L 137.92884939536452,361.32078525656834 L 139.2349219210446,361.4670335368719 L 140.4365085810423,360.9961897539906 L 141.54057517275214,361.07466282253154 L 142.3172529041767,361.7523994015064 L 142.53841454535723,363.08297808654606 L 143.66686115413904,365.8336310761515 L 146.11705309152603,365.8621744175907 L 148.75183661282063,364.4850088323001 L 150.42535081878304,363.00806352030486 L 150.2877778597176,362.27320391638204 L 150.43057506531477,361.68462460138835 L 151.1393370591104,361.031859212555 L 151.7836662121117,360.7821738743223 L 153.781086307019,360.6359312622808 L 154.85554856806993,360.11517442041077 L 155.54341344162822,358.8704128069803 L 156.93307458236814,358.6885208673775 L 161.28664937615395,358.93461044318974 L 162.67108627036214,358.77411685255356 L 163.98586587235332,358.22844928829 L 165.0951567105949,357.3261725923512 L 166.99157397076488,355.2043961393647 L 167.35204992443323,354.5483008080628 L 167.40255144238472,354.066941635916 L 167.64809303358197,353.7995254797861 L 168.60936234891415,353.7710013522301 L 169.1997071504593,353.9457125221379 L 171.16752298548818,355.03323850478046 L 172.48404407128692,355.5467162888963 L 173.61945640668273,355.77849922236055 L 174.78621442243457,355.72501061996445 L 176.2019969932735,355.37912127468735 L 179.1241164803505,354.3200993689243 L 180.32918597012758,353.44654224044643 L 182.24301752075553,350.4945883140899 L 183.33489406853914,349.93847704771906 L 194.7168802767992,352.9152975289617 L 197.21060800552368,354.31296810973436 L 199.44312119856477,356.3633186868392 L 200.65167352184653,356.9588555903174 L 202.3234463110566,357.01234793127514 L 206.3879438638687,355.6536926617846 L 207.82288213819265,355.5110576620791 L 208.71797712892294,355.69291750714183 L 212.0266939997673,357.6257377262227 L 212.78595751151443,357.7469916336704 L 217.08380667865276,355.835553948069 L 218.46998491883278,355.5324528021738 L 223.98335213586688,355.30067303660326 L 226.52932273223996,355.72501061996445 L 231.71530109271407,357.6685331335757 L 234.51552049070597,358.1927852721419 L 240.32144798710942,358.63502360112034 L 242.59575549140573,358.39963734615594 L 247.01898751035333,356.79481350490823 L 248.8788347132504,356.7199252336286 L 248.86490331962705,355.37912127468735 L 247.58669371157885,355.2043961393647 L 245.96368102356791,355.2757123177871 L 244.91534019634128,354.6944939221721 L 244.6297456473112,353.1470466305036 L 245.07206886261702,350.4161613630131 L 245.09296598285437,348.8263056378346 L 243.83565355837345,346.0996352080256 L 241.9200806580484,344.0967730258126 L 240.8334283567965,342.0763144714292 L 242.05939503386617,339.29008704656735 L 243.32715608552098,338.14650243218057 L 247.45434506237507,336.3048039844725 L 248.65593172237277,335.3288141589146 L 251.37952816858888,331.65328651224263 L 252.5010090470314,330.67398130032234 L 253.81753013283014,329.7873096973635 L 256.5237122923136,328.61226795520633 L 257.8367504812777,328.60514670750126 L 260.0065721832216,329.50956583209336 L 261.10715587437153,329.57009943784215 L 262.17291098833084,329.8620875917841 L 263.1724918447435,330.90188771416433 L 263.89344388246536,332.21952651813626 L 264.31486984342337,334.21040748618543 L 265.87170827388763,334.7339843234513 L 267.19867791980505,336.7073258268647 L 269.3754653520882,338.28187637077644 L 270.1521430872381,339.1725190069992 L 271.0263408906758,342.1333261844702 L 271.5313555970788,342.8281697956845 L 272.44386487826705,343.0170292353723 L 274.0146346986294,342.9600149032194 L 276.9437199123204,343.93641097075306 L 278.28462101891637,343.99699205649085 L 279.93201372399926,343.54798437817954 L 281.13708321377635,342.6642555757426 L 283.8432653732598,338.41012620949186 L 285.4105523638427,337.2345358831808 L 286.99177074432373,336.4829099306371 L 288.20380603149533,335.48197698942386 L 288.63568061962724,333.562190229306 L 287.7928285636008,331.7316331251059 L 287.6987913250923,331.1725302047562 L 288.01224872097373,330.44251674739644 L 289.8163701631129,328.6087072964292 L 292.55738089606166,323.35041554435156 L 294.5112653411925,321.3179859193042 L 297.3010361120105,321.43188151181675 L 298.3040997311473,321.90882707061246 L 298.97280883416533,322.5566382682882 L 299.71465798839927,323.7312981807627 L 300.3137098699808,325.0021497369744 L 300.56447584182024,325.9526751067024 L 301.0869048386812,326.64334944449365 L 302.3093886189163,327.4835857411381 L 303.7025325894356,328.202801235253 L 304.74739058315754,328.5374951635022 L 304.2737216204405,330.0579358469695 L 305.0190536752343,330.8912045599427 L 306.37040327116847,331.5357671112288 L 307.73916729167104,332.5151178431697 L 307.58940428867936,334.40630184602924 L 308.4566363617778,334.95837891614065 L 307.9028616845608,336.3439871559385 L 307.97251883894205,337.00655127945356 L 309.1950026862323,337.4447116374504 L 312.41664811223745,337.18822626024485 L 313.54509472101927,338.7521302967798 L 316.74932585656643,341.2852963246405 L 317.6374551206827,340.69027368933894 L 318.63703591004014,340.34467060281895 L 318.5882758758962,341.335179337766 L 318.9713904261589,341.605975240469 L 319.58437383174896,341.65229601808824 L 320.22173719108105,341.9943605486769 L 320.64664604887366,342.79253609944135 L 321.12379790842533,342.439766705269 L 321.3188380487263,342.0442454952281 L 321.49298100546,342.03711912524886 L 321.9004756435752,342.85311332088895 L 324.46386052668095,343.8829572426621 L 325.0002209804952,343.6050006148871 L 325.7525186948478,342.7283956906758 L 327.9745833314955,342.28298250120133 L 330.3394451774657,341.15346329123713 L 331.6559662632644,340.8969260652084 L 333.78399366140366,340.8969260652084 L 334.4457370340824,340.59763718862087 L 335.89808966591954,339.4610964928288 L 338.39878298714757,339.03713856986724 L 339.2137722633779,338.61319037224166 L 340.58950194716454,337.530207535252 L 342.6966321542859,336.73582324991 L 345.0440797805786,335.4855389709119 L 347.63184468075633,334.9049514140934 L 349.9514293856919,333.0422080620192 L 351.16694743558764,332.4581360111479 L 353.664158064872,332.6682573305443 L 354.381627202034,332.3762249397114 L 356.1613686233759,331.0977470241487 L 357.37340384349227,330.7060304747429 L 361.1244439929724,330.6205661788117 L 362.7544224113226,332.38334763608873 L 363.59727453812957,333.5657517025247 L 363.91769759729505,334.4383574896492 L 363.7749003879726,335.8631087113172 L 363.86893755942583,337.03861144790426 L 364.3495722524822,338.1037530687172 L 365.37005016207695,339.1938949895557 L 367.5154919140041,340.59763718862087 L 375.1011607646942,343.141748836264 L 377.5287141017616,345.1266871516127 L 380.27320773527026,346.4310909360647 L 381.44344871491194,346.5914749521762 L 385.5776034221053,345.8715401852969 L 387.1518560759723,347.4718299971428 L 387.4827277623117,348.3629210276995 L 387.27375616133213,350.0026428105775 L 388.16188549250364,350.2557436164934 L 388.7644202709198,351.35017752763815 L 389.0604633130133,352.6585943051614 L 389.015186175704,353.5356787284836 L 388.6355544514954,353.87440160661936 L 387.5001421160996,354.12755656731315 L 386.993385925889,354.42350270296447 L 386.671221382916,355.0795935585629 L 386.45528412237763,356.20641404087655 L 384.59891974925995,357.2191863390617 L 383.3799188025296,358.38537159515545 L 382.4047180302441,359.5658993294928 L 382.04598342627287,360.27211324474774 L 383.01770136877894,361.50627109548077 L 386.20451821759343,362.2910399453249 L 387.32948192581534,363.0972475830931 L 388.1827826090157,363.1186518492177 L 390.0321811847389,362.2339646737091 L 391.0526591613889,362.9688226627186 L 391.9338227622211,363.02233295701444 L 397.0814897157252,361.9200539733283 L 399.9235033541918,360.97122104419395 L 410.2675972953439,355.5895067478996 L 411.4761497490108,354.29157428001054 L 412.2284474670887,352.74416161794215 L 412.3398989289999,351.2218366081361 L 411.7303984872997,349.6889454938937 L 410.1282829195261,346.862348892726 L 410.0168313905597,345.05541091924533 L 410.23799296468496,344.3676097970456 L 411.61546406149864,341.7983853290789 L 412.43393616750836,341.8268906613812 L 413.7609058134258,342.36850096611306 L 414.7709351629019,341.78413257631473 L 415.6555815935135,340.57625956926495 L 416.18497632071376,339.051389047876 L 416.12228482589126,337.508833557833 L 415.11225540935993,334.79809680534527 L 414.8196951970458,333.2986357563641 L 415.10180684924126,331.9951651941519 L 416.3417049832642,330.9624257963151 L 417.82888619601727,330.8805214117747 L 419.371793102473,331.0621360426303 L 420.7719027996063,330.8093004212715 L 421.9978695437312,329.74101874162443 L 422.2904296889901,328.57310116128065 L 422.3269997499883,325.796030952828 L 423.47808495908976,323.7099400416482 L 423.53381072357297,322.8912308686413 L 420.1484708338976,305.3153671231121 L 421.4092661552131,305.4007165625226 L 423.6557108089328,304.2129707732238 L 424.86774602904916,303.8004775131121 L 426.26088999956846,303.9996110710781 L 427.35102519765496,304.50456617679447 L 428.28443159908056,304.7321559684351 L 429.20390667393804,304.0849546389654 L 430.6980535425246,299.12854374945164 L 430.9244394302368,297.88964060205035 L 431.4851798377931,296.50152373383753 L 432.98629250377417,294.20361858513206 L 436.6641926057637,292.52967829233967 L 438.4822454340756,292.4052935997024 L 440.20974392071366,293.7700150774326 L 440.5858928114176,292.91172203747556 L 441.1570818461478,290.19137912010774 L 441.6934422329068,289.1804537633434 L 442.4875343218446,288.8766533988528 L 444.35086442157626,288.82335561094806 L 448.42232763394713,287.5780045927968 L 450.4493520632386,286.6027423965279 L 451.9539476297796,285.34865145455115 L 450.73842944577336,285.02892440231517 L 449.33831981197,284.37350024445914 L 448.53377916291356,283.48009824892506 L 449.0805881768465,282.45175941986963 L 450.3204862475395,282.22087899944745 L 451.5534186512232,282.4233431837056 L 452.2430249415338,282.11076777777635 L 451.8599103875458,280.33131328597665 L 451.07278402894735,279.4203373931814 L 449.8398516215384,278.99949140497483 L 448.47805339843035,278.92491204151884 L 447.2869152985513,279.06696820491925 L 444.6817360408604,279.6618396148551 L 444.0513384155929,279.17173531185836 L 443.34083500504494,277.6340232871007 L 443.7518124729395,276.6237440754194 L 443.6333952844143,276.12838876014575 L 442.4979829490185,275.8230145215057 L 440.0599809847772,274.56428337446414 L 439.2415088787675,273.37486459477805 L 438.8549114279449,270.9270159206353 L 438.2837224602699,269.84608197724447 L 437.68815341219306,269.53015497443266 L 436.32461370527744,269.5088566788472 L 435.7725804448128,269.29587524710223 L 435.15263137593865,268.47059366921894 L 435.2536343447864,266.3569629602134 L 434.54138945415616,264.9852629811503 L 431.4329369701445,261.8198852131609 L 430.280110348016,259.81871429271996 L 430.02237871289253,258.6106563382782 L 430.32538755238056,257.5321573498659 L 431.35631408542395,256.81555476854555 L 432.41510347276926,257.1348300098907 L 433.57837872207165,257.7432405902073 L 434.90883120149374,257.88159890519455 L 437.2597615867853,257.6669664946385 L 438.45438258349895,257.80709816748276 L 439.53755198791623,258.1405797682237 L 440.7495872080326,258.97608187329024 L 441.4182963781059,260.0244993325323 L 443.1632091552019,263.7147937284317 L 444.28817293047905,263.71124507370405 L 445.6395225264132,263.27476168749854 L 447.00828654691577,263.3244423130527 L 447.71878995373845,263.5054224608466 L 449.5856028869748,262.9678095392883 L 450.24734625965357,263.0653949920088 L 451.5499358214438,263.7928649741225 L 452.35795936733484,263.8141571346205 L 453.841657679528,263.05120069743134 L 455.2382844798267,261.727628310211 L 456.27965957671404,260.14513293863274 L 456.687154147774,258.5964651708491 L 456.78467428684235,251.50213054171763 L 456.6349112801254,250.22541212569922 L 455.75723057985306,249.07466044067405 L 454.3466723896563,245.25583207141608 L 454.2038750462234,243.84123681369238 L 455.9801336377859,243.14461072604172 L 456.27965957671404,241.9233561027795 L 457.3314833007753,228.35611271345988 L 458.0802981853485,226.5600889842026 L 460.13866835832596,223.72112333751284 L 461.8243725411594,220.54079878749326 L 463.05730494856834,219.89983314811252 L 464.5096575804055,219.86973293311894 L 466.06301311403513,220.17604798381217 L 467.6755772419274,220.9675296829082 L 468.1213832870126,220.80816855910234 L 468.7970581203699,219.73516828822903 L 469.01996117830276,218.90123981260695 L 469.1000668928027,217.08831023867242 L 469.46576722338796,216.21199783775955 L 470.7718396820128,215.28615503711626 L 472.52720108628273,214.95335704251193 L 476.19116966053843,214.77987937256694 L 477.5007250867784,214.02048810594715 L 478.4933400787413,212.5655054987874 L 479.18991209566593,210.83806228125468 L 479.6357181444764,209.27180116507225 L 479.7715496905148,207.5127681584563 L 479.40584935620427,205.92020517867059 L 477.94653106480837,202.6328151996713 L 476.76235869154334,201.01230317843147 L 476.19116966053843,199.0982717499137 L 474.8990286588669,197.4161136704497 L 473.3491559550166,196.54589924262837 L 469.91853899881244,195.25302209006622 L 468.65426084399223,194.0840149151627 L 467.2924626208842,192.2307078661397 L 466.5680277533829,190.51193911395967 L 467.2158396691084,189.75692526320927 L 468.06565752252936,189.45280506485142 L 467.80792589113116,188.78623068379238 L 466.979005292058,188.12144414242357 L 465.53361838683486,187.56629191245884 L 465.47440972551703,186.96165126818232 L 465.93414729833603,185.7064552460797 L 466.92327946051955,185.4483532726299 L 467.17056253552437,185.066509145312 L 467.43177700042725,183.50384443323128 L 466.79789647459984,183.0071377637796 L 467.07304246351123,182.3849441842176 L 467.3516712859273,182.28596036392264 L 468.6159494370222,182.39201447856613 L 468.925923936069,180.92851271107793 L 466.35905615612864,162.52081508096308 L 466.62723641842604,159.4604754236061 L 466.94765954464674,158.24739946401678 L 467.45267418399453,157.1562146418728 L 471.37437446042895,151.570426043123 L 472.50282106921077,150.3506971427705 L 473.60688765719533,149.7735101438593 L 475.0731716789305,149.46991898515262 L 477.8176653124392,149.51581045007333 L 479.2003606557846,150.03827310353518 L 481.76374553889036,151.49275694601238 L 483.1882352568209,151.79284359142184 L 485.97104036435485,151.78931316686794 L 486.3228092379868,151.1962044504471 L 484.5465506501496,145.75300713116303 L 484.330613322556,144.17534841108136 L 481.9239571020007,138.24505808134563 L 481.9970971569419,135.75939385779202 L 485.4242313504219,134.3958271148149 L 486.9392754100263,134.82623311667703 L 487.5000158138573,134.7133390433155 L 488.42297372221947,132.96707482263446 L 489.1543743163347,132.21569070476107 L 490.65896974876523,131.0428017473314 L 493.4661548733711,129.46434106491506 L 494.3159726597369,128.4256108473055 L 493.1422488503158,127.54916134756058 L 488.9070912413299,127.15415214793757 L 482.8608464002609,124.05072924448177 L 481.84385132044554,122.9734391500242 L 481.1855908446014,121.31263564387336 L 480.8582019880414,119.70130425132811 L 480.57260743901134,116.35380652081221 L 479.3431579321623,110.44081288995221 L 480.01883276179433,108.33679225016385 L 483.10464664548635,107.39761680574156 L 484.5987935140729,107.22493926109746 L 488.63891104981303,105.99508562474512 L 489.6471989825368,106.3950457801111 L 490.0425035767257,106.3844741533976 L 490.48134396225214,106.09022978344001 L 491.34161030873656,104.85514568327926 L 493.07955742254853,103.1603061107453 L 494.6921215504408,100.21662665950134 L 495.3242605961859,99.47855779225938 L 497.203263502568,98.21032673423178 L 497.68389819189906,97.62202976830304 L 498.035667065531,96.34684513229877 L 497.87545550242066,93.73150459351018 L 498.028701338917,92.2927396777086 L 498.8680705651641,89.4594683428295 L 498.8645876646042,88.27624166477472 L 498.38047021254897,86.56312283221632 L 498.1714985445142,84.93285871646367 L 498.5998903699219,83.47873423341662 L 500.0,80.58656737417914 L 496.0713340640068,80.1553218383342 L 494.21148686110973,80.41230815812014 L 492.68251141160727,81.3804295042064 L 490.5649325735867,85.6511482920032 L 489.1230285689235,87.603657532949 L 487.6462959870696,87.3624469731003 L 487.39901284500957,86.33248532307334 L 487.5766387656331,85.20749651361257 L 487.454738676548,84.24979744851589 L 486.3088777139783,83.72166955168359 L 485.180431175977,83.76039859233424 L 484.08507166057825,84.0895975632593 L 483.12206093221903,84.62829569727182 L 482.3836946748197,85.28143795696087 L 481.03234501183033,88.06495681311935 L 480.19645861536264,88.72874915110879 L 479.23518930003047,88.90482416562736 L 476.19116966053843,88.24102742690593 L 473.8350149616599,88.27272026613355 L 472.6595497354865,89.14428818714805 L 472.0848778709769,89.33445230009966 L 470.7195968180895,89.22880538459867 L 468.4801178909838,88.33610605937429 L 467.1043882109225,88.19172754674219 L 464.6907662637532,88.68296980462037 L 463.75039406865835,88.55619669053704 L 460.4765057750046,85.94868098385632 L 460.1038397811353,85.46805301937275 L 460.1108055114746,84.6494212988764 L 461.28452925384045,82.30457845027559 L 461.3924979530275,80.90340530290268 L 460.5600943900645,77.0241611294914 L 460.7168230526149,74.47057479200885 L 460.5183001495898,73.6874768761918 L 459.4177163913846,72.52431065542623 L 459.32367915287614,71.80813500867225 L 464.9206350483,68.10966326203197 L 471.4858259893954,66.09172828309238 L 472.13015500828624,66.18320943345316 L 476.19116966053843,67.58009468833916 L 477.02705612406135,67.59065081807785 L 477.08626471832395,66.92738494672813 L 476.19116966053843,65.147027235711 L 475.7871579192579,63.07478111842647 L 475.81502083688974,62.049270894611254 L 476.19116966053843,61.08360251155682 L 477.44848208501935,60.32551510585472 L 478.5699630305171,59.076739153359085 L 479.3919179663062,57.581800227519125 L 479.7680668570101,56.09397659031674 L 478.5734459273517,56.188941687811166 L 477.1036790050566,57.268752636387944 L 476.44193556532264,57.48155429773033 L 473.6208191141486,57.01902065961622 L 472.5933754108846,57.054194025695324 L 472.7187583297491,56.47383886692114 L 472.6073068678379,54.827806655550376 L 471.9177005775273,52.17958786757663 L 468.5637065023184,47.070254920748994 L 468.4069777727127,44.338391069322824 L 468.9085095822811,43.631735677365214 L 470.4131051450968,42.32394231506623 L 470.75790829211473,41.582183085381985 L 470.62730099260807,40.90020349225961 L 469.4901472404599,39.88077994110063 L 468.9851325340569,36.52045483747497 L 468.6647094041109,35.536333767930046 L 466.49837059900165,33.041034639114514 L 466.5993735007942,31.81103694275953 L 465.2619552947581,30.834104480454698 L 463.9140885286033,29.11225331411697 L 463.5936654023826,28.339210390578955 L 463.75387696549296,26.24155612057075 L 461.8174068816006,24.063246704172343 L 459.3654734566808,25.134814208606258 L 456.8125371336937,27.12346609425731 L 454.55216109007597,27.70322226686403 L 452.15943633019924,26.986434498336166 L 450.9056067354977,26.88453966914676 L 449.29304260760546,28.729243125999346 L 447.59340696781874,27.8437709196005 L 444.53197310492396,24.994278491474688 L 440.3281612470746,27.90350435464643 L 439.0673659220338,29.442559686489403 L 438.64593982696533,31.301481808535755 L 439.0081573277712,33.84934737998992 L 430.97668236494064,34.26757019641809 L 430.44380474090576,32.91100383689627 L 428.67799477651715,30.75679479027167 L 428.21303302794695,29.347684101434425 L 428.04759715124965,26.996975414687768 L 427.4311309121549,25.517777314409614 L 427.5077538639307,25.09616681584157 L 428.0824257284403,24.885363837936893 L 428.2635344788432,24.57618888304569 L 428.3366745300591,22.99171823845245 L 428.0754600651562,21.642701733624563 L 427.4067509621382,20.409670190885663 L 426.2643728964031,19.176689971704036 L 423.97961676865816,17.70842139958404 L 423.73929942399263,17.07617491413839 L 423.6382965222001,15.688792103901505 L 423.3840477876365,15.084686079993844 L 422.8128587529063,14.56137153855525 L 421.71227499470115,14.241767830448225 L 421.0801358856261,13.83787779090926 L 419.8524277918041,12.317193062743172 L 418.92598705366254,10.645582135533914 L 419.0653014332056,9.490258002653718 L 419.5633504129946,8.264749712310731 L 419.86984208226204,6.9760879264213145 L 419.43448459357023,5.627791960956529 L 418.6891526095569,5.192417410667986 L 415.7705159522593,4.072409849148244 L 414.8789038620889,3.9670820934697986 L 413.6006942503154,6.010505335172638 L 412.7369450069964,6.540694181341678 L 412.37472757324576,4.943133159773424 L 411.6642241626978,5.262638643849641 L 411.35424959659576,5.164328908082098 L 411.13134660571814,4.100497348234057 L 409.33767372742295,3.619503063848242 L 408.7943476103246,3.3070364389568567 L 407.638038020581,3.4018293800763786 L 406.7081144526601,2.8892489499412477 L 404.9248902015388,1.435813984600827 L 402.17343090474606,0.6915695143397897 L 401.40023593604565,0.0 L 402.03063356131315,2.3415696904994547 L 401.79031628370285,3.2438413079362363 L 399.95136620104313,4.339241791283712 L 399.9130547940731,5.5154366390779614 L 399.53516448661685,5.7928145518526435 L 397.6213329359889,5.806859089061618 L 395.94956021010876,7.348284408915788 L 395.0335681028664,11.604288859991357 L 394.05836733058095,12.984458639053628 L 393.0222164802253,13.103865642100573 L 390.7252703085542,12.49278786056675 L 389.66648092120886,12.664871718734503 L 389.2624691836536,13.131961508421227 L 388.79576601833105,14.480592179810628 L 388.3255798853934,15.067125051049516 L 387.27375616133213,15.590448434464633 L 386.31596967950463,15.720402647508308 L 384.567574005574,15.565862567629665 L 384.29242814704776,15.330541702685878 L 384.14614797383547,14.59298089146614 L 383.4147473797202,14.245279911439866 L 382.3977522999048,12.763205793919042 L 381.63152312859893,13.423457230674103 L 380.3254506699741,15.720402647508308 L 379.57315288484097,14.6000051361043 L 377.61230278015137,12.685943308286369 L 377.05504520609975,12.408502199687064 L 376.7798992842436,12.626240543322638 L 377.5217484384775,13.261904994258657 L 377.93969156965613,13.95377614023164 L 378.1591117978096,15.681767535628751 L 378.4307748898864,16.528238845989108 L 380.46128214523196,18.235303724184632 L 381.9902577288449,20.525594093836844 L 382.56144669651985,21.976437052013353 L 382.307197958231,22.917942309286445 L 383.99464355781674,25.099680250277743 L 384.3237738274038,26.916162183042616 L 384.71385410800576,27.942155385855585 L 385.29200886934996,28.820602882653475 L 386.0268922969699,29.375795335974544 L 384.59891974925995,31.041436339495704 L 384.4944339506328,33.32921313261613 L 385.15966022387147,35.7507287459448 L 385.8945436514914,37.50109476223588 L 384.1740108244121,39.71205126028508 L 383.58889039978385,40.87208100478165 L 381.8370118290186,43.114939134567976 L 380.28713919222355,45.95919471071102 L 379.6288787163794,48.789671818492934 L 379.7925730459392,51.66263424861245 L 380.66303278133273,54.61689447890967 L 381.23795994743705,55.45736728631891 L 381.3877229504287,56.13618323742412 L 381.2658228650689,56.84315436473116 L 380.92101971805096,57.57300671399571 L 380.1338933594525,58.50337653956376 L 379.4199070520699,58.58427975233644 L 378.70243791118264,58.01972103235312 L 377.89093160256743,57.022537966957316 L 377.9884516745806,57.80867399577983 L 378.7233350984752,59.038045576773584 L 378.8626494780183,59.74333227588795 L 377.63319996744394,64.67908696131781 L 377.62971707060933,65.46192401065491 L 377.4068140126765,66.27293164399453 L 376.73810490965843,66.63182344776578 L 375.1011607646942,66.96608968637884 L 374.12247709557414,67.68917444022372 L 374.00405990332365,69.51544512505643 L 374.43941739201546,71.45445329020731 L 375.53651824966073,73.1437211832963 L 374.7215290404856,74.42482010065578 L 374.11899426206946,75.89428781089373 L 373.49904519692063,76.48033758834936 L 374.65187188610435,77.57679561758414 L 376.21219308301806,78.44801036594436 L 374.19561721384525,80.00394755764864 L 370.81724305450916,81.43323717894964 L 369.95001098141074,82.64608165365644 L 369.4032019637525,83.0404000885319 L 368.5951784849167,82.049334050389 L 368.09712950512767,81.80289358040318 L 365.81585627421737,81.76064688293263 L 364.80582685768604,81.5318117144052 L 364.2067749761045,81.72192084253766 L 364.29732931777835,82.9559028048534 L 364.93120984360576,83.82377349608578 L 365.81585627421737,84.44168659043498 L 366.373113848269,85.25679085426964 L 366.00741358473897,86.71453474741429 L 365.13321571424603,87.603657532949 L 363.78534894809127,88.23046311037615 L 362.45489647239447,88.24454882135615 L 361.62945863604546,87.29554226971231 L 361.44834995269775,84.90645133052021 L 361.18365259096026,84.72688216436654 L 360.25372902303934,85.73917541629635 L 359.55367417261004,86.93637243052945 L 359.243699606508,88.14947052183561 L 358.8118249475956,91.34182498883456 L 358.42522756382823,92.51814681245014 L 357.7147240899503,93.40746732102707 L 356.56886319443583,93.5694854510948 L 356.60717460140586,92.72946769255213 L 355.3376722037792,91.05303550418466 L 355.3394136838615,90.5071617604699 L 355.5657995045185,89.98419023328461 L 355.47524516284466,89.5387042062357 L 353.8034723736346,89.04568511294201 L 351.981936711818,88.23046311037615 L 351.3410905264318,88.98229759954847 L 351.0276331268251,89.13724508835003 L 349.7424577213824,88.83439397648908 L 347.29749009385705,88.66536240605637 L 346.21780352294445,88.31849882612005 L 345.0754255242646,87.71986192208715 L 342.4423834197223,85.65819045389071 L 339.7327183634043,84.04734720708802 L 338.29778015613556,83.80969008780085 L 337.39920226484537,84.11424364126287 L 337.1066419892013,85.020883299876 L 337.78579971566796,88.2181381706614 L 337.3260622136295,89.21471914323047 L 336.3160328641534,89.80106466333382 L 332.4814040325582,90.76777102495544 L 331.3425088636577,90.79242338589393 L 330.2001308687031,90.4472924566362 L 327.922340400517,88.19877039082348 L 326.7904109619558,87.54907683236524 L 326.26101630181074,88.68649125867523 L 324.8748379945755,88.15299197193235 L 322.6597390882671,87.95931502711028 L 319.70279102399945,89.01399133703671 L 317.1986147351563,88.75692104920745 L 316.1851025559008,88.36955965100788 L 314.5481584072113,87.08074402320199 L 313.8933806978166,86.15290641528554 L 312.2634022794664,82.81859524431638 L 311.4379644431174,81.7641674100887 L 307.4570556394756,77.85663720127195 L 305.0921937301755,76.2937858083751 L 303.85926132276654,75.79925396875478 L 303.1452750824392,75.9576439387165 L 301.2157706581056,77.2071980223991 L 300.2161898687482,77.63311571092345 L 297.9871595017612,77.75279631256126 L 296.0750694312155,77.12623922340572 L 294.7446168884635,75.70070060319267 L 294.253533706069,73.41647747531533 L 292.89870120957494,74.62191773136146 L 293.59179032966495,76.8393654867541 L 295.14166296646,79.1362020871602 L 296.36762964352965,80.58656737417914 L 297.3602447062731,82.23592630727217 L 298.33196257799864,88.12482065637596 L 299.0598803460598,88.2181381706614 L 299.2479547560215,88.75692104920745 L 299.3977177590132,90.46842275140807 L 299.86790389195085,91.29428015323356 L 300.9057961553335,92.2821737874765 L 301.9819998294115,94.26864056522027 L 303.0512378439307,95.7127988920547 L 304.34686167538166,96.79949318128638 L 307.265498328954,97.19402566016652 L 308.5332593135536,98.07998431217857 L 309.4527343213558,99.40809884597547 L 309.9786462150514,100.86839955649339 L 306.71868931502104,105.41541887260973 L 305.7016941681504,106.15718326391652 L 302.9397863149643,109.84342245315202 L 302.0377255938947,110.61351254885085 L 302.05862271413207,111.8858869438991 L 301.3341878466308,114.49604216660373 L 301.2157706581056,119.46507846959867 L 301.5361937843263,121.83272668765858 L 302.5706031508744,125.87394271628 L 302.41387448459864,126.90022101206705 L 301.6128166690469,127.55974208749831 L 300.03856394812465,128.0094256370794 L 297.3602447062731,128.28805733844638 L 294.5739568322897,128.18930146377534 L 292.1533691585064,128.92821670370176 L 291.67273446545005,131.40612675156444 L 292.40761789307,134.35349245066755 L 293.6092045530677,136.48442629096098 L 295.73723201826215,137.73696680483408 L 296.2735924720764,138.53262843890116 L 296.36066391691566,139.1642365953885 L 296.0820351615548,140.90742005663924 L 297.0398215763271,143.27715294715017 L 296.9527500681579,144.12946725147776 L 294.07939068228006,146.64776619244367 L 292.4772751145065,147.58491664705798 L 291.67273446545005,148.30324724782258 L 290.864710919559,149.50875021354295 L 288.8585836775601,149.7346785494592 L 287.23208809271455,149.70290724257939 L 286.39620169624686,149.98179009300657 L 287.7649656496942,151.0832329627592 L 287.6326170004904,151.4680440274533 L 286.5773104466498,152.15471789729781 L 284.8393633328378,154.2943030996248 L 284.553768850863,155.5054087685421 L 284.9926091656089,158.17677105078474 L 283.7805738784373,158.95016356790438 L 283.29993925616145,159.5840820330195 L 282.71830166503787,162.02633018326014 L 282.0635240189731,162.7027175272815 L 280.3360254652798,163.90542892715894 L 279.8379764854908,164.5748063775245 L 279.3852047100663,166.36579536716454 L 279.0926444977522,166.89923318708315 L 278.65380411222577,167.25074355793186 L 277.1805544272065,167.89372127340175 L 276.76957695931196,168.54554942110553 L 275.9789677001536,170.86861028289422 L 274.37685219943523,173.94459920749068 L 272.0294045768678,176.98035843041725 L 269.2640138231218,179.65067744837143 L 264.25566124916077,182.83744688262232 L 263.75761226937175,183.63818694511428 L 262.8416201584041,188.14796455320902 L 262.3505369089544,189.66851780447178 L 261.60520485416055,190.322741138516 L 260.671798389405,190.40584662463516 L 258.3905251547694,191.09192025009543 L 256.6804409585893,191.27051507635042 L 213.71936390921474,191.031799569726 L 213.39197511970997,186.85557564534247 L 212.9322376176715,186.22090031579137 L 198.13356584310532,182.982391101541 L 196.98770494759083,183.03188445302658 L 194.6089116446674,183.74778261850588 L 193.00853749364614,184.73947190260515 L 191.78082939982414,185.84788224566728 L 190.56879411265254,186.6451937982347 L 189.00847291573882,186.7035347702913 L 178.88205771893263,184.53794859768823 L 175.82584810256958,183.41899692639709 L 173.40003617852926,181.99077930976637 L 172.996024440974,181.37038125749677 L 173.04304306209087,179.76378865889274 L 172.12356805056334,174.68848188081756 L 172.44747401028872,173.37919398373924 L 172.23850241303444,173.21487578819506 L 171.55586184933782,173.26434775954112 L 171.3486317358911,171.8367690187879 L 169.03601269051433,170.51351126190275 L 168.41780510544777,169.88459309423342 L 167.11695688962936,167.7206102097407 L 167.03510969504714,164.82560715451837 L 166.76170525327325,164.23393370001577 L 165.56360142678022,164.27278935327195 L 164.9401694573462,164.03965613781475 L 164.6232292316854,163.46213157451712 L 163.85700005665421,160.91201159730554 L 162.5962047353387,160.24627143517137 L 162.67108627036214,159.312148288358 L 160.374140098691,151.90052267629653 L 159.37281795963645,150.820223510731 L 158.93571899086237,149.97825987101533 L 157.97270819544792,150.3295157609973 L 156.45418130606413,149.34636556217447 L 155.91259660199285,148.62800336978398 L 155.92826947569847,148.08615730167367 L 156.19819108769298,147.4684326699935 L 156.1581381969154,146.9442617711611 L 155.2299560420215,146.6830630719196 L 154.0614565461874,146.08478769031353 L 152.45237524807453,143.40067492960952 L 151.32741153985262,142.45663068676367 L 149.908146135509,142.22018431895413 L 147.29600121825933,142.22018431895413 L 145.8210099823773,141.43498739856295 L 144.5079718604684,142.80601094779558 L 143.09915501996875,141.80552660743706 L 142.03165842220187,139.69882298773155 L 141.72168385609984,137.73696680483408 L 142.01946837827563,137.05070771230385 L 142.94416769966483,135.90933794155717 L 143.01556627079844,135.34661131585017 L 141.71297670900822,135.1666826826986 L 141.32986215874553,134.96911553805694 L 140.12479259818792,133.0446839290671 L 139.2349219210446,130.90346982632764 L 138.31718832999468,129.75886180554517 L 137.0947044827044,128.97759615047835 L 134.49474953860044,127.71139913215302 L 132.45031075552106,126.2072139615193 L 131.42983284592628,126.03793275216594 L 129.8938916027546,126.57399388309568 L 127.33747244626284,128.18930146377534 L 126.2752001658082,128.44324595620856 L 124.51635592803359,128.12581573496573 L 121.56811501085758,127.20705476752482 L 119.96944068744779,126.03965485701337 z" /></g></g></svg>