<svg xmlns="http://www.w3.org/2000/svg" xmlns:xlink="http://www.w3.org/1999/xlink" width="500.0" height="458.65277161682025" viewBox="0.0 0.0 500.0 458.65277161682025" preserveAspectRatio="xMinYMin meet"><g transform="matrix(1,0,0,-1,0,458.65277161682025)"><g><g><path fill-rule="evenodd" fill="#D2EBD9" stroke="#A6A6A6" stroke-width="0.25" opacity="1" d="M 365.7690698262304,333.50843077906757 L 366.7725417651236,332.0336679160828 L 366.84476156160235,330.3983598606719 L 366.56490985676646,328.59141467466543 L 366.7544867936522,326.7890128211002 L 367.8738935254514,325.4022197895101 L 369.8960476834327,323.6134146011609 L 372.10777877643704,322.100177078828 L 373.67855917848647,321.51747240575787 L 375.19517484121025,321.1606235719519 L 380.7199887018651,318.4007242224325 L 382.4893736112863,318.1116382457694 L 498.7542085573077,318.12518910950166 L 499.4222416188568,314.7759028559667 L 500.0,216.1869380652206 L 385.84759389422834,216.56614993468975 L 381.5956537593156,216.0153900677542 L 381.1352525167167,214.73781188605062 L 381.1262250300497,212.15107160192565 L 380.81026346981525,211.00442598924565 L 379.7811314202845,210.00224329727644 L 378.3909004703164,209.69526899234916 L 376.8381750397384,209.93001393943268 L 375.29447700828314,210.58910658358946 L 373.85008122958243,211.7086645510717 L 371.5841853097081,214.29991533921566 L 370.13978953287005,215.32017009315314 L 368.78566843643785,215.81675563086173 L 366.1883332300931,216.11608983499173 L 366.32351316325366,216.57503710806486 L 366.20267292298377,218.07155664627498 L 365.5344977490604,220.30390938041091 L 365.7264204528183,221.3418885414867 L 366.40170385688543,221.88576274740626 L 367.5390234477818,222.28033878545102 L 369.95582738146186,222.5896015241742 L 369.42981713451445,223.04816423206648 L 368.3635800946504,223.41074916461366 L 366.02496676519513,223.73067756087403 L 365.12932765483856,224.0079490927601 L 362.9470957983285,225.24501029148814 L 361.8879669867456,225.5151738744753 L 358.30541045963764,224.7437864784879 L 357.37423011660576,224.97840175848978 L 357.0188177116215,225.85287874913774 L 357.40266312099993,226.79489995691983 L 358.0850548390299,227.55918379806099 L 358.62528154440224,227.90400098724058 L 357.00460125505924,227.22147667754325 L 355.0142921023071,225.46896169490356 L 353.32252926006913,223.52805622745655 L 352.611704537645,222.26611985369527 L 352.0146118272096,221.64048594067572 L 349.1357717067003,220.92954020960315 L 346.9677563942969,220.0124228522909 L 346.18584920838475,221.04329138394678 L 344.8210657685995,225.2379007457057 L 344.11024104617536,226.3434402551502 L 343.1648441590369,227.18592859026103 L 341.76451948843896,227.90400098724058 L 340.1722722016275,228.28081206751813 L 339.0349526107311,228.01775518836803 L 338.0113650318235,227.55562899312645 L 335.23204046301544,227.02951701264828 L 332.6517467405647,225.7995568607439 L 331.3296127617359,225.5151738744753 L 330.56192212179303,225.99862517214206 L 328.5147469639778,228.2879216978181 L 327.39164391718805,229.09842296679562 L 327.56224184669554,229.97291413469065 L 327.34188622795045,230.66255564168387 L 326.2116748653352,232.1342713421327 L 327.57645830512047,232.69594292955298 L 328.6000458840281,233.72330778939067 L 329.33930360898376,234.99952137253422 L 330.76095305383205,239.47165638429578 L 331.5286436956376,241.05718786199577 L 333.86014879494905,242.44720346936083 L 335.082767220214,244.13585316421813 L 336.02105587907135,246.11603378983273 L 336.46176720410585,247.69805838058528 L 336.2343032695353,251.04345758615818 L 336.5754991285503,252.47620094864396 L 338.97808669134974,253.52854496164946 L 342.41847820580006,256.65005734066654 L 343.9325348883867,258.61613788949035 L 344.2097565121949,258.76190593044157 L 344.40167921595275,259.23120876270696 L 345.21201931871474,260.2409247961914 L 345.4039420224726,261.1724280703056 L 346.42752960138023,263.6718661192426 L 347.8349625021219,266.24955798285373 L 349.62624080851674,267.63619338095305 L 350.7635603118688,267.25931193027645 L 351.8582303542644,266.2317806320498 L 353.50734364800155,265.65224130640854 L 355.83884874917567,265.95801029489667 L 360.95678664557636,268.68506575012 L 359.1939413398504,268.5961779912177 L 355.6256012711674,266.17844867741223 L 354.07600344344974,266.54821696666477 L 350.287307754159,270.1463862944074 L 348.97228200547397,272.5641693970683 L 349.8679212015122,274.92509579910256 L 355.00007555633783,280.0168435451051 L 356.18004460819066,281.8089480817289 L 357.9713228289038,283.00369534366473 L 358.6537145487964,283.69352371840796 L 359.77681759372354,286.04749613166496 L 360.54450832121074,286.9471351907123 L 360.8288381751627,287.5338590686588 L 361.1558175776154,289.64608320358093 L 361.9661576785147,290.6559782656841 L 362.63433294184506,291.9361363143835 L 365.7264204528183,294.99433511539246 L 366.65760079585016,297.95302355097374 L 366.3164049349725,301.5732300616801 L 363.892492685467,308.71433628327213 L 362.7907143253833,311.10071299187257 L 362.69830717518926,312.057409171015 L 362.8902297914028,312.97854676118004 L 363.7005699817091,314.0028306277236 L 363.892492685467,314.47229667588545 L 364.61753386445343,325.32382706089993 L 364.3616370148957,327.2943434355693 L 363.6152710597962,328.81671278804424 L 362.918662795797,330.77661284328497 L 364.0417658407241,332.29546764475526 L 365.7690698262304,333.50843077906757 z" /><path fill-rule="evenodd" fill="#D2EBD9" stroke="#A6A6A6" stroke-width="0.25" opacity="1" d="M 1.2439431976526976,1.6994272970187012 L 0.6966081764549017,2.71623242777423 L 0.5828762520104647,3.7259218103281455 L 0.9453967995941639,4.6076182888500625 L 1.8410359974950552,5.23333598919271 L 2.992571957409382,3.2566301527112955 L 2.6869173292070627,1.1234724133537384 L 1.478515362367034,0.0 L 0.0,1.0523667636007303 L 1.2439431976526976,1.6994272970187012 z" /><path fill-rule="evenodd" fill="#D2EBD9" stroke="#A6A6A6" stroke-width="0.25" opacity="1" d="M 289.1777076218277,456.7543340086995 L 291.4949961770326,453.88361523731146 L 292.36220228485763,452.38774954933615 L 292.7105064596981,450.53576537531626 L 292.57544976100326,448.8547716752364 L 292.22003735788167,447.32695058587706 L 291.6655941065401,445.9629768635932 L 290.9618776123971,444.8055763541197 L 287.80581595376134,441.9958341687161 L 286.91017684340477,439.5743356972671 L 283.76122332550585,435.84252130333334 L 282.01259456574917,431.14238662038406 L 280.5056462008506,429.9460313881136 L 280.093367876485,427.88805572339334 L 279.6526565514505,427.12611910217674 L 277.14344529248774,425.63074945571134 L 276.8377906642854,424.2208537837723 L 276.79514120332897,420.1906746105378 L 276.24780618213117,418.75950809834467 L 272.3240537941456,414.23119643302925 L 269.3314817491919,409.31154979235725 L 268.5211416464299,408.32907694180903 L 267.6823684554547,408.89506544584583 L 265.6778427567333,409.7493944359303 L 265.2229149732739,410.3153918434982 L 264.66847172379494,410.0804490559385 L 263.4032037500292,410.53965601921664 L 260.9792915005237,411.88881248836697 L 258.3421317730099,411.22313116256555 L 257.4607091192156,411.2409300190775 L 256.52242054976523,411.65030575370474 L 254.67427632398903,412.83572618101607 L 253.53695673309267,413.08491564886936 L 251.6603795029223,413.14899307183805 L 249.58477143011987,413.6331350089022 L 247.90722504630685,414.94317958917236 L 246.81255500391126,418.46046135433426 L 245.44777156412601,420.74961919512134 L 246.07329736463726,422.5261616129137 L 246.6135240700096,426.228894166532 L 247.20350863970816,427.92722086534195 L 248.347936373204,430.13118052815844 L 249.97572497837245,431.58034241550195 L 252.0442249123007,431.00708376051625 L 253.15311141125858,431.64443371011293 L 254.62451854720712,431.57678179920185 L 257.7379308324307,431.00708376051625 L 259.2093379665166,431.6017062040337 L 259.6926987543702,433.0010442257044 L 259.44391013123095,434.61405108496547 L 258.65489462949336,435.84252130333334 L 261.1143481116742,437.41285361790506 L 262.32275016605854,438.584391098324 L 262.834543954581,439.6989699002588 L 263.43163666687906,447.79348490101984 L 264.5689562577754,450.8741053584672 L 266.8578118085861,454.6137506358791 L 269.93568277545273,457.64833908820583 L 273.51823930442333,458.65277161682025 L 272.9709042813629,457.4096992531413 L 275.68625470250845,456.8398160713987 L 276.8804402127862,456.77570447165635 L 277.74053809046745,457.4096992531413 L 279.7095224689692,456.80419851907936 L 282.5386048145592,456.37678918427264 L 285.5027438569814,456.4551473661704 L 287.9337644223124,457.4096992531413 L 288.4668828994036,456.878995389372 L 289.1777076218277,456.7543340086995 z" /></g></g></g></svg>