<svg xmlns="http://www.w3.org/2000/svg" xmlns:xlink="http://www.w3.org/1999/xlink" width="500.0" height="370.91206446522847" viewBox="0.0 0.0 500.0 370.91206446522847" preserveAspectRatio="xMinYMin meet"><g transform="matrix(1,0,0,-1,0,370.91206446522847)"><g><g><path fill-rule="evenodd" fill="#D2EBD9" stroke="#A6A6A6" stroke-width="0.25" opacity="1" d="M 347.9797980100848,363.1038973093964 L 352.30880278069526,363.4554658969864 L 345.67099629342556,354.70559265697375 L 341.1976917483844,349.31533419387415 L 334.70418503601104,342.6364044235088 L 330.3751802658662,342.6364044235088 L 329.7979802796617,332.2866818555631 L 337.4458878505975,334.5127796223387 L 338.09523861063644,338.1839715447277 L 348.48484899522737,341.15224351361394 L 351.9480524570681,344.9798499192111 L 358.8023086064495,357.7132961479947 L 362.2655120678246,358.4554672790691 L 365.00721488241106,355.4477469371632 L 369.9134205253795,358.4554672790691 L 372.6551224528812,355.4477469371632 L 368.75901878019795,347.4014545651153 L 374.0259738601744,348.6903905151412 L 379.72583003761247,343.3784911101684 L 379.29292982677,336.85608247248456 L 383.62193371076137,334.08317886386067 L 390.692641295027,338.1839715447277 L 392.2799423648976,334.5127796223387 L 392.2799423648976,328.4594409172423 L 390.40404085908085,320.72719116322696 L 397.0418473458849,320.25858369423077 L 400.649350582622,314.5182856232859 L 408.87445902545005,310.49631947418675 L 433.7662340174429,317.9546247231774 L 439.2496396461502,321.0005451645702 L 441.34199170023203,315.68975479947403 L 424.67532515199855,302.21848201937973 L 415.00721541419625,293.23839277308434 L 392.8571432372555,283.51715437695384 L 382.46753285219893,275.98270793491974 L 378.3549786307849,269.30746681895107 L 369.19191899104044,263.2570994878188 L 362.2655120678246,263.2570994878188 L 349.20634964248165,280.5501710004173 L 336.72438720287755,278.20786279113963 L 331.9624822214246,281.29191063484177 L 329.7979802796617,276.72442208137363 L 331.2409815741703,268.56579500669613 L 335.35353579605,266.3408015118912 L 336.72438720287755,259.58797919983044 L 330.3751802658662,261.0712287533097 L 329.7979802796617,265.48204139247537 L 323.5209241164848,269.30746681895107 L 313.2034636186436,267.8241263721138 L 309.74026015680283,263.2570994878188 L 292.7128432849422,259.70507694454864 L 300.7215011790395,255.06026630522683 L 321.71717161173,240.6194559969008 L 331.9624822214246,233.36061333213001 L 330.3751802658662,225.8290053922683 L 334.70418503601104,222.12189488764852 L 329.7979802796617,212.3278117668815 L 335.35353579605,213.92759346636012 L 342.2799427192658,228.0142984688282 L 351.875901682768,237.34121958725154 L 355.41125591890886,247.52743176557124 L 360.38961056247354,247.68354892358184 L 367.171717710793,243.07818555552512 L 381.0966814449057,243.07818555552512 L 383.0447328379378,238.0827183444053 L 381.0966814449057,228.91184045234695 L 385.85858642635867,222.86330892937258 L 389.3217898881994,232.6191408666782 L 400.4329009205103,238.55103522352874 L 389.3217898881994,255.80186377605423 L 400.4329009205103,264.74038995523006 L 411.6161618400365,267.8241263721138 L 410.8946611927822,275.98270793491974 L 431.24098175158724,290.38831805298105 L 432.3953826101497,285.74243538081646 L 437.4458880275488,284.68835106818005 L 432.3953826101497,275.24099792633206 L 441.8470417987555,272.82071034470573 L 443.93939385330305,258.0657131015323 L 439.2496396461502,251.9768267069012 L 443.3621938675642,243.89777312520891 L 448.1240979623981,249.752110642381 L 452.38095284532756,235.58505453774706 L 456.5656569544226,236.32654351601377 L 455.91630619438365,252.91356084123254 L 463.27561332890764,272.2741992729716 L 470.3463209136389,266.3408015118912 L 469.9134198157117,257.98764888895676 L 472.43867296818644,251.9768267069012 L 486.2193360407837,251.2352505531162 L 498.62914859270677,248.2689872593619 L 496.53679653815925,240.8536191713065 L 500.0,225.8290053922683 L 489.3939399528317,230.78498981986195 L 482.6839826917276,231.87767252884805 L 472.43867296818644,211.66449430724606 L 476.6955269644968,214.1226895241998 L 485.4978353935294,201.481022472959 L 489.75469027645886,180.96037444472313 L 486.94083668803796,180.2582026333548 L 486.2193360407837,185.01743796514347 L 477.9220777102746,185.44655856769532 L 480.6637805243954,177.2545098834671 L 477.2005770630203,168.98495169403031 L 472.43867296818644,164.53832532651722 L 464.14141463767737,161.61299385828897 L 461.25541116157547,148.82029758393764 L 456.5656569544226,155.56751228496432 L 456.5656569544226,167.5027264575474 L 447.4025973151438,161.61299385828897 L 444.8051951620728,168.24383701989427 L 439.2496396461502,175.03104051947594 L 440.62049105297774,189.93289348762482 L 428.28282838827,195.16063925623894 L 426.69552731886506,203.4318195367232 L 419.11976963607594,198.04769043577835 L 410.2453104327433,195.94091730145738 L 397.7633479931392,204.95346040418372 L 390.692641295027,204.95346040418372 L 382.46753285219893,192.93687157705426 L 386.58008707361296,178.73684336384758 L 392.2799423648976,170.46719337953255 L 389.3217898881994,163.7972353217192 L 381.0966814449057,171.20832039089873 L 380.3751807976514,180.96037444472313 L 373.30447321292013,177.2545098834671 L 370.7792209475301,171.3253405187279 L 379.8701298125088,162.15905039710924 L 385.85858642635867,137.58869535988197 L 389.9711397611536,136.14581469912082 L 402.4531030873768,133.6110620633699 L 403.1746037346311,122.69267769576982 L 406.63780719647184,122.69267769576982 L 413.6363640073687,124.17440624628216 L 420.4906210429035,115.16730987792835 L 415.2236650767736,108.88999472791329 L 408.15295837819576,103.97751883743331 L 401.80375232733786,106.19980715541169 L 400.4329009205103,105.45904028601944 L 401.0822516800836,100.19581489823759 L 400.9379510190338,92.74967864807695 L 410.2453104327433,95.75147431064397 L 412.98701324732974,88.22761995950714 L 412.98701324732974,81.4837984838523 L 407.2871570698917,77.78068807488307 L 400.4329009205103,83.82265744917095 L 390.9812408448197,89.43608602462336 L 392.2799423648976,97.97362617729232 L 386.58008707361296,113.68568102363497 L 379.0043293903582,119.61229482619092 L 380.3751807976514,133.0651221149601 L 370.7792209475301,139.14858354302123 L 367.171717710793,122.69267769576982 L 368.54256911808625,113.68568102363497 L 356.06060667848215,100.19581489823759 L 346.46464682836086,109.94269178202376 L 331.9624822214246,127.87879940029234 L 334.70418503601104,118.8714537518099 L 332.6118329814635,118.8714537518099 L 317.532467502635,135.2488971943967 L 309.59595949575305,126.12407381879166 L 313.92496426589787,119.61229482619092 L 313.92496426589787,116.68794591352344 L 307.0707072298974,119.61229482619092 L 305.26695561176166,112.3990170895122 L 300.7215011790395,109.201904210262 L 296.60894695762545,106.94057812169194 L 292.4963927362114,112.16507908515632 L 293.36219404498115,123.00461933668703 L 291.1255413289182,127.87879940029234 L 290.4040406816639,132.32420656085014 L 285.64213570021093,132.32420656085014 L 285.64213570021093,139.07058889372274 L 279.1486289878376,145.07632534997538 L 266.7388173225336,152.2523640850559 L 254.47330454504117,158.21968986280262 L 253.75180389778689,153.34440385596827 L 244.73304492002353,168.24383701989427 L 242.640692865476,180.96037444472313 L 237.15728723676875,184.70535251544788 L 230.6637805243954,178.15170935727656 L 214.35786429978907,180.96037444472313 L 213.63636365253478,177.99567456636578 L 206.63780684163794,177.99567456636578 L 203.82395413983613,174.2898922925815 L 195.59884569700807,176.5133493146859 L 188.74458866100758,174.2898922925815 L 179.58152990834787,170.46719337953255 L 162.4098123749718,166.02051766915247 L 157.50360761862248,168.98495169403031 L 157.50360761862248,174.2898922925815 L 143.00144301215187,174.2898922925815 L 137.0129872849211,179.1659428179264 L 128.86002961546183,181.740569465328 L 123.59307364933193,193.67812335165218 L 120.20202096132562,194.41937924502417 L 118.1818187944591,201.20791396638379 L 112.62626327807084,195.08261093590409 L 121.7171721435152,186.81194825703278 L 104.25685417372733,184.70535251544788 L 95.31024596979842,177.2545098834671 L 82.75613275635988,183.96415057918057 L 78.57142864726484,183.96415057918057 L 68.3261189237237,190.7131409603171 L 71.78932238556445,201.94921170268208 L 64.93506534956396,212.3278117668815 L 52.886003121268004,222.00482923351228 L 63.92496426589787,231.44840246485546 L 82.75613275635988,232.6191408666782 L 91.91919239563867,239.29254071787 L 103.53535352647305,261.0712287533097 L 124.31457429658622,270.0491437269375 L 143.00144301215187,298.54828599328175 L 148.55699852807447,298.54828599328175 L 155.4834054512903,296.20565950870514 L 154.61760502913967,290.38831805298105 L 154.11255404446274,283.51715437695384 L 157.50360761862248,285.74243538081646 L 167.9653678908944,288.6704935808666 L 170.70707070548087,288.6704935808666 L 172.07792211230844,292.49658644618466 L 171.35642146505415,297.6893177353777 L 171.35642146505415,305.22499537840486 L 181.6738819628954,310.49631947418675 L 195.59884569700807,314.20589539734647 L 198.98989927116781,317.9546247231774 L 202.5252526202239,324.7494664709084 L 213.63636365253478,328.4594409172423 L 219.84126992849633,331.54465725133196 L 217.24386777542531,337.7153033511713 L 225.30917015811428,342.53719357866794 L 240.33658647723496,342.53719357866794 L 245.28463870007545,337.18023593956605 L 248.03355650324374,335.9898307309486 L 258.47944344580173,346.1086195916869 L 266.72619685484096,347.2991156768985 L 276.0725179174915,346.1086195916869 L 280.65404818067327,359.3038862789981 L 287.80123393656686,367.63841563183814 L 297.78968367772177,370.91206446522847 L 306.4938742881641,363.47108538635075 L 321.429660782218,363.47108538635075 L 339.89899022877216,362.43982575042173 L 347.9797980100848,363.1038973093964 z" /><path fill-rule="evenodd" fill="#D2EBD9" stroke="#A6A6A6" stroke-width="0.25" opacity="1" d="M 266.0173166752793,1.6362039330415428 L 242.49639309104532,0.0 L 245.38239568006247,8.298098435625434 L 245.38239568006247,37.403928419109434 L 236.65223713824525,37.24805752187967 L 238.52813864406198,43.405110811814666 L 238.81673908047378,56.22671695519239 L 244.66089503280818,53.88833902543411 L 248.34054904291406,42.89850746747106 L 255.69985617743805,34.83207503380254 L 261.9769123410806,37.403928419109434 L 261.9769123410806,31.480946116149426 L 255.69985617743805,26.960951243992895 L 266.7388173225336,27.740249793510884 L 276.9119771583937,27.740249793510884 L 281.31313181621954,25.402367698960006 L 271.0678212060593,18.23311555152759 L 267.5324678574689,13.440839224029332 L 273.0880233733915,1.5582891912199557 L 266.0173166752793,1.6362039330415428 z" /><path fill-rule="evenodd" fill="#D2EBD9" stroke="#A6A6A6" stroke-width="0.25" opacity="1" d="M 335.35353579605,103.97751883743331 L 340.83694142475724,97.97362617729232 L 346.46464682836086,99.4550812295638 L 353.31890386436135,96.49218750465661 L 360.2453107875772,83.82265744917095 L 367.171717710793,78.52130197547376 L 367.171717710793,68.77670962410048 L 361.68831208208576,62.072840965818614 L 365.00721488241106,53.10888876672834 L 369.19191899104044,44.9249332677573 L 365.00721488241106,43.405110811814666 L 371.28427193220705,25.402367698960006 L 360.2453107875772,23.181417083833367 L 357.4314580857754,26.960951243992895 L 350.5772010497749,32.9616672154516 L 350.50505116255954,43.01541554136202 L 347.69119757413864,54.122175368480384 L 341.6305919592269,59.14974713046104 L 336.4357867669314,54.82368588401005 L 341.6305919592269,53.10888876672834 L 341.6305919592269,45.665365871973336 L 338.09523861063644,44.9249332677573 L 331.9624822214246,37.403928419109434 L 338.09523861063644,27.70128485467285 L 335.35353579605,20.9605031600222 L 338.81673925742507,14.181098390836269 L 328.35497898515314,11.96033311355859 L 326.91197680402547,26.960951243992895 L 329.7979802796617,29.181964309886098 L 327.34487790148705,33.818934911862016 L 318.03751848777756,29.181964309886098 L 313.92496426589787,31.480946116149426 L 318.03751848777756,36.62457382585853 L 311.832612211816,40.365517491009086 L 315.94516643323004,46.40580255864188 L 313.92496426589787,51.62794555071741 L 306.2049068082124,53.10888876672834 L 307.2150078914128,61.25436850404367 L 295.95959619805217,53.8493665009737 L 292.4963927362114,48.62713711336255 L 290.4040406816639,48.62713711336255 L 288.3838385147974,53.8493665009737 L 286.94083721982315,60.63077333243564 L 279.1486289878376,65.07395000569522 L 264.7907650428824,65.77551776682958 L 258.6580086541362,68.77670962410048 L 255.05050541786477,76.2994725429453 L 253.75180389778689,80.7431682208553 L 249.56709978869185,88.22761995950714 L 244.01154427276924,90.44964707270265 L 244.73304492002353,96.49218750465661 L 246.7532470873557,97.97362617729232 L 258.6580086541362,103.97751883743331 L 267.5324678574689,106.94057812169194 L 277.12842770759016,103.97751883743331 L 283.47763375844806,100.19581489823759 L 291.1255413289182,97.97362617729232 L 302.813853233587,97.97362617729232 L 311.0389616768807,105.45904028601944 L 318.68686924735084,109.94269178202376 L 327.20057724043727,106.47272254992276 L 335.35353579605,103.97751883743331 z" /><path fill-rule="evenodd" fill="#D2EBD9" stroke="#A6A6A6" stroke-width="0.25" opacity="1" d="M 8.080808668397367,19.16821325896308 L 1.659451843239367,26.649232897907495 L 0.5050509851425886,39.15749326348305 L 0.0,49.36759013077244 L 1.659451843239367,54.706766571849585 L 10.53391104657203,54.706766571849585 L 10.53391104657203,64.21648370474577 L 17.243867421057075,66.0093748215586 L 17.243867421057075,72.0118361376226 L 11.760461792349815,76.2994725429453 L 19.985570235177875,82.73118466325104 L 26.26262639882043,88.03270660387352 L 26.839827271178365,89.70896727545187 L 34.99278494017199,91.19033096311614 L 41.34199187764898,97.97362617729232 L 48.91774956090376,110.76146155875176 L 65.5844161096029,110.76146155875176 L 74.60317508736625,109.94269178202376 L 80.73593147611246,103.23676425777376 L 89.82684034109116,106.94057812169194 L 110.46176044968888,118.8714537518099 L 123.59307364933193,115.90813045343384 L 129.79797992529348,126.39702983293682 L 137.51803826959804,127.87879940029234 L 143.7950944332406,139.07058889372274 L 159.59595967317,151.78435004595667 L 162.4098123749718,145.07632534997538 L 183.04473337018862,161.61299385828897 L 187.9509381260723,158.21968986280262 L 192.8571428824216,152.56437467457727 L 190.1154400683008,145.07632534997538 L 188.74458866100758,136.84775474993512 L 185.13708542427048,139.92853445746005 L 178.21067850105464,141.29345998214558 L 172.07792211230844,141.29345998214558 L 170.4906210429035,126.35803621960804 L 155.4834054512903,128.61969033675268 L 155.4834054512903,115.90813045343384 L 163.85281455609947,119.57330318912864 L 159.8124102219008,107.2524830638431 L 160.96681107999757,83.82265744917095 L 147.90764865465462,83.82265744917095 L 140.11544042266905,86.8632352957502 L 150.649350582622,71.85592409456149 L 137.51803826959804,61.410267271101475 L 157.50360761862248,47.88668817887083 L 144.37229441897944,37.403928419109434 L 128.21067885588855,29.844379022717476 L 127.05627711070701,36.62457382585853 L 127.05627711070701,57.629763648379594 L 96.0317466170527,57.629763648379594 L 80.73593147611246,44.9249332677573 L 74.60317508736625,44.9249332677573 L 71.78932238556445,40.365517491009086 L 80.73593147611246,38.14431956643239 L 80.73593147611246,32.26027087587863 L 72.51082303281873,26.766127791255713 L 61.11111156409606,25.79201189102605 L 50.28860096819699,36.62457382585853 L 48.91774956090376,43.405110811814666 L 41.34199187764898,41.10592496115714 L 32.25108301267028,34.481371524743736 L 19.336219475604594,23.29830800462514 L 8.080808668397367,19.16821325896308 z" /></g></g></g></svg>