<svg xmlns="http://www.w3.org/2000/svg" xmlns:xlink="http://www.w3.org/1999/xlink" width="500.0" height="369.0705489257816" viewBox="0.0 0.0 500.0 369.0705489257816" preserveAspectRatio="xMinYMin meet"><g transform="matrix(1,0,0,-1,0,369.0705489257816)"><g><g><path fill-rule="evenodd" fill="#D2EBD9" stroke="#A6A6A6" stroke-width="0.25" opacity="1" d="M 0.17409668304026127,118.53759919083677 L 0.0,121.11214366159402 L 0.1450805701315403,122.42416539252736 L 0.66529805585742,123.50510187610053 L 1.4860396534204483,124.04452369967476 L 3.2684582136571407,124.50047588068992 L 3.9296111445873976,125.20476228441112 L 4.727554315701127,126.6455295693595 L 5.844674818217754,127.85945857735351 L 8.356641428545117,130.03488348727114 L 9.473761770874262,131.5873873559758 L 10.081027679145336,131.9985552325379 L 11.446857752278447,132.1763025680557 L 12.431333061307669,131.9985552325379 L 14.445880530402064,131.30043181148358 L 15.37232369184494,131.37324094981886 L 16.315347431227565,132.2748138869647 L 16.68841178715229,133.6476030079648 L 16.729863354936242,135.11902208486572 L 16.39410544373095,139.29618733352982 L 17.531951731070876,140.74449552805163 L 17.735064528882504,141.39370084321126 L 17.589983958750963,142.80574911343865 L 17.10707283578813,143.55145784444176 L 16.373379658907652,144.20076373079792 L 15.500823682174087,145.33442640397698 L 13.987840397283435,149.00163743970916 L 13.233421437442303,150.2535039104987 L 10.918349856510758,153.280637138756 L 10.536995252594352,154.4363132941071 L 10.615753263235092,155.99734489433467 L 11.243744876235723,156.9687696453184 L 13.233421437442303,158.6951624371577 L 14.619977295398712,160.67482181219384 L 15.612742932513356,163.0322540772613 L 15.61688813753426,165.22050505527295 L 14.05416295491159,166.68807122204453 L 15.32258171401918,170.5184755322989 L 16.28218611329794,172.0165282508824 L 17.909161211922765,173.35801556124352 L 20.371385922655463,174.60944674676284 L 28.51662422530353,177.34659104421735 L 31.31253420561552,178.67560109728947 L 77.39012627489865,214.64454159978777 L 81.11455206014216,218.31765455403365 L 83.99336525797844,223.12380499648862 L 85.68459027074277,223.1582471986767 L 89.52093530446291,224.8804440232925 L 90.01628196239471,224.26043308898807 L 90.55100746639073,225.3713021366857 L 90.48468490876257,226.27555142040364 L 90.73546704277396,227.02482307632454 L 91.67263156920671,227.37770272279158 L 95.778624124825,224.57033449574374 L 97.74349499121308,223.94992804294452 L 99.85850550606847,224.89580267877318 L 104.50957017205656,229.887096747756 L 106.48423272930086,231.15210786857642 L 106.05666113831103,232.46469946973957 L 106.85958181135356,232.7292651401367 L 110.0157780200243,232.2917163996026 L 114.69621783681214,235.14107425278053 L 115.2771929744631,236.27077437192202 L 115.4469160027802,237.0918051379267 L 114.99649713560939,237.47179982392117 L 114.10218711383641,237.72965829144232 L 113.37107240967453,238.3200334047433 L 113.03815406374633,238.91042915685102 L 113.32537769526243,239.17509604548104 L 116.71331113018095,239.2497464127373 L 118.06130391731858,239.6569362450391 L 119.37665765546262,240.6002971776761 L 121.74298885837197,241.401177495718 L 128.63962022773921,241.87629411369562 L 130.08226625807583,242.28694137907587 L 130.5457407925278,243.46463861968368 L 131.68157973140478,243.82441277988255 L 133.11117017641664,243.64113068883307 L 134.4624268580228,243.16257007420063 L 138.02661119773984,241.01430677482858 L 139.39092346653342,240.88535184925422 L 139.39092346653342,241.4079647634644 L 138.5684194136411,242.2054899141658 L 139.3974512591958,243.15917608491145 L 142.17829838581383,244.87323257583193 L 140.64426300674677,242.75529527151957 L 140.09266310185194,241.4622631703969 L 148.72895582392812,233.4619301543571 L 151.15403732843697,232.4104300707113 L 153.72599450312555,232.91921230126172 L 155.37100261077285,235.14107425278053 L 158.23018341884017,235.11054286337458 L 158.65775500796735,235.44978353590705 L 159.13102123327553,236.8678836710751 L 160.33213834650815,237.60412151319906 L 161.92818784341216,237.77037320891395 L 170.2152428161353,235.85688143922016 L 177.4382646586746,233.3126810390968 L 184.87670432589948,232.4918342344463 L 193.41834380291402,230.51789476326667 L 196.2775246910751,230.27371204295196 L 199.33580367825925,230.58572390349582 L 204.25777249410748,232.0644668964669 L 205.68083514273167,232.2917163996026 L 208.00473552942276,234.1199990902096 L 208.98390702530742,233.76721669756807 L 210.33842760324478,232.91921230126172 L 213.74594449996948,232.62750862911344 L 229.4094248637557,233.9978812574409 L 232.07603528350592,233.92325416509993 L 234.5337558351457,232.91921230126172 L 236.5606408175081,231.60997705743648 L 237.81398035772145,231.2742051286623 L 239.76253174059093,231.15210786857642 L 241.34878954663873,231.40647812769748 L 242.68699064292014,232.02376583660953 L 250.31147282198071,236.79324387176894 L 252.29592714831233,238.9986509345472 L 253.2065566536039,239.74516194104217 L 255.97761200927198,240.87177773937583 L 258.7682508248836,241.5504984355066 L 270.23434928432107,241.97131905169226 L 272.05560829490423,242.67723533930257 L 275.17590156011283,244.97166886599734 L 276.8666043821722,246.85904219560325 L 277.58792739734054,248.87564407708123 L 276.30521270632744,250.56651834677905 L 271.2265764474869,251.29996295203455 L 268.7982310485095,251.92137874499895 L 269.18663579784334,252.8484519366175 L 271.27879887633026,253.02164722210728 L 281.77370036765933,250.98410549666733 L 284.7848379854113,250.63442851766013 L 293.63002073951066,248.29168722848408 L 294.5243306811899,247.87749757920392 L 294.92905491404235,244.87323257583193 L 295.5263495333493,244.87323257583193 L 295.48391879722476,245.4333088414278 L 296.07468562200665,246.0137713314034 L 297.3980658687651,245.98076397017576 L 298.1108689010143,244.9108074780088 L 301.2288137488067,242.50259789498523 L 304.79103734344244,240.9848661061842 L 310.84533911570907,239.37465293891728 L 320.9993647392839,240.3373131379485 L 329.6416229568422,240.58541761757806 L 334.2856270503253,242.5339412561152 L 340.1068828292191,246.798858725233 L 343.9573611225933,249.1077268687077 L 350.0400917623192,249.249115657527 L 353.98456298187375,247.91954673919827 L 361.70993791148067,244.39427839871496 L 371.40576128847897,241.49818047205918 L 375.98096726834774,239.92808899562806 L 377.12601305916905,239.04696796066128 L 375.6358614899218,236.4853788530454 L 375.61774545907974,233.09641527943313 L 377.304320320487,231.4482262802776 L 378.88908575102687,231.2215839989949 L 380.8610507193953,231.86701831337996 L 381.3667293060571,234.32322567980736 L 382.13187035545707,234.26441165152937 L 382.6725992951542,233.223218932515 L 384.0878961328417,232.23187732463703 L 386.11167139187455,232.5484339259565 L 391.952740682289,231.80347212799825 L 392.6682584695518,232.67312540090643 L 393.92803387902677,233.211536554154 L 392.23904017172754,233.9322395902127 L 383.88821303471923,235.45683702919632 L 379.4700065832585,237.50333383539692 L 378.7661517113447,238.81931248120964 L 393.01709378510714,236.05809760116972 L 400.22446785494685,235.30136280693114 L 404.97902010567486,235.05026385141537 L 406.61566328443587,234.49221857078373 L 416.84835836291313,226.048099742271 L 438.7386669162661,207.35020350990817 L 446.367721600458,202.7035883020144 L 447.826687194407,202.0535006786231 L 450.64996505714953,201.57949383417144 L 451.36149638332427,201.20368343265727 L 451.9098323918879,200.39114821399562 L 451.9587910026312,199.74114750837907 L 451.43330227024853,199.31459781783633 L 450.2387130316347,199.1622611589264 L 448.8352338410914,199.71067931875587 L 445.7932743374258,202.12121699145064 L 443.52812425233424,202.9067456801422 L 442.0071444604546,203.9869059685152 L 441.25644629634917,204.3289144267328 L 438.8215731009841,204.3526182542555 L 437.76080402731895,204.58627177309245 L 436.82079937309027,205.51414454355836 L 437.9174714703113,206.03567162225954 L 437.2222596295178,207.071999570122 L 434.5850243587047,210.06279906257987 L 434.03668835014105,210.06279906257987 L 433.1586978919804,209.62583218025975 L 432.08160917274654,210.2660433393903 L 430.95556192472577,211.2213233381044 L 429.92743189819157,211.71253411169164 L 428.28242371045053,211.5058851330541 L 427.5284616481513,210.98757971124724 L 426.94748651236296,210.2660433393903 L 425.81817536614835,209.4937280951999 L 425.30900619737804,209.83923319354653 L 423.0830229539424,210.63188896537758 L 424.541988549754,212.05130832758732 L 424.72803114168346,212.59336107433774 L 423.4812193941325,212.92876475001685 L 421.93739232607186,212.8474542007316 L 421.7121828123927,211.94967536022887 L 422.22787985391915,210.52010192186572 L 423.16135671548545,208.98903203452937 L 424.1731672603637,207.78662804560736 L 423.63135904446244,207.16683008451946 L 423.0830229539424,207.16683008451946 L 420.68078880757093,211.85481845075265 L 419.7930066604167,212.8474542007316 L 418.87911325879395,213.00668781180866 L 416.4572957325727,212.33588388958015 L 413.17380723170936,212.8474542007316 L 413.793949207291,210.95709163951688 L 414.3096461687237,210.31007987330668 L 415.7784034535289,209.78842322388664 L 415.7979869134724,209.09742193226703 L 415.36715142801404,207.16683008451946 L 415.9154874365777,207.16683008451946 L 416.1635442264378,208.44031893252395 L 417.7693855743855,209.19903801963665 L 418.493972485885,211.5058851330541 L 419.25119844451547,211.75318664778024 L 419.99863271415234,211.29923855978996 L 421.08551304228604,208.57580208801664 L 422.3845472969115,206.374334072927 L 422.857813520357,204.49822801654227 L 421.1377355493605,203.70585467270575 L 420.2891202419996,202.77807904663496 L 420.9027344249189,200.67553122038953 L 422.2670466937125,198.39721295516938 L 423.63135904446244,196.94168363674544 L 425.70067484490573,195.83827064093202 L 427.4109610468149,195.42535495152697 L 428.17471488006413,196.20381071348675 L 427.4109610468149,198.64432662259787 L 428.48804976418614,197.79129174700938 L 429.4411100074649,196.66413139621727 L 429.8197229858488,195.3779718526639 L 429.16041416861117,194.05129645648412 L 430.25708626769483,192.67734644608572 L 431.80417723208666,192.42016589059494 L 435.7241272740066,192.91422668774612 L 435.7241272740066,192.34910352970473 L 434.9505817517638,192.37955880351365 L 433.54057476855814,191.78061499912292 L 433.54057476855814,191.26290047168732 L 434.20641137845814,189.84856921201572 L 435.19211074896157,188.55276350467466 L 436.5074644871056,187.60888203652576 L 438.19163943454623,187.2367564397864 L 439.6506050284952,187.41605230420828 L 441.5175586733967,187.8930560599547 L 443.31270650960505,188.6170440283604 L 444.53667089901865,189.50684614060447 L 443.5215963795781,190.49819992948323 L 440.11081566661596,192.34910352970473 L 439.53310442715883,192.91761070513166 L 438.9390737041831,193.88885336741805 L 437.32996853999794,194.11559726693667 L 431.2003548182547,196.29858163069002 L 430.2015998624265,196.94168363674544 L 428.34117401205003,199.642972441623 L 427.4109610468149,200.35052247554995 L 428.122492371127,200.98361802333966 L 428.9090934805572,201.40343750687316 L 430.7009773403406,202.0535006786231 L 437.8587211687118,198.891443814151 L 439.46782633289695,196.3188896982465 L 440.571026224643,195.50658344547264 L 441.92881078086793,194.90414755558595 L 444.2135443240404,194.41679893503897 L 445.16334067098796,193.74671685695648 L 446.68105648458004,191.78061499912292 L 445.49625893495977,190.83655889495276 L 445.0360483787954,190.6436935022939 L 445.0360483787954,190.12601274205372 L 446.3546660132706,189.83165211207233 L 447.47092149220407,190.64707707846537 L 448.3358563631773,190.75535211456008 L 448.923359291628,188.31932572065853 L 448.74384449236095,185.22741482267156 L 448.923359291628,184.40209558047354 L 449.51412611827254,183.8034251453355 L 450.1212124284357,183.8406300416682 L 450.529200559482,184.43591937306337 L 450.5128810759634,185.53184565738775 L 451.1134395916015,185.53184565738775 L 451.8249708376825,183.91504015401006 L 452.49733532220125,184.300624510739 L 453.8485920038074,186.7225594932679 L 455.0954037513584,187.44649896700867 L 456.75673142261803,187.94380194041878 L 459.6257039196789,188.31932572065853 L 459.97820572555065,188.71177365654148 L 459.811746513471,190.59970690472983 L 459.9259832184762,191.26290047168732 L 460.4612636398524,191.61819310067222 L 466.7736560571939,190.36285821488127 L 468.1379683278501,190.6436935022939 L 468.1379683278501,190.12601274205372 L 467.66143820621073,189.62864769203588 L 468.1379683278501,188.31932572065853 L 468.1379683278501,185.81598593015224 L 467.72018850781024,184.5644503980875 L 466.7932394389063,184.04356735781766 L 465.8728182427585,184.40209558047354 L 465.4517744462937,185.81598593015224 L 465.1580230202526,186.23882222594693 L 464.46281125955284,186.51959120295942 L 462.9353036750108,186.7225594932679 L 462.45550965704024,186.38089756760746 L 461.5155050009489,184.40209558047354 L 460.5330695286393,183.29271118179895 L 460.4220968000591,182.41337104490958 L 460.61466718651354,181.64905738271773 L 461.06834995001554,181.51040229015052 L 462.06384100951254,182.1292860195972 L 461.6558528803289,182.83274315996096 L 461.5742553025484,183.37388330558315 L 462.06384100951254,184.40209558047354 L 462.6611356306821,184.40209558047354 L 462.82759484276175,182.36264127446339 L 463.3759308513254,180.9016854504589 L 464.3844774980098,180.34371357853524 L 465.9511519242078,180.9929916439578 L 467.11310211755335,182.6873146397993 L 468.2228298820555,183.62078406568617 L 471.8163892906159,184.9229892815929 L 471.4247207250446,186.10013081668876 L 470.17138118483126,187.4769456826616 L 468.9767919443548,191.0869486629963 L 467.9813008848578,192.0276344891172 L 466.4929602202028,191.26290047168732 L 464.11030953377485,192.6976503666956 L 462.9255119841546,192.9616030731704 L 461.5155050009489,192.34910352970473 L 461.0226553156972,192.91422668774612 L 461.5155050009489,194.05129645648412 L 460.22299853898585,194.22727814759128 L 456.75346752628684,195.51335257315077 L 456.0419362001121,196.041347499704 L 455.1998486854136,196.98230138374493 L 453.5254654288292,197.52388073760085 L 452.2819175776094,198.25503961532377 L 452.7584476992488,199.7817718165461 L 454.07380143739283,200.42838856508024 L 455.323877081275,199.74114750837907 L 456.4531882274896,198.64771175663918 L 457.41277634352446,198.07901709200814 L 458.27444723807275,197.79129174700938 L 466.9401151910424,193.25263250735588 L 477.73384916596115,189.15159652661532 L 481.8822725377977,186.10013081668876 L 482.8255410902202,184.53400874999352 L 484.11804747208953,179.19400913012214 L 485.5280544552952,175.85352956410497 L 487.6593844536692,172.68944836617447 L 490.10404933802783,170.71894469251856 L 500.0,166.7647740074899 L 498.94040368683636,166.58937144605443 L 496.2336146906018,166.74814960779622 L 495.11649418622255,166.53573044668883 L 492.9983176365495,165.55949347955175 L 489.1143033448607,165.55949347955175 L 488.1381182856858,165.9435451773461 L 487.54950560070574,166.35764373256825 L 487.6116830315441,166.7953541369643 L 488.56714230775833,167.26526128943078 L 485.0313213020563,167.64076670026407 L 483.65305577404797,167.5484989278484 L 482.4405966810882,166.74814960779622 L 482.0240081939846,167.84890753100626 L 480.15661385655403,168.7780603801366 L 479.15555780753493,169.58493932057172 L 478.38663075119257,168.14502951339819 L 477.1368652135134,166.75887790624984 L 475.51196267828345,165.78262859676033 L 473.6300603225827,165.55949347955175 L 472.892221942544,165.96714644040912 L 471.9160368833691,167.4733976337593 L 471.4911580681801,167.88324022153392 L 470.43621499836445,168.06348812323995 L 469.62790893390775,167.97121815313585 L 469.3564009387046,167.55279048974626 L 469.89734428934753,166.74814960779622 L 469.4745380356908,166.19672340201214 L 469.2962961476296,164.42669665371068 L 468.50871586985886,165.1604317505844 L 468.0610386263579,164.80428757937625 L 467.95740962587297,163.83887211163528 L 468.2019740715623,162.72549144807272 L 466.558418314904,163.29397194180638 L 467.1097244769335,162.1613192704972 L 465.9552976898849,161.81596031412482 L 463.9573308005929,160.21366816363297 L 461.9925252273679,159.47370213456452 L 461.5987350884825,158.57506016199477 L 461.08266272582114,156.44337880960666 L 460.4857597909868,156.44337880960666 L 459.8038810752332,157.31617939914577 L 458.3282043132931,157.7558125804644 L 456.5478583164513,157.85017422703095 L 454.95818974263966,157.62928289500996 L 453.4617871977389,156.91301312064752 L 453.1509001944214,155.9909117638599 L 453.9115369208157,153.6086786550004 L 453.31670662760735,153.6086786550004 L 453.01410995423794,154.31623958284035 L 452.41927958093584,154.69147264119238 L 450.5788287948817,154.74293376971036 L 450.74256250448525,153.45430539082736 L 449.0762084815651,152.80037796194665 L 444.6035815048963,152.52594999643043 L 445.1756134517491,151.5547657420393 L 446.19532272033393,150.72512006899342 L 444.71550075523555,150.7122575887479 L 443.123759618029,150.1977683280129 L 441.6957521121949,149.39819539990276 L 440.71956713311374,148.51291868533008 L 439.9755109846592,149.3124523870647 L 439.0780840180814,149.6425650063902 L 439.57343051582575,148.51291868533008 L 438.54750355891883,148.7894289237447 L 437.2562864534557,150.1784752595704 L 436.28839172422886,150.72512006899342 L 435.89252894185483,148.8258686934132 L 435.87594828382134,148.06065124250017 L 436.28839172422886,147.37905645323917 L 428.3587017543614,146.9546802029945 L 426.98043622635305,147.1218574559316 L 426.8270653281361,147.76271825190634 L 426.4146218858659,147.98991851415485 L 424.21768748387694,148.0585078401491 L 423.7078328896314,148.73584135598503 L 421.8715272266418,149.9083745572716 L 421.28498718328774,149.8655018263962 L 420.4062133580446,149.12810632097535 L 421.33680164441466,147.17972690449096 L 422.59485759213567,145.73304669791833 L 422.59485759213567,145.11154567357153 L 422.04562390968204,144.76008551497944 L 420.6549229286611,145.11154567357153 L 419.92330231517553,144.95295916614123 L 418.7149883452803,143.93075251346454 L 416.75847302377224,143.3585991419386 L 415.5791751667857,143.26645622844808 L 414.6071353945881,143.6693168510683 L 412.09102357923985,146.2452654184308 L 410.25886312127113,147.04469848028384 L 409.2495167441666,146.9718264634721 L 408.8059847075492,145.98808266362175 L 409.220500709489,142.09649713267572 L 408.8101299107075,140.27099749539047 L 407.1645015925169,139.39902202482335 L 403.1063905376941,140.01818452845328 L 402.4929069429636,140.45739565626718 L 401.91880235262215,142.6128983576782 L 401.13743984140456,143.41217083437368 L 400.078351566568,141.84580145287327 L 398.96537626720965,139.75252048764378 L 397.48762694373727,137.92297227517702 L 394.496894415468,136.8668883170467 L 392.42016959376633,135.7016255413182 L 391.53103287518024,135.4403084057849 L 390.30199312232435,135.80872372328304 L 389.4625983033329,136.53058237256482 L 388.6149132344872,136.99969879421405 L 387.39830893464386,136.62269099988043 L 387.6387281753123,138.24645036435686 L 387.94339741021395,138.83343863743357 L 382.0862871389836,139.00911046052352 L 380.27899759076536,139.39902202482335 L 377.1722006071359,140.74449552805163 L 375.6364190541208,140.91161555005237 L 374.15452460572124,140.01818452845328 L 372.9441379942,142.85717621818185 L 372.10681581683457,144.24362300126813 L 370.4674053452909,145.36014353390783 L 370.54823591932654,146.46387363271788 L 370.3264698199928,147.46479026740417 L 368.73058347962797,147.66626615659334 L 369.65080887265503,148.87516944645904 L 368.47151101753116,150.83873857348226 L 366.70981824211776,152.15933785121888 L 364.6268756520003,152.7896580453962 L 362.51491694897413,152.69746699393727 L 357.71896743401885,151.82060338673182 L 356.40287941880524,151.0509711697232 L 352.7261229697615,147.47765026264824 L 349.87632580660284,145.49087307951413 L 348.7799311671406,144.45363509422168 L 348.0669637750834,143.15717121004127 L 347.6462300848216,140.08888608240522 L 347.38508505932987,139.59398090629838 L 345.7104406263679,139.05409978772514 L 346.143609771505,138.24645036435686 L 348.4151572212577,136.62269099988043 L 346.64931924268603,134.94338791654445 L 346.1726259663701,134.30512202135287 L 348.2534959129989,134.30726379808038 L 347.65866561979055,132.91086711012758 L 344.80265076830983,130.03488348727114 L 343.1072805505246,129.22977484366857 L 341.7455956824124,130.25115543114953 L 340.4647413883358,131.6687635872513 L 339.0035726428032,132.04352724039927 L 338.3672907818109,130.86358290840872 L 338.0190973356366,128.563873979263 L 337.85743610560894,124.37631872761995 L 337.57142009213567,123.83902780129574 L 335.7185338512063,121.8612473604735 L 335.7185338512063,119.54554504877888 L 333.5257445741445,117.84854686330073 L 334.81696167960763,116.99475668487139 L 336.24911423027515,115.68312083021738 L 337.279186392203,114.03140502935275 L 337.36001704633236,112.14452135493048 L 336.4294286798686,110.77761320839636 L 334.77965523675084,109.7744221824687 L 332.7733981758356,109.10708421608433 L 330.7878667395562,108.7541747293435 L 327.75153743848205,108.7541747293435 L 326.9183603860438,108.57451431592926 L 325.01158712245524,107.6227707543876 L 324.25924072414637,107.43028923985548 L 322.9265719689429,105.72156783752143 L 322.4726769607514,104.84695141250268 L 320.9286050796509,104.84695141250268 L 319.23323486186564,102.88830099743791 L 318.4622352421284,101.59048745036125 L 317.87984032183886,99.4739828382153 L 317.2186873909086,97.9006554314401 L 316.33369587920606,96.3039483409375 L 315.4051801562309,95.143374936888 L 313.3284552525729,93.50629719533026 L 311.96055269800127,92.70918165124021 L 309.0755217317492,91.9142366796732 L 308.61333639360964,90.81803678139113 L 308.4350945856422,89.4996895333752 L 307.6868933122605,88.36730912514031 L 302.4204682894051,86.92522451863624 L 301.66190412454307,85.77377209463157 L 300.88054153323174,84.96416545985267 L 298.0680508930236,84.10119291348383 L 298.3291959166527,83.2318516774103 L 297.74058322981,83.05884252302349 L 297.77788967452943,82.67011176538654 L 296.5985918175429,82.87515552318655 L 294.96954423747957,81.459116732236 L 293.9477624054998,80.9764488269575 L 291.692795695737,81.26690242625773 L 291.3031506817788,80.81413843110204 L 291.207812089473,79.00319041567855 L 290.4140139631927,76.51768780895509 L 290.08032869547606,74.92491531418636 L 290.38292536884546,74.20543551491573 L 291.5850215703249,73.82969420473091 L 292.0409890618175,72.87116024177521 L 291.87103750370443,71.59247786877677 L 291.207812089473,70.2583842414897 L 290.4803366009146,69.59030491835438 L 289.209845200181,70.87739219493233 L 287.57665241509676,71.01400354062207 L 285.7030403893441,70.95423596771434 L 283.92683951742947,71.57113165454939 L 282.6480578649789,73.13160345237702 L 281.8646227121353,74.82670571049675 L 280.92367153428495,76.25933367176913 L 279.16197875887156,77.03867698204704 L 278.0676566828042,76.9703497919254 L 276.6002702508122,76.50914710899815 L 275.48522238992155,76.89348189160228 L 274.9463516008109,77.39739919290878 L 273.20952989533544,79.70363106089644 L 267.5430968850851,83.8341919076629 L 267.31511317938566,86.02584657794796 L 268.1814514696598,87.80328066460788 L 268.2021772544831,88.71983534330502 L 262.06319617293775,87.80328066460788 L 260.96058376692235,87.22858729725704 L 260.0610841587186,86.40823723678477 L 258.75121374987066,83.84273589029908 L 257.81440769694746,82.85806851414964 L 255.89934410341084,81.98237672448158 L 255.0578767210245,81.4206736991182 L 252.28891029208899,77.08138170326129 L 247.03284808062017,71.4089010534808 L 245.76442932151258,69.39394096680917 L 244.67010724544525,65.69968400965445 L 243.73744639754295,64.63912970083766 L 242.53949531912804,64.0523288808763 L 241.06796368211508,63.689588284818456 L 236.92694949172437,63.42287155659869 L 235.60878875479102,63.749333332292736 L 233.86782176420093,65.39879645570181 L 232.6947416756302,65.23235004884191 L 231.61700017750263,64.66046823328361 L 230.45221041888,64.28704707045108 L 229.03042076155543,64.69034223468043 L 226.37337358109653,66.15635910304263 L 223.20647180825472,65.96856616041623 L 216.66541017778218,64.71594859403558 L 213.1668956167996,65.15552910137922 L 211.4881060589105,65.01042371056974 L 209.66838113591075,64.09073712280951 L 208.36265585198998,63.11135103739798 L 208.03933347575366,61.45781604270451 L 207.7325916774571,55.625696829054505 L 207.88596257567406,54.87707670312375 L 208.2009947039187,54.450525420950726 L 209.22899422235787,53.66782800829969 L 209.53573602065444,53.13467341312207 L 209.58962312340736,51.81464528827928 L 209.09220398403704,49.17272446374409 L 209.133655551821,47.76768335700035 L 211.72438017465174,37.871279755141586 L 211.59173505939543,36.58636902575381 L 210.57202586904168,34.30868087057024 L 210.44767108373344,33.130522067891434 L 210.75441288203,32.30819578957744 L 211.77826719731092,31.926869502058253 L 212.2964122015983,31.458210418000817 L 212.87673447839916,30.40802797395736 L 213.52337939292192,27.54746712348424 L 213.34928262978792,26.2802611135412 L 212.72750878334045,25.196278190007433 L 211.62904150225222,24.17623778246343 L 210.4766871985048,23.386221375782043 L 209.71812303364277,23.186060381587595 L 208.96784911863506,23.424550303258002 L 204.35014157183468,25.71164193050936 L 202.96980348229408,25.828771921340376 L 201.6806589383632,25.45608798437752 L 200.61949810013175,24.723518066573888 L 196.76449984312057,21.397476946469396 L 196.1178549285978,20.588408241048455 L 195.545822981745,19.483443373581395 L 194.82871038466692,16.94374451553449 L 195.72820999473333,14.934352352051064 L 195.03596838749945,10.601216387934983 L 195.23908118344843,10.081983333220705 L 196.00593567825854,9.584042799193412 L 195.79038742743433,8.777575431857258 L 195.38416175357997,8.354139575734735 L 193.74682376347482,7.403037183219567 L 191.86906653270125,4.454264012165368 L 190.957131549716,3.465052606537938 L 188.90527755580842,2.165323156863451 L 187.23270576447248,1.3421329751145095 L 186.7974639777094,0.0 L 185.85029511153698,0.06380777643062174 L 184.00569912046194,1.2017472067382187 L 182.81811093539,1.3293706227559596 L 164.41854744032025,0.14620609558187425 L 165.22799590788782,0.7156307261902839 L 165.47931659407914,1.7674333467148244 L 166.06029165163636,2.574745310237631 L 166.9219626262784,3.164337682770565 L 168.01863472349942,3.576392500894144 L 168.01863472349942,4.088960099034011 L 165.80244317092001,4.162663664435968 L 164.20639359392226,4.480932233156636 L 162.99548486992717,5.177790255984291 L 161.9477713033557,6.383947035996243 L 161.3080459460616,7.637085620779544 L 161.4483938254416,8.94391667819582 L 165.22799590788782,9.761566669913009 L 160.5867229308933,10.998157258145511 L 157.9592793509364,11.286370798479766 L 156.4709386061877,10.83394441078417 L 155.9715611282736,10.83394441078417 L 155.7496155910194,14.011196981649846 L 154.65294349193573,17.262700565624982 L 153.1058525275439,20.139210264664143 L 151.5391781013459,22.187884932616726 L 150.74278522096574,23.911481946939602 L 149.7440303452313,23.767284330446273 L 149.34583390504122,23.87124065682292 L 148.78770612552762,24.615717991022393 L 148.52006595395505,25.279734698822722 L 148.66041383333504,25.960542353335768 L 149.34583390504122,26.738636644324288 L 151.37271896749735,27.80521170888096 L 152.08751410990953,28.429083983181044 L 153.69009155966341,30.710073307156563 L 154.2808583062142,31.24346002889797 L 155.36447481811047,30.995215365896 L 156.63086994551122,31.307199018774554 L 159.20609109848738,32.31363115739077 L 159.0951182898134,33.00809910031967 L 159.20609109848738,34.054879188071936 L 157.47295745834708,35.541267649736255 L 156.73857885599136,35.69561687554233 L 155.1294736135751,35.39363044919446 L 154.4930121526122,35.531201464589685 L 153.72925840131938,36.30967019707896 L 151.93737454153597,34.86684281262569 L 151.5391781013459,34.054879188071936 L 151.39230234920979,32.94770961254835 L 151.72522069327533,31.90098779438995 L 150.94188348017633,31.24346002889797 L 147.65839497931302,31.24346002889797 L 145.68373242393136,30.911349683534354 L 144.9167147744447,31.24346002889797 L 144.9167147744447,31.807053913362324 L 146.0656093005091,31.807053913362324 L 146.0656093005091,32.31363115739077 L 144.54462958872318,32.64241002174094 L 142.97795516252518,33.20939866406843 L 141.5712120756507,33.33017941494472 L 140.53329027816653,32.31363115739077 L 139.99148198217154,32.31363115739077 L 140.1383577361703,33.12552355672233 L 141.03266775608063,35.18224263098091 L 139.9359956588596,35.6117313366849 L 139.6814109943807,36.51771448459476 L 139.99148198217154,38.84326110477559 L 139.55411870218813,40.0850069669541 L 138.55536382645369,39.87356908549555 L 137.4391082674265,38.93387237004936 L 136.6557710543275,37.997576161520556 L 137.3901496566832,35.655351769411936 L 136.21187997981906,33.467736119171605 L 134.03811916522682,31.85737561248243 L 131.77623297646642,31.24346002889797 L 130.34011474065483,31.5185455000028 L 128.46663330309093,32.67260427866131 L 126.93259792402387,33.1859135851264 L 126.80530563183129,34.313227648846805 L 126.52134581655264,34.56822424265556 L 125.19620038755238,34.735986926127225 L 124.0603614486754,35.16211063042283 L 130.37769920378923,38.0588026358746 L 131.762182418257,39.63790188333951 L 131.95078719966114,40.69709850451909 L 131.8077791929245,41.79471647250466 L 131.39533575065434,42.78369057341479 L 130.77770703099668,43.50413833721541 L 129.61084470897913,43.96029352257028 L 127.91132936812937,43.39329843968153 L 127.08437000215054,43.69171486306004 L 126.24497518315911,45.57610561652109 L 126.71545077115297,47.85722780879587 L 128.63880477659404,52.51836489071138 L 128.82119178771973,54.02185072330758 L 128.75486931204796,57.08462902600877 L 129.0450304504484,58.541537535144016 L 129.7434897441417,59.5548252358567 L 130.54765076190233,60.32069260021672 L 130.94351338408887,61.20819788379595 L 130.4232959765941,62.57580359838903 L 130.82744900882244,63.924302069237456 L 132.44613369740546,67.66943941428326 L 133.1694640610367,68.87102510547265 L 131.7580372132361,69.44089739955962 L 128.2180711645633,72.4954450787045 L 126.19108816049993,73.45396017841995 L 125.54029812105,74.43387266318314 L 124.75893552973866,76.60736526572146 L 124.00244400836527,77.20522581040859 L 122.7982751633972,77.15397982439026 L 121.9920416623354,76.48138988087885 L 121.3288160879165,75.6358818395529 L 120.5515987817198,75.08290559332818 L 119.77852652035654,75.03166529303417 L 117.40749535523355,75.40956529881805 L 116.78364886716008,75.19392654951662 L 115.38465755432844,74.20970530924387 L 114.8354239538312,74.36982460366562 L 113.65198089368641,75.14268595189787 L 113.02191671915352,75.2707876204513 L 111.8218929991126,74.9462651796639 L 108.1658624149859,73.11452515888959 L 107.49849179573357,75.16403622552752 L 103.54815478809178,79.4815373821184 L 102.37300213612616,82.5505039000418 L 101.45070418156683,83.31728880410083 L 99.33667291514575,83.43690149276517 L 95.15420699678361,82.93496038275771 L 93.87542534433305,82.96486288309097 L 90.5385720115155,83.5693307633046 L 89.75099173374474,83.27029837016016 L 89.71368529088795,82.9926295503974 L 89.79244330152869,81.35660212254152 L 90.8183702584356,80.17558882082812 L 90.43494301103055,79.04589953017421 L 89.9209432117641,78.92631433275528 L 89.21004846319556,79.04162857308984 L 88.2504440639168,78.62949021533132 L 87.72400880977511,78.04439720907249 L 87.13332355953753,76.99597243894823 L 86.49911417998374,76.38744265120476 L 83.78610733523965,75.6956639252603 L 83.2285833247006,74.6601777530741 L 82.07622902095318,75.07009546412155 L 80.91351182572544,75.14695603772998 L 80.66272969171405,74.8523256520275 L 80.50935879349709,73.61193832755089 L 79.92281875014305,73.67171426094137 L 78.64403701759875,74.17981652147137 L 77.87510996125638,74.2225147804711 L 74.64395819231868,73.50306144030765 L 73.18278952687979,72.88396881846711 L 71.68224185705185,71.96817535464652 L 69.54333960264921,71.86144243227318 L 70.25008922629058,73.02913358923979 L 70.1962022036314,74.35274520679377 L 69.10395260900259,77.30771802947856 L 69.60137175023556,80.49592875130475 L 69.10395260900259,81.59153215307742 L 69.56821051053703,81.64279006281868 L 69.65525885298848,82.10411679861136 L 68.9381462559104,82.81107913213782 L 68.16092886961997,83.13787118252367 L 64.62718050740659,83.40699824993499 L 58.55037677846849,85.35507938452065 L 56.50681311450899,85.49179435218684 L 53.97204823791981,84.98552673589438 L 54.0114272441715,85.56015212275088 L 53.83111271262169,86.2501530230511 L 52.85492773540318,87.30336050619371 L 50.7616222538054,87.67082200502045 L 49.503566386178136,88.49763623974286 L 49.54916307888925,89.66207422176376 L 50.03207412175834,91.0231687836349 L 50.0983966793865,92.42282663076185 L 49.52429208904505,93.36525026336312 L 48.82376023195684,93.29259002651088 L 47.04134159348905,92.40573092387058 L 43.52417389117181,92.67071579000913 L 42.114819686859846,92.46129198651761 L 41.58838443271816,94.79500315967016 L 40.38421558775008,97.2679413612932 L 38.705426109954715,99.3927480475977 L 36.7198946736753,100.66475455183536 L 35.46598401106894,100.69040930294432 L 33.393404234200716,99.64714246080257 L 32.61618684604764,99.4739828382153 L 31.909437222406268,99.98705292632803 L 31.22134074009955,102.9652746648062 L 30.502155581489205,104.18620461598039 L 29.762244638055563,105.08217426203191 L 27.726971304044127,106.63258130475879 L 27.366342483088374,107.3746837968938 L 27.04716514982283,109.91131508583203 L 26.53523799404502,110.93590415129438 L 25.252311136573553,111.57977715320885 L 22.51650594547391,111.90065240068361 L 21.602498319000006,112.69002922577783 L 21.917530447244644,113.5051121241413 L 21.987998129799962,114.34804387693293 L 21.81390136666596,115.17175789177418 L 21.413893539458513,115.93131883488968 L 20.5599907040596,116.92200449248776 L 20.089515114203095,117.0118749185931 L 19.380692847073078,116.81501643615775 L 18.744410905987024,116.15812338422984 L 17.589983958750963,113.92015487607569 L 16.829347232356668,113.22271712240763 L 13.125647312030196,114.33092802437022 L 11.09037397801876,115.77726455172524 L 6.999101605266333,116.65453547099605 L 4.5099334213882685,117.83998735691421 L 0.17409668304026127,118.53759919083677 z" /><path fill-rule="evenodd" fill="#D2EBD9" stroke="#A6A6A6" stroke-width="0.25" opacity="1" d="M 140.26565002836287,25.561445342376828 L 140.52023461088538,24.964491692837328 L 140.3668310660869,23.683448928641155 L 139.52800752967596,22.49637774680741 L 137.74591535888612,22.187884932616726 L 136.78306334652007,22.33542435686104 L 136.10090717114508,22.75122326379642 L 136.10090717114508,23.26092401985079 L 136.6557710543275,23.26092401985079 L 135.55909895710647,25.04833246092312 L 136.85813313163817,25.480956205632538 L 137.88299934193492,25.621812448836863 L 140.26565002836287,25.561445342376828 z" /><path fill-rule="evenodd" fill="#D2EBD9" stroke="#A6A6A6" stroke-width="0.25" opacity="1" d="M 139.69120276533067,32.05530871101655 L 140.48433166742325,31.82047305908054 L 142.64830071292818,32.29014713736251 L 143.82330657355487,32.31363115739077 L 143.82330657355487,31.807053913362324 L 142.432882970199,31.15623856242746 L 143.38267939537764,27.905834930948913 L 142.17829838581383,26.738636644324288 L 138.46723837405443,27.95614677341655 L 136.74716040305793,28.989243919961154 L 136.94952247850597,30.42158080241643 L 137.9939721506089,31.96137410076335 L 138.7185590621084,32.43440646142699 L 139.69120276533067,32.05530871101655 z" /><path fill-rule="evenodd" fill="#D2EBD9" stroke="#A6A6A6" stroke-width="0.25" opacity="1" d="M 199.33580367825925,260.87845917697996 L 199.83191725984216,260.3552353649866 L 199.1399693954736,258.98270075023174 L 199.33580367825925,258.03150591487065 L 197.82461565732956,258.08585846377537 L 196.57127611525357,257.78012788202614 L 194.40730706974864,256.8901441213675 L 192.51862858049572,255.7960383144673 L 191.29819912835956,256.74778723646887 L 189.81669411808252,257.2628622245975 L 190.51210905984044,258.22352121095173 L 194.0803342461586,259.98032968724146 L 198.38927122950554,260.92602576036006 L 199.33580367825925,260.87845917697996 z" /><path fill-rule="evenodd" fill="#D2EBD9" stroke="#A6A6A6" stroke-width="0.25" opacity="1" d="M 221.1692316327244,274.05699959932826 L 221.74751912802458,276.08521565562114 L 224.06457944773138,278.0194771080278 L 227.25429641269147,280.00398046779446 L 234.49688655510545,283.37867764779367 L 243.18122096545994,286.1300529933069 L 245.59389974176884,286.41901044361293 L 251.28670847043395,286.07880861125886 L 255.24332974478602,286.0277799835894 L 253.60231034457684,285.5465865635779 L 251.86479238420725,284.67941214400344 L 250.3213113564998,285.162750845775 L 247.90899073518813,284.5850049825385 L 246.21200806088746,284.9443444472272 L 244.78568159416318,284.7129693380557 L 242.64129592850804,283.48809702927247 L 240.76836034469306,283.1871248257812 L 239.3206886034459,282.12554157711565 L 236.37634961120784,280.6770125795156 L 233.47970891185105,279.61363587668166 L 230.43555732630193,277.43834363413043 L 227.68873678520322,276.5795061911922 L 225.8528739027679,276.38228922104463 L 223.2461463212967,273.86796465772204 L 221.65356502495706,272.7550853914581 L 221.1692316327244,274.05699959932826 z" /><path fill-rule="evenodd" fill="#D2EBD9" stroke="#A6A6A6" stroke-width="0.25" opacity="1" d="M 276.92335222661495,288.85613373317756 L 278.198979312554,291.0896813715808 L 279.11543490178883,292.26839021686465 L 281.76356704719365,293.4717377109919 L 283.2878671269864,292.9095158961136 L 284.50536965951324,291.88978749653324 L 284.09538781642914,290.87372292764485 L 282.3152024075389,290.67428850382566 L 281.9050922226161,289.4552065890748 L 280.8339475020766,288.0346226231195 L 279.2583837118,287.93643343867734 L 278.18857527151704,286.71947494195774 L 274.06810141168535,283.9342496432364 L 273.76497115567327,284.69670730107464 L 275.70261210761964,288.2488441141322 L 276.92335222661495,288.85613373317756 z" /><path fill-rule="evenodd" fill="#D2EBD9" stroke="#A6A6A6" stroke-width="0.25" opacity="1" d="M 434.97016521170735,369.0705489257816 L 436.1745461411774,368.8755661819596 L 437.28100992925465,368.4377191737294 L 435.83836389891803,368.2940533941146 L 435.3128751665354,368.5574417395983 L 434.97016521170735,369.0705489257816 z" /></g></g></g></svg>