<svg xmlns="http://www.w3.org/2000/svg" xmlns:xlink="http://www.w3.org/1999/xlink" width="500.0" height="490.4170098947361" viewBox="0.0 0.0 500.0 490.4170098947361" preserveAspectRatio="xMinYMin meet"><g transform="matrix(1,0,0,-1,0,490.4170098947361)"><g><g><path fill-rule="evenodd" fill="#D2EBD9" stroke="#A6A6A6" stroke-width="0.25" opacity="1" d="M 255.13384809717536,484.8473472343758 L 259.2810077238828,482.1690764958039 L 260.40966512449086,481.0288336481899 L 260.9258727543056,481.0288336481899 L 261.2933425679803,482.12460655905306 L 261.81829949095845,482.5439063711092 L 262.4832448530942,482.42954925913364 L 263.2444324437529,481.9403770426288 L 265.49299786798656,481.4988823933527 L 267.32159780710936,480.2349073989317 L 268.86147140339017,478.3298686174676 L 270.22635938599706,475.98741448577493 L 271.81872865743935,473.90592083428055 L 274.3997668083757,472.3039920469746 L 275.4321820680052,470.12534961197525 L 276.00963466614485,470.12534961197525 L 276.639582939446,471.8726470787078 L 277.2432834189385,471.47621476091444 L 279.9030651245266,470.7975771194324 L 281.56542865745723,469.1615184172988 L 281.976644936949,470.1316911354661 L 282.42285830527544,470.12534961197525 L 283.5077692400664,469.0442194826901 L 284.77641516551375,467.3356921682134 L 285.5900983456522,465.3392640100792 L 285.3101212978363,463.419451049529 L 286.7887499257922,459.12562158796936 L 291.1458923369646,454.1449295692146 L 293.2282213587314,450.2237317021936 L 294.0331553313881,449.13632107153535 L 298.5390355605632,445.4581314297393 L 299.2389780115336,444.54205703828484 L 299.6589435841888,443.2218660376966 L 300.64761246182024,442.1545325201005 L 304.7335270345211,439.06716655381024 L 306.00217295996845,438.44860093761235 L 312.8703592605889,438.20876434538513 L 313.824030963704,437.64707506634295 L 317.2100030016154,433.21200812328607 L 317.67371495626867,432.0642874222249 L 319.51981347985566,424.89231059513986 L 320.84095499664545,424.3947149273008 L 322.2233415674418,424.20576415769756 L 322.9845290724188,423.1414404409006 L 320.72721435315907,422.3858095854521 L 320.72721435315907,421.55471344664693 L 321.96961239911616,421.1140221050009 L 322.967030569911,420.2327260328457 L 323.8594573047012,420.0187144316733 L 324.76938254386187,421.55471344664693 L 325.2593423780054,419.47112715709955 L 325.1281031463295,418.38867161236703 L 325.39933090284467,418.02998929005116 L 327.0879422314465,418.1558405132964 L 329.1090263687074,418.929877737537 L 330.0014531891793,418.545994493179 L 330.5526579078287,416.56399450358003 L 331.00762056931853,416.9225990343839 L 331.56757458113134,417.70278682466596 L 332.28501570411026,418.1558405132964 L 339.50317331403494,417.81604742538184 L 343.0903788432479,417.06730437185615 L 346.20512312464416,415.6581312166527 L 350.21229431033134,411.4135163994506 L 350.83349329046905,410.25692839734256 L 351.74341861344874,404.6151156472042 L 352.4346118569374,404.15668974164873 L 354.3507045581937,404.03109908662736 L 364.6661079470068,400.8481527296826 L 367.12465615943074,399.05330513231456 L 368.7957689873874,396.16748575214297 L 368.80451828055084,395.66572978533804 L 369.8194349538535,395.87897147238255 L 370.7031123954803,397.7043450688943 L 371.4905477799475,398.14351180940866 L 378.7349531855434,398.14351180940866 L 387.63297283276916,395.66572978533804 L 388.6128924153745,395.66572978533804 L 389.5315670315176,396.01695508137345 L 390.9926970731467,397.08328652754426 L 391.7363860756159,397.321665879339 L 398.70081443339586,397.321665879339 L 400.27568520233035,396.8198243416846 L 402.8742219377309,394.8629973977804 L 404.7990638501942,394.83791363518685 L 406.2601939756423,393.2515489254147 L 407.712574807927,392.699856874533 L 409.17370484769344,393.27035736106336 L 410.5473421253264,394.0478199608624 L 411.90348081476986,394.022739097476 L 413.31211518123746,392.2046262808144 L 414.47576967068017,391.97896365169436 L 415.05322227068245,392.03537863399833 L 415.6744213346392,392.2046262808144 L 417.28428919427097,393.47098433226347 L 420.2240478619933,397.12092475034297 L 421.6064344327897,398.0556763028726 L 423.5050286334008,397.1585633037612 L 425.7098475918174,397.98666336014867 L 429.36704738251865,401.1243253936991 L 430.381964141503,402.3672420177609 L 432.23681187443435,405.9842987982556 L 433.6104491520673,407.4417159669101 L 434.0916596073657,409.6535698734224 L 434.40663382969797,410.269499078393 L 436.32272653095424,412.174206613563 L 437.9063465949148,412.51371594611555 L 442.09725260175765,411.0614904323593 L 445.439478257671,409.30163560807705 L 446.4718935173005,409.1633806647733 L 447.3555709589273,409.6598546495661 L 448.1080092545599,411.62096884753555 L 448.956689523533,412.90983162168413 L 450.05034983716905,411.9164425563067 L 450.9427765738219,411.9478766610846 L 452.3864081110805,412.9475581878796 L 454.0837687347084,413.45059848576784 L 455.0286912303418,413.978831294924 L 455.8686222899705,414.95365494675934 L 457.119769545272,415.0480001317337 L 457.6009800862521,413.1613456811756 L 456.14859933778644,412.21192906983197 L 454.71371700800955,410.67176874447614 L 456.4548241831362,409.2890668492764 L 457.3472508341074,408.2962100887671 L 457.6009800862521,407.35375947970897 L 456.98853031359613,406.55592070519924 L 453.2263390868902,406.065956145525 L 452.981359211728,402.75020674895495 L 452.35141093842685,401.0050676576793 L 452.6663850750774,400.25818521529436 L 453.961278796196,398.92153452243656 L 454.56497927568853,397.88000846654177 L 457.0235274024308,394.83791363518685 L 457.41724517941475,393.0007742056623 L 457.76721640489995,389.3217241661623 L 458.47590823471546,387.7617082474753 L 459.6395627260208,386.83464004006237 L 461.0831942651421,386.0016396846622 L 462.31684301793575,384.91200412251055 L 462.8068027663976,383.1777157764882 L 462.3343415185809,382.1323483288288 L 460.00703253783286,378.8971121245995 L 458.05594266206026,377.18312469962984 L 457.70597143657506,374.9068181300536 L 457.6009800862521,372.6375249698758 L 457.31225374527276,371.60002920310944 L 458.0296948682517,371.0126019688323 L 459.7183061968535,368.2698638001457 L 460.5407388396561,367.47036717738956 L 462.10686023160815,367.49535017460585 L 463.20052045956254,368.3573144348338 L 464.04920081421733,369.381819951348 L 466.25401985645294,370.6814152179286 L 467.0064580682665,370.9126192703843 L 467.7763948664069,370.33149987552315 L 468.94004935771227,368.2073996635154 L 469.7887297105044,367.47036717738956 L 471.21486266329885,366.8021102370694 L 472.4397621229291,366.53357694949955 L 473.52467305772007,365.9153660302982 L 474.46959555335343,364.17343783192337 L 472.0110473409295,361.7579532591626 L 466.2890169452876,362.60670781787485 L 465.169108921662,359.6053374223411 L 465.23290404491127,357.39676752500236 L 465.6678862515837,355.9691782835871 L 466.8657779879868,354.7471984839067 L 468.12594034709036,352.65366937592626 L 467.38953000865877,350.98850751761347 L 465.25053451396525,350.67297121323645 L 463.40296154655516,349.6307605151087 L 463.5692211575806,347.2298165522516 L 465.1096682753414,346.1515035703778 L 466.11150707677007,345.8231394411996 L 466.67358791828156,345.0868806624785 L 468.0346068236977,344.08880013320595 L 469.95650672726333,344.1199264321476 L 471.163382217288,343.8826681962237 L 472.4973013177514,343.3766988813877 L 473.6209152005613,342.15996315609664 L 474.2911925241351,338.5009945780039 L 478.8909135647118,335.78715916443616 L 482.1667666975409,334.43408255651593 L 487.4769604150206,331.7945364397019 L 490.00329368561506,330.9935039393604 L 497.4802068192512,330.18589576985687 L 499.1075732652098,329.42812059354037 L 500.0,327.00628772750497 L 499.7900172993541,324.18810627330095 L 498.547619253397,322.9469852037728 L 491.2332195844501,322.6119211539626 L 490.822003306821,322.9035500464961 L 490.13955935649574,323.95227597653866 L 489.74584166519344,324.1694878274575 L 489.1333919763565,323.896422598511 L 488.56468858756125,322.8290904369205 L 488.1447230987251,322.5250552520156 L 484.60126386769116,322.0597216486931 L 482.7901626005769,322.171398865059 L 481.16279615461826,322.7918608756736 L 480.2528708335012,323.7226595049724 L 478.6605015620589,326.0253790644929 L 477.654334096238,326.5716905221343 L 475.7907370701432,326.12470518331975 L 476.3769389614463,324.3556749233976 L 477.4705991912633,322.0845385575667 L 477.12937717325985,320.14908331166953 L 475.30077731981874,319.7707410035655 L 470.5586665086448,320.2483241232112 L 469.27252208068967,319.09473873488605 L 469.3862627260387,318.0281552672386 L 471.5298367999494,315.47399166598916 L 472.17728366144,313.9803715646267 L 472.4397621229291,312.8216459080577 L 472.75473625957966,309.9411722207442 L 473.45467879623175,306.4057299327105 L 473.5509209372103,305.1492605879903 L 472.6847420819104,301.12144568096846 L 472.8597276099026,299.90304894931614 L 473.7784022260457,299.05586513038725 L 475.5107600223273,299.7175254113972 L 476.28069690428674,298.8641811525449 L 476.62191883660853,297.04035897552967 L 476.01821835897863,296.1749858530238 L 474.242114180699,295.25410126149654 L 472.9122233707458,292.992586879991 L 472.13353727944195,291.9794722106308 L 471.1186205204576,291.361792714335 L 469.88497176766396,291.51620741188526 L 468.1788618527353,293.3879892732948 L 467.03270594775677,293.7525209225714 L 464.7491433490068,292.4674782846123 L 464.994123224169,290.06484640203416 L 466.81397386826575,286.57665788847953 L 465.8952992539853,286.29891369957477 L 456.13110066764057,286.04586756788194 L 453.5150654297322,286.9223109325394 L 450.05034983716905,289.19417705293745 L 447.13683887943625,292.32539709750563 L 446.22691355645657,295.76088155433536 L 446.83936332911253,296.92909057158977 L 448.67671247571707,298.332440610975 L 448.93044172786176,299.5134550957009 L 448.18675281107426,300.8554827310145 L 448.09051066823304,302.09879323095083 L 447.84553070925176,302.82880188524723 L 447.26807819493115,303.6578889945522 L 446.6818763036281,303.8806458255276 L 444.31957023218274,304.109598075971 L 443.3221520613879,304.54895997419953 L 442.3072353042662,305.77437175251544 L 439.1487445551902,312.25784501619637 L 438.7287790682167,312.80305835977197 L 438.23006994090974,313.1128579340875 L 437.65261734090745,313.0508968019858 L 437.2064039744437,312.5862069595605 L 436.5327092334628,310.58530194684863 L 435.7365246396512,310.15174638386816 L 435.0453313961625,310.4738136958331 L 434.45912950485945,311.26665908284485 L 433.4004663657397,313.80066324491054 L 433.0242472589016,314.34599942713976 L 432.38554969243705,314.6372762816027 L 431.82559559494257,314.53811690956354 L 430.07573929801583,313.58997688628733 L 427.3459633309394,313.99896230828017 L 426.1035652849823,313.47843960206956 L 426.05981890298426,312.4127307822928 L 426.4710351806134,310.95074874255806 L 426.6285222079605,309.2661395939067 L 424.5899394825101,309.3342591673136 L 422.36762193776667,310.1641333224252 L 420.2765435371548,311.5144421812147 L 417.1617992557585,314.89137916173786 L 415.7006691303104,316.1186420880258 L 414.08205197937787,316.8625448262319 L 408.1062924992293,317.37092500086874 L 406.8463959507644,317.92894664779305 L 402.99671187624335,320.7073315586895 L 400.9581291526556,321.5199742205441 L 398.87580004520714,321.07952224556357 L 397.9483762215823,319.91339210700244 L 397.69464705325663,316.905941770412 L 397.117194455117,315.64754541032016 L 395.62981653399765,314.7178444629535 L 393.82746447622776,314.3336050445214 L 391.9813659507781,314.37078849971294 L 390.33650100417435,314.69925176817924 L 388.46415459923446,315.58556133974344 L 383.7832888402045,319.82656070403755 L 382.4358994439244,320.5584609536454 L 381.1147578433156,320.54605519678444 L 379.8461120016873,319.88238085992634 L 374.7015342898667,313.6705326270312 L 373.3016491327435,312.35697149764746 L 372.57545880042017,311.96047417633235 L 370.25689902715385,311.50824742857367 L 367.75460451841354,310.4614263176918 L 366.91467337310314,310.3623271388933 L 365.20856345817447,311.04985631257296 L 363.6774391550571,312.46229490451515 L 358.92657905071974,318.6172359986231 L 356.65176574513316,320.8686117241159 L 354.13197256438434,322.301691214554 L 351.3234531264752,322.4692135285586 L 349.4948531873524,321.50756683852524 L 346.3713595289737,318.17697083298117 L 344.6215031463653,317.0733321523294 L 343.6940793208778,316.94933887105435 L 341.8392315879464,317.1415293002501 L 337.587080527097,316.57737262081355 L 336.9571322519332,316.3542025247589 L 337.3945963270962,317.12912985589355 L 338.17328241840005,319.6280926335603 L 336.15219828113914,318.55522503051907 L 335.1372816078365,318.37539670057595 L 334.06986925937235,318.74125950038433 L 334.68231894634664,319.4978511920199 L 334.9447974078357,320.1614883495495 L 334.84855526685715,320.8437991058454 L 334.35859551653266,321.6440503504127 L 333.6936500687152,322.07213015202433 L 333.30868167057633,321.6006234670058 L 332.9149639774114,320.45301279146224 L 330.09769524633884,319.54746675584465 L 328.5403230637312,319.3800159711391 L 327.3679192792624,320.0374391041696 L 326.5892331879586,320.7073315586895 L 323.8069615457207,322.5374645991251 L 322.2233415674418,323.1951914941892 L 318.9336115885526,325.37358732521534 L 316.94752462394536,321.27182883024216 L 312.91410564258695,320.9802694953978 L 312.00418031960726,320.45301279146224 L 304.4972964525223,323.9460699567571 L 300.88384304381907,326.68344145361334 L 299.2389780115336,330.2914940342307 L 296.8679226487875,328.5710662053898 L 297.31413610093296,330.30391748808324 L 296.8679226487875,331.93779642134905 L 296.05423946864903,330.4033058118075 L 295.16181264817715,331.0183031819761 L 294.12939738854766,332.29817211814225 L 292.8782501332462,332.75177539978176 L 293.4557027313858,331.11148948967457 L 291.7058464344591,330.91890591103584 L 291.21588660031557,331.5836525708437 L 291.1458923369646,333.57206628471613 L 290.4634483028203,336.10191669967026 L 289.7635058518499,336.7920386400074 L 287.44494608044624,334.8213347233832 L 286.5000236686319,333.2675528097898 L 285.6163462270051,332.2733179787174 L 284.93390219286084,331.84459896106273 L 284.4614410288632,330.50269546173513 L 283.6302591767162,329.9250128502026 L 282.6853367667645,329.515074015595 L 281.83665641210973,328.67042920645326 L 281.35544587112963,327.2360145105049 L 281.2854516096413,325.3177223363891 L 280.2267885543406,324.37429399508983 L 278.0744651854038,324.0888084033504 L 261.20584980398417,329.13621311914176 L 256.2887533791363,329.30390311498195 L 252.3078300729394,326.5716905221343 L 249.5343077238649,320.3971879808232 L 248.37940252572298,318.567627299577 L 247.46947720460594,317.8979442715645 L 245.24715957418084,317.19732755981386 L 244.45972427353263,316.645564828068 L 243.8297760002315,315.5359746068716 L 244.0222601145506,314.0795229803771 L 243.84727450087667,312.67294657602906 L 241.7299483064562,308.46733362972736 L 240.34756173565984,303.35470375139266 L 238.28273121640086,302.79168099723756 L 235.15923764184117,303.5032009370625 L 231.93075254745781,304.91408506873995 L 229.5421986822039,306.4119199551642 L 221.79908414930105,314.16628163214773 L 220.32045552134514,316.1310398224741 L 218.51810346357524,320.8189866989851 L 217.22320974245667,322.9780104672536 L 216.16454668715596,323.7971288450062 L 214.3096988685429,324.1943125128746 L 213.57475915923715,324.74668428953737 L 213.94222905673087,326.18057676777244 L 213.98597543872893,327.2360145105049 L 213.24228652007878,328.3040349530056 L 212.2273697629571,328.81326621677727 L 211.2999459374696,328.85673905722797 L 209.35760535486042,328.4779145391658 L 201.25577030330896,328.7014804556966 L 196.6798958964646,327.9500793982297 L 193.93262142688036,325.4046236006543 L 192.97020034492016,322.7856560284272 L 192.89145687408745,321.8611889043823 L 193.20643101073802,314.7364372089505 L 192.8389611132443,312.8712131101638 L 190.85287423431873,307.6995768658817 L 190.81787706166506,305.46490363031626 L 191.8240444418043,301.8327925093472 L 191.50032101012766,299.7175254113972 L 189.400493318215,296.0451892912388 L 188.72679866105318,293.93788357265294 L 189.01552500389516,290.9356263158843 L 190.17917949333787,288.5335298869759 L 191.5353180989623,286.38532181084156 L 192.33150277659297,284.11438347771764 L 191.92903579212725,282.00456384941936 L 190.45040724799037,281.31376932002604 L 188.70930015854537,280.7710510166362 L 187.47565132193267,279.1246557859704 L 187.5806427579373,277.12731174752116 L 188.525565167889,275.0566037297249 L 190.66038995049894,271.50210773944855 L 191.13285119831562,270.89242177736014 L 193.12768745608628,269.51312951091677 L 194.3263391200453,267.21081873960793 L 195.0612787436694,266.42303859628737 L 197.1173599716276,266.88461762852967 L 198.63098577223718,267.00155584607273 L 199.35717618837953,267.2477480676025 L 199.98712446168065,268.01099997758865 L 200.4420871231705,269.03290483541787 L 201.03703822381794,269.7778829075396 L 202.0957013629377,269.71015427913517 L 202.67315396293998,269.03290483541787 L 203.50433581322432,265.6476555382833 L 204.15178258903325,264.97695793770254 L 205.5691663324833,265.56766072753817 L 206.20786390081048,265.50612675212324 L 207.11778922379017,264.21404172759503 L 207.75648670643568,261.24931388441473 L 208.88514410704374,259.58913056831807 L 209.74257375486195,259.0112346019596 L 210.80123681016266,258.66083179507405 L 212.86606732942164,258.3657695474103 L 213.90723188221455,257.8617341462523 L 214.572177330032,256.7431527087465 L 215.29836774617434,253.6587734343484 L 214.46718597970903,253.18579325918108 L 214.0909667890519,251.6196613581851 L 212.6910818014294,249.81444372981787 L 212.02613626979291,247.91149327345192 L 213.7672433592379,246.0336106074974 L 215.51709974184632,245.81271681468934 L 218.59684693440795,247.18728202674538 L 220.39044978283346,246.8865726608783 L 221.37036936730146,245.5918299574405 L 222.3765367474407,241.18170591816306 L 224.4588658530265,235.34062443580478 L 225.02756915800273,233.09253890719265 L 225.04506774619222,231.26765420287848 L 224.5376094095409,230.422736056149 L 223.26021427474916,229.4554925011471 L 223.2164678927511,228.53122757654637 L 223.53144202940166,228.90459126140922 L 224.47636443935335,228.86786613892764 L 226.01623803563416,228.47002224531025 L 227.77484362758696,227.3255836283788 L 228.68476895056665,226.41995836328715 L 228.93849820271134,225.23915185034275 L 228.7110168300569,223.2573168920353 L 227.55611163377762,220.35287152137607 L 227.31113175861537,219.063075825572 L 227.38987522944808,217.26631929446012 L 228.19480920024216,213.57037312816828 L 229.7784292642027,208.49089081212878 L 231.1608157493174,206.4650170020759 L 234.83551412634552,202.49430710822344 L 236.06041358597577,200.34216513298452 L 237.94150920026004,195.72918940987438 L 239.18390724621713,193.65221451688558 L 240.8112736903131,192.01421621255577 L 242.59612716175616,190.79662304278463 L 243.50605248473585,190.70531217660755 L 245.7108715288341,190.869672620669 L 246.55955188162625,190.5226937942207 L 247.65321210958064,188.7211166387424 L 248.03818050958216,186.98692936263978 L 248.72937383688986,185.59988967049867 L 252.4390693027526,184.2496158387512 L 253.92644722387195,183.09418344311416 L 255.23883944749832,181.54377194680274 L 258.56356660090387,176.59691611863673 L 262.71072622574866,172.3183400174603 L 265.466750074178,168.48229742608964 L 268.95771354436874,165.22755913808942 L 269.59641102701426,163.52041230350733 L 269.9026359561831,161.54694770649076 L 270.620077079162,159.05590122099966 L 271.83622724562883,157.11398400459439 L 281.25045452080667,149.5907255075872 L 294.636855809018,135.83056137803942 L 298.7490183468908,131.01542630698532 L 303.32489266991615,126.90026679821312 L 308.25073838606477,124.1109283939004 L 316.44006628729403,122.83573920559138 L 319.0648508183658,121.0635191258043 L 320.4122402165085,118.05056157056242 L 318.81987085938454,108.258300030604 L 320.70971585065126,102.45196987967938 L 323.9906965363771,97.44329352490604 L 327.4379136264324,94.21222029067576 L 329.1527727507055,93.11351090669632 L 330.04519957117736,92.29409273713827 L 330.6051536668092,91.0606419108808 L 331.3138454966247,88.68437863141298 L 332.2937649972737,86.44985780399293 L 333.58865871839225,84.90859907120466 L 345.8901489879936,76.75509599316865 L 349.3636138718575,72.6354607148096 L 351.97964919544756,66.47842491976917 L 352.2683755364269,63.273371807299554 L 349.87982150167227,61.50403557345271 L 345.3210661765188,60.54198659956455 L 342.69628164358437,62.071425937116146 L 341.41489073447883,61.53020210657269 L 339.81659675017,62.48560771532357 L 338.3698650803417,64.02017266210169 L 337.5018261112273,65.23017028626055 L 336.3444407917559,67.37759903352708 L 336.02753763459623,68.79544563870877 L 336.7302359268069,69.83663599286228 L 338.65921143069863,70.83085598610342 L 337.4742693044245,71.29267368186265 L 336.0964296106249,70.7695967471227 L 334.5463600605726,69.87904064916074 L 332.8722848352045,69.2571311192587 L 335.12505267746747,70.83085598610342 L 333.4716450776905,70.98165027052164 L 332.76205768994987,71.43405243847519 L 332.2384786028415,72.40964266937226 L 332.8722848352045,73.20623837132007 L 332.2384786028415,74.7902678726241 L 330.4128410629928,73.20623837132007 L 327.5607128906995,75.79932793136686 L 322.93806079402566,81.98885175120085 L 310.7579581774771,88.32077145017684 L 307.85071647539735,90.70201638713479 L 306.4384308774024,91.45340846572071 L 305.81151382625103,91.96383357606828 L 305.28793473914266,93.49532928410918 L 304.65412850677967,94.10991149954498 L 302.3875822182745,94.9562311982736 L 301.80888960137963,95.64187156036496 L 300.9339613672346,97.05118924751878 L 300.35526875033975,99.49687954131514 L 298.5502987522632,100.22081450466067 L 290.57260710932314,110.61958680301905 L 288.2096120361239,112.21200653724372 L 286.0601821579039,114.38794623780996 L 275.20969480089843,115.96698912139982 L 270.2494720034301,118.15831857919693 L 264.4901022147387,119.4108124691993 L 256.7879784759134,125.02129897288978 L 256.38151579909027,126.379499187693 L 255.92682868801057,126.61697363946587 L 255.4101387821138,126.48873652331531 L 254.2114182934165,125.81909119244665 L 251.0079410597682,126.61697363946587 L 244.64921102672815,126.61697363946587 L 244.64921102672815,127.41494657937437 L 246.33706461451948,127.43394698668271 L 248.2729293834418,127.90897511597723 L 250.10545610450208,128.73560030572116 L 251.58663376234472,129.80940773990005 L 250.18123726174235,130.71229300182313 L 248.23848339542747,131.16377905663103 L 240.01966975070536,131.33012336026877 L 239.02073601074517,131.02120140288025 L 237.44310956820846,130.01848670002073 L 236.8506385050714,129.80940773990005 L 235.30745805054903,129.56232253275812 L 231.79396692477167,128.4552969969809 L 221.4739478342235,128.21300981007516 L 221.4739478342235,127.41494657937437 L 224.27096239104867,126.68346799071878 L 225.46968287974596,125.83333826623857 L 226.10348911210895,124.15237814281136 L 220.89525521732867,124.15237814281136 L 221.08815270103514,122.89429472852498 L 219.84809704311192,123.0272137047723 L 217.1130852829665,124.15237814281136 L 214.86031743884087,124.28057286236435 L 213.9096080493182,124.7648850325495 L 212.69710920006037,125.81909119244665 L 212.173530112952,125.81909119244665 L 212.173530112952,125.02129897288978 L 211.153928745538,125.74785602651536 L 209.26628841087222,125.71936225425452 L 208.66003898531199,126.61697363946587 L 208.49469822645187,125.8095931597054 L 208.0813462845981,125.81909119244665 L 208.2329086828977,127.11094621289521 L 208.6807065270841,127.32944514695555 L 209.3420695681125,127.31044502090663 L 210.12743819877505,127.81396695040166 L 210.4098953679204,128.54081209748983 L 210.01032178848982,129.70962228812277 L 210.43745209090412,130.59823800902814 L 209.0527233015746,130.43666313029826 L 208.55670102126896,130.2513318732381 L 208.0813462845981,129.80940773990005 L 207.80577837862074,130.94991360139102 L 207.11685853265226,131.5297416197136 L 205.18788302876055,132.1951768985018 L 206.59327944554389,132.36154546029866 L 206.78617701120675,133.1459078202024 L 206.04214354977012,133.87330368440598 L 204.5678551569581,133.86854911409318 L 204.5678551569581,134.59126474428922 L 205.7665756456554,135.4662303244695 L 204.5678551569581,136.25569493044168 L 205.18788302876055,136.98341239988804 L 204.5678551569581,137.78256139159203 L 205.18788302876055,138.6531663769856 L 204.65052549540997,140.3946998072788 L 205.54612127132714,141.0371776232496 L 208.66003898531199,140.98006613459438 L 208.66003898531199,141.8510672012344 L 204.85720150731504,142.66505104396492 L 203.45180500671268,142.65076984930784 L 204.46451719291508,143.30773644894361 L 205.29811017215252,143.23632412217557 L 206.63461461290717,142.65076984930784 L 207.53021038882434,142.98400608915836 L 207.3993157017976,143.75050952471793 L 206.65528224036098,144.5551899569109 L 205.7665756456554,145.04089976195246 L 206.93773941136897,145.49330672062933 L 207.48198604024947,146.3648674963042 L 207.3166452795267,147.39373411424458 L 206.34526834636927,148.3179374244064 L 206.407271143049,146.11719992943108 L 205.68390530720353,145.98384405113757 L 202.4459820855409,148.794378307648 L 201.86040020361543,148.7753200987354 L 200.57212011143565,149.10884705092758 L 198.30557390861213,152.24000866431743 L 194.87475311942399,154.17087324056774 L 193.91715454868972,155.1150448229164 L 192.12596299685538,155.7588710989803 L 186.6490502934903,156.16427354700863 L 185.49166497401893,157.47603029105812 L 184.60295837931335,160.12414161581546 L 182.59820171818137,161.0500237494707 L 180.4418825749308,161.68007540144026 L 179.1260457597673,163.44643118977547 L 181.65438150800765,162.31495734956115 L 182.9908859487623,161.97602824121714 L 184.32739047333598,161.842370538041 L 184.32739047333598,162.71596516110003 L 183.831368194893,162.94512277189642 L 183.21822950430214,162.71596516110003 L 180.93790485337377,164.6926961094141 L 175.45410297065973,167.43908178713173 L 173.00843764469028,169.56528539955616 L 171.2930272500962,172.24665612448007 L 170.2183122690767,173.49448916036636 L 168.99203497357666,174.0156808309257 L 166.95283223874867,174.44126971811056 L 166.31213682703674,174.74254488106817 L 165.38209506310523,175.4886156981811 L 163.99736618809402,178.0287225758657 L 159.36782491020858,183.6431941697374 L 157.17017068341374,186.97667808830738 L 155.60632260143757,188.58651614561677 L 153.9046906530857,189.27656045462936 L 150.356753539294,193.64842702355236 L 150.41875625029206,194.03205484338105 L 146.60214041173458,198.19577497430146 L 144.87984083592892,199.39066560193896 L 144.53538087010384,200.2305709188804 L 144.8660623896867,201.4210100127384 L 143.52955794893205,202.39079233631492 L 139.09291423857212,206.99189764633775 L 140.43630794622004,209.0869367159903 L 139.7404988333583,211.69700779020786 L 137.9906425345689,213.98102295957506 L 136.19945089891553,215.13052708562464 L 137.20527390390635,216.36681684292853 L 138.76223271898925,217.2713238997385 L 140.19518594443798,217.02112925983965 L 140.82899217680097,214.76016399729997 L 141.8072583731264,213.42798202391714 L 143.61222837120295,214.29844025429338 L 144.44582135230303,216.1262763151899 L 142.55129175074399,217.61776196863502 L 143.19887642934918,217.79098754189909 L 143.32977120019495,218.0219616536051 L 143.70867707021534,217.61776196863502 L 144.34248338639736,217.61776196863502 L 143.62600673362613,219.54273298662156 L 147.81463934481144,216.74207671824843 L 149.57827408984303,214.43310640286654 L 150.52209429815412,213.64438402373344 L 151.85170955769718,213.51454206276685 L 150.708102600649,217.61776196863502 L 151.45213606208563,217.85835426207632 L 151.82415275089443,218.19038516003639 L 152.48551579006016,219.2443275982514 L 151.3487980980426,219.60530345421284 L 150.40497788786888,220.50541861727834 L 149.61960925720632,221.76673871651292 L 148.9720246642828,223.20164863020182 L 150.60476463660598,222.6045359754935 L 152.9815380703658,220.44284003879875 L 155.37897904589772,219.54273298662156 L 161.44147363305092,216.06854785140604 L 162.79175651818514,215.5586336608976 L 169.48805725201964,214.524488565512 L 171.32058397307992,214.69763703551143 L 171.60993032343686,216.0108198672533 L 170.43876664340496,216.8046220811084 L 164.8860727827996,217.61776196863502 L 164.45894247852266,217.9834654154256 L 161.90993910469115,221.30454901512712 L 161.2279084380716,221.78599735815078 L 152.92642445489764,225.7833073688671 L 139.98162083514035,239.09216167777777 L 136.0065534170717,244.68854849692434 L 133.63666916266084,247.32655198406428 L 131.25989572890103,248.44293334148824 L 130.90854658186436,249.02294291649014 L 128.1528672799468,251.24676363635808 L 127.47772587835789,251.32412671949714 L 126.96792515181005,252.36861423775554 L 118.50798959098756,265.65124178957194 L 117.01992275193334,269.6352034350857 L 117.98441058769822,271.12857058271766 L 117.87418335862458,272.893876388669 L 117.32993672974408,274.97014446463436 L 117.01992275193334,277.40133773256093 L 116.81324682198465,284.0004585804418 L 117.01992275193334,286.08008019346744 L 118.83867111057043,293.62641965877265 L 119.65159654803574,295.45590449590236 L 120.22339998558164,297.7142387414351 L 119.60337219946086,300.4213251564652 L 114.70515211299062,311.80667251814157 L 114.39513821899891,313.8654618887231 L 113.52709925174713,315.2903893701732 L 112.24570834077895,316.30070605967194 L 107.04436362721026,319.1079237097874 L 97.89550821855664,326.22144269105047 L 93.56220247410238,331.96260100696236 L 92.38414952717721,332.61820192914456 L 90.96497466415167,334.1155564552173 L 90.3380576968193,335.7600887361914 L 91.48855375126004,336.8909345176071 L 90.52406599931419,337.88975942879915 L 87.43770517595112,340.1817335411906 L 89.22200754657388,338.15907536726445 L 88.92577201500535,337.2189638065174 L 88.19551699981093,336.7097907550633 L 87.32747794687748,336.714686576277 L 86.59722293168306,337.30219765380025 L 85.41917007043958,338.6242826413363 L 76.26342548057437,343.3026030212641 L 72.9841670896858,344.0279074218124 L 71.48232180438936,344.8709257673472 L 70.11826055683196,345.15522288996726 L 68.57508010230958,343.9494923707098 L 66.81833453848958,341.1222534282133 L 65.22692973539233,337.46377202961594 L 64.08332286216319,333.332585118711 L 63.1739486400038,325.0043890681118 L 61.89255773089826,320.5485955700278 L 59.91535787656903,317.789608518593 L 57.38702204450965,318.76611393503845 L 58.737304931506515,317.096374347806 L 58.5512965451926,315.30015014577657 L 57.476581647992134,313.60198033228517 L 56.11940957978368,312.21642951574177 L 55.595830492675304,313.1091994699091 L 55.26514897309244,312.0993536207825 L 55.24448134750128,311.26524533331394 L 55.595830492675304,309.01707327272743 L 54.383331559598446,309.7582545923069 L 54.383331559598446,309.01707327272743 L 55.699168456718326,307.4764528470114 L 56.27097189426422,304.91276999376714 L 56.06429596617818,302.13571631815284 L 55.01713779196143,299.9489688016474 L 54.04576085880399,299.21371582336724 L 53.36373019218445,299.30135774984956 L 52.716145599260926,299.70062956400216 L 51.792993016541004,299.9489688016474 L 50.7802808303386,299.5642902441323 L 49.79512545093894,298.6343336151913 L 49.00975690409541,297.52926101442426 L 48.61018340848386,296.60444725770503 L 48.03149070776999,296.60444725770503 L 48.26572344265878,298.94105935748667 L 48.94086492806673,300.00253333617 L 49.299103170633316,301.0154690621421 L 48.61018340848386,303.2220437610522 L 46.818991772830486,304.8542941454798 L 46.56409149430692,305.7607262553647 L 46.69498626701534,306.613661727868 L 46.59853748232126,307.1985929803923 L 45.61338210478425,307.3107105875388 L 45.93717444315553,305.8971887957305 L 45.57893611676991,303.7725803470239 L 45.95095280371606,302.8128239484504 L 46.8327702190727,302.228266665712 L 47.631917210295796,302.13571631815284 L 48.258834263309836,301.84833111893386 L 48.61018340848386,300.6940405657515 L 47.68703082576394,299.7882777089253 L 46.50208869948983,297.43677402008325 L 45.96473124995828,296.828338034451 L 45.61338210478425,297.422170962207 L 45.13802745193243,297.422170962207 L 45.482487332075834,296.5898458501324 L 45.60649292357266,295.5921622402966 L 45.510044138878584,294.4875791594386 L 45.13802745193243,293.3491200665012 L 44.45599678531289,293.55830988753587 L 44.10464763827622,293.4902009097859 L 44.11842608451843,293.14480126462877 L 44.55933474935591,292.5270168678835 L 44.55933474935591,291.7147394279018 L 44.02197729982436,291.5639679748565 L 43.93930687755346,290.815023210831 L 43.098824717104435,291.3110683346167 L 41.224962742999196,290.77611919958144 L 39.88845830410719,290.815023210831 L 41.00450845435262,289.7355192070827 L 41.61075787805021,288.44714399334043 L 41.032065177336335,288.44714399334043 L 41.032065177336335,287.70339959394187 L 41.61075787805021,287.70339959394187 L 41.61075787805021,286.8139286413789 L 41.00450845435262,286.4008255098015 L 40.618713319301605,285.8808368910104 L 39.88845830410719,284.36969129089266 L 40.19847219623625,283.21347605995834 L 39.88845830410719,281.9214654332027 L 40.78405407816172,281.9700328661129 L 41.30763316527009,281.736912291497 L 42.20322894118726,280.29950989596546 L 39.144424840807915,280.15384399332106 L 37.65635800175369,280.38691094052047 L 36.41630234569311,281.1881387606263 L 36.23718314059079,280.56171636190265 L 35.83760964311659,280.29950989596546 L 35.32091982103884,282.2080182535574 L 34.556218817830086,282.43629771191627 L 33.701958211138844,282.2080182535574 L 32.90281121991575,282.7374439518899 L 32.31034015491605,281.9214654332027 L 33.2197142932564,281.53293831273913 L 34.10153170675039,280.80450896918774 L 34.528662011027336,279.81396887637675 L 34.115310069173574,278.59541167505085 L 34.87312189117074,276.64422746095806 L 35.25891702622175,276.14923876617104 L 34.00508292391896,275.45049182605 L 33.68817976489663,276.5908446377143 L 33.71573657169938,278.5371592734009 L 33.48150383681059,280.29950989596546 L 32.86147596500814,280.78022938221693 L 30.353807844221592,281.80490504112095 L 29.43065526150167,281.9214654332027 L 30.00934787839651,283.54866128228605 L 28.851962558925152,283.54866128228605 L 29.43065526150167,284.36969129089266 L 28.851962558925152,285.26370517443866 L 27.92880997620523,285.03533186297864 L 26.59919471666217,285.49694530759007 L 25.214465841650963,286.44942458253354 L 24.18108611367643,287.70339959394187 L 24.814892346039414,288.44714399334043 L 25.682931313291192,287.1687311762944 L 26.929876236245036,286.8187888134271 L 28.128596724942327,287.4992485875264 L 28.851962558925152,289.2638971488923 L 26.564748728647828,288.71452278550714 L 25.682931313291192,288.9381565498188 L 24.814892346039414,290.0807474963367 L 24.814892346039414,290.815023210831 L 25.958499303087592,292.5270168678835 L 24.994011467322707,293.65560966543853 L 23.078814409673214,298.31301662605256 L 19.579101644456387,302.0382962618023 L 15.225128272548318,308.19796619936824 L 13.489050336182117,309.97769868560135 L 12.049207845702767,311.0896565038711 L 10.306240644305944,311.39693990908563 L 11.463625963777304,313.8557030390948 L 9.403755687177181,316.76930931583047 L 11.601409915834665,318.2290187794715 L 19.027965748682618,318.76611393503845 L 17.37455815076828,319.55718547757715 L 15.418025840073824,319.83066359348595 L 11.463625963777304,319.6695054685697 L 9.355531338602304,319.03956043720245 L 8.391043500974774,319.09815750364214 L 7.998359270393848,320.07484967727214 L 8.391043500974774,322.3803961016238 L 8.287705536931753,323.181657734327 L 7.41966656781733,323.6849371623248 L 7.812350884079933,324.5010125236586 L 7.867464499548078,325.10702375601977 L 7.543672159314156,325.6446593850851 L 6.840973950922489,326.22144269105047 L 6.840973950922489,326.9693783102557 L 7.53678297996521,327.4093786217272 L 7.874353678897023,328.14766511227936 L 7.853686053305864,329.1256507858634 L 7.41966656781733,330.31898281816393 L 7.9776916448026896,331.50273950304836 L 7.936356475576758,332.7356296945363 L 7.343885412439704,333.7925698524341 L 6.262281250208616,334.4287702012807 L 6.544738419353962,335.162921176292 L 7.0063147116452456,335.77477392647415 L 7.667677750810981,336.14191180467606 L 8.570162707939744,336.14191180467606 L 8.570162707939744,336.8909345176071 L 7.040760699659586,337.8358973963186 L 6.5585167817771435,338.53613565769047 L 6.262281250208616,339.43234956730157 L 7.130320217460394,339.59397450927645 L 7.874353678897023,339.9907062891871 L 9.148855324834585,341.07816365454346 L 8.163700031116605,341.58766280207783 L 5.104895930737257,341.8277284530923 L 4.161075720563531,342.783175624907 L 3.3688179943710566,344.2092456081882 L 3.3068151976913214,345.4885518522933 L 4.526203313842416,346.00818539969623 L 4.526203313842416,346.7631952948868 L 3.5272694882005453,347.8272149050608 L 1.0058229211717844,355.06892190221697 L 1.6327399723231792,355.8887600367889 L 1.1987204886972904,356.50738592725247 L 1.3847288750112057,356.7037868415937 L 1.6327399723231792,357.60730412695557 L 0.2617895435541868,360.8196903690696 L 0.0,362.59845247492194 L 0.47535465285182,364.20563494134694 L 1.0058229211717844,364.20563494134694 L 1.832526721060276,363.522413155064 L 5.68358863145113,361.65496265981346 L 7.454112557694316,361.4191106548533 L 10.381301794201136,358.26915407553315 L 11.973944066092372,357.8690411988646 L 21.825497629120946,358.32033207733184 L 25.82391943782568,355.78222389146686 L 26.95257675461471,354.63508513662964 L 28.282467564567924,354.2111913692206 L 32.80584629625082,353.5504685100168 L 33.70702232606709,354.22365847043693 L 34.45071132853627,355.38943167962134 L 35.68435999751091,356.6052903998643 L 39.647784717381,358.2953828861937 L 40.732695735991,359.7862556586042 L 38.939092887565494,361.9389287577942 L 38.939092887565494,363.2371015595272 L 39.23656852170825,364.0922835506499 L 39.82277041487396,364.4855784578249 L 43.383728148415685,363.73022249899805 L 44.59987831488252,363.08729978837073 L 45.71978642232716,361.94516944885254 L 47.84586191177368,360.38519200868905 L 50.0681794565171,359.6178142875433 L 52.33424346894026,359.49304569792 L 54.52156392671168,359.8985522231087 L 58.54623361490667,361.7891555791721 L 60.71605557017028,362.42571466974914 L 62.57090330310166,361.9638914363459 L 65.93937683850527,360.48501985985786 L 69.86780430004,359.73634673655033 L 73.76123475655913,360.0919562326744 L 77.01596764661372,361.94516944885254 L 78.58208912424743,363.4181165471673 L 81.89806689694524,365.8591678151861 L 83.01797500625253,367.8950880765915 L 83.46418845839798,369.60673216264695 L 83.87540465407073,372.85004369169474 L 84.40911087021232,374.39412916917354 L 85.19654625467956,375.56336665153503 L 87.33137095160782,377.9649996543303 L 88.22379768826067,379.2662391141057 L 89.28246091119945,381.71925357636064 L 89.93865698203444,382.4453156264499 L 91.38228852115571,383.06503366306424 L 92.30971234478056,382.5266896765679 L 92.49344733543694,380.6678529707715 L 92.4759487491101,376.81411112844944 L 93.2546347565949,375.28823381010443 L 94.34829506836832,374.13779914565384 L 97.25305664911866,371.81251545995474 L 98.41671113856137,371.2313189515844 L 98.90667088888586,370.56894051097333 L 99.06415800005198,369.6317228944972 L 98.79293024539948,366.8708065515384 L 100.47279236651957,365.4283303450793 L 108.33839675225317,361.9638914363459 L 109.68578614853323,358.56359118409455 L 113.21174679324031,357.8151294467971 L 116.8339494112879,359.1187534146011 L 118.46131585724652,361.9389287577942 L 118.7675407845527,364.5105503657833 L 120.3074143808335,364.57298041600734 L 122.23225637711585,363.31200380343944 L 123.69338650256395,361.9389287577942 L 125.69697196781635,361.6643470367417 L 126.64189446531236,361.2212954396382 L 127.48182552494109,360.4538235217333 L 131.61148656345904,360.341517791152 L 138.64590918272734,354.32339598145336 L 142.4518467914313,353.78732411097735 L 150.69367036782205,356.8484880877659 L 153.44094483740628,356.79236485715955 L 154.3858672492206,357.0729861231521 L 155.1208070423454,357.7589981229976 L 156.63443267345428,359.8860748419538 L 157.44811593927443,360.59732795972377 L 153.18721575289965,363.48053656704724 L 151.97106550261378,365.5407201172784 L 151.28862155415118,368.1511826124042 L 150.78116313181818,371.3000599434599 L 149.67875361070037,374.06277758814394 L 149.59126076102257,375.0568807311356 L 150.649923985824,375.60088567994535 L 151.2273765001446,376.1074121957645 L 152.03231047093868,377.9649996543303 L 154.5171065647155,378.7594767771661 L 156.74817340262234,379.7354970825836 L 158.49802978523076,379.7229832159355 L 158.0343178305775,380.7930112015456 L 156.6519313454628,383.09633415658027 L 154.8583284970373,385.09359792713076 L 153.51968839205801,384.64901492279023 L 153.13471999391913,384.3234232952818 L 153.0209793485701,383.8350653508678 L 152.6710081230849,383.59089950844646 L 151.56859851814806,384.0041084205732 L 150.8161603063345,384.55509261228144 L 149.53001587837934,386.7782683484256 L 148.71633269824088,387.5863072508946 L 148.0951336324215,387.89326197467744 L 147.92889722809196,388.4007074534893 L 148.4451048579067,389.81047764327377 L 149.16254598088562,390.6502136681229 L 152.57476598210633,392.56194097548723 L 163.17889554426074,396.09849218372256 L 164.19381221570075,396.9327354859561 L 163.73010034672916,399.3545050667599 L 164.13256733305752,400.49040031339973 L 165.05999115668237,400.93602462112904 L 167.9472542349249,400.33349744509906 L 168.7871852107346,400.63475438486785 L 170.3620559796691,401.9403560748324 L 171.17573924548924,402.35468614660203 L 176.5740461256355,401.43189468979836 L 179.85502689518034,401.55115983169526 L 181.50864113681018,402.02824203670025 L 183.24099893122911,402.94483657740057 L 184.0896792858839,404.16296928655356 L 184.03718361072242,405.896361396648 L 183.03976543992758,408.34019432310015 L 182.6810449194163,409.8923929389566 L 183.01351764425635,411.3506533084437 L 184.04593290388584,414.3121422668919 L 184.17717204988003,416.3375172233209 L 183.93219226039946,422.59359959326684 L 184.5883883293718,425.07498157583177 L 185.57705720700324,426.5680295852944 L 185.94452701881528,427.8408461911604 L 184.75462473370135,429.66227446775883 L 183.72220947407186,430.4250257369131 L 181.35115402564406,431.4148399261758 L 180.31873876601458,432.0327594149858 L 177.97393119707704,434.52392847370356 L 176.79277820512652,437.27474519610405 L 176.80152749828994,440.3486618511379 L 178.01767766475677,443.8092873124406 L 179.5837990567088,446.8293173601851 L 181.01868130080402,448.7823182651773 L 182.8385319467634,449.7179374732077 L 190.3279172256589,449.16160772554576 L 191.9465343784541,450.21108636353165 L 193.66139367222786,453.1138121141121 L 194.84254674986005,454.0247297221795 L 196.12869109213352,454.63840363919735 L 197.47608049027622,454.9863880192861 L 201.66698658280075,455.1129323001951 L 207.17028481326997,458.150709817186 L 211.37868949398398,459.04964925255626 L 213.13729508407414,459.94237736146897 L 214.80840791203082,461.1202004989609 L 215.94581452198327,462.36473827343434 L 216.55826429463923,464.04665623791516 L 216.41827576979995,469.5926889758557 L 219.49802304804325,468.9459435408935 L 220.48669192567468,469.12664559297264 L 221.29162581264973,469.80828453879803 L 222.6477645020932,471.4984142873436 L 223.6889290548861,471.7013855203986 L 224.511361528188,471.29862070363015 L 226.54119496047497,469.35490772966295 L 227.74859583191574,468.64161449112 L 229.17472878471017,468.31194011867046 L 229.8921699076891,468.3436389695853 L 232.91067221574485,469.0886026183143 L 234.8442635051906,469.05690036620945 L 235.23798111267388,469.43099667318165 L 235.10674188099802,470.7975771194324 L 234.71302418969572,471.3810745542869 L 233.26939273439348,472.33888153824955 L 232.75318510457873,472.9637500559911 L 232.5257037319243,473.98840666748583 L 232.62194587476552,476.95857648178935 L 231.61577841080725,480.3428757917136 L 231.2920550648123,482.0229620821774 L 231.39704641513526,483.81784936320037 L 233.85559462755919,486.59531479980797 L 236.51537633128464,487.644314638339 L 237.81027005426586,488.44865930173546 L 239.4463857077062,488.9987215977162 L 240.64503728598356,490.4170098947361 L 241.28373493812978,489.4947701971978 L 241.80869186110795,490.4170098947361 L 242.78861136175692,489.62832817249 L 243.86477308906615,489.48205064609647 L 245.90335572697222,489.4947701971978 L 246.6557939387858,489.0114403516054 L 248.08192689158022,487.49172252975404 L 248.79061872139573,486.97675013914704 L 249.5255584307015,486.89410401973873 L 251.36290757730603,487.12933049257845 L 252.25533439777792,486.97675013914704 L 253.08651616424322,486.4999592732638 L 255.13384809717536,484.8473472343758 z" /><path fill-rule="evenodd" fill="#D2EBD9" stroke="#A6A6A6" stroke-width="0.25" opacity="1" d="M 417.8442432060838,16.402905385009944 L 418.2379608973861,14.541228151880205 L 417.76549973525107,10.837125754915178 L 417.82674461975694,8.8434006460011 L 418.43044509738684,7.066722244024277 L 419.3316211272031,5.551405776292086 L 420.4165320619941,4.249852827750146 L 422.54260754957795,2.987067697569728 L 422.9625730384141,1.7007966078817844 L 422.8452150244266,0.0 L 420.9851314108819,2.8700488545000553 L 419.84152453765273,3.6262524593621492 L 417.0169531740248,4.466571921482682 L 415.7906758785248,5.222943560220301 L 415.68733791448176,6.848011148162186 L 401.04779152572155,16.38635133486241 L 399.49083262495697,18.696901536546648 L 399.7388438079506,22.781942922621965 L 399.2359323464334,23.404496227391064 L 394.8750697951764,24.190956734120846 L 391.3891353905201,26.22304603457451 L 390.0181849617511,26.546173261478543 L 388.5783424731344,26.644519209861755 L 387.2556163929403,26.99576586857438 L 386.23601511120796,27.72173018567264 L 385.67799003608525,28.90684959758073 L 387.3658436238766,28.90684959758073 L 385.5539844445884,30.645067255944014 L 384.8719537779689,31.521364111453295 L 384.47926954738796,32.838354198262095 L 383.21854618005455,31.601032805629075 L 381.09667310863733,32.67899024672806 L 377.53495763242245,35.9888660851866 L 372.49206441268325,38.58251673541963 L 370.7215404044837,40.52485347725451 L 371.7480310369283,43.07321200054139 L 369.39881432428956,42.96994594205171 L 366.84981095045805,44.96042822301388 L 364.4523699749261,45.505090835504234 L 363.2398710399866,45.11537118256092 L 362.6749567836523,44.72567269299179 L 362.2064913120121,43.777338850311935 L 361.6691338624805,43.96511770877987 L 358.39676465280354,46.66498512867838 L 357.1980441659689,47.15811470709741 L 358.77567052282393,45.63656736165285 L 359.54726079292595,44.523789145983756 L 360.6633108574897,41.67455271817744 L 360.6633108574897,41.167723714374006 L 360.09150742180645,40.778240617364645 L 359.54726079292595,40.90493761561811 L 359.6781555637717,42.48179915640503 L 359.5610391534865,43.07321200054139 L 357.85940720513463,44.21862707193941 L 353.6087717972696,46.002836126834154 L 349.7921559587121,46.777697511948645 L 345.2728418260813,48.89138327538967 L 340.62952210381627,49.74173136148602 L 333.4509774520993,52.59889184497297 L 333.64387501962483,55.518325357697904 L 331.4875559601933,56.97143611405045 L 325.8728593047708,58.19434809405357 L 319.13522331789136,63.00336865987629 L 316.26931686885655,63.93072574399412 L 314.2714493032545,65.23017028626055 L 313.25873720273376,65.42793274018914 L 304.2407765649259,65.44205879885703 L 301.45754045434296,66.09188943915069 L 300.07281157933176,66.67113641556352 L 298.4951851386577,67.65549352671951 L 297.6822597850114,68.84255502652377 L 298.5502987522632,70.03923832438886 L 298.5502987522632,70.83085598610342 L 297.7580409422517,71.18899773806334 L 296.3044200912118,73.20623837132007 L 298.1231684498489,72.87627659086138 L 300.8788477536291,70.59524628333747 L 302.3669145926833,70.03923832438886 L 309.60057285800576,70.83085598610342 L 316.503549605608,69.87904064916074 L 329.22100966982543,64.66516525764018 L 332.2109217941761,62.716242040507495 L 334.6083627715707,60.56551388837397 L 334.83570632711053,58.79647411592305 L 335.12505267746747,58.19434809405357 L 335.5177369918674,58.07204742450267 L 336.50978155247867,58.26961099077016 L 336.92313340865076,58.19434809405357 L 338.4318678751588,57.046686206012964 L 339.14145526476204,56.726878978312016 L 340.0921646542847,56.61871217843145 L 340.40906781330705,56.85856258217245 L 340.3677326440811,57.94504511915147 L 340.7053033448756,58.19434809405357 L 341.20821480453014,58.057935983873904 L 342.0073617976159,57.46527910511941 L 343.48165027424693,57.15956283453852 L 345.582855720073,55.758138835430145 L 348.8965600989759,54.671989721246064 L 350.48107572086155,53.882166993804276 L 351.4180067498237,52.59889184497297 L 353.1954198554158,52.79630371928215 L 356.77780304290354,49.22963119670749 L 358.9341221023351,48.66119599714875 L 356.3506727386266,50.66736361477524 L 355.58597173541784,52.03488785773516 L 356.57801629416645,53.459083750844 L 356.0475480277091,54.17834028787911 L 353.6225501578301,53.294558102265 L 351.47312027961016,54.62967556621879 L 352.5396032910794,56.27331748884171 L 353.6857591960579,57.488795653916895 L 355.55810551531613,57.93083925452083 L 357.42170254327357,57.55450311303139 L 360.96516169048846,56.1538714421913 L 362.7675138320774,55.8373488932848 L 364.1149032302201,56.78994509857148 L 364.8848399426788,56.81682270672172 L 365.8647595271468,55.48799591790885 L 366.10973940230906,54.36540516745299 L 366.01349742896855,51.58059104997665 L 366.1884829569608,50.261691014282405 L 368.8395153693855,46.088770458474755 L 369.766939278692,45.49241221137345 L 372.7329458259046,44.654612984508276 L 374.79777643084526,43.06872859597206 L 378.4374776352197,38.93575686682016 L 380.42356459982693,37.2617941563949 L 399.79447466135025,24.321175161749125 L 402.58549559675157,22.805181762203574 L 407.19636717811227,21.233049198053777 L 409.488678984344,21.381629223003983 L 410.41610289365053,20.665501977317035 L 412.1834578644484,18.06011567823589 L 413.43460511788726,17.24334226641804 L 416.4618567209691,16.91071944218129 L 417.8442432060838,16.402905385009944 z" /><path fill-rule="evenodd" fill="#D2EBD9" stroke="#A6A6A6" stroke-width="0.25" opacity="1" d="M 284.15876346081495,42.28467246424407 L 289.48411376588047,41.49621987901628 L 290.57260710932314,40.778240617364645 L 290.7792830374092,39.000027634203434 L 289.7872384786606,37.37234198115766 L 288.161387687549,36.26085035689175 L 286.4253096655011,35.9888660851866 L 286.1910769287497,36.79547031968832 L 285.5021570827812,36.93616641219705 L 284.15876346081495,37.55526221729815 L 283.27005686610937,36.47187980636954 L 282.1402283553034,36.16706151608378 L 280.9966213963926,36.75795180629939 L 280.06657963246107,38.34327981527895 L 281.1206269878894,38.95311508141458 L 281.27218930236995,39.98526251222938 L 280.8312806375325,40.59523784741759 L 280.06657963246107,39.919575897976756 L 279.48788701556623,39.919575897976756 L 280.1010256204754,41.28504209686071 L 281.61664926819503,41.9326739506796 L 284.15876346081495,42.28467246424407 z" /><path fill-rule="evenodd" fill="#D2EBD9" stroke="#A6A6A6" stroke-width="0.25" opacity="1" d="M 351.94847501814365,37.55526221729815 L 353.67766377329826,36.04513781610876 L 358.0040803384036,34.150898767635226 L 359.5610391534865,31.97595605906099 L 328.8352146204561,40.778240617364645 L 327.80872407369316,39.51608604006469 L 326.11398130469024,40.285551506094635 L 324.48124124854803,41.86227628402412 L 323.5718671120703,43.07321200054139 L 325.0806014928967,43.368936851620674 L 327.80872407369316,44.43458658084273 L 329.3794612493366,44.32660595141351 L 328.50453310087323,43.8806165875867 L 327.62271568737924,43.07321200054139 L 329.4621316716075,43.11076369602233 L 330.3232814595103,42.83382473979145 L 331.08109328337014,42.28467246424407 L 331.7148995157331,43.07321200054139 L 333.1478527393192,42.125097611919045 L 337.30892854370177,42.07347125094384 L 340.49862741678953,40.074409514665604 L 344.79748717322946,39.22990360483527 L 346.7471302188933,38.34327981527895 L 346.16843760199845,37.55526221729815 L 351.03910079598427,37.039345283061266 L 351.94847501814365,37.55526221729815 z" /><path fill-rule="evenodd" fill="#D2EBD9" stroke="#A6A6A6" stroke-width="0.25" opacity="1" d="M 307.327137388289,63.71888223383576 L 308.75320151634514,61.756099223159254 L 310.07592759653926,60.47140496876091 L 313.11406398564577,58.19434809405357 L 312.5353713668883,57.32888095639646 L 310.9232989381999,58.222571544349194 L 309.12521820515394,58.11908587720245 L 305.2603779323399,57.32888095639646 L 297.46180541068316,58.984648930840194 L 293.8725331258029,58.76354399975389 L 287.5895842500031,56.3506535878405 L 283.58695993945,55.758138835430145 L 274.13497990369797,57.66282595787197 L 270.0427960753441,58.93760476075113 L 268.47205881401896,58.76824827585369 L 268.45139127224684,58.19434809405357 L 266.99777042120695,58.71179704833776 L 265.5579279307276,59.69505378045142 L 271.3448545280844,62.85745041165501 L 271.3448545280844,63.71888223383576 L 269.7327821813524,64.2273171376437 L 266.3915209118277,64.66987343505025 L 264.98612449504435,65.23017028626055 L 266.7635376844555,66.36031509749591 L 268.6373995728791,66.42153647542 L 270.55948598124087,66.10601693205535 L 272.50223984755576,66.09188943915069 L 274.27276385575533,64.99945446755737 L 276.57375604845583,64.02958816848695 L 281.27218930236995,62.85745041165501 L 285.89484139718115,62.85745041165501 L 287.0728943441063,63.229312537238 L 289.01564829424024,64.29322809260339 L 298.88098027184606,65.23017028626055 L 305.57039182446897,63.11163249332458 L 307.327137388289,63.71888223383576 z" /><path fill-rule="evenodd" fill="#D2EBD9" stroke="#A6A6A6" stroke-width="0.25" opacity="1" d="M 231.93175087682903,75.57769963238388 L 232.6620058938861,76.44067426025867 L 232.96513069048524,76.26146870944649 L 233.0891361963004,75.18161520920694 L 232.85490345954895,74.46966197527945 L 231.29794464446604,73.20623837132007 L 230.29901090450585,71.90533538814634 L 229.31385552696884,71.09474817104638 L 221.78396181203425,68.79073472879827 L 218.89049847237766,68.56932490039617 L 216.85818500444293,69.2571311192587 L 218.6631549168378,70.24655818659812 L 218.88360929116607,72.03730020485818 L 218.20846780575812,73.41365064308047 L 216.85818500444293,73.20623837132007 L 215.64568606950343,74.7902678726241 L 216.3621627241373,75.37493944074959 L 217.38176400586963,75.57769963238388 L 219.34518558345735,76.82739642541856 L 222.53488437086344,77.48770230356604 L 225.91748080961406,77.40280237048864 L 228.41825975105166,76.44067426025867 L 227.83956713415682,75.57769963238388 L 229.78232099860907,76.41237830370665 L 230.8294791728258,76.35578684415668 L 231.93175087682903,75.57769963238388 z" /><path fill-rule="evenodd" fill="#D2EBD9" stroke="#A6A6A6" stroke-width="0.25" opacity="1" d="M 270.18746920861304,81.98885175120085 L 268.24471534229815,81.78118871152401 L 258.902962366119,83.81088312715292 L 251.75197452306747,86.54008540511131 L 249.1960818823427,87.04071055632085 L 247.68045832030475,88.09402794670314 L 246.72974893078208,88.32077145017684 L 242.96824662201107,89.90817912481725 L 243.32648494839668,90.42321820557117 L 243.7122800834477,90.65948713198304 L 244.64921102672815,90.70201638713479 L 245.71014756336808,90.10190508514643 L 246.66774613410234,90.25310941040516 L 248.74139485694468,91.56683312822133 L 249.271863123402,90.70201638713479 L 250.47747279331088,92.28523115534335 L 250.47747279331088,91.56683312822133 L 253.53627689369023,92.53101557306945 L 256.12661543674767,90.92884335387498 L 258.48961050994694,89.02939169947058 L 260.8870514854789,89.11443089973181 L 258.57228084653616,91.56683312822133 L 256.3195130042732,92.94225095678121 L 255.57547954283655,93.79788618348539 L 256.8017568383366,93.65133361704648 L 259.1509735491127,93.79788618348539 L 260.8870514854789,92.28523115534335 L 261.21084382385015,92.3183169439435 L 262.04443680495024,92.95643187779933 L 262.6231295056641,93.15496832411736 L 263.69095522351563,93.16442255210131 L 266.1986234281212,92.74372058920562 L 267.34223030135036,92.28523115534335 L 267.9140338227153,91.68971186690032 L 269.1334218531847,89.82313039898872 L 270.18746920861304,89.11443089973181 L 270.228804461658,88.57586660608649 L 269.6087765917182,88.32077145017684 L 271.26218418963253,87.04071055632085 L 273.11537853628397,86.32284395303577 L 275.1063568368554,86.01116134226322 L 283.3113920353353,86.05838509276509 L 284.6892317291349,86.8140079928562 L 285.874173855409,85.65227107144892 L 287.424243491143,85.18007476441562 L 292.67381255328655,84.90621528960764 L 297.7373733147979,83.56540077459067 L 305.46705386042595,83.90530164260417 L 309.3112265076488,83.50403157155961 L 312.5353713668883,81.98885175120085 L 270.18746920861304,81.98885175120085 z" /><path fill-rule="evenodd" fill="#D2EBD9" stroke="#A6A6A6" stroke-width="0.25" opacity="1" d="M 253.90140440128744,100.22081450466067 L 247.22577120922506,104.0972567955032 L 245.86170996166766,105.85868726391345 L 247.01909528113902,104.98265212588012 L 247.59778789803386,104.98265212588012 L 247.6391230672598,105.71662004850805 L 248.74139485694468,105.85868726391345 L 248.2729293834418,106.69694131799042 L 248.32804291322827,107.45477075129747 L 248.8998464345932,108.01372197363526 L 249.8987801745534,108.24110462795943 L 248.7345056757331,110.30683224275708 L 247.59778789803386,113.00835115183145 L 249.8987801745534,113.00835115183145 L 253.32271169871092,111.63376507535577 L 269.72589291632175,111.01765810325742 L 280.06657963246107,108.24110462795943 L 280.06657963246107,107.45003407727927 L 278.9091943129897,107.45003407727927 L 280.6108262613416,106.73483087681234 L 281.28596774861217,106.82481935061514 L 281.80265765450895,107.45003407727927 L 282.5673586577177,106.81061048805714 L 284.15876346081495,104.98265212588012 L 285.07502677850425,104.67961670272052 L 285.81217106059194,104.77904877252877 L 286.43908811174333,104.60859458521008 L 287.0522267166525,103.47233854047954 L 285.9706226401031,101.34708302374929 L 285.35748394951224,100.6561575839296 L 284.6892317291349,101.0867950450629 L 283.14605127461255,98.95752507727593 L 280.34903680346906,98.30467725079507 L 264.69677814282477,97.83636708557606 L 259.2543115131557,98.57432446442544 L 253.90140440128744,100.22081450466067 z" /><path fill-rule="evenodd" fill="#D2EBD9" stroke="#A6A6A6" stroke-width="0.25" opacity="1" d="M 244.64921102672815,107.45003407727927 L 243.34026330895722,105.9439288014546 L 241.02549267187715,106.55485736764967 L 235.36257166601717,110.12676772102714 L 231.17393905483186,111.88496249169111 L 229.03828762099147,112.21200653724372 L 228.98317400738597,112.73815274517983 L 229.56186670809984,113.00835115183145 L 228.7282737288624,113.69100369978696 L 228.48026254586875,114.51596360094845 L 228.91428202949464,115.19876197073609 L 230.14055932499468,115.46905458252877 L 234.96299817040563,115.08495759684592 L 236.75418972223997,114.11769502330571 L 237.13998485542834,112.21200653724372 L 239.4340878687799,112.49640496820211 L 241.02549267187715,111.16931016556919 L 242.55489476397634,109.16965970862657 L 244.64921102672815,107.45003407727927 z" /><path fill-rule="evenodd" fill="#D2EBD9" stroke="#A6A6A6" stroke-width="0.25" opacity="1" d="M 184.32739047333598,142.65076984930784 L 189.53562436811626,140.25193494651467 L 184.53406640328467,141.75111079774797 L 183.7486977726221,141.4131734566763 L 182.9908859487623,142.37943197786808 L 179.31205406226218,145.09804426599294 L 177.96866044029593,145.77428989764303 L 178.6093558538705,146.6411224436015 L 178.96070500090718,146.04099622741342 L 179.31205406226218,145.860015835613 L 181.89550342597067,145.57902923040092 L 182.86688044294715,144.69328048918396 L 183.548911023885,143.5553051000461 L 184.32739047333598,142.65076984930784 z" /><path fill-rule="evenodd" fill="#D2EBD9" stroke="#A6A6A6" stroke-width="0.25" opacity="1" d="M 148.9720246642828,168.32770859450102 L 149.4060441479087,167.14289799705148 L 155.84744460321963,161.842370538041 L 157.95553922839463,159.29381516948342 L 160.35298028960824,157.218429566361 L 159.61583609320223,157.73841111548245 L 154.62116722390056,160.02392449975014 L 153.00909487716854,161.11207173205912 L 151.2730168569833,163.44643118977547 L 148.9720246642828,165.12249414157122 L 147.84219606779516,166.2066572215408 L 146.61591877229512,167.75438805297017 L 146.1405641194433,169.19255573954433 L 147.23594664223492,169.9332558447495 L 148.9720246642828,168.32770859450102 z" /><path fill-rule="evenodd" fill="#D2EBD9" stroke="#A6A6A6" stroke-width="0.25" opacity="1" d="M 152.48551579006016,179.995428070426 L 152.01016113720834,181.3738874066621 L 149.7298364881426,183.9879635842517 L 148.9720246642828,185.25226350408047 L 150.58409700915217,185.2235268270597 L 151.94815834239125,184.61050686705858 L 156.4812508355826,181.16327179875225 L 159.36782491020858,180.44052574876696 L 160.00852032378316,177.15321425907314 L 160.51832104846835,176.5648194430396 L 162.3095126003027,175.6177513115108 L 162.9846540018916,174.78558526653796 L 164.33493688888848,172.08411949221045 L 164.61739405803382,170.72660858090967 L 163.37733831629157,171.34319178108126 L 161.3174680415541,171.73993691056967 L 160.52521022967994,173.14545602630824 L 158.35511272400618,173.82441325113177 L 157.21839503198862,174.46996196452528 L 156.4812508355826,175.6177513115108 L 156.8532675243914,175.89037898089737 L 157.05994345247746,176.3495653923601 L 155.93700412102044,176.8518350776285 L 154.40760211460292,177.88518911972642 L 153.06420840881765,179.0622505415231 L 152.48551579006016,179.995428070426 z" /><path fill-rule="evenodd" fill="#D2EBD9" stroke="#A6A6A6" stroke-width="0.25" opacity="1" d="M 148.39333196170628,186.05693732667714 L 147.332395426929,187.22100456617773 L 146.5194699894637,188.83089899644256 L 145.7616582494229,189.8708199802786 L 144.8660623896867,189.27656045462936 L 144.34248338639736,189.27656045462936 L 143.70867707021534,190.87734260130674 L 142.86819490976632,189.57847623620182 L 141.22167649120092,190.85816943179816 L 139.45115256682038,192.94356577657163 L 137.170827915892,194.81376193929464 L 134.2291402257979,198.52686881180853 L 132.67218141071498,199.73621440585703 L 132.87885733880103,200.26896890811622 L 133.25087402760983,200.54256142303348 L 132.1486023236066,203.03418781980872 L 145.9683341793716,191.7497798036784 L 147.77330409176648,189.4490821082145 L 148.39333196170628,186.05693732667714 z" /><path fill-rule="evenodd" fill="#D2EBD9" stroke="#A6A6A6" stroke-width="0.25" opacity="1" d="M 113.54776679351926,201.4210100127384 L 114.19535147212446,201.89148169383407 L 114.7740440890193,201.8674772158265 L 115.32517998293042,201.40660835895687 L 115.77986709401011,200.50896185077727 L 114.6775953900069,200.0769806029275 L 112.90707137994468,200.64336134959012 L 111.60501292906702,201.9826992545277 L 111.8254672177136,203.83131252788007 L 112.24570834077895,202.55883769877255 L 112.92773900739849,201.74745630007237 L 113.54776679351926,201.4210100127384 z" /><path fill-rule="evenodd" fill="#D2EBD9" stroke="#A6A6A6" stroke-width="0.25" opacity="1" d="M 139.09291423857212,178.0287225758657 L 145.21052235551178,173.69531075283885 L 145.49986870586872,172.33270644489676 L 143.40555235743523,171.62999329343438 L 139.17558457702398,175.00079116877168 L 138.14220484904945,174.68515815213323 L 138.51422153785825,174.2930279681459 L 139.09291423857212,173.14545602630824 L 141.71769877150655,171.12809850927442 L 142.38595099188387,170.6596957743168 L 143.03353566862643,170.72660858090967 L 143.51577958837152,170.59278372488916 L 143.70867707021534,169.56528539955616 L 143.322882020846,168.97752856649458 L 142.4823997747153,169.50316235236824 L 141.44902004674077,170.72660858090967 L 138.41088357381523,172.54783687647432 L 137.12949274666607,173.67140307091177 L 135.88254782557487,175.18252572976053 L 132.5206190124154,180.36873393598944 L 130.48141627945006,182.82443514466286 L 127.11948755010962,190.1104550510645 L 125.42474478296936,191.75936772488058 L 123.05486053042114,192.8524664696306 L 115.86253743246198,200.54256142303348 L 115.6696399487555,201.8674772158265 L 115.25628800690174,202.92855168133974 L 114.12645949609578,204.64773950725794 L 114.6018141489476,204.75340185593814 L 115.28384481556714,204.64773950725794 L 116.93725241348147,202.70768120139837 L 121.70457764342427,198.92996060475707 L 122.999746914953,196.1088070673868 L 124.85294126160443,195.33654745668173 L 125.59697472304106,194.66508699581027 L 126.33411891944706,194.29581127408892 L 127.47772587835789,194.90488687809557 L 126.89903317578137,193.30317993927747 L 128.07708612270653,193.1305628074333 L 128.7797843310982,192.45452038105577 L 129.11735503189266,191.28957954980433 L 129.2138038147241,189.67911773361266 L 129.55826378054917,188.23193655256182 L 130.35741077177227,187.06290989555418 L 134.32558901049197,182.7334678452462 L 135.2487415932119,182.1972637232393 L 136.48879724927247,182.04407000541687 L 139.09291423857212,178.0287225758657 z" /><path fill-rule="evenodd" fill="#D2EBD9" stroke="#A6A6A6" stroke-width="0.25" opacity="1" d="M 116.44123013317585,250.1395982336253 L 115.50429918989539,250.92281479667872 L 106.66545767337084,261.8971800496802 L 105.15672329254448,264.4981641555205 L 104.30935186706483,267.2019021231681 L 104.95004727877676,267.0128967380151 L 108.22930575348437,263.1902842381969 L 113.75444280728698,254.985361575149 L 117.01992275193334,252.50402232911438 L 116.70990885794163,256.015887147747 L 118.73533314652741,256.11265800055116 L 121.628796486184,254.22587074059993 L 124.00556991994381,251.7641462367028 L 125.93454542383552,248.57826455309987 L 127.18837952800095,247.32655198406428 L 130.34363232553005,246.30698447395116 L 131.23922810144722,244.96389744523913 L 132.07971034757793,243.1284448588267 L 133.25087402760983,241.15346196480095 L 131.5905772484839,241.4093571137637 L 129.24136062152684,243.41822077613324 L 127.47772587835789,243.58243246842176 L 128.05641849525273,245.2682432886213 L 124.56359499506652,247.33138440269977 L 122.86885214224458,247.96929501742125 L 121.95258882455528,248.67493130918592 L 120.8089818675071,249.25496034696698 L 119.33469338901341,249.25496034696698 L 119.33469338901341,248.44293334148824 L 123.97801311314106,245.87697502877563 L 130.92232502810657,235.85903905145824 L 135.04206557944417,232.98427522554994 L 133.69867195934057,234.09352264087647 L 132.35527825169265,235.68053742218763 L 131.17722539044917,237.73599655553699 L 130.37118913419545,240.26997238583863 L 133.90534788742661,238.51781018357724 L 141.8072583731264,230.15408736467361 L 143.70867707021534,228.9394376548007 L 144.90739764273167,227.53707121498883 L 147.29106025770307,225.38828994520009 L 148.39333196170628,224.0829651746899 L 146.7605919893831,223.63506908807904 L 144.78339205123484,224.805439312011 L 142.71663251146674,226.42405430879444 L 140.82899217680097,227.3202356947586 L 140.82899217680097,226.5107764992863 L 142.33772664144635,226.19280047435313 L 143.82579348050058,225.20524068083614 L 145.1278519332409,223.85660542175174 L 146.0785613246262,222.46489607729018 L 144.34248338639736,222.46489607729018 L 144.71450007520616,221.39602162037045 L 145.49986870586872,220.85201805271208 L 143.6948987096548,221.36232101544738 L 139.94028566591442,223.01384154241532 L 137.9355289209634,223.20164863020182 L 137.9355289209634,222.46489607729018 L 141.44902004674077,219.97592495102435 L 141.44902004674077,219.2443275982514 L 139.49248773604631,219.72081978153437 L 137.75640971399844,220.76536666043103 L 136.2683428749442,222.25784903764725 L 135.04206557944417,224.0829651746899 L 135.04206557944417,224.81988952402025 L 136.19945089891553,224.81988952402025 L 136.19945089891553,225.70141162443906 L 135.51742031797767,226.11089989636093 L 135.08340083248913,226.6023177523166 L 134.40825934708118,228.1297894809395 L 135.30385512299836,228.05750400479883 L 135.91010463237762,228.24544766824692 L 136.3510132972151,228.76593373622745 L 136.77814360149205,229.66723790206015 L 134.61493527702987,231.10860414989293 L 133.8846802599728,231.36412849277258 L 133.0855332687497,231.23877574503422 L 131.74902882799506,230.49634845275432 L 131.00499536655843,230.5541970450431 L 130.10251040942967,231.57144751399755 L 128.61444357037544,234.73986170254648 L 123.37176360376179,239.09216167777777 L 122.60017341934144,239.25627077091485 L 118.1773080714047,241.96463372092694 L 118.1773080714047,242.6938036158681 L 119.96849970705807,243.58243246842176 L 118.92134153284132,245.52429053280503 L 116.496343748644,249.13895059935749 L 116.44123013317585,250.1395982336253 z" /><path fill-rule="evenodd" fill="#D2EBD9" stroke="#A6A6A6" stroke-width="0.25" opacity="1" d="M 79.92158982343972,250.87930043041706 L 86.78323131799698,243.48583685606718 L 87.43770517595112,241.15346196480095 L 85.54317566007376,240.93619993515313 L 83.26285101100802,243.1187857761979 L 80.45894727297127,246.82882960420102 L 79.29467277228832,247.63100180774927 L 79.29467277228832,248.44293334148824 L 81.65766776166856,247.63100180774927 L 79.28089432604611,250.71975005883723 L 77.97883587516844,251.81733728200197 L 76.40809861384332,252.50402232911438 L 75.80873836949468,251.25643395911902 L 74.92692095413804,250.83578633796424 L 73.9210980348289,251.06786462292075 L 72.93594265542924,251.7641462367028 L 72.93594265542924,252.50402232911438 L 73.51463535800576,252.50402232911438 L 73.08061587251723,253.4035861901939 L 74.58935025334358,255.30950094107538 L 74.03132517822087,257.6611763378605 L 71.77855733595788,261.5049378583208 L 70.73828842677176,266.78028182685375 L 70.62806119769812,268.8207759466022 L 72.31591486930847,267.66716824192554 L 74.46534474752843,266.65913128852844 L 75.85007353872061,265.10859297960997 L 75.25071329437196,262.318501974456 L 75.65717605501413,261.2725086007267 L 76.02919274382293,259.3843110622838 L 76.40809861384332,256.1513667460531 L 76.91101007349789,255.03857742529362 L 79.92158982343972,250.87930043041706 z" /><path fill-rule="evenodd" fill="#D2EBD9" stroke="#A6A6A6" stroke-width="0.25" opacity="1" d="M 104.8880445677787,276.14923876617104 L 104.8880445677787,275.2224439214915 L 105.0947204977274,274.65963464137167 L 106.03854062221944,273.7039346266538 L 104.92249055579305,274.49468207731843 L 103.57220767065883,274.8828121582046 L 102.30459512025118,274.9119228431955 L 101.41588861122727,274.59171254746616 L 97.89550821855664,278.59541167505085 L 100.01049210876226,278.59541167505085 L 101.02320429496467,278.31871757283807 L 101.9463568776846,277.85273160226643 L 101.9463568776846,278.59541167505085 L 101.65701052732766,278.9983369251713 L 101.41588861122727,280.29950989596546 L 102.8006174005568,279.11970464419574 L 103.15196654759347,278.59541167505085 L 103.73065924830735,278.59541167505085 L 102.65594426728785,280.9404765944928 L 101.95324605889618,281.9457491664216 L 100.78897155821323,282.7374439518899 L 100.25850329175591,284.36969129089266 L 102.03591639734805,284.1073396569118 L 103.73065924830735,283.54866128228605 L 103.15196654759347,285.26370517443866 L 104.76403897628188,285.1179341226816 L 105.96964864619076,284.2142223948613 L 106.21077064797282,282.999743222259 L 104.8880445677787,281.9214654332027 L 104.8880445677787,281.1881387606263 L 105.52873998135328,280.7462379857898 L 108.85622280649841,277.45958040561527 L 110.90231463499367,276.26085081882775 L 111.8254672177136,275.33404095470905 L 114.26424344815314,271.2643472906202 L 114.92560648731887,268.88864117860794 L 114.12645949609578,267.2019021231681 L 111.74279688112438,269.2813035240397 L 107.63683469034731,274.0095501113683 L 104.8880445677787,276.14923876617104 z" /><path fill-rule="evenodd" fill="#D2EBD9" stroke="#A6A6A6" stroke-width="0.25" opacity="1" d="M 85.70851642079651,262.318501974456 L 85.21249414049089,261.2628242429346 L 85.25382930971682,260.31382071971893 L 85.79807593859732,259.93619234021753 L 86.85901247523725,260.61884328443557 L 87.43770517595112,258.99705234821886 L 86.25276304967701,257.48211114201695 L 85.66029198653996,257.162709094584 L 84.72336104139686,257.3320871628821 L 82.24324964359403,257.3320871628821 L 78.42663371935487,261.650210224092 L 75.60206243954599,267.7253286847845 L 75.82940599508584,272.97148266620934 L 75.45050004124641,273.07819263543934 L 74.67202067561448,273.7039346266538 L 73.90731967240572,273.2382608074695 L 73.36996213905513,274.0968713462353 L 73.03928061947227,275.6882519116625 L 72.8119371496141,280.6491207377985 L 72.39169602654874,281.1007275385782 L 71.49610025063157,281.1881387606263 L 70.12514973804355,282.7908744709566 L 68.79553447663784,289.93973664660007 L 67.10768089070916,291.7147394279018 L 67.27991083078086,292.585387901403 L 67.72770876064897,293.3491200665012 L 66.96300775744021,295.50456765666604 L 67.72770876064897,295.87441900279373 L 69.73246542178094,295.0471474826336 L 70.33182574994862,294.5313698258251 L 71.85433857701719,292.22544161602855 L 72.64659638889134,291.7147394279018 L 74.9958130158484,291.7585124205798 L 75.49183529615402,292.44918979518116 L 75.82940599508584,294.16159080620855 L 75.5193920172751,294.8379123089835 L 75.13359696790576,296.70179020799696 L 75.24382411316037,297.90408947411925 L 76.40809861384332,296.60444725770503 L 77.02812648378313,297.422170962207 L 75.3402728959918,298.9848784394562 L 74.0933279749006,301.07391219213605 L 71.55121378041804,308.339352699928 L 71.05519150011241,309.30475910846144 L 66.53587745316327,314.75356684438884 L 65.7780656311661,316.22748964559287 L 65.70917365327477,317.98489843215793 L 66.63232623785734,320.4851019894704 L 67.56236800178885,322.10681604221463 L 68.75419930927455,323.31846789550036 L 70.29737967811525,323.7289147991687 L 72.3572500385344,322.9373607262969 L 73.02550225891173,321.54014934785664 L 72.72237754613161,316.7400206271559 L 72.93594265542924,313.8557030390948 L 73.49396773055196,311.68960350658745 L 75.02336973883212,307.3204600000754 L 77.55859475210309,302.4036286678165 L 78.67464490234852,301.4830282824114 L 80.62428803183138,301.2054111454636 L 81.65766776166856,300.6940405657515 L 82.28458481281996,299.22345385327935 L 82.07790888287127,297.1301156086847 L 81.36143223010004,294.983889689669 L 80.45894727297127,293.3491200665012 L 81.07897514291108,292.5270168678835 L 80.29360651224852,290.44544417597353 L 80.16960092261434,288.7388303987682 L 80.45894727297127,284.8166836462915 L 81.5543297957629,281.2998325470835 L 81.69900292903185,279.31875222735107 L 80.45894727297127,278.59541167505085 L 80.89296675659716,277.28000030387193 L 81.9263464845717,275.5329791205004 L 82.23636046238244,274.59171254746616 L 82.3190308008343,273.32072149403393 L 81.78856253251433,271.84142817836255 L 81.65766776166856,270.372149403207 L 82.17435766756535,267.7689493680373 L 83.3110753595829,265.8789731999859 L 84.64069061912596,264.22203551325947 L 85.70851642079651,262.318501974456 z" /><path fill-rule="evenodd" fill="#D2EBD9" stroke="#A6A6A6" stroke-width="0.25" opacity="1" d="M 103.44131289795041,295.86468584183604 L 102.0014704093337,296.26862454321235 L 97.89550821855664,299.057910785079 L 95.44295362755656,300.03175058495253 L 95.07093693874776,300.9083245964721 L 95.00893414393067,302.8128239484504 L 95.2224992532283,307.10597552731633 L 94.76092296093702,308.10533524211496 L 93.2728561218828,307.3107105875388 L 93.2728561218828,306.4966813940555 L 94.43024144135416,305.59502547141165 L 92.20503040589392,305.4293285710737 L 85.41917007043958,306.4966813940555 L 83.29040773399174,307.1985929803923 L 81.15475630015135,308.9195553949103 L 79.34289712272584,311.0896565038711 L 78.18551180325449,313.1091994699091 L 78.86754246987402,314.1289534633979 L 79.58401903882623,314.6022879900411 L 81.36832140944898,314.7486867252737 L 81.6921137496829,315.2611070089042 L 81.74033818393946,317.51621195301414 L 82.52570672892034,318.02883944194764 L 85.7154056020081,318.11183991190046 L 87.0794668495655,318.8051770692691 L 86.32854420691729,320.4851019894704 L 87.42392672970891,322.0872750794515 L 87.8786138407886,323.0741659998894 L 88.06462222710252,324.095406062901 L 87.56859994865954,325.9281569747254 L 87.65127028524876,326.83738370332867 L 88.59509049542248,327.8640754548833 L 88.74665280990303,329.20389572530985 L 88.66398247145116,330.25539843551815 L 88.23685216903687,330.9255101662129 L 87.43770517595112,331.1407425394282 L 88.66398247145116,332.48609827272594 L 89.8902597669512,332.6084164036438 L 92.6459390707314,331.1407425394282 L 91.48855375126004,331.1407425394282 L 91.64011614955962,330.25539843551815 L 91.9087948743254,329.5560087999329 L 92.6459390707314,328.61219085846096 L 93.89977317303419,326.39742020890117 L 95.00893414393067,323.6849371623248 L 92.77683384343982,322.6002451721579 L 94.05822475254536,321.7355463374406 L 96.69678772985935,321.4424529466778 L 98.52242526970804,322.04330799821764 L 98.99777992255986,319.8404308455065 L 97.98506782203913,315.6271449942142 L 98.52242526970804,313.1091994699091 L 99.60402943193913,311.9237434109673 L 101.11965307965875,311.4408386638388 L 104.8880445677787,311.39693990908563 L 104.84670931473374,307.95420312229544 L 109.91027007624507,303.2658901931718 L 111.19166098535061,299.9489688016474 L 110.66808189824224,299.9489688016474 L 109.68981578573585,299.21371582336724 L 108.62887925095856,298.97027196828276 L 107.57483189553022,299.21371582336724 L 106.61723332479596,299.9489688016474 L 105.4598480053246,299.057910785079 L 105.4598480053246,298.31301662605256 L 106.60345487855375,297.27614173293114 L 106.27277335897088,296.50710568763316 L 105.01893925480545,296.0301518011838 L 103.44131289795041,295.86468584183604 z" /><path fill-rule="evenodd" fill="#D2EBD9" stroke="#A6A6A6" stroke-width="0.25" opacity="1" d="M 237.78068026900291,126.2607650225982 L 243.2782605998218,124.20935336407274 L 242.89935464411974,123.52568216063082 L 239.73032340034842,123.18387136794627 L 235.38323929347098,123.94822108652443 L 234.14318355172873,123.8247800860554 L 233.41981771588326,123.43548049312085 L 232.37265962734818,123.18861861340702 L 231.03615510091186,123.39750117063522 L 229.98899701237679,123.75831282231957 L 229.41030430980027,124.19510945677757 L 229.43786111660302,124.83611014578491 L 230.04411054216325,125.09252679534256 L 232.12464844435453,124.7648850325495 L 232.86179272644222,125.34895277488977 L 232.51044357940555,126.32250653393567 L 233.89517245441675,126.85920593235642 L 237.78068026900291,126.2607650225982 z" /><path fill-rule="evenodd" fill="#D2EBD9" stroke="#A6A6A6" stroke-width="0.25" opacity="1" d="M 106.52078454010189,218.40693553443998 L 107.67816985957325,217.58889153879136 L 109.22135031409562,216.09741196502 L 109.05600955337286,215.43356604781002 L 107.04436362721026,215.2122981287539 L 106.53456290252507,214.59663327597082 L 105.57007515057921,214.81307178456336 L 104.68825773522258,216.04930505808443 L 104.8122633267194,217.00188394542783 L 105.66652393341064,217.006695269607 L 105.96275946497917,217.39642459899187 L 105.96275946497917,218.28181675355881 L 106.52078454010189,218.40693553443998 z" /><path fill-rule="evenodd" fill="#D2EBD9" stroke="#A6A6A6" stroke-width="0.25" opacity="1" d="M 94.13400590978563,224.1744744013995 L 96.68300928361714,222.392669711262 L 98.19174375012517,220.3706345865503 L 97.85417304933071,219.9662981936708 L 96.44877654872835,220.7461108500138 L 92.900839433074,223.9673763588071 L 92.57704709470272,224.9210420884192 L 94.13400590978563,224.1744744013995 z" /><path fill-rule="evenodd" fill="#D2EBD9" stroke="#A6A6A6" stroke-width="0.25" opacity="1" d="M 109.74492931552231,228.53942113555968 L 110.40629235468805,227.37323928065598 L 110.87475791200995,225.26786221005023 L 110.01360812410712,224.44419284071773 L 108.67021441832185,224.8921412723139 L 106.21765982732177,226.92031254898757 L 106.35544378124177,227.89847877435386 L 107.23726119473577,229.3153778826818 L 106.8307984340936,233.00356491841376 L 107.52660746127367,233.30256285518408 L 108.47731685079634,233.42795281484723 L 109.48313977196813,232.9022943926975 L 110.199616426602,231.8366321483627 L 110.35117882490158,230.67953741550446 L 109.64848053269088,228.9683554554358 L 109.74492931552231,228.53942113555968 z" /><path fill-rule="evenodd" fill="#D2EBD9" stroke="#A6A6A6" stroke-width="0.25" opacity="1" d="M 62.87082392908633,262.2313297940418 L 64.70335064828396,264.381898060441 L 65.94340639002621,264.14937186799943 L 65.90896040201187,262.98685845639557 L 65.41293812170625,262.26038710493594 L 64.28999879211187,261.9988760696724 L 63.986874079331756,261.66958004049957 L 64.08332286216319,260.6140015628189 L 63.90420365706086,259.965239870362 L 63.93176046386361,259.32622089330107 L 64.70335064828396,257.9418824436143 L 65.15803775936365,256.4126563593745 L 64.55178833566606,256.29652638174593 L 63.55285459570587,256.9255868503824 L 62.49880724027753,257.28369302209467 L 61.89255773089826,258.0193205419928 L 62.14745809324086,259.94587483629584 L 62.87082392908633,262.2313297940418 z" /></g></g></g></svg>