<svg xmlns="http://www.w3.org/2000/svg" xmlns:xlink="http://www.w3.org/1999/xlink" width="500.0" height="306.5729508846998" viewBox="0.0 0.049119796603918076 500.0 306.5729508846998" preserveAspectRatio="xMinYMin meet"><g transform="matrix(1,0,0,-1,0,306.67119047790766)"><g><path fill-rule="evenodd" fill="#D2EBD9" stroke="#A6A6A6" stroke-width="0.25" opacity="1" d="M 500.0,237.70518390648067 L 498.7887559607625,236.28373437561095 L 496.93760940246284,232.8339324593544 L 495.73398333229125,231.72043969947845 L 492.7782432157546,230.61852335184813 L 491.5974707622081,229.78938694298267 L 490.8052105307579,228.3046256210655 L 490.8356821909547,227.36513912677765 L 491.20895861648023,226.65565992705524 L 491.35369843430817,225.85263610072434 L 490.72903170995414,224.618526709266 L 490.2871942855418,224.32351493369788 L 488.69505592249334,224.1589956888929 L 487.19433224759996,223.46693255659193 L 486.29542153328657,222.75510277599096 L 484.47474663704634,220.35085287690163 L 482.31888472288847,218.4604863896966 L 479.62977062352,217.2959698708728 L 476.81115257553756,216.88802029937506 L 474.26677836850286,217.30730212572962 L 468.80475352704525,220.1977864690125 L 466.5422411337495,219.6677547097206 L 465.3386150635779,215.33864420466125 L 464.4930295534432,214.5287174321711 L 463.51794009283185,214.12662874627858 L 462.45905376784503,214.03318954445422 L 459.05385840311646,214.5485394950956 L 458.1168582793325,214.45792514644563 L 456.8065818026662,213.98222339246422 L 455.44298004731536,213.22061708383262 L 454.6050125081092,212.3543779272586 L 452.9900205284357,209.90357649233192 L 451.1769634541124,208.42115413583815 L 450.63609344512224,207.74231064878404 L 450.3618495296687,206.92780485376716 L 449.88192269578576,203.97619420476258 L 448.053629828617,201.35946981702 L 447.64988188818097,198.99809887818992 L 447.26136959530413,198.17354353517294 L 446.2634264435619,197.4196876566857 L 442.6525480877608,196.5022070305422 L 438.07419816963375,193.04815284442157 L 435.89548249170184,190.6563697392121 L 434.4937913995236,187.98653746955097 L 434.6842385251075,184.5911357337609 L 435.3317589405924,180.81769689172506 L 435.4307914506644,177.1845889594406 L 433.9529214669019,174.16672226320952 L 430.66961223073304,173.19391796085984 L 429.34409988485277,172.37868869677186 L 428.00335182249546,170.86379413865507 L 425.15426218509674,166.6977871451527 L 424.70480679161847,165.42864022869617 L 423.85922142863274,161.53871011920273 L 422.6175058763474,158.9412758294493 L 422.3127904459834,157.73832614906132 L 422.48800177685916,154.49806260038167 L 422.0385464578867,153.1615648381412 L 421.4214976299554,152.29034644458443 L 419.7912698555738,150.7303267242387 L 419.0904242377728,149.69428119715303 L 418.39719651453197,146.79994171392173 L 417.9020339604467,145.84574420191348 L 416.4089281093329,144.37138567958027 L 412.77519613690674,141.94385211914778 L 411.1297325696796,140.3810389507562 L 408.2501713465899,136.9158435491845 L 408.5320331584662,135.9856251757592 L 409.872781297192,135.53872666694224 L 410.3831796441227,135.11979081761092 L 411.09164308570325,133.74589432496578 L 410.80978134833276,133.63979399297386 L 409.40809010900557,128.30378520861268 L 408.78342338465154,127.51719652023166 L 405.4163174312562,124.74546404089779 L 405.08874838612974,124.62280230876058 L 404.88306539319456,123.06188088748604 L 405.2258703056723,119.42879533674568 L 404.608821477741,118.05305314809084 L 403.8470328319818,117.3875785972923 L 401.15791880711913,116.66093443054706 L 399.6191055737436,115.21348597481847 L 398.67448770068586,113.4603309808299 L 397.09758513234556,109.118686767295 L 396.518625639379,108.03169896360487 L 396.28247120790184,106.75592964235693 L 396.8538127299398,105.99449312780052 L 398.84208113513887,104.63027112837881 L 398.5906909108162,102.50816837791353 L 397.24994284659624,100.50343864131719 L 395.77207278832793,99.66510060243309 L 393.7609506174922,99.309815001674 L 392.96869038417935,98.04983681812882 L 392.328787939623,96.24637912772596 L 390.797592677176,94.2216248223558 L 389.20545438863337,93.37310192268342 L 386.49348667263985,93.58383453730494 L 384.91658410429955,93.17901282571256 L 383.7891368549317,91.81502655614167 L 383.37015304900706,89.78904432523996 L 383.0806733388454,85.68104537762702 L 382.16652697883546,83.71809748467058 L 380.8943399116397,82.10449087712914 L 379.85830727778375,80.40556725300848 L 379.67547797597945,78.2010259591043 L 381.8313399627805,74.07908556889743 L 382.29603100195527,71.7305243043229 L 380.5896244086325,70.42402869928628 L 377.4662907849997,70.28870017454028 L 376.02651020884514,69.77503291424364 L 374.7847946565598,68.31712709087878 L 374.0382417310029,65.99848217424005 L 373.7335263006389,61.24813782889396 L 373.10124167986214,59.185893163084984 L 372.2556562423706,57.56528145354241 L 371.54719272628427,57.008644342422485 L 369.39133081398904,57.02517732139677 L 368.91902180202305,56.77718701772392 L 365.399558134377,52.48586720973253 L 364.0740457903594,51.97926965728402 L 362.1238667946309,53.84618849866092 L 361.54490745067596,54.13812057580799 L 360.9126228298992,54.13812057580799 L 360.2422487232834,53.84618849866092 L 358.78723242878914,53.79110864549875 L 356.0371752306819,54.98645868804306 L 354.7192808557302,55.267429090105 L 353.13476039096713,54.5016790535301 L 352.4034432582557,54.43557575251907 L 349.79050812684,56.21511487197131 L 348.3126380685717,56.28123808838427 L 346.76620708592236,55.84593984670937 L 345.2807191312313,55.04154991079122 L 342.39354001171887,52.6345509365201 L 342.07358878850937,52.03983881697059 L 342.1116781979799,51.03777559660375 L 342.79728802479804,48.67094535008073 L 342.78967012651265,47.81802033446729 L 342.19547491520643,47.22379764076322 L 340.8090195450932,47.575922339223325 L 340.25291381776333,47.37234768457711 L 339.8872552141547,46.58012456353754 L 339.8034584969282,45.05649673193693 L 339.4073283802718,44.00613949261606 L 338.27988113090396,42.75255666859448 L 336.840100556612,42.01592698413879 L 332.68073429726064,41.136490508913994 L 332.1322464644909,41.15297869686037 L 331.24095372110605,41.49374565016478 L 330.50963658839464,41.99393943417817 L 328.36139249801636,43.973147094249725 L 325.4437418654561,45.19949183985591 L 322.43467661738396,45.887017203494906 L 320.6368553377688,42.9889574078843 L 308.77580553106964,42.65909844916314 L 305.79721187241375,38.86156111303717 L 301.7902033254504,42.296275115571916 L 300.46469112858176,42.84051854535937 L 298.6135445702821,41.94446780066937 L 298.07267463579774,41.87850630842149 L 297.508950939402,42.186333139427006 L 296.3586500734091,43.55525865405798 L 295.1550240032375,43.846677706576884 L 294.4313247669488,43.75870060920715 L 292.5725603867322,42.818528005853295 L 290.4776414260268,42.5711392974481 L 287.39239728450775,44.31957718823105 L 282.6769253704697,44.75951803661883 L 279.7135674301535,44.105118015781045 L 272.4537213090807,41.092522198334336 L 271.16629844903946,41.35633722320199 L 265.05675319209695,45.2764906603843 L 263.52555800415576,45.777007680386305 L 261.94103753753006,45.859514655545354 L 257.659785149619,45.01799864228815 L 256.0905004777014,45.06749624852091 L 254.72689872421324,44.8255119882524 L 252.90622375160456,44.0006407815963 L 251.19219926185906,42.851513899862766 L 250.12569511309266,41.64215038344264 L 250.25519921071827,40.76826568879187 L 250.80368704162538,39.79560403805226 L 250.99413423985243,38.916500655934215 L 249.05157306790352,37.86175085790455 L 247.63464611023664,35.615546389482915 L 246.3929305560887,34.59981953073293 L 244.945532085374,34.21004686318338 L 244.02376782894135,33.77638652920723 L 242.87346688844264,31.789643959142268 L 242.119296066463,30.95563223771751 L 240.88519840873778,30.527698386460543 L 238.15799497440457,30.511240158230066 L 236.81724683754146,30.20951160788536 L 235.3393768519163,29.095993300899863 L 234.44808410853148,26.491295395419 L 233.61011649481952,25.411370021291077 L 231.56090498901904,25.016726079396904 L 225.10093699768186,25.690925531089306 L 223.46309132687747,26.650285883806646 L 222.37373348884284,28.755946063436568 L 220.7130342014134,29.381209332495928 L 219.01424543187022,28.65722634550184 L 217.85632666945457,26.650285883806646 L 217.77252987772226,23.50416988413781 L 216.46987129747868,23.14252930227667 L 214.6034890189767,23.41101795900613 L 212.85137504525483,22.161828429438174 L 212.54665954224765,21.389436236582696 L 213.36177346669137,19.642341929487884 L 213.27035885304213,19.302841633558273 L 212.85137504525483,19.09477038588375 L 211.4420659840107,19.740910251624882 L 206.91704119555652,20.085912292823195 L 205.82768343016505,20.003767157904804 L 205.09636629745364,19.155000787228346 L 204.27363447658718,18.695075298659503 L 202.79576449282467,18.257084604352713 L 201.53881314583123,17.38667480275035 L 200.76178870536387,17.35930553264916 L 199.8095527868718,18.22423657029867 L 199.07061783224344,17.102040389552712 L 198.4154795203358,15.394523571245372 L 197.64607297815382,14.962250079959631 L 196.7471623364836,15.08262687548995 L 193.8371296003461,16.614909754134715 L 190.18816183507442,17.879343764856458 L 188.8093242868781,17.583737370558083 L 187.1410071030259,15.925333105958998 L 186.8667631149292,15.389051496982574 L 186.4477793816477,13.463218851014972 L 185.2517711352557,12.194264533929527 L 183.6367791555822,9.044939883984625 L 182.7531042341143,7.9627484222874045 L 179.56882758252323,5.230826589278877 L 177.64912017434835,4.50981055945158 L 175.99603871069849,5.290915268473327 L 174.79241256788373,4.477039157412946 L 172.2328026406467,1.2990831481292844 L 170.8311114758253,0.19648153893649578 L 170.2902414686978,0.049119796603918076 L 168.77428199909627,0.19648153893649578 L 167.54780223965645,1.779488899745047 L 166.36702978797257,1.8013264844194055 L 163.89883447438478,0.6276724236086011 L 162.6342652309686,1.1080235708504915 L 161.36207809112966,2.489250848069787 L 159.68614308349788,2.511090955697 L 157.42363068833947,4.214874918572605 L 156.05241103842854,4.651821866631508 L 149.9885731637478,4.651821866631508 L 149.34105274826288,4.444268042221665 L 148.0688656810671,3.5158270159736276 L 147.26898755133152,3.210019684396684 L 146.41578421741724,3.210019684396684 L 138.6683933660388,5.367392510175705 L 132.3607830889523,5.367392510175705 L 131.67517326399684,4.985015697777271 L 130.90576671995223,3.3956864681094885 L 130.02209187299013,3.210019684396684 L 130.0144739765674,3.6468921285122633 L 128.5594576075673,6.15953781362623 L 126.41883141547441,7.722288448363543 L 117.43734283186495,10.493638756684959 L 115.7690256498754,10.602988918311894 L 115.1672126147896,11.002134437672794 L 114.37495238147676,15.914387975819409 L 113.8340824469924,16.921414219774306 L 110.345090219751,20.617145552299917 L 107.63312257826328,21.844094429165125 L 104.50978902727365,22.496015341952443 L 98.22503236681223,22.791868798434734 L 97.60036564059556,22.39740079920739 L 96.71669079363346,21.405869023874402 L 96.23676395975053,23.131570831872523 L 95.45973944664001,23.465813017450273 L 93.70000757649541,22.791868798434734 L 92.229755487293,22.68229176197201 L 91.99360098317266,22.994591830298305 L 92.10786928795278,23.93707190081477 L 91.68126758374274,25.75122358929366 L 90.8890074249357,24.413849072530866 L 90.11198298446834,24.600186211057007 L 89.24354385770857,25.367519325576723 L 88.16180391609669,25.75122358929366 L 88.16180391609669,26.474848268553615 L 90.12721870467067,27.132766301743686 L 89.46446256898344,28.059459223411977 L 88.26083642616868,28.22397622000426 L 87.11053556017578,28.65722634550184 L 85.50316140428185,34.901773993857205 L 85.09941339120269,35.901079593226314 L 82.15129124373198,39.76263513416052 L 81.32094160094857,40.25169073883444 L 75.34090044349432,40.46051336452365 L 74.23630681075156,40.99909046199173 L 70.6787537317723,43.687220158055425 L 69.81793250143528,44.61653367429972 L 69.45227389968932,45.76600693818182 L 68.84284304082394,46.56362108606845 L 64.91963128559291,49.76617333013564 L 64.21878566779196,50.712967730127275 L 62.40572866611183,54.1271040989086 L 58.61202100850642,58.46372834965587 L 57.32459814846516,62.20231023803353 L 57.568370550870895,63.873866602778435 L 56.85990710929036,65.61213083099574 L 55.7553134765476,67.09972350951284 L 54.81069552898407,68.04104955866933 L 54.42218330875039,68.04657104052603 L 54.06414260342717,67.20185417775065 L 52.61674413084984,68.62634937185794 L 50.30090653337538,69.2172304065898 L 49.77527231909335,69.56239890865982 L 49.22678448818624,68.04104955866933 L 48.724003963172436,68.04104955866933 L 47.825093323364854,69.9379654051736 L 45.57781672105193,71.33274412248284 L 44.19136135093868,73.14507377706468 L 43.00297100096941,75.18461835384369 L 41.66222293674946,76.843311031349 L 40.070084573701024,77.94383774418384 L 38.11228768154979,78.32824143674225 L 37.449531473219395,78.7541573708877 L 36.870572129264474,78.85372663196176 L 36.41349891200662,78.48864769842476 L 36.093547688797116,77.53457236848772 L 35.64409236982465,77.53457236848772 L 34.661384938284755,78.52736709825695 L 31.05050658248365,80.85930285975337 L 29.98400243371725,85.4761369228363 L 27.50057132728398,87.60864581353962 L 24.780985789373517,91.86492286529392 L 22.1528147906065,93.43410272244364 L 20.812066726386547,94.51558636315167 L 20.225489411503077,96.00780969578773 L 20.903481414541602,97.06757658999413 L 22.30517257936299,97.74182217381895 L 23.32596934773028,98.73252242989838 L 22.922221407294273,100.76162683404982 L 21.81762777455151,101.50294038839638 L 20.446408197283745,101.58623990882188 L 19.425611281767488,102.02497070468962 L 19.402757665142417,103.83300275262445 L 18.38196089863777,103.65522960480303 L 17.696351071819663,104.46914180461317 L 17.06406645104289,105.70828556548804 L 16.226098837330937,106.78927955683321 L 15.04532645829022,110.28374153096229 L 15.342424063012004,111.49075154680759 L 16.27942411415279,113.10419921763241 L 17.20880634151399,115.63098202086985 L 17.376399775967002,116.59412117023021 L 17.048830656334758,117.13700137473643 L 15.967090789228678,117.1982526211068 L 15.319570373743773,117.5434988066554 L 13.872171901166439,119.34523885883391 L 13.118001079186797,119.77974545676261 L 3.0471547320485115,118.90519495960325 L 0.0,119.65161832794547 L 1.180772453546524,120.20592781063169 L 2.125390475615859,121.11689343024045 L 4.799268705770373,124.77891772147268 L 5.652472039684653,125.66550954431295 L 7.5264722146093845,127.04306353349239 L 9.065285300835967,127.70128212124109 L 9.57568372040987,128.09736505243927 L 10.070846347138286,128.88403270579875 L 10.047992730513215,130.13957521133125 L 10.238439856097102,130.7981465868652 L 10.984992781654,131.4400468925014 L 11.71630991436541,131.6019287072122 L 12.310505053028464,132.09597521740943 L 12.630456348881125,133.7347258683294 L 13.331301894038916,134.92988319229335 L 14.33686294220388,135.0667277853936 L 17.08692006766796,134.510991406627 L 20.088367491960526,134.8768219044432 L 21.6500343400985,134.68412969913334 L 23.31835144944489,133.42759917862713 L 23.69924584776163,133.32150469440967 L 24.05728655308485,133.41084720846266 L 24.37723777629435,133.71797300688922 L 25.603717535734177,133.9469319684431 L 27.523425018414855,133.9692699406296 L 28.917498284950852,134.30714184511453 L 28.58992916531861,135.47728080768138 L 27.5310429148376,136.45490576513112 L 26.479774558916688,136.80689135100693 L 24.369619879871607,137.0667038243264 L 25.29138413630426,137.89930044207722 L 28.58992916531861,139.24344297219068 L 29.420278809964657,139.77727454714477 L 29.71737641468644,140.36985754035413 L 29.458368219435215,140.9317494528368 L 27.104441285133362,141.87115380819887 L 26.55595337972045,143.30012461170554 L 27.035880286246538,144.88051423616707 L 28.58992916531861,145.84854207281023 L 30.273482216522098,148.07898206170648 L 30.623904878273606,149.3471077438444 L 29.724994311109185,150.66311803925782 L 28.513750346377492,150.78073369897902 L 26.02270134165883,149.5822874084115 L 25.032376088202,150.23748178128153 L 25.05522970482707,150.83674191776663 L 25.65704281255603,152.68531982041895 L 25.63418904878199,153.63784913904965 L 25.139026494696736,154.33833892270923 L 23.93540035188198,154.3467454649508 L 23.49356285482645,154.72784811072052 L 23.23455473408103,156.5188086470589 L 24.369619879871607,158.89640600048006 L 24.125847477465868,160.80087469145656 L 26.418831385672092,162.0437472909689 L 27.46248191781342,163.0034399162978 L 27.950026648119092,164.45731455367059 L 27.652929116040468,166.24288369435817 L 25.41327041015029,170.95372117776424 L 24.552449179813266,171.47644915431738 L 24.346766263246536,171.89241745322943 L 24.392473496496677,172.53610324300826 L 25.07808332145214,173.01961778011173 L 25.238059006631374,173.34010920859873 L 25.05522970482707,177.5137534411624 L 25.801782557740808,178.8925104336813 L 26.723546961322427,179.14578748773783 L 27.706254318356514,178.45915113482624 L 28.58992916531861,177.0186073165387 L 36.51253142207861,180.64879512507468 L 40.30623900517821,183.62219509109855 L 40.00914147309959,188.0147233698517 L 40.84710908681154,188.9252066668123 L 42.995353104546666,189.83301523327827 L 43.77999544143677,191.22601992357522 L 43.86379215866327,192.9071002593264 L 43.292450711131096,194.2754578953609 L 42.271653868258,195.3167574321851 L 41.02232041954994,196.02235247939825 L 41.43368632905185,198.1396603062749 L 40.80901960469782,200.34814129769802 L 39.52159674279392,202.08276408165693 L 37.9142226614058,202.82310539949685 L 35.484116684645414,202.40488556586206 L 30.631522849202156,204.3945290306583 L 28.58992916531861,203.93662357982248 L 24.461034493520856,205.61296233348548 L 23.127904325723648,206.38486542645842 L 24.895254094153643,209.02652446366847 L 25.43612402677536,209.57537351734936 L 26.228384260088205,208.69271418824792 L 26.571189172565937,208.62199423182756 L 27.93479085341096,209.71683802828193 L 30.87529517710209,211.27600885462016 L 31.499961903318763,211.88168182596564 L 31.90370991639793,212.8242821134627 L 31.774205818772316,214.26820597611368 L 32.21604324132204,215.3273158594966 L 34.92039313353598,216.55658266227692 L 38.013255171477795,216.1656810408458 L 43.917117435485125,213.85764146596193 L 44.846499590203166,213.2036306615919 L 45.5168736204505,211.06375550851226 L 46.080597246065736,209.9318707184866 L 46.903329065069556,209.07461741007864 L 47.6955892983824,208.588049008511 L 51.847337514162064,207.9318130882457 L 52.49485792964697,208.087379347533 L 53.30997185409069,208.89356383495033 L 54.75737032480538,211.2052567889914 L 55.73245985992253,212.03452538885176 L 56.806581830605865,209.16514624096453 L 59.602346336469054,208.65028210915625 L 65.44526549987495,210.11861621402204 L 70.8158757276833,210.84019050002098 L 72.33183519542217,211.5477047106251 L 71.49386758171022,212.07415215391666 L 70.86920085735619,212.90920875873417 L 70.50354232825339,214.01336938142776 L 70.36642040684819,217.59345142822713 L 69.87125770561397,219.81513826176524 L 69.77222519554198,221.7031186213717 L 70.87681875377893,222.93659677170217 L 70.396891919896,223.63143182266504 L 69.68842840380967,225.6823982335627 L 69.10946905985475,226.11935239005834 L 67.56303800456226,226.8372782068327 L 67.09834696352482,227.3310820609331 L 67.07549327425659,228.52887629531324 L 67.99725760519505,229.01431015878916 L 70.54924963414669,229.58496082480997 L 71.76049360074103,230.54469129722565 L 72.49181080795825,231.65511397272348 L 72.91841243766248,233.09529398940504 L 73.22312793880701,235.053046150133 L 73.07077015191317,235.2718789195642 L 72.31659940257668,235.61861809995025 L 72.24042050912976,236.09612972475588 L 73.26883524656296,237.06264475453645 L 73.47451816499233,238.0065768379718 L 73.83255887031555,238.69472239539027 L 73.86303038522601,239.37726309895515 L 73.08600594475865,240.2817557575181 L 77.71006324514747,244.16872969921678 L 80.39917727001011,245.80284913256764 L 86.87438105605543,244.15734374150634 L 91.68126758374274,243.42869075760245 L 94.00472315214574,241.4993503531441 L 101.56928470358253,231.33417678810656 L 102.29298393800855,230.66395914927125 L 103.05477258376777,230.34591727890074 L 104.90591906942427,229.9540687771514 L 105.59152889437973,229.49978540558368 L 108.08257789723575,225.75049274787307 L 108.98148853890598,224.82277466263622 L 109.74327725730836,224.8511430984363 L 110.48221221379936,225.21427029836923 L 111.31256185658276,225.33910058811307 L 112.40953759290278,224.78873290121555 L 113.94073285534978,223.6881567556411 L 115.3043345361948,222.38362534716725 L 115.88329395279288,221.25516290776432 L 116.6527004968375,220.39337215665728 L 121.46720499545336,217.78328120708466 L 127.6376932784915,216.0977009087801 L 148.7849470190704,217.46595736965537 L 157.87308600917459,216.52259011100978 L 160.60790734179318,216.78320452012122 L 166.12325738556683,219.03291508182883 L 181.21429114975035,220.79590295813978 L 184.52045400254428,220.55494795925915 L 187.2019501309842,219.36733074020594 L 189.40351942367852,218.936561611481 L 191.55176351591945,219.16327816061676 L 193.3495847955346,220.27715375553817 L 195.78730859607458,223.0755569394678 L 197.0671135596931,224.02851842995733 L 200.66275619529188,225.15469309315085 L 197.82890227809548,227.2289121961221 L 195.67304029129446,229.34647303633392 L 195.19311338476837,231.40517899766564 L 195.37594268657267,233.7203376442194 L 196.11487771570683,238.26248897705227 L 195.87110538594425,239.53369022533298 L 195.36070689186454,239.97455337364227 L 195.26167438179255,240.38131556101143 L 196.22152812220156,241.56763450056314 L 196.89190215431154,241.96028366312385 L 198.32406483218074,242.20499189011753 L 199.02491045184433,242.81396260205656 L 200.99794313684106,246.92479903250933 L 202.28536599688232,247.97860863804817 L 212.85137504525483,250.36036907788366 L 213.93311491422355,250.8676192983985 L 217.04121274501085,250.71942916605622 L 221.45196923054755,251.366364617832 L 230.59343335032463,250.24638644978404 L 231.40092937648296,250.41166200116277 L 235.80406796559691,253.24489031545818 L 245.75302811153233,253.03391714207828 L 249.69909340888262,255.8456362504512 L 249.8514511976391,256.99810236133635 L 249.66100399941206,258.34484450146556 L 250.57515043392777,260.1942827934399 L 251.26837815530598,264.4719928493723 L 252.07587410882115,266.08053907193244 L 253.34806117601693,266.8206808306277 L 260.12798046320677,268.630005790852 L 261.651557829231,268.3870138898492 L 262.48952536843717,267.6723921345547 L 264.0892815552652,265.68621718510985 L 264.8282166570425,265.3004942173138 L 268.22579412534833,265.96338262502104 L 269.9550544079393,265.6776453498751 L 271.26533095911145,264.08349617384374 L 271.303420368582,262.99813139252365 L 270.8844366353005,262.0443245973438 L 270.7016073334962,261.1106631811708 L 271.39483505673707,260.0629756068811 L 272.09568060189486,259.97163326572627 L 274.7543231137097,260.99075452331454 L 276.567380188033,260.41123170778155 L 279.37076251767576,257.8654588703066 L 280.90195770561695,257.2776962276548 L 282.6388359591365,257.9168196823448 L 285.97547039948404,261.0421436531469 L 287.67425917088985,262.09572327975184 L 290.4776414260268,262.9752838136628 L 293.6543002538383,264.9290822073817 L 295.04837359674275,265.46906635630876 L 295.6578044537455,265.95195284392685 L 296.198674460873,266.94071292318404 L 296.89190210960805,269.7078722883016 L 297.8136665150523,270.8059631558135 L 298.44595106318593,270.93179961293936 L 299.2001218125224,270.65153122041374 L 300.4951626434922,270.5142619991675 L 301.7292602993548,271.06335896626115 L 303.95368321053684,273.12294738087803 L 304.78403285332024,273.4891749434173 L 306.2542850151658,272.7453000154346 L 307.0846346579492,271.8270355919376 L 307.97592747583985,271.44661449454725 L 309.65948045253754,272.327628608793 L 311.8001066464931,274.4906994039193 L 313.6436352338642,277.3188167223707 L 315.18244832009077,280.5178964640945 L 318.04677374847233,289.3254316179082 L 318.8999770823866,291.0501278517768 L 320.0045706424862,292.5112229110673 L 322.4118229281157,295.0668956739828 L 323.40214825607836,296.55201489664614 L 323.48594497330487,297.7329206299037 L 323.2954977750778,300.0523529769853 L 323.40214825607836,301.8177154539153 L 325.52753865532577,302.67471942678094 L 330.09827067889273,302.9853435847908 L 345.6920849662274,306.6019241698086 L 346.8880932126194,306.62207068130374 L 348.0307762566954,306.0177048947662 L 350.21710968390107,304.0151276914403 L 351.2836138308048,303.7360894838348 L 353.5994514301419,303.4887060876936 L 357.614077873528,301.026971783489 L 360.2422487232834,300.7912078211084 L 362.0857773851603,300.93496516440064 L 364.2568750921637,300.5439537568018 L 366.3137044943869,299.6096615092829 L 367.7991924509406,298.1381058972329 L 369.6655747294426,297.70418521296233 L 375.3713718969375,300.4404553808272 L 377.8167135939002,300.99821946397424 L 379.1498438343406,300.41170616354793 L 380.0639901943505,299.6384066371247 L 380.90195780806243,299.270479908213 L 381.9913155734539,299.88562098890543 L 382.8521368037909,301.1333562992513 L 383.2711205370724,302.31809781026095 L 383.8881693650037,303.3563893828541 L 385.3279499411583,304.2107504531741 L 386.56204759702086,304.46391935739666 L 389.07595029100776,304.5185823077336 L 392.900129461661,305.73568987939507 L 393.9742515068501,305.4076491659507 L 396.45006471686065,303.92307238839567 L 397.783194957301,303.3966593844816 L 398.41547950543463,302.8185248179361 L 398.9030242357403,301.8637257255614 L 399.57339834049344,299.7073956755921 L 400.0685608945787,298.9255703277886 L 401.2417154517025,298.385254368186 L 403.9613010622561,298.42261499352753 L 405.21825240924954,298.1381058972329 L 405.8581548538059,296.87379435636103 L 406.81800859607756,292.28442698251456 L 407.4198217038065,291.0960503760725 L 411.5487163029611,284.73359351884574 L 413.29321238026023,282.69270027801394 L 415.2433914504945,281.2456032820046 L 417.55161115154624,280.45487112086266 L 419.7912698555738,280.6496789455414 L 423.60783112980425,282.6067238198593 L 426.7844899594784,283.0824769362807 L 429.03176655992866,284.37237055040896 L 430.10588853247464,284.79666659608483 L 433.9529214669019,284.99735824298114 L 435.30890524946153,285.46757811587304 L 436.64203549176455,285.553598116152 L 441.05279190279543,285.11777665279806 L 442.424011554569,285.5191898923367 L 443.71143441461027,286.5429229438305 L 445.10550768114626,288.335619404912 L 447.05568667687476,288.06022420618683 L 447.78700380958617,288.86062859464437 L 450.20187391899526,289.81896805018187 L 452.71577661298215,289.50045993737876 L 455.3515654336661,288.18644526880234 L 454.2545896973461,284.83107030857354 L 454.2393539790064,283.06241419538856 L 456.7837281115353,283.0939413756132 L 457.3322160169482,282.1596670113504 L 457.1646225079894,279.7931477185339 L 457.2331834323704,278.26374591048807 L 458.02544366568327,276.0133560337126 L 461.63632201962173,270.41131221316755 L 462.11624885350466,269.9251858200878 L 462.6495009660721,269.77935605309904 L 464.3939970433712,270.5943353259936 L 466.1537289135158,269.9537803158164 L 467.3192655723542,269.7078722883016 L 468.4619486145675,269.81080917362124 L 469.8864934705198,270.5257008820772 L 470.8006398305297,270.3541187448427 L 476.2779004648328,263.118082636036 L 477.24537210166454,260.8365899287164 L 478.2890225611627,257.33475797250867 L 479.54597383365035,254.7190703228116 L 479.94210402294993,254.26850657816976 L 481.1000227853656,254.79036540165544 L 486.4096899125725,254.79036540165544 L 487.76567376963794,255.23811857029796 L 489.01500714570284,256.045304287225 L 490.27957638911903,256.3933137403801 L 491.4832025319338,255.6174529567361 L 491.74221065454185,255.09551816619933 L 494.38561737164855,253.59843042492867 L 496.5643329769373,251.55447419639677 L 497.5470404084772,250.2976783439517 L 498.31644695065916,248.78191377781332 L 498.8192274738103,246.6969740446657 L 498.5526014547795,245.555138874799 L 498.06505672447383,244.5387852601707 L 497.9279347304255,242.81396260205656 L 496.67098338343203,241.24898249283433 L 497.2880322113633,239.9119772426784 L 500.0,237.70518390648067 z" /></g></g></svg>