<svg xmlns="http://www.w3.org/2000/svg" xmlns:xlink="http://www.w3.org/1999/xlink" width="178.50132272392509" height="500.0" viewBox="0.0 0.0 178.50132272392509 500.0" preserveAspectRatio="xMinYMin meet"><g transform="matrix(1,0,0,-1,0,500.0)"><g><g><path fill-rule="evenodd" fill="#D2EBD9" stroke="#A6A6A6" stroke-width="0.25" opacity="1" d="M 45.4509818636977,301.8301830183018 L 39.32777417349805,287.9287928792879 L 38.577993640004216,286.9286928692869 L 28.90225437444092,270.22702270227023 L 26.260170589748355,266.8266826682668 L 25.34972279907727,264.6264626462646 L 29.580627238078197,261.42614261426144 L 33.49019716272462,259.0759075907591 L 30.473223111285144,256.57565756575656 L 26.920691535921495,253.27532753275327 L 25.260463211756576,252.17521752175216 L 12.960492078964858,240.32403240324032 L 10.60403897369852,235.8235823582358 L 10.586187056234381,233.67336733673366 L 11.478782929441328,229.32293229322931 L 11.157448415086828,227.1227122712271 L 7.354989995225236,223.022302230223 L 1.7494879114856146,218.8218821882188 L 0.0,217.2217221722172 L 8.836699144748767,189.6189618961896 L 25.260463211756576,146.1146114611461 L 27.634768234487055,136.06360636063604 L 27.86684316152086,130.81308130813082 L 28.527364107694,128.66286628662866 L 31.33011514956381,124.76247624762476 L 31.31226323209967,123.012301230123 L 30.276852019179614,119.26192619261926 L 30.080480927074085,117.01170117011701 L 30.33040777157203,115.56155615561555 L 31.080188305065867,114.4114411441144 L 37.02487682062413,109.16091609160915 L 38.220955290721434,107.36073607360736 L 52.788119941458795,65.55655565556555 L 52.96663911610019,64.8064806480648 L 52.984491033564325,63.306330633063304 L 53.6628638972016,56.455645564556455 L 62.71378605152004,31.55315531553155 L 65.49868517592571,18.651865186518652 L 65.30231408382018,10.00100010001 L 66.06994653477815,7.000700070007 L 69.49751468789283,0.05000500050005 L 71.26485451684259,0.0 L 72.12174655512125,0.05000500050005 L 72.47878490440402,0.5000500050005 L 72.65730407904542,1.3001300130013 L 73.08575009818475,2.2002200220022 L 76.53117016876357,7.000700070007 L 76.99532002283118,8.65086508650865 L 77.4594698768988,12.051205120512051 L 78.22710232785677,14.8014801480148 L 79.69095955991615,17.2017201720172 L 80.72637077283622,20.3020302030203 L 81.29763213168866,27.35273527352735 L 82.1009684175749,30.453045304530452 L 87.15306105992623,44.15441544154415 L 87.61721091399383,46.704670467046704 L 87.72432241877867,54.35543554355435 L 88.50980678720079,58.605860586058604 L 89.88440443193949,61.8061806180618 L 89.95581210179604,63.306330633063304 L 91.2232982417499,68.25682568256825 L 95.86479678242603,75.25752575257525 L 97.63213661137577,79.50795079507951 L 97.63213661137577,83.45834583458345 L 95.41849884582254,91.15911591159116 L 95.45420268075083,94.75947594759475 L 96.23968704917294,96.95969596959695 L 97.25724634462885,103.51035103510351 L 99.23880918314828,107.76077607760776 L 99.47088411018208,109.5109510951095 L 99.16740151329172,111.3111311131113 L 97.61428469391163,113.86138613861385 L 97.06087525252333,115.16151615161516 L 97.06087525252333,118.16181618161815 L 98.95317850372206,123.3123312331233 L 99.47088411018208,126.3126312631263 L 104.18379032071476,141.8141814181418 L 110.55692485541235,154.8154815481548 L 111.39596497622688,157.8157815781578 L 111.87796674775863,161.016101610161 L 112.25285701450555,162.46624662466246 L 112.96693371307111,163.96639663966397 L 113.82382575134977,164.96649664966495 L 115.66257325015609,166.66666666666666 L 116.28739036140095,167.86678667866786 L 116.66228062814787,170.66706670667065 L 116.60872487575544,173.46734673467347 L 116.89435555518168,176.36763676367636 L 118.2868051173845,179.2179217921792 L 122.55341339131371,183.36833683368337 L 123.76734377887516,185.66856685668566 L 123.74949186141102,189.66896689668965 L 124.44571664251244,193.36933693369335 L 129.55136503725618,203.5203520352035 L 130.0690706437162,207.12071207120712 L 129.31929011022237,210.62106210621062 L 126.53439098581669,216.32163216321632 L 125.49897977289663,219.6219621962196 L 124.90986649658005,223.1223122312231 L 126.26661222385461,226.22262226222622 L 127.78402520830642,228.87288728872886 L 127.98039630041194,231.6231623162316 L 127.15920809706155,232.5232523252325 L 129.1943266879734,236.2236223622362 L 131.12233377410038,241.3241324132413 L 131.56863171070387,244.22442244224422 L 131.74715088534526,252.9252925292529 L 124.28504938533518,252.3252325232523 L 118.00117443795828,248.72487248724872 L 106.1296493243059,238.82388238823881 L 99.77436670707245,236.4236423642364 L 86.18905751686272,236.5236523652365 L 79.69095955991615,235.62356235623562 L 76.92391235297463,234.67346734673467 L 73.92479021899928,234.22342234223422 L 71.05063150727291,234.67346734673467 L 68.64062264961416,236.47364736473645 L 67.35528459219616,240.77407740774075 L 68.94410524650452,245.02450245024502 L 73.85338254914272,253.27532753275327 L 74.47819966038759,257.4257425742574 L 74.51390349531587,261.02610261026103 L 74.99590526684761,264.47644764476445 L 76.72754126086909,267.8267826782678 L 68.92625332904038,273.47734773477345 L 67.99795362090516,274.3274327432743 L 68.12291704315413,276.17761776177616 L 67.90869403358447,277.1277127712771 L 67.81943444626377,280.0780078007801 L 68.17647279554654,281.17811781178114 L 68.2478804654031,281.97819781978194 L 67.6944710240148,284.028402840284 L 68.01580553836929,285.3285328532853 L 67.96224978597688,286.2286228622862 L 67.67661910655066,286.57865786578657 L 67.01609816037752,286.77867786778677 L 66.01639078238574,287.5787578757876 L 63.07082440080282,291.3291329132913 L 59.48258899051089,288.4788478847885 L 58.58999311730395,287.978797879788 L 57.76880491395356,289.1789178917892 L 57.03687629792386,291.37913791379134 L 56.412059186678995,292.5292529252925 L 54.216273338589914,293.9293929392939 L 53.341529382847106,294.17941794179416 L 53.00234295102847,293.7293729372937 L 52.73456418906638,293.6293629362936 L 50.628037928297985,293.2293229322932 L 50.57448217590557,293.07930793079305 L 50.84226093786766,292.8292829282928 L 51.44922613164838,292.5292529252925 L 52.12759899528566,291.27912791279124 L 51.96693173810841,291.07910791079104 L 50.91366860772421,290.67906790679064 L 49.8068497249476,289.82898289828984 L 49.41410754073654,289.6789678967897 L 48.91425385174065,289.72897289728974 L 46.307873901976365,290.6290629062906 L 46.0936508924067,291.17911791179114 L 46.32572581944051,291.77917791779174 L 47.93239839121301,292.77927792779275 L 48.128769483318536,293.4293429342934 L 47.62891579432265,294.07940794079406 L 46.37928157183293,295.1295129512951 L 46.34357773690465,296.029602960296 L 46.557800746474314,296.4296429642964 L 47.004098683077785,296.67966796679667 L 48.78929042949168,296.27962796279627 L 49.52121904552138,296.4296429642964 L 49.699738220162764,296.8796879687969 L 49.699738220162764,297.92979297929793 L 49.87825739480415,298.5798579857986 L 49.77114589001932,299.82998299829984 L 50.23529574408693,300.48004800480044 L 50.39596300126418,301.030103010301 L 50.11033232183796,301.8301830183018 L 49.87825739480415,301.9301930193019 L 49.32484795341585,301.8301830183018 L 47.486100454609534,302.38023802380235 L 45.4509818636977,301.8301830183018 z" /><path fill-rule="evenodd" fill="#D2EBD9" stroke="#A6A6A6" stroke-width="0.25" opacity="1" d="M 104.71934784463893,387.78877887788775 L 106.18320507669831,386.98869886988695 L 109.28943871545849,384.43844384438444 L 111.27100155397791,383.73837383738373 L 118.10828594274312,384.03840384038403 L 121.3573349212164,383.6883688368837 L 124.58853198222555,381.6381638163816 L 125.57038744275319,378.6378637863786 L 125.51683169036077,374.63746374637464 L 126.1237968841415,371.38713871387137 L 128.94439984347545,370.5370537053705 L 131.53292787577558,370.4370437043704 L 142.88674738296794,367.48674867486744 L 141.65496507794236,369.28692869286925 L 141.1729633064106,370.68706870687066 L 142.2262264367948,370.88708870887086 L 142.69037629086242,371.28712871287127 L 142.5832647860776,371.78717871787177 L 141.9048919224403,372.4872487248725 L 141.9048919224403,373.2873287328733 L 142.7260801257907,373.2873287328733 L 142.5475609511493,373.8873887388739 L 142.15481876693826,373.8873887388739 L 141.9048919224403,374.13741374137413 L 143.40445298942797,375.0875087508751 L 142.7260801257907,375.987598759876 L 144.1542335229218,376.78767876787674 L 144.1542335229218,377.7377737773777 L 143.67223175139006,377.8377837783778 L 142.7260801257907,378.5378537853785 L 143.33304531957143,380.28802880288026 L 143.9757143482804,380.98809880988097 L 144.95756980880805,381.28812881288127 L 144.95756980880805,382.0882088208821 L 143.94001051335215,383.13831383138313 L 142.94030313536035,384.83848384838484 L 141.9048919224403,384.7884788478848 L 141.9048919224403,385.6885688568857 L 143.40445298942797,385.6885688568857 L 143.10097039253762,386.48864886488644 L 142.7260801257907,389.18891889188916 L 143.40445298942797,388.3388338833883 L 144.1542335229218,390.1390139013901 L 144.35060461502732,389.38893889388936 L 144.95756980880805,390.1390139013901 L 144.35060461502732,391.7391739173917 L 144.0114181832087,395.0895089508951 L 143.40445298942797,396.2396239623962 L 143.40445298942797,397.2397239723972 L 144.1542335229218,397.2397239723972 L 144.1542335229218,398.039803980398 L 143.22593381478657,398.58985898589856 L 142.79748779564724,399.48994899489946 L 142.85104354803966,400.59005900590057 L 143.08311847507346,400.990099009901 L 143.85075092603145,401.3401340134013 L 144.8326063865591,402.1902190219022 L 146.47498279325987,404.3904390439044 L 148.47439754924343,405.8405840584058 L 151.06292558154357,405.49054905490544 L 152.8124134930292,406.4406440644064 L 156.41850082078525,409.6409640964096 L 162.3988931712718,413.44134413441344 L 164.2911964224705,413.94139413941394 L 167.20105896912517,418.29182918291826 L 172.64589379568753,424.79247924792475 L 173.46708199903793,428.09280928092807 L 173.05648789736273,429.6929692969297 L 174.3239740373166,433.59335933593354 L 176.19842537105117,436.79367936793676 L 176.96605782200916,436.99369936993696 L 178.50132272392509,439.94399439943993 L 175.94849852655324,444.19441944194415 L 175.3415333327725,445.79457945794576 L 173.89552801817726,458.1958195819582 L 174.2347144499959,459.8959895989599 L 170.16447726817222,461.5961596159616 L 170.16447726817222,463.5463546354635 L 171.36055573826954,465.49654965496546 L 172.55663420836683,467.996799679968 L 172.19959585908407,471.7471747174717 L 169.75388316649702,473.29732973297325 L 169.30758522989356,479.3979397939794 L 166.2549073435258,481.49814981498145 L 165.48727489256783,482.5482548254825 L 169.1469179727163,487.6987698769877 L 164.9695692861078,490.54905490549055 L 167.3617262263024,491.69916991699165 L 168.20076634711694,492.59925992599256 L 170.00381001099498,493.89938993899386 L 170.25373685549292,495.6495649564956 L 170.59292328731155,496.3496349634963 L 170.75359054448882,498.4998499849985 L 171.36055573826954,499.2999299929993 L 171.21774039855643,500.0 L 169.53966015692737,497.999799979998 L 167.3617262263024,493.6493649364936 L 165.57653447988852,491.6491649164916 L 164.2911964224705,490.79907990799074 L 162.79163535548284,490.14901490149015 L 161.23851853610276,489.6989698969897 L 159.7925132215075,489.54895489548954 L 157.8645061353805,489.04890489048904 L 153.72286128370027,484.69846984698466 L 152.8124134930292,483.048304830483 L 150.5273680576194,482.79827982798275 L 149.3312895875221,482.1482148214821 L 149.0992146604883,480.3980398039804 L 147.6353574284289,478.84788478847884 L 147.56394975857233,478.2978297829783 L 145.51097925019636,479.84798479847984 L 143.54726832914108,482.99829982998295 L 142.92245121789622,483.7483748374837 L 141.6371131604782,483.59835983598356 L 140.90518454444853,482.39823982398235 L 140.26251551573952,480.5980598059806 L 139.28066005521188,478.84788478847884 L 138.44161993439735,475.9475947594759 L 138.17384117243526,469.54695469546954 L 137.5847278961187,466.2466246624662 L 136.65642818798347,464.046404640464 L 134.63916151453577,460.3960396039604 L 134.08575207314746,458.4458445844584 L 130.74744350735347,458.1458145814581 L 125.53468360782492,455.89558955895586 L 119.39362400016113,454.29542954295425 L 117.96547060303001,454.49544954495445 L 116.94791130757409,455.8455845584558 L 116.19813077408025,457.39573957395737 L 115.10916380876778,458.6958695869587 L 113.89523342120633,459.6959695969597 L 112.69915495110902,460.24602460246024 L 111.37811305876275,460.24602460246024 L 107.34357971186735,458.8958895889589 L 104.38016141282029,459.3959395939594 L 103.66608471425472,459.14591459145913 L 102.47000624415742,458.1958195819582 L 101.98800447262568,457.995799579958 L 93.27626875012588,458.64586458645863 L 92.66930355634516,458.4458445844584 L 93.41908408983899,457.5957595759576 L 91.84811535299477,455.89558955895586 L 92.29441328959824,453.6453645364536 L 91.83026343553063,451.14511451145114 L 90.36640620347123,446.9446944694469 L 89.6166256699774,439.043904390439 L 88.95610472380426,437.09370937093706 L 90.29499853361467,436.4436443644364 L 90.49136962572021,434.8434843484348 L 90.04507168911672,433.1933193319332 L 91.34826166399887,432.6932693269327 L 92.22300561974168,431.04310431043103 L 92.84782273098654,430.54305430543053 L 92.97278615323552,429.8429842984298 L 92.70500739127343,428.2428242824282 L 92.91923040084309,427.7427742774277 L 94.79368173457769,426.29262926292625 L 96.79309649056124,425.69256925692565 L 97.34650593194955,425.29252925292525 L 97.47146935419852,424.6424642464246 L 97.16798675730816,422.74227422742274 L 97.5071731891268,421.64216421642163 L 98.63184398936755,419.19191919191917 L 98.54258440204686,417.2417241724172 L 98.2926575575489,416.39163916391635 L 96.95376374773849,414.1914191419142 L 97.04302333505919,411.74117411741173 L 96.23968704917294,410.8910891089109 L 96.2218351317088,409.3409340934093 L 96.06116787453155,408.99089908990896 L 95.15072008386046,408.09080908090806 L 94.79368173457769,408.19081908190816 L 93.8832339439066,409.29092909290927 L 93.50834367715969,409.19091909190917 L 93.22271299773345,408.59085908590856 L 93.13345341041277,407.5407540754075 L 93.6511590168728,405.2405240524052 L 93.59760326448037,404.3904390439044 L 91.74100384820993,403.2903290329033 L 90.70559263528988,401.0901090109011 L 90.36640620347123,400.5400540054005 L 90.00936785418845,400.29002900290027 L 89.56306991758498,400.29002900290027 L 88.152768437918,400.8900890089009 L 87.40298790442417,401.040104010401 L 86.5460958661455,400.7400740074007 L 85.9034268374365,399.88998899889987 L 85.70705574533098,398.9398939893989 L 86.224761351791,397.98979897989796 L 87.08165339006968,397.039703970397 L 87.22446872978279,396.5396539653965 L 85.8141672501158,396.9396939693969 L 85.06438671662197,396.9396939693969 L 84.5288291926978,396.58965896589655 L 84.5288291926978,396.28962896289624 L 85.33216547858406,394.63946394639464 L 85.61779615801028,393.33933393339333 L 87.6886185838504,391.7891789178918 L 87.6886185838504,390.98909890989097 L 87.40298790442417,389.78897889788976 L 87.49224749174486,389.3389338933893 L 88.3848433649518,388.68886888688866 L 88.92040088887597,387.9387938793879 L 90.29499853361467,387.038703870387 L 94.40093955036663,386.038603860386 L 95.1685720013246,386.28862886288624 L 96.2218351317088,387.1387138713871 L 96.82880032548952,387.98879887988795 L 97.61428469391163,388.5388538853885 L 98.04273071305097,389.6389638963896 L 99.36377260539724,390.38903890389037 L 99.91718204678556,391.3391339133913 L 100.54199915803042,391.8391839183918 L 101.39889119630908,391.2891289128913 L 104.46942100014098,388.3388338833883 L 104.71934784463893,387.78877887788775 z" /><path fill-rule="evenodd" fill="#D2EBD9" stroke="#A6A6A6" stroke-width="0.25" opacity="1" d="M 104.71934784463893,387.78877887788775 L 104.46942100014098,388.3388338833883 L 101.39889119630908,391.2891289128913 L 100.54199915803042,391.8391839183918 L 99.91718204678556,391.3391339133913 L 99.36377260539724,390.38903890389037 L 98.04273071305097,389.6389638963896 L 97.61428469391163,388.5388538853885 L 96.82880032548952,387.98879887988795 L 96.2218351317088,387.1387138713871 L 95.1685720013246,386.28862886288624 L 94.40093955036663,386.038603860386 L 90.29499853361467,387.038703870387 L 88.92040088887597,387.9387938793879 L 88.3848433649518,388.68886888688866 L 87.49224749174486,389.3389338933893 L 87.40298790442417,389.78897889788976 L 87.6886185838504,390.98909890989097 L 87.6886185838504,391.7891789178918 L 85.61779615801028,393.33933393339333 L 85.33216547858406,394.63946394639464 L 84.5288291926978,396.28962896289624 L 84.5288291926978,396.58965896589655 L 85.06438671662197,396.9396939693969 L 85.8141672501158,396.9396939693969 L 87.22446872978279,396.5396539653965 L 87.08165339006968,397.039703970397 L 86.224761351791,397.98979897989796 L 85.70705574533098,398.9398939893989 L 85.9034268374365,399.88998899889987 L 86.5460958661455,400.7400740074007 L 87.40298790442417,401.040104010401 L 88.152768437918,400.8900890089009 L 89.56306991758498,400.29002900290027 L 90.00936785418845,400.29002900290027 L 90.36640620347123,400.5400540054005 L 90.70559263528988,401.0901090109011 L 91.74100384820993,403.2903290329033 L 93.59760326448037,404.3904390439044 L 93.6511590168728,405.2405240524052 L 93.13345341041277,407.5407540754075 L 93.22271299773345,408.59085908590856 L 93.50834367715969,409.19091909190917 L 93.8832339439066,409.29092909290927 L 94.79368173457769,408.19081908190816 L 95.15072008386046,408.09080908090806 L 96.06116787453155,408.99089908990896 L 96.2218351317088,409.3409340934093 L 96.23968704917294,410.8910891089109 L 97.04302333505919,411.74117411741173 L 96.95376374773849,414.1914191419142 L 98.2926575575489,416.39163916391635 L 98.54258440204686,417.2417241724172 L 98.63184398936755,419.19191919191917 L 97.5071731891268,421.64216421642163 L 97.16798675730816,422.74227422742274 L 97.47146935419852,424.6424642464246 L 97.34650593194955,425.29252925292525 L 96.79309649056124,425.69256925692565 L 94.79368173457769,426.29262926292625 L 92.91923040084309,427.7427742774277 L 92.70500739127343,428.2428242824282 L 92.97278615323552,429.8429842984298 L 92.84782273098654,430.54305430543053 L 92.22300561974168,431.04310431043103 L 91.34826166399887,432.6932693269327 L 90.04507168911672,433.1933193319332 L 89.13462389844564,429.7929792979298 L 88.6526221269139,428.69286928692867 L 84.83231178958816,424.59245924592454 L 83.86830824652466,424.39243924392434 L 82.1902280048956,424.7424742474247 L 79.99444215680651,426.19261926192615 L 78.60199259460369,426.49264926492646 L 76.99532002283118,425.59255925592555 L 76.12057606708836,422.992299229923 L 75.51361087330764,411.3911391139114 L 73.01434242832819,400.8400840084008 L 73.21071352043373,398.9398939893989 L 72.65730407904542,397.18971897189715 L 72.01463505033642,391.4391439143914 L 71.38981793909156,390.18901890189017 L 67.42669226205271,370.4370437043704 L 71.961079297944,370.3370337033703 L 74.49605157785173,370.6370637063706 L 79.92303448694996,370.18701870187016 L 80.72637077283622,369.7369736973697 L 83.02926812571013,367.78677867786774 L 83.40415839245705,367.2367236723672 L 84.13608700848674,367.036703670367 L 85.38572123097647,367.18671867186714 L 86.68891120585862,373.8873887388739 L 88.83114130155528,377.58775877587755 L 91.70530001328164,379.68796879687966 L 94.95434899175494,381.2381238123812 L 98.34621330994133,383.3883388338834 L 101.07755668195459,386.58865886588654 L 102.5949696664064,387.7387738773877 L 104.54082866999754,387.88878887888785 L 104.71934784463893,387.78877887788775 z" /><path fill-rule="evenodd" fill="#D2EBD9" stroke="#A6A6A6" stroke-width="0.25" opacity="1" d="M 85.38572123097647,367.18671867186714 L 84.13608700848674,367.036703670367 L 83.40415839245705,367.2367236723672 L 83.02926812571013,367.78677867786774 L 80.72637077283622,369.7369736973697 L 79.92303448694996,370.18701870187016 L 74.49605157785173,370.6370637063706 L 71.961079297944,370.3370337033703 L 67.42669226205271,370.4370437043704 L 64.15979136611529,354.0854085408541 L 60.53585212089509,342.7342734273427 L 61.19637306706823,342.78427842784276 L 63.981272191473906,342.3342334233423 L 65.71290818549538,341.1341134113411 L 66.10565036970644,340.6340634063406 L 66.85543090320027,340.2340234023402 L 67.1053577476982,339.88398839883985 L 67.17676541755478,338.4338433843384 L 66.98039432544924,337.1837183718372 L 67.24817308741133,335.8835883588359 L 66.21276187449126,333.38333833383336 L 65.17735066157121,331.8331833183318 L 64.8024603948243,328.78287828782874 L 64.98097956946569,328.13281328132814 L 66.26631762688369,327.0827082708271 L 66.78402323334372,326.43264326432643 L 67.48024801444514,322.7322732273227 L 68.80128990679141,322.032203220322 L 69.0690686687535,321.78217821782175 L 69.22973592593074,321.28212821282125 L 68.51565922736519,320.58205820582054 L 66.12350228717057,319.68196819681964 L 64.60608930271876,320.8320832083208 L 63.874160686689066,320.68206820682065 L 62.73163796898418,319.9319931993199 L 60.96429814003442,317.981798179818 L 60.10740610175576,317.73177317731773 L 57.87591641873839,317.7817781778178 L 54.37694059576716,318.2818281828183 L 53.84138307184299,318.5818581858186 L 52.85952761131535,319.7319731973197 L 50.46737067112074,311.78117811781175 L 48.4322520802089,308.5808580858086 L 45.4509818636977,301.8301830183018 L 47.486100454609534,302.38023802380235 L 49.32484795341585,301.8301830183018 L 49.87825739480415,301.9301930193019 L 50.11033232183796,301.8301830183018 L 50.39596300126418,301.030103010301 L 50.23529574408693,300.48004800480044 L 49.77114589001932,299.82998299829984 L 49.87825739480415,298.5798579857986 L 49.699738220162764,297.92979297929793 L 49.699738220162764,296.8796879687969 L 49.52121904552138,296.4296429642964 L 48.78929042949168,296.27962796279627 L 47.004098683077785,296.67966796679667 L 46.557800746474314,296.4296429642964 L 46.34357773690465,296.029602960296 L 46.37928157183293,295.1295129512951 L 47.62891579432265,294.07940794079406 L 48.128769483318536,293.4293429342934 L 47.93239839121301,292.77927792779275 L 46.32572581944051,291.77917791779174 L 46.0936508924067,291.17911791179114 L 46.307873901976365,290.6290629062906 L 48.91425385174065,289.72897289728974 L 49.41410754073654,289.6789678967897 L 49.8068497249476,289.82898289828984 L 50.91366860772421,290.67906790679064 L 51.96693173810841,291.07910791079104 L 52.12759899528566,291.27912791279124 L 51.44922613164838,292.5292529252925 L 50.84226093786766,292.8292829282928 L 50.57448217590557,293.07930793079305 L 50.628037928297985,293.2293229322932 L 52.73456418906638,293.6293629362936 L 53.00234295102847,293.7293729372937 L 53.341529382847106,294.17941794179416 L 54.216273338589914,293.9293929392939 L 56.412059186678995,292.5292529252925 L 57.03687629792386,291.37913791379134 L 57.76880491395356,289.1789178917892 L 58.58999311730395,287.978797879788 L 59.48258899051089,288.4788478847885 L 63.07082440080282,291.3291329132913 L 69.7117376974625,293.17931793179315 L 70.37225864363563,293.57935793579355 L 71.06848342473705,294.2294229422942 L 71.87181971062331,296.1296129612961 L 73.26426927282614,297.5797579757976 L 74.35323623813862,297.5297529752975 L 75.65642621302077,298.42984298429843 L 77.38806220704224,299.2799279927993 L 78.69125218192437,299.3799379937994 L 81.67252239843558,299.2799279927993 L 82.54726635417838,299.52995299529954 L 85.10009055155025,299.6799679967997 L 85.56424040561787,300.18001800180014 L 86.06409409461375,306.2806280628063 L 85.08223863408611,308.33083308330833 L 83.60052948456259,308.5808580858086 L 82.42230293192941,309.53095309530954 L 82.24378375728801,310.18101810181014 L 82.67222977642736,310.9310931093109 L 81.9581530778618,311.5311531153115 L 80.36933242355343,313.78137813781376 L 81.58326281111488,315.28152815281527 L 81.69037431589972,317.23172317231723 L 81.47615130633005,319.4319431943194 L 82.61867402403495,320.68206820682065 L 80.10155366159135,329.5329532953295 L 80.40503625848172,333.9333933393339 L 79.33392121063338,337.2837283728373 L 77.76295247378916,340.28402840284025 L 77.2809507022574,341.98419841984196 L 77.62013713407605,343.9343934393439 L 81.85104157307697,347.8347834783478 L 82.65437785896322,349.4349434943494 L 83.02926812571013,351.035103510351 L 82.85074895106874,352.4352435243524 L 82.08311650011078,353.38533853385337 L 80.72637077283622,353.7853785378538 L 81.06555720465485,355.4855485548555 L 81.45829938886591,359.5359535953595 L 81.90459732546938,361.18611861186116 L 84.17179084341502,362.3362336233623 L 84.95727521183714,364.986498649865 L 85.38572123097647,367.18671867186714 z" /><path fill-rule="evenodd" fill="#D2EBD9" stroke="#A6A6A6" stroke-width="0.25" opacity="1" d="M 76.72754126086909,267.8267826782678 L 78.95903094388646,270.6770677067707 L 88.27773186016698,276.57765776577656 L 94.25812421065352,281.8281828182818 L 95.50775843314324,283.77837783778375 L 98.04273071305097,284.3284328432843 L 98.63184398936755,283.8283828382838 L 99.97073779917797,283.67836783678365 L 101.36318736138081,282.1282128212821 L 104.16593840325062,282.5282528252825 L 105.70120330516657,281.47814781478144 L 106.2189089116266,282.028202820282 L 106.64735493076593,281.77817781778174 L 107.02224519751285,281.17811781178114 L 107.73632189607841,280.7780778077808 L 108.21832366761015,280.92809280928094 L 108.41469475971569,282.028202820282 L 108.95025228363986,282.57825782578254 L 109.30729063292263,284.4284428442844 L 109.9321077441675,284.97849784978496 L 110.43196143316338,285.77857785778576 L 110.09277500134475,286.8286828682868 L 109.37869830277918,287.5787578757876 L 109.3429944678509,288.4788478847885 L 109.9321077441675,290.2790279027903 L 110.44981335062752,291.029102910291 L 110.12847883627302,291.4291429142914 L 109.68218089966955,293.9293929392939 L 110.66403636019719,295.7295729572957 L 110.14633075373716,296.029602960296 L 109.4322540551716,296.1296129612961 L 109.21803104560193,296.37963796379637 L 109.82499623938266,297.3297329732973 L 109.03951187096054,298.02980298029803 L 108.4682505121081,298.12981298129813 L 107.23646820708251,297.8297829782978 L 106.59379917837352,298.82988298829883 L 106.39742808626798,299.6799679967997 L 106.48668767358868,300.98009800980094 L 105.98683398459279,302.5302530253025 L 104.91571893674445,302.78027802780275 L 104.16593840325062,302.28022802280225 L 104.11238265085821,301.48014801480144 L 104.61223633985409,300.48004800480044 L 105.36201687334793,297.3797379737974 L 105.30846112095551,294.9294929492949 L 105.04068235899342,294.77947794779476 L 103.2376386951154,295.7295729572957 L 102.5057100790857,295.77957795779577 L 101.80948529798428,295.57955795579556 L 101.66666995827117,294.9294929492949 L 102.04156022501809,294.17941794179416 L 102.0951159774105,293.47934793479345 L 100.75622216760009,293.3293329332933 L 96.73954073816883,294.17941794179416 L 95.04360857907562,295.5295529552955 L 94.06175311854798,295.4295429542954 L 92.45508054677549,296.37963796379637 L 91.41966933385542,298.52985298529853 L 90.13433127643742,299.2799279927993 L 88.83114130155528,299.32993299329934 L 87.92069351088419,299.1799179917992 L 86.79602271064344,298.52985298529853 L 84.81445987212403,296.5296529652965 L 83.22563921781567,296.1296129612961 L 81.99385691279008,296.029602960296 L 79.67310764245201,296.37963796379637 L 79.36962504556165,296.6296629662966 L 79.51244038527477,297.1297129712971 L 81.67252239843558,299.2799279927993 L 78.69125218192437,299.3799379937994 L 77.38806220704224,299.2799279927993 L 75.65642621302077,298.42984298429843 L 74.35323623813862,297.5297529752975 L 73.26426927282614,297.5797579757976 L 71.87181971062331,296.1296129612961 L 71.06848342473705,294.2294229422942 L 70.37225864363563,293.57935793579355 L 69.7117376974625,293.17931793179315 L 63.07082440080282,291.3291329132913 L 66.01639078238574,287.5787578757876 L 67.01609816037752,286.77867786778677 L 67.67661910655066,286.57865786578657 L 67.96224978597688,286.2286228622862 L 68.01580553836929,285.3285328532853 L 67.6944710240148,284.028402840284 L 68.2478804654031,281.97819781978194 L 68.17647279554654,281.17811781178114 L 67.81943444626377,280.0780078007801 L 67.90869403358447,277.1277127712771 L 68.12291704315413,276.17761776177616 L 67.99795362090516,274.3274327432743 L 68.92625332904038,273.47734773477345 L 76.72754126086909,267.8267826782678 z" /><path fill-rule="evenodd" fill="#D2EBD9" stroke="#A6A6A6" stroke-width="0.25" opacity="1" d="M 52.85952761131535,319.7319731973197 L 53.84138307184299,318.5818581858186 L 54.37694059576716,318.2818281828183 L 57.87591641873839,317.7817781778178 L 60.10740610175576,317.73177317731773 L 60.96429814003442,317.981798179818 L 62.73163796898418,319.9319931993199 L 63.874160686689066,320.68206820682065 L 64.60608930271876,320.8320832083208 L 66.12350228717057,319.68196819681964 L 68.51565922736519,320.58205820582054 L 69.22973592593074,321.28212821282125 L 69.0690686687535,321.78217821782175 L 68.80128990679141,322.032203220322 L 67.48024801444514,322.7322732273227 L 66.78402323334372,326.43264326432643 L 66.26631762688369,327.0827082708271 L 64.98097956946569,328.13281328132814 L 64.8024603948243,328.78287828782874 L 65.17735066157121,331.8331833183318 L 66.21276187449126,333.38333833383336 L 67.24817308741133,335.8835883588359 L 66.98039432544924,337.1837183718372 L 67.17676541755478,338.4338433843384 L 67.1053577476982,339.88398839883985 L 66.85543090320027,340.2340234023402 L 66.10565036970644,340.6340634063406 L 65.71290818549538,341.1341134113411 L 63.981272191473906,342.3342334233423 L 61.19637306706823,342.78427842784276 L 60.53585212089509,342.7342734273427 L 55.37664797375894,326.5826582658266 L 53.87708690677127,325.7825782578258 L 53.87708690677127,323.1323132313231 L 52.85952761131535,319.7319731973197 z" /></g></g></g></svg>