<svg xmlns="http://www.w3.org/2000/svg" xmlns:xlink="http://www.w3.org/1999/xlink" width="491.5789434593171" height="499.9624298810959" viewBox="0.0 0.0 491.5789434593171 499.9624298810959" preserveAspectRatio="xMinYMin meet"><g transform="matrix(1,0,0,-1,0,499.9624298810959)"><g><path fill-rule="evenodd" fill="#D2EBD9" stroke="#A6A6A6" stroke-width="0.25" opacity="1" d="M 301.01514679938555,485.2561314511113 L 300.3323490470648,483.4423998272978 L 300.3401375990361,482.8238699315116 L 301.0359162893146,481.28928536502644 L 302.1315081231296,480.74099035328254 L 302.81170965731144,479.05907740583643 L 303.27902370877564,478.95824646856636 L 304.7562553156167,479.29002072894946 L 305.67790242657065,478.46713284542784 L 306.7734942622483,477.88826898112893 L 307.10580645129085,477.32248105481267 L 307.0227283909917,476.63972267648205 L 306.4723363313824,475.94405962061137 L 306.19194789230824,474.2670824220404 L 306.93965033069253,472.12946340907365 L 307.17849974147975,470.72006636532024 L 306.9084960706532,469.2072119587101 L 306.2153135985136,468.08424241188914 L 304.43173167668283,465.89099067170173 L 303.89172433689237,464.34074558177963 L 304.28634509816766,463.2480909116566 L 305.2884740512818,462.5770581928082 L 306.5969533715397,462.27885155566037 L 308.154666820541,462.36636677524075 L 308.8815997708589,462.2431976310909 L 310.49123702012,460.76541360327974 L 311.7322154343128,460.5580416251905 L 312.5733807031065,460.0979669713415 L 313.31589080765843,459.08725332608446 L 314.5360996834934,456.83334861602634 L 315.0709146372974,455.4834538549185 L 314.99043279513717,454.3119091852568 L 314.0142656657845,452.04729823349044 L 313.47685449384153,449.909833482001 L 313.4301231279969,448.59096266375855 L 312.43318650871515,448.0738566671498 L 312.33193512633443,447.0785833224654 L 313.06146424263716,446.13843204732984 L 314.68148626200855,444.59452503034845 L 314.7282176781446,443.7097460133955 L 315.8835218641907,442.17952450411394 L 316.3949710614979,440.1851512067951 L 316.9713250976056,439.5237684263848 L 318.33172816596925,438.88182948809117 L 319.7959788348526,438.9979528780095 L 322.61024780385196,440.1238484745845 L 323.8823804780841,440.0302828117274 L 324.7650848273188,438.9108600751497 L 325.30509216710925,437.34668192546815 L 325.5491339135915,435.9022805467248 L 325.6763471700251,433.21451630583033 L 326.0242365151644,432.1288748891093 L 326.9666531663388,430.9211017242633 L 325.75163667835295,430.13218515971676 L 326.03721745312214,429.382028024178 L 327.7039708364755,427.9206804581918 L 327.9376279115677,426.7268209643662 L 327.81301082111895,423.8543901015073 L 328.0674373358488,422.545791673474 L 329.62515083514154,420.5144617022015 L 330.263813290745,419.2581598768011 L 330.05611819028854,418.0118164131418 L 328.82033221051097,415.7480100723915 L 328.5243666153401,414.46725597279146 L 328.8566788062453,413.44995330739766 L 329.74976787529886,412.5355240111239 L 330.8297825548798,412.384739800822 L 331.9461438804865,412.7633132627234 L 332.96904237382114,413.46278863446787 L 333.86213144287467,413.7130839275196 L 335.52888482809067,414.5442843171768 L 336.8425565324724,414.56675115088 L 339.8930787425488,413.4467445118353 L 341.7493539545685,411.7239103997126 L 342.3984012808651,411.3133429540321 L 343.76399673335254,411.053548455704 L 345.2619978301227,409.67462285701185 L 347.5907794777304,406.3667819397524 L 348.87329692207277,403.17003789171576 L 349.49118993617594,402.3535678819753 L 350.39466372691095,402.0974483238533 L 352.2898817509413,402.67053427919745 L 352.85065863095224,402.5552713852376 L 353.6684581916779,401.99500423436984 L 354.7017414569855,402.0686357044615 L 355.67271615192294,402.5520696421154 L 356.8903288580477,403.5991392279975 L 358.4376575872302,403.35576371802017 L 360.0524872224778,403.9161859219894 L 363.250992231071,403.76886875228956 L 366.03929932415485,404.9635460404679 L 366.8700798228383,404.9475296270102 L 368.78347122110426,404.2941066576168 L 369.02491679787636,404.07311550853774 L 369.489634629339,402.3791805403307 L 370.2061828095466,401.69728818675503 L 371.2186965830624,401.2619510339573 L 372.29611504636705,401.30356250796467 L 374.4301825296134,401.7709152633324 L 375.3829839527607,402.1230597104877 L 377.1406039483845,403.17003789171576 L 378.2258110139519,403.0611673714593 L 379.0617838986218,402.4624226782471 L 379.43563511781394,401.63326569646597 L 379.33438378572464,400.66342524439096 L 378.74764502979815,399.65217809705064 L 377.95061500929296,398.9322710139677 L 376.42405577003956,397.95656503085047 L 375.7386618498713,396.9426752724685 L 374.9546127151698,396.187990533188 L 373.9057523459196,396.06648425990716 L 371.9326485954225,396.17839778307825 L 369.4143451731652,394.83560302108526 L 368.38106190785766,394.59585665958 L 364.86582186445594,394.70454023592174 L 363.83253860101104,394.34333646995947 L 363.1938760448247,393.6337919123471 L 362.79665911756456,392.65274289250374 L 362.62011822871864,391.5696611441672 L 362.6175220608711,390.5506948074326 L 363.1056056506932,388.1749874004163 L 362.9654114060104,387.3226932073012 L 361.431063612923,387.7919156453572 L 360.96115339547396,387.7280732775107 L 362.2280936855823,384.785831972491 L 362.1605927813798,384.5338123491965 L 361.2986580207944,383.5768925161101 L 361.19481042027473,382.50855037383735 L 361.8490500804037,380.7295540967025 L 365.06313219480217,375.56515176501125 L 367.8410545680672,373.07566758897156 L 369.040493901819,371.68184571294114 L 369.40396040305495,369.86855200119317 L 369.0353015176952,368.9971334608272 L 367.96567165851593,367.46774865407497 L 368.1006734687835,366.4982152907178 L 368.80164454318583,366.00875205593184 L 370.748786367476,366.027821179945 L 371.50687357597053,365.3890460259281 L 371.31735179945827,363.7718166485429 L 370.2295485176146,361.90741036320105 L 369.5545393675566,360.1738506425172 L 370.5930150169879,358.9581772470847 L 370.19320192188025,358.215587398503 L 369.6531945820898,357.9236591453664 L 367.75278412364423,357.3747532106936 L 366.85450266860425,357.6127108526416 L 366.3482458572835,357.55877282563597 L 365.0008236747235,356.74342715740204 L 364.2635059542954,356.05191507097334 L 363.46647588163614,355.845748746302 L 361.96068623289466,356.499166646041 L 361.31423512659967,356.4484126265161 L 359.73575213737786,357.3525444739498 L 358.99324208311737,357.60953803686425 L 358.64275651983917,357.4667621725239 L 357.94957399740815,356.31835801387206 L 358.03784449212253,355.27487085107714 L 357.9339968934655,354.98628513142467 L 356.5969595313072,354.65015124855563 L 356.0647407434881,354.1206275760196 L 355.82069894857705,353.4136262005195 L 355.95570080913603,351.7558927638456 L 356.42041864059865,350.1684052180499 L 356.2880129981786,349.01533569954336 L 355.47800203971565,346.39656990161166 L 354.71472239494324,345.3772982796654 L 353.3595117107034,345.8489231253043 L 351.8641067799181,346.64667119272053 L 350.70101404190063,346.5896849790588 L 350.368701800704,345.4121147268452 L 350.4673570152372,343.8582703038119 L 350.21293050050735,342.36500609107316 L 348.82137312181294,341.39398919651285 L 347.39087292924523,341.24218585388735 L 346.7548065930605,340.9765410493128 L 346.261530617252,340.28087093960494 L 346.10316310077906,339.5473590870388 L 346.21999163739383,338.3113800487481 L 346.0642202887684,337.60975683201104 L 344.66747052408755,336.00144819682464 L 344.28323453478515,335.0158616984263 L 345.03093702346087,334.1631055236794 L 345.8980641681701,333.5725771766156 L 346.26672305352986,333.1305155083537 L 346.5990352425724,331.9813360446133 L 347.3103910367936,330.8860699669458 L 347.65308799780905,327.54807469807565 L 348.3618476744741,326.3591688494198 L 348.21386487782,325.05705342954025 L 348.00876594521105,324.6630165572278 L 347.71020413190126,324.59997347416356 L 346.6042276285589,324.99085310148075 L 343.1512961052358,325.265117270872 L 341.5987750403583,325.64028416434303 L 339.87490542046726,326.551519358065 L 337.91737882606685,327.12861454021186 L 337.7096836771816,325.4542735381983 L 338.1276701949537,322.9863376291469 L 338.0575730726123,321.18105985969305 L 337.53314283676445,320.25661526992917 L 336.8425565324724,319.54016823880374 L 334.20482840389013,318.94661715300754 L 333.7167448140681,318.1453542714007 L 335.26926592737436,313.13599129300565 L 335.9131208676845,311.81996224680915 L 336.8425565324724,311.13142289128155 L 337.844685588032,311.93787219235674 L 338.96623924560845,311.94416074454784 L 340.00471489690244,311.2807557065971 L 340.77578304335475,310.0862152390182 L 341.0509790983051,308.706554397475 L 340.9497277159244,307.2063211351633 L 340.27991094999015,304.28252403018996 L 339.32451336085796,302.585854628589 L 339.22326197847724,302.024084310513 L 339.464707557112,301.3321557380259 L 340.1215434335172,300.28267371980473 L 340.1215434335172,299.60666380962357 L 339.61009413562715,298.92133406037465 L 335.6171552725136,295.3816594015807 L 335.0511860586703,294.03571830224246 L 334.6280072554946,292.488086567726 L 333.86213144287467,290.79844158748165 L 332.94827288389206,290.0328813418746 L 331.8734505902976,289.5444852663204 L 332.9119262397289,288.08426923910156 L 334.0516532212496,287.43802490318194 L 335.35753637365997,287.35353409172967 L 336.8425565324724,287.5835401657969 L 337.16967633739114,287.4302016226575 L 341.64031402021646,279.2785260733217 L 343.7484195791185,277.14813976176083 L 344.67266290821135,273.85432603536174 L 345.1763236038387,272.8728308812715 L 346.62499711848795,271.12875553779304 L 348.99272162653506,269.4226869554259 L 349.3380147535354,268.5106223314069 L 349.32503381744027,266.3659522952512 L 349.6677307765931,265.94522692169994 L 350.54524269141257,266.16493480000645 L 351.37083085626364,266.71658280398697 L 352.8324852567166,268.1286941044964 L 353.74894003383815,268.51997607015073 L 356.1893577836454,268.55739107262343 L 357.2745648473501,268.8286575032398 L 357.07725451886654,266.97528534242883 L 357.9651512019336,266.06832453096285 L 359.0295886769891,265.334456495475 L 359.38267040625215,264.0009823925793 L 358.7647774424404,263.0929822474718 L 356.381475828588,261.6324152518064 L 355.59742674417794,260.5956298611127 L 356.4593615029007,259.85786303831264 L 357.94957399740815,259.5076938322745 L 359.47094090282917,259.7006730386056 L 360.64961069636047,260.7294974308461 L 361.1584637761116,260.7279407638125 L 361.71924065612257,260.380826161243 L 363.406763529405,258.2643936718814 L 363.9779251795262,257.22516598785296 L 364.3829306587577,256.08816414512694 L 364.5646639354527,253.861539139878 L 364.82428283430636,252.98483249126002 L 366.5066133737564,251.3561645206064 L 368.5056789983064,248.5211903057061 L 370.8059025518596,246.50890066102147 L 371.2524470612407,245.49528458993882 L 370.9253272563219,243.23281715624034 L 371.148599460721,242.67433311603963 L 371.73014583066106,242.30514565948397 L 371.7613000907004,241.76227003987879 L 371.4030259754509,240.99148297635838 L 369.35722903721035,238.7976066088304 L 368.2979838475585,237.99470588052645 L 367.4827804528177,237.83197061903775 L 365.5356386285275,237.7978743328713 L 364.5257210228592,237.23221838194877 L 364.4763934388757,236.5023794467561 L 365.1773645635694,235.89967995602638 L 367.3841252885759,235.64560617599636 L 368.3291381075978,235.24283148767427 L 369.0534748900682,234.59380915155634 L 369.3416518326849,233.77296451479197 L 369.0067434757948,232.7556039779447 L 366.80777130275965,230.56824586959556 L 367.8774012122303,228.16211397573352 L 370.81888343952596,227.80476907407865 L 376.74079085327685,228.47152297524735 L 382.0759594645351,226.81175537547097 L 387.084008269012,224.4196972567588 L 388.4911428038031,222.99765354255214 L 393.3693821337074,220.16706637572497 L 395.6773942410946,218.29525799537078 L 398.96936202794313,216.30216704541817 L 401.0515057127923,213.92409445578232 L 416.1769035104662,200.70123977120966 L 417.7943293135613,199.51476971246302 L 419.3234847187996,198.71008929936215 L 420.90716004371643,198.3608678812161 L 422.67776102758944,198.55162920011207 L 423.56565771251917,198.8885548361577 L 425.8658812660724,200.16414105566218 L 426.57204467616975,200.1179745909758 L 429.4174679554999,199.1378011344932 L 430.49229024909437,198.57009035581723 L 432.54068345576525,195.82469475222751 L 433.88291325233877,194.7961097783409 L 434.16330164298415,194.36105754971504 L 434.24118731729686,193.67396204266697 L 433.13521076366305,191.62549379840493 L 433.4623306170106,190.52704934449866 L 435.19139252230525,188.7546478821896 L 436.50506422668695,186.8615563036874 L 437.3150752354413,186.2813255963847 L 437.5850789062679,185.52619805652648 L 438.5638422034681,184.7773142075166 L 438.82605727016926,184.0085885846056 L 438.74817159585655,183.18014466157183 L 437.984892051667,181.43775860778987 L 437.9277758654207,180.14053657231852 L 439.70356923528016,179.2360386135988 L 440.5551192238927,178.12018846999854 L 441.3132064845413,178.02516792481765 L 442.2841812297702,177.62058282224461 L 443.13573126867414,176.39168788446113 L 444.28065063618124,173.80915837781504 L 445.05171878263354,172.92409016983584 L 446.8067426122725,172.063660511747 L 447.30261475406587,171.0135698299855 L 447.53886794671416,169.96062156418338 L 449.3354308549315,166.7295882315375 L 449.67812781594694,166.25549761252478 L 450.97102998010814,165.30132421059534 L 451.6901743263006,163.28343097120523 L 452.4975891690701,162.38173527875915 L 454.47848147153854,160.88738830992952 L 455.1664715576917,159.83028555614874 L 455.3066658023745,158.57486000750214 L 455.00810404121876,157.23727853083983 L 447.35194233618677,136.36080832825974 L 447.0507844071835,112.09408290265128 L 463.55995098128915,112.09105423791334 L 464.0973621532321,111.76397165004164 L 464.2583258394152,111.01296563819051 L 464.1648630592972,81.06977979512885 L 469.48185834661126,80.3077952885069 L 470.0426352266222,80.1150564905256 L 470.5618730261922,79.78982467064634 L 471.4030382949859,78.88047879794613 L 472.0468931850046,77.736475400161 L 472.4986300803721,76.46629920648411 L 472.9114241618663,73.90273107495159 L 473.1321002487093,73.34624017216265 L 473.53450956195593,72.91913262195885 L 474.68462131358683,72.57927420036867 L 477.76370161771774,72.88304056460038 L 478.37120986171067,72.6755152028054 L 478.84112012945116,72.2725166962482 L 479.8614224065095,70.56460000621155 L 481.47625203989446,68.72194625949487 L 483.4285863004625,66.93096336117014 L 484.0153250042349,65.84642934566364 L 484.11138400249183,65.21863519819453 L 483.98157452605665,64.59991974802688 L 482.737999945879,63.179530058056116 L 482.6289600599557,62.53401475865394 L 483.3558930102736,60.783983145374805 L 484.78120081685483,58.950474709272385 L 486.2480476535857,54.17889436567202 L 486.80882453359663,53.46544698253274 L 488.25230561196804,52.45837752893567 L 490.16023850627244,51.85335233947262 L 490.1479730773717,51.55605418654159 L 491.36225366033614,51.572570306714624 L 491.5789434593171,50.99925123807043 L 490.9574934504926,50.31040001567453 L 489.6328237038106,49.97308163205162 L 484.17469384148717,50.525067407637835 L 480.335604775697,51.85807146970183 L 478.5325820930302,53.19846423296258 L 476.77862122654915,53.74603832140565 L 473.9943617656827,55.51656962791458 L 471.81110978126526,56.27452358789742 L 469.4684068672359,56.706672873348 L 467.3178627938032,56.7444579815492 L 465.4044509995729,56.234380207490176 L 461.9251487534493,54.331433749292046 L 461.05430103465915,59.22228509327397 L 460.2079842761159,60.31154449144378 L 460.8253457583487,58.42142142448574 L 460.89485005661845,57.71278557367623 L 460.51462080329657,55.63462446630001 L 460.89485005661845,55.1199232977815 L 460.8703191485256,53.75075906002894 L 449.9896705150604,59.235515313688666 L 447.1130929272622,59.79663654603064 L 434.1321473829448,59.79663654603064 L 431.2399926893413,59.442553631495684 L 423.145075077191,56.082852978724986 L 420.5125392843038,54.28981640422717 L 418.79386209882796,51.82904847571626 L 414.5205347966403,40.89267988037318 L 412.68243290670216,37.45108644710854 L 412.4228140078485,36.62014732323587 L 412.10607892274857,34.289369486737996 L 411.12471945770085,32.1192987812683 L 407.37063000537455,25.885401950683445 L 405.8804174605757,21.963711238000542 L 405.13271497003734,20.833916910924017 L 401.91344047151506,17.290935059078038 L 398.7668592631817,11.981955354567617 L 389.75289065763354,1.8744797236286104 L 380.9621943067759,0.0 L 298.5695366151631,7.4747200682759285 L 297.2818268351257,7.977336671203375 L 205.18721040152013,82.86521495180205 L 165.8341758530587,117.0875008427538 L 82.87554889731109,166.62253185082227 L 80.17031986266375,167.6840120027773 L 63.02508695051074,171.0013250564225 L 19.25333847105503,178.52174543729052 L 18.682176921516657,178.33169186115265 L 18.67179210111499,178.78844471788034 L 24.715720389038324,183.95335501991212 L 25.99823778308928,185.83314769202843 L 24.949377413839102,189.84044333174825 L 24.20686730928719,191.66697792336345 L 23.173584043979645,192.27237510168925 L 13.655954794958234,189.6346321911551 L 13.1471017152071,189.92338433256373 L 12.773250443860888,190.81431315280497 L 10.23417752981186,199.53938902262598 L 14.2011545188725,200.82744265859947 L 0.0,253.21021289750934 L 96.2563075851649,311.27446791157126 L 108.59339828975499,314.59549815487117 L 110.06284129433334,315.55667325109243 L 111.20516449399292,317.18054297892377 L 113.01211217418313,321.1905099488795 L 121.63665235415101,337.92895171931013 L 122.06761975958943,339.4367092452012 L 122.18185207806528,341.03978850739077 L 121.42895725369453,363.29214993305504 L 121.92223317921162,367.0354088777676 L 124.01995396800339,374.6386124836281 L 124.46130614355206,380.6530524608679 L 124.92342775687575,382.50855037383735 L 128.99944473057985,388.65386881679296 L 129.79387858510017,390.5219495818019 L 130.0690745897591,392.457834567409 L 129.85618710517883,400.96748010488227 L 129.61733769625425,403.00032897433266 L 129.07213802076876,404.9891723613255 L 125.18304670788348,413.4659974402748 L 123.89533687755466,416.4928632960655 L 123.69802649877965,417.5686058597639 L 123.69283416308463,418.6060384400189 L 125.31285618245602,434.2295043691993 L 125.72305399738252,435.9022805467248 L 130.16253742016852,444.60421333136037 L 131.16985875926912,445.99306411109865 L 132.64968658424914,446.6811775104143 L 135.910500112921,447.2272150372155 L 151.49282719008625,450.5532369352877 L 152.8688074145466,451.20642766635865 L 154.198056275025,452.3416375312954 L 176.19297042489052,475.9408091236837 L 179.42262964323163,479.0200457861647 L 180.995920246467,480.23667961731553 L 180.98034314252436,481.1509853960015 L 179.99379124306142,483.2438103943132 L 182.2368986606598,483.50588503852487 L 185.11347620002925,484.4615213563666 L 189.43872725218534,485.1909944736399 L 190.24354587681592,485.5525158131495 L 191.03278739750385,487.6081718597561 L 197.33114220015705,496.83045005751774 L 197.68941621482372,498.2100299997255 L 198.00095896422863,498.7227808027528 L 200.81003554724157,499.9624298810959 L 201.85889596678317,499.9264934496023 L 202.29505570605397,499.59491118136793 L 202.51313562691212,498.50558974128217 L 202.94410303235054,498.1871697884053 L 207.09800563007593,496.80269928928465 L 209.12303307838738,496.50234867818654 L 211.26229294762015,497.24020061967894 L 212.54481039196253,498.2149285902269 L 214.47118267603219,499.03633732674643 L 216.49101784080267,499.5785776893608 L 218.05392367392778,499.72394782304764 L 218.9158584345132,499.47894449159503 L 225.86585667915642,495.7776676402427 L 226.73038770630956,495.80704445485026 L 227.20029792375863,496.2868914012797 L 227.64165004715323,496.49092263914645 L 228.57108576223254,496.6329335682094 L 229.17340167239308,496.5072455066256 L 231.17765963077545,494.9470320721157 L 233.22345666959882,493.9142436948605 L 235.56002686917782,491.9895816943608 L 236.38042264804244,491.65366119891405 L 238.88834130205214,492.31900243368 L 239.5373885780573,492.2178906830959 L 240.86663743667305,491.29656790662557 L 242.13877006061375,490.77646623784676 L 243.34859421476722,490.6199577283114 L 248.49943343363702,490.9753698548302 L 249.8105089198798,490.8514617192559 L 251.00215970166028,490.54822635790333 L 252.94930152595043,488.8987038708292 L 253.5827716961503,489.0681937588379 L 254.48624553531408,489.99723531026393 L 257.1810897998512,490.4895378709771 L 258.7154375407845,492.26681543700397 L 260.2030539177358,494.43795192660764 L 262.04115580767393,496.01921574026346 L 264.31282126903534,496.381560835056 L 266.94795322977006,495.9343460635282 L 271.79244213178754,493.9142436948605 L 272.9191882275045,493.1785393599421 L 273.7369877882302,492.3287876029499 L 274.33151504583657,491.23787018749863 L 275.0117165800184,488.40819536475465 L 275.00133186019957,487.0053915847093 L 274.58853777870536,486.26749685546383 L 273.51631170138717,485.9303511879407 L 272.87245681136847,485.5525158131495 L 272.03129149228334,484.45500869769603 L 271.60032413713634,483.1770731830038 L 271.569169877097,481.83438877994195 L 271.9430210981518,480.5327523476444 L 274.29516845196486,475.29237370425835 L 274.7469053454697,474.9218786396086 L 276.83424136415124,474.38081235438585 L 277.45732676424086,474.4295545271598 L 277.92983319982886,474.8877555062063 L 279.18638871982694,477.2932179751806 L 279.36292955838144,478.28013263177127 L 279.76274270378053,478.9907723753713 L 284.030877571553,480.3961011143401 L 285.35493404604495,481.1249529453926 L 286.6011048462242,482.1110322633758 L 287.81612133421004,483.6621600096114 L 289.6230689641088,485.36686627333984 L 291.5754031725228,486.80013788631186 L 293.1850404217839,487.55277801677585 L 294.12226468883455,487.5951379491016 L 299.3899323940277,486.8522649812512 L 300.3972537331283,486.34242135379463 L 301.01514679938555,485.2561314511113 z" /></g></g></svg>