<svg xmlns="http://www.w3.org/2000/svg" xmlns:xlink="http://www.w3.org/1999/xlink" width="500.0" height="453.64269194565713" viewBox="0.0 0.0 500.0 453.64269194565713" preserveAspectRatio="xMinYMin meet"><g transform="matrix(1,0,0,-1,0,453.64269194565713)"><g><g><path fill-rule="evenodd" fill="#D2EBD9" stroke="#A6A6A6" stroke-width="0.25" opacity="1" d="M 20.516424695029855,449.21141312411055 L 21.056294675916433,448.8379392293282 L 22.207350708544254,448.71282134996727 L 22.028000116348267,448.4608682389371 L 22.574082501232624,448.0699605336413 L 22.88459993340075,447.34391506016254 L 23.660893538966775,444.1159267234616 L 23.979441605508327,443.43965668976307 L 24.521508686244488,442.95945049775764 L 24.306020306423306,442.55213278811425 L 24.402387784793973,442.31297503691167 L 25.062237340956926,441.833000396844 L 25.680595327168703,441.75850052479655 L 25.92017558403313,441.3565887757577 L 26.854404784739017,440.7157517503947 L 27.29341220483184,439.95736618945375 L 27.793987741693854,439.5055683562532 L 29.033380618318915,437.0870767547749 L 29.471049612388015,434.9146388396621 L 30.149637289345264,435.1253998763859 L 32.8479267526418,434.23065949836746 L 33.32976416870952,434.5087179732509 L 33.573359755799174,434.4802197883837 L 33.573359755799174,433.67032493511215 L 34.534357683733106,433.2568509080447 L 34.681585766375065,432.89868066320196 L 34.45806675218046,432.40596215287223 L 34.63072516210377,432.0677633122541 L 35.3400968965143,431.4950068653561 L 35.78178119473159,430.2326747812331 L 36.64507319405675,429.77067867759615 L 36.76954787783325,429.54747054958716 L 36.529967622831464,428.6419277745299 L 36.57681292295456,428.2835978078656 L 36.87528441660106,427.92876697098836 L 39.26439489983022,426.7638849192299 L 41.77530316449702,426.3051498616114 L 44.08276895992458,426.2810536753386 L 46.00476484373212,425.52559081604704 L 51.462911888957024,424.37307214317843 L 53.17611157335341,423.5958694992587 L 54.68051500990987,423.2150990557857 L 56.66006370447576,423.47724820068106 L 58.960837319493294,424.9208784503862 L 61.21208878047764,425.27955831354484 L 64.72950182110071,423.86407872801647 L 65.75742162205279,424.11856171814725 L 66.93524640984833,425.11268366640434 L 68.30714457854629,427.5524635328911 L 68.77961293421686,427.95115764066577 L 70.28133951872587,428.7194582372904 L 70.70696257427335,429.1295507182367 L 71.4564874265343,430.6344091994688 L 72.29167224653065,431.2026443136856 L 73.1041036657989,432.56645105965436 L 73.84961318969727,433.30518652359024 L 74.6928286422044,433.5183928348124 L 75.8037315569818,433.08941034786403 L 76.11826431937516,433.1480994829908 L 77.84618679434061,434.12704364582896 L 78.25039482675493,434.69698742451146 L 78.68672536872327,435.9651769697666 L 79.96359451115131,438.0884237801656 L 81.20298738963902,438.84966466622427 L 83.78349437750876,439.85869027487934 L 84.86227480880916,440.47331864992157 L 87.00912815704942,443.02012091409415 L 87.85502048768103,443.73268295452 L 88.93915462307632,444.3327214210294 L 91.33228043653071,445.01966005191207 L 93.03744948841631,446.6458742953837 L 96.61910752393305,448.66937920777127 L 98.63479400798678,450.5711665963754 L 99.25047514215112,450.7381252972409 L 101.2206547781825,450.6998628824949 L 101.53920284472406,450.7798668718897 L 102.10937707871199,451.48088915552944 L 102.47610889747739,451.38694338547066 L 104.56407100893557,449.55402104277164 L 108.91666889376938,444.3101738546975 L 110.69143669493496,442.6665212144144 L 111.41954652406275,441.66494593862444 L 111.9950745664537,440.45080830249935 L 111.05013785324991,440.14780518226326 L 109.6876087449491,439.22518598195165 L 108.06542280688882,438.89811564050615 L 107.19276174902916,438.44479211978614 L 106.44323687069118,437.7269210158847 L 105.9667532350868,436.77586430776864 L 105.91856948286295,435.6273292815313 L 106.26656315661967,434.731533896178 L 106.89830553159118,433.8343535736203 L 108.3732633870095,432.39905967377126 L 109.85357497259974,431.7830928270705 L 110.243060214445,431.40013596834615 L 111.16256660036743,429.30101815005764 L 110.8226035349071,427.9408234846778 L 110.58168482780457,427.5808779406361 L 109.51495036110282,426.91710337949917 L 104.73271408863366,426.0676410230808 L 104.57477849535644,425.3862265860662 L 103.21760314144194,424.5433342885226 L 102.97668443247676,424.1649906411767 L 103.03825254924595,422.79658016981557 L 103.55221242457628,421.84809679258615 L 105.23596647754312,420.4981943969615 L 108.99162137322128,418.5228155129589 L 109.18167945183814,417.7646795595065 L 109.12278823927045,416.5559364403598 L 110.37824235856533,415.5474068215117 L 111.25358032248914,414.49905825126916 L 112.04995047487319,414.48021960351616 L 113.36295740492642,415.09426482068375 L 113.97194635868073,415.09426482068375 L 114.44976844452322,413.49910394707695 L 117.42645285651088,409.7350635929033 L 118.13314773887396,408.54832681035623 L 118.96030195057392,407.7421265989542 L 120.28803169727325,407.6319784130901 L 120.91174343973398,407.80958419153467 L 122.26891881972551,408.5218476834707 L 122.78020184114575,409.03952498873696 L 123.35974516160786,409.35650822427124 L 124.18823782540858,409.35052700247616 L 125.86050429940224,409.0012346478179 L 125.93638421967626,406.0969272037037 L 125.64340346679091,405.1296081850305 L 125.82467211037874,404.4258606103249 L 125.87525871396065,402.6834980431013 L 126.364262573421,401.46540206251666 L 126.72679990902543,397.4372106534429 L 127.79754967987537,393.6028969134204 L 127.59309549257159,392.97468329640105 L 127.67951428703964,391.5183913456276 L 128.79241958260536,389.5197576871142 L 128.68070749938488,388.65112745249644 L 128.95261050201952,387.3654331313446 L 129.49220093898475,386.1337273051031 L 130.80534488335252,384.15950461290777 L 132.5484749507159,382.3438914078288 L 134.44125706329942,380.98174109775573 L 138.61886747553945,378.8017593389377 L 140.55802065320313,378.14548845309764 L 150.51515060849488,376.79763162042946 L 153.3016293887049,377.478770583868 L 154.2269427087158,376.9981030812487 L 153.5440235361457,377.06050484487787 L 153.34167711809278,376.79763162042946 L 155.50214669294655,375.95476960390806 L 158.87037143483758,375.17720538843423 L 160.0844499412924,374.7036228864454 L 160.90437448583543,373.92380460258573 L 160.8010935075581,372.74791642278433 L 161.36597723327577,371.1182504440658 L 161.97723205201328,370.0641823466867 L 162.58637907356024,368.3053214480169 L 163.36414811946452,367.0197285981849 L 166.1400880254805,364.7358892997727 L 167.41950757429004,363.1788603919558 L 168.31531201303005,362.7986669847742 L 171.17977848276496,360.8537334119901 L 172.07769071683288,360.5635762787424 L 173.2285359725356,359.40065223164856 L 177.31340428255498,357.16995052061975 L 181.03995079547167,354.52022995240986 L 183.21306701377034,353.52978047402576 L 190.44484366849065,352.0941334525123 L 195.06087131239474,350.74995287368074 L 199.84973651729524,349.8883778057061 L 204.4615486189723,348.54801357118413 L 209.25462939031422,349.1872549331747 L 213.51444303244352,350.74995287368074 L 217.96817198768258,351.8536254502833 L 227.00209642015398,353.63893411215395 L 235.71563901752234,356.28639529645443 L 244.3111462201923,358.21719417581335 L 245.47042255662382,358.41088407160714 L 255.6636233497411,358.9920447678305 L 257.52478883601725,359.43888025777414 L 258.7873461768031,360.50818653358147 L 258.7283284664154,359.2767447559163 L 257.2613169401884,358.7627269523218 L 255.41912143304944,358.5334303784184 L 253.90995438024402,358.0011227000505 L 252.84552791900933,358.2764853928238 L 251.34057645872235,357.8535725600086 L 248.49507994391024,358.0551388231106 L 248.6974263601005,357.69154100026935 L 249.06207146681845,357.571670810692 L 249.91150486655533,357.6125050773844 L 249.19064575992525,357.4109748802148 L 249.81665499322116,356.57605078676715 L 250.87475811876357,356.1034031426534 L 254.90060871839523,355.7440406871028 L 255.74793434888124,355.3597253197804 L 258.9896925929934,356.24953248072416 L 259.29742776043713,356.5075836852193 L 259.47448086179793,357.047471717 L 259.4871275331825,360.3947732890956 L 259.34590659476817,360.9487013206817 L 258.4732876755297,361.36818671040237 L 258.5470597986132,361.8405229523778 L 259.13723684102297,362.94387283874676 L 258.5217664837837,363.90376666374505 L 258.1086425445974,365.0965631850995 L 257.5311121456325,367.8410019669682 L 256.7470197919756,369.963566376362 L 256.3844824563712,373.1853285199031 L 263.9652541689575,372.5936742150225 L 264.4337071944028,372.7939733606763 L 265.39202827215195,373.57849598955363 L 267.1266429293901,373.5279826936312 L 268.0501646436751,373.83444626023993 L 272.4322081618011,376.38193798204884 L 273.0184436645359,376.4729690128006 L 274.59512272663414,376.1274063009769 L 275.1679738909006,376.13583410391584 L 275.55612068250775,376.31956684263423 L 276.1932168137282,377.00742319971323 L 276.7044998370111,377.2131434138864 L 278.25976390205324,378.3314181724563 L 279.0360575094819,379.1177222826518 L 279.46971114724874,380.4377989289351 L 279.5821398925036,381.68932534754276 L 279.4322349075228,382.133679212071 L 279.0360575094819,382.5874093971215 L 279.0092887543142,383.27619348699227 L 279.4349117856473,384.2924009584822 L 279.69189176149666,385.46131189446896 L 280.02917792089283,386.00620666565374 L 280.8054715283215,386.85340587515384 L 284.69497017003596,389.5399958747439 L 285.9049174413085,390.89543320797384 L 286.24488047882915,391.68412367766723 L 287.2005246784538,392.024272873532 L 287.8938351441175,393.1247845618054 L 290.20933157391846,393.7053645015694 L 290.4448965527117,394.2249492937699 L 291.00704017840326,394.54083003569394 L 292.48199800774455,394.9807544583455 L 295.47742056660354,397.18753336323425 L 296.1064860653132,397.4434364801273 L 297.7527638785541,397.51485611498356 L 302.8736247625202,398.5949120577425 L 303.6445646136999,398.5932108149864 L 305.2480124309659,398.23767451383173 L 306.6399871464819,397.5199576243758 L 307.9596862848848,397.50635370006785 L 309.4614128675312,396.8789555528201 L 313.56506143696606,397.53526215208694 L 314.61171935871243,397.40092577040195 L 315.96354098059237,396.95545878075063 L 318.1826699078083,397.3303596591577 L 318.58955484442413,397.6338936393149 L 318.9402253944427,398.7633424587548 L 318.81708916276693,399.3350730249658 L 318.1130711827427,400.14695997722447 L 318.2763605341315,400.5964242606424 L 319.90925395675004,402.115691578947 L 320.7819150406867,402.7291214047 L 321.724174849689,403.0904368478805 L 324.0985625181347,403.16713819419965 L 324.540246816352,403.05805258639157 L 325.5761972516775,402.41386702051386 L 328.07104424759746,403.40492790332064 L 329.3104371242225,403.617168771103 L 331.4599673524499,402.22899386286736 L 335.7590277567506,401.36445372831076 L 337.31429184786975,400.8552448619157 L 338.98198463208973,401.99983909446746 L 340.11697939783335,403.5762534192763 L 340.8504430335015,403.83198587968946 L 341.97473031282425,403.42026998940855 L 342.1674652695656,402.67117967503145 L 343.2328613102436,400.5129946176894 L 344.3839173428714,399.13342038402334 L 344.6837272886187,398.14922390924767 L 345.23784028179944,397.35756562743336 L 345.3020852766931,396.2347249998711 L 344.7908022534102,394.4983705636114 L 345.446636505425,393.62472005654126 L 349.17284577153623,392.13964610313997 L 350.42562303878367,392.39161999337375 L 352.1789758410305,391.95216742902994 L 354.22143105231225,392.07262717327103 L 355.22525897808373,391.3626800039783 L 356.0818588472903,391.38727446785197 L 356.65203310735524,390.5071189836599 L 357.0401798710227,390.34519850835204 L 358.3224027696997,390.51220565708354 L 359.2191557046026,390.2697523278184 L 363.2799743041396,388.3140599629842 L 366.27807371504605,387.73985431110486 L 366.9124929700047,387.3029394536279 L 366.8803704865277,386.5884656063281 L 367.38094599545,385.57806476112455 L 367.57635785639286,384.15541641926393 L 368.4597264267504,383.6185453585349 L 370.4780897889286,383.31507546827197 L 371.4872714690864,382.6693771807477 L 371.8486495055258,382.5730442223139 L 374.19359156675637,382.80627793679014 L 374.64330647327006,383.0226306486875 L 375.54005943425,384.5723131727427 L 375.94159058853984,384.8640989023261 L 376.4475198816508,384.90300635434687 L 378.17142705246806,383.5264014895074 L 379.87659607827663,382.97699213260785 L 380.46015472896397,383.03953397320583 L 381.0330058671534,383.5221747593023 L 381.87889822386205,383.4165096837096 L 382.416949974373,383.53062819410115 L 382.7622667942196,383.9626364647411 L 382.9683861155063,384.67633709218353 L 384.52097330242395,383.80707080382854 L 386.53130605630577,383.3438147441484 L 387.9179270416498,382.60853486089036 L 389.01544556580484,382.3820796292275 L 390.147763479501,381.3430221322924 L 393.6036084294319,378.8460306026973 L 394.1577214486897,378.79372075246647 L 395.6112642791122,379.4620211534202 L 396.2082072943449,379.304211424198 L 397.2280964870006,378.1121081644669 L 397.34855584055185,377.6811371902004 L 397.268249578774,376.9568389528431 L 397.49578394927084,376.32968098670244 L 397.1424364950508,375.35386037034914 L 397.7126107811928,372.42536824196577 L 398.0150975789875,371.97773077432066 L 399.63728351704776,370.6269001052715 L 400.2770565263927,369.8626564904116 L 400.00401530973613,369.01881813816726 L 400.078967789188,368.78605723474175 L 400.5045908447355,368.67346602119505 L 401.1015338599682,368.2206326187588 L 402.13748426921666,368.5339945135638 L 402.52027732878923,368.46678217034787 L 402.9539309926331,367.9988671806641 L 403.4411221407354,366.33962167287245 L 403.7891158387065,366.0651480825618 L 404.03538827598095,366.1171865835786 L 404.51990257017314,366.79210839793086 L 405.0392162017524,366.90293415263295 L 408.76810237020254,365.6858037924394 L 410.4679176658392,364.24449329683557 L 411.4182081092149,363.6843046457507 L 413.543646434322,363.3036503922194 L 414.5180287528783,362.88114266470075 L 415.28629172593355,361.8503266563639 L 416.2579971663654,359.7757538817823 L 417.4545600730926,357.94216726114973 L 420.19835641235113,354.5881551494822 L 420.74443879537284,353.7044284446165 L 421.4966405276209,351.72261731652543 L 422.0293385479599,350.7831871001981 L 422.8859383892268,350.3044312004931 L 441.8756859526038,350.6480585015379 L 444.2152742575854,350.2777436855249 L 444.78009478747845,347.9803549605422 L 444.6408972889185,347.2239143825136 L 444.22865862213075,346.32781275967136 L 444.4267473332584,345.4570038910024 L 443.8699574377388,342.864691184368 L 443.72005247697234,341.2869930411689 L 444.0894611738622,340.3664359380491 L 443.89672619104385,339.9262168444693 L 444.3517948538065,339.6521572796628 L 444.7238804027438,338.9314404828474 L 444.78009478747845,337.850753526669 L 445.24319403246045,336.91154808644205 L 445.741092691198,333.7861580927856 L 445.28870093263686,333.0108004617505 L 445.0531359538436,331.77039334503934 L 444.4267473332584,331.36147433519363 L 444.4267473332584,330.03087707422674 L 443.283721935004,328.87958287494257 L 444.7988328821957,328.337200821843 L 445.6661402117461,327.408145878464 L 446.164038868621,326.42821398191154 L 446.5388012956828,324.238371625077 L 446.38889633491635,323.00391004793346 L 446.5602162927389,322.45453670667484 L 446.38889633491635,320.9538521938957 L 445.85619831457734,320.19230526778847 L 445.92312016151845,319.3403682424687 L 447.0955911912024,317.34264810103923 L 447.43287737853825,315.3958428520709 L 447.2722649052739,314.7346291136928 L 446.3192975856364,313.3913462613709 L 445.6661402117461,311.4574038218707 L 444.9728297442198,310.3719473746605 L 444.8523703906685,309.7202376141213 L 444.9728297442198,308.08594634896144 L 444.7667103987187,307.5233740070835 L 444.2688117399812,307.2380345868878 L 443.09901758655906,307.1199723747559 L 442.72693203762174,306.8117243978195 L 442.5529352016747,305.4594773114659 L 442.83133015036583,304.40439890883863 L 442.4164146054536,304.1243187598884 L 443.54337876290083,302.4281098153442 L 443.46307250112295,301.52642998006195 L 443.73611371964216,301.23848246363923 L 442.92234387248755,299.9022376355715 L 442.7670851573348,298.59446653258055 L 442.2236796505749,296.48871033871546 L 441.8569478318095,295.8943769298494 L 441.7739647179842,295.49768627015874 L 441.9345772154629,294.3128730892204 L 441.61602912284434,292.15679152403027 L 440.82099742256105,291.8894446929917 L 440.1705169007182,290.46188667044044 L 438.88294029794633,289.2712244098075 L 438.93647777847946,287.7132724360563 L 438.832079667598,286.9468476930633 L 438.5617153532803,286.5873076962307 L 437.5605642795563,286.48319675493985 L 437.2125706076622,286.28312025172636 L 435.7376127783209,284.47661870904267 L 435.2316834870726,284.13042029645294 L 434.5865567456931,283.94840008439496 L 433.16781327687204,283.7566424738616 L 432.5226865094155,283.4235376464203 L 432.1425703279674,282.76232830714434 L 432.64046898670495,282.5974581246264 L 433.02861577644944,281.63199823955074 L 433.25882699899375,281.4128096373752 L 434.206440564245,280.83570058550686 L 434.86762854643166,279.65509245032445 L 436.78962445631623,277.1495804209262 L 437.0840806197375,276.5620631836355 L 430.6917043738067,276.177209190093 L 430.8710549660027,275.5097222374752 L 430.46684690751135,275.0667144097388 L 429.2354846652597,274.41003365209326 L 428.3280242178589,273.4637617236003 L 427.51157749444246,272.40133037418127 L 426.7834676131606,270.926933973562 L 426.62820889800787,269.52689725300297 L 427.69628184102476,261.63118889089674 L 427.6400674562901,260.40596627257764 L 426.8396819997579,258.597757212352 L 426.63088580034673,257.5782610392198 L 427.27601254172623,255.30651258304715 L 428.90890596434474,253.73309957189485 L 430.99954492785037,252.86562612559646 L 433.02861577644944,252.70902889221907 L 435.9330245871097,252.7379384767264 L 437.2045399732888,252.28264876734465 L 437.8710817117244,251.44293404230848 L 437.6435473933816,251.05206654965878 L 436.03206896968186,250.82977093895897 L 435.57432342879474,250.5232417830266 L 435.63856842182577,249.02560284966603 L 435.4940171930939,248.40577440103516 L 433.628235694021,246.85642582643777 L 428.72152473963797,240.19545902311802 L 428.5635891444981,239.76305858185515 L 428.6010654103011,237.3194119562395 L 428.97850471548736,235.34469019528478 L 433.50509946234524,219.95503915194422 L 435.5261396765709,212.4205049048178 L 435.4726021941751,209.9274964123033 L 435.124608496204,207.4935868885368 L 434.96934977918863,206.98336716834456 L 434.09133496508,205.63954971451312 L 434.54908050596714,205.15334475552663 L 434.32689991779625,204.48100556293502 L 434.65615546889603,202.87814337015152 L 434.46342051401734,200.99248219374567 L 434.5196348745376,199.516054272186 L 434.8783360570669,196.69613395165652 L 434.54908050596714,194.44662842154503 L 434.99879541248083,192.2649027328007 L 435.3039590884,189.41766919009387 L 436.1659126877785,189.05509927216917 L 457.0455336216837,185.99471727572381 L 457.7120753861964,185.72977486392483 L 458.2206815313548,185.32535403501242 L 459.1468801237643,184.14377060439438 L 459.32623068988323,183.58292477810755 L 459.15758761018515,181.6787503468804 L 460.3220280073583,179.2283643744886 L 460.42910299636424,178.0274074547924 L 461.19736594334245,176.07848529098555 L 461.32585593126714,174.88352873316035 L 460.6459298301488,173.26605062186718 L 460.85740287974477,170.8508895500563 L 460.6378991957754,170.55147533211857 L 460.69946731068194,169.81398821948096 L 435.8901946172118,140.1327669871971 L 447.1518055777997,126.67774307262152 L 448.65888589061797,125.7191874361597 L 448.8971277214587,124.96668831864372 L 448.5411034151912,122.76401563268155 L 448.78737587854266,122.15875275200233 L 449.94378564320505,120.73774118209258 L 450.2275343462825,119.32658930961043 L 450.50325241684914,119.01470646401867 L 451.258130999282,118.74959283042699 L 451.85775089263916,117.39373623998836 L 452.55373826250434,117.00164597341791 L 452.540353897959,116.4763852134347 L 452.04245523922145,115.84864096576348 L 453.1533581558615,114.83074437500909 L 454.24819980189204,112.3073613862507 L 454.5935166217387,110.79386891331524 L 455.3403645977378,109.95718171494082 L 456.08185884170234,108.33030459238216 L 456.83406057208776,107.4049719600007 L 459.5055812820792,104.9723350033164 L 460.58168483525515,103.57374884234741 L 463.0444093476981,101.09688766626641 L 465.0734801944345,100.40067399898544 L 466.30885776877403,99.68481824407354 L 467.0931820087135,99.43811465241015 L 469.6415665131062,99.11225225077942 L 471.7964504696429,98.14552477980033 L 475.21749605983496,97.451492855791 L 475.93623685464263,97.07562343031168 L 476.7245763987303,95.969582086429 L 477.84618679992855,95.41822916222736 L 478.5716197770089,93.97300527710468 L 480.2071900777519,92.19722887547687 L 480.73051906377077,91.86528471903875 L 484.969349803403,92.72674108901992 L 485.5448777936399,92.3772681588307 L 485.6706909034401,91.34958765190095 L 484.8756591770798,84.99272753158584 L 486.0307305138558,80.14889419265091 L 486.9221297185868,70.35954572958872 L 486.7641941253096,69.14514199411497 L 485.4030034672469,66.07421604078263 L 485.9116096124053,65.45646431762725 L 485.99191584810615,64.66711922362447 L 485.71485932543874,63.92464782111347 L 485.45921782776713,63.73039840813726 L 485.0483175870031,63.70480052847415 L 486.5580747779459,62.491391357034445 L 487.3009074758738,62.73825170705095 L 488.1173541992903,62.33034016750753 L 488.93513932451606,62.15123652666807 L 491.8194715883583,62.59675630135462 L 493.1766469683498,63.01674477942288 L 494.63018979877234,63.01674477942288 L 496.30859009735286,63.460877840872854 L 497.5961667262018,62.54407338704914 L 498.4715046621859,62.16026676585898 L 498.7472227588296,61.857768771704286 L 500.0,59.3515807017684 L 498.9881414677948,59.52301101433113 L 498.47953532263637,59.301957827527076 L 497.71394920162857,57.85420467425138 L 497.80763980187476,54.22937104199082 L 498.58125653117895,52.74484424944967 L 498.49827341735363,52.213639970868826 L 498.1101266257465,51.859551530797035 L 497.0581149496138,51.69002269441262 L 496.63115346617997,51.466498060151935 L 496.4424338154495,51.00899498257786 L 496.2363144941628,46.79695488139987 L 495.9632732756436,45.639211220201105 L 495.38239150494337,45.068725981749594 L 494.2607811037451,45.444546431303024 L 493.5059024952352,45.27534707309678 L 491.47415476851165,45.45952023239806 L 485.33875847421587,45.61225696885958 L 485.05768664740026,45.52989804092795 L 484.59191049821675,44.77079505007714 L 484.0016596671194,44.44893995299935 L 483.20127421058714,44.26631983881816 L 482.41293466463685,44.48187253810465 L 481.77048480324447,43.95948078017682 L 481.24046366102993,43.77389434585348 L 476.6603314038366,43.241139431949705 L 476.0955109000206,42.56783555354923 L 475.03814546763897,42.49752062000334 L 473.7719838358462,41.83334197057411 L 473.3838370461017,41.47288612648845 L 473.53641888312995,40.68630077270791 L 472.2702572531998,39.02252233121544 L 472.68784967437387,37.41633603675291 L 472.12570604868233,37.11759585747495 L 469.02856225706637,37.792786669917405 L 468.5895548351109,37.09071054589003 L 468.4958642348647,36.37982202367857 L 468.2602992840111,36.08266758918762 L 466.65685146674514,35.737762628588825 L 465.2448001783341,34.8793870517984 L 462.12088765762746,33.98989407112822 L 461.49449903704226,33.49898295709863 L 460.8975560236722,31.826842518988997 L 459.46275131218135,21.814325521234423 L 459.0692507401109,21.33409819798544 L 457.570201035589,21.10961882956326 L 457.0241186507046,20.353039010427892 L 457.4390341937542,18.157082666642964 L 457.3640817143023,17.16505589708686 L 456.8206761814654,16.562257782556117 L 456.57975747436285,15.873475320637226 L 455.9801375810057,6.469941717106849 L 455.1561132464558,4.082007208373398 L 454.93690461851656,4.9801523787900805 L 454.28138653188944,5.570887774694711 L 454.028453508392,5.404259942937642 L 453.83664596639574,4.60502338828519 L 454.38255973905325,4.036581893917173 L 452.9808892570436,4.274197785649449 L 452.42022104375064,3.840910390485078 L 453.03147586248815,3.645249840337783 L 453.4972941763699,3.2539616990834475 L 452.599381942302,1.6927394908852875 L 450.8140963744372,1.0712388907559216 L 451.1892803553492,0.8094036965630949 L 450.58443734794855,0.0 L 446.22834988310933,1.5007469458505511 L 444.7141698971391,1.8257991899736226 L 444.7247215937823,2.293787118047476 L 444.33085445314646,3.004331956617534 L 440.7136376835406,4.302153676748276 L 436.4685784820467,5.012774204835296 L 432.86849846690893,5.865710432175547 L 430.42769481241703,6.168716264888644 L 429.99981643259525,6.4041467239148915 L 430.3981859572232,6.773641541134566 L 429.7721767257899,7.675980233121663 L 429.6014469321817,9.922354540321976 L 428.2566863633692,11.097441515419632 L 427.33769638091326,11.10911270370707 L 425.5629496872425,10.559442483820021 L 425.11820912361145,10.314394764136523 L 424.25823684968054,9.117411201354116 L 424.43318218179047,8.1657196409069 L 425.3563877046108,7.857875387184322 L 425.7328056804836,7.383786321617663 L 425.44491426832974,7.36118427477777 L 426.195286244154,6.974140987731516 L 426.1223254483193,6.607146053109318 L 423.41091121919453,7.761096651200205 L 422.2884915359318,7.741007962729782 L 421.5392068568617,8.355803805403411 L 421.893313087523,8.924952485598624 L 421.51602133736014,9.097581620328128 L 420.1080275196582,9.120910541154444 L 419.23962414078414,8.924952485598624 L 419.0077688694,8.494583507534117 L 419.6142922900617,7.98254615906626 L 419.43909668177366,7.449800278991461 L 418.7337580975145,7.4556200806982815 L 418.21313761360943,7.801906638313085 L 417.0433224029839,8.026953133288771 L 416.14531511440873,8.775571125559509 L 412.48778920434415,8.459181010723114 L 411.5290393214673,7.741349476389587 L 410.43838340230286,8.119432044681162 L 409.35495266877115,9.155434164684266 L 408.1896324120462,9.46124218031764 L 404.0228895228356,9.286594226025045 L 402.0542768314481,9.744548704475164 L 400.822807231918,10.998212149832398 L 399.87636692635715,11.518572449218482 L 393.1790917851031,10.408911098260432 L 391.1556276101619,9.585188822820783 L 390.55701946280897,9.935188482981175 L 389.85302253998816,9.70885132579133 L 389.2586299329996,9.740350977052003 L 388.3101311195642,10.03086123475805 L 387.9728870727122,10.314394764136523 L 386.1391226705164,13.003870036453009 L 385.1273905839771,13.466334895696491 L 383.9849764332175,13.56444149557501 L 383.59293024241924,14.352899571880698 L 381.07624669373035,14.446358453016728 L 376.37169248797,15.308636306319386 L 374.75924445688725,15.050397618673742 L 373.37022062018514,15.145043921656907 L 372.88543232530355,15.37641257001087 L 373.07091653347015,15.835690435953438 L 371.481654047966,15.621820555068552 L 370.5352630056441,14.939395998604596 L 370.1432168148458,14.838913415092975 L 369.74906285479665,15.023523196578026 L 368.97340157814324,14.507108063437045 L 368.74576187320054,14.538651565089822 L 368.6509119980037,14.740770465228707 L 367.58859330788255,14.03515844233334 L 366.6337711326778,13.885643363464624 L 364.11287201941013,14.446358453016728 L 363.4173062033951,14.771147751715034 L 362.84609914012253,15.544690459035337 L 362.07254563458264,17.19050913443789 L 361.26737553067505,18.168087975587696 L 360.285152297467,18.40199989732355 L 359.2165102697909,18.123646517749876 L 358.1668382231146,17.583378102164716 L 356.71458113752306,16.508941563777626 L 356.30778053216636,16.512448417022824 L 356.600761257112,18.35755540151149 L 356.2951338607818,19.239535716362298 L 355.8904410265386,19.592859542462975 L 354.7016558367759,19.759004578460008 L 352.68451497144997,19.368225587531924 L 351.527346406132,19.759004578460008 L 350.45027329958975,19.56477950513363 L 349.80529408715665,19.616259759757668 L 348.0389784742147,20.1720621092245 L 348.2328937854618,20.34876770619303 L 344.7677113991231,20.57814753288403 L 344.38831185363233,20.78296398371458 L 344.2028276473284,21.23243291210383 L 344.05528337322176,22.640918620862067 L 342.88757593370974,25.81595523143187 L 342.0107414480299,26.85463777370751 L 341.4627199061215,26.85463777370751 L 340.6385798212141,29.390549841336906 L 340.7460763398558,30.33173797139898 L 341.5512464698404,31.214487271849066 L 341.8336883466691,31.79215592565015 L 341.4795821160078,32.714048123918474 L 339.76596090197563,34.60677484981716 L 339.90507404506207,35.377800120040774 L 339.7132665012032,35.55647763982415 L 339.3802380207926,37.513150203973055 L 338.4001225847751,38.98846720717847 L 338.29684158042073,39.91705135256052 L 338.7394743748009,43.52792721102014 L 338.650947811082,44.877419161610305 L 336.96472768113017,51.61071315873414 L 335.4176206961274,53.3570565469563 L 335.451345089823,53.825111670885235 L 334.3911341689527,54.63609265955165 L 334.76842594332993,54.61126373615116 L 335.6283982191235,55.03338114125654 L 335.375465195626,55.50522388564423 L 335.6283982191235,56.02681346097961 L 334.56818729639053,55.62940431199968 L 333.4932219590992,56.43491778615862 L 332.98735591582954,56.1853174935095 L 332.8355961032212,56.284682157449424 L 332.7829017024487,56.819410531781614 L 332.44987322203815,56.74369147839025 L 332.2812512256205,57.1092888507992 L 333.33092324621975,57.99328085966408 L 333.33092324621975,58.2098776884377 L 332.5721241813153,58.31522232387215 L 331.9524382837117,58.735451131127775 L 331.53299103304744,59.342807116918266 L 331.3685845769942,59.998831521719694 L 330.736252008006,59.584360308013856 L 330.0343628823757,59.58199202967808 L 329.6465322319418,59.70869613485411 L 328.9657208546996,60.39440474426374 L 326.27830748818815,60.42638432746753 L 325.69234598614275,60.61234587151557 L 325.5152928829193,60.39440474426374 L 324.8871758803725,60.745012854691595 L 321.72551309503615,61.143046270124614 L 320.36810588277876,61.685682258568704 L 319.56293577700853,61.80535874888301 L 317.96102662198246,61.714119848329574 L 317.1432098466903,61.50321374600753 L 315.9923646170646,60.82319414615631 L 313.6232253164053,60.61234587151557 L 312.98035387322307,60.041465850081295 L 312.84124070592225,59.591465066187084 L 310.0905940886587,57.86901048384607 L 308.84700672887266,56.71529726404697 L 306.33875428698957,56.2231703591533 L 305.19634013623,56.2231703591533 L 304.2984279021621,55.82810286199674 L 302.25599374622107,56.02681346097961 L 301.76488211750984,55.806813152041286 L 300.2810084056109,54.593528889119625 L 298.8793378993869,53.03087585698813 L 299.6023047994822,53.427969712764025 L 299.70769354887307,52.716543971560895 L 299.5517181959003,51.84697051346302 L 298.8793378993869,50.43676602561027 L 298.0320122949779,49.683487420435995 L 297.0561123713851,49.18887313408777 L 295.9727159291506,48.96815036330372 L 294.80922403000295,49.0330672939308 L 292.7225266061723,49.75668249698356 L 291.5337413903326,49.91488383337855 L 290.5515181571245,49.447385404258966 L 289.85173680074513,47.99572981055826 L 287.1938322875649,47.26896181423217 L 282.72324112430215,43.54088914580643 L 279.10629892349243,41.31688971770927 L 278.03554912656546,41.69608944514766 L 275.8118463046849,41.49588544201106 L 274.6757554896176,41.676068496424705 L 273.9148486535996,43.17326105898246 L 273.15604958869517,43.88852368388325 L 271.99888099730015,44.11597887519747 L 269.64238834008574,44.02405210258439 L 268.704428402707,44.48135407594964 L 267.36599114350975,47.04011021135375 L 266.59876099973917,47.66536088846624 L 266.04863166064024,47.77154731238261 L 265.0305762644857,47.54502044245601 L 262.5138926897198,47.468335173558444 L 260.0098557602614,48.14794664084911 L 259.51242082193494,48.54445131774992 L 259.02763252705336,48.66482822364196 L 256.78917529061437,47.752669469919056 L 254.54650248773396,47.2913759695366 L 253.97740319557488,47.26896181423217 L 252.18790206313133,47.69603661913425 L 251.58086281083524,47.368057128973305 L 251.26469653844833,47.47895302856341 L 249.91150486655533,48.654206552077085 L 247.96392061002553,49.80508656799793 L 245.44934480637312,51.70757663063705 L 245.07837639190257,52.16594489105046 L 244.92872434854507,52.73308699019253 L 244.8675988689065,54.11472467845306 L 244.66103688627481,54.69284520484507 L 244.22051188722253,55.23204345582053 L 243.39215623773634,55.75240674847737 L 234.58376374095678,58.75675995461643 L 233.4603195693344,58.96630409359932 L 232.51603629626334,60.21437743026763 L 230.97314484976232,60.60405435785651 L 230.50943433120847,61.52454070933163 L 229.98038274236023,61.84801678499207 L 228.78948978334665,62.2035221522674 L 226.702792333439,64.08123693242669 L 225.7816945798695,64.71094180177897 L 222.39239208772779,66.21513996552676 L 221.8591249845922,66.77880150731653 L 221.81696945987642,67.3769836933352 L 222.0614714026451,67.74852968519554 L 222.49356529675424,67.93966107396409 L 224.08072001114488,68.03582461364567 L 224.40320961736143,68.32551983371377 L 224.17346211522818,69.00711864838377 L 223.7603381741792,69.36460012709722 L 222.70855838432908,69.76725968206301 L 222.3165121935308,70.09274998679757 L 221.51977316848934,71.69573595095426 L 219.57429668307304,73.70386575954035 L 218.7227555140853,74.3818491473794 L 217.7763644438237,74.7910875971429 L 213.16033680178225,75.80727231502533 L 212.18443687818944,76.30001215683296 L 209.1281628664583,79.14367942791432 L 208.17966402880847,79.7870718864724 L 207.10891425795853,80.23633233690634 L 205.8779735416174,80.4043744164519 L 204.0800413042307,80.1827037408948 L 203.1821290962398,80.62248485954478 L 199.63817784003913,80.01396771986037 L 198.618828849867,80.1740015516989 L 196.072603398934,80.72260615043342 L 195.68898831307888,81.55230396566913 L 193.77497048676014,82.00385798094794 L 192.62638013996184,83.60060814348981 L 192.00681183114648,84.00033195596188 L 191.8060633596033,83.18096500588581 L 191.27433699183166,83.13734923256561 L 190.76657726988196,84.88811570918187 L 190.25735793448985,85.62031709821895 L 189.85878317430615,86.68519305251539 L 188.88255265913904,88.28401271253824 L 187.90428236313164,89.2625884078443 L 187.77640028111637,89.8528995225206 L 188.34760734438896,91.4324029139243 L 188.30755961500108,92.21467683883384 L 187.77640028111637,93.0833012163639 L 186.55389067158103,94.28852757113054 L 185.6412240229547,95.7109806840308 L 184.59155197627842,96.91841865843162 L 183.00861282646656,100.84102717088535 L 182.79572753421962,101.76485450007021 L 182.77043421939015,105.5253918170929 L 182.44162130355835,106.80155503703281 L 181.8598753400147,107.88346241926774 L 181.20014171302319,108.66988671896979 L 180.36546272784472,109.18706405255944 L 177.709666011855,109.64177081314847 L 177.2923265323043,110.54175898432732 L 176.0740324612707,112.08727315394208 L 175.86325493827462,112.64596816711128 L 175.70727958716452,113.46131565887481 L 175.80423722974956,114.19254289986566 L 176.33961212821305,114.51303684758022 L 176.84547817148268,114.33591762185097 L 177.35555978119373,113.90581356175244 L 178.03426338732243,112.87718206783757 L 178.30827415920794,113.11563964514062 L 178.19445430487394,113.90581356175244 L 179.07761210016906,114.89863799000159 L 179.10290541499853,116.23054070584476 L 178.84997239336371,116.65735448943451 L 178.3715074080974,116.53436812059954 L 178.15440657548606,117.3941705878824 L 177.66329494677484,117.96831102995202 L 177.05414792522788,117.73671197332442 L 176.78224492259324,118.77904627425596 L 176.1625590249896,118.88522994890809 L 174.13909485004842,118.76336034294218 L 173.6711687669158,118.67769256886095 L 172.98403405584395,118.26989866094664 L 172.26317492313683,118.35796785820276 L 171.69196786172688,118.86351025523618 L 171.46222035959363,119.69017432490364 L 171.48329810798168,120.7693992597051 L 172.06925961188972,122.02293976861984 L 172.30533044971526,122.24036934413016 L 172.69737661257386,121.81881169043481 L 172.87442974187434,123.23712098971009 L 172.46341357193887,123.49814280774444 L 172.14935507066548,124.06739328196272 L 172.33483930304646,124.79633504664525 L 172.32430042885244,125.95357313333079 L 171.98916415125132,127.94138011010364 L 171.14605408720672,129.24874676018953 L 170.7497923579067,129.44005721341819 L 170.73714571259916,128.55141402361915 L 169.85188012383878,129.99105068994686 L 168.48604180663824,131.1212054961361 L 167.67665613628924,132.59237518673763 L 166.82933050580323,133.44826322840527 L 165.29908573068678,134.06305299373344 L 164.90071623027325,134.96545789856464 L 163.1322928480804,137.32099666818976 L 161.33225283958018,140.39168713381514 L 159.77882254496217,141.4759295838885 L 158.76919822581112,142.51921715727076 L 158.4867563508451,143.87920203851536 L 158.89355695433915,143.92787134833634 L 158.98840682767332,144.10308748763055 L 158.4867563508451,144.492493707221 L 158.76709045656025,145.50518916500732 L 158.1726978495717,147.20028067054227 L 158.32445766218007,147.98239573510364 L 157.55301195196807,148.8159048561938 L 156.918571613729,150.23121551983058 L 155.64125986024737,150.8458252651617 L 154.7138387709856,150.95559050654992 L 152.80419445037842,150.4763123956509 L 144.6766133569181,145.27145952219144 L 143.73654562234879,144.87464825389907 L 142.90186663717031,145.05722354259342 L 142.17257642745972,146.1261230353266 L 142.0988043025136,147.9641196457669 L 141.54445942491293,149.04260149644688 L 141.0133000910282,149.3156356313266 L 140.2081299610436,149.41559191513807 L 139.06150027178228,149.21080704731867 L 138.18045024760067,149.6179528539069 L 136.67549876123667,149.11573318205774 L 135.46563579514623,149.05478997994214 L 135.22113387845457,149.3131976914592 L 135.25696606747806,150.54947958095 L 134.71105229482055,151.0714582335204 L 134.8459498975426,152.29383530141786 L 134.53399916738272,152.50127497920766 L 134.1124441474676,151.48983958968893 L 133.73936793766916,151.13488248270005 L 133.29673514328897,151.0714582335204 L 132.8288090582937,151.3641969813034 L 132.32926632463932,152.04980733525008 L 131.27959430217743,152.30237665446475 L 129.56597306393087,153.30554695241153 L 129.2118668332696,153.63879235181957 L 129.0411370396614,154.60578395985067 L 128.58585759997368,155.2103153965436 L 127.07458280399442,155.78076525125653 L 127.3507013451308,156.27312697377056 L 127.78490303643048,156.39042632328346 L 129.39524327032268,156.23647186299786 L 130.7231416553259,156.60182137275115 L 132.3124041389674,155.91026181308553 L 133.68667356297374,155.5401122746989 L 134.37170047871768,154.75598924653605 L 135.01457192189991,156.03487709118053 L 135.77758652716875,157.01487996149808 L 135.9504240900278,157.84972936240956 L 135.41504919156432,157.7409287756309 L 135.02932633645833,157.9927655030042 L 134.78903998434544,158.45493004098535 L 134.58669356629252,159.5531693296507 L 133.4737882707268,158.6713655325584 L 133.6508413720876,159.2865209877491 L 133.4358483105898,159.62656304007396 L 132.58852268196642,159.2865209877491 L 131.9688367843628,159.90302926953882 L 131.43135411664844,159.6975120510906 L 130.0064980890602,159.94217703212053 L 129.56597306393087,159.6975120510906 L 128.63644420541823,159.83207526942715 L 127.89872288890183,159.36846995167434 L 127.70902314223349,158.75329726282507 L 129.23083681240678,158.28130413684994 L 129.88003156520426,157.86806692229584 L 130.08237798139453,157.3351015248336 L 129.56597306393087,156.8071213127114 L 127.73010089248419,157.00632489472628 L 127.42868903465569,156.91833147453144 L 126.0122641120106,155.59508203389123 L 125.55066133849323,154.72545911418274 L 125.84574988484383,154.45680746762082 L 125.48110477998853,153.84388519031927 L 125.67291229590774,153.19935580948368 L 127.07458280399442,151.8704596851021 L 127.46030565910041,150.66167281428352 L 127.60574216395617,149.3131976914592 L 127.25163593329489,147.98239573510364 L 127.42868903465569,146.756930293981 L 126.92282299138606,145.63301785988733 L 126.45489690825343,145.25198287330568 L 125.92373754829168,145.10347770154476 L 124.16585306636989,145.31163047999144 L 123.71268139593303,145.10347770154476 L 123.21103089302778,145.33962876955047 L 121.39834423922002,145.3262382633984 L 119.8786383382976,146.02871304936707 L 119.80908175557852,145.51005871593952 L 120.28333117440343,144.58863622741774 L 120.27700783871114,143.88163547916338 L 119.63202862627804,143.2660369798541 L 119.03763604536653,143.0860046260059 L 117.13642282783985,143.2660369798541 L 117.13642282783985,143.47041127970442 L 116.96990857459605,143.21494561666623 L 115.9862943906337,143.52685981430113 L 115.2421233188361,144.04604358784854 L 114.72280966304243,144.99657060625032 L 114.19680382497609,146.87379035633057 L 113.4620017874986,147.81903581647202 L 113.1380999404937,148.5138523010537 L 113.14345369488001,149.05403413856402 L 113.78456513211131,149.78630069317296 L 113.85148700326681,150.10527275735512 L 113.49947802722454,150.98804503679276 L 112.4929731991142,151.91136691486463 L 110.89220225997269,153.94958665780723 L 110.25242927484214,154.0720798522234 L 108.99162137322128,153.89997064927593 L 108.39869369007647,154.07518098549917 L 108.07746874541044,154.5822645383887 L 107.63176914304495,156.55870999442413 L 106.86618304811418,157.6172920204699 L 106.30939315259457,157.88432617485523 L 103.56827369146049,158.27715905290097 L 103.53347432985902,174.10121795488521 L 103.25641780719161,174.26984184840694 L 94.74529539234936,174.27140324376523 L 94.90055410936475,186.7818512893282 L 98.84760553576052,197.5444898926653 L 99.00152582488954,198.23406556760892 L 98.92925019748509,198.8812866420485 L 98.57456434331834,199.4262645430863 L 97.13708272762597,200.66151844291016 L 96.76633563265204,201.70182149577886 L 95.9231201801449,202.4381475765258 L 94.99692158587277,204.10387189360335 L 94.61948228254914,205.18807089561597 L 93.71469871327281,205.63165610749274 L 93.31718286313117,206.087943457067 L 92.28792463615537,208.05288214003667 L 91.39652540534735,208.31044843234122 L 90.95751801133156,208.88571291510016 L 90.04202692955732,209.35201706318185 L 90.07147256284952,210.0207858644426 L 90.50512620061636,211.34614947624505 L 90.36994405649602,211.74245766364038 L 89.86535321548581,212.12853663880378 L 89.72615574300289,212.5178344817832 L 89.3085633199662,212.8169661522843 L 88.63131406903267,213.79292905703187 L 87.73991489037871,214.7066714768298 L 87.5712717846036,215.27296264423057 L 88.14144604466856,216.32902831025422 L 87.95674172230065,216.90753944823518 L 87.26476965658367,217.43781531555578 L 86.20874267444015,218.85317435022444 L 84.18770243600011,219.65116933966056 L 83.82364752143621,219.67496996186674 L 82.1800465863198,218.8436569008045 L 81.26723238267004,218.74531196430326 L 80.45078568346798,218.92534929234535 L 79.66244613938034,219.34019358316436 L 71.03086437098682,226.76876523485407 L 69.95743769593537,227.99475485878065 L 68.26029927842319,229.0222713588737 L 67.0704285800457,229.9872619411908 L 64.55550501123071,231.44654056522995 L 63.83007200807333,232.1796598341316 L 61.24822656810284,233.4128595464863 L 58.49773804843426,234.2685347958468 L 55.44476267695427,233.92479702737182 L 53.92831330373883,234.1090223295614 L 53.37687716446817,235.34947762452066 L 54.510533502325416,236.47714645927772 L 54.683191888034344,237.00163568928838 L 54.53462537936866,237.4248132710345 L 53.67401023209095,237.96705586044118 L 52.536338590085506,238.09804085223004 L 52.17496050149202,238.40875606099144 L 52.20039080269635,238.78501663682982 L 52.72104291059077,239.07663444941863 L 54.14514013752341,239.1781088267453 L 55.74591105058789,240.72306487243623 L 55.91455415636301,241.40030947234482 L 55.614744210615754,241.59064007550478 L 55.49963863752782,241.87856048718095 L 55.66828171722591,243.04495112225413 L 55.438070522621274,243.56750993384048 L 54.252215126529336,244.6049241134897 L 53.221618447452784,246.0664644325152 L 52.35431111976504,246.9061066042632 L 51.91798057593405,249.0921647134237 L 50.75354018062353,250.7190312128514 L 50.20210401341319,250.89878491824493 L 49.594453539699316,250.36838562088087 L 48.81012927182019,250.26889727683738 L 48.041866324841976,250.44942322699353 L 47.597505174577236,250.82977093895897 L 48.00171320699155,251.36427444312721 L 49.23039859905839,252.11725397361442 L 49.54894663952291,252.58536363532767 L 49.36691916920245,253.27282179845497 L 48.36041439138353,254.11873337859288 L 48.462135599926114,255.0742193670012 L 46.64453782886267,254.91508198995143 L 46.17206947132945,254.7133608008735 L 44.99290628544986,253.70096591347829 L 44.540514500811696,253.58769789151847 L 44.363840786740184,253.80459831096232 L 44.37053296901286,254.91025977069512 L 44.19252082891762,255.38046483090147 L 42.97186604514718,256.26001005154103 L 42.22501807101071,257.159149246756 L 41.48887758143246,259.3632385376841 L 40.40206654369831,260.461536177434 L 38.09727760031819,264.6640444127843 L 36.48981447890401,264.66807762067765 L 35.90224055014551,265.0012419037521 L 35.36686565168202,265.75404049642384 L 36.39210857450962,266.40050412667915 L 37.29689214192331,268.76333254016936 L 39.619080780074,270.94148790370673 L 39.619080780074,271.2899975073524 L 39.15598148480058,272.1877629184164 L 39.70072544179857,273.35207710880786 L 40.04604223743081,274.85940910922363 L 39.95636694133282,276.3441073917784 L 39.55885109119117,276.95993982069194 L 39.023476192727685,277.30195111827925 L 38.44527132436633,277.2987091233954 L 37.92863451875746,276.88295290153474 L 37.44947400689125,277.2379219252616 L 36.31715606711805,280.49890942592174 L 36.56878228858113,280.9119918453507 L 37.92863451875746,281.2179906931706 L 38.5550231654197,282.06393463537097 L 38.59116097912192,282.99462608015165 L 38.37567254714668,284.26694376720116 L 38.482747538015246,285.13013217644766 L 39.49192921817303,284.8326169918291 L 40.38065157085657,284.3628395353444 L 43.685253109782934,283.85901978146285 L 43.8672805801034,284.73345276573673 L 43.50188718736172,285.34638032782823 L 43.325213473290205,287.067247715313 L 42.787161722779274,288.2243473585695 L 41.764595651999116,289.1963172121905 L 41.9626843649894,289.7044256804511 L 42.682763611897826,290.5335718165152 L 42.784484818577766,291.91063582804054 L 43.038787918165326,292.26928103528917 L 44.10418395884335,292.4844919159077 L 44.8215863276273,292.98508918238804 L 44.901892537251115,294.5559931099415 L 45.07321252115071,295.1630767271854 L 45.672832414507866,295.19245535414666 L 47.14243648760021,294.53804386686534 L 47.53593705967069,295.06351833604276 L 48.02178975380957,297.00804727198556 L 47.71261074766517,298.68108587898314 L 48.11280350200832,299.31856300449 L 48.80209866352379,299.4918531952426 L 48.81012927182019,300.17858897382393 L 49.16749203018844,300.7706363275647 L 49.34818107448518,300.8442428810522 L 50.544743955135345,300.2456372240558 L 50.878014838323,300.2718029101379 L 51.65430841781199,299.934940373525 L 52.06520865857601,300.04122719401494 L 53.139973785728216,300.8180714249611 L 53.86406831070781,300.7232021014206 L 54.84380438551307,301.00618462404236 L 55.1221993342042,301.1566850799136 L 55.32831865362823,301.53951925132424 L 54.79294375516474,302.1662465329282 L 55.701742654666305,304.0211390242912 L 55.79944855719805,304.8548841527663 L 55.408624889329076,305.1841977802105 L 54.404796965420246,305.17436689930037 L 54.043418902903795,305.42670438066125 L 53.973820177838206,305.9265368282795 L 54.71531439758837,307.16424504853785 L 54.52793317101896,308.09906902583316 L 52.477447325363755,310.1010654945858 L 50.820462025702,312.7635173057206 L 50.483175840228796,313.6806596107781 L 50.53671334683895,314.23143185675144 L 51.01587386056781,314.85468752868474 L 50.36271648481488,316.37152823712677 L 51.39599004201591,316.1625389228575 L 51.46826567128301,316.6019299835898 L 51.217977875843644,318.35201734583825 L 51.51377251930535,319.4161576568149 L 51.84302809648216,319.7819556854665 L 52.37572611682117,319.96817038347945 L 54.18797013349831,319.9121397403069 L 54.72066815383732,320.0357383862138 L 56.0189522691071,320.7280017142184 L 57.57689321227372,320.7329471530393 L 58.33444869890809,321.6447166223079 L 59.53235003165901,322.51887161424384 L 59.83483685553074,323.04020915273577 L 59.88703588582575,323.5401999168098 L 59.69430092908442,323.96766283828765 L 59.263324143365026,324.2763391942717 L 58.70385736785829,324.3324662144296 L 57.306528897956014,323.6111636632122 L 55.65088202431798,323.3487726552412 L 54.75948281958699,323.92474825354293 L 54.3954279050231,324.91196771897376 L 52.980699740350246,325.25708995806053 L 51.5432181507349,324.6411869931035 L 49.89426345936954,324.71713476767763 L 49.06175549328327,324.42821515677497 L 48.264046888798475,324.55368477106094 L 47.135744305327535,323.7646502191201 L 46.60304628498852,323.7266903105192 L 45.892336098477244,324.0749525250867 L 44.91527692787349,323.7795042539947 L 44.44950077868998,323.91154392436147 L 44.13095271214843,324.3324662144296 L 43.46976470388472,325.9805130613968 L 42.26918649300933,327.6858346988447 L 41.49690821580589,328.39672488952056 L 40.458280904218554,328.74232274480164 L 39.501298278570175,329.63051125314087 L 37.92863451875746,330.2079185722396 L 37.25138526968658,330.1963360388763 L 34.828813875094056,329.08300620131195 L 34.2720239777118,329.1607413715683 L 33.81160156056285,329.6321655130014 L 33.64028160087764,330.156624908559 L 33.792863465845585,330.8169038435444 L 34.42995957285166,331.983984737657 L 34.53703453578055,332.62652364140376 L 33.404716650024056,334.3214266849682 L 33.21733542345464,337.0923925121315 L 32.35805872827768,337.8457744573243 L 32.210830645635724,338.23250986170024 L 32.83721926622093,338.63922727061436 L 32.35136654600501,339.26188167370856 L 32.17201595380902,339.82157237362117 L 32.106432534754276,341.2072201818228 L 31.70222450233996,342.7582608438097 L 31.247155813500285,343.33536713849753 L 30.59132156148553,343.38360390486196 L 29.14045560732484,342.80316059757024 L 28.38557699881494,342.7432944388129 L 27.684235898777843,343.0742391208187 L 27.38710280507803,343.415207865648 L 27.12343069911003,344.4433854664676 L 26.52782610990107,345.23227462824434 L 26.50373423472047,345.6884128889069 L 25.292448537424207,346.96904229652137 L 25.344647591933608,347.48214471386746 L 25.85860749334097,347.74873312190175 L 26.159755865111947,349.53060957277194 L 26.66300828009844,350.69810527563095 L 26.704499823972583,351.3020824692212 L 26.42878175340593,351.99800612498075 L 25.416923195123672,353.6810448379256 L 24.34349652007222,354.0251397360116 L 23.51366543211043,354.78699532104656 L 21.661268297582865,354.9591135256924 L 21.144631545990705,355.3050571922213 L 20.94118907675147,355.86836349917576 L 21.2195840254426,356.667575601954 L 22.49645314179361,358.37721764855087 L 22.635650616139174,359.1571533884853 L 22.12704447284341,360.9857791843824 L 22.27159570157528,361.8503266563639 L 22.555344380438328,362.2089682267979 L 22.598174376413226,362.560956930276 L 22.426854418590665,362.85264278110117 L 21.386888679116964,363.5753007461317 L 20.384399181231856,363.45624041184783 L 20.033728631213307,364.3233324554749 L 19.46890809945762,364.60600002342835 L 19.110206915065646,365.39713851269335 L 19.61881308630109,367.27910741837695 L 19.131621913984418,369.0373054854572 L 19.312310932204127,369.61972905602306 L 20.296062311157584,370.5007708929479 L 20.37636854685843,371.55456981109455 L 19.79013304412365,372.2419279436581 L 18.29911394789815,373.20219678012654 L 17.694140324369073,374.40032605594024 L 16.751880515366793,374.2571595539339 L 16.144229989498854,375.46170394076034 L 15.745375713333488,375.76503948960453 L 14.781700879335403,375.855204813648 L 14.43370720744133,376.0549286492169 L 14.273094736039639,376.5892913271673 L 14.618411555886269,377.5613897163421 L 14.376154396682978,378.783596385736 L 14.425676573067904,379.59367766743526 L 14.82988460548222,381.0575702819042 L 14.72816339880228,381.6158373760991 L 13.62395266443491,382.64994124509394 L 13.737719837576151,383.6413705367595 L 14.848622752353549,384.65434794081375 L 15.113633310422301,385.0814809272997 L 15.054742097854614,385.3877097116783 L 14.103113204240799,386.55460953433067 L 13.456648010760546,387.1175284939818 L 12.732553485780954,387.45026240870357 L 12.027197055518627,387.36897966917604 L 11.283025933429599,387.0337172127329 L 10.918970992788672,387.07181289000437 L 10.728912914171815,387.4434887673706 L 10.830634148791432,388.3276121681556 L 10.635222313925624,388.4800798785873 L 10.089139930903912,388.44619732443243 L 9.80003746971488,388.81808419758454 L 9.40386007167399,389.9018800784834 L 9.124126670882106,390.1019142633304 L 7.883395342156291,390.6478545013815 L 6.204995045438409,390.4503183993511 L 5.302888328209519,390.5969852968119 L 4.849158117547631,391.3143399483524 L 5.455470193177462,392.36956060957164 L 5.304226780310273,393.248697779607 L 5.509007673710585,394.0670244405046 L 5.970768518745899,394.9671648722142 L 6.595818739384413,395.6781737334095 L 7.27842172048986,397.2904014601372 L 8.260834647342563,398.0097506758757 L 8.086837785318494,398.9156205090694 L 8.954145139083266,399.5563148348592 L 9.37173756211996,401.3252800097689 L 9.260647267103195,402.90636369632557 L 9.990095548331738,403.73650923138484 L 10.927001627162099,404.4714366039261 L 11.50788339972496,405.3123610257171 L 11.49717591330409,405.8378755673766 L 10.980539109557867,406.80304141156375 L 10.209599258378148,407.27339158952236 L 9.026420766487718,406.7057391554117 L 7.732151955366135,406.94388071401045 L 7.113793943077326,407.2887584962882 L 7.0615948885679245,409.6513147689402 L 7.420296046882868,411.55262393597513 L 7.182054242119193,413.2363432254642 L 7.307867351919413,415.23388159507886 L 6.933104924857616,415.9989215140231 L 5.942661365494132,416.4488080460578 L 6.361592212691903,417.1216544988565 L 6.055090058594942,418.5348241389729 L 6.862167749553919,421.60416434984654 L 6.737693065777421,422.58004502626136 L 5.364456444978714,423.24088294571266 L 4.944187169894576,423.64744583144784 L 4.590839741751552,424.1495142322965 L 4.229461679235101,425.14622969646007 L 4.138447957113385,425.9807325270958 L 3.550874002277851,426.6089550345205 L 3.22027999907732,427.5860442239791 L 4.25489198230207,428.9520649644546 L 4.015311725437641,430.26715571340173 L 4.660438464954495,431.80810793535784 L 4.448965389281511,432.6294416789897 L 1.6275396924465895,434.4646754642017 L 1.7560296561568975,435.6549773965962 L 1.354498501867056,436.6029863646254 L 1.4133897386491299,437.3723911163397 L 0.8378616962581873,439.0763546684757 L 0.15793559327721596,439.88292604871094 L 0.0,440.2880474557169 L 0.28910245932638645,440.6932390355505 L 1.2045935150235891,441.1660512974486 L 2.781272603198886,441.1712475917302 L 4.1866317093372345,441.54367704177275 L 4.806328121572733,441.4743833257817 L 6.595818739384413,440.58241045381874 L 7.254329843446612,440.52699811570346 L 9.16561821475625,441.27690757997334 L 9.66351687349379,441.64242411544546 L 10.099847415462136,442.30950915813446 L 10.01954117976129,443.54888703813776 L 10.148031141608953,444.2980329040438 L 10.410364847630262,444.6969818766229 L 10.338089246302843,446.55559571972117 L 11.467730281874537,449.17161981761456 L 11.400808434933424,450.80073792347685 L 11.515914008021355,451.18166767572984 L 14.267740979790688,453.45288788946345 L 14.907513990998268,453.64269194565713 L 15.306368293240666,453.3606034498662 L 16.359718395397067,451.8915116144344 L 17.908290278166533,451.1677513169125 L 20.516424695029855,449.21141312411055 z" /><path fill-rule="evenodd" fill="#D2EBD9" stroke="#A6A6A6" stroke-width="0.25" opacity="1" d="M 272.25181401893497,35.93267197860405 L 272.7956200223416,35.377800120040774 L 272.25181401893497,34.265981771517545 L 272.11270087584853,34.23777974257246 L 271.366548454389,34.65965964831412 L 271.26115968078375,35.59762184880674 L 271.52673937380314,36.15605737827718 L 271.74594797566533,36.267755669075996 L 272.25181401893497,35.93267197860405 z" /><path fill-rule="evenodd" fill="#D2EBD9" stroke="#A6A6A6" stroke-width="0.25" opacity="1" d="M 259.5735463015735,41.102578565012664 L 257.4636633582413,41.22268532309681 L 256.62687660194933,41.62660552049056 L 256.1020405795425,42.48524612793699 L 256.3612969368696,42.89049794198945 L 257.2065147701651,43.32172133540735 L 259.10562021657825,43.04601468285546 L 259.47448086179793,42.89756673714146 L 259.56300742551684,42.21196468826383 L 259.9255447611213,41.95166145591065 L 259.8623115122318,41.259189206175506 L 259.5735463015735,41.102578565012664 z" /><path fill-rule="evenodd" fill="#D2EBD9" stroke="#A6A6A6" stroke-width="0.25" opacity="1" d="M 240.93238260224462,50.13094718987122 L 240.464456519112,49.861755662597716 L 238.4894711524248,50.11795937875286 L 237.63371444307268,50.57138255657628 L 236.58825793676078,51.52093981811777 L 237.33019481785595,51.78199804062024 L 239.51595767959952,51.10754163376987 L 241.45721862651408,50.96345504326746 L 242.06004231236875,50.72608026256785 L 242.6122794225812,50.221863333601505 L 240.93238260224462,50.13094718987122 z" /><path fill-rule="evenodd" fill="#D2EBD9" stroke="#A6A6A6" stroke-width="0.25" opacity="1" d="M 318.7661967519671,51.12998191593215 L 318.88423217087984,51.903674805536866 L 319.2552005853504,52.43414363870397 L 319.91282644309103,52.73781360313296 L 320.8866185694933,52.83234694227576 L 321.0173006337136,51.93793412297964 L 320.23953161388636,51.253996764309704 L 319.25098504684865,50.932748903520405 L 318.7661967519671,51.12998191593215 z" /><path fill-rule="evenodd" fill="#D2EBD9" stroke="#A6A6A6" stroke-width="0.25" opacity="1" d="M 315.920700263232,56.02681346097961 L 317.0926232431084,55.61166397482157 L 317.6575069949031,55.17882916890085 L 317.8640689793974,54.63609265955165 L 317.02938999421895,54.16082870354876 L 315.43169640377164,53.747097841929644 L 314.8583815712482,53.23178040841594 L 313.97311598062515,51.42762540187687 L 312.9023661836982,50.330493691843 L 312.51242779009044,49.70591799262911 L 311.5280967615545,49.20657879207283 L 309.80815221183,47.56625665118918 L 309.0472453776747,47.122683697380126 L 308.45074499957263,47.37631521327421 L 307.2240198496729,48.47482353821397 L 305.4935364257544,47.580414237920195 L 304.53239094279706,46.89384222775698 L 302.7997997496277,47.07195974839851 L 302.2749637272209,46.95517961261794 L 300.32737944461405,45.692094785161316 L 298.8793378993869,45.07546945102513 L 297.5451162047684,44.18433633400127 L 295.94531484507024,44.0028385897167 L 294.80922403000295,43.69054428394884 L 294.09047269262373,43.29344268934801 L 293.31481141783297,43.43483838811517 L 293.08506394177675,42.98946230020374 L 292.8026220649481,42.83512631524354 L 292.2461694162339,42.70082453638315 L 292.043822998181,42.841016883496195 L 291.7866744119674,43.88852368388325 L 292.01009857840836,44.72653165040538 L 291.60962130874395,45.77581376070157 L 291.8920631855726,46.07769137248397 L 293.11457276903093,45.646109202411026 L 293.63308548368514,45.70742344483733 L 295.00313934125006,46.47748575359583 L 299.3915272783488,47.8305412302725 L 301.10514849051833,48.98703516414389 L 302.7997997496277,49.64570997096598 L 303.8621184416115,49.64570997096598 L 304.5703309029341,50.04239491280168 L 304.37852336093783,50.43676602561027 L 304.77478509023786,50.890233147889376 L 304.86752719432116,51.4358936692588 L 304.7473840061575,52.73308699019253 L 304.5450375881046,53.22941675968468 L 303.4932577703148,54.22230176627636 L 304.15088362805545,54.60416977992281 L 307.7699336241931,53.23178040841594 L 308.7500490862876,53.46342685632408 L 311.48172572255135,55.23204345582053 L 314.9047526102513,56.007888139691204 L 315.920700263232,56.02681346097961 z" /><path fill-rule="evenodd" fill="#D2EBD9" stroke="#A6A6A6" stroke-width="0.25" opacity="1" d="M 322.66979639418423,59.023131950292736 L 323.48972093872726,58.525921809487045 L 323.58878637850285,58.102169253863394 L 323.24732679128647,57.46072687022388 L 322.49274326488376,57.21696447767317 L 321.67492649145424,57.53409579768777 L 321.7339441999793,58.26669235387817 L 322.2145169544965,58.92841941677034 L 322.66979639418423,59.023131950292736 z" /><path fill-rule="evenodd" fill="#D2EBD9" stroke="#A6A6A6" stroke-width="0.25" opacity="1" d="M 162.9378607980907,122.65619639446959 L 163.68464886397123,122.28167258761823 L 163.64237442985177,121.25360552873462 L 163.47164466418326,120.80562149686739 L 163.21533553302288,120.7653361861594 L 162.95889762416482,120.99897960945964 L 162.35379755683243,122.58683477388695 L 162.65770268253982,122.77327052457258 L 162.9378607980907,122.65619639446959 z" /><path fill-rule="evenodd" fill="#D2EBD9" stroke="#A6A6A6" stroke-width="0.25" opacity="1" d="M 272.7745422720909,24.880709864664823 L 272.94737983494997,24.113251105882227 L 272.6881235036999,23.91760617075488 L 271.92300110310316,24.194089755415916 L 271.8218278940767,24.513948390726 L 272.7745422720909,24.880709864664823 z" /><path fill-rule="evenodd" fill="#D2EBD9" stroke="#A6A6A6" stroke-width="0.25" opacity="1" d="M 307.6814070586115,46.63435044977814 L 307.88164570741355,46.327704617753625 L 307.93223231099546,45.643750990275294 L 307.5612638704479,45.02124023716897 L 307.03432007692754,44.71002872940153 L 306.6169805973768,44.94225576240569 L 306.67599830776453,45.61073611443862 L 307.0090267881751,46.25812356499955 L 307.6814070586115,46.63435044977814 z" /><path fill-rule="evenodd" fill="#D2EBD9" stroke="#A6A6A6" stroke-width="0.25" opacity="1" d="M 249.27917232364416,46.905637791380286 L 249.5847997199744,46.76173476781696 L 249.79136167652905,46.327704617753625 L 249.4562254268676,45.98924780962989 L 248.54777431674302,46.282889530994 L 248.29062575660646,46.63906831713393 L 248.4971877131611,46.95517961261794 L 249.27917232364416,46.905637791380286 z" /><path fill-rule="evenodd" fill="#D2EBD9" stroke="#A6A6A6" stroke-width="0.25" opacity="1" d="M 285.7795151360333,23.70791540062055 L 285.9270594101399,23.098831241950393 L 285.36428342573345,22.811896707396954 L 285.1155659686774,23.048469563480467 L 284.99542278051376,22.954775356221944 L 284.83101632259786,23.588432615157217 L 285.6509408671409,23.912920214235783 L 285.7795151360333,23.70791540062055 z" /></g></g></g></svg>