<svg xmlns="http://www.w3.org/2000/svg" xmlns:xlink="http://www.w3.org/1999/xlink" width="384.3507622741163" height="500.0" viewBox="0.0 0.0 384.3507622741163 500.0" preserveAspectRatio="xMinYMin meet"><g transform="matrix(1,0,0,-1,0,500.0)"><g><g><path fill-rule="evenodd" fill="#D2EBD9" stroke="#A6A6A6" stroke-width="0.25" opacity="1" d="M 13.527756173163652,445.6324947094545 L 14.974717639386654,444.0081705804914 L 15.724870460107923,443.5579494582489 L 16.715072244405746,443.3544178828597 L 17.76862022280693,443.37357313372195 L 18.742151891812682,443.5555548965931 L 22.06282844953239,445.08375133480877 L 24.486655632033944,444.8249959908426 L 25.520199541002512,445.1891776509583 L 27.427254738286138,446.5888817952946 L 28.387450402602553,447.00606424268335 L 29.064254947006702,447.09238627925515 L 29.731057472527027,448.0828996375203 L 30.271167512983084,448.3635744629428 L 33.55850396491587,447.5384298050776 L 34.54870568588376,446.7950669564307 L 35.20217217504978,445.7906695138663 L 35.59891964867711,445.654063437134 L 36.429088812321424,445.86976056266576 L 37.979404674842954,445.30179692897946 L 38.86625203117728,445.3185704285279 L 39.62974091991782,445.131671869196 L 40.033156426623464,445.35211775638163 L 40.22291029244661,446.3028062488884 L 40.88682902418077,446.3333093849942 L 40.9744476955384,447.2154348259792 L 41.32492238096893,447.88773358799517 L 41.790181117132306,448.26281582191586 L 44.07731373235583,448.78104503266513 L 44.617423774674535,449.0689953044057 L 45.417586816474795,450.4804183067754 L 45.660969734191895,452.8585478859022 L 45.89101661555469,453.3368420554325 L 46.214415811002254,453.5868403222412 L 47.231289668008685,453.77675912715495 L 48.64157701097429,455.00315582286566 L 49.3417196739465,456.51170681323856 L 49.25170131213963,458.22102716285735 L 48.29817371442914,460.06644756905735 L 47.43133042752743,460.9052767017856 L 47.89142415858805,461.75402743183076 L 48.52155256085098,462.39559986349195 L 49.21836117468774,462.71885891538113 L 50.618646467104554,463.0325075862929 L 51.28544902615249,463.4982261341065 L 52.87243901193142,465.59863345790654 L 54.1560338716954,466.3462639451027 L 54.66947180964053,467.1593643920496 L 54.656135741621256,467.63308752235025 L 54.31940050981939,467.99448141735047 L 54.58945553004742,468.5880519254133 L 55.27626209333539,469.31841782387346 L 56.15310742892325,469.7973805144429 L 57.95014022663236,470.18569655902684 L 58.87699572183192,470.0223788693547 L 59.32041939906776,469.378887956962 L 59.45377991721034,468.32207658234984 L 59.36042753979564,465.5636125281453 L 58.7269651517272,461.9421410150826 L 58.85365763492882,460.8040241152048 L 59.20706298388541,460.05439739115536 L 59.80051723122597,459.5628001252189 L 61.53420377150178,458.7725866101682 L 62.451057247817516,457.82850485946983 L 64.48813894577324,454.8107411051169 L 66.92863618209958,453.55318529251963 L 67.49541832692921,453.5243384828791 L 68.4256078377366,454.1927064154297 L 68.6923288423568,454.0941232033074 L 69.17576069012284,453.49068427365273 L 70.68273436650634,453.44260757789016 L 71.16950023174286,453.27194267418236 L 71.98966734483838,452.18572210054845 L 71.51290353015065,451.095157854259 L 70.58938205242157,449.9690479384735 L 69.84589723311365,448.31559366732836 L 70.89277717843652,448.10448888130486 L 72.74315418303013,447.10917150601745 L 73.16990777477622,446.6440227236599 L 74.49684479273856,443.6920496253297 L 74.55018903128803,442.8899472663179 L 74.10676532052457,441.05203992314637 L 75.38369217887521,441.4420070424676 L 76.44057417474687,440.9707045648247 L 77.41077182628214,440.7889053178951 L 78.44098175130785,442.05698305089027 L 79.24447877891362,443.6249986682087 L 79.36783724464476,444.41295777168125 L 79.00109586119652,445.1819893689826 L 77.68082684651017,445.69720138795674 L 77.1207127366215,446.9772908743471 L 76.70396116189659,447.4472963679582 L 76.77397542260587,447.79985684901476 L 77.83419143408537,448.78104503266513 L 77.26074125617743,450.3987842677161 L 77.40076980739832,450.92705040611327 L 78.22760492190719,451.5683193579316 L 79.24114476144314,451.9718965794891 L 79.60121814347804,452.9787138849497 L 79.53120385110378,454.0268002729863 L 79.65789633616805,454.6279604630545 L 80.25468460097909,455.5251535512507 L 82.59849547408521,457.1134501043707 L 83.18194767087698,458.59434040170163 L 83.91876445524395,459.0375700285658 L 84.58556698076427,459.8591930354014 L 85.06566478125751,461.52975626382977 L 86.00919036008418,463.507879242301 L 86.20923112146556,464.53614270407706 L 85.73246730677783,466.79567229095846 L 85.74913739226758,468.5227645263076 L 85.31904978118837,468.8214077083394 L 85.0089865885675,469.4538729293272 L 85.26237152516842,470.60069153737277 L 85.8224856685847,471.72865768894553 L 86.43927797116339,472.30251444038004 L 88.00959793664515,472.49625050183386 L 88.6497283577919,472.32551977876574 L 88.673066444695,471.7456051912159 L 89.73995045945048,470.85238325595856 L 90.09002179093659,470.9927605073899 L 90.58012167364359,471.90540149621665 L 91.35361258126795,472.34731455519795 L 91.66700978949666,466.5878715245053 L 92.90059442818165,465.7242297306657 L 93.54405886679888,464.03885566070676 L 93.9541424382478,463.4716802975163 L 94.63761501573026,463.0059665841982 L 95.38776783645153,462.7309216056019 L 99.08518783003092,462.6874961508438 L 99.69197811372578,462.9335834654048 L 100.18541201390326,463.6188924703747 L 100.21208408474922,465.0504296403378 L 100.56215541623533,465.44768454600126 L 100.90889273025095,465.43923164717853 L 102.10913726314902,464.87415999453515 L 104.9263779334724,466.1988945854828 L 106.33333126083016,466.44169623591006 L 106.96012561395764,466.39458364155143 L 107.62359412387013,466.22184503637254 L 108.43042520061135,465.6904147854075 L 108.86718084290624,462.9818386193365 L 109.34061061032116,462.3401191532612 L 110.61420345120132,461.20664741750807 L 110.94093666411936,460.41351592633873 L 110.96760876663029,459.36040510609746 L 112.03449281491339,459.33872087299824 L 113.39476996846497,459.8567832177505 L 114.29495335929096,460.4255677498877 L 114.71837296709418,461.3175607835874 L 114.30495540983975,462.14956431649625 L 112.97468437626958,463.507879242301 L 112.55126476846635,464.4226755024865 L 112.73463544435799,465.48270388599485 L 112.97801839374006,465.9367914227769 L 113.88820383511484,466.8597073117271 L 114.13158675283194,467.8796517075971 L 113.89487183839083,468.3994483835995 L 110.94760469719768,469.27488025836647 L 110.44083476252854,469.9086675522849 L 111.01095095649362,470.87900590803474 L 110.73089388385415,471.07021337002516 L 110.49751301854849,471.6729738274589 L 110.6475435886532,473.9715496310964 L 111.88779626041651,475.4452793337405 L 112.42457228526473,477.32261147908866 L 115.78859103098512,478.37588230054826 L 116.61876016296446,478.3831644318998 L 117.13219809904695,477.96083181351423 L 117.19554432481527,477.4305880619213 L 117.0188416838646,476.46624037623405 L 117.162204220891,475.9569211881608 L 118.49247522093356,475.4986210986972 L 119.11926963925362,474.8210215466097 L 119.89609453082085,474.5846920609474 L 121.01965680159628,474.69134064856917 L 123.33012756891549,474.0818074606359 L 123.9135797675699,474.1944934502244 L 124.36367144621909,474.9434367371723 L 124.62039043195546,476.106068411842 L 124.64372851885855,477.31775869987905 L 124.40034560114145,478.22296104673296 L 123.72687504254282,478.7910005012527 L 122.35326185263693,478.9391000038013 L 121.76980965584517,479.6190117970109 L 121.49975463375449,480.51774574816227 L 121.65311922132969,480.96480210963637 L 122.3132537137717,481.85428943671286 L 122.48328835330904,483.48825817834586 L 123.03006639704108,483.83974749501795 L 123.42014589905739,484.4345929613337 L 123.05007049813867,486.4695566119626 L 123.94358588755131,487.61920509207994 L 124.23031096160412,489.5616394514218 L 125.27719090506434,488.7096608337015 L 126.61412997357547,488.5609900923446 L 130.46491452120245,489.5299441581592 L 130.9616824053228,489.3982908818871 L 133.4288517460227,487.91644484642893 L 133.74224892258644,487.4401471912861 L 133.58555031754076,487.1137339742854 L 132.71870706416667,486.2978847566992 L 132.9120797906071,485.88518936932087 L 133.93895569816232,486.0884851720184 L 135.23922061175108,485.43483159597963 L 136.499477352947,485.59305626060814 L 137.66971579566598,484.8312340620905 L 139.62011318095028,485.29852284211665 L 141.29045349545777,485.0040235258639 L 141.7505472265184,485.0685184048489 L 142.20063893683255,485.5443707117811 L 142.92411968670785,486.78614502120763 L 143.5542480573058,487.2269994644448 L 143.600924231112,488.13330564647913 L 144.20771454647183,489.5872398298234 L 144.54778379574418,491.24693894479424 L 144.8145048301667,491.82766374293715 L 146.9015967193991,493.91009639855474 L 147.47838091477752,494.2569281719625 L 149.71216935664415,494.98494106251746 L 151.97262990102172,495.3636883273721 L 153.12286427430809,495.1119983289391 L 154.12640203163028,494.6209083907306 L 155.11326980032027,494.5708274580538 L 156.4602108541876,496.007689085789 L 157.07033518701792,496.30102653987706 L 157.63711733184755,496.16535369027406 L 158.20389947667718,495.6349551510066 L 158.76734760403633,495.4150068415329 L 160.32433150149882,495.9148059654981 L 161.09115440770984,495.9869122458622 L 162.80817089416087,495.6349551510066 L 163.90839504636824,495.58363217208534 L 164.9519410058856,494.8065829286352 L 165.55539727210999,494.57693483121693 L 165.9288066904992,494.66366120707244 L 166.91900844313204,495.41256309952587 L 168.38263996317983,495.64717510249466 L 169.49620021507144,496.5344985341653 L 170.86647938750684,497.27784124109894 L 172.29010273516178,497.77189391106367 L 174.59057148359716,497.8819682849571 L 177.85790383443236,499.58995915576816 L 179.93499367125332,500.0 L 180.69514857418835,499.73805577494204 L 180.67514447309077,498.48990999814123 L 179.98833787813783,497.55665113404393 L 178.03460647538304,496.46359900478274 L 177.69453719630837,495.6349551510066 L 178.24464928731322,493.5352296754718 L 178.67807094752789,492.56230063922703 L 178.6747369300574,492.13027901761234 L 178.20130709931254,491.65928858239204 L 179.66160463355482,491.2018041051924 L 180.40175543539226,490.3004966508597 L 180.84184509702027,490.1371004199609 L 182.19878823310137,490.0895468024537 L 182.70889215357602,489.7371899485588 L 183.0056193098426,488.7060049213469 L 183.0156213287264,488.12599544320256 L 182.71889423765242,486.9127915017307 L 182.7889084648341,485.98500928562135 L 183.28234233148396,485.58088483288884 L 184.6259494330734,485.22793723270297 L 185.16272545792162,484.88112277165055 L 186.0562408156693,482.3404797296971 L 187.17313505150378,481.35118048638105 L 188.48340201564133,480.81415481027216 L 190.23375863954425,480.5055986298248 L 191.7640704344958,479.56801210716367 L 194.11454934068024,479.7695883028209 L 195.70820732787251,479.6068689748645 L 196.90178385935724,478.88932793121785 L 197.975335938856,479.13577007781714 L 199.06222405657172,478.76915047783405 L 200.89593097567558,477.56890187133104 L 208.44746953248978,477.02418312523514 L 211.09134154766798,476.4104528250173 L 213.82189787365496,474.8719261987135 L 215.12216278724372,474.8064775876701 L 218.40949920751154,475.510744323954 L 219.81978655047715,475.26222865562886 L 221.7868539877236,475.4064860371873 L 222.71370951645076,474.6258966801688 L 224.08398868888617,474.5749969948083 L 227.98811744339764,473.3028352968395 L 228.9783191960305,473.35128697473556 L 228.92164097167552,472.6524609560147 L 228.62157986313105,472.1136358752847 L 228.5749036576599,470.9153100447729 L 228.22149834223092,470.1808573594317 L 227.6180420741439,469.85544269066304 L 225.72765689902008,469.73931965976954 L 223.4638623353094,467.19803233258426 L 221.19673378951848,465.8280928898603 L 220.36989864334464,465.5865572243929 L 218.9896174184978,463.1435001241043 L 218.1494462378323,462.6175345107913 L 218.57953384704888,461.59486524015665 L 218.77624062262475,460.4255677498877 L 219.2096622493118,459.8278653565794 L 219.32301869802177,459.18211801629514 L 219.59640773572028,458.77740425243974 L 220.47658702544868,458.91471066046506 L 220.00649124383926,459.73870397824794 L 221.47345681115985,459.4977428326383 L 221.92354849167168,459.23993952479213 L 222.82373194769025,459.0568426474929 L 224.40071988105774,457.6647710138932 L 226.9279014300555,457.4914171593264 L 227.17461836524308,456.6224169768393 L 226.251096887514,454.91416220832616 L 222.66036530770361,452.16890371683985 L 221.92354849167168,451.18401910178363 L 222.18360149301589,450.910240219906 L 222.17359947413206,450.28834235854447 L 221.26341399922967,449.3977779690176 L 222.80039382725954,447.5887944130227 L 223.76725749485195,447.6631440045312 L 224.80746943689883,448.16446007881314 L 225.91102760657668,448.4235517056659 L 226.4578056819737,447.5408281236887 L 225.98770990036428,445.69240823574364 L 224.73078714311123,442.8181294379756 L 224.62409872934222,441.2338577816263 L 225.11753259785473,440.2579335961491 L 226.0177160203457,439.7653279248625 L 227.66805223189294,439.4616810241714 L 229.25337522663176,438.225944083184 L 231.48716370016336,437.2129379659891 L 234.0576874371618,432.8691664831713 L 234.40442475117743,432.49002985376865 L 235.22792584821582,432.0608855774626 L 234.98120891489089,431.4578199405223 L 233.71428410708904,429.88526676315814 L 232.19064034707844,429.7280640276149 L 230.91704753786325,430.4188746372238 L 229.32705144397914,430.2792348610237 L 229.92034817300737,431.19667491782457 L 231.7501172926277,431.10660504736006 L 232.4352962821722,431.25297017302364 L 232.0310144405812,431.37682406790555 L 231.43509247899055,432.22707228176296 L 230.21437132172287,432.85790059901774 L 230.8076680507511,433.1283027268946 L 230.67903292551637,433.92840803414583 L 229.79433824680746,435.3808753732592 L 226.65459094196558,438.56299888994545 L 224.89045198634267,439.34973121620715 L 224.15014366433024,439.4796215929091 L 223.60672586597502,438.99962452147156 L 223.27594981901348,437.98345488868654 L 223.40983534418046,437.0805288804695 L 224.26827798970044,436.92631059139967 L 223.08956013061106,436.35465495008975 L 222.74828325212002,435.87335894070566 L 221.50393522903323,435.52372352499515 L 220.17295541241765,434.33606870658696 L 219.32501359842718,434.0730544505641 L 218.51907511614263,434.43000884354115 L 219.56653261743486,434.8058036006987 L 220.07057231850922,435.1403068937361 L 220.28321407176554,435.52372352499515 L 219.9996917564422,436.31893067620695 L 218.6792127378285,436.59533665608615 L 218.28280652873218,437.26861239317805 L 217.71576186455786,437.0692442879081 L 214.58914056047797,437.79720050189644 L 213.31854050420225,438.849055621773 L 211.83267346397042,438.3842295417562 L 211.45464368723333,437.7294750139117 L 211.19474820420146,437.5883858753368 L 210.87709818966687,437.7426436925307 L 210.60407667420805,438.3898746855557 L 210.2155460640788,438.5328894862905 L 209.94252458028495,438.3334236647934 L 209.85589275322855,437.89691077917814 L 209.97402704693377,437.46423381660134 L 210.33105515688658,437.26861239317805 L 210.33105515688658,436.92631059139967 L 209.61174850165844,436.8811753038317 L 208.9659476429224,436.4825142920017 L 208.61154473014176,435.839521182701 L 208.78743358701468,435.0613752566278 L 209.31772535294294,434.70809167902917 L 209.9687766470015,434.80768270697445 L 211.19474820420146,435.3808753732592 L 210.81934362649918,434.7174869151786 L 209.69050472974777,433.77625622972846 L 209.44898567907512,432.99873147252947 L 209.10770880058408,432.5255700396374 L 208.32014678232372,432.2833899743855 L 205.77632140740752,432.198913872242 L 204.55560025013983,431.90983881242573 L 199.29468587599695,428.4509535683319 L 193.8395061828196,425.80925882048905 L 190.6472547147423,424.6260536396876 L 189.84394146315753,423.9953563734889 L 188.6704740356654,423.7053245585412 L 187.77527849376202,423.1365821044892 L 187.34474458545446,423.0524038830772 L 188.16643433459103,424.83195245824754 L 188.00892191193998,425.25128782354295 L 188.53658847883344,425.26439316011965 L 188.6704740356654,425.9047625269741 L 188.88836618885398,425.9047625269741 L 189.17188850603998,425.32243180833757 L 189.33202612958848,425.3374097449705 L 189.54991828277707,425.56208905018866 L 189.10888354294002,426.19129481259733 L 190.15109064429998,426.2961773034185 L 190.45036422647536,425.9047625269741 L 190.0093294866383,425.9047625269741 L 190.0093294866383,425.56208905018866 L 190.72601094283164,425.6519662356004 L 190.93077706359327,426.85999338235706 L 191.2195498123765,427.1634933836758 L 192.25388128124177,427.4426698628813 L 192.8734300751239,428.4209617553279 L 191.4400671645999,427.63567521981895 L 190.57637415081263,428.7058978723362 L 190.45036422647536,429.3621200174093 L 189.75993483513594,428.9796160282567 L 188.89886702224612,428.2110289270058 L 188.36332482285798,427.3827099353075 L 188.6704740356654,426.534051512368 L 188.1375570371747,426.5546558126807 L 187.58363840542734,427.07169025577605 L 187.34474458545446,426.82065340224653 L 187.12685243226588,426.82065340224653 L 186.90633508004248,427.79308825265616 L 186.49942800588906,427.0454614078626 L 186.70156892575324,426.6295819832012 L 187.78577932529151,426.19129481259733 L 187.78577932529151,425.9047625269741 L 186.7987015862018,425.6014099260792 L 186.3839189130813,425.7455916078761 L 186.46530034020543,426.19129481259733 L 185.41259240545332,426.2100235139951 L 184.09473858773708,425.47595966327935 L 182.90551992878318,424.311621603556 L 182.2597190681845,423.0524038830772 L 182.2597190681845,422.76621824968606 L 182.46185998991132,422.76621824968606 L 182.04707731492817,421.9078506939113 L 182.12583351135254,421.5040112202987 L 182.46185998991132,421.16752636805177 L 182.14683517627418,420.72081659641117 L 182.02082525007427,419.599707971327 L 181.32777065970004,419.2728091068566 L 181.59816694259644,418.65835057012737 L 181.08625164069235,417.5418646624312 L 180.8421073909849,417.2133581498638 L 180.15692843310535,417.0939115062356 L 179.3641159813851,417.5418646624312 L 179.0910944659263,417.4149367688224 L 178.91783084347844,416.4389189798385 L 179.26435812190175,416.02286980487406 L 179.55313087068498,415.0622929278761 L 179.93641104735434,414.87394951842725 L 180.2908139899373,415.0958605129272 L 180.5402086097747,415.63300069235265 L 180.62159003689885,416.26167015358806 L 180.47720364667475,416.7803902346641 L 181.11775410734117,416.51541955955327 L 181.36189835704863,414.55883119627833 L 181.00749541446567,414.41899798903614 L 180.9182383865118,414.184095133096 L 181.36189835704863,413.62116024363786 L 181.24901446513832,412.9595877761021 L 181.5430376138538,412.409958246164 L 182.08645541220903,412.0746480124071 L 182.70075380802155,412.05974632967263 L 182.46185998991132,412.3447556393221 L 184.0212328247726,413.62116024363786 L 183.72195924445987,412.9204577775672 L 184.4648927655071,410.94981120340526 L 184.70378658361733,407.6879231762141 L 184.0212328247726,408.0003518620506 L 184.0212328247726,408.93786239251494 L 183.70095757953823,407.9315399490297 L 183.67995591461658,407.1189528275281 L 184.00023115985096,406.6616351697594 L 184.70378658361733,406.72297798562795 L 184.4648927655071,407.34764166362584 L 185.10281799174845,406.7936169775203 L 186.24478295445442,404.85359841771424 L 186.24478295445442,404.54340340476483 L 185.56485439650714,404.19981723837554 L 186.0058891363442,403.57590597402304 L 186.48105157352984,404.28153091017157 L 186.57818420045078,404.8443105854094 L 186.0058891363442,406.07058717217296 L 187.44450244680047,405.03193077258766 L 187.34474458545446,404.54340340476483 L 188.44995664991438,403.57590597402304 L 189.79143730178475,402.0037902807817 L 190.21147040836513,402.3322416236624 L 189.7888121008873,402.3322416236624 L 189.7888121008873,402.67187031544745 L 190.32172910124063,402.6848624655977 L 190.77851507253945,402.51040199398994 L 191.329808505252,401.7087759030983 L 191.30093120783567,401.2895046053454 L 190.98328119330108,400.7961120400578 L 191.109291119501,400.49196149688214 L 190.6472547147423,399.5333767654374 L 190.20621997490525,399.4944474827498 L 189.82819019816816,396.7986120795831 L 188.44995664991438,394.8992975782603 L 187.78577932529151,396.45233816094697 L 188.27669299580157,397.4968543117866 L 188.40007772110403,398.06558697950095 L 188.2478157300502,398.56773055624217 L 187.8802867848426,398.74378153681755 L 187.23448592610657,398.1211701259017 L 186.75669828802347,397.07825706899166 L 186.7409470230341,396.6430608937517 L 187.54426030628383,396.29310454055667 L 187.5232586413622,395.9487486090511 L 187.2764892242849,395.6155440667644 L 186.90633508004248,395.4896778082475 L 186.90633508004248,395.17873998358846 L 187.78577932529151,394.8992975782603 L 187.53375947475433,394.1166472751647 L 186.94571317732334,393.68379211612046 L 186.2264065220952,393.61350613459945 L 184.4648927655071,395.4896778082475 L 183.88209686800838,395.91912874020636 L 183.5381947569549,395.9339386560023 L 182.70075380802155,395.17873998358846 L 182.70075380802155,394.8992975782603 L 183.14178854599595,394.8992975782603 L 182.28859633393586,391.7534616170451 L 182.06282854825258,389.951991321519 L 182.2597190681845,387.99117891769856 L 183.32817823439837,385.0121405739337 L 183.14178854599595,381.8062950121239 L 183.25992283970118,379.80370040796697 L 184.37301050499082,374.09141055773944 L 185.14482132159173,372.6634308351204 L 185.40734200552106,370.7997740674764 L 186.0058891363442,369.11150972824544 L 186.68844289332628,367.85288584046066 L 187.56526197120547,366.62598245218396 L 188.88311575725675,365.3191309198737 L 189.5525435153395,364.10254406090826 L 190.58950018323958,362.9888955904171 L 191.76559281162918,362.04019425064325 L 192.63191105797887,361.68748807534575 L 194.47480621002614,359.1961210658774 L 196.41745922155678,357.425820321776 L 198.4992482252419,356.5848839273676 L 200.04286979697645,356.36055749375373 L 201.91989264637232,354.9493758883327 L 204.07256221212447,354.07459996268153 L 204.66585894301534,353.25840147119015 L 214.5366364289075,344.56899269949645 L 218.94173342175782,341.95569729525596 L 219.2593834362924,341.5566683690995 L 220.7741277422756,341.0253267074004 L 221.63782078772783,340.5031549707055 L 222.6380245592445,341.4279035581276 L 223.0160543359816,341.3825652860105 L 223.17356675863266,340.97999524883926 L 223.890248214826,340.5575431063771 L 225.04008877649903,338.7615051548928 L 225.6543871704489,338.6111348057166 L 226.22405703552067,338.2089807745069 L 226.5128297843039,337.61672854889184 L 226.2686855327338,336.9105435786769 L 230.8916746787727,325.03103549871594 L 231.53747553937137,323.8254224387929 L 231.8761272188276,321.8586724186316 L 233.29636409692466,318.9921609107405 L 233.74264923669398,317.42253624647856 L 234.2834418360144,313.695405411534 L 236.84039324335754,304.4902655631304 L 238.6649119630456,300.1038488885388 L 240.66531953774393,296.87485603429377 L 241.05647534690797,295.7351792436093 L 245.7398442234844,290.1026369705796 L 247.79275592975318,288.2721540350467 L 250.11606395058334,286.7290236726403 L 251.1215181555599,285.8547316947952 L 252.46562400460243,283.6187363304198 L 256.6974573414773,279.43048158474267 L 257.84729790501297,278.6860980624333 L 259.7059443220496,277.92419968545437 L 261.0027964748442,277.6761852474883 L 261.50421097688377,277.2457561418414 L 261.75623082742095,276.57456274703145 L 262.1578874364495,273.92326594144106 L 262.5201659798622,273.2935595912859 L 263.7907660678029,272.88680330943316 L 265.5759066902101,271.5343279186636 L 266.72574725188315,270.9988247714937 L 269.3352027889341,270.5323324818164 L 270.6793086733669,270.08005154225975 L 272.341064568609,268.2716680280864 L 272.9212352670729,268.0686519825831 L 274.86388827860355,266.766173328273 L 276.2184949629009,266.4856382869184 L 279.9725406616926,266.4962240131572 L 283.8053425569087,265.6177478339523 L 285.27283316478133,265.58070979453623 L 290.60462813451886,266.4962240131572 L 295.86554250866175,266.1998394038528 L 304.0168095678091,267.19144104607403 L 307.67372260801494,266.1433888114989 L 308.33264953270555,264.9617186328396 L 308.92332106269896,264.98993175663054 L 308.82093800231814,264.3005562191829 L 309.36960620060563,261.3140693977475 L 309.36435580067337,260.55694707576185 L 309.08870908617973,260.0675686551258 L 307.84436106309295,258.7371773906052 L 306.60001304000616,258.2516378518194 L 305.1797761954367,256.6900429641828 L 304.02993560023606,255.75842806417495 L 300.7326759044081,254.03664140310138 L 299.91886178962886,252.94087523128837 L 299.6379646733403,251.3103170581162 L 299.7981022633612,249.56848244555295 L 300.2968915645033,248.12216631229967 L 301.0004469882697,247.11281913518906 L 301.8877668660134,246.2527089305222 L 303.84092071279883,244.8903882689774 L 305.8885820172727,244.2392306048423 L 306.8231556266546,243.38875322043896 L 312.8663816507906,240.5941497385502 L 317.9907852653414,237.79360286612064 L 319.9386887103319,237.25757286604494 L 322.3013747986406,235.40582794323564 L 329.935476122424,232.80567497946322 L 330.6075290478766,232.23399915080518 L 330.8254212345928,232.23399915080518 L 330.8254212345928,232.55119515862316 L 331.027562154457,232.55119515862316 L 331.69961507990956,231.84888070635498 L 337.2440518029034,230.04597356263548 L 341.9536727759987,227.44207294471562 L 344.31635886244476,225.6993620749563 L 345.40319449454546,224.6128873489797 L 346.62391565181315,222.7902884753421 L 347.58474132604897,222.3717261068523 L 348.7424575202167,221.46707921195775 L 350.75861632823944,219.29433255735785 L 351.9242081232369,218.87455334048718 L 353.0897999498993,218.09240376297385 L 355.86989391222596,217.36941126640886 L 359.54255821555853,215.7784381909296 L 362.62455095909536,213.50271714944392 L 365.1394990682602,213.02840578835458 L 366.23421029932797,212.49533300381154 L 366.20533300191164,211.4934965306893 L 367.3998020943254,211.75819613598287 L 367.8854653649032,211.65438943821937 L 368.16898768022656,210.56983642745763 L 369.05368239060044,209.5842386400327 L 368.86729270219803,207.67108047101647 L 371.52925237081945,205.4484570538625 L 374.4878604207188,203.75890538003296 L 375.3463030345738,203.4587222021073 L 376.00785512663424,202.31348632089794 L 377.44121803715825,201.01013320870697 L 378.74857102148235,198.96665419451892 L 379.6096388362348,198.41898860037327 L 381.76493360102177,195.4241854995489 L 383.7889680415392,190.54971076268703 L 384.3087589778006,189.98991801217198 L 384.14599615335464,189.49890147149563 L 384.3507622741163,188.93244839459658 L 384.3087589778006,188.5239849658683 L 383.5264473594725,187.6883607711643 L 383.2586762756109,186.44481209106743 L 381.66255054064095,185.0698169004172 L 380.93011785298586,183.22951885778457 L 380.3236950915307,180.58935977797955 L 380.5652141086757,179.01189874205738 L 380.1268045697361,176.7755053564906 L 380.2134363986552,176.4285751953721 L 379.71464712917805,175.70237853564322 L 379.5413834732026,175.56911993585527 L 378.57530736736953,175.71604643948376 L 376.75866428017616,177.10538404248655 L 376.22837251238525,177.28999581933022 L 374.47473438829184,177.3635019697249 L 372.8812338542193,178.25427159760147 L 371.87315445020795,179.21886991616338 L 369.9672543350607,180.3976915096864 L 367.5100607872009,183.92163432296365 L 367.5100607872009,184.23348334617913 L 368.01672568917274,184.2626137956977 L 368.31337407045066,184.5505073927343 L 368.37375383265316,185.03382213320583 L 368.16898768022656,185.64579463750124 L 367.82508560083807,186.01098322030157 L 366.60961487703025,186.53570156358182 L 367.75420500710607,187.25777465384454 L 368.01410049013793,188.16705617215484 L 367.5704405512661,189.19677924737334 L 365.2733846269548,191.5528031308204 L 365.06599327363074,192.1644495734945 L 364.98198664560914,193.6906990967691 L 364.79297175630927,194.25809387117624 L 364.42281761206686,194.62954046577215 L 364.8454759195447,194.62954046577215 L 364.8454759195447,194.89267767313868 L 363.2440997529775,196.17431278619915 L 362.74531048350036,196.36015454679728 L 351.91895772330463,196.93840624019504 L 351.3335365932435,197.0967574864626 L 349.6087757349014,198.09353898558766 L 348.2856715153903,198.09353898558766 L 347.2775921113789,198.96148706041276 L 346.73154911212623,199.10100330784917 L 344.9621597547084,200.14500810857862 L 342.26869758963585,201.27730652410537 L 341.8591653164476,201.87896907050163 L 342.6099744681269,202.21864558383822 L 343.24002409540117,202.76876596733928 L 343.39753648638725,203.44492147490382 L 342.74123479425907,204.1695519220084 L 343.3817852549255,204.41803911235183 L 344.94115808978677,204.11778649222106 L 345.60271018370986,204.48534145578742 L 345.82847796939313,205.18952297512442 L 345.20892917364836,205.23095082025975 L 343.84382165782154,204.77527746744454 L 344.0643390119076,205.09113420546055 L 343.3817852549255,205.37422685790807 L 341.52838926948607,204.48534145578742 L 341.26586858555675,204.63030577078462 L 340.7618288844824,205.64353624358773 L 340.4336780384183,205.77992703858763 L 336.9999075829983,206.064814905636 L 334.62934586405754,204.940968436189 L 332.56593332625926,202.93089067935944 L 328.3918545525521,196.84890727046877 L 327.70405036211014,195.4964368874207 L 326.71434742212296,192.58374340459704 L 326.23918498679996,192.284732487984 L 325.06046712584794,190.278386535123 L 323.2884525693953,188.67157428339124 L 322.65052730962634,187.67978270817548 L 322.39850745908916,186.09157098736614 L 322.4772636536509,185.5583620266989 L 322.9366748575121,183.9798892410472 L 323.51684555597603,182.6985530173406 L 323.19919554144144,182.165972863324 L 322.6741541735828,181.71909256838262 L 322.1491128075868,180.7468111179769 L 320.6343685016036,179.2992676422 L 319.5344068687409,177.28999581933022 L 319.00411510281265,175.94157609157264 L 318.9411101397127,174.67063907440752 L 319.3401415478438,173.48903268296272 L 320.19333376176655,172.41712573170662 L 319.7759258877486,171.07950615510345 L 320.7525027934462,169.8754949197173 L 322.22261860221624,168.86628479789943 L 323.29895336925983,168.38566980604082 L 327.3286457862705,168.16413651686162 L 328.3839789200574,167.813126177527 L 329.4681893195957,166.95111603103578 L 330.439515825361,165.3453258825466 L 332.36904280632734,164.3853413509205 L 333.88378711231053,163.10925757233053 L 335.2515198588371,162.8387997848913 L 335.7713107932359,162.56326491665095 L 337.2440518029034,160.7032374581322 L 338.257381638512,159.90790327545255 L 339.40722220018506,159.34042582847178 L 340.5203098654747,159.22320625931025 L 339.34421723894775,156.39098474383354 L 339.0948225874454,153.51573338359594 L 339.1972056478262,152.9596694894135 L 339.9847676977515,151.55641788523644 L 340.1002767905593,151.07187637221068 L 339.34421723894775,147.3422390986234 L 339.4177230335772,146.08880703803152 L 340.512434264645,143.99418394453824 L 342.058681037277,143.53792695701122 L 341.09785536304116,142.81650973204523 L 340.96134460531175,142.52934375219047 L 340.96134460531175,140.6752653811127 L 339.520106093958,139.35887065995485 L 338.75617090798914,138.12739371787757 L 338.4647729601711,138.95900591276586 L 337.67721094191074,139.11084687989205 L 336.7636389657855,138.83922575321048 L 336.10996247269213,138.41244323924184 L 335.2830223571509,139.38924236316234 L 334.79735908843577,139.7081641368568 L 334.02292310260236,139.8279796447605 L 333.30624164640903,139.77060260996222 L 330.19274640642107,138.92020333837718 L 326.61983996257186,137.28927198331803 L 325.3282382413745,136.33676726277918 L 324.7795700095594,135.7064290754497 L 322.83954219706357,134.70895000267774 L 322.033603714779,133.9341147178784 L 321.67132517136633,133.40532230958343 L 321.32742309197783,132.2335595358163 L 320.5241098087281,130.85194844845682 L 320.3954746834934,129.88301849924028 L 320.8548858873546,129.47098307870328 L 321.16991070099175,125.59225538372993 L 321.7553317975253,122.8090216703713 L 321.51643797941506,118.72786312084645 L 321.2512920964509,118.18502537719905 L 319.98069200851023,116.98409750591964 L 319.5344068687409,116.3411219632253 L 319.1931299902499,116.24904046859592 L 318.2086774520576,115.40202437527478 L 317.17697118222713,115.04387265443802 L 314.1054792404175,113.4343948950991 L 313.02389404177666,112.45775507111102 L 308.6082962490618,106.96175498235971 L 308.04125158302486,105.63353995978832 L 307.1906845699996,101.29091767780483 L 306.41099815256894,99.47737953346223 L 305.63131173327565,98.63343344908208 L 305.1797761954367,98.33885715622455 L 303.1741181872785,97.77974090538919 L 301.27609370462596,98.35549915395677 L 295.44813463278115,98.03432559594512 L 294.5896920207888,98.26896195486188 L 292.96206382103264,99.19104384537786 L 291.70721496641636,100.61633342783898 L 291.37118851952255,101.46583464182913 L 291.4761967808008,102.22892502322793 L 292.1246228720993,102.83553704433143 L 291.2924322914332,104.13249846175313 L 291.0141603760421,104.86624701321125 L 291.12441906891763,105.49174275621772 L 291.58120504021645,106.2525216192007 L 291.7807207610458,106.9584170281887 L 291.2976827248931,110.12447886448354 L 291.8699777889997,110.9766821488738 L 292.9568134211004,111.47307731956244 L 296.25407311692834,112.496212602593 L 297.1046401299536,113.42435928247869 L 297.6506831292063,115.49742719437927 L 300.07112377882004,120.55815781094134 L 300.49115685373545,122.3241534307599 L 300.43340232409537,123.70850269775838 L 299.91886178962886,124.86010229494423 L 298.9737873468548,125.93152524717152 L 298.1100943349302,126.49594140704721 L 297.7766930554062,127.15120220649987 L 297.8712005149573,127.77971680182964 L 298.12584556639194,128.25034986902028 L 300.07112377882004,129.03546522185206 L 302.1109094526619,130.4078161008656 L 303.2266223486513,130.93775441963226 L 304.717739790678,131.03365817852318 L 307.0410477798432,130.75268577504903 L 308.06487844884396,131.1648999368772 L 308.92332106269896,131.88346779998392 L 309.62425125204027,133.0483567584306 L 310.0810372568667,134.60955758020282 L 310.29367897845805,136.36710780113935 L 310.2411748468876,138.12739371787757 L 310.0679111927748,138.95394465327263 L 309.74238557741046,139.57822887599468 L 309.2593475077301,139.97142719198018 L 308.59254498407245,140.10813079681247 L 308.1200077794492,140.44738566037267 L 307.6474705412984,141.2256255671382 L 305.8203266225755,145.43946602847427 L 304.2399399280548,156.67952132597566 L 302.99375600740314,160.5834314795211 L 301.78985096886754,162.20433606021106 L 300.9846957549453,163.71320069301873 L 300.07112377882004,164.6457313131541 L 299.1496762037277,165.29425488691777 L 298.8687790874392,165.8152212323621 L 297.8712005149573,169.53109654411674 L 296.89724877662957,171.32685091998428 L 296.3275789115578,175.56911993585527 L 296.3275789115578,175.3060376700014 L 296.17269172146916,176.13123963028193 L 295.7132805176079,176.97718835435808 L 296.1070615593344,178.59287038818002 L 295.86554250866175,179.53876364883035 L 294.8049589730799,181.1575942179188 L 294.36917466670275,182.61292255483568 L 292.7835497651249,184.49395457003266 L 291.90410548634827,185.9595454102382 L 291.2189265284687,186.5511358678341 L 291.03516204096377,186.85469483956695 L 291.0220360085368,187.39843712653965 L 290.5678752362728,187.20459919050336 L 288.1395589541644,187.39843712653965 L 287.436466248706,186.97244162671268 L 286.86177069693804,186.0890108924359 L 285.71649310551584,185.35779135953635 L 284.74206226319075,184.1122467406094 L 284.11294687353075,183.86705671902746 L 282.52724255248904,184.07425982505083 L 281.9535692092031,184.29568518605083 L 281.0226233638823,185.54293301329017 L 280.6498440206051,185.64579463750124 L 280.01454395987093,185.3783620558679 L 279.3109885696322,185.35779135953635 L 279.3109885696322,185.64579463750124 L 279.888534033671,186.12929368391633 L 279.3818691316992,187.22689848951995 L 278.4289190899581,188.33521901909262 L 277.01130741275847,189.14185136463493 L 274.987273003906,191.272795105353 L 274.5226114001125,191.49095850251615 L 273.0026166625321,191.14396624080837 L 272.4066947326064,191.24359338078648 L 272.0102884899825,191.51500905118883 L 271.6193505227566,192.37076922692358 L 270.98444776050746,192.98875866737217 L 270.1064314059913,193.37126457039267 L 269.49943805485964,193.88826595246792 L 268.88815002702177,193.73148160241544 L 268.01734897121787,194.31483951956034 L 267.8808382470161,195.0319954296574 L 268.6867767293006,196.1708713946864 L 268.9204201158136,197.08126621507108 L 268.702527962625,198.20890576485544 L 270.7059836797416,199.2546715568751 L 270.8976980596781,199.69473640061915 L 270.82781505957246,200.91144742071629 L 267.29804231598973,208.3553142780438 L 265.5759066902101,210.88633776828647 L 263.8511458300054,212.46937424968928 L 262.8903201557696,212.76012611854821 L 261.8507382553071,212.33958391379565 L 260.897788181901,211.58691711630672 L 260.4987567719072,211.48138667084277 L 258.81074880994856,211.58518703933805 L 258.409092169255,211.45024729240686 L 257.0544854532927,210.25337037164718 L 256.18029160797596,210.07699478976429 L 255.2824708968401,210.34329158999026 L 254.32164522260427,210.88633776828647 L 253.83073155209422,210.54735408257693 L 252.23985621891916,210.15999371092767 L 251.5783041268587,209.58942508790642 L 250.10293791815639,208.80464831087738 L 249.67765441164374,208.25163190905005 L 249.26549693755805,208.839215407148 L 249.20511717535555,209.7294631516561 L 249.5201419889927,210.53697765339166 L 250.22632264345884,210.88633776828647 L 251.1215181555599,211.0696825562045 L 251.47097337991,211.36270056664944 L 251.68340516276658,211.88103781733662 L 252.95478413254023,213.15504644159228 L 253.99218061566353,213.54283336736262 L 254.10112783685327,214.24030775483698 L 253.91998858004808,215.0144649716094 L 253.48420424200594,215.63290358241647 L 252.90403354354203,216.09552160650492 L 252.21539476141334,215.91912876907736 L 251.34901338629425,216.37207893375307 L 248.115656375885,219.66212426126003 L 246.63766496628523,219.6170151438564 L 245.8396020848304,219.34637564141303 L 245.48782437294722,218.89363285619766 L 245.18855082429945,218.0611916333437 L 244.50279311463237,218.0485402038321 L 243.96709723584354,218.6807678118348 L 242.987616866827,218.80019935779274 L 241.72065267153084,219.4504646845162 L 241.2874935325235,219.3429060811177 L 241.08272741176188,218.956075838767 L 241.2874935325235,217.3070033453405 L 240.16384006664157,217.56581171881407 L 239.95267814211547,217.8595978729427 L 240.31091662682593,219.61181030701846 L 240.05956439860165,221.17336169909686 L 239.3137105125934,223.20580389816314 L 237.50719576887786,226.391447535716 L 235.97932543046772,227.55690010171384 L 235.7430568113923,229.30946586001664 L 233.84206444583833,232.84885666146874 L 231.86673298291862,235.35812234133482 L 229.65257708914578,237.35359677299857 L 229.22204318270087,237.52644806262106 L 227.76505340635777,237.28026915341616 L 227.54716125316918,237.6626414405182 L 225.54150327853858,237.3850234951824 L 224.54917510598898,236.73560959100723 L 224.92983008362353,235.45293538551778 L 223.91387504711747,235.3901256248355 L 223.60672586597502,235.45293538551778 L 222.96092500537634,236.37954325415194 L 222.72465638630092,236.03922794293612 L 222.4857625681907,236.03922794293612 L 221.85833814181387,236.78623053617775 L 216.83106715418398,239.1751821450889 L 215.58671916276217,239.21361759211868 L 212.97463839314878,238.70002363622189 L 212.39971812814474,238.45374161098152 L 211.24462713301182,237.68883325345814 L 210.06065887399018,237.28899851161987 L 209.28622288815677,236.2451574150473 L 208.56691620126367,236.03922794293612 L 207.8056062478572,236.28704319801182 L 207.13092812150717,238.26336816418916 L 205.70544081181288,240.72874435596168 L 203.90979938954115,242.82541065756232 L 202.93322245031595,243.66521746478975 L 201.91989264637232,244.27598545514047 L 201.25571532174945,244.48602251335979 L 198.2551039736718,244.71533099096268 L 195.99742614850402,246.18790483940393 L 195.20461369678378,246.518946910277 L 194.6008161343634,245.73782066442072 L 194.08890083245933,246.23869710136205 L 191.70783828012645,249.89992600120604 L 188.5602153427899,253.6362152993679 L 184.66178325377405,257.11728403903544 L 183.80596583895385,257.379287391901 L 183.3019261378795,257.8013582266867 L 181.81868432834744,258.1935899145901 L 181.3172698263079,258.8163495110348 L 181.04949874430895,259.571236981079 L 180.76072599552572,262.1330507695675 L 179.59775939956307,264.3957538921386 L 178.86532668024302,265.43079894408584 L 175.360675631091,268.10572340060025 L 175.06927768327296,268.43938818667084 L 174.76475370116532,269.3169953962788 L 173.53353171050549,269.60664929263294 L 172.580581670627,270.5853389967233 L 171.42549067549407,271.2639123611152 L 168.54301362112164,271.1013222793117 L 167.96021772362292,272.4995563682169 L 167.4509276226163,273.2864850750193 L 167.004642451182,273.63669635728 L 166.75262259878218,274.23463454283774 L 166.04906717687845,275.1760308407247 L 165.5975316055119,276.95884077530354 L 163.854394312948,280.58467444684356 L 163.08258352801204,281.77128561772406 L 159.2392807994038,284.803107383661 L 157.63265423290431,285.26136706303805 L 154.62941768579185,286.7290236726403 L 154.62941768579185,287.0525112869218 L 153.99936805851758,287.33692750986665 L 153.29056223481894,287.3511491045356 L 153.5294560547918,287.0525112869218 L 152.59225721284747,287.0613988256082 L 150.20594426058233,287.9467443441972 L 149.184738824144,288.0054219486192 L 148.66494788974524,287.86139737907797 L 148.44180530309677,287.51470268238336 L 148.33154661022127,286.83744107652456 L 147.8590094074607,286.13191603589803 L 147.78025321103632,285.5633629253134 L 147.4836048297584,285.696606987156 L 146.87980726733804,285.5633629253134 L 146.18937787786126,286.3451538141817 L 145.28893196582794,286.6543780788779 L 144.8977761566639,287.15560876671225 L 144.64838150702417,287.8382830489427 L 144.65416081808507,288.32313037943095 L 145.0474129486829,288.90885969251394 L 145.4954679198563,289.06190179195255 L 146.42433070205152,288.7313901875168 L 147.14612487889826,288.77645053807646 L 147.64616300538182,289.50520474277437 L 147.92861101590097,290.5446896115318 L 147.8773858398199,292.3189990222454 L 147.20533291436732,293.4305263776332 L 146.96118869632483,294.2110031545162 L 146.0003629885614,293.94903744291514 L 145.59083074703813,294.55854739714414 L 144.99228358455002,296.088267643936 L 144.4593666177243,296.34330435842276 L 144.35960875824094,297.19954590592533 L 143.5746719390154,297.84904157277197 L 142.03367553651333,298.76466485578567 L 141.5270106345415,300.6236294955015 L 140.0306427925825,302.06024009920657 L 138.3295087981969,302.9790674885735 L 133.18147828616202,304.76040240656585 L 133.95853950455785,305.40812449809164 L 134.2656886857003,306.1168590877205 L 134.28931554965675,307.95756850391626 L 134.677846159786,308.7332602078095 L 134.22106015495956,309.7708479594439 L 131.5722265187651,311.1262230370194 L 129.9944772515446,311.5422941092402 L 128.4062271490693,311.5961010530591 L 126.98073987103999,311.12980961892754 L 127.22225889004767,310.49685756489635 L 126.31918774545193,310.0791542455554 L 125.70488938316703,310.7496620276943 L 124.99608352780342,312.9344439934939 L 125.80727244354784,313.6182226818055 L 126.27193404734135,314.42785305622965 L 126.98073987103999,316.87796525564045 L 126.87048117816448,318.34478260949254 L 127.22225889004767,319.8699656603858 L 126.83110308088362,321.5580227840692 L 126.6289621591568,324.27949148695916 L 123.68873057514429,330.56683371867985 L 121.6358188688755,333.4366466002539 L 121.17640766501427,333.97372137289494 L 120.11844933219254,334.48919712472707 L 119.82442618347704,335.1893173009157 L 119.09986909478903,338.56765576358885 L 118.10754095576704,349.3121093166992 L 117.7085095141083,350.9769220231101 L 116.36965406313539,354.27139953989536 L 115.41932919062674,355.8408493641764 L 113.99384191259742,356.89131151884794 L 113.00413897261024,358.59737206902355 L 112.51322530396283,358.9843529658392 L 111.91467814147472,359.1705619273707 L 110.73070988245308,359.9922278802842 L 109.22121600806713,360.52736026979983 L 108.96919615752995,360.08353976532817 L 108.38902542740107,359.8497875947505 L 105.97646041028202,362.0200905734673 L 105.61680706590414,361.7879954399541 L 104.58247559703887,362.72198196221143 L 103.99180409871042,362.65982782281935 L 104.21232145279646,362.32714520953596 L 103.77128671295941,362.0200905734673 L 104.12568962574005,361.38416167814285 L 104.67173262499273,361.0991394696757 L 104.67173262499273,360.82145499717444 L 104.21232145279646,360.18216015025973 L 104.63497976027429,359.92283293697983 L 104.51159503497183,359.6927468860522 L 104.18081898801029,359.7438754038885 L 103.7791623454541,360.6899303328246 L 102.23029034212232,361.4097420666367 L 99.3530636895448,363.9763436354697 L 99.02753807418048,364.1683900915086 L 98.08246363326907,364.2360669206828 L 97.3684073779732,364.5031328415498 L 96.24219368211925,365.82788452506065 L 96.04005272872746,365.8827918218449 L 95.81691017374396,366.4520644908771 L 93.43059718981385,367.81259045470506 L 92.95805998519063,368.80366871878505 L 91.97360744699836,368.5270088193938 L 91.4223140142858,368.60762198176235 L 90.9576524104923,369.38639795966446 L 89.41403083875775,370.0627445606515 L 89.19351345300674,371.0821731351316 L 85.80699669755995,372.97539143357426 L 84.77266522869468,373.75545392744243 L 84.226622229442,372.841427362524 L 84.12948956899345,371.57369260676205 L 82.65674855932593,372.1588666252792 L 82.06345183029771,372.62122724670917 L 82.12645679339767,373.13872663956136 L 81.52790966257453,374.1905534779653 L 80.62483851984143,374.66979659628123 L 77.3722073212266,375.2703503090888 L 75.81283448450267,375.83613432198763 L 74.87038524448872,376.3671262897551 L 74.57636209577322,376.24768975935876 L 73.08786985464394,376.28443889319897 L 72.3449363335967,376.4534914828837 L 71.75163960456848,377.1298102186993 L 69.66722543351352,377.29524059873074 L 68.85341131687164,377.1445146854967 L 66.96326243504882,375.6046625850722 L 66.20720288157463,375.6046625850722 L 64.22779697179794,374.1630133902654 L 63.29322336241603,373.91149405483156 L 62.50303611159325,373.13872663956136 L 60.108847526833415,371.52600391115993 L 59.413167737424374,370.6072465926409 L 59.58118095993996,369.7272990606725 L 59.250404914841056,369.22329416219145 L 59.11914455704391,368.64976162835956 L 58.36045980267227,368.04704498592764 L 58.18719618022442,367.5067316927016 L 58.24232551082969,366.53810669016093 L 57.80129077099264,366.0365383271128 L 55.186584800481796,365.05198285821825 L 54.25726162455976,364.5031328415498 L 53.34894008003175,363.60875060688704 L 52.59550572745502,362.4953092513606 L 52.4931226670742,361.0991394696757 L 52.05208792723715,359.87535326369107 L 50.52946798875928,358.1447488637641 L 49.99917622283101,357.09379199612886 L 50.492715092375875,356.17089785821736 L 50.492715092375875,355.89555069990456 L 49.74190593883395,355.7205103645101 L 48.791581097990274,354.60489861574024 L 47.95151491649449,354.2549990201369 L 47.50785497762263,353.79764748364687 L 47.25846032612026,353.21650514006615 L 46.08761809952557,352.80668472964317 L 43.77481094188988,351.2554019270465 L 38.16474405862391,349.87420863471925 L 36.576493956148624,348.8137771524489 L 35.23501327447593,348.49918467272073 L 31.268325820565224,348.5046397484839 L 30.367879908531904,348.1991743501276 L 29.947846801951528,348.1991743501276 L 29.359800504520535,348.54100699722767 L 29.01852362602949,348.544643741101 L 28.387450402602553,350.6904090633616 L 28.230751799419522,351.82197959255427 L 28.734187718480825,352.7493237266317 L 30.131138993427157,354.2960002180189 L 30.781271433457732,355.3399647185579 L 33.168424462899566,357.55656301695853 L 33.89190521277487,359.6265914523974 L 35.07214567437768,360.86752640642226 L 35.13549190014601,361.64485556818545 L 34.62872199714184,362.73814202379435 L 33.91524329967797,363.4556381907314 L 33.52182981185615,364.2918007494882 L 33.96525348909199,365.75339517742395 L 32.96838373504579,365.93469828460366 L 31.6414467189461,365.06316198874265 L 30.71125717461109,364.9888041866943 L 25.100113950669765,363.36506976466626 L 23.803183054551482,363.397581118159 L 23.189724704250693,363.7668456984684 L 22.79297723248601,364.4683575965464 L 20.922596158459783,365.032953848131 L 17.49189716950059,367.1553304940462 L 16.198300290852785,367.62978499382734 L 14.301247112452984,368.64409996569157 L 13.894497556611896,368.76277227234095 L 12.690919008105993,368.532413225621 L 12.26083136536181,368.70925277192146 L 11.957436239346862,369.0559854544699 L 11.500676525756717,370.31298130657524 L 10.273759858682752,371.43081214651465 L 9.460260778665543,373.1294215340167 L 8.616755612194538,374.17149546183646 L 8.503399163484573,374.8151288330555 L 8.85347049497068,376.49491075612605 L 9.080183358862996,376.8846795465797 L 10.163737427443266,377.48461569007486 L 8.340032557025552,379.2291737180203 L 7.61655180901289,380.4956933297217 L 7.516531428322196,381.9031315241009 L 7.859934724867344,382.5112277008593 L 9.503602935001254,383.77698552049696 L 10.610495153814554,385.7036959538236 L 11.060586865991354,386.0432989867404 L 10.697179466485977,387.0061362804845 L 10.927226347848773,387.9271353697404 L 11.520680563524365,388.66088453680277 L 12.26083136536181,389.0688720298931 L 14.59464018791914,388.73825659789145 L 13.427735792472959,391.18955143354833 L 13.131008667871356,392.69899797812104 L 12.764267284423113,393.6830704845488 L 13.00765023380518,394.4912724122405 L 12.974310096353292,395.238610885106 L 12.26083136536181,396.1037214240059 L 10.643835259601474,396.771556369029 L 10.083721147850156,396.81859343033284 L 8.493397144600749,396.4987581651658 L 7.883272843435407,396.65396747831255 L 5.659486420452595,397.9547946229577 L 4.602604392915964,398.87258393969387 L 4.039156265556812,399.8260135324672 L 4.1025025229901075,402.3772628167644 L 3.895793728530407,403.68565500341356 L 3.0489545445889235,404.3035381156951 L 1.9187242407351732,404.40967775695026 L 1.5786549914628267,404.70217377785593 L 1.1919095069169998,405.3745671333745 L 1.091889126226306,406.4743622802198 L 0.5667821448296309,406.9299925835803 L 0.0,407.79897961206734 L 0.9668636657297611,408.80765078868717 L 2.0854248963296413,409.4527434594929 L 3.2089871671050787,409.5260058073327 L 4.31254530325532,410.2634707307443 L 5.442775575444102,410.0719934431836 L 6.626350088045001,409.4291108455509 L 7.786586448550224,409.01793820410967 L 8.83680040948093,409.5260058073327 L 8.90014666877687,409.80962147936225 L 8.563411371782422,410.2681987034157 L 8.73344604484737,410.6559248967096 L 10.033710958436131,410.84980964753777 L 10.507140755653381,411.2801906745881 L 11.0672548674047,412.2641858467832 L 11.484006440266967,412.6640400774777 L 13.774473106488585,413.50653750728816 L 14.6046422701329,412.84150987677276 L 15.434811402112246,414.18830797914416 L 16.311656706035137,414.9270943114534 L 16.311656706035137,415.647139146924 L 15.96491939201951,416.56643339432776 L 15.801552753895521,417.89619402680546 L 17.01179936900735,419.4164151009172 L 17.678601894527674,420.61709344852716 L 17.96532696671784,421.31734995543957 L 17.998667104169726,421.88956411741674 L 15.938247287645936,423.0153660448268 L 15.138084245845675,424.6075233221054 L 13.734464935958385,425.670297536999 L 12.26083136536181,426.4979941174388 L 12.01744844764471,427.16652833484113 L 11.84074580669403,429.0707740811631 L 11.297301748767495,430.3283441429958 L 11.830743756145239,431.78436371311545 L 11.63403701223433,432.4709552396089 L 11.237289506942034,432.74993515200913 L 10.190409561619163,433.0170210180804 L 9.026839151978493,434.07609747257084 L 7.753246311098337,434.4101305603981 L 6.883069040253758,435.06161925476044 L 6.232936568558216,436.0451296996325 L 5.782844888046384,438.7875692769885 L 5.979551631957293,440.3727290360257 L 6.389635171741247,441.05443220585585 L 7.762283677235246,441.6187265627086 L 8.252898061648011,441.3786640241742 L 8.442453619092703,441.07461691182107 L 8.643159504979849,441.1386238485575 L 8.73344604484737,441.9038235768676 L 9.753653885796666,441.930147184059 L 11.170609263703227,442.5069417562336 L 11.820741703733802,443.05992422718555 L 12.724259112030268,444.98551709670573 L 13.06432842463255,445.41202479973435 L 13.527756173163652,445.6324947094545 z M 187.9615516308695,353.0097632454708 L 188.96175543405116,353.15318595059216 L 189.53694312274456,354.1282909391448 L 189.5285375788808,354.4049922255799 L 189.92528505250812,355.11908596754074 L 189.9919653274119,355.89242118038237 L 189.88861092925072,356.640500982292 L 189.66189809702337,357.06442896369845 L 188.73170855268836,356.90689594484866 L 187.70149866119027,356.3764487877488 L 186.87132952921093,355.533510139212 L 186.5479303020984,354.46401054691523 L 186.99802198261023,353.5094628306106 L 187.9615516308695,353.0097632454708 z M 188.7256454322487,265.3997138189152 L 188.75463053770363,265.3997138189152 L 188.7529255449772,265.44782135728747 L 188.7222354132682,265.4501121947542 L 188.7256454322487,265.3997138189152 z" /><path fill-rule="evenodd" fill="#D2EBD9" stroke="#A6A6A6" stroke-width="0.25" opacity="1" d="M 174.09270077571273,53.81088108662516 L 175.32129753381014,52.63028899114579 L 175.77020790427923,51.974599667824805 L 175.8332128673792,51.06014572735876 L 175.09552974812686,50.00181496050209 L 173.98244208283722,50.14596252143383 L 172.85622838512063,50.96183348167688 L 172.08704276755452,51.91067741625011 L 171.6880113594234,52.84505750890821 L 171.59875433146954,53.505851469002664 L 172.3705651164055,54.04377346672118 L 172.74334449321032,53.997849631123245 L 173.05311887525022,53.62064403947443 L 173.69891973398626,53.33695024251938 L 173.8800590224564,53.38614382315427 L 174.09270077571273,53.81088108662516 z" /><path fill-rule="evenodd" fill="#D2EBD9" stroke="#A6A6A6" stroke-width="0.25" opacity="1" d="M 182.92127116024494,98.61845429521054 L 183.36493110097945,98.5785102378577 L 184.2443753797561,98.89807740133256 L 184.97155766747892,98.35383491683751 L 186.0058891363442,98.03432559594512 L 185.6462358236313,97.57675420772284 L 185.14482132159173,97.54347900487483 L 184.2443753797561,98.03432559594512 L 183.77446337416768,97.78972422797233 L 183.39118319749832,97.88290336728096 L 182.92127116024494,98.61845429521054 z" /><path fill-rule="evenodd" fill="#D2EBD9" stroke="#A6A6A6" stroke-width="0.25" opacity="1" d="M 287.9374180343002,113.50799032021314 L 288.9244958050549,113.40428820066154 L 290.7542649246752,112.58650606311858 L 291.90410548634827,112.38418559450656 L 291.7964719943702,112.03308340907097 L 291.60745710507035,111.84918920509517 L 291.0220360085368,111.82411362696439 L 289.7146830242127,110.95161385741085 L 289.2605222519487,110.39849418029189 L 288.9454974383116,109.28254023753107 L 289.4626631718129,109.29924305994064 L 287.88491390272975,106.69806743878871 L 287.02384608983994,104.57272600661963 L 283.5480723064393,100.11673908308148 L 280.6498440206051,95.54763975273818 L 279.4737513922155,93.40358684398234 L 278.6651876773685,92.73575171548873 L 277.7568661328405,91.3440731195733 L 277.5468496121466,90.78459328878671 L 277.98788435198367,89.11175276245922 L 277.85399879328907,88.70364056807011 L 277.40508842282,88.24084831215441 L 277.2318247985095,87.00708180852234 L 276.1686160322279,83.44789776206017 L 274.6223692614585,81.60036152321845 L 274.0028204340488,80.46855640597641 L 273.837432410568,79.7787593305111 L 273.8531836755574,75.02887054625899 L 274.2233378197998,73.78065206483006 L 274.4543560054153,73.45877389144152 L 276.69103219918907,72.19799891393632 L 277.8986273240298,71.96372380852699 L 278.51817611791193,71.54801229573786 L 279.0117149874568,70.8585839131847 L 279.3109885696322,69.89067802391946 L 278.7833220027387,70.39025723747909 L 278.48404842056334,70.21877529285848 L 277.98788435198367,69.33678473252803 L 278.03513805009425,70.03741066157818 L 277.8461231607944,70.33089700527489 L 277.51009671390057,70.33089700527489 L 277.10581487230957,70.13963302969933 L 277.30533056147397,69.63844630215317 L 276.8012908603996,68.82254515588284 L 277.1635694038123,67.56203517317772 L 277.867124825716,66.70716135110706 L 278.40791742503643,67.09750763792545 L 278.8699538297951,66.84715323895216 L 278.8699538297951,66.57046960107982 L 278.2766571007669,66.48154086526483 L 278.3606636952609,65.88545576576144 L 278.838451333344,65.21047188621014 L 279.4212472308427,64.88949518091977 L 280.20093364827335,64.81213658768684 L 280.66559525206685,64.52247072476894 L 280.8152320422232,63.93334849644452 L 280.6498440206051,62.9561160588637 L 280.172056382522,63.21931297518313 L 279.9804162941873,62.89032035972923 L 280.0355456247926,62.38702989555895 L 280.2980663087219,62.12719326466322 L 280.95699320174754,62.20941765140742 L 281.24051554873586,62.05648206733167 L 281.5109118334949,61.551684205420315 L 281.605419293046,60.90066689439118 L 281.3586498424411,60.7740962235257 L 280.8493597395718,61.148892032913864 L 279.5315059237182,60.44865272101015 L 279.7520233094692,60.17254587542266 L 279.39499516412616,59.911253368481994 L 279.5315059237182,59.344374286942184 L 278.77019597031176,59.30330014042556 L 276.5177685432136,58.17315542884171 L 275.9927271772176,57.37179285194725 L 274.35722337663174,53.174616949632764 L 274.32309567928314,52.70898107253015 L 273.91618863865733,52.345047023147345 L 274.07370102778077,51.535365752875805 L 274.6643725577742,50.23442001454532 L 275.2366676237434,47.84204458259046 L 275.21566599048674,47.33956984244287 L 274.5777407307178,46.72427218127996 L 273.9135634060949,46.52465399261564 L 273.2572617121041,46.69318325817585 L 271.94990872778,48.09249406680465 L 271.1150929797441,48.44937870185822 L 270.8131941985339,48.42645824700594 L 270.3170301280916,47.88951384089887 L 269.50584124587476,48.249649193137884 L 268.25886802375317,49.137070732191205 L 267.0827753636986,49.57105035055429 L 265.94343563355505,49.39417582843453 L 263.81176773272455,48.311858639121056 L 263.57549911364913,48.740810432471335 L 263.17121727205813,48.58690488059074 L 262.63567507267,49.107595074921846 L 260.7087732926011,49.38434974756092 L 259.8818331770599,50.50308434292674 L 257.9838086627424,51.24039297364652 L 257.4062631651759,51.61075221374631 L 256.8812218308449,51.489479245617986 L 254.34527205489576,52.095891698263586 L 253.97249271161854,52.56143504008651 L 251.35253634117544,58.210929702967405 L 250.5570986904204,59.344374286942184 L 247.6194923054427,62.20941765140742 L 245.35131364688277,63.70957751292735 L 242.69985477812588,64.96850171405822 L 241.48438405431807,65.19071851111948 L 237.86159867979586,64.88949518091977 L 236.64087752252817,64.30853053927422 L 235.21801544353366,64.50601326022297 L 233.22810873389244,66.07316065300256 L 231.99951194413006,66.57046960107982 L 230.6134027633816,66.86032928153872 L 229.45831176824868,67.3610607245937 L 228.4134794678539,68.08924412541091 L 225.68326443620026,70.81900421343744 L 224.7276891618967,71.49852660577744 L 220.9683930631727,72.52469424065202 L 218.3746887575835,74.44432362541556 L 216.99908040836453,75.2617297694087 L 216.40840887837112,75.85304110124707 L 215.33469931222498,76.37507613562047 L 214.5366364289075,77.92188281938434 L 213.63619051873684,78.50048492476344 L 213.01401649042964,79.22802665643394 L 212.47059869207442,79.46286141686141 L 211.9823102541268,80.1658204253763 L 208.02874883264303,80.72168671060354 L 207.2175599168986,80.41892545297742 L 206.91041073575616,80.59429169911891 L 206.70301941595972,80.97483807988465 L 206.36699293740094,82.13662710692734 L 205.53217718750238,83.03061377629638 L 204.51622215285897,83.48101799655706 L 201.91989264637232,83.80230307392776 L 199.2999362759292,83.71286980994046 L 196.61697494238615,83.24587213620543 L 195.37787735275924,83.34357140120119 L 194.6323186326772,84.0391484266147 L 193.29346315003932,86.30585014168173 L 192.74742015078664,86.8810802148655 L 192.28538374602795,87.11650850437582 L 190.9990324266255,87.13972071744502 L 190.4372381940484,87.43154684640467 L 189.4107823241502,88.95745995920151 L 189.10888354294002,89.64437226671726 L 188.82798642665148,91.274340021424 L 187.88291198574007,92.7955518271774 L 187.89603801816702,93.29559355881065 L 188.44995664991438,93.56973798573017 L 188.49721038155258,93.40026392415166 L 189.10888354294002,93.84889246243984 L 189.54991828277707,96.23272871598601 L 189.19814057089388,96.88470568135381 L 189.08000627718866,97.53016901854426 L 189.9305732920766,99.2110198577866 L 190.33222990110517,100.9727615211159 L 190.371608030051,101.55246398318559 L 190.0093294866383,101.97065219748765 L 190.99378202483058,102.38056650850922 L 191.83909860625863,103.33891815599054 L 192.70016641914845,104.03078838437796 L 193.73449788987637,103.64898967556655 L 194.71107482723892,104.34926908370107 L 195.12848270125687,104.84122988115996 L 195.47763521410525,105.85709266830236 L 196.83749232813716,105.63353995978832 L 197.50692005455494,106.2525216192007 L 197.33103119768202,108.28555067162961 L 197.71431137435138,108.99526625778526 L 197.90857669524848,108.5109714847058 L 198.65413541533053,108.5109714847058 L 198.82214863970876,107.75963483098894 L 199.6175862904638,105.89046021923423 L 200.50753140076995,104.28590373322368 L 202.1377847995609,103.19556260481477 L 202.16141166538,102.83553704433143 L 203.17736670188606,102.24225584417582 L 204.56610108166933,102.43889221921563 L 207.2490624152124,103.64898967556655 L 208.34639884717762,104.51269119791687 L 208.66667406074703,105.0063466783613 L 208.50128603726625,106.13405432272702 L 208.19938725605607,106.53118859697133 L 208.13113189302385,106.90501014981419 L 209.24946998991072,107.89653102122247 L 209.06833070330322,108.25382614228874 L 209.62224933505058,108.88504054397345 L 209.9950287118554,108.99526625778526 L 211.43101682141423,108.4575368789956 L 213.0507693886757,108.31059660762548 L 213.79632810875773,108.66126145422459 L 214.07722525671124,109.57986449450254 L 214.57338932715356,109.3961212830618 L 216.62892623245716,110.13951564114541 L 216.79431425593793,110.0292477151379 L 216.95970231108367,109.29924305994064 L 218.1804234366864,108.4575368789956 L 218.36418792419136,108.17535111866891 L 218.4088164549321,106.85827989690006 L 218.99161235243082,105.31992690265179 L 222.93204770796,105.62186227925122 L 223.82724325172603,104.94630317948759 L 223.76423828862607,104.24088183324784 L 224.02413373999298,103.39559551514685 L 225.30523465946317,102.6955387564376 L 227.3712723981589,101.13266825210303 L 228.87551587074995,100.83118453901261 L 229.3323018439114,100.59967894572765 L 229.11178448982537,100.29325292538851 L 231.8761272188276,100.01349992118776 L 232.5823078416288,100.19000769685954 L 234.0182959511876,100.95943633746356 L 235.34402536973357,101.27592526655644 L 236.64087752252817,102.27558313496411 L 238.85655205138028,102.66054021567106 L 239.28708595782518,103.11555318441242 L 241.3111203983426,102.0689598750323 L 242.05405391938984,101.97065219748765 L 243.50841846130788,102.27558313496411 L 247.43835301697254,101.71240160055459 L 249.3101254682988,101.83069426286966 L 251.03226109407842,102.30224520899355 L 252.55750626511872,103.11555318441242 L 253.59708813391626,102.61554267443717 L 255.1328341048211,102.9105387814343 L 259.0968963261694,104.43097900599241 L 260.1653554942459,105.15646079182625 L 262.29439819417894,107.55263300612569 L 262.65142633765936,107.706213648431 L 264.3709367644042,107.66447898652405 L 266.8202546797693,108.29389930702746 L 267.88608864694834,108.78650888800621 L 268.79703539051116,108.71469974145293 L 269.10943500325084,108.54436860233545 L 269.90749785490334,107.61940621491522 L 271.1203434113413,107.313930939883 L 272.4644492622465,107.313930939883 L 273.09974932298064,106.47278318088502 L 273.7192981168628,106.34763257671148 L 276.60702557116747,107.49921551905572 L 277.4418413192034,108.60615426674485 L 278.6494364440441,110.98169581592083 L 278.49979965388775,111.3878318471834 L 278.6494364440441,111.82411362696439 L 278.53392735123634,111.95283728186041 L 278.7281926404685,111.95283728186041 L 278.83057573251426,111.52322283014655 L 278.6494364440441,110.53551124501973 L 278.7990732342005,109.99917534738779 L 279.192854244262,109.71016196068376 L 280.2980663087219,109.57986449450254 L 281.24051554873586,109.7385608907789 L 283.77646529302,110.62908750865608 L 284.87642692402005,111.47474881913513 L 286.139151411131,112.07655093353242 L 287.42812793143094,113.30058972816914 L 287.9374180343002,113.50799032021314 z" /><path fill-rule="evenodd" fill="#D2EBD9" stroke="#A6A6A6" stroke-width="0.25" opacity="1" d="M 269.7972391936928,118.86861502658576 L 269.7972391936928,118.28219275921583 L 270.6793086733669,117.63726175762713 L 271.1203434113413,116.59394214395434 L 270.4587912876159,116.0347527815029 L 269.2144432645291,117.36592997051775 L 269.119935836643,118.01750283688307 L 269.55572014302015,118.86861502658576 L 269.7972391936928,118.86861502658576 z" /><path fill-rule="evenodd" fill="#D2EBD9" stroke="#A6A6A6" stroke-width="0.25" opacity="1" d="M 267.90709031187,120.55815781094134 L 267.6393191963434,120.87673085741699 L 267.67869732528925,121.57771182153374 L 267.97009527496994,122.26376015599817 L 268.4583837110549,122.55399457924068 L 269.524217678234,122.54057270195335 L 269.7893635611981,122.30234458390623 L 269.55572014302015,121.70853524375707 L 270.2172722686082,121.1181984487921 L 270.2172722686082,120.86499333847314 L 269.35620445385575,120.86499333847314 L 269.7972391936928,120.02001466508955 L 269.7972391936928,119.71326638292521 L 269.2301945295185,119.60934789199382 L 267.90709031187,120.55815781094134 z" /><path fill-rule="evenodd" fill="#D2EBD9" stroke="#A6A6A6" stroke-width="0.25" opacity="1" d="M 266.47372740134597,123.65311629883945 L 266.4212232697755,123.25201553106308 L 265.20575251430273,123.76892534829676 L 264.23180080763996,124.58475208003074 L 264.91435456462204,125.0884608970955 L 266.090447191149,125.13379889912903 L 266.59186169318855,124.9776376048103 L 266.9147621393204,124.49913010373712 L 266.47372740134597,123.65311629883945 z" /><path fill-rule="evenodd" fill="#D2EBD9" stroke="#A6A6A6" stroke-width="0.25" opacity="1" d="M 59.780696680769324,145.36845309473574 L 60.01434009894729,145.0235575279221 L 60.53150583431125,145.31265843100846 L 60.68376782536507,145.21121624391526 L 59.89095537364483,144.3812130810693 L 60.02221569977701,144.07699378207326 L 59.71769171953201,143.4821670949459 L 59.17164871841669,140.9521208088845 L 58.68336024880409,140.6752653811127 L 58.2948296405375,140.72928389161825 L 58.02180812507868,141.5261724665761 L 56.84571549668908,143.53792695701122 L 56.34167579561472,144.89507738500834 L 56.47818655334413,146.08880703803152 L 56.23666753433645,146.08880703803152 L 56.23666753433645,146.37293898686767 L 56.69870390743017,147.22211641911417 L 57.52301885560155,146.67739663366228 L 58.54684949107468,146.74167506955564 L 59.41579293832183,146.58098162338138 L 59.780696680769324,145.36845309473574 z" /><path fill-rule="evenodd" fill="#D2EBD9" stroke="#A6A6A6" stroke-width="0.25" opacity="1" d="M 54.93981538154185,150.3486019447446 L 55.139331102371216,147.3117849966511 L 54.93981538154185,146.65709844231606 L 54.43052524700761,146.41860562376678 L 53.76372272334993,146.47442134097219 L 53.29118551872671,146.7636653687805 L 53.37519214488566,147.4826703928411 L 52.57975449599326,148.3017052784562 L 52.31985901109874,148.8399562239647 L 52.4931226670742,149.4951310157776 L 52.98666153661907,149.83547349646688 L 54.93981538154185,150.3486019447446 z" /><path fill-rule="evenodd" fill="#D2EBD9" stroke="#A6A6A6" stroke-width="0.25" opacity="1" d="M 236.84039324335754,213.81954593863338 L 236.52274322882295,213.990959870629 L 236.0370799601078,213.9424781035632 L 235.08150471933186,213.50271714944392 L 233.7584004998207,214.40135660488158 L 234.15743190981448,215.62597356829792 L 234.43570382520556,215.8252187659964 L 234.19943523965776,216.40744159463793 L 234.85573693178594,216.40744159463793 L 236.89289737306535,215.67448411136866 L 237.52294700033963,215.24311562813818 L 237.41268834099174,214.7356054438278 L 237.52294700033963,214.40135660488158 L 236.84039324335754,213.81954593863338 z" /><path fill-rule="evenodd" fill="#D2EBD9" stroke="#A6A6A6" stroke-width="0.25" opacity="1" d="M 53.936986377462745,228.99437605869025 L 53.17567642591894,228.41651300992817 L 53.02341443486512,226.2731897449121 L 51.83682097494602,226.36536081135273 L 52.22535155154765,227.16024421993643 L 52.272605281323195,227.98319354467094 L 52.456369768828154,228.32949572615325 L 53.485450806096196,229.30946586001664 L 53.965863674879074,229.52883096504956 L 54.03674423880875,231.06486596539617 L 54.819055857136846,231.0387359308079 L 55.18133440054953,231.61888037342578 L 55.596117075532675,231.94123463798314 L 55.65387160517275,231.35753924120218 L 56.1054071765393,230.73041955102235 L 56.08440554328263,229.71513067744672 L 55.79563279636204,229.30946586001664 L 53.936986377462745,228.99437605869025 z" /><path fill-rule="evenodd" fill="#D2EBD9" stroke="#A6A6A6" stroke-width="0.25" opacity="1" d="M 102.88921723514795,207.67108047101647 L 103.99180409871042,206.510333141312 L 103.99967969954014,206.08553512580693 L 103.62952555529773,205.3604167997837 L 103.42213420197368,204.0142584554851 L 103.14911271817982,203.3672934146598 L 102.43243126384914,202.16863990481943 L 101.90476469695568,200.62062209751457 L 101.50573325529695,200.0519625004381 L 100.31388939544559,199.59194810688496 L 99.36881495453417,197.8060032837093 L 98.15596939623356,196.6165672186762 L 97.53117020055652,195.22120319772512 L 97.69130782410502,192.3947098851204 L 98.44999257847667,190.2165694013238 L 98.78601902350783,189.6671424554661 L 99.52107694372535,189.20707836095244 L 100.24300879985094,188.18078334722668 L 100.95443982258439,187.65747993253171 L 100.89143485948443,187.00905913859606 L 99.69959099963307,183.82226097304374 L 99.50270047970116,182.48619412072003 L 99.80459926091135,181.33390657324344 L 100.22725756652653,181.6095233000815 L 100.41889765486121,181.60096339974552 L 100.48715301789343,181.33390657324344 L 100.3821447584778,180.94363737665117 L 99.80459926091135,180.7331193499267 L 99.40819305181503,179.67049492523074 L 99.39244181849062,179.17781658377498 L 99.5840819068253,178.72455844376236 L 99.36881495453417,178.72455844376236 L 99.36881495453417,178.46460861619562 L 99.80459926091135,178.14996378403157 L 99.80459926091135,177.89006574545056 L 99.40556785091758,177.3874345831573 L 98.95403227955103,175.44953412842005 L 98.90677854977548,174.4213004047051 L 99.14829756878316,172.27377975266427 L 98.33710868470371,169.52427716366947 L 98.26622808910906,168.95832656882703 L 98.48674547486007,167.097605609335 L 98.39748844690621,165.93781517073512 L 97.60467599704862,163.2164270253852 L 98.13496776297688,162.47142579313368 L 97.94595287553966,161.1553833251819 L 97.14263959228992,158.93782178126276 L 96.75410898402333,157.11406017187983 L 96.80136271379888,155.8869748339057 L 97.06125819683075,155.48315095435828 L 97.80419168435037,154.92501588258892 L 97.80419168435037,154.6654939847067 L 96.92212220653892,154.33476424682885 L 96.10305769182742,153.38857532199472 L 95.64102131873369,152.2138963136822 L 95.82478577457368,151.2023219531402 L 95.57801635563374,150.83810536097735 L 96.04005272872746,150.08948623668402 L 95.60426842048764,148.51496268063784 L 95.32599650509655,148.11892554629594 L 94.19453237578273,147.5029743053019 L 94.06064681708813,146.65709844231606 L 93.69049267284572,146.94128549844027 L 93.845379864797,147.4826703928411 L 93.34396539442241,147.86508380249143 L 92.83992569334805,147.94631077442318 L 91.61920453608036,147.4826703928411 L 91.46169211156666,147.85493057314306 L 90.51661767065525,148.3863293658942 L 88.46370596624911,150.4790152637288 L 87.40574763156474,150.9566825190559 L 86.75732157193124,151.51236532721668 L 86.53680418618023,151.2023219531402 L 85.4762206505984,151.67502418439835 L 84.31062885560095,151.79363533761352 L 83.70158086158335,151.50728239677846 L 82.68825105763972,150.08948623668402 L 81.74842701666057,150.39094326924533 L 79.68763970956206,152.6477775555104 L 79.38836612924933,152.4206598121673 L 78.58242764696479,153.217344481498 L 77.78173959441483,153.28854814264923 L 77.73711106553674,153.14953307807446 L 78.16239457204938,152.9596694894135 L 78.01013258099556,152.31049710698426 L 78.55355038121343,151.75635700765997 L 79.75064467266202,151.871582377702 L 79.9081570636481,151.65130255557597 L 79.87927979789674,151.14133367314935 L 78.57717724516988,149.75419408269227 L 78.17814580537379,149.18022250849754 L 77.92350075393915,148.3863293658942 L 77.9366267863661,146.63172596413642 L 78.36453549191356,145.21121624391526 L 78.7451904695481,144.7395563069731 L 78.78194336779416,144.44206074345857 L 78.27790366485715,143.57003161124885 L 77.92350075393915,142.11891410313547 L 78.16239457204938,142.11891410313547 L 77.82111769355834,141.88416734244674 L 77.4824660141021,142.11891410313547 L 77.21469493024051,141.60046972054988 L 73.9358116351068,138.2606383068487 L 73.37926780246198,138.12739371787757 L 72.59958138503134,137.25386360753328 L 72.21892640925944,137.36008993070573 L 71.0559598132968,138.41244323924184 L 71.0559598132968,137.56243637483567 L 70.5912982095033,138.35003358498216 L 69.80373615957797,139.01130580157042 L 68.92954231239855,139.43648785259575 L 68.18923399224877,139.5174818802625 L 66.64823762141168,138.60474075376987 L 66.09431898966432,137.81538893468678 L 66.20720288157463,136.9706122111529 L 65.75041691027582,136.68738801404834 L 65.55090118944645,136.9706122111529 L 65.81079667247832,137.74961917381734 L 65.49839705973864,137.98234953638166 L 64.42468749172986,138.12739371787757 L 64.42468749172986,138.41244323924184 L 64.91297592967749,139.11928273923695 L 64.92872719466686,140.13851023837924 L 64.53494615294039,140.85758186876774 L 63.78676223196089,140.6752653811127 L 63.53474238142371,142.87901428807527 L 63.12521010637283,144.66856031864882 L 62.883691089227796,144.66856031864882 L 62.631671238690615,144.44206074345857 L 61.87561168521643,144.84098218102008 L 61.34531991742551,144.9271968929097 L 61.786354657262564,145.77933752723038 L 61.34531991742551,146.08880703803152 L 60.64701492711902,145.65251523070037 L 60.07734506204724,147.2762556253001 L 59.72819255106151,147.5029743053019 L 59.33966194279492,147.22211641911417 L 59.11914455704391,149.21069605089724 L 58.58360238932073,149.6830764627084 L 58.38408666849136,149.61704020947218 L 58.483844527974725,149.21069605089724 L 58.28432880714536,149.35121699608862 L 57.93517632968724,150.67549305967987 L 57.336629167199135,150.94313059188426 L 57.10036054812372,151.5462518390268 L 57.06623288244009,151.9020839780569 L 57.22637047432363,152.20372802112252 L 58.83037183992565,154.0956445261836 L 59.01413629576564,154.86903859581798 L 58.483844527974725,155.78007481992245 L 58.53372345864773,156.41983644105494 L 57.39963413029909,157.28212454821914 L 57.13973864540458,158.081836191006 L 58.02180812507868,159.48313430324197 L 58.13994245044887,160.09991916269064 L 57.55452132038772,161.87964305002242 L 59.116519356146455,164.19644558336586 L 60.02221569977701,166.3567168265581 L 59.780696680769324,166.6717843255028 L 60.037966933101416,167.23728858679533 L 59.33966194279492,172.13044087775052 L 59.47617270052433,172.80965701211244 L 59.397416504099965,173.90732076391578 L 59.46304666809738,174.1378318918869 L 60.19022892229259,173.820243537426 L 61.19568312726915,172.19528377149254 L 61.749601759016514,171.6049258010462 L 62.43740594945848,171.34902771748602 L 63.3247258272022,171.56056853756309 L 61.670845564454794,172.08948824182153 L 61.34531991742551,172.41712573170662 L 61.42407611384988,173.1288412651047 L 62.663173735141754,174.99515315517783 L 62.44790678098798,174.99515315517783 L 62.18801129795611,174.46911711711437 L 61.786354657262564,174.1378318918869 L 62.16438443399966,174.55792165920138 L 62.778682827949524,176.0133392009884 L 62.98344894871116,177.92426151875407 L 62.663173735141754,179.01189874205738 L 61.959618313238025,179.86553671211004 L 61.01454387046397,180.43533965479583 L 60.01171486824751,180.50721467938274 L 59.11914455704391,179.870669554919 L 59.33966194279492,179.6106163104996 L 59.44729543477297,179.83302883058786 L 60.02221569977701,179.870669554919 L 59.41841813735664,179.22400160878897 L 59.11914455704391,178.14996378403157 L 58.903877602890134,178.46460861619562 L 59.1873999517411,178.9366401694715 L 58.97738339751959,179.29071460384876 L 57.92205026373267,180.13759069517255 L 57.80129077099264,180.4456073809415 L 58.02180812507868,181.59582742955536 L 57.80129077099264,183.6338036796078 L 58.18719618022442,184.53508378844708 L 58.20557261258364,185.05610458739102 L 57.80129077099264,185.64579463750124 L 57.336629167199135,185.3886474808678 L 57.242121739313006,185.54293301329017 L 57.47839032486081,185.88753398973495 L 58.02180812507868,186.22188785951585 L 59.100768122822046,186.26990084722638 L 60.19022892229259,186.73978456947953 L 60.79402648471296,187.894241460599 L 60.88065831363201,188.5239849658683 L 60.14822562597692,190.22172076441348 L 60.02221569977701,190.99968478642404 L 59.90145620703697,193.23170743696392 L 60.442248774692416,195.1816405504942 L 60.43174797296524,196.44963825307786 L 60.0064644664526,197.39627184625715 L 59.308159444481134,198.1124794734642 L 58.483844527974725,198.69797493424267 L 58.24232551082969,198.3828257098794 L 57.52564405463636,198.9735437212512 L 57.44688786007464,199.81936169043183 L 57.80129077099264,202.02380080800503 L 57.32875353470445,203.92626258730888 L 56.86671716161072,204.92025654856116 L 55.774631129577756,205.70741465408355 L 55.139331102371216,208.56787499319762 L 54.4777789786458,209.30245513748378 L 53.69809255935252,209.2471389733255 L 52.05208792723715,208.25163190905005 L 51.39578623510897,208.56787499319762 L 52.05208792723715,210.01820533536375 L 51.311779607087374,210.24299505911767 L 50.77098700776696,209.77960190549493 L 50.43496052920818,208.92217816319317 L 50.29319937154651,207.96134134568274 L 49.82591256685555,209.21083828248084 L 49.610645612701774,210.56983642745763 L 50.6817299798131,211.2668779157102 L 51.051884124055505,211.90353192109615 L 51.15426718443632,212.92109089158475 L 51.44303993321955,213.3780728848651 L 50.6817299798131,213.62217301875353 L 49.77865883708,214.85857735853642 L 49.390128226950765,214.98155465442687 L 52.020585430786014,221.4809679593891 L 52.05208792723715,222.25710988696665 L 51.83944617398083,222.89103059470654 L 50.84449280239642,223.47644822113216 L 50.95475149527192,224.2079566884786 L 51.301278775557876,224.9970169616863 L 51.59530192427337,225.48898790311068 L 51.83682097494602,225.48898790311068 L 51.93132840283215,224.98311089724302 L 52.461620170623064,224.94486960582435 L 52.692638356238604,224.6128873489797 L 52.46949580311775,223.19501567911357 L 52.59550572745502,222.70518155954778 L 54.03674423880875,220.79876433312893 L 55.08157654106617,220.16878364700824 L 58.68336024880409,219.66212426126003 L 60.489502504467964,219.12433181609958 L 61.865110851824284,219.1590250134468 L 64.37743376195431,220.26769693940878 L 65.53514995612204,221.48791238013655 L 65.75041691027582,222.12339685298502 L 67.95034017413855,223.15506150014699 L 68.74840305745602,223.1828556349501 L 69.73285559564829,222.86323929205537 L 71.60725324600935,224.2948467740789 L 72.15854664519429,224.90489063225687 L 73.31101243942976,226.89235911518335 L 73.71791948191822,227.24026675801724 L 73.49740212783217,227.55690010171384 L 74.8388827778399,228.11718480847776 L 75.4006770439446,229.16149111371487 L 76.00184937380254,229.5392773654312 L 77.03355564177036,230.70951798185706 L 77.51134327985346,231.76001472771168 L 78.1308920737356,232.05798826739192 L 80.33344057016075,232.32985132280737 L 80.80860300734639,232.51285089366138 L 81.70642371848226,233.40536247193813 L 81.90856464020908,233.08284021820873 L 82.4152295421809,233.77325741294771 L 82.60424442961812,234.42721812520176 L 82.5858679972589,236.19629142992198 L 82.85101388022304,236.94682718999684 L 84.77266522869468,237.79360286612064 L 85.0194346792996,237.20170594472438 L 85.64948430657387,237.23662264551967 L 85.98026035353541,236.67800757661462 L 85.95925868861377,235.19123721774668 L 86.31103639863431,234.89293103758246 L 86.20077773928642,235.63788353838027 L 86.31103639863431,236.03922794293612 L 86.53680418618023,236.03922794293612 L 86.66543934307992,235.4808513140306 L 86.53680418618023,234.89293103758246 L 87.41362326405942,235.1598350694403 L 88.07517535611987,234.5737262237817 L 88.14605595171452,235.60647639073431 L 88.68947375193238,235.41804088559002 L 89.8550655785948,234.28071767371148 L 89.8550655785948,234.5737262237817 L 90.36698088049889,234.32257418334484 L 90.9576524104923,234.28071767371148 L 90.9576524104923,234.01389726810157 L 90.51661767065525,233.40536247193813 L 90.88677184656262,233.23973829951137 L 91.61920453608036,232.23399915080518 L 91.43018964678049,231.9116113455966 L 91.4223140142858,231.48123767692596 L 91.61920453608036,230.47961084451526 L 92.18624920025468,231.70077227428555 L 92.49602358229458,231.94123463798314 L 92.06023927405477,232.55119515862316 L 92.46452111564577,232.80044572334737 L 93.7219951711595,232.55119515862316 L 94.23391047306359,232.95209849160165 L 94.50168155692518,232.55119515862316 L 94.2601625379175,232.23399915080518 L 94.95059192925692,231.71819638833404 L 95.16323368251324,231.94123463798314 L 95.38375103473663,231.94123463798314 L 95.60426842048764,231.65024295076728 L 95.47038286365569,230.69906723406166 L 94.94271629676223,229.86835834290832 L 94.72219894267619,230.47961084451526 L 94.14727864600718,227.89966974873096 L 93.845379864797,227.24026675801724 L 94.50168155692518,227.24026675801724 L 94.2601625379175,227.8492086576298 L 94.85345926880836,228.12414554972202 L 95.21048741228878,228.02495635021478 L 95.32074607349932,227.616055351682 L 95.16323368251324,226.949760902673 L 95.32599650509655,226.94802144169807 L 95.38375103473663,227.24026675801724 L 95.82478577457368,226.949760902673 L 96.30519864335656,227.42989456560463 L 97.19514372199774,227.38292134925723 L 98.70726282894611,226.65754572488368 L 98.33973388560116,226.16537076421082 L 97.84882021509111,226.219279717654 L 96.82498957775533,226.65754572488368 L 96.28682217933238,226.36536081135273 L 96.00592506304383,224.92053447756916 L 95.60426842048764,224.35045782569796 L 95.75653041154146,223.76312132459134 L 95.31549567356706,223.60675057768822 L 93.845379864797,223.7387964343652 L 93.86638152971864,223.46776159107685 L 93.59861044585705,223.42259168438613 L 93.84800509735942,222.92229612730443 L 94.72219894267619,223.15506150014699 L 95.82478577457368,222.5471326354891 L 96.45483540184796,222.69649730343372 L 97.41566110774875,223.28882342204452 L 98.04571073688567,223.15506150014699 L 97.70443385653198,222.48113681096584 L 97.14263959228992,222.25710988696665 L 97.14263959228992,221.99142655637115 L 98.48674547486007,221.25181247480214 L 98.72826449386775,220.4915661420673 L 99.36881495453417,220.79876433312893 L 99.89385628886521,220.1427544336766 L 100.6866687387228,219.92411830835044 L 99.62608520500362,219.5545576037839 L 99.30055955797434,219.27871981449425 L 99.5840819068253,218.4687103452161 L 99.09054303728044,218.60225053317845 L 98.6810107640922,218.39413871895522 L 98.5550008378923,218.00397027563304 L 98.90677854977548,217.59825221821666 L 98.93828101456165,218.07159565296024 L 99.13254633545876,217.52543719951063 L 100.04086787812412,216.2809365550056 L 100.37164392508566,214.9105389714241 L 101.34822086431086,212.92109089158475 L 101.73675147257745,209.2938118930906 L 101.8995142634958,208.9619319923222 L 102.5558159891516,208.73378708120435 L 102.88921723514795,207.67108047101647 z" /><path fill-rule="evenodd" fill="#D2EBD9" stroke="#A6A6A6" stroke-width="0.25" opacity="1" d="M 138.48964639008045,286.4553331984207 L 139.05791687965393,285.95471699908376 L 139.504612153396,284.9968387000263 L 139.57720919325948,284.44072458613664 L 139.90645783022046,284.0086795864627 L 139.37633719481528,283.4880828075111 L 138.91230469569564,283.7731905244291 L 137.7108511775732,285.0296114012599 L 137.39230995811522,285.5633629253134 L 137.86138888448477,285.91969719249755 L 137.84384552948177,286.4588874364272 L 138.0748637150973,286.6934779146686 L 138.48964639008045,286.4553331984207 z" /><path fill-rule="evenodd" fill="#D2EBD9" stroke="#A6A6A6" stroke-width="0.25" opacity="1" d="M 123.89349669590592,306.56438770797104 L 123.49971568770707,305.791104584001 L 123.48396442271769,305.2757046641782 L 123.67822974361479,304.76040240656585 L 123.46296278946102,304.0198263954371 L 123.14793797582388,303.52979752328247 L 122.13460814021528,302.9611885128543 L 122.7515317350626,302.6876547895372 L 123.30545036680996,301.9637275710702 L 123.48396442271769,301.14350927155465 L 122.99567598477006,300.5628940220922 L 122.84866439551115,300.9612721018493 L 122.27636932954192,300.97199157159775 L 121.8930891212076,301.163163067773 L 121.34179568849504,302.3605230990797 L 120.49122870713472,303.0201896103099 L 120.07644603401423,303.0201896103099 L 119.71154228970408,302.06024009920657 L 119.41489390842617,302.79670745134354 L 118.15216945298016,302.12994570378214 L 117.50636859424412,302.6876547895372 L 117.33310493826866,302.0119834076613 L 116.9997036922723,301.7278224872425 L 114.3403692226857,301.8100295206532 L 113.61843733489513,302.06560199148953 L 113.03564143739641,302.6930179623887 L 112.86237778328359,303.86243525426835 L 113.1931538619101,304.6208581821993 L 113.88095801882446,305.0896120229736 L 115.38257629238069,305.39022955298424 L 116.82906523533165,304.76040240656585 L 118.16792071796954,304.76040240656585 L 118.11804178915918,305.0251983422786 L 117.94740333221853,305.0896120229736 L 118.37006163969636,305.39022955298424 L 118.37006163969636,305.7678379146382 L 120.13420059718192,305.7195154270157 L 119.98193857260048,305.08066560607404 L 120.3258406855166,304.82838808745146 L 120.79575268924236,304.8230207487941 L 121.03202130831778,304.925002255477 L 121.14228000119328,305.33654542360455 L 121.8930891212076,305.9915642887354 L 122.4916362836957,307.5939832981676 L 122.89329292438924,307.7927849655971 L 123.49446525424719,307.40056863985956 L 123.89349669590592,306.56438770797104 z" /><path fill-rule="evenodd" fill="#D2EBD9" stroke="#A6A6A6" stroke-width="0.25" opacity="1" d="M 104.43283883854747,316.24905927386135 L 104.90744029916823,315.32651606667787 L 104.49828458018601,314.4739230768755 L 103.87976996041834,313.746083217673 L 103.18765841796994,313.71723842062056 L 102.64237187989056,314.6277466798201 L 103.36332430131733,316.3036396810785 L 103.97084024176002,316.66671210713685 L 104.43283883854747,316.24905927386135 z" /><path fill-rule="evenodd" fill="#D2EBD9" stroke="#A6A6A6" stroke-width="0.25" opacity="1" d="M 185.46509653702378,421.63861741218716 L 186.10302179679275,422.5305596264079 L 186.66219082847238,422.9289473807439 L 187.2528623584658,422.79614465031773 L 188.00892191193998,422.10792406182736 L 187.16623053140938,422.4108682554215 L 186.24478295445442,422.4239592459053 L 184.47801879793406,419.0001135272905 L 184.6854101177305,420.1134893540293 L 185.46509653702378,421.63861741218716 z" /><path fill-rule="evenodd" fill="#D2EBD9" stroke="#A6A6A6" stroke-width="0.25" opacity="1" d="M 201.84638685174286,15.209378575906157 L 202.0774050373584,15.210998418740928 L 202.30317282304168,14.979368770495057 L 202.38980465196073,14.558267534710467 L 202.2559191249311,14.415753696113825 L 201.75187942385674,14.415753696113825 L 201.39485128037632,14.830357274971902 L 201.43160417675972,15.053877158090472 L 201.84638685174286,15.209378575906157 z" /><path fill-rule="evenodd" fill="#D2EBD9" stroke="#A6A6A6" stroke-width="0.25" opacity="1" d="M 249.8010391369462,123.08085098862648 L 249.682904811576,123.58094774466008 L 250.1475664153695,123.74374910444021 L 250.2657007407397,123.2419467791915 L 249.8010391369462,123.08085098862648 z" /><path fill-rule="evenodd" fill="#D2EBD9" stroke="#A6A6A6" stroke-width="0.25" opacity="1" d="M 257.20674744434655,124.79294135328382 L 257.51127145811915,124.00055705476552 L 256.4191854260862,124.1717746835202 L 256.16454037465155,124.70563441235572 L 256.1251622773707,125.2144014891237 L 256.8182168677449,125.11868615448475 L 257.20674744434655,124.79294135328382 z" /><path fill-rule="evenodd" fill="#D2EBD9" stroke="#A6A6A6" stroke-width="0.25" opacity="1" d="M 211.82742303051054,130.6012746291235 L 212.35771479830146,130.61136848013848 L 212.73574457503855,130.23119111079723 L 212.06894204951823,129.59879200160503 L 211.696162706241,129.51806993596256 L 211.31813292950392,129.6711073704064 L 211.30500689707696,129.98225192539394 L 211.82742303051054,130.6012746291235 z" /><path fill-rule="evenodd" fill="#D2EBD9" stroke="#A6A6A6" stroke-width="0.25" opacity="1" d="M 278.23202857002616,134.44952595885843 L 278.60218271426857,134.19012473430485 L 278.29240833222866,133.3211284065619 L 277.8986273240298,132.90692956652492 L 277.53109834715724,132.99784626346081 L 276.91679998487234,133.72191274166107 L 277.72536366805434,134.45626398082823 L 278.23202857002616,134.44952595885843 z" /><path fill-rule="evenodd" fill="#D2EBD9" stroke="#A6A6A6" stroke-width="0.25" opacity="1" d="M 219.881557431072,217.82191013731062 L 220.04957068525255,218.01957598235458 L 220.30159053765237,218.07159565296024 L 220.1388277132064,217.61905684694648 L 219.74504670500755,217.40755016822368 L 219.881557431072,217.82191013731062 z" /><path fill-rule="evenodd" fill="#D2EBD9" stroke="#A6A6A6" stroke-width="0.25" opacity="1" d="M 194.16503182798624,0.8125972067937255 L 194.14928056299686,0.1225212188437581 L 193.82112971693277,0.0 L 191.08041385374963,1.086734302341938 L 191.329808505252,1.2834825739264488 L 192.03336389549077,1.2673552110791206 L 193.876259079203,1.033517618663609 L 194.2280367910862,0.8980609318241477 L 194.16503182798624,0.8125972067937255 z" /><path fill-rule="evenodd" fill="#D2EBD9" stroke="#A6A6A6" stroke-width="0.25" opacity="1" d="M 176.439635630697,99.78039235901088 L 176.6654034163803,99.05787372402847 L 176.19811661168933,99.08117808680981 L 175.64419797994196,99.48736845515668 L 175.0902793481946,100.4531234735623 L 175.26879340223968,100.7262553460896 L 175.83583806827664,100.78288333397359 L 176.18761578015983,100.52973113581538 L 176.439635630697,99.78039235901088 z" /><path fill-rule="evenodd" fill="#D2EBD9" stroke="#A6A6A6" stroke-width="0.25" opacity="1" d="M 92.64828557148576,236.65357068460435 L 92.79267196170986,235.83331363182515 L 92.50652441382408,233.9110124623403 L 92.31225912645459,233.93542547896504 L 91.80821942351758,234.48651811666787 L 91.57982643693686,234.38012785557657 L 91.43018964678049,234.50395952071995 L 91.77671692706645,235.3238279223442 L 91.64020616747439,235.59949704818428 L 91.73471362888813,235.98164022993296 L 92.1704979352653,236.92413360159844 L 92.64828557148576,236.65357068460435 z" /><path fill-rule="evenodd" fill="#D2EBD9" stroke="#A6A6A6" stroke-width="0.25" opacity="1" d="M 91.23329912684858,236.17011355701834 L 91.37506028451025,235.83680357038975 L 90.08345856517553,235.56111112609506 L 89.49278703518212,235.67801538202912 L 89.3667771089822,236.38826980721205 L 89.97319987230003,236.85256281588227 L 90.17009039223194,237.51073386520147 L 90.69513172656298,237.78487193677574 L 90.94190117716789,237.7185175921768 L 91.12041523307562,237.4269263111055 L 91.23329912684858,236.17011355701834 z" /><path fill-rule="evenodd" fill="#D2EBD9" stroke="#A6A6A6" stroke-width="0.25" opacity="1" d="M 119.17337488941848,284.6290598222986 L 119.47527367062867,284.92032932210714 L 119.78242288529873,284.44969579484314 L 119.69579105637968,283.7146034454927 L 119.0893682949245,283.89391943626106 L 119.17337488941848,284.6290598222986 z" /><path fill-rule="evenodd" fill="#D2EBD9" stroke="#A6A6A6" stroke-width="0.25" opacity="1" d="M 112.54735296964645,295.6014455407858 L 112.7494939211756,295.0808380804956 L 112.66811249405146,294.7777903685346 L 112.35833808034658,294.5799361690879 L 111.48151903413236,294.73500985093415 L 111.21374795027077,294.9952682647854 L 111.28725371323526,295.30547159537673 L 111.93305460549891,295.8047233503312 L 112.15357195958495,296.39681158121675 L 112.311084382236,296.43070003576577 L 112.54735296964645,295.6014455407858 z" /><path fill-rule="evenodd" fill="#D2EBD9" stroke="#A6A6A6" stroke-width="0.25" opacity="1" d="M 184.74841508083045,424.09079327620566 L 185.3075841460377,424.09079327620566 L 185.84312631189823,423.66977450158447 L 185.7879969831556,423.1403234144673 L 184.98730889894068,422.64651596173644 L 184.4517667312175,422.7587366690859 L 184.32050637342036,423.36668327637017 L 184.74841508083045,424.09079327620566 z" /></g></g></g></svg>