<svg xmlns="http://www.w3.org/2000/svg" xmlns:xlink="http://www.w3.org/1999/xlink" width="500.0" height="197.7345111160539" viewBox="0.0 0.0 500.0 197.7345111160539" preserveAspectRatio="xMinYMin meet"><g transform="matrix(1,0,0,-1,0,197.7345111160539)"><g><path fill-rule="evenodd" fill="#D2EBD9" stroke="#A6A6A6" stroke-width="0.25" opacity="1" d="M 482.6758466605097,74.27063537715003 L 486.09973940066993,65.97499695327133 L 489.4678079467267,60.22378446231596 L 493.7662820518017,55.66640337090939 L 500.0,50.98239387269132 L 497.6181614417583,49.04635689500719 L 485.8020096682012,46.05447249417193 L 477.4748788625002,41.469279299490154 L 472.7018979433924,40.081108977785334 L 468.6267210803926,41.136896521784365 L 470.21771479584277,42.29047175962478 L 470.85969465598464,43.11168002290651 L 471.7528840880841,46.05447249417193 L 467.6218830291182,44.53905565547757 L 463.9560847505927,39.06444948562421 L 459.9739486724138,37.852310452377424 L 456.4291030485183,38.86894084746018 L 452.3074060212821,40.77518861601129 L 448.11127650365233,41.86032128869556 L 441.2448827289045,39.27951021352783 L 423.26944549568,37.71545805153437 L 410.58801638893783,39.650981010869145 L 408.7458131015301,39.57277632597834 L 407.02456269972026,39.240408073179424 L 405.15444731526077,39.48479625675827 L 402.78191278874874,41.136896521784365 L 401.74916263855994,43.307208095211536 L 401.28395962901413,46.0838035994675 L 400.59545960463583,48.469473991310224 L 398.8090807441622,49.486357442103326 L 396.9668774586171,50.05347640439868 L 395.73874193429947,51.4028581364546 L 394.6780794560909,53.00652689905837 L 393.26386304944754,54.26799163897522 L 386.39746927283704,55.920665053185076 L 384.68552290275693,56.87904935423285 L 381.16858937591314,58.30688645248301 L 376.42352055571973,58.02327115344815 L 368.1429101433605,56.0575756712351 L 364.6073687803,55.627286434872076 L 352.67956815473735,56.0575756712351 L 352.67956815473735,57.70053890347481 L 377.8005210608244,59.18708407552913 L 375.0651283431798,61.82778583117761 L 372.0692220237106,62.512438939651474 L 365.16561211645603,62.61024742713198 L 360.4769702311605,62.506054369267076 L 355.6998650338501,65.35533124720678 L 351.63592709600925,68.0203003375791 L 348.6317509561777,69.44301258050837 L 347.92259959317744,66.96487027453259 L 346.84979979880154,64.42385577573441 L 344.0116312485188,61.21526159113273 L 343.13549250364304,59.364309780998155 L 340.1282612849027,59.726542598800734 L 339.24080610089004,57.95905056386255 L 338.3475670516491,52.47432945505716 L 334.2582784257829,37.96318326727487 L 331.22441375628114,33.649190658237785 L 327.55861547775567,31.30344303837046 L 324.5441010929644,31.274121841881424 L 322.55303305387497,32.18308322853409 L 320.7108297664672,33.43415826605633 L 318.19873452186584,34.43113504815847 L 305.56382580660284,34.43113504815847 L 305.56382580660284,36.210112017346546 L 310.39263115264475,37.852310452377424 L 307.92705607041717,40.01267939154059 L 304.83810942433774,44.177318908507004 L 302.437662800774,46.05447249417193 L 299.6464458871633,47.13973947544582 L 293.0591737795621,47.86326630692929 L 287.0906909611076,45.775364260422066 L 281.9361612405628,42.73127666884102 L 278.1800104919821,35.22150336182676 L 277.28879779577255,33.03341934806667 L 279.01935246028006,26.37779148039408 L 277.3539262544364,25.713262867182493 L 274.4510604906827,23.944494207855314 L 272.77633048035204,23.240916058653966 L 273.37178994715214,21.980367075884715 L 273.77186449989676,19.54731944319792 L 274.3301078360528,18.023070834577084 L 271.8831410482526,19.136939564021304 L 269.42687000148,19.254190523177385 L 267.0450316723436,18.4041279098019 L 264.83066616021097,16.5477277955506 L 268.8500185981393,14.06613953737542 L 273.0926682781428,13.128253718139604 L 277.5400073658675,13.499497749377042 L 282.14551546797156,14.906346320407465 L 284.46222556754947,5.879868380725384 L 283.7644212823361,1.7384822182357311 L 278.17268319427967,0.0 L 273.4090063069016,0.2343978697899729 L 269.14774833247066,1.2013032245449722 L 264.9237067159265,3.242618858348578 L 245.06884983740747,21.042308268370107 L 240.9564568437636,26.23120353068225 L 223.8649050090462,36.20033724117093 L 218.81280242092907,38.067364836344495 L 213.48157793655992,38.77118686400354 L 209.26684035360813,37.0312033444643 L 204.4287307485938,33.746932924957946 L 199.58131733722985,33.31686847889796 L 189.5980645865202,36.210112017346546 L 179.79158914461732,37.89141108165495 L 148.8090807441622,36.112364117987454 L 147.24599912576377,36.405608486849815 L 142.48232224024832,39.650981010869145 L 134.434313332662,43.64938425808214 L 132.4153329655528,45.23320757318288 L 131.4197989460081,47.0517440403346 L 129.04726465046406,53.211879048496485 L 128.5727576073259,55.157884805696085 L 127.70748050510883,56.683458977378905 L 123.613695576787,58.15040896972641 L 122.3297356273979,59.18708407552913 L 121.99478976242244,64.23390156193636 L 122.40416811779141,70.29870037548244 L 120.98064744845033,75.39575854572468 L 115.16561211645603,77.53846710035577 L 99.3114998396486,77.67544771777466 L 95.66430962644517,79.03549220087007 L 90.24934861809015,91.61063815490343 L 88.44436169043183,94.23378645302728 L 86.48120575025678,95.59436405380256 L 84.20171178132296,96.75921021797694 L 82.37811679020524,97.23886202624999 L 80.96390015259385,98.50164488935843 L 79.86602154374123,101.4091263152659 L 78.47041297331452,107.10719750472344 L 74.17193886823952,115.83202933636494 L 68.47785619087517,119.03452671132982 L 51.64681795798242,118.61338911857456 L 41.365835474804044,120.35672994260676 L 37.60699664056301,120.39590687048621 L 35.45775958709419,118.41751268715598 L 33.699292823672295,117.44793779379688 L 32.15481949970126,117.77112685516477 L 26.525865281000733,120.04331511375494 L 25.958317682147026,120.39590687048621 L 22.757722413167357,120.91500606643967 L 15.723855590447783,123.17756955162622 L 11.778935644775629,123.67711294163018 L 7.75958320684731,124.67621782794595 L 3.87048745714128,127.29163443297148 L 1.004838053137064,130.99463830562308 L 0.0,135.19765109429136 L 1.2653516549617052,137.1964346994646 L 4.652028266340494,139.59706095186993 L 6.25232601352036,141.61565373744816 L 6.922217972576618,144.78092527249828 L 6.596576141193509,152.04333829297684 L 7.033866593614221,154.10174231464043 L 8.773725291714072,156.95427032234147 L 8.969110436737537,158.76783482404426 L 9.769259311258793,159.71876242058352 L 13.323408968746662,160.0128681201022 L 15.556382544338703,161.4736241917126 L 17.37067350372672,164.29724434250966 L 19.72459996305406,166.21898439200595 L 23.557871060445905,164.9443510225974 L 25.921101551502943,171.76899883896112 L 32.93636007979512,178.2416854952462 L 41.086713805794716,180.9487453654874 L 46.96687759459019,176.45669214753434 L 50.362858237698674,180.47793963784352 L 53.99144015647471,180.55640692729503 L 58.23409006558359,178.98709012148902 L 63.43505763635039,177.95725833205506 L 78.22850766405463,179.78154917270876 L 83.15965759754181,179.75212456285954 L 87.40230727940798,178.18283824413083 L 89.93301081843674,177.54533288395032 L 92.53814661875367,177.95725833205506 L 94.85485671833158,179.6050015867222 L 95.07815396226943,181.18415011721663 L 95.0130255036056,183.02820138656534 L 96.427242141217,185.51976268482395 L 101.60960164479911,192.17120170709677 L 103.96352810412645,194.37877430091612 L 108.00148860737681,196.2136024935171 L 117.24972071312368,197.7345111160539 L 127.72608857043087,197.33220085455105 L 162.37439524941146,189.73810273199342 L 184.62039449065924,189.316249468131 L 194.4454782269895,186.91274832678027 L 210.29028647206724,185.73557445197366 L 216.26349081657827,184.2641540011391 L 220.97134350799024,181.399939263938 L 228.22850757278502,183.28323628008366 L 239.94231475889683,183.25380893913098 L 251.99106803908944,181.89037288958207 L 260.2902865167707,179.75212456285954 L 261.3137326352298,178.6732339952141 L 262.1604019012302,175.69171857950278 L 263.2675845436752,174.66196871572174 L 264.6073686890304,174.65216172253713 L 265.84480824507773,175.24058687430806 L 266.57052462920547,176.00555211282335 L 266.39374754950404,176.45669214753434 L 276.6096018049866,174.66196871572174 L 277.8749534599483,173.8970282797236 L 281.7268328499049,170.49419498932548 L 282.9177520144731,169.729331437964 L 290.379605486989,169.4743799744174 L 302.437662800774,171.5140350786969 L 305.1730552893132,170.82760134665295 L 309.94603643752635,168.57225675368682 L 312.6535168271512,168.08198072505184 L 326.1816151998937,168.6605070780497 L 328.81917540729046,170.06030680052936 L 332.54097486287355,170.51829936588183 L 335.56384527124465,170.2797027810011 L 338.3533045016229,169.8087779986672 L 339.9750038124621,167.71249734796584 L 339.26866995356977,165.15682314382866 L 339.26123998872936,161.90249729529023 L 341.8142581153661,159.57223039772362 L 349.9480696860701,154.43538839183748 L 357.14078531973064,150.23504444630817 L 358.3142236955464,147.89828719827347 L 360.43915136158466,141.5764566939324 L 361.79754357226193,139.48927480331622 L 363.9839969854802,138.14687025221065 L 368.1429101433605,136.99067318835296 L 379.97767021134496,136.06965763750486 L 383.9039820935577,135.19765109429136 L 387.26274637691677,133.4047059090808 L 391.61704490706325,128.99615109013394 L 394.9665053859353,126.82143514463678 L 398.8462968748063,125.60677806311287 L 406.4382213652134,126.09137660544366 L 410.41411489248276,123.27046918170527 L 411.6858949959278,122.94249221379869 L 412.8302939981222,121.84548279107548 L 414.2352063730359,120.84644537698478 L 416.1239300519228,120.39590687048621 L 433.2899143770337,120.39590687048621 L 434.4901375733316,119.67113794130273 L 436.28582046739757,116.22375897807069 L 437.11388166993856,115.16609728615731 L 453.94491990096867,111.99327180022374 L 462.690733095631,108.8206859009806 L 463.807219767943,103.81749532418326 L 470.30145131982863,97.58147390536033 L 475.34425010345876,90.33827409963124 L 482.6758466605097,74.27063537715003 z" /></g></g></svg>