<svg xmlns="http://www.w3.org/2000/svg" xmlns:xlink="http://www.w3.org/1999/xlink" width="443.58480544388294" height="500.0" viewBox="0.0 0.0 443.58480544388294 500.0" preserveAspectRatio="xMinYMin meet"><g transform="matrix(1,0,0,-1,0,500.0)"><g><path fill-rule="evenodd" fill="#D2EBD9" stroke="#A6A6A6" stroke-width="0.25" opacity="1" d="M 67.65935854241252,415.9603244923055 L 70.13510086014867,415.6257355809212 L 71.771463945508,416.47866435116157 L 75.16031884588301,419.5209061191417 L 80.77673890069127,423.0785898831673 L 83.79609250836074,423.9917291030288 L 84.32395161315799,423.8975875363685 L 84.75679597072303,423.5618223035708 L 85.68582795187831,422.3349562655203 L 96.6652956996113,419.7687139334157 L 97.63655625469983,419.197823332157 L 99.3996053673327,417.4006556640379 L 99.90635008364916,417.23130453098565 L 101.22599764354527,417.24698495678604 L 101.61661332473159,417.0368674392812 L 101.77497103624046,416.2277961089276 L 101.63772771507502,415.4407341037877 L 101.31045499444008,414.9453220651485 L 100.93039650842547,415.0017602839507 L 102.75678878650069,412.99211416207254 L 103.82306409068406,412.61906947009265 L 105.30106936208904,412.8917983607389 L 107.68699212372303,412.70684340177104 L 108.16206525824964,411.3276189896278 L 107.85590703040361,409.2622445691377 L 107.92980728857219,406.98420697730035 L 108.89051075093448,404.95411673374474 L 113.49344137124717,397.93630943167955 L 114.06352915242314,396.5245267879218 L 114.08464354090393,396.00493666436523 L 117.14622592553496,395.8296588603407 L 120.92569660954177,396.34298038110137 L 123.2377190105617,395.74828090844676 L 123.74446372874081,395.9924167105928 L 124.90575357712805,397.04727197112516 L 125.43361258134246,397.21630876278505 L 126.54211656190455,396.60591054242104 L 129.86762839742005,393.2508971109055 L 136.45530910789967,388.69261370040476 L 145.42891258001328,380.1599483275786 L 146.93858943507075,379.3004855052568 L 148.95501080341637,378.68483905447647 L 154.70867428183556,378.1004758705385 L 156.36615155264735,377.05994915030897 L 174.07054333388805,374.8917219992727 L 177.75499936938286,372.0867864280008 L 179.5286056753248,373.136210415978 L 181.74561363458633,373.0706185293384 L 188.2699511796236,371.3466282002628 L 189.70572777464986,371.2872926774435 L 191.0148181412369,371.7401237990707 L 207.431233946234,383.01697635417804 L 223.06641828641295,393.2446387754753 L 317.4053836353123,453.94530983129516 L 365.70448457449675,484.42440380482003 L 390.72500245831907,500.0 L 419.5988913848996,393.4949769359082 L 411.533205403015,390.87609707191586 L 416.69566660933197,373.136210415978 L 417.45578368380666,371.32476756721735 L 418.4903874043375,370.73767464840785 L 437.84169926308095,376.1007523974404 L 439.9425781853497,374.8698545251973 L 441.4522550404072,371.1561313313432 L 443.58480544388294,363.00846917834133 L 440.97718190588057,359.18646127404645 L 428.68862368911505,348.68512871069834 L 428.7097381800413,347.7564555364661 L 427.67513435706496,347.41990878479555 L 425.69038446992636,345.9180382117629 L 413.5601840671152,334.3523933500983 L 410.02352854795754,332.83362930221483 L 306.55260201357305,302.78134107775986 L 205.3303550221026,272.37669597007334 L 258.49631623737514,214.57812830526382 L 309.7091989442706,154.1434186999686 L 277.9743143245578,136.23200942156836 L 275.60950595140457,134.2503588506952 L 274.27930109389126,132.11006748722866 L 259.68927756883204,96.4801643001847 L 257.4933839980513,94.517455867026 L 184.56438085623085,79.30846981983632 L 181.75617082975805,77.89638016512617 L 179.31746209412813,75.2613387228921 L 156.0494362320751,35.700018799398094 L 114.41191615723073,1.1791141466237605 L 111.7937354259193,0.1088364808820188 L 108.99608249031007,0.0 L 0.0,18.93891417887062 L 1.3307542242109776,19.886106935329735 L 2.004086224362254,30.56367323314771 L 2.7272946424782276,33.63799115130678 L 4.946796314790845,38.4420105307363 L 4.847043478861451,40.30970341991633 L 2.7272946424782276,42.45480773411691 L 1.3307542242109776,42.45480773411691 L 1.1063101906329393,43.31964770285413 L 0.6324839647859335,43.25753006665036 L 1.0700258556753397,46.454288638196886 L 1.7984713483601809,49.02826485829428 L 3.1603475846350193,51.24755418486893 L 4.131608137860894,54.180933277122676 L 4.670024439692497,60.7882557278499 L 5.430141411721706,63.72096431162208 L 10.170315355062485,76.57574284216389 L 10.603159813210368,78.96760495984927 L 10.698174459859729,86.12784315505996 L 11.447734341025352,90.12998115317896 L 12.735710319131613,93.1035345676355 L 12.799053383991122,94.52355079213157 L 13.981457620859146,99.17485298775136 L 18.352130372077227,105.7495731622912 L 20.009607642889023,109.72181487921625 L 20.009607642889023,113.44511293480173 L 17.919285913929343,120.67537220194936 L 17.96151469089091,124.05388332018629 L 18.68996018357575,126.08879504492506 L 19.650663543492556,132.25070319650695 L 21.50872740522027,136.21977595472708 L 21.730428079143167,137.86529106087983 L 21.445384239777923,139.54775092191994 L 19.97793616168201,141.94644379569218 L 19.471191545948386,143.16433796379715 L 19.471191545948386,146.01067129475996 L 21.244797749444842,150.82961236080155 L 21.730428079143167,153.65333195682615 L 26.143329607322812,168.17486865632236 L 32.118693862110376,180.3689790717326 L 32.9104823153466,183.2122487644665 L 33.72338526137173,187.55527849821374 L 34.399044781923294,188.99308013683185 L 35.190833339467645,189.92713356856257 L 36.92221096903086,191.48815655894578 L 37.51341303810477,192.6191096222028 L 37.86179994046688,195.2502379734069 L 37.809014070779085,197.91272107558325 L 38.083500819280744,200.60658114496619 L 39.382034093141556,203.30107805971056 L 43.38320544920862,207.17784217512235 L 44.52338091097772,209.33832652168348 L 44.51282371580601,213.0755174010992 L 45.16736895032227,216.56754597323015 L 49.960328966379166,226.08215268608183 L 50.44595919176936,229.47952008340508 L 49.72807099670172,232.7421991173178 L 47.12044735625386,238.1224324554205 L 46.14918680116534,241.19006519578397 L 45.58965621329844,244.46230283286422 L 46.86707499809563,247.37106933817267 L 48.302851593121886,249.87901615630835 L 48.47176639735699,252.46167297381908 L 47.71164942346513,253.32681018998846 L 49.61194195970893,256.7694790842943 L 51.427776942029595,261.57985510025173 L 51.839507112279534,264.2951025534421 L 51.96619324199855,272.4881216082722 L 52.07176508381963,272.4819313194603 L 52.58906689286232,281.6721655544825 L 54.21487268060446,290.37392978882417 L 59.060618463903666,301.6516946698539 L 62.312230145558715,305.2893177419901 L 60.15856524929404,311.77294920617715 L 60.15856524929404,312.66754030250013 L 61.25651203468442,314.16489928914234 L 58.765017533674836,323.79383345879614 L 59.05006137304008,324.7702483115718 L 60.390823321416974,325.330015421845 L 60.85533926077187,325.88359067728743 L 60.929239520803094,326.8415280529298 L 60.32748025842011,328.17282540677115 L 59.8735214099288,332.09922011196613 L 58.765017533674836,334.9250962040387 L 58.57498823851347,340.485594695434 L 59.13451882451773,342.56605366431177 L 60.85533926077187,343.98024248937145 L 59.77850676327944,345.4756175884977 L 59.841849928721786,346.87148408731446 L 61.55211317166686,349.8133539301343 L 61.01369686983526,350.5863485522568 L 61.01369686983526,351.24094295548275 L 61.47821291163564,351.7833505538292 L 62.312230145558715,352.2135549923405 L 62.312230145558715,353.1114272158593 L 61.879385685548186,354.54256248194724 L 63.65299209393561,362.1721936794929 L 62.312230145558715,362.1721936794929 L 62.75563169643283,363.286201604642 L 63.65299209393561,363.9009827747941 L 62.840089147910476,365.31167686590925 L 62.46003066189587,367.61224654782563 L 62.49170224554837,369.9164219368249 L 62.94566098973155,371.32476756721735 L 62.016629008576274,373.1205932586454 L 62.10108656436205,376.74749795068055 L 61.55211317166686,377.9254853632301 L 61.55211317166686,378.75671476870775 L 62.312230145558715,378.75671476870775 L 62.312230145558715,377.9254853632301 L 62.94566098973155,377.9254853632301 L 62.47058785520494,379.9536711042747 L 61.3092980068177,381.6258792579174 L 60.85533926077187,382.960703805089 L 61.84771420434117,383.15453260112554 L 62.2805586643517,383.4921781187877 L 62.185544015839696,383.97990696132183 L 61.55211317166686,384.6146120694466 L 61.55211317166686,385.3650500983931 L 62.312230145558715,385.3650500983931 L 62.15387253463268,385.93103955313563 L 61.773813946172595,385.9716918831691 L 61.55211317166686,386.18433722574264 L 62.94566098973155,387.0912533579394 L 62.312230145558715,387.9169253972359 L 63.65299209393561,388.66759060462937 L 63.65299209393561,389.5715852500871 L 63.19903334788978,389.6654297532514 L 62.312230145558715,390.3223642571829 L 62.50225933641195,391.13263818528503 L 62.8823178242892,391.958616330754 L 63.49463438242674,392.60004402836785 L 64.41310906782746,392.8754001981579 L 64.41310906782746,393.63266552146524 L 63.452405605465174,394.63721865136176 L 62.51281653158367,396.23029805673286 L 61.55211317166686,396.1864774338901 L 61.55211317166686,397.00657830759883 L 62.94566098973155,397.00657830759883 L 62.660617150366306,397.78604451706633 L 62.312230145558715,400.32204371271655 L 62.94566098973155,399.49229993019253 L 63.65299209393561,401.22387478267774 L 63.84302128665149,400.4973938912153 L 64.41310906782746,401.22387478267774 L 63.84302128665149,402.723960976582 L 63.526305966079235,405.8500664876774 L 62.94566098973155,406.9403429958038 L 62.94566098973155,407.84585695527494 L 63.65299209393561,407.84585695527494 L 63.65299209393561,408.60103181377053 L 62.78730327822268,409.1149567277171 L 62.37557320855558,409.9893119065091 L 62.42835918068886,410.98597449762747 L 62.65005995519459,411.387172778137 L 63.378505347296596,411.69748466834426 L 64.28642293997109,412.5062181246467 L 65.82777127623558,414.5596688063815 L 67.65935854241252,415.9603244923055 z" /></g></g></svg>