<svg xmlns="http://www.w3.org/2000/svg" xmlns:xlink="http://www.w3.org/1999/xlink" width="411.2609650120139" height="500.0" viewBox="0.0 0.0 411.2609650120139 500.0" preserveAspectRatio="xMinYMin meet"><g transform="matrix(1,0,0,-1,0,500.0)"><g><g><path fill-rule="evenodd" fill="#D2EBD9" stroke="#A6A6A6" stroke-width="0.25" opacity="1" d="M 93.38783480226994,478.7855100813831 L 93.67965534515679,480.9615143342162 L 95.11406453326344,481.968947251331 L 97.12223739549518,481.82502654537893 L 97.26537386141717,478.8100215578015 L 104.4474824052304,478.77954818564467 L 104.54850056394935,477.8887688914765 L 105.22904406487942,476.6739833935717 L 105.11207564547658,473.76586091467834 L 105.4576642010361,473.0365324636841 L 109.46649091504514,469.99670502325534 L 110.64680861309171,469.7153999835027 L 118.36140761710703,469.7793933402172 L 120.6741922814399,470.0233690975074 L 122.1150305327028,469.43276390229585 L 122.77962387539446,469.3421074096259 L 140.38868781924248,469.69940168694666 L 142.02624568529427,469.03947649511247 L 151.9419776890427,469.12479956656534 L 155.00974035076797,468.27557744684236 L 158.6676618605852,466.42655136365283 L 160.76777670159936,465.94397950942584 L 161.26755084469914,465.56672449034886 L 162.07569627091289,464.2017051106377 L 162.45318524353206,463.9511013254378 L 163.48463405296206,464.02841506984623 L 163.86743977852166,463.9057794966757 L 164.2077115289867,463.4458995274763 L 164.8404043521732,461.5224601887858 L 165.71766752190888,461.38916917028837 L 210.2082011345774,432.7242860023398 L 211.16521544754505,431.7692500312696 L 212.4731350708753,429.6687740076122 L 213.2653302885592,428.7284524407187 L 213.92460682615638,428.36351694341283 L 215.46114653348923,427.89070329308015 L 216.6467809844762,426.858521164213 L 217.27415700256824,426.75330646720613 L 218.89576471224427,427.15685277273224 L 220.5067388638854,427.2847097595986 L 231.46455308049917,426.0461099768945 L 234.34622963145375,426.2924954876071 L 236.96738557890058,427.4405359053453 L 237.09498750418425,428.6245653902297 L 237.58944489620626,428.8256802290816 L 238.83356358110905,427.89869445420845 L 239.24826977588236,427.40723969425017 L 239.55132435448468,426.69736963795367 L 240.93899512290955,426.4416592251073 L 241.94917691871524,426.76529294300053 L 242.09804585762322,426.3164682065071 L 242.36919991858304,426.1380049663203 L 245.37316159158945,425.92092001307174 L 245.41037881188095,427.337983568832 L 247.60619505867362,424.6823562231293 L 248.5472592152655,424.16563166990454 L 257.45812607370317,421.75254897456034 L 258.7979461643845,421.77385604359733 L 260.9565452411771,422.1906769536072 L 262.58878635428846,421.7871729407707 L 263.3862983249128,421.797826481783 L 266.3424092680216,422.42239361631437 L 272.1323460880667,419.86691314534255 L 274.1367594189942,419.43945924660875 L 276.09863887913525,419.4900611066478 L 278.42205699905753,420.82969684013005 L 279.0972837973386,420.7897469014424 L 279.3365373890847,420.2557528925827 L 278.8633469603956,419.3049651836227 L 285.28597660176456,419.11321193245385 L 286.87036698684096,418.57923637719796 L 287.3169736992568,418.00132421185845 L 287.9762502387166,416.61516167306036 L 288.7950291726738,416.0705608705466 L 290.43790379166603,416.1571107647178 L 291.3045334536582,417.5126341829309 L 292.42636696621776,420.94422007419416 L 293.75555355101824,422.54224754657116 L 301.1777314823121,429.329137200697 L 302.16132956184447,430.62642995717397 L 303.0120089650154,432.21546381299777 L 305.457712309435,438.7120379954031 L 306.49447787180543,439.9856218788991 L 322.6467533055693,447.8291148035387 L 322.8806901425123,448.13158520411525 L 322.8913236502558,448.65791553322924 L 323.8377044573426,448.48735716143347 L 333.1047934293747,451.72142323289154 L 333.9767398443073,453.0886816835591 L 350.33636840060353,459.38852523087917 L 353.5795836634934,461.525125991051 L 354.71205063164234,460.0242952155022 L 357.81171376258135,457.91709643334616 L 359.0770994089544,456.472376521313 L 359.93841231800616,454.8771139083692 L 360.47008698247373,454.3547023397077 L 361.40583433397114,453.8762751608774 L 363.8621711842716,453.03670901059013 L 364.6915835738182,452.5409732771368 L 366.03672041743994,451.29899483101326 L 369.33841991610825,446.66988707126075 L 371.62462086603045,444.887136806552 L 374.1181748881936,443.8732142392146 L 376.80844852514565,443.5601155204022 L 387.83006378263235,444.19297698893206 L 390.41400250792503,444.9177813608803 L 391.77508961223066,444.99239427191424 L 395.8955679927021,446.0116731350972 L 396.7143469247967,445.9557120985046 L 398.0754340291023,445.3894438049465 L 398.80914501287043,445.25354054076524 L 399.55348950251937,445.4214211491162 L 401.73335553891957,446.66988707126075 L 404.17905888333917,445.87043826514855 L 406.44399281963706,444.6712931890215 L 408.73551047220826,444.2222886542695 L 411.2609650120139,445.6545896624484 L 383.36399684660137,405.6523716370684 L 364.6915835738182,387.1456027710228 L 363.9525558371097,385.7163157281648 L 364.1120582316071,369.3896413884977 L 364.1120582316071,240.7501525798034 L 364.6915835738182,196.09307515410546 L 392.6310857143253,159.97329584186082 L 393.253145031631,158.8403960765645 L 393.4392311926931,157.86704999030553 L 393.25944526679814,153.6158984141366 L 389.31165640056133,149.57415399618912 L 387.46126121096313,146.7469255227552 L 387.21844917722046,145.84638281755906 L 386.10486295074224,145.15945127728264 L 383.17855922318995,142.49544769071872 L 381.34490970149636,140.24187260113104 L 380.2773740198463,139.6051641888771 L 379.48614165373147,140.57698041226467 L 378.52745277807117,140.18322859930777 L 377.6399328690022,140.27538345614084 L 377.0496484488249,140.8660098240034 L 376.9994115009904,141.97604146915546 L 375.96955350600183,140.91208687573453 L 375.76860561035573,139.68056412615624 L 375.2913544010371,138.49091313231838 L 373.80517726391554,138.62914808664573 L 371.3477519378066,139.13600763017166 L 370.71560337767005,138.74224920822235 L 369.6941182408482,137.61960888964677 L 368.30422864854336,137.03314898184544 L 367.2073880378157,135.75967910909822 L 366.3994100559503,135.8015698724521 L 365.23140042833984,136.49695354354117 L 364.89230084978044,136.99125883878514 L 364.67879369296134,137.7285223924482 L 364.71647142991424,138.49091313231838 L 365.2230275683105,139.91514126274342 L 365.06394386664033,141.25556969100944 L 365.27326456829906,141.89226599494214 L 366.0477512665093,143.03998317866353 L 364.22666095755994,141.6409390923509 L 364.01734020374715,135.5879267676355 L 362.92049964517355,134.21808400849113 L 361.9659971203655,134.93442664983013 L 361.01149464957416,138.10134072250003 L 359.53787677548826,139.1276298322373 L 359.06481191702187,139.67218638149643 L 358.58337425254285,139.86487476528782 L 357.9721577633172,139.13600763017166 L 358.45778183080256,137.68663259638925 L 358.3238165508956,137.03314898184544 L 359.1610994618386,137.39759242490982 L 359.8225529510528,137.22165441770267 L 360.27049928344786,136.64356982037134 L 360.42539663240314,135.8015698724521 L 360.3165498264134,135.4580649549389 L 359.83929861709476,135.1815843313707 L 359.72207900322974,134.88834633401711 L 359.89372196793556,134.39402840512776 L 360.6472765970975,134.1929490783914 L 360.8105467557907,133.84943741736424 L 360.8984614405781,130.09584837566217 L 361.2040696851909,128.10168154683197 L 361.8655231744051,126.8029317855835 L 362.32602876983583,126.67724511233973 L 363.5149704683572,126.7149511309508 L 364.1638647466898,126.2624777761921 L 364.66623448207974,125.5209183303923 L 364.7415899541229,124.95950689270103 L 364.1638647466898,123.62299557990991 L 362.8953811712563,122.06021034614969 L 361.75249001570046,121.83395987654512 L 361.5892198588699,122.41634396266454 L 363.2721584327519,123.25848827211303 L 362.384638575837,123.57690851737789 L 361.67294813878834,124.05453632060016 L 360.42539663240314,125.37009176423089 L 360.23282154649496,125.78067444671615 L 360.2663128785789,126.23734029996558 L 359.72207900322974,126.45100865961285 L 359.7890616171062,126.33370058883156 L 358.6880346033722,126.07394637253674 L 357.40280536189675,125.37009176423089 L 356.25154139846563,123.9875010436881 L 355.1714464556426,123.03224149370726 L 354.10391077399254,123.61042637452192 L 354.2713673338294,122.70543936015747 L 354.54767070151865,122.31997855999361 L 355.2174970507622,122.0266917831832 L 354.77373706921935,121.1342548566463 L 355.10865024477243,120.3800742125859 L 356.5655225031078,119.41219753149198 L 356.9171812925488,118.69151893769958 L 356.3143376093358,117.50154528050916 L 354.89514313824475,116.10623365980064 L 353.2917463891208,114.94973795305123 L 350.9054901320487,113.96502527449775 L 347.75730643980205,110.21879652549251 L 345.9738939162344,109.53992728870799 L 344.3956156410277,109.88355331518687 L 342.8633879609406,110.57499058228132 L 341.2264998778701,110.95213515469004 L 339.54356130212545,110.7761346123225 L 334.3440345264971,109.13763113163441 L 332.20896316319704,107.60385447886074 L 330.9111746586859,107.19316502616493 L 329.3998790476471,106.25024568520166 L 326.2307632844895,103.53875167702063 L 324.82831442914903,100.66368675158446 L 323.2919003460556,98.71896098614525 L 323.07002038136125,97.85135870111844 L 323.17049432732165,97.45317963574053 L 323.9366081673652,96.4304760240193 L 323.995217975229,96.09515957305484 L 322.77278494276106,91.56820266947398 L 322.65556532889605,89.87888748194018 L 323.744033081457,89.05307521035502 L 323.4761025737971,87.70324471090862 L 324.0998783260584,87.10796763874532 L 325.15904119983315,87.21277043104783 L 326.2307632844895,88.00507294149429 L 326.2726274263114,87.42656741016253 L 325.8707316368818,86.81451893068879 L 324.0705734472722,85.0999092883867 L 322.99466490745544,83.66194419855674 L 322.7183615397662,83.04146960446451 L 322.4964815750718,80.425337421304 L 322.1699412614107,79.52810929301995 L 320.42002001963556,77.03759370738044 L 320.38234228268266,76.3457631801939 L 320.9391354210675,74.47148568178818 L 320.9307625629008,73.51545257399266 L 320.6125950552523,72.71874484137516 L 319.5576186366379,71.33496017495054 L 315.66006676852703,69.26340653227089 L 314.4250745251775,67.81662355886147 L 313.73012970387936,67.263060790694 L 312.82167777605355,67.11628178059618 L 313.2235735654831,67.9927558918971 L 313.87665419466794,70.6724076295286 L 312.95145660080016,70.44596361485674 L 312.5453744083643,69.94275117941652 L 312.41978198848665,68.06824094448893 L 312.11836014688015,66.79756012051803 L 312.49932386539876,65.92525889330136 L 311.59505834057927,64.44063402680695 L 310.54845472984016,61.68934629706928 L 309.17531075142324,59.483170766554395 L 308.63944973424077,56.51767580801243 L 308.049165263772,55.313807982514845 L 307.3960846327245,54.726544191111316 L 306.9481382481754,54.63425918775465 L 305.8345520235598,55.12085066802683 L 304.91354083269835,56.05207200402947 L 303.30177127569914,56.215663083326945 L 303.55295616947114,56.870021517854184 L 303.0212815031409,57.29786636791687 L 302.619385715574,56.35408577722046 L 302.7617238033563,55.565490188848344 L 303.38131315261126,55.10407172682608 L 304.4195439554751,55.12085066802683 L 303.7999546062201,54.390961547345796 L 304.00927530787885,53.78690673226447 L 304.7335250079632,53.54779952815443 L 306.52112398669124,54.27770184682231 L 307.094662791118,53.86241402570886 L 307.5509819313884,52.31029522125755 L 307.45050798356533,50.682611816089775 L 303.30177127569914,39.22423490740766 L 301.9830507002771,37.95276225464477 L 300.5094328261912,37.7177664695555 L 299.47120202332735,38.49408689962729 L 299.47957488149405,40.24390368499371 L 298.34087013080716,39.61448134655802 L 298.0227026231587,39.22423490740766 L 298.9604594800621,37.23098542670414 L 299.47957488149405,36.756788183956814 L 300.6182795818895,36.84491376182632 L 301.18763198144734,36.56794713474301 L 301.04110749065876,35.678284608886315 L 299.95682614296675,34.478049877438025 L 299.65540430136025,33.655491674111545 L 298.8306806553155,32.455199286832794 L 298.3827342707664,32.21177914393775 L 297.8887373935431,32.480380587443506 L 297.5454514119774,33.66388523642672 L 297.1435556244105,33.93667409308546 L 296.79189678281546,34.56198347501777 L 296.82538811676204,36.4588386016585 L 295.9294953998178,35.69926742829921 L 294.60658842138946,36.425266665261006 L 294.00793119333684,36.517589349288755 L 293.44276519678533,36.05177725321482 L 293.953507790342,35.56078060763684 L 295.9294953998178,34.994238930914435 L 295.5443452782929,34.075166240381805 L 295.0587212089449,33.6387046475902 L 293.44276519678533,33.2693873852113 L 291.87285977974534,33.25679700006731 L 291.6844711471349,32.900066920039535 L 291.7221488840878,31.808873708181636 L 292.0361299365759,30.768016577298113 L 292.78131170757115,31.77529806205348 L 294.48936880752444,31.892812653430155 L 296.2895270474255,31.363994429208105 L 297.29845292307436,30.415462301443768 L 297.10169143229723,29.17310408294361 L 294.5312329996377,24.74899508839735 L 292.88178565353155,20.542702779413958 L 291.1988470777869,14.2114275664062 L 290.6294946782291,12.75021689497953 L 290.16898908279836,13.422044816034031 L 289.7252291534096,13.384254801443603 L 288.87957343645394,12.35551244555245 L 288.8460821546614,11.431720115346252 L 287.79110568389297,10.247553449091356 L 286.0328116361052,4.930940221376659 L 285.7062712684274,5.888490583114617 L 285.86535502411425,7.391962802666967 L 285.6811527945101,8.131077736557927 L 285.01969930529594,7.614538718560652 L 283.92285874672234,5.317323178747756 L 283.30745580233634,5.544111285769759 L 282.9809154868126,5.493714071795694 L 282.84276380203664,4.767146227950434 L 282.9432377498597,4.338758492034685 L 283.74702932685614,3.2173669090007024 L 283.2279139254242,2.5033544245452504 L 281.49473834969103,2.2471465211165196 L 279.53549635596573,2.7301598949452455 L 278.3046905156225,4.258960221315647 L 277.95721813105047,3.2005667661869666 L 276.44592252001166,3.658367684449331 L 275.332336243242,2.5873566109548847 L 274.3903929833323,1.1172902481484925 L 272.6530310045928,0.0 L 199.62255913577974,52.71800378546686 L 198.91543181613088,53.644994323713036 L 198.3997074123472,54.699823199807724 L 197.50649408623576,57.8748213415638 L 197.11837160773575,58.668537608093175 L 196.40061083436012,59.3290699221252 L 195.4276462085545,59.79782926678308 L 194.34302996844053,60.085474799550866 L 193.2424634695053,60.18135622712725 L 190.78080986440182,60.03753398834306 L 190.6319409776479,60.74598761891684 L 191.2486835923046,62.604963200647035 L 190.98816303908825,63.009773755522474 L 190.1428003385663,63.11630225904446 L 189.77062806859612,63.49447660778242 L 189.6908769235015,64.03776424943862 L 190.06836589612067,65.21486692667531 L 191.07854769192636,66.50378894007008 L 192.22696491889656,67.41453602958427 L 193.4498165398836,68.0696245549625 L 194.42278116568923,68.14418693207335 L 194.34834672138095,69.06555581653811 L 194.5291160773486,69.78453147928303 L 195.0395237300545,70.22656332061888 L 195.9752710815519,70.29579686165016 L 193.9230070207268,82.85750560001179 L 193.1361285056919,84.12469604100261 L 8.336658271029592,187.36707754976305 L 6.4279463440179825,187.51597091560689 L 5.736769285053015,187.96796785947663 L 5.635751178488135,189.3133160295838 L 0.7071272674947977,189.3133160295838 L 0.22330333106219769,206.79664992993276 L 3.243215264752507,232.95047601975966 L 3.1900477819144726,234.93894470277155 L 0.0,245.52459265473226 L 0.15950234234333038,246.5400928053823 L 7.72523245960474,256.6260318895256 L 9.575460202991962,258.0615758683525 L 10.016750112175941,258.74213138081905 L 10.160302298143506,259.7895507576395 L 9.580776955932379,261.6664048045059 L 9.527609473094344,262.6128102086659 L 11.005664946511388,264.6704524104898 L 12.446503195911646,270.35960399254327 L 13.329083168879151,271.9440778997305 L 14.849672565236688,272.98622001370313 L 16.93915395066142,273.7412438316969 L 18.603295531123877,274.58666034815906 L 19.842097463086247,275.9159372635986 L 20.67150985263288,278.12255282464685 L 20.985197886824608,279.9516667584321 L 21.41053763963282,280.40363037211137 L 24.71223708614707,282.05729338434685 L 25.594817008823156,282.8602019000573 L 26.333844743669033,284.93129509609935 L 27.817216970026493,286.8588403884205 L 29.15172035805881,290.1556534713709 L 29.45477488823235,291.2085194594547 L 29.48667535558343,293.5163392798604 L 29.752512661740184,294.61176731619344 L 30.68826001510024,296.5793023464066 L 31.74097578600049,297.6109386413882 L 32.59165523946285,297.4115238343329 L 33.43170118518174,296.93558829581525 L 34.50568391755223,297.1403202084366 L 35.0586255453527,298.0842174230711 L 35.14369344338775,299.24349077393344 L 35.49459875188768,300.18474235129906 L 37.98815277405083,300.75375041183725 L 39.74267905950546,302.4395165135611 L 40.811345141381025,303.0936204583413 L 45.043475238606334,303.52703243468204 L 46.68103310465813,304.26888799315566 L 47.32967618852854,306.3588685010727 L 46.79268477112055,308.40633677954247 L 45.89947139471769,310.49904255357615 L 45.708068531006575,312.32852691804874 L 48.76519768498838,314.8308169149823 L 49.84981392510235,318.98590687540855 L 51.03544832393527,320.7517004147194 L 53.14087991788983,321.4657379787386 L 53.66723782941699,321.95905159855465 L 55.671651212498546,326.00138481754766 L 55.98002249374986,327.1183732340869 L 56.03318997658789,337.1213091444697 L 56.25649330765009,337.7476918578868 L 57.21882437542081,338.96589257484084 L 57.41022723726928,339.51781209556793 L 57.149706684052944,340.0910141816639 L 55.49088180437684,341.7534543789443 L 55.12402628734708,342.65517530209763 L 54.84755552560091,344.7499179728147 L 55.41113060712814,348.0470829803962 L 55.40581390634179,349.04330788231164 L 50.163501961156726,361.6867659489908 L 49.82854696363211,363.7088550703593 L 50.280470380559564,364.98067227314823 L 52.24766654148698,366.28976346681156 L 53.00796123966575,367.2024168306489 L 53.146196722984314,368.37052440469415 L 52.67300624214113,369.24861383515963 L 51.269385213032365,370.6908340361515 L 50.97164738737047,371.67273227692203 L 50.679226364940405,374.23531590091807 L 50.163501961156726,374.937848531732 L 49.69562828540802,374.8659982373356 L 48.94065034016967,374.05702278576064 L 48.233523020520806,374.1102445624747 L 47.74969913624227,374.58392012988406 L 45.580466605722904,379.09731834410195 L 44.798904893919826,383.57111799850827 L 43.75150582566857,386.81822114804527 L 43.19324749708176,387.70987455127033 L 41.46530487574637,388.47644105970903 L 40.87514607794583,389.1578418780264 L 40.518924068659544,388.6734076679095 L 39.60444367863238,388.00798258709256 L 39.28543888963759,387.8988535750177 L 38.58362837508321,388.0851714844903 L 37.3448264952749,389.7993240247888 L 35.71258533000946,391.6173389991236 L 35.19686092622578,392.5143893622371 L 33.70285519398749,400.30628389626145 L 33.0967461373657,401.39249776651195 L 32.01744659990072,402.10866543238444 L 29.593010269105434,402.8035434416379 L 28.519027534872293,403.48778085242157 L 27.960769155994058,404.66724556979534 L 27.45036145299673,410.99367530394375 L 26.785768212750554,413.0493995537545 L 25.520382564514875,414.68178934441676 L 25.38746388629079,415.2982766337627 L 26.137125128880143,417.6324759431627 L 25.291762428358197,419.30230196105185 L 25.249228505417705,419.86025490924294 L 25.536332773044705,420.31168215788057 L 27.00907154381275,420.89894342032494 L 27.98735287040472,422.4037497042809 L 28.47117680683732,424.46927328346646 L 28.59877873212099,428.61391030808227 L 28.253190176561475,429.698076081022 L 27.498212181031704,430.1855594075387 L 25.56823329254985,430.987387501933 L 23.898774906992912,432.77223813985984 L 22.973661061376333,433.14386882308827 L 21.575356787070632,432.7376060239949 L 20.57580839470029,431.5241673109376 L 19.98033284395933,431.86248835745937 L 19.20408783480525,433.94175291133797 L 18.06098741106689,435.42034021362997 L 18.029086891561747,435.67210447995967 L 14.567885050550103,435.04203033772137 L 14.131911842152476,435.01272476631493 L 13.477952005341649,435.2604905904045 L 13.818223806098104,435.6587836413237 L 14.84435586258769,436.3155086443221 L 14.201029531657696,437.10012791194094 L 13.392884105443954,437.4038552154452 L 13.297182649374008,437.6862702142207 L 15.75351949967444,438.95982442728564 L 16.31177788041532,439.65523256842425 L 16.17885920032859,440.35997735069395 L 15.041075427085161,440.9554889393803 L 14.041527139022946,440.96081794572456 L 11.19175110757351,440.070884109944 L 9.995483150705695,440.503858576998 L 10.069917593151331,441.3977980709351 L 11.271502252668142,443.907855055837 L 11.143900377675891,444.740576194461 L 9.182020969688892,446.41006460196877 L 8.77794823050499,447.2295102612443 L 9.373423833400011,450.16365664676414 L 9.197971178218722,451.3682888189833 L 7.741182720288634,453.03937430203587 L 7.746499473229051,455.3288986848711 L 7.103173142299056,456.5256862656024 L 5.944122459739447,457.43862714670104 L 4.45543348044157,458.1596652389817 L 25.243911750614643,478.82222079643907 L 39.90967917628586,486.297269611754 L 69.71804363466799,497.48742324626437 L 70.62822270207107,495.7744094761729 L 78.25097239203751,500.0 L 79.38869622536004,498.6294804227473 L 77.45456570759416,494.6324480406438 L 82.57432296127081,494.6324480406438 L 86.44258399866521,493.49052459926315 L 83.93959156237543,487.09644737759663 L 88.49027040228248,478.81474697419617 L 93.10589167103171,477.2198647055775 L 93.38783480226994,478.7855100813831 z" /><path fill-rule="evenodd" fill="#D2EBD9" stroke="#A6A6A6" stroke-width="0.25" opacity="1" d="M 368.5093629453331,135.43293040519347 L 369.1122066285461,136.11574997330172 L 370.5062826257199,136.0277796383998 L 372.0468831639737,135.52509040063524 L 373.10604603774846,134.9218592701436 L 374.10659910552204,133.30484277691357 L 373.72144893184304,132.21564246346315 L 372.775319268927,132.03969331847838 L 372.0803744979203,133.162409730754 L 372.05106956884265,132.0187469695593 L 371.85012167319655,131.58725093691828 L 371.12587197497487,131.0845341312306 L 370.46441848389804,131.13899523600048 L 369.9411166794598,131.72968678244797 L 368.3460927885026,131.319135669346 L 366.4287149347365,130.32207420661507 L 365.9598365314305,130.6656010128463 L 365.5077037960291,130.58181413264538 L 365.1644178144634,130.1461208560322 L 365.02207967452705,129.44230355411855 L 365.2983830422163,129.0401193894686 L 366.244512706995,128.34886050814748 L 366.0477512665093,127.82517540787012 L 365.40722984820604,127.83355437609862 L 365.0053340587765,128.13519739684125 L 364.67879369296134,129.2663482248645 L 363.53590258955956,129.0275510815154 L 363.54008899256587,130.19639325272146 L 364.15130548365414,131.8176617195386 L 364.85462311282754,132.97389503187514 L 368.05723020993173,134.39402840512776 L 368.5093629453331,135.43293040519347 z" /></g></g></g></svg>