<svg xmlns="http://www.w3.org/2000/svg" xmlns:xlink="http://www.w3.org/1999/xlink" width="500.0" height="245.55324534885585" viewBox="0.0 0.0 500.0 245.55324534885585" preserveAspectRatio="xMinYMin meet"><g transform="matrix(1,0,0,-1,0,245.55324534885585)"><g><path fill-rule="evenodd" fill="#D2EBD9" stroke="#A6A6A6" stroke-width="0.25" opacity="1" d="M 497.8591639082879,179.39667999185622 L 498.1402364866808,178.47211919445544 L 498.5056308116764,175.48658567480743 L 499.9531546002254,172.9688381087035 L 500.0,171.80286256130785 L 498.80544158630073,169.87559083197266 L 496.5709146047011,169.09990565106273 L 485.1921599470079,169.24021118413657 L 482.86394212115556,168.62542673386633 L 481.205613989383,167.93194061145186 L 480.4748252481222,167.347302056849 L 479.8424119921401,166.45554330199957 L 478.5026326943189,162.0360098266974 L 476.88178090937436,160.49264026712626 L 474.86274291109294,160.20008268486708 L 472.721906773746,160.25513219181448 L 470.6934997215867,159.7549969367683 L 468.1404238604009,157.92800503689796 L 465.2032154770568,156.81210664659739 L 461.62890928890556,154.3394089732319 L 460.71542340889573,153.98135915584862 L 459.6520321406424,153.96251537837088 L 456.7850919030607,154.88439873047173 L 455.79665337409824,154.63780890684575 L 451.88037551473826,151.3582342127338 L 450.91067513730377,150.9392627272755 L 448.7979462938383,150.4340461427346 L 447.0225045271218,149.72026459127665 L 441.9210373526439,146.03420895617455 L 439.1852643061429,145.51082342024893 L 438.3514157133177,145.09247871674597 L 434.26649427134544,142.19349885731936 L 427.5113834226504,139.4077412188053 L 426.91176196374,138.87898410018533 L 426.56510579027236,138.2220480348915 L 426.1903423666954,136.71463969629258 L 425.7406262503937,136.1174661302939 L 424.143197119236,135.38597412686795 L 420.8078026138246,134.6858702953905 L 416.60108307842165,131.42453322000802 L 414.7928495593369,130.58776855655015 L 413.98710817005485,130.03834843076766 L 413.2422658279538,129.10201388318092 L 413.0548841385171,128.01614520233124 L 413.8512563845143,125.69252037070692 L 413.9777390724048,124.60135815758258 L 413.5139693086967,123.57282515708357 L 412.6988588664681,122.86859083734453 L 410.8906253017485,121.78755579609424 L 410.15515210293233,121.06806866265833 L 409.02149269077927,119.36175866052508 L 406.30914234369993,114.37783348467201 L 405.65330634173006,113.64104529842734 L 401.07182342838496,109.67345618642867 L 400.26608204003423,109.36292814835906 L 399.3291735043749,109.46850496903062 L 397.56778533943,110.29147955030203 L 391.6324695274234,111.14879747852683 L 390.01630220003426,111.083560295403 L 388.498510312289,110.5865498892963 L 381.8230367070064,107.12784534599632 L 378.6703393859789,107.16198290605098 L 375.17098584678024,106.16280389204621 L 373.8733674446121,106.22175470832735 L 369.971143187955,107.99999834038317 L 367.44149007089436,108.54014664888382 L 365.9986508768052,108.4594301506877 L 363.370622321032,107.63994032237679 L 357.73511723801494,107.99999834038317 L 356.362546143122,108.47495247982442 L 353.93595292419195,109.72314294241369 L 352.6992336139083,109.95605794154108 L 347.8226244756952,108.84750537853688 L 346.04718275368214,108.09312205389142 L 344.86667789611965,106.91061289142817 L 344.2295800913125,105.96734184585512 L 341.7795641720295,103.9791410844773 L 341.3532707551494,102.84435984306037 L 341.96226135641336,99.32736131548882 L 341.5828133393079,98.12269284948707 L 340.8754473896697,97.37034759391099 L 339.08126747142524,96.36125222314149 L 337.5822137342766,95.03372269682586 L 336.3876553205773,93.20252152811736 L 335.6147057292983,91.05070056393743 L 335.16030510887504,84.025191007182 L 334.6450053518638,83.17679166700691 L 332.24183483142406,81.30169778503478 L 331.0988063663244,79.47063023131341 L 329.63722902163863,75.27528592851013 L 328.6206831987947,73.57929966878146 L 327.37927933968604,72.35161997098476 L 323.43020968325436,69.75596251897514 L 321.9873704891652,68.338901697658 L 321.2331590941176,68.05616421252489 L 320.5913766939193,68.79070839844644 L 319.8652725927532,72.4562196303159 L 319.41555643081665,73.45928429812193 L 318.0898307804018,73.88089258875698 L 316.7875278759748,72.41314886230975 L 315.4102722769603,70.48774314764887 L 313.8831112906337,69.53153559751809 L 313.03052450250834,69.73444158304483 L 311.33940452709794,70.6753219133243 L 310.4727640915662,70.94901807419956 L 309.36252742353827,70.84445775486529 L 305.3197669228539,68.88906756788492 L 303.4646879583597,66.02227104175836 L 302.57462477777153,65.41414662543684 L 301.60492440033704,65.19917514547706 L 300.6118012769148,65.2636654227972 L 297.67459293920547,66.00998477265239 L 296.6908389143646,66.08370283152908 L 295.71645398717374,65.97619775589556 L 293.62714788969606,65.07326869200915 L 292.6012330139056,64.98728604149073 L 291.8329679714516,65.81955264788121 L 291.44415090139955,66.85168002545834 L 290.7133622067049,69.4823478013277 L 290.62904046010226,70.60151942167431 L 290.99443473946303,71.74561110790819 L 292.0344032617286,73.35465843882412 L 291.9266588157043,74.41950794961303 L 291.48631175234914,75.0659419959411 L 290.2074315920472,76.26981900073588 L 289.70618548151106,77.02435115911067 L 289.38295200653374,78.15179510693997 L 289.14872487355024,81.52370241098106 L 288.3336144313216,84.06221622508019 L 287.07347237691283,85.31201726384461 L 285.4385669445619,85.33053574338555 L 283.53664248995483,84.19180701579899 L 273.6288343211636,76.20207214727998 L 272.0876197339967,75.6170325865969 L 271.32872378919274,74.09017454832792 L 270.48550605401397,73.88397021777928 L 267.9558528913185,75.23218482173979 L 266.82687802799046,75.0474710362032 L 264.6157738370821,74.03785300254822 L 263.46806082315743,73.87473739497364 L 261.8050480512902,74.2440652595833 L 260.16077352128923,74.95819573663175 L 256.2210729625076,77.68660891987383 L 255.1904735378921,78.1702804081142 L 254.2348268069327,78.07785458117723 L 253.5415144134313,77.02435115911067 L 252.06119887158275,72.66235044971108 L 252.3891168953851,71.75791496131569 L 254.52058388944715,69.76518585439771 L 255.07335994858295,68.97820772230625 L 255.44812337122858,67.03601642418653 L 254.03339142538607,66.66428005788475 L 250.21548896003515,67.6505322130397 L 249.21768133342266,67.71198899298906 L 248.36040999554098,67.34019000269473 L 246.03219221532345,64.9780736817047 L 243.50722360238433,63.47060892172158 L 241.9988007666543,62.3288736352697 L 237.97477841656655,57.90617594122887 L 233.13564566988498,53.95684704370797 L 231.50074019189924,53.240316233597696 L 230.10006184782833,53.02293254528195 L 228.71343715116382,53.24643989652395 L 227.15348436683416,53.84354096837342 L 225.57947798166424,54.19571889098734 L 223.96799520403147,53.99053320288658 L 222.39398881793022,53.33523396681994 L 220.9605186758563,52.35860700160265 L 219.52236403059214,51.70357286185026 L 216.55236380454153,51.29040503501892 L 215.315644540824,50.2714386517182 L 214.84719022829086,49.659570479765534 L 214.20072327926755,48.17923297174275 L 213.83532899897546,45.92001157999039 L 212.1816853256896,44.01639800798148 L 211.5305338734761,42.84961711335927 L 210.9637041669339,39.711363091133535 L 210.61236348934472,39.22923996206373 L 209.3053759895265,38.12179450225085 L 208.75728447921574,37.27387276850641 L 208.3497292585671,36.2096464028582 L 208.14829392265528,35.05120733007789 L 208.20450842007995,33.91138216294348 L 208.64485548436642,32.747505931183696 L 210.9028051206842,31.62355472985655 L 211.54458751995116,30.591255626641214 L 211.82097554951906,29.358321437612176 L 212.03177998401225,26.82665099017322 L 213.05301031004637,23.673394271172583 L 212.81878317613155,23.041212256997824 L 211.071448658593,21.810562199912965 L 210.49993444886059,20.962997052818537 L 209.98931923974305,19.638839258812368 L 209.48338862508535,17.610916714183986 L 209.043041607365,16.78546430543065 L 208.24666927102953,16.345493456348777 L 199.72080125007778,15.180558080784976 L 198.43723649531603,15.841860860586166 L 194.2633088035509,16.299981906078756 L 192.66119512356818,16.145246534608305 L 187.70963333640248,14.913640559650958 L 186.59939662367105,14.143317081965506 L 186.2527404949069,13.233673088252544 L 186.15436505619437,12.40910402033478 L 185.84050067979842,11.808970797806978 L 183.2546330196783,11.321048500016332 L 178.6544119110331,9.727372316643596 L 177.2115727160126,9.615292964503169 L 174.26967978477478,10.627147438004613 L 173.69348098058254,10.515043455176055 L 171.46832314226776,9.330564658157527 L 170.78906444087625,9.28513102605939 L 167.16322825849056,10.157543149776757 L 166.22631967812777,10.227222966961563 L 163.57955292612314,9.775839959271252 L 155.20359024778008,11.978696517646313 L 154.44469430390745,12.021129047498107 L 153.65769111085683,11.781694098375738 L 152.32728091161698,10.284785493277013 L 151.81666574813426,9.957598993554711 L 151.07650795485824,9.972745928913355 L 149.92879494093359,10.72107479441911 L 149.24485169071704,10.918026169762015 L 148.74829017464072,10.699865212664008 L 147.32887367904186,9.185179080814123 L 145.8251353930682,9.10643067676574 L 144.3354507535696,9.491100491955876 L 143.54376305732876,9.460810239426792 L 141.85264303628355,8.597631596028805 L 140.0584631189704,8.170652635395527 L 139.51037160865963,7.277471657842398 L 138.4750876352191,4.12413115799427 L 136.61063957307488,0.039286721497774124 L 136.09533981513232,0.0 L 135.20059213135391,1.641295094974339 L 134.93357319943607,3.0171027528122067 L 132.9098506970331,4.29353887680918 L 130.9563962938264,4.617248082533479 L 130.01480316463858,5.022676965221763 L 129.60724794398993,5.903261293657124 L 129.26059176959097,8.62791552580893 L 128.7546611558646,9.909129140898585 L 127.97702701482922,10.518073226325214 L 127.14786297176033,10.390823750756681 L 125.5598028935492,9.521391027607024 L 123.8686829181388,9.17003505770117 L 118.62667945493013,5.606686033308506 L 116.97303578071296,4.89257232286036 L 115.31470760330558,4.698935772292316 L 114.44338261894882,4.974265435710549 L 113.61421853024513,5.609712177887559 L 112.95369802508503,6.544905669055879 L 112.61641090363264,7.7104130098596215 L 112.71010174788535,8.915623637847602 L 114.3028463749215,11.145289513282478 L 114.4714899128303,12.324231353588402 L 114.35437632352114,13.840079895220697 L 113.94682110287249,15.180558080784976 L 113.23008605465293,15.829725944437087 L 112.33065382111818,15.805456102825701 L 107.71637906506658,14.828715840354562 L 105.51932843029499,14.934871941804886 L 103.64082676637918,15.796354979276657 L 102.69923363719136,17.84158761240542 L 103.08336615748703,18.755294060334563 L 104.23576367553324,20.455757388845086 L 104.47935995273292,21.333595271222293 L 104.20765642728657,22.278469339944422 L 103.55182042531669,23.15973892249167 L 102.74139453284442,23.870971257798374 L 101.22360259946436,24.804272128269076 L 100.39443851076066,24.71914131101221 L 98.82980117760599,23.983442440629005 L 97.09886260330677,23.591326625086367 L 95.83169379364699,22.42736006900668 L 93.62761635798961,21.090576230548322 L 92.18243486620486,19.426285158842802 L 91.69290010537952,19.05889625195414 L 88.55191408935934,19.565962336957455 L 86.62422472890466,19.45664933603257 L 84.74103847052902,18.940488697960973 L 83.24666932690889,17.956928006373346 L 82.31210299860686,16.327288763597608 L 81.64455564785749,14.41018430981785 L 80.8153915591538,12.791052871383727 L 79.35849871765822,12.045376438647509 L 78.11943715624511,12.38788568880409 L 76.01373511366546,13.567185746505857 L 75.15880602784455,13.157878544181585 L 74.60368771664798,12.518228641711175 L 74.23829334694892,12.378792168572545 L 73.14679487515241,12.427291275002062 L 71.2214477211237,11.484693004749715 L 69.97535931318998,11.293775051832199 L 68.59810371510684,11.536212040111423 L 67.39886075165123,12.251484771259129 L 66.71023290697485,13.458033137954772 L 67.04283547960222,15.778152733109891 L 66.78518564626575,16.579127221368253 L 66.34952313173562,16.99181169550866 L 65.28847420588136,17.44399190414697 L 64.8012817427516,17.844622876495123 L 63.89482266269624,20.710888004861772 L 63.26709390990436,21.947282725945115 L 62.16622634138912,22.785935738123953 L 61.36985404975712,22.889260082505643 L 59.70684132352471,22.579295083880424 L 58.915153581649065,22.658303503878415 L 57.3224090449512,23.907448046840727 L 56.69936479628086,24.162794773466885 L 55.91704615205526,24.065517985261977 L 53.26559485215694,23.19620928633958 L 52.487960756756365,22.378742062486708 L 50.623512694612145,22.73123570345342 L 50.03794479276985,22.509404281154275 L 45.995184291154146,19.529524305835366 L 45.189442947506905,19.335193924605846 L 44.407124258577824,19.62972952891141 L 44.33217161055654,20.455757388845086 L 44.814679524861276,22.56714006047696 L 44.8053104262799,23.570050103589892 L 44.59919054154307,24.664415376260877 L 44.16352807171643,25.239074805751443 L 43.46318887732923,24.700899271294475 L 41.82125659938902,21.403465921990573 L 41.07172975316644,21.154367374256253 L 38.81846462097019,22.31493182014674 L 37.890925138257444,22.530675324611366 L 36.897802060469985,22.539791419170797 L 35.96089348010719,22.24504560790956 L 34.105814470909536,20.23708669282496 L 32.7402702216059,20.86275907792151 L 30.8875335091725,21.063237491063774 L 27.38349546585232,20.343383479863405 L 25.622107345610857,20.880984007380903 L 23.72955198958516,21.96551250293851 L 21.94005662109703,22.56714006047696 L 20.084977610968053,22.785935738123953 L 16.135908000171185,22.536752718500793 L 15.348904807120562,22.21769912727177 L 13.831112918443978,20.896171481348574 L 13.05816332809627,20.42234859149903 L 11.376412405632436,20.000206640921533 L 10.37860477808863,20.003243510611355 L 8.42515042051673,19.684387981891632 L 7.485899543389678,20.006280324421823 L 6.134408941492438,21.321444018743932 L 5.6987464260309935,21.130065857432783 L 5.141285863704979,19.863551364280283 L 3.356474998407066,19.13176411949098 L 2.7146925991401076,20.54687364306301 L 2.939550724811852,27.556778914295137 L 2.7755916910246015,28.67047626618296 L 2.4383045695722103,29.641406625509262 L 0.31854892522096634,31.90375196840614 L 0.0,32.98512901645154 L 0.1475630896165967,35.31639968417585 L 0.6534937946125865,37.5819101203233 L 2.7264039935544133,43.89115146640688 L 3.597728978842497,45.83443668298423 L 3.8085334124043584,46.79114496987313 L 3.9748346535488963,46.91648131329566 L 4.602563406340778,46.78808799944818 L 5.937658108770847,45.29352298658341 L 8.11597054824233,41.548839282244444 L 12.477279974147677,43.10615790821612 L 12.42575002554804,43.88809674791992 L 11.376412405632436,45.80693084187806 L 11.376412405632436,46.60161920916289 L 10.734630051068962,49.19461264181882 L 11.029756275936961,50.70898129604757 L 12.692768957465887,53.43015393521637 L 13.016002431511879,54.83890589978546 L 13.222122317180037,55.09927269257605 L 13.587516642175615,54.985934439115226 L 14.355781683698297,53.794544668868184 L 15.826728126965463,53.82516728620976 L 33.688890151679516,60.23039964120835 L 35.27695018518716,60.06171024404466 L 41.73927710484713,55.80387890152633 L 42.72068883199245,55.4883226454258 L 44.97395396512002,55.63537494279444 L 46.01626473944634,55.55265735369176 L 47.011730113998055,55.050261185504496 L 48.95113086979836,52.710655307397246 L 49.76624131202698,52.27901774831116 L 51.36367048788816,52.07392956316471 L 53.0922667644918,51.314887904562056 L 56.69936479628086,50.77017987240106 L 57.8283396596089,50.41218146402389 L 58.887046333402395,49.684043399989605 L 59.34613154735416,48.63489892240614 L 58.68092644773424,47.32002974115312 L 56.516667656600475,45.92306789383292 L 55.92875750269741,45.094900463707745 L 55.504806336946785,43.98890452925116 L 55.375981443561614,42.9595611859113 L 55.720295320264995,42.180855210870504 L 56.69936479628086,41.832776295021176 L 57.095208667218685,42.34574513230473 L 57.467629838734865,43.64983373880386 L 57.77212511654943,44.17525280825794 L 58.30147843062878,44.447153406217694 L 60.22682558465749,44.51131245307624 L 61.2035527639091,44.86573283839971 L 62.110011843033135,45.44020425993949 L 62.89701503608376,46.25621626432985 L 63.50600563827902,47.32920174766332 L 63.89482266269624,49.37814223114401 L 63.83860816527158,51.201656023971736 L 64.05175485089421,52.719839569181204 L 65.25334011111408,53.85885240416974 L 68.14838764350861,54.83890589978546 L 70.53750447090715,56.72924473043531 L 70.97316694073379,57.25023957993835 L 71.22613226994872,57.2839532867074 L 71.63368749152869,56.94069921690971 L 73.37633746024221,57.86939158476889 L 75.7959038792178,57.32379719801247 L 77.18955537676811,57.7988893231377 L 78.7120318133384,58.93014073930681 L 79.466243208386,60.37762526329607 L 78.53401917777956,61.8194942092523 L 80.17360920459032,63.495165965519845 L 82.80632230825722,63.94949769601226 L 88.07174847181886,63.18821412231773 L 89.50521856825799,63.332478555850685 L 90.1446587163955,64.33633420616388 L 90.54518709145486,65.65062848199159 L 91.25255308672786,66.73493804596364 L 91.89901999011636,66.93155807629228 L 92.35810525063425,66.56290333904326 L 93.23177248705178,65.38650678936392 L 93.85950123984367,65.11318979971111 L 94.60668583400548,65.0456312019378 L 96.94427266716957,65.13161510135978 L 98.36837375629693,63.78986178152263 L 100.39912305958569,63.157520186156034 L 101.19549539592117,61.56789683457464 L 102.01997493579984,60.776388393715024 L 102.9849907644093,60.165990197099745 L 104.02027469314635,59.764220805838704 L 106.1517417319119,59.33795971702784 L 107.27134749758989,59.44835395086557 L 107.66484907083213,60.132252279669046 L 108.04898159205914,62.29511756636202 L 108.8734611319378,63.0378162227571 L 109.6745179714635,62.33807980362326 L 110.31630037166178,60.99419103935361 L 110.63484925124794,59.788755162619054 L 110.62079565040767,57.35444659180939 L 110.90186818316579,56.4503869805485 L 111.82003861293197,56.04898824356496 L 112.44776736572385,56.23589409701526 L 114.83219968900084,57.64869280066341 L 115.5629883846268,58.35067958943546 L 116.90276763681322,61.04327496793121 L 118.30813052970916,62.46083180513233 L 119.9617741573602,62.55596712883562 L 121.74658502265811,62.120204349048436 L 123.53608039114624,61.969846467487514 L 124.32308358419687,62.17850788868964 L 125.93925086595118,61.75505918916315 L 126.57634871639311,61.91768275946379 L 126.87147494219244,62.562104978598654 L 126.6185096129775,63.0286083323881 L 123.82652202248573,64.68022010754794 L 123.50328859314322,65.5707759167999 L 123.75625392328948,66.41237913072109 L 127.67721628583968,68.41266261320561 L 128.87645924836397,69.60839274059981 L 129.80399873107672,72.38238432817161 L 130.22092304937541,72.99772026389837 L 133.23776867520064,74.66883444413543 L 134.0013491678983,74.86892248876393 L 136.4138887403533,74.99513703584671 L 137.24305282905698,74.89970613457263 L 137.66934624593705,74.55494263675064 L 137.48664910625666,73.95167790073901 L 135.53319470304996,73.50852093938738 L 135.31302117183805,72.95156675670296 L 135.8892199760303,72.76388145238161 L 137.94104972667992,72.859261456877 L 141.28581333067268,71.03512859996408 L 142.51316358707845,70.57384382281452 L 143.581239358522,70.79832910653204 L 144.5040942914784,72.06552315317094 L 144.99128675553948,73.57006754819304 L 145.03813220001757,74.96127419546247 L 144.56030883453786,76.14972298312932 L 142.59280082955956,77.57879205048084 L 142.19461466185749,78.1179055320099 L 142.18524560891092,78.78958862833679 L 142.489740842022,79.76033925823867 L 142.49442539084703,80.82689594104886 L 141.51535591483116,82.47661251015961 L 141.66994585189968,83.46676971483976 L 143.0144096976146,84.07455798145384 L 144.52283248770982,82.7449485855177 L 146.02188622578979,80.99029539618641 L 147.32887367904186,80.33982028067112 L 149.07620815187693,80.10555185843259 L 152.27106641419232,77.90533216483891 L 154.0699308803305,78.0100770322606 L 154.76792777795345,78.56773581914604 L 155.20359024778008,79.30112936999649 L 155.47529372852296,81.0303754908964 L 155.82663445174694,82.02325796801597 L 156.6511139916256,82.01709022652358 L 158.31881126668304,81.25236503314227 L 159.63985236827284,81.8629000177607 L 160.16920572705567,85.84291545301676 L 161.2513351459056,87.5101484330371 L 162.83939517848194,88.19268018938601 L 166.10452153906226,89.02979049086571 L 169.99269214924425,91.48035342525691 L 174.246257038787,93.0602675434202 L 176.3964622747153,94.28505541477352 L 177.783086925745,96.12603982631117 L 177.54417528863996,97.3331984449178 L 176.14349694456905,97.65207340288907 L 173.47330749314278,97.48179718386382 L 172.55513706430793,98.13507828209549 L 171.92740835621953,99.01454596966505 L 171.20130421034992,99.51010643318295 L 167.8471714630723,97.95239644963294 L 165.74849626701325,96.48195873200893 L 165.1676129596308,96.39529728982598 L 165.28941105213016,97.39201809559017 L 165.0926602659747,99.14772174879909 L 163.34532579313964,99.6247136760503 L 157.50370082538575,99.09507033228874 L 155.55493097100407,99.33045865502208 L 153.79822740051895,100.1048608245328 L 152.3928645523265,101.64792050421238 L 150.44877924770117,104.68931978475302 L 149.57276971358806,105.0304988892749 L 148.44847939908504,105.10804377216846 L 147.62868440896273,105.53301621880382 L 147.71300620026886,107.27370806317776 L 147.5631008129567,107.8292771037668 L 147.32887367904186,108.0093105416745 L 144.91633410658687,108.24522897601128 L 143.63276930712163,108.62396940588951 L 142.6864916747436,109.22009342256933 L 141.38887327257544,111.26374191604555 L 140.78456726484,111.67694826051593 L 139.95540317613631,111.00589829776436 L 139.19650723226368,108.99032665230334 L 138.85453560762107,108.71400323975831 L 137.18683833163232,108.47805691696703 L 133.20497687719762,107.2612940473482 L 134.13251635991037,109.7666194178164 L 134.13251635991037,110.94376978464425 L 133.42046586051583,117.44148647040129 L 132.90048159938306,118.59913992509246 L 131.74339953251183,119.28704665787518 L 130.63784736860543,119.11272411607206 L 128.6047557676211,117.53483297210187 L 127.2509228689596,116.71657001785934 L 126.46860422473401,117.13345848023891 L 125.77529183123261,118.12607914302498 L 124.67910881154239,119.04112958256155 L 121.08137992303818,118.42173552699387 L 119.90087511111051,118.99755088239908 L 119.66196342837065,121.53525314480066 L 119.77439246885478,124.10575873404741 L 119.51205804105848,126.09476785548031 L 118.78595389518887,127.88199263252318 L 114.5323889600113,134.25461850780994 L 114.17167913820595,134.58899079449475 L 113.79223116673529,134.74524923972785 L 113.5017895353958,134.4889886220917 L 113.46899769175798,133.2141843866557 L 113.1036033667624,132.89242430776358 L 112.67730999551713,133.08922594971955 L 112.43371371831745,134.06088313367218 L 111.94652125518769,134.2639930844307 L 111.28131620027125,132.77684701792896 L 110.85033823456615,132.9361571399495 L 110.81286193337291,133.67031679023057 L 111.64671052526683,137.06798429507762 L 111.6420259764418,138.32840159442276 L 111.40311433933675,139.5047399541363 L 110.82691553514451,140.3121126331389 L 109.83379245735705,140.46546966210008 L 108.83130023628473,140.0586172286421 L 108.28320872597396,139.38896752987057 L 107.38377653807402,137.06485717836767 L 107.8428617073223,136.04243499599397 L 109.11705740913749,134.39523890800774 L 109.28570094704628,133.28603739943355 L 109.08895011432469,132.08033158257604 L 108.44248321093619,130.053955886513 L 106.93406042084098,126.77774742152542 L 105.68328746408224,125.46179228555411 L 104.13738832715899,125.15625431481749 L 102.17924937512726,126.00745488610119 L 99.99625238776207,128.0629437919706 L 99.37555048149079,128.2189427698031 L 99.09447790216655,127.45148725807667 L 99.49734857399017,117.0463438257575 L 99.25375234242529,114.95616860035807 L 98.23720651958138,114.07626219559461 L 95.13603914808482,116.7601234652102 L 94.00237978063524,115.29823465179652 L 93.51518731750548,114.14465781673789 L 92.91088130977005,114.10113315563649 L 92.33234025351703,114.72295878082514 L 91.89901999011636,115.56568872369826 L 91.34155942779034,117.83355683740228 L 90.82625971548259,118.5617909701541 L 89.74881484545767,118.65205160435289 L 88.8119062660262,118.13852746039629 L 88.6901081269607,117.304582179524 L 89.00397250335664,114.96238772664219 L 88.55894093587995,113.79958299268037 L 87.84689043648541,114.28456155396998 L 86.69917742256075,116.22196097392589 L 85.97307327575982,116.81301042251289 L 84.28195330128074,117.04323264956474 L 82.5252497298643,118.24745123274624 L 81.51338845584542,118.71430146228522 L 79.35849871765822,119.10961124952883 L 77.40972886327654,118.81390335131437 L 76.50561212655157,118.91039504762739 L 74.30856149177998,121.32968518417329 L 73.49345100484788,121.92461585998535 L 72.6221260195598,122.28909426182508 L 71.60089573822916,122.18940450716764 L 70.72020165622234,121.76575122680515 L 69.98941296059638,121.65050050057471 L 69.42726780381054,122.47290381137282 L 69.34763060603291,123.52608006913215 L 70.01752020977437,127.23001377750188 L 69.93319841753691,128.50287684518844 L 69.50222049746662,129.73557585291564 L 66.95851373393089,134.1452506026253 L 66.1949332403019,135.17342942394316 L 65.33766185771674,135.7110648183152 L 63.79644726961851,135.47662167344242 L 58.245263933204114,132.27084597665817 L 56.69936479628086,131.6774710584432 L 55.61020857654512,131.72743602097034 L 54.923923074267805,132.36766826640815 L 53.81602865923196,134.46086346637458 L 53.15316581167281,135.32345981523395 L 52.394269866868854,136.01742491777986 L 50.67972719203681,137.06798429507762 L 44.29001071397215,137.7841518819332 L 42.61762889008969,138.66624985355884 L 41.788464801386,140.61883269716054 L 42.74176928028464,142.18723649624735 L 50.08010568842292,146.50907752942294 L 52.783086937852204,148.6584618818015 L 54.26340252440423,149.37832318712026 L 55.631289024837315,150.29912361316383 L 56.69936479628086,151.89966856129467 L 58.02509040106088,154.76502842642367 L 60.001967549324036,157.10440963041037 L 64.48273281753063,160.95826116763055 L 65.87638431508094,161.79368703626096 L 70.39228367805481,162.31454240344465 L 71.96394776646048,162.915737089701 L 72.46753617376089,163.93892620224506 L 72.60104561690241,167.43869529943913 L 73.39039110764861,169.67219494469464 L 75.25952371861786,170.16887807659805 L 77.48936615139246,170.06953639816493 L 79.35849871765822,170.51895964611322 L 85.76226884219795,175.32394810020924 L 89.50521856825799,176.4167509516701 L 91.19165404047817,177.6062353188172 L 91.87091278657317,179.8882887084037 L 90.26879906188697,180.4273912468925 L 83.91187438182533,185.007262266241 L 82.46903523243964,185.6072400668636 L 81.0308804968372,185.40776481851935 L 79.01652709208429,183.92310620192438 L 78.02808851841837,182.98480518348515 L 76.70704746246338,183.304403164424 L 75.76311203557998,183.80916876345873 L 73.96424761414528,185.61357279215008 L 73.71596683375537,186.533510341309 L 74.2664006408304,187.48217817861587 L 75.87788337375969,189.02683626767248 L 77.3441452672705,190.83368321042508 L 77.66737874224782,191.54714559949934 L 77.30198437161744,192.38602920994163 L 77.21766262501478,193.04901923704892 L 77.49873520433903,194.23570744972676 L 78.66987091768533,196.47681733965874 L 79.35849871765822,197.1309850346297 L 81.51573075354099,195.73069387488067 L 82.25354624912143,195.65926409792155 L 82.87424815632403,196.0021390626207 L 83.30288382526487,196.61335774417967 L 83.39891696628183,197.339008317329 L 83.0171267427504,198.0314415358007 L 81.42438216041774,199.4484596690163 L 80.96998144965619,200.0379787227139 L 80.5390035295859,202.34448730014265 L 82.23715035058558,203.39090029336512 L 86.15108591224998,204.01124944724143 L 86.86547870840877,204.7462542867288 L 87.1067326432094,205.66122988052666 L 87.03177994955331,208.0921469051391 L 87.14889353886247,209.39181542396545 L 87.53536831215024,210.00835652742535 L 89.2428842317313,210.58197223581374 L 89.97835743054748,211.0743942540139 L 91.5195720186457,213.66025072708726 L 92.29252160992473,214.05737113114446 L 94.37714320421219,213.22649561893195 L 95.34215903282166,213.03674326930195 L 96.1479004221037,213.39552668947726 L 96.85058186855167,214.09086512587965 L 97.9327112864703,215.87923077773303 L 98.73376808129251,216.60853696148843 L 99.8322933986783,216.65162943582982 L 102.01997493579984,215.907953559421 L 103.2473251465708,216.28296516183764 L 105.49590572994202,214.51036196388304 L 106.06273543648422,214.28385987319052 L 106.84505408070982,214.43220129795372 L 111.82940771058202,217.65406527277082 L 113.31909235008061,218.13941534608603 L 116.50458151381463,218.30227687302977 L 118.81874569226056,219.0288515817374 L 120.9783199802041,217.915891231969 L 123.77030752506107,217.20868313498795 L 129.0169955380261,214.28066976275295 L 130.47388837952167,213.85800835303962 L 131.1578316297382,213.94891647156328 L 133.158131477423,214.7687821863219 L 138.97164915129542,214.51993281580508 L 141.96507207676768,213.3062263354659 L 147.32887367904186,209.67697327304631 L 148.9169337125495,209.36792049463838 L 152.18206011876464,209.41252450738102 L 158.61862199567258,207.8469157749787 L 160.02866939269006,207.0667392089963 L 161.10142975859344,205.84902573842555 L 162.67075164057314,202.92968002706766 L 163.82783370744437,201.86272425483912 L 165.35967924259603,201.14257740508765 L 166.89152473211288,200.71023627277464 L 168.43273936584592,200.65301827900112 L 174.246257038787,201.63060917146504 L 176.26061048917472,201.56383895035833 L 177.9657841110602,200.84851652849466 L 179.61474323552102,199.71381156053394 L 180.42048457916826,199.49294857680798 L 183.66218828596175,199.26097663491964 L 184.70684135798365,198.87174015305936 L 185.3954691113904,198.05050105787814 L 185.2970937639475,194.84664556384087 L 185.83113162685186,194.0548249538988 L 189.96758297178894,193.34089794848114 L 192.66119512356818,192.2369514303282 L 193.9400753742084,192.47484421543777 L 193.958813524805,193.5788588859141 L 190.67026441916823,199.96487986017019 L 189.9722675215453,201.891342157498 L 189.63029589597136,203.95239144656807 L 189.75209398940206,206.27239599917084 L 190.25802464876324,208.45683785434812 L 193.86980718374252,216.55906100943685 L 194.02908166963607,217.50559879280627 L 193.90259898174554,218.6296176565811 L 193.34513841941953,220.6949062095955 L 193.2327093789354,221.73516120295972 L 193.39198386389762,222.7948829913512 L 194.6942867236212,225.34549557603896 L 196.41351399291307,230.37175745423883 L 196.9241291563958,231.2784712947905 L 197.63617965579033,231.92099112458527 L 199.7863848907873,233.17269425746053 L 207.55804151669145,236.41685900930315 L 208.34036015998572,236.57729492802173 L 210.21886186953634,236.50188916176558 L 211.91466639377177,237.42450878303498 L 213.42777373362333,241.69715335965157 L 214.80034478288144,242.7672717506066 L 215.70914611406624,242.44106250908226 L 217.34405159205198,240.86344139743596 L 218.1779002295807,240.5871842270717 L 225.31714359857142,241.45296435523778 L 226.066670444794,241.87869871221483 L 226.1884685382247,242.7672717506066 L 225.710645172745,243.83608478866518 L 224.47392581775784,245.55324534885585 L 225.78559786640108,244.81194111984223 L 228.095077496022,242.69495698343962 L 229.37864225078374,242.16308370232582 L 230.87769598793238,241.8176470976323 L 232.17999889329076,241.1573882382363 L 234.52695487067103,239.1997778378427 L 235.43575620185584,238.72136870771646 L 237.34704970847815,238.52231687214226 L 238.95384789258242,237.4341373424977 L 240.8136114059016,236.92385953944176 L 241.67088278848678,236.43611098453403 L 242.29861149564385,235.6388409892097 L 243.43227090872824,233.6616274435073 L 244.07873781211674,232.90661276690662 L 248.73048886936158,229.29231274593621 L 250.30917984992266,228.68065652716905 L 255.48091521393508,227.8017727844417 L 259.36440122965723,225.88302096165717 L 260.647965984419,224.7456684205681 L 261.9408998368308,224.12194814439863 L 264.6954110348597,223.26809664908797 L 269.79219370521605,219.99357316084206 L 270.9726984715089,219.7172290282324 L 273.98954409733415,219.752369903028 L 284.2065321383998,218.4028713107109 L 285.9913430036977,218.59448704775423 L 286.89545974042267,218.4827100429684 L 289.8186145219952,217.25178237538785 L 290.98506568651646,217.3012672951445 L 292.30610678810626,217.87438102345914 L 293.59904059488326,218.80846931226552 L 294.67648550961167,219.93287158757448 L 295.1589934248477,220.73005614522845 L 296.62525531835854,224.69448746647686 L 297.14523958042264,225.1695365253836 L 297.82918287534267,225.34709529019892 L 300.6305395178497,225.57105505745858 L 302.4012966910377,225.31670170649886 L 305.96154927741736,224.26587450038642 L 306.9827796490863,224.19870824553072 L 309.9480952806771,225.20952655375004 L 311.12860009260476,225.22872186172754 L 314.4452564474195,224.41620345506817 L 318.5582850938663,224.41620345506817 L 322.4558247560635,223.2105404883623 L 323.837764903903,223.70139437913895 L 324.38117186538875,223.73017605394125 L 324.8496261779219,223.4327759630978 L 325.3555567925796,222.44160969555378 L 325.7912193071097,222.20984178502113 L 326.606329748407,222.46238958276808 L 327.9601626479998,223.78774005640298 L 328.8033803831786,224.15712966304272 L 329.99793879687786,224.00361274089664 L 332.34957932308316,222.99631134513766 L 333.5394532335922,222.78529138676822 L 334.48573086597025,223.01389684341848 L 336.2283808356151,223.79573511891067 L 338.2427342850715,223.74616601597518 L 339.1093747206032,223.95244180690497 L 340.8473401404917,224.8944167662412 L 341.1939963148907,225.63024662807584 L 341.53128339070827,225.71023670770228 L 342.35576293058693,225.53905995562673 L 342.9647534871474,225.77263009920716 L 343.92508481256664,226.9134898222983 L 344.8010943457484,227.54887115210295 L 347.71019543521106,227.72173885349184 L 349.50905990134925,228.43410039134324 L 350.3944385331124,228.58779581356794 L 351.27981711924076,228.19716535974294 L 356.4234452350065,227.32639561593533 L 357.96934437192976,226.7534608906135 L 358.47059043776244,226.31021572370082 L 359.76820883899927,224.46738061215729 L 360.4474675403908,223.9236584547907 L 361.1923098824918,223.73017605394125 L 362.7569471700117,223.71418622136116 L 367.2213165387511,222.95634457841516 L 368.7063166294247,223.38800806645304 L 370.6269791889936,224.32984354812652 L 371.3202915834263,224.48337360285223 L 372.01828848104924,224.4321962306276 L 373.2784304898232,223.99721639137715 L 375.08197950571775,224.006810920313 L 377.6303708637133,222.37287708371878 L 378.3845822131261,222.35529454052448 L 380.7643300332129,223.51271996088326 L 381.71060766652226,223.69499847386032 L 384.7040305919945,223.5766763780266 L 387.7583525646478,222.83644672855735 L 388.526617561467,221.71598346717656 L 389.06065546907485,221.3308502631262 L 391.3841887470335,222.5391162354499 L 392.41010362189263,222.68777855485678 L 393.45944124273956,222.56788914371282 L 394.47130251675844,222.17947331350297 L 397.0478010782972,220.64537730626762 L 399.0621545277536,220.30348577629775 L 403.9247100651264,220.75561989843845 L 405.9952780120075,220.64218194317073 L 408.0892686592415,220.94256030023098 L 408.9652781933546,220.78118388541043 L 410.8250417066738,220.10379693470895 L 411.7806884367019,220.04628847073764 L 412.5583225777373,220.34182721748948 L 414.20259710773826,221.40755417011678 L 415.1488747857511,221.7607317501679 L 417.1444900846109,221.91096196044236 L 420.1613356648013,221.59772266168147 L 424.61165138706565,220.02871657907963 L 426.47609944920987,218.93143465183675 L 428.04073678236455,217.6141543854028 L 428.8183709224686,217.20868313498795 L 434.2946015195921,216.65162943582982 L 437.92980680055916,215.146872847341 L 440.92791427485645,214.97457374818623 L 442.67993329651654,214.27747971657664 L 444.39916052110493,214.21686885878444 L 447.9313058583066,216.01965528540313 L 449.7208012724295,216.3675472997129 L 450.8591451430693,216.03720868751407 L 451.1964322645217,215.41331367753446 L 450.93878238555044,213.03674326930195 L 450.98094328213483,211.61150917503983 L 451.24327770993114,210.35729582048953 L 452.35351437702775,208.06826001778245 L 453.9743661619723,206.42361094802618 L 457.56272604316473,204.72397940512747 L 459.0008806884289,203.19209172949195 L 461.05739503353834,198.24904380831867 L 462.294114343822,196.56890214700252 L 464.59422492049634,195.6084704650566 L 468.9227425036952,195.33546588383615 L 472.57668598089367,196.04341313056648 L 474.5676166852936,195.96880269050598 L 484.6065920898691,193.79462291114032 L 486.5178855974227,192.50973640196025 L 488.87421067245305,189.19639026932418 L 491.8161036046222,186.51450766716152 L 493.315157296136,184.52766374126077 L 494.5144002586603,182.416872006841 L 495.8776022559032,180.5712700607255 L 497.8591639082879,179.39667999185622 z M 115.99865089915693,47.08156441710889 L 114.86967603582889,46.7269497346133 L 113.21603240724653,45.48298730980605 L 112.43371371831745,45.094900463707745 L 111.29536984767765,45.03378785867244 L 110.55989660322666,44.15386814251542 L 111.00492817070335,43.30162846669555 L 112.8553225863725,42.17780172359198 L 114.01708920206875,41.82361668534577 L 114.71977064851671,41.961012351326644 L 115.1648022159934,42.6908143479377 L 116.19071713741869,46.46712249983102 L 115.99865089915693,47.08156441710889 z M 88.4137200973928,50.176593030802906 L 85.19778143335134,51.535240123048425 L 83.9680889248848,52.34636243991554 L 83.19279703591019,53.326048243790865 L 81.80851468164474,56.39216637890786 L 80.78259976115078,57.03570409491658 L 79.35849871765822,56.25427877437323 L 78.57618002779782,54.40704044979066 L 78.31150339357555,53.362791143357754 L 78.26231569703668,52.38003514800221 L 78.5105964327231,51.42506248038262 L 79.63020224310458,48.95603663288057 L 80.14550190977752,48.21592904254794 L 80.74043886549771,47.89790791645646 L 81.94905092567205,47.638005380518734 L 82.4713774388656,47.21913887094706 L 82.67749736923724,45.495211138390005 L 80.74043886549771,42.43735355976969 L 80.8153915591538,40.935237070545554 L 81.38690581358969,40.64525843411684 L 83.15766298677772,42.02207862120122 L 84.01961887348443,41.97933221235871 L 84.34753689635545,40.82229561172426 L 84.8768902560696,40.330884027294815 L 85.54677985887975,40.26984331384301 L 87.69230050034821,40.84671510476619 L 89.2147769369185,40.88029220048338 L 89.8425056906417,41.11533954925835 L 90.32501360494643,41.832776295021176 L 90.4140199450776,43.652888278476894 L 88.41840464621782,45.80693084187806 L 88.3130024522543,47.33531644940376 L 89.05081794876605,48.05997325014323 L 91.14949314389378,49.53108988888562 L 91.45398842263967,50.458076948300004 L 91.10733229387552,51.00886306166649 L 90.5358180385083,51.11596909351647 L 89.37873592600226,50.80383942835033 L 88.4137200973928,50.176593030802906 z M 57.6737497234717,40.70935724303126 L 56.99449102208018,40.72767132334411 L 56.94296102784574,39.815118628554046 L 57.28493265341967,38.83565034996718 L 57.88923870585859,37.96927748899907 L 59.42576874513179,36.89572022110224 L 61.170760965906084,34.109457133337855 L 61.43075314164162,33.90224043279886 L 63.75897092279047,35.78281454369426 L 65.0565893240273,36.45357049629092 L 66.54861621558666,36.749348050914705 L 67.01472823135555,37.17628163471818 L 67.08733867295086,38.23466076981276 L 66.7477092994377,39.32382919732481 L 66.19024869147688,39.46724297013134 L 64.75677859503776,38.81124285701662 L 63.16637626476586,38.8661597315222 L 57.6737497234717,40.70935724303126 z" /></g></g></svg>