<svg xmlns="http://www.w3.org/2000/svg" xmlns:xlink="http://www.w3.org/1999/xlink" width="500.0" height="414.8588745656889" viewBox="0.0 0.0 500.0 414.8588745656889" preserveAspectRatio="xMinYMin meet"><g transform="matrix(1,0,0,-1,0,414.8588745656889)"><g><g><path fill-rule="evenodd" fill="#D2EBD9" stroke="#A6A6A6" stroke-width="0.25" opacity="1" d="M 491.49309779703617,414.8588745656889 L 492.6296278424561,412.2593760881573 L 492.1418466856703,409.8089265250601 L 489.9468318596482,404.8609833831433 L 489.8102531656623,403.34884958388284 L 490.176088844426,400.4483708678745 L 490.0638992842287,398.90379251004197 L 489.5761182215065,397.8052690986078 L 488.22008682601154,395.8326026278082 L 487.37134766578674,392.48981035640463 L 486.2396955797449,389.93583200569265 L 485.390956514515,388.45748305809684 L 484.20077062025666,387.4627395013813 L 482.3764693373814,387.0044171763584 L 481.7667430797592,387.3066065974999 L 481.41554061695933,387.95632810518146 L 480.86434797849506,388.3768946195487 L 479.64489527605474,387.9915848635137 L 478.8937124609947,387.2914970559068 L 478.186429859139,384.7129508459475 L 476.2596946498379,381.2862740717828 L 475.5768010877073,379.5013928122353 L 475.4011998558417,377.5127688511275 L 476.70845326874405,373.7801820472814 L 476.22067211195827,369.4342684021685 L 473.02570602763444,360.20928061869927 L 472.57206954434514,357.870312969666 L 472.9720500856638,356.7260693348944 L 473.8646894581616,355.7981437020935 L 474.9134187940508,354.12093456392176 L 475.1134090637788,352.2100260213483 L 474.79635136947036,350.19117842731066 L 474.7622066959739,348.21524825692177 L 475.8402028400451,346.4430931278039 L 477.44500267878175,345.84737896709703 L 480.9814154971391,346.2017892433796 L 482.4398809140548,345.6312165237032 L 483.03009599633515,344.6987259311136 L 483.05936289951205,341.9291310722474 L 484.39100525621325,339.0744438637048 L 484.6641626441851,337.3884391146712 L 483.46909898053855,333.53698221291415 L 484.4934392767027,330.5904210852459 L 483.7666455004364,327.6316864427645 L 483.73250073287636,326.6145537791308 L 484.2105262549594,325.1554875508882 L 486.00556063558906,322.99091826891527 L 487.093312414363,321.0901845067274 L 489.2590604322031,318.7000550972298 L 490.91751621384174,316.32021694327705 L 498.7171357208863,301.0253635600675 L 499.41466268803924,297.4785085890908 L 500.0,287.9518414400518 L 499.66343094129115,284.98104043630883 L 485.8299594987184,251.22796017793007 L 486.07384998258203,249.84368796716444 L 487.5469488976523,248.75484999106266 L 487.78108384180814,248.04650602326728 L 487.81035064999014,247.41577208577655 L 487.5810935711488,246.89267580211163 L 487.093312414363,246.50724379206076 L 486.5323642352596,245.55370144871995 L 486.36651863809675,244.50259604887106 L 486.5811423137784,243.42901422502473 L 487.6445051478222,240.98673079675063 L 487.99570751655847,238.05181263037957 L 488.37617669347674,236.59824639139697 L 489.0298033533618,235.45496887201443 L 491.6784546626732,232.42816992197186 L 492.9613188477233,229.73188385902904 L 493.2149650603533,227.19594604871236 L 493.13204221520573,224.59525732439943 L 493.3515437543392,221.70481543568894 L 495.71240427251905,211.03612234722823 L 495.88800540938973,207.89238561410457 L 495.55631421506405,204.9639204989653 L 494.4539290321991,202.68535314989276 L 494.25393876153976,201.63608290394768 L 494.92707668989897,200.3670244780369 L 494.9173210551962,198.10386373102665 L 492.1418466856703,190.22186471149325 L 491.66869902797043,187.84975649719127 L 490.91751621384174,185.65263398736715 L 489.5273400498554,183.9100520396605 L 487.093312414363,182.9015064102132 L 484.81537483632565,181.3238619233016 L 481.6252865223214,176.98085318808444 L 479.46929413825274,176.8610564933624 L 477.6547484891489,178.46338322712108 L 474.82561817765236,182.87654283666052 L 472.5964586781338,184.23958560521714 L 468.4405637793243,183.8701088214293 L 462.3725671702996,181.96788849588484 L 456.7679624892771,179.19719258509576 L 453.9778547156602,176.2221506522037 L 453.34373923111707,174.85953779006377 L 452.2120871441439,173.8064324799925 L 449.69513675849885,172.0247370810248 L 446.71479434892535,168.31701252236962 L 440.2663284679875,161.8360176004935 L 437.9737573908642,160.2746358793229 L 434.4714891510084,158.9078806838952 L 430.9789765458554,158.50385376345366 L 423.77444998547435,159.05752188898623 L 420.8477635188028,158.80313236522488 L 418.7015266753733,157.50129566946998 L 417.1503828736022,155.23695402336307 L 416.0479976898059,152.1001197937876 L 414.2041850425303,149.6318118844647 L 412.2140382565558,149.0783446226269 L 407.5069508133456,150.15038646827452 L 408.2581337224692,148.69940082449466 L 400.12682302109897,149.82627615658566 L 395.6050924444571,149.88112523942254 L 392.69791715126485,147.82685388368554 L 391.4491975456476,147.90662840660661 L 390.5565581731498,149.40743189351633 L 389.70781910791993,150.02572815702297 L 388.4883664054796,150.215209052898 L 387.38598112761974,150.12046848097816 L 385.17145493719727,149.5370734327007 L 386.06897217500955,146.939378736075 L 388.8639578130096,141.67996184178628 L 389.3956392770633,139.30235372064635 L 387.7566947648302,136.7804297048133 L 387.46402610838413,133.48634285270236 L 386.03482750151306,130.83044169307686 L 385.5275351703167,129.50508206058294 L 385.6299691898748,127.98050225013867 L 388.20057561341673,123.561707588844 L 389.04443681426346,121.32518999348395 L 388.1761864796281,119.86084551387466 L 386.94697814341635,119.83096182649024 L 385.7470366153866,120.48343111551367 L 383.66908921301365,121.95777174923569 L 381.42529621347785,122.56546274200082 L 380.42046728078276,122.46085930010304 L 375.10365348588675,121.06618441618048 L 373.8549338802695,121.28036192362197 L 373.00619481503963,121.97271468141116 L 371.6501634195447,124.09969518450089 L 370.93800295330584,124.9216418126598 L 369.0893127247691,125.92295645317063 L 362.57743526715785,127.98050225013867 L 358.6654309472069,128.0552344690077 L 353.7583531392738,129.5798186676111 L 349.43661273736507,130.3122480220627 L 347.2367201410234,127.98050225013867 L 346.9196624457836,125.34507875237614 L 346.3831033054739,124.15947234001942 L 343.7588410349563,121.3949226748664 L 342.90034633502364,119.37772915745154 L 341.75893851928413,118.00811641151085 L 339.06150922644883,118.14756476436742 L 334.5690453639254,119.81103932252154 L 332.95936784893274,119.48232063045725 L 330.8033754657954,117.63459798088297 L 329.5644114939496,116.28001425042748 L 328.48153739143163,114.58190105855465 L 328.1986244637519,112.66480551031418 L 329.41807716619223,110.62337318691425 L 330.5692405216396,110.00101605337113 L 333.0813130438328,109.53799167391844 L 334.1251646094024,108.75883419206366 L 334.55928982328624,107.67601676797494 L 334.65684597939253,106.39411657722667 L 334.45197793934494,103.88525248412043 L 335.9153212197125,98.79854506044649 L 336.071411088109,97.33293344033882 L 335.8080093348399,95.89228145894594 L 334.76415786426514,92.620616505621 L 333.2032583327964,85.37955739232711 L 333.2959367185831,84.01165626430884 L 334.5007560169324,83.05665273359045 L 336.0421442789957,82.66620505601168 L 337.2908638846129,81.90024734660983 L 337.5445100031793,79.81137926969677 L 338.5298278564587,77.1507871102076 L 340.47119656484574,75.6813542470336 L 345.5246085114777,74.43575368705206 L 346.9196624457836,73.14545970759355 L 349.22198915760964,69.5185363786295 L 350.6365542653948,67.92025407054462 L 353.9339543702081,65.09924710704945 L 355.2021852452308,63.531038876157254 L 356.1582361003384,61.54045966267586 L 357.2411102037877,63.61553595075384 L 358.6946978503838,64.4828885407187 L 360.3336421735585,64.22441967623308 L 362.0213647633791,62.9246552803088 L 363.11399440746754,61.26959277386777 L 364.6553825745359,55.75838714418933 L 365.71386754512787,53.84536999836564 L 365.050485345535,53.264037024229765 L 362.0555094368756,53.363409366458654 L 360.3872981155291,53.169633673736826 L 359.5434368206188,51.84553523012437 L 359.7483049556613,51.62195990537293 L 359.63123743701726,49.147844086168334 L 359.4800253389403,48.93422573572025 L 359.9629286304116,47.37436300609261 L 362.2896443810314,42.95107490126975 L 364.7187941512093,33.71428558859043 L 362.6164577100426,35.44223424652591 L 360.14340763166547,36.06789623037912 L 354.7973269345239,36.596740080509335 L 352.29501004703343,37.46078773611225 L 349.6707476815209,38.801602402701974 L 347.2806203542277,40.53233891027048 L 344.6466025430709,43.58683394338004 L 341.5004145372659,46.15981547255069 L 341.3589580729604,44.59265340329148 L 340.4760743351653,42.486681611509994 L 339.35905565228313,40.586969326250255 L 338.48104968387634,39.625986161408946 L 336.5299253407866,39.59618880506605 L 334.8617140194401,40.676364758983254 L 333.5886054690927,42.223445993615314 L 332.88132286816835,43.596767803654075 L 331.79844876471907,46.94218677817844 L 331.12531093135476,48.40018666302785 L 327.91571134794503,52.851645646151155 L 326.242622256279,55.783232452347875 L 324.6573337810114,57.624324320815504 L 322.1306277597323,57.890186983393505 L 319.40880933310837,57.1075145828072 L 315.4090043976903,54.61304574483074 L 313.26276764832437,53.61929473048076 L 298.3171551991254,50.442008449696004 L 297.55621674936265,50.53143466333859 L 295.43924680911005,51.60208660666831 L 292.33695920556784,52.56595642189495 L 291.1467733113095,51.7561048893258 L 287.31281406711787,47.275011545279995 L 284.5031949300319,41.538051353534684 L 283.5959221525118,40.63166700792499 L 282.19111267849803,41.12831245013513 L 278.9522461919114,43.97674004081637 L 277.49865854531527,44.92545094061643 L 264.1383347604424,47.42900636559352 L 262.79693667404354,47.88851218437776 L 261.71406275965273,49.3465603874065 L 261.49456122051924,50.60595665848814 L 260.94336858112365,51.01831549126655 L 258.85566563904285,49.91787720192224 L 256.33383738901466,47.863673767773435 L 255.2753524184227,46.47027771640569 L 254.6656260676682,44.955253827851266 L 254.98756153229624,41.62744974391535 L 256.4655383117497,38.016970039810985 L 259.8409833032638,31.750607028836384 L 259.88976147584617,28.630344660952687 L 257.5971903987229,26.40888205752708 L 248.33422761131078,21.68356243125163 L 247.1098970444873,20.63387059397064 L 246.0123896310106,19.415481286123395 L 242.12477444391698,13.458259829785675 L 239.8468366768211,11.09158463892527 L 236.48602508939803,9.734677049331367 L 232.2423296701163,9.55607597809285 L 218.2430125353858,11.287559975637123 L 214.18467388674617,11.111430210294202 L 212.70181943196803,10.779019077308476 L 211.49212226923555,9.843822662485763 L 209.7897663693875,6.931755646597594 L 205.8533730097115,1.148154568625614 L 204.85829961672425,0.21822035033255816 L 203.52177939470857,0.0 L 201.80140936747193,0.37335444218479097 L 201.601688019,0.943518286338076 L 200.01159851346165,2.9274609338026494 L 199.03603629488498,3.5054848382715136 L 197.66871294938028,2.911838863044977 L 194.34258368983865,6.364524457836524 L 193.47456376440823,6.9074605230707675 L 190.5862852530554,6.9074605230707675 L 188.09744953457266,6.028612113324925 L 187.29856394790113,6.247345315292478 L 186.5534495562315,7.844927526311949 L 186.22314110212028,11.970134469680488 L 184.54855401907116,13.08357014763169 L 183.41936007328331,14.404120158869773 L 182.78178788162768,14.82999067590572 L 182.1058078277856,14.712778022512794 L 181.52968849707395,14.290816213237122 L 180.9382058326155,14.146256622159854 L 180.21613625157624,14.82999067590572 L 178.7412706129253,12.884320715907961 L 176.29852442163974,12.841345532098785 L 171.48216628376395,14.11500067031011 L 169.8767135394737,13.935279110912234 L 167.6029624082148,13.329703733557835 L 165.9744649482891,13.458631604909897 L 156.94091290794313,16.006050186464563 L 155.3508234033361,16.14280437747948 L 154.06031596846879,16.545255940640345 L 151.45625628903508,18.764699859078974 L 151.29494289588183,19.471987350145355 L 149.2209130199626,23.29398004990071 L 147.58473398722708,23.29398004990071 L 147.24674396030605,23.454217705409974 L 147.36964939907193,24.290593965910375 L 147.00861456152052,25.24033997138031 L 146.84730116743594,26.670879984041676 L 146.5861270511523,27.229825905524194 L 145.87942061480135,25.330235287779942 L 145.95623652637005,23.266622571274638 L 146.5861270511523,19.718174357898533 L 146.24813702516258,18.053521789843217 L 145.44156986661255,16.3889634066727 L 143.36754008568823,13.458631604909897 L 142.2613908564672,12.310020897071809 L 141.06306247692555,11.724012304563075 L 139.4729729713872,11.520865293219686 L 137.21458498574793,11.489612119272351 L 135.9932118896395,11.708385510137305 L 135.43245560862124,12.224072262411937 L 135.02533124387264,12.87260013516061 L 134.2878984240815,13.458631604909897 L 133.3430626830086,13.716489132959396 L 131.76065474934876,13.771186427213252 L 131.06162988580763,14.11500067031011 L 131.06162988580763,13.458631604909897 L 133.06652532797307,12.372529204469174 L 134.84097303822637,10.606721292482689 L 135.32491331454366,8.946489150170237 L 133.3430626830086,8.216016402933747 L 130.23969948850572,8.411328272661194 L 126.70616730675101,7.622276427457109 L 124.9701275518164,7.559778239112347 L 123.69498326256871,8.173047994729131 L 123.06509273685515,9.528536376543343 L 122.8960976768285,10.880180195672438 L 122.97291358746588,11.489612119272351 L 122.68101308867335,11.759172501973808 L 122.4428837839514,13.024967279285192 L 122.03575941827148,13.458631604909897 L 121.29064502660185,13.521142343059182 L 120.56089377962053,12.8960412053857 L 120.09999821987003,12.802277228562161 L 118.61745100840926,13.372679628198966 L 117.81088385079056,14.068116612965241 L 117.05808788631111,16.29518832312897 L 116.13629686180502,17.318916322663426 L 114.23894371371716,18.764699859078974 L 112.67189892474562,18.0925970566459 L 112.18795864842832,19.331310083158314 L 112.64885411318392,21.089825322153047 L 114.65374965034425,22.69602802558802 L 115.62163020297885,24.360944476909935 L 116.45124217215925,26.22920310893096 L 116.81995858158916,27.585524391848594 L 118.36395846493542,29.837079083779827 L 122.00503303483129,30.896464603720233 L 129.81721197906882,31.22484290180728 L 129.81721197906882,31.87770118494518 L 128.5804756451398,32.2647318886593 L 128.25784885697067,32.85115197324194 L 128.81092347111553,37.01507603935897 L 129.12586868740618,37.785369974095374 L 129.90939112845808,38.45010723825544 L 132.1447343043983,39.83437400800176 L 132.9973909901455,41.179600985720754 L 133.18174919486046,42.28242117073387 L 132.9973909901455,46.01355287316255 L 131.5762965446338,49.40484605310485 L 128.85701299924403,54.220627875765786 L 127.05952047836035,58.98635658225976 L 128.4806150170043,62.24613929330371 L 126.67544092331082,63.66678675846197 L 125.76901304349303,64.0346795246005 L 122.97291358746588,64.33995604445226 L 121.82067483011633,64.8409296516329 L 120.99106295593083,65.57675081351772 L 119.88491372577846,69.02127683348954 L 117.84161023329943,70.76718697720207 L 115.11464511603117,71.77720258245245 L 112.2570929871872,72.0982230110094 L 112.49522229190916,71.68324614269659 L 112.94843627884984,71.44052662630565 L 111.66561041679233,69.47535955370404 L 110.9665855532512,69.47535955370404 L 110.22915273346007,70.39529115729965 L 109.03082435484976,70.72412502183579 L 109.03082435484976,70.13300971523859 L 109.59158054180443,68.98213211959228 L 109.00777963828295,67.56513011967763 L 107.09506325051188,64.81744627677836 L 109.00777963828295,65.67460086918436 L 109.19213784299791,64.68828830658458 L 108.48543131165206,62.93884269078262 L 106.08109307661653,58.536356111522764 L 105.47424736153334,56.74816407659091 L 105.21307324618101,54.61187267838977 L 104.16837668884546,52.09235079935752 L 103.937928956002,50.96568036428653 L 104.56781948171556,47.38645001896657 L 104.04547125007957,45.94314965279773 L 102.76264538802207,45.00445675547235 L 101.2416902212426,44.67592148692347 L 100.0049538873136,45.063124106032774 L 99.16766044031829,44.29263514978811 L 98.06151121109724,43.80766791291535 L 97.28567043598741,46.072222291491926 L 95.30381970945746,47.42947633890435 L 92.9455710016191,48.43083480815403 L 90.98676508665085,49.65128784882836 L 87.11524278391153,47.29257465433329 L 85.479063751176,45.78669871506281 L 85.82473534997553,44.4060560867656 L 84.51118310447782,44.449077925644815 L 83.38198915868998,44.25352458911948 L 82.50628766138107,43.799845948116854 L 81.9071235191077,43.09196513774805 L 80.07890461478382,44.011040228186175 L 77.89733253978193,44.241791364271194 L 76.76813849899918,44.71112151746638 L 78.0356012172997,46.3733941426035 L 75.13195946626365,48.65379830845632 L 74.42525302991271,49.00193774770014 L 73.82608879357576,49.776465541217476 L 74.27162120863795,51.42729695443995 L 75.03978031687438,52.95303189125843 L 75.45458634849638,53.324697696836665 L 75.24718333221972,56.30602468084544 L 74.32539230771363,61.23255307460204 L 74.10262614767998,63.86247382173315 L 74.41757145803422,64.77047968213446 L 75.7541684191674,67.0719363023527 L 76.03838725201786,68.81772493734024 L 75.91548181325197,70.46575525868684 L 75.53140225913376,71.61669379961677 L 74.10262614767998,74.0714049495291 L 73.6110042994842,76.40495130722411 L 73.1731535512954,77.06276475265622 L 72.55094459746033,77.22722052154131 L 70.24646698962897,77.3603521680925 L 70.43082519434392,78.42542792088352 L 72.289770482108,79.70983834262006 L 71.53697442356497,80.70451417309232 L 71.53697442356497,81.29585412307642 L 72.25136252678931,82.435491819866 L 74.77860620059073,84.89507620898075 L 77.45948179159313,86.54014351312071 L 78.68085488677025,85.24366567819379 L 79.2646558843553,85.24366567819379 L 79.16479516308755,86.72815745184198 L 78.25068571045995,89.18029008922167 L 78.0356012172997,90.55922112846747 L 76.05375049076974,89.68954636738636 L 75.45458634849638,89.1881248052232 L 74.27162120863795,90.37901596608572 L 73.91826794296503,91.45242931833491 L 73.86449684295803,92.72177518089302 L 73.51882515009493,94.50444341031834 L 72.90429776906967,95.94241646910086 L 71.50624813511968,97.93689677026123 L 70.89172075409442,99.16343744145706 L 71.95178045518696,98.88128897408023 L 72.24368095491081,97.79190997593105 L 72.8274818584323,97.79190997593105 L 73.42664609476924,98.84993931395002 L 74.39452664647251,99.67679824656807 L 75.61589974258095,100.22152002598159 L 77.06772057060152,100.42530357791111 L 78.33518328797072,99.89233434479684 L 79.8330936441198,97.60773867997341 L 81.26186975557357,97.13360135932453 L 78.28141209390014,102.80419812561013 L 77.39034745283425,103.70956522482447 L 78.0356012172997,105.0853106728755 L 77.39034745283425,105.0853106728755 L 76.74509378243238,103.70956522482447 L 77.13685490936041,102.94529224000871 L 76.95249670464545,102.07522310852073 L 76.33028775081038,101.36978206411004 L 75.45458634849638,101.13855817052536 L 74.5174320852384,101.60884619946592 L 73.40360128413886,103.33330509928055 L 70.89172075409442,104.59144529607147 L 70.21574070118368,106.67279608454555 L 70.12356155086309,109.08752045710571 L 70.24646698962897,111.00847801403143 L 69.60121332015842,110.34984854003415 L 69.90847696270794,112.31794375902973 L 70.24646698962897,113.03543255850673 L 69.37076558731496,113.07071939273737 L 68.89450688380748,113.32949089072645 L 68.3107058852911,114.35283886059187 L 68.3414322687313,111.0123984653037 L 68.17243720870465,109.50698318216018 L 67.66545212082565,108.37405673693866 L 67.0201984513551,108.37405673693866 L 66.00622827745974,108.71118559967726 L 64.66963131539524,108.4014972303994 L 63.356079164892435,107.74293143465184 L 62.457332856953144,107.0608623009175 L 60.52157175261527,109.74611902795732 L 62.457332856953144,111.00847801403143 L 64.3777308166027,109.0326379116159 L 65.08443725295365,109.0326379116159 L 64.74644722603261,109.98133668978699 L 63.71711390744895,111.24762716866098 L 63.14867614861578,112.31794375902973 L 63.14867614861578,116.27025090740062 L 64.22409899439663,117.3211606007535 L 67.11237750668079,116.1408507374581 L 68.89450688380748,116.27025090740062 L 68.89450688380748,116.98784522083588 L 67.73458645958453,116.8819695203565 L 66.78975071851164,117.15254176757298 L 66.08304418809712,117.67408732906915 L 65.6682382505387,118.30152392643504 L 65.6682382505387,118.9603482845705 L 66.39030792564154,118.9603482845705 L 66.39030792564154,119.61918875691481 L 65.08443725295365,118.9603482845705 L 64.3777308166027,118.9603482845705 L 63.79392981901765,120.93691847077571 L 63.14867614861578,120.93691847077571 L 63.14867614861578,118.9603482845705 L 62.457332856953144,119.61918875691481 L 62.457332856953144,117.58781586843543 L 61.85816871467978,117.58781586843543 L 62.011800535954535,120.25843643443659 L 62.52646719571203,122.29393422161229 L 63.517392558045685,123.79222250822932 L 65.08443725295365,124.88265276467428 L 66.85120339039713,125.4945684033446 L 67.66545212082565,125.2984400773421 L 68.61028795689344,124.5845450903289 L 69.77020828612149,124.04717524792068 L 71.09912376943976,124.30605282215402 L 72.24368095491081,125.1023131958209 L 72.8274818584323,126.20064243883826 L 72.24368095491081,126.20064243883826 L 71.3987058410421,124.97679276880808 L 70.09283516835421,125.07093300949782 L 68.7101486781612,125.89467474608682 L 67.66545212082565,126.85966180288233 L 67.0201984513551,126.85966180288233 L 63.14867614861578,124.88265276467428 L 62.6186463451013,125.47887812252156 L 61.950347770005465,126.68313714070246 L 61.39727315492928,128.0600603041239 L 61.166825423017144,129.15851184679195 L 60.65984033513814,129.96668726368807 L 58.44754187669605,131.14368585124612 L 55.29808924905956,136.07587929465808 L 54.7142882514745,136.07587929465808 L 56.112337979488075,132.92105294927023 L 60.72897467389703,128.02867672452703 L 61.85816871467978,124.88265276467428 L 61.65076569840312,123.27055760705844 L 60.544616469182074,120.41923126927577 L 60.52157175261527,118.9603482845705 L 61.504815449006855,114.83511982345954 L 61.38191001024097,113.14129319950007 L 60.52157175261527,111.00847801403143 L 60.33721354790032,112.23561021895148 L 59.43846723996103,113.97250959323719 L 59.23106431867927,115.34093602141365 L 58.885392624884844,115.97223922540434 L 56.65004944987595,118.30152392643504 L 58.084971480071545,120.49837341578677 L 57.73864688165486,126.00266471668147 L 56.67040627729148,129.83392453333363 L 49.98780554626137,139.5266471542418 L 45.656309416517615,147.91161428019404 L 44.71489196550101,152.70351961255074 L 43.19789283722639,156.0548872409854 L 41.32481338083744,158.33426416292787 L 36.4860251089558,165.84216740983538 L 35.75435346830636,169.67927692248486 L 37.91034585144371,185.49285068898462 L 38.38349350914359,187.33041938301176 L 39.38344467245042,189.1531399632804 L 41.82235017232597,191.29562929086387 L 42.63694456405938,192.65912635577843 L 42.34915367793292,194.56714756949805 L 41.26627976261079,195.8159311208874 L 38.22740354668349,197.44943359843455 L 36.94453936163336,198.84324034070596 L 36.69089314900339,199.59762679948471 L 36.534803186543286,201.21638719225302 L 36.18360081780702,202.01081726211123 L 35.52021852415055,202.65037676738575 L 33.16911373473704,204.0544672869146 L 25.969464850611985,211.36601294297725 L 23.14521240349859,213.4354266554583 L 17.779620531015098,215.23005841416307 L 16.326032884418964,216.3348966250196 L 15.652894956991076,217.87475359998643 L 15.409004473127425,219.93971282732673 L 15.53094976209104,221.98984392010607 L 15.979708380997181,223.4975494085811 L 17.165016409941018,224.5502478228882 L 18.135700764134526,227.61608331021853 L 18.23813478462398,228.558917414397 L 18.01863333955407,229.7418880930636 L 16.64309067465365,232.0029472957831 L 16.038241998292506,234.00656105950475 L 15.648017186671495,237.71655899612233 L 15.16511389426887,239.95834300247952 L 14.579776676371694,241.03177068708465 L 14.291985790245235,242.11525532836094 L 14.428564484231174,243.12121292133816 L 15.496805088594556,244.28487278451212 L 15.618750377558172,244.6427407762967 L 15.496805088594556,244.99811137164943 L 14.691966236568987,245.7664306948427 L 14.516365099698305,246.17687843344174 L 14.667577292770147,246.55729952128604 L 16.35042192414403,247.6610554449726 L 16.64309067465365,248.16164179402404 L 16.682113117538393,248.75484999106266 L 15.07731327880174,249.72854414209723 L 14.135895922780037,251.00266627059318 L 12.633530103601515,254.05682975030504 L 8.350812240503728,259.1145802771207 L 6.477732784114778,262.37263947725296 L 1.3950539343059063,275.80527417431585 L 1.287742143496871,282.62221750966273 L 1.907224129885435,288.5234819308389 L 1.50724358856678,295.8607811771799 L 1.5755329355597496,297.2678213410545 L 1.50724358856678,298.04285859083757 L 1.1414077216759324,298.9257804933004 L 0.12682305928319693,300.56629868224263 L 0.0,301.60234347358346 L 1.775523206219077,303.89284457080066 L 5.463148122653365,304.31183268036693 L 13.101799896918237,303.65701032662764 L 18.857616770081222,304.14122579153627 L 20.681917959824204,304.7885350047145 L 25.120725879445672,307.3779536988586 L 26.83771527837962,307.85973821394145 L 23.511048270389438,310.0529889075551 L 21.48675681091845,312.0506856138818 L 21.608702005818486,314.10126641369425 L 24.63294481765479,316.4507501302287 L 34.12516468483955,321.11529222433455 L 36.359202049672604,323.04867092403583 L 36.73967122659087,323.9626888942439 L 36.86649428587407,325.96160375745967 L 37.10062923002988,326.95108153042383 L 37.55426571331918,327.77233069529757 L 39.237110438756645,329.88712149625644 L 39.998048888519406,331.5826131985523 L 41.62235999573022,336.88341600704007 L 43.36373833939433,339.9916233236436 L 45.68557631969452,342.3186631540302 L 51.11945753917098,346.5989366469439 L 52.51451156754047,348.21524825692177 L 52.85108043719083,349.45961141074076 L 52.807180128991604,350.91522731492296 L 53.124237918294966,353.14785935590044 L 53.787620117887855,354.6690938989632 L 55.753377865068614,357.49559812247753 L 56.431393657810986,359.06491620629095 L 56.68991754576564,362.68935911613517 L 57.12404276058078,364.26156129082665 L 58.58250817656517,365.7684649399016 L 60.17267451621592,366.5156656652689 L 63.6554314866662,367.52455260185525 L 65.26510909572244,368.47561562480405 L 72.8305936595425,375.0058500873856 L 75.94751476217061,376.7022676630877 L 77.85473879799247,377.33657040656544 L 83.55202186387032,378.1898875525221 L 90.63948099967092,380.3875215384178 L 97.02941326238215,380.37241670140065 L 99.05858258716762,380.62164677726105 L 100.69752700440586,381.3618011358194 L 103.3266670461744,383.28531319554895 L 104.68757621198893,383.6780929979868 L 106.26798691693693,382.5123631749302 L 107.25330477021635,382.3864781379234 L 107.94595387298614,382.66342615988106 L 111.51651136483997,385.1510807098821 L 115.15535829775035,387.01449010218494 L 116.74552463833243,387.2864605768118 L 118.43324713408947,386.7097865729593 L 119.70635587256402,385.8787985604722 L 121.07702067308128,385.5791471353732 L 123.02814492210746,386.5738045203034 L 123.6037266002968,387.3468987925444 L 124.03297404386103,388.8402827656828 L 124.94024682138115,389.3741986672394 L 125.89629767648876,389.44219836057164 L 126.83771522250026,389.1676825066097 L 127.6132871704176,388.65895575657487 L 128.18886884860694,388.0369149821345 L 128.4132481571287,387.039672388928 L 128.2083801170811,384.7280586925335 L 128.51080431323498,383.83923552464694 L 129.20345341600478,383.5773795975838 L 132.4423199025914,383.3558115228079 L 137.98351300600916,381.9383334221784 L 139.77366961631924,381.7293701886665 L 142.5881664287299,382.0415569739416 L 143.9490756895393,381.5883840925526 L 146.95868490822613,379.62726119789295 L 148.3586166119203,379.3503517268691 L 150.02195016294718,379.54670535144396 L 150.51460899505764,380.12067215912975 L 150.75362180359662,380.89353728247806 L 151.6316277720034,381.70419404725544 L 156.74357343185693,381.9685450810939 L 159.32881325948983,379.8034781180322 L 162.59206869080663,380.5360522454139 L 166.15774841234088,382.3059121973347 L 169.60148284491152,383.25006406893954 L 170.16243111807853,382.960519795306 L 171.3135944744572,381.8779101325199 L 172.49890250340104,381.8426632829942 L 173.211062874645,382.19513434474356 L 175.55241212341934,384.76834610756487 L 175.9084922624752,385.56655683461577 L 176.7230866542086,385.54389429232106 L 176.43041799776256,385.19136900571175 L 176.5182186132297,384.3201523674652 L 177.0547778485343,383.4313458581455 L 178.1961855692789,383.0108750106301 L 179.88390815909952,383.48673785757273 L 181.13262767065316,384.48633547732607 L 182.5569484140724,385.2618735083379 L 184.80074141267687,385.0654683774337 L 189.91268716659397,382.97562632826157 L 200.65362664032727,381.39704720815644 L 201.92185742035508,380.9589929552749 L 202.80474125314504,380.9766156100668 L 204.6924540195614,382.35123056313023 L 205.6972830472514,382.6231426403392 L 207.41427254118025,382.285770612536 L 208.8971269959584,381.60348967439495 L 210.43851516395807,381.2963443514891 L 212.32135016005486,382.0843571529258 L 213.3652017256245,383.2601352559868 L 215.3260816084221,386.13060977170244 L 216.81869169790298,387.0044171763584 L 218.34056878555566,387.03463587071747 L 220.68191794026643,386.02484873100184 L 222.2867176849395,386.09535603411496 L 222.88668849598616,386.58387724659406 L 223.8232281766832,388.1351308070589 L 224.59880003053695,388.46755665843375 L 225.36949420906603,388.08728205389343 L 225.85727527085692,386.3496878852602 L 226.48651279695332,385.8234004699625 L 227.91083363443613,386.12557356175967 L 230.7399639459327,388.3768946195487 L 232.03746153507382,389.0417589219287 L 233.60323883593082,388.880577808246 L 236.13482272159308,387.09003704972565 L 237.67621098365635,386.3018430657685 L 240.9931222628802,386.49825927079655 L 243.97834253683686,384.79352579195984 L 249.35369004309177,383.81909261923283 L 251.1194576146081,383.2702063503675 L 251.58284954354167,382.08687479025684 L 251.607238676399,380.7676615929231 L 251.16335792280734,376.3524022276979 L 251.31944779027253,375.52180887036957 L 254.3193014692515,369.94254735973664 L 255.9826350202784,368.04788386891596 L 258.05570465233177,367.0440046777949 L 263.1627725418657,368.6467106163036 L 266.06994774006307,373.53354657581076 L 268.22106235288084,378.38119632494636 L 270.9867811817676,379.86893042363226 L 270.9819033173844,376.79288122826256 L 271.3331056861207,374.53772238385864 L 272.2257450595498,372.5193506111391 L 277.8401052793488,363.9647209153045 L 279.5766060417518,362.24916266603395 L 281.5862640030682,361.4719227491878 L 282.2789131999016,361.03929621423595 L 284.6885517956689,357.64900409663096 L 285.4738792842254,356.9121620883234 L 286.42505246400833,356.52991919009946 L 287.9566849973053,356.3337708765175 L 290.6346031166613,356.3035943142604 L 293.4393443884328,356.7059512666892 L 296.0733622936532,357.6087664011866 L 298.3171551991254,359.1051565457601 L 299.8878103643656,359.53271506750025 L 301.2828642036766,360.3249778074678 L 303.9168820148334,362.20137043786235 L 305.404614334926,361.10972321080044 L 306.5801668232307,359.6534390493762 L 308.0093653369695,360.2243715052027 L 309.7117213308811,359.47738346643746 L 311.1555533427745,357.95833420124836 L 311.85308030992746,356.2306678162422 L 313.33105699531734,357.3044708715752 L 314.29686357919127,357.2491448337678 L 315.2529144352302,356.6254792730324 L 316.7699136575684,355.9791992758401 L 318.1210671896115,355.8283194799442 L 320.15023651346564,356.1351094332058 L 321.1745768105611,356.0898450592067 L 323.81835025548935,354.6690938989632 L 325.223159824498,352.2879677945748 L 326.2865225644782,349.5853084397968 L 327.8864445388317,347.1971844988875 L 335.99824397079647,340.0670096518006 L 338.51031649298966,338.68245537020266 L 340.86142137646675,338.14725125860423 L 343.18325926270336,338.3884684620425 L 345.5246085114777,339.33074786816724 L 347.7391347019002,339.2352617762517 L 352.62670105230063,337.98644122714177 L 354.5095360483974,338.0919726623688 L 355.8948343480006,339.79059451445937 L 355.7192332111299,344.35690626036376 L 356.8606409318745,345.83732484234497 L 358.22155009768903,347.2172939765733 L 359.91415045782924,348.3509936244227 L 361.3921271432191,349.6154758904595 L 362.08965420536697,351.4205670452211 L 361.6262620873749,353.2534623569809 L 357.5825569378212,357.4151233613957 L 355.1729183420539,363.19245168031193 L 353.6998195210472,364.8804107280448 L 350.46095303446054,366.943367656786 L 349.15857758093625,368.18375065969303 L 348.363494457677,370.1463655640837 L 348.73420800082386,372.56464869715273 L 348.40739476587623,374.43705102754757 L 347.358665429987,375.9924746444449 L 345.5246085114777,377.4875975716859 L 345.0709721231833,378.53223061095923 L 344.94414896983653,379.63733071181923 L 345.09536116197705,380.7575915574562 L 345.5246085114777,381.8275574380532 L 347.42695477698,381.4927153917961 L 351.5828495807946,380.05521900136955 L 353.2120384592563,380.1307419007644 L 353.46568457689136,380.58640195801854 L 353.6998195210472,382.1196043933742 L 353.9778546784073,382.5173985485453 L 356.94844145327806,382.5878945852164 L 359.2166235856712,382.1850637474563 L 362.52865709457546,381.993721625302 L 364.33344710990787,382.20016964524984 L 365.83581292815506,383.0989970152732 L 367.23086676746607,385.14604472671635 L 367.86498215794563,387.24113192781806 L 368.82103310804814,392.31852828827687 L 369.69903898146003,393.9734727437608 L 370.2551094852388,393.3789880138356 L 375.9914149949327,389.8224967212882 L 376.90844350121915,389.5882725075353 L 378.201063320972,389.492568597896 L 379.4546606959775,389.84516373090446 L 385.1519437627867,390.63096791808493 L 387.55182672385126,391.63341327919625 L 388.5225110780448,393.5351645837072 L 388.8981024855748,393.6006583729759 L 389.5907515883446,394.1850729340222 L 390.00048776343465,394.85263485182077 L 388.9078581202775,395.45975617179647 L 388.8200575048104,396.11476086475886 L 389.181015602313,397.22579531976953 L 390.0590214757249,397.73976255231537 L 392.29305884055793,397.3114557394292 L 393.74664648715407,397.22579531976953 L 393.74664648715407,397.8304639470298 L 393.0539973843843,398.0824142466299 L 392.6442612092942,398.55860830051824 L 392.43451539892703,399.25654124841094 L 392.40037072543055,400.1938731453847 L 392.55646059382707,401.15140489768237 L 394.3319837991148,401.8267425133381 L 396.35627525951713,403.71427221479826 L 396.91722353268415,403.19260187167674 L 398.102531561628,401.3353567891754 L 398.478122969158,400.0956026013009 L 398.9756596656516,397.01668479456566 L 399.3073508599773,396.0845294939354 L 400.12682302109897,395.5806786043104 L 402.29257103893906,395.0995119877625 L 403.26325539313257,394.51003443822265 L 405.1217013504356,391.6510445929598 L 407.86303104646504,390.1171696931124 L 414.73098864313215,388.0117316362448 L 416.31139944214374,386.2867341255769 L 417.0430709887296,384.836331380764 L 420.3502267273143,380.12067215912975 L 422.83303253538907,377.61345435585827 L 424.1451636236161,376.67206328967586 L 425.4621724812314,376.1510434858501 L 426.87673768401146,376.10070399264805 L 431.5252914149314,378.8745791313704 L 432.52524257823825,378.95009784935974 L 433.38373737223446,378.6580935085658 L 435.1495048496872,377.5480087103788 L 436.1055557988584,377.3768441698048 L 437.2859859634191,377.70407159952447 L 437.6274326974526,378.20499087963253 L 437.66645523533225,378.8091297089122 L 438.70055116619915,381.2963443514891 L 439.8858591960743,381.55313771101646 L 440.2907175067812,381.7872754635755 L 442.1247743302956,384.6827353790868 L 444.88073743041605,388.10239214939065 L 444.94414910208434,388.59347690967843 L 445.2368176635355,388.67406634776853 L 446.4270035568625,388.1502409360837 L 447.9732695892453,386.9137611503247 L 448.778108346276,385.7528941463679 L 449.78781523834914,385.23165727895685 L 451.8852738151327,385.8989433734678 L 454.7778157033026,387.8404847625643 L 457.3532998021692,390.17761589353904 L 458.1191161153838,391.70142006361857 L 458.6507974853739,393.3689122267533 L 459.41661379951984,394.53018727642484 L 460.82630113791674,394.52514911373146 L 462.3091555936262,394.26568308938295 L 463.11399444472045,394.7065251674503 L 464.1090677436441,396.68412746163085 L 464.45051447767764,399.2842575281393 L 464.82610597927123,399.7604781524278 L 466.3967610504478,400.84902193257585 L 468.0649723717943,403.22788352007046 L 469.4892931152135,404.5106629154179 L 471.2257937826216,404.3846497372724 L 473.77688884269446,402.5323416297324 L 475.5572899123654,400.9120180127211 L 476.484073959291,400.5516826901585 L 478.2547193001956,400.17371511110105 L 480.45461199153215,399.18347141332924 L 481.53748590592295,399.13811782049015 L 482.7569386092946,400.1409582113847 L 483.0496072648093,400.8893393832259 L 482.9910735525191,403.3135677368846 L 483.2691088039428,404.1023829653859 L 484.2641821978614,405.58684542262927 L 485.01536501199007,407.7948270344641 L 485.6250913636759,408.4401248677168 L 487.093312414363,409.1686289999634 L 490.2199891516939,413.7721397234127 L 491.49309779703617,414.8588745656889 z" /><path fill-rule="evenodd" fill="#D2EBD9" stroke="#A6A6A6" stroke-width="0.25" opacity="1" d="M 138.85076401848346,9.528536376543343 L 140.18736098054796,8.606641332153231 L 140.8787042722106,6.579354133456945 L 140.77884355001152,4.552205207524821 L 139.81864457018673,3.626558798365295 L 138.2746445927769,3.6499925651587546 L 136.90732124820352,3.911670479224995 L 135.78580887429416,4.685000666184351 L 134.97924171574414,6.247345315292478 L 135.76276406273246,6.466080126585439 L 136.9150029141456,7.559778239112347 L 136.29279396124184,8.708204573718831 L 136.58469446003437,9.411344742868096 L 137.51416705641896,9.67697979719378 L 138.85076401848346,9.528536376543343 z" /><path fill-rule="evenodd" fill="#D2EBD9" stroke="#A6A6A6" stroke-width="0.25" opacity="1" d="M 92.85339194629341,30.270992420846596 L 93.26051631197333,29.903533793520182 L 94.07476504240185,29.778442594222724 L 94.78147147875279,29.317173359449953 L 94.84292415063828,27.94122712686658 L 92.4846755368635,26.964032115181908 L 91.58592922892421,26.104127602418885 L 90.98676508665085,24.6657985849306 L 90.17251635622233,25.334143773419783 L 89.74234717991203,26.448086344404146 L 89.35058605391532,27.94122712686658 L 89.4197202976793,28.171849919948727 L 86.40853634756058,29.317173359449953 L 84.97207866422832,30.493815335677937 L 83.86592943500727,31.865973091684282 L 83.54330255277455,33.28120084130205 L 84.47277514915913,34.56356650684029 L 86.37780996412039,35.23213932081126 L 87.94485465902835,34.782512572361156 L 90.3415113221854,32.534483715193346 L 90.98676508665085,31.22484290180728 L 92.64598893094808,30.98246805020608 L 92.85339194629341,30.270992420846596 z" /><path fill-rule="evenodd" fill="#D2EBD9" stroke="#A6A6A6" stroke-width="0.25" opacity="1" d="M 68.3107058852911,90.55922112846747 L 69.23249690979719,88.65537429996766 L 69.40149187576026,87.95811364823021 L 68.89450688380748,87.26870473171584 L 69.39381030388176,85.96044198214076 L 69.32467596512288,84.16266118432395 L 68.89450688380748,82.42765911808237 L 68.3107058852911,81.29585412307642 L 67.0201984513551,80.67318524164148 L 65.52228800114244,80.66143693751656 L 64.62354178819805,81.15487124910578 L 65.08443725295365,82.01252803625539 L 64.04742236249149,83.0621167877689 L 63.72479557432234,85.07524548098445 L 63.79392981901765,88.58486407180317 L 63.07954180985689,92.69826820632443 L 63.05649699922651,95.06473456742242 L 63.79392981901765,97.13360135932453 L 64.3777308166027,95.82094990066253 L 65.43779051862657,96.73784005478956 L 66.35189997032285,96.835800266359 L 67.08933279011399,96.26763616153039 L 68.26461635809392,93.84229589742608 L 68.3107058852911,90.55922112846747 z" /><path fill-rule="evenodd" fill="#D2EBD9" stroke="#A6A6A6" stroke-width="0.25" opacity="1" d="M 67.66545212082565,104.42682553455234 L 69.60121332015842,101.13855817052536 L 69.60121332015842,100.42530357791111 L 68.10330286994576,97.66651665698737 L 67.66545212082565,97.13360135932453 L 66.72829795256257,97.20805214019492 L 66.65148204192519,98.17201208206825 L 67.0201984513551,100.42530357791111 L 64.93080543074757,103.78795339958742 L 64.4161387719214,105.5674260596279 L 65.6682382505387,107.0608623009175 L 67.66545212082565,105.74381190421991 L 67.8728551371023,105.24601481668651 L 67.86517356522381,104.77958343108185 L 67.66545212082565,104.42682553455234 z" /><path fill-rule="evenodd" fill="#D2EBD9" stroke="#A6A6A6" stroke-width="0.25" opacity="1" d="M 96.34851617272943,16.14280437747948 L 96.79404849372804,15.74426542664878 L 96.79404849372804,15.037067473400384 L 95.96443661861122,13.224217659793794 L 95.34222766477615,12.419410473667085 L 94.32825758587569,13.0445015237201 L 92.38481481466442,16.06856632558629 L 91.72419790644199,17.59634490078315 L 92.0929143158719,18.90928203915246 L 93.36037693917751,19.425094852922484 L 94.42811821307987,19.554049520753324 L 94.96582968346775,19.35084851225838 L 95.15786946006119,18.678732296917588 L 94.24376000836492,17.361898035509512 L 94.14389938022941,16.435851060552523 L 94.30521277431399,15.677842776291072 L 94.78147147875279,15.228517163777724 L 95.45745153166354,15.177724298788235 L 96.10270529612899,15.720822092844173 L 96.34851617272943,16.14280437747948 z" /></g></g></g></svg>