<svg xmlns="http://www.w3.org/2000/svg" xmlns:xlink="http://www.w3.org/1999/xlink" width="499.9936909545213" height="210.18181964510586" viewBox="0.0063090454787015915 0.0 499.9936909545213 210.18181964510586" preserveAspectRatio="xMinYMin meet"><g transform="matrix(1,0,0,-1,0,210.18181964510586)"><g><g><path fill-rule="evenodd" fill="#D2EBD9" stroke="#A6A6A6" stroke-width="0.25" opacity="1" d="M 45.43146006856114,166.41506829531863 L 45.08235937356949,166.3672115969821 L 46.031871208921075,166.74638585391222 L 47.01292828563601,166.853144480614 L 46.78895705938339,166.92256407282548 L 46.916189540177584,167.0030278993072 L 47.15593338571489,166.8431522778119 L 47.042370514944196,166.6149102022173 L 45.9530080948025,166.66013776010368 L 45.43146006856114,166.41506829531863 z" /><path fill-rule="evenodd" fill="#D2EBD9" stroke="#A6A6A6" stroke-width="0.25" opacity="1" d="M 499.65405382122844,0.9912298882845789 L 500.0,0.08475830283714458 L 499.74238051008433,0.0 L 499.50158514548093,0.5289032000000589 L 499.65405382122844,0.9912298882845789 z" /><path fill-rule="evenodd" fill="#D2EBD9" stroke="#A6A6A6" stroke-width="0.25" opacity="1" d="M 446.7868540454656,76.39512224670034 L 447.04131900705397,76.49021394527517 L 447.2973612388596,76.2873502165894 L 446.6948470752686,76.15421792457346 L 446.34574637934566,76.49444020428928 L 446.7868540454656,76.39512224670034 z" /><path fill-rule="evenodd" fill="#D2EBD9" stroke="#A6A6A6" stroke-width="0.25" opacity="1" d="M 458.25565316714346,96.75064777239459 L 459.1783515494317,96.94566125544952 L 458.94228797312826,96.43756449240027 L 459.0095844883472,96.13185121619608 L 458.2672197530046,96.57460547663504 L 458.25565316714346,96.75064777239459 z" /><path fill-rule="evenodd" fill="#D2EBD9" stroke="#A6A6A6" stroke-width="0.25" opacity="1" d="M 242.91414961777627,112.46355218690587 L 242.46305262390524,112.60567883425392 L 243.0923802414909,112.43512669054326 L 243.48985031619668,112.08980528911343 L 243.57134219352156,112.17192512674956 L 243.05768047180027,112.98151839675847 L 242.43886794801801,113.24365309096174 L 242.3442322127521,113.06994988775114 L 242.27062663901597,113.2562859809841 L 242.4325588895008,113.42261797806714 L 243.27534265164286,112.92782760958653 L 243.53664242383093,112.54040602076566 L 243.60341318696737,112.16666104854085 L 243.5871148146689,112.00136802223278 L 242.91414961777627,112.46355218690587 z" /><path fill-rule="evenodd" fill="#D2EBD9" stroke="#A6A6A6" stroke-width="0.25" opacity="1" d="M 93.85761527437717,115.37425494362833 L 94.20671598333865,115.29320465610363 L 94.69461574405432,114.78057847626042 L 94.562125723809,114.66794589499477 L 94.38967839349061,114.75320988922613 L 93.67885889858007,115.37425494362833 L 93.85761527437717,115.37425494362833 z" /><path fill-rule="evenodd" fill="#D2EBD9" stroke="#A6A6A6" stroke-width="0.25" opacity="1" d="M 83.46345745865256,116.69626567518571 L 83.40036697778851,116.80151680397103 L 83.35304910317063,116.9067672935198 L 83.61172009911388,116.63942977820989 L 83.46345745865256,116.69626567518571 z" /><path fill-rule="evenodd" fill="#D2EBD9" stroke="#A6A6A6" stroke-width="0.25" opacity="1" d="M 78.42147599626333,124.86513167410158 L 78.53083284571767,124.59474781650351 L 78.35417948011309,124.24124493112322 L 78.35417948011309,124.90931861358695 L 77.91464908514172,125.57526851800503 L 78.42147599626333,124.86513167410158 z" /><path fill-rule="evenodd" fill="#D2EBD9" stroke="#A6A6A6" stroke-width="0.25" opacity="1" d="M 71.5383038027212,130.52567268093117 L 71.66553629655391,129.74099050782388 L 71.56143698748201,129.29289154772414 L 71.27332376223058,129.02465983462753 L 70.94104719161987,129.0656836766866 L 70.88847179152071,129.35600450710626 L 71.04830101784319,129.70312327210559 L 71.36165043804795,129.9071850302862 L 71.01885878760368,129.4485699397046 L 71.14083374105394,129.16982084221672 L 71.5319947572425,129.6147661698633 L 71.44787410274148,130.31320051773218 L 71.27332376223058,130.52567268093117 L 71.5383038027212,130.52567268093117 z" /><path fill-rule="evenodd" fill="#D2EBD9" stroke="#A6A6A6" stroke-width="0.25" opacity="1" d="M 88.9891326604411,131.86463359417394 L 89.44759020581841,131.33347383863293 L 89.69574612099677,130.52567268093117 L 88.81247929576784,132.03397176548606 L 88.9891326604411,131.86463359417394 z" /><path fill-rule="evenodd" fill="#D2EBD9" stroke="#A6A6A6" stroke-width="0.25" opacity="1" d="M 83.819918718189,131.84464952728013 L 84.00288112834096,131.47441612021066 L 83.9366361182183,131.15151009208057 L 83.4876421475783,131.4155149423168 L 83.9366361182183,131.3271629784722 L 83.78206441923976,131.73526283161482 L 83.1301293829456,132.4609944948461 L 82.96504260413349,132.48308173421538 L 83.04600872844458,132.30638346844353 L 82.8861795021221,132.3768525342457 L 82.95242451224476,132.48308173421538 L 83.15746858902276,132.54303270485252 L 83.40667602326721,132.48308173421538 L 83.819918718189,131.84464952728013 z" /><path fill-rule="evenodd" fill="#D2EBD9" stroke="#A6A6A6" stroke-width="0.25" opacity="1" d="M 67.7444624947384,133.54220007226104 L 67.92111585941166,132.74707559496164 L 67.62459056545049,132.8364754388458 L 67.50682165939361,133.76096130546648 L 67.11776364129037,134.42354731151136 L 67.4710703715682,134.24685887922533 L 67.7444624947384,133.54220007226104 z" /><path fill-rule="evenodd" fill="#D2EBD9" stroke="#A6A6A6" stroke-width="0.25" opacity="1" d="M 64.01581467874348,139.917349863681 L 64.29761885851622,138.8888868825743 L 64.28394924849272,138.6827713396051 L 64.10414135456085,138.49768730584765 L 63.96113625355065,138.7248357963399 L 64.10414135456085,138.7626937891473 L 64.10414135456085,138.58602295361925 L 64.28920678887516,138.81632588221692 L 64.01581467874348,139.51984797912883 L 63.8391613131389,140.7112942711101 L 64.01581467874348,140.439987245074 L 64.01581467874348,139.917349863681 z" /><path fill-rule="evenodd" fill="#D2EBD9" stroke="#A6A6A6" stroke-width="0.25" opacity="1" d="M 63.5268633980304,140.97629073570715 L 63.84862488787621,140.75440884148702 L 63.50688474345952,140.80593597964616 L 62.77924112230539,141.4253101805807 L 63.5268633980304,140.97629073570715 z" /><path fill-rule="evenodd" fill="#D2EBD9" stroke="#A6A6A6" stroke-width="0.25" opacity="1" d="M 52.95605221763253,150.8091069518705 L 52.81725313793868,150.93423678574618 L 53.18528098333627,151.60825646010926 L 52.76993527729064,151.87639275821857 L 53.060151513665915,151.91740186914103 L 53.216826223768294,151.56829892197857 L 52.95605221763253,150.8091069518705 z" /><path fill-rule="evenodd" fill="#D2EBD9" stroke="#A6A6A6" stroke-width="0.25" opacity="1" d="M 55.6910248529166,154.88323287753155 L 56.78879932966083,154.2475787838339 L 56.84558076504618,153.9931079375092 L 55.68787032458931,154.72392465220764 L 55.337718123570085,154.69868772861082 L 55.60269816406071,154.97156231629197 L 55.6910248529166,154.88323287753155 z" /><path fill-rule="evenodd" fill="#D2EBD9" stroke="#A6A6A6" stroke-width="0.25" opacity="1" d="M 44.77111296355724,159.8408869858249 L 44.81107027363032,159.8619193697814 L 44.80791574437171,159.75149943766883 L 44.722743584774435,159.82721593574388 L 44.77111296355724,159.8408869858249 z" /><path fill-rule="evenodd" fill="#D2EBD9" stroke="#A6A6A6" stroke-width="0.25" opacity="1" d="M 44.650189529173076,159.89241634460632 L 44.71012549381703,159.82563851156738 L 44.541884197853506,159.935532782285 L 44.623901828192174,159.935532782285 L 44.650189529173076,159.89241634460632 z" /><path fill-rule="evenodd" fill="#D2EBD9" stroke="#A6A6A6" stroke-width="0.25" opacity="1" d="M 45.918308325111866,161.56662468094146 L 45.96142016444355,161.29950447985902 L 45.72798536345363,160.898827122699 L 44.82053384836763,159.86770327563863 L 45.53976539988071,160.73477126687067 L 45.86468141898513,161.52403257618425 L 45.26742479484528,161.98203141154954 L 45.06343222409487,162.0540707046166 L 44.98456910904497,161.87739060336025 L 44.80791574437171,162.31856640125625 L 45.918308325111866,161.56662468094146 z" /><path fill-rule="evenodd" fill="#D2EBD9" stroke="#A6A6A6" stroke-width="0.25" opacity="1" d="M 44.71958906855434,168.87269013217883 L 44.541884197853506,168.9605225577834 L 44.27795564942062,170.11551921337377 L 44.457763543352485,170.0282089742832 L 44.71958906855434,168.87269013217883 z" /><path fill-rule="evenodd" fill="#D2EBD9" stroke="#A6A6A6" stroke-width="0.25" opacity="1" d="M 45.404120850376785,172.0522008931148 L 45.432511574588716,171.6024690553313 L 45.31579417362809,171.2653071443201 L 44.84892455954105,171.2106042394298 L 45.24429162312299,171.32737404218642 L 45.39570879377425,171.61772298044525 L 45.29055797867477,172.4824785910314 L 45.404120850376785,172.0522008931148 z" /><path fill-rule="evenodd" fill="#D2EBD9" stroke="#A6A6A6" stroke-width="0.25" opacity="1" d="M 44.68278627470136,173.40776037151227 L 45.240085588768125,172.62450351426378 L 44.142311098985374,173.93959092727164 L 44.09394173324108,174.1920965553145 L 44.68278627470136,173.40776037151227 z" /><path fill-rule="evenodd" fill="#D2EBD9" stroke="#A6A6A6" stroke-width="0.25" opacity="1" d="M 430.0973170734942,171.8807232012041 L 430.2471569851041,171.75132674275665 L 430.25504328869283,171.29371061426355 L 429.3812400382012,171.2269098967663 L 428.8586405068636,171.70398673717864 L 427.25982239842415,172.1137438105652 L 425.73934165295213,173.15526362502715 L 425.25144187826663,173.17157061875332 L 425.05586136318743,173.3856667856453 L 425.0937156621367,173.74284896301106 L 425.5421838667244,174.0153423108859 L 425.8302971050143,173.99798260146054 L 425.5185249429196,173.6702547799796 L 425.46489802375436,173.43932265986223 L 425.622624238953,173.20523671770934 L 426.09264838229865,173.19892431149492 L 426.2251384034753,172.995876491128 L 427.0279648564756,172.84595892525977 L 426.42492493987083,173.38934905058704 L 426.72933655045927,173.33516726043308 L 426.78506648074836,173.65447346767178 L 427.2419467549771,173.1031865113182 L 427.0558298146352,173.79597964824643 L 427.1383732110262,174.0153423108859 L 427.28926462866366,173.91749682760565 L 427.31502657663077,174.1920965553145 L 427.46486647520214,174.102141089621 L 427.62837599683553,173.66815059661167 L 427.93331334739923,173.9490598376142 L 427.9774766918272,174.25627553707454 L 427.2819040650502,174.53614017664222 L 426.39495695754886,175.16742722300114 L 426.2608896782622,174.9401617263793 L 426.11893608327955,174.96120472316397 L 425.9832915337756,175.25107417471008 L 426.1525843348354,175.37786043295637 L 427.0889523262158,175.19741382653592 L 427.57948086503893,174.80969559645746 L 428.55790917761624,174.5850642596488 L 428.16622239537537,174.03112388035515 L 428.0721124270931,173.13317028526217 L 428.3602256523445,172.81071528588654 L 430.0973170734942,171.8807232012041 z" /><path fill-rule="evenodd" fill="#D2EBD9" stroke="#A6A6A6" stroke-width="0.25" opacity="1" d="M 41.71122432127595,188.28001863573445 L 41.98461643233895,188.17524730379228 L 42.72908417880535,188.69805879041087 L 43.476706467568874,188.8102052177419 L 43.388379777781665,188.5453726426931 L 42.92676771711558,188.64014316216344 L 41.96884381212294,188.01466964645078 L 41.71122432127595,188.28001863573445 z" /><path fill-rule="evenodd" fill="#D2EBD9" stroke="#A6A6A6" stroke-width="0.25" opacity="1" d="M 44.44724846351892,189.70161754853325 L 44.541884197853506,189.52469941671006 L 43.476706467568874,189.16349871014245 L 44.21591667365283,189.51469518634258 L 44.44724846351892,189.70161754853325 z" /><path fill-rule="evenodd" fill="#D2EBD9" stroke="#A6A6A6" stroke-width="0.25" opacity="1" d="M 403.04674478340894,199.19039908488048 L 403.4931099899113,198.47744711569976 L 403.31961115356535,198.21029955736594 L 402.73444688133895,198.02272046927828 L 402.164003723301,198.21029955736594 L 402.06148167233914,198.4727047944907 L 402.9142547622323,198.2988211128977 L 403.0378069737926,198.36942810111213 L 403.0125707788393,198.71140411618399 L 402.38902645464987,199.14718856749823 L 402.164003723301,199.6330533294822 L 401.8359331879765,199.60933924955316 L 401.63509513344616,199.36851256969385 L 401.9794640420005,198.74143949401332 L 401.4253192571923,199.02493532502558 L 401.47316288296133,199.54979079513578 L 401.8543345723301,199.9476649776916 L 402.3006997788325,199.85017128061736 L 402.5898645091802,199.24572988413274 L 403.04674478340894,199.19039908488048 z" /><path fill-rule="evenodd" fill="#D2EBD9" stroke="#A6A6A6" stroke-width="0.25" opacity="1" d="M 235.87272545695305,90.8004034262849 L 236.1408600276336,90.61370751273353 L 236.497847026214,90.71180243196432 L 236.12245863024145,90.46498098759912 L 235.8159440085292,90.63902242988115 L 235.78439876809716,90.91642727080034 L 236.16083868220448,90.9670554100303 L 235.87272545695305,90.8004034262849 z" /><path fill-rule="evenodd" fill="#D2EBD9" stroke="#A6A6A6" stroke-width="0.25" opacity="1" d="M 206.36583018116653,88.43003600568045 L 206.4289206750691,88.32347639440559 L 206.17024968005717,88.49861330341082 L 206.23281440790743,88.49333814508282 L 206.36583018116653,88.43003600568045 z" /><path fill-rule="evenodd" fill="#D2EBD9" stroke="#A6A6A6" stroke-width="0.25" opacity="1" d="M 206.07035640534014,88.51338373299222 L 206.09138656500727,88.49861330341082 L 206.01094619277865,88.53870441153413 L 205.90947565995157,88.64209644385846 L 206.07035640534014,88.51338373299222 z" /><path fill-rule="evenodd" fill="#D2EBD9" stroke="#A6A6A6" stroke-width="0.25" opacity="1" d="M 206.43785849772394,88.40471502346918 L 206.26803993061185,88.59778572444338 L 205.88791974727064,88.8045672820881 L 206.13344688620418,88.74970732524525 L 206.4289206750691,88.4490266861394 L 206.43785849772394,88.40471502346918 z" /><path fill-rule="evenodd" fill="#D2EBD9" stroke="#A6A6A6" stroke-width="0.25" opacity="1" d="M 248.31311807967722,91.60621241404442 L 248.5065955836326,91.64207143592648 L 248.69954732153565,91.39316485368181 L 248.3173241149634,91.33199190231971 L 248.31311807967722,91.60621241404442 z" /><path fill-rule="evenodd" fill="#D2EBD9" stroke="#A6A6A6" stroke-width="0.25" opacity="1" d="M 250.46292644366622,108.60454404907068 L 250.5086670462042,108.74144382763188 L 250.56807725783437,108.86570551648038 L 250.47712180577219,108.42341298167594 L 250.46292644366622,108.60454404907068 z" /><path fill-rule="evenodd" fill="#D2EBD9" stroke="#A6A6A6" stroke-width="0.25" opacity="1" d="M 0.21661066263914108,137.78468686237466 L 0.0063090454787015915,137.96661862405017 L 0.29757679998874664,138.12962049560156 L 0.42901531513780355,137.89405631797854 L 0.21661066263914108,137.78468686237466 z" /><path fill-rule="evenodd" fill="#D2EBD9" stroke="#A6A6A6" stroke-width="0.25" opacity="1" d="M 48.68062017951161,175.37049522798043 L 48.375682815909386,175.49991266190773 L 48.40722805634141,175.0806241427781 L 48.268428990617394,174.89439327665605 L 48.291562161408365,175.49412568839034 L 48.52920300979167,175.69140985247213 L 49.050751036033034,174.63556665141368 L 48.870943141169846,174.43618809973123 L 48.264222955331206,174.60452871094458 L 48.31574685126543,174.84546848625178 L 48.34729210473597,174.6487183405552 L 48.91510648559779,174.5876945828786 L 48.68062017951161,175.37049522798043 z" /><path fill-rule="evenodd" fill="#D2EBD9" stroke="#A6A6A6" stroke-width="0.25" opacity="1" d="M 388.49965562298894,210.00140090251807 L 388.4192152507603,210.1042708013556 L 388.6184760471806,210.18181964510586 L 388.90658927243203,210.05468208965613 L 388.49965562298894,210.00140090251807 z" /></g></g></g></svg>