<svg xmlns="http://www.w3.org/2000/svg" xmlns:xlink="http://www.w3.org/1999/xlink" width="500.0" height="395.6902450309135" viewBox="0.0 0.0 500.0 395.6902450309135" preserveAspectRatio="xMinYMin meet"><g transform="matrix(1,0,0,-1,0,395.6902450309135)"><g><g><path fill-rule="evenodd" fill="#D2EBD9" stroke="#A6A6A6" stroke-width="0.25" opacity="1" d="M 218.69008593074977,28.10982580226846 L 221.84426976926625,26.717179187573493 L 242.00630830973387,13.296155157266185 L 246.36650398373604,6.584980020998046 L 245.06772227026522,3.482494415016845 L 239.285051709041,2.6593703150283545 L 230.31727363727987,2.6593703150283545 L 204.52718175947666,7.914587339619175 L 177.90215831808746,8.642698508454487 L 171.74840748496354,10.827000360703096 L 170.07854549773037,13.739330428652465 L 170.44962577149272,20.45003407681361 L 169.3673078659922,24.121741535607725 L 166.05850680358708,27.2552496525459 L 162.59508927725255,28.74284067749977 L 159.8738326765597,30.83176224771887 L 158.76059109903872,35.9905823902227 L 158.32766386121511,50.009865939384326 L 160.55414663627744,55.7689259306062 L 166.76974443532526,53.55394132900983 L 172.1813347246498,50.64274579891935 L 188.13779443316162,47.6048884189222 L 195.31201696582139,45.38972718408331 L 215.1029748544097,32.1610537765082 L 218.69008593074977,28.10982580226846 z" /><path fill-rule="evenodd" fill="#D2EBD9" stroke="#A6A6A6" stroke-width="0.25" opacity="1" d="M 500.0,57.35102893412113 L 499.7835365701467,9.940622918540612 L 497.6807473450899,2.912639769492671 L 493.32055167108774,0.0 L 489.9808276947588,1.3930120151489973 L 486.08448293060064,4.685510222334415 L 482.93029871210456,8.674355312949046 L 481.63151737861335,12.061585439834744 L 480.8893564529717,16.904811448650435 L 478.81749051995575,19.658700567670166 L 450.80091548524797,39.02878415817395 L 447.67765494063497,44.06060746475123 L 445.35840190574527,50.009865939384326 L 439.60665463656187,52.88943632040173 L 424.57789598964155,56.02206414192915 L 400.95243992470205,68.17195913312025 L 397.7673327922821,70.7346444716677 L 382.5221103373915,79.84589846478775 L 377.3888304438442,85.4451243141666 L 383.5116579849273,85.63492316380143 L 388.5830912925303,84.36959039676003 L 398.3548764940351,80.13061223574914 L 404.97247823886573,78.42231783107854 L 417.24905699305236,76.61908815195784 L 421.7329458389431,74.81582656409591 L 423.74296518601477,76.42927234084345 L 427.54653969220817,78.42231783107854 L 429.49471207521856,80.13061223574914 L 440.90543635189533,77.75797374127433 L 450.98645562306046,87.02677139407024 L 456.76912618242204,101.48190695955418 L 455.43942117504776,114.60681645176373 L 459.15022580325603,115.71366058965214 L 464.37627557478845,118.78113874373958 L 468.45816085487604,119.91956146247685 L 470.3444862719625,120.74174760351889 L 471.98342534713447,121.97501483629458 L 473.807904176414,122.92367232963443 L 476.43639089912176,122.82880685245618 L 478.6319500040263,121.2160828532651 L 481.63151737861335,115.8085325518623 L 482.93029871210456,114.60681645176373 L 498.97952868044376,62.79327657492831 L 500.0,57.35102893412113 z" /><path fill-rule="evenodd" fill="#D2EBD9" stroke="#A6A6A6" stroke-width="0.25" opacity="1" d="M 96.26445651054382,217.08261529146694 L 97.22308124415576,213.19654706702568 L 99.60418086498976,208.80480255465955 L 108.51011197082698,196.924063796876 L 108.32457183487713,193.66926733916625 L 104.02622312493622,186.748541274108 L 102.78928799554706,182.8297555623576 L 102.35636075772345,180.0169892469421 L 101.36681311018765,177.83625320484862 L 98.58370954543352,175.84510724269785 L 94.96567517518997,174.6756867626682 L 89.80147198960185,173.9171366270166 L 85.28665947169065,174.42283719521947 L 83.27664050273597,177.33056902326643 L 80.83369391784072,182.19767979625612 L 59.55841417983174,201.97986031044275 L 53.930360462516546,204.31808429281227 L 37.633743392303586,205.26599820540287 L 33.644628370180726,206.27709726896137 L 29.284433076158166,208.67841866286471 L 21.955594079568982,214.55510750692338 L 18.863256825134158,218.5043123899959 L 17.811862213537097,221.9478990409989 L 17.317088009789586,225.3281927453354 L 15.58537943661213,229.11904835654423 L 5.906364111229777,238.59559739544056 L 1.7317085731774569,244.81807376956567 L 0.0,254.32481321692467 L 1.0513946134597063,258.1146401152946 L 3.525264112278819,262.82015541987494 L 11.750881258398294,274.81986503954977 L 11.843651516363025,278.9562966248486 L 10.761333230882883,283.1241436530836 L 10.390252957120538,287.67070189048536 L 15.647226022556424,356.2248380596284 L 14.843218510970473,360.76834048703313 L 12.77135257795453,364.93305253749713 L 16.48215720616281,371.6530497444328 L 20.100191574543715,381.18022940820083 L 24.05838330462575,388.59319316246547 L 28.54227215051651,388.7509103654884 L 44.6842723749578,394.23932913853787 L 54.14682427048683,395.6902450309135 L 61.104582615196705,392.8514789354522 L 65.65031842701137,386.8582890483085 L 69.02096607536077,380.6124072757084 L 70.75267464667559,373.5459327567369 L 62.279670778661966,301.1513846528251 L 65.6812417190522,285.4290199643001 L 82.56540287099779,261.1464051809162 L 88.68823041208088,245.26026645698585 L 88.87377054803073,241.2804667991586 L 88.28622684627771,233.0677128538955 L 88.68823041208088,229.11904835654423 L 90.4199393633753,226.275919201551 L 92.9247325360775,223.8118127102498 L 95.24398519098759,221.0001340410672 L 96.26445651054382,217.08261529146694 z" /></g></g></g></svg>