<svg xmlns="http://www.w3.org/2000/svg" xmlns:xlink="http://www.w3.org/1999/xlink" width="491.10593539848924" height="500.0" viewBox="0.0 0.0 491.10593539848924 500.0" preserveAspectRatio="xMinYMin meet"><g transform="matrix(1,0,0,-1,0,500.0)"><g><g><path fill-rule="evenodd" fill="#D2EBD9" stroke="#A6A6A6" stroke-width="0.25" opacity="1" d="M 396.52028764784336,162.31443249736913 L 428.00775695592165,161.66938258940354 L 455.36673216708004,152.44532292871736 L 476.37891910225153,131.9341179432813 L 488.5795424040407,97.30052250227891 L 490.36650248989463,82.98391547589563 L 491.10593539848924,46.228249329607934 L 488.5795424040407,32.42993818921968 L 480.815508980304,13.21654292801395 L 474.7151973284781,6.511491308687255 L 447.23298380337656,0.0 L 376.92534586042166,5.737840155838057 L 355.42020415887237,63.63825608161278 L 367.12787420861423,130.38616139860824 L 396.52028764784336,162.31443249736913 z" /><path fill-rule="evenodd" fill="#D2EBD9" stroke="#A6A6A6" stroke-width="0.25" opacity="1" d="M 318.9415710475296,261.6690806092229 L 339.5840415265411,249.92541033914313 L 357.7617381680757,223.98776535922661 L 357.88497799634933,197.72985476860777 L 324.1175923217088,184.89207626250573 L 304.89236698672175,198.05241842381656 L 288.62486723065376,257.7974892605562 L 258.6162622254342,276.5106574392412 L 238.83646145276725,298.96804146049544 L 224.91049722023308,304.001829888206 L 177.21714731305838,301.29131812928244 L 157.6838246807456,304.001829888206 L 109.55914067663252,323.6215275574941 L 44.61238299123943,364.02677213633433 L 0.0,415.0254182072822 L 12.015765834599733,466.48501741187647 L 17.931220015510917,471.9091454546433 L 21.998094955459237,474.8149703242816 L 26.496303990483284,476.5584792147856 L 33.64414433389902,478.30199699592777 L 52.12993978895247,486.2448278872762 L 58.66158705018461,490.8943914223928 L 62.851700304076076,500.0 L 213.69578193873167,409.0858763360884 L 250.7906081303954,368.93258276046254 L 277.0404370073229,303.8727576311212 L 294.1089873164892,274.187577880919 L 318.9415710475296,261.6690806092229 z" /></g></g></g></svg>