<svg xmlns="http://www.w3.org/2000/svg" xmlns:xlink="http://www.w3.org/1999/xlink" width="463.0944110713899" height="500.0" viewBox="0.024709385354071856 0.0 463.0944110713899 500.0" preserveAspectRatio="xMinYMin meet"><g transform="matrix(1,0,0,-1,0,500.0)"><g><g><path fill-rule="evenodd" fill="#D2EBD9" stroke="#A6A6A6" stroke-width="0.25" opacity="1" d="M 296.4583443040028,86.10947865433991 L 292.42251476831734,84.00904280692339 L 290.475070215296,82.46357838436961 L 290.0250924904831,81.2840795442462 L 290.1800029082224,79.69209259003401 L 290.7848909799941,76.57056098803878 L 290.475070215296,73.33507102355361 L 289.5456080632284,70.52269100863487 L 288.16616818634793,67.99398932792246 L 286.51379108289257,65.6262729158625 L 282.7147989911027,61.63650264777243 L 278.1560084093362,58.68337035086006 L 273.25789043167606,56.93468623049557 L 268.3966559213586,56.54928598925471 L 260.9093219237402,56.98638800345361 L 256.19193268427625,55.99237537011504 L 255.21083375019953,56.24380167759955 L 254.33300838060677,57.13209507986903 L 253.42198799783364,58.45300634019077 L 252.83554155239835,58.85262249130756 L 239.0669614612125,57.64444563165307 L 234.87331680906937,56.37069343961775 L 232.72301343781874,56.173307369463146 L 225.95490615209565,58.22970209084451 L 217.15452251862735,57.45877271797508 L 214.88250388531014,57.700853704474866 L 210.2794532859698,57.20259972382337 L 205.49567387718707,55.259298789314926 L 200.94794837152585,52.40530519653112 L 197.03461763914675,49.17461640853435 L 195.7363213179633,47.51762297749519 L 193.31676910305396,41.51977385673672 L 192.1401880439371,40.157703490927815 L 189.3886849838309,38.02021625172347 L 188.14202551636845,36.750237848609686 L 182.04519632877782,27.415628016926348 L 179.2051731622778,25.14658711757511 L 177.3646905561909,24.444978740997612 L 176.04426415497437,24.299988836050034 L 175.1848805542104,23.670956584624946 L 174.8086696206592,21.51539387460798 L 175.30418409686536,13.739583601243794 L 174.4700677394867,12.538806798867881 L 174.17383868154138,11.160369749180973 L 173.49425446102396,11.046431717462838 L 170.00920703914016,8.91504604741931 L 168.78944042371586,9.197966682724655 L 158.8280132296495,15.598116852343082 L 158.24717198079452,16.124077193439007 L 156.52207349799573,19.104076946154237 L 156.05159208737314,19.519911328330636 L 154.69242357462645,19.324870696291327 L 153.21708682691678,18.85017317533493 L 147.61777736153454,15.859252771362662 L 146.18890786496922,15.333313329145312 L 144.57416922040284,15.142072952352464 L 141.93715004622936,15.222981662489474 L 140.40372918033972,14.888320120982826 L 138.9574344912544,13.906497899442911 L 138.20814928645268,12.946878848597407 L 139.0619859318249,9.319222106598318 L 139.46857475629076,8.360262527130544 L 139.39306544605643,7.129615793935955 L 138.9574344912544,5.219807144254446 L 135.54208798194304,5.891850681975484 L 134.58369996771216,9.547041145153344 L 133.86926521966234,11.259607720188797 L 132.8121341620572,11.160369749180973 L 132.14997520577163,11.42868320737034 L 131.84793775063008,13.457923112437129 L 131.64464333839715,17.606552434153855 L 129.5303812236525,16.076260844245553 L 128.57780160708353,16.135111742652953 L 128.18863797513768,17.94502970762551 L 127.71815656451508,18.96056492626667 L 126.66102550690994,20.119788948446512 L 125.51095987576991,21.050994382239878 L 124.77329146582633,21.36756030190736 L 123.67550155473873,20.439991147257388 L 124.13436609925702,19.302791045978665 L 125.70263742143288,17.94502970762551 L 126.67845069942996,13.28879618179053 L 126.08599265571684,13.877082221210003 L 124.51772133354098,14.869932565838099 L 123.80328658549115,15.142072952352464 L 122.07237970503047,15.281825026497245 L 121.35794502822682,15.815116421319544 L 120.20787932537496,17.084153775125742 L 116.63570572668687,22.663428966887295 L 116.3220514766872,23.55448506306857 L 115.88642052188516,24.206283470615745 L 114.19617256708443,24.570876623503864 L 113.7605416122824,24.931806624867022 L 113.51658827532083,26.618861855007708 L 113.67341543594375,28.317400167696178 L 113.34233592171222,28.674848549067974 L 111.518494467251,28.96229521650821 L 110.2754941903986,29.776795025914907 L 109.57848470611498,30.020058695226908 L 106.6220028125681,30.163809584453702 L 105.34996047709137,30.42920398339629 L 102.4922216264531,31.789517073892057 L 100.69742223108187,32.20983276236802 L 98.89681436680257,32.23564242105931 L 97.61315523600206,31.594116171821952 L 97.56087951548398,30.13432195317 L 98.86777230771258,28.615886635147035 L 100.64514651102945,27.414652173407376 L 102.0217402158305,26.92832449544221 L 104.49612390296534,27.28938251454383 L 105.20475018257275,26.792011751793325 L 104.70522671286017,25.020200591534376 L 106.18056346056983,25.53217240329832 L 106.88338134251535,25.462188323028386 L 107.63266654731706,25.020200591534376 L 106.79044676851481,23.863805199041963 L 106.1689466657117,22.54929396789521 L 107.50488151656464,22.552975789643824 L 108.05087223788723,22.751792792230844 L 108.6026714281179,23.223086561076343 L 109.0905781025067,22.54929396789521 L 107.34805435594171,21.01418537274003 L 106.36062428308651,20.491519335657358 L 105.18732499005273,20.138190910220146 L 104.03725928720087,20.18971685320139 L 101.30149707011878,22.54929396789521 L 101.07496899645776,20.462074568495154 L 101.74293642211705,18.33503577578813 L 102.05659067211673,16.322702325880527 L 100.76131474645808,14.57941662427038 L 101.81263740593567,13.51675090007484 L 102.26569355325773,13.28879618179053 L 101.98108136188239,12.439549797214568 L 101.51059995079413,12.090323991142213 L 100.08173052594066,12.053564447909594 L 99.77388460189104,11.79625331889838 L 100.32568379165605,10.208495463244617 L 100.56963712908328,8.889326649717987 L 100.55221186531708,8.095746140927076 L 100.08173052594066,7.739400424994528 L 99.31502005737275,7.7761362148448825 L 97.97327680885792,8.294132448732853 L 97.34596823714674,8.91504604741931 L 97.64219729462638,9.12080533709377 L 97.88615063205361,9.59113603644073 L 97.01488879462704,10.061499970033765 L 96.23075306182727,10.12029772438109 L 95.66152867954224,9.66462828963995 L 95.446617401205,8.635811452753842 L 94.96451919525862,8.558656604029238 L 94.04098163731396,8.746034225448966 L 93.4427151242271,9.436805146746337 L 93.94804706331342,10.87736591603607 L 92.22875697771087,9.311873251572251 L 91.3342614788562,7.078190669417381 L 90.16677058348432,5.014168084599078 L 87.60526071954519,3.986067235469818 L 85.1018349728547,3.9199805315583944 L 83.78913378342986,3.6776679065078497 L 83.21990940067917,3.115976983681321 L 82.8888298869133,1.6183651387691498 L 82.09888582816347,0.40363724529743195 L 81.09403041983023,0.0 L 80.20534338988364,0.9614305542781949 L 81.17534819897264,5.6274320324882865 L 82.25571291754022,7.695317761972547 L 84.15506375394762,7.122269258834422 L 88.04670007154346,8.91504604741931 L 86.94310169154778,9.561739470809698 L 84.49195166537538,9.098759363405406 L 83.21990940067917,9.59113603644073 L 84.12021329719573,10.87736591603607 L 85.62459210399538,12.07562018558383 L 87.33226532302797,12.946878848597407 L 88.82502733496949,13.28879618179053 L 92.3449252131395,12.417492946609855 L 93.7040937258862,12.83658657502383 L 93.94804706331342,15.142072952352464 L 92.75151410885155,14.634576858021319 L 91.7873176257126,14.811092836782336 L 91.02641562605277,15.480425057932734 L 90.48623323114589,16.4330521998927 L 92.59468694822863,18.794977941550314 L 92.69923838879913,19.748079226352274 L 90.7766538914293,20.138190910220146 L 89.40006011491641,20.638745033182204 L 88.77275161445141,21.588429138064384 L 88.09897579159588,22.111181328073144 L 86.58298011869192,21.36756030190736 L 87.1173541159369,20.138190910220146 L 85.28770419256762,20.141871307976544 L 84.45129281142727,19.96521402988583 L 83.66715715033934,19.519911328330636 L 85.04375085514039,18.96056492626667 L 86.83855032222345,17.95974655635655 L 88.14544304320589,16.650078958831728 L 88.04670007154346,15.142072952352464 L 86.71657361788675,16.289597710594535 L 84.81722278194502,17.143013485707343 L 82.83074576919898,17.474109443835914 L 81.22762391949072,17.047366686165333 L 82.011759580113,15.8408626280725 L 83.21990940067917,15.142072952352464 L 80.98367065330967,13.266736522316933 L 79.60707687679678,12.399112203158438 L 78.30018408503383,12.053564447909594 L 78.28275889251381,12.627036423422396 L 78.091081275139,13.05349636822939 L 77.77742702513933,13.28879618179053 L 73.38626723783091,13.28879618179053 L 74.25752907525748,14.6456090323627 L 77.3417960703373,16.635365093126893 L 78.30018408503383,18.283524272963405 L 77.74838489480317,19.83272421453148 L 74.64088430954143,21.588429138064384 L 74.84998719068244,23.223086561076343 L 73.42692609131336,22.943251923657954 L 72.60213157674298,21.64364753756672 L 71.96320621017367,19.968894332647324 L 71.17326215142384,18.563163169659674 L 70.07547216909006,17.713244516402483 L 68.89636447886005,17.337990234605968 L 67.58366328896955,17.334311385639012 L 63.45388210285455,18.011255555786192 L 62.66974644176662,18.283524272963405 L 60.7239282829687,19.917370188981295 L 59.96883468097076,20.138190910220146 L 58.38894649222493,20.27436736598611 L 57.233072463423014,20.80805864650756 L 56.76259105280042,21.934471773914993 L 57.25630605360493,23.841710394248366 L 55.50797398062423,22.748110949993134 L 54.828389688860625,22.54929396789521 L 55.124618746340275,24.095804672688246 L 55.73450205428526,25.057031773030758 L 56.68127327365801,25.554272734560072 L 58.017208124510944,25.697927043773234 L 58.90589522616938,26.022081591188908 L 60.718119885306805,27.377807927317917 L 61.69393316376954,27.54729318805039 L 62.68717163428664,27.127272450365126 L 64.56909727770835,25.94104142766446 L 65.84113954240456,25.697927043773234 L 66.99120524525642,25.764230092987418 L 67.98444371577352,26.03681622352451 L 68.80923830205575,26.59307392220944 L 69.48882252257317,27.54729318805039 L 68.9602569937706,28.225277374498546 L 68.17612133268267,27.620983764529228 L 67.37456040782854,27.503079252317548 L 66.59042474674061,27.819952366873622 L 64.52262995531783,29.53354026656598 L 64.12184952851385,30.70198157429695 L 63.90693824971095,32.45318550430238 L 64.58652247022837,33.116920394822955 L 67.53719596611336,33.172234669327736 L 70.68535547656938,33.79178556613624 L 71.51015006285161,33.45987611543387 L 71.96320621017367,31.837446432560682 L 72.36398663697764,31.258630043826997 L 73.8741739122197,31.13697436079383 L 74.36208051582798,34.20485169813037 L 75.82580046867952,34.972042731009424 L 75.19849189696833,36.38124962430447 L 74.01357580907643,36.91254673525691 L 71.17326215142384,36.88302918802947 L 69.88379455171525,37.08965523354709 L 67.41521933302283,37.97526870947331 L 66.32904621725902,38.181928895413876 L 65.17898058565333,37.93836578913033 L 61.69393316376954,36.211538756266236 L 58.24373619817197,35.569627886638045 L 57.25630605360493,34.972042731009424 L 51.85448260279372,38.181928895413876 L 49.502075548283756,40.63281943835318 L 48.10224818205461,41.253068077377975 L 47.474939682055265,39.647186764515936 L 46.690804020967335,39.023397576995194 L 44.878579361364245,38.562052845954895 L 41.573592690285295,38.181928895413876 L 33.24432933377102,39.77638114988804 L 32.5415114518255,40.71403922792524 L 32.99456759914756,41.75521661527455 L 34.71966608194634,42.460504258051515 L 38.10016206325963,42.73008433356881 L 39.52903155982494,43.468715951777995 L 40.10987273743376,45.27501767966896 L 40.591971014626324,45.51515628769994 L 43.571686569135636,46.18020096793771 L 45.26193452440202,49.12937130313367 L 46.01121972920373,49.90568747743964 L 47.66661729896441,50.24211942590773 L 48.816682930570096,49.41031329892576 L 50.646332782227546,46.49057804699987 L 51.36657592840493,46.81575056910515 L 55.792586171999574,49.90568747743964 L 53.980361512396485,50.66730523761362 L 50.22812709165737,50.09793219529092 L 48.19518275652081,51.506665400229394 L 47.178710624109954,52.69378399755806 L 46.98703300720081,54.920669281855226 L 47.70727615291253,60.657804784365 L 48.00350521039218,61.576209768652916 L 51.1516647208482,66.47406274266541 L 51.65699658822268,67.52301777899265 L 52.52825842611492,70.24811686296016 L 53.36466980725527,71.19382333010435 L 53.90485213091597,71.42007127217948 L 54.30563262896612,71.3088008146733 L 54.49731024634093,70.67088646627963 L 54.340483085252345,69.32479356136173 L 55.23497858457267,70.32599341217428 L 56.43731993623078,72.35481754690409 L 57.45960053708404,74.57351761404425 L 57.790680050849915,76.11740310117602 L 57.34343230165541,77.03796911425889 L 56.06558156805113,78.03291944321245 L 55.792586171999574,78.94632744789124 L 56.08300676057115,80.79581113345921 L 55.98426378890872,81.51643385365605 L 54.92566493013874,82.43994863517582 L 55.145700060296804,83.15076156333089 L 56.130573810543865,83.20372035820037 L 57.55366224562749,82.38206914346665 L 58.3755000308156,82.92736936360598 L 58.97679507546127,83.08955902606249 L 59.35802158713341,82.21403748448938 L 60.44824230950326,81.0075699891895 L 61.98301192559302,82.42454786784947 L 63.62639272212982,83.29520311951637 L 65.4278115350753,82.0860755816102 L 65.89341526245698,83.08796319272369 L 65.85856480617076,84.80109921377152 L 66.08509287983179,86.14665233623236 L 65.28934042342007,86.92363068647683 L 64.74334963131696,88.01304254122078 L 64.60975613165647,89.11379291024059 L 65.09766280651093,89.94691628031433 L 66.10950385127217,89.58174645807594 L 67.46847751364112,86.78479363117367 L 69.11170214414597,87.05236879736185 L 69.38818579073995,87.7629633564502 L 69.00998566951603,89.0784713132307 L 69.1241069054231,90.28288582339883 L 69.78030836489052,90.00649974681437 L 70.10540540050715,89.12896683439612 L 70.81487281993032,88.68795255851 L 73.11654454283416,89.17088059708476 L 74.82094734441489,90.25875569041818 L 75.36922488128766,90.31099860090762 L 76.13202977692708,89.64986558165401 L 77.77742702513933,89.07660238165408 L 78.51174372248352,89.82712152786553 L 79.11607507849112,90.15325651317835 L 79.88788827229291,91.08236662950367 L 80.98783509852365,91.84414845053107 L 82.6360072880052,92.54658248182386 L 85.32255464885384,92.37250400520861 L 87.83178879274055,91.76602277066559 L 88.48233095463365,93.3921144688502 L 89.31293393811211,93.68984092120081 L 92.48432710999623,91.76602277066559 L 92.82121502188966,90.8954669451341 L 93.02450943365693,89.17329823225737 L 93.46014038845897,88.69727107416838 L 94.31397703336552,88.83115015365183 L 94.88900981331244,90.67226619552821 L 95.20266413502395,91.14099660050124 L 95.9170988118276,90.89174687955528 L 96.61410829611123,90.29284231737256 L 98.11267870571464,87.71557423751801 L 99.85520238103345,86.7265891386196 L 101.82425420125946,86.29906663205475 L 103.24150683125481,86.7191537450999 L 102.5793478032574,87.40324700530618 L 101.74293642211705,88.81999348197132 L 101.30149707011878,89.26627636980265 L 100.53478667279705,89.50058699026704 L 99.08849198371172,89.57497307658195 L 98.32758998405188,89.94691628031433 L 95.09811269445345,94.04340873472393 L 93.94804706331342,94.94044019840658 L 93.030317902565,95.1116718314588 L 91.3342614788562,95.1191167673096 L 90.48623323114589,95.5621068784967 L 88.19771876325831,99.57271938119084 L 88.24999448331073,100.09424270689487 L 87.60526071954519,99.94150650687516 L 87.13477930845693,98.79796165041625 L 86.59459698479623,98.14246924594045 L 85.61878370679915,98.06426149047911 L 86.82693345565349,97.06253995373845 L 87.27998960297555,96.3886055490002 L 86.21932247467339,95.70266754552722 L 84.07316898927093,94.62170476093888 L 82.9229362718761,94.90455242339522 L 82.2034371974878,96.18755567539483 L 81.71553059387952,96.18755567539483 L 81.29732490330935,94.97021930292249 L 80.63516587531194,94.62404583301395 L 78.7416234370321,94.94044019840658 L 78.16078218771145,96.1912787547335 L 77.77742702513933,96.18755567539483 L 77.4114969833754,95.62911640387028 L 77.5567073491402,95.0483900392428 L 78.30018408503383,94.2630025614053 L 78.30018408503383,93.68984092120081 L 77.25466989399865,93.31768497359008 L 76.11041266005486,93.32884931657463 L 75.02423954382539,93.74938787519932 L 74.11812717840075,94.60171265155077 L 73.67087942874059,95.6179480412975 L 73.91483276616782,96.3848823569715 L 75.33789379382506,98.06426149047911 L 74.36208051582798,98.74581784103066 L 74.69316003005952,99.60624463111162 L 74.32723005954176,100.67541770357639 L 73.49081867793575,101.5472772186622 L 72.36398663697764,101.81929145939648 L 72.7415334735997,99.60624463111162 L 71.74782671965659,96.65899912919849 L 69.71817157277837,96.55750069208443 L 68.90051514888182,97.71241889428347 L 68.57559404941276,98.8108943933621 L 67.48064609896392,99.36358279921114 L 66.66009946539998,100.07954163663089 L 66.08509287983179,102.50123991258442 L 66.82276128930971,105.58021144848317 L 67.13775415439159,110.56540637277067 L 68.63764861878008,114.90158094000071 L 69.85431147459894,116.7113986806944 L 70.630431718193,118.24833693914115 L 70.46925710979849,119.23938740231097 L 72.94773344043642,123.26526589691639 L 74.27768731210381,125.08031895942986 L 74.84998719068244,126.61651128623635 L 75.61955153942108,127.92701874673367 L 78.84617487713695,127.8285546367988 L 80.20534338988364,128.18772210460156 L 76.5665167523548,128.75001210533082 L 77.03339271759614,130.12716219667345 L 77.01364016905427,130.74807936977595 L 76.71703332988545,131.27864009235054 L 76.85793036455289,131.87599852401763 L 76.8016137466766,132.63781069871038 L 76.92939877742901,133.3042770884931 L 77.30694561405107,134.068176753819 L 76.8016137466766,134.5250618001446 L 77.46958110108972,135.37150768749416 L 78.21305790822953,135.73109342623502 L 79.99043211108074,135.7797889225185 L 80.80941822845489,136.04949331469834 L 80.5654649627395,136.70507175661623 L 79.99043211108074,137.52932175062597 L 79.76390403788537,138.2974674217403 L 80.81522662611678,140.1001573773101 L 82.34864749200642,140.83861820586026 L 84.05632078228518,140.7823873059824 L 85.61878370679915,140.18636923842132 L 85.18896114965901,141.5809126207605 L 84.55584425199777,142.28204663004726 L 84.38159182714298,143.13325810153037 L 87.1173541159369,148.1978464499116 L 88.04670007154346,149.10989424586296 L 86.92567649902776,149.26003791112453 L 86.0021389410831,149.99954654835165 L 85.63620889931917,151.21973329782486 L 86.14154083793983,152.8344888659194 L 85.17153595713899,154.09653284400702 L 86.19381648674607,153.71714251767844 L 86.58298011869192,153.40162690728903 L 88.09897579159588,154.30689753964543 L 88.70885909954086,154.99063016287982 L 89.06898067239672,155.98254709877074 L 87.58783545531332,155.97503192909062 L 83.16182528296486,156.67021544463933 L 81.77361471159384,157.24520761799067 L 81.98271752148867,158.57577833067626 L 83.66715715033934,161.08732200227678 L 82.1163110206835,161.04971682280302 L 80.73971731588244,160.45934428088367 L 80.98947905097157,162.87005970906466 L 82.011759580113,164.26199160516262 L 83.37092809285969,165.33436074573547 L 84.64297042833641,166.76822824124247 L 85.31093785399571,169.14742273371667 L 85.81626972137019,170.18671447224915 L 87.83759719040245,171.00395687669516 L 88.43005530582741,171.96444367896765 L 88.53460667468607,173.20010471250862 L 88.04670007154346,174.41339365486056 L 86.96052695531398,173.580645843409 L 79.53737596422434,169.67457871790975 L 76.70287070376799,168.5638362504542 L 76.06975373486057,169.01187531463802 L 73.2120148842223,172.42402156349272 L 71.96320621017367,172.75554075278342 L 71.30104718217626,173.36588225327432 L 72.36398663697764,175.0465049687773 L 67.53719596611336,175.0465049687773 L 68.5130092445761,172.51443414762616 L 65.34161607269198,172.51443414762616 L 64.63879819074646,172.6990305474028 L 64.3948449245654,173.78411265276372 L 63.54681667685509,175.73998431582004 L 63.25058761937544,176.11313744448125 L 62.396751045715064,176.24883487261832 L 60.5961431809701,175.96613516751677 L 59.69583928445354,176.24883487261832 L 57.58157717017457,178.08480130322278 L 57.0472032437101,179.13308361172676 L 55.31629636371508,179.47249236982316 L 53.31239408720285,181.60740801598877 L 52.52825842611492,181.697950148955 L 51.85448260279372,180.10610331781209 L 51.04711328074336,180.76995342224836 L 50.088725194800645,181.07172628026456 L 49.26973907742649,181.6111805709079 L 48.63081371085718,184.38461710512638 L 47.84086965210736,185.51697728782892 L 46.74888813868165,186.41545891016722 L 45.52331312559545,187.1252730898559 L 44.41390634793788,187.54062634613365 L 42.2357517182827,187.9560066582635 L 41.95694792456925,188.8246161872521 L 39.921753459610045,189.01006005518138 L 39.1894920412451,189.58524297829717 L 38.907531385775656,191.68808637186885 L 38.16986304754391,192.82929857168347 L 37.751657356508076,191.82789282687008 L 37.699381636455655,190.8946482539177 L 38.78555475268513,188.25811830349267 L 38.46609210502356,187.20456571131945 L 38.44941355334595,186.04797147586942 L 38.03301119245589,185.2515590498224 L 38.06420774012804,184.32842420879751 L 38.95574008580297,184.0084086023271 L 38.66525326203555,182.57585487421602 L 37.77216475410387,182.51398696098477 L 37.006485351361334,181.9113760329783 L 37.32333407737315,180.9567805379629 L 38.01303588645533,179.97032423689961 L 37.3871160345152,179.71385460719466 L 36.050621684640646,180.2273718835786 L 34.52354130754247,179.3386908210814 L 33.08978242240846,177.905002345331 L 31.243641731794924,176.9832462090999 L 30.41494778264314,174.97890830691904 L 29.43981926422566,175.6721407165751 L 29.840599691029638,176.9386743986979 L 29.073889293707907,177.22518694587052 L 28.51289552031085,178.51486683171242 L 29.781274668872356,180.00675453431904 L 30.036427193321288,181.69381066597998 L 30.96046622330323,182.2983557600528 L 31.304319643881172,183.61472656019032 L 31.095216762740165,184.90547798387706 L 30.589884895831347,184.95077220816165 L 29.985809985548258,184.56578128039837 L 29.43981926422566,184.53181260172278 L 28.417538663372397,186.49096730258316 L 27.766996501479298,186.92138221021742 L 26.65758972428739,187.31784260179847 L 26.47752897348255,188.07684958633035 L 26.96543557662517,191.24223753530532 L 26.651781326625496,191.71453593671322 L 25.31584647577256,192.4513911968097 L 25.002192225307226,193.17699316795915 L 25.275187550112605,195.074529401958 L 25.176444578915834,195.73993451613933 L 24.525902417022735,196.00082257110626 L 22.01666827313602,196.09156866837293 L 15.923643664456904,197.27138594724238 L 15.081423885654658,196.66254276130348 L 14.732919107656926,196.6927944822237 L 13.722255373373628,198.26986310537905 L 13.222731903195381,200.505656930618 L 10.794815538916737,201.08081002067775 L 9.819002260453999,203.0412611020729 L 9.31367039307952,203.70749757438898 L 7.867375704459846,204.88872412778437 L 8.622469306457788,206.0474475249648 L 10.568287465255708,206.83140935283154 L 11.32338106725365,207.43364836182445 L 11.759012022055686,208.74437796510756 L 12.25853549176827,213.26960511878133 L 13.879082533996552,215.60927996132523 L 15.90041000302881,215.30966253671795 L 18.165690809488297,214.4450229657814 L 20.57618198171258,215.12003846280277 L 19.12407889496535,215.88615423906595 L 15.813283826224506,216.07580106891692 L 14.198545181658119,216.3944204421714 L 12.856801933143288,217.52109583467245 L 12.351470065768808,219.06917769741267 L 12.066857874393463,220.72771317791194 L 11.32338106725365,222.18545667547733 L 22.61661970661953,233.00348898861557 L 23.67517381394282,233.3319353563711 L 24.077203067950904,233.63624646980315 L 24.298503583762795,235.0662216693163 L 24.519804027862847,235.5542262122035 L 25.663190073799342,236.583507780917 L 28.540096707176417,238.4298689076677 L 29.683482681401074,239.73521353397518 L 30.78260856680572,240.49920685589314 L 34.38243022328243,241.29714652523398 L 35.76924672210589,241.99844943918288 L 36.51798013597727,243.53191368840635 L 37.81996483914554,247.6213585929945 L 38.93384404014796,248.44924900773913 L 40.57884452166036,248.85112970508635 L 42.076311278156936,249.8438361911103 L 45.57654775260016,253.36072670761496 L 47.99978834996,256.5450588678941 L 48.833353630732745,258.24208775069565 L 49.5562685825862,257.5729189682752 L 50.43409402342513,256.12814448960125 L 51.67337679723278,255.60946406051517 L 53.40689752809703,255.43011720012873 L 55.335900311823934,255.7791211809963 L 56.763288588263094,255.66278440412134 L 58.168546856381,255.7791211809963 L 59.238165968097746,256.12814448960125 L 59.59593513328582,257.0638163154945 L 59.06481392402202,258.2275398746133 L 57.38292997563258,260.5556322420016 L 57.38292997563258,261.84130207356066 L 58.083714918233454,263.00590904057026 L 61.5433796858415,264.2872256776318 L 64.47192310169339,265.80184556543827 L 67.21604946861044,267.66649405285716 L 69.2483258168213,268.60388300195336 L 71.73795651225373,269.4199624201283 L 74.5706030568108,270.58597393054515 L 75.19393282616511,271.28568484447896 L 76.07544650696218,273.27348327450454 L 77.22620917437598,273.7401481401175 L 78.28845166414976,273.8568198475987 L 80.3207280128263,273.040163801983 L 82.24235410289839,273.5651446916163 L 82.87674887664616,273.30264875944704 L 84.18979865591973,272.22361396439373 L 85.78685066616163,272.1604329524562 L 86.06347634643316,272.8651798637584 L 85.9085659282282,274.0561388619244 L 86.18887991970405,275.4320993889123 L 86.72000112896785,275.86488425545394 L 87.95928404573351,275.6363311363384 L 88.623185521923,276.073993222788 L 88.85923942411318,276.6673173448071 L 88.9034995129332,277.9854755504057 L 89.1100466423668,278.7054721964523 L 89.77025980688632,279.7953543672338 L 90.46366812800989,280.345232764259 L 91.38206520397216,280.54962475039065 L 94.34011539304629,280.6323566697538 L 95.29539593635127,281.0216981098056 L 95.78594536753371,282.07304102834314 L 95.92979078134522,284.1129545867443 L 96.26542986603454,285.9586994247511 L 97.09899514680728,286.57731612119824 L 98.15386087214574,286.28991961758584 L 99.13864818867296,285.4278094395995 L 99.82467974442989,284.3515558699146 L 104.01832439657301,284.4343380043283 L 105.01417671749368,285.06741426326334 L 104.35027517052367,286.49937669280916 L 102.31431043986231,288.9987898450345 L 105.05474849557504,292.51817461289465 L 106.7108139814809,293.7031222274527 L 108.89431236544624,294.1518030529842 L 109.52870713919401,294.4298062669113 L 110.15941360220313,295.70780460257083 L 110.60201463336125,296.0834490954876 L 111.30648795887828,296.1371144782752 L 111.90399933699518,295.9858768610284 L 114.95794632611796,294.58100613206625 L 115.65135464677587,294.6834340393543 L 118.5798980621621,296.7469804966822 L 119.4724768185988,297.2007595235482 L 120.63799280161038,297.3715450745076 L 121.40516791353002,296.88359863869846 L 122.24242150550708,295.93221287149936 L 123.10918187070638,295.3029141649604 L 124.06815072475001,295.7907371520996 L 125.11563982767984,296.6152444584295 L 127.31389159848914,296.88359863869846 L 128.2249120529741,297.3715450745076 L 128.7597216446884,298.29874818585813 L 128.37982239946723,298.747759193182 L 127.42454185662791,298.8453744882718 L 126.27746749995276,298.72335551306605 L 127.09627946512774,300.11451308242977 L 129.70393711188808,300.7687082430348 L 130.91371325496584,301.65735194738954 L 132.36323161190376,303.91859314683825 L 132.80214426107705,305.051963981241 L 132.61035044724122,305.88258199580014 L 133.06401655450463,306.6106853624806 L 133.63939785258844,307.1238293480128 L 135.09260459197685,307.7543212939054 L 134.89712246740237,308.9763863934204 L 135.62372580124065,309.9542112145573 L 136.68965660221875,310.97620210051537 L 137.52691019373015,312.2771605150774 L 136.4978628596291,314.03339627943933 L 138.18712335871533,315.6188368583098 L 146.27196873445064,320.43635731749237 L 147.27519774902612,321.3327104412019 L 147.96122930478305,322.4251625193283 L 149.75745175080374,326.5713701127097 L 150.5762637159787,327.6206133617088 L 152.3724861619994,329.40571497567 L 153.1691679758951,330.5192115204409 L 154.8289218437858,334.4499320304021 L 155.6071619600989,335.6478006057441 L 159.1332167540677,339.9207756500691 L 161.39048200054094,341.64553534798324 L 163.4448884287849,341.60621918179095 L 162.90639045508578,340.530037493445 L 162.47116611665115,340.24505278933793 L 162.47116611665115,339.5424738675356 L 164.9312901101075,340.25979303289205 L 164.9312901101075,342.70224953908473 L 163.94281455362216,345.7013518223539 L 163.4448884287849,348.1016815658659 L 163.89486608235165,349.3267994085327 L 166.36605515144765,353.3039560727775 L 167.54632452130318,357.6088667213917 L 168.8667509225197,360.2455067448318 L 169.124934904743,361.5272719338536 L 168.8667509225197,362.7747840480879 L 168.09957581060007,364.0743388403207 L 168.13645920623094,365.24096601177007 L 170.63715497683734,367.9055525837466 L 171.76578763592988,370.1861704783514 L 172.91286192135885,370.4429162926972 L 175.435687772464,370.2997297355905 L 176.2065511951223,370.7564569786191 L 178.5006999084726,372.88500643894076 L 179.62195580266416,373.56175305042416 L 176.70816570241004,375.73822080809623 L 176.1622911063023,376.8823489556089 L 177.3831322537735,377.3840534463525 L 178.51914153480902,377.3840534463525 L 179.57400733139366,376.97131819371134 L 180.59198966110125,376.232418471016 L 182.72016295185313,373.8705125749111 L 183.9520691037178,373.05048144795 L 184.49794369982556,373.91497523430735 L 185.3978991494514,376.2941960338503 L 189.3886849838309,377.9624235769734 L 190.29232874466106,380.47674244176596 L 190.98204868286848,381.564869212918 L 192.50902221305296,382.64082059729844 L 194.0286190500483,383.10836173873395 L 194.72940399264917,382.40830011479557 L 194.80317085515708,380.3061218652874 L 195.19413510430604,379.7720359303057 L 196.08302547829226,379.83137659169734 L 197.6948308753781,379.4975931895897 L 201.40530278952792,376.4622340211645 L 202.08395772380754,376.563553259708 L 202.3790250304155,375.2811233345419 L 203.91706356499344,372.8282026257366 L 204.5071982499212,371.6058129100129 L 203.29373379563913,371.7440913487226 L 202.5339353773743,371.3144508926198 L 202.28312815912068,370.38366631418467 L 202.56713046180084,368.99145565740764 L 203.24947370681912,368.024005391635 L 204.32278120098636,367.29851746279746 L 206.509967896156,366.38807720597833 L 205.9788466868922,365.0781675791368 L 207.17386944312602,364.8783754017204 L 210.89171805093065,363.40849852003157 L 211.86544022057205,362.4739773403853 L 210.3052716772072,361.84775486495346 L 208.78198645776138,360.9553745696321 L 207.46156005654484,359.66879943944514 L 206.509967896156,357.9192909998819 L 207.66441887477413,357.6679938416928 L 208.19185184454545,357.36250921711326 L 208.64920619130135,356.4510725811124 L 209.20245740935206,356.6333491541445 L 210.16880302783102,357.26396908517927 L 210.82532788207754,357.07182022277266 L 211.4818527358584,356.18998298607767 L 211.86544022057205,355.9683119459078 L 212.40393819427118,356.40180959831923 L 213.3370886570774,358.36278140265495 L 213.82026146678254,358.7323809619993 L 214.88250388531014,358.23958631325513 L 216.49062097119167,357.0225522816181 L 217.47540821647272,356.7811448313296 L 219.12778539117426,357.31323895417154 L 219.66259498288855,356.7811448313296 L 219.7216084585525,356.12101789563894 L 219.27900735568255,355.5151425888762 L 218.2425833279267,354.82560074236244 L 220.81704596150666,353.84559890441597 L 223.60912072798237,353.525531521067 L 226.08768649026752,354.2395507330075 L 226.7663413528353,353.9736304860562 L 227.95398741634563,352.87559958174825 L 229.53997449344024,352.74266735464334 L 230.6612303876318,353.21040442492813 L 231.66445933049545,353.8505231067538 L 232.8779238560237,354.2395507330075 L 234.0840115454048,353.914538663812 L 235.33067115582526,353.22517561819404 L 236.56995400134474,352.8608291298151 L 237.78710676636547,353.525531521067 L 237.91988710453734,351.38889131415635 L 238.92311611864716,350.37498439475894 L 241.6856841831468,349.6220447309315 L 244.59947421215475,347.67368570063263 L 245.2228040532209,347.96885213721544 L 246.0121091734618,349.26283129677176 L 246.33668325375766,349.30219618137926 L 248.3062578155659,348.539547201246 L 255.04117001686245,348.3427498685196 L 256.87796424049884,348.97744377236813 L 258.19839071296155,348.0623244252056 L 259.6257789894007,347.8114282703027 L 260.78760666167364,348.39194859098643 L 261.2670910884626,349.94683102797717 L 261.9531226446852,350.62598467990756 L 263.5317330285907,351.13786002248526 L 266.43076967075467,351.57594092935324 L 268.5736963483505,349.6220447309315 L 269.30398799292743,349.9714367268607 L 270.5137640652247,351.57594092935324 L 271.2956925635226,350.5521600525826 L 271.2366791591048,347.1473405752331 L 271.4948630705476,346.0947846714407 L 272.1145044574514,345.9226547488943 L 274.0250655435957,346.80302680749446 L 273.7595049389638,344.71296233311296 L 274.99141109129414,343.7296470319852 L 276.70280174165964,343.77389287389815 L 277.83143432904035,344.7916344180703 L 278.8494167299941,344.2065354557708 L 277.83143432904035,342.8447968447581 L 280.8411213005893,342.579366505146 L 283.6663911519572,345.25385246798396 L 290.9398013269529,358.6141066849232 L 292.03892714111134,362.30632096435875 L 290.6299805617891,364.37275730539113 L 290.4972002240829,366.0846270713955 L 289.61199823208153,368.03140870761126 L 288.3210786045529,369.6307473164052 L 286.4105175184086,370.52191718295217 L 283.68852116027847,372.76399021875113 L 281.7705834521912,374.57207183633 L 281.46813938068226,376.6698166532442 L 280.7083410336636,378.67433865647763 L 277.3371965154074,385.1743800211698 L 276.90934894187376,387.0059242900461 L 274.52668005088344,387.7832584613934 L 273.8258951078169,389.13763975538313 L 273.26526712533087,390.63350193947554 L 271.87107393331826,398.83255921304226 L 271.94484072411433,400.24892622139305 L 272.88167956937104,401.58621834777296 L 274.3127562282607,402.02543000504375 L 277.58800373319536,402.09987584128976 L 289.11038372525945,405.34411140251905 L 296.37641720706597,404.73087586276233 L 298.0435476968996,404.17479664552957 L 299.504131058231,402.988332176581 L 302.8162621012889,403.17944156657904 L 305.26532108988613,401.9485037121922 L 306.26855010399595,401.8120237374678 L 309.21922352863476,402.96103125438094 L 309.9052551561035,402.8245288571343 L 310.6945602768101,402.2636597370729 L 311.3584618237801,402.60116777941585 L 312.36169076664373,404.10777262505144 L 313.06247578095645,404.7929414883256 L 313.8001441191882,405.0858995318413 L 319.12610974162817,404.6588806202635 L 321.0366708273068,405.0858995318413 L 321.87023610807955,406.7595053287223 L 328.73055195389315,406.40190118644387 L 334.89745947904885,404.7110150847584 L 337.5088055790402,405.58495351392776 L 338.56367130437866,409.417359046638 L 339.2054427713156,410.6945342356339 L 340.71766298636794,411.1170050986111 L 342.42167694307864,411.32576618064195 L 343.68308979738504,411.9794333567843 L 345.5936509547755,413.99804216902703 L 346.31656590662897,415.2712031789124 L 346.405086084269,416.9724816409871 L 348.1017234190367,415.95513961836696 L 349.3188761845231,415.850678906776 L 350.3368585854769,416.54960487689823 L 352.35069316485897,418.8932089144364 L 354.4678014512174,420.79462873004377 L 356.8578468929045,423.349040706642 L 357.0791474087164,423.9018908338621 L 356.72506662644446,424.7686219336465 L 355.1243262337521,424.898144046776 L 354.6891018957831,425.5806716028601 L 354.8735190159641,426.68433627393097 L 355.5005371677689,427.195129211992 L 356.8578468929045,427.88539081346244 L 357.11603080434725,428.71779599785805 L 357.21192774688825,430.2059420021251 L 358.0602463427931,430.8491731788963 L 356.9463670705445,431.816641186364 L 355.6259407410398,432.1084080012515 L 355.6259407410398,432.829156819731 L 357.9274660763331,432.8191804597154 L 358.65038102772087,433.37289256975055 L 359.0782287437469,434.80729129817337 L 358.93807178363204,435.3187675559893 L 358.1045065028593,435.91512849740684 L 358.0602463427931,436.7835746575147 L 358.6356277121231,438.24873536545783 L 359.13724221941084,438.6681310432032 L 362.95836432045326,439.49202813673764 L 363.46735552093014,439.7192437527701 L 363.7034094231203,441.46234530210495 L 364.3009208017029,442.8836685102433 L 365.0902259219438,443.31337836384773 L 365.9016611939296,442.11925997491926 L 366.919643452391,442.7187879513949 L 366.3221320742741,443.55073122214526 L 365.95329790515825,444.43526456784457 L 366.06394816283137,445.12249125912786 L 366.919643452391,445.36241411138326 L 367.70157195068896,445.0775067573413 L 368.3433434893377,443.873046153225 L 369.35394912585616,443.44329662434757 L 370.010473979637,443.6456749299541 L 371.6776045411825,444.6951520740986 L 372.7693536616862,444.70015007350594 L 376.2216416648589,441.7620694031939 L 376.678996082861,440.9728278387338 L 378.69283073348925,439.85158198233694 L 379.142808387056,439.1200122218579 L 379.386238982901,438.1239208225161 L 379.98375036148354,437.7844382459298 L 380.7066653841175,437.954177159816 L 381.3410601578653,438.49088286887854 L 381.71727102063596,439.46955672279 L 381.98283162526786,441.1226759403944 L 383.73110567126423,441.824513846077 L 384.21796679124236,442.8736757040024 L 384.2991103474051,444.1678920034319 L 384.0187963559292,445.36241411138326 L 386.99897662503645,445.11749291047454 L 389.6914661382325,444.39278408978134 L 391.9856147803366,444.8226008573547 L 393.80765561712906,448.0622020130977 L 394.14698308426887,451.5412031263113 L 393.9920727373101,455.33011163957417 L 394.3535302132368,458.6479811090976 L 396.24933791253716,460.6921946061775 L 396.24933791253716,461.2885537976399 L 395.04693846264854,461.59176739957184 L 394.71498768916354,462.90002051834017 L 395.3936426229775,464.2511770259589 L 397.22306015342474,464.6648568753153 L 396.90586283802986,466.0690725427121 L 397.9976119585335,467.54385074507445 L 397.92384516773745,468.3089712681249 L 397.0681498781778,469.1444431990385 L 396.345234783832,469.48569020908326 L 395.85837373463437,470.14565658103675 L 395.71821670327336,471.95528854615986 L 395.8362436546013,473.1628486607224 L 396.12393433926627,474.2651781877503 L 398.13776898989454,478.77955138590187 L 398.5287332390435,480.1418133229017 L 398.8164238524623,483.07851154822856 L 401.3244963167235,489.97583541925997 L 402.21707507316023,491.9979673344642 L 402.28346517076716,494.24501976929605 L 402.57853254908696,495.28065996896476 L 403.3899677498266,495.971186212264 L 405.5439594318159,496.22070240043104 L 406.5250583658926,496.6693535950035 L 405.3152822223492,497.31970553286374 L 404.57761388411745,498.61053499393165 L 405.3595423111692,498.9408505400643 L 406.67996871238574,499.8209401033819 L 407.4987806067802,500.0 L 408.45774946082383,499.8184181936085 L 408.98887067008764,499.3518791552633 L 411.14286235161126,496.434941845946 L 411.82889390783384,495.7519230209291 L 412.8542529307306,495.28065996896476 L 413.7468316871673,495.14962020237 L 416.53521814290434,495.28065996896476 L 419.89160927478224,496.7474929448217 L 421.8316769916564,497.2264336925 L 422.69474904611707,496.33664286788553 L 422.4734485303052,495.04378256574273 L 421.90544385416433,493.4690366918221 L 421.1235154271126,492.07856454513967 L 420.20880666188896,491.343155185692 L 423.18161016656086,489.94058635644615 L 426.99535564519465,490.04633406735957 L 430.2189664389007,489.4647442083806 L 431.4656259776093,486.02167658135295 L 430.4476436479017,477.7618262851611 L 430.5066570523195,474.0040158824995 L 431.9082269379869,470.62750278320163 L 435.7957393503748,466.6258342079818 L 436.34161387523636,464.96573273744434 L 441.2102251504548,460.6921946061775 L 441.9921536487527,460.48172884993255 L 443.17242301860824,460.5017729103565 L 443.6887908410281,460.02574517112225 L 443.851077881176,459.26167352870107 L 443.59289397019893,457.38321986049414 L 443.9395981305279,456.35657855216414 L 445.45919496705756,455.1774082900956 L 446.5583208524622,455.7156421877444 L 446.7796213682741,457.15534049179405 L 445.6436120872386,458.6479811090976 L 446.55094415927306,460.1259582825005 L 447.71646014228463,461.0580213870853 L 448.94836636586115,461.13319398183376 L 450.02536217076704,460.02574517112225 L 450.6450036293827,455.16739507578313 L 451.04334457218647,453.3502736147493 L 452.024443435017,451.00834369380027 L 452.1350937639363,449.942765253596 L 453.0424258359708,448.7248339392245 L 454.2448252858594,445.14748277142644 L 455.0857672598213,443.8205751515925 L 456.40619358979166,442.7187879513949 L 458.02168736886233,442.15672871191055 L 459.25359352119267,440.8104964848608 L 460.0281452545896,439.107528869994 L 460.30845924606547,436.7835746575147 L 460.28632923727855,434.3432574281469 L 460.46336959302425,433.0536289997399 L 461.18628468737006,432.1433211984113 L 463.119120456744,430.5965531533584 L 462.8047204934992,430.0070193596184 L 458.2382199028507,428.59812199138105 L 457.1707537090406,428.3976065032184 L 456.25734066357836,427.52395915891975 L 455.8092040964402,427.4776672264561 L 455.8760302164592,429.23036979231983 L 455.81794609874487,430.2903129439801 L 455.62626848137006,430.89102947711945 L 453.7980351136066,432.5409469893202 L 451.73782799579203,432.84129251074046 L 450.2069460381754,433.73251718468964 L 449.5743570206687,434.5219559390098 L 447.46843057731166,434.905538120307 L 446.39558922545984,434.4227908337489 L 446.6627742969431,433.1988458111882 L 445.7394461496733,432.20406012702733 L 444.5716666188091,431.9492186848074 L 443.9821747262031,432.81753901951015 L 443.07714417297393,433.4231486208737 L 442.2414313266054,433.4404368000105 L 442.12751814583316,431.7549089882523 L 441.28139065299183,431.06368220597506 L 440.5789766749367,430.2186248358339 L 440.72769077913836,428.2373315365985 L 441.0761954858899,427.6054825000465 L 442.12751814583316,427.2876204997301 L 442.1391349406913,426.20466016139835 L 441.77320497017354,425.5220233537257 L 441.23302264651284,425.67502149101347 L 440.15247513959184,427.0026570148766 L 439.4251756258309,426.793597468175 L 438.90152832120657,425.634328732267 L 439.55687893368304,424.5109361857176 L 438.77116320002824,424.2469508256763 L 438.2484758011997,422.975721957162 L 437.0745180854574,422.7749327197671 L 436.7595646898262,420.6079021822661 L 435.91201907163486,419.9550235206261 L 435.0737854465842,419.80317863821983 L 435.15474464418367,421.19428496900946 L 435.68827971443534,423.2455984177068 L 435.1017600395717,424.92391283623874 L 434.15710348216817,424.99618010781705 L 431.10096210660413,421.93579919915646 L 429.5037748431787,419.73556155897677 L 428.500982707832,418.9820081340149 L 427.59726043604314,418.8783171977848 L 427.74088259227574,417.53912455774844 L 427.3857675329782,411.92447786871344 L 426.99660390103236,411.8931640731171 L 426.3867205930874,412.17499392386526 L 425.5735428733751,411.6818003272638 L 424.59772959537804,410.3668122785166 L 424.8358745351434,410.21028497535735 L 425.05078574223444,409.59595399256796 L 424.53947004070505,409.18668753188103 L 423.87399655766785,409.3084101052955 L 422.6670695836656,410.3292010203004 L 421.7299697957933,410.8449562918395 L 419.781670327764,410.81891795713454 L 418.3733847416006,409.72719913721085 L 417.9433005284518,407.17368053644896 L 416.8874586238526,407.026219336316 L 416.70832473319024,406.24991575069726 L 416.3654372850433,405.64333364740014 L 415.76319782296196,403.3036266537383 L 415.57829821575433,401.7563161039725 L 415.0742185302079,401.4860317064449 L 414.22725425101817,403.57068020198494 L 413.366048050113,403.23523748479784 L 413.2527852267958,401.27156058885157 L 411.88892331765965,400.52123372629285 L 412.3768299925141,400.09148657880723 L 413.3526432705112,398.56026940234005 L 412.65563378622755,398.32593328133225 L 412.1328766550869,397.89243503753096 L 411.36616625776514,396.58431587647647 L 411.6101195239462,396.7912534624338 L 410.9189184368588,394.26553231757134 L 410.64011464314535,392.4704445898533 L 409.9082547025755,391.82668256852776 L 409.36220195749775,392.1047381348908 L 408.6917477985844,392.96417750418186 L 406.9949702853337,393.66402857843786 L 405.7901548333466,392.99919674545527 L 404.83751069474965,388.5075055398047 L 404.91882847389206,385.32263001427054 L 403.85680160392076,382.19075099006295 L 402.82323559653014,381.26561407838017 L 402.6297378768213,379.65125650167465 L 401.9411592762917,379.06371337361634 L 400.78014191100374,380.9454074744135 L 399.8357944735326,380.877151530236 L 397.0839720154181,379.12438664212823 L 395.3000975889154,373.0857983343303 L 394.70013494975865,371.91424093581736 L 392.82001170841977,371.08468065597117 L 391.0930485855788,368.63689278345555 L 390.54792676866055,365.58146225567907 L 389.5646730605513,361.59580034017563 L 388.09359033219516,359.06255196779966 L 388.9398860526271,356.8259115582332 L 388.37422714708373,353.79284388478845 L 388.8505273759365,350.98468772973865 L 390.4403492230922,348.9312289673835 L 392.79033256694674,346.6999798202887 L 394.3215101552196,346.8560972735286 L 394.89928561495617,345.4929105034098 L 395.90088630793616,344.1257303506136 L 396.6941165579483,343.51511976867914 L 397.14717277605087,343.4493152620271 L 398.25077108480036,343.666085857898 L 398.64574311394244,343.51511976867914 L 399.3253274061717,342.5513461576775 L 399.2556264218874,342.2417319174856 L 398.87807965651155,341.8431263305247 L 397.8964579096064,337.6767196310684 L 396.7696259394288,336.7602543430403 L 395.9680650145747,334.6455542864278 L 393.1451766206883,322.6938599264249 L 392.5991858281195,318.49402807839215 L 393.7666767234914,314.94431691709906 L 393.31942897383124,313.6844830485061 L 393.1626018844545,312.20537056960166 L 393.23230279702693,309.1250141421333 L 393.7666767234914,304.87277475651354 L 394.06871417863294,303.9495946895331 L 395.37560697086155,302.32282238360494 L 396.3796195262112,301.6317486586049 L 395.71462902938947,301.1172886174172 L 395.26176509168,299.042845627293 L 395.53064022306353,298.3750347662717 L 394.19420389970765,296.59619122277945 L 394.413395606447,294.7415803289041 L 392.92987992381677,291.26246850937605 L 392.18252966180444,291.36396293900907 L 391.6307889986783,292.3021852141246 L 390.6460392959416,291.9458536040038 L 389.0967132137157,291.6573944585398 L 387.74558459967375,291.9259492661804 L 386.47832259349525,291.61405237950385 L 385.3103799736127,291.86094837542623 L 384.46563634695485,291.6356268711388 L 382.59599841199815,291.74649241007864 L 381.32330179261044,290.72913246043026 L 381.11702160164714,288.9546948093921 L 379.7570932437666,288.68687819037586 L 378.76386183919385,287.57331994734704 L 377.9187003192492,287.25346458517015 L 375.7981229820289,287.4234852967784 L 372.2597644920461,286.23739040642977 L 369.56417371705174,284.3019770476967 L 366.88763438584283,282.84946162067354 L 366.03613765817136,281.8214547149837 L 365.1848809607327,280.28610622137785 L 363.42933892365545,276.09915167093277 L 362.92400705674663,276.3442261479795 L 362.2444228362292,277.0335493804887 L 361.06717371894047,279.3305456144735 L 359.85519226873294,279.438987782225 L 358.45093380473554,279.1171389464289 L 357.3247282821685,278.23591085057706 L 356.51986910402775,276.277488659136 L 356.5604356713593,275.1562917018309 L 356.18317090393975,274.4577417783439 L 355.90163649246097,272.74565682467073 L 355.5879822424613,272.2404909254983 L 355.13688280712813,270.72643525898457 L 354.245102009736,269.5159539571032 L 354.1068370966241,266.2504842299968 L 353.2943846769631,265.93418352585286 L 352.5566735859029,264.08806589245796 L 347.32250341260806,257.20400157757103 L 343.93590240413323,257.3358470099047 L 340.0600606026128,256.0189270116389 L 334.63158261729404,250.22732453979552 L 331.83208019612357,247.76140251848847 L 329.69097383506596,247.34348823409528 L 328.48002716200426,246.1812967499718 L 326.1537449778989,245.43632384762168 L 324.9452513498254,245.38994709867984 L 324.08608957892284,244.31918304413557 L 321.91916982317343,244.67982894927263 L 319.5040828222409,243.95412895269692 L 318.20944597711787,242.04201185889542 L 317.2806402500719,242.0412288075313 L 317.18677310599014,242.92247548978776 L 315.8412604657933,242.2709285961464 L 314.58930156752467,240.78415520116687 L 314.41077777929604,238.36200528312474 L 317.28537925425917,237.02422993816435 L 317.56430966500193,236.14339047577232 L 318.0746201383881,235.45023283176124 L 317.7048558262177,234.0576575892046 L 317.8449186440557,231.79824169259518 L 316.8720718026161,231.41589950211346 L 315.29786618007347,229.83860665094107 L 314.7880439031869,229.88436462264508 L 313.8152641528286,230.3464778009802 L 312.4240682311356,230.43717774841934 L 311.63866889756173,229.83353344444185 L 309.18281619623303,228.5776975946501 L 308.6756778587587,227.14028289541602 L 308.07524329656735,226.39780070912093 L 306.82678992068395,225.65390955936164 L 304.6577597851865,225.58787548355758 L 302.42829811992124,223.23120096232742 L 301.456404118333,222.7181205181405 L 299.7749477699399,222.00701705459505 L 298.3800429813564,222.3052739109844 L 296.4473080630414,222.05452634207904 L 294.52024029381573,219.27072854340076 L 293.8056040573865,215.65019918140024 L 291.9742499422282,216.13648919388652 L 290.4067467446439,219.12417832855135 L 289.2156312027946,220.20875674951822 L 287.27982749789953,219.35059821233153 L 286.6742685837671,218.25965807028115 L 287.1416508741677,215.75719757005572 L 286.4794918461703,215.59031636826694 L 284.2142110397108,215.75719757005572 L 282.1406078506261,214.6953012831509 L 281.48425721982494,214.53982423245907 L 280.8917991761118,214.7256387323141 L 280.36323364730924,215.5675602434203 L 270.90132985217497,217.22897563315928 L 270.5760588068515,216.79271720908582 L 270.4831241616048,215.4386100359261 L 270.25659608794376,214.92283554002643 L 269.68156330799684,214.4033108856529 L 268.97293695714325,214.00516375619918 L 268.31077792914584,213.84591182600707 L 267.8228713260032,213.4023026516661 L 266.64957203296944,211.3097943905741 L 266.13262329949066,210.6692907717079 L 265.43561381520703,210.4040123336017 L 263.75059049157426,211.5247373189777 L 262.6356646656059,209.40899474080652 L 262.6516895759851,207.78947298042476 L 262.1364356125705,203.9043534360826 L 261.46265978971496,203.0412611020729 L 254.84106965223327,202.35238528810441 L 255.88077551685274,201.44409137312323 L 255.71233156137168,200.51700810715556 L 253.4570036130026,199.38880380708724 L 250.95492718787864,199.72856250125915 L 248.69716696441174,198.89295586384833 L 247.5465448317118,195.94085418526083 L 246.38047527335584,195.04532630275935 L 245.33901753975078,196.35515895485878 L 243.55817878246307,197.2880589067936 L 242.3762167119421,195.36563562136143 L 241.3655529776588,194.9913586601615 L 240.15159475943074,194.06899175979197 L 239.14093102514744,192.927558186464 L 238.252243923489,190.79641988221556 L 236.21349119069055,189.48937093932182 L 235.75462664617226,188.71131261531264 L 235.61522474931553,188.0164277907461 L 234.99372457480058,186.57025215774775 L 234.81947222165763,185.80009865481406 L 234.84851428074762,184.98851765599102 L 235.1795937945135,183.62604778073728 L 235.33642095560208,181.4263274949044 L 235.59779948508367,180.44556351099163 L 236.05085563240573,180.01558367256075 L 236.73043992416933,180.10610331781209 L 238.49038886325434,179.26884495839477 L 239.74500593543053,177.5154824387282 L 240.04704339057207,175.400773123838 L 237.3501885146834,171.41676275152713 L 236.18461093585938,167.57198676466942 L 237.25319705531,161.40321423485875 L 239.22224880428985,152.16600615438074 L 239.15835628891364,149.62790467217565 L 238.61236549634486,148.68200390040874 L 237.82822983525693,148.31043796334416 L 236.99762685177848,148.6031851079315 L 236.28319217450917,149.62790467217565 L 236.19606599817052,150.8442665953189 L 237.7411036589183,154.72764752339572 L 235.2667199713178,158.21491841226816 L 235.01114983903244,159.47049743495882 L 234.37803286965936,160.44806373957545 L 233.5067710322328,160.77896603755653 L 232.58323347428814,160.10965863987803 L 230.4747797572054,158.08711875602603 L 229.41184030240402,156.67021544463933 L 226.04876958485693,155.40766757074744 L 226.04876958485693,154.72764752339572 L 226.86775570223108,154.31441067159176 L 228.59285418502986,153.83358667232096 L 229.41184030240402,153.40162690728903 L 230.28891060873866,154.05896844901145 L 231.43316784268245,154.40456921607256 L 232.4089811211452,154.02140427287668 L 232.82718681171536,152.51901652757078 L 232.3567054006271,151.83554589934647 L 230.11465818434954,151.33988720923662 L 229.41184030240402,150.94188584946096 L 228.6277046413161,151.88060764409602 L 228.18045689165592,152.12094241660088 L 227.68674181960523,152.203559525311 L 227.01296599628404,151.99326342716813 L 227.4660221436061,150.31489571090788 L 226.64122762857005,147.87134213466197 L 225.59207030618563,142.63846481218934 L 227.11751743685454,139.07319961488247 L 228.19788215542212,138.2974674217403 L 229.02848513936624,137.91900375578552 L 230.5328638749197,136.22930251434445 L 231.31699960725382,135.7797889225185 L 232.72263537114486,135.99330401513726 L 233.0188644286245,136.8024776764214 L 232.82718681171536,138.2974674217403 L 234.10503754485399,138.44361275807023 L 235.56294902879745,134.9033270161599 L 236.99181845411658,133.95583292562515 L 242.35879151942208,134.49884619005024 L 244.12454885616899,133.95583292562515 L 244.9377265763469,133.25934464111924 L 246.2446193685755,131.68690440710634 L 247.2610915005207,131.37994864489883 L 252.15177475754172,131.42112477403134 L 253.2321394761093,131.27513781841844 L 253.96980781434104,130.55648070946336 L 255.60778012080118,127.64523724932224 L 257.83240207331255,124.4735440639779 L 258.74432276468724,122.21914323791862 L 259.8188790860586,120.64937597326934 L 262.240987053141,118.14974385779351 L 262.467515126802,116.97311970684677 L 262.76955258194357,116.61457181721926 L 263.8963845516555,117.50724333245307 L 264.2971650501713,117.2308381954208 L 264.57596884388477,116.64071529079229 L 264.80830531474203,115.22538536693901 L 265.1510016238317,114.5047684116289 L 265.69118401873857,113.97089123446494 L 266.3881935030222,113.76556549780071 L 267.6834694291465,112.98538693320006 L 270.0881521324627,109.07843445241451 L 271.45893743960187,107.5043747285381 L 276.91884507937357,106.18424807209522 L 285.4165523913689,95.5621068784967 L 286.4794918461703,95.98278911411762 L 289.7089691357687,97.75143973622471 L 290.59765623742715,98.06426149047911 L 292.7700024698861,94.60171265155077 L 295.2269608932547,92.72600051760674 L 296.08079753862694,91.07403304520994 L 296.1330731874332,87.79365835059434 L 296.4583443040028,86.10947865433991 z" /><path fill-rule="evenodd" fill="#D2EBD9" stroke="#A6A6A6" stroke-width="0.25" opacity="1" d="M 51.06258004810661,176.303769079037 L 50.74037122307345,175.70187655929476 L 49.84441641625017,175.26326182857156 L 51.55279437964782,171.28074395284057 L 47.95363193145022,169.14535541646183 L 46.41780862445012,167.3102457197383 L 45.061085948720574,167.08144820295274 L 43.34151914715767,166.182507134974 L 44.65223107859492,168.5410207947716 L 45.572176394518465,168.13343487214297 L 46.082778500858694,169.18502513691783 L 45.06944174738601,170.15920230094343 L 45.22893978608772,170.5988684343174 L 46.05550801055506,170.69621023908257 L 46.280345738865435,171.52101527433842 L 45.90002124896273,171.8393067587167 L 45.904705866705626,173.4296520492062 L 47.05004505580291,174.09447741508484 L 46.991801417432725,175.45807684212923 L 47.852750030811876,176.2188261821866 L 47.76011536922306,177.01418736763299 L 49.096380680799484,177.16887278854847 L 51.06258004810661,176.303769079037 z" /><path fill-rule="evenodd" fill="#D2EBD9" stroke="#A6A6A6" stroke-width="0.25" opacity="1" d="M 47.97446315176785,77.36465257778764 L 49.18261290108785,75.24521159008145 L 49.43818303337321,74.24697286449373 L 46.377149699255824,75.11160957906395 L 44.93085501017049,75.73510915599763 L 43.58911176165566,76.80039130989462 L 41.98018158599734,75.53469216544181 L 41.32383095519617,76.3475324595347 L 41.62006001314148,77.85470829997212 L 44.31516330502927,79.59990072902292 L 45.17480834759772,79.7930143289268 L 45.54073831811547,78.94632744789124 L 46.70822921348736,78.5453033996746 L 47.527215402107686,78.07376016490161 L 47.97446315176785,77.36465257778764 z" /><path fill-rule="evenodd" fill="#D2EBD9" stroke="#A6A6A6" stroke-width="0.25" opacity="1" d="M 79.75809564022347,8.216981457546353 L 80.3970209355466,8.400675656273961 L 78.61383840627968,5.935921444557607 L 77.39988018851727,4.691033580340445 L 75.5179545446299,3.4720761980861425 L 73.90902436897159,2.187271279282868 L 72.44530441565439,1.8716141432523727 L 72.03290712274611,2.5396503303200006 L 74.14716923749074,5.058233058080077 L 75.15783304302022,5.557656643912196 L 75.88969298405573,5.252856886945665 L 76.23819769034162,6.659458348527551 L 76.62155292462558,6.666804374195635 L 77.18496890971437,7.203080867417157 L 77.65545032080263,7.269200143404305 L 79.75809564022347,8.216981457546353 z" /><path fill-rule="evenodd" fill="#D2EBD9" stroke="#A6A6A6" stroke-width="0.25" opacity="1" d="M 66.83437808416784,9.925531993620098 L 66.38132193731144,11.182422534562647 L 68.15288767172024,12.465282971970737 L 69.74439265485853,12.950555277056992 L 70.05804697657004,12.230012119747698 L 69.50043938867748,11.965342407114804 L 67.44426139211282,10.02475160267204 L 66.83437808416784,9.925531993620098 z" /><path fill-rule="evenodd" fill="#D2EBD9" stroke="#A6A6A6" stroke-width="0.25" opacity="1" d="M 58.46445587417111,14.494838352315128 L 59.20212421240285,14.340393976308405 L 59.475119608454406,13.45056969858706 L 59.27182519622147,12.788793888874352 L 58.88846996240318,12.803499266505241 L 58.12175956508145,11.976370075717568 L 57.42475008079782,11.737440704368055 L 56.65223121456802,11.730089186690748 L 56.12947408342734,11.987397762946784 L 56.135282481089234,12.406464458443224 L 57.14594628708437,13.20055780094117 L 58.10433430131525,12.840263032354414 L 58.32505397731438,12.928496645763516 L 58.441222212743014,13.494690396822989 L 58.278586654458195,13.939590680412948 L 58.46445587417111,14.494838352315128 z" /><path fill-rule="evenodd" fill="#D2EBD9" stroke="#A6A6A6" stroke-width="0.25" opacity="1" d="M 33.99942293576896,169.11730082705617 L 34.423837502487004,169.8494578320533 L 35.21525500109419,170.03431673906744 L 35.43444163957611,169.41638443712145 L 35.43211235664785,168.39094529952854 L 35.22499794885516,167.41187910176814 L 34.71966608194634,166.8435057066381 L 33.77912572119385,166.90384989790618 L 33.46237377822399,167.31856212113053 L 33.72074597328901,168.092784460634 L 33.592610283754766,168.56328192539513 L 33.99942293576896,169.11730082705617 z" /><path fill-rule="evenodd" fill="#D2EBD9" stroke="#A6A6A6" stroke-width="0.25" opacity="1" d="M 33.95295568462461,170.744085050188 L 33.13396949600428,170.16788518428802 L 32.14073102502152,170.15658769290894 L 30.938389673363417,171.01525585819036 L 27.993524575140327,170.16788518428802 L 27.766996501479298,169.95323569886386 L 27.447533782571554,170.11139783542603 L 27.557893620803952,170.72902038227767 L 28.760234972462058,171.54633179679513 L 29.94515113160014,172.6274517159909 L 30.24138018907979,172.52196866460145 L 31.223001864738762,172.64252093061805 L 33.01199286291376,173.13982310704887 L 34.25499306851998,173.04940162226558 L 34.742899742908776,172.42402156349272 L 34.56864738976583,171.58023166377097 L 33.95295568462461,170.744085050188 z" /><path fill-rule="evenodd" fill="#D2EBD9" stroke="#A6A6A6" stroke-width="0.25" opacity="1" d="M 27.45915064914152,160.15477827377617 L 27.23262257548049,161.68527396861464 L 27.86573947314173,161.9184526251629 L 28.638258339371532,162.64060799777508 L 29.01580517599359,161.45210366789252 L 29.102931352797896,160.4104622947052 L 27.888973134569824,159.8915847586468 L 27.45915064914152,160.15477827377617 z" /><path fill-rule="evenodd" fill="#D2EBD9" stroke="#A6A6A6" stroke-width="0.25" opacity="1" d="M 0.2380213919095695,195.08633352443576 L 0.5679012555629015,195.42821072693914 L 0.44669581577181816,195.79455567523837 L 0.8422100716270506,195.9733436042443 L 0.6907515744678676,196.17644276097417 L 1.3347964393906295,196.3806940978393 L 1.6499353353865445,196.0513983713463 L 1.7518473737873137,195.66608560830355 L 2.039188612252474,195.58626463729888 L 2.0159558076411486,195.12490340601653 L 2.24624042538926,195.09370780270547 L 2.2436047345399857,194.84391861222684 L 2.1634154464118183,194.58594459854066 L 1.7089615152217448,194.26355490181595 L 1.36140700802207,194.25192462466657 L 1.0491502559743822,193.61674322653562 L 0.8474481212906539,193.6291769510135 L 0.7055614893324673,193.84123458433896 L 0.024709385354071856,193.96364936698228 L 0.2380213919095695,195.08633352443576 z" /></g></g></g></svg>