<svg xmlns="http://www.w3.org/2000/svg" xmlns:xlink="http://www.w3.org/1999/xlink" width="500.0" height="472.18262568023056" viewBox="0.0 0.0 500.0 472.18262568023056" preserveAspectRatio="xMinYMin meet"><g transform="matrix(1,0,0,-1,0,472.18262568023056)"><g><g><path fill-rule="evenodd" fill="#D2EBD9" stroke="#A6A6A6" stroke-width="0.25" opacity="1" d="M 372.45146399363875,440.51955843390897 L 374.3143036942929,435.4270693096332 L 377.0550335049629,430.80501997703686 L 379.6244676206261,424.8863699194044 L 380.8021248020232,418.4747782703489 L 380.7378888502717,407.2114599128254 L 381.57295516878366,400.02587561449036 L 384.9774553384632,390.0281575359404 L 391.85069163143635,375.48181352345273 L 399.92299700155854,364.345433591865 L 406.8818811420351,364.64136415021494 L 411.39980280585587,351.0685073938221 L 417.4807968363166,337.5509801078588 L 428.57218745723367,321.5397927663289 L 433.7319939862937,309.6156724849716 L 432.63774584792554,303.4754865844734 L 426.7860369682312,302.6206420115195 L 416.00337231718004,307.3215125692077 L 410.4790889043361,310.7062169313431 L 408.7447208426893,313.4881095434539 L 403.588038219139,314.2556391423568 L 397.1612962670624,315.6284146355465 L 392.40849599428475,316.4499935414642 L 377.06166703626513,313.8751145992428 L 369.28592431917787,307.1377141759731 L 362.61412166431546,300.412872699555 L 346.4690660033375,291.39981188904494 L 335.36192193068564,281.01501653296873 L 329.5495211686939,271.7772902487777 L 324.0014615505934,264.492116890382 L 312.03567623719573,258.83301743352786 L 310.93563967756927,254.08504092413932 L 308.43896470218897,249.60508346464485 L 314.3016023822129,249.08992294268683 L 331.3365546539426,252.27632083185017 L 343.3240441791713,256.81284349039197 L 346.9674274921417,254.60646538855508 L 339.4584360104054,249.54407938336954 L 339.48019336909056,245.92238401575014 L 337.8329463098198,241.73372787749395 L 344.27703905291855,237.31974787730724 L 348.743724508211,237.34943053405732 L 359.6054516248405,241.03734011622146 L 361.23723597079515,248.28582436963916 L 365.1352921873331,249.97922404948622 L 370.16694307141006,248.3372505060397 L 375.441818151623,252.26310569467023 L 378.2069311607629,256.7324433992617 L 382.3789696637541,258.70208682352677 L 384.29227282106876,256.93983925366774 L 388.89584233239293,250.47749612946063 L 392.77140527032316,246.96432072017342 L 402.7788606155664,243.48788373358548 L 412.51199531182647,245.47582141216844 L 410.6140935663134,232.11395963048562 L 410.3563157003373,226.5488924314268 L 411.22537057474256,217.65481819491833 L 414.0549629125744,204.32137124519795 L 416.29871519468725,198.21185154886916 L 419.9265471249819,192.37877022940665 L 421.33603662624955,186.26739230332896 L 427.8227692488581,145.21911953296512 L 432.44775065779686,135.14495397126302 L 445.573276411742,115.44671620614827 L 449.5344874598086,111.65531692653894 L 459.6623401232064,108.2801367691718 L 460.43317048996687,103.75601104740053 L 459.31974899582565,97.83895550575107 L 458.9771578684449,91.80080219404772 L 461.16117680072784,85.88601018721238 L 468.35559232346714,75.69661586685106 L 469.89725279435515,72.05660538049415 L 472.6379826050252,67.89187728846446 L 478.82603637874126,65.26630708063021 L 489.6818953510374,62.921797627583146 L 487.1124612353742,58.3065570644103 L 486.02045190148056,53.008414149750024 L 486.2988070771098,47.52809739904478 L 487.8832916021347,42.439216177444905 L 483.90066865831614,45.22152387211099 L 482.4874798282981,46.51513677323237 L 482.1663005966693,44.14762160228565 L 482.4232441391796,42.622255289927125 L 483.6009013224393,41.487430702429265 L 486.08468759059906,40.206226483453065 L 484.1147881448269,37.65617540804669 L 482.87289501167834,36.92414164496586 L 481.84512136504054,37.35115941846743 L 480.7316998708993,38.33942242199555 L 478.93309612199664,38.33942242199555 L 478.6975647378713,32.06874879356474 L 481.11711505427957,30.580562265589833 L 484.71432281658053,32.41030944045633 L 487.8832916021347,36.10672399867326 L 488.6112979128957,33.032447999343276 L 489.6818953510374,18.616637078113854 L 490.6240214128047,14.922275958582759 L 492.7652162909508,10.899207302369177 L 496.8763108756393,5.41403167322278 L 500.0,2.088919720146805 L 298.81223355047405,0.0 L 296.62318263947964,7.948123330716044 L 291.7012175992131,13.103478751610965 L 285.6643321290612,17.369282675441355 L 280.0489410702139,22.564898560289294 L 276.06514044478536,29.356884598731995 L 272.47564075514674,38.20337998634204 L 269.94667533412576,47.346858710516244 L 268.94052775390446,63.517187084537 L 267.71683473326266,71.08584286086261 L 253.12769510783255,111.1619778657332 L 237.23328255675733,138.392504255753 L 117.55610740557313,154.22902007447556 L 0.0,168.83656039088964 L 47.20735654979944,221.77075916575268 L 63.686422266066074,249.5745943901129 L 80.54619244486094,268.1296631768346 L 84.46201016753912,274.0465468438342 L 92.26645213924348,294.58496447559446 L 111.92711960710585,327.2327141230926 L 117.06663009151816,338.5976640144363 L 117.71926642209291,341.64885386964306 L 118.72541400045156,350.80425859987736 L 120.08507282659411,355.1559976846911 L 129.71145772375166,373.18008179357275 L 152.09144310839474,430.4553036405705 L 161.09238488785923,443.3426736840047 L 174.8793261665851,452.7330455170013 L 217.27349000424147,470.3282462027855 L 232.42009010724723,472.18262568023056 L 300.40303429588675,472.18262568023056 L 315.46805502288043,469.2439589020796 L 372.45146399363875,440.51955843390897 z" /><path fill-rule="evenodd" fill="#D2EBD9" stroke="#A6A6A6" stroke-width="0.25" opacity="1" d="M 475.1217688731849,279.556461262051 L 479.23286345787346,277.9334090510383 L 484.3289076332003,273.59339621150866 L 488.48282627388835,268.09856695868075 L 491.23378606699407,259.8731789095327 L 490.67935319431126,256.81049932166934 L 486.7813403904438,258.19719753880054 L 484.27476011030376,258.7496184678748 L 481.76675719209015,260.4159719487652 L 474.51675361953676,266.8058233563788 L 469.50187152810395,268.74531805934384 L 462.53900942765176,269.84370287740603 L 456.97122418507934,269.5525474213064 L 457.17855385504663,277.4907733076252 L 460.09057909809053,282.0649835621007 L 464.67273671366274,282.67984874965623 L 475.1217688731849,279.556461262051 z" /><path fill-rule="evenodd" fill="#D2EBD9" stroke="#A6A6A6" stroke-width="0.25" opacity="1" d="M 478.93309612199664,354.28550330735743 L 473.9655233230442,345.04217739216983 L 465.8718060553074,334.7299379147589 L 456.19360426440835,325.87429996347055 L 446.38693057000637,321.0226484867744 L 435.01718477346003,322.24164562113583 L 428.6578353047371,330.0369915449992 L 419.47210817597806,352.0298728113994 L 408.5306013543159,371.86790030263364 L 405.53292826376855,375.4694786486216 L 400.26558812893927,378.60270573571324 L 398.2528648916632,381.77326897904277 L 403.28467337973416,385.3266674471088 L 406.34658242203295,386.95544765423983 L 412.0421612691134,390.94139218563214 L 414.9541865121573,391.7312392271124 L 415.93913636542857,393.4837857093662 L 417.4807968363166,403.95180810568854 L 413.30546629987657,405.6309786941856 L 411.10003546997905,405.9890491850674 L 408.5306013543159,405.85322888661176 L 411.1428592633456,410.360320369713 L 414.8685386646539,410.0268960245885 L 421.27071218937635,405.85322888661176 L 424.2469733841717,405.38403601711616 L 427.8870049379766,405.6556733152829 L 429.94255222938955,407.6930291131139 L 428.4437158163637,412.43504313286394 L 433.1971688643098,414.5469606076367 L 437.0941439624876,416.9554674420506 L 438.07909355312586,419.6606348701753 L 433.83952732756734,422.62547999527305 L 430.84185423702,423.0331688215956 L 427.373118115589,421.41479982063174 L 424.8679199498147,422.62547999527305 L 423.71167466416955,424.6269149938598 L 423.06931593827903,427.81465905858204 L 422.8123726584017,431.0398129094392 L 423.06931593827903,433.177748314105 L 418.4229226335883,433.1159560023807 L 416.83843837305903,434.4506948669441 L 417.9304477069527,436.6753910612315 L 421.27071218937635,439.1969116027467 L 425.0606275424361,440.79151155939326 L 428.7863069437444,441.01402059709653 L 432.3835147060454,439.8644083435647 L 435.7880148757249,437.33047188445926 L 476.77048908546567,378.775412870571 L 480.7316998708993,367.82280137669295 L 478.93309612199664,354.28550330735743 z" /><path fill-rule="evenodd" fill="#D2EBD9" stroke="#A6A6A6" stroke-width="0.25" opacity="1" d="M 406.8818811420351,443.5606292760931 L 405.19033687375486,441.9411591589451 L 402.6423149164766,438.5170693346299 L 401.4860693681985,437.33047188445926 L 394.31306573934853,433.52378680789843 L 392.3645784538239,433.177748314105 L 390.41609090566635,434.33946434780955 L 388.96007802151144,436.39111531339586 L 388.57466310076416,438.3440208011307 L 392.21469465456903,440.86568085383624 L 397.6105064302683,448.1104467608966 L 400.5225316733122,449.76734403381124 L 410.8002681341022,451.22647875221446 L 414.8685386646539,450.83077407302335 L 414.05488476902246,447.6900542685762 L 406.8818811420351,443.5606292760931 z" /></g></g></g></svg>