<svg xmlns="http://www.w3.org/2000/svg" xmlns:xlink="http://www.w3.org/1999/xlink" width="500.0" height="274.4059698600322" viewBox="0.0 0.0 500.0 274.4059698600322" preserveAspectRatio="xMinYMin meet"><g transform="matrix(1,0,0,-1,0,274.4059698600322)"><g><g><path fill-rule="evenodd" fill="#D2EBD9" stroke="#A6A6A6" stroke-width="0.25" opacity="1" d="M 500.0,147.14114828966558 L 497.4601756762713,147.97313754819334 L 495.7357519865036,147.27444828115404 L 494.3162337373942,147.51598258595914 L 494.0556091759354,147.30149699375033 L 493.5748454257846,146.33692479785532 L 492.89671550132334,145.6925040865317 L 492.4792101252824,144.6949195722118 L 492.5848516318947,143.91783465258777 L 493.4590825755149,142.5520466165617 L 492.8435784447938,141.51845750585198 L 493.00045924820006,140.2539660902694 L 491.98452952317894,138.74898039922118 L 491.2077165171504,137.93188187200576 L 490.712403325364,136.770611112006 L 489.0664200410247,136.0048655094579 L 487.881590411067,136.0883796531707 L 487.5577074624598,135.9533290574327 L 486.81505396962166,135.10910777095705 L 486.14578021876514,134.75638178735971 L 483.86847821623087,134.96514141373336 L 481.1471023187041,134.5600567040965 L 480.7030284330249,134.23754379432648 L 480.351311782375,133.66139348130673 L 478.73189701884985,129.6614302098751 L 478.4307870976627,127.63493340834975 L 477.8627267535776,125.6165563100949 L 478.84259920567274,120.22139017190784 L 478.70975658483803,117.84276716783643 L 479.75984584726393,115.87733799219131 L 479.8654873557389,113.90056969132274 L 479.62890098802745,112.66786349844187 L 478.3700590375811,112.1675014058128 L 477.65776958689094,109.8845194708556 L 474.3183592315763,109.70024072378874 L 473.89832351729274,109.3716904586181 L 473.34101711958647,108.56054225936532 L 472.14416839927435,107.5314780920744 L 471.25728578679264,107.19626272842288 L 470.52601880580187,106.27502313628793 L 468.36637740395963,105.63470123987645 L 468.12346518971026,105.75163797289133 L 468.0715933162719,105.99988676607609 L 468.48846610076725,106.8463560435921 L 468.51313686184585,107.48285534512252 L 468.26895949058235,108.01645101886243 L 467.43521392159164,108.6639266628772 L 466.8532367385924,108.70750909019262 L 465.69054755568504,108.4117438942194 L 464.4759864863008,108.82992134056985 L 462.56684830226004,108.95605941955 L 461.2485434729606,108.82992134056985 L 460.1649272646755,108.31533858831972 L 459.30271542444825,108.49286163412035 L 458.15394308045506,108.48637196328491 L 453.4917998109013,110.15891445614398 L 451.39731455408037,111.5595066472888 L 449.7886537257582,112.04419655539095 L 448.91189244389534,112.7581893261522 L 447.9478346053511,112.88391470722854 L 447.3342282231897,112.65668978635222 L 447.04956547915936,110.9347027502954 L 447.14824856072664,110.40180331468582 L 446.8939498346299,109.17869649082422 L 446.8939498346299,107.92240177746862 L 445.0999419335276,104.16334533505142 L 443.9796358477324,99.90236081462353 L 443.4950766004622,98.85082968324423 L 443.08516224101186,97.0223260037601 L 441.7864675093442,94.63871584739536 L 441.4632171392441,93.48971970565617 L 440.81545123271644,89.43887851107866 L 440.30811896175146,88.09807572700083 L 439.38644423149526,86.49624780006707 L 438.39834819734097,82.97798357531428 L 438.83862658776343,82.2819773806259 L 439.26941621117294,82.06993333250284 L 441.11023533158004,81.80020719114691 L 442.3671795222908,81.27089288737625 L 442.566443445161,80.92928914260119 L 442.5892164595425,79.59645536076277 L 442.35326268337667,78.01650065556169 L 441.99395501613617,76.77014823816717 L 441.4372812099755,75.84717234130949 L 440.65477492287755,75.70911392197013 L 440.06267640925944,76.08299196418375 L 439.0144849065691,77.25754706840962 L 438.4363032206893,77.66254916135222 L 437.8328182063997,77.72542467713356 L 434.21949901618063,76.20854623336345 L 433.3041501212865,76.84373633749783 L 432.3040349967778,77.0968494489789 L 431.9554812759161,79.04583680350333 L 431.63855674117804,79.5739567456767 L 430.73206403292716,79.74675925448537 L 429.223984034732,78.79492146056145 L 424.3537206668407,77.25395576935261 L 423.354238120839,76.6902844067663 L 422.2952926848084,76.49648442585021 L 420.7998643796891,75.89648358803242 L 419.47586628235877,76.20495876017958 L 418.881237430498,76.19419636484236 L 416.9189622029662,75.45545937493443 L 415.7992887198925,75.51012853067368 L 415.1224239524454,74.49699885677546 L 413.90406738594174,74.50505681056529 L 413.02857128717005,74.1550439465791 L 411.61284853331745,74.26155651174486 L 411.1029859241098,74.03243440110236 L 409.42537345178425,72.52209031861275 L 408.6118705570698,72.03880071546882 L 408.4258908946067,71.51646913215518 L 408.7396525107324,71.09969365317374 L 410.24646732769907,70.13829577434808 L 410.82970968075097,70.08392161503434 L 413.3435980603099,70.52345686778426 L 414.19758631661534,69.90834006480873 L 416.37367488630116,69.00596512760967 L 416.36987938918173,68.55374893732369 L 414.9541566371918,68.02968402858824 L 414.7036534193903,67.7130651557818 L 415.04524872638285,66.85176543518901 L 414.39242215268314,64.28028658684343 L 414.9162016157061,60.47954159229994 L 414.49616591259837,58.610541828908026 L 414.57207596860826,58.29688291158527 L 415.2906912788749,57.37409361731261 L 415.52727764472365,56.06707990728319 L 416.1763087231666,55.01460703462362 L 419.072277771309,47.37398080062121 L 418.8458127360791,46.29260459449142 L 418.2170243449509,45.13932525459677 L 418.40806468576193,44.87718039005995 L 419.3506146799773,44.51124641764909 L 419.5100258216262,44.280540622770786 L 419.71498300135136,43.016709415242076 L 420.06037380360067,42.16924021579325 L 419.81493125110865,41.55641087703407 L 419.3025383017957,41.357991565950215 L 418.4270421899855,41.89008441474289 L 417.9184447489679,41.91435583028942 L 416.44199394993484,40.94048317056149 L 414.85420838557184,40.141021305695176 L 414.69479725696146,39.674270800314844 L 414.92379261925817,39.24923203140497 L 416.1763087231666,38.49816860072315 L 416.99360710196197,38.270537805743515 L 417.1353058964014,37.97430433705449 L 417.0631913356483,37.632403074763715 L 415.250205906108,37.040387846529484 L 414.43543785251677,36.607379105873406 L 413.59030578285456,36.71733919531107 L 413.13231504522264,36.17196588218212 L 412.86156912893057,35.17336462903768 L 412.2138032205403,33.9954976355657 L 412.06198309734464,33.37289319653064 L 412.3352593407035,32.19964766316116 L 412.9248275272548,31.17741616256535 L 412.7489692084491,30.244039460085332 L 413.6333214826882,26.987858123145998 L 413.39673511497676,26.441167290322483 L 412.92229718901217,26.187138909474015 L 412.38713121414185,26.50436377990991 L 411.2902307547629,28.109470813535154 L 410.4957053884864,28.833774453029037 L 409.8593259938061,29.72861923929304 L 409.3431375361979,30.075632181949914 L 406.63188298232853,30.66281908005476 L 405.1073558051139,30.491772012785077 L 403.9383407868445,30.565503134392202 L 403.3171433992684,30.824889642186463 L 402.427730448544,32.61363323405385 L 402.03932394459844,33.02735448256135 L 401.07020541653037,33.48637879360467 L 400.6324573773891,33.93055383116007 L 400.26176320947707,34.88748917914927 L 400.319960931316,35.91425330191851 L 399.92143308371305,36.17196588218212 L 398.48420247621834,35.59112605731934 L 398.019885905087,35.607495402917266 L 397.5467131584883,35.7957615647465 L 396.7370057720691,35.842294870875776 L 395.7552355732769,36.248688749969006 L 394.27625444717705,36.39913382194936 L 393.1401337720454,37.16074825171381 L 391.9382243864238,37.584494173526764 L 391.12345634400845,37.669091599062085 L 390.58449486270547,37.62851850036532 L 389.6748392228037,37.16549394186586 L 388.67788701690733,37.40755261667073 L 386.2399087045342,37.234955947846174 L 384.44337045401335,37.87888865917921 L 383.53877549245954,37.51241918839514 L 383.1870588529855,37.91903989482671 L 382.3621694575995,38.11895581521094 L 381.55372723937035,38.150911399163306 L 380.4517661165446,37.793842325918376 L 379.76351483538747,38.23512347135693 L 378.74758511036634,38.3638301063329 L 377.6405632980168,37.95142104756087 L 375.81113068945706,38.21266624890268 L 375.14185693860054,38.97691901773214 L 373.09608063846827,39.4723230516538 L 371.58547031134367,39.19173772260547 L 371.0895245298743,38.712023263797164 L 370.6112911179662,38.67356935609132 L 370.048291452229,38.220439850352705 L 369.27021326497197,38.17811763100326 L 368.54400696232915,37.90522422641516 L 367.26492233760655,38.275720479898155 L 366.45141945406795,37.749810921028256 L 366.07060394249856,38.16041190829128 L 365.55061998963356,38.02007245738059 L 364.4980004001409,38.34568927343935 L 363.3871830906719,38.34568927343935 L 362.1726220212877,38.55994429253042 L 361.3717708196491,38.286949725821614 L 359.656203314662,38.65758332051337 L 358.8996329829097,38.597097870893776 L 358.57448485307395,38.42084622569382 L 358.1784873455763,37.35016101691872 L 357.75718646124005,36.83119261171669 L 357.051222845912,36.42413828894496 L 356.7361960709095,36.41077375691384 L 355.9467313699424,36.74321388266981 L 351.32760381139815,37.151256969198585 L 349.95110126398504,38.035616813227534 L 348.8579963017255,38.43466881103814 L 347.4625162463635,39.26003958284855 L 345.63940946199,39.66259393747896 L 344.3830978628248,40.6387181924656 L 343.7328016292304,41.59193978551775 L 342.5650517679751,42.15536732506007 L 341.80342075787485,42.33833112940192 L 341.16957170143723,42.86702852137387 L 340.06634539552033,43.282284072600305 L 339.08837069384754,44.05423011723906 L 339.55142210796475,43.30181432701647 L 339.5185277517885,43.06183488667011 L 339.316100910306,42.94685560185462 L 337.3879852090031,42.71303190756589 L 336.47579923272133,43.30181432701647 L 336.1051050759852,43.01280441787094 L 335.6964558865875,41.858879181556404 L 335.23846515081823,41.609704684466124 L 334.5198498517275,41.586740349419415 L 332.4209365081042,40.71057957597077 L 331.6479189861566,40.19900140911341 L 330.6939824912697,37.907814658246934 L 330.82302958890796,36.22368853259832 L 329.71094711124897,33.44553974363953 L 329.7704100012779,32.26233610883355 L 330.847067784518,30.017360179685056 L 330.8420071192086,29.719195807352662 L 330.49661630392075,29.654947428032756 L 329.7691448312253,29.953093394637108 L 328.6520016863942,30.14590568561107 L 328.50777256675065,30.359754922799766 L 328.53434107638896,31.225029261782765 L 328.0662290081382,31.5519458334893 L 326.97312404587865,31.674244245514274 L 326.0672639030963,32.17388638947159 L 323.9531685523689,31.92789846751839 L 323.1232184898108,32.0601150887087 L 322.397012187168,32.542762962169945 L 321.973180975765,33.33119893632829 L 321.30264204367995,33.870774764567614 L 319.5643015243113,34.29360315389931 L 318.2535877004266,34.36502358224243 L 316.80497059226036,35.34518624842167 L 315.9965283740312,35.6729753986001 L 314.42645516991615,35.74018285423517 L 313.7015140261501,35.4942075824365 L 310.55377658829093,36.89071187656373 L 308.6661462597549,36.51941943913698 L 307.32000774145126,35.64928149897605 L 306.9556394200772,35.6703905723989 L 306.3483588863164,36.14912254456431 L 306.01688493415713,36.047842097468674 L 305.12936973012984,36.23705064319074 L 304.21338825672865,35.27240619249642 L 303.38976402953267,35.54805005341768 L 303.1810113415122,35.44079861976206 L 302.76477114856243,34.7424290291965 L 302.0006098113954,34.28801019303501 L 301.92406716383994,33.033370323479176 L 301.73112907633185,32.83486548252404 L 300.6740814000368,32.66732602659613 L 300.21545807272196,32.38471830263734 L 300.3318535014987,31.761792990379035 L 300.884731836617,31.219881802797318 L 300.9619070608169,30.836895891465247 L 300.6785094868392,30.57922111544758 L 299.8966357912868,30.976692961528897 L 299.71065612882376,30.80002003721893 L 299.31845411658287,29.87426488380879 L 299.3526136428118,29.275962800718844 L 298.37274120375514,28.11460291966796 L 298.92561951465905,27.37883226480335 L 299.5373281352222,27.15619405452162 L 298.2468570098281,26.23708583880216 L 296.92349150404334,26.315639656037092 L 295.4052901621908,23.51227775309235 L 295.02320950478315,23.328349923714995 L 294.4747592713684,23.472253675572574 L 294.1103909499943,24.189086642116308 L 293.51006884127855,24.60586756747216 L 292.31638303771615,24.08640844002366 L 291.79197099618614,23.630655814893544 L 291.2441533524543,22.493416936136782 L 290.4344459641725,22.003915780223906 L 289.29516237415373,20.19801136199385 L 288.2773349005729,19.442754494026303 L 287.5928791295737,19.189991794526577 L 286.8628773186356,18.341390445828438 L 286.35427986457944,18.1236279765144 L 284.9904290102422,18.072371369227767 L 283.3393850494176,17.611173960380256 L 281.53652096167207,16.052472290582955 L 280.5142654031515,15.59173344168812 L 280.3554868400097,15.164144490845501 L 280.61927433125675,14.445407073944807 L 279.74757372774184,14.496065879240632 L 278.9125629886985,14.114495844580233 L 278.352093661204,14.20396673399955 L 277.6853502485901,13.779469106346369 L 277.2615190371871,13.144306123256683 L 277.0337888337672,13.234538494609296 L 276.1367848776281,12.799469915218651 L 276.36451506987214,11.843957035802305 L 276.07605682872236,10.107024313881993 L 275.00572488084435,9.393381358124316 L 274.2276467047632,9.241300204768777 L 273.7652278803289,8.5030487049371 L 272.9245238844305,8.132016258314252 L 272.58798925578594,7.751044785603881 L 272.1382221132517,6.452232159674168 L 271.891514390707,6.147252609021962 L 270.7990420088172,5.581929877400398 L 270.66493423096836,5.201865833252668 L 270.4409995339811,5.314029294066131 L 270.4530186261982,4.616964704357088 L 270.1816401425749,4.0432516830042005 L 270.3049939982593,2.6896355943754315 L 270.48654557392,2.2563376631587744 L 270.91290711052716,2.1161167826503515 L 271.133046310395,1.3302167877554893 L 270.81106111221015,0.7315826378762722 L 271.04701489955187,0.6057283887639642 L 270.97173742204905,0.39405968878418207 L 270.7117454390973,0.239084561355412 L 269.7546460144222,0.5557241402566433 L 269.1049823593348,0.0 L 266.22039981000125,1.5195478377863765 L 264.2789998613298,3.2826770078390837 L 263.3415105435997,3.6562106302008033 L 264.4390435926616,4.657119370996952 L 264.92866351641715,6.153116796165705 L 264.9324590116739,6.615649849176407 L 264.67309962026775,6.936691633425653 L 265.0602409671992,7.196613354608417 L 264.9084208291024,7.267893260344863 L 264.8894433118403,7.798868533223867 L 264.62755358219147,7.772858861833811 L 264.4580210968852,7.408789869397879 L 264.17588869296014,7.604230834171176 L 263.8735135886818,7.408789869397879 L 263.49016775004566,8.592888176441193 L 262.9499411098659,9.305154829286039 L 262.6867862101644,9.970815235748887 L 261.43173976801336,9.263144778087735 L 260.369631415233,9.706014120019972 L 248.95022703893483,9.019519078545272 L 247.9425208978355,9.282469200901687 L 247.39470325410366,9.951478322036564 L 246.3471443299204,14.755308030173182 L 245.56653580255806,18.799092480912805 L 245.14143943414092,22.953356359153986 L 239.0762250944972,23.104444324970245 L 239.13821831159294,29.7204808043316 L 239.6215123999864,30.348182810470462 L 240.2098154295236,39.50259108003229 L 236.67620181664824,37.58708378300071 L 236.46365362033248,37.611253844574094 L 233.05655679292977,44.6516070375219 L 230.05178331956267,46.66832148656249 L 228.83342674188316,47.96109550073743 L 225.78563756868243,51.772270451299846 L 225.39470071345568,51.83441594429314 L 224.95442233793437,51.66724446043372 L 219.71156704239547,48.861821063794196 L 204.79270859248936,50.22117861080915 L 190.324882440269,47.74094236269593 L 189.83020182698965,47.95542759168893 L 179.74301911890507,59.40569940581918 L 179.02313865162432,60.56606357265264 L 178.7460669130087,62.26623039226979 L 178.20837059989572,63.07667818851769 L 147.8329573608935,83.39708879310638 L 143.6060318145901,82.2819773806259 L 134.65370460040867,79.55415838304907 L 116.2657560929656,73.61907450202852 L 116.29358978383243,11.94671344384551 L 115.04739951528609,11.992198961786926 L 113.95429455302656,11.457446058280766 L 112.81690872274339,11.292442794889212 L 112.09576308541,11.012164327315986 L 110.55099323391914,10.922962068580091 L 109.8285824265331,11.248670726083219 L 109.36806133948267,11.721841423772275 L 108.87717624567449,12.824759732931852 L 107.11226720549166,14.412480148486793 L 105.54092880897224,17.215357189066708 L 103.71276137046516,19.698547654785216 L 103.5204558596015,20.32535527739674 L 103.59130526334047,21.243961606174707 L 103.17886056564748,21.943541374988854 L 101.11284157820046,23.855099830776453 L 94.465650068596,28.313063477165997 L 93.576237116009,28.636498325504363 L 92.65266463719308,28.7657292149961 L 84.88073895312846,27.321993050165474 L 79.57336012646556,25.14861345011741 L 76.95319764874876,22.958037641830742 L 72.95037718862295,18.93223093263805 L 72.92749844305217,19.25493660569191 L 73.60291871987283,21.448380661197007 L 73.39670633524656,22.444663289934397 L 72.90259355679154,23.067820731550455 L 72.939452778548,24.013315118849277 L 72.51407746970654,24.585720418021083 L 72.93347561173141,26.02785189822316 L 73.5242193005979,26.388864054344594 L 74.86509791575372,28.597992377355695 L 74.95077069476247,29.481742912903428 L 75.46181878447533,30.139481503516436 L 75.87125496380031,31.968495331704617 L 75.71285994537175,33.202265159226954 L 75.1639564409852,34.29589330032468 L 74.63995782285929,34.632679011672735 L 74.49451333098114,35.35947982594371 L 74.62501489929855,35.48563722893596 L 74.94280113093555,34.61641320493072 L 75.71285994537175,34.12110610026866 L 76.28965691290796,32.74822403304279 L 76.66621865332127,33.6212963340804 L 76.60644695349038,34.67808909807354 L 76.31954276375473,35.168238293379545 L 75.87424355372787,35.432730635628104 L 75.29445800743997,35.48563722893596 L 75.24365205317736,35.90084457024932 L 74.622026309371,36.29789004102349 L 73.35685852356255,36.76028413698077 L 71.96816255524755,36.85197277646512 L 71.51788237132132,36.63532903697342 L 71.25986783951521,36.16959711071104 L 70.93411204218864,36.30196309927851 L 70.11822824925184,37.426060990430415 L 69.66396328248084,37.77542610373348 L 68.30714554898441,37.6326750786975 L 66.77001651190221,36.90563138667494 L 66.52096773684025,37.02926058974117 L 65.80370726250112,37.88828137796372 L 65.17610433883965,38.97327446285635 L 64.8015349842608,40.183421024121344 L 64.06036582961679,41.18694096803665 L 63.62403237633407,41.33837219327688 L 63.667864959686995,42.3416566606611 L 63.321189070120454,42.87304414156824 L 62.84700019098818,42.632587912492454 L 61.95939036272466,42.59775376878679 L 61.576851442456245,42.25357403047383 L 60.98610774055123,42.49462430085987 L 59.85443011298776,42.25357403047383 L 58.726737255230546,42.25357403047383 L 58.56734603084624,42.423600766807795 L 58.61117862537503,42.808825875632465 L 59.18100222200155,44.88634642586112 L 59.203914711251855,47.434640179388225 L 58.76160407997668,48.3656203513965 L 58.69286662340164,49.05685346759856 L 58.02143111638725,49.64401440881193 L 57.883956188336015,50.170272037386894 L 57.26133425347507,50.176464926451445 L 56.75925192050636,50.785616596229374 L 55.6345476526767,53.15963047463447 L 55.24204678274691,54.28170683979988 L 55.24204678274691,54.97836502362043 L 54.779812252148986,55.499790291301906 L 54.148224556818604,56.72903930209577 L 53.648134622722864,56.9728520270437 L 53.48077384568751,59.767050724476576 L 52.67385580949485,60.56344273593277 L 51.633828116580844,61.04951004963368 L 47.32827288843691,61.85179190989584 L 46.50940051674843,62.283466211520135 L 46.017280135303736,62.84561734832823 L 45.92762257345021,63.215680555440485 L 46.01827632822096,64.81249073892832 L 45.859881307929754,66.24823533929884 L 46.01827632822096,66.57129992544651 L 46.22050393000245,66.07346037495881 L 46.39483807981014,66.29717780090868 L 46.77139983139932,67.75536444503814 L 46.91983290202916,67.87580902129412 L 47.27248595841229,67.62723297998309 L 49.2041082624346,67.24713640660048 L 50.66253789328039,67.4865173716098 L 50.79104706272483,67.21634301356971 L 52.05223006568849,67.1568584786728 L 52.3749972730875,66.89027134794742 L 52.70971882715821,67.36611978057772 L 53.7955714892596,67.29962732456625 L 54.86747742816806,66.28319399617612 L 55.40940755978227,66.21887101512402 L 55.45722492597997,65.96930903661996 L 55.24204678274691,65.86656631343067 L 55.44128580763936,65.58006079494953 L 57.105927823111415,64.8243595007807 L 58.109096294268966,65.0813177023083 L 58.92896485701203,65.98398742545396 L 59.83450620062649,66.11959799844772 L 60.02179089002311,66.11190824955702 L 59.927152352407575,65.56189491413534 L 60.278809217736125,65.45360519364476 L 61.11660930886865,65.63316292501986 L 61.936477871611714,65.24614085629582 L 62.21043152175844,65.28106449637562 L 62.376796105876565,65.49622103385627 L 62.13770928233862,65.95253398641944 L 60.725104631856084,66.97632713802159 L 59.26069782115519,66.74126544874161 L 58.92398388311267,67.05259414948523 L 58.2206701412797,68.8525072466582 L 56.5271384678781,70.19369783625007 L 55.95831106416881,70.30741732940078 L 54.99299800954759,71.06166429352015 L 54.891386112198234,71.34693833440542 L 54.92924152687192,72.09001878276467 L 55.226107666268945,72.30172615777701 L 55.27790980041027,72.60494720935822 L 54.792762791737914,72.87729188986123 L 54.8535306956619,73.3377032103017 L 55.456228733062744,73.63208414055407 L 56.1495805233717,73.65251093823463 L 56.66361719183624,74.2612817408517 L 57.7574394159019,74.84080675244331 L 58.42588633298874,74.15556556172669 L 58.69286662340164,74.13090006634593 L 58.71677530556917,74.6884899707511 L 58.3312477953732,75.45524778123945 L 58.50956671498716,76.0354720056057 L 58.34320214390755,76.50936236605048 L 59.13716963864863,78.16870821546763 L 60.214056542143226,79.47863928880543 L 60.44019282795489,80.47818881832063 L 60.942275159060955,79.73658199142665 L 61.39753631874919,79.5154841253534 L 62.00720772705972,79.51902696024626 L 62.609905764460564,79.68980715051293 L 63.5254090577364,80.47109624464065 L 63.919902324676514,80.51507103815675 L 64.63417420722544,81.65200408920646 L 65.05257615633309,80.74845394864678 L 66.10455818474293,80.56968761514872 L 66.85967407375574,80.08391915541142 L 67.70046273060143,80.56968761514872 L 68.74447520636022,80.3313829479739 L 72.52702800929546,80.81727344729006 L 73.05003043450415,80.66332306619734 L 73.94959460943937,80.80804994236678 L 76.59250022098422,79.74437801167369 L 77.8158278092742,79.54949595686048 L 78.72834252379835,79.13222352229059 L 79.86101635731757,79.26184953097254 L 81.15905857086182,78.90488788858056 L 82.5039219558239,79.61752313841134 L 82.83864350989461,79.49989574961364 L 83.03190536797047,79.65720781404525 L 83.08868848904967,79.97474285867065 L 82.86454459093511,80.12504063546658 L 81.58343768678606,80.373933121562 L 81.20587974227965,80.76051475480199 L 80.27045253664255,80.98047293163836 L 78.31292916461825,81.89418005105108 L 77.99912770278752,82.29699173569679 L 76.8375642132014,82.69143816176802 L 76.63234801962972,82.84499522857368 L 76.55265242047608,83.3442214820534 L 76.72001319751143,84.83131365664303 L 77.29083298705518,85.24744791351259 L 78.10472438298166,87.03441423177719 L 78.85386310517788,87.58364271186292 L 79.86101635731757,89.51589122787118 L 80.32424706965685,90.05075926333666 L 80.83529515936971,91.25976719148457 L 80.8422685302794,92.2405442064628 L 81.28358295746148,93.18638285063207 L 81.75279084965587,95.9797081919387 L 81.75279084965587,97.20982076507062 L 81.404122563079,98.13668036088347 L 80.23259712196887,99.50332209467888 L 81.08334774151444,99.01744095049798 L 80.75759194418788,99.58794241491705 L 80.83429896645248,100.24201072659343 L 80.05228581652045,99.64146678894758 L 79.81419518589973,99.74635420553386 L 79.79227888770401,100.10595122445375 L 80.32424706965685,101.33624895196408 L 80.49758502654731,100.8320646956563 L 80.91000979579985,100.97112372796983 L 81.15905857086182,102.18801990617067 L 81.27461720071733,101.82764720544219 L 81.57746050693095,102.43027760926634 L 82.28874381445348,102.57246914785355 L 82.37740518338978,103.49504680000246 L 82.13732216693461,103.90544563811272 L 81.12917272001505,104.24915294907987 L 80.85621526278555,106.32344651874155 L 80.57329584471881,107.0229189619422 L 80.469691561535,107.13225754816085 L 79.73848435468972,107.07904454413801 L 78.85386310517788,108.190569229424 L 77.17427816428244,107.9461276428774 L 75.11813147366047,108.0570307392627 L 74.58915186859667,108.2759560327977 L 74.16576894558966,108.75338638853282 L 73.17355862818658,108.9746617693454 L 72.82289795577526,108.77748322021216 L 72.72527083009481,107.94904597382993 L 71.96517396531999,107.04624347481877 L 70.80261428281665,106.62503157369792 L 70.46988512575626,106.60317440610379 L 69.90404629893601,106.86986584961414 L 69.83132405951619,106.47786955535412 L 70.3393835593015,106.23459166940302 L 70.59042472951114,105.550247608684 L 68.97061149030924,105.59828139189631 L 68.47151774913073,105.90764742903411 L 68.41772320494056,106.2899429043755 L 67.59287366457283,106.99157753866166 L 67.82399092428386,107.82356545422226 L 67.58091931790113,107.89505816437304 L 67.11171142570674,106.90630485117435 L 66.87561319209635,106.80136425793171 L 65.80370726250112,107.07904454413801 L 66.31375914812088,107.71268932614475 L 66.05076364055276,107.79876309633255 L 65.21794453635812,107.3232654556632 L 64.45784767344594,107.64121017791331 L 63.62403237633407,108.5693942643702 L 63.87208495847881,109.33406919147819 L 63.67782690934837,109.97797912824899 L 63.37299120426178,110.02915965300053 L 63.133904380723834,109.82957105524838 L 62.83106107264757,108.75338638853282 L 62.601936198771,108.72490910906345 L 61.80498011223972,109.90486881881952 L 58.455772183835506,110.80378175713122 L 57.953689850866795,111.12654300965369 L 56.60882646590471,110.39920311141759 L 54.99299800954759,110.02915965300053 L 54.194049537181854,109.29388483799994 L 53.73978457041085,109.61394510231912 L 53.47280428186059,109.61394510231912 L 53.370196191594005,109.13170331344008 L 52.17575826123357,107.27077095583081 L 52.05223006568849,107.57848799135536 L 52.330168498679996,108.14751380868256 L 52.31721795909107,108.49931130558252 L 51.41267280653119,107.74624257814139 L 51.08392842113972,107.66746720485389 L 50.651579750701785,107.79876309633255 L 50.54000590369105,106.5893317880109 L 50.0767751801759,105.89017468784004 L 49.86259322986007,105.98991913255304 L 50.22022727318108,106.58058918919414 L 50.187352834269404,106.77294482011348 L 49.9094144012779,106.84508812520653 L 49.264876168221235,106.50846575479954 L 48.37627013400197,107.10164147987962 L 47.80644653737545,105.68853319995105 L 47.607207514345646,105.48911714646965 L 47.691884100437164,106.34456895943731 L 47.27248595841229,105.61138193774968 L 46.76641884446144,105.40543293673545 L 45.93758452311158,104.0485815545544 L 45.71941780485213,104.08709384407848 L 45.84194979444146,104.67441524378955 L 45.71941780485213,104.7573087438941 L 45.176491467282176,104.46067019924521 L 44.08167304843664,103.2946322998032 L 43.526792377233505,102.42737596668303 L 42.653129268437624,102.32002105098218 L 41.66988471150398,101.37102998420596 L 41.14787846617401,101.45798805356026 L 40.97354432940483,101.29277442861348 L 40.87492100894451,100.74009392224252 L 40.56211575306952,100.86175790801644 L 40.31107458099723,101.2145252134651 L 40.183561615645885,101.14859791193157 L 40.14172141812742,100.58441535010934 L 39.47028592415154,101.09281679522246 L 39.47028592415154,100.36361200269312 L 38.49002994410694,101.49494759552181 L 38.54183207824826,100.36361200269312 L 38.31270721554756,100.50115570612252 L 37.956069365143776,100.00030121020973 L 37.69805483147502,100.6322023877874 L 36.754658073186874,101.09933650121093 L 36.61120597831905,101.70078741200268 L 36.65105377882719,100.85017019603401 L 37.0395698659122,100.00030121020973 L 36.90209495089948,100.01332593336701 L 36.46078051254153,100.1913480265066 L 36.52752558514476,100.60686047747731 L 36.120081789791584,100.99719951208681 L 36.02743564918637,100.72778355423361 L 35.63692716509104,100.80382075812668 L 34.82303576916456,101.23191337194294 L 34.60686143487692,101.57974248658866 L 34.70050376653671,101.12541576381773 L 35.50343702174723,100.20220410078764 L 35.69470648095012,99.63568022474647 L 34.94855634868145,99.74635420553386 L 34.515211476013064,100.44324018992484 L 34.273136073723435,100.4736453993246 L 34.273136073723435,100.36361200269312 L 34.47635986842215,100.16312282439321 L 34.5849451366812,99.42449444159865 L 35.359984926879406,98.77459182962775 L 35.41577185690403,98.23273754771799 L 35.359984926879406,98.04857614450157 L 34.855910209938884,98.42777015920728 L 34.12868778593838,99.3818289404735 L 33.60369296371937,99.50332209467888 L 33.845768366009,99.28421156294644 L 33.99519764073193,98.67270008847117 L 34.44049685075879,98.1807354921475 L 34.273136073723435,98.04857614450157 L 33.13249267451465,98.48917744774371 L 32.92827268689871,98.41115474607795 L 33.05279707536101,98.11645900830626 L 33.511046811938286,97.8947740169242 L 33.64936792105436,96.96475624199957 L 31.274947533383965,98.3309964761138 L 29.608721561729908,99.70390588138252 L 28.661110889166594,99.65200193971395 L 27.258039832115173,100.91824260819703 L 25.644950915127993,101.05760743096471 L 25.230608457699418,101.23011648189276 L 25.51969929970801,101.64610503427684 L 25.322333125397563,101.78787657804787 L 25.116110775619745,102.48138424102217 L 24.198864134028554,102.88454772066325 L 24.818796349689364,104.16611413285136 L 25.4425240624696,104.68679054453969 L 26.195298885926604,104.84194007515907 L 26.91011868789792,104.62030553910881 L 27.680605873465538,103.41559843253344 L 27.980450624600053,103.27773684449494 L 29.85163377597928,103.63003772962838 L 30.94600390829146,104.8183890003711 L 27.163152245804667,110.76787845883518 L 25.05538272857666,116.34553045034409 L 23.98378561064601,116.68864385876805 L 23.659902662038803,116.98838491737843 L 20.7620358671993,121.83521247375757 L 20.00483294390142,122.4841454057023 L 19.172352543100715,122.8699537916109 L 14.340044209733605,122.79513234551996 L 11.432056069374084,124.07591235172004 L 11.14612815529108,123.63921655993909 L 11.074013583362103,121.6988989757374 L 10.967739498242736,121.34363590739667 L 10.789350828155875,121.29853265173733 L 8.52217016927898,122.88501293584704 L 7.90223796479404,123.56857273355126 L 7.918685143813491,124.007120561786 L 8.328599503263831,124.72685476951301 L 6.928058771416545,126.82177194859833 L 8.064179433509707,127.57250315323472 L 8.56771620735526,128.02190392836928 L 8.737248692661524,128.388205668889 L 8.515844322741032,128.61544106621295 L 7.849100910127163,128.69025136623532 L 7.654265074059367,128.9270319668576 L 7.812411045655608,129.89276579860598 L 7.307609112933278,130.83386351820081 L 7.759274002164602,131.50326070468873 L 7.597332522273064,131.94123782310635 L 0.0,134.614852049388 L 3.3729373030364513,143.9467109553516 L 3.6689865719527006,144.35588821489364 L 5.530048366636038,145.62403651420027 L 6.64213084615767,147.3575289985165 L 6.876186884939671,148.35797958355397 L 6.737018430605531,149.3159434646368 L 6.132268235087395,150.1179109243676 L 4.314222140237689,151.50750076770782 L 3.6335618756711483,151.77440900728106 L 5.161251971498132,160.9828025167808 L 5.43895628862083,161.76162310037762 L 5.879234679043293,162.19447793252766 L 8.557594865560532,163.39301051013172 L 10.165623115375638,165.25187014602125 L 10.408535340800881,165.7888767309487 L 10.397148828953505,166.48203200660646 L 9.729140235111117,167.42055156920105 L 9.631722310557961,167.9538943665102 L 10.33199268206954,168.93052140902728 L 9.994825473055243,169.65872922632843 L 10.128300672397017,170.0309729706496 L 11.187878673896194,170.5747615583241 L 11.759101947769523,171.72481866832823 L 12.647882295772433,172.7571407724172 L 13.203923547640443,173.0581242935732 L 13.722642332315445,173.0601113177836 L 14.832827050238848,171.78533601295203 L 15.55650302581489,171.28445284999907 L 15.891772486269474,170.70060223154724 L 16.280178990215063,170.5113523658365 L 18.54482933320105,167.8669579969719 L 18.77762020379305,167.10859163384885 L 19.540516370907426,166.4050983628258 L 19.80746676772833,165.89533016085625 L 20.37046643346548,163.7086227182299 L 21.0814907271415,162.9713806407526 L 21.55719381198287,161.82639111112803 L 22.33527199923992,161.86368384491652 L 23.028583945706487,161.24168211966753 L 23.89016319438815,160.78084867447615 L 24.492383062839508,161.4162709545344 L 26.994884930551052,162.40950900129974 L 28.232219012454152,163.13057471625507 L 29.469553107395768,164.7772020213306 L 29.32785431481898,165.72875574231148 L 29.055210661143064,166.25223666708916 L 28.210711169987917,166.52346046175808 L 28.286621237173676,167.69903616048396 L 27.550293592736125,169.46672672778368 L 27.212493792176247,170.79276429396123 L 26.88355016708374,173.5560087254271 L 26.870898485183716,175.5024601239711 L 26.56599305383861,175.9269342366606 L 25.641155406832695,176.22199096065015 L 25.584222856909037,176.60191804915667 L 25.776528365910053,176.85429354850203 L 26.08016862720251,176.82137101050466 L 27.681238451972604,175.84919878840446 L 28.252461712807417,175.7156687900424 L 28.79332092963159,175.82029883097857 L 31.024444302543998,177.50700478535146 L 32.632472552359104,179.40793268755078 L 34.341714235022664,179.83424005750567 L 35.39117090590298,180.28077712655067 L 35.86877175047994,180.6974767986685 L 36.05601657181978,181.35296520683914 L 35.83271446451545,181.9637788804248 L 35.12105758115649,182.94957394246012 L 35.676466228440404,184.30956833809614 L 35.895340260118246,185.3095113383606 L 36.212897373363376,185.83181469328701 L 36.50135562568903,185.90638219751418 L 37.476167410612106,185.60663814470172 L 40.40566340647638,185.63383768126369 L 41.18627192080021,186.57978455070406 L 42.94928322546184,188.1255739433691 L 43.46230875328183,188.38321126066148 L 45.649783845990896,188.831979454495 L 47.09334029071033,189.56625906284899 L 47.38179852999747,189.94121572189033 L 47.242630088701844,190.90994547400624 L 47.71580283343792,191.40002544317394 L 47.5121108237654,191.7199634294957 L 48.71022470109165,191.98624287638813 L 48.97337960265577,192.51345566567034 L 49.45540853403509,192.63172784168273 L 49.5642129573971,192.83480661083013 L 49.54143994487822,194.71343455370516 L 50.15757665410638,195.1633445871994 L 50.23095638304949,196.0872850967571 L 50.93565483018756,195.71025919355452 L 51.60809151083231,195.61144354660064 L 51.17350637726486,194.922075108625 L 51.32279617525637,194.7515968736261 L 51.923750875517726,194.74956150632352 L 52.46650785394013,194.97093456517905 L 52.78912563249469,195.33797465916723 L 52.83593684062362,195.9033377468586 L 52.25902033597231,197.5428727939725 L 52.21980013139546,198.20157305244356 L 52.499402210116386,198.53825939819217 L 53.38375448435545,198.2638938743621 L 54.13652932085097,197.11013110168278 L 54.438904425129294,196.96320985537022 L 57.42976104654372,196.76174257323146 L 58.214165069162846,197.0774798290804 L 58.88217366300523,196.23661089222878 L 59.904429234564304,195.97467017453164 L 60.01702915690839,195.13636395987123 L 59.74565067328513,194.63253579381853 L 58.30968523398042,194.2825675494969 L 58.24705943837762,194.12899095378816 L 59.075744330883026,192.86527239345014 L 59.99678648263216,192.77590903732926 L 61.005125189200044,192.93687106575817 L 61.65542143583298,193.27920183446258 L 62.20450426265597,194.10305843222886 L 62.50434901379049,194.10966861527413 L 62.9471577424556,193.7904018284753 L 62.99523410759866,193.04961244482547 L 63.27610135637224,192.46422248799354 L 63.83846844173968,192.5205617081374 L 64.92777790874243,193.2822498716414 L 64.71269937418401,195.25956511031836 L 65.99115142039955,196.83263347949833 L 66.67181168310344,196.93515472486615 L 68.02427603676915,196.42470514774323 L 68.71632281504571,196.54910357110202 L 69.40457408316433,197.68172113690525 L 69.72402895614505,197.86297108605504 L 70.75324293971062,197.84254672937095 L 71.0151326842606,198.06264389958233 L 71.17011573724449,198.66141919232905 L 71.36052347533405,198.8377563431859 L 71.69199742749333,198.62360068410635 L 72.21577690169215,196.57663671392947 L 73.03434045054018,195.00096409767866 L 73.45437615178525,193.51850469131023 L 73.78458494693041,193.00745972059667 L 74.27420487068594,192.62715909723192 L 74.63224735669792,192.77692449092865 L 75.7171287368983,192.70432321727276 L 75.77659161388874,192.54086500406265 L 76.27759806253016,193.07043562736362 L 76.71914162114263,193.16744745429605 L 77.13791215419769,193.58253284636885 L 77.6389185898006,193.16744745429605 L 78.56755174510181,193.1334159206599 L 78.39928441867232,192.77692449092865 L 79.15205925516784,192.49670593440533 L 80.288179917261,193.22078302595764 L 81.75830488093197,193.16744745429605 L 81.65329595282674,193.5164721235633 L 81.86331381089985,193.70907814335078 L 82.16568891517818,193.66841907799244 L 82.45541232451797,193.31984324473888 L 82.67681668139994,193.43618949502707 L 83.59659366309643,193.3015543948859 L 84.07356191799045,193.48242733441293 L 84.82001090608537,193.1115754796192 L 85.38427574187517,192.28101760335267 L 86.63299633562565,191.76306996960193 L 87.30480043776333,191.23122931085527 L 87.39842284284532,190.91197212412953 L 86.86578720621765,190.54116820916533 L 87.09604774974287,190.26468462031335 L 87.10616908222437,189.29159255232662 L 88.08287861384451,187.93113190680742 L 90.33361209370196,187.24208486266434 L 90.9611353147775,187.35613238997757 L 91.29007893987,187.2617645934224 L 92.00236840359867,186.6327304681763 L 92.29082664474845,185.96331966016442 L 93.44086415693164,185.51346072554588 L 93.90012006275356,183.8318793065846 L 93.85457402467728,183.50116498488933 L 94.23665469326079,183.01988558191806 L 94.93376214802265,182.53785863425583 L 95.45121577382088,181.78420296870172 L 96.7391565721482,181.4181391261518 L 97.21232931874692,181.01213212590665 L 97.93347495608032,180.79867565073073 L 98.01571085862815,180.25473975297064 L 97.24016300961375,179.15584534406662 L 97.05924402363598,177.5339616695419 L 96.72397455200553,176.27184107992798 L 96.96562159620225,175.48552510049194 L 97.4096954818815,174.8850352074951 L 98.1890388391912,174.4182618064806 L 99.31503815762699,174.7854898488149 L 100.00202426873147,175.38093363307416 L 100.35374091938138,175.94587080273777 L 100.3208465501666,176.55903116427362 L 99.89828050881624,177.96238441579044 L 100.03491863794625,179.49698032066226 L 99.74899072386324,179.98639832809567 L 100.05389614216983,180.6584030445665 L 99.88815916702151,181.42415540479124 L 98.2320545502007,182.2497695107013 L 98.7583643514663,182.73565940000117 L 98.50533078238368,183.47101469058543 L 98.60907455347478,183.70721893850714 L 99.88815916702151,184.18283038120717 L 100.47013634815812,184.10237109474838 L 102.0111107043922,183.10728050861508 L 103.02197976224124,181.9417061638087 L 104.90075391717255,181.3950770534575 L 105.09052908793092,180.96703147888184 L 105.06775606237352,180.20166591834277 L 105.3448278028518,179.70212335232645 L 108.05481718853116,177.15065005142242 L 108.57353598438203,176.88821496162564 L 109.40854671224952,177.08179088961333 L 110.04239576868713,176.99597379751503 L 110.328323693946,176.78146652784199 L 110.73444254510105,175.9099913313985 L 111.2987073790282,175.67182740289718 L 111.8667677231133,174.93182530999184 L 112.39560784958303,174.54861574806273 L 112.81564355269074,174.71680990420282 L 113.67975315265357,175.64293309114873 L 115.72932494804263,176.79443528223783 L 117.52333286218345,178.30606790445745 L 117.78269225358963,178.75285147037357 L 118.4962468855083,181.80827810801566 L 118.69867372699082,181.86947198584676 L 119.71839896030724,181.40009049419314 L 120.41930191032588,181.38705561030656 L 120.66727478988469,181.62070955336094 L 120.84819378703833,182.63323936332017 L 121.02531727589667,182.82503536902368 L 121.64777981862426,182.91843769326806 L 121.84641116298735,183.18162311147898 L 121.71356855519116,184.29649136960506 L 122.41320632398129,185.06583974324167 L 122.77630948834121,184.93396235723048 L 123.8605582639575,183.33334115426987 L 124.98402725532651,183.04399367794394 L 125.21808329597116,183.069106974639 L 125.24465181678534,183.28611490968615 L 124.88534417375922,184.61290643829852 L 125.32309222407639,185.05476532131433 L 125.8620536942035,185.20629527699202 L 126.51741060614586,184.75429786369205 L 127.14746416732669,184.65164848975837 L 128.07736247964203,184.9742282135412 L 129.10720905475318,184.86400469951332 L 129.68539072945714,185.00140867382288 L 130.68993395380676,185.59052027855068 L 131.01761239767075,185.07490073237568 L 131.2162437532097,183.98169559799135 L 132.1398162189871,183.59463729150593 L 132.89132588729262,181.65079814381897 L 133.91737695410848,180.97104033827782 L 134.52339233085513,180.8958772830665 L 134.81438091024756,181.05823732726276 L 135.32171319425106,181.89455266669393 L 135.60384561121464,182.06511959806085 L 137.23591204360127,181.63775964360684 L 137.64203090779483,181.8704752093181 L 137.8242150619626,182.44349179789424 L 137.78879036568105,185.08245163969696 L 138.2100912258029,185.9749091407284 L 138.54536069743335,186.0449530808255 L 139.1032996866852,185.7043588506058 L 139.96614410355687,185.65751204825938 L 140.55318196490407,185.15242625027895 L 141.9866170529276,185.55123418942094 L 142.15361920930445,185.12574463244528 L 142.43195610679686,184.91282350104302 L 143.09237369708717,184.71806733682752 L 143.3732409439981,184.9198697116226 L 143.77935980819166,186.0424334211275 L 144.81553221866488,186.56717884354293 L 145.52023067697883,185.76531375665218 L 145.6669901367277,185.01952944882214 L 145.9124326761812,184.8841358507052 L 147.4116565026343,184.84991314727813 L 147.93796629086137,184.6028438238427 L 148.32384247891605,184.09885115455836 L 148.3402896579355,182.91442018467933 L 147.82663152739406,182.19457130040973 L 147.7747596539557,181.57056412100792 L 148.03538421541452,180.99308936484158 L 148.88684213161469,180.99108486436307 L 149.0120937358588,180.79466755501926 L 148.95642635412514,179.78719627857208 L 149.1727700456977,179.56702392548323 L 150.1937604472041,179.66709562484175 L 150.9743689633906,178.32005778327584 L 152.37490969523787,177.4051748542115 L 155.69850546121597,177.10773723199964 L 155.96672102808952,177.0229154927656 L 156.62713860534132,176.20504252705723 L 158.63875537924469,176.49719783570617 L 159.37887853384018,175.8910554954782 L 160.17846457846463,175.50843724329025 L 160.14177470095456,175.00649533048272 L 159.8343389313668,174.86711623240262 L 159.1347011514008,174.97961342614144 L 158.8108182027936,174.6879459824413 L 158.98920684866607,174.11185444984585 L 159.68125362508,173.48245174996555 L 160.89834503270686,174.43418189603835 L 162.76446751877666,174.61927341204137 L 163.2667391244322,175.18174510728568 L 163.79937475919724,176.33166485466063 L 164.48383051902056,177.3213235028088 L 164.47750468552113,178.71486130636185 L 165.05948186665773,180.33385558333248 L 165.25431770272553,180.61031458619982 L 165.7831578310579,180.80969797633588 L 166.54225850105286,180.86982221715152 L 167.19002440944314,180.62434013932943 L 167.4177546016872,179.19885528925806 L 167.68597016856074,178.64288429822773 L 168.52730674296618,177.86549723893404 L 169.2003760151565,177.530966443941 L 174.3179796822369,176.91315800044686 L 175.5401317551732,177.11073105875403 L 182.31890072859824,179.42294009029865 L 182.70983757078648,179.8122192574665 L 182.9894396495074,180.4029624182731 L 184.3026838004589,187.66150780394673 L 184.70880266278982,188.204877958633 L 185.88793902471662,188.68438681587577 L 185.0250946059823,189.06453755870461 L 184.65566560812294,189.41095847822726 L 183.56382581591606,191.96493759471923 L 182.12406487949193,192.62969730328768 L 181.4965416714549,192.49670593440533 L 180.61598489433527,192.8439462389797 L 179.77211797982454,192.77692449092865 L 178.12360435724258,193.0821171058342 L 177.40878456644714,193.7299166349694 L 177.0861667767167,194.29579061456025 L 176.9976050388068,195.61144354660064 L 171.82812948524952,195.74438877217472 L 171.45617016032338,196.39768647681922 L 170.12394847907126,196.6245667822659 L 169.86964976601303,196.79999236017466 L 169.8810362778604,197.2116636801511 L 170.87672331556678,197.92526830825955 L 170.9108828548342,198.43044465314597 L 171.34357022680342,198.87047201767564 L 171.3954421132803,199.0299779791385 L 171.05637714453042,199.4498398695141 L 168.88281888887286,199.9917075689882 L 167.21279742196202,201.10256717726588 L 166.96482453122735,200.60048596002162 L 166.65232809633017,200.4263605652377 L 166.26645193248987,200.5036885207519 L 166.01341837458313,200.7521051801741 L 165.3479401189834,202.36106184870005 L 165.56175347231328,203.16046735458076 L 168.0047924630344,203.16509028337896 L 169.77855768799782,205.09288868587464 L 170.73502452299,205.88960169721395 L 171.72312056832016,206.3297223187983 L 173.75118450820446,206.1838502259925 L 174.37111672572792,206.6875454634428 L 175.08593652769923,207.7066359752789 L 176.49912892840803,208.3878860026598 L 178.25265148095787,209.99520870298147 L 177.2911239694804,211.3379119504243 L 176.98621852509677,213.07733470387757 L 175.49838122539222,213.74765530787408 L 175.35415209271014,215.8794304681942 L 174.39135941118002,215.84868717752397 L 173.7562451865524,216.77562487963587 L 174.04470343887806,218.04352974891663 L 175.67170920595527,218.7861188594252 L 176.35489980876446,219.87160245608538 L 178.47911650314927,221.83724706899375 L 177.45306543633342,222.83406205382198 L 178.84854550287127,222.97272940166295 L 179.6709045600146,223.61592773720622 L 180.09347060136497,223.6863718610257 L 181.2814631368965,223.1171978060156 L 182.04056380689144,223.1119439965114 L 183.25132938101888,223.85461949650198 L 184.79356889240444,222.52109050564468 L 185.1769147310406,222.36832108348608 L 186.03090298734605,222.88238303456455 L 186.55088694021106,222.8078017635271 L 187.7996075488627,222.97640647459775 L 188.24874209798872,222.81200338248163 L 189.0571843162179,222.16204573214054 L 189.50631889142096,222.09644667059183 L 190.43178911693394,222.4575646147132 L 190.8948405198753,222.80044904444367 L 191.15799541957676,223.2658937452361 L 191.42557840794325,224.73371185828 L 191.02388763055205,225.72644528653473 L 190.62535978481174,225.9604410547763 L 187.98685237951577,226.49823556561023 L 187.11894728429615,226.87277756724507 L 185.8955300413072,228.29168600402772 L 185.63617063686252,228.38259139936417 L 184.4633601102978,227.730607108213 L 184.05977159924805,227.67356837633997 L 183.61569768935442,227.80560814682394 L 182.41378830187023,228.76164171658456 L 181.98489642515779,228.93033752497286 L 180.2478210646659,229.05992219783366 L 179.75567080266774,229.5249983491376 L 179.4001586548984,230.52900879643857 L 179.44317435473204,231.04151960276067 L 180.22378288209438,232.33712131436914 L 180.43506589718163,233.4974718177691 L 180.6438185852021,233.71122105885297 L 181.2852586451918,233.71441171504557 L 182.09117052331567,232.61644204426557 L 182.43529615737498,232.33499754220247 L 182.8110509905964,232.32756438851357 L 184.06483226455748,233.49428193364292 L 184.5620432049036,233.7665278809145 L 184.23183440975845,235.12477248813957 L 183.92186830192804,235.4817158812657 L 182.18605810962617,235.34957650396973 L 181.6331797875464,234.57951736822724 L 181.20049240253866,234.52202985063195 L 179.48239455744624,234.94049776066095 L 179.2508688569069,235.08642310090363 L 178.94343308731914,235.69275417272002 L 178.3348873835057,235.88358529750258 L 176.62944120913744,235.99021306354553 L 176.29796725697815,236.38591617159545 L 176.59781202301383,236.88746946118772 L 177.85665396042168,236.44672746676952 L 178.28681100718677,236.82876212429255 L 178.4032064359635,237.84228604193777 L 179.07248019985855,238.031451205723 L 179.32424858585,238.7500122692436 L 180.20100985653698,239.78505605831742 L 180.2364345639944,240.2510674027726 L 179.17116328142583,240.9296410465613 L 178.804264632985,241.40699690487236 L 177.49481597915292,241.55830377154052 L 177.4189059101045,242.2486404227093 L 177.7162203360349,242.7804559012875 L 178.5449052285403,243.06959944497794 L 179.54185743629932,242.96209986601025 L 179.92140777781606,242.26260313484818 L 180.34397381916642,242.07895782683045 L 180.58562086336315,242.8148470930755 L 180.13269080407917,244.38001481443644 L 180.82220723107457,244.43169739376754 L 181.12837784178555,244.594302251935 L 181.57751239277422,245.24718253593892 L 181.897599844262,245.3161623282358 L 182.87683970481157,245.1663538487628 L 183.62202353589237,244.06029740162194 L 184.53041399270296,243.8439898667857 L 184.57216453552246,243.1867891419679 L 184.88592615164816,242.91050480213016 L 185.24396863766015,243.15775901917368 L 185.3527730628848,243.84506588056684 L 186.52052291110158,243.84506588056684 L 186.84820136800408,243.6159030618146 L 187.45042123645544,244.01617058180273 L 187.80846372246742,243.84506588056684 L 187.99950405023992,242.98252377472818 L 188.2474769409746,242.80732390005141 L 190.04970845021307,242.58488181512803 L 190.0370567664504,244.36171131581068 L 195.0572425108403,244.55445585399866 L 195.46652429178357,244.30249673407525 L 195.44058834947646,243.83968578092754 L 194.89656621217728,243.46853925846517 L 194.7377876508981,243.1943156272173 L 194.77890560217202,242.78367999196053 L 196.11239245161414,241.45850266329944 L 196.4350102301687,241.335108586587 L 196.67792244255543,241.58084106817842 L 196.51471580564976,242.5504996953532 L 197.1852547135204,243.37174454331398 L 196.89932680130005,243.8439898667857 L 196.7449763249606,244.55876349005848 L 197.11693566292524,245.11678264290094 L 197.70650384947658,245.48324550967664 L 199.27404672652483,245.69025776255876 L 199.94585081748664,245.98037380352616 L 201.0516074616462,245.63526530750096 L 202.06880235485733,245.93614910915494 L 203.28273084573448,245.7851549172774 L 203.61989805288613,245.95340724475682 L 203.80651029385626,246.30295890383422 L 203.59332951903343,247.2962831556797 L 203.76159684732556,247.6334087252617 L 204.8939220122993,247.72960003372282 L 206.75498382002115,247.3978392193094 L 208.0922661535442,248.25830284319818 L 208.91715554893017,248.3102174801752 L 210.92118131928146,249.2311386084184 L 211.35386869125068,249.1954089058563 L 212.7253105621785,248.21396155655384 L 213.232642846182,248.05283800512552 L 213.36168995685875,248.3318494837731 L 214.58384204283357,248.77542513795197 L 214.7989205662161,249.33183928672224 L 214.23022764362395,250.19639906845987 L 214.54272409155965,250.68431460484862 L 214.9178463332355,250.35358618665487 L 215.21642592921853,250.3481654888019 L 215.6351964622736,250.7775920899585 L 216.64986101724207,250.7005832158029 L 218.08709161356091,251.39065406937152 L 218.57418121024966,251.20723237935454 L 219.7824164442718,251.35157873295248 L 220.20498248562217,251.78150489460677 L 220.74773946590722,251.63708662241697 L 221.56946594454348,252.06715506780893 L 222.477223822847,251.25932452920824 L 223.30337837524712,250.9804511219263 L 225.63508260063827,252.42788283713162 L 226.45617647655308,252.08888139296323 L 227.7744813170284,250.45008074585348 L 228.1666833292693,250.4045426528901 L 228.4880359377712,250.63984867557883 L 228.9839817211032,250.489115299657 L 229.3356983475387,251.17359119374305 L 228.94855701364577,253.40434278640896 L 229.20475348830223,253.89734224695712 L 229.1547793634236,254.81661957502365 L 229.35214553773403,255.0640334766358 L 230.9101996626705,255.77288075350225 L 231.9621866606176,255.5896150721237 L 232.22534156031907,255.6703344192356 L 232.2348303142935,257.16719538811594 L 232.57263011299074,257.277570463717 L 233.76252040825784,257.12457906920463 L 235.45658007077873,256.5270805871114 L 235.83613041229546,256.6046118121594 L 236.85206013545394,258.1238858047873 L 238.147591939196,258.7564325388521 L 238.38101539947093,258.56815198250115 L 238.48855465464294,257.1781229758635 L 238.6941444259137,256.8339704051614 L 244.4361083973199,258.93380428943783 L 247.54272788204253,259.11011744476855 L 248.5403126794845,259.9363143341616 L 250.9340101107955,260.0525277778506 L 252.4174193367362,260.653580323793 L 253.82302073389292,260.7633068570867 L 254.68713033385575,261.9558414556086 L 255.0223998054862,262.09650727454573 L 255.837800424546,261.86573951970786 L 256.63422355242074,262.0349631411955 L 258.83435031585395,261.9679290028289 L 259.7617183011025,262.2668756665662 L 260.489189773798,262.9035836821422 L 261.2166612446308,264.0605449164286 L 262.0111866109073,264.45058699324727 L 262.38947178423405,264.4230358172208 L 263.5711384844035,263.86559047270566 L 265.4853373337537,264.1453694757074 L 265.70041585713625,264.3800577549264 L 265.7896101977676,264.9224005807191 L 266.16789535805583,265.24664748925716 L 266.32667390815914,265.90323753096163 L 267.17686665803194,266.20466517470777 L 267.2249430343509,266.6365652298555 L 266.24507058411837,267.2522063171491 L 265.7851820997894,267.76096962206066 L 265.98634377121925,268.3774211285636 L 265.62071029283106,268.72845483385026 L 266.664473708719,269.2325566774234 L 267.1958441734314,268.9610802633688 L 268.06501443870366,269.2547218129039 L 269.2960226982832,268.9921017922461 L 270.1133210789412,269.2935122260824 L 270.86230040714145,269.2658046176657 L 271.0204463656992,269.69149258732796 L 270.96477899700403,270.2849274966866 L 271.7327358406037,270.9320751754567 L 271.8054829798639,272.0921747004613 L 272.0287850983441,272.8096922459081 L 273.8088761586696,272.29902478214353 L 274.7488958276808,270.9998154072091 L 275.02849790640175,270.8710025344044 L 275.3340359274298,271.0486805420369 L 275.4890189692378,271.69196214247495 L 275.4156392402947,272.5126000996679 L 274.6881677675992,273.03452738933265 L 274.4996577668935,273.9300041217357 L 274.6059318650514,274.25100097898394 L 274.99813387542963,274.4059698600322 L 277.19446514360607,273.61469789315015 L 277.97254331968725,272.06215223670006 L 278.4634284377098,272.2300691725686 L 279.49200983159244,273.26164883188903 L 279.78932427056134,273.34071020875126 L 281.53652096167207,272.57156521175057 L 283.942870086059,272.2400785135105 L 285.51484105177224,271.33748619724065 L 286.85402114503086,269.609442461282 L 287.2044726256281,269.3655562028289 L 288.65308973379433,269.0818489314988 L 290.55084140598774,267.90259236469865 L 291.41937908157706,268.99985732417554 L 292.61686039343476,269.49414211604744 L 292.6858120355755,270.00978861842304 L 293.335475679487,271.1497514192015 L 293.56700139306486,271.2375039625913 L 294.80560064315796,270.8543471293524 L 295.3597441241145,271.08866319805384 L 296.08468526788056,271.70529953204095 L 296.76408036239445,271.78977453615516 L 297.97737627476454,271.3819265095517 L 297.5927652679384,270.7655237512663 L 297.5092641953379,270.4003346832469 L 297.64463714137673,270.0719089945778 L 299.68788311444223,267.33734778966755 L 299.8966357912868,266.74706062022597 L 299.649928079918,264.5156112620607 L 299.86374142207205,263.94929429888725 L 299.5145551227033,262.6923949709162 L 300.0535165928304,261.8569496041164 L 300.24961761012673,260.2762281000614 L 300.7518892157823,259.7422948759049 L 301.3667607437819,259.40259233117104 L 302.63319369778037,259.2108840653673 L 303.4163325522095,257.89199565164745 L 303.26514500565827,257.1223936723545 L 302.3681410495192,256.77061763685197 L 301.98289746418595,256.405883804895 L 301.90508963540196,255.8208853593096 L 301.9537986032665,254.06718220561743 L 302.2700905594975,253.4435112485662 L 302.2074647396803,252.7289669290185 L 302.6002993416041,252.3605065587908 L 302.50983984209597,250.65177834406495 L 301.5995516255498,250.51622367929667 L 300.6595319584012,250.94356412719935 L 300.21798839978874,250.96526216343045 L 299.93206048570573,250.79603184573352 L 299.8194605521858,250.37526942323893 L 299.8966357912868,249.64376109745353 L 300.813882432878,249.49861680623144 L 300.86638689786196,248.6650509024039 L 300.7145667616278,247.88093387987465 L 301.3692910820246,247.4442996745929 L 302.150532187894,246.12600770778954 L 302.4079938326031,246.11737687699497 L 302.84574189409614,246.42490366566926 L 304.1007883362472,248.19665825739503 L 305.72336600348353,247.78472572099417 L 306.01688493415713,246.2867728509009 L 307.19728646427393,246.69475394580513 L 307.7046187482774,246.28353568073362 L 308.09935109876096,246.26411287207156 L 308.8521259240806,246.75737125985324 L 308.9343618378043,248.39999386947602 L 309.2519189398736,249.06333017442375 L 309.5100131742656,249.17267260327935 L 312.21747222170234,248.83602876774967 L 312.64636409655213,248.48869779985398 L 313.6357253007591,246.75089338980615 L 314.316385563463,246.67748102545738 L 314.5921921469271,246.83618909027427 L 314.7490729484707,247.1709750937298 L 314.7111179139465,247.74473222438246 L 314.49856971763074,248.10906562581658 L 313.23466711491346,248.64341056067497 L 313.3004558403045,249.48886918090284 L 313.6787410117686,250.51297063566744 L 312.7488426864147,251.43190220091492 L 312.7197438273579,251.75978632923216 L 312.9462088625878,251.90856954548508 L 314.2759001906961,251.7033205712214 L 314.6794887278229,251.46338236611336 L 315.5119691155851,250.34274478256702 L 315.82952624186873,249.48886918090284 L 316.38873039744794,249.2950226292014 L 316.4937393143773,248.67262517474592 L 316.0724384430796,247.7231149021536 L 318.329497769475,246.82863092329353 L 318.1308664251119,246.29216816835105 L 317.5982307884842,246.266270942986 L 317.41098595783114,245.8671199241653 L 316.80497059226036,245.93830634187907 L 316.86822897940874,245.24071597494185 L 317.54256340675056,244.33371847122908 L 316.98082891106606,242.67299214284867 L 316.98335925117135,242.3367166146636 L 317.218680460006,242.09077010303736 L 317.99422829784453,242.03063658159226 L 318.2535877004266,242.19816175848246 L 319.2340927310288,243.5255456464365 L 320.66499747894704,242.96962440107018 L 320.9888804387301,243.11797858495265 L 320.9230917133391,243.84506588056684 L 320.449918968603,244.88620605878532 L 320.1513393614441,245.1232482790947 L 318.6533807180822,244.90775267966092 L 318.57620549201965,245.05967151094228 L 318.87351991795003,246.08609079103917 L 319.4327240753919,246.68395832460374 L 320.0589821152389,246.81567418575287 L 323.25732626765966,246.44648858066648 L 323.9493730440736,246.5393099039793 L 324.271990833804,246.17132104933262 L 324.3744694236666,244.99394447915256 L 324.94885559007525,244.70738985855132 L 325.20188914611936,243.83968578092754 L 325.4270890131593,243.56426909100264 L 329.06950704939663,242.71812529023737 L 329.23650919646025,242.77078361716121 L 329.46676973998547,243.45885929930955 L 329.9652458373457,243.38895170390606 L 330.55481402389705,242.863212027587 L 331.0001530777663,243.0846504252404 L 331.1254046931863,244.22283259406686 L 331.8427548222244,244.40477899834514 L 332.0578333456069,244.72246929816902 L 331.8629975095391,245.37868000101298 L 332.02240864932537,245.48432356119156 L 332.8662755638361,245.58243271149695 L 333.04339905269444,245.00902894791216 L 333.725324485451,245.20730610284954 L 333.01809568703175,241.38231816794723 L 332.7587363086641,241.1066075526178 L 332.423466835171,241.0358166107908 L 330.59909489378333,241.3973399149254 L 329.94500315003097,241.20207720063627 L 329.44779220968485,240.4300393331796 L 330.0183828920126,240.02070872392505 L 328.9113610778004,239.58801379986107 L 328.7127297334373,239.3299987865612 L 328.41161981225014,237.47796510439366 L 327.8878403492272,237.38183544483036 L 327.47033497318625,236.9974229419604 L 327.41213725320995,236.3251091213897 L 327.82711229100823,235.8388055274263 L 327.4817214868963,235.13862130511552 L 329.44779220968485,234.065458166413 L 328.90883075259626,232.81297596730292 L 329.6894392669201,232.2097042631358 L 331.34933939017355,233.79099161736667 L 331.7896177787334,234.85636213421822 L 332.50190724246204,234.9511484131217 L 332.65119704045355,235.8985124193132 L 333.6747177820653,235.9102410208434 L 334.3022409901023,235.60748001746833 L 335.726819915697,236.51714580971748 L 337.6106547359377,236.21630711480975 L 337.66885245777667,235.1567316101864 L 337.84091526828706,235.01185965910554 L 338.3533082306385,235.0810969118029 L 338.71135070361197,235.6682369792834 L 339.63365801237524,235.59788721706718 L 339.96639714576304,234.81802453193814 L 340.2093093600124,234.74454885162413 L 340.20045318454504,233.96225714683533 L 341.29355814680457,232.9521700013429 L 341.65413095988333,232.87141350843012 L 341.9084296859801,233.18704382237047 L 342.4929371960461,235.08535785228014 L 342.0513936486095,235.77270627580583 L 342.2677373420447,237.2248464860022 L 342.4511866644025,237.4640790456906 L 344.4463562499732,237.3754271902144 L 344.91193800233305,238.77568615879864 L 345.89623852819204,239.12342787720263 L 346.350433755666,240.48470275383443 L 346.7692043017596,240.62620059680194 L 347.77627785131335,240.59832799527794 L 349.15151523053646,239.97892927005887 L 349.48298919573426,240.00892456714064 L 354.45383339188993,243.719180226326 L 353.55682944878936,245.24071597494185 L 354.3956356719136,245.877905363217 L 355.25974527187645,246.13355976343155 L 356.52491305582225,245.97066574543715 L 356.980373442173,246.06127852015197 L 363.6326256431639,249.25495920982212 L 363.4605628326535,250.08909462578595 L 363.5503897406161,250.4121321681887 L 364.01217597164214,251.15622851904482 L 364.2500275205821,251.2658362556249 L 366.68421032465994,250.61815879493952 L 367.21558079123497,250.7558987494558 L 368.2606093864888,251.45144147705287 L 369.00958870351315,251.44384281989187 L 369.22846272215247,251.66640265099704 L 369.36130534112453,252.839861927554 L 369.6181344073266,253.13782698102295 L 370.9566819090396,253.20091307815164 L 371.81699601374567,253.65788126643747 L 372.3496316485107,253.7144751260057 L 372.5280203074217,253.51967723947018 L 372.44325406476855,253.0562569592148 L 372.2243800330907,252.84964746702462 L 371.23375366069376,252.58330300729722 L 370.5999046061188,251.88033132534474 L 370.7605809159577,251.62622906733304 L 371.59432648681104,251.2289370438084 L 371.63734217360616,250.2050707070157 L 370.9592122603208,249.0622476330027 L 370.71630003489554,248.23018372338265 L 369.51818615570664,246.79623943381011 L 368.77426750585437,246.82323226053268 L 367.21558079123497,247.42268983647227 L 366.4337071068585,247.45726584922522 L 365.99342871643603,247.2185036027804 L 367.21558079123497,244.87543295975775 L 367.44457615353167,243.83968578092754 L 367.8178006596863,243.1943156272173 L 381.1248353626579,232.4719912800938 L 384.23461777716875,228.97582221962512 L 391.6978425104171,216.08476055972278 L 398.6322271041572,203.16046735458076 L 403.85737003944814,193.27716982923448 L 409.4532071314752,181.28378575947136 L 409.9377663899213,179.95936833694577 L 410.60830532200634,179.12083876598626 L 411.02075001969934,178.84983361233026 L 411.4003003500402,178.8358355499804 L 410.53619076125324,180.5271676639095 L 410.95116578787565,180.77663136366755 L 411.5913406778127,180.1796361943707 L 412.0948774535209,180.09352509398013 L 412.56678504124284,181.22864649631083 L 413.2221419531852,181.5695612495765 L 413.6194046419114,182.00491582322866 L 414.7567904740572,182.07415051199496 L 415.2793047670275,182.35616106167436 L 415.7221134826541,182.8300567707047 L 415.9713515434414,183.50116498488933 L 416.03334476053715,184.49467795901 L 415.8764639571309,185.07490073237568 L 415.37292717024684,185.68572059459984 L 415.5133608058095,187.30011610221118 L 415.88152462244034,187.69785691052675 L 417.21880698017776,187.58376605529338 L 417.68312354013324,187.70997359976172 L 418.08924240246415,189.06706569343805 L 418.4827095847577,189.5015050591901 L 418.7053791116923,189.53792859707028 L 420.661328503862,188.66720295324922 L 421.1503158491105,189.20207849424332 L 421.43497860617936,189.1767936721444 L 421.66144362837076,187.8569014808163 L 422.8595575187355,187.1013115691021 L 423.4472279455513,186.99587217345834 L 423.97037483006716,187.46363292541355 L 424.4498734213412,187.27993089333177 L 424.3904105313122,186.29241808503866 L 423.57437732070684,184.2446883339435 L 423.2194977533072,182.78285684250295 L 423.3023662343621,182.61516644340008 L 423.8666310701519,182.4133767792955 L 424.53337449394166,182.44349179789424 L 425.9851545095444,182.91843769326806 L 427.4951322674751,182.84913826361299 L 427.68237709999084,181.50036520604044 L 428.2947183009237,180.4159831441939 L 427.80509836412966,179.53300206083804 L 427.7152714561671,179.03582841344178 L 427.86582642421126,178.61489478498697 L 428.2226037271321,178.41399543266743 L 430.8408684581518,178.5239348206669 L 431.69801963306963,179.46996494103223 L 432.6563842147589,179.09883533231914 L 433.54516458697617,179.26287387032062 L 434.16130129620433,179.16584748588502 L 434.71164928004146,178.98082596622407 L 435.9995900783688,177.98436028230935 L 436.63343913294375,177.85850576125085 L 437.2634926941246,177.99734625406563 L 437.9606001358479,178.70186502672732 L 438.3603931646794,178.55092199146748 L 438.85001308843493,178.83483568485826 L 439.2675184626132,178.64188464637846 L 439.8279877901077,178.76284914277494 L 440.65477492287755,178.09824370592833 L 443.0655521340668,179.56402195151895 L 443.37488566339016,179.97438490577042 L 443.3989238459617,181.33191004861146 L 443.7228067945689,181.7149904705584 L 444.18902112543583,181.83034756500274 L 445.16320030763745,181.5404782211408 L 446.7762892358005,181.34995731897652 L 447.3342282231897,181.5414810795337 L 447.77956727705896,182.03401380311698 L 448.3881129939109,183.50116498488933 L 449.2699349280447,183.39664827194065 L 451.034843981266,183.69113500323147 L 452.38351283967495,183.50116498488933 L 453.1717123705894,182.58303772471845 L 454.5355632249266,182.32303780689836 L 455.7969355136156,181.35597314313054 L 456.59715412557125,181.30183207057416 L 457.11524032987654,181.0802884604782 L 457.87813651002944,179.99440735951066 L 458.3576350901276,179.77618638426065 L 458.7074539810419,179.38292090129107 L 458.69733265042305,178.17317483201623 L 459.01678751036525,177.56391473766416 L 460.5577618665993,176.44833256769925 L 460.94110770337284,175.9119846019894 L 461.1637772321701,174.9826002418995 L 461.7071667890996,174.190436094068 L 461.4762736670673,172.79984855093062 L 462.24296534247696,170.98504636250436 L 462.3726450558752,169.36183518823236 L 463.03875587694347,169.04228729195893 L 463.3689646720886,168.47272093500942 L 463.82695540972054,168.44108877703547 L 464.70814476534724,169.06899442709982 L 465.8702013697475,168.04182706121355 L 467.17142644152045,167.9262318983674 L 468.12979102507234,167.0039706984535 L 468.99137028492987,166.92995369806886 L 469.57904072478414,165.9387036273256 L 470.18252576328814,166.2423755256459 L 470.4551694151014,166.21082048211247 L 471.39139356277883,165.67455167043954 L 471.90062359534204,164.7890165122226 L 471.8651988990605,164.47598440852016 L 471.0004567336291,164.21717393957078 L 470.99792638234794,162.62753719184548 L 471.25728578679264,162.38201363570988 L 472.24285148084164,161.9893126701936 L 472.5540827587247,160.5975600965321 L 473.8198831230402,158.79798272252083 L 473.94133922830224,157.2967889662832 L 474.29115811921656,156.73154412209988 L 474.77445220761,156.46319868788123 L 476.254698516801,157.10833546891809 L 477.37690233811736,156.4924689559266 L 478.0575626026839,156.606631802395 L 478.8641070611775,157.1766820186749 L 479.08045074157417,157.13567348010838 L 479.4163528047502,156.3871004069224 L 479.79590312205255,156.0652156053111 L 480.7030284330249,156.30222894717008 L 481.4595987647772,155.6137909302488 L 482.3350948654115,156.11885526776314 L 483.0676270034164,156.0496119260788 L 482.95565966144204,154.79048590548337 L 483.13721123710275,154.574307478033 L 483.5509211048484,154.6025441326201 L 484.13226569630206,155.22007172368467 L 484.6579429060221,155.42080852482468 L 485.16021452471614,155.30581802036613 L 485.9648612216115,154.23456182610244 L 486.41779129207134,154.8528170241043 L 487.1262852475047,156.50320159923285 L 487.828453367576,157.0058251377195 L 488.5913495346904,157.28409400675446 L 489.61550285480917,158.15068348590285 L 489.7072275225073,158.4429873144254 L 489.5819759070873,158.86058566346765 L 490.473919197917,159.51034275256097 L 490.71303590387106,159.5113216591999 L 491.2646490558982,160.51229926384985 L 491.6593814063817,160.4809409668669 L 492.17936535924673,160.18406999949366 L 492.9561783783138,160.27419888041914 L 493.09344908595085,159.9852299047634 L 492.86002563498914,159.13354512210935 L 493.292713008821,158.60824360977858 L 492.81068408861756,158.17121016979218 L 491.96871493570507,158.0265557980165 L 491.71631395816803,157.8262274954468 L 491.09068848378956,156.84768873918802 L 491.1318064369261,156.31198388244957 L 491.6606465764344,155.82046334911138 L 492.76260771229863,155.88091402500868 L 493.88607670366764,155.09926093928516 L 493.759559918195,153.98348351288587 L 493.94300925545394,153.66924529895186 L 495.2170332018286,152.85641904268414 L 494.87417273782194,152.1384989907965 L 494.97159066051245,151.889931358397 L 496.1899472270161,150.80129345692694 L 496.2462471872568,150.38732635974884 L 496.4847313128412,150.08884200360626 L 498.36603581905365,149.99679644405842 L 499.36298801377416,149.38371577858925 L 500.0,147.14114828966558 z" /><path fill-rule="evenodd" fill="#D2EBD9" stroke="#A6A6A6" stroke-width="0.25" opacity="1" d="M 46.29621476121247,73.87582441605628 L 46.50242714583874,74.94306957256049 L 47.37509406171739,75.1751395445317 L 47.439846735447645,74.96987123135477 L 47.105125181376934,74.27749256417155 L 47.18880557641387,73.61024906579405 L 46.83714869990945,73.00187755096704 L 46.556221690028906,72.93430373165756 L 46.34702071547508,73.07790359295905 L 46.29621476121247,73.87582441605628 z" /><path fill-rule="evenodd" fill="#D2EBD9" stroke="#A6A6A6" stroke-width="0.25" opacity="1" d="M 45.194422982633114,70.76804396044463 L 44.86169381253421,70.55596070643514 L 44.08167304843664,70.82563729397953 L 43.62242710776627,71.88679400645196 L 42.940033458173275,72.78298322297633 L 42.9410296510905,73.1504153450951 L 43.62242710776627,74.70047701988369 L 44.49907879345119,75.08837145380676 L 44.483139676973224,74.78650595806539 L 43.765879202634096,74.3754678927362 L 43.36740116588771,73.2848929008469 L 43.369393549859524,72.7358322404325 L 43.6343814432621,72.3973961174488 L 43.82365851663053,72.47759716026485 L 44.008950809016824,71.31390980817378 L 44.84077372029424,70.94294132478535 L 45.42653643526137,71.30899075511843 L 45.194422982633114,70.76804396044463 z" /><path fill-rule="evenodd" fill="#D2EBD9" stroke="#A6A6A6" stroke-width="0.25" opacity="1" d="M 52.213613675907254,71.73492995090783 L 52.42281463742256,71.36872370261699 L 51.65175963193178,71.2464506989345 L 51.702565586194396,71.63862080313265 L 51.54118197783828,71.7869548406452 L 51.51428470388055,72.1765249883756 L 50.95442305877805,72.55006507784128 L 50.797024231404066,73.13351892121136 L 51.18354793265462,72.64786997623742 L 51.40968422964215,72.59017095528543 L 51.84701387397945,72.90474163834006 L 52.103036019951105,72.49166818428785 L 52.213613675907254,71.73492995090783 z" /><path fill-rule="evenodd" fill="#D2EBD9" stroke="#A6A6A6" stroke-width="0.25" opacity="1" d="M 76.07447877153754,81.69461138639599 L 76.19202978536487,80.7441972233355 L 75.88121691346169,80.60018909070641 L 75.27951507084072,80.83146363217384 L 74.79735665023327,81.22532288357615 L 74.35006504505873,82.01990778185427 L 74.85812454298139,82.55496311746538 L 74.93682396411896,82.87841129023582 L 75.3721612226218,82.8457061946392 L 75.83140716515481,82.46541166678071 L 76.07447877153754,81.69461138639599 z" /><path fill-rule="evenodd" fill="#D2EBD9" stroke="#A6A6A6" stroke-width="0.25" opacity="1" d="M 40.93668510764837,96.71787697821856 L 41.16780237853527,95.81254482176155 L 40.92572696506977,95.01027306169271 L 40.7195145804435,94.88646248914301 L 40.25728004798293,95.54600760154426 L 39.68247547745705,97.47681556269526 L 40.050071470439434,97.48980637732893 L 40.93668510764837,96.71787697821856 z" /></g></g></g></svg>