<svg xmlns="http://www.w3.org/2000/svg" xmlns:xlink="http://www.w3.org/1999/xlink" width="382.6895594932139" height="500.0" viewBox="0.0 0.0 382.6895594932139 500.0" preserveAspectRatio="xMinYMin meet"><g transform="matrix(1,0,0,-1,0,500.0)"><g><path fill-rule="evenodd" fill="#D2EBD9" stroke="#A6A6A6" stroke-width="0.25" opacity="1" d="M 1.4283271972090006,10.149273079819977 L 1.7388330977410078,11.977679446805269 L 0.5796111170202494,11.804716851562262 L 0.20700393430888653,12.175352616701275 L 0.0,13.867988127283752 L 1.5732301026582718,17.26593851018697 L 3.850273633375764,20.68903876747936 L 6.582725716754794,23.358620214276016 L 12.213233387097716,25.731806031428277 L 14.03486810810864,28.76039698906243 L 15.608098210766912,32.22206505574286 L 17.34693130850792,34.79388091294095 L 15.815102145075798,36.85893236892298 L 17.34693130850792,37.143353052437305 L 18.17494730092585,36.74763807980344 L 19.085764661431313,34.79388091294095 L 26.744910987094045,51.40538742998615 L 27.862732281908393,60.47620883071795 L 22.56343111023307,68.20060320431367 L 28.00763518922031,72.27414509747177 L 31.837208224460483,77.93356755422428 L 36.639700159430504,91.23858320107684 L 37.26071196049452,95.25369823584333 L 37.42631521075964,103.45931302942336 L 38.37853325530887,107.69946390530095 L 43.015421940013766,114.66867253696546 L 44.63005272857845,118.43925906252116 L 43.595033057034016,122.26000682078302 L 56.82258577272296,132.4472319134511 L 63.467412769794464,139.4477974968031 L 66.32406716234982,148.4743166649714 L 66.8622775953263,152.41119387280196 L 76.57076317444444,178.91659147338942 L 74.97683247551322,181.00535208312795 L 78.9306080751121,184.4621177422814 L 81.91146503202617,197.0122565855272 L 86.19644687511027,199.77434066636488 L 86.03084388002753,203.44512736331671 L 96.07053570449352,228.08379481034353 L 97.0848550312221,234.13806758075953 L 97.58166452497244,249.0804239474237 L 96.75364878773689,252.6957876686938 L 95.18041868507862,255.63831441430375 L 94.33170235157013,258.15718112466857 L 95.69792851991951,260.57651929417625 L 98.43038085848093,261.4994187736884 L 101.78384474292397,260.9506637272425 L 104.70260067284107,259.6785945771262 L 106.2551301792264,258.29435406113043 L 107.99396353028715,258.29435406113043 L 110.45731065236032,259.6785945771262 L 116.46042525209486,259.254585086368 L 120.16579597815871,260.57651929417625 L 121.78042702004313,262.63438045652583 L 124.20237320289016,268.7340841605328 L 125.52719843201339,271.2417378020473 L 125.61000005528331,272.5143707180396 L 125.23739287257195,272.9760274118744 L 123.64346242696047,273.1257555698976 L 125.8170039895922,275.69622440682724 L 128.88066257163882,283.03468383057043 L 130.72299789078534,286.0805011764169 L 132.399729706347,286.67972027510405 L 136.62261052243412,286.74213987076655 L 137.6783307902515,288.0030445740558 L 137.55412822589278,290.7997247464955 L 136.37420564889908,292.24812339246273 L 135.00797973386943,293.1221959409304 L 134.2006643395871,294.2710218518041 L 134.13856305740774,301.7646069265902 L 138.29934259317815,315.2210065703839 L 139.4171638879925,324.75840038387105 L 138.60984849371016,328.35927038965747 L 135.00797973386943,335.11224744515494 L 134.2006643395871,339.45258768601343 L 134.2006643395871,349.9624706013128 L 135.00797973386943,352.21514234133065 L 138.60984849371016,354.84350711479783 L 139.4171638879925,356.4331715647131 L 139.56206654012203,366.1109482771717 L 140.76268971338868,375.7297097938135 L 143.86774897947907,383.8859143415466 L 149.8501632362604,389.11174755264074 L 154.19724636152387,385.5024260561913 L 158.35802589543164,391.93188091693446 L 162.20829927548766,401.7107268697582 L 165.62386469729245,408.05642111366615 L 179.72083408758044,415.82135948119685 L 184.15071858279407,421.84424642659724 L 179.53453049436212,429.29951820801944 L 179.53453049436212,431.2201649751514 L 184.2542205490172,429.96482421830297 L 204.43710616230965,435.2502226275392 L 218.03726606070995,448.248633177951 L 222.13594456762075,451.2385687432252 L 224.7441943399608,453.9775543762371 L 226.1725215371698,458.3253509043716 L 226.3795254714787,472.83170539932325 L 225.67571204341948,479.3584670461714 L 224.1024819407612,484.8301535942592 L 221.36995844356716,488.3405759385787 L 224.61078218370676,488.460725792218 L 226.84538975730538,487.8375610471703 L 228.71194432489574,486.9587647081353 L 233.1548704430461,483.3320515565574 L 238.67566579021513,481.7185689108446 L 244.4856460392475,481.5588234467432 L 251.21575855091214,482.51730991946533 L 268.6719878204167,481.255310270004 L 269.7761470936239,481.60674682678655 L 272.82572929002345,483.45985668478534 L 274.3768099248409,483.8432752727531 L 275.66499544493854,483.2841249522753 L 278.66199882142246,481.0316712479107 L 280.21307945623994,480.48855589330196 L 295.5661488380283,481.3511559856124 L 298.08994106017053,482.5013346760534 L 300.42970678023994,485.02551903855056 L 301.37612883374095,487.86951788468286 L 301.48128672502935,493.926049716305 L 302.3225508853793,496.2915225094184 L 307.60674090869725,500.0 L 311.3924293704331,497.5063092135824 L 317.3864356148988,486.5752995288931 L 322.5128886718303,481.95818850863725 L 328.53318496234715,479.88155815098435 L 334.8426653947681,480.00934639479965 L 340.99440885894,482.00611263513565 L 339.99540773406625,472.2633627075702 L 338.18143198639154,470.8262208709493 L 335.4736132584512,473.0298713184893 L 331.71421458758414,474.11579747404903 L 327.9548156633973,471.7683382355608 L 327.4290256910026,468.06394083146006 L 327.74449962191284,463.5140122687444 L 326.58776153065264,458.6616427479312 L 321.6190456934273,454.73572517186403 L 314.6523273512721,450.9540058039129 L 310.39342799037695,446.40710463467985 L 313.65332648158073,440.2501269732602 L 314.3368534203619,440.0348188756034 L 315.7564866244793,440.0348188756034 L 321.3824401181191,441.74935898790136 L 328.82236935943365,442.092280596029 L 335.7890874464065,441.5340383457951 L 339.2855912577361,440.2979736677371 L 340.9155402481556,435.0912036355585 L 343.43933247216046,431.105108524207 L 346.8569679297507,428.2355022574775 L 351.16844610869884,426.3544892235659 L 354.8489764239639,421.7641184935346 L 356.6892417091876,420.54493875429034 L 358.5557965300977,421.19834827212617 L 362.60437985137105,418.27407124312595 L 363.99772326648235,415.57319476036355 L 363.78740748018026,412.1556766796857 L 362.8935645017773,407.0979437674396 L 362.210037054494,404.9716023672372 L 360.47493017092347,401.91380061907694 L 360.26461413130164,399.3818329037167 L 360.9481410700828,396.9138009236194 L 362.210037054494,394.5256079714745 L 367.7045431174338,386.7734623346478 L 370.4123618453741,383.8053402816877 L 372.2263375930488,383.009654937312 L 374.09289216063917,383.15287650423124 L 375.74913094192743,382.75504081044346 L 377.06360599957407,380.3601996311918 L 376.53781602717936,376.358684014529 L 374.09289216063917,372.962256972678 L 372.17375877313316,368.98574254475534 L 373.383075684309,363.197029188741 L 375.03931421227753,358.7689011450857 L 381.1910579316318,352.6486770976335 L 382.6895594932139,349.3427679827437 L 375.5125253647566,341.3975941860117 L 369.6236770134419,331.4774876679294 L 358.2403223440051,321.7040517628193 L 353.2716065067798,315.39415929466486 L 351.799394229427,311.05352496914566 L 351.29989379271865,307.4434939743951 L 349.9065501242876,304.603426290676 L 345.75280890986323,302.51720517035574 L 342.25630484335124,302.34270019084215 L 336.78808857128024,304.38924375129864 L 333.86995380558074,304.64308988302946 L 328.5068954266608,301.90644193952903 L 320.04167552292347,291.1133691770956 L 309.9202170930803,282.20313571067527 L 305.92421284504235,277.2578433537856 L 302.4277090318501,271.7747372011654 L 296.98578204214573,260.70110723236576 L 297.432703403756,259.59241870604455 L 299.0626526493579,256.66253923997283 L 300.6663123574108,254.7939230329357 L 308.1588204167783,248.93556865444407 L 318.14883141964674,247.2258101874031 L 322.5391782093793,244.51100642047822 L 323.0386788994074,238.21975980466232 L 319.96280716732144,234.16883911332116 L 315.07295968569815,233.3777170367539 L 305.47729122824967,235.67203725734726 L 292.41140849515796,242.12094568414614 L 287.9947721660137,242.97564412700012 L 284.13021534867585,241.5115945204161 L 280.5811324622482,238.61539087351412 L 276.4799700677395,236.13883748371154 L 271.1694907620549,236.01224693004042 L 269.11890943720937,237.31774265505373 L 265.885300738737,241.40871835965663 L 264.2027726750821,242.3900143308565 L 255.08031511493027,236.7718003531918 L 250.66367904096842,234.8650464741513 L 245.93156827241182,233.62296247389168 L 241.85669566877186,231.92211444862187 L 239.33290344662964,228.6077560847625 L 235.9152682442218,222.08309722179547 L 227.50262716040015,214.86436760565266 L 224.0061236023903,209.6156300343573 L 222.4550429675728,206.13022629078478 L 217.80180106312037,201.8393108388409 L 215.90895670466125,199.11340269073844 L 215.54090369865298,196.55367713794112 L 216.2770099658519,191.0084608453326 L 215.59348277188838,188.07044445257634 L 214.3841656073928,186.88585309917107 L 211.07168855145574,185.62234818935394 L 210.04639763571322,184.58000205922872 L 209.07368604652584,178.0504865492694 L 212.43874242901802,175.9427546900697 L 218.06469592265785,174.88500520493835 L 224.0061236023903,171.5462687960826 L 227.63407484441996,170.53604899160564 L 232.31360628455877,168.19217296410352 L 236.57250564545393,165.01998606929556 L 238.80711321905255,161.57204727781937 L 237.9921385962516,155.90799219487235 L 234.07500295899808,151.27825481584296 L 228.84339200891554,147.8084571082145 L 224.0061236023903,145.57698732893914 L 218.03840638510883,145.65583428181708 L 212.04439988732338,143.70837518852204 L 209.15255465731025,139.6641104221344 L 212.59647965058684,133.46883709309623 L 208.54789607413113,123.73746764520183 L 200.6610454712063,117.04972115997225 L 183.52028987929225,106.78113893046975 L 179.60315398685634,102.0970281176269 L 174.52928025834262,91.90506097115576 L 170.3755387905985,87.26291576540098 L 167.35224587656558,85.3354841498658 L 163.8294527810067,83.77004106761888 L 160.2015012856573,82.74743922473863 L 156.83644515648484,82.41706870542839 L 157.39163963869214,79.38708707131445 L 155.848473360762,76.30947700049728 L 146.58947671949863,66.8736968273297 L 141.10266371443868,62.77222930593416 L 138.01633141562343,64.0026029292494 L 135.18865950591862,66.54215235821903 L 132.38379135355353,65.01222427515313 L 131.87381532602012,60.93241605395451 L 128.44378257915378,57.352364213671535 L 128.25975607708097,56.05574396206066 L 126.7875440530479,57.32093020854518 L 123.47506648860872,59.74145430885255 L 118.87440365925431,67.03579452261329 L 117.4021916333586,68.84396889200434 L 114.4314777944237,68.5059096510522 L 112.72266019321978,65.62078743195161 L 111.22415837831795,61.462675153277814 L 108.9106824491173,57.32093020854518 L 106.93896973319352,50.610629885457456 L 106.33431115187705,35.62464120332152 L 104.96725701913238,27.883613529615104 L 102.7852282654494,22.781731492374092 L 98.0531177520752,14.275532132945955 L 96.79122176766396,9.654758194927126 L 88.98323952034116,8.995833564084023 L 76.81120001897216,3.748549411073327 L 62.45713176392019,0.0 L 59.092075381428,0.47834231285378337 L 56.726020123809576,3.5760104190558195 L 54.96462370455265,7.176030575297773 L 52.4408312253654,10.258786879014224 L 49.601565070450306,12.56520336959511 L 46.81487773358822,13.844016787596047 L 43.71271646395326,13.844016787596047 L 34.30107476375997,10.72946798009798 L 32.48709901422262,10.862828927114606 L 28.885437309741974,11.796375728677958 L 27.36064621247351,11.906206893268973 L 25.704407431185246,11.27860637102276 L 22.89143055677414,9.089964788872749 L 21.787271792069077,8.619312288239598 L 1.4283271972090006,10.149273079819977 z" /></g></g></svg>