<svg xmlns="http://www.w3.org/2000/svg" xmlns:xlink="http://www.w3.org/1999/xlink" width="481.86567036807537" height="500.0" viewBox="0.0 0.0 481.86567036807537 500.0" preserveAspectRatio="xMinYMin meet"><g transform="matrix(1,0,0,-1,0,500.0)"><g><path fill-rule="evenodd" fill="#D2EBD9" stroke="#A6A6A6" stroke-width="0.25" opacity="1" d="M 0.0,304.3862125755986 L 4.6450780890882015,306.65478819422424 L 4.395584359765053,309.65862151095644 L 4.8884865418076515,311.6694414052181 L 8.11364896595478,313.5148005419178 L 9.23941321671009,315.46444948832504 L 9.96963869035244,317.71460140286945 L 10.231302741914988,319.4865841101855 L 9.80533792451024,321.8779316226719 L 10.182621099054813,322.66893874760717 L 12.750580575317144,322.9571379319532 L 13.626851096749306,323.2759984745644 L 14.253628004342318,323.91985698370263 L 14.490951292216778,324.9561785677215 L 14.101497676223516,326.44630855938885 L 12.434149600565434,329.18138555285987 L 12.123803786933422,330.420187765616 L 14.618740741163492,332.84267962619197 L 18.720173686742783,339.28887653851416 L 20.722208574414253,339.70597396907397 L 30.41595144942403,344.0979606832843 L 31.432181857526302,345.0610562750371 L 41.19894737750292,357.62583870603703 L 58.675676722079515,371.5070326856803 L 63.48907953873277,374.21988277416676 L 67.96779565885663,375.25718645984307 L 69.53169517219067,375.9323658813955 L 70.84001579135656,376.96356591547374 L 87.79950207099319,397.70861113409046 L 92.27213303372264,401.522105568205 L 97.82793176174164,404.5497722302098 L 98.68594656512141,404.84456502855755 L 101.38778076320887,405.26219116861466 L 101.09569055214524,434.0008857714711 L 101.26607647910714,435.3958611751441 L 101.74680822342634,436.5081831632415 L 102.80563522875309,437.38392437179573 L 105.78738920018077,439.0401941720629 L 107.0409427806735,440.235570787685 L 109.77320314198732,445.33392492320854 L 111.50748857855797,447.5006592005957 L 114.27626014500856,448.87451181793585 L 116.63123720884323,449.2341174642788 L 126.13025328144431,449.28329444956034 L 128.54608254879713,449.62138799903914 L 130.85846313089132,450.3467603807803 L 133.14041779190302,451.67151557689067 L 136.03697868436575,454.4994229230797 L 136.36558010056615,456.70346331456676 L 135.4406279362738,459.07053874467965 L 134.58261301741004,462.42768598452676 L 134.8199363090098,465.10865670396015 L 136.8949937224388,469.637755310745 L 140.5156949236989,484.2304161568172 L 140.59480272606015,490.38255186902825 L 141.87878234684467,490.3210264610825 L 143.1140804439783,490.53636587015353 L 145.53599499166012,491.4684895911487 L 146.46094715222716,489.4812123932643 L 148.43864104151726,490.616349388496 L 152.4183699376881,494.5449408744462 L 154.4143194295466,495.14794960198924 L 156.40418376028538,495.10487728519365 L 163.10400246083736,493.4158592231106 L 164.86871394142509,492.39140318054706 L 165.6719619370997,490.65018854732625 L 164.48534548655152,485.06398218811955 L 164.9965033866465,483.479911968112 L 166.56648817658424,482.94779955712147 L 169.0735954530537,483.36303129966836 L 173.8078905828297,486.17747780214995 L 178.4083109907806,489.77960610669106 L 180.40426048263907,490.8255375120789 L 182.29067624732852,491.43157350691035 L 184.2683702558279,491.6961398727726 L 186.5624951198697,491.72690349200275 L 188.80793857574463,492.25604141666554 L 189.3556076809764,491.98531897424255 L 190.475286655128,490.67172253807075 L 191.52802826091647,490.9855055816006 L 193.65785247832537,492.096068897401 L 196.57875436916947,492.9574660974322 L 196.73696985840797,493.7358140796423 L 196.341431196779,494.649543822743 L 196.33838849887252,495.6032880505081 L 197.9905236698687,497.51698996918276 L 198.55644825845957,498.532330785878 L 198.489511013031,500.0 L 200.49154578521848,499.71692381601315 L 201.7329291589558,498.1631134126801 L 202.408387593925,496.1078576645814 L 203.16295394673944,490.53021323343273 L 203.7045378871262,488.41070241993293 L 204.92766554281116,486.3189737825887 L 206.55241713672876,484.5503068387043 L 207.01489327847958,484.8640479882015 L 207.03923404216766,486.58043449779507 L 207.3313242532313,489.03823976719286 L 208.7735195979476,490.69633292767685 L 211.09807062149048,490.67172253807075 L 213.45304768905044,489.57657515536994 L 214.9804359972477,488.02311021182686 L 215.6193832270801,485.47615711099934 L 214.6457493007183,484.05201646347996 L 213.10010539367795,482.9724059237633 L 211.99259674176574,481.45607239042874 L 211.83438125625253,479.3000735216774 L 212.8810377046466,478.9679170741001 L 214.6457493007183,479.3677352069644 L 217.62750327587128,479.3123756713467 L 218.63156324252486,479.44154814328067 L 219.50174859911203,479.8721260537859 L 220.91351778432727,481.60370505740866 L 221.86889610812068,480.91475649457425 L 223.38411385565996,478.7956887971377 L 229.28676972165704,476.298450668226 L 231.35574185475707,474.8069377039792 L 232.19550105184317,473.8997523970902 L 232.8101075179875,473.5799353834009 L 230.08393255621195,472.0577591530746 L 228.0697272270918,470.1420404931996 L 229.15289499610662,469.1181011683075 L 230.20563672110438,466.5506643517874 L 230.86892483383417,465.3607743823668 L 231.44093481823802,464.8442422876833 L 231.6295763477683,464.3123432894936 L 231.43484953790903,463.7712267525494 L 230.86892483383417,463.2424142404925 L 229.71273453906178,461.3608741608914 L 228.95208302512765,457.97306174668483 L 229.15898015722632,454.78222294093575 L 230.86892483383417,453.51885770622175 L 233.72897452116013,452.9348316390533 L 234.8973352536559,452.30778007232584 L 235.28678886964917,450.8907970096916 L 235.29287414997816,449.52303326234687 L 237.44095396623015,440.8993403365603 L 237.197545517236,439.66707165481057 L 235.91356577724218,437.5191279904684 L 235.74317985028028,436.14560030482244 L 237.16103419661522,437.887866907171 L 238.41458789259195,438.87425730738323 L 239.662056427449,438.7329041593475 L 241.03731440752745,437.1073728686897 L 241.63975043594837,435.8321833705995 L 241.85273284465075,434.59697167587 L 241.5910686738789,433.4109523759689 L 240.58656264841557,431.942488105502 L 239.06570556387305,426.7808391433209 L 238.77970074489713,421.761232748162 L 239.92980575934052,416.81585621170234 L 242.63772512227297,411.84640609601047 L 245.6985868997872,407.92771057307255 L 246.72090246528387,405.90092015534174 L 249.72699731960893,402.0379627905786 L 248.4430175833404,398.9797437352827 L 247.28074201196432,394.748899944243 L 247.4632983803749,390.751723057474 L 249.9582353308797,387.8415345547255 L 248.67425559461117,386.87150878622197 L 247.6641103476286,385.336695581791 L 246.9825666360557,383.54409224377014 L 246.40751407295465,380.3703562313458 L 245.56471217423677,379.0260282154195 L 243.45922883599997,376.5584491881309 L 243.9034492596984,374.91346220171545 L 242.9054745733738,372.3785663340241 L 240.23406629636884,368.37699775618967 L 237.80606670305133,366.535888758488 L 236.686387732625,365.3944339429727 L 236.2117411531508,363.9154891583603 L 236.13871862739325,362.295448439545 L 235.82837269827724,360.89636277907994 L 235.09814734011889,359.68753359525 L 233.80199716240168,358.57690809259657 L 234.28272890672088,358.1964782024734 L 235.25636282935739,358.68122006603517 L 238.6823372244835,362.0254465312464 L 239.9967431202531,363.98299197433516 L 242.27869766578078,359.96979577536695 L 243.61744432523847,358.81621217832435 L 245.39432624727488,361.405674762791 L 246.6722208224237,362.01317385281436 L 246.92779983207583,363.30183148616925 L 247.40853145718575,363.71298135234974 L 248.49169922620058,363.9277624018723 L 250.46330795437098,363.98299197433516 L 252.13674131035805,363.75593749166 L 252.98867094889283,363.44910875102505 L 253.97447543218732,362.84159298962913 L 254.79597914591432,361.8168096090667 L 255.61139746382833,359.460497854976 L 256.3172820582986,358.64440403087065 L 258.16718650236726,358.34374112426303 L 262.1803840212524,359.41140908550005 L 263.9907346814871,359.2027825645637 L 265.69459407776594,356.7913660501363 L 267.29500479251146,349.35532479255926 L 270.2159065641463,346.6621644811239 L 270.92787643522024,346.533337914967 L 273.55973069369793,346.63762602966744 L 274.2199762240052,346.15299458103254 L 274.2869134657085,344.0979606832843 L 275.1996954269707,343.36184848553967 L 277.4999055713415,342.1840897554066 L 277.91978511214256,340.60765132599045 L 276.81836174055934,336.5164881175151 L 278.169278960675,337.7247902940726 L 282.97659649699926,339.025125537999 L 284.60743337124586,340.21508238394745 L 286.09222507849336,341.564550130046 L 287.71697667241096,342.46012466959655 L 289.7372672781348,342.294503550278 L 290.68656032159925,342.8404415870318 L 293.820444624871,343.6808291814523 L 294.209898121655,345.53954325499944 L 294.75148206576705,345.7113088769838 L 295.9928653202951,345.1530726276105 L 296.6257273890078,347.94431258167606 L 298.1348599791527,347.0179728232324 L 300.3681328780949,343.44772760686465 L 301.92594711109996,343.63175503129605 L 307.02535497769713,345.58861915848684 L 308.32759031653404,346.3493004866177 L 309.0882418304682,348.7050274463836 L 308.5527431666851,350.9565622645896 L 307.68255781009793,353.09775603259914 L 307.4391493573785,355.11632486095186 L 307.99898890033364,356.39254190179054 L 309.0578157901764,358.03694394475315 L 311.2028530277312,360.69386653706897 L 312.3073190972209,361.3995384959271 L 314.2302461825311,361.95794636080973 L 315.228220988065,362.87227541417815 L 315.67244140803814,363.9277624018723 L 315.84891249611974,366.3517814403167 L 316.2687921561301,367.4564351136796 L 316.97467674687505,368.03945620858576 L 320.26069137454033,370.02177681028843 L 322.2566409818828,372.1760254452238 L 323.4250017143786,374.330363752204 L 323.8813925758004,376.6873496300541 L 323.753603130579,379.45571822999045 L 323.437172036618,379.9959050993202 L 322.4331120736897,380.3642175999703 L 322.2992373481393,381.1008505374193 L 323.20593402534723,383.0100067827152 L 323.3763199560344,383.685288178036 L 323.66536758840084,387.792418934172 L 324.47774332389235,390.2544006679673 L 327.56294586509466,394.0182095486671 L 328.4939834252,396.38838644407224 L 342.5264826565981,395.6576724249171 L 341.8936204686761,391.2060714630643 L 342.62993122264743,387.9581844477216 L 344.8327780775726,385.2691649515182 L 348.62386520951986,382.46364937070757 L 352.1776290498674,380.1861995096551 L 357.10056571289897,377.7062883946346 L 359.2243046499789,373.5263124248013 L 361.6340486370027,365.13668942905497 L 363.05798837915063,353.62539887148887 L 363.69085044786334,351.3246695509879 L 364.46975756436586,349.90747019124683 L 366.47787761315703,347.0425113312667 L 367.23852912709117,345.47819867671933 L 368.1634814105928,341.7976433846634 L 368.71723567694426,340.8591423215112 L 370.1290048584342,339.08646284241695 L 370.6036514416337,338.1541427500779 L 370.6645035222173,337.3690436935285 L 370.4150099121034,335.8663468558807 L 370.51237319782376,335.1058141690446 L 370.9261676929891,334.3636918757111 L 372.66045313328505,332.6096250033006 L 373.3845934458077,331.37690585129894 L 373.7071095816791,330.2730019193841 L 373.8714103475213,327.3784270620672 L 375.8856155574322,316.0652984936023 L 375.58744018524885,313.20825817692094 L 374.705084387213,312.0924585311441 L 372.30142567679286,310.2164940831717 L 371.66247832775116,309.1988406452583 L 371.51643327996135,307.0961576437112 L 371.66247832775116,305.14680208591744 L 371.5529444850981,303.28946050582454 L 370.04989717528224,300.01627547305543 L 370.6279923208058,299.1275221237447 L 371.5894558057189,298.48395093518775 L 372.16450836881995,297.79135388636496 L 372.2527439147234,296.1855421504006 L 372.0580171048641,294.5246168881422 L 371.0722127407789,290.963904087781 L 369.5995914749801,287.52597453526687 L 367.92007283866405,284.9277477451833 L 355.01942313835025,270.47112273797393 L 346.51229647919536,263.70509925787337 L 344.91188576444983,261.77253029402345 L 344.6380511522293,261.7847809443483 L 342.5508234165609,260.65467059018556 L 342.6786128655076,260.4709149705013 L 341.8997057490051,258.3118277359754 L 341.3581219241023,257.97801850910764 L 339.9402674585581,257.7452717880951 L 339.3804279156029,257.48802656761836 L 336.4838669039309,253.80709155160002 L 338.4706887714565,253.67847719381098 L 339.6177510879934,253.4334985925816 L 342.44737485423684,253.51924091752153 L 343.8104622773826,253.11808983946685 L 345.1248681731522,251.95446063869167 L 348.62386520951986,247.26036497217137 L 350.79020062834024,246.52244853205048 L 352.25673685222864,247.73190135031473 L 353.181689016521,249.93347428378183 L 353.71718768030405,252.1259414035594 L 354.2891976647079,253.12421433092095 L 355.03159346058965,252.62813800305594 L 356.3946811184287,250.85515799652785 L 360.08840484544635,248.87401465536095 L 361.6401339173317,247.11033138574567 L 361.4758331514895,246.42446859460324 L 360.6056479103863,245.67125324194785 L 359.9971266053617,243.7117125071818 L 360.2101090140641,242.59112876455765 L 361.2689360193908,240.42656265513506 L 361.53668535128236,239.5172842037864 L 360.9464197643101,238.4426998879062 L 359.8662945777178,237.8395938851172 L 359.4494576193392,237.1170991830295 L 360.8490563631058,235.69968741049524 L 362.1147804968059,236.93341545027215 L 363.5569757260382,237.48446818988305 L 364.99917106702924,237.4416084670229 L 366.2466396018863,236.89055599621497 L 367.78011307120323,238.19166010338813 L 368.9971554465592,237.70489077526145 L 370.1350901387632,236.40379705582745 L 371.38255855441093,235.2772254475858 L 371.9545685425401,235.33845171541907 L 372.83692434057593,236.24460634810384 L 373.6949391402304,235.7731593286153 L 374.28520484641194,234.81803092674818 L 374.41907945275307,233.0302667025244 L 374.59555066004395,232.5404774484923 L 375.6665478684008,232.14864876586944 L 384.7913235798478,230.0732231636066 L 386.19396490231156,229.55284714628942 L 388.2568518742919,228.21519497665577 L 389.2548266798258,227.87849072227255 L 391.1655833236873,227.90297815413214 L 392.7842496410012,228.3009016760625 L 395.4130614362657,229.76099693076685 L 396.78831941634417,230.32729069178458 L 402.2650102265179,231.09256064496003 L 405.45366144925356,231.16602692124434 L 407.4922074228525,230.69461897201836 L 409.41513450816274,229.381430030684 L 417.0094792097807,227.57239751762245 L 417.6423413977027,227.4928134996444 L 418.69812570512295,227.85400306317024 L 419.4253084771335,227.60912866471335 L 419.9364663809538,225.83687791926786 L 420.34417559951544,225.2706254591467 L 425.57745807245374,221.05297240475193 L 427.4030216373503,218.81265187438112 L 427.69511184841394,217.21203468670137 L 426.1372974999249,212.64300273614936 L 425.58962839469314,210.15511585457716 L 425.2975382991135,207.46843059256207 L 425.6139692775905,205.07560158439446 L 426.8979491330683,203.4263765970245 L 426.9466307759285,203.98019330215175 L 428.0784801878035,204.58603124064393 L 429.5511014536023,204.98380692501087 L 430.60992845892906,204.91037115058862 L 431.75394831225276,203.85780243738554 L 432.22250973060727,202.7715941373026 L 432.60587806999683,200.07298187934794 L 432.9831611290574,199.65076041885186 L 434.21845934167504,199.15511257085018 L 434.4862086735666,198.39940998633392 L 434.23671482503414,197.76915461255703 L 433.1596323363483,197.17255941114854 L 432.89796828106046,196.62797982117627 L 432.8127752020955,193.26270265330095 L 432.93447948619723,192.4030554809142 L 434.4679529555142,190.47271476814058 L 439.11705512180924,188.0376915440429 L 440.5531650669873,186.62138193799183 L 442.6464780829847,183.67567843361758 L 444.2894853949547,184.519916376099 L 445.66474337503314,186.86915736901574 L 446.96697871759534,188.43230585753918 L 447.7276302315295,187.81744262273423 L 449.011609967798,186.3216053423239 L 450.7519806884229,184.923686109134 L 452.83920842036605,184.60556430055294 L 453.01567962765694,184.17120805673767 L 455.44367921724916,182.84062771545723 L 458.3098141849041,181.6568926385371 L 458.90616493299603,180.88609993224964 L 457.9507866129279,179.6534620017046 L 458.85748329013586,178.89186840644106 L 460.4152976386249,176.9252235663589 L 461.2550568394363,176.46645005594473 L 462.61814438179135,177.12708485557232 L 464.07555274665356,178.359675651649 L 464.94878056645393,178.71447030594572 L 464.5593269504607,176.72336289216764 L 466.38489063084126,176.3930467403261 L 467.18205346539617,174.84853441175073 L 467.7601486109197,173.18172494054306 L 468.8798277005553,172.4813714742195 L 469.79260942339897,173.38357485551387 L 470.3767898492515,175.32564725901466 L 470.7419025860727,178.83681377663743 L 474.5147339999676,177.1882550359005 L 475.04414761811495,173.0838583917357 L 474.2774108275771,168.08674502652138 L 474.1678769811988,163.74439033295494 L 476.34029768034816,154.46736305381637 L 480.3869638219476,146.31660278409254 L 481.86567036807537,144.4089868942974 L 479.3950742967427,144.81557364098262 L 478.5918261818588,143.39100170799065 L 479.1577510051429,141.14720696688164 L 480.74599127843976,139.08689215686172 L 477.64253313839436,138.98601778352167 L 479.0360467210412,137.64409663539845 L 478.4092699326575,136.66289018897805 L 477.03401194885373,135.55943134229165 L 476.18208219110966,133.83244624896906 L 476.2611899934709,129.37915848311968 L 475.73177649080753,128.12605299206916 L 474.08268401771784,129.00016814481933 L 474.1131101772189,127.11441570834722 L 474.57558619976044,125.00255422876216 L 475.39100463688374,122.979382178979 L 476.49851316586137,121.3810554209631 L 478.24496916309,120.39701715181582 L 479.48026714101434,120.63538556126878 L 480.3565377779305,120.45202515821438 L 481.0015702880919,118.23340264486615 L 481.3119161017239,115.95067613269202 L 481.2023822590709,114.62141059152782 L 479.09081364423037,111.39460478443652 L 478.3727586083114,108.65682048501913 L 477.78249302506447,107.91739183524624 L 476.63847317174077,107.40712927654386 L 476.36463855952024,107.86239329131786 L 476.35855339840055,108.75459674559534 L 475.85348077863455,110.14486685383599 L 476.4498315230012,110.73153814731631 L 476.63847317174077,111.19293418270536 L 475.2936412319541,111.43127216177527 L 475.0015511363745,111.10126583580859 L 471.95894496142864,109.45431189669762 L 471.08267444372177,108.36349248373881 L 470.5836871005595,107.29102214495651 L 469.34230372309685,103.39237192249857 L 470.30985248833895,97.81973568839021 L 470.2185743637383,95.83091861649882 L 469.52486009150743,93.75356219452806 L 466.35446459054947,87.97697901132051 L 464.6962442547083,88.63678845984396 L 462.7033373452723,88.67344487912487 L 460.7743250988424,87.7814809717238 L 459.2956185527146,85.64325407182332 L 459.01569877937436,83.59366729843896 L 459.9528213813901,76.75497958925553 L 459.7885207347572,74.21391531883273 L 460.6100243292749,72.58303567254916 L 461.7053625397384,71.02853964513633 L 462.3808210901916,68.73808144580107 L 462.3869063705206,66.94546266493853 L 461.9244301095605,66.98821629665326 L 460.9447110258043,67.68754684680607 L 459.39298183843493,67.8524554456817 L 455.79662163183093,65.00019676389638 L 455.74185470864177,63.88558405346703 L 456.58161390945315,60.23342859908007 L 456.41731314361095,58.89902906736825 L 455.75402503088117,56.45625001296867 L 455.73576943203807,55.39977111457847 L 456.3260350190103,54.03491875145119 L 458.1455134190619,52.48689258377999 L 458.85139801353216,51.62892636330798 L 459.1678289882839,50.56640435999725 L 459.68507204949856,44.4296954786405 L 459.1678289882839,19.145752220763825 L 459.86762853711843,15.764143370790407 L 459.6424756869674,12.773299995227717 L 460.48223488405347,10.389854703447782 L 460.64653553441167,9.282078434713185 L 460.2814229167998,8.113282794249244 L 459.05220998078585,5.910008106846362 L 458.89399449527264,4.713793411734514 L 459.53294184058905,3.3253503458108753 L 463.43120696395636,0.662421080400236 L 457.23900762200356,0.0 L 455.475733589381,0.25948815990705043 L 452.7158263474703,1.4223892693407834 L 451.21129354834557,1.6866869921796024 L 443.1711470782757,1.6866869921796024 L 442.1936799585819,2.061510674888268 L 441.29766846075654,3.7290149097098038 L 440.75622829794884,4.108652782393619 L 438.83962600678205,4.252819486078806 L 434.22061463072896,6.102979949908331 L 432.77357986569405,6.977614808594808 L 431.4415412954986,8.130992771009915 L 430.0903367549181,11.043339752359316 L 429.02183102443814,12.39862344507128 L 425.48569985479116,13.479982074000873 L 422.6682945750654,15.700413933605887 L 421.3506304845214,16.20506550115533 L 419.4052792340517,16.45018300099764 L 418.2409432865679,17.060576848802157 L 416.1710128560662,18.617821379681118 L 414.0675419680774,19.463743943488225 L 408.96937996149063,20.81915982661303 L 404.92534919828176,21.439197620842606 L 397.5272644907236,24.337573841097765 L 383.1958710998297,26.08241512370296 L 379.0416357591748,27.490811880328692 L 373.9913888014853,33.07656230113935 L 372.127493172884,34.01396647444926 L 369.8515279367566,34.441810835385695 L 357.7002696804702,38.85498589184135 L 344.5811272934079,48.15323160251137 L 337.8011468760669,51.942065520910546 L 321.3710739761591,57.94301907438785 L 317.7103637456894,59.90496674156748 L 309.4498079903424,66.90682160889264 L 306.38324446603656,68.8641818058677 L 302.7608661837876,70.54264500993304 L 301.5342407040298,70.7734966360731 L 299.1097388193011,71.85081331292167 L 295.4969436377287,72.40871523669921 L 292.60766572132707,73.28405217756517 L 289.84296698868275,74.57783741748426 L 287.8209516070783,76.11213107011281 L 288.28093614801764,76.44881395844277 L 288.54926048219204,76.9971292928094 L 283.3840174488723,78.42084336921107 L 279.2249904945493,80.85468567267526 L 272.4785505272448,86.68467689515091 L 270.6146548986435,87.88247773516923 L 266.5322920754552,89.82112711959053 L 262.85720724612474,92.55841131240595 L 260.7393617630005,93.35219416371547 L 258.7652614340186,94.35285362089053 L 257.2032305933535,96.45043287985027 L 258.7365124747157,96.45043287985027 L 257.18406461924314,98.59618259698618 L 254.81706089153886,99.89520894468296 L 252.20089880377054,100.88633311423473 L 249.89139299839735,102.08917149936315 L 236.14456344768405,115.0137038877001 L 235.30604987218976,116.77500448201317 L 234.0602584183216,121.0677525086794 L 233.0061271712184,123.16609453852288 L 231.76033571735024,124.37411275005434 L 229.84852503985167,125.69766198901925 L 227.7833861000836,126.76614521583542 L 225.7134556695819,127.38221478043124 L 222.3881507962942,128.05604693072382 L 221.67900789529085,128.00791585166007 L 221.52567975223064,129.15344449609984 L 222.924799349159,130.91509171260986 L 223.20270666852593,132.0510404795641 L 221.28610449656844,134.87173772987444 L 209.537332624197,141.73622752609663 L 192.42207452654839,158.19258407782763 L 176.22678551077843,171.52235050452873 L 172.03900959715247,176.26160525041632 L 171.16695556789637,176.98408236098476 L 169.12577421218157,178.17859507980756 L 168.3878823518753,179.05522699723952 L 168.052476875484,180.2449603768764 L 168.55558497458696,181.74781207134947 L 168.3878823518753,183.16399229003582 L 167.29062754660845,184.98002309526782 L 165.43631478771567,186.5215210907627 L 163.33763539418578,187.6102260320913 L 161.55519527196884,188.01969940017443 L 160.29023784399033,188.7134012968745 L 151.9626009464264,195.31839228142053 L 147.15192936360836,200.5893802572973 L 140.87026543542743,204.54049638006836 L 138.71887949854136,205.48012701713014 L 134.26277924701571,206.34749074990395 L 132.1832657121122,207.5473633913789 L 130.9518488533795,209.12313419708516 L 131.26329663023353,210.72785856865812 L 132.34617695584893,210.05319468013477 L 133.2661460377276,209.95681472914293 L 134.01362088695168,210.4387159527978 L 134.55026955530047,211.53746462531853 L 132.1880573220551,212.07720784377307 L 130.49665580689907,213.40248963749036 L 129.01128909736872,215.00732288789004 L 127.24322345480323,216.38568085781299 L 123.41481048241258,218.75691297778394 L 121.46466762199998,219.566622653394 L 119.19828549027443,219.70157528657 L 119.19828549027443,218.8147490012925 L 125.29308070987463,215.68203982757404 L 127.97632382437587,213.44586297729984 L 128.8531693443656,210.72785856865812 L 127.06593772768974,212.9350234081503 L 123.79813089594245,214.92057408450637 L 120.05117354542017,216.44351469061803 L 96.17989249899983,222.36694938025903 L 81.00040266662836,230.12273088132497 L 78.7004799619317,232.24381042690948 L 79.58211698010564,234.25408293982036 L 80.14751460775733,233.28509440086782 L 80.76082740724087,232.605365283438 L 81.61850684136152,232.14257532556076 L 82.87867289036512,231.82923003064934 L 80.91415555030107,235.0977421341231 L 80.52604352682829,237.95180716970935 L 81.70475395768881,240.60350761178415 L 84.40716316178441,243.30353992432356 L 82.72534463182092,243.30353992432356 L 81.49871927127242,242.9563861207571 L 79.58211698010564,241.6063627245603 L 76.75992020592093,247.27666367520578 L 72.87400908023119,251.43811716907658 L 68.33166171237826,254.53890148713253 L 49.75978598371148,264.6332437535748 L 28.629246085882187,272.21116579533555 L 14.484721526503563,278.50192679837346 L 11.930848971009254,281.5510691787349 L 11.830227375030518,286.26983878784813 L 12.510621197521687,288.9044129907852 L 12.707072898745537,291.56806223338936 L 11.097127005457878,294.58894574665464 L 10.665891543030739,295.17769900208805 L 8.45221595838666,295.80506566294935 L 6.118752684444189,297.2576877065003 L 4.135069370269775,298.913046563277 L 2.9898995123803616,300.1099544574972 L 0.0,304.3862125755986 z" /></g></g></svg>