<svg xmlns="http://www.w3.org/2000/svg" xmlns:xlink="http://www.w3.org/1999/xlink" width="500.0" height="493.4782519605942" viewBox="0.0 0.0 500.0 493.4782519605942" preserveAspectRatio="xMinYMin meet"><g transform="matrix(1,0,0,-1,0,493.4782519605942)"><g><path fill-rule="evenodd" fill="#D2EBD9" stroke="#A6A6A6" stroke-width="0.25" opacity="1" d="M 406.5101069584489,414.2177656167187 L 409.5039918087423,414.3875554697588 L 414.3451672550291,413.05346047692 L 418.77229497395456,410.9430150757544 L 420.65143534727395,408.58977413456887 L 420.71513490378857,403.9796733078547 L 421.9041956644505,400.99477394949645 L 424.6220486294478,399.12599154934287 L 429.2508917450905,397.8881475511007 L 436.32155594043434,394.63547243364155 L 453.26567010581493,376.6650831680745 L 460.03906916081905,374.60006382502615 L 468.25632740557194,374.3814043472521 L 474.49889573827386,371.7573373117484 L 475.5393239315599,358.2194341989234 L 477.8431289643049,355.39909660536796 L 481.05996266938746,352.9431894533336 L 483.88398169726133,349.75743310851976 L 485.43400694802403,345.7685651392676 L 487.68472895026207,337.47252663364634 L 493.4176998138428,329.66044888831675 L 495.4985562004149,324.57271787524223 L 495.6896552760154,323.13627376174554 L 495.4985562004149,319.5326129104942 L 495.7108883243054,317.8279903624207 L 496.6239169947803,316.3911432879977 L 499.3630030080676,313.6633327957243 L 500.0,312.29931128863245 L 499.246220421046,308.8645572233945 L 495.4454729631543,303.4069162188098 L 495.0632750149816,299.7028098711744 L 495.20129106007516,296.29062643134966 L 494.24579588137567,293.65803899569437 L 492.5259046033025,291.56151228258386 L 490.1902495864779,289.80613968521357 L 484.77577711455524,287.41667587449774 L 478.6606080979109,285.51468702731654 L 472.8639372680336,282.95407886756584 L 468.53235929086804,278.5150423105806 L 467.04603359661996,273.5628369823098 L 466.97171731106937,267.51145890168846 L 468.3837267216295,261.87351365899667 L 471.3139120172709,258.21179669350386 L 467.95906226709485,255.89241858851165 L 467.64056387357414,252.2053635888733 L 467.68303038179874,248.2979277833365 L 465.3686086181551,245.34250403521582 L 449.5498554557562,240.43227007240057 L 443.5833190083504,235.69207798177376 L 440.24970271624625,229.77773000346497 L 437.6486325431615,223.07954256422818 L 433.8160353060812,216.01261752145365 L 433.5187701676041,210.09336470253766 L 432.2872431036085,203.8300666953437 L 432.18107683584094,198.15252194413915 L 435.17496168613434,193.9179487437941 L 437.76541533507407,191.8860638262704 L 438.3387123607099,190.1967733502388 L 438.21131304465234,188.09111183416098 L 438.657210752368,184.7608459428884 L 440.90793254971504,180.20545717095956 L 441.3962967656553,177.87844108976424 L 440.0798368938267,175.84517578501254 L 437.7229488287121,174.66923184972256 L 432.2872431036085,173.05221332842484 L 429.7817224692553,171.92513464204967 L 405.5758450329304,156.8268867675215 L 381.68846599012613,141.0565291782841 L 368.4601664766669,135.5847109365277 L 354.87090185657144,132.639706579037 L 336.4192287437618,125.5947393802926 L 329.47596406936646,125.64384037908167 L 319.4963478334248,129.52250824775547 L 316.05656506866217,129.91524901147932 L 312.72294877655804,129.10521395178512 L 303.8049939852208,123.72881834441796 L 298.7302531618625,121.9118583118543 L 288.8143366854638,123.36052719829604 L 283.8669951763004,122.57481951080263 L 279.80083235539496,118.98969432525337 L 274.5774587560445,109.06634962651879 L 271.36062505096197,105.82315694540739 L 269.44963469542563,104.37340256059542 L 266.90164755284786,100.63802785379812 L 265.47902141325176,99.21253025252372 L 263.4937149770558,98.32769491290674 L 257.452862245962,97.44282606802881 L 253.69458129256964,95.9188065752387 L 249.38423636555672,93.288410063833 L 246.22048589587212,89.69879333442077 L 245.77458798326552,85.27247782470658 L 248.02530998550355,82.05057601584122 L 251.04042808897793,80.64854087028652 L 253.43978245556355,78.53303001029417 L 253.99184643290937,73.09577798144892 L 252.54798703826964,67.95259339082986 L 249.83013407327235,64.72829555813223 L 232.37642264552414,50.91536675859243 L 230.7626974284649,48.08282510563731 L 231.20859513618052,46.21069492865354 L 233.60794970951974,42.02248906297609 L 234.26617954298854,39.65705021331087 L 234.0113809108734,37.7103107389994 L 230.52913184463978,26.618167696055025 L 229.8284352980554,25.163470688275993 L 228.18286050856113,22.993583308998495 L 226.54790224321187,21.587979587726295 L 224.79616098105907,20.626201428472996 L 223.0868864301592,19.393094173632562 L 221.75980962254107,17.17333535477519 L 220.58136579580605,12.363127001095563 L 220.71938163600862,8.489565460942686 L 221.22897910512984,4.664711416233331 L 221.18651259876788,0.0 L 216.2391710896045,2.1720461500808597 L 191.96959409862757,4.294530393090099 L 187.659249169752,5.701185956131667 L 183.56123657152057,7.7739957752637565 L 178.2529301624745,12.338456655386835 L 175.87480884417892,13.152563219424337 L 174.09121780470014,12.856527915690094 L 170.16307123564184,10.90753344912082 L 168.10344810411334,10.562124938238412 L 159.48275845125318,11.721690403763205 L 152.32716144807637,13.96664112014696 L 146.1482928749174,17.91327862488106 L 135.05393216200173,30.611950731370598 L 122.53694571740925,40.1991511923261 L 121.24171889387071,42.21959784347564 L 120.90198745205998,44.363050303421915 L 120.79582118429244,46.50630460400134 L 120.11635809764266,48.6247295695357 L 115.16901638358831,55.64371005818248 L 109.79701021499932,60.96194689022377 L 108.37438407354057,65.958996262867 L 100.87905542366207,69.42922197375447 L 97.65160519443452,72.13613111479208 L 95.44334969855845,75.75305504538119 L 93.93579074926674,81.58324041310698 L 92.43884811922908,83.13279139529914 L 89.13708160631359,83.18198162689805 L 84.78427037596703,81.36186778591946 L 83.3404109813273,81.11589544406161 L 81.24893827736378,81.43565881578252 L 77.01290983892977,82.64088147412986 L 74.78342108987272,82.91143323853612 L 75.12315273657441,86.6250522043556 L 70.54739244654775,99.43373391218483 L 70.16519429348409,106.24086594441906 L 74.65602156892419,117.44251866778359 L 77.73483922891319,120.58587941527367 L 77.90470525622368,122.94312323909253 L 75.97248164750636,124.53903911821544 L 72.82996422611177,125.42288424400613 L 68.26482066698372,125.42288424400613 L 65.71683352440596,124.80910656694323 L 63.81645989790559,125.5701887239702 L 61.27908948622644,129.52250824775547 L 59.898929646238685,132.8605947527103 L 57.11737712658942,144.12313486961648 L 54.18719203583896,148.90624030446634 L 44.33497532084584,157.26820671046153 L 40.40682854689658,161.90156563092023 L 17.793443279340863,216.01261752145365 L 16.020468762144446,219.5585694955662 L 10.03269906155765,228.6289049088955 L 7.293613048270345,231.0731469434686 L 4.596993338316679,232.5884507894516 L 1.6561915185302496,234.98341142665595 L 0.0,235.78982332954183 L 2.5267538875341415,241.6538159470074 L 2.611686697229743,245.4646361777559 L 4.1617121528834105,247.6873332145624 L 6.327501140534878,247.6873332145624 L 8.259724751114845,244.87839575344697 L 9.66111763752997,246.66149892937392 L 11.232376348227262,250.47151819476858 L 12.336503889411688,251.4727681959048 L 14.353660514578223,251.521608652547 L 15.521487817168236,248.83523841714486 L 17.198912795633078,248.1025393945165 L 18.133174719288945,248.7619694340974 L 24.779174460098147,255.8191712978296 L 25.883302003145218,256.5760481725447 L 31.679972833022475,258.91977243637666 L 37.710208835080266,259.5544915846549 L 39.79106501489878,260.3356608906761 L 43.46441295184195,262.3617000528611 L 49.239850321784616,263.55771459732205 L 53.61389501206577,265.4126389781013 L 60.302361054345965,269.36607640748844 L 61.70375394076109,270.85454682353884 L 63.06268032081425,272.9528884124011 L 64.08187525905669,275.441380600445 L 64.48530646041036,278.14915088610724 L 65.5894342083484,279.00288875726983 L 70.40937660634518,278.7833590051159 L 71.51350414939225,279.78342256275937 L 72.38406651839614,284.02712917281315 L 74.65602156892419,287.70927602332085 L 83.19177841208875,297.0949706155807 L 84.55070479214191,298.11864215228707 L 85.35756739974022,299.5322120189667 L 85.6548325382173,302.5296795684844 L 85.06030226126313,304.38158588763326 L 83.85000845044851,305.8435166394338 L 83.02191258780658,307.20790442219004 L 83.51027680374682,308.84019571496174 L 85.35756739974022,310.3505749986507 L 87.24732450209558,310.9839317719452 L 89.15831485949457,312.03136953897774 L 91.15423822961748,314.7593653029762 L 91.66383549384773,316.87821964826435 L 92.0672666952014,322.3571497066878 L 92.68303043209016,324.25622066296637 L 96.09096300788224,326.42292636539787 L 106.1661285776645,329.73347078682855 L 108.21513498015702,331.48592755943537 L 107.87540333345532,334.2117178812623 L 106.59079323895276,339.68670459697023 L 106.69695930182934,341.9493360258639 L 108.06650241091847,344.041472742334 L 110.13674185983837,345.28207278996706 L 112.23883129283786,346.08477989397943 L 113.7251571957022,346.91178379720077 L 125.48836406134069,361.4040749720298 L 130.1384406350553,370.1536005050875 L 129.14047894999385,375.81480241846293 L 130.5312553141266,377.418164155446 L 131.94326472468674,375.81480241846293 L 134.86283328942955,377.1752372942865 L 136.16867663897574,377.418164155446 L 134.38508559763432,379.7501373239793 L 131.81586540862918,382.3976265001111 L 130.8709867540747,384.55912352958694 L 134.1302869655192,385.45766672538593 L 136.68889063224196,386.5990115222521 L 139.2050279956311,389.31859531626105 L 143.17564127780497,395.0724241309799 L 143.96127063408494,395.3637211304158 L 144.9379988592118,395.04814943904057 L 145.76609472185373,394.975324511528 L 146.10582616366446,395.94630441349 L 146.11644289270043,397.6696978905238 L 147.27365367114544,400.41231170482934 L 147.48598600178957,402.3052629120648 L 147.50721925497055,405.55691152764484 L 149.18464402854443,407.42519972426817 L 152.42271098680794,408.5412514801137 L 154.62034995667636,410.3607910294086 L 153.1127908024937,414.3147884341888 L 176.5118056293577,412.71386074461043 L 181.98997786268592,415.18797733448446 L 183.90096821822226,418.72892283834517 L 185.19619483686984,422.43908731546253 L 186.8523865621537,425.54258211981505 L 189.8462714124471,427.2638814668171 L 193.71071863174438,426.7790205096826 L 196.152539299801,424.5242912946269 L 198.06352965719998,422.0511226556264 L 200.37795141898096,420.86294243996963 L 205.96228971332312,420.86294243996963 L 207.78834705613554,421.39641843596473 L 208.04314568825066,422.77855126932263 L 207.97944613173604,424.59702761285007 L 208.85000850260258,426.4638558831066 L 216.62136903777719,436.8621417689137 L 225.73042290471494,446.6261972896755 L 226.38865294493735,447.9826807291247 L 232.05792404711246,456.3621423984878 L 234.79701026529074,459.7760718395002 L 236.8353999387473,462.68116907402873 L 238.70392378792167,461.9549270514399 L 252.3993544690311,463.3347684019245 L 256.5398333687335,461.49496274860576 L 261.27484275214374,460.9865707978606 L 266.0310853905976,461.6160067738965 L 270.1715642903,463.21373286517337 L 274.12094431743026,466.8203377635218 L 279.6840495634824,476.427294339519 L 283.6758961006999,480.4431944596581 L 287.8800747599453,482.2090150513686 L 316.4812297280878,484.11982883373275 L 320.55800907313824,485.11145849712193 L 332.2575165890157,493.0914111370221 L 335.31510099582374,493.4782519605942 L 339.20078126341105,490.6009765123017 L 341.9398674815893,487.2880658186041 L 343.8083913307637,483.41840819688514 L 345.0611516479403,478.8223980651237 L 346.54747754894197,469.21637912327424 L 348.71326633170247,465.9247874086723 L 357.8223202005029,465.68274107575417 L 360.85867155715823,463.1169040519744 L 366.82520800456405,451.80949613591656 L 368.5238660313189,450.5016644792631 L 374.93630018644035,449.33908894844353 L 378.333616444841,448.05534721538424 L 381.433667358011,446.1659451238811 L 384.32138594053686,443.64651476452127 L 386.95430609583855,440.4484020760283 L 395.21403084881604,425.83351441146806 L 406.5101069584489,414.2177656167187 z" /></g></g></svg>