<svg xmlns="http://www.w3.org/2000/svg" xmlns:xlink="http://www.w3.org/1999/xlink" width="500.0" height="380.8723249370232" viewBox="0.0 0.0 500.0 380.8723249370232" preserveAspectRatio="xMinYMin meet"><g transform="matrix(1,0,0,-1,0,380.8723249370232)"><g><g><path fill-rule="evenodd" fill="#D2EBD9" stroke="#A6A6A6" stroke-width="0.25" opacity="1" d="M 482.4554418772459,262.6787093356252 L 483.2469256334007,259.1012878930196 L 483.5723135136068,255.05883859843016 L 483.36125105433166,251.0891823247075 L 482.54338447004557,247.76761811226606 L 480.89006266370416,245.13969339989126 L 478.8058220036328,242.7227230090648 L 477.1437060069293,239.98054157104343 L 476.76555255427957,236.36249733157456 L 478.3661087863147,233.2198558151722 L 478.0934865642339,231.47466463781893 L 475.0770538132638,228.4043776486069 L 474.34712982177734,226.74584476463497 L 473.2214639093727,221.16140044201165 L 472.63224816694856,219.74482673499733 L 470.6007729936391,215.96121735777706 L 469.77411213330925,213.17728108540177 L 470.1610597781837,211.61575610470027 L 471.4977880641818,210.68831217754632 L 476.572078730911,208.7797801187262 L 478.014338163659,208.7025244468823 L 483.15018876455724,210.09327878896147 L 497.26938075758517,207.60560385975987 L 499.2217075303197,206.09959998261184 L 500.0,203.5827240953222 L 499.0590136330575,201.17493473086506 L 497.0099499076605,199.60885263234377 L 491.52232876606286,198.1357240928337 L 490.21198330819607,197.3568876637146 L 487.7671777475625,194.92849976569414 L 486.42165518552065,193.06355575006455 L 485.80605669878423,191.47650281246752 L 485.26081225275993,187.34137216210365 L 484.3110316954553,183.0168116390705 L 483.0006862375885,180.84802183136344 L 481.12750786729157,180.50970047339797 L 472.14856356941164,184.5477462289855 L 470.93495506606996,184.4092536214739 L 470.2138253506273,183.67837328556925 L 469.1848963908851,182.21688227634877 L 468.3494412545115,181.94769931957126 L 467.6283115390688,181.93231794051826 L 458.2008597496897,184.3938655713573 L 454.36656033061445,183.7168384063989 L 451.69310392811894,179.4794769100845 L 451.4644530005753,177.7884518885985 L 451.54360131546855,174.10061196051538 L 451.3853046000004,172.3112972220406 L 450.9807684030384,171.0445115417242 L 447.8500101454556,164.1931906659156 L 444.9391085412353,159.70919601339847 L 443.66394018754363,158.29188329633325 L 440.5947418641299,156.52263119071722 L 430.2614807281643,154.40175334736705 L 428.67851313203573,154.43237440753728 L 425.58293189667165,155.15201376378536 L 424.0263470429927,155.19795105233788 L 420.8252347484231,153.8276384267956 L 419.8226885329932,152.9627429842949 L 419.3653867635876,150.51416279375553 L 418.8201423175633,148.99960754998028 L 417.0437008999288,146.89669711142778 L 415.06499138474464,145.36013001948595 L 413.37649247422814,143.59471378754824 L 412.4882717654109,140.81390606239438 L 412.61139146238565,139.49271300341934 L 413.3413154538721,136.54590364173055 L 413.3940810263157,135.32485477998853 L 413.01592765934765,134.08116840664297 L 412.58500871807337,133.7988953171298 L 412.004587167874,133.78363767266273 L 411.16913203150034,133.35644006263465 L 409.3135422114283,131.68608574289829 L 408.4077329505235,130.36691260989755 L 408.14390500448644,128.39251064509153 L 408.4341156948358,120.86680554319173 L 407.9680197350681,117.78461447171867 L 407.150153150782,114.97017506696284 L 407.0534161962569,113.11489130463451 L 407.62504338659346,110.20386517513543 L 409.73566696047783,104.98580872267485 L 410.2193514741957,102.14703291933984 L 409.779638171196,99.22617033589631 L 408.5924124959856,96.94357958901674 L 406.9654735196382,95.26821165997535 L 401.75926879420877,92.16888012830168 L 400.45771761238575,90.40396338701248 L 399.525525521487,87.43583482131362 L 399.1561665162444,83.59913418721408 L 399.2177262790501,80.55120106879622 L 398.90113276056945,77.73154166713357 L 397.37972492724657,74.55817686021328 L 393.47507138364017,69.83146721776575 L 391.8745153192431,66.67736629303545 L 391.76018981449306,63.004702435806394 L 392.92103274539113,61.12022385466844 L 394.76782837323844,60.40427729487419 L 398.4614195432514,60.652964857406914 L 403.56209312565625,63.34397133439779 L 404.8372614774853,63.683259557932615 L 405.998104410246,63.004702435806394 L 406.49058319814503,61.806105623953044 L 406.74561695382,60.38166973926127 L 407.6514262147248,57.789912816137075 L 407.97681401111186,57.255125605501235 L 408.3197902739048,57.172275458462536 L 409.2959537450224,57.49615048896521 L 409.6829013042152,57.40576515160501 L 411.25707470811903,55.4251575646922 L 411.9254387654364,54.11515246052295 L 412.4882717654109,52.50438865367323 L 412.8312481120229,52.022748716175556 L 413.710674630478,51.541147536598146 L 413.9305311962962,50.65329637937248 L 413.7282630968839,50.00630094204098 L 412.72571688331664,48.65235012862831 L 412.46188893541694,47.983009446412325 L 412.3827406205237,41.33125783037394 L 411.70558220148087,39.04805950727314 L 409.74446115270257,37.56894961092621 L 408.7331207469106,37.418806596659124 L 405.5408026408404,37.85423177946359 L 404.6174048278481,37.43382061365992 L 403.27188234962523,35.54983840696514 L 402.3836615551263,35.02453029900789 L 400.5192774608731,34.964498069137335 L 392.9825926795602,36.21779650822282 L 390.6872895602137,37.35124340560287 L 388.75255125388503,39.20575256831944 L 388.11056994087994,41.80452922638506 L 388.74375697784126,42.826321275904775 L 391.17097407206893,43.667927405796945 L 391.7865726426244,44.750165620818734 L 391.31168232113123,45.99798767454922 L 389.26261859573424,47.10320292413235 L 389.4648866932839,48.547055784612894 L 391.206151092425,49.54742794204503 L 393.1936549693346,49.38194141443819 L 393.91478468477726,49.93107364233583 L 387.9170961175114,58.15148619096726 L 387.50816282629967,58.97263983543962 L 386.94532991200686,59.530184460803866 L 385.8636353816837,59.78637080453336 L 383.7178347874433,58.75415687356144 L 380.3056600317359,53.70112981367856 L 378.2390078380704,52.353871988132596 L 371.24756733328104,51.96254651155323 L 365.84788887016475,53.90437376033515 L 364.3264810387045,53.64843822363764 L 363.24478650838137,51.73679336346686 L 361.50352202542126,44.885459133423865 L 360.09643978253007,41.84960453864187 L 356.61391090229154,37.93681603856385 L 352.90273118019104,35.52732444833964 L 349.08602031320333,34.896962435916066 L 342.3759963065386,37.51639910042286 L 338.46254857070744,38.0794641552493 L 334.5227179210633,37.636515103280544 L 331.59422776289284,35.86504543479532 L 331.25125141628087,34.949490069411695 L 331.3040170725435,32.32366985734552 L 329.7122551165521,31.31865904573351 L 328.9559483807534,30.35880547668785 L 328.4194982107729,30.306317755021155 L 328.2699956856668,29.818955096416175 L 328.6657376047224,27.607573417946696 L 329.67707809619606,24.475548312999308 L 330.8203324750066,21.996559279970825 L 331.576639296487,19.241659904830158 L 331.4095482174307,15.283697605133057 L 330.30147085897624,12.786057676188648 L 328.7976516634226,11.971183544024825 L 323.2836476098746,11.066727507859468 L 321.7270627580583,11.178842724300921 L 320.4694828726351,12.427200404927135 L 319.37019987404346,15.246300176717341 L 318.74580702744424,15.530526717193425 L 318.4292134232819,15.470688375644386 L 316.3977383337915,13.900146534666419 L 310.9628827665001,12.830916391685605 L 306.67128157801926,10.334292175248265 L 296.91844199225307,1.5669256271794438 L 293.84044939279556,0.0 L 290.7800452616066,0.029842443764209747 L 288.0802059452981,0.843104736879468 L 285.20448144339025,0.7162583526223898 L 283.55995391495526,1.0371100679039955 L 282.65414465405047,2.4251766484230757 L 281.1855023931712,6.57635581959039 L 278.802256681025,9.482387647032738 L 276.1200059168041,10.416499896906316 L 273.3234298173338,9.90832493826747 L 268.0644595194608,7.061842099763453 L 265.54929974861443,6.359766781330109 L 260.09685562737286,6.292551080696285 L 258.6985674928874,6.62863693293184 L 256.19220208376646,8.24958090763539 L 254.86426815763116,8.802444839850068 L 253.58030544407666,8.555891187861562 L 247.081343812868,4.799062337726355 L 246.42177402973175,4.6870656637474895 L 245.7006443142891,4.91106138098985 L 244.17044229246676,5.814594425261021 L 243.58122646436095,5.934080183506012 L 242.27088100649416,5.4113480458036065 L 240.7934445552528,4.321224147453904 L 235.4729144088924,3.55974761210382 L 231.278050173074,1.7534915395081043 L 229.95891043916345,1.64155138656497 L 228.49906254187226,2.1639568228274584 L 220.85684652999043,6.8078905045986176 L 217.9195620957762,7.577247118577361 L 218.27133263461292,8.42141171824187 L 218.32409820705652,9.213390092365444 L 218.077858813107,9.938216295093298 L 217.57658574730158,10.588392324745655 L 216.6707764863968,11.335807617753744 L 215.9848237913102,12.382344693876803 L 215.6242589764297,13.698249353095889 L 215.6770245488733,15.246300176717341 L 216.54765678942204,16.458095689304173 L 217.57658574730158,17.31846885662526 L 218.8429598249495,19.541044428013265 L 218.81657708063722,22.812790410593152 L 216.92581015639007,32.6762133622542 L 215.99361806735396,35.92508679628372 L 214.8063923921436,38.83029975928366 L 213.3993099797517,40.91811505239457 L 212.61662041582167,41.383841685950756 L 210.78741334192455,41.88716774992645 L 209.90798690915108,42.48820902593434 L 209.1252973433584,43.61532357055694 L 206.75964009948075,47.86268641799688 L 203.48817367851734,50.66081992723048 L 196.62864714674652,53.264555217698216 L 193.38356355391443,55.259508897550404 L 188.10700461827219,59.69595083873719 L 186.55921404249966,60.449492369778454 L 184.84433247335255,60.065174359828234 L 182.8128573000431,59.198665144853294 L 180.86053052730858,59.191130893304944 L 179.3303285036236,61.33879309054464 L 179.33912277966738,62.88407793454826 L 180.1394008975476,65.92304247338325 L 179.6029506418854,66.73017251119018 L 176.6832548454404,67.07719640247524 L 175.724680012092,67.73357896134257 L 175.1882297564298,68.66923719178885 L 174.32639187574387,70.94862788077444 L 173.42058261483908,71.86968711297959 L 172.54995037429035,72.0735471015796 L 170.61521215364337,71.66583390720189 L 169.69181434065104,71.78663495369256 L 164.59114084392786,74.42976655811071 L 162.7795222364366,74.67903633415699 L 160.6601044703275,73.68201969284564 L 158.39118417911232,69.46164232864976 L 156.7906280308962,68.15611624438316 L 151.6635717060417,77.28565797954798 L 149.4034456051886,82.32834336627275 L 148.9109668172896,88.0490263979882 L 149.51777111180127,99.4309636130929 L 151.38215520605445,106.42848381958902 L 151.76030857488513,109.08695471007377 L 151.6635717060417,110.68260491546243 L 151.13591581210494,114.04246103856713 L 151.1447100881487,115.54816785734147 L 151.50527498871088,116.57500378321856 L 153.36965908296406,119.3445371678099 L 153.4136303793639,119.93056454602629 L 153.00909418426454,121.29311036039144 L 153.1849794536829,122.00114787369967 L 153.47519022785127,122.25240714289248 L 154.19631994329393,122.43514777068049 L 155.0933349300176,123.21185805182904 L 156.5883599333465,124.02675108518451 L 157.2831068187952,124.81890314631164 L 158.44394975155592,126.80736314971 L 161.0910234954208,128.75075127836317 L 162.37498612515628,130.15343225561082 L 163.47426920756698,132.730955760926 L 163.69412577338517,135.34011636674404 L 163.35114951059222,138.0649318806827 L 162.07598115876317,144.04557120520622 L 161.39002846181393,145.9334296984598 L 160.3347167596221,147.1566531546414 L 155.26042592152953,149.54266139212996 L 154.55688476003706,150.69012094289064 L 155.50666540116072,152.68722739256918 L 154.3722052127123,153.1311199311167 L 152.39349561184645,155.68797182943672 L 151.59321749582887,155.94831178709865 L 146.80913760326803,155.91002581547946 L 145.41084946878254,156.66047613788396 L 144.40830325335264,158.4527504555881 L 143.2738431505859,161.77064749319106 L 141.84917218610644,168.48105557914823 L 140.916980182752,171.45138907060027 L 139.62422327697277,172.96398917026818 L 137.54877689294517,174.14669590536505 L 128.6313924435526,171.47442066203803 L 112.88965856842697,173.4170761918649 L 103.64688632450998,171.006128330715 L 102.55639751814306,169.87009659968317 L 101.58902840688825,168.50407581962645 L 100.00606081262231,167.33783424645662 L 98.04493976384401,167.13836849480867 L 95.75843083485961,167.8748907232657 L 93.86766399629414,169.486351265572 L 93.0937686227262,171.9427498690784 L 93.0937686227262,174.37712054420263 L 92.8211464844644,176.02875968627632 L 91.80101180262864,176.7817519903183 L 89.59365127421916,176.55891771614552 L 87.3687022794038,174.84567856881768 L 86.63877837173641,174.5230608265847 L 85.80332323536277,174.84567856881768 L 83.72787676751614,176.24389061238617 L 80.7202382069081,176.996910167858 L 79.07571076229215,178.08050372172147 L 76.18239762447774,180.62503521423787 L 70.29024028778076,181.90924564842135 L 68.82159811258316,183.15527194179595 L 67.36175004392862,185.10944433137774 L 61.372855838388205,189.81286382395774 L 57.90791551023722,191.52272156998515 L 49.29833039082587,191.80774573609233 L 46.211543429642916,194.3042177055031 L 40.92619038745761,203.44378656335175 L 38.314293747767806,206.06871155742556 L 36.186081705614924,205.74439324438572 L 29.18747366964817,199.90404532290995 L 29.31211681291461,200.6329773236066 L 28.917413583025336,205.17867319379002 L 29.464458357542753,205.78057048656046 L 30.08074938878417,205.56169162224978 L 30.69704033434391,205.63465044554323 L 31.19561282172799,207.13050176762044 L 31.029421992599964,208.35300199501216 L 29.748367730528116,211.65683805942535 L 28.495011867955327,212.98984564933926 L 28.231876380741596,214.56062270049006 L 28.294197952374816,217.94712446909398 L 27.40092223510146,218.0689771361649 L 22.48444352671504,213.3429298242554 L 22.020494125783443,214.47537611518055 L 22.01356952637434,214.8041914505884 L 22.24900652654469,214.92597950436175 L 25.50357693992555,222.43295489717275 L 27.546339262276888,225.2139248829335 L 27.553263863548636,228.88119055051357 L 26.549194287508726,234.9331790143624 L 25.50357693992555,239.4013306479901 L 25.385858481749892,240.5754679236561 L 23.384643845260143,243.1997734066099 L 23.017639100551605,244.63170395977795 L 23.273849988356233,248.78258994966745 L 23.017639100551605,250.33839263394475 L 19.825390258803964,258.8719629654661 L 19.19525002874434,261.5228211656213 L 18.945963826030493,264.36522488016635 L 18.398918967694044,265.86985843256116 L 14.874288465827703,272.0520929582417 L 14.036409720778465,272.98675161227584 L 13.288551030680537,273.49103691615164 L 12.748430771753192,274.4505278263241 L 12.360652226954699,278.19772761594504 L 11.571245767176151,281.1528645819053 L 10.220945246517658,293.95092185400426 L 10.220945246517658,300.6260609952733 L 10.407909961417317,302.2883037980646 L 11.197316421195865,304.39613423962146 L 11.384281052276492,305.8120805826038 L 11.384281052276492,318.84984577447176 L 10.961879421025515,324.19464119989425 L 14.191625595092773,324.9993537841365 L 19.195562306791544,325.0426897276193 L 22.616531254723668,326.00010298844427 L 23.89169960655272,328.89299016445875 L 24.50729817710817,333.10086099710315 L 25.958351800218225,338.0184643790126 L 28.10415239445865,341.3834365224466 L 31.12937942147255,344.70685777347535 L 34.295314783230424,347.3756512692198 L 36.90721142292023,348.7322593117133 L 40.767893586307764,348.9221302922815 L 42.0958275962621,349.36914256587625 L 53.97687922231853,358.54635754972696 L 57.13402030803263,360.1710889469832 L 64.6619108133018,360.5119434790686 L 99.51358193717897,376.99569658748806 L 103.34788135811687,376.73337133508176 L 104.96602605842054,375.89480478223413 L 108.12316705845296,373.5268008355051 L 109.79407733120024,372.8396234102547 L 135.05120558850467,373.6976148020476 L 140.50364970974624,372.43053296674043 L 142.96604382246733,371.1041641989723 L 146.7387833930552,367.11098814290017 L 148.20742565393448,366.49597944598645 L 149.49138828366995,366.6824591308832 L 161.53073671273887,371.6839171843603 L 167.15027182549238,375.61663387715816 L 170.17549893818796,376.1809373088181 L 172.93689801730216,374.6232742071152 L 175.0123445726931,370.1949414201081 L 178.01998304575682,362.62092578504235 L 181.89825376309454,359.60040029138327 L 186.1898549515754,360.63085079193115 L 190.4550733100623,365.25425529200584 L 189.71635512821376,366.84910543076694 L 191.28173417039216,367.8570208568126 L 201.1401049848646,370.1750909797847 L 203.03087190911174,369.79794509895146 L 217.57658574730158,363.58052633330226 L 220.63698979467154,363.35845591593534 L 225.75525192916393,366.42059557978064 L 228.49026826396585,367.22209338191897 L 234.4088084306568,366.9205268137157 L 236.73049429431558,367.3173281000927 L 237.44282973371446,367.05543631408364 L 238.16395944915712,365.9921170771122 L 238.28707914613187,363.3822488654405 L 240.93415280617774,362.946062088944 L 246.79992739856243,364.3181772958487 L 249.6140921358019,364.238855577074 L 260.09685562737286,360.8647089106962 L 268.08204798586667,354.5458910660818 L 270.9313898291439,352.93855172395706 L 273.50810936279595,352.43981175869703 L 275.88256079889834,352.87917574495077 L 286.1630562786013,358.2769334129989 L 288.79254147037864,358.7444714307785 L 291.5363519974053,357.6668129209429 L 296.944824822247,353.6748642604798 L 299.7414009217173,352.9108427669853 L 302.64350833557546,354.18558714166284 L 307.55070801079273,357.0646782834083 L 309.16005843505263,358.7444714307785 L 316.0723506230861,368.16657302808017 L 319.43175963684916,370.82622085139155 L 330.23111673258245,375.63252902403474 L 331.0841604229063,375.67226700112224 L 332.966133069247,374.92523764725775 L 333.66087995655835,375.0762253636494 L 334.1973301265389,376.4193915631622 L 334.3028612714261,378.12064845114946 L 334.61945478990674,379.75877392757684 L 335.7978863604367,380.8723249370232 L 337.6095047965646,380.2757535716519 L 339.13091262988746,377.69528778269887 L 341.3558616247028,371.23122843168676 L 343.55442779138684,361.9191688140854 L 344.49541415832937,359.0773177566007 L 345.34845784679055,357.5043889172375 L 348.18021096661687,354.3479190496728 L 349.0068719126284,352.8593838857487 L 350.5194854680449,347.9293308435008 L 352.9994680490345,343.31166103016585 L 356.06866645626724,341.05949388165027 L 385.4766877386719,335.949885266833 L 391.2589167486876,337.0077697997913 L 395.52413510903716,334.93954660277814 L 396.98398309201,334.64752800390124 L 402.0582738444209,335.0579368909821 L 403.09599708020687,334.6001750966534 L 403.72038984298706,333.258665561676 L 405.3033575229347,328.1164214927703 L 406.0508699826896,326.5241852225736 L 407.08859321661294,325.4800072601065 L 411.9782044235617,322.0650682784617 L 420.9131773393601,311.9382722955197 L 433.36585615575314,303.61070824600756 L 438.6248264554888,297.6550900125876 L 447.06732066720724,290.29148242995143 L 449.2043269854039,286.9360417202115 L 451.17424231022596,282.31516162957996 L 455.6681115962565,274.1933864587918 L 460.99743593484163,270.12888291850686 L 472.7993392460048,264.3863477613777 L 477.6010076906532,263.0607406049967 L 482.4554418772459,262.6787093356252 z" /><path fill-rule="evenodd" fill="#D2EBD9" stroke="#A6A6A6" stroke-width="0.25" opacity="1" d="M 5.51908808760345,203.55232894048095 L 0.0,204.97768906876445 L 6.3777823727577925,216.09527230262756 L 9.950885159894824,224.94552868511528 L 13.427043374627829,237.18211400229484 L 14.341092891991138,249.82382987253368 L 14.874288465827703,252.38483530003577 L 14.410339064896107,253.1018707593903 L 14.874288465827703,254.53620249032974 L 14.133354377001524,257.571513986215 L 14.375715978443623,266.9878346240148 L 13.669404976069927,271.11143476795405 L 16.411553701385856,267.62677327822894 L 17.60951259173453,260.95818674750626 L 17.782628022134304,247.80889048893005 L 17.595663307234645,245.91706496383995 L 16.806256845593452,243.40169139951468 L 16.61929221637547,241.60302921105176 L 16.61929221637547,235.95364959072322 L 15.642921041697264,233.49748569726944 L 14.299545206129551,231.02402273472399 L 13.835595805197954,228.6919748801738 L 15.455956412479281,226.6476102070883 L 15.455956412479281,225.7141500627622 L 14.230299035087228,224.14041322190315 L 12.67225999943912,221.30508281011134 L 11.321959480643272,217.959309742786 L 10.754140820354223,214.87726395297796 L 9.639277387410402,211.84551038220525 L 5.477582054212689,206.27307746838778 L 5.51908808760345,203.55232894048095 z" /></g></g></g></svg>