<svg xmlns="http://www.w3.org/2000/svg" xmlns:xlink="http://www.w3.org/1999/xlink" width="346.41665866598487" height="500.0" viewBox="0.0 0.0 346.41665866598487 500.0" preserveAspectRatio="xMinYMin meet"><g transform="matrix(1,0,0,-1,0,500.0)"><g><path fill-rule="evenodd" fill="#D2EBD9" stroke="#A6A6A6" stroke-width="0.25" opacity="1" d="M 177.04932230338454,462.5820750910789 L 174.00380119867623,452.65840837545693 L 171.86739073321223,443.2337007075548 L 169.09460277482867,423.96752679813653 L 169.86734750121832,423.47185592725873 L 172.5037686638534,423.7196900853887 L 173.5037904996425,423.578070435673 L 171.86739073321223,421.3476337287575 L 167.77639263309538,413.34762897435576 L 172.5492238216102,410.58701715711504 L 175.41292297653854,404.9603348635137 L 178.14025489613414,390.6679353527725 L 176.91295550949872,383.0643644379452 L 178.82208842597902,377.5130990082398 L 186.41316317021847,365.91857271268964 L 193.0951272752136,346.69762893766165 L 196.59520392119884,340.7287009563297 L 201.32257995195687,350.1240706834942 L 208.86819909885526,337.8682374050841 L 223.32306034117937,302.92707704380155 L 230.18684639781713,295.9432897409424 L 245.0962636191398,289.2783284075558 L 251.50549413636327,285.1178186442703 L 253.5964490044862,281.3808591393754 L 258.00563628971577,269.60868068691343 L 258.46019182913005,267.3181772120297 L 262.00572319328785,267.0010429387912 L 268.59677654132247,271.01830131933093 L 272.4604970924556,270.9125772379339 L 279.9152054823935,266.190602010116 L 292.55184544436634,254.1068347422406 L 300.00655339471996,249.3520470727235 L 307.6885397769511,247.23902792762965 L 328.7799095250666,247.23902792762965 L 342.32566012628376,243.22466396726668 L 344.0529702100903,243.11903030239046 L 346.41665866598487,240.54869357403368 L 346.2802914325148,240.68952824361622 L 345.325725633651,239.7389029916376 L 345.2802695967257,234.0005216896534 L 344.64389210380614,233.54290279373527 L 342.55293723754585,218.72650563158095 L 342.50748207978904,213.90645202156156 L 343.68932586722076,210.88108446914703 L 343.5075039155781,208.24290900491178 L 339.2346834242344,204.47947662882507 L 338.91649423725903,198.39558156114072 L 339.9165160730481,192.84017126448452 L 342.00747094117105,187.95358835160732 L 345.14390324242413,183.73553742747754 L 341.3256378509104,185.24694400466979 L 339.2801385819912,184.22761625237763 L 337.7801060471684,180.92380311712623 L 340.7801715545356,177.44461254868656 L 341.6438270378858,175.96870315354317 L 309.3249391037971,154.96171126980335 L 302.5066082049161,145.3759989934042 L 303.27935248985887,143.12920175120234 L 306.0975960455835,141.19848180375993 L 308.7794728074223,138.56586335692555 L 309.18857230991125,134.07334681414068 L 308.00672852247953,131.02018625568599 L 304.6884742677212,126.10764782689512 L 300.23383138515055,116.91614240221679 L 288.7790356501937,102.74798362329602 L 282.142526704818,92.30109911970794 L 279.6424723342061,84.8360515711829 L 279.6424723342061,63.3615205809474 L 275.9151185788214,34.972057819366455 L 277.27878431789577,14.473957112058997 L 277.24685065448284,9.487300800159574 L 268.46041018888354,10.417815040796995 L 256.77833690308034,16.85192673932761 L 235.05058922246099,33.15260083600879 L 223.0048715956509,37.98137826658785 L 210.5045984275639,39.31116549205035 L 185.23131938278675,36.51167537365109 L 188.09501809626818,30.28366091195494 L 175.68565612472594,29.129157658666372 L 172.5492238216102,27.869744930416346 L 170.23099140450358,23.742006281390786 L 170.2764470037073,19.404936094768345 L 169.27642516605556,15.767830979079008 L 163.95812724158168,13.739618782885373 L 159.68530675023794,7.236188909970224 L 153.23061975464225,4.823950960300863 L 115.72980113141239,2.551712236367166 L 108.09327034838498,0.0 L 102.04768373444676,19.369962323457003 L 93.77477589994669,27.729812985286117 L 65.86507525295019,34.412214315496385 L 54.81937946006656,39.62612289655954 L 47.13739351928234,46.8359647244215 L 33.31890976987779,65.28770454693586 L 43.77368366718292,70.29630624037236 L 53.86481322161853,81.1216781027615 L 58.04672251828015,91.7052355594933 L 50.59201456606388,95.80639727320522 L 55.54666814766824,100.50407915189862 L 59.04674479365349,107.30638245493174 L 64.68323102407157,122.94997303932905 L 68.18330767005682,127.09009782224894 L 72.54703935794532,131.160556091927 L 75.00163856893778,137.0565905990079 L 72.54703935794532,146.71010775864124 L 69.36515145748854,149.4135975074023 L 60.546777326613665,150.4318526480347 L 57.54671181924641,152.71426181588322 L 56.001223247498274,157.70099614281207 L 56.63760074041784,160.12439948227257 L 57.95581176131964,162.3021019110456 L 58.183089312165976,166.72819749452174 L 58.8649224024266,170.48733099270612 L 61.001332426443696,172.91167148482054 L 62.6377321947366,175.7227246630937 L 62.046809861436486,180.92380311712623 L 59.50129989348352,184.965746531263 L 56.63760074041784,185.17664509266615 L 53.81935762427747,184.22761625237763 L 51.36475841328502,184.6845521312207 L 48.728337248787284,186.1608516452834 L 42.591839879751205,188.0238945344463 L 39.77359588444233,190.3089017821476 L 39.95541827566922,191.89092222042382 L 39.00085203908384,201.3846385953948 L 38.319018948823214,204.58498738333583 L 27.955156246200204,225.13087771646678 L 25.046001935377717,229.45981143973768 L 19.454970421269536,232.9092863732949 L 14.727594390511513,233.71890936233103 L 10.272951947525144,235.9014696329832 L 5.636486671864986,243.64720609411597 L 2.954610349610448,252.20483756437898 L 2.318232858553529,260.34192897286266 L 4.272820491343737,266.86009520012885 L 9.500207660719752,270.3839646456763 L 5.272842327132821,274.33114615269005 L 6.045586613938212,276.7983741564676 L 6.863786498084664,278.3845466133207 L 7.500163989141583,280.42906027659774 L 7.454708391800523,284.3774433536455 L 19.00041488185525,283.1787772523239 L 14.9094167817384,289.3841107226908 L 5.181931572034955,296.82499952521175 L 0.0,299.3291831128299 L 1.7727661225944757,305.81978566851467 L 17.00037121027708,332.324589561671 L 18.773137770593166,336.6676228363067 L 19.8186147660017,340.1283357013017 L 21.455014092847705,343.6953699281439 L 24.90963514149189,348.28717063274235 L 28.000611843541265,350.37135276943445 L 34.50075355730951,351.8904173290357 L 38.137196557596326,355.3173990184441 L 42.955483784899116,364.7169352564961 L 41.182718101888895,368.4987086057663 L 38.091741397976875,372.31626684591174 L 38.59175209701061,381.7560200719163 L 41.31908445619047,385.398296745494 L 50.22837022319436,389.359289185144 L 53.41025768220425,392.7548046084121 L 54.5011907145381,398.1671325052157 L 54.5011907145381,404.60648716334254 L 54.001179575920105,412.5335783287883 L 56.63760074041784,416.78102078381926 L 63.04683169722557,422.3743235934526 L 65.72870845906436,426.26895706076175 L 66.81964148953557,430.9431276638061 L 67.68329697288573,442.0646595293656 L 69.27424070239067,446.42220872826874 L 76.54712670110166,453.0836467538029 L 92.91112085804343,461.12877914123237 L 99.45671816915274,467.97046411037445 L 102.95679481513798,477.8278331309557 L 104.77501609548926,487.22700288519263 L 108.5023702904582,493.57739906478673 L 117.86621115729213,494.57086893823 L 124.63908645696938,500.0 L 127.457330012694,496.91273655183613 L 128.91190694831312,490.34883190505207 L 131.59378414973617,485.3114823019132 L 137.41209277324378,482.47387886978686 L 142.36674635484815,481.76451685559005 L 152.3669651541859,483.3606036333367 L 156.1852301042527,485.7371438052505 L 159.00347322039306,488.7878802753985 L 162.4126391094178,489.2490630671382 L 168.0945809390396,483.7507702279836 L 170.0037138555199,477.4377376176417 L 169.5037027169019,470.94863819889724 L 170.50372455269098,465.5243098484352 L 177.04932230338454,462.5820750910789 z" /></g></g></svg>