<svg xmlns="http://www.w3.org/2000/svg" xmlns:xlink="http://www.w3.org/1999/xlink" width="500.0" height="482.8315551779233" viewBox="0.0 0.0 500.0 482.8315551779233" preserveAspectRatio="xMinYMin meet"><g transform="matrix(1,0,0,-1,0,482.8315551779233)"><g><path fill-rule="evenodd" fill="#D2EBD9" stroke="#A6A6A6" stroke-width="0.25" opacity="1" d="M 69.8994194213301,482.8315551779233 L 71.63606553524733,482.2554523618892 L 72.10015125758946,481.95529161253944 L 72.5001367200166,480.9906741143204 L 72.98473452962935,480.5834757350385 L 74.01546631380916,480.1028625322506 L 77.82302040047944,479.49377809790894 L 78.98451667837799,479.0515735228546 L 78.33838630840182,479.75086536537856 L 76.28461471758783,480.4212227021344 L 75.75899276509881,481.1284593511373 L 77.27688636258245,480.2635693573393 L 80.67163490876555,479.129605316557 L 88.03547013364732,474.4326144596562 L 89.34824296273291,473.0623839646578 L 90.55332741700113,472.70044426061213 L 92.57633090950549,471.3584043090232 L 95.06598409824073,470.12676924979314 L 96.46593327634037,469.73615989787504 L 108.48600966110826,468.45784501265734 L 111.46538866497576,468.67442233813927 L 119.34458979591727,470.9997026962228 L 120.63685056939721,471.59196276497096 L 122.18807629868388,472.7401487766765 L 125.09822703525424,472.96158669283614 L 128.08017004281282,472.4209987889044 L 135.00299563258886,468.61646364675835 L 136.4362769126892,468.26415751175955 L 141.7976207304746,468.4974989723414 L 143.15910977125168,468.29008354246616 L 145.83593564480543,467.4910446880385 L 148.22815646976233,466.43459450639784 L 154.3433190640062,465.30838751839474 L 154.91252919100225,464.7781806909479 L 155.6355798393488,464.4247562084347 L 156.77400005981326,463.2794301365502 L 158.49701442569494,462.1618968839757 L 161.2353765256703,459.7834323341958 L 162.66352980025113,458.2336971680634 L 163.29684015735984,457.99650940392166 L 168.404347024858,457.123924206011 L 169.3914906643331,456.41720507806167 L 171.40423811413348,455.44627853296697 L 177.21171954087913,455.19105795631185 L 183.62687126360834,454.0291375895031 L 185.744743084535,453.38379942951724 L 186.18575271964073,453.17124454211444 L 187.36006904393435,451.57902722992003 L 188.50874527730048,450.897745387163 L 188.9292428251356,450.4668941926211 L 189.48819690942764,448.361975110136 L 190.1753514520824,446.9978140220046 L 191.49581632204354,445.1555533213541 L 191.68298900686204,444.57399478787556 L 191.34197576902807,442.45457312557846 L 191.20351923443377,440.0899513717741 L 191.3881279155612,437.37032371852547 L 191.68298900686204,436.03624713700265 L 195.46233896538615,426.2302248990163 L 196.2187217772007,424.8793993294239 L 199.6339823771268,420.0316332108341 L 201.6723699197173,417.8356784321368 L 204.0030545182526,416.0015236698091 L 212.92324347607791,411.84859404852614 L 222.81775603070855,410.0640742168762 L 234.4557950347662,409.94264016952366 L 241.19401191174984,408.4497968684882 L 248.0758133288473,406.0754545331001 L 253.43972115032375,404.8866430236958 L 254.55250127986073,404.89113401947543 L 256.2139794174582,403.9915581168607 L 257.11651074141264,403.12961920630187 L 257.73187301307917,402.80794293805957 L 262.3676021490246,401.4303057179786 L 264.8187952004373,400.2236352316104 L 267.4751090183854,399.3252567057498 L 269.76220544055104,398.90081169782206 L 270.17244697734714,398.5332001117058 L 271.0390821658075,397.2214688286185 L 272.2236545328051,396.38657813193277 L 275.0620130300522,395.7519547371194 L 280.05413948372006,393.8517547668889 L 281.0951273124665,393.2339999191463 L 284.74627681076527,389.11690285848454 L 292.43830522708595,383.3779570837505 L 295.11000309325755,380.5357427364215 L 297.1919787786901,379.4104895386845 L 298.50731564313173,379.14446436148137 L 299.12267791479826,378.841309028212 L 303.7045628335327,375.8275017454289 L 305.03015573881567,375.2574069695547 L 307.8274900633842,374.8358327485621 L 310.6376444660127,374.7823972995393 L 313.5913833770901,375.12083522742614 L 316.7040908783674,376.0264624450356 L 319.23733221180737,377.28284299140796 L 322.75258920900524,379.6037046215497 L 323.398719612509,379.9009789740667 L 324.8166168425232,380.15962787438184 L 325.4576192088425,380.5015488495119 L 329.63182662427425,383.77524473750964 L 334.8444578945637,390.07081949105486 L 336.982841771096,393.5786758782342 L 338.6930360905826,395.0622114771977 L 340.69039949029684,399.3177836211398 L 342.1647049114108,403.3809961103834 L 342.3441855888814,404.9495171541348 L 342.1647049114108,409.68329517543316 L 341.58011076785624,410.64881605887786 L 340.7980878651142,413.07279423996806 L 340.13400940969586,414.10079548787326 L 338.7520083133131,415.54951838450506 L 338.2443344462663,416.32141688792035 L 336.12133458815515,422.3312909398228 L 335.9059578087181,425.49827364087105 L 335.04445062577724,428.1873783939518 L 334.9367622192949,429.7249554740265 L 335.01368249580264,431.4095443356782 L 335.47520421631634,434.5154618071392 L 335.9059578087181,435.90936327027157 L 335.65724889561534,437.08926308946684 L 339.05712544731796,444.08943885657936 L 339.79812417924404,445.21916732471436 L 345.7902143187821,451.2967868866399 L 347.797833731398,453.9182824655436 L 349.6900727301836,454.8447181484662 L 355.27192133292556,459.44726607203484 L 362.64088456332684,462.6323115853593 L 366.9740605670959,465.61161834560335 L 370.6559781637043,467.4727483410388 L 372.0969514846802,467.8020981037989 L 378.0864776223898,467.4300572290085 L 379.5069388560951,467.5611816602759 L 382.1196645312011,468.26415751175955 L 383.3734651654959,468.9825354553759 L 388.22713508456945,473.4151986199431 L 388.68609277158976,473.64126409962773 L 390.2142424117774,473.75888532353565 L 391.6193196270615,474.1530231866054 L 392.4808268100023,473.4197809007019 L 393.86026390455663,472.8607924426906 L 396.6960583664477,472.3828249871731 L 403.58811582811177,473.1280566006899 L 404.2342462297529,473.91928462078795 L 405.2701060511172,474.06135905208066 L 405.89572436735034,473.696255331859 L 406.07264100946486,472.871482568793 L 407.07260469533503,471.8163775061257 L 408.3494814205915,471.543112593703 L 411.25706815347075,471.59196276497096 L 412.50317678041756,471.1492841979489 L 415.5953721962869,468.7766151162796 L 416.7466124314815,468.17265552608296 L 418.79525601677597,467.93476206529886 L 426.1565272063017,465.6832396974787 L 427.8641575239599,464.5466224872507 L 429.8333167973906,463.8931664521806 L 431.3358263466507,463.8931664521806 L 433.36652184836566,462.98859195318073 L 434.78698308207095,462.7617252911441 L 435.4074733927846,462.51355989137664 L 435.8023308478296,462.1207958194427 L 435.87412308715284,461.5926160272211 L 435.0382560286671,460.17744383309036 L 435.33568112179637,457.8961657695472 L 435.63310621492565,457.31544787669554 L 436.75614235550165,456.46735446015373 L 436.1100119855255,453.38379942951724 L 435.48695767112076,453.6388830402866 L 435.52541781030595,454.31008810317144 L 435.0382560286671,454.91307187639177 L 434.5562222208828,451.8521855510771 L 434.6023743990809,451.09194980049506 L 435.07415213249624,450.700517936144 L 437.7022618558258,449.82072049286216 L 438.2099357228726,449.51132892863825 L 439.33553589880466,447.98298629326746 L 439.73552135936916,446.8644588920288 L 441.05598626099527,446.2371540227905 L 441.59442822635174,445.007125264965 L 441.89954536035657,444.7102886065841 L 441.48673985153437,446.9978140220046 L 442.094410084188,446.76141530415043 L 443.46871917136014,446.7341396273114 L 444.832772186026,445.74933058815077 L 448.7967308256775,445.4039576794021 L 453.16323896311224,445.473635350354 L 458.5399668291211,444.2030004528351 L 463.52952928096056,442.1488800449297 L 462.64751001261175,441.13363155256957 L 463.72439397498965,440.62536468263716 L 465.70893733017147,439.07380522973835 L 466.42685997113585,438.8727289494127 L 472.421514114365,438.9392491001636 L 480.7750569805503,438.34061431512237 L 483.61597948148847,439.2113906191662 L 484.68773543834686,439.8631067601964 L 485.95948412641883,439.60905869910493 L 486.6876628100872,439.89032732276246 L 488.51580157876015,438.94680831069127 L 489.5439693592489,438.7699275673367 L 490.8362301327288,438.2620134963654 L 494.50019967742264,437.4670381261967 L 495.6411839015782,436.7659208676778 L 496.12834568321705,435.5513949766755 L 495.7770764026791,433.264002321288 L 496.00783726386726,432.6044908068143 L 497.08472122624516,431.3884252742864 L 498.75901941023767,428.9379917336628 L 499.3846377264708,427.25612248061225 L 500.0,426.1639512795955 L 497.8626290895045,424.3303354261443 L 496.9801739603281,423.0668278071098 L 495.8241902869195,419.92631254857406 L 490.7052992209792,415.7147860941477 L 490.31780046597123,414.54402523767203 L 490.30803157761693,413.19451748300344 L 490.62063561193645,410.09339872933924 L 490.64994224719703,407.0749379778281 L 491.3793516717851,403.14305521920323 L 492.7014062348753,400.1172974179499 L 493.11169903352857,398.243889701087 L 494.48585427366197,395.2943947808817 L 494.91568481735885,393.81583528779447 L 494.7170509956777,392.5500742844306 L 493.85413364320993,389.82681575836614 L 493.52199183031917,387.81128821196035 L 492.56789827533066,385.29018091829494 L 492.1673743352294,383.32635739585385 L 491.55193515494466,382.07189255580306 L 489.7121301740408,379.26606047153473 L 488.7580365873873,378.29038987262174 L 487.6053092107177,376.69252654723823 L 485.26729155890644,371.7939673764631 L 485.25752263888717,370.3872689213604 L 486.4297877922654,367.9913110877387 L 489.14227907918394,361.1716454331763 L 489.24648040160537,359.63392271101475 L 488.71896106377244,357.74035916570574 L 488.93062007054687,356.229406921193 L 490.545740891248,353.49703054036945 L 491.00162177346647,352.00563319632784 L 490.7150681093335,348.4987532477826 L 490.786706533283,347.09918664675206 L 491.09931056946516,345.8478878149763 L 493.710856763646,339.49696520669386 L 494.26768270507455,337.5559434471652 L 494.48585427366197,335.47794064087793 L 494.47282912023365,33.67049918603152 L 494.46306023187935,16.93661742703989 L 494.345833722502,16.73216753359884 L 462.98122888430953,16.713975362945348 L 462.98122888430953,0.0 L 334.559583844617,67.70764213940129 L 272.2927676439285,100.86971861775964 L 211.04842715896666,133.7180302971974 L 210.40368134342134,133.63196040969342 L 179.3581931013614,118.31255447864532 L 155.80543286912143,105.41283669695258 L 155.31698908656836,105.35639538802207 L 154.8578519076109,105.59274773532525 L 135.88832267932594,122.54697873489931 L 132.19243120402098,124.62491712346673 L 84.51054702140391,136.21299252891913 L 71.85333992354572,162.0401784456335 L 71.04252321645617,163.10026792110875 L 70.01027864590287,163.66390752559528 L 45.184308199211955,171.91690487693995 L 44.50374315679073,172.04936637636274 L 43.81992184743285,171.9706049989909 L 36.662591978907585,169.3069835137576 L 35.41217580810189,169.18086649663746 L 34.822786966338754,169.4125310247764 L 30.680783497169614,172.7600734224543 L 30.11093240045011,173.40016736695543 L 29.71692105382681,174.6072029476054 L 29.16335143893957,177.8288061004132 L 28.570706268772483,178.76814609393477 L 23.881645746529102,181.53357552690431 L 23.4876343999058,182.46116363303736 L 23.152236321941018,196.77996386308223 L 22.728918371722102,198.98964120913297 L 21.517577724531293,201.2203017482534 L 3.6112278662621975,226.33694383734837 L 2.8753058798611164,228.28663214854896 L 3.6535596549510956,229.94505132129416 L 4.093159087002277,230.5095027810894 L 4.6695227753371,231.9055393585004 L 5.744099134579301,232.92609205190092 L 6.02088394202292,233.43646424775943 L 6.177185975015163,234.737203725148 L 17.303935831412673,240.07350393291563 L 17.896580999717116,240.78311572503299 L 19.21212300285697,245.30754832318053 L 19.140484547242522,246.0545227220282 L 18.77903613075614,247.0349093885161 L 18.870212333276868,248.2634639274329 L 19.661491261795163,252.02255334099755 L 19.53775215893984,252.5298721487634 L 17.284398084506392,254.066820921842 L 16.981562938541174,254.75882359640673 L 16.369380054995418,258.45458265719935 L 13.699220556765795,267.900525291916 L 13.71550203859806,268.4886701395735 L 14.383041897788644,270.46262148208916 L 14.79984725639224,272.55312221171334 L 15.249215576797724,273.3052415288985 L 16.607089336961508,274.80624303920195 L 16.857823837548494,275.48812283203006 L 16.086082622408867,277.02393525559455 L 15.985137594863772,277.7640581880696 L 17.645846500992775,278.81479647383094 L 18.173365807160735,279.5240212692879 L 20.407182136550546,286.9326809742488 L 20.459282813593745,288.3339731586166 L 15.858142165467143,300.5676657441072 L 15.451105695217848,302.64677384635434 L 17.792379645630717,321.2374433516525 L 17.697947178035975,328.0642656185664 L 17.001100685447454,333.5716436621733 L 12.009205017238855,350.91744762612507 L 8.290519498288631,357.95425045257434 L 4.259229976683855,364.0009583211504 L 0.7391782812774181,368.20957270730287 L 0.0,369.4027192243375 L 14.396067082881927,377.2131214076653 L 15.324110297486186,377.46024184301496 L 17.619796194136143,377.61305006500334 L 18.42410030774772,378.082834798377 L 22.341419614851475,383.1751935714856 L 25.666093753650784,388.5605898555368 L 28.53488707356155,391.8415978420526 L 30.478893410414457,395.89547389326617 L 30.977106081321836,397.3768040384166 L 30.99013126641512,398.60634553665295 L 30.19885227456689,401.1806685850024 L 30.05883172340691,402.4837379027158 L 30.192339714616537,404.57992320368066 L 29.195914339274168,406.6849743714556 L 28.235308192670345,410.567530865781 L 25.884265353903174,416.8764038044028 L 25.82565208338201,417.5174630903639 L 26.161050161346793,419.92631254857406 L 26.656006567180157,420.7818389032036 L 28.66839500144124,423.03816056158394 L 30.794753709807992,426.8089981540106 L 32.4163871537894,428.117901975289 L 35.95597659610212,428.0719670942053 L 37.681811364367604,428.7572263777256 L 38.19630548544228,429.17265966767445 L 39.036428827792406,430.2009298331104 L 39.56720443069935,431.4823907148093 L 40.89577158726752,432.7298332573846 L 41.30606438405812,433.9623928349465 L 41.56982403807342,436.9353995430283 L 42.279695715755224,437.69728964101523 L 42.872340854257345,437.6166786090471 L 44.01529934257269,437.0620495607145 L 44.630738554522395,437.25395251018927 L 46.82873568683863,438.8260444509797 L 47.86098025739193,439.8610649909824 L 49.130934143438935,442.8142363871448 L 49.990595230832696,443.7408737097867 L 67.97509610652924,452.37635461846367 L 70.17634953558445,453.8503738800064 L 71.19882521778345,454.8311613132246 L 71.75890745595098,455.9965191963129 L 71.64819354005158,457.5686556454748 L 70.91552781872451,458.9116826346144 L 68.80545059032738,460.9963217745535 L 68.16070477478206,462.44319364707917 L 68.13791070133448,464.50391524098814 L 68.59704788029194,468.4538794285618 L 68.36910742335021,472.34065851569176 L 68.93244595825672,474.88488390203565 L 69.02687845565379,477.5650746785104 L 69.92887133173645,481.14366179332137 L 69.8994194213301,482.8315551779233 z" /></g></g></svg>