<svg xmlns="http://www.w3.org/2000/svg" xmlns:xlink="http://www.w3.org/1999/xlink" width="464.38721742108464" height="499.9368066578172" viewBox="0.0 0.0 464.38721742108464 499.9368066578172" preserveAspectRatio="xMinYMin meet"><g transform="matrix(1,0,0,-1,0,499.9368066578172)"><g><path fill-rule="evenodd" fill="#D2EBD9" stroke="#A6A6A6" stroke-width="0.25" opacity="1" d="M 2.626404508948326,20.22406646516174 L 2.6534644216299057,21.007691434118897 L 3.8596914932131767,25.58498629136011 L 3.9478659927845,28.8381743603386 L 4.535695947706699,30.04417392006144 L 4.55450651422143,30.789702537935227 L 3.979608815163374,31.44799768552184 L 4.267645478248596,32.83326667919755 L 4.820205640047789,34.10748678445816 L 5.30575318261981,36.12215872434899 L 8.321320850402117,42.3328657373786 L 9.360604211688042,43.429558457341045 L 9.897880803793669,44.65604652510956 L 10.70555917546153,45.33419038821012 L 11.495602637529373,46.854681472759694 L 12.193944599479437,47.12402995163575 L 12.548993907868862,47.44676182605326 L 12.875827364623547,47.467092170380056 L 13.664695169776678,46.806403782684356 L 16.838976923376322,48.08594299387187 L 17.9852453507483,49.253993277437985 L 18.434347417205572,50.03837698418647 L 19.511251911520958,54.19785088440403 L 21.59334560483694,56.470077260863036 L 21.966029793024063,58.46960849547759 L 22.184702556580305,61.813578775618225 L 22.772532511502504,63.45338378660381 L 23.350957181304693,64.26969554880634 L 23.18636478111148,65.40513881808147 L 23.54846803098917,66.39283779170364 L 25.021569915115833,66.76168857654557 L 26.919085010886192,68.70346920378506 L 27.20006773248315,69.32410713797435 L 27.545711755752563,71.39100192254409 L 27.30705276876688,72.12577216187492 L 26.742736011743546,72.24079123558477 L 25.554143849760294,71.91874569840729 L 25.75870867073536,72.50151278916746 L 26.522887621074915,73.86800824385136 L 27.892531409859657,75.14414505427703 L 30.170960322022438,80.36525510251522 L 31.17850086092949,81.32188474619761 L 32.45997017621994,83.55231139389798 L 32.86439719051123,85.66726038837805 L 33.1747713945806,86.25963920122012 L 34.646697621792555,88.73649474792182 L 36.138610046356916,90.55371344275773 L 36.81696581095457,91.12368415715173 L 37.23079811036587,92.43722773715854 L 38.486402887851,94.33830730058253 L 38.69331902265549,96.51535409642383 L 38.586333986371756,97.1131520816125 L 38.216001108288765,97.82676725834608 L 38.413511987775564,98.2588543202728 L 38.07727324590087,98.00422607688233 L 38.036125138401985,96.74932053452358 L 37.83038466051221,96.51149762887508 L 36.81696581095457,95.86751683335751 L 35.9117076843977,95.86494622984901 L 35.14752873405814,95.06171936308965 L 34.13175857067108,92.94195568282157 L 33.661494594067335,91.44721611542627 L 32.064948447048664,89.83109353855252 L 31.63465692102909,90.159658129327 L 31.825113832950592,90.68592933798209 L 32.45997017621994,91.44721611542627 L 33.661494594067335,93.92718850681558 L 35.454375963658094,96.41508686449379 L 35.636603247374296,96.9087339034304 L 36.51246989145875,97.96564742503688 L 38.615725465118885,99.77409233571962 L 39.55155075713992,100.13176033273339 L 41.17513710260391,101.28088479256257 L 42.126245964318514,101.37226246157661 L 42.89277622848749,101.87423282582313 L 45.94714068993926,105.85873166611418 L 47.527227614074945,107.11645254353061 L 47.96104610711336,108.06644596392289 L 50.5992269590497,110.25989054841921 L 52.19224613532424,111.97447219584137 L 54.17676007002592,115.00677816197276 L 54.91625016927719,115.85530547611415 L 56.372892800718546,117.06576956203207 L 57.5532553344965,117.54127100249752 L 58.80415748804808,117.75448981206864 L 60.38189309462905,118.87116714660078 L 60.36543386802077,119.60932828998193 L 60.80983330309391,120.52478664694354 L 61.496418699622154,121.38095685467124 L 63.472703009843826,122.7820082064718 L 63.82540097460151,123.42513102525845 L 64.10755935311317,125.49366695759818 L 64.79884737357497,127.38451547035947 L 65.04456030204892,128.86415393371135 L 65.54656710103154,130.204341663979 L 65.34082659333944,131.68893225630745 L 65.54656710103154,132.2025109338574 L 65.33142133802176,132.4009570851922 L 65.64649816974998,133.3557143690996 L 65.74407795071602,134.3976513724774 L 65.33142133802176,136.001972861588 L 65.3619884736836,138.8267146316357 L 65.15154536813498,139.62970499601215 L 66.03211464360356,143.33756831893697 L 67.1066677980125,147.06981966970488 L 69.04650665447116,149.58735560206696 L 69.9059140495956,151.67895903578028 L 70.10342489928007,153.11050806287676 L 70.43496101349592,153.88517585862428 L 70.59367509931326,154.89743634685874 L 71.76110537722707,157.85749049438164 L 73.91373868659139,160.92699662782252 L 74.85426660627127,162.78165888786316 L 74.93656282126904,163.42100250069052 L 75.64431006833911,165.30436041392386 L 75.53497371450067,165.81983176944777 L 75.82301037758589,167.63108183583245 L 75.46325844153762,169.07651901245117 L 76.23449136316776,171.05704207951203 L 78.12377683073282,173.37815238628536 L 79.49812327325344,173.6888788198121 L 81.06527794152498,174.5359690268524 L 83.46362414956093,176.89729645801708 L 84.49467788264155,178.4749718522653 L 85.16480404883623,178.77824566652998 L 88.34849109128118,179.12093544891104 L 91.90603797882795,180.94389358023182 L 97.15653514117002,184.73057731473818 L 100.68233923241496,187.0194514123723 L 102.38351910561323,188.96611246280372 L 104.12349580228329,192.50143055990338 L 104.71720403805375,194.2308153170161 L 105.27446685358882,196.85809225495905 L 106.11388802155852,198.7400264958851 L 106.96741712838411,202.84380108723417 L 107.5105720050633,204.08099504048005 L 109.8959859572351,207.62970024207607 L 109.69847510382533,208.29671185743064 L 110.0934968367219,208.51775283692405 L 111.63713827729225,212.21657787729055 L 112.59765242412686,215.54122256441042 L 112.79398764669895,216.8146314690821 L 113.36653403192759,218.06460536457598 L 113.64751672372222,219.3747613108717 L 115.76488023996353,220.9165039593354 L 116.82062285393476,221.26451762020588 L 117.2908867970109,221.81715886248276 L 118.50887047126889,223.81588713638484 L 119.18605057895184,226.19084088457748 L 119.51758669316769,226.8746335124597 L 119.97139141336083,227.33234292874113 L 123.24913123622537,228.69917124928907 L 128.48199351504445,229.60313910106197 L 132.6508835554123,229.5179245742038 L 137.8085035905242,231.21461385209113 L 145.71364085748792,232.5816159658134 L 146.82111249119043,233.5825558337383 L 162.3515799306333,240.33937360765412 L 163.29916182160378,241.08871150342748 L 165.1331912688911,243.927237956319 L 166.52987525239587,245.39953314326704 L 166.96486943215132,246.56738279946148 L 168.6825085580349,247.76373281003907 L 170.26141982525587,249.90856234915555 L 171.46059292554855,250.66398758720607 L 172.07193607836962,251.5843831342645 L 173.05949041619897,252.38038157159463 L 173.75077844038606,253.5157343177125 L 174.5584567822516,254.37520524905995 L 183.24070525541902,258.9201617562212 L 185.2169895656407,260.2524503474124 L 187.58006597682834,261.4790978706442 L 188.69576723873615,262.2290071998723 L 192.24626018479466,265.59218586422503 L 195.2230310626328,270.13189481571317 L 196.00366923958063,271.0777584994212 L 196.54917545616627,271.5386595861055 L 197.64606614783406,271.9443583432585 L 198.0975195541978,272.44986505480483 L 199.52124370634556,274.5009755878709 L 200.14199214056134,275.97838501352817 L 201.17892418429255,276.73420533910394 L 201.5715946033597,277.6414136197418 L 202.76136242225766,279.43359854165465 L 203.17637037858367,281.25106920395046 L 203.74421410635114,282.4217982413247 L 205.1220875196159,283.7011452736333 L 205.51475793868303,284.64541679015383 L 206.7209850102663,286.28161280602217 L 210.46898880973458,290.37358303088695 L 213.4245978295803,295.6283272379078 L 215.2386410832405,299.97922291606665 L 215.5243264324963,301.2191162779927 L 216.01104963198304,305.47936918307096 L 216.5424479097128,307.7021731636487 L 216.49542152136564,309.2612147578038 L 215.2386410832405,310.52916521951556 L 214.91768591105938,311.1019493089989 L 214.18054715543985,312.78815429098904 L 213.94071254134178,313.89912486448884 L 213.05191364139318,314.21310411719605 L 212.26187017932534,315.3791877334006 L 210.19623571261764,316.7820458286442 L 208.91476639732718,316.9623986822553 L 208.49505581334233,317.44202199205756 L 208.54796051606536,318.7323007788509 L 210.46898880973458,322.2832177495584 L 210.68060759827495,323.45494497334585 L 210.34907148778439,324.2901969179511 L 210.46898880973458,324.9338991153054 L 210.25266738981009,331.5509412596002 L 209.68012100458145,333.3673207038082 L 210.04104859754443,334.15982088213786 L 210.79464660957456,338.93821157189086 L 210.86165922507644,340.87442419072613 L 210.7382149323821,341.6660370850004 L 209.68012100458145,342.8696662094444 L 211.2566809542477,345.2038579364307 L 211.9303340949118,347.2418239777908 L 212.98137405142188,348.4586102999747 L 213.14361510798335,349.0616586403921 L 214.11000756919384,350.4379229545593 L 214.6590407267213,353.4824685091153 L 214.88711877539754,354.01736351661384 L 217.53117790818214,356.90487882029265 L 218.69860818982124,358.5503452643752 L 219.57800180464983,359.3644021889195 L 220.1893449537456,360.52632253291085 L 223.58935344219208,364.0604358627461 L 224.15837283059955,365.2601713454351 L 224.68741979449987,367.61104941368103 L 225.73140577971935,368.92465021973476 L 226.14288676530123,369.86923051904887 L 226.3662621565163,370.9238880951889 L 226.51792227104306,374.44896191125736 L 225.85367441549897,374.8886606930755 L 225.73140577971935,375.1391499643214 L 225.98064567893744,376.40303849056363 L 226.9776053056121,378.6202679411508 L 227.03286132216454,379.2974532134831 L 226.12642751261592,381.2573911533691 L 226.10761697217822,381.833342588041 L 226.65782579034567,382.8809301741421 L 230.926646951586,386.51607990823686 L 234.21026508882642,390.4408474541269 L 237.0083356834948,392.42471509380266 L 237.98766036704183,393.35693451575935 L 241.25481927767396,397.78957763314247 L 244.88290575519204,401.82295705983415 L 245.10392982885242,402.22729227738455 L 245.11803774163127,403.40691183740273 L 247.77150215953588,406.69401745311916 L 248.00310717895627,406.8261948088184 L 248.25234707817435,406.75588697660714 L 248.7837453559041,406.37625295016915 L 250.01113431155682,406.5393491247669 L 251.06922820955515,407.0849417950958 L 252.11674119532108,407.937276229728 L 253.80851581320167,410.0367908347398 L 254.83604257553816,410.8829206530936 L 256.03521567955613,411.3912760927342 L 259.98190601170063,412.30258814478293 L 264.1425664536655,414.1711491467431 L 266.1976199783385,414.81400009291247 L 266.8242466971278,415.61775764869526 L 269.475359801203,416.54446143470705 L 271.69970835372806,417.56600149022415 L 272.66610081121325,418.6048306301236 L 273.23512019589543,418.4537827866152 L 273.5713589377701,418.6697694407776 L 274.4389959573746,418.4537827866152 L 275.217282820493,418.884359870106 L 276.66569582000375,419.296642574016 L 277.59211583063006,419.89822557521984 L 278.5679135732353,421.16674820519984 L 279.40498342365026,421.573693705257 L 280.2126617990434,422.57292385958135 L 280.76874892786145,422.763762596529 L 280.57123804837465,422.50507302908227 L 281.1520140618086,422.30577013269067 L 281.7657085247338,422.49235116830096 L 284.22518906369805,424.1508912672289 L 285.3279580697417,425.1424973825924 L 287.5452526509762,426.15566313266754 L 289.07948883622885,426.5109188728966 L 289.992976590991,427.3249118421227 L 291.03461126610637,427.6930514513515 L 294.0525302775204,430.1267529032193 L 297.093962457031,433.4533035065979 L 299.64632012322545,437.74392297351733 L 301.5520648434758,441.8643615138717 L 304.7263466268778,446.66602697968483 L 305.5069848038256,448.6390965706669 L 306.1712326593697,449.71743387309834 L 312.4069328196347,462.93089187704027 L 314.9122640937567,471.52956514572725 L 320.1557073146105,484.8637177059427 L 320.49077036976814,486.9107647445053 L 321.1115188039839,488.321584506426 L 321.8510089032352,490.8703508465551 L 322.2319227196276,491.4130907491781 L 322.6904300674796,494.2645425433293 L 322.9490752518177,494.8035851349123 L 323.503986723721,495.3949111388065 L 324.5044733211398,495.56015667365864 L 327.1626403667033,495.165902598761 L 327.51298704743385,495.2325740358792 L 328.6510258205235,496.29663129290566 L 329.70206577703357,496.71134509006515 L 330.066520370543,496.52863148925826 L 330.5708784535527,496.7679016808979 L 331.25628818944097,496.785303927958 L 331.9428735822439,496.61273630335927 L 332.4331237562001,496.2850317754783 L 334.1366549693048,497.30597095377743 L 336.1928841806948,499.42298447014764 L 336.79247073084116,499.71476052794605 L 337.772263944149,499.38919007312506 L 337.9513682946563,499.9368066578172 L 338.21547570452094,499.9280941123143 L 338.8065644726157,498.40081565408036 L 339.8950372412801,497.1768830078654 L 339.7516067251563,496.6504392330535 L 339.8480108231306,495.7631029631011 L 340.5298935882747,491.99067998630926 L 340.9331449456513,491.40295864408836 L 341.74317460134625,491.40295864408836 L 341.74317460134625,490.4318927656859 L 342.5332180634141,487.82713975152 L 345.3830177038908,485.3937574289739 L 347.82486333325505,481.8947173706256 L 348.2704384550452,481.542741232086 L 349.5025300383568,481.2484994023107 L 350.07154942303896,480.84612946165726 L 351.0485228225589,479.9449685742147 L 352.35938362032175,478.24723182991147 L 353.6408529393375,477.80350738950074 L 355.21153457835317,476.3172429976985 L 356.3707352280617,475.64637217856944 L 360.47966662049294,474.38567459210753 L 364.3522903956473,473.5081183682196 L 367.767582423985,472.4927894640714 L 368.588193051517,472.4323987378739 L 369.1830769777298,472.59631931828335 L 370.84898705407977,473.6605924963951 L 374.8591630347073,474.3640921097249 L 377.28337375074625,475.46500486461446 L 379.7510839179158,475.9789087092504 L 380.96318927407265,476.5591405215673 L 381.2500503100455,476.15023044031113 L 380.66883148252964,475.7449165158905 L 381.40931428968906,474.69626110978425 L 381.8324140794575,474.4923561117612 L 383.2298615910113,474.38567459210753 L 384.77350306138396,474.5209283842705 L 385.42834563180804,474.84757825825363 L 385.93858202919364,476.4468284319155 L 386.54287123680115,477.1063649277203 L 387.31292847171426,477.4088232596405 L 388.06417516991496,477.3051196835004 L 390.4507647790015,475.37288616085425 L 392.61633034050465,475.0274673993699 L 393.38756323233247,474.5842408868484 L 394.41273868083954,474.6058250241913 L 395.59545255824924,474.12237957865 L 397.06502744182944,474.00153092388064 L 398.30182168260217,474.25905973883346 L 401.88758439570665,475.54705056687817 L 402.50010323151946,475.9314011102542 L 404.11545994505286,477.5254943096079 L 404.93489488586783,477.2475082031451 L 405.29934947937727,477.3051196835004 L 406.21401289105415,478.2443502875976 L 407.34499771893024,481.0465862425044 L 408.07978516444564,482.1443004854955 L 408.0221778303385,482.5165516352281 L 408.1632570065558,482.81092416588217 L 408.43365878611803,482.92204324668273 L 408.77812715247273,482.7373281698674 L 408.9062740728259,482.44729192741215 L 408.7510869577527,481.8370133661665 L 408.88511219248176,481.4172520390712 L 408.5935485288501,480.33567705610767 L 409.0332453362644,478.7875735750422 L 408.48152009770274,478.2240640386008 L 408.57259849086404,477.24530436936766 L 409.17132680490613,476.596031491179 L 410.04196156188846,476.9162646275945 L 410.4428615756333,476.3172429976985 L 410.1853920780122,475.9976240196265 L 410.05842078477144,475.46068671066314 L 410.1313117146492,473.7253245380707 L 410.26651260629296,473.2607247279957 L 410.9354630894959,472.31162112625316 L 411.68435844406486,471.766747161746 L 412.6989529505372,471.4346978063695 L 414.8033842071891,471.2248508813791 L 413.54072545841336,472.25698530394584 L 411.3316604755819,474.8087236774154 L 410.9013689532876,475.5571264908649 L 411.0389211550355,475.83350918861106 L 414.4283486753702,472.18941088812426 L 415.66396725550294,471.4735067989677 L 417.1547040231526,470.9517853115685 L 420.1455828398466,470.5249926056713 L 421.4670245796442,470.63851040648296 L 422.1653665713966,470.81669928785414 L 423.7889529131353,472.25410977052525 L 424.3779585249722,472.39789035124704 L 427.13135404139757,471.326897806488 L 428.465728033334,470.9992106137797 L 429.98820762336254,470.283602504991 L 430.02976739779115,468.89460876304656 L 430.3030025139451,467.95913157006726 L 430.81961100548506,467.25908983824775 L 431.70053297653794,466.9218907561153 L 434.6493819579482,464.65365551179275 L 435.9483685940504,464.53164034476504 L 436.31417517736554,464.2475651772693 L 436.60682041943073,462.86218815483153 L 437.00398188084364,462.3835589387454 L 438.5358902737498,461.4265376627445 L 439.5153560452163,460.49711048742756 L 442.5522972084582,458.5628199009225 L 443.07786421105266,458.02312108920887 L 442.9733480513096,457.7669355319813 L 442.59858295693994,457.4780725236051 L 441.89384534955025,455.8925624215044 L 440.37836093455553,453.534964856226 L 440.1424530521035,452.9399685594253 L 443.6228413693607,449.345362351276 L 445.0009616725147,448.8372538178228 L 441.91922786831856,445.08125619916245 L 443.0256061293185,443.7601088928059 L 443.75572619587183,442.2073230352253 L 445.8161877691746,435.7672271053307 L 445.964003495872,434.83419677149504 L 444.54556980356574,428.52256621280685 L 444.4485190808773,426.8896737364121 L 444.993496209383,423.7828219020739 L 444.7740123048425,423.27011676644906 L 443.8662147410214,422.2521512792446 L 443.7348229922354,421.71817252459005 L 443.90951428189874,421.1699341018684 L 445.3548235669732,420.5006993897259 L 446.17303581535816,419.7150333444588 L 447.4750086553395,416.5842863060534 L 447.6078934818506,415.44143406068906 L 446.8090913631022,413.8496905397624 L 446.2671003565192,411.91888768738136 L 445.571321349591,410.169888978824 L 445.56684206426144,406.76779679581523 L 445.83111863955855,405.63223824324086 L 447.2943449765444,404.20357649447396 L 448.20512872189283,402.13272473821416 L 448.80236392840743,401.28321133134887 L 450.87924947962165,399.49760272260755 L 451.0658854916692,398.78329720068723 L 451.05692695081234,397.979236592073 L 450.7792125791311,396.5488374726847 L 450.39250276237726,396.0274031534791 L 449.1666774377227,395.1377897965722 L 453.0800613164902,388.5609293594025 L 454.0281722396612,387.7497985973023 L 455.8631774932146,387.0675146440044 L 463.93929098546505,380.8284190213308 L 464.38721742108464,380.05384692456573 L 462.71197255700827,378.17178403027356 L 461.7534100189805,377.43590620253235 L 460.68137278035283,376.991103567183 L 459.4839161261916,376.81691401451826 L 459.0135933831334,376.5693518901244 L 458.25809080153704,375.34774624416605 L 457.8713810145855,374.11425504647195 L 457.3189384229481,370.0143947103061 L 456.36784129217267,368.87385917827487 L 456.4947537854314,368.31829738710076 L 456.9620903506875,368.30947975162417 L 458.0356206893921,368.7398098167032 L 458.58806328475475,368.7468648790382 L 459.1912708543241,368.5634378506802 L 459.66010051965714,368.1437127357349 L 459.8049300946295,367.4331308705732 L 459.2345704212785,366.2204029667191 L 458.1013165637851,365.9472517943941 L 421.50572752952576,367.67114893347025 L 416.32172568142414,366.2204029667191 L 410.9585532620549,365.76398958591744 L 409.2959996573627,364.8214166685939 L 412.5000891238451,356.1732063186355 L 407.45187778025866,355.46055023698136 L 401.19209571927786,353.5609231614508 L 392.7451181933284,352.03403626196086 L 391.67084131389856,351.9393009399064 L 390.43904365971684,352.22176100546494 L 388.4706031419337,351.18799954652786 L 388.0667462348938,342.4236398357898 L 385.9291710816324,342.28593158721924 L 384.33903225138783,341.1178205627948 L 383.97247912734747,340.66153439320624 L 383.8560182787478,340.0427679992281 L 383.97845151647925,336.71851868834347 L 383.36628537997603,335.67985499976203 L 383.17367700859904,335.0184283317067 L 383.27520701661706,334.4321591728367 L 383.6178707256913,334.1285976818763 L 384.0993916504085,334.09719644114375 L 384.61450700834394,334.3257349343039 L 385.8888577222824,335.3569778916426 L 386.3927749283612,335.22609111713246 L 387.597697019577,333.5128401676193 L 388.1113193295896,333.01578518981114 L 389.49242578446865,332.19450538465753 L 389.7701401859522,331.5704036867246 L 389.93736604228616,330.3173370552249 L 391.49952994659543,327.791289226152 L 389.8841023147106,325.20218530856073 L 388.4706031419337,323.7908225636929 L 388.87446004897356,319.5604283013381 L 383.42239179834723,316.74323086533695 L 378.57610891386867,315.5701194242574 L 374.1336829327047,315.33554791053757 L 370.70089922100306,314.39743090746924 L 367.8739008679986,312.7563760885969 L 364.64304561167955,308.540306316223 L 360.60447653755546,305.2648924384266 L 356.36397901177406,303.3946942826733 L 353.3350522071123,301.7591430777684 L 350.911910764873,299.890935796313 L 347.6810555048287,297.09060678305104 L 344.65212870389223,294.99191547650844 L 341.8251303508878,291.9628168591298 L 339.8058458156884,288.00584933627397 L 337.1807759180665,283.8212306993082 L 334.15184911340475,279.8738891268149 L 331.3248507641256,278.94577716942877 L 328.901709318161,279.8738891268149 L 327.89206705242395,282.89202618971467 L 324.25735488533974,282.42752058105543 L 320.8245711736381,281.730882847216 L 312.9493614807725,281.730882847216 L 308.9107924103737,281.2665380779654 L 304.6702948845923,280.10595717746764 L 300.6317258104682,279.641837106552 L 298.2085843682289,277.32219731109217 L 293.16037302464247,279.40980111062527 L 289.9295177683234,279.641837106552 L 287.70830477774143,279.40980111062527 L 284.4774495214224,278.01792133040726 L 281.8523796238005,275.235886904411 L 278.5679255351424,275.42483367724344 L 277.33015551790595,275.12924731709063 L 274.0558133125305,275.4342585830018 L 273.0688821077347,274.9955993737094 L 270.8620979115367,272.83997224317864 L 269.4750190936029,272.1165994061157 L 267.7086958400905,270.45128949312493 L 264.64935836941004,268.3720844518393 L 262.01107171177864,265.8455670331605 L 261.0480299182236,265.16724827559665 L 257.79309786856174,263.7196518089622 L 255.823714684695,262.3725299453363 L 253.90808265656233,260.53283398784697 L 252.41499457508326,259.78904504701495 L 251.98050593584776,259.4342668610625 L 250.98909544572234,257.6711549074389 L 250.6247819364071,257.2969939275645 L 249.3123575374484,256.56327949045226 L 248.01262433454394,255.5187950837426 L 244.31349859759212,253.50398996053264 L 243.77150761708617,253.03409514483064 L 243.4490006007254,252.41277463408187 L 243.34448444098234,251.52609735634178 L 243.39002362266183,165.2302114390768 L 243.19218945875764,164.80823976919055 L 242.6270556077361,164.64710551779717 L 147.04627508670092,164.6437832629308 L 147.04627508670092,85.10821292316541 L 146.92981420829892,84.0313874608837 L 146.54310439154506,83.526848659385 L 143.60022776946425,82.71971377497539 L 137.26356191188097,79.67077276855707 L 136.22287952154875,79.35779065592214 L 131.35541233420372,78.65793354716152 L 129.59132877737284,78.04595926497132 L 118.15502056851983,70.1016353443265 L 115.13151717185974,65.88264460396022 L 114.19535094127059,63.89053738443181 L 113.81386694684625,61.781165013089776 L 114.11771037429571,59.77963967481628 L 115.5227062702179,55.755132420454174 L 115.89896444231272,53.72974230814725 L 118.15502056851983,17.538831159938127 L 4.212989252060652,17.521199048496783 L 3.9382610581815243,17.26473980769515 L 2.8811546936631203,11.602266530971974 L 1.6545828022062778,8.056171178352088 L 0.7863520905375481,4.253868505358696 L 0.6781032122671604,3.333342692349106 L 1.3802247308194637,0.0 L 1.0486886464059353,0.789682088419795 L 0.1281469203531742,2.1845270046032965 L 0.0,2.954449108336121 L 0.3574006259441376,4.110829920973629 L 0.41148095577955246,6.026601913385093 L 1.0627965554594994,8.164845196064562 L 2.2502130642533302,17.39916473859921 L 2.5829248316586018,18.978331345133483 L 2.626404508948326,20.22406646516174 z" /></g></g></svg>