<svg xmlns="http://www.w3.org/2000/svg" xmlns:xlink="http://www.w3.org/1999/xlink" width="396.2261376250535" height="500.0" viewBox="0.0 0.0 396.2261376250535 500.0" preserveAspectRatio="xMinYMin meet"><g transform="matrix(1,0,0,-1,0,500.0)"><g><path fill-rule="evenodd" fill="#D2EBD9" stroke="#A6A6A6" stroke-width="0.25" opacity="1" d="M 0.0,461.45401829853654 L 0.08158316276967525,462.84584009088576 L 0.815831733867526,465.5075565315783 L 2.051233921200037,467.5394174223766 L 5.774922776967287,469.9003029828891 L 6.328522952273488,472.0865581855178 L 6.981188248842955,473.52391672320664 L 9.195588605478406,472.66497870720923 L 10.722359292209148,470.93421452958137 L 11.92279733158648,468.844614029862 L 13.309711201116443,467.02264889422804 L 15.413391456007957,466.0592647809535 L 17.645273772999644,466.2344176294282 L 18.927294973284006,467.40803260169923 L 19.41679405979812,469.6024193102494 L 19.335210785269737,472.8052076837048 L 18.740819143131375,476.06617217790335 L 18.0764990914613,478.10928433947265 L 18.000743363052607,479.6309714904055 L 19.18952664732933,481.29329290706664 L 19.813055116683245,481.34593107085675 L 21.67198588512838,480.60025458130985 L 22.44702592678368,480.5739378146827 L 23.426023984327912,481.6003529559821 L 24.136963048949838,483.9080391712487 L 25.360710594803095,484.3117282325402 L 29.10188152641058,482.6576005117968 L 32.79643355496228,479.47308945748955 L 36.68911617062986,477.10082106571645 L 40.95475033484399,477.8505804669112 L 42.02698631025851,478.98630461655557 L 42.842817932367325,478.84597554337233 L 43.61203076504171,478.37238109856844 L 44.847432950511575,478.4820072101429 L 46.21103731170297,478.2013673707843 L 46.81708370894194,478.61794544383883 L 46.6772267781198,479.47308945748955 L 46.304275227710605,480.4160385588184 L 46.26931096799672,482.21450595371425 L 45.95463307201862,483.6535493405536 L 46.059525741264224,484.8821905395016 L 47.3065826818347,485.3210334070027 L 48.50702083297074,484.9787340853363 L 50.84962313994765,483.48681866470724 L 62.91227728873491,478.8898281548172 L 66.60682931728661,478.68810784537345 L 70.88411823660135,480.9160627089441 L 77.59724760428071,489.3945581652224 L 81.67640593834221,491.51109135802835 L 83.84418728016317,490.94897384475917 L 87.04924022592604,487.9238293124363 L 88.58766566589475,487.3268287992105 L 90.47573326155543,488.2881955411285 L 97.31706480495632,494.1113607129082 L 99.90441671386361,497.6748258508742 L 104.56631193496287,497.6748258508742 L 105.90660690329969,498.0132338628173 L 108.831946099177,500.0 L 111.29109594412148,499.67470164131373 L 111.5241906773299,495.20089543331414 L 113.79686468839645,494.08500258345157 L 127.86413374356925,494.2080074790865 L 131.64026893489063,492.4377866340801 L 138.92448043823242,487.01078629586846 L 140.61441744863987,485.1893781386316 L 144.20407692156732,479.8020135005936 L 145.08983695320785,479.00384595338255 L 147.56064143776894,475.0930135753006 L 152.14095360971987,473.30479189939797 L 162.16402859054506,472.0515037672594 L 164.47166675142944,470.9385959059 L 166.32477008737624,468.75701082963496 L 166.94247134961188,465.7133484473452 L 164.72807099111378,459.07355841994286 L 166.3713891003281,457.809205301106 L 168.88881259970367,457.6910917367786 L 170.63702337816358,458.17230515927076 L 174.13344482332468,461.1520487247035 L 175.98654815927148,461.43651250656694 L 176.802379893139,458.64479516260326 L 177.2102957032621,455.37289269827306 L 178.39907898753881,453.4575662110001 L 180.32211084477603,452.8498227465898 L 182.95608176663518,453.4400765718892 L 185.3686124831438,454.84810356330127 L 187.1517874095589,456.40069685690105 L 189.06316451355815,457.64734641835093 L 194.26117783598602,458.259801318869 L 196.1958644464612,458.0060646524653 L 197.37299297563732,456.65438650362194 L 197.5827782023698,453.4400765718892 L 196.83104766905308,449.9516037320718 L 195.57816318422556,448.404535275884 L 193.95815458148718,447.32524705771357 L 192.18663440831006,445.2500699656084 L 191.44073119573295,442.89589169528335 L 191.6505164206028,440.54235220048577 L 192.90922822616994,439.1322807390243 L 195.27514004148543,439.59063795022666 L 197.01169606670737,441.58149867039174 L 198.20630667172372,444.1406003329903 L 199.6806311365217,446.1587180495262 L 202.26798304356635,446.51696105953306 L 204.03950333036482,445.27627974841744 L 205.12339394539595,442.9919681418687 L 204.98353712819517,440.42883946653455 L 203.1071241721511,438.3247581496835 L 206.31217722967267,431.65792821068317 L 207.65829951874912,430.25802074279636 L 209.9368008505553,428.6490603266284 L 211.11392938159406,428.74497903045267 L 211.53350005857646,430.3190711811185 L 211.5801189597696,433.19328860007226 L 212.36098643392324,436.7361218603328 L 214.41804767400026,442.8696892745793 L 216.9296437408775,444.0226728860289 L 220.54261272028089,443.8567037153989 L 230.91532974503934,439.5251569142565 L 238.747313875705,439.416022952646 L 242.82647232152522,438.70013765990734 L 245.9849063642323,436.561564123258 L 246.7366370111704,435.21322449762374 L 247.37182023376226,431.68409680202603 L 249.17830466851592,427.31502642296255 L 249.7377321626991,421.88509399071336 L 250.49529001675546,420.7829617885873 L 252.34839346446097,419.0363904675469 L 255.37862544320524,413.785722931847 L 259.01490381732583,409.8084718193859 L 263.02413374371827,406.72017664741725 L 266.4622815325856,405.302537612617 L 270.5647494867444,406.0939518539235 L 275.5063584558666,412.6062827799469 L 279.0785357411951,414.36026827339083 L 281.03070442564785,414.2732135504484 L 282.60409401357174,413.6551496312022 L 283.99100799672306,412.3408218314871 L 285.3079933449626,410.1826215237379 L 286.1937534864992,407.57261055056006 L 287.1844061873853,401.80726133380085 L 288.0818210840225,399.3518427228555 L 289.66686542518437,398.1135315420106 L 294.1073207799345,396.75810845848173 L 295.23783029802144,395.94148087408394 L 294.8707060664892,393.6483829282224 L 293.13997747562826,391.26472223643214 L 291.05377929471433,389.01191544067115 L 289.67852017842233,387.11983398441225 L 288.6645579710603,384.1783757954836 L 288.6762127261609,382.33504713047296 L 289.760103341192,381.24224568903446 L 293.65278595499694,379.83308060467243 L 295.09214616008103,378.48916624020785 L 295.52919879741967,376.6773767443374 L 294.18307651020586,374.5366558516398 L 290.8323393147439,370.22214209567755 L 290.2146381661296,364.987808377482 L 290.3195308353752,359.0688674906269 L 289.1540570575744,352.76060876529664 L 286.23454506881535,347.67062320467085 L 283.33834258653224,343.80110454838723 L 281.86401812173426,339.4067835342139 L 283.3266878332943,332.7073139362037 L 284.4105785600841,330.52990328427404 L 286.17044398002326,325.5002117129043 L 287.10282302461565,323.72951601538807 L 289.1540570575744,322.14437894150615 L 290.3195308353752,323.13505615107715 L 291.3859393764287,324.9314822535962 L 293.24487014487386,325.7673549214378 L 294.8532239943743,324.88839821051806 L 296.8928031604737,321.39498438779265 L 300.35426045767963,319.07829594332725 L 301.123473290354,317.29598176945 L 301.63045433722436,315.3117532134056 L 302.54535130783916,313.53450634423643 L 304.1070861425251,312.62235462572426 L 305.8786064274609,312.2523577725515 L 307.6209897734225,311.4779963362962 L 309.09531423822045,309.2929446361959 L 309.6780510134995,306.65698143467307 L 309.72467014193535,304.25391303934157 L 310.074312184006,301.89017578121275 L 311.56611872278154,299.355236383155 L 313.10454416275024,297.98065996263176 L 314.8061359282583,297.15601720195264 L 316.6126203611493,296.97563673369586 L 318.43075954914093,297.5511487675831 L 320.4004103075713,299.4411546699703 L 321.1812777798623,301.7612626776099 L 321.6940862610936,304.3054926460609 L 322.84790539741516,306.88915528543293 L 325.12640672922134,307.14713337179273 L 327.369943914935,306.99664516560733 L 329.50276088528335,306.2141484692693 L 331.3850012719631,304.5204106848687 L 332.9059445261955,301.64953983947635 L 333.9432162400335,297.79596748854965 L 334.0481089092791,293.94837628491223 L 332.7544329557568,291.07237072102726 L 329.9689504634589,289.5961001543328 L 329.56103465147316,285.9922934072092 L 330.714853676036,277.3020337531343 L 330.06218837946653,273.223526368849 L 328.4305250234902,271.2534951446578 L 325.9830299317837,270.54267886746675 L 322.84790539741516,270.2258274341002 L 322.50991799496114,269.24109156243503 L 322.84790539741516,268.1965354476124 L 326.2977079395205,261.700803887099 L 327.27670599892735,260.6913566971198 L 328.50045343115926,261.700803887099 L 329.48527892306447,263.8312874408439 L 330.7964369505644,265.70551167428493 L 332.9175992794335,265.91093041934073 L 334.40940570645034,264.8796057840809 L 335.7030817717314,263.1210692105815 L 336.5189133938402,260.870995786041 L 336.6238060630858,258.34783119894564 L 335.7671827469021,256.09469925705343 L 334.40940570645034,254.54734009224921 L 333.1798309534788,252.72248847596347 L 332.3348623905331,246.56265989877284 L 331.7521255016327,243.97527468204498 L 331.62392332591116,241.81116301659495 L 332.61457602493465,239.980405096896 L 333.2555866818875,239.8267924292013 L 336.1109975837171,240.09988355170935 L 337.1366145424545,239.54517594352365 L 338.9081347156316,237.4845277518034 L 339.8754780218005,236.63566328957677 L 341.7052719630301,235.97880905028433 L 345.3998239915818,235.67172500118613 L 347.1247252635658,235.03200085274875 L 348.9661738462746,233.17706277035177 L 351.60014476813376,228.84612304717302 L 353.6630334407091,227.33335112780333 L 357.2293832935393,226.77944299019873 L 360.55098377354443,227.10326210595667 L 363.75603671744466,226.69422947894782 L 366.97857184894383,223.98486557323486 L 367.50886251591146,222.8434320995584 L 368.4062772989273,219.8585122730583 L 368.94239528663456,218.95173861458898 L 369.94470285251737,218.86660036537796 L 370.981974452734,219.5732730748132 L 372.07751993462443,220.07138342037797 L 373.2896127272397,219.3774422938004 L 373.5693263616413,218.27916834130883 L 373.54601696692407,214.74688375834376 L 373.6975285373628,213.23226278740913 L 375.876964520663,208.40507124736905 L 376.0459582787007,205.3740020673722 L 375.11940666660666,195.14487922098488 L 373.7091832906008,190.20021420251578 L 373.6392548829317,188.03222037106752 L 374.0529980137944,186.33552949037403 L 375.457393957302,182.97279643360525 L 375.713798308745,181.41695564612746 L 374.40846749022603,177.88658786006272 L 369.97966700047255,177.1959354635328 L 370.3293091561645,173.54018367268145 L 371.92600825056434,171.57102085556835 L 376.9025815948844,169.4625936616212 L 377.6717942021787,167.48163507319987 L 378.06805537082255,167.13458950538188 L 378.80230394378304,167.37159483507276 L 380.17756306007504,168.27311903890222 L 380.81857371516526,168.2477227859199 L 381.7101611793041,167.54088812321424 L 382.4502370711416,166.53363971225917 L 383.83715082891285,163.68179800268263 L 382.97470019198954,162.2689087493345 L 388.1552313286811,158.1415096912533 L 390.0724358651787,155.8545018211007 L 391.1912907399237,156.84363485872746 L 392.89288250543177,157.14800544641912 L 394.7226764447987,156.8140437398106 L 396.2261376250535,155.8545018211007 L 393.4756195060909,150.7964211301878 L 390.5386253297329,147.90315314661711 L 385.5911889281124,147.04168960731477 L 372.2173767518252,147.8144691605121 L 370.3992375638336,147.40906834043562 L 368.3829679042101,146.26897678431123 L 364.22222640924156,142.55413339659572 L 362.0078260526061,142.21649702545255 L 359.75846154615283,144.71530887112021 L 359.5311942473054,145.83831346780062 L 359.5952952224761,148.99699383880943 L 359.40881939046085,150.48381851427257 L 358.87270140461624,151.85259204450995 L 356.5300990957767,155.57130865193903 L 350.59783720225096,161.24956798460335 L 349.15264967642725,163.7664091978222 L 349.11768552847207,159.16472363378853 L 347.8822832312435,156.75486179534346 L 345.609609330073,155.87140901386738 L 342.41621091403067,155.83336754795164 L 341.6936172079295,154.802083324641 L 342.25304459035397,150.7964211301878 L 341.4139034617692,148.13120158854872 L 339.89878752827644,146.57298700604588 L 338.04568408057094,145.88053458090872 L 336.12265233695507,146.08319798391312 L 334.36278680339456,147.15992477256805 L 332.83601611852646,149.22507023159415 L 331.2801086027175,152.8074781903997 L 329.6775820758194,154.25267725158483 L 328.10419237427413,154.84434670675546 L 324.56115191429853,155.52481518592685 L 322.84790539741516,156.23492468521 L 322.19524009898305,157.39742809347808 L 321.99710951559246,158.63196132332087 L 322.21854949370027,159.90049531217664 L 323.4539517927915,162.3450467819348 L 323.67539177276194,163.47027336712927 L 323.4772612992674,164.5364085799083 L 322.84790539741516,165.54766243509948 L 320.225589228794,165.9835103256628 L 317.8829869199544,164.67179995961487 L 315.78513398580253,162.3450467819348 L 310.87848916463554,154.76827269792557 L 309.4566111471504,154.72600967623293 L 307.4403413757682,157.71027309074998 L 304.7947158124298,163.36874337121844 L 303.2096713576466,163.9017888782546 L 301.22836584597826,160.56866249907762 L 300.86706905066967,158.58122364524752 L 301.4031869247556,155.27121838647872 L 301.33325851522386,153.79627320263535 L 300.5640456825495,151.70049569103867 L 299.99296354688704,151.44700774736702 L 299.2237509395927,151.70049569103867 L 297.848491711542,151.19775142893195 L 293.75767862424254,146.64054631162435 L 291.25190987996757,145.11214395798743 L 289.3405327759683,146.75455351360142 L 289.30556862801313,148.460614961572 L 290.0864359885454,150.02760721649975 L 291.09457087516785,151.54840193036944 L 291.8113372605294,153.12016223091632 L 292.03277735225856,155.047213957645 L 291.93953943811357,168.89958407357335 L 291.19946354441345,172.41791922878474 L 289.39880643226206,174.7218906218186 L 286.9746208488941,174.7303621340543 L 277.07392072305083,169.0900720860809 L 270.91439152881503,166.7706290539354 L 262.51132526248693,161.08462345134467 L 260.21534185670316,157.4819796597585 L 259.5160575453192,152.88353547919542 L 260.425127081573,146.89389777183533 L 262.40643259324133,139.1699055992067 L 262.51132526248693,136.59672504570335 L 261.8470052126795,133.66167303547263 L 261.0544829852879,131.31769711803645 L 261.124411392957,129.0923320222646 L 263.0532705709338,126.50519844796509 L 269.73143556527793,120.1879837680608 L 270.3549641482532,116.6438735825941 L 269.0146691799164,112.78987834230065 L 266.4622815325856,108.4245808776468 L 262.58125367201865,104.02778950799257 L 261.71880303509533,101.45628779474646 L 261.9868620298803,97.45763864275068 L 263.9914769344032,90.36358329281211 L 263.7583823148161,87.1751833902672 L 260.9495903160423,85.84142557531595 L 241.2880467697978,80.65088271535933 L 239.3300507646054,79.36000151466578 L 238.08299382589757,76.99666061624885 L 237.99558323062956,74.2904765540734 L 239.56314561143517,68.67962421197444 L 240.02933507598937,65.96757108066231 L 239.871996184811,62.71251227892935 L 239.10861067287624,60.621193126775324 L 237.67507801391184,59.19937334395945 L 235.51312410458922,57.961736547760665 L 232.23231520690024,57.22592500317842 L 231.3815193232149,56.490173544734716 L 231.34072774276137,55.56220907345414 L 231.7777803801,52.41954386886209 L 231.3815193232149,50.87368775717914 L 228.4328705072403,49.12760684918612 L 220.88642744347453,48.384163189679384 L 219.0741156898439,45.36089976597577 L 219.86663780361414,42.35534412227571 L 219.16735360585153,41.061593644320965 L 215.90402689389884,40.01003626175225 L 213.9576855301857,38.708277959376574 L 212.71062847785652,37.36499330494553 L 210.08831242099404,33.45308557711542 L 209.30744494870305,31.59364688117057 L 210.30975251458585,30.434817967005074 L 212.06961793266237,29.392832684330642 L 213.51480545848608,27.900919001549482 L 214.14416136033833,25.634348157793283 L 214.35394658707082,23.38500520400703 L 214.8434456717223,21.16120519582182 L 216.3993531856686,18.996232410892844 L 213.41574022173882,17.5809532571584 L 212.75724749080837,16.973283803090453 L 212.04048110544682,15.599934387020767 L 212.01134427823126,15.23374310694635 L 212.24443901143968,14.93414316792041 L 212.96703271754086,9.459866624325514 L 212.46587910316885,7.555461426265538 L 210.08831242099404,6.466221828944981 L 202.8623746857047,6.757227182388306 L 194.41268940642476,8.985807036980987 L 186.35926529578865,9.609574875794351 L 180.3570749927312,5.077839367091656 L 179.36642229370773,3.1577323703095317 L 178.5855548195541,1.1383187780156732 L 178.35246008634567,0.0 L 175.35719236917794,3.6314872056245804 L 174.56467014178634,5.277354260906577 L 174.50639637373388,10.699192628264427 L 171.7500508222729,15.841295910067856 L 169.1626989133656,17.855666540563107 L 162.86331290192902,21.219500086270273 L 164.28519091941416,23.03515773266554 L 166.13829436898232,24.826186466030777 L 168.00305245630443,26.184272583574057 L 169.48320413008332,26.71756472159177 L 173.18941102549434,26.68423316255212 L 174.79776498675346,27.484227259643376 L 174.0984805636108,29.57621330022812 L 174.31992065533996,32.16894789412618 L 173.32926784269512,48.367457271553576 L 172.37357940338552,49.87946623656899 L 170.3922737799585,53.73999841045588 L 168.63240836001933,58.647433151490986 L 168.31773046404123,63.3316357601434 L 168.8188841920346,64.2101951725781 L 170.31069073081017,65.28968546073884 L 170.63702337816358,66.09311114158481 L 169.41327583417296,68.76334266830236 L 169.09859793819487,69.96060010511428 L 169.2501095086336,71.24175839032978 L 169.94939382001758,73.7124808114022 L 169.48320413008332,74.9941736003384 L 168.80722932517529,76.11685202457011 L 168.52751569077373,77.08883606921881 L 168.31773046404123,78.90739883575588 L 165.56721223331988,87.04095995798707 L 165.18260581605136,89.33981556072831 L 165.3807362895459,90.94265090301633 L 166.77930502407253,96.64300662185997 L 166.74434065073729,97.51642955094576 L 166.05671109259129,97.9951684679836 L 166.0217469446361,98.86872321087867 L 166.32477008737624,99.68355736602098 L 167.22218498401344,100.27162806596607 L 170.21745270118117,108.9459495190531 L 170.88177286460996,112.95814035646617 L 172.17544870637357,116.74487406108528 L 171.81415190920234,118.16741644684225 L 168.370176685974,123.64926504250616 L 168.14290938712656,125.0392071576789 L 169.48320413008332,125.64579503424466 L 170.75357068888843,125.98280603531748 L 171.02162968181074,126.86752054840326 L 170.63702337816358,129.64862129744142 L 171.1032128445804,130.77816391550004 L 174.5471879541874,132.32940986100584 L 175.90496511012316,133.67010564170778 L 177.60655676200986,137.6174718728289 L 177.50166409276426,139.62134316191077 L 177.04712937958539,142.93398955184966 L 177.32101580686867,144.12431055027992 L 178.67879273556173,144.58866298757493 L 179.21491072326899,145.28101521916687 L 179.86757601983845,150.27260669879615 L 180.61347923241556,151.03299253433943 L 181.63909630663693,151.48503034934402 L 182.16355953924358,152.41030064132065 L 181.34772780537605,154.63303163461387 L 182.94442689977586,155.43605557642877 L 183.6029196307063,156.67877165228128 L 183.73694912716746,158.0400403700769 L 183.7252943739295,163.11492335889488 L 183.57378280349076,164.47717534471303 L 183.18334906734526,164.64218284282833 L 182.70550484769046,164.48986817058176 L 182.25679734162986,164.89604619611055 L 180.78830042295158,167.79483425151557 L 180.55520557798445,169.09853824228048 L 180.78830042295158,175.23867188207805 L 181.20204355567694,176.47568016313016 L 182.25679734162986,177.19593529962003 L 181.27779939584434,179.89105454925448 L 181.84888153150678,182.243594664149 L 182.9793911613524,184.29144696332514 L 183.7252943739295,186.059847635217 L 183.74860388040543,188.3037210041657 L 183.39896172471344,190.69243535585701 L 182.25679734162986,195.1363882375881 L 175.93992925807834,207.8650996061042 L 175.94575657695532,210.9608163787052 L 171.39458123221993,218.79849022254348 L 169.55895997025073,223.42264870926738 L 169.8678105454892,227.92990631144494 L 168.6090988535434,229.54506842698902 L 168.74895567074418,231.51860816497356 L 168.66154518723488,233.39451800100505 L 166.77930502407253,234.69083381537348 L 167.7466482166201,237.17739159986377 L 167.39117874018848,240.05721251294017 L 165.18260581605136,246.07159623038024 L 163.64418026432395,248.87743160501122 L 160.031211508438,253.50024803820997 L 159.01724918931723,256.2314954502508 L 156.79119419120252,255.12863655015826 L 154.34369921311736,256.2742446642369 L 151.6980736516416,257.95445376168936 L 148.9475553072989,258.4932144153863 L 148.91259115934372,260.87955004069954 L 147.5023677814752,262.15423725452274 L 144.3089694790542,264.2505999635905 L 140.85916693508625,268.0980797363445 L 139.8102404680103,268.872914169915 L 138.73800460621715,269.2196854967624 L 138.23685088008642,269.71203832514584 L 138.92448043823242,270.9280539881438 L 138.92448043823242,272.054302518256 L 134.04114512354136,274.72275827266276 L 132.70085015520453,276.58216004632413 L 133.9653892815113,276.98065414186567 L 134.16934718750417,277.6834192397073 L 131.98408376984298,284.6198026658967 L 129.13450030237436,288.278823425062 L 127.93406226485968,290.37282793503255 L 128.07391908206046,292.4501605583355 L 125.77793567441404,296.4688738267869 L 124.60080703161657,297.7487212922424 L 121.7803603913635,298.4445554902777 L 118.83753889426589,300.49801702424884 L 115.78982495516539,301.1854751817882 L 114.91571956500411,301.6323517980054 L 113.45887717418373,304.0862816981971 L 110.74332320317626,310.6262775938958 L 109.21655251644552,311.9641153458506 L 107.63150817528367,313.03539258334786 L 108.52892295829952,318.165568202734 L 106.52430794015527,319.92222309857607 L 107.2935206592083,323.59166678320616 L 107.9053944889456,324.87547297310084 L 108.831946099177,325.61223861109465 L 108.02776911854744,327.23678846191615 L 106.59423646144569,328.55992029607296 L 104.90429933741689,329.5470116985962 L 103.36587389744818,330.1677725808695 L 100.28902301751077,330.1677725808695 L 98.63405015319586,331.2628325568512 L 97.63174270093441,331.4094258993864 L 96.44295930303633,332.4701440790668 L 95.72036559693515,334.9025192996487 L 94.90453386306763,339.38952137250453 L 93.38941792957485,339.66571986489 L 92.94653797149658,339.9591899821535 L 92.71344312652946,340.692908635363 L 92.73675263300538,342.20801630895585 L 91.39645766466856,347.37689432594925 L 87.86507195979357,348.72467255964875 L 84.71829267032444,351.93944306019694 L 77.37580751255155,361.6860334780067 L 74.7884556055069,366.1175356628373 L 73.76283864490688,369.79773686639965 L 76.36184530518949,370.33474293444306 L 76.36184530518949,371.382865909487 L 75.7441441565752,372.60005924198776 L 75.91896523348987,374.3980039320886 L 75.51104931160808,376.0619741808623 L 72.93535215593874,378.11204028874636 L 70.70346983894706,382.81644361652434 L 69.14756232500076,385.2498541614041 L 67.80726735666394,386.373529301025 L 71.66498571075499,388.7775527359918 L 70.80836250819266,390.20552678592503 L 69.57878764159977,390.8132461691275 L 68.21518328040838,391.2256512520835 L 67.03805463574827,392.1113030295819 L 67.03805463574827,399.0998213356361 L 64.98682071641088,401.54647606331855 L 62.43443295545876,402.9895858783275 L 61.21068552322686,404.5198910953477 L 63.19199103489518,407.2464142581448 L 63.19199103489518,408.2902855714783 L 62.48105208389461,408.67741963267326 L 60.11514004319906,410.59159412793815 L 61.45543500967324,411.8055731272325 L 62.236302483826876,413.28520289901644 L 62.11975506134331,414.84779126755893 L 60.814424354583025,416.34535376448184 L 59.299308421090245,415.48335308395326 L 58.2678641397506,417.77785694412887 L 56.787712354213,419.92487653531134 L 53.89150987379253,418.6444400139153 L 53.40201089903712,419.69839106407017 L 53.122297152876854,421.03996829502285 L 55.41828067228198,422.09856647159904 L 55.41828067228198,423.3490113513544 L 52.46963185630739,425.0615847595036 L 49.76573252491653,427.48939802497625 L 47.79608176648617,430.73335329443216 L 46.956940526142716,434.86853695940226 L 47.24830902554095,435.81100614275783 L 48.43709231168032,437.3558298544958 L 48.50702083297074,438.3247581496835 L 47.91262907721102,439.1802980778739 L 46.887012116611004,440.0402881493792 L 45.919668924063444,440.4899614844471 L 44.52110018953681,439.3199861003086 L 42.41159261390567,440.04465376213193 L 39.32308697886765,441.89588692970574 L 39.32308697886765,442.94829694367945 L 41.53748722374439,443.08804548345506 L 42.81950853765011,444.3589887097478 L 42.81950853765011,445.8179637333378 L 38.92682592198253,447.3077697874978 L 38.087684681639075,449.1037411727011 L 37.51660254597664,451.05307511240244 L 36.11220660246909,452.2858397671953 L 35.092416962608695,451.31097936071455 L 33.81039587594569,449.4358836244792 L 32.71485039405525,448.85464251600206 L 32.260315569117665,451.71752233058214 L 31.54937650449574,452.9897309811786 L 26.7942433655262,457.87482458818704 L 25.58215057477355,457.1092966655269 L 23.006453420966864,460.36435159575194 L 21.08924899622798,461.33585501555353 L 16.444835735484958,460.3993587112054 L 14.22460805810988,460.8807226391509 L 12.99503319337964,463.4499079324305 L 11.782940400764346,461.58968909084797 L 10.553365536034107,461.8522839965299 L 7.966013627126813,464.14157370571047 L 5.3961439076811075,464.0365068744868 L 0.0,461.45401829853654 z" /></g></g></svg>