<svg xmlns="http://www.w3.org/2000/svg" xmlns:xlink="http://www.w3.org/1999/xlink" width="416.4198302645236" height="500.0" viewBox="0.0 0.0 416.4198302645236 500.0" preserveAspectRatio="xMinYMin meet"><g transform="matrix(1,0,0,-1,0,500.0)"><g><path fill-rule="evenodd" fill="#D2EBD9" stroke="#A6A6A6" stroke-width="0.25" opacity="1" d="M 13.630264438688755,164.8016944648698 L 13.930679898709059,169.15542860887945 L 12.855643602088094,172.44805180747062 L 7.413271829485893,175.68055516295135 L 4.636094497516751,179.01229717489332 L 2.3292455598711967,182.8912354419008 L 0.7838806547224522,187.43921336811036 L 0.6271047405898571,192.5427919179201 L 1.8365205451846123,202.02462943457067 L 0.8286738973110914,206.79018911533058 L 3.068333188071847,208.85032771807164 L 5.5095614194869995,209.88428497686982 L 8.017979947850108,209.6866123341024 L 10.459208397194743,208.10530606284738 L 12.698867471888661,208.42459752317518 L 13.50514474697411,210.21881321351975 L 13.034816354513168,212.85723679419607 L 11.511848071590066,215.80024940054864 L 18.141239462420344,219.67175251804292 L 22.73254050128162,224.18319818936288 L 25.15137254446745,230.2560022464022 L 25.240959029644728,238.8435502126813 L 23.001299737021327,246.9170794999227 L 19.283465404063463,251.7629061471671 L 14.87133689969778,256.3508613919839 L 7.346081966534257,268.67239410430193 L 4.412128504365683,275.7442498728633 L 2.3964352067559958,282.81121028214693 L 2.1948660500347614,287.94906453136355 L 4.322542235255241,291.25546188279986 L 7.032529704272747,293.3709536055103 L 8.62268785201013,296.2505548922345 L 7.390875207260251,301.9117858391255 L 2.2620556969195604,312.3143873549998 L 0.11198310554027557,318.24063778761774 L 0.0,323.3655301835388 L 4.165766105055809,334.97453419677913 L 10.727967416867614,341.2680699713528 L 22.844523606821895,344.0097305132076 L 35.72256383113563,344.1782259978354 L 44.524424217641354,342.92986528296024 L 40.64981396868825,365.5284966547042 L 40.53783108107746,373.2824133578688 L 42.37435162626207,382.8816066039726 L 45.89061658643186,390.39722698926926 L 55.22999522835016,403.56282283272594 L 50.01158923283219,406.1525154868141 L 53.303888415917754,411.00246080663055 L 80.96367905475199,431.40797136258334 L 86.67481006495655,433.23197282571346 L 85.98051567748189,434.4249845156446 L 84.74870303459466,437.180757897906 L 84.00961562246084,438.36633128207177 L 87.99620897509158,440.2834294587374 L 100.89664582163095,441.50000669434667 L 106.15984484180808,439.990847193636 L 111.98295874148607,435.8874937184155 L 113.50592680834234,433.7399555677548 L 113.64030653424561,431.6927189854905 L 113.46113378368318,429.5610684864223 L 113.97625541873276,427.06804856006056 L 115.94715547375381,423.72147827222943 L 120.35928397625685,417.9837420973927 L 121.12076822668314,416.24585893098265 L 123.3828239236027,418.2836590241641 L 125.10736158117652,420.7754696570337 L 126.4735535159707,423.40608626045287 L 128.10850468836725,425.6601058412343 L 130.61692300066352,427.0295787435025 L 136.30565738864243,427.3450338849798 L 137.85102229379117,428.6684663556516 L 131.33361400850117,441.1458048475906 L 124.9057922065258,459.11875213403255 L 117.40293389372528,469.04890059679747 L 115.87996582686901,470.19029235839844 L 111.10949160158634,468.94864660315216 L 111.13188822381198,470.4833642812446 L 112.07254500873387,472.9360978612676 L 112.1845278982073,474.8800102779642 L 109.29536767862737,479.4011881519109 L 107.72760615125299,480.39661666657776 L 104.3905141595751,481.3226459734142 L 102.30763121508062,482.88928710855544 L 102.19564811140299,485.40545867197216 L 103.47225377894938,487.8602215461433 L 105.5327403191477,489.3347838167101 L 109.51933367177844,491.3499568486586 L 114.67054980434477,497.13421316538006 L 117.87326228618622,499.50559992622584 L 122.80051242560148,500.0 L 125.84644899331033,496.97973636258394 L 128.17569455318153,492.56997931934893 L 131.02006174623966,488.9796428754926 L 134.67070600017905,487.69038433767855 L 139.3068004976958,487.8525017062202 L 143.5621530879289,489.54323958046734 L 149.36287036538124,496.43135416321456 L 154.76044889725745,497.08787004556507 L 165.0852777827531,495.48910222016275 L 160.71794230490923,488.56274678744376 L 160.8747184369713,479.979918894358 L 164.4133800175041,472.1107694674283 L 170.07971778512,467.23670373950154 L 199.82239158637822,453.7704524854198 L 203.4282428137958,451.13541728165 L 212.47646581567824,437.4732947163284 L 225.26491977274418,424.03687577694654 L 227.88532097265124,420.1140298806131 L 231.60315508954227,411.7327553341165 L 233.79802113957703,408.3736449414864 L 241.92798397503793,401.49594444502145 L 248.624565012753,392.66250384040177 L 252.36479575186968,389.2147886073217 L 256.82171749696136,386.85014207847416 L 266.429855376482,383.95617261342704 L 271.1107431165874,383.42655736394227 L 273.8655238263309,384.4627760509029 L 275.6348545085639,386.23599840234965 L 277.3817887865007,386.0671128164977 L 283.72002432122827,374.45614309888333 L 287.7066174559295,369.1787909558043 L 292.16353920288384,365.5361645082012 L 297.2251690682024,363.6039519151673 L 304.41447490267456,363.1285978490487 L 311.76055708527565,363.72662614192814 L 314.2689753975719,365.30612855404615 L 319.330605044961,370.5209953514859 L 321.3910915851593,371.6485237069428 L 324.10107905231416,370.712747101672 L 325.71363382041454,368.3351706340909 L 326.94544624723494,365.290792748332 L 328.58039763756096,362.40792307723314 L 330.7304702270776,360.2230736296624 L 343.76528679952025,350.9652930581942 L 364.79568626359105,330.0147398095578 L 369.991695638746,328.2852528663352 L 381.61552681587636,327.10684659611434 L 387.819382622838,324.3906813468784 L 399.1744547802955,316.1681426987052 L 412.5004267748445,309.38638366851956 L 416.0838813818991,304.65517319738865 L 416.4198302645236,297.3200188074261 L 414.29215407930315,285.87237277347594 L 396.755622735247,282.86464248690754 L 388.4464873634279,279.76582405529916 L 386.60996681824327,278.5752847529948 L 384.79584289342165,275.3169619683176 L 384.61666992492974,272.4788029147312 L 384.95261880755424,269.7860109806061 L 384.61666992492974,266.9258303269744 L 379.19669477269053,260.79511078167707 L 371.85061259008944,262.9680785983801 L 363.7430465910584,267.8868012521416 L 355.9938256610185,269.92331092525274 L 353.5525972135365,268.7486670129001 L 346.9679992813617,263.42557838652283 L 345.1986685991287,261.0009598592296 L 344.8179264739156,255.16184583771974 L 347.2815515436232,250.6122873108834 L 359.86843612603843,238.52372866682708 L 361.5481805410236,235.48570534586906 L 361.9737156908959,234.4350774884224 L 359.084555471316,226.8464609598741 L 356.62093040160835,222.10612128581852 L 355.85944615118206,219.70218017790467 L 355.79225650429726,214.9560812516138 L 356.3969644084573,210.81945847719908 L 356.15060179308057,206.99543244205415 L 353.53020059131086,203.12660260591656 L 347.9534493088722,206.3645069906488 L 343.29495818912983,202.97460216097534 L 335.5009442344308,192.5427919179201 L 329.9913828149438,190.9401765121147 L 319.42019153013825,191.2591691026464 L 314.0450094025582,187.49996170774102 L 312.0069194845855,185.510551138781 L 303.8097670003772,180.63664530217648 L 300.360691903159,179.5284294448793 L 296.4188917931169,180.01421446725726 L 292.74585070088506,181.90434408187866 L 285.6237345132977,187.43921336811036 L 281.883503774181,196.54614392574877 L 281.14441614598036,199.273784824647 L 281.0100366361439,201.26468628272414 L 281.41317516565323,205.71079917624593 L 281.7939175069332,207.78602074459195 L 283.40647205896676,211.26045091822743 L 284.4143187068403,212.8876531533897 L 284.7950606159866,212.58349241502583 L 284.4143187068403,218.46990195289254 L 282.57779816165566,225.97895557805896 L 279.24070595391095,232.36445114482194 L 274.2910591941327,234.93754406366497 L 269.25182594917715,232.5395318204537 L 263.15995303168893,226.99104942567647 L 257.493615264073,220.265099956654 L 253.86536741442978,214.33248669561 L 252.6111583672464,210.272034002468 L 251.40174234472215,202.55660823639482 L 250.1923265401274,199.0382343167439 L 247.5047352593392,195.94596538692713 L 244.39160904474556,194.15314367692918 L 241.7936044652015,191.90476682316512 L 240.5841884445399,187.43921336811036 L 237.96378724463284,181.96507413405925 L 234.96264391764998,177.0465722978115 L 231.42398255318403,172.96400050260127 L 227.14623334258795,170.13405011035502 L 224.257073123008,165.3248916650191 L 213.1707602031529,152.41313155647367 L 212.05093066580594,150.7382229147479 L 210.0128407459706,145.93412631377578 L 209.5873055960983,143.8052662210539 L 209.72168510593474,139.79064786992967 L 209.52011573314667,138.2759247114882 L 188.75847507081926,105.83013500552624 L 182.33065348491073,98.86112471204251 L 181.70354874618351,95.76295041292906 L 183.87601817399263,91.0486771101132 L 187.280300244689,87.27963364403695 L 199.68801186047494,78.03777521848679 L 203.47303605638444,73.42612218670547 L 203.98815769143403,70.62648095842451 L 200.0239609591663,61.90578261669725 L 198.97132106870413,56.89097673818469 L 198.72495866939425,51.11620462778956 L 199.5088393241167,45.53915003314614 L 201.5021357834339,41.146515862084925 L 203.15948379412293,39.08241233509034 L 202.0172574184835,34.17167250625789 L 200.7182551305741,33.08726707659662 L 198.9489244464785,32.84629666060209 L 197.82909490913153,31.792088040150702 L 199.21768368408084,25.076677485369146 L 198.70256204903126,22.999306653626263 L 197.87388793565333,21.48658512160182 L 197.60512891598046,20.034187087789178 L 197.71711202152073,18.077768017537892 L 197.58273229375482,16.87392048537731 L 198.0978539288044,15.715290788561106 L 200.11354722641408,13.759326219558716 L 201.8380848839879,10.660296673886478 L 201.68130875378847,3.050307889468968 L 201.8674456011504,0.0 L 197.9348158109933,3.3740692604333162 L 189.98138046637177,12.267969582229853 L 186.29564225673676,14.092277741990983 L 170.47694711573422,19.352973736822605 L 166.73830327391624,21.7468463787809 L 161.43013483285904,23.73802504967898 L 159.64898856915534,24.923351562581956 L 157.9207475055009,27.82772163208574 L 157.85020702332258,29.428282799199224 L 158.1323689520359,31.040839430876076 L 157.49750482663512,33.958025489002466 L 156.4746683705598,34.44426797050983 L 154.2350092958659,36.47239111363888 L 152.64784919656813,38.71425908152014 L 153.72359106875956,39.74632100760937 L 153.86467181704938,40.980125590227544 L 152.9123758431524,55.37662003003061 L 140.63833816349506,66.69515010342002 L 138.94536744989455,70.91315962281078 L 140.92049987614155,75.13212997186929 L 139.31570492871106,76.84376103710383 L 136.61753282509744,78.08003720548004 L 133.30213166214526,83.92969534546137 L 125.04889953695238,83.73943338170648 L 123.21484785713255,86.85521764773875 L 122.72106469608843,90.03100351337343 L 121.62768797390163,90.78042586613446 L 120.16397355683148,90.80421748477966 L 118.77079983986914,91.77970251534134 L 115.82573615573347,98.10971038043499 L 112.66905124112964,101.37074787076563 L 103.97494115307927,107.91836371086538 L 101.45312014780939,112.38397777080536 L 99.9365005325526,122.04530663602054 L 98.0495436526835,126.10910223983228 L 94.92812887020409,127.89697880018502 L 91.11894476227462,127.89697880018502 L 87.83881394937634,126.50242013297975 L 86.21638371795416,124.10688576009125 L 85.15827712975442,125.4774270625785 L 83.85327874310315,126.78847501520067 L 83.23604989983141,128.0996158272028 L 79.74429785646498,126.10910223983228 L 78.1042323410511,124.9291982697323 L 76.46416704170406,123.10585926193744 L 74.77119632810354,122.33129244390875 L 73.34275225922465,123.92812717147171 L 71.27944428287446,128.0996158272028 L 64.1372239459306,134.08436943311244 L 60.89236348122358,138.09118608105928 L 60.80418793298304,142.09887358173728 L 59.55209496244788,143.13672066759318 L 57.682773150503635,145.29610622115433 L 56.36013991571963,146.28640652634203 L 56.36013991571963,148.1120391562581 L 56.836287792772055,152.3128743749112 L 53.080009100958705,155.89388775266707 L 48.759406765922904,156.08489479217678 L 47.59548934549093,150.11686357017606 L 46.14941021241248,150.11686357017606 L 44.4035340808332,151.2983804019168 L 39.69495941698551,150.64197284076363 L 38.742663227021694,151.1909666499123 L 37.61401615664363,153.08870132267475 L 34.96874946914613,155.23731642123312 L 31.935510236769915,157.02802053373307 L 29.71348622813821,157.94731621537358 L 30.22490445524454,158.96217648033053 L 30.242539521306753,159.28455531131476 L 31.335916459560394,160.12037939205766 L 25.886667052283883,164.01343049295247 L 24.193696338683367,166.92778655607253 L 25.269437992945313,170.32048744149506 L 28.020515512675047,171.32408197131008 L 48.3185290209949,164.56282306555659 L 54.61426378414035,161.183124454692 L 57.84148918278515,157.94731621537358 L 59.51682483032346,162.5086567401886 L 59.164122633636,166.1872098306194 L 54.24392652139068,177.27508983109146 L 54.12048062309623,180.000290366821 L 55.00223611295223,184.35188628733158 L 47.807110575959086,175.21950400341302 L 37.94908328540623,173.33143585920334 L 14.93526260741055,176.3428771412 L 14.93526260741055,174.15594811737537 L 19.00897336192429,171.15681251324713 L 17.210192032158375,162.6519631575793 L 20.86066010966897,160.12037939205766 L 16.62823332287371,161.55330844875425 L 13.630264438688755,164.8016944648698 z" /></g></g></svg>