<svg xmlns="http://www.w3.org/2000/svg" xmlns:xlink="http://www.w3.org/1999/xlink" width="251.68962339125574" height="500.0" viewBox="0.0 0.0 251.68962339125574 500.0" preserveAspectRatio="xMinYMin meet"><g transform="matrix(1,0,0,-1,0,500.0)"><g><g><path fill-rule="evenodd" fill="#D2EBD9" stroke="#A6A6A6" stroke-width="0.25" opacity="1" d="M 35.66791552118957,196.19572509266436 L 35.549763256683946,197.38096677465364 L 35.89296744763851,198.72194295423105 L 38.41636206023395,203.80399635015056 L 39.15903338417411,204.96369228325784 L 41.22107153944671,206.9858586974442 L 42.036884754896164,208.01015234552324 L 43.24372564069927,210.5521319997497 L 43.43220662325621,213.2545692329295 L 43.1733969245106,214.47818334354088 L 42.53481212258339,214.5679248943925 L 42.06501624174416,215.8480868334882 L 41.09729299135506,216.099300570786 L 40.6303102504462,216.5119854239747 L 39.82012335397303,217.72295742481947 L 39.68227906152606,218.35375955561176 L 39.81731021218002,218.8499826719053 L 41.02415113337338,221.019717998337 L 41.09729299135506,222.88994851941243 L 40.813164949417114,223.9443053957075 L 40.860988495871425,224.37137083429843 L 41.82871171273291,225.14478830760345 L 42.087521409615874,226.39876363240182 L 42.36321002803743,226.7838598480448 L 43.12557337619364,226.9211749341339 L 43.58411665633321,227.55994665063918 L 43.44627236574888,228.9984235134907 L 42.75142459012568,231.4299107142724 L 42.233805160969496,232.59607550641522 L 41.572715155780315,233.68150749942288 L 39.93264933489263,235.279477187898 L 39.68227906152606,235.70572907757014 L 39.41221676208079,236.9068214353174 L 38.75393993407488,238.10171452863142 L 35.566642140969634,242.28346224920824 L 34.96462828665972,243.47133663436398 L 34.72832375764847,244.72147909877822 L 34.96462828665972,246.85505598271266 L 35.43161099217832,247.99444247083738 L 35.43161099217832,250.2368946694769 L 35.217811699956656,250.7364270654507 L 35.66791552118957,251.479703346733 L 35.88171484693885,252.38637829059735 L 35.7579362988472,253.88432778138667 L 33.28799151815474,260.93228284129873 L 28.57878016680479,267.649047344923 L 28.305904725566506,268.728277831804 L 28.30871786735952,275.9697512788698 L 26.95278008840978,283.03732071025297 L 26.89651707932353,285.42692472646013 L 27.920503303408623,289.9316361863166 L 28.09491854161024,291.54476545983925 L 27.90925070270896,292.0853399070911 L 27.082184920087457,292.8651057658717 L 26.601136470213532,294.52179795410484 L 24.41531973145902,297.6332338661887 L 24.22121243365109,298.50676760310307 L 24.235278176143765,299.6339264335111 L 24.533471962437034,301.86406902223825 L 24.896368181332946,302.92282746871933 L 26.66021258570254,305.82395902229473 L 27.2791053596884,307.3300417577848 L 27.495717827230692,307.4331856034696 L 27.903624419122934,307.22394924610853 L 28.123050028458238,307.495071135927 L 28.440935876220465,308.544090887066 L 31.074043292552233,312.66785023361444 L 31.63948623649776,313.2508625164628 L 31.9995692782104,314.290147703141 L 32.10646894201636,316.0032925931737 L 33.07419219240546,315.97680397564545 L 33.91813685931265,317.35995905008167 L 35.09121997654438,320.46661152597517 L 36.27274255268276,321.82532443199307 L 36.742538433521986,322.9485573726706 L 37.5527253318578,323.9598966287449 L 38.63297452777624,326.14082191186026 L 39.53880848735571,327.48077630996704 L 40.74564937315881,328.8145938338712 L 41.749943535774946,330.23920123651624 L 42.06501624174416,331.8573155705817 L 41.09729299135506,334.8341266326606 L 41.27170822955668,335.702856273856 L 41.67398853600025,336.1078349859454 L 42.03125843591988,335.9317601886578 L 42.06501624174416,335.0513192084618 L 42.610767122358084,335.9904522825964 L 42.880829421803355,336.98520811414346 L 42.86395053751767,337.991556935478 L 42.53481212258339,338.9918940346688 L 41.23513728193939,340.96281417738646 L 40.711891604587436,342.0506889685057 L 40.62749710865319,343.217548024375 L 41.049469478428364,344.18489757273346 L 41.93561137467623,345.43053108407184 L 42.233805160969496,348.42794489022344 L 42.51512006111443,348.75310127902776 L 43.08900246582925,348.91420927643776 L 45.42391606234014,349.11925057321787 L 52.96315527148545,348.38400369975716 L 53.89712071605027,348.6037069330923 L 54.32471936754882,348.5744135612622 L 55.76786478422582,347.5314906667918 L 56.39238384179771,347.3615617384203 L 56.87905860878527,347.52270132582635 L 57.675179762765765,348.5919895917177 L 58.15622821263969,348.87612955551594 L 60.086048394441605,349.36822133278474 L 59.80473349429667,349.614254434593 L 62.82042919099331,351.2220472814515 L 64.67710748128593,354.0735978074372 L 66.22433941811323,355.79744485532865 L 69.28785862959921,357.272191262804 L 70.63817012496293,358.2054561628029 L 70.88291407935321,357.9831218738109 L 71.01231891103089,356.3212485080585 L 71.65090374648571,354.1467746323906 L 71.41178607568145,352.2175842830911 L 71.46804904937744,351.7491135876626 L 71.7268587462604,351.4416629783809 L 72.27260966226459,351.33332007564604 L 72.80148166045547,351.5090104416013 L 73.80858899839222,352.70651783933863 L 75.47397316619754,353.4969385098666 L 75.7046513762325,354.05896236002445 L 75.6174437738955,354.3721544709988 L 74.93947485089302,354.62972274795175 L 74.52875511907041,355.05995826097205 L 74.24744021706283,355.66575638158247 L 74.23056133277714,356.1222661403008 L 74.5456340033561,356.4119592541829 L 80.19162394106388,357.02642118697986 L 81.13684198819101,357.5179529939778 L 81.3928385451436,356.51437320606783 L 81.83731608092785,355.91742561524734 L 81.4941119235009,354.0033473800868 L 82.09893895499408,354.3048339546658 L 82.33524345047772,353.6052486291155 L 82.58842686377466,353.6872119535692 L 82.92600473761559,354.3048339546658 L 82.57154797948897,356.1573810945265 L 82.67563446611166,356.5553383859806 L 83.49707396514714,357.5179529939778 L 83.49707396514714,358.5184678132646 L 83.76994940638542,359.3813736466691 L 83.75307052023709,359.74698066012934 L 82.91193899512291,360.8349179518409 L 83.16230923309922,361.32911508437246 L 84.27631623484194,362.5220677885227 L 85.41564154624939,363.2646404802799 L 85.77572462335229,363.28802737779915 L 86.86722642183304,362.9255222021602 L 87.9052783884108,362.8670519418083 L 89.15431650541723,362.0630380837247 L 89.93074563145638,362.1770672700368 L 92.47101913020015,363.57158738328144 L 93.47250014916062,363.69436253001913 L 94.2207977566868,363.58620357792825 L 94.47960745356977,363.2704871939495 L 94.41771819628775,362.08058117935434 L 94.57244137302041,361.22384516056627 L 95.35730992630124,360.97528505977243 L 96.54445878602564,360.97528505977243 L 97.48405054956675,360.4635168518871 L 98.28298484534025,360.43427186692134 L 97.72035504505038,361.7121678106487 L 98.4461474828422,362.799810546916 L 98.45177379995584,363.4283471144736 L 96.34191206097603,362.1419815737754 L 96.54445878602564,362.93721620505676 L 97.04519929550588,363.75574930990115 L 98.57273920625448,365.1411995100789 L 99.36886032670736,365.6380268712528 L 100.98360783793032,366.1172871654853 L 103.56889174133539,366.00916413450614 L 103.97117201425135,365.8659716527909 L 104.13996096886694,365.6234147846699 L 104.19059765711427,364.8255504318513 L 104.60694367438555,364.16498138196766 L 103.80519623681903,362.4314336651005 L 103.16661143489182,361.9577787988819 L 104.47191252373159,360.773506465368 L 106.12604412436485,357.6027973527089 L 107.44259781576693,356.2890605661087 L 107.48198190331459,357.5267300205305 L 107.67890234477818,357.7637063129805 L 107.9574041031301,357.67593823419884 L 108.61849407292902,356.78064269106835 L 109.30490242317319,356.9386440948583 L 109.59465678408742,357.56183812813833 L 109.56933843903244,358.3429489089176 L 109.32740762643516,358.989422399085 L 110.23886786960065,359.077174550388 L 111.50197176262736,357.5735407923348 L 112.2024458553642,357.02642118697986 L 112.5625289324671,357.30730060953647 L 111.35850115306675,359.74698066012934 L 110.67490598000586,360.05407628556713 L 109.24301316589117,361.40514241112396 L 108.38218957930803,361.7121678106487 L 106.96436250768602,361.7121678106487 L 106.33421713113785,362.0952003696002 L 106.39610642381012,362.3349509150721 L 107.22317220643163,362.93721620505676 L 108.14025876671076,364.38128050928935 L 108.2921688016504,365.0827470156364 L 107.91520683839917,365.6380268712528 L 106.6661687232554,365.6146475044079 L 106.4973797686398,365.8835056000389 L 107.49886082299054,368.7585009546019 L 109.69311698712409,370.6803805218078 L 111.87330744229257,373.1506331623532 L 112.67505487985909,373.74617352243513 L 112.88885420560837,373.01049905782565 L 116.9032177478075,376.14536695275456 L 118.73457772657275,376.2241594251245 L 119.51944627985358,376.4605319132097 L 119.06371614150703,376.76984753785655 L 117.99190640449524,377.06747878855094 L 117.86531467922032,377.4147001784295 L 118.23665035702288,377.80275207199156 L 120.22835979796946,378.2928940556012 L 123.78980637714267,380.88894425006583 L 126.39759544841945,383.285847551655 L 127.85761974938214,383.714410438668 L 128.8197167161852,384.2391482288949 L 129.35702813789248,384.3586667156778 L 129.57926692441106,384.2391482288949 L 129.77900050766766,382.48988037230447 L 130.47384828142822,381.23890475183725 L 133.1491529289633,379.73979252623394 L 133.15477924607694,379.2964178947732 L 132.28832934051752,377.9194554486312 L 130.9661493320018,376.81945358309895 L 129.4273568894714,373.7053046664223 L 129.01382398046553,372.49665130488575 L 129.1235367860645,371.64989251922816 L 129.49487246386707,371.56813135556877 L 130.06594169139862,373.24989321269095 L 130.4710351396352,373.6177276899107 L 132.33052660524845,374.00889672664925 L 134.59511148557067,375.0363470548764 L 135.66973439976573,375.34864042606205 L 136.78936768509448,374.9662981396541 L 138.04403211921453,375.44495256524533 L 138.5897830016911,375.8214334961958 L 138.70230894722044,376.4605319132097 L 138.56727779842913,376.66479840502143 L 137.46171029098332,377.00912063149735 L 136.7556098792702,378.2520501152612 L 136.2886271737516,380.7547884215601 L 135.43342987075448,380.82769949920475 L 134.43194884993136,380.37563936645165 L 134.3813121598214,381.23890475183725 L 134.71045060828328,382.1079029003158 L 133.86369276419282,382.0554159209132 L 133.60488306730986,382.22453928971663 L 133.39108374156058,382.9534758673981 L 132.5668311007321,383.60071245161816 L 132.49931552633643,384.4111376670189 L 132.80313562974334,385.1835843883455 L 133.7455404996872,386.5125912632793 L 137.6783227585256,389.673876803834 L 138.42662036418915,391.791350687854 L 138.9104819893837,392.4290993544273 L 140.65182119049132,394.08292203582823 L 142.15685586445034,394.77579122548923 L 142.9726690798998,394.8660343247466 L 143.41995975747705,395.2590160514228 L 143.52404624409974,396.09148897603154 L 143.2989943511784,396.8307427619584 L 142.73636455088854,396.9413337111473 L 142.3565894458443,396.62119768280536 L 142.15404272265732,396.0449194130488 L 141.76864130049944,395.84117439668626 L 141.23414301872253,395.8091568048112 L 140.90781774744391,396.00999209238216 L 140.3733194321394,396.8191015473567 L 140.58711875788867,396.8191015473567 L 141.62798386625946,398.4894410283305 L 145.94335437007248,403.0882933428511 L 146.42721596173942,403.4459651284851 L 146.65226788818836,403.3063878319226 L 147.00672464817762,402.4775963323191 L 147.71563819982111,401.65744236717 L 147.6087385378778,399.0917225126177 L 147.7381434030831,398.55054420325905 L 148.3317178338766,398.1693690265529 L 148.44143063761294,397.7969049885869 L 147.9688216149807,396.8191015473567 L 145.9827384594828,394.4846773366444 L 145.45949274487793,393.6432961639948 L 145.10784912854433,392.57469665957615 L 144.75339236855507,388.19974489556625 L 144.86873145774007,387.76852191379294 L 145.35259308293462,387.49171048682183 L 145.76331281475723,387.5791257354431 L 147.24302917718887,388.47070357203484 L 147.86754823476076,389.4466576729901 L 148.64397736266255,391.38945436803624 L 149.6229531802237,392.17866559140384 L 150.0111677441746,391.8787166508846 L 150.09556220285594,393.13376455241814 L 150.28966950252652,393.73064107680693 L 152.762427425012,398.48362167039886 L 153.10000529885292,399.9674204559997 L 154.2252648677677,401.1251686634496 L 154.45031679421663,402.3409099825658 L 155.50243450514972,402.9661577506922 L 156.5939362682402,404.3996767504141 L 156.96527194790542,405.44048563716933 L 157.96675296872854,406.088741034735 L 158.12147617898881,406.84739357884973 L 159.58993990533054,404.780547413975 L 160.2650956530124,404.1874277838506 L 161.80107498914003,403.701850396581 L 162.1752238087356,403.4285181113519 L 162.35526533052325,403.001053808257 L 162.3918362762779,401.724337592721 L 162.89538992755115,402.29437792813405 L 162.93196087516844,403.0882933428511 L 162.6478328332305,403.81234367890283 L 162.1752238087356,404.1874277838506 L 163.1345075983554,404.95789310662076 L 164.04878098331392,404.85323054809123 L 164.7380025088787,404.1031081182882 L 165.00525163300335,402.9516176749021 L 164.954614976421,400.5230447379872 L 165.14309595897794,399.84523596288636 L 165.71697832643986,400.7470286418684 L 165.91108559072018,401.7970491279848 L 165.89983302354813,403.265677315183 L 165.58476031944156,404.57121620327234 L 164.88991254381835,405.1381419557147 L 164.42574294656515,405.29512957157567 L 163.2273415196687,406.48987675923854 L 162.57750411517918,406.8415804421529 L 162.05707154422998,406.76019586389884 L 160.52671852707863,405.9317692751065 L 159.60400564782321,405.9521176586859 L 159.08357311040163,406.3823279016651 L 158.59127202630043,407.3996234321967 L 158.35496753267944,407.58853526506573 L 157.3788048569113,406.2311756289564 L 156.5939362682402,405.62653748318553 L 155.50243450514972,407.59725417755544 L 155.9947355557233,408.3296073046513 L 155.0523306503892,410.28221731074154 L 155.2717562597245,410.718002026435 L 154.81602615490556,411.1305228569545 L 155.09171473793685,413.87237080791965 L 155.52212653122842,414.9961397899315 L 156.23104008473456,415.9049124279991 L 157.311289280653,416.7003667736426 L 157.454759856686,418.3316725473851 L 157.90486367605627,419.09206146840006 L 158.72067689336836,419.3503452199511 L 160.32979808561504,418.1807471117936 L 161.91641411185265,418.36650107288733 L 162.60282242670655,418.2707222113386 L 162.88132418505847,418.36650107288733 L 163.18233111314476,418.76121405884624 L 163.5902377385646,420.4472334762104 L 163.12044185586274,422.24313924554735 L 162.59438300132751,423.09308191621676 L 161.91922725364566,423.49626593571156 L 162.37214421480894,423.9835407990031 L 163.1148155387491,423.77471228921786 L 164.53545578569174,422.7449932885356 L 165.3934661950916,422.32436625333503 L 165.60726552270353,422.04006807738915 L 165.6522758938372,421.57588634826243 L 165.14309595897794,420.8998740869574 L 164.39198517613113,417.6960251345299 L 164.2738329116255,416.4507071143016 L 164.53826892748475,415.44908729568124 L 165.00525163300335,415.44037699559703 L 165.23592984303832,415.7278114715591 L 165.2415561620146,416.8803491522558 L 166.30773961544037,417.6960251345299 L 166.30773961544037,418.00079385889694 L 165.76761501654983,418.726387205068 L 165.49755271710455,419.5796013646759 L 165.74792295508087,420.36308595212176 L 166.68188840150833,421.64551530452445 L 166.8956877272576,422.40559248346835 L 166.80004066601396,424.0531491115689 L 166.49340745434165,424.6853973502293 L 165.12340389750898,425.15520144533366 L 163.09793665260077,426.90367905283347 L 165.72541778720915,428.2807408622466 L 165.72541778720915,428.73004787042737 L 164.06284676119685,429.82277585286647 L 162.6703380011022,430.3850249880925 L 162.28212347254157,430.6951150330715 L 161.3762895129621,432.40185082471 L 160.84179119765759,434.731020713225 L 161.11747978068888,436.7178313052282 L 162.62814077176154,437.40123105142266 L 162.2596182692796,437.9513851744123 L 161.51132066175342,438.47834097919986 L 161.44380508735776,439.36714186985046 L 161.82639333233237,441.17340487474576 L 162.29337603785098,441.90564141608775 L 163.50865638442338,441.63359259068966 L 163.79278446175158,442.5133784315549 L 163.94469449669123,444.10486347880214 L 164.61141078546643,444.6025028130971 L 164.97430700436234,444.6025028130971 L 165.2415561620146,444.22638273751363 L 164.53264260850847,443.3091583712958 L 164.77176027931273,442.76803615735844 L 165.49755271710455,443.0111114010215 L 165.31188487820327,442.5799374524504 L 165.38783991336823,442.1834694785066 L 165.66352849453688,441.99246369535103 L 166.07143508642912,442.1718934858218 L 166.35556312836707,443.06609173398465 L 166.8956877272576,443.274435008876 L 166.2599160671234,443.96887553762645 L 166.21490569598973,444.23216934734955 L 167.49770161695778,444.22638273751363 L 168.02657361328602,443.82131167920306 L 168.56951135396957,441.30943779600784 L 169.52879514358938,441.7493591182865 L 170.0576671399176,441.45125707099214 L 171.07602708041668,438.2409254410304 L 171.1941793449223,437.160889219027 L 171.30107900872827,436.96976907365024 L 171.84120360575616,436.7699569943361 L 171.40235235355794,436.06623281445354 L 171.78494059853256,435.3508638292551 L 172.687961416319,434.67598567996174 L 173.71476078219712,434.1719637042843 L 174.4799373075366,433.9807749404572 L 175.45891312509775,434.2327955532819 L 176.45195472054183,434.8845375594683 L 176.9273768849671,435.7534474674612 L 176.35349451564252,436.6743929940276 L 176.5954253282398,437.22749067051336 L 176.61230421438813,439.1036960557103 L 177.56314854510128,441.30943779600784 L 176.80922462046146,442.5625742911361 L 176.65731458552182,443.19630686892197 L 177.32684404961765,443.4972408856265 L 177.7263111807406,443.294690315146 L 178.73904480226338,441.79566527716815 L 179.2172801438719,443.0921349283308 L 179.91494106128812,443.98334244126454 L 181.0092560350895,444.25531564094126 L 182.0641868878156,444.22638273751363 L 182.0641868878156,444.9496757714078 L 182.8631211835891,444.2466358016245 L 183.2710277736187,444.02384964749217 L 183.60016618855298,444.10486347880214 L 182.6465087160468,446.6506181983277 L 181.80537715554237,447.85958489542827 L 181.68159860745072,448.831261749845 L 181.80537715554237,449.802828240674 L 182.34550175443292,449.67849701084197 L 182.6605744585395,449.35175752593204 L 183.24570943042636,448.588352910243 L 183.26258831471205,448.0099706905894 L 183.89554683305323,447.58194263186306 L 186.04760580137372,446.7807783395983 L 187.23756780289114,447.12786236265674 L 188.45566129125655,446.8935821931809 L 189.7103257253766,447.2493384401314 L 190.9706164430827,447.98683457588777 L 192.1015023291111,448.97006371384487 L 192.96232591755688,450.06883317930624 L 192.3603120278567,450.7742846147157 L 192.85542625375092,451.78610151121393 L 194.143848458305,453.3556278422475 L 193.52495568431914,454.61855693534017 L 193.43493494018912,456.3406988675706 L 194.29294535145164,459.7319748667069 L 194.7514886315912,460.7196458624676 L 195.71077242307365,462.01326887030154 L 196.43656486086547,463.979327107314 L 197.3114541899413,464.96363516990095 L 197.6856030113995,465.1397021985613 L 197.53369294293225,466.03730095690116 L 198.08225700072944,468.3285081181675 L 198.15821203403175,469.2777147120796 L 196.75445070676506,471.47867831774056 L 196.3099731709808,473.86076462827623 L 195.79516691714525,474.62485987506807 L 195.21847137250006,474.7373061683029 L 195.06656133756042,475.10635086894035 L 195.07781390473247,475.4638485601172 L 195.558862388134,476.09520110394806 L 195.32255789265037,477.06376616703346 L 195.79516691714525,478.03222798136994 L 195.53354404307902,478.45589763345197 L 195.13689005374908,478.49912811722606 L 194.143848458305,478.03222798136994 L 194.1269695740193,479.07263321382925 L 193.8203363288194,479.6662738402374 L 192.7063293606043,480.6920862663537 L 191.87926357798278,482.61373471748084 L 191.7808033414185,481.92233332945034 L 190.36860258877277,482.62237688340247 L 190.7849486041814,482.96229653200135 L 191.3925887774676,483.9272542516701 L 191.7808033414185,483.96469831094146 L 192.56848507001996,483.65938057750463 L 194.61083119921386,483.3742162231356 L 195.3422499205917,482.7376053086482 L 196.3859281707555,480.71225556591526 L 196.7657032739371,480.5047976244241 L 197.82907358556986,481.03207734879106 L 198.15821203403175,481.4123914525844 L 198.30168261006474,481.9424999235198 L 198.39451652951539,483.8322031968273 L 198.86431241035461,484.7999499607831 L 198.86431241035461,485.767595410347 L 199.17094565741718,486.216824979987 L 199.6126100178808,486.56237139040604 L 200.10209792666137,486.69194799894467 L 200.53813603706658,486.48750410880893 L 200.76600110717118,487.1209775651805 L 201.548056518659,487.6853084131144 L 201.9559631086886,488.20354132773355 L 202.46514304354787,487.57014163956046 L 203.84358606114984,489.4299110621214 L 204.41184214688838,488.95204905886203 L 204.9294615406543,489.14204531814903 L 205.32330238819122,489.7177679343149 L 205.5174096878618,490.3740484318696 L 205.28110515885055,491.5828658528626 L 205.46958613954484,491.9771368666552 L 206.24320209026337,492.57282886561006 L 206.58359310775995,492.6332593015395 L 206.66798760183156,492.8231809064746 L 206.16162077337503,493.6374984225258 L 205.28110515885055,493.78136348258704 L 204.57219164073467,494.52367221098393 L 202.9180600401014,494.52367221098393 L 203.382229603827,495.17098690057173 L 204.77192518860102,495.61976577341557 L 205.28110515885055,496.21522797318175 L 205.80435087159276,495.8470238619484 L 206.93242358230054,494.2589796651155 L 207.1687281113118,494.52367221098393 L 207.4247246682644,494.2589796651155 L 207.46129557862878,494.9437125856057 L 207.1968595981598,495.70894363801926 L 206.68486648611724,496.3072767765261 L 205.9900187123567,496.4568541282788 L 206.3416623286903,497.0551401171833 L 207.1687281113118,497.664892826695 L 206.94367618486285,498.24584728013724 L 207.05057584680617,498.5046769781038 L 208.08581467159092,499.6434442065656 L 208.6906417030841,500.0 L 209.31516076251864,499.85622911853716 L 210.62327502854168,498.5046769781038 L 210.85395323857665,498.00426657963544 L 210.85957952216268,496.9861090439372 L 211.77103979885578,495.66866985708475 L 211.90607094950974,492.83756875107065 L 212.52215054817498,491.5281846197322 L 212.59810558147728,491.0015016705729 L 212.39555885829031,490.9842328862287 L 211.0902577340603,492.45196686452255 L 210.76955874450505,492.51527573540807 L 210.0212611388415,491.5828658528626 L 209.55146525613964,491.70086109032854 L 209.163250727579,492.0778603781946 L 208.8228596765548,493.05050632497296 L 208.45433717407286,492.874977058731 L 207.9986070357263,492.25052677933127 L 207.89733369089663,491.8476336216554 L 208.31649288348854,491.63466880470514 L 207.64133713580668,490.1552933701314 L 208.87630950845778,490.0603060252033 L 209.50926802679896,489.8444221406244 L 209.78776978515089,489.5421762904152 L 209.0788562335074,488.6871993509121 L 209.25608461163938,488.05959065351635 L 209.43331302702427,487.9357912801206 L 210.0381400231272,488.8368979454972 L 210.31945492327213,488.98659413727 L 210.96647918596864,488.20354132773355 L 210.74705357663333,487.57014163956046 L 211.77947922423482,487.45209422381595 L 212.384306255728,487.6968250190839 L 212.5812266971916,488.30718442844227 L 212.09173875302076,489.30325123667717 L 212.25490139052272,489.7753382376395 L 212.8850467670709,490.12938782339916 L 213.27888761274517,489.88472085120156 L 214.2803686335683,488.30718442844227 L 214.50542056187987,486.9942863024771 L 215.44501232542098,485.5775301726535 L 215.47314381226897,484.7999499607831 L 216.0020158085972,485.5602513309568 L 216.86846567876637,485.767595410347 L 217.39171139337122,485.6754430476576 L 218.34818204119802,484.63290568068624 L 218.56760765053332,483.7889978545718 L 218.30317163467407,483.6132940147072 L 217.02037571370602,483.9531770646572 L 216.6546663530171,483.6132940147072 L 217.94308859296143,482.3515844778158 L 218.33692944049835,482.2997296899557 L 219.0120851881802,483.1293710693717 L 219.97418211959302,480.9571651532315 L 220.26956276409328,479.2685965276323 L 220.18235516175628,478.810381596908 L 219.84759042970836,478.8766656559892 L 219.56908867135644,479.2685965276323 L 219.4790678936988,480.6920862663537 L 219.27089488506317,479.72967009199783 L 219.78288799710572,477.7123011131771 L 219.14711633697152,475.7925033052452 L 219.56908867135644,474.7719047656283 L 220.45241746120155,475.10635086894035 L 221.67051094956696,474.13757641706616 L 222.2865905482322,473.42246191063896 L 223.04614078998566,471.2133221272379 L 222.33722723834217,469.52004913659766 L 222.95330687053502,469.74795293295756 L 223.51312349550426,469.52004913659766 L 224.14326887205243,470.5383590105921 L 224.32049725204706,471.51328939944506 L 224.57368066720665,471.8218991602771 L 224.95345577038825,471.8882344197482 L 225.4260647930205,471.69787969905883 L 225.16725509613752,471.2133221272379 L 226.101220542565,470.86142460629344 L 227.52748707309365,469.52004913659766 L 227.4234005510807,468.29965527541935 L 227.86506494693458,467.3590013119392 L 228.18857704289258,466.98963762354106 L 228.62461515516043,466.83669346990064 L 229.57827262580395,466.8395792255178 L 229.90741107612848,466.55965584283695 L 229.93272942118347,465.8468213523738 L 229.3025840446353,465.5466633681208 L 229.17317917756736,465.28113053785637 L 229.67391968891025,464.65478785010055 L 230.96796821057796,463.936026585754 L 231.29148034192622,462.70042868470773 L 232.27045619301498,461.39824420167133 L 232.33797176741064,459.4951483029872 L 232.03415166400373,456.6353936456144 L 232.27045619301498,454.809280782938 L 232.40267420187593,454.3613620940596 L 233.34226593002677,452.97700215736404 L 233.44916559383273,452.35844808025286 L 233.32538704574108,450.837888056878 L 233.4716707970947,450.3117000712082 L 233.94146667793393,450.0341373682022 L 234.74321411550045,450.3579596369527 L 235.10329719260335,450.3117000712082 L 235.40711726248264,449.7999368449673 L 235.10329719260335,447.98683457588777 L 235.17362591065466,447.0324156610295 L 235.6715532783419,444.9496757714078 L 236.06820726767182,443.98334244126454 L 236.77712081931531,443.274435008876 L 236.77712081931531,442.05902678892016 L 237.01342531479895,441.06920791976154 L 237.21597203798592,440.8579157348722 L 237.70264680497348,440.747925916221 L 237.91644613072276,439.8042699545622 L 237.63794437237084,438.59415098419413 L 238.9010482672602,435.94459544774145 L 239.21049465425313,434.77157261176035 L 239.57620401494205,427.67196314875036 L 240.26823864877224,425.02470300346613 L 240.3638857100159,423.9980425783433 L 240.33012793958187,422.7304892730899 L 239.91378188878298,421.0942696593702 L 239.947539659217,419.09786570910364 L 240.18384418822825,418.67995120119303 L 241.0474809166044,417.87888774788007 L 241.62980274483562,416.8106790338643 L 241.6551210898906,415.7887810780667 L 240.81117638759315,411.389063723851 L 241.303477473557,409.0618925578892 L 241.55666085332632,405.1032554162666 L 242.49906575866044,403.1580842481926 L 242.59752599522471,401.8581262868829 L 242.29933217540383,400.70630477182567 L 241.5200899410993,400.2612371882424 L 241.83797575347126,399.82487171143293 L 243.17140836454928,399.0393520919606 L 243.44147066399455,398.5767310895026 L 244.07724232412875,395.666531492956 L 246.55000024661422,390.157423235476 L 248.85959553346038,387.11581356916577 L 249.20842600800097,386.5388193218969 L 249.49536719173193,385.32640554895625 L 250.7444053441286,384.3586667156778 L 251.2085749078542,383.484097359702 L 251.49551612511277,382.31784712104127 L 251.68962339125574,380.0198051086627 L 251.1241804473102,378.6779830865562 L 251.23951957002282,377.8173400936648 L 250.79504203237593,376.3467238806188 L 250.9807098377496,375.4566266844049 L 250.27179631963372,374.499288469553 L 250.03549179062247,373.24989321269095 L 249.41941219195724,371.4571683346294 L 249.129657831043,369.83049258962274 L 246.05769919604063,363.9662143904716 L 245.78763689659536,362.93721620505676 L 246.13646737113595,362.7296449583955 L 245.911415444687,362.25308575714007 L 243.41052603535354,358.989422399085 L 242.62003116495907,356.9708291683346 L 242.22619031742215,356.51437320606783 L 241.66918683424592,356.3680671141483 L 240.59175077825785,356.42951602768153 L 240.0825708080083,356.02277289237827 L 239.38490989245474,357.7958876667544 L 238.79414860345423,358.3692770181224 L 237.95864336192608,358.2551878746599 L 236.25668824836612,359.74698066012934 L 235.61529027111828,360.52200650330633 L 235.1229892205447,363.69436253001913 L 234.21996840275824,364.2526709730737 L 233.2409925851971,365.60295782936737 L 232.96249082684517,366.7718359064311 L 232.97936971113086,367.35036152787507 L 233.4350998494774,368.88411023747176 L 232.87809636630118,369.63772085588425 L 231.99195443466306,369.9151937197894 L 231.00735229812562,371.2177161439322 L 230.92014469765127,371.6790927099064 L 231.12550456263125,373.4192161136307 L 230.8526291232556,375.23481538984925 L 231.0692415907979,375.90606611967087 L 230.8526291232556,376.2154047670774 L 230.03962908312678,376.3379693306051 L 229.1337950900197,375.8652091077529 L 225.6398641206324,375.72512623108923 L 224.51460451632738,375.33988470211625 L 223.74380170740187,374.6306379227899 L 221.77178429439664,371.82801191834733 L 221.80554210022092,370.8994079004042 L 222.55102656409144,368.84613555436954 L 222.5904106516391,368.3407616177574 L 222.55102656409144,367.8411959693767 L 222.10092274285853,366.8594942316413 L 223.11365636624396,365.55619879672304 L 223.39215808920562,364.3520512422547 L 223.88164603337646,363.17109217494726 L 224.11795052699745,361.3583564609289 L 225.0659817159176,358.8607173622586 L 224.70027235522866,357.6496075950563 L 223.6453415043652,355.77696015452966 L 223.33308197557926,354.7409425624646 L 223.31620308943093,353.54084820626304 L 223.54688130132854,352.34640833735466 L 223.99135883711278,351.33332007564604 L 224.89437965489924,350.45480343559757 L 227.1477119345218,349.6406146255322 L 228.1435666717589,348.99915566667914 L 228.93687468394637,347.8391102743335 L 229.08034529350698,346.80486944457516 L 228.34611339494586,343.4344804054126 L 228.28703727945685,342.0330966557376 L 228.4755182620138,340.78392911795527 L 229.45168093778193,340.01261838013306 L 229.5388885382563,339.4670773423277 L 229.22381586767733,337.2815533238463 L 229.22381586767733,336.03740559425205 L 227.24054585397243,332.3799647754058 L 226.24187797494233,331.21129000373185 L 224.70027235522866,329.96017762832344 L 224.76216164790094,328.3034256687388 L 225.00971874408424,327.5424784524366 L 225.53577759861946,326.7579387235455 L 226.26157003641129,326.0791071872227 L 227.0070545002818,325.6882342440076 L 227.8284939993173,325.5530399340205 L 228.75120684318244,325.64708842290565 L 226.60758733563125,324.6359991314821 L 224.58212009072304,324.33029149938375 L 223.72129653953016,323.8570055686869 L 221.29073584638536,323.54832314839587 L 220.73373232781887,323.15436532441527 L 220.29488110914826,322.59572929982096 L 217.98809896409512,317.9101993823424 L 216.3789777699858,313.3568593249656 L 214.6123202238232,309.14808628708124 L 214.26911606639624,306.56672745756805 L 214.4266523849219,306.0214492175728 L 215.47314381226897,304.32048255298287 L 217.12727537751198,295.40755677456036 L 217.31856949999928,293.0600326261483 L 216.90784976817667,290.55211804201826 L 214.01030633412302,280.73263825289905 L 214.01030633412302,279.46899994043633 L 214.1509638018906,278.9717621207237 L 214.8598773200065,277.9771699933335 L 214.93864549696445,277.56271072058007 L 214.032811537385,276.98538310080767 L 212.98069382831454,274.9687654147856 L 212.11987023986876,267.7409670515917 L 210.96647918596864,265.9972274838947 L 210.13941340334713,263.5082936841063 L 208.10831984132528,259.25195796368644 L 206.31071766652167,252.47257974324748 L 203.62416041642427,246.26296679629013 L 202.36105655692518,244.31967571750283 L 199.21314288675785,232.85254153003916 L 194.84994887001812,221.6352269174531 L 193.67123943567276,215.8480868334882 L 193.60935017839074,213.6225780523382 L 192.489716893062,210.30067845480517 L 191.84550577402115,211.35431557893753 L 191.3897756356746,211.6835379190743 L 191.07751610688865,211.30642711231485 L 191.22098671644926,210.88139988388866 L 192.06211824156344,209.707923383452 L 192.25341236405075,209.1510375449434 L 192.1577653028071,208.67794190626591 L 189.30523227714002,202.68902909755707 L 187.31914911977947,197.32696115318686 L 184.5707025807351,188.77859323099256 L 181.11896884068847,175.65002644620836 L 180.00496183894575,173.91187315201387 L 180.15124559029937,173.37856938084587 L 180.6041625868529,173.84860252635553 L 180.86015910841525,173.71302012400702 L 180.88266431167722,172.6192006780766 L 180.0443459264934,170.97354339249432 L 179.4732767008245,167.80743539659306 L 178.22142540849745,164.8447177154012 L 177.46468834206462,160.02913975715637 L 176.47727306373417,157.76631017308682 L 172.11126590520144,143.58164668316022 L 163.31736226193607,122.98784883785993 L 162.8391269557178,120.52356616873294 L 161.69980164431036,118.01853525172919 L 160.2482167687267,108.09911018237472 L 159.5815004799515,105.82912113005295 L 159.39020632207394,102.28787679690868 L 158.21993638202548,98.11459409398958 L 156.92026157677174,94.43338758172467 L 156.0791300162673,88.9677730188705 L 151.98037201352417,76.34284484246746 L 151.38398444280028,77.2943564793095 L 151.1870640013367,77.37722143577412 L 150.44157953746617,76.0358665715903 L 150.68069717288017,75.81483042705804 L 151.24895329214633,75.75956983771175 L 151.86221974901855,75.44334466243163 L 152.00287718325853,74.46383922267705 L 150.22496706992388,66.44853287609294 L 148.34578357636929,61.367644240148365 L 147.7381434030831,60.25597536098212 L 146.770420152694,59.50137397274375 L 146.06994605995715,59.16869615484029 L 146.29781113006175,58.72817109990865 L 146.0615066010505,57.67136413324624 L 145.45949274487793,56.41398789547384 L 143.3833888117224,50.64374401140958 L 143.11613965407014,50.39995283680037 L 141.95993545651436,50.890608611982316 L 141.7911465037614,50.66225932305679 L 142.26375552639365,48.58810498006642 L 141.3607347086072,42.4529963969253 L 138.46037813462317,35.06249293126166 L 137.59674143977463,33.687687151599675 L 137.52078640647233,31.93763857660815 L 137.27604245208204,31.336587571538985 L 135.5037586223334,29.973095735069364 L 135.02271013893187,28.79831756418571 L 135.31809078156948,26.34552785847336 L 134.92706307582557,25.390113306231797 L 134.3363017886877,26.32691775029525 L 134.21814952418208,27.493009538855404 L 133.9143294543028,26.95341788372025 L 133.98184502869844,25.15122931357473 L 133.83556127734482,24.406577851623297 L 133.58237786404788,24.09316837694496 L 131.9788829535246,23.32351962616667 L 131.00553341954947,22.41094976430759 L 129.34577553719282,20.38030934939161 L 129.00538452155888,20.178439103532583 L 128.532775497064,21.20012347633019 L 128.02922184579074,21.21875393623486 L 124.85317668877542,18.659474139101803 L 123.44941536150873,18.007006164640188 L 122.6082838345319,17.02813305379823 L 121.62930798344314,17.1773079498671 L 120.96259169466794,16.5246325051412 L 118.59392025880516,15.868756959680468 L 113.3586500864476,16.711120550520718 L 109.36116539686918,16.596120472531766 L 104.21310282684863,15.321605221834034 L 97.3715246040374,12.280008723493665 L 88.19221957214177,7.293445515446365 L 84.72923319600523,3.991009526886046 L 83.34516393020749,3.208670719526708 L 82.57154797948897,3.1432100203819573 L 80.83020877838135,1.478325164411217 L 78.44465845637023,0.9544163169339299 L 68.6098897382617,0.5240178555250168 L 67.05140520073473,0.0 L 66.46064391173422,0.12165237357839942 L 66.1343186404556,0.5520885554142296 L 65.80799336731434,2.020882005803287 L 65.5154258646071,2.6444314219988883 L 64.46049501374364,3.4611531724222004 L 60.77245674468577,4.854233076795936 L 59.73721791990101,5.620714726857841 L 59.2871140986681,6.144092365633696 L 58.85670230537653,7.30590306641534 L 58.274380477145314,7.844659695401788 L 55.71722809411585,9.746933431364596 L 53.387940745800734,10.879831183701754 L 52.02075036428869,11.290593750309199 L 48.36646986566484,11.822663893457502 L 44.73188142850995,12.024896773509681 L 39.63445554859936,13.082586515229195 L 38.998683888465166,13.437169728800654 L 38.48387763462961,14.91119921207428 L 37.361431173980236,16.192043668590486 L 37.10824779421091,17.02813305379823 L 37.77777722477913,16.745309201069176 L 39.44597456790507,14.954728844575584 L 40.13800919987261,14.454113487154245 L 40.72033102810383,14.432346397545189 L 41.015711672604084,14.849013327620924 L 40.860988495871425,15.7039964501746 L 40.30961129628122,15.595189151819795 L 38.95367348194122,16.76706547383219 L 37.85654539987445,17.382415645290166 L 36.63563877157867,17.5284716472961 L 35.42035842500627,18.031863771844655 L 33.333001889288425,20.330618999432772 L 32.10646894201636,20.96102586761117 L 30.615500012412667,21.05418222444132 L 27.858614046126604,22.926232122816145 L 27.461960023269057,23.754910887219012 L 27.23972127214074,26.75183039251715 L 26.89651707932353,28.01703648874536 L 24.390001388266683,31.476013445761055 L 24.038357770070434,32.718271143268794 L 24.37312250211835,36.12428861530498 L 24.038357770070434,37.39317898405716 L 23.689527293667197,38.03677924210206 L 21.866606775671244,39.97324359230697 L 21.3264821767807,41.69869421329349 L 20.178717404603958,42.70646465476602 L 17.776288198307157,44.35986080067232 L 16.724170489236712,45.48137273686007 L 15.553900513797998,48.18675160454586 L 14.980018146336079,53.858166395220906 L 15.441374568268657,60.3730050958693 L 14.83654753677547,64.03646210581064 L 15.28946453332901,65.46723433025181 L 14.546793209388852,68.52122606988996 L 13.891329489648342,69.87692112568766 L 14.383630573749542,70.65450937394053 L 14.313301857560873,73.3274923809804 L 14.473651317879558,74.51911429967731 L 15.238827843219042,75.25605611829087 L 17.56248887255788,76.28759015072137 L 18.16168962046504,77.1163456235081 L 18.096987187862396,77.72708036843687 L 17.630004446953535,78.71207682415843 L 17.6890805978328,79.41158168530092 L 18.37830208800733,80.17846939759329 L 18.608980299904943,81.12311237258837 L 18.125118674710393,82.01238502142951 L 17.20240579545498,82.78806902840734 L 16.541315825656056,83.69850052101538 L 15.07285206578672,85.11439720680937 L 14.107941957190633,85.60465744230896 L 13.52843327075243,87.96948805404827 L 13.382149552926421,91.34326008381322 L 12.926419414579868,94.1519890469499 L 12.453810391947627,95.72089168941602 L 11.511405486613512,96.7573846001178 L 9.14836036786437,98.51190641894937 L 8.205955462530255,100.23527026269585 L 7.080695893615484,101.17615112708881 L 5.893547033891082,102.50774980336428 L 4.779540032148361,104.45565443299711 L 4.4391490165144205,106.50656201690435 L 4.0031109396368265,107.52560587553307 L 3.823069417849183,109.48379749013111 L 3.4123496524989605,110.54188580904156 L 3.206989785656333,111.8740962841548 L 2.37992400303483,113.16634607966989 L 2.1436194740235806,114.03782209940255 L 2.2617717385292053,116.63918604981154 L 1.904501836746931,120.08534914022312 L 1.4206402115523815,121.88667172892019 L 0.5992007125169039,123.58396914461628 L 0.6104533150792122,124.69086890341714 L 0.0,126.4784420710057 L 0.08720760233700275,127.26259251544252 L 0.8270657826215029,127.83999255113304 L 1.769470687955618,127.92811642633751 L 2.498076267540455,127.23827956384048 L 2.725941302254796,127.82175984885544 L 2.498076267540455,129.79052631929517 L 1.313740549609065,129.80875217728317 L 0.8411315251141787,131.30305808410048 L 0.8270657826215029,134.67886998364702 L 1.3165536914020777,136.2173049384728 L 1.3756298068910837,137.48230952164158 L 1.789162714034319,137.98580042505637 L 2.2617717385292053,138.26482295896858 L 2.0057751815766096,139.2776727201417 L 2.0592250134795904,139.77492937352508 L 2.737193902954459,141.03908578725532 L 3.142287353053689,140.50253813667223 L 3.192924043163657,139.87194964615628 L 2.970685290172696,138.51956986216828 L 3.6767856664955616,139.52630686899647 L 3.7555538434535265,143.15746575733647 L 3.915903339162469,144.59954325901344 L 4.301304725930095,145.29014828521758 L 6.6165263298898935,148.09405800839886 L 7.2101007252931595,148.56325160013512 L 7.874003905802965,148.65405855327845 L 8.633554114028811,148.20000852737576 L 8.633554114028811,158.11682346044108 L 9.837581859901547,161.66902711987495 L 10.107644157484174,161.03487512934953 L 10.38333274051547,161.02883521001786 L 11.038796462118626,161.66902711987495 L 11.984014509245753,162.17025699280202 L 12.583215223625302,162.955223236233 L 14.507409121841192,162.9099397957325 L 15.801457645371556,163.28125297185034 L 17.6890805978328,162.7016311227344 L 18.549904150888324,163.03371367277578 L 19.55419834703207,163.83364778291434 L 20.389703588560224,164.82962849503383 L 20.73572088778019,165.7530122171156 L 20.91294926777482,166.8421635562554 L 22.153547959402204,170.31634889170527 L 23.45884908363223,177.47495277412236 L 25.63903950341046,181.74883874086663 L 26.364831941202283,182.46484579332173 L 27.495717827230692,182.7446051230654 L 28.120236886665225,183.29505845764652 L 29.985354635864496,186.80405518133193 L 31.21188758313656,191.68654657155275 L 32.10646894201636,192.87873543286696 L 32.34277347102761,191.8697455828078 L 33.18390499614179,193.87853913474828 L 33.66495347954333,194.51495898328722 L 35.66791552118957,196.19572509266436 z" /><path fill-rule="evenodd" fill="#D2EBD9" stroke="#A6A6A6" stroke-width="0.25" opacity="1" d="M 232.74306521750987,327.3749999748543 L 233.0468852855265,329.02022546203807 L 233.34226593002677,329.49021760653704 L 235.10329719260335,330.60044657066464 L 234.95701344124973,329.7281388863921 L 233.7079752907157,327.1223054146394 L 232.7965150475502,324.33029149938375 L 231.10581253655255,320.6107303216122 L 229.8736532703042,318.94288250477985 L 228.89467745274305,316.8067310610786 L 228.26171893626451,316.0032925931737 L 227.95789883099496,316.98918360611424 L 228.13512724637985,317.92491107434034 L 229.11410306207836,320.2224849467166 L 229.33634181320667,322.31933452328667 L 230.4053384438157,323.6982563659549 L 232.74306521750987,327.3749999748543 z" /><path fill-rule="evenodd" fill="#D2EBD9" stroke="#A6A6A6" stroke-width="0.25" opacity="1" d="M 176.61230421438813,449.802828240674 L 177.75162952579558,448.82547830045223 L 177.79382675513625,448.37435603514314 L 177.21994438767433,447.9579143621959 L 176.48571252450347,447.85958489542827 L 176.13969518989325,448.37435603514314 L 175.4364079553634,448.108298425097 L 174.18174352124333,448.31073433626443 L 173.28716216422617,448.85439557861537 L 173.05085763521492,448.85439557861537 L 173.05085763521492,448.37435603514314 L 172.89894760027528,448.38013982539997 L 172.2659890819341,449.0163305234164 L 171.87496137619019,451.2830988629721 L 172.1815946213901,453.0232473956421 L 171.6583489086479,453.21978693874553 L 172.00999252684414,453.68799549527466 L 173.0621102359146,453.28915276983753 L 173.52909297682345,453.4856862593442 L 174.0889096017927,453.10995656298473 L 174.70498923398554,453.21978693874553 L 174.74999960698187,453.49435676494613 L 174.25488537922502,454.3266835329123 L 174.283016866073,455.0549037922174 L 174.4433663599193,455.462333638221 L 174.8287677820772,455.6299233394675 L 175.54049447737634,455.6645966847427 L 176.13969518989325,455.49122864287347 L 176.4181969501078,455.0462348507717 L 176.38443914428353,454.4509476721287 L 176.02154292538762,453.84116932423785 L 176.32536303065717,453.65909447101876 L 176.67138032987714,452.93075663549826 L 176.9583215471357,451.76297558518127 L 177.37748073972762,451.51436808146536 L 176.61230421438813,449.802828240674 z" /></g></g></g></svg>