<svg xmlns="http://www.w3.org/2000/svg" xmlns:xlink="http://www.w3.org/1999/xlink" width="330.99620155687444" height="500.0" viewBox="0.0 0.0 330.99620155687444 500.0" preserveAspectRatio="xMinYMin meet"><g transform="matrix(1,0,0,-1,0,500.0)"><g><g><path fill-rule="evenodd" fill="#D2EBD9" stroke="#A6A6A6" stroke-width="0.25" opacity="1" d="M 138.27636384870857,50.50529910088517 L 138.9709792099893,50.312763035530224 L 139.25840626098216,50.40903090755455 L 139.57776966737583,51.241360294632614 L 139.4260720529128,52.06970240641385 L 139.79333994328044,51.453959134873 L 139.59373779594898,50.619618001626804 L 139.0188836939633,50.11421158048324 L 138.27636384870857,50.50529910088517 z" /><path fill-rule="evenodd" fill="#D2EBD9" stroke="#A6A6A6" stroke-width="0.25" opacity="1" d="M 316.0260426599998,75.27929529245012 L 316.93622829718515,74.36594701255672 L 317.0320373142604,74.16521531296894 L 316.20169251644984,74.17324457946233 L 315.938217707444,74.37799093010835 L 316.0260426599998,75.27929529245012 z" /><path fill-rule="evenodd" fill="#D2EBD9" stroke="#A6A6A6" stroke-width="0.25" opacity="1" d="M 325.10394703480415,124.5167648002971 L 325.70275337900966,125.1584231252782 L 325.67081702360883,125.49032247345895 L 325.383389972616,125.82021512836218 L 326.04606902739033,125.4822763914708 L 325.79856239585206,124.79434516117908 L 325.06801864737645,124.19493670063093 L 324.2416658815928,124.1225259967614 L 325.10394703480415,124.5167648002971 z" /><path fill-rule="evenodd" fill="#D2EBD9" stroke="#A6A6A6" stroke-width="0.25" opacity="1" d="M 166.9392280660104,0.0 L 169.3743739600759,0.8229951760731637 L 170.99514313600957,2.7193616821896285 L 170.52408216428012,1.5178503841161728 L 169.68575325305574,0.5927147818729281 L 168.48015645169653,0.04805755848065019 L 166.9392280660104,0.0 z" /><path fill-rule="evenodd" fill="#D2EBD9" stroke="#A6A6A6" stroke-width="0.25" opacity="1" d="M 211.33073930093087,60.44473620923236 L 212.66408147476614,61.29943118104711 L 213.25889578671195,62.37887230957858 L 213.70201248442754,63.86768748681061 L 214.02137589082122,66.17530994093977 L 214.52836524997838,67.44358205189928 L 215.5343599531334,68.33863248443231 L 216.71999649587087,69.07917864341289 L 218.4046383826062,70.9095589038916 L 217.76191958668642,69.10928259743378 L 215.00341830286197,67.24290211801417 L 213.5223705957178,61.83112087007612 L 212.5523042799905,60.33840278792195 L 211.33073930093087,60.44473620923236 z" /><path fill-rule="evenodd" fill="#D2EBD9" stroke="#A6A6A6" stroke-width="0.25" opacity="1" d="M 330.99620155687444,72.93275609309785 L 329.94230236974545,73.03512434428558 L 328.75666577811353,72.81232341192663 L 327.69079049443826,72.81834501819685 L 327.0041591974441,73.60518197854981 L 327.89039259264246,73.32015165966004 L 329.34349602553993,73.26997055532411 L 330.99620155687444,72.93275609309785 z" /><path fill-rule="evenodd" fill="#D2EBD9" stroke="#A6A6A6" stroke-width="0.25" opacity="1" d="M 317.5989073519595,118.25600954750553 L 316.30548559781164,118.42693592282012 L 314.26555196614936,119.95929703349248 L 312.87632124405354,120.28106553922407 L 310.5968650453724,119.93516453704797 L 309.55094992253,120.38966345437802 L 308.80044596409425,121.96640186267905 L 309.81442473153584,120.85623802058399 L 310.46113555971533,120.6189273702912 L 313.64678541221656,120.76372678182088 L 314.3014803538099,120.6189273702912 L 316.4891195674427,118.87738325656392 L 317.5989073519595,118.25600954750553 z" /><path fill-rule="evenodd" fill="#D2EBD9" stroke="#A6A6A6" stroke-width="0.25" opacity="1" d="M 299.7864142509643,125.06790594547056 L 298.47702436801046,124.3035531884525 L 294.87620214093477,123.77053287066519 L 293.3911624017637,122.98007665411569 L 292.0178998080082,122.98007665411569 L 290.3971305831801,123.21540044154972 L 283.4669450514484,126.32713270979002 L 282.22941189445555,127.30076823895797 L 282.9479795466177,128.07326926244423 L 282.959955643164,127.59447643603198 L 283.2833110818174,126.72543309000321 L 291.58675920707174,123.3783183649648 L 293.3991464660503,123.6277257965412 L 294.4530456531793,123.99983064597473 L 299.7864142509643,125.06790594547056 z" /><path fill-rule="evenodd" fill="#D2EBD9" stroke="#A6A6A6" stroke-width="0.25" opacity="1" d="M 170.4921458088793,134.8579387248028 L 174.03707943856716,134.8579387248028 L 173.31052772211842,134.0932521536015 L 172.1448513402138,134.13953504525125 L 167.4502095063217,135.1275976789184 L 166.4322387066204,135.49788100109436 L 166.63583288621157,136.20626645465381 L 167.3623846026603,135.54215445904993 L 169.53405563882552,134.91428510355763 L 170.4921458088793,134.8579387248028 z" /><path fill-rule="evenodd" fill="#D2EBD9" stroke="#A6A6A6" stroke-width="0.25" opacity="1" d="M 161.61384358163923,139.61569099174812 L 160.98310088226572,140.04240964422934 L 160.5519602810964,140.91197542962618 L 160.48010350600816,141.87820044578984 L 160.91124410717748,142.5948451894801 L 161.61384358163923,139.61569099174812 z" /><path fill-rule="evenodd" fill="#D2EBD9" stroke="#A6A6A6" stroke-width="0.25" opacity="1" d="M 79.56140454509296,326.98303451458924 L 79.07437539566308,326.0959834835958 L 78.14422954875045,325.58534335019067 L 77.07037010253407,325.6077216186095 L 76.2080889493227,326.29943074914627 L 77.97656375658698,326.4520180935506 L 79.56140454509296,326.98303451458924 z" /><path fill-rule="evenodd" fill="#D2EBD9" stroke="#A6A6A6" stroke-width="0.25" opacity="1" d="M 187.9892675357405,52.41869631805457 L 188.08507655281574,52.96626435080543 L 188.2886707324069,52.87600515061058 L 187.9892675357405,52.41869631805457 z" /><path fill-rule="evenodd" fill="#D2EBD9" stroke="#A6A6A6" stroke-width="0.25" opacity="1" d="M 319.3434298681095,122.35255840141326 L 319.7705783881247,122.73268757481128 L 319.0360426073894,121.52393882605247 L 317.96617524232715,120.59881641156971 L 319.3434298681095,122.35255840141326 z" /><path fill-rule="evenodd" fill="#D2EBD9" stroke="#A6A6A6" stroke-width="0.25" opacity="1" d="M 180.68383000046015,148.05299746873789 L 180.80758329154924,148.5402922653593 L 180.51217217626981,148.89670919114724 L 179.35447985865176,149.12828269298188 L 180.00917484913953,149.26722799474373 L 180.68383000046015,149.0779403934721 L 180.88742413092405,148.510087745497 L 180.83153553353623,147.88385640876368 L 180.68383000046015,148.05299746873789 z" /><path fill-rule="evenodd" fill="#D2EBD9" stroke="#A6A6A6" stroke-width="0.25" opacity="1" d="M 103.96875164285302,184.8620257228613 L 104.26416280725971,184.33956736605614 L 103.8689505935181,184.51304619177245 L 103.96875164285302,184.8620257228613 z" /><path fill-rule="evenodd" fill="#D2EBD9" stroke="#A6A6A6" stroke-width="0.25" opacity="1" d="M 120.1524914545007,205.0390254573431 L 120.08861874393187,205.5681126031559 L 120.57564794225618,205.99422051105648 L 120.56367179681547,205.4671406140551 L 120.1524914545007,205.0390254573431 z" /><path fill-rule="evenodd" fill="#D2EBD9" stroke="#A6A6A6" stroke-width="0.25" opacity="1" d="M 273.207396117039,213.6355468512047 L 272.86408046865836,213.07592290337197 L 272.50479669170454,213.20320050325245 L 272.8560964043718,213.78505220660008 L 273.1275552776642,213.81737781432457 L 273.207396117039,213.6355468512047 z" /><path fill-rule="evenodd" fill="#D2EBD9" stroke="#A6A6A6" stroke-width="0.25" opacity="1" d="M 243.21118972590193,241.0645149210468 L 243.13933295104653,241.90630334592424 L 243.39083161461167,241.89011470833793 L 243.5465212611016,241.46112162689678 L 243.21118972590193,241.0645149210468 z" /><path fill-rule="evenodd" fill="#D2EBD9" stroke="#A6A6A6" stroke-width="0.25" opacity="1" d="M 274.33315207925625,282.13311929791234 L 274.3251680149697,282.7315531147178 L 274.5247701134067,282.75995390559547 L 274.5327541776933,282.1574619116727 L 274.33315207925625,282.13311929791234 z" /><path fill-rule="evenodd" fill="#D2EBD9" stroke="#A6A6A6" stroke-width="0.25" opacity="1" d="M 12.654774359893054,350.0452940200921 L 12.982121830573305,349.90671843709424 L 13.317453365540132,349.346316537587 L 12.654774359893054,350.0452940200921 z" /><path fill-rule="evenodd" fill="#D2EBD9" stroke="#A6A6A6" stroke-width="0.25" opacity="1" d="M 0.0,353.1513796108775 L 0.0,353.7853183923289 L 0.22355438931845129,353.90762507379986 L 0.3273474706802517,353.6609744292218 L 0.0,353.1513796108775 z" /><path fill-rule="evenodd" fill="#D2EBD9" stroke="#A6A6A6" stroke-width="0.25" opacity="1" d="M 182.89941348833963,499.9834982152097 L 183.04312703828327,500.0 L 181.74970528413542,498.8016219965648 L 182.28863104782067,499.4183271022048 L 182.89941348833963,499.9834982152097 z" /></g></g></g></svg>