<svg xmlns="http://www.w3.org/2000/svg" xmlns:xlink="http://www.w3.org/1999/xlink" width="500.0" height="396.4951946390793" viewBox="0.0 0.0 500.0 396.4951946390793" preserveAspectRatio="xMinYMin meet"><g transform="matrix(1,0,0,-1,0,396.4951946390793)"><g><path fill-rule="evenodd" fill="#D2EBD9" stroke="#A6A6A6" stroke-width="0.25" opacity="1" d="M 23.970671214163303,265.85892065800726 L 28.482797423377633,261.03087079524994 L 30.839577669277787,259.7598514202982 L 34.02223829180002,259.92886430583894 L 35.472564566880465,261.1525692474097 L 37.587623635306954,265.1217749658972 L 38.836516020819545,265.98065396770835 L 40.66956740990281,264.8377462718636 L 44.37595669180155,259.61112133506685 L 46.249294782057405,258.22529156692326 L 50.43912641517818,259.6854860810563 L 54.407380517572165,264.1412195004523 L 57.65047128684819,269.74806865490973 L 59.705100402235985,274.65983335115016 L 60.470550240948796,280.9741795659065 L 58.01305275782943,291.4221152709797 L 58.25477393344045,297.37690914142877 L 60.65184107422829,310.3099901461974 L 62.60575295239687,315.96628097910434 L 66.41285947337747,320.6134711112827 L 71.40842784196138,323.47705728933215 L 109.0967689100653,336.3557074731216 L 114.03190713003278,338.84161244891584 L 122.83458221331239,347.53161376714706 L 127.52799925766885,350.5561741599813 L 129.03875587508082,350.5153899891302 L 130.34807821176946,350.14833615813404 L 132.96672288700938,348.7073886487633 L 140.37950203754008,342.95164160151035 L 147.2886953894049,336.1451696557924 L 150.47135601006448,330.8893809057772 L 152.26412050426006,327.11492821760476 L 154.68133109249175,324.6375602250919 L 164.63218112662435,322.6287871329114 L 166.6666666008532,323.0766684496775 L 167.04939152114093,325.49271977785975 L 166.86810088157654,330.8214872935787 L 166.56594955921173,333.0621156077832 L 165.57892179861665,335.88709482736886 L 165.82064297422767,338.2031206153333 L 177.28224962577224,355.8249812051654 L 179.82032070495188,357.8989695170894 L 183.22455886006355,358.184588461183 L 190.0128917209804,355.573400195688 L 192.1078075375408,355.7909835698083 L 191.88623000495136,357.5589538663626 L 190.47619042918086,359.87119882460684 L 190.17403910681605,362.16335938777775 L 193.37684297934175,363.95921969786286 L 195.63290618173778,363.238131320104 L 197.4458141233772,361.36752902157605 L 199.46015615016222,360.8642029510811 L 202.1795182581991,364.19732163567096 L 205.64418656006455,361.79604820534587 L 209.65272736176848,361.89127648528665 L 217.83095634914935,364.03405131492764 L 220.40931412950158,362.6803296552971 L 230.0781564824283,362.8775987382978 L 236.90677623823285,360.9798306496814 L 240.25828024186194,360.81719581689686 L 243.2116669435054,362.6803296552971 L 246.03174589760602,366.11586873140186 L 267.6053499709815,379.30677817575634 L 271.53331717662513,380.20561156608164 L 279.32882124744356,380.11708786990494 L 280.6985739264637,380.4575663311407 L 287.3056159541011,386.2127041891217 L 289.4005317725241,387.20728529803455 L 291.8378856126219,386.6759264729917 L 302.25203455239534,381.27474214788526 L 308.6173555999994,378.9935597348958 L 315.10353713668883,378.2377744037658 L 321.85158329829574,379.4838171293959 L 348.7229070626199,390.8386945994571 L 353.859479367733,396.16801900137216 L 355.63210060819983,396.4951946390793 L 356.49826768413186,395.2137941699475 L 356.63927162252367,390.72967272624373 L 357.20328737422824,388.8219040259719 L 360.06365322321653,385.4361549858004 L 363.1858835015446,383.0454286132008 L 366.63040855154395,381.72420607320964 L 370.47780196741223,381.49266258627176 L 389.69462579488754,355.417013913393 L 397.0671178549528,349.86285579856485 L 399.64547582902014,342.2994038518518 L 402.66698906570673,337.10279842093587 L 406.73596001416445,332.98063309304416 L 423.63629029504955,320.7898864513263 L 434.95689301006496,314.98951794113964 L 440.7783417534083,313.7618625666946 L 441.6646524704993,312.98868970759213 L 443.2559826839715,310.7507591880858 L 444.5451615732163,310.22861882764846 L 453.4284102525562,310.62869886960834 L 455.4226090274751,310.4117052471265 L 456.2887761015445,309.353900260292 L 457.4168078005314,305.85548602137715 L 458.9477076716721,304.6556175984442 L 460.3174603506923,304.6962896157056 L 463.2986866924912,305.74024058226496 L 464.4065749421716,305.6656705830246 L 466.6022078022361,304.1946740401909 L 467.66980915889144,302.8796993838623 L 468.072677526623,300.8871004311368 L 468.233824910596,297.41756368242204 L 469.82515512406826,294.53135036397725 L 470.28845383413136,291.7133699627593 L 470.63089205138385,285.42204819247127 L 472.0812183264643,279.3970615873113 L 474.1761341448873,273.4148420924321 L 474.47828527353704,271.57458966691047 L 474.39771167747676,267.7120715472847 L 474.90129728242755,265.7304248660803 L 475.727177657187,264.80393337924033 L 478.00338411331177,263.5731994379312 L 478.9098380841315,262.51835652720183 L 480.13858682475984,259.42183024436235 L 482.2133590001613,250.4667633632198 L 486.38304738141596,240.62509282212704 L 487.5916524808854,238.7006646906957 L 489.7268551941961,237.74190949928015 L 494.3396986424923,237.4988534124568 L 496.4144712071866,236.51991350203753 L 499.8589960616082,231.01865846663713 L 500.0,224.86479174159467 L 497.864797482267,218.79410809278488 L 493.5742488056421,211.86272272840142 L 492.30521316826344,208.07459481619298 L 491.7009105216712,206.77388681657612 L 490.6333091650158,206.10672334302217 L 487.5715092290193,205.21721298340708 L 486.60462491586804,204.3210115795955 L 485.6780274976045,201.3295275317505 L 485.0737250447273,197.72563093621284 L 484.89243421144783,193.97435742616653 L 485.21472898311913,190.49322353117168 L 485.83917507715523,189.01210857462138 L 487.69236971996725,186.10411622468382 L 488.13552498072386,184.34071746654809 L 487.9743775948882,182.81976647023112 L 487.02763692475855,178.4999375892803 L 487.65208301879466,156.2992348819971 L 487.9139474481344,155.0361124575138 L 489.04197895154357,152.3892381489277 L 489.28369993157685,150.88460100069642 L 488.80025777593255,149.6621820461005 L 486.5441947672516,146.85498403105885 L 485.9197486732155,145.25683588627726 L 486.32261703908443,139.71149445325136 L 487.3096447996795,134.26191621087492 L 486.60462491586804,129.4312474373728 L 481.95149457268417,125.78232444450259 L 464.2252841107547,127.13716336525977 L 455.4427522793412,125.55429272633046 L 449.6615906264633,120.44451005198061 L 447.6271049566567,112.23989936895669 L 446.82136822491884,91.7189777744934 L 444.96817338839173,81.72202388197184 L 442.7322536315769,76.49169597867876 L 440.61719436757267,74.95367090590298 L 438.07912348397076,76.22420326713473 L 434.61445498652756,79.34075395949185 L 433.1036983691156,81.38755563553423 L 432.23753129318357,83.39446377567947 L 431.1094995941967,84.89310989622027 L 428.85343639180064,85.45513659063727 L 425.8923536930233,84.63886599708349 L 425.22762070409954,82.75222728680819 L 425.3887680899352,80.4243238447234 L 424.9456128273159,78.3107576733455 L 421.6018048208207,74.0041771447286 L 418.2579970099032,71.19612655043602 L 414.57175097987056,69.73879757430404 L 410.2812021058053,69.48478034418076 L 403.91588106006384,70.44739149138331 L 400.8137942291796,70.42065126821399 L 394.3477561380714,68.57569801434875 L 391.22552566602826,68.22812033537775 L 385.44436401315033,68.48211876768619 L 383.22858751006424,69.32435054518282 L 379.09918621741235,72.02512184996158 L 377.32656517252326,72.89427321311086 L 374.88921133056283,73.0681086704135 L 369.95407311059535,72.18557717092335 L 366.26782688498497,72.06523547321558 L 364.63620977662504,71.00893943104893 L 363.40746122971177,71.15601472184062 L 363.0045926682651,72.0518643418327 L 362.72258479334414,75.46187233366072 L 362.2189993839711,76.46494649257511 L 360.4262346960604,76.98656844347715 L 354.48392565734684,77.74896786734462 L 347.11143359541893,80.11663664132357 L 343.3446137756109,80.5848588515073 L 338.9332044124603,80.19690224062651 L 334.4815083499998,78.12349207978696 L 327.47159776091576,71.73095748573542 L 323.38248336315155,70.2602126263082 L 321.93215689249337,70.80838448181748 L 315.4661188032478,74.31175380386412 L 314.98267664574087,75.0472858287394 L 314.6603818759322,76.35794896632433 L 314.0560792274773,77.60183544177562 L 312.62589640170336,78.11011643335223 L 311.8201594725251,77.61521094571799 L 309.82596089318395,75.36825512442738 L 308.8993634749204,74.6728292349726 L 296.430585809052,70.9955691313371 L 290.50842002406716,67.77360685076565 L 285.51285146176815,64.04438042547554 L 283.98195159062743,62.30702770501375 L 283.1963581107557,59.84830908942968 L 282.99492383003235,54.71821548696607 L 282.63234216347337,52.75476111937314 L 279.9734107889235,48.77512079011649 L 273.0239303484559,42.04657230619341 L 270.34485533088446,37.175375333055854 L 263.0126501657069,32.02543400879949 L 261.0788815394044,29.597763331606984 L 260.7163000665605,27.46383322402835 L 260.69615661911666,24.676789600402117 L 259.9911369290203,21.743551524356008 L 257.5336394459009,19.210706878453493 L 251.97405532747507,17.984411981888115 L 241.86205790564418,20.263791544362903 L 236.36290374025702,17.744494991376996 L 235.9600355681032,16.731549819931388 L 235.53702355921268,13.399916836060584 L 234.79171716980636,11.960852960124612 L 233.82483266107738,11.614429807290435 L 231.0248973481357,11.774316522292793 L 229.89686564914882,11.601105832494795 L 227.94295377098024,10.028967046178877 L 223.39054066501558,5.486566591076553 L 221.67834976688027,4.354485092684627 L 216.23962613753974,5.419971513561904 L 207.63838533498347,13.173389531672 L 192.02723394334316,15.358838162384927 L 187.25324291363358,15.265551103278995 L 182.6403996590525,13.173389531672 L 175.54991547577083,6.099253914318979 L 172.5082587916404,4.354485092684627 L 165.9012165684253,2.956134748645127 L 159.19345730356872,2.9428175324574113 L 149.08145988173783,5.073681143112481 L 144.00531772524118,5.353376437909901 L 130.1869308259338,1.1717399079352617 L 101.56312946416438,0.0 L 101.482555674389,6.84516373462975 L 99.89122546091676,11.694373106583953 L 96.62799124419689,14.865755167789757 L 86.93900563754141,17.75782376807183 L 76.64571757987142,19.250696420669556 L 72.65732003003359,18.26431931834668 L 66.17113849334419,12.800292174331844 L 62.746756890788674,11.427897159010172 L 57.83176211826503,12.520474770106375 L 53.21891866996884,16.451667645014822 L 50.398839715868235,22.410152258351445 L 46.63201989419758,37.2554388968274 L 42.86520007438958,54.130491121672094 L 40.87100129947066,58.298429858870804 L 38.75594222918153,59.92847893666476 L 36.520022474229336,60.2625247258693 L 34.06252499110997,60.142267474904656 L 31.403593422845006,60.42286896519363 L 25.8842961974442,63.01531163789332 L 24.514543518424034,66.53044022619724 L 24.63540400750935,71.1159032471478 L 23.648376246914268,76.95981817599386 L 20.566432863473892,82.96630341466516 L 13.35508799366653,93.20497204177082 L 10.897590706124902,99.7797171426937 L 7.594069788232446,113.76790763251483 L 6.546611685305834,121.58435413148254 L 7.3120619133114815,127.1908226646483 L 10.111997419968247,126.30546730291098 L 12.911932732909918,128.0225625457242 L 15.450003812089562,131.24258654937148 L 17.30319864861667,134.78532159980386 L 18.672951327636838,139.12081480957568 L 18.713238222524524,142.63834834564477 L 17.524776376783848,145.83430068008602 L 15.208282830193639,149.13831560965627 L 13.737813107669353,150.11889992002398 L 10.49472233839333,150.64279679674655 L 9.104826211929321,151.82498359307647 L 8.722101293504238,153.23565536458045 L 8.319232925772667,157.48181759472936 L 7.674643384292722,159.4843348255381 L 5.197002647444606,164.24294644314796 L 3.706389281898737,165.80255803000182 L 1.5308998692780733,166.7975576594472 L 0.1611471902579069,170.67054932843894 L 0.7251631375402212,177.6926158517599 L 0.0,181.39315806236118 L 9.507694773375988,183.4792770659551 L 12.327773727476597,184.67722971457988 L 14.946418402716517,186.2656581159681 L 16.598178958520293,187.96194224338979 L 17.645636865869164,190.66827312018722 L 17.62549341842532,192.95081581082195 L 13.496092127636075,205.04201187193394 L 12.509064560756087,210.6089063808322 L 10.95802104845643,229.49347686301917 L 11.522036800161004,232.2470032274723 L 13.093223566189408,235.7233009338379 L 15.006848549470305,238.26179126370698 L 19.53911859728396,242.73208860307932 L 20.80815403908491,245.0217206487432 L 20.324711883440614,250.42622282356024 L 18.773668371140957,257.0288378894329 L 19.015389351174235,262.8226313618943 L 23.970671214163303,265.85892065800726 z" /></g></g></svg>