<svg xmlns="http://www.w3.org/2000/svg" xmlns:xlink="http://www.w3.org/1999/xlink" width="500.0" height="473.77644617529586" viewBox="0.0 0.0 500.0 473.77644617529586" preserveAspectRatio="xMinYMin meet"><g transform="matrix(1,0,0,-1,0,473.77644617529586)"><g><path fill-rule="evenodd" fill="#D2EBD9" stroke="#A6A6A6" stroke-width="0.25" opacity="1" d="M 0.0,143.8826198631432 L 1.1924895830452442,143.52228530705906 L 3.7959222085773945,144.18304819357581 L 5.870838403701782,142.61222169804387 L 6.274859841912985,143.47532174247317 L 6.498794201761484,143.64050531433895 L 7.6685771606862545,143.5004229194019 L 8.262081500142813,143.66641682945192 L 8.792946841567755,144.0364763820544 L 9.943938113749027,145.4083826232236 L 11.163832258433104,145.6732394238934 L 11.716621272265911,145.96969690266997 L 12.167621914297342,146.3633735999465 L 12.941213306039572,147.58667157334276 L 13.447023082524538,147.80218940018676 L 13.127564288675785,148.63191618397832 L 13.2825957685709,149.76242126896977 L 13.664693534374237,150.8120566997677 L 13.64746780693531,151.83510268712416 L 13.069623231887817,152.47722084261477 L 12.518400210887194,152.25587766733952 L 12.2192990668118,152.47722084261477 L 12.696921296417713,154.8484039872419 L 12.68126155808568,156.56000829092227 L 13.252842228859663,158.239594490733 L 13.551943372935057,160.235368138412 L 14.56512888893485,162.42825157288462 L 15.044317077845335,164.66979426634498 L 15.432678751647472,165.67224029405043 L 16.20313821732998,166.5204594009556 L 16.275173045694828,167.93928033532575 L 18.78856210410595,167.47605724073946 L 19.674903713166714,167.93928033532575 L 20.755426086485386,169.0966700911522 L 22.420056998729706,169.79900757037103 L 22.781797114759684,170.42499773344025 L 22.327664487063885,171.12910601636395 L 22.689404632896185,171.1876496449113 L 24.421372432261705,170.82663896889426 L 25.13075888901949,170.52581219025888 L 25.896520409733057,169.85916502517648 L 29.271195452660322,165.10519758518785 L 36.931942742317915,159.4220519424416 L 37.92163862660527,158.46032545226626 L 38.75630305334926,156.82449456048198 L 39.88223873078823,155.7098293211311 L 40.87819851562381,154.16875161440112 L 41.61420653015375,156.48699244624004 L 41.87572426721454,156.99244072451256 L 43.03297944366932,158.30208005872555 L 43.5434871353209,159.9715569508262 L 44.03363714367151,160.4561659246683 L 44.921544656157494,160.62258090334944 L 45.256663244217634,161.1332170558162 L 45.98014344647527,161.6503882801626 L 46.21973757073283,162.31132259918377 L 46.296470284461975,164.21167734614573 L 46.63002288341522,164.5398287482094 L 50.212972551584244,164.26853410433978 L 52.39907294511795,164.8111347046215 L 52.989445336163044,164.6868524455931 L 56.53794354945421,164.71690738457255 L 57.37573993206024,164.55363747058436 L 58.83366218209267,164.6665450928267 L 61.846597138792276,163.56435778876767 L 62.902063976973295,163.64882243936881 L 64.62306992337108,162.6401906821411 L 65.3293244279921,162.42825157288462 L 66.56174635887146,162.3925230372697 L 70.08362304419279,162.90979362046346 L 73.5929719209671,162.59228047146462 L 74.75179302692413,162.88137108762749 L 77.0710012614727,164.15807006461546 L 78.5469322502613,164.46428749151528 L 86.06909080594778,164.7745808439795 L 85.22189859300852,168.50657050753944 L 85.22659653797746,169.42262973450124 L 85.67133327573538,170.2583320965059 L 87.52231514081359,172.49363669124432 L 88.11268753185868,172.869380797958 L 88.84086564555764,172.54568654252216 L 88.93482415005565,171.528351721121 L 88.52140688151121,169.37873395276256 L 88.33192394673824,166.50745905353688 L 204.6446803882718,166.461957963882 L 209.4224686063826,192.2299802599009 L 209.36139559745789,192.63464372581802 L 209.0701243504882,192.95447716885246 L 201.7679851911962,198.03977651312016 L 201.23868584260345,199.04917548620142 L 191.36678256466985,293.63121775188483 L 171.85160824656487,473.7453460241668 L 225.53399732336402,473.77644617529586 L 234.7943875193596,467.39288335922174 L 282.0562811009586,433.4876963882707 L 326.6904694736004,401.71083069616 L 406.3891759738326,345.5257599360775 L 406.77753764763474,344.869498455897 L 407.407059404999,342.0708979330957 L 407.02496160939336,338.52463430934586 L 406.3515925966203,335.60237579606473 L 406.41109961643815,334.16199687169865 L 406.63346798345447,333.7517338762991 L 407.74530988559127,333.48549995874055 L 409.5931597985327,333.7584317806177 L 410.93989788368344,333.57926623220555 L 411.3595790527761,333.2310005086474 L 412.46202509477735,331.4950634241104 L 412.97879669442773,331.1251889031846 L 416.0637664832175,330.3420168145094 L 416.59932973608375,329.9889607327059 L 417.71743554621935,329.8065862171352 L 418.91070810705423,329.1758566161152 L 420.8493845388293,327.67882380774245 L 421.46324656158686,326.7540680191014 L 421.6480315513909,325.6004556331318 L 421.6229759901762,323.1770710966084 L 421.92364306375384,322.70590170822106 L 425.52851640060544,319.69280696171336 L 426.16743398830295,319.38892597611994 L 427.8586864285171,319.3872563652694 L 428.3316107429564,319.0224566971883 L 428.9611325003207,317.35072843404487 L 429.62823763489723,317.3281977039296 L 430.4707319326699,317.97495318739675 L 430.896676979959,318.0976375094615 L 431.2568511031568,318.0492310798727 L 432.0523661673069,317.4850804179441 L 434.41072380170226,316.75244681094773 L 435.20623883232474,317.1053993019741 L 436.44022672250867,318.28542541642673 L 437.1417833119631,318.74449222371913 L 437.7807009294629,318.85968282306567 L 438.3381878249347,318.71110412012786 L 440.7247329764068,316.90347076253965 L 441.8428387865424,315.68372759222984 L 442.80434712022543,314.3108273106627 L 444.03207113593817,312.04460773733445 L 444.3859813809395,311.694509875495 L 445.5823858976364,311.35693845991045 L 447.26424250751734,310.5185249799397 L 447.85304893553257,310.3843583848793 L 450.94741455093026,309.8177310123574 L 452.61047950387,309.74857350764796 L 460.91954021155834,307.9891224571038 L 464.7561777457595,306.2885645949282 L 466.51006918773055,304.8815774007235 L 468.58028750121593,304.08584359358065 L 469.0031005963683,303.6747074795421 L 469.1252466440201,303.23364670039155 L 468.56462773680687,296.742778734304 L 468.59907918795943,295.50042314687744 L 468.98744086176157,294.32316073658876 L 469.5950390063226,293.62623411230743 L 469.40399007871747,292.47596938791685 L 470.38115817680955,290.89176037488505 L 470.4594569168985,290.1828413682524 L 470.16192176193,289.44829009473324 L 468.4017664156854,288.17448216606863 L 468.12615487352014,287.58705809689127 L 467.84114753454924,285.7936637024395 L 466.7762848697603,284.83997943717986 L 465.6675749234855,282.64633055892773 L 465.7114222049713,282.0678099261131 L 466.76062513515353,280.8015840444714 L 468.004008885473,279.9664381633047 L 469.40399007871747,279.3592170428019 L 471.18920101970434,277.5859978478402 L 472.203952498734,277.008027657168 L 473.42541260644794,276.98070397414267 L 475.88086066767573,277.58268551528454 L 499.7870274633169,282.283297321992 L 500.0,213.86160738323815 L 499.5959785655141,213.56686640088446 L 499.03222773224115,213.4473367445171 L 498.85370664671063,212.89065484981984 L 498.9821165725589,209.20640399074182 L 498.37451845780015,207.96301104687154 L 498.4340254738927,195.5170072147157 L 498.18973346427083,194.77751802792773 L 495.7311534807086,193.14051035046577 L 494.6944783627987,191.79923857655376 L 491.9853424653411,185.1021125249099 L 491.85693256929517,184.23186692455783 L 491.97594660520554,183.36011264286935 L 492.3893638700247,182.34837744338438 L 492.3517804928124,181.8824799673166 L 490.58849319443107,180.1055435433518 L 490.1280966922641,179.38579025445506 L 489.9339158721268,178.80451075802557 L 489.6614363119006,175.72803442855366 L 489.4202762283385,174.51413020165637 L 488.95674777030945,173.40294262650423 L 488.1956841647625,172.47411812539212 L 487.0525227636099,171.85362110519782 L 484.64405396953225,171.39093032712117 L 483.53221209719777,170.77948142774403 L 481.1644586324692,168.14570970344357 L 478.5116978287697,166.5172093352303 L 478.2078987695277,165.6754899690859 L 477.92289140075445,162.05392381339334 L 464.7687055282295,164.35544463177212 L 463.57230104506016,164.3318893352989 L 462.867612503469,164.05573001271114 L 462.7298067472875,162.00195805216208 L 462.5606814920902,161.58705899957567 L 411.99536468833685,159.8433079617098 L 410.9743493050337,159.5957457611803 L 410.15691063180566,159.09821446426213 L 401.1525572165847,150.6653410398867 L 400.413417249918,150.29816063982435 L 399.58971467241645,150.12308830278926 L 394.9544301517308,149.96909330040216 L 393.20367063209414,149.29155702656135 L 391.95089105144143,149.04924900294282 L 387.24670362472534,150.73748258780688 L 386.2977230735123,150.69209009269252 L 383.37404864281416,149.78673530882224 L 382.348335377872,149.7924086090643 L 378.35040245205164,150.8120566997677 L 378.10611041262746,150.4821536031086 L 378.2658398412168,148.1473563136533 L 370.63328009843826,150.8120566997677 L 366.5852359831333,152.4983015046455 L 364.4727363809943,152.99858182179742 L 362.5794731937349,152.65721957036294 L 360.691690929234,151.4962317997124 L 359.5947257839143,151.00660175760277 L 358.7444016188383,151.02119286754169 L 358.44530050456524,151.41516474285163 L 357.7468758672476,153.307525631506 L 357.466566413641,153.44700101111084 L 349.8355726636946,153.40159010398202 L 348.8302170448005,153.12750935205258 L 347.9235177859664,152.45776178548113 L 346.30430014804006,150.81692027952522 L 340.02944030612707,145.22938739717938 L 338.96144568920135,144.5539456778206 L 337.80575650557876,144.05510132433847 L 332.01634876057506,142.6203177778516 L 330.7275517359376,142.00342125003226 L 320.22299477458,135.1500463199336 L 318.1089291796088,134.74488258804195 L 315.9792038500309,134.63247609045357 L 313.48930436745286,134.82898646756075 L 312.03764602169394,134.76267371908762 L 311.1278148405254,134.35429805633612 L 310.88665475323796,133.52629907475784 L 310.32916782423854,125.84529814566486 L 309.95020201429725,125.30095598753542 L 307.87685177847743,124.36178139806725 L 307.4070594161749,124.28668506979011 L 306.436155192554,124.51682141749188 L 299.3532525114715,127.91078742709942 L 297.0481380484998,128.41735678422265 L 295.3976009376347,128.00935148843564 L 292.9358889721334,126.58515370357782 L 290.03257225081325,123.48732205387205 L 285.5578001104295,120.98161756782793 L 284.7568041533232,119.65566093963571 L 285.1177612878382,119.51928610936739 L 283.93310157582164,115.47279268573038 L 282.9152181446552,113.3834746896755 L 283.05693880468607,111.71148482291028 L 283.9096119403839,108.76748677017167 L 281.57396095991135,107.91988573083654 L 280.89354506134987,108.24779582978226 L 280.15597105771303,108.32675428292714 L 279.5648156888783,108.07940772967413 L 279.03786528110504,107.4953161503654 L 278.68943592906,107.36803060676903 L 278.2439161799848,108.59828105801716 L 276.94415736570954,109.5668350129854 L 275.6459644809365,109.40566909918562 L 274.80112121254206,109.49269824638031 L 273.44968524575233,110.52423355192877 L 272.6424253806472,110.80712526617572 L 272.0395252108574,110.20589274121448 L 272.6659150160849,109.72478103591129 L 272.8647937811911,108.97537342389114 L 272.73794981464744,107.23994165007025 L 272.1303516998887,105.35511580877937 L 273.20069529116154,97.5848443750292 L 272.7833630591631,97.3088912803214 L 267.80982802808285,97.00720481853932 L 267.1427229233086,96.7441440676339 L 267.02997276186943,95.86412338539958 L 267.41755145415664,94.22501515503973 L 267.11453537642956,93.72563189244829 L 266.7473143339157,93.6307447149884 L 264.21826554462314,93.90254329843447 L 263.4634658135474,94.59575404552743 L 262.6475930698216,94.67778547806665 L 256.5340286195278,99.27779219811782 L 253.6863039843738,100.26766721718013 L 251.99505151435733,100.32722483505495 L 251.29192896559834,100.5115344976075 L 250.91531209647655,100.81416631885804 L 252.16730872541666,101.91935932962224 L 252.89861879125237,102.18018614896573 L 252.91741051152349,102.51508823223412 L 251.76328728720546,102.84517474030145 L 251.50803342834115,103.65998736117035 L 251.21676218137145,104.00703446893021 L 250.9998747073114,104.00783969461918 L 250.4932819493115,103.43292589928024 L 251.29192896559834,103.10361849842593 L 251.13141658902168,102.81297052581795 L 250.2693476229906,102.15523009328172 L 249.57718689367175,101.90647918079048 L 248.83961288630962,101.20454727183096 L 247.77866515517235,100.86165487696417 L 247.27207240089774,100.38517322391272 L 246.4444548562169,98.5519666611217 L 245.40073288232088,97.12948695197701 L 245.07187822833657,96.94928238168359 L 244.20432833954692,96.96858983207494 L 242.74953804165125,95.60190662438981 L 242.6101663224399,95.13621272332966 L 242.81922389939427,94.84426373289898 L 243.46127343922853,94.48316329880618 L 243.5293933339417,94.21214820048772 L 243.31642079725862,93.93712194217369 L 241.0316639840603,93.93551364401355 L 240.5211562924087,93.71759056672454 L 239.79297817870975,92.1545168000739 L 239.79297817870975,91.77344541414641 L 240.8437470383942,90.67776986281388 L 241.651789881289,88.89270810736343 L 243.48241410031915,86.88631290476769 L 243.72514014691114,86.02509655756876 L 243.62413481995463,84.26118637458421 L 244.0109304971993,82.85259393975139 L 243.3367784768343,80.46482956968248 L 242.62426009774208,79.79937151540071 L 241.42472359910607,79.52646167133935 L 240.14532243460417,80.16781483520754 L 239.2542829401791,80.36047178809531 L 238.248927321285,80.28501390037127 L 235.72692535817623,79.60512295062654 L 235.54292337596416,77.99352565105073 L 235.80913902819157,77.47993812011555 L 237.62880139425397,75.95702542876825 L 238.26771898195148,74.50338904606178 L 238.69679601117969,73.99323502345942 L 238.5088790655136,73.44942740723491 L 236.9867518544197,71.68030266673304 L 236.7455917969346,70.93138887104578 L 237.8449058867991,68.29390511289239 L 238.12443232908845,66.96506658312865 L 237.2247799858451,66.78715657815337 L 236.4167371429503,67.6078190326225 L 235.9712173976004,67.5805691566784 L 235.63844780996442,67.37539644958451 L 235.47558642923832,65.89125420921482 L 232.6881518252194,63.54698670422658 L 233.44764946773648,62.0667414648924 L 233.15168027952313,61.73836809559725 L 232.24028313532472,61.69672168395482 L 231.15506278723478,61.076855576829985 L 230.62184847518802,59.57623497908935 L 230.01973128318787,59.28479055641219 L 228.77634750306606,59.262372178258374 L 227.79839645326138,57.901369421277195 L 227.36227253451943,57.63880152348429 L 225.98264902085066,57.31860793498345 L 225.3938425630331,57.82772149145603 L 224.7572739496827,57.83892871090211 L 223.4629960283637,57.36983808665536 L 221.52980048954487,57.59237267985009 L 219.98574963584542,56.83513891277835 L 217.42146637663245,56.791916210670024 L 215.97685492038727,55.981932253111154 L 215.04275109246373,55.6890126329381 L 212.60609478130937,53.421232101507485 L 211.7902220711112,52.39876984152943 L 210.839675527066,52.665974204428494 L 210.4607097171247,52.39876984152943 L 209.40680884197354,52.22277160966769 L 208.9197907820344,51.86438647704199 L 208.24015783518553,52.24197123502381 L 207.6325597204268,52.12357420264743 L 207.82517460733652,51.621205190429464 L 208.89630115032196,50.96369070466608 L 209.4224686063826,51.070873321499676 L 209.99874722212553,50.95569209451787 L 211.0683078020811,50.39420593576506 L 211.42691596597433,49.968716892180964 L 211.65711423009634,49.35291512799449 L 211.6226627752185,48.12944073858671 L 211.36271100118756,46.92053195787594 L 210.8005261607468,45.94841127097607 L 210.80679006502032,45.596684094751254 L 211.0385542921722,45.249767306493595 L 211.96247924864292,45.17782776104286 L 213.03986969590187,44.30820619734004 L 213.32017915323377,43.21890466241166 L 213.32174511253834,40.65962340310216 L 213.51279401034117,39.55240548099391 L 212.1441322900355,38.562738137552515 L 212.01102444902062,38.001257312251255 L 212.16292397677898,34.27945426781662 L 211.78709011897445,33.634425945114344 L 210.83341162279248,32.666970948688686 L 210.5468382909894,31.9542183871381 L 210.3604873381555,30.69486810360104 L 210.05199033394456,30.263154299696907 L 209.33164205774665,29.80991701129824 L 208.3059287890792,29.433300528675318 L 205.28672992810607,29.04473175527528 L 204.84825706854463,28.75351561885327 L 204.75429859384894,28.267644362524152 L 205.10977480188012,26.392218199325725 L 204.92185788974166,25.589835845399648 L 205.60932067409158,25.754135047551244 L 207.05471514165401,21.716100517194718 L 206.59901655465364,19.371758747613057 L 205.94757115468383,18.87761746463366 L 205.5028344206512,16.766654012724757 L 205.70641110092402,15.72290316526778 L 206.17150551453233,15.543644653400406 L 205.66099782288074,14.772473752265796 L 205.6265464015305,14.300083046546206 L 205.9428732395172,13.794260908151045 L 205.53258792683482,12.175811771769077 L 204.70418740436435,10.807672853348777 L 204.29233610257506,8.790861848276109 L 202.80309434980154,9.542438514064997 L 202.12659338489175,9.66744162607938 L 199.59597857296467,9.2844754725229 L 195.69513607397676,8.420668311882764 L 193.51999749615788,7.267984853126109 L 193.058035004884,6.928096914663911 L 192.70882270112634,6.412318007089198 L 192.58354475721717,5.851200861856341 L 192.7119546532631,4.164065562654287 L 192.35804440826178,3.8974931626580656 L 190.94553539901972,4.393244092119858 L 190.59005919098854,4.113137757405639 L 190.27216636016965,2.6856752291787416 L 189.34197752550244,1.5336724095977843 L 186.63284162804484,1.515375113580376 L 184.3433868996799,2.3332179840654135 L 183.0123085528612,3.540217996109277 L 182.55191205069423,3.4447346427477896 L 182.53155437111855,5.004413299495354 L 182.90582229942083,5.420635160058737 L 183.3286353945732,5.165169924264774 L 183.57762537896633,5.258282637456432 L 183.51185442507267,5.9100967340637 L 184.25099438801408,6.7378604465629905 L 183.8015597090125,7.1063972970005125 L 183.8955181799829,7.673159612342715 L 184.35278273001313,8.628452599747106 L 183.75301447883248,9.508202287135646 L 184.19461929425597,10.51145446090959 L 184.05837953090668,10.814043250866234 L 183.08434338495135,10.921544207027182 L 182.59262738004327,11.479772390099242 L 181.9067305587232,11.521182911237702 L 182.06019607931376,12.234746508998796 L 182.81342981755733,12.943584884051234 L 182.85414514690638,13.307582011213526 L 182.59262738004327,14.107309845276177 L 183.46800713986158,14.71670971182175 L 183.6293025277555,15.082368526374921 L 183.25190267711878,15.559578624786809 L 182.35146732628345,15.945985202444717 L 182.37495692819357,17.892601157305762 L 182.0680259168148,18.06951389578171 L 181.33984780311584,17.97069735219702 L 179.47007424756885,16.988964039832354 L 177.40611980855465,17.079801929416135 L 176.88465029746294,16.824023822089657 L 176.67324374988675,16.263886236818507 L 176.61686868593097,15.054485531989485 L 176.77346612885594,14.630674384534359 L 177.50164427235723,14.22679689573124 L 177.7271445952356,13.93764081504196 L 177.61909234896302,13.217577049974352 L 177.05220959335566,12.831282224971801 L 176.3099376745522,12.69747653673403 L 173.53503084927797,13.235100051853806 L 171.68561494350433,14.320794463856146 L 171.22991635650396,14.739015257451683 L 170.612922411412,15.80416817497462 L 170.2151648811996,16.060715159634128 L 169.54649378359318,15.839223857969046 L 168.94672556594014,14.411606528796256 L 168.88252057507634,13.843647061381489 L 169.1330764889717,13.12040447932668 L 168.98274295032024,11.717885371064767 L 168.68677379190922,10.726450763875619 L 168.74001690372825,10.199320243671536 L 169.12524665147066,9.598172178957611 L 170.00689028576016,9.23909381404519 L 170.19480720162392,9.012984856031835 L 170.19010931625962,8.67940423102118 L 169.70465718954802,7.94381633377634 L 169.55432365462184,6.804721374530345 L 169.29750382900238,6.4354001097381115 L 168.60221114754677,6.20856105373241 L 167.9288421086967,6.281785710714757 L 166.78724669665098,6.96152801043354 L 166.12483947724104,7.174852789379656 L 165.463998246938,7.107989266049117 L 163.6803532652557,6.27541831927374 L 163.096244815737,6.195826402166858 L 161.37837075814605,6.413909861817956 L 160.69560585543513,6.3072552878875285 L 160.33543176576495,5.9196474314667284 L 159.60881958156824,3.470196811715141 L 159.67615646496415,3.0588323085103184 L 160.68464406579733,2.1852374705486 L 160.75198095291853,1.3992278792429715 L 160.380844976753,0.7501013814471662 L 159.75132324919105,0.27839786652475595 L 159.04350278526545,0.025453166337683797 L 158.29340099915862,0.0 L 156.81042312458158,1.7707448140718043 L 156.29834946990013,2.069082271074876 L 153.3167339861393,2.9076581932604313 L 148.50919228419662,3.452691578771919 L 148.2539384253323,3.8322437356691808 L 148.41993172839284,5.832099580671638 L 148.23827869072556,6.304071583319455 L 147.55081587657332,6.348643482429907 L 146.44836980104446,5.9642175594344735 L 146.05374425649643,5.978543720208108 L 146.04591435566545,6.798353638267145 L 145.4163926281035,7.9629217949695885 L 145.39446895942092,8.914262856822461 L 144.9685239084065,9.555177595699206 L 144.32490837946534,9.812351723434404 L 143.88956747204065,9.7868728924077 L 143.16921922564507,8.856940910685807 L 142.66106047481298,8.537695674458519 L 141.1036988273263,8.58227790798992 L 140.0153465270996,9.252628654241562 L 139.38739079236984,9.149923417950049 L 138.94421998783946,8.18820998002775 L 138.0469165854156,8.08153574471362 L 137.63349932059646,7.738434984348714 L 137.63349932059646,7.5274857878685 L 137.21695009991527,7.336441461928189 L 137.581822168082,6.884318307740614 L 137.23809076100588,6.375705084297806 L 136.56863668560982,5.973768341122195 L 135.95790661498904,5.844833753537387 L 136.3572301082313,5.322745799319819 L 135.99548999220133,4.701211296953261 L 135.93754893541336,4.257964464602992 L 135.34717654436827,3.7017461308278143 L 135.12480817735195,3.1336245234124362 L 134.39976198598742,2.2043315996415913 L 133.84149207919836,1.7818825831636786 L 132.76801653578877,1.5631072602700442 L 131.36803533881903,0.6435087262652814 L 130.09959596395493,0.46214478253386915 L 129.53114721551538,0.6753273189533502 L 130.35171787068248,2.869467226555571 L 130.09020013734698,4.364596503786743 L 129.33070252090693,5.795488883974031 L 128.74189606308937,6.136928790947422 L 126.305239751935,6.364562059054151 L 125.71799931302667,6.780842431820929 L 125.4173322096467,8.364941490115598 L 125.11353315040469,8.847387271001935 L 124.91308842226863,8.919039724161848 L 123.48961759731174,8.425444871885702 L 122.83660620450974,8.43897862592712 L 122.28225123137236,8.727171627338976 L 121.52431957796216,10.15711922571063 L 120.59882865846157,11.433583952952176 L 120.26214413717389,12.24111783131957 L 119.7892198227346,18.34126478130929 L 119.65454602241516,18.89036915358156 L 118.8558990098536,19.203588381875306 L 118.9201040007174,19.839623182779178 L 119.55432364344597,21.556656891014427 L 119.94894922152162,22.07406150898896 L 120.01628613844514,22.648103687679395 L 119.97243882343173,25.837880896404386 L 119.7892198227346,26.534197803819552 L 119.32099345326424,27.245724385837093 L 118.69303768873215,27.840833195252344 L 118.02593255415559,28.183876085327938 L 116.77941685169935,27.80333859869279 L 115.94005450606346,28.045061823446304 L 115.005167696625,27.941351395798847 L 113.89175983518362,28.139199995901436 L 112.80653949081898,26.008565360680223 L 112.26158037409186,25.63290425762534 L 111.23743303865194,25.41995675722137 L 109.5821980163455,25.454251357587054 L 108.58310627564788,25.037142319837585 L 108.11957782134414,25.35934344236739 L 107.98333802446723,25.844261574093252 L 108.09922013804317,26.387432418297976 L 108.61755769699812,27.28720522671938 L 110.01518994942307,28.71043240581639 L 110.33543175458908,29.327180495718494 L 110.2900184802711,30.27751783025451 L 110.56876194477081,30.648583547677845 L 111.69782957062125,30.895969240693375 L 111.9546493627131,31.381982184248045 L 112.128472533077,32.482591659296304 L 112.49647655710578,33.01738189882599 L 114.10316641256213,33.72063991683535 L 113.97162453457713,34.39760808227584 L 114.29108332842588,35.088999033905566 L 114.57452470436692,35.309361283201724 L 115.74587365612388,35.04189331550151 L 116.8937329724431,35.01155418297276 L 117.44808794558048,35.200776289217174 L 117.80199819430709,35.61037215590477 L 117.97425537183881,36.410456121433526 L 117.66419240832329,36.55099726561457 L 116.55235053598881,36.56377386371605 L 116.30649253726006,37.02613882557489 L 116.66823264956474,37.427833060733974 L 117.84427951648831,37.866283636773005 L 117.16777849197388,38.43015197874047 L 116.25638134777546,38.86865245690569 L 114.42575715854764,39.428591126576066 L 113.23091857507825,39.58915072889067 L 112.56381344050169,41.65272382553667 L 111.787090100348,41.0391134317033 L 110.96965142711997,41.09503967105411 L 109.31598233431578,41.84768200805411 L 108.3889254257083,43.50500290375203 L 107.61533403396606,46.29055962595157 L 107.2019167393446,46.58155633788556 L 105.66569574922323,46.1626521195285 L 104.11068307608366,46.882156670093536 L 103.54380028694868,46.843781584640965 L 105.0659275315702,54.746297117555514 L 105.0408719368279,55.11440772935748 L 104.52331735938787,56.05236253305338 L 104.37533279508352,57.82612043921836 L 103.82410974428058,58.30644463212229 L 101.83219016715884,58.37529334821738 L 101.27470324188471,58.83963690767996 L 101.14785930514336,59.42570747085847 L 101.73353378102183,61.318709943210706 L 101.76172132790089,62.01227862900123 L 101.5236931964755,62.697895743185654 L 101.1259356662631,63.240983430761844 L 100.67180306836963,63.50372899742797 L 99.70716275274754,63.24739179876633 L 98.98838046565652,64.71182596194558 L 99.03849165514112,65.52426713751629 L 100.0328854508698,67.48439381364733 L 99.98277429491282,68.16886640689336 L 99.64452381059527,68.86461898987181 L 99.1011306270957,69.44819949753582 L 94.45018634200096,71.86794292717241 L 90.857840847224,72.79017036268488 L 90.46164927631617,72.7661108947359 L 90.00281873717904,72.43570171785541 L 88.99589712917805,72.86234916839749 L 88.28181278705597,72.46136408229358 L 86.84894610196352,72.10851382603869 L 86.41203920170665,71.55360786383972 L 86.57333458960056,71.23607772612013 L 87.55989851802588,70.18094119755551 L 88.39456294849515,69.72557530878112 L 88.6365059837699,68.92393706529401 L 89.54555421695113,68.52475083735771 L 89.43280405923724,67.54209886444733 L 89.1618904620409,67.05001602252014 L 88.76256693899632,66.93621603632346 L 88.85652540996671,66.19895913405344 L 88.7077578343451,65.7983039622195 L 87.9999373704195,65.07877658773214 L 86.14112563803792,65.40247593820095 L 85.61495817825198,65.33036356884986 L 84.38097025826573,64.74387340713292 L 83.28948603570461,63.851399154169485 L 79.87879357859492,62.70750761614181 L 78.91415326297283,62.076352601870894 L 78.45532275363803,61.58619953831658 L 78.2392182610929,61.10728718852624 L 78.26114189997315,59.938152767019346 L 78.11707226932049,59.54580898885615 L 77.00523036718369,58.22158534405753 L 75.31867581233382,58.260012071579695 L 73.65091297775507,59.14227472618222 L 72.52810922265053,59.04779931297526 L 70.93864512443542,60.14794420520775 L 69.77512607350945,60.40898982179351 L 67.7722446769476,61.328320178668946 L 66.78724667802453,62.00587128382176 L 65.66287702694535,62.19649258814752 L 64.71233048290014,62.842074828920886 L 63.16358168050647,62.95741990907118 L 62.10028500854969,63.465277914190665 L 61.10119326785207,63.665546003496274 L 60.52178269997239,64.1846636258997 L 59.36922546848655,63.72162193944678 L 59.18600643798709,63.35473204427399 L 58.80547463521361,63.69438501726836 L 58.614425767213106,63.335506797768176 L 57.879983715713024,63.03912365366705 L 57.90190735831857,62.59376797848381 L 57.05314918234944,63.01669509522617 L 55.61245262995362,61.87772496137768 L 55.105076890438795,61.174557474441826 L 53.6565504707396,61.28987924219109 L 53.10689340904355,61.09287219401449 L 53.32456386461854,60.171966447960585 L 52.93463623151183,59.92373980698176 L 53.001973148435354,59.0734196647536 L 51.77894704788923,58.343270630342886 L 51.443828489631414,57.968613712117076 L 51.6568010263145,57.28498835559003 L 50.010961830616,56.43333655712195 L 49.39396785572171,55.124010843457654 L 48.75974818319082,54.30458560981788 L 48.30874754115939,54.090139837004244 L 47.054401971399784,54.03892973973416 L 46.17589025571942,54.95275718602352 L 44.94346832856536,57.31700698030181 L 44.13229352980852,58.141530194785446 L 44.03363714367151,58.72114678402431 L 44.412602957338095,59.544207667931914 L 44.21842213720083,60.40738827222958 L 42.257822033017874,61.723952000262216 L 41.04105983674526,63.636707121739164 L 40.499232675880194,64.0340520653408 L 39.758526749908924,64.23593631992117 L 39.15562654659152,64.20869766036049 L 37.83864197507501,63.76968736760318 L 36.72210215777159,63.71040675253607 L 36.49503584578633,63.39798896713182 L 36.10197626054287,62.0667414648924 L 34.77402989566326,60.95833349833265 L 34.17739360034466,60.07107344036922 L 33.47740297392011,59.83566116448492 L 33.28792009502649,58.940514957066625 L 32.51432864740491,57.88055579923093 L 31.540292531251907,57.72205384890549 L 30.56469042226672,57.315406057052314 L 29.97431803494692,57.31860793498345 L 28.16561745852232,58.24560202029534 L 27.661373674869537,58.68592033185996 L 26.436781611293554,60.338522715261206 L 25.896520409733057,60.77735035237856 L 24.04084062948823,61.60542064229958 L 23.470825891941786,62.11960277915932 L 22.919602870941162,63.37235518009402 L 23.4081869199872,64.28080015559681 L 24.269472874701023,65.18133339448832 L 24.834789667278528,66.40730759035796 L 24.626515075564384,68.35001284233294 L 24.75492500141263,69.04578099562787 L 25.226283323019743,69.30711025185883 L 26.530740082263947,69.35360531462356 L 26.859594736248255,72.32503374735825 L 26.475930981338024,72.86234916839749 L 26.17056592926383,72.30418341397308 L 25.671020060777664,73.848857749952 L 25.43612391129136,73.75742012821138 L 25.28265842050314,73.19758804491721 L 24.687588084489107,74.03173606540076 L 24.131667148321867,74.2900187720079 L 24.978859331458807,74.77933496190235 L 25.0540261156857,75.13551182835363 L 24.919352311640978,75.9040737634059 L 25.069685880094767,77.20710825338028 L 24.92091827467084,77.52648060326464 L 24.33837578073144,77.85710073704831 L 24.310188233852386,78.31453475961462 L 24.733001358807087,78.71260418160819 L 25.0540261156857,79.5296722939238 L 25.87303077802062,79.7335512060672 L 26.120454769581556,80.13490307331085 L 25.744620881974697,81.00430126208812 L 26.021798383444548,81.70759677374735 L 25.929405875504017,82.39569912943989 L 25.70077357068658,82.87989604473114 L 25.213755540549755,83.16818009596318 L 25.201227728277445,83.36010768567212 L 25.414200268685818,83.7961782629136 L 25.31867580488324,84.30134382471442 L 25.72739515453577,85.26036507822573 L 25.339033484458923,85.75277284486219 L 25.360957127064466,85.94315744400956 L 25.559835892170668,86.04919644678012 L 26.09853110089898,85.8740721824579 L 26.555795677006245,86.20745435659774 L 26.6575840190053,86.3938332721591 L 26.524476177990437,87.55799957131967 L 26.131416592746973,88.14697858109139 L 25.837013393640518,87.25187678495422 L 25.486235067248344,87.10564918094315 L 25.01331078261137,87.19563507195562 L 25.173040211200714,88.37920775753446 L 25.48936702311039,88.76653971825726 L 25.10570326447487,88.99396572611295 L 24.39944875985384,90.17459929385222 L 24.66253251954913,90.80959633691236 L 23.8497917316854,91.06441372656263 L 22.689404632896185,91.82570091239177 L 22.153841346502304,91.95191951631568 L 21.987848043441772,93.54389988374896 L 21.05452722683549,94.67135163093917 L 20.963700708001852,95.22870578966103 L 21.51179177686572,96.46661275578663 L 19.948949232697487,98.421615161933 L 19.731278780847788,99.02591796847992 L 19.728146824985743,99.70350293722004 L 18.79326004907489,99.54094134503976 L 18.75411067903042,100.29342177626677 L 18.61630492657423,100.42943967273459 L 16.973597683012486,100.31273780018091 L 16.279870960861444,101.10473660053685 L 15.846096016466618,101.16752054658718 L 15.382567591965199,100.91799761122093 L 15.077202539891005,100.39966039871797 L 14.818816758692265,99.15949877607636 L 13.381252158433199,98.01850532134995 L 13.212126899510622,98.03620630595833 L 12.71414702013135,98.5519666611217 L 12.41034796461463,99.38401645654812 L 11.10745719447732,100.0262222525198 L 11.03542236238718,100.36907640960999 L 11.534968204796314,102.59237547614612 L 11.325127616524696,102.95386494835839 L 10.484199341386557,103.2517647689674 L 9.851545602083206,104.13184652663767 L 8.100786112248898,105.41632485343143 L 7.544865176081657,106.04857923230156 L 6.873062130063772,107.10299366456456 L 5.870838403701782,109.44112531351857 L 5.045569863170385,110.41301416861825 L 7.630993753671646,111.87189539358951 L 8.645745228976011,112.92150279297493 L 9.12806537002325,114.31476374203339 L 9.31285036355257,116.21480262698606 L 9.12806537002325,116.80201231245883 L 7.540167264640331,118.36786940181628 L 7.236368205398321,119.17795696319081 L 7.239500157535076,120.47396428021602 L 7.920699067413807,122.87050122977234 L 8.143067434430122,124.13810980692506 L 8.077296510338783,124.83014182909392 L 6.6616555489599705,127.91725057992153 L 5.040871951729059,128.64116379851475 L 4.380030691623688,129.34494993486442 L 4.13104073703289,129.77404359728098 L 4.578909456729889,129.93970823218115 L 4.710451304912567,130.32842941954732 L 4.5006107203662395,130.73818591376767 L 1.2848820947110653,131.8681712562684 L 1.3412571884691715,133.22471844148822 L 0.839362345635891,135.88037120178342 L 1.0225813761353493,136.41987441270612 L 1.8165304437279701,136.96993594057858 L 1.9919195771217346,138.01274644443765 L 2.975351583212614,139.19085088162683 L 3.003539100289345,139.7136184212286 L 2.2518713511526585,140.15468395221978 L 2.1798365227878094,140.4970350449439 L 2.5400106757879257,141.30968154221773 L 1.2519966326653957,141.63751941383816 L 0.8338814191520214,142.42601366853341 L 0.2309812493622303,142.9692695357371 L 0.0,143.8826198631432 z" /></g></g></svg>