<svg xmlns="http://www.w3.org/2000/svg" xmlns:xlink="http://www.w3.org/1999/xlink" width="500.0" height="240.75144459679723" viewBox="0.0 0.0 500.0 240.75144459679723" preserveAspectRatio="xMinYMin meet"><g transform="matrix(1,0,0,-1,0,240.75144459679723)"><g><path fill-rule="evenodd" fill="#D2EBD9" stroke="#A6A6A6" stroke-width="0.25" opacity="1" d="M 449.91269820183516,183.80759623460472 L 439.86536086630076,161.0688684489578 L 439.79950301069766,160.64891384448856 L 440.02438346203417,159.40701399277896 L 439.7159760007635,158.6451961370185 L 436.0327554475516,152.67975000850856 L 435.96047244407237,151.72233578935266 L 436.3138560075313,147.06503137480468 L 436.1692900005728,146.3267579935491 L 435.7163165155798,145.90113141480833 L 432.07325320784,144.15439620055258 L 431.72790106758475,143.746389512904 L 432.46840027626604,139.13440524041653 L 432.6836429974064,138.59030556399375 L 436.9884973615408,133.86557767912745 L 437.94905814900994,133.36561134830117 L 438.85661140922457,133.94614059478045 L 440.588190888986,136.20887847989798 L 442.0997087750584,137.19642704166472 L 443.06830101739615,137.50464138109237 L 445.94355821516365,136.86196930427104 L 447.0438661528751,136.89008651394397 L 450.95999859739095,137.76503941323608 L 452.05388135463,137.81532967370003 L 455.90254965238273,136.28361905831844 L 459.74800539948046,132.6768569694832 L 460.42746561113745,132.6029361989349 L 461.60326911881566,134.44157187640667 L 463.0135908080265,135.7360278191045 L 466.73857488203794,140.52573797106743 L 467.4887118060142,140.7969960225746 L 469.9383024359122,140.636154204607 L 471.35665558092296,141.1397572075948 L 473.1974626965821,141.34029694925994 L 474.7137994710356,140.64155525993556 L 477.7095283418894,140.43993238266557 L 478.7889545271173,139.90123766474426 L 479.76798762287945,138.70473777130246 L 481.44736271351576,135.90099631249905 L 482.2882549809292,135.0345668150112 L 486.8292338186875,133.12465161830187 L 487.2002865681425,132.84975395258516 L 487.52315063402057,132.06952944211662 L 487.7142990194261,130.41716915089637 L 487.98415557388216,129.76102118659765 L 490.72287821862847,128.57752551790327 L 490.8417435856536,128.2561430213973 L 490.2843613224104,127.17025311011821 L 490.88671968784183,126.99045404978096 L 493.3009719615802,124.74610507208854 L 494.06395921390504,123.4083516607061 L 495.0317483032122,123.12323405221105 L 495.6855079047382,122.61350201256573 L 496.7818001061678,121.32002783101052 L 497.6210860675201,119.83326035365462 L 497.87247029785067,117.51966997887939 L 498.82901536487043,116.36158065032214 L 499.1494700172916,115.64656297303736 L 499.78074155934155,115.52782596368343 L 499.83535537775606,115.3703115452081 L 499.6024434864521,114.7851003613323 L 499.6281441124156,114.38924315664917 L 499.9357484513894,114.09331508912146 L 499.6281441124156,112.06367926485837 L 500.0,111.27678269520402 L 499.18239892926067,109.94788388069719 L 498.8715820237994,109.75072094984353 L 498.2788614043966,109.92916081193835 L 498.06040610186756,109.8566116290167 L 497.4082527915016,108.89749431610107 L 496.47339262999594,108.40828281734139 L 495.5931462859735,108.96706352662295 L 493.69370961748064,109.231345676817 L 490.82889328803867,108.86183429323137 L 486.47745652962476,110.15327131655067 L 486.12166353687644,110.48336775880307 L 485.39401464071125,111.77886150684208 L 485.0799851678312,111.70385882817209 L 484.4591544792056,111.07472047675401 L 484.20214825309813,111.16842633392662 L 483.84314267802984,112.18442450277507 L 483.5178691688925,112.34680463932455 L 483.04722649790347,112.18090748880059 L 482.0770279802382,110.66132899653167 L 481.55257464479655,110.33469628542662 L 479.83223918639123,110.99273373372853 L 478.9399456838146,110.53897785861045 L 477.7095283418894,110.53722172603011 L 475.576376629062,111.36406049132347 L 474.5419265469536,111.38163394015282 L 474.0648587429896,111.2105963267386 L 472.98864514008164,110.374496310018 L 471.66506304219365,110.1427377872169 L 470.44749602954835,109.20795556902885 L 468.81711276154965,108.7694738842547 L 468.1745971823111,108.15177322551608 L 467.5176249984652,106.95816123392433 L 467.21564268600196,106.79532675258815 L 465.63987323548645,106.61442487966269 L 465.28488338086754,106.69962051417679 L 464.5363527312875,107.14320013578981 L 463.6496812393889,108.67770488001406 L 462.7469468517229,108.11087688803673 L 462.1686828369275,108.25109857227653 L 460.93987178616226,107.9502258868888 L 461.23061009310186,106.89395869337022 L 460.55757501441985,105.78903375193477 L 460.37606435921043,105.17341411020607 L 460.30699393711984,103.61999625433236 L 460.0644443007186,103.11949971783906 L 459.5086683444679,102.95891840569675 L 454.1645450396463,103.32549341395497 L 451.93822855502367,103.7829925538972 L 450.49899365659803,102.47613698337227 L 448.65818654187024,102.04005149751902 L 448.1104420097545,101.62504152860492 L 447.43901322223246,100.18463534396142 L 444.8287936896086,97.46407226938754 L 442.591233198531,93.04694137349725 L 442.4964621514082,92.43764321692288 L 443.18877269048244,90.70600901544094 L 442.85787715483457,89.95968410652131 L 441.91819811984897,88.60868648439646 L 440.75203235819936,87.8843093495816 L 439.31119116954505,87.86246960796416 L 435.66170269809663,84.6321084825322 L 434.10842129122466,82.95021703932434 L 431.08699179440737,82.03117504250258 L 428.9779344163835,81.63080766052008 L 425.6994986785576,81.62508905865252 L 422.785690526478,81.16768528986722 L 419.65342710353434,82.3023537825793 L 419.12495803274214,82.34927251189947 L 416.48903787508607,81.42724139988422 L 416.26737000606954,81.10480536520481 L 416.00072603393346,79.60805231332779 L 414.7044508680701,77.36171053629369 L 411.48544782213867,74.29247398395091 L 410.5152493035421,73.58656272757798 L 409.5819954331964,72.08511846326292 L 408.4591994676739,71.32826049532741 L 406.4738263292238,70.9108780855313 L 405.6706818463281,70.02553191315383 L 404.08527466561645,68.88603871874511 L 403.10383212566376,67.84033144079149 L 402.52235552854836,67.36077241785824 L 402.0517128733918,67.21716632228345 L 400.9273106008768,67.33928700629622 L 400.0069070439786,67.8957638964057 L 394.2820932427421,68.41400525998324 L 392.91514134872705,68.99926242884248 L 392.2356811380014,69.00265929009765 L 388.74360898602754,69.9677396370098 L 386.2185227544978,71.25225938856602 L 385.2531431103125,72.77769560646266 L 383.5263824881986,74.37775579188019 L 383.01076374575496,74.48123879358172 L 378.7830112427473,74.40732149221003 L 377.28916254267097,74.84975293464959 L 376.46192371007055,74.78491390589625 L 375.97200559359044,74.26518503855914 L 374.67573041282594,73.79454373568296 L 373.792271502316,73.113903099671 L 373.0469534350559,72.18500773329288 L 370.1379641564563,66.19995190575719 L 369.9773352537304,65.6543836640194 L 369.93396545760334,63.80255990754813 L 369.08745119534433,62.12347395438701 L 368.16062245797366,60.85155157279223 L 367.7397747626528,59.531449067406356 L 367.7301370324567,58.64502785541117 L 367.95019861031324,58.199241747148335 L 368.9236097102985,57.60772107169032 L 369.19346626475453,57.255408473312855 L 369.397464947775,56.020838433876634 L 370.02070506569,54.52547972649336 L 371.42942046467215,52.56009288690984 L 371.9530706619844,52.02815663255751 L 373.7023193119094,50.83657198213041 L 374.60505369957536,49.81282799504697 L 376.0314382845536,47.25452916696668 L 376.24507471360266,46.52730213943869 L 376.2579250270501,45.18243092019111 L 376.07480809651315,44.59688626322895 L 374.71428135130554,43.958312570117414 L 373.5770287811756,44.00938683282584 L 373.28468419983983,43.878374313004315 L 370.3917578002438,40.4313087509945 L 369.8841704977676,40.17832448054105 L 368.2312991861254,40.03275642544031 L 367.8072389094159,39.852341149002314 L 366.8306152112782,39.05295033566654 L 363.06226135697216,37.52303672209382 L 361.15559640247375,36.43197618145496 L 360.5387814324349,35.8376899799332 L 358.413661159575,32.87638307642192 L 356.5969483628869,30.93376052659005 L 355.47897127084434,28.53258395753801 L 353.0117114549503,26.255736645311117 L 352.62941468320787,25.15217320714146 L 352.3483141232282,24.799841704778373 L 348.20087606366724,22.980604020878673 L 346.9624272827059,22.045181138440967 L 344.6702529732138,21.84376734867692 L 340.8569230316207,20.158340886235237 L 338.0250356150791,18.05703549273312 L 335.59150788001716,17.871466766111553 L 334.4237358113751,17.565145021304488 L 329.8835601117462,18.020028497092426 L 328.35116047319025,17.205593300051987 L 327.3279543975368,16.984797652810812 L 323.28090942744166,17.7582880994305 L 319.9133246373385,17.704422804526985 L 317.69985848106444,18.16261996421963 L 295.7932899016887,14.635012694634497 L 281.8177729463205,8.490970795974135 L 274.5774255245924,4.691505564376712 L 273.8851150004193,4.156069608405232 L 272.58402096200734,3.5228730076923966 L 271.4403432281688,3.2731227977201343 L 268.54821998253465,0.2077929088845849 L 267.9113264288753,0.0 L 266.9764662673697,1.0849585281684995 L 266.6447675935924,1.2187592554837465 L 262.1206547887996,1.2327311960980296 L 260.6235934915021,1.463826596736908 L 260.5159721309319,1.6557198083028197 L 260.559341927059,5.9237157218158245 L 248.43989185988903,3.525026211515069 L 247.9804932270199,3.601467835716903 L 238.37649164535105,8.721704642288387 L 222.2236500279978,12.493689431808889 L 221.2920024478808,12.982070747762918 L 219.9282631361857,14.454265806823969 L 217.57986870314926,18.306859824806452 L 216.06031936127692,19.450995784252882 L 214.30946440529078,19.915250352583826 L 212.53451512940228,20.071673444472253 L 209.55003026500344,19.75448642950505 L 190.87290558498353,22.85169125162065 L 190.16694161016494,22.846775336191058 L 182.4414949286729,20.47944180946797 L 146.9874854069203,25.194853328168392 L 134.3363536875695,23.78276946209371 L 134.00224558450282,23.86640210542828 L 133.68259408604354,26.87361258454621 L 133.3950683614239,27.798232298344374 L 126.48963221069425,34.96964908204973 L 126.18764988239855,35.768732871860266 L 125.84390404913574,38.42650649137795 L 123.66256366670132,43.17690651025623 L 122.05788100883365,48.318011255934834 L 121.2193981865421,50.220553977414966 L 120.83067626599222,50.683655854314566 L 117.99075740855187,51.27868033014238 L 117.8574354229495,51.50425897259265 L 118.0020014308393,53.25887433346361 L 117.91526182275265,54.55794457439333 L 118.30077117681503,55.78661798220128 L 119.08142760023475,57.209413070231676 L 118.7971144579351,57.35301401279867 L 113.4722666144371,56.65535468515009 L 112.80405042506754,56.75179289188236 L 111.43549223989248,57.50785188935697 L 108.21006402932107,58.577644631266594 L 107.57236732263118,59.56291770841926 L 106.4977600267157,60.591695703566074 L 104.04335052426904,62.08068065997213 L 103.05227023735642,62.07730230875313 L 102.61857223045081,62.24735744390637 L 101.67086173966527,63.93675723671913 L 100.18504447955638,65.49290439393371 L 99.67424459476024,65.63179790508002 L 98.97069003339857,65.29193098191172 L 98.26874177809805,65.2840281855315 L 96.97086030617356,65.47370893508196 L 96.23036109749228,65.7571539087221 L 95.40794115327299,66.65985761210322 L 92.91337443701923,70.1717242533341 L 92.51340849418193,70.53331136703491 L 89.98029083944857,71.85472228843719 L 88.35312013793737,71.93870417773724 L 87.1162776472047,72.59259264171124 L 85.61118490993977,72.51992160174996 L 84.39201159030199,73.09345548134297 L 80.9625847125426,73.05369718559086 L 79.44785424415022,73.78545096050948 L 78.69129214063287,73.65474941488355 L 77.97328099049628,73.7604461312294 L 76.19833169877529,73.2684069192037 L 75.1654879078269,73.21160183381289 L 73.65878889523447,72.8696894114837 L 72.70625954680145,73.17297583818436 L 71.41962209716439,73.09799937251955 L 70.70964238699526,73.3547555487603 L 69.67679859511554,73.14798319432884 L 69.28486409317702,73.24454845488071 L 67.95967571996152,74.2049240283668 L 66.94289480801672,74.57108259294182 L 65.01695437543094,74.36752166878432 L 62.342483279295266,74.5187676968053 L 61.03657036740333,74.23448566626757 L 59.49774556513876,74.62226230185479 L 59.03192176762968,74.48919937666506 L 57.5477107828483,76.14154255203903 L 57.21199640445411,76.13129405863583 L 56.42973367497325,75.43914507701993 L 54.6049894541502,75.77947989851236 L 53.597846273332834,76.311224155128 L 52.8316464535892,77.28192476462573 L 51.615685732103884,77.71624870877713 L 50.34671746753156,77.65696205105633 L 49.26407871674746,77.01980721205473 L 48.76291656214744,77.02436531614512 L 48.52036692481488,77.66152244899422 L 48.66011407505721,78.51118872221559 L 48.470571980811656,78.88773501012474 L 47.57105017546564,79.3785560540855 L 47.476279127411544,80.3699159398675 L 46.89801511261612,82.21195434127003 L 46.66028433293104,82.67202965170145 L 45.31100162491202,83.8115023849532 L 46.01776876859367,89.07458031922579 L 46.23783034645021,89.5682731308043 L 49.477715129964054,93.98339774273336 L 50.51859037671238,94.94599480461329 L 50.7707777293399,95.58891326840967 L 50.669581533409655,97.6471104612574 L 49.937113779596984,98.87115130852908 L 49.119512708857656,101.87612329330295 L 49.734721371904016,102.81755435373634 L 51.28639648668468,106.99434960167855 L 51.47111972421408,107.83807477541268 L 50.669581533409655,108.47607108112425 L 50.974776428192854,110.93417512532324 L 50.80772237665951,111.77827553544194 L 49.572486192919314,113.42832593806088 L 49.488959168083966,113.89372161775827 L 49.74596539326012,114.59361630491912 L 49.336361720226705,115.22927112039179 L 48.94763978384435,116.42040010076016 L 48.06257458310574,117.27595607470721 L 46.72935476992279,117.49376571178436 L 46.25871211476624,118.01431193482131 L 42.47590164095163,124.73959029093385 L 42.47268907446414,125.07425772491843 L 42.73772673960775,125.56487553194165 L 42.76342736557126,126.32845418807119 L 42.156250142492354,126.92162715736777 L 42.04862878192216,128.96733875572681 L 41.12180007528514,130.01082696486264 L 40.28010467067361,131.96108902338892 L 40.623850488103926,132.53200034424663 L 40.549961193464696,132.78238081093878 L 39.88656387664378,133.24095041956753 L 37.730924104340374,133.9682217212394 L 36.47882187273353,135.0333721805364 L 36.00175406970084,136.29617594275624 L 36.19129614904523,137.22036317177117 L 36.121422588825226,137.64171745628119 L 35.884494978003204,137.89555900450796 L 34.618739280849695,138.1015453506261 L 34.36253619287163,137.97459608782083 L 34.17219094466418,137.07316345721483 L 33.9689953988418,136.7913800990209 L 33.46703010704368,136.611336636357 L 31.827009093016386,136.47677024360746 L 31.325846939347684,136.611336636357 L 30.892148931510746,137.85843730159104 L 30.641567854210734,138.1105281356722 L 29.83360453043133,138.36027595866472 L 29.39990650676191,139.38376683741808 L 28.714021131396294,139.80348273273557 L 28.537329349666834,141.16016989015043 L 28.069899260997772,141.4057498332113 L 26.261217904277146,141.18778763804585 L 25.15528798662126,141.5859138322994 L 23.44137767702341,140.22574524767697 L 20.8102763928473,140.31933490280062 L 20.35730290785432,140.52213762048632 L 18.35667002759874,143.14847193006426 L 17.928594030439854,143.2639417629689 L 16.625090547837317,143.14847193006426 L 15.129635541699827,144.5553171671927 L 13.989170390181243,144.77630256582052 L 13.133821533992887,145.61907161027193 L 12.791681991890073,147.39511012099683 L 13.012546707876027,148.2650969158858 L 12.890468758530915,148.67827615700662 L 11.920270240865648,149.83763405121863 L 11.554036348126829,150.01544563751668 L 10.583837846294045,149.87391997221857 L 10.066612796857953,150.21506168320775 L 8.845833201892674,151.62845373060554 L 7.769619598984718,152.19549292512238 L 6.68698086310178,152.20821804739535 L 5.079085623845458,153.36131695099175 L 4.365893346257508,153.28913966473192 L 3.8438494401052594,153.58333505876362 L 3.358750165440142,154.12035365775228 L 3.219003046862781,154.69101236760616 L 3.9466519113630056,155.27105838246644 L 4.265500272624195,155.95897777564824 L 4.962629686109722,156.42956934310496 L 5.099967391230166,156.64607984106988 L 5.030896954238415,157.24594752211124 L 4.632537302561104,157.74140184838325 L 3.7265903493389487,158.37471634708345 L 2.67125849891454,158.44172134809196 L 1.326794664375484,159.13636014051735 L 1.0906701907515526,159.42652296926826 L 0.9380727438256145,160.35112942755222 L 0.03373206499963999,161.05055337492377 L 0.0,161.4608793091029 L 0.3292892137542367,162.25629144441336 L 1.5564939733594656,162.86023368127644 L 2.1275297021493316,163.3837371179834 L 2.1219076914712787,164.23798644170165 L 1.3396449610590935,164.8221202166751 L 1.2472833581268787,165.3403677949682 L 1.551675115711987,166.52964521571994 L 1.2529053688049316,168.07627468928695 L 1.8568700104951859,167.912923399359 L 3.435852042399347,168.14874606300145 L 4.569892045110464,169.25848369672894 L 5.793884206563234,170.01734557468444 L 6.344841305166483,170.57235046755522 L 6.413911743089557,171.18796178512275 L 5.903111858293414,172.61865704972297 L 6.823515416122973,174.70312416926026 L 7.215449918061495,174.9539048038423 L 9.99432979337871,175.46675150375813 L 11.496209948323667,175.1763167688623 L 12.480865085497499,175.24552023038268 L 13.677550346590579,175.87719054613262 L 14.189153352752328,175.65340926125646 L 14.919211694039404,174.77724096179008 L 17.638658861629665,174.5153826829046 L 17.71174500323832,174.6537156254053 L 17.39369979593903,175.42101870663464 L 17.45393563993275,176.70097518060356 L 17.60091109201312,176.9583720676601 L 17.922972003929317,177.04377105180174 L 18.224954332225025,176.9063931349665 L 19.069059181958437,175.1404808666557 L 19.26582956314087,174.9897350007668 L 19.86818792950362,175.10217478033155 L 22.147511940449476,176.11090837419033 L 22.684012435376644,176.5611630557105 L 23.00045135244727,177.13412749115378 L 22.41897475440055,178.4048073431477 L 22.56113133393228,178.96875763963908 L 23.01330168079585,179.26881574094296 L 23.569077637046576,179.1472953259945 L 24.92478550877422,177.98109399713576 L 25.42996338289231,178.00215216260403 L 26.512602134607732,179.48708816058934 L 27.037055484950542,179.483367273584 L 27.73579115793109,179.95725651457906 L 29.228033582679927,180.492163522169 L 30.566072284244,181.3216917766258 L 30.725094879977405,181.68697041738778 L 30.552418833598495,182.1194889191538 L 29.579810870811343,182.656631603837 L 29.385449903085828,182.95888310391456 L 29.651290737092495,183.70178448595107 L 29.212773840874434,184.2570920092985 L 29.345292689278722,185.7225813884288 L 30.026359192095697,186.3162804786116 L 30.850385426543653,186.61698735319078 L 33.11525283474475,186.68936824519187 L 33.95052307564765,186.8853184375912 L 34.71591977216303,187.2773178750649 L 35.13275174703449,187.8980457643047 L 35.26768002472818,189.30058719869703 L 35.510229646228254,189.78474446665496 L 35.987297465093434,190.11013147700578 L 38.026481268927455,190.55330508202314 L 38.656146535649896,190.84258589986712 L 40.535504589788616,192.3038671426475 L 41.796441429294646,192.60111101623625 L 42.577097836881876,193.27363997045904 L 43.25655806437135,193.365264615044 L 44.59299047477543,193.06406017486006 L 45.26923811994493,193.08037339523435 L 45.82019521854818,193.3125481903553 L 46.26674353890121,193.8410761039704 L 46.48359256610274,195.15150941163301 L 47.04097481351346,195.48846633452922 L 48.24569152947515,195.85571026336402 L 48.82234925311059,196.3073788518086 L 50.34671746753156,198.12464188877493 L 50.920162609778345,198.40195327159017 L 52.74972571898252,198.42338464036584 L 54.77525607217103,199.4096581256017 L 56.67228331230581,199.1257974728942 L 57.19432721845806,199.2822275897488 L 57.73243401944637,200.69231665413827 L 58.1163370674476,201.10544429719448 L 59.68086251150817,201.74121708702296 L 60.1001039147377,202.17242752946913 L 60.88397292047739,203.65317494701594 L 62.38585307542235,204.73266193456948 L 63.542381121777,205.16118972282857 L 64.7197909206152,205.30068584065884 L 67.24969600979239,204.78716991189867 L 68.74354470986873,204.85562545619905 L 70.04785134550184,205.61397970747203 L 70.85099581256509,207.36466815508902 L 70.96343604568392,208.64604832045734 L 71.17385989334434,208.9538941597566 L 71.88383960351348,209.26182260923088 L 72.2516797715798,209.19310413487256 L 72.4894105354324,208.8241309132427 L 72.78657399117947,207.86789707280695 L 73.16405188944191,207.24270643200725 L 74.89402507804334,206.17863146029413 L 75.78390915226191,204.82012947835028 L 76.37341720517725,204.48677421920002 L 77.08018433395773,204.67942406609654 L 77.70181816071272,205.25122620724142 L 78.0905400654301,206.86038953624666 L 78.64792234450579,207.284629303962 L 79.60527054965496,207.46885402221233 L 80.58992567099631,207.39389004651457 L 81.22119721304625,207.035655236803 L 81.41234559938312,206.15832456760108 L 81.40270786825567,204.98494152259082 L 81.993822212331,203.24293124955148 L 82.47892145626247,202.91382897924632 L 83.44751369860023,202.64302298333496 L 88.36757674161345,202.90117308404297 L 90.15216374769807,202.29764790832996 L 101.05083421990275,201.82087138388306 L 101.37851717323065,201.6324915299192 L 101.60661019105464,201.3202785877511 L 101.70620009675622,200.04702183045447 L 102.44830559659749,197.8914997028187 L 102.52219489123672,195.37404085788876 L 102.86754701565951,193.49204487539828 L 103.44741732254624,192.5684982696548 L 105.00069872941822,191.76099805999547 L 105.27055528294295,190.73237518407404 L 106.12349469494075,189.79100104607642 L 106.73709708172828,188.5503544723615 L 107.47598998434842,188.5041059749201 L 108.95859467796981,189.04920524731278 L 111.68125444371253,189.18301872257143 L 112.18081029132009,189.0554578891024 L 112.5984454350546,188.67160927318037 L 113.34055091999471,187.18866949435323 L 114.08747527748346,186.7567613935098 L 118.4132113950327,186.80918098893017 L 119.1135533740744,186.59577310085297 L 120.68129138462245,185.33733792696148 L 120.99130515288562,185.4071460524574 L 121.65309619344771,186.32376599963754 L 121.97596027422696,186.54336312040687 L 123.47623413894325,186.76799396891147 L 124.11232456937432,187.0700660413131 L 125.14195577893406,188.35662306006998 L 125.76680217217654,188.5603543780744 L 126.37558568641543,188.43536160420626 L 126.76591391395777,187.90179363638163 L 127.23976913560182,186.73429659288377 L 127.60760930366814,186.58703794050962 L 128.05094505753368,186.92401313222945 L 128.62760278210044,187.71566476114094 L 129.31188186630607,188.04422107059509 L 132.10361205413938,186.84537686314434 L 133.82394751161337,185.3822140879929 L 134.23676376696676,185.32113303337246 L 135.8189583811909,186.180301617831 L 136.26390041038394,186.1915286295116 L 136.58355190977454,186.03810224495828 L 137.27104357630014,184.73541640676558 L 137.53608125727624,184.63325772993267 L 138.17056539747864,185.0157759040594 L 139.01386709325016,185.89217880368233 L 139.35118776280433,185.98945904057473 L 143.50505097024143,185.3360913777724 L 144.07528354600072,184.82014017831534 L 144.8736091554165,183.55366416741163 L 145.84702025540173,183.09448639210314 L 146.36103270668536,182.04987742193043 L 147.17060233745724,181.6608753176406 L 148.06048641260713,181.46952888276428 L 148.67248250823468,181.45586247555912 L 149.31981694605201,181.66336052212864 L 151.3598039019853,182.97505515441298 L 152.41834830399603,183.79514727927744 L 152.89862870518118,184.39160088729113 L 153.01749408710748,185.12544600758702 L 152.789401053451,186.06304823607206 L 153.9652045611292,186.38240434974432 L 155.7385475616902,187.14247513189912 L 156.06783679127693,187.0138896657154 L 156.88222529552877,186.22022039163858 L 158.06766651850194,187.42216637451202 L 160.2714949445799,188.63035622704774 L 161.16619789227843,189.61833172291517 L 163.60454449988902,194.95541543886065 L 163.75714194681495,195.81168515607715 L 163.59490678459406,196.99213775526732 L 163.66397719085217,197.80203602742404 L 164.1603204868734,199.25194914545864 L 164.08643119223416,200.680948282592 L 163.4310652995482,201.46183836553246 L 161.63844683766365,201.961228068918 L 160.1237163702026,203.23406959697604 L 158.65556828025728,206.95182918198407 L 158.70857580658048,207.48028963524848 L 159.37357944529504,208.4552761921659 L 159.2868398381397,208.73381414543837 L 158.79531541466713,209.1256622383371 L 158.27327150851488,209.97724789660424 L 156.97217745427042,211.04485004022717 L 156.5497234687209,211.77924396842718 L 156.51599140278995,212.53580461163074 L 157.50707168877125,214.65376782789826 L 157.9761080527678,216.67510570958257 L 158.42265638895333,217.83102980349213 L 158.22508283890784,219.59022647328675 L 158.32627905067056,220.40016269125044 L 159.12942350190133,221.64734246395528 L 160.14299184735864,223.85768640227616 L 160.31647104676813,224.08520956058055 L 161.25615008175373,224.54168209526688 L 162.95078489836305,224.30439667589962 L 163.15960247069597,225.33578734844923 L 163.07286286260933,227.00773567613214 L 163.776417423971,228.79541596025229 L 164.68878954276443,230.38690347317606 L 166.13123700674623,231.08716531842947 L 169.14142249710858,231.952066690661 L 170.13571534957737,232.9274132149294 L 171.59583199955523,235.71261490229517 L 171.96206587646157,237.29233614820987 L 172.6816833326593,238.46878519654274 L 172.82303674332798,240.1720105232671 L 173.30171085335314,240.72527862060815 L 173.942620142363,240.75144459679723 L 174.4839395256713,240.3204376231879 L 174.6702690385282,239.50661706738174 L 174.98510166443884,238.94806789327413 L 175.45735062565655,238.62547651305795 L 178.68599138781428,237.33016182575375 L 179.65779619663954,236.05131309386343 L 180.10113195050508,235.81616764236242 L 183.72170723043382,234.7387713883072 L 185.62515961937606,234.66849961224943 L 186.0966054275632,234.46486617904156 L 189.33327764458954,231.16889070160687 L 190.7018358297646,230.7233642078936 L 192.13625183794647,230.89714413695037 L 193.87746906466782,230.5852671051398 L 198.5493604587391,230.60212311521173 L 199.48502375837415,230.04795045871288 L 200.53874931763858,229.7278851447627 L 207.23054903838784,226.2583161490038 L 207.96944195684046,225.61847033537924 L 209.90502011962235,225.30223148223013 L 211.05351672694087,224.01494969334453 L 211.5932298032567,223.68691274896264 L 212.17791898269206,223.68949027732015 L 213.6428545061499,224.24637245759368 L 214.33195246383548,224.31987032387406 L 216.15509040933102,223.6778914835304 L 217.39835804793984,223.6901346538216 L 218.9227262623608,222.76775286532938 L 220.1676001921296,222.85467736516148 L 221.2920024478808,222.11120419576764 L 222.48868770897388,222.02111919783056 L 222.85331529472023,221.80237095616758 L 224.55035955552012,220.53510086983442 L 224.6981381457299,220.12005627714097 L 223.7954037580639,218.45753712859005 L 224.02429994475096,217.0959471417591 L 223.9696861114353,214.92166648618877 L 224.26283384673297,213.93030733428895 L 225.26194555684924,211.99608214013278 L 225.0378682585433,210.9823972377926 L 225.4145430047065,210.34404447302222 L 224.84832616429776,208.30140977259725 L 225.06196259334683,207.5514470729977 L 226.472284283489,206.30682696402073 L 226.81201439723372,205.584803015925 L 226.669857817702,205.02805008273572 L 225.9807598600164,203.9014180218801 L 225.9132957449183,203.18469861336052 L 226.40080441720784,201.7879975186661 L 226.7847074959427,201.33923646528274 L 227.48504946008325,201.04858310241252 L 229.02628370653838,200.83506268728524 L 229.66719299554825,200.3159560719505 L 230.80926443822682,198.15741157811135 L 231.29436369705945,197.76801643241197 L 233.54477450065315,197.17094674240798 L 235.48035267926753,195.71357807144523 L 236.10600221063942,195.42182154208422 L 236.83204481564462,195.2432827251032 L 239.2551316972822,195.5714633371681 L 240.3690930698067,195.27597086690366 L 241.16822181735188,193.28242560382932 L 241.5360619854182,192.85953680425882 L 241.9994763378054,192.6864102371037 L 243.5615923376754,192.85326363146305 L 244.05311676114798,192.73909818846732 L 246.5814155433327,191.30608643312007 L 247.61747193243355,191.24970486667007 L 249.43900358583778,192.58229584246874 L 250.37386374734342,192.54717502649873 L 252.37208718340844,191.67451351694763 L 253.39047438651323,191.4915385041386 L 254.6674740901217,191.66323339752853 L 255.8553247731179,192.19100968539715 L 256.9564358331263,193.62009450420737 L 259.0831623971462,195.36272466368973 L 260.1449193805456,195.67207371722907 L 261.74317687470466,195.58026639651507 L 262.2636144896969,195.69471226725727 L 263.2185532813892,196.52509827259928 L 265.0473132375628,196.63082655705512 L 266.78853044845164,197.53620592411608 L 267.2961177667603,197.6206098087132 L 269.096767667681,197.38253109157085 L 269.96175426989794,197.54250450525433 L 272.0595676107332,199.20022530760616 L 272.64586308132857,199.55603133141994 L 273.4257163666189,199.6506790742278 L 278.2550240671262,198.3200134364888 L 280.42913616262376,198.49020266719162 L 282.3711394742131,197.87763869576156 L 283.62484801281244,197.77935618627816 L 284.4649371113628,197.08783489651978 L 284.7291716542095,196.16644939873368 L 285.96280156169087,196.00918232370168 L 287.3144936989993,195.16408066172153 L 287.6654678341001,195.11253936309367 L 290.69492878578603,196.0293112937361 L 292.3799258871004,196.2205542018637 L 294.0633166972548,196.00666622072458 L 295.45677235443145,195.52996410336345 L 296.1113350940868,195.14270961191505 L 298.4139503026381,193.1406088732183 L 298.99221431836486,192.83068055659533 L 299.3704953547567,191.70083421375602 L 299.9238618975505,190.94904935453087 L 300.28929263632745,189.8660826710984 L 301.1831924468279,189.2943332614377 L 302.3887122841552,188.2191558526829 L 302.89710274059325,188.00174090173095 L 304.13956724107265,188.31538119260222 L 305.0599707989022,187.4958462547511 L 310.73659591469914,187.39469373319298 L 311.95817864779383,186.71682425681502 L 312.62719800602645,186.76924205292016 L 313.3612720509991,186.5146634373814 L 314.11221212893724,186.46600033342838 L 314.2672190051526,186.22146786469966 L 314.20698317606,185.5966463489458 L 313.8560090409592,184.4862646078691 L 314.25597499869764,181.9367675743997 L 313.8158518271521,180.1222945023328 L 314.00298449303955,179.95849732868373 L 314.9868364613503,179.95725651457906 L 315.1892288690433,179.77859507128596 L 315.0253873998299,178.86834218353033 L 315.1876225778833,178.49526897538453 L 316.5939285485074,177.34704967215657 L 318.6170494724065,176.82347913179547 L 319.250730458647,175.62744845543057 L 320.1478428347036,174.52402801252902 L 322.30508888233453,172.61495792213827 L 323.3058068836108,171.92342455592006 L 324.3996896725148,171.83346888795495 L 326.6163683962077,172.2512665996328 L 328.2933340575546,172.2364747421816 L 329.404886001721,172.43371460679919 L 330.9975214842707,171.93451546225697 L 332.9812883315608,172.381935919635 L 334.9409608449787,172.18840257357806 L 336.87653902359307,171.34561015386134 L 337.49014139547944,171.4108926318586 L 337.6668331772089,171.28033130429685 L 337.85798156354576,170.53419316839427 L 338.50852858275175,170.21913521550596 L 341.8078460730612,170.4701901935041 L 342.6848798347637,170.11085351835936 L 343.19407342839986,169.54868744965643 L 348.84660422522575,167.98415652941912 L 350.19749322347343,168.34284386131912 L 350.8351899301633,168.790127848275 L 351.7957507176325,169.8820182615891 L 353.04062466230243,168.75940237473696 L 353.92568986397237,168.51608480978757 L 355.40829455759376,167.58874439727515 L 356.05081012193114,167.38495028857142 L 357.3936676811427,167.40704674646258 L 359.0979402596131,167.99521033186466 L 361.033518422395,169.06423473916948 L 363.72244612313807,171.06850794050843 L 365.8202594798058,171.81375346984714 L 366.8290089359507,172.81349465064704 L 367.2064868500456,172.88255877047777 L 368.2457557898015,172.3757719481364 L 369.01516819093376,172.3030394995585 L 371.84223672002554,173.56848751567304 L 377.5799008337781,173.93875964079052 L 383.8283648006618,176.74428319651634 L 384.46606153808534,176.86307912040502 L 386.1912158532068,176.67622845247388 L 388.0127475075424,175.83762391190976 L 389.1885510152206,176.07875393144786 L 390.6020852876827,176.80367966368794 L 391.8341089040041,177.8683774182573 L 392.5408760327846,178.13346447236836 L 393.3311702022329,178.16815320122987 L 393.5978141585365,178.34532953612506 L 394.01223670411855,180.5393364392221 L 395.49162883125246,183.29481000173837 L 399.1105978200212,186.1977659240365 L 399.7788140261546,187.04010498616844 L 401.66138464584947,188.55535442661494 L 404.3438871828839,189.97495963517576 L 405.86022394150496,190.0262730224058 L 407.7765266587958,191.9603130798787 L 409.0535263624042,192.52585217542946 L 410.03175633586943,193.51087482459843 L 411.3039371818304,194.28442205488682 L 412.643582158722,194.7870022719726 L 413.3696247646585,194.67641590721905 L 414.7992219161242,193.93525723554194 L 415.546146273613,193.74564706999809 L 418.44710411224514,194.1676034051925 L 419.90882703848183,193.7983832033351 L 423.69485007878393,191.56798347458243 L 424.72126872092485,189.94867807719857 L 427.00219900812954,187.38845001813024 L 429.76340971235186,185.4420516854152 L 431.6395551841706,185.33858445379883 L 432.72219392005354,185.5043857647106 L 434.8681959612295,185.1217070920393 L 435.40630276314914,185.29495645314455 L 440.1111230701208,188.03547502402216 L 441.3816976249218,188.42161323688924 L 442.66030362062156,188.4078650083393 L 448.22127593588084,186.18279652763158 L 448.87021666485816,185.59290591999888 L 449.91269820183516,183.80759623460472 z" /></g></g></svg>