<svg xmlns="http://www.w3.org/2000/svg" xmlns:xlink="http://www.w3.org/1999/xlink" width="454.7375899590552" height="500.0" viewBox="0.0 0.0 454.7375899590552 500.0" preserveAspectRatio="xMinYMin meet"><g transform="matrix(1,0,0,-1,0,500.0)"><g><g><path fill-rule="evenodd" fill="#D2EBD9" stroke="#A6A6A6" stroke-width="0.25" opacity="1" d="M 311.5319655574858,500.0 L 370.25910456106067,461.3014820497483 L 428.98240998387337,422.91115600056946 L 454.7375899590552,405.3565162187442 L 389.0284806750715,405.31844855332747 L 412.9157320410013,184.85249794088304 L 424.9992846287787,69.08079219516367 L 425.6471654213965,67.84525278303772 L 434.5852374471724,61.62066970998421 L 434.94176357239485,61.22918246360496 L 435.01651905849576,60.73386032273993 L 429.16834028437734,29.192905788309872 L 286.79748541116714,29.2486007027328 L 287.0294191055,32.76314093451947 L 287.53545620292425,35.39434776594862 L 287.42044773325324,36.63960093166679 L 286.5291324220598,37.0358139462769 L 285.80649610608816,36.57589010568336 L 283.5408299937844,33.83979962160811 L 282.9964567758143,32.8168708961457 L 282.9907063283026,31.695582576096058 L 284.0276990272105,27.127497569657862 L 274.82031562179327,26.747687725815922 L 273.01372481137514,26.3728669565171 L 270.1749333553016,24.810143053065985 L 268.7564960606396,24.45628609508276 L 264.46093111485243,24.844933220651 L 260.15003168955445,24.211776055861264 L 258.64150443300605,24.255509024485946 L 257.777024384588,24.514929857570678 L 255.67045331001282,25.74953017104417 L 254.37852523103356,25.646142503712326 L 251.20620929449797,26.922676395159215 L 250.69058816879988,26.99525805702433 L 248.90604067966342,26.85705520445481 L 247.8805488012731,27.056903251446784 L 243.53706370666623,27.020114962011576 L 242.81442739069462,27.172240764833987 L 240.1385645531118,26.50807877909392 L 238.589784309268,26.524980432353914 L 235.7529096826911,26.840152848511934 L 235.34462971240282,26.438484131824225 L 235.2047027722001,25.705789083614945 L 235.25070620328188,24.112383898347616 L 234.9574346728623,23.30337732937187 L 234.0718697719276,22.670341782737523 L 233.661672975868,22.04530539177358 L 232.57484333217144,21.841607675887644 L 231.97488269209862,21.248429455328733 L 231.3500035405159,19.204931737855077 L 230.9321395419538,18.555332898627967 L 229.93348299711943,17.601887692697346 L 229.61337620392442,16.983201439492404 L 229.04408447816968,14.793847628403455 L 228.71247682720423,14.145594120025635 L 227.49338744208217,16.031926773954183 L 226.11520306020975,17.39631575299427 L 225.0935447998345,19.398629597388208 L 223.88212265446782,20.57581623410806 L 214.50510181859136,27.532183947507292 L 213.8112176321447,28.325707240961492 L 210.37438232451677,33.351205258164555 L 209.43706361576915,34.16720454953611 L 208.56874994933605,34.53542697802186 L 206.11523670703173,34.94049150729552 L 206.06923334673047,34.743430480826646 L 206.53310066834092,34.23985248664394 L 206.4487611874938,33.65470734750852 L 206.11907032504678,33.27757044369355 L 204.08150425180793,32.41788496822119 L 202.7589073330164,31.001199696213007 L 201.67399440705776,30.43419853504747 L 200.68300510197878,30.509796367492527 L 198.59751887992024,31.001199696213007 L 198.50934574380517,29.264513579197228 L 197.56627659127116,28.226263923570514 L 197.09090841189027,26.999235157854855 L 196.50436541810632,24.255509024485946 L 195.26419115066528,21.57134351460263 L 194.89808095619082,19.128447231836617 L 194.1984463594854,17.072575370315462 L 194.10452281311154,16.268245557323098 L 194.21761441975832,14.977512237150222 L 193.78633277118206,13.428902159910649 L 193.6329882182181,12.075101687572896 L 193.99909840896726,11.80416995100677 L 194.673814535141,12.075101687572896 L 195.3811163753271,11.289126756601036 L 195.40220126137137,10.036882924847305 L 194.93450032547116,8.752092690672725 L 194.74473640322685,7.368315190076828 L 195.13576506450772,6.352700779680163 L 194.51663632690907,6.08889947226271 L 193.56973358988762,4.591540252324194 L 193.0176931321621,4.109666297677904 L 192.34106017649174,3.7467920440249145 L 190.84786735847592,3.4225981179624796 L 190.31691175326705,2.959627519361675 L 189.43901405483484,1.7433372153900564 L 188.78921643272042,1.2903714664280415 L 188.06274649873376,1.087189153302461 L 186.6308915168047,1.2586548714898527 L 186.35678808018565,1.0564644406549633 L 185.8622518070042,0.0 L 183.32248229160905,1.9227462052367628 L 180.93414054438472,1.2190093267709017 L 180.13579031080008,1.1139494753442705 L 179.31923044845462,1.2507257321849465 L 178.67614163458347,1.555011491291225 L 176.6194075010717,3.175743341445923 L 174.28569474443793,4.2821858315728605 L 173.63302190229297,4.833479272201657 L 172.3813467733562,6.331874038558453 L 171.86955926567316,6.639321479946375 L 170.98399436473846,10.116258819587529 L 170.4875412620604,10.856475725769997 L 169.2234069518745,11.27920328034088 L 166.13830571621656,13.218472694512457 L 165.36679081991315,14.120776880066842 L 165.02080715820193,14.242878484074026 L 162.86823265254498,13.741578584071249 L 161.87628491222858,14.165447966661304 L 160.4846829175949,15.515623852144927 L 159.55023939535022,15.816465614363551 L 159.3681427165866,16.571101127192378 L 159.56078182160854,17.862087632063776 L 159.27326077222824,18.421247890684754 L 158.56212528049946,18.76391402631998 L 157.3775384351611,18.598041952587664 L 156.69323823973536,18.722197340335697 L 155.52206904441118,19.832728231791407 L 155.29876098036766,20.312548601068556 L 155.67637203261256,20.599659754894674 L 156.94338156282902,20.467527785804123 L 157.55867668241262,20.567868396639824 L 157.75898306816816,21.101383660919964 L 157.51842373609543,21.7303213076666 L 157.04593078047037,22.232115619350225 L 154.83681048825383,23.74762515677139 L 154.38636078312993,24.23563039349392 L 153.93974473327398,25.454282346647233 L 153.86403084918857,27.04099478200078 L 153.2017739377916,28.08505649957806 L 153.05226296558976,29.149145818315446 L 152.70436247438192,29.768769930582494 L 152.11590265482664,30.043289797846228 L 151.53511007130146,29.963717822451144 L 149.93840967863798,28.911453703418374 L 149.4064956791699,28.8428326533176 L 148.2708914615214,29.13719090167433 L 148.05802181735635,29.302306822966784 L 147.85867386683822,29.982616083696485 L 148.0628138296306,31.76621808297932 L 147.97559909150004,32.30844096792862 L 147.31142538785934,33.12831280566752 L 145.72239223122597,33.74426758987829 L 144.76973908394575,34.3523088414222 L 142.55870196595788,34.169194916728884 L 142.15425561740994,35.451081661041826 L 142.3306018896401,36.10603903699666 L 142.89126801490784,36.98802837822586 L 142.91426969319582,37.553509295452386 L 142.08333374932408,38.76624485524371 L 140.76744563505054,39.80189839657396 L 140.99650407209992,41.853694254066795 L 140.48855018243194,43.1049571307376 L 139.6585726737976,44.12524393061176 L 139.66240629181266,46.002762640826404 L 138.18358951807022,47.35637322766706 L 137.6650931686163,48.12598358094692 L 137.1494720429182,49.426121631637216 L 136.9683337546885,50.696560555137694 L 135.72432586550713,51.66598482988775 L 135.0591937676072,52.6175758917816 L 134.5004444681108,52.63154141884297 L 133.1481369882822,52.098874310962856 L 132.7714843712747,52.35822071414441 L 132.83953104913235,52.95674589974806 L 133.46153493970633,54.12999105034396 L 133.3934883326292,54.66878639161587 L 132.93632981926203,54.71069428464398 L 130.27292620390654,54.020241093821824 L 128.8669480867684,53.44358091894537 L 127.8261218033731,53.379731935448945 L 126.56773790717125,52.76720789866522 L 124.69022519513965,53.920469804666936 L 124.5713831782341,54.325549432542175 L 125.02374967560172,55.97801793925464 L 124.3250734359026,56.001969382632524 L 123.68390141054988,55.726532272063196 L 122.49260576069355,54.213801194913685 L 121.89456190913916,53.75086155021563 L 120.99462096393108,53.289945230353624 L 120.38028423860669,53.339826581534 L 119.51580415293574,54.17788245435804 L 119.02605992928147,55.58682159613818 L 118.59765350818634,56.16563966218382 L 117.70729659125209,56.79440566478297 L 116.25243993103504,57.22359323641285 L 115.62085193768144,57.568957100622356 L 115.48284182325006,58.18585988273844 L 115.6591880954802,59.20415857248008 L 115.05539383366704,60.284503331873566 L 115.35824935883284,61.20721183298156 L 115.11002282425761,61.73851930908859 L 113.70979515835643,62.429674443323165 L 112.81081260740757,63.44454871630296 L 111.57926397025585,64.16183558106422 L 109.37589409202337,66.17220170609653 L 108.11655176058412,67.65134360594675 L 106.97413469478488,68.524974105414 L 106.3444635272026,69.35671721072868 L 106.04352475702763,69.53667382104322 L 104.73147022351623,69.67464349698275 L 104.34523357450962,69.85660738265142 L 104.15259446948767,70.15655756741762 L 103.97816502675414,71.14847873989493 L 103.61876367777586,71.3204785422422 L 102.19745112210512,71.19247832195833 L 101.85050899162889,71.35047889035195 L 101.99810317158699,72.80664214119315 L 101.8428417891264,73.09470821870491 L 99.20531507208943,74.22707629902288 L 98.47788674384356,74.18105800729245 L 96.78247078508139,73.28275736235082 L 95.99849663302302,73.13071727380157 L 93.69736958667636,73.44480359042063 L 91.73360060527921,72.98868259228766 L 89.95672032237053,73.65086741605774 L 87.90765346586704,73.25875086663291 L 81.57260565459728,73.71888972027227 L 80.44168937206268,73.44680416630581 L 79.75738925114274,73.55283633619547 L 79.05583778396249,74.67326884483919 L 78.14918795973063,75.41164647554979 L 76.93968264386058,74.80933288251981 L 76.50073379650712,73.65887002134696 L 75.82601762935519,73.1347182947211 L 75.28356120362878,73.19673430221155 L 74.26957018300891,74.38914312142879 L 73.73478099703789,74.55121348751709 L 73.20574222132564,74.40514993434772 L 72.883718598634,74.02299723448232 L 72.80896311253309,73.52282705856487 L 73.02939594909549,73.0046863835305 L 73.6293565928936,72.41457012714818 L 73.73861461505294,71.88050532806665 L 73.33800188824534,71.50048252148554 L 72.55594456195831,71.2044782252051 L 68.57281921058893,70.57250844873488 L 66.21897996217012,70.83048965409398 L 65.0286426693201,70.78849207097664 L 62.887569058686495,70.00658098701388 L 61.819907404482365,69.86260629538447 L 61.36179053038359,70.06057222699746 L 60.54714746028185,71.10647940263152 L 59.9855229370296,71.15647865179926 L 58.986866395920515,70.50051527284086 L 57.72944085672498,68.86285857157782 L 56.74036834388971,68.58895106380805 L 55.147501565515995,68.91884094011039 L 54.5820434615016,68.82886951556429 L 53.32270109280944,67.79727480234578 L 52.26270675286651,67.28352971142158 L 51.693414989858866,67.25154674286023 L 49.92228515446186,67.91522123944014 L 48.71853021159768,67.98319124011323 L 47.04132391884923,68.53696975763887 L 45.22227389365435,68.40102031081915 L 43.92651220038533,68.71690662344918 L 43.40322387218475,68.65692714834586 L 41.65892929583788,67.94320884393528 L 40.63727103546262,68.23108703503385 L 39.832212030887604,67.85524827009067 L 38.94664712995291,67.72930649016052 L 38.109002344310284,67.82726099481806 L 37.35761393979192,68.19310247944668 L 36.006264854222536,69.8206141628325 L 35.19737222790718,70.12256258260459 L 34.325224943459034,69.84261000296101 L 32.856950629502535,68.88285224046558 L 32.019305881112814,68.8368669017218 L 30.79254925996065,69.07279447093606 L 29.94723730906844,68.9008465684019 L 29.157512709498405,68.41501502785832 L 28.47321254760027,67.74529899703339 L 27.9595082141459,67.01967433420941 L 27.67965440452099,66.29411992430687 L 27.486056864261627,64.75130072794855 L 25.808850534260273,57.756618002429605 L 25.57500008493662,57.363333937712014 L 24.996124293655157,56.98005126276985 L 23.627523940056562,56.65068314783275 L 23.086984306573868,56.18160766270012 L 22.818631317466497,55.40520150447264 L 22.653785903006792,52.791149280034006 L 21.27751834690571,49.08710746606812 L 21.189345210790634,44.8865608475171 L 20.825151812285185,42.76024203049019 L 19.98643520101905,41.31259289663285 L 20.543365817517042,47.81256973138079 L 20.102651067078114,59.00500048045069 L 20.47091956064105,61.53515816247091 L 21.76136850193143,64.1983210328035 L 22.070774372667074,66.13690311042592 L 22.775616090744734,67.72811045404524 L 22.774106796830893,71.8832144155167 L 23.069928996264935,73.57489067548886 L 26.040225509554148,81.20799383195117 L 26.831097155809402,82.51222903840244 L 27.377462685108185,85.13401931058615 L 28.0113673992455,86.41212858492509 L 29.789319287985563,88.95165638718754 L 32.96186159923673,95.88346712337807 L 33.1792003698647,96.83634281018749 L 33.70141713321209,97.55542900925502 L 37.17430956289172,108.53563816286623 L 38.28666142746806,113.29712836956605 L 38.56739069521427,118.46923780767247 L 39.207332622259855,124.71131785912439 L 38.7968038469553,131.78330699075013 L 37.52899434044957,145.16954781115055 L 37.11544698104262,146.56534554436803 L 35.2076955512166,150.82775464234874 L 34.32928467541933,155.67783456947654 L 33.687833458185196,157.26874623494223 L 34.021388094872236,158.19828396802768 L 33.96101622283459,159.26988640101627 L 32.515109680593014,164.70234691351652 L 31.24126300215721,167.7739626755938 L 29.61424083635211,170.49876020476222 L 26.443207815289497,174.07499770913273 L 25.7685520760715,174.19647751329467 L 24.826750740408897,174.77193920407444 L 23.377825614064932,175.20197049854323 L 22.774106796830893,175.55848662368953 L 21.381025664508343,179.12473443243653 L 20.241506408900023,180.3357901251875 L 20.747120909392834,180.95020445855334 L 22.9023970477283,180.36458948487416 L 24.977680426090956,180.66699050366879 L 26.77978103980422,181.71350440150127 L 28.113999594002962,183.36843419168144 L 29.535757407546043,186.17671546386555 L 29.499534260481596,186.70520793739706 L 29.00750343501568,186.8749754568562 L 28.70564402639866,186.74044232163578 L 26.642435032874346,184.46662256168202 L 25.582908537238836,183.61014747386798 L 27.102770626544952,186.858959460631 L 26.57753524184227,186.5690768766217 L 25.074275448918343,185.30559947155416 L 24.292459595948458,184.33534225961193 L 23.998146653175354,183.4324632990174 L 24.19284598901868,182.73137952107936 L 23.785335801541805,181.61108572268859 L 23.223877303302288,181.41585459932685 L 22.85259022563696,181.58388102101162 L 22.712225630879402,182.3184483735822 L 22.774106796830893,183.61014747386798 L 23.12426369637251,184.2248768066056 L 24.0932323820889,185.2575634624809 L 24.431314900517464,186.7500517508015 L 25.836470413953066,187.93372251279652 L 29.378790512681007,193.33753070887178 L 30.05797417089343,193.91953324060887 L 30.30097096040845,195.37557692825794 L 31.43143441900611,196.58973903907463 L 31.35144170001149,197.36455172905698 L 30.903180483728647,197.93730091163889 L 31.38011834397912,198.51331156678498 L 31.43143441900611,199.2835479187779 L 30.649618569761515,198.7443725191988 L 30.54094920307398,199.37020545685664 L 31.072221763432026,200.33956776512787 L 30.903180483728647,200.89814280718565 L 30.21795965358615,201.32513331295922 L 29.748568262904882,200.98963831365108 L 29.378790512681007,200.09239819739014 L 28.769034523516893,199.72005730867386 L 28.50339822843671,199.9014102416113 L 28.48226808384061,200.37808855902404 L 29.05127304792404,201.67188391415402 L 31.235225830227137,203.90856791753322 L 31.851018991321325,204.87060528015718 L 32.16646207496524,206.0432395990938 L 32.00345800444484,207.01685509923846 L 30.417186830192804,210.0881209084764 L 31.215604946017265,210.18457468040287 L 32.252492006868124,211.66532948845997 L 32.696225341409445,213.22846656432375 L 32.6011396124959,213.94584138458595 L 31.28956053033471,216.18697114055976 L 30.181736506521702,216.51363631011918 L 29.897988691926003,217.2571461345069 L 29.158433120697737,217.79149902937934 L 28.113999594002962,220.39633342251182 L 27.199365612119436,221.23372276639566 L 27.102770626544952,221.62508069863543 L 27.56612480804324,221.94398356275633 L 27.49367855489254,222.1646483335644 L 25.593473587185144,227.25021264702082 L 25.228223718702793,227.79511744016781 L 24.684876814484596,228.0143829267472 L 24.379998821765184,228.509371785447 L 24.170206516981125,230.21231443015859 L 23.534792471677065,229.90749106602743 L 22.774106796830893,230.42521608201787 L 22.774106796830893,230.72038761619478 L 24.944475904107094,231.43337525427341 L 24.177753020077944,231.5333938295953 L 22.867683194577694,231.3107740804553 L 22.26849229633808,231.4366016262211 L 21.76136850193143,232.07223228225484 L 22.037569850683212,232.3432830586098 L 21.507806584239006,233.45342795038596 L 20.47091956064105,233.96823050128296 L 20.211320471018553,232.24002417363226 L 20.50261479243636,228.40456619067118 L 19.98643520101905,226.9084630906582 L 19.6106202788651,227.5242710262537 L 17.885493762791157,228.8979745185934 L 17.062926921993494,230.3010225445032 L 15.15215690433979,231.5333938295953 L 15.123480260372162,231.98511144332588 L 15.659280698746443,232.3432830586098 L 15.209510192275047,233.89560676924884 L 13.760585065931082,235.19973985198885 L 13.620220430195332,235.50321746105328 L 13.630785521119833,236.23937590885907 L 12.873118434101343,237.24366790568456 L 12.453533861786127,239.11222916468978 L 11.58116016164422,240.62914954964072 L 11.354765634983778,241.8539528697729 L 10.849151134490967,241.31100103398785 L 10.310332108289003,241.84587288694456 L 9.812264069914818,243.7756897388026 L 8.930834613740444,244.70849781204015 L 8.598789304494858,245.6673253038898 L 7.711322635412216,246.89963852753863 L 7.246459160000086,248.64666439965367 L 6.7740492187440395,249.7711813733913 L 6.067698210477829,250.65800217771903 L 5.5620837062597275,250.35374936042354 L 4.596133608371019,248.5382690532133 L 2.6355568058788776,246.0376391937025 L 2.422745916992426,245.5719206817448 L 2.6989472657442093,244.86209380580112 L 3.115513250231743,245.06581672793254 L 2.8483676984906197,241.64710824517533 L 2.6989472657442093,241.31100103398785 L 1.4809445850551128,240.81010727304965 L 1.177575882524252,240.49828179227188 L 1.151917863637209,240.1509306295775 L 1.6846996769309044,239.43690489744768 L 1.9759939946234226,238.5420702956617 L 1.5850860700011253,236.3814519913867 L 1.269643023610115,235.50967458169907 L 0.9013745337724686,235.07706177979708 L 0.0,239.3563640699722 L 0.13896850869059563,240.538123217877 L 1.2535918839275837,245.41947027249262 L 2.828249029815197,249.97190167894587 L 4.185348525643349,257.241311726626 L 4.538041032850742,257.57055078679696 L 150.81534897908568,257.59318666439503 L 147.91905327141285,304.0546108968556 L 147.43601788952947,306.6547805601731 L 145.63230230659246,311.8213909859769 L 145.2422320395708,314.39092336036265 L 145.73197626322508,317.09890836291015 L 146.93381437659264,319.65634987829253 L 150.81534897908568,325.07263569161296 L 165.49713373184204,335.27145611913875 L 167.76184141263366,336.05710079707205 L 174.01063291355968,336.95556831313297 L 175.34664751961827,337.3573707062751 L 183.48157729580998,341.2715617856011 L 187.25960428640246,342.3077511237934 L 187.75605735182762,342.95547151984647 L 187.90556832402945,344.3378861383535 L 187.90556832402945,446.4446239331737 L 310.6109396889806,446.44888900080696 L 311.33645122498274,446.65575107140467 L 311.59042816981673,447.19747285032645 L 311.5319655574858,500.0 z" /><path fill-rule="evenodd" fill="#D2EBD9" stroke="#A6A6A6" stroke-width="0.25" opacity="1" d="M 26.09003233164549,197.37417730875313 L 26.80996697768569,198.93692984851077 L 27.271811868995428,199.53549999883398 L 27.609894420951605,199.03642009524629 L 26.488486722111702,193.73033644957468 L 25.551213305443525,191.25847288034856 L 24.06153715029359,189.0102698248811 L 23.302360732108355,190.11103637563065 L 23.404992926865816,191.18474862119183 L 22.89334125071764,192.2939087129198 L 23.146903168410063,193.0313195567578 L 24.292459595948458,194.82871922757477 L 24.292459595948458,196.32186537003145 L 24.591300379484892,197.06135273957625 L 25.066728945821524,197.67257840186357 L 25.602529384195805,197.8699159519747 L 26.09003233164549,197.37417730875313 z" /><path fill-rule="evenodd" fill="#D2EBD9" stroke="#A6A6A6" stroke-width="0.25" opacity="1" d="M 28.200029525905848,194.02215084666386 L 28.621123388409615,194.1119426190853 L 28.91543633118272,193.7896602647379 L 28.479249499738216,193.08262093691155 L 27.410667207092047,191.97011640807614 L 26.79789263382554,190.84658970823511 L 25.351986091583967,188.95739940973 L 25.536120299249887,189.63513565110043 L 26.803929805755615,192.01018882822245 L 28.200029525905848,194.02215084666386 z" /><path fill-rule="evenodd" fill="#D2EBD9" stroke="#A6A6A6" stroke-width="0.25" opacity="1" d="M 22.404329013079405,194.14080449566245 L 22.685058280825615,194.07987398747355 L 22.612612023949623,192.88543363194913 L 22.141711339354515,192.02140915766358 L 21.859472814947367,192.27146714413539 L 21.67231998220086,193.11628766963258 L 21.886640165001154,193.88746558921412 L 22.404329013079405,194.14080449566245 z" /><path fill-rule="evenodd" fill="#D2EBD9" stroke="#A6A6A6" stroke-width="0.25" opacity="1" d="M 23.066910408437252,229.0414897268638 L 23.545357558876276,228.7496253172867 L 23.481967099010944,227.4501128513366 L 23.25708182901144,227.31469585420564 L 22.7710882127285,227.51782246725634 L 22.512998417019844,228.22881938097998 L 22.703169833868742,228.81896198214963 L 23.066910408437252,229.0414897268638 z" /></g></g></g></svg>