<svg xmlns="http://www.w3.org/2000/svg" xmlns:xlink="http://www.w3.org/1999/xlink" width="329.06432141177356" height="500.0" viewBox="0.0 0.0 329.06432141177356 500.0" preserveAspectRatio="xMinYMin meet"><g transform="matrix(1,0,0,-1,0,500.0)"><g><g><path fill-rule="evenodd" fill="#D2EBD9" stroke="#A6A6A6" stroke-width="0.25" opacity="1" d="M 60.03491221368313,14.83673719665967 L 59.71216450072825,12.248492987593636 L 59.09740701504052,9.92161716055125 L 59.36252121813595,9.151300935074687 L 58.20985087938607,8.766114287776873 L 56.895806731656194,7.729293677955866 L 56.09277972392738,6.544772075721994 L 56.74595959670842,4.925496913027018 L 56.61532363295555,4.187487188028172 L 55.789243230596185,3.9619702277705073 L 54.794104523956776,2.3052440863102674 L 54.202400432899594,1.899210087954998 L 50.244898999109864,0.6317545257043093 L 46.24129077605903,0.0 L 44.82734850794077,0.11486831377260387 L 42.62190599925816,0.8286544631700963 L 41.31554630212486,0.9763261473271996 L 40.31656537018716,0.5209961363580078 L 37.00071708858013,3.6831401113886386 L 36.79323644377291,4.355595601256937 L 37.542472118511796,4.650801510317251 L 38.71051140315831,4.408897464396432 L 39.356006778776646,4.531900484813377 L 39.64033210463822,5.183783703949302 L 39.88623508810997,6.5980589494574815 L 39.83244385011494,7.114512626780197 L 39.317584440112114,7.405515069374815 L 39.69796561449766,8.63498254143633 L 39.74407245032489,11.41286392416805 L 39.96307981573045,12.936590919736773 L 41.357810866087675,15.950401488691568 L 42.89086237922311,17.399565828498453 L 44.82734850794077,18.11995467846282 L 45.63421774096787,18.958960573887452 L 45.81096054054797,20.824916023528203 L 46.525616101920605,22.14636683743447 L 47.3978033401072,24.485977762611583 L 48.90780145674944,25.843615828547627 L 50.137316428124905,26.199343874817714 L 50.629122445359826,26.910751985851675 L 51.12861291132867,27.07019675243646 L 51.87400636076927,26.955723949242383 L 54.555885987356305,26.03988156025298 L 54.797946747392416,25.48378268466331 L 54.532832592725754,24.61684457003139 L 55.80845439992845,22.097276630811393 L 55.93140586838126,21.516352951526642 L 56.16962440498173,21.20541842468083 L 57.10328737646341,21.20541842468083 L 57.629673508927226,20.75535986549221 L 57.76799392327666,20.43212008685805 L 57.6143045630306,18.807536899112165 L 58.467280585318804,17.890747205819935 L 58.92066426202655,16.458048866596073 L 59.827431567013264,15.369022992206737 L 60.03491221368313,14.83673719665967 z" /><path fill-rule="evenodd" fill="#D2EBD9" stroke="#A6A6A6" stroke-width="0.25" opacity="1" d="M 0.0,499.7070874541532 L 0.16521607898175716,499.9297014998738 L 0.5417550299316645,500.0 L 0.8798716403543949,498.91814808547497 L 2.0978599842637777,497.0003061867319 L 2.1324400529265404,496.0354335929733 L 1.1488280668854713,497.2112417060416 L 0.2651141546666622,498.60568541218527 L 0.0,499.7070874541532 z" /><path fill-rule="evenodd" fill="#D2EBD9" stroke="#A6A6A6" stroke-width="0.25" opacity="1" d="M 328.23055656068027,42.206976539921016 L 329.06432141177356,42.00294722756371 L 328.8606829922646,41.02353449980728 L 327.90780889615417,39.94604240381159 L 326.459286512807,39.43989763688296 L 325.4103565197438,39.268454297911376 L 323.0435401573777,37.725298683391884 L 321.69107362255454,39.166402887087315 L 321.4336439650506,39.268454297911376 L 321.57196437753737,40.199102802202106 L 321.9523456003517,40.60724790766835 L 324.1193657685071,41.86012366041541 L 325.62936388514936,42.37835709541105 L 327.19315329007804,42.606858883751556 L 328.23055656068027,42.206976539921016 z" /></g></g></g></svg>