<svg xmlns="http://www.w3.org/2000/svg" xmlns:xlink="http://www.w3.org/1999/xlink" width="68.29303657822311" height="500.0" viewBox="0.06769422255456448 0.0 68.29303657822311 500.0" preserveAspectRatio="xMinYMin meet"><g transform="matrix(1,0,0,-1,0,500.0)"><g><g><path fill-rule="evenodd" fill="#D2EBD9" stroke="#A6A6A6" stroke-width="0.25" opacity="1" d="M 30.602987095713615,0.4322323407395743 L 31.20702773332596,0.0 L 30.780033469200134,0.010415218130219728 L 30.602987095713615,0.4322323407395743 z" /><path fill-rule="evenodd" fill="#D2EBD9" stroke="#A6A6A6" stroke-width="0.25" opacity="1" d="M 33.227439284324646,1.1144292157841846 L 32.737958159297705,0.4634780779015273 L 32.41510887816548,0.3697409849264659 L 32.46718133613467,0.7290662680752575 L 33.227439284324646,1.1144292157841846 z" /><path fill-rule="evenodd" fill="#D2EBD9" stroke="#A6A6A6" stroke-width="0.25" opacity="1" d="M 28.119130585342646,2.072626816050615 L 28.290969725698233,1.4268852491513826 L 28.09309435635805,1.5258296077954583 L 28.119130585342646,2.072626816050615 z" /><path fill-rule="evenodd" fill="#D2EBD9" stroke="#A6A6A6" stroke-width="0.25" opacity="1" d="M 35.52383495680988,4.030673956207465 L 34.711504550650716,2.926670092216227 L 34.680261086672544,3.5828237656969577 L 34.88334368914366,4.176485525851604 L 35.19577844068408,4.4264480517595075 L 35.52383495680988,4.030673956207465 z" /><path fill-rule="evenodd" fill="#D2EBD9" stroke="#A6A6A6" stroke-width="0.25" opacity="1" d="M 35.956036454066634,6.394896613957826 L 35.82064801082015,5.207579747017007 L 35.414482805877924,5.645012764609419 L 35.28950889222324,6.155350530403666 L 35.461348032578826,6.665687625762075 L 35.99248714931309,7.082288725476246 L 35.956036454066634,6.394896613957826 z" /><path fill-rule="evenodd" fill="#D2EBD9" stroke="#A6A6A6" stroke-width="0.25" opacity="1" d="M 48.00560462847352,25.9122446240508 L 48.515914749354124,25.329025606333744 L 48.60964520089328,24.589586616901215 L 48.016019094735384,25.271745164587628 L 48.00560462847352,25.9122446240508 z" /><path fill-rule="evenodd" fill="#D2EBD9" stroke="#A6A6A6" stroke-width="0.25" opacity="1" d="M 26.275765342637897,58.650315411330666 L 26.8433552198112,58.1139649040997 L 26.749624768272042,57.7182113401941 L 26.49446970783174,57.90567356150132 L 26.275765342637897,58.650315411330666 z" /><path fill-rule="evenodd" fill="#D2EBD9" stroke="#A6A6A6" stroke-width="0.25" opacity="1" d="M 33.53987410105765,59.415786977799144 L 34.081427747383714,59.27258643996902 L 33.664848014712334,58.91588707943447 L 33.53987410105765,59.415786977799144 z" /><path fill-rule="evenodd" fill="#D2EBD9" stroke="#A6A6A6" stroke-width="0.25" opacity="1" d="M 22.52134069800377,61.33207266905811 L 22.52134069800377,61.316450732643716 L 22.750459529459476,60.655123420234304 L 22.479682706296444,60.75666576769436 L 22.52134069800377,61.33207266905811 z" /><path fill-rule="evenodd" fill="#D2EBD9" stroke="#A6A6A6" stroke-width="0.25" opacity="1" d="M 44.42822635732591,62.31104647356551 L 44.4230190590024,62.308442824753 L 43.81897848658264,61.97777867055265 L 43.912708938121796,62.3579122814117 L 44.42822635732591,62.31104647356551 z" /><path fill-rule="evenodd" fill="#D2EBD9" stroke="#A6A6A6" stroke-width="0.25" opacity="1" d="M 19.121008798480034,63.59204608568689 L 19.407407321035862,63.3785460209474 L 19.272018941119313,63.22753379779169 L 18.964791422709823,63.38896063173888 L 19.121008798480034,63.59204608568689 z" /><path fill-rule="evenodd" fill="#D2EBD9" stroke="#A6A6A6" stroke-width="0.25" opacity="1" d="M 53.02018287591636,68.87229093903443 L 53.01497564278543,68.86708358675241 L 52.70774812437594,68.41143930103863 L 52.582774210721254,68.87229093903443 L 53.02018287591636,68.87229093903443 z" /><path fill-rule="evenodd" fill="#D2EBD9" stroke="#A6A6A6" stroke-width="0.25" opacity="1" d="M 17.50155515410006,69.86689871846465 L 17.506762387230992,69.85648399440106 L 17.6838088221848,69.27325830527116 L 17.465104456990957,69.45030889392365 L 17.50155515410006,69.86689871846465 z" /><path fill-rule="evenodd" fill="#D2EBD9" stroke="#A6A6A6" stroke-width="0.25" opacity="1" d="M 16.387204460799694,75.81636171537684 L 16.366375463083386,75.2409397920128 L 16.137256633490324,75.64711994159734 L 16.387204460799694,75.81636171537684 z" /><path fill-rule="evenodd" fill="#D2EBD9" stroke="#A6A6A6" stroke-width="0.25" opacity="1" d="M 51.64546982571483,76.56623399700038 L 51.65067705884576,76.55321540287696 L 51.81730896420777,75.98820733610773 L 51.504874212667346,76.2199386350112 L 51.64546982571483,76.56623399700038 z" /><path fill-rule="evenodd" fill="#D2EBD9" stroke="#A6A6A6" stroke-width="0.25" opacity="1" d="M 44.98540170304477,85.12477623904124 L 44.91250024922192,84.71858574368525 L 44.787526335567236,84.72900091443444 L 44.70941764675081,84.94251118734246 L 44.98540170304477,85.12477623904124 z" /><path fill-rule="evenodd" fill="#D2EBD9" stroke="#A6A6A6" stroke-width="0.25" opacity="1" d="M 44.03768285177648,92.88936552597443 L 43.9595741648227,92.4727492214879 L 43.839807484298944,92.50139156595105 L 43.76690602861345,92.7201151085319 L 44.03768285177648,92.88936552597443 z" /><path fill-rule="evenodd" fill="#D2EBD9" stroke="#A6A6A6" stroke-width="0.25" opacity="1" d="M 42.80877271108329,98.30543739662971 L 42.746285723522305,97.90964365395484 L 42.63172633945942,97.85235778981587 L 42.548410354182124,98.07108579273336 L 42.80877271108329,98.30543739662971 z" /><path fill-rule="evenodd" fill="#D2EBD9" stroke="#A6A6A6" stroke-width="0.25" opacity="1" d="M 9.378250762820244,268.8304477095953 L 9.61778412386775,268.501775348268 L 9.357421765103936,268.3817842840799 L 9.1595463976264,268.501775348268 L 9.378250762820244,268.8304477095953 z" /><path fill-rule="evenodd" fill="#D2EBD9" stroke="#A6A6A6" stroke-width="0.25" opacity="1" d="M 6.967295706272125,269.2373778889887 L 7.061026157811284,269.0913000536966 L 7.2953522223979235,268.91913735336857 L 6.805871032178402,268.8513158680871 L 6.967295706272125,269.2373778889887 z" /><path fill-rule="evenodd" fill="#D2EBD9" stroke="#A6A6A6" stroke-width="0.25" opacity="1" d="M 15.58528851903975,271.4807609207346 L 14.523010220378637,270.82860597013496 L 14.512595754116774,270.82338870869717 L 15.04373487085104,271.4964126877603 L 15.58528851903975,271.4807609207346 z" /><path fill-rule="evenodd" fill="#D2EBD9" stroke="#A6A6A6" stroke-width="0.25" opacity="1" d="M 16.449691385030746,275.77212068554945 L 16.68401751294732,275.44340965658193 L 16.428862389177084,275.3260132879368 L 16.230987019836903,275.44340965658193 L 16.449691385030746,275.77212068554945 z" /><path fill-rule="evenodd" fill="#D2EBD9" stroke="#A6A6A6" stroke-width="0.25" opacity="1" d="M 0.4946884233504534,282.70418683317257 L 0.8071231748908758,282.1823610046995 L 0.6248695701360703,281.93710452178493 L 0.31243481673300266,282.1275695855147 L 0.4946884233504534,282.70418683317257 z" /><path fill-rule="evenodd" fill="#D2EBD9" stroke="#A6A6A6" stroke-width="0.25" opacity="1" d="M 50.708165504038334,296.50304552930174 L 50.23951331153512,296.0541621603188 L 50.08329593576491,295.96021028992254 L 50.19264808669686,296.17160216654884 L 50.708165504038334,296.50304552930174 z" /><path fill-rule="evenodd" fill="#D2EBD9" stroke="#A6A6A6" stroke-width="0.25" opacity="1" d="M 1.1716304495930672,300.42832685046596 L 1.4007492810487747,300.0838091405458 L 1.265360901132226,299.984630201885 L 0.9112680926918983,300.182988266286 L 1.1716304495930672,300.42832685046596 z" /><path fill-rule="evenodd" fill="#D2EBD9" stroke="#A6A6A6" stroke-width="0.25" opacity="1" d="M 52.681711895391345,306.85974321037065 L 52.69212636165321,306.2071685552364 L 52.69212636165321,306.20194800483296 L 52.30679015442729,306.67963178723585 L 52.681711895391345,306.85974321037065 z" /><path fill-rule="evenodd" fill="#D2EBD9" stroke="#A6A6A6" stroke-width="0.25" opacity="1" d="M 18.277434865012765,317.2759738006862 L 18.605491381138563,317.04621891124407 L 18.615905910730362,316.92089854273945 L 18.407616011798382,316.92089854273945 L 18.277434865012765,317.2759738006862 z" /><path fill-rule="evenodd" fill="#D2EBD9" stroke="#A6A6A6" stroke-width="0.25" opacity="1" d="M 65.13744527287781,328.1070122179808 L 65.01247135922313,327.9503259297344 L 64.79376699402928,327.89287445676746 L 65.13744527287781,328.1070122179808 z" /><path fill-rule="evenodd" fill="#D2EBD9" stroke="#A6A6A6" stroke-width="0.25" opacity="1" d="M 65.13744527287781,329.28217555140145 L 65.12703080661595,329.27434098836966 L 64.94998443499207,329.0340830779169 L 64.955191668123,329.19338438415434 L 65.13744527287781,329.28217555140145 z" /><path fill-rule="evenodd" fill="#D2EBD9" stroke="#A6A6A6" stroke-width="0.25" opacity="1" d="M 44.27200891636312,330.6558479371015 L 44.30845967680216,330.06824553676415 L 44.089755311608315,330.1779307422694 L 44.27200891636312,330.6558479371015 z" /><path fill-rule="evenodd" fill="#D2EBD9" stroke="#A6A6A6" stroke-width="0.25" opacity="1" d="M 46.07892346382141,340.96229672263144 L 46.09975239634514,340.53912790020695 L 45.953949550166726,340.47643651772523 L 45.839390102773905,340.6305528997909 L 46.07892346382141,340.96229672263144 z" /><path fill-rule="evenodd" fill="#D2EBD9" stroke="#A6A6A6" stroke-width="0.25" opacity="1" d="M 51.5517394375056,346.6362778132898 L 51.5673611368984,346.21044307085685 L 51.42155822739005,346.16080615588 L 51.306998843327165,346.3044920632383 L 51.5517394375056,346.6362778132898 z" /><path fill-rule="evenodd" fill="#D2EBD9" stroke="#A6A6A6" stroke-width="0.25" opacity="1" d="M 18.84502474218607,357.68590917799156 L 18.84502474218607,357.68068288004724 L 18.214947940781713,356.72689170460217 L 18.25139863602817,357.35926594468765 L 18.41803054139018,357.6153540170635 L 18.84502474218607,357.68590917799156 z" /><path fill-rule="evenodd" fill="#D2EBD9" stroke="#A6A6A6" stroke-width="0.25" opacity="1" d="M 14.887517495080829,357.88712264515925 L 15.231195710599422,357.9184806571575 L 15.106221796944737,357.8400856379885 L 14.887517495080829,357.88712264515925 z" /><path fill-rule="evenodd" fill="#D2EBD9" stroke="#A6A6A6" stroke-width="0.25" opacity="1" d="M 48.78669157251716,362.55972262023715 L 48.099335016682744,362.46563840826275 L 48.39614806883037,362.7897073017084 L 48.78669157251716,362.55972262023715 z" /><path fill-rule="evenodd" fill="#D2EBD9" stroke="#A6A6A6" stroke-width="0.25" opacity="1" d="M 14.590704442933202,366.58986235648626 L 14.372000077739358,366.3781528066029 L 14.356378315016627,366.36508431850234 L 14.418865302577615,366.5009965118952 L 14.590704442933202,366.58986235648626 z" /><path fill-rule="evenodd" fill="#D2EBD9" stroke="#A6A6A6" stroke-width="0.25" opacity="1" d="M 15.543630527332425,366.7466849416378 L 15.501972533762455,366.57940756407334 L 15.324926162138581,366.52190606005024 L 15.543630527332425,366.7466849416378 z" /><path fill-rule="evenodd" fill="#D2EBD9" stroke="#A6A6A6" stroke-width="0.25" opacity="1" d="M 23.031650818884373,372.22539286740357 L 22.948334896937013,372.03456685045967 L 22.807739285752177,372.0058123351773 L 23.031650818884373,372.22539286740357 z" /><path fill-rule="evenodd" fill="#D2EBD9" stroke="#A6A6A6" stroke-width="0.25" opacity="1" d="M 23.307634940370917,372.9625645962078 L 23.458645083010197,372.53646724985447 L 23.21390448883176,372.51816867257 L 23.06289434619248,372.6802419500309 L 23.307634940370917,372.9625645962078 z" /><path fill-rule="evenodd" fill="#D2EBD9" stroke="#A6A6A6" stroke-width="0.25" opacity="1" d="M 26.01019581593573,374.76633870997466 L 25.98936682008207,374.5833435210516 L 25.78107692115009,374.54674454330234 L 26.01019581593573,374.76633870997466 z" /><path fill-rule="evenodd" fill="#D2EBD9" stroke="#A6A6A6" stroke-width="0.25" opacity="1" d="M 26.81211175583303,375.5166276639211 L 26.832940753549337,375.50878480658866 L 27.23910595662892,375.34147186239716 L 27.020401591435075,375.3833000017912 L 26.81211175583303,375.5166276639211 z" /><path fill-rule="evenodd" fill="#D2EBD9" stroke="#A6A6A6" stroke-width="0.25" opacity="1" d="M 11.216408772394061,379.6866050946992 L 11.15912901610136,379.5297329510795 L 10.992497174069285,379.4617551866686 L 11.216408772394061,379.6866050946992 z" /><path fill-rule="evenodd" fill="#D2EBD9" stroke="#A6A6A6" stroke-width="0.25" opacity="1" d="M 28.603404477238655,380.1127775577479 L 28.603404477238655,379.97943478735397 L 28.384700175374746,379.89315435825847 L 28.603404477238655,380.1127775577479 z" /><path fill-rule="evenodd" fill="#D2EBD9" stroke="#A6A6A6" stroke-width="0.25" opacity="1" d="M 52.14536548033357,380.26180826401105 L 51.983940871432424,380.1415378162055 L 51.76523650623858,380.2042875951738 L 52.14536548033357,380.26180826401105 z" /><path fill-rule="evenodd" fill="#D2EBD9" stroke="#A6A6A6" stroke-width="0.25" opacity="1" d="M 58.149320570752025,382.5627036134829 L 57.46196407824755,382.1051285897265 L 56.63921914063394,382.1809549352038 L 57.40989162027836,382.50517956807744 L 58.149320570752025,382.5627036134829 z" /><path fill-rule="evenodd" fill="#D2EBD9" stroke="#A6A6A6" stroke-width="0.25" opacity="1" d="M 27.384908866137266,383.58246101439 L 27.374494336545467,383.57461664662696 L 27.155789971351624,383.36281872348627 L 27.155789971351624,383.4621805571951 L 27.384908866137266,383.58246101439 z" /><path fill-rule="evenodd" fill="#D2EBD9" stroke="#A6A6A6" stroke-width="0.25" opacity="1" d="M 50.255135076120496,384.173409389914 L 50.249927777796984,384.1707945615053 L 49.869798803702,384.113268187677 L 50.05205247364938,384.21001706976676 L 50.255135076120496,384.173409389914 z" /><path fill-rule="evenodd" fill="#D2EBD9" stroke="#A6A6A6" stroke-width="0.25" opacity="1" d="M 60.45092354156077,385.78418063081335 L 60.299913397058845,385.6743531920365 L 60.049965569749475,385.72142204776173 L 60.45092354156077,385.78418063081335 z" /><path fill-rule="evenodd" fill="#D2EBD9" stroke="#A6A6A6" stroke-width="0.25" opacity="1" d="M 61.54444523714483,386.4536114119692 L 61.122658271342516,386.38562181271845 L 61.11224380508065,386.38562181271845 L 61.33615540340543,386.49806615163106 L 61.54444523714483,386.4536114119692 z" /><path fill-rule="evenodd" fill="#D2EBD9" stroke="#A6A6A6" stroke-width="0.25" opacity="1" d="M 17.16829140484333,387.0655228989199 L 17.12142617814243,386.8929315007408 L 16.939172573387623,386.84324623970315 L 17.16829140484333,387.0655228989199 z" /><path fill-rule="evenodd" fill="#D2EBD9" stroke="#A6A6A6" stroke-width="0.25" opacity="1" d="M 45.5998567417264,387.67221379233524 L 45.67796549387276,387.5048498264514 L 45.839390102773905,387.2825707459124 L 45.51654081977904,387.34533175395336 L 45.5998567417264,387.67221379233524 z" /><path fill-rule="evenodd" fill="#D2EBD9" stroke="#A6A6A6" stroke-width="0.25" opacity="1" d="M 40.85084802098572,388.0592456224258 L 40.95499300211668,387.9651024348568 L 41.28825675137341,387.9703325952869 L 41.21014806255698,387.8029673573328 L 40.59048572741449,387.71928503835807 L 40.49675527587533,387.9023403711617 L 40.85084802098572,388.0592456224258 z" /><path fill-rule="evenodd" fill="#D2EBD9" stroke="#A6A6A6" stroke-width="0.25" opacity="1" d="M 42.61089734360576,391.88008353306213 L 42.2359756026417,391.82516118185595 L 42.215146604925394,391.8199305041344 L 42.40260744467378,391.9506979795988 L 42.61089734360576,391.88008353306213 z" /><path fill-rule="evenodd" fill="#D2EBD9" stroke="#A6A6A6" stroke-width="0.25" opacity="1" d="M 54.55632060021162,393.4048622359405 L 54.39489592798054,393.3054751647287 L 54.1605698633939,393.3420914582093 L 54.55632060021162,393.4048622359405 z" /><path fill-rule="evenodd" fill="#D2EBD9" stroke="#A6A6A6" stroke-width="0.25" opacity="1" d="M 43.39198428764939,394.1555044268025 L 43.40239875391126,393.91749437741237 L 43.246181378141046,393.8181059852359 L 43.39198428764939,394.1555044268025 z" /><path fill-rule="evenodd" fill="#D2EBD9" stroke="#A6A6A6" stroke-width="0.25" opacity="1" d="M 16.527800073847175,394.4458264344721 L 16.345546467229724,394.09534791944316 L 16.215365320444107,394.05349993065465 L 16.137256633490324,394.3124350028229 L 16.527800073847175,394.4458264344721 z" /><path fill-rule="evenodd" fill="#D2EBD9" stroke="#A6A6A6" stroke-width="0.25" opacity="1" d="M 21.183078406378627,396.0701006943709 L 21.00082473643124,395.72222296043765 L 20.870643589645624,395.68037319998257 L 20.79253490269184,395.9445504746982 L 21.183078406378627,396.0701006943709 z" /><path fill-rule="evenodd" fill="#D2EBD9" stroke="#A6A6A6" stroke-width="0.25" opacity="1" d="M 49.755239421501756,399.33193538471824 L 49.557364052161574,399.2116061740089 L 49.364695915952325,399.2717707316624 L 49.755239421501756,399.33193538471824 z" /><path fill-rule="evenodd" fill="#D2EBD9" stroke="#A6A6A6" stroke-width="0.25" opacity="1" d="M 20.526965310797095,410.24426238506567 L 20.313468243926764,409.84392148052575 L 20.15204356983304,409.8360717225005 L 20.089556645601988,410.157913943578 L 20.526965310797095,410.24426238506567 z" /><path fill-rule="evenodd" fill="#D2EBD9" stroke="#A6A6A6" stroke-width="0.25" opacity="1" d="M 16.928758043795824,451.1970585071249 L 17.22036386281252,450.92723111918895 L 17.16829140484333,450.7910083561437 L 16.87147835083306,450.85126068542013 L 16.928758043795824,451.1970585071249 z" /><path fill-rule="evenodd" fill="#D2EBD9" stroke="#A6A6A6" stroke-width="0.25" opacity="1" d="M 13.29410007968545,457.78362830000697 L 13.590913131833076,457.5137468156172 L 13.53363337740302,457.37749685236486 L 13.184747928753495,457.5347084137611 L 13.29410007968545,457.78362830000697 z" /><path fill-rule="evenodd" fill="#D2EBD9" stroke="#A6A6A6" stroke-width="0.25" opacity="1" d="M 26.405946489423513,5.686673041665927 L 27.306800179183483,4.572259450680576 L 27.75983060710132,3.025613989040721 L 27.28076388500631,3.025613989040721 L 26.23931464739144,5.3690134475473315 L 25.999781286343932,6.561537275614683 L 26.885013211518526,6.998968556697946 L 26.885013211518526,6.5250846074777655 L 26.48926247470081,6.488631999702193 L 26.405946489423513,5.686673041665927 z" /><path fill-rule="evenodd" fill="#D2EBD9" stroke="#A6A6A6" stroke-width="0.25" opacity="1" d="M 43.52216543443501,158.68452864239225 L 43.53257996402681,158.6819237532327 L 44.214729225263,158.52302523964318 L 43.87105094641447,158.1375017775572 L 43.72524803690612,158.16355061519425 L 43.52216543443501,158.68452864239225 z" /><path fill-rule="evenodd" fill="#D2EBD9" stroke="#A6A6A6" stroke-width="0.25" opacity="1" d="M 45.77690311335027,159.6613686644705 L 45.89666979573667,158.97367246740032 L 45.40198137238622,158.9189694801462 L 45.42801766656339,159.17685501440428 L 45.77690311335027,159.6613686644705 z" /><path fill-rule="evenodd" fill="#D2EBD9" stroke="#A6A6A6" stroke-width="0.25" opacity="1" d="M 49.130369851365685,160.97164962277748 L 49.83334810845554,160.94039027713006 L 49.39073214493692,160.56006873690058 L 49.22410023957491,160.5704884621082 L 49.130369851365685,160.97164962277748 z" /><path fill-rule="evenodd" fill="#D2EBD9" stroke="#A6A6A6" stroke-width="0.25" opacity="1" d="M 53.316995929926634,161.9901885019499 L 52.10891478508711,161.0289585198625 L 52.03601332940161,161.09929216164164 L 52.30679015442729,161.4900352943805 L 53.316995929926634,161.9901885019499 z" /><path fill-rule="evenodd" fill="#D2EBD9" stroke="#A6A6A6" stroke-width="0.25" opacity="1" d="M 54.49383361078799,163.74334707204252 L 54.26992201432586,163.20150619739434 L 54.233471317216754,163.10251630860148 L 54.17619162611663,163.32133612514008 L 54.49383361078799,163.74334707204252 z" /><path fill-rule="evenodd" fill="#D2EBD9" stroke="#A6A6A6" stroke-width="0.25" opacity="1" d="M 36.27367843873799,165.1709020268754 L 35.75816108472645,164.93644833989674 L 35.77899001725018,165.28031396807637 L 36.27367843873799,165.1709020268754 z" /><path fill-rule="evenodd" fill="#D2EBD9" stroke="#A6A6A6" stroke-width="0.25" opacity="1" d="M 55.5561119094491,167.7342951397295 L 55.28533508628607,166.384859211219 L 54.77502490207553,165.1709020268754 L 55.34782201051712,167.2575620149728 L 55.5561119094491,167.7342951397295 z" /><path fill-rule="evenodd" fill="#D2EBD9" stroke="#A6A6A6" stroke-width="0.25" opacity="1" d="M 55.363443775102496,170.54784493870102 L 55.34782201051712,169.86268668156117 L 55.34782201051712,169.85226608393714 L 55.21243363060057,170.0320219838759 L 55.363443775102496,170.54784493870102 z" /><path fill-rule="evenodd" fill="#D2EBD9" stroke="#A6A6A6" stroke-width="0.25" opacity="1" d="M 40.465511813759804,171.50915815174812 L 40.85084802098572,171.19392980827251 L 40.5384132694453,170.9776993979467 L 40.35095236636698,171.10274827998364 L 40.465511813759804,171.50915815174812 z" /><path fill-rule="evenodd" fill="#D2EBD9" stroke="#A6A6A6" stroke-width="0.25" opacity="1" d="M 54.98852203413844,173.76267741376068 L 54.91041334532201,173.4787052764441 L 54.738574204966426,173.50215242954437 L 54.863548120483756,173.63241487188498 L 54.98852203413844,173.76267741376068 z" /><path fill-rule="evenodd" fill="#D2EBD9" stroke="#A6A6A6" stroke-width="0.25" opacity="1" d="M 44.92812201194465,174.17430813529063 L 44.92812201194465,173.89294011925813 L 44.88125678524375,174.00236090563703 L 44.92812201194465,174.17430813529063 z" /><path fill-rule="evenodd" fill="#D2EBD9" stroke="#A6A6A6" stroke-width="0.25" opacity="1" d="M 55.722743751481175,177.34235703892773 L 55.45196699351072,176.7066551441094 L 55.45196699351072,176.69623379706172 L 55.44155246205628,177.05837497167522 L 55.722743751481175,177.34235703892773 z" /><path fill-rule="evenodd" fill="#D2EBD9" stroke="#A6A6A6" stroke-width="0.25" opacity="1" d="M 56.48820899799466,179.0983741893433 L 57.62338868714869,179.07753106416203 L 57.62859598360956,179.07753106416203 L 56.113287257030606,178.12396323803114 L 56.19139594398439,178.6137729283655 L 56.48820899799466,179.0983741893433 z" /><path fill-rule="evenodd" fill="#D2EBD9" stroke="#A6A6A6" stroke-width="0.25" opacity="1" d="M 22.96395666152239,182.7173266899772 L 22.812946517020464,182.60529084305745 L 22.615071149542928,182.59486894018482 L 22.62548561580479,182.60007989150472 L 22.96395666152239,182.7173266899772 z" /><path fill-rule="evenodd" fill="#D2EBD9" stroke="#A6A6A6" stroke-width="0.25" opacity="1" d="M 26.81211175583303,184.00705059920438 L 26.713174073025584,183.64748948678607 L 26.5309204030782,183.71002179390052 L 26.49446970783174,183.88198570365785 L 26.81211175583303,184.00705059920438 z" /><path fill-rule="evenodd" fill="#D2EBD9" stroke="#A6A6A6" stroke-width="0.25" opacity="1" d="M 27.556748006492853,184.8460318518337 L 27.6452711597085,184.71575479552848 L 27.900426220148802,184.34055782615906 L 27.525504479184747,184.34055782615906 L 27.556748006492853,184.8460318518337 z" /><path fill-rule="evenodd" fill="#D2EBD9" stroke="#A6A6A6" stroke-width="0.25" opacity="1" d="M 16.866271117702127,189.6611984122428 L 16.730882674455643,189.49964655924123 L 16.527800073847175,189.54133734537754 L 16.866271117702127,189.6611984122428 z" /><path fill-rule="evenodd" fill="#D2EBD9" stroke="#A6A6A6" stroke-width="0.25" opacity="1" d="M 15.439485609531403,193.02779458661098 L 15.496765300631523,192.29818114463706 L 15.210366778075695,192.52227608207613 L 15.439485609531403,193.02779458661098 z" /><path fill-rule="evenodd" fill="#D2EBD9" stroke="#A6A6A6" stroke-width="0.25" opacity="1" d="M 42.178695909678936,194.34632532153046 L 42.15265961736441,194.09877360530663 L 42.05372199602425,193.96587772655766 L 42.178695909678936,194.34632532153046 z" /><path fill-rule="evenodd" fill="#D2EBD9" stroke="#A6A6A6" stroke-width="0.25" opacity="1" d="M 42.83480894006789,200.05584180966252 L 43.60027412325144,198.41148372762837 L 43.65234658122063,197.54631894332124 L 43.3659480586648,196.70722143456805 L 42.80877271108329,199.53204131592065 L 42.83480894006789,200.05584180966252 z" /><path fill-rule="evenodd" fill="#D2EBD9" stroke="#A6A6A6" stroke-width="0.25" opacity="1" d="M 40.30929443798959,204.44963795656804 L 40.33533066697419,203.70168622472556 L 40.33533066697419,203.69647405430442 L 40.10100453905761,204.03005444724113 L 40.30929443798959,204.44963795656804 z" /><path fill-rule="evenodd" fill="#D2EBD9" stroke="#A6A6A6" stroke-width="0.25" opacity="1" d="M 29.47822187282145,207.49102983478224 L 29.368869721889496,207.30338291765656 L 29.18661611713469,207.30338291765656 L 29.47822187282145,207.49102983478224 z" /><path fill-rule="evenodd" fill="#D2EBD9" stroke="#A6A6A6" stroke-width="0.25" opacity="1" d="M 13.773166738450527,215.74792617274215 L 14.179331941530108,215.5863246897352 L 14.054358027875423,215.33349719183752 L 13.840860961005092,215.3621683018864 L 13.773166738450527,215.74792617274215 z" /><path fill-rule="evenodd" fill="#D2EBD9" stroke="#A6A6A6" stroke-width="0.25" opacity="1" d="M 12.013117481023073,216.5142346858047 L 12.086018934845924,215.84175947791664 L 12.086018934845924,215.83654652780388 L 11.653817437589169,216.18060287693515 L 12.013117481023073,216.5142346858047 z" /><path fill-rule="evenodd" fill="#D2EBD9" stroke="#A6A6A6" stroke-width="0.25" opacity="1" d="M 21.59445084258914,219.55869143159362 L 22.22973487712443,219.77764667471638 L 21.958958119153976,219.33713015710237 L 21.79232621192932,219.29803114873357 L 21.59445084258914,219.55869143159362 z" /><path fill-rule="evenodd" fill="#D2EBD9" stroke="#A6A6A6" stroke-width="0.25" opacity="1" d="M 42.78794371522963,221.9020669622114 L 42.78794371522963,221.495424880879 L 42.65255527198315,221.4172247357783 L 42.465094432234764,221.71699242893374 L 42.78794371522963,221.9020669622114 z" /><path fill-rule="evenodd" fill="#D2EBD9" stroke="#A6A6A6" stroke-width="0.25" opacity="1" d="M 45.71441618911922,222.37909220549045 L 45.16244807653129,221.71699242893374 L 45.240556763485074,222.1079955099267 L 45.71441618911922,222.37909220549045 z" /><path fill-rule="evenodd" fill="#D2EBD9" stroke="#A6A6A6" stroke-width="0.25" opacity="1" d="M 55.26971332356334,229.23503814230207 L 55.425930762663484,229.0994771530386 L 55.3009568490088,228.94045393436681 L 55.3009568490088,228.97955799015472 L 55.26971332356334,229.23503814230207 z" /><path fill-rule="evenodd" fill="#D2EBD9" stroke="#A6A6A6" stroke-width="0.25" opacity="1" d="M 43.22535238042474,229.9493446307024 L 43.38156982138753,229.5974044415052 L 43.246181378141046,229.54265829076758 L 43.0274770129472,229.68864798970753 L 43.22535238042474,229.9493446307024 z" /><path fill-rule="evenodd" fill="#D2EBD9" stroke="#A6A6A6" stroke-width="0.25" opacity="1" d="M 20.70921898074448,233.1168837447185 L 21.120591416954994,232.738857312419 L 20.74566967599094,232.67628764454275 L 20.70921898074448,233.1168837447185 z" /><path fill-rule="evenodd" fill="#D2EBD9" stroke="#A6A6A6" stroke-width="0.25" opacity="1" d="M 56.26950463280082,233.20813182927668 L 56.26950463280082,233.20031058229506 L 56.12890901975334,232.6554310794454 L 56.08204379491508,232.80664123466704 L 56.26950463280082,233.20813182927668 z" /><path fill-rule="evenodd" fill="#D2EBD9" stroke="#A6A6A6" stroke-width="0.25" opacity="1" d="M 57.65983944758773,233.6487312875106 L 57.6546322144568,233.64351702632848 L 57.11828579939902,232.9787083643023 L 57.18077278882265,233.374985752278 L 57.65983944758773,233.6487312875106 z" /><path fill-rule="evenodd" fill="#D2EBD9" stroke="#A6A6A6" stroke-width="0.25" opacity="1" d="M 11.856900040060282,234.13365451205755 L 11.70068266429007,233.60180339915678 L 11.534050757065415,233.42712767154444 L 11.523636290803552,233.60180339915678 L 11.856900040060282,234.13365451205755 z" /><path fill-rule="evenodd" fill="#D2EBD9" stroke="#A6A6A6" stroke-width="0.25" opacity="1" d="M 13.872104423120618,241.47830640501343 L 14.153295712545514,241.25928529386874 L 14.054358027875423,241.066338646051 L 13.762752272188663,241.03244269557763 L 13.872104423120618,241.47830640501343 z" /><path fill-rule="evenodd" fill="#D2EBD9" stroke="#A6A6A6" stroke-width="0.25" opacity="1" d="M 59.39385247603059,242.94889533013338 L 59.36260901391506,242.70640239084605 L 59.097039422020316,242.5421335233259 L 59.39385247603059,242.94889533013338 z" /><path fill-rule="evenodd" fill="#D2EBD9" stroke="#A6A6A6" stroke-width="0.25" opacity="1" d="M 18.75129429064691,243.16792195581365 L 19.00124211795628,242.83938231528737 L 18.772123286500573,242.69075775623787 L 18.574247917160392,242.7846258743084 L 18.75129429064691,243.16792195581365 z" /><path fill-rule="evenodd" fill="#D2EBD9" stroke="#A6A6A6" stroke-width="0.25" opacity="1" d="M 22.87022620998323,249.2748811012134 L 23.167039262130857,249.05583438737085 L 23.052479814738035,248.8550422245753 L 22.77128852531314,248.82635768916225 L 22.87022620998323,249.2748811012134 z" /><path fill-rule="evenodd" fill="#D2EBD9" stroke="#A6A6A6" stroke-width="0.25" opacity="1" d="M 22.198491415008903,252.32074942148756 L 22.448439242318273,251.9869486814714 L 22.21411317959428,251.84351917851018 L 22.02144504338503,251.9295768677839 L 22.198491415008903,252.32074942148756 z" /><path fill-rule="evenodd" fill="#D2EBD9" stroke="#A6A6A6" stroke-width="0.25" opacity="1" d="M 9.498017443343997,256.1335030680639 L 9.779208732768893,255.91443306894507 L 9.680271048098803,255.71622753952397 L 9.378250762820244,255.69275586964795 L 9.498017443343997,256.1335030680639 z" /><path fill-rule="evenodd" fill="#D2EBD9" stroke="#A6A6A6" stroke-width="0.25" opacity="1" d="M 53.20764377899468,259.25794101320207 L 53.36386115476489,259.122319409973 L 53.389897383749485,258.9475766706164 L 53.20764377899468,259.25794101320207 z" /><path fill-rule="evenodd" fill="#D2EBD9" stroke="#A6A6A6" stroke-width="0.25" opacity="1" d="M 68.00143082253635,265.0195234908024 L 68.01184528879821,265.01169838703936 L 68.36073080077767,264.71434685518034 L 68.0639177467674,264.83172230341006 L 68.00143082253635,265.0195234908024 z" /><path fill-rule="evenodd" fill="#D2EBD9" stroke="#A6A6A6" stroke-width="0.25" opacity="1" d="M 52.53590898402035,268.2304915646673 L 52.70254089124501,267.9331242139451 L 52.70774812437594,267.92790726950625 L 52.55153074860573,268.0061616759049 L 52.53590898402035,268.2304915646673 z" /><path fill-rule="evenodd" fill="#D2EBD9" stroke="#A6A6A6" stroke-width="0.25" opacity="1" d="M 17.12142617814243,283.1451333735022 L 17.340130543336272,282.816379983502 L 17.095389949157834,282.6989685644512 L 16.90272181481123,282.8085525650531 L 17.12142617814243,283.1451333735022 z" /><path fill-rule="evenodd" fill="#D2EBD9" stroke="#A6A6A6" stroke-width="0.25" opacity="1" d="M 16.699639212340117,285.6004081295687 L 16.928758043795824,285.2716403378872 L 16.66839575022459,285.15683302865364 L 16.480934847146273,285.2690310840844 L 16.699639212340117,285.6004081295687 z" /><path fill-rule="evenodd" fill="#D2EBD9" stroke="#A6A6A6" stroke-width="0.25" opacity="1" d="M 16.62153052352369,289.7519216944347 L 16.845442121848464,289.4205197665142 L 16.590287061408162,289.3057037857943 L 16.402826158329844,289.4205197665142 L 16.62153052352369,289.7519216944347 z" /><path fill-rule="evenodd" fill="#D2EBD9" stroke="#A6A6A6" stroke-width="0.25" opacity="1" d="M 48.146200241521,290.37819855776615 L 48.016019094735384,290.268599613104 L 47.82855825684965,290.0650592621532 L 47.83897272311151,290.39124609937426 L 48.146200241521,290.37819855776615 z" /><path fill-rule="evenodd" fill="#D2EBD9" stroke="#A6A6A6" stroke-width="0.25" opacity="1" d="M 48.54715821146965,295.11987045704154 L 48.515914749354124,295.00504247675417 L 48.2034799978137,294.8562883606646 L 48.54715821146965,295.11987045704154 z" /><path fill-rule="evenodd" fill="#D2EBD9" stroke="#A6A6A6" stroke-width="0.25" opacity="1" d="M 42.24639006704092,296.6700728186406 L 42.2359756026417,296.6596336218063 L 42.01727123744786,296.49782588286325 L 42.01727123744786,296.5656806854531 L 42.24639006704092,296.6700728186406 z" /><path fill-rule="evenodd" fill="#D2EBD9" stroke="#A6A6A6" stroke-width="0.25" opacity="1" d="M 47.20889592170715,307.80729642830556 L 47.130787232890725,307.6793887784006 L 46.974569791927934,307.63762306101853 L 47.20889592170715,307.80729642830556 z" /><path fill-rule="evenodd" fill="#D2EBD9" stroke="#A6A6A6" stroke-width="0.25" opacity="1" d="M 55.116311352699995,315.80677959526656 L 55.544114615768194,315.4064007968991 L 55.48707418143749,314.8630347365397 L 55.31595287658274,313.83351531683 L 54.60294743813574,311.974714537384 L 53.861421782523394,311.2026175270439 L 52.85720863379538,310.61300240724813 L 51.32312242500484,310.74508414120646 L 47.75809523649514,312.0605038256617 L 47.815135672688484,312.40366244415054 L 52.92910097911954,312.1664589016582 L 53.47416115552187,312.47580863465555 L 54.28922504559159,315.0346233766759 L 55.116311352699995,315.80677959526656 z" /><path fill-rule="evenodd" fill="#D2EBD9" stroke="#A6A6A6" stroke-width="0.25" opacity="1" d="M 16.65798122063279,317.2994715187233 L 17.522384149953723,317.0566623270861 L 17.24640009365976,316.9887803882011 L 16.65798122063279,317.2994715187233 z" /><path fill-rule="evenodd" fill="#D2EBD9" stroke="#A6A6A6" stroke-width="0.25" opacity="1" d="M 58.29512348212302,322.1741853967542 L 58.07641918025911,322.0384074622416 L 57.8629220481962,322.0645185763715 L 58.29512348212302,322.1741853967542 z" /><path fill-rule="evenodd" fill="#D2EBD9" stroke="#A6A6A6" stroke-width="0.25" opacity="1" d="M 59.2949147913605,323.51109643041855 L 59.31574378721416,323.08808540622704 L 59.16994087770581,323.03063977049896 L 59.050174260511994,323.1899211127311 L 59.2949147913605,323.51109643041855 z" /><path fill-rule="evenodd" fill="#D2EBD9" stroke="#A6A6A6" stroke-width="0.25" opacity="1" d="M 60.98726989142597,323.98894667072454 L 60.92999020032585,323.5685427026474 L 60.711285835132,323.61293296614895 L 60.58631192147732,323.85577483451925 L 60.98726989142597,323.98894667072454 z" /><path fill-rule="evenodd" fill="#D2EBD9" stroke="#A6A6A6" stroke-width="0.25" opacity="1" d="M 62.908743822947145,325.46169536432717 L 62.92957281880081,325.0360559041146 L 62.79418437555432,324.97599667846225 L 62.674417758360505,325.1300618555979 L 62.908743822947145,325.46169536432717 z" /><path fill-rule="evenodd" fill="#D2EBD9" stroke="#A6A6A6" stroke-width="0.25" opacity="1" d="M 17.4182392321527,328.33681962947594 L 17.355752242729068,327.2974721658975 L 16.782955134287477,327.36014577024616 L 16.543421836569905,327.90593163861195 L 17.4182392321527,328.33681962947594 z" /><path fill-rule="evenodd" fill="#D2EBD9" stroke="#A6A6A6" stroke-width="0.25" opacity="1" d="M 55.58735537156463,340.03237524209544 L 55.608184369280934,339.60921500931727 L 55.46238145790994,339.5491370498203 L 55.34782201051712,339.703250291117 L 55.58735537156463,340.03237524209544 z" /><path fill-rule="evenodd" fill="#D2EBD9" stroke="#A6A6A6" stroke-width="0.25" opacity="1" d="M 60.45092354156077,391.2916343411198 L 60.90916120260954,390.2873683734215 L 60.63838437944651,389.20467314933194 L 60.33636409416795,390.9542608768097 L 60.45092354156077,391.2916343411198 z" /><path fill-rule="evenodd" fill="#D2EBD9" stroke="#A6A6A6" stroke-width="0.25" opacity="1" d="M 20.526965310797095,394.16335098218406 L 20.334297239780426,393.80241308093537 L 20.23015225864947,393.7161023822846 L 20.105178344994783,394.02734497678466 L 20.526965310797095,394.16335098218406 z" /><path fill-rule="evenodd" fill="#D2EBD9" stroke="#A6A6A6" stroke-width="0.25" opacity="1" d="M 12.742131965234876,396.148569782672 L 12.55987836048007,395.78761323034996 L 12.434904446825385,395.74837906786706 L 12.341173995286226,396.0204036818468 L 12.742131965234876,396.148569782672 z" /><path fill-rule="evenodd" fill="#D2EBD9" stroke="#A6A6A6" stroke-width="0.25" opacity="1" d="M 21.38616100884974,404.1035610511899 L 21.198700105771422,403.74514492123853 L 21.063311725854874,403.7006701491773 L 20.990410270169377,403.96751950884936 L 21.38616100884974,404.1035610511899 z" /><path fill-rule="evenodd" fill="#D2EBD9" stroke="#A6A6A6" stroke-width="0.25" opacity="1" d="M 21.104969654232264,407.9076934362529 L 20.92792328260839,407.5570899975137 L 20.79253490269184,407.51261067931773 L 20.714426213875413,407.78210376464995 L 21.104969654232264,407.9076934362529 z" /><path fill-rule="evenodd" fill="#D2EBD9" stroke="#A6A6A6" stroke-width="0.25" opacity="1" d="M 45.30304375290871,411.81165198609233 L 44.52716397680342,410.32537772337673 L 44.454262586310506,410.36201055691345 L 44.646930657327175,410.8094569168752 L 45.30304375290871,411.81165198609233 z" /><path fill-rule="evenodd" fill="#D2EBD9" stroke="#A6A6A6" stroke-width="0.25" opacity="1" d="M 19.324091400951147,413.9365008986788 L 19.26160447485745,413.604158022732 L 19.063729107379913,413.4078939456376 L 19.324091400951147,413.9365008986788 z" /><path fill-rule="evenodd" fill="#D2EBD9" stroke="#A6A6A6" stroke-width="0.25" opacity="1" d="M 44.63130895793438,415.4961978047504 L 44.77190457098186,414.9780360197183 L 44.52716397680342,414.79746624454856 L 44.27721614949405,415.0042056257953 L 44.63130895793438,415.4961978047504 z" /><path fill-rule="evenodd" fill="#D2EBD9" stroke="#A6A6A6" stroke-width="0.25" opacity="1" d="M 18.66797836869955,416.6948023706209 L 18.574247917160392,416.11119734001113 L 18.574247917160392,416.10334623610834 L 18.313885623589158,416.4906704190653 L 18.66797836869955,416.6948023706209 z" /><path fill-rule="evenodd" fill="#D2EBD9" stroke="#A6A6A6" stroke-width="0.25" opacity="1" d="M 48.95332347974181,418.44043938443065 L 47.922288643196225,417.8044629112119 L 47.90145964734256,417.7939942186349 L 48.521121982485056,418.47184590564575 L 48.95332347974181,418.44043938443065 z" /><path fill-rule="evenodd" fill="#D2EBD9" stroke="#A6A6A6" stroke-width="0.25" opacity="1" d="M 17.840026199817657,419.95583604386775 L 17.845233431085944,419.9375148511026 L 18.022279804572463,419.05287184391636 L 17.730673983693123,419.46378317778 L 17.840026199817657,419.95583604386775 z" /><path fill-rule="evenodd" fill="#D2EBD9" stroke="#A6A6A6" stroke-width="0.25" opacity="1" d="M 47.620268357917666,422.98158662440255 L 47.58381766267121,422.5366072092438 L 47.44322198443115,422.46069951553363 L 47.24534661695361,422.69365811010357 L 47.620268357917666,422.98158662440255 z" /><path fill-rule="evenodd" fill="#D2EBD9" stroke="#A6A6A6" stroke-width="0.25" opacity="1" d="M 15.793578354641795,426.6934556493652 L 15.699847903102636,425.9133549610269 L 15.41865661367774,426.32172765251016 L 15.460314605385065,426.51544458227 L 15.793578354641795,426.6934556493652 z" /><path fill-rule="evenodd" fill="#D2EBD9" stroke="#A6A6A6" stroke-width="0.25" opacity="1" d="M 45.11037561669946,426.7719902237295 L 45.46300473064184,425.969042868237 L 44.77190457098186,426.4159681951278 L 45.11037561669946,426.7719902237295 z" /><path fill-rule="evenodd" fill="#D2EBD9" stroke="#A6A6A6" stroke-width="0.25" opacity="1" d="M 14.772958047688007,427.4840450725751 L 14.590704442933202,427.1594300317229 L 14.398036306723952,427.26414422149537 L 14.387621840462089,427.53378473909106 L 14.772958047688007,427.4840450725751 z" /><path fill-rule="evenodd" fill="#D2EBD9" stroke="#A6A6A6" stroke-width="0.25" opacity="1" d="M 36.211191514506936,434.0502923952299 L 36.10183930024505,433.8015483179479 L 35.87272046878934,433.81725844106404 L 36.211191514506936,434.0502923952299 z" /><path fill-rule="evenodd" fill="#D2EBD9" stroke="#A6A6A6" stroke-width="0.25" opacity="1" d="M 36.29971466772258,435.84130262059625 L 36.28930020146072,435.8360655622091 L 35.961243687197566,435.61611201701453 L 36.09142483398318,435.77322156721493 L 36.29971466772258,435.84130262059625 z" /><path fill-rule="evenodd" fill="#D2EBD9" stroke="#A6A6A6" stroke-width="0.25" opacity="1" d="M 34.27409582026303,437.18200273276307 L 34.180365432053804,437.00393798947334 L 33.935624837875366,436.95680334960343 L 34.27409582026303,437.18200273276307 z" /><path fill-rule="evenodd" fill="#D2EBD9" stroke="#A6A6A6" stroke-width="0.25" opacity="1" d="M 37.460930651053786,438.78200838912744 L 37.26826251484454,438.3970574423438 L 37.13287413679063,438.3761078469106 L 37.148495834320784,438.56465460307663 L 37.460930651053786,438.78200838912744 z" /><path fill-rule="evenodd" fill="#D2EBD9" stroke="#A6A6A6" stroke-width="0.25" opacity="1" d="M 34.185572665184736,439.7745208288543 L 34.17515813559294,439.7692832336761 L 33.862723384052515,439.54406682262197 L 33.977282766252756,439.7011943765101 L 34.185572665184736,439.7745208288543 z" /><path fill-rule="evenodd" fill="#D2EBD9" stroke="#A6A6A6" stroke-width="0.25" opacity="1" d="M 37.497381346300244,440.87443648959743 L 37.497381346300244,440.86919872520957 L 37.32033497467637,440.1830567623256 L 37.18494659475982,440.58897873508977 L 37.497381346300244,440.87443648959743 z" /><path fill-rule="evenodd" fill="#D2EBD9" stroke="#A6A6A6" stroke-width="0.25" opacity="1" d="M 22.354708790779114,442.9931838698103 L 22.031859509646893,442.7758031706908 L 22.02144504338503,442.7653270555893 L 22.115175494924188,442.9067552690394 L 22.354708790779114,442.9931838698103 z" /><path fill-rule="evenodd" fill="#D2EBD9" stroke="#A6A6A6" stroke-width="0.25" opacity="1" d="M 35.63318717107177,444.1089187178295 L 35.77378278411925,443.5903331770096 L 35.53945671953261,443.41747307858896 L 35.28950889222324,443.62176236329833 L 35.63318717107177,444.1089187178295 z" /><path fill-rule="evenodd" fill="#D2EBD9" stroke="#A6A6A6" stroke-width="0.25" opacity="1" d="M 28.384700175374746,447.1446380346897 L 28.2388972658664,446.96128224703716 L 28.03060736693442,446.9193724679062 L 28.384700175374746,447.1446380346897 z" /><path fill-rule="evenodd" fill="#D2EBD9" stroke="#A6A6A6" stroke-width="0.25" opacity="1" d="M 33.935624837875366,447.65803967410466 L 33.80023639462888,447.29656217520824 L 33.52425233833492,447.1184442892554 L 33.56070309691131,447.1446380346897 L 33.935624837875366,447.65803967410466 z" /><path fill-rule="evenodd" fill="#D2EBD9" stroke="#A6A6A6" stroke-width="0.25" opacity="1" d="M 25.499885629862547,448.54341400880367 L 25.374911716207862,448.35219209227944 L 25.166621882468462,448.31813901657006 L 25.499885629862547,448.54341400880367 z" /><path fill-rule="evenodd" fill="#D2EBD9" stroke="#A6A6A6" stroke-width="0.25" opacity="1" d="M 32.77440885454416,449.7588774046162 L 33.086843671277165,449.418333647307 L 33.029563914984465,449.1668573906645 L 32.59215524978936,449.381659873412 L 32.77440885454416,449.7588774046162 z" /><path fill-rule="evenodd" fill="#D2EBD9" stroke="#A6A6A6" stroke-width="0.25" opacity="1" d="M 28.134752348065376,450.08370704500703 L 28.113923352211714,450.0679893848137 L 27.80148853547871,449.85318247176474 L 27.905633453279734,449.98940132407006 L 28.134752348065376,450.08370704500703 z" /><path fill-rule="evenodd" fill="#D2EBD9" stroke="#A6A6A6" stroke-width="0.25" opacity="1" d="M 32.14953928627074,451.2599312668317 L 31.821482772007585,450.97438521357253 L 31.6965088583529,451.02415911335265 L 31.74858131632209,451.19967819505837 L 32.14953928627074,451.2599312668317 z" /><path fill-rule="evenodd" fill="#D2EBD9" stroke="#A6A6A6" stroke-width="0.25" opacity="1" d="M 21.47989139519632,452.43095759733114 L 21.761082749813795,452.1637399177416 L 21.714217523112893,452.02751206973335 L 21.401782708242536,452.0851468897308 L 21.47989139519632,452.43095759733114 z" /><path fill-rule="evenodd" fill="#D2EBD9" stroke="#A6A6A6" stroke-width="0.25" opacity="1" d="M 0.39054350554943085,455.17661413247697 L 0.15101014450192451,454.90675413853023 L 0.06769422255456448,454.8464944077423 L 0.06769422255456448,455.17661413247697 L 0.39054350554943085,455.17661413247697 z" /><path fill-rule="evenodd" fill="#D2EBD9" stroke="#A6A6A6" stroke-width="0.25" opacity="1" d="M 13.950213110074401,457.0159131199471 L 14.247026164084673,456.74341784906574 L 14.189746471121907,456.6071710328688 L 13.898140652105212,456.6674340000027 L 13.950213110074401,457.0159131199471 z" /><path fill-rule="evenodd" fill="#D2EBD9" stroke="#A6A6A6" stroke-width="0.25" opacity="1" d="M 23.2903840765357,457.0912902939017 L 23.12538127042353,456.7643789530266 L 22.92750590108335,456.5993106791866 L 23.2903840765357,457.0912902939017 z" /><path fill-rule="evenodd" fill="#D2EBD9" stroke="#A6A6A6" stroke-width="0.25" opacity="1" d="M 17.741088515147567,464.67029529239517 L 17.480726156383753,464.3689073549467 L 17.340130543336272,464.4318054410396 L 17.40261746942997,464.7331939689466 L 17.741088515147567,464.67029529239517 z" /><path fill-rule="evenodd" fill="#D2EBD9" stroke="#A6A6A6" stroke-width="0.25" opacity="1" d="M 15.304097164422274,465.07127667742316 L 15.606117451563478,464.80395517573925 L 15.543630527332425,464.6624329825863 L 15.246817473322153,464.7253316437127 L 15.304097164422274,465.07127667742316 z" /><path fill-rule="evenodd" fill="#D2EBD9" stroke="#A6A6A6" stroke-width="0.25" opacity="1" d="M 22.08393203280866,466.1720356864971 L 22.115175494924188,465.76841966464417 L 21.969372583553195,465.7107606024947 L 21.802740678191185,465.9728479158366 L 22.08393203280866,466.1720356864971 z" /><path fill-rule="evenodd" fill="#D2EBD9" stroke="#A6A6A6" stroke-width="0.25" opacity="1" d="M 23.031650818884373,468.71965195209486 L 22.77128852531314,468.41560474206926 L 22.62548561580479,468.4785107917851 L 22.68797260336578,468.78255860327045 L 23.031650818884373,468.71965195209486 z" /><path fill-rule="evenodd" fill="#D2EBD9" stroke="#A6A6A6" stroke-width="0.25" opacity="1" d="M 24.614653768017888,471.68688637338346 L 24.11996534653008,471.2360165764112 L 24.151208808645606,471.6187312057591 L 24.614653768017888,471.68688637338346 z" /><path fill-rule="evenodd" fill="#D2EBD9" stroke="#A6A6A6" stroke-width="0.25" opacity="1" d="M 26.94750013574958,474.39224054152146 L 26.59340739250183,473.73685237800237 L 26.30180157162249,473.6503421899397 L 26.35387402959168,474.145812972798 L 26.520505936816335,474.3267011481803 L 26.94750013574958,474.39224054152146 z" /><path fill-rule="evenodd" fill="#D2EBD9" stroke="#A6A6A6" stroke-width="0.25" opacity="1" d="M 22.510926231741905,477.59859718196094 L 22.5265479311347,477.19745687412797 L 22.38595231808722,477.1397769479663 L 22.21411317959428,477.3967154699494 L 22.510926231741905,477.59859718196094 z" /><path fill-rule="evenodd" fill="#D2EBD9" stroke="#A6A6A6" stroke-width="0.25" opacity="1" d="M 14.950004421174526,477.8738925404032 L 14.68443489447236,477.567134962359 L 14.554253682494164,477.62743752414826 L 14.616740671917796,477.93157376145246 L 14.950004421174526,477.8738925404032 z" /><path fill-rule="evenodd" fill="#D2EBD9" stroke="#A6A6A6" stroke-width="0.25" opacity="1" d="M 30.373868266120553,479.3264435721794 L 30.67588855139911,479.3605295631569 L 30.82169146090746,478.9279029314057 L 29.946874065324664,476.92216749163345 L 29.43135671131313,476.041257797915 L 28.59299001097679,475.36486184142996 L 28.868974067270756,476.40567870408995 L 29.926045069471,478.1465683807037 L 30.373868266120553,479.3264435721794 z" /><path fill-rule="evenodd" fill="#D2EBD9" stroke="#A6A6A6" stroke-width="0.25" opacity="1" d="M 31.790239308029413,482.16094959079055 L 32.79003061912954,482.00623812311096 L 31.925627687945962,481.55521925754147 L 31.738166850060225,481.70468408364104 L 31.790239308029413,482.16094959079055 z" /><path fill-rule="evenodd" fill="#D2EBD9" stroke="#A6A6A6" stroke-width="0.25" opacity="1" d="M 19.89688850939274,482.8689611690934 L 19.626111686229706,482.5621541621513 L 19.490723306313157,482.61984411865706 L 19.542795764282346,482.92927399411565 L 19.89688850939274,482.8689611690934 z" /><path fill-rule="evenodd" fill="#D2EBD9" stroke="#A6A6A6" stroke-width="0.25" opacity="1" d="M 29.4053204189986,482.9922093008063 L 29.144958125427365,482.68802333856 L 28.999155214056373,482.75095808744663 L 29.061642203480005,483.0577670407947 L 29.4053204189986,482.9922093008063 z" /><path fill-rule="evenodd" fill="#D2EBD9" stroke="#A6A6A6" stroke-width="0.25" opacity="1" d="M 18.636734906584024,483.60059024963994 L 18.65235660597682,483.20199445739854 L 18.51176099292934,483.1495480341255 L 18.34512908756733,483.4012917074724 L 18.636734906584024,483.60059024963994 z" /><path fill-rule="evenodd" fill="#D2EBD9" stroke="#A6A6A6" stroke-width="0.25" opacity="1" d="M 26.44760448113084,483.5586325340555 L 26.182034954428673,483.2596856778837 L 26.041439278051257,483.30950996273896 L 26.114340733736753,483.61632442387054 L 26.44760448113084,483.5586325340555 z" /><path fill-rule="evenodd" fill="#D2EBD9" stroke="#A6A6A6" stroke-width="0.25" opacity="1" d="M 17.90772035717964,484.1040870496654 L 17.647358063608408,483.80775718949735 L 17.50155515410006,483.8680719208787 L 17.558834908530116,484.1670247624861 L 17.90772035717964,484.1040870496654 z" /><path fill-rule="evenodd" fill="#D2EBD9" stroke="#A6A6A6" stroke-width="0.25" opacity="1" d="M 26.963121900334954,486.4249995374121 L 26.98915812931955,486.02374444459565 L 26.8433552198112,485.96604808664415 L 26.676723312586546,486.2230600443436 L 26.963121900334954,486.4249995374121 z" /><path fill-rule="evenodd" fill="#D2EBD9" stroke="#A6A6A6" stroke-width="0.25" opacity="1" d="M 33.862723384052515,487.8386134222965 L 33.80023639462888,486.9364107705187 L 33.52425233833492,486.06570553581696 L 33.21702481806278,485.66970021644374 L 33.029563914984465,486.1968342366745 L 33.086843671277165,486.78429783164756 L 33.55028856731951,487.8176317142206 L 33.862723384052515,487.8386134222965 z" /><path fill-rule="evenodd" fill="#D2EBD9" stroke="#A6A6A6" stroke-width="0.25" opacity="1" d="M 15.429071078076959,490.3407924671774 L 15.449900075793266,490.10735195915913 L 15.341434011235833,489.97206571296556 L 15.429071078076959,490.3407924671774 z" /><path fill-rule="evenodd" fill="#D2EBD9" stroke="#A6A6A6" stroke-width="0.25" opacity="1" d="M 32.86813930608332,491.23785030888394 L 32.62339871190488,489.9421086018556 L 32.529668260365725,489.92637116479455 L 32.44635234028101,490.9965339131304 L 32.586948016658425,491.20899716502754 L 32.86813930608332,491.23785030888394 z" /><path fill-rule="evenodd" fill="#D2EBD9" stroke="#A6A6A6" stroke-width="0.25" opacity="1" d="M 13.252442087978125,492.5074164017569 L 13.252442087978125,492.2923208416323 L 13.158711636438966,492.1454272044939 L 13.252442087978125,492.5074164017569 z" /><path fill-rule="evenodd" fill="#D2EBD9" stroke="#A6A6A6" stroke-width="0.25" opacity="1" d="M 18.871060971170664,494.8735687825829 L 18.871060971170664,494.86045209359145 L 18.980413122102618,493.98689562419895 L 18.714843595400453,494.3121809682343 L 18.871060971170664,494.8735687825829 z" /><path fill-rule="evenodd" fill="#D2EBD9" stroke="#A6A6A6" stroke-width="0.25" opacity="1" d="M 16.965208802372217,496.73094563552877 L 16.965208802372217,496.7230751067982 L 16.87147835083306,496.36365854844917 L 16.8246131259948,496.5604189237347 L 16.965208802372217,496.73094563552877 z" /><path fill-rule="evenodd" fill="#D2EBD9" stroke="#A6A6A6" stroke-width="0.25" opacity="1" d="M 14.590704442933202,499.0633240733878 L 14.590704442933202,499.05545299249934 L 14.52821745350957,498.4493844755343 L 14.189746471121907,498.9531288721482 L 14.590704442933202,499.0633240733878 z" /><path fill-rule="evenodd" fill="#D2EBD9" stroke="#A6A6A6" stroke-width="0.25" opacity="1" d="M 12.731717435643077,500.0 L 12.778582662343979,499.7717317127972 L 12.648401515558362,499.63792010355974 L 12.731717435643077,500.0 z" /></g></g></g></svg>