<svg xmlns="http://www.w3.org/2000/svg" xmlns:xlink="http://www.w3.org/1999/xlink" width="203.24276984855533" height="500.0" viewBox="0.0 0.0 203.24276984855533 500.0" preserveAspectRatio="xMinYMin meet"><g transform="matrix(1,0,0,-1,0,500.0)"><g><g><path fill-rule="evenodd" fill="#D2EBD9" stroke="#A6A6A6" stroke-width="0.25" opacity="1" d="M 144.31510231085122,360.1791600373108 L 124.66390472464263,360.404095052043 L 122.49916197173297,359.8748316480778 L 121.89640428870916,359.0544425037224 L 121.90288556180894,357.8899544039741 L 122.32416781969368,355.1107553523034 L 122.20102373510599,352.5230630876031 L 121.72789134830236,349.99456921359524 L 119.18075392022729,343.69823642773554 L 107.65706361457705,326.20090566622093 L 106.32192282751203,322.9592005459126 L 106.02378459088504,320.0683265759144 L 114.83182471990585,288.7341053367127 L 118.27337672747672,258.3847850235179 L 117.86505701951683,252.92921377834864 L 118.02060741186142,247.64825103385374 L 120.08164990320802,242.9651447229553 L 121.4362343866378,241.55927104898728 L 122.16861742734909,240.5530934613198 L 123.43894547224045,238.27395907556638 L 123.99633436091244,236.90764979296364 L 124.67038599774241,236.55438920739107 L 125.68146345205605,236.35442675836384 L 133.7052703462541,236.49440073245205 L 135.85056933760643,236.16112726321444 L 137.95049934834242,235.39457087754272 L 139.91432285308838,234.17466744990088 L 151.80744541063905,223.23785532498732 L 175.1140768043697,195.2795909808483 L 179.32041822560132,187.1432921991218 L 195.88005204312503,166.08943795855157 L 198.93272816762328,162.98161399411038 L 199.66511120833457,162.03707610373385 L 200.02806206047535,160.93168610148132 L 200.66970738768578,147.365193587495 L 201.0845083706081,146.78846164327115 L 203.24276984855533,146.7012791763991 L 196.12634014897048,129.82453271211125 L 195.71153910271823,128.19951985240914 L 195.7309829890728,126.68177204183303 L 199.24382895044982,112.24802200705744 L 197.12445505522192,81.07662292732857 L 196.05504625849426,76.97869762103073 L 196.08097129315138,75.94727409933694 L 196.43095965869725,73.95835153851658 L 196.3661469798535,72.93343230918981 L 195.7698705084622,71.52403653622605 L 194.82360579632223,70.44496998935938 L 189.61914940550923,66.93063790514134 L 187.20811854861677,67.06556265801191 L 181.22591032460332,65.25070671713911 L 179.7092941738665,65.09552133106627 L 179.39819345250726,64.71092340140603 L 179.21023668907583,63.698769035283476 L 178.80191698111594,63.09818656835705 L 178.01768380962312,63.13192787626758 L 177.18160056881607,63.53681694949046 L 176.6436555031687,64.04291043011472 L 176.18996687419713,65.13600464072078 L 175.152964387089,65.83769535063766 L 173.86319251917303,66.19527319422923 L 172.62527078203857,66.26273954682983 L 171.2058735564351,65.89167005731724 L 170.0262832865119,65.08202684461139 L 165.6579101998359,61.09379319450818 L 163.91444970481098,59.00808303337544 L 162.76078440621495,56.55744731798768 L 162.33302087523043,53.532325400505215 L 163.2274355813861,51.00634063780308 L 162.98114741407335,50.34436899027787 L 161.50341884605587,48.54741536080837 L 161.1663930285722,47.338044385192916 L 161.18583685159683,44.73649341566488 L 160.84232975915074,43.567311169812456 L 159.98032142221928,42.65486854524352 L 154.80827140435576,39.15994266979396 L 155.83879267983139,36.252400615718216 L 157.46559030376375,33.41182747553103 L 158.74239968508482,33.080385472625494 L 160.51826648972929,32.32277075643651 L 161.37379355169833,30.983304353198037 L 162.27468946948647,30.49619018053636 L 163.9792623836547,28.486643843352795 L 164.16073780879378,24.155209191143513 L 164.41350712627172,22.85548528446816 L 165.67087268456817,20.30302795046009 L 165.98845468088984,18.67107596853748 L 164.4199883993715,17.330141401616856 L 164.27091928198934,15.948420540429652 L 164.41350712627172,13.462288675131276 L 163.52557375468314,12.53409476368688 L 163.5514988526702,12.120788764907047 L 163.84315581433475,11.815882133319974 L 165.8717919345945,10.60295632807538 L 166.2477053962648,10.040497650392354 L 165.26255297660828,7.986966276541352 L 165.18477781116962,6.9295687635894865 L 165.7356853634119,4.461953128222376 L 165.81994180381298,3.133031011559069 L 165.6579101998359,2.041308413259685 L 164.84127072058618,0.39336837315931916 L 161.25713080354035,0.0 L 154.9314154870808,0.21703242254443467 L 151.63245119713247,0.7392508406192064 L 150.67322393506765,1.6751187150366604 L 150.86766184680164,3.363568700151518 L 148.82606317847967,6.522853118600324 L 149.31863938830793,8.569851683918387 L 150.67970521003008,9.708431693259627 L 152.26761525124311,10.494532551150769 L 153.64812483079731,11.483864001464099 L 154.3805078715086,13.279365425696597 L 154.56846457347274,15.38620565761812 L 154.5295769907534,17.763590722111985 L 153.95274434052408,19.795182154746726 L 152.53982838988304,20.851478131720796 L 150.47230468690395,20.91241556010209 L 148.60570010729134,20.72960237809457 L 146.8168708179146,21.027518768096343 L 144.96971012465656,22.503453361336142 L 143.27809976041317,24.649339450523257 L 142.42257269658148,25.278819530969486 L 141.03558184206486,25.61723650805652 L 140.60781831108034,25.860891048097983 L 140.3226426243782,26.354953709989786 L 140.1217233762145,27.620477119693533 L 139.85599151067436,28.16183833172545 L 138.8513952679932,28.899405249627307 L 136.79035283997655,29.94816407444887 L 136.1746326070279,30.949477612040937 L 135.72094397991896,32.36335846781731 L 135.2154052220285,33.263017853256315 L 132.29883573018014,35.75196523522027 L 131.6636716760695,36.62433297280222 L 130.54241268709302,38.815129704540595 L 129.73225448094308,39.714328101370484 L 124.89723028056324,42.316910171182826 L 123.79541511274874,44.858136211987585 L 121.34549673646688,46.87183161848225 L 120.56126350164413,47.6488434439525 L 119.8872119281441,48.6622657997068 L 118.13078888505697,53.18790234904736 L 116.73083554394543,54.64657171466388 L 113.95037255994976,55.058480738895014 L 111.79211108200252,55.1395104220137 L 110.56715182960033,56.402157170232385 L 107.98112682066858,62.112900788430125 L 108.23389619961381,64.33306172769517 L 109.4718180000782,68.54964245203882 L 109.19312352314591,70.38426982192323 L 108.13667721301317,71.8679701522924 L 102.90629585273564,77.40337773645297 L 99.90546979755163,78.9671603650786 L 99.12771796248853,79.65462633920833 L 98.44718505255878,81.46747647086158 L 98.33052224293351,83.79214088991284 L 98.64810430072248,86.06923973886296 L 99.32215593755245,87.70608250447549 L 101.10450395196676,89.64578148559667 L 102.21928166784346,90.50777863152325 L 105.25899524241686,91.82760299369693 L 109.16071721538901,97.30077934800647 L 109.90606280602515,99.36694074724801 L 110.10698199085891,101.957603382878 L 109.536630615592,105.88637903495692 L 109.54311189055443,108.0789970161859 L 110.32734499871731,109.16844730498269 L 111.45508526451886,109.75348609103821 L 112.68652572669089,111.75049638189375 L 113.95037255994976,112.53039324725978 L 114.36517354287207,113.33713580248877 L 114.96793122589588,115.79068217473105 L 115.68087050691247,116.7450925949961 L 118.11134512536228,118.35802813828923 L 119.26501042209566,120.0446851903107 L 119.51129852794111,121.74457032908686 L 118.20856411196291,131.3285058781039 L 118.35763316601515,132.436238091439 L 118.93446587771177,133.14782521058805 L 118.37707705236971,134.69842095673084 L 118.23448920808733,135.61795603157952 L 118.60392133519053,136.5307188271545 L 119.88073065318167,138.31580151594244 L 120.34090055525303,139.2753562699072 L 120.457563303411,140.3690335790161 L 118.7529904525727,143.36781771713868 L 118.3835583254695,144.66239527566358 L 118.23448920808733,145.74894279707223 L 118.2150453235954,150.53679507551715 L 117.86505701951683,152.58152797352523 L 117.19100538268685,154.49191148788668 L 116.14104034565389,156.5829819610808 L 115.54476387426257,158.801054995507 L 116.39380966313183,162.66007626149803 L 116.31603449769318,164.82361739268526 L 115.29199455864727,166.87968168547377 L 112.02543663792312,170.13395379669964 L 110.56715182960033,171.9415631503798 L 108.51907188817859,176.1651264289394 L 107.15800612978637,178.1325761883054 L 105.40158308669925,179.0760539479088 L 104.85067553259432,178.98237806605175 L 103.44424085691571,177.98536133905873 L 101.46745486743748,177.93852000357583 L 95.26488357037306,175.70333916973323 L 90.69559123553336,175.57617771206424 L 88.68639893829823,174.71948201954365 L 88.22622903622687,174.056846532505 L 87.50032726861537,172.42355383886024 L 87.0077511202544,172.0955341695808 L 80.409822601825,172.98585590627044 L 78.57562445662916,172.9925497896038 L 76.85808899439871,172.55074316938408 L 73.2156177368015,170.31472496967763 L 71.43326965905726,169.65858157817274 L 69.66388413123786,169.83935875073075 L 66.2903853431344,172.45033059618436 L 64.96172589436173,172.0285904314369 L 64.01222051307559,170.5691397699993 L 63.477516051381826,168.68770205695182 L 63.471034778282046,166.45108030480333 L 63.2701155282557,165.2924529707525 L 62.654395297169685,164.8504083813168 L 61.55258019268513,165.19198944233358 L 60.80723460391164,165.86173251620494 L 60.275770811364055,166.72565455385484 L 59.00544270314276,170.22768728691153 L 58.473978973925114,171.04448178154416 L 57.7545584179461,171.61353246611543 L 56.06942939013243,172.4034712545108 L 55.35000889748335,172.97246800060384 L 54.08616206422448,175.3887799018994 L 53.250078823417425,176.1249716107268 L 50.60572240874171,177.32287597702816 L 49.79556420445442,177.97866977518424 L 48.6548614539206,179.51096981973387 L 45.48228191584349,185.98632655269466 L 44.38046668469906,187.5311560034752 L 43.33374231681228,189.56392924580723 L 42.88329435698688,189.98515933728777 L 41.42825015634298,190.79415456438437 L 40.90326763689518,191.3891721398104 L 39.334801418706775,193.98958348389715 L 39.06258821673691,195.15260047488846 L 39.38017021305859,198.3671290294733 L 38.68667481653392,200.20464266254567 L 37.2802402023226,201.31372210686095 L 33.825725581496954,203.2377111776732 L 32.75631672330201,204.53359096427448 L 30.805455766618252,208.23357453383505 L 29.911041060462594,208.98147404380143 L 29.282358342781663,208.6208843011409 L 28.679600596427917,206.98476587166078 L 28.112489828839898,206.42376967612654 L 25.938025258481503,205.78260523616336 L 25.063054310157895,205.31507204961963 L 24.21400852315128,204.35324329463765 L 22.253425624221563,201.14669735589996 L 21.103001058101654,200.87277275440283 L 19.63823497481644,202.77009794814512 L 19.314171705394983,203.75206877454184 L 19.625272426754236,207.71937185176648 L 19.268802786245942,208.26696368283592 L 18.763264091685414,208.52739666146226 L 17.62904261611402,208.4672971367836 L 17.110541371628642,208.90134377148934 L 16.728146696463227,209.91629573819228 L 16.342511354014277,211.8592024431564 L 13.221781944856048,215.72423684736714 L 12.298201598227024,216.53183005028404 L 10.37650634534657,217.24594656797126 L 8.062694475054741,217.71310733491555 L 6.254421301186085,218.5272671300918 L 5.897951722145081,220.26888783439063 L 6.572003295645118,220.98949972493574 L 8.876093287020922,222.09036835143343 L 9.41079774685204,222.79087938694283 L 9.060809317976236,223.56473976070993 L 6.682184895500541,226.93991074943915 L 5.022980837151408,227.68021374568343 L 2.7221315782517195,227.70022146194242 L 0.7388641890138388,228.15372206876054 L 0.0,230.20097606396303 L 0.27221307530999184,231.5412120022811 L 0.8749708216637373,232.04127006279305 L 1.7758667413145304,231.95459453063086 L 2.942494524642825,231.55454717599787 L 3.7332089710980654,231.6812299392186 L 6.264143243432045,233.67467910586856 L 8.574714444577694,234.02133939834312 L 9.391353925690055,234.59464515489526 L 9.670048339292407,236.05447821319103 L 9.767267325893044,238.24063592171296 L 10.292249843478203,238.9404074891936 L 11.445915142074227,239.1203435950447 L 13.228263156488538,240.0799675048329 L 14.349522147327662,242.55205766600557 L 16.07353881932795,249.6396432176698 L 17.21748223900795,252.1501674207393 L 18.77622663974762,254.14098676177673 L 20.662274979054928,254.6935774849262 L 20.999300733208656,255.59232812235132 L 20.80486282147467,256.3379192429129 L 19.800266578793526,257.81901133432984 L 19.314171705394983,258.91060363617726 L 18.97714588791132,261.10687175393105 L 19.95581697113812,268.232666030759 L 21.67335237003863,272.1634639694821 L 21.965009331703186,273.95228966651484 L 21.430304870009422,275.5148554716725 L 19.891004355624318,276.94430409232154 L 18.199393989518285,278.01464554900303 L 17.791074281558394,278.7126560858451 L 17.421642092987895,283.4317471932154 L 17.642005164176226,284.55482167960145 L 18.484569678083062,286.30241073085926 L 20.74653141759336,289.69073855201714 L 22.67146727629006,293.53663785150275 L 23.332556426525116,294.4066560959909 L 24.22048979625106,295.1969381463714 L 24.732509829103947,295.4160853102803 L 25.166754571720958,295.31647327146493 L 26.21023833565414,294.04138685087673 L 27.824073534458876,295.0774020901881 L 29.288839554414153,295.3961628735997 L 29.88835663162172,295.2301424238831 L 30.3258421048522,294.7851993285585 L 31.336919497698545,293.03851517965086 L 31.978564824908972,293.0650820764713 L 32.860016921535134,294.2007780666463 L 35.34882300719619,295.6949955485761 L 36.392306769266725,297.8995494968258 L 37.11172719858587,298.7228616857901 L 37.617265958338976,298.94196203304455 L 39.28295122645795,299.2208129167557 L 40.06718439795077,299.1610595465172 L 41.7004633564502,298.3576879759785 L 43.08745421282947,298.67638547788374 L 44.5198139231652,299.5859676627442 L 45.806345185264945,300.88718081777915 L 46.78825687430799,302.36751884315163 L 47.50119615532458,303.02466704742983 L 49.40344758704305,303.79462589416653 L 49.95759580656886,304.5579119727481 L 50.00944593735039,306.13747145119123 L 50.29462168738246,306.6152919284068 L 51.24736767448485,306.7878348948434 L 51.701056303456426,307.8495983062312 L 53.60654840245843,309.0108251005877 L 54.170418502762914,310.0459080245346 L 54.073199577629566,311.3529407954775 L 53.35377902165055,311.62495010951534 L 52.303813986480236,311.5917785023339 L 49.85389560833573,312.4542195505928 L 45.2327531427145,311.04775446653366 L 43.029122807085514,311.82397850672714 L 41.81712616793811,313.7278979124967 L 40.708829725161195,318.19827942783013 L 39.92459655366838,320.29377938830294 L 37.43579053133726,322.8730118696112 L 36.962658144533634,323.91387698217295 L 36.87192043103278,326.07496133842506 L 37.0987647138536,328.2026338588912 L 39.56488630734384,334.0606591105461 L 40.151440899819136,337.3333971479442 L 40.72179221175611,339.3537070408929 L 40.475504169240594,340.2677373525221 L 39.769046161323786,341.6718067752663 L 39.762564888224006,342.6982955480926 L 40.59216691553593,345.1152733757626 L 40.80604865029454,347.4590930023696 L 40.09310949407518,357.8634878497105 L 39.72367730550468,358.89565313095227 L 38.87463151663542,359.86821574764326 L 37.85059151425958,360.0468439429533 L 35.70529258437455,359.9145269987639 L 34.655327547341585,360.30485941516235 L 34.44792702421546,360.80103235924616 L 35.77658653818071,363.98944356199354 L 35.55622346699238,370.2257209280506 L 36.14601866342127,371.1315550538711 L 37.74365064688027,369.80915434495546 L 38.27187383361161,370.68194960593246 L 38.161692298948765,372.32824478065595 L 38.26539256051183,373.227363133803 L 38.550568183884025,373.5711319728289 L 39.85978393815458,374.2850926744286 L 39.94404037669301,374.67511497670785 L 39.726917911320925,375.39564273366705 L 39.82089629210532,375.81208164663985 L 44.221675688400865,382.62579392292537 L 45.08368402346969,384.41637082211673 L 45.628110364079475,386.3256882049609 L 43.61891794204712,389.866324741859 L 42.22220520675182,391.2731445785612 L 41.062058698385954,392.8779787248932 L 40.15792210958898,394.64775982685387 L 39.54868315346539,396.5692361597903 L 39.166288478299975,400.3785944788251 L 38.69315602816641,402.3918966650963 L 37.78577883541584,403.17075626249425 L 36.13953739032149,403.0453488510102 L 35.64372057467699,403.39516754681244 L 35.69881137274206,404.3125859601423 L 36.25295953080058,405.43454831675626 L 36.839514123275876,405.6391344179865 L 38.2589112855494,405.44114790903404 L 39.182491632178426,406.0087035810575 L 40.358841359615326,407.80365215125494 L 41.12363070808351,408.4701159247197 L 45.29108454659581,409.5720396961551 L 48.330798184499145,409.11016315454617 L 49.153918938711286,409.4862634865567 L 50.29462168738246,410.6277156469878 L 51.24736767448485,410.80585521971807 L 52.53065826743841,411.59756678552367 L 53.22091312147677,412.7059082519263 L 54.24171245470643,415.2720017726533 L 57.29438857920468,418.7149136925582 L 58.934148812666535,419.63160149077885 L 61.39054846391082,421.418688691454 L 62.36273833550513,422.3088739234954 L 63.393259612843394,423.8583590039052 L 63.29604062624276,424.9725936742034 L 62.85207387804985,426.1329127678182 L 62.842352060601115,427.80734334909357 L 61.13453854061663,428.03146895579994 L 60.16558927483857,429.15205849381164 L 58.940630085766315,432.01256947405636 L 56.71107471734285,434.1280271797441 L 56.17961086332798,434.8726674246136 L 54.53336941637099,438.8062783374917 L 54.30652513541281,440.3347089488525 L 54.7018822953105,443.8983990077395 L 54.55605384521186,445.90722565958276 L 53.658398531377316,446.94119961187243 L 52.41399552114308,447.8170725516975 L 51.24736767448485,449.35799030936323 L 49.62057005241513,449.9308658966329 L 46.146611608564854,453.12418730254285 L 41.02641172148287,455.4085874890443 L 40.18384720757604,456.57373110949993 L 40.22273472696543,458.21930173411965 L 40.5532793328166,459.82525201141834 L 41.732869666069746,462.8327823996078 L 43.59299290739,465.73460336308926 L 44.04020026139915,467.0768055913504 L 43.63836182653904,468.8531172273215 L 42.653209406882524,471.36601229105145 L 42.2448896355927,471.8593463995494 L 39.159807205200195,473.1222292794846 L 38.40798034146428,473.7931050132029 L 37.87003533728421,474.56261271215044 L 36.962658144533634,476.29225864168257 L 36.27564395964146,477.03537118108943 L 34.70393707230687,478.0086119675543 L 34.11090127006173,478.9094775619451 L 33.94238832965493,479.8497565325815 L 34.64560566842556,481.6447194763459 L 34.55162728577852,482.61117556807585 L 34.27293287217617,483.4592542150058 L 33.36879628524184,485.05670657148585 L 32.114671394228935,485.9441288774833 L 28.73145072720945,486.12160892412066 L 27.279647193849087,486.8249415217433 L 26.709295818582177,483.2949004897382 L 26.158388204872608,482.13124024588615 L 24.771397348493338,482.6374731180258 L 24.44085286743939,483.2423070340883 L 24.045495646074414,484.68858000822365 L 23.35524085536599,485.01069115125574 L 22.509435672312975,484.8003333641682 L 21.12244481779635,484.0048994892277 L 20.292842788621783,484.2810037706513 L 19.5280534401536,486.00986242922954 L 20.636349881067872,490.597568471916 L 20.61042478494346,492.3324934823904 L 20.053035957738757,492.5953489369713 L 18.72437650896609,493.699306756258 L 17.99523413553834,493.6664517575409 L 17.194797810167074,493.2261888051871 L 16.58555885218084,493.7321618325077 L 16.2874206174165,494.5929460641928 L 16.151314048096538,498.3051008488983 L 17.117022644728422,499.336508593522 L 18.309575526043773,499.9474470054265 L 19.5280534401536,500.0 L 20.629868607968092,499.35621651192196 L 23.766801232472062,496.2224295521155 L 27.6296355612576,493.2196177050937 L 29.88835663162172,492.6150629236363 L 31.95912100188434,491.7476289649494 L 32.529472440481186,491.94477608893067 L 33.80628176033497,492.86477236426435 L 34.681252581998706,492.8713435714599 L 36.73581379838288,492.4047790551558 L 37.27375886589289,492.5756348052528 L 38.26539256051183,493.23275996698067 L 38.82278138585389,493.3378981591668 L 39.94404037669301,492.94362735562027 L 43.46984888613224,490.42669710866176 L 44.62999545969069,489.32914533885196 L 45.70912619866431,486.96954911155626 L 46.46419360488653,485.77979421569034 L 47.42990220338106,485.0961483907886 L 48.6418989058584,484.7214486950543 L 51.24736767448485,484.53738329932094 L 53.198228692635894,485.01069115125574 L 54.67595726065338,485.8783951885998 L 56.199054684489965,486.51600385131314 L 58.3249098546803,486.2925143719185 L 60.236883165314794,485.68776624207385 L 61.91553098149598,485.391959349392 L 63.50992235913873,485.60231135203503 L 65.16912635415792,486.5422966238111 L 67.18155938200653,487.10100969835185 L 68.89909478090703,486.02958247461356 L 70.49996737018228,484.40590699692257 L 72.12676511891186,483.3343454808928 L 73.59801241196692,482.72951416135766 L 75.37387921661139,481.664443468675 L 76.88401409238577,480.38234369503334 L 77.56454700231552,479.11989325867034 L 78.29692998155951,478.5872745527886 L 79.32745125703514,479.7116762183141 L 79.32745125703514,480.1456398740411 L 80.25427227281034,480.75711927190423 L 80.77277351729572,481.40802970458753 L 80.99313652515411,482.2364324820228 L 81.03850544430315,483.4000870138407 L 81.59589427150786,486.4305522465147 L 80.42926642484963,489.26999424863607 L 81.36256871558726,490.8670166542288 L 82.8402972817421,492.09592094807886 L 84.62264529801905,493.88329435535707 L 86.80035059899092,493.08819414069876 L 88.82898678071797,491.7476289649494 L 89.42526325210929,491.03788448800333 L 90.29375280067325,490.5515647244174 L 92.41960790753365,487.9620569178369 L 92.89274035766721,487.6859997508582 L 93.97511170245707,486.49628431443125 L 95.78986608982086,485.6614724267274 L 101.88873706012964,479.19222313468345 L 103.76182285137475,478.5083669682499 L 104.15718007460237,477.6666675794404 L 104.62383125163615,475.32551577454433 L 106.38025423139334,473.37216581823304 L 107.7996514569968,472.1158756141085 L 107.87094534747303,471.8527686782181 L 114.13184798695147,464.063309190562 L 114.84478720463812,462.7538156500086 L 116.73083554394543,460.0753477916587 L 117.46321852132678,457.89678027364425 L 117.54747502319515,457.2056457907893 L 117.41784972883761,456.47499268478714 L 116.73083554394543,454.5988724876661 L 117.21044920571148,452.4263081434183 L 119.29093552008271,447.72487718844786 L 119.8872119281441,444.3396994327195 L 120.54830101504922,442.1594498946797 L 119.25852914899588,434.5234148504678 L 119.53722356073558,433.1461137714796 L 120.74273899011314,431.12282352684997 L 121.00847085565329,429.9364334070124 L 120.2890504244715,427.89963064994663 L 120.15942506678402,427.08221380296163 L 120.26312532834709,426.23839293257333 L 120.96958327293396,424.51767708943225 L 121.47512203082442,423.79242594889365 L 122.006585823372,423.54187839012593 L 122.97877563349903,423.4495705959853 L 123.1537698470056,422.7044988698326 L 123.10191971808672,421.47803565417416 L 124.61853586696088,419.49970658984967 L 125.2148123383522,418.2136848215014 L 125.26666246913373,416.8220474012196 L 124.43706044182181,415.4764830013737 L 125.20833106525242,414.2429666724056 L 125.9925641734153,413.4909447727259 L 126.15459577739239,412.6663256767206 L 125.38980649039149,412.092369959224 L 125.00741181708872,411.55138451070525 L 125.24721858464181,409.8821504977532 L 124.43706044182181,405.88991423742846 L 124.43706044182181,403.05854962649755 L 124.30095387250185,402.39849731326103 L 123.14728857390583,399.7910659383051 L 121.31957157701254,397.4341666714754 L 121.00847085565329,395.82311915559694 L 122.11676729656756,391.89396093483083 L 122.29824272356927,390.32867156807333 L 122.77137517370284,389.20580936945044 L 125.7592386174947,386.6229690746404 L 126.58235937170684,385.03080933960155 L 127.71658084727824,384.74671667441726 L 128.60451428033412,383.90101968566887 L 128.96098385751247,381.8659025733359 L 129.51837274618447,380.62357788556255 L 130.33501222729683,379.6851707638707 L 131.32664585858583,379.11681640008464 L 131.32664585858583,378.72027966426685 L 130.04335526563227,377.8875246529933 L 131.43034605681896,375.2832687573973 L 131.832184555009,374.7941032012459 L 132.2469855993986,374.84037617617287 L 133.0441811941564,375.5410669108387 L 133.5108323711902,375.7063202795107 L 134.02285234071314,375.6402191624511 L 136.7320214342326,374.7213883169461 L 138.2486375849694,373.9215050910134 L 139.4217467047274,372.8571433154866 L 140.16061102040112,371.05882548587397 L 141.33372007869184,370.0802543738391 L 141.8716650828719,368.3477894500829 L 143.05125547759235,367.16406354052015 L 144.06881414353848,364.9815722508356 L 144.31510231085122,360.1791600373108 z" /><path fill-rule="evenodd" fill="#D2EBD9" stroke="#A6A6A6" stroke-width="0.25" opacity="1" d="M 127.35362999513745,332.8348794376943 L 128.70173326693475,332.75536642759107 L 130.12113042920828,332.2517754251603 L 131.1192453354597,331.5692535287235 L 131.6312653683126,330.2770266069565 L 131.4368273317814,328.6533219376579 L 130.74333193525672,327.0626054140739 L 129.75817957893014,325.86947117978707 L 128.44896388798952,325.1137765031308 L 127.029566725716,324.8751291637309 L 125.7786823771894,325.3060177746229 L 124.97500550746918,326.62513245246373 L 124.95556168630719,327.9706574685406 L 125.36388139426708,329.4751344518736 L 126.52402796596289,332.2584016630426 L 127.35362999513745,332.8348794376943 z" /><path fill-rule="evenodd" fill="#D2EBD9" stroke="#A6A6A6" stroke-width="0.25" opacity="1" d="M 119.04464735090733,334.232923920732 L 121.35197794809937,334.7497079402674 L 123.17321360856295,333.67636997718364 L 124.03522194363177,331.71503722132184 L 123.43894547224045,329.4950165525079 L 122.14917360432446,328.2092617189046 L 121.20290882885456,328.24902876117267 L 117.94283224642277,332.1325016824994 L 117.80024434067309,333.2059354640078 L 119.04464735090733,334.232923920732 z" /></g></g></g></svg>