<svg xmlns="http://www.w3.org/2000/svg" xmlns:xlink="http://www.w3.org/1999/xlink" width="306.0157818906009" height="500.0" viewBox="0.017845995724201202 0.0 306.0157818906009 500.0" preserveAspectRatio="xMinYMin meet"><g transform="matrix(1,0,0,-1,0,500.0)"><g><g><path fill-rule="evenodd" fill="#D2EBD9" stroke="#A6A6A6" stroke-width="0.25" opacity="1" d="M 54.680064184591174,0.6534122708253562 L 54.78119138814509,8.957585856318474 L 54.48375847376883,11.59408223349601 L 53.124490128830075,14.341616671998054 L 52.55044462904334,18.553649252746254 L 52.690238101407886,19.489009044598788 L 53.64202336035669,22.02524053119123 L 53.74612489528954,22.880208889953792 L 53.05608055740595,26.327925592660904 L 53.433820344507694,27.33415429480374 L 51.518352469429374,27.827240424696356 L 50.691489020362496,28.2739404886961 L 49.9419580809772,28.988550398033112 L 48.811713080853224,32.671936239115894 L 48.692739909514785,33.63021819200367 L 48.86822531931102,34.51558733265847 L 50.09067455306649,37.72166926600039 L 50.31672356463969,38.10780144808814 L 51.16143301129341,38.83045645663515 L 51.28040615469217,39.25606576399878 L 51.01122938841581,41.950489185750484 L 50.54277257621288,43.275567116215825 L 50.43569673597813,44.27072200085968 L 50.587387483567,46.12523863464594 L 51.078151777386665,47.68260424863547 L 50.935383999720216,73.18964439630508 L 51.170355981215835,75.36388708418235 L 51.0156908724457,77.80808159383014 L 50.28995459713042,80.23445577127859 L 47.64577611349523,85.99569243844599 L 47.46136773377657,87.33205900061876 L 47.2531646899879,92.84234596323222 L 47.098499581217766,93.3435015915893 L 44.3576554376632,95.63696510577574 L 42.78720971569419,99.05524706980214 L 41.67629783600569,102.98526317812502 L 41.10820100083947,104.12134427716956 L 38.34504937380552,107.1190955019556 L 37.808182964101434,108.23458624444902 L 37.631210431456566,109.52804964454845 L 38.23499920219183,116.68183552613482 L 38.05951379239559,117.62978821620345 L 30.656408932060003,140.78053345205262 L 30.938970182090998,141.34032909339294 L 35.10897942259908,144.30539589421824 L 63.15987614169717,175.6633661952801 L 64.27227517403662,174.9418744565919 L 62.10101501457393,178.82572454959154 L 62.356807297095656,179.5178956920281 L 62.01773380860686,179.5944427442737 L 61.18194735981524,180.487396849785 L 64.8611923083663,185.2330780113116 L 65.53339067660272,186.58353824075311 L 65.71185041964054,187.76168304448947 L 64.90283291041851,194.264745447319 L 64.95934517867863,195.53629830665886 L 65.26272672973573,196.84245883207768 L 66.16989708133042,198.02436329284683 L 67.41911525279284,198.1863753721118 L 68.77540926635265,198.01800975529477 L 70.00678149983287,198.22767169913277 L 70.73549207858741,199.03128899540752 L 72.57957605086267,202.64428358897567 L 75.94949080981314,206.95213878387585 L 76.31235893443227,208.33122270461172 L 76.0684639532119,209.19968233071268 L 76.66630408726633,210.69851307058707 L 76.88045579567552,212.19054000033066 L 77.14219671674073,212.46608655853197 L 78.06721303611994,212.69728006143123 L 78.45685012638569,214.07470935210586 L 78.84946154989302,214.41979648498818 L 80.39016399905086,214.3659771741368 L 80.13437168672681,215.31880648480728 L 80.23847319558263,217.5814175293781 L 80.7946727257222,219.38441947242245 L 80.83928766101599,220.646122132428 L 81.12482324428856,221.951750327833 L 80.8363133277744,222.28995523555204 L 79.57817215658724,222.9536537155509 L 79.09930522367358,223.4434684845619 L 78.8613588809967,223.9806281956844 L 79.09930522367358,225.16533066844568 L 79.05766459181905,225.78442107373849 L 78.5460800267756,226.07498754980043 L 78.01070079766214,225.8918063370511 L 77.15111971460283,225.00422795535997 L 76.50271600857377,224.8241657470353 L 75.31893307343125,224.9789564930834 L 74.99026970565319,225.3106344337575 L 74.89360398799181,225.98971439665183 L 75.27729244157672,226.85816806415096 L 75.15534496493638,227.8369679832831 L 75.35165067762136,230.60812619142234 L 75.15534496493638,231.2707010745071 L 74.75083621032536,231.41266985982656 L 73.67561629600823,231.37165708187968 L 73.3707475643605,231.73445070628077 L 73.52838700450957,234.79663221398368 L 74.60211976803839,236.0228676921688 L 75.25052350200713,237.20783682120964 L 75.3813939485699,238.50593761680648 L 76.2171804253012,242.28175050066784 L 76.03425919637084,243.3267621123232 L 75.29513840936124,244.07576374942437 L 74.83411744609475,245.15186568675563 L 74.02212560363114,245.33748584473506 L 72.23455389775336,245.06691860686988 L 71.5177405923605,245.19905789894983 L 71.29020442813635,245.44130433443934 L 71.22030770592391,246.56744072958827 L 71.00318169221282,247.24677630653605 L 71.04482229612768,247.62100106105208 L 72.00106906704605,248.315916756168 L 71.63968809694052,248.55801440682262 L 71.45527968741953,249.00444994866848 L 71.3006145786494,250.91864915471524 L 74.06971490010619,252.22580138780177 L 76.87748146243393,252.32947943732142 L 77.3756815455854,252.7347462954931 L 77.88577898778021,254.20160719938576 L 77.94526553153992,255.2064948542975 L 77.72219088114798,256.0353794028051 L 76.4878443442285,258.85070829000324 L 76.46107540465891,259.9864494735375 L 76.81799486279488,260.40052524674684 L 77.85901002027094,260.76751933898777 L 80.07785944826901,262.06904157809913 L 80.26821649447083,262.68362326640636 L 79.75960626266897,263.72761883819476 L 80.44667623750865,264.592754275538 L 81.27651401981711,265.22584235295653 L 81.41184600815177,265.5611599856056 L 81.18728414922953,266.14086410729215 L 79.32237987406552,267.8200776684098 L 78.88515351526439,268.4621723801829 L 78.80782094597816,269.16682028677315 L 79.20043239742517,269.7993572857231 L 79.47704498283565,270.672885179054 L 79.38335362635553,271.67460323125124 L 78.37059461511672,274.79749585781246 L 78.30813368223608,275.479406659957 L 78.48956775851548,276.3363634599373 L 78.0910076983273,277.0430929074064 L 78.6888478025794,277.6371736410074 L 78.80335948988795,278.03110659169033 L 78.36464592069387,280.0034621884115 L 78.62936123274267,281.22214706102386 L 78.94464008696377,281.7282888898626 L 80.15519198961556,282.44367993436754 L 80.29795979522169,286.0317021422088 L 80.88687692955136,287.7327630855143 L 80.7679037861526,288.35687234206125 L 80.37231800146401,288.88730905530974 L 78.78997500613332,289.77957455674186 L 78.35572295077145,291.38279087655246 L 78.97735771909356,291.98153741518036 L 80.64893058687449,295.03662403672934 L 80.8273903299123,295.510322549846 L 80.8035957235843,295.99021253734827 L 79.70904263108969,296.8283620956354 L 79.4101225938648,297.4265176630579 L 79.25397030450404,299.5070984628983 L 78.8613588809967,301.36588179925457 L 78.12372527457774,303.1026780088432 L 75.25349783524871,308.3502659681253 L 77.76978014968336,310.97378769144416 L 78.2635187767446,311.9402066078037 L 79.27479063346982,315.971920310054 L 78.4419784899801,315.72661971952766 L 77.11245341598988,315.0465544736944 L 73.54325864091516,315.5558346705511 L 72.44870557636023,315.1552461069077 L 71.50881762243807,315.8166679791175 L 71.19948740489781,317.6949394531548 L 71.06118108332157,318.1263896590099 L 70.73549207858741,318.4305581888184 L 59.761705262586474,322.87332056835294 L 57.49675374664366,323.2206559078768 L 51.80983671732247,323.0780028537847 L 48.820636078715324,323.55866772821173 L 48.36258941888809,323.7819308405742 L 48.11125859245658,324.2377332067117 L 47.96997799538076,325.3848333773203 L 47.717160016298294,325.91490363981575 L 46.167534625157714,326.83853727579117 L 43.07720681279898,329.8873571846634 L 42.36931647732854,330.20640061143786 L 37.565775165334344,330.5285240705125 L 36.02507274411619,331.3894987064414 L 34.26724433712661,331.5536271468736 L 34.259808491915464,331.9252219037153 L 33.675352869555354,331.95618706196547 L 33.27976708486676,332.7085911836475 L 32.43505766801536,333.21942852810025 L 32.07367669604719,333.6342580607161 L 31.12337856180966,335.166400146205 L 30.106158066540956,335.7110669147223 L 27.185366997495294,336.4073015716858 L 25.907892677932978,336.5063150054775 L 25.186617916449904,336.0576471895911 L 24.951645905151963,335.63679709099233 L 24.261601597070694,335.88745401985943 L 23.83924687281251,335.6677429708652 L 22.97074282169342,334.7702476195991 L 22.32977490313351,334.4885919219814 L 21.84942078962922,334.556685725227 L 19.800108106806874,336.19998684199527 L 18.52114663273096,336.4691851637326 L 5.431124772876501,336.37635952048004 L 5.249690668657422,347.3013959014788 L 5.722608992829919,347.54230417171493 L 5.240767698734999,348.6571537172422 L 4.419852916151285,349.53406750550494 L 4.357391981408,349.94777911901474 L 5.151537828147411,351.9387635635212 L 4.544774694368243,353.1608173768036 L 4.47041648812592,355.1044973679818 L 4.146214634180069,356.27041368652135 L 3.482939263805747,357.1925051966682 L 2.1325939167290926,357.96338028274477 L 1.4187549445778131,359.38462501205504 L 0.34502218291163445,363.1103985933587 L 0.017845995724201202,366.8309004777111 L 3.0100209675729275,367.2619438418187 L 7.819510946050286,369.67524985410273 L 17.3224920630455,373.17970090173185 L 34.44867838546634,377.1864176010713 L 36.917371459305286,378.1085666520521 L 41.57219632714987,380.57621338032186 L 52.360087582841516,384.1669379347004 L 54.53283489495516,385.1740795751102 L 57.945877408608794,385.9416155288927 L 86.01462012343109,395.59278431069106 L 88.24536685459316,394.2008735234849 L 88.56362004205585,393.3576169228181 L 88.41787793114781,391.8824319909327 L 88.54279976896942,391.348709825892 L 89.503507995978,389.88228994142264 L 90.37796074338257,389.31772508472204 L 91.3639508150518,387.67592116445303 L 92.81988484971225,384.70430385973305 L 93.71515787020326,383.7001618803479 L 94.92868410609663,383.1504294886254 L 95.31237252987921,382.81258246162906 L 95.89236669428647,381.70370853319764 L 97.32599327713251,380.81893299892545 L 98.15285672619939,378.83697242848575 L 98.7387995570898,378.1331554846838 L 99.24443545751274,377.97639992134646 L 99.52699670754373,378.17925937846303 L 99.62217524461448,379.7373790862039 L 99.86755740456283,380.6007929635234 L 100.30329658277333,381.2705520237796 L 100.91303401999176,381.46409354172647 L 102.46117225848138,380.2658878774382 L 103.27316407300532,380.18292710836977 L 104.09110455214977,380.4840390216559 L 105.7626774199307,381.5101740518585 L 106.55087462812662,381.71292430208996 L 110.42047665081918,381.30127329193056 L 110.64652563259006,381.4518053731881 L 111.19082786142826,382.50543379737064 L 112.11286981776357,382.8985815187916 L 114.20977177098393,382.9569374062121 L 117.05620463192463,383.9826881592162 L 117.963374953717,384.0041841985658 L 118.86162230744958,384.5047158547677 L 119.66766548343003,384.0717428228818 L 120.2922745551914,383.1688570063561 L 121.2321625109762,381.23061418160796 L 123.40044836513698,378.9076572894119 L 123.87039232812822,377.96410522190854 L 123.90608426555991,376.97123077046126 L 123.51644717529416,375.2002805597149 L 124.58125696890056,372.34606651589274 L 124.81920331157744,368.71188345365226 L 124.98874005675316,368.11778659792617 L 125.7709885686636,366.7416093144566 L 125.71745066344738,366.2397079439834 L 124.75079374201596,364.56128399213776 L 125.07202126085758,363.42771192919463 L 124.80730595067143,363.1011562370695 L 124.73889640904963,362.59280490642413 L 125.33673654310405,358.19462425028905 L 125.22371203824878,357.4145269826986 L 124.69428147375584,356.64050023956224 L 123.5789081081748,355.90030516311526 L 123.25173189491034,355.4623150047846 L 122.78476226329803,353.9661301006563 L 122.20476809889078,353.60822626342997 L 121.63964559882879,352.6917747715488 L 121.12211233749986,352.4232935975306 L 120.76221854798496,351.9233320564963 L 121.02098516374826,349.11415257817134 L 120.92878098785877,347.92526704864576 L 120.58673313632607,346.97708130069077 L 118.79618706926703,344.4653763496317 L 117.40122678689659,343.85969343874604 L 116.07170174084604,342.57396216038615 L 115.76237152330577,341.82279577851295 L 115.61662938445807,340.77780835563317 L 115.6701673194766,339.7109925337136 L 115.98247187025845,338.879054303281 L 117.71650567092001,337.8459298624657 L 120.60160477273166,334.62477875035256 L 120.72950094379485,333.7828466896899 L 120.16140408068895,331.84780824091285 L 120.0454052425921,330.82895029429346 L 121.2321625109762,328.2082229340449 L 121.79431070759892,327.62877950211987 L 124.06074940413237,327.4025641363114 L 124.70320444367826,326.7331636217423 L 125.50924762152135,324.6562958229333 L 126.1784716565162,323.83464453555644 L 127.30276799201965,322.9105360484682 L 127.8084039222449,321.7443375531584 L 130.02725335024297,320.54998205509037 L 131.20508764870465,318.73160716937855 L 132.54353566281497,317.5893999650143 L 133.266297634691,316.06817460944876 L 134.67315524816513,315.2484087324701 L 135.0181774031371,314.19247698271647 L 135.85098951868713,313.9253575229086 L 136.24360094219446,313.63648171629757 L 137.01990081742406,312.6517093712464 L 137.8675845693797,311.9743856410496 L 138.6884993519634,311.83766830852255 L 140.49391705542803,311.89359852392226 L 141.1423207912594,311.4088518861681 L 141.40703607164323,310.476530702319 L 141.33862650208175,308.4186670142226 L 141.00252731703222,307.5946903093718 L 139.0156755670905,306.2574158105999 L 138.78962655551732,305.3180241123773 L 139.72654017806053,303.8681913642213 L 139.63731033541262,303.0933418232016 L 140.077510997653,302.66386105678976 L 141.59144448116422,302.42420888738707 L 144.4943895805627,302.3246101583354 L 146.1391935106367,302.5051315277815 L 146.58831717073917,303.76239490974694 L 146.33252488821745,305.98992284713313 L 146.78462291136384,306.9323125281371 L 146.6121118068695,307.1904314253479 L 145.6811468489468,307.7470573321916 L 145.5354047100991,308.07665354851633 L 145.94288777001202,308.50261264294386 L 145.9458621032536,310.27761571481824 L 146.66564971208572,310.89298634650186 L 146.5199076011777,311.6419082903303 L 145.94288777001202,312.81326095806435 L 145.74360775388777,315.39746579900384 L 144.961359212175,316.31967022968456 L 144.54792748764157,316.54321264848113 L 144.15531606413424,317.1579095227644 L 142.7544070854783,317.6576904496178 L 142.00785053893924,318.96126284683123 L 141.5349322129041,320.29556806525216 L 143.9084467496723,321.89943062281236 L 144.3040325064212,322.31816126639023 L 144.6074140574783,324.603589606937 L 145.39858559891582,325.7320193145424 L 144.98812817782164,326.89122340781614 L 145.18443389050663,328.2794874077663 L 145.71386445313692,329.4041129378602 L 146.51395896449685,330.3612698423676 L 148.5186567120254,332.1915171351284 L 149.05998454988003,332.56307192053646 L 150.27945945039392,332.7023989679292 L 151.34724354743958,332.2162881800905 L 151.80231590382755,331.48240215471014 L 152.54589814692736,331.28110951790586 L 152.96230420470238,332.19770991336554 L 153.6582971792668,332.26892631081864 L 156.40360283851624,333.10178503068164 L 157.51005323417485,333.03986647631973 L 159.8984394352883,334.65263477060944 L 160.33269143290818,335.14783109072596 L 160.6360730137676,336.26496685342863 L 160.4635619353503,337.65103916684166 L 160.95432619936764,339.5316252494231 L 161.92693178914487,353.8365466198884 L 160.31484549306333,360.46036413963884 L 160.3059224653989,361.15687644667923 L 160.4962795395404,361.90261394530535 L 163.76209276355803,369.64755123713985 L 162.77164120599627,369.6875602956861 L 162.58128415979445,369.9522293624468 L 162.28682557865977,376.17805221350864 L 162.12026316672564,376.6853286763653 L 160.38325503468513,378.54500515572727 L 152.78384446166456,388.2068662964739 L 150.85350495018065,391.94070942653343 L 140.15781790018082,404.77108550583944 L 134.69992418773472,409.7901171213016 L 133.79870250076056,410.34994514100254 L 131.85051702149212,410.8546699867584 L 128.16829773969948,410.790434285067 L 127.39497219771147,411.0443148375489 L 126.55621141567826,412.71725177858025 L 125.59847749210894,413.82417044974864 L 124.65264087170362,415.973302972503 L 124.58125696890056,418.39679883932695 L 124.7686396818608,420.9004245987162 L 123.18927101790905,434.82808436173946 L 119.14715789072216,449.20772673515603 L 119.28397702984512,450.5343827740289 L 119.8966888282448,452.02203935105354 L 125.18504573963583,460.0517700696364 L 126.35395703837276,462.94123118091375 L 126.62759531848133,465.2891091266647 L 126.43128960765898,467.09891350753605 L 126.70790219120681,467.4753997270018 L 127.70132808201015,467.7182849231176 L 149.92551429755986,467.5270134420134 L 150.16643494553864,467.1778555903584 L 150.43412455916405,467.0898047136143 L 151.2669366747141,467.06855094991624 L 152.0908258203417,467.356990609318 L 152.70651189424098,466.570589132607 L 153.03368810750544,466.4643128858879 L 153.06938004493713,466.9683537334204 L 154.32157255150378,466.6859732242301 L 154.9967452250421,467.06855094991624 L 156.8705724980682,467.66060035070404 L 157.31374752148986,468.6715400503017 L 157.97999719716609,469.2907932247035 L 157.75692254677415,469.9342816155404 L 158.28635308146477,470.2499368712306 L 159.7318769954145,470.51398538285866 L 161.51944870129228,472.31657497771084 L 162.69728299975395,472.0981000843458 L 163.69665752537549,471.6975478786044 L 164.782287620008,471.70968612330034 L 165.16597604379058,471.5185069423169 L 165.6626890040934,470.91459465632215 L 165.38905072398484,470.2590421149507 L 165.64781733974814,469.70360284578055 L 166.18617090210319,469.41828074585646 L 167.1558021567762,469.6095083686523 L 168.80655472166836,468.68975406559184 L 170.0022349897772,468.28903692401946 L 170.62684408947825,467.74864507932216 L 171.35258036479354,467.46325529227033 L 171.77196075581014,465.6626417990774 L 171.58755234628916,465.2222966020927 L 171.6738078854978,464.6179220834747 L 171.93257450126112,464.0863999151625 L 172.26272501982749,463.85555660538375 L 173.44948228821158,464.05906354403123 L 174.53808668628335,463.63989442400634 L 176.91160125099123,464.12284824764356 L 177.39641688019037,464.459987686947 L 180.7574086394161,464.459987686947 L 180.98345762304962,464.302050227765 L 181.15596869960427,463.61255655111745 L 182.22077849321067,463.03540234826505 L 182.71749142371118,462.98072243947536 L 184.5229091271758,463.2723443219438 L 185.718589393422,463.5062417606823 L 186.36401876620948,464.05906354403123 L 187.75600474514067,464.6422193837352 L 190.1176219508052,467.61505960160866 L 190.60541191138327,467.7790051228367 L 191.4471470247954,467.5968432370573 L 192.16098596900702,467.1323121646419 L 192.58631499670446,467.0503333439119 L 195.2483394779265,467.29019495798275 L 196.22689370252192,467.87008452322334 L 196.57191585749388,466.96531743137166 L 197.35416439920664,465.9814976602793 L 198.35948759131134,465.13118773000315 L 199.3707594498992,464.6422193837352 L 203.07082472741604,463.9466797458008 L 204.10291685909033,464.05906354403123 L 205.10229141451418,464.459987686947 L 206.18197284266353,463.63989442400634 L 207.60667642578483,463.2358921742998 L 208.81127966195345,463.3270222363062 L 209.24553171731532,463.63989442400634 L 209.79280821979046,464.7029624064453 L 210.74161920323968,464.9884484442882 L 211.78263433277607,465.5411696471274 L 213.9360485225916,465.7810754333623 L 215.75336352922022,467.12016719253734 L 217.8472911193967,468.04616858204827 L 218.80502507276833,468.78993025561795 L 219.03999708220363,469.1815166063607 L 218.69794923253357,470.29546307912096 L 218.84964000806212,470.954047546722 L 219.53968434594572,472.18913199100643 L 219.49804374203086,472.71709741838276 L 219.76870766095817,473.0751239298843 L 220.2862409222871,474.83165905438364 L 220.48254660516977,475.08646260295063 L 222.29093864187598,476.11773134721443 L 223.9387169033289,476.30577266588807 L 224.4651731327176,476.6606133277528 L 226.10997709073126,476.9426555116661 L 226.98442980833352,476.9244595305063 L 227.21940181963146,477.12461322452873 L 228.87610302120447,476.1237972974777 L 230.12829552777112,476.5271707265638 L 231.45782060176134,476.3179042036645 L 232.4899127613753,475.5990796419792 L 234.07820445112884,473.9215832496993 L 235.0983993075788,473.39672788977623 L 237.37970961257815,472.8202591924928 L 238.23929069377482,472.31657497771084 L 238.95610399916768,473.208621410653 L 241.79063950106502,475.14106236817315 L 242.90006422810256,476.3573316177353 L 244.65194402635098,476.9244595305063 L 245.93685413710773,476.7273338371888 L 246.46331036649644,477.0063411509618 L 247.60842703282833,478.1040849722922 L 248.58995559066534,478.49826767109334 L 249.86594272963703,479.52912049833685 L 250.8385483175516,479.75346600310877 L 254.60107450000942,479.7504343423061 L 255.597474694252,479.94748982740566 L 256.4838247448206,480.3506814260036 L 257.16197174973786,480.2142653465271 L 258.9406204856932,479.34721437096596 L 259.7050230316818,479.33811895083636 L 261.0999833419919,479.9262686907314 L 267.19735776260495,484.7209096988663 L 267.6910963896662,484.8845228655264 L 269.90994581766427,485.05116275977343 L 274.73728176392615,486.1145526920445 L 275.46599237062037,486.4235475859605 L 278.3481171410531,488.4196326001547 L 281.8637740109116,489.98225825373083 L 285.4627120848745,492.8100265250541 L 286.265780929476,493.1097048516385 L 288.844524146989,495.84569500619546 L 289.9331285748631,496.6626977920532 L 291.79803282022476,497.31624644901603 L 292.8301250077784,498.0605079722591 L 293.74621835909784,498.98318594833836 L 294.20188766531646,499.8309021447785 L 294.69370585121214,500.0 L 295.13868421688676,499.8952073431574 L 295.31199156306684,499.599876049906 L 295.00753269158304,499.21402550209314 L 295.55087467096746,499.0901687806472 L 296.3213898334652,499.74516120087355 L 296.7968140654266,499.4307707315311 L 296.9420175291598,498.8162487996742 L 295.99116903729737,497.61566671030596 L 296.20897424966097,497.15111285820603 L 297.7757664397359,496.6150593641214 L 298.25821665488183,494.7064486811869 L 298.67040713876486,494.4705246957019 L 299.79924695007503,494.3251542635262 L 300.2418833281845,494.1059025861323 L 300.47842445224524,493.6197165362537 L 300.059207983315,493.49101579142734 L 298.95613007061183,493.5982665363699 L 298.02870151773095,493.33371233427897 L 295.59771449305117,491.41724623786286 L 295.79444178007543,490.39686840213835 L 296.1808703392744,490.73541805241257 L 296.38462358154356,491.1979226497933 L 296.9396755453199,490.723497511819 L 298.95613007061183,489.7078080456704 L 299.4807361382991,489.1093069468625 L 298.94207812845707,488.55130496108904 L 297.36357595585287,487.7977073425427 L 296.8413119018078,487.3207132439129 L 296.25815605558455,486.56700932141393 L 295.9068573638797,485.74406178155914 L 296.20897424966097,484.65860576415434 L 295.9724331256002,483.646981257014 L 296.20663226395845,483.35587865067646 L 296.53451104462147,483.4370065960102 L 296.91157163493335,484.16712374892086 L 297.18558463826776,484.3556080358103 L 297.9209699034691,484.03828403912485 L 297.911601934582,483.20316512696445 L 297.5158054046333,482.26773576810956 L 295.99116903729737,480.3536056098528 L 296.20663226395845,478.94995575537905 L 295.85064957104623,478.4414336080663 L 293.93490064516664,477.03030389966443 L 293.0613378994167,475.3299496108666 L 291.66785305552185,475.146042403765 L 292.43602620251477,473.9254651973024 L 292.6514894012362,474.52741587441415 L 293.53910411708057,473.8418574924581 L 294.20188766531646,472.9412303180434 L 295.0356365740299,473.1466869781725 L 295.19489200785756,472.21970290178433 L 294.8108054064214,470.09776298096403 L 294.5086885485798,469.1847793268971 L 293.93490064516664,468.38643343467265 L 293.813117120415,467.92029750114307 L 294.8108054064214,466.68909347755834 L 293.93490064516664,465.3668373692781 L 294.33772316016257,464.5944259921089 L 294.5508443713188,463.0637349979952 L 295.17615606822073,462.39396692905575 L 295.26515174098313,460.77672681119293 L 295.4290911182761,460.27187097026035 L 295.79444178007543,459.8124485597946 L 296.1972642932087,459.9823422031477 L 296.60008680820465,459.8124485597946 L 295.8178616911173,459.01557549927384 L 295.621134404093,458.1611822070554 L 296.20663226395845,456.41621300252154 L 297.0801950097084,455.17128252238035 L 297.0801950097084,454.9007237176411 L 296.4642512835562,454.13209479535 L 295.99116903729737,451.3538710116409 L 296.1035846211016,450.831646963954 L 296.7968140654266,449.5474985432811 L 296.73592230305076,449.0587000288069 L 296.1878963243216,447.93722295342013 L 295.79444178007543,447.7167426412925 L 294.9747448116541,448.01630676491186 L 294.6843378804624,447.93722295342013 L 294.6140781491995,447.3189036184922 L 295.32370151765645,447.4818762745708 L 295.9560391716659,447.00732871424407 L 296.4127274919301,446.230733665172 L 296.60008680820465,445.48762227455154 L 296.20663226395845,444.35124265775084 L 296.29328592307866,443.8812983026728 L 296.5462210010737,443.6415197113529 L 296.9420175291598,443.5743803912774 L 297.7757664397359,443.6798848072067 L 297.5228313896805,443.12597043439746 L 296.6281906887889,442.7830510213971 L 295.452511029318,440.8163634231314 L 295.3916192650795,440.32221352122724 L 296.0989006496966,439.7224739789963 L 297.6563248988241,439.607318576891 L 297.80387035012245,439.4681701408699 L 297.8834980521351,437.0206596017815 L 299.3027447927743,436.31985389161855 L 299.46200019679964,436.07503651455045 L 299.260588940233,435.7101959059946 L 298.97486601024866,435.6669899164699 L 298.483047824353,436.23104850715026 L 298.16922098211944,436.23104850715026 L 297.97717769630253,435.9430238683708 L 298.26758462563157,434.269862618763 L 299.15285735577345,434.4019046621397 L 299.6025196928531,433.32869544113055 L 300.08965387940407,433.0741758234799 L 300.244225313887,432.82445002533495 L 300.244225313887,432.5002742893994 L 300.1364937014878,432.16888008033857 L 299.672779424116,431.6933757159859 L 299.05449371412396,431.55648246221244 L 298.43620800226927,431.7221950413659 L 297.9724937248975,432.16888008033857 L 298.16922098211944,431.3619456146844 L 297.747662557289,431.0953498291783 L 296.9396755453199,431.1674036802724 L 296.7968140654266,430.94643630599603 L 297.58606513775885,430.12255434226245 L 297.15045477077365,428.7604261576198 L 296.7218703329563,428.27749507455155 L 296.38462358154356,428.5225685168989 L 296.314363848418,428.9670437457971 L 295.5602426417172,429.10638722684234 L 294.145679872483,428.2486623544246 L 293.65854568593204,427.7608920172788 L 293.4547924436629,427.31153806019574 L 293.6515197008848,426.4319744454697 L 295.10589633509517,425.09800887387246 L 295.54150670208037,424.953781849239 L 295.99116903729737,425.1124314139597 L 296.3752556387335,425.6316242138855 L 295.79444178007543,426.9294454790652 L 296.02395691908896,427.1361143742688 L 296.4642512835562,427.15293599199504 L 297.6914547663182,426.7131578531116 L 298.5860954374075,426.8429311802611 L 298.7594028133899,426.31901738606393 L 298.5978053919971,425.36241773562506 L 297.9092599488795,423.65080196550116 L 297.7757664397359,422.67461658269167 L 298.16922098211944,420.6352645866573 L 297.9724937248975,418.4100800245069 L 297.81089630536735,417.8326225797646 L 297.0403811726719,417.1973657961935 L 296.7968140654266,416.78586263395846 L 296.87175779789686,416.4320954475552 L 297.9724937248975,417.1853338768706 L 297.9724937248975,414.76410008594394 L 298.56267552636564,414.9470450025983 L 298.4502599425614,414.2730142320506 L 297.5790391806513,413.32926394976676 L 297.36357595585287,412.83567117806524 L 297.3050261773169,411.56661898223683 L 297.13406081683934,410.9500712719746 L 296.7968140654266,410.5044857603498 L 298.16453701257706,409.0856502368115 L 298.7594028133899,408.8880986790173 L 298.79453267902136,408.69536008965224 L 297.4736495539546,407.3605002127588 L 297.15279675647616,406.7797327018343 L 297.2464764006436,406.1145620890893 L 298.17624696716666,403.8727591857314 L 298.62590930238366,400.35431992542 L 298.9982859212905,399.5582624054514 L 299.0755716394633,398.90928668761626 L 299.71493527665734,398.2264690278098 L 299.93976644426584,397.7076751398854 L 300.35195689834654,395.05759231746197 L 300.21143743395805,394.26333208661526 L 299.8835586514324,393.9060053797439 L 298.7594028133899,393.4713934599422 L 299.3706625401974,392.993288168218 L 299.5182079896331,392.6407242557034 L 299.45731622725725,392.2301814337261 L 299.1739352811128,391.8920686314814 L 297.9724937248975,391.6312271654606 L 297.1293768454343,391.1240065982565 L 297.747662557289,390.0152342892252 L 297.5790391806513,389.1768906977959 L 297.9724937248975,389.30494418833405 L 298.29568850807846,389.8726991103031 L 298.5533075556159,389.8871943447739 L 298.75003484264016,389.63593904674053 L 298.61419934779406,389.03675388917327 L 298.95613007061183,388.77580166189 L 298.3472123295069,388.36985579831526 L 298.65167119912803,388.19103851588443 L 298.9514460992068,388.1958714663051 L 299.54631190001965,388.57283182023093 L 299.5392859149724,389.4378272895701 L 300.25359328463674,389.993491825182 L 301.6681560240686,390.58776043215767 L 302.3707534391433,389.9282640409656 L 302.53000884503126,389.4813157450408 L 302.46911708265543,388.58008083095774 L 302.61900451779366,388.2466173819266 L 303.10145473480225,387.96388531988487 L 302.7829439230263,387.53855650452897 L 302.644766414538,386.97785437712446 L 302.70800019055605,385.914324387908 L 301.33090927265584,385.10689498716965 L 300.93277075886726,385.22777387779206 L 300.3824027944356,385.80796202411875 L 299.93976644426584,385.914324387908 L 300.52526427432895,382.66950635658577 L 300.0147101469338,382.83638001047075 L 299.7500651422888,382.64773991238326 L 299.7781690247357,382.3139788308181 L 300.1364937014878,382.04550659796223 L 299.54631190001965,381.4359615142457 L 299.93976644426584,381.02956679370254 L 299.7430391572416,379.18596110353246 L 300.35195689834654,379.7594214566052 L 300.7758573386818,380.44895938178524 L 301.56276642531157,382.9500451735221 L 301.7899395786226,383.17736963927746 L 303.5230131596327,384.01888582110405 L 303.8836798220873,384.0914253089577 L 304.6940088495612,383.81093486584723 L 305.46920798160136,383.1120751062408 L 305.8767144661397,382.21481469785795 L 305.5745975803584,381.3343651769683 L 305.19987897761166,381.08278655959293 L 303.8836798220873,380.7174966749735 L 303.501935262233,380.38121850648895 L 303.5300391446799,380.1199257392436 L 304.2771343663335,379.9941144362092 L 305.11556727439165,380.6473393412307 L 305.47623393684626,380.41992765059695 L 305.6237793881446,380.0062117828056 L 305.5792815517634,379.4981039776467 L 304.97973177954555,377.799286251422 L 305.2795066796243,376.97149718925357 L 305.86968848109245,376.3396927928552 L 306.0336278863251,375.06137224892154 L 305.5792815517634,373.1531074568629 L 305.87437248043716,372.61539831059054 L 305.8064547330141,372.2859687767923 L 304.2958703059703,371.58103003771976 L 302.53000884503126,369.64750293735415 L 302.0545846130699,369.397895028349 L 301.0287924166769,369.2112885876559 L 300.7875672932714,369.39304815931246 L 300.46671449765563,370.2944996631704 L 300.1364937014878,370.63372283941135 L 300.44095257110894,369.0052881478332 L 300.9374547302723,368.60053859557956 L 303.10145473480225,368.60053859557956 L 303.7056885045022,367.45886153448373 L 303.9024157617241,366.346075437963 L 303.47383135184646,366.70732794096693 L 302.53000884503126,366.54731257166713 L 300.9374547302723,366.9740112912841 L 300.6798356808722,366.430935239885 L 301.042844356969,365.57501160912216 L 302.11781836114824,364.10536691872403 L 299.5369439292699,363.3558625639416 L 298.95613007061183,362.4607070782222 L 297.37762792408466,362.7930695512332 L 296.9748054109514,362.68147535342723 L 296.82491797581315,362.37336803460494 L 296.38462358154356,360.8520193998702 L 297.41041580587626,360.6918560634367 L 298.3472123295069,360.221049353946 L 298.59546340815723,361.12137580802664 L 299.1739352811128,361.4707939927466 L 299.916346533224,361.3713088296354 L 300.6353378724307,360.94423280423507 L 301.0311344023794,360.2841491946019 L 301.24659759923816,359.3327303077094 L 301.1271560303867,358.50012047495693 L 300.52526427432895,358.1820974405855 L 300.8906149081886,357.7305255061947 L 300.820355175063,357.35661870148033 L 299.7430391572416,356.1691947723739 L 299.57441578246653,355.2511537796818 L 298.56267552636564,354.0924800899811 L 298.5579915549606,353.385510021355 L 298.11301319114864,352.31396860070527 L 298.21137683466077,352.0029195714742 L 298.56267552636564,352.0320810698904 L 298.3729742243886,351.59950449783355 L 297.79918635077775,350.88981882482767 L 296.9794893823564,350.4401469435543 L 295.99116903729737,350.6078662346117 L 295.902173364535,349.8251370624639 L 293.88337685354054,347.92867165850475 L 292.09409548155963,344.9466290147975 L 286.36558467149734,338.93918350851163 L 285.1477491892874,338.2207133299671 L 284.7870825268328,337.2439431156963 L 283.498987281695,336.73722651042044 L 283.37954574264586,336.46436136355624 L 283.70274052396417,336.1281353859231 L 284.32102623581886,336.4741067667492 L 285.34447644650936,337.5045931194909 L 285.50841585174203,336.8176219109446 L 284.9463379327208,335.806510257069 L 284.6442210469395,334.49546490749344 L 283.37954574264586,333.17438025958836 L 282.1851301416755,330.8727486729622 L 281.40993100963533,329.75086656818166 L 280.4145847093314,329.267903869506 L 278.57143753021955,329.2337534916587 L 278.03980550542474,329.08007435919717 L 276.25755008868873,328.1164391990751 L 275.3956972695887,327.3673782944679 L 275.37227735854685,326.97939064819366 L 275.8921994268894,326.828092915006 L 275.8921994268894,325.37836510594934 L 276.1029786542058,324.75833823205903 L 276.4683293160051,324.22613673564047 L 277.4847535416484,323.5327372131869 L 275.6954721696675,322.5120201939717 L 275.48235095851123,323.33251493936405 L 274.92261502332985,323.12740210583434 L 274.32306525297463,323.12740210583434 L 274.8945111427456,322.5120201939717 L 273.8312470652163,322.0504410676658 L 273.5221042241901,321.6914097201079 L 273.5689440462738,321.207781417761 L 273.4307665657252,320.97328045777977 L 272.3745284732431,320.04251125408337 L 271.1965068280697,319.3754901131615 L 270.33933800831437,318.6668485808186 L 269.18005227297544,318.2905001086183 L 268.17767998948693,317.34707726351917 L 263.1025847867131,314.70173543551937 L 258.7324289549142,311.90348307369277 L 258.2476367522031,311.48264815146104 L 257.49819951690733,310.374137529172 L 257.09537700377405,310.1098249554634 L 256.56842897832394,310.374137529172 L 256.5614029932767,309.76473165350035 L 256.2452341672033,309.35352928191423 L 255.1749441344291,308.9349534106441 L 255.68081426247954,308.7513577295467 L 256.3717016931623,308.88354720408097 L 256.1960523314774,307.7598382406868 L 255.45598309487104,306.8856879505329 L 254.9969527889043,306.65794592536986 L 253.9617926236242,306.54039805196226 L 252.0015458613634,306.5110106859356 L 250.33639002777636,305.3794811684638 L 249.26844198070467,305.02675016084686 L 244.7437147423625,304.60295379627496 L 244.30810434743762,304.7695365198888 L 243.6265848595649,305.4897050638683 L 243.15116062760353,305.6293189176358 L 243.78349827975035,304.7695365198888 L 243.26123422570527,304.13012592308223 L 242.20031213387847,303.7209629272111 L 241.20964980497956,303.5567993298173 L 241.33377534337342,304.10807597916573 L 239.98947233706713,302.73345864610747 L 239.53981000185013,302.7408104487695 L 238.81379267573357,303.2480607526377 L 238.4718619529158,302.82903117733076 L 238.61706541851163,302.3217429234646 L 230.48567149601877,299.0637075882405 L 229.04768881574273,297.7393561624922 L 228.56055462919176,297.76143127819523 L 228.03594856150448,298.45307364314795 L 227.99379273876548,300.4833564548753 L 227.57691828347743,301.0717059611343 L 227.773645542562,300.45393733587116 L 227.43171481974423,300.31909780343994 L 226.398896638304,300.65741631854326 L 227.47387064248323,299.33589629037306 L 227.80409143678844,298.6713400776498 L 227.18346374109387,298.1710312976502 L 227.75490960106254,297.77614796347916 L 227.08744208328426,297.25368144223467 L 225.22087499313056,296.52508962061256 L 221.4502689614892,295.7007084717043 L 219.86239881627262,294.8467554920353 L 216.14331657812,292.28655791003257 L 215.85290967673063,292.2374533158727 L 215.93019539304078,292.6302778078243 L 215.21120405383408,292.3258412629366 L 213.00036422722042,290.6118430462666 L 212.0026759132743,290.75919917598367 L 211.29305254295468,289.95360383205116 L 207.59504822827876,287.74743311619386 L 206.39126468636096,286.65630159154534 L 205.97439023293555,286.5481595271267 L 205.67929933220148,286.8037645984441 L 204.90644218586385,285.86484850756824 L 203.7307625245303,285.7542325351387 L 203.43801360949874,285.57724227244034 L 203.00240324437618,284.677452464588 L 202.26467596367002,284.19061861606315 L 201.4075071439147,283.9324313928373 L 200.74706558138132,284.1242288122885 L 200.6205980554223,283.0077741481364 L 199.80090108700097,281.96242572320625 L 197.78210454806685,280.18363747093827 L 195.68368030525744,276.6612265370786 L 194.83587945438921,275.8486012448557 L 194.63915219716728,276.6735380887985 L 194.44242491200566,276.4667002176866 L 193.9318708125502,277.1462802551687 L 192.84987079538405,277.88977970182896 L 192.65782750956714,279.1500461678952 L 192.06998769380152,279.82190314121544 L 191.24092275463045,280.11719828797504 L 190.48211757838726,279.92525829654187 L 190.10271497443318,279.1500461678952 L 191.0278015434742,279.76530307438225 L 191.65545522421598,279.278025414329 L 192.0559357535094,278.26395224034786 L 192.41894440166652,276.17366622481495 L 192.63206561282277,275.7870336850174 L 193.59462406113744,275.55060762446374 L 194.63915219716728,274.8141717338003 L 193.75856343843043,273.14141848124564 L 192.61801367253065,271.8427620208822 L 192.0535937678069,270.499414073769 L 190.29944226145744,270.84945686301216 L 189.86148988083005,270.5635081403889 L 189.1190786305815,269.1951770479791 L 190.9060179889202,270.2282382058911 L 190.56642925180495,269.5921528721228 L 188.56871066614985,267.1309133823961 L 187.39771497622132,266.1391865690239 L 184.69505699165165,262.9629166070372 L 183.35075395554304,261.7111278427765 L 182.40224747732282,261.4962935904041 L 182.00879293307662,259.83658481622115 L 181.2242258321494,260.2515617548488 L 181.420953117311,259.44380816817284 L 180.1258319169283,259.3598143379204 L 180.315533189103,258.75205368129537 L 179.65509165637195,257.7636725506745 L 178.5309358164668,255.34133879700676 L 178.0812734812498,254.6539795147255 L 178.0742474962026,255.32155994698405 L 177.91967606171966,255.41056411154568 L 177.57540335319936,255.03970321221277 L 177.2334726024419,253.72911369614303 L 177.46767174080014,253.6450267266482 L 177.73700074478984,253.77115664910525 L 177.6878189370036,254.01104232296348 L 178.0812734812498,253.80330693162978 L 178.11874533258379,253.41501706605777 L 178.4934639353305,252.71997902635485 L 178.24287087284029,252.4206631425768 L 176.84470205754042,251.83434905996546 L 175.0179488044232,252.56166534265503 L 174.35048128664494,253.22209780849516 L 173.36918689869344,255.17816108837724 L 173.33171504549682,254.23855237150565 L 173.95702674239874,252.13122533494607 L 174.11862413398921,251.04012029897422 L 173.72048562020063,250.04777940362692 L 174.1560959853232,249.8250329690054 L 174.31066741980612,249.33248132513836 L 174.19825183600187,249.19634054182097 L 173.54717824421823,249.429015296977 L 170.73913066089153,248.9042444503866 L 170.31054622121155,249.33495657192543 L 170.17002675682306,251.0871341614984 L 170.34567611664534,251.83434905996546 L 170.07868909835815,251.93825772311538 L 169.64073671773076,251.77991989208385 L 168.7741999272257,250.80999358789995 L 167.3971090093255,248.74581241142005 L 166.79053325392306,248.28534134523943 L 165.84671074524522,248.16155170556158 L 166.02001812122762,248.78046983946115 L 165.90760253742337,249.10970362229273 L 165.62187957763672,249.13198183383793 L 165.27292287163436,248.8052249965258 L 164.81155057996511,247.29989219876006 L 164.47196184284985,246.93834780529141 L 163.85367613099515,246.79471343988553 L 163.2471003755927,247.41379808820784 L 162.87706574238837,247.57722384715453 L 162.3524596747011,247.3568454477936 L 162.11123458109796,246.82195474440232 L 162.20725623890758,246.5247688726522 L 162.87706574238837,246.71051209466532 L 162.70141641050577,246.22756558004767 L 158.55609174631536,243.36609102366492 L 157.55840343236923,242.13676927844062 L 157.1953947842121,242.2284830790013 L 156.7972562406212,241.82691302755848 L 156.18131254427135,240.67903911322355 L 156.9682216309011,240.88731215475127 L 156.9682216309011,240.67903911322355 L 155.40845539607108,239.61026400420815 L 154.00326059758663,238.18156823748723 L 154.59344239905477,238.18156823748723 L 153.06880605965853,236.27352354163304 L 152.27721297368407,235.96330427844077 L 151.9305982515216,235.13678583595902 L 150.44811776466668,233.14811114314944 L 147.51828659698367,230.00333431037143 L 144.14113507978618,227.27176420763135 L 141.3869532737881,224.372003715951 L 139.66793166287243,223.73014363180846 L 138.09879745915532,222.09525836398825 L 137.22757666930556,221.42571788979694 L 136.9652736503631,221.74432113021612 L 135.8551697526127,220.57185794971883 L 134.28603557683527,219.52860096050426 L 133.13377582654357,220.10876912856475 L 132.6466416399926,221.87374774273485 L 130.97445982135832,223.3071664958261 L 129.2718321364373,224.0485963858664 L 128.13596634194255,225.76987259136513 L 127.46147283911705,226.24237151816487 L 126.9954165481031,227.70682908967137 L 125.7518191691488,228.25619889935479 L 125.32323475927114,228.31585527630523 L 124.88059837929904,228.1219694139436 L 124.57848149351776,227.27176420763135 L 124.22484081611037,227.08280973508954 L 124.22484081611037,226.85655205789953 L 124.67450315132737,226.88638884667307 L 125.2225291300565,227.37618330307305 L 125.70966331847012,227.4980027610436 L 126.62303992919624,227.22701248293743 L 126.89471091888845,226.86898406781256 L 127.3443732559681,225.45650609396398 L 128.87135160900652,223.21261364920065 L 130.11260703019798,222.78959163557738 L 131.33746849931777,221.00751949800178 L 131.20397498831153,220.19840268185362 L 130.76133861020207,219.35428794613108 L 130.1149490159005,218.80889679770917 L 129.37019577994943,218.90104482136667 L 129.4427974987775,218.37552859261632 L 130.35149013996124,218.7117659165524 L 130.86204423755407,218.55485807126388 L 130.96977585181594,218.30827831523493 L 130.7449446823448,217.43643108475953 L 130.97445982135832,215.5576885691844 L 130.5107455458492,214.52581319212914 L 130.7449446823448,213.77045989315957 L 130.7449446823448,212.80054190428928 L 131.31639057211578,211.20935225253925 L 131.26018278114498,210.68549085315317 L 130.73089274205267,209.81974658370018 L 129.2718321364373,210.5208368836902 L 128.0633645951748,210.226441367995 L 127.81745550222695,210.70544853806496 L 127.81745550222695,210.08173185400665 L 128.26243386790156,209.5677281585522 L 130.35149013996124,208.40477780578658 L 129.70744253136218,207.16165464138612 L 129.26949015073478,205.81332279462367 L 128.68165030702949,205.15899427048862 L 128.52707890048623,204.70940332859755 L 129.20391438901424,204.23229074571282 L 129.06807889416814,203.90253040753305 L 128.24603994004428,203.43782918248326 L 127.38652910664678,203.81509011657909 L 127.64414815604687,202.91061284346506 L 128.08444252051413,202.20590015826747 L 128.4591611251235,201.94098098110408 L 129.37019577994943,201.68104582093656 L 129.57394902221859,201.02364592254162 L 129.46855939365923,200.0961312702857 L 128.33035161532462,199.12091885553673 L 128.192174134776,198.74578331410885 L 129.20157240331173,199.27596614230424 L 129.8034641612321,199.42100574588403 L 130.2531264964491,199.2609617668204 L 130.32572824321687,198.4656625557691 L 130.53416545689106,198.1605120403692 L 130.97445982135832,198.51568533619866 L 131.20865895971656,197.87285198876634 L 132.08924769051373,197.37002989463508 L 132.9183126296848,196.56440151110291 L 133.47336459346116,194.75748839741573 L 134.29540354572237,195.36320743290707 L 134.67480611987412,195.13794919103384 L 134.64670223928988,194.65235563460737 L 133.9394208546728,194.03152329474688 L 134.06588837876916,193.4581813616678 L 134.45934292301536,193.89633111981675 L 135.0869966056198,194.08910396741703 L 136.45940352231264,193.9839561204426 L 137.5460875108838,192.9323473297991 L 137.6397671531886,191.37703333050013 L 138.20184507407248,191.54736681561917 L 138.42667624168098,190.95618264283985 L 137.83649444021285,189.99910636199638 L 138.01448575779796,189.4628568799235 L 139.23232126794755,188.19966889824718 L 138.8833645619452,187.42253668559715 L 138.82013078406453,186.5198964998126 L 139.62577581219375,187.18184988806024 L 140.03328229673207,187.2796304388903 L 140.801455443725,186.76563271787018 L 140.99818273074925,186.28919346770272 L 140.8389273248613,185.72743348171934 L 141.1949099879712,185.65720866201445 L 140.99818273074925,184.97747743595392 L 140.60472818650305,184.3779264180921 L 139.97239053435624,184.61625101603568 L 139.72413945570588,184.45067945308983 L 139.71008748561144,183.8485507024452 L 140.21127364225686,183.7657518275082 L 140.23937752470374,183.57756701437756 L 140.20658964291215,182.4633550066501 L 140.00517841614783,181.99902010848746 L 139.62811779789627,181.72792720189318 L 139.12224766984582,181.6425797860138 L 138.45478015206754,182.00404018349946 L 138.21121304295957,181.19573515234515 L 139.40562861599028,180.37724364502355 L 139.23232126794755,179.9352977834642 L 139.3330268971622,179.08895254833624 L 139.62109181284904,178.8804813963361 L 139.44778446666896,178.5162619901821 L 140.21127364225686,178.04147715866566 L 140.28621737472713,177.60935482848436 L 139.40562861599028,177.19729303196073 L 139.10585374385118,176.8203745461069 L 139.8178190998733,176.35295229544863 L 139.8178190998733,174.68642672616988 L 140.53446845337749,175.45315472362563 L 141.3916372731328,179.11155725223944 L 141.23003988340497,176.5791303399019 L 140.95602687820792,175.68440462835133 L 141.1949099879712,172.9790482800454 L 142.1012606434524,170.6092755701393 L 143.84604417905211,167.59116898383945 L 144.6446632221341,166.83569589909166 L 145.5369619373232,164.7222130065784 L 145.46670217625797,160.71165611082688 L 145.7336891964078,159.37736389227211 L 146.71264156885445,156.95998628763482 L 147.40118701383471,150.9233817504719 L 146.54167620837688,142.93926705885679 L 146.53465022332966,141.61222126428038 L 146.70327359996736,140.85227909078822 L 147.11078011244535,140.4874594239518 L 148.1084683984518,140.01618846552446 L 149.0780528318137,138.52602562587708 L 149.2677541319281,138.8555277097039 L 149.18578441627324,140.2188919405453 L 149.39656364358962,140.68000697810203 L 150.05466322042048,141.08027576189488 L 149.38251170143485,142.2099486803636 L 148.99374112859368,143.72922359406948 L 148.98671517334878,145.25302865402773 L 149.4808753170073,146.4069177992642 L 149.38016971759498,146.92050259420648 L 149.67760260216892,147.27719337586313 L 150.01484935358167,146.35884518688545 L 150.2818363737315,146.14883753890172 L 150.66123894788325,146.6447428977117 L 149.94224763661623,147.9525492703542 L 149.67760260216892,148.12706244410947 L 150.44811776466668,149.39649936603382 L 150.44109177961946,149.97799084708095 L 150.99380172789097,150.28134705126286 L 151.1811610441655,150.7161209890619 L 151.47625194489956,150.85008333297446 L 152.03598788008094,150.69084458705038 L 152.1507454495877,150.39762800838798 L 152.03598788008094,149.29536250559613 L 152.62616967968643,144.05326675297692 L 152.96341643296182,145.1214253664948 L 153.07349003106356,146.857256507501 L 153.41307876817882,148.12706244410947 L 153.60746406950057,148.12706244410947 L 153.21635151095688,144.28615782875568 L 153.34281903505325,140.94854581728578 L 151.91654631122947,136.12243256019428 L 151.82286666706204,132.22006816603243 L 152.72453332319856,125.42682916903868 L 153.21635151095688,124.19861856941134 L 153.60746406950057,125.05306367948651 L 154.10865019634366,124.82675422588363 L 154.57704847306013,124.816582725849 L 154.81124761141837,124.98440927360207 L 154.59344239905477,125.48022156907246 L 155.1812822446227,125.2056249990128 L 155.03139477968216,124.30289044324309 L 153.98686664365232,122.15080760745332 L 153.34984502010047,121.22196950903162 L 151.50903982669115,117.00781339453533 L 151.49498788453639,115.71853105025366 L 151.82286666706204,113.92408536141738 L 151.61442942544818,112.60834807669744 L 149.94224763661623,107.48678022017702 L 149.4808753170073,103.39416088629514 L 149.41529958322644,100.0572768356651 L 149.22794026695192,99.3665481377393 L 148.97266320325434,99.09022407000884 L 148.67757230252028,99.72727654594928 L 148.8321437370032,100.88599764043465 L 148.71972815319896,101.30029529798776 L 148.010104784742,101.46139975637197 L 147.5323385372758,101.3463257974945 L 147.62601818144321,101.09315169602633 L 148.1084683984518,100.79904097458348 L 148.30519568547606,99.72727654594928 L 147.9749749172479,97.8977228673175 L 147.91174114122987,95.82409189362079 L 147.51828659698367,94.74846072820947 L 147.69627794250846,93.57518656877801 L 147.3028234001249,92.2759925313294 L 147.55575844831765,92.3041845750995 L 148.89537748508155,93.90824636630714 L 148.43166320957243,94.99434432014823 L 148.38482338748872,95.57313668960705 L 148.67757230252028,96.05710791051388 L 149.09913075715303,96.1364839700982 L 150.26778440363705,95.19667487964034 L 151.15071514807642,94.93287481414154 L 151.33573245070875,95.21460243780166 L 151.55119567736983,97.42164886929095 L 151.43175410851836,98.00777509436011 L 152.6097757536918,97.71344274003059 L 152.9142346251756,97.3602159274742 L 153.0477281343192,95.96492735808715 L 153.37092294543982,95.46557971648872 L 151.71513505466282,90.01230008387938 L 151.7057670839131,88.96077816700563 L 152.03598788008094,87.96542745828629 L 151.43175410851836,87.12123938696459 L 150.93993592262268,85.90724890166894 L 146.4971783719957,79.3047313252464 L 143.23946842364967,75.72402654355392 L 142.93735153786838,74.40617520036176 L 140.801455443725,72.279187804088 L 132.33515678346157,67.73555546719581 L 127.63478018529713,65.47338537219912 L 122.850091913715,64.25276897381991 L 115.06531271338463,61.03295734664425 L 113.4633906558156,60.77463793475181 L 101.16559417359531,56.194378421176225 L 97.02261149510741,53.98503475589678 L 93.55412231944501,52.75822796439752 L 89.3221439961344,50.40705553069711 L 88.15817429125309,50.096220816485584 L 88.15817429125309,50.313807729166 L 89.10433881357312,50.84995177062228 L 89.75072840601206,51.63460810948163 L 89.3666418325156,51.51031673466787 L 88.19798815622926,50.92505778791383 L 87.59375438652933,50.36561235925183 L 86.35718296281993,50.08067843178287 L 86.5539102498442,49.4200688470155 L 87.14409205131233,49.68173558730632 L 86.72253362461925,48.97700841538608 L 84.58663753047585,47.8989410251379 L 76.51847738586366,42.22373635042459 L 74.20458994433284,39.15437659760937 L 73.54883238114417,37.8240727847442 L 73.0242263134569,35.775742523837835 L 72.6214038003236,35.08925277739763 L 72.83218302763999,33.502569874282926 L 72.69634753279388,33.21897786715999 L 72.54646009765565,33.91881330544129 L 72.36846875026822,33.91881330544129 L 71.67055533640087,33.27361650438979 L 71.17405317910016,31.29831818724051 L 69.44566356949508,29.439188938587904 L 68.4245553445071,28.63953353697434 L 68.08262462168932,28.61348327761516 L 66.76174149662256,29.236035253386945 L 66.26992330886424,29.249058253131807 L 65.36591466702521,28.754152545239776 L 65.12468957342207,28.141942359041423 L 65.23944714292884,27.545267272740602 L 65.54390601255,27.196077232714742 L 65.8483648840338,27.344617260619998 L 65.8483648840338,28.54054157854989 L 66.04509214125574,28.655163600109518 L 67.14817008376122,28.32170803518966 L 67.6376462560147,27.344617260619998 L 68.8344038426876,26.672231348697096 L 69.50187136046588,25.235841253772378 L 70.12952504307032,24.65695879375562 L 70.29814841784537,23.67630520230159 L 70.99606183357537,21.61766203865409 L 71.49256399087608,22.090023839380592 L 72.22326528653502,21.93344641942531 L 72.93054667115211,21.51065468136221 L 73.97741679288447,20.414304932579398 L 74.7619838938117,19.040802845731378 L 75.64725662395358,18.393044494558126 L 76.71052067168057,18.750892667565495 L 76.40606180205941,20.615326487459242 L 77.15315705165267,23.973658142145723 L 77.7433388531208,24.623057491146028 L 78.86983667686582,25.12111489661038 L 78.88857261836529,24.2631633146666 L 78.15084533765912,19.11915310053155 L 77.82765055634081,10.181798562407494 L 77.43653799779713,7.746300899423659 L 77.10397521592677,6.640629483386874 L 77.28196656145155,5.319675957318395 L 77.10397521592677,2.7707787859253585 L 76.71052067168057,1.5586436395533383 L 77.10397521592677,0.456353728659451 L 61.53886684589088,0.0 L 57.820955600589514,0.6100772973150015 L 55.52328645065427,0.47006857162341475 L 54.680064184591174,0.6534122708253562 z M 128.93567461892962,455.0664478787221 L 128.5549604985863,454.80189545312896 L 127.83517288789153,452.83419925160706 L 127.84409588761628,452.2167220087722 L 128.2129126470536,451.61136478045955 L 128.78695817478,451.4136249329895 L 129.43833621405065,451.52314300183207 L 130.03915068134665,451.8699401700869 L 130.49124867655337,452.41748349228874 L 130.8095018621534,453.14748199936 L 130.89873176254332,453.89261915395036 L 130.66375975310802,454.4856372750364 L 130.2057130932808,454.79885459458455 L 128.93567461892962,455.0664478787221 z M 125.12258483469486,455.70802692184225 L 124.55151366814971,455.2367298495956 L 124.61694893427193,454.7441184720956 L 126.11303639039397,452.9619471090846 L 126.54728841781616,452.9436975461431 L 127.13917988538742,453.5337455496192 L 127.41281816549599,454.5525391250849 L 127.01723240874708,455.45261777658015 L 126.1814459618181,455.9451851816848 L 125.12258483469486,455.70802692184225 z" /><path fill-rule="evenodd" fill="#D2EBD9" stroke="#A6A6A6" stroke-width="0.25" opacity="1" d="M 77.49742976017296,25.79638553969562 L 77.1695509776473,26.737390278372914 L 77.82999254018068,27.602593862917274 L 79.68016567640007,28.63953353697434 L 79.46470247767866,27.344617260619998 L 79.06656396389008,26.234333977103233 L 78.72463321313262,25.9189119823277 L 78.30307478830218,26.234333977103233 L 78.07355961948633,26.74260293133557 L 77.69415704533458,26.672231348697096 L 77.49742976017296,25.79638553969562 z" /><path fill-rule="evenodd" fill="#D2EBD9" stroke="#A6A6A6" stroke-width="0.25" opacity="1" d="M 151.25142077729106,167.6641913075 L 151.57929955981672,168.26846842188388 L 151.83926059305668,168.2483271509409 L 152.03598788008094,167.02961279731244 L 151.86033851839602,164.79276251187548 L 150.84157230705023,160.47206796333194 L 150.25373246334493,160.4241487774998 L 150.02890129573643,160.86044649686664 L 150.01484935358167,161.4757300321944 L 150.3286761958152,163.8301696772687 L 151.25142077729106,167.6641913075 z" /><path fill-rule="evenodd" fill="#D2EBD9" stroke="#A6A6A6" stroke-width="0.25" opacity="1" d="M 279.0263973623514,328.15012597152963 L 280.0060043595731,328.0468474258669 L 280.08645043335855,327.359647968784 L 279.9548888448626,326.7513384488411 L 279.1878555249423,325.9566907477565 L 278.846951469779,324.13209391990677 L 278.1324952300638,323.919562746305 L 277.49695109017193,324.13018094189465 L 276.8080931697041,324.7107361671515 L 276.38352064043283,325.74065724993125 L 276.4881464894861,326.9032723996788 L 276.8049897942692,327.4321973589249 L 277.6245062947273,327.8300499962643 L 279.0263973623514,328.15012597152963 z" /></g></g></g></svg>