<svg xmlns="http://www.w3.org/2000/svg" xmlns:xlink="http://www.w3.org/1999/xlink" width="500.0" height="482.7001322861761" viewBox="0.0 0.0 500.0 482.7001322861761" preserveAspectRatio="xMinYMin meet"><g transform="matrix(1,0,0,-1,0,482.7001322861761)"><g><path fill-rule="evenodd" fill="#D2EBD9" stroke="#A6A6A6" stroke-width="0.25" opacity="1" d="M 176.09635650366545,16.276674608699977 L 175.41128526069224,15.763435870409012 L 175.0417073853314,15.116670180112123 L 174.57297442294657,14.695708369836211 L 173.59945217519999,14.842878451570868 L 170.91926123574376,16.98484629485756 L 169.2276160735637,19.153131377417594 L 165.25240013562143,23.172256071586162 L 164.3149342481047,23.718794888816774 L 162.08845278061926,26.75769267231226 L 159.72375517338514,29.535276726819575 L 154.83210622146726,33.12924167327583 L 153.84055579267442,34.120995436795056 L 151.95360521785915,36.563659626059234 L 149.30646595172584,38.69522106740624 L 148.80167662724853,39.27050144225359 L 147.65688656829298,41.11839034687728 L 146.25669713690877,42.69003119925037 L 146.2236454654485,43.17297972552478 L 146.51209650933743,44.42432432156056 L 146.04035885632038,45.73650395218283 L 145.0427990090102,47.12645538896322 L 141.35903880372643,50.832042035181075 L 140.89030587859452,51.568723124451935 L 140.71002395823598,52.570010570809245 L 140.72504744865,54.73475379217416 L 140.41556353494525,55.58951014280319 L 136.8850429598242,61.30412531411275 L 136.2901126947254,62.63515486149117 L 135.84241264127195,63.295445973519236 L 135.23546357639134,63.57307848474011 L 134.91696555539966,63.9454859807156 L 133.83527414686978,66.12854083767161 L 132.0925490949303,68.5439241817221 L 131.59376915171742,71.8300603874959 L 130.92672612704337,72.86747985333204 L 130.83658518455923,73.39116999926046 L 131.08897982910275,75.0902210213244 L 130.57517643272877,77.77095506945625 L 130.83658518455923,78.37508812267333 L 130.09742936305702,79.90363263478503 L 129.88109108060598,80.70313460659236 L 129.83902529999614,83.35703681595623 L 129.6286964379251,84.17954101599753 L 129.0457849353552,84.90753857512027 L 127.78381164371967,85.19061811687425 L 127.18587668798864,86.18799974909052 L 127.05667465738952,86.18799974909052 L 126.69010143727064,87.87228313228115 L 125.50625028833747,90.36391159659252 L 125.31394960545003,91.0640229433775 L 125.48221268877387,92.1880219061859 L 124.25629575923085,94.53611050779 L 124.27432397753,96.31826125225052 L 124.58080320060253,96.90319787757471 L 125.12765830382705,97.12505137827247 L 126.16127451322973,97.35025566117838 L 126.27545305527747,95.3768316344358 L 126.52784773521125,95.3768316344358 L 127.42024315148592,98.79198081977665 L 126.4316973760724,101.85544703388587 L 125.94493623264134,104.34641165472567 L 125.0916019063443,105.87324368907139 L 123.8686897046864,107.14467018889263 L 122.47150496393442,108.11059306142852 L 120.27807516790926,109.02267374796793 L 119.94755834713578,109.39148034760728 L 119.6711260676384,112.61229731887579 L 119.81234689801931,115.72715272149071 L 118.94398908130825,117.13319824030623 L 119.09121929295361,117.61852307384834 L 119.5990133062005,117.52480898797512 L 119.94755834713578,117.69215429900214 L 120.4463382512331,119.00393941020593 L 120.4162912722677,120.76692348439246 L 120.01967110671103,122.53260588599369 L 119.44276902265847,123.89321165019646 L 117.78417553007603,126.66004304820672 L 117.57685132138431,128.00612908415496 L 118.18680511415005,129.52545438800007 L 117.91037283465266,129.52545438800007 L 116.01741288043559,131.78853414440528 L 115.38642621599138,132.88297930033877 L 115.29628527350724,133.3700616932474 L 115.38642621599138,137.52496406575665 L 115.5396658461541,138.36485166009516 L 116.64839954301715,140.48392712371424 L 116.744549902156,142.0959429135546 L 116.5883055832237,142.92172924382612 L 115.77403230778873,143.730732020922 L 115.38642621599138,146.62939782766625 L 114.47299792803824,149.1173621127382 L 113.85403006337583,153.37193689169362 L 114.99882015958428,156.41769640520215 L 114.89065100066364,156.89581398060545 L 115.63882089592516,159.806691466365 L 115.77403230778873,161.4721302217804 L 115.40445443429053,163.02758624311537 L 114.13046230562031,165.67307195067406 L 113.66473407298326,167.26698240172118 L 113.5475508403033,170.52613067254424 L 113.09684609621763,172.09202329209074 L 110.98153844289482,176.15181109542027 L 110.0951524451375,177.39192759944126 L 108.27430521324277,179.18707870971411 L 107.75449240021408,180.40332118421793 L 106.49251910857856,181.883571438957 L 106.27017140947282,182.90759975463152 L 106.40838754922152,183.34027240239084 L 107.0483882855624,184.18239248078316 L 107.0483882855624,185.84640926960856 L 106.87712047435343,186.6188042294234 L 103.244440196082,194.08588222414255 L 102.47824208252132,196.88653654092923 L 101.75711447745562,198.2303108451888 L 101.50471983291209,200.08730626152828 L 101.22528290003538,200.68969886843115 L 101.40856947377324,201.50265328818932 L 101.40556478314102,202.8583908546716 L 101.2403063904494,204.24337849626318 L 100.95486003905535,205.13141865143552 L 101.7300722245127,207.33770708134398 L 102.60443942248821,207.65657165739685 L 103.244440196082,209.01727986661717 L 102.95298442617059,209.51020256849006 L 102.99204551428556,211.77704871818423 L 102.23486154712737,214.41718027414754 L 102.73965087160468,220.22474128659815 L 102.55636426061392,221.67071514297277 L 100.77157342806458,226.42881982587278 L 100.30584519542754,228.24639086984098 L 100.33288748376071,228.63602348510176 L 101.52875743247569,230.6263068523258 L 101.98246686719358,231.07794541399926 L 101.973452758044,230.23354660300538 L 102.15373467840254,229.86694428976625 L 102.37608234211802,230.07643440598622 L 102.43317161127925,232.5111539424397 L 101.75110509619117,237.18768058763817 L 101.35448489524424,238.60945224389434 L 100.19467134401202,240.78223929693922 L 99.80105587095022,242.07895941939205 L 99.54866119101644,243.4733208795078 L 99.41344977915287,246.09779434092343 L 99.4585202485323,246.48287123907357 L 100.2157042529434,248.0131186810322 L 100.2157042529434,249.66686722822487 L 100.33288748376071,249.74513871781528 L 100.65739488787949,249.59837876586244 L 100.44706602580845,249.2461387105286 L 100.95486003905535,248.44699097098783 L 100.67542306892574,246.81897537596524 L 100.94584592990577,246.3980261478573 L 101.7300722245127,246.77981866663322 L 101.22528290003538,245.11539791012183 L 101.78115207701921,245.64088789839298 L 102.61345353163779,247.259468650911 L 103.54190531000495,247.99680701922625 L 103.81232817098498,248.9297554581426 L 103.99861947074533,250.77234771009535 L 103.74622479081154,257.7685290221125 L 103.04613009467721,263.02526675118133 L 102.18077696859837,264.4500688891858 L 101.78115207701921,266.2289293492213 L 100.44706602580845,268.985521716997 L 99.72894311137497,271.34444163925946 L 98.53908254392445,273.871210786514 L 95.90696680359542,276.9096133047715 L 95.1347593087703,278.220550943166 L 95.02659018710256,279.5344259184785 L 89.33569148555398,287.0257593970746 L 86.55935022421181,289.62967732176185 L 86.27089918218553,290.2772324513644 L 83.22413502261043,293.1385430409573 L 82.50901683606207,293.48801638325676 L 82.50300741754472,293.9086502995342 L 82.98375917971134,295.50677643576637 L 82.89061350934207,296.2668616916053 L 79.76272251829505,301.1063995868899 L 79.20384865067899,303.6554578919895 L 78.05605386383832,306.49395678797737 L 74.27313864603639,311.4991099126637 L 71.96853500045836,315.3782846922986 L 69.60083270259202,318.31738905608654 L 66.30167389847338,324.26199521962553 L 64.7722824383527,326.35373951820657 L 64.30054478533566,327.8143037511036 L 62.77115332521498,329.16516594868153 L 62.02899284847081,330.5317969364114 L 61.644391445443034,331.8434671056457 L 61.25678535364568,335.1021030093543 L 60.25021139718592,338.6190498569049 L 57.04720295406878,344.90267196530476 L 56.17283575423062,348.36902219010517 L 55.97152096405625,350.0421659532003 L 55.21433695964515,353.24293489940464 L 53.91029788926244,356.5540766394697 L 53.05696356296539,357.9305236884393 L 51.57242395915091,358.38896451564506 L 49.9646743517369,359.5035558762029 L 48.726501401513815,361.6564903347753 L 47.546346781775355,366.52795190457255 L 44.67986454255879,372.05496453261003 L 44.33732892014086,373.1980932028964 L 42.76887637004256,375.29860645113513 L 40.05563375912607,380.28849768685177 L 39.74014042876661,381.190977901686 L 38.39704026840627,383.73189974948764 L 36.44098166190088,387.10015966556966 L 35.75591041892767,389.0973295867443 L 35.52154395543039,390.88692526193336 L 33.15985103882849,394.6619041808881 L 31.375060208141804,399.1660604728386 L 30.611866822466254,400.3710890933871 L 29.49411905184388,401.69667944824323 L 28.160032965242863,402.7328035947867 L 27.79345978051424,403.25398144777864 L 27.36078321747482,406.0688911038451 L 27.04228519462049,406.8883541119285 L 21.017864981666207,414.9568114876747 L 16.87728040292859,417.6749353953637 L 14.194195022806525,420.86698811361566 L 11.603322297334671,422.44963637785986 L 10.88602214679122,425.20749270170927 L 10.408275112509727,426.4140955256298 L 10.408275112509727,428.03205906273797 L 9.542921986430883,429.28246830031276 L 8.112685538828373,433.07975642057136 L 4.8537430334836245,436.5357615496032 L 4.283606117591262,438.2893250687048 L 4.020889967679977,440.57389048999175 L 2.9275143072009087,443.8011560845189 L 2.452168293297291,447.54332601930946 L 1.5994454640895128,450.38305055256933 L 1.0312505960464478,454.3554333089851 L 0.0,459.68692920263857 L 0.15023490227758884,462.7241433276795 L 1.3851659391075373,470.5065551237203 L 1.7908002119511366,471.04773261304945 L 2.926426224410534,470.618443550542 L 3.8689700681716204,470.5944675626233 L 4.353597871959209,471.3296947381459 L 6.547778803855181,472.5202824403532 L 8.287859743461013,473.8384872036986 L 9.798982625827193,474.5574057009071 L 11.493271939456463,475.0566122280434 L 13.679820964112878,475.43598595494404 L 15.59162038192153,474.7850481774658 L 16.38915747590363,475.1604428035207 L 16.728778533637524,475.04862518655136 L 16.965368496254086,474.8329719766043 L 17.25919796526432,473.9702943437733 L 17.827777003869414,473.4989728173241 L 18.98401497863233,473.0116417161189 L 19.384691512212157,472.12477365508676 L 22.04442042671144,472.38445365428925 L 24.437031714245677,472.29656303022057 L 25.47497470676899,472.92775350855663 L 25.856571381911635,472.9517216626555 L 27.428749741986394,472.192690838594 L 31.366827620193362,471.74921978265047 L 32.263579837977886,472.21266639232635 L 33.9158934969455,473.65874630538747 L 35.751373587176204,474.1060930695385 L 36.44587958790362,474.4655479090288 L 37.74330833926797,475.5757501604967 L 39.38417411968112,476.3663650760427 L 40.639627216383815,476.7616399405524 L 41.524931555613875,477.95132613601163 L 42.78420062549412,478.5021880636923 L 43.1810611858964,479.6596594210714 L 45.9323733150959,480.52564594661817 L 47.87470047175884,481.66284409957007 L 53.487987767905,482.7001322861761 L 54.174861861392856,482.1934754210524 L 54.663305601105094,482.45678186323494 L 55.178461108356714,481.8623341214843 L 55.57532167062163,481.66284409957007 L 56.8422227203846,481.5192078803666 L 57.2238193936646,481.66284409957007 L 57.2238193936646,481.3755688131787 L 58.734942277893424,481.9620770541951 L 59.21957008168101,481.77854894520715 L 60.7764845918864,482.1934754210524 L 61.45191073231399,481.95409769611433 L 62.75315545685589,481.0523704835214 L 64.29099010489881,480.74112879903987 L 65.06181543506682,480.4139115838334 L 65.6113146878779,479.8831497388892 L 66.09594249352813,478.35848901188 L 66.63017785921693,477.83955191634595 L 66.950719056651,477.208793386817 L 66.59583414904773,476.10283643752337 L 69.74019086919725,474.34573163231835 L 72.97613080218434,471.66931212553754 L 79.9994178917259,467.7287545497529 L 80.4611499030143,467.32098600035533 L 82.15543921664357,465.0338491308503 L 82.69349055364728,464.6099279206246 L 83.5520830899477,464.4379525911063 L 84.9296471402049,464.993857672438 L 87.42147354781628,464.4379525911063 L 88.26480223238468,464.5579358395189 L 89.09668303839862,464.993857672438 L 90.72991683892906,464.7219095779583 L 91.54653379321098,464.84988646395504 L 91.92813046835363,465.81363788386807 L 248.7033150549978,465.7416609679349 L 248.8902974203229,465.14582407288253 L 249.37110925279558,464.7978961095214 L 250.0427194237709,462.9339901446365 L 251.03105485625565,462.58995367214084 L 252.41625085100532,459.68497514212504 L 254.8355738669634,457.8077037674375 L 255.14085121266544,456.838850799948 L 255.69035046733916,456.1341461259872 L 256.72829345986247,455.5495075918734 L 260.0901602823287,451.8843879457563 L 261.5249638762325,451.53980738902465 L 264.8181433137506,449.8847806272097 L 269.6377095244825,448.99098179023713 L 272.75917044840753,449.15131296915933 L 274.8159766141325,449.82065540226176 L 276.3309154678136,449.5801805360243 L 277.9832291267812,449.7004190138541 L 278.56707209162414,449.31564853480086 L 284.4322132393718,447.55184301547706 L 290.7667183037847,447.6360348784365 L 293.71264477819204,448.20129654183984 L 294.47202219069004,448.0048633166589 L 294.8040113039315,447.307279843837 L 295.13981639035046,447.0266229240224 L 296.7616023104638,446.40111772250384 L 297.3454452380538,446.3529996033758 L 298.1925898939371,447.43958556093276 L 304.02720330283046,447.43958556093276 L 305.4123992975801,446.64571304945275 L 307.06471299380064,446.1364638269879 L 310.22814957238734,446.3369601680897 L 311.23174885474145,446.64571304945275 L 311.50649846345186,446.3529996033758 L 312.0483657736331,446.82614665525034 L 312.9298541042954,447.0586985456757 L 313.9181895721704,447.01058501843363 L 314.78822998702526,446.64571304945275 L 316.07039488852024,447.7282438459806 L 316.4672554489225,447.4676501248032 L 318.211152324453,447.7282438459806 L 318.63854062370956,447.57188877929 L 320.08097612299025,446.3529996033758 L 321.0349678453058,446.5935869165696 L 321.95461585745215,446.19260341720656 L 323.8740472178906,444.34376713400707 L 325.14476420357823,443.7059837137349 L 326.67878288030624,442.67096360586584 L 327.60987880825996,442.9197036395781 L 329.063762223348,442.99191677058116 L 330.3993506561965,442.8635373315774 L 331.2617591638118,442.2135793771595 L 332.47523664310575,441.84444000478834 L 333.02855183184147,442.34999544359744 L 334.7686327714473,441.60769882798195 L 335.56616983003914,440.8773608296178 L 336.5163455810398,440.95762155391276 L 338.8250055965036,441.60769882798195 L 339.3363451305777,442.6348554636352 L 346.1592940092087,444.50019554421306 L 346.76221675798297,444.2314573759213 L 348.6778321471065,444.7889770665206 L 349.21206751279533,444.68870710069314 L 350.7193744238466,444.7889770665206 L 351.31466530263424,444.6405769614503 L 352.9898747578263,443.7059837137349 L 356.1914709806442,442.4061659616418 L 356.7943937666714,441.60769882798195 L 357.004271928221,441.53547105845064 L 433.45335301943123,456.5705909570679 L 434.14785902015865,456.5866067437455 L 461.62663671560585,462.27390532568097 L 464.9427119847387,462.1538832592778 L 465.351020462811,461.9178338982165 L 467.846662806347,462.58995367214084 L 472.81886770762503,461.1776277809404 L 473.666012365371,460.4533507260494 L 474.5780284330249,460.1852291864343 L 475.3183260243386,460.3813190734945 L 476.73786572925746,461.65376930264756 L 478.7565122116357,461.7737998957746 L 481.90850087441504,461.26965765003115 L 482.53813542611897,460.8255023965612 L 482.9273640457541,460.7414698735811 L 484.1141297221184,460.7934901197441 L 486.6517477184534,460.2772720530629 L 487.63626717962325,459.8170456928201 L 488.10563113354146,459.1286507649347 L 488.85737660340965,459.4768589925952 L 490.35323567315936,458.0719130993821 L 491.7727753408253,458.3361124605872 L 491.9063341729343,458.20801707031205 L 491.65829633176327,457.2792551731691 L 492.0818686597049,456.83484703022987 L 492.780190596357,456.7747897077352 L 493.6769428141415,455.95395453227684 L 494.0547235533595,454.6324073160067 L 494.6576463021338,454.34403644734994 L 494.9362118821591,453.81532548973337 L 495.260569088161,454.2559207426384 L 495.52387081831694,454.27194184530526 L 496.1840330734849,453.4748463919386 L 496.14205745607615,452.9821236380376 L 496.3595675583929,452.59352904977277 L 496.9739382248372,452.2289514336735 L 497.45093408599496,451.5878894114867 L 498.85902591235936,451.31141313165426 L 499.35891756787896,451.00687581766397 L 500.0,450.0851680957712 L 497.5768610108644,450.5420298753306 L 496.09244985692203,450.5620669699274 L 494.87134047038853,449.3316810862161 L 493.6540470197797,448.8186216489412 L 492.51307293213904,448.7825457165018 L 492.1620039585978,449.5801805360243 L 491.13550884462893,448.934865008574 L 490.6699608974159,448.8587058018893 L 490.35323567315936,449.31564853480086 L 489.7922885026783,449.06313129048795 L 488.86119257472456,449.82065540226176 L 489.0901505947113,450.3737158640288 L 488.68565808981657,450.30558763910085 L 487.8652252368629,449.4479157808237 L 485.14444084465504,448.5540605019778 L 483.7935885246843,448.33358511934057 L 482.9273640457541,447.6039619031362 L 481.94284458458424,447.31529845576733 L 481.7138865273446,446.7660026452504 L 480.46606537513435,446.29285146156326 L 479.2754837255925,444.85715979663655 L 477.4552674870938,443.5415141982958 L 474.7001393865794,440.1389178200625 L 474.3261746186763,440.04660682426766 L 472.15488944388926,439.75361150084063 L 470.89562033861876,440.93354343948886 L 470.8307489268482,441.53547105845064 L 470.14005893468857,442.13734567631036 L 469.5066084098071,443.36901757260785 L 469.05250834301114,443.78621129272506 L 466.9728063829243,444.0068323095329 L 466.4309390746057,443.80225671920925 L 465.82801632396877,443.20052831294015 L 464.7786254156381,441.3428599694744 L 464.43137241341174,441.07801089342684 L 463.05762433446944,441.60769882798195 L 462.28298303484917,441.7120264391415 L 461.54650141485035,441.60769882798195 L 460.245256729424,440.9536085729487 L 458.4746480509639,438.7782076103613 L 457.238274814561,437.8709165053442 L 455.5897770896554,437.4734367313795 L 454.23510883376,436.20857381960377 L 452.7354338672012,435.4214291186072 L 452.4225245770067,434.95552494516596 L 452.0829034820199,435.188481033314 L 451.6707790698856,435.1965138697997 L 450.3847982343286,434.2807103507221 L 450.2703192252666,432.9389149462804 L 448.1410096678883,431.21508022164926 L 447.0458271689713,429.77620484726503 L 446.46580021455884,429.5953188724816 L 442.99327031709254,425.8076541326009 L 442.4437710624188,425.4617522098124 L 441.67676174268126,425.32499538129196 L 440.39459684304893,423.9814118286595 L 439.08190423995256,423.5267849396914 L 438.42937389202416,423.506668003276 L 437.9485620595515,423.9089954434894 L 437.6585485637188,425.5381739572622 L 436.746532458812,427.7379414518364 L 437.26931994594634,428.5541250430979 L 436.92588291689754,429.3702095565386 L 435.7200373802334,430.68458093702793 L 436.0329466704279,431.3075114390813 L 435.4414718002081,431.9826227556914 L 435.0827709212899,432.87061283830553 L 433.70139089785516,433.3366604815237 L 432.4192259982228,434.7747776294127 L 432.0299973785877,434.38916725013405 L 431.1790367513895,434.6623101718724 L 431.1790367513895,435.750755878631 L 429.8396323453635,437.46942169964314 L 428.88945663161576,439.22377978730947 L 428.88945663161576,440.4158432795666 L 428.22929434105754,440.65663892775774 L 428.0652077328414,441.7160390140489 L 427.37451774068177,442.13734567631036 L 425.97787386737764,442.1975302309729 L 415.87700947374105,441.3187832115218 L 360.28600348718464,430.45950799481943 L 341.8014597725123,429.6877723140642 L 342.1601606514305,286.3252499285154 L 341.68698076345026,284.86437507206574 L 305.00027488544583,284.86437507206574 L 305.12238583900034,22.60301550012082 L 303.59218309633434,22.273241287097335 L 301.9856610260904,22.377383133862168 L 301.0125894807279,21.826271299272776 L 299.3602757845074,20.320128747727722 L 298.2803571373224,20.00755098834634 L 296.49830058030784,19.881645389366895 L 295.658787868917,19.586404434405267 L 294.2926717326045,18.67016399046406 L 290.58736788108945,18.38787161791697 L 289.87759802863,18.031723350286484 L 289.0953247845173,16.993517884984612 L 288.5839852504432,15.876849400810897 L 287.9963263142854,15.58568714838475 L 287.7711842674762,15.22062084171921 L 286.7065295074135,11.846675324253738 L 286.32111686095595,11.237698951270431 L 285.680034391582,10.711301581468433 L 284.9244729503989,10.363235702738166 L 281.3947035856545,9.353688973002136 L 281.0016589574516,9.423320284113288 L 280.1201705913991,10.14568056166172 L 279.5859352257103,10.102168226614594 L 278.6968149524182,9.136083922348917 L 278.05573252029717,7.9172965828329325 L 277.9221736881882,7.037818663753569 L 278.1663955952972,6.118967988528311 L 279.5439596083015,3.7273123441264033 L 279.5248797852546,3.2174465116113424 L 279.0898595415056,2.9472371167503297 L 277.87638206221163,2.846993908751756 L 276.9452861342579,1.7092906381003559 L 274.84268837980926,0.5887341871857643 L 273.31630164571106,0.07850245526060462 L 271.8929459694773,0.0 L 271.09540887363255,0.9986208458431065 L 269.13400189578533,1.3953893552534282 L 267.81367735005915,3.3263971637934446 L 267.1993066482246,3.9103266205638647 L 259.48723753355443,5.03874590806663 L 252.40861890651286,3.9931162698194385 L 251.06921453773975,3.2523110271431506 L 250.27549341507256,2.999537033494562 L 249.49322016909719,3.600940875709057 L 249.28715798072517,3.5617213929072022 L 248.76437049359083,3.28717526467517 L 247.6386602949351,3.0431197714060545 L 246.63506097346544,2.550609266385436 L 245.7306768130511,2.7075212723575532 L 244.17757827602327,3.28717526467517 L 243.35332944989204,3.3481870028190315 L 240.10594160109758,2.8731445227749646 L 238.7894329894334,2.411127186845988 L 238.1025589685887,2.424203878734261 L 235.0001778677106,3.5181437730789185 L 233.58445413410664,4.2589041586034 L 231.3406656049192,6.140743953641504 L 230.0928444135934,6.942023309413344 L 228.7534400448203,7.508056498598307 L 222.59065345861018,8.88364857295528 L 221.40007177367806,8.77918831538409 L 219.9118446856737,7.9172965828329325 L 219.43866479583085,7.886822530068457 L 218.248083146289,8.230731301009655 L 217.4505460523069,8.587671419605613 L 217.114740928635,11.368201017845422 L 216.55760980583727,11.764033440966159 L 214.4779078103602,11.107193061616272 L 211.31447126716375,10.52857039263472 L 209.93690717965364,10.750457239337265 L 209.86821975931525,12.016303772106767 L 210.32995180785656,13.764401422813535 L 210.5627257619053,15.416195803321898 L 210.15823329240084,16.341800125781447 L 208.80738100782037,16.845803616102785 L 208.30748931504786,18.509476668201387 L 207.30770600400865,19.820862099528313 L 207.0062445923686,20.58059340622276 L 207.15125134028494,21.183944458141923 L 207.63206317462027,21.74381563672796 L 209.4828071501106,22.750538144260645 L 209.7919004689902,23.739681335166097 L 209.80334834754467,25.791018524207175 L 208.76922132633626,27.481685798615217 L 208.47920783050358,28.855422890745103 L 208.14340274594724,29.37100690929219 L 207.79996571689844,30.770149445161223 L 207.3840253315866,30.96937253465876 L 206.43003360927105,30.917402167338878 L 204.08702992089093,30.35868239030242 L 202.90408017858863,30.58391115721315 L 202.1218069344759,31.558327993843704 L 201.94245651364326,33.51951078791171 L 202.04930357821286,35.41061157686636 L 201.71349849365652,36.137413112446666 L 200.06881674192846,36.7559669893235 L 199.16061664558947,38.37332104425877 L 198.64546110108495,38.99589058291167 L 197.85555594973266,39.17745712585747 L 196.7107658907771,38.77973033953458 L 195.47820855118334,37.85877149133012 L 194.4936890900135,38.11389164859429 L 194.06630082800984,37.99714355589822 L 193.53969740495086,37.430656019598246 L 193.09704521670938,37.257668481208384 L 192.72689642198384,37.3268642956391 L 192.3567476272583,37.78093536524102 L 192.06673416681588,37.85877149133012 L 191.08221467025578,36.8424712670967 L 190.80746506154537,33.51951078791171 L 190.53653142414987,33.09963880525902 L 190.18546245247126,33.27278663031757 L 189.57109182327986,33.25547216553241 L 189.2658144403249,33.44159939605743 L 189.0406723935157,33.25980079872534 L 188.96816899999976,33.00873351236805 L 189.71609853580594,31.952365236822516 L 189.7313623856753,31.64926273468882 L 188.38051013834774,31.51935542654246 L 188.02944116480649,30.96937253465876 L 188.63236391544342,29.752240852452815 L 188.55986055918038,29.22370323771611 L 188.21260755881667,28.959411022718996 L 187.15176877006888,29.513973428867757 L 186.49542245082557,29.189042847137898 L 186.33515185303986,28.43944618757814 L 186.4839745350182,27.581371808424592 L 187.53336548246443,25.730315985158086 L 187.79285123944283,24.962791048921645 L 186.8579393401742,24.25585725856945 L 186.5183182451874,21.752495223656297 L 185.4498475138098,20.142135791946203 L 184.71336589567363,19.508249110076576 L 184.09899526648223,19.573378628585488 L 183.67542290128767,20.975602304562926 L 183.34724975936115,21.179604090284556 L 182.96565304882824,21.032029265537858 L 180.16854929365218,18.240203861147165 L 178.75664157047868,17.784139941912144 L 176.09635650366545,16.276674608699977 z" /></g></g></svg>