<svg xmlns="http://www.w3.org/2000/svg" xmlns:xlink="http://www.w3.org/1999/xlink" width="500.0" height="392.89337996416725" viewBox="0.0 0.0 500.0 392.89337996416725" preserveAspectRatio="xMinYMin meet"><g transform="matrix(1,0,0,-1,0,392.89337996416725)"><g><path fill-rule="evenodd" fill="#D2EBD9" stroke="#A6A6A6" stroke-width="0.25" opacity="1" d="M 108.85048271715641,0.0 L 108.06965385191143,0.8424646076746285 L 107.50118432193995,2.385799527168274 L 106.97191957756877,2.812975246924907 L 105.6585589274764,4.5769618016202 L 104.1491742618382,5.237921618623659 L 102.0386494230479,6.434785702265799 L 101.66620384715497,6.508238697657362 L 100.79716420173645,6.042490136111155 L 100.35937730781734,6.156003632582724 L 99.70269696600735,6.67184085235931 L 98.52982016280293,8.421572901541367 L 97.96461767330766,10.60589038953185 L 92.00222160294652,16.09081897744909 L 90.2935459446162,18.76020282926038 L 88.9801852311939,18.962488221703097 L 88.25816357322037,19.283479882404208 L 88.00006534159184,19.554326048353687 L 87.79750724881887,20.281640755245462 L 87.23557182960212,21.025739871431142 L 86.59195977076888,21.373565922724083 L 85.07604099623859,22.73825245187618 L 84.7003283482045,22.24653855501674 L 82.6812813617289,22.117761044064537 L 81.5345410592854,21.04078974481672 L 81.20456737093627,20.95885192626156 L 80.87132657878101,21.18460098770447 L 80.52828463725746,21.05082301935181 L 79.65924498997629,19.42057374678552 L 79.37174315564334,19.25338639272377 L 78.25767352990806,19.55265411385335 L 77.46704348176718,19.133013530867174 L 76.91490927524865,19.333635924383998 L 75.79103843681514,19.02601687889546 L 75.18009705282748,18.546220172662288 L 74.94160121306777,18.52950301603414 L 74.70637244544923,18.925708684371784 L 74.03662382252514,18.984221630031243 L 73.81446330435574,18.892272914526984 L 73.4877566844225,18.155047058826312 L 72.9127530157566,18.45093278028071 L 72.41289187408984,17.884245408698916 L 70.8479670714587,17.819053697399795 L 70.08347355760634,17.464686990715563 L 69.805772902444,16.90307926083915 L 70.14228073321283,14.366274285595864 L 71.20734436437488,11.335788322146982 L 71.9359001647681,10.483968316344544 L 72.77880327776074,10.10652180807665 L 72.8441446274519,9.70404155459255 L 72.8245422039181,9.149617921095341 L 71.94570134393871,9.191365469247103 L 71.26615154184401,8.249589485116303 L 70.42651549912989,8.142727685393766 L 70.24682686664164,7.726980940671638 L 70.28929875418544,7.3730274103581905 L 70.72055147401989,6.483197839232162 L 69.07395006343722,7.890605801017955 L 60.62858354859054,19.749942493159324 L 60.024176305159926,20.88360355468467 L 60.09931880235672,21.821747523266822 L 60.5763105135411,22.223124289652333 L 62.39933354780078,22.604449924081564 L 62.97107014618814,23.14301809296012 L 63.5656762085855,22.91721666790545 L 65.44423934817314,23.077785950154066 L 65.90816277638078,23.198214903241023 L 66.13032329455018,23.544457762269303 L 66.17279514856637,24.896112087881193 L 65.46384174190462,25.83302999706939 L 65.05219138041139,26.746625897474587 L 64.70914940722287,29.106374862603843 L 64.21255533769727,29.906498522032052 L 62.96453600563109,30.882486116606742 L 62.66069884970784,31.68780445214361 L 61.83413105644286,32.660653461935 L 60.56650933250785,33.00561545463279 L 57.49219989590347,33.26350909238681 L 56.31605599075556,32.26882093120366 L 55.5875002220273,32.36928902938962 L 53.98337063379586,29.790994729846716 L 53.44757174886763,29.436123615829274 L 52.888903399929404,29.374190114904195 L 45.64908439293504,30.005263921804726 L 44.60035611502826,30.27980439621024 L 43.71498114801943,30.7770136508625 L 30.378816364333034,42.08284498099238 L 29.42483297549188,42.561493202578276 L 27.164023047313094,42.75262516946532 L 26.255778647959232,43.25478730746545 L 25.974810922518373,43.77291073137894 L 25.883333072066307,44.38916904502548 L 25.840861218050122,52.86399372830056 L 26.255778647959232,54.16597261838615 L 26.925527241081,54.050120470579714 L 29.454236580058932,53.03438877151348 L 31.855530355125666,52.31086497148499 L 32.07442376948893,52.37968920264393 L 32.39132924005389,53.49019259377383 L 32.708234649151564,54.02661444945261 L 33.279971247538924,53.85703736380674 L 34.410376228392124,53.098182880785316 L 35.26961466297507,53.4398261946626 L 34.18168156966567,54.46400593989529 L 31.744450081139803,54.95347678777762 L 28.300962168723345,56.55559594160877 L 27.258768001571298,57.32654415862635 L 26.667428977787495,58.31427582236938 L 26.504075668752193,59.77930666599423 L 25.22665276378393,61.147983552655205 L 23.517977042123675,62.17990295868367 L 22.057598372921348,62.62447764654644 L 20.30645086057484,62.53875425038859 L 19.685708234086633,62.84215213987045 L 19.30672851577401,63.20439633377828 L 19.411274649202824,63.674246647395194 L 19.30019440688193,64.36268397886306 L 14.785108722746372,64.2954346362967 L 13.952006820589304,64.585451700259 L 13.514219895005226,65.39587645418942 L 14.148030774667859,67.18348665139638 L 13.932404397055507,67.48875081795268 L 13.324730053544044,67.71413282235153 L 12.645180281251669,68.52825472340919 L 11.099857902154326,69.67809843318537 L 10.449711702764034,70.81717952853069 L 9.542284030467272,71.53403058787808 L 9.347076775506139,71.77047177264467 L 9.329107966274023,72.11210452299565 L 9.601907966658473,72.98308575362898 L 9.261316305026412,73.3651711922139 L 8.184817975386977,74.01156261819415 L 7.868729263544083,75.16392733040266 L 6.834702787920833,75.98727396386676 L 7.1287387646734715,77.00942768133245 L 6.427136259153485,77.83297809073702 L 5.886436782777309,78.81327353627421 L 6.929447710514069,80.76498618186451 L 7.096068089827895,81.77431717794389 L 7.512619072571397,82.46020185598172 L 7.455445384606719,82.91608929308131 L 6.114314649254084,84.74160770094022 L 1.1287714298814535,89.31583219114691 L 0.18622277304530144,90.89492360246368 L 0.0,92.54692752519622 L 2.110524870455265,98.57515168795362 L 1.901432603597641,99.56922909407876 L 0.9850205108523369,101.46317518665455 L 1.037293577566743,102.39935332676396 L 2.1464626155793667,103.70835186121985 L 1.8916314225643873,106.08021091180854 L 1.9046996738761663,106.88848269428127 L 2.1595308650285006,107.2326183419209 L 6.329941056668758,106.16898098983802 L 7.399905247613788,106.16306293429807 L 10.449711702764034,107.10747618228197 L 11.439632803201675,107.15482698264532 L 16.346766455098987,105.3937602811493 L 17.6535929646343,105.64652186329477 L 19.4798830691725,106.35328814340755 L 24.31514123082161,106.51392673840746 L 25.174379665404558,106.69655197812244 L 25.945407319813967,107.07957313209772 L 35.33822305127978,115.8762543015182 L 36.190927343443036,116.39524990017526 L 37.25599097460508,116.6534923329018 L 90.00277700833976,118.47247159969993 L 90.17919860035181,118.90527006587945 L 90.32294951751828,121.04764505755156 L 91.05803945846856,121.33571833814494 L 92.30605875886977,121.36028984817676 L 106.02773740142584,118.95947771379724 L 106.325040448457,122.73728406778537 L 106.641945887357,123.61531656351872 L 109.40915106609464,125.31407306110486 L 111.87905322946608,128.0614699407015 L 113.03886174969375,128.69929773081094 L 115.55123576708138,129.18194973445497 L 116.7437149938196,129.82921599573456 L 117.537612112239,130.79811148205772 L 118.02113793045282,131.95723747950979 L 118.5569368172437,136.4327119649388 L 118.75949491001666,137.03906879527494 L 119.2397536598146,137.78987340047024 L 121.07911201566458,139.64346972457133 L 121.11831679940224,140.12946676835418 L 120.68706404604018,141.18484985432588 L 120.5629155524075,142.0942130200565 L 120.6968652587384,143.00200241757557 L 123.5228776447475,149.9880532764364 L 124.60427659749985,151.38718967535533 L 127.16892368160188,153.0948205012828 L 127.4237548429519,153.86621244298294 L 127.36168059520423,166.8491569312755 L 127.99549147300422,168.14619185007177 L 127.861541736871,171.98938722652383 L 128.04776450805366,172.57008527498692 L 128.63583646155894,172.69477163325064 L 129.05728803388774,173.00222821650095 L 128.83512751571834,244.3757400882896 L 176.90674159489572,254.1367625896819 L 178.32791544869542,254.67637677723542 L 179.69681623578072,255.64313894161023 L 217.0900240186602,289.8459221252706 L 231.70034470036626,302.588850338012 L 302.52707582712173,347.47601117915474 L 373.51062612235546,392.89337996416725 L 421.35027850419283,381.26696232846007 L 425.0583988185972,379.1821485280525 L 444.09069378115237,362.17181994533166 L 444.55135013721883,361.9346855629701 L 445.0414100661874,361.99131362326443 L 468.6922605615109,374.9438858279027 L 474.7651796080172,340.651488393778 L 475.02981198206544,324.106931691058 L 475.16049464792013,323.5609121741727 L 475.6570887491107,323.06059359945357 L 477.7545453365892,321.84424037556164 L 478.84247839823365,320.50887748552486 L 488.5881372820586,305.23116272874177 L 487.31398144736886,304.49481426924467 L 486.5331525504589,303.1885398225859 L 486.27178724855185,301.6239008549601 L 486.52988551184535,300.0999329343904 L 487.35318623296916,298.50829206826165 L 487.9183886907995,297.86199331399985 L 490.4895699173212,295.80311511666514 L 499.48380353860557,285.76848958805203 L 499.93139164336026,285.03492638422176 L 500.0,284.4791598569136 L 493.5802146755159,272.5487629834097 L 492.5935606136918,269.9091371607501 L 484.24620611965656,170.3876252649352 L 484.0436480268836,169.65860152477399 L 483.62873059511185,169.04915531445295 L 449.3800741583109,131.94196217949502 L 432.4664717577398,108.0071968792472 L 429.97696717083454,102.36724412115291 L 430.06517798267305,101.00442547746934 L 430.50949898548424,99.60977214481682 L 430.5487038027495,98.94421945535578 L 430.267736107111,98.17823516344652 L 429.7874773275107,97.92236242257059 L 428.5492592062801,97.7222307312768 L 426.4861068148166,95.73304069158621 L 426.97943381406367,95.0627845658455 L 427.1819919385016,93.81445163371973 L 427.1460541933775,93.205978496233 L 426.9010242447257,92.61274552880786 L 425.8392276857048,91.71750345174223 L 423.29745006375015,91.36652458808385 L 421.35027850419283,90.48577764281072 L 420.31461847759783,89.03159850626253 L 420.3048172965646,87.10888498253189 L 421.35027850419283,83.18238780321553 L 425.30342879891396,65.08060765103437 L 417.48533905111253,65.4160540944431 L 416.53462273441255,65.25379368755966 L 416.24385382793844,65.02175891841762 L 416.2601891811937,64.46271849190816 L 414.2999493703246,62.63624370936304 L 414.120260739699,62.178222177084535 L 414.32608590461314,61.76392532209866 L 414.2378751244396,61.506786754122004 L 413.67593970522285,61.420235480880365 L 413.3819037284702,60.97068881918676 L 413.4472450464964,60.812723483657464 L 413.8948331512511,60.753907438367605 L 413.316562410444,60.004462167155 L 410.8531943894923,59.17948416620493 L 411.03288305178285,59.76838513859548 L 410.96427463181317,60.02798621659167 L 410.6571704056114,60.088477060431615 L 410.01029127649963,59.17948416620493 L 410.01029127649963,59.644048537127674 L 408.8962216489017,59.437385336263105 L 408.5401113945991,59.5701196140144 L 408.71326594799757,60.088477060431615 L 407.8409592304379,60.0153840277344 L 404.1883790511638,58.282357334392145 L 403.31607233546674,58.114367597037926 L 402.4339644368738,58.31259588175453 L 402.3032817710191,57.78259850759059 L 402.01577993668616,57.75572166359052 L 401.12060378678143,58.08916946453974 L 401.12060378678143,57.8472714102827 L 401.6041295751929,57.640656085917726 L 402.0027116853744,57.1829303659033 L 400.7089533954859,55.85189934610389 L 400.7089533954859,55.407713058637455 L 400.258098250255,55.407713058637455 L 399.6112191211432,55.06430465145968 L 399.94772695191205,54.31456808350049 L 399.5034059174359,54.27762881643139 L 399.0688860937953,54.76037143380381 L 398.7258441541344,54.076984585495666 L 397.91234464384615,53.07467974489555 L 397.39288108050823,52.66758241294883 L 396.3082150258124,52.3326872328762 L 396.0893216095865,51.58405078551732 L 395.8116209562868,51.414526394801214 L 395.33136220648885,51.508519653230906 L 394.4100495260209,52.28064964246005 L 394.3087704628706,51.56223059911281 L 394.09967822767794,51.34067533072084 L 393.65535719133914,51.10653846967034 L 393.5475439876318,51.29367956216447 L 392.23091623559594,50.08447387535125 L 392.1394383851439,49.55754971667193 L 391.5121616795659,48.480317012406886 L 392.0152898915112,48.291564689483494 L 391.8159988373518,47.57434668694623 L 391.3912801928818,46.940228884341195 L 390.2935459204018,46.6173178977333 L 390.0223794374615,44.886402474017814 L 389.87862848863006,44.502364492509514 L 389.4375745244324,44.28687524981797 L 387.5916820578277,44.7237291126512 L 385.60857278481126,44.794164589140564 L 385.09237629175186,44.94593838485889 L 384.79180620610714,44.76230084896088 L 384.0109773706645,45.38869832782075 L 383.7104072533548,45.34676924836822 L 383.2562850378454,44.94593838485889 L 383.00472091697156,44.991219534073025 L 382.81523107364774,45.5102938732598 L 380.8615254033357,46.27513043698855 L 380.3355276975781,46.16694186301902 L 379.67231324873865,45.7082050810568 L 378.1759968958795,45.542160594137385 L 376.31703611649573,45.994178677909076 L 375.6962935216725,46.30532286525704 L 374.2391819227487,47.465301668737084 L 369.8417106550187,50.1700604474172 L 366.3492167145014,51.60083556547761 L 356.79304770566523,54.0366884637624 L 341.3986311201006,53.95441780728288 L 335.6551284957677,54.63023787387647 L 332.61022266186774,54.383409856352955 L 316.37943710386753,50.87828268366866 L 315.0595423132181,50.32277597859502 L 309.0644755680114,46.94190633157268 L 308.5058072190732,46.39757820079103 L 308.2509760260582,45.2662660360802 L 307.85239394940436,44.67844947683625 L 307.22838428243995,44.55938207753934 L 306.6207099687308,44.16613674140535 L 305.5621804483235,43.15250800875947 L 299.91668981686234,36.44933177321218 L 299.2110034804791,35.90654879552312 L 298.3223614413291,35.76415802212432 L 291.6085401400924,36.55487709143199 L 289.3509972821921,36.03805309114978 L 288.1781204789877,36.03637784556486 L 277.8541908543557,37.24933237815276 L 269.52643872238696,39.72606345638633 L 268.3666302021593,40.39983833045699 L 266.91605274379253,42.57490583998151 L 266.2985772192478,43.25730240019038 L 264.9166081175208,44.301967695355415 L 264.1619158163667,44.668387391837314 L 263.3092114906758,44.851184252416715 L 262.14940297044814,44.75894677336328 L 261.2966986130923,44.36904558236711 L 260.85891175083816,44.504041492706165 L 257.4709639456123,47.54750469420105 L 256.2654164675623,48.86538571026176 L 254.41952400282025,49.55251555540599 L 252.47888658381999,50.940381028689444 L 251.37461816892028,51.932342526037246 L 250.50231145136058,52.268899271730334 L 242.48819771967828,53.41464314889163 L 241.40353172831237,53.307196317240596 L 240.32539981603622,52.82538259611465 L 228.83186045847833,45.85664169699885 L 227.84193935617805,45.53545182244852 L 226.70826730690897,45.542160594137385 L 223.41179741546512,46.15016858302988 L 222.70611104555428,46.0143062309362 L 220.78507605195045,43.737697403877974 L 219.28875966742635,42.41227933089249 L 218.61247693561018,42.07781556318514 L 217.8610516730696,41.95208090823144 L 214.45350147597492,42.05602140096016 L 213.48971690796316,42.42736825346947 L 212.46385809220374,43.19442560779862 L 211.31711779162288,44.26507512619719 L 209.4450887925923,46.43280324153602 L 206.08981166034937,52.63149024290033 L 200.92948036827147,58.31427582236938 L 196.4928043168038,62.54883931949735 L 194.38227941468358,63.770909945014864 L 192.09533298574388,64.27021626452915 L 191.48765864036977,64.1424445384182 L 189.33139487728477,63.022011417197064 L 188.63550975173712,63.45318650593981 L 170.74178742989898,70.59170523961075 L 169.7126615140587,70.81549684121273 L 165.04402373172343,70.00028786971234 L 164.16518290527165,69.55444192839786 L 163.27327376417816,67.8739225929603 L 162.835486901924,67.35335667873733 L 161.86516816169024,66.6562410092447 L 160.41459073498845,66.2921516909264 L 155.8864367697388,66.49395422753878 L 152.6879788376391,65.91294546681456 L 150.85188755393028,66.02393071353436 L 150.13313296623528,66.3459651588928 L 149.42091251909733,67.03043870674446 L 148.69562379084527,67.35840240377001 L 147.68283319473267,67.24907961161807 L 137.62680301256478,64.77375849615782 L 135.91486028395593,64.09369011851959 L 134.43487922288477,63.03545899223536 L 129.4624042212963,58.252118904842064 L 128.580296324566,57.81283510872163 L 127.62958003953099,57.63057745085098 L 125.58439648710191,57.5642266375944 L 125.51905516907573,49.786606394452974 L 124.41478675417602,42.08284498099238 L 119.36716925539076,34.110930951312184 L 117.32198573462665,32.1432375467848 L 110.40887334756553,26.92400221945718 L 110.2781907133758,26.582639805972576 L 110.59182908013463,18.52448788192123 L 109.73912475630641,14.276045980630443 L 109.7227894347161,12.872616456123069 L 110.51015241071582,10.505680318688974 L 110.65717039816082,9.400106173940003 L 110.12137154489756,8.326397206168622 L 109.23272950574756,7.3045757377985865 L 109.08897855691612,6.775345791596919 L 109.37321332097054,4.6236947369761765 L 110.5362889431417,3.29524127044715 L 110.92506984062493,2.702842026948929 L 111.08188904076815,2.0637626596726477 L 110.85646145418286,1.3663342660292983 L 110.47421469725668,0.9759316632989794 L 108.85048271715641,0.0 z" /></g></g></svg>