<svg xmlns="http://www.w3.org/2000/svg" xmlns:xlink="http://www.w3.org/1999/xlink" width="500.0" height="446.555866264971" viewBox="0.0 0.0 500.0 446.555866264971" preserveAspectRatio="xMinYMin meet"><g transform="matrix(1,0,0,-1,0,446.555866264971)"><g><g><path fill-rule="evenodd" fill="#D2EBD9" stroke="#A6A6A6" stroke-width="0.25" opacity="1" d="M 200.00363375991583,37.71538029797375 L 194.90566039457917,39.85521011031233 L 192.94913862459362,40.16034749452956 L 191.52994256652892,40.937834723852575 L 190.73420837894082,42.764591246144846 L 189.78671043738723,46.4686093267519 L 187.94913862273097,49.215565292397514 L 177.19442165456712,61.3353108484298 L 174.29040194116533,63.293003405444324 L 173.95816244371235,63.72806390374899 L 170.4552912339568,64.71952390670776 L 168.8925348445773,66.19213377474807 L 165.50861359201372,70.31750904745422 L 162.82198523171246,71.71508050174452 L 159.38063990697265,75.37670038361102 L 154.9876948259771,77.89197694277391 L 153.53158325701952,79.2062014627736 L 152.1821165084839,83.1031854946632 L 149.05660383030772,84.50555844628252 L 145.30352746881545,88.16460746759549 L 136.02132901921868,92.25542224338278 L 134.44626749306917,93.4153601101134 L 133.10500406846404,94.99412347795442 L 131.97292867302895,98.23567732051015 L 119.90155865252018,107.49749553762376 L 117.96144383214414,109.93597999215126 L 115.26251023449004,116.03730274713598 L 114.17145206034184,116.96351185929962 L 113.15832652151585,117.5083550454583 L 110.50041014514863,120.20757996244356 L 108.92945043370128,122.45852978131734 L 107.21493028849363,125.69484927761368 L 106.39458572678268,128.66320264106616 L 105.23379824496806,129.85817991290241 L 102.75225599855185,131.79540992109105 L 100.40196884609759,134.76022037514485 L 96.59557012654841,141.37872175662778 L 93.05578340403736,151.07026991457678 L 92.05906481482089,152.63130698585883 L 89.54470876976848,154.80935441423208 L 68.90894175507128,167.48241705494002 L 67.61689907871187,169.0779889721889 L 61.9360131341964,172.36600465863012 L 58.855619391426444,175.6964221438393 L 51.89499590545893,178.84242926957086 L 51.636587431654334,181.2242316773627 L 52.79327320121229,179.68674757727422 L 54.77030353248119,178.36777436733246 L 57.07547174952924,177.42269007093273 L 59.27399504557252,176.99426292069256 L 56.76784252747893,179.76235949248075 L 55.47579984925687,180.80834606592543 L 54.08121416531503,181.2242316773627 L 53.219852382317185,181.89638353232294 L 50.947497963905334,186.22796841408126 L 50.31993438117206,186.22796841408126 L 51.34946676902473,182.4005086205434 L 49.70467593334615,183.84571981569752 L 47.07137003354728,187.18596961861476 L 45.135356824845076,189.04324577841908 L 43.88433147221804,189.56851709401235 L 37.58408536761999,194.472951824544 L 36.74733385629952,195.34298495273106 L 35.74651355482638,198.2096733234357 L 34.37243643216789,196.16260747844353 L 23.281378153711557,209.04033205774613 L 21.981132052838802,211.74448976409622 L 22.411812944337726,211.24821595288813 L 24.044298643246293,210.331395809073 L 24.044298643246293,210.97484877030365 L 22.670221520587802,211.74448976409622 L 22.411812944337726,213.43525618268177 L 20.721903175115585,214.848518114537 L 18.437243619933724,216.08518508891575 L 16.41509435325861,216.62361636315472 L 16.41509435325861,215.98002410610206 L 19.089417576789856,214.2133819705341 L 20.492206785827875,212.90530270640738 L 20.541427433490753,211.74448976409622 L 19.51599675603211,211.89169148122892 L 18.027071388438344,213.03148111980408 L 15.787530768662691,215.21025818702765 L 3.9622641894966364,222.3325141707901 L 1.5012305043637753,224.51627882383764 L 0.01640694960951805,227.0789660345763 L 0.0,230.10907195229083 L 1.8949958868324757,233.69515745923854 L 4.737489715218544,236.20403104508296 L 7.645611140877008,238.02269676071592 L 9.782608753070235,240.32568322890438 L 10.278917141258717,244.2921900297515 L 10.90648072399199,244.2921900297515 L 10.623461876064539,242.0688492776826 L 10.278917141258717,241.4625172035303 L 12.776866337284446,241.2814624439925 L 13.929450394585729,240.92777785402723 L 17.44872845336795,237.93428643606603 L 18.08859727345407,237.56801826506853 L 19.91386385075748,235.10952586098574 L 21.981132052838802,233.69515745923854 L 22.067268311977386,233.02167611732148 L 21.858080383390188,231.46010888949968 L 21.981132052838802,230.803521346068 L 25.278917146846652,227.50400105747394 L 29.569319119676948,226.5739829018712 L 39.94257594458759,227.2136298220139 L 39.94257594458759,227.9837520357687 L 34.69237079098821,227.849084232701 L 32.0590647906065,228.13946261373349 L 30.92698939330876,229.07374570565298 L 31.944216545671225,230.72776230587624 L 37.47744054719806,233.623599301558 L 60.60002114996314,235.11047246307135 L 62.09245348535478,234.95008916244842 L 64.41054214723408,233.52005000924692 L 65.60084149427712,233.43986329995096 L 66.1478062812239,235.12651080684736 L 68.24971353821456,236.16100715938956 L 70.82826163060963,237.79436650360003 L 71.9742828477174,239.03750036726706 L 74.33404496498406,242.74319943692535 L 74.90705567598343,243.19508553971536 L 76.39167419448495,243.93844201648608 L 76.90217466838658,244.47057038522325 L 77.1730523891747,245.4840513144154 L 76.20935263298452,246.10980910155922 L 75.9541024453938,246.7623250244651 L 76.82403679937124,252.20774146704935 L 75.69364301487803,254.73292812565342 L 76.59483253583312,257.9245468596928 L 77.31370039284229,259.31314714998007 L 78.12633375637233,260.32989715924487 L 82.97087846137583,264.50970576750115 L 84.30443058721721,265.43032037769444 L 85.92448796704412,265.8986692256294 L 87.6591475289315,265.7514729266986 L 93.46218274533749,262.8773036284838 L 94.40504582412541,262.5775952991098 L 95.35832719132304,262.82913597952574 L 96.80648139864206,263.8219431210309 L 98.18691622465849,265.10381953883916 L 98.9682943187654,266.4660519924946 L 99.18708029389381,268.05853939638473 L 98.37444693222642,271.6533827658277 L 97.64516068436205,272.9731384336483 L 96.99401210434735,273.56209846260026 L 95.7073427811265,274.0413080819417 L 95.3218628782779,275.07471877429634 L 95.47813851758838,276.5553012830205 L 96.75959869660437,279.4176533150021 L 96.9262927249074,281.03239009459503 L 93.67055033147335,293.46911936905235 L 93.6184584852308,295.23482300923206 L 94.24356104061007,298.5549032506533 L 94.17584156058729,300.21377177350223 L 93.79036165773869,300.8837827821262 L 92.49848308973014,301.8673922040034 L 92.102584797889,302.4034357035998 L 91.90984484553337,303.3442204785533 L 92.29532474838197,310.6733968819026 L 92.70164132863283,312.7513807537034 L 94.34253558889031,313.9821672181133 L 96.62936897948384,315.13792981323786 L 98.73909005522728,315.3202825684566 L 103.13564462214708,314.76786534837447 L 111.35574314929545,316.3420195749495 L 115.33556264638901,316.57801742642187 L 118.67465205304325,314.735686046537 L 120.46140346117318,314.2288683198858 L 121.9251852016896,314.698143633781 L 123.27957410551608,315.41682282299735 L 124.75377423502505,315.62599465833046 L 126.34257654845715,313.9821672181133 L 126.94163317978382,313.5531278734561 L 128.5981549732387,313.142866036389 L 133.80213355831802,313.4780467620585 L 135.65139530226588,313.93389989528805 L 137.1568505987525,314.67132767499425 L 138.3289178404957,316.00411758059636 L 138.91234694048762,317.570306167705 L 139.70414342358708,320.6466600126587 L 141.2981548793614,323.17884383443743 L 147.9034051708877,330.3074037635233 L 151.38314258307219,335.7605564405676 L 152.44060774333775,336.4664440273773 L 154.84725246019661,337.56691872049123 L 156.02452894672751,338.80434213997796 L 157.67063235118985,342.02838664967567 L 158.80102613568306,343.05931384535506 L 160.186670107767,343.7815262884833 L 167.90147730335593,344.93335303943604 L 167.87543138116598,343.7815262884833 L 166.78671115264297,341.547839443665 L 167.0732164066285,338.79360498697497 L 174.1941763162613,333.60276303370483 L 176.37682591564953,330.7045403518714 L 177.0540204178542,330.0712716104463 L 178.45529192313552,329.5882812400814 L 180.2993444222957,330.16787087055854 L 181.67457000352442,330.2537370903883 L 183.8884748723358,329.2743427413516 L 185.07096050307155,327.4739709275309 L 186.05549703724682,325.3437498160638 L 187.66253145597875,323.38271770090796 L 189.8946685306728,322.60746994870715 L 192.24922140315175,322.6825793676544 L 194.3016413860023,322.5109010094311 L 195.64300722815096,320.99535600142553 L 195.89825751632452,320.89342898037285 L 196.81246999837458,321.7329987890553 L 197.64593993872404,323.40954331331886 L 197.85951666906476,325.01645296858624 L 197.28650606051087,326.22103474172764 L 195.77584161795676,326.69322576606646 L 195.395570859313,327.5973901313264 L 195.81491040065885,329.59901426755823 L 196.81246999837458,332.72252501687035 L 196.93228122405708,334.99832854163833 L 197.4219449199736,335.567313342588 L 198.46638701669872,335.3257615342736 L 200.2557430975139,335.2023026854731 L 201.53980794921517,335.8088674850296 L 203.58701868914068,337.58839182485826 L 204.44653475284576,337.3307150155306 L 205.06903263553977,337.3307150155306 L 205.02214993350208,337.81922977161594 L 205.76185467094183,338.0366489577573 L 205.4336758609861,339.1291429619305 L 208.9681097920984,340.21363348630257 L 209.95004175417125,341.23105950676836 L 210.90332312136889,342.6780803282745 L 213.11201874352992,343.4110205390025 L 215.63847478851676,343.8674416213762 L 217.52159627340734,344.490336230956 L 218.46185467951,345.91338940663263 L 218.68584969826043,347.5701455853414 L 219.26667422428727,348.9477310106158 L 222.89226898737252,349.9467318390962 L 224.61130091361701,350.94846040871926 L 227.22110407426953,353.0057625856716 L 228.38796217180789,354.4642456676811 L 229.50012374855578,356.4708143786993 L 230.33098921738565,358.4480020322371 L 231.06288013793528,361.10779602685943 L 232.03178903833032,362.73874767217785 L 233.19083331897855,364.26232540863566 L 234.16234689205885,365.2001675912179 L 236.10276936739683,365.2001675912179 L 236.67317550443113,366.29929088265635 L 238.34792940318584,368.4466270604171 L 239.29339695349336,368.68851700169034 L 241.68962328135967,369.88456533290446 L 242.7366700526327,370.11034310166724 L 246.5524001941085,370.11034310166724 L 249.04760127328336,370.55384156038053 L 251.56884807161987,371.3924797119107 L 253.64210483431816,372.65318164997734 L 254.81156760454178,374.3709639115259 L 254.70998838357627,376.74219515617006 L 253.41550514288247,378.817892862251 L 251.61573077365756,380.46621488779783 L 249.99306882172823,381.5391660055611 L 252.7487291302532,383.6717697130516 L 252.86333131417632,384.33068446582183 L 252.62891780398786,385.9202253688127 L 252.7487291302532,386.58189382380806 L 255.0772360805422,389.067354289582 L 255.4366700593382,389.74256339180283 L 255.63982840068638,395.0050297465641 L 256.07740025036037,397.8950551045127 L 256.8770104497671,399.377881473396 L 258.71324923262,398.9069190628361 L 260.32288832217455,397.1254225145094 L 262.0341065339744,395.84186190366745 L 264.16466438770294,396.85363533580676 L 267.75379483774304,400.467860376928 L 268.50131319090724,402.2227006468456 L 265.88630098849535,402.2200090936385 L 266.4853575192392,403.0221126116812 L 268.70447163283825,405.13247902924195 L 265.84983657486737,407.17304411088116 L 265.30547646060586,408.1880105198361 L 267.40998839214444,408.86647469573654 L 267.73816720210016,409.4884179732762 L 268.26689978316426,413.34430673881434 L 269.16288005933166,414.97356227366254 L 270.5407102126628,416.27705074613914 L 274.12202694639564,418.77381734433584 L 278.74257663451135,423.2643804338295 L 280.3964936528355,424.23157093138434 L 286.4235240891576,425.33351823780686 L 289.0776052791625,425.4493739763275 L 291.6952221542597,424.65725575597025 L 293.90912702307105,422.9976694700308 L 295.39114096947014,420.5300682457164 L 294.23470126092434,419.01084939204156 L 296.24023854359984,418.75765629368834 L 296.5189301818609,417.4998125648126 L 296.41735106147826,416.11276399809867 L 298.47758476249874,414.7096417979337 L 299.5298406779766,412.96730549191125 L 301.0509236101061,409.3995679097716 L 302.9132082145661,410.5223353502806 L 304.8432122990489,410.31231698882766 L 308.7474985998124,408.62147146766074 L 311.01870455779135,408.131472801324 L 318.37928702123463,407.91070746141486 L 317.99641169048846,407.17304411088116 L 317.69427880086005,405.13247902924195 L 319.2231754511595,405.6062616335694 L 320.2884543258697,405.0167268724181 L 321.3433149140328,404.10957302572206 L 322.88783909752965,403.64658851665445 L 324.0052099209279,403.9749836185947 L 326.6150129791349,405.4393597957678 L 330.3734420295805,406.766531847883 L 332.2305174898356,409.06571008777246 L 333.6291844230145,411.6963191158138 L 334.9601319767535,413.66476267622784 L 335.9420638382435,412.6603235071525 L 336.66353636980057,409.95152093376964 L 337.43449617549777,409.3995679097716 L 342.534291068092,408.62147146766074 L 344.6023386865854,409.71727589285 L 345.1180483046919,412.01136632147245 L 344.5971294399351,416.90188995422795 L 345.1545125152916,418.13815272273496 L 346.4229498337954,418.2297303888481 L 347.8164076227695,417.74221816961654 L 348.72541086003184,417.2250894140452 L 351.88738794997334,413.9879159673583 L 353.10894236527383,413.4816443256568 L 354.5909563116729,413.5974395694211 L 357.04969307780266,414.316460021073 L 357.6461450383067,414.6665530935861 L 358.5681713372469,415.60105874133296 L 359.48759296536446,415.80035310517997 L 361.2352754883468,415.358676004922 L 361.92549295164645,415.80035310517997 L 361.92549295164645,416.5813883470837 L 361.0425355359912,417.4432516992092 L 360.3445043563843,418.399419502588 L 359.1750416867435,420.84793194243684 L 360.27938954904675,421.7746108286083 L 361.01648961380124,421.8284886381589 L 363.32415988482535,420.35497577651404 L 363.96488997526467,419.5037763 L 365.02495970577,419.36101490142755 L 366.7257594279945,419.41758065647446 L 367.24407371878624,419.1320599494502 L 367.4368136692792,418.3266954412684 L 369.1688686590642,418.1166051577311 L 379.13404503650963,418.64991531241685 L 378.61573074385524,419.50646989629604 L 378.636567523703,420.4681123935152 L 379.13404503650963,422.85488602682017 L 380.35039040632546,422.16792197641917 L 381.9730523582548,420.4223188336473 L 383.2623263541609,420.0748306841124 L 382.6398284714669,421.49444795469753 L 383.76761758327484,421.0795981322881 L 384.70266684517264,420.0748306841124 L 385.9294305052608,421.1873506733682 L 387.7239958308637,422.19216741714627 L 389.7243238668889,422.8387218534481 L 391.58400400169194,422.85488602682017 L 390.3025437220931,423.89749494264834 L 389.5836758632213,425.1179742333479 L 395.20438951812685,425.4628456076607 L 397.2984829582274,426.28463084669784 L 397.0927201472223,427.90403956593946 L 398.36636660806835,427.98487837798893 L 399.40559956245124,427.83936878782697 L 400.1531180161983,427.3678164796438 L 400.533388774842,426.4786304621957 L 401.2809071280062,426.4786304621957 L 400.32502118870616,429.4723632801324 L 400.71571033634245,430.63116049580276 L 402.59622714854777,431.5312908492051 L 404.5939506124705,431.80888317502104 L 406.8312968313694,431.69029966765083 L 408.6857677195221,431.13781625265256 L 409.54267911054194,430.0409749071114 L 410.29280213825405,430.0409749071114 L 410.7277693133801,431.3156874291599 L 410.94134604372084,432.71984138689004 L 411.43621888384223,433.84915738669224 L 413.9053739383817,434.7790666290093 L 416.41620255075395,436.79265403887257 L 417.86696122959256,437.2266638078727 L 417.1741392929107,438.6500591344666 L 419.2395823393017,437.9356543584727 L 418.93224020674825,439.3348307106644 L 419.06246992200613,440.5480604143813 L 419.6250622421503,440.99562387447804 L 420.6148079223931,440.07354499353096 L 420.83880304172635,442.29792309738696 L 421.37014019303024,442.9908958892338 L 420.69034111872315,444.0020814894233 L 421.03154299221933,444.5279161033686 L 422.04733459465206,444.6438710184302 L 423.3730729036033,444.4173549581319 L 423.90701462700963,443.902309138095 L 425.13377838768065,442.00941561185755 L 426.06101383268833,441.49712147796527 L 428.42598509415984,441.7775335502811 L 430.4679867886007,443.004378054291 L 432.03855689428747,444.7463434152305 L 433.0048612225801,446.555866264971 L 434.2628801520914,445.54186811554246 L 435.55736329220235,445.0294930804521 L 436.60961930826306,444.37420934741385 L 437.13314264267683,442.9908958892338 L 438.6568300463259,443.99668831867166 L 440.3888850361109,444.1126404716633 L 444.8323223050684,443.64074590057135 L 443.63160446844995,443.0502174340654 L 443.55346659757197,442.50015035737306 L 444.2931713350117,441.9797560980078 L 445.51993509568274,441.49712147796527 L 450.40094401314855,441.49712147796527 L 453.06283912062645,442.72395047103055 L 454.46671529859304,442.9908958892338 L 457.86831483989954,442.7913606753573 L 459.1999008413404,443.01178763620555 L 458.4618539698422,441.9378683799878 L 456.6160787306726,441.0759161156602 L 455.7013945877552,440.0951143123675 L 454.2206726446748,441.86143775703385 L 453.00656280107796,440.6385835572146 L 452.0385561976582,438.4265762967989 L 451.29204265773296,437.242117180489 L 450.0041016917676,436.6138273116667 L 448.7735849004239,435.1153422880452 L 447.8630024679005,433.3453062956687 L 447.5061525981873,431.9064589848276 L 447.2395405974239,431.4183753540274 L 445.9557014461607,430.1536514230538 L 445.43888429552317,429.4109774674289 L 444.749794928357,425.13789561972953 L 443.9253486543894,423.83533946820535 L 442.7112387120724,422.906200342346 L 439.2411812990904,421.5189267343376 L 439.76620177552104,422.63892077910714 L 440.61936013400555,423.65290269372053 L 440.61936013400555,422.8722598934546 L 440.9598031565547,423.4534967900254 L 441.15668584778905,423.9329224633984 L 441.25102543085814,425.13789561972953 L 440.1435603071004,424.5735868103802 L 439.2411812990904,425.13789561972953 L 439.2411812990904,425.78283714526333 L 440.4470878187567,426.35566258151084 L 441.5955701638013,426.5041752930265 L 442.60459389165044,426.13077387586236 L 443.3757178056985,425.13789561972953 L 443.2977850716561,427.10672248597257 L 442.21493032202125,429.80565256509 L 441.94011489860713,431.9064589848276 L 441.3166530262679,433.9947277724277 L 439.87284659408033,434.3385466998443 L 438.24036099761724,433.7273166109808 L 437.0508613269776,432.97603580355644 L 435.06562757119536,431.11704199342057 L 430.6029532812536,425.3500454099849 L 429.5447088070214,422.8722598934546 L 430.8654634691775,424.3656871363055 L 432.2477440163493,423.25409264606424 L 433.3429040014744,418.9736916765105 L 434.01968823187053,418.0193023199681 L 435.34864642098546,417.21764623443596 L 436.80065627768636,415.81375603866763 L 438.326497156173,415.3132964456454 L 439.87284659408033,417.2430952365976 L 439.1386381909251,417.88357013231143 L 437.28055781684816,419.0288354707882 L 436.4315012693405,419.3809100543149 L 437.56767847947776,420.01720346393995 L 438.73256767354906,419.6736027651932 L 439.7908121496439,418.647073893575 L 440.61936013400555,417.2430952365976 L 440.55373253673315,419.62269943603314 L 441.28383922949433,420.36080927215517 L 442.1862182356417,419.4572643281426 L 446.12797376327217,401.2031677584164 L 447.2887612450868,398.67291469080374 L 448.12551275640726,393.70222434564494 L 453.0147662255913,379.43174219620414 L 453.53978670202196,375.345791811822 L 453.05578344874084,371.7854595016688 L 450.3158326279372,365.22079889359884 L 441.94011489860713,351.6655633635819 L 438.326497156173,347.25882559106685 L 437.8096801042557,345.53779808152467 L 437.1000820752233,344.26930720126256 L 432.3010664768517,340.8954504141584 L 430.2748153973371,338.01663430407643 L 428.87612800113857,334.70705842319876 L 426.4520098268986,325.06835512514226 L 422.57178018428385,311.97079438949004 L 420.1845775227994,300.13795148651116 L 420.33223956637084,295.0528105846606 L 419.9138638097793,292.57603146648034 L 419.89335524849594,290.5930998080876 L 417.78096801042557,285.43400430935435 L 415.98441341891885,278.58920928207226 L 414.8769482970238,265.25084404228255 L 415.06972927600145,262.75595817458816 L 415.7834290172905,261.32319639553316 L 415.0328137651086,260.6742663823534 L 415.59885156340897,259.40595131739974 L 421.1730926875025,225.4756787829101 L 417.78096801042557,198.2096733234357 L 417.78096801042557,192.18242168729194 L 418.11730932071805,191.19062057277188 L 419.5775226019323,188.22384328069165 L 420.55373252928257,184.93808251363225 L 423.36751437187195,180.9805807825178 L 424.04019689001143,178.40557843632996 L 423.781788315624,175.25122264190577 L 422.723543940112,173.56709132133983 L 420.6808860115707,172.8909485163167 L 417.43642327561975,172.76496106921695 L 414.967186268419,172.25681759184226 L 412.44872851110995,171.34554311423562 L 410.09433964826167,170.96760412771255 L 408.0844955164939,172.05944213829935 L 408.84331419318914,172.79855768475682 L 410.92288763448596,174.27684948337264 L 411.5258408430964,174.9488272368908 L 411.6119770016521,176.158429492265 L 411.23051685653627,177.77971799345687 L 410.5865463241935,179.19947600457817 L 408.37571779079735,181.18222274747677 L 408.55209192074835,187.9381088570226 L 408.0844955164939,190.51823404827155 L 408.5726004820317,190.7325553605333 L 408.8392124809325,191.16120327962562 L 409.4626743532717,191.16120327962562 L 413.0311730597168,190.0139553041663 L 415.5168171171099,193.241504550213 L 416.36177195236087,197.8902029034216 L 415.0328137651086,201.03463269094937 L 415.0328137651086,201.8039821186103 L 415.9023789744824,202.78356882976368 L 416.2469237074256,204.17523327236995 L 416.41099260002375,209.9486959495116 L 417.46923707425594,211.03372756182216 L 417.78096801042557,211.74448976409622 L 417.44462680257857,214.51622645254247 L 415.49220674298704,216.16090131737292 L 412.79327314533293,216.82132437685505 L 410.2173913177103,216.6194098368287 L 408.1337161641568,215.399542710511 L 407.23954058252275,213.48993449960835 L 407.2969647552818,211.38700340571813 L 408.0844955164939,209.5617964018602 L 410.52912225201726,208.157230645651 L 410.8367514759302,205.3315060841851 L 411.26743236742914,204.62512253667228 L 412.12059062719345,203.92716684937477 L 412.27645609527826,202.86345090391114 L 412.2272354476154,201.11871349369176 L 412.0057423822582,200.40403512050398 L 411.5258408430964,199.62211517523974 L 412.96554556302726,197.50348069192842 L 409.8031172733754,195.65401814156212 L 404.4380639754236,191.13178601884283 L 401.20180476643145,189.7492128815502 L 396.84577519632876,189.28276821807958 L 395.01230519637465,188.6776630745735 L 394.26168994419277,187.31622692057863 L 394.26168994419277,181.93839358445257 L 394.38474161177874,181.8207655842416 L 394.7867104187608,182.04762007039972 L 396.84577519632876,181.73674591560848 L 397.6579163335264,181.76195182977244 L 398.3347005639225,181.5519036159385 L 399.14273998886347,180.585702982964 L 399.83182935602963,175.97362557821907 L 399.4298605490476,173.76867755129933 L 398.7243642322719,171.68149323924445 L 398.3880230244249,169.71204510098323 L 399.14273998886347,167.8351142469328 L 401.01312549971044,166.91559180780314 L 404.1714519765228,167.5957835514564 L 404.70877768844366,166.00869606761262 L 404.07301068119705,162.95654349029064 L 403.9581624362618,161.78111562831327 L 404.16735026426613,161.13465199922211 L 404.6349466666579,162.0749678972643 L 406.2346185669303,167.3690510338638 L 406.8498769123107,168.70008186390623 L 407.73995078355074,169.24594938545488 L 409.7292863521725,168.95621831598692 L 410.1517637204379,168.1710207578726 L 405.44298609159887,158.68326731747948 L 403.2075471840799,146.44642961700447 L 403.94585729949176,133.25051778997295 L 404.70877768844366,131.03643574588932 L 403.2690730690956,130.33199202804826 L 403.679245300591,132.44957000156865 L 402.965545559302,134.2108469172381 L 400.45118951424956,137.3604566284921 L 399.3929450381547,139.97352081444114 L 400.25020511075854,141.0808970129583 L 401.7186218164861,142.09183620777912 L 402.5184577163309,144.4662206855137 L 402.0016406662762,146.21567757055163 L 400.67678429186344,148.22957875858992 L 398.9007383622229,149.9666872776579 L 397.00984418950975,150.8688522670418 L 393.94995900802314,150.54155176365748 L 394.0976210515946,149.01000516698696 L 395.7054962757975,148.05755228805356 L 397.00984418950975,149.4589702168014 L 397.7645611539483,149.4589702168014 L 399.4626743476838,147.6757411765866 L 400.1599672399461,146.59746827417985 L 400.45118951424956,145.23395431623794 L 400.08203450776637,143.49294996680692 L 398.55619362927973,141.25287996255793 L 398.3880230244249,139.60021083056927 L 397.81788351386786,137.63307620608248 L 396.0090237855911,137.57016371772625 L 391.8498770073056,138.83682853286155 L 391.3084495831281,138.49289390421472 L 392.5389663744718,137.737930533709 L 395.01230519637465,136.72715077339672 L 395.60705498047173,135.92190865753219 L 396.01722721010447,134.81893274909817 L 396.32075472176075,132.18538805935532 L 396.11566860601306,131.25448140664957 L 395.21328959800303,129.3550252993591 L 395.01230519637465,128.6003104771953 L 395.7547170240432,126.80165601614863 L 395.6316653545946,126.10989671340212 L 395.1066447775811,125.4768471152056 L 393.63412635959685,124.70127616636455 L 391.7678424604237,122.27408756990917 L 391.1936013381928,121.88424796354957 L 390.324036128819,121.58244027523324 L 389.3396226745099,120.84051036438905 L 388.4946677405387,119.90159883582965 L 388.0680885594338,119.013015153585 L 389.38884332217276,118.11607714858837 L 391.0049220714718,116.64080205699429 L 392.37489748187363,115.04826247435994 L 393.2403609789908,113.07028587767854 L 393.97456928156316,112.5297190239653 L 394.95898273587227,112.1735371761024 L 395.9762099869549,112.0478270270396 L 397.461033642292,112.21544068376534 L 397.5717801749706,112.68057388672605 L 397.1534044202417,113.35524013405666 L 397.00984418950975,114.15145076764748 L 397.69483184441924,116.15045790118165 L 398.2485644053668,117.2024033269845 L 399.14273998886347,117.60475142858922 L 400.82444623298943,117.66342773055658 L 401.79245283827186,116.81682519195601 L 406.4602133445442,98.03045178414322 L 406.70631668157876,94.40783509542234 L 406.65299422107637,93.08035512198694 L 406.52584084123373,92.27217187196948 L 406.14027888327837,91.64406595123 L 405.33634127117693,90.8903568808455 L 405.13945858180523,91.18765082326718 L 402.31747331283987,90.4339538316708 L 402.20262506976724,90.18691289518028 L 401.40689088217914,89.84775862330571 L 400.4019688665867,88.35720188566484 L 399.4872846212238,88.02225597109646 L 397.28055780008435,87.84641084331088 L 396.4397046789527,87.44448330067098 L 395.6316653545946,86.67413786589168 L 394.60623467713594,83.48412191378884 L 393.6300246473402,78.67045948794112 L 392.2682526614517,75.03771961131133 L 389.49958985485137,75.37251542322338 L 386.3002461567521,71.27571699908003 L 385.3773584868759,69.69406306440942 L 384.8482363000512,67.93258638726547 L 384.8605414368212,57.52487637614831 L 387.9491386022419,44.04798571392894 L 390.12715343758464,38.69320863368921 L 393.15422482043505,34.01221894752234 L 394.130434749648,31.446342083625495 L 396.53814607299864,27.585400339681655 L 397.3872026205063,26.770654137944803 L 399.2206727229059,25.630046208854765 L 400.74651350080967,21.469070087652653 L 402.5184577163309,21.803263994166628 L 402.1392963193357,22.898109251866117 L 402.9200606197119,22.692019192967564 L 403.7041223216802,20.898729350883514 L 403.92353375814855,20.799658866599202 L 404.12006056681275,20.19851804082282 L 403.8194901533425,18.834390782518312 L 404.8252449966967,18.291051959153265 L 404.88045596703887,16.03619488165714 L 405.8050868399441,12.384363008197397 L 405.5133723411709,9.597381694009528 L 401.9737291652709,7.765165176475421 L 394.8345372490585,6.052366549149156 L 388.14333537220955,3.5019041437190026 L 386.0804969985038,1.0788942610379308 L 385.7054354865104,0.8509184552822262 L 382.9497750774026,1.4023048225790262 L 382.2751852478832,1.1743265385739505 L 380.87130917049944,0.19350901106372476 L 379.8841680623591,0.0 L 378.94651422835886,0.1457943427376449 L 378.2667152546346,0.46919508185237646 L 372.18759297207,5.286145192338154 L 371.7265798728913,7.036021036794409 L 370.61441819369793,7.794331365963444 L 369.25742481835186,7.566306087421253 L 368.06191622652113,6.365223563509062 L 366.3402796257287,6.778836102457717 L 363.83986950293183,5.164187941001728 L 362.6183148883283,6.365223563509062 L 361.92549295164645,6.365223563509062 L 360.766448572278,5.4823384578339756 L 359.6074042916298,5.925103500019759 L 357.73470119573176,7.765165176475421 L 356.5235650707036,7.561003134353086 L 353.3589834086597,7.826148928375915 L 352.23119429685175,7.001552809495479 L 351.6998571436852,7.698878671042621 L 349.48074313253164,9.488665459677577 L 348.8400129415095,10.281507872976363 L 348.6524822358042,10.859579898184165 L 349.1004723738879,11.652457629330456 L 350.91587437689304,12.673417326295748 L 350.540812863037,15.13446760433726 L 348.7983394842595,16.606418564449996 L 346.876149116084,17.59306310256943 L 345.9749595951289,18.598306419095024 L 344.9044715743512,19.327725179493427 L 340.221411652863,21.134106384357437 L 339.1561327762902,22.134160749381408 L 338.8748366665095,22.855705828638747 L 337.09068972989917,25.29104678495787 L 336.88232224434614,26.56185230682604 L 336.90315902233124,27.599229785148054 L 336.6687455140054,28.37131641851738 L 335.71285957470536,28.856865448644385 L 329.4331836234778,24.792290026554838 L 328.47729768417776,24.38904588087462 L 327.37294982373714,24.500468058278784 L 325.3934584632516,25.439614188857377 L 324.5313378274441,26.169196816394106 L 322.2392951902002,29.034636683762074 L 321.3276872802526,29.613063998753205 L 315.2355421371758,32.202855466865 L 312.9096397589892,32.948522988008335 L 310.7374084480107,32.82645524223335 L 308.9793075360358,33.081206005532295 L 305.1427406165749,35.85176042607054 L 303.35598920844495,36.63998192921281 L 300.19922136329114,35.883607401745394 L 282.3369162287563,24.036211628001183 L 279.9745495375246,23.181998405372724 L 277.6564608775079,23.441973803797737 L 219.4698324650526,45.06489482917823 L 216.21148549951613,46.90467620501295 L 213.36726893112063,49.48003014852293 L 210.48137890733778,50.97489951993339 L 207.11884804815054,49.56499397614971 L 204.27984072454274,45.7232740460895 L 202.438392797485,41.69623807258904 L 200.00363375991583,37.71538029797375 z" /><path fill-rule="evenodd" fill="#D2EBD9" stroke="#A6A6A6" stroke-width="0.25" opacity="1" d="M 405.2790758162737,22.767108672996983 L 405.1940879467875,22.34674698114395 L 404.68197251856327,21.861234951764345 L 404.24966728687286,21.808028154075146 L 404.24966728687286,22.160523188998923 L 404.50905042514205,22.3533978308551 L 404.50905042514205,22.55292332242243 L 403.1103113181889,23.039392064791173 L 403.6013125665486,23.110833062324673 L 405.2790758162737,22.767108672996983 z" /><path fill-rule="evenodd" fill="#D2EBD9" stroke="#A6A6A6" stroke-width="0.25" opacity="1" d="M 399.14273998886347,119.77585416450165 L 398.37981949932873,122.57590271160007 L 398.150123110041,126.28178679500706 L 398.86382285133004,129.53112842608243 L 400.9392944779247,130.96934506995603 L 401.0951599460095,130.94418618548661 L 401.25102541409433,130.6632461331319 L 401.20180476643145,130.33199202804826 L 400.5373256728053,129.2753599921707 L 399.84003278054297,127.59405588079244 L 399.31501230597496,125.72000352642499 L 399.14273998886347,124.05987426126376 L 399.7333880607039,120.29560251743533 L 399.7867104206234,118.91661393805407 L 399.14273998886347,119.77585416450165 z" /><path fill-rule="evenodd" fill="#D2EBD9" stroke="#A6A6A6" stroke-width="0.25" opacity="1" d="M 466.91140282154083,147.1093279705383 L 466.70631670579314,149.41281460574828 L 467.6661197859794,151.22133414866403 L 469.0689089950174,151.95148956682533 L 470.217391340062,151.01991538959555 L 469.82362595945597,150.34013800602406 L 466.91140282154083,147.1093279705383 z" /><path fill-rule="evenodd" fill="#D2EBD9" stroke="#A6A6A6" stroke-width="0.25" opacity="1" d="M 495.80393771082163,382.26480708573945 L 497.4446267336607,383.08641820261255 L 498.7817883454263,383.0779478580225 L 499.66776050440967,382.22669180482626 L 500.0,380.5242733680643 L 499.31091063283384,377.6279078051448 L 497.4651353955269,376.78531942423433 L 491.6776046305895,377.2934093049262 L 492.3461854364723,377.3442188715562 L 492.4241181705147,378.00898789288476 L 494.0442986302078,378.9193713052664 L 494.7046760134399,380.08810163941234 L 495.06562759540975,381.2823000217322 L 495.80393771082163,382.26480708573945 z" /></g></g></g></svg>