<svg width="25" height="29" xmlns="http://www.w3.org/2000/svg" xmlns:xlink="http://www.w3.org/1999/xlink" xml:space="preserve" overflow="hidden"><g transform="translate(-1340 -1086)"><path d="M22 23.9352 21.9898 21.5021 21.0702 18.0719 19.3065 17.9483 18.922 17.0435 19.1758 16.2651 20.6974 16.1667 21.1385 15.3304 21.0096 14.0307 18.9293 12.2914 19.7404 11.4321 16.9982 10.0959 15.7152 10.82 15.8869 10.2964 14.5639 10.0438 16.1762 6.64167 15.3009 4.30699 15.8342 3.74628 14.6024 2.60446 14.0992 2.71565 14.2292 1.98834 14.9894 2.06709 15.3427 1.44623 14.9375-0.0291653 13.2399 0.010937 12.757 0.72257 13.9616 3.78602 12.4266 4.26871 11.9841 5.01351 10.3489 4.75103 9.24264 6.81593 8.55247 6.0106 7.68005 6.21403 8.03657 6.21731 7.77735 6.99202 6.90311 6.25997 6.03723 6.79223 5.4135 6.49402 5.50245 5.61797 3.18653 6.59099 2.17615 6.00258 0.458538 6.64896 0 7.55928 2.18595 8.10795 3.81062 6.52063 4.86093 6.53959 4.76981 7.11487 3.12372 7.89432 4.41365 7.89432 3.85854 8.36169 4.23503 8.80464 2.38309 10.0478 3.65051 10.311 3.28564 11.6924 4.02881 11.8641 6.18499 15.0526 7.58203 21.2035 8.33754 20.5794 9.54034 21.0701 11.3131 22.4792 12.5631 24.5065 14.8544 25.5295 19.8485 25.971 20.2693 24.9914 22 23.9352Z" stroke="#A6A6A6" stroke-width="0.859285" stroke-miterlimit="8" fill="#D2EBD9" fill-rule="evenodd" transform="matrix(1 0 0 -1 1341.5 1113.5)"/></g></svg>