<svg xmlns="http://www.w3.org/2000/svg" xmlns:xlink="http://www.w3.org/1999/xlink" width="500.0" height="284.508208994288" viewBox="0.0 0.0 500.0 284.508208994288" preserveAspectRatio="xMinYMin meet"><g transform="matrix(1,0,0,-1,0,284.508208994288)"><g><path fill-rule="evenodd" fill="#D2EBD9" stroke="#A6A6A6" stroke-width="0.25" opacity="1" d="M 496.87609126698226,104.70422830432653 L 499.2221975252032,104.03634137474 L 499.7269754707813,103.62522538332269 L 499.8476141951978,102.80844569625333 L 499.1110828332603,101.5269081434235 L 499.42220386024565,98.67743402859196 L 498.7872630963102,96.91768512269482 L 497.89834599010646,95.14041364332661 L 496.4252833276987,89.33625202300027 L 492.60928914602846,82.80963434278965 L 491.0473347790539,79.315789507702 L 490.9711419073865,78.57677453896031 L 491.3394075576216,76.56050454592332 L 492.17118003964424,75.37997259385884 L 492.0283183278516,74.78619810845703 L 491.1997205847874,73.58090640231967 L 490.52033396903425,71.22809504019096 L 490.58382800780237,70.27001445181668 L 491.61243214830756,68.17195044318214 L 491.7711673080921,67.3893445036374 L 491.39655224233866,65.69575852667913 L 488.9583796020597,60.18882704572752 L 488.72027676925063,55.35297802463174 L 487.82183563150465,53.341016373131424 L 487.72024503257126,52.75964287808165 L 488.10755899362266,51.679046377539635 L 489.0790183870122,50.73765972768888 L 490.19651417061687,48.26350024249405 L 492.2441982347518,47.112251952756196 L 493.0505730519071,46.36029049847275 L 494.3363281507045,44.550180102232844 L 495.56176382582635,42.313068399671465 L 497.01260356232524,38.83400164311752 L 498.3872503647581,36.73734271619469 L 498.91425123717636,35.662534574978054 L 499.1555287465453,34.477570282295346 L 499.38410742394626,31.514168875757605 L 499.92380706686527,28.786557101178914 L 500.0,27.485320372041315 L 499.6507825376466,24.812420011963695 L 498.6221784586087,21.792287301272154 L 495.86018601991236,16.34477578662336 L 494.51728623732924,11.922779757529497 L 494.4760151235387,11.223863097839057 L 494.66649730317295,10.365380150265992 L 494.171243513003,7.556452319025993 L 492.3362646168098,4.2451862334273756 L 490.0219054389745,1.7892210641875863 L 488.10755899362266,1.5624459232203662 L 487.23134065885097,2.4128861669451 L 485.2503253724426,3.6107441638596356 L 484.3772818380967,4.422413789667189 L 483.30423184577376,6.83664809493348 L 483.14867136254907,6.80119147291407 L 481.66925934609026,8.020991461817175 L 481.61528939940035,8.290507563855499 L 480.52636589761823,8.017445220146328 L 478.65329056512564,6.428906333167106 L 477.5992888826877,6.41826982377097 L 475.4214419396594,7.3862464260309935 L 474.6341153709218,7.074211718980223 L 473.7769452845678,4.574832599144429 L 472.87532934639603,4.114040416199714 L 471.8530746838078,4.2451862334273756 L 471.03400103282183,4.971844356507063 L 470.0276198806241,5.517767959274352 L 468.7037683464587,5.056920861825347 L 466.51322263199836,3.369740433525294 L 464.24013456795365,2.349099973682314 L 462.0940347677097,2.944457568693906 L 457.6875456124544,5.4610469290055335 L 455.8017715085298,5.819105605594814 L 453.7636115383357,5.705659492406994 L 451.78259625285864,5.134908519219607 L 450.07460549660027,4.110495994333178 L 449.36982127744704,3.125200057402253 L 448.2205784134567,0.6554103689268231 L 447.4713482800871,0.0 L 446.63957585860044,0.15233375411480665 L 443.24899201188236,1.8140250532887876 L 442.27435787860304,3.7702360157854855 L 441.6394171155989,4.411779977846891 L 439.7568176891655,3.8269449966028333 L 436.47417379543185,3.4583439165726304 L 434.7090383544564,4.181385348085314 L 433.2962951157242,6.056638655252755 L 432.27721513062716,8.357887940481305 L 431.6486237831414,10.368927447125316 L 430.94383944105357,13.757287291344255 L 430.7184354402125,16.22407837724313 L 430.01682589855045,16.195679223630577 L 426.4865551404655,12.912722046487033 L 422.4737293003127,11.507679616101086 L 420.55938279349357,10.368927447125316 L 419.9276167070493,8.826020755339414 L 418.74027746822685,7.46780298743397 L 417.2354677859694,6.47145224083215 L 415.67351341899484,6.017640186008066 L 412.93691864516586,6.978476243559271 L 412.09562206920236,6.854376466013491 L 411.2289278889075,5.361785932909697 L 410.5844630319625,4.854865638073534 L 409.45426835492253,5.106549257412553 L 405.1620685691014,7.719569797161967 L 401.01907997298986,9.620491307228804 L 399.7809454044327,10.365380150265992 L 398.1142258234322,12.100179660134017 L 397.14911578409374,12.628854939714074 L 395.9554271288216,12.912722046487033 L 394.07282770238817,13.675665754824877 L 390.313978205435,15.720009326469153 L 388.4726499542594,16.39092523464933 L 386.1582907149568,16.277327032294124 L 385.72970570251346,16.760130981449038 L 385.7043080376461,17.732928838580847 L 385.25984951574355,18.205169891007245 L 384.2185466038063,18.41111836535856 L 382.9073938410729,18.208720652852207 L 380.5771612152457,17.406282578594983 L 378.7771040154621,16.394475245848298 L 378.1326391585171,16.515175200998783 L 377.05323974974453,17.353026278782636 L 376.12305153068155,17.629962811712176 L 374.2436267817393,17.605109138414264 L 373.8626622380689,17.76133354427293 L 369.3069620775059,20.708876098506153 L 367.44341090042144,21.32693496113643 L 365.25286512449384,20.63428608281538 L 363.8052001884207,20.47445267206058 L 362.7321501960978,19.84580634580925 L 358.5351915927604,16.20632892847061 L 357.20816531963646,15.421842772047967 L 356.2113082604483,15.258565891999751 L 355.7858979254961,15.641916972585022 L 355.54144573770463,17.360127102583647 L 355.0557160405442,17.79328892659396 L 353.8429791368544,17.381429612170905 L 353.2905806619674,17.53054858930409 L 349.97618968598545,20.169002402108163 L 349.1063208291307,21.241682592313737 L 348.4523317553103,23.664632523898035 L 348.9063144940883,28.754556871484965 L 348.42693415191025,31.105144136119634 L 347.5634146500379,32.154424347914755 L 342.7473887922242,34.85118826245889 L 342.0838756253943,35.08248452702537 L 337.2234038542956,33.15759698161855 L 332.3184862928465,30.493425538297743 L 331.2073399256915,30.144909635186195 L 330.08031998761,30.486312803346664 L 329.0167941497639,30.54321479378268 L 327.99453948717564,29.618608857505023 L 327.0103812608868,28.42034020088613 L 326.0166989406571,27.67729255044833 L 323.886472588405,27.026739329565316 L 322.9594589853659,27.0018559275195 L 317.2862630421296,28.509226243477315 L 315.48938058130443,30.393847979139537 L 315.4798564873636,32.76983057381585 L 315.2639765813947,34.85118826245889 L 312.85755102243274,35.861825537867844 L 311.4670306481421,35.71235683746636 L 308.0129528231919,34.34947679610923 L 306.45099839475006,34.49180303700268 L 306.41925137490034,36.46328821917996 L 305.3620749535039,37.00072901090607 L 303.8223435739055,37.32107555633411 L 302.40642559621483,38.061482621822506 L 301.88577414117754,39.307518928311765 L 301.5365566778928,40.74604926491156 L 300.6444648941979,42.060187076218426 L 299.2634686753154,42.854475734289736 L 296.20305404253304,43.883966324385256 L 294.75221436750144,44.76751359272748 L 294.098225293681,45.84714536648244 L 293.142639471218,46.06451521907002 L 292.13308357913047,45.7010478223674 L 291.3013111585751,45.05967631842941 L 290.6092257099226,45.04898719443008 L 283.2089907620102,47.07304834993556 L 282.41214003786445,47.63260925048962 L 282.05657321959734,49.115462991409004 L 282.6026223404333,50.69130650162697 L 283.47249113675207,52.27103756926954 L 284.07885961886495,53.76548239728436 L 284.41220357175916,56.509023095015436 L 284.27886595390737,59.15359288081527 L 283.6978951981291,61.73122716229409 L 282.69786339998245,64.24185944488272 L 281.1390837719664,66.55322370212525 L 279.32632780168205,67.8360275910236 L 261.6559255756438,71.09224051842466 L 260.3225499475375,71.95388522418216 L 259.1669576661661,73.6059402693063 L 258.56058918405324,74.9006571341306 L 257.73199150152504,75.54094345355406 L 255.87161500100046,75.24046715302393 L 255.2938188612461,75.41932073794305 L 254.63348043244332,77.10432616388425 L 254.05885903071612,77.74121914198622 L 252.5826216293499,78.33522343821824 L 251.92228320147842,78.72707685967907 L 251.34448712226003,79.31936841690913 L 251.07463727053255,80.58820828935131 L 249.99206318426877,80.83699010079727 L 248.76662750914693,80.32869637059048 L 245.652242930606,76.46390868583694 L 244.34743958339095,75.56956082442775 L 242.39182196278125,75.49444037722424 L 239.1472745044157,76.20274825114757 L 237.72500717174262,75.78061744384468 L 234.8772977059707,75.58029242651537 L 233.6836089901626,75.10096432920545 L 234.21378453914076,73.99576286040246 L 235.96304640825838,72.01466885022819 L 236.35988440085202,70.66324203414842 L 236.34401095286012,70.09843055857345 L 235.38207559101284,69.59799957741052 L 234.94396648462862,68.94391397573054 L 234.53760439809412,69.35851908521727 L 231.7121178591624,70.38798057846725 L 223.1975618666038,74.97934861760587 L 218.7148798396811,76.66425695456564 L 211.99085683003068,77.57304556062445 L 206.21924502775073,77.62313948292285 L 204.6191942859441,77.05065780039877 L 204.30807325895876,76.37804677151144 L 204.1810851180926,75.53378911036998 L 204.30172390397638,74.72896934300661 L 205.23191212303936,73.4521624809131 L 205.14619509596378,72.61895534815267 L 204.72713417746127,71.75008501997218 L 203.40010790433735,69.76599768176675 L 202.36832914780825,68.71160195535049 L 201.17146575450897,68.0361501108855 L 199.79364427365363,67.96825077710673 L 198.3840757124126,68.46500156540424 L 197.76500839740038,69.15478787897155 L 196.66973553970456,71.44618236320093 L 195.91098131332546,72.31501831766218 L 192.86326551251113,74.90423397347331 L 190.59970160387456,75.80565851833671 L 183.08517734799534,75.7484219763428 L 179.1961649712175,76.71255599940196 L 176.37702784780413,78.30838484503329 L 174.84047114662826,78.80580779910088 L 167.21483219787478,79.31936841690913 L 165.83701065648347,80.92648196220398 L 165.17032287362963,83.55622194614261 L 164.57982790004462,88.74138823943213 L 163.83059776760638,91.40968072414398 L 162.7638972522691,93.144843546208 L 161.07178000640124,93.82073250692338 L 153.33185181207955,91.81296309875324 L 148.0808914648369,91.20356691023335 L 145.69986350927502,91.94918773323298 L 142.3822978567332,95.33766839141026 L 137.62024188414216,97.73023990122601 L 130.28667571395636,103.82808766374364 L 127.60722562577575,104.89095994876698 L 126.55957329738885,105.49966559419408 L 124.17854534182698,107.782300978899 L 122.68008507601917,108.28525637136772 L 119.52760406117886,108.60141695663333 L 117.71484809089452,107.79487455636263 L 115.23857895378023,104.85864073503762 L 113.83218513056636,103.88194586755708 L 112.14006788469851,104.01300229690969 L 110.43207718990743,105.03460290050134 L 108.73043585009873,106.31673723645508 L 105.65732244588435,108.09484794875607 L 103.21597506664693,110.72686430905014 L 101.89847294893116,111.81766966916621 L 100.45398262888193,112.34605745365843 L 97.35864629875869,113.07220204360783 L 96.13321056216955,114.0213285246864 L 95.33953457698226,115.30140157556161 L 94.09505065344274,116.18607422942296 L 88.65995741914958,118.99902043957263 L 87.72341978363693,119.7563944957219 L 87.11070194654167,122.13335588900372 L 86.3138512223959,123.41301759984344 L 85.21222894918174,124.61368739744648 L 83.90425092447549,125.56247914861888 L 82.5010317787528,126.06482950458303 L 81.561319405213,125.93518742732704 L 81.16448141261935,125.29601311311126 L 80.90733039285988,124.43366467487067 L 80.34540782310069,123.61821586079895 L 79.45966539531946,123.16642722347751 L 78.43741067126393,122.99723852984607 L 77.77072282601148,123.31042061885819 L 77.96755448356271,124.30045062443241 L 76.96434807032347,124.54887868650258 L 76.57703417073935,125.08536766655743 L 76.82148635853082,125.65610459353775 L 77.75484937801957,126.03782057575881 L 76.91990221757442,127.71976427687332 L 73.35470963921398,131.84699765453115 L 72.51976254023612,133.78980569029227 L 71.26892920024693,137.94024996552616 L 69.99904761184007,139.55994977802038 L 68.5640813857317,140.32302681915462 L 59.59871739335358,142.0515155652538 L 59.1542588705197,142.80763070471585 L 58.824089656583965,144.424785499461 L 58.100257127545774,144.83996044145897 L 57.147845981642604,144.51503901695833 L 55.960506681352854,144.54392031673342 L 53.75408745743334,145.11434972006828 L 52.61119400896132,145.94841123651713 L 52.31594655290246,146.93063039286062 L 52.22388011030853,147.98160510044545 L 51.72545158024877,149.02911699702963 L 50.84923330694437,149.4192630108446 L 48.3316931175068,149.42648806935176 L 47.18879960756749,149.64685764536262 L 46.160195528529584,150.27910181879997 L 43.81726407073438,152.74175832606852 L 42.807708179578185,153.42125680390745 L 40.88383757788688,153.96887693181634 L 39.82983589544892,154.47315724892542 L 39.18854565452784,155.2865855791606 L 37.969459334388375,157.62433668365702 L 37.188482182100415,158.19216257473454 L 34.909044701606035,158.6063053905964 L 32.76294483989477,159.53414232749492 L 32.350233336910605,160.09307146351784 L 32.48357089329511,161.3539837775752 L 32.28673923574388,161.76830487931147 L 29.93745830003172,161.84429652569816 L 28.705673209391534,161.1513547967188 L 28.09612998738885,160.19437060924247 L 27.931045411154628,158.99153338978067 L 28.451696867123246,154.53822821192443 L 28.146925317123532,153.61463615996763 L 26.940537829883397,154.27252551773563 L 24.343629967421293,157.41819414449856 L 23.226134184747934,158.08546586800367 L 21.994349031709135,158.1487603993155 L 19.6260198475793,157.65688603837043 L 18.3942346945405,158.1650362201035 L 17.69579989183694,159.04940977087244 L 16.01955615542829,162.51920872507617 L 15.549699967727065,162.91730933636427 L 13.930600977502763,163.43487251736224 L 12.47023714799434,165.5344547093846 L 11.435283652506769,166.18074035737664 L 9.27013554237783,166.5555035737343 L 8.095495074056089,166.97555082570761 L 7.206577967852354,167.67809749161825 L 5.155719227157533,170.43099274253473 L 3.168354525230825,171.60672253975645 L 1.5048096207901835,171.94552731933072 L 0.3746150666847825,172.84606337966397 L 0.0,175.69698390178382 L 0.22222926188260317,178.38218229683116 L 0.6285914089530706,179.56645010458305 L 1.3905203128233552,180.71100215055048 L 4.247753872536123,182.68854528758675 L 4.768405327573419,183.90436645084992 L 4.5715737314894795,186.22406463045627 L 5.085875771008432,189.35810584761202 L 6.285913842730224,192.03019288601354 L 8.184386840090156,192.95502665359527 L 10.514619527384639,192.80057660816237 L 11.695609349757433,193.1458223364316 L 12.457538315095007,194.0762508236803 L 12.298803093843162,195.1612961324863 L 11.270199014805257,198.10464350925758 L 11.581319980323315,199.12664211168885 L 12.641671202145517,199.26667813025415 L 13.416298938915133,198.65563190216199 L 14.000444433651865,198.51924474118277 L 15.26397660560906,203.1396603230387 L 15.511603593826294,204.77570677455515 L 15.346518894657493,206.10265173297375 L 14.895710955373943,206.49404710019007 L 13.803612776100636,206.559585172683 L 13.467094207182527,207.28964672796428 L 13.01628620736301,210.13777791941538 L 11.714657599106431,212.44406242389232 L 11.270199014805257,213.6266396259889 L 11.511476586572826,214.87867127545178 L 12.165465537458658,215.37808708427474 L 13.955998642370105,215.96685916138813 L 14.324264232069254,216.61401739250869 L 14.495698285289109,217.5237839105539 L 15.467157679609954,218.38260755641386 L 16.025905571877956,219.11022672755644 L 17.803739783354104,220.6076410524547 L 18.24184895027429,221.24427404627204 L 18.019619627855718,222.43195597827435 L 18.24184895027429,222.92095150332898 L 19.689513947814703,223.87349434243515 L 21.073684906587005,225.43579393951222 L 21.80386672914028,226.89437089394778 L 21.899107911624014,228.44820242887363 L 19.911743209697306,233.96695470716804 L 19.90539385471493,235.76362018287182 L 20.807009731419384,237.71981574501842 L 22.41975936666131,239.0400957511738 L 26.08336768206209,240.03138164244592 L 27.391345768235624,241.13256658939645 L 30.534302627667785,245.11801960738376 L 31.899425398558378,247.3331312118098 L 33.23915044311434,251.10224830033258 L 34.15346515271813,251.6188732353039 L 36.36940853111446,251.9046819251962 L 37.5440489994362,252.27844929834828 L 38.32502615265548,252.7841660841368 L 39.925076954998076,254.30886551504955 L 42.11562273092568,255.81556352600455 L 42.72516589052975,256.48653291584924 L 44.56649420410395,259.4534978652373 L 45.42366422805935,260.3559383112006 L 49.11901962477714,263.185070509091 L 50.338106006383896,265.04976570466533 L 49.52538177277893,266.94433411816135 L 51.458776467479765,269.0855194507167 L 52.43974386528134,269.81286177877337 L 53.6334467921406,267.68247081851587 L 54.70963389519602,267.4143800823949 L 58.84632386825979,268.82839843677357 L 59.32886760216206,268.8577808435075 L 59.973332460038364,268.28479371825233 L 61.47179272584617,265.71427496382967 L 62.2559446785599,263.4052842091769 L 63.66551317833364,261.0566936377436 L 64.13219462707639,259.9744046847336 L 64.7861837008968,256.72853744681925 L 65.57985968608409,256.0722108851187 L 67.22753101866692,256.48653291584924 L 68.67202133871615,256.5195329952985 L 71.52290548104793,255.18864999804646 L 72.8943776069209,255.45260677160695 L 73.53566778637469,256.46453280746937 L 73.44042666628957,258.4521447219886 L 74.28807265870273,259.0426690876484 L 75.36747200600803,259.3801338626072 L 75.96431633364409,259.8350032712333 L 76.284961393103,260.54304413544014 L 76.52623896393925,261.64009820017964 L 75.93574399128556,263.2291126959026 L 75.97384042758495,263.7502997033298 L 76.63417885545641,264.23114747041836 L 79.38029778376222,264.36696540005505 L 80.35493185557425,265.0607790648937 L 81.07876438554376,266.0337023558095 L 81.52322296891361,267.19404411129653 L 81.80259691458195,269.4124476243742 L 82.57404997386038,270.7166388211772 L 82.78675514087081,271.39270973950624 L 82.24388075899333,273.77050010254607 L 82.1835613977164,276.2594106448814 L 82.39944124221802,277.38835253054276 L 83.05025551561266,278.410809379071 L 83.3645512200892,279.3966292357072 L 83.21851489227265,280.5224000727758 L 83.38042479101568,281.4459623359144 L 84.60268578864634,281.82130958372727 L 85.75192859210074,281.34660916402936 L 88.00596846826375,279.1280898284167 L 89.25045239273459,278.4549475708045 L 90.8663767054677,278.20483479928225 L 91.56163689214736,278.45862573664635 L 92.25372234079987,281.19206254091114 L 92.55214453488588,281.77715005446225 L 93.00930188968778,282.06787218293175 L 94.17759294155985,282.27764122281224 L 95.00301594659686,282.6603940986097 L 95.51731798611581,283.8824000018649 L 95.91733065620065,284.3204603753984 L 97.29515219759196,284.508208994288 L 98.62852788716555,284.0848614810966 L 106.10178103018552,280.66221442539245 L 107.43198191933334,280.3163630599156 L 111.447982436046,281.2509370506741 L 114.07663737889379,280.09929496375844 L 116.1846407437697,280.2685339516029 L 117.3973776474595,280.0257140561007 L 117.94342676829547,279.628390699625 L 119.10536840371788,278.1974786664359 L 119.7085622092709,278.09449376771227 L 121.47687226627022,278.8043849603273 L 124.07060538884252,278.97727093379945 L 125.50557161588222,278.83381202816963 L 126.46115749981254,278.32621192978695 L 126.73418202903122,277.2338936785236 L 126.05162067431957,273.14933000551537 L 126.22940414492041,271.26410427317023 L 126.89926660619676,270.0296120643616 L 128.02628654427826,269.22877822443843 L 129.63268676307052,268.6484147137962 L 130.57239907607436,267.74857906857505 L 130.28350103646517,266.38986276322976 L 128.8453601943329,263.6989133488387 L 128.91520364955068,262.7336538378149 L 129.3152163196355,261.2401489391923 L 129.88666304387152,259.798319181893 L 130.45810976810753,258.99865308217704 L 131.7121178470552,258.8079205285758 L 132.81374005880207,259.2334080124274 L 133.95028415229172,259.44249323010445 L 136.7186259450391,257.6856374568306 L 139.22346742544323,257.4839388844557 L 140.5981142288074,257.128230068367 L 141.10606685187668,256.69553638715297 L 141.83942347485572,255.52592988172546 L 142.34420135896653,255.11533047258854 L 143.35375725012273,254.95403010444716 L 145.23953141551465,255.09333472093567 L 146.18241846747696,254.48847930319607 L 147.97295151185244,252.44335301220417 L 149.0872726170346,251.61520905559883 L 150.2396900979802,251.00698829255998 L 153.21438776515424,250.0764387906529 L 154.29378705099225,249.42805761983618 L 159.0050477553159,243.51844506245106 L 160.07174826972187,242.7535589588806 L 160.7193879270926,242.77551635727286 L 161.98292009998113,243.17807879811153 L 162.61786086298525,243.13416185462847 L 163.3353439765051,242.6620710049756 L 163.34804280940443,242.08389408094808 L 162.89088545460254,240.53622254962102 L 163.4559827009216,239.33454075362533 L 167.17673576250672,236.4034378649667 L 168.31962921004742,234.62305961316451 L 168.99266641028225,233.9834022819996 L 171.11019399110228,232.92352549545467 L 172.40229850634933,230.7786724353209 L 173.6848788652569,231.23170508397743 L 175.07539923954755,232.28584827762097 L 176.281786727719,232.80292886821553 L 176.8595828069374,232.5343346572481 L 178.25962727423757,231.08921589702368 L 178.88504394423217,231.00153169501573 L 180.25016665365547,231.20978345768526 L 180.96130035072565,231.07825525989756 L 184.46299882791936,227.9989989157766 L 185.79002504050732,225.56721795490012 L 186.4313152814284,225.0543130529113 L 187.32975648064166,225.11454558372498 L 187.69802213087678,225.87388338847086 L 188.17740241251886,227.62285844841972 L 190.2250864757225,228.20716283470392 L 191.6600527027622,228.36420286353678 L 192.3997586807236,228.33133373223245 L 193.1045430228114,228.05560425436124 L 193.94583953730762,227.40740823652595 L 194.55538269784302,225.78261253610253 L 196.5300485668704,224.8535418137908 L 197.95866537746042,223.38808310264722 L 198.4666180005297,222.45932423276827 L 198.6190038053319,221.40298509318382 L 198.40947331581265,220.8155894423835 L 197.7237372836098,219.9546495922841 L 197.62849610112607,219.1193452263251 L 198.65710018016398,217.58577619446442 L 202.59055840969086,218.43366613285616 L 204.26362740714103,216.71975581813604 L 204.42236256692559,215.45099743176252 L 204.26362740714103,214.4084502980113 L 204.37474203761667,213.51912452559918 L 206.23194385971874,211.9776448798366 L 206.36528141610324,211.1979209035635 L 206.29543789941818,210.33631507400423 L 206.5938600935042,209.35096894251183 L 207.32404197845608,208.66258176602423 L 208.74630943406373,207.74483483983204 L 209.30188258644193,205.75678516272455 L 209.97809452470392,205.15974936587736 L 211.67338644806296,204.46630355902016 L 212.75278579536825,203.707411815878 L 213.34328076802194,202.64291446423158 L 213.9274262022227,199.99963814020157 L 214.20680020935833,197.7627973407507 L 214.61633697338402,197.1918775262311 L 215.36874184478074,196.88461775984615 L 216.93069621175528,196.6737250429578 L 218.3085177531466,195.68297567917034 L 221.7149750487879,195.16311382083222 L 222.7435791278258,195.58663485292345 L 223.1975618666038,196.57373505225405 L 223.91504491865635,198.96296715550125 L 225.169052997604,200.18880117405206 L 226.65798910800368,200.7108443058096 L 228.23264230787754,200.77269160887226 L 229.78507251944393,200.6162553182803 L 231.1724181547761,200.79270119592547 L 233.91536234412342,202.14802224747837 L 235.82018475793302,202.81213172525167 L 236.71545128058642,204.12051565479487 L 238.61709895543754,204.64102371642366 L 240.53144546225667,204.8121080812998 L 241.29337436612695,204.61554342322052 L 241.86482109036297,204.3097869446501 L 242.23308680206537,203.76928492588922 L 242.39182196278125,202.83396652992815 L 243.9315533414483,203.4526459965855 L 244.64586177747697,203.28887275140733 L 246.0395567677915,201.69864594517276 L 247.1348296860233,201.89149227831513 L 248.30312073789537,202.3572556199506 L 249.38886944018304,202.3317834092304 L 249.96666558086872,201.65498335566372 L 250.34763006307185,199.74864094983786 L 250.7793898144737,198.98660888243467 L 251.6175116514787,198.7865660469979 L 252.5984952012077,198.9284140295349 L 253.42709294520319,198.81384426960722 L 253.8080574274063,197.82098279241472 L 253.41121937334538,196.65372701827437 L 252.5826216293499,195.55028016865253 L 252.00165081210434,194.39247834356502 L 252.35404295194894,193.0458811498247 L 254.08743137307465,191.20357522042468 L 254.65570335835218,188.31751194503158 L 256.0525730876252,187.46771370666102 L 257.42721989098936,187.01743368525058 L 258.0939077353105,186.10969590675086 L 256.576399221085,180.1178441364318 L 258.32248641271144,177.2651935867034 L 261.4463951466605,175.42144895670936 L 265.62430550158024,174.5477820537053 L 266.37988511193544,174.2287928396836 L 267.0116511983797,173.67421980947256 L 268.0243817055598,171.95639829942957 L 269.846661769785,170.19188444828615 L 270.7736753728241,166.97917199740186 L 271.57370077446103,165.61591609520838 L 273.10390806011856,165.1543132783845 L 274.50712720584124,165.1941367057152 L 276.55798594653606,164.13164987415075 L 277.77707226667553,163.6900482662022 L 281.18035488482565,163.11636778432876 L 281.7327534221113,162.79787681996822 L 282.32324833329767,161.5674738427624 L 282.7423092518002,161.05727900052443 L 285.10746369790286,160.36802950082347 L 285.83447090443224,159.79460884770378 L 285.51382578443736,156.55028906092048 L 286.3170259241015,155.97174261091277 L 289.1298136310652,155.83434447506443 L 290.29810468293726,155.2215079977177 L 291.9045049017295,153.36703916592523 L 292.9712054170668,152.5086470413953 L 293.75853198580444,152.18338771769777 L 294.49506334774196,152.08219886617735 L 297.8951712269336,152.29903377126902 L 300.3174704192206,151.7425035503693 L 300.9174894243479,151.93764571473002 L 301.40639385953546,152.37854156037793 L 302.1746721798554,154.02309900242835 L 302.5429378300905,154.4442370440811 L 304.37474204972386,155.44385868497193 L 305.4636654900387,155.85242308396846 L 306.8637099582702,158.23013979336247 L 307.2827708767727,158.62619927339256 L 308.6859900224954,158.94993502506986 L 309.92094985209405,158.45800708979368 L 312.18451376166195,156.85946849314496 L 315.20048254169524,155.8921960676089 L 315.6322422316298,155.0660471539013 L 314.7560240197927,150.98908637976274 L 314.3814089531079,150.35497476253659 L 313.93377569224685,150.011746219825 L 312.87659920938313,149.56918561644852 L 312.5115082981065,149.0616283765994 L 312.4099177615717,147.3423345941119 L 312.0353026948869,146.4033935321495 L 310.4511254020035,145.44110285164788 L 310.07651033531874,144.7533132713288 L 310.5749388644472,140.93462745798752 L 310.5749388644472,139.57438071398064 L 310.2384202340618,136.59137147758156 L 310.67970414087176,135.56725314632058 L 312.03212801739573,134.73976779775694 L 313.5528112091124,134.71993815153837 L 314.8068192265928,135.34009113442153 L 315.97511027846485,135.5816763159819 L 317.9497762089595,133.76457116333768 L 319.0672719925642,133.3049572557211 L 321.2578177070245,132.97333191195503 L 322.08959012757987,133.1751891002059 L 323.8039303002879,133.95923972176388 L 324.5150639358908,134.07820641761646 L 325.3214387539774,133.70328768948093 L 326.52782624121755,132.57684275787324 L 327.585002662614,132.46691089542583 L 328.5215403595939,132.9066481711343 L 329.96920535713434,134.49820993561298 L 330.8200260270387,135.03181092441082 L 331.8232325017452,135.0750775365159 L 334.53442967217416,133.82225021719933 L 335.87732939329,134.06739114038646 L 337.29642210993916,134.0890216412954 L 340.0393663002178,133.56269796565175 L 341.28067554626614,132.7120071137324 L 342.10609855130315,131.85060169175267 L 342.89659985899925,131.87222567247227 L 344.5728435954079,134.43511779839173 L 345.05539861507714,134.84071967145428 L 346.3570271618664,135.3184570595622 L 346.7824375582859,135.72591011272743 L 346.83958224300295,137.00610750028864 L 347.0332391615957,137.5759564973414 L 347.8808850925416,137.73826324706897 L 348.19200605805963,136.21812887629494 L 348.2999460119754,133.12472423678264 L 349.27140540536493,131.3298421180807 L 350.43334704078734,129.80741522554308 L 351.79212039522827,128.53205935284495 L 353.39852055348456,127.47663332847878 L 356.10971778444946,126.24849292589352 L 357.42404522560537,125.44364854320884 L 358.35105876717716,124.35805634455755 L 358.8653608066961,122.09916259814054 L 359.9320613220334,120.66138603305444 L 360.0146036716178,118.49714502412826 L 360.49715862981975,116.88381649926305 L 361.1511476421729,115.93792379880324 L 363.3035969203338,114.01054234150797 L 364.0782246561721,112.72350002778694 L 363.74805550370365,108.55111786490306 L 364.4528397228569,106.82318651070818 L 365.53223913162947,106.39216362684965 L 368.37042444199324,106.72261230554432 L 369.90380646660924,106.55738615244627 L 370.5355725530535,106.66155007109046 L 371.3927425779402,107.06025964906439 L 373.67852947395295,109.28587837005034 L 373.6404329761863,110.01352380262688 L 372.6181783750653,111.4456638507545 L 372.7737387968227,113.37777887331322 L 372.2372138928622,114.0213285246864 L 371.60862248390913,114.4563850602135 L 371.5133813628927,114.86090233270079 L 371.9483157917857,117.43054665671661 L 371.0562240080908,119.02060726331547 L 370.96733224298805,119.72041295142844 L 376.32623260468245,125.27620861120522 L 377.55801769532263,125.03135693073273 L 378.1739102723077,123.67401637742296 L 378.24375378899276,121.94439486134797 L 377.3262643404305,119.37679839553311 L 377.4627765752375,118.72379426239058 L 378.36439251340926,117.41256148880348 L 378.78662810940295,115.39130257396027 L 379.2183878608048,114.55706287827343 L 380.1612749127671,114.01054234150797 L 381.39940948132426,113.65101110748947 L 383.82805796619505,113.2429640237242 L 384.8471380127594,112.45569357322529 L 386.2948029488325,110.60647214064375 L 386.87894850596786,110.18241945561022 L 387.48214224912226,110.06742623122409 L 388.4726499542594,110.53819086868316 L 389.0440966160968,110.6280347397551 L 389.59649509191513,110.34053799556568 L 391.66957675945014,108.60500980634242 L 392.8727895691991,108.11281072674319 L 393.70456199068576,108.17747738864273 L 397.2729292465374,110.05664565926418 L 398.10470172949135,111.06828552251682 L 398.4919638391584,112.39001428289339 L 398.4570938702673,115.22948153922334 L 399.8190418407321,117.66076078685 L 400.1746087195352,120.85211401805282 L 400.75240479875356,121.62767094420269 L 401.7333883475512,121.79862824315205 L 403.4128066999838,120.39869333384559 L 404.3620432289317,119.96509051742032 L 405.2731832610443,120.18818590277806 L 406.6446553869173,121.42072789696977 L 407.41293370723724,121.81482440140098 L 408.52408007439226,121.73744304245338 L 409.7272928841412,121.2515787370503 L 411.6987840766087,119.73120736191049 L 411.9591098353267,118.89108746405691 L 411.72735641896725,116.81008291430771 L 412.1940378667787,115.87319024372846 L 414.0480650123209,115.21869368758053 L 418.3783611720428,115.40568685065955 L 420.0800025118515,114.0213285246864 L 420.6165274782106,112.33527360949665 L 421.6102098589763,111.19048217264935 L 422.94041074905545,110.5597532717511 L 424.515063947998,110.41959847928956 L 427.48658687621355,111.07187955221161 L 428.5278897881508,111.00359404878691 L 430.05492233484983,110.07101971283555 L 431.98831709101796,108.00862678093836 L 435.3376297634095,103.57136901468039 L 437.7504047388211,102.26636819075793 L 439.35997963510454,102.17662401404232 L 442.4870630465448,102.53919701557606 L 446.0268579600379,101.59151828242466 L 447.46499886363745,102.46021920396015 L 448.8110733246431,103.69523916207254 L 450.53176285140216,104.31282500969246 L 451.85243970900774,103.9070798093453 L 451.56671634688973,102.96281921304762 L 450.85558271128684,101.79971021832898 L 450.85558271128684,100.74804073618725 L 451.9413314126432,100.78034240193665 L 457.39547283388674,102.32918977038935 L 459.78919962234795,102.91973784612492 L 460.83685194980353,103.03103177761659 L 462.04958885349333,102.68997505865991 L 462.894060106948,101.228990834672 L 463.4020127300173,100.82341148098931 L 464.42426739260554,100.79469875711948 L 466.3354392228648,101.83201638702303 L 467.25610334891826,102.11739346059039 L 468.72281659487635,101.85534864384681 L 471.2117845034227,100.86648080591112 L 472.830883493647,101.01363625191152 L 474.6468141414225,101.88944990932941 L 476.08812972251326,103.2141317492351 L 477.2437220038846,104.88377793552354 L 478.19613321032375,106.79445091588423 L 478.9167910013348,107.87929691700265 L 479.58030416816473,108.0014417921193 L 480.77399282343686,107.32607777277008 L 485.59319341927767,107.09618051489815 L 487.54881103988737,106.22335308371112 L 488.2885170793161,106.06891266303137 L 489.1107654068619,106.21616979967803 L 490.726689719595,106.87706614192575 L 491.4536969270557,106.9596822746098 L 492.8569160718471,106.48554980475456 L 495.49509504716843,105.01305633177981 L 496.87609126698226,104.70422830432653 z" /></g></g></svg>