<svg xmlns="http://www.w3.org/2000/svg" xmlns:xlink="http://www.w3.org/1999/xlink" width="374.931378999725" height="500.0" viewBox="0.0 0.0 374.931378999725 500.0" preserveAspectRatio="xMinYMin meet"><g transform="matrix(1,0,0,-1,0,500.0)"><g><g><path fill-rule="evenodd" fill="#D2EBD9" stroke="#A6A6A6" stroke-width="0.25" opacity="1" d="M 204.10221829637885,444.12242234824225 L 205.5352082643658,443.9361427738331 L 206.42560976743698,442.55386535963044 L 208.3204955533147,442.16882515046746 L 208.09420647472143,440.7193823787384 L 205.65253188461065,439.62940315855667 L 203.70086153037846,438.14287747396156 L 202.91757665202022,437.8025566637516 L 201.57597045972943,438.3114847051911 L 201.6117591932416,440.13150005275384 L 202.88683936558664,440.7693490963429 L 203.35209337808192,441.323424781207 L 203.0657832249999,441.75880360463634 L 202.81526185199618,443.14429720584303 L 204.10221829637885,444.12242234824225 z M 204.21669436059892,439.8073428859934 L 205.16774254105985,440.13689638255164 L 205.4227001965046,441.00392059376463 L 204.73078365065157,441.4974619806744 L 204.31436772830784,441.49146071914583 L 204.05234744772315,441.2176958746277 L 204.21669436059892,439.8073428859934 z" /><path fill-rule="evenodd" fill="#D2EBD9" stroke="#A6A6A6" stroke-width="0.25" opacity="1" d="M 195.36865024268627,482.73552989866585 L 196.0400265455246,485.14834181685 L 199.19752604328096,490.1698642857373 L 200.34570764005184,492.5567316878587 L 200.82670265436172,493.0389735591598 L 201.60638004913926,493.4650212437846 L 201.60638004913926,492.45293566957116 L 202.16107591241598,491.58587456448004 L 201.80420865863562,490.5287003228441 L 202.16107591241598,490.5287003228441 L 202.6187969390303,491.0042982669547 L 203.86007439158857,491.0734791797586 L 204.39925427921116,491.57290198560804 L 205.0237720105797,491.33940059738234 L 205.5901048220694,490.74271485209465 L 205.73750652000308,489.8067260743119 L 206.0710998363793,490.3946747542359 L 206.80810828506947,490.14608668303117 L 207.36668313108385,490.1698642857373 L 208.66226647421718,491.1296892706305 L 209.17041441053152,491.25508281821385 L 210.6250363998115,490.848643978592 L 210.94311373867095,490.8962046247907 L 211.0749995112419,491.341562601272 L 210.48539271205664,492.19345322903246 L 209.21308335661888,492.45509806321934 L 208.63511355221272,492.41833736700937 L 208.2123034130782,492.1631810152903 L 207.47141593322158,491.3588587138802 L 206.9128410872072,491.06483154324815 L 206.38141916319728,491.25508281821385 L 206.73828646540642,494.91856272052974 L 208.1347235813737,493.79160565976053 L 208.76312024705112,493.56450871238485 L 209.0191337298602,494.33883547224104 L 208.2588512916118,495.2906551961787 L 207.04084782861173,495.9397074384615 L 207.2425554189831,496.4330328935757 L 208.07653870619833,496.69918540352955 L 208.66226647421718,497.42629477381706 L 208.92603792250156,498.06042159115896 L 208.8639740664512,499.21846677269787 L 209.0191337298602,500.0 L 209.31393712945282,500.0 L 209.96560778282583,498.5495878988877 L 210.94311373867095,499.27258638991043 L 211.29998104274273,498.8807712662965 L 211.05560455285013,498.34179567638785 L 211.29998104274273,497.82234582304955 L 211.74994410388172,498.1989425881766 L 212.60332234948874,497.42629477381706 L 213.70883504860103,497.12115804757923 L 214.9074435532093,497.0951896775514 L 214.55057629942894,498.1859561423771 L 215.55911420844495,498.5495878988877 L 216.04010922275484,497.2077201604843 L 215.9392554499209,496.68836599960923 L 214.06182332150638,496.69918540352955 L 213.2627509664744,496.40273986617103 L 211.04396755807102,494.62436597421765 L 211.09051543846726,494.31720491545275 L 210.6793422922492,493.7634884607978 L 212.2852450106293,492.2085894183256 L 212.92915765196085,491.98155068745837 L 213.86011572927237,492.62376753101125 L 214.37990066036582,492.72540393145755 L 214.9074435532093,491.98155068745837 L 214.0230334047228,490.405483183451 L 213.5885863173753,490.2239044960588 L 213.28602490760386,491.25508281821385 L 212.26972903497517,491.25508281821385 L 212.50246853008866,490.3925130814314 L 212.26972903497517,489.8067260743119 L 212.87097277864814,489.1756080570631 L 214.22086201421916,488.2009597029537 L 214.55057629942894,487.2351069753058 L 213.47997453436255,487.37338539399207 L 212.60332234948874,487.9935155524872 L 211.91674076206982,487.6585943540558 L 211.33877095766366,487.90492169139907 L 210.9819037038833,488.55103747034445 L 210.94311373867095,489.40902776364237 L 209.6708043832332,488.7174393935129 L 209.740626251325,489.715944878757 L 210.3224750366062,490.1698642857373 L 209.24023627862334,490.3536029914394 L 208.05714370124042,489.6554248034954 L 207.3511672038585,488.66989549295977 L 207.69251848198473,487.9935155524872 L 207.3977150823921,486.7727609905414 L 207.69251848198473,485.42048881202936 L 208.50710681080818,487.0665843519382 L 209.0191337298602,487.2351069753058 L 209.3216950930655,486.8980663106777 L 209.36824302002788,486.28020597761497 L 209.0191337298602,485.0619484647177 L 209.9500918071717,484.6688738516532 L 214.22474099695683,484.72934525320306 L 213.81356784887612,484.0253219008446 L 213.0920753274113,483.39911053609103 L 211.61805838160217,482.5246795625426 L 210.22937922924757,481.99576247110963 L 209.79881112463772,481.525172077585 L 209.96560778282583,480.6790622952394 L 211.16809531860054,481.3201093962416 L 211.83528190106153,480.72438667854294 L 211.8585558887571,479.7424320401624 L 210.76468013599515,478.99150301422924 L 211.80037101358175,477.1965451682918 L 213.28602490760386,476.6961201564409 L 212.77787697128952,476.2776920609176 L 212.60332234948874,475.5789366303943 L 211.12154738977551,476.1784813166596 L 210.42720783874393,476.09652576735243 L 209.96560778282583,475.5789366303943 L 210.71813220903277,474.3196488167159 L 210.39229690469801,473.15977592905983 L 209.0191337298602,470.909631986171 L 209.0191337298602,469.26348683517426 L 208.07653870619833,468.34579769475386 L 206.75380239449441,466.2308842036873 L 206.06334182433784,465.81746087083593 L 206.06334182433784,466.9350584098138 L 205.40391320548952,465.80884814308956 L 204.7289686128497,464.09085088735446 L 204.3876172862947,462.15812621917576 L 204.98071639984846,459.7709053591825 L 202.23774453252554,459.05157632008195 L 201.48894389159977,459.259181228932 L 201.15395413339138,459.65528857475147 L 200.68102747760713,460.7208040468395 L 200.2524376641959,461.07328338129446 L 198.86814179085195,461.4312476743944 L 198.59719417989254,462.06524951336905 L 198.40999406576157,465.3373853126541 L 199.53812125883996,466.36831007618457 L 199.8780373428017,467.06024571415037 L 199.65635294653475,467.71943310508505 L 198.54793096333742,469.21311787655577 L 198.3360992204398,470.1160667887889 L 198.5676362682134,470.9069379954599 L 199.4888580441475,472.2070297617465 L 199.80906886979938,472.96805078862235 L 200.006121635437,477.72242259886116 L 200.42485884577036,480.26815744675696 L 199.43466855026782,483.3990022293292 L 198.89277337491512,483.4648162680678 L 196.4739503171295,482.83138538803905 L 195.36865024268627,482.73552989866585 z" /><path fill-rule="evenodd" fill="#D2EBD9" stroke="#A6A6A6" stroke-width="0.25" opacity="1" d="M 209.9500918071717,425.54118862422183 L 211.0051776431501,421.28688680706546 L 214.06182332150638,414.881820642855 L 214.57385023869574,414.34567966545 L 215.20224695280194,410.93762232456356 L 220.8112693540752,400.2509080101736 L 221.97496697306633,398.9445245168172 L 224.6708664149046,396.52850346267223 L 229.88035266287625,390.1305274935439 L 230.91216451115906,388.4665756057948 L 231.76942173950374,385.9926962456666 L 236.45912305638194,380.3549193460494 L 246.56777617894113,371.88168644485995 L 248.1271309684962,370.87580213090405 L 254.89985094219446,368.25569080514833 L 263.6353408880532,365.91436354489997 L 267.29710934124887,364.26489372365177 L 270.0977415833622,363.3788407733664 L 272.0799064654857,363.0100395362824 L 276.3972245529294,363.14568825019524 L 277.2738767378032,362.9506940813735 L 278.63928190246224,361.1493831574917 L 279.1435508560389,360.7552777240053 L 280.29949046485126,360.44382354058325 L 281.65713766403496,359.75528505072 L 282.851867236197,359.59851988079026 L 289.0660123620182,359.94806881202385 L 291.14515208266675,359.8209580038674 L 293.28247667849064,359.36337896436453 L 297.84805023670197,357.5841977382079 L 300.47024882771075,355.10047678649426 L 302.13045739009976,354.554306730628 L 304.3376038521528,354.2748878542334 L 306.64560403861105,354.3087561689317 L 308.6006160005927,354.7130725905299 L 309.64406489022076,355.1068278942257 L 310.06299600191414,355.44979453086853 L 310.4082263093442,356.40892272349447 L 314.8535510916263,355.9092276012525 L 315.8232990838587,355.42227189429104 L 317.19646225869656,352.7001952980645 L 318.4222237356007,351.51518248114735 L 319.4385196547955,351.51518248114735 L 320.11734323203564,350.9396789520979 L 320.7030710000545,350.09343833243474 L 321.0599383022636,350.09343833243474 L 321.3547416534275,350.8042734428309 L 321.7116089556366,349.74227916868404 L 322.03744425810874,349.74227916868404 L 322.3283686749637,350.45307777589187 L 322.73566284030676,350.1611337135546 L 323.3330276031047,350.45307777589187 L 324.48120919801295,348.8961866637692 L 324.80704454891384,348.04173933761194 L 324.6363689098507,347.2592944097705 L 325.0165101047605,346.5403697490692 L 325.5052630826831,344.16845262842253 L 326.12202285043895,343.16243215603754 L 328.91489708051085,340.5402847439982 L 330.6332905180752,339.75235655205324 L 331.3121140934527,338.81878877524287 L 332.12670242227614,336.5867642085068 L 332.58830247819424,335.7739542569034 L 334.03128747455776,334.3765666480176 L 334.7566589768976,333.33398685837165 L 335.15619517862797,330.27046933118254 L 338.1895669158548,327.157699491363 L 338.86451151035726,324.834573881235 L 340.4161082878709,323.50681879743934 L 342.95296903699636,322.01497620670125 L 344.56662971898913,320.79308248963207 L 345.74584326706827,319.3776378547773 L 346.59146354719996,317.7729706536047 L 348.8567948844284,311.6019988763146 L 349.7218100745231,310.9183052694425 L 351.44408254139125,309.97176197031513 L 353.3409095816314,306.92475414602086 L 353.60856005735695,306.0922598913312 L 354.2485937178135,305.30400326801464 L 356.2423955947161,303.40624095406383 L 357.7396865300834,302.61828284617513 L 358.8335622344166,301.6497394684702 L 360.19896744564176,300.7716515180655 L 360.245515326038,300.22972796019167 L 359.9584699384868,300.09950438095257 L 359.2524933926761,300.3851591530256 L 359.2602513562888,299.6584423095919 L 359.6093606483191,299.32871378120035 L 360.8816700037569,299.32871378120035 L 364.5511964187026,300.60360879218206 L 365.82350582256913,300.08270150702447 L 367.7474858313799,298.6231039860286 L 369.05082713998854,298.6231039860286 L 369.39993643015623,297.56691993866116 L 369.37666249088943,296.8782797656022 L 369.9352373369038,296.370240341872 L 370.85067943669856,296.156118884217 L 371.0213550776243,296.4122256967239 L 370.020575132221,297.760087009985 L 370.222282724455,298.45721184369177 L 371.68078369461,298.6231039860286 L 372.9608510620892,298.276624773629 L 373.9926629588008,296.94126237463206 L 374.68312352895737,295.2094429815188 L 374.931378999725,293.66060745483264 L 373.9926629588008,285.21506186341867 L 373.36814522743225,282.9475485449657 L 372.41391321085393,280.92373469052836 L 369.69473982974887,277.0662298379466 L 367.4759564213455,274.9875468541868 L 367.1190891172737,274.08131842454895 L 366.99108242429793,272.8885341049172 L 366.11830922216177,270.42824909230694 L 365.89720667153597,267.9457926219329 L 365.4317276328802,266.9233579025604 L 363.5426585096866,266.12056456832215 L 362.9608097244054,265.22379800118506 L 362.1772533468902,263.3490953189321 L 358.4068731125444,258.2185780890286 L 356.9638881161809,253.60500034783036 L 356.0562039799988,251.47662760410458 L 351.5953632220626,244.34060147497803 L 351.08333625644445,242.24405180942267 L 350.699316078797,241.8856549258344 L 343.9847809318453,238.88371379952878 L 342.59998081065714,238.04855077760294 L 337.2663668040186,233.66390777472407 L 330.82336111553013,226.8442629063502 L 328.8644701708108,223.7838715976104 L 327.7279255222529,222.85477156797424 L 326.97928007878363,221.77616032166407 L 325.5169000774622,219.03356032725424 L 325.08633197285235,216.2379550342448 L 324.80704454891384,215.7977300817147 L 322.03744425810874,213.53263331204653 L 322.2352728676051,212.4740185542032 L 321.43232153356075,211.7496781758964 L 319.4385196547955,210.7452619066462 L 319.1282002814114,209.71607907535508 L 318.4222237356007,208.83225373597816 L 318.83339688181877,207.88629972422495 L 319.7333230059594,207.2329124850221 L 320.4392995517701,207.56685904506594 L 321.773672811687,208.6268722708337 L 321.7116089556366,207.61249260185286 L 321.2383719049394,206.93631370645016 L 320.36947773210704,206.28093311097473 L 319.5083414763212,206.03206902369857 L 319.0738943889737,206.56713680177927 L 318.7790909893811,206.56713680177927 L 318.1506942752749,204.4706298597157 L 317.77055308036506,203.751188472379 L 315.8232990838587,202.33116206899285 L 315.2181763574481,201.34662516461685 L 314.33376616053283,198.63202402973548 L 314.2018804382533,197.28957979520783 L 312.99163493700325,194.85388386342674 L 312.3322063200176,193.07108918204904 L 312.3903911933303,192.25126462243497 L 312.1227407641709,191.8662252263166 L 311.7270835451782,189.7860982986167 L 310.0591170191765,189.14457869669423 L 309.60915395617485,188.74727676529437 L 309.2910766173154,187.38170493068174 L 308.25926472246647,186.8272678637877 L 306.9171334989369,186.8769173217006 L 304.12813824974,187.99411379965022 L 301.9675397146493,187.95480233384296 L 300.14441347680986,187.3279145299457 L 300.2918151766062,187.78100662957877 L 300.5711026005447,188.01480412110686 L 300.33836310356855,188.15963790006936 L 297.70064853690565,188.74727676529437 L 296.68047363497317,189.1714800586924 L 296.56798286922276,190.17103528231382 L 297.18086360767484,192.25126462243497 L 297.1731056421995,191.61161279957741 L 297.3670552223921,191.04445720743388 L 298.19328054599464,190.13378248084337 L 298.3755931314081,191.16036887746304 L 297.89071913436055,193.44997659418732 L 298.9884738698602,195.5041566984728 L 299.47722684778273,196.97471908666193 L 299.6013546064496,198.47870846791193 L 299.17078650183976,199.58099033636972 L 298.204917492345,199.90631770063192 L 296.81623838841915,199.7882036305964 L 295.4120432604104,199.34891797602177 L 293.8837204221636,198.35440079914406 L 291.9442244358361,197.84268844593316 L 291.3391016628593,197.42008505063131 L 291.036540299654,196.97264763107523 L 290.2141940072179,194.5805369564332 L 290.183162054047,194.00902441050857 L 290.62536715343595,193.0027672019787 L 290.233588963747,192.61769070196897 L 288.47640561312437,192.0794435958378 L 286.7424961999059,191.08171434607357 L 285.61370951496065,190.00960778910667 L 284.9038539864123,188.90867823874578 L 284.78748423978686,188.24033217085525 L 284.9387649204582,187.75824796268716 L 285.61370951496065,186.99276734655723 L 285.764990195632,186.50455388613045 L 285.4158809054643,185.38343266164884 L 284.56638168916106,184.74020471377298 L 282.4833629876375,183.8860958176665 L 281.6920485980809,183.3753292025067 L 280.8347913697362,182.68057436868548 L 280.1520888134837,181.84736289037392 L 279.61678790673614,180.35069783451036 L 278.6082499977201,178.82125033997 L 278.5733390636742,177.5813748636283 L 279.4771441705525,175.51947853947058 L 279.76418960653245,174.28631579549983 L 278.98839119262993,172.43796300981194 L 278.251382695511,169.66727057099342 L 278.12725498341024,167.44852030370384 L 277.01786325499415,164.76207676855847 L 276.2226699311286,161.915676956065 L 275.6679740678519,160.65368328802288 L 272.65787626989186,156.16613479098305 L 272.19627621397376,154.8391065155156 L 272.3941048234701,153.2836283952929 L 273.5112545154989,151.7325681541115 L 273.6625351961702,151.03643833240494 L 273.6121082864702,148.754868730437 L 273.0225015375763,146.7744578961283 L 272.92164771817625,145.75767713878304 L 273.27075700834394,144.78423848887905 L 275.58263622410595,140.97186225559562 L 275.94338250905275,140.1306215552613 L 276.23430687747896,138.72600342100486 L 276.2265489138663,137.3730258271098 L 276.00156738236547,136.09633154096082 L 275.1986160464585,133.77165232645348 L 275.01242443174124,132.73182213818654 L 275.12491519749165,131.57295599393547 L 276.08690517768264,128.99280128302053 L 276.5485052354634,128.19385568331927 L 277.7471137419343,126.77483841311187 L 278.0419171396643,125.9617335847579 L 277.6191070470959,123.85542235616595 L 277.5725591201335,122.82914765784517 L 279.3762903995812,119.56027706572786 L 279.38792739249766,118.82172606093809 L 278.2242297735065,117.63402637885883 L 277.33981962502,117.00229607801884 L 275.20249502919614,116.69055057736114 L 274.2327470369637,115.72052183933556 L 273.17378221824765,115.22632185462862 L 263.2474417295307,115.71436975989491 L 249.23652265034616,113.51222664257511 L 243.33657583221793,111.81897732289508 L 235.2954254373908,108.49086645292118 L 232.21162683703005,106.25168574927375 L 230.18291402608156,105.23369928635657 L 229.08128030970693,104.37761991005391 L 228.21238608844578,102.78038158407435 L 223.123148618266,97.6753205168061 L 222.23873842135072,95.86042152810842 L 222.0370308291167,93.48137767100707 L 222.39001910202205,91.25226059602574 L 222.23873842135072,90.61430750507861 L 221.54827785119414,89.6574663775973 L 220.8655752465129,87.83608091436327 L 220.73756855167449,87.30670411838219 L 220.73756855167449,85.2181275319308 L 220.3070004004985,83.10553915286437 L 217.83996151946485,77.30570806609467 L 218.5498170480132,76.32175274146721 L 218.43344729952514,75.26851226156577 L 217.76238168776035,74.28886727057397 L 216.82754462957382,73.53583949618042 L 213.72823000513017,72.0177358998917 L 212.26972903497517,69.39839861076325 L 210.94311373867095,68.74368589092046 L 208.72820936143398,66.27212370047346 L 208.6002026181668,65.89696342451498 L 208.66226647421718,64.77973235351965 L 208.11920760385692,64.66964789386839 L 200.66378497891128,65.63599174749106 L 199.69791601598263,65.48512098006904 L 198.27432592958212,64.80827302718535 L 197.21924009360373,64.60849038977176 L 193.16181447170675,64.950977624394 L 192.1920664794743,64.7980799046345 L 189.10826787911355,63.55053306836635 L 187.3627214729786,63.108226088341326 L 175.16329168528318,62.54161610500887 L 170.3688575644046,61.28623487940058 L 168.91811455786228,61.094682530965656 L 168.16171115078032,60.47114707576111 L 167.2191160786897,60.47114707576111 L 165.2330721653998,59.82116803433746 L 164.58915952406824,59.00213965540752 L 163.90645691938698,57.02822340792045 L 163.460372839123,56.20130450697616 L 162.54105175472796,54.97939668642357 L 161.6256096549332,52.580868747550994 L 160.97006001882255,51.841892953030765 L 156.55964612402022,48.14792350912467 L 155.21751490049064,45.70239117089659 L 154.89167954958975,44.69954785052687 L 154.75979382544756,43.534110717475414 L 154.95374340564013,42.19190791063011 L 155.4580123592168,41.52088080672547 L 157.0639150775969,40.63438763283193 L 157.99099417217076,39.64836700214073 L 158.35174040868878,38.60553759895265 L 158.36725638620555,36.325144519563764 L 158.037542052567,35.37413258431479 L 156.09416708536446,32.728887846227735 L 155.98943428322673,32.27183752693236 L 155.96228136122227,30.95565967494622 L 156.63722595572472,30.51494464278221 L 156.42000238783658,29.491429881658405 L 156.15623094141483,29.213232181966305 L 154.46499042585492,28.299503276590258 L 153.33232475817204,25.826797156129032 L 153.4874844700098,25.57306750677526 L 153.03364237770438,25.025035145692527 L 151.58677840046585,24.578514259308577 L 150.85752786695957,24.180722884833813 L 149.96148072369397,22.417251165490597 L 149.37963193841279,22.137236948590726 L 147.43625697121024,19.909598311875015 L 145.2950533926487,18.361926216632128 L 145.0002499949187,18.361926216632128 L 144.53477095626295,19.116460345685482 L 143.97619611024857,18.787865401711315 L 143.39434732310474,18.07392125437036 L 142.83965145982802,17.68046394875273 L 140.7411167807877,17.165343940258026 L 140.05841417610645,17.341779490932822 L 139.31364771351218,16.556971026118845 L 138.4292375650257,16.264966076705605 L 136.47422560304403,16.009469177108258 L 134.88383886031806,15.389005885459483 L 134.0925245191902,15.384950665291399 L 133.5533446315676,16.009469177108258 L 133.00640677846968,15.709370686206967 L 132.13363357633352,15.839141851756722 L 131.59445368871093,15.638402832206339 L 129.96915606036782,16.690809630788863 L 129.61616778746247,16.3197162700817 L 129.01492399536073,18.150992096867412 L 128.47962313704193,18.791922048199922 L 126.52849015779793,19.148914811201394 L 124.56959921307862,19.725000051781535 L 122.45554855838418,19.38421294093132 L 120.14754832535982,19.725000051781535 L 118.35545403882861,19.04343823576346 L 116.10951765999198,19.692543630488217 L 114.93806207738817,19.773684970103204 L 113.9605561196804,19.04343823576346 L 113.04899300076067,19.38624139362946 L 104.1699803378433,18.361926216632128 L 100.39960010163486,18.361926216632128 L 99.56949584372342,18.142879362683743 L 96.95505521818995,16.690809630788863 L 96.77662161365151,16.24468829575926 L 96.95505521818995,15.115285131614655 L 96.79989555478096,14.689513172954321 L 95.45000636577606,13.260277239140123 L 94.24751883000135,13.017024741973728 L 92.06752533838153,12.887292623054236 L 88.28162917494774,12.208255369216204 L 85.44996498152614,10.961792229674757 L 84.58494978956878,11.217151710763574 L 82.49417312256992,9.636466112919152 L 81.43132932111621,8.522039425559342 L 80.58570904098451,7.051197522785515 L 78.01781634241343,5.746675225440413 L 76.45846159942448,5.351707817520946 L 68.8478793092072,5.1957508572377264 L 64.82536461949348,4.598277138080448 L 57.04022770933807,2.0953723853453994 L 52.99056005105376,0.0 L 39.22582158073783,31.145599809940904 L 38.723336920142174,31.834329385776073 L 37.90556785464287,32.12840938940644 L 36.11238747276366,32.23159757582471 L 35.407923720777035,32.6804797751829 L 35.821734603494406,32.76561505999416 L 0.0,117.82915422692895 L 142.98396970704198,168.38304438907653 L 174.40403752587736,269.653305452317 L 174.3794058933854,270.8327579591423 L 173.8867739327252,271.95660308515653 L 152.92035674862564,306.9950578827411 L 153.43269401416183,314.53663905337453 L 153.13218854181468,322.09300527581945 L 153.29968339577317,323.62640093499795 L 154.78250569850206,328.6089179869741 L 159.31964619457722,336.5867744302377 L 160.37387868389487,339.7622523061 L 161.36899525858462,344.9416347607039 L 161.901037780568,346.6734388405457 L 162.79270169325173,348.01622352190316 L 164.58095579594374,349.97850542794913 L 165.2410826124251,350.9833687278442 L 166.81257869303226,357.4392465078272 L 167.2460947856307,358.31878399057314 L 169.47279135510325,361.6254651607014 L 169.674770494923,362.3171393261291 L 169.52205457165837,366.26803395478055 L 169.30529650114477,367.76822876604274 L 168.5417169276625,368.9117789217271 L 166.81257869303226,369.95313060469925 L 166.01451488398015,370.68203779729083 L 165.59577767550945,371.6212453111075 L 165.7879041619599,372.3826790251769 L 167.83725322410464,372.7708412357606 L 169.8619706556201,373.54453692259267 L 172.18719360791147,374.8265878963284 L 173.48774202913046,375.35511766932905 L 174.84740631841123,375.60995932435617 L 178.7145673930645,375.3268024465069 L 180.3550318516791,375.7731170221232 L 181.59646445326507,374.803667942062 L 182.48320204019547,374.6944620348513 L 188.03516446240246,376.97332461643964 L 191.0500722359866,377.7164822355844 L 191.57718843221664,378.54605689644814 L 189.8086396344006,381.7398677463643 L 189.24703915417194,383.95497818896547 L 188.49331223405898,385.8305007079616 L 187.0646794717759,386.4328323616646 L 184.3946141563356,385.3443534444086 L 183.59162402153015,385.38891550991684 L 180.6062742061913,386.04792806273326 L 180.03482107259333,386.33289015013725 L 179.96092632226646,387.124365570955 L 180.34025292098522,388.0388665422797 L 182.49798101745546,392.1090451781638 L 182.6654758732766,394.6440345561132 L 182.5570968389511,395.0835315384902 L 180.93633763864636,396.56316067185253 L 180.7836217135191,397.35856446344405 L 180.89200074970722,400.19466184731573 L 180.29591603204608,402.4051204295829 L 180.2318738847971,403.50995135633275 L 181.3846327085048,404.96709578856826 L 181.68021190539002,406.725308381021 L 183.01524461060762,407.95823482144624 L 182.85760235972703,408.9732022639364 L 181.89696997590363,411.13375066174194 L 181.7984435930848,412.09768857294694 L 182.0053490102291,415.04054573504254 L 181.60631710663438,419.075912526343 L 182.10387539304793,420.69944973196834 L 183.547287132591,422.5420320983976 L 185.10893051326275,423.9762685135938 L 186.7691002767533,425.0358516848646 L 188.60169126838446,425.51543802721426 L 190.6510403305292,425.2015970903449 L 191.94666242599487,424.38242153963074 L 192.48855760134757,422.82858238741755 L 193.0747896656394,419.38945702509955 L 191.93188344687223,420.220219691284 L 190.6510403305292,420.69944973196834 L 189.8135659135878,420.44421802228317 L 189.66084998846054,419.7831058232114 L 190.00076607242227,419.00533311627805 L 191.7791675236076,417.38493298972026 L 193.18316870182753,413.7696652445011 L 194.64135937392712,412.59530432801694 L 196.40498189255595,412.52886294946074 L 197.31635106354952,412.7864965237677 L 197.74494082853198,413.3262039264664 L 198.03559369780123,414.2253633872606 L 199.0602682288736,415.4786975211464 L 199.83862673304975,417.4364972813055 L 200.557869464159,417.7648901012726 L 202.3411972410977,417.9874467328191 L 203.19837691634893,418.40543944668025 L 205.04082051292062,420.220219691284 L 206.3758531715721,421.17599970148876 L 206.6270955260843,421.69603576743975 L 206.8980430904776,424.7166000660509 L 207.36111713945866,425.25050638383254 L 209.9500918071717,425.54118862422183 z" /><path fill-rule="evenodd" fill="#D2EBD9" stroke="#A6A6A6" stroke-width="0.25" opacity="1" d="M 183.87162870913744,42.307817607186735 L 183.65828412398696,42.87925366451964 L 183.91429760679603,43.265654312912375 L 185.14781704731286,43.704950782936066 L 186.4783113244921,42.991104803048074 L 185.7606977839023,42.557943522930145 L 184.3254707530141,42.56607784470543 L 183.87162870913744,42.307817607186735 z" /><path fill-rule="evenodd" fill="#D2EBD9" stroke="#A6A6A6" stroke-width="0.25" opacity="1" d="M 194.3177541270852,45.75121399061754 L 194.46515577845275,44.97821730049327 L 194.91511888988316,44.37207131832838 L 196.23397612571716,43.704950782936066 L 194.72116926312447,42.74096690956503 L 193.91433894447982,42.42982939630747 L 193.16181447170675,42.307817607186735 L 191.0516428463161,42.40746045066044 L 190.38445621728897,42.6799587206915 L 189.9732830710709,43.75783051364124 L 191.23007649742067,44.53072305582464 L 194.3177541270852,45.75121399061754 z" /><path fill-rule="evenodd" fill="#D2EBD9" stroke="#A6A6A6" stroke-width="0.25" opacity="1" d="M 330.2066013943404,200.43267240421847 L 330.30745516717434,199.34891797602177 L 330.59062162041664,198.4890675554052 L 332.4796906951815,195.03197866724804 L 332.29349908046424,194.4728574999608 L 330.04368371888995,192.7005012850277 L 328.11194569803774,191.61575276218355 L 327.2430515252054,190.82919724239036 L 326.10262784548104,189.08456826023757 L 325.536295035854,187.89273200836033 L 324.9815991707146,185.44961990974844 L 324.55103106610477,184.5850932924077 L 324.6363689098507,183.16234723571688 L 324.43466131947935,182.8067008848302 L 322.8287586476654,181.20649089990184 L 321.53317530453205,179.5363335427828 L 319.9583045374602,179.16018344508484 L 319.1631112135947,177.72601697640494 L 318.6394473016262,177.3127608061768 L 318.0963883846998,177.26730390358716 L 317.6386673580855,178.11863037059084 L 317.3942908681929,179.70374673698097 L 317.4524757415056,182.15127844689414 L 317.3205900192261,182.6785067426972 L 317.65418333373964,186.6990081234835 L 317.9063177872449,187.34653424052522 L 318.68599518202245,188.312750834506 L 320.0824322979897,189.2956414585933 L 320.4082676488906,190.51252749515697 L 321.2150979656726,190.81263907207176 L 322.8171216547489,190.97201332403347 L 323.6588629055768,191.55572337005287 L 324.22519576363266,192.3382116141729 L 324.6363689098507,195.03197866724804 L 324.93117230944335,195.97222103225067 L 327.6619826350361,199.7882036305964 L 328.54251385107636,201.63471881626174 L 329.07781470939517,203.31167798582464 L 329.492866884917,203.9108281857334 L 330.2066013943404,204.0994975809008 L 330.78069221787155,203.25777746085078 L 330.7186283133924,202.38091038772836 L 330.2066013943404,200.43267240421847 z" /></g></g></g></svg>