<svg xmlns="http://www.w3.org/2000/svg" xmlns:xlink="http://www.w3.org/1999/xlink" width="500.0" height="479.65177689725533" viewBox="0.0 0.0 500.0 479.65177689725533" preserveAspectRatio="xMinYMin meet"><g transform="matrix(1,0,0,-1,0,479.65177689725533)"><g><g><path fill-rule="evenodd" fill="#D2EBD9" stroke="#A6A6A6" stroke-width="0.25" opacity="1" d="M 467.04982645623386,456.19805879797786 L 467.245788929984,455.26786022493616 L 466.6653910819441,452.22575817769393 L 466.67176905833185,450.6999344229698 L 466.91094400547445,450.12622065795586 L 468.00158175081015,448.63903446961194 L 468.0781177394092,447.9609491736628 L 467.12141795270145,447.3877608142793 L 466.71003706753254,446.88779301196337 L 466.68133606761694,446.48076633829623 L 466.936456002295,445.7952687093057 L 466.75468305312097,445.07833105837926 L 464.5925415828824,443.49693451682106 L 464.3725006263703,442.87723876861855 L 464.547895597294,441.5830004727468 L 465.2367194071412,440.3681867602281 L 466.1838521845639,439.43768764520064 L 467.15011895261705,438.9942247858271 L 469.5291123762727,438.8405062411912 L 470.40927614457905,438.3261974728666 L 471.1714469715953,436.94135070219636 L 471.8953497875482,432.55659051286057 L 472.756379596889,431.77988493070006 L 473.48984942398965,431.73269910365343 L 475.667935911566,432.22032130649313 L 477.25924648344517,431.90964966919273 L 478.3977192174643,432.7217890857719 L 479.485167959705,432.6155889714137 L 480.07194381579757,432.7217890857719 L 480.96486359648407,433.8449857472442 L 483.06641412712634,434.2640785998665 L 484.2080758344382,435.4449349893257 L 484.7725286670029,435.26777705037966 L 485.0754836201668,434.0338654820807 L 484.63859074003994,430.9345842343755 L 485.2445005849004,429.68868808541447 L 486.2777363304049,429.097361758817 L 488.5132247861475,428.2645930144936 L 489.5113815572113,427.514511548914 L 490.6339092757553,426.03256651433185 L 491.1887951269746,425.7303778878413 L 491.61903483234346,425.69376748008654 L 500.0,405.422098998446 L 499.2027501985431,404.5129507435486 L 499.57586310245097,402.5591426747851 L 499.371767161414,401.3870633537881 L 498.89341726899147,400.7466967208311 L 496.0552079696208,398.2740663867444 L 493.9409014880657,399.1259371805936 L 492.84388573653996,399.0286797583103 L 491.76281500048935,398.6571846897714 L 491.01021118462086,398.0640521617606 L 490.7614692263305,397.1969224642962 L 490.87627319432795,395.1758603248745 L 490.5860742852092,394.45908907661214 L 487.77018794976175,391.7430799440481 L 487.36837404593825,391.5238063647412 L 484.70237071439624,390.9494993472472 L 484.1666188221425,390.963079740759 L 483.6755129452795,391.1473904210143 L 482.3361332733184,392.1486799432896 L 481.1530145518482,392.3408247893676 L 479.97308483347297,391.8847428364679 L 475.7189598735422,389.4036669959314 L 472.4151566643268,388.5408957260661 L 471.3914879281074,388.5118176997639 L 469.43344239890575,389.35712941084057 L 468.3555606659502,389.122512976639 L 467.8644547890872,388.67078077606857 L 466.81208505295217,387.0660144351423 L 465.75971528701484,386.6804511942901 L 463.74426775611937,385.1561034042388 L 461.33338435925543,382.77906708652154 L 460.7561755143106,382.62524154083803 L 458.798129953444,382.8013191684149 L 457.0059124138206,382.3688825285062 L 455.6505877561867,382.4211199921556 L 447.5186397135258,384.62556524481624 L 446.2494180239737,385.25486318115145 L 445.0312202963978,386.1651497441344 L 444.08727652207017,387.42449544603005 L 443.34742872044444,387.9148093746044 L 442.2185229938477,387.93031465401873 L 440.2030754648149,387.49038295447826 L 437.32659815624356,387.34310694132 L 426.4393548127264,389.54134485684335 L 418.6390626914799,392.4009938258678 L 416.6873951368034,392.7367971558124 L 414.7421056199819,392.565979342442 L 412.76492610014975,391.7721882080659 L 410.4529016856104,390.0494481809437 L 409.65246284753084,389.636365453247 L 404.75734906829894,388.7851617075503 L 403.4339143522084,387.8237175885588 L 403.3765123821795,386.951696714852 L 403.62206530570984,385.9811342335306 L 403.63801032304764,384.9159946311265 L 403.17560541443527,384.1667418954894 L 401.6990988124162,383.1215737685561 L 401.20161489769816,382.2702141026966 L 401.15696891210973,380.85340847307816 L 400.99751895852387,380.40190648520365 L 399.63581629283726,379.43434561556205 L 399.1287654303014,378.59365167981014 L 398.97569345124066,377.6546606537886 L 399.2180574014783,376.752644371707 L 399.8813692461699,376.03044590866193 L 401.39614385925233,375.2804239122197 L 404.00155621767044,375.160745870322 L 404.5149851180613,374.52479159785435 L 405.2038089595735,372.67170532932505 L 405.6311348285526,371.9610507749021 L 405.8703097756952,371.15127399517223 L 405.78101780451834,370.39181567542255 L 405.2038089595735,369.83679459197447 L 403.35737839341164,368.8561110328883 L 402.63028657250106,368.0914282971062 L 402.3560326192528,366.9534153547138 L 402.64304255507886,365.8398694675416 L 403.33824440278113,364.858503902331 L 404.25029817409813,364.18230877257884 L 405.2038089595735,363.98899932811037 L 407.3117374330759,364.54106855159625 L 407.93678126856685,364.50066997809336 L 409.57592689059675,363.91206359071657 L 412.969022070989,364.29772302275524 L 413.9352888073772,363.6091471374966 L 414.32434673048556,362.40930607682094 L 414.021391807124,361.2118415082805 L 413.31343397684395,360.1358551061712 L 412.4811051674187,359.29645506246015 L 411.4000344313681,358.52063985494897 L 410.31258568912745,358.0262526385486 L 406.9896485209465,357.4455659361556 L 406.27212371118367,356.7719105356373 L 405.2038089595735,354.8582415971905 L 404.8785310126841,353.9531271820888 L 404.7127030827105,352.38608525972813 L 404.9455000218004,351.26614649314433 L 405.2038089595735,350.7585194041021 L 406.6707485821098,349.49363410286605 L 408.6415500957519,348.42064592055976 L 410.2902627270669,347.090678807348 L 410.79093558341265,345.0499198138714 L 410.127623738721,342.2309529571794 L 408.8839140459895,338.9230195162818 L 408.14406624250114,337.95562681090087 L 405.97554676420987,336.77015615813434 L 405.669402807951,336.12085954705253 L 405.5673548541963,334.4996190047823 L 405.9946807548404,333.3592340112664 L 408.9604500345886,330.67420242214575 L 410.6697536390275,328.293814369943 L 411.81141534633934,327.62815136788413 L 414.68470365181565,327.1394514539279 L 415.52659944072366,326.6051984941587 L 415.85825536213815,325.7868781075813 L 415.93479135259986,323.9248032318428 L 416.3110932596028,322.04101244173944 L 416.2218012884259,321.27413558773696 L 415.3799054697156,319.8291390151717 L 416.08467429690063,318.6000200188719 L 416.6044811718166,318.25014712801203 L 417.2677930165082,318.12689461000264 L 417.845001893118,318.28238319419324 L 418.8495366387069,318.9006182742305 L 419.45863548852503,318.9508786709048 L 421.37841304019094,317.484160636086 L 423.62665747851133,317.7239861143753 L 424.23256732337177,317.919272005558 L 424.8703671731055,318.3790931911208 L 425.54324599541724,320.2759474548511 L 426.0885649006814,320.83952561812475 L 426.64982875809073,320.9552894108929 L 427.0675876494497,320.61180553166196 L 427.1855806224048,319.78929916303605 L 426.9751066751778,319.00019159028307 L 426.19380185753107,317.45951556041837 L 425.97057192772627,316.64538387488574 L 426.16510085761547,313.6218859064393 L 425.34871706552804,311.6957664368674 L 425.4411980416626,310.96631318330765 L 426.3660078253597,308.4121382548474 L 427.1919586285949,307.42353084497154 L 428.29216335341334,307.03799767792225 L 429.4816600512713,307.1060296744108 L 430.5882428139448,307.4717256599106 L 431.78411751799285,307.55205190740526 L 433.9079909790307,306.4663955536671 L 435.18677970953286,306.5977135449648 L 436.4910803735256,307.1315420353785 L 437.5083711333573,307.2373731653206 L 438.47144889831543,306.8452480705455 L 440.6654803715646,305.24416107777506 L 442.83081084676087,304.7163034058176 L 443.87999157980084,304.0912931500934 L 446.8648948799819,301.61790397344157 L 447.66852265782654,300.59266483131796 L 447.85667361319065,299.7638397552073 L 447.53458470106125,299.0464465254918 L 446.54599493928254,297.90610144101083 L 445.8699271120131,295.65106896078214 L 444.48909045755863,295.65106896078214 L 442.8180548325181,294.91291150730103 L 442.1196640133858,294.2238614037633 L 442.1515540163964,293.3900380888954 L 441.04816025681794,293.6328228292987 L 440.44862841814756,293.1792625915259 L 439.92882154136896,293.0719980224967 L 438.03774498961866,293.7965714465827 L 437.47648113034666,293.67611193517223 L 437.7092780712992,292.64673746936023 L 436.64096334949136,292.68248736299574 L 436.3507644087076,292.53008255921304 L 435.7863115463406,291.6082762167789 L 435.41000963933766,291.40137516660616 L 433.3562941290438,291.28100229613483 L 432.8651882521808,290.65475716860965 L 431.4907295741141,291.1549915415235 L 430.95497771166265,290.3651820719242 L 430.68391279131174,289.0962370731868 L 430.10351491346955,288.15095155406743 L 429.46571506373584,288.01002729684114 L 427.4725905582309,288.4196635754779 L 426.5956157632172,286.7438546596095 L 425.70269598066807,286.24991435185075 L 423.37472654879093,284.43254098528996 L 422.60936675034463,283.3553490000777 L 422.433971779421,281.91275403043255 L 422.06085887365043,281.45327983563766 L 421.8503848966211,280.6882541165687 L 421.45175999403,280.44078307785094 L 421.0244341250509,279.73783968621865 L 423.06539361923933,276.15042957896367 L 423.9583134017885,272.72020239615813 L 424.88631218858063,271.2840219079517 L 424.9660371504724,270.5998064451851 L 424.80339822359383,269.92320470837876 L 423.55968849919736,268.0809904523194 L 422.34467977657914,264.97241921164095 L 422.13101685605943,264.14208089374006 L 422.12463884986937,262.5249018194154 L 421.63034396991134,261.0911597907543 L 421.54742997325957,260.3605373338796 L 421.80892791226506,259.14939027419314 L 422.48499574139714,258.1882313634269 L 422.98885763064027,257.96474472619593 L 424.9596591759473,258.1919562332332 L 426.25120382755995,257.0579112265259 L 423.80205245129764,255.57807253859937 L 423.33326956629753,254.94165913341567 L 423.32689156010747,254.1974658323452 L 421.946054905653,252.6891088024713 L 421.33376702293754,252.47527700290084 L 420.07092333957553,252.36371790617704 L 419.5479274597019,252.1034273309633 L 419.0153646003455,251.60521178878844 L 418.3042177669704,250.1946121850051 L 416.48967720381916,250.51236481033266 L 415.7721523940563,250.20576091809198 L 415.3033694792539,249.509035339579 L 415.5297884438187,248.8588852752 L 415.18537653796375,248.22000009007752 L 413.84280786290765,247.39742402359843 L 414.1521407626569,246.43026594584808 L 413.1954410355538,245.55986960371956 L 412.5608301907778,244.60250122379512 L 411.8209823574871,243.86981103755534 L 411.62007538974285,243.14469327311963 L 411.17042649537325,242.79795143054798 L 410.972708562389,241.99890863196924 L 409.3622639402747,241.32978248270229 L 408.00375027768314,240.04934962792322 L 407.68485033884645,239.36948541086167 L 407.81878829561174,238.08051685243845 L 407.69760635122657,237.212214036379 L 407.2830364648253,236.75685825478286 L 406.05846072919667,236.40890292823315 L 403.7400582768023,233.19196189381182 L 403.35100038535893,233.12354855891317 L 402.834382513538,233.30105618247762 L 403.0257224701345,232.3248757920228 L 402.4548916015774,232.38587906584144 L 401.83941474556923,232.0605405298993 L 401.3483088687062,231.53192997118458 L 401.05810992978513,230.82785611320287 L 402.57926258072257,229.99830266926438 L 403.20430641435087,229.06921442132443 L 403.90588627010584,227.54220302868634 L 404.3459681533277,225.9789513591677 L 404.2056521885097,224.94393379194662 L 399.080930409953,220.62818594696 L 397.891433712095,219.95576650556177 L 392.27879505977035,218.6757601457648 L 386.9531663451344,216.17417937377468 L 386.493950471282,215.64059035340324 L 382.25258149392903,201.75681016594172 L 376.6367538701743,190.83693090174347 L 374.7169763185084,188.236036922317 L 373.92291551828384,186.90069841500372 L 372.91838074103,184.45947506604716 L 372.54207883402705,183.93604777241126 L 372.0286499634385,183.57498145243153 L 356.00392882712185,175.164765576832 L 355.1524660587311,174.5726347686723 L 352.8595756031573,171.75699849706143 L 352.12610577605665,170.29502635495737 L 350.3147542476654,163.24498232407495 L 349.6928993854672,161.5670376927592 L 348.83824758417904,160.04929086146876 L 347.6359948720783,158.78210657043383 L 343.8474637940526,155.64543649973348 L 341.3823673687875,152.40652152569965 L 340.8657495267689,151.06058615725487 L 340.50858160853386,146.7891477253288 L 340.3363756407052,146.25747655751184 L 339.91861674934626,145.92623551143333 L 330.65776298195124,143.07443278981373 L 328.0778626203537,142.86160371126607 L 325.6303057000041,143.06902170879766 L 322.9658968243748,142.83635360421613 L 320.3397559598088,142.26556577673182 L 318.00540855154395,141.46498472057283 L 310.69622230902314,137.81762944860384 L 308.15937341563404,137.24759625224397 L 306.00520443730056,137.53755505848676 L 304.42027181200683,138.63095266884193 L 303.2275861110538,140.37257275078446 L 302.2708863541484,142.59468251420185 L 302.17521637678146,143.27284351317212 L 302.297992836684,144.56637601926923 L 302.0380893833935,145.2773761372082 L 299.0053511559963,148.22386062750593 L 298.13794337026775,148.6781348255463 L 296.5785227417946,149.05658802343532 L 294.7894941754639,148.4225424071774 L 293.0514895711094,148.06672886339948 L 292.49341471493244,147.6811516531743 L 290.76178811863065,145.75385726988316 L 288.64110362902284,144.20641563972458 L 285.64663337916136,141.092700030189 L 285.29903247207403,140.4581877118908 L 283.02208700217307,133.73382702236995 L 282.30137318745255,132.70658937096596 L 279.6640708260238,130.13880389975384 L 277.8112622536719,127.11649015080184 L 274.1885591354221,123.64071621512994 L 272.1986236013472,122.2412389004603 L 269.40506028942764,119.40974669298157 L 268.13583859987557,117.2306045726873 L 267.30669882521033,114.61402676953003 L 265.9960201214999,106.22811705386266 L 266.2351950686425,104.80453113466501 L 267.20146183669567,103.71888043079525 L 271.9913386888802,101.73405770538375 L 273.2509933691472,100.88117699464783 L 275.473725810647,98.88173457980156 L 276.809916511178,98.37178029259667 L 284.2307177186012,98.67489203391597 L 285.3915134463459,98.37534618284553 L 286.49969066493213,97.75849584490061 L 287.37825994566083,96.64092261902988 L 287.5281428899616,95.37222673371434 L 287.34477545693517,92.53338683955371 L 287.45320144854486,91.16811808058992 L 286.89672107994556,89.18424007901922 L 287.17894752696157,87.1320095541887 L 287.03384804166853,85.87167294230312 L 286.57463216781616,84.60107245948166 L 284.9163525570184,81.82314799400046 L 284.4842431657016,78.24700008891523 L 284.4954046625644,77.7254849402234 L 285.0694245044142,75.99645240465179 L 286.0484472848475,74.34259330946952 L 287.26026697456837,72.89136994304135 L 288.53586670197546,71.77893982548267 L 289.1035085376352,71.0723152696155 L 289.7349303793162,69.17619328619912 L 290.1909572798759,68.37799715902656 L 290.6645236518234,68.02231044135988 L 293.61275346018374,67.20664863241836 L 297.2258895691484,67.30395330442116 L 298.4424927793443,67.56226421194151 L 300.7752457316965,68.41692994441837 L 302.0109829008579,68.1621040343307 L 302.67588926292956,67.2402627011761 L 302.78750422783196,65.84285824280232 L 302.45265933312476,58.92654098337516 L 302.6950232516974,57.73847425542772 L 304.42346084676683,55.665032278280705 L 304.8125187382102,54.00702771404758 L 305.1760646626353,53.32637994317338 L 306.20930041000247,52.157549027353525 L 308.154589926824,50.46042174939066 L 308.6839637812227,49.77859394578263 L 309.03315920755267,48.96477532945573 L 310.06480046734214,44.27872349694371 L 310.7408682946116,42.39750793436542 L 311.5987090691924,40.60942097892985 L 313.4547066446394,37.689811842981726 L 314.4959148839116,34.717807633802295 L 315.3266492076218,33.421667732764035 L 314.6936328485608,32.96280478825793 L 312.6510788369924,31.965409853029996 L 312.20780794881284,31.15415781736374 L 311.9622549954802,30.09318648185581 L 312.05314148403704,29.12626729439944 L 312.7658828049898,28.40407036570832 L 312.52989686094224,26.79359159898013 L 312.6510788369924,26.037629957310855 L 313.35903666727245,25.62948383204639 L 315.67106111347675,25.07075478648767 L 315.9102360289544,24.226669430267066 L 315.6104701105505,23.907991758082062 L 314.13077447377145,23.372246455866843 L 313.2537997085601,22.366591969970614 L 311.3914241567254,22.725414596498013 L 310.81740428321064,22.53987330943346 L 308.929516736418,21.25618235161528 L 308.4479778688401,20.64728538086638 L 308.5595928337425,20.053344044368714 L 308.96140673942864,19.490968632511795 L 308.7732557542622,19.260966905858368 L 305.81067550741136,18.12950247619301 L 301.67773249186575,18.458243560045958 L 300.5424487609416,19.024856268893927 L 300.0162639077753,19.52944922586903 L 299.78665594011545,20.018357446882874 L 299.3370070774108,22.555626509245485 L 299.3625190742314,22.926718515809625 L 300.0640988666564,23.493921312037855 L 300.24906081706285,23.837955861352384 L 299.8695699367672,24.653069296851754 L 298.5748362503946,24.681088883895427 L 295.34756902977824,23.902739003766328 L 293.94122038036585,22.90046096406877 L 293.3990904800594,22.693907041102648 L 291.71210989914834,22.59763530176133 L 289.98526682145894,21.486290916334838 L 288.73996261134744,21.315676962025464 L 286.9620955735445,20.71726913843304 L 285.88580829650164,20.615793050266802 L 285.52066791430116,20.410223827231675 L 285.19060651026666,19.85917190136388 L 284.10953574441373,17.135562964249402 L 282.9933860320598,16.18816813826561 L 281.6380613427609,15.889309963211417 L 275.3748668599874,15.799307031091303 L 273.69426428712904,16.002908582333475 L 272.33575059473515,16.683689101599157 L 269.9216781631112,19.25222187489271 L 269.0191914010793,19.66325936280191 L 260.31003451533616,19.89940508408472 L 258.0091715659946,19.047592299059033 L 256.78937935084105,18.864833103027195 L 253.73431809805334,20.05859208572656 L 253.1411642357707,19.950134319253266 L 251.05236975103617,18.94003449426964 L 250.49270037934184,19.002120358869433 L 250.0621854737401,19.44374296395108 L 249.23782918974757,20.805625279434025 L 248.6893213428557,21.146819524932653 L 248.26040092483163,21.109199354890734 L 248.09935645386577,20.908855558838695 L 246.98320674337447,18.55529692582786 L 246.67068481072783,18.29911576025188 L 246.08071995154023,18.767772724851966 L 245.90054148994386,20.735640082042664 L 245.44929810985923,21.4346685227938 L 243.8484204672277,21.505540108773857 L 243.18829765729606,20.084832252934575 L 243.14365166984499,9.129443706944585 L 234.10602786391973,9.195751359220594 L 232.68373416550457,8.9689135318622 L 231.70152244344354,8.255323870107532 L 231.55482847243547,9.110249562654644 L 231.36189399659634,9.243737804237753 L 230.98559208773077,9.176556922495365 L 231.12750256992877,8.312895219307393 L 230.4801357127726,7.465975156985223 L 230.0591878183186,7.283703853841871 L 229.6207004506141,7.481673487927765 L 229.2443985119462,8.201242392417043 L 228.93347109667957,8.14192793564871 L 228.6560281701386,7.9116561389528215 L 228.5858701877296,7.607262438628823 L 228.56354719400406,7.09184760088101 L 228.8234506174922,6.778791149146855 L 228.7134301699698,6.656713953707367 L 228.1936232931912,6.696824626997113 L 227.18589954450727,6.153617490082979 L 226.43753909133375,4.975773799233139 L 225.64907787926495,7.101152004208416 L 225.64907787926495,5.719813123811036 L 226.0533525981009,4.9016513410024345 L 225.21215988136828,2.2450529914349318 L 225.64907787926495,0.057586283423006535 L 225.39044252224267,0.0 L 223.94409326650202,1.3246756382286549 L 223.8411413077265,0.49773503886535764 L 223.31131545081735,0.47716634487733245 L 222.72624710574746,0.9639842370525002 L 222.45254558697343,1.6579643990844488 L 223.08532337099314,2.3698880500160158 L 223.05016904696822,2.9968605912290514 L 223.31131545081735,3.74605262465775 L 223.94409326650202,3.876419638749212 L 223.94409326650202,4.086387301329523 L 223.02756986767054,4.967537897638977 L 222.62329514697194,5.6429323381744325 L 222.45254558697343,6.411801051814109 L 222.75637936592102,7.710947614628822 L 222.26170783303678,7.645019652787596 L 221.20707815140486,8.254891342483461 L 222.07087007910013,5.317576888483018 L 222.45254558697343,4.54752809740603 L 221.54355523735285,2.699140362907201 L 221.20707815140486,2.4947266266681254 L 220.60945469141006,3.9326844858005643 L 219.92394540458918,3.6252950713969767 L 219.27359044365585,3.8558351350948215 L 218.98984486050904,4.090504404623061 L 218.7613417636603,4.668311091605574 L 218.01054586097598,4.778116735164076 L 217.701690049842,5.835136838722974 L 217.45560977607965,5.902410403359681 L 216.7449902612716,5.258548726327717 L 216.57172968424857,7.0242468933574855 L 216.32313839532435,7.331875437870622 L 215.82344483025372,4.3444005833007395 L 215.5974527504295,3.876419638749212 L 213.79202719591558,4.267543971538544 L 212.10713074728847,5.0293074562214315 L 212.80017311498523,4.3334209797903895 L 212.88052586093545,3.851718218997121 L 212.5289826132357,3.3947671740315855 L 212.01673393510282,3.275391416158527 L 209.61117387376726,3.6143172713927925 L 209.42284716665745,3.6719510219991207 L 209.3500275015831,3.9820883786305785 L 209.77187936753035,5.258548726327717 L 210.1937312334776,7.583213083446026 L 210.00289347954094,8.044723212718964 L 209.62121797166765,7.466469780541956 L 209.60112980753183,6.060301417950541 L 209.3500275015831,5.467209930066019 L 208.8955323267728,5.244821366388351 L 208.43601511791348,5.38484248612076 L 208.11962622590363,5.799441070761532 L 208.0894939340651,6.411801051814109 L 207.66262003593147,5.976549833547324 L 206.8013391252607,6.870440738275647 L 206.36693214438856,6.90065225539729 L 206.2916014622897,6.634248996619135 L 206.8013391252607,5.950463598128408 L 205.0863104145974,6.3596235369332135 L 204.69961287267506,6.642488040961325 L 205.44287569634616,6.689176195766777 L 205.74922049045563,6.870440738275647 L 206.6130124181509,8.254891342483461 L 205.64124649949372,7.713694627862424 L 205.32736862450838,7.7933589606545866 L 205.2671040724963,8.13126181717962 L 205.55838273651898,9.428172974381596 L 203.85590914078057,9.88987869489938 L 204.37820191681385,11.047106700018048 L 204.68956877663732,11.400383793283254 L 205.1214647386223,11.251921446993947 L 205.97521257027984,11.827928743325174 L 206.2815573643893,12.160645604133606 L 206.38199827447534,12.67901987535879 L 205.66384571045637,12.064402574207634 L 205.0260458625853,12.1331473775208 L 203.53198716789484,12.67901987535879 L 201.7692490182817,12.562139628455043 L 200.85774765349925,12.699646108783782 L 200.46602807939053,13.223585842642933 L 200.33545487746596,14.325303649995476 L 200.0065108705312,15.1645029457286 L 199.20047247968614,16.60115015367046 L 198.98452449776232,17.479336680378765 L 198.9543922059238,19.159126025158912 L 198.54760647006333,19.814697093795985 L 198.96945833601058,20.55026763677597 L 198.7585324179381,21.451306628528982 L 199.37373305484653,21.900518998969346 L 200.31536668166518,22.02178688067943 L 201.11889405734837,21.93772582290694 L 199.97386756166816,22.400771007873118 L 198.66562455706298,22.400771007873118 L 198.31659235805273,22.789436847437173 L 198.37685691006482,23.67026753956452 L 198.77862061187625,25.175956720951945 L 197.91985071823,24.483715103473514 L 197.85958616621792,25.360757312737405 L 197.55073035508394,26.140041781123728 L 196.4433692023158,27.51275604683906 L 197.0560588221997,28.077145726419985 L 196.93050765432417,28.324175991117954 L 196.23244325257838,28.416643515229225 L 195.93865357153118,28.829321570694447 L 195.59966546855867,30.289888564497232 L 196.66433921642601,30.02203436475247 L 197.72901299595833,30.289888564497232 L 196.38310464844108,31.085266573820263 L 195.81059138663113,31.217844062950462 L 194.86895775981247,31.034170099999756 L 194.62789954990149,31.15155480057001 L 194.5500578507781,31.80896912328899 L 194.77856094762683,32.753835384268314 L 195.35107417963445,33.62982069607824 L 196.1043810993433,34.37468897923827 L 197.73905706219375,35.385100363753736 L 197.81940980814397,35.64361652825028 L 197.11381235718727,36.4164944733493 L 195.36614033952355,35.97404256183654 L 195.09746085479856,36.05699875578284 L 194.7484286557883,37.12451406614855 L 194.24371302500367,37.5228273444809 L 193.0183338150382,37.311218726914376 L 192.44079851917922,37.5228273444809 L 192.20978440716863,37.26834508078173 L 192.48097487725317,36.53264579921961 L 191.90092856436968,36.78846651641652 L 190.64290604554117,37.75242781965062 L 189.54307794198394,38.166016824543476 L 188.85756868682802,38.89231654116884 L 188.62906559184194,38.89231654116884 L 188.63408762402833,38.27529962640256 L 188.85756868682802,37.75242781965062 L 188.11932789720595,37.838185398839414 L 186.29632519744337,39.14551333989948 L 185.42248920351267,39.18702249601483 L 183.84054468013346,38.75534758390859 L 183.1349472310394,39.14551333989948 L 181.18137132748961,38.82313974481076 L 180.05141096375883,38.44960465608165 L 179.26294972002506,38.742896078620106 L 179.34330246597528,39.40702768461779 L 179.9685472007841,40.115550342947245 L 180.8147619497031,40.54044447140768 L 180.8147619497031,40.77297803852707 L 180.10163141787052,41.17025265004486 L 180.10163141787052,42.474463677965105 L 180.58625885471702,45.08133330242708 L 180.66410058364272,47.118648789357394 L 181.09599654749036,48.32764918869361 L 181.67353181354702,49.0945480838418 L 181.84930343739688,49.64796796021983 L 181.8241932094097,50.384588385000825 L 181.21903666853905,52.092774205841124 L 180.99304459057748,52.36759271938354 L 179.8781503867358,53.383746767416596 L 179.08215606212616,53.866923813242465 L 177.4449690822512,55.47236535791308 L 176.38029530458152,56.13638938078657 L 175.9835536647588,56.68102434743196 L 176.1643473226577,57.35775007121265 L 176.95280856639147,57.1506907697767 L 177.31941791437566,57.84139212034643 L 177.19386677630246,58.75045923516154 L 176.48826929554343,59.20228742621839 L 176.06641742773354,59.80572918988764 L 175.4637719038874,61.89203984616324 L 174.89879172295332,61.558158916421235 L 174.68786580488086,62.025599823798984 L 174.28610213287175,61.88925739983097 L 173.82407387718558,62.9578582784161 L 172.7819993402809,64.0935520385392 L 172.5635403431952,64.61418362800032 L 171.79516729153693,64.36917228950188 L 171.04186037182808,64.43320790398866 L 170.5748101156205,64.82579615153372 L 170.66520692780614,65.57070363219827 L 169.52520249783993,64.96919770725071 L 168.4354184921831,64.8480717674829 L 167.0443117544055,65.10285804467276 L 166.47682055458426,64.68936051847413 L 165.37197041884065,64.45965770119801 L 164.23698802106082,63.531232935376465 L 163.31795360520482,61.74457242153585 L 162.46169476024806,61.1158085106872 L 161.99213345348835,60.41204094560817 L 162.81574899330735,60.42316677328199 L 165.65320498682559,60.976714469026774 L 166.53206304460764,61.90316968364641 L 167.0643999185413,62.12159873638302 L 167.0443117544055,62.74634224642068 L 168.62374522909522,63.11928574414924 L 169.45991588197649,63.09701949683949 L 169.826525259763,62.85209889803082 L 169.96212049387395,62.48752828221768 L 171.06697059981525,62.025599823798984 L 172.13666641153395,60.6234367210418 L 172.5710733924061,60.97393260896206 L 173.15614176914096,61.13667304022238 L 173.76129830814898,61.04347902815789 L 174.2660139389336,60.6234367210418 L 173.1963181272149,59.69170804787427 L 174.4417855311185,58.8964290744625 L 174.86363739706576,58.34038117900491 L 174.45685169287026,57.80386613076553 L 174.00988959893584,57.873358954675496 L 172.5635403431952,58.99096467997879 L 170.17304641194642,60.08384276088327 L 168.7015869282186,60.41482242522761 L 167.6770895384252,60.156155354809016 L 166.8484519366175,60.345286645926535 L 163.99090774729848,59.45811367733404 L 161.20869427360594,59.43447688082233 L 159.22247506305575,58.86723469942808 L 156.7491174004972,58.49050670070574 L 154.71016668714583,58.45436489349231 L 151.84006738476455,57.103443783242255 L 150.5745117869228,56.8699961216189 L 148.94736887328327,56.05859024589881 L 148.34472334943712,55.95856496412307 L 142.65725621767342,57.35775007121265 L 140.58817327395082,56.71715064626187 L 140.02068207599223,56.8699961216189 L 140.42244574800134,57.591225343290716 L 138.59693203121424,57.353580966126174 L 137.24349060468376,56.65879293065518 L 136.2390814088285,57.186821181327105 L 135.39035561122,56.8533218014054 L 134.73748963326216,56.07387209683657 L 134.02435910142958,54.81678106635809 L 133.78330089338124,54.565408722963184 L 133.01492784172297,54.307108324952424 L 130.98853227309883,54.630680738482624 L 130.03936559706926,54.93622300354764 L 127.62627245672047,55.00705646863207 L 125.7756485119462,55.36402010731399 L 124.8189487233758,55.408469087444246 L 123.93757964856923,55.00705646863207 L 123.25960344262421,55.30568154389039 L 122.2777934577316,55.414025265257806 L 120.33677266910672,55.26123363478109 L 119.53826732747257,54.932056377176195 L 118.84271397441626,54.3584893848747 L 118.30535503663123,53.64893175987527 L 117.99901024252176,52.90895525412634 L 117.81821658462286,52.02060264116153 L 117.99901024252176,51.258714270778 L 119.2494996804744,50.71062971511856 L 119.2821429874748,50.326319879852235 L 117.57966939173639,49.86020114226267 L 115.89226192608476,50.11406289879233 L 116.71336644887924,51.42523532034829 L 116.7359656598419,51.99978417856619 L 116.20865081809461,52.79234811197966 L 114.81503303349018,53.42539773648605 L 113.3636617437005,53.6072785416618 L 112.99956341460347,53.31155271874741 L 112.55009027197957,52.586905444506556 L 110.92294735834002,52.20936163747683 L 110.24999321624637,52.42450188891962 L 109.18029740452766,53.46704912511632 L 108.49729913473129,53.86136971367523 L 105.56944629736245,54.3945953482762 L 104.9165803194046,55.00705646863207 L 103.04335716366768,55.077891181223094 L 100.28374286927283,55.66544921929017 L 100.66792939417064,57.35775007121265 L 99.94475476630032,57.97482060547918 L 99.8242256604135,58.40849300613627 L 99.95228781551123,58.76853139838204 L 100.64533018320799,58.99096467997879 L 101.71502599492669,58.8408209127374 L 102.02388180606067,58.95203798729926 L 102.15947704203427,59.45811367733404 L 102.01885977387428,59.6110608689487 L 101.29568514414132,59.69170804787427 L 99.1110950987786,59.2801459133625 L 98.76959597878158,59.57490922184661 L 97.04703418910503,58.72404619725421 L 96.64527051709592,58.29173058271408 L 97.27804830111563,58.52525877393782 L 97.49901834689081,57.92478440888226 L 97.7300324589014,57.76217099884525 L 98.45320708677173,58.40849300613627 L 98.87505895458162,58.41822336893529 L 99.8242256604135,56.65879293065518 L 99.42748402245343,56.019691227935255 L 99.21153604052961,55.96134340483695 L 96.96919248998165,55.74879754288122 L 96.43434456922114,55.95856496412307 L 95.64337233826518,55.63211034005508 L 94.4857907295227,55.84742856165394 L 91.34952299110591,57.000614035408944 L 89.27792900055647,57.353580966126174 L 87.18373579904437,57.29521428141743 L 85.1698953434825,56.98116002371535 L 84.17804126255214,56.65879293065518 L 83.10081236995757,55.95856496412307 L 82.2646417170763,55.00705646863207 L 81.81014654226601,54.14741452410817 L 81.48371355421841,53.905802581924945 L 80.99908611923456,54.073818570468575 L 81.3757395632565,53.081095594447106 L 82.51825504004955,51.740255860611796 L 82.30230705812573,51.03808417590335 L 81.95578587614,50.81330335140228 L 80.97648690640926,50.99645717814565 L 79.19868259690702,51.79576856503263 L 78.14405294694006,51.976190018001944 L 76.0197274852544,51.723602201323956 L 72.01966781914234,53.00890682032332 L 70.95750508829951,53.10747256921604 L 70.00331631675363,52.90895525412634 L 68.0848947390914,51.85405773110688 L 67.37176420725882,51.723602201323956 L 64.73519003391266,51.976190018001944 L 59.43190942890942,53.14079107530415 L 51.93283201567829,53.2185577256605 L 50.38078707270324,53.04373607551679 L 50.005529034882784,52.299580379389226 L 50.085881780833006,51.831852234434336 L 50.75883595459163,51.512661518063396 L 50.14363531768322,51.258714270778 L 49.36772918701172,51.504335119389 L 48.42609556019306,51.25177605682984 L 46.94710302725434,50.326319879852235 L 46.24401656165719,49.510646391194314 L 46.03057962656021,48.978048003744334 L 46.1209764406085,48.46354501321912 L 46.518037032336,48.05759034631774 L 47.60577738843858,47.67408361192793 L 47.41473645158112,47.19699676334858 L 44.60387045145035,47.28026390308514 L 43.557921055704355,47.57366125006229 L 44.62942876294255,48.46354501321912 L 45.38524669781327,48.64936894271523 L 45.473132494837046,49.046005978714675 L 44.83607327006757,50.522166322916746 L 43.50134496577084,51.43944993754849 L 41.57556501030922,51.713949895929545 L 40.13720861077309,51.656988197006285 L 38.12660581804812,50.93202067818493 L 37.477337185293436,49.72107601026073 L 37.912442207336426,49.34420205326751 L 38.0586208011955,48.56480332650244 L 38.65570503100753,47.863140794914216 L 37.98837969452143,47.645934101659805 L 33.481837244704366,47.94627689989284 L 31.988938931375742,47.72310516051948 L 31.258231222629547,46.490716990083456 L 30.94686436280608,45.505345632787794 L 30.57272193580866,45.52197443554178 L 29.192309975624084,44.819299332331866 L 28.093567891046405,44.673041254282 L 27.312396585941315,44.95617867028341 L 27.019666727632284,45.48924254486337 L 27.19539598748088,46.22044432396069 L 27.5067628454417,46.582197865471244 L 27.280770767480135,47.04379101563245 L 27.401299871504307,47.33491208497435 L 28.25253668613732,48.14461282407865 L 28.460951587185264,49.176377459894866 L 28.983244363218546,50.11406289879233 L 28.96315616928041,50.6190580772236 L 28.855182208120823,50.72450437955558 L 28.463462602347136,50.55939887277782 L 27.92861471325159,50.11406289879233 L 26.221119051799178,51.046409639529884 L 22.951767096295953,51.100525472313166 L 23.933439187705517,53.945306338369846 L 24.647775024175644,65.14787172339857 L 24.934784960001707,65.96842821780592 L 25.58215181902051,66.68655031686649 L 25.671443792060018,67.86836613435298 L 25.177148912101984,70.48444063961506 L 25.82770474255085,71.3857651045546 L 27.61354430578649,71.65319061791524 L 28.082327218726277,72.22529236366972 L 29.791630793362856,84.1533484607935 L 30.05312873236835,85.21944025764242 L 30.502777626737952,86.14539351314306 L 31.249003436416388,86.73022301308811 L 34.97056553699076,87.78988884668797 L 36.652762627229095,88.81248406786472 L 38.562973169609904,89.22337432811037 L 38.843605099245906,89.57737869722769 L 38.95522006414831,90.4242704603821 L 39.47821594402194,91.26066388608888 L 43.167888071388006,90.45629932032898 L 43.83757789246738,90.81219281023368 L 43.340094009414315,92.72566573927179 L 43.560134936124086,93.15298548340797 L 44.529590705409646,94.10749895125628 L 44.848490646108985,94.70774902403355 L 44.609315698966384,95.34193981578574 L 44.666717698797584,95.64481951575726 L 45.12912257574499,96.07423576852307 L 46.63751921057701,96.86548138549551 L 47.897173922508955,96.94924858072773 L 48.570052744820714,97.75136521505192 L 54.02643044665456,98.3860438382253 L 54.65785228833556,98.60713563719764 L 55.42321208678186,99.22946848301217 L 56.36237237229943,98.97267743945122 L 57.31588312610984,99.19023541873321 L 58.0190574657172,99.57366604404524 L 58.57394331879914,100.47799639962614 L 58.90878824517131,100.57611177954823 L 66.21797445602715,100.39415429998189 L 68.63842486403883,100.17474615527317 L 69.53772265277803,100.37631579395384 L 70.87391332164407,99.92859546514228 L 71.56592616438866,100.60822276864201 L 71.89120411127806,101.98745951196179 L 72.1367570348084,107.00532371364534 L 72.3615814819932,107.55035373708233 L 72.87022686190903,107.81664186157286 L 74.12350356578827,108.01860401313752 L 74.58590844087303,108.4404346854426 L 74.68476742319763,109.07326601399109 L 73.76314664259553,110.84180422127247 L 73.65153167769313,115.16012087557465 L 74.56358547881246,116.88485011551529 L 75.16949532553554,117.14819396892563 L 75.84396863542497,117.15356854442507 L 76.3749370072037,116.94396656192839 L 75.32416175864637,119.27889186097309 L 74.88248538784683,119.92962460359558 L 74.5540184378624,120.28999483259395 L 73.51121571287513,120.74722920265049 L 72.3615814819932,121.70131998602301 L 71.97730707935989,121.83943158900365 L 69.97780456766486,121.31032945867628 L 68.24617800116539,121.31032945867628 L 66.62935537099838,120.80999111989513 L 63.19320869073272,120.2792369783856 L 62.21896946057677,120.49260573182255 L 61.24632468633354,120.97855663998052 L 60.36137736774981,120.684468339663 L 58.56278182193637,122.13002020912245 L 59.05229321308434,122.16051533306018 L 59.35684262216091,122.39192746393383 L 59.686904057860374,123.27644436853006 L 59.74430602602661,123.8399139023386 L 59.591234078630805,124.21680257841945 L 58.98532423377037,124.95273912791163 L 60.60693032108247,128.61117756552994 L 60.79508127644658,130.05791427381337 L 59.73314452916384,141.72010647226125 L 58.357091365382075,147.49063508212566 L 59.30422414280474,155.06365434732288 L 59.154341166839004,156.28794497670606 L 58.4687063600868,156.70427712518722 L 53.418926084414124,155.67801171075553 L 52.79547670483589,156.07346157822758 L 50.84699818491936,158.18896965123713 L 49.98277940414846,159.910685736686 L 48.64658873528242,160.56752043776214 L 47.70742844976485,161.88516346365213 L 46.85118216276169,162.33294213889167 L 42.77564114704728,163.15975239221007 L 40.208496768027544,164.3114287899807 L 37.1725695040077,164.69963337481022 L 36.23819270916283,164.99353492679074 L 34.7664695661515,165.84634422557428 L 32.920039031654596,166.36447643721476 L 32.349208161234856,166.67575362231582 L 31.37337438389659,167.80582812288776 L 29.415328884497285,169.62647411134094 L 28.133351180702448,171.2926300028339 L 24.950729977339506,174.19066554075107 L 24.054621193557978,175.2930276687257 L 23.171268390491605,177.23114988021553 L 22.281537612900138,178.22790742246434 L 21.870156697928905,180.0309528624639 L 20.565856032073498,183.0370954591781 L 20.294791081920266,183.40175527101383 L 19.312579330056906,184.04364514024928 L 19.242421347647905,184.2497303681448 L 19.83557520993054,184.99757115589455 L 19.85152019560337,185.62332188524306 L 19.022380389273167,186.0904246820137 L 18.30804455280304,187.70567621896043 L 17.408746795728803,188.02150991931558 L 17.080279875546694,188.39306045789272 L 16.742245946079493,190.07418606290594 L 15.364598296582699,191.76705766795203 L 15.071210352703929,192.4881160785444 L 15.071210352703929,193.18097942695022 L 15.495347250252962,195.11219185963273 L 15.21152631752193,196.00865492597222 L 13.41611977480352,197.1505960985087 L 0.0,213.17976040160283 L 0.975833747535944,212.7293447619304 L 47.211539052426815,197.79675849247724 L 50.390971314162016,197.19269380019978 L 84.05723615549505,200.36974578304216 L 96.50390012934804,197.96335172839463 L 100.0245552919805,196.44141534203663 L 100.86645111255348,196.78454990917817 L 101.98897882923484,198.98687956435606 L 102.69374765641987,199.90262547461316 L 103.77800739556551,200.458597115241 L 112.1076733712107,202.95466131949797 L 122.67920581065118,202.86666474025697 L 127.81030556559563,201.93275099433959 L 129.3458086848259,201.88326675724238 L 165.1152185406536,212.36721524596214 L 167.5707479249686,214.13961205538362 L 169.0281205996871,216.3250708701089 L 169.5861954856664,216.68208359275013 L 167.11472105421126,219.05326774017885 L 166.02886679768562,219.81208799267188 L 165.8454993646592,220.2910390989855 L 166.37168424762785,222.20749389519915 L 168.36321423761547,226.27604477666318 L 168.49874671176076,226.9607471311465 L 168.42858872935176,229.12277343077585 L 169.0089866090566,233.84657887928188 L 168.7602446526289,235.31159062264487 L 167.7780328989029,236.73834909219295 L 167.25344250164926,238.1601375322789 L 167.3475179951638,239.7214421024546 L 170.3802562840283,251.26505384081975 L 170.66088818386197,251.76322010345757 L 171.1838840637356,252.04765334539115 L 175.3550950884819,252.90109434444457 L 176.05029687471688,253.2116581047885 L 178.9490971751511,256.20715852919966 L 179.53906206600368,257.033707450144 L 180.58505379408598,261.0967518812977 L 181.33446860685945,261.61872169561684 L 182.51439832523465,261.78092144895345 L 184.95079371891916,264.026409371756 L 187.03161574155092,265.05639730906114 L 188.18443894572556,265.3885975801386 L 189.9989795088768,265.42965827463195 L 190.45341192372143,265.1870339848101 L 190.67185836285353,264.6869092541747 L 190.73563833907247,263.88275829330087 L 190.36252543516457,263.1478072726168 L 190.40557693317533,262.8587202364579 L 191.02264827489853,262.54355005407706 L 192.35564994066954,262.4036909425631 L 194.1542455162853,262.7300377590582 L 196.53004993870854,261.6895666308701 L 198.64116741716862,261.70821026246995 L 200.61675245128572,261.52737122029066 L 201.18439431674778,261.6336363116279 L 203.32261827774346,262.5491445264779 L 205.15629286132753,262.7971758134663 L 206.29476556554437,263.29142735991627 L 207.9434781651944,263.6010705125518 L 208.51430903561413,263.8137333020568 L 211.31106135062873,265.7674948028289 L 211.81173423863947,265.91495881974697 L 213.058632934466,265.868292291183 L 213.53060482256114,266.08669714350253 L 213.84950472973287,266.7625343152322 L 213.7044052761048,268.27712188707665 L 212.59144456870854,268.6413960047066 L 210.02589467540383,268.2995376205072 L 208.8013189714402,268.8599792714231 L 208.35485908016562,269.3980903541669 L 208.17308613285422,270.81290789553896 L 207.0936098843813,272.52755422890186 L 207.49064026772976,273.16726315487176 L 208.463285041973,273.1897113104351 L 210.4675710760057,272.7426475114189 L 211.41948734410107,272.8399116047658 L 212.357053110376,273.2233837870881 L 214.03765568509698,274.409617042169 L 215.93670476041734,276.5586209851317 L 216.79932902380824,276.9818440899253 L 218.15784271620214,276.84326076554134 L 219.40793041698635,276.9106789478101 L 219.74277534335852,277.0923402640037 L 220.60699412412941,278.0064138295129 L 222.22700572572649,278.911366247572 L 222.65592611394823,280.2589409686625 L 223.67481135949492,281.20200217003 L 224.66977912560105,283.37786518083885 L 225.06521505489945,283.85636912379414 L 225.6998258996755,283.90140829235315 L 227.17154904454947,283.2465230706148 L 227.9576373193413,282.60302119655535 L 228.6592171434313,281.7402094034478 L 231.7764639146626,281.59955460438505 L 235.01329814642668,280.4370336518623 L 236.15655437111855,280.24769331142306 L 237.35402356088161,280.81949614407495 L 237.75424297899008,281.27325812587515 L 237.47042204625905,281.59955460438505 L 234.35317530483007,281.74771116906777 L 233.81742341071367,281.98590062605217 L 233.71059193648398,282.34415439749137 L 234.31012380495667,282.8168827914633 L 236.37500078044832,283.7831817381084 L 237.06541913747787,283.79444124596193 L 238.10184388794005,283.38912329124287 L 239.90362843684852,282.36103641148657 L 241.64163300953805,282.04216828383505 L 242.02750192768872,281.820854132995 L 242.23159786872566,281.3763944017701 L 242.32407887466252,279.91028152871877 L 242.55687581561506,279.37798958690837 L 244.77323025092483,276.3807333330624 L 245.5928030461073,275.8003230863251 L 246.81737875007093,275.942607939709 L 248.77542431280017,276.95000688917935 L 249.8246050439775,277.2889950131066 L 250.94394375942647,277.2103317147121 L 251.769894560799,277.55871157953516 L 252.88285529986024,278.3567495769821 L 255.172556752339,280.70137805258855 L 258.5497069489211,285.9363094815053 L 259.3884137328714,286.8490377133712 L 260.8665148522705,287.9630539016798 L 261.0498823169619,288.29939817171544 L 260.96856283955276,288.77108879573643 L 259.99591809511185,291.5386807867326 L 259.3916027061641,294.98634330462664 L 259.9177875891328,301.2113544261083 L 259.80457813851535,301.9792185635306 L 259.0057338178158,304.02143530827016 L 258.68045590259135,305.5935945515521 L 258.8303388468921,307.1060296744108 L 259.4075477235019,308.49154213024303 L 260.34511348977685,309.67148333322257 L 260.9669683519751,310.07340293284506 L 262.2457570526749,310.5226653749123 L 262.7910759244114,310.9776653512381 L 264.79057840816677,314.150228403043 L 264.8862483855337,314.600049528759 L 264.43978849612176,316.73446406424046 L 263.4703327566385,317.42728764843196 L 263.2566697746515,318.4331382699311 L 263.5915147010237,318.92717082984746 L 264.63750646077096,319.7153122504242 L 265.3932992797345,320.7750033023767 L 266.37232203036547,321.5522025199607 L 266.67846595682204,322.6191367045976 L 266.10125711001456,326.6051984941587 L 266.6944109722972,327.8592160278931 L 267.5107947643846,328.9015889358707 L 268.53924702107906,329.57607632130384 L 271.4141298122704,329.91575146187097 L 272.24964762479067,329.64933655178174 L 272.81250597164035,329.7882501706481 L 274.26190612092614,330.8388582752086 L 275.4609698280692,331.0406445255503 L 277.52425234764814,330.00519564934075 L 278.8269585277885,330.10035177879035 L 281.13738848641515,331.5166053548455 L 282.3380466494709,331.50327746383846 L 282.71275407262146,331.66797551326454 L 282.9487400148064,331.9983489722945 L 283.98197576217353,333.96319727925584 L 284.34552168659866,334.1099183689803 L 285.75187036953866,333.8060035617091 L 286.3514022063464,334.14612328540534 L 291.58614443428814,338.57094649458304 L 291.80618539080024,339.78380467230454 L 291.3166740015149,340.93219504505396 L 289.69028439186513,342.7706650272012 L 289.30282098799944,343.63630433473736 L 287.9809808190912,344.27947463979945 L 287.2825899682939,345.50787764647976 L 287.22199899517,346.91944988584146 L 287.853420836851,349.25718202255666 L 287.87255485728383,350.15521860215813 L 287.75296736881137,350.39844043320045 L 287.00514704175293,350.8140670941211 L 286.59057712368667,351.2422000179067 L 286.1457117497921,353.2850034269504 L 285.8379733376205,353.68471055757254 L 284.52410566248,353.4517816142179 L 282.8658260498196,354.1678768149577 L 281.65719536319375,354.33566003711894 L 281.1900069657713,354.62714449409395 L 280.38159563578665,356.62222871696576 L 279.37706089019775,358.2959960959852 L 278.9656799752265,359.7065232070163 L 278.6898315344006,360.19348793802783 L 277.7857502885163,361.100383058656 L 277.5975993350148,361.65290939155966 L 278.5511100869626,362.7582513582893 L 278.5702441073954,364.45931003894657 L 279.08367297798395,364.9797149011865 L 279.9096237793565,365.26544499536976 L 281.54717485420406,365.5204111048952 L 282.5883831232786,365.44824882782996 L 289.2533915117383,363.0995436394587 L 291.0041520688683,362.93129636207595 L 292.6273527033627,362.2286002053879 L 295.1195555794984,362.121911696624 L 297.6659714523703,361.57122549414635 L 298.6067262236029,361.53759155375883 L 302.7476417310536,362.1344065684825 L 306.91725824028254,362.090194189921 L 309.1049116756767,362.50735289556906 L 309.78735754080117,364.0803630598821 L 310.09509598463774,364.16692054178566 L 311.49666111543775,363.85243962239474 L 311.9367430303246,363.9976547230035 L 312.6510788369924,364.8383025028743 L 314.7972753215581,365.3770502493717 L 315.2883811984211,365.83794493880123 L 315.43188616633415,366.5366317713633 L 315.2931646872312,367.7399675976485 L 315.63598210550845,368.48337726294994 L 316.4970119148493,369.4735785261728 L 316.6915408447385,369.9736135965213 L 316.7345923446119,370.8679013475776 L 316.3455344531685,372.92534282337874 L 316.3519124612212,373.6014880645089 L 317.2559937071055,376.2071181018837 L 317.1220557503402,377.1263604927808 L 314.92802430689335,378.35887753451243 L 313.09434975497425,380.3516361815855 L 312.1599729601294,382.01872042100877 L 311.98776699230075,382.8574339277111 L 312.0292240045965,383.6808887110092 L 312.3895809277892,384.34484251821414 L 312.91895478218794,384.58684335369617 L 314.82278731651604,384.397113120649 L 315.3872401788831,384.67203211877495 L 315.7188961021602,385.423342986498 L 315.82094408757985,386.337553109508 L 315.4781266376376,387.9516345206648 L 315.521178137511,388.52538740169257 L 315.8432670813054,388.96352679422125 L 318.0133810453117,390.74192129727453 L 319.204472258687,391.37051805714145 L 319.622231150046,391.78771275701 L 321.24383726902306,394.1192149682902 L 322.2882345113903,396.5554808010347 L 323.38206123001873,397.4029895546846 L 327.54848873429,399.1006499454379 L 327.8450656812638,399.3652034397237 L 328.33298255316913,400.63771139783785 L 329.13342135958374,401.5875702085905 L 329.0600743740797,403.97324066143483 L 329.86370218358934,404.974799556192 L 331.9971426539123,406.4680007402785 L 332.77206946350634,407.6732276151888 L 333.03994541056454,408.41258957376704 L 332.9091964568943,408.9199066311121 L 331.96844165585935,409.6849433942698 L 330.25913805142045,411.65891753556207 L 329.7042522300035,412.6141452710144 L 329.7584651950747,413.63611982762814 L 330.70559797249734,414.87154319882393 L 332.210805606097,416.1915743071586 L 332.5137605275959,416.7471357877366 L 332.56159551627934,417.4847804820165 L 331.4932807944715,419.0487076784484 L 331.30512984097004,419.890702996403 L 331.649541746825,421.2951992615126 L 331.66867573559284,422.02218768093735 L 331.3816658295691,422.5846942225471 L 329.17806731536984,423.8021814785898 L 328.5594014879316,424.30617970833555 L 328.26920254714787,424.95149800973013 L 329.21633532457054,426.4329147064127 L 329.3949192687869,427.1238358556293 L 329.2577923387289,427.797242954839 L 328.8687344174832,428.4649079698138 L 328.03002763167024,429.2996962838806 L 327.8865226637572,430.7793105095625 L 327.685615696013,431.34147852892056 L 326.213892551139,433.7820284627378 L 324.81392190791667,434.783598435577 L 324.4854549895972,435.36029154993594 L 324.3531115166843,436.6085308389738 L 323.8954901304096,437.150120398961 L 321.29964475147426,438.0759717384353 L 320.51196192763746,438.93115981528535 L 318.6304523870349,440.1907388144173 L 318.4757859222591,440.90453743049875 L 318.7675793468952,441.4942393070087 L 319.762547114864,442.50429885229096 L 320.2393024917692,443.94698495743796 L 322.6772924028337,445.396290528588 L 323.20347728580236,446.8206100589596 L 325.1567392963916,447.50831892807037 L 325.78337767906487,447.99850672017783 L 328.1384535934776,450.6445365655236 L 328.65507146529853,450.9927687677555 L 329.9848841279745,451.36281000310555 L 330.5844159964472,451.69133424945176 L 330.08693211339414,452.78403650643304 L 330.2400040924549,453.3681629165076 L 331.26367282681167,454.54468351230025 L 331.89190566539764,456.34601682890207 L 332.19167158566415,456.6770733660087 L 332.7688804604113,456.7385310600512 L 333.39073532260954,456.47883147513494 L 335.16700787469745,455.27776796836406 L 336.0758726745844,454.29904153663665 L 336.528710572049,454.11482329666615 L 337.5045443177223,454.322812450584 L 337.8680902440101,454.74675908498466 L 337.7787982709706,455.27182332612574 L 337.25580239109695,456.3123184987344 L 337.2143453788012,457.525698043406 L 337.84895622357726,457.9362178714946 L 339.84845876693726,458.0671201944351 L 340.3459426499903,458.2555502592586 L 341.54181735403836,459.35066483868286 L 343.0055680051446,460.19608370866627 L 343.50305185839534,460.71218541357666 L 344.14404073916376,461.07350997347385 L 345.4100734256208,461.38126615900546 L 345.90755727887154,461.85785491671413 L 345.76724131405354,462.849007547833 L 346.03511726111174,463.17482944438234 L 347.1767789684236,463.6278609102592 L 348.9689965378493,463.8802374457009 L 349.50793743506074,464.1942477449775 L 348.8286806046963,465.567937258631 L 348.94667357578874,466.05912140617147 L 349.4473464321345,466.4151317621581 L 350.8026711214334,466.9959780354984 L 353.529265454039,467.62270388845354 L 354.8941571228206,467.7062773723155 L 356.1633788123727,468.1261704284698 L 357.5761054698378,468.0346246692352 L 358.2234722971916,468.20975819276646 L 360.1560058314353,469.8521398813464 L 361.6516464855522,470.622881192714 L 363.63839301653206,471.0989693533629 L 365.68254151567817,471.2444006963633 L 368.2592528741807,470.86191165912896 L 370.9858472067863,471.00135506968945 L 373.3967306353152,471.8421391751617 L 374.35024142079055,471.45160297630355 L 374.7743783183396,471.4316790988669 L 376.37844490259886,472.30646636802703 L 380.986548807472,472.79877294879407 L 383.32089624740183,472.3941586832516 L 385.30445377342403,472.9941238453612 L 386.7841494102031,472.88448652625084 L 388.8251089062542,473.16357136145234 L 390.78315443731844,472.8625595443882 L 394.81723847053945,473.5553314127028 L 398.9151024799794,473.3768897205591 L 400.802990026772,473.02402561949566 L 401.75968978367746,472.62735319696367 L 404.2853771504015,471.01928394893184 L 406.1190517023206,470.43565421691164 L 407.0119714830071,470.4296790556982 L 408.8328900523484,471.03322877176106 L 409.1294669993222,471.42171715246513 L 409.4802569113672,473.2811935781501 L 409.9235277976841,473.6241191388108 L 410.42738968878984,473.7507325382903 L 412.4555932022631,473.49751114472747 L 413.1954410355538,473.7686781915836 L 414.7038376405835,475.00619486998767 L 418.0809878371656,477.31509121414274 L 419.36296550929546,477.6704671205953 L 420.02308835089207,477.71539125964046 L 420.6289981957525,477.51972658745944 L 421.40392500534654,476.4807258457877 L 422.00983485020697,475.9429052686319 L 422.50412976183,476.0875782929361 L 422.8708646893501,477.8911012681201 L 422.6572017092258,478.3833449189551 L 426.36281882226467,479.65177689725533 L 426.8411686848849,479.5438889246434 L 428.113579409197,478.18164486112073 L 430.37776883505285,478.13172122929245 L 431.36316962353885,477.3190839677118 L 432.4856973402202,475.4949628668837 L 432.8396762572229,473.95910819713026 L 433.25424617528915,474.1266170218587 L 433.71665105223656,475.6116806953214 L 434.0164169706404,476.09955156827345 L 434.462876861915,476.42085226997733 L 436.06375447288156,476.938799041789 L 437.22455017082393,476.9467834937386 L 439.86823053844273,477.3190839677118 L 440.8759543187916,476.9547680057585 L 441.752929084003,476.1634097849019 L 442.79892084375024,475.5717766643502 L 446.4503249619156,474.7947530588135 L 447.6174986958504,474.29413541732356 L 448.4402604959905,473.46461390610784 L 448.9505003616214,472.30646636802703 L 449.4447952415794,467.7998028774746 L 450.104918083176,466.86070224735886 L 451.9768606144935,466.7751634363085 L 452.452021503821,467.81174257211387 L 454.38136606663465,468.54811363341287 L 456.82732843980193,468.05850592814386 L 459.26372386328876,466.8706488162279 L 461.17074540257454,465.5102732349187 L 462.99804194644094,463.85241539636627 L 463.7697797846049,462.880793441087 L 466.91094400547445,456.8574850000441 L 467.04982645623386,456.19805879797786 z" /><path fill-rule="evenodd" fill="#D2EBD9" stroke="#A6A6A6" stroke-width="0.25" opacity="1" d="M 201.52065772935748,12.42463747644797 L 201.98017493635416,11.969536531250924 L 202.68577241897583,11.953038308303803 L 204.06683505885303,12.42463747644797 L 204.91053879074752,11.944789203349501 L 204.2878051046282,11.676702253054827 L 203.94128392077982,10.758458037860692 L 203.10762428492308,10.559164208825678 L 202.56775433011353,10.761206975206733 L 202.0730827972293,11.253296071663499 L 201.52065772935748,12.42463747644797 z" /></g></g></g></svg>