<svg xmlns="http://www.w3.org/2000/svg" xmlns:xlink="http://www.w3.org/1999/xlink" width="500.0" height="473.71625750139356" viewBox="0.0 0.0 500.0 473.71625750139356" preserveAspectRatio="xMinYMin meet"><g transform="matrix(1,0,0,-1,0,473.71625750139356)"><g><path fill-rule="evenodd" fill="#D2EBD9" stroke="#A6A6A6" stroke-width="0.25" opacity="1" d="M 235.0116565041244,39.46975023765117 L 235.22312313318253,40.752823159098625 L 235.0787068940699,42.342375154607 L 234.3617833815515,45.62295174598694 L 233.31992323324084,48.4047393752262 L 232.9846712872386,51.05711731966585 L 232.7783623393625,51.65874322131276 L 232.03049249574542,52.21662820223719 L 230.47286005318165,51.742420678026974 L 229.74562112987041,51.68265083152801 L 229.11637887731194,52.06120902579278 L 227.48653831519186,53.75522691383958 L 226.77477258257568,53.970521613024175 L 225.2377710584551,54.106083918362856 L 224.57242474518716,54.57261514570564 L 224.25780366919935,55.15087543334812 L 223.75750451348722,57.39696654397994 L 222.5815436374396,59.824098547920585 L 221.7150461561978,62.17288803122938 L 221.69441523589194,64.24727938883007 L 223.0663696024567,65.84282499644905 L 221.74083475582302,66.55884229112417 L 221.52421034872532,67.50707621779293 L 221.64799571596086,68.69570885132998 L 221.33853231929243,70.10094388667494 L 220.60097793862224,70.5494492398575 L 218.63588537834585,69.28816522378474 L 217.47539769113064,69.28416185826063 L 213.76699476130307,71.33846865035594 L 211.83800621144474,72.02749501168728 L 209.8264942318201,71.77911040186882 L 210.14627303928137,71.5147190997377 L 208.7485300730914,70.29315395373851 L 208.02644883096218,70.14899551589042 L 207.03616598248482,70.96196141652763 L 206.20061483047903,73.1133699323982 L 205.6074766367674,73.5542210098356 L 203.84869307652116,74.06326839886606 L 202.2755874916911,75.42240401729941 L 201.51740219071507,75.84347564913332 L 198.32992923446,76.44909993372858 L 197.6800561118871,77.20325956586748 L 198.00499269738793,78.6357802208513 L 195.09087907895446,80.54666358139366 L 193.5538776051253,80.93217041529715 L 193.77565969340503,79.1736190058291 L 194.0387035701424,79.06122838426381 L 194.86393926106393,79.1736190058291 L 195.21466444805264,78.6357802208513 L 195.30234575644135,77.86126798857003 L 195.04961728863418,77.5202126186341 L 193.42493450641632,77.03476396203041 L 191.42373793758452,76.97458873223513 L 190.51597861759365,76.73790902364999 L 189.04602753371,75.42240401729941 L 187.23050899244845,74.86906790547073 L 185.41499040089548,75.25398876797408 L 182.18109802529216,78.47925960551947 L 181.6189061626792,79.25791419390589 L 180.60799239203334,82.00457101687789 L 179.58676321431994,83.13755376357585 L 179.4320315644145,83.58360949810594 L 179.59192099422216,84.00962246768177 L 180.0561160389334,84.40754640288651 L 180.0561160389334,84.67285270616412 L 179.3546657152474,84.82159319054335 L 177.34315363690257,85.67395089939237 L 175.88351801224053,85.21156292688102 L 175.10470179095864,85.56538513023406 L 172.68057191744447,88.64264223910868 L 172.57741746865213,89.21010052319616 L 172.94361579418182,89.99502573348582 L 173.49033441767097,90.27280823420733 L 175.89899115264416,90.36540690250695 L 177.22968372888863,90.8888344578445 L 179.3546657152474,92.16550087276846 L 180.36557943560183,93.04371489863843 L 180.83493226021528,94.22439330723137 L 180.0561160389334,95.66750586684793 L 179.53002828359604,96.19167961459607 L 179.4165583755821,96.9780789706856 L 179.51455509476364,97.69203153438866 L 180.16958594694734,99.3988127745688 L 180.17990140803158,99.84278504457325 L 178.8595242407173,101.52632519230247 L 178.0136576294899,101.8413166264072 L 177.68872109428048,101.63131937012076 L 177.2812609784305,100.46039824746549 L 175.80099443346262,98.40612128842622 L 174.94481236301363,97.70413366239518 L 173.78948240540922,97.40159360691905 L 169.32805185206234,98.19228342175484 L 166.95034144818783,97.97442348208278 L 165.48554809391499,96.19167961459607 L 165.22766194678843,96.01829090621322 L 164.69641641154885,96.02232307754457 L 164.4436879940331,96.19167961459607 L 163.97949289903045,97.64362365100533 L 162.89121333137155,98.52716703992337 L 161.7874605730176,98.44243460800499 L 161.24589962884784,97.01437834650278 L 160.5805533658713,97.51857286132872 L 160.2349859084934,98.3213916150853 L 160.19888179935515,100.32717889361084 L 159.4510119576007,101.30826982948929 L 160.3690866883844,101.67977929394692 L 159.33754204772413,102.11998529732227 L 156.99593575298786,102.05132582969964 L 155.80965936556458,102.39463562332094 L 154.05087580531836,103.50960143934935 L 153.56089211069047,104.04296429920942 L 153.26174417324364,104.72190059255809 L 152.78207588754594,106.58152830787003 L 152.8903881162405,106.79989350773394 L 152.3075653836131,106.97783022560179 L 150.7860370501876,106.66240284778178 L 150.1000598166138,106.67049032822251 L 147.75329579226673,108.32476432528347 L 142.62651897594333,109.76527081709355 L 141.4711889680475,109.62767017353326 L 139.3255761116743,110.91888850461692 L 138.18571929261088,111.0646341945976 L 136.82923811674118,110.23881786875427 L 136.83439584821463,109.14610822219402 L 138.43329003080726,106.77967397775501 L 139.00063957460225,105.34841023478657 L 139.86197932623327,102.16845151782036 L 140.79552724584937,101.20328470133245 L 142.01274991221726,100.4886575145647 L 142.92050918377936,99.487603017129 L 143.44659693725407,98.08738626725972 L 143.51880505681038,96.19167961459607 L 144.16867817938328,95.32884814962745 L 144.26667494885623,94.30096907168627 L 143.94689609110355,93.63602206856012 L 143.34344248846173,93.86571760941297 L 142.58009950630367,95.13534330762923 L 142.28095152042806,95.34094259049743 L 141.5485548172146,95.35303691402078 L 141.40929630957544,95.13937459979206 L 141.29582639969885,93.91004646476358 L 140.84710449539125,93.87780729401857 L 139.92387203499675,94.20827236492187 L 139.48546553961933,94.19215141329914 L 138.8871696665883,93.77706148289144 L 137.58742346987128,92.20175332389772 L 136.42177800275385,91.90368816722184 L 135.42117969319224,91.97216045577079 L 134.43089684285223,91.82716171443462 L 133.31167089566588,90.8646746147424 L 131.264054806903,87.58442270290107 L 130.15514431893826,86.77989418059587 L 128.6181427948177,84.67687260918319 L 126.59115762636065,84.52813789993525 L 124.4971220176667,85.61765719763935 L 122.77960019744933,87.20627261325717 L 121.9027872569859,88.356933536008 L 121.4334344305098,89.33084756322205 L 120.86608493700624,91.98827179335058 L 120.32452399283648,93.46275242604315 L 118.81331111863256,95.04262588731945 L 115.47110646404326,100.50480578560382 L 114.36219597607851,101.28404221124947 L 112.13921731896698,102.0997911542654 L 111.25208891928196,103.28334943857044 L 111.12830355018377,105.40500340424478 L 110.7775783650577,106.13270678557456 L 110.30306780897081,106.2823079302907 L 108.02851190418005,106.2823079302907 L 106.72360797785223,105.70011038985103 L 106.08405026420951,106.21761479694396 L 105.84679498709738,106.67049032822251 L 105.20207959413528,108.68888450600207 L 103.58255454152822,108.97616002336144 L 103.11320176534355,110.37644110433757 L 103.50518869236112,111.619329739362 L 104.50062927044928,111.39258277975023 L 104.16537727415562,112.50215505063534 L 105.20207959413528,112.93149471282959 L 106.84739334508777,114.09825350064784 L 107.59526318870485,114.74255898781121 L 107.98209243454039,115.75584443751723 L 108.76606633514166,116.01123606413603 L 110.36496051773429,115.56532565038651 L 111.22114253975451,115.75584443751723 L 113.14497330971062,118.03472219314426 L 113.0057148002088,117.99010435305536 L 113.06760746054351,119.05702312849462 L 113.50085617601871,120.12830778583884 L 113.31002046726644,120.98068743385375 L 114.87796827033162,121.62619116529822 L 114.42408868484199,123.12468078546226 L 110.17412476055324,127.64006120245904 L 108.64228101633489,128.51044390536845 L 107.01244045421481,128.92943952977657 L 105.20207959413528,128.96605305932462 L 104.55736424960196,128.82773719262332 L 103.83012527786195,127.0341679584235 L 103.22151389531791,126.26576170697808 L 102.38080501370132,126.0706362966448 L 101.62261976115406,126.42837403994054 L 100.04435644857585,127.64006120245904 L 97.9400053806603,127.85560420434922 L 94.84537146426737,124.85133571363986 L 92.72554725594819,124.4612444313243 L 92.62755048647523,125.19676342606544 L 92.72554725594819,125.45280709862709 L 93.44247076846659,126.03811635635793 L 93.55594067648053,126.97317753639072 L 93.28258134052157,128.05895812250674 L 92.19945950061083,130.36170533392578 L 91.52895545959473,131.0129187507555 L 90.70371976681054,131.13096350617707 L 87.74834435805678,130.01579484250396 L 86.36607458256185,129.9751016460359 L 86.04629572667181,130.08904378674924 L 83.5241691339761,134.3929316001013 L 83.2559675257653,135.4116141255945 L 82.01811393909156,135.52979944832623 L 77.87130451388657,134.52330729737878 L 77.34521671012044,134.69035781174898 L 76.3188298009336,136.06371843907982 L 75.75148030556738,136.44280707463622 L 65.76612823270261,139.95020306576043 L 63.687565764412284,139.77475403994322 L 62.19698381051421,137.77196258399636 L 61.49037570692599,137.99625383224338 L 61.17059690132737,138.64881491009146 L 61.33564400859177,140.95817638467997 L 60.73734808526933,142.4400298660621 L 58.08112066425383,144.2696950417012 L 56.961894765496254,146.43542762752622 L 56.4976996704936,147.82952484767884 L 56.348125701770186,148.95418118312955 L 56.6988508887589,150.4106100089848 L 57.13209965452552,151.24135971162468 L 57.18367685377598,152.00679748505354 L 56.38422976247966,153.3047214122489 L 55.05353718623519,153.9681905079633 L 52.211631735786796,154.01324523426592 L 51.742278911173344,155.17666688002646 L 51.51018136367202,156.38144168630242 L 50.92735862918198,156.67654872033745 L 50.2826432865113,156.22160190995783 L 49.668874172493815,154.3696064753458 L 49.10668235830963,154.254911753349 L 48.40523198619485,154.60310317017138 L 47.81725157238543,155.18486130516976 L 47.394318267703056,155.96751194726676 L 44.8670339435339,156.5248935315758 L 43.918012883514166,157.40007099229842 L 43.54665677808225,156.38144168630242 L 42.824575535953045,155.85276740882546 L 42.257225992158055,155.65607085637748 L 41.772400027140975,155.17666688002646 L 41.98386665433645,154.27948884759098 L 42.793629206717014,153.63644101005048 L 43.55181450769305,152.52673100307584 L 43.60854948684573,150.22647908516228 L 42.824575535953045,148.99917459860444 L 42.77815601602197,148.5574450250715 L 42.92772998474538,145.28293607011437 L 42.824575535953045,144.60060206893831 L 37.125291446223855,145.02142784092575 L 35.32008831575513,144.51480845361948 L 34.25759734772146,144.5515768788755 L 34.26275507733226,146.02261438127607 L 34.96936312876642,147.1916905194521 L 36.74361992999911,149.17097260523587 L 41.48872528038919,160.84131187479943 L 41.736295968294144,164.06193265877664 L 42.72142108716071,165.50997651182115 L 42.881310515105724,168.5414198655635 L 43.288770630955696,170.77498533017933 L 43.964432403445244,172.8966916585341 L 44.820614425465465,174.58299590367824 L 44.4337851293385,175.05258131120354 L 44.69167132675648,177.3663731487468 L 43.964432403445244,178.93101913109422 L 42.834890995174646,180.26530963554978 L 41.911658585071564,181.89310079161078 L 41.55577566847205,183.87672417517751 L 41.07094970531762,189.4494159333408 L 41.49388295970857,190.45038265082985 L 40.97811066545546,191.55300412420183 L 39.27606203407049,193.13821706734598 L 38.146520625799894,193.68057578336447 L 35.80491428077221,194.376237411052 L 33.612881952896714,195.7928151069209 L 30.353200927376747,196.89290563948452 L 29.249448120594025,198.04929011501372 L 28.97608883306384,199.47351382113993 L 29.383548948913813,201.03312664944679 L 30.353200927376747,202.57472864165902 L 30.941181341186166,204.18341958057135 L 30.858657762408257,206.29966876842082 L 30.368674067780375,208.34023927524686 L 29.723958674818277,209.731058399193 L 27.299828801304102,211.75482685118914 L 26.175445122644305,213.0782677801326 L 25.659672828391194,215.12680369615555 L 25.4636793397367,217.25358680915087 L 24.772544426843524,218.18301248829812 L 23.86994288675487,218.8104047626257 L 23.049864875152707,220.06759923696518 L 22.90029095672071,221.77791413106024 L 23.555321810767055,223.1780510051176 L 26.417858129367232,226.10317572485656 L 27.335932860150933,227.33782107569277 L 28.104433622211218,228.7944480739534 L 28.527366878464818,230.37712820526212 L 28.702729495242238,235.3219574969262 L 28.97093110345304,236.10939914081246 L 30.04889521189034,238.07246450521052 L 30.51309030689299,240.31127828359604 L 31.812836602330208,242.14864113274962 L 28.56862871721387,244.58731165528297 L 28.068329563364387,245.7526605669409 L 28.372635228559375,247.86174026038498 L 28.909038443118334,249.34134988393635 L 29.099874202162027,250.50402416288853 L 28.37779296003282,251.63762316666543 L 28.37779296003282,252.14249398186803 L 29.352602619677782,253.4344425369054 L 29.368075758218765,255.1016115481034 L 28.5944173168391,256.5336327701807 L 27.196674302220345,257.1466268161312 L 25.77830041758716,257.4773918995634 L 24.086567245423794,258.34974562749267 L 22.967341346666217,259.61229192465544 L 23.26648928411305,261.0967167308554 L 22.21947145462036,263.47222150862217 L 21.033195167779922,267.03841088619083 L 20.75467810034752,270.2867290135473 L 23.338697403669357,272.57308308780193 L 24.545604610815644,274.4967733565718 L 25.37084035202861,276.41937272343785 L 25.138742804527283,277.2941982904449 L 24.210352612659335,278.1459275390953 L 24.597181858494878,280.0513942958787 L 25.99492482468486,282.99741904623806 L 24.44245016016066,284.2792361173779 L 21.26013493537903,287.86820499878377 L 18.27381324581802,289.0561137376353 L 16.839966172352433,291.0247834986076 L 15.890945112332702,291.4692651806399 L 15.370015086606145,291.9733612211421 L 13.662808725610375,295.35284193232656 L 12.88915023393929,296.2620986197144 L 7.5870108008384705,300.18497401382774 L 6.22537194378674,300.91632585413754 L 4.595531331375241,302.8488348936662 L 3.59493307210505,303.2926482493058 L 2.4860225841403008,303.3737354623154 L 1.4390048049390316,303.70237095374614 L 0.5725073236972094,304.3853460242972 L 0.0,305.54670215863734 L 1.3255348969250917,306.7020267229527 L 1.8413071911782026,307.7038939576596 L 2.0476161390542984,309.2681355625391 L 1.02638690918684,314.58781560044736 L 3.440201373770833,316.38849883619696 L 6.478100361302495,317.9822484366596 L 9.418002581223845,320.3334671938792 L 10.94984632357955,321.94398945197463 L 11.620350318029523,323.443649279885 L 13.255348559468985,328.84462847188115 L 12.672525875270367,332.57961785420775 L 12.811784384772182,333.68774904403836 L 13.167667301371694,334.70581146515906 L 13.662808725610375,335.4485558634624 L 14.188896479085088,335.73277725931257 L 14.555094806477427,336.2819053195417 L 15.854841101914644,338.85424118023366 L 15.204967979341745,339.4577375361696 L 15.008974490687251,339.9233615323901 L 14.245631460100412,340.57231862749904 L 13.941325793042779,341.10278319194913 L 13.678281866014004,344.144773889333 L 12.296012040227652,350.58898575324565 L 11.775082064792514,354.92480750754476 L 10.72806423716247,356.6961377924308 L 10.207134211435914,358.4466797178611 L 8.995069274678826,360.3281724844128 L 8.634028628468513,362.05881066340953 L 8.639186358079314,367.82500588614494 L 7.592168530449271,371.09435554314405 L 6.839140957221389,372.74321450665593 L 7.045449856668711,374.0532763209194 L 6.985451964661479,376.43065066449344 L 8.371613891795278,376.8767265928909 L 9.02952814847231,377.4908249564469 L 9.094507372006774,378.1770941372961 L 8.217288311570883,378.79141760710627 L 8.704632233828306,379.08317276090384 L 8.867080191150308,379.3715190924704 L 8.704632233828306,379.6598888710141 L 8.217288311570883,379.94484863616526 L 8.49751104786992,380.57321445364505 L 10.304744774475694,379.31659414991736 L 10.88549629226327,377.68982934299856 L 11.592144966125488,377.1443094359711 L 12.956707946956158,376.48568025324494 L 14.504024881869555,374.94592564739287 L 16.705194933339953,374.5688047260046 L 19.385586528107524,373.6056142328307 L 20.315601143985987,372.87568309996277 L 21.07504542544484,371.77935491967946 L 22.715769954025745,368.62245092820376 L 23.28839909285307,367.8764346567914 L 23.552377024665475,368.1228080028668 L 23.60923381894827,369.4713206226006 L 23.836660999804735,370.2553361542523 L 24.94536842778325,371.3135179793462 L 24.94536842778325,372.4576680427417 L 23.130012325942516,372.731770677492 L 22.557383185252547,373.0333081232384 L 21.010066252201796,376.77381549589336 L 21.334962217137218,378.636968777515 L 22.557383185252547,382.2975004017353 L 23.130012325942516,381.78905796352774 L 24.169679341837764,382.2562726465985 L 24.94536842778325,382.2975004017353 L 24.59204409085214,384.42825482878834 L 25.28650914877653,389.22714280802757 L 24.94536842778325,389.22714280802757 L 24.82353246025741,388.21522336360067 L 24.433657322078943,387.5442118048668 L 23.239664675667882,386.33671116642654 L 23.552377024665475,385.7589078210294 L 23.11376751959324,385.94118081312627 L 22.764504371210933,386.1681754523888 L 22.216242464259267,386.9146088557318 L 23.239664675667882,388.0706870807335 L 22.553321996703744,389.5059877121821 L 21.36745177768171,390.1808145418763 L 15.832037061452866,390.7593398466706 L 15.052286786958575,391.6238604336977 L 15.681772721931338,393.2742688367143 L 15.369060372933745,393.8533001122996 L 14.877655213698745,393.0054651191458 L 14.487780075520277,392.88485466875136 L 13.468419052660465,393.2742688367143 L 13.033870737999678,393.10195642337203 L 11.933285687118769,391.5859686648473 L 13.4237458743155,391.29662659950554 L 14.235985711216927,390.92465016804636 L 14.658350460231304,390.38053284212947 L 14.560881676152349,389.354513711296 L 14.041048143059015,388.6075659673661 L 13.407501069828868,388.31502568908036 L 12.956707946956158,388.648867694661 L 11.592144966125488,387.7850731071085 L 10.199153561145067,387.4926007576287 L 10.199153561145067,386.9146088557318 L 10.88549629226327,386.64628751948476 L 10.848945491015911,386.47085756994784 L 9.728054445236921,386.40894320141524 L 8.94018179178238,386.82172607351094 L 8.355369085446,386.9146088557318 L 7.522823205217719,387.4753972981125 L 5.12265439517796,390.95909078698605 L 3.837407561019063,391.4824089920148 L 3.4350436441600323,392.803978622891 L 2.5633884835988283,393.8807025095448 L 3.4505168348550797,394.3053544629365 L 4.298230942338705,396.5911949556321 L 5.12265439517796,396.2152123739943 L 5.666855111718178,395.75994745641947 L 7.193866051733494,395.1806041765958 L 12.132284443825483,394.77029333263636 L 14.114149743691087,395.1806041765958 L 16.051341865211725,396.2152123739943 L 19.633319653570652,398.8617375213653 L 32.83627877570689,404.751928165555 L 44.223881743848324,407.74396555218846 L 58.10912230797112,413.62127006985247 L 76.94496488012373,418.6994924703613 L 86.62280295789242,423.1002870555967 L 94.66397764533758,424.1083457414061 L 100.18720879405737,425.9653192386031 L 99.5577228590846,425.32535257935524 L 97.08445245027542,424.2126441318542 L 98.16879269480705,423.4409090913832 L 102.56707160919905,424.2126441318542 L 102.56707160919905,424.7411368433386 L 102.22593083977699,424.7411368433386 L 102.22593083977699,425.3740416485816 L 104.60579365491867,425.3740416485816 L 104.58142646960914,425.79140369966626 L 104.26465293392539,425.9653192386031 L 104.36212171800435,427.3430332336575 L 103.21280230022967,427.3987098066136 L 100.49585990421474,426.5427801795304 L 102.21374727226794,427.3952299207449 L 104.28089773841202,428.75261674262583 L 107.36740922927856,432.3888150751591 L 106.74198453314602,431.113628170453 L 105.19060636125505,429.30616315547377 L 107.34304204583168,429.98167726770043 L 108.03750710189342,430.8175443029031 L 109.78788403235376,431.64664190262556 L 110.42955353483558,432.3888150751591 L 109.83661844953895,433.6330903470516 L 108.84568580053747,433.66446432471275 L 107.67606038786471,432.3888150751591 L 109.79194522090256,436.04970544110984 L 115.57103192433715,443.5122838607058 L 115.57103192433715,442.98445885349065 L 115.30299275368452,442.1456948891282 L 115.80658148229122,441.93254099134356 L 116.6106989402324,442.2400458548218 L 117.24830725230277,442.98445885349065 L 117.56508078984916,444.1380863748491 L 117.2726744376123,444.4912421060726 L 116.62694374658167,444.2185048973188 L 115.8837442714721,443.5122838607058 L 116.90716648288071,445.56491361465305 L 118.64129860699177,447.3072681706399 L 122.04864487238228,449.43915481399745 L 132.47374361380935,450.98374361079186 L 136.52275937981904,452.6026138328016 L 138.64676659181714,452.9636326720938 L 140.5311631076038,453.64371075481176 L 145.31525597162545,458.9065036056563 L 160.36606075800955,465.98513247445226 L 179.24251531995833,469.56856015790254 L 187.7141771838069,472.48588359262794 L 201.03491103462875,473.71625750139356 L 209.24665610864758,473.71625750139356 L 210.37566953152418,473.2966831224039 L 212.1869644448161,471.7069880105555 L 212.85300113074481,471.3581271590665 L 213.90079057589173,471.11500234436244 L 230.94564422778785,460.8943857708946 L 234.05246176198125,456.84956551436335 L 234.55605044029653,455.9022355321795 L 235.06776159629226,454.5623761508614 L 235.11649596318603,453.3912952905521 L 234.23521571420133,452.9636326720938 L 233.46764905564487,454.50626752339303 L 232.55794038437307,455.1515706041828 L 231.9487604945898,456.7688570935279 L 231.12839823029935,457.8217220194638 L 228.75259660370648,461.8571227239445 L 226.0965722426772,462.6267998209223 L 225.6214118860662,463.4388342909515 L 224.20811453834176,463.9310679845512 L 221.22719421051443,465.98513247445226 L 218.2950082514435,467.39976096805185 L 217.82390913553536,468.0756061868742 L 216.2034905999899,469.3290812652558 L 215.7770646624267,469.52981982566416 L 215.16788477264345,469.255127874203 L 214.85111123509705,468.8114402554929 L 214.1444625109434,466.34049536380917 L 214.04699372686446,464.50777273625135 L 214.31503289751709,464.1877602003515 L 215.50902549363673,463.64978311769664 L 215.7770646624267,463.32633346132934 L 217.10913803242147,460.67657692730427 L 216.9060780853033,458.8784144828096 L 217.48276841454208,458.26401960104704 L 217.18223963305354,456.57937494665384 L 217.7508075349033,455.8636460453272 L 218.7011281941086,456.0636144243181 L 219.52961288765073,457.137323862873 L 219.23720653355122,455.7057843049988 L 219.6392652373761,454.5623761508614 L 220.26062874495983,453.59462857898325 L 221.9094757027924,448.8509188471362 L 221.71453813277185,446.87684716284275 L 221.755150122568,443.477326114662 L 222.080046037212,440.25920777209103 L 222.77857233397663,438.8240598337725 L 223.56238384731114,438.5622347211465 L 225.085333596915,437.3894976079464 L 227.36772762797773,436.79280833993107 L 228.0824986808002,436.32529804110527 L 228.38708865083754,435.5788060184568 L 229.22775691002607,434.39660314656794 L 237.64256197959185,431.6675459938124 L 239.5025912616402,431.5281873913482 L 241.05803062207997,432.3888150751591 L 242.06926926597953,431.632705825381 L 243.44195462577045,431.2181342924014 L 262.16002246923745,434.0200556041673 L 266.29026216454804,436.025286860764 L 268.25182146951556,436.4857796616852 L 269.8356892038137,437.2185061350465 L 272.9059559367597,440.4303472293541 L 273.75474657304585,440.8040889026597 L 274.8138061929494,439.93881468474865 L 277.28435558639467,439.0829362180084 L 427.90018774569035,431.0487309657037 L 431.3352313898504,432.19029404968023 L 432.2739369906485,432.9559683110565 L 433.60462956503034,435.43116536643356 L 434.8476408328861,436.01590280700475 L 435.9101318512112,435.8697092887014 L 438.901611270383,434.31954658962786 L 439.44317221455276,434.2486983286217 L 440.57787130214274,434.48781687486917 L 441.08848591707647,434.3682556124404 L 441.619731400162,433.82806621678174 L 442.43980941176414,431.94248136598617 L 443.00200122594833,431.55752143543214 L 444.71436526812613,431.3539963858202 L 445.0289864446968,430.88062499742955 L 444.55963362008333,429.09831137117 L 444.5544758886099,428.1920216809958 L 445.4519197009504,426.9324454180896 L 446.59693424776196,426.93686415906996 L 447.7883683145046,427.44506067223847 L 448.79412430524826,427.6704582432285 L 449.7018835749477,427.22851582430303 L 452.79651754163206,424.62659967225045 L 454.6997173409909,423.4565849918872 L 458.72274144925177,421.92952772416174 L 460.64141443930566,420.28845840040594 L 462.487879358232,417.1363965179771 L 463.0036516543478,416.78389353863895 L 464.5354954469949,416.2155565917492 L 465.36073118820786,414.99107976909727 L 466.0570237804204,413.28720972314477 L 466.6037424560636,411.38178722932935 L 467.7126529440284,405.59701649751514 L 467.72812608256936,403.6781795490533 L 466.9854139704257,402.37466755509377 L 466.3819603677839,401.8700697561726 L 465.8713457528502,401.15936726983637 L 465.84039942361414,400.2514553675428 L 466.0518660508096,399.4796942053363 L 467.27940417826176,398.04624432791024 L 467.4238204173744,397.62114308029413 L 467.186565188691,396.66156626399606 L 467.2484578490257,394.17839136812836 L 468.93503334000707,388.02832471579313 L 469.3940707053989,383.53407504968345 L 469.9201584607363,381.79730194993317 L 471.13738112710416,380.009053170681 L 471.25085098668933,374.8325789505616 L 472.442285053432,368.95937265176326 L 476.67677583917975,355.8991465838626 L 479.0286975931376,350.9911901289597 L 480.0292958524078,348.3452591756359 L 482.02533474192023,340.44726127851754 L 482.90730541199446,338.072003249079 L 483.8047492224723,336.86342709325254 L 485.27470030635595,333.18420607596636 L 486.1669864375144,332.20099551044405 L 487.0231685079634,331.53420145530254 L 487.5492562633008,330.53209349140525 L 487.4357863534242,328.51582677289844 L 485.90394256077707,325.1715045757592 L 485.83689217083156,323.55094519164413 L 486.2649832069874,322.1434788219631 L 487.7761960811913,320.19410853274167 L 488.3487033545971,318.96584306191653 L 488.431226933375,318.3293686276302 L 488.31775702536106,316.80400496628135 L 488.76132120005786,313.83226936031133 L 487.9206123184413,311.55161468312144 L 487.96703183837235,310.6641348041594 L 488.4673309940845,309.1185200372711 L 488.9882610179484,296.628421603702 L 488.302283834666,293.10730370879173 L 486.31656040623784,290.6526520755142 L 479.68888617679477,286.11787001322955 L 471.34884775429964,283.7337714387104 L 466.92867904156446,281.1497739497572 L 462.5291410982609,277.4763921312988 L 456.45334327220917,268.09902359358966 L 454.4521466549486,265.6423423467204 L 453.5340719241649,264.20670792553574 L 451.21825422905385,259.46261817775667 L 452.1105403099209,258.8028625706211 L 452.65725898370147,257.9999359268695 L 452.8171484116465,256.92753798514605 L 452.42000370658934,255.4785150969401 L 453.5443873833865,254.75632654689252 L 457.13416272588074,253.78381080087274 L 457.902663487941,254.08479958958924 L 458.55769429169595,253.42181534320116 L 461.6574859376997,252.25399582460523 L 462.70450371690094,252.14249398186803 L 462.70450371690094,251.63762316666543 L 462.33830539137125,250.88675813749433 L 462.4827216286212,250.75216572917998 L 463.19964519143105,251.0297680646181 L 463.8237296640873,250.75216572917998 L 464.27245157025754,250.28743990603834 L 464.746962076053,250.19702508486807 L 465.4329393077642,251.0297680646181 L 466.4541684873402,249.8669249350205 L 467.28971963748336,250.68066558334976 L 467.48055539652705,250.06876597180963 L 467.3412968367338,249.09540698956698 L 467.14014566875994,248.80954557005316 L 468.5275731757283,246.02987985964864 L 469.49722515419126,245.72115974035114 L 471.86462009884417,245.79466217570007 L 472.8033256996423,245.22348274756223 L 473.6852963697165,243.4181400462985 L 474.76326052844524,242.78228588216007 L 475.015988945961,240.90894829388708 L 475.42860679142177,239.89820956159383 L 476.13521489501,236.83416404481977 L 476.70772211812437,235.4496957147494 L 475.92374821566045,234.86548712477088 L 475.26871736347675,233.8292193459347 L 474.3248540330678,231.5818490209058 L 473.99991749599576,230.0927385855466 L 473.9638133868575,227.47363678459078 L 473.63887684978545,226.55854601133615 L 473.92255164682865,226.4749875254929 L 473.98444430716336,226.0070956191048 L 473.38614843413234,225.6708356095478 L 473.17983948625624,223.91902697458863 L 472.62280540168285,223.24901115708053 L 473.4067793022841,221.78625911287963 L 474.3248540330678,220.5409839162603 L 473.76781994849443,218.66448993980885 L 472.8084834292531,217.7099343650043 L 471.76146565005183,217.06606336217374 L 470.91559903882444,216.08693094272166 L 470.5132966041565,214.64371174760163 L 470.2296218071133,212.78690304607153 L 470.85886405967176,211.3033854207024 L 470.20383320748806,210.85823983419687 L 470.91559903882444,209.43580285739154 L 470.27604132704437,208.639563662 L 469.5230137538165,208.39012501947582 L 469.5230137538165,207.78946371097118 L 470.0903632976115,207.17020021378994 L 470.157413687557,206.39107515662909 L 469.89436986111104,204.22079116199166 L 470.0697324294597,203.0666014002636 L 470.5029811449349,201.94805012457073 L 471.596418492496,200.06036444939673 L 470.91559903882444,200.06036444939673 L 471.53452578373253,198.80590460728854 L 473.0096346475184,198.09281714633107 L 473.63371912017465,195.40133745782077 L 476.0269027147442,194.03667167108506 L 475.2480864934623,192.43451291974634 L 475.32545234262943,191.93579287081957 L 477.3575952909887,188.93042740412056 L 477.76505540683866,187.97121605742723 L 477.18739040382206,187.7004497963935 L 476.83150748722255,187.14244511164725 L 476.76961482688785,186.32005997374654 L 477.0790782235563,185.23966896347702 L 476.166161224246,184.8823631023988 L 475.27903282269835,183.938665243797 L 474.5930556412786,182.76402894034982 L 474.3248540330678,181.69913090020418 L 474.6497906204313,180.0013002101332 L 475.4337645210326,179.59501026012003 L 476.39825877174735,179.57644986361265 L 477.2492830622941,179.01968184486032 L 480.01382271386683,172.9481546441093 L 481.13820634037256,171.57536867819726 L 483.67580617405474,169.9644922874868 L 486.04835879802704,167.53614186868072 L 486.60539293289185,166.57018324453384 L 485.7801571916789,166.1407215418294 L 485.59447916410863,165.40931383892894 L 486.33203359507024,163.83604819793254 L 487.6420953013003,161.79960830044 L 488.0753440167755,160.7366736503318 L 488.6633244808763,157.41441993787885 L 488.45185780338943,156.29947168007493 L 490.0610674470663,155.29958493635058 L 490.61294380016625,154.45562986284494 L 491.0771388951689,152.05182821117342 L 491.82500873692334,150.80754592083395 L 495.1981597226113,147.68232248537242 L 499.3552846070379,145.38100639916956 L 500.0,144.39224971085787 L 499.3862309381366,143.0198701005429 L 497.8698603324592,142.69727167114615 L 496.2142311707139,142.68502159882337 L 495.1981597226113,142.23179963044822 L 493.877782555297,142.97903324104846 L 492.50067051127553,142.79527324717492 L 491.3556559626013,141.9215175434947 L 490.74188689887524,140.5663808034733 L 490.8347259387374,139.05672425497323 L 491.5722803194076,138.05334831774235 L 492.75339897722006,137.50283113773912 L 494.1459842119366,137.3315757950768 L 494.1459842119366,136.84231884870678 L 493.4961110893637,135.46051794104278 L 494.1975614614785,134.25441245548427 L 495.5592003185302,133.39896826911718 L 496.9002084042877,133.06906416919082 L 496.59590273723006,131.2734362827614 L 496.987889662385,129.61702061723918 L 498.2670049890876,126.52594485599548 L 497.1116750314832,124.52219345141202 L 497.6171319168061,120.78584048338234 L 497.9730147831142,119.74682996142656 L 498.2309009786695,119.52770094014704 L 498.16900826990604,119.35321860853583 L 496.60106046684086,117.44256579689682 L 493.38779886066914,115.75584443751723 L 493.24338267184794,112.28345399070531 L 491.9230055063963,108.85881946887821 L 489.2977244146168,107.76651608012617 L 480.25623567029834,107.65325858071446 L 478.5335561186075,107.10724411997944 L 477.6722163669765,106.66644650697708 L 476.99655464477837,105.99928384460509 L 476.44983602128923,104.85123587399721 L 475.7896474376321,102.66526686679572 L 475.0985124744475,101.65554925333709 L 471.1631697267294,97.36932416073978 L 464.7314889356494,92.35079485364258 L 453.3277630265802,79.93635914288461 L 451.8268655631691,77.6084827594459 L 450.00103151239455,76.17234557587653 L 448.01530813239515,73.97107356693596 L 442.6048565208912,66.01481660455465 L 440.51597864180803,63.86349029187113 L 439.6133771017194,61.114152622409165 L 439.180128287524,60.678759654052556 L 437.85975122079253,60.05970994476229 L 437.37492520548403,59.46471993252635 L 434.3009222075343,53.878820491954684 L 433.46021332778037,53.02570893988013 L 431.8406882248819,52.575312407687306 L 431.2836541403085,52.09308939706534 L 430.0612737443298,48.96612236648798 L 426.2755049634725,43.86102541722357 L 425.03249364718795,40.89188211876899 L 426.32708216272295,37.020019366405904 L 426.6365455593914,33.75486927293241 L 426.96148209646344,32.458323498256505 L 427.61135521903634,31.427749333903193 L 428.68931937776506,30.286519425921142 L 428.96783644519746,29.70018863864243 L 429.86528030596673,21.461592882871628 L 429.67444449849427,20.351036661304533 L 428.8337356671691,18.02427588775754 L 428.12712756358087,15.320083112455904 L 427.33799593150616,13.66693942155689 L 427.069794325158,12.740075041539967 L 427.37409999221563,12.333904049359262 L 428.2663860730827,13.31983168143779 L 429.0503600239754,12.76768048107624 L 428.7976316064596,12.688808376900852 L 430.4171566590667,11.545347104780376 L 431.87679233402014,9.618017666041851 L 432.7948670145124,8.936396081000566 L 435.03331891074777,7.679854949004948 L 435.6367725133896,6.908017921261489 L 435.64193024486303,6.262316012755036 L 435.188050609082,4.770536010153592 L 435.1261579003185,3.735688445158303 L 435.3427823074162,3.0197238214313984 L 436.31243423745036,1.214677537791431 L 435.7296115029603,0.0 L 434.71869778446853,0.4362956704571843 L 433.6149450261146,1.4348550355061889 L 432.17078254185617,2.079733954742551 L 430.74209319613874,3.8576519368216395 L 430.200532251969,3.9206024715676904 L 429.076148673892,3.578321985900402 L 425.1304904166609,3.7396227344870567 L 423.90295228920877,4.581645373255014 L 422.03069876879454,6.656023557297885 L 421.03010050952435,6.967081485316157 L 419.97792495042086,5.951316010206938 L 418.25008771941066,6.80564321577549 L 414.3456912506372,6.974956712685525 L 412.5146995205432,7.538077192381024 L 409.98741514608264,10.086950168013573 L 408.92492417804897,10.508644959889352 L 406.1655423063785,10.402231527492404 L 403.8239359613508,11.119594698771834 L 403.4525799062103,11.43890448845923 L 403.3391099963337,11.91989107709378 L 403.47321077622473,12.949092688038945 L 402.92649215087295,13.560437039472163 L 400.8169833533466,13.524936911650002 L 398.61463556811213,14.830771948210895 L 395.08159520477057,15.505564464256167 L 393.6683790497482,16.543638600967824 L 393.3382847830653,18.976138742640615 L 392.70904253050685,21.67504679504782 L 391.2751954551786,24.000105167739093 L 389.4751500543207,25.701310815289617 L 386.78797635249794,27.046994000673294 L 384.95698457211256,28.737694650888443 L 384.0440675728023,29.260500378906727 L 383.0383115336299,29.07434148248285 L 381.47036372870207,27.438915609382093 L 380.94943370483816,27.090538850985467 L 380.1809329427779,27.716056467965245 L 378.50467291101813,30.306329558603466 L 377.66396402940154,31.17014987859875 L 377.16882260516286,31.316781259141862 L 376.01865032687783,31.193927506916225 L 374.07934641838074,32.795303099788725 L 373.1457985471934,33.03715420141816 L 369.5714963953942,32.632756183855236 L 367.9055517744273,31.95489242952317 L 367.17315512150526,32.172905509360135 L 365.32153247110546,31.764636781066656 L 364.4962967298925,31.756709661334753 L 359.63256384059787,33.13627791311592 L 356.8370778616518,34.63138100318611 L 356.1459429487586,34.797980976291 L 355.24334140866995,34.17128603346646 L 353.68570901453495,31.85579974204302 L 352.82952694408596,31.051263759844005 L 351.75672051496804,30.872941580601037 L 349.3790101110935,32.81909107044339 L 348.6053516678512,32.89045580662787 L 346.5783664509654,32.47814490739256 L 345.8150234185159,32.11344603262842 L 344.8041096981615,30.979933874681592 L 345.41272103227675,30.28255745768547 L 346.56289326027036,29.58134883455932 L 347.1715045943856,28.424837975762784 L 346.76404452882707,27.723975088447332 L 344.00466260686517,27.359736217185855 L 342.9782756976783,26.35826087743044 L 341.34843518584967,23.96450672764331 L 340.27047102712095,23.027202300727367 L 339.0996678303927,22.604107340797782 L 338.18159314990044,22.778084544464946 L 335.6233624462038,24.913913218304515 L 332.86913825571537,25.155258947983384 L 332.08000662364066,25.732968470081687 L 327.64952240139246,31.043338142335415 L 326.8707061801106,31.182038674131036 L 324.9829795192927,30.876904246397316 L 323.44597799517214,31.007673105224967 L 322.93536343052983,30.718402546830475 L 321.5685667954385,29.193165216594934 L 320.38744813762605,28.769377746619284 L 319.29401084035635,29.038695085793734 L 315.0749932937324,31.1978905107826 L 314.29617712274194,31.01956146489829 L 314.30649253353477,29.70018863864243 L 311.7276309598237,29.6011551823467 L 309.6851725522429,30.373684545978904 L 309.09203445725143,30.36179822590202 L 308.58141984418035,29.97749589383602 L 308.03470116853714,27.704178529791534 L 307.4312475658953,26.3028510408476 L 303.5784283466637,25.962494114413857 L 302.82024304382503,25.535112793557346 L 301.24197973124683,23.774654080159962 L 300.0195993836969,24.023837597109377 L 298.7817457970232,21.497167631983757 L 298.1525035947561,19.738592125475407 L 297.53357680141926,18.987989224493504 L 297.24990200437605,16.31863251235336 L 296.73412971012294,14.40859460271895 L 295.75932000018656,13.655105700716376 L 294.10369088687,14.467775531113148 L 291.52998704463243,16.894990627653897 L 290.1425594892353,17.617536281235516 L 288.54366530664265,17.43984831497073 L 287.6410637162626,16.768658018670976 L 285.96480368450284,15.032013237476349 L 284.85589324496686,14.621650115586817 L 282.55554869025946,14.795259883627295 L 281.2970642335713,15.256942691281438 L 280.6523488406092,16.148899937048554 L 280.85350000858307,17.155564913526177 L 282.7412267178297,20.244345599785447 L 283.57162018865347,20.686935564503074 L 283.69024782814085,21.117720238864422 L 283.1074250936508,22.070363744162023 L 282.24608534388244,22.837396753020585 L 282.7360690385103,24.047570328228176 L 282.4420787803829,27.751690354198217 L 281.72515526786447,30.476700408384204 L 281.26611790433526,30.825390450656414 L 279.5950155518949,30.151813772507012 L 278.5841018818319,30.048806795850396 L 277.49582226388156,30.16766127385199 L 274.6278370246291,31.148214422166348 L 274.70549401268363,33.275055571459234 L 275.01495740935206,34.17525217309594 L 273.0189185217023,34.195082624442875 L 271.9770584721118,34.47668761014938 L 271.12087645195425,35.13913735933602 L 270.0583854317665,38.131530926562846 L 269.15062616206706,42.00851354561746 L 268.54717255942523,43.55486068222672 L 266.99985557608306,44.7359193880111 L 266.1591466944665,46.223707078024745 L 265.4628541022539,46.51019376143813 L 265.1740216240287,46.38286363147199 L 264.98318586684763,46.000899222679436 L 260.2793422564864,40.89188211876899 L 259.0569619089365,40.52239391207695 L 257.51996043510735,40.53828515205532 L 256.560623915866,40.33170450478792 L 255.74570363387465,39.9304938884452 L 255.01846466213465,39.23542821779847 L 254.33764521032572,38.143441734835505 L 253.5381981190294,35.65092985890806 L 253.88376557454467,34.96855530142784 L 253.76513793505728,34.45685559697449 L 253.5433558486402,34.29027072433382 L 252.78517054580152,34.24267641175538 L 252.30550226196647,31.7923817159608 L 251.94446166418493,31.178075687028468 L 250.407460141927,30.55990767106414 L 248.63836112059653,30.345949985086918 L 246.70937262102962,31.475308069959283 L 245.62109305150807,31.217705361545086 L 243.69210460223258,30.092386353760958 L 242.4284624159336,29.99334266129881 L 241.45365275628865,30.175584972836077 L 241.17513568885624,31.03937530051917 L 241.38144458644092,33.56055721733719 L 240.95851128175855,36.83347635064274 L 241.39691777713597,38.12756061460823 L 239.95275529287755,39.013034286908805 L 235.0116565041244,39.46975023765117 z" /></g></g></svg>