<svg xmlns="http://www.w3.org/2000/svg" xmlns:xlink="http://www.w3.org/1999/xlink" width="437.6755571383983" height="500.0" viewBox="0.0 0.0 437.6755571383983 500.0" preserveAspectRatio="xMinYMin meet"><g transform="matrix(1,0,0,-1,0,500.0)"><g><g><path fill-rule="evenodd" fill="#D2EBD9" stroke="#A6A6A6" stroke-width="0.25" opacity="1" d="M 89.60114666089622,138.86388638863886 L 88.81325186856787,137.06370637063705 L 77.5200931785282,120.7120712071207 L 53.533073945420654,95.85958595859586 L 47.22991560679386,84.45844584458446 L 32.30368648546234,73.25732573257325 L 25.86921234811415,61.65616561656165 L 11.599562220389593,48.85488548854885 L 7.134825063862278,43.004300430043 L 0.0,38.35383538353835 L 7.747632124562106,23.952395239523952 L 15.32017651749569,0.0 L 20.441492667629962,4.75047504750475 L 36.85596750780392,16.951695169516952 L 48.06158233202934,29.002900290029 L 48.98079292307908,35.4035403540354 L 46.31070501574411,48.25482548254825 L 46.44202081446551,54.6054605460546 L 53.27044234797787,67.70677067706771 L 89.33851506345344,102.4102410241024 L 94.24097154905206,105.66056605660566 L 104.614919648042,115.31153115311531 L 113.45685009528236,122.66226622662265 L 102.0323756065213,129.6129612961296 L 89.60114666089622,138.86388638863886 z" /><path fill-rule="evenodd" fill="#D2EBD9" stroke="#A6A6A6" stroke-width="0.25" opacity="1" d="M 322.1614261964808,499.6999699969997 L 321.59239106868813,500.0 L 315.90203979076114,499.64996499649965 L 311.43730263423384,496.2496249624962 L 303.4270389122289,486.8486848684868 L 293.57835400812456,480.5980598059806 L 283.99230070146297,475.99759975997597 L 275.5880895832939,469.94699469946994 L 269.32870317757425,458.94589458945893 L 264.2511589603471,432.8932893289329 L 261.9312465162692,425.1425142514251 L 260.74940432777663,424.2424242424242 L 256.503526835785,422.6922692269227 L 255.27791271438534,421.7921792179218 L 253.96475472717142,416.99169916991696 L 252.82668447158602,405.1405140514051 L 251.86370194762915,400.19001900190017 L 255.84694784217803,398.9398939893989 L 258.03554448753454,396.08960896089604 L 258.6045796153272,392.1392139213921 L 257.510281292649,387.3387338733873 L 255.14659691566393,382.6882688268827 L 242.759139902946,371.18711871187116 L 241.752385446082,365.4865486548655 L 243.15308729911018,360.58605860586056 L 247.74914025435888,351.78517851785176 L 250.90071942367229,341.98419841984196 L 250.02528076552966,329.032903290329 L 257.3789654939276,303.1303130313031 L 254.05229859298566,299.4799479947995 L 254.70887758659262,293.029302930293 L 254.3587021233356,287.3287328732873 L 250.81317555785802,282.97829782978295 L 255.45300044601385,276.37763776377636 L 257.5540532255561,274.57745774577455 L 256.28466717124934,272.47724772477244 L 256.8099303661349,270.42704270427043 L 260.2679130657982,267.7267726772677 L 264.60133442360416,266.87668766876686 L 267.49028199547473,260.976097609761 L 266.00203627663234,243.1243124312431 L 264.6888782894184,241.57415741574155 L 257.16010582939197,241.2241224122412 L 254.62133372077838,240.37403740374037 L 251.81993001472202,237.27372737273726 L 248.27440344924443,234.17341734173417 L 247.88045605308028,232.67326732673266 L 248.79966664413,231.9231923192319 L 255.58431624473525,230.87308730873087 L 259.2173866760271,231.17311731173115 L 263.85721156418293,232.47324732473245 L 269.63510670792414,238.27382738273826 L 272.9180016759589,240.17401740174017 L 275.631861516201,240.67406740674065 L 279.39624774621427,240.52405240524052 L 283.1606339762275,238.2238223822382 L 286.1808973468195,231.9231923192319 L 290.95203803369674,229.17291729172916 L 293.79721367266023,229.47294729472947 L 298.74344209116595,225.52255225522552 L 310.5618639760912,223.022302230223 L 314.4575660048258,223.47234723472346 L 314.3262502061044,225.47254725472547 L 313.18817995051904,227.6227622762276 L 313.6258992795903,229.62296229622962 L 315.63940819331833,230.17301730173017 L 317.78423290576774,230.07300730073007 L 323.0806367875305,227.2227222722272 L 323.8685315798589,227.7227722772277 L 323.9998473785803,229.07290729072906 L 323.9998473785803,234.87348734873487 L 322.99309292171625,240.22402240224022 L 321.8550226661309,243.97439743974397 L 320.41054888019556,246.87468746874686 L 320.54186467891697,249.17491749174917 L 322.6866893913664,250.77507750775075 L 325.8820404935869,249.87498749874987 L 327.3265142795222,245.4245424542454 L 327.0201107491723,241.67416741674165 L 327.63291780987214,239.07390739073907 L 329.51511092487874,236.17361736173615 L 333.1481813561706,237.1237123712371 L 334.8115148066415,236.8236823682368 L 337.13142725071947,234.67346734673467 L 335.29300606861995,231.9231923192319 L 335.9495850622269,231.17311731173115 L 338.0506378417692,230.97309730973097 L 339.58265549351876,230.02300230023002 L 338.1819536404906,227.2227222722272 L 336.6937079216481,224.77247724772477 L 337.6129185126979,220.42204220422042 L 337.9630939759549,217.37173717371735 L 338.9260764999118,216.32163216321632 L 337.3940588481622,214.07140714071406 L 335.68695346478415,208.77087708770875 L 335.81826926350556,206.12061206120612 L 337.91932204304777,204.020402040204 L 338.88230456700467,200.9200920092009 L 337.3940588481622,198.56985698569855 L 335.5994095989699,196.91969196919692 L 334.5488832091987,191.51915191519151 L 332.97309362454206,189.9189918991899 L 332.40405849674937,186.7186718671867 L 330.95958471081406,186.16861686168616 L 328.8585319312718,187.36873687368737 L 327.8080055415006,189.2189218921892 L 326.53861948719384,189.86898689868985 L 325.0503737683514,188.3188318831883 L 320.54186467891697,191.36913691369136 L 312.3127412923764,190.2190219021902 L 308.2419515320133,194.66946694669466 L 304.30247757037154,195.2195219521952 L 302.5953721869935,196.66966696669667 L 295.1541435927813,195.06950695069506 L 291.5210731614894,189.3189318931893 L 273.9685280657301,173.96739673967394 L 246.6548419316806,156.56565656565655 L 240.83317485503224,149.66496649664967 L 235.09905164419814,138.46384638463846 L 233.65457785826285,128.3128312831283 L 233.52326205954145,117.86178617861786 L 231.7286128103491,105.66056605660566 L 217.32764688390316,81.55815581558156 L 212.6878219957473,69.05690569056905 L 216.4084362928534,56.505650565056506 L 223.45571749090143,51.15511551155115 L 231.90370054197763,49.8049804980498 L 240.70185905631087,51.2051205120512 L 248.79966664413,54.005400540054005 L 267.88422939163894,56.65566556655665 L 307.6729164042206,56.305630563056305 L 326.2759878897511,63.306330633063304 L 361.07467455091984,92.35923592359235 L 379.5026583048218,102.96029602960296 L 401.1697650938514,104.76047604760475 L 401.3886247583871,104.6104610461046 L 401.5199405571085,104.7104710471047 L 401.3886247583871,105.66056605660566 L 403.1395020746723,133.4133413341334 L 408.21704629189946,160.6160616061606 L 423.31836314485946,195.8195819581958 L 433.4734515793138,207.17071707170717 L 426.7763458445228,227.4227422742274 L 426.7763458445228,230.22302230223022 L 430.19055661127896,234.87348734873487 L 422.39915255380976,264.9264926492649 L 423.31836314485946,267.97679767976797 L 425.2881001256804,269.1269126912691 L 427.47669677103687,269.72697269726973 L 428.9211705569722,271.4771477147715 L 429.183802154415,274.47744774477445 L 427.3016090394084,278.6278627862786 L 426.7763458445228,281.7281728172817 L 426.55748617998717,286.87868786878687 L 425.8571352534731,290.87908790879084 L 422.39915255380976,299.72997299729974 L 421.83011742601707,317.0817081708171 L 423.58099474230227,323.58235823582356 L 428.9211705569722,327.982798279828 L 425.59450365603027,332.6332633263326 L 425.7695913876588,336.983698369837 L 431.1097672023287,346.1846184618462 L 429.44643375185774,348.58485848584854 L 429.44643375185774,350.6350635063506 L 430.89090753779305,352.3352335233523 L 433.4734515793138,353.6853685368537 L 433.4734515793138,356.4856485648565 L 432.11652165919276,360.9360936093609 L 437.6755571383983,384.7884788478848 L 433.4734515793138,384.7884788478848 L 433.99871477419936,386.88868886888685 L 434.8741534323419,388.2388238823882 L 436.09976755374163,389.28892889288926 L 437.6755571383983,390.18901890189017 L 435.13678502978473,394.5894589458946 L 433.9549428412922,401.7901790179018 L 434.0424867071065,408.9408940894089 L 435.4869604930418,413.34133413341334 L 432.55424098826404,418.99189918991897 L 432.8168725857068,430.2930293029303 L 431.1097672023287,433.99339933993394 L 431.1097672023287,436.5436543654365 L 433.4734515793138,436.5436543654365 L 433.4734515793138,433.99339933993394 L 435.4869604930418,433.99339933993394 L 434.91792536524906,437.39373937393736 L 433.99871477419936,440.2940294029403 L 400.73204576478014,448.9448944894489 L 393.1157294389394,449.1949194919492 L 384.8428341194917,451.64516451645164 L 383.09195680320653,461.1961196119612 L 383.22327260192793,472.89728972897285 L 380.37809696296443,481.79817981798175 L 370.8795875221171,487.6987698769877 L 361.3810780812698,488.7988798879888 L 341.33353280980396,487.84878487848783 L 335.5118657331556,489.8989898989899 L 326.40730368847244,497.44974497449743 L 322.1614261964808,499.6999699969997 z" /></g></g></g></svg>