<svg width="19" height="36" xmlns="http://www.w3.org/2000/svg" xmlns:xlink="http://www.w3.org/1999/xlink" xml:space="preserve" overflow="hidden"><g transform="translate(-805 -1048)"><path d="M11.6306 11.4233 10.8257 10.8563 10.3941 9.01963 11.6371 7.30556 12.3956 7.45037 12.0239 6.35963 10.8148 6.07444 9.56555 3.51815 10.1589 1.02259 8.15637-0.00444444 4.45906 0.76963 2.42873 0.135926 3.62282 4.53704 2.92937 5.92148 3.41431 8.47148 2.69712 9.24 3.39752 8.89185 4.32942 8.84556 3.51985 9.76926 3.44681 9.24 2.87606 9.43556 1.29707 8.84556 1.19008 10.4011 1.89449 10.3593 2.69712 11.0967 2.36227 11.9693 3.56001 13.1389 2.72999 12.7767 1.931 11.4426 1.87148 10.7089 0.125252 10.6348 0 11.313 0.712806 13.7719 0.428706 14.9048 1.36061 15.1026 1.97848 16.2085 3.05901 19.7122 3.46361 19.673 2.86328 20.2015 3.61881 23.0519 4.49557 23.7981 4.02998 23.7456 3.95586 23.9774 4.141 24.2419 4.09389 24.38 3.62976 23.1322 4.12748 26.3915 3.24195 29.8019 3.89524 30.1348 3.09333 30.0185 3.00679 30.9085 4.23192 32.3141 6.19835 32.9959 6.81694 32.247 6.16037 31.3433 6.40649 30.7211 7.7357 31.4041 9.98842 30.69 11.4337 31.8922 14.0389 31.7256 14.369 29.7185 16.0002 29.1337 12.4201 25.4967 13.0339 24.4578 13.1394 21.2078 11.9307 20.077 12.725 18.967 12.0377 16.943 9.43154 16.8522 10.6161 15.43 10.9536 13.7611 12.2101 12.9422 11.6306 11.4233Z" stroke="#A6A6A6" stroke-width="0.859285" stroke-miterlimit="8" fill="#D2EBD9" fill-rule="evenodd" transform="matrix(1 0 0 -1 806.5 1082.5)"/></g></svg>