<svg xmlns="http://www.w3.org/2000/svg" xmlns:xlink="http://www.w3.org/1999/xlink" width="347.5721857568715" height="500.0" viewBox="0.0 0.0 347.5721857568715 500.0" preserveAspectRatio="xMinYMin meet"><g transform="matrix(1,0,0,-1,0,500.0)"><g><g><path fill-rule="evenodd" fill="#D2EBD9" stroke="#A6A6A6" stroke-width="0.25" opacity="1" d="M 303.5148988615256,400.34271551657 L 304.269969744375,400.1683512617601 L 304.64750518556684,399.7799970525084 L 304.76548499893397,399.18558376736473 L 304.8205422065221,398.40493300091475 L 303.5148988615256,396.35628416668624 L 304.332892350154,395.0803834182443 L 303.9553569087293,394.73169632884674 L 303.02724890829995,394.6841483194148 L 302.19352481677197,394.35923804482445 L 300.79349756310694,392.386052684742 L 299.9283121684566,391.5579743826529 L 299.55077672726475,392.0334241918754 L 300.05415728338994,393.9114997872384 L 303.5148988615256,400.34271551657 z" /><path fill-rule="evenodd" fill="#D2EBD9" stroke="#A6A6A6" stroke-width="0.25" opacity="1" d="M 322.10851930081844,421.7471478850348 L 320.692761444021,421.3348161446629 L 320.85793316341005,420.5180936960969 L 322.10851930081844,418.75783111155033 L 321.5736774415709,418.09180420893244 L 320.39387921150774,417.8063672754215 L 318.44327939883806,417.7587945526466 L 317.53090209839866,417.23549888352863 L 315.2499588469509,414.9520995011553 L 313.80273959063925,414.4288371417206 L 312.54428815166466,414.6587546708761 L 311.6083148496691,415.2930161897093 L 311.0184157830663,416.2444255601149 L 310.82964806235395,417.4257875222247 L 310.9004359696992,419.17013844347093 L 311.1835875022225,419.4991942959605 L 314.25106293940917,416.2602825167123 L 314.8724234055262,416.35542457166594 L 316.0994135418441,417.092782921507 L 319.4972325139679,420.15334873704705 L 320.1736501879059,421.08107554679736 L 320.2444380952511,422.2308497123886 L 319.9062292582821,423.93574316392187 L 320.71635744534433,423.74542616691906 L 321.63660004734993,423.055533946841 L 321.9433475814294,422.51631553901825 L 322.10851930081844,421.7471478850348 z" /><path fill-rule="evenodd" fill="#D2EBD9" stroke="#A6A6A6" stroke-width="0.25" opacity="1" d="M 322.8321289771702,428.39653680694755 L 324.499577160459,427.94448878394905 L 326.74905910901725,426.9174849843839 L 328.2434702713508,425.3790075260913 L 327.7479550167918,423.41237340157386 L 326.74905910901725,423.142761153169 L 325.91533501748927,424.1895003907848 L 324.75126739032567,426.465452412609 L 323.45348934689537,426.8738676160574 L 322.50965074356645,426.576477524708 L 320.71635744534433,425.06973247008864 L 320.5511856293306,426.5169997124467 L 320.7242227469105,427.70657070109155 L 321.43210162688047,428.4163635314908 L 322.8321289771702,428.39653680694755 z" /><path fill-rule="evenodd" fill="#D2EBD9" stroke="#A6A6A6" stroke-width="0.25" opacity="1" d="M 339.9234729525633,463.19485594693106 L 341.0796752779279,459.936742779566 L 341.38642281200737,455.3099481811514 L 340.8909075574484,450.67573244392406 L 339.64818672137335,447.398762615514 L 337.7526442129165,444.77261017018463 L 337.66612560581416,444.12998141895514 L 338.74367472250015,442.7217859053053 L 338.74367472250015,442.10695467470214 L 338.2953513737302,441.6706281788647 L 337.47735788533464,439.147955918801 L 335.2278759367764,436.2010610724101 L 334.70876468066126,434.1109909657389 L 335.36945175146684,430.4546046666801 L 334.8975324013736,429.1222027078038 L 334.4570743541699,428.82479715475347 L 332.8446834750939,429.0865139293019 L 331.9401714762207,429.6456414501881 L 331.33454170962796,429.7289163589012 L 330.88621836109087,429.3759904167382 L 329.8715918501839,428.0118991746567 L 329.3524805943016,427.7343276750762 L 328.30639287712984,427.9167315775994 L 327.89739613281563,428.253784268396 L 326.8985002252739,431.25168624939397 L 326.1670253437478,434.3925693781348 L 325.5299342744984,435.77669324551243 L 324.75126739032567,436.39539914322086 L 324.20069492817856,436.35573824262246 L 323.9490046016872,436.51438206562307 L 324.3973279504571,438.8663461647229 L 324.9557658107951,439.8619046106469 L 325.7265672967769,440.6631279371213 L 326.71759780612774,441.16290854359977 L 327.09513324755244,439.90156877273694 L 327.96031864196993,439.73497956013307 L 328.8726960392669,440.4330721721053 L 329.3524805943016,441.76979292405304 L 329.092924966244,442.5750189125538 L 328.33785408339463,443.3683600019431 L 326.71759780612774,444.49492991517764 L 327.46480338741094,445.19706783036236 L 328.76258152746595,447.03378900454845 L 329.926649057772,447.82721386291087 L 330.08395557221957,447.7637392927427 L 330.08395557221957,449.75529864558484 L 331.1064473844599,451.6596668190323 L 332.2783803131897,452.8856496339431 L 333.9222324951552,453.5522184462752 L 336.34475156106055,453.74663645541295 L 338.64929091045633,454.4092512385687 L 339.2234593741596,456.03210690733977 L 338.45265779155307,461.12328528088983 L 337.5560111908708,463.0519856455503 L 337.3357821672689,464.19496173015796 L 337.7133176086936,464.6235859155422 L 338.5785030031111,464.4370544507401 L 339.4515536990948,463.8814339064993 L 339.9234729525633,463.19485594693106 z" /><path fill-rule="evenodd" fill="#D2EBD9" stroke="#A6A6A6" stroke-width="0.25" opacity="1" d="M 1.0618184169288725,9.510394979384728 L 2.878707716241479,10.620981612126343 L 5.073132457211614,10.766697779414244 L 5.891125945840031,9.65610958985053 L 4.7663849231321365,8.151714615756646 L 2.8393811120186,7.135669521172531 L 0.7078788802027702,6.765484978095628 L 0.0,7.7854646414052695 L 1.0618184169288725,9.510394979384728 z" /><path fill-rule="evenodd" fill="#D2EBD9" stroke="#A6A6A6" stroke-width="0.25" opacity="1" d="M 105.27733083860949,227.06913506996352 L 104.64810507069342,228.5146682508057 L 105.26160023547709,228.81878759607207 L 105.89082590653561,228.24609661335126 L 105.27733083860949,227.06913506996352 z" /><path fill-rule="evenodd" fill="#D2EBD9" stroke="#A6A6A6" stroke-width="0.25" opacity="1" d="M 292.7079468765296,381.8361083768541 L 291.31578492419794,383.2661316159647 L 290.48992613423616,385.2072313227691 L 290.7730776669923,386.6848989103455 L 292.723677479662,386.7562083832454 L 294.0135902215261,385.76976932794787 L 294.4540482687298,384.24063260736875 L 294.0293209212832,382.73927579296287 L 292.7079468765296,381.8361083768541 z" /><path fill-rule="evenodd" fill="#D2EBD9" stroke="#A6A6A6" stroke-width="0.25" opacity="1" d="M 63.82708549662493,2.776238433783874 L 65.26643935474567,2.441510824020952 L 65.90353042399511,1.102610967704095 L 64.18102503335103,0.0 L 62.60009536030702,0.3662231055786833 L 62.269751825137064,1.4530860604718328 L 63.19785972870886,2.42182095174212 L 63.82708549662493,2.776238433783874 z" /><path fill-rule="evenodd" fill="#D2EBD9" stroke="#A6A6A6" stroke-width="0.25" opacity="1" d="M 345.8647294458933,500.0 L 347.079734838102,499.98519616026897 L 347.5721857568715,498.6587947376538 L 346.67961846641265,496.29625280364417 L 345.04984042514116,495.47324508661404 L 344.20710447779857,496.50348766427487 L 344.2349514046218,497.9423196990974 L 345.8647294458933,500.0 z" /></g></g></g></svg>