<svg xmlns="http://www.w3.org/2000/svg" xmlns:xlink="http://www.w3.org/1999/xlink" width="463.99122597277164" height="500.0" viewBox="0.0 0.0 463.99122597277164 500.0" preserveAspectRatio="xMinYMin meet"><g transform="matrix(1,0,0,-1,0,500.0)"><g><path fill-rule="evenodd" fill="#D2EBD9" stroke="#A6A6A6" stroke-width="0.25" opacity="1" d="M 0.0,325.9502215785906 L 1.2609077878296375,328.9267996852286 L 4.279098689556122,339.8749712589197 L 20.682310182601213,395.317170931492 L 20.893412441015244,399.19877599645406 L 20.593875501304865,424.0679591926746 L 21.06172362715006,425.6401735395193 L 35.30541667714715,446.46148236701265 L 38.97973607107997,452.0710272411816 L 41.83246849477291,458.13861253112555 L 49.084114365279675,478.27471683640033 L 49.526287894696,478.97142603667453 L 50.40778224170208,479.3409639149904 L 62.905603013932705,481.25505909183994 L 145.9572025835514,499.3350589070469 L 196.57038155570626,500.0 L 197.66868352144957,499.7219393271953 L 200.90082938596606,497.4125146190636 L 247.04092388227582,468.67909983638674 L 247.63999770581722,467.9998200573027 L 247.81971983611584,467.1627823598683 L 247.65140859410167,465.22153585078195 L 247.7626651674509,463.3405667664483 L 248.70406683906913,459.97814369015396 L 248.88664173334837,458.13861253112555 L 248.7411523796618,456.8331126323901 L 248.72688878327608,453.12813109438866 L 247.91100722923875,450.0172253064811 L 247.9766201339662,447.5435466100462 L 248.3075370900333,447.3368700654246 L 249.15194589272141,447.28216082789004 L 250.0648202560842,446.20614514965564 L 250.1732240654528,445.5860109459609 L 248.14493132010102,444.88070922577754 L 247.73699057102203,443.8956278632395 L 248.0878766514361,442.8070503398776 L 249.15194589272141,442.0589581048116 L 249.4885683208704,442.1501920851879 L 250.09049485251307,442.8252956904471 L 250.6581886075437,442.86178634129465 L 251.46836457774043,442.18668549275026 L 251.73081597685814,441.627104582265 L 251.20020776242018,440.00899280887097 L 251.3228752799332,438.512287855614 L 252.1359039619565,436.06592292850837 L 253.01169283688068,435.04336625896394 L 254.1984295397997,434.1120091122575 L 255.439368147403,433.44234683178365 L 256.4863209724426,433.18055626004934 L 257.3022024706006,432.7117496570572 L 257.1510076485574,431.6644577588886 L 256.28092424571514,429.9593046521768 L 256.163962200284,428.76550612971187 L 256.45494090393186,425.8351577585563 L 257.0853947997093,424.4214266454801 L 257.06827837973833,422.4771836907603 L 257.21662049740553,421.6603543753736 L 258.2008131816983,419.85575140314177 L 258.17513858154416,419.221615598537 L 257.7614923603833,418.0873761055991 L 257.78716696053743,417.40432389313355 L 258.1294948607683,416.73951769433916 L 258.64869217947125,416.32475116848946 L 259.1250984892249,416.39184708474204 L 259.63288486376405,418.4471772974357 L 260.3603316247463,418.89843294303864 L 261.23897326365113,418.7581802373752 L 262.00065280124545,418.2154425843619 L 262.7537741586566,416.59923116629943 L 264.43403358757496,415.1901444615796 L 264.5738174133003,414.62278711562976 L 264.15446577221155,414.17741684243083 L 263.50689551606774,413.88455849466845 L 262.3058951571584,413.63440109975636 L 260.41168082132936,411.98074508598074 L 260.00659278035164,411.44980156980455 L 260.36318438872695,411.08971841447055 L 262.91923263669014,410.7235172172077 L 263.8549288325012,410.10094063775614 L 264.46541365608573,409.2036212910898 L 264.60519748181105,408.13526592822745 L 264.0375037267804,407.5247194431722 L 261.7581705302,406.2546483455226 L 261.24753138795495,405.49740410922095 L 261.41869539394975,404.8317085416056 L 262.34298070147634,404.2881219647825 L 262.6225484609604,404.2881219647825 L 263.8977199047804,403.2313918089494 L 265.16148034483194,401.85684309899807 L 265.53233555331826,401.85684309899807 L 265.7691123522818,402.8893018811941 L 266.787537869066,401.99736233241856 L 266.873119790107,400.70816744770855 L 266.3567752316594,399.33933751191944 L 264.86194340512156,397.01672972086817 L 264.90188171342015,396.1792183816433 L 265.7691123522818,394.37554744118825 L 266.10858748853207,391.7396881338209 L 265.8832216337323,388.9684301195666 L 265.11583656817675,386.4594712778926 L 263.8549288325012,384.5987050314434 L 262.2916315048933,383.4416471114382 L 262.00065280124545,382.9824545783922 L 261.96641996875405,382.24157295096666 L 263.21306404843926,380.52689450094476 L 264.097411159426,380.25741431862116 L 264.6907795108855,379.6755536356941 L 264.26286958158016,378.1257767328061 L 260.58569747954607,372.4204579759389 L 259.7384359650314,370.39726152503863 L 259.5244810022414,369.1463211821392 L 259.5815356709063,367.82773172389716 L 260.04082561284304,366.7788491905667 L 261.0449874252081,366.3494452335872 L 261.5698902197182,365.84026696067303 L 260.08361657336354,362.2935873614624 L 260.3146879002452,361.28699622210115 L 260.8937925994396,360.2188984332606 L 261.58700658008456,359.36555217718706 L 262.17466945946217,359.0155942765996 L 262.47991187125444,358.4507197136991 L 260.08361657336354,354.4771239045076 L 260.31754060834646,352.24077922897413 L 260.2661914676428,351.1039504832588 L 259.1507730856538,348.7806605035439 L 260.42879723757505,346.94862439855933 L 260.8367379307747,345.57741243904456 L 259.299115203321,342.4098641090095 L 258.77991788089275,341.8869508472271 L 257.4448391161859,337.819426630158 L 257.4762191288173,335.4863301371224 L 258.84838343784213,334.55660499539226 L 259.3419061601162,333.6083026002161 L 260.02941466867924,332.86929147457704 L 261.8922489359975,332.2410809225403 L 262.4856172911823,332.2410809225403 L 263.81784334406257,332.7030049767345 L 264.2885441817343,332.4258536170237 L 265.33549700304866,331.36027517775074 L 266.00303638726473,331.51426888257265 L 266.88738349825144,332.27803571522236 L 268.0170655362308,332.11789682740346 L 269.1153674982488,332.536715246737 L 268.9841418005526,332.63525772839785 L 269.00411092862487,332.94935413682833 L 269.212360419333,333.50361329270527 L 270.17658392339945,333.33118104422465 L 271.27203323692083,333.74378091981634 L 273.8509033732116,333.4112393055111 L 275.2829750031233,333.92852051043883 L 275.7907614335418,333.69451632350683 L 276.6494338363409,331.3109965980984 L 277.2970040924847,330.0850988761522 L 278.0215981453657,329.3765838164836 L 278.9801162853837,329.1362911686301 L 280.3037841618061,329.33345488039777 L 281.29938773438334,329.77705621207133 L 281.9840435348451,329.703124307096 L 283.7013884484768,328.6741705723107 L 286.308785893023,329.1732597029768 L 288.85342325270176,328.3722380385734 L 290.6677610874176,327.21370185073465 L 291.01864716783166,327.2075389875099 L 291.2183384820819,327.5711396788247 L 292.53059535473585,326.9795102109201 L 293.1553437784314,326.9918362093158 L 293.4377643018961,327.30614413600415 L 293.6060754880309,327.8607764048502 L 296.9238033294678,327.1828875481151 L 297.9850197508931,327.37393446452916 L 299.3628895319998,328.52628658432513 L 300.1188636533916,328.7111411462538 L 300.3584931604564,328.47699140105397 L 300.5268044024706,327.55881453398615 L 300.9062177874148,327.23835319885984 L 301.43397334590554,327.1952133066952 L 302.51515889540315,327.66357801575214 L 303.4109168946743,327.5280014430173 L 305.5704353414476,326.64053691364825 L 305.66742825880647,326.25224158447236 L 305.93273236602545,326.0056954054162 L 307.2250201702118,325.7344863046892 L 307.5473789423704,325.7036665510386 L 308.63712272793055,326.0550052705221 L 311.304427549243,325.9872041908093 L 312.66803362220526,325.5372378323227 L 313.26140197366476,325.51874552154914 L 313.87759221345186,325.92556637339294 L 313.8262430205941,324.97012245329097 L 314.10010536015034,324.7358678863384 L 315.09000351652503,324.7851851270534 L 316.06421161070466,324.28583406098187 L 316.62477353960276,324.2550089615397 L 317.23811101540923,325.80228943470865 L 317.88282856345177,324.88998343003914 L 318.4505223184824,323.39802510105073 L 318.5703370720148,322.6396134030074 L 319.8669039942324,322.44845816725865 L 320.5957771092653,322.6951092905365 L 321.8766539692879,324.1008816980757 L 322.30456384271383,325.04409618955106 L 322.5042551010847,325.1427267990075 L 323.2616555765271,324.8714896864258 L 323.67958091571927,324.9146416913718 L 325.4810813963413,325.46326846210286 L 325.8990067355335,325.3831342291087 L 326.0787288658321,325.0009449128993 L 326.649275328964,325.3769699567929 L 327.34819478169084,326.843922493048 L 327.6334680132568,327.08428094675764 L 328.55917973071337,326.60355719178915 L 330.4377040602267,324.4276281474158 L 331.3077874071896,324.21801868034527 L 331.56595968827605,324.698879675474 L 330.9825759269297,325.77763385279104 L 331.33346200734377,326.13513306202367 L 332.3918257765472,326.5295972567983 L 334.23754362761974,327.9162376220338 L 334.83233838900924,328.569419676438 L 335.77374005690217,330.25143719511107 L 336.508318644017,330.86131623666734 L 336.9847250059247,332.1733298879117 L 337.82913375273347,333.423555851914 L 338.898908469826,334.4765575812198 L 343.8398410156369,335.4863301371224 L 344.62148973345757,335.40629162825644 L 345.19203619658947,334.78442789334804 L 346.65263518691063,331.1446792911738 L 347.95062846690416,329.1732597029768 L 349.63374065607786,327.5464893109165 L 352.7118388824165,325.7036665510386 L 354.34360187500715,324.1070468528196 L 355.2964144907892,323.50900641595945 L 356.26063810288906,323.2747107842006 L 365.76023710146546,322.7937677805312 L 367.2037197314203,323.39802510105073 L 369.5943095013499,321.9613007106818 L 373.0347048602998,321.6344575146213 L 374.05883579328656,321.005402659066 L 374.79626708850265,322.66427831398323 L 377.5705494210124,318.8711955156177 L 379.81279707700014,317.18071230780333 L 380.36052175983787,316.55132041079924 L 380.83835441991687,315.1010693227872 L 381.0195029042661,310.0448055653833 L 381.40747452899814,307.87688870122656 L 382.3645663149655,305.93701607361436 L 383.80091700702906,304.38602499477565 L 387.4837946370244,302.51950495131314 L 387.8988672159612,301.8086325782351 L 388.0757365822792,300.5721863969229 L 387.6720749512315,298.6120375012979 L 388.194124981761,296.6019344222732 L 387.62785763666034,294.6098994142376 L 386.67076590284705,292.8773004640825 L 385.9490245617926,291.0576758477837 L 386.08310302346945,288.8166277888231 L 387.31263069063425,284.1963883312419 L 387.3097779266536,283.1617387807928 L 386.99883015081286,281.14162324974313 L 387.1186449043453,280.12517834547907 L 389.1683331280947,277.49670454347506 L 389.469296425581,276.32477441383526 L 389.19828679040074,274.1354756685905 L 389.23965145274997,273.1429631160572 L 389.83159345015883,272.361273501534 L 391.36636346951127,271.4119768808596 L 392.7813187390566,266.4154642918147 L 392.75849690288305,265.4095788206905 L 391.46906186267734,262.67690682271495 L 391.29504514858127,261.6829764568247 L 391.6573421731591,260.3347609792836 L 393.35329166427255,258.5202130996622 L 393.96092361584306,257.38280310016125 L 393.86820981279016,255.53027983615175 L 392.3819362260401,252.18469914607704 L 392.5231465138495,250.09455094719306 L 392.90113354846835,248.07852925220504 L 392.8554898239672,245.91260085999966 L 393.04091742634773,243.89551359368488 L 394.10213390365243,242.33253941172734 L 396.54977829009295,239.6915926169604 L 397.7450732290745,235.94042454194278 L 398.5809238515794,224.28603423712775 L 399.1058265902102,222.71914770361036 L 400.3553234376013,221.3704988635145 L 402.05840469896793,220.59616900375113 L 405.5273273102939,220.32763340091333 L 407.2731995880604,219.94667160883546 L 409.2544222548604,219.2034301487729 L 411.2399240396917,218.7911816239357 L 413.19547211006284,218.95358516462147 L 416.50036265328526,220.6648626406677 L 419.99353356286883,220.63363834097981 L 421.6937620602548,221.14570136135444 L 422.6280319020152,221.59528987295926 L 425.43939977511764,221.83256224682555 L 426.3722432628274,222.39449428301305 L 428.29498490691185,224.76664950698614 L 431.85519502311945,226.7948941984214 L 439.0640499331057,229.32166246837005 L 440.00545160099864,229.83315568696707 L 441.3961586803198,231.35496223112568 L 442.2448465451598,231.77901958534494 L 443.71685648337007,231.37367109162733 L 453.0681134201586,226.0148624922149 L 454.18638456612825,225.17858179891482 L 457.2388082444668,220.8959187096916 L 463.99122597277164,216.9108007028699 L 460.9131276421249,214.53624701267108 L 459.6037234738469,212.82361736521125 L 459.0588515549898,210.9667986757122 L 459.2128991410136,209.99132133834064 L 459.9232294820249,208.07127219391987 L 460.1913863532245,205.80662628030404 L 461.92870039492846,203.3159984955564 L 463.12114256992936,200.03565035620704 L 463.0583824850619,198.2759549356997 L 462.53347969055176,196.40309538366273 L 461.8488238938153,195.07490410935134 L 459.706421867013,191.85997730726376 L 459.0645570270717,189.89776856871322 L 459.05029337108135,188.04166889516637 L 459.82908932864666,183.87633970705792 L 459.7948565483093,181.9057955709286 L 457.0448224619031,173.5032712672837 L 455.4644086621702,171.18433925509453 L 455.047909732908,170.18490480957553 L 452.0126024670899,157.03531424840912 L 451.95554779842496,154.86876555904746 L 452.4034267999232,153.69075582036749 L 453.80982388556004,151.34678178606555 L 453.9809877797961,150.19342710729688 L 453.4817596413195,149.1218445552513 L 451.61892537400126,147.38807519618422 L 450.95423869788647,146.303475656081 L 449.7332692146301,142.31053110165522 L 447.3312685005367,138.76996046490967 L 445.7537074647844,137.32421339396387 L 444.52132703736424,135.05085077835247 L 443.86805130541325,132.89682468539104 L 443.72256195545197,130.89383644610643 L 443.93936963006854,129.54135303013027 L 444.8807713538408,127.2719080853276 L 444.28740299865603,123.1294679348357 L 445.16889729350805,121.15545107191429 L 445.32865035161376,119.92141999676824 L 444.4927997291088,119.37078500259668 L 442.5486625507474,119.47838367847726 L 442.0423025265336,118.8960664444603 L 442.0280389301479,117.2817922537215 L 443.0336270928383,114.07750777620822 L 443.4629633203149,112.03768350277096 L 444.71246011182666,110.4915971797891 L 445.07760990038514,109.75011945748702 L 444.9863224513829,108.39371652295813 L 443.8537876531482,106.33327367715538 L 443.5685144215822,105.33136992994696 L 444.0563316717744,101.41754436818883 L 443.5685144215822,100.49111040728167 L 441.76273476704955,100.24996426608413 L 441.3077239394188,100.03419513767585 L 440.9725279211998,99.37415535515174 L 441.4660505913198,96.25084096891806 L 442.0622716508806,94.2822037502192 L 442.0280389301479,92.90383736928925 L 440.8869459480047,88.97054709400982 L 441.10090085864067,88.03615349996835 L 442.09935719519854,86.82825344800949 L 442.29619574174285,86.0334712821059 L 440.8584185875952,83.61679193051532 L 440.7585729584098,83.1588028469123 L 440.8955041281879,79.1756049208343 L 439.80576034262776,76.5592290670611 L 439.0184061527252,71.79508477216586 L 438.53201530873775,70.95402204431593 L 436.83749217540026,69.0166501221247 L 435.2841793820262,67.7290248866193 L 434.45403422787786,66.72170952521265 L 433.9305578432977,65.60584494657815 L 434.45403422787786,62.72291198698804 L 434.20014106854796,59.78774619102478 L 433.75226206704974,58.41545667126775 L 432.9820242933929,57.41319754160941 L 432.4129041843116,57.132283996324986 L 431.438696090132,57.834546715952456 L 428.9881988875568,57.834546715952456 L 427.6645310148597,57.49619255075231 L 426.75023029744625,56.61511852638796 L 426.15258288383484,55.38909320207313 L 425.02575355395675,51.46054216986522 L 423.69352749735117,49.58811844838783 L 422.7820794917643,49.166274830233306 L 420.07911548018456,48.929775678087026 L 418.9665498621762,48.51428490085527 L 415.384944267571,44.90167333977297 L 415.0041044726968,43.8463111682795 L 415.76578406617045,41.408775384072214 L 415.5760773457587,40.064888189546764 L 414.69030388072133,39.32243957463652 L 413.40942707285285,39.098409342579544 L 411.22138126939535,39.21362579241395 L 408.1661048233509,40.50647968612611 L 406.8381578847766,40.525678645353764 L 404.14375211298466,39.02799840178341 L 401.55917650461197,38.69513690797612 L 400.4494635909796,38.355857877992094 L 399.47382909059525,37.70285936119035 L 398.54383831098676,36.67842472298071 L 397.8862834610045,35.4937343550846 L 397.5510874465108,34.23197753448039 L 397.4141562730074,31.368157526943833 L 396.83219880983233,30.381243695504963 L 392.8583425320685,30.291517245117575 L 392.2221832200885,29.310860349796712 L 391.6716058291495,26.919527509249747 L 390.76586329191923,26.438596877735108 L 389.3009851835668,26.06665431568399 L 389.2624732851982,25.130296610295773 L 390.59327298775315,22.589948917273432 L 390.93560088798404,21.19749383907765 L 390.82291796058416,20.54929685825482 L 390.0854866094887,19.28481685742736 L 390.26806150376797,18.360380347352475 L 390.21956507116556,17.500029424205422 L 389.6846777424216,16.080858039669693 L 388.7931988053024,15.014681747183204 L 387.62072575464845,14.340207892470062 L 386.2457087934017,14.108944511972368 L 384.69524865597486,12.907534607220441 L 382.71973146125674,10.54907701909542 L 380.66433776170015,8.909889856353402 L 377.32806714996696,10.748324096668512 L 375.84179355949163,11.166081428527832 L 375.1756805330515,11.551681058015674 L 374.6992742270231,12.181447270326316 L 373.8677026629448,14.513650375418365 L 373.04041027650237,15.676244277972728 L 371.9221391864121,16.112969202455133 L 367.9611202068627,15.836808149702847 L 366.7440552264452,16.087427566293627 L 363.0529940277338,17.538554942701012 L 360.24875803664327,17.910956694744527 L 357.8011135980487,16.305633160751313 L 355.78423174098134,13.980461512226611 L 354.5375877171755,13.415107736364007 L 352.95004208758473,12.978211615700275 L 351.67629705742,12.271409153472632 L 351.3739074058831,10.92185719544068 L 351.5864359624684,9.224901280831546 L 351.3739074058831,7.836170794442296 L 350.72918985784054,6.595076374709606 L 349.65370972827077,5.379486391786486 L 348.5768032409251,3.8098341478034854 L 347.8222555294633,1.8987469039857388 L 346.83521008118987,0.38622856605798006 L 345.057957790792,0.0 L 343.3120855130255,0.7145055420696735 L 341.64894250035286,2.053198106586933 L 340.22257629036903,3.71332744974643 L 339.1799025833607,5.398783180862665 L 336.95905040577054,8.202668573707342 L 333.2847310118377,8.7427350836806 L 329.4135730713606,7.604688317514956 L 326.5922207161784,5.379486391786486 L 324.55394338071346,4.987107108812779 L 322.54989882558584,6.228492591995746 L 319.13803082704544,9.668464340269566 L 317.2010255306959,10.465520093217492 L 315.17843820154667,10.253409480210394 L 313.1729672886431,9.430615259800106 L 307.7128373682499,6.402139972895384 L 305.90420505777,5.990524189546704 L 301.9788452126086,6.196335202548653 L 300.8577213548124,6.71726665366441 L 299.3857114203274,7.977628365159035 L 298.83228132128716,8.25410530809313 L 295.77415216714144,9.0963268824853 L 295.195047467947,9.41775830090046 L 293.41494246572256,11.037543430924416 L 292.025661688298,11.416723661124706 L 290.57362093403935,11.41029704362154 L 284.9993817284703,10.606923550367355 L 283.5815736949444,10.748324096668512 L 282.34919326752424,11.178935114759952 L 272.76115953177214,15.990945875644684 L 267.1184548251331,17.178975499235094 L 264.733570471406,17.994423281401396 L 261.4985718950629,18.694218882359564 L 259.80690152198076,19.419620163738728 L 255.50498105213046,20.337496587075293 L 253.76196148246527,20.38884271727875 L 249.60553031042218,19.72773217409849 L 243.56629579886794,20.51078820694238 L 228.52098490297794,19.18210779177025 L 223.36324463039637,16.832220492884517 L 223.60002137348056,19.945969814434648 L 223.50873398035765,21.2167462464422 L 222.8212254717946,22.397460306528956 L 220.7044979892671,24.17456819768995 L 220.37072832509875,24.976362732239068 L 220.65314879268408,26.765633326023817 L 221.45191387459636,28.028746862430125 L 222.70426342636347,28.778812002856284 L 225.49994123727083,29.26599044399336 L 225.77380352467299,29.913371840957552 L 225.68251613155007,31.98330560978502 L 226.002022087574,33.01483799144626 L 226.6068013831973,33.911698310635984 L 227.12599870562553,34.21276123262942 L 227.43124106526375,33.94372687814757 L 227.62237413972616,33.098122734576464 L 228.47819389030337,32.72653688909486 L 228.69785426929593,33.0404641488567 L 228.74349799379706,34.07183979637921 L 229.04018216952682,34.987778096459806 L 230.52075028792024,37.069008151534945 L 230.95721834152937,37.946140478830785 L 230.12992595508695,38.69513690797612 L 230.01581667363644,39.51445972779766 L 230.4694010913372,40.29528721887618 L 231.33377907797694,40.90324816899374 L 233.7785707525909,41.562346048187464 L 234.97386569157243,42.04863085458055 L 236.0322294048965,43.417724719271064 L 238.55975034832954,43.62882284587249 L 239.28434439748526,44.24928638152778 L 238.93345826119184,45.32377364160493 L 237.92644368857145,46.08476899471134 L 237.26460983604193,46.947982910089195 L 237.94641281291842,48.303334035910666 L 238.8678454682231,48.59738507447764 L 240.78773434832692,48.12434037029743 L 241.54656117781997,48.9361676601693 L 240.89899092167616,50.15053702285513 L 240.82196712866426,50.77681386703625 L 241.7348415441811,51.045201105065644 L 242.81887985765934,51.10910134296864 L 243.02998206019402,51.42220397805795 L 243.1811768822372,56.238393855281174 L 243.71463786065578,58.11543221771717 L 243.8943599909544,58.19203545199707 L 244.17678051441908,57.98137463256717 L 245.91409455239773,57.64302751375362 L 246.56737028434873,57.68771574134007 L 246.8554962798953,58.06436301488429 L 246.1137858107686,59.67286704527214 L 246.1023748666048,60.40040325187147 L 247.61147034540772,61.67022101581097 L 246.48178830742836,63.3544513490051 L 244.9384600520134,64.61736087827012 L 244.71879966929555,65.66323657007888 L 245.52612298727036,69.11863025976345 L 246.30206617712975,69.70498757949099 L 246.48178830742836,70.34227749984711 L 245.14670948684216,71.60394295025617 L 244.9555764682591,72.38122117798775 L 245.3349898569286,73.36225436348468 L 247.18356046825647,76.65473406109959 L 247.46312828361988,77.53332055965438 L 247.61147034540772,78.54547077743337 L 247.33475529402494,81.51743434322998 L 247.78263429552317,81.95007968414575 L 249.91077272221446,82.67533813696355 L 250.8664381019771,83.41324488073587 L 250.83220526576042,84.24011895805597 L 249.14624042063951,85.26403819024563 L 248.49581740051508,85.88722176430747 L 248.36459175497293,86.98719925619662 L 249.3630480952561,86.52306745061651 L 249.87083441764116,85.72825155593455 L 250.35579895973206,86.40226119430736 L 250.84932168200612,87.67380479862913 L 251.37992994859815,89.73958260007203 L 251.94191823154688,90.32424870179966 L 255.52495012432337,91.64592706039548 L 257.3678153194487,92.70055366912857 L 263.7436723150313,97.50794717436656 L 264.4625608921051,98.49189259158447 L 264.46826631203294,99.31068679085001 L 261.915070772171,100.06592627987266 L 262.3344224654138,100.99241481116042 L 264.26286958158016,102.58493592170998 L 264.9218508377671,103.76482508983463 L 264.8647961691022,104.40543706482276 L 263.59818296507,104.8811022802256 L 263.44128266721964,105.31234513828531 L 263.59818296507,105.7435623309575 L 265.92315988615155,106.80881243525073 L 267.049989156425,107.63934531109408 L 267.65476850792766,108.48879969865084 L 266.8160651214421,110.56764193810523 L 266.61922662705183,111.74623340368271 L 267.4493717253208,112.25943127181381 L 268.4620917700231,112.61421354627237 L 269.52901366725564,113.43774867709726 L 271.04952009022236,115.1858682660386 L 269.93410170823336,115.58483681455255 L 269.16101122274995,116.43969584954903 L 270.3135151490569,118.21241745725274 L 271.0010236017406,118.87707709474489 L 272.1792021803558,119.37078500259668 L 273.9222216382623,119.44040783448145 L 274.43856619670987,119.78851192165166 L 275.0404927842319,121.91475135739893 L 277.5252227112651,121.724933674559 L 277.89893068373203,122.1045641163364 L 278.15567660704255,123.52800293173641 L 278.76045590266585,123.96446868544444 L 279.5078717879951,124.15422831475735 L 280.16114746406674,124.8436469109729 L 280.45212621986866,125.93140497850254 L 281.17672027274966,131.2413971191272 L 281.1111073680222,132.239752960857 L 280.71457761898637,133.04213071381673 L 279.972867205739,133.8760054972954 L 276.5467354990542,136.57281821779907 L 276.5239136107266,137.31158551899716 L 274.85221241787076,141.6101247901097 L 273.14913115650415,142.78374112583697 L 272.0765037871897,144.29781011492014 L 270.29354602470994,148.2770765419118 L 269.634564768523,149.07141333306208 L 267.9058089070022,149.92239434784278 L 267.0728110447526,150.54638519557193 L 264.63943031430244,153.40724975429475 L 263.8549288325012,154.10654521314427 L 262.7623323947191,154.5097127808258 L 258.38624078407884,154.52231137268245 L 257.6131503023207,154.7805787594989 L 257.06827837973833,156.09067551745102 L 256.6917177028954,156.60079525317997 L 256.1753731444478,156.71415043063462 L 254.395268086344,156.60079525317997 L 250.56119568645954,158.55278381053358 L 249.87083441764116,158.5150082334876 L 249.32596255093813,159.43416006444022 L 244.34794440865517,162.8831212129444 L 243.3295189999044,162.85165978223085 L 242.41093910858035,162.1657673115842 L 240.85905266925693,160.53573444159701 L 239.49544654414058,159.6922577805817 L 238.87069817632437,159.5915377214551 L 238.16892601549625,159.79927124083042 L 237.36445546150208,161.21548240538687 L 233.81850900128484,165.20461226720363 L 232.50910483673215,167.0474532698281 L 231.83300721645355,167.72032361337915 L 230.58351042866707,168.35540765197948 L 218.39378472045064,170.74435295676813 L 218.10851143300533,171.03348969761282 L 217.9687276110053,171.51745464652777 L 217.62639971077442,171.77513755531982 L 216.79054903239012,172.2841926002875 L 216.00604765862226,172.52299678092822 L 213.19040072336793,172.5921228453517 L 212.0464550331235,172.88747268728912 L 201.4628176689148,180.94544063927606 L 199.70838721096516,181.37855689879507 L 197.5288996398449,183.2174566811882 L 196.14817709848285,183.29903575824574 L 195.05558060482144,183.70064310915768 L 192.9902023151517,185.068459010683 L 191.69220903888345,185.52643410023302 L 190.11464800313115,186.64929742412642 L 187.81819838657975,187.43959355261177 L 186.58296525105834,188.5935295559466 L 185.22506465017796,188.91333950636908 L 184.50617607310414,189.77237062202767 L 182.6904118284583,190.44949479447678 L 181.78324293717742,191.5779016497545 L 180.6592663191259,193.72768218815327 L 177.99481420591474,196.21515777520835 L 176.6568827331066,196.82907022954896 L 176.1348327025771,198.2759549356997 L 175.79393115639687,198.57657208153978 L 173.33630218356848,199.84154005208984 L 171.70453918725252,201.2878568964079 L 170.68611377850175,201.49445132538676 L 169.74899111688137,202.07038228586316 L 167.81055941060185,202.4522258020006 L 166.44124786555767,204.15464153327048 L 164.32594679296017,206.33843988366425 L 144.45095986872911,219.5469539645128 L 143.45392983034253,219.7967798775062 L 142.31426325812936,219.67811357881874 L 139.72398217767477,218.74745694873855 L 138.40174071118236,218.44762439839542 L 134.26813137158751,218.31644395459443 L 129.94624177739024,218.97857000026852 L 127.68545129522681,218.97857000026852 L 125.42323445901275,220.6648626406677 L 122.9556208960712,220.6648626406677 L 119.54232654348016,221.33927739504725 L 117.7294151186943,222.6442288006656 L 116.72240054234862,223.13743106694892 L 114.42737728357315,223.34344297321513 L 113.48454920575023,225.6154560185969 L 111.41203908994794,226.47665065107867 L 108.23694789037108,226.39552768599242 L 107.69920779764652,226.53905239142478 L 106.57095217332244,227.51869404502213 L 106.05032844096422,227.69339428516105 L 101.21637335047126,227.5748481368646 L 100.06957495212555,227.7121119624935 L 98.48345568031073,228.67289125965908 L 96.62917959317565,230.2073977822438 L 94.6023132018745,231.21152587002143 L 92.49557025358081,230.5940958983265 L 90.7554035037756,231.71665962971747 L 90.2333534732461,232.24670322751626 L 89.10509778931737,233.9270164561458 L 89.00525216013193,234.73742855526507 L 88.34627095982432,235.98405299521983 L 87.45051296055317,237.13077294221148 L 85.99847215041518,237.9657789543271 L 85.05279136449099,239.54830839904025 L 84.54500498622656,240.10274153295904 L 85.0470858886838,241.0931486133486 L 85.24107167497277,242.46331796934828 L 85.0413804166019,243.68381405295804 L 84.35815097391605,244.21305220667273 L 83.40533835813403,244.54302980937064 L 81.15595887601376,246.68443640414625 L 79.27030272036791,246.68443640414625 L 77.69559439271688,248.13453673524782 L 76.05669962614775,248.70703547308221 L 75.48615310713649,249.52837442839518 L 74.71306262537837,251.24544467078522 L 71.13430979475379,252.85019629215822 L 69.86056476086378,252.9123894632794 L 69.09745881333947,253.13006163947284 L 67.05347600579262,254.71577921370044 L 66.15771800652146,255.09506088960916 L 63.953982193022966,255.3499777223915 L 63.44476951658726,255.67327517131343 L 62.931277610361576,257.0844392273575 L 62.04978331923485,257.6625091219321 L 62.09827980771661,258.26539761573076 L 62.61747707426548,259.4523953581229 L 60.97715589776635,259.5953202964738 L 60.487912345677614,259.8500933162868 L 57.69936630502343,262.8011394110508 L 56.90060122311115,263.18624825403094 L 54.29320378229022,263.18624825403094 L 53.55006701499224,263.4036401938647 L 53.08364524319768,263.6893463684246 L 52.21926736831665,264.6581869488582 L 50.641706276685,265.5586068620905 L 50.01981061697006,266.07397410739213 L 49.57763708755374,268.94203977286816 L 48.639088071882725,270.23295581061393 L 46.15435820072889,272.05726254265755 L 44.459835063666105,274.3339634658769 L 38.30649121850729,278.104305036366 L 36.340958558022976,280.2801324194297 L 35.576426308602095,281.4328979263082 L 35.408115070313215,281.9844320612028 L 35.69338830187917,283.3847881597467 L 35.56786807253957,283.9547753697261 L 34.95453059673309,284.85923817195 L 33.92469418793917,287.0704115498811 L 33.117370925843716,288.2903254306875 L 31.439964205026627,290.21580744115636 L 31.23171477019787,290.94625710789114 L 30.96926337108016,290.9586370033212 L 30.424391452223063,291.33002644078806 L 29.89663600549102,291.97372807515785 L 29.505811616778374,292.16559086507186 L 28.93811786174774,293.60751195577905 L 27.429022386670113,295.27808948699385 L 26.473357062786818,297.1029601478949 L 25.734499357640743,297.319443221204 L 25.509133502840996,297.6410646182485 L 26.190936539322138,299.0449182158336 L 25.13542553409934,299.7189298802987 L 25.158247366547585,300.4979936652817 L 25.54336628317833,301.81481434963644 L 25.24953481554985,302.43296726373956 L 24.037123568356037,302.66785317938775 L 22.66781197115779,303.29830321855843 L 21.946070682257414,303.9039841820486 L 21.937512446194887,304.65175340371206 L 22.716308400034904,305.73311756365 L 23.027256287634373,306.73402534844354 L 22.587935466319323,307.80276184435934 L 21.36411327496171,309.23576357681304 L 20.368509646505117,309.3778148004785 L 20.046150870621204,311.0575404400006 L 19.02487264573574,311.4897675854154 L 16.651399236172438,311.81083591189235 L 15.573066398501396,312.2245018151589 L 11.719024870544672,314.89739677263424 L 10.786181382834911,315.8416547556408 L 10.401062469929457,316.7426112857647 L 9.9246561601758,317.15603114059195 L 7.009163595736027,318.16789756249636 L 5.671232122927904,319.932199256029 L 4.729830399155617,320.72786331828684 L 2.053967397660017,321.35693919146433 L 1.3835752494633198,321.7392954034731 L 0.9756345003843307,322.28196447202936 L 1.6602903008460999,323.9220904093236 L 1.3208151087164879,324.72353850118816 L 1.6973758451640606,324.72353850118816 L 1.0241309888660908,325.5742222717963 L 0.0,325.9502215785906 z" /></g></g></svg>