<svg xmlns="http://www.w3.org/2000/svg" xmlns:xlink="http://www.w3.org/1999/xlink" width="376.4733496941626" height="500.0" viewBox="0.0 0.0 376.4733496941626 500.0" preserveAspectRatio="xMinYMin meet"><g transform="matrix(1,0,0,-1,0,500.0)"><g><path fill-rule="evenodd" fill="#D2EBD9" stroke="#A6A6A6" stroke-width="0.25" opacity="1" d="M 127.12660866044462,491.3655291451141 L 132.84143137559295,484.21750863827765 L 133.9317594692111,482.2538865180686 L 135.8398334737867,476.2579794488847 L 137.23094165325165,474.14773511420935 L 138.78183931298554,472.98465786129236 L 142.35360349714756,471.38911146856844 L 144.0642905458808,470.2264768714085 L 148.84857483021915,465.78044316731393 L 150.5028656180948,464.99017227534205 L 153.97123658284545,464.60519979987293 L 155.67252433113754,463.9163525244221 L 157.07303190231323,462.5118469214067 L 160.09023269452155,457.0854466725141 L 162.3084862679243,455.40570428874344 L 162.94764409773052,454.58958440832794 L 163.25782366469502,453.50381468236446 L 163.45521062240005,450.84739776700735 L 163.7841888833791,449.5936907371506 L 164.66773062758148,448.10435182228684 L 166.7543928977102,445.4094912111759 L 167.6191357690841,443.64489866793156 L 168.70946377143264,442.64156176522374 L 169.92198377847672,442.3722331551835 L 171.14390308596194,442.7425625156611 L 172.29062734916806,443.68530444893986 L 172.82639204896986,445.1939456127584 L 173.62533935904503,446.3121583824977 L 174.6310729254037,446.72984823118895 L 175.74959910474718,446.1504783583805 L 176.5015494544059,444.8773744767532 L 176.48275076039135,443.68530444893986 L 175.89998910203576,441.11325392127037 L 175.97518423572183,434.3440836202353 L 175.73080031946301,432.5014827372506 L 174.35849092528224,428.99913611542434 L 173.6535374429077,425.74702384416014 L 173.98251570388675,423.6245261011645 L 176.6519395429641,418.9988150782883 L 177.81746258959174,415.99266796559095 L 177.5824781563133,414.1748180249706 L 176.26656502112746,412.8201097836718 L 174.22689962014556,411.17065577581525 L 174.80966109782457,409.354005118832 L 176.1255742330104,408.47600746620446 L 177.7516669370234,407.9532804507762 L 179.25556763634086,407.2161646625027 L 180.56208147108555,405.8761446895078 L 183.53228539414704,401.4959927042946 L 189.40689768083394,396.15495324879885 L 192.91286612302065,391.5064685884863 L 194.30397430248559,390.3698781868443 L 201.80467929132283,386.94111762102693 L 202.74461720697582,386.19943310599774 L 204.3143135588616,384.58936736918986 L 205.38584286905825,384.3288505245 L 206.26938452385366,384.74968996830285 L 207.7356877475977,386.3731542490423 L 208.6662263609469,386.6070162896067 L 210.1419289764017,385.5045896982774 L 213.24372420459986,380.9029135815799 L 214.7288261204958,379.14048153627664 L 217.74602700397372,377.0047678183764 L 219.37211970612407,376.32413966953754 L 223.20706650055945,376.20403534080833 L 232.8696287125349,373.1687178639695 L 235.43565933033824,371.7682251613587 L 237.76670542545617,369.8613169780001 L 240.8497019596398,366.1289432356134 L 241.2632746566087,364.4233462586999 L 240.9248970039189,362.804727637209 L 239.77817274071276,361.8057582573965 L 238.64084768854082,361.7391650285572 L 237.69151047244668,361.25971222296357 L 236.91136194579303,360.4473773557693 L 236.22520715743303,359.40212760772556 L 236.4037954211235,358.4169327346608 L 236.34739916026592,356.82625430077314 L 235.05028481036425,354.8167674196884 L 234.64611141383648,352.10283454786986 L 234.35473062843084,351.48435749672353 L 233.20800636522472,350.52681805659086 L 232.258668968454,350.1943681361154 L 229.93702226504683,350.0281488019973 L 229.0346818268299,349.56940307468176 L 228.3767253048718,348.5456385212019 L 227.94435382448137,347.21628645900637 L 228.1323414798826,346.1330419788137 L 229.36366017907858,345.8074351949617 L 230.9051583558321,345.72769696917385 L 231.18713974952698,345.06988929305226 L 230.96155461668968,344.21947755664587 L 231.01795096695423,343.5219473000616 L 233.13281132094562,342.08723546005785 L 237.50352281704545,341.3168573155999 L 239.77817274071276,340.18800025526434 L 242.94576362147927,338.94645702745765 L 244.28047554008663,337.758223451674 L 245.01362710632384,335.68093398120254 L 244.75984379835427,333.2194725489244 L 243.47212892957032,332.12501612026244 L 239.77817274071276,331.0771431867033 L 237.22154151462018,330.68588690739125 L 231.9390900991857,330.9511430589482 L 229.5046507846564,330.0824644798413 L 228.32032895460725,329.02162165474147 L 227.4931836500764,327.61623956263065 L 227.16420529969037,325.85988771915436 L 228.78089861012995,325.1508373906836 L 230.4163906145841,323.89856910705566 L 231.99548644945025,320.5138679044321 L 233.47118897363544,319.81857325322926 L 241.20687839761376,318.95120191574097 L 246.7713111154735,319.4146700715646 L 248.5571932066232,318.9048568252474 L 250.1550876442343,317.4021047120914 L 250.94463565200567,315.35699879191816 L 251.48979965411127,313.04783347342163 L 252.3451431337744,310.7393881333992 L 255.67252358421683,307.38052962254733 L 260.1184300314635,306.0255157891661 L 264.8181197885424,306.0519527476281 L 268.89745058864355,306.8979840548709 L 272.224830949679,308.34571478981525 L 273.78512800112367,308.76223766990006 L 275.2890287004411,308.44488485343754 L 283.5134858638048,304.1355200856924 L 286.417894044891,303.65979292057455 L 287.3202344831079,302.76128038764 L 289.8580670170486,296.6001537265256 L 290.55362110584974,293.2213010173291 L 291.04238884709775,292.2448878567666 L 292.00112554617226,291.34116027411073 L 293.03505728952587,290.714552635327 L 293.87160207517445,289.88355433382094 L 294.8397381659597,286.19135302025825 L 296.41883390955627,284.6424935478717 L 298.4490999188274,283.7528690295294 L 300.4135702755302,283.5288323396817 L 302.58482697978616,284.0955267706886 L 303.76914872042835,285.3410881292075 L 314.12726502120495,304.0562301259488 L 314.66302972100675,306.065171261318 L 316.0071409419179,307.0830662762746 L 319.77629217505455,307.94243718963116 L 321.5527749657631,309.02670890744776 L 324.72036575526,312.5186134483665 L 325.6791025456041,313.26614775136113 L 327.906755419448,313.18014445435256 L 329.5798450820148,312.82291039824486 L 330.92395630292594,312.0291184009984 L 337.2497387621552,305.0143742682412 L 340.3609333820641,302.48382060974836 L 343.4251311328262,300.9579772539437 L 350.6062570717186,300.0862078452483 L 351.9315696898848,299.1220971075818 L 356.5184668339789,293.9800890069455 L 355.98270222358406,291.6643787417561 L 354.384807696566,290.0286424988881 L 352.35454168729484,289.0724314628169 L 350.6062570717186,288.7493258966133 L 348.6417868062854,289.22409812454134 L 345.3332051374018,291.4664882738143 L 343.4251311328262,292.2448878567666 L 341.52645651996136,292.31745471898466 L 339.7217755522579,291.7699224902317 L 338.368264939636,290.48371035512537 L 337.84189972281456,288.3602989744395 L 337.5599182397127,286.1518037300557 L 336.80796797946095,284.9061063854024 L 335.63304544985294,284.37230001948774 L 332.43725648522377,284.2273222580552 L 331.5913123078644,283.9505542796105 L 330.96155377849936,283.38387102726847 L 330.5667799562216,282.19134154636413 L 330.3317954316735,280.4786502709612 L 330.312996648252,278.8190335603431 L 330.5855786483735,277.7786690890789 L 332.49365265481174,276.0143327312544 L 332.8978260513395,275.132321392186 L 332.98242048732936,274.17802383750677 L 332.7662347462028,272.1645284546539 L 332.8696278743446,271.1908763246611 L 334.4675224032253,267.5013636313379 L 336.8925623241812,264.18170646671206 L 339.93796129338443,261.56646350957453 L 343.4251311328262,259.9767390275374 L 347.1848829742521,259.4381488095969 L 348.91436880640686,258.6303365165368 L 349.6381210722029,256.9033565307036 L 349.2621458508074,250.79974766634405 L 349.83292802236974,248.86748586874455 L 345.9347654916346,247.03506238386035 L 345.13581827282906,246.18925296887755 L 343.75410939380527,243.91456634923816 L 342.06222112849355,242.03371991869062 L 341.94002912566066,241.26054751500487 L 342.04342234507203,240.5857251388952 L 342.2220105174929,240.18610163778067 L 342.35360182262957,240.17955066729337 L 341.4136639088392,236.42675598151982 L 341.2350757345557,234.99948530830443 L 341.32906947284937,233.76230107434094 L 341.92123043350875,231.08570796251297 L 341.9306297339499,229.9734690655023 L 340.8591006062925,228.01763762906194 L 339.24240729399025,227.6971653373912 L 337.37193076498806,227.82796870172024 L 335.51085353828967,227.1608956567943 L 334.45812301151454,225.5850079478696 L 333.76256892085075,223.7610536655411 L 332.73803666234016,222.44729706272483 L 330.71716995351017,222.38847751077265 L 326.43105289526284,221.69574888143688 L 324.3819881025702,220.80705852713436 L 323.2728613149375,219.08878686092794 L 323.06607496738434,217.52112578880042 L 323.0190780982375,213.85799464397132 L 322.8122917506844,211.8867815285921 L 321.4023847877979,209.00269354414195 L 321.2237966135144,205.2198224319145 L 320.3590537440032,201.33783711027354 L 319.1935306061059,198.43173423409462 L 318.71416225656867,195.6863025901839 L 319.9078834783286,192.27463504299521 L 322.2671277485788,189.43384331464767 L 322.3611215762794,188.45462048519403 L 322.0227439235896,186.35346205718815 L 322.0415426157415,185.30635409336537 L 322.44571601226926,183.66444368567318 L 323.75222975574434,180.48568057268858 L 324.57937514968216,179.16321572847664 L 325.71670002117753,178.10086269676685 L 328.39552325196564,176.6164181381464 L 329.335461165756,175.7005607187748 L 329.93702151812613,174.04450498800725 L 330.021615864709,171.1618860764429 L 330.7641669139266,169.46139707881957 L 330.32239594869316,168.43609639722854 L 330.86756004206836,166.92759976442903 L 330.4633867368102,165.65939803421497 L 330.4445880446583,164.41086486913264 L 331.55371473915875,162.10891597159207 L 333.2550023961812,156.14655884634703 L 334.11974535882473,153.75321620237082 L 335.36986293271184,152.57463520020247 L 338.38706372492015,151.1340367021039 L 340.29513772949576,148.76492866687477 L 341.1598806902766,148.10481754876673 L 342.1280167810619,147.88479307480156 L 344.0924870464951,147.9915688894689 L 344.93843131512403,147.75537019968033 L 345.62458592280746,146.9950540671125 L 346.6397189721465,144.85363775491714 L 347.3822699300945,144.0451030312106 L 348.247012892738,143.72171322628856 L 350.86004037968814,143.70877790544182 L 352.35454168729484,143.03617251571268 L 353.5952598694712,142.14053580071777 L 360.0996305011213,135.5703774401918 L 361.2463547643274,133.88431804906577 L 361.57533302530646,132.88965410832316 L 361.85731451027095,130.61016870848835 L 362.1392959021032,129.62238886859268 L 362.7032586876303,128.7799722403288 L 364.90271347761154,126.56947583612055 L 367.3089546151459,123.27912411745638 L 368.57787079177797,121.99885212164372 L 370.19456410221756,120.98962095752358 L 374.66866881772876,120.01276106014848 L 376.1819690000266,119.3358028801158 L 376.4733496941626,116.29668057989329 L 375.5146129950881,112.1283199088648 L 373.84152342379093,108.02661188598722 L 371.98984558694065,105.19791215378791 L 371.2472947202623,104.64774104766548 L 369.70579645223916,103.91745796240866 L 368.9350473191589,103.22906140144914 L 368.48387705534697,102.35417975485325 L 367.82592044211924,100.07095346879214 L 367.346552092582,99.10963007993996 L 363.5304039902985,95.48405450489372 L 362.3272834662348,93.74259021691978 L 361.12416285276413,93.27034263685346 L 358.605129102245,92.67284676618874 L 357.5429992750287,92.0304302033037 L 356.9038414452225,90.9801953304559 L 356.3398786596954,89.40992979239672 L 354.73258474096656,83.37591791339219 L 354.1216250862926,81.80079710111022 L 353.0500958673656,80.4985997537151 L 350.2866782937199,79.32168094906956 L 347.5232606269419,78.6419083122164 L 340.6711129490286,80.4985997537151 L 338.1896766759455,80.17468849476427 L 336.9489586763084,79.31526764761657 L 336.45079145208,78.57457569707185 L 335.8210331052542,78.1962410947308 L 334.2043397948146,78.4463245626539 L 332.95422231033444,78.4174683559686 L 332.1364763081074,77.70892242807895 L 330.71716995351017,75.51637203805149 L 329.75843325443566,74.69592976290733 L 327.4461858533323,73.46222681552172 L 326.65663802810013,72.73171194642782 L 325.8012944571674,71.40863182768226 L 325.66030376031995,70.94096331018955 L 325.97988272085786,70.4797289725393 L 328.1417400352657,65.20953510981053 L 329.3636593427509,63.34374243952334 L 330.71716995351017,62.26543784607202 L 330.84876125864685,61.51679313182831 L 330.71716995351017,60.76182371843606 L 329.5046500377357,59.603921657428145 L 327.1360062863678,55.06995196547359 L 327.7845635060221,53.37279967032373 L 327.3615914173424,50.32142473664135 L 325.93288576230407,44.07866486813873 L 325.61330689303577,41.61807774472982 L 326.00808080658317,41.43938869424164 L 330.71716995351017,37.021343471482396 L 333.5087857041508,34.993400058709085 L 334.6649093590677,33.57160671893507 L 335.36046344973147,31.83138252887875 L 335.72703927755356,29.960919957607985 L 335.416859799996,27.396542239934206 L 334.1761417090893,22.878302334807813 L 333.208005618304,20.908171360380948 L 332.1834731772542,20.201719945296645 L 331.0461482144892,19.950340705923736 L 329.6550400350243,19.278975527733564 L 328.2545325551182,17.440178791992366 L 326.8070280235261,12.921396466903389 L 325.49111488834023,11.179460841231048 L 323.8368241004646,10.645515167154372 L 320.048874175176,10.575596418231726 L 318.3099889513105,9.647644174285233 L 316.5147074665874,9.755687644705176 L 314.90741354599595,10.372200204059482 L 313.4505097158253,11.487767635844648 L 312.1157977953553,13.067635329440236 L 311.8526151869446,13.957843700423837 L 311.78681953437626,16.050236999057233 L 311.3826462291181,16.64816767256707 L 310.55550074391067,16.495500060729682 L 308.15865899808705,14.008715791627765 L 295.6198866907507,8.710271084681153 L 292.47109450399876,8.128839139826596 L 289.4444943200797,8.481505807489157 L 286.4742903970182,9.54595752991736 L 281.6148110702634,12.066273276694119 L 280.477486198768,12.314217419363558 L 279.499950716272,11.850123198702931 L 276.41695427149534,9.164644662290812 L 275.77779644168913,9.005769650451839 L 272.14023651368916,9.0470768250525 L 270.30735746212304,8.627660672180355 L 260.2406219448894,2.4724815860390663 L 258.9247088097036,0.8693807264789939 L 257.5465912409127,0.0 L 255.98270306177437,0.07588912080973387 L 252.79631339758635,0.9614309789612889 L 248.2846111152321,0.8693807264789939 L 247.28615984134376,1.3935964573174715 L 246.35773841664195,4.796773160807788 L 242.8141723163426,10.187876852229238 L 242.917565446347,13.153472414240241 L 244.85383762605488,15.207487671636045 L 250.24908147193491,16.86445175483823 L 252.13835687562823,18.655389825813472 L 252.54253008961678,20.567666397430003 L 252.0913599152118,24.479602919891477 L 252.27934748120606,26.36784515157342 L 253.08769409172237,27.740533450618386 L 256.72525401972234,31.40435453131795 L 261.2557549942285,38.93817698396742 L 262.16749482415617,41.777625078335404 L 261.31215125508606,43.861616453155875 L 261.4813401270658,44.215919168666005 L 262.27088795416057,44.76176877785474 L 262.8818476982415,47.600172276608646 L 262.8066526539624,47.96742119267583 L 263.69959370046854,48.634901352226734 L 265.7486584931612,49.75601480528712 L 266.26562422700226,50.8421496283263 L 265.5042744856328,53.57733304146677 L 263.16382900066674,55.12748913560063 L 260.45680768601596,55.7508360426873 L 258.50173681229353,55.706081258133054 L 254.56339679658413,53.9097112827003 L 253.22868478670716,53.89692721888423 L 251.7059853952378,54.91012889146805 L 248.7827783394605,58.5996948806569 L 247.39167006872594,59.83420877344906 L 245.32380658388138,60.53150891140103 L 236.16881089657545,61.80472481623292 L 232.8696287125349,61.70554711390287 L 231.33752983622253,62.16945374198258 L 230.42579009756446,62.799771616235375 L 230.47278687544167,63.15494817867875 L 230.9051583558321,63.52294124569744 L 231.19653914123774,64.14056926500052 L 231.50671861879528,66.05457157641649 L 232.73803740739822,70.21389128360897 L 233.12341192923486,72.29279563482851 L 233.13281132094562,75.54842245299369 L 232.26806836016476,76.48755603469908 L 230.4351893980056,76.57730861194432 L 227.5213817358017,77.26651521958411 L 223.84622433036566,79.94699675962329 L 222.81229258701205,80.18751641828567 L 220.6880328413099,80.17468849476427 L 219.6822991836816,80.45690754055977 L 217.12566795758903,83.47858470864594 L 216.60870213247836,87.40662369783968 L 216.47711073607206,91.2628131415695 L 215.0672037731856,94.03816137090325 L 213.5445043798536,94.2887632669881 L 212.30378619767725,93.3795674489811 L 211.0254706311971,92.69854458700866 L 209.43697540275753,93.63336034025997 L 208.65682696923614,95.27518636640161 L 207.2657186985016,101.80099736899137 L 205.85581182688475,104.69921731762588 L 204.40830738656223,105.83500212151557 L 198.33630823530257,106.16965648066252 L 196.45643231458962,106.88728225883096 L 181.30463242903352,115.77792707644403 L 180.71247146837413,116.79291234631091 L 181.07904729805887,116.89602954220027 L 181.35162929818034,118.52030957862735 L 181.4362237341702,120.97027601581067 L 182.47955486923456,121.93436066433787 L 183.68267539143562,121.62480845116079 L 182.80853313021362,123.38555438164622 L 182.20697286725044,124.22092253901064 L 179.565747205168,126.6275536660105 L 177.29109737090766,127.33420258387923 L 175.0258468389511,127.0566979739815 L 172.82639204896986,126.05970060359687 L 165.70166227966547,120.6672111460939 L 163.6901951469481,119.87414083909243 L 160.72939052432775,119.74519422557205 L 159.97744017280638,119.20686526130885 L 159.3852793034166,117.58566171117127 L 159.62026373669505,116.19679360929877 L 160.7105918303132,113.84177485574037 L 161.4813409652561,111.14937591645867 L 161.97950800694525,109.9516286039725 L 162.5246720071882,109.14679646771401 L 163.33301870897412,108.89892540127039 L 165.23169332183897,108.98262129817158 L 165.8990493286401,108.21651658415794 L 165.51367480680346,105.17860726546496 L 163.59620131738484,101.05169233027846 L 161.1805607881397,97.30305554810911 L 159.28188608400524,95.43264033459127 L 158.1821586880833,95.4101466583088 L 157.13882755488157,95.71220939233899 L 156.18949024751782,95.73149035591632 L 155.37174415402114,94.87353290989995 L 154.00883415155113,92.14606110751629 L 153.28508188575506,91.46193658560514 L 151.527397967875,90.84531324915588 L 149.92010404914618,90.84531324915588 L 148.36920638941228,90.37003341782838 L 146.82770812138915,88.33758218307048 L 146.0569589883089,84.86151217203587 L 147.48566473461688,83.30533526744694 L 149.50653135217726,82.02533625252545 L 150.4088717903942,79.37940028496087 L 148.35980699770153,76.6061578867957 L 143.9702968094498,74.76002361532301 L 136.45079312846065,73.12259279470891 L 137.34373417310417,77.92692960705608 L 137.20274347811937,81.00533997733146 L 135.69884277693927,82.99092972837389 L 130.10621197521687,85.8370916787535 L 125.34072647616267,89.28791860025376 L 122.73709838092327,90.42783615645021 L 117.85882036201656,90.92238853964955 L 115.67816426418722,91.64821791648865 L 106.8521469309926,100.44072546903044 L 101.38170794956386,104.32602170202881 L 100.47936760261655,105.24295716546476 L 99.27624698728323,107.73049858305603 L 98.59949159063399,108.72831753268838 L 97.46216671913862,109.12104333750904 L 96.59742375835776,108.64784334693104 L 94.47316401265562,106.45927318558097 L 93.4204334858805,105.7963891690597 L 90.33743694983423,105.5454092444852 L 87.32023615762591,105.7449053702876 L 85.1959763225168,106.55581444874406 L 83.32549979351461,108.08454832900316 L 81.65241031162441,110.29934227839112 L 78.99238586612046,115.17222261335701 L 78.25923420861363,115.24310034979135 L 77.51668325066566,114.49891613982618 L 76.36055959574878,114.06403690204024 L 74.39608923904598,114.28630530834198 L 70.36375539749861,115.50084356311709 L 68.49327886849642,116.49323608912528 L 66.92358251661062,117.94016982242465 L 64.11316798254848,121.6473794747144 L 60.70119318552315,124.53380604553968 L 59.78005396388471,125.94355418719351 L 58.219757003709674,129.46099923364818 L 57.12002960778773,131.10733533650637 L 51.752983847633004,136.74631840270013 L 47.95563453063369,142.4800245454535 L 46.44233443774283,143.58589352387935 L 33.95995839126408,149.2373965876177 L 31.581915337592363,151.28293969202787 L 30.096813330426812,154.58545657247305 L 30.031017677858472,158.18748932983726 L 31.863896729424596,161.09433535579592 L 33.875363955274224,161.09433535579592 L 34.96569195762277,163.22089670598507 L 35.82103552855551,166.02913302648813 L 37.080552311614156,168.10193024389446 L 38.07688666880131,168.3939192602411 L 40.39853337034583,168.014335738495 L 41.4606631975621,168.05975509621203 L 42.53219250775874,168.66969691216946 L 44.63765347003937,170.34729105699807 L 45.61518895253539,170.63936672918499 L 47.147287828847766,169.7274788962677 L 48.69818548858166,167.7191174440086 L 49.98590053804219,165.31886852998286 L 50.737850887700915,163.20792804006487 L 51.45220376178622,162.09270743094385 L 52.23235228843987,163.15929595939815 L 53.369677159935236,165.9058860205114 L 54.469404553994536,165.99669954832643 L 57.90957743488252,164.61191348545253 L 58.62393030896783,165.0659136949107 L 58.82131735607982,165.58804770279676 L 58.56753404811025,166.1621124856174 L 57.90957743488252,166.78163216728717 L 57.467806654050946,168.10841883532703 L 57.35501404106617,169.85078823938966 L 57.52420291304588,171.66172070614994 L 57.90957743488252,173.1614237157628 L 60.240623619407415,175.45700022485107 L 60.09023353271186,178.7830906305462 L 57.90957743488252,185.77460808679461 L 56.08609786629677,189.91862195637077 L 46.7901114821434,200.00844892393798 L 41.92123285494745,207.8969851648435 L 39.14841588772833,211.49847436789423 L 34.95629256591201,214.58264331240207 L 35.990224400535226,215.60118696745485 L 36.18761126510799,216.49579126853496 L 35.75523978471756,218.0828332360834 L 35.745840484276414,218.98426591418684 L 36.244007617235184,220.1863446654752 L 37.024156142026186,220.87893400900066 L 38.90403197146952,221.49970506690443 L 40.22934449836612,221.578122029081 L 41.432465113699436,221.13377059437335 L 43.735313123092055,219.500352172181 L 46.0851580016315,217.2925357883796 L 47.2600804399699,216.55456450860947 L 48.575993575155735,216.62639926094562 L 49.92950427904725,217.03129876218736 L 54.76078533940017,217.37743983976543 L 59.93984344415367,216.85496884398162 L 62.16749640926719,217.0508913155645 L 64.31995433010161,217.83463172521442 L 68.06090738810599,220.63717386685312 L 69.61180504783988,222.36887126415968 L 70.38255418092012,224.44743592385203 L 69.7057988755405,226.82738140318543 L 68.56847391277552,227.8475893586874 L 67.75072791054845,227.55982444621623 L 66.86718616448343,226.44810872338712 L 66.02124198712409,227.12819754518569 L 64.53614007122815,228.94643033109605 L 61.575335539877415,230.6865915004164 L 59.40407883375883,233.88011935912073 L 57.99417187087238,235.20242929738015 L 57.42080978490412,236.00771246198565 L 57.223422737792134,238.27344586420804 L 56.452673602849245,239.27556409686804 L 55.9075096026063,239.26246362831444 L 54.88297725096345,238.21450189780444 L 54.347212640568614,238.0573202157393 L 48.76398113928735,242.35480650607497 L 47.05329409241676,244.14397020917386 L 46.479931915178895,245.76966209057719 L 46.29194434918463,248.34658414777368 L 45.16401877999306,251.0752869360149 L 43.59432242624462,253.37840579263866 L 42.05282416008413,254.67791444901377 L 41.009493025019765,254.88139344751835 L 38.07688666880131,254.16595985274762 L 36.78917161747813,254.23815649468452 L 35.990224400535226,254.48756828904152 L 34.110348388552666,255.44591237977147 L 30.209605941548944,256.2993361540139 L 28.37672688998282,257.13972555752844 L 26.731835493817925,259.14259762782604 L 24.71096887625754,263.51138089969754 L 24.006015395745635,266.0484208576381 L 23.846226004883647,268.4745335550979 L 24.626374440267682,271.1316718412563 L 25.885891314595938,272.7303577521816 L 26.95742053538561,274.59921597503126 L 27.13600879907608,278.0881293658167 L 25.67910487577319,283.739690319635 L 25.914089491590858,285.7497305041179 L 29.128677239641547,286.8175794845447 L 29.843030113726854,287.42408059723675 L 30.43519107438624,288.29436415061355 L 30.952156899496913,289.3098240457475 L 31.130745071917772,290.2133043324575 L 31.036751244217157,292.2580817909911 L 31.224738901481032,293.115736508742 L 31.675909074023366,293.69635924324393 L 33.07641664519906,294.6927606565878 L 37.35313440300524,302.00819941144437 L 38.65964814648032,305.84045985061675 L 39.345802845433354,307.02357503958046 L 40.313938934355974,308.06804587878287 L 42.14681798778474,309.6151910247281 L 43.02096024900675,310.9377935649827 L 43.96089816465974,313.30584200657904 L 47.17548609524965,328.7696939185262 L 47.55146122537553,329.36637893598527 L 48.03082957305014,329.4923519054428 L 48.35040844231844,329.84376162849367 L 48.26581400632858,331.143459812738 L 48.00263139791787,332.211240186356 L 47.62665626779199,332.94086825754493 L 46.216749304905534,334.46668734867126 L 45.953566605225205,334.20793940033764 L 45.03242747485638,334.1084232646972 L 44.13008703663945,334.4268794404343 L 42.306607376784086,336.17863383796066 L 41.49826076626778,336.17863383796066 L 40.74631041660905,335.800378896296 L 39.90976562909782,335.667662428692 L 35.87743178755045,336.53699854854494 L 34.975091349333525,336.3578140186146 L 33.367797430604696,335.667662428692 L 32.45605760067701,335.667662428692 L 32.004887426272035,336.28481414634734 L 31.66650977358222,337.3599757021293 L 31.09314759634435,338.1299407100305 L 29.946423241868615,337.8577888114378 L 21.787761820480227,331.8928795559332 L 20.321458598598838,331.36230900418013 L 18.44158267788589,331.0904064895585 L 15.537174405530095,330.18192637432367 L 13.582103440538049,333.9292976781726 L 13.318920832127333,336.5104522611946 L 15.772158930078149,337.89097739197314 L 17.00347762927413,337.4993599569425 L 18.836356591433287,335.4884991310537 L 20.161669118329883,335.3226109612733 L 21.251997211948037,335.98618588317186 L 22.08854199759662,337.0745779881254 L 23.517247654497623,339.50412962026894 L 25.425321659073234,340.4934386778623 L 26.0738788805902,341.4231115989387 L 25.70730314217508,343.3824491929263 L 24.88015765696764,344.29919946938753 L 23.019080521538854,343.5883758608252 L 22.032145647332072,344.4985079597682 L 21.844158172607422,345.8074351949617 L 22.77469669468701,350.13452873844653 L 22.671303475275636,351.48435749672353 L 21.919353125616908,355.2824936695397 L 21.580975472927094,358.3769951267168 L 21.29899408109486,359.62181754782796 L 20.60343999043107,361.2264180695638 L 18.30059198103845,363.97036362811923 L 18.17840006761253,365.1161974221468 L 19.560108855366707,366.35549763962626 L 24.654572615399957,365.8424286721274 L 26.61904288083315,366.24888294003904 L 26.985618710517883,368.3281482718885 L 25.810696272179484,370.7680368293077 L 25.180937834084034,372.66851130500436 L 27.18300566636026,373.14870898332447 L 28.263934368267655,372.5618049586192 L 29.97462141700089,370.0879864823073 L 30.952156899496913,369.0880267433822 L 32.700441516935825,368.4214625591412 L 34.646112997084856,368.3014873927459 L 38.45286179892719,368.8013966679573 L 38.90403197146952,369.12802257202566 L 39.51499171741307,370.2746606906876 L 40.17294823937118,370.5680154785514 L 40.59592032805085,370.33466414082795 L 41.32907189428806,369.2080147527158 L 41.77084276638925,368.8947169650346 L 49.62872410193086,369.2546772705391 L 50.96343602053821,370.58801733050495 L 51.189021062105894,373.61559805553406 L 50.23028436303139,376.2173803122714 L 48.48199974745512,377.0314604397863 L 40.44952971301973,377.8990763006732 L 37.73548235744238,378.75962790008634 L 32.030725441873074,381.59530015010387 L 28.511466670781374,383.0489143775776 L 23.569972664117813,385.9643958406523 L 22.849891738966107,389.89523667562753 L 21.64279000274837,391.2023794874549 L 20.209756741300225,391.7459438275546 L 18.91320681013167,392.00083105731755 L 16.8485040217638,391.9673919817433 L 15.386357361450791,393.03963286522776 L 14.782512240111828,393.8305978626013 L 13.706233832985163,394.18336042482406 L 12.051326910033822,395.3417952703312 L 11.872713714838028,397.9211365170777 L 13.85756685398519,399.0407865718007 L 16.155496079474688,399.3797681629658 L 16.946623899042606,401.1686565037817 L 15.59282772615552,403.41774105560035 L 14.305929068475962,404.7305175922811 L 13.838626386597753,406.26418096385896 L 13.770091097801924,408.6368541792035 L 14.973211620002985,411.86123532895 L 21.120405906811357,410.94941577967256 L 23.76163156889379,413.54437804594636 L 22.746498519554734,415.41573669575155 L 21.580975472927094,416.0798825249076 L 20.265062337741256,416.3683686358854 L 18.73296346142888,417.086279056035 L 17.821223631501198,417.8780752494931 L 16.5711061488837,420.1600024299696 L 15.743960754945874,420.7843007259071 L 14.935614144429564,420.53591752424836 L 12.566970482468605,419.139758461155 L 11.655230652540922,418.0391291351989 L 10.480308214202523,417.11311836447567 L 8.797819340601563,417.086279056035 L 7.914277503266931,417.9451806573197 L 6.100197326391935,420.89171243738383 L 5.329448193311691,421.5227872636169 L 5.6396277621388435,422.6373720532283 L 5.752420281991363,425.0752804502845 L 6.128395412117243,427.52072337362915 L 7.2281228974461555,428.62278444878757 L 8.224457072094083,429.3620651671663 L 10.724692039191723,432.8376890514046 L 11.23225856386125,433.96073041204363 L 10.705893345177174,435.82388154417276 L 9.380580818280578,436.9944802718237 L 7.829683158546686,437.8893750337884 L 6.579565675929189,438.885327167809 L 5.818215934559703,440.56125691346824 L 5.442240804433823,444.5136713217944 L 5.019268624484539,446.487315678969 L 2.3780430536717176,449.75544721167535 L 1.7294858321547508,450.87436175346375 L 0.33837765268981457,452.31032957322896 L 0.0,453.1127076027915 L 0.6767553053796291,454.9875157242641 L 0.9399379137903452,458.5496351700276 L 4.9816711489111185,459.07600555568933 L 5.6396277621388435,459.9331261254847 L 5.367045668885112,460.94560362026095 L 4.408309061080217,462.0122325932607 L 2.5378324426710606,463.49767335504293 L 4.079330800101161,465.15227217786014 L 5.6396277621388435,466.1722332686186 L 5.122661843895912,468.1990717612207 L 10.705893345177174,467.7733887312934 L 12.444778570905328,466.97614482138306 L 12.961744487285614,467.2328748945147 L 13.074537007138133,467.65176956076175 L 12.172196477651596,469.32083254586905 L 12.068803349509835,469.807433324866 L 12.444778570905328,470.76045449543744 L 14.606635883450508,472.3017751853913 L 16.909483892843127,471.9704986969009 L 18.51677772216499,472.4167112996802 L 18.62017094157636,476.29856714978814 L 20.04887659661472,478.774843795225 L 22.144938258454204,479.6681349501014 L 24.194002959877253,478.8966497676447 L 25.538114270195365,476.29856714978814 L 27.55898088775575,475.11485408991575 L 35.52965474314988,474.28298867587 L 38.05808779411018,474.76992269139737 L 39.09201962687075,476.10239569377154 L 39.51499171741307,477.69898035191 L 40.1917470227927,479.31621927954257 L 42.01522659137845,480.6901411432773 L 43.669517470523715,481.062430893071 L 47.0344953071326,481.0827379859984 L 48.55719479173422,481.6107469741255 L 49.48773340508342,482.6397978030145 L 50.90703975968063,485.0911531476304 L 52.044364631175995,485.6262277942151 L 53.05009829066694,485.7820164710283 L 53.83024672418833,486.1071513555944 L 55.3623456005007,487.36041259765625 L 57.11063021607697,490.1319067068398 L 59.507472053170204,491.43331666011363 L 59.272487530484796,492.5180041305721 L 58.59573222324252,493.71812908537686 L 58.435942742973566,494.7963774455711 L 59.751855878159404,496.28855854738504 L 61.86671623215079,497.70641628466547 L 64.11316798254848,498.72418903093785 L 65.7956569455564,499.02276289556175 L 67.73192912712693,498.96168994996697 L 73.0143804512918,500.0 L 74.96945141628385,499.8981982283294 L 76.85872663743794,499.2806320209056 L 84.39702910371125,494.4437250038609 L 85.98552423901856,494.11821510549635 L 94.94313296861947,497.8353262040764 L 98.59949159063399,498.6427619596943 L 104.41770752519369,498.099938060157 L 108.22445623390377,495.9426165064797 L 110.80928572826087,496.24785868637264 L 113.10273434594274,497.4078968167305 L 113.9956753924489,497.5164479352534 L 115.48077730834484,497.15687862597406 L 115.96954504959285,496.76340821105987 L 116.90008357167244,495.4678209060803 L 117.59563775360584,495.08800675161183 L 118.26299366727471,495.16939377225935 L 120.54704298265278,496.27499185781926 L 122.18253489769995,495.60347353387624 L 127.12660866044462,491.3655291451141 z" /></g></g></svg>