<svg xmlns="http://www.w3.org/2000/svg" xmlns:xlink="http://www.w3.org/1999/xlink" width="500.0" height="435.6522741394292" viewBox="0.0 0.0 500.0 435.6522741394292" preserveAspectRatio="xMinYMin meet"><g transform="matrix(1,0,0,-1,0,435.6522741394292)"><g><path fill-rule="evenodd" fill="#D2EBD9" stroke="#A6A6A6" stroke-width="0.25" opacity="1" d="M 38.937242383137345,26.166967185912654 L 35.183488512411714,30.370790633605793 L 30.131826831027865,32.867579008830944 L 22.777014357969165,33.6573751141259 L 19.494070280343294,34.95671247600694 L 10.306917050853372,40.96925945932162 L 8.398228663951159,42.93095469780383 L 10.052425431087613,61.757496242556954 L 8.398228663951159,67.48930283580557 L 5.866035459563136,70.06221320864279 L 3.1047998443245888,71.38687186382595 L 0.9161703772842884,72.88984327210346 L 0.0,76.04860756584094 L 0.8907211665064096,79.2837614674063 L 5.16618325561285,83.1047676485905 L 4.30091105401516,86.11059417313663 L 1.806891543790698,90.56833675052621 L 0.8907211665064096,95.45904774364317 L 0.3944621607661247,100.73176471580518 L 2.2395276445895433,107.20155519407126 L 5.700615707784891,110.18169245216995 L 12.31740228459239,112.47408800924313 L 17.458136081695557,113.97687225512345 L 21.720873441547155,116.49847830706858 L 25.220135444775224,120.06435446959222 L 28.07044342160225,124.52164789583185 L 29.928233386948705,128.18932101147948 L 30.76805613003671,130.83817208959954 L 31.060721691697836,132.97761425588396 L 33.59291489608586,135.34626706436393 L 35.679747518152,136.08487600798253 L 42.7673436421901,135.85565289400984 L 53.72321471944451,138.75913706436404 L 62.19779101572931,145.45743637243868 L 68.35649203509092,155.05896506502177 L 72.22476698830724,166.7230849726766 L 73.64992110058665,177.01165860559558 L 73.14093736559153,185.8738718921377 L 66.60049866884947,224.55461219287827 L 66.06606621481478,233.5685632825771 L 67.28762663714588,242.37862721341662 L 71.91937694512308,253.22545735057793 L 87.41792646050453,278.0245127728558 L 92.60955867916346,287.87757347736624 L 95.587112467736,292.23118772523594 L 107.47187865152955,302.08396253411775 L 109.96589791402221,305.31726003831136 L 116.70993030257523,319.21766141278204 L 119.56023827940226,322.88363991645747 L 123.42851323261857,324.51295545202447 L 142.2481805179268,325.27669545504614 L 142.85896085202694,325.4294432758761 L 143.9151015225798,326.3204718163761 L 149.48847166635096,335.1033869191597 L 157.96304771490395,343.937076849048 L 167.78643048927188,351.0141116096347 L 177.4571182411164,354.45076956844423 L 187.3568484019488,353.9161799250287 L 192.52303165569901,354.2980299315823 L 197.10388354212046,355.5454047602543 L 202.18099468015134,358.3965374856198 L 205.98564672656357,361.14583083984326 L 210.10841354727745,363.2841614752542 L 216.08897033333778,364.3533237980155 L 219.0156259443611,363.6914617032744 L 224.25815634056926,360.5094216070429 L 225.9632512833923,359.89846789385774 L 227.9991857279092,361.09491829382023 L 229.47523801587522,365.95706370970584 L 231.70204117707908,368.6044982550666 L 233.97974251396954,370.03003528056433 L 236.11747331172228,370.66643444649526 L 238.33155198954046,370.3355069432873 L 241.02916494570673,368.96088276294176 L 247.95134107396007,358.9056667947734 L 249.0456559304148,353.73798318591435 L 249.6309870518744,343.6061342735193 L 252.0232097171247,338.38739753345726 L 256.2477731369436,334.44149108437705 L 261.0576679240912,333.0667814821354 L 266.2365756612271,333.6268487361667 L 271.64452605322003,335.6379948161193 L 288.3646357432008,344.9044463056489 L 290.90955367684364,345.4390448309714 L 293.14908131957054,350.8104571326403 L 296.35567776300013,354.1198330631596 L 304.9066016934812,358.70201507461024 L 314.959026876837,362.6222979510203 L 317.63119062036276,365.1170100742893 L 318.9036494642496,368.85905874473974 L 320.4051509629935,378.4049975571106 L 322.16114432923496,381.7651331520756 L 324.0952819287777,382.91062986911857 L 328.0144553054124,383.3942835491325 L 329.83407133072615,383.9288475206122 L 333.6387236248702,386.1943757497356 L 344.5945947021246,396.6055213313957 L 347.8139158729464,400.7292059707106 L 350.4606301598251,405.1837754008302 L 350.93144020065665,406.81286766173434 L 351.47859738208354,410.3510395301855 L 352.19117431528866,411.8273935634934 L 353.92171847075224,413.25283581292024 L 358.0444852896035,415.1109973715502 L 359.54598679021,416.35825393736013 L 360.8184456322342,420.1000098065706 L 362.40901924856007,430.28156185065745 L 364.48312738724053,433.79416471437435 L 368.2496054954827,435.1432033329329 L 372.3214741386473,434.53231831028825 L 376.5205883476883,433.31054629877326 L 380.6688043791801,432.7760205163795 L 384.53707957826555,433.7432574754348 L 387.769125232473,435.1941104781581 L 391.11569196917117,435.6522741394292 L 397.5601240545511,433.6469187438197 L 395.6074719838798,431.6051530530967 L 393.7115083243698,428.9070604936278 L 392.9353084862232,426.1325965189899 L 393.74968201853335,423.48539171754965 L 397.3380158934742,421.01635549234925 L 398.15238966979086,417.65641617847723 L 397.63068169914186,416.205528580409 L 396.7017865944654,414.8055465800571 L 396.04010808467865,413.32919881443377 L 396.4472947269678,411.85284794998006 L 398.6104749813676,410.4019481636351 L 400.5700615476817,410.7074011176592 L 402.17335989139974,411.57284989391337 L 403.1913271136582,411.85284794998006 L 406.21977907791734,409.6637700277206 L 407.26319551095366,408.1365023573453 L 408.23026431165636,401.772850673995 L 409.73176581040025,398.1837247341464 L 414.2108210977167,390.7508634592523 L 415.6614241730422,385.7361798173806 L 417.9518502391875,382.75789714229177 L 418.44810924492776,380.7469122717157 L 417.0611290745437,377.46313812895096 L 416.80663720704615,375.63032658281736 L 418.12999447248876,371.6846720792237 L 421.31114170514047,369.2918110123137 L 428.5641575809568,366.2879938468395 L 431.1599736902863,364.4551485760603 L 434.8501044102013,360.94217989064055 L 437.1150812637061,359.56753446161747 L 453.3771058898419,353.5343294213817 L 458.2124496418983,352.8469984237745 L 462.99689521826804,349.944924986572 L 464.3966001179069,343.5043055980932 L 463.93851505219936,337.0890701520839 L 463.1750394515693,334.1869154187152 L 461.8644069135189,332.7612901010143 L 463.3277347199619,329.553619542683 L 467.39960311725736,324.1056269722176 L 470.45350453816354,320.84698818364996 L 471.5478191487491,318.9630787973583 L 473.9400418139994,310.10352110199165 L 476.3068152666092,304.55349082904286 L 480.16236598417163,301.5238616684219 L 486.01567695848644,303.7642616535886 L 487.8098437730223,298.5451329657226 L 487.60625032894313,292.2057280719164 L 484.4251033440232,272.77964830151177 L 484.3487554639578,270.1317335861968 L 484.90863762050867,268.8586920298985 L 487.0972668416798,265.49784610711504 L 487.7080471739173,263.23180738658994 L 484.8831884097308,256.459085553186 L 485.7484603635967,253.86200005709543 L 487.7080471739173,243.9827525028959 L 486.3592406976968,239.8069216859294 L 483.85249670408666,236.1148429902678 L 482.46551653183997,232.32088088514865 L 484.3487554639578,227.91576863103546 L 480.35323469899595,224.7837828710326 L 478.85173320025206,223.179585755046 L 477.6301727797836,221.1934287394688 L 485.01043446548283,220.02210084095714 L 485.7484603635967,213.5033466613968 L 482.5036902260035,199.1668155377556 L 487.10999132320285,200.159948451299 L 491.5508731622249,197.94449462968623 L 495.30462678708136,194.17564761146787 L 497.9386165905744,190.61048934140126 L 500.0,183.45460969759733 L 491.525423951447,156.026744467119 L 489.38769290596247,145.17728198651457 L 490.4311090949923,128.31666999773006 L 489.38769290596247,123.29908178382902 L 486.8427752200514,118.688949629548 L 483.6361787766218,116.37112498283386 L 479.50068722851574,114.53723078698386 L 475.69603518024087,112.34673294096137 L 472.26039608195424,111.50618952920195 L 470.4789537489414,110.48734598688316 L 468.23942586034536,109.87603839606163 L 466.2289408724755,110.35999042188632 L 453.3771058898419,116.7022436755069 L 450.73039135709405,117.54277457421995 L 447.54924412444234,117.10977404989535 L 444.724385606125,114.89382207990275 L 441.2123988736421,108.27135100864689 L 438.4511630125344,105.9534555512364 L 433.297704488039,105.6732694437087 L 427.95337700098753,107.20155519407126 L 422.71084660477936,107.86381007434102 L 417.9518502391875,105.0619531556149 L 409.85901186801493,105.36761131507228 L 401.6643764041364,109.21378744897083 L 388.290833203122,120.19170667504659 L 386.87840382009745,122.12745171619463 L 385.6059449762106,125.5913900002779 L 384.4352827332914,126.9412978058972 L 383.5954599902034,126.6356588617491 L 375.8080114144832,128.4949588458112 L 374.6119002047926,129.10623322270112 L 370.6545528899878,127.9346226536727 L 368.2496054954827,125.69326990045374 L 366.09915021434426,122.86608847018215 L 362.9307272192091,119.9370024636155 L 359.3932917676866,118.12859787329216 L 354.76154121384025,116.62583183051902 L 350.05344327166677,115.65794509957777 L 346.08337171934545,115.47964989711181 L 343.02947005070746,116.16735941791558 L 335.34381856769323,119.91153200753615 L 332.48078586161137,120.19170667504659 L 331.60278942622244,118.53612631204305 L 331.4755436144769,116.21830063566449 L 330.96655988134444,114.48628907298553 L 319.8452690523118,100.52798974353937 L 315.6461545974016,97.62418330120272 L 310.14913233555853,97.44587832991965 L 304.49941480346024,99.63647293255781 L 299.35868076235056,103.04969614147558 L 295.31226157583296,106.59024167477037 L 287.6775080226362,115.63247408039751 L 284.67450502328575,117.95030370625318 L 281.86237098649144,118.94365476182429 L 279.4955972880125,119.02006609231466 L 277.4214891474694,118.81630209600553 L 275.51280100643635,119.09647740586661 L 269.0614344254136,124.6489984652435 L 267.08912313356996,125.76967999091721 L 264.56965441070497,125.69326990045374 L 263.85707747749984,124.3178873808065 L 263.88252669014037,122.02557077171514 L 262.27922834455967,109.41755716566695 L 264.04794644005597,90.46644627954811 L 258.71634343639016,71.845406126522 L 257.57113064825535,43.82263031063485 L 256.2477731369436,38.39610800513765 L 253.90644889324903,33.02044287757599 L 250.90344589576125,27.924936979747145 L 247.62050181813538,23.46629771433072 L 242.58156462199986,18.345149544649757 L 237.94981431216002,15.618929601390846 L 232.97450002096593,14.67621241309098 L 226.85397269576788,14.854564333509188 L 221.356950186193,16.510686721565435 L 218.5320914220065,16.485207956196973 L 216.6997506674379,14.19211294935667 L 215.88537688925862,9.019843789283186 L 214.81651148945093,6.726689935574541 L 212.42428882420063,5.274349601415452 L 206.9145418331027,4.586396532336948 L 202.2700665500015,5.299829349678475 L 189.39278260059655,9.55491035952582 L 187.6367892343551,9.656827583879931 L 180.30742597207427,7.0069651392987 L 178.4750852175057,5.885862199094845 L 176.51549865305424,5.121471557475161 L 173.97058071941137,5.2233903446176555 L 168.5753550566733,4.509957337984815 L 163.96905371174216,1.5797671486798208 L 159.28640522807837,0.0 L 153.56034006364644,3.2359651463339105 L 139.8941313009709,5.78394364612177 L 135.47869916632771,5.274349601415452 L 124.85366734303534,0.6624841463053599 L 118.79676292277873,0.10192085150629282 L 116.62085818499327,4.790234695654362 L 116.32819262519479,7.873269134259317 L 114.03776655904949,12.994600559875835 L 113.47788464836776,15.848238841601415 L 114.31770763732493,18.421585103002144 L 117.72789752483368,22.600040153745795 L 118.26232997886837,25.402629519317998 L 116.76082847826183,28.459969140822068 L 111.4165012370795,33.47903401692747 L 110.51305558905005,37.04583145127981 L 110.8311701156199,39.95019220132963 L 110.65302588231862,41.096642811084166 L 107.65002288296819,43.338578116265126 L 103.14551863260567,45.911688294203486 L 97.94116143882275,47.16002091046539 L 87.54517227038741,48.459300308226375 L 82.04814976267517,50.14071313585737 L 67.09675792045891,56.66246928367764 L 63.08851242810488,57.24840163986664 L 48.76062490977347,56.30581430904567 L 43.17453053034842,50.8285610137973 L 38.937242383137345,26.166967185912654 z" /></g></g></svg>