<svg xmlns="http://www.w3.org/2000/svg" xmlns:xlink="http://www.w3.org/1999/xlink" width="500.0" height="411.85321470629424" viewBox="0.0 0.0 500.0 411.85321470629424" preserveAspectRatio="xMinYMin meet"><g transform="matrix(1,0,0,-1,0,411.85321470629424)"><g><g><path fill-rule="evenodd" fill="#D2EBD9" stroke="#A6A6A6" stroke-width="0.25" opacity="1" d="M 385.36105857230723,212.57334447372705 L 387.0970253571868,209.693202318158 L 388.22672973386943,208.40878408495337 L 389.42021764814854,207.90028320858255 L 390.84430751390755,207.69528664182872 L 392.1874414011836,207.70337837841362 L 393.4214073177427,208.1235013208352 L 395.03089521452785,209.41761488746852 L 395.0869839247316,209.20381060102955 L 396.30200021900237,209.38229788886383 L 396.9278591815382,208.81074801879004 L 397.1944287158549,209.0253330967389 L 397.1924970578402,208.58767951419577 L 396.81195936352015,208.18194627016783 L 397.03216900117695,207.59998753434047 L 396.96069744601846,206.70495006162673 L 397.0997772142291,206.58074710983783 L 397.841535968706,206.9692951058969 L 398.4925065394491,208.11928515788168 L 399.1299554761499,208.66628285776824 L 399.31732682324946,208.96053115697578 L 399.3038051892072,209.56079491134733 L 400.4570082463324,209.2569307880476 L 400.72937280498445,208.59086609166116 L 401.38807003200054,208.5388189116493 L 401.74929109402,208.3136447351426 L 401.74929109402,208.11928515788168 L 400.4531449303031,207.56176028540358 L 400.27543189935386,207.14553697919473 L 399.64184627868235,206.5467778723687 L 399.3038051892072,205.81864736787975 L 397.9014175478369,204.7755582286045 L 397.1944287158549,203.68189053051174 L 397.0341006591916,202.12740740505978 L 396.53379983082414,201.9758156305179 L 396.5395948290825,201.12257909495384 L 396.6207246761769,200.99752690223977 L 398.11003718711436,200.8629421433434 L 399.72104449011385,201.53168114135042 L 401.2914868462831,201.2031236817129 L 402.40991997905076,200.093688740395 L 403.4356332439929,199.77904570754617 L 403.58261370286345,198.7781868954189 L 403.52618981152773,196.43943062610924 L 403.6537568643689,195.7634541420266 L 404.0094726998359,195.1521025141701 L 425.1659777406603,167.70582659728825 L 426.9138916581869,165.64938440499827 L 427.4977562520653,165.45692567899823 L 487.36595535092056,157.4722166415304 L 487.7241244018078,157.53600125107914 L 489.3015400506556,159.5976615184918 L 499.74241267703474,142.1491847289726 L 499.9877339210361,141.58953146496788 L 500.0,141.00218679429963 L 484.3534103538841,90.57154395291582 L 413.1501426566392,65.39667867403477 L 345.50648635812104,55.77949280338362 L 343.29982168599963,54.96869306592271 L 322.5566829442978,44.19434891361743 L 308.95729915983975,27.100784161593765 L 308.5561989173293,26.330611784476787 L 305.8466256521642,18.837541941087693 L 305.1253811661154,17.86727856984362 L 298.80590561404824,14.283171868883073 L 298.0331436675042,14.17417820636183 L 294.5728873759508,14.324205404613167 L 294.27236883714795,14.51655501499772 L 288.97588292881846,21.915243826340884 L 288.0951796323061,22.427752404473722 L 278.8980857618153,21.152367236558348 L 257.7195018026978,23.33859214419499 L 256.63518188148737,23.698353173676878 L 252.77627851441503,25.95907283714041 L 251.42946483939886,26.23290309123695 L 239.11188459582627,26.317755265627056 L 237.1063833553344,25.63769687479362 L 236.43788292445242,25.59784784866497 L 234.80894979275763,25.93593300273642 L 233.36032779328525,25.992497236002237 L 231.06289423257113,25.749533141963184 L 228.78876620717347,25.293207063805312 L 227.3045725915581,25.646695067174733 L 226.95498980768025,25.394751716870815 L 226.24723799712956,24.331858488731086 L 225.79339367337525,24.119823581539094 L 223.8602621667087,24.726398142054677 L 223.3475407604128,24.452658515889198 L 222.31228503584862,23.169000365305692 L 221.75295260176063,23.08549153804779 L 221.25249722599983,23.34244659403339 L 221.21937887184322,24.30872692540288 L 221.0783191435039,24.374266643077135 L 220.52143990062177,24.207206453662366 L 218.27920361049473,24.171225066762418 L 217.37396820262074,24.343424314633012 L 216.39268317818642,25.124827870633453 L 214.736764697358,26.990200478583574 L 213.72849432192743,27.59072820097208 L 211.59419943019748,28.449865732342005 L 209.83156619407237,28.511606459505856 L 207.2250278480351,26.995343829505146 L 205.15696968883276,25.20837401272729 L 203.94876250252128,23.6842191638425 L 205.30538903921843,23.234523700084537 L 205.77149941772223,22.876083869021386 L 206.016820685938,22.34297260735184 L 205.9321848489344,21.844601795542985 L 204.22965533845127,21.18832492409274 L 203.7377862315625,20.795374288223684 L 203.48019890859723,19.226474557537585 L 202.84236363880336,17.728686151094735 L 203.25940977409482,16.367364169098437 L 203.25695655867457,15.826025714632124 L 202.61176166683435,13.775411468930542 L 202.70498374663293,13.35488403076306 L 203.49246496334672,11.480919288937002 L 203.76599815301597,11.2553761866875 L 204.64670147374272,11.009341538418084 L 205.05148152820766,10.548061284702271 L 204.98279158212245,9.96640004310757 L 204.37194166332483,9.584643816575408 L 204.03094512410462,9.069706198293716 L 204.44799125753343,7.732667480129749 L 204.30325171723962,7.270426814444363 L 203.8984716385603,7.193604501429945 L 202.3517211265862,7.596935648936778 L 202.04752277582884,7.46760985115543 L 201.80220150761306,6.13486326765269 L 200.8920596446842,4.092299238778651 L 199.34162932261825,3.089254390448332 L 197.81818432547152,2.6824670415371656 L 197.81818432547152,1.5825230390764773 L 197.61456770263612,1.1860933410935104 L 197.0037177838385,0.7590088713914156 L 195.0342611745,0.0 L 195.00528622604907,0.9624478444457054 L 194.8391631692648,1.219200220424682 L 195.16368262656033,2.025793867185712 L 195.00528622604907,2.497124776709825 L 193.85401482880116,3.8015833129175007 L 193.59130858629942,4.361753426492214 L 193.52563203312457,5.921710262540728 L 193.79606490768492,7.431768017821014 L 193.3672356326133,7.536622981540859 L 193.52563203312457,7.721133012324572 L 193.00215125456452,8.371512580197304 L 192.94613301567733,8.725477646570653 L 193.20497591793537,8.90599993057549 L 191.38534895144403,11.002177995629609 L 190.4639455061406,11.538981970399618 L 189.96364467777312,11.427983646281064 L 189.15427770838141,12.560289872810245 L 189.48459213972092,13.653497545514256 L 189.31460576690733,14.052284192759544 L 189.21222760528326,15.695240972097963 L 188.75442338362336,15.958854695782065 L 188.46467385068536,16.50633023167029 L 187.20716097578406,16.542696186807007 L 186.91741146706045,16.80433756718412 L 186.38427234999835,17.89854242000729 L 186.0462312605232,19.45492133591324 L 184.76167507097125,20.118057804647833 L 184.8215566277504,19.689434299711138 L 185.41071398369968,18.591773718595505 L 184.92972978763282,18.286577444989234 L 185.1692560557276,16.66189778363332 L 184.9104131553322,16.203291506972164 L 184.7751967050135,16.719479305669665 L 184.76167507097125,18.42199316667393 L 184.34443577192724,19.897675633896142 L 183.67028522863984,24.307330668903887 L 183.7765267305076,26.07542173564434 L 183.45200727507472,26.85999838169664 L 182.7894467059523,27.017942467704415 L 182.4803805667907,27.64268557354808 L 179.92285818606615,29.851748381741345 L 179.70844354853034,29.92165385140106 L 179.63890367746353,29.786909482907504 L 178.51467554457486,31.801404047291726 L 177.55850215256214,31.829783665481955 L 177.33442919887602,32.354838978964835 L 176.3067842517048,33.43048236751929 L 175.80455176532269,33.26014646841213 L 174.84644671343267,34.53680983185768 L 173.19680614583194,35.99847549526021 L 172.68298365920782,35.78543394804001 L 171.79441848024726,36.40734097547829 L 171.25355272740126,36.324144466314465 L 171.0333430916071,36.97859824728221 L 169.6309554502368,38.21166903618723 L 168.63421713374555,39.49280300550163 L 168.4835473690182,39.91519174631685 L 168.5492239240557,40.7072798484005 L 168.07210306823254,40.85860518878326 L 168.01222151331604,41.449738037306815 L 166.64653545431793,42.87000104878098 L 166.8609500899911,43.33945958549157 L 166.10760136134923,44.600743983872235 L 165.76569693163037,44.82844412745908 L 165.87580174952745,45.216781648341566 L 164.93314998969436,45.387579773552716 L 165.22676283866167,45.72919614845887 L 164.86747343465686,46.16947346739471 L 164.26865778677166,46.06880567735061 L 164.53715900331736,46.54471035953611 L 164.43091750331223,46.93828629190102 L 164.57772392593324,47.27493900246918 L 164.43864415958524,47.444800874218345 L 163.76642530038953,47.449886673595756 L 163.7625619582832,48.26877631153911 L 163.26032947190106,49.3707071673125 L 162.99569159559906,50.735537683125585 L 162.9029717501253,52.22095669293776 L 162.42778252996504,52.510158963967115 L 162.32540437020361,53.117139865644276 L 161.33639271184802,53.8698748559691 L 161.00221494026482,54.70119486330077 L 160.35124434530735,55.16684548743069 L 159.86446517519653,54.81123462598771 L 159.0956631284207,55.2768972562626 L 158.2689111866057,56.92801506211981 L 157.5484007205814,57.93020962784067 L 157.5947606433183,58.759263553190976 L 158.46980416588485,61.345364769455045 L 158.24379955418408,61.70050363847986 L 157.5947606433183,62.043424752075225 L 156.62313393503428,62.285323404707015 L 156.36429103463888,63.219366672914475 L 155.7983136512339,63.91263258084655 L 155.81569862551987,64.44465667614713 L 156.74869206920266,67.19776299037039 L 156.54200406558812,67.57077248487622 L 156.10544813238084,67.86000561993569 L 154.61034064739943,68.35880118096247 L 154.18730637058616,68.6552449427545 L 153.5131558291614,70.11630667280406 L 153.7024588342756,70.97539397049695 L 153.41657264344394,72.15283833863214 L 152.9819483924657,72.39020927157253 L 152.77526038885117,73.14538539666682 L 152.51834917068481,73.41965710185468 L 151.51195251569152,74.13407753175125 L 151.53126914799213,74.77081481646746 L 151.07925989851356,76.04765843506902 L 151.09471321478486,76.3292934531346 L 151.59115072526038,76.96944520017132 L 151.4230959881097,77.172266213689 L 151.4810459073633,77.44270988646895 L 151.24538295529783,78.22033540345728 L 148.6530906520784,79.25125108473003 L 147.44773267395794,80.50386828649789 L 146.87209697440267,80.81554509233683 L 146.87209697440267,80.97241781279445 L 147.12900819256902,80.93653135187924 L 147.67953228391707,80.6279209931381 L 147.82633868604898,81.66047386359423 L 147.76452547125518,82.92306890711188 L 147.5945390742272,83.47089745150879 L 146.5031492561102,85.05837937351316 L 146.0414816904813,85.36732875695452 L 144.347412860021,85.49563698191196 L 144.13299822248518,85.25339450314641 L 144.40729443915188,84.61706428043544 L 143.74473387002945,85.44020734122023 L 143.52645591646433,86.16803915193304 L 143.18648314476013,86.38364230515435 L 142.2206514365971,87.80588730005547 L 141.3320862557739,88.42320653889328 L 141.65274239517748,89.27076363377273 L 141.50979928672314,89.72286775009707 L 139.39849117957056,90.93249864364043 L 139.18021320179105,91.27685338864103 L 138.75524724274874,91.47525638854131 L 138.1641582287848,92.31112507497892 L 136.74438561312854,92.6967327571474 L 136.2634014170617,92.97953559132293 L 135.17973825521767,93.85378121118993 L 134.331737998873,94.82081923307851 L 134.49013439752162,95.18712102947757 L 134.08834841288626,95.46495688194409 L 132.7342523522675,95.75207451125607 L 131.81284888274968,96.89457789203152 L 130.81224722601473,97.74703998211771 L 130.42784621566534,97.93135260231793 L 129.894707120955,97.92105557955801 L 128.83036056905985,97.64304615790024 L 128.6313992217183,97.42888935469091 L 126.52202277258039,98.48125295713544 L 126.69007748737931,97.98077869229019 L 127.56705266982317,97.31460855249316 L 127.4144512694329,97.23945270106196 L 126.99914362840354,97.35064269416034 L 124.34310642816126,99.06934039015323 L 123.12809013389051,99.55862233089283 L 122.76107407361269,100.32717609358951 L 120.43148798681796,102.36364814219996 L 119.021373687312,104.65904882503673 L 118.55391112342477,105.05309516424313 L 118.55391112342477,105.2418802594766 L 118.97887708246708,105.26044978620484 L 119.2029500361532,105.58749433234334 L 118.5365261733532,105.82892665220425 L 117.98600208200514,106.35930533288047 L 117.5803527571261,107.66595745040104 L 116.7864391040057,108.56724823312834 L 116.71496755070984,108.98957507219166 L 117.09743690304458,109.58648779196665 L 115.94616550393403,109.9180312808603 L 116.1142202205956,109.5771925910376 L 116.42908135987818,109.39748982712626 L 115.96355047821999,109.54724154621363 L 115.13100353628397,110.22894388437271 L 115.29712659306824,110.62769265566021 L 114.97840213775635,110.89010435389355 L 115.13486687652767,111.30545412795618 L 115.42075304500759,110.96655839821324 L 115.94616550393403,110.80125428084284 L 115.73754586651921,111.64024645695463 L 115.29712659306824,111.66711375955492 L 114.848980685696,112.1373224449344 L 114.81034742109478,111.66711375955492 L 113.62430607527494,112.5373036977835 L 113.13559522293508,113.1678502112627 L 113.17616014555097,113.74887218885124 L 113.62237441726029,113.4035566248931 L 113.46011467836797,113.99185250280425 L 112.86709400452673,114.29585818108171 L 112.13885690644383,114.09628708288074 L 111.31403662264347,115.5979805146344 L 111.23290675133467,116.63565408950672 L 110.83112074434757,117.08888478111476 L 110.73067426495254,117.6280722701922 L 109.22397678159177,118.79778342973441 L 108.8009425047785,120.29098555725068 L 109.1254619602114,120.90003396011889 L 108.07077372446656,122.65522518008947 L 107.74432261101902,122.85421245498583 L 107.00256385467947,124.04628457175568 L 108.88207235187292,125.69819147186354 L 109.14671025238931,126.31745605170727 L 109.17761685885489,127.1308509982191 L 108.9960405100137,127.86762485047802 L 108.63868276588619,128.2557869902812 L 108.89366235025227,128.62115313252434 L 108.85889240168035,128.9616403086111 L 108.47449136711657,129.80676492583007 L 108.17315188422799,129.2627068310976 L 107.92976229824126,129.19418609002605 L 107.48934302665293,129.99782717367634 L 107.66512439958751,130.15566864795983 L 107.27686004713178,130.71647567953914 L 107.17834522761405,132.9605554700829 L 106.92336564324796,133.65275563346222 L 106.96972556598485,134.03113028081134 L 107.54342960566282,134.3430067789741 L 107.67478271573782,135.0895387325436 L 107.48934302665293,135.40150512196124 L 107.18414020352066,134.64659201027825 L 106.67031774111092,134.51351045444608 L 106.51771631836891,135.05418422818184 L 106.04445877857506,135.57621790422127 L 105.86867740564048,136.44886643113568 L 105.54415795020759,136.6236291541718 L 104.57706126384437,138.01127663301304 L 103.88975718989968,139.5420945836231 L 103.45431643538177,141.6960122990422 L 103.48757625743747,142.1853699288331 L 104.11634239181876,142.422407256905 L 104.75886583700776,141.597853356041 L 105.22123086638749,141.59186963317916 L 105.38189823552966,142.93004763359204 L 105.86867740564048,143.38963509211317 L 106.14104196429253,144.8907356131822 L 106.19319686107337,145.4100114237517 L 106.04445877857506,145.4100114237517 L 105.70641769096255,144.53416776750237 L 105.54415795020759,144.9105459707789 L 105.86867740564048,145.83862666552886 L 105.86867740564048,146.89004498068243 L 106.04445877857506,147.5817703679204 L 106.82485079951584,148.48862269055098 L 107.06824040971696,149.57631287071854 L 108.47449136711657,151.55420864513144 L 108.47449136711657,151.87804453494027 L 108.11520198732615,152.33982267882675 L 107.81386248208582,152.27295516477898 L 107.33630637452006,151.02983446791768 L 106.75372786074877,150.91803880548105 L 106.72928637452424,151.65378004452214 L 107.03416427224874,152.72692896565422 L 106.84780067205429,154.1315951696597 L 107.02102151885629,155.56591067276895 L 106.84229558892548,156.26973966136575 L 106.00196219794452,157.5175125449896 L 104.7463809568435,160.1301419311203 L 104.80819419398904,160.44219586858526 L 105.43405313231051,161.02344394056126 L 105.39541986770928,161.22454672446474 L 103.79213922284544,162.8830363424495 L 103.58545124158263,162.75833423482254 L 104.24801178649068,161.9421166004613 L 104.57059958390892,160.8883344545029 L 104.39481821097434,160.7123857284896 L 103.4210560452193,162.4662123983726 L 102.77415261603892,163.19114287337288 L 101.54941007122397,165.42117523169145 L 101.5535609293729,165.7705337991938 L 102.24739701487124,165.38955725589767 L 103.017542200163,163.67536506103352 L 103.92349233105779,163.41752414777875 L 104.24801178649068,163.89339173119515 L 103.5989728756249,164.96695195976645 L 102.98470391146839,165.3884983919561 L 102.56746461242437,166.3345416430384 L 101.15348699502647,166.88529477035627 L 100.67636611685157,166.78772645676509 L 100.3286667112261,167.19900072366 L 99.8418875169009,168.29457046743482 L 100.44263484701514,169.27709916140884 L 100.29969176277518,171.0927803576924 L 100.02219879254699,171.22067701956257 L 99.80761137790978,170.82660207431763 L 97.76850397884846,174.27866501547396 L 97.32121694460511,176.22206836519763 L 96.69621187262237,177.58155906759202 L 96.2779685035348,180.3540786942467 L 95.70426446199417,181.06614708295092 L 95.5957508534193,181.91705103218555 L 95.06681552529335,181.6161006083712 L 94.63991791009903,181.76782756019384 L 94.66309788264334,181.33373789861798 L 95.48405482620001,180.8849557992071 L 95.48405482620001,180.70588088035583 L 94.69014117307961,180.78066984610632 L 94.16894304193556,181.2696208548732 L 94.14896580576897,182.52878861874342 L 93.09570461697876,183.8957621161826 L 92.09398552775383,187.5089328493923 L 91.72310614958405,187.9775942657143 L 90.83415589667857,188.28935879236087 L 90.02183273993433,189.75199480587617 L 88.92486138269305,190.16570385778323 L 88.07520430907607,191.24098391924053 L 87.49528620578349,191.68295370182022 L 86.62140632979572,191.88439236627892 L 85.74949162825942,192.4910269412212 L 83.22819940373302,194.94577372539788 L 82.84237238764763,195.09180874796584 L 82.43524844571948,194.86782942526042 L 79.81457576341927,196.7301239487715 L 79.95231670886278,197.04079794557765 L 80.36288169957697,197.33021004172042 L 80.9480148293078,197.4235701034777 L 80.71510303206742,197.65889397263527 L 79.91449073888361,197.31370602920651 L 79.74049533158541,197.64592028595507 L 80.11433652229607,198.50036161066964 L 79.86137100867927,198.59934424515814 L 79.41213548742235,198.34903990803286 L 79.27471393719316,198.09677721280605 L 79.48751132749021,197.72545614093542 L 79.54361895658076,197.16037183720618 L 79.40659358911216,197.005488157738 L 78.8814886789769,197.20358747197315 L 78.16047718934715,197.01315654162318 L 75.83324213325977,198.87373869586736 L 75.62133751437068,199.40001809922978 L 73.66142348200083,200.69207181595266 L 72.82757451198995,200.70399083429947 L 72.4721484258771,200.43696979107335 L 72.52928654104471,199.56736322538927 L 71.51767148822546,199.53148081433028 L 71.26603364013135,199.92134283902124 L 70.56658005528152,200.25395468994975 L 70.02097632922232,200.08003951981664 L 68.64287413097918,201.9514873046428 L 67.80598174035549,202.6737019843422 L 67.53431875631213,203.55088881915435 L 67.76920054666698,204.0765484762378 L 68.41246696002781,203.70479301782325 L 68.60837926343083,204.11341623496264 L 68.45316381007433,204.60100438818336 L 63.037904262542725,212.33938400587067 L 63.00313431583345,213.95618237229064 L 62.829284600913525,214.0412993337959 L 62.52215011790395,213.73276095138863 L 62.27296553365886,213.69658939586952 L 61.85572623461485,213.95192656712607 L 61.14101076871157,215.302356377244 L 62.80996796861291,215.18740426003933 L 63.4087836407125,215.39176641451195 L 63.70432814769447,215.83140167593956 L 63.739098094403744,217.15386137645692 L 64.25871555507183,218.26165197603405 L 63.582633355632424,220.5785919846967 L 63.73330309614539,222.1227252422832 L 63.36242371797562,223.79566490883008 L 62.63804993592203,224.8182106479071 L 61.886632865294814,225.46948041720316 L 61.66449156962335,225.96068983711302 L 60.99227268435061,226.53742359019816 L 60.113365821540356,227.65060152951628 L 59.827479653060436,228.23619120148942 L 59.66521991416812,229.31254720548168 L 59.033565977588296,230.21068069478497 L 59.45080527663231,230.51118455128744 L 59.10117419064045,231.105859877076 L 58.04648597724736,232.1842614025809 L 57.48244025185704,233.6376902172342 L 56.91066787019372,234.17727750679478 L 56.90100955404341,234.65377567429096 L 56.101300900802016,236.16941228788346 L 54.80322307907045,236.8723158533685 L 53.27914062142372,239.11494509968907 L 52.76338650099933,239.15462364861742 L 52.71702657826245,238.85972755914554 L 52.96041616424918,238.29360493272543 L 52.68225663155317,238.13064922392368 L 51.08477098494768,239.0077083176002 L 50.547768549993634,239.69515990652144 L 50.3700555190444,240.10705976607278 L 50.34687554463744,240.82694219611585 L 49.91418292932212,241.0275947600603 L 49.62443342246115,241.6908056610264 L 49.59352681413293,242.30907100159675 L 49.81953142769635,242.89846935821697 L 50.63083007745445,244.0153042091988 L 50.71775492280722,244.73823906760663 L 50.39903046749532,246.08895621681586 L 49.83691640011966,246.69519719062373 L 49.08356766961515,247.09082263708115 L 47.46676539070904,247.3682206380181 L 46.614901818335056,247.67790359118953 L 46.046992752701044,248.4328857283108 L 44.54029529169202,252.02749800588936 L 42.9640579354018,254.34792939620093 L 41.21010754816234,258.68648456176743 L 39.3325306866318,262.06518904771656 L 38.20057591982186,263.51759941130877 L 36.19550929032266,265.47686318447813 L 35.82076657190919,266.6279281321913 L 35.10605110600591,267.8887616558932 L 34.6366569083184,269.5421734005213 L 34.20782763324678,269.4230367448181 L 33.88330817781389,269.7208872535266 L 33.32505742833018,270.6319516422227 L 31.785521678626537,272.0126167763956 L 29.88283320888877,274.49486296158284 L 29.12562113814056,276.02492778748274 L 29.14880111068487,276.50689802272245 L 29.434687301516533,277.11815715720877 L 29.318787483498454,277.4384940434247 L 26.75547012872994,280.6883359188214 L 25.341492488980293,281.72238235361874 L 24.1419295091182,283.4716243403964 L 23.42335070297122,284.1866314858198 L 22.258557671681046,286.5559918587096 L 22.015168085694313,288.56861574947834 L 20.603122103959322,290.46918092668056 L 19.99271645769477,292.1079504820518 L 19.502073945477605,292.79559092689306 L 18.48022399842739,293.45063724089414 L 18.134456250816584,294.3166159992106 L 18.0301464330405,295.0823425455019 L 16.573672210797668,296.8439510031603 L 16.198929492384195,297.51521689491346 L 14.44884242117405,298.86259049735963 L 14.44884242117405,298.67772702965885 L 14.28658270649612,298.67772702965885 L 14.02387648820877,299.035432133358 L 15.2755943890661,299.7969332630746 L 15.526710631325841,299.67547354567796 L 15.2755943890661,300.2467069509439 L 14.28658270649612,300.53236597031355 L 13.981379883363843,300.3484902717173 L 13.57766223885119,300.83885148121044 L 12.760568588972092,300.9067205414176 L 11.3736342638731,302.00050784274936 L 11.137971311807632,301.82420379156247 L 10.608695534989238,301.83624906279147 L 10.871401775628328,301.4497303250246 L 10.091009732335806,301.85595962498337 L 8.651920484378934,301.23842605762184 L 8.42591587267816,300.8979631513357 L 8.263656131923199,300.8979631513357 L 8.263656131923199,301.0818738406524 L 6.822635225951672,301.08077907562256 L 6.496184112504125,300.6987397931516 L 6.316539399325848,300.8979631513357 L 6.316539399325848,301.0818738406524 L 6.496184112504125,301.0818738406524 L 6.405395926907659,301.4694382213056 L 6.965578310191631,301.8176336796023 L 6.266316160559654,301.91180693078786 L 5.995883284136653,301.8176336796023 L 6.171664657071233,301.4497303250246 L 5.733177041634917,301.1760230967775 L 5.509104087948799,300.6987397931516 L 5.198106290772557,300.8979631513357 L 5.847145201638341,301.4497303250246 L 5.847145201638341,301.8176336796023 L 5.244466211646795,301.77164317900315 L 5.0242565758526325,301.28331325016916 L 4.699737120419741,301.28331325016916 L 4.699737120419741,301.6325811804272 L 4.373286005109549,301.4497303250246 L 4.143418053165078,301.79682836961 L 3.888438493013382,301.6325811804272 L 3.6701605152338743,301.8001133999787 L 3.2393995821475983,302.5524858068675 L 2.9013584684580564,302.18558393698186 L 2.5922923292964697,302.4199576647952 L 2.41651095636189,301.8176336796023 L 1.7655403856188059,301.4497303250246 L 1.7655403856188059,301.28331325016916 L 2.267772873863578,300.8979631513357 L 2.267772873863578,300.6987397931516 L 1.958706708624959,300.53236597031355 L 1.7655403856188059,300.6987397931516 L 1.4777225367724895,299.67875616578385 L 0.9561733938753605,299.5966915669851 L 1.1319547668099403,299.7969332630746 L 0.8518635742366314,300.36600172240287 L 0.7939136773347855,301.3665205887519 L 0.6200639642775059,301.56141029903665 L 0.03863326460123062,301.31396830827 L 0.14487476646900177,301.6325811804272 L 0.0,301.8176336796023 L 0.34769942983984947,302.33014864334837 L 1.2806928493082523,303.10347397159785 L 1.1319547668099403,303.2875252775848 L 1.29035116545856,303.53732802625746 L 1.603280646726489,303.65566319646314 L 1.441020930185914,303.48911878140643 L 1.8737135231494904,303.2984810830094 L 2.016656629741192,303.37298166938126 L 2.091991500928998,303.65566319646314 L 1.958706708624959,303.65566319646314 L 1.8234902825206518,304.1893276143819 L 2.267772873863578,304.40742431068793 L 2.1866430025547743,304.82612861925736 L 2.41651095636189,306.06396466167644 L 2.7526203859597445,305.87973562814295 L 2.7526203859597445,306.2482055434957 L 2.555590722709894,306.09686394641176 L 2.41651095636189,306.24710883945227 L 2.893631812185049,306.70995634421706 L 3.3765476662665606,307.6007640431635 L 3.994679970666766,309.8432711097412 L 4.458279192447662,310.54503310471773 L 4.8021152801811695,311.8073209156282 L 5.483322476968169,312.99009165307507 L 5.2378271743655205,315.4848315389827 L 4.882671633735299,316.70367134548724 L 5.319801082834601,318.36285679601133 L 5.995883284136653,319.94818507228047 L 5.995883284136653,320.1167955757119 L 5.847145201638341,320.1167955757119 L 6.308812765404582,321.1452070372179 L 6.171664657071233,321.61379315843806 L 6.440165873616934,322.4420029115863 L 6.3899426106363535,322.8004914377816 L 5.995883284136653,322.9251458416693 L 5.995883284136653,323.09172804281116 L 6.72991538234055,324.81218352308497 L 6.907628413289785,325.96378884324804 L 6.6410588547587395,327.01754096662626 L 7.139428025111556,328.109266215004 L 7.614617221057415,330.5406595407985 L 7.989359939470887,331.5031873253174 L 7.989359939470887,332.0609417031519 L 8.765888642519712,332.5999890915118 L 8.541815666481853,333.65514169912785 L 8.630672194063663,334.0527269789018 L 8.908831726759672,333.900995509699 L 9.086544757708907,334.08706151600927 L 8.843155171722174,334.95221054553986 L 8.939572032541037,335.3548274291679 L 34.26740994490683,330.95391927147284 L 34.91751129180193,330.97921002237126 L 35.525907995179296,331.22791455034167 L 45.20137830078602,339.24966962309554 L 50.60825875028968,348.44268533261493 L 51.17495085671544,349.0550000234507 L 51.827505396679044,349.3831327147782 L 68.77429768815637,352.9173031602986 L 69.2845659032464,353.37338524963707 L 72.9840104598552,362.15019028401 L 73.53353005461395,362.61067403061315 L 80.90788696333766,366.77281693182886 L 69.00735290162265,380.81626229407266 L 56.652974493801594,394.2471372387372 L 80.17437642253935,401.3123812866397 L 104.21831264346838,408.2957468139939 L 105.04013885743916,408.64866784308106 L 107.85888006910682,411.33622111799195 L 108.83035223186016,411.85321470629424 L 129.5109340529889,408.30008570384234 L 137.6114419028163,406.732774220407 L 138.8895656298846,406.2312629055232 L 140.2118471954018,405.45678630424663 L 178.08454257808626,382.8277367176488 L 196.67744049057364,366.6589335948229 L 240.18884491734207,331.2770960382186 L 240.79724162071943,331.03962771361694 L 279.7248183824122,327.5080904699862 L 283.8781072385609,328.3937149341218 L 305.2652142755687,325.65073270490393 L 306.71383629739285,323.1906448411755 L 308.0299848113209,319.57520576240495 L 308.23114824295044,317.433610746637 L 308.78312107920647,315.8106584479101 L 309.1425167247653,315.1979244174436 L 310.6377497520298,313.8792827776633 L 310.8352333717048,313.1622486705892 L 328.985239924863,313.3506990284659 L 329.5456438623369,312.75577754108235 L 330.4535256754607,312.261177925393 L 330.7625918164849,310.88444468425587 L 330.7664551567286,309.98163307318464 L 330.5578354950994,309.378819193691 L 330.0131064262241,309.57864505192265 L 329.8392567113042,309.2097466820851 L 330.69691526144743,309.27781362226233 L 330.9924597684294,309.53033421281725 L 331.14892450906336,309.947591021657 L 331.42322072573006,309.76311207097024 L 331.00404976680875,308.32173110870644 L 331.1083595864475,307.36816193629056 L 331.4096990674734,306.8284221999347 L 333.3915857505053,304.6310179713182 L 333.5132805425674,304.30768958851695 L 332.99559473991394,303.2875252775848 L 332.97434644959867,302.75950479647145 L 333.1076312176883,302.18558393698186 L 334.2550392989069,300.4404266453348 L 334.1912944018841,300.02345288405195 L 335.37540408968925,299.42928700940683 L 336.445545617491,299.42928700940683 L 337.51182382926345,298.9730766862631 L 337.3341107983142,298.4950628494844 L 336.84733162634075,298.4950628494844 L 336.43975064344704,298.2905364143662 L 336.36441577225924,297.74483859259635 L 337.06754123978317,296.8964222227223 L 338.05075794644654,296.2766664731316 L 338.59548701532185,295.3532897764817 L 339.66369688510895,294.1298573240638 L 339.45314558781683,293.58930760249496 L 339.4705305621028,292.6056550005451 L 338.954776417464,291.7358189942315 L 338.6321886200458,291.4968504351564 L 338.833081625402,292.03701268834993 L 338.8523982577026,293.07178418384865 L 339.06874455325305,293.5074148667045 L 338.9567080754787,293.8939687591046 L 338.60514533147216,293.52051754202694 L 338.21881266124547,292.522698355373 L 337.8208899926394,292.2454656101763 L 338.3076691646129,293.7105130511336 L 338.18983771279454,294.2183204796165 L 337.9986030254513,294.1800953266211 L 337.1988943722099,291.2546282815747 L 337.22786932066083,291.10843182494864 L 337.49637053720653,291.1302517252043 L 337.9696280770004,291.87877297913656 L 338.06427957862616,290.3971921312623 L 338.28448921628296,290.4342770576477 L 338.6321886200458,290.94696959108114 L 338.79831167683005,290.65243310155347 L 338.7809267025441,289.84969895752147 L 339.0803345516324,289.73410591622815 L 339.6038153283298,290.3971921312623 L 339.6134736444801,289.93476089881733 L 339.4415556136519,289.64904980175197 L 339.53234377503395,289.2423412115313 L 339.117036158219,289.1344038876705 L 339.4415556136519,288.38549384847283 L 338.86398823186755,288.6765322489664 L 338.6244619637728,288.6721718944609 L 338.4564072471112,288.38549384847283 L 338.954776417464,288.1751357568428 L 339.381674034521,288.20129344193265 L 339.7139201480895,288.4541632118635 L 339.9283347837627,288.93380369851366 L 340.09059452451766,288.93380369851366 L 340.25285424105823,288.5522651290521 L 339.9631047323346,288.25796927139163 L 339.8645898886025,287.73266998911276 L 339.9978746790439,287.3011666336097 L 340.41511397995055,287.2880917699076 L 340.5889636706561,287.48422093782574 L 340.25285424105823,288.03563195001334 L 340.4382939282805,288.28194782184437 L 341.70160180330276,288.59586702194065 L 342.860599860549,287.6542101306841 L 343.7356434073299,287.2009274652228 L 343.96744301728904,286.8817102238536 L 343.50963877141476,286.5559918587096 L 343.84767988324165,286.3947800444439 L 344.14901936613023,286.4307251679711 L 344.29196247272193,286.6191718643531 L 344.15867768228054,286.92201902344823 L 344.97190799191594,286.6278864592314 L 345.87399480491877,286.5559918587096 L 346.6852934565395,286.92201902344823 L 348.13983601890504,286.58104582643136 L 349.69675674289465,284.8952798945829 L 349.87253811582923,283.99942869739607 L 349.3954172357917,284.11479645082727 L 349.3741689454764,284.7134752073325 L 349.2119092065841,284.7134752073325 L 348.71354006044567,284.11261966452 L 347.40580389648676,284.251937571913 L 346.9402730166912,283.7991784051992 L 346.76642332598567,283.7991784051992 L 346.6041635852307,284.2584682707675 L 346.19271928444505,284.2628220869228 L 345.2925641313195,283.7991784051992 L 346.2796441297978,283.4183050263673 L 347.3633073158562,282.5696781282313 L 348.15142599307,283.4259219933301 L 348.7116083782166,283.0701208990067 L 348.54548532143235,282.7002202584408 L 347.90030975081027,282.1563328024931 L 347.7515716664493,280.8622827255167 L 349.0670344643295,281.59732073452324 L 349.87253811582923,281.22760425740853 L 349.6851667445153,280.70790442684665 L 350.02127619832754,279.1297932593152 L 349.97491627559066,277.98911970155314 L 350.10626938566566,277.50908136181533 L 350.508055370301,277.56555245490745 L 350.48101207986474,277.0790675529279 L 350.64327181875706,276.8977419785224 L 351.1570942811668,277.2006813287735 L 351.0373311471194,277.60030441125855 L 351.2517457846552,277.8566127070226 L 351.6206935029477,277.88050696998835 L 351.9645295906812,277.56555245490745 L 352.11133601516485,277.76429573306814 L 352.23689414933324,277.4634708999656 L 351.88339972123504,276.3581736693159 L 351.1570942811668,276.30606762040406 L 351.346397286281,275.9977921312675 L 351.92203301005065,275.88165436219424 L 352.11133601516485,275.561484886799 L 352.3508622851223,275.70582821033895 L 352.77582824230194,276.47107323957607 L 352.9380879588425,276.30606762040406 L 352.70049337111413,275.8295566444285 L 352.897523034364,275.75032646022737 L 353.5021336823702,275.94135079020634 L 354.8967946674675,275.561484886799 L 354.05845274962485,276.68277145177126 L 354.4138788115233,277.03454947751015 L 354.70749166049063,277.0464932839386 L 355.3835738617927,276.6534584881738 L 356.02874943241477,277.2006813287735 L 355.7080933172256,275.74381447257474 L 355.98045785166323,274.79755820846185 L 356.55416189320385,274.4417046010494 L 356.9868545085192,273.94162835460156 L 359.05180271714926,270.91150126513094 L 359.93457289785147,270.4499333440326 L 360.7458715252578,269.72197042405605 L 362.2216623798013,269.04183112597093 L 363.1430658493191,268.36292830249295 L 364.81202304922044,268.2524992544204 L 365.5441234894097,267.8270605276339 L 366.2317956648767,267.1516781868413 L 367.82541799359024,264.8020065482706 L 369.94638444297016,263.10903866402805 L 370.0275142882019,262.4282264225185 L 368.3817370608449,263.7532494631596 L 366.74754980765283,264.02999954577535 L 366.51768185570836,264.32839904818684 L 366.3361054826528,265.3081349041313 L 365.9111395254731,264.6917077586986 L 365.7875130735338,263.6105600837618 L 366.3361054826528,262.67675920343027 L 366.2723605874926,260.6091539589688 L 366.91174118220806,258.5904369112104 L 367.5685067512095,257.77685113158077 L 370.03717260435224,256.79954017000273 L 370.7325714379549,256.17620927933604 L 371.1517424210906,255.27486885758117 L 371.3255921099335,254.06666949857026 L 371.22321395017207,250.5568594681099 L 370.97982436418533,250.02949548698962 L 370.5142934843898,249.7314133006148 L 370.5027035083622,250.13818964734674 L 370.3172638192773,250.27702242136002 L 369.8536645974964,249.8939021625556 L 370.00626599788666,249.22893560677767 L 369.9444527607411,248.20809256099164 L 369.54073511622846,246.45010676514357 L 369.171787397936,246.72744737006724 L 369.040434287861,247.91018614033237 L 368.8743112310767,248.22852762788534 L 367.9316594712436,248.9761137594469 L 367.7442881241441,250.0919134542346 L 366.954237787053,250.81519312411547 L 366.68380491249263,250.72477387357503 L 366.0637409500778,249.52158930990845 L 365.6117317005992,249.18912823451683 L 366.43268866837025,247.5316605605185 L 365.9478411320597,247.09727348107845 L 366.1120325308293,245.9567598355934 L 365.9478411320597,245.54730925383046 L 366.3476954586804,245.40868864115328 L 366.68380491249263,245.61823383206502 L 366.8537912853062,246.0147965848446 L 366.75720812380314,246.45010676514357 L 367.4197686687112,245.90839670738205 L 367.7191764935851,245.85358609212562 L 367.773263072595,245.40224131103605 L 368.5903566982597,245.22279628552496 L 369.21621566079557,243.92615746241063 L 369.21621566079557,243.74572370853275 L 368.74295812286437,243.24958482012153 L 368.9940743651241,242.01280357688665 L 370.0275142882019,239.76702394336462 L 371.45501356199384,238.04488643584773 L 372.0538292340934,237.04592298157513 L 372.29721882008016,235.79445182578638 L 372.1484807357192,235.79445182578638 L 371.5670500379056,237.2495485190302 L 370.6359882764518,237.68149274168536 L 369.96376939304173,238.42440448747948 L 369.6199333034456,238.4662186075002 L 369.54073511622846,237.95162208843976 L 369.7145848311484,237.58395173586905 L 370.5142934843898,236.8723158533685 L 370.6765531990677,237.2495485190302 L 370.8388129398227,237.2495485190302 L 371.7408997528255,235.35419823229313 L 374.4452285580337,231.8536408902146 L 375.0691558364779,231.3026835108176 L 374.7774746697396,232.40255409572273 L 375.2372105512768,232.66259893076494 L 375.4419668726623,232.02590163983405 L 375.9210194107145,231.37970480229706 L 377.17273731157184,230.92830123752356 L 377.37749363295734,230.67267706012353 L 377.8372295387089,229.49215354165062 L 377.6595164835453,229.31254720548168 L 378.5364916883409,227.4561412250623 L 378.64852816425264,226.87603632034734 L 378.4708151333034,225.62110655987635 L 379.2183688879013,223.7828584574163 L 379.1314440201968,222.30939392233267 L 379.5293666869402,220.63829604070634 L 379.7804829310626,220.32486216630787 L 379.9620593022555,220.83020944613963 L 380.576328266412,220.3205979554914 L 381.8898594044149,218.67717163683847 L 382.3592536021024,216.94725789129734 L 383.4274634718895,216.10394168598577 L 383.6322198174894,215.10332150151953 L 383.6863063722849,213.50190831022337 L 384.23876212351024,212.3053548047319 L 384.49374168366194,212.05865369038656 L 384.8453044295311,212.0660969922319 L 385.36105857230723,212.57334447372705 z" /><path fill-rule="evenodd" fill="#D2EBD9" stroke="#A6A6A6" stroke-width="0.25" opacity="1" d="M 180.72029273584485,8.284187335986644 L 180.48573311790824,6.949018883518875 L 180.76208864711225,5.800075942650437 L 180.5332638323307,5.260580946225673 L 179.99391157738864,5.297594365198165 L 179.33260392956436,6.0996057307347655 L 178.28440481051803,6.33150452375412 L 178.03173210844398,6.5565176964737475 L 179.08711102418602,7.152449302840978 L 178.93237440288067,7.663227477576584 L 178.33040994778275,7.986727029550821 L 176.54559342376888,7.7149398336187005 L 175.71415726840496,7.244071681983769 L 175.23766903206706,7.4066516873426735 L 174.32158118486404,8.27355659333989 L 173.78095742501318,8.404783168341964 L 172.57708315365016,9.305127007886767 L 172.29349615424871,9.816605949308723 L 172.13968710042536,10.582285441458225 L 171.72716529108584,10.871958318632096 L 171.02947977557778,10.940631065052003 L 171.06251835078,11.641484264750034 L 170.49412637017667,12.569964450784028 L 170.52903531864285,13.016103259753436 L 172.2143043987453,12.079371962230653 L 172.97327722795308,11.149736633058637 L 173.04999972134829,10.257615278474987 L 174.04338464699686,9.326477263122797 L 174.90377564541996,9.41539760492742 L 175.18694659508765,8.967484305612743 L 176.55718330293894,9.115756316110492 L 176.8413520567119,8.826918455772102 L 176.83899067528546,8.540419725701213 L 177.1254844199866,8.538083751685917 L 177.82845159061253,8.850598810240626 L 177.16102105006576,8.983495564199984 L 176.81094842031598,9.530317404773086 L 177.4310123603791,10.925496715120971 L 177.77098513022065,10.977962707635015 L 178.7653116993606,10.434660183265805 L 178.79358327016234,10.0204598903656 L 179.10753782652318,9.508290092460811 L 179.0613362956792,9.24185028206557 L 179.64567699097097,9.153324989136308 L 179.80065657570958,8.674386517610401 L 180.72029273584485,8.284187335986644 z" /><path fill-rule="evenodd" fill="#D2EBD9" stroke="#A6A6A6" stroke-width="0.25" opacity="1" d="M 174.36975581757724,10.406683784909546 L 172.37778083607554,12.899429466575384 L 172.6443503946066,13.137649358715862 L 173.63529373519123,13.299161271657795 L 174.18195448629558,13.999783760402352 L 174.46977233700454,13.975552998483181 L 174.59726212732494,14.46827011788264 L 174.41761741414666,15.065052605234087 L 173.78016850166023,15.355898170731962 L 172.6443503946066,15.524556518997997 L 172.58640049770474,15.634642233606428 L 172.99204982444644,15.925523409619927 L 173.04999972134829,15.710390767548233 L 173.81880176626146,15.634642233606428 L 174.42341241426766,15.389225374907255 L 174.82713008113205,14.914587538223714 L 174.99325311370194,14.155267553869635 L 174.86884996294975,13.142643543891609 L 174.96100163273513,12.695762129500508 L 175.72439408488572,12.498470343183726 L 175.9431889448315,11.955072247423232 L 174.9681415054947,11.940616073086858 L 174.68805031478405,11.577327460981905 L 174.82713008113205,11.155544284265488 L 176.18674456514418,10.551645052153617 L 176.33873046003282,9.658792243804783 L 175.64147366955876,10.078306238166988 L 174.36975581757724,10.406683784909546 z" /><path fill-rule="evenodd" fill="#D2EBD9" stroke="#A6A6A6" stroke-width="0.25" opacity="1" d="M 355.87035303376615,281.40919451601803 L 358.7987547926605,280.49918037094176 L 358.3621988594532,280.33177690953016 L 357.2553557250649,280.6796388425864 L 356.86322803236544,280.6263698376715 L 355.87035303376615,279.96765267057344 L 355.22131412290037,280.3328639115207 L 355.22131412290037,280.49918037094176 L 355.59992015734315,280.78183105401695 L 355.0590544063598,281.2602244396694 L 354.0217511430383,280.9383876542561 L 353.27806072868407,279.7687618979253 L 353.2162474915385,280.4643944664858 L 353.6566667649895,281.1493172645569 L 354.34627059847116,281.64408230036497 L 355.0590544063598,281.7756710811518 L 355.87035303376615,281.40919451601803 z" /><path fill-rule="evenodd" fill="#D2EBD9" stroke="#A6A6A6" stroke-width="0.25" opacity="1" d="M 58.25124229863286,230.21068069478497 L 58.61825833469629,229.8888202784583 L 58.28021724708378,229.9401446674019 L 58.355552116408944,229.66214750288054 L 57.69878654740751,229.99788558203727 L 57.61958836019039,230.46198981720954 L 57.09803921729326,230.4031709972769 L 56.819879684597254,230.98178170388564 L 56.34469048678875,230.79567356407642 L 56.470248620957136,231.46956533798948 L 56.698184890672565,231.7391622387804 L 57.31631719507277,231.6931579518132 L 57.59640838764608,231.5198455597274 L 57.82627633959055,231.00531339040026 L 58.03103266097605,231.21175804827362 L 58.12954750470817,231.08232744317502 L 58.25124229863286,230.21068069478497 z" /><path fill-rule="evenodd" fill="#D2EBD9" stroke="#A6A6A6" stroke-width="0.25" opacity="1" d="M 56.240380669012666,230.17753077484667 L 56.698184890672565,230.07594444882125 L 56.08005258627236,229.69422285165638 L 55.59134175628424,228.93091744882986 L 55.233984012156725,228.67117892438546 L 54.73368318378925,229.00467426143587 L 52.834858030080795,230.94113646168262 L 52.80008810758591,231.3904023496434 L 52.299787279218435,232.03874131897464 L 52.30944559536874,232.22920280089602 L 52.792361449450254,231.97026358777657 L 53.429810386151075,231.26845244225115 L 55.61259004846215,230.39675445575267 L 55.72076320834458,230.2096113394946 L 55.22625735402107,230.19036295637488 L 55.15285414271057,229.85139675950631 L 55.34215717203915,229.5402641207911 L 55.62611170485616,229.61296592094004 L 56.240380669012666,230.17753077484667 z" /><path fill-rule="evenodd" fill="#D2EBD9" stroke="#A6A6A6" stroke-width="0.25" opacity="1" d="M 54.038284350186586,233.19238610425964 L 53.50707691535354,233.56489582825452 L 53.553436836227775,233.937449532561 L 53.84704968519509,234.16549981757998 L 54.1870224326849,234.12053085817024 L 54.44586533494294,233.8368128631264 L 54.43427535891533,233.5306402076967 L 54.038284350186586,233.19238610425964 z" /><path fill-rule="evenodd" fill="#D2EBD9" stroke="#A6A6A6" stroke-width="0.25" opacity="1" d="M 52.633965050801635,232.2677244739607 L 52.18581911921501,232.5095658460632 L 52.04480769485235,232.96119531802833 L 51.502010283991694,233.09177323244512 L 51.308843936771154,233.5499089420773 L 50.94955453462899,233.78756629908457 L 50.52458857744932,233.76187276095152 L 50.04553606361151,233.48460984043777 L 50.2850623074919,234.0916225691326 L 50.65401002764702,234.1976208994165 L 51.100224275141954,234.03808941552415 L 52.27467564679682,233.25446799956262 L 52.529655231162906,232.7450044308789 L 53.7929631061852,232.05907092941925 L 54.63516836427152,231.359379560221 L 54.843788001686335,231.12297449912876 L 54.7452731821686,230.83417780604213 L 53.692516604438424,231.44923951802775 L 53.47037530876696,231.9060670766048 L 52.88121795281768,232.02055177325383 L 52.633965050801635,232.2677244739607 z" /><path fill-rule="evenodd" fill="#D2EBD9" stroke="#A6A6A6" stroke-width="0.25" opacity="1" d="M 55.25716398470104,233.6205619648099 L 55.19728240557015,234.83475676830858 L 55.58168344013393,235.12927491031587 L 55.898476239293814,234.77264373656362 L 55.85211631655693,234.33788681728765 L 55.57009344175458,234.39677895326167 L 55.89461289718747,233.07357762055472 L 55.79030307941139,232.8349038003944 L 55.25716398470104,233.6205619648099 z" /><path fill-rule="evenodd" fill="#D2EBD9" stroke="#A6A6A6" stroke-width="0.25" opacity="1" d="M 50.091895984485745,234.22653016075492 L 49.92384126968682,233.76401387667283 L 49.724879924207926,233.6323376186192 L 47.352797232568264,234.9140062178485 L 46.83897477015853,235.03931007767096 L 46.68057837150991,234.66983865061775 L 46.44491541944444,234.7919200672768 L 45.69156668893993,235.58556469762698 L 45.54282860644162,236.14155653724447 L 45.73792661167681,236.60120789008215 L 46.78102487325668,237.6632705614902 L 46.68057837150991,237.19167464552447 L 46.28265570476651,236.59156416216865 L 46.48161702603102,236.12870013015345 L 47.41461046971381,235.59841888351366 L 48.341808915138245,234.7319496544078 L 48.857563057914376,234.7555093136616 L 49.01982277445495,234.28649095026776 L 49.44672039151192,234.21368157630786 L 49.52978191897273,234.48351299064234 L 50.091895984485745,234.22653016075492 z" /><path fill-rule="evenodd" fill="#D2EBD9" stroke="#A6A6A6" stroke-width="0.25" opacity="1" d="M 46.7964781653136,238.4136830084026 L 46.75398158468306,240.27440958376974 L 47.1325875967741,241.18211674457416 L 47.901389641687274,241.8196008419618 L 47.325753942131996,241.09305104613304 L 47.06111606582999,240.12636888073757 L 47.26780404523015,239.6640550903976 L 47.721744952723384,239.2286201119423 L 48.067512698471546,239.12566898018122 L 47.77389987371862,238.2592977671884 L 47.84343974478543,237.96341397520155 L 48.38237383775413,237.83692146791145 L 48.01342611759901,237.4982039281167 L 47.71594995260239,237.55286788195372 L 46.97419119626284,238.10920828720555 L 46.7964781653136,238.4136830084026 z" /></g></g></g></svg>