<svg xmlns="http://www.w3.org/2000/svg" xmlns:xlink="http://www.w3.org/1999/xlink" width="500.0" height="216.68140317918733" viewBox="0.0 0.0 500.0 216.68140317918733" preserveAspectRatio="xMinYMin meet"><g transform="matrix(1,0,0,-1,0,216.68140317918733)"><g><g><path fill-rule="evenodd" fill="#D2EBD9" stroke="#A6A6A6" stroke-width="0.25" opacity="1" d="M 187.55575924017467,21.28819218254648 L 189.83806906174868,19.868253197986633 L 190.50412465259433,19.031804063124582 L 189.62725331052206,18.404423585394397 L 188.5304002626799,18.572977231116965 L 188.08738163323142,18.404423585394397 L 187.3174457757268,17.074627644149587 L 186.78582342038862,17.108967245556414 L 185.52398413070478,18.666617011651397 L 184.73266118392348,18.404423585394397 L 183.11029636696912,19.45627907337621 L 182.16620838828385,22.021492566680536 L 181.39932782412507,22.617456724867225 L 179.8380690573249,22.879545573610812 L 179.3767186314799,23.169707785127684 L 179.34005500143394,24.604802317684516 L 179.2361747722607,24.898036972386762 L 178.81148793897592,25.238054246176034 L 178.0996028012596,25.500078552635387 L 177.2991139749065,25.500078552635387 L 176.5291781174019,24.45194277120754 L 174.97097464394756,24.45194277120754 L 172.1234341673553,25.75897717429325 L 172.42896426841617,26.307946300832555 L 171.74457684368826,26.80074684252031 L 171.13962726551108,26.7508439978119 L 170.19859458017163,26.307946300832555 L 169.53559428243898,26.47637434513308 L 167.9682248919271,28.254064510809258 L 167.81240452965721,28.793550808914006 L 167.3510541038122,29.345482772914693 L 167.27161625726148,29.545044411206618 L 167.49159792531282,30.212301855441183 L 168.76871371804737,31.824150768108666 L 170.61411549639888,30.51785454293713 L 171.91872900235467,30.533443733118474 L 173.80384970409796,29.189572636969388 L 175.90589674306102,28.176101830322295 L 179.43782464414835,25.83695745235309 L 183.43415826419368,24.28660241723992 L 187.55575924017467,21.28819218254648 z" /><path fill-rule="evenodd" fill="#D2EBD9" stroke="#A6A6A6" stroke-width="0.25" opacity="1" d="M 161.3137794197537,38.35950903990306 L 162.6153376325965,38.085333162220195 L 163.055300968932,37.69898277986795 L 163.13473877799697,37.057112550828606 L 160.8860372933559,37.90150686795823 L 160.28719830163755,38.62121602660045 L 160.83715245337225,38.608753924956545 L 161.3137794197537,38.35950903990306 z" /><path fill-rule="evenodd" fill="#D2EBD9" stroke="#A6A6A6" stroke-width="0.25" opacity="1" d="M 234.00855485838838,77.26248017791659 L 234.1918728966266,77.6164533754345 L 233.62053161789663,77.90831817500293 L 233.11946226889268,78.83354517701082 L 233.1102963895537,79.33649127371609 L 233.62053161789663,79.77422368945554 L 234.43935227789916,79.10675307409838 L 235.05346777290106,78.03872359148227 L 235.11762907891534,77.03891281294636 L 234.26520011923276,76.60418662754819 L 233.99938894156367,76.65387040213682 L 233.84662390989251,77.00786146544851 L 234.00855485838838,77.26248017791659 z" /><path fill-rule="evenodd" fill="#D2EBD9" stroke="#A6A6A6" stroke-width="0.25" opacity="1" d="M 257.80629390873946,56.21624801680446 L 258.20653835940175,56.402884910814464 L 258.47234953707084,56.091821756912395 L 258.4356859070249,55.63765436317772 L 257.93461655802093,55.40745307318866 L 256.5413993259426,55.66254072613083 L 256.0158875568304,55.40745307318866 L 255.73479987611063,55.58165990607813 L 254.19492819858715,55.76208559819497 L 251.50626337784342,56.81347531941719 L 250.63855791511014,56.70149758900516 L 249.81362663116306,55.93006557482295 L 248.91536816209555,56.234911831561476 L 247.8948976676911,56.21624801680446 L 247.52826155396178,56.30023500090465 L 246.73999390029348,56.975219034356996 L 245.0809654907789,57.634612103458494 L 244.15520930849016,58.28152706241235 L 242.58478462486528,57.83366675325669 L 240.31164072011597,58.567650908604264 L 239.67002751189284,58.28152706241235 L 238.53345554089174,58.931515528587624 L 237.98350138915703,59.86755899176933 L 237.74518792470917,59.062130810692906 L 236.92331197136082,59.67475890205242 L 236.48640392813832,59.79292708192952 L 235.9303391526919,59.60634517879225 L 235.4170485935174,60.36820224230178 L 235.0687442761846,60.222053992561996 L 234.76015888201073,60.470815893495455 L 234.58600672334433,60.86260507651605 L 234.65016806684434,61.151774337049574 L 234.29880845639855,61.599506022175774 L 232.85365109122358,61.69589042640291 L 232.27619922626764,62.85244113532826 L 231.69874732382596,62.99855629983358 L 230.49801404681057,64.0523964385502 L 230.0886037168093,63.576781251700595 L 229.68530401051976,63.82857994479127 L 228.98564008274116,64.5435342665296 L 228.829819757957,65.09681671252474 L 228.21570426272228,65.3485826535616 L 228.21570426272228,65.90804315754212 L 227.70241370378062,66.41153474431485 L 227.39077301649377,66.0354720694013 L 226.94164376310073,65.90804315754212 L 225.88756493176334,66.12871186505072 L 226.65750078926794,68.4998623423744 L 226.24503512843512,68.76398456888273 L 226.21753745269962,69.53456624085084 L 226.0250534603838,69.93537314864807 L 224.60128322197124,69.80487935827114 L 225.2428964304272,70.87053650571033 L 225.21234342409298,71.41730887442827 L 224.60128322197124,71.62855508667417 L 225.2428964304272,73.02951970114373 L 225.71341277309693,73.29975335509516 L 225.37427437258884,73.73770529124886 L 224.3476932544727,73.73770529124886 L 223.68469295674004,74.42410828755237 L 221.7231897392776,74.62908975803293 L 221.31377940927632,75.07009868999012 L 219.98777881381102,75.0390422581695 L 219.10479684802704,74.51728212134913 L 217.5985334701836,74.86512472294271 L 216.88664833223447,75.30301940487698 L 216.73082800745033,75.87753779324703 L 217.0546899046749,76.70976442750543 L 216.88664833223447,77.12585617601871 L 217.4274366046302,77.62266332283616 L 217.1646807200741,78.21880493266508 L 217.14634892367758,79.04776553087868 L 217.45493431785144,79.75870153564028 L 218.16987474891357,80.01326237199828 L 218.98564007831737,79.49482184858061 L 221.05713414843194,79.87666938267648 L 225.0443018891383,78.09461120190099 L 229.07424380863085,75.57320175040513 L 231.29239232442342,73.73770529124886 L 231.99205621471629,74.01724064769223 L 232.4778490604367,73.71596335573122 L 233.2355637080036,72.54805377591401 L 233.78857319033705,72.19393092603423 L 235.4170485935174,72.15044142724946 L 236.99663919419982,71.26197839365341 L 237.56492514209822,70.60646132123657 L 238.37457988527603,70.56917962245643 L 239.24839597172104,70.76490712934174 L 239.79835016094148,71.10975250671618 L 241.19767797924578,70.64374286471866 L 241.83623589435592,70.60646132123657 L 242.36480295658112,70.84878937480971 L 243.24778492259793,69.83284243708476 L 244.08188208565116,69.40406803134829 L 245.30400245194323,69.5438874620013 L 245.9425603672862,69.41028224793263 L 246.1350443221163,69.50349537469447 L 246.30614115018398,70.30820460175164 L 246.8958142627962,70.57850006758235 L 247.25328445946798,70.58471366832964 L 247.99877789686434,70.24295992031693 L 249.00397188798524,68.81991558359005 L 249.85640084766783,68.24816390243359 L 250.93186680600047,65.60655940673314 L 251.81790406489745,64.88545347959734 L 252.01038801996037,63.63273699511774 L 252.32508403784595,63.057623610366136 L 254.1521539823152,61.7207637084648 L 254.53712192969397,61.2481624619104 L 254.68683166848496,60.648055508499965 L 254.69599754782394,58.46813036222011 L 253.6816376396455,57.52264238172211 L 253.9352276448626,56.57085548969917 L 255.12679500482045,56.37800015695393 L 256.6269477587193,56.43088018451817 L 257.80629390873946,56.21624801680446 z" /><path fill-rule="evenodd" fill="#D2EBD9" stroke="#A6A6A6" stroke-width="0.25" opacity="1" d="M 437.95905898394994,91.98717450397089 L 437.6749159723986,92.67565657850355 L 437.839902251726,93.0260856335517 L 438.24014666490257,92.98887240956537 L 438.66788879130036,92.49888775288127 L 438.80843265051953,92.00578261562623 L 438.7106630075723,91.70804936136119 L 438.40818819985725,91.67393365176395 L 437.95905898394994,91.98717450397089 z" /><path fill-rule="evenodd" fill="#D2EBD9" stroke="#A6A6A6" stroke-width="0.25" opacity="1" d="M 434.8976474257652,95.15325978514738 L 435.3742743546609,95.20907002897002 L 435.51481821388006,95.10365049354732 L 435.35594255826436,95.02923617186025 L 434.8976474257652,95.15325978514738 z" /><path fill-rule="evenodd" fill="#D2EBD9" stroke="#A6A6A6" stroke-width="0.25" opacity="1" d="M 242.8994806050323,93.33619171311148 L 242.3678582496941,93.78273102384992 L 241.8576229836326,94.63855379726738 L 241.48793157702312,95.65554303303361 L 241.04796824068762,98.32165165152401 L 241.1029636671301,98.82380956294946 L 241.48793157702312,99.38793869689107 L 242.42285367613658,99.40033686580136 L 242.8994806050323,99.59870581841096 L 242.86281701247208,99.09037918481044 L 242.36480295658112,98.30305284028873 L 242.59700579731725,97.75747533352114 L 243.0736327636987,94.61064744507894 L 242.8994806050323,93.33619171311148 z" /><path fill-rule="evenodd" fill="#D2EBD9" stroke="#A6A6A6" stroke-width="0.25" opacity="1" d="M 221.011304639047,110.02428069408052 L 220.26886649476364,109.7641301555559 L 220.26886649476364,110.56005075294524 L 220.02138711325824,111.28779599629343 L 219.21784295653924,112.64408222888596 L 219.49282005103305,112.84844208857976 L 219.67308279592544,112.82057501701638 L 220.4888481630478,111.83590102777816 L 221.77818516572006,111.04315422219224 L 222.1937060819473,110.06454164115712 L 223.3211121361237,108.46330003067851 L 224.2743660316337,106.5273015811108 L 224.93431103625335,105.66607709461823 L 225.21234342409298,104.82028671167791 L 226.65750078926794,102.71951341885142 L 226.9874732727185,101.36219479213469 L 226.93247784627602,99.98923571640626 L 227.60769935394637,98.08606457593851 L 227.70241370378062,97.23667498957366 L 227.52215092116967,96.37792780948803 L 227.1616254313849,95.69894929300062 L 226.8072105278261,95.56252913339995 L 226.65750078926794,96.33762415451929 L 225.11457378114574,98.04266647924669 L 224.5218454131391,99.39103823062032 L 224.11243508313783,99.59870581841096 L 223.70302475313656,99.47472558869049 L 223.43415828212164,98.40844579576515 L 223.0430797485169,97.75747533352114 L 221.77207454200834,99.29495210340247 L 221.23434160021134,100.23098638164811 L 221.011304639047,101.03059057891369 L 220.91964558232576,106.41577930143103 L 220.941032709321,106.89903555670753 L 221.55209287372418,107.99868656834587 L 221.011304639047,110.02428069408052 z" /><path fill-rule="evenodd" fill="#D2EBD9" stroke="#A6A6A6" stroke-width="0.25" opacity="1" d="M 199.67002749396488,93.85715270182118 L 199.6089214810636,92.71597193693742 L 198.6251145794522,92.07711349823512 L 195.8020165229682,91.48784624622203 L 194.33547206851654,91.01641246443614 L 192.85365111054853,90.05488057038747 L 190.14054386969656,90.73726569558494 L 187.7421326090116,91.87862655334175 L 186.92331194877625,92.0336947501637 L 185.3834402714856,91.74836783180945 L 184.89764742576517,91.88482933933847 L 183.96272532641888,93.05089441360906 L 183.19584479974583,93.05089441360906 L 182.67949894745834,93.85715270182118 L 180.67216622061096,94.70366835361347 L 176.46501681162044,94.89280878310092 L 173.29666973114945,94.39669670700096 L 170.58050719695166,94.49902141932398 L 169.8197372565046,94.37189061753452 L 167.93767188559286,94.861802354455 L 166.29086464853026,95.0664433685597 L 164.41185457073152,95.93458066717722 L 162.4747937733773,95.5129214101471 L 161.69874732964672,96.08029787894338 L 159.96333640441298,97.86287280498073 L 158.26153377839364,98.82380956294946 L 158.26153377839364,99.59870581841096 L 157.60464406688698,99.98923571640626 L 157.34799876855686,101.02749144192785 L 156.45585092320107,101.25062796543352 L 156.33669419097714,101.48925578873605 L 156.44362971326336,102.22680471418425 L 155.65536205959506,103.8567000250332 L 154.50656891590916,105.19206949020736 L 153.69691417273134,105.87054563197307 L 153.59608923690394,106.2330046533607 L 154.4454629032407,106.77202762337402 L 154.65016806824133,107.16234072158113 L 154.57684084563516,107.55573968356475 L 153.88023221073672,108.7017952078022 L 154.13687750906684,110.15435405261815 L 153.88023221073672,111.4643068825826 L 153.33333335234784,111.97524612443522 L 153.88023221073672,112.64408222888596 L 153.98716773302294,113.9414042297285 L 154.22853652830236,114.49249551608227 L 155.36205316870473,114.89496350451373 L 157.7207455059979,116.30350590520538 L 159.0223037188407,115.85464584687725 L 160.348304314306,115.00022235605866 L 162.36480295821093,113.16426474228501 L 163.88939813221805,112.05265947058797 L 164.69294225168414,110.52598510868847 L 165.20012222439982,109.91588526498526 L 165.69508098741062,109.50397442979738 L 166.38252370501868,109.25929949688725 L 169.0314696028363,109.29956274991855 L 170.2780323892366,109.9716316126287 L 172.77115796203725,109.23452201974578 L 173.54109381930903,109.39557470893487 L 174.567674937658,110.02428069408052 L 177.2991139749065,109.50397442979738 L 178.06904979492538,110.02428069408052 L 178.81148793897592,109.7641301555559 L 181.63458603294566,109.7641301555559 L 182.4014665596187,110.02428069408052 L 182.84448518930003,109.58759648306295 L 183.6052551297471,109.25929949688725 L 184.38435686659068,108.1845339173451 L 185.8906202444341,107.65486197941937 L 187.55575924017467,105.32219095574692 L 188.94897647202015,105.5080764691811 L 190.66300030821003,104.74902712064795 L 192.23953561554663,103.57163812895305 L 193.21723189367913,102.48710598377511 L 193.47998777823523,101.84563974570483 L 193.7244118663948,99.46852652262896 L 193.91384052834474,99.16476971283555 L 194.9251451434102,99.33834593882784 L 195.4017720723059,99.26395642198622 L 196.57195234298706,98.557234371081 L 198.13321114727296,98.04266647924669 L 198.2890314720571,96.65694949333556 L 198.8878704640083,96.26941768010147 L 198.9917506929487,94.6695607744623 L 199.67002749396488,93.85715270182118 z" /><path fill-rule="evenodd" fill="#D2EBD9" stroke="#A6A6A6" stroke-width="0.25" opacity="1" d="M 162.22120380587876,119.1603801397141 L 161.68958145030774,119.40487315296195 L 161.36877484619617,120.0083496812731 L 161.304613502929,120.77580914343707 L 161.57042468059808,121.49990440299734 L 162.16315308609046,121.5927343678195 L 162.36480295821093,121.7814865889959 L 162.8169874669984,120.19402932492085 L 162.73449436482042,119.46367461560294 L 162.22120380587876,119.1603801397141 z" /><path fill-rule="evenodd" fill="#D2EBD9" stroke="#A6A6A6" stroke-width="0.25" opacity="1" d="M 178.1851512340363,119.68030938366428 L 179.03146960726008,120.10118982149288 L 179.60892147221602,120.72010789532214 L 180.08554843859747,122.58288090466522 L 180.47051634872332,123.3780402794946 L 181.12129547377117,123.31306788302027 L 182.1326000513509,121.50609310739674 L 182.54201038135216,121.23997722496279 L 183.55942562012933,121.15333371376619 L 184.19798349775374,120.72010789532214 L 183.73968836525455,120.24354349658825 L 183.1836235895753,119.22846722928807 L 182.4014665596187,118.64352584956214 L 180.09471435565501,119.64626702084206 L 179.35227621137165,119.42034724494442 L 179.50809657387435,118.95611673337407 L 178.94897646759637,118.63424084661528 L 177.2991139749065,118.38354376703501 L 177.4549343374092,118.9251674672123 L 176.76138099562377,119.1603801397141 L 176.97830737079494,119.5348549967166 L 177.2991139749065,119.68340413272381 L 178.1851512340363,119.68030938366428 z" /><path fill-rule="evenodd" fill="#D2EBD9" stroke="#A6A6A6" stroke-width="0.25" opacity="1" d="M 138.42957530426793,123.57295553851873 L 138.8114879585337,123.62864511250518 L 139.96639168844558,124.84757102723233 L 139.7097464276012,124.35258879000321 L 139.7097464276012,123.57295553851873 L 139.34311031387188,123.20787386549637 L 139.25450658798218,122.86753471079282 L 139.45615642238408,122.69426790601574 L 139.96639168844558,122.82112417346798 L 139.85945616615936,121.88359737349674 L 139.31561260088347,121.26163799734786 L 137.63825239497237,120.46016573579982 L 137.80018334346823,122.19920765468851 L 138.42957530426793,123.57295553851873 z" /><path fill-rule="evenodd" fill="#D2EBD9" stroke="#A6A6A6" stroke-width="0.25" opacity="1" d="M 172.27619919925928,123.57295553851873 L 171.79040635330603,123.74621122935787 L 171.61625419463962,124.2226530245971 L 173.29666973114945,124.60626944154501 L 173.68774826498702,125.13217770284973 L 173.94439352559857,124.84757102723233 L 174.18881761399098,125.39203080534935 L 173.94439352559857,125.9364690433722 L 174.19187290710397,126.11588146165013 L 175.12373971310444,125.63950541126542 L 176.474182728678,125.62094498099759 L 177.01802629395388,124.84757102723233 L 177.2991139749065,124.84757102723233 L 177.66575008863583,125.48483432852663 L 178.33180567948148,125.37965699029155 L 179.72502291132696,124.2226530245971 L 179.96333641326055,123.38113418640569 L 179.70974640804343,122.30440949322656 L 179.17812405270524,121.31424264609814 L 178.57622976764105,120.72010789532214 L 178.31652917619795,121.13167276862077 L 177.812404534081,121.00170625699684 L 177.76657502446324,121.45039485697635 L 177.2135655421298,121.98570739105344 L 176.76138099562377,122.01355544826947 L 177.01802629395388,121.23997722496279 L 176.76138099562377,121.23997722496279 L 176.15032083145343,122.23633781494573 L 175.68591507477686,122.61382182128727 L 174.53101130761206,122.14970065490343 L 173.15001528570428,122.27965618809685 L 172.6367247265298,122.53956349589862 L 172.48701498797163,123.43373064813204 L 172.27619919925928,123.57295553851873 z" /><path fill-rule="evenodd" fill="#D2EBD9" stroke="#A6A6A6" stroke-width="0.25" opacity="1" d="M 137.37855180352926,125.03937183436938 L 137.66575007047504,125.09505540784448 L 138.42957530426793,124.84757102723233 L 137.17079134541564,122.30131530412473 L 136.6330583661329,121.7814865889959 L 134.84265201422386,121.23997722496279 L 133.96272534155287,122.07543979841284 L 133.53498321515508,121.7814865889959 L 132.5786740265321,123.11814891477115 L 132.64283533231355,123.54511066619307 L 133.8160708961077,123.57295553851873 L 133.58386801788583,124.08034096239135 L 133.70608004322276,124.43921197392046 L 134.06355027738027,124.56295844609849 L 134.56156433327124,124.35258879000321 L 134.56156433327124,124.84757102723233 L 135.32844486017711,124.61245669913478 L 135.12985028140247,125.36109617073089 L 134.56156433327124,125.9364690433722 L 135.7592422796879,125.72612047288567 L 136.1197678069584,126.16537415725179 L 136.52306751324795,124.92800393304788 L 137.08524291263893,124.61864395393059 L 137.37855180352926,125.03937183436938 z" /><path fill-rule="evenodd" fill="#D2EBD9" stroke="#A6A6A6" stroke-width="0.25" opacity="1" d="M 171.61625419463962,124.84757102723233 L 171.14879318256862,125.20642195362598 L 171.61625419463962,126.57058869488537 L 171.43904674286023,127.57274757395498 L 171.56125880568288,127.88513409509324 L 172.1234341673553,127.98410658421926 L 172.91781240748242,126.70050229690969 L 172.89336998737417,125.9364690433722 L 172.3678582557477,126.16228084056638 L 172.05621753097512,125.88388222130015 L 171.61625419463962,124.84757102723233 z" /><path fill-rule="evenodd" fill="#D2EBD9" stroke="#A6A6A6" stroke-width="0.25" opacity="1" d="M 79.12312865629792,135.8130781534128 L 79.87473267992027,135.4483177489601 L 80.415520952316,134.64457522402517 L 80.37885732203722,133.8469700787682 L 79.3797739171423,133.48215886601247 L 77.7024137112312,134.28596765128896 L 75.90589673561044,134.77441366179846 L 73.91384051181376,135.62142555834725 L 73.00030553946272,136.2921982810367 L 73.11029639234766,136.87639383319765 L 75.11762908194214,136.6445730959531 L 75.6767491879873,136.87639383319765 L 75.90589673561044,136.59202651353553 L 76.6513901730068,137.42038505338132 L 76.99663919722661,137.35856892471202 L 77.56186985201202,136.87639383319765 L 78.18820655718446,136.70948327612132 L 79.12312865629792,135.8130781534128 z" /><path fill-rule="evenodd" fill="#D2EBD9" stroke="#A6A6A6" stroke-width="0.25" opacity="1" d="M 102.14787659351714,134.28596765128896 L 103.19584480114281,133.8717027117964 L 103.02780326642096,133.22245701472275 L 102.8230981011875,133.01840216992423 L 101.96761381113902,132.8019771578256 L 101.18545678118244,132.14649808825925 L 100.58661778923124,131.92387559334747 L 99.87473268900067,133.04931975645013 L 99.32783379289322,133.4543339284137 L 99.58447909122333,134.90425086789764 L 99.76168654300272,135.25356895080768 L 100.86465017707087,136.09746108576655 L 101.22823099745438,136.8702120112721 L 101.37794073601253,137.91490446054377 L 101.63458603434265,137.91490446054377 L 101.63458603434265,137.11130168638192 L 102.20287198247388,135.68015808146447 L 102.2945310389623,134.81151011725888 L 102.14787659351714,134.28596765128896 z" /><path fill-rule="evenodd" fill="#D2EBD9" stroke="#A6A6A6" stroke-width="0.25" opacity="1" d="M 95.69508099323139,143.64390402613208 L 97.41827070876025,143.82000227132812 L 98.20653836242855,143.5635778189171 L 98.5334555527661,142.98892338364385 L 98.62816990260035,142.17942523700185 L 98.27986558526754,141.56763694970869 L 97.1463489071466,141.4687596685253 L 96.99663916858844,141.16594367381185 L 96.09532540640794,140.74260864662938 L 95.99755576369353,140.504670340335 L 96.22364805568941,140.27908883313648 L 97.25328446691856,139.985518531641 L 98.02322028693743,140.24509676382877 L 97.54659335780889,139.60850363527425 L 96.99663916858844,139.20675555896014 L 97.8490681280382,138.34759487351403 L 97.5282615616452,137.4605654082261 L 95.99755576369353,136.09746108576655 L 95.34677667589858,135.17010434297845 L 95.00763827562332,134.96607769676484 L 93.52276198705658,134.56728988629766 L 91.94622671720572,134.99699104763567 L 90.84631837625057,135.8130781534128 L 90.30553010385484,136.59202651353553 L 89.0253590180073,137.78509476501495 L 89.0253590180073,139.72593556414358 L 89.28200427885167,141.04852351895534 L 89.81973725790158,141.81482726125978 L 89.79529483779334,142.3462720704265 L 90.80965474597178,141.72213140525855 L 91.21906507620588,141.7035921702627 L 91.35960893542506,142.3462720704265 L 91.6162541960366,142.30919514177367 L 91.87289949436672,141.8024678407237 L 92.1753743023146,142.29683618224226 L 91.87289949436672,143.05689446651377 L 91.87289949436672,143.64390402613208 L 92.1020470794756,143.89723769761622 L 93.91995110712014,144.67574754171073 L 94.2010388255585,144.4162489057053 L 94.2010388255585,144.15674560028128 L 93.75496486527845,143.63463566219434 L 94.06049496633932,142.98892338364385 L 94.54934310540557,142.78191862045787 L 95.69508099323139,143.64390402613208 z" /><path fill-rule="evenodd" fill="#D2EBD9" stroke="#A6A6A6" stroke-width="0.25" opacity="1" d="M 69.48059884854592,141.8024678407237 L 68.95814237254672,141.96313940710388 L 68.70760769792832,141.8024678407237 L 68.70760769792832,140.764239189215 L 68.38069050759077,139.05532451882027 L 68.57928508636542,138.55157295870595 L 69.93889398127794,137.0896656170953 L 70.699663921725,136.55184370372444 L 71.55209288117476,136.33238182589412 L 71.55209288117476,136.09746108576655 L 70.9654750993941,135.9614525726065 L 69.59364499454387,136.16237376863137 L 68.65566760231741,136.8949393213261 L 67.73907729936764,137.2658441902604 L 67.6840819104109,138.40631613507867 L 66.44668500334956,140.21419484028593 L 64.58906201506034,141.16903369501233 L 63.86801099777222,141.74067061650567 L 63.559425603598356,142.2165024606511 L 63.66025053965859,142.76029110397212 L 64.23464711150154,143.6068304590881 L 66.15337611245923,144.84874408645555 L 66.86831654352136,146.26662041130476 L 67.92545066797175,147.30754450056702 L 69.06202260148712,148.036456230795 L 69.75557594303973,148.02410208946094 L 70.43385274405591,147.5639031655155 L 71.00519402278587,146.84114551753737 L 71.4054384357296,145.89594708150253 L 71.55209288117476,144.79313827306032 L 70.8768713735044,143.91268472583033 L 70.13137793610804,141.9446004817728 L 69.89917509560473,141.75920980400406 L 69.48059884854592,141.8024678407237 z" /><path fill-rule="evenodd" fill="#D2EBD9" stroke="#A6A6A6" stroke-width="0.25" opacity="1" d="M 156.95692027243786,144.4162489057053 L 157.39688360877335,144.01463467790745 L 157.36327530932613,143.76748198783025 L 156.61472654133104,143.19283563713543 L 155.8783990207594,143.21137296198867 L 154.67766574397683,143.85707533173263 L 153.68163763196208,145.1391264796257 L 153.36694165179506,145.27504816860892 L 152.85365109262057,144.913617241662 L 152.32508403039537,145.50981902773492 L 151.7445768348407,145.8249003160745 L 151.3321112114936,146.27588713844307 L 151.2954476189334,147.26739152008668 L 151.57042471366003,148.26809431565925 L 152.06232814583927,148.91357329837047 L 152.81393216946162,149.2656408289913 L 153.88023221073672,149.36446526483633 L 154.97708525857888,149.11122626182623 L 155.28261535963975,148.49972879211418 L 155.16345862741582,146.72686005267315 L 155.39260617503896,145.91448099981062 L 156.95692027243786,144.4162489057053 z" /><path fill-rule="evenodd" fill="#D2EBD9" stroke="#A6A6A6" stroke-width="0.25" opacity="1" d="M 271.46348917041905,148.9537217845209 L 271.1579590693582,149.33975923690014 L 271.3229453111999,149.50652428437024 L 272.1753742706496,149.3274061884731 L 271.46348917041905,148.9537217845209 z" /><path fill-rule="evenodd" fill="#D2EBD9" stroke="#A6A6A6" stroke-width="0.25" opacity="1" d="M 219.7311335154809,102.22680471418425 L 217.7879621319007,103.59642638266087 L 217.4274366046302,103.63051012530923 L 217.0546899046749,104.854367232183 L 215.37427436816506,107.16234072158113 L 215.09318668721244,108.7017952078022 L 214.68683165032417,109.35221456247382 L 212.91781242541037,111.20418474078178 L 210.34524900605902,112.51712984638289 L 209.4469905369915,113.56986912456341 L 207.6932477778755,113.81136811478063 L 207.89489764976315,114.46463189274073 L 206.84387411130592,115.65652353689075 L 206.33669417607598,116.02180930133909 L 205.44454629323445,116.02180930133909 L 205.18179040867835,116.16420610505156 L 205.05346775939688,117.34356512129307 L 204.1796517104376,118.1142712647561 L 202.0562175444793,119.07062842370942 L 201.23128629825078,119.94026648392901 L 198.50290255388245,124.98987508402206 L 197.84295754949562,126.85206659999676 L 197.34188820025884,127.74904579040594 L 197.6046440473292,128.25627723312937 L 197.34188820025884,128.7634901413694 L 197.3174457801506,129.31707326415926 L 196.73693858459592,131.22815750539303 L 194.66849984508008,135.176286944421 L 194.5249006927479,135.6956139660906 L 194.43324167374521,138.0879822159186 L 193.21723189367913,140.764239189215 L 194.98319586296566,142.16706612845883 L 195.67369387391955,142.3462720704265 L 195.67674916703254,142.68922897079028 L 194.77543540485203,144.67574754171073 L 193.1011304545682,147.0079388944432 L 192.61533760861494,147.24885935266502 L 190.92881148587912,149.0834314674139 L 190.4613504363224,150.76955411024392 L 191.22212037676945,151.3408158835955 L 192.61533760861494,151.1771593587473 L 194.00855484046042,150.66147509845905 L 195.03208066546358,149.85857767704874 L 195.8264589055907,150.14886098145507 L 196.06171707692556,150.4453146730084 L 195.93339446536265,150.77881800406612 L 194.77543540485203,151.54461202817038 L 195.14207151834853,152.06952872523107 L 195.8020165229682,152.19303582818247 L 195.8020165229682,151.9552837202791 L 196.67583257192746,151.93984514195472 L 197.1402383283712,151.67429905664176 L 197.8490681357216,150.66147509845905 L 199.04980141250417,149.75358018046245 L 199.58142376807518,148.62017726735212 L 199.77390772290528,147.72142251743935 L 200.46135044074617,147.26739152008668 L 201.7231897301972,145.32447395077907 L 203.66941644460894,143.22373117809184 L 205.18179040867835,141.9446004817728 L 206.0708829984069,140.77659950079396 L 206.58722885046154,139.34273308771662 L 206.29086466645822,138.55157295870595 L 204.02688664128073,137.42038505338132 L 204.43935230188072,136.41893055755645 L 204.42407576134428,135.9212679762859 L 203.82523680687882,134.88570277416147 L 204.18576229689643,132.8019771578256 L 204.88848151778802,132.13722224533558 L 205.28567063785158,131.41368570248596 L 206.71555149974301,131.92387559334747 L 207.0516346071381,131.77545863040723 L 208.40818820870481,130.62517376919277 L 208.43263062881306,130.35923420335166 L 208.1820959544275,129.91392868827097 L 208.40818820870481,129.56757011893205 L 208.7106630166527,129.39129502372816 L 209.17812406620942,129.56757011893205 L 210.0580507388804,129.15007286518812 L 211.86373359407298,127.63769983197562 L 212.53284447803162,126.69122278084978 L 212.04399633896537,126.88299788441509 L 211.66208372218534,126.58605466131121 L 211.55209290678613,126.15300100017339 L 212.33119464362971,125.7446807611268 L 212.7650473562535,125.2806658030022 L 212.98197373119183,124.67742288741283 L 212.78948977636173,124.09271598793566 L 213.26611670525745,123.66577134397812 L 213.36999693443067,122.55193991796114 L 214.07271615532227,122.30131530412473 L 214.77543537621386,121.7814865889959 L 214.86098380899057,121.36994145484641 L 214.73266115994193,121.1966555386316 L 213.79162847436965,120.46016573579982 L 214.47601589909755,120.14760965271853 L 214.86098380899057,119.68030938366428 L 215.34983194805682,119.8721829818096 L 215.7897952843923,119.75767808849923 L 216.0158875763882,119.4141576255206 L 215.88756492733955,118.90350295393728 L 216.88664833223447,118.64352584956214 L 216.88664833223447,118.38354376703501 L 215.493431100389,118.12355662626214 L 215.36205315799452,117.91927749710158 L 215.54842652683146,117.02784135914408 L 215.98838986316696,116.5263825324364 L 216.20837153145112,115.15191747131757 L 216.65750078461133,114.72469004802406 L 216.15032081189565,114.44605612405576 L 215.73174460232258,115.06213893485256 L 215.37427436816506,115.24169540358707 L 215.02597005083226,115.03118068142794 L 215.42010387755,114.16741633159108 L 217.32661166856997,112.02169416379184 L 218.50901314918883,109.04249508073553 L 219.2422853766475,108.38586560520343 L 220.49801407987252,106.36001784144901 L 220.947143295547,103.36713331565261 L 220.9288114993833,102.55218050791882 L 220.69660862116143,102.0687620646786 L 220.2933089148719,101.9479046270717 L 219.7311335154809,102.22680471418425 z" /><path fill-rule="evenodd" fill="#D2EBD9" stroke="#A6A6A6" stroke-width="0.25" opacity="1" d="M 60.71494042035192,153.25206736801192 L 60.919645585352555,151.99233626574278 L 61.197677973192185,151.4581534184981 L 61.74152153870091,151.1771593587473 L 61.74152153870091,150.8961599811446 L 60.65383440768346,151.5322608561255 L 59.41643753810786,154.23693018965423 L 57.89489765721373,154.54873847099952 L 58.408188216388226,155.06428846134804 L 57.14023834047839,155.86073213932104 L 56.86526124575175,156.37315035797656 L 57.38160709803924,156.6416999520734 L 57.89184236410074,156.22498301696032 L 59.80140544823371,155.96568668773398 L 60.22303698817268,155.19394496409222 L 60.71494042035192,153.25206736801192 z" /><path fill-rule="evenodd" fill="#D2EBD9" stroke="#A6A6A6" stroke-width="0.25" opacity="1" d="M 63.813015608815476,152.73336744424887 L 63.559425603598356,152.73336744424887 L 63.48609838099219,153.2705920226872 L 62.511457395972684,153.48979881359264 L 61.662083729635924,155.4964724194724 L 60.69049803796224,156.53057657834142 L 59.94500460056588,156.90098470938392 L 60.22303698817268,157.1386584788561 L 59.66391691961326,157.2713837667834 L 59.68835930223577,157.65720647992566 L 60.60800489829853,157.33620265568607 L 62.29758631414734,157.33620265568607 L 63.046135044656694,156.6416999520734 L 63.678582335822284,154.85436605964787 L 63.813015608815476,152.73336744424887 z" /><path fill-rule="evenodd" fill="#D2EBD9" stroke="#A6A6A6" stroke-width="0.25" opacity="1" d="M 48.90314697450958,161.58586791856214 L 49.040635503130034,160.953276618151 L 49.4347693300806,161.04585261200555 L 50.05805074190721,159.40100282989442 L 49.086465012747794,159.43803702597506 L 47.96822487539612,160.4163249898702 L 48.12710053101182,161.58586791856214 L 48.90314697450958,161.58586791856214 z" /><path fill-rule="evenodd" fill="#D2EBD9" stroke="#A6A6A6" stroke-width="0.25" opacity="1" d="M 85.95172624965198,142.3462720704265 L 86.46501680859365,142.03111531375907 L 86.81943171238527,141.558367254911 L 86.9355331514962,140.9496426731348 L 86.72166210692376,140.24509676382877 L 86.46501680859365,140.24509676382877 L 86.3825237066485,140.86930144298822 L 85.67063856869936,141.68505287333392 L 85.21845402219333,142.76029110397212 L 84.38741215225309,143.64390402613208 L 83.39749466418289,144.18763908860274 L 81.35044301394373,144.36682004015893 L 80.40635503525846,144.79313827306032 L 78.75343721196987,145.95154868997633 L 77.7024137112312,147.13766578119248 L 77.21356553467922,149.0834314674139 L 77.21356553467922,151.41492390609346 L 77.63825236796401,150.52869121870026 L 77.7024137112312,149.48181845620275 L 77.90406354563311,149.02475340431556 L 78.7839902183041,148.7776853465475 L 79.10479682241566,148.04263327852823 L 79.37060800008476,148.10440376517363 L 79.63336388464086,148.46884441096336 L 79.75557594769634,148.9537217845209 L 79.5539260758087,149.34593573817983 L 78.66788877919316,150.19209418445826 L 77.89184237318113,152.3288924661465 L 77.30522459116764,153.20575557393022 L 76.6513901730068,153.7707492907066 L 76.19003974716179,153.88498036679812 L 74.885426241206,153.48979881359264 L 74.10326917376369,153.97759956866503 L 73.88023221236654,153.48979881359264 L 73.46776658925228,153.73678849753924 L 73.15612590196542,153.73678849753924 L 72.06538344034925,153.25206736801192 L 69.39810570888221,153.36630240431987 L 68.96425299625844,153.25206736801192 L 67.9865566806402,151.3253766670823 L 67.1707913512364,150.8961599811446 L 66.51084634684958,151.0382042643614 L 65.22761993017048,151.78854621876962 L 64.58295142883435,151.67429905664176 L 64.34769325749949,155.19394496409222 L 64.45768411038443,155.42855860292912 L 65.22761993017048,156.3608031286858 L 66.19920562207699,156.41636556154117 L 66.91414605290629,156.90098470938392 L 67.09440879779868,156.4101919848472 L 67.35410938947462,156.26202500751242 L 67.91322945803404,156.6416999520734 L 68.19431713875383,158.19425534224138 L 68.06599452719092,158.64178154873662 L 68.27375498530455,159.157191980863 L 69.4653223452624,160.71874836622737 L 70.38802323443815,162.48996534873731 L 71.98900092463009,164.0696942836512 L 72.57561870641075,164.45534576755017 L 74.885426241206,165.2111948474776 L 74.91597924754024,164.98907159036025 L 77.74824322084896,163.4742295187898 L 78.75343721196987,163.3970950676594 L 78.49068132741377,162.71521001728252 L 78.98564009019174,161.17545799561776 L 78.93675528769381,159.7343075077515 L 79.01008251029998,159.03065572935157 L 79.26672777114436,158.45351353287697 L 78.91231286758557,157.75597552815452 L 79.03452489292249,157.2713837667834 L 79.8930644763168,156.50279559753835 L 80.21998166665435,155.9039488111157 L 79.92972810636275,154.9963726932183 L 80.03055300470442,154.54873847099952 L 80.28719830303453,154.82349487300962 L 81.0571341230534,154.54873847099952 L 81.74763213377446,154.94080505962484 L 82.81698746839538,155.20629311166704 L 83.42804767051712,155.21246721944772 L 84.01772074541077,155.0118081169203 L 85.24289644230157,154.0763926974032 L 85.67063856869936,152.73336744424887 L 86.1350443251431,152.10349327302538 L 87.10663001704961,151.43962647300214 L 87.49159792694263,150.8961599811446 L 87.49159792694263,149.60225891205482 L 88.5120684588328,148.56458577420563 L 88.82370914611965,147.92526862351224 L 89.28200427885167,145.95154868997633 L 89.9297280733008,145.71987395035103 L 90.06416134629399,145.06189768691547 L 89.09563094750047,143.28243253193796 L 89.01313780783676,142.50693758600391 L 89.28200427885167,141.56763694970869 L 86.96914148842916,142.48221991886385 L 85.95172624965198,142.57800061488524 L 85.95172624965198,142.3462720704265 z" /><path fill-rule="evenodd" fill="#D2EBD9" stroke="#A6A6A6" stroke-width="0.25" opacity="1" d="M 41.41765963239595,160.92858962481841 L 41.6162542111706,159.41951993922703 L 41.41765963239595,158.9473263763357 L 41.71096852328628,158.14178590849042 L 41.597922414774075,157.212737852009 L 41.17323558148928,156.44105991884135 L 40.52551178704016,156.12311712140217 L 40.18637338653207,156.58922513900325 L 39.24228537059389,159.36088231788017 L 38.68622059491463,160.21573479333892 L 38.59456157591194,161.05819600005634 L 38.85731746070087,162.88182727620006 L 38.447907130466774,164.79779623588547 L 38.46012834063731,165.62149752420373 L 39.11396272131242,165.98860123124905 L 40.140543839661404,164.952050719643 L 40.53467766637914,163.65935053909197 L 41.03880234621465,162.79851887188852 L 41.41765963239595,160.92858962481841 z" /><path fill-rule="evenodd" fill="#D2EBD9" stroke="#A6A6A6" stroke-width="0.25" opacity="1" d="M 59.94500460056588,158.9473263763357 L 58.05071801948361,158.7899252551142 L 56.1014360121917,160.39163709268905 L 54.59517263434827,162.6442429018207 L 54.026886648731306,164.45534576755017 L 54.56156433490105,166.24155843094923 L 55.58509015990421,167.9257787298411 L 56.08921480225399,168.41620441246778 L 57.24411856941879,168.8788561397232 L 59.43476933450438,169.35074681602418 L 61.17934617679566,168.4316263536457 L 62.41368775325827,167.09911451861262 L 63.19584478321485,165.4703346141614 L 63.559425603598356,163.6562652143184 L 63.504430214874446,161.21248793089762 L 62.93614422925748,159.63863747776486 L 62.294531021034345,158.54610465560108 L 61.506263367366046,158.04919228306971 L 60.71494042035192,158.9473263763357 L 60.241368784569204,158.8084431453608 L 59.94500460056588,158.9473263763357 z" /><path fill-rule="evenodd" fill="#D2EBD9" stroke="#A6A6A6" stroke-width="0.25" opacity="1" d="M 48.77482432546094,174.29087542835623 L 49.05896733701229,173.74513132334687 L 48.48762605828233,172.53332774341106 L 47.10662999888882,170.63989259209484 L 45.493431098992005,169.1040083663538 L 44.906813316978514,168.04298878228292 L 45.17262453236617,167.13921492081136 L 45.523984105326235,166.676511853002 L 45.530094729037955,166.26932178088464 L 45.25511763431132,165.9454130025115 L 44.77849070541561,165.7510645093862 L 44.34769324841909,166.13975910795853 L 43.92911703907885,166.2508128990885 L 43.23861902812496,165.98860123124905 L 43.21112131490372,168.08308676700108 L 41.4421020525042,168.5673388291616 L 41.313779403222725,169.19653573818505 L 41.69874735083431,170.76941813761368 L 41.552092905389145,171.07164037623443 L 40.65383439860307,171.70073750359006 L 39.90834099892527,172.99585908581503 L 38.93981060013175,173.29187208320946 L 38.55178735964,174.42653773422353 L 38.32569510512985,174.54986613756046 L 37.830736342351884,174.29087542835623 L 37.134127707686275,176.00198651617393 L 37.3999389228411,177.70366804581136 L 38.39902232796885,179.12776405829936 L 39.90834099892527,180.0000383767765 L 41.057134142378345,179.69181956071407 L 41.41765963239595,180.0000383767765 L 41.72624506405555,179.4051708553452 L 42.18759548966773,178.96440007397905 L 42.27314392244443,178.48971050581895 L 42.859761704457924,178.41573166148737 L 42.981973729794845,177.80539333936758 L 43.868011026410386,177.2412723256275 L 44.1827070065774,176.35343545116484 L 45.31011306075379,175.8632545429282 L 45.035135966259986,175.57962106447667 L 45.54231593897566,175.04008705518208 L 46.39168960554525,175.36380964959972 L 48.77482432546094,174.29087542835623 z" /><path fill-rule="evenodd" fill="#D2EBD9" stroke="#A6A6A6" stroke-width="0.25" opacity="1" d="M 2.3403605411294848,189.3332590968348 L 2.9391995328478515,189.0190526859369 L 4.136877479031682,187.78065263456665 L 3.3577757424209267,187.06283171847463 L 2.560342209180817,186.87489925674163 L 0.6477237944491208,187.02586154802702 L 0.0,187.33394365548156 L 0.24136879504658282,188.0240270292852 L 1.289337002672255,189.3332590968348 L 2.3403605411294848,189.3332590968348 z" /><path fill-rule="evenodd" fill="#D2EBD9" stroke="#A6A6A6" stroke-width="0.25" opacity="1" d="M 11.591811815043911,200.7701396739576 L 13.000305550172925,200.36071004159749 L 13.51665140222758,199.71730137662962 L 13.513596109114587,199.20933044864796 L 13.150015288731083,198.03632307285443 L 12.875038194004446,197.7961701080203 L 11.549037598771974,197.54677696852013 L 11.078521255869418,197.64838201529346 L 10.461350467754528,197.09416546090506 L 9.196455847471952,197.18345709587447 L 8.518179046688601,196.8509204138536 L 7.467155508231372,197.64838201529346 L 6.190039715496823,198.1656348509714 L 6.251145765883848,198.67979355691932 L 7.2349526677280664,200.7701396739576 L 7.5404827310703695,200.5885141871404 L 7.882676462177187,201.83830597507767 L 8.518179046688601,202.06301284069195 L 8.38985639740713,202.36159155960195 L 8.518179046688601,202.83561336109415 L 8.988695389358327,202.654009076301 L 10.308585398597643,201.5243272103835 L 11.591811815043911,200.7701396739576 z" /><path fill-rule="evenodd" fill="#D2EBD9" stroke="#A6A6A6" stroke-width="0.25" opacity="1" d="M 22.917812414932996,204.64539845148101 L 24.201038831379265,204.14988035988063 L 23.43110297410749,203.8697988120839 L 22.661167154088616,204.14988035988063 L 22.389245352707803,202.9864358152263 L 22.089825875591487,202.46932489052415 L 21.61319890897721,202.06301284069195 L 21.35655364813283,202.83561336109415 L 20.80965475202538,202.3431228925474 L 20.076382524799556,202.29387310775928 L 21.22823099908419,203.22651789686643 L 21.35044302442111,203.53738860297017 L 20.864650178467855,204.38686899864115 L 20.992972827749327,204.9223901706282 L 21.744576851371676,205.2732401851099 L 21.099908349802718,205.67947895056568 L 20.232202887069434,207.16278798994608 L 20.336083116242662,207.91670529870316 L 21.35655364813283,208.54135581641458 L 22.147876595146954,208.54135581641458 L 22.147876595146954,208.28288233024068 L 21.22823099908419,207.86131651699543 L 20.864650178467855,206.86121222213842 L 21.194622699636966,206.54732190840878 L 22.322028716094792,206.15956748533063 L 22.147876595146954,205.67947895056568 L 22.917812414932996,204.64539845148101 z" /><path fill-rule="evenodd" fill="#D2EBD9" stroke="#A6A6A6" stroke-width="0.25" opacity="1" d="M 428.59455078910105,24.932079735212028 L 428.598176894011,23.654893615515903 L 430.6417380464263,23.800617469707504 L 430.85576159274206,22.290993683505803 L 427.25504781026393,22.001174482982606 L 425.55731640569866,22.158618347952142 L 424.54934310377575,23.347545235184953 L 424.03605254460126,23.544098943239078 L 422.7125455911737,25.218851454323158 L 422.7108616507612,25.846335721900687 L 423.01203076937236,26.24212124478072 L 424.14985158876516,26.825634979410097 L 425.7072043258231,26.783005827805027 L 426.5658417476807,26.92550286022015 L 429.0315454828087,26.164708603406325 L 428.59455078910105,24.932079735212028 z" /><path fill-rule="evenodd" fill="#D2EBD9" stroke="#A6A6A6" stroke-width="0.25" opacity="1" d="M 414.8285284114536,38.620461764512584 L 413.9617137068417,37.6843758772593 L 413.0104852851946,37.637471727561206 L 412.69719103048556,37.81801904714666 L 412.68686148896813,38.07414574082941 L 412.7077929126099,38.420138572342694 L 413.06651394744404,38.963599452748895 L 413.0217697089538,39.49057020293549 L 412.05772580066696,38.81115894834511 L 411.84164265333675,39.143414589809254 L 411.9192151117604,40.007083574309945 L 413.12420428637415,41.30838927254081 L 413.62179684103467,41.475736542604864 L 414.1967632486485,41.26475930772722 L 414.772522876272,40.79677893128246 L 415.07813504734077,40.25189262093045 L 415.10860106535256,39.52809698297642 L 414.8285284114536,38.620461764512584 z" /><path fill-rule="evenodd" fill="#D2EBD9" stroke="#A6A6A6" stroke-width="0.25" opacity="1" d="M 399.4601929204073,61.169587501790375 L 399.0513682696037,60.738830253481865 L 398.90009165136144,59.99505403544754 L 397.4997837592382,59.443122188095 L 395.9535091065336,58.39214506279677 L 394.9648640442174,58.371719042537734 L 393.9965405855328,58.75581750017591 L 393.18667890224606,58.13846245361492 L 392.7650473623071,58.25975645752624 L 391.43770454777405,58.04783931095153 L 389.8453056688886,56.199339896207675 L 388.7249931283295,54.500756660010666 L 388.25170727376826,54.974370221374556 L 388.365620525321,56.026840154780075 L 387.91604885901324,56.56390436924994 L 387.46371984505095,56.65055380342528 L 386.40164247551,55.68568281386979 L 385.2811527668964,55.751434409525245 L 384.7645166281145,56.65588322351687 L 384.6352184477728,58.95942645822652 L 385.3530383554753,59.471075404435396 L 386.1220801509917,60.59301608428359 L 386.4666868429631,60.61397806741297 L 386.30165153183043,59.296590383630246 L 386.85552421514876,58.675474032061175 L 387.2226990410127,58.566696394467726 L 387.4158240519464,59.06166482809931 L 387.57066922076046,60.64977498236112 L 388.19473690725863,61.530201516347006 L 389.3293610820547,62.590801066253334 L 391.0293723179493,62.71714467438869 L 393.7018384162802,62.42679775133729 L 394.9083828320727,62.966342030325904 L 396.20403218013234,62.6982991034165 L 396.8408188286703,62.35501405620016 L 397.0974640895147,62.009911538800225 L 399.26694626850076,62.11690125660971 L 399.4601929204073,61.169587501790375 z" /><path fill-rule="evenodd" fill="#D2EBD9" stroke="#A6A6A6" stroke-width="0.25" opacity="1" d="M 111.80873816017993,178.4527211068198 L 112.35563705628738,178.21845310833305 L 112.95447601052001,177.66975948540494 L 113.32722274796106,177.05939302430488 L 113.21723189507611,176.64013809757307 L 112.62450352706946,176.57539924653247 L 112.06538345851004,176.90833919751458 L 111.39627253683284,177.93486093683168 L 111.0021387101151,177.42623218358494 L 110.2871983165387,177.58961164858192 L 108.83593036513776,178.4527211068198 L 109.37060801358894,177.1827012556605 L 107.15551482862793,177.41698422585614 L 107.0516345994547,178.1937931063585 L 106.62083718017675,178.7239746300038 L 105.87228841218166,178.96440007397905 L 105.45676749572158,179.62401066324674 L 105.97616867860779,179.7010662239045 L 107.16773603856564,179.36510126688518 L 107.38160708313808,179.4606516554486 L 107.15551482862793,180.08942074142396 L 107.7787962029688,180.2558555593714 L 108.49984725774266,179.8027790216729 L 109.42560344003141,179.61168173211627 L 109.86556677659974,179.02604704746045 L 110.4919034440536,178.7239746300038 L 111.80873816017993,178.4527211068198 z" /><path fill-rule="evenodd" fill="#D2EBD9" stroke="#A6A6A6" stroke-width="0.25" opacity="1" d="M 163.36694165621884,144.28649783227593 L 164.47296058339998,143.43381912447512 L 164.9068133335095,142.79118756810203 L 164.41185457073152,142.3462720704265 L 162.8780935171526,143.11868606251664 L 162.0776046535466,143.11868606251664 L 161.68958145030774,143.80455514439382 L 161.0388023252599,144.06097537698224 L 160.59272840246558,144.75606760010123 L 159.816681958735,145.00938188913278 L 159.03146959817968,145.95154868997633 L 157.84906815527938,146.87512209103443 L 157.49159792088903,147.26739152008668 L 157.39688360877335,148.21250153076835 L 156.82859762315638,148.30515609355643 L 156.40085549699143,148.56149736000225 L 154.65016806824133,150.12106813886203 L 151.52459516655654,150.78808185411617 L 149.25145126180723,151.99233626574278 L 147.80323864123784,153.02050711377524 L 147.16162543278188,153.1687060808763 L 146.65750079066493,152.99271963909268 L 145.39260617038235,153.7614872569684 L 144.7051634527743,153.96525037218817 L 144.06966086826287,153.7707492907066 L 143.34860985097475,155.119855676312 L 141.9003971926868,155.533516200725 L 141.5582034990657,155.8483844907023 L 141.50626336573623,156.3608031286858 L 140.69049803633243,156.08607482770458 L 139.8838985862676,156.2435040047858 L 135.6064772477839,159.23126150597818 L 134.56156433327124,159.23126150597818 L 134.40268867788836,159.47507116990164 L 134.32936145504937,160.28979918011464 L 134.02994194044732,160.3422612163704 L 133.53498321515508,160.0089698121883 L 132.5084020968061,160.52741999691352 L 131.48182097868994,160.52741999691352 L 131.22517568035983,161.30506232148036 L 130.27803240856156,161.80495443893597 L 130.2047051859554,162.36037101852708 L 129.153681647731,161.82346863951534 L 129.08646501111798,162.5763609628193 L 128.7503819039557,163.15643320628442 L 128.206538338447,163.52668068464845 L 127.50076382420957,163.6562652143184 L 125.31011305935681,164.69290230306797 L 125.10846318746917,166.13975910795853 L 124.79682250018232,166.79681596695445 L 124.15520929195918,166.62098655314185 L 123.00947144138627,166.89861104055308 L 122.46257258299738,167.253346251091 L 122.74366026371717,167.79622975131497 L 121.95539261004888,168.57350753294304 L 121.6987473492045,168.57350753294304 L 121.30461352248676,168.06149554252625 L 120.9104796955362,168.53649516007863 L 120.3971891363617,169.89355787145905 L 119.97555759642273,170.39625826082192 L 119.40727161080576,170.84034836734645 L 118.75649252324365,171.07164037623443 L 118.11182402167469,170.89894266054034 L 117.74824320129119,171.57738710124977 L 116.11365721165203,172.48707387805916 L 115.52092880615965,172.99585908581503 L 115.33761076815426,173.5077114100568 L 115.52092880615965,174.67319355369546 L 115.52092880615965,176.24245238886215 L 112.58783989679068,178.70548022678122 L 110.65383443026803,179.74113498651423 L 110.32386190909892,180.3298260497395 L 110.26886648265645,180.98013554979116 L 110.52856707409956,181.41777007933706 L 111.16406965861097,181.31914922362193 L 111.93706080922857,180.85069214482792 L 115.93339446675964,179.37743038428016 L 116.30003058048896,179.36510126688518 L 117.03330280771479,180.20037750038318 L 117.57409104262479,180.0000383767765 L 118.11182402167469,180.30825137533247 L 118.38680111640133,179.56236591469496 L 118.93064468191005,179.07536448840983 L 120.3971891363617,178.4527211068198 L 121.0815765610896,179.16166957467794 L 121.31377940182574,179.24797424161807 L 121.78124045138247,179.09077614848502 L 122.3403605199419,177.80539333936758 L 123.07363274740055,177.11179914418608 L 123.8985640311148,176.64013809757307 L 124.72960586380213,175.28981648990884 L 125.41093799518421,174.88901428761892 L 126.30919646425173,173.77288147737272 L 128.127100529382,172.99585908581503 L 130.71799574512988,171.1826593147125 L 130.3330277975183,170.43326626508497 L 130.61717080906965,169.7640251063276 L 131.2037885908503,169.41243086219765 L 131.73846623953432,169.60981807345524 L 133.23861903115176,168.99297477141954 L 133.67858236748725,168.70305009419098 L 134.32019553822465,167.3397153506521 L 134.84265201422386,167.53712861798704 L 135.8631225086283,166.73512166924775 L 137.4091048098635,167.290361616062 L 138.9214787739329,167.02508275723085 L 138.4448518450372,166.80607010587119 L 138.56400857726112,166.4574942740146 L 138.95814240397885,166.1305045739282 L 140.30553008895367,165.74797960091382 L 140.70882983272895,164.952050719643 L 141.3504430409521,165.4271449467633 L 142.41368775162846,164.17459243559279 L 143.63580811815336,164.0696942836512 L 144.13687750464305,164.21161512518302 L 144.34769325586967,164.69290230306797 L 145.63091967254877,163.91543097724207 L 146.21753745432943,164.3535347036086 L 146.60556065733545,163.93394268094562 L 147.30827987845987,162.48996534873731 L 150.01222120248713,160.8082398439292 L 150.247479373822,160.28979918011464 L 151.99205621611327,158.89177322085015 L 155.46593339764513,156.8114702445455 L 162.71616256865673,151.33464017603546 L 162.88114881026559,150.964094361756 L 161.29544762359,149.03710670606233 L 161.01130461203866,148.82401092280634 L 160.2597005884163,149.11740289675072 L 159.8380690482445,149.06798989651725 L 159.51726244413294,148.82401092280634 L 159.54476015735418,148.6047352112364 L 160.13443323224783,148.18470504065044 L 160.44607395702042,147.5484600001946 L 161.15490376437083,147.7275997356046 L 161.46043386519887,148.064253001241 L 161.80873818253167,147.74921988369897 L 163.2386190071702,145.6024907210376 L 163.36694165621884,144.28649783227593 z" /><path fill-rule="evenodd" fill="#D2EBD9" stroke="#A6A6A6" stroke-width="0.25" opacity="1" d="M 107.27161626773886,180.80138006643392 L 106.23586923256516,181.93551978608593 L 105.11457380233333,182.215960735688 L 103.5380384947639,183.07574442029 L 103.48609839892015,183.507160206791 L 103.64191872393712,183.8800176344812 L 103.94439353165217,183.90158766275272 L 104.69599755527452,183.507160206791 L 105.03513595578261,183.29145374102518 L 105.24595174449496,182.8661955455318 L 105.7378551766742,183.020275848452 L 106.1778185130097,182.83537931204773 L 107.039413389517,182.09577234834433 L 107.50076385284774,182.47174335597083 L 108.31652918225154,182.41010935674421 L 109.20562177198008,182.06495467340574 L 109.88389857276343,181.57802769145928 L 109.26978307776153,181.1249877109658 L 109.20256647886708,180.77055996097624 L 109.37060801358894,180.30825137533247 L 107.27161626773886,180.80138006643392 z" /><path fill-rule="evenodd" fill="#D2EBD9" stroke="#A6A6A6" stroke-width="0.25" opacity="1" d="M 78.97647421085276,186.2556314750109 L 79.25450656097382,185.9690968359355 L 78.9398105808068,185.2881721467711 L 79.25450656097382,184.44391003018245 L 78.22792544285767,185.19573675538413 L 78.18820655718446,184.62878862814978 L 77.80629394040443,184.41617809887975 L 76.64527958654799,184.44391003018245 L 76.64527958654799,184.67808922217228 L 77.41521540656686,185.19573675538413 L 75.51481820177287,185.85509779816493 L 73.87106629530899,185.9690968359355 L 75.12985029187985,186.77322999713942 L 76.11671252432279,186.58221335848793 L 78.12404521368444,186.66847921232693 L 78.73816070891917,185.9690968359355 L 78.97647421085276,186.2556314750109 z" /><path fill-rule="evenodd" fill="#D2EBD9" stroke="#A6A6A6" stroke-width="0.25" opacity="1" d="M 104.19187291315757,185.9690968359355 L 103.94439353165217,185.2511980442796 L 103.92911702860147,184.44391003018245 L 103.1836235912051,184.961564862635 L 102.90864649647847,183.64274569507688 L 102.38924535107799,184.0186815035995 L 101.64375191391446,184.9338337960653 L 100.85548426001333,184.961564862635 L 100.85548426001333,185.19573675538413 L 101.36877481918782,185.73801690223627 L 101.97983502107672,185.67331396462396 L 102.95447604358196,186.60686080157757 L 103.67247173027135,186.77322999713942 L 103.67247173027135,185.73801690223627 L 104.19187291315757,185.9690968359355 z" /><path fill-rule="evenodd" fill="#D2EBD9" stroke="#A6A6A6" stroke-width="0.25" opacity="1" d="M 85.15734800952487,186.11390525638126 L 85.67063856869936,184.15734417364 L 85.95172624965198,183.64274569507688 L 84.3996333621908,183.61809389479458 L 83.77024136390537,183.8830990958959 L 82.9819737477228,183.64274569507688 L 81.49098687316291,184.59181305835955 L 81.88206540676765,185.54390729777515 L 83.11029635951854,187.02586154802702 L 84.89764741808176,186.38503261841834 L 85.15734800952487,186.11390525638126 z" /><path fill-rule="evenodd" fill="#D2EBD9" stroke="#A6A6A6" stroke-width="0.25" opacity="1" d="M 75.90589673561044,188.9451209125109 L 75.77757408632897,187.5187901777681 L 75.29178124060854,187.30313570355065 L 74.24381303275004,187.26308526610956 L 73.79162848647684,186.99505302938633 L 72.83226400474086,185.19573675538413 L 72.600061126519,185.87666522408836 L 72.06538344034925,185.73801690223627 L 71.57348000817001,186.13239137968048 L 68.96425299625844,186.48978517996147 L 68.2340360621456,186.72701649996452 L 67.72991142002866,187.21687312144786 L 67.57714635063894,187.91928402544 L 67.91322945803404,188.81573951942846 L 67.59547814703546,188.70175984688103 L 66.91414605290629,188.0394303505309 L 66.62389245512895,188.17805960518308 L 66.45279562706128,188.06099496106617 L 66.40085549396463,187.52187096630223 L 63.559425603598356,188.81573951942846 L 61.57042471063323,188.97900633793324 L 61.23128631012514,188.9451209125109 L 60.98991751507856,188.5754571792204 L 60.45829515950754,188.59394054929726 L 59.92972809728235,188.98208682076074 L 59.52337306039408,190.1249101520516 L 59.120073354104534,190.67319149151444 L 58.151542955543846,191.40009897365235 L 57.085242914035916,190.91960427141748 L 56.5658417311497,190.85800141189247 L 56.87137183197774,191.40009897365235 L 56.523067514644936,192.02225781255402 L 55.96089215297252,192.5212004778441 L 53.90772991650738,193.1679562679492 L 53.302780338330194,193.65454691229388 L 49.79529485735111,197.77769663650542 L 49.379773903638124,199.0153740372043 L 48.530400237068534,199.32939762389287 L 48.25236788694747,199.6526513285935 L 47.87045523268171,200.4900046454277 L 46.40085548488423,202.54012073785998 L 45.57897953176871,203.19881627801806 L 44.26520014624111,205.44250744744204 L 41.86373359244317,206.811974898912 L 40.855484270490706,207.19663800275885 L 35.78368469211273,211.63659797096625 L 35.533150017727166,212.1626755236648 L 35.239841126604006,214.22069415589795 L 35.25206233677454,214.98354875529185 L 35.533150017727166,215.51260694023222 L 36.785823427839205,216.56452684174292 L 37.427436598576605,216.68140317918733 L 39.04674612241797,216.27848432492465 L 40.02138710743748,215.46954462421127 L 40.30553011898883,214.79899005498737 L 41.191567377885804,215.0143083606381 L 42.61533761606552,214.59597333637066 L 43.61136572808027,213.84233126975596 L 45.54231593897566,211.63659797096625 L 47.76657500350848,210.0305836442858 L 49.37366331741214,209.59675091365352 L 51.717079151654616,207.99978811549954 L 53.2844485421665,207.24895153054968 L 54.6410021437332,206.99661419540644 L 55.74702110863291,206.5134706753306 L 56.15643140114844,206.270355300745 L 56.48029333585873,205.53791195712984 L 57.6168652693741,205.44250744744204 L 58.79315612628125,204.01137902308255 L 60.22303698817268,202.83561336109415 L 60.53773296857253,202.28156063053757 L 60.71494042035192,199.99437018111348 L 61.13046137429774,198.29494563187473 L 61.74152153870091,196.8509204138536 L 62.84448521025479,195.4837579971645 L 63.046135044656694,194.78473902586848 L 63.813015608815476,195.32055345992558 L 64.10937979305163,194.65848145401105 L 64.6043385558296,194.16576019208878 L 66.51390163996257,193.5128827309236 L 66.87748246034607,192.97085233777761 L 67.38160710269585,191.47402002685703 L 69.38893982954323,190.6362292431295 L 70.25970058538951,189.81379879871383 L 70.5255117630586,189.3332590968348 L 70.76076993439347,189.3332590968348 L 70.85242899088189,189.9616544134915 L 71.13046137872152,189.98321656533517 L 71.93706082878634,189.59201295138337 L 72.74366027885117,189.58893254189752 L 74.48212649743073,190.16495374543592 L 75.21539872465655,190.19267620099708 L 75.72257869760506,189.8230397887528 L 75.90589673561044,188.9451209125109 z" /><path fill-rule="evenodd" fill="#D2EBD9" stroke="#A6A6A6" stroke-width="0.25" opacity="1" d="M 499.4897647339385,0.9349207242485136 L 499.8900091846008,0.8974005049094558 L 500.0,0.350214532809332 L 499.1200733270962,0.0 L 498.94897646154277,0.33458021515980363 L 499.4897647339385,0.9349207242485136 z" /><path fill-rule="evenodd" fill="#D2EBD9" stroke="#A6A6A6" stroke-width="0.25" opacity="1" d="M 384.3446379583329,71.57263732561842 L 383.68774824682623,71.54157179780304 L 383.50443020882085,71.90813991054893 L 383.62969752727076,72.60396695625968 L 383.8527344886679,72.78412983100861 L 384.38435688149184,72.64745476166718 L 384.7112740720622,72.13490942772478 L 384.6318362255115,71.75902882707305 L 384.3446379583329,71.57263732561842 z" /><path fill-rule="evenodd" fill="#D2EBD9" stroke="#A6A6A6" stroke-width="0.25" opacity="1" d="M 192.5145126725547,167.81473684078082 L 192.97280784277245,166.4574942740146 L 192.3739688510541,166.4513247362338 L 191.45737854810432,167.8980183219537 L 191.62542012054473,168.35760088986717 L 192.04705166071653,168.44396390323527 L 192.5145126725547,167.81473684078082 z" /><path fill-rule="evenodd" fill="#D2EBD9" stroke="#A6A6A6" stroke-width="0.25" opacity="1" d="M 430.8829819718376,25.95236724196002 L 430.68744272366166,25.022815210046247 L 430.07027193554677,24.573606671532616 L 429.4103269309271,24.4613015584182 L 429.1597922563087,24.891797999152914 L 429.3614420907106,25.528152206679806 L 429.86251147743315,26.020988697418943 L 430.5438435713295,26.080252314917743 L 430.8829819718376,25.95236724196002 z" /><path fill-rule="evenodd" fill="#D2EBD9" stroke="#A6A6A6" stroke-width="0.25" opacity="1" d="M 403.38527344795875,77.55435357359238 L 403.9352276371792,77.57919350964949 L 404.41796519001946,77.24384973221458 L 404.0452184525784,76.52345001371577 L 403.34860985539854,75.86511605768465 L 402.8169874625746,75.79058541357517 L 402.84448517579585,76.84639314562082 L 402.59700579429045,76.86812941147946 L 402.4931255651172,77.12896127649583 L 402.8903146851808,78.72177656344138 L 402.8628170094453,79.45756776584312 L 403.01252674800344,79.23714557802305 L 403.00947145489044,77.399102632422 L 403.38527344795875,77.55435357359238 z" /><path fill-rule="evenodd" fill="#D2EBD9" stroke="#A6A6A6" stroke-width="0.25" opacity="1" d="M 38.94897647970356,171.58047086559236 L 39.47448824881576,171.17340778838843 L 39.3247785102576,170.60905297868885 L 38.55178735964,170.22663723677397 L 37.876565851969644,170.57821334316395 L 37.91628477512859,170.91436217329465 L 38.215704252244905,171.28750983509235 L 38.60983807919547,171.6020572737325 L 38.94897647970356,171.58047086559236 z" /></g></g></g></svg>