<svg xmlns="http://www.w3.org/2000/svg" xmlns:xlink="http://www.w3.org/1999/xlink" width="500.0" height="298.0705395488767" viewBox="0.0 0.0 500.0 298.0705395488767" preserveAspectRatio="xMinYMin meet"><g transform="matrix(1,0,0,-1,0,298.0705395488767)"><g><g><path fill-rule="evenodd" fill="#D2EBD9" stroke="#A6A6A6" stroke-width="0.25" opacity="1" d="M 15.000322926789522,1.789818906225264 L 14.548214178532362,0.4546402561245486 L 14.043628506362438,0.0 L 13.506749333813787,0.2252737187081948 L 13.450235733762383,0.7618226205231622 L 13.870051031932235,1.2778764399699867 L 15.000322926789522,1.789818906225264 z" /><path fill-rule="evenodd" fill="#D2EBD9" stroke="#A6A6A6" stroke-width="0.25" opacity="1" d="M 64.48201253451407,2.137930855038576 L 64.48201253451407,2.887371065444313 L 64.76054380834103,3.0757497281301767 L 64.9018277823925,2.789085721713491 L 64.48201253451407,2.137930855038576 z" /><path fill-rule="evenodd" fill="#D2EBD9" stroke="#A6A6A6" stroke-width="0.25" opacity="1" d="M 353.5006135683507,216.99963363516144 L 353.88006196543574,216.5130518429214 L 354.03345601446927,215.9615829641698 L 353.6943744663149,216.44817369198427 L 353.5006135683507,216.99963363516144 z" /><path fill-rule="evenodd" fill="#D2EBD9" stroke="#A6A6A6" stroke-width="0.25" opacity="1" d="M 468.86100885272026,298.0705395488767 L 469.1677969004959,297.0429605640238 L 468.80449525266886,297.0470061885426 L 468.47348705492914,297.56888988718856 L 468.86100885272026,298.0705395488767 z" /><path fill-rule="evenodd" fill="#D2EBD9" stroke="#A6A6A6" stroke-width="0.25" opacity="1" d="M 14.289866279810667,20.017229493008927 L 15.763256447389722,18.82667098636739 L 12.263450238853693,16.555792509228922 L 8.59813985787332,16.649906889535487 L 4.58567457832396,15.405919207260013 L 1.340179543942213,15.25450669717975 L 0.0,18.61391656647902 L 1.1464186441153288,17.19821525143925 L 3.310082033276558,16.559884438407607 L 5.610992671921849,16.690826017293148 L 7.153006514534354,17.586930854129605 L 8.016857160255313,17.541922089643776 L 9.357036754488945,17.96745452506002 L 11.270425595343113,18.986235084943473 L 11.577213693410158,18.61391656647902 L 11.924368642270565,18.986235084943473 L 12.96583348698914,18.61391656647902 L 12.96583348698914,18.986235084943473 L 12.469321163371205,19.30945018620696 L 12.174643140286207,19.77585134736728 L 11.924368642270565,21.019526890013367 L 14.289866279810667,20.017229493008927 z" /><path fill-rule="evenodd" fill="#D2EBD9" stroke="#A6A6A6" stroke-width="0.25" opacity="1" d="M 3.794484281912446,20.332243432407267 L 3.6895304322242737,20.6758885596646 L 3.423109183087945,20.704525323817506 L 3.410999158397317,20.9377088539768 L 5.348608149215579,21.584060996421613 L 10.899050546810031,21.019526890013367 L 10.083640100434422,20.23405787756201 L 8.533552907407284,20.04586738580838 L 6.9753923658281565,20.266786473919638 L 6.135761769488454,20.704525323817506 L 5.506038872525096,20.3567897726316 L 4.379803653806448,20.520430892822333 L 3.794484281912446,20.332243432407267 z" /><path fill-rule="evenodd" fill="#D2EBD9" stroke="#A6A6A6" stroke-width="0.25" opacity="1" d="M 497.9978040102869,128.54174641508143 L 498.57908670790493,131.16184019797947 L 499.1038558036089,132.18294437776785 L 500.0,132.67110560811125 L 499.777982275933,131.576796386973 L 499.25724985450506,130.49463993310928 L 497.9978040102869,128.54174641508143 z" /><path fill-rule="evenodd" fill="#D2EBD9" stroke="#A6A6A6" stroke-width="0.25" opacity="1" d="M 456.06467507220805,254.82676955428906 L 455.70379647798836,254.9596242251573 L 455.72708923742175,255.1588984162081 L 455.98418124206364,255.20463864551857 L 455.8575558643788,255.3589061050443 L 454.5551234148443,255.50409838813357 L 454.274738650769,255.71281124220695 L 454.3561406787485,255.88522527285386 L 454.8716868571937,255.95782040106133 L 454.7269721403718,256.2119021693943 L 455.405322374776,256.8652468683431 L 456.854104982689,257.27271722781006 L 457.27572175860405,258.06451554538216 L 457.550216358155,258.25890082109254 L 457.65175324864686,259.70307916402817 L 458.70328032039106,259.7185159253422 L 459.1478439308703,259.26324516604654 L 459.31455528363585,258.66395132348407 L 458.9532602503896,257.91156846587546 L 458.89915012940764,256.9377483816352 L 459.0440630633384,256.71717774204444 L 458.791833024472,256.5552233476192 L 459.17522268369794,256.57546768756583 L 459.73320230282843,255.85175881930627 L 461.75321413204074,254.45403874502517 L 462.35689582675695,253.84834269224666 L 462.008617926389,252.4738394592423 L 462.1943661402911,252.1709754904732 L 462.33367730118334,251.02938743168488 L 461.9157438185066,250.9128967282595 L 461.77643265761435,250.35373585659545 L 462.2175846658647,249.37518239486963 L 462.2892849855125,248.69224480027333 L 462.6587366759777,248.39660091418773 L 462.82126636244357,247.6975969230989 L 461.9157438185066,247.6975969230989 L 461.1495324354619,248.09370094968472 L 460.2904469445348,249.77126692666207 L 459.8492949362844,249.93435922497883 L 459.5010170340538,249.70136998954695 L 459.12952060624957,249.8877615047386 L 459.36170587316155,250.7964056301862 L 460.18546053394675,250.79199942294508 L 460.52263221144676,251.0526855251519 L 459.9653875697404,251.79821619507857 L 460.03504315018654,252.21757011977024 L 459.8492949362844,252.54373076802585 L 459.36170587316155,252.59032489557285 L 458.4097462762147,253.9648235195782 L 457.73640899918973,254.0347118290374 L 456.43641473166645,254.8144296852406 L 456.06467507220805,254.82676955428906 z" /><path fill-rule="evenodd" fill="#D2EBD9" stroke="#A6A6A6" stroke-width="0.25" opacity="1" d="M 449.0489568989724,262.81045376032125 L 448.1407026797533,262.6160931669874 L 447.4504295065999,263.43806937825866 L 447.1234579831362,264.6325336903101 L 447.32125555723906,265.55568615323864 L 448.1447393540293,265.2844113151077 L 449.03281014971435,264.6568275113823 L 449.4929922968149,263.80248639255296 L 449.0489568989724,262.81045376032125 z" /><path fill-rule="evenodd" fill="#D2EBD9" stroke="#A6A6A6" stroke-width="0.25" opacity="1" d="M 471.7358021251857,271.2669767315965 L 470.4646388348192,271.45695301739033 L 470.0957434531301,271.8269007126801 L 469.72886921465397,272.9435217381688 L 471.08115883357823,273.2511731472332 L 471.78757875598967,272.60348310135305 L 473.1760198920965,272.1968447815161 L 473.56336004287004,271.7159167851787 L 474.0613688081503,271.9378843137529 L 474.68849095888436,271.8453980021877 L 475.1783944889903,271.2432978778379 L 474.37913079187274,271.20686366432346 L 474.23381014354527,270.2636101995595 L 473.79381141997874,269.85877311078366 L 473.18023522384465,269.8749666863587 L 472.48592532612383,270.16644969943445 L 472.01766982860863,270.6482013845816 L 471.7358021251857,271.2669767315965 z" /><path fill-rule="evenodd" fill="#D2EBD9" stroke="#A6A6A6" stroke-width="0.25" opacity="1" d="M 324.129690611735,138.45503004116472 L 324.3961118608713,137.91818639740814 L 324.145837360993,138.0849345906172 L 324.129690611735,138.45503004116472 z" /><path fill-rule="evenodd" fill="#D2EBD9" stroke="#A6A6A6" stroke-width="0.25" opacity="1" d="M 455.1282051205635,195.3794947701972 L 455.07976487092674,194.80327458318789 L 454.990957820788,194.62472507590428 L 454.982884420082,194.83168010925874 L 455.1282051205635,195.3794947701972 z" /><path fill-rule="evenodd" fill="#D2EBD9" stroke="#A6A6A6" stroke-width="0.25" opacity="1" d="M 454.1300239339471,254.88702703046147 L 454.6817487925291,254.53311354864854 L 454.63652544282377,254.46051546826493 L 454.09384525567293,254.6692345426418 L 454.1300239339471,254.88702703046147 z" /><path fill-rule="evenodd" fill="#D2EBD9" stroke="#A6A6A6" stroke-width="0.25" opacity="1" d="M 455.92991322278976,254.4242163716117 L 456.31883402355015,254.106597664766 L 456.2464766651392,253.86157554294914 L 455.8575558643788,254.18827132263687 L 455.80328784510493,254.3697676557349 L 455.92991322278976,254.4242163716117 z" /><path fill-rule="evenodd" fill="#D2EBD9" stroke="#A6A6A6" stroke-width="0.25" opacity="1" d="M 461.0193489138037,256.40336971811485 L 461.1423564236611,256.35981321090367 L 461.22918525338173,255.8661690269364 L 460.541790349409,256.1347703980282 L 460.6286191791296,256.44692617154215 L 461.0193489138037,256.40336971811485 z" /><path fill-rule="evenodd" fill="#D2EBD9" stroke="#A6A6A6" stroke-width="0.25" opacity="1" d="M 461.14959215931594,256.7735978560522 L 461.5113789513707,256.6066327067092 L 461.4896717425436,256.3670726325363 L 461.19300657324493,256.5340389168123 L 461.14959215931594,256.7735978560522 z" /><path fill-rule="evenodd" fill="#D2EBD9" stroke="#A6A6A6" stroke-width="0.25" opacity="1" d="M 460.83845551870763,257.79714956332464 L 461.12788495235145,257.92055450670887 L 461.65609366633,257.81166781426873 L 461.40284291282296,257.3906361203408 L 460.78056963160634,257.1075257844059 L 460.83845551870763,257.79714956332464 z" /><path fill-rule="evenodd" fill="#D2EBD9" stroke="#A6A6A6" stroke-width="0.25" opacity="1" d="M 471.46063423901796,273.74158500356134 L 471.6082145180553,273.91703724698164 L 472.991572201252,273.8430520767579 L 472.91779312491417,273.60259928088635 L 472.45667389780283,273.60259928088635 L 472.49356343597174,273.1401857859455 L 471.8893367704004,273.348530053976 L 471.46063423901796,273.74158500356134 z" /><path fill-rule="evenodd" fill="#D2EBD9" stroke="#A6A6A6" stroke-width="0.25" opacity="1" d="M 469.0259468443692,271.3644655261887 L 469.19194976612926,271.3089729223866 L 469.15506022796035,271.0685040274402 L 468.896833460778,271.0315086763585 L 469.0259468443692,271.3644655261887 z" /><path fill-rule="evenodd" fill="#D2EBD9" stroke="#A6A6A6" stroke-width="0.25" opacity="1" d="M 468.23282177373767,270.43957810499705 L 468.32504561915994,270.3470881097019 L 468.43571423366666,270.1066130538238 L 468.0668188519776,270.3100920477882 L 468.23282177373767,270.43957810499705 z" /><path fill-rule="evenodd" fill="#D2EBD9" stroke="#A6A6A6" stroke-width="0.25" opacity="1" d="M 469.2103945352137,277.24622201232705 L 469.39484222605824,277.20923265174497 L 469.63462422415614,277.13525382441003 L 469.46862130239606,277.0057905361755 L 468.84149915352464,277.0982643576572 L 469.2103945352137,277.24622201232705 z" /><path fill-rule="evenodd" fill="#D2EBD9" stroke="#A6A6A6" stroke-width="0.25" opacity="1" d="M 477.3998720161617,270.9020246610744 L 478.00854939594865,270.64305529149715 L 478.65411631576717,269.53316629945766 L 478.00854939594865,269.07070282590576 L 477.8794360123575,268.6452313611517 L 477.52898539975286,268.7377255716128 L 477.08631094172597,269.18169458257034 L 476.97564232721925,269.7921433420852 L 477.3998720161617,270.9020246610744 z" /><path fill-rule="evenodd" fill="#D2EBD9" stroke="#A6A6A6" stroke-width="0.25" opacity="1" d="M 479.22590415738523,271.9008898163447 L 479.4656861554831,271.8453980021877 L 479.9452501516789,271.3274704661453 L 480.01902922801673,270.93902013951447 L 479.7239129226655,270.8650291461963 L 479.4656861554831,271.14249462040607 L 479.13368031196296,271.60493253101595 L 479.22590415738523,271.9008898163447 z" /><path fill-rule="evenodd" fill="#D2EBD9" stroke="#A6A6A6" stroke-width="0.25" opacity="1" d="M 479.1152355428785,273.60259928088635 L 479.2812384646386,273.5841028490104 L 479.4841309245676,272.9552188119851 L 479.29968323372304,272.93672206497286 L 479.1152355428785,273.60259928088635 z" /><path fill-rule="evenodd" fill="#D2EBD9" stroke="#A6A6A6" stroke-width="0.25" opacity="1" d="M 481.77128229290247,271.0685040274402 L 482.01106429100037,270.9205224048346 L 481.90039567649364,270.29159400309436 L 481.7159479856491,270.38408413517755 L 481.77128229290247,271.0685040274402 z" /><path fill-rule="evenodd" fill="#D2EBD9" stroke="#A6A6A6" stroke-width="0.25" opacity="1" d="M 482.7694004457444,258.90131155820563 L 482.9816900268197,258.83867349347565 L 483.2689053416252,258.2874537673779 L 482.71944995597005,258.22481462114956 L 482.4197470191866,258.52548151591327 L 482.3947717733681,258.7133970333962 L 482.7694004457444,258.90131155820563 z" /></g></g></g></svg>