<svg xmlns="http://www.w3.org/2000/svg" xmlns:xlink="http://www.w3.org/1999/xlink" width="500.0" height="246.24478858336806" viewBox="0.0 0.0 500.0 246.24478858336806" preserveAspectRatio="xMinYMin meet"><g transform="matrix(1,0,0,-1,0,246.24478858336806)"><g><path fill-rule="evenodd" fill="#D2EBD9" stroke="#A6A6A6" stroke-width="0.25" opacity="1" d="M 500.0,174.89137091394514 L 499.32854239083827,172.68253746256232 L 498.69337974675,169.6232324577868 L 498.28506092354655,166.53766479808837 L 498.32135597616434,164.27628374565393 L 496.9602933190763,163.114771688357 L 493.58485774695873,162.6170427314937 L 492.0423199981451,161.4005281869322 L 490.13683215528727,155.79084494896233 L 489.04798204638064,153.41575049702078 L 488.9481707364321,151.03460036963224 L 488.77576940879226,150.2203728966415 L 487.9500580858439,149.02681206632406 L 485.84494780004025,147.24031914118677 L 485.01016262732446,146.04039532411844 L 484.4294424764812,144.41325663682073 L 484.3659263085574,143.37237177975476 L 484.5383274592459,142.28340728301555 L 484.7288763150573,137.76403410732746 L 483.9213124308735,135.33337892964482 L 483.159117275849,134.23195647727698 L 482.3334058653563,133.57807269785553 L 481.6619483437389,132.70403313077986 L 481.3897357955575,130.92189683299512 L 481.49862078018486,128.06733948830515 L 480.9360481556505,125.24149518460035 L 479.86534548550844,122.7604110557586 L 478.45891409926116,120.89161386154592 L 477.39728510566056,120.19781818427145 L 475.05625732429326,119.44914906006306 L 473.97648089006543,118.70743090100586 L 473.31409695744514,117.773532374762 L 471.85322299040854,114.68778563477099 L 466.1186120212078,110.0326780686155 L 464.802918093279,107.8725984506309 L 464.6214430909604,105.18547013308853 L 465.64677703008056,99.81443900987506 L 465.33826942928135,97.73294970020652 L 464.3673780672252,95.5768234077841 L 464.2857142854482,86.04340485669672 L 462.6252177897841,83.908103749156 L 461.09175380319357,82.68872368894517 L 459.4584785103798,82.21059582289308 L 454.2047764714807,82.72970771510154 L 452.61686990596354,82.62724831607193 L 451.00174222514033,82.06716408673674 L 446.41949762031436,81.82811798807234 L 445.140098746866,81.32273415103555 L 442.4633420724422,79.78632722236216 L 438.6795876752585,79.21965228486806 L 434.1336382124573,76.88859391584992 L 431.46595530211926,76.65655610430986 L 428.7166086100042,77.59840615838766 L 426.39372817985713,79.32205981947482 L 424.31583909504116,81.75299092940986 L 419.3978658616543,89.3313855258748 L 418.681039435789,90.74687439482659 L 417.5377467479557,96.21332197729498 L 416.7755516804755,97.71925780922174 L 415.2783826608211,98.05813982337713 L 412.0390533618629,98.01363915763795 L 410.64169565215707,98.65721563156694 L 410.0519019123167,99.58845668006688 L 409.25341170467436,102.15688588377088 L 408.6726916395128,103.29415792319924 L 407.91957033611834,103.98278056830168 L 406.33166377060115,104.6097970744595 L 403.3826945479959,106.37809332925826 L 402.1032955851406,106.76882634684443 L 397.5482723582536,105.3191157002002 L 394.5539343189448,105.25400604028255 L 393.0839865896851,104.95245368313044 L 391.36904760077596,103.93481451272964 L 390.6340737361461,102.69809363223612 L 390.1350174546242,101.28693456854671 L 389.10968351364136,99.80074287392199 L 387.81213711202145,99.06804134976119 L 386.81402437388897,99.50628305319697 L 385.72517426498234,100.42736889794469 L 384.13726769946516,101.12597154919058 L 381.2245934419334,100.46161241736263 L 374.42835365608335,97.20240995567292 L 372.2052845340222,97.71925780922174 L 370.4359029661864,99.47204440459609 L 367.9859901126474,100.58489050809294 L 365.3999709840864,101.05062863510102 L 363.2041230648756,100.87939763162285 L 360.0736789274961,101.1602187640965 L 355.29181179217994,104.09241844154894 L 352.5333913359791,104.38707961328328 L 351.2630661353469,104.71944519039243 L 348.65889956988394,107.10473763290793 L 347.29783682338893,107.82460458297282 L 345.87325782328844,107.80060784425586 L 327.2992885839194,103.49285764992237 L 321.85503777861595,103.12286968901753 L 319.32346114329994,102.1020825272426 L 319.1964285429567,99.9993392387405 L 319.42327236384153,97.2366370363161 L 319.32346114329994,95.83004681020975 L 318.1438734009862,94.06110444292426 L 315.27656787261367,91.0170136000961 L 313.96087394468486,89.27668668609113 L 312.9446137677878,87.22238142229617 L 309.53288322873414,76.73162630572915 L 307.6999854911119,72.9211661061272 L 305.50413766130805,69.5525634586811 L 302.9544134978205,66.97610527742654 L 300.94911443442106,65.9267193628475 L 299.8874854389578,66.37984325177968 L 298.8984465524554,67.47359843086451 L 297.1472125109285,68.35963630396873 L 296.1581736225635,67.9234184967354 L 293.508638240397,65.47021935228258 L 292.0386905092746,64.81618372071534 L 290.49615267291665,64.9796866485849 L 289.59785133227706,65.3135175127536 L 288.8447300288826,65.16363227926195 L 287.7468059808016,63.85568378120661 L 287.4020035006106,62.92937369365245 L 286.92109465785325,60.55968884471804 L 286.27685825154185,59.38196548912674 L 285.55095823667943,58.806793911382556 L 283.890461653471,58.16361266095191 L 280.10670725628734,55.83642121218145 L 276.7675668243319,54.78876667376608 L 274.7441202327609,53.53383601922542 L 270.7698170710355,49.811227154918015 L 268.701001662761,49.049959952011704 L 266.8771776892245,49.75005070865154 L 263.5380371697247,52.78234963770956 L 261.3784843031317,53.47262584324926 L 258.2117450237274,52.258738942444324 L 257.37695993855596,52.36753784213215 L 256.5512485280633,53.61545040644705 L 256.76901858486235,54.727545119822025 L 257.26807486638427,55.86363522242755 L 257.22270613722503,57.15642553567886 L 255.6620208621025,59.05523471813649 L 253.60227930545807,59.39557963050902 L 249.55538620986044,58.606005722656846 L 248.6752322204411,59.0654447292909 L 246.7697444651276,61.431200260296464 L 245.77163181453943,62.28239434584975 L 244.8914779983461,62.54117858503014 L 243.95688151568174,62.571824758313596 L 235.88124267943203,60.41671725641936 L 234.36592621915042,59.53512600436807 L 233.4041086230427,57.61916833743453 L 232.57839721255004,52.523939322680235 L 231.4895470160991,50.32105237618089 L 231.71639083698392,48.71693252399564 L 231.53491574525833,47.3442170554772 L 226.8347125686705,43.99514650274068 L 214.9843931850046,44.2464390443638 L 209.73976482264698,40.871748632751405 L 208.7779471371323,40.67488704714924 L 197.88944543898106,42.008905759081244 L 192.63574331253767,41.23833359684795 L 188.93365269899368,41.414844546467066 L 187.6451800595969,40.8106530494988 L 175.0598867237568,37.97371114883572 L 173.52642273902893,36.718506563454866 L 171.17632110603154,31.82204261980951 L 170.3415359314531,31.09669069107622 L 168.63567070662975,30.805215943604708 L 167.83718058653176,30.337527068331838 L 166.69388789869845,28.924489110708237 L 166.81184664554894,28.439990051090717 L 167.41978808678687,27.914872949942946 L 167.7101480755955,26.40073071140796 L 166.82999417185783,20.990522689186037 L 166.61222411505878,18.23291094135493 L 167.18387050367892,15.78076289780438 L 169.75174219347537,13.258512140251696 L 173.12717776559293,10.787886217236519 L 168.84436700120568,9.446486789733171 L 167.31997677870095,8.311403539963067 L 164.41637628525496,4.9781937366351485 L 162.27497094497085,3.6514438688755035 L 159.71617301926017,3.381399213336408 L 157.09385883808136,3.8944932129234076 L 153.89989835582674,5.309077566489577 L 149.96189024671912,5.596081801690161 L 131.98678859695792,3.4961669258773327 L 125.41739254258573,0.8165111346170306 L 122.15991580486298,0.506090353243053 L 111.33493027463555,1.6297458047047257 L 86.14619625173509,0.0 L 78.7964576035738,2.00771383009851 L 73.06184663437307,5.1166227934882045 L 72.14539776742458,6.143111540935934 L 71.45579263009131,7.4872359642758965 L 69.83159118704498,9.041078135371208 L 68.00776712596416,10.351986878551543 L 66.70114687271416,11.007536077871919 L 65.71210798621178,10.858849302865565 L 64.83195417188108,10.426324372179806 L 63.9245789796114,10.39253440592438 L 62.85387630946934,11.497549951076508 L 59.88675956055522,15.963375001214445 L 59.070121912285686,16.50447708275169 L 56.86520031839609,16.97121228184551 L 55.95782521367073,17.35003556497395 L 55.09581883624196,18.148339403793216 L 46.08558369241655,30.256193045526743 L 43.31808938458562,32.554252305068076 L 37.59255226701498,33.422159146517515 L 33.04660271666944,34.69709896761924 L 29.87986352480948,35.3821392999962 L 26.676829278469086,33.435721090994775 L 24.626161485910416,35.28378757182509 L 21.786077247932553,36.29789547622204 L 19.77170442044735,37.403751463629305 L 20.243539499118924,39.558315467089415 L 18.846181700006127,40.65452229604125 L 19.345238069072366,43.09871949348599 L 19.798925621435046,44.42982049100101 L 20.697227051481605,45.54040390159935 L 19.553934363648295,46.76667274907231 L 17.820847848430276,49.930182971060276 L 16.895325215533376,50.52499321382493 L 15.488893741741776,50.7425369117409 L 14.282084798440337,51.48359762970358 L 12.068089440464973,53.91811256483197 L 11.442000560462475,55.969090449623764 L 11.432926796376705,58.82381010893732 L 11.015534209087491,61.20650297496468 L 9.64539778791368,65.94034672155976 L 9.64539778791368,68.65273589268327 L 9.31874274648726,69.1094514792785 L 8.774317648261786,69.29691834095865 L 7.8034262880682945,70.18319582846016 L 6.333478471264243,70.98435467947274 L 5.3535133469849825,73.78063396085054 L 4.7364982310682535,74.33320696279407 L 5.444250892847776,76.3528717206791 L 5.045005831867456,77.400470293127 L 4.146704403683543,78.4072737917304 L 2.7221254017204046,79.46543306484818 L 0.9527439214289188,79.6531883906573 L 0.2722125481814146,80.06626848783344 L 0.0,80.86177525855601 L 0.05444249138236046,82.31304901000112 L 0.6533100828528404,84.14039156213403 L 1.433652764186263,91.20167201198637 L 1.7966027706861496,93.09300258941948 L 2.6858304366469383,94.87537602335215 L 4.981489488855004,98.19506676774472 L 5.444250892847776,99.95824991725385 L 6.097560975700617,101.20816500019282 L 7.549361266195774,102.3829548060894 L 8.99208770506084,103.91083154734224 L 9.64539778791368,106.25470866821706 L 8.828760229051113,112.4610265949741 L 9.046530198305845,114.98291235230863 L 10.43481414578855,116.68185996450484 L 11.442000560462475,118.5323151294142 L 15.879065038636327,131.36222616955638 L 18.03861790522933,135.05112223234028 L 21.06017705798149,137.67450417298824 L 22.321428582072258,139.2793370531872 L 22.83863238990307,141.79412026144564 L 23.63712259940803,143.03463587723672 L 28.355473302304745,146.48172147292644 L 32.284407649189234,147.3230805657804 L 36.50370207056403,146.21968055982143 L 46.521123718470335,141.1257157875225 L 48.045513939112425,141.41511972714216 L 51.36650693230331,143.59983594994992 L 53.45346977934241,144.21333918906748 L 54.73286874219775,143.59294303506613 L 57.41869917884469,140.7467531543225 L 60.63080718740821,140.2437995513901 L 77.49891111440957,146.902387637645 L 79.05052262544632,148.19213624112308 L 82.08115563169122,153.42265355866402 L 83.49666086770594,154.60319198854268 L 85.65621364675462,154.97603707481176 L 87.5072589982301,154.65842704288661 L 89.18590302020311,154.75508935377002 L 90.80103078857064,156.3364075087011 L 91.51785712689161,158.1667850203812 L 92.19838849827647,162.3059810521081 L 92.74281359650195,164.29011250846088 L 93.90425372496247,166.6275827055797 L 95.74622531235218,167.81737930048257 L 97.86948321200907,168.14945339225233 L 102.57876015268266,167.78278921265155 L 105.49143441021442,169.12501720059663 L 108.0774535369128,171.5403247429058 L 109.90127751044929,174.6351363621652 L 110.4819976631552,177.5789652504027 L 110.35496515035629,184.37899091560394 L 110.67254651710391,187.97937199566513 L 111.78861782699823,192.38711650390178 L 113.43096688576043,196.48512298054993 L 115.54515102133155,199.93218430224806 L 118.13117014989257,202.38652614783496 L 129.94519456848502,207.00565239880234 L 135.26241286098957,211.1823298363015 L 135.48018291778862,217.58471284154803 L 138.0389808434993,217.00622388441116 L 140.00798494368792,218.30266700405627 L 143.74637052230537,222.89104586094618 L 146.63182340189815,224.44679541978985 L 147.3577235918492,225.18642807286233 L 147.80233738012612,226.3728036209941 L 148.02010743692517,228.88583049736917 L 148.47379498928785,229.99605464655906 L 150.27947152405977,231.14138667285442 L 154.16303722932935,230.57567962259054 L 156.66739257611334,231.90272311400622 L 157.27533392980695,232.0284568592906 L 157.88327528350055,231.90272311400622 L 160.75965448655188,230.4499734826386 L 163.30030488595366,229.667855842039 L 165.75929150357842,229.80751284956932 L 169.3615708090365,233.13222200144082 L 171.00391986593604,233.7610313622281 L 174.59712549485266,233.858851515688 L 183.28977936320007,233.0553715918213 L 185.83042976260185,231.49759740568697 L 185.05916084349155,229.22097290027887 L 185.14989838935435,227.2941360482946 L 185.57636465132236,225.46555597521365 L 185.8032084722072,223.4630728084594 L 185.4402584657073,219.02767034620047 L 185.93024107068777,217.5080426959321 L 187.6451800595969,217.18743195850402 L 189.86824918165803,217.36167509108782 L 193.26183219254017,219.34139843750745 L 195.17639371193945,219.7945873485878 L 195.98395768366754,219.51569822710007 L 197.72611787356436,218.23993003368378 L 198.56997681036592,217.80775823444128 L 199.47735191695392,217.74502595048398 L 201.68227351084352,218.18416441231966 L 204.38625147379935,219.27167972549796 L 205.0214140303433,220.35240081790835 L 205.24825785122812,222.03309820964932 L 205.86527296714485,224.6630945680663 L 207.1991144232452,224.7468251110986 L 207.58928572013974,225.03989041876048 L 207.79798201285303,225.94010079838336 L 207.62558077275753,226.58218610007316 L 207.19004065915942,227.1405718056485 L 208.59647213295102,231.52553634997457 L 209.79420731402934,233.44661927688867 L 211.07360627688468,234.66941719129682 L 212.50725904107094,235.37524906452745 L 214.19497682712972,235.7386771487072 L 216.89895470440388,235.7107204021886 L 217.80632989667356,235.85749443806708 L 219.04943371750414,236.36074445955455 L 227.32469517365098,245.34880950208753 L 227.66042397916317,246.02078238502145 L 228.1685540229082,246.24478858336806 L 229.39351040683687,245.74078538734466 L 230.87253189831972,243.12338711693883 L 231.53491574525833,242.41672736499459 L 233.5946573894471,241.0456034168601 L 234.65628629550338,238.32518413476646 L 236.253266537562,231.50458219833672 L 237.66877177357674,227.20339301787317 L 238.12245941348374,226.24019817449152 L 239.62870210967958,225.0747799910605 L 241.4615998454392,224.579364948906 L 244.97314169444144,224.54447812214494 L 244.56482286937535,223.69329252000898 L 244.42871659621596,222.96080254670233 L 244.48315917514265,220.84749973006546 L 244.2920981310308,219.2191461380571 L 249.3376161530614,217.49410288780928 L 251.252177760005,217.28500752616674 L 253.03063291683793,217.46622308902442 L 255.97052846476436,218.65121638029814 L 256.7780923489481,218.0377816008404 L 257.594729995355,215.48705969378352 L 258.0393437836319,213.24379341956228 L 258.5565476808697,206.72730090562254 L 258.42044131830335,206.17759055551142 L 257.7489837091416,205.16874719038606 L 257.69454130344093,204.59829671680927 L 258.00304873101413,204.1461454136297 L 259.2098577618599,203.24888988677412 L 260.07186413928866,202.15704487636685 L 260.2351917028427,201.57294682133943 L 260.0264954101294,200.81508663203567 L 258.5656213555485,200.03645792324096 L 255.2446282748133,194.60250435676426 L 254.89075203053653,192.8315237360075 L 256.0249709561467,191.26234328839928 L 258.2389663141221,190.450125397183 L 262.285859497264,190.14470150507987 L 264.2367159817368,190.8666349723935 L 267.185685204342,193.9218363808468 L 268.7735917698592,195.1026314161718 L 271.5864547174424,195.4152299007401 L 274.0272938963026,194.14408768247813 L 278.5550958327949,189.87399683892727 L 281.4677700009197,188.44430319126695 L 283.18270907737315,189.7698824815452 L 284.09008418396115,193.1301266560331 L 284.5891405530274,197.82620640378445 L 285.67799074947834,199.14670848008245 L 286.7849883828312,202.24049163237214 L 288.4636324066669,206.01755688712 L 288.9626887757331,206.68554897326976 L 289.18045874498785,206.4767943304032 L 291.113167790696,206.24717156868428 L 291.97517416626215,207.05436513852328 L 293.88973577320576,209.34426776133478 L 295.22357722744346,210.09614058490843 L 302.0016695763916,210.6949152862653 L 302.43720960244536,211.29374392610043 L 303.06329848244786,213.16020799521357 L 303.69846112653613,216.3232538094744 L 304.02511616796255,217.15955344960093 L 304.92341759614646,217.8356393352151 L 305.96689888834953,217.8565504066646 L 309.5601045191288,216.49747408553958 L 314.0969802197069,216.67169921193272 L 314.0788327790797,218.99281275086105 L 315.4489692002535,219.30653905775398 L 322.8712978679687,215.50796322058886 L 324.7949331495911,215.03416528366506 L 326.8728223219514,215.77971560601145 L 327.88000864721835,216.72745210584253 L 329.27736644633114,218.46299735084176 L 330.17566778697073,218.9718980928883 L 330.9832317586988,219.02767034620047 L 332.8796457517892,218.74184229411185 L 336.2006387449801,219.27865163143724 L 337.57077525369823,219.03464199509472 L 345.36512777768075,209.69234639406204 L 346.75341172516346,208.67600789759308 L 348.72241573780775,208.36974446475506 L 350.21958484500647,208.46022992860526 L 351.5987950284034,208.2514191614464 L 353.2411439977586,207.02652934007347 L 354.6747967619449,205.5305217076093 L 356.09937576390803,204.49395140539855 L 357.7145034428686,204.1878810999915 L 359.77424508705735,204.93221311829984 L 361.67065916769207,206.58117083087564 L 364.53796460852027,210.7923953300342 L 366.34364114142954,212.55424605682492 L 367.7228513266891,212.84677250962704 L 369.57389658875763,212.8676677113399 L 371.19809820875525,213.19503519497812 L 371.9149244595319,214.42803189065307 L 370.84422178938985,216.46262966375798 L 368.8207752853632,217.69623459875584 L 367.7500726170838,218.92309770639986 L 369.52852786146104,220.91723489481956 L 370.8714430797845,221.55883329641074 L 374.43742741830647,222.2841934002936 L 375.79849007725716,222.15864461567253 L 377.3863966409117,221.06368134729564 L 378.638574315235,219.6621135622263 L 379.9814895335585,218.73487095348537 L 381.86882985010743,219.0485851801932 L 383.37507263198495,220.4639693107456 L 386.1153455618769,224.53750067111105 L 387.70325203984976,225.6400170251727 L 388.91913474723697,225.34692515153438 L 393.83710806816816,222.7166572259739 L 402.3936555739492,220.28964456915855 L 403.8454558644444,220.30359039548784 L 407.10293268971145,221.02183928899467 L 408.3914053272456,220.63829864002764 L 411.32222711108625,221.8308339919895 L 417.61033685319126,222.54227331932634 L 419.2526858244091,222.11679550353438 L 420.1419134903699,221.51698810979724 L 421.7751886956394,219.9200913310051 L 422.66441636160016,219.29956712201238 L 423.32680020853877,219.20893357880414 L 424.68786295317113,219.51569822710007 L 425.55894309282303,219.2577362060547 L 427.0379645861685,217.73805579263717 L 429.98693380877376,213.18110432010144 L 431.338922791183,212.08065918181092 L 432.2553716581315,212.69354281574488 L 433.49847556836903,214.17723424825817 L 435.013792026788,215.57067433092743 L 436.78317359648645,215.89817534107715 L 438.3892276007682,214.97842663247138 L 441.6104094590992,212.00405267812312 L 446.33783383853734,209.63665249943733 L 449.5045731179416,206.64379757270217 L 452.02707607857883,202.55342647992074 L 453.1340738013387,197.80535838194191 L 453.7147938646376,193.52596979308873 L 456.20100177265704,191.69973244238645 L 462.41652149520814,190.51260018255562 L 465.2747531719506,188.66637137625366 L 466.2910133507103,188.2153030699119 L 467.1711672525853,188.15978916175663 L 469.27627753838897,188.41654515638947 L 470.00217772834003,188.27775685396045 L 470.96399532444775,187.2022461090237 L 470.9730690885335,186.25871541257948 L 470.7280778288841,185.39161779545248 L 470.9277003593743,184.54543962609023 L 471.5810104422271,183.98369220923632 L 475.7004936430603,182.72166730090976 L 480.55495062097907,182.90887568797916 L 482.4241434112191,182.16700692195445 L 486.87028165347874,177.6828888161108 L 490.09146342612803,176.69221616908908 L 496.9602933190763,176.39435051567852 L 500.0,174.89137091394514 z" /></g></g></svg>