<svg xmlns="http://www.w3.org/2000/svg" xmlns:xlink="http://www.w3.org/1999/xlink" width="485.22198086977005" height="500.0" viewBox="0.0 0.0 485.22198086977005 500.0" preserveAspectRatio="xMinYMin meet"><g transform="matrix(1,0,0,-1,0,500.0)"><g><g><path fill-rule="evenodd" fill="#D2EBD9" stroke="#A6A6A6" stroke-width="0.25" opacity="1" d="M 485.22198086977005,253.8742474707542 L 485.11400329321623,245.47693798493128 L 480.1719555258751,225.55879978404846 L 477.3396221548319,219.37684209132567 L 477.0156895853579,215.71747209259775 L 478.18683033436537,211.1351602448849 L 479.4493365511298,207.9042391643161 L 479.00081462040544,204.89585148380138 L 475.047176502645,201.03592148644384 L 471.93244034796953,199.22770725074224 L 468.7761745713651,198.23761589603964 L 465.4787073209882,197.7761377519928 L 452.5130996890366,197.70901401073206 L 449.29869217425585,197.21817309851758 L 445.5194790996611,195.34294372214936 L 443.15227976441383,192.3854767298326 L 439.4229023717344,185.42651815887075 L 437.71187422797084,183.79489820392337 L 433.64195247739553,181.53418570419308 L 432.19671484455466,180.33884959621355 L 431.5405438169837,178.8205944049405 L 431.3079768791795,176.91653364663944 L 431.7066631279886,137.68987739470322 L 428.0188156813383,137.11984186375048 L 426.8476750962436,136.71746674110182 L 419.2643311060965,132.5848768291762 L 413.1594484858215,127.37967745063361 L 390.0107304304838,99.06389035703614 L 388.2249484434724,97.65636194206309 L 386.09031604602933,96.73478107550181 L 379.977127533406,95.31892152887303 L 373.40711103379726,91.61603803490289 L 349.55238610878587,72.6690109645715 L 336.22131596133113,55.51880953356158 L 334.8342202231288,54.204239744110964 L 321.6028217561543,48.20943185593933 L 318.87015990912914,47.640117982868105 L 313.27194111049175,38.84143196360674 L 309.86649644747376,35.534870659932494 L 310.2901005372405,33.84397727623582 L 312.565934240818,30.110755342291668 L 313.0975159071386,28.07681407383643 L 312.7735833413899,26.662295039277524 L 311.91806910559535,25.783465406973846 L 310.72201051935554,25.348239205079153 L 307.2168943323195,24.95486398425419 L 306.7019246146083,23.875185000593774 L 307.28334195911884,20.61113393108826 L 306.9261856600642,18.19248000450898 L 305.9294701144099,15.12115276150871 L 304.39286701381207,12.45999469247181 L 299.9907068051398,9.941186183015816 L 299.31792382895947,7.196533307665959 L 299.6584683433175,3.0964745339006186 L 298.41257375478745,2.3517935586860403 L 293.3182053640485,0.0 L 290.64983301609755,2.1609313322696835 L 284.03776355460286,3.6762550729326904 L 280.82002056762576,5.362911606556736 L 277.77232079580426,7.510817566770129 L 275.3459333740175,9.639017492998391 L 276.79784179478884,9.876219979836605 L 277.54995653033257,10.23202494031284 L 278.64215786010027,11.852935882750899 L 274.1360095590353,11.964951368863694 L 272.1739711686969,11.655261985608377 L 270.8659455180168,10.745968515402637 L 269.8587657995522,10.745968515402637 L 268.40031726658344,14.383207678911276 L 266.15705328434706,16.73564579465892 L 257.64180659502745,23.90543486608658 L 234.9083213172853,37.179268371197395 L 197.27642410993576,50.88400101347361 L 158.51962501183152,66.34528505324852 L 127.70254135876894,76.20399184105918 L 132.58801708370447,80.29954528086819 L 138.46759214624763,80.52378534106538 L 144.48451002687216,78.59798259963281 L 149.74277306348085,76.20399184105918 L 149.48116796463728,77.62850551423617 L 148.70943289622664,78.66393388505094 L 147.49950908124447,79.3102597373072 L 145.9102580025792,79.52790133201052 L 144.66763362661004,79.88404373126104 L 143.35960797965527,81.85604919923935 L 142.06466271728277,82.8453702229308 L 139.06274388730526,84.03916917613242 L 137.35577048361301,84.1908687526593 L 134.5042745359242,82.65410043532029 L 133.1373878866434,83.35982253472321 L 131.82282212749124,84.53384297864977 L 130.48863587155938,85.15383920294698 L 129.97850590199232,86.53895663830917 L 131.3911736495793,89.57971397927031 L 133.4578541442752,92.62719830835704 L 136.4793933108449,95.27901245607063 L 138.16020626947284,97.76600338018034 L 140.27920765429735,99.50760915561114 L 143.16340415924788,98.54444313130807 L 144.92923872545362,99.38886192149948 L 146.79317528381944,99.66593900532462 L 150.83497439324856,99.63955072627869 L 153.60144873335958,100.50377429032233 L 154.68056983873248,100.65550922229886 L 155.85125266760588,100.31245672272053 L 157.8002108335495,98.84790485713165 L 158.52616512402892,98.54444313130807 L 161.69812716916203,99.4284443645738 L 164.43190079182386,101.09752173651941 L 167.51884122937918,102.55552304908633 L 171.79608498886228,102.76663882145658 L 170.80198549106717,105.08895498060156 L 173.7319629341364,105.97303876676597 L 176.69464093446732,106.3820961661404 L 178.892123978585,107.5301089505665 L 179.57883743941784,110.71693329093978 L 178.38199400529265,110.71693329093978 L 175.16425101831555,110.23527135315817 L 174.08512991294265,109.60845607880037 L 172.88828647881746,111.72645461803768 L 171.29903523996472,111.42293683136813 L 169.4677993990481,111.37015124340542 L 167.93740948289633,111.11282221716829 L 167.309557184577,110.1626924793236 L 166.89098893105984,108.75731603824534 L 165.84456854313612,108.0645352366846 L 163.0192332006991,107.29258763266262 L 161.12259592488408,106.3820961661404 L 158.03565548732877,106.28972821449861 L 156.45294451713562,105.92685496504419 L 153.15017976239324,104.3434302948881 L 149.65121134370565,103.67048576532397 L 146.22418415173888,102.24544781527948 L 144.26214576140046,101.76384428329766 L 139.99798222258687,102.60170462564565 L 138.23214765638113,102.76663882145658 L 134.58929630368948,104.11251729703508 L 133.4120732061565,107.21341387752909 L 132.56839675083756,110.63115754013415 L 129.88694418221712,112.93394052737858 L 129.88694418221712,113.93029721232597 L 130.68483985587955,114.67592432454694 L 131.1361086666584,115.62611577892676 L 131.2538309916854,116.87326187791768 L 131.09032772481441,118.47016946715303 L 129.88040407001972,117.3681673562387 L 128.70318096876144,116.61591245268937 L 127.63714008778334,116.53012957738247 L 126.70190174877644,117.45395126950461 L 125.60316031053662,117.45395126950461 L 125.60316031053662,115.15101850568317 L 121.6987037025392,118.95848746784031 L 123.71306314319372,124.39620720839594 L 129.88694418221712,132.9694077525055 L 132.51607569679618,131.56356699683238 L 133.3793724887073,130.7517565654125 L 134.38655220717192,131.8605732577853 L 133.4316935390234,133.97925489535555 L 133.2943508774042,136.21681246673688 L 134.23612932488322,137.9395838008495 L 136.4793933108449,138.50724981422536 L 133.23548971489072,140.7119511073688 L 130.3447531014681,138.15740866074339 L 125.60316031053662,130.7517565654125 L 117.59150331839919,125.76890319702215 L 112.38556133583188,123.86165498546325 L 110.0441955216229,125.71610682201572 L 108.80157114565372,125.64351154817268 L 98.48124906048179,127.61680673621595 L 96.41456856578588,127.80159966170322 L 94.77953654527664,128.4351796923438 L 88.38329124078155,132.9760079951957 L 86.04846553876996,134.0452584887389 L 84.06680665165186,135.54355742724147 L 82.60181801021099,138.50724981422536 L 82.06552743166685,141.47767244977877 L 82.5494969598949,143.4580264679389 L 84.16490864381194,144.89051839418244 L 86.99678409472108,146.2570252630394 L 84.09296709671617,145.79491831350606 L 75.92434711381793,142.4348362678429 L 68.34433875605464,147.36609446292277 L 66.18609638139606,151.60449126921594 L 64.6949471347034,153.3738696979126 L 62.26201960071921,154.11332525813486 L 60.50926525518298,154.8725960716838 L 58.383723597973585,156.727893840638 L 54.969776786863804,160.75558519002516 L 58.12865861132741,161.3894734455971 L 63.58312547206879,164.47976483148523 L 66.6046646349132,165.1929292633431 L 69.12915404886007,164.8627596119186 L 71.78444601222873,164.06375583459157 L 77.12119054421782,161.76584745012224 L 73.87728711217642,165.10048166115303 L 69.796247176826,167.94000457972288 L 66.32997931540012,171.15607573534362 L 63.6223661378026,179.07474726333749 L 63.30843998864293,179.59652804373764 L 62.57594574987888,180.1447323153261 L 62.850631069391966,181.37986017449293 L 63.85781079158187,183.52652776858304 L 64.23059810325503,185.82519101852085 L 65.24431793391705,188.0843006792711 L 66.6700659096241,190.1585224069422 L 68.34433875605464,191.88929298589937 L 63.171097330749035,192.60275365423877 L 61.01285511627793,194.63748071470764 L 59.73753018677235,197.78879058919847 L 57.26536166295409,201.87184671487194 L 55.43412581831217,203.12059971538838 L 53.262803222984076,204.0324027253082 L 51.43810749053955,205.4001314836787 L 50.69253286719322,208.0167365106754 L 50.790634859353304,210.34930472215638 L 51.13072145357728,212.47710334986914 L 51.810894802212715,214.45958779891953 L 52.88347579911351,216.38265632104594 L 51.43156738206744,216.09848786052316 L 49.67227292433381,214.75696579774376 L 48.488509714603424,214.16221133910585 L 47.37668804824352,213.9243110321695 L 44.6036735996604,214.16221133910585 L 37.51417488232255,213.05201754858717 L 33.85824314877391,211.63126195315272 L 29.443656727671623,209.0673728325637 L 25.454178512096405,205.974982596701 L 23.047411423176527,202.97524087678175 L 22.046771813184023,202.97524087678175 L 22.39993879199028,205.55210305855144 L 22.046771813184023,212.45067070389632 L 21.34697812795639,215.8737975654658 L 21.26195652037859,217.86960433155764 L 22.046771813184023,219.7134678682778 L 20.163214918226004,221.2401477722451 L 14.59756600856781,230.22252394387033 L 14.277099587023258,230.2952341240598 L 13.923932768404484,230.8769187266007 L 13.171818032860756,230.97607011860237 L 12.413163185119629,231.29335538647138 L 12.079616542905569,232.51624049129896 L 11.262100532650948,234.24815059069078 L 7.1810605973005295,239.66893930069637 L 6.016917880624533,240.39615359471645 L 5.310584086924791,241.98283225682098 L 4.329564809799194,243.51665961567778 L 2.30212514474988,244.1050775804324 L 4.525768633931875,246.92823752900586 L 5.232102427631617,248.23076877300628 L 5.487167414277792,250.31355240300763 L 5.048978827893734,251.84097120538354 L 2.956137888133526,254.90253357891925 L 2.30212514474988,256.4102262275992 L 5.72261206805706,255.8878198164748 L 6.68401100859046,255.29929125856142 L 7.782752450555563,255.9737852384569 L 8.155539762228727,255.5770231039496 L 8.881494052708149,254.18837592029013 L 11.602187287062407,255.35219250584487 L 14.519084349274635,255.29929125856142 L 17.377120409160852,254.38675233605318 L 19.855828881263733,252.98490670206957 L 21.89634893089533,250.68383235356305 L 25.18603330478072,245.19597914197948 L 30.7124415487051,242.27372774900869 L 34.62343826889992,238.57152246835176 L 38.691397819668055,235.6892417545896 L 43.00134229660034,236.3370823690202 L 43.00134229660034,237.44768186693545 L 41.03930390626192,237.88399414287414 L 39.35195083543658,238.69051855942234 L 38.13548690825701,239.98626817541663 L 37.51417488232255,241.8902749781264 L 39.70511765405536,241.8902749781264 L 39.70511765405536,242.99436078418512 L 34.9962254203856,244.0852430695668 L 30.562018666416407,245.61912172008306 L 28.20757246762514,248.09191885241307 L 29.731422431766987,251.9798294432694 L 31.621519438922405,253.3882647822611 L 36.44813399761915,255.2596153120976 L 38.50827421993017,256.4102262275992 L 39.71165792644024,258.0303754346678 L 40.69267703965306,259.7960554078454 L 41.97454224154353,260.72190004528966 L 44.100083738565445,259.7365372796776 L 44.04122273623943,261.60807865089737 L 44.5121118798852,263.39370081271045 L 45.31654766574502,265.0074185291305 L 46.297566782683134,266.40292136685457 L 47.86719752848148,265.97302373766433 L 58.501445923000574,265.2058293154696 L 61.522985089570284,264.3725082199089 L 63.30843998864293,264.1807136805728 L 64.6295458599925,264.65689424658194 L 67.84728900715709,266.91218853066675 L 69.33843809366226,267.6132644728059 L 66.38884031772614,268.2482080437476 L 62.968353394418955,267.8315255183261 L 59.953354343771935,268.10269961319864 L 59.59364725276828,269.9348085108213 L 59.46284470707178,269.8355955290608 L 62.549785144627094,273.7380967090139 L 68.34433875605464,286.4791748014977 L 64.32870009541512,281.5438424566528 L 61.75188962742686,277.1182597706793 L 58.612628139555454,273.76455528335646 L 52.88347579911351,272.04477778240107 L 50.02543990314007,272.19029551092535 L 47.61213254183531,272.6533088556025 L 45.493131157010794,272.6533088556025 L 41.3336095623672,270.1398494929308 L 38.45595332980156,269.8951233639382 L 35.781040869653225,270.8409620814491 L 34.126388520002365,273.0634094265988 L 37.743079263716936,273.7380967090139 L 39.646256651729345,275.7092845865991 L 41.26820828765631,278.0509792410303 L 44.100083738565445,279.8172318073921 L 44.100083738565445,280.92860789224505 L 41.79141864180565,281.451226162957 L 41.215887397527695,282.0598504821537 L 40.70575726404786,283.1514204398263 L 39.70511765405536,283.1514204398263 L 38.181267850100994,278.1435905577382 L 37.043285578489304,276.1987840399379 L 35.22512995824218,275.37854398600757 L 32.64177938178182,276.1855543088168 L 30.365814842283726,278.1435905577382 L 27.442377507686615,282.04000398912467 L 25.794265266507864,281.1204545975197 L 24.538560669869184,281.3056863239035 L 23.636023052036762,282.3972428232664 L 23.047411423176527,284.16362063388806 L 22.262596130371094,281.4049179874128 L 23.596782222390175,279.6253891841043 L 26.029709920287132,278.487576278043 L 28.6392209418118,277.5945402579382 L 26.44173789769411,276.48983965755906 L 30.869404703378677,273.1692421444459 L 31.117929577827454,269.5379572156817 L 28.763483379036188,266.0523891814519 L 25.342996459454298,263.168841944891 L 26.01662953570485,261.7998652331298 L 26.010089423507452,260.3515604697168 L 25.231814242899418,259.20087669056375 L 23.596782222390175,258.73796397564 L 22.2887565754354,259.24055514857173 L 21.307737302035093,260.470597961219 L 17.043573923408985,267.6132644728059 L 15.846730329096317,270.17953479709104 L 14.826470386236906,274.95519851672 L 13.531525123864412,277.9186777417781 L 11.883412718772888,280.69706950418185 L 10.372643139213324,282.5957096895436 L 9.627068515866995,284.36209339869674 L 9.496265966445208,287.03492089849897 L 9.784031670540571,292.0368635196937 L 10.588467456400394,292.12287946557626 L 9.784031670540571,309.34836152975913 L 14.277099587023258,314.4382007542299 L 16.101795475929976,314.87506019475404 L 16.808129273355007,314.3124387819553 L 17.344419691711664,313.24678214569576 L 18.665525559335947,312.2208574046381 L 31.013287473469973,312.3135209430475 L 33.57701771706343,312.7305081519298 L 36.84708175435662,314.1800580613781 L 41.47095238044858,314.63677280198317 L 50.69253286719322,314.4382007542299 L 44.06084307283163,316.483524617739 L 43.00134229660034,316.0069381190697 L 41.79141864180565,315.106729421881 L 39.03802468627691,315.09349103062414 L 36.0557261928916,315.67597748700064 L 34.126388520002365,316.5629560435191 L 32.347473565489054,315.788503782358 L 29.77720321342349,315.2920652546454 L 27.442377507686615,315.57007040677126 L 26.44173789769411,317.1719341968419 L 25.93160792812705,318.3899089801125 L 24.813245989382267,318.72088465851266 L 23.65564338862896,318.69440660171676 L 23.047411423176527,318.8863732679747 L 22.929689098149538,320.1573406060925 L 23.34171723946929,320.6538196161855 L 23.871467545628548,320.9450891155284 L 25.467258896678686,324.1359086120501 L 28.685001883655787,325.64531841070857 L 32.681020211428404,326.3735563083319 L 36.323871560394764,326.5589273732621 L 36.323871560394764,327.77709438535385 L 33.52469666674733,328.6774947831873 L 29.89492553845048,328.02205493452493 L 23.047411423176527,325.55263431416824 L 19.306458242237568,325.16203834989574 L 15.264658972620964,326.0292972259922 L 12.112317260354757,328.33322248456534 L 10.974334988743067,332.2130230994662 L 10.353022802621126,331.48471339035314 L 9.99331571534276,331.3986410857178 L 9.823272496461868,331.14042476087343 L 9.784031670540571,329.8890845942078 L 7.429585471749306,332.2130230994662 L 6.5270478539168835,332.0342553309165 L 5.487167414277792,329.8890845942078 L 2.0339797772467136,332.7162240948528 L 2.5833505764603615,340.45679061091505 L 0.0,343.43012765038293 L 0.0,344.4367257945705 L 3.8125361390411854,347.22075396438595 L 10.84353356808424,349.4118252430344 L 15.038044676184654,350.1688363321591 L 17.57136332243681,349.5632267083274 L 23.667939890176058,345.71102339192294 L 27.330869495868683,344.4326189000858 L 29.764516457915306,344.8363225933863 L 34.64011659473181,348.42351996246725 L 40.84051779285073,351.4431605632417 L 43.755910739302635,353.3063315062318 L 45.9445319250226,356.03600532608107 L 48.06670532003045,361.1423963115085 L 49.391506377607584,363.5148758989526 L 50.94056848064065,365.7318020168459 L 51.854224286973476,366.2029623204144 L 54.37508409097791,366.4469576526899 L 54.960654225200415,366.63205810729414 L 54.790382128208876,367.97405476507265 L 52.58514899760485,370.69600597047247 L 51.87498918175697,372.33260421582963 L 52.614219944924116,377.0112604581518 L 55.15999758988619,382.0353504633531 L 58.51975952088833,384.4213165419642 L 61.65110730007291,381.15168447524775 L 65.16868264973164,383.02423074271064 L 68.30833648145199,383.2430491071427 L 71.39815463125706,383.02423074271064 L 74.78283440321684,383.5881106457673 L 77.46566025167704,385.8394777580397 L 81.30301506072283,392.24057944503147 L 84.0896655395627,393.667353167315 L 86.30320456251502,394.290262703551 L 86.39872313663363,395.54031123849563 L 85.75501111149788,397.0134677470196 L 85.71763426810503,398.30566822050605 L 87.00921143218875,400.0188262924785 L 87.92286723852158,400.82701709179673 L 90.6306110881269,402.36345371906646 L 91.32000601291656,402.2455884651281 L 92.13814340531826,401.6941515005892 L 92.92720985040069,401.5257748021977 L 93.96960828825831,403.53369896754157 L 95.61834175139666,405.08704791765194 L 96.35757235437632,406.11000832146965 L 101.83535489439964,423.7853347470518 L 101.86857862770557,424.60229074861854 L 101.55295211449265,425.33924574858975 L 101.65677658468485,426.0130419197958 L 103.80386798083782,426.8889890797436 L 104.31883769854903,427.16693669417873 L 104.66353515908122,427.6007063941797 L 105.08713924884796,428.3377013474237 L 106.49084693565965,433.6822606148198 L 107.24668948724866,435.0595475566806 L 108.73345690965652,435.6155262180837 L 110.29913079738617,435.42177540354896 L 111.59070812165737,435.5228628277546 L 112.2427260428667,436.93389220163226 L 112.43791614100337,443.83792738674674 L 112.91550901904702,444.35186819254886 L 115.54019329324365,448.9986176134553 L 117.01450155302882,450.49846858961973 L 122.00638516247272,453.55728094198275 L 122.52966093271971,453.65418826881796 L 122.7373098693788,454.2735563960159 L 122.70823908224702,456.2665374604985 L 123.02386559918523,457.05869377951603 L 124.65183432772756,456.94071247742977 L 125.1501921005547,457.3325803205371 L 125.08374430984259,458.14160717546474 L 124.37773760408163,460.45498452405445 L 126.57051173225045,472.55863205122296 L 126.55389978736639,474.27409657707904 L 126.35040363296866,475.37842930154875 L 126.45838120952249,476.3900517828297 L 127.42187285795808,477.8695838942658 L 133.20697585865855,481.27561300317757 L 140.49545822665095,483.9441012783209 L 164.64504477381706,489.10861504415516 L 168.36611595004797,488.9694828512147 L 171.25659105926752,487.0680454754038 L 174.18444284424186,484.4246962760808 L 178.00103276222944,482.0597047446063 L 181.02440312504768,480.9383728003595 L 183.67400524020195,480.35242291144095 L 186.40666692703962,480.23439062118996 L 221.6987024359405,487.95762307941914 L 222.79508950188756,489.47120379819535 L 223.5758498944342,499.4307086295448 L 326.0298998057842,500.0 L 330.1081274487078,499.5740850904258 L 335.5485329851508,497.937929149135 L 337.77453101053834,497.7397382701747 L 339.5520071052015,496.17953925405163 L 340.72314785420895,492.55330710613634 L 342.907615929842,481.79833977506496 L 344.0953686237335,479.88872605061624 L 356.0393430329859,472.2888831902528 L 362.6342773735523,465.9206769731827 L 368.2324963286519,458.6809649282368 L 372.05323902890086,451.3453126477543 L 373.9386927001178,445.8052515074378 L 374.91879629716277,444.25076455890667 L 375.81584015488625,443.68627358821686 L 378.4322183765471,442.7173842181219 L 379.47876976057887,441.87909841234796 L 380.1764705777168,440.60695002169814 L 381.25624569505453,436.33577974513173 L 382.44399838894606,434.73944102600217 L 386.56375597789884,431.8712016273057 L 388.12527691945434,430.25814563641325 L 388.69008231908083,428.9146698223194 L 389.51237265765667,424.4338453375967 L 390.658595405519,422.92206959670875 L 392.32809392362833,422.13040395174176 L 393.54907051101327,421.07767460041214 L 393.3746453076601,418.76174013887066 L 392.502519287169,414.7069803950144 L 393.1836081594229,411.81872225075494 L 394.9361662529409,409.3726610218873 L 397.328283585608,406.7162158850115 L 399.8449902832508,405.0786284743808 L 400.160616800189,404.1609268070897 L 398.4412826001644,402.96120183204766 L 396.8963734433055,401.5341937148478 L 398.8898045308888,400.8691108203493 L 401.7304437942803,400.74283005460165 L 402.7686891257763,400.94487938284874 L 404.34682201594114,400.7344112601131 L 406.05785031989217,400.7512486875057 L 407.55292347446084,400.4060829982627 L 409.4799069352448,397.53118624258786 L 411.3985843397677,395.8181035106536 L 413.5415227897465,394.37444013985805 L 415.21932720020413,393.5831767806085 L 422.0717463195324,387.5775097180158 L 422.279395416379,385.5449011736782 L 421.6647543348372,383.73960175190587 L 420.73448641970754,381.93435925245285 L 419.9952558167279,379.8935360648902 L 420.01186776533723,378.4965610591462 L 420.6597327403724,375.7363729389617 L 420.45208379998803,374.2301068480592 L 419.17296547815204,372.33260421582963 L 417.4702430665493,371.268178926548 L 415.6678491309285,370.4604069845518 L 414.09802213311195,369.3455317975022 L 411.2324650287628,364.2636572951451 L 409.4799069352448,357.23474709980655 L 410.62612983956933,351.32539991440717 L 416.39877400174737,349.5632267083274 L 423.04354402050376,349.7987408066401 L 429.4308292604983,349.134256855119 L 433.1851244941354,348.06184657104313 L 435.09549600631,346.4890134433517 L 435.46926425397396,344.04153365525417 L 433.0023933984339,334.40399714175146 L 432.23824479430914,328.7576035830425 L 432.52064741402864,316.9073910556035 L 432.78643840551376,315.2807457044255 L 434.248287666589,310.68266412010416 L 434.19845198467374,307.6482916432433 L 434.7466454356909,306.9758753727656 L 436.34969632700086,305.811772297835 L 442.9363246113062,297.02078846178483 L 445.361665841192,295.25182056822814 L 446.2420977577567,293.68878508068155 L 453.13604698330164,284.4080388015136 L 451.881846498698,280.9254975761287 L 449.6890723705292,277.7581954023335 L 446.66570200771093,275.6453514470486 L 442.9612426124513,275.3513230996905 L 439.70530515164137,274.70446604373865 L 436.6154871620238,272.1129055293277 L 434.0655565671623,268.66886083886493 L 431.4990141913295,263.9315129792085 L 429.0238372795284,261.5755733548431 L 427.9025322124362,259.60605952329934 L 427.5287639647722,257.45184408559 L 427.5453757494688,255.52445140504278 L 427.0968538224697,254.2395560599398 L 425.36090751364827,254.01701142336242 L 423.04354402050376,239.97311129246373 L 420.6763446852565,236.0397019352531 L 417.7526458464563,232.58085481741 L 414.05649250745773,227.10333358473144 L 412.4036059342325,221.81513974489644 L 415.6346253976226,218.94039253972005 L 416.8057659827173,224.38783302425873 L 419.9786438718438,227.78747323330026 L 424.5386173352599,229.28169348323718 L 429.8544335104525,228.99627786537167 L 432.23824479430914,227.98054466908798 L 436.8397482074797,225.00059432152193 L 438.54247045889497,224.6228641764028 L 441.4827812463045,225.8022291563684 L 447.1225299909711,229.52933437854517 L 456.61624516919255,238.84805547608994 L 458.5847584158182,241.36266659374814 L 462.471948903054,249.31436861341354 L 464.0334700085223,251.5270859648008 L 465.9106176234782,253.28639915038366 L 467.9372724443674,254.60066767467652 L 470.3543074578047,255.52445140504278 L 475.2465195469558,256.2214972449001 L 476.3262946642935,256.137515460141 L 480.7201489806175,254.80641837138683 L 482.0075731948018,254.07579669437837 L 483.3780569881201,253.62231177533977 L 485.22198086977005,253.8742474707542 z" /><path fill-rule="evenodd" fill="#D2EBD9" stroke="#A6A6A6" stroke-width="0.25" opacity="1" d="M 129.88694418221712,105.08895498060156 L 128.0557083375752,103.95417724305298 L 127.89874518290162,102.09370944357943 L 128.89938479289412,97.33720569056459 L 128.46773631870747,94.44783612969331 L 127.36899487674236,92.7393377214903 L 125.9367067925632,91.10343972966075 L 124.51095882058144,88.47816649079323 L 124.34745571389794,85.9057567542186 L 125.72742274776101,80.53697591659147 L 125.60316031053662,78.5188410077244 L 123.56264026090503,76.63266201608349 L 120.77654574811459,76.1710172437597 L 118.18665489926934,77.14706955035217 L 116.72820637002587,79.52790133201052 L 120.01135079190135,79.52790133201052 L 117.82694797217846,83.58407206297852 L 115.00815274193883,87.5613225166453 L 111.79694986715913,90.60212372324895 L 108.49418510869145,91.7960532080615 L 106.15935940667987,92.00054034939967 L 91.50293223559856,95.89250609709416 L 86.26428969576955,98.59721887670457 L 72.62812262773514,100.65550922229886 L 56.16662022098899,105.08895498060156 L 56.16662022098899,106.28972821449861 L 62.17045772075653,107.74783773813397 L 62.81139023974538,109.96475043613464 L 64.77996890246868,112.01677709177602 L 67.15403543412685,112.93394052737858 L 73.34099653363228,113.92369863158092 L 90.8816202096641,113.93029721232597 L 93.57615284249187,114.31300753029063 L 99.6453917734325,115.89665890089236 L 109.24629984423518,116.71489280031528 L 112.57522504776716,116.46414278517477 L 115.72102664783597,115.15101850568317 L 113.3535002283752,112.3400922708679 L 114.92967124283314,111.50871339591686 L 121.12317245453596,111.72645461803768 L 123.99428873509169,110.89508307771757 L 126.28987377136946,109.44350573071279 L 128.19305099919438,107.45093508809805 L 129.88694418221712,105.08895498060156 z" /></g></g></g></svg>