<svg xmlns="http://www.w3.org/2000/svg" xmlns:xlink="http://www.w3.org/1999/xlink" width="500.0" height="367.9036462234799" viewBox="0.0 0.0 500.0 367.9036462234799" preserveAspectRatio="xMinYMin meet"><g transform="matrix(1,0,0,-1,0,367.9036462234799)"><g><path fill-rule="evenodd" fill="#D2EBD9" stroke="#A6A6A6" stroke-width="0.25" opacity="1" d="M 428.03539403527975,206.2389211449772 L 428.65425945445895,203.7917920248583 L 430.2696030139923,202.3362527731806 L 430.7667932473123,201.1693018944934 L 431.3898543305695,200.22364910552278 L 432.6212915144861,199.66191973467357 L 434.8408156745136,199.34527683374472 L 433.87580517306924,197.1679623380769 L 434.0688072703779,196.25070495787077 L 434.63942216709256,195.77149400371127 L 435.4659745916724,195.5763438793365 L 436.0827420987189,195.06896310904995 L 436.00721960514784,193.66831800015643 L 435.55408423393965,192.93334706220776 L 433.97230613976717,191.3876189684961 L 433.3723214454949,190.51183621236123 L 432.9024033434689,187.71784591767937 L 430.7751846536994,186.24407233670354 L 430.28428799286485,184.798587534111 L 430.46680077537894,183.04768642084673 L 431.4213220439851,179.3882287752349 L 431.6290091238916,177.6833273691591 L 431.47796397283673,174.04874596069567 L 432.52479054778814,173.84082939242944 L 440.0938290208578,171.0211891143117 L 440.6560525111854,169.92333321087062 L 440.3036139346659,168.88183696521446 L 439.1036443822086,168.43797359778546 L 439.7707603275776,167.2883078395389 L 440.551160056144,166.24695749487728 L 441.5413447767496,165.40266166790389 L 444.74266209080815,164.23153438256122 L 445.88389180228114,163.46308923442848 L 446.6810744255781,162.2358064923901 L 449.67680248618126,155.19183395197615 L 449.853021774441,153.3376804443542 L 449.25723274052143,149.9413912347518 L 447.43210427090526,143.52037710743025 L 447.42371286451817,140.04799947771244 L 448.23767821863294,137.8775411094539 L 449.55932296067476,136.56111728725955 L 451.0739698037505,135.39608142431825 L 452.49211551621556,133.6821580613032 L 452.9872078374028,132.10885384562425 L 452.9746208488941,130.40818656794727 L 452.49211551621556,127.01810132199898 L 451.1998406536877,123.28515314450487 L 448.48102859407663,120.47295200545341 L 441.5539318472147,116.5641881711781 L 442.6699874214828,115.60763151617721 L 443.76506443694234,113.96021744166501 L 445.43495209515095,110.71113496646285 L 446.45031103491783,107.6956879699137 L 448.25026528537273,104.87060740217566 L 449.7397379130125,103.17661545285955 L 454.4305278509855,99.73512731515802 L 456.1255898065865,97.37713429471478 L 456.97312062233686,96.95432140422054 L 457.7241505496204,96.85940550942905 L 458.3786793462932,96.578974701697 L 458.9409028366208,95.6104400800541 L 458.76468354836106,94.12645127344877 L 457.6024753637612,89.65358023718 L 457.7954774647951,88.73497500293888 L 458.5087460242212,88.54306514165364 L 460.6569431871176,87.47573459031992 L 461.2862978465855,87.0143203351181 L 462.1002632007003,84.78501880378462 L 462.46948458999395,84.20509575936012 L 463.4344950132072,83.40314796380699 L 463.8876303844154,83.35572191816755 L 467.73928083106875,86.41277267341502 L 467.9490656629205,88.02556437952444 L 468.43157091364264,89.73552357102744 L 469.2497320100665,91.12429855507798 L 470.4916584342718,91.79284251108766 L 471.6538667008281,91.62462619994767 L 472.69859544560313,90.14740176964551 L 473.5125607959926,89.5026328433305 L 474.28456911817193,89.40343936323188 L 475.870542794466,89.7398364355322 L 477.9138475842774,89.81531083979644 L 478.28306897357106,89.45087964041159 L 478.17398085445166,88.26275055250153 L 478.38796142861247,87.4347674001474 L 479.2858406826854,87.33342814748175 L 480.89279291406274,87.87031682068482 L 480.90118432044983,86.05487113818526 L 481.4843862876296,84.43576951790601 L 483.4857341274619,81.63983691018075 L 485.3234495818615,80.00169048528187 L 485.6716924980283,79.19775385875255 L 485.5458215661347,78.28393438109197 L 484.5094843097031,76.78182517900132 L 484.2031983472407,75.88104383740574 L 484.44654880464077,74.38773119356483 L 485.22694861516356,73.36423942446709 L 486.1919590383768,72.47007302823476 L 486.94718462601304,71.36696258047596 L 486.984945833683,68.45219357311726 L 487.39192859083414,67.10158773139119 L 488.82685719802976,66.76341166510247 L 491.9358691237867,64.72370358649641 L 494.11343625187874,64.04097425937653 L 494.0211308635771,63.45518051437102 L 493.408558934927,62.339633921161294 L 494.5288102515042,60.71810743259266 L 495.3008185736835,59.17637586267665 L 496.3287645056844,58.567035952815786 L 496.2028936520219,58.216081687714905 L 495.4812336862087,57.529261846328154 L 495.2756444364786,55.18692542705685 L 495.0532724559307,54.358129042666405 L 496.3203730992973,54.11703087063506 L 497.26020946353674,54.50881682313047 L 497.8518027551472,55.45817506290041 L 498.04900059849024,56.90705286082812 L 498.72870361432433,56.18367771455087 L 499.1021206639707,55.32900811498985 L 499.28673135861754,54.37535038846545 L 499.4587549865246,52.20987062132917 L 499.18603464588523,51.71050771768205 L 497.9608908742666,50.81728065875359 L 497.60425663366914,50.80867141694762 L 496.5175709426403,51.28648910392076 L 495.984717335552,51.00238001253456 L 495.92597757279873,50.49228472681716 L 496.79029127955437,49.61417526518926 L 496.9665105678141,49.172982210991904 L 495.8714334703982,46.60348749975674 L 496.12737107649446,45.25000316882506 L 495.55675618350506,44.08164424262941 L 495.5903218090534,43.56741483998485 L 496.49239672347903,43.253289345419034 L 496.8951836563647,42.79501866782084 L 497.5077555850148,41.49771539284848 L 497.755301784724,39.654090595431626 L 497.57908241450787,38.748471818864346 L 497.01266326382756,38.14403068087995 L 497.01266326382756,37.76975894905627 L 497.8685855679214,36.22972278227098 L 498.01963071897626,35.440390293253586 L 497.35671043395996,34.36505281087011 L 495.1623605750501,33.818802365800366 L 494.3022426068783,31.62964108772576 L 493.66869220510125,31.18667522375472 L 493.1694042235613,30.56309822318144 L 493.2449267990887,29.337500461377203 L 494.80572625249624,28.45167370629497 L 495.20431760698557,27.595983009785414 L 495.22110033780336,26.731727434089407 L 494.80153059214354,24.104777556378394 L 495.1623605750501,22.0455783251673 L 494.9609670676291,21.091277707600966 L 493.2742966786027,20.304656516062096 L 492.6910947151482,19.78025841829367 L 494.1805673390627,19.088244507089257 L 495.12040362507105,17.437817180063576 L 495.77493249997497,16.853321224916726 L 495.7287798076868,17.467901958152652 L 496.1861108392477,18.353272943757474 L 496.81546542048454,18.598260721191764 L 498.15389297530055,14.45963238272816 L 498.9720540717244,15.95511952508241 L 500.0,14.515496442792937 L 499.83636778220534,12.573232147376984 L 499.28673135861754,10.377652873750776 L 499.135686211288,8.169408728601411 L 496.8951836563647,8.259624399477616 L 491.566647734493,10.192907901247963 L 488.82685719802976,10.476470714667812 L 481.8326292000711,9.943719366099685 L 478.4592882618308,9.312168423086405 L 472.21189453080297,6.97086471458897 L 469.1448395550251,6.459677861537784 L 462.5030502155423,6.738896044436842 L 460.8331625573337,7.104032970732078 L 455.65567162260413,9.406685042195022 L 454.74100947752595,9.260614070110023 L 450.755096770823,6.932203097268939 L 449.67680248618126,6.713121956214309 L 447.9481750652194,6.884950093692169 L 443.05179587751627,8.521681646350771 L 441.03786097094417,8.457241015741602 L 439.58195396885276,7.739815438631922 L 436.89251178875566,5.269819142529741 L 433.88839223980904,3.5860870063770562 L 420.17685232684016,0.0 L 418.8615011610091,0.6699306857772171 L 416.5559652671218,4.226061693392694 L 415.10425393283367,5.2784099583514035 L 411.5840635858476,6.554182118270546 L 409.8785124719143,6.97086471458897 L 408.47295382991433,7.035300841322169 L 407.10515639185905,6.756078842096031 L 405.51918263733387,6.137507443316281 L 403.1486134901643,4.827397270360962 L 402.4374426789582,4.616927925730124 L 401.279430154711,4.651290092850104 L 400.9836335107684,4.973438374465331 L 400.9227958358824,5.553317437879741 L 400.48854118958116,6.34369594976306 L 398.20398377254605,8.899736872175708 L 396.8676541298628,9.986682744696736 L 395.28377828747034,10.644032213371247 L 393.615988381207,10.83737406367436 L 388.37136644124985,10.540917278267443 L 386.69728304073215,10.760037082713097 L 385.86863270401955,12.259564338484779 L 384.57426001131535,12.886904601706192 L 382.1680274903774,13.063078722450882 L 381.39182334393263,13.363867215812206 L 380.53799887001514,14.150234244996682 L 380.3659753240645,14.85927822208032 L 380.5317053757608,15.744541708612815 L 378.51567263528705,17.523773753317073 L 375.3416273742914,19.182804132113233 L 372.3899540938437,19.148418818600476 L 371.0305480621755,15.834789056098089 L 370.7641212157905,14.231880529085174 L 369.82848067581654,13.415431450121105 L 368.4984445273876,13.32089728093706 L 367.0509288534522,13.888108767801896 L 365.4775421656668,13.711927818832919 L 364.06778785958886,13.85373184341006 L 362.8699161335826,14.506901956163347 L 361.93427551165223,15.847681624582037 L 361.57344561070204,17.463604082586244 L 361.8671444244683,18.834654996171594 L 363.0755053050816,21.662993273930624 L 363.3838890977204,23.09449838567525 L 363.4719987437129,24.766858804039657 L 363.12165799736977,26.33185976673849 L 362.081124920398,27.466987397056073 L 360.8433941565454,27.656181224854663 L 357.9525584690273,27.376690942095593 L 356.49035781621933,28.133473224006593 L 355.72883873060346,27.20899851876311 L 355.0847990885377,27.651881382334977 L 354.5498477332294,27.703479965450242 L 353.2512792944908,27.621782259549946 L 351.8960689269006,27.25629626493901 L 351.52684753760695,27.445488218218088 L 350.75064347311854,28.283972886390984 L 350.30170384421945,28.5032742312178 L 347.610163833946,27.957174855982885 L 346.90318876877427,28.073273574234918 L 345.9025148898363,28.726877982495353 L 345.2186161316931,28.9160830269102 L 342.0739407502115,28.348473032237962 L 341.6816430538893,28.215172813273966 L 341.27046471461654,27.776578249176964 L 340.79635078832507,27.742179005872458 L 339.3320523798466,28.546274833846837 L 335.42585783451796,29.61701645795256 L 309.1586927808821,30.584600641857833 L 190.06381521001458,31.087761868489906 L 187.73520301282406,30.73511768435128 L 185.62896287813783,29.771826905198395 L 180.91299863904715,26.36625664611347 L 175.97466258332133,24.09188009914942 L 171.4307220503688,20.73879909608513 L 150.93473905324936,11.112352201947942 L 148.13620875403285,10.523731475928798 L 133.32959174364805,11.400223665637895 L 126.8850001655519,10.940490496810526 L 125.32420063018799,11.228359669679776 L 120.24740649014711,12.93417072459124 L 117.36496220901608,13.191987657686695 L 111.23085225746036,12.122067441465333 L 109.94696880504489,11.451783206081018 L 106.65754184499383,12.422842891421169 L 105.80581520497799,12.242377168033272 L 93.69703178107738,5.669295042520389 L 91.23835298791528,4.664175909012556 L 87.14754782989621,4.62981372163631 L 82.909893181175,3.568906799191609 L 81.41202914714813,3.5087758905719966 L 70.40671422705054,4.247537582647055 L 67.4235732331872,3.5259561331477016 L 65.57074906304479,2.2375460541807115 L 64.65338801592588,4.38633772963658 L 64.29658855125308,6.087584724649787 L 63.78121154010296,6.652441688347608 L 62.562146589159966,7.511593756033108 L 60.69555668160319,9.338250632630661 L 59.863024570047855,10.414020720636472 L 59.51943986862898,11.486461193999276 L 59.51943986862898,14.947728962171823 L 59.69783964008093,15.698928066296503 L 60.49733476340771,16.429849569220096 L 60.67903822660446,17.191252664662898 L 61.273704055696726,18.067745605949312 L 65.30752043426037,20.49097810825333 L 67.07830307260156,20.551900905324146 L 69.59902531653643,20.338671874720603 L 72.31466586887836,22.044563374947757 L 73.18353865668178,22.772316393442452 L 74.53475154936314,24.932027347153053 L 77.64353224262595,27.207069221884012 L 79.13680415228009,25.460140387760475 L 80.28649135679007,22.305197663605213 L 81.41305273398757,21.594384346157312 L 81.46260816976428,22.887405230896547 L 82.29514028131962,23.90292150271125 L 83.73224937170744,24.31591197475791 L 85.32793593034148,23.957083756569773 L 88.05018386244774,22.3999745643232 L 90.49492106214166,21.72300595859997 L 93.18413200601935,20.450363034382463 L 94.59481141343713,20.338671874720603 L 96.19049805030227,21.11036784783937 L 98.14298407360911,23.537330092396587 L 99.58009308204055,24.31591197475791 L 101.46980890259147,24.234667278826237 L 103.07871030643582,23.649037884315476 L 104.6843079328537,23.476398785831407 L 106.53768308088183,24.62396739399992 L 107.4825409911573,25.006504013203084 L 108.11354741454124,24.278674815315753 L 108.58928005769849,23.222520241048187 L 109.0551016330719,22.613224065629765 L 115.37838143482804,24.98619213164784 L 116.83200889825821,25.331496253376827 L 118.77788762003183,25.453369641909376 L 120.03659685701132,25.82576476992108 L 121.08717318624258,26.597659145947546 L 122.29632698372006,27.22061183094047 L 124.07371700555086,27.152898704400286 L 125.49761125445366,26.380984193179756 L 128.93676180392504,23.632112461607903 L 129.61732374504209,22.86709536635317 L 130.56218165531754,22.697847524890676 L 135.76550746709108,22.613224065629765 L 137.704778727144,20.907287288224325 L 140.5030117817223,21.526689080288634 L 141.43465485051274,22.105490596964955 L 142.3365647047758,23.202210141113028 L 143.48625191301107,23.862299944041297 L 145.18435311689973,23.12435468751937 L 146.1424258723855,23.76074634422548 L 146.66771395504475,23.770901657408103 L 147.77775679528713,22.96187475998886 L 148.66645180806518,23.24621546524577 L 149.11575484648347,23.12435468751937 L 149.7500650435686,22.389819903066382 L 150.2951753512025,20.97836525645107 L 151.25655179470778,19.8546838585753 L 152.57142393290997,19.286096394993365 L 153.5559262111783,19.259021166013554 L 154.47765820473433,19.44854840449989 L 158.18771210685372,20.985134583432227 L 159.67437663301826,22.508291501319036 L 162.16866935417056,25.761441501555964 L 163.9229334630072,26.878662754315883 L 164.51099190860987,27.457609471632168 L 164.735643427819,28.602006869856268 L 164.2698218561709,29.10989520396106 L 163.38112684339285,29.49928452889435 L 162.88557197526097,29.949630666989833 L 163.57934875786304,30.616702310740948 L 162.78646101802588,32.502901618368924 L 162.04643248394132,35.03615910629742 L 161.7821365967393,37.63069227617234 L 162.47591337934136,39.7106141326949 L 163.4141638316214,40.27974915038794 L 165.7961307503283,40.21199418534525 L 166.9061735905707,40.33056547585875 L 168.0360386557877,40.82857248629443 L 168.80580048263073,41.42822914500721 L 169.31457011401653,42.19052938208915 L 169.68128073215485,43.17309047700837 L 171.34964864328504,41.54003148688935 L 172.87595753744245,41.09960161219351 L 173.91331902518868,41.97708250093274 L 174.11154093965888,44.30478692939505 L 172.8561353944242,42.983350936789066 L 171.66019636020064,43.02400924125686 L 170.43452402576804,43.56273953570053 L 169.12295557931066,43.7423193231225 L 167.89728324860334,43.19680806132965 L 165.8952417075634,41.7162059743423 L 164.43831047415733,41.411289498675615 L 162.3966245651245,41.235117487143725 L 161.29318910837173,40.65240536327474 L 160.8108490779996,39.42605248489417 L 160.8108490779996,34.59586524614133 L 161.7292773872614,31.473429086850956 L 161.87133640050888,30.616702310740948 L 161.86142532899976,28.588463297113776 L 161.61695158481598,28.033186251064762 L 159.6512507200241,26.330201373435557 L 159.02685167640448,25.51769198011607 L 154.93687240034342,21.783932264195755 L 153.8598665446043,21.106983164325356 L 152.8951864093542,21.0595975688193 L 152.04943953827024,21.438685521716252 L 151.33584052696824,22.044563374947757 L 151.79835841432214,24.532565843779594 L 149.3337989859283,25.65649345028214 L 143.57545179873705,26.590888038510457 L 139.66717590019107,24.092489909846336 L 138.23337058350444,23.750590952578932 L 137.01430571451783,25.189311569556594 L 136.04301819577813,25.453369641909376 L 135.05190853774548,25.273945163935423 L 133.68087350204587,24.491943086031824 L 132.69306745007634,24.31591197475791 L 131.75151331350207,24.579959228402004 L 130.52914467081428,25.21639431314543 L 128.5072809047997,26.590888038510457 L 128.4114736393094,27.000544916139916 L 128.55353273451328,28.117831238778308 L 128.24959240108728,28.34129555011168 L 127.17258654534817,28.486887152306736 L 126.24094347655773,28.859335474437103 L 125.73217384517193,29.55007500364445 L 124.62543469667435,31.75449723470956 L 123.64423610642552,32.48258256656118 L 123.33699208125472,34.257183969952166 L 122.91742233559489,35.21227917075157 L 122.41526008397341,35.21227917075157 L 122.29632698372006,34.253797193057835 L 121.0475287400186,32.008477590512484 L 120.7435884848237,29.17084263684228 L 118.47725097462535,27.721695767948404 L 115.15372983366251,27.152898704400286 L 112.12754165008664,25.453369641909376 L 109.30287906900048,26.06951790046878 L 106.23374274373055,26.06951790046878 L 102.90361422300339,24.932027347153053 L 101.92571932449937,24.932027347153053 L 99.3025824315846,25.453369641909376 L 98.42049480229616,25.273945163935423 L 97.29062973707914,24.491943086031824 L 96.5572085864842,24.31591197475791 L 95.32492887228727,22.085181476082653 L 94.59481141343713,21.526689080288634 L 91.26468288898468,22.613224065629765 L 88.56886456534266,24.156808141851798 L 87.31015532836318,25.21639431314543 L 86.78156347200274,26.330201373435557 L 84.96452908217907,27.125813497696072 L 84.56478147953749,27.721695767948404 L 84.70023311674595,28.547832797514275 L 85.21561012789607,29.285966061754152 L 85.96224612370133,29.814187231939286 L 86.78156347200274,29.997036123415455 L 86.78156347200274,30.616702310740948 L 85.532765224576,30.647178169572726 L 84.74318125471473,31.27702225698158 L 84.28727075085044,32.28616637759842 L 84.0097600184381,33.45791755989194 L 83.4547386392951,26.590888038510457 L 82.8435543589294,26.590888038510457 L 81.76985219493508,28.036572034005076 L 78.7866120673716,30.62686089775525 L 78.41659776121378,32.26584753394127 L 77.46513246744871,31.500519841210917 L 76.09740112349391,29.80402903421782 L 74.81226219981909,29.478968439623713 L 73.84097476303577,29.682130706962198 L 73.18353865668178,30.250995420617983 L 72.85977617651224,31.1347977865953 L 72.91924276947975,32.26584753394127 L 74.06892997398973,34.44007115135901 L 75.6877424493432,36.0725791992154 L 76.7515335418284,37.96265305671841 L 76.24937129020691,40.89971728483215 L 75.69434982910752,38.00330164609477 L 75.25826163217425,37.27163862041198 L 72.87959840148687,35.171635961392894 L 72.19242899864912,34.31475934572518 L 71.85545167699456,33.23778592213057 L 71.75634071603417,31.470042755361646 L 72.33779170364141,28.520745813380927 L 72.16599939018488,27.15966999088414 L 69.72126219049096,26.10675818938762 L 66.16978583857417,23.12435468751937 L 63.4442342184484,22.166417992906645 L 61.94435492530465,23.06003956659697 L 61.313348423689604,25.213008895516396 L 61.17789678648114,28.033186251064762 L 61.62059244886041,30.972256667912006 L 62.909034978598356,33.898187710437924 L 65.00027640908957,35.53742782957852 L 67.83485005795956,34.59586524614133 L 67.9636943936348,35.8287110934034 L 66.80409603193402,36.73645682330243 L 65.12251327931881,37.07517789048143 L 63.6953153423965,36.580646926537156 L 62.02364366129041,34.517968096770346 L 61.095304284244776,33.84738680860028 L 60.067853946238756,34.07429828797467 L 60.55019397288561,34.75166048971005 L 60.715378902852535,35.469688119599596 L 60.55019397288561,36.17419183230959 L 60.067853946238756,36.86517020431347 L 61.83202912658453,39.33797461655922 L 62.18552489951253,40.571098022628576 L 61.78577737882733,42.03467907360755 L 61.17789678648114,42.03467907360755 L 60.79797140881419,41.11315312702209 L 60.242949947714806,40.70661048730835 L 59.73748400807381,41.0250682705082 L 59.51943986862898,42.292171489680186 L 59.71766186505556,43.28829026827589 L 60.20330558344722,44.35222460399382 L 63.10064951330423,48.68306353269145 L 63.39467869699001,49.74049406684935 L 62.83965731784701,53.71311681321822 L 63.02136078104377,55.455615949817 L 63.820855904370546,58.917318689636886 L 63.99925567954779,61.138402929063886 L 63.87371511384845,62.50169068132527 L 63.52352303266525,63.2003257998731 L 63.647445280104876,65.11999843246303 L 63.94114409387112,66.0526139405556 L 65.7410984262824,68.00413590087555 L 65.99703595414758,68.80547683453187 L 67.1970055103302,70.84343692450784 L 70.02910143136978,71.4789944938384 L 138.24694932624698,70.8563632988371 L 138.79239008575678,71.25924013089389 L 139.1112631186843,84.4163669522386 L 139.4343318119645,85.59348941012286 L 140.37416801601648,86.11523962044157 L 146.03416420146823,86.66287630004808 L 149.68022539839149,87.831505097216 L 150.70397566631436,87.85737959900871 L 156.1793610751629,87.32049118750729 L 157.5052015632391,87.45417287014425 L 159.94709753990173,88.27568811830133 L 161.82257436960936,89.30424653971568 L 163.72322541475296,90.02232795371674 L 166.2574267797172,89.91019345028326 L 175.1145445369184,88.01262714155018 L 178.10607693344355,88.01693955319934 L 180.7493664212525,88.50640829582699 L 183.40943871811032,89.49616374820471 L 185.74224666133523,91.05528882704675 L 187.41213431581855,93.24214977468364 L 187.9030309766531,95.550043042982 L 188.20931685715914,100.71465023932979 L 189.34635098651052,102.57026615319774 L 192.87493265792727,106.25180354039185 L 194.72943101078272,107.0028693031054 L 196.96154215559363,105.5417703348212 L 200.60760343447328,102.09987270506099 L 204.63966883346438,99.1590868672356 L 209.98918331041932,96.40640378929675 L 212.73316958919168,95.683779560728 L 215.842181596905,95.42924951622263 L 217.06312954425812,95.06903027719818 L 219.7777459435165,93.39528216631152 L 221.26721864938736,92.90785089321434 L 222.92871490120888,92.58865454350598 L 223.7972242720425,92.04948306689039 L 225.43354638665915,89.75277486792766 L 227.69922307878733,87.71938280691393 L 230.4138394743204,86.56585294776596 L 233.38019765540957,86.21010479098186 L 236.3885128684342,86.56585294776596 L 239.01921528577805,87.22993311611935 L 239.94646442309022,86.89789033774287 L 243.02191080152988,84.0196964382194 L 244.100205168128,83.40314796380699 L 245.27500050514936,83.06038967869245 L 247.8301803469658,82.95691664353944 L 248.91057254746556,82.65081189665943 L 250.43990429118276,80.86601171665825 L 252.067834995687,79.57924264785834 L 255.02789960056543,78.03824460762553 L 257.15092262998223,77.43265369534492 L 259.3473704010248,77.26024669595063 L 263.96473567560315,77.66971556236967 L 268.3723159581423,76.8378559036646 L 270.7219066284597,76.91974729811773 L 272.4966868236661,77.8011784395203 L 276.3965877145529,80.75823903782293 L 277.6133400015533,81.30788611248136 L 279.01889872550964,81.29064195230603 L 282.50342569872737,82.56027477467433 L 285.77606984227896,82.59907636069693 L 289.03612691909075,83.48075444553979 L 295.1702368669212,84.0110732417088 L 299.19181302934885,85.77890327130444 L 301.5036424137652,89.321497466648 L 301.81622187048197,93.59155202889815 L 299.8694182112813,97.53892727266066 L 296.46670739352703,99.95087714237161 L 295.10730136185884,102.9651462752372 L 293.74789533019066,104.08077913639136 L 291.79899375885725,105.07778078480624 L 289.73680840805173,105.80074612610042 L 288.0312572941184,106.09857229865156 L 286.9424737729132,105.92160260328092 L 284.3348476625979,104.51669142860919 L 283.48731676489115,104.3828955902718 L 281.20275934785604,104.47353139845654 L 279.55594807863235,104.05919958371669 L 275.8007986806333,102.12360785668716 L 271.11630223691463,101.05771027156152 L 269.576481256634,100.38669880176894 L 265.07659550756216,97.56481422390789 L 260.30818516016006,95.85203005280346 L 258.900528524071,95.51121646072716 L 257.41734947636724,95.71829240955412 L 255.4663499929011,96.63937484822236 L 248.91476820781827,101.35546547896229 L 248.09450935944915,102.25523081771098 L 247.56794924661517,103.37513953237794 L 246.4833613857627,107.0028693031054 L 245.711352981627,108.60005803499371 L 244.6141781359911,109.98367298650555 L 243.04288936033845,111.25081264646724 L 239.55626463890076,112.89152323151939 L 236.21648932620883,113.14627735153772 L 232.92706228792667,112.25896988273598 L 227.9425735361874,109.45482273772359 L 226.9398018233478,109.13104381226003 L 225.80276769399643,109.54332323232666 L 222.4671881236136,111.57462625787593 L 221.904964633286,112.21147529617883 L 220.3273822851479,117.63308207178488 L 219.60152665525675,119.17282353737392 L 218.57358072698116,120.59821806056425 L 215.70791917666793,122.93090578657575 L 212.74156099557877,123.92238249862567 L 204.54316778108478,124.29392919037491 L 199.70972409844398,126.13880667788908 L 197.97270527482033,126.22522202832624 L 192.0525758974254,124.03470980632119 L 185.93524876236916,120.10147795523517 L 184.2066213414073,119.68897724780254 L 183.51852691918612,120.2116235140711 L 181.94514031335711,122.31314847618341 L 181.18571906164289,123.0389073509723 L 177.66972437873483,123.60484526166692 L 173.91037931665778,122.17275180038996 L 170.47829861566424,119.63714524172246 L 167.9482929930091,116.88808931503445 L 167.0462179146707,115.46512368833646 L 166.20707850530744,113.71624783030711 L 165.56933235749602,111.87901589437388 L 165.27143788337708,110.17794802389108 L 165.10780566185713,106.86042362614535 L 163.83231353387237,106.42877618526109 L 79.13281715288758,106.74739521485753 L 77.9144355095923,108.8637990145944 L 77.9672947190702,111.20937213115394 L 79.35484829172492,112.51145552890375 L 81.39653419703245,113.57222408941016 L 83.4547386392951,115.19068637024611 L 81.74011890217662,116.27880307938904 L 82.77087292820215,117.26836163224652 L 83.53072368353605,118.54363946896046 L 83.39527205005288,119.55711941770278 L 81.74011890217662,119.75778105040081 L 81.95816304162145,118.42120917653665 L 81.56171912699938,116.80248073954135 L 80.69945372268558,115.66673006350175 L 79.52664060145617,115.75853974162601 L 78.94518961757421,114.00402773940004 L 77.68317660689354,112.81744057778269 L 76.0907937400043,112.36866414919496 L 74.53475154936314,112.85823901020922 L 73.11085730418563,114.36103786411695 L 72.75075406581163,115.90135580743663 L 73.42470870912075,119.18641088437289 L 73.58328625932336,121.25090435007587 L 73.798026625067,122.08424589573406 L 74.53475154936314,123.18295057700016 L 77.41888071969151,126.6189278124366 L 77.9144355095923,127.79954700148664 L 80.12791381031275,126.60531882150099 L 79.52664060145617,128.3711694048252 L 82.34469579905272,128.88496331032366 L 82.48345112428069,127.23134383768775 L 83.06820588186383,125.66631899541244 L 83.98993787914515,124.72056058514863 L 85.16935838013887,124.9416870570276 L 84.55487040802836,126.85028269793838 L 84.41611500456929,128.9632245611865 L 84.06922661140561,130.63400627556257 L 82.8435543589294,131.22613043896854 L 83.27633886784315,132.35598079115152 L 85.03721043467522,140.1442147148773 L 85.16935838013887,141.50271234777756 L 83.39527205005288,138.8879451691173 L 82.65193982422352,137.25389590696432 L 82.01102216914296,133.79221095656976 L 81.17849005758762,131.72298419522122 L 80.10478789359331,130.3481596733909 L 79.01787097007036,130.65442408109084 L 78.41659776121378,130.65442408109084 L 77.60388779267669,129.53147835098207 L 76.17008247599006,129.09592905081809 L 74.48519603163004,128.87135273381136 L 72.91924276947975,128.3711694048252 L 72.04706621170044,127.63622941286303 L 71.620889082551,126.231074297335 L 71.20792672038078,125.46219461318105 L 69.29838875308633,124.0605980984401 L 68.48898247629404,122.5230400795117 L 67.87449450790882,121.96519497642294 L 67.0518734678626,122.34956209245138 L 66.79418496415019,123.16254060808569 L 66.63560741394758,125.0845700672362 L 64.85821739211679,126.19705243199132 L 64.43534387648106,127.85058406577446 L 64.54436598718166,129.60633935104124 L 65.10929851979017,130.65442408109084 L 64.27015894651413,133.09790623351 L 63.99925567954779,135.7935814645607 L 64.07854441180825,137.21304638660513 L 64.3560551404953,138.02664772351272 L 64.85821739211679,138.57814597943798 L 66.72480721771717,140.0761221286375 L 67.67627251148224,140.4438249731902 L 68.71693768724799,140.49149071914144 L 71.10551207140088,140.21571218129247 L 72.23868074640632,139.85822742106393 L 73.01174634695053,139.1841314227786 L 72.91924276947975,138.07430748827755 L 74.05571521446109,139.10242437198758 L 74.95101760327816,140.33827993250452 L 76.08088259026408,141.01582121709362 L 77.9144355095923,140.3587079946883 L 77.88470221310854,142.20072459825315 L 78.5223160982132,143.0247522026766 L 79.54976651445031,143.53553090896457 L 80.67963149771094,144.4072911918629 L 78.56856792792678,143.8215728411451 L 77.54442128539085,144.02589122531936 L 76.7515335418284,144.93172860424966 L 80.42194299399853,147.2237567375414 L 81.74011890217662,148.41244991961867 L 83.84787878021598,151.01489030430093 L 85.00086975842714,152.01644759159535 L 87.60748820006847,152.77957413415425 L 88.86950120702386,154.38769103167579 L 89.8540034852922,154.75566905387677 L 90.53126173838973,154.43539144913666 L 91.18209046497941,153.82210897025652 L 91.85604502633214,153.45414900407195 L 95.10027735307813,155.3280934568029 L 89.98615143075585,155.52231281553395 L 87.79249535501003,156.36395297874697 L 87.93785806000233,158.18025098880753 L 86.6560229100287,157.5089160592761 L 86.18029026314616,156.29921010369435 L 86.43137138709426,155.03165722289123 L 87.33658485114574,154.18326179892756 L 86.32895674183965,153.6176858979743 L 85.49312085658312,153.6824196416419 L 83.73224937170744,154.18326179892756 L 83.0483836568892,153.92432132991962 L 82.34469579905272,151.84270432172343 L 80.26006175205112,148.13315142551437 L 79.52664060145617,147.2680333540775 L 78.69410848990083,146.88657635170966 L 76.93654061108828,146.4676635961514 L 75.97186055779457,145.81717506190762 L 75.25826163217425,144.89767379453406 L 74.24732974916697,142.95324428845197 L 73.42470870912075,142.12581477337517 L 71.60106686130166,141.5129269529134 L 69.87653604894876,141.8602275874 L 68.1222719438374,142.47312648431398 L 66.16978583857417,142.64678477821872 L 68.07602011412382,146.0896283071488 L 68.13548670336604,146.69585070153698 L 69.50321805104613,147.0909273356665 L 71.75634071603417,149.61143603292294 L 70.66942379251122,149.28783861570992 L 69.61884754151106,147.65290392097086 L 68.71693768724799,147.2680333540775 L 66.92302921414375,147.21353900711983 L 66.21273389831185,147.05005698115565 L 65.61476437747478,146.69585070153698 L 66.56953344121575,145.57878156751394 L 66.4902446269989,144.82956435671076 L 65.10929851979017,143.21884650341235 L 64.663299087435,141.37673233170062 L 64.2503367215395,140.6753451898694 L 62.63813171163201,138.82326141768135 L 62.28793963044882,138.07430748827755 L 61.9179253205657,135.72550423955545 L 62.28793963044882,127.79954700148664 L 61.78577737882733,127.79954700148664 L 61.30343735218048,143.85562582383864 L 60.89708236604929,146.28034791816026 L 59.55247685313225,150.30974383442663 L 58.07241978868842,153.29061351530254 L 57.348909705877304,154.18326179892756 L 56.28842230513692,154.68071001046337 L 54.17405504360795,155.15772725455463 L 53.36795245856047,155.89372031856328 L 52.94838271290064,157.0999927863013 L 52.25790961831808,161.61567692668177 L 51.72931784018874,163.04728848137893 L 51.07518542185426,164.1006148722954 L 49.538965456187725,165.66878255060874 L 48.300078362226486,166.17335124197416 L 47.949886199086905,166.52110230992548 L 47.82434571534395,167.61894704937004 L 48.42892261594534,171.083374211099 L 48.03247870504856,172.4679599085357 L 47.05128011479974,173.95496889180504 L 44.5008245781064,176.54728534142487 L 38.69292186945677,179.30372168309987 L 37.800923086702824,180.26584116206504 L 37.33840528130531,181.37131645623595 L 34.470794565975666,185.7017276531551 L 32.32999769970775,191.47376962844282 L 29.05272838845849,196.014846136095 L 26.720316905528307,198.17651906399988 L 25.326155953109264,199.14303647144698 L 23.73046939447522,199.88759702653624 L 20.654725689440966,200.55704420153052 L 17.212271366268396,202.37423858675174 L 16.683679591864347,202.9959517584648 L 14.001076027750969,202.96179114910774 L 11.668664626777172,203.24874221743084 L 9.633586019277573,203.112098274054 L 7.813247941434383,201.8003682163544 L 8.497113656252623,200.99424747400917 L 9.475008469074965,200.70050040935166 L 8.867127880454063,199.47774341097102 L 7.813247941434383,198.979100598488 L 8.867127880454063,197.83842067816295 L 8.364965628832579,196.63634374644607 L 8.090758670121431,196.55438677337952 L 7.813247941434383,196.06606762483716 L 6.74615315720439,196.76269474322908 L 1.2884425334632397,203.56302722985856 L 0.0,204.76555881323293 L 13.40310651063919,208.36679482809268 L 17.3675452247262,211.62013627355918 L 29.478905513882637,216.81233713915572 L 32.26392372697592,219.07221286534332 L 45.168171755969524,234.55366496369243 L 47.75166428461671,238.42098724818788 L 53.40759690478444,244.75083656609058 L 64.69963984563947,264.8989087261725 L 70.34235762432218,272.43513078824617 L 80.95714223012328,290.3562706222292 L 81.33376391604543,291.20080606802367 L 81.19500859454274,292.0694164533634 L 80.67963149771094,293.2642570412718 L 82.51549757272005,296.4330149909947 L 83.31268019229174,301.08731242921203 L 83.50568229332566,310.28188532521017 L 83.98818746581674,311.2509450877551 L 85.10843878239393,314.98365608765744 L 86.51819317042828,318.3896592804231 L 86.87902315333486,324.1115559565369 L 87.46642078086734,325.8110307317693 L 88.64960752055049,326.83778965915553 L 91.64533566683531,327.55874324403703 L 92.91243638843298,328.3977103631478 L 93.42431144043803,329.25856951484457 L 93.77255435660481,330.25057920627296 L 97.09554693847895,344.5692245438695 L 97.51931242644787,347.9463001622353 L 98.13188419118524,349.53446558862925 L 99.25633117184043,351.12278479128145 L 100.754195202142,352.58872563787736 L 102.48282270506024,353.65216188132763 L 104.3331253118813,354.0285384973977 L 107.01837182790041,353.51211684336886 L 107.9288381524384,353.44647123198956 L 108.85189170390368,353.61277411179617 L 109.67844412848353,354.0022794259712 L 112.0657960884273,355.71358705707826 L 112.99724096804857,356.15129049425013 L 113.974838539958,356.32637501857243 L 114.99858872592449,356.12502784188837 L 115.74542290717363,355.6654403815046 L 116.34540768712759,355.0395468515344 L 117.32720092311502,353.56900998740457 L 118.70338976383209,352.1029814512003 L 120.34810320287943,351.3021913380362 L 122.18162316083908,351.08777880715206 L 124.12003541365266,351.36345266131684 L 125.27385227382183,352.0811013507191 L 125.8822283744812,352.1861258118879 L 128.1185352653265,351.5559894859325 L 128.71851996332407,351.6741381473839 L 131.9366201683879,353.1182468715124 L 133.08204554393888,353.2495358933229 L 135.91833721101284,352.5580926134717 L 138.60358364880085,352.92131548328325 L 139.9000542536378,352.8556722421199 L 143.57128966599703,351.64350691856816 L 146.20618782937527,351.49472744273953 L 148.81171602755785,350.37017362355255 L 150.08301241323352,350.0420109052211 L 151.3291346617043,350.11201839731075 L 152.52910413593054,350.5189428050071 L 153.64935537055135,351.2365545872599 L 155.44511396065354,352.8950581890531 L 156.40592880174518,353.49461137200706 L 157.64365956187248,353.691549745854 L 161.13028428331017,352.9694540782366 L 162.3302538394928,353.0876130252145 L 163.29526426270604,353.56900998740457 L 164.07566406950355,354.30863844789565 L 166.0476419478655,357.1536753384862 L 167.0546093210578,358.05543666053563 L 168.23360040038824,358.5895130173303 L 169.46293983608484,358.4800697036553 L 170.22655683383346,357.84531312505715 L 171.24611135572195,356.1906843823381 L 172.24888298660517,355.757356923772 L 173.4446568787098,355.78361881524324 L 174.58588667213917,356.0725030028261 L 178.00538022071123,357.5082454457879 L 179.2724808640778,357.78402750520036 L 181.87800914421678,357.87595597910695 L 185.72126818448305,357.26310975151137 L 187.03032585978508,357.3112611393444 L 195.7489855326712,358.69457924203016 L 197.4608301408589,359.3425027932972 L 197.9894880875945,359.692742502084 L 198.337731000036,360.1743343884591 L 198.36710087954998,360.80480340728536 L 198.09857620671391,361.34334837063216 L 196.7853228673339,362.63505333894864 L 196.30281761661172,363.76921101869084 L 196.46644983440638,364.8640330885537 L 197.17132706940174,365.7005268060602 L 198.3293395936489,366.0202451928053 L 199.49993918463588,365.66548950667493 L 200.87193236500025,363.86993164848536 L 201.719463262707,363.0554268634878 L 202.30266522988677,362.86275429744273 L 202.90684567019343,362.9196800778154 L 203.98514003679156,363.5458764852956 L 204.3837313055992,364.0669953429606 L 204.82008386403322,365.8012593360618 L 205.34454606473446,366.5852425149642 L 206.1794898957014,367.1458795131184 L 207.9920312128961,367.9036462234799 L 208.91508468613029,367.4305853769183 L 209.97659623995423,366.28741205949336 L 210.6688863262534,364.907827476738 L 211.51222164183855,363.8348983004689 L 213.01008559018373,363.60280457441695 L 215.4855472780764,364.1983724113088 L 229.35232800245285,363.1911748677958 L 233.03195482492447,364.0275823958218 L 233.83752869069576,364.04947844706476 L 236.8332568332553,362.75766116403975 L 237.7269404232502,362.6000226533506 L 238.6248196773231,362.63067445671186 L 242.0254326686263,363.5984255161602 L 242.89184429123998,363.6203209885862 L 246.1833690777421,362.92843782971613 L 247.06236768886447,362.9109222460538 L 248.77840803936124,363.2437226665206 L 252.4895025715232,365.2100121786352 L 254.08176982402802,365.3107415784616 L 259.22779304534197,363.26561774592847 L 259.85504979267716,362.8321020563599 L 260.19490129873157,362.2015544665046 L 260.1613357551396,361.2732927238103 L 259.73337460309267,359.6620962321758 L 259.87183252349496,359.01415997277945 L 260.6312538571656,358.6683126646094 L 263.74236369505525,358.94849223666824 L 264.5290569961071,358.5720020174049 L 264.8038751669228,357.91535394638777 L 264.91086545586586,356.4007866117172 L 265.33253303170204,355.7442259090021 L 266.17796609923244,355.3459253157489 L 269.04992114007473,355.04392360989004 L 269.70864576101303,354.6500167401973 L 271.08693243563175,352.82941496837884 L 273.5875681787729,350.91712591657415 L 276.34414152801037,347.6794334789738 L 281.1670959740877,343.27894478919916 L 283.86283172667027,341.7088761848863 L 285.8306138589978,339.48741875751875 L 286.552273824811,339.0151789064985 L 288.89557100459933,337.97454987629317 L 289.3822719193995,337.4017945874948 L 289.4389138519764,336.811571395956 L 288.7759936489165,334.79185554850847 L 288.9417236968875,334.2410666423384 L 289.7410040721297,333.18762471876107 L 290.0976383909583,332.4270898294635 L 290.1270082704723,331.7146664378233 L 289.71163418889046,330.19813669938594 L 290.0137244090438,328.8477987276856 L 291.3962068259716,328.09183206083253 L 294.58074132725596,327.1523837528657 L 296.529642816633,325.7760783887934 L 297.467381272465,324.5091040194966 L 298.539381980896,321.42507833847776 L 299.6952966749668,320.05361221474595 L 300.4316417016089,319.5906585562043 L 301.1176382936537,319.4159625018947 L 301.77636283263564,319.4814733089879 L 303.74624279886484,320.4903726466 L 305.0553004704416,321.5037008386571 L 307.05035473406315,324.2207715152763 L 307.6629265025258,324.8149165981449 L 309.0663873925805,325.4178206536453 L 310.5957192182541,325.3653933601454 L 310.4299891665578,324.2819324422162 L 309.6055345758796,321.7483064602129 L 309.86566776782274,320.86162800947204 L 311.09081153944135,320.28946141456254 L 311.45793509855866,320.0186719093472 L 311.77890596166253,319.4509015502408 L 312.6977637708187,319.01853545871563 L 313.2306173816323,318.5468761557713 L 313.9753537327051,318.3372540108394 L 314.5061094276607,318.481368832523 L 316.7298291698098,319.6780073510017 L 319.0080929286778,319.81776633602567 L 322.0856372229755,321.08001729892567 L 326.3610530793667,321.99728367617354 L 327.91555912047625,322.591349697439 L 328.9162329994142,322.4996175460983 L 329.06518015637994,321.32024888461456 L 327.7036763764918,318.7521335799247 L 327.55472905933857,317.442022313131 L 328.3791836500168,316.87433919287287 L 331.3392483368516,318.04029377014376 L 332.56229419633746,318.00972463958897 L 334.01820127665997,315.9267877792008 L 336.2524102553725,314.41168982652016 L 336.74120908230543,313.8048158143647 L 336.9447004199028,313.15430596238 L 337.1377025209367,311.0239531423431 L 338.2663451656699,308.1780820765998 L 339.40128138288856,306.49348263279535 L 340.1145500205457,305.75161375501193 L 342.16414822265506,304.1807047033217 L 342.6382621526718,303.5305655784905 L 342.8165792711079,302.828094299417 L 342.45574920624495,300.68159196106717 L 342.6298707462847,299.4208664810285 L 344.4466078095138,297.1875615788158 L 345.16826777532697,295.88784318300895 L 345.5584676377475,294.44867333886214 L 345.58154402673244,292.81776092620566 L 344.95009153708816,290.6768797021359 L 345.0570818223059,289.95749914390035 L 346.0451685525477,288.9329789460171 L 347.9374281913042,287.6905579941813 L 348.482868950814,287.1020741709508 L 349.75626316666603,285.03600216517225 L 349.84856847301126,284.41710063256323 L 349.7059148102999,283.79822147008963 L 348.4786732047796,281.86763575603254 L 348.1807787306607,281.18348474241793 L 348.09266900643706,280.43400011607446 L 348.21014861017466,279.72376270848326 L 348.97796127200127,277.62807931913994 L 350.1989093013108,277.6629326411057 L 352.63451170548797,278.0942488168366 L 353.8176985271275,278.0288972321432 L 354.4009004123509,277.7892767020967 L 355.90296018868685,276.6979562577326 L 358.36583472415805,275.9464880914893 L 359.38119350001216,275.3496933581773 L 360.24970295652747,274.546013107989 L 360.8350027501583,273.5550765939988 L 361.0259070210159,272.3682053859811 L 360.57906522601843,268.464080496924 L 361.01541778445244,266.97495213872753 L 361.48136796429753,266.6135300397873 L 363.96709106490016,265.96920952177607 L 365.1313971616328,266.11941407993436 L 368.62641328945756,268.4227141086012 L 369.8977096751332,268.5968891379889 L 371.1857888735831,267.9959928346798 L 371.69766392558813,267.37116980948485 L 371.94730795919895,266.6396981466096 L 372.27457239851356,264.3105139473919 L 373.7241859845817,262.0251681485679 L 373.8773288875818,261.37226710654795 L 373.889916036278,258.5520146570634 L 374.1982997506857,257.1790468732361 L 374.86751352623105,255.88450844050385 L 375.85350250825286,254.81631419528276 L 380.68904402107,251.49901666631922 L 381.72328344359994,250.4006395272445 L 382.2498435601592,249.02395845088176 L 381.81139308959246,247.85614734585397 L 380.46457412466407,247.6365118685644 L 377.69121804460883,247.9257354226429 L 376.8646655417979,247.2972780636046 L 377.3534643687308,246.24699966795743 L 379.9170356169343,243.81615955056623 L 380.63869558274746,243.55961454333737 L 381.41489972919226,243.5443959289696 L 383.14982072636485,243.9074731695 L 384.00784086063504,243.9074731695 L 384.8260018751025,243.6726678160485 L 385.56444473564625,243.15741155785508 L 385.9903079755604,242.57912483881228 L 386.1937993131578,241.93346614670008 L 386.210582125932,241.24218090856448 L 385.7721317335963,239.10762689239345 L 385.8266757540405,238.4447065941058 L 386.17072300612926,237.45580586441793 L 388.216125626117,236.79729358805344 L 391.2622020468116,233.8418947486207 L 393.4334755986929,232.91408742032945 L 398.1452440917492,234.0113823413849 L 398.90256743505597,233.74411424505524 L 400.5913357324898,231.7690613863524 L 405.06394943222404,229.1121012158692 L 407.34431118518114,227.52419622591697 L 409.24496215209365,227.08108504721895 L 410.11137369275093,226.59888824401423 L 410.8120552636683,225.7974276789464 L 411.19805946573615,224.97862809174694 L 413.0903190225363,218.2732576392591 L 413.1364717185497,217.36796292569488 L 414.25672295317054,216.69499148475006 L 416.9965135715902,213.41515646409243 L 418.42514860257506,212.20843072305433 L 423.53341045230627,209.78653970430605 L 428.03539403527975,206.2389211449772 z" /></g></g></svg>