<svg xmlns="http://www.w3.org/2000/svg" xmlns:xlink="http://www.w3.org/1999/xlink" width="379.39426013454795" height="500.0" viewBox="0.0 0.0 379.39426013454795 500.0" preserveAspectRatio="xMinYMin meet"><g transform="matrix(1,0,0,-1,0,500.0)"><g><path fill-rule="evenodd" fill="#D2EBD9" stroke="#A6A6A6" stroke-width="0.25" opacity="1" d="M 199.70688257552683,299.4410365920048 L 254.59986560419202,352.80649971659295 L 218.30215037055314,352.80649971659295 L 216.17118373326957,353.87111746228766 L 174.2759293653071,368.0509638036601 L 111.02223646640778,389.1039199725492 L 109.6040932033211,389.9414748933632 L 96.4168612267822,402.02358907216694 L 95.89912638626993,402.30779722030275 L 95.31761260144413,402.26977568201255 L 94.43221097066998,401.92853756423574 L 93.75690466351807,401.9931725144852 L 89.06727732717991,404.8241231320426 L 88.60581801459193,405.39932597393636 L 88.35632986016572,407.32383058115374 L 87.31148089282215,409.65283557143994 L 85.89896517060697,410.78848913125694 L 85.31182384490967,411.9879806364188 L 84.96291555464268,412.35232172720134 L 83.68170938827097,412.7499698041938 L 82.88822440803051,413.632832070929 L 82.3967514783144,415.0856959829107 L 81.34627496823668,420.95788919436745 L 80.65221012756228,422.14123534725513 L 79.29596993513405,422.75532611540984 L 77.64146943576634,423.04762522061355 L 76.31336699053645,423.585588364047 L 75.30415914580226,424.5977857275866 L 73.85225055739284,428.7255400479771 L 73.19945445470512,429.8191483723931 L 72.34031473472714,430.7013483544579 L 68.85873541049659,432.9728874252178 L 67.91330658085644,434.11358630878385 L 66.8928436525166,436.3648147135973 L 66.21378563717008,438.73374382406473 L 65.74857461825013,442.1025564351585 L 65.3546459171921,443.11158028175123 L 62.792233584448695,445.7976575160865 L 61.82429451495409,447.3307985687861 L 61.10021605528891,448.98533505760133 L 61.05144390463829,449.76784155284986 L 62.9535567201674,450.74032468069345 L 63.38875415921211,451.35401530668605 L 64.34918981604278,454.4802551775938 L 64.77688384056091,455.0731462808326 L 66.64147966355085,456.7345555917127 L 67.3017791789025,458.64834960061125 L 67.86078272201121,459.2338229113957 L 69.38397366553545,459.87472748884466 L 69.99174939654768,460.3895794909913 L 70.63704212196171,462.5227954116417 L 71.08724631555378,463.3148566134041 L 82.59497106075287,481.4156312752748 L 83.54618994891644,480.47063282097224 L 84.32311718538404,480.3967848700704 L 84.11928457953036,481.82560931995977 L 85.47521458938718,479.86931464029476 L 86.18419761396945,479.13090088474564 L 86.64799068495631,478.8928111793939 L 87.50467848964036,477.85010216757655 L 88.87833310291171,477.45534624392167 L 90.54444322548807,476.3495056446409 L 90.78372500091791,476.97322165814694 L 91.21502299048007,477.41918611584697 L 91.62268823944032,477.45534624392167 L 91.80288810096681,476.8557071321411 L 91.24456394650042,473.41521907167044 L 91.57542268000543,472.198360468843 L 92.23714018054307,471.0900556250708 L 93.07019524089992,470.26191360666417 L 94.15139434300363,469.8704505796777 L 95.02580675110221,468.35893497010693 L 95.33303270302713,467.335319811129 L 96.26948114857078,465.97767411277164 L 97.77607006393373,462.91531702387147 L 101.28553601168096,459.44919365574606 L 103.97080923616886,456.07588680437766 L 107.32961631380022,453.1651100204326 L 111.17880329489708,450.5045775640756 L 113.69569301046431,448.18126003060024 L 115.58631443046033,447.06936235318426 L 120.11198939010501,443.28822100383695 L 122.7724975682795,441.72982145438436 L 124.28421951085329,441.0911503415555 L 127.04513351432979,441.248889594106 L 131.43346351198852,440.58843422925565 L 132.92829905450344,440.84779670322314 L 137.40529508143663,442.2227039796999 L 142.80321145989,441.63025519961957 L 145.07714965939522,441.7773596731713 L 146.24392199888825,442.77004523272626 L 146.01941070333123,443.42340112978127 L 146.509790642187,443.42340112978127 L 150.49782014079392,445.8298750828253 L 152.16393022611737,446.402276056353 L 155.6143142990768,448.59749846719205 L 158.09280079230666,450.8713027719641 L 158.69839043170214,451.1944516687654 L 160.7012674640864,450.73453089559916 L 161.30981122888625,450.7751113898121 L 162.6214298401028,451.0817242418416 L 164.136881057173,451.7069999600062 L 166.1663449574262,453.07190552947577 L 167.25640636123717,454.4189361134777 L 170.88994434662163,455.8262758939527 L 172.09816957451403,457.1796554821776 L 173.24435880221426,457.57667818060145 L 173.81154522113502,458.61742664442863 L 174.38168572820723,458.8535638990579 L 175.59581916965544,458.74978322617244 L 176.1098318528384,458.5241764090024 L 176.63270683586597,458.09553618205246 L 177.51598151028156,456.85182169266045 L 178.1215711850673,456.833776087733 L 177.97091227956116,457.4954678521026 L 178.56173147819936,457.4894522726536 L 181.9412172101438,455.93454020109493 L 183.21147847734392,455.7721441363683 L 186.46689220704138,454.88201545132324 L 187.7371534369886,455.0910088476958 L 190.28358414396644,455.8262758939527 L 191.37955372408032,455.68643607210834 L 192.31009395606816,455.1105552188819 L 193.90530574135482,453.4176679592347 L 194.92151475325227,452.62994653976057 L 196.19177598133683,452.1549352200236 L 197.5920174624771,451.9610281409696 L 199.00998350977898,452.0166445564246 L 200.9006048925221,452.58484966750257 L 201.91090572811663,453.2402754748473 L 203.1102686561644,453.44172140804585 L 204.12647766806185,453.8716853358783 L 205.5946633629501,453.93633167562075 L 206.70244933106005,454.2791139809415 L 207.95203190669417,455.2985026194947 L 211.15131777711213,456.7691128589213 L 212.59291660226882,457.91054922365583 L 214.19108251295984,458.6234428383177 L 214.93551466800272,459.6101395469159 L 219.3489340171218,461.1023857402615 L 223.8598384987563,464.68340318114497 L 225.61457145400345,466.3358833756065 L 227.28658975474536,466.8295693390537 L 228.61593293212354,467.82754614332225 L 232.37354295700788,469.75150888157077 L 233.79150900430977,470.1896424333099 L 234.91997366398573,470.0119778801454 L 236.82536552660167,470.4922812259756 L 238.03063666634262,470.2754645082168 L 243.658189419657,467.35338275681715 L 244.8457359932363,467.10501978266984 L 246.91064902581275,468.1752792033367 L 251.46586497873068,468.2625905642053 L 253.47760427556932,467.9886159019079 L 260.08887099660933,468.41463447129354 L 261.19370287656784,468.747332054656 L 262.46396410651505,470.2709475514712 L 263.18180943094194,470.6187596799573 L 263.3383765146136,471.16986176359933 L 266.03546609170735,471.59450079256203 L 266.3988199047744,471.7767092039576 L 266.9128325879574,472.81279645720497 L 267.7990613486618,473.5507688418729 L 272.72649337910116,474.32343559723813 L 274.3039805982262,475.1729821030749 L 276.625900009647,475.08712058654055 L 279.12506515718997,475.59326165763196 L 281.6330926064402,475.02385466662236 L 283.03333408758044,474.49665320978966 L 284.4188050534576,473.6833080727374 L 287.6210450492799,472.62906433281023 L 288.1734609901905,472.5251516774297 L 290.81442277878523,472.66069011972286 L 300.35319851338863,474.46954073384404 L 301.75048590637743,475.08712058654055 L 302.672163836658,476.1416084654629 L 303.46976972930133,475.75896788039245 L 303.8419858068228,475.7408906862838 L 306.8728882409632,476.11750469950493 L 309.3927320819348,477.48547976021655 L 310.0721741486341,477.61354818427935 L 310.5950491335243,477.93146593053825 L 311.4192418921739,479.5211988235824 L 311.93325457535684,480.143595855101 L 312.5949720758945,480.3847281043418 L 315.052779879421,480.3967848700704 L 315.83266120404005,480.7961728939554 L 316.58595566265285,480.9152386765927 L 320.8723488468677,480.32444452145137 L 322.5561835374683,480.56558097340167 L 323.6255662497133,481.4291964705335 L 323.9091594591737,481.39452987909317 L 325.85590870305896,482.4421140245395 L 326.6003408599645,482.18887539370917 L 330.58837039396167,482.18887539370917 L 332.73008994199336,483.3450803812593 L 333.83196769841015,484.21344922611024 L 335.1288158316165,484.18631159572396 L 336.1391166318208,484.75923211779445 L 337.6959251947701,485.1738653725479 L 341.4712597858161,488.1250271711033 L 343.13441578298807,488.46287377760746 L 343.81976606324315,488.92893929756247 L 346.56707525253296,491.9173906844808 L 347.1756190173328,495.1919652335346 L 347.50647778622806,495.90134423424024 L 348.8624077960849,497.4712110859109 L 350.7323505245149,498.1822601542808 L 351.2286386396736,498.71218288037926 L 351.9671626202762,498.4585411736043 L 354.2684033755213,499.33272627030965 L 355.6007006056607,499.61507865122985 L 355.97882489673793,499.8762994516874 L 356.9182785768062,500.0 L 359.42993333376944,498.2846660555806 L 363.1698165051639,497.89255107799545 L 365.3196762409061,496.13982752512675 L 366.02865926362574,495.90134423424024 L 368.8911782260984,495.90134423424024 L 369.60016124881804,495.7141840873519 L 370.8320192564279,495.0380214898614 L 373.2248369343579,494.74825133697595 L 374.88073948025703,494.2122017754009 L 374.3237606380135,493.00678636471275 L 373.92541256546974,491.4746624092804 L 373.3075312618166,490.3434460957069 L 373.537988813594,488.59663466224447 L 373.2509749531746,487.5119607747765 L 372.588118577376,486.9006477526855 L 371.970606116578,485.86482696945313 L 370.83498096838593,484.78582458989695 L 368.6430341489613,482.06225838547107 L 368.8911782260984,480.787129963981 L 368.79369305446744,479.93863779318053 L 367.2073435354978,475.99548030633014 L 367.13644523359835,473.568842267734 L 366.88830119371414,472.00861534068827 L 367.3757270090282,470.3131059994921 L 369.00909949466586,469.3058401721064 L 370.587964149192,469.2322725013364 L 371.13480137102306,468.47538088355213 L 370.22347549162805,467.67852113279514 L 368.7493816204369,464.7932597324252 L 368.4332933295518,463.11393027950544 L 369.27225660532713,451.4123945517931 L 370.0875870641321,448.52086137153674 L 369.8571675904095,448.12415992247406 L 368.15560833364725,447.712446644553 L 367.95472981594503,447.0483275189763 L 368.14674603194,445.44077904953156 L 367.96654620580375,444.6896659733029 L 367.6061464827508,444.22700491629075 L 365.55600392632186,443.6862559970468 L 364.92087329365313,443.11699511122424 L 364.6225096061826,442.4501397104468 L 364.9238273818046,441.9109763898887 L 365.63871858268976,441.78782840655185 L 371.1687861662358,442.896207620739 L 372.2558934800327,442.74601444834843 L 372.382919607684,443.0343870347133 L 372.2263525240123,443.4459313242696 L 371.3903433736414,444.05276080360636 L 371.2633172478527,445.6676249378361 L 370.64886530674994,447.2045873508323 L 372.2652832195163,445.8058110970305 L 374.87472222186625,444.1499010893749 L 376.085207156837,443.8769006652292 L 377.22250264696777,444.2852006283356 L 378.60058614239097,444.1110527907731 L 378.8874976374209,443.28728234383743 L 379.39426013454795,442.9468877693871 L 378.6853620894253,441.03898981551174 L 377.78005288541317,440.50836891506333 L 377.90749998390675,440.0019851762336 L 377.59310769848526,440.0031869778177 L 376.94113034009933,440.2716883168323 L 375.87466098740697,440.4002521026414 L 375.17597687244415,440.18180471425876 L 374.1610703021288,440.3788198897382 L 373.5704661794007,441.9440163017716 L 373.0032797604799,442.13925412658136 L 367.5263969488442,441.46414727391675 L 364.8774668890983,440.52685571904294 L 361.6200335752219,438.53156366117764 L 360.9844621885568,437.3431580369361 L 360.6876538079232,435.0857506006723 L 361.09096567705274,432.96166821580846 L 360.0377526972443,430.174235165352 L 360.21499847248197,428.4925137788523 L 360.6876538079232,426.871025176486 L 360.2918049506843,425.92613320657983 L 359.816195525229,423.36929833493195 L 359.9432216528803,422.9569564285921 L 359.2874123286456,421.5041253698291 L 358.9565535951406,419.66472179372795 L 358.2032591383904,417.9215170458192 L 358.3982294779271,416.89489602227695 L 357.8842167966068,413.58631148422137 L 357.21954520605505,412.6064928234555 L 357.1959124263376,411.48294258886017 L 357.46768924593925,409.5401882264996 L 358.3302852641791,407.17992907122243 L 358.4602654799819,406.41024460620247 L 358.0969117023051,405.06715246115346 L 355.84589059464633,401.3755017403746 L 355.11918300390244,400.7962517113192 L 352.98337163217366,399.74109574453905 L 351.44133354723454,397.40658885310404 L 351.2286386396736,396.8544496045215 L 351.49450728297234,393.6946876087459 L 350.95686182007194,392.32599300623406 L 349.8992954622954,391.0292298300192 L 345.92012826539576,387.87086310167797 L 343.91725123487413,385.5264981142245 L 343.2762123886496,384.38586118083913 L 342.7651537936181,382.88808057270944 L 342.1063904184848,379.8466887277318 L 341.5421580877155,378.57354029698763 L 339.80810378678143,376.45188792445697 L 339.55700562149286,375.6899654942099 L 339.6663071811199,373.4656897681998 L 339.55700562149286,372.8069898011163 L 338.9720946364105,371.4403981687501 L 338.49057699739933,370.78627344826236 L 337.25576490163803,370.2650862419978 L 336.31045419164,368.250706517254 L 333.6340432688594,364.69002851319965 L 333.0875355415046,363.4928838709602 L 332.05951013974845,360.24825454712845 L 331.2619042471051,358.836603939184 L 330.07140358537436,357.7100670847576 L 325.3921156320721,354.8292103356216 L 322.2223707176745,351.56561058573425 L 321.57542369514704,350.50971690693405 L 321.15003388002515,349.1765330261551 L 320.81326693482697,346.58804558462 L 321.0082372762263,346.15269801951945 L 321.5458827391267,345.7978691116441 L 321.69949573278427,344.97642702574376 L 321.6049646511674,344.0551522290334 L 321.39817791990936,343.4022432381753 L 320.3612902536988,341.92212023120373 L 319.27713706344366,340.74170032457914 L 318.9610488098115,340.11873701773584 L 318.6685932986438,337.8759762768168 L 312.9494635872543,327.83437540591694 L 310.55073766224086,325.08560302644037 L 304.97931273281574,317.25871010287665 L 302.29994775913656,311.96443323406857 L 300.63383763469756,309.39376688806806 L 298.84070142172277,304.38442687445786 L 294.368200160563,294.9466195538407 L 294.34456738084555,293.3221039783675 L 294.7640490196645,291.0052203965606 L 294.24412812292576,287.81198163167574 L 292.9679586812854,285.04860233457293 L 286.21489539183676,273.37686095025856 L 280.6139295063913,264.7272402626695 L 278.8326096832752,260.8140273030149 L 277.8666202817112,259.4993936768733 L 275.25224539637566,256.986080730916 L 271.6187074109912,250.92206012434326 L 267.2939109671861,246.21791565977037 L 262.7032458819449,239.99660009902436 L 257.37701090425253,229.215342340176 L 253.4864665772766,223.54047995968722 L 240.03646778687835,209.0815903088078 L 236.8165032248944,204.5863319117343 L 219.52617975510657,186.57032420078758 L 213.0389851089567,178.98611430986784 L 208.16768090054393,174.65171869448386 L 205.4705913234502,171.4034635674907 L 200.4633987247944,167.22076670464594 L 197.79585010372102,164.48035662714392 L 195.51824212819338,162.85216760856565 L 195.0692195352167,161.87321373808663 L 194.28638412058353,161.5168327363208 L 193.26131284236908,159.49394515913446 L 191.3411504663527,158.4544418483274 L 187.92326147668064,154.8673783217091 L 186.56733146682382,152.74720887548756 L 185.04301794804633,151.7832581027178 L 184.48469383083284,150.73062232346274 L 183.73730754852295,150.11560972302686 L 176.45250697433949,145.4175198241137 L 154.88465258292854,133.02530274225865 L 153.7059683110565,132.7326753909001 L 146.509790642187,129.3453932829434 L 134.70522328466177,121.03754045069218 L 130.1234204992652,118.18572809069883 L 122.23598437197506,112.04508115921635 L 118.19182705134153,107.89345250127371 L 115.88763220608234,106.62879451108165 L 115.31453761085868,105.9240799867548 L 115.166832793504,104.84264108748175 L 114.33082364313304,104.49546035414096 L 111.35014085657895,101.42554700316396 L 110.61161687597632,100.94394208071753 L 109.82878146320581,100.74007316376083 L 109.38566708192229,100.37961019191425 L 107.71069465763867,98.24344733671751 L 103.61631772480905,96.0511876042001 L 102.23970902338624,95.04075210285373 L 100.50860877521336,92.62105662596878 L 99.39196054078639,92.0966471954016 L 97.77607006393373,90.80409692344256 L 90.8309905230999,84.11107186123263 L 84.21972383931279,76.64871684927493 L 77.129893604666,69.69318683177698 L 65.51734249852598,56.89011053694412 L 61.0714281052351,53.27427899034228 L 58.62248260341585,50.78394967492204 L 57.73625380732119,49.52843995078001 L 57.55014576762915,48.60379113885574 L 56.67277927137911,48.41767942265142 L 56.40691062808037,48.178392764995806 L 54.97122001461685,46.26409288519062 L 54.779203763231635,45.66144033172168 L 55.2164099663496,45.271487940335646 L 54.85010206513107,44.66883315797895 L 54.720121851190925,44.527031823876314 L 54.70535137318075,44.934710456989706 L 54.471977811306715,45.271487940335646 L 52.53409086726606,43.761894072405994 L 52.00235361792147,42.80472990870476 L 50.25648292712867,41.0528727582423 L 46.64066950790584,36.69532070285641 L 46.46046964637935,35.90356447501108 L 45.999630661681294,35.699716170551255 L 44.53439909219742,33.41009838122409 L 43.60090477205813,32.44697168527637 L 42.475394235923886,31.755643768352456 L 40.15347482636571,31.50156516302377 L 39.825570181012154,31.117492006975226 L 40.5227368157357,30.966816891916096 L 40.49319585971534,30.26070967328269 L 40.16824530437589,29.47778323525563 L 38.89798403903842,28.18668322218582 L 38.15059779398143,26.4435299676843 L 36.53766140528023,25.29126262187492 L 36.39291071332991,25.542398754274473 L 36.23634362965822,27.066931615350768 L 36.27474685199559,28.493948422954418 L 36.06205194443464,29.11438563419506 L 35.84344886057079,29.11438563419506 L 35.93797994218767,28.564855679753236 L 35.651432644575834,27.793737197411247 L 35.61302938684821,26.92511540162377 L 35.94388812035322,25.53944422234781 L 36.58197284117341,24.877625507302582 L 36.52879910543561,24.425577560206875 L 35.867081640288234,22.79169014666695 L 34.821331672370434,21.757571874652058 L 34.59091219864786,20.888904940104112 L 32.977975809946656,18.891534720431082 L 32.81845463998616,18.522194255609065 L 32.94252664223313,18.18535455770325 L 33.22611985169351,18.206037748837844 L 33.834663616493344,18.631519185146317 L 33.397457448765635,17.671228633844294 L 32.57621877640486,17.573721685097553 L 31.819970194250345,18.13216926716268 L 31.577734330669045,19.151549588539638 L 31.353223033249378,19.151549588539638 L 31.394580379128456,18.412869207095355 L 31.819970194250345,17.118687999784015 L 31.8495111502707,16.427269084611908 L 31.624999890103936,15.759483698755503 L 27.837848871946335,9.630993761471473 L 26.29285673610866,7.509263722458854 L 24.928064389154315,4.7639330555684865 L 23.421475471928716,3.744382726144977 L 22.13053555227816,1.587027236702852 L 21.397919749841094,0.9664062622468919 L 21.622431045398116,0.9664062622468919 L 20.680074460804462,0.0 L 20.80693836323917,2.9997769416077062 L 20.67562877200544,3.686607578769326 L 20.23667966388166,4.486025461694226 L 0.5214865487068892,29.97353847452905 L 0.11255105771124363,61.48529916827101 L 0.0,163.77902963978704 L 0.5214865487068892,164.78758984687738 L 13.697463404387236,177.84668160427827 L 33.87036416120827,206.79022661724593 L 34.369340470060706,207.19264022517018 L 34.560677295550704,207.6467722869711 L 34.53066367842257,208.76191714208107 L 34.77827599644661,209.46995259379037 L 35.42356868647039,210.0397784007946 L 37.9859810564667,211.61484997533262 L 40.038161961361766,213.25489639258012 L 41.29123034514487,213.8859255121788 L 42.4692647382617,214.18404694658238 L 48.34818151779473,214.24423589056823 L 66.22504075802863,217.29711208317894 L 67.7444799952209,217.90565803437494 L 69.09884435124695,218.79545713681728 L 70.21309980377555,220.0455512041226 L 70.7608482632786,221.21762503357604 L 71.40614095330238,223.7632506681839 L 71.89386221207678,224.98817226779647 L 72.41910046711564,225.73519517062232 L 78.18546618893743,230.48126408539247 L 93.04032958298922,237.54272002947982 L 104.53554403036833,240.19446065532975 L 107.69822864420712,241.318501751055 L 109.03008279763162,241.6376485687215 L 143.28312053903937,239.6494041745318 L 144.3335970491171,240.0899669843493 L 180.4324720799923,279.6625936361961 L 199.70688257552683,299.4410365920048 z" /></g></g></svg>