<svg xmlns="http://www.w3.org/2000/svg" xmlns:xlink="http://www.w3.org/1999/xlink" width="487.17053492739797" height="500.0" viewBox="0.0 0.0 487.17053492739797 500.0" preserveAspectRatio="xMinYMin meet"><g transform="matrix(1,0,0,-1,0,500.0)"><g><path fill-rule="evenodd" fill="#D2EBD9" stroke="#A6A6A6" stroke-width="0.25" opacity="1" d="M 475.89680714160204,176.34295655979076 L 471.89990669861436,173.48155778617365 L 468.82805133238435,168.65621598169673 L 464.46700356528163,163.34300228575012 L 462.80770821124315,160.65559264371404 L 460.33418613672256,154.59523479547352 L 463.10379068925977,155.0214888844057 L 464.40531987696886,153.29794868978206 L 464.6890654526651,150.59222361876164 L 464.41148809343576,148.0656968379626 L 463.042106885463,147.089692618174 L 462.78303476050496,146.43490910652326 L 464.1524159684777,145.5330429961905 L 464.41148809343576,145.2118319912115 L 465.1455258950591,142.33332236798014 L 465.3490826636553,140.6470149551169 L 464.8186015151441,139.9057878270978 L 463.44305185601115,139.10279656288913 L 464.0845637097955,137.4227076022653 L 465.39842968434095,135.9464707809966 L 466.03377320989966,135.7488168720738 L 466.08928868174553,134.10583035752643 L 465.22571493685246,130.44933177763596 L 463.2148216329515,127.33026919100666 L 462.78303476050496,125.95913971029222 L 462.7028457187116,124.70537136594066 L 462.9064023718238,123.90247143880697 L 465.22571493685246,121.80260185938096 L 463.79464968666434,121.02442311507184 L 462.99275974556804,120.03626579517731 L 461.1052341721952,114.47801269276533 L 460.1738080531359,112.64383751584683 L 451.4825545363128,100.87973983597476 L 447.2942216359079,92.35830890515354 L 442.63709150627255,80.57112255878747 L 440.70638712868094,77.67540321190609 L 434.99446326866746,71.95821091433754 L 433.56339801847935,71.38403337850468 L 431.76222994178534,71.1247280727257 L 429.12832977995276,71.09385843831114 L 426.6486392505467,69.70473003486404 L 423.43491103872657,61.56158864335157 L 422.0902032852173,60.518258443742525 L 419.75238560140133,60.27131722221384 L 415.7429357841611,61.49367934145266 L 414.01578817516565,61.1911748762941 L 412.09742058068514,58.857586324738804 L 409.8490445576608,58.12294469680637 L 407.55132139474154,57.69080412585754 L 405.22584049776196,57.62906976341037 L 402.8818543627858,57.987128901528195 L 401.49396792054176,58.68472909188131 L 401.20405389368534,59.64779254858149 L 401.33667412400246,60.80224121501669 L 401.18246449157596,62.07399587938562 L 400.1122498102486,64.79039788409136 L 400.7969405911863,67.04381078918232 L 402.31436309590936,67.346326205472 L 402.5117514170706,68.08718230732484 L 401.68210362270474,70.74194487964269 L 401.6049988642335,73.14361635339446 L 401.0714335478842,73.68075595056871 L 399.4584011696279,74.59451493958477 L 396.8491744585335,75.61323898215778 L 394.84753389656544,75.5268014310277 L 390.94603073596954,73.42144693806767 L 385.04597117751837,71.66803494031774 L 380.465945687145,73.32266264577629 L 368.7336787059903,84.75735334062483 L 368.2278712429106,85.86876098427456 L 368.6164794303477,87.51118950016098 L 370.92345520853996,89.85137178481091 L 371.706840030849,91.45061989023816 L 371.0591597221792,92.63617391313892 L 368.9372354783118,92.38918275630567 L 364.0580433420837,90.43796653108438 L 361.67087864130735,88.92517383379163 L 357.0692639835179,85.01668107690057 L 351.74594831094146,82.57778246398084 L 350.79601707309484,82.68274688656675 L 349.8707594051957,83.65212807978969 L 350.29020961001515,85.9305061752093 L 349.7288865596056,87.04192242911085 L 345.6515846028924,86.70232214301359 L 336.10600984096527,79.3609646744444 L 333.3209842145443,79.53384378290502 L 331.92076098546386,81.27499415480997 L 330.033235412091,81.96652020380134 L 327.9174796193838,81.79981281864457 L 325.860323343426,80.96010382851819 L 323.8586827814579,79.00285853852984 L 323.1955814026296,76.77397481905064 L 322.8748254738748,74.58834092650795 L 321.8847997151315,72.74848023452796 L 318.4798515178263,71.27290244796313 L 314.18665600568056,71.35316369443899 L 309.5603677779436,71.94586297211936 L 305.1438046582043,72.01377660641447 L 298.3524134978652,71.40255528734997 L 296.0701112896204,71.71125260798726 L 293.56574730947614,71.72360053221928 L 289.13993157073855,69.65533908002544 L 279.72080858424306,67.29693584644701 L 277.3552331663668,67.79083951096982 L 276.103051237762,68.79099890659563 L 274.7275014594197,71.40255528734997 L 273.8392541445792,72.45212878397433 L 272.6981030404568,73.06335421308177 L 264.26592164486647,75.15018175839214 L 262.2488600127399,76.13803863310022 L 255.7597196623683,81.48492131259991 L 253.11348283663392,82.9791175518767 L 250.26985757425427,83.23844230390387 L 248.83879232406616,82.77536271093413 L 248.0955021418631,82.10235598747386 L 247.17949697375298,80.00308808934642 L 245.91497825831175,74.91556657920592 L 245.8347892165184,69.61212196206907 L 245.21795080974698,67.52536608331138 L 241.72972940281034,62.30241888418095 L 240.8137243539095,61.33934028452495 L 239.39191184192896,60.684943836706225 L 238.0472039654851,60.783720501698554 L 235.8944379352033,61.91965628543403 L 234.42327828332782,61.580109442875255 L 232.86884542554617,59.672486467054114 L 231.0553403235972,56.24005440325709 L 229.63661209493876,52.70274626114406 L 229.29118247702718,50.48656412924174 L 230.66673213616014,49.572937386867125 L 235.8944379352033,49.25810766662471 L 238.10580372437835,48.73339268815471 L 240.36343236267567,46.64689469267614 L 241.4583204947412,41.94927775586257 L 243.0713531151414,39.41224561049603 L 246.28508132696152,37.202402193215676 L 247.3152014873922,36.295016098360065 L 251.58989188075066,30.752033671655226 L 255.66719383746386,27.252261932415422 L 256.5677780546248,25.90360164141748 L 256.94096529111266,24.382126877608243 L 255.9324344135821,20.672617821546737 L 256.0804757103324,15.364624083100352 L 256.7466611377895,10.59680810419377 L 256.11748594790697,6.295068509993143 L 252.3239295631647,2.360628754424397 L 244.46540800854564,0.0 L 236.94614750146866,1.5583205454749987 L 229.47006567940116,4.570077541749924 L 221.7719219699502,6.572796539228875 L 216.02298775687814,6.22717947937781 L 214.1292938515544,6.449361800448969 L 211.8716650903225,7.39981079089921 L 207.58463803306222,10.146262958587613 L 205.27766225114465,11.118330658879131 L 202.98302325606346,11.389893258688971 L 199.4793810211122,10.528917654824909 L 197.25259428098798,10.294387218076736 L 195.50694143772125,10.65235484141158 L 189.29846261441708,12.911267677030992 L 188.9067702628672,14.296870349557139 L 188.17890091240406,15.45411811786471 L 187.1302755139768,16.299684584722854 L 184.62591141834855,17.10513648565393 L 183.62046482786536,17.709999090933707 L 182.77231203392148,18.527800828043837 L 182.1061264872551,19.54620019166032 L 177.60629015788436,21.891624983225483 L 165.90486508235335,22.082963588123675 L 162.63562139868736,23.42542473465437 L 151.14392142370343,39.70853953569895 L 150.27417910844088,43.27027714520227 L 149.36742655560374,45.87526708532823 L 148.19234938174486,51.14092138916021 L 146.67801116406918,53.46205753443064 L 145.61396481469274,54.02999990951503 L 142.85978120937943,54.54238430800615 L 141.75255617499352,55.09798357775435 L 141.24058037996292,56.16597392386757 L 141.3053483515978,60.46887012256775 L 139.9729773811996,63.135856906999834 L 135.70137115195394,66.86477143835509 L 134.79153455421329,69.03177883609897 L 135.55949830636382,70.74811874481384 L 135.772307574749,71.98908083385322 L 135.19556368887424,73.14979031070834 L 133.21859645470977,74.98348147340585 L 132.65418923646212,76.03307858802145 L 132.26866533607244,77.67540321190609 L 132.5154005549848,78.83615419320995 L 133.10139717906713,80.15744497417472 L 133.26177514344454,81.4602240625536 L 132.26866533607244,82.56543369195424 L 129.83215349540114,80.7748745145509 L 128.14818457514048,80.19449084036751 L 127.37713653594255,81.30586577090435 L 128.00631160661578,85.3315796465613 L 127.79041817039251,86.2021849519806 L 124.77407827973366,89.71552902669646 L 124.19425022602081,90.79609936685301 L 124.11406118422747,92.82759231806267 L 125.00230849906802,95.79769710026449 L 124.19425022602081,97.32290907792049 L 121.71455970034003,95.92119550303323 L 120.76462845876813,96.62513808399672 L 120.04909589514136,101.33052493800642 L 118.8647661022842,103.5227187256096 L 115.78057395294309,106.78328208846506 L 115.15756721422076,108.34566168132005 L 116.44675937667489,111.04435746360105 L 116.7181684076786,112.34123181714676 L 115.56468051671982,112.90321434516227 L 111.48120998963714,112.28565123199951 L 111.08643347024918,112.01392430771375 L 110.29688031598926,114.26803841767833 L 112.3571206368506,118.5725708330283 L 111.5243887938559,119.35691175493412 L 110.11182878166437,119.09752306918381 L 107.71849562600255,117.97968621947803 L 106.60201809182763,117.72647591459099 L 105.17095296084881,118.23907293385128 L 104.25803195685148,120.48093565326417 L 103.30193238705397,120.98736704292241 L 102.81463004276156,122.22257315384923 L 101.22935527935624,128.4049479312962 L 102.33966448158026,129.59081030788366 L 104.2025166042149,131.07315303385258 L 105.50404567271471,132.75316133419983 L 104.93038595467806,134.52584007929545 L 100.9641148224473,134.945851013239 L 99.44052386656404,135.8229371428606 L 101.04430386424065,138.47893746435875 L 100.41512855514884,141.90711071318947 L 100.7975684069097,142.32714530988596 L 102.46920054405928,142.24066760356072 L 102.85780872777104,142.7286503938958 L 102.03741367161274,146.06427841779077 L 100.92093613743782,148.72048870805884 L 98.8606956936419,150.61693320743507 L 97.77506006136537,152.79757049598265 L 99.59473349899054,156.30025974451564 L 99.10743103176355,156.57825522014173 L 98.8606956936419,157.0415822309442 L 97.01018047705293,155.60218521143543 L 95.82585056498647,155.21917232341366 L 94.62918410822749,155.41685631376458 L 93.30298135057092,156.3867472523707 L 93.52504323795438,157.1713141075452 L 94.29609127342701,158.12268545571715 L 94.62918410822749,159.56828954670345 L 93.34616015478969,162.32981104473583 L 93.07475112751126,163.645725778013 L 93.17344540730119,165.10992892814102 L 93.8149572648108,167.56884160503978 L 93.96916689351201,168.98984409682453 L 93.54354847595096,170.4170416451525 L 92.79717388749123,171.39940825587837 L 92.53193343058228,172.39413977199 L 93.51887478679419,173.88934198999777 L 93.69158965349197,174.63695006724447 L 93.96916689351201,178.78904125315603 L 93.59906382858753,180.46660160989268 L 90.63207095488906,186.5776975902263 L 86.85701980814338,183.61788507335586 L 83.66796504706144,183.07412802253384 L 80.4789104051888,184.05659994500456 L 76.71002759039402,185.6909817334381 L 76.83956353366375,183.52519899071194 L 76.00683169066906,182.47785211261362 L 72.63272551447153,181.60661493887892 L 71.49157441034913,180.3924548100331 L 70.59715864434838,179.8857861655415 L 69.90629964694381,181.03506216639653 L 69.19693541526794,181.3903514154954 L 67.29707305878401,181.60661493887892 L 65.08879143744707,183.0308747420204 L 63.55286381393671,183.3336481625447 L 62.38703913986683,180.98563076136634 L 61.28906672075391,180.8187996990746 L 59.987537652254105,181.1864461909281 L 54.244771771132946,184.39336098043714 L 50.8768340498209,185.08542351069627 L 49.86521900445223,185.5056063309312 L 49.27922238409519,186.00612038379768 L 48.87827753275633,186.61477289506 L 48.36013316735625,188.03291493986035 L 48.11339770630002,189.28423133253818 L 48.187418416142464,190.27602504042443 L 48.79192003980279,192.43575532996329 L 48.85977229475975,193.2390988629777 L 48.582195054739714,195.49776063795434 L 50.39569991827011,199.02334073581733 L 50.56841466575861,201.13688803446712 L 48.61303683742881,203.35244771820726 L 45.66454920172691,205.0241894038627 L 45.41164552792907,205.38264376594452 L 44.12862157821655,205.5556911076419 L 43.54879340529442,205.80290216917638 L 43.012143924832344,206.39930096641183 L 42.753071799874306,207.23982701310888 L 41.80314056202769,209.00433450145647 L 41.20480727404356,211.0995309513528 L 40.77302040159702,211.96481565380236 L 36.22075276449323,214.8821117413463 L 30.385461177676916,217.30501092592021 L 28.39924144744873,218.57210995041532 L 27.06070214137435,220.7911148639978 L 26.351337790489197,223.31613902648678 L 26.03058186173439,228.74344514939003 L 25.52477427944541,231.03993538639043 L 22.98340006545186,236.48618955892744 L 16.93221492320299,245.36401773319812 L 14.989173877984285,247.64233238383895 L 7.136820655316114,253.8438147326233 L 4.243848491460085,257.485743222991 L 3.065687034279108,261.71215694362763 L 1.5050858408212662,271.88784049329115 L 0.0,277.04257224843604 L 0.20972510427236557,279.51954076014226 L 1.8690204545855522,282.0646088763606 L 12.262748010456562,292.7095000111731 L 13.588950648903847,294.7415089441347 L 14.359998688101768,297.1045107949176 L 14.612902477383614,300.1171181330574 L 14.279809765517712,302.09980251209345 L 13.632129337638617,303.9216837681597 L 13.255857937037945,305.8054673418519 L 13.730823617428541,307.9955317808781 L 14.908984836190939,309.8360937789548 L 16.278366282582283,311.3611597039853 L 17.407180603593588,312.92956135456916 L 18.28925958275795,316.8955457287375 L 20.48520442098379,322.2168059492251 L 22.508434385061264,325.60773265874013 L 24.395959958434105,331.703074392688 L 26.530220989137888,334.79113459726796 L 27.486320562660694,336.8705330922967 L 27.65286697819829,339.141839512391 L 26.659757051616907,341.2584800416371 L 23.458365626633167,345.35575516778044 L 21.86075408011675,350.282655804418 L 19.880702678114176,351.6072747920407 L 17.888314493000507,352.6193227173644 L 16.987730395048857,354.26895676658023 L 17.80812557041645,358.2956895090756 L 19.726493045687675,361.04735327139497 L 21.90393276512623,363.3874244398321 L 23.513880979269743,365.3839675937197 L 25.94422448799014,369.4422107192222 L 26.84480858594179,370.2904126717476 L 28.343726094812155,370.67117786296876 L 29.49721386283636,370.33994305849774 L 30.644533302634954,369.770346190664 L 32.137282356619835,369.47316693753237 L 35.06109654158354,369.8786931540235 L 36.44898298755288,370.96836170903407 L 38.24398285150528,374.37986396084307 L 41.4453743994236,377.469536536315 L 45.448655765503645,379.44166574731935 L 49.93307126313448,379.7017302828608 L 54.62104329094291,377.6552922661067 L 59.858001589775085,379.5407377925003 L 62.596764244139194,380.0206203761627 L 65.66245127469301,380.18161385302665 L 66.30396313220263,379.7884188130265 L 68.13597335293889,378.05157265550224 L 68.92552650719881,377.6552922661067 L 70.46762270107865,377.79151346947765 L 72.47851600497961,378.40760750399204 L 81.92231231927872,379.3797456328757 L 84.92631542682648,380.18161385302665 L 88.1215385235846,381.57793687225785 L 89.81784434989095,381.81943196221255 L 90.86030117422342,381.6212821051595 L 91.79172717779875,381.2218874924001 L 92.77250043675303,381.1228131990647 L 93.96916689351201,381.81943196221255 L 89.61428757756948,385.7577669195598 L 89.07763821259141,387.09845642431173 L 89.22567939385772,388.6868783987011 L 89.5957824587822,390.04619723156793 L 91.3722770884633,394.0871386619983 L 92.16799869760871,397.5306228265399 L 92.95138351991773,399.1873905637767 L 94.29609127342701,399.8934632635792 L 96.4180155210197,399.81913941097446 L 97.92926969379187,399.34842408867553 L 98.94705307111144,398.10661644657375 L 99.59473349899054,395.72215499996673 L 101.45141704753041,396.4932259640191 L 103.33277440816164,397.58017056033714 L 104.78851298987865,398.97061518148985 L 105.37450961396098,400.6398016700987 L 104.48009384423494,403.0399025758961 L 100.50148592889309,407.88679098372813 L 99.59473349899054,410.16013604111504 L 99.08275758475065,410.89728468528483 L 97.8860910050571,411.26276447519194 L 96.52904646471143,411.1946240210091 L 95.52359975501895,410.6061410167604 L 95.31387465074658,409.4570641538012 L 95.9307131767273,408.2987134245923 L 97.15205320343375,406.8461546424078 L 96.83746560662985,406.05020145938033 L 96.04791245236993,405.5360883473768 L 95.01779229193926,405.39981805707794 L 93.96916689351201,405.69713553629117 L 93.37083360552788,406.35371576208854 L 93.15494016930461,407.2983340471401 L 92.96988863497972,415.67034378653625 L 92.58744878321886,416.00487207231345 L 91.83490598201752,415.967702254653 L 90.63207095488906,416.26196432311554 L 88.91109179705381,415.5588346544537 L 87.85012961551547,415.5588346544537 L 87.37516417354345,416.67083581513725 L 87.78227747604251,417.9872933489387 L 88.75688216462731,419.2727981369244 L 94.56133184954524,425.12445267417934 L 95.78884033113718,427.03896565240575 L 96.2638058885932,429.84267189883394 L 96.39951040223241,432.4141223714105 L 96.77578180283308,434.3195334622869 L 97.88225316628814,436.81905251846183 L 100.57788571342826,439.5271354515571 L 104.40519818663597,440.99100684694713 L 106.01772063598037,442.29387778468663 L 107.13482961431146,443.7578062005341 L 107.90709196031094,445.470640962536 L 110.7775762565434,458.42805152520305 L 111.34584483131766,469.80133379704785 L 112.16667700558901,473.78975234751124 L 112.43292681500316,476.78770786867244 L 113.85611716285348,481.67110675812 L 115.23641195893288,484.97956603352213 L 118.39820232242346,490.2096836096607 L 118.89361579343677,491.5574399763718 L 119.56388125196099,492.6219917155686 L 120.55956529453397,493.31542456470197 L 123.28919684514403,493.79887848789804 L 124.73658150807023,494.88300025864737 L 125.91683138906956,495.47390303667635 L 128.1024793945253,497.73012599762296 L 129.27301530912519,498.1647752413992 L 130.47755022346973,498.3845428651548 L 131.75798585265875,499.70932055672165 L 132.63346809893847,500.0 L 143.32443669438362,497.36702192225493 L 147.69516536220908,496.8773778930772 L 153.61946173384786,496.87157253344776 L 168.08808376267552,496.17631355905905 L 170.12680283933878,495.39706009835936 L 173.82836516574025,493.0476650191704 L 176.01484933122993,492.1002574576414 L 178.30117141455412,491.5006459192955 L 183.92223685979843,490.99567691079574 L 196.87872284650803,487.971589554043 L 204.43341712653637,485.9700845807092 L 210.54700704291463,485.71060804487206 L 223.93585834279656,482.12371917808196 L 231.97904301807284,480.37579527590424 L 236.8993711359799,478.7339605349116 L 239.81687112525105,477.93861357308924 L 242.27587357908487,477.5098843803862 L 246.90867283567786,475.8959173010662 L 254.44972363859415,475.16979989007814 L 256.61372435092926,472.77920071117114 L 258.32338682189584,471.77354577567894 L 259.02279417961836,470.1723396194866 L 259.02279417961836,459.8191032721661 L 259.9116243571043,459.8191032721661 L 260.53817672654986,461.7080498447758 L 260.74217061698437,463.5824046074995 L 260.6547446809709,467.6436821008683 L 260.26618495956063,469.7476357721607 L 256.9139482155442,477.22274424601346 L 258.75205336138606,479.64557936188066 L 257.55359713733196,480.7199994638213 L 254.69409649446607,480.5891271503642 L 253.03333462029696,481.99227187782526 L 252.63980296626687,484.39097035478335 L 253.1769684664905,486.18877348833485 L 255.92906806617975,489.95116952672834 L 258.66954838857055,492.8434346586582 L 260.41251085326076,494.1646776966518 L 262.5684299245477,494.9878174509504 L 265.3864669203758,495.72578186297324 L 279.14852944761515,496.3564459463814 L 285.1777151674032,496.8413016178529 L 290.10270856693387,496.91943958133925 L 319.02862817794085,495.47546086099464 L 326.07364636287093,494.1351450391812 L 329.4274022690952,491.81186017551227 L 334.6899277083576,489.7799698312883 L 337.1815663687885,487.7339850332937 L 338.3763873130083,487.00154749583453 L 339.74606001377106,486.6353317530011 L 343.6928084343672,486.29705800599186 L 346.5944237373769,487.41171152715106 L 348.52950608730316,487.5909733896842 L 352.9473738744855,484.35019124037353 L 353.8691165857017,482.579216192069 L 352.4374466277659,479.06539394299034 L 350.674299929291,477.09978101291927 L 354.1159470565617,478.2700163074769 L 355.2292789556086,480.9448096922715 L 355.3442798778415,483.62369697738905 L 355.96842512488365,484.54549932183 L 358.60599290952086,484.5556085097487 L 362.54965406283736,481.78194279089803 L 364.9684378542006,481.2741638775915 L 366.5275333710015,481.6257026416133 L 367.4989324994385,482.2506651855656 L 368.4217616766691,482.4654973098077 L 371.09310918673873,480.82497801282443 L 372.10822128131986,480.64432814670727 L 374.29872627183795,481.2741638775915 L 375.231269415468,481.860062882246 L 376.6835110671818,483.3541287192493 L 378.08232578262687,483.6568520697183 L 379.21400570869446,483.41272030590335 L 380.41368364170194,482.81215987732867 L 382.5264767818153,481.2741638775915 L 381.9873502254486,482.2506651855656 L 380.238831769675,484.0132860110025 L 379.2722897455096,484.54549932183 L 377.69862316176295,484.8579933932633 L 376.6114497408271,484.692664145201 L 374.136034168303,482.97034694912145 L 371.40387804061174,482.7187025754247 L 369.5706613920629,483.8816908809822 L 367.89141027629375,484.25617236160906 L 365.9955140762031,483.16079191921744 L 364.1961755119264,483.24671114387456 L 362.3893732614815,484.74569068657 L 360.5340009406209,485.683180348773 L 353.607925247401,487.6802726936876 L 351.17942748591304,488.8473055216018 L 349.11034743115306,490.2243329513003 L 348.2263742387295,491.51349095540354 L 347.7795305997133,492.77337428811006 L 347.08218313381076,493.5837721856078 L 347.875030297786,494.8412971625221 L 348.9282975830138,495.52009458321845 L 352.2285385839641,496.8413016178529 L 355.99454755336046,497.48854531586403 L 360.8291062936187,497.7833063041908 L 364.5167372338474,497.8180323751294 L 393.2021528631449,496.8413016178529 L 395.3780869022012,496.32364023063565 L 400.4875723719597,495.752445489401 L 405.1427203156054,494.9132573098759 L 429.2277089804411,491.526272268733 L 443.92766819521785,488.2603153621312 L 455.3784841634333,485.98665682796855 L 465.3285366371274,482.75845150335226 L 473.9164054058492,480.2906216304982 L 476.6545689627528,479.99642001482425 L 478.13763066753745,479.4769918610691 L 481.15761717781425,479.69204403908225 L 481.84847892075777,478.712159488583 L 483.09959587082267,478.24012546247104 L 483.7889069356024,477.02805956290103 L 483.5956081971526,475.7749028299004 L 486.4868622124195,470.23118381766835 L 487.17053492739797,468.0917790106032 L 486.0290516279638,466.7552570842672 L 481.824131693691,458.9322366003762 L 481.1925518848002,454.1574135402334 L 479.53039164096117,444.87041208863957 L 478.2481447607279,440.17123519984307 L 476.7570471279323,437.40457531932043 L 474.58597018942237,434.7795190885663 L 472.5168901346624,432.9693596397992 L 471.399781152606,431.7642383011407 L 470.2001032233238,428.3490240522078 L 465.1342568323016,420.44585828547133 L 462.80770821124315,417.7332926231902 L 453.41325891390443,410.94064659031574 L 448.3798572681844,405.7528827021015 L 445.91250352561474,402.20372967765434 L 444.5307855345309,397.43152757553617 L 443.75973749533296,396.6170935515547 L 441.9215589426458,395.31959082966205 L 441.3910777904093,394.5547250036616 L 441.1011637672782,393.19842303486075 L 440.70638712868094,392.4583504967741 L 434.18640487641096,385.08897908142535 L 431.9904601611197,381.6027054882725 L 431.25642235949636,379.7141143527697 L 430.92332964763045,377.6552922661067 L 431.9657865911722,372.87841335876146 L 431.73138792067766,371.1107626881567 L 431.1700649857521,370.47615166113246 L 427.99334700778127,368.24421814788366 L 427.4443608596921,367.06481674383394 L 427.6540858447552,365.84209610923426 L 428.4066288843751,364.1550816973904 L 428.4066288843751,349.36348185077077 L 428.79523706808686,347.75108361581806 L 429.7636733055115,347.0888023521402 L 430.9911817833781,346.74528476258274 L 432.1446697935462,346.08920105040306 L 433.56339801847935,343.87959885562304 L 433.6004084944725,341.8402560262475 L 433.19329507276416,339.55340434762184 L 433.2919891104102,336.6136998416041 L 434.7785698324442,332.6994102417375 L 434.99446326866746,331.29773618478794 L 434.99446326866746,326.3936051831115 L 434.4331403374672,324.3299317929195 L 432.07064908370376,319.9459492590395 L 431.73138792067766,316.9141077840468 L 433.8039651438594,304.0021071448573 L 437.44331189617515,296.4085942603997 L 438.4981056265533,291.24660512118135 L 438.60913645103574,288.2033637420391 L 437.8442568667233,286.1529436112032 L 436.5365593470633,283.91701661323896 L 437.0115250237286,281.87596842908533 L 438.40557992085814,280.24625428108266 L 439.88599207252264,279.24741119728424 L 443.8954418897629,278.1650854454492 L 445.1291187033057,277.1848183751572 L 445.59174759685993,274.7171876882203 L 445.24631809815764,272.9144354593591 L 443.64253810048103,268.77720150741516 L 443.14906742051244,266.9158136432525 L 443.30327705293894,263.94756166555453 L 444.43825958669186,261.940951199329 L 448.51556166261435,258.2617572263116 L 449.268104583025,257.0961926986347 L 450.5511285327375,252.95035707217176 L 451.3468501418829,251.86214262532303 L 453.8142038844526,249.6857494027936 L 456.76885997503996,244.16150883043883 L 459.0141518302262,242.94664929591818 L 459.5199594087899,241.92345823155483 L 459.9332411661744,241.99146459432086 L 460.82765693217516,240.58807039243402 L 461.96880791708827,238.2450014645583 L 463.1778113991022,236.78292904852424 L 465.22571493685246,235.7227075175615 L 469.29684855788946,234.51722122292267 L 470.5613672733307,233.6795710074366 L 473.03488947078586,230.0075904301484 L 474.268566403538,228.69399240158964 L 476.705078125,220.20699907763628 L 479.4931877963245,215.95448523119558 L 479.56104005128145,215.2344177098712 L 483.4101119078696,216.06265021697618 L 484.4895792081952,215.6392618669197 L 486.1612113453448,213.9271831313381 L 486.87674390897155,212.419092756405 L 486.70402916148305,210.5896343702916 L 485.74792959168553,207.87949625507463 L 484.7918300181627,202.8549473041785 L 485.1804382055998,193.81071216060081 L 483.2312287054956,189.02469795336947 L 478.89485462754965,184.51694320410024 L 478.339700024575,182.9072940973565 L 478.05595433339477,180.81262082856847 L 477.24789594113827,178.46774321823614 L 475.89680714160204,176.34295655979076 z" /></g></g></svg>