<svg xmlns="http://www.w3.org/2000/svg" xmlns:xlink="http://www.w3.org/1999/xlink" width="500.0" height="373.64209164329804" viewBox="0.0 0.0 500.0 373.64209164329804" preserveAspectRatio="xMinYMin meet"><g transform="matrix(1,0,0,-1,0,373.64209164329804)"><g><path fill-rule="evenodd" fill="#D2EBD9" stroke="#A6A6A6" stroke-width="0.25" opacity="1" d="M 500.0,47.96826439839788 L 494.083797307685,47.993366587441415 L 493.96588982641697,50.47695208492223 L 492.3116739895195,50.59550557972398 L 491.13009124808013,49.76564102130942 L 490.657458152622,46.683487992500886 L 486.85537819191813,47.997259110212326 L 483.1067940220237,54.819241528515704 L 485.1686134003103,60.08630991587415 L 481.98216526955366,61.02695993462112 L 477.7648074477911,61.02695993462112 L 479.3580315131694,64.31948240078054 L 478.4208408854902,65.44843660155311 L 472.141663685441,61.96764125081245 L 471.3919111825526,63.37872221879661 L 446.83751675486565,54.16092543373816 L 434.7567117679864,48.00341560970992 L 398.79779264703393,12.062740625930019 L 397.01966450177133,11.02033322036732 L 395.18460122682154,10.792104821302928 L 384.5092628765851,11.330857815104537 L 383.19756489247084,11.585424087825231 L 382.30850084125996,12.053962324280292 L 376.9587877113372,16.432396198855713 L 376.1113300547004,16.78686402598396 L 375.362414047122,16.51799492398277 L 372.79157361947,14.605241260956973 L 369.46305783465505,12.912050078972243 L 365.9068015422672,11.83889484172687 L 351.4627950768918,10.661532438127324 L 349.6080234386027,10.227025977917947 L 341.8100993987173,5.475213308818638 L 341.3086322247982,4.899243045831099 L 341.43783121183515,2.172002718783915 L 341.2495072595775,1.3031873172149062 L 340.97140100598335,0.9357017205329612 L 340.4567949771881,0.915956316748634 L 337.79398241080344,1.4545704934280366 L 337.080103373155,1.8242548804264516 L 336.43191872537136,2.4945224307011813 L 335.61292865499854,3.8065687362104654 L 335.1311697587371,4.064375673537143 L 331.46542284078896,4.290369515889324 L 330.8873122166842,4.592062390060164 L 330.59387727454305,5.310649552382529 L 330.3048219624907,8.069929746096022 L 329.6960539575666,9.090310796396807 L 326.6784916445613,12.469836119096726 L 325.6755572948605,13.312571052694693 L 324.44050276093185,13.852458296227269 L 320.5820523034781,9.452388170990162 L 319.8068585060537,9.121032372815534 L 315.40971402451396,8.474787278450094 L 314.6651776060462,8.100650491076522 L 313.67100247740746,7.042993396869861 L 312.895808679983,7.203176063485444 L 303.9788901992142,12.058351474930532 L 302.31463230773807,12.588344535790384 L 300.58030043542385,12.829751758137718 L 298.57881136611104,12.831946400809102 L 297.47295581921935,12.522506469977088 L 294.76853677257895,10.406972456956282 L 293.1874917987734,9.936260616173968 L 291.8823632411659,8.898301491164602 L 291.30644241161644,8.632781646912917 L 290.0363508667797,8.594380199792795 L 289.59181886166334,8.44077471701894 L 289.12319886125624,8.028237310121767 L 288.5845048800111,6.57671199622564 L 285.7859239000827,2.4945224307011813 L 284.8574432041496,0.6669457406969741 L 284.6778785157949,0.0 L 284.17422150447965,0.8874352283310145 L 284.5990452710539,3.0770392220001668 L 283.98589763604105,3.8307037907652557 L 282.6676301844418,4.351804964593612 L 282.1157973073423,4.771982203703374 L 281.8267419952899,5.407193529536016 L 281.6953532136977,6.863062935997732 L 281.52454778924584,7.282170533784665 L 280.75373362377286,7.840622065006755 L 280.0924100819975,7.357873707660474 L 279.38510051369667,6.521855728002265 L 278.4828975237906,6.018278946517967 L 276.8055008202791,5.9612292379606515 L 274.2061927653849,4.81147691316437 L 273.3674944136292,4.706157791777514 L 272.5550738107413,4.853165798122063 L 272.1127315592021,5.209717421326786 L 272.13025008514524,5.420358659350313 L 272.6163885705173,6.206982319476083 L 272.95361978933215,8.689835365861654 L 271.937546543777,14.919088339898735 L 271.3594358768314,16.023061579675414 L 270.9477510470897,16.163529751822352 L 269.69079839624465,15.93965882086195 L 268.46012349426746,16.0252563302638 L 266.85499056614935,16.539943332667463 L 263.4213638342917,18.58559548156336 L 260.58336616680026,19.502006810624152 L 257.82639162428677,19.54151730518788 L 257.1256514824927,19.784068807028234 L 256.8190776426345,20.184666453744285 L 256.6482722591609,21.525878877961077 L 255.35190292447805,23.206308798282407 L 254.7387552894652,25.166730958386324 L 254.3007927108556,26.00208500609733 L 253.33070553466678,26.53887390147429 L 251.55038759298623,26.902226675185375 L 250.91972143016756,27.304004963720217 L 249.30363948829472,30.115489934687503 L 248.65107521042228,30.90156263660174 L 247.66127975471318,31.497716784942895 L 246.2269522100687,31.682164445286617 L 245.8875311985612,32.08290254732128 L 245.84811455383897,32.60002662613988 L 246.56418342888355,33.90000946354121 L 246.1503087617457,34.76303362229373 L 245.2240178603679,35.635963099543005 L 244.13130120933056,36.26624394941609 L 243.1984408404678,36.40459992107935 L 241.2560767363757,36.3826386280125 L 240.11080454662442,37.31930174329318 L 239.6180966347456,38.884128706296906 L 239.64218454621732,40.7422554618679 L 240.0757675357163,42.45661802974064 L 239.6816011890769,43.90967210230883 L 240.3429246880114,44.824593154131435 L 240.487452365458,45.27712121908553 L 238.30201897770166,46.46229325351305 L 237.3603994306177,46.219543406390585 L 237.03849690034986,46.282152893720195 L 234.70634608343244,48.08689991675783 L 232.93697715736926,48.91406592784915 L 231.1632286850363,49.03600064874627 L 229.39823939092457,49.726973683340475 L 228.47632812149823,49.36335951811634 L 227.66390747576952,50.04994590638671 L 226.75294526480138,50.21582756214775 L 226.11789951473475,50.102676378097385 L 225.76314981095493,49.572080110083334 L 225.4872333947569,46.442521696328185 L 224.4098454322666,45.25405528652482 L 223.78793849051,43.40883847058285 L 223.26238340511918,42.6301462125266 L 221.08570928126574,40.75104120397009 L 219.60539571009576,38.09896025119815 L 218.90465556643903,37.94741948379669 L 218.0593877043575,38.12970773782581 L 217.01703675463796,38.10774525650777 L 216.5396575331688,37.60590637184214 L 216.41702797077596,36.805396421579644 L 216.1038847491145,36.124594349064864 L 215.03744580224156,35.97086687083356 L 214.07830768451095,36.435345773701556 L 211.38045810721815,39.1707474765135 L 210.90307888388634,39.51776833075564 L 209.09867298975587,40.196446796297096 L 208.98042310215533,40.8037556236377 L 206.47527702338994,42.362166368053295 L 206.14242543652654,42.72240209451411 L 202.64310431294143,41.98546093015466 L 200.63285593874753,42.15020034008194 L 198.8985240664333,41.97228179639205 L 197.82551569491625,42.41049044998363 L 197.55835849791765,44.186452047433704 L 196.9452108629048,45.011315100244246 L 196.36272064968944,45.190349502605386 L 195.0532124619931,44.340219760197215 L 193.8093987070024,44.280909289838746 L 192.05316863395274,40.88502388598863 L 191.41374329291284,40.008655660785735 L 190.77869749814272,39.59573876252398 L 189.0312267318368,39.18172908411361 L 188.52756971865892,38.86216570180841 L 188.2626024018973,37.90569104719907 L 187.96697762236,37.52025413233787 L 187.5815705396235,37.40495344228111 L 186.35527526773512,37.5575897207018 L 185.4048964139074,37.328086533234455 L 184.7939386162907,36.90202756039798 L 183.16252789832652,34.75644553487655 L 182.37857487984002,34.005415767314844 L 181.4763718917966,33.45313449669629 L 180.517233857885,33.34553412091918 L 179.49678098224103,33.66723847959656 L 179.14422107301652,34.0701968986541 L 178.62523541413248,35.563492590677924 L 177.1974773388356,36.615429211524315 L 175.41277972236276,36.53636808088049 L 173.54486927390099,36.181693308171816 L 171.87623175047338,36.402403808082454 L 170.29299698211253,37.76623042172287 L 169.11268778145313,39.26738581445534 L 168.94188235513866,40.08992186188698 L 168.6615863069892,40.43585466139484 L 167.97617485374212,40.48637215432245 L 166.88345815986395,39.498001212021336 L 166.45863443426788,39.45846701192204 L 165.1578855086118,41.31223488645628 L 164.82722375914454,42.05135659791995 L 164.72868219390512,42.85639326344244 L 165.0746725909412,44.55549589416478 L 164.94547364674509,45.02229872951284 L 162.00017519295216,45.33094172505662 L 161.35199054703116,45.870250690262765 L 160.79577803984284,45.537437719409354 L 160.70818553119898,44.991544483811595 L 159.49940874613822,45.304580687195994 L 157.95778041519225,45.15739831782412 L 157.47164192982018,45.44517339277081 L 156.26724477484822,46.63584413588978 L 154.7080979179591,46.96866904210765 L 154.40152407810092,47.65959464618936 L 154.21320021152496,48.67678887688089 L 154.12998729385436,50.42675122478977 L 154.47159814462066,52.90521687804721 L 154.31393161416054,53.8259056690149 L 153.8672097288072,54.700476968544535 L 153.1139140482992,55.360817658365704 L 151.59856350906193,55.115797618054785 L 151.04235100001097,55.56079066009261 L 150.44672184996307,58.02760453603696 L 149.8905093409121,59.03746602218598 L 149.1372136604041,59.51768468879163 L 145.39701308868825,59.92538241459988 L 144.5429860483855,60.225390099105425 L 143.78093114681542,60.85728491691407 L 143.22033900767565,62.594793730881065 L 142.85901983454823,63.00913013063837 L 140.46555425785482,64.71599719300866 L 140.75022993795574,66.61422686220612 L 140.67577628418803,67.16492474603001 L 140.2465729266405,67.71343522763345 L 139.01589802466333,68.6016278071329 L 138.3239171449095,70.27586154162418 L 137.1676958538592,71.25098820996936 L 134.7435728982091,72.88580626738258 L 133.8785967566073,73.96547847997863 L 133.18223624676466,75.22441845771391 L 132.0522927455604,77.90742511872668 L 131.64717734232545,80.64899428363424 L 131.21578419022262,82.26239991921466 L 131.30337669700384,82.91680934350006 L 133.02456971630454,87.57295071624685 L 133.03770856931806,88.73684529250022 L 132.87128277495503,89.09768562624231 L 132.46397757716477,89.37602035573218 L 131.1851268094033,89.06908226537053 L 130.9026409238577,89.75997327151708 L 131.2289230413735,91.62041383737233 L 130.2982525099069,92.30807515408378 L 130.0595628991723,93.60093049914576 L 129.70262340083718,94.26664007990621 L 129.19677659496665,94.81572659721132 L 127.7515000347048,95.3978378662141 L 127.22156531736255,96.87683728616685 L 126.84053782373667,97.15526030317415 L 125.05803004465997,97.83427363645751 L 123.5032628197223,97.57455147965811 L 123.22734636068344,97.77704645670019 L 122.90763366781175,98.42526194779202 L 122.1236806511879,99.02947171858978 L 121.62878290191293,100.24013836996164 L 121.17330179736018,100.72992550663184 L 119.32509962655604,100.27425805968232 L 118.43603557534516,100.32268609292805 L 117.89734155125916,101.06122544733807 L 117.4944159835577,102.02763514476828 L 116.97762011922896,102.12449842109345 L 116.26812071353197,101.87023311830126 L 115.28708448074758,101.797586414963 L 114.30166865698993,102.23897369438782 L 113.96005780622363,102.99518502573483 L 113.71479876898229,104.90398361661937 L 113.26150745898485,105.47092898527626 L 112.49726272001863,105.95642126409803 L 109.47532081790268,107.14542472956236 L 106.47965666279197,107.00450260494836 L 105.11759297922254,107.18065539456438 L 102.63434501551092,108.04272237140685 L 101.97302147373557,108.5679053425556 L 100.73796698078513,110.9825800465187 L 99.98467134311795,111.2006069899071 L 98.27223754487932,110.00919226254337 L 97.60215478204191,109.81540052848868 L 97.45324751548469,110.71940891933627 L 97.79047873429954,111.54747231095098 L 98.48245961405337,112.27755851345137 L 100.79052247665823,113.8864737986587 L 101.18906845524907,114.67170124081895 L 101.16717033833265,115.48449001007248 L 100.61095783114433,116.1530253161909 L 99.301449643448,116.29180124064442 L 98.9072832968086,116.55063155700918 L 98.75399639829993,118.67425518366508 L 98.08391363546252,119.16113105718978 L 96.32330401614308,119.53786142345052 L 95.52621205896139,120.05119432031643 L 93.80501908250153,122.09803548862692 L 92.34222399629653,122.83287377783563 L 91.87360399588943,123.23280362831429 L 91.58454868383706,124.11311588389799 L 91.91740027070045,125.68322308827192 L 91.85170583613217,126.31239972996991 L 91.05023433454335,126.57795965042897 L 91.33928960375488,127.07713305659126 L 92.52616827376187,127.91131833579857 L 93.34515834599733,129.62937952310313 L 94.6897035036236,131.43354787514545 L 95.69701748527586,133.1518937679939 L 95.61818419955671,134.58156734728254 L 93.5728988982737,135.74566041491926 L 91.06775281950831,136.68050945783034 L 89.60933736339211,137.4290804094635 L 88.89983795769513,138.17547330411617 L 87.17426534928381,139.38717879832257 L 85.85599789582193,141.04222573025618 L 84.41948059946299,141.54394851485267 L 83.46472211368382,142.13610751798842 L 83.03113916702569,142.64888479956426 L 82.87785226851702,143.11756347911432 L 82.63259319029748,144.14759170881007 L 82.7201856970787,144.90194966818672 L 82.53186178766191,145.06958859367296 L 81.74352913722396,144.9681227611145 L 81.52454780600965,145.09605805855244 L 81.11724256537855,146.06001007719897 L 80.96833529882133,148.27264224993996 L 80.70555773377419,149.23674689454492 L 78.30552268773317,149.5301792746177 L 78.16975431703031,150.12367610516958 L 77.92449527978897,150.42374071956147 L 76.22082074545324,150.83633692236617 L 74.88503480888903,151.59315345156938 L 74.40765558741987,153.12452676554676 L 73.69815618172288,153.457737630466 L 71.79301888309419,153.6386889501009 L 71.15797309018672,153.85936346580274 L 70.77256605029106,154.55009093717672 L 70.76818641833961,155.11725595674943 L 70.5404458232224,155.47036310646217 L 69.0163359772414,155.63588426588103 L 68.34625321254134,156.3134323162958 L 67.92580911889672,156.496617053519 L 66.76082860864699,156.5782782919705 L 65.73161651007831,157.39932386600412 L 62.32864715717733,158.39919241168536 L 61.65856435149908,158.76560309692286 L 59.75342705473304,160.51166759757325 L 59.122760934755206,160.90681669174228 L 58.42640038207173,161.02823286643252 L 57.613979779183865,160.74566553754266 L 56.51031402684748,161.26002952409908 L 54.859195029363036,162.52281855151523 L 52.48105810023844,163.71062296221498 L 51.92046600393951,164.11466997372918 L 51.46060526557267,164.7373166399775 L 50.961327927187085,166.5877137487987 L 50.62409671023488,167.19940044835676 L 49.30582929961383,167.81331538734958 L 48.64888538978994,168.78060341626406 L 47.81675646454096,169.45420110144187 L 45.2940919008106,170.7882171458332 L 44.387509321793914,172.92416734911967 L 44.22546315938234,174.15239515015855 L 45.12766610644758,175.01618003868498 L 47.9262470882386,175.97058802528773 L 48.87662594206631,176.8057358864462 L 49.06494985148311,177.55475014378317 L 48.5306355021894,179.41968666075263 L 48.66202428564429,181.88594026316423 L 47.80361757054925,183.7491141372593 L 47.37003458105028,185.1018601312535 L 46.41527617909014,186.30438732984476 L 45.34226780757308,186.6602979071904 L 44.562694335356355,187.35224397690035 L 42.92033460363746,187.5224712579511 L 41.01957693696022,187.19528258650098 L 39.731966907158494,187.67501399829052 L 38.466254994273186,188.6477812512312 L 36.42972891405225,190.9362071766518 L 35.733368404209614,191.3762382690329 L 35.21657249704003,191.9732830603607 L 35.12897998839617,192.73620343150105 L 34.261814054101706,193.6373769841157 L 34.16546228341758,195.1567620926071 L 33.74939781986177,195.84462077985518 L 30.109928650781512,199.21353455097415 L 28.756624188274145,199.836292068474 L 26.30403364636004,200.11725937924348 L 24.95948848873377,200.86505320097785 L 23.277712112292647,200.97346390015446 L 20.903954815119505,201.41485747566912 L 17.930188776925206,200.942489344161 L 16.581263987347484,200.9867387454724 L 14.522839749231935,202.10186132544186 L 14.124293813481927,202.76455319859087 L 13.116979831829667,203.7381710006157 L 11.654184745624661,203.58437991235405 L 8.92129815556109,202.63842952274717 L 7.677484357729554,203.4825909343781 L 5.741689680144191,203.64301953860559 L 3.604432199150324,204.2460234706523 L 1.3270266726613045,205.72873056516983 L 0.4160644616931677,206.80654164636508 L 0.0,208.0592799599981 L 0.1532868966460228,209.45488811982796 L 0.6613235417753458,210.91038555570412 L 3.0350808389484882,214.91892447543796 L 3.45990452170372,215.39168886607513 L 5.1767179518938065,216.53656602592673 L 5.465773221105337,216.94183194905054 L 5.255551196634769,217.4633775523398 L 4.103709580376744,218.37363096466288 L 3.8015153724700212,218.9749578225892 L 3.963561534881592,219.5873817516258 L 4.743134962394834,220.71926435257774 L 4.839486733078957,221.3295393162407 L 4.073052156716585,221.73714059381746 L 2.066753601655364,221.64349142555147 L 2.347479548305273,222.52357440674677 L 2.60368768684566,222.8691744087264 L 5.043139290064573,224.73908862448297 L 6.326369773596525,225.347301090369 L 10.955634398385882,228.2845528110629 L 15.775412810966372,228.89068505051546 L 17.85354532673955,229.58992691233288 L 18.51048919558525,230.1085605651606 L 18.54990583844483,234.96105548297055 L 22.811281906440854,242.56206777517218 L 23.671878458932042,250.99359819106758 L 24.298164946958423,252.2631760010263 L 25.52665001153946,253.39301389362663 L 28.12376823090017,256.3267777133733 L 28.432531863451004,257.31037979305256 L 28.43910128995776,269.2587928386638 L 28.59676782041788,270.13993393606506 L 28.905531495809555,270.58330301451497 L 29.919414861127734,270.7344294390641 L 30.648622632026672,271.1211426401278 L 32.10922788269818,272.33580176881514 L 33.57421276345849,273.23047093464993 L 36.21950684674084,276.52734415978193 L 37.94069986604154,280.3743056283565 L 38.45311614125967,281.8933696966851 L 38.439977245405316,282.40383930667304 L 37.80274165794253,284.3480224056402 L 37.9472692925483,285.16337066923734 L 40.064818451181054,289.7671603425406 L 40.48526258766651,290.28126129182056 L 40.787456752732396,290.55501125217415 L 42.333464758470654,291.1092048762366 L 43.87290325202048,291.11588203324936 L 45.383874244987965,291.5977598200552 L 46.12184119410813,291.54100196564104 L 47.087548738345504,291.8080998338992 L 47.882450856268406,291.75134109857026 L 49.03429247252643,291.3640525020892 L 49.92773615568876,291.5643727952847 L 51.09928613714874,291.5610341274878 L 52.10441028140485,292.00174905045424 L 53.38107125274837,292.115268900292 L 55.327815029770136,292.7474358039908 L 58.023474771529436,292.8108767090598 L 61.81623092480004,294.0908887424739 L 63.63815530389547,294.54504392750096 L 65.24985769949853,294.5951355230063 L 67.13090704381466,294.98029037972447 L 69.17400254867971,294.95357408886775 L 70.43752466700971,295.49458948359825 L 72.33171286433935,295.99666232801974 L 72.94924013130367,295.9220737972064 L 75.09306708164513,293.05796527466737 L 75.40183067321777,286.15564689948224 L 75.59234442003071,285.7340319863288 L 76.19673279114068,285.1566964208614 L 77.72303247451782,284.2545885844156 L 79.51867910660803,283.63282482500654 L 80.05737312883139,283.21239936864004 L 82.83843562565744,278.6941872034222 L 83.94867080450058,277.4089386478299 L 87.20492268539965,276.1671626252355 L 103.19712699204683,257.3126001696801 L 105.06284760311246,256.08921327639837 L 106.1161476969719,255.6029951729579 L 109.02202954888344,255.4431461598724 L 125.38212236948311,261.0244616648415 L 136.3508956618607,261.2809847400058 L 138.29544956050813,260.93673403642606 L 144.35247230157256,260.96116447343957 L 147.79485834017396,260.52364391554147 L 149.15911182016134,260.8145825092215 L 154.58765823580325,260.0139601926785 L 158.77239085547626,260.2371528598014 L 159.90452414937317,260.53363789478317 L 164.2269827593118,251.49067144468427 L 166.26243216358125,249.19200650870334 L 200.1090484596789,248.89733146177605 L 199.5856471490115,249.95818883331958 L 199.41118006035686,251.49067144468427 L 199.46933577023447,253.31806844379753 L 200.34167121723294,254.96881421271246 L 203.07498902082443,257.6811547714751 L 207.12784126028419,260.8701057644794 L 212.33083691820502,263.6420982615091 L 217.41996232047677,265.5092723611742 L 227.1974773555994,267.6810972193489 L 230.7668725438416,271.1078075520927 L 232.7398940268904,274.25190784339793 L 232.80558841861784,280.43435333750676 L 234.09538828581572,281.4485314346384 L 236.42972889728844,282.88207407668233 L 247.73792320489883,288.4063332438236 L 249.65181972272694,289.5757684825221 L 269.6360530629754,276.7285607481608 L 281.53111725859344,266.0735819863621 L 282.1157973073423,265.8836248975713 L 283.20632416568696,266.7034576408332 L 284.5683878492564,267.1511638548691 L 298.44304295256734,267.78108682646416 L 301.42775804921985,268.99879441340454 L 319.64919193275273,287.15355757437646 L 324.2850260678679,292.94777656614315 L 325.46095563843846,294.1309606533032 L 328.0974904578179,298.26234691101126 L 330.88074279017746,305.36584695999045 L 331.432575667277,306.16910126409493 L 351.3992904815823,323.2251965882024 L 352.1044102553278,324.5784825461451 L 352.3014934286475,325.65072716993745 L 349.283931158483,331.3950977915665 L 348.6313668806106,334.3146129111992 L 348.502167891711,338.81190267100465 L 349.09998683817685,345.81072149798274 L 348.88976481184363,350.2362297435757 L 348.6138483528048,351.42141121812165 L 337.33631146885455,364.26584993093275 L 365.4929268732667,364.3923390203854 L 365.5323435161263,365.9864432308823 L 364.91481624916196,367.9995356325526 L 364.6060526166111,370.00849793234374 L 364.7899969369173,372.1567048046272 L 364.7374413982034,373.4583682086086 L 364.86226075328887,373.64209164329804 L 385.09394297003746,373.39115306013264 L 384.8311654049903,369.82483250577934 L 382.37200543656945,361.44426708540414 L 382.4158016704023,356.4205936086364 L 381.8398808836937,350.68792662746273 L 381.1435203291476,348.9885614165105 L 379.7551788967103,346.9216966632521 L 383.94429114833474,314.26456211239565 L 383.6289580874145,312.9290877749445 L 382.5099636465311,310.93393615214154 L 382.16178336925805,309.76931051537395 L 382.6150746792555,309.4216147031402 L 392.3860202021897,305.74797153729014 L 396.10213286429644,301.35587775171734 L 414.45495552942157,286.1979203396477 L 415.0856216493994,285.4436925863847 L 417.1966014262289,279.9662105840398 L 417.21630970574915,277.9437033192953 L 416.7433101143688,275.09223128831945 L 416.9009766448289,273.81064692197833 L 417.47032800503075,271.6878965741489 L 417.2951429914683,270.97779086395167 L 414.5732054170221,265.4892775397748 L 413.6841413639486,261.58415416278876 L 413.4213638007641,258.29959914204665 L 413.5790303312242,256.40004605881404 L 413.88779396377504,255.18006509914994 L 414.4024000335485,254.51294804317877 L 421.59955609217286,254.48298405413516 L 423.34340642765164,218.95280907966662 L 422.9755178708583,216.9285443641711 L 422.4280646275729,215.9508305961499 L 421.5521394275129,214.96985393960495 L 417.36521697230637,211.18932440911885 L 416.49805103614926,210.66797826287802 L 415.7097183857113,210.451032282901 L 413.31406297162175,210.44217735016719 L 411.15052774176,210.08023828081787 L 410.02934350445867,209.48587836755905 L 408.0891691967845,207.90876930463128 L 407.6293084602803,207.8357278824551 L 405.702273003757,208.08362740580924 L 404.6752507016063,209.25788004614878 L 403.8431217763573,210.7233220495982 L 402.51828494109213,211.84573474980425 L 401.65768838860095,211.98521146399435 L 400.43139311671257,211.39299697126262 L 399.6255419831723,211.2513114506146 L 397.6328121367842,212.45346336218063 L 396.77002583257854,212.4158256155206 L 396.989007120952,211.94093303882983 L 396.5904611442238,211.71511478128377 L 393.7349449917674,211.37528623081744 L 392.8436911031604,211.46716100757476 L 391.540752382949,210.71446705702692 L 386.9377655070275,211.7372536760522 L 386.1932290904224,211.62877327238675 L 384.9756930824369,210.55507744313218 L 385.1421188339591,210.1355801470345 L 384.82678577303886,209.85001813201234 L 383.6048701349646,209.43717945122626 L 383.34209256991744,208.80521300749388 L 383.2982962951064,207.88663551700301 L 383.08807427063584,207.59668541222345 L 383.0574168469757,207.36539296712726 L 383.6048701349646,206.80654164636508 L 383.0574168469757,205.15886873332784 L 383.1931853033602,204.65320167213213 L 384.0997678823769,203.44276060757693 L 385.0545263681561,202.97918685502373 L 384.99540140479803,202.42490650783293 L 383.92458282597363,201.78214109071996 L 383.4296851195395,200.91593977576122 L 383.3464722018689,199.8827509067487 L 384.1873603910208,199.00669118296355 L 384.07349009253085,198.1583276113961 L 383.7406385485083,197.559963437845 L 383.2107037883252,197.12972926173825 L 382.4793062657118,196.78798278199974 L 381.209214720875,196.57785082655028 L 380.49095605127513,195.16007968829945 L 378.08654137328267,192.69639805715997 L 377.54784743487835,191.9622264961945 L 377.1449218261987,190.6332775937626 L 375.9558533616364,189.04574697080534 L 375.79599699378014,188.57924363657366 L 377.223755069077,185.0642824822571 L 377.95515263453126,184.62661908229347 L 378.4018744751811,183.61207694758195 L 378.69968900829554,183.47725108393934 L 379.84715103544295,183.34905693063047 L 380.78439099527895,182.93132715532556 L 381.3493627663702,182.84955051075667 L 381.82674198783934,183.3048522467725 L 383.199754729867,183.61207694758195 L 384.7654710151255,183.05730813671835 L 386.1406735945493,182.84513015649281 L 386.4998029284179,182.73904215090442 L 387.15236720629036,182.17103974730708 L 388.5845048725605,180.70138929830864 L 390.93855384737253,180.0980937918648 L 391.47505799122155,180.1113527918933 L 392.894056847319,180.98646998230834 L 394.7247404884547,181.36437462922186 L 395.8196469787508,181.40415453584865 L 398.1277098841965,180.40305385179818 L 399.57079664990306,178.9158697547391 L 400.47956902347505,178.65512791462243 L 403.2299741413444,178.9158697547391 L 403.67669598199427,178.80096612963825 L 404.8329172730446,178.04085262108129 L 406.57162877731025,177.45532171742525 L 408.4789558686316,174.93222983332817 L 410.61621334962547,173.34387629758567 L 412.35492485389113,173.0257802256383 L 413.6206367686391,172.27915950445458 L 418.8805675972253,166.88803398050368 L 419.60758548788726,165.71327917277813 L 419.90102043002844,164.2714337114012 L 420.0280295815319,160.0657549551688 L 422.2441203482449,158.41022876952775 L 423.4003415964544,156.96010431612376 L 424.21495199389756,156.35536597645842 L 425.7127841357142,156.867405988276 L 426.2908947598189,156.5186876108637 L 426.6938203256577,155.76388831192162 L 426.8996627628803,154.8877397236647 L 427.00477379746735,152.12713467364665 L 428.34493932314217,150.80324067152105 L 430.0792711954564,149.52356046356726 L 430.499715289101,148.5285556424642 L 431.21359432674944,148.03658707323484 L 437.213681941852,146.5982550624758 L 439.94656853191555,144.68357999320142 L 440.599132809788,143.47266365971882 L 440.7786974981427,142.72718094219454 L 440.8400122579187,141.89019956171978 L 440.26190159097314,141.45242453517858 L 440.8400122579187,138.83038085885346 L 441.3305303324014,138.41251654271036 L 442.07944638095796,138.24934228684288 L 444.81233301386237,138.13357757788617 L 445.5349713154137,137.8469247863395 L 448.4167651720345,135.93086305016186 L 448.88100554049015,134.68298197689 L 449.68685671687126,133.91246359213255 L 450.54964306391776,130.44933687895536 L 451.49126261100173,128.0193129820982 L 451.8372530937195,125.5620177697856 L 453.8869180250913,121.79727669933345 L 454.15845485404134,120.69122485606931 L 454.189112232998,118.17967952007893 L 454.3993342593312,117.32714061357547 L 455.8927867244929,114.7245646440424 L 456.6942582707852,112.63765486399643 L 458.9234879333526,110.18757019320037 L 459.2607191093266,109.35845488728955 L 459.698681730777,106.58724609971978 L 459.2519598454237,105.68450027354993 L 459.0855340939015,104.70693203480914 L 459.3001357521862,104.24458289833274 L 459.99649630486965,103.49163385573775 L 460.1278850454837,103.01499871036503 L 459.8213112484664,101.45636997825932 L 459.8957649040967,100.89612524851691 L 460.31620899774134,99.9550758805126 L 463.74545609764755,95.07541911595035 L 464.349844513461,93.93983490020037 L 464.7177330683917,91.46858083712868 L 465.16007532179356,90.64781836792827 L 467.05207372270525,89.25060433207545 L 470.44628385454416,87.26383465866093 L 472.07988436706364,85.9394088902045 L 472.5747821163386,84.57655479584355 L 471.6506810095161,83.19287614745554 L 471.6025051455945,82.67264117440209 L 473.1616519615054,80.07382366294041 L 473.79231812246144,79.36230126803275 L 474.5718915518373,78.99390092375688 L 475.59672401845455,79.14895837311633 L 476.5514825042337,79.81648564594798 L 478.27705511264503,81.71138906863052 L 479.2099154815078,82.33498904050793 L 480.86541406810284,82.48566711170133 L 482.50777379982173,82.17331351607572 L 483.4712915495038,81.60580749390647 L 485.2975955605507,80.12661124451552 L 486.3268076572567,79.84617836866528 L 488.8757500126958,80.59840518655255 L 489.94875834323466,80.30806940293405 L 492.73420047201216,78.58701702626422 L 495.0554022733122,77.6874962465372 L 495.2656242996454,77.30812320311088 L 494.118162272498,75.63784761610441 L 493.8334865923971,74.64716785773635 L 493.96487537398934,73.82034689863212 L 495.18241138011217,71.18722460453864 L 495.1911706440151,70.31104024942033 L 494.84518020413816,69.45796952780802 L 493.22471858747303,67.40345405275002 L 493.010116931051,66.85494976409245 L 492.8305522426963,57.96167353435885 L 493.18530194461346,55.89371584740002 L 494.22327334806323,54.12694860540796 L 500.0,47.96826439839788 z" /></g></g></svg>