<svg xmlns="http://www.w3.org/2000/svg" xmlns:xlink="http://www.w3.org/1999/xlink" width="298.66126441024244" height="500.0" viewBox="0.0 0.0 298.66126441024244 500.0" preserveAspectRatio="xMinYMin meet"><g transform="matrix(1,0,0,-1,0,500.0)"><g><g><path fill-rule="evenodd" fill="#D2EBD9" stroke="#A6A6A6" stroke-width="0.25" opacity="1" d="M 65.55446001514792,114.27215766070003 L 72.25558275915682,109.70751396613196 L 79.17522010952234,102.27784547714691 L 84.85660673119128,93.67062461924797 L 87.96437383070588,85.54902528614912 L 89.27546295896173,77.58526471460937 L 89.15406582318246,72.850721072944 L 87.96437383070588,67.41207305507851 L 85.58498954772949,61.63351777983189 L 83.05992875993252,58.015854957397096 L 75.75182063505054,51.1204519195162 L 72.03706785477698,46.62873341275554 L 63.514988070353866,32.59516987374809 L 61.69403073191643,31.891064551193267 L 58.92617567256093,31.24765816539002 L 57.1780567355454,29.972984970387188 L 59.16896994411945,24.825735365768196 L 56.959542129188776,23.599621953617316 L 53.63326012529433,22.94407619886624 L 51.30243487469852,22.21569227775035 L 46.68934310786426,17.032027782363002 L 46.10663679614663,16.10940853750799 L 36.15207074768841,15.87875373699353 L 34.816702250391245,16.10940853750799 L 31.636096751317382,5.377894554025261 L 28.528329949826002,1.238250857379171 L 24.61934163235128,5.9120419838727685 L 22.458472253754735,0.6919635338563239 L 19.374984819442034,0.0 L 16.31577675230801,2.8406935259263264 L 14.446260679513216,8.145750240524649 L 14.931849222630262,8.534221474910737 L 16.38861485570669,13.681463489381713 L 16.485732624307275,16.10940853750799 L 15.514555536210537,19.14434043991787 L 14.300583876669407,20.45543120376533 L 13.135171251371503,21.11097679537488 L 12.23683256469667,22.21569227775035 L 1.675280537456274,56.19488503347384 L 0.0,59.08415801386582 L 1.3839275296777487,61.73063633670972 L 1.9180748090147972,64.35283702968445 L 2.039471944794059,70.36205289165082 L 2.743575394153595,72.7293226079637 L 8.522079784423113,79.61262280934898 L 9.736051144078374,82.30767530818412 L 10.051683817058802,84.21363711894082 L 10.780066633597016,86.09532033688447 L 21.29305962845683,96.66918803467706 L 23.599605510011315,97.78606276359642 L 34.79242258518934,101.57372768234927 L 44.11572358570993,109.27047397542628 L 53.75465726107359,115.36475971752952 L 65.55446001514792,114.27215766070003 z" /><path fill-rule="evenodd" fill="#D2EBD9" stroke="#A6A6A6" stroke-width="0.25" opacity="1" d="M 298.66126441024244,492.47011257453414 L 297.05882227420807,491.1098850938288 L 293.70826090313494,489.76180558161286 L 290.3334201630205,487.79434418038 L 288.51246282458305,484.50311099691316 L 292.9313190523535,483.7865719684487 L 296.8645867370069,481.6612493490393 L 298.3699114024639,479.41448794541066 L 295.65061537735164,478.3821949047706 L 291.35315628536046,477.362048195806 L 290.21202302724123,474.7631110740185 L 290.55193506740034,468.01078404333384 L 289.0466104019433,462.0843422734324 L 287.565565103665,459.0968540292961 L 285.380416655913,457.83385545278725 L 281.66566387563944,457.2266451467003 L 280.5730893537402,455.51431610804866 L 280.6944864895195,452.92761452822015 L 280.35457444936037,449.6851448664238 L 279.5776328984648,450.8145424195973 L 278.1694259997457,453.92343270896527 L 276.17851279117167,453.04905595546006 L 274.2847170513123,451.71320451633073 L 271.662538792938,456.534426363025 L 267.5350355729461,457.95529752469156 L 263.1647383775562,458.24675847364415 L 259.81417700462043,459.87408543955826 L 258.867279285565,469.10378144810966 L 259.08579418994486,474.5930873715988 L 261.85364924930036,474.1315951315919 L 266.80665275640786,476.19616844037955 L 269.2103164065629,478.98942580273433 L 269.93869922310114,482.6935480381653 L 269.9629785902798,487.5635929277196 L 271.54114165715873,493.2595314709906 L 275.5472474452108,497.7774585099978 L 280.84016329050064,500.0 L 286.27875534258783,498.7854955079092 L 294.48520275205374,498.03250376674987 L 297.7629257235676,496.57510364179325 L 298.66126441024244,492.47011257453414 z" /></g></g></g></svg>