<svg xmlns="http://www.w3.org/2000/svg" xmlns:xlink="http://www.w3.org/1999/xlink" width="500.0" height="273.58625151449814" viewBox="0.0 0.0 500.0 273.58625151449814" preserveAspectRatio="xMinYMin meet"><g transform="matrix(1,0,0,-1,0,273.58625151449814)"><g><g><path fill-rule="evenodd" fill="#D2EBD9" stroke="#A6A6A6" stroke-width="0.25" opacity="1" d="M 3.401167718693614,121.59592331200838 L 0.09602943994104862,135.38410410564393 L 0.0,138.72973818262108 L 0.5121580455452204,142.18548238021322 L 1.6111636348068714,145.5480596111156 L 3.2490021511912346,148.619632989401 L 5.71909767203033,151.16385373054072 L 11.384845381602645,154.1918122181669 L 13.918960325419903,156.2307059126906 L 15.834217911586165,159.2259990836028 L 17.19997270219028,162.32041061343625 L 18.955180602148175,165.30508111952804 L 22.012123668566346,168.01507693366148 L 41.85291103646159,181.95220965147018 L 46.24893380701542,186.35683967871591 L 48.45228033326566,187.80314078507945 L 57.59109950810671,191.29533754638396 L 60.6373727042228,191.50432728347369 L 64.38252789340913,190.5253827702254 L 69.75485193356872,186.3348432192579 L 72.78511991351843,185.1030468940735 L 75.80471822991967,186.73078419826925 L 75.88474286720157,187.91312734410167 L 74.39628375694156,191.36133409664035 L 74.19355459325016,192.99478030577302 L 74.78040213696659,194.7327834602911 L 83.60445769876242,210.37760955607519 L 87.73906640894711,214.91137231723405 L 92.94600603543222,218.9227865790017 L 98.37701476924121,221.41564400517382 L 120.54918812401593,226.7429766152054 L 121.87759775482118,228.06389408768155 L 121.84558794088662,231.38836337137036 L 121.18405069597065,232.25804745173082 L 118.5645757690072,233.56810724781826 L 117.66296420246363,234.46535370359197 L 117.27884582057595,235.8525409195572 L 116.905397310853,239.10598231106997 L 116.63864831440151,240.102427034406 L 115.43827814422548,242.39267742657103 L 114.84076031856239,243.2019990736153 L 113.64572508260608,244.33617282193154 L 112.22128559835255,244.97484597447328 L 107.90528746508062,245.5474564570468 L 106.6302273850888,248.5647871005349 L 107.85193770751357,250.3543522283435 L 109.92190963216126,251.8411190288607 L 111.228979524225,253.92267019487917 L 110.63146190717816,256.40633245348 L 109.12166264466941,258.5156200234778 L 108.2360560875386,260.92241427488625 L 109.58047093451023,264.29874035250396 L 112.50937453843653,266.47447730693966 L 115.54497765935957,266.2210952260066 L 117.80167373642325,263.92419310635887 L 118.39919156208634,259.9751029550098 L 121.20539043471217,262.0074390245136 L 126.3109654802829,268.1875958207529 L 129.97609623894095,269.75204114452936 L 133.251773474738,269.32236420107074 L 135.58315925486386,268.0884425570257 L 137.91454503498971,267.2236149313394 L 141.1635473947972,267.9011535283644 L 145.85832897387445,272.7653959537856 L 147.9603107124567,273.58625151449814 L 148.23239464312792,269.46558962995186 L 149.5234595257789,271.58647388149984 L 155.46786385960877,267.2185548613779 L 166.67008247226477,265.4168916370254 L 173.0773922689259,262.3654475712683 L 183.6086411140859,260.10728494729847 L 188.8475907612592,256.3843038068153 L 198.38119839131832,253.53168395650573 L 200.33913565985858,255.32694222102873 L 203.31071915477514,261.0876447898336 L 204.94855766929686,262.77853788249195 L 206.77312054298818,263.2852667130064 L 207.9841607902199,263.05393334454857 L 208.99780680797994,262.1065796094481 L 210.18217217549682,260.5038324862253 L 211.21182299777865,258.5486643682234 L 211.6599614173174,256.4283613234293 L 211.47857219912112,254.2585903480649 L 210.66765534318984,252.16050445917062 L 213.02038106694818,250.12858797446825 L 220.0625534374267,249.30263047944754 L 223.36490555293858,247.64525199402124 L 224.6826453153044,245.00788116408512 L 225.50423224642873,238.4783976932522 L 226.4325184877962,236.5681689667981 L 231.67146813496947,232.57730233832262 L 233.5760556459427,230.27100775786676 L 235.42729339934886,227.12824043119326 L 236.20620044134557,224.4589758561924 L 236.5262989886105,221.7238207340706 L 237.19850651547313,219.4620692776516 L 239.01773424819112,218.14138752338476 L 241.018351405859,218.58711367147043 L 243.467106776312,220.02336994651705 L 246.35333069972694,221.27256253082305 L 249.5809929072857,221.2065252342727 L 254.69190309382975,217.93228294234723 L 259.0132359545678,212.46286758151837 L 262.1128589082509,206.09733500145376 L 263.46794362552464,200.09018347016536 L 267.0957294292748,200.62925640121102 L 276.1491888258606,199.94716503447853 L 278.6086142733693,200.9097967382986 L 280.7372710965574,202.2300083776936 L 282.5404938198626,202.4170413990505 L 284.0182830616832,199.99117069481872 L 283.847563713789,196.38834405713715 L 282.6045136526227,192.88478227285668 L 282.48714426904917,189.88742960686795 L 285.72547655180097,187.75914635881782 L 290.15350913628936,187.16522325272672 L 291.11380539648235,186.8132722801529 L 292.60226450674236,185.53197242924944 L 293.6265803948045,184.10223544808105 L 294.090723823756,182.32612021523528 L 293.9893592428416,180.84699040162377 L 295.25374924764037,181.3363629966043 L 300.5140384249389,182.15016207145527 L 305.77432801760733,181.79824726004153 L 321.4164868425578,176.78373702196404 L 330.5126261282712,176.09098331071436 L 332.5132432859391,175.2497955118306 L 334.3591461032629,173.43002024875022 L 334.13507699780166,172.24252985138446 L 333.8469880577177,171.98964183870703 L 332.94004155509174,172.1105880611576 L 334.2204365693033,169.290420883568 L 334.07105736993253,166.81122667435557 L 333.366840030998,164.22222386370413 L 332.94004155509174,161.08372198301367 L 333.5162192285061,159.06111571379006 L 335.7515757754445,153.47739532147534 L 335.89028510451317,150.07031751051545 L 334.07105736993253,147.06459092255682 L 339.5767558068037,147.33932964969426 L 343.4392805863172,149.696652257815 L 347.2004407849163,151.29024414462037 L 355.51767323352396,153.14217221643776 L 357.49695044755936,153.0322636233177 L 360.7886326946318,151.72436943883076 L 362.29843175038695,151.57050160155632 L 362.5438408013433,152.18597519141622 L 362.69322020560503,154.76335369981825 L 363.3387526459992,155.52175490790978 L 364.68316728807986,155.60968616092578 L 366.3316758777946,155.32390989689156 L 369.29792423173785,154.26875027199276 L 370.7330337911844,156.93417109036818 L 372.9683899246156,157.75855742092244 L 375.4704952593893,157.94542013900355 L 377.7165214680135,158.71486258343793 L 379.3490250483155,160.28126492490992 L 380.8694941792637,162.97999068675563 L 382.2245788965374,164.48606495535932 L 384.6946742106229,165.54694069502875 L 386.524571813643,165.25011299713515 L 387.8476467169821,165.55793446605094 L 388.8346178550273,168.46584133571014 L 388.4665042795241,169.03754852176644 L 386.62060146033764,170.74721227469854 L 386.193803191185,171.50586014590226 L 385.99107402935624,175.7171202111058 L 386.0871036760509,176.43186104740016 L 388.114395711571,177.2015933606308 L 391.2140184585005,176.87170635769144 L 396.7037120927125,175.6456466803793 L 399.99539413303137,175.56867535132915 L 410.76138215884566,176.86071026185527 L 416.20306076295674,176.55281802872196 L 418.5771264322102,174.57905488065444 L 421.60205947607756,166.67929970566183 L 424.5949829146266,163.0789284822531 L 428.3988230023533,159.59973637014627 L 431.770529884845,155.5657206212636 L 433.48839303664863,150.2901219590567 L 442.8992961421609,155.00516124838032 L 445.9882492274046,155.84050689800642 L 447.61008273251355,155.51076337951235 L 450.65635592862964,153.5213589987252 L 452.07012533582747,153.1091996554751 L 453.0144167933613,153.5873046941124 L 455.6712362617254,155.642660607351 L 457.2770649641752,156.19773128535599 L 459.3417017478496,156.07132829120383 L 463.3802810180932,155.22498768917285 L 465.370228305459,155.35688415216282 L 467.37084525823593,156.7802874171175 L 469.0780387464911,158.95668995729648 L 471.1533456072211,160.6879880526103 L 474.25296856090426,160.81989915086888 L 476.2002357542515,159.28096025879495 L 478.2115229871124,153.68622361542657 L 479.886706456542,151.16385373054072 L 480.95903716795146,150.5099269610364 L 483.84526108950377,149.38893013074994 L 485.1043161582202,148.69656235561706 L 494.2164602484554,140.8339223775547 L 497.8495811931789,139.3670273895841 L 495.9876733645797,136.27405367069878 L 491.8210548404604,126.63378293113783 L 490.78073394298553,123.16264445148408 L 492.11981344409287,119.64232246088795 L 491.1008326970041,117.35781579837203 L 489.0308605656028,115.38641446852125 L 487.2329727765173,112.77813421818428 L 486.4860757533461,109.0279399859719 L 486.6567948963493,101.14411375136115 L 486.18731673806906,97.27402591658756 L 481.23645603097975,85.27590160700493 L 480.0254157856107,79.40411814511754 L 482.1860824227333,74.55355183244683 L 484.314739247784,73.7854050733149 L 488.68942207470536,75.24489389942028 L 491.69301517494023,74.07071546977386 L 493.2828388661146,72.21622767485678 L 494.3444999139756,69.67053249501623 L 494.7126134913415,66.84517967002466 L 494.22713032364845,64.11872633756138 L 490.6633643526584,60.0540037737228 L 474.40205249749124,52.59769640560262 L 472.63772866874933,53.59958700858988 L 471.61274049431086,55.34430557722226 L 470.04165225476027,59.896402133163065 L 464.2277852669358,49.79077998525463 L 462.71550766937435,43.8319917449262 L 466.5130045991391,41.1896208205726 L 468.94105019047856,40.26568672643043 L 475.7967083957046,33.677741759456694 L 479.6950239818543,31.03589409403503 L 480.03108562529087,29.7927185613662 L 480.03108562529087,27.228763901628554 L 478.3423756863922,22.696833085967228 L 474.2340216767043,19.45998362940736 L 458.88440465927124,11.718262553680688 L 454.7256413195282,8.387176235439256 L 453.99470718577504,4.995901555288583 L 458.7583814393729,1.6825037945527583 L 451.4742446616292,0.0 L 423.01822215132415,1.958612339105457 L 416.33899628929794,3.2615185214672238 L 414.92753734998405,3.2615185214672238 L 411.4745035842061,1.8895850654225796 L 393.64643164537847,0.37963722506538033 L 374.52452225983143,3.304661776171997 L 369.559210896492,1.6825037945527583 L 366.91272515431046,2.5884899999946356 L 363.9133747275919,3.2615185214672238 L 363.9133747275919,4.581715266453102 L 368.5762305315584,4.89235472609289 L 368.90389065258205,8.154180761892349 L 366.40863269008696,12.192916714819148 L 362.6447418425232,14.851060163229704 L 363.4596913866699,13.202649888582528 L 365.92134326696396,9.759281804785132 L 366.87911907210946,7.610528942896053 L 359.41854974627495,7.860780709655955 L 355.76387907750905,7.481088753091171 L 352.646906953305,6.160818210802972 L 354.6380724515766,5.297914550639689 L 356.25116850063205,5.539526170818135 L 358.19192467071116,6.100414635613561 L 361.10725968517363,6.160818210802972 L 361.10725968517363,4.581715266453102 L 356.3015778288245,2.5884899999946356 L 351.0002048239112,2.7438035323284566 L 346.86664625257254,5.306543495040387 L 345.58961184695363,10.510071872966364 L 347.62278494797647,9.595317598665133 L 348.4125299304724,9.060280014760792 L 351.2354480139911,11.9599041165784 L 351.2354480139911,13.271692231064662 L 347.70680035836995,14.876951988786459 L 343.8252880182117,20.349018111126497 L 341.22921160422266,21.971761097200215 L 341.92653945088387,18.89895032066852 L 343.09435388445854,16.387322368333116 L 343.6992647983134,14.1519898052793 L 342.76669376157224,11.9599041165784 L 339.7673433367163,13.668687329627573 L 331.0381411258131,15.869475946994498 L 327.26584896445274,17.88047481351532 L 323.8548227995634,23.991629844764248 L 322.2669315189123,24.984329123049974 L 319.8472874481231,25.182871443917975 L 313.04203836619854,26.564055775059387 L 310.00068033859134,26.564055775059387 L 301.63274453766644,24.984329123049974 L 289.96300275065005,24.673569125588983 L 287.4173356667161,23.53413120051846 L 288.80359004437923,22.420614073984325 L 290.31586764007807,21.609229031950235 L 291.82814503088593,21.35891070938669 L 293.18079332634807,21.971761097200215 L 299.01146335713565,20.599331533303484 L 315.5877056568861,22.39471846516244 L 317.4360448960215,22.10123757342808 L 320.0993336793035,20.65112053696066 L 321.5443989057094,19.28735737898387 L 324.1152707580477,16.14566011587158 L 325.8543898202479,14.851060163229704 L 325.8543898202479,13.271692231064662 L 319.17516395635903,14.46268666954711 L 313.04203836619854,16.301014306489378 L 313.04203836619854,14.851060163229704 L 329.9627438299358,11.364432384027168 L 338.8011660128832,8.482100570574403 L 342.76669376157224,4.581715266453102 L 341.3216285351664,2.0448965071700513 L 337.6249500568956,2.666146707953885 L 333.50819452665746,4.831952416105196 L 330.79449641518295,6.885668509174138 L 327.7447368670255,8.438953220378608 L 274.42855187132955,18.37244780524634 L 216.79397423565388,45.26549179293215 L 192.28667643480003,60.345587329240516 L 178.25610142573714,66.55684446264058 L 163.0997197907418,70.16818860941567 L 156.05082620307803,70.16818860941567 L 150.68224082887173,71.438268058002 L 121.34865504316986,71.19761019409634 L 108.81071781180799,74.33368386304937 L 102.91324526816607,75.48900521406904 L 89.81990043260157,79.81058521475643 L 82.93149384856224,78.3800687007606 L 63.33263496123254,78.13820876041427 L 60.1842228975147,80.32193479477428 L 58.10291191376746,88.12688097171485 L 57.32430715300143,92.99992228858173 L 54.74036741629243,95.13437623949721 L 50.48684384673834,97.76861536246724 L 33.75076741911471,107.29456416564062 L 19.327887658029795,113.8960075583309 L 3.401167718693614,121.59592331200838 z" /><path fill-rule="evenodd" fill="#D2EBD9" stroke="#A6A6A6" stroke-width="0.25" opacity="1" d="M 493.16565221361816,8.429564302321523 L 492.98105972260237,11.12882266426459 L 494.48299182392657,12.2054448784329 L 497.3378854468465,11.258510995423421 L 499.0973973441869,7.3535853328648955 L 499.2148193810135,4.1194856816437095 L 500.0,1.9562797690741718 L 498.24910187907517,1.012640621047467 L 495.58320488780737,1.96489267796278 L 493.82276632264256,1.1536999894306064 L 493.839803095907,3.4476218963973224 L 492.740630466491,5.7344357499387115 L 493.16565221361816,8.429564302321523 z" /><path fill-rule="evenodd" fill="#D2EBD9" stroke="#A6A6A6" stroke-width="0.25" opacity="1" d="M 485.0121866427362,18.954716379754245 L 486.6327897552401,18.010125779546797 L 487.9844680260867,14.906265502097085 L 486.7702674549073,13.151535398326814 L 485.4204392116517,11.801649670116603 L 482.7186186481267,14.230003845877945 L 482.04166072048247,17.60403361869976 L 483.25628518871963,18.81923247477971 L 485.0121866427362,18.954716379754245 z" /></g></g></g></svg>