<svg xmlns="http://www.w3.org/2000/svg" xmlns:xlink="http://www.w3.org/1999/xlink" width="500.0" height="459.040557611268" viewBox="0.0 0.0 500.0 459.040557611268" preserveAspectRatio="xMinYMin meet"><g transform="matrix(1,0,0,-1,0,459.040557611268)"><g><path fill-rule="evenodd" fill="#D2EBD9" stroke="#A6A6A6" stroke-width="0.25" opacity="1" d="M 2.569293847307563,38.441217351704836 L 4.569100506603718,41.443852805998176 L 8.328072115778923,45.91364102810621 L 8.902790911495686,48.206104984972626 L 8.615431513637304,49.32022265531123 L 9.49304266832769,51.985956692602485 L 10.782276678830385,54.22003720747307 L 11.318163147196174,54.358820758759975 L 12.374403048306704,56.383023869711906 L 10.611414335668087,59.31961668562144 L 10.192024923861027,60.43761347234249 L 9.197916788980365,68.97246855730191 L 9.430910900235176,70.16136374138296 L 6.619448691606522,71.34812018927187 L 6.619448691606522,72.68111640680581 L 7.442694483324885,74.0097003756091 L 8.265940349549055,75.76525901956484 L 8.025179758667946,78.35640895785764 L 6.33208929374814,79.40981516055763 L 6.029196936637163,83.60860015638173 L 3.9244835395365953,85.08532339753583 L 3.396363550797105,85.78663198510185 L 5.91269988194108,89.36381670087576 L 3.0391059052199125,91.3342880923301 L 4.685597637668252,92.09658449003473 L 5.2680828385055065,92.73111345013604 L 6.5029516369104385,93.63999705621973 L 6.681580459699035,94.83960600662977 L 6.914574569091201,95.33484714245424 L 7.031071549281478,96.80447920970619 L 7.442694483324885,97.36031397245824 L 7.341730387881398,97.84175917552784 L 12.405468970537186,100.87531366152689 L 14.735409997403622,102.85101419081911 L 15.93144646845758,105.72586475731805 L 14.914038820192218,107.55607839114964 L 15.768350532278419,108.7508389968425 L 17.539105724543333,109.32615924440324 L 19.302094511687756,109.30286620138213 L 20.73112501949072,109.96208915999159 L 22.276652581989765,110.98714015167207 L 23.433856576681137,112.35486164223403 L 23.674617167562246,114.02814226876944 L 23.014467239379883,115.04673567833379 L 21.756299074739218,115.9838661965914 L 20.373867373913527,116.67629631748423 L 19.302094511687756,116.97473642835394 L 17.54687220416963,117.96106916479766 L 15.884847586974502,118.27355053974316 L 14.890739379450679,118.89621872268617 L 15.178098775446415,120.82517450442538 L 15.480991208925843,121.13310540560633 L 16.459566382691264,121.50637124711648 L 16.816824028268456,121.85632436955348 L 17.01875229179859,122.72427601134405 L 16.801291067153215,124.36244916776195 L 16.910021642223,125.11864576395601 L 17.469207551330328,125.92393618356436 L 18.843872770667076,127.19156257295981 L 19.302094511687756,128.2212239149958 L 20.335034972056746,129.771811040584 L 22.82030552998185,131.90437511960045 L 23.82994662411511,133.83189614629373 L 24.57552776299417,134.8110270970501 L 28.482062198221684,136.24372599367052 L 31.17702742666006,137.90346419624984 L 31.67408149316907,137.61356879211962 L 32.62935729883611,136.40500879613683 L 33.23514201492071,136.01933798752725 L 34.80396894365549,136.0567354913801 L 37.06401179730892,137.64396056719124 L 38.205682907253504,138.0764715168625 L 39.510449880734086,137.82397567667067 L 43.37038558349013,135.91883291723207 L 46.20514723286033,135.2410426205024 L 47.64971070177853,135.47475666878745 L 48.5583877004683,136.67148357443511 L 48.41082472354174,138.53004972916096 L 47.11382423341274,139.33205968141556 L 44.162565529346466,139.8371581803076 L 41.94912155717611,141.56783889234066 L 40.99384567514062,142.98541512107477 L 40.8618157338351,143.31294495705515 L 42.46947506442666,146.5843274234794 L 43.50241559930146,148.204151941929 L 44.68291903659701,149.66509498888627 L 47.67301006615162,152.2973647704348 L 50.17381351068616,155.4858647561632 L 51.75817340053618,156.29432793613523 L 52.62025159411132,156.21933646686375 L 54.235677329823375,155.61474459059536 L 55.26861793920398,155.66629701992497 L 56.495720183476806,156.28261047927663 L 56.90734311565757,157.12162601901218 L 57.05490601807833,158.1881048642099 L 57.48982839100063,159.47041925136 L 58.957691226154566,161.33449378237128 L 62.320572862401605,164.2217716621235 L 64.06026213429868,167.1523791165091 L 66.18050849065185,169.49955003755167 L 65.73781971260905,170.47618490317836 L 63.920465636998415,172.28422740567476 L 63.431178050115705,173.59238927159458 L 63.07392048090696,175.3024965650402 L 63.64087272062898,176.4772423002869 L 64.36315449140966,177.4806180591695 L 64.51848387345672,178.6627496695146 L 64.1301603820175,179.37023596512154 L 63.08945336565375,179.4454543166794 L 62.553566897287965,179.68051645020023 L 61.753620471805334,180.55736193526536 L 59.75763764977455,183.55303056072444 L 59.55570946075022,184.2821389529854 L 59.617841228842735,185.03013530233875 L 60.13042818196118,185.93347404990345 L 60.59641647711396,188.05580022605136 L 60.658548168838024,189.06540671968833 L 60.24692531116307,189.86330226063728 L 59.050888914614916,190.72719500632957 L 58.499469485133886,190.53416413534433 L 57.9558165371418,190.89433539193124 L 56.86851071380079,192.2504271492362 L 55.59480966255069,192.8061178373173 L 54.585168493911624,193.65385969402269 L 53.83958735689521,194.83143576374277 L 53.35806625150144,196.36962479818612 L 52.325125714764,196.73478421987966 L 50.2670111246407,196.89970068493858 L 48.069100039079785,196.79839445231482 L 45.98768600821495,196.29188335547224 L 45.78575781919062,196.35548988170922 L 44.82271545752883,198.17439017258584 L 46.080883622169495,199.51764010963961 L 48.138998286798596,200.63483930006623 L 49.606861121952534,201.79463766422123 L 49.948585806414485,203.22812935709953 L 49.85538819245994,204.57227365020663 L 50.010717574507,205.66663031140342 L 51.12132283858955,206.36011898797005 L 52.23192802630365,206.0393136339262 L 53.03187445178628,205.38830908900127 L 53.56776092015207,205.81287091923878 L 53.86288679763675,208.6910835178569 L 52.04553279839456,208.10119690559804 L 50.1815799921751,208.0634455792606 L 48.40305824391544,208.6769257262349 L 46.88859652727842,210.0409171259962 L 45.117841409519315,213.27016657032073 L 43.999469665810466,214.0068551125005 L 42.43840914219618,212.9112931084819 L 42.18988207168877,212.21248284960166 L 42.15881622582674,210.42325636325404 L 41.8792233094573,209.5830794754438 L 41.18800745904446,208.83738249214366 L 40.442426320165396,208.49759559193626 L 35.906807728111744,208.24276543874294 L 34.1826513428241,209.23381987959146 L 32.49732728302479,208.4692807579413 L 27.340391162782907,208.84210191387683 L 25.352174820378423,208.55894491402432 L 23.635784840211272,208.60613707313314 L 22.004826145246625,209.08279367536306 L 20.69229261763394,210.15420077973977 L 20.140873262658715,210.4138156431727 L 19.48072333447635,210.59791157441214 L 18.523316053673625,210.56241678865626 L 18.20533993281424,212.26111104153097 L 16.835505796596408,215.1019813171588 L 16.346279378980398,217.5421142769046 L 15.612439677119255,218.88898846274242 L 15.44732571579516,219.70020525576547 L 15.44732571579516,223.4411167385988 L 13.906262377277017,226.2824705550447 L 13.202999327331781,229.12116939993575 L 10.781328272074461,235.6669195694849 L 11.233862724155188,235.9130554208532 L 11.282785395160317,236.34567732270807 L 11.73531992174685,236.9349782015197 L 11.869857156649232,237.56908777402714 L 11.73531992174685,238.20325084403157 L 11.282785395160317,238.79269737796858 L 11.282785395160317,239.41950147040188 L 11.68639725074172,239.87844466231763 L 11.282785395160317,240.67326647695154 L 11.888203177601099,241.9608323033899 L 12.92169407568872,243.2374198222533 L 13.313075225800276,244.62623538263142 L 13.068462016060948,245.97049520537257 L 12.359083650633693,248.24508363194764 L 12.359083650633693,252.63934702565894 L 12.836079437285662,253.7308394452557 L 16.370740639045835,259.19817330734804 L 17.960726724937558,260.79574863193557 L 17.27580961957574,263.2657411340624 L 14.419950133189559,269.07344380393624 L 15.44732571579516,272.1644917167723 L 15.08040590211749,273.7348606782034 L 14.523910790681839,279.7045371220447 L 14.69513999298215,281.0288648814894 L 13.936839029192924,281.7717923242599 L 10.310447799041867,286.6927486588247 L 8.76938446238637,287.4587744609453 L 8.017198737710714,288.02207925822586 L 7.699201522395015,288.93096780823544 L 7.136591095477343,289.44930958468467 L 5.925755605101585,289.26150035392493 L 4.348000226542354,288.5854268493131 L 3.5407765172421932,289.0135996323079 L 3.6508524902164936,290.05033080652356 L 4.036118324846029,291.31263417750597 L 4.109502332285047,292.42484156182036 L 3.6508524902164936,292.90208982350305 L 1.0273755826056004,294.31898449128494 L 1.498256055638194,296.2060927795246 L 1.0273755826056004,296.2060927795246 L 0.0,295.63464662618935 L 0.0,296.2060927795246 L 1.5043713711202145,296.74750351626426 L 3.0026274267584085,297.70258844969794 L 4.140078984200954,299.03765798779204 L 4.58038280531764,300.6852028509602 L 4.409153528511524,301.7198080061935 L 3.742582444101572,302.9878671290353 L 3.589699188247323,304.12817734945565 L 3.999426359310746,304.80567280063406 L 5.76064164377749,305.39288577623665 L 8.653193172067404,311.0038789762184 L 8.787730406969786,311.501166111324 L 8.76938446238637,313.6640023593791 L 8.457502560690045,315.4392083082348 L 7.6625095549970865,317.6145133897662 L 6.647364603355527,319.64713860023767 L 5.650565670803189,320.97109834849834 L 9.276956900954247,320.7447635787539 L 11.080979468300939,321.167260766495 L 11.84539582207799,322.54809087188914 L 12.16339303739369,324.3367646099068 L 14.120241293683648,327.2847890346311 L 14.83637416549027,327.0408657481894 L 16.319769961759448,327.3429435333237 L 17.83423167653382,327.8991827997379 L 19.302094511687756,328.1293631340377 L 20.241837358102202,327.05525009613484 L 20.265136724337935,325.85664882697165 L 20.039909169077873,324.6438635424711 L 20.210771510377526,323.53671267908067 L 21.080616109073162,322.7795367781073 L 22.245586659759283,322.5016057048924 L 24.598827127367258,322.4297286402434 L 26.82003765553236,321.389986414928 L 31.19256031140685,318.1998061616905 L 32.62935729883611,318.4584178561345 L 33.46813612617552,321.19355401257053 L 33.92635779082775,327.74093804880977 L 35.58061592839658,330.43636054266244 L 37.99598823860288,331.3142653154209 L 39.805575758218765,330.8009421308525 L 41.00161215476692,331.08878250047565 L 41.63846271857619,334.3805609792471 L 43.129624992609024,334.9901341209188 L 46.08865010179579,333.8286289437674 L 47.68854302726686,334.3613626244478 L 47.502147724851966,337.00160526297987 L 47.73514183424413,350.4480168847367 L 47.87493825517595,351.8142270720564 L 48.923411751165986,353.1373857925646 L 49.02437592111528,353.94102117512375 L 47.944836504757404,355.21161948516965 L 48.8146811760962,356.09250531811267 L 49.7621905785054,354.96133262477815 L 50.701933424919844,354.287526036147 L 51.73487395979464,353.9362087636255 L 54.655066741630435,353.5127253658138 L 55.29191730543971,353.81108615687117 L 55.6491749510169,354.3404656611383 L 56.021965481340885,355.60632020095363 L 56.86851071380079,355.89995291642845 L 58.250942489132285,356.1165748075582 L 63.9515316337347,355.23087279871106 L 65.38056206703186,355.206806327682 L 70.7005941234529,356.22248102212325 L 71.13551649823785,356.99756989022717 L 71.06561825051904,359.0969825400971 L 70.2656718250364,361.9533484140411 L 69.52785716764629,363.38918009307235 L 68.65801256895065,364.4059974430129 L 67.43091017566621,364.8927708156407 L 64.95340624824166,365.1530392114073 L 64.19229215011,365.9049781905487 L 64.53401683457196,365.92425972409546 L 65.44269383326173,368.16608377732337 L 65.37279558554292,369.6947778388858 L 64.7980767916888,370.95848414255306 L 63.244782822206616,371.75926688313484 L 62.71666283532977,372.2272349568084 L 62.320572862401605,372.93165639974177 L 60.89930875971913,378.0045455424115 L 60.70514705218375,379.5498033417389 L 61.02357229590416,380.9504780760035 L 63.26808218844235,384.5500064268708 L 63.617573354393244,388.5913427649066 L 63.56320806592703,392.75105834705755 L 64.58061571605504,396.7098508630879 L 65.4737596809864,398.90312481857836 L 66.11837679892778,404.63396435184404 L 67.05035316385329,406.4757773154415 L 68.27745540812612,408.1386609026231 L 69.12400071509182,409.95227271784097 L 68.86770723946393,412.2466138023883 L 70.2734383046627,412.1932487799786 L 84.18318644352257,407.3435315443203 L 88.92849963158369,407.03810890810564 L 90.36529669351876,406.69876563409343 L 91.86422544904053,406.10737698106095 L 93.27772299572825,405.27854522224516 L 96.72603569179773,402.06106226472184 L 97.31628752313554,400.85487671522424 L 97.39395217597485,398.90312481857836 L 96.74156865291297,395.8966208877973 L 97.02116164565086,394.82213610736653 L 98.43465919233859,393.5542562492192 L 99.91805498674512,392.731705352664 L 100.61703731678426,392.93491508672014 L 101.19952259212732,393.81555681908503 L 102.36449314281344,395.0012057898566 L 103.77799068950117,395.64008509973064 L 105.02062589488924,395.53844150947407 L 106.25549461878836,395.16092031262815 L 107.66122576035559,394.9770069392398 L 112.43760494329035,396.2160931285471 L 114.10739604197443,396.35163109377027 L 126.32405364140868,394.0913843223825 L 129.45394109375775,394.0671884296462 L 140.52116110175848,401.2181644011289 L 145.08007913641632,403.24322326108813 L 157.52973077073693,405.9086425108835 L 169.5755260270089,411.45588077930734 L 171.67247301898897,412.0283045130782 L 180.3165543116629,417.55599726969376 L 185.35699345171452,419.5201055430807 L 187.92769514396787,419.7896357970312 L 192.85940363444388,419.160747631453 L 207.14194237999618,414.8425766429864 L 210.8543151076883,412.77543478133157 L 220.9817922692746,402.06106226472184 L 225.5562431141734,399.66342189582065 L 230.84520932659507,398.98060365905985 L 243.06186692602932,399.5665643680841 L 244.71612513810396,400.060551578179 L 248.63819253444672,400.34146151691675 L 260.18693364970386,396.438764014747 L 264.2254981752485,396.60335118928924 L 303.72576558217406,404.1832765811123 L 319.8489576932043,410.2626692871563 L 327.32030195370317,414.7600736957975 L 330.02303358726203,415.6870735124685 L 332.842262275517,416.2161479834467 L 335.65372448414564,417.5365774454549 L 352.46813244372606,428.7822161973454 L 354.0680252183229,429.40222383197397 L 355.7067504711449,429.7329165157862 L 357.4231403749436,429.83018202427775 L 360.8714531455189,430.83938942756504 L 370.9212655816227,436.43030404346064 L 374.64140478894114,437.86401529051363 L 388.72978167422116,439.95789720024914 L 406.6625613793731,436.33538250532 L 410.01767645962536,434.9579460876994 L 411.64086875133216,434.5199477537535 L 432.5637394115329,435.5176497302018 L 472.3513662163168,444.94673424214125 L 475.6365830488503,446.93057222664356 L 481.2983398679644,452.2755496967584 L 485.0728442873806,457.2827933812514 L 486.16015010885894,457.93702145759016 L 487.5270488485694,459.040557611268 L 488.38136063702404,458.00537721067667 L 488.4279594440013,455.56695159431547 L 489.4531334992498,455.3936818582006 L 491.7364757936448,454.2809519949369 L 492.16363153606653,454.49079566448927 L 493.13444037921727,455.41808586148545 L 493.60042859986424,455.2765442254022 L 494.63336913473904,453.3391720200889 L 497.70889137499034,450.99990068981424 L 498.19817896187305,449.7976340963505 L 496.8545795865357,444.5276154791936 L 498.2991430554539,442.7588163726032 L 498.5010712444782,438.7599267088808 L 499.97670063376427,435.6295956284739 L 500.0,434.26202796259895 L 497.646759532392,432.4422548338771 L 492.81601513549685,427.8365041189827 L 459.917247466743,392.5381775107235 L 457.9290310498327,390.84019381552935 L 455.8709164597094,389.86318749701604 L 432.5637394115329,384.88830917095765 L 427.68639613315463,384.0715766479261 L 425.4729520864785,383.04233494680375 L 423.9662569258362,380.96496929693967 L 417.32592486031353,367.9491028562188 L 416.71237381361425,365.44705740828067 L 414.2892350964248,342.0783471558243 L 414.2970015015453,340.5266132778488 L 414.59212738089263,338.9175774604082 L 416.5182120297104,334.39016008283943 L 422.3352982290089,321.7109972112812 L 423.15077753923833,318.7361960336566 L 423.5080351848155,315.6955739064142 L 423.82646042853594,302.96732002077624 L 423.414837570861,300.0717310705222 L 422.2265676539391,297.2775598973967 L 416.12988846190274,288.0857348088175 L 415.43867268785834,285.31038436479867 L 414.77852268330753,276.3143199966289 L 411.64086875133216,264.9418714726344 L 410.90305409394205,259.34291320852935 L 412.0291922427714,226.05907024256885 L 411.85832990147173,223.6612735586241 L 411.21371285803616,221.40605381969362 L 398.3136059641838,196.36962479818612 L 395.61087425611913,190.3717395234853 L 393.9022508300841,187.94284561928362 L 391.704339819029,186.50517343916 L 373.25120660848916,181.53776135249063 L 295.7573671787977,134.66379898693413 L 229.27638232149184,94.68848235346377 L 210.8698479924351,83.23017651773989 L 175.33824693970382,60.80799915920943 L 105.93706937506795,16.15308870235458 L 94.43492706678808,8.629031032789499 L 82.35806588828564,0.33312865952029824 L 81.39502360112965,0.0 L 80.33878362551332,0.04365062853321433 L 75.53910507634282,1.3119172300212085 L 73.90814630314708,1.360170400235802 L 72.60337933152914,0.5881536598317325 L 69.89288121834397,2.65162585163489 L 56.86851071380079,4.246698650997132 L 55.6491749510169,5.012170048430562 L 51.41644863970578,5.442061270587146 L 49.933052921667695,5.89496626611799 L 48.822447657585144,6.527236629743129 L 42.22094799391925,12.80435682553798 L 37.374670561403036,16.15769269457087 L 34.92823247984052,18.625833849422634 L 34.112753093242645,19.074877943843603 L 33.72442960180342,18.9505247422494 L 32.49732728302479,17.9949120846577 L 30.796470414847136,18.432407275773585 L 28.016074052080512,18.054778394289315 L 25.763797679916024,18.183722843881696 L 25.328875305131078,19.60455191368237 L 21.942694377154112,24.767255244776607 L 21.235945565626025,26.260706576984376 L 21.181580279022455,27.93656226247549 L 21.406807908788323,29.45597066730261 L 21.05731674283743,30.47060759924352 L 19.302094511687756,30.606671121902764 L 18.214788688346744,30.40603603841737 L 17.430375149473548,30.68046920420602 L 16.08677577599883,32.158880662638694 L 16.36636869236827,32.11736145755276 L 16.60712935961783,32.48181509273127 L 16.70809345319867,33.060823244508356 L 16.59159639850259,33.65602272376418 L 16.304237000644207,33.81059727398679 L 14.96063762716949,33.923646298702806 L 13.66363713517785,35.24574636667967 L 12.949121918529272,35.66572638042271 L 4.871992940083146,37.553602075669914 L 3.87011825107038,38.70316365780309 L 3.481794685125351,38.77241961751133 L 2.569293847307563,38.441217351704836 z" /></g></g></svg>