<svg xmlns="http://www.w3.org/2000/svg" xmlns:xlink="http://www.w3.org/1999/xlink" width="377.7702740319073" height="500.0" viewBox="0.0 0.0 377.7702740319073 500.0" preserveAspectRatio="xMinYMin meet"><g transform="matrix(1,0,0,-1,0,500.0)"><g><path fill-rule="evenodd" fill="#D2EBD9" stroke="#A6A6A6" stroke-width="0.25" opacity="1" d="M 330.1686445046216,430.13697865372524 L 337.54148474149406,423.1076428024098 L 345.6750143915415,418.7136304457672 L 364.5167164634913,413.86333665112033 L 360.8010391462594,403.96546174632385 L 362.29316148534417,392.6317433482036 L 365.6431224811822,380.96870923181996 L 367.588733157143,370.05163225810975 L 366.5647274032235,361.64164569880813 L 357.2023911885917,336.69373681303114 L 355.8272979259491,327.49297142773867 L 359.35280267708004,294.912805844564 L 361.4739571083337,286.06086808396503 L 374.8445437513292,259.0344553915784 L 377.7702740319073,233.10028031794354 L 376.77552561834455,151.41539977909997 L 372.2113868687302,153.48109220108017 L 365.2481488212943,160.49700264120474 L 360.713267410174,161.38209054945037 L 341.72527864202857,161.48043209407479 L 342.33968192338943,151.97282036487013 L 328.1498909033835,68.62412639521062 L 329.6420132406056,19.357160775456578 L 331.2219073139131,14.683442218229175 L 333.15288946405053,11.227126451674849 L 334.58649712242186,7.83631731569767 L 335.40570178069174,4.214705896098167 L 335.5519881956279,0.0 L 210.50628266856074,1.712284843903035 L 191.51829389855266,5.597546665463597 L 105.91143034212291,35.24977387115359 L 101.63986470736563,38.14455582527444 L 97.26589824073017,42.55206507258117 L 83.7490248978138,63.03651738073677 L 54.68189608491957,89.48774328827858 L 48.33306160196662,100.52245423570275 L 47.13351237587631,108.43513326486573 L 50.05924237333238,120.90800146246329 L 50.410330165177584,128.81617410946637 L 48.74266378954053,135.11521227797493 L 45.72916177473962,139.80596465757117 L 37.6248891800642,148.43141179298982 L 33.87995480746031,154.169630268123 L 27.545749137178063,172.91901958547533 L 24.298188688233495,168.88806963386014 L 19.95347956009209,165.18444167496637 L 15.155282095074654,162.496614319738 L 10.444856647402048,161.57877368712798 L 5.529629822820425,161.2837484185584 L 3.613276768475771,168.6914267684333 L 0.7899470366537571,190.44676696741953 L 0.0,267.8602792243473 L 6.129404578357935,291.54866924881935 L 52.9264579731971,351.0123215909116 L 72.14850489422679,385.39979369193316 L 87.39155872352421,422.0986937051639 L 91.70701079443097,438.69404592271894 L 95.37880224175751,445.26505441451445 L 149.0074355173856,493.276224241592 L 156.9654211308807,497.2716574599035 L 166.7666171565652,499.8700835807249 L 175.10494790039957,500.0 L 182.30224409885705,497.5964707303792 L 297.7076691109687,422.58689844654873 L 305.85582728870213,420.11326138069853 L 313.93084254302084,422.03359916899353 L 330.1686445046216,430.13697865372524 z" /></g></g></svg>