<svg xmlns="http://www.w3.org/2000/svg" xmlns:xlink="http://www.w3.org/1999/xlink" width="191.26203642599285" height="500.0" viewBox="0.0 0.0 191.26203642599285 500.0" preserveAspectRatio="xMinYMin meet"><g transform="matrix(1,0,0,-1,0,500.0)"><g><path fill-rule="evenodd" fill="#D2EBD9" stroke="#A6A6A6" stroke-width="0.25" opacity="1" d="M 0.0,500.0 L 64.07189439237118,486.8196888122475 L 64.41683062538505,486.4502084951382 L 64.46755650267005,486.13499113114085 L 64.12262036651373,484.8664048569044 L 63.77768423035741,484.4685294541996 L 65.3603324778378,484.06807588017546 L 64.17334624193609,479.82360197231174 L 76.43887089192867,484.15591689862777 L 82.59699605591595,485.3521300002467 L 104.794653467834,485.7732705378439 L 102.27864836901426,479.6169479714008 L 101.994583401829,477.6305604915833 L 102.22792249172926,476.55347224045545 L 103.04968229867518,474.52338310168125 L 103.19171473197639,473.4412420517765 L 101.659792361781,470.49460788222495 L 101.31485612876713,467.1428741234122 L 101.01050077192485,466.11522187909577 L 99.74235307611525,464.2768965199357 L 94.4059875216335,459.16012690088246 L 92.9958072938025,455.81997914006934 L 93.77698622271419,446.8209612031933 L 93.70596995577216,442.9171366825467 L 92.26535424217582,437.3551088704262 L 90.89575459808111,427.0747022014111 L 90.9769161567092,424.7797423527809 L 91.7682401817292,423.27650609915145 L 146.95802825689316,386.31372233096045 L 148.21603075787425,382.92210597521625 L 148.64212845265865,356.19547713559587 L 149.41316218674183,351.54632284282707 L 149.03779046609998,349.3441814061953 L 148.94648390822113,346.3293336800998 L 148.33777290023863,345.0663674165262 L 146.59280173107982,342.3708255055826 L 146.18699442595243,341.0771445664577 L 146.50149507634342,339.05056245729793 L 147.49572290107608,336.6177948609693 L 148.94648390822113,335.12890332215466 L 150.63058400526643,335.9543430050835 L 151.75669916905463,333.13095915690064 L 152.4262811485678,323.0478736557998 L 153.8466065712273,319.0817764016101 L 156.21043394319713,315.4245262577897 L 170.1499134954065,300.72998645924963 L 172.1688046324998,297.16711648437195 L 172.9499835614115,294.77323293313384 L 173.47753300890326,292.06104403932113 L 174.10653430782259,243.31210167275276 L 174.248566839844,242.14254435291514 L 174.74568080157042,241.03201141988393 L 177.28197619318962,237.80318684468511 L 177.69792859442532,236.83382370497566 L 177.33270197175443,235.0798004871467 L 174.10653430782259,229.7259121737443 L 173.95435658097267,228.88494785071816 L 173.95435658097267,227.1620540395379 L 173.46738791279495,224.74192853958812 L 173.74960844032466,224.32932225998957 L 174.32972830161452,224.1317936721025 L 174.82684216462076,223.21660962270107 L 175.87179586663842,214.70668630604632 L 175.45584346540272,187.546185974963 L 175.88194106146693,88.55938717466779 L 174.09638911299407,88.02788254478946 L 166.68026135116816,88.07898855046369 L 168.5875554420054,81.0524505545618 L 169.69338031299412,79.41222609637771 L 171.30646414496005,78.20125605072826 L 172.18909502215683,77.13338024145924 L 172.39199862629175,75.75897294702008 L 171.65140028111637,71.6078931344673 L 171.71227145008743,69.91946590936277 L 172.13836904801428,68.21577360271476 L 172.889112489298,66.19287764979526 L 173.46738791279495,63.8074010402197 L 173.07172570377588,62.27759163256269 L 170.8397858645767,59.27430115931202 L 170.02817135304213,57.05770688049961 L 170.65717255324125,55.946894168504514 L 171.92532024905086,54.912712269695476 L 173.00070953555405,52.93378348473925 L 172.78766063787043,50.42640483670402 L 173.10216138511896,49.41531918128021 L 174.46161563880742,47.8221354855923 L 176.0544091798365,46.70132108905818 L 177.94141297787428,46.686002547852695 L 178.65157573856413,46.435801536310464 L 178.78346307575703,45.30480671871919 L 179.03709255717695,44.61805266421288 L 180.67046687565744,43.2675495587755 L 181.2893228828907,42.425099421758205 L 181.41106512397528,41.4320477101719 L 181.16758074052632,39.31326376856305 L 181.3806295376271,38.450459572370164 L 182.0299211293459,37.916957969078794 L 184.14011892303824,36.82699876406696 L 184.982169020921,36.19396532187238 L 187.50831921584904,32.117729041259736 L 191.26203642599285,17.4541654412169 L 189.22285489924252,17.331689027836546 L 176.61239411309361,14.336212201043963 L 174.5833577811718,13.256964627304114 L 175.29020467586815,11.196329858037643 L 156.6294611301273,8.042474922258407 L 141.06819050759077,3.2819203754188493 L 134.05443501658738,0.20084604248404503 L 132.66446517780423,0.0 L 132.91709695383906,3.4707669945200905 L 131.76054620556533,5.037047722609714 L 123.63425578176975,5.965614133165218 L 122.28494652546942,6.656947629409842 L 121.22984763048589,7.884023229707964 L 119.94140964187682,9.886692976462655 L 119.19066620059311,10.751563924713992 L 117.71961490251124,11.458268598769791 L 116.93843587487936,12.029762391466647 L 115.41665860079229,14.213743290863931 L 112.84992772527039,22.128898044815287 L 105.36278359778225,22.159519912907854 L 103.35403765551746,22.700510333990678 L 102.08588995970786,23.66256881773006 L 98.89015778340399,27.52374505228363 L 96.42487865872681,29.08820484019816 L 91.57548187114298,31.487307580769993 L 89.50586475990713,33.615968976169825 L 87.95365200005472,36.0050780052552 L 86.77681086212397,38.35090614808723 L 86.16809995286167,40.77598088234663 L 86.3405681680888,43.40540644095745 L 86.95942417532206,44.66400617349427 L 87.64929654449224,45.5907441615127 L 87.71016761660576,46.51239360391628 L 86.45216511562467,47.74554147361778 L 85.55938914231956,47.9293674613582 L 81.8969785887748,47.934473704663105 L 81.03463810123503,49.50468191958498 L 78.36645537242293,51.70561142126098 L 77.8186155334115,53.771307369926944 L 78.6708108279854,58.76100234466139 L 78.56935897655785,60.364759925054386 L 77.73745407350361,61.96090927522164 L 76.30698345601559,63.32214744947851 L 74.59244777262211,64.26967369613703 L 72.9083476755768,64.62723562726751 L 72.25905608385801,65.49561146565247 L 69.41840523853898,70.80071026668884 L 67.2777718603611,72.28992243809626 L 66.96327121183276,73.23507290892303 L 67.62270799838006,75.31447058834601 L 69.69232510961592,78.783744008746 L 69.92566429823637,80.44949528039433 L 68.76911354996264,82.53943290573079 L 65.97918858192861,84.70611767447554 L 64.85307341814041,86.21876880107448 L 66.28354403562844,86.66337491071317 L 67.72415984794497,86.77069437212776 L 71.86339387483895,87.85412284475751 L 73.13154166936874,88.55938717466779 L 75.00840027444065,91.96320556325372 L 75.07941644266248,96.26689274562523 L 74.6431737486273,100.71923360077199 L 74.97796468809247,104.59430129465181 L 77.34179206006229,110.52512885862961 L 78.25485832616687,115.11694696417544 L 79.56358670257032,118.74778436578345 L 79.6853289436549,120.89062965428457 L 78.11282579414546,127.38117172277998 L 77.46353420242667,128.2456269027898 L 73.85184952616692,126.90547292493284 L 71.90397465601563,126.5525384171633 L 70.11842270568013,126.79805778642185 L 67.02414228208363,129.5448994471226 L 65.44149393774569,133.903372293571 L 64.95452526956797,138.7790380222723 L 65.32989699020982,144.53027072944678 L 65.68497832119465,145.74815754918382 L 66.29368923045695,146.80744035879616 L 67.28791705705225,147.7797520479653 L 68.57635514065623,148.3580320897745 L 70.14885829202831,148.78790920577012 L 71.47787705808878,149.47367445903365 L 72.03586199320853,150.8042953092372 L 72.00542650558054,153.49637151742354 L 72.30978196114302,156.5673905502772 L 73.56778446212411,158.58414821885526 L 76.40843530744314,158.10298409487586 L 76.13451533764601,160.03791187691968 L 76.34756423532963,165.21863566548564 L 75.45478826016188,170.88131109590176 L 75.53594962321222,176.81617780064698 L 74.50114121474326,183.8531048281584 L 74.53157670237124,189.44664074643515 L 73.62865553237498,193.14535668573808 L 73.26342900656164,197.80765880388208 L 72.74602475389838,200.24149426224176 L 73.2329934220761,200.94349124387372 L 74.00402725301683,201.54045461514033 L 74.54172189719975,202.824084402062 L 74.36925377883017,204.19487271888647 L 72.92863796651363,205.78094670700375 L 72.52283076010644,206.82384430104867 L 72.63442770764232,208.10764558264054 L 73.14168676547706,208.49202539143153 L 73.89243020676076,208.584277012269 L 74.71418991498649,208.97891168831848 L 77.98093845695257,211.92854714021087 L 79.62445787340403,213.01517594407778 L 83.95645040646195,214.94247842743061 L 85.52895355597138,215.92410654597916 L 86.26955180428922,217.43376030307263 L 85.88403498567641,219.87393575382885 L 85.51880845986307,220.2122914266074 L 84.34196732193232,220.40197688760236 L 83.95645040646195,220.74033726018388 L 83.97674079611897,222.20403605385218 L 83.55064320005476,225.8263515533181 L 79.78678079508245,228.96186450554524 L 78.51863309927285,232.71815110731404 L 76.80409741774201,236.36453754105605 L 70.3720522839576,239.39833031385206 L 67.81546650454402,241.25514132005628 L 65.44149393774569,243.4531691513257 L 63.7675390355289,245.39995402109344 L 59.84135370887816,248.0881701549515 L 55.93545877188444,253.57036753708962 L 53.0592997930944,259.79493310593534 L 52.21978606842458,264.711692618439 L 52.88683167658746,265.65354753960855 L 54.12454388476908,265.88452375133056 L 55.28616718016565,265.43283810757566 L 56.33619352988899,263.2001556121977 L 57.36592938937247,264.3472756409319 L 58.02029362693429,266.0077116433531 L 57.492744179442525,266.3978094869526 L 58.527552684769034,266.7442815024406 L 61.70299457013607,266.1052357911831 L 62.78345640562475,266.6262239275966 L 63.128392638638616,267.93770966888405 L 63.270425172522664,269.48537462507375 L 63.7675390355289,270.72509339416865 L 65.93860780075192,273.8566615538439 L 64.71104088611901,278.7136909972178 L 59.95548693090677,286.79649117193185 L 58.6391497310251,289.88065494329203 L 59.64859529957175,292.9214225311298 L 61.30986873432994,296.00868280476425 L 61.827272986993194,299.2118056038162 L 61.817127890884876,300.76595091971103 L 62.43852026946843,301.72416046250146 L 64.66031491197646,303.7151613951428 L 65.84730114601552,305.7448132793652 L 65.81686565838754,307.33007844071835 L 64.59944393858314,310.888835299178 L 64.69075059518218,312.8495179422898 L 65.4922198150307,313.8029170454247 L 66.59804468601942,314.45052379835397 L 67.59227241203189,315.48106552427635 L 67.99807971902192,316.7326623147819 L 68.16040264070034,319.64723244984634 L 69.07346900552511,324.6904799719341 L 68.46475809626281,327.02470929396804 L 66.68935134075582,328.58523490233347 L 63.696522671729326,329.6881862101145 L 64.34581436030567,330.99686191254295 L 64.5690083540976,332.0176124066347 L 64.39654023572803,332.9972528005019 L 63.7675390355289,333.88178160460666 L 58.55798817239702,335.7897676634602 L 56.71410152502358,336.093203902361 L 52.76508953422308,335.87205528479535 L 50.55851253680885,335.4760483758291 L 49.06970712170005,334.82290426979307 L 48.580202179029584,334.03606223722454 L 48.28091927245259,332.022754759877 L 47.89540235698223,331.1768408664502 L 47.14973156154156,330.54434764408506 L 42.660488652065396,328.9683071874315 L 40.83435602299869,328.60066052072216 L 39.01583221554756,328.801194587606 L 38.56944412924349,330.13297608075663 L 39.37091354653239,331.26940186775755 L 38.68104117549956,332.8584043874871 L 38.69118637032807,334.2751985794166 L 42.782230796292424,335.1083318463061 L 44.31161689199507,335.7074804396834 L 45.567083118483424,336.57665012567304 L 45.942454839125276,337.60785381577443 L 45.080114448443055,338.68537912284955 L 43.69276088476181,338.75738680234645 L 41.18943735398352,338.2841963133542 L 40.16984659060836,338.7265263069421 L 38.48067384585738,340.0432639878709 L 38.23465318791568,340.32873532699887 L 38.20168132893741,340.9639819256263 L 38.66075078584254,343.7674392469926 L 38.901698894798756,344.4053225351963 L 43.84240233898163,343.84974609524943 L 46.20115706324577,343.9886393744964 L 47.9562734272331,345.140960821067 L 49.3030463103205,344.2509947367944 L 51.113961197435856,343.9423415514175 L 52.704218462109566,344.39503398677334 L 53.38394563831389,345.7660088513512 L 52.54189554043114,347.8290065472247 L 50.59909331612289,348.204578366247 L 46.61710946634412,347.18591401772574 L 43.55833717621863,347.5151758461725 L 41.99344294704497,349.6014334151987 L 41.922426680102944,352.51109141483903 L 43.32753435894847,355.3412399283843 L 45.942454839125276,352.57798310986254 L 47.59104690141976,351.65952088008635 L 49.351235911250114,351.8807727325475 L 50.37589932233095,353.1079756207764 L 50.64981919154525,354.8498061109567 L 50.42662519775331,356.6612001238391 L 49.97009201720357,358.1253105815267 L 48.613174038007855,359.89313592994586 L 48.0983059592545,360.9662285721861 L 47.9562734272331,362.81913203932345 L 50.06139857508242,370.5612725613173 L 50.09183415956795,371.6939188609831 L 49.64798244647682,375.6868086071918 L 49.848349776118994,377.07709719752893 L 50.63967399671674,378.5884593267692 L 52.58247631974518,380.5685270320391 L 52.643347293138504,381.38479272823315 L 51.976301684975624,383.35472968313843 L 50.801996821537614,385.71366114751436 L 50.63967399671674,386.3832580568269 L 50.83243250474334,387.3052642319817 L 51.16468717157841,387.9233835057821 L 51.22302187047899,388.5569681915222 L 50.63967399671674,389.5382761398796 L 52.35928222723305,389.86796103592496 L 53.875986855477095,389.61554580240045 L 54.97166653163731,389.9040205304045 L 55.38761893287301,391.86159653414506 L 55.09340877272189,393.878539463738 L 54.3020845502615,394.53542553214356 L 53.221622716635466,394.7981837185798 L 51.976301684975624,395.60450416838285 L 51.01504571735859,398.1807435135124 L 51.52991369739175,405.2432799359085 L 51.367590775713325,408.6011752692284 L 52.077753437682986,409.9387628622353 L 52.35928222723305,411.5753872853238 L 52.82596060447395,413.1038389703026 L 55.23544130474329,414.9081773716025 L 53.23176781274378,416.5759935192764 L 52.290802236646414,417.0296960414853 L 47.98670901171863,416.3078995960532 L 46.61710946634412,416.292432741262 L 47.479449953883886,418.31092542305123 L 46.44717772118747,419.90157872089185 L 44.77575899474323,421.4201221707044 L 43.67500686831772,423.230095145409 L 44.139148872345686,425.1407360578887 L 44.096031818538904,426.2417927137576 L 43.12716702930629,427.2191098134499 L 42.12279400974512,427.45119485037867 L 39.19844543002546,426.4222975069424 L 38.254943480715156,426.55638744449243 L 35.65016819536686,427.5852893178817 L 34.71173879504204,426.05613177421037 L 33.960995353758335,425.97877330100164 L 28.67535577341914,435.70423657272477 L 27.12060673907399,437.3654271143023 L 21.92627371661365,440.64679980650544 L 21.117195477709174,441.62973184883595 L 19.9707899261266,443.8485393753508 L 19.194683546200395,444.7825505309738 L 18.301907571032643,445.33213395182975 L 15.232990184798837,446.35392085753847 L 13.031485734507442,448.03117051534355 L 9.59480544924736,448.6298418970546 L 8.516879888251424,449.14852796006016 L 7.6545394994318485,449.87109028419945 L 6.6527027525007725,451.9356486564502 L 6.716110099107027,454.01841383310966 L 7.6545394994318485,457.9546368974261 L 8.177016301080585,462.1314651146531 L 8.922687195241451,463.87413245486096 L 10.307504484429955,465.642720270087 L 12.311177778989077,467.0086060259491 L 13.158300524577498,467.8219701917842 L 13.34091373719275,468.88324998202734 L 12.838727325201035,470.8483952523675 L 12.762638412415981,471.8168126459932 L 14.888053949922323,481.85922015469987 L 15.36487752199173,482.799578395905 L 17.698269307613373,484.8664048569044 L 18.21060101315379,489.6619999613613 L 17.896100364625454,492.75784812239 L 16.41490377113223,495.09933265519794 L 13.138010134920478,496.3580225018086 L 11.291587114334106,496.3270069618011 L 7.958894856274128,495.4404916765634 L 6.16066143848002,495.25440447148867 L 4.354819098487496,495.7196248547407 L 2.358754625543952,496.8335991719505 L 0.7304530516266823,498.3456741773989 L 0.0,500.0 z" /></g></g></svg>