<svg xmlns="http://www.w3.org/2000/svg" xmlns:xlink="http://www.w3.org/1999/xlink" width="272.04203812312335" height="500.0" viewBox="0.0 0.0 272.04203812312335 500.0" preserveAspectRatio="xMinYMin meet"><g transform="matrix(1,0,0,-1,0,500.0)"><g><g><path fill-rule="evenodd" fill="#D2EBD9" stroke="#A6A6A6" stroke-width="0.25" opacity="1" d="M 182.31582441553473,199.54951861011796 L 182.06775066722184,200.22906327131204 L 182.09175780694932,202.74748963466845 L 181.65162701066583,203.69292796449736 L 179.42696582898498,206.65520450100303 L 178.05055677331984,207.79867619508877 L 177.83982746023685,208.14215456997044 L 177.83982746023685,210.31645568087697 L 177.50906248390675,211.80264185578562 L 176.9435610882938,212.75720236334018 L 173.08107980620116,216.50415093358606 L 173.02506317012012,216.81658119824715 L 173.79329148959368,216.7429066884797 L 173.3931725807488,217.29002258833498 L 172.1848134342581,218.2438037688844 L 172.224825354293,218.82512832712382 L 170.78706469200552,218.1823984554503 L 170.63768698554486,217.56700429064222 L 171.1071598250419,214.45657067163847 L 171.57663269806653,213.42681875359267 L 171.45926448795944,213.05859176116064 L 170.5256536807865,213.31089380872436 L 170.4029505327344,213.45818692236207 L 170.41362037602812,214.45657067163847 L 169.816109450534,215.2149801373016 L 167.89553865231574,216.4018289851956 L 164.37449218984693,217.64341456000693 L 163.85433761961758,217.96816551079974 L 163.39019968546927,218.03093387465924 L 163.00608552526683,217.45239011663944 L 162.06980723328888,217.7771340936888 L 161.76038194354624,218.19740859651938 L 161.88841999601573,218.82512832712382 L 161.06950994674116,220.50927434721962 L 160.99748856201768,221.1153178201057 L 161.87775015365332,220.89282405097038 L 162.7019951408729,221.17264839913696 L 163.39286713767797,221.71594252553768 L 163.9050193503499,222.2606353056617 L 164.16643036156893,223.04565292783082 L 163.91035425569862,223.72287233173847 L 163.42487663496286,224.02053772914223 L 163.00608552526683,223.65733268647455 L 163.46222106926143,223.38425609702244 L 163.68095274083316,222.9691959505435 L 163.21147990133613,222.39988550404087 L 162.5392801053822,222.01080961502157 L 161.93109936919063,222.07224151561968 L 161.6643534200266,222.85451176553033 L 161.7497121002525,224.34142686543055 L 162.33655318245292,225.74118741904385 L 162.13382625952363,225.74118741904385 L 161.92576443124563,225.47897130297497 L 161.44028681050986,224.57220124080777 L 161.22155513893813,224.57220124080777 L 161.00815837271512,225.4024930803571 L 161.22155513893813,226.1768659853842 L 160.31728640850633,225.7029470752459 L 159.85314844176173,225.75211326708086 L 159.65308900363743,226.1768659853842 L 159.11426219996065,226.0225322067272 L 158.95954952202737,225.9474150124006 L 159.39701289776713,225.48033698811196 L 159.20495581813157,224.8016160891857 L 160.10122219007462,225.28231438342482 L 160.469331568107,224.58722226321697 L 160.32528876699507,223.88672357122414 L 160.99215362407267,223.37879466614686 L 161.3335884436965,222.34391213417985 L 161.05083774589002,221.674989545485 L 159.85314844176173,222.2606353056617 L 157.83921657316387,224.34279237291776 L 156.44680273626,225.1757937381044 L 156.50015192013234,225.4898968229536 L 155.22777377907187,226.99501722492278 L 154.72895886190236,227.79275455931202 L 154.93168578483164,228.4894687293563 L 155.05172144714743,228.2162408248987 L 155.60388554725796,228.0304507741239 L 155.17175714299083,228.3241648087278 L 155.83328706212342,228.94714472279884 L 156.05201873369515,229.42943847179413 L 155.80394501797855,229.42943847179413 L 155.4171634055674,228.9635395614896 L 154.93168578483164,229.1766749538947 L 155.60388554725796,229.63575364416465 L 153.93939085677266,229.59886248596013 L 153.79001314938068,229.87486677244306 L 154.48355259839445,230.55398417357355 L 152.6750151058659,230.34491417277604 L 152.6750151058659,230.0948567080777 L 153.787345697172,228.96763825928792 L 154.48355259839445,228.94851098605432 L 154.25415108446032,228.0850944898557 L 154.23814633581787,227.11521953577176 L 152.66434526257217,229.32286700769328 L 151.50133294053376,229.57016948261298 L 151.08520925138146,229.42943847179413 L 151.08520925138146,230.88604692718945 L 150.7277697166428,231.74974333448336 L 150.21561750397086,230.98990457574837 L 150.65841575153172,229.1766749538947 L 149.07927977386862,230.51982204965316 L 148.84987825900316,230.98990457574837 L 149.52207802142948,230.78355704946443 L 149.4020423591137,231.3424832925666 L 148.62581164948642,231.4709457969293 L 148.35906573291868,231.72240984532982 L 147.9536118870601,232.6162600638345 L 146.80660431366414,233.98181647108868 L 146.0890577249229,234.49036758719012 L 144.70464627910405,235.09328591334634 L 142.68271202035248,235.16164667904377 L 142.09053603280336,234.9675035076216 L 141.22094425186515,233.55531304772012 L 140.64744046516716,233.26142076868564 L 138.63884350191802,233.30516225635074 L 138.39076978620142,233.2094780667685 L 138.31074601132423,232.6162600638345 L 137.26243444625288,232.60259193065576 L 136.2781419083476,232.84588799462654 L 134.83771382644773,232.62172734341584 L 134.10949739534408,232.37023696117103 L 133.79473716765642,232.05451764562167 L 133.65069436561316,231.4313135461416 L 133.29858970362693,231.39031486143358 L 132.47167729586363,231.93014656822197 L 130.19633438251913,232.95250303833745 L 127.75027407705784,233.55531304772012 L 122.46870436705649,234.24429068760946 L 121.77783240284771,234.09801500593312 L 120.64416212588549,233.4500574534759 L 119.21973879169673,233.19444208568893 L 118.86229922436178,232.85408908408135 L 118.75560082495213,231.4709457969293 L 117.17112994100899,232.17889055539854 L 117.17112994100899,232.3893718563486 L 117.65127262379974,232.7584099585656 L 117.44854570087045,233.31336378515698 L 116.89371414855123,233.63869825634174 L 116.3015381610021,233.30516225635074 L 115.94409859273583,233.51020332984626 L 114.9357989160344,233.30516225635074 L 115.2292194571346,233.56214785389602 L 115.37859719712287,234.01462532486767 L 114.71173233911395,234.01462532486767 L 115.15453058760613,234.93332385015674 L 114.26359915267676,235.16164667904377 L 114.83443545456976,236.6520477400627 L 115.26389643922448,237.28657286055386 L 116.0561318974942,236.99665464297868 L 116.82969512138516,238.04286839952692 L 116.9684030180797,238.6241540017072 L 116.74967134650797,239.61448302841745 L 115.28790357895195,241.82809692737646 L 115.15453058760613,242.27691037324257 L 115.27189879771322,242.59437826368958 L 116.0561318974942,243.23482420155779 L 116.3015381610021,244.38446532702073 L 116.58428885880858,244.22295859316364 L 116.93105858378112,244.3899402061943 L 117.41653620451689,245.07432589796372 L 117.40053145587444,245.87102151149884 L 116.68831977248192,246.90054179145955 L 116.50426508393139,247.485179832438 L 116.36555718723685,247.69467374542728 L 115.75204151310027,247.93703606375493 L 115.602663773112,248.29032261576504 L 117.795315425843,251.74319238518365 L 117.77397577185184,252.3870845909696 L 117.41653620451689,253.59828677913174 L 116.72299675550312,254.87270871317014 L 117.37652431707829,256.36389781720936 L 118.4568453785032,256.7148055229336 L 118.97966743446887,257.06847000448033 L 119.17172451410443,258.3187562425155 L 119.10503803472966,259.0454365944024 L 118.63823261484504,259.70224724453874 L 119.4544752119109,261.689459083369 L 118.39282635133713,260.8541944604367 L 115.95210098382086,260.7485924544744 L 113.49537083413452,261.34793647029437 L 112.09762205928564,261.5207533258945 L 111.39074531476945,261.81564782513306 L 109.0993976527825,262.12975659547374 L 108.10977021045983,262.5014907512814 L 106.8160523828119,263.4206120783929 L 106.22120894212276,263.65658261300996 L 106.14118513464928,263.90765191148967 L 106.37325410172343,264.6060226848349 L 106.41059853602201,265.60360502195545 L 106.05315896868706,264.9216129789129 L 105.96513283532113,262.95417914539576 L 105.69038449600339,262.47954285982996 L 105.03685693349689,262.18599573499523 L 100.90762973576784,261.45903258235194 L 98.49891383107752,261.4713766933419 L 97.8667259560898,261.2080398113467 L 95.83145440090448,262.3807781240903 L 95.50068942457438,261.7360938328784 L 94.58841830398887,261.0558021226898 L 88.55462505668402,258.88775512739085 L 88.0878196367994,258.54086672188714 L 87.52498569339514,257.3234469513409 L 86.85812083538622,257.50577409774996 L 87.32759370841086,257.29877140768804 L 87.27157707232982,256.7093224879354 L 87.01816841866821,256.18570831324905 L 86.60737966746092,255.81152298604138 L 85.59374505188316,255.4126850431785 L 85.52705857343972,254.82474298775196 L 85.73778788652271,253.6996851360891 L 86.7674272172153,252.3213230734691 L 89.24016211554408,250.12272496451624 L 89.69096275418997,248.21774700237438 L 90.23512449581176,246.91012569935992 L 90.15510072093457,246.32279000757262 L 89.86434763297439,245.78888442972675 L 88.551957603544,243.84247198118828 L 87.59967456292361,239.8388278170023 L 86.40998764894903,237.93618969246745 L 85.66843392234296,235.2368441701401 L 85.51905621495098,233.8177741896361 L 85.53506096359342,232.3893718563486 L 86.1859210729599,229.53327860403806 L 86.0632179249078,227.40207268949598 L 86.1859210729599,226.65627416898496 L 87.1755485162139,224.2594966108445 L 87.21556040365249,223.77202739543281 L 86.93547715805471,223.27639319561422 L 86.21526311710477,220.79318140726537 L 86.24994009919465,220.47515150066465 L 87.11953188013285,219.49110564473085 L 87.4716365095228,217.8671912481077 L 87.32759370841086,217.45239011663944 L 86.40998764894903,216.53689421969466 L 86.20726072601974,215.33502205042168 L 85.35100627411157,213.83734143688343 L 82.07269858941436,210.3491764338687 L 81.28313061688095,208.88503906037658 L 81.02171957306564,207.342088063946 L 81.4698527585715,206.16324222972617 L 81.36582184489816,205.97109793988056 L 80.66961494274437,205.7830457543023 L 80.58158877771348,205.53231550124474 L 80.81899268273264,203.8904741620645 L 80.62160066515207,203.1370965775568 L 80.81899268273264,202.74748963466845 L 79.61863592546433,202.6071806671098 L 78.67969018034637,201.69045710959472 L 75.07595249079168,195.44606631575152 L 74.5477955294773,192.6778616909869 L 73.4728093734011,190.12676749844104 L 72.69924611598253,189.11604304146022 L 72.59788265451789,187.1887528540101 L 72.69924611598253,186.493826467311 L 73.25141024962068,185.101404751651 L 73.25141024962068,184.47596820094623 L 72.69924611598253,183.94165987800807 L 72.45917479135096,184.6024119022768 L 71.939020187594,184.5860965026077 L 71.36284894868731,184.1986136441119 L 70.6933166384697,183.37475427961908 L 70.30653502605855,182.39600238995627 L 70.34654691349715,181.06668875180185 L 70.92805305868387,179.2673745113425 L 70.23451360873878,176.87197190523148 L 70.29853263590485,176.0962742669508 L 70.92805305868387,174.00314483605325 L 70.80534991063178,173.49656784627587 L 70.5332690551877,173.51286481972784 L 70.23451360873878,173.8890608982183 L 69.15419254731387,173.86597263533622 L 68.56468397937715,173.62966063665226 L 68.29793806280941,171.34288420155644 L 66.32935298699886,168.34533547982574 L 66.20931732468307,168.04807287990116 L 66.3080133004114,167.32463456643745 L 65.29704617150128,167.12376406951807 L 64.76088681910187,166.72067781700753 L 63.94997915998101,165.64585934160277 L 63.4858412258327,163.37445690925233 L 63.1550762495026,162.8114333699923 L 62.056082954630256,162.44785867654718 L 61.99206392746419,161.75873001175933 L 62.832313664257526,161.54983004927635 L 62.029408362694085,160.35484085395 L 61.917375057935715,159.8421637234278 L 62.12543691881001,159.40681496472098 L 63.501845974475145,158.34361018030904 L 63.37914282642305,156.75985361007042 L 63.1550762495026,156.5225820480846 L 62.44019711390138,156.48190746735781 L 61.71198068186641,156.06703573884442 L 61.359876052476466,156.7896824076306 L 60.59431518614292,157.22627745359205 L 60.09283281676471,156.9862834950909 L 59.303264810703695,156.87645761598833 L 59.00717681739479,156.5225820480846 L 59.23124342691153,154.70187132176943 L 59.57534566614777,154.20302732777782 L 61.39988793991506,152.3583232939709 L 61.775999709032476,152.2566774035804 L 62.38418047782034,152.42744304286316 L 61.96005443111062,151.76336991530843 L 60.636994525790215,151.63462586142123 L 59.00717681739479,148.06564850965515 L 59.06852839142084,147.14582073898055 L 59.74072815384716,146.04998744954355 L 59.90077573712915,145.4635118781589 L 59.79941227566451,145.07074003573507 L 59.335274340584874,144.73215510812588 L 59.23124342691153,144.30690748151392 L 59.45531000290066,142.8403373931069 L 59.45531000290066,140.21644187439233 L 59.6793766124174,139.63840296003036 L 59.00717681739479,138.93721629399806 L 58.78311024047434,137.5755798383616 L 59.34594415128231,135.542911804514 L 59.70338371861726,133.4849096722901 L 59.98346696421504,132.75434922077693 L 60.98909918870777,131.2406169846654 L 61.35187366139144,129.40925933467224 L 62.73361765500158,126.86289249686524 L 64.6435186099261,124.38874113513157 L 63.56853245291859,124.34007464488968 L 63.501845974475145,123.91425172821619 L 62.38418047782034,123.23567113396712 L 61.75732750818133,122.55442717135884 L 61.583942629396915,122.00432486576028 L 61.71198068186641,120.62580468691885 L 62.39751777332276,119.10556716215797 L 63.92863947339356,118.77722182683647 L 65.53445007652044,118.66372186434455 L 66.43338390160352,117.79224094888195 L 69.59965824801475,118.05975842336193 L 70.48258732445538,118.70020387880504 L 71.13077998161316,120.34876888222061 L 71.60025285370648,120.73932371288538 L 73.49148157425225,120.51228676713072 L 74.03564331680536,120.616344809765 L 75.05728028994054,121.17313871579245 L 76.0762497773394,121.42046105931513 L 76.63641626760364,121.87457481492311 L 78.08751419279724,121.75158393452875 L 78.2769038202241,122.02865316625684 L 78.71169971022755,122.00432486576028 L 79.65598036069423,121.6272428012453 L 80.37085949629545,122.10028679505922 L 80.76564346626401,121.71914697578177 L 82.01401450112462,121.17043577530421 L 81.99800975248218,120.4839074681513 L 82.21407397184521,119.94471381418407 L 82.80891741160303,118.90558619890362 L 83.07833081390709,119.13259187759832 L 83.09433556254953,116.62901588599198 L 83.25705059804022,115.97922698734328 L 84.07062574289739,114.77295676036738 L 84.17465665657073,112.66194082098082 L 84.62278984300792,111.40604311181232 L 84.17465665657073,110.72548252576962 L 84.55877081677318,107.37185160000809 L 84.39872323349118,106.85349864629097 L 84.8228492802009,105.829006443033 L 85.47904432751238,99.36816708464175 L 85.73778788652271,98.30787399038672 L 86.29528689198196,97.43785307672806 L 88.15183866303414,96.31568229128607 L 90.0430674161762,92.36864221235737 L 90.23512449581176,92.07741599343717 L 91.35545744467527,91.52329549216665 L 91.54217961989343,91.12153936945833 L 91.97964296210557,91.01908008055761 L 92.92125616036355,91.39926208043471 L 92.61983322817832,92.36055249394849 L 92.55314674880356,93.6940747720655 L 92.21704686805606,94.8510755635798 L 91.112718667835,95.28801235370338 L 91.75290893297642,95.56582568236627 L 92.74253637623042,94.84568139002658 L 94.04158910922706,93.10617522196844 L 95.71408619079739,88.74496289924718 L 96.74372552148998,82.1701811440289 L 101.24372961651534,60.94488259172067 L 103.22452014032751,56.21818669256754 L 105.40680865105242,52.76499730814248 L 105.64918634854257,52.09298966033384 L 105.62903292197734,51.62449974101037 L 104.78185921534896,51.69312402699143 L 103.19183991197497,53.18899946496822 L 102.3000435391441,53.73522368632257 L 101.37946532573551,53.70088820694946 L 100.76358690112829,54.0229506411124 L 101.20371772907674,54.900955635588616 L 100.65774085372686,57.40728703234345 L 100.192407974042,57.695368121843785 L 100.12339663505554,62.619713445426896 L 99.5822834521532,63.89353276020847 L 98.57991458009928,64.30451999395154 L 97.48634347692132,64.16794068040326 L 96.30626217927784,62.30760163022205 L 95.75143062602729,62.732721087755635 L 95.62606002576649,63.604524525115266 L 95.84745914954692,64.25033914437518 L 96.96245719306171,64.9365492623765 L 97.4185927696526,65.55416672164574 L 97.533293527551,66.8379284045659 L 97.32256424613297,68.58209396176971 L 96.8770985128358,70.23359907581471 L 96.27958758734167,71.24048070050776 L 95.65540206991136,71.47471230011433 L 93.71882652398199,70.99548406223767 L 91.56085185334086,68.9616402189713 L 91.49950027931482,68.31964780483395 L 91.88361443858594,65.53398270509206 L 92.47312297392637,63.95433714403771 L 92.6891871932894,62.73675711499527 L 92.8919140836224,62.17576335254125 L 94.19363430142403,61.02693802630529 L 95.35397917032242,58.18889670120552 L 95.95415754895657,57.15066153020598 L 96.74639300722629,56.50516379973851 L 98.28018215950578,56.393549349624664 L 98.9470470175147,56.17570195160806 L 99.22713026311249,55.46973705594428 L 99.43252463825047,53.98127023386769 L 99.72327772714198,53.724467674968764 L 100.50497068371624,53.55788028310053 L 100.8070059036836,53.287583980476484 L 99.98735622409731,52.89896488189697 L 99.67526344861835,52.53597324434668 L 99.77929436322302,52.16492422996089 L 100.28216978628188,51.74553920561448 L 100.72716040629894,50.83929709997028 L 101.12453909497708,50.473563282052055 L 101.58556196466088,50.31438943953253 L 102.094313650392,50.37783371284604 L 103.03359490819275,49.69687522947788 L 103.85912593081594,49.66151501447894 L 105.03523620590568,49.96349441749044 L 106.10917563736439,51.11635718517937 L 106.00382653344423,52.59680088912137 L 111.89489516895264,44.62761122477241 L 112.52708304487169,44.09820355172269 L 113.93365539051592,43.589364632731304 L 114.67438790388405,43.93159168283455 L 116.19595200847834,42.530624689068645 L 117.8919370630756,41.246129393111914 L 119.51328631397337,40.451951313065365 L 125.86704771406949,40.623909135814756 L 127.1817120257765,41.23268190957606 L 127.59934260696173,41.949329775292426 L 128.69624573085457,41.758726263418794 L 129.1495781224221,41.38030636776239 L 129.98827255424112,41.0873724471312 L 131.10860550310463,41.0873724471312 L 130.3537144800648,42.472470625070855 L 128.1984072625637,43.36055650934577 L 129.15512408316135,43.684235400753096 L 130.10830821748823,43.50969544099644 L 132.2191391205415,42.05469448468648 L 135.58993736468256,41.16663275519386 L 137.86261282488704,39.960307211149484 L 141.4983600443229,33.9152831598185 L 144.8860335154459,28.704757157247514 L 146.0890577249229,27.51144149224274 L 149.37803522031754,25.445824363501742 L 153.02711973525584,21.94062502356246 L 154.76630329713225,20.68338399985805 L 154.55540455505252,18.943574636243284 L 154.70657910499722,16.36897729896009 L 154.33732270263135,15.318759613437578 L 153.46669062133878,14.448310195468366 L 151.03942258190364,12.576391904149204 L 150.23146242834628,11.591967460000888 L 149.740249783732,10.22527348739095 L 149.72500524949282,8.818665465572849 L 149.51666333526373,7.557748677907512 L 148.0836774399504,6.3897111737169325 L 147.6094031529501,5.526500521693379 L 146.65069157723337,4.939131551655009 L 146.21706935949624,4.040237502660602 L 145.8308745669201,3.624002876225859 L 145.2956221429631,3.5644199484959245 L 144.59776144009084,3.9414979873690754 L 143.84908560104668,5.022553865099326 L 143.41546338330954,5.157903050770983 L 143.02079941239208,5.040430100169033 L 142.10104608442634,4.325393329374492 L 141.42012367304415,4.47010094858706 L 140.91027884930372,5.031917602056637 L 140.2683147173375,6.539542758604512 L 140.3767202468589,7.4351523467339575 L 139.4281716728583,7.78165937634185 L 138.58125333767384,9.107300717849284 L 137.8800048911944,9.272480526240543 L 132.4631149955094,7.28701621782966 L 130.04770381189883,5.93596723722294 L 128.7603878704831,5.703566069714725 L 127.75424883700907,5.1749281662050635 L 127.2494854805991,2.9490244342014194 L 126.55162474513054,1.7004205153789371 L 126.04516756720841,1.2161511632148176 L 124.50885760877281,0.2884991003666073 L 123.5975734591484,0.0 L 123.04877038858831,0.25530872982926667 L 122.17475059721619,1.906387698603794 L 121.5531125003472,2.624736968893558 L 120.81629351805896,3.1192563062068075 L 119.54760978836566,3.282680375035852 L 118.51775704231113,4.978288939921185 L 118.45508508197963,5.3536929483525455 L 120.09471906907856,8.844208212103695 L 120.63674681726843,9.192444756859913 L 121.92406275868416,9.552608404541388 L 122.17475059721619,10.156302897958085 L 122.45931518264115,11.854248304385692 L 122.68290159851313,15.020655695348978 L 122.44915214926004,15.674787495052442 L 121.31428155023605,16.62962495186366 L 121.3447705861181,17.389443442691118 L 121.78516815975308,17.94058807636611 L 122.51521178614348,18.41933983261697 L 122.5761898914352,19.220980357611552 L 122.26960544846952,20.319143225904554 L 121.85292162001133,20.46397981676273 L 120.34879458602518,20.138525143498555 L 119.80507298372686,20.31573531567119 L 118.74981270171702,21.181365033611655 L 118.12309310398996,21.05015455931425 L 117.26262402441353,20.126597601920366 L 116.64606746099889,19.967280518030748 L 114.8438251633197,20.366854006191716 L 114.11886303685606,19.9962471423205 L 113.76315734535456,20.76132473256439 L 113.74283127859235,21.713885264471173 L 113.98843761626631,22.620485783321783 L 113.38881940953434,23.92338234791532 L 113.22112956549972,25.870670890202746 L 112.91623894497752,26.50220320187509 L 112.16078775003552,26.942841006908566 L 111.14617953822017,27.035742934560403 L 110.87008416373283,27.242004063911736 L 110.74135256651789,28.456610038876534 L 110.18069260660559,28.451495732413605 L 108.06847815494984,26.93772716494277 L 107.48749216087162,26.85931496275589 L 103.7746020341292,28.084121467312798 L 102.12988654710352,29.117222498636693 L 101.64206158090383,29.23741415911354 L 100.24295239895582,29.184563791146502 L 99.51290880516171,29.409605185501277 L 98.24761272035539,30.02081250329502 L 97.60564858932048,30.58686017477885 L 97.23469836357981,31.21175169572234 L 96.0185235934332,34.914703445509076 L 95.44600674510002,35.28052564221434 L 94.76847207639366,35.28905305964872 L 94.27217789925635,34.91299801459536 L 93.77588372211903,34.92323070252314 L 92.9628420677036,35.543172353412956 L 92.49534313660115,35.39308800292201 L 92.28361357748508,35.11935819522478 L 91.93129553180188,32.659409150714055 L 92.29547040071338,30.86307122046128 L 91.59083434194326,29.985008973861113 L 91.68230151478201,28.829106998397037 L 91.54679456166923,28.00740858889185 L 90.98734806664288,26.77723910473287 L 90.36049509700388,28.006744333077222 L 89.76831910945475,28.18124479916878 L 90.16843801736832,29.24439487280324 L 90.20844990480691,29.77599548920989 L 89.88035238068551,30.004213105421513 L 89.45622633397579,29.89547373307869 L 88.89072493743151,28.89805819792673 L 87.79706658050418,29.824323675362393 L 86.85812083538622,30.906374966027215 L 86.52735585905612,31.909282726002857 L 86.29528689198196,32.05294388416223 L 85.63909187726676,31.77367850486189 L 85.6070823809132,32.16841078270227 L 85.96185446344316,32.729645263403654 L 85.53506096359342,33.978394290897995 L 84.76149770617485,34.11670252494514 L 84.47074465081096,35.036549461307004 L 83.25705059804022,36.106860847212374 L 82.47281753085554,37.346470097545534 L 81.95533038023859,37.80312180076726 L 81.07506878860295,37.577480509411544 L 80.57358638662845,38.854813733836636 L 80.16813257336617,39.29673318588175 L 77.33262316975743,40.368674302706495 L 76.51638060528785,41.134391240309924 L 76.66842576488853,43.05422162706964 L 77.31661842111498,43.13617904717103 L 77.43665408343077,43.27591075259261 L 77.21792241279036,43.89665715419687 L 76.35633302293718,44.313189232489094 L 76.52971790079027,45.62601062213071 L 76.30031638685614,46.0681220209226 L 77.16990816686302,47.675418683327734 L 77.53268264047801,47.891798462485895 L 78.55698706582189,49.347402014769614 L 78.31158080231398,49.71300494764 L 76.748449572362,49.01944222440943 L 76.2469671703875,49.256002669921145 L 76.06024502869695,49.656550959451124 L 76.0762497773394,50.82330922340043 L 74.39575033728033,49.71031666570343 L 74.16634882241488,49.6982193691656 L 74.05965045560151,50.16733264643699 L 73.1793888323009,50.35148711153306 L 72.32313434779644,51.70650318521075 L 71.73896071780473,53.248520735651255 L 71.91501304879785,53.98127023386769 L 72.61388743575662,54.36849924037233 L 73.2194007197395,55.31644628569484 L 73.65152915753424,56.5065085538663 L 73.81957909837365,57.61194087169133 L 73.61685217544436,57.61194087169133 L 72.68857630621642,55.82876640581526 L 72.05105349235237,55.15508928708732 L 71.2348108952865,55.46973705594428 L 71.09877045173198,55.98609662079252 L 71.25881803408265,57.40886857872829 L 71.13077998161316,57.85805211821571 L 70.6933166384697,57.90243326174095 L 70.13048269506544,56.78084163716994 L 70.03445413894951,56.25773053057492 L 70.17049458250403,55.09054698771797 L 70.04245652910322,54.62262374931015 L 69.46628529019654,54.433038391172886 L 68.62870300654322,54.75439373473637 L 67.82579773757607,55.340649989200756 L 66.89752183575183,55.49797499598935 L 66.43338390160352,55.78708087699488 L 65.07031214237213,57.85805211821571 L 65.37440249323845,58.401394362794235 L 65.42508422397077,59.176095560891554 L 65.31305095274001,60.67988702445291 L 64.84891298506409,61.81792270229198 L 63.725912583991885,61.9416861187201 L 64.16070847399533,62.64123862446286 L 63.63255148008466,65.69545554323122 L 62.832313664257526,65.55416672164574 L 62.224132895469666,65.92959440103732 L 62.12543691881001,66.13951528701 L 62.49621378257871,66.23102023941465 L 62.63225419353694,66.44229131750762 L 62.418857427313924,66.9092519369442 L 62.02407345734537,67.37488225684501 L 61.06378805823624,67.65749777317978 L 60.34890892263502,68.48922783904709 L 59.055191094987094,69.33312095561996 L 58.54570633545518,69.78537174733356 L 58.31630482058972,70.54319394356571 L 58.110910444520414,70.54319394356571 L 58.033554122783244,69.4125329751987 L 57.71345898974687,68.50134077947587 L 57.03592428844422,68.04913151171058 L 55.87291196733713,68.28330948599614 L 55.12602333445102,69.07335257646628 L 54.944636098109186,71.25932675972581 L 54.50984020717442,72.12358146160841 L 55.87291196733713,73.1938783803489 L 56.078306342475116,73.59105375781655 L 56.3183777006343,75.75889167562127 L 55.68618982564658,75.1165833750274 L 54.95797339361161,75.06002935301512 L 54.04570227302611,76.34467097604647 L 52.98138592764735,76.7958055601921 L 52.74131460208446,77.46378160687163 L 52.85334787424654,78.18835744261742 L 52.74131460208446,78.4698481396772 L 51.725012534298,79.27125335927121 L 51.34890076611191,79.94474006048404 L 50.724715248681605,79.65917757502757 L 50.37261061836034,78.9426041173283 L 48.910842817276716,78.34055025153793 L 48.446704883128405,78.4698481396772 L 47.89987572096288,79.73460859037004 L 47.49175442196429,79.98110931064002 L 47.10764026269317,79.39517239085399 L 46.50746188405901,79.02880640188232 L 46.34741430077702,79.804652037099 L 45.75790576636791,80.50510679837316 L 45.65120739955455,85.36081008985639 L 45.09104090835899,86.65048542059958 L 44.62156803626567,85.72465548594482 L 44.418841145932674,85.72465548594482 L 44.306807841174304,88.13033226178959 L 44.082741231657565,88.46055783587508 L 43.45855574682355,88.28398719686083 L 42.50627270620316,87.6774651214946 L 41.93810385745019,87.78124578297138 L 41.93810385745019,87.55481632938609 L 41.71403724793345,87.55481632938609 L 41.78605866525322,89.70605551730841 L 42.74367661122233,90.81686021806672 L 41.04183748550713,91.39926208043471 L 40.88979229237884,90.66047902056016 L 39.353335654363036,90.16708176909015 L 38.50241610780358,89.38253811863251 L 37.99026389513165,89.20999878831208 L 37.664833824150264,89.6103474246338 L 37.440767247229815,89.6103474246338 L 37.21136573329568,89.00376344099641 L 36.98729912377894,89.0320700572338 L 36.76856745220721,89.36366650206037 L 36.54450087528676,89.36366650206037 L 36.54450087528676,88.93232317641377 L 35.86696617491543,89.01050309021957 L 35.29612984042615,88.74091915879399 L 35.09873785544187,88.38912055967376 L 36.11237243749201,87.98072261060588 L 36.22440574225038,86.79738438269123 L 36.42446518037468,86.30143850948662 L 36.43246757052839,85.40123685472645 L 35.88297092355788,84.04296540468931 L 35.189431473612785,83.15908605442382 L 34.751968131400645,83.69129291945137 L 34.551908660680056,83.69129291945137 L 34.43720790371299,83.17794870189391 L 34.085103273391724,82.76567090349272 L 33.559613765217364,83.2385788813699 L 32.95943538658321,84.3703930284828 L 32.11651819758117,84.70321875624359 L 31.879114292562008,85.1856288453564 L 30.662752787582576,85.52656063949689 L 30.358662435784936,86.21518895798363 L 30.358662435784936,87.63298796233721 L 29.859847518615425,88.603433533106 L 29.192982628010213,91.70665144664235 L 27.797901372425258,95.94479442876764 L 27.749887093901634,96.66365246032365 L 28.134001253172755,97.50664322660305 L 28.328725785948336,96.57463591988198 L 29.36636750679463,95.28801235370338 L 29.555757134221494,95.9542350852862 L 28.470101134851575,97.09795427904464 L 28.694167744368315,97.75617934158072 L 28.694167744368315,98.45490675512701 L 29.14230092987418,99.81335510546342 L 29.078281903639436,100.54187880503014 L 28.470101134851575,102.3053526270669 L 28.606141578406096,102.60761049157009 L 29.478400811553,103.42401357623748 L 29.833172894082963,106.43235308746807 L 30.553386967629194,107.57028942275792 L 30.854809867218137,108.87844036193565 L 31.908456369303167,110.56615046551451 L 32.17520228587091,110.72548252576962 L 33.191504353657365,110.52294215210713 L 32.99677982181311,111.25480411318131 L 34.085103273391724,112.55930337426253 L 32.48462760914117,111.99211231642403 L 32.164532476104796,112.2527468004264 L 32.07117137219757,113.11571692652069 L 32.471290312707424,113.47496858611703 L 33.25552338082343,113.5087333752308 L 33.78101288899779,113.77480343380012 L 33.412903477437794,114.82563564972952 L 32.02315712720156,116.8438188501168 L 31.823097656480968,118.3380911918357 L 32.39393395744264,118.01922508212738 L 33.412903477437794,118.90558619890362 L 32.807390194386244,119.21907140687108 L 32.79405289888382,119.73255669651553 L 33.823692228645086,121.89755128812976 L 34.277160353027284,123.96562001178972 L 35.20543622225523,125.75013429694809 L 35.78694236651063,128.6843724527862 L 36.245745396241546,129.60536542721093 L 37.2167006386444,128.92509468854405 L 38.66779856290668,130.18964649294503 L 38.582439882680774,130.51426013512537 L 37.440767247229815,130.51426013512537 L 37.10466733388603,131.19597919518128 L 36.44847231917083,131.4638086524792 L 36.720553173683584,132.0197780772578 L 37.32873394340277,132.4783720835112 L 37.664833824150264,132.46349116251804 L 38.112967010587454,133.13585816929117 L 37.440767247229815,134.166809133254 L 37.97692659962922,134.19522250862792 L 38.080957513302565,134.4712420059368 L 37.86489329487085,134.82845380203798 L 37.440767247229815,135.09637019014917 L 37.664833824150264,135.30340089951642 L 38.67846840620041,134.7716238964349 L 39.0892571574077,134.8568688633386 L 39.25463964603841,135.4265386215411 L 39.80413629300892,136.05848673474975 L 38.337033620104194,136.4577016234398 L 38.112967010587454,135.9840584215708 L 37.91024008765817,135.9840584215708 L 37.91024008765817,137.12083608913235 L 38.18498842790723,137.3996350823436 L 39.00923338253051,137.5755798383616 L 39.465368959121406,137.90176173043437 L 40.3696376895532,139.39203497767448 L 39.25463964603841,138.27532629249617 L 38.96121910493821,138.33217416936532 L 38.641123971901834,138.81810022867285 L 38.06495273206383,139.19304949860089 L 38.329031229019165,139.77783345174976 L 39.25463964603841,140.75254265987314 L 39.61207921337336,140.39649300673045 L 40.14557111263275,140.54811728233472 L 39.95884893834591,140.76878854003735 L 40.44966149702668,141.12620420847088 L 40.59370429906994,141.47550807520747 L 39.99619337357581,141.80857563437894 L 40.663058230653405,142.71440846659243 L 40.92180182226002,142.89585489663295 L 41.6500182216987,142.88502218341455 L 41.93810385745019,143.04751394758932 L 42.01279272697866,143.3887545200996 L 41.33792547881603,143.48896213434637 L 41.26590406149626,143.2939644039143 L 40.913799432106316,143.75167294358835 L 41.04183748550713,144.4084778262768 L 42.498270347714424,146.92908340040594 L 42.96774318814278,147.46009763260372 L 43.86400956008583,150.0166496366728 L 44.87497668992728,152.21059824270196 L 45.21374405641109,154.335869359551 L 45.720561331138015,155.57761670998298 L 45.75790576636791,156.2948063951917 L 47.16657801810652,161.28510950133204 L 47.197067086584866,161.95697843353264 L 46.73634347785264,164.05125198001042 L 45.89281278848648,164.95594521868043 L 45.77424422465265,165.38160961703397 L 46.06558413337916,166.8138338800054 L 46.39080075547099,167.5705297505483 L 47.840725040994585,169.50130862207152 L 48.46744463779032,170.0659588931594 L 49.71749615482986,170.2771721102763 L 50.50004870817065,171.56610005465336 L 50.93705863598734,171.76268689963035 L 51.875444144010544,171.5393714280799 L 53.20002450980246,172.08947798144072 L 53.44393699336797,172.36368032731116 L 53.701400155201554,173.78999888664111 L 53.44054931495339,174.46873607346788 L 53.3897342113778,175.2208345036488 L 53.59976998157799,175.93158539244905 L 54.08759494777769,176.54318255838007 L 55.84240982029587,176.1299837254919 L 56.12358672730625,176.53628141619265 L 56.557208945043385,177.8415503881406 L 57.09246133733541,178.39114366285503 L 59.009884553961456,179.54996300069615 L 59.77549874968827,180.87807120359503 L 60.79518846236169,181.2983743089717 L 61.01877491082996,181.57369566638954 L 62.01136326510459,184.56044038804248 L 63.49177655391395,186.58694485318847 L 64.38612237945199,188.67606419650838 L 65.97832890879363,190.54534472781233 L 66.41533877141774,192.5109037628863 L 66.7236170694232,193.047507353127 L 68.07191111519933,194.56416050437838 L 68.49537029862404,195.78543814248405 L 68.47843194194138,197.92240800103173 L 68.77993488498032,198.47401913651265 L 69.31518727634102,198.81468555447645 L 71.43248322885484,199.04814434191212 L 71.82206566538662,199.368078867672 L 73.92919858451933,202.22030660160817 L 74.6880374243483,205.2360808767844 L 74.62028399668634,205.55796033819206 L 73.43459826242179,206.12387256743386 L 72.43862226232886,207.15021862881258 L 72.19809742458165,207.89105952670798 L 72.81465402059257,209.93041427992284 L 72.85191841237247,210.61434124805965 L 72.62155660800636,211.18403130862862 L 72.17438371200114,211.59270642511547 L 71.55105179175735,211.79531919793226 L 71.02935007959604,212.2767592445016 L 71.13775564171374,213.20680791465566 L 71.92708355095237,215.827742572641 L 71.79157659690827,216.12227758439258 L 71.1682446775958,216.24182691820897 L 69.32196266483516,215.63196882908233 L 68.86123905610293,215.7445815000683 L 68.74944581557065,216.3423188936431 L 69.50828465633094,217.22773680952378 L 69.56587514840066,217.6852083252743 L 68.96964461915195,219.03696626634337 L 68.93238019477576,220.3681293022819 L 68.02448369003832,221.75670439982787 L 67.82461095415056,224.26397525938228 L 67.60779982898384,224.99756552604958 L 66.86251166835427,226.3435083301738 L 66.7236170694232,227.03390498063527 L 67.28597085177898,228.451298056636 L 67.38760109152645,229.90709950891323 L 67.25548178330064,230.72793952887878 L 66.94381583947688,231.1930590174161 L 64.96541451849043,232.3906837454997 L 64.18963732197881,233.33327971864492 L 63.11235714983195,233.7395132307429 L 62.78036513924599,234.99131979909725 L 61.39480666909367,235.48271700087935 L 61.05603933520615,236.0601014951244 L 60.94424609467387,237.99657904636115 L 59.78227407298982,239.3801719925832 L 59.558687657117844,240.74748498783447 L 59.05731197912246,242.07418170408346 L 59.091188692487776,242.51298473076895 L 59.521423232741654,243.50189620163292 L 59.44011909328401,244.15804862137884 L 58.989558486267924,244.80642991582863 L 57.09246133733541,246.27112269680947 L 56.9332406707108,246.94488090486266 L 57.397351956926286,248.4942974636797 L 57.38380127865821,250.74764225422405 L 57.77677139360458,251.31129206856713 L 58.403490957804024,251.54963707900606 L 59.70096993353218,251.69577906792983 L 60.17524422053248,252.12465112190694 L 60.27009907178581,252.70579543872736 L 59.70096993353218,255.11084874742664 L 60.16508118715137,256.06123132957146 L 60.056675624102354,257.03261601156555 L 60.19557025562972,259.3631944570225 L 59.02004755474627,264.58223027107306 L 59.03698591142893,269.0653747320175 L 58.667729509063065,269.646869844757 L 57.604000016115606,270.67919438588433 L 57.353312210179865,271.223311631009 L 56.98066809680313,272.8375727965031 L 56.98744348529726,274.30473627033643 L 56.669002152979374,274.6911989815999 L 56.03889491036534,274.90930147771724 L 55.59849730413407,275.82016326114535 L 54.270529326051474,276.9903054307215 L 53.53879184368998,278.37358609214425 L 52.49538841843605,279.6383906570263 L 52.24470057990402,281.02738228742965 L 51.91609624680132,281.57658731541596 L 51.340191752649844,281.94769394607283 L 49.85300307534635,282.4917248976417 L 45.96395392622799,285.45444361004047 L 45.22205344308168,286.2451030672528 L 44.43272550217807,287.8170547916088 L 43.23348908871412,287.7471445284318 L 42.37640768662095,288.6857430548407 L 40.973910859785974,289.2940586609766 L 39.21232066396624,291.4602679894306 L 36.93241640087217,296.15935413050465 L 36.102436389774084,296.55042113456875 L 35.397800298407674,298.5751980179921 L 34.96756575908512,299.24295236635953 L 31.010763116180897,303.09486923902296 L 29.235622208565474,305.93781991652213 L 28.97477136924863,306.59660230670124 L 29.096727610565722,307.2563199461438 L 28.54114915151149,307.9432604154572 L 28.524210794828832,309.8765028412454 L 27.524847116321325,312.14516697474755 L 27.53162243962288,312.58706029271707 L 27.958469334058464,313.55160350864753 L 27.782310311682522,314.2917583186645 L 26.76862784102559,315.35722885094583 L 26.518708082847297,316.15826714155264 L 26.667765715159476,316.8179760489147 L 27.348688093945384,318.005955506349 L 27.51129643805325,318.63073250465095 L 27.067511218599975,320.0375576566439 L 28.320950381457806,319.97875155182555 L 28.893467197194695,320.24821029859595 L 30.5364888291806,322.39458817755803 L 30.932846622541547,322.48414439498447 L 31.67813481669873,322.3612244038377 L 33.88689794111997,321.2488951124251 L 34.11725971288979,321.31649029580876 L 34.198563884943724,322.0583235612139 L 33.63282242510468,322.6149686826393 L 33.836082838475704,323.08472672011703 L 34.34084619395435,323.4754837229848 L 34.26970505621284,324.62943985057063 L 34.48312847036868,324.77786946180277 L 35.66203884873539,325.03257835283875 L 36.81384780444205,325.57276724884287 L 38.15536652691662,324.8920481847599 L 38.63980381563306,324.35718062054366 L 38.748209377750754,323.6177421568427 L 39.61206613574177,324.6153875212185 L 39.910181399434805,326.20699279149994 L 39.84920326247811,327.9210920156911 L 39.08020138926804,332.9885172673967 L 39.147954849526286,334.9329567051027 L 38.96840818133205,336.7486090923194 L 39.0598753541708,337.54574610455893 L 40.08634042274207,340.9728982904926 L 40.16086923889816,341.5926783157047 L 39.89663068763912,343.8416113080457 L 40.39461872074753,345.77765884133987 L 40.17103223968297,346.4577839882113 L 39.29023715853691,347.73011747398414 L 39.188606918789446,348.1830692377407 L 39.47994686011225,348.4562648627907 L 40.60126677993685,348.12490643560886 L 41.55320303235203,348.30292147002183 L 42.37302004173398,349.2794433205854 L 42.85068197455257,350.5293850041926 L 43.53499203082174,350.8661506709177 L 46.11978691443801,350.6281208670698 L 46.926053180359304,350.0568834762089 L 47.43081653583795,350.1256409853231 L 47.71876879967749,350.3336807640735 L 48.643603628501296,351.4938843110576 L 48.68425576388836,353.01232418208383 L 48.89429149962962,353.684356223559 L 50.22564718872309,355.392078431556 L 50.869305143132806,358.9677080924157 L 50.84220375213772,359.58913816022687 L 50.276462292298675,360.42780757136643 L 48.904454501345754,361.52794912434183 L 48.77911058161408,362.69186080037616 L 48.0948005579412,362.11782721360214 L 47.823786684311926,361.57033384707756 L 47.54938513226807,360.1576561992988 L 47.10898755863309,359.347267847741 L 45.13058627024293,357.7656172050629 L 44.15154862776399,356.28668901883066 L 43.62645923625678,355.89495137450285 L 42.99973963946104,356.34492227621377 L 42.31542954966426,359.3154899496585 L 41.89197039883584,360.3077389514074 L 41.85131832957268,360.6803118912503 L 42.230737732723355,361.75400398275815 L 41.963111503981054,362.3739283657633 L 39.754348412156105,365.41080717300065 L 39.869529297575355,366.45522279758006 L 39.66626888420433,367.1127064586617 L 39.19199459627271,367.7419728054665 L 38.05034864228219,368.53394431155175 L 37.59640038944781,369.1881000394933 L 37.20004259701818,370.5089866251219 L 36.22778030950576,371.2694573896006 L 36.163414526730776,371.87789780739695 L 36.81384780444205,373.0984872758854 L 37.82676219381392,373.5779408661183 L 38.22311998717487,374.0008093176875 L 38.32136251591146,374.38123752200045 L 37.4642811473459,374.96519396291114 L 37.321998838335276,375.37753426795825 L 37.40330301038921,375.86423575808294 L 37.66754156071693,376.0288375855889 L 38.45348179154098,375.6253049832303 L 37.95888146944344,377.071413340047 L 37.13906445913017,377.5246056544129 L 36.81384780444205,379.05082313576713 L 35.55702096410096,381.145977422595 L 34.95740275736898,381.7447184531484 L 34.367947552353144,382.1256035261322 L 33.707351240329444,382.31871207617223 L 32.09820632264018,382.35591710172594 L 31.52907715179026,382.5330870223697 L 31.081904287450016,382.96894593164325 L 30.641506713815033,383.7468329311814 L 30.93962201103568,384.17214144277386 L 30.909132942557335,384.4379736650735 L 30.055439218878746,384.44329041219316 L 29.984298047609627,384.7392635771539 L 30.40436958707869,385.43228430324234 L 29.659081425517797,385.9481108188629 L 28.50388475973159,387.6341447834857 L 27.36223877221346,388.439202059526 L 24.296394278295338,391.45996553706937 L 24.364147738553584,393.05341044673696 L 24.1676626810804,393.5396866311785 L 22.856633059680462,394.18397172307596 L 22.423010841943324,394.6472588607576 L 20.98663730174303,397.7633547859732 L 20.695297360420227,398.09725084132515 L 19.0895401192829,399.0031226982828 L 13.371147281490266,404.4944637003355 L 13.16788686811924,404.972742816899 L 13.0527059501037,406.15882159932517 L 11.978813488036394,407.18860126892105 L 11.640046121552587,408.04777209647 L 10.644070121459663,409.2735881882254 L 11.3961336389184,409.3767885568086 L 10.952348419465125,411.00865247217007 L 12.08383134007454,413.1608160813339 L 13.198375936597586,414.0510974221397 L 12.08383134007454,416.9471939166542 L 11.236912972293794,417.23848307458684 L 11.3961336389184,418.24340457236394 L 11.01671416964382,419.2493841762189 L 10.911696317605674,420.1557112496812 L 8.736809939146042,423.4533258199226 L 8.82827711198479,423.77792533743195 L 9.319489788264036,424.0026583841536 L 9.566789949312806,424.5350952236913 L 9.583728306926787,425.1665892561432 L 9.38046789355576,425.68485661782324 L 7.290273364633322,426.6091074941214 L 6.8566511468961835,426.4422678309493 L 6.2468699384480715,424.78393872315064 L 5.799697009846568,424.26931681344286 L 4.427689251489937,425.19513293588534 L 3.7738682627677917,425.8614881171379 L 3.3165323650464416,426.62695157085545 L 3.0048663895577192,429.03550121490844 L 2.171498733572662,430.34146927739494 L 0.9078965047374368,433.0936021627858 L 0.20326041337102652,433.75459037860855 L 0.0,434.14407214405946 L 0.9417732506990433,434.02615292626433 L 1.229725481942296,433.83498590020463 L 2.137621986679733,432.23800013028085 L 2.4933277098461986,432.01295627560467 L 5.183140445500612,432.073681532871 L 6.456905675120652,432.6890066524502 L 8.736809939146042,434.21285941055976 L 9.373692570254207,434.4245863489341 L 11.108181375078857,434.37634408660233 L 12.923974385485053,434.83198110363446 L 13.384697960689664,436.6209203135222 L 12.778304398059845,439.40102199674584 L 12.497127523645759,442.07867585588247 L 12.093994374386966,443.36427872721106 L 12.192236903123558,444.5535128088668 L 12.053342304192483,444.9920427452307 L 10.176571157760918,446.69456883589737 L 10.044451914727688,447.10819162917323 L 11.535028236918151,448.447744613979 L 11.768777718767524,448.98598130908795 L 11.982201133854687,450.31790746422485 L 12.337906857021153,450.9683073759079 L 14.373898604884744,452.546235723421 L 15.058208694681525,453.57422794774175 L 15.115799120627344,456.914010763634 L 14.875274315476418,457.5696442434564 L 13.526980269700289,458.92509831208736 L 13.655711834318936,459.29743376025 L 14.648300156928599,459.44637471437454 L 14.905763383954763,460.130117706256 L 14.150312189012766,461.38027019100264 L 13.62522276584059,463.48003370757215 L 14.716053649783134,464.98329317127354 L 16.084673763252795,466.32525009755045 L 16.301484822295606,466.8328338454012 L 16.047409337945282,467.63877326529473 L 16.010144913569093,468.96608484187163 L 16.298097177408636,469.3948097222019 L 17.517659625969827,469.5745783278253 L 19.55703908391297,470.6047637052834 L 20.5868918299675,471.6800982437562 L 21.532052727416158,471.8815217174124 L 21.714987073093653,472.9373152446933 L 21.41009645257145,474.8335689289961 L 21.84710631519556,477.11388709791936 L 22.063917440362275,477.58734598220326 L 22.75500282086432,477.7493754301686 L 23.64934864640236,476.6926686267834 L 24.076195508241653,476.5486696406733 L 24.909563196823,476.6872686082497 L 25.593873221427202,476.3011801496614 L 26.898127519525588,475.0998877193779 L 28.249809242784977,474.6194434578065 L 28.402254552580416,474.2784790780861 L 28.4429066227749,473.1999456672929 L 29.045912506990135,472.77182844048366 L 29.87250487320125,472.95170561689883 L 31.332592093385756,473.6523825735785 L 35.668814172036946,473.57412544754334 L 36.81384780444205,474.1858195627574 L 37.28134676814079,474.23439812706783 L 38.15536652691662,473.42211190308444 L 38.71772030927241,473.1603704111185 L 39.23264669906348,473.74503321782686 L 40.87228068616241,474.3171626266558 L 41.70564834214747,475.30683349166065 L 42.28155286889523,475.56597638409585 L 45.81828397233039,476.2120866414625 L 47.73909483384341,477.711568138795 L 49.18224373087287,476.92757495329715 L 50.22564718872309,475.5839728564024 L 50.737185867503285,475.69375268835574 L 51.90932089090347,476.55946948286146 L 53.17969844210893,477.0679835365154 L 53.6336467275396,477.461326364195 L 54.06726891268045,478.2156866036821 L 54.32473207451403,479.0835980689153 L 54.01645380910486,481.2377594956197 L 54.480565062724054,482.1872263720725 L 54.22987725678831,483.49098315439187 L 54.58897062484175,485.8857637976762 L 55.23262857925147,487.0776853931602 L 56.445415704511106,487.9875793962274 L 57.888564601540565,488.56569780875 L 59.23008329141885,488.766836024588 L 59.86357824411243,488.70550160016865 L 61.787776784040034,488.03988714003935 L 63.06154201366007,486.9739905267488 L 63.728913713246584,486.63586875936016 L 64.56566904764622,486.76750836730935 L 68.50553333293647,488.0011072005145 L 70.01643568929285,489.3847284950316 L 70.765111528337,489.82315888861194 L 71.10049121733755,490.4222236671485 L 71.27326256223023,491.3028963864781 L 71.0462884362787,491.8615116842557 L 69.97578362002969,493.02495145075954 L 69.60652721766382,495.0599912907928 L 69.32535030972213,495.70479078404605 L 68.11933854036033,496.9810702493414 L 67.82461095415056,497.5709885226097 L 68.45810590777546,497.8022757603321 L 70.52119904570282,496.51044660340995 L 73.03824046906084,495.67227803869173 L 74.29506730940193,495.7120158378966 L 75.40622422751039,495.168355579488 L 77.25758780632168,495.8041364445817 L 79.26309051830322,495.9233536608517 L 79.83899497892708,496.12115171412006 L 80.39118576049805,496.6423254618421 L 81.12292324285954,498.47451066295616 L 81.49556732363999,499.0148892952129 L 82.81337233353406,499.6547388250474 L 84.75450923014432,500.0 L 85.2541910847649,499.69450601376593 L 85.65901805646718,498.727524029091 L 86.35349111445248,497.9721336646471 L 87.56627823971212,497.75348776904866 L 87.99990042485297,497.4860652361531 L 88.63339537754655,496.4743159885984 L 90.06976891867816,495.5521631864831 L 90.0037093134597,494.3439384663943 L 90.19003133755177,493.6577723904047 L 90.63720423448831,493.113415556727 L 91.22835326287895,492.8019921903033 L 91.81442075781524,492.8037974764593 L 92.31240878999233,493.309305512812 L 92.29208272323012,494.67170374211855 L 92.69860358256847,495.0166461968329 L 93.6708658374846,495.38418759428896 L 94.04859145078808,496.6423254618421 L 94.69394322764128,497.47522404626943 L 95.67298087105155,498.14018985209987 L 96.86205428373069,498.4148735420313 L 98.1019427664578,498.07513521797955 L 98.7591514326632,497.3406146019697 L 100.63422872405499,493.1892431161832 L 101.47775941435248,492.06638175528497 L 101.92662613280118,491.1115906354971 L 102.73289243131876,490.69471167377196 L 103.08521047700197,490.20929550169967 L 103.62385057937354,489.8745820366312 L 104.16249064914882,489.68062004167587 L 104.72823210898787,490.31575856148265 L 104.79937328025699,489.970212362241 L 104.86204523965716,488.1724623898044 L 104.62490808032453,486.77832817984745 L 102.96325423568487,482.0719123587478 L 102.67868965025991,480.29566077445634 L 102.36024835053831,479.7607355490327 L 101.18641950562596,479.1286179078743 L 100.95605770125985,478.81708792434074 L 100.59865812212229,477.8474955786951 L 99.38587102945894,476.224685637746 L 99.24358872044832,475.59117147536017 L 99.39603403117508,475.1151834905613 L 100.16334208194166,473.99870599713176 L 100.54445537365973,471.7160661974922 L 101.74707946553826,469.9871690887958 L 101.95711520221084,468.3324948125519 L 102.36024835053831,467.9110397910699 L 103.87961991876364,467.1329137631692 L 104.81969928275794,466.8525991027709 L 105.38882845360786,466.89033294981346 L 106.02232340630144,467.94518634933047 L 106.71171496342868,468.46549784904346 L 107.57218401040882,468.5086346324533 L 110.24336456693709,467.47523999772966 L 111.49680376145989,466.43125494150445 L 113.31429059337825,468.3127243514173 L 115.16904181800783,470.7692872749176 L 115.65347910672426,470.9931550147012 L 119.67634141910821,470.8897611685097 L 120.38944665621966,470.62004709010944 L 121.82920790743083,469.7246895332355 L 122.733716734685,469.3822261360474 L 123.67887759860605,469.3067251769826 L 125.38965275604278,469.6419930367265 L 126.4093424687162,470.15706824092194 L 127.40193079132587,469.7615437679924 L 127.66278163064271,469.48649095837027 L 127.94734621606767,468.6820838570129 L 128.01509967632592,467.83466004487127 L 127.84402218740433,466.84900541137904 L 127.40193079132587,466.0791109185666 L 126.64986727386713,465.8725060590077 L 125.91474211402237,465.4009363078512 L 125.42014182452112,464.1642635082826 L 125.24228894617409,462.74561143666506 L 125.44216168206185,461.7114766193554 L 126.21285741124302,461.4350211308338 L 126.51774799916893,461.0077982621733 L 126.46015757229179,460.4190732243005 L 127.12752923928201,457.5158274383284 L 127.02589903213084,455.48013093788177 L 127.31893279682845,454.12549410248175 L 130.01213320996612,451.4207638921216 L 130.29161629453301,450.3949482620228 L 128.89928250201046,449.04061378748156 L 128.35386704374105,447.41081755119376 L 127.22746562305838,445.9649814704899 L 126.96492092777044,445.3428905403707 L 127.08687717001885,442.6020081387833 L 126.33989515341818,440.33278510253876 L 126.51774799916893,439.70414169318974 L 127.2884437283501,438.9280435042456 L 127.46290889568627,438.3800084574614 L 127.2867499049753,437.854372005444 L 125.95539421681315,436.4135827952996 L 124.86625718791038,435.8255705309566 L 124.68501666467637,434.3361425027251 L 124.24970059189945,433.90644944342785 L 122.14595538377762,432.7354488724377 L 121.71402702201158,431.56021533277817 L 120.7603969136253,430.57269928441383 L 120.58593171369284,429.87992896162905 L 121.26516027003527,428.6597425953951 L 122.28993148263544,427.68341667880304 L 124.36318768747151,426.7179572824389 L 124.68671048711985,426.2566976931412 L 123.85842433199286,425.16123737674206 L 123.80083387251943,423.59332949877717 L 124.1700902748853,422.6606277858373 L 124.81374822929502,422.1551032876596 L 124.92892914824188,421.8528788627591 L 124.23445609025657,419.3919634982012 L 125.00684564188123,416.9596647582948 L 124.7561578033492,416.5125132291578 L 123.27405065950006,415.5078786590602 L 121.76145444717258,412.8439072628971 L 120.89759769011289,412.0873095996212 L 119.86435726564378,411.508798193885 L 119.62044478207827,411.1492587008979 L 119.49848854076117,410.45337841659784 L 119.60181260295212,409.278926118277 L 119.42226586956531,408.8394540785812 L 118.74981270171702,408.54767626314424 L 118.45169743709266,408.1473939041607 L 118.79046477098018,407.5336782147642 L 118.23488634452224,406.99472630862147 L 118.30433362722397,405.6680027071852 L 118.07905335631222,404.7807155107148 L 117.39474330004305,403.22338114958256 L 115.84488269593567,401.20618422538973 L 115.85673955269158,400.4456845112145 L 116.37844126485288,400.038819815265 L 118.98694986198097,399.54670896637253 L 120.21667531132698,398.82549040880986 L 121.20926366560161,397.7633547859732 L 121.76145444717258,397.64258824358694 L 123.92956546973437,396.59308335301466 L 124.41739043593407,396.96420796005987 L 124.97635657340288,397.76513080112636 L 125.05766071286052,398.2748624321539 L 126.21963276714087,398.7064795643091 L 127.68988305423409,401.0782431878615 L 131.30453065223992,404.06599971605465 L 132.17177505418658,404.2686719177291 L 132.83575907628983,405.32303023920394 L 132.11079694982618,405.50084869773127 L 132.31066968571395,405.7960386413615 L 132.7646179050207,405.9489739688579 L 133.75381858181208,405.9436389284674 L 134.456760850735,406.5429679644294 L 134.94289196189493,405.4884012048133 L 135.42394163738936,406.36334097082727 L 136.07098727021366,407.0374138369225 L 137.82580211013556,407.95882546389475 L 137.09745233878493,408.5583507963456 L 138.07987762708217,408.92841346608475 L 138.293301041238,409.2237679611426 L 138.52366284560412,410.57439537672326 L 139.27233871724457,410.1010191051755 L 139.91091517079622,411.14391917479225 L 140.44616756308824,411.4945586193353 L 143.48999219946563,412.09264998463914 L 144.40297020506114,415.04302426450886 L 144.69261629041284,416.5080596974585 L 144.96024248655885,417.13693112740293 L 145.5005764113739,417.65450746333227 L 145.70553068071604,417.65450746333227 L 146.0138089461252,417.2687708113808 L 147.29604335408658,416.9151262349915 L 148.5613394053653,416.18117920844816 L 149.23379260580987,416.39761308254674 L 154.94371626526117,422.4912232887 L 157.40316722914577,422.3637272857595 L 158.006173113361,422.0249398739543 L 158.64983106777072,420.3615921312012 L 160.01167582534254,419.39909252664074 L 160.78067769948393,418.3601216869429 L 162.42369933146983,416.8919663748238 L 163.4010431524366,416.39494103449397 L 164.38008079491556,416.45550822932273 L 164.9949435358867,415.6717438781634 L 165.88251397386193,414.9183566858992 L 166.97334482427686,414.3520419956185 L 168.17088741529733,414.12410631310195 L 170.97249339148402,414.1134219884407 L 172.02436602767557,413.573890452506 L 172.44104985613376,412.19945818115957 L 171.88208371866494,409.63479697401635 L 174.0298687070608,408.67221386777237 L 174.75483083352447,408.576141749043 L 174.25345515552908,409.9533189460635 L 174.42961421143264,410.4800731148571 L 176.540134774521,411.34326501050964 L 177.7427588328719,412.4558054632507 L 179.63816219288856,413.5026687094942 L 179.8397287502885,413.8694694924634 L 180.32077839411795,414.15437851892784 L 183.13593504857272,415.42594770737924 L 183.67118744086474,415.53637664183043 L 184.26064264588058,415.3849826459773 L 185.27355703618377,414.7242365896236 L 185.8189724618569,414.5746436866466 L 186.3914892775938,414.7972535244189 L 187.54329826589674,416.3423905465752 L 187.27228435873985,418.3601216869429 L 187.4857078064233,419.4472138711717 L 188.18865007534623,419.9863772345707 L 188.06838765647262,419.76535899797454 L 189.2998069608584,420.3544619306922 L 189.69108325336128,420.86696590599604 L 190.09421640262008,422.75692296773195 L 190.66165171843022,423.7324446788989 L 191.21892399992794,424.00800926284865 L 194.11369100492448,424.6403396211099 L 194.83018395211548,425.04438819969073 L 194.86744837649167,425.3592617288232 L 194.66757564153522,425.6438217635732 L 193.02116629853845,426.70903506688774 L 192.81790588516742,427.3925132097211 L 193.1482040733099,428.2313532207627 L 193.6953133214265,428.9266090900637 L 195.20621571037918,429.80672859656624 L 198.1534916413948,430.350396938622 L 200.5519644683227,429.67907637753524 L 201.4632486179471,429.73977778246626 L 203.13675935193896,429.45234429463744 L 205.04910103511065,428.93374950415455 L 206.08064760454,428.15817310404964 L 207.94725571759045,427.3041741766501 L 210.29491344094276,427.0784247335978 L 211.41623332817107,426.7875507667195 L 212.4223723942414,426.179973235121 L 213.2642092620954,424.9997898810543 L 214.03490495774895,424.92843328323215 L 214.97667817678303,425.99530331394635 L 215.60847930796444,426.41907126572914 L 216.32835993357003,426.60553871281445 L 217.1210755193606,426.52524100546725 L 217.9273417852819,426.1032497624401 L 218.53712302539498,425.4359756540507 L 220.1682878015563,422.54650213592686 L 221.93665338587016,418.40288881841116 L 224.41981806326658,415.99948754999787 L 224.83819571323693,415.41526116407476 L 226.78610796574503,410.7772821674589 L 227.3518494265154,410.18287852569483 L 229.48438991233706,408.8946087807417 L 231.32897813618183,405.9471956100315 L 231.76768185384572,404.7807155107148 L 232.74163796380162,403.6162333341781 L 233.69865574967116,402.73812758154236 L 239.39841637574136,399.8380623154808 L 240.95674619078636,398.84858229989186 L 241.99337429273874,397.4596669464372 L 242.4981376491487,396.47233944316395 L 243.90910362172872,395.28100581350736 L 244.78142955712974,393.13682013517246 L 244.62220889143646,387.4036405447405 L 244.47315129172057,386.63594451197423 L 242.35585533920676,381.5994566339068 L 242.1932469960302,380.8377715740353 L 242.4981376491487,377.69279057276435 L 243.0469407523051,376.2323833620176 L 242.73188709840178,373.84510559681803 L 243.4602369023487,370.64162048511207 L 242.6082370011136,367.5599036011845 L 242.45748554635793,366.09292788105085 L 242.6573582822457,364.6227452135645 L 243.00628864951432,364.02204369357787 L 243.5821931436658,363.53445560182445 L 245.4216998666525,362.5311263652984 L 245.967115258798,362.06484203902073 L 246.75305552221835,360.96284563909285 L 247.68974727299064,358.62347492203116 L 248.87035147473216,357.8538690644782 L 250.02554810792208,356.7543338329997 L 251.21123384218663,356.00611783913337 L 251.5686333887279,355.3550261319615 L 251.6787327742204,354.61578724579886 L 251.77189380209893,352.2010361708235 L 252.09541663434356,351.3880824188236 L 252.60864916909486,350.69688418041915 L 253.30312222708017,350.1591384767089 L 258.47948731668293,348.2958712382242 L 260.1614672290161,348.1795442341827 L 263.9759875619784,347.20494268788025 L 264.5383413443342,346.90007796371356 L 264.5993194812909,346.63575540692545 L 264.40960974711925,346.3837774160784 L 263.37298167776316,345.9080402718391 L 262.5853475583717,345.0218480117619 L 262.5243694540113,343.81519044493325 L 262.9156457465142,342.54534694110043 L 264.2097370112315,339.7387866182253 L 264.56883041281253,339.19838214223273 L 265.3869535671547,338.5506566269323 L 267.92601484805346,338.50313566671684 L 269.33867470920086,338.02266441704705 L 270.7936804620549,337.07237996929325 L 271.71173996757716,335.72812592005357 L 272.04203812312335,334.1150124182459 L 271.7100461451337,332.3695060000755 L 270.9037798140198,330.25877277972177 L 270.7106824675575,328.0783777567558 L 270.51080969907343,327.4677069953177 L 269.9891079859808,326.94318737112917 L 268.8237483194098,326.20347891538404 L 267.29590757284313,325.71243248996325 L 266.6420866176486,325.28114797500893 L 266.35413432121277,324.53019577404484 L 266.5455379113555,323.90841483301483 L 267.0604642685503,323.57383488840424 L 267.7278359681368,323.4508961017709 L 268.994825841859,323.5896414627787 L 269.21671846788377,322.71682009729557 L 269.1896170442924,321.80196532513946 L 267.22137875668705,320.393037564354 L 265.88324771169573,318.97912198421545 L 265.5986831597984,318.50700128939934 L 265.24975279159844,317.08994807698764 L 265.24467129074037,316.32757497252896 L 265.51737898774445,315.7644006058108 L 266.23556575737894,315.6240524589084 L 267.0367505559698,314.7925457942765 L 267.7769572157413,314.7925457942765 L 267.88875042367727,314.10758948582225 L 268.8474620319903,312.72910314402543 L 269.2607582146302,312.40994901559316 L 270.14324715174735,312.235472375527 L 269.8315811753273,311.7874635157641 L 268.532408378087,310.95639694994316 L 268.2122732559219,310.30949312029406 L 268.7526071816683,309.2332003728952 L 268.5036131646484,308.4804156613536 L 267.6753270095214,308.3980434346013 L 267.64822561852634,307.68126913695596 L 267.89213810209185,307.02677003806457 L 267.1434622630477,306.69121954520233 L 266.7369414353743,305.300994691439 L 266.7877565389499,304.53722749999724 L 267.2603370035067,303.607149990974 L 266.95375252794474,301.0154611438047 L 267.4246391700581,298.769479471026 L 267.3399473205209,297.76924660615623 L 266.94358952715993,296.85751493275166 L 265.9018799243495,295.463882655371 L 264.9245361369103,294.5148212094791 L 264.3384686084464,293.1688463629689 L 262.75473125837743,292.70799926831387 L 261.687614120543,291.7321806407999 L 261.26584875863045,291.75491334474646 L 260.689944264479,292.15449527837336 L 260.36472760979086,292.1842243070714 L 259.507646208629,291.0100161200389 L 257.20064058713615,290.3622249606997 L 256.7449985118583,290.37970846449025 L 255.78459304850549,289.863087634556 L 255.03761103190482,288.17972443206236 L 254.0280843526125,286.48275368195027 L 252.25463730096817,285.92620848165825 L 251.5347566753626,286.27480901544914 L 250.95715832524002,286.93273748923093 L 249.91544872242957,288.8701554154977 L 250.00691589526832,291.14989734464325 L 249.84600143972784,291.5608133364003 L 247.366224440746,292.0897913002409 L 246.32959633879364,292.68176591815427 L 245.17778738308698,292.6135597091634 L 243.7634336668998,293.50903429975733 L 243.21971206460148,293.56500500114635 L 241.78672620095313,292.55234951199964 L 241.2921258462593,292.447418857133 L 241.0736209312454,292.63017398887314 L 240.9042372647673,293.23355959542096 L 240.636611036025,293.3656112719327 L 240.3672910174355,293.2501752411481 L 239.833732415922,292.5418563708663 L 239.27646013349295,292.51737246499397 L 238.46341851260513,292.86802455433644 L 237.93494141101837,292.85753100784495 L 237.41662737634033,292.55409835348837 L 236.3732239510864,291.14902308629826 L 235.71940296329558,290.87538290559314 L 234.0729936528951,291.336118217092 L 233.06854847446084,290.7643559903372 L 232.76196399889886,290.7582364624832 L 228.5917379418388,291.4585194012616 L 226.81659703422338,292.1842243070714 L 226.03743212670088,292.2524266706314 L 225.1092096203938,291.63600465399213 L 224.5231420919299,291.47075962857343 L 224.12678429856896,291.6167695899494 L 223.9404622418806,291.9254107354209 L 224.01160338055342,292.35035936674103 L 223.72873265016824,292.35822901315987 L 222.54474077094346,291.0650940509513 L 222.13313844334334,291.077333641937 L 221.53860173746943,291.5538188593928 L 220.34275300148875,291.2259588446468 L 219.10455834120512,290.6113688328769 L 217.97138156555593,290.3569799240213 L 217.0736480616033,291.10880694235675 L 215.29850718658417,291.0170101283584 L 214.73954104911536,290.2678146895487 L 214.1619426999241,290.19963021203876 L 213.6758115561679,290.29578798706643 L 212.15813384391367,291.13416057568975 L 210.55915195960552,291.0983158389572 L 208.6349534196779,291.590540029807 L 207.2697209836915,291.7584106924478 L 207.15792777668685,293.2160694550257 L 206.6887349896133,293.60873240302317 L 206.0298325009644,293.68044585664757 L 205.7147788796574,293.49504170636646 L 205.36584847886115,292.70799926831387 L 204.68831381108612,292.362601038767 L 203.18418677709997,292.95547155779786 L 202.63199599646032,292.8610288663767 L 199.88798047881573,291.25393564719707 L 199.54582543484867,291.2976496631745 L 198.99702233076096,291.70245339069515 L 198.52444189880043,291.5660592408385 L 197.04233475588262,290.64109183102846 L 194.11877250485122,290.5597910291981 L 191.65762771852314,289.79665499925613 L 189.6792263975367,289.5003376582172 L 187.93457455839962,288.69098693714477 L 185.30743378214538,286.4233403522521 L 182.98687741626054,285.48327288008295 L 182.4804202383384,284.9599953570869 L 182.23989543318748,283.1554423130583 L 181.09147412329912,281.10072378255427 L 180.87974453065544,279.3878574562259 L 177.70210676360875,276.53217515256256 L 177.09740708954632,275.4528393726796 L 176.26912090089172,273.02335181832314 L 175.52722038514912,272.00380174885504 L 175.26975722331554,270.6486761197448 L 174.4939799932763,269.9773036551196 L 171.19777369499207,268.3575252215378 L 170.147594881244,267.5416588454973 L 170.10524898860604,266.8295875447802 L 170.80819122493267,266.13588042906485 L 171.96338789071888,265.374266512692 L 171.36715736240149,265.2069651673082 L 169.19227098301053,264.08300016634166 L 167.19354359526187,263.91485466528684 L 164.54099525045604,264.14224400068633 L 163.26045469846576,263.9967489251867 L 162.64389810152352,263.2013644685503 L 163.19100738223642,261.6961866118945 L 163.30618830118328,258.6596843986772 L 163.09107103105634,256.61044984404 L 163.12833542283624,254.24324260791764 L 164.89331329707056,249.57871358236298 L 165.54374663997442,248.44734121579677 L 167.0309352837503,246.6910197888501 L 167.87954747397453,245.1880075871013 L 168.43681978899986,244.84988891333342 L 168.321638870053,244.47006496042013 L 167.68475627154112,243.9546793415211 L 168.06756338570267,243.42194471461698 L 167.65426720306277,242.8935888854321 L 167.60683977790177,242.54426661948673 L 168.0777263874188,241.01680404949002 L 168.2132333079353,239.7284943878185 L 168.97715371381491,237.83678122237325 L 168.60450963303447,236.44475679192692 L 168.19290730543435,236.07920361333527 L 168.03707431722432,235.55564764910378 L 168.0794202098623,234.12666825111955 L 168.31316969171166,233.59194757137448 L 168.8179330471903,233.20828866772354 L 170.68115345016122,232.58509655995294 L 171.66188491601497,231.86648546508513 L 174.16198798269033,229.3275258562062 L 175.20877908542752,228.6178612911608 L 175.47301763668656,227.51790920994245 L 175.918496677652,227.03390498063527 L 176.97375699225813,226.46666557504795 L 177.34978871792555,226.0330211520195 L 177.44972510170192,225.37045416259207 L 177.16685437224805,224.89697507373057 L 176.31993597187102,224.15298821777105 L 175.97269945871085,223.52004216937348 L 175.05972145311534,217.3906216796022 L 175.31379697006196,216.0581720820628 L 177.64451633766294,212.65950506995432 L 178.1712995506823,211.49573102779686 L 178.4982100278139,209.83172526746057 L 180.00233709439635,206.92001632717438 L 182.3228933950886,203.5541847520508 L 182.69384365249425,202.22376648173667 L 182.81410607136786,200.3123822209891 L 182.31582441553473,199.54951861011796 z" /><path fill-rule="evenodd" fill="#D2EBD9" stroke="#A6A6A6" stroke-width="0.25" opacity="1" d="M 17.058709654025733,123.991304239491 L 16.015732994303107,124.81187784834765 L 15.861020349897444,125.07009352231398 L 16.133101204410195,125.49866323685274 L 16.581234390847385,125.62304606940597 L 16.946676349267364,125.34724244428799 L 17.200085002928972,124.34413020010106 L 17.058709654025733,123.991304239491 z" /><path fill-rule="evenodd" fill="#D2EBD9" stroke="#A6A6A6" stroke-width="0.25" opacity="1" d="M 76.94050665199757,129.39573490293697 L 77.09521929733455,128.70060074841604 L 76.37500522378832,128.42066577612422 L 75.93754188064486,128.63027827977203 L 76.94050665199757,129.39573490293697 z" /><path fill-rule="evenodd" fill="#D2EBD9" stroke="#A6A6A6" stroke-width="0.25" opacity="1" d="M 76.46569887455553,131.9819009397179 L 76.34032827429473,131.72217545378953 L 76.26297195162624,131.66265586111695 L 76.17227833345532,132.12935192137957 L 76.46569887455553,131.9819009397179 z" /><path fill-rule="evenodd" fill="#D2EBD9" stroke="#A6A6A6" stroke-width="0.25" opacity="1" d="M 62.1601138683036,31.150718992808834 L 62.56823516730219,30.85267347539775 L 62.48020900133997,30.69157005683519 L 61.15981658175588,29.89950109482743 L 60.423597793094814,29.773310601478443 L 59.74072815384716,29.967966590309516 L 59.23124342691153,30.475425420794636 L 59.82075196132064,30.337148039834574 L 60.447604931890965,31.031231633620337 L 61.04244837258011,31.150718992808834 L 60.799709561280906,31.150718992808834 L 61.88003062270582,31.215161979664117 L 62.1601138683036,31.150718992808834 z" /><path fill-rule="evenodd" fill="#D2EBD9" stroke="#A6A6A6" stroke-width="0.25" opacity="1" d="M 76.0762497773394,29.226943605579436 L 76.01223075017333,28.728919668355957 L 75.62811659090221,28.428233177633956 L 75.23866752628237,29.000079103047028 L 74.82329375855625,30.398419264238328 L 73.71288073156029,31.434001513989642 L 73.8035743497312,31.881087698973715 L 74.48644395545125,32.729645263403654 L 74.48644395545125,33.87499959394336 L 75.09462469164282,34.33423821348697 L 75.36403812654316,35.86647101631388 L 75.57209995482117,36.06657180353068 L 76.34299572650343,34.386608358006924 L 76.33571726549417,32.77358936215751 L 77.12722879368812,30.604306347901 L 76.97251614928246,29.778680377407 L 76.18828308209777,29.491399091435596 L 76.0762497773394,29.226943605579436 z" /><path fill-rule="evenodd" fill="#D2EBD9" stroke="#A6A6A6" stroke-width="0.25" opacity="1" d="M 67.32698282133788,53.98127023386769 L 67.77511600684375,53.659931604750454 L 68.65004269313067,53.47304746438749 L 68.91412119008601,53.07911957008764 L 67.7137644328177,52.9581198929809 L 66.60143384244293,51.5949248438701 L 66.43338390160352,51.85034639132209 L 66.42004660516977,53.52010440826416 L 66.67345525883138,54.287825672421604 L 67.32698282133788,53.98127023386769 z" /><path fill-rule="evenodd" fill="#D2EBD9" stroke="#A6A6A6" stroke-width="0.25" opacity="1" d="M 55.18203997053206,66.47593347728252 L 56.523772075772285,65.30792386224493 L 56.526439528912306,64.12655572919175 L 56.859871957451105,62.91299707000144 L 57.88684386853129,61.01752182794735 L 57.3133400818333,60.62204601825215 L 56.5664514163509,61.053841550368816 L 55.910256401635706,61.83944667945616 L 55.062004308216274,63.75252111116424 L 54.92596386373043,65.76811889279634 L 54.71523458324373,66.23102023941465 L 54.95797339361161,66.47593347728252 L 55.18203997053206,66.47593347728252 z" /><path fill-rule="evenodd" fill="#D2EBD9" stroke="#A6A6A6" stroke-width="0.25" opacity="1" d="M 58.110910444520414,66.9092519369442 L 58.21494135912508,65.84481952362694 L 58.10290805436671,65.23795397393405 L 57.88684386853129,64.87599996803328 L 57.6014256849885,64.81948754796758 L 57.08660601917654,65.05361194163561 L 56.91055368818343,65.41018814058043 L 56.3183777006343,65.75735395308584 L 55.499467650428414,67.10842139017768 L 56.23568647261709,67.49869404849596 L 57.46271778829396,67.30624789535068 L 58.110910444520414,66.9092519369442 z" /><path fill-rule="evenodd" fill="#D2EBD9" stroke="#A6A6A6" stroke-width="0.25" opacity="1" d="M 38.977223886176944,81.71886616945267 L 40.497675742954016,80.8701659978833 L 41.00449305027723,80.3461542185396 L 41.26590406149626,79.39517239085399 L 41.31391834001988,75.79928946611471 L 41.04183748550713,75.06002935301512 L 40.5403551151976,75.09907851880416 L 40.18291554786265,75.5851826807484 L 39.721445065923035,77.79239485017024 L 39.87882516346872,78.02539185225032 L 40.28427900932729,78.11832240759395 L 40.34563058335334,78.75403848243877 L 40.086886991746724,79.29819217626937 L 39.446696725673974,79.46790797822177 L 39.32399361021817,79.65378967556171 L 38.665131110697985,81.17730841436423 L 38.582439882680774,82.33319719415158 L 38.977223886176944,81.71886616945267 z" /><path fill-rule="evenodd" fill="#D2EBD9" stroke="#A6A6A6" stroke-width="0.25" opacity="1" d="M 34.98136964533478,75.06002935301512 L 35.40816314518452,75.51246792636812 L 35.669574157334864,74.99943606252782 L 35.67490909527987,74.49315577256493 L 35.413498050533235,74.1067257008981 L 34.359851581044495,73.76339103793725 L 34.218476232141256,73.29754677601159 L 34.30916985031217,72.12358146160841 L 33.135487684980035,72.69978130888194 L 32.53264185413718,72.71593678300269 L 32.15919753815979,71.1624043805059 L 31.84977224841714,70.66568771353923 L 31.390969218686223,70.55934690008871 L 30.825467823073268,70.88241014280356 L 30.654750429093838,71.35221138549969 L 30.48403300344944,73.47795857745223 L 30.03589981701225,74.6076057672035 L 30.612071056850255,75.06002935301512 L 30.48403300344944,75.51246792636812 L 29.59043411631137,75.8720057180617 L 30.243961677886546,76.7123108478263 L 29.977215728722513,77.37758931750432 L 30.48403300344944,78.3472845016513 L 30.254631488583982,80.54013047344051 L 30.70809961296618,81.86032145633362 L 30.772118639200926,82.55280047212727 L 30.48403300344944,84.59542004344985 L 30.950838423334062,84.36904557654634 L 31.470992993563414,84.3879099835176 L 32.079173762351274,83.88936017267406 L 32.51930455863476,81.86032145633362 L 32.719364028424025,81.86032145633362 L 33.06346630025655,82.17961177835241 L 34.551908660680056,80.9765873409342 L 34.79198001883924,81.36725525953807 L 35.112075151875615,81.53295580623671 L 35.42416789382696,81.42114138277248 L 35.65356940869242,80.9765873409342 L 35.63222972210497,80.42158910026774 L 34.98136964533478,79.14868242689408 L 34.98136964533478,78.01865776255727 L 34.44254280813038,77.61731302528642 L 34.30916985031217,77.33988035121001 L 34.42120315507054,76.11978259542957 L 34.98136964533478,75.06002935301512 z" /><path fill-rule="evenodd" fill="#D2EBD9" stroke="#A6A6A6" stroke-width="0.25" opacity="1" d="M 42.15683552902192,83.91630832641385 L 41.61000633332878,81.22445807233453 L 40.25760441739112,81.75928184087388 L 39.945511642843485,82.18095900746994 L 40.09755683504045,82.38304547709413 L 40.81777087599039,82.5595368091017 L 40.67372807394713,83.1051928861998 L 41.71403724793345,84.59542004344985 L 42.09815140720457,84.3879099835176 L 42.15683552902192,83.91630832641385 z" /><path fill-rule="evenodd" fill="#D2EBD9" stroke="#A6A6A6" stroke-width="0.25" opacity="1" d="M 30.950838423334062,116.20617620553821 L 31.663050073198974,115.2754418742843 L 31.84710479527712,113.91797048295848 L 31.158900251612067,113.21835915395059 L 31.39897160977125,113.01307558151893 L 30.246629131026566,112.58091119513847 L 29.59310156945139,112.60927149839699 L 29.14230092987418,113.01307558151893 L 29.3957095509395,116.36963640362956 L 30.217287053354084,116.69791450886987 L 30.950838423334062,116.20617620553821 z" /><path fill-rule="evenodd" fill="#D2EBD9" stroke="#A6A6A6" stroke-width="0.25" opacity="1" d="M 89.11479151435196,130.86458283034153 L 89.63227866496891,130.46962522063404 L 89.7869913103059,130.01787555473857 L 89.44022158533335,129.65405437187292 L 88.81070116255432,126.78987708385102 L 87.86375305987895,126.33692159526981 L 87.66369358915836,125.63791801757179 L 87.44762937072664,125.52435088995844 L 85.0655880915001,125.2742366977036 L 84.74015805311501,127.14684572000988 L 84.39872323349118,127.79185142018832 L 84.88686830736697,128.3868576560635 L 84.83618657663465,128.9981237668544 L 84.39872323349118,130.18558889185078 L 84.72682075668126,130.57512624235824 L 85.4870466850698,130.67657047254033 L 86.31395912542939,130.6184089886956 L 88.24786721915007,130.124724883819 L 88.85871540848166,130.23157522291876 L 89.11479151435196,130.86458283034153 z" /><path fill-rule="evenodd" fill="#D2EBD9" stroke="#A6A6A6" stroke-width="0.25" opacity="1" d="M 34.751968131400645,136.91241812100634 L 34.95469502080232,136.2059915640857 L 34.917350619100034,135.75401044473983 L 34.30916985031217,134.8487502860371 L 33.87704141251743,135.56997550697997 L 34.03175405692309,136.05172048858367 L 34.751968131400645,137.12083608913235 L 34.751968131400645,136.91241812100634 z" /><path fill-rule="evenodd" fill="#D2EBD9" stroke="#A6A6A6" stroke-width="0.25" opacity="1" d="M 87.97578636463732,137.8205537267495 L 89.01876299083233,137.1560239023529 L 89.41354699339718,136.05172048858367 L 89.76831910945475,133.48626260273159 L 86.40998764894903,135.30340089951642 L 86.59670982416719,135.69446941372007 L 86.48467651940882,136.06795947276987 L 85.84982115868479,136.78926387568936 L 86.40998764894903,138.0276353068184 L 86.74608753062785,137.8760457946919 L 87.97578636463732,137.8205537267495 z" /><path fill-rule="evenodd" fill="#D2EBD9" stroke="#A6A6A6" stroke-width="0.25" opacity="1" d="M 170.861753561534,201.62643968779594 L 171.69666836038232,201.69590540695935 L 172.2328277118504,200.84192173881456 L 172.30484912917018,199.63122478523292 L 171.76068738661706,198.63582034385763 L 171.76068738661706,198.40706939180382 L 172.224825354293,198.40706939180382 L 171.859383395873,197.64052217942663 L 171.9820865439251,196.78827173053287 L 171.53662081062794,196.97069581365213 L 171.1071598250419,197.7208501030691 L 169.7440880658105,198.1783240144141 L 170.2082259999588,198.88500188966282 L 169.7440880658105,200.6934700969141 L 170.56833302043378,203.36323961266316 L 170.861753561534,203.20521136163734 L 171.08048523310572,202.45870070555247 L 170.861753561534,201.62643968779594 z" /><path fill-rule="evenodd" fill="#D2EBD9" stroke="#A6A6A6" stroke-width="0.25" opacity="1" d="M 165.47081803251058,212.85402770806104 L 166.89524136576802,210.86181673547253 L 166.83122233953327,210.31645568087697 L 166.38308915309608,210.11331710615195 L 165.84159489627928,210.45279288105667 L 164.79861827008426,211.50265798694454 L 164.69992226082832,210.43234215839766 L 163.814325732179,210.3655368378386 L 162.56061979196966,210.77455674880184 L 162.80602605547756,210.10650043771602 L 161.88841999601573,210.5645908829756 L 162.01379059720784,213.31089380872436 L 161.70169785432518,213.6477621961385 L 160.77342195250094,215.82884777407162 L 161.22155513893813,215.82884777407162 L 160.5493553765118,216.53689421969466 L 162.56061979196966,216.30769384116866 L 163.6062638713047,215.5505558855366 L 164.37449218984693,214.68572357972153 L 164.76394128799438,213.81551918270998 L 165.04135704785585,213.3627188927494 L 165.47081803251058,213.0599555335939 L 165.47081803251058,212.85402770806104 z" /><path fill-rule="evenodd" fill="#D2EBD9" stroke="#A6A6A6" stroke-width="0.25" opacity="1" d="M 16.997358079999685,125.5081270779483 L 16.330493221990764,126.06921307789162 L 16.45052888430655,126.70874941698276 L 17.058709654025733,127.09681534953415 L 17.826937972567976,126.90751323476434 L 17.98698552325368,126.43291963730007 L 17.81093322392553,125.95564164198004 L 16.994690626859665,126.02324353973381 L 16.997358079999685,125.5081270779483 z" /><path fill-rule="evenodd" fill="#D2EBD9" stroke="#A6A6A6" stroke-width="0.25" opacity="1" d="M 30.713434518314898,111.53567807446234 L 31.062871728092432,111.30071573937312 L 31.449653340503573,110.6633697792422 L 31.32161528710276,109.99095236044377 L 30.126593435183167,107.31245585740544 L 29.833172894082963,107.35835254681297 L 29.555757134221494,107.99822420929559 L 29.486403169110417,108.68133119796403 L 29.641115814447403,109.38877904252149 L 29.526415090076625,111.28856263798662 L 29.8118332400918,111.8165586439427 L 30.713434518314898,111.53567807446234 z" /></g></g></g></svg>