<svg xmlns="http://www.w3.org/2000/svg" xmlns:xlink="http://www.w3.org/1999/xlink" width="500.0" height="358.2451189830899" viewBox="0.0 0.0 500.0 358.2451189830899" preserveAspectRatio="xMinYMin meet"><g transform="matrix(1,0,0,-1,0,358.2451189830899)"><g><g><path fill-rule="evenodd" fill="#D2EBD9" stroke="#A6A6A6" stroke-width="0.25" opacity="1" d="M 206.05005485750735,356.41463945247233 L 207.8108275886625,355.65284648910165 L 209.2941052597016,354.3090169224888 L 210.1794468536973,352.86049463413656 L 211.00532525405288,350.81744760181755 L 211.1110376995057,349.3698300002143 L 209.84248847141862,349.66719519812614 L 208.76554302871227,350.7037238292396 L 206.89575436338782,353.23681165650487 L 205.76595269702375,354.4009298887104 L 205.01935860142112,356.14756229147315 L 206.05005485750735,356.41463945247233 z" /><path fill-rule="evenodd" fill="#D2EBD9" stroke="#A6A6A6" stroke-width="0.25" opacity="1" d="M 231.1765794251114,290.71300411690027 L 232.49137784168124,288.67940817493945 L 231.42764646932483,286.6378920841962 L 229.28036261722445,285.04238765500486 L 227.314772028476,284.3723230008036 L 223.9022424351424,285.14182326290756 L 223.0499358922243,284.83919834997505 L 221.44442827999592,283.8320058649406 L 220.86961692385375,284.3161275917664 L 220.51283743418753,284.2685781540349 L 219.89838392660022,283.533772806637 L 217.40092762187123,281.40337475482374 L 216.52880009822547,280.8676599217579 L 212.44565722346306,279.48540336079895 L 210.75095472298563,277.87895231321454 L 210.4503350071609,275.73772310931236 L 210.5296193100512,273.1658595157787 L 209.9812360983342,270.276056622155 L 209.1223225183785,268.7627298180014 L 208.01234195940197,267.6118355533108 L 206.7338821440935,266.80160744301975 L 205.3563169836998,266.30173686984926 L 202.64082874916494,266.2112476620823 L 201.8942347150296,265.8277620803565 L 201.46477795764804,265.0867168623954 L 200.93951927684247,263.24744478054345 L 200.38122547790408,262.5239592315629 L 199.0003567673266,263.01488586794585 L 198.51474030129611,264.1131641222164 L 198.69643349945545,265.5649385387078 L 199.29436951316893,267.124822916463 L 200.12355146184564,268.2928610574454 L 203.1759980171919,270.2631205264479 L 204.11419589817524,272.11759741045535 L 203.46670721285045,273.59729912504554 L 201.97351908311248,274.6242569601163 L 200.38122547790408,275.129173938185 L 195.2938144914806,275.89742409531027 L 192.85582150891423,276.9679680177942 L 190.60282514616847,277.2572221150622 L 189.4532024357468,277.86599893216044 L 186.71789315715432,281.16575306933373 L 185.31389985233545,281.8743270430714 L 183.84383631683886,281.99099101126194 L 180.66585620865226,281.78359008487314 L 179.28168401122093,282.2286471230909 L 170.16728992387652,288.2338451417163 L 167.92750769853592,288.4717627931386 L 142.73491283506155,279.4378942446783 L 141.67118146270514,279.2824126696214 L 140.66030631400645,279.39470444526523 L 140.2506706006825,279.79638178274035 L 139.5767538342625,281.07502734009176 L 139.06140573881567,281.23487835470587 L 138.7706965431571,280.8676599217579 L 138.3148116413504,278.88077180366963 L 136.99670967645943,276.9420653488487 L 135.9693170338869,275.04286014661193 L 135.55307428352535,272.9070114213973 L 136.06842237897217,270.25880852900445 L 136.45823698490858,269.2498822947964 L 136.45823698490858,268.12906265072525 L 137.93821110762656,265.4227603627369 L 138.01088837347925,264.31992251146585 L 131.85974601469934,262.1234976230189 L 128.7874783538282,267.40495791565627 L 126.90447561815381,269.5128758046776 L 126.01913395896554,269.6939603080973 L 125.78458453714848,269.5171873215586 L 125.48726830631495,268.16785658244044 L 124.25836122781038,265.4270687047392 L 121.33475171402097,256.5285848090425 L 120.62119266949594,253.3333340594545 L 120.41307132691145,250.04533581156284 L 120.86234919168055,248.52017363812774 L 121.82367166690528,247.41629546135664 L 122.94686636142433,246.45003959164023 L 123.85202900134027,245.32938690204173 L 124.32773500867188,243.95999751146883 L 124.55898100882769,242.38925113901496 L 124.24184360727668,232.50255862716585 L 125.14700637198985,230.5067038787529 L 127.66428378596902,231.53880847711116 L 128.0607053656131,232.14273970667273 L 128.4505199715495,233.32508644741029 L 129.06497354246676,233.59500408079475 L 130.97110087051988,231.7401118176058 L 132.29580987244844,231.28611843381077 L 135.05094019509852,231.7358287293464 L 137.660715918988,231.91143935360014 L 138.8301598019898,232.3269298793748 L 139.92031931690872,232.99520441889763 L 142.06099613383412,234.8590723266825 L 143.17097669281065,235.30906196776778 L 148.74070059508085,235.66050693020225 L 151.3570834212005,235.35191993694752 L 153.88096780702472,234.50339111406356 L 156.55020685307682,232.9737841738388 L 159.03444908745587,232.21555836312473 L 163.97650541365147,233.23083246219903 L 166.5895846877247,232.94807993527502 L 168.515533125028,232.06563855614513 L 169.05070239305496,232.49399123713374 L 170.04836346954107,233.92492042761296 L 171.13191594928503,234.8976414995268 L 172.45332140102983,235.31334771681577 L 173.85401115566492,235.3004904780537 L 175.16220253705978,234.99620823655277 L 177.30618283711374,233.74067908525467 L 178.34018264338374,233.35936103761196 L 179.3973069805652,233.71068686060607 L 179.93247618339956,234.50767626333982 L 181.7130700238049,238.36135022062808 L 182.70082064159214,239.12038701493293 L 183.31527414917946,238.3098937412724 L 183.60598334483802,236.76641311962157 L 183.6191974170506,235.35191993694752 L 182.93867361545563,232.3740492751822 L 183.0443859975785,231.20902875903994 L 184.14775958471,230.7936190161854 L 185.2841682229191,231.06770042609423 L 190.9860327169299,235.2704900354147 L 191.81191118061543,235.58335860818624 L 193.80062636174262,235.09906241949648 L 194.44150801189244,235.08620549365878 L 194.83132261782885,235.34763415902853 L 195.53827450051904,236.23915218468755 L 197.2098524067551,236.68067632243037 L 199.27785195596516,237.465215514414 L 200.38122547790408,237.60241361614317 L 201.25996016524732,237.24227542988956 L 202.70029200799763,235.96911048982292 L 203.5063493642956,235.48049584496766 L 204.6229369584471,235.3690632469952 L 206.96843163110316,235.80623443704098 L 208.09162626229227,235.66050693020225 L 209.64427765086293,234.47768003866076 L 210.5296193100512,232.73388266190886 L 211.808079123497,228.69133417028934 L 212.4952099621296,228.12628869805485 L 213.99170157685876,227.48853875510395 L 214.606155147776,226.906493159011 L 214.96954160928726,225.77680763881654 L 214.53347781673074,223.5309316487983 L 214.50044263713062,222.50453674048185 L 215.4716756977141,220.80283432919532 L 217.16307464800775,219.79402161668986 L 219.10554064437747,219.45209118165076 L 220.8630098886788,219.7213597400114 L 222.80877943336964,220.8156594131142 L 223.57849812321365,221.0507898684591 L 225.11793544143438,220.98238726798445 L 225.63328360021114,221.1790469205007 L 226.4162162989378,222.08120203576982 L 227.62199878320098,222.65848436579108 L 229.01608156599104,222.00423541199416 L 230.59185754694045,220.99521266762167 L 232.33941620774567,220.5121414270252 L 234.39420168474317,221.56383518315852 L 235.5636455025524,223.84744017384946 L 236.50514687038958,226.55130299553275 L 237.82324883714318,228.8497280785814 L 239.93089047260582,230.23693114891648 L 242.586915448308,230.96491837780923 L 245.3057071045041,231.1190922204405 L 248.94617921486497,230.4124961271882 L 249.735718883574,230.4039318477735 L 250.42615327239037,230.92209308035672 L 252.46442119032145,233.26939071621746 L 253.35636982135475,233.95062903221697 L 255.57302751764655,235.15477578993887 L 257.3602283280343,236.79642128851265 L 259.80152486264706,237.34945707768202 L 262.0082719717175,238.3870785916224 L 263.17771579138935,238.50714614987373 L 265.31839266978204,237.19082897156477 L 266.46140834502876,236.18771478813142 L 267.3863921556622,234.94478195998818 L 267.76959978975356,233.6121420711279 L 267.42603430710733,232.3740492751822 L 265.8007056508213,229.97573468927294 L 265.25892941094935,228.68705326784402 L 266.58694189973176,225.80247988458723 L 269.2363597750664,224.5874537806958 L 272.3350555803627,224.4377323947847 L 278.8429774288088,225.81531600933522 L 280.1115266587585,225.849545923993 L 281.1224018074572,224.9339667810127 L 281.6972131617367,223.04337124247104 L 281.8623888678849,220.90543530043215 L 281.62453589588404,219.24266882799566 L 280.8911558073014,218.00338584091514 L 280.0322422925383,217.1275013415143 L 279.3781465701759,216.09797285031527 L 279.24600604362786,214.3981571700424 L 279.7217120528221,212.75433856621385 L 280.65330283530056,211.43535205628723 L 281.8227466531098,210.53912503179163 L 283.0516537297517,210.150803132914 L 285.3905413672328,210.42390597239137 L 287.7228220310062,211.43108401540667 L 294.03914003260434,215.8929434157908 L 295.1160854753107,216.45679188892245 L 297.5012222994119,216.95234044548124 L 299.7410045899451,218.17857869900763 L 300.91044834442437,218.3580499459058 L 302.00721489451826,217.49920197203755 L 302.7207738123834,215.69219252374023 L 303.10398138314486,213.59540298674256 L 303.20969382859766,211.84937046840787 L 303.7845051847398,210.60740411560982 L 305.1125176716596,210.03559172246605 L 307.86764805950224,209.5790358548984 L 309.3872643318027,208.48259546700865 L 310.72188379243016,207.77876452822238 L 311.098484326154,205.83834069315344 L 311.69972382485867,204.48469350393862 L 312.3604265190661,203.52347632776946 L 313.08719957247376,203.57888588216156 L 315.7167964037508,209.34010509122163 L 317.17694941721857,213.78754149749875 L 317.9499715939164,215.04727402422577 L 319.0863802973181,215.46155108883977 L 320.48046301677823,215.64948040712625 L 322.8655999042094,216.86689797509462 L 323.98218743503094,216.9096190109849 L 326.08322209864855,216.36708497814834 L 327.16016754321754,216.31155284214765 L 328.20407787151635,216.47815085109323 L 330.2060071248561,218.61444734223187 L 330.9063519705087,218.9221391323954 L 331.8709779307246,218.6443611010909 L 333.4896996151656,217.5889263842255 L 334.5336099434644,217.56756331399083 L 335.2537758965045,218.0290235178545 L 336.4760759379715,219.56749045476317 L 337.1301716603339,220.1402467833832 L 338.2401522193104,220.47794317640364 L 339.3104906268418,220.418096806854 L 351.12385532818735,217.31121239252388 L 352.0950883254409,217.35393679700792 L 354.8568257484585,217.94783797115088 L 356.1782312002033,217.8495623311028 L 361.29207026585937,216.6191219650209 L 362.25008919276297,216.68320105411112 L 365.38842708431184,218.35377678927034 L 366.2010914757848,218.51188700087368 L 368.1105223558843,217.72137931268662 L 370.3503045812249,217.08477869350463 L 372.38526895083487,217.24285416677594 L 378.87336969189346,219.49055734928697 L 382.52044870890677,220.17871753685176 L 382.9631195385009,221.02513876743615 L 383.1018671654165,222.18810181878507 L 383.59078711643815,223.4710536012426 L 385.15665264055133,224.55750927515328 L 392.14028037153184,226.29455265775323 L 394.39988370612264,226.51278970763087 L 400.28674494847655,225.86666087433696 L 402.0970704164356,224.9339667810127 L 402.0508212298155,223.3170842844993 L 402.7313450947404,218.5973538113758 L 402.8106293976307,216.90534692630172 L 402.65206072852015,215.58114184066653 L 400.65673851035535,209.81370963528752 L 400.1546044219285,207.36290476750582 L 400.5113839134574,205.01545604132116 L 402.0177861135453,202.35786790959537 L 404.7266673129052,199.68020021822304 L 405.31469267606735,198.53665684722364 L 406.28592573851347,194.39027322363108 L 406.999484654516,193.32435620762408 L 410.7919182702899,190.39781286008656 L 412.8995599690825,188.05508733075112 L 413.81793680787086,187.4238607659936 L 414.4654254298657,186.03625307232141 L 414.65702921524644,184.6595970345661 L 414.3266778681427,183.40856689959764 L 413.40830102935433,182.39986719097942 L 412.0208253469318,181.94123207498342 L 408.9551646579057,181.92849266622216 L 407.5016187429428,181.24273201823235 L 406.58984894119203,180.29384023603052 L 405.6979002468288,178.98432603292167 L 405.17594511434436,177.49688765686005 L 405.36094192788005,176.01619160640985 L 406.1339641045779,174.79882311727852 L 407.99714573286474,172.7018964579329 L 408.69749064184725,171.5424431907013 L 408.89570146240294,169.95731065794826 L 408.49267278425395,166.35633369348943 L 408.7305258214474,165.08592944778502 L 411.0231642052531,161.23193909041584 L 411.4592279996723,160.0514870826155 L 412.06707453355193,156.6447407985106 L 412.6286718174815,155.35741685144603 L 413.84436488710344,154.02811256423593 L 414.94113137573004,153.32237218879163 L 417.2535909321159,152.40968396421522 L 418.3635714277625,151.77595612965524 L 420.2928234785795,149.98076505493373 L 421.29048455506563,149.3747477531433 L 427.42841284163296,149.17627496179193 L 428.4921442139894,149.43598016630858 L 429.3378437217325,150.79381309170276 L 428.82910259626806,152.07168725319207 L 428.0164382699877,153.4259035969153 L 427.96358204633,155.00022925902158 L 428.4525020625442,155.40814346913248 L 430.97638644836843,156.27267721295357 L 431.42566431313753,156.79695534985512 L 431.65691031329334,158.86915784142911 L 432.5554659795016,160.22282830812037 L 433.46723571792245,160.81092625949532 L 434.557395234704,160.7897706469521 L 438.49518351070583,159.40635839570314 L 439.7373045962304,159.1927413297817 L 441.16442243009806,159.23292612843215 L 445.61755880340934,160.7897706469521 L 446.9455712903291,160.60783538315445 L 456.05005479231477,156.1120207523927 L 466.8855794612318,151.944943591021 L 470.1032017841935,148.91024726629257 L 471.5501406621188,148.70967879518867 L 473.0169007126242,148.83635280188173 L 474.18634459376335,148.5830075982958 L 475.2104338146746,147.8230372145772 L 476.802727419883,145.5479351039976 L 478.39502089470625,144.47189441975206 L 478.8244777172804,143.98246651608497 L 479.5578576773405,140.1949947560206 L 479.5446436703205,138.60565659869462 L 479.1680430714041,137.10945641063154 L 478.42805607430637,135.78847966250032 L 475.71917494013906,132.7284045992419 L 475.1113284043968,131.42103774193674 L 474.87347543239594,129.9477020315826 L 474.8866895046085,122.193484229967 L 476.12881059013307,112.86067101545632 L 477.357717666775,110.567516409792 L 481.8637101985514,108.00685902964324 L 482.65655354596674,105.76378216035664 L 482.39887940324843,100.64769973326474 L 482.5244129560888,97.95733937062323 L 482.72923075035214,97.51569199375808 L 483.9911730065942,96.59064078796655 L 483.8590324167162,96.01726481877267 L 482.76887296512723,94.26399692427367 L 482.30638102814555,94.00669900141656 L 482.0420999750495,93.59671880397946 L 482.22709672525525,92.51960901543498 L 482.55084103532135,91.91107548680156 L 483.01333297230303,91.46987520344555 L 486.26399034820497,89.66777465958148 L 487.0436195600778,88.87142782472074 L 487.2814725972712,87.41486809961498 L 487.06344066746533,86.65642722602934 L 485.15400978922844,83.70506451372057 L 484.62544762156904,81.58382290881127 L 482.22709672525525,78.2030811086297 L 481.97602968104184,76.6656830534339 L 482.59709028713405,73.82347295805812 L 484.07706434465945,71.5264993486926 L 486.0063163321465,69.73871945869178 L 491.80067919939756,66.33965401072055 L 492.9238738305867,65.32780341710895 L 496.154710162431,61.04077681526542 L 497.9782496392727,59.26026854664087 L 500.0,57.82334929984063 L 496.8748761154711,56.79006036464125 L 495.3750809505582,56.03755492717028 L 494.5954516734928,54.65335629507899 L 494.43688300438225,51.67611873522401 L 493.8818927574903,50.706184623762965 L 487.935568254441,48.46783006284386 L 486.40934494510293,48.22701763920486 L 485.2200800832361,47.52124306932092 L 483.9251027107239,44.829676794819534 L 482.6235183663666,44.19690710864961 L 480.7273015603423,45.27991706877947 L 477.8003884963691,50.28668956272304 L 475.99006302654743,52.234888206236064 L 467.7973492629826,57.28693174570799 L 465.9473816435784,56.249577349983156 L 458.89768355339766,55.80891162250191 L 456.05005479231477,56.652856341563165 L 454.6559720747173,57.25990420207381 L 452.3236914742738,56.90232063177973 L 449.75355789996684,57.27029946539551 L 449.11928322166204,57.480286127887666 L 448.18769237585366,59.05229960381985 L 447.5600247979164,59.46200532838702 L 446.83325187303126,59.41001062002033 L 446.093264747411,58.890088758431375 L 445.75630642846227,59.938297256827354 L 445.003105295822,57.785923263058066 L 443.4438468720764,57.571767705492675 L 441.5872722156346,58.06870341487229 L 439.8958732653409,58.04167244769633 L 438.8585699722171,56.96053046453744 L 438.7528575267643,54.204495234414935 L 437.57680667191744,52.81656186468899 L 436.01754831150174,52.1476419204846 L 428.91499393619597,50.714491760358214 L 424.09186412766576,48.94948392640799 L 422.74403053335845,48.667130446992815 L 419.14320070296526,46.95668280404061 L 416.4012843891978,46.64329143241048 L 415.11291405186057,46.25520690716803 L 412.6815281044692,43.98945600632578 L 411.7697583027184,43.777863239869475 L 409.35158636420965,44.15126724354923 L 408.71731168590486,43.9189242888242 L 407.68000845611095,43.1078683109954 L 406.992877619341,43.06431071460247 L 406.55681382492185,43.39825949445367 L 405.1561240069568,45.107701363042 L 403.841325590387,45.211445270106196 L 401.13905149139464,44.362873061560094 L 400.1149622704834,44.981136336922646 L 399.83746708370745,46.66196993179619 L 400.6435244400054,48.23532136995345 L 401.9913579709828,49.408336396329105 L 403.3325845301151,49.89629457425326 L 405.7903986219317,50.149633162654936 L 406.72198946774006,50.61065340600908 L 407.82536305487156,51.53487671818584 L 408.9023084975779,52.812406809069216 L 409.3251582197845,53.98007722012699 L 409.3383722919971,57.361777857877314 L 409.82068527303636,60.05685618426651 L 407.54126089438796,60.333502646535635 L 404.7729164361954,60.27110004238784 L 400.33299420028925,61.456859316676855 L 392.67544957622886,64.29114537127316 L 389.82121384330094,64.20788737852126 L 385.8437834791839,62.00197074841708 L 384.7866590786725,62.31199896708131 L 383.7097136359662,62.96331809461117 L 382.19009736180305,63.167259972542524 L 380.59780382178724,63.00077630020678 L 379.3028265144676,62.55961675103754 L 378.2919513657689,61.800148910842836 L 375.17343445308506,58.43675334658474 L 374.4796965792775,58.10821059718728 L 373.0988278687,58.636383158154786 L 372.53723058477044,58.43675334658474 L 370.0992375370115,56.51565527822822 L 369.09496936015785,55.28306499496102 L 367.9982028733939,52.93498075194657 L 367.26482291147113,51.82567280065268 L 365.9698455389589,50.940865306183696 L 361.37135456874967,50.47774310503155 L 356.8125057499856,47.70805776678026 L 355.40520902350545,46.018632863648236 L 353.81952245533466,45.46251256018877 L 350.8199320603162,44.89191997051239 L 348.27622656710446,43.32566035352647 L 346.37340278737247,40.69608510192484 L 343.3936335016042,34.4792306125164 L 340.7310014888644,30.28231117222458 L 340.341186882928,28.738441755063832 L 339.77298256382346,27.9769990099594 L 330.24564927630126,26.55575641617179 L 328.0917583890259,25.46780953090638 L 323.6782641671598,26.282717212103307 L 320.80420739017427,25.69117444101721 L 314.3359276931733,23.052683434449136 L 311.8120433073491,21.312236027792096 L 309.67136642709374,18.58061198424548 L 307.4976544957608,17.326788985170424 L 305.8260766528547,15.490929911844432 L 287.2801512014121,1.6355018205940723 L 284.78930193185806,0.5931794503703713 L 281.6509639751166,0.0 L 278.5456611979753,0.0 L 275.5460708029568,0.6673309365287423 L 272.8636177480221,2.0887408005073667 L 270.70972686074674,4.355438593775034 L 269.1438614651561,7.253912611864507 L 268.6615484189242,8.883103031665087 L 268.2254846263677,12.56378382910043 L 267.58460297621787,14.165489668957889 L 263.95734500326216,20.072315458208323 L 263.40235475450754,21.514780337922275 L 263.20414393395185,23.25115076545626 L 263.20414393395185,26.528865636326373 L 262.9795050341636,27.47425082139671 L 261.49292387627065,30.05256858188659 L 261.3607833497226,31.033692402765155 L 261.49292387627065,35.87125244177878 L 261.9950579646975,39.166147706098855 L 262.36505146324635,40.38301768247038 L 262.8077222928405,41.10662183538079 L 262.5764762926847,43.037346782162786 L 264.93518503569067,47.083289162255824 L 264.9880413226783,49.327359857968986 L 265.37124889343977,50.33652901742607 L 265.54303157143295,52.02300673909485 L 265.4241050519049,55.41400280036032 L 264.9417920727283,58.503295856527984 L 265.1400029566139,59.653349553234875 L 265.860168909654,61.456859316676855 L 266.4812294524163,64.68663642462343 L 265.5826737228781,71.18890577182174 L 265.860168909654,74.72207469958812 L 267.17496732622385,76.924322119914 L 267.6506732702255,80.23129731696099 L 268.48315870575607,83.54218664579093 L 267.6506732702255,86.90296221990138 L 268.1792354397476,88.35103783011436 L 270.53794418275356,89.8851686809212 L 271.53560532443225,91.31933096144348 L 271.78667230531573,92.7789341378957 L 271.8395285271108,94.70331160724163 L 271.53560532443225,97.44871505815536 L 272.01131126843393,98.00966948084533 L 270.06884527392685,100.4173489594832 L 268.1329862512648,101.74512922298163 L 265.8403478022665,101.88755858596414 L 258.04075212962925,99.19035767391324 L 256.87791534885764,98.30691288691014 L 255.60936618223786,97.59941405896097 L 254.24171148054302,98.18968835193664 L 251.81693250499666,100.16816132888198 L 251.13640870340168,100.26448471937329 L 250.64748868718743,100.11581234820187 L 250.3105303030461,100.28751877322793 L 250.07267733104527,101.32623916119337 L 250.15196163393557,102.18499548267573 L 250.79945031926036,104.02231217361987 L 251.22890707664192,106.0865654014051 L 253.1317309215665,109.6844788165763 L 254.00385850667953,113.00966225378215 L 255.18651639670134,115.31635619979352 L 255.59615204669535,117.69325168151408 L 256.7556853443384,121.20364420395344 L 257.10255431197584,123.05105911567807 L 256.6962220855057,126.66769179794937 L 255.1766058113426,129.06177265476435 L 252.98637632280588,130.53067804221064 L 247.7172721363604,132.74103755038232 L 243.7695733383298,136.8481872053817 L 241.30515214800835,138.67731511592865 L 239.51464778743684,139.5920919002965 L 238.72180456668139,139.7818099660799 L 236.98415636457503,139.49512734636664 L 236.32345360703766,140.03899300191551 L 235.90721092186868,140.71784158144146 L 234.992137696594,142.85398387163877 L 233.68724973872304,144.14701102860272 L 232.9571732636541,144.5752702075988 L 232.14120538718998,144.80101548228413 L 230.6513207424432,144.75038022454828 L 230.18552532047033,144.17021644301713 L 230.3969502132386,142.31618514843285 L 229.7230334468186,141.4811124978587 L 228.19020310230553,141.860676295124 L 225.5539992339909,143.13028397969902 L 224.80740513652563,143.0037327259779 L 224.19955866597593,142.28244250174612 L 223.7667983584106,142.06522914581 L 221.5831758417189,142.5713698239997 L 219.56142554432154,142.57980579975992 L 218.52742580138147,142.33938326872885 L 217.2952152378857,140.37419102340937 L 213.55563778430223,139.97785832732916 L 212.37628344260156,139.2295366777107 L 212.37628344260156,138.67731511592865 L 213.64813615754247,137.6994618875906 L 213.13278806209564,136.74283995106816 L 210.87318472750485,135.05332715716213 L 210.28185581415892,134.7205376205966 L 208.82500628754497,134.80899884924293 L 208.23037382401526,134.47201072610915 L 207.9594856724143,133.7475514896214 L 208.01234195940197,131.385252433829 L 207.14682140760124,128.6072855675593 L 204.85418289527297,127.5953356930986 L 204.26285398192704,125.59298464935273 L 202.3831547331065,121.88663717452437 L 200.72479089722037,117.40343781374395 L 199.9385546501726,116.03436381276697 L 199.28445899114013,115.36254122853279 L 197.10414002463222,114.42001827433705 L 196.4269196446985,113.92257777508348 L 193.60241554118693,110.98076429776847 L 190.73166218586266,107.16403373237699 L 188.65375217981637,105.93355554901063 L 188.01287052966654,104.77877262141556 L 186.10674313642085,104.09145829454064 L 185.86558667756617,102.65003231633455 L 186.09022557921708,101.98390977922827 L 186.5923596676439,101.32623916119337 L 185.09586798772216,100.764972621575 L 183.5993763078004,100.51367637887597 L 182.162347888574,100.80685641244054 L 180.87728110142052,101.87708573043346 L 180.13399055413902,99.81638482119888 L 180.4346102718264,97.3252285271883 L 181.32655896618962,94.96691593993455 L 182.40350441075861,93.27670278958976 L 185.23791909962893,92.27702460438013 L 185.67398282885551,91.59742270410061 L 185.84576557017863,90.4412316121161 L 186.271918842569,89.38350226916373 L 186.85003374703228,88.5265859728679 L 187.46118370443583,87.95816298387945 L 187.10770776309073,87.02414409909397 L 187.2464553900063,85.89808258693665 L 187.89394401200116,83.54218664579093 L 187.96992482803762,82.35205987934023 L 187.46118370443583,79.980863109231 L 186.65842989832163,78.80187601968646 L 186.08361854217947,78.2927921935916 L 186.18933098949492,76.91180709004402 L 186.10674313642085,76.37368447426707 L 185.74666015990078,75.77096108719707 L 185.27756125107408,75.27047552820295 L 183.71169579029083,75.27047552820295 L 182.6215362753719,72.21633291244507 L 182.19207951799035,71.95372827164829 L 179.96551129966974,69.1637424537912 L 178.12875775061548,68.42635252419859 L 176.20611286349595,68.77212300989777 L 174.29668198525906,69.46789012569934 L 172.5392127390951,69.76163639780134 L 172.94224135391414,69.1637424537912 L 170.35889377258718,69.76163639780134 L 169.77747531794012,70.30541727598757 L 169.20266396179795,71.25142163038254 L 167.02234499529004,71.9099619211629 L 165.73397472314537,74.34468728583306 L 164.68345735780895,75.27047552820295 L 163.1770550943911,75.35388691630214 L 160.4946021027863,73.98608690313995 L 158.5587431434542,73.31898061186075 L 157.23073059134185,72.39557750429958 L 156.09432195313275,73.11469404119998 L 154.1650700289756,73.61916930228472 L 152.58599049784243,73.41070338431746 L 149.88371633552015,72.24134342372417 L 148.45659849978983,71.96414886321872 L 139.74192954041064,72.76033603772521 L 138.4634697251022,72.19132234435529 L 137.3633997514844,68.8054513791576 L 135.97592406906188,67.44747170992196 L 133.14150931499898,65.3611127063632 L 132.2660782430321,63.61054525524378 L 130.85547790303826,62.50551447365433 L 130.52512655593455,62.060229850932956 L 130.13531194999814,60.78282019775361 L 130.00317136012018,59.289384776726365 L 130.04942061007023,56.216318474151194 L 130.17165061458945,55.9315465092659 L 130.76958656311035,55.769419657066464 L 130.9545833133161,55.41400280036032 L 130.93476220592856,54.98171101603657 L 130.61101789399981,54.80714054591954 L 130.52512655593455,54.56607513688505 L 130.6506601087749,53.06794521026313 L 130.8422638308257,52.376146593131125 L 131.71439141780138,50.627267428673804 L 132.1372412033379,47.86166524980217 L 132.66249982081354,47.13310213666409 L 132.1471517253667,45.364989374764264 L 133.23400769010186,44.86702265590429 L 134.40675505809486,44.622204006649554 L 134.21184778772295,43.595318557694554 L 132.0117076486349,39.891679637134075 L 130.9545833133161,38.86352288257331 L 128.37453921884298,37.21800590772182 L 126.65340863727033,35.36163601279259 L 124.2055050060153,34.71535470709205 L 122.93695577606559,34.112635229714215 L 121.6518889889121,33.99044155422598 L 113.84898983128369,39.22833279334009 L 113.25435736961663,39.891679637134075 L 112.11134162917733,42.744898872449994 L 109.50156590528786,44.67822096403688 L 108.2330166772008,45.84017077367753 L 107.2915153093636,48.76263095252216 L 106.29715771786869,50.174552232958376 L 105.00218034535646,51.366636753082275 L 103.73693466745317,52.072860438376665 L 98.77836071886122,52.79578677471727 L 98.59997094236314,52.52987277042121 L 98.93362583965063,51.57434107363224 L 100.68118456378579,49.92536574881524 L 100.90582346357405,48.76263095252216 L 100.56556159444153,48.04849038366228 L 99.85530610010028,47.85751360002905 L 98.93362583965063,48.28099197242409 L 98.08462284691632,49.416641750372946 L 97.50981149077415,50.706184623762965 L 96.7896454744041,51.73220107611269 L 95.45172246359289,52.072860438376665 L 94.04442567378283,51.61172861326486 L 93.81317973695695,50.70203101914376 L 94.56968429125845,48.28099197242409 L 94.73486006073654,46.56650275271386 L 94.46397190913558,45.78621813468635 L 93.70416374132037,45.84432095941156 L 90.57903992012143,47.74126982782036 L 89.74325093440711,47.82014927547425 L 88.4251490328461,47.68314877990633 L 85.9342996980995,48.04433868546039 L 84.77806995250285,47.986214644275606 L 84.05460051260889,47.13310213666409 L 84.38164830952883,46.81555085070431 L 84.93003158457577,45.4874124052003 L 83.48309264332056,45.26124283578247 L 82.70346343144774,44.101478728465736 L 82.09561696089804,42.20152234099805 L 80.93938721343875,42.02732046600431 L 78.54764335416257,41.27457673102617 L 77.27248702570796,41.10662183538079 L 76.07661512680352,39.21175003051758 L 75.50841074436903,38.86352288257331 L 71.795261496678,38.11738937254995 L 67.82774158939719,37.81896165572107 L 68.74281487800181,35.94583398476243 L 68.32326864264905,34.75056700408459 L 67.07123703509569,34.11470623128116 L 65.40626610070467,33.93659436888993 L 62.90220282226801,34.72363993991166 L 61.66338522359729,34.818920807912946 L 60.45099570415914,33.93659436888993 L 59.968682723119855,32.60920392535627 L 60.02153894677758,30.992291592992842 L 60.45099570415914,27.623208883218467 L 59.777078937739134,26.475084512494504 L 58.24094510637224,26.48749548662454 L 55.60804472491145,27.37080982234329 L 53.9364668186754,27.134970927610993 L 51.73632680810988,25.09141695406288 L 49.760825634002686,24.090574068948627 L 44.878232503309846,20.006193439476192 L 44.11181736364961,19.687991311773658 L 43.31236710585654,19.723116734065115 L 42.730948651209474,20.138438273221254 L 41.77623321302235,22.130721759982407 L 39.579396687448025,24.863938184455037 L 39.01119236834347,25.368538921698928 L 37.498183066025376,26.168954579159617 L 36.80444525741041,26.775024018250406 L 35.11304624378681,29.835252402350307 L 34.227704647928476,30.828761056996882 L 31.337130250409245,31.52224364131689 L 29.74814019538462,32.33589272387326 L 28.2978976406157,33.402289966121316 L 27.51166145503521,34.4792306125164 L 27.442287674173713,35.68065916001797 L 27.990670951083302,40.80597348045558 L 28.281380146741867,41.985844490118325 L 29.487162629142404,44.38361911568791 L 30.22054259106517,47.10612007137388 L 30.554197488352656,49.995967536233366 L 30.33286207355559,53.38166982959956 L 29.064312843605876,59.73862448614091 L 29.312076339498162,63.1214765580371 L 31.1025807633996,68.07643640879542 L 33.82797945663333,72.82286825496703 L 37.121582532301545,77.01818587444723 L 40.570450792089105,80.32521286327392 L 45.228404957801104,86.84446140471846 L 47.11140775680542,90.55412290617824 L 49.833502965047956,98.81770389247686 L 50.96660811640322,99.98180095572025 L 52.95862684957683,100.66026463359594 L 55.938396072015166,101.0665420871228 L 56.91623616963625,101.36812681797892 L 57.920504281297326,102.10958750732243 L 58.39951377734542,103.13186556100845 L 59.169232403859496,105.74911057017744 L 59.95546865090728,107.32336472719908 L 62.44631792232394,111.13600191287696 L 64.03200442530215,115.62286339327693 L 65.07591475360096,120.38625763822347 L 64.79181259311736,123.5219372836873 L 63.2457682415843,125.99466248042881 L 58.17157132551074,130.53488751128316 L 54.85814714245498,132.40416749939322 L 53.76468414068222,133.52854637708515 L 51.39936836063862,137.87015307787806 L 48.89530508220196,140.27932177577168 L 48.28745854832232,141.43472302425653 L 48.069426683709025,142.6219862671569 L 47.937286157161,145.21877236291766 L 47.57389963045716,146.46377945877612 L 46.0212482418865,148.83635280188173 L 45.54554223269224,149.91741534136236 L 45.377063104882836,151.71258714608848 L 45.59179148450494,156.41219832375646 L 45.453043857589364,158.06556385196745 L 44.59743389301002,161.12826977483928 L 44.42565115168691,162.62636332400143 L 44.927785240113735,163.8602506648749 L 46.54320337437093,165.00971394218504 L 46.87355478480458,165.5114841191098 L 46.919803908094764,166.43256665114313 L 46.259101213887334,167.91719097364694 L 46.06749742850661,168.74544041976333 L 46.28552929311991,170.52095823269337 L 46.999088274315,170.96598162595183 L 48.13219349272549,170.92783543188125 L 49.62868510745466,171.23725059442222 L 50.712237587198615,171.8773256232962 L 51.69007761962712,172.74853378068656 L 52.482920840382576,173.85733920056373 L 53.05112522281706,175.2229644972831 L 53.1238024905324,177.0322735356167 L 52.48622439056635,178.687232458964 L 50.62964973412454,181.44017184898257 L 48.47245529666543,186.23173063155264 L 47.49461532756686,187.4238607659936 L 46.43749092705548,187.61513428203762 L 45.413401771336794,187.43873733095825 L 44.349670335650444,186.6524545950815 L 43.28593896329403,186.26572735980153 L 42.23542166315019,186.4654624229297 L 41.25097459368408,187.4238607659936 L 39.6718950625509,188.09334569610655 L 38.75351822376251,188.1018475992605 L 37.85496262088418,187.859548619017 L 37.002656077966094,187.43236169032753 L 32.12666992098093,185.77916760090739 L 30.40884288959205,185.74942290782928 L 22.235950170084834,187.0817092936486 L 21.06650635227561,188.2463816748932 L 20.746065525338054,190.27023546025157 L 21.472838578745723,196.6567946895957 L 21.353912061080337,197.78506471868604 L 20.769190119579434,198.7857895521447 L 20.35955446958542,198.91781290620565 L 19.295823097229004,198.6899679834023 L 18.859759241342545,198.76662511192262 L 17.71674356609583,200.39156811498106 L 15.192859180271626,201.40978540480137 L 9.993128711357713,201.6057807104662 L 2.2695139199495316,204.36959484778345 L 0.4724025223404169,206.04727817326784 L 0.0,209.32730544824153 L 0.24115652218461037,211.08111239876598 L 1.1463192254304886,211.98596029169858 L 1.8268430270254612,212.2121944045648 L 2.4016544464975595,212.03291383292526 L 2.824504166841507,212.1865826016292 L 3.3068172112107277,214.92769440170377 L 4.1161780543625355,217.70856110192835 L 4.185551770031452,220.76008447632194 L 4.608401492238045,224.08697181381285 L 5.4078518114984035,227.2745445948094 L 5.995877239853144,228.02783947065473 L 6.967110237106681,228.14769091270864 L 8.61225999891758,227.92083133757114 L 9.49099468626082,228.39168195892125 L 9.709026550874114,228.69133417028934 L 9.266355721279979,232.3611984392628 L 10.531601464375854,233.5992885529995 L 15.642137045040727,234.40483274124563 L 21.591765033081174,238.6743871960789 L 23.96699133515358,239.4420430995524 L 26.966581666842103,239.3777104075998 L 48.80941374413669,233.69783312175423 L 58.37638918310404,233.40220447909087 L 63.59924418106675,231.52595950756222 L 66.73427858762443,231.29896686878055 L 69.90895521081984,231.59877044148743 L 73.83683283627033,232.6439222060144 L 75.09877509437501,233.22654826380312 L 74.41164425574243,234.81193256936967 L 75.27716480754316,236.05483667273074 L 78.0058671142906,237.79964173585176 L 79.54530443064868,239.42488763295114 L 80.39761097356677,241.05917372647673 L 80.7477833647281,243.0544054536149 L 81.38866501487792,256.45975852385163 L 82.04936770908535,258.2495132293552 L 82.78935483284295,258.1935748811811 L 83.6416613124311,257.84074576571584 L 85.81537324376404,259.78157524205744 L 86.86589060723782,258.98536812048405 L 88.57050362974405,256.1973655698821 L 89.42941714450717,255.75433607026935 L 89.85887390188873,256.29629918932915 L 89.99101449176669,257.6557343956083 L 90.44689933024347,258.9079053066671 L 91.57670099660754,259.32535649556667 L 92.35302672348917,260.92228150740266 L 92.36954428069293,262.0933564957231 L 90.93912289664149,265.15133911464363 L 90.3213658388704,266.9524390567094 L 90.09342338889837,268.51270300522447 L 90.53279066830873,269.16365762613714 L 91.8674101922661,268.2368241325021 L 93.16899453662336,265.3753683967516 L 94.14353108406067,261.77042583283037 L 95.60698764771223,259.50181424524635 L 98.32577936910093,260.6424644822255 L 98.11105092614889,262.4938159901649 L 92.48186369985342,270.2846807297319 L 92.16472642309964,271.12128014024347 L 92.06892456300557,271.90624275710434 L 92.20436863973737,273.61887195147574 L 91.98633670993149,274.25315000023693 L 90.84992800839245,275.1680155675858 L 90.71448393166065,275.91900555603206 L 91.54366588033736,277.45582300331444 L 92.54793399386108,276.6441935990006 L 94.0014799721539,274.0330863632262 L 94.82735843583941,274.29630070365965 L 97.09356874041259,276.2815880253911 L 98.38854611292481,276.7003131331876 L 103.03989324346185,275.96648529265076 L 104.49343922175467,276.2038898309693 L 105.01539441756904,277.22700085211545 L 105.11449976451695,278.4446131782606 L 104.90968197025359,279.7229548152536 L 104.49343922175467,280.8935804767534 L 101.51366999745369,283.0497177541256 L 85.94090679846704,279.9993907418102 L 83.68130346387625,280.87198004778475 L 80.82046069577336,282.6737391073257 L 79.16870389692485,284.5063296565786 L 80.50332335568964,285.4444643892348 L 86.66107275150716,287.07900504395366 L 88.0815836135298,287.2087506549433 L 91.78482240438461,286.5600521750748 L 93.28131401911378,286.7589784730226 L 95.50457868725061,288.039192719385 L 96.77643146552145,288.5669326810166 L 107.17589227668941,290.18506444990635 L 108.632741805166,289.94274797290564 L 112.85132869146764,287.80561860930175 L 118.59944237209857,286.0757390912622 L 121.78072603046894,285.9719631159678 L 124.18238041177392,287.07900504395366 L 124.18238041177392,289.0601110737771 L 119.53103321790695,293.25818981882185 L 119.26675216667354,295.73521618545055 L 120.94493710808456,295.94745937082916 L 123.4060546848923,295.0032546585426 L 125.46414364874363,295.35839578229934 L 125.93654617108405,299.4657914591953 L 125.53021394275129,301.32549815252423 L 122.55044465698302,307.4247726034373 L 121.1827900800854,312.1577654257417 L 118.60604940727353,316.52084617409855 L 118.63247755169868,318.2600667225197 L 120.92181245051324,319.83887435495853 L 124.8034409545362,320.1651294324547 L 125.72181779146194,320.7263323953375 L 125.986098844558,321.866312418133 L 125.54673156514764,326.3457985650748 L 125.58307016640902,329.4473975999281 L 126.03234803117812,331.97524746879935 L 127.0167950373143,334.17278645932674 L 128.64542730525136,336.2839320516214 L 129.553893558681,337.047455182299 L 130.5746792294085,337.6147111551836 L 132.6525893639773,338.2998582050204 L 133.80881904624403,338.16893198248 L 135.46057590842247,336.61986946780235 L 136.45823698490858,336.00472676288337 L 138.49980839155614,335.80405649729073 L 139.9467473961413,334.44753934349865 L 142.43759660422802,330.55428146291524 L 143.19079773500562,329.87443714402616 L 144.80291238427162,328.81125600170344 L 145.50986426509917,327.9573709014803 L 146.6793080829084,325.9582189740613 L 147.34001084044576,325.0742892520502 L 148.1460681334138,324.33851272054017 L 150.11496227048337,323.60718542709947 L 151.82618233002722,324.1339057199657 L 153.35240563750267,325.4966422263533 L 156.03485869430006,328.9114652303979 L 157.30010443553329,329.9790231818333 L 158.707401227206,330.68503010086715 L 170.49103423580527,334.39956562407315 L 176.53646421059966,339.0680207964033 L 183.16991955041885,341.70938326139003 L 187.7981420867145,344.5092774974182 L 191.34611569344997,348.6745821069926 L 193.11349552497268,357.6056966604665 L 195.51845345646143,358.2451189830899 L 198.36608215235174,357.0539253735915 L 200.74461200460792,354.3090169224888 L 202.75975526683033,352.53670708462596 L 214.42115833424032,339.3124583186582 L 214.94972050189972,338.5704489443451 L 214.8241870123893,337.00818573497236 L 213.56554836966097,337.4794371770695 L 211.34228363633156,339.4215855561197 L 210.06712743639946,339.28190297074616 L 209.4658879376948,338.21257371641695 L 209.6211531199515,336.75948564708233 L 210.62211768329144,335.45944382529706 L 216.46933683939278,334.0986491218209 L 218.91393692232668,332.677145534195 L 218.2135919481516,329.09446082636714 L 217.2225379087031,328.467072436586 L 216.6741546317935,327.39544589072466 L 215.08516457863152,326.89019698742777 L 209.3271403759718,322.0838921200484 L 207.08405466377735,319.2908082799986 L 206.26808678545058,318.5905793560669 L 203.46670721285045,317.4686547713354 L 202.60118666104972,316.5990994973108 L 200.41756414435804,313.12656445708126 L 195.40283048711717,311.8406611485407 L 193.50331013090909,310.60716461390257 L 192.4924349822104,308.97884080186486 L 192.69725277461112,306.8171526901424 L 194.4811501633376,304.2398350639269 L 193.61562954820693,301.3211624128744 L 196.80021675676107,299.89923478569835 L 198.14144325256348,299.50913419760764 L 199.54213300719857,299.634830375202 L 200.74461200460792,300.0076008476317 L 201.9603050108999,300.13764284644276 L 203.37420883774757,299.5438087610528 L 205.0722148232162,296.7531897034496 L 205.92452130280435,292.87720494158566 L 207.067537041381,289.3196959728375 L 209.64427765086293,287.4639256298542 L 212.33994477801025,287.2909243060276 L 215.08186109177768,287.51582702156156 L 224.19295163080096,290.3278629248962 L 229.8584774583578,290.8428328735754 L 231.1765794251114,290.71300411690027 z" /><path fill-rule="evenodd" fill="#D2EBD9" stroke="#A6A6A6" stroke-width="0.25" opacity="1" d="M 201.7554871533066,260.93950148206204 L 209.5022266022861,258.33987619075924 L 211.74531237967312,258.2624220410362 L 213.7670626770705,259.1876373132691 L 214.55329892411828,258.98536812048405 L 215.03230841830373,257.44921707268804 L 214.9298994578421,255.95649089850485 L 214.27250025048852,255.35434851516038 L 212.16816210001707,254.93718713801354 L 210.33801552467048,253.99116039648652 L 207.054323034361,251.33881956338882 L 206.6876329574734,251.63107569515705 L 204.86078993044794,254.75656997878104 L 204.22651531733572,255.5607901988551 L 202.05941042117774,257.07492344174534 L 201.20710387825966,258.29684609826654 L 200.72479089722037,259.67827727645636 L 200.79746822826564,260.9653314584866 L 201.7554871533066,260.93950148206204 z" /></g></g></g></svg>