<svg xmlns="http://www.w3.org/2000/svg" xmlns:xlink="http://www.w3.org/1999/xlink" width="500.0" height="346.8651372017339" viewBox="0.0 0.0 500.0 346.8651372017339" preserveAspectRatio="xMinYMin meet"><g transform="matrix(1,0,0,-1,0,346.8651372017339)"><g><g><path fill-rule="evenodd" fill="#D2EBD9" stroke="#A6A6A6" stroke-width="0.25" opacity="1" d="M 310.8085611630231,20.624995940364897 L 309.47374255768955,22.936675356701016 L 309.3828148841858,24.094214442186058 L 310.1065993439406,25.128939201124012 L 310.1065993439406,26.139326818287373 L 310.33937423303723,27.167940825223923 L 310.33210000768304,27.596060154028237 L 310.1065993439406,27.91438228264451 L 310.33210000768304,28.887464472092688 L 310.31027736887336,29.591662976890802 L 309.8010822702199,32.567033272236586 L 309.12458020448685,33.898480829782784 L 307.9461572673172,35.16080113966018 L 307.2332841102034,35.54273318964988 L 305.8875542394817,35.89774343371391 L 307.4405992832035,37.462023415602744 L 307.3387602698058,38.743646340444684 L 307.4405992832035,39.26992504578084 L 308.2916825078428,39.82552918419242 L 308.6117480304092,41.51088816765696 L 309.22641921788454,42.56437772978097 L 308.54991715215147,46.81089005153626 L 307.920697549358,48.087001986801624 L 307.8443182557821,49.55534689221531 L 307.3387602698058,50.53459516633302 L 306.72045193612576,50.90696383733302 L 306.98232372663915,51.505095849744976 L 306.4804028198123,52.75587002187967 L 306.68408084474504,54.8995111733675 L 307.4405992832035,58.42172372061759 L 307.1714533008635,59.60490425117314 L 307.73156790435314,60.82245040964335 L 307.920697549358,61.85023709945381 L 307.1532677728683,64.97173219267279 L 303.9744355045259,65.47488425672054 L 278.1727924551815,65.00799290277064 L 277.0089179314673,65.65848542749882 L 276.2851334735751,66.93490276951343 L 275.2631061654538,69.62761804368347 L 274.5211361795664,70.82835022360086 L 270.793100643903,75.38549470435828 L 269.1673134174198,77.87681520916522 L 267.8470432627946,80.69556706678122 L 266.8031933158636,82.0961515987292 L 265.479286050424,82.67021892219782 L 262.5914224367589,83.18741932976991 L 261.30024915002286,83.94855570420623 L 258.9906856678426,85.90688499808311 L 253.9241944141686,87.56061751861125 L 253.54957230947912,87.58571495115757 L 253.21859551779926,87.4100369727239 L 252.5602789800614,86.49301099963486 L 252.2256650775671,86.42230553925037 L 251.75284103676677,86.79523675329983 L 251.09088741987944,89.04967748187482 L 250.50167595222592,89.68544030468911 L 249.98156951740384,89.77676268201321 L 248.86497742310166,89.33387242816389 L 248.574008801952,89.3509933706373 L 247.76293374411762,89.96626462507993 L 247.18463357910514,90.11924392636865 L 247.08279456570745,90.43549951259047 L 247.45377959497273,91.5820348141715 L 246.58451080694795,92.62042360194027 L 244.38042344897985,94.45581665448844 L 243.96943028829992,95.06402811780572 L 243.194726286456,99.04301247838885 L 243.67482455261052,100.36887398082763 L 243.3656703326851,101.22100252658129 L 243.47478360682726,102.20511695556343 L 243.31111375056207,102.79068341478705 L 241.92537563852966,104.41041125450283 L 241.11430058255792,104.62482960242778 L 239.13935103826225,103.71680023893714 L 238.38646971434355,103.78787438478321 L 233.6909634899348,107.18057267740369 L 232.5416373834014,108.37423548195511 L 232.15246686153114,108.59235503803939 L 230.66125266067684,108.90004301816225 L 228.77723079174757,109.89907836727798 L 226.04576277546585,110.52851103525609 L 223.93624023906887,111.70959564018995 L 223.6561829559505,110.73988033644855 L 223.18699602782726,110.15290448721498 L 222.4559373781085,109.99785002693534 L 221.30661126971245,110.14141868427396 L 220.52827019244432,109.48564770910889 L 219.73538066260517,109.40067121013999 L 218.9388540573418,109.52009834907949 L 217.418542990461,110.14716160297394 L 215.65090855024755,111.7187886312604 L 215.07624553143978,112.01757442578673 L 214.3888321276754,111.96471031196415 L 213.84326597489417,111.56825684569776 L 212.62483483366668,109.46268091909587 L 212.0138007234782,109.16871937830001 L 208.82769422791898,108.8518213769421 L 208.33668469451368,108.98271035216749 L 206.9654950350523,109.86002989951521 L 204.2231157142669,110.27235880307853 L 203.62299294397235,110.5009421352297 L 203.0228701364249,111.00181323196739 L 202.85192605480552,111.50735659524798 L 202.7573612332344,112.93478599004447 L 202.07722208835185,114.30763214547187 L 202.1208673696965,115.27839803416282 L 201.2588728070259,115.87204053346068 L 199.50578685104847,116.10561528801918 L 197.18531203083694,116.65222200844437 L 191.6678194142878,119.3094493439421 L 190.44938830658793,119.63887416757643 L 188.70721361786127,119.41195915360004 L 188.1798330284655,119.63196283206344 L 187.40512906387448,120.82784274313599 L 186.24125450477004,120.79442589171231 L 184.87733907066286,121.75904131773859 L 182.10222580842674,121.59537093155086 L 179.71992014348507,122.19246144965291 L 178.01775365881622,121.85010090190917 L 172.9548995550722,123.86789223458618 L 172.06380812637508,125.0549337407574 L 172.75849572010338,127.41414347849786 L 172.8457863163203,128.1578085720539 L 172.67120512202382,128.9397631837055 L 171.91832383349538,130.01540067326277 L 171.51096774823964,131.35264257434756 L 169.94701136648655,133.22708992194384 L 169.31051750294864,134.77741577476263 L 168.4994424469769,136.1594469891861 L 168.23757068999112,137.1772467708215 L 167.0955188088119,137.68800344876945 L 166.32445195503533,137.68800344876945 L 165.71341781131923,137.38918369915336 L 164.17128410376608,135.24728688970208 L 161.90536593832076,133.69211024977267 L 161.18885566852987,133.8054835125804 L 159.79220625571907,134.3839796576649 L 153.95101107284427,135.5586427692324 L 152.74712838232517,136.25438184011728 L 151.3686644975096,137.37991839740425 L 151.03041344694793,137.4447759753093 L 149.34643252566457,137.15640125703067 L 146.52403683401644,135.91286072600633 L 145.95664804056287,135.80983258597553 L 144.54908728972077,136.68509677704424 L 143.94896448217332,136.83331296034157 L 140.72284981794655,136.72909773793072 L 139.44258786924183,136.23817325104028 L 138.25689070485532,135.40469732694328 L 136.03825493343174,133.3404469769448 L 135.81639134511352,132.72975339274853 L 136.7729506958276,131.6266309171915 L 136.9402576647699,130.8498123763129 L 136.81659597717226,130.02002287190408 L 136.46379654668272,129.315214025788 L 135.91095613315701,128.90279804263264 L 132.89579375460744,128.39341482985765 L 132.3247678130865,128.4742640061304 L 131.05905427783728,128.99867723323405 L 129.63694511167705,129.1812020065263 L 124.60318787395954,128.26175042334944 L 124.06125879846513,128.28946879319847 L 122.02084129676223,129.14192367717624 L 120.22774710319936,129.16040752455592 L 118.33645104244351,130.1355797816068 L 116.15782343968749,130.61865206621587 L 115.11033638007939,130.6209635687992 L 108.15254906751215,129.1534760305658 L 105.91572773270309,129.0564371459186 L 105.0610073953867,128.70873790141195 L 100.99108369648457,125.71035567391664 L 98.98703728616238,125.11262403521687 L 98.22324465774,124.68343232944608 L 97.90317913517356,123.97746500186622 L 94.75708084367216,123.18862269073725 L 93.8150699455291,121.69334163609892 L 92.51662243157625,121.23117603268474 L 92.05470976233482,120.15957095194608 L 90.41073700971901,118.31791875883937 L 85.1260192822665,114.66761029791087 L 84.0712579973042,113.51650855038315 L 83.61298244073987,112.77615219075233 L 83.26382005214691,111.18793609552085 L 82.68551992252469,109.80720039270818 L 82.72189101204276,108.87133954651654 L 83.26018293946981,108.25484981946647 L 83.46386099979281,107.65109983552247 L 83.31110244616866,105.95063289627433 L 82.83100425079465,104.83582154009491 L 82.72189101204276,104.15702577587217 L 82.55822115577757,103.83831498492509 L 81.66712972708046,103.08866307605058 L 79.55397007986903,101.56924708280712 L 78.85928248614073,101.28973207063973 L 77.99365081079304,100.35513174813241 L 77.46627018600702,100.10549143422395 L 76.68792907334864,100.09404045622796 L 74.54567256011069,100.563561482355 L 73.74914595298469,100.43987631145865 L 67.79520042054355,96.9785626810044 L 66.54039818793535,96.56216622702777 L 64.18355231359601,96.63079936802387 L 62.88146768696606,95.56485719326884 L 62.2449738252908,95.29270786326379 L 51.94487030059099,96.09659707453102 L 51.44942175410688,101.66313388478011 L 51.102894162759185,103.42445045989007 L 50.23800709657371,106.05011783633381 L 50.074766820296645,108.00537249073386 L 48.817530343309045,113.94328416045755 L 48.19320787489414,126.74565496016294 L 50.01462567970157,134.55211837403476 L 49.877160185948014,135.77145903743804 L 50.28096505999565,137.17727437987924 L 50.34110620059073,139.1019099559635 L 50.16068274341524,142.395587047562 L 49.54495188035071,144.23192881792784 L 48.89199080504477,148.86851991340518 L 49.21274361200631,152.50012068729848 L 49.61082077026367,154.30920180212706 L 50.16068274341524,155.8001185208559 L 51.807404808700085,158.42969858646393 L 52.408816350623965,160.05292476061732 L 52.05942486785352,161.4013387588784 L 52.58637594804168,161.8313333876431 L 53.0646413192153,163.55924185272306 L 54.37342736311257,166.48409714736044 L 54.026899771764874,166.36631563771516 L 53.97248634696007,167.3105295104906 L 53.50281254760921,167.7744556311518 L 52.27707857079804,168.21819378994405 L 52.05942486785352,168.80748457834125 L 51.34345875866711,169.11690563336015 L 50.43847758881748,171.5712304059416 L 50.043264320120215,171.8809185065329 L 48.67433710210025,171.92884911317378 L 47.49728883616626,172.2090731067583 L 46.789914298802614,171.689203299582 L 46.40615645982325,172.06895804405212 L 46.10545068979263,172.75115488748997 L 45.19187794625759,175.3337577097118 L 44.85107807070017,175.01266354881227 L 44.95704106427729,174.29862145800143 L 45.55272485874593,173.13656822033226 L 45.55272485874593,172.854418983683 L 44.985679706558585,173.15869861282408 L 44.475911838933825,173.84297248907387 L 44.23534720763564,174.68606633786112 L 44.61051347479224,175.91513095330447 L 44.32699088193476,176.74400141928345 L 44.35276566632092,177.19083149544895 L 45.55272485874593,178.1197734363377 L 44.50741433724761,178.225058269687 L 44.49882273003459,179.1838641706854 L 45.28924933448434,181.24839951936156 L 43.58811384625733,180.09120790008456 L 43.0153409447521,179.3723339093849 L 43.51078952662647,179.05083344504237 L 43.85158936865628,174.06617699749768 L 42.170500949025154,176.57045616582036 L 41.96716656535864,178.29894442670047 L 41.72660196945071,178.97508226986974 L 40.96481400728226,179.05083344504237 L 41.26838363520801,180.34996830113232 L 41.20537863858044,180.98032251466066 L 40.8445317260921,181.24839951936156 L 39.764854814857244,179.05083344504237 L 39.63598092831671,180.11338657326996 L 39.80208506248891,181.45917927101254 L 40.48654867336154,184.04328937642276 L 39.52429021894932,183.11077021062374 L 40.245984042063355,185.28522213269025 L 39.28372558765113,184.9760817596689 L 39.67034728266299,185.95358624868095 L 39.567248180508614,186.32578340079635 L 39.137668488547206,186.0980158308521 L 38.562031764537096,185.28522213269025 L 38.304283956065774,185.6221637893468 L 37.906206795945764,185.38704140949994 L 36.379767049103975,185.28522213269025 L 35.71248661726713,184.72064714878798 L 35.391733810305595,184.75396355148405 L 35.41750859469175,185.6221637893468 L 35.17694396339357,185.6221637893468 L 34.52684674412012,184.72064714878798 L 34.04571751691401,184.41156166419387 L 33.492991687729955,184.38195024244487 L 33.976984770968556,185.6221637893468 L 32.99181539006531,185.6221637893468 L 32.513550056144595,185.28522213269025 L 32.032420828938484,185.90729614440352 L 30.666357465088367,185.2981807794422 L 30.110767778009176,185.28522213269025 L 30.110767778009176,185.6221637893468 L 30.328421480953693,185.95358624868095 L 30.236777808517218,186.131346616894 L 29.102687468752265,186.30356146395206 L 28.186250871047378,186.8406353490427 L 27.47887633368373,186.80359286163002 L 25.777740878984332,186.28689510188997 L 25.064638627693057,185.90729614440352 L 26.74859090335667,184.9760817596689 L 26.107085255905986,183.9563167123124 L 25.780604735016823,182.63351491559297 L 26.26746167615056,179.98216517735273 L 26.175818003714085,178.87162023875862 L 25.83788201957941,178.33219376392663 L 25.471307357773185,178.42824936192483 L 24.60642029158771,184.87427567970008 L 22.911012552678585,187.68717395421118 L 22.78786638006568,188.47093256842345 L 23.122938506305218,189.35497753787786 L 24.46322708390653,190.75475535541773 L 24.904262205585837,192.2757437452674 L 25.61450060084462,192.8583641620353 L 26.061263436451554,193.72321489080787 L 27.341410839930177,197.27417518012226 L 28.295077722519636,199.22964693699032 L 29.49790077097714,200.53520721942186 L 30.829597743228078,200.2599159842357 L 29.549450339749455,199.3635257128626 L 28.535642318427563,197.9320601662621 L 28.065968554466963,196.23373248334974 L 27.223992416635156,195.29762635473162 L 27.424462907016277,194.15015954710543 L 28.730385094881058,193.97380586341023 L 32.58228280209005,194.74426521360874 L 34.80750544555485,194.64771547727287 L 35.512016125023365,194.40264084003866 L 36.6203316450119,192.49282228201628 L 37.11005247756839,192.13103297632188 L 37.705736270174384,191.9362404346466 L 39.163443272933364,191.8453413490206 L 39.77344642020762,191.53556194901466 L 40.09992694109678,191.54112656693906 L 40.245984042063355,192.00116992276162 L 40.1085185483098,192.79156151320785 L 39.52429021894932,193.08847307227552 L 39.97964466176927,194.25226354412735 L 40.41495203413069,194.09632422588766 L 41.44594323448837,192.77671665605158 L 42.1160875223577,192.79341711942106 L 43.14135100878775,193.79746199492365 L 43.85158936865628,194.02021379303187 L 45.28924933448434,193.40026019979268 L 45.69591806642711,193.82344891969115 L 45.5899551063776,194.28382358886302 L 44.831031035631895,194.98750939313322 L 42.56285039521754,195.66534933261573 L 41.92993635311723,196.23373248334974 L 42.496981505304575,196.42507396731526 L 42.82632591761649,196.75391107052565 L 42.85782841593027,197.24815996270627 L 42.53993946686387,197.9320601662621 L 42.06740184687078,198.4079040903598 L 41.59486419148743,198.5082865320146 L 39.90518416464329,198.32053675223142 L 39.65316410548985,199.9772094776854 L 38.99161142297089,200.99283890984952 L 38.562031764537096,201.2495882064104 L 38.78254932537675,199.03999499510974 L 38.562031764537096,199.03999499510974 L 37.28188432753086,201.06539641227573 L 36.36544772796333,201.97529682237655 L 35.41750859469175,202.19118085876107 L 35.898637821897864,200.91098123881966 L 34.91633229702711,201.53426941018552 L 34.93637936748564,200.66542086470872 L 35.5979320500046,199.79123209696263 L 35.65807319059968,199.03999499510974 L 34.45525014027953,199.85446318984032 L 34.31778464652598,201.48775110207498 L 34.91633229702711,205.00274333916605 L 34.50679970905185,204.76804027426988 L 33.633321037516,204.77362822461873 L 33.2323800213635,205.00274333916605 L 33.2323800213635,205.3119819862768 L 34.400836715474725,205.89701040647924 L 36.24230155535042,208.4918213635683 L 37.359208680689335,209.7228675270453 L 36.85803241841495,210.6334054414183 L 37.479490995407104,210.91520319879055 L 38.69090565107763,211.13356715720147 L 38.685177901759744,211.4751412132755 L 38.304283956065774,211.8839589767158 L 39.74480777978897,213.57579791732132 L 40.00541944615543,214.42019089590758 L 39.52429021894932,214.1063191741705 L 38.9200148191303,214.71353982761502 L 38.398791486397386,214.83499806560576 L 37.09859701432288,214.73409395944327 L 36.50291322171688,214.93964277766645 L 35.17694396339357,216.01619091350585 L 33.93975452333689,216.20499869063497 L 32.77129782922566,215.6759916814044 L 31.290679935365915,213.99609787482768 L 29.738465402275324,213.13874558079988 L 28.149020621553063,213.95313131343573 L 25.855065196752548,215.77692603692412 L 25.253653654828668,215.5432865731418 L 24.21407088264823,214.73409395944327 L 21.67382311075926,214.42019089590758 L 22.08049187809229,215.160155528225 L 22.664720207452774,215.6759916814044 L 20.227571573108435,214.88358268607408 L 18.904466208070517,214.71353982761502 L 17.807606117799878,215.0480284690857 L 17.237697074189782,216.40690474491566 L 16.747976277023554,216.8892885344103 L 16.12938155606389,216.30034158751369 L 16.123653806746006,215.81430996209383 L 16.971357693895698,214.2651193914935 L 17.33220460638404,211.11676938738674 L 18.540755404159427,209.38707988522947 L 18.904466208070517,209.0960929375142 L 20.23043543100357,206.59396944381297 L 21.67382311075926,205.3119819862768 L 21.67382311075926,205.00274333916605 L 19.99559854902327,205.93800371605903 L 20.471000026911497,205.58957748953253 L 21.438986230641603,204.3489710725844 L 21.19842159934342,204.0640358403325 L 20.072922902181745,205.17785067204386 L 19.608976854011416,205.81316207442433 L 18.6037604380399,208.22888754494488 L 18.122631210833788,208.84989420883358 L 16.87398630566895,209.39267603773624 L 16.455862076953053,210.13705497141927 L 16.017690846696496,212.87355544418097 L 15.711257327347994,213.36286739446223 L 12.323305703699589,216.09283428173512 L 11.106163296848536,217.36239590775222 L 10.584939965978265,218.35746331419796 L 10.854143237695098,220.35229066666216 L 11.635978236794472,222.9665776975453 L 11.27513132430613,223.82849781028926 L 10.321464441716671,225.12557348236442 L 10.759635707363486,225.53430133033544 L 10.60212317854166,225.98808942176402 L 9.857518393546343,226.72704257257283 L 9.195965711027384,228.50011823233217 L 9.301928704604506,230.27795812673867 L 10.51907111145556,238.23340089432895 L 11.00020033866167,239.76439904235303 L 11.782035300508142,241.29615281894803 L 13.895567269995809,244.25440894905478 L 14.972380289807916,246.27345170918852 L 15.149939889088273,247.94629205670208 L 14.834914797917008,248.2182613108307 L 13.918478198349476,248.44492060691118 L 13.72373542189598,248.75093705579638 L 14.073126869276166,250.0320014031604 L 13.895567269995809,250.33250486385077 L 14.917966900393367,250.84097041655332 L 15.149939889088273,250.79749241285026 L 15.17285081744194,251.73713210690767 L 14.932286221534014,252.41415239870548 L 15.759943038225174,255.90562321152538 L 17.091640010476112,259.43138430826366 L 17.3722987100482,261.03930477797985 L 16.868258556351066,264.2728599840775 L 16.851075379177928,266.147375411354 L 18.423336980864406,265.0191104291007 L 18.575121795758605,264.477918356657 L 18.317373987287283,262.93272290658206 L 18.67822089791298,262.03519597649574 L 20.213252253830433,260.0664883200079 L 21.19842159934342,256.860078911297 L 22.4098362904042,255.90562321152538 L 23.300498105585575,255.89426245354116 L 24.079469246789813,256.22374227643013 L 23.529607271775603,255.57428413629532 L 22.066172556951642,254.90792707260698 L 22.28096236847341,254.1584475170821 L 23.38068631477654,253.04591981414706 L 23.569701377302408,251.65015142597258 L 23.973506251350045,251.4610714809969 L 26.20445667952299,251.39678690955043 L 26.989155534654856,251.75036852434278 L 28.57860027998686,253.44698899425566 L 29.145645467564464,253.6551114562899 L 28.56428095884621,252.41415239870548 L 28.40676843188703,251.69931412674487 L 28.79911784082651,251.4194754101336 L 31.43100928515196,251.75036852434278 L 31.737442770972848,251.97161395661533 L 31.91213851235807,253.50942424498498 L 32.43049795180559,254.24739137850702 L 32.80852807685733,254.49909747671336 L 33.2323800213635,254.317412821576 L 32.99181539006531,252.76028438657522 L 33.295385017991066,251.85437078215182 L 33.81947224214673,251.132099901326 L 34.50966356694698,250.6519400095567 L 35.51774384081364,250.3778664432466 L 36.02178399451077,249.9299502465874 L 36.78929967060685,249.93750950228423 L 38.85128207318485,251.0791652686894 L 39.332411298528314,251.63124291040003 L 39.52429021894932,252.58437637798488 L 39.46414904296398,254.57480256818235 L 39.59302296489477,255.32627645786852 L 40.46077388897538,257.1233637360856 L 41.09655178710818,257.20671041030437 L 41.772423788905144,256.91121882013977 L 42.273600086569786,256.21238029934466 L 42.90937798470259,255.90562321152538 L 42.64876631833613,254.95146307814866 L 42.843509094789624,253.97299837414175 L 43.02679640799761,253.61726996395737 L 43.3905072119087,253.36374391335994 L 42.64876631833613,252.09642607811838 L 43.049707336351275,251.29090938344598 L 43.59384159557521,249.4197451081127 L 44.112201035022736,248.58092419896275 L 45.10882587917149,248.1389344446361 L 45.28924933448434,247.65735092759132 L 44.59046640433371,245.90162247233093 L 45.16323930583894,244.76942282356322 L 46.517847169190645,244.76942282356322 L 48.11301966384053,245.0920575093478 L 50.146363424137235,244.79206274822354 L 51.277589904144406,246.03940171096474 L 53.141965636983514,246.99458794482052 L 54.46507100202143,246.38859568536282 L 55.358596708625555,246.26212628465146 L 57.80720084160566,247.10787073150277 L 58.08213182725012,247.39109573420137 L 58.33128803037107,248.1162700196728 L 57.20578929781914,248.611148041673 L 56.88790034875274,248.92662686482072 L 58.924107966944575,248.84161441307515 L 59.95509916730225,249.00030619930476 L 61.00040968880057,249.59547293931246 L 63.15117187052965,249.53311673831195 L 63.25140715204179,249.412187166512 L 62.63567628711462,247.76499250810593 L 63.87286572903395,247.13052776828408 L 69.18247040174901,246.99458794482052 L 67.74194657802582,247.65735092759132 L 68.18298169970512,248.2598142614588 L 69.58054756186903,248.62248202506453 L 70.1275456789881,249.21190792135894 L 66.17827658168972,249.2213547397405 L 65.90907334536314,249.6408236529678 L 65.67423646338284,251.47241592314094 L 65.00981988944113,252.7432605912909 L 64.78357461281121,253.96164468862116 L 64.43991087935865,254.7186473812908 L 64.35685881227255,255.11046927329153 L 64.64324526302516,255.88100824225694 L 64.59742340818048,256.22374227643013 L 63.71821705810726,256.35062034241855 L 63.63516495376825,256.860078911297 L 63.77835819683969,257.0779028972611 L 64.59742340818048,257.20671041030437 L 65.9778060913086,258.62773908954114 L 66.6536780949682,258.7679828237742 L 67.66748611815274,258.30937163252383 L 69.80106512270868,256.5778776742518 L 70.38815734349191,256.5703021781519 L 71.37332669086754,255.930238423869 L 71.47642582841218,255.2638044115156 L 70.38815734349191,253.6551114562899 L 71.69407953135669,253.3221222385764 L 75.76649476401508,254.1054609036073 L 77.49913275241852,254.66565114073455 L 78.12059133127332,255.74657603912055 L 79.93055367283523,256.8165159346536 L 81.25365903787315,259.0371170155704 L 81.7261966932565,260.5443246178329 L 81.59159505739808,261.31622502952814 L 81.26225064322352,261.97258761897683 L 79.26613713242114,264.9374507544562 L 78.83942133188248,265.19003299064934 L 78.83942133188248,265.48062322475016 L 79.6327117588371,265.36096511781216 L 80.47182403877378,264.9393498329446 L 81.9868083242327,263.88936161622405 L 81.75769919157028,264.2956435615197 L 80.76107434742153,265.19003299064934 L 80.32003922574222,265.92890788801014 L 80.31431150995195,266.46655590832233 L 80.6436559241265,266.88648086600006 L 80.76107434742153,266.7534667532891 L 80.17970987409353,267.5497374199331 L 78.18359636329114,267.9831171296537 L 77.37598657980561,268.3804357321933 L 77.32730090431869,269.7686035288498 L 76.11015849933028,271.1554977726191 L 69.07077969424427,276.6178662078455 L 65.95203130692244,277.98879942763597 L 65.35348362289369,278.41984579432756 L 64.06188079155982,279.7553317081183 L 61.69346486963332,281.22504183929414 L 61.13787518069148,282.26189997419715 L 60.07538148202002,283.68887275923043 L 58.80382565036416,283.95638514030725 L 58.125089790672064,284.3940096832812 L 57.58381938748062,285.01328901480883 L 56.43540976382792,287.20280176308006 L 56.04592417553067,288.8445360250771 L 55.89127550460398,290.69398420862854 L 55.87982004135847,294.76443986035883 L 55.673621801659465,296.47550841234624 L 55.28127239085734,298.04739720281214 L 54.705635633319616,299.56824212521315 L 53.03027492761612,302.46226307284087 L 52.597831413149834,303.68719538860023 L 51.561112463474274,304.1142116198316 L 51.417919255793095,304.6836605174467 L 51.818860271945596,306.05193139147013 L 51.561112463474274,307.84258988313377 L 52.05942486785352,309.48977930191904 L 51.704305704683065,312.1445160228759 L 51.34345875866711,312.89875710755587 L 50.24946256168187,313.9851193148643 L 48.59987664036453,315.06029029376805 L 46.812825225293636,315.61636437661946 L 45.28924933448434,315.13751664571464 L 43.782856622710824,315.9871375989169 L 32.99181539006531,314.16460947413 L 30.92983298934996,313.0608181916177 L 30.231050057336688,312.89875710755587 L 27.521834295243025,313.02223142329603 L 25.554359424859285,314.077758051455 L 24.079469246789813,313.4274172279984 L 21.914387706667185,311.25355912745 L 18.391834447160363,308.4223749851808 L 17.572769237682223,307.0511032724753 L 13.506081717088819,298.0493169752881 L 12.119971320033073,296.193460884504 L 11.667480735108256,293.84025079291314 L 11.782035300508142,293.13100215699524 L 12.211614994332194,293.24983764160424 L 13.302747335284948,294.6992388451472 L 13.835426131263375,295.05977957043797 L 15.585247296839952,294.8910104576498 L 16.404312543570995,294.5074793631211 L 16.851075379177928,293.7750696958974 L 16.810981273651123,293.14250213466585 L 16.12938155606389,291.6708554504439 L 16.369946151971817,289.74040133785456 L 16.232480658218265,288.67993991915137 L 13.901295019313693,282.64197869692 L 13.225422982126474,279.9137209709734 L 13.72373542189598,278.2863293560222 L 14.061671406030655,276.33193544019014 L 14.299372179433703,273.39411744009703 L 16.410040257498622,268.7188625372946 L 16.61051078327,267.9013785654679 L 16.421495720744133,266.93398732692003 L 15.674027113243937,265.5565990563482 L 15.64825232885778,264.5272863227874 L 15.407687697559595,264.5272863227874 L 15.2129449211061,264.97353265900165 L 14.451156994327903,265.7997344136238 L 14.393879676237702,266.3126611756161 L 14.668810661882162,267.7436102302745 L 14.54852838255465,269.79903618525714 L 13.94138908945024,271.5722595239058 L 13.225422982126474,272.5315980426967 L 13.225422982126474,274.445463267155 L 12.383446842432022,277.64743859972805 L 11.945275578647852,278.0479216473177 L 11.378230426460505,279.8316628402099 L 10.055125061422586,280.6122584156692 L 9.788785645738244,282.1224859813228 L 9.006950683891773,282.97243741340935 L 8.611737381666899,283.2456182204187 L 7.680981425568461,283.3869940964505 L 7.340181550011039,283.6143556339666 L 6.123039178550243,285.2197434445843 L 4.845755632966757,285.98833588231355 L 4.381809584796429,286.49318881705403 L 4.31307683698833,287.6389803243801 L 5.281063005328178,289.4666367182508 L 5.275335291400552,291.04064175486565 L 5.54453856498003,291.8681833092123 L 5.450031032785773,292.4334166077897 L 5.034770695492625,292.8090196419507 L 4.745520388707519,293.75398199260235 L 4.31307683698833,294.4154391111806 L 3.482556162402034,294.42119153030217 L 3.233399961143732,294.5765113513917 L 2.703585023060441,295.3167868955061 L 2.1508591920137405,295.5603885706514 L 1.6153165381401777,296.22799591347575 L 0.4411320947110653,296.6309336135164 L 0.0,297.2943867072463 L 11.507319366559386,308.8677870091051 L 19.039769733324647,315.16526042483747 L 24.542713899165392,317.12135979533195 L 26.535849006846547,318.31772214360535 L 34.29743711464107,321.41329813189805 L 56.640190644189715,325.56375486403704 L 59.29527936689556,325.19224154390395 L 61.852166190743446,324.2624301444739 L 80.96153079532087,311.4466638797894 L 86.90092791430652,305.95131032541394 L 87.73746272362769,304.8673689458519 L 88.08662507683039,303.94015646353364 L 87.88294701650739,301.2993444399908 L 88.06843954883516,300.34882625192404 L 88.43578743003309,299.4973961468786 L 93.69140825606883,292.35871330462396 L 98.20869624428451,284.30099460855126 L 99.29255435802042,282.97851177025586 L 100.52189680188894,281.8918364569545 L 102.72598415985703,280.3692023847252 L 103.28246165066957,279.7366115497425 L 104.69365947879851,276.5659389337525 L 105.28650806099176,275.76470869686455 L 107.003222996369,274.63946822006255 L 108.09435537084937,274.2693183468655 L 112.53526402823627,274.52575724665076 L 114.60841550864279,275.3315025642514 L 117.87817545235157,275.80585440434515 L 121.02063663117588,277.3431635349989 L 122.19905957020819,277.44244952593 L 153.28542034514248,275.64853569306433 L 160.91243546269834,274.04676612559706 L 161.5925746411085,274.44350093696266 L 162.67643279209733,276.4255269197747 L 163.37112038582563,277.2269304385409 L 165.7607002388686,278.5881036296487 L 166.23352428153157,279.38038245774806 L 165.96437826380134,279.5863601928577 L 164.2003809697926,280.0201705172658 L 163.16380521282554,280.6479718275368 L 162.3927383609116,281.5208061793819 L 161.7162362933159,282.67769679427147 L 161.2434122879058,283.978207311593 L 160.97790342010558,288.2961973743513 L 160.57418444752693,289.5286046080291 L 159.79220625571907,290.81988692563027 L 159.162986619398,292.5022957706824 L 159.56670559197664,297.2784609282389 L 158.78836447745562,301.005249732174 L 158.7992758154869,302.8264119634405 L 159.79220625571907,304.2003335496411 L 163.17107943817973,305.7924219686538 L 164.61864839307964,306.89503514394164 L 165.93528143316507,308.8543292460963 L 167.8665856961161,312.5060263061896 L 170.69625557772815,315.2976708896458 L 174.0060237273574,316.9213990541175 L 177.38489690981805,317.05879400577396 L 182.36409756354988,316.1879146946594 L 184.00079609267414,316.5166113022715 L 185.94664877094328,317.4771511182189 L 186.62678794935346,317.6391114415601 L 189.0309162531048,317.5274560553953 L 189.70741832070053,317.67714886460453 L 190.48212228529155,318.2416315479204 L 189.6674101166427,319.94922428485006 L 189.95474166050553,320.57063144724816 L 191.30047153308988,321.00790409743786 L 191.80602951720357,321.5754711031914 L 193.2390500213951,324.8748924816027 L 193.54456705786288,325.98453099653125 L 193.482736248523,326.7265697950497 L 192.72985492274165,328.35280747991055 L 192.5298139769584,329.6152594536543 L 193.1262996699661,330.1240860084072 L 194.08285905607045,330.551665795967 L 195.6650009304285,332.6201926851645 L 196.30876901745796,332.9198657441884 L 197.88727384991944,333.04196338541806 L 198.55650169029832,332.80517249554396 L 199.8694976195693,331.0976275773719 L 200.4332493711263,330.7660948326811 L 201.00427527725697,330.81908832956105 L 202.2809001132846,331.37126221414655 L 202.91739401221275,331.4785042097792 L 203.68846086412668,331.3392136003822 L 207.18372150883079,329.6830158121884 L 208.3766928985715,328.8035340467468 L 209.28233274258673,327.5845123715699 L 209.64240643195808,325.88978968467563 L 209.32234090939164,323.46567863225937 L 209.73697122000158,322.8252341989428 L 210.31163423880935,322.67774244677275 L 212.57391532696784,323.02190124057233 L 213.01036827638745,323.2874221652746 L 213.13402993045747,323.67468240950257 L 212.97399718686938,324.0939634498209 L 211.1554432734847,326.149412564002 L 208.54399983212352,330.4087216388434 L 207.60562600940466,332.6337574645877 L 206.52176785841584,334.3026980450377 L 205.2815141119063,335.2751352228224 L 200.87333939783275,337.3555868016556 L 200.2150228600949,337.94973892439157 L 200.01498194783926,338.8702294221148 L 200.34232162497938,339.5685093132779 L 200.98245263658464,340.0543121220544 L 202.3099969793111,340.6378748277202 L 204.1758333221078,341.7843152433634 L 204.83414982445538,341.9933687094599 L 205.69250730983913,341.9649167768657 L 209.48964787833393,340.4214981952682 L 211.29365337640047,339.9986818609759 L 213.10129595175385,339.88495204318315 L 214.5561390966177,340.31764301192015 L 215.30174623057246,341.7100985534489 L 215.78184442780912,345.7774272598326 L 216.43288677558303,346.8651372017339 L 217.29124422557652,346.36954792030156 L 224.86370272375643,337.41240283753723 L 227.22054863534868,335.2183598661795 L 229.6937819737941,334.09788494277745 L 231.26137543283403,333.8153646280989 L 232.294314077124,333.8758143382147 L 233.30906715802848,334.15463892556727 L 234.3310944661498,334.6518997801468 L 235.22946011833847,334.7481533428654 L 236.0769062321633,334.2113940836862 L 238.31372756697237,331.87052516266704 L 238.81201132573187,331.06681445613503 L 239.14662526361644,330.15365722682327 L 239.56489265151322,326.51366091519594 L 240.03044246695936,325.66586760338396 L 241.041558470577,325.11351620126516 L 242.83465263061225,324.91671178117394 L 243.66027606837451,324.630138524808 L 245.0641997065395,323.1128641040996 L 245.9443798325956,322.77361124847084 L 247.76293374411762,322.7195310359821 L 255.20081928744912,323.8689461266622 L 258.2559898700565,323.59107916709036 L 259.8272204771638,323.78287834487855 L 261.42391080223024,323.60337361320853 L 262.5332287065685,322.3815516382456 L 263.5116107314825,320.8482184810564 L 264.7445902880281,319.7282013949007 L 267.11962169222534,318.6257859636098 L 267.54880041629076,318.006008496508 L 267.4287758413702,317.2096902290359 L 265.5520281959325,316.0652759000659 L 265.2283256314695,313.86598600354046 L 265.9193761125207,311.53605237510055 L 266.0284893512726,309.66557095199823 L 263.2861100304872,308.67326745018363 L 262.8896652497351,308.2072055498138 L 262.83510866574943,307.58223307225853 L 263.2242791876197,306.91092946752906 L 263.7262000590563,306.6847496461123 L 265.5520281959325,306.75076790340245 L 269.2509669009596,305.34635699912906 L 270.2875426579267,304.45198161154985 L 271.49506242759526,302.59687530156225 L 272.02244308777153,302.04874396696687 L 274.18288516253233,300.6330962404609 L 274.9539520163089,299.4364146878943 L 275.0194199383259,298.7656992683187 L 274.6120638884604,298.15242967940867 L 274.0592234749347,298.0768464235589 L 272.1570160780102,299.1595741007477 L 270.8331088107079,299.57911330554634 L 269.7310651335865,299.48398013040423 L 268.76359444484115,298.812034859322 L 267.8579546008259,297.51246969308704 L 268.17802008986473,295.8662608070299 L 269.2618782389909,293.7704971972853 L 271.6041756644845,290.4368221918121 L 271.9242411516607,289.57236791215837 L 271.4405058082193,288.9791858214885 L 269.9856626987457,288.2475919323042 L 269.3855398930609,287.71541340090334 L 268.92726430110633,287.05700169783086 L 268.6508440952748,286.25300962105393 L 268.2107540667057,282.4860640205443 L 268.45444029569626,281.3753164326772 L 269.4437336232513,280.3910182090476 L 276.6815782189369,276.6555154900998 L 278.8056492395699,275.08709488995373 L 280.7151308618486,273.16397396847606 L 281.72624679654837,272.43374670203775 L 282.95195216313004,272.0807854682207 L 285.0651118103415,272.13396873977035 L 289.3132537808269,273.5630128169432 L 296.4019769690931,273.9935494950041 L 298.86429897136986,273.3961356775835 L 300.5446428153664,271.6456837337464 L 301.00655551813543,272.097707292065 L 301.6794204711914,273.2558691939339 L 302.1195104997605,272.3031946485862 L 304.82551876455545,272.6416744524613 L 308.4480781387538,270.0556711740792 L 309.87746156565845,269.47110207844526 L 311.21955432370305,269.5169940004125 L 312.4343483541161,270.13297792337835 L 313.42364168167114,271.22514414507896 L 314.09286952205,272.692449699156 L 314.9548640847206,273.1881566448137 L 315.2967522125691,274.83544806577265 L 315.7732133679092,275.82037655916065 L 316.56246574781835,276.2100796243176 L 317.8609132617712,276.06242231000215 L 321.28343175910413,275.1548495525494 L 324.3458765670657,273.82664886210114 L 332.21294083446264,268.0077529186383 L 332.90035420283675,267.25220417790115 L 335.48270078003407,262.89393188618124 L 335.7809436265379,262.1203641211614 L 335.99553298950195,257.8824506783858 L 336.1664770357311,257.19674629624933 L 335.9009681660682,256.84793774597347 L 336.2937758360058,255.92679196037352 L 337.40127516537905,252.02399633545429 L 337.8049941379577,249.9040408693254 L 338.0850514564663,248.91298663429916 L 338.4705848656595,248.29883652366698 L 340.03090413473547,246.38040305674076 L 340.75650713406503,243.5313266189769 L 341.2311497144401,242.55188814457506 L 342.5405085645616,240.79733577463776 L 343.26065591163933,238.9026721911505 L 344.0208114627749,238.32636889163405 L 345.69206250831485,237.8242830587551 L 348.60174876078963,236.14408123213798 L 348.9418183863163,235.72835356462747 L 349.0509315878153,233.77708765212446 L 349.2691580988467,232.92245081998408 L 350.4639479909092,230.2597800437361 L 350.7640094123781,227.1800283100456 L 351.84423041529953,224.82697316631675 L 351.9824405182153,223.8462631208822 L 351.34594661928713,221.18418698664755 L 351.444148555398,220.12854822725058 L 352.44435322098434,216.31789593677968 L 354.9703246038407,213.12612025812268 L 355.35040239803493,212.9079165738076 L 357.383545672521,210.85469826683402 L 388.5062775053084,188.58300892543048 L 390.73946172744036,186.45145119167864 L 394.522053880617,181.14992918260396 L 396.6606732811779,178.94121630396694 L 411.1363625433296,168.5507335588336 L 412.19112379290164,167.9976609023288 L 413.2313366625458,167.801243619062 L 414.14061361923814,167.9976609023288 L 416.8648074120283,169.365900458768 L 417.92684288695455,169.49222892709076 L 418.7633776962757,168.97057126648724 L 421.8240039292723,164.98958616051823 L 429.23461117967963,158.72071713861078 L 433.75553624518216,156.09869611356407 L 438.9347778111696,154.26571305748075 L 441.29889787733555,152.77587107103318 L 449.30780939757824,145.46000685263425 L 463.34340856038034,135.93717123474926 L 465.7184399999678,135.14312239270657 L 468.1316610313952,135.33988035935909 L 469.03911945037544,135.85382172558457 L 470.74128589965403,137.22704494465142 L 471.7451276779175,137.6370399808511 L 472.9344619549811,137.53048262093216 L 476.48064210638404,135.80983258597553 L 478.80475400201976,135.43479133117944 L 479.79404733143747,134.91281503252685 L 481.97449347376823,133.15537623595446 L 484.25677869841456,132.50308565050364 L 485.40610477142036,131.96885968372226 L 486.4390433803201,130.98273697588593 L 488.07574190944433,128.9097290057689 L 491.6437447350472,127.23171725589782 L 492.7385141886771,126.9015286276117 L 495.42997396737337,126.8853664053604 L 496.7757039088756,126.51712021417916 L 498.0505101736635,125.89731344860047 L 499.24530009925365,125.04224197659642 L 500.0,122.9026565393433 L 498.70700813643634,120.37271187175065 L 496.75751834735274,117.82399254385382 L 495.53181298077106,115.62812794279307 L 495.39723998866975,113.88214962556958 L 495.677297309041,110.3929661391303 L 495.54272435232997,108.62450023926795 L 494.7716574296355,105.63289631344378 L 494.64072155207396,104.049256792292 L 495.1208198182285,102.79068341478705 L 496.3719849027693,101.58986798021942 L 496.5101950056851,100.88195737078786 L 494.7643832396716,98.53135786671191 L 494.6880039796233,97.71996903140098 L 495.55909130722284,97.04491636063904 L 494.3497529644519,96.12523483484983 L 493.8114610016346,95.52140329126269 L 493.1476888116449,95.21952863782644 L 492.7112358622253,95.43907110206783 L 492.1820366624743,96.22588408924639 L 491.82560011930764,96.4008837994188 L 490.9854281973094,96.29222278576344 L 488.5594772528857,95.49395897146314 L 487.635651845485,95.5854408275336 L 486.3444785941392,96.72002463322133 L 485.4570242781192,97.09983075596392 L 484.9623775947839,97.51515036728233 L 483.01288777031004,97.60783210489899 L 482.3036517612636,97.96942997537553 L 480.7178727388382,99.89022035710514 L 480.0777417626232,100.44216671586037 L 472.17794351652265,103.41647163964808 L 471.259573796764,104.20059293601662 L 470.3884864691645,105.96210409421474 L 468.87908670678735,106.54259907174855 L 468.56993252038956,104.74408426042646 L 468.1043827403337,104.35308255348355 L 466.0494168251753,104.23498845286667 L 465.26380148530006,103.5196348708123 L 464.4563635773957,101.91523680649698 L 463.9362571425736,99.97838821355253 L 464.21449588797987,98.07929024845362 L 464.23449998907745,97.09983075596392 L 464.04537037946284,96.20186526421458 L 462.6050756499171,94.56098814029247 L 460.97565134614706,92.30738788470626 L 459.72812337614596,91.65170753281564 L 444.30314898863435,91.25196581613272 L 441.69897977262735,90.38754547666758 L 435.3231297042221,86.93552443850785 L 434.2974652852863,86.16458532959223 L 433.64278589375317,85.04270772077143 L 433.4827531501651,83.32299832254648 L 434.1519809924066,79.97159197926521 L 434.2974652852863,78.2487956956029 L 433.82100416719913,76.75884675420821 L 428.75815006159246,67.44061538856477 L 428.1762127839029,66.03478569258004 L 427.7252114173025,64.3032451113686 L 427.61973529309034,62.51371012907475 L 428.37625372968614,59.03927881643176 L 428.21258387342095,57.29548414051533 L 427.80886490270495,55.68140708003193 L 427.1851009167731,54.16975342668593 L 424.4227174948901,49.88022753968835 L 423.70257014781237,49.0162035766989 L 422.5368770863861,48.07121672574431 L 421.3511799238622,47.62926025316119 L 418.7597405835986,47.02279078774154 L 417.57768053375185,46.39388986956328 L 417.16305025853217,45.8665138669312 L 416.60657273232937,44.113686819560826 L 416.25741037912667,43.818633457645774 L 415.23720164597034,44.165492718108 L 413.785995580256,44.40426048450172 L 412.47663679905236,44.158735351637006 L 411.2327458690852,43.53936972655356 L 408.9068154338747,41.76072493195534 L 408.16666398383677,40.50497333239764 L 408.4794552475214,37.12483385205269 L 405.13149746879935,38.43556341063231 L 404.1458412539214,38.64694581925869 L 403.0147007089108,38.46929379180074 L 401.9599394239485,38.14099907595664 L 398.65380838885903,36.19211523979902 L 397.238973448053,35.825839693658054 L 392.185212071985,35.39894204121083 L 391.5287141073495,35.032751055434346 L 389.6865190155804,32.9127559363842 L 386.8404821101576,31.57495733909309 L 383.76894453912973,30.933178269304335 L 376.10919544287026,31.10595316439867 L 375.3635883089155,30.94215334393084 L 374.81984069384634,30.374523943290114 L 374.6707192528993,29.62306371331215 L 375.2653864081949,28.515239300206304 L 375.6436456274241,27.185871480964124 L 377.4458325859159,25.554565381258726 L 377.9386606942862,24.88702775258571 L 379.0679826643318,24.349507330916822 L 379.2462009359151,24.12332585453987 L 379.00978893227875,23.426958909258246 L 378.0314069073647,22.701632578857243 L 375.3308543302119,21.817567005753517 L 374.39793619327247,20.893456400372088 L 374.42339591123164,18.039892085827887 L 374.5361462626606,17.510139133781195 L 375.1217206530273,17.031866358593106 L 375.2453823070973,16.578238640911877 L 374.8853086158633,15.219944619573653 L 374.5234163850546,12.77947794366628 L 374.05241095274687,12.284002306871116 L 371.1827328335494,11.808679857291281 L 368.8222498446703,10.668616925366223 L 365.63250627182424,8.12880124989897 L 363.2720232848078,6.969886740669608 L 361.9044707007706,5.417099020443857 L 360.91881448589265,4.639850570820272 L 357.78362753242254,3.3908249884843826 L 356.43426051177084,3.8805857487022877 L 355.354039510712,3.7336502941325307 L 352.6589425839484,6.083131386898458 L 351.7078388854861,6.029665877111256 L 350.5621499251574,4.964982192963362 L 347.1378128528595,0.2957876967266202 L 346.58133536204696,0.0 L 346.21216894313693,0.44702716264873743 L 345.34108158014715,2.6563124787062407 L 345.35017438046634,5.156512213870883 L 344.7336845844984,6.595550449565053 L 344.2172152623534,7.134785655885935 L 342.27681823447347,7.992831735871732 L 341.307529008016,8.648209102451801 L 337.69951801374555,12.21481990069151 L 336.7720554936677,12.859832014888525 L 335.726387007162,13.377713777124882 L 333.6714210566133,13.417897450737655 L 329.43782753683627,11.933640961535275 L 327.34649053029716,11.772977503016591 L 322.6000648010522,12.500485190190375 L 320.2759528681636,13.437989483587444 L 318.6574399024248,15.246747863478959 L 316.3696990609169,17.351452517323196 L 315.1549050323665,17.816357740201056 L 314.7002665195614,18.41099087614566 L 314.813016904518,19.23828175943345 L 313.68915058486164,20.132872545160353 L 314.0201273765415,20.73461481370032 L 313.68915058486164,21.027694481424987 L 313.1326730605215,21.161937682889402 L 310.8085611630231,20.624995940364897 z" /><path fill-rule="evenodd" fill="#D2EBD9" stroke="#A6A6A6" stroke-width="0.25" opacity="1" d="M 20.843302436172962,173.06464546732605 L 21.207013204693794,173.95549512654543 L 21.817016318440437,174.56429291516542 L 22.664720207452774,174.71374279167503 L 22.88237391039729,174.06617699749768 L 21.859974317252636,173.32468154933304 L 21.688142431899905,171.49934281781316 L 22.584531996399164,164.10905853658915 L 23.38068631477654,160.41661024373025 L 23.23749310709536,159.8527316218242 L 23.38068631477654,159.21366613171995 L 23.122938506305218,159.21366613171995 L 23.031294867396355,160.2843562522903 L 22.006031380966306,164.1642292784527 L 21.204149348661304,166.06268016342074 L 21.121097281575203,168.9345645941794 L 20.717292372137308,172.06895804405212 L 20.843302436172962,173.06464546732605 z" /><path fill-rule="evenodd" fill="#D2EBD9" stroke="#A6A6A6" stroke-width="0.25" opacity="1" d="M 36.27666791155934,196.88396906666458 L 37.09859701432288,197.47858808934689 L 37.516721207648516,196.93785180710256 L 37.68855309300125,196.90998133458197 L 37.840337907895446,197.17011550441384 L 38.06371932476759,195.9216663353145 L 38.78254932537675,194.81482266820967 L 38.59639812074602,194.26897178590298 L 38.158226856961846,193.74177650362253 L 37.60263716802001,193.40026019979268 L 37.09859701432288,193.40026019979268 L 36.91244584321976,193.75291354209185 L 36.07906127721071,196.37491536699235 L 36.27666791155934,196.88396906666458 z" /></g></g></g></svg>