<svg xmlns="http://www.w3.org/2000/svg" xmlns:xlink="http://www.w3.org/1999/xlink" width="238.21115716174245" height="500.0" viewBox="0.0 0.0 238.21115716174245 500.0" preserveAspectRatio="xMinYMin meet"><g transform="matrix(1,0,0,-1,0,500.0)"><g><g><path fill-rule="evenodd" fill="#D2EBD9" stroke="#A6A6A6" stroke-width="0.25" opacity="1" d="M 234.76894857175648,202.43394970148802 L 234.82346875220537,199.30939014675096 L 233.15373624116182,192.68485528836027 L 233.00906625762582,191.61531322449446 L 232.97892664186656,187.7233951780945 L 231.93609726801515,183.0136286644265 L 232.3580513689667,175.81858136784285 L 231.50811530463398,168.50656838389114 L 231.5503107663244,164.69184441771358 L 232.7438379880041,162.01345407916233 L 236.6499270927161,158.15445492509753 L 238.00620806589723,155.66829800931737 L 238.21115716174245,152.75802298355848 L 237.17435571178794,150.60075988713652 L 235.28159033320844,148.78516609827057 L 231.20671955309808,146.05652161780745 L 197.91454330459237,130.0708707291633 L 196.32317367754877,128.3555174213834 L 193.97228671610355,122.88872669450939 L 192.06143756769598,120.97273878520355 L 189.94563926383853,119.65783352497965 L 187.99259470961988,118.06254615075886 L 186.85331868194044,117.70730321900919 L 184.737520435825,118.73400994576514 L 183.64043986983597,118.88323380891234 L 182.32635430246592,117.47285385942087 L 181.83809316530824,111.9693448105827 L 181.07857583090663,109.68768067238852 L 178.61918637156487,107.37846579402685 L 177.63663617148995,105.00627755187452 L 176.9373980127275,103.97470554430038 L 176.08143402449787,103.10278566088527 L 175.12902344204485,102.33375245844945 L 171.93422834016383,101.06522835511714 L 165.38188438862562,101.15026113763452 L 162.3799825385213,98.72727164207026 L 158.44375381618738,91.74685052223504 L 154.71850223094225,87.57003967603669 L 153.80225907079875,85.98632409889251 L 153.18138379603624,81.52715999539942 L 153.2898862976581,80.34045712929219 L 157.642041137442,68.66172824706882 L 159.42027615197003,61.47449764236808 L 161.2648182604462,57.57771257311106 L 161.34318114630878,56.310970827471465 L 161.0176737010479,53.69733963580802 L 161.27687404863536,51.285150735173374 L 162.7416575215757,46.51966865500435 L 162.71754582971334,44.24359146179631 L 161.79527480341494,41.501413370948285 L 158.1966093722731,33.99704297306016 L 152.88601590879261,27.9233744898811 L 146.73151442222297,17.954148015473038 L 139.47993231005967,8.52738065738231 L 137.991037260741,7.6577342743985355 L 133.74135694094002,7.374861911870539 L 132.0234011001885,6.917402616236359 L 118.97296438738704,0.0 L 91.28674943186343,125.60552294785157 L 90.62970661744475,126.90744031546637 L 89.8219660166651,127.87871810700744 L 58.4888621866703,150.63647005986422 L 51.33372672833502,155.21442701434717 L 49.657966293394566,157.0551327788271 L 48.97681184485555,159.33621975360438 L 47.62655885517597,176.23093499289826 L 46.836901964619756,178.44915373343974 L 35.40194657072425,196.37845768546686 L 34.099916849285364,197.17897201469168 L 32.88227799534798,196.90372711559758 L 31.658611157909036,196.98827819153666 L 30.465083938091993,197.35887731797993 L 29.33183589205146,197.94720446364954 L 22.86991067044437,202.63605443248525 L 20.742056518793106,203.36175278760493 L 17.945103826001287,203.6246822020039 L 15.799165962263942,204.27665185183287 L 14.298215067014098,205.93210336519405 L 13.406083598732948,209.19208076689392 L 13.321692790836096,218.73696509096771 L 12.441617110744119,221.47999205160886 L 4.26776397228241,235.80218699667603 L 3.7674470469355583,237.58941897470504 L 3.1706834081560373,241.234335353598 L 1.4949229713529348,244.5043196300976 L 1.0910526420921087,245.70654034428298 L 0.2953678295016289,249.57050794083625 L 0.0,252.30218344461173 L 1.2116109319031239,259.3576650726609 L 1.3924483936280012,264.54559303680435 L 2.19416113011539,266.4506016485393 L 5.816938195377588,270.21510223997757 L 7.2455541882663965,272.12010345002636 L 8.842951679602265,273.78520262008533 L 11.109447890892625,274.92772303009406 L 14.816615764051676,275.5254926979542 L 15.919724309816957,276.1160315326415 L 16.649102026596665,277.00194987887517 L 17.17353070527315,278.14873594092205 L 19.36769183538854,286.5038093137555 L 20.512995729222894,288.9857790195383 L 22.79154778458178,290.6483132359572 L 27.84896870702505,292.8779395632446 L 30.28424647450447,294.6293347827159 L 35.8239006716758,297.17508645774797 L 38.717299960553646,299.76585880480707 L 40.091664703562856,300.60407852800563 L 40.55581414885819,301.079976872541 L 41.58658767491579,303.3794741323218 L 43.6843022108078,304.7053890256211 L 44.13036794401705,305.50034876400605 L 42.6233891248703,307.8785430393182 L 42.78614281862974,308.98185377242044 L 43.473325189203024,310.0413738647476 L 45.8844913225621,312.78088175784796 L 46.04724501632154,313.7456985642202 L 44.962220238521695,320.911592900753 L 44.85371773689985,323.5569686568342 L 45.44445351138711,326.3101664185524 L 46.836901964619756,330.10943320021033 L 47.86164751090109,335.3545049652457 L 48.63322068937123,337.87750395573676 L 51.38797798007727,340.93235109886155 L 54.914308389648795,346.367983893957 L 55.49298831820488,347.7701271190308 L 53.48569251410663,349.3387159369886 L 51.056442668661475,350.09917312161997 L 48.85022563301027,351.18096641637385 L 47.50600050762296,353.7256399062462 L 47.132269794121385,356.6558026704006 L 47.252828024327755,359.26944685401395 L 47.88575914502144,361.7658987999894 L 49.97744575701654,366.84350444795564 L 49.99552952684462,368.9617310198955 L 49.21190055832267,377.156842734199 L 48.217294512316585,379.50522590382025 L 45.366090627387166,384.20488295843825 L 44.672880332916975,386.7196338828653 L 44.41970784962177,389.77076564822346 L 44.75727114081383,395.4983636443503 L 46.22808247990906,400.8592532076873 L 46.41494786553085,404.8310574456118 L 47.64464256726205,410.1410693889484 L 48.83214186318219,412.70463059982285 L 48.68144401721656,414.0073789539747 L 47.97015001066029,416.78185067372397 L 48.24743412993848,419.7669537733309 L 51.008219342678785,427.5303727062419 L 51.225224286317825,428.90766262076795 L 51.31564295850694,431.89918788149953 L 51.201112592592835,433.2887845369987 L 50.70682358928025,434.62252076808363 L 49.808664198964834,435.17334122164175 L 48.70555565133691,435.48062507389113 L 47.57833546958864,436.06526005174965 L 42.5148866251111,436.7286696759984 L 40.12783218361437,437.7108096014708 L 40.24839047342539,440.2119179610163 L 41.62275515682995,441.89244852028787 L 43.304543513804674,442.9655504091643 L 47.07199062034488,444.39166782796383 L 54.13067942298949,448.69473629491404 L 55.438737066462636,450.148613744881 L 56.770906345918775,452.6966278348118 L 57.27122333087027,455.2533249007538 L 56.095779821276665,456.73900240892544 L 54.05834446102381,457.81495481636375 L 54.43207523226738,458.97390486113727 L 56.23442188091576,459.8696220004931 L 58.4888621866703,460.1443876195699 L 60.67096752859652,459.99382940586656 L 62.67826333269477,460.4116383139044 L 66.72299449704587,462.0455340188928 L 67.7658238708973,462.7948767282069 L 67.81404719874263,463.6799086299725 L 65.81277931854129,466.7579014743678 L 65.61385814286768,467.5059939469211 L 65.47866975516081,470.31701057218015 L 70.70673418231308,472.49754803813994 L 72.1306511554867,472.7678580102511 L 77.11436067707837,472.7678580102511 L 78.41961791180074,473.23424779996276 L 80.83078404515982,475.29039458232 L 83.04260178469121,476.31578117981553 L 84.33361988514662,477.5732529005036 L 86.14674083516002,479.7945908922702 L 87.94087627157569,483.2726088371128 L 89.28885102458298,484.0762254698202 L 90.92160920612514,485.83268278324977 L 91.53863990306854,486.2078628502786 L 97.94626639783382,488.8318569739349 L 98.65822494216263,489.2698070406914 L 99.88279352150857,491.27230634959415 L 100.95073127932847,491.83564003324136 L 108.63988312147558,491.9459290346131 L 110.8659399934113,492.83428284712136 L 112.28985702432692,494.37582650315017 L 113.106236115098,494.91263524163514 L 114.49218200705945,494.23268633009866 L 115.13294465094805,494.36091593327 L 115.75472172535956,494.6651002620347 L 117.4681685063988,495.0826355619356 L 118.83512882702053,495.7089977301657 L 120.07393665611744,496.53829134022817 L 120.89980850368738,497.382628377527 L 122.08640599995852,496.7023749430664 L 123.15909013710916,496.8992817844264 L 125.31395122408867,498.38227582583204 L 126.52902704663575,499.02095147175714 L 127.52102258428931,499.283605996985 L 130.0888195373118,499.3373322519474 L 132.09179612621665,500.0 L 133.1739730760455,499.1522771692835 L 133.77201820351183,498.92245930759236 L 138.7557277251035,498.79710817663 L 138.917104979977,494.5726503129117 L 137.11347678676248,493.1085686367005 L 134.89691261202097,492.14266622578725 L 133.67709041200578,490.3335444224067 L 134.77825287543237,487.7773442482576 L 135.4095227625221,487.0982729550451 L 135.77499479055405,486.0649341070093 L 136.24963380210102,485.83268278324977 L 138.80319162085652,485.48134667845443 L 139.9802963025868,485.70465092221275 L 141.27606078237295,486.7855707956478 L 141.9880193285644,487.76840850804 L 142.62878197059035,489.1208405713551 L 142.60979640111327,490.318644690793 L 138.8886265978217,491.83564003324136 L 137.13246229849756,491.38854510942474 L 136.46322133019567,491.37960352841765 L 136.46322133019567,491.83564003324136 L 137.88239192590117,492.83428284712136 L 138.4424659702927,492.98334956215695 L 139.25409868359566,493.87783402437344 L 140.1321808025241,494.01500114472583 L 145.80886324308813,492.72993862908334 L 146.85781543143094,492.83428284712136 L 149.9761936739087,494.2356683718972 L 150.47456463240087,494.10744175175205 L 151.4096034616232,492.6494458154775 L 155.51523080468178,492.03237329563126 L 157.4090404100716,490.28884542081505 L 161.74724091216922,488.7275883220136 L 162.85789618827403,487.78627992933616 L 160.98781847208738,487.29185935575515 L 160.12397554330528,486.9225619598292 L 159.3075964525342,486.3329285015352 L 158.98958832025528,487.5360856517218 L 157.36632295139134,487.7445800602436 L 155.50099167227745,487.25016321474686 L 154.4567858595401,486.3329285015352 L 154.88396097533405,485.1359872207977 L 156.41229855269194,484.5524978111498 L 158.1779556069523,484.47212396981195 L 159.3075964525342,484.79064931254834 L 159.7110395617783,484.1565935635008 L 160.22839608974755,483.3321319902316 L 160.418251670897,482.63277530577034 L 160.07176521234214,481.7430830472149 L 159.67306848056614,482.7934706918895 L 157.1527353655547,480.30321515817195 L 157.6226279977709,476.70815313607454 L 159.8202065434307,473.02629848057404 L 162.49242416024208,470.2731886380352 L 165.28330145403743,468.7798925405368 L 167.23406776972115,465.9962473763153 L 166.93029876984656,465.1448130658828 L 165.59181683138013,463.8071077782661 L 165.0269964095205,462.3155447137542 L 164.4147120900452,461.7314826687798 L 163.61731856875122,461.6010405821726 L 162.85789618827403,462.2651409879327 L 163.28981768153608,463.3741278834641 L 162.7439828272909,463.67661718279123 L 161.73774809762836,463.52240487141535 L 159.84393849223852,462.8996680304408 L 159.27437169104815,462.4667585520074 L 158.27762983366847,461.04373159073293 L 157.978607211262,459.97077227942646 L 158.8187182508409,459.6092136595398 L 160.64607839100063,459.55587092228234 L 161.40550083108246,459.14692697674036 L 161.97506763227284,459.6981193302199 L 162.85789618827403,461.3164503239095 L 164.11094314977527,458.5246784160845 L 165.65351986140013,456.4154756204225 L 167.70870672166348,455.1361227692105 L 170.49009132012725,454.81040837662295 L 171.29223121888936,455.01767892902717 L 172.47250730730593,454.96526761865243 L 175.43137914314866,456.4799801213667 L 177.2386080045253,456.92730675358325 L 178.37704924494028,458.10885092476383 L 180.04932076111436,464.7532563707791 L 181.10301932692528,465.69659889442846 L 182.33708077855408,465.9547110083513 L 185.047269474715,465.7500004293397 L 187.50115306675434,466.22767013078555 L 189.7637368105352,467.12919577164575 L 192.66471788287163,469.2157786814496 L 194.45936085283756,471.11055998364463 L 194.99095651321113,471.36892339307815 L 195.399146059528,472.41437846329063 L 198.7500973995775,475.1715214443393 L 199.2342291660607,475.7629405558109 L 199.38611366599798,476.5743868355639 L 199.0633591543883,477.5554144750349 L 199.59970119409263,478.29873270215467 L 200.85749453306198,478.89940660027787 L 203.80025638639927,479.20868983631954 L 206.05004520714283,480.92790530249476 L 207.25562827289104,481.1242510401644 L 208.28559495136142,480.60067783948034 L 208.82668336853385,479.2979093478061 L 208.74599476903677,478.67042917432263 L 208.14320320822299,477.799211837817 L 207.9960651434958,477.02920533996075 L 208.128964073956,476.2176925619133 L 208.6985308751464,475.1715214443393 L 209.0402709543705,474.0066992198117 L 210.42621678858995,471.7698559113778 L 210.82016720063984,468.7798925405368 L 211.48940817080438,467.55111846793443 L 212.55734592862427,466.3908586516045 L 213.25421935506165,465.28569305781275 L 212.92285773344338,464.0835203519091 L 212.1192607935518,462.9445995129645 L 209.78446713462472,461.98102803109214 L 206.60024756751955,459.2921732161194 L 204.87435166351497,456.0733100930229 L 202.38871394097805,452.4216715339571 L 198.28211988136172,444.7602063314989 L 195.14098346419632,436.87261885404587 L 193.6400955580175,434.8473803214729 L 188.81235383078456,433.5906371809542 L 183.17172135040164,430.38220238219947 L 181.1375946905464,430.9510983908549 L 179.11749241501093,429.4386200727895 L 177.26028258539736,426.5574480383657 L 175.62621830403805,420.81107698427513 L 174.93793904036283,417.83885625423864 L 174.67128230631351,410.29117242479697 L 174.9531403388828,407.8977851253003 L 176.1382953748107,404.1437103431672 L 176.67938384972513,402.9817884298973 L 177.22996508143842,400.731973702088 L 178.5114904269576,398.77620862424374 L 179.44178282096982,397.7062468496151 L 180.24866915494204,397.2460785820149 L 180.94638850912452,396.5427084644325 L 182.47947246395051,391.79430153407156 L 183.26737317070365,390.83982475008816 L 187.4441964160651,386.897711484693 L 190.35595482215285,385.5954022379592 L 193.86131566762924,386.8362746229395 L 194.99095651321113,386.3711317293346 L 196.06005211360753,385.37081235367805 L 195.41378249414265,384.4138795910403 L 195.0744943395257,382.9878839100711 L 195.37066773325205,381.5317948241718 L 196.0446550808847,380.5030495990068 L 198.39886456355453,379.3693057750352 L 203.665189743042,377.29653920745477 L 206.00732774846256,377.5668813320808 L 207.700144931674,376.11893793335184 L 208.5180508196354,374.4503819155507 L 206.3063503112644,373.5755204469897 L 206.00732774846256,371.9091385952197 L 206.1781977582723,370.1965669156052 L 206.7050470430404,368.66239607008174 L 207.5973683539778,367.5688930111937 L 210.26984725892544,366.7295178133063 L 208.67366453260183,365.29304415360093 L 208.26401578821242,363.36285146838054 L 207.9644831251353,361.57107434188947 L 208.19088768213987,358.45812394982204 L 207.47791611403227,356.9963922733441 L 207.7721522897482,354.39444631524384 L 209.1519662681967,352.16663782531396 L 211.21886393241584,349.5632503759116 L 212.4291933774948,348.62157365260646 L 214.68636707775295,347.52063224930316 L 214.5917570348829,346.1301141572185 L 212.96992561221123,346.07314096111804 L 211.8166114911437,345.19050699844956 L 210.69316718168557,342.9313557189889 L 208.97825799509883,341.48310048738495 L 207.3497495651245,338.1610645353794 L 206.23515446856618,337.14773913798854 L 206.6185032762587,335.1280880821869 L 206.36495367065072,332.96861313283443 L 204.3971584867686,330.4919852819294 L 202.15152102708817,329.3612495874986 L 200.506261697039,327.5031024022028 L 200.93186650797725,325.84508107136935 L 200.4398122318089,324.365083176177 L 200.42937941662967,321.53877099137753 L 198.04763166978955,319.79712730646133 L 196.92748363688588,318.5046301507391 L 197.57280339859426,317.09475379111245 L 197.80979410372674,316.1240396266803 L 195.6788759790361,315.1319947214797 L 194.30111907608807,314.1011225893162 L 192.4219223409891,312.01560088433325 L 191.51363493315876,310.1667705257423 L 190.37746539711952,309.11873258603737 L 189.8363769799471,307.85456136148423 L 188.82064949534833,306.71184619981796 L 187.88086428679526,306.08864064514637 L 183.9793317168951,304.8078145952895 L 183.452482432127,304.4789988589473 L 182.85443724878132,302.37674336181954 L 182.4130229987204,301.65021245600656 L 182.31253434158862,300.25740735558793 L 181.90673577412963,299.46308469213545 L 181.80591927841306,298.2067955546081 L 180.90722972527146,297.354745011311 L 179.61021478660405,296.704241045285 L 174.16379717178643,295.88727012462914 L 172.17505977489054,294.7814296334982 L 169.07388869859278,289.6004588715732 L 166.25631142407656,288.8583430252038 L 164.48590793460608,289.2208103854209 L 163.7881885804236,288.95902620162815 L 161.951335683465,286.4913444640115 L 161.40550083108246,285.999656741973 L 160.64607839100063,285.8012680169195 L 157.87893304415047,284.5737058799714 L 156.70657473802567,283.6452973978594 L 154.37609720416367,282.7141607441008 L 152.9437723532319,281.1921483767219 L 152.22155228815973,278.9967156490311 L 150.13679889962077,274.77681827219203 L 148.8970311805606,272.7665097643621 L 148.08238406851888,272.478422743734 L 147.289736924693,271.7785004870966 L 147.84031815640628,270.5624378393404 L 148.05865211971104,269.1602590419352 L 148.04915936477482,266.20500804204494 L 148.23901494592428,264.92132057622075 L 149.09336511790752,262.18867407692596 L 149.83380198851228,258.5986059391871 L 151.14380560070276,255.98041855636984 L 156.49773352965713,248.2527146586217 L 157.05780757404864,247.67846616311 L 157.88367942161858,247.23567524785176 L 166.2468186095357,238.8915984481573 L 168.43015802279115,237.5766708077863 L 173.00093162246048,235.56917866086587 L 175.52126467972994,234.98758702212945 L 179.55168742127717,235.5901186768897 L 183.96672039479017,236.8449299763888 L 187.6729951594025,238.87550926208496 L 188.78267835453153,239.1797229219228 L 190.14437415264547,236.70131558878347 L 189.96541581861675,231.88668805919588 L 188.25108269415796,230.40523819997907 L 187.31129748746753,230.01498736673966 L 186.58984618633986,229.06652647210285 L 186.30031643621624,227.87902406649664 L 186.642056517303,226.77716200612485 L 188.02325597405434,224.41182607412338 L 188.81115673854947,223.53822327731177 L 190.03572531603277,223.15126036666334 L 192.50859453715384,223.69187713321298 L 196.92273725941777,226.38999201357365 L 200.02687630988657,227.4604636421427 L 200.94292956776917,228.54251584038138 L 201.3890902530402,229.8697178917937 L 201.00937903299928,231.0747052761726 L 200.0126371178776,232.23719045566395 L 199.8560062982142,232.83846544427797 L 201.58843864873052,234.2293214891106 L 202.27191880904138,233.75046597793698 L 203.01235562190413,233.62505776900798 L 203.64362550899386,233.9214814105071 L 204.01859029382467,234.70821494283155 L 204.41254070587456,234.70821494283155 L 205.34757953509688,234.08110021566972 L 207.80620950460434,232.93820881797 L 208.82668336853385,232.27138456562534 L 209.60034494288266,231.2997768963687 L 211.61756072193384,228.16092797135934 L 211.81690911762416,227.48893621610478 L 212.11076105572283,223.98757120640948 L 210.55399671196938,221.48276888718829 L 211.77028199099004,217.2076112483628 L 211.26229772157967,215.18984231632203 L 212.95604271814227,215.7098751454614 L 214.10941545479,214.48236883571371 L 215.26278824731708,212.9341322449036 L 216.61550937779248,212.18146241875365 L 218.01094802469015,211.85486107179895 L 221.00117377378047,210.3158106538467 L 222.43932993896306,209.79625605233014 L 221.64193641766906,209.32216569874436 L 215.91779008321464,211.19035241706297 L 213.10318078286946,211.51407832466066 L 212.41495424322784,209.32216569874436 L 212.9797746669501,208.48762915935367 L 214.83561313338578,206.71390915336087 L 215.23430992290378,205.20736206090078 L 215.78014471754432,204.51521279104054 L 217.0616700630635,204.520885811653 L 219.61997425928712,204.99176616873592 L 222.0975898578763,204.44713681563735 L 227.0195962935686,202.61220712354407 L 229.61587163060904,202.61220712354407 L 230.56989602930844,203.2927967295982 L 230.24714145995677,204.23156778793782 L 229.2598923575133,205.06268498534337 L 228.2156865466386,205.4229655736126 L 227.55119195580482,205.88256685016677 L 225.83299879729748,207.84619237761945 L 231.11098444648087,204.06705971388146 L 234.76894857175648,202.43394970148802 z" /><path fill-rule="evenodd" fill="#D2EBD9" stroke="#A6A6A6" stroke-width="0.25" opacity="1" d="M 204.81123743765056,248.63557751756161 L 208.13845682889223,246.74435837427154 L 208.82668336853385,245.75898930244148 L 204.9583755005151,242.1816015895456 L 203.61989356204867,241.40816075261682 L 202.7845289018005,238.5350278825499 L 202.41905687376857,238.5350278825499 L 202.7845289018005,240.97153878957033 L 201.87322201952338,240.67191459424794 L 201.13794020190835,238.45723965018988 L 200.09075096063316,236.86253075907007 L 199.10973169840872,235.767138261348 L 198.76423995010555,234.49858063878492 L 197.7885111067444,235.4928868683055 L 197.7704355623573,236.71966351056471 L 198.1305619943887,237.8675353382714 L 197.08504401892424,239.4689241712913 L 196.10161178931594,239.9528774060309 L 195.17131933942437,240.78320183372125 L 194.16508466750383,241.09995374595746 L 193.08139141835272,239.99558756733313 L 192.58986654691398,238.9525918676518 L 191.51076062768698,238.70487018115819 L 190.15381295792758,239.7786154136993 L 189.78272045589983,240.8436513519846 L 189.43351891636848,242.77356993826106 L 189.46328712627292,244.62498814985156 L 190.58767890371382,246.60281820688397 L 189.8811900652945,249.4819924812764 L 189.91231920011342,251.6593382023275 L 192.06718028895557,252.47126896493137 L 196.80882389843464,251.44207959342748 L 199.34814252518117,251.2791408044286 L 201.22296662069857,252.47126896493137 L 202.960145348683,250.350188462995 L 204.81123743765056,248.63557751756161 z" /><path fill-rule="evenodd" fill="#D2EBD9" stroke="#A6A6A6" stroke-width="0.25" opacity="1" d="M 203.21645039506257,306.14057192299515 L 204.5596787687391,307.21103533450514 L 211.21886393241584,307.15332337422296 L 211.7736898995936,306.34066757094115 L 210.90160829015076,305.4526389427483 L 208.55810609646142,303.6083380463533 L 207.43771765381098,303.8456442691386 L 204.34657853469253,305.37725389469415 L 203.21645039506257,306.14057192299515 z" /><path fill-rule="evenodd" fill="#D2EBD9" stroke="#A6A6A6" stroke-width="0.25" opacity="1" d="M 220.811318134889,314.4208273133263 L 221.33916626870632,314.2073154966347 L 221.670414743945,313.67547211796045 L 223.0857731886208,312.213841966819 L 222.63316908292472,311.2485404876061 L 216.95372012071311,308.8381115049124 L 214.00483661703765,307.03424401720986 L 212.93456241302192,306.6090958635323 L 212.44234378263354,307.82421887665987 L 214.21423044241965,309.7005754862912 L 215.26171969994903,311.2413803548552 L 215.4004335552454,313.3288275487721 L 215.86254044808447,313.5971595160663 L 215.98898592591286,312.91576957376674 L 216.8680802527815,312.33630425669253 L 218.26328706368804,312.5936222523451 L 218.3911845088005,314.18470821529627 L 217.9944842532277,315.00539526948705 L 218.44652425311506,315.9716932452284 L 219.1389580834657,316.60863304371014 L 220.13894536159933,318.14542501745746 L 221.10084794275463,317.5795278828591 L 222.77599679678679,317.31819943571463 L 223.0493601076305,316.6867233142257 L 221.52802305668592,316.14590820716694 L 220.95370987802744,315.2703011073172 L 220.811318134889,314.4208273133263 z" /></g></g></g></svg>