<svg xmlns="http://www.w3.org/2000/svg" xmlns:xlink="http://www.w3.org/1999/xlink" width="160.61531805247068" height="500.0" viewBox="0.0 0.0 160.61531805247068 500.0" preserveAspectRatio="xMinYMin meet"><g transform="matrix(1,0,0,-1,0,500.0)"><g><g><path fill-rule="evenodd" fill="#D2EBD9" stroke="#A6A6A6" stroke-width="0.25" opacity="1" d="M 157.7420718073845,280.6510497080162 L 158.79436630383134,280.24411585275084 L 159.72186040971428,279.22672342602164 L 160.59829978551716,278.59230750100687 L 160.61531805247068,276.2698315382004 L 160.0707343542017,275.52750600967556 L 158.7376388409175,277.0839443146251 L 157.98032712284476,276.7247834713198 L 157.5860712500289,276.2818041383289 L 157.65414417767897,275.7310512573458 L 158.25829177396372,275.0725105009042 L 157.30810666875914,273.5756978527643 L 156.32955783233047,273.79124997137114 L 155.68002830725163,273.0248256288469 L 155.3566817282699,271.7673087026924 L 155.35951809445396,270.5096649718471 L 154.4887514510192,271.00076002813876 L 154.00656794803217,271.83917026547715 L 153.50169351603836,273.5756978527643 L 154.61922464286909,274.0247605172917 L 154.67595210578293,274.8869155086577 L 153.9356586546637,276.0782678583637 L 153.14431047299877,275.3898117369972 L 152.5997267747298,273.5876731085591 L 151.55310494126752,274.0666721719317 L 151.48503201408312,273.6595241106115 L 150.5575379077345,273.5756978527643 L 149.64706199849024,275.749011001084 L 150.96597568131983,276.84450489794835 L 152.92590972036123,277.88603306701407 L 153.9356586546637,279.87307639885694 L 154.41216935543343,280.38175674248487 L 155.52970048226416,280.6510497080162 L 157.7420718073845,280.6510497080162 z" /><path fill-rule="evenodd" fill="#D2EBD9" stroke="#A6A6A6" stroke-width="0.25" opacity="1" d="M 90.93696845183149,78.58647329453379 L 91.37093359045684,75.8037538365461 L 90.93696845183149,71.90554271778092 L 90.99369591427967,67.21366812242195 L 90.55122167710215,66.4579052226618 L 89.46489064767957,67.11005852743983 L 89.02241641050205,68.24970966624096 L 88.13746786676347,69.1637825127691 L 86.13498826511204,70.68706743279472 L 86.13498826511204,71.19884354947135 L 87.08800973650068,71.71668795263395 L 86.67957196291536,72.5269130077213 L 86.60582623351365,73.54417836014181 L 86.96320927655324,74.41517495876178 L 88.35019588656723,75.02422240655869 L 88.79267012374476,75.59669621195644 L 90.14278390398249,78.40382186509669 L 90.6816948694177,79.16484955418855 L 90.93696845183149,78.58647329453379 z" /><path fill-rule="evenodd" fill="#D2EBD9" stroke="#A6A6A6" stroke-width="0.25" opacity="1" d="M 80.42536853579804,91.16387751884758 L 81.18551661958918,90.59829300409183 L 81.44646300422028,90.01443351060152 L 81.37839000718668,88.84662215970457 L 80.77707884646952,88.1896741585806 L 76.81182876974344,85.25117881502956 L 76.56222792016342,84.60618705255911 L 77.0500841550529,82.18408891418949 L 76.79481057310477,81.29544717725366 L 76.17364477925003,80.784141310025 L 74.624984879978,80.39455905463547 L 73.11887061223388,80.74153145356104 L 72.4126136242412,81.36240211408585 L 71.29508249741048,83.51083162240684 L 70.3789338557981,84.39929492399096 L 67.05754057178274,86.06649186555296 L 66.53281150665134,85.50673118885607 L 64.8054600507021,86.52888149162754 L 62.94763547228649,87.0764230643399 L 62.2867604829371,87.45360263902694 L 60.565081828739494,89.88671017158777 L 59.563841993454844,91.91186438733712 L 60.227553348988295,93.7299309624359 L 61.84144987957552,95.1039241598919 L 63.67941982485354,95.74830496823415 L 62.81148954760283,94.68444871623069 L 61.708140321075916,93.7299309624359 L 61.23730228282511,92.75708960276097 L 62.252724018879235,91.67470330186188 L 63.00719930138439,91.3584806038998 L 63.62836509477347,91.33415539562702 L 67.57943327073008,92.11253520660102 L 68.22329006297514,91.93010736629367 L 69.73791349912062,90.70776325231418 L 69.91093225358054,89.88671017158777 L 68.86998322186992,89.21157647809014 L 68.38779971888289,88.59114698320627 L 68.67710983473808,87.8246861314401 L 69.40889418730512,87.53268706751987 L 70.80438989587128,88.35391477867961 L 71.53333788271993,88.60939543228596 L 72.39275899156928,88.46340722031891 L 74.19101974135265,87.58743748860434 L 75.2262960402295,87.84293584525585 L 76.04317158740014,89.65558794653043 L 77.0500841550529,90.65302826324478 L 78.66398061579093,91.2550981938839 L 79.5999838905409,91.3463180437684 L 80.42536853579804,91.16387751884758 z" /><path fill-rule="evenodd" fill="#D2EBD9" stroke="#A6A6A6" stroke-width="0.25" opacity="1" d="M 129.53150170948356,189.56933939969167 L 130.47601401247084,189.9069720027037 L 131.2106347316876,190.57617942942306 L 131.72118196589872,191.52265128633007 L 131.9991465471685,192.65590625675395 L 133.38046042481437,192.1013482697308 L 132.8273676284589,190.7992401602678 L 132.7337672659196,189.34022606583312 L 132.38205695524812,188.24283205159009 L 131.04612507577986,188.0498731378466 L 130.08459450583905,188.65285941632465 L 129.53150170948356,189.56933939969167 z" /><path fill-rule="evenodd" fill="#D2EBD9" stroke="#A6A6A6" stroke-width="0.25" opacity="1" d="M 80.16442222101614,196.18758913688362 L 81.27628054609522,195.31380673870444 L 81.78682778030634,193.28879391448572 L 81.65919095464051,191.06449604267254 L 80.8593336744234,189.56933939969167 L 80.8593336744234,190.12401637528092 L 80.42536853579804,189.56933939969167 L 79.71343881590292,190.24459493905306 L 78.91074509965256,190.58220813749358 L 78.91074509965256,191.0886099319905 L 78.05983308935538,193.39125821040943 L 78.00026926025748,194.1265644901432 L 78.25554284267128,195.53677805745974 L 78.67532615037635,196.13938210811466 L 80.16442222101614,196.18758913688362 z" /><path fill-rule="evenodd" fill="#D2EBD9" stroke="#A6A6A6" stroke-width="0.25" opacity="1" d="M 133.38329679099843,194.63281429978088 L 134.61144647747278,195.31983302952722 L 135.88214179547504,197.30834668828174 L 136.75574480509385,198.2121061803773 L 137.1216369466856,197.1275865342468 L 136.2792340349406,194.379692140501 L 135.76301406836137,193.439476438798 L 134.65682847518474,193.33098518522456 L 133.6357340067625,193.81316085439175 L 133.38329679099843,194.63281429978088 z" /><path fill-rule="evenodd" fill="#D2EBD9" stroke="#A6A6A6" stroke-width="0.25" opacity="1" d="M 136.5174894197844,202.21794448466972 L 137.41378342872486,201.82043293537572 L 137.69174800999463,201.05548693286255 L 137.32585586840287,200.50132209574804 L 136.2792340349406,200.74226656090468 L 135.51624958449975,201.8385018836707 L 134.59442821051925,203.65730682155117 L 134.27391806710511,205.01821739133447 L 135.32904892973602,204.78338110586628 L 135.68643204215914,204.1631501945667 L 136.03530591726303,202.5431712870486 L 136.5174894197844,202.21794448466972 z" /><path fill-rule="evenodd" fill="#D2EBD9" stroke="#A6A6A6" stroke-width="0.25" opacity="1" d="M 40.98559606960043,500.0 L 42.29032785166055,498.9989132070914 L 41.93010837258771,496.9611989194527 L 40.44101237133145,495.31197690125555 L 38.36762340692803,495.51224935101345 L 37.156491917558014,496.90230129333213 L 37.36071083880961,498.3628936819732 L 38.72500644996762,499.52890875469893 L 40.98559606960043,500.0 z" /><path fill-rule="evenodd" fill="#D2EBD9" stroke="#A6A6A6" stroke-width="0.25" opacity="1" d="M 0.4056014074012637,1.1222816961817443 L 1.0522945658303797,0.8953819368034601 L 1.4777506059035659,0.5151605815626681 L 1.2168042217381299,0.20238752057775855 L 0.6353476941585541,0.0 L 0.0,0.6746098869480193 L 0.07374572940170765,1.0486930911429226 L 0.4056014074012637,1.1222816961817443 z" /><path fill-rule="evenodd" fill="#D2EBD9" stroke="#A6A6A6" stroke-width="0.25" opacity="1" d="M 109.12663123523816,262.2419824162498 L 108.40619241679087,263.42855362640694 L 108.60757490247488,264.49517219513655 L 109.41877771681175,265.0344388196245 L 110.51645421097055,264.6090193227865 L 111.00714681250975,263.7101978007704 L 110.76889142720029,262.8652461464517 L 110.05696170730516,262.30790600087494 L 109.12663123523816,262.2419824162498 z" /></g></g></g></svg>