<svg xmlns="http://www.w3.org/2000/svg" xmlns:xlink="http://www.w3.org/1999/xlink" width="500.0" height="211.14657146017998" viewBox="0.0 0.0 500.0 211.14657146017998" preserveAspectRatio="xMinYMin meet"><g transform="matrix(1,0,0,-1,0,211.14657146017998)"><g><g><path fill-rule="evenodd" fill="#D2EBD9" stroke="#A6A6A6" stroke-width="0.25" opacity="1" d="M 464.30777915753424,176.48983469977975 L 464.1998035106808,175.6803272170946 L 464.4157548546791,174.57935746666044 L 464.83146114833653,173.58983381651342 L 465.3308485839516,173.1140133580193 L 466.4483966566622,172.95304394699633 L 467.57269323058426,172.387952436693 L 468.60251113399863,171.52985320147127 L 469.4204267449677,170.4987731957808 L 469.72005920670927,169.81997984461486 L 470.0304892491549,167.68131307233125 L 471.6258296482265,164.607136240229 L 471.8539282064885,161.65097354818135 L 471.07515375874937,160.1867685476318 L 471.27490873262286,159.4078999897465 L 470.16815818846226,158.10504094697535 L 469.81993669457734,157.39437846187502 L 469.84693061746657,156.5702847596258 L 469.29760443791747,156.82600639853626 L 469.4933103341609,156.33589819446206 L 468.8751496449113,156.2613256573677 L 468.31097683124244,155.86897179763764 L 467.41747823543847,154.80054582003504 L 467.5254538822919,154.34812258929014 L 469.1369906272739,152.81941146124154 L 468.32447377964854,150.25727872550488 L 468.59171355329454,149.7207601359114 L 469.29760443791747,149.0533843608573 L 470.45969249121845,147.53524638805538 L 470.8619018346071,146.59973412100226 L 470.38410953246057,146.2266957135871 L 471.6460750736296,144.23169422801584 L 471.3909825645387,143.7901632282883 L 470.20864908769727,143.53234800044447 L 469.84693061746657,143.19334693439305 L 470.1843545585871,142.20840584021062 L 471.38018500991166,141.54495344031602 L 473.77184591442347,140.86228924803436 L 476.6278021428734,139.2789978692308 L 479.7698939125985,138.7432501874864 L 481.093945460394,139.52752798888832 L 481.65136982500553,139.67560109402984 L 482.4611872769892,139.21026017703116 L 485.5897820703685,139.92946264334023 L 486.4724831096828,139.92946264334023 L 487.4280677139759,139.63153075706214 L 491.05065115354955,137.5048056198284 L 492.5609607268125,136.1842887494713 L 493.52599319815636,134.93664753995836 L 493.74464391358197,134.12401599809527 L 494.3601051811129,133.60703405644745 L 494.54636318050325,132.69468200206757 L 494.8945847004652,132.9091142024845 L 495.8393717240542,131.81431002449244 L 496.3225628416985,131.51741302665323 L 496.9974107220769,131.4032319150865 L 499.40796736627817,127.91198101546615 L 499.7062501423061,126.62667237315327 L 500.0,126.20405136421323 L 497.36992674693465,128.1768456818536 L 495.8083287458867,128.90669403225183 L 494.7461181804538,130.3881434230134 L 494.3439088370651,130.67260476201773 L 493.6987542491406,130.48120413161814 L 490.9237797409296,128.19087910093367 L 490.8077059350908,127.80674508307129 L 490.8751907069236,126.16392332874238 L 489.73604747466743,123.52589402720332 L 489.8089310377836,121.65164608694613 L 489.5443906597793,121.2493412764743 L 489.4148198775947,120.49389382172376 L 489.4958016257733,119.24409067071974 L 489.0558008030057,118.57139431033283 L 488.55371397174895,118.20280316006392 L 486.6263484209776,117.4465856840834 L 485.9622981194407,117.50246413424611 L 484.1577548496425,118.40194001235068 L 483.5328457374126,118.4718166058883 L 482.11566517688334,118.09625439252704 L 480.52572354115546,118.09101438894868 L 479.6025316528976,117.6142249731347 L 479.3109973501414,117.20562504418194 L 479.4702614508569,116.79709587804973 L 480.15590688586235,115.98373986408114 L 480.73627609573305,114.26544308569282 L 480.6768894828856,113.48956633452326 L 481.0817981958389,112.53358300216496 L 480.9522274136543,111.33326860982925 L 483.79738608933985,109.48259739298373 L 484.0106380134821,108.6543548386544 L 483.3600846622139,107.10044059250504 L 483.60168019495904,105.77428769879043 L 482.5583653692156,104.39677640516311 L 482.8917402308434,103.41146823670715 L 483.4842566791922,102.77796131186187 L 483.5760359801352,101.93643889576197 L 483.9404538460076,100.93133936263621 L 484.29677352681756,100.42504771519452 L 484.7205779775977,100.01506494544446 L 486.1053658500314,99.34866825677454 L 486.2308875769377,98.36457876767963 L 485.41702099330723,95.26942019537091 L 485.7261013519019,93.84436340071261 L 485.3036465831101,93.16585716698319 L 486.30242145620286,92.71218632534146 L 486.68033627048135,91.94071112200618 L 486.5534648578614,89.92637006472796 L 486.7937106806785,88.22848783805966 L 486.4319922365248,86.31118543352932 L 486.48463037610054,83.92875605169684 L 487.10818982869387,83.58097726292908 L 488.41334563679993,83.34083252865821 L 489.60647666826844,83.91325988341123 L 490.3839014302939,83.43895326275378 L 490.90488402731717,82.46566873509437 L 490.9156815819442,81.9357337243855 L 490.3299136068672,81.08773570042104 L 489.3851265590638,80.34662634134293 L 488.64954238012433,79.50949787348509 L 488.7615671325475,77.91511458996683 L 488.3404620476067,76.13126941490918 L 487.4658591672778,75.48518576193601 L 487.64131963811815,74.57169602625072 L 486.6506429500878,73.84629586245865 L 485.9622981194407,72.22050656378269 L 485.33199016563594,71.503516911529 L 484.86634512990713,70.59580477047712 L 484.65984168089926,69.77059459406883 L 484.8123573064804,68.88406238798052 L 484.2009451184422,67.81996552925557 L 484.6584919691086,67.09657670743763 L 485.5681869350374,66.94867609255016 L 487.260705428198,67.14787380862981 L 488.5118734128773,66.59734128694981 L 488.7939598467201,66.39562447462231 L 489.19346976839006,65.30271203070879 L 489.48500407114625,64.92769695818424 L 490.035679936409,64.96186452172697 L 490.2327355146408,64.80811429955065 L 490.1301586329937,63.9165539201349 L 490.3218154218048,63.54175161756575 L 490.68893268331885,63.50333549082279 L 491.4393635466695,63.841418073512614 L 492.1506532225758,63.92338453885168 L 492.8808386120945,63.58785176742822 L 493.53274167329073,63.020197704434395 L 494.49237538315356,61.843482272699475 L 494.551761969924,61.53467758465558 L 494.284522222355,61.103951685130596 L 493.1642747297883,60.08245342131704 L 493.04955058172345,59.08268452715129 L 494.16304960101843,58.03988208901137 L 494.2656264565885,57.47691902052611 L 493.85801834985614,56.00071258470416 L 493.8080796059221,55.18381714448333 L 494.05237456038594,53.951329642906785 L 493.70415303856134,52.97105425596237 L 493.86611653491855,52.4321966804564 L 494.21703742444515,52.23079282883555 L 495.1888183988631,52.13986906129867 L 495.5910277161747,51.8339819451794 L 496.203789614141,50.61930529586971 L 497.1539754271507,50.76367607153952 L 497.7640379052609,49.55546849407256 L 499.2675990033895,48.58712216746062 L 499.8587657418102,47.89398218598217 L 499.77778399549425,46.83131903037429 L 498.78575759753585,45.942866136319935 L 498.6035486776382,45.35554339457303 L 499.09483795426786,43.582555897533894 L 498.93287445791066,42.94923022761941 L 498.61164683662355,43.51396600808948 L 498.0879648961127,43.77902134787291 L 494.86219201236963,44.14320108946413 L 494.02538063563406,43.75192173477262 L 493.0104094184935,43.0067985765636 L 490.79150956496596,40.80153069179505 L 490.1031647082418,40.422618296928704 L 487.8842648807913,39.69202196132392 L 487.58463241904974,38.80950458999723 L 486.68573503382504,37.32075539883226 L 485.2766526583582,37.576702767051756 L 485.04180560074747,37.76931416802108 L 483.62462504021823,41.170349180698395 L 483.640821384266,41.86837824527174 L 483.8648708630353,42.532745933160186 L 484.3021723162383,43.10331327095628 L 485.1943212002516,43.475014578551054 L 485.40892283432186,43.85862815659493 L 485.4143215995282,44.587911827489734 L 485.0607013143599,46.05899115558714 L 484.7516210079193,46.62613266799599 L 483.7406988721341,47.45037284772843 L 481.222166556865,48.50057508703321 L 479.8522253446281,48.73307120334357 L 478.67124155163765,48.544696774333715 L 477.7156569492072,47.72263605892658 L 476.14461107738316,45.66995132993907 L 474.74362688697875,45.414015165530145 L 474.2739327456802,44.93102898914367 L 473.9446069635451,44.84291530586779 L 472.9323351420462,45.70046205073595 L 472.3128247950226,45.858106763102114 L 468.32447377964854,45.819118429906666 L 466.6346546821296,46.62104559596628 L 465.3308485839516,46.27515082061291 L 461.5840931292623,48.798411617055535 L 460.7877725996077,48.78992575313896 L 460.3140294048935,48.43439406808466 L 459.8645806852728,48.4191217739135 L 455.80334613472223,50.4706971552223 L 453.940765960142,50.1132251303643 L 452.93929171934724,49.6861946452409 L 452.27254199795425,49.179457208141685 L 451.1603926625103,48.7958658747375 L 450.10762999393046,48.95201087463647 L 447.94811675325036,49.67176351696253 L 447.724067248404,49.837302329950035 L 447.6106927860528,50.40361413359642 L 447.07081450149417,50.61420998815447 L 445.3782960101962,49.95021469704807 L 445.03007451444864,48.9664378259331 L 441.75571257062256,44.17199900560081 L 441.3454050421715,43.10331327095628 L 440.9269993528724,42.91536709200591 L 438.67840620689094,42.53613170608878 L 437.18294329196215,42.039319556206465 L 436.0168061349541,41.90307330340147 L 435.9466219674796,43.29296712484211 L 435.44453513622284,43.907748515717685 L 435.91152988374233,45.739448545500636 L 435.74146822839975,46.15732026845217 L 434.67250916175544,46.970380652695894 L 434.31349008716643,47.64375298470259 L 434.15152659267187,47.69294860213995 L 433.66563613153994,47.297715057618916 L 432.51569531671703,47.74468985572457 L 432.49949897266924,48.59221328981221 L 432.20256588049233,48.95201087463647 L 431.349558159709,48.341064875014126 L 430.03765390254557,46.60069751087576 L 428.06979745067656,44.74294403754175 L 426.92795484885573,44.053421596996486 L 413.098971972242,40.77615530323237 L 405.8268111702055,40.429384091869 L 404.0965011995286,41.060374630615115 L 397.8636061158031,42.31945182941854 L 392.9669098742306,41.59168142918497 L 391.673901328817,41.093366503715515 L 388.18088867142797,39.150132671929896 L 385.2601470388472,38.43512110598385 L 379.41596435010433,34.52647517155856 L 378.4387846123427,34.06753358896822 L 376.51951722055674,33.56144594307989 L 373.92270257882774,31.9982833834365 L 368.3187657408416,29.885269253514707 L 354.58966035209596,27.250715075992048 L 353.18597673997283,27.193509521894157 L 349.1719815377146,28.5499698407948 L 347.23381840623915,28.28063888847828 L 342.9876755140722,28.076976562850177 L 341.1493898704648,28.31430365331471 L 339.559448286891,29.14765136130154 L 336.0394417028874,32.87164512369782 L 334.74913255497813,33.59012148715556 L 329.7849514875561,35.09098789840937 L 328.0708378851414,35.309570517390966 L 327.177339265123,35.215889904648066 L 325.42543415911496,34.53322491887957 L 322.4210113827139,32.61196510493755 L 321.6921756528318,32.4130078246817 L 317.50541937351227,30.48495457880199 L 313.1782947592437,29.55853498261422 L 311.59375191293657,28.854685405269265 L 307.74711897037923,26.369221149012446 L 306.65926419198513,26.377630913630128 L 302.41312129981816,27.16322473809123 L 300.17262631095946,26.685446709394455 L 298.8229305502027,26.915912742726505 L 298.3316412977874,26.69385750219226 L 297.7242781892419,25.975676976144314 L 297.4813329465687,25.905047382228076 L 296.4744599144906,26.63161826506257 L 296.37728179618716,27.005076870322227 L 296.6040306966752,28.05004724673927 L 296.57703679800034,28.728417527861893 L 296.37188300676644,29.14765136130154 L 295.1733531858772,30.265951704233885 L 294.16108136437833,30.75957762170583 L 292.0123657044023,30.98367886710912 L 287.1777554433793,32.66929477266967 L 286.6891655884683,32.68784285057336 L 286.77824549376965,31.890398868359625 L 285.7335809841752,30.04191477317363 L 285.5095314551145,28.05004724673927 L 284.84548115357757,25.911773901432753 L 284.74290427193046,23.06133481580764 L 283.96278011240065,21.810246979817748 L 283.85210507176816,21.32341455295682 L 284.41357851587236,19.023145647719502 L 284.7348061129451,18.61565829999745 L 285.2746843956411,18.337330294772983 L 285.47443937137723,17.8981039756909 L 285.4987339004874,17.366775879636407 L 285.18290509469807,16.587585238739848 L 285.06413186714053,16.580883556976914 L 285.32867224514484,16.319532174617052 L 286.6162820253521,16.059882915578783 L 286.91861385665834,15.70646777562797 L 287.35861467942595,14.673304980620742 L 287.47738790512085,13.484936230815947 L 287.3262219633907,13.21553864236921 L 285.47713876515627,12.862520654685795 L 282.9990973509848,13.178728826344013 L 282.51860562711954,13.103437569923699 L 282.22437195666134,13.001379665918648 L 282.09480117447674,12.561406685039401 L 281.7492790501565,12.273709043860435 L 280.3752887584269,12.543006462976336 L 279.71933661587536,13.170362995937467 L 279.4170047584921,12.864193563349545 L 279.7922202050686,12.42257179133594 L 279.7571280952543,12.143252292647958 L 279.3927102293819,11.683362102136016 L 279.34412119723856,11.2085085157305 L 279.3279248531908,5.617271134629846 L 278.7718501724303,5.432108923792839 L 277.743382005021,5.835813202895224 L 277.22509882971644,5.623943905346096 L 277.0037487205118,4.4798206724226475 L 276.588042428717,4.3797760140150785 L 275.95908421091735,4.558191719464958 L 275.11957341246307,4.253058414906263 L 274.5446030199528,3.316210593096912 L 274.3853389453143,1.0405367463827133 L 274.0938046425581,0.08988565020263195 L 273.59441720694304,0.0 L 272.0746597889811,1.1088107442483306 L 271.3026337902993,1.4701938824728131 L 270.07980941422284,1.5917766746133566 L 269.7774775829166,1.8549482533708215 L 269.7882751375437,3.0778860757127404 L 269.46164877712727,3.4512154748663306 L 267.9094986449927,3.0728865088894963 L 267.66059239022434,3.157666909508407 L 269.0910773836076,5.6062507992610335 L 269.36951855011284,5.842696879059076 L 269.33551047742367,6.408943206071854 L 268.6298427712172,8.648887700401247 L 266.11749569140375,12.714488415978849 L 265.82417597435415,13.718401507474482 L 264.71678777970374,14.921777352690697 L 264.42346808873117,15.65357271488756 L 264.45960166305304,16.171891101635993 L 265.3926984369755,17.495206299237907 L 266.236523963511,17.77763852197677 L 266.6743780262768,18.683218574151397 L 267.5862197522074,19.347429260611534 L 267.85403339378536,20.32227400317788 L 268.4725553765893,20.846838462166488 L 269.7223524171859,21.343755938112736 L 271.1506918761879,23.22923426423222 L 271.4248820450157,23.249075016006827 L 274.2326743416488,25.0420016432181 L 274.645022328943,25.13730735424906 L 274.9170869961381,25.38617827370763 L 275.49309890531003,26.636201225221157 L 275.6078761778772,27.550277617760003 L 275.26566983759403,28.49119719211012 L 275.26566983759403,30.766768475063145 L 274.912835996598,31.82834898121655 L 273.3697192389518,34.03256924357265 L 272.47063056379557,34.94138104468584 L 271.5077767409384,35.63782953005284 L 270.506663819775,35.895724336616695 L 269.58632009476423,35.544781263917685 L 268.6936079207808,34.74205186869949 L 267.20362881198525,32.91029823478311 L 266.1600057911128,32.28762232046574 L 264.8953302260488,30.95914648566395 L 263.8942173048854,30.71900794375688 L 261.7262020390481,30.618183166719973 L 260.77610124088824,30.270634193904698 L 259.88338909111917,29.159332199953496 L 260.0045428611338,29.542529753409326 L 259.7048466447741,29.82764558121562 L 258.8248875197023,28.533613182604313 L 258.9928024150431,28.027319443412125 L 259.3860208801925,28.56807666271925 L 259.97053478844464,28.38913671206683 L 260.0470529869199,28.915389238856733 L 260.41901637613773,28.49119719211012 L 260.5869312696159,28.947206522338092 L 260.41901637613773,29.382083483971655 L 260.7867287658155,29.59424602612853 L 261.2224573288113,28.915389238856733 L 262.03865130618215,29.291919857263565 L 262.38085762038827,29.159332199953496 L 260.83986638858914,28.440829160623252 L 260.119320159778,27.884197337552905 L 259.7048466447741,27.13691484928131 L 259.7558587696403,26.781901233829558 L 261.2734694518149,28.38516042381525 L 262.02589828148484,28.713889060541987 L 261.0439148824662,27.70398116763681 L 260.39563582651317,26.262718106620014 L 260.34887470304966,25.489440463483334 L 260.14482620730996,25.33852022420615 L 259.498672651127,24.979790131561458 L 258.41041400656104,24.848753921687603 L 258.08521171472967,24.914932969026268 L 257.01395712047815,25.804548816755414 L 256.656872253865,25.709217730909586 L 256.36142703704536,25.208789036609232 L 257.72812684997916,24.69390175677836 L 255.4942209366709,25.13730735424906 L 254.65252091176808,24.725665509700775 L 254.4229663424194,24.343203500844538 L 253.6280274130404,24.007108482532203 L 252.896853659302,23.340344421565533 L 252.629039991647,23.48717609513551 L 252.2209430038929,24.1076676286757 L 251.55565989762545,24.361729715019464 L 243.3958456236869,29.188500875607133 L 242.46062337607145,29.423188562504947 L 241.25758745893836,29.159332199953496 L 241.4531339276582,29.82764558121562 L 241.07904501259327,30.010667311027646 L 240.00779041834176,31.16215451527387 L 237.87165775336325,32.29558735527098 L 237.72074688225985,32.05133822187781 L 236.9598160535097,32.47878987528384 L 235.83754933439195,32.223903053440154 L 234.10951363295317,31.404989696107805 L 233.02338051237166,31.16215451527387 L 232.22844158485532,30.716354615055025 L 231.6843122765422,29.82764558121562 L 230.88299682177603,29.382083483971655 L 228.5853257626295,27.303841608576477 L 225.77115694060922,25.535777456127107 L 224.95496296323836,24.832871183753014 L 222.71468052454293,21.957108509726822 L 222.38310173526406,21.140219366177917 L 221.59241380542517,20.67901878338307 L 220.66569358296692,19.718565545976162 L 219.76022838242352,19.20876247342676 L 219.77510690689087,16.450217875652015 L 219.25010714679956,16.030760809779167 L 217.7346219625324,15.610054616816342 L 217.46043179556727,14.921777352690697 L 217.69636289030313,15.062845738604665 L 217.6325977165252,14.851905254647136 L 216.9248045105487,13.794831143692136 L 216.66974389366806,12.71580565534532 L 216.2106347810477,12.709219594486058 L 216.45931887440383,13.49703211709857 L 216.32966307736933,14.387898155488074 L 215.93644461408257,15.206559001468122 L 214.37419833242893,15.997787564992905 L 213.96610134281218,15.674672638066113 L 213.245555087924,14.598799909465015 L 212.80557552538812,14.459075518883765 L 213.16266039013863,14.21655339282006 L 212.49312628433108,13.269094597548246 L 211.02440222539008,12.709219594486058 L 210.04241882823408,11.68463945761323 L 209.5981882661581,10.239342420361936 L 208.86913998425007,11.463447713293135 L 208.77136676386,11.909800866618752 L 208.52693367004395,12.03621603641659 L 207.81276394054294,11.805776453576982 L 206.04646916501224,9.931434685364366 L 205.47895927913487,10.038013915531337 L 205.83604414574802,10.239342420361936 L 205.83604414574802,10.48016807809472 L 203.5915107075125,10.922399310395122 L 201.71681515872478,10.239342420361936 L 200.15881990268826,10.661789421923459 L 199.67633021622896,10.08406802546233 L 197.9419180136174,10.038013915531337 L 197.17035966180265,9.820912812836468 L 196.54971215315163,9.876173163764179 L 195.72076515108347,10.239342420361936 L 195.12349819391966,10.069593785330653 L 194.5517373085022,9.152621230110526 L 193.9140857513994,8.487135452218354 L 193.48048271425068,8.694916622713208 L 192.3242079205811,8.694916622713208 L 190.07967448420823,9.155251948162913 L 188.1029546894133,8.13210566341877 L 187.87977664545178,7.781069403514266 L 186.49607278220356,6.6888283947482705 L 185.36955506540835,6.7637324733659625 L 183.02087187953293,7.319668495096266 L 180.33635888062418,8.915867174975574 L 178.91439591906965,9.139467650093138 L 176.92492309957743,10.291979951784015 L 176.46368848718703,10.965836878865957 L 175.05022757686675,11.563508249819279 L 173.82806211151183,13.20190307032317 L 173.00761710852385,13.727625660598278 L 172.71642291732132,15.120857466943562 L 172.10427743382752,16.012295729480684 L 170.52290160395205,17.40810740366578 L 170.05741596594453,18.83638086449355 L 169.38150533474982,19.850655680522323 L 168.95427879691124,20.013136066496372 L 168.1699673924595,21.55523992050439 L 165.9955756291747,23.517601733095944 L 165.18575817719102,23.628724640235305 L 164.67563694156706,24.007108482532203 L 163.10063760913908,24.041509850881994 L 162.57988884858787,24.642286458984017 L 161.91248024255037,24.88846114091575 L 161.18555748835206,25.007586566731334 L 160.7179463505745,24.914932969026268 L 159.472400335595,25.582115272060037 L 158.62432378530502,26.632227717898786 L 157.75924318283796,26.675936742685735 L 155.77827238850296,27.56220255792141 L 154.95782738551497,28.37190614361316 L 150.03090644814074,30.578385036438704 L 149.2742266189307,30.716354615055025 L 149.21471247076988,31.508500386029482 L 148.2879922222346,32.05133822187781 L 137.81137736327946,33.63141561485827 L 133.53273548185825,33.38836383074522 L 132.80581272765994,33.58758483547717 L 131.19893082231283,34.74736709333956 L 129.68557116389275,33.71509464085102 L 128.98415445908904,33.015199220739305 L 128.1509564574808,31.16215451527387 L 128.04468118585646,28.517707085236907 L 128.32949887774885,27.82456557266414 L 127.96391198784113,27.291917897760868 L 127.79387159273028,26.489185287617147 L 127.83850719034672,25.894587039016187 L 128.32949887774885,24.914932969026268 L 128.5080413222313,25.13730735424906 L 128.08294028416276,23.30066166538745 L 128.1509564574808,22.91577141173184 L 126.8714023437351,21.67156372591853 L 126.55682757683098,20.520459324121475 L 125.66411542706192,18.809972911141813 L 125.70875102467835,18.24622900504619 L 125.99144321866333,17.79347680322826 L 126.36978313140571,17.57702922541648 L 126.17423666268587,17.113840961828828 L 126.84589629434049,16.872383351437747 L 125.77251619845629,15.793363131582737 L 125.46006693318486,15.120857466943562 L 125.75763764977455,15.265892562456429 L 126.0126982666552,15.120857466943562 L 125.06472296826541,14.277181752957404 L 124.77990527637303,13.549737349152565 L 124.43132243677974,13.13076101988554 L 123.67889360710979,12.469499194994569 L 123.7256547305733,13.834364616312087 L 123.61087745986879,14.39844283182174 L 123.30480471812189,14.680529092438519 L 122.68415720947087,14.49861937109381 L 119.91674951277673,15.784131441265345 L 119.37262017652392,15.80391367059201 L 117.40865343250334,15.471592979505658 L 117.16634583845735,15.186781479045749 L 117.04731754213572,14.035994955338538 L 116.883653646335,14.035994955338538 L 116.69023267552257,14.680529092438519 L 116.5265687815845,13.794831143692136 L 116.1567308921367,14.035994955338538 L 116.1567308921367,13.573455069214106 L 115.17474751919508,13.794831143692136 L 114.52646843716502,14.179649886675179 L 114.17788559570909,14.035994955338538 L 114.72839143127203,14.035994955338538 L 114.72839143127203,13.794831143692136 L 112.96634765528142,12.851481976918876 L 112.57312921620905,12.91207765135914 L 112.2564289495349,12.725026124157012 L 111.08740110695362,12.893635353073478 L 110.16918288357556,12.225850615650415 L 108.83011464588344,11.805776453576982 L 109.02566111460328,11.721506624482572 L 109.00865706428885,11.563508249819279 L 108.11169389076531,11.364707662723958 L 108.11169389076531,11.143543827347457 L 108.64732119999826,11.143543827347457 L 107.5101759582758,10.31435124296695 L 107.04469032026827,10.239342420361936 L 107.04469032026827,10.48016807809472 L 107.40177518501878,10.922399310395122 L 106.86614787392318,10.681531670503318 L 106.56645165756345,11.013224189169705 L 105.93517662584782,11.068510483019054 L 105.61635085940361,10.922399310395122 L 105.43143191561103,10.534126680344343 L 105.15299072302878,10.48016807809472 L 104.71088566072285,9.797230211086571 L 104.60248491354287,10.457795325666666 L 103.70764723792672,10.886860016733408 L 103.44408459588885,11.563508249819279 L 103.79691846109927,11.3844553520903 L 103.94995483197272,11.562191641889513 L 103.92019775696099,11.854496193118393 L 103.72252576239407,12.005928474478424 L 102.38983405008912,11.805776453576982 L 102.38983405008912,12.005928474478424 L 102.62576511874795,12.140249908901751 L 103.44408459588885,12.248238975182176 L 102.87870023585856,12.50374358613044 L 100.77019912004471,12.469499194994569 L 100.06453141570091,12.632822720333934 L 98.43639446049929,13.573455069214106 L 98.13032171875238,13.26777710299939 L 97.90076717548072,14.459075518883765 L 97.74773080460727,14.224461369216442 L 97.3842694144696,14.459075518883765 L 97.116455771029,14.345719888806343 L 96.28113224543631,13.332335320301354 L 95.75188145972788,14.028087568469346 L 95.56696251407266,13.794831143692136 L 93.85380536317825,15.418847690336406 L 93.2777934782207,16.3024766119197 L 91.71979819610715,16.80641534924507 L 91.28832065872848,17.35532166529447 L 90.9291102681309,17.113840961828828 L 90.8270860221237,17.54007661342621 L 90.9291102681309,18.01786277256906 L 90.20218751393259,18.01786277256906 L 90.39560848288238,18.221147309057415 L 89.66656022891402,18.4640542389825 L 89.99813902005553,18.96842477750033 L 90.555021379143,19.12688663508743 L 90.39560848288238,19.347429260611534 L 90.54864485375583,19.9431228954345 L 90.39348298311234,20.49799753073603 L 89.66656022891402,21.142862586304545 L 89.66656022891402,21.343755938112736 L 90.39560848288238,21.787892875261605 L 90.15117539092898,23.71736190468073 L 89.66656022891402,23.56257943995297 L 89.35198546387255,23.963445911183953 L 88.10006292164326,23.47791617922485 L 87.5261765383184,23.56257943995297 L 88.00441520102322,23.68957971315831 L 88.11281594634056,24.003139135427773 L 87.68558940850198,24.914932969026268 L 88.24034626968205,26.045540729537606 L 88.60805865935981,25.7198098981753 L 89.2627142407,26.513025131076574 L 89.66656022891402,26.69183115195483 L 89.51564935781062,26.138236082158983 L 89.73032537661493,26.024353688582778 L 90.03852361813188,26.114399801008403 L 90.20218751393259,26.369989468716085 L 89.66656022891402,27.37935975100845 L 88.04267427325249,28.54421725962311 L 86.00856585614383,29.40860281419009 L 85.55583326891065,30.183091298677027 L 84.2996597290039,28.915389238856733 L 84.47820214927197,28.49119719211012 L 83.5854899995029,28.26985052600503 L 83.55785842426121,27.46680465620011 L 83.2305306326598,27.37935975100845 L 83.5854899995029,26.9143631067127 L 83.40907305292785,26.69183115195483 L 83.76403241790831,26.249475046992302 L 83.92769631370902,26.249475046992302 L 84.22526703029871,26.832235927693546 L 84.12111728265882,27.58207759540528 L 84.58235189504921,27.152812149375677 L 84.41656249947846,26.604413277469575 L 83.5854899995029,25.804548816755414 L 83.74490286782384,25.47222981415689 L 83.46008517593145,25.298805885016918 L 82.6800247989595,25.33852022420615 L 82.41221115738153,25.637721825391054 L 82.41221115738153,25.932986676692963 L 82.63538917340338,26.15942408517003 L 83.03710966371,26.249475046992302 L 83.03710966371,26.489185287617147 L 82.05725179053843,27.05478034634143 L 81.60877020284534,26.9143631067127 L 81.47486338205636,27.775536051020026 L 80.52476258389652,28.436852790415287 L 79.35786024108529,28.676772373728454 L 78.3971319179982,28.26985052600503 L 78.2674760967493,28.87031540926546 L 77.9869094286114,29.108950724825263 L 77.64045208878815,28.984327219426632 L 77.31312429904938,28.49119719211012 L 76.79450103826821,29.604854630306363 L 77.13883287832141,30.695128020830452 L 77.07081670500338,31.293521428480744 L 76.79450103826821,31.60803394857794 L 76.7817480135709,31.75933255441487 L 76.97304345667362,31.82834898121655 L 76.86464271135628,32.10177902318537 L 76.97304345667362,32.29558735527098 L 76.79450103826821,32.29558735527098 L 76.61595859192312,31.60803394857794 L 76.07182928174734,32.40842790901661 L 75.29601990431547,32.535877485759556 L 74.72851002030075,32.205318588763475 L 74.81778124161065,31.404989696107805 L 74.55421859957278,31.629268298856914 L 73.74652664735913,31.82834898121655 L 74.10361151210964,32.05133822187781 L 74.10361151210964,32.29558735527098 L 73.14713418856263,32.383204284124076 L 72.94308569468558,32.70183720532805 L 72.85381449759007,33.38836383074522 L 73.21089936234057,33.511878970079124 L 72.83681044727564,34.50022050924599 L 72.42446245998144,33.883789527229965 L 70.87071817740798,33.547739362344146 L 71.23417956754565,32.94349428731948 L 71.86332909949124,32.98200224619359 L 72.12689171731472,32.720425366424024 L 71.3744629137218,31.428876402787864 L 70.87709470279515,31.404989696107805 L 69.25745977275074,32.29558735527098 L 69.09592137672007,32.29558735527098 L 69.25745977275074,31.60803394857794 L 68.29673144966364,31.655811472795904 L 68.18620517663658,31.939841113053262 L 68.30098244920373,32.2331953542307 L 69.25745977275074,32.49737640749663 L 69.25745977275074,32.720425366424024 L 68.16495012678206,33.468050324358046 L 67.74835111387074,33.27813502121717 L 67.21272382885218,32.20266368146986 L 67.28711650148034,31.732788279652596 L 67.65057789161801,31.404989696107805 L 67.53154959529638,30.68982141651213 L 68.56879611685872,29.899261188693345 L 68.73883651196957,29.159332199953496 L 68.01191375590861,29.518661059439182 L 67.6420758664608,29.419210631400347 L 67.47203544713557,28.915389238856733 L 67.13195463083684,29.159332199953496 L 66.91940411180258,28.713889060541987 L 67.13195463083684,28.49119719211012 L 65.78225887008011,28.011416560970247 L 65.27001210860908,27.6218281108886 L 63.943696895614266,25.39279753342271 L 63.33367693796754,24.90037343185395 L 62.64288775622845,25.13730735424906 L 62.468596337363124,24.819635666906834 L 62.12426449544728,24.69390175677836 L 62.28580289147794,24.24925117008388 L 61.96910262480378,24.110314002260566 L 61.50999351218343,24.184412840753794 L 61.39309071563184,24.47156660631299 L 61.12740257382393,24.01769347116351 L 60.79369828291237,23.947568803094327 L 60.44936644285917,24.1420703753829 L 60.145419200882316,24.47156660631299 L 60.32396164722741,24.914932969026268 L 59.96687678061426,25.33852022420615 L 61.93084352649748,25.33852022420615 L 62.44096476212144,25.568875803612173 L 63.371936010196805,26.69183115195483 L 63.0148511454463,27.13691484928131 L 62.28580289147794,26.489185287617147 L 62.63013473153114,27.363461014814675 L 62.54511450789869,27.751684196293354 L 62.022240249440074,28.20623354241252 L 61.80543872900307,27.546302660368383 L 61.03600585088134,27.82456557266414 L 60.51313159056008,27.725182409398258 L 60.25381997227669,27.85504385177046 L 60.145419200882316,28.14659407828003 L 61.214548295363784,28.49119719211012 L 61.03600585088134,28.713889060541987 L 61.75017558038235,28.713889060541987 L 62.12426449544728,29.159332199953496 L 63.114749893546104,29.23092864919454 L 63.371936010196805,29.382083483971655 L 63.27628828957677,28.857058560475707 L 63.658879201859236,28.825242389924824 L 64.07122721709311,29.124860546551645 L 64.08398024179041,29.604854630306363 L 63.83742164820433,29.789186200127006 L 63.3209238871932,29.843559972010553 L 63.17851504124701,30.047803754918277 L 63.905437821522355,30.95914648566395 L 64.44106510654092,30.270634193904698 L 64.12436483986676,31.791186043061316 L 63.51221935637295,31.817730938084424 L 62.83630872704089,30.95914648566395 L 62.264547841623425,30.57573185674846 L 62.05837384797633,30.612876725383103 L 61.93084352649748,30.95914648566395 L 61.546127086505294,30.56909888703376 L 60.145419200882316,30.047803754918277 L 59.96687678061426,30.047803754918277 L 59.832969933748245,30.45368831139058 L 58.88074363581836,29.82764558121562 L 58.74471131525934,30.27593990880996 L 58.16657390631735,29.82764558121562 L 57.64582514576614,30.225535943172872 L 57.454529674723744,29.82764558121562 L 57.27598725631833,29.82764558121562 L 56.4916758518666,30.384709833189845 L 55.977303590625525,30.493484457023442 L 55.49056293070316,30.270634193904698 L 55.49056293070316,30.493484457023442 L 55.182364689186215,30.334303675219417 L 54.13874164223671,30.493484457023442 L 53.70301310531795,30.34491541888565 L 53.15675827115774,29.62607194110751 L 52.78479488193989,29.382083483971655 L 52.852811029180884,28.874292467720807 L 52.493600664660335,27.848418121226132 L 52.44258853979409,27.13691484928131 L 51.10352030210197,27.745058739557862 L 49.53277199715376,27.685430253855884 L 49.39673964865506,28.027319443412125 L 47.61556635051966,27.37935975100845 L 47.25848148390651,26.9143631067127 L 46.62508095242083,27.37935975100845 L 45.77275337651372,27.5025784233585 L 45.473057160153985,27.37935975100845 L 45.413543010130525,27.778186263516545 L 45.20524351671338,27.995513813570142 L 44.58459600992501,27.82456557266414 L 44.55483893491328,28.006115645170212 L 44.38904953934252,28.027319443412125 L 44.542085910215974,28.427574586123228 L 44.206256095319986,28.713889060541987 L 44.206256095319986,28.915389238856733 L 44.96293592453003,28.675446790643036 L 45.73449430242181,28.814637122675776 L 46.07244961708784,29.673811606131494 L 46.65483802743256,30.270634193904698 L 49.45200279913843,30.554506455548108 L 50.387225072830915,30.493484457023442 L 50.884593257680535,30.640735731460154 L 51.19491702504456,31.82834898121655 L 51.76880340836942,31.98231560178101 L 52.96546280011535,31.26034733094275 L 53.33742621541023,31.404989696107805 L 53.749774204567075,31.174096680246294 L 54.76364017650485,31.16215451527387 L 55.78388264775276,31.98762498330325 L 58.3451163507998,32.17345978599042 L 58.515156745910645,31.96107828337699 L 59.46313204430044,31.629268298856914 L 60.878718480467796,31.719516248442233 L 61.305945018306375,31.58679977990687 L 61.75017558038235,31.16215451527387 L 61.8351958040148,31.501864973455667 L 62.47922386042774,32.05133822187781 L 62.06475034728646,32.640762738883495 L 61.214548295363784,32.720425366424024 L 61.39309071563184,32.94349428731948 L 61.63964930921793,32.855857693590224 L 61.67365740798414,33.04706876631826 L 61.214548295363784,33.63141561485827 L 62.47922386042774,34.07773629203439 L 62.47922386042774,34.280998069792986 L 61.58651168458164,35.41451952327043 L 61.93084352649748,35.172622912563384 L 62.12426449544728,35.41451952327043 L 61.75017558038235,35.88243013806641 L 62.64288775622845,35.88243013806641 L 62.64288775622845,36.08450963906944 L 62.12426449544728,36.08450963906944 L 62.12426449544728,36.306550081819296 L 62.74066097848117,36.31851689796895 L 63.17851504124701,36.08450963906944 L 63.473960258066654,36.27330925222486 L 63.72902087494731,36.08450963906944 L 64.16900043748319,36.266661119647324 L 64.73863582313061,35.972832093946636 L 65.1382307857275,36.08450963906944 L 65.34865580685437,35.41451952327043 L 65.42304847761989,36.12705476861447 L 65.1382307857275,36.306550081819296 L 65.1382307857275,36.531269875355065 L 65.58883789926767,36.53791871480644 L 65.86940456554294,36.306550081819296 L 66.5793232973665,37.423700713552535 L 66.5793232973665,37.667146493680775 L 66.22648943215609,37.667146493680775 L 66.5793232973665,38.31778247281909 L 67.00017330981791,37.99443903565407 L 67.42102332226932,37.917268625460565 L 67.6420758664608,38.09822370484471 L 67.47203544713557,38.56131578795612 L 69.64005071111023,39.300046380609274 L 69.63367418758571,39.506397754885256 L 69.25745977275074,39.900509955361485 L 68.98964612931013,39.96708912868053 L 65.58458687365055,39.4531441507861 L 64.32841333374381,39.4771081386134 L 63.833170622587204,39.354627972468734 L 63.905437821522355,38.764943924732506 L 63.459081733599305,39.00452780164778 L 60.68104651197791,39.4531441507861 L 59.77345581166446,39.005858884193 L 58.71707974001765,39.210854636505246 L 58.06029865890741,39.16026969533414 L 55.930542493239045,38.453519424423575 L 55.49056293070316,38.56131578795612 L 55.29714196175337,38.094231883995235 L 54.838032849133015,38.215319300070405 L 54.228012865409255,38.094231883995235 L 53.71151510439813,38.473481345921755 L 52.874066077172756,38.481466178782284 L 52.04086807742715,38.19003682769835 L 51.537123339250684,37.667146493680775 L 50.33196192421019,38.2472554044798 L 49.726192966103554,38.19402876961976 L 49.592286145314574,37.423700713552535 L 48.71232699416578,38.01838893163949 L 47.25848148390651,38.094231883995235 L 46.36576930992305,39.210854636505246 L 45.97467637062073,39.19221794232726 L 45.570830380544066,38.85411966685206 L 45.473057160153985,39.210854636505246 L 45.2775106895715,39.210854636505246 L 44.924676824361086,38.094231883995235 L 44.74613440409303,39.210854636505246 L 43.49633736349642,38.764943924732506 L 43.602612636983395,38.20733532123268 L 43.44107424095273,37.845422451384366 L 42.76516358368099,37.423700713552535 L 42.960710080340505,36.976780297234654 L 42.40807871893048,36.976780297234654 L 42.25079134851694,37.220182354561985 L 41.78743123821914,37.10579372104257 L 41.51324106939137,37.59530754387379 L 41.34107515029609,38.88473295979202 L 40.888342563062906,40.32664754148573 L 41.15828170441091,41.01794499810785 L 41.812937285751104,41.21644556429237 L 42.603625213727355,41.91332152951509 L 42.201904725283384,42.151876653544605 L 41.71516406349838,41.91332152951509 L 41.519617568701506,42.36113102454692 L 41.71516406349838,42.15720774233341 L 42.008483754470944,42.521082604303956 L 42.82680325768888,42.21718344744295 L 43.31779494509101,42.36113102454692 L 43.31779494509101,43.49834420718253 L 43.78328055515885,43.23165887221694 L 43.85342223010957,42.562405094504356 L 44.027713648974895,42.562405094504356 L 44.35716696642339,43.168991981074214 L 44.55908993445337,43.23699231632054 L 44.74613440409303,43.0316637288779 L 44.924676824361086,43.2743266178295 L 45.00969702191651,42.56107210367918 L 45.473057160153985,42.562405094504356 L 46.02568849362433,42.218516253866255 L 46.36576930992305,42.36113102454692 L 46.17022283934057,42.15720774233341 L 46.550688279792666,41.47758455295116 L 46.92265166901052,41.23243286833167 L 47.32224663347006,41.331023580394685 L 49.05665883421898,42.42644332908094 L 49.67305534332991,42.415779972448945 L 49.945119984447956,42.562405094504356 L 49.945119984447956,42.807688287459314 L 49.39673964865506,42.562405094504356 L 49.20544420555234,43.601025712676346 L 49.00564671121538,44.141173840500414 L 48.699573969468474,44.37327366322279 L 48.699573969468474,44.617402128875256 L 49.92386493459344,44.890907988883555 L 50.26182025112212,44.8135227849707 L 49.945119984447956,44.14917693287134 L 50.4467391949147,44.39194932579994 L 50.84208315983415,44.841541280038655 L 50.433986170217395,44.99364725779742 L 50.285200824961066,45.217820453457534 L 50.30645587481558,45.85976205114275 L 50.84208315983415,46.40974889975041 L 51.001496056094766,47.30440634395927 L 50.43823719583452,47.60358794499189 L 50.30645587481558,47.30440634395927 L 49.36273157596588,47.24564280360937 L 49.101294457912445,46.48718405421823 L 48.76971564255655,46.0439673429355 L 48.355242129415274,45.81438026763499 L 47.97265121527016,45.96254156064242 L 48.43601132556796,46.3616869430989 L 48.49127447605133,46.79160784278065 L 48.20220575854182,47.085385635495186 L 47.61556635051966,47.08004392310977 L 47.022550417110324,46.559281047433615 L 46.89714559353888,46.755555694922805 L 46.96516176685691,47.06802507955581 L 47.61556635051966,47.97761594783515 L 47.74734767153859,49.03187819104642 L 47.45402795448899,49.56920404266566 L 47.25848148390651,49.56920404266566 L 47.150080712512136,48.64700024947524 L 46.565566804260015,48.31829784065485 L 45.8386440500617,48.44523057434708 L 45.2775106895715,48.89422396942973 L 45.06496017053723,49.62133889552206 L 45.275385189801455,50.28983210865408 L 45.75787485204637,50.816732462495565 L 46.36576930992305,51.117677852511406 L 46.053320068866014,51.61532155890018 L 45.549575332552195,51.8387588057667 L 45.00969702191651,51.8160127941519 L 44.58459600992501,51.587226098403335 L 43.95544647611678,50.45297196879983 L 43.31779494509101,50.46367001440376 L 43.31779494509101,50.22030035126954 L 43.70038585923612,49.96358476392925 L 43.540972989052534,49.829889324493706 L 42.0042327567935,49.7296224841848 L 41.34107515029609,49.32191266492009 L 40.964860735461116,49.71358017716557 L 40.62690541893244,49.56920404266566 L 40.44836297444999,50.017065001651645 L 40.172047305852175,49.85128012113273 L 39.895731639117,50.017065001651645 L 40.33358570188284,50.644206983968616 L 40.26982055418193,51.3624738836661 L 40.82245188951492,51.587226098403335 L 40.59289734624326,52.44896622002125 L 40.724678641185164,53.94434610847384 L 40.26982055418193,53.811773497611284 L 39.94461826235056,54.00728713069111 L 39.555650824680924,53.60824155528098 L 39.88722961395979,55.127103046514094 L 39.73419324308634,55.63225879240781 L 39.82984099164605,55.84533968009055 L 39.625792497769,56.17772919777781 L 39.73419324308634,56.55038061272353 L 40.14654125832021,56.27557824365795 L 40.380346827208996,56.79437728598714 L 40.35909177735448,57.900710470974445 L 38.47164320386946,59.02767172269523 L 36.18885066732764,59.657117248512805 L 35.213243793696165,60.17126204352826 L 35.45555138774216,60.84934646822512 L 35.914660500362515,60.97692789696157 L 38.23571213707328,60.92455152887851 L 40.480245573446155,61.74658638704568 L 41.43034637160599,62.76645466405898 L 41.61526531726122,63.26781070791185 L 41.744921112433076,64.72272878792137 L 41.71516406349838,65.13435089681298 L 41.10726958140731,66.10853071603924 L 41.15828170441091,66.73576394282281 L 41.71516406349838,67.39143549185246 L 41.84481986053288,67.96916505880654 L 41.71516406349838,68.54299014993012 L 42.08925295248628,68.87441555038095 L 41.86820043437183,69.61422276776284 L 41.15828170441091,70.82615994289517 L 40.50362612307072,70.59424092248082 L 38.59917350113392,70.7627845229581 L 37.95301994308829,71.02978151291609 L 37.57468003034592,71.64614407438785 L 36.74573300220072,71.888955633156 L 36.60332418233156,72.57165592256933 L 36.37376961298287,72.74168622959405 L 35.61921528354287,72.86314372997731 L 34.27164502069354,73.38952985592186 L 33.58723236620426,73.45972328260541 L 32.12913583032787,73.08988069370389 L 31.818812089040875,72.49878942035139 L 31.597759544849396,72.38949380069971 L 30.787942092865705,73.7486176835373 L 30.90271936543286,74.65602370444685 L 30.60939964838326,75.58133328147233 L 29.523266529664397,76.94224772043526 L 29.064157417044044,76.70839173160493 L 28.945129118859768,77.11528864502907 L 29.002517769113183,78.09698933456093 L 28.65180940181017,78.42025343794376 L 27.293611615896225,78.09698933456093 L 25.404037542641163,77.98338374961168 L 25.063956702128053,75.8285925751552 L 24.706871837377548,76.03533692844212 L 24.78339003585279,75.13551962282509 L 24.65160871297121,74.81809620652348 L 24.334908448159695,74.67358102556318 L 23.62073871679604,76.03533692844212 L 23.607985693961382,75.33815201558173 L 23.340172050520778,75.28276414889842 L 22.475091449916363,76.11641795281321 L 22.258289905264974,76.72461221925914 L 22.358188653364778,77.18829401116818 L 21.637642422690988,77.00037726480514 L 20.345335284247994,78.26199738774449 L 19.699181728065014,78.55011226702482 L 19.873473146930337,77.8697834983468 L 19.699181728065014,77.8697834983468 L 18.98501199670136,78.65562769584358 L 19.108291294425726,79.58111413381994 L 18.98501199670136,79.9140511834994 L 18.806469552218914,79.9140511834994 L 18.589668033644557,79.02090897224844 L 18.041287697851658,78.80308644846082 L 17.37813009135425,79.02902697306126 L 16.28136944770813,79.89374881703407 L 14.92317165993154,80.31878032255918 L 15.031572407111526,81.04990112874657 L 15.726612586528063,80.74659453239292 L 16.262239897623658,81.81104351300746 L 16.82974975556135,81.95734035409987 L 16.82974975556135,82.2052524825558 L 16.340883569791913,82.54261646233499 L 16.268616396933794,83.15243011340499 L 16.47691591642797,83.51568130217493 L 16.82974975556135,83.11583693977445 L 16.93815052881837,83.55905822478235 L 17.18258362263441,83.77595461346209 L 17.307988418266177,83.01825785730034 L 17.00404117628932,82.41254283487797 L 17.841490229591727,82.14835237711668 L 18.096550846472383,81.75144362170249 L 18.85110517591238,81.8029161579907 L 19.02964759618044,82.02236402221024 L 18.806469552218914,82.64017626829445 L 19.21456653997302,82.3718962687999 L 19.699181728065014,82.41254283487797 L 21.22529440931976,83.41673057992011 L 21.255051482468843,84.08235398773104 L 21.01912041567266,84.77392943203449 L 20.58764287829399,85.14285089075565 L 20.58764287829399,85.3897342979908 L 21.250800484791398,85.0763866091147 L 21.56962624937296,84.72646204847842 L 21.79918079264462,84.76307965163141 L 22.194524757564068,85.61764912679791 L 20.30707618407905,86.94758270308375 L 19.818209998309612,86.84441869705915 L 19.431368058547378,86.30152318160981 L 18.925497848540545,86.32866504695266 L 19.342096861451864,87.43902989663184 L 19.24007261544466,87.84095087181777 L 18.449384685605764,89.03488948941231 L 18.61092308163643,88.80800908990204 L 18.175194518640637,90.42516987025738 L 17.909506376832724,92.38080768473446 L 18.100801846012473,93.25714626070112 L 19.60991050489247,93.84926447831094 L 20.955355267971754,93.62465068139136 L 22.001103786751628,92.95501819252968 L 23.312540477141738,91.3755901902914 L 23.442196298390627,90.86158221960068 L 24.047965256497264,89.88961954414845 L 25.259503196924925,88.49693245254457 L 25.597458513453603,86.77790741156787 L 25.227620624005795,86.54988268576562 L 24.74938196130097,86.80098255630583 L 24.156366027891636,86.54988268576562 L 24.602722089737654,86.3137369863689 L 24.596345590427518,86.01248125266284 L 24.156366027891636,85.14285089075565 L 24.774888010695577,85.0614662785083 L 25.042701652273536,84.6979820271954 L 25.956668877974153,82.14835237711668 L 26.375393390655518,81.42908796481788 L 26.93652675114572,81.62818492390215 L 27.076810097321868,82.04674835409969 L 26.49017066322267,82.64017626829445 L 26.311628242954612,84.0254095736891 L 26.745231280103326,85.17811837513 L 27.140575245022774,85.52539528347552 L 27.576303808018565,85.3897342979908 L 27.576303808018565,85.61764912679791 L 27.739967703819275,85.61764912679791 L 28.3372346367687,84.6762832319364 L 28.823975322768092,83.32320556696504 L 29.359602633863688,83.57125813048333 L 29.561525601893663,83.14158762991428 L 30.87721328996122,83.57125813048333 L 32.94320430792868,83.77595461346209 L 34.64573393575847,84.48235872853547 L 35.26213041879237,84.9366819402203 L 36.02306127361953,84.77392943203449 L 36.51192745938897,84.9366819402203 L 37.228222688660026,84.59491441678256 L 38.45038815587759,85.64206985849887 L 39.202816957607865,86.0735435616225 L 39.202816957607865,86.30152318160981 L 38.94775634072721,86.50102304387838 L 38.65018562413752,86.30152318160981 L 38.47164320386946,86.54988268576562 L 37.96789846755564,86.31780825741589 L 37.09006484225392,86.41144962236285 L 36.86476129852235,86.30152318160981 L 36.19522719271481,86.62724580336362 L 35.49593598768115,86.6028150729835 L 33.22589647397399,85.68277161661536 L 33.478831592947245,86.0735435616225 L 33.03035000525415,86.38837821409106 L 32.23966210335493,87.67800182290375 L 30.977112038061023,88.26874465122819 L 30.392598129808903,88.72921731416136 L 30.073772363364697,89.28353155497462 L 31.627516619861126,88.10440849978477 L 32.03561360947788,88.12342200800776 L 32.03561360947788,88.35159604344517 L 31.721038842573762,88.73465113341808 L 30.60939964838326,89.49143239017576 L 30.966484513133764,91.10769398137927 L 30.583893598988652,91.4694289220497 L 30.048266287893057,91.11585282720625 L 29.523266529664397,91.10769398137927 L 29.716687498614192,91.58639249019325 L 29.149177614599466,91.78769197314978 L 28.466890458017588,91.79313275404274 L 28.630554353818297,92.47876749839634 L 28.290473537519574,92.48693101108074 L 27.576303808018565,92.95501819252968 L 27.956769222393632,93.32247625943273 L 28.466890458017588,93.41230792179704 L 27.944016197696328,94.19235167466104 L 27.576303808018565,95.23961633630097 L 28.058793468400836,95.56927954219282 L 29.399987205863,95.85811272356659 L 30.165169060230255,96.39499915856868 L 30.48824585042894,96.12109025102109 L 31.036626186221838,96.06794738397002 L 32.001605508849025,95.67826908733696 L 32.39269847422838,95.69598034769297 L 32.22903457842767,96.15515679400414 L 32.90281970985234,96.61987320519984 L 33.12174672819674,96.38273390755057 L 33.21739447675645,96.8979285499081 L 33.12174672819674,97.5277617778629 L 32.94320430792868,97.27553590759635 L 32.22903457842767,98.442815432325 L 33.28541062399745,98.9011559234932 L 33.44694901816547,98.18094608467072 L 33.889054080471396,98.09366270713508 L 34.16749527491629,98.53011160995811 L 33.83591645769775,99.37868757080287 L 34.6754910107702,99.73348722979426 L 35.26213041879237,100.27397582121193 L 35.78925570473075,99.91636612731963 L 36.35038906335831,100.27124578040093 L 36.55018653161824,100.80093364603817 L 35.99117869883776,100.9620476225391 L 36.42478173598647,101.86339455284178 L 36.422656236216426,102.24042260181159 L 35.99117869883776,102.58745041582733 L 35.24937739409506,101.98223390523344 L 34.45868946611881,101.90027510374784 L 33.93156420625746,102.58745041582733 L 33.19613942690194,102.27867516037077 L 32.94320430792868,102.58745041582733 L 31.41921710036695,101.69129289966077 L 31.142901433631778,101.830612343736 L 30.736929969862103,102.44535419438034 L 29.859096318483353,102.92496300954372 L 29.616788750514388,103.69718596432358 L 29.667800875380635,104.5448695961386 L 30.073772363364697,105.10833618883044 L 30.073772363364697,105.33813758566976 L 29.523266529664397,105.33813758566976 L 30.44998675212264,106.19188029784709 L 31.597759544849396,106.71604424435645 L 31.86132218874991,107.00760062597692 L 31.65514819510281,107.65654476452619 L 30.309703432023525,109.6154060466215 L 28.936627093702555,110.42407943774015 L 28.065169993788004,111.23714295774698 L 28.09705256856978,111.58685981109738 L 27.567801782861352,113.45151715539396 L 27.115069195628166,113.6574193071574 L 25.225495098158717,113.63682830147445 L 24.706871837377548,113.86745800077915 L 24.970434479415417,114.1351814493537 L 25.316891819238663,115.15692798793316 L 25.65484713576734,115.29704060871154 L 25.897154729813337,115.15005995426327 L 25.87164868041873,114.9220519606024 L 25.404037542641163,114.81080306321383 L 25.404037542641163,114.60068051796407 L 25.929037302732468,114.51004518568516 L 26.311628242954612,114.11870526056737 L 26.15859187208116,114.63913292251527 L 26.301000718027353,114.90557031799108 L 26.847255527973175,115.25170913059264 L 27.30636464059353,115.94963529612869 L 30.073772363364697,118.05978126171976 L 29.716687498614192,118.29084350820631 L 29.716687498614192,119.2153190113604 L 31.017496636137366,119.4258529767394 L 31.336322402581573,119.67631657794118 L 31.04937921091914,120.17181753087789 L 31.463852724060416,120.49945599865168 L 33.08136212825775,121.04883455391973 L 33.478831592947245,122.80522804614156 L 33.28541062399745,123.99618925433606 L 32.88156465999782,124.24714002944529 L 32.12913583032787,124.32160312216729 L 30.5477600004524,123.38822738267481 L 29.895229917019606,123.85831564106047 L 20.72580069862306,122.18104153778404 L 18.253838216885924,120.8326477445662 L 16.28136944770813,121.04470342025161 L 15.662847438827157,120.8326477445662 L 15.305762574076653,120.301215515472 L 14.848778961226344,120.60133608430624 L 12.787038968876004,120.08372083771974 L 11.745541447773576,120.0823443569243 L 10.733801001682878,120.60133608430624 L 10.623274728655815,121.33803269732744 L 11.275804812088609,123.1084247874096 L 11.68602729961276,124.77946504298598 L 12.665885172784328,125.73409093078226 L 12.889063216745853,126.52070755604655 L 13.0676056612283,128.38480020314455 L 12.35768693126738,130.1342536797747 L 12.395946029573679,130.43563439976424 L 12.710520796477795,130.8283170685172 L 12.842302117496729,132.52978178858757 L 12.75728189572692,132.83562343008816 L 12.35768693126738,132.91866426263005 L 12.889063216745853,135.00811312161386 L 12.710520796477795,136.19282658491284 L 13.173880908638239,137.54871114436537 L 13.960317810997367,138.75136724393815 L 15.35464919731021,138.27411449886858 L 16.919020978733897,139.1135342363268 L 18.253838216885924,140.61414433456957 L 18.443008188158274,141.96149267442524 L 19.065781194716692,142.1421245308593 L 19.33359483629465,143.19284666329622 L 19.146550366654992,144.34696520213038 L 19.45049760863185,145.06197239551693 L 20.324080234393477,145.16214663162827 L 21.873573491349816,145.72153244260699 L 22.360314153134823,146.13907251041383 L 23.51658897101879,147.67905402742326 L 24.664361737668514,148.3727979855612 L 27.459401009604335,151.80557273328304 L 28.007781345397234,152.24933329038322 L 29.081161441281438,152.3163234256208 L 31.336322402581573,152.1237320387736 L 32.22903457842767,152.3386539146304 L 33.20039042644203,151.869759243913 L 34.69036953523755,151.7372021190822 L 35.26213041879237,151.869759243913 L 37.430145682767034,153.92187704797834 L 38.65018562413752,153.9777424968779 L 40.53763419575989,153.76406443864107 L 41.11789710633457,153.9065142897889 L 42.0042327567935,154.4554473767057 L 42.40807871893048,154.4680198971182 L 42.83743078261614,154.13277620449662 L 43.49633736349642,152.59267829637975 L 43.13925249874592,152.3386539146304 L 42.833179756999016,152.50334784388542 L 42.603625213727355,152.3386539146304 L 43.730142932385206,151.109403305687 L 45.175486443564296,150.14292664919049 L 46.72710520029068,149.45422739721835 L 48.580545673146844,149.00124762021005 L 49.31171945296228,149.00264126528054 L 50.92285235784948,149.7623043274507 L 52.88256810232997,149.17267261445522 L 53.51596863567829,149.5295003373176 L 54.047344921156764,149.2925382843241 L 54.83378182351589,149.22702952940017 L 55.541575053706765,149.40125902649015 L 56.15372053720057,150.31443627085537 L 57.56718144752085,151.06058164779097 L 57.99015698581934,151.65767149534076 L 57.51191832497716,151.6744145480916 L 56.20685815997422,152.1237320387736 L 55.59258717857301,151.8837130665779 L 55.437425307929516,152.57034535054117 L 54.95706111937761,152.8271871386096 L 54.66799242794514,153.2460122257471 L 54.50645403191447,154.1034447066486 L 53.87092800065875,154.23334421217442 L 52.78479488193989,155.42792456690222 L 52.78479488193989,155.64035924803466 L 53.35443023964763,155.96883297432214 L 53.781656777486205,156.46233051549643 L 54.0622234698385,156.61054022144526 L 54.50645403191447,156.40920105483383 L 54.76364017650485,156.83287268411368 L 55.29714196175337,156.08625623770058 L 55.53094752877951,156.0485123898834 L 55.930542493239045,156.34209191054106 L 60.24531794898212,155.6627219086513 L 61.401592740789056,155.25603451952338 L 61.93084352649748,154.68176319729537 L 61.469608914107084,153.87997884862125 L 59.201694928109646,152.70853384025395 L 58.52365877106786,152.1237320387736 L 58.64056156761944,151.2433194015175 L 59.5864113420248,150.9629414603114 L 61.75017558038235,151.16799062956125 L 63.95644994452596,151.9925557821989 L 70.1204148735851,152.26608063373715 L 71.48924018442631,152.0386061547324 L 73.74652664735913,152.1237320387736 L 73.24278193712234,151.93394750449806 L 73.0153528675437,151.42328136693686 L 74.07810546271503,151.82231685798615 L 75.276890354231,151.82929363194853 L 76.51393434405327,151.50698938127607 L 77.68721318617463,150.9336502123624 L 77.84662608243525,151.1414866494015 L 78.2185894716531,150.9336502123624 L 78.93275920301676,151.42328136693686 L 80.40785978734493,151.6618572389707 L 81.19429668970406,152.2144433511421 L 84.12111728265882,151.65767149534076 L 85.54945674352348,150.9336502123624 L 88.49753238633275,151.00757645536214 L 88.86524477601051,151.29493497498333 L 89.50289633497596,153.06171984411776 L 90.25745063647628,152.93886638712138 L 91.10765271447599,153.29627635516226 L 90.63791607692838,153.86880611721426 L 89.44550768472254,154.78654656838626 L 88.86524477601051,154.9374429723248 L 87.43690531514585,154.9374429723248 L 86.35289769619703,154.23334421217442 L 84.97344486042857,154.56022046227008 L 82.66939727403224,156.0065755173564 L 81.25168533809483,156.34209191054106 L 81.73417500033975,157.39089582115412 L 82.62688717618585,157.986829332076 L 84.47820214927197,158.71306961216033 L 85.26251355186105,159.2183546423912 L 86.36777622066438,160.3553021075204 L 86.79287725873291,160.5373779423535 L 94.50420994497836,161.26582573354244 L 95.59246856346726,161.63854410219938 L 97.3842694144696,162.70939523540437 L 98.03679949603975,161.9832924315706 L 99.2015763130039,162.58322186488658 L 99.42687985673547,163.09216349758208 L 99.96250716783106,163.3782298695296 L 100.50238547846675,163.38664410356432 L 100.92748649045825,163.1805037232116 L 101.31220293045044,162.7724845232442 L 101.48436884954572,162.12905526533723 L 101.7734375409782,162.13185848016292 L 106.8236377760768,163.28567508421838 L 109.79934499412775,163.43572789244354 L 110.74944579228759,162.99962025415152 L 111.28719860315323,163.00663099158555 L 111.682542540133,163.6475013801828 L 111.41897992417216,164.4400723585859 L 110.39873745292425,164.62808516155928 L 107.40177518501878,164.11880262196064 L 106.41341528855264,164.84698519296944 L 104.54934726469219,165.3185331635177 L 98.34712323732674,165.06169589795172 L 97.01655702479184,164.38816112279892 L 96.47242771461606,164.59020077250898 L 96.0175696015358,165.45889354962856 L 95.74550493434072,165.55434353183955 L 96.11959384940565,165.8112360406667 L 96.0175696015358,166.1566123785451 L 95.38842006959021,166.73095093108714 L 95.27364279702306,166.51467939838767 L 95.0313352048397,166.73095093108714 L 94.81453368626535,166.531531018205 L 93.79854223877192,166.25911210291088 L 93.79854223877192,166.47535949386656 L 94.22151775285602,166.641069393605 L 94.32141649909317,167.22536262497306 L 94.67850136384368,166.96690683811903 L 94.68275236338377,167.19164936244488 L 94.85279278457165,167.22536262497306 L 94.04297533258796,168.29601762630045 L 93.44358287379146,168.7373520359397 L 92.90795556269586,168.63895801827312 L 92.40846185199916,169.13097049389035 L 90.93123579397798,169.82840393017977 L 89.32222838886082,171.40262995380908 L 87.8832614030689,172.179591787979 L 88.05967832356691,172.4372299257666 L 87.7578565813601,172.56817194540054 L 87.34763409383595,173.8540557110682 L 87.83012378029525,174.12315491307527 L 88.77809905260801,175.4409316983074 L 89.51564935781062,177.68078717775643 L 88.95451599918306,178.09147842042148 L 89.56878698244691,179.048634567298 L 90.54651935398579,180.1432229122147 L 91.58164034970105,180.87936539109796 L 92.53599217347801,180.74370508268476 L 92.7953037917614,181.0984173687175 L 93.2034007795155,181.14364362508059 L 98.10906666889787,180.22657446749508 L 103.31230327486992,178.99780197627842 L 110.25420308113098,177.9602185022086 L 116.84326904639602,177.77957210410386 L 117.58294485136867,177.8783613210544 L 118.93689163960516,178.58977049402893 L 119.54903712309897,179.46380986552685 L 119.75308561697602,179.29857795406133 L 120.35247804969549,180.11779422685504 L 120.64579776674509,180.26895782072097 L 120.98800410702825,179.98782988078892 L 122.06138420291245,179.75899765081704 L 122.93071580305696,179.082523570396 L 131.53050963953137,177.0077525721863 L 132.80581272765994,175.9837673343718 L 135.031216615811,175.56499700248241 L 141.7520639039576,175.7468777038157 L 142.64477605372667,176.1967070484534 L 143.8116783965379,175.9837673343718 L 144.88293299265206,176.1967070484534 L 145.42493680119514,175.9837673343718 L 145.62260877154768,176.0429936191067 L 145.88617141358554,176.45762058719993 L 146.96592803485692,176.8807872487232 L 147.83738513477147,177.43525460269302 L 149.6440645083785,179.32823407370597 L 149.8608660530299,179.80278474185616 L 150.04365947283804,181.4093661615625 L 150.34548121504486,182.52064951695502 L 149.73333573155105,183.04679029714316 L 149.64619003422558,183.33112684544176 L 149.92675670050085,183.77680065017194 L 150.4900155607611,183.98905708361417 L 151.6888004783541,184.06547424010932 L 152.40084470808506,185.01382772810757 L 156.59659186564386,186.61135632824153 L 162.15053681097925,190.32770648784935 L 165.33029252290726,191.8949142647907 L 166.53332844004035,192.8053597752005 L 169.0074164196849,193.6380077013746 L 169.73221367411315,194.077189989388 L 170.16369123756886,194.947279416956 L 171.86196983978152,196.90621077641845 L 172.38271860033274,197.85855142958462 L 173.26267772726715,198.1105835000053 L 174.69314271211624,198.1832081368193 L 174.74202930927277,198.4039445016533 L 175.2287699971348,198.64037009794265 L 175.49658363871276,199.11614508647472 L 175.9429397266358,198.64037009794265 L 176.40204883925617,198.8654247513041 L 177.36915368773043,199.8570732595399 L 179.47340377792716,201.0302342986688 L 180.20457755960524,201.2455467134714 L 180.59567049704492,201.05162203963846 L 180.89749223925173,201.59921721927822 L 181.50326119735837,202.0399572569877 L 182.2110544014722,202.19259615708143 L 182.82319988496602,201.87877042777836 L 183.24404992349446,201.92726791556925 L 185.23352274298668,202.7262006783858 L 186.36004046164453,202.74617766402662 L 187.11672029085457,202.9216972021386 L 187.56307637877762,203.20569699257612 L 187.8521450702101,203.0487077580765 L 189.692832544446,203.52256332244724 L 191.83321623504162,204.7676252182573 L 195.94606869481504,206.16057291347533 L 200.0971802547574,208.341025990434 L 201.04728105291724,208.39824681729078 L 202.9666121993214,208.04636187385768 L 205.74039642326534,208.04636187385768 L 207.6448490191251,207.45143041294068 L 213.22642553783953,206.8881075400859 L 213.69828770123422,207.06252228002995 L 214.43796348012984,206.7737445589155 L 217.8345207106322,207.06252228002995 L 226.39392994716763,205.84333324246109 L 229.37601366452873,206.7179947393015 L 230.34736953862011,206.8023347472772 L 232.41336053051054,205.98051244951785 L 235.87155740894377,205.77331789769232 L 237.23400622047484,205.92906925361603 L 238.59858050756156,206.34493552707136 L 240.96001674234867,207.94624214619398 L 241.73795161955059,208.92188545968384 L 242.34159507788718,210.1083952076733 L 242.50313347391784,211.14657146017998 L 243.94847698509693,210.66537045501173 L 244.01224213279784,210.88590803928673 L 244.48410426825285,210.9260081257671 L 245.13450885005295,209.96237329393625 L 245.01973157934844,209.48572105448693 L 245.98896192759275,208.69868022482842 L 246.58835436031222,208.44116339832544 L 247.35353621281683,208.5026785908267 L 248.33126858621836,209.22382033150643 L 248.72236155159771,209.16514733806252 L 249.50879845395684,208.5026785908267 L 249.50879845395684,208.26234972756356 L 248.1059650424868,208.43544111866504 L 247.4513094611466,208.35819207783788 L 246.90718015097082,207.9147768439725 L 246.4395690150559,206.60792865604162 L 246.26527759432793,205.14470707066357 L 247.14311121962965,203.2941867057234 L 247.92742262408137,202.25536658614874 L 249.3302560094744,201.05162203963846 L 249.3302560094744,200.81209113355726 L 248.9731711447239,200.81209113355726 L 249.7298509720713,199.31845122016966 L 250.48227980174124,198.92525318916887 L 251.6470566187054,197.68342717457563 L 253.20080090127885,197.0428447527811 L 254.33369514532387,196.85782155022025 L 255.58774315938354,195.77360685821623 L 256.54847150854766,195.23311742581427 L 257.7047463003546,194.85485203005373 L 258.920535242185,194.69560137111694 L 260.0470529869199,194.79797547776252 L 261.5859186928719,195.64700692053884 L 263.20130262337625,195.92866591829807 L 265.9602082967758,197.10831814818084 L 267.20362881198525,197.41436032764614 L 268.27488340623677,198.2871651602909 L 268.84876978956163,198.4224588824436 L 268.58733267337084,197.75603801663965 L 268.1218470353633,197.4656086806208 L 268.1622316353023,196.93752198666334 L 267.66911444813013,195.8518463484943 L 267.7647621706128,195.2729385374114 L 267.9581831395626,195.2729385374114 L 268.01344626396894,196.11219001747668 L 268.26213038153946,196.87774641253054 L 268.61708974838257,197.50404567644 L 269.2696198299527,198.15330359246582 L 269.3992756251246,198.19175238069147 L 270.9721494317055,196.72689127828926 L 270.9721494317055,197.20510838367045 L 271.1506918761879,197.20510838367045 L 273.12316064722836,194.62735453993082 L 273.4887475371361,193.62521726544946 L 273.4887475371361,192.19740843772888 L 273.1316626705229,191.1111743422225 L 273.11040762253106,189.97012670524418 L 273.4887475371361,188.83958222530782 L 274.64927335456014,187.37936438526958 L 275.32518398575485,186.90889306552708 L 276.1626330111176,185.2516861120239 L 277.90129623934627,184.1956724189222 L 278.645223017782,184.010283799842 L 278.955546785146,182.8119919775054 L 279.75898773781955,182.4046886842698 L 280.29461502097547,181.68925647810102 L 281.0470438506454,181.52527613565326 L 281.75696255639195,181.13375029247254 L 282.4116181638092,181.29063522443175 L 283.5041278079152,181.90555902384222 L 285.10888418741524,183.45845329854637 L 285.6976491212845,184.72503329720348 L 285.8230539187789,185.50939416978508 L 286.1673857588321,185.81528361327946 L 287.52133252099156,185.50939416978508 L 289.77649350836873,185.50939416978508 L 291.82973147556186,184.96993993408978 L 295.7002763431519,183.01284206472337 L 296.49521527066827,182.32125710882246 L 296.928818333894,181.2171382177621 L 297.1328668296337,179.0895838625729 L 299.63458638451993,177.8783613210544 L 302.97588046453893,177.92070087138563 L 303.9132282398641,177.66103068646044 L 304.8059404157102,176.93157250713557 L 306.4213243201375,176.55494194012135 L 307.4968299139291,175.48886523675174 L 308.56808451004326,175.14489405415952 L 309.2780032400042,174.28378424048424 L 309.80087750032544,174.0851127775386 L 310.84450054727495,174.19924105424434 L 311.2589740343392,174.0710232630372 L 311.97314376570284,174.54447872005403 L 312.8148438166827,176.3151722047478 L 313.64804181829095,177.3449504710734 L 314.1114019565284,177.66103068646044 L 314.33883100003004,177.09663250297308 L 314.7724340632558,176.77216697391123 L 315.27192774787545,176.76934570912272 L 315.71615833602846,177.16717464569956 L 315.89470078237355,176.93157250713557 L 316.56848591193557,177.04584356117994 L 316.6024939864874,174.8756741732359 L 317.06160309910774,174.28378424048424 L 318.76413272693753,173.33707990683615 L 319.49105548113585,172.179591787979 L 320.5091724526137,172.62871754914522 L 321.7355889175087,172.45975705981255 L 324.8834620565176,171.4040372511372 L 326.4265787880868,171.14088712912053 L 327.47445283457637,170.76943274121732 L 328.0674687679857,170.76239818613976 L 329.2216180600226,171.08178808074445 L 329.71898627094924,170.9720367435366 L 330.85613151453435,169.95779000222683 L 331.3875078000128,169.95779000222683 L 332.38224422186613,170.27003435511142 L 334.02738520130515,169.9184108581394 L 334.32495591789484,170.16172855067998 L 336.30167571268976,170.27003435511142 L 337.66412450000644,171.50255043059587 L 338.8522818926722,171.96843466255814 L 339.17110765725374,171.9430971527472 L 339.9192854613066,171.0212834654376 L 340.9565319828689,171.23376017715782 L 341.62819161452353,171.84597249235958 L 341.9363898560405,171.9430971527472 L 342.68244216032326,172.85965047962964 L 345.0885139927268,173.4539878629148 L 345.9387160446495,174.10202030371875 L 346.4382097553462,174.27392070088536 L 349.42241899855435,174.3006932400167 L 351.5266690887511,174.78124332427979 L 352.4193812645972,175.48886523675174 L 352.7275795061141,175.559357537888 L 354.0772752687335,175.32251201663166 L 354.88071622140706,174.634671876207 L 355.4673556294292,174.54447872005403 L 356.617253921926,175.1547613646835 L 357.4504519496113,175.3591650770977 L 359.56745506450534,176.69458422716707 L 361.2062195446342,176.29683788772672 L 362.2413405403495,175.03635655902326 L 363.79508482292295,173.6666912548244 L 364.7876957207918,173.09201516676694 L 365.8228167165071,172.8892228771001 L 367.3978160470724,173.39201182313263 L 368.1056092530489,172.87936536874622 L 369.2044954225421,172.80895590782166 L 370.76036517880857,171.5616603726521 L 371.7253445275128,171.23376017715782 L 372.14832003973424,171.54477166663855 L 373.79558654502034,172.11624259129167 L 374.4332380760461,172.179591787979 L 376.68839903734624,170.25456178747118 L 377.74052408337593,170.0534278806299 L 378.17837814614177,170.12797192949802 L 380.4951787572354,170.95937346480787 L 381.1009477414191,171.3688549855724 L 382.31248568184674,171.7066269889474 L 386.5911275371909,174.54447872005403 L 387.5008437372744,174.14006272144616 L 388.27027659118176,174.05411596689373 L 389.00782689638436,174.26828443165869 L 390.80387874506414,175.64395117852837 L 391.9665300641209,175.84416867699474 L 392.68707629293203,176.1967070484534 L 394.2365695498884,178.28485358320177 L 396.0623784735799,179.6587142618373 L 396.755293155089,179.7053242912516 L 397.8733088746667,179.29857795406133 L 398.532215455547,179.40449447464198 L 399.51844985224307,180.0994292581454 L 401.6843395922333,180.85816791839898 L 403.73757758550346,182.70167345087975 L 405.5506334602833,183.05527745187283 L 408.0119684152305,185.0761215677485 L 409.5147005748004,185.72606157977134 L 410.76449758931994,185.96399479359388 L 411.24911277741194,186.34643982723355 L 411.6465822402388,186.95706938114017 L 412.0121691301465,188.47231246437877 L 413.812471980229,190.00843612011522 L 414.1695568449795,190.66405342053622 L 417.28302888199687,189.4255079254508 L 418.06315301544964,189.4867601543665 L 418.91886013001204,189.78583896439523 L 419.0295351985842,188.88331804331392 L 420.44401636347175,188.54834214504808 L 421.8018102850765,187.4429136356339 L 423.10021761991084,188.48711534403265 L 423.91813325695693,189.6633199825883 L 425.3272156585008,190.36248817294836 L 427.1978939641267,189.6471047271043 L 428.49900072067976,190.1191963404417 L 428.86611795425415,190.17145680449903 L 429.60575123876333,189.94079896993935 L 430.82317679934204,190.16424841526896 L 431.6302948817611,189.52999803703278 L 433.5414641145617,189.55161727033556 L 438.12233155220747,187.75792371388525 L 438.78098308853805,187.79212747514248 L 439.32356076687574,188.15219811350107 L 440.67325655557215,189.94079896993935 L 441.4479819238186,192.509999752976 L 441.97166386432946,192.91593058221042 L 442.6330147944391,193.13606586959213 L 443.9503178689629,193.24794614035636 L 447.60529402270913,192.93216933961958 L 448.1019820626825,192.6922085704282 L 447.6511836871505,191.35755434352905 L 446.70639663748443,190.31923435162753 L 447.3758457284421,189.91917601134628 L 447.8725337944925,189.37146326247603 L 448.3638230469078,189.20933692529798 L 449.3571991287172,190.17506102472544 L 449.90517559833825,189.12107300572097 L 450.8742571771145,188.74103726819158 L 451.70027097314596,187.9721556091681 L 452.4803951308131,186.4981465432793 L 452.8583099450916,186.08077514637262 L 454.78027673251927,184.76440040580928 L 456.04089258797467,183.65363009925932 L 456.84666096046567,183.26912126410753 L 457.61058877408504,183.16851290501654 L 457.6456808578223,182.98886622022837 L 456.9114463366568,182.151900222525 L 455.4983148816973,181.42474487796426 L 456.20825484767556,181.19856629613787 L 457.2974593639374,181.20036126114428 L 457.8251903820783,180.5973280109465 L 458.4514492303133,179.05457901023328 L 458.82801433466375,178.7802229244262 L 461.230472818017,179.45451683923602 L 461.99170123785734,179.50832547061145 L 462.81501566432416,179.28592459484935 L 464.2335459087044,178.21009850967675 L 464.60471224971116,177.39101904816926 L 464.30777915753424,176.48983469977975 z" /><path fill-rule="evenodd" fill="#D2EBD9" stroke="#A6A6A6" stroke-width="0.25" opacity="1" d="M 61.469608914107084,206.70798853319138 L 61.83944680355489,204.64337352104485 L 62.13701752014458,204.33063249941915 L 62.20503369346261,203.81663253437728 L 61.966977125033736,203.6653105597943 L 61.214548295363784,203.92513382807374 L 60.78519625775516,203.90657400153577 L 60.44511541724205,203.7167017571628 L 60.2240628991276,203.2399506708607 L 60.145419200882316,202.36949909944087 L 60.30058107152581,201.43378376029432 L 61.58651168458164,199.61766973510385 L 62.08175439760089,198.04223303310573 L 63.080741818994284,196.87205356173217 L 63.340053437277675,196.3455290561542 L 63.306045362725854,196.0012201499194 L 63.03398069553077,195.99268425721675 L 63.0148511454463,195.77360685821623 L 63.56960800662637,194.59038835950196 L 63.99045801907778,194.06155417021364 L 64.73651032336056,193.62095381412655 L 65.6738580968231,192.19740843772888 L 67.11069958284497,190.8301165373996 L 71.0683901719749,188.3361967438832 L 76.72435936518013,185.90026022400707 L 84.75876884162426,182.04128879588097 L 87.34763409383595,181.45459861401469 L 87.78336265683174,181.2171382177621 L 88.32961749099195,181.68925647810102 L 88.9438884742558,181.5959558589384 L 89.60279505513608,181.3415191564709 L 90.00239001959562,180.95567785482854 L 89.41575061157346,179.44827473443002 L 88.9608924984932,178.852370579727 L 88.21484019421041,178.49095033016056 L 88.9949005972594,177.30826542247087 L 88.25097379274666,175.09555821027607 L 87.97253262624145,174.66285796370357 L 87.29449646919966,174.3387389741838 L 86.87577195651829,173.87377916555852 L 86.95016462914646,173.0821567820385 L 86.6780999880284,172.8554258979857 L 86.1169666275382,172.90189683437347 L 85.74287771247327,173.1258156169206 L 85.27951760217547,172.6526546413079 L 84.51858674734831,172.2542053218931 L 83.2305306326598,171.9430971527472 L 82.5014823526144,171.47018135618418 L 81.55988357961178,171.6095124250278 L 81.14753559231758,172.08245709631592 L 77.36201092228293,171.70521950535476 L 76.5776995178312,172.0360028129071 L 76.79450103826821,173.1258156169206 L 76.06332725659013,173.61738736741245 L 76.24612070247531,174.40355909056962 L 75.98255806043744,175.0997869456187 L 75.44693077541888,175.5861451877281 L 74.81778124161065,175.7468777038157 L 74.94956256449223,175.2435690164566 L 75.51494692265987,174.65581139177084 L 75.72324644215405,174.0710232630372 L 75.66585779376328,173.22299474757165 L 75.48944087326527,172.74136486276984 L 75.1706151086837,172.4372299257666 L 74.41606077924371,172.54423574078828 L 73.06423949077725,173.9357683379203 L 72.40108188427985,174.28378424048424 L 71.53600128367543,174.4359698239714 L 69.72294540889561,175.10260610748082 L 67.92689356021583,175.2520270459354 L 67.21272382885218,175.7468777038157 L 65.77588234469295,175.48886523675174 L 65.34865580685437,175.7468777038157 L 61.371835665777326,174.2076952420175 L 60.68104651197791,173.61738736741245 L 60.10078360326588,172.66955154854804 L 59.96687678061426,171.9430971527472 L 59.49714011885226,171.79811551701277 L 57.392890026792884,172.05289518926293 L 56.20685815997422,172.8892228771001 L 55.18449018895626,173.17792565841228 L 54.18337726779282,173.23567059449852 L 48.60392624698579,172.42455851566046 L 47.79410876892507,171.9430971527472 L 47.23297541029751,170.78631571307778 L 46.576194329187274,168.01776776090264 L 46.0086844433099,166.96690683811903 L 43.55372601374984,164.54109226260334 L 42.43358479440212,162.5621936665848 L 40.09127810783684,160.82592771295458 L 39.555650824680924,160.12002543359995 L 38.643809124827385,159.93938293494284 L 37.92326286993921,159.4689388424158 L 36.15484259463847,159.41713986638933 L 34.64573393575847,157.7517948616296 L 32.60524899326265,157.3027779283002 L 30.23956175893545,155.66691496036947 L 28.630554353818297,155.42792456690222 L 26.643207034096122,154.03081593476236 L 26.407275965437293,153.0086686965078 L 26.13308579660952,152.59267829637975 L 25.289260271936655,152.1293141571805 L 24.90241833217442,150.73977934848517 L 24.507074367254972,150.28096999134868 L 22.891690462827682,148.8270482495427 L 22.12650861032307,148.63753423653543 L 21.782176768407226,148.35607882775366 L 19.935112794861197,146.31446177512407 L 17.820235153660178,145.27067361865193 L 17.905255377292633,144.64045315235853 L 18.232583167031407,143.99927871860564 L 18.61092308163643,143.68918634112924 L 17.361126041039824,142.50065087154508 L 15.928535582497716,141.60860638692975 L 15.139973178505898,140.86410873383284 L 13.156876858323812,140.1503926962614 L 12.90819276496768,140.33643763232976 L 12.974083414301276,140.741900568828 L 13.335419304668903,141.3363370290026 L 13.762645842507482,141.66417547129095 L 14.402422873303294,143.43474685959518 L 15.57995274104178,145.08979814033955 L 15.898778507485986,146.31863789539784 L 15.766997186467052,147.254273340106 L 15.269628973677754,147.9855016246438 L 14.49169409647584,148.59294497035444 L 14.848778961226344,149.04723846260458 L 14.279143577441573,149.45143956504762 L 14.51720017194748,149.77763954084367 L 15.329143123701215,150.39670967310667 L 16.668211387470365,150.91691249329597 L 17.18258362263441,150.9336502123624 L 17.57367656007409,151.62418572045863 L 20.098776690661907,153.49455107096583 L 21.637642422690988,154.06713005155325 L 23.537844020873308,155.5411274349317 L 25.063956702128053,156.08625623770058 L 26.288247667253017,155.9310910506174 L 26.653834557160735,156.08625623770058 L 27.93338867276907,157.7517948616296 L 28.545534156262875,157.44404794089496 L 29.382983181625605,157.7224172493443 L 30.1247844863683,158.34222462307662 L 30.44573575258255,159.06577766127884 L 29.438246306031942,161.08229114860296 L 27.44877348653972,160.76289189513773 L 26.49017066322267,160.3553021075204 L 24.706871837377548,160.3553021075204 L 23.996953131631017,160.13262893166393 L 22.001103786751628,158.94820228870958 L 21.255051482468843,159.44793910440058 L 20.4091004319489,159.65234459377825 L 19.235821589827538,159.13996519241482 L 18.53865590877831,159.4941387688741 L 16.697968434542418,159.03638326283544 L 11.180157089605927,159.18335904553533 L 10.803942674770951,159.40314034651965 L 10.198173690587282,161.08229114860296 L 10.385218162089586,161.6077154846862 L 10.312950989231467,162.36033258680254 L 10.051513845100999,163.1160010052845 L 9.662546405568719,163.6475013801828 L 9.943113073706627,163.76531758345664 L 10.926074389368296,163.66466827411205 L 11.72779368236661,164.0583554059267 L 12.308162840083241,164.75326235499233 L 12.529512949287891,165.6730016404763 L 12.929022898897529,166.30776577536017 L 14.332706483080983,167.52429454401135 L 14.170743014663458,168.131016776897 L 14.505467560142279,168.37196583673358 L 14.34620345942676,168.41123403422534 L 14.33000711351633,168.63079128041863 L 14.678228609263897,168.77360407542437 L 14.70252313837409,169.3163740383461 L 14.864486634731293,168.84501380100846 L 15.04264647513628,168.84501380100846 L 15.596021760255098,170.0468172961846 L 16.16559336334467,169.58959319721907 L 16.735164992511272,169.6520988997072 L 16.484121564775705,170.2611725591123 L 16.799950370565057,170.58452983945608 L 17.54498241841793,170.93831015750766 L 18.173940662294626,171.5763253038749 L 17.57197634316981,172.17160948179662 L 17.496393386274576,172.47735631093383 L 17.56927694939077,172.69909310527146 L 18.408787719905376,173.0657213665545 L 18.568051820620894,173.8760894406587 L 17.87430820055306,174.21606472600251 L 17.28584085777402,175.3634082293138 L 17.21565666422248,175.86476933024824 L 17.661056276410818,176.76391466148198 L 17.08338648825884,177.0344442082569 L 17.08338648825884,177.31754929944873 L 17.57197634316981,178.08461863268167 L 17.261546328663826,178.68519225995988 L 17.180564580485225,179.30027236696333 L 17.57197634316981,180.73371438030154 L 17.167067604139447,181.33498879056424 L 17.458601906895638,181.6096536675468 L 19.113328920677304,181.7784184915945 L 19.558728508651257,182.01183736044914 L 20.97590906918049,183.10563494823873 L 21.29983608610928,183.53862996120006 L 21.575173992663622,183.5817543119192 L 22.903274646028876,185.00531890057027 L 23.175913183018565,184.65653475560248 L 24.234074668958783,184.22332614380866 L 24.719965156167746,184.2718557463959 L 25.057389095425606,184.60799687821418 L 25.29493552260101,185.20490511972457 L 25.41640817001462,186.66907519940287 L 24.625486431643367,190.9717338634655 L 24.347449105232954,191.4729527272284 L 24.509412625804543,191.81918322015554 L 24.409535113722086,192.72468298021704 L 24.52560894563794,193.1396748283878 L 24.347449105232954,194.09264087304473 L 23.850761089473963,193.34359012637287 L 20.92462064139545,195.35305201355368 L 21.232351262122393,196.30424454901367 L 19.356274165213108,196.86720023397356 L 18.651732990518212,197.5252145882696 L 18.18743763677776,197.6743792342022 L 17.5017921756953,197.6092879800126 L 17.237251797690988,197.9817800046876 L 17.05639256350696,198.68443891685456 L 17.153570655733347,199.4443174144253 L 17.523387311026454,200.28772155754268 L 18.60314393043518,201.23647730145603 L 21.289038505405188,201.1196717908606 L 22.536157386377454,201.50361352507025 L 23.103029619902372,202.6268391236663 L 23.39456389658153,204.22115469910204 L 23.416159031912684,204.41791692655534 L 22.97615820914507,204.8749797521159 L 24.61468887887895,206.5271691447124 L 25.0816836245358,206.58435075171292 L 27.536780221387744,206.1723128547892 L 28.037517368793488,206.23039290122688 L 28.868929954245687,206.99646449554712 L 29.182059366256,207.08997218869627 L 30.197030583396554,206.46545092202723 L 31.27678717672825,207.24703769013286 L 32.04881317541003,207.1598786311224 L 32.600838750600815,207.5593856247142 L 33.31752718985081,207.53940860554576 L 34.055810790508986,208.67384266201407 L 34.92366517148912,209.17721072304994 L 35.50403435528278,210.2706551766023 L 36.128943491727114,210.58888172451407 L 37.09937473013997,210.42976278159767 L 37.94428429193795,209.84612069278955 L 39.45324417948723,209.67887442279607 L 40.56539348885417,211.03538454510272 L 41.13496509194374,211.11632841918617 L 42.05275824293494,210.89896892756224 L 42.88687019981444,210.40066797100008 L 43.59681019000709,209.69159924145788 L 45.2785311024636,207.29697411693633 L 45.904789950698614,206.7486424697563 L 47.82405734248459,205.66417677514255 L 49.184550657868385,204.20120741147548 L 49.6110545322299,204.38617989979684 L 49.2493360619992,204.5421489952132 L 49.55706670880318,204.78065758105367 L 49.29792512021959,205.01012133900076 L 49.85804885439575,205.20785997249186 L 50.33719086647034,205.66599136125296 L 50.67191541194916,205.5162945566699 L 50.82713043317199,206.03800853341818 L 52.8584225513041,206.5689206076786 L 53.82210534065962,206.5335225649178 L 55.541617756709456,205.6587330950424 L 56.20836745388806,205.80299535859376 L 56.28530012071133,206.0162302199751 L 55.87904169782996,206.26850874442607 L 55.93707860074937,207.08997218869627 L 56.11928752064705,207.48583467118442 L 57.17205024138093,207.5121674472466 L 58.864568734541535,206.89569836109877 L 60.14138093404472,207.04457962326705 L 61.469608914107084,206.70798853319138 z" /><path fill-rule="evenodd" fill="#D2EBD9" stroke="#A6A6A6" stroke-width="0.25" opacity="1" d="M 10.376716136932373,132.91866426263005 L 10.810319174081087,133.15949939377606 L 10.963355544954538,132.82870347704738 L 10.929347470402718,131.6401624251157 L 10.75293055176735,131.12702124286443 L 10.33845703676343,131.167127950117 L 8.718822106719017,132.12159399688244 L 8.36811376735568,132.39140504039824 L 8.221453921869397,132.80240790266544 L 8.429753415286541,133.07644999865443 L 8.905866578221321,133.17749384231865 L 10.130157543346286,133.13873678445816 L 10.376716136932373,132.91866426263005 z" /><path fill-rule="evenodd" fill="#D2EBD9" stroke="#A6A6A6" stroke-width="0.25" opacity="1" d="M 9.114166071638465,144.13556560408324 L 9.114166071638465,143.43474685959518 L 8.540279688313603,143.12194963358343 L 6.193722002208233,142.63823961559683 L 5.041698209941387,142.1296187946573 L 2.682387501001358,141.76420320104808 L 1.513359658420086,142.0254069585353 L 1.073380095884204,142.38391528185457 L 0.0,142.75498799048364 L 0.5993924587965012,143.93948191124946 L 1.455971036106348,144.8407695684582 L 2.501719554886222,145.50861596129835 L 4.274390855804086,145.8467865549028 L 6.86113060824573,146.74324699956924 L 7.182081900537014,146.70287097990513 L 7.694328635931015,146.06808540131897 L 8.059915525838733,146.00127597991377 L 7.940887229517102,145.04805964883417 L 8.059915525838733,144.34696520213038 L 7.83036095649004,143.81294020731002 L 8.087547101080418,143.67945316061378 L 9.114166071638465,144.13556560408324 z" /><path fill-rule="evenodd" fill="#D2EBD9" stroke="#A6A6A6" stroke-width="0.25" opacity="1" d="M 52.08762917481363,160.82592771295458 L 52.49997718818486,160.9393965099007 L 53.258782517164946,160.82172528281808 L 53.92194012366235,160.46454588416964 L 54.049470445141196,159.8637693412602 L 53.56698075868189,159.50253878254443 L 52.08762917481363,159.18335904553533 L 51.22467410005629,158.41498947422951 L 50.70817633904517,158.19950021337718 L 49.32447247579694,158.68927775416523 L 48.91212448850274,159.06577766127884 L 48.98864266090095,159.80075994879007 L 48.66131486929953,160.3426973875612 L 48.78246866725385,160.72086898889393 L 49.17143610678613,161.07388532347977 L 49.39673964865506,160.61161302402616 L 50.72092936374247,161.1747571201995 L 51.403216518461704,161.18176225107163 L 52.08762917481363,160.82592771295458 z" /><path fill-rule="evenodd" fill="#D2EBD9" stroke="#A6A6A6" stroke-width="0.25" opacity="1" d="M 51.76455240882933,154.1816628864035 L 52.07275065034628,154.1006512567401 L 52.06212312541902,153.82411573268473 L 51.777305433526635,153.76825400348753 L 51.40746754407883,153.97215587086976 L 50.489249320700765,154.11741204187274 L 50.115160405635834,154.37582305260003 L 50.059897255152464,154.7544125104323 L 50.77406698651612,155.7465839330107 L 51.64127308689058,155.35804902669042 L 51.50098976679146,154.4191271783784 L 51.76455240882933,154.1816628864035 z" /></g></g></g></svg>