<svg xmlns="http://www.w3.org/2000/svg" xmlns:xlink="http://www.w3.org/1999/xlink" width="500.0" height="495.4860650780611" viewBox="0.0 0.0 500.0 495.4860650780611" preserveAspectRatio="xMinYMin meet"><g transform="matrix(1,0,0,-1,0,495.4860650780611)"><g><g><path fill-rule="evenodd" fill="#D2EBD9" stroke="#A6A6A6" stroke-width="0.25" opacity="1" d="M 486.6325928834267,445.48993541579694 L 477.0984863201156,433.8640034124255 L 475.59137666085735,431.40851266821846 L 474.40097843902186,427.9785995678976 L 473.62558156391606,424.05003241915256 L 473.35255435155705,420.14636414451525 L 473.4836074295454,416.3577734217979 L 475.1654543923214,408.45836887694895 L 475.06716461712494,406.43897442147136 L 474.3463730234653,404.41980144474655 L 474.4446627981961,400.2920024651103 L 476.19203623291105,397.10816014558077 L 479.5120459329337,395.05397240491584 L 483.4217940145172,394.3332588337362 L 483.4217940145172,393.4203954199329 L 481.76178929861635,393.5885510877706 L 480.18915316741914,393.42640093714 L 478.86770200170577,392.9940076423809 L 477.9175675548613,392.315410642419 L 479.26086096744984,389.7573842029087 L 479.94888925831765,386.4432845171541 L 479.52296698931605,383.5619411440566 L 476.4759845016524,381.8273485423997 L 476.2466417825781,380.57302112085745 L 476.63980074832216,379.04873757390305 L 477.50256634224206,377.6685888553038 L 477.80835672374815,376.24054304882884 L 476.51966886082664,375.0285904277116 L 473.35255435155705,373.18681393237785 L 469.7595177073963,369.0659755570814 L 469.63938568532467,367.45867657708004 L 469.8578074821271,363.89672500640154 L 468.612803844735,361.3845798424445 L 468.1978026321158,359.7359813512303 L 467.9356966102496,356.4931642306037 L 467.65174847561866,355.6600731257349 L 467.1384574882686,354.98283933708444 L 466.8763514664024,354.2816586350091 L 468.3179345196113,352.17827442474663 L 468.77662009140477,350.8780101016164 L 468.06674955412745,349.65572443045676 L 465.0962147288956,346.7561115506105 L 461.8963370504789,342.3296770947054 L 459.5373828532174,340.4432200710289 L 458.7838279567659,339.4371872926131 L 459.1442237533629,338.3593551656231 L 458.71830148482695,337.59293430298567 L 455.31092320010066,335.01846908126026 L 454.0331563935615,333.78524568956345 L 452.60249426215887,330.7085273596458 L 451.1390690966509,324.4848015261814 L 447.3494527679868,318.9330615471117 L 446.5958980056457,316.6900963722728 L 446.6941877803765,314.28593408409506 L 447.61155879031867,311.6130089093931 L 449.4790642466396,309.24536465108395 L 449.5118275494315,307.59536382276565 L 448.95485220244154,305.748251311481 L 447.0873467461206,302.82551962928846 L 446.6941877803765,301.0446080751717 L 446.49760823044926,297.7700805151835 L 444.8594456273131,289.4667900502682 L 441.6158835897222,280.7492568823509 L 437.5204770141281,260.3264484992251 L 435.06323304213583,255.32401179568842 L 427.10176261048764,209.12940466497093 L 425.95504874782637,206.64357730699703 L 422.3510909131728,201.83933919621632 L 421.0077976346947,199.34850002499297 L 419.94845249084756,196.21013984130695 L 419.2058186503127,190.39243455650285 L 419.2713452568278,185.2120372033678 L 418.7689753253944,180.28243018314242 L 416.2898892406374,175.199702759739 L 415.23054409679025,174.11326279165223 L 412.7842211811803,172.33234398113564 L 411.703033790458,171.21044812584296 L 411.16790069034323,170.05300388624892 L 410.3160561528057,167.0914445114322 L 407.86973323719576,162.78344014892355 L 406.3626235774718,156.11560887936503 L 405.2814363213256,153.10870497161523 L 400.0393158835359,145.54899009363726 L 399.3840507613495,144.16187446331605 L 392.296267114114,138.15216413652524 L 390.614420151338,136.20858538756147 L 390.3741562422365,134.86359842680395 L 390.7017888701521,131.66443645115942 L 390.614420151338,130.23682894045487 L 389.9809972764924,128.60794177046046 L 388.8888888293877,126.8133588670753 L 386.46440816065297,123.73392462357879 L 384.06176960421726,121.44834540504962 L 375.84911420661956,115.96639382187277 L 370.32304563419893,109.90603492874652 L 368.9797522216104,109.19595706043765 L 367.8985649654642,107.79362757271156 L 365.23382038716227,100.94315459905192 L 363.9014480304904,98.37039644317701 L 359.79512039897963,93.24360915040597 L 358.1351155489683,90.19299457920715 L 357.1740601803176,83.9217724641785 L 354.727737264242,75.3721821163781 L 349.85693367989734,66.83802627213299 L 349.1579843326472,63.93310175742954 L 348.30613979510963,55.710648187901825 L 348.87403619801626,21.881908582989126 L 348.0767970760353,18.14101691916585 L 346.77718802308664,15.09578716987744 L 345.06257775751874,13.835418059956282 L 343.0312560540624,11.956787381786853 L 343.0967826601118,7.681923438794911 L 343.817574119661,3.0194486286491156 L 343.65375787299126,0.0 L 341.33848803536966,3.472698430530727 L 337.8874253910035,6.098211897071451 L 333.86846634419635,7.911542289424688 L 329.8276651846245,8.900698930490762 L 329.6638489374891,5.527163535822183 L 328.4843719061464,4.3203612100332975 L 326.7479195278138,4.755979314446449 L 324.8694930151105,6.339587525930256 L 324.76028218399733,7.534733153413981 L 325.40462611522526,11.108809754718095 L 322.5869863461703,15.808459897059947 L 322.35764362756163,17.063059779349715 L 322.5869863461703,19.766895259264857 L 322.5869863461703,25.246349113062024 L 322.88185567129403,26.85511263459921 L 324.1268593086861,28.65849233418703 L 324.410807443317,30.196795132011175 L 314.25419906154275,56.5545798051171 L 313.4132755799219,57.99465621681884 L 310.58471475495026,61.50084375217557 L 308.3568136356771,66.53098192531615 L 307.330231660977,67.9835787047632 L 303.18021966982633,71.26116245985031 L 300.40626426041126,72.79088369756937 L 299.9148155194707,74.69286099541932 L 299.5871830256656,75.3721821163781 L 297.3483607163653,76.82541552977636 L 292.2372932219878,79.27133760880679 L 289.9220233843662,80.86666426481679 L 287.47570046875626,83.01169172022492 L 286.3399077965878,83.73266143444926 L 284.8437191937119,84.38273815251887 L 284.0246379589662,84.3354591075331 L 283.08542470261455,83.98677978711203 L 281.9933162559755,83.95723104430363 L 275.331454877276,89.16440355498344 L 269.1501211831346,97.93276486452669 L 275.6590873710811,90.06885151099414 L 274.89461141778156,93.81121653923765 L 272.9506584331393,97.49514270434156 L 270.24222962977365,100.58235700009391 L 265.6335320668295,104.84136552317068 L 263.864316385705,107.01262613711879 L 263.03431396046653,109.42081230180338 L 264.1373434639536,111.77010925812647 L 264.71616092324257,113.86518182558939 L 263.94076404813677,116.81286015640944 L 262.57562838867307,119.71953239059076 L 260.074700191617,123.62733734864742 L 257.71574599435553,128.82709338562563 L 257.1915339506231,131.13721676636487 L 257.2461393661797,132.63005499029532 L 258.0106151853688,134.47256203601137 L 258.18535262253135,135.69902007002383 L 257.90140435379,136.35079207317904 L 256.5690321321599,137.5003329864703 L 256.2741628070362,138.68549664271995 L 254.8325797538273,141.18642481323332 L 254.43942065397277,142.17028885986656 L 252.8667845223099,152.33184787351638 L 251.93849245645106,154.18212294299155 L 249.9508551126346,156.18678372586146 L 252.37533578183502,157.91285350220278 L 253.72955025034025,161.00948149850592 L 253.18349595973268,163.68531331419945 L 249.9508551126346,164.14813268650323 L 249.32835329370573,163.19877128116786 L 248.79322019359097,161.47223787894472 L 247.8867701063864,160.10179863823578 L 246.194002087228,160.17298790020868 L 245.5278159091249,161.31205171206966 L 245.77900087507442,164.88985315850005 L 245.36399966245517,166.14194085868075 L 243.28899373393506,167.04396821605042 L 242.12043762486428,165.99358515581116 L 241.17030331213027,164.5160226211883 L 239.77240448398516,164.14813268650323 L 238.28713707113639,165.42984335357323 L 237.91582021815702,167.19826655834913 L 238.25437390245497,168.9431085595861 L 238.85503347450867,170.12422921834514 L 240.3512220773846,170.90178969874978 L 242.2514907028526,171.15702610788867 L 243.82412683404982,171.6615731283091 L 244.35925993416458,173.20497395144776 L 243.62754728412256,174.00640307879075 L 238.85503347450867,175.199702759739 L 238.85503347450867,176.1971434042789 L 242.8521502749063,176.23276713024825 L 242.45899130916223,177.5746448370628 L 240.2856954713352,179.45105277886614 L 238.85503347450867,181.0900878412649 L 239.20450821518898,183.13313562143594 L 240.48227502126247,183.8577562207356 L 241.86925265891477,184.32105227839202 L 242.54635989340022,185.6159637197852 L 242.13135868078098,187.61789936339483 L 241.43240933399647,189.25761981261894 L 242.6160139022395,192.6616433793679 L 243.77733779745176,194.00568778067827 L 243.5292575089261,195.17601818731055 L 243.76952141849324,196.3230644860305 L 245.4950527404435,200.9000354418531 L 246.30321291880682,201.77988824807107 L 247.61374302813783,202.1128159556538 L 245.7092608450912,203.38537722220644 L 246.5189702087082,205.46017937455326 L 248.48530974797904,205.59355263598263 L 250.1474345284514,206.3343579545617 L 250.86822612211108,206.0965002416633 L 250.44230385357514,207.71399026270956 L 249.31220883782953,206.89770355215296 L 248.36516551440582,207.13164747832343 L 247.11137309717014,207.19066993147135 L 247.08953098440543,208.8736708224751 L 248.34701157314703,211.75414937362075 L 252.96722079906613,211.86396298883483 L 251.09756897529587,217.1897200467065 L 248.96795749710873,221.30147527018562 L 249.9508551126346,223.15829959744588 L 249.9508551126346,224.15820184582844 L 248.40006109373644,224.92006686422974 L 248.60756170004606,225.79505844181404 L 249.49216954084113,226.86057768017054 L 249.9508551126346,228.15237555326894 L 252.0232989275828,230.8425065856427 L 247.65992803825065,230.5697124823928 L 247.55690213758498,235.01980656990781 L 249.8956558695063,237.64359690621495 L 249.7853989629075,246.03518953733146 L 250.1533000669442,252.29997629718855 L 251.5786074185744,257.30706879030913 L 253.8029502700083,261.21823654696345 L 254.43942065397277,266.3382576084696 L 255.62981887580827,270.8185240630992 L 256.2741628070362,272.3459922973998 L 259.4194350698963,276.50538375088945 L 260.3368062134832,278.6719687557779 L 263.1872091512196,280.8567090071738 L 263.99536946369335,282.40886266948655 L 264.82537175435573,286.0270664887503 L 265.43695251690224,287.5438123322092 L 269.05183140793815,291.0077016619034 L 270.10025549540296,292.465112964157 L 271.4763120766729,296.4198014657013 L 273.5731602520682,300.3753154668957 L 276.52185309911147,308.5996950385161 L 277.8979096803814,310.9911745591089 L 279.43778250878677,312.52786012366414 L 281.81857895245776,313.92115008085966 L 282.6158180744387,314.6626854445785 L 282.9325295118615,316.16976646287367 L 283.5331890839152,317.5812691608444 L 286.1542493030429,319.6389031223953 L 286.75490900920704,321.1942407307215 L 287.06069939024746,326.34571899520233 L 287.5193848279305,327.7639693277888 L 288.89544154377654,329.07459972333163 L 295.00032757548615,336.2218379592523 L 295.3825654848479,337.9042890444398 L 297.0644124476239,339.3114370307885 L 298.2002052539028,342.58121900074184 L 299.5871830256656,348.86487624933943 L 304.33785458886996,357.1105148298666 L 305.7794377761893,362.16996355028823 L 307.4831268512644,364.9760321495123 L 317.96736772730947,376.6125444653444 L 318.9175020400435,378.6766872932203 L 319.3652665554546,382.0434135440737 L 320.4901381712407,384.8945066938177 L 323.5043574902229,390.2197242821567 L 324.3234387245029,393.40838439110667 L 325.1097567901015,394.7776955422014 L 328.5608194344677,395.7987391045317 L 329.5327959936112,396.87990575749427 L 330.81056280015036,399.4749641115777 L 332.95109533471987,401.7098903460428 L 335.29912847513333,403.4463506843895 L 338.14953141333535,404.1974655482918 L 341.8190157194622,403.5004299413413 L 341.3275669789873,406.30075022252277 L 342.7145446166396,408.1879013655707 L 344.61481324164197,410.1113120596856 L 345.9799489011057,413.9767735679634 L 347.8146910541691,414.8966686213389 L 348.56824581697583,417.656630681362 L 351.40772769832984,423.46051925513893 L 352.52167825819924,424.9824644308537 L 352.8929951111786,425.782589121256 L 352.8711529984139,426.6489289184101 L 351.9756241017021,428.7307184813544 L 352.74009992042556,430.24708413984627 L 353.62470776122063,431.18584979651496 L 354.42194701731205,432.3653926849365 L 354.727737264242,434.3274540808052 L 355.1536596673541,435.8141868850216 L 356.21300481120124,437.27696101227775 L 357.56721928017214,438.37863369844854 L 358.855907142628,438.8181173657067 L 358.7466963115148,439.44424914801493 L 359.0852499958128,440.9434407018125 L 360.2319637243636,444.0566134066321 L 365.8235589028336,452.9775634743273 L 369.3729113214649,457.20765789877623 L 373.0423956280574,460.3175858738832 L 382.44544911338016,463.40996111230925 L 384.64058706350625,464.78451926400885 L 386.52993463212624,466.4485973021947 L 388.8233623574488,467.6967562097125 L 393.38837556075305,469.3430101154372 L 409.39868500921875,472.23788538528606 L 411.82316581206396,473.19088315730914 L 414.96843807492405,475.8088692254387 L 415.90765119716525,476.27942300075665 L 417.06528625031933,476.4845400918275 L 418.6160801346414,476.50867159757763 L 420.4071379285306,475.9114248123951 L 421.3681934317574,474.56618350511417 L 421.99069525068626,473.16072416258976 L 422.7879343726672,472.3705783649348 L 424.55714991968125,473.08834298793226 L 422.7114867102355,475.9898499865085 L 419.7518729409203,478.98836185317487 L 418.19015786610544,479.96585148759186 L 418.63792238151655,481.34770173346624 L 419.5662144473754,482.1201356383972 L 420.5381910065189,482.5787839423865 L 420.9422711627558,483.0495140198618 L 422.00161630660295,485.6810005819425 L 423.6288578538224,488.66301125334576 L 426.9816307229921,491.69985673436895 L 431.8851974764839,494.1997518213466 L 437.50955595774576,495.4860650780611 L 443.0247034742497,494.83383836969733 L 445.3181311991066,493.11279838345945 L 450.42919855890796,485.8982964800671 L 452.26394071243703,482.0839270032011 L 454.24065699987113,482.71758763631806 L 455.81329313106835,482.8986375941895 L 456.92724369093776,482.5908537604846 L 456.8617172189988,482.13823990896344 L 455.81329313106835,480.5753007088788 L 455.85697749070823,479.4589983834885 L 456.4030316467397,478.81338472571224 L 458.29237921582535,477.48602715926245 L 459.5373828532174,476.1225703326054 L 461.5031779506244,475.3986528404057 L 484.8961405050941,469.71690556500107 L 486.5452241646126,468.66760587785393 L 485.71522173983976,466.79831429664046 L 485.4858790207654,465.3030199985951 L 485.8462748178281,462.65038158139214 L 487.0912783211097,458.2141073080711 L 488.43457173369825,456.14100275048986 L 489.5157591244206,455.6468674610369 L 493.0869536558166,456.1892118230462 L 494.9216958093457,455.99637644784525 L 497.0731493998319,455.417882447131 L 498.9734180252999,454.4597921781242 L 500.0,453.1583165987395 L 489.4502325183712,447.9352742191404 L 486.6325928834267,445.48993541579694 z" /><path fill-rule="evenodd" fill="#D2EBD9" stroke="#A6A6A6" stroke-width="0.25" opacity="1" d="M 440.6985124456696,20.261753473896533 L 443.0574666429311,18.465004039928317 L 444.1058907303959,17.20442803297192 L 443.9420744837262,15.808459897059947 L 441.15719801792875,14.924984969198704 L 437.40034499252215,16.438695307821035 L 433.9492824827321,18.877358928788453 L 431.95072408253327,20.756623642519116 L 432.55138365458697,22.135253437794745 L 432.52954154182225,23.437377978116274 L 432.0162505544722,24.6276276265271 L 431.10980046680197,25.70009008795023 L 441.11351365828887,25.70009008795023 L 441.11351365828887,24.804403264075518 L 440.41456431150436,23.019039400387555 L 440.2398270079866,21.551975681446493 L 440.6985124456696,20.261753473896533 z" /><path fill-rule="evenodd" fill="#D2EBD9" stroke="#A6A6A6" stroke-width="0.25" opacity="1" d="M 15.387807629536837,382.33750600228086 L 19.196391274686903,383.1159242615104 L 22.818849281873554,379.8060290259309 L 25.202856285497546,373.3620909564197 L 24.666170109063387,368.8947656410746 L 22.710833083838224,366.53514674538746 L 19.23717628000304,368.7150200163014 L 16.650327632203698,369.55611017812043 L 12.52130049513653,369.14212599303573 L 8.885085687506944,366.83959424356 L 6.903461634647101,363.7306079752743 L 5.188913099933416,362.8556142975576 L 3.1780354315415025,363.81278142984957 L 1.8019788502715528,363.902720969636 L 0.5897385156713426,364.4363707541488 L 0.0,365.49172327527776 L 1.6709257722832263,367.93245549779385 L 1.7692155474796891,368.97601119754836 L 1.343293278478086,372.44895471073687 L 0.45868543768301606,374.5726287276484 L 0.33855355018749833,375.6525561772287 L 4.97945225937292,378.0099047552794 L 10.099359662737697,374.64982425421476 L 13.669774904847145,375.0846831742674 L 14.203691632021219,379.55371790751815 L 15.387807629536837,382.33750600228086 z" /><path fill-rule="evenodd" fill="#D2EBD9" stroke="#A6A6A6" stroke-width="0.25" opacity="1" d="M 183.63803157350048,247.2358249318786 L 186.02974893944338,242.82064792932943 L 186.6850140611641,240.75938764819875 L 186.39014473604038,239.23443558486179 L 185.4072471205145,240.2470855442807 L 184.0967170111835,241.1049014115706 L 182.65513395750895,241.39084853511304 L 180.64565450139344,240.2589995074086 L 179.2149923699908,240.0862494460307 L 178.50512196682394,239.69309989036992 L 178.1119628669694,238.94256400410086 L 177.56590871047229,236.86385136051103 L 177.21643396979198,236.24445030698553 L 174.83563766023144,234.86278134398162 L 172.3674726318568,234.51737958472222 L 169.89930760348216,235.47022710973397 L 167.4202213846147,237.94189491635188 L 168.07548650633544,239.23443558486179 L 169.4406220316887,237.59048185078427 L 171.48286479106173,237.15569142717868 L 173.6780027411878,237.76320951245725 L 175.47998159145936,239.23443558486179 L 174.2349779540673,239.69905662629753 L 173.25208047265187,240.29474100237712 L 172.45484121656045,241.11681590601802 L 171.73404975701123,242.23680036514997 L 171.45010148826987,241.6053117038682 L 170.81667861295864,241.2359600858763 L 170.69654672546312,243.28535575373098 L 170.81667861295864,245.32305281655863 L 171.73404975701123,245.32305281655863 L 172.8043159567751,245.04896398400888 L 176.5939321508631,247.420557518024 L 178.96380740450695,248.23697776021436 L 178.04643639503047,245.32305281655863 L 180.09960021078587,245.94870495889336 L 181.67223634198308,245.7759037646465 L 182.81895020464435,245.8593249176629 L 183.63803157350048,247.2358249318786 z" /><path fill-rule="evenodd" fill="#D2EBD9" stroke="#A6A6A6" stroke-width="0.25" opacity="1" d="M 160.70375459035859,247.2358249318786 L 162.3637594403699,252.53418539650738 L 163.95823768433183,254.10788375185803 L 166.1096912752837,252.23615105776116 L 164.83192446874455,251.47320422623307 L 163.94731662794948,249.63152783503756 L 162.53849674388766,245.32305281655863 L 162.47297027194872,244.16118151973933 L 162.82244501216337,243.1781145008281 L 162.669549821876,242.4870186834596 L 159.22940823389217,242.05211760522798 L 157.95164142781869,241.2359600858763 L 156.05137266824022,241.2359600858763 L 156.3790052961558,242.30233337404206 L 157.00150711508468,242.93980281241238 L 157.95164142781869,243.23769288463518 L 159.24032929027453,243.3330185948871 L 160.35427984967828,243.7619906528853 L 160.67099142167717,244.79871246032417 L 160.70375459035859,247.2358249318786 z" /><path fill-rule="evenodd" fill="#D2EBD9" stroke="#A6A6A6" stroke-width="0.25" opacity="1" d="M 173.52510755090043,250.78180983988568 L 173.08826409140602,252.54610683722422 L 172.07260330673307,254.03038791473955 L 169.85562324430794,256.24212039168924 L 172.69510512566194,258.32889460911974 L 174.36603103205562,257.43453493667766 L 176.00419363519177,256.03345543006435 L 176.69222192605957,254.53113520145416 L 175.4472182886675,253.32101842667907 L 175.9495882196352,251.53280835226178 L 175.2069545132108,250.35268094856292 L 174.09300395380706,250.0248806392774 L 173.52510755090043,250.78180983988568 z" /><path fill-rule="evenodd" fill="#D2EBD9" stroke="#A6A6A6" stroke-width="0.25" opacity="1" d="M 426.9051830605604,109.40897778281942 L 426.19531265692785,111.5629813671112 L 426.4792607915588,111.87071508867666 L 431.6121703982353,112.24947092588991 L 432.1800668016076,111.91805919306353 L 432.55138365458697,110.93569259671494 L 432.1473034983501,108.92376723978668 L 431.68861806066707,108.10722019057721 L 431.50295956712216,107.25520664080977 L 431.65585475740954,105.87076219310984 L 429.9194023790769,106.08374730078503 L 429.6900595263578,106.36773112183437 L 428.3467662478797,106.90612827427685 L 426.9051830605604,109.40897778281942 z" /><path fill-rule="evenodd" fill="#D2EBD9" stroke="#A6A6A6" stroke-width="0.25" opacity="1" d="M 233.81489809323102,225.01503607211635 L 240.93694202555344,232.20959794335067 L 246.3477349439636,239.1022989237681 L 247.6251284107566,239.47445777337998 L 242.9994446998462,232.0014766030945 L 237.3109285691753,225.95715792709962 L 233.50370220514014,223.0749766593799 L 231.90867804270238,222.2284691594541 L 233.81489809323102,225.01503607211635 z" /></g></g></g></svg>