<svg xmlns="http://www.w3.org/2000/svg" xmlns:xlink="http://www.w3.org/1999/xlink" width="500.0" height="486.51507099496666" viewBox="0.0 0.0 500.0 486.51507099496666" preserveAspectRatio="xMinYMin meet"><g transform="matrix(1,0,0,-1,0,486.51507099496666)"><g><g><path fill-rule="evenodd" fill="#D2EBD9" stroke="#A6A6A6" stroke-width="0.25" opacity="1" d="M 161.7413419317454,106.19924679852556 L 161.04943512007594,106.64169678045437 L 157.6920617930591,107.91720109910239 L 155.60705409571528,109.3055482765194 L 154.16751640476286,109.40908120328095 L 153.90747095830739,109.74791135673877 L 153.60098870657384,110.77847534429748 L 152.97873694449663,111.45136469777208 L 152.4122092463076,111.7572140415432 L 149.19414606317878,112.03012090094853 L 145.3306127358228,112.87704342789948 L 143.64263876713812,113.01348780922126 L 143.03199617005885,113.42281415592879 L 142.38652607239783,114.4202091882471 L 141.5135161690414,116.49007682816591 L 141.02128715254366,117.12039275234565 L 139.39135906286538,118.22103481087834 L 137.57568411901593,118.67255863349419 L 131.72233833745122,118.55497554386966 L 130.76574235782027,118.67726199212484 L 129.86022672243416,118.99708363087848 L 128.97560760751367,119.66022320732009 L 127.32246118411422,121.34381787118036 L 126.39372721500695,121.8469813882839 L 124.69878770783544,121.62126510462258 L 122.93883682973683,122.51000501820818 L 121.79185040667653,122.67458117636852 L 119.4932337962091,121.49429832713213 L 117.58468551188707,121.95513601857238 L 116.6698825713247,123.74193510063924 L 116.67452624626458,125.98926416586619 L 117.51967413909733,127.83203365944792 L 110.82350223697722,129.6698981883237 L 109.77867654897273,129.58059486269485 L 107.32681890204549,128.4196083669085 L 106.42130326852202,128.42430888686795 L 105.6597414072603,128.72043859877158 L 101.33648479357362,132.05740918708034 L 100.29862459748983,133.4484003301477 L 99.96195852197707,135.39371524297167 L 99.96660219691694,137.08980938058812 L 99.65547631494701,138.24549934547395 L 98.75924807786942,138.9971254413249 L 97.03180288523436,139.4903620701516 L 96.31667773798108,139.94600604881998 L 95.35079440660775,141.0639265710488 L 94.64495661109686,141.4302879673196 L 92.77820132113993,141.4725599446101 L 92.17916789278388,141.86709325527772 L 91.87732936255634,143.01306728762574 L 91.31080161966383,143.53436628729105 L 91.05075612850487,143.29485249414574 L 87.15936083719134,141.86239647702314 L 86.58122392743826,141.95633170753717 L 86.10060412064195,142.31797744426876 L 85.25081250816584,143.46392144227866 L 84.7260778490454,143.82553546037525 L 83.64410275407135,143.82553546037525 L 80.82075152918696,142.19586413353682 L 78.93309971876442,142.20995419099927 L 76.9479308500886,142.9379238265101 L 75.09278477355838,144.04625716165174 L 73.61841962486506,145.20147810236085 L 70.57913771644235,148.441321395454 L 67.72095894441009,152.5771179458825 L 65.47342272475362,157.0732864245074 L 63.22124287299812,165.4712469894439 L 59.93352464027703,173.49027313559782 L 50.348990093916655,188.50150215101894 L 49.13931411318481,192.77824175613932 L 48.70048730261624,195.7662555834977 L 47.11235220730305,201.46472103777342 L 43.736404268071055,208.7481824249262 L 41.05004127882421,212.92705356003717 L 34.588374672457576,220.49183274595998 L 31.077760310843587,223.42439364665188 L 24.804162375628948,226.63712673215196 L 18.76274792291224,231.2426257248735 L 17.341784980148077,232.73862237273715 L 16.32482125982642,234.44954568275716 L 14.058710379526019,240.53489397116937 L 11.00781930424273,244.48810053337365 L 9.735453767701983,246.6186274511274 L 9.187500728294253,248.39391843718477 L 8.437548080459237,253.78905102657154 L 7.083918325603008,258.8467623916222 L 6.967826563864946,260.63982618937735 L 7.864054845646024,263.5065894906875 L 11.226071802899241,268.05351521703415 L 12.670253124088049,270.5973822848173 L 13.092827048152685,274.088369823643 L 12.243035525083542,277.88218510348815 L 7.877985829487443,288.20160224311985 L 6.048379946500063,295.50027967547067 L 2.551696566864848,301.92528356891125 L 1.0425038728863,305.6033986113034 L 0.12305725552141666,309.4744808061514 L 0.0,313.25418881932274 L 0.8892627470195293,317.0707065167371 L 3.608131466433406,324.5020257071592 L 4.037670882418752,328.3125282366527 L 3.7358323968946934,330.6787294156384 L 14.253744542598724,330.8138027165551 L 16.464131401851773,330.29213725263253 L 18.502702387049794,330.06856380577665 L 19.02047159895301,330.46913181617856 L 19.347850324586034,332.19710805942304 L 20.3973196875304,332.8212069286965 L 20.629503212869167,333.207769738161 L 20.8059626724571,334.1019704192877 L 21.535018803551793,334.54906184773427 L 23.253176644444466,334.11594208923634 L 23.647888557985425,334.2510015226435 L 26.03473487496376,335.37337114370894 L 27.646088305860758,336.8868815272581 L 30.64125531539321,338.6936924349284 L 31.207783056423068,339.41080248891376 L 32.35476952418685,342.1580354908947 L 32.81913653202355,342.8285138977226 L 35.87931491434574,345.3799408194609 L 37.23526648245752,347.03268409264274 L 38.2893795222044,348.85759719775524 L 39.10666544921696,350.83138008613605 L 39.88680196925998,354.0757895373972 L 40.42546769976616,354.9973925189115 L 42.784451918676496,357.41765720571857 L 44.511897111311555,360.405542344437 L 45.647274412214756,361.13153574743774 L 47.651017893105745,360.4753499904182 L 47.804259018972516,361.2664946131408 L 47.21915661729872,363.4211192210205 L 47.27023700810969,364.29131233203225 L 47.58600656501949,365.10099363455083 L 49.438830783590674,368.01850324484985 L 49.775496860966086,368.8560270322487 L 49.684945337474346,370.58220277924556 L 49.92873798497021,371.12190868041944 L 51.18020695820451,372.0198521876009 L 51.57491896301508,372.87125219835434 L 53.29307675734162,372.9596479618922 L 53.48811087757349,373.5598035637522 L 54.992659939453006,373.9459457026096 L 55.935324892401695,374.9554813973373 L 58.043551014736295,375.93708067026455 L 59.223043125122786,377.08147611818276 L 59.28108900599182,378.28166312142275 L 57.61168969422579,379.19341097190045 L 59.28573268279433,380.9796374675352 L 60.27715616300702,381.59363609040156 L 62.49683037400246,382.3750767229358 L 62.92172615788877,383.31464794743806 L 64.11050566472113,382.7239297248889 L 65.35733096115291,382.8634701647097 L 66.43930605612695,383.60302722023334 L 67.11728184111416,384.812339680735 L 66.87116733193398,386.2030093037756 L 67.50735012255609,387.10994502098765 L 67.89741836115718,388.1842919702176 L 67.92992409132421,389.31442230939865 L 67.00119007751346,390.40267029835377 L 67.24498272687197,391.5001941313967 L 65.69631885364652,393.16503373358864 L 65.47342272475362,393.82537320209667 L 65.77061762288213,394.5415057624923 L 67.16139669343829,396.1457905533025 L 67.59557983092964,396.9223386219237 L 66.54611046798527,396.9316384916892 L 64.44717169553041,396.3457412084099 L 63.39770233258605,396.2527410140028 L 61.22446483746171,397.30828308151104 L 59.75242150388658,396.97813799465075 L 59.15338812023401,397.1083363168873 L 58.79118184931576,398.3126547324937 L 55.08321150764823,400.44222812750377 L 54.718683421611786,400.5026732153492 L 54.09178798086941,400.2701916391961 L 53.5577659253031,399.8284737842623 L 52.66850318014622,398.6009428810794 L 52.45257254131138,398.49864728352986 L 52.25753837823868,399.0752196981339 L 51.607424603775144,399.8191744523356 L 51.81174607388675,400.31203840486705 L 50.99446019157767,400.53522054397035 L 49.1880726441741,402.6321549670538 L 49.090555584058166,403.4086034905631 L 49.60600289143622,404.4082058784552 L 50.585817251354456,405.7332307950128 L 50.74834568426013,407.5742631681496 L 51.11055195517838,408.1646818991285 L 53.694754207506776,410.8795957334805 L 53.98498357087374,411.73030313884374 L 50.395426807925105,410.30315263941884 L 49.52241685986519,410.31245016807225 L 49.02322235144675,410.7959188692039 L 49.197359995916486,411.9023025097558 L 51.0687589161098,414.04062898422126 L 51.63064298406243,415.94181251735426 L 53.3348697964102,420.09259122249205 L 55.42452121526003,422.91848801099695 L 56.292887488380075,423.4297382539371 L 58.22465410642326,423.0300338928355 L 59.16499724239111,423.0811589929508 L 59.668835427612066,423.50410158070736 L 60.3096618950367,424.7124930305872 L 60.82510920241475,425.1168341571465 L 61.40556792728603,425.1958430536324 L 61.88850959390402,425.04247275716625 L 64.6004127766937,423.79690626007505 L 65.96100806631148,424.24772984709125 L 67.99493546411395,425.4049837386701 L 68.45930242724717,426.24618700228166 L 68.64969286881387,427.16173810558394 L 68.45930242724717,430.2382663601311 L 68.8493707086891,432.2179500092752 L 70.39571272023022,437.2226676554419 L 70.01957546547055,438.5283892938169 L 68.85401438549161,439.8666132268263 L 68.04369394853711,440.27086345711723 L 67.20318973250687,440.0896481209202 L 67.79525762423873,442.70561147411354 L 67.66059124842286,443.8950778725557 L 66.31392698548734,444.10880815575365 L 66.8107996340841,444.7639341937611 L 67.5398557651788,445.3354225056246 L 67.19622424058616,446.1392161238473 L 68.15282022021711,448.2671387376031 L 67.63737286813557,450.54367479507346 L 68.15282022021711,451.77948225534055 L 67.5398557651788,453.0385004879208 L 68.13424551673234,457.06630610802677 L 68.1713948789984,458.22304693609476 L 67.8440161999315,459.1753727996256 L 66.77597213350236,458.76657068380155 L 66.07245610840619,459.319382154732 L 65.20408988185227,461.9486760706641 L 63.70418453775346,463.88111469487194 L 63.43717350997031,464.46641308791004 L 63.6763224825263,464.72654460475314 L 63.8156326264143,465.256096025696 L 63.89921865798533,466.42667353036813 L 63.643816797062755,467.6018828013912 L 62.77080684900284,468.1314193883445 L 61.88850959390402,468.25683554972056 L 58.921204594895244,469.3577045920538 L 57.36093155480921,470.5839758090442 L 56.0374856274575,471.1320774074411 L 55.45702690258622,471.5686988472007 L 55.21555607020855,472.2886559620965 L 55.51507278345525,473.2222709725611 L 55.42452121526003,473.5892120882636 L 55.006590923294425,474.1326544500189 L 54.74190175533295,475.047675560927 L 53.92461587302387,476.40393758390564 L 53.65063935332,477.0588395156665 L 53.47417989373207,478.22000461572316 L 52.73119273595512,478.8981201092247 L 51.895332150161266,478.6333768015029 L 51.50062019191682,478.8981201092247 L 51.42632151208818,479.1675074334489 L 51.81174607388675,479.957087698509 L 51.6631486248225,480.57017032208387 L 51.008391220122576,481.0206913182046 L 50.859793815761805,481.5037224426633 L 51.34737911261618,482.5022908701794 L 52.118228325620294,483.2221845500171 L 52.67546867020428,483.1710954674054 L 53.49507641233504,482.5812471482204 L 57.13803538121283,483.02711696899496 L 58.11784969456494,482.92029411694966 L 59.19982478953898,482.5812471482204 L 61.377705961465836,484.75484912469983 L 63.73204654827714,485.63264050427824 L 65.42234233394265,486.51507099496666 L 67.01047747395933,486.11565575003624 L 67.72560257650912,485.7626832157839 L 210.2282204553485,485.7626832157839 L 210.31645011901855,484.5876501649618 L 210.92012722417712,484.1928740320727 L 212.58720467425883,484.0628299068194 L 373.9918805286288,393.8904765947955 L 374.6791437100619,392.7837068507215 L 376.4716002307832,381.8122547977837 L 375.65431434847414,381.7517859163927 L 375.20852204598486,381.36571334826294 L 375.05063728801906,380.7377568196971 L 375.1156486608088,379.93302915489767 L 374.2658570483327,379.86790604447015 L 373.19781302660704,379.29574882471934 L 372.19478033296764,378.50029828271363 L 371.3124830778688,377.37454808701295 L 370.9827825371176,376.34646139491815 L 371.0524375401437,375.87195156223606 L 371.37749445065856,375.5416524109896 L 372.1158379763365,375.4486099440837 L 372.3433777820319,375.0950466124341 L 371.80471204966307,373.4714091052301 L 371.93473479524255,372.8526425661985 L 375.0459936130792,372.8945142830489 L 376.84309385344386,372.23386691266205 L 377.46998929418623,371.6569550639251 L 377.80897718667984,370.9637197609991 L 378.5891136601567,368.19066232058685 L 379.0395496394485,367.26937010802794 L 379.657157773152,366.45973246591166 L 443.74943572841585,320.133107026224 L 444.5428817104548,319.9129852221813 L 444.8317398931831,318.64725480636116 L 444.58675888367,317.18701525893994 L 443.74943572841585,316.41284037579317 L 442.52453073114157,315.7964219007408 L 443.51542403548956,315.39647713361774 L 444.19186414964497,315.3377692254726 L 444.5831024609506,315.08825931174215 L 444.69645186141133,314.09019937017 L 444.47340948320925,312.35085540811997 L 442.747573107481,309.1911591331009 L 442.1698567010462,308.6406554733403 L 441.91024999693036,309.30125864211004 L 442.4989356752485,311.9215084107127 L 442.2173903416842,312.7141443172004 L 441.42394440434873,310.3912221236387 L 440.7365350201726,309.56549584213644 L 439.76026741042733,309.6352247172035 L 440.5390876084566,308.4241212666966 L 440.6597499009222,307.9763675350696 L 440.81697651930153,305.4144994332455 L 440.68168853223324,304.9630297377007 L 440.3745481427759,304.7684918893501 L 439.6761694420129,304.988723344286 L 439.28858755528927,304.8198793748161 L 438.6743068229407,303.7186993355863 L 438.59752174653113,303.1020204353845 L 439.2447103820741,303.1387279185001 L 440.68168853223324,303.72971135750413 L 440.71459638886154,303.0506299805129 L 441.2923127952963,301.54925326642115 L 441.10949116759,301.2188665913418 L 439.105765927583,299.3355901603354 L 438.2135962843895,297.4705474942457 L 436.8387775141746,295.399766429211 L 436.6925201676786,295.0766521898331 L 437.0435377303511,294.74619058764074 L 438.2282220236957,296.0019240764668 L 438.49879804067314,295.4474989162991 L 436.55357571318746,289.7887981572421 L 436.0636136960238,288.79721331084147 L 435.4383636917919,287.9598470880883 L 434.03794986754656,287.0416529481299 L 433.9026618357748,286.4246091200039 L 434.0964527800679,286.0426226244308 L 434.7619235776365,285.59818919491954 L 434.8240829575807,284.88193824887276 L 434.22077149525285,283.0893909482984 L 432.926394270733,280.44075639068615 L 431.3577845133841,278.06374016962945 L 429.8878985065967,277.1231614316348 L 430.5021792408079,276.8439206138719 L 430.2060081679374,275.91064679739065 L 430.1694438420236,273.8088211072609 L 427.3539904560894,269.0643853704678 L 426.86402843892574,267.03551127249375 L 426.84940269961953,264.1242324744817 L 425.9389509372413,262.55450071871746 L 425.6647184509784,261.2530552598182 L 424.9041804149747,259.34855646814685 L 424.9517140109092,258.25652809697203 L 425.8731351327151,257.0210431453306 L 426.4874158669263,254.83305088651832 L 428.44360746629536,253.33995405444875 L 428.6995577905327,251.35391748556867 L 428.58986481279135,250.2688831902342 L 428.2754115778953,249.2941490339581 L 427.741572342813,248.6357209198177 L 428.08527705818415,247.5100973811932 L 428.2388472519815,244.97540724196006 L 428.8019379209727,243.8496074381983 L 430.30838825181127,242.89668190455996 L 431.0616134405136,240.99807212210726 L 431.683207064867,240.42404292861465 L 432.80573197826743,240.17014084313996 L 433.2920375261456,239.3458595125703 L 435.1056282930076,239.176583803026 L 436.0489880014211,238.723949018633 L 436.53529354929924,238.89690808940213 L 436.4914163760841,239.2575418939814 L 435.3762043118477,239.71384592202958 L 434.4913475587964,240.30261183378752 L 436.71445875428617,239.48569504718762 L 439.2008331641555,237.1230952803744 L 440.68168853223324,235.33442148938775 L 441.86637278087437,234.48419963335618 L 443.29238161444664,232.51862836035434 L 444.436845112592,231.72351670253556 L 444.9158378597349,230.62282915017568 L 445.25588610582054,228.92199367261492 L 445.92501332610846,227.68494008411653 L 446.73674147203565,227.0811148387147 L 447.46071518212557,227.86166628461797 L 447.65816254913807,226.5509130982682 L 447.4497458655387,224.78716334165074 L 447.4716844521463,223.18530434533022 L 448.378479834646,222.33093106630258 L 448.3492283578962,223.15584374568425 L 448.07499591447413,223.8776165411109 L 448.89769333042204,223.82606213516556 L 450.82828992046416,222.79494834749494 L 452.87589233368635,222.48928728094324 L 454.1044538002461,221.93687685544137 L 455.74984863214195,221.9552907627076 L 456.071614716202,221.6974946295377 L 456.26174923591316,221.07508828793652 L 457.08810307458043,219.98122996813618 L 457.46471569128335,218.6442161879968 L 459.7572991140187,215.47998405073304 L 459.7061090487987,215.04159562767018 L 459.1430183816701,214.2421580045484 L 459.5269438456744,211.35361351643223 L 459.47941024787724,210.15976160462014 L 458.80662655830383,210.22240370558575 L 458.353228867054,209.64756338694133 L 457.74991744942963,207.8897796946112 L 457.2489861175418,207.49177014117595 L 456.82483990490437,207.50282608217094 L 456.5030738208443,207.90452064829879 L 456.34950362704694,208.6747204224812 L 454.46278425492346,207.35172791895457 L 454.0532637350261,206.80629124341067 L 453.4974859599024,204.60597051901277 L 452.39689963310957,203.5223084735917 L 451.38772416487336,203.22373838548083 L 451.7570238895714,202.12894388125278 L 451.4937607180327,201.61654500977602 L 449.60704130120575,201.5096400155453 L 450.7953820191324,199.69585525535513 L 450.79903844185174,198.72253754432313 L 450.20303987152874,197.12973393127322 L 449.72404717095196,196.30009843490552 L 448.53570645302534,195.20123912510462 L 448.0128365345299,193.49014240514953 L 447.2230470199138,188.49613521888386 L 447.46071518212557,186.62950928881764 L 448.0347751211375,185.17592506692745 L 448.18834531493485,184.32733543787617 L 447.76785552687943,183.00641276768874 L 448.4479520637542,181.3495960677974 L 448.2285661101341,180.55250164004974 L 446.22849729284644,178.20899806823581 L 447.6033160611987,178.5153307291912 L 448.583240095526,179.64096851227805 L 449.2267722617835,181.14663539268076 L 449.60704130120575,182.60790424305014 L 450.8392591904849,181.41970926290378 L 450.9050749950111,180.77022984903306 L 450.19207055680454,180.098585765576 L 451.881342606619,180.2646537986584 L 452.6491934880614,180.1797747447854 L 454.66023162193596,178.4267531161895 L 454.80648892372847,177.78824388538487 L 454.5139743182808,176.6661869265372 L 453.84850352071226,175.1970770158805 L 453.7900005634874,174.63967107760254 L 454.2726497333497,173.05595686868764 L 454.31652690656483,171.28380945674144 L 454.5139743182808,170.47151869244408 L 455.4353953972459,171.11766198754776 L 455.29279451817274,169.72196425241418 L 454.7333602719009,168.44063569663558 L 453.2854128535837,166.1325420276262 L 451.7935882154852,162.0511185337091 L 451.135430265218,160.8098882243503 L 450.82828992046416,160.9576582418522 L 450.19207055680454,160.8098882243503 L 450.5065237917006,160.13751948275603 L 450.40414366312325,158.51190883445088 L 450.52846242301166,157.71013296511956 L 449.8849302120507,157.99463819141965 L 449.60704130120575,156.77899326290935 L 448.875754699111,157.58820076216944 L 448.07499591447413,157.99463819141965 L 448.429669899866,157.33324890688527 L 448.45160848647356,156.80116380820982 L 448.12984240427613,156.40578475873917 L 447.46071518212557,156.15820648672525 L 448.0311186965555,154.9941729225684 L 448.5978658348322,152.54021388944238 L 448.6563687454909,151.1578639379004 L 448.35654124990106,148.52592371497303 L 448.4954857043922,147.24677598208655 L 449.99462318979204,145.7013217927888 L 450.5577138569206,144.65122171875555 L 450.9489522129297,143.48272551991977 L 451.135430265218,142.45467920298688 L 451.0549887660891,138.65998926071916 L 450.79903844185174,137.77222074824385 L 452.37130462378263,137.32461988471914 L 452.9490209855139,136.35909346549306 L 454.3384655378759,136.1519235757878 L 454.60904155671597,135.8855585232377 L 454.8211146630347,134.36127771553583 L 455.21600944176316,133.61758584156632 L 456.8284963723272,132.63704629661515 L 457.212421791628,132.0005899524549 L 457.72797886282206,130.4093431966612 L 458.2215973045677,129.67657859739847 L 459.4867230951786,128.71431347355247 L 459.7572991140187,128.29978211142588 L 459.1283926870674,128.12212263816036 L 458.2727873697877,128.2664710993413 L 456.663956861943,129.67657859739847 L 455.75350505672395,130.7942167794099 L 455.0697520952672,131.1938838113565 L 453.43898300267756,130.7979174342472 L 452.3420531451702,129.36569904815406 L 453.022149682045,129.1066282831598 L 455.73522289283574,129.36569904815406 L 455.13922432251275,128.62548619229347 L 454.98931059613824,128.1517326522153 L 455.33667173422873,127.88894169812556 L 456.9784100987017,127.56692448479589 L 456.663956861943,125.02017702185549 L 457.2782375961542,124.36862028832547 L 457.2782375961542,123.43566458730493 L 457.0003486853093,122.81366463156883 L 457.5122492890805,122.48044064361602 L 457.61462941765785,122.20645142148715 L 457.0442259032279,121.1474768302869 L 457.46471569128335,119.91438834974542 L 457.2782375961542,119.11449719162192 L 458.68962073512375,119.62184010702185 L 459.9108693096787,120.4957660419168 L 460.45202139019966,120.5327957601985 L 461.102866448462,119.93290388083551 L 463.0371194630861,117.47015258856118 L 463.8049703910947,116.16270530794282 L 464.02069992013276,114.75884070293978 L 463.27844404801726,113.00291120249312 L 464.0792028773576,111.90998866746668 L 463.77206248790026,110.04629035270773 L 463.9146633669734,108.53442224895116 L 463.76109321787953,107.98966969747562 L 462.55447033792734,106.68885811348446 L 461.0077992118895,106.59620363428257 L 460.4483649674803,106.33306190685835 L 460.2180096972734,105.91054346226156 L 460.3715798482299,104.39457249781117 L 460.77378747425973,104.59473351889756 L 462.2144220471382,104.73187943198718 L 462.3241150677204,105.2322664684616 L 462.55081391334534,105.42500389972702 L 463.4320142418146,104.77635894867126 L 464.1157672032714,104.5206001085462 L 464.0792028773576,103.17501765768975 L 465.46133449301124,101.76258750911802 L 465.8416035324335,100.8653869999107 L 466.37178630009294,98.38113174808677 L 466.84346615336835,97.69140216021333 L 467.4504340402782,97.26123264606576 L 466.9750977624208,96.68270991777536 L 466.8727176319808,96.30443331168499 L 468.16709490306675,94.40549243544228 L 468.01352470740676,93.47818981332239 L 468.423045180738,92.59534546919167 L 467.1506065428257,91.94987237383612 L 466.393724931404,91.23017475323286 L 466.192621095106,90.84434343979228 L 466.55826439522207,90.67368414800148 L 468.6789955049753,90.67368414800148 L 469.4614721275866,88.64788628288079 L 470.5510891377926,87.76476136152633 L 470.8509166352451,87.24525201949291 L 471.15074417740107,85.95011148776393 L 470.82532162591815,85.01858049619477 L 469.98068562336266,84.57320661342237 L 468.6789955049753,84.72908898745663 L 469.05926450155675,84.11297303356696 L 470.3390160314739,83.12193820229732 L 470.3828932493925,82.72105155873578 L 468.34991653077304,81.73734886501916 L 466.9677848704159,81.3958217712352 L 466.94584628380835,80.87237925326917 L 467.5125933755189,79.71777064190246 L 467.42483898438513,78.86753522325307 L 467.09576005488634,78.2251852590125 L 465.9147321842611,77.23004466574639 L 467.0701649989933,77.44170331850182 L 469.16895752213895,79.99250882503111 L 470.0903785992414,79.89226709667128 L 470.69003359414637,79.55441041581798 L 472.03194450587034,79.65094170696102 L 472.98627348430455,78.689313748735 L 474.8400849997997,78.5296551878564 L 475.95895348861814,77.66449859447312 L 478.68299601599574,73.12252166890539 L 478.7670939825475,70.49250794982072 L 479.14005012996495,69.12530751968734 L 479.60076066851616,69.66774484794587 L 479.8311159387231,70.41820689162705 L 479.83842883072793,71.21320858795661 L 479.20586593449116,72.83279762265738 L 479.30458959564567,73.21909510646947 L 480.69769057258964,73.14480793150142 L 482.74163656309247,72.34248231432866 L 485.76916301064193,71.46581686637364 L 485.9154203571379,70.968025758164 L 485.83132239058614,70.37734111142345 L 485.3925504386425,69.09558432665654 L 485.89713819511235,67.90660726418719 L 485.1292872671038,67.48301057389472 L 484.993999235332,67.20060588570777 L 485.2280109729618,66.83272838057019 L 485.9154203571379,66.94420739915222 L 487.01600668393075,66.40910020261072 L 487.3414291907102,67.51273707661312 L 487.6193181015551,67.56475828657858 L 488.6394628845155,66.98879874742124 L 490.23732407577336,65.6695790826343 L 490.230011228472,66.08579665864818 L 490.5444644652307,66.94420739915222 L 491.16605804488063,66.63206392282154 L 491.7986209411174,66.94420739915222 L 488.70527868904173,68.15927305491641 L 490.23732407577336,70.06155649235006 L 490.83332264609635,69.86836719862185 L 491.4658855423331,68.15927305491641 L 493.3343227952719,66.94420739915222 L 495.02725122496486,63.287245138315484 L 495.4806489162147,62.86351247841958 L 497.32349111512303,62.55128042038996 L 498.7750950027257,62.97502227406949 L 498.9835116416216,63.878219747915864 L 498.44601602852345,64.58438392949756 L 497.6562265139073,64.42457086767536 L 497.44780983030796,64.96346825512592 L 497.60138002596796,65.35740805289242 L 498.01090049929917,65.58782067825086 L 498.57764759100974,65.6695790826343 L 498.9944809563458,65.51349443662912 L 500.0,63.44335401931312 L 499.5868231039494,62.711114362231456 L 498.2705072462559,61.30228391382843 L 499.43690933287144,61.30228391382843 L 498.8847879804671,59.25012361386325 L 499.46616081148386,58.13469484844245 L 499.43690933287144,57.53232683753595 L 498.7254958283156,56.20883029908873 L 497.2952454891056,54.76829971547704 L 495.68389201536775,53.60632173961494 L 492.7723110821098,52.58596918650437 L 491.0727278999984,51.310423947521485 L 488.4165487829596,48.66447728557978 L 487.0466661863029,47.03886052290909 L 485.79287530854344,46.57098786823917 L 480.1740348227322,42.1561358992476 L 474.6852170843631,39.71648728568107 L 470.185501055792,36.600100436480716 L 469.0478019416332,36.11768229457084 L 461.5111258216202,34.45746523095295 L 458.0469481293112,34.19729876983911 L 457.2760989163071,33.94185778521933 L 456.5656173992902,33.54922600300051 L 447.75657578743994,26.45622662245296 L 446.7071063797921,25.87877879734151 L 445.5786946155131,25.537978100473993 L 444.38527147844434,25.55217832128983 L 443.4379628058523,25.902445170795545 L 441.6083569228649,26.90586127480492 L 440.54960020817816,27.11884081864264 L 439.1657865829766,26.48935811314732 L 437.61015721969306,26.181705323280767 L 431.7359148748219,26.186438502627425 L 430.2174348272383,25.83617918251548 L 428.22530046850443,24.22676065948326 L 427.2872791457921,23.990064956014976 L 426.6928894389421,23.611343094846234 L 424.90507654845715,21.897491037030704 L 424.0831469912082,21.46189099131152 L 422.0770816486329,21.769653393421322 L 419.3419600855559,20.88422518922016 L 418.62219126336277,20.26865181059111 L 417.60987121611834,18.985325358924456 L 413.184453913942,15.968302764580585 L 412.0653294567019,14.575595664675348 L 410.72330887056887,15.361972422921099 L 407.16161416471004,16.261983922333457 L 405.56883539259434,17.081414122134447 L 403.08911569043994,19.70040462585166 L 401.4777622614056,20.822669156244956 L 399.40204182453454,21.149386423407122 L 397.44705682620406,20.51961983460933 L 396.91303481534123,20.66641019191593 L 395.5942326094955,21.46189099131152 L 395.13450927846134,22.08687790390104 L 394.86053280346096,22.082143259583972 L 394.4936828557402,21.769653393421322 L 393.128443935886,21.79806186060887 L 390.5604944806546,21.357723625493236 L 390.13792055658996,20.90790054516401 L 389.73856492340565,20.803728798171505 L 387.16597183793783,20.510149372159503 L 384.3426205664873,18.900081499596126 L 384.0361384060234,18.502269571647048 L 383.2281398307532,15.759879881865345 L 382.80556590668857,15.200911148102023 L 382.8705772794783,14.376625357777812 L 381.7932458613068,12.448350312770344 L 381.556418703869,11.42013560270425 L 382.0904407594353,9.680987162864767 L 381.72359081171453,9.069623145041987 L 380.2283291015774,7.908425559406169 L 376.9591855723411,6.462706298450939 L 374.95776386000216,4.850892521557398 L 374.1219033189118,4.372049878933467 L 370.7598863616586,3.997497075702995 L 369.13460195064545,3.1345613410230726 L 367.65327122062445,2.688846390345134 L 366.79883602261543,1.029131970484741 L 366.12086019292474,0.5406604054151103 L 364.2401739191264,0.39838363672606647 L 362.01585607789457,1.029131970484741 L 361.6490061301738,1.2140823268564418 L 360.8502949513495,2.062922427779995 L 360.3302039243281,2.3095022164052352 L 359.90762995555997,2.2810509552946314 L 358.7699308395386,1.6835595748852938 L 357.1585774552077,1.5081004195380956 L 355.19894873537123,1.7214963745791465 L 351.38185216858983,2.5940113731194288 L 349.803004425019,3.3574129884364083 L 348.2334440331906,4.684958992176689 L 347.0121588408947,6.2209471768001094 L 346.473493155092,7.633514400105923 L 344.94572580233216,6.728162072133273 L 340.78964125178754,6.353678232524544 L 340.12559649534523,6.481667630374432 L 339.01111575961113,7.206916562980041 L 338.1241747830063,7.273277158848941 L 337.6969571840018,7.491316726896912 L 336.9353953227401,7.235356853809208 L 333.24832150153816,2.5940113731194288 L 331.0750840045512,1.6835595748852938 L 330.0674076806754,0.8204668089747429 L 328.2006523888558,0.4552945358445868 L 325.38194479607046,0.0 L 324.6064519509673,0.08536898368038237 L 322.944018131122,0.9864507290767506 L 322.67468528822064,2.062922427779995 L 322.32176641374826,2.3095022164052352 L 317.07441950775683,2.3095022164052352 L 316.317501321435,1.783143415232189 L 312.6118527520448,1.029131970484741 L 311.45093530230224,1.5887170570204034 L 310.9122696146369,1.6835595748852938 L 309.0594453532249,1.3658344568684697 L 308.5439979992807,1.7262384723871946 L 308.13999873586,2.5560772232711315 L 308.005332313478,3.4996566746849567 L 308.2932398598641,4.187145419185981 L 307.6384824104607,6.998352442518808 L 306.50542697124183,7.443917121854611 L 305.5302562881261,8.28760365175549 L 303.66350099630654,8.913223112584092 L 301.08626428060234,10.349189113476314 L 299.5724279098213,10.050635071238503 L 298.73192364908755,10.49609407375101 L 298.3279243838042,11.363273388822563 L 298.7551420275122,12.386754504987039 L 297.9796491395682,13.329612295608968 L 297.38061575591564,13.628090707934462 L 295.68567624874413,13.609139878302813 L 294.12540321052074,14.234501832979731 L 292.28650992922485,14.575595664675348 L 291.6921201776713,14.168176995939575 L 290.28973189368844,12.386754504987039 L 289.49566439166665,11.761303453356959 L 287.23884081840515,11.34905783063732 L 286.41226762905717,10.856241201749071 L 286.7605428285897,9.85159523470793 L 286.21723346598446,9.496159279718995 L 285.7203608173877,8.884786488837563 L 285.02845400571823,7.306457328028046 L 284.57801802642643,7.017312936368398 L 282.1029419992119,6.382120462018065 L 281.0488289613277,5.784821156645194 L 279.58607297949493,6.263610893511213 L 279.0938439629972,6.225687601836398 L 279.03811994194984,5.438754050526768 L 278.5273162201047,5.60467779438477 L 277.9654321987182,6.5243304329924285 L 277.56607661023736,6.832446753396653 L 276.2797800451517,6.382120462018065 L 274.97955249622464,6.415302891633473 L 274.56162220425904,6.5527722836704925 L 274.18548494949937,7.097894825739786 L 253.56759094819427,7.235356853809208 L 253.39113144390285,10.676168847363442 L 252.6620753146708,12.239870977005921 L 251.81692737713456,13.087981910561211 L 251.431502815336,14.329251052695327 L 250.5909985974431,15.030373544781469 L 250.0616202186793,16.31882469833363 L 249.22111595608294,17.081414122134447 L 248.1344972308725,17.654511073138565 L 246.19344321638346,18.312831111601554 L 245.49224905110896,18.241790925734676 L 244.92107772268355,17.739762991317548 L 244.62388282455504,17.706609525950626 L 243.3422299809754,19.922971045714803 L 244.26167659834027,20.51961983460933 L 244.26167659834027,20.803728798171505 L 243.55119512602687,21.210940929246135 L 242.96609272621572,21.883286895230412 L 242.56673709116876,22.77338243369013 L 242.31133527494967,24.231494535924867 L 241.67515248432755,24.83741593803279 L 240.862510278821,25.040961449500173 L 240.27276420220733,26.181705323280767 L 238.13203243725002,28.032247814931907 L 237.79304450005293,28.836751374416053 L 237.66302175447345,29.95824328053277 L 236.86895420588553,32.773389946320094 L 237.09185033477843,33.927666457369924 L 238.40136528015137,35.61632767692208 L 239.22793851420283,37.484489081660286 L 239.32545557431877,39.986004714504816 L 239.90591425448656,42.846345267375 L 239.73409851454198,44.04231099388562 L 240.55602802708745,44.8411393254064 L 240.43993631005287,45.43195892800577 L 239.87805228866637,45.97076439857483 L 239.32545557431877,46.85454896138981 L 239.9198453258723,47.818613252136856 L 239.88269596360624,48.81568774592597 L 239.45547831989825,49.737091184128076 L 238.36885959282517,51.154516025679186 L 238.2806298416108,52.56707304343581 L 237.20329846814275,52.8127205966739 L 236.3349321950227,54.565196677227505 L 236.35350689850748,55.755433251848444 L 236.86895420588553,57.21475307759829 L 236.67856376245618,58.06477285339497 L 235.81484116613865,59.5144112915732 L 235.61516337282956,60.50121414416935 L 236.5392536651343,65.9722482401412 L 236.06559935212135,67.53434420900885 L 235.6383817512542,69.95974205166567 L 234.14776371605694,73.32820342003834 L 233.80413214862347,74.88479313382413 L 234.2963611651212,76.22898779867683 L 234.3288668077439,77.24766415776685 L 233.80413214862347,78.80855499987956 L 231.9420205336064,81.6658327182522 L 227.40515514276922,87.43530145531986 L 225.12975691258907,89.73493086406961 L 224.79541265033185,91.41230940853711 L 224.51214878074825,92.01536662725266 L 223.1701281927526,92.50533300125971 L 218.8004349116236,97.14039337600116 L 217.50020736455917,97.73851586703677 L 216.38572658225894,98.78870642313268 L 214.86260290630162,100.64402602554765 L 214.24035118706524,100.99246235319879 L 213.8131335414946,101.50097707437817 L 212.3596648685634,102.46145954250824 L 210.7993917837739,103.03112958173733 L 208.46362590044737,100.87003969005309 L 207.79493742249906,99.72581183060538 L 208.6307980082929,97.69142043287866 L 208.1989366877824,94.68643524067011 L 208.04105193167925,94.09290472208522 L 207.6695583537221,93.62654316786211 L 207.0055135525763,93.18843299488071 L 207.0055135525763,92.87750854995102 L 206.26717002503574,92.0719019996468 L 205.7424353659153,92.45351039769594 L 205.25485002435744,93.35802554758266 L 204.17287497408688,94.27661897137295 L 200.6808352265507,96.24081116646994 L 199.53384880535305,97.4041353064822 L 198.30327630601823,98.17178695264738 L 196.86141679994762,97.77148257172666 L 195.67263733781874,97.09800589934457 L 194.53029454685748,96.94729378609918 L 191.95770150609314,97.59251964034047 L 190.4345777835697,97.75264443736523 L 188.28455866873264,96.67412435996812 L 186.88681401498616,96.33501075173263 L 185.0200587697327,96.46688914811239 L 184.1516924984753,96.73535240150522 L 183.4597856849432,97.22516807098873 L 182.1456271559,99.76819215377327 L 181.31441024504602,100.5545614042785 L 178.78825387358665,102.35788094357122 L 177.984898975119,102.64036642154679 L 176.48963726311922,101.97180919197854 L 175.01759393140674,102.30609136354178 L 174.3906985372305,102.3013832528377 L 173.06725260987878,101.50097707437817 L 171.58360010944307,102.12247248890344 L 169.965281188488,102.55562134203501 L 167.19765398465097,104.70706327550579 L 164.95011776313186,106.9523457037285 L 164.16069389134645,107.41360097471625 L 163.28768398985267,107.37594802735839 L 162.43324874527752,106.93822545779403 L 161.7413419317454,106.19924679852556 z" /><path fill-rule="evenodd" fill="#D2EBD9" stroke="#A6A6A6" stroke-width="0.25" opacity="1" d="M 475.121630333364,186.62950928881764 L 475.80903971754014,185.86583781044465 L 475.73591106571257,184.40481693961192 L 475.019250202924,181.3495960677974 L 473.7394986730069,178.40460865956265 L 473.1398436781019,177.58524512173608 L 472.6937588341534,175.7360100519145 L 472.167232491076,174.96082752302755 L 471.86740499548614,174.0970148827182 L 471.33356580510736,174.0970148827182 L 470.0903785992414,174.46617046417668 L 468.7850320581347,174.0379493298242 L 468.21462849900126,173.05595686868764 L 467.94039605744183,172.01484071754385 L 467.5125933755189,171.40195789013524 L 465.73556697927415,170.7004406041233 L 464.0792028773576,170.47151869244408 L 463.1724074948579,170.84074618516024 L 461.26009306684136,172.6683140391251 L 462.8213899321854,172.95258622989058 L 463.26016188412905,174.05271570151672 L 464.0792028773576,174.19299601390958 L 466.0171123147011,176.07929498981684 L 466.66795737296343,177.11649410810787 L 466.25112400762737,177.62584503996186 L 466.5034179072827,178.38615491834935 L 467.0189749337733,178.7404636433348 L 469.2932762391865,178.9803564333124 L 470.6973464861512,179.6335874721408 L 471.46519736759365,179.7885881678667 L 471.2165599372238,180.15394193772227 L 469.62966806069016,180.098585765576 L 469.62966806069016,180.37905541434884 L 470.6461564209312,180.76284924708307 L 472.84001618251204,182.09130680991802 L 473.15081299468875,183.25363147223834 L 473.95888467133045,184.5191937618656 L 474.576821828261,185.00621015788056 L 475.121630333364,186.62950928881764 z" /><path fill-rule="evenodd" fill="#D2EBD9" stroke="#A6A6A6" stroke-width="0.25" opacity="1" d="M 459.29658857546747,246.21887444495223 L 460.67140734381974,243.66932724625804 L 460.4666471295059,241.71558838244528 L 459.33315290138125,240.35780790273566 L 457.7243224401027,239.81688106036745 L 456.071614716202,240.30261183378752 L 454.8138018157333,241.6824727783678 L 454.3750298637897,242.58761656680144 L 453.49017306789756,246.439601374208 L 453.5925531964749,247.11648423038423 L 452.58337773010135,246.80747493356466 L 452.5906905774027,246.31820182770025 L 453.2854128535837,245.10785071575083 L 453.2305663637817,244.0924316282617 L 453.01118036545813,243.84592827386223 L 451.7570238895714,244.31317869958002 L 451.95447125658393,245.18143007776234 L 451.6985209323466,245.87674363772385 L 450.52846242301166,247.11648423038423 L 449.1170792840421,249.3015056498116 L 448.378479834646,249.91945479181595 L 447.76785552687943,249.5847343414789 L 447.76785552687943,249.25368747045286 L 448.0311186965555,249.21322588284966 L 448.07499591447413,248.6357209198177 L 447.4716844521463,249.05505714030005 L 447.28154997713864,248.34880238655023 L 447.438776595518,247.32984542811755 L 447.9214257206768,246.80747493356466 L 447.5704081580043,246.62721762480214 L 446.74771074205637,247.06866165797692 L 444.22477200627327,250.0481921528699 L 443.80062579363585,250.75807430013083 L 443.2265658546239,252.78829379880335 L 442.8316710740328,253.6010688295355 L 444.44415800459683,255.57588724978268 L 444.07851470448077,258.1866660336964 L 443.2448480166495,260.9920226270333 L 443.43498249165714,264.60946908721235 L 443.74943572841585,265.40347235207446 L 444.3637164607644,264.45140061120037 L 445.1132852267474,265.6718103919411 L 446.71845926344395,267.00978172640316 L 447.46071518212557,267.87354418460745 L 447.83001490682364,269.29593132354785 L 448.1444681417197,272.6365749761462 L 448.96350909024477,273.4523757370189 L 449.4900354333222,272.0743188918568 L 450.86119782179594,269.5973054416245 L 451.135430265218,268.00953814946115 L 450.79903844185174,265.40347235207446 L 451.6180794350803,262.054518491379 L 452.48099759966135,260.6353961332934 L 452.97827246412635,258.56538957415614 L 454.2068339306861,258.25652809697203 L 454.3055576365441,257.6498245866969 L 453.89969358593225,255.92891038756352 L 453.92163217253983,255.20814936899114 L 454.1922081913799,254.15638795227278 L 454.5139743182808,253.6010688295355 L 453.7461233921349,252.5676261098124 L 453.5925531964749,252.05640485382173 L 454.2433982565999,252.3322450359119 L 455.4353953972459,251.1553047489142 L 455.46830329857767,251.82469665713143 L 455.76447437144816,252.26604367548134 L 456.12646124884486,252.29914437863044 L 456.34950362704694,251.74746010650415 L 456.60911037400365,251.80262910330202 L 456.663956861943,252.05640485382173 L 457.38793057203293,251.8688317037886 L 457.18317035771906,254.15271039376967 L 457.2782375961542,255.14195593760815 L 458.06071426160634,254.10857951117214 L 458.46292188949883,252.82507154159248 L 459.29658857546747,246.21887444495223 z" /><path fill-rule="evenodd" fill="#D2EBD9" stroke="#A6A6A6" stroke-width="0.25" opacity="1" d="M 463.77206248790026,287.1959117333172 L 463.79400107450783,288.7751776969526 L 463.96950985491276,289.4949989451561 L 464.38634322211146,290.1193185240263 L 464.10845431126654,290.60407453472726 L 464.6715449783951,290.69955580844544 L 466.25112400762737,290.4278005970409 L 464.94943388924,292.21986675588414 L 464.69348360970616,292.91756621655077 L 466.2803754862398,292.67153735039756 L 467.0738214235753,292.80740427272394 L 467.5125933755189,293.22601723182015 L 466.55826439522207,293.5087610266637 L 465.9147321842611,294.15134997852147 L 468.40110659599304,294.4597874158062 L 469.2128346953541,294.0375209883787 L 469.6589195393026,294.16603751585353 L 469.96605988405645,295.0766521898331 L 469.05926450155675,294.73884697142057 L 467.96233464218676,295.04727796802763 L 465.9147321842611,296.3397141897585 L 465.47230380773544,296.053327139467 L 464.9238388799131,296.22222241573036 L 464.41559469886124,296.68117183365393 L 464.0792028773576,297.2649447687436 L 465.1834456268698,296.7472599497996 L 465.6075918395072,296.9565379394917 L 467.5674398634583,296.59305412112735 L 468.40110659599304,296.61875517328735 L 468.06471477262676,296.9565379394917 L 468.40841944143176,297.8303486480145 L 468.2402235530317,298.5756366784917 L 467.7575743831694,298.8142715624999 L 467.1506065428257,298.1828025386203 L 467.5125933755189,299.3906584655633 L 467.2493302039802,299.7247372898273 L 466.8983126413077,299.9450068947626 L 466.44857141934335,299.963362619048 L 465.9147321842611,299.67334079695866 L 466.25112400762737,300.64985838287976 L 466.06830237805843,301.18582770740613 L 466.1268052905798,301.8245726636378 L 466.36081702820957,302.3017867327435 L 466.7008652742952,302.34216601226944 L 467.231048040092,302.088876811089 L 467.4723726250231,302.2430531310383 L 467.435808300972,302.63216112868395 L 467.1506065428257,303.0873374833027 L 465.30776434391737,303.87286703963764 L 465.43939590640366,304.3023299331544 L 466.06098953075707,304.8051972388057 L 466.25112400762737,305.271351265721 L 465.6075918395072,304.9630297377007 L 465.24194853939116,305.79622446757276 L 465.4832731243223,306.4495501467027 L 466.090240964666,306.66242847486865 L 466.8727176319808,306.19629641540814 L 467.0482264123857,306.91934848274104 L 465.8123520538211,307.73413730727043 L 465.30776434391737,308.35071944259107 L 465.6149046868086,310.8205908697564 L 465.95129651017487,310.2701170152286 L 466.43394568003714,310.0279053824488 L 466.8727176319808,308.9672888481291 L 467.3699924964458,309.03701911401004 L 467.6332556679845,309.74165268347133 L 467.9111445788294,309.9178084922023 L 469.0153873283416,308.8278278291691 L 471.08858479745686,307.6387127606431 L 471.46519736759365,307.28637325263117 L 471.60414182394743,306.317418049206 L 471.7906199209392,306.15225208643824 L 472.0867909938097,306.5046050621895 L 471.8893436267972,307.8038704521023 L 472.42318281531334,308.35071944259107 L 472.6937588341534,307.42584147735033 L 473.06305860355496,308.1672142057214 L 473.3263217750937,309.0700491880998 L 473.33729104697704,310.50865692517255 L 473.94425893202424,310.1123126639286 L 473.82725306227803,308.1158325280994 L 474.3354972433299,306.4275281789014 L 473.83090948686004,305.61270343721844 L 472.42318281531334,304.68039885442704 L 472.6462252382189,303.8802083643386 L 472.0867909938097,301.2665893168887 L 472.5584708470851,299.67334079695866 L 472.97164774499834,299.8642415868817 L 473.00089922361076,300.95822551706806 L 473.57130273990333,300.70859525946435 L 473.64443143457174,299.91563773865346 L 473.33729104697704,298.1828025386203 L 473.32266530767083,295.5246050329879 L 473.00089922361076,294.7975959824398 L 473.33729104697704,294.4597874158062 L 472.79979543201625,293.82822135684546 L 471.46519736759365,289.8402126985602 L 470.93501460179687,289.1644711360568 L 470.6461564209312,287.5191177505767 L 470.25126164220273,287.41627987497486 L 469.99165493808687,287.7798834759742 L 470.21104089170694,288.5842015305534 L 469.96605988405645,288.5842015305534 L 469.2932762391865,287.3501696464373 L 469.44318996556103,286.872701887507 L 469.20552184805274,286.36951524659526 L 468.06471477262676,285.49901714129373 L 467.6332556679845,285.38147937413305 L 467.5125933755189,285.55043975135777 L 468.06471477262676,286.0866982443258 L 468.06471477262676,286.4246091200039 L 466.5728901345283,285.88835730135906 L 466.25112400762737,286.4246091200039 L 464.6861707177013,286.3731881658314 L 464.03532565943897,286.5862171810586 L 463.77206248790026,287.1959117333172 z" /><path fill-rule="evenodd" fill="#D2EBD9" stroke="#A6A6A6" stroke-width="0.25" opacity="1" d="M 468.2184749767184,170.43000660662074 L 470.67605956830084,170.5376293407753 L 470.8897047378123,169.89633627061266 L 468.5386013761163,167.22347616986372 L 467.20304737612605,165.99458888266236 L 466.45524688623846,166.04810250306036 L 466.1882191877812,166.7962051059585 L 466.45543038100004,167.97167067672126 L 466.9897375199944,168.93342540191952 L 468.2184749767184,170.43000660662074 z" /><path fill-rule="evenodd" fill="#D2EBD9" stroke="#A6A6A6" stroke-width="0.25" opacity="1" d="M 445.0373511761427,271.16152794728987 L 445.00690760836005,270.54352593026124 L 445.2240453418344,269.74019138980657 L 445.5952567588538,269.18412557046395 L 445.28645799309015,268.7206784611335 L 445.56504188477993,268.1337693698006 L 445.5656610690057,267.23789330769796 L 444.5146277733147,267.1448954476509 L 444.42147663235664,267.7936710760696 L 444.63644414395094,269.8637439504964 L 444.51202496513724,270.7907344448613 L 445.0373511761427,271.16152794728987 z" /><path fill-rule="evenodd" fill="#D2EBD9" stroke="#A6A6A6" stroke-width="0.25" opacity="1" d="M 460.73390365578234,288.0735711528687 L 461.78660763800144,287.44386803300586 L 462.787386091426,285.97334961779416 L 464.18110926263034,285.52833579911385 L 464.628492096439,284.9507731645135 L 464.52391919121146,284.3987594859209 L 463.31478650681674,284.3183188304538 L 462.5254259426147,284.9480762842577 L 460.44505482167006,287.54766420659143 L 460.73390365578234,288.0735711528687 z" /></g></g></g></svg>