<svg xmlns="http://www.w3.org/2000/svg" xmlns:xlink="http://www.w3.org/1999/xlink" width="500.0" height="334.42772762384266" viewBox="0.0 0.07579921837896109 500.0 334.42772762384266" preserveAspectRatio="xMinYMin meet"><g transform="matrix(1,0,0,-1,0,334.5793260606006)"><g><g><path fill-rule="evenodd" fill="#D2EBD9" stroke="#A6A6A6" stroke-width="0.25" opacity="1" d="M 267.14549446851015,322.3485727570951 L 268.8511572573334,322.5060806879774 L 269.76275519281626,322.31707264017314 L 270.4106204081327,321.70933362841606 L 270.6872531026602,319.44330252707005 L 271.19608529657125,319.12295329291373 L 271.6633508782834,319.2138108117506 L 273.1425475217402,319.9594630813226 L 274.15161192044616,320.05735036730766 L 275.82144147902727,319.6133995000273 L 276.33314030990005,319.64835273940116 L 280.15296498313546,321.4585926840082 L 281.3841955438256,322.44307606387883 L 282.18972702510655,324.1834292318672 L 282.52512628771365,326.90728214383125 L 282.78599234484136,327.71076923329383 L 283.7033236082643,328.46893789991736 L 283.8609899301082,328.980395254679 L 283.0984582975507,330.795539082028 L 283.48832409083843,332.35318555589765 L 284.6177881807089,332.5900442702696 L 287.01144945062697,331.69786573946476 L 288.33871310018003,332.1093206424266 L 293.8025673851371,329.2016379516572 L 294.6396321412176,329.2156859021634 L 296.28222840838134,329.65122188813984 L 297.09635993652046,329.66644394863397 L 298.38922364637256,328.7591769080609 L 298.8937558308244,328.7041687266901 L 299.38968805223703,328.96751946303993 L 302.2534815687686,331.53729223646224 L 302.75658040866256,331.78577640652657 L 303.3714790288359,331.5630769049749 L 303.6266117859632,331.62754004914314 L 304.1655438821763,332.497408089228 L 304.96820872835815,332.858596120961 L 306.4904052745551,334.4284079419449 L 306.86880444176495,334.5035268422216 L 309.58209828287363,333.97423299402 L 311.37519419565797,333.9859674796462 L 311.85249311476946,333.8815328711644 L 313.04932376369834,333.1131084766239 L 313.5481226220727,333.1506429919973 L 314.74638656154275,333.9953551357612 L 315.27098539471626,333.2339251805097 L 315.0932524520904,331.51619593892246 L 315.5662513896823,330.808426592499 L 316.1653833743185,330.8670073142275 L 318.0659790597856,332.77063847426325 L 320.4997735135257,333.907347664237 L 321.76540401391685,334.14204272441566 L 323.0238678138703,334.0997956218198 L 323.7204662319273,333.85219831299037 L 324.6922640260309,332.0049836561084 L 325.2369294501841,331.47166005987674 L 326.4007934778929,330.7322742212564 L 327.9831899125129,327.961120467633 L 329.7633858807385,326.74826013483107 L 330.96738314814866,324.97181052248925 L 331.20531594753265,323.601976910606 L 330.7265836838633,322.5854226993397 L 330.8899833057076,320.07599613815546 L 331.04764962755144,319.21031624637544 L 331.9592475350946,317.4754152726382 L 332.05098066851497,316.70043186377734 L 331.82451452314854,315.643164482899 L 333.2091113962233,315.63386204559356 L 333.77097680419683,315.21297219209373 L 334.7972411029041,313.8660170407966 L 335.490972885862,313.27940204925835 L 335.6515058707446,312.33652879856527 L 335.97830511443317,312.20999431423843 L 336.82970319129527,312.468876093626 L 337.32563538476825,312.13918491546065 L 339.8540296368301,309.6148841017857 L 340.60222797840834,307.8221790250391 L 340.6423612181097,305.9743549628183 L 339.593163581565,304.72721718717366 L 339.0542314834893,304.59074969403446 L 337.4259685110301,304.61734852939844 L 332.7045792117715,303.48084709607065 L 331.62671496346593,302.8487057648599 L 331.3601156063378,301.79749973118305 L 331.6697148941457,301.3552320962772 L 333.0399784464389,300.8184049166739 L 333.39831093885005,299.15687351487577 L 334.7685745190829,297.4690440464765 L 335.3591065108776,296.0693491427228 L 335.42217303439975,295.0941653177142 L 335.03804056718946,293.408558787778 L 335.2473067846149,292.17371856048703 L 335.17564027011395,291.71975280717015 L 334.9463074617088,291.47040201630443 L 334.34144217707217,291.3302274867892 L 334.20097578316927,291.0648414930329 L 334.3099089022726,290.70071013923734 L 335.13837366737425,289.7946851849556 L 336.01557169109583,289.3355110194534 L 336.9300362896174,289.2390976222232 L 337.48043504171073,289.55590169504285 L 337.7183678429574,288.0561098875478 L 337.0217694249004,286.5746160587296 L 335.92097191885114,285.3702636184171 L 334.3127755653113,284.2547815637663 L 336.30797102302313,283.3973979279399 L 336.9701695293188,283.25892257411033 L 338.50096606835723,284.3532492984086 L 339.46703053452075,284.6063101114705 L 340.49902821704745,284.4414162244648 L 343.39722161740065,283.3973979279399 L 345.1917509045452,283.71329440549016 L 346.0288156606257,283.5942552285269 L 346.4186814557761,283.18453884590417 L 346.9834134988487,281.2309351628646 L 347.3904792498797,280.83426660019904 L 347.87494481541216,280.65824814978987 L 349.9045402109623,280.5279586110264 L 351.83093584515154,280.97029120475054 L 354.10706403292716,281.93186685536057 L 355.3970610797405,282.7211320986971 L 355.8327934406698,282.7668959479779 L 356.87625772319734,282.18119590263814 L 358.5389206353575,282.63418358005583 L 359.07498609647155,282.4259797548875 L 359.42471865192056,281.985618699342 L 359.6425848044455,281.34411991667 L 360.3248499315232,277.2836890742183 L 360.8752486836165,275.8339425548911 L 361.6779135297984,275.04619553592056 L 362.6181780491024,274.9709707153961 L 364.49870711378753,275.4064010139555 L 365.45330498181283,275.3414225950837 L 366.49963592737913,274.8683958975598 L 366.7404353637248,274.3829450905323 L 366.5082358904183,273.618536695838 L 366.1155034881085,273.2518133036792 L 364.60477356798947,272.93069959804416 L 364.7911064736545,270.8026031125337 L 365.0347725749016,270.50689318869263 L 366.0209036897868,270.1316306302324 L 366.3706362172961,269.5495411818847 L 366.3620362523943,267.81789430230856 L 367.3682339582592,265.94018969591707 L 367.4055005349219,264.3363079596311 L 368.49196474812925,263.5337038813159 L 369.0538301561028,262.8084561768919 L 369.2917629554868,261.57838774472475 L 369.24589636176825,259.52764791436493 L 369.8966282401234,258.6975221503526 L 367.7523664254695,257.72758227493614 L 367.3252340555191,257.2122759381309 L 367.3682339582592,256.65417315624654 L 368.6868976447731,251.3563553057611 L 369.27456297166646,250.29076820705086 L 371.3901581745595,249.57017608731985 L 371.89182369597256,249.15820069238544 L 372.27595616318285,248.42675333563238 L 372.70595519803464,245.95525632239878 L 373.8497526049614,244.8789782980457 L 374.9792167209089,244.41852974705398 L 375.5640153866261,244.37810501083732 L 376.2204805649817,244.59371267911047 L 377.35281134583056,246.17777212522924 L 378.370475679636,246.4093039529398 L 379.23047374747694,247.50887276791036 L 380.11913837119937,247.990259132348 L 382.7392657864839,248.29174522589892 L 387.563854848966,247.8980222279206 L 388.3235198184848,247.48413163330406 L 388.5327859800309,246.67233760654926 L 389.3239841964096,246.26993217039853 L 392.09031124971807,241.823969299905 L 392.7267098091543,241.50548493210226 L 393.3889083173126,241.54136804118752 L 394.0453734956682,241.82845530845225 L 395.3898371011019,242.91212071944028 L 396.00043571181595,242.83133100066334 L 397.1843663882464,242.35338988620788 L 397.9468979649246,241.80153923202306 L 398.83269598148763,241.60865054558963 L 399.50636111572385,241.22292726952583 L 399.4576279129833,239.15873742941767 L 399.87042696401477,238.82274522352964 L 401.1145574692637,238.4868075940758 L 401.73948940075934,238.57190665602684 L 402.2640882059932,238.9033783916384 L 402.9463533330709,240.19617782440037 L 403.5626852437854,240.9247138677165 L 408.1665414888412,243.66182031016797 L 409.98113736882806,244.3309438340366 L 411.8129332307726,244.4634470101446 L 413.79952869564295,244.1670109499246 L 417.8300529047847,245.34402333386242 L 420.2753140423447,247.6438295794651 L 421.09517887048423,247.97901055589318 L 423.88157254457474,248.36599859874696 L 424.4377045966685,248.0645016040653 L 425.67896846681833,244.3713676026091 L 428.1242295783013,243.17695356160402 L 428.98422761820257,242.23672624863684 L 429.05016080476344,240.42031539510936 L 428.69182831421494,238.92801689263433 L 428.92689442262053,238.162119734101 L 429.890092253685,237.17269592452794 L 432.5474862176925,233.045501049608 L 433.53935065865517,232.3487586984411 L 435.7409456409514,231.33532734028995 L 436.82167652621865,230.64139036647975 L 437.7676744014025,229.78934810496867 L 438.61907247826457,228.7058417648077 L 439.51920372992754,227.12173064611852 L 439.97213604673743,226.25554821174592 L 440.11260241270065,225.3274194598198 L 441.9472649116069,226.50935344584286 L 442.60659675486386,226.56056357361376 L 443.40352829918265,226.16204883996397 L 444.71072532981634,227.08386937901378 L 444.8540583308786,228.95994680467993 L 444.65339210629463,230.9582074135542 L 444.92572481930256,232.24382097832859 L 445.36719048023224,232.3576897792518 L 447.14165312051773,232.19693564530462 L 447.9013180900365,232.34206035826355 L 448.4201835952699,232.25944965798408 L 448.81291602551937,231.78394401818514 L 449.64711411856115,229.30549038294703 L 449.97678005322814,228.80837162490934 L 450.538645433262,228.56542866956443 L 451.75410935655236,228.42948219180107 L 453.90123780816793,227.4112809188664 L 455.91649993881583,227.7766173556447 L 457.2838968280703,227.5226571811363 L 458.53662730008364,228.14424637518823 L 458.84049328789115,226.50044750515372 L 459.16442589461803,225.9305446818471 L 460.8442887365818,224.70889723394066 L 463.739615527913,223.86373289860785 L 464.6856133751571,222.97667999658734 L 465.3564118463546,221.91893624328077 L 466.1017434950918,221.18372130859643 L 469.20060314796865,221.4879932468757 L 469.73380194604397,221.94115220569074 L 471.08686551451683,223.80369480792433 L 472.1589964367449,224.1995333591476 L 472.9071947503835,223.55021979287267 L 474.44085795246065,219.53653925471008 L 475.0743898469955,218.65132906008512 L 475.8799213562161,218.11683546192944 L 476.92625230178237,217.87070399709046 L 480.14264501072466,218.86649587843567 L 481.68204151280224,217.9483098583296 L 483.3017045222223,217.7709292927757 L 483.66003704071045,217.31202712841332 L 484.408235354349,214.51203228719532 L 485.11630040220916,213.0338054355234 L 485.9590984862298,212.4498846884817 L 488.06322706118226,211.6362070189789 L 489.5022904649377,210.25058964081109 L 490.06988917291164,209.98550449870527 L 490.82382078655064,209.95458013564348 L 492.5065503194928,210.4582631420344 L 493.2088820654899,210.87367224227637 L 494.8543449956924,212.56709805503488 L 495.5222768019885,212.81039219722152 L 496.0669422261417,212.7949089994654 L 498.7788027487695,212.05406162608415 L 499.2002018187195,211.59420515131205 L 499.0712021086365,210.70794062316418 L 498.6440697386861,210.12025188934058 L 497.57193881832063,209.4929773043841 L 497.08173995278776,209.0270607052371 L 496.542807828635,207.6299338703975 L 496.709074113518,206.28224950283766 L 497.2938728053123,205.01696683373302 L 498.38607034645975,203.29661669116467 L 499.6818007212132,201.76909146271646 L 500.0,201.08712731208652 L 499.5327343903482,198.88875444233418 L 499.50406777858734,197.35345938242972 L 499.2919349540025,196.94950560294092 L 498.09653765149415,196.14183110091835 L 496.6402742639184,194.07358269486576 L 495.00914465263486,192.94271983206272 L 494.246613048017,192.2088613184169 L 493.6589476913214,191.19283555075526 L 493.3206817917526,188.95886808261275 L 493.0024825409055,188.73800703324378 L 492.5610168501735,188.70302126929164 L 490.9012206289917,188.85171474982053 L 488.61075915023685,188.04496003128588 L 487.20609565638006,188.13677017297596 L 486.7302300836891,187.79578125383705 L 486.53243052214384,185.67458441201597 L 486.90796299651265,185.14407310262322 L 487.97436059080064,184.27545823156834 L 488.8830918613821,182.51967979501933 L 489.53669037669897,182.22537558432668 L 491.744018714875,181.71970419120044 L 493.0282824598253,181.80252135451883 L 493.8452806249261,180.86774774175137 L 494.1978798173368,180.72179483249784 L 494.80561176501215,181.0398544324562 L 495.8204094618559,182.1992171611637 L 496.52560787275434,182.10548562463373 L 497.0674066338688,181.4146163314581 L 497.03874005004764,180.59327751677483 L 496.6488742828369,179.76137151569128 L 496.1185421217233,179.0516794770956 L 494.88874490745366,178.06373250950128 L 493.7707474734634,177.9375523077324 L 490.6976877693087,179.15615904610604 L 490.0612892098725,179.12568526808172 L 489.4564238972962,178.82314843591303 L 488.90029181726277,178.19644739292562 L 488.2610266227275,176.8783708512783 L 487.57016150280833,176.59572228044271 L 487.33509536646307,176.25007260031998 L 485.3599665015936,169.54392017796636 L 486.4292307589203,169.6067595621571 L 486.9796294849366,169.82779553718865 L 490.28202202543616,169.41174692101777 L 491.0072870571166,168.98061600886285 L 491.55481914430857,168.25287536531687 L 491.9561515673995,166.3177809137851 L 491.84148514829576,165.96515190415084 L 491.1964866258204,165.86348445061594 L 491.2681531403214,165.21249577123672 L 491.8242851924151,164.64061236567795 L 492.6957498881966,162.72068674955517 L 493.2031487375498,161.08196588233113 L 493.4697481505573,160.72373148147017 L 492.3603506255895,159.4811691707 L 490.4683549311012,157.88804128859192 L 492.3804172743112,156.671901518479 L 494.3928127139807,157.2718057213351 L 494.9890780337155,157.13393125869334 L 495.38754379190505,156.43177182599902 L 495.31587727740407,155.62005396466702 L 494.9546780940145,154.85813885834068 L 492.626950038597,152.6739859972149 L 491.2222865447402,150.04543144907802 L 490.8926206380129,149.22433636989444 L 490.8324207793921,148.26089150551707 L 491.25668648444116,146.96982733439654 L 491.21941988170147,146.5850181374699 L 489.43922394141555,146.28707976266742 L 488.9146251101047,145.695612966083 L 489.47935718111694,144.7915849899873 L 489.92082284390926,143.47478732373565 L 489.86062298342586,142.82632147427648 L 489.3904907107353,141.5032473821193 L 489.5538903325796,140.37868902739137 L 489.35035747103393,139.19811042863876 L 488.8916918542236,138.16230120509863 L 488.19222677126527,137.46207868866622 L 487.2748955078423,137.2774544171989 L 484.4971017986536,138.01924936380237 L 483.6485703866929,138.0790310567245 L 481.9658408816904,137.7417133199051 L 480.5153108201921,138.09397674072534 L 478.70071494206786,137.7353090364486 L 477.2702515013516,138.60112423449755 L 476.705519458279,138.70256810635328 L 472.6520619932562,138.332054188475 L 470.9865324161947,137.9808191433549 L 470.41606704331934,138.12707109935582 L 468.92253710888326,139.1532506318763 L 464.4333472829312,139.33162745740265 L 463.14908353611827,138.79440564196557 L 462.1858857050538,137.62430502381176 L 461.48642062209547,136.01005917880684 L 460.9962217565626,134.12528665736318 L 460.7697555851191,132.39228728227317 L 460.47448958829045,131.73439058288932 L 459.87822426855564,131.67584970220923 L 458.90355980955064,132.06544289831072 L 458.46782747656107,131.98773150332272 L 456.4009654764086,129.97034790553153 L 455.6957670953125,129.65450509544462 L 449.89078024588525,128.85075075551867 L 448.95051569864154,128.20137489959598 L 448.2395839896053,127.02853121887892 L 447.32225272618234,124.15966960694641 L 447.41398583352566,121.23742218036205 L 447.2563195656985,120.0704773934558 L 445.7427229844034,117.67079856432974 L 445.38725712895393,116.94549444690347 L 445.33565723337233,116.29440825153142 L 445.67678979597986,115.87067335657775 L 446.2128552570939,115.79565664380789 L 447.24771957471967,115.957315643318 L 448.19658408500254,115.72381206415594 L 448.4488501790911,115.27378127910197 L 448.37145036272705,114.45635916944593 L 447.99878452531993,113.84824542142451 L 446.273055087775,112.78973267041147 L 445.7455896474421,111.85407112073153 L 445.5649900417775,110.63315015286207 L 445.68825645186007,109.34233687352389 L 446.11054686643183,108.22210354916751 L 445.546243686229,107.66175195854157 L 444.04745444096625,105.55095692910254 L 443.0994251091033,105.09063221234828 L 443.71790139377117,106.39569131471217 L 443.70887253805995,107.05680101457983 L 442.9955933112651,107.34019539970905 L 442.0859365798533,108.0811730986461 L 440.82866908982396,107.34019539970905 L 439.049985460937,107.92367343045771 L 438.72720403410494,107.73303123842925 L 436.2487844489515,108.15080819930881 L 433.25797758065164,107.08165866695344 L 432.0661692582071,107.03691508900374 L 428.4726866092533,107.69822013285011 L 427.5201428346336,107.34019539970905 L 425.7595168892294,105.48140522651374 L 422.84771245904267,101.33220465946943 L 421.6626757849008,99.24405697453767 L 421.04645670577884,98.96336708962917 L 421.1683461870998,99.9888861104846 L 420.55889875628054,100.77693187072873 L 419.5973261259496,101.28262093383819 L 418.66284006275237,101.45782173704356 L 418.13916671834886,101.31898222491145 L 416.866098722443,100.32422498986125 L 413.16426986269653,98.96336708962917 L 411.9453749731183,98.0274453042075 L 410.667792564258,97.50106286909431 L 409.2096331566572,96.06282274052501 L 408.3067480456084,95.91938065644354 L 408.5505270343274,94.96498917602003 L 407.638613095507,93.14143340475857 L 407.1578267663717,91.06604880001396 L 406.64318227767944,89.97730193473399 L 405.96601844392717,89.32135540992022 L 405.259510865435,89.51368023268878 L 405.259510865435,89.81452992837876 L 406.0314776133746,89.56628482881933 L 406.54837933555245,90.69101127237082 L 406.88018961809576,92.1355883423239 L 406.88696123845875,92.85329621005803 L 405.65452310815454,94.23340700939298 L 403.93452700041234,95.08859147783369 L 403.4672839678824,94.80678846128285 L 402.2122736852616,95.08859147783369 L 401.74277341738343,94.95510128047317 L 400.9933787956834,94.23340700939298 L 399.1650365050882,94.23340700939298 L 398.01611522585154,93.53830180969089 L 396.6234149578959,93.26163904182613 L 395.72730149514973,92.8203686689958 L 394.9214765597135,92.1931937718764 L 393.04573278315365,90.20421648118645 L 392.5152877904475,89.28190623410046 L 392.34825403243303,88.11026216018945 L 392.14059046655893,88.11026216018945 L 392.05030196532607,88.84308237861842 L 391.504056468606,88.58015900291502 L 391.4453689493239,88.24826335534453 L 391.3054217584431,88.6163090839982 L 391.40473911352456,89.23752677813172 L 391.0255273748189,89.51368023268878 L 390.63728678040206,90.18119510728866 L 389.8833777438849,90.5989066362381 L 388.35750193335116,90.342349935323 L 386.3485826142132,90.64331374783069 L 382.56323684565723,89.92304326593876 L 381.8996163085103,89.94112933892757 L 378.2813042998314,87.8622104851529 L 377.470964923501,87.18226607516408 L 375.234067119658,84.55480558704585 L 374.3289248012006,83.71684786025435 L 370.52326414361596,81.68314074072987 L 369.2479389421642,79.99337078165263 L 367.4353971257806,78.48481182288378 L 364.7831721622497,74.09755824133754 L 364.2008112706244,73.41697067581117 L 362.70202202536166,70.5158185204491 L 362.01582936383784,69.53984250687063 L 361.37929536774755,68.84926257934421 L 360.2506890054792,68.45846414193511 L 359.5690107587725,67.88704614900053 L 358.61872419156134,67.66405418422073 L 357.9618753027171,67.16281155217439 L 356.8919564615935,66.66493649128824 L 356.395369656384,66.83250935282558 L 356.4856581557542,67.21813795808703 L 357.36597114242613,68.23053039517254 L 358.33205818757415,68.84926257934421 L 358.1243946198374,69.39649680815637 L 361.0226557534188,70.28604234661907 L 362.4514714162797,71.04227551724762 L 363.2121521010995,72.59467085730284 L 363.8757726363838,73.335379592143 L 364.972778044641,75.46753241121769 L 365.9840093385428,76.50660399533808 L 366.3812787886709,77.17016770597547 L 366.48962499946356,78.18551394622773 L 365.53256678394973,77.24536245316267 L 364.9840641077608,77.19632211886346 L 364.3136719223112,77.7848784737289 L 364.0631213132292,78.68109489884228 L 364.2278978358954,79.74459986016154 L 364.7831721622497,81.25730082485825 L 363.83965724147856,81.50460545066744 L 362.844226423651,82.27290178835392 L 362.20092080533504,83.54798323847353 L 362.1151467207819,84.27927728090435 L 361.51472814567387,83.5020805420354 L 361.71787727065384,82.70385535154492 L 362.49435845948756,81.38176851905882 L 362.81939709186554,80.2274375949055 L 362.70202202536166,79.60876977723092 L 362.48081518895924,79.1620625378564 L 361.5463290978223,78.18551394622773 L 359.89856380596757,75.64394390117377 L 358.97310659848154,74.57262546010315 L 357.74518288113177,73.79885719250888 L 354.85369336791337,73.12815182749182 L 354.5083398167044,73.25052804220468 L 354.25101755931973,73.95554776862264 L 353.9395221956074,73.79885719250888 L 353.623512417078,72.59467085730284 L 352.42267523892224,72.03033331874758 L 351.83354272693396,71.17105663754046 L 351.65748014114797,70.37077968474478 L 351.8741725627333,69.39649680815637 L 352.01637696288526,66.83739029429853 L 352.4136464111507,65.6223661461845 L 353.4068199954927,60.77381024416536 L 354.2577892076224,59.27996755670756 L 355.73174911923707,55.33529655635357 L 358.1243946198374,50.58832451701164 L 366.1058988198638,38.758609960787 L 370.225312076509,35.86069746222347 L 371.25460108183324,35.76924560870975 L 376.16855318285525,37.146232506260276 L 376.75091407448053,37.547612122260034 L 377.5093375518918,38.357012709602714 L 377.77568863891065,39.35792737174779 L 378.1774725019932,39.45916846394539 L 378.75983339361846,40.18888279888779 L 379.1909610312432,41.83724375348538 L 379.55662950128317,42.42612450104207 L 380.0035576149821,42.69648249074817 L 380.6807214487344,42.63854590151459 L 380.7461806163192,42.24751306883991 L 380.38276935368776,40.93170057516545 L 380.57914685830474,40.44771547894925 L 383.14785494469106,38.79395396541804 L 384.24034591019154,38.422869698144495 L 385.2470627911389,38.6349103115499 L 386.06417378783226,39.70505876559764 L 386.5381884686649,41.07965054735541 L 387.3011263888329,41.552512916736305 L 387.89928775653243,42.150972325354815 L 388.4410188123584,42.34727626014501 L 391.6304603908211,42.32474868185818 L 392.50625893473625,42.923415429890156 L 392.94867263548076,42.793046900071204 L 393.15407899580896,42.30222136992961 L 392.91707165539265,41.5943355159834 L 393.27371126785874,41.61363850347698 L 394.072764582932,42.15740822907537 L 394.6032095756382,42.04800011590123 L 395.4835225343704,41.460827676579356 L 396.0500829219818,41.32571948971599 L 397.6797905024141,41.70372137334198 L 398.2350648548454,41.5943355159834 L 399.41107267327607,40.24675583187491 L 399.8444575164467,40.3801909936592 L 400.345558764413,40.88989039789885 L 400.80603014677763,40.97672778740525 L 401.6457132976502,40.24514823127538 L 402.33416316471994,37.96994130965322 L 402.12649959884584,37.547612122260034 L 400.88728982023895,37.281087985262275 L 399.7496546022594,37.81737972050905 L 399.10183454304934,37.91694506909698 L 398.5646179020405,37.79650369659066 L 398.1989494320005,37.38062943704426 L 398.06351668201387,36.59405197110027 L 398.4201562963426,35.976220957003534 L 398.2350648548454,35.639294165186584 L 397.1200017631054,35.369789264164865 L 396.756590500474,34.845310376025736 L 396.2216310929507,33.1860725088045 L 395.96882327646017,30.0201012250036 L 396.13359980098903,29.18971444107592 L 397.25769174844027,27.74566989392042 L 397.2035186421126,27.15105134434998 L 396.83559296652675,26.796273332089186 L 394.83118806034327,26.062923675403 L 392.05481638014317,25.86325119715184 L 391.7794364374131,25.67797102034092 L 391.40473911352456,24.5793818840757 L 390.8584936428815,24.443692300468683 L 388.40038897655904,24.98969317227602 L 386.82259726524353,25.96867605857551 L 386.82259726524353,25.67797102034092 L 385.9558275770396,26.062923675403 L 385.33283687755466,25.44000422861427 L 384.44575227051973,24.07018920686096 L 382.3217150904238,24.204260074533522 L 380.41211312823,23.851543086580932 L 379.8523243609816,24.11807074677199 L 379.44151164218783,25.39049754012376 L 378.6153717879206,26.406401861459017 L 376.48456296138465,27.86557176709175 L 374.4779008477926,28.65228693280369 L 373.2725492566824,28.85540662612766 L 372.07396928593516,28.849008853547275 L 370.93181965500116,28.60590785741806 L 369.91607392020524,28.114988164044917 L 368.2096210811287,26.60132915340364 L 367.91166901402175,25.52464725729078 L 368.0042147487402,25.11583503521979 L 368.96804455854,24.5793818840757 L 368.96804455854,24.338338979519904 L 368.60011890903115,24.165953307412565 L 367.6927193850279,24.22500988189131 L 367.26610616222024,24.07018920686096 L 366.93655311502516,23.621748221106827 L 367.07650030590594,21.927736007608473 L 365.74925920553505,22.97398081794381 L 365.1623839009553,22.438038524240255 L 364.4694195911288,22.85433976072818 L 363.99314770288765,22.52894831355661 L 363.35887094028294,21.235823108814657 L 362.857769722119,20.792727978900075 L 361.1716318000108,20.273238309659064 L 360.4899535533041,19.000517174601555 L 359.89856380596757,17.292473948560655 L 359.1333687081933,16.073916524648666 L 357.93478873744607,16.269541301764548 L 357.04996133595705,17.693501072004437 L 356.50371586717665,17.892449736595154 L 355.57374421693385,17.941791714169085 L 354.95526793040335,17.730106292292476 L 354.3367916457355,17.11903587449342 L 353.83794763311744,17.025162134319544 L 352.9305481072515,17.24473737925291 L 352.0795789230615,16.78015416301787 L 350.15191924758255,17.11903587449342 L 349.1519740168005,16.74674605485052 L 347.2017422169447,15.429906061850488 L 346.15890991315246,14.957748520188034 L 343.9445842336863,14.47774345241487 L 343.0236414410174,14.07569859456271 L 342.33744877949357,13.333772123791277 L 342.2832756731659,13.594292398542166 L 342.1636433992535,13.575228929519653 L 340.64679644443095,11.388762555085123 L 339.70102429017425,9.734043977223337 L 338.3444394450635,6.390226651914418 L 336.6718448214233,6.390226651914418 L 335.89310642518103,4.911647303029895 L 335.5296951625496,4.617313023656607 L 334.2159973606467,4.342002592049539 L 332.94067215919495,2.3651797315105796 L 331.9994144458324,1.7108354521915317 L 330.97915429621935,1.4975030897185206 L 327.98609022051096,0.07579921837896109 L 326.79428189992905,0.105803775601089 L 325.0517136659473,0.7944383034482598 L 323.8192755077034,0.5290681561455131 L 321.41534397378564,0.7217743443325162 L 319.3183933328837,1.7108354521915317 L 318.9391815941781,2.068014525808394 L 318.61865737475455,3.1525395587086678 L 317.46070726774633,4.506551920436323 L 315.7745693475008,4.2534040892496705 L 314.93037178367376,5.022428159601986 L 311.94859377108514,7.131462427787483 L 311.7454446181655,7.59723465051502 L 311.71158643066883,8.063102665357292 L 311.8199326414615,7.944249662570655 L 312.66413020528853,8.132832677103579 L 313.50832776911557,8.71928352303803 L 314.6595062557608,8.771596004255116 L 315.28701139613986,9.055372510105371 L 316.70454099588096,9.08391067199409 L 317.27110138349235,9.313814505003393 L 315.98449012078345,9.637305011041462 L 315.7384539525956,9.848233033902943 L 315.69782411679626,10.42719672434032 L 316.5126779060811,11.736359727568924 L 316.62779576703906,12.360264142043889 L 315.98449012078345,15.239123424515128 L 315.7384539525956,15.735191809944808 L 316.05446372926235,16.051651344634593 L 316.5645938050002,17.760345850139856 L 316.9392911028117,18.263336923904717 L 318.0137243848294,18.637469567358494 L 318.31619086675346,19.123138584196568 L 318.61188575439155,20.56802600529045 L 318.60511410422623,21.462185909971595 L 318.2168735098094,23.65685427747667 L 317.650313122198,24.873137975111604 L 317.02055077441037,27.836794729344547 L 316.3253292571753,28.757842891849577 L 314.42927056364715,29.994497063569725 L 312.88533704169095,31.398358182050288 L 312.41583680175245,31.604929676279426 L 311.2691727299243,31.446396354585886 L 308.6192049719393,30.27936010621488 L 308.0774739161134,31.206215791404247 L 306.2333311215043,31.873981531709433 L 304.8383736740798,33.498588524758816 L 304.14992377720773,33.902519976720214 L 303.5991638675332,34.83087691385299 L 302.617276346311,35.369789264164865 L 299.770931083709,37.624685261398554 L 298.6242670118809,38.08717993926257 L 294.4890532772988,38.44696422480047 L 293.8886347040534,38.357012709602714 L 292.0738356541842,36.74171477276832 L 290.0874884594232,36.74171477276832 L 288.5322689022869,37.44806323200464 L 287.9070209674537,37.547612122260034 L 287.0402512792498,40.24514823127538 L 287.41494857519865,41.298377146944404 L 288.24786007776856,42.19280615076423 L 291.5321045983583,44.70588369295001 L 293.2317857872695,45.07801498938352 L 294.0601828750223,45.645191825926304 L 294.7012312859297,46.40756328124553 L 295.1210728622973,46.4833311624825 L 296.2587080784142,46.186722707003355 L 296.64469143748283,46.318902048282325 L 296.6198621056974,47.63144956994802 L 297.7620117366314,49.0012591117993 L 299.66484207846224,50.287938320077956 L 306.3033047299832,53.48930293228477 L 306.43873747996986,53.969663470983505 L 305.8338044639677,54.49866560474038 L 305.874434299767,54.90804133657366 L 306.11144164018333,55.131369017995894 L 306.82246366143227,54.364380969665945 L 307.80209397524595,53.79982715193182 L 308.7794670816511,53.914667452685535 L 310.7974152844399,55.179921488277614 L 311.7996177226305,55.61370412353426 L 312.79053409956396,56.81028350442648 L 314.7926817983389,57.92000414710492 L 315.49918937683105,57.461468235589564 L 316.1221801042557,57.41772594396025 L 316.79031508229673,57.625104419887066 L 317.46070726774633,58.464537599124014 L 318.61188575439155,59.00920500140637 L 319.2145615350455,58.779001825489104 L 319.6953478641808,58.11284445505589 L 320.6027473900467,58.16956535540521 L 320.65466326102614,60.311438439413905 L 321.0745048355311,60.12165063340217 L 322.9705635290593,60.914974571205676 L 321.9322456680238,61.64040924515575 L 320.34768233820796,62.064095275476575 L 319.6479463800788,62.004027598537505 L 318.9482104498893,61.50406777765602 L 318.61188575439155,61.75728006288409 L 319.35902316868305,62.91333515290171 L 319.26873464137316,63.12122940644622 L 318.9482104498893,63.25442196894437 L 318.92338111810386,63.58418926782906 L 319.26873464137316,64.32025146484375 L 318.83534979633987,66.43230789806694 L 319.4041674192995,67.32065814360976 L 319.26873464137316,67.90657935291529 L 318.43356593325734,69.52843969501555 L 317.96406569331884,69.95038409903646 L 317.27110138349235,69.69460118189454 L 316.1876392737031,68.58058121986687 L 316.15378108620644,67.99448093399405 L 316.8918896447867,67.5078104948625 L 316.8918896447867,67.21162887569517 L 315.4427590649575,66.93013046309352 L 315.169636329636,66.43393462244421 L 315.7384539525956,65.57358392700553 L 314.88522753305733,65.84677806403488 L 313.17426028102636,65.85165682435036 L 312.07725489884615,67.22301975172013 L 311.3414035476744,67.8723963489756 L 310.60103775188327,68.01889868546277 L 310.03899180702865,67.21162887569517 L 309.9013018216938,67.41341863106936 L 309.47017418406904,67.5078104948625 L 310.23085486888885,68.50731015391648 L 310.1744245570153,68.96000139601529 L 309.55820547789335,69.14729294367135 L 307.3709663376212,68.84926257934421 L 307.66891843266785,69.88521363120526 L 307.9397839587182,72.67786582186818 L 307.2964783143252,71.9748860122636 L 306.27396095730364,69.846112315543 L 304.82708758302033,69.15543643385172 L 304.2830993216485,69.25478919781744 L 302.06877364218235,70.5158185204491 L 302.31932425126433,69.36066185031086 L 301.9243120364845,68.8264641193673 L 298.6242670118809,68.3282134020701 L 298.1637955997139,68.5463877664879 L 297.1074200551957,68.5756964199245 L 295.5883158929646,69.09354680217803 L 294.93598141893744,69.14729294367135 L 293.48685083910823,68.52196417190135 L 289.9971999581903,67.89518494624645 L 289.42386792227626,67.58267589006573 L 288.7625045944005,66.93826577067375 L 287.64518429525197,66.76417715474963 L 282.07212604396045,68.38682529889047 L 281.4626786131412,68.82320718187839 L 280.96157739311457,68.84926257934421 L 280.3927597720176,70.78799574449658 L 280.9186903517693,71.26723982486874 L 281.15118324942887,71.90639419667423 L 280.3182717487216,71.53298811335117 L 279.593706484884,71.44494523573667 L 277.2507196497172,72.11187607608736 L 276.88279397413135,72.3059598961845 L 275.84221890568733,73.70745954290032 L 275.0725093651563,74.37181133683771 L 274.1831675507128,74.02900033071637 L 272.80626778677106,74.75876224040985 L 270.5129396431148,76.53765300195664 L 270.62805750221014,75.08535602595657 L 270.4181367289275,74.89592570625246 L 268.6665396410972,74.95471269078553 L 267.74333963915706,75.42833175789565 L 267.3708995208144,75.84160695225 L 267.2286951225251,76.46411658171564 L 267.5785631146282,77.00997881125659 L 268.1293229982257,77.43009089957923 L 269.1721553020179,77.72438068408519 L 270.70254552550614,77.38595082610846 L 272.8017533738166,77.7848784737289 L 274.50369177013636,79.30931863281876 L 275.3975479975343,79.5024026595056 L 275.1673123072833,79.99337078165263 L 273.8987587541342,81.72245319001377 L 273.4518306404352,81.90755888260901 L 272.422541635111,81.80435642320663 L 271.20364674553275,82.00093670841306 L 266.70727898553014,83.77587158046663 L 266.0933171119541,83.81358199007809 L 265.6576750613749,83.59388689603657 L 265.0911146737635,82.91526656318456 L 264.94665306806564,82.22211057320237 L 264.9872828759253,80.954349655658 L 264.3507489077747,82.65469283610582 L 263.73678703419864,83.0562187153846 L 260.4909151159227,86.36628330498934 L 260.04398700222373,87.31035538297147 L 261.66240854747593,85.8082409473136 L 262.07547847367823,85.60147313866764 L 266.92397140711546,85.96579143963754 L 267.8629719130695,85.68352151289582 L 269.8493191078305,84.55480558704585 L 272.21487803943455,84.55480558704585 L 274.6097807753831,84.03165935911238 L 276.7789622042328,84.27927728090435 L 279.8261993844062,83.59388689603657 L 281.34078913368285,82.60553146433085 L 282.4897104110569,82.34171760641038 L 283.69506200402975,82.44330675527453 L 284.7672380525619,82.90543301589787 L 285.52566152997315,83.73160364106297 L 285.00875980593264,84.47443958185613 L 285.7671832833439,85.51778692938387 L 288.2365740146488,87.51728472672403 L 289.51867086440325,87.66674589551985 L 290.0017143730074,87.98541144561023 L 291.2612390704453,89.14877060800791 L 291.5862777028233,89.81452992837876 L 289.41935348138213,88.55715468712151 L 288.7625045944005,88.68861103989184 L 285.0268175173551,86.5567067861557 L 282.9953260459006,86.28420933429152 L 281.15118324942887,87.31035538297147 L 280.56656515039504,88.11026216018945 L 279.53276173211634,87.31035538297147 L 278.3951265141368,87.03448004834354 L 277.74053480662405,86.20706259645522 L 277.3455225918442,86.61252372525632 L 276.95276758261025,88.08890558592975 L 276.48552455194294,88.41256181895733 L 274.7790717128664,88.75927212368697 L 274.314085887745,88.987703721039 L 273.4856888279319,90.13022004067898 L 273.12227756530046,90.92457971535623 L 272.86946974880993,92.37260338384658 L 272.0252721849829,94.23340700939298 L 271.91241155937314,95.91443455871195 L 272.4270560480654,97.17440667375922 L 273.17419346421957,98.34597670007497 L 273.7497827075422,99.77086094673723 L 273.88972989842296,100.57369778864086 L 273.86715777404606,101.19337316416204 L 273.5692056789994,101.59501706622541 L 272.18553429469466,101.8512484272942 L 271.9033827036619,102.18191416747868 L 271.9959284104407,102.71604554075748 L 273.0410179197788,104.39867288433015 L 272.8762413971126,104.6833758847788 L 272.1200751271099,104.78932138253003 L 270.91246630065143,104.57246969919652 L 270.38427854143083,104.63040503300726 L 269.94412204809487,105.09063221234828 L 270.7206032369286,106.80326898489147 L 270.81992059387267,107.7927087424323 L 270.4181367289275,108.8472818993032 L 269.3978765513748,109.47595858387649 L 268.98254941776395,111.62711292319 L 268.59882326610386,112.04896299820393 L 266.96008680202067,112.82976850122213 L 266.70727898553014,113.32996423635632 L 266.8065963406116,114.44876029528677 L 266.51767312921584,114.58179085329175 L 266.0210863240063,113.69895340315998 L 265.9307977966964,113.46957433316857 L 266.10460320301354,113.00590397324413 L 267.07294745370746,112.18849056772888 L 268.30538561195135,111.86958363838494 L 268.58527996763587,111.38632981944829 L 268.5672222841531,109.01148331258446 L 268.6891117654741,108.78591693099588 L 269.3753044269979,108.61841587629169 L 270.1946726590395,107.83746794704348 L 269.97798023559153,107.15457617398351 L 269.3753044269979,106.20352677535266 L 269.1721553020179,104.36226004734635 L 270.0479538179934,103.97168832272291 L 271.29844968765974,104.14379604067653 L 272.21487803943455,103.98161721788347 L 271.4000242501497,103.05345927551389 L 271.02758415974677,102.41341011784971 L 270.89215138182044,101.73552730958909 L 271.12238710187376,101.02976172976196 L 271.6189738791436,100.88599209114909 L 272.8017533738166,101.45782173704356 L 272.92815726809204,100.57865447923541 L 272.6663205958903,99.37450751755387 L 272.158447727561,98.31296610459685 L 271.55125750415027,97.85747091285884 L 270.86957925744355,97.63965908624232 L 270.28270395100117,97.04573738574982 L 269.9305787794292,96.16670050565153 L 269.94412204809487,95.08859147783369 L 271.0953005347401,93.39831924438477 L 270.89215138182044,91.60898031666875 L 271.14495922625065,90.34563892520964 L 270.68900225684047,89.57286047749221 L 269.75451616570354,88.987703721039 L 268.54239295236766,88.74119582679123 L 267.34381298162043,88.92196556553245 L 264.641929352656,89.96085976809263 L 262.9873924124986,89.81452992837876 L 262.5088633187115,89.55642135255039 L 262.00099045038223,88.51114682294428 L 261.38928578421474,88.41256181895733 L 260.7708094995469,88.9088181629777 L 259.61963101290166,88.97126899659634 L 259.39842417649925,89.1142552504316 L 259.28556352481246,89.68629385065287 L 259.56094349361956,90.37195110041648 L 261.0935909245163,92.96854651533067 L 261.4840887263417,93.83805933687836 L 261.4728026650846,94.23340700939298 L 263.0912241823971,96.44538111519068 L 262.75715672038496,96.96985904872417 L 262.5269210021943,96.72904533799738 L 262.14319484867156,95.64241576939821 L 261.18162221834064,95.08859147783369 L 260.45028530806303,93.88747391384095 L 260.04398700222373,93.67994032427669 L 259.30362123437226,94.23340700939298 L 258.59485642053187,95.73967919312418 L 258.1682432256639,95.91938065644354 L 258.5880848001689,94.0604336252436 L 259.8724388293922,92.97348597832024 L 259.9762706272304,92.67713963333517 L 259.2088182941079,91.19601102173328 L 258.7776906564832,90.85055883415043 L 257.4888221845031,88.987703721039 L 256.9470911305398,88.86280289851129 L 255.31061189994216,87.8622104851529 L 254.1481473520398,88.16940446943045 L 253.79376494511962,88.41256181895733 L 253.58835858479142,88.11026216018945 L 253.06468524038792,88.47335539199412 L 251.1279967110604,88.987703721039 L 250.36957323364913,88.9811298334971 L 248.9452720116824,88.52757808938622 L 247.45776880159974,88.32548206765205 L 245.7061717417091,87.8622104851529 L 244.8145727198571,87.14121337980032 L 244.25704116001725,87.31528203189373 L 243.8936299253255,87.17733972612768 L 242.25489346310496,86.02815830986947 L 241.90953991003335,85.93132630735636 L 240.46943818591535,86.20706259645522 L 240.13988513872027,85.91163215599954 L 239.14671152830124,84.41703708097339 L 239.90062059089541,82.05499935336411 L 240.34754870459437,81.6208974365145 L 239.94125042669475,80.99364908318967 L 239.63426947779953,79.60876977723092 L 238.02713402174413,77.66061455570161 L 236.53285919129848,77.77833806909621 L 236.28908023051918,77.52327839750797 L 237.25065283291042,76.53765300195664 L 237.13553500175476,75.71581932902336 L 236.3342244811356,74.11224950663745 L 234.393021536991,71.33571176230907 L 233.79260293394327,70.18827253486961 L 233.39984792470932,69.63106736168265 L 232.72268409095705,69.0707457754761 L 231.9146019499749,66.93826577067375 L 228.50621071457863,63.641050688922405 L 225.45897353440523,59.55400645267218 L 223.8924678862095,57.97509967535734 L 222.04832509160042,56.538203278556466 L 221.9602937977761,59.30104625504464 L 221.74360137619078,59.3886061469093 L 221.27635834366083,58.740096632391214 L 220.83168743737042,56.34226146619767 L 220.61273780837655,56.290445008315146 L 220.21772556379437,56.586786614730954 L 219.90623022802174,56.28720652963966 L 218.61510452255607,57.33024395164102 L 217.95148398727179,57.625104419887066 L 217.33526490814984,57.3010840555653 L 216.90188006311655,54.636194474063814 L 216.3330624680966,55.45021635573357 L 216.52041111700237,56.167385873384774 L 216.40755049325526,56.394079096615314 L 216.16377150267363,56.300160511396825 L 215.95385072939098,55.746445598080754 L 215.92676416411996,55.07148908916861 L 216.05542529188097,54.53587847948074 L 216.52492553181946,53.82408870384097 L 216.3330624680966,52.73743211850524 L 215.98093726858497,53.387421663850546 L 215.385033108294,53.82408870384097 L 215.3286027945578,54.30452174600214 L 215.09385266155005,54.364380969665945 L 214.7146409228444,53.82408870384097 L 213.31968347541988,53.668819463811815 L 212.72829372808337,53.26614050474018 L 212.54320228658617,52.46585106663406 L 212.7508658543229,51.94218144658953 L 213.85464288294315,51.405709833838046 L 214.46409031376243,50.67877133842558 L 212.9269284401089,49.73572122771293 L 212.35811084508896,50.000509950332344 L 212.2136492393911,49.65822805650532 L 212.35811084508896,49.2143088625744 L 211.16178808175027,48.7059284709394 L 210.82320617884398,48.376753627322614 L 210.85932160168886,49.417693567462265 L 210.552340650931,50.483346215449274 L 210.0331817213446,51.31684902217239 L 209.40567657910287,51.651307275518775 L 209.31087366491556,53.82408870384097 L 209.71717194281518,55.008374167606235 L 209.34473185241222,55.68331145867705 L 208.59307999536395,56.30339900869876 L 208.30189957655966,56.83457798231393 L 208.17323844879866,56.79894615150988 L 207.98363256454468,56.290445008315146 L 208.5524501875043,55.314255558885634 L 207.9339739009738,54.29966834001243 L 207.74436801858246,53.21601290721446 L 208.1551807373762,52.17005953472108 L 207.20263696275651,51.431560929864645 L 207.0356032308191,49.88264280371368 L 207.09654795750976,47.984711927361786 L 206.82793963700533,46.186722707003355 L 207.92043060436845,45.696760507300496 L 208.4576472453773,45.645191825926304 L 208.96777732111514,45.75477672647685 L 210.08284041285515,46.75095749087632 L 208.82331571541727,44.87180469650775 L 208.16872400604188,44.396627065725625 L 207.85497143678367,43.652654205448925 L 207.25681006722152,43.33388474397361 L 207.27261057123542,42.98457861226052 L 207.69922376796603,42.044782320037484 L 208.24546923674643,41.54607875831425 L 208.5524501875043,41.5943355159834 L 208.66756801865995,42.8268454130739 L 209.12126778252423,42.94272992759943 L 209.2025274541229,41.854940082877874 L 209.51402278989553,42.0109956599772 L 209.49596510641277,42.15740822907537 L 209.94740763492882,42.1316646868363 L 210.12798466160893,41.98042721115053 L 210.25438858382404,41.32571948971599 L 210.56588391959667,42.588657210581005 L 210.78257634304464,42.88800594583154 L 211.2024179175496,42.40198696963489 L 211.4033098630607,41.76163371652365 L 211.43716805055737,40.996025430969894 L 211.21370398066938,40.4589697252959 L 210.6561724487692,40.51363417413086 L 211.04892745614052,40.07314123772085 L 211.27916314825416,39.3338230131194 L 211.4100814834237,36.448003753088415 L 210.71260276064277,34.296904378570616 L 210.71260276064277,33.493780229240656 L 210.13024186901748,32.92647705134004 L 209.179955329746,32.541946458630264 L 208.75108489766717,32.63326645735651 L 208.95802634209394,33.21362004894763 L 208.757360143587,33.746917366050184 L 209.11855932697654,34.88110551703721 L 208.97522632591426,36.415312512777746 L 208.50796071626246,37.76702041551471 L 206.27339911274612,39.69507772941142 L 202.41630786284804,41.09574846364558 L 200.28351270407438,41.31429975666106 L 199.4063146803528,41.62684483919293 L 198.28831719234586,40.775109227746725 L 196.80052058584988,40.83228992111981 L 195.7857228871435,40.13805199973285 L 195.30699062161148,39.45831648726016 L 194.636192150414,39.41545722447336 L 194.00839358381927,38.888967690989375 L 192.40019723027945,38.34628278110176 L 190.59993464313447,36.975876439362764 L 189.74136991985142,36.88209958653897 L 189.37443740852177,36.392892870120704 L 189.1637378744781,35.359795526601374 L 188.5273393150419,35.12349319923669 L 187.1671090722084,36.1911262832582 L 186.5364438407123,36.30525466706604 L 185.8068788293749,36.827058512717485 L 185.37687979452312,36.975876439362764 L 184.64014813676476,36.792403674684465 L 184.6516147647053,35.63483398035169 L 183.8575499393046,35.231455826200545 L 183.805950043723,34.92998833395541 L 184.01664955168962,34.28237803466618 L 184.9984806831926,33.746917366050184 L 184.33341551199555,33.23193731997162 L 182.4299531634897,33.06912241131067 L 178.7405615169555,33.901638047769666 L 176.4415000732988,35.115345316939056 L 173.97330565191805,35.75300908181816 L 171.89497702382505,36.8515210095793 L 171.35604492761195,37.83432135079056 L 170.53474678099155,39.96656767372042 L 170.67951312847435,40.75264577381313 L 170.13771436735988,41.49405889865011 L 169.32644953206182,41.9516930244863 L 168.64131774008274,41.878138333559036 L 168.2686519306153,42.33585129491985 L 168.7617174591869,43.58482312876731 L 170.23804746754467,44.69947241153568 L 172.21890963241458,44.54604722280055 L 174.29723825864494,43.99789410829544 L 176.07456756196916,43.92631691507995 L 176.65936625376344,44.194231962785125 L 176.78263260796666,44.6626493902877 L 176.55473314598203,46.17289245594293 L 176.89299904555082,46.66015418153256 L 177.6268640384078,47.00826361775398 L 177.24416491761804,47.54077160637826 L 176.91736564598978,49.198506738990545 L 175.88250132836401,50.106789332814515 L 177.0262987371534,51.856741070747375 L 178.30769584700465,52.43557486124337 L 178.47969543375075,52.75379247125238 L 178.2847625631839,53.493054600432515 L 178.7305282074958,54.236672228202224 L 180.58669067174196,54.41953350510448 L 181.31195570155978,54.849008665420115 L 181.31195570155978,56.23046877980232 L 181.52122189104557,56.41143804322928 L 182.3281867466867,56.592422084882855 L 183.21255136094987,57.24655588530004 L 183.43901753239334,58.56157886981964 L 182.9387853294611,60.608724074438214 L 182.960285294801,61.27435121033341 L 183.2670179195702,61.85565085429698 L 183.74861682020128,62.17316272202879 L 188.5846725385636,63.449855694547296 L 189.27553765662014,63.77791371755302 L 189.3328708242625,64.56214917358011 L 188.83980529382825,66.30703999847174 L 188.77387210726738,67.2905685827136 L 188.9860049597919,67.92306854575872 L 189.94060279987752,69.00452626496553 L 190.56840136647224,70.07823757920414 L 190.89806730300188,71.02618633396924 L 190.7447009626776,71.89791414514184 L 189.1021046973765,73.45172919053584 L 188.62767244130373,74.08807404711843 L 188.6104724854231,74.63543644361198 L 188.96880500391126,75.93389366474003 L 188.94300505705178,76.56680656410754 L 188.2320733461529,79.93988243769854 L 188.40407296083868,81.07093973364681 L 188.96880500391126,81.95706477575004 L 191.03566697612405,83.35562434699386 L 192.55069687776268,83.92612664308399 L 194.98592467792332,85.31344177760184 L 195.58218999765813,85.31135808024555 L 196.02508900500834,84.74466126877815 L 196.2071219291538,83.87927321810275 L 196.17558865435421,79.99808438681066 L 195.55925674177706,78.85199785698205 L 195.56785670667887,78.43236609268934 L 196.0379889793694,78.02839047834277 L 196.65432091988623,78.40432428661734 L 197.66051862575114,79.5252382075414 L 198.32845043204725,79.64889580663294 L 198.5176500286907,80.16438416577876 L 198.49185008183122,81.83015633095056 L 198.9791823104024,82.64998946618289 L 199.3690481055528,82.51887881476432 L 200.51571217738092,80.39306699391454 L 200.86544470489025,80.4034622265026 L 202.0723086372018,82.26708506699651 L 202.58830747753382,82.83938540425152 L 203.16450615040958,83.16202052216977 L 203.80950470082462,83.0548171037808 L 203.9643043577671,82.80608383566141 L 203.958571029827,82.26708506699651 L 203.60023851133883,81.3537952164188 L 203.80950470082462,80.76420759316534 L 205.48936756886542,80.27664368413389 L 205.8835333455354,79.92117499094456 L 206.64176494069397,78.5320733198896 L 207.0746306385845,78.26723598781973 L 207.54762954823673,78.21738784108311 L 208.003428529948,78.38770704809576 L 208.37609434127808,78.77097362745553 L 208.58249386772513,79.42652491573244 L 208.44489419274032,80.41177846491337 L 208.62262710556388,80.66543850675225 L 209.40809202380478,80.6747953845188 L 209.96709073893726,80.89209403470159 L 210.27095672674477,81.48483621142805 L 210.27955669164658,82.61669077444822 L 210.635022547096,81.99763539340347 L 212.0941525977105,80.60098113492131 L 212.67035127058625,79.68630621861666 L 212.88821745105088,77.93078285269439 L 213.44148286804557,77.3161620683968 L 213.98614832013845,77.39920886978507 L 215.009545981884,78.31293110921979 L 215.95267716608942,78.69306846894324 L 219.2421697061509,78.50299158226699 L 220.4590669479221,78.71488164458424 L 221.18146534077823,79.42652491573244 L 221.85799711197615,80.67063680291176 L 221.03813231177628,80.98879369534552 L 220.6195999328047,80.91392911970615 L 220.34440055675805,80.67063680291176 L 219.87283493764699,81.23316117748618 L 218.59860450029373,82.24835775978863 L 218.8107373546809,82.59587936382741 L 218.2875718958676,83.54508128203452 L 217.91060607507825,83.72518461383879 L 217.39174056984484,83.4451459562406 L 217.10507456585765,84.01775399129838 L 215.8810106497258,84.53635373152792 L 215.48827821947634,85.02069928031415 L 215.40227841213346,85.91988704260439 L 216.49160926230252,86.08976350538433 L 216.81267523393035,86.9581111650914 L 216.30240971967578,88.58523615263402 L 216.6664755679667,90.3347027907148 L 216.85280844569206,93.59624872822315 L 216.3167430125177,94.78356991615146 L 216.21640991419554,96.29507029335946 L 215.91827725432813,96.4657556694001 L 215.3936784490943,96.16942095011473 L 215.14714565686882,96.19036199711263 L 214.66411340981722,97.42833613511175 L 213.87148187495768,98.09474540129304 L 211.3889541886747,98.25194709282368 L 210.8815553393215,98.62403635773808 L 209.78075783513486,100.14554710034281 L 207.9976952020079,100.5399922709912 L 207.07176397554576,101.39206994045526 L 206.21176590770483,101.36268239747733 L 205.96809980645776,101.81298515666276 L 206.3507989551872,104.49679163098335 L 206.98719748668373,105.32623816933483 L 207.19789702259004,105.88043024390936 L 207.17209707386792,106.50104095507413 L 206.9714308772236,107.0544807408005 L 206.28629908710718,107.74068954307586 L 205.76456694491208,107.69016367848963 L 205.19983487389982,106.7051448803395 L 204.8988355770707,106.45685598812997 L 203.7263715583831,108.55979333352298 L 203.80950470082462,108.80200409982353 L 205.18263491801918,109.05477460566908 L 205.58396733924747,109.53933375235647 L 205.74450029805303,110.54250468406826 L 205.46070095710456,112.6800062386319 L 205.56103405728936,113.5664173271507 L 206.2461658474058,113.92952852975577 L 206.56436512619257,114.63692584633827 L 206.5385651793331,115.58329943008721 L 205.90933329425752,117.23727852385491 L 205.44636763818562,117.65387909580022 L 204.92176886089146,117.84634606167674 L 203.80950470082462,117.81990729086101 L 203.2075060531497,115.98795824311674 L 202.72304048761725,115.52308254223317 L 201.83150917105377,115.42589392326772 L 201.03457765467465,115.96682533435524 L 200.667645143345,116.59033223893493 L 200.4268457069993,118.41115584690124 L 200.06421317905188,118.94860254973173 L 198.8157826885581,119.45443246886134 L 198.27685056440532,120.81801185104996 L 197.42545248940587,121.38783661369234 L 196.92378696799278,122.24709488358349 L 196.52818787284195,122.46328765712678 L 196.07095557264984,122.257692059502 L 195.52199016697705,121.572161603719 L 195.0174579527229,121.9620501799509 L 194.78812514431775,122.39757972117513 L 194.08866006322205,124.17027614451945 L 193.72889419831336,125.81811260059476 L 194.09152672626078,126.89896269887686 L 195.52199016697705,129.10268904920667 L 195.80865617096424,130.6543012401089 L 195.93478921614587,133.3976187882945 L 197.0900532528758,134.98538194410503 L 196.9825535081327,135.4310191301629 L 196.6285209711641,135.76157531142235 L 195.67105646803975,136.10818089917302 L 195.40445708483458,136.37697203736752 L 195.65098984912038,137.55386314727366 L 196.92808694951236,139.1596590699628 L 197.01838673837483,139.72368139121681 L 195.648123184219,140.25793029274791 L 195.25825741887093,140.56251176446676 L 194.57599229179323,143.22650656290352 L 193.91092712059617,144.08062767330557 L 193.04376243427396,144.25406232941896 L 192.16513109207153,143.8226429168135 L 190.94966719672084,142.22083606291562 L 189.94060279987752,142.02617569174618 L 189.09493805095553,142.37486557662487 L 188.10880696401,143.1344787525013 L 187.21440898440778,144.1127441637218 L 186.4690773356706,145.40422571450472 L 185.82694547623396,146.10490767937154 L 185.68934577330947,147.44048215821385 L 184.9038808848709,149.71480875927955 L 184.12701598741114,150.24082345236093 L 183.1236849166453,150.41690632980317 L 181.19728928431869,150.44374948740005 L 178.64596174657345,151.5091593125835 L 177.75729706697166,151.54998195450753 L 177.13953180983663,151.26638809684664 L 176.63356630690396,149.75774389039725 L 176.32683365419507,147.7922007534653 L 176.03730098716915,147.76860808953643 L 175.14576967060566,148.50868491549045 L 174.3574381172657,150.14849315118045 L 174.81897042691708,150.66602395754308 L 174.85337033867836,151.2964644441381 L 174.58677095547318,151.85832563135773 L 174.1510385926813,152.16349007282406 L 173.5146400332451,152.07537475507706 L 172.4310424849391,150.45985554438084 L 171.84911048412323,150.3471156153828 L 171.5395111683756,150.69394414126873 L 171.48791130073369,151.27283298131078 L 171.67137754336,151.85187893733382 L 172.81374163366854,153.00829268433154 L 172.99864119291306,153.8663356443867 L 172.94704132527113,154.6569440662861 L 172.65750865638256,154.98940986860543 L 170.9031126089394,154.90117766242474 L 169.40098270960152,153.8663356443867 L 168.7531174942851,153.72115373704582 L 168.28011855855584,153.87063748762012 L 167.98771922662854,154.3417411716655 L 167.68671990185976,155.83318070042878 L 167.23092094808817,155.76321250665933 L 166.3709229081869,155.03029925003648 L 165.32172526977956,154.94098931644112 L 164.9175261836499,155.2519761985168 L 165.46219163574278,156.88513355795294 L 165.31025861389935,157.63376861903816 L 164.85445966012776,158.17036265414208 L 164.2868609521538,158.44409927166998 L 161.82153319381177,158.7523645516485 L 160.69493574276567,159.19220487494022 L 158.98640628904104,161.67555932048708 L 156.77907795272768,163.45841564889997 L 155.85028006136417,163.89382839389145 L 152.39022125303745,163.86357346829027 L 151.83122250810266,164.13804428931326 L 151.77388931252062,165.23844497930259 L 151.16902400180697,165.3184570595622 L 150.44949232786894,164.82978170644492 L 148.97316234745085,164.7465451080352 L 148.33676378801465,163.87005665153265 L 146.18963528238237,162.20129782427102 L 145.81123614311218,162.34813918173313 L 145.0229046177119,163.09221949614584 L 144.48970582149923,163.2304808497429 L 143.48637477867305,162.70988731458783 L 141.83517849445343,160.6244723862037 L 140.78311422094703,160.0764729976654 L 139.8743829485029,160.12608917616308 L 136.0359249729663,161.707941936329 L 135.72919235005975,161.600001857616 L 135.70339240133762,161.29779886454344 L 135.9155252557248,160.05921548698097 L 135.1271937303245,159.9988152012229 L 134.7373279351741,160.14981902949512 L 134.47359518706799,159.87047039810568 L 133.4243975766003,159.6860556686297 L 131.55820180289447,161.05283010099083 L 130.63800390437245,161.45968797523528 L 130.33700457960367,161.3603945095092 L 130.16213830187917,160.79278398212045 L 129.9213388375938,160.54032156430185 L 129.12010733783245,160.71725789178163 L 128.82770800590515,160.30838465318084 L 129.17600721679628,157.8417096948251 L 129.05560746975243,157.30196690373123 L 128.74027485400438,157.01329844910651 L 128.1913094483316,156.97021694108844 L 127.67387728951871,157.20717591885477 L 126.66194625385106,158.59499276429415 L 126.11728080175817,158.80626163538545 L 125.82058146037161,157.91497871559113 L 124.90468354336917,157.33428299892694 L 124.60081758350134,156.83451590500772 L 124.40015135705471,155.8374865166843 L 123.55448660999537,155.43708337377757 L 119.59562891535461,154.53645142633468 L 118.28556522168219,154.47298041265458 L 116.4222360830754,153.73620917927474 L 115.67977112531662,153.88354302663356 L 115.4762382376939,152.50846447329968 L 115.5135048404336,151.5660963645205 L 114.77103985473514,148.95929202158004 L 114.34390748478472,148.07640595920384 L 112.94211065582931,146.62574674468488 L 112.06204599514604,144.7915849899873 L 110.74911563843489,144.18126091361046 L 108.07452169060707,144.15556684415787 L 106.31152567826211,143.6214149016887 L 104.98999535664916,143.7562783882022 L 104.52272974699736,143.66529811453074 L 103.68279832787812,143.29499493911862 L 102.22366830334067,143.1109374249354 L 100.39760576747358,142.36630812101066 L 86.7852699700743,140.87568809930235 L 85.5984726306051,140.04421475436538 L 82.90667875483632,135.57603105995804 L 81.74281472712755,134.44605019222945 L 80.00848529860377,133.68950862716883 L 76.65735958144069,133.0908576194197 L 76.13562741316855,133.44874989520758 L 74.2063651420176,136.6255271844566 L 73.80216605588794,136.98614331707358 L 71.56043780781329,137.87193728610873 L 70.62590658850968,138.45911083649844 L 70.13570769503713,139.02722084429115 L 69.79744179546833,140.73673050757498 L 69.36457609757781,141.27764696534723 L 67.36651397682726,142.61234946921468 L 66.82471518777311,142.74821920134127 L 65.25665207393467,142.72254237439483 L 63.67425566725433,143.10879729129374 L 63.1381902359426,143.08953638747334 L 62.5017916765064,142.7428698381409 L 61.41819409839809,141.79838139284402 L 60.05079720914364,141.7534671118483 L 58.19606809131801,140.81155270244926 L 57.59406944364309,140.83506880141795 L 55.42687437310815,141.53639443870634 L 54.417809976264834,142.50430172216147 L 52.48854767717421,143.13875907380134 L 52.03274872340262,143.46836591884494 L 51.1584173925221,143.51331624109298 L 48.36629036255181,142.35988999903202 L 47.77289170771837,142.35133256204426 L 47.58369213715196,142.99002450611442 L 46.14462873339653,144.32900757621974 L 45.68882977962494,144.55814219359308 L 43.75956748239696,144.4574913047254 L 41.973638186231256,144.93508997559547 L 39.67457674257457,145.31424646731466 L 38.32151314429939,145.03362136613578 L 37.40991520881653,143.9221934862435 L 36.833716509863734,143.88793902657926 L 34.99332068301737,144.80443580634892 L 34.44578859396279,144.68449801765382 L 34.03872284479439,144.7915849899873 L 30.469730945304036,148.38317558262497 L 27.909803388640285,149.14707307145 L 27.342204708606005,148.87345477193594 L 26.79753925651312,148.03028708323836 L 25.802808176726103,145.38494413159788 L 24.616010865196586,144.4425011035055 L 24.174545204266906,144.3739760266617 L 22.368549317121506,145.30996187310666 L 21.94715024717152,145.27568509802222 L 21.714950773864985,144.78515963070095 L 21.950016910210252,143.94574378151447 L 21.717817436903715,143.38488924317062 L 20.657153200358152,142.86911845952272 L 19.63662214577198,143.69954909291118 L 19.40442267432809,144.20267283264548 L 19.877421610057354,144.7915849899873 L 20.21282084658742,146.25278735905886 L 20.023621276021004,147.03736369218677 L 19.3642894346267,148.08069614507258 L 18.544424632564187,148.84985011909157 L 16.9992948025465,149.90158282313496 L 15.543031442910433,149.29838297516108 L 13.54496929422021,149.29838297516108 L 13.10923695936799,149.10200411826372 L 12.4871716927737,150.25585438869894 L 11.730373414233327,152.43215693812817 L 9.66924474388361,155.15512421820313 L 9.325245544314384,155.21969168819487 L 8.359181050211191,154.91193748824298 L 7.258383544161916,155.2455192739144 L 6.601918365806341,154.93883729260415 L 6.220652563497424,155.17664649058133 L 4.861855637282133,157.28473188448697 L 4.563722977414727,158.1315681785345 L 4.600989582017064,159.59762853570282 L 4.394590027630329,159.9492020336911 L 3.43712555244565,159.93733815196902 L 3.4428588524460793,160.60289490874857 L 3.855657931417227,161.86554425023496 L 2.8637935165315866,162.36001648567617 L 1.917795641347766,162.47987315244973 L 1.009064370766282,162.11924380529672 L 0.7338649947196245,161.81804644595832 L 0.0,161.92167944461107 L 0.0257999487221241,164.93356172647327 L 0.4299990348517895,166.27234689425677 L 0.10606642626225948,167.96921076253057 L 0.1633996218442917,168.81815221253783 L 0.5790653359144926,169.50058375578374 L 2.3907945789396763,170.9712666934356 L 3.0615930780768394,172.24118873570114 L 4.4777231980115175,172.9312352212146 L 4.922055497765541,173.52164223231375 L 5.438054338097572,175.1982542090118 L 5.489654233679175,176.66311965696514 L 6.203452607616782,177.49380594026297 L 6.458585362881422,178.26172011718154 L 6.343918973580003,180.03355597890913 L 6.547451835125685,180.8764616791159 L 7.737115781754255,182.19703732896596 L 7.8231156170368195,183.20654940791428 L 8.769113464280963,185.7291713114828 L 9.25644569285214,186.1135033937171 L 10.322843287140131,186.27075034752488 L 10.752842292189598,186.63770555518568 L 10.870375346392393,188.3269610935822 L 11.28317442536354,189.9913181969896 L 11.867973117157817,190.55588018056005 L 12.424105169251561,190.38299432769418 L 13.464702814817429,189.23005588632077 L 14.146967941895127,188.76206009089947 L 16.339962987229228,188.67240920942277 L 17.26589418761432,188.82766066771 L 18.05995906703174,187.83949467074126 L 20.037954568862915,186.68357949424535 L 20.3618871755898,187.35869671124965 L 19.702555334195495,188.75987341441214 L 19.98635470122099,190.5230526793748 L 19.65095546655357,190.95203934423625 L 17.89655944518745,192.02926929108799 L 17.085294609889388,193.10047810710967 L 15.889897305518389,194.0867358185351 L 15.393965112045407,193.5387576939538 L 15.22483216226101,193.7645073449239 L 15.812497491016984,195.1984746446833 L 16.778561985120177,198.61192295048386 L 16.279763100668788,203.1909306840971 L 15.16463227570057,204.72390077076852 L 14.812033085152507,207.25928923673928 L 14.092501383274794,209.41126877442002 L 14.78336650133133,211.06151725444943 L 16.887495048344135,213.89892779197544 L 17.566893510520458,215.6368946293369 L 17.8764927983284,215.90491395723075 L 18.776624105870724,216.15524414274842 L 19.243889715522528,216.62940315064043 L 20.952419167384505,219.73404349200428 L 21.221885243430734,220.06473866663873 L 22.196549702435732,220.65079742204398 L 22.69821522384882,222.17887803539634 L 23.859212588518858,223.37458421103656 L 26.86633910611272,227.79666817188263 L 27.970003247261047,229.0201341426 L 28.984800973907113,229.8183385282755 L 29.818999093025923,231.1121711526066 L 36.15718471072614,238.01210881210864 L 39.731909938156605,240.80140509363264 L 41.91917162761092,243.18368702940643 L 42.30330412276089,243.7448876146227 L 42.97410259209573,245.5979327177629 L 43.82836730591953,246.21373652946204 L 44.78583180718124,246.51721111591905 L 49.81108709424734,246.58015958219767 L 51.270217118784785,247.18726130295545 L 52.00408213958144,249.09067159611732 L 52.084348591044545,251.02062460966408 L 53.87027791514993,251.9581035654992 L 54.77614252269268,253.11702071968466 L 54.43500995822251,253.81629409920424 L 54.154077254235744,255.8929573604837 L 54.796209113672376,257.00664147082716 L 54.085277404636145,258.7246599569917 L 53.86741125024855,259.6452950220555 L 54.03654420003295,260.64330417569727 L 53.29121252335608,260.8266647234559 L 52.534414272755384,261.30212020874023 L 52.14454847946763,261.97247308306396 L 52.50574766099453,263.0124061778188 L 51.73174942843616,263.10758981853724 L 51.07528422214091,263.41356701403856 L 50.66535183414817,263.9712428981438 L 50.61375194042921,264.810309314169 L 50.95488450303674,265.5634936913848 L 51.59128306247294,266.0491267098114 L 52.35668130405247,266.1512604299933 L 53.09054632484913,265.7359483325854 L 53.655278369784355,265.9878488937393 L 55.41827438212931,266.1739575378597 L 55.75940694473684,266.9367254935205 L 55.40107442624867,267.4862760063261 L 53.09054632484913,268.76534642931074 L 51.21575056016445,270.50234417803586 L 50.80008484609425,271.1939157033339 L 50.54208542406559,272.52994755562395 L 50.235352801159024,272.9990173969418 L 49.34095482155681,273.55475398991257 L 49.45848790369928,274.1744417184964 L 49.13168863207102,276.02094880491495 L 47.752825086936355,278.6180000724271 L 47.85602485015988,279.02451613824815 L 48.31469049490988,279.26321075484157 L 48.005091179162264,279.80009011365473 L 46.686427522450686,281.1497661601752 L 45.27603070065379,282.04509051702917 L 44.6510987970978,282.80808432679623 L 43.114568930119276,286.18263635318726 L 42.64157002046704,286.4920877618715 L 42.10550456121564,286.5024036215618 L 41.66977222636342,286.72821938898414 L 41.48917262069881,287.67187290638685 L 41.638238951563835,288.2637427467853 L 42.512570310384035,289.44111189991236 L 43.01996915973723,289.6397023331374 L 42.882369458675385,290.697264441289 L 43.08016902022064,291.00740318838507 L 43.401234962046146,291.1578949522227 L 42.04530470073223,293.3614049218595 L 42.00230479799211,293.6385932955891 L 42.43517049588263,294.5290723936632 L 41.10504015535116,295.2875530105084 L 40.91870724968612,295.9115840215236 L 40.867107382044196,296.1868173312396 L 41.122240137308836,295.99564714729786 L 41.36303957551718,296.1200208645314 L 41.48917262069881,296.8030605940148 L 40.50877483561635,299.73594724107534 L 40.537441447377205,300.0936251832172 L 41.15664004907012,300.9788609324023 L 44.195299815386534,301.8760325536132 L 44.846031695604324,301.85870888922364 L 46.80396057665348,301.26863741967827 L 47.49769232980907,301.2039825031534 L 48.59562317095697,300.7595357503742 L 50.16081964969635,299.06460608541965 L 51.270217118784785,299.2468382306397 L 55.415407717227936,302.99083367642015 L 58.560133937746286,305.15749705582857 L 59.34273213520646,306.26253224443644 L 60.00206400640309,309.1871326081455 L 60.4291963763535,310.058960294351 L 61.438260747119784,311.5669966554269 L 62.040259366855025,312.1937427567318 L 62.62792472168803,312.41431077662855 L 69.53370904736221,312.9588686330244 L 71.80983723513782,312.51879879646003 L 79.60141957737505,313.78353213798255 L 82.09541391767561,315.1002072189003 L 83.35387771762908,315.514097167179 L 84.60947488062084,315.5501421317458 L 89.28786430321634,314.27849193196744 L 98.48267676308751,314.1227872688323 L 100.82473813742399,314.5945860510692 L 106.73865804821253,313.4687264589593 L 108.66505371034145,313.5291282022372 L 109.50211846642196,313.3421210711822 L 111.2937810625881,311.7329494282603 L 112.12511251866817,311.3674072455615 L 118.57223125360906,311.09358407650143 L 118.90476382523775,310.9253636794165 L 118.89043050631881,309.7609662869945 L 119.23156306892633,309.2810215353966 L 119.62142886407673,309.07354450505227 L 125.72741503454745,308.88463136181235 L 130.97053644806147,306.5519081419334 L 132.80233231000602,306.2463284190744 L 135.59732597507536,307.2326834220439 L 138.04832041449845,307.13773166015744 L 139.18925115838647,306.88416270166636 L 139.93171614408493,306.45004310738295 L 140.10658242180943,305.74985977914184 L 140.02058261446655,303.5999013017863 L 140.24131545983255,302.72160791326314 L 140.64551454596221,302.33574150968343 L 141.87531176023185,302.3588452003896 L 142.69517656229436,302.15669670607895 L 142.61204341985285,301.3817884847522 L 142.04444471001625,299.66557288821787 L 142.41711052134633,299.31373770628124 L 144.12563997507095,299.73594724107534 L 145.77110293135047,299.45792506914586 L 146.343001620844,299.5017600506544 L 146.9521668870002,299.8017090829089 L 147.72329848445952,300.65334470849484 L 148.23643066175282,300.9292221153155 L 149.20822845585644,300.9049803176895 L 152.21248833835125,299.68864621035755 L 153.77195143327117,299.64019255898893 L 154.2105504591018,299.3910208819434 L 154.55741634964943,298.4592054337263 L 154.3395501691848,297.3365212660283 L 153.41935227066278,295.0930142654106 L 153.964017694816,294.320798818022 L 154.8096824157983,293.79503162857145 L 155.24971475824714,293.85945091675967 L 155.53924745507538,294.1378578078002 L 156.98117752373219,296.18221060279757 L 157.10874388739467,296.77541203517467 L 156.99981079623103,298.31047748122364 L 157.17467707395554,299.2110825162381 L 157.53587625734508,299.9620846984908 L 158.0547417346388,300.4490580409765 L 158.691140294075,300.55639253836125 L 159.28453894890845,300.230944134295 L 160.96153515391052,298.39925173763186 L 161.48040065914392,298.12141270563006 L 161.99066614359617,297.98884735815227 L 164.69966000318527,297.9807784194127 L 165.23572546429932,298.17789973691106 L 165.9036572985351,298.7832164308056 L 167.34558733925223,301.3506136164069 L 167.93898602202535,301.8910465333611 L 168.5610512625426,302.19365954212844 L 169.1257833056152,302.15669670607895 L 169.53428237512708,301.68663505185395 L 169.65181545726955,300.45598266273737 L 169.8854482471943,299.95054642669857 L 171.35891159065068,298.73132505081594 L 171.99531015008688,296.676341121085 L 172.35650933347642,296.53235128428787 L 172.71054184250534,296.72011600248516 L 173.4286402259022,297.4194910535589 L 174.81037043593824,298.3600522391498 L 175.52846879139543,298.60679119918495 L 176.28096708841622,298.6229340909049 L 178.76922812871635,298.09144067112356 L 179.48589316755533,297.79865996167064 L 179.7295592688024,297.1913323458284 L 180.41182439401746,293.1682005478069 L 180.6812904700637,292.6956172287464 L 181.13995606079698,292.47258687671274 L 181.9053543303162,292.8922261344269 L 182.2608202137053,292.8565821601078 L 182.65641930699348,291.4772961270064 L 182.94881866686046,291.01659321878105 L 183.44761749729514,291.5830082781613 L 183.58235056325793,292.23923595249653 L 183.59955051913857,294.6855793632567 L 184.14421594329178,295.91388705559075 L 184.9210808686912,296.86527121718973 L 186.68981015309691,298.0384142585099 L 187.50107501633465,298.21479006670415 L 189.212471133098,298.2320826277137 L 189.94060279987752,298.50878387130797 L 190.47093493305147,299.0865192078054 L 191.12740011140704,300.4986851019785 L 191.6806655265391,301.0411998042837 L 192.22533095255494,301.2386188348755 L 192.7929296605289,301.26632829848677 L 193.90806045755744,300.99040501285344 L 194.57599229179323,300.5702425390482 L 194.92142483778298,300.01977682020515 L 195.50479018315673,298.39925173763186 L 196.75465401820838,296.26052626781166 L 196.86358710750937,295.0941653177142 L 196.60272102430463,293.93997789919376 L 196.78905392996967,293.43501143343747 L 197.818184947595,292.42430518195033 L 198.70971626229584,289.7923890314996 L 199.34611482173204,289.43078113533556 L 199.91801351122558,289.6316664852202 L 201.00304437987506,290.58470721915364 L 201.64230963028967,290.7891524648294 L 202.8534735161811,290.2895613517612 L 203.40530561469495,290.2964514596388 L 204.49176982790232,292.62663615494967 L 206.23183255456388,293.1682005478069 L 207.04023070074618,294.2517625037581 L 207.61356273666024,294.77189348917454 L 208.16109482385218,295.0055354889482 L 209.40809202380478,295.01934769842774 L 209.88682426139712,294.6855793632567 L 210.93888853490353,292.71746171917766 L 213.45581615902483,292.29326066654176 L 213.95461504533887,292.42430518195033 L 214.70281333103776,293.59373454004526 L 215.05397920310497,293.84334590286016 L 215.78354421630502,293.51552159525454 L 216.13041010685265,293.5350745599717 L 218.44953817129135,294.6130783520639 L 222.33099604956806,294.71780287567526 L 223.12649424932897,294.49800258968025 L 223.90479246340692,293.91927064955235 L 225.33382255770266,292.0748718259856 L 226.73418606817722,291.3876749109477 L 227.08965192362666,291.0533537110314 L 227.33475137129426,290.4549296433106 L 227.36198466457427,289.6431462839246 L 227.00365211814642,288.32110358960927 L 228.05858305469155,286.75343891233206 L 228.85264793597162,286.25025317166 L 230.08244515024126,286.15398579556495 L 231.10727615840733,284.8319157548249 L 232.3012401163578,284.64295501448214 L 232.964871969074,284.06472954992205 L 233.17557144910097,283.64576173201203 L 233.4823041278869,283.71787298098207 L 233.61130381003022,284.0132124563679 L 233.64713706821203,285.0701457215473 L 234.21903578564525,286.0325120156631 L 234.29356893710792,286.6823664335534 L 235.91323191858828,288.1111706662923 L 235.749832296744,289.36535420641303 L 236.11389814317226,289.51457666419446 L 235.749832296744,290.2482213675976 L 235.35423317365348,291.79329984262586 L 234.51430175453424,292.1771668503061 L 234.46270188689232,293.26710047293454 L 234.6719680763781,293.58108226116747 L 235.35423317365348,293.61443847138435 L 235.35423317365348,293.9480308396742 L 234.775167837739,294.26556958816946 L 234.5429683662951,294.6015704507008 L 234.445501903072,295.8298273598775 L 233.8205700274557,296.38146086316556 L 234.40680200979114,297.2950376449153 L 233.0236384831369,297.7859814539552 L 232.70257253944874,298.2078730929643 L 232.70257253944874,298.48457094468176 L 233.27303791046143,298.81781143695116 L 233.27303791046143,299.09459254611284 L 232.49617301300168,299.70479766931385 L 232.49617301300168,300.035930916667 L 233.64713706821203,300.9269133368507 L 233.46223748102784,301.53305130265653 L 234.0269695520401,302.17286788579077 L 233.8607032392174,302.7897775936872 L 234.18463584594429,303.7339900592342 L 234.0269695520401,304.3386558899656 L 235.54343277215958,304.61503558885306 L 235.8229321297258,306.1190171390772 L 236.1310980990529,306.45004310738295 L 236.1310980990529,306.7845963584259 L 235.35423317365348,307.08909949846566 L 236.8076298981905,308.39794272743165 L 236.78182995133102,309.09440716262907 L 236.56969712488353,309.69372077006847 L 238.01162716560066,311.8281172476709 L 238.582092538476,312.13222020305693 L 238.7798920981586,313.21900781895965 L 240.06988917291164,313.3397980844602 L 240.69195444136858,314.1390543570742 L 240.4826882518828,315.07230754289776 L 241.2681531123817,315.37689949944615 L 242.00775143504143,315.9048127643764 L 242.59828342683613,316.62597465422004 L 242.64128332957625,317.2798958942294 L 243.085615683347,317.7373013133183 L 243.40381493605673,317.73846531752497 L 243.59301453270018,317.4789068335667 L 244.3154128715396,317.5336092375219 L 244.56194566376507,318.11796960793436 L 244.29534627869725,318.71763889770955 L 243.48408144153655,318.8294415958226 L 243.85674725286663,319.71826094575226 L 243.69334763102233,320.4804181661457 L 244.12621332891285,320.9560384936631 L 244.81707839295268,321.17989863920957 L 248.61683647334576,321.40261758491397 L 249.68466738425195,321.26968289911747 L 250.36119918338954,320.8837556000799 L 251.62826297432184,319.7928324267268 L 252.29619478061795,319.5353395277634 L 252.94692663289607,319.8184670191258 L 254.3888567276299,322.20974262803793 L 256.5703851170838,323.1128931045532 L 259.1159793268889,323.12573147844523 L 263.9721016641706,322.1805778713897 L 267.14549446851015,322.3485727570951 z" /><path fill-rule="evenodd" fill="#D2EBD9" stroke="#A6A6A6" stroke-width="0.25" opacity="1" d="M 215.95385072939098,51.405709833838046 L 220.3080140929669,55.45021635573357 L 221.70297154039145,56.207865085452795 L 215.6581558417529,50.444586273282766 L 212.8682409208268,48.376753627322614 L 210.74646094813943,47.466935593634844 L 212.70120718888938,48.6768816690892 L 213.07139007374644,49.437064501456916 L 214.2338546216488,49.756709452718496 L 215.95385072939098,51.405709833838046 z" /><path fill-rule="evenodd" fill="#D2EBD9" stroke="#A6A6A6" stroke-width="0.25" opacity="1" d="M 301.1207442805171,65.42561791557819 L 301.4006386641413,65.13296705111861 L 302.6691922172904,65.23701625782996 L 303.0122885610908,64.72982272692025 L 302.529245024547,64.20812020171434 L 290.86171244084835,66.12000597734004 L 291.193522695452,66.36886799614877 L 291.4147295579314,66.12000597734004 L 295.40548165887594,65.57358392700553 L 297.31508362293243,65.97200333420187 L 298.13670906051993,65.93622397165745 L 299.02153646200895,65.2727842880413 L 300.16594329848886,65.78985982015729 L 300.82730662822723,65.85165682435036 L 301.1207442805171,65.42561791557819 z" /><path fill-rule="evenodd" fill="#D2EBD9" stroke="#A6A6A6" stroke-width="0.25" opacity="1" d="M 272.0252721849829,71.90639419667423 L 275.64584140107036,71.01945435628295 L 278.2935519516468,69.69460118189454 L 277.67281843163073,69.82656191848218 L 276.5058394689113,70.38870534673333 L 266.39126920700073,72.55552140623331 L 262.04162028618157,74.23957788385451 L 261.1725933626294,75.02819863148034 L 260.42319874092937,76.2647636178881 L 259.95369850099087,77.94021821860224 L 259.93564079143107,78.68109489884228 L 260.42319874092937,78.48481182288378 L 261.3215694092214,75.58677194267511 L 261.9761610906571,74.7538636745885 L 263.0912241823971,74.09755824133754 L 272.0252721849829,71.90639419667423 z" /></g></g></g></svg>