<svg xmlns="http://www.w3.org/2000/svg" xmlns:xlink="http://www.w3.org/1999/xlink" width="478.8671187199652" height="500.0" viewBox="0.0 0.0 478.8671187199652 500.0" preserveAspectRatio="xMinYMin meet"><g transform="matrix(1,0,0,-1,0,500.0)"><g><path fill-rule="evenodd" fill="#D2EBD9" stroke="#A6A6A6" stroke-width="0.25" opacity="1" d="M 81.00944629870355,35.83780701158685 L 78.71322440356016,36.55233715259237 L 77.52080593816936,36.38908841062221 L 76.36919259279966,35.87213355919812 L 74.99088367633522,35.52749641297851 L 70.56578678451478,36.37094963598065 L 69.22374928742647,35.89027236727998 L 68.48472178913653,34.638693407789106 L 67.91798295080662,31.010894647828536 L 67.46459189616144,29.677665956987767 L 66.9295904301107,29.23325475101592 L 65.46060335449874,28.571171389950905 L 64.84399147517979,28.06327066887752 L 64.59009249135852,27.537229520326946 L 64.22737959586084,25.696076588064898 L 63.28432624228299,24.10886460065376 L 62.137246768921614,22.63955049647484 L 58.233549635857344,18.929945038747974 L 56.87791026011109,18.122712461161427 L 54.833116598427296,17.759910334571032 L 54.143962141126394,17.351757279771846 L 53.51828242838383,16.154504081845516 L 52.98328096047044,12.75318129369407 L 52.52988990582526,11.419848274555989 L 51.57776863127947,10.53095495965681 L 47.99597918987274,9.134115136403125 L 44.94919112697244,7.501433385419659 L 43.80664561316371,6.322266413131729 L 43.00867732986808,4.40837324608583 L 42.10189513489604,4.217889923020266 L 36.144336508587,0.9161515360465273 L 34.21742441877723,0.1995581106748432 L 32.37212274223566,0.0 L 30.65830442868173,0.4898241219634656 L 29.15304610878229,1.8957939054525923 L 28.300670912489295,3.75528709392529 L 28.092111008241773,7.365376082452713 L 27.70219461247325,9.20667847985169 L 25.235747270286083,12.789462309126975 L 24.27455816231668,13.279255994333653 L 23.485657623037696,13.397169096453581 L 22.723960673436522,13.170413087646011 L 21.912390684708953,12.662478596816072 L 21.118956273421645,11.719168606447056 L 20.593022640794516,9.986732821183978 L 19.86759684793651,9.560424409806728 L 19.260052802041173,9.77811392446165 L 17.392081674188375,10.911909741204 L 16.349282152950764,11.147738471045159 L 14.218344118446112,10.76678419887321 L 9.584687322378159,8.009380230127135 L 7.95247950963676,7.5649268857669085 L 6.111711705103517,7.428869536728598 L 2.5843291748315096,7.619349695072742 L 3.4095009583979845,12.771321846055798 L 3.3913652040064335,14.449314208002761 L 3.046788062900305,15.437963133997982 L 2.022124208509922,17.197565997950733 L 1.9767851289361715,18.131782517855754 L 2.8064907863736153,20.353932667028857 L 2.8926350716501474,21.09766793885501 L 2.3757692705839872,22.993275205080863 L 0.7526292037218809,25.750495081971167 L 0.7435613702982664,27.863737947365735 L 1.8135643918067217,33.287344263197156 L 1.8951747175306082,34.865429111145204 L 1.5324619095772505,36.56140653399052 L 0.24029727652668953,39.93519123099395 L 0.0,41.47696107486263 L 0.25389907136559486,42.52898747782456 L 1.0427995212376118,44.15236574417213 L 0.5440693870186806,47.97044386091875 L 0.6619510464370251,48.768515840143664 L 1.6412757337093353,50.31024024539511 L 4.234672654420137,51.189926719729556 L 5.223065262660384,52.368884170486126 L 5.4678964130580425,53.63852595080971 L 5.694591896608472,58.91655737775727 L 5.495099825784564,60.76657034282107 L 4.715267209336162,64.18544237694005 L 4.787809789180756,66.01729240216082 L 5.885016134008765,72.9274646511476 L 6.175186451524496,73.38088413028163 L 7.091036392375827,74.18796971737174 L 7.2043841779232025,74.8680969242996 L 6.320271609351039,76.32809992381954 L 6.175186451524496,76.85406262660399 L 6.528831513598561,77.81530337862205 L 8.278921071439981,78.11455713174655 L 8.986211109906435,78.59517650605994 L 9.176635347306728,79.81939356261864 L 8.886465029790998,85.19684637148748 L 8.47841314226389,86.54800245721708 L 7.317731963470578,88.9782622003404 L 7.100104225799441,90.62865699848044 L 12.77202658355236,123.90794641934917 L 14.086860666051507,127.13609192430158 L 14.553853513672948,128.78643557048053 L 14.47677706182003,130.46398247103207 L 13.438511414453387,134.29060398240108 L 13.565460992977023,135.80493108337396 L 14.331691816449165,138.18070296786027 L 18.19004986807704,143.55793528084178 L 18.670644510537386,144.54633197680232 L 19.70437611080706,144.1382782094879 L 20.348191490396857,143.58513880061219 L 20.94666761532426,143.34937456663465 L 21.817178566008806,143.902513813955 L 22.125484373420477,144.57353559989133 L 24.931975247338414,159.00965498189908 L 25.544053165242076,160.89579661312746 L 26.55058135278523,162.53710617747856 L 32.85271729528904,169.8187617691583 L 34.39424686320126,173.16490509852883 L 34.176619213074446,176.5836133879493 L 32.55347914621234,183.67501081892988 L 32.59881822578609,185.479615831282 L 33.677889078855515,192.893084186333 L 33.19729443825781,197.43191677311552 L 33.32424392923713,198.32064564625034 L 34.992723163217306,201.79396406860906 L 36.126200841739774,202.45144977845484 L 39.29993839748204,204.89549412607448 L 42.9814739190042,206.5596309104876 L 52.348533414304256,208.68629224560573 L 53.200908698141575,209.1714814065199 L 54.15302988514304,210.29150013142498 L 56.011933356523514,213.56542451062705 L 56.419985331594944,214.9802060048969 L 58.39677037484944,217.0570451024687 L 59.00431442074478,218.6849709712842 L 58.53278778679669,222.25374377483968 L 58.50558419898152,223.94972065498587 L 59.62092630006373,224.99724119683378 L 59.929232282564044,225.76361165041453 L 60.337284257635474,228.54795884658233 L 60.57304757460952,229.11934322147863 L 63.24805490858853,231.86291339548188 L 64.00521798431873,232.24384130106773 L 64.75331322848797,232.4796540302923 L 65.56034934520721,232.33453852508683 L 66.51247062161565,231.56814830107032 L 68.0267967749387,230.86071322413045 L 69.10133366845548,232.00349389377516 L 70.16680273041129,233.77209352119826 L 71.63578971661627,234.91488780855434 L 72.66045357100666,235.00558603118407 L 74.64630653522909,234.7879103194573 L 75.8251232933253,234.91488780855434 L 77.48453460633755,235.35023939766688 L 78.70869053155184,235.85815069134696 L 81.57865606248379,238.1256249040016 L 99.42866257578135,261.09419661175343 L 129.6199742425233,285.48530812066747 L 148.65786552242935,309.444557441544 L 151.16965203173459,313.9950599243748 L 151.9585524816066,318.4209427572787 L 150.82054084166884,320.1632062383578 L 145.8559086099267,322.98082147267996 L 144.033276559785,324.40099520696094 L 143.36225767992437,325.91193188383477 L 143.063019618392,327.7586563723162 L 142.9315361659974,331.5474748930137 L 138.69232963770628,329.9457210249675 L 137.23241039551795,329.71884522621986 L 136.0445257164538,329.77329542284133 L 132.19976945780218,330.43577382082003 L 130.92120661959052,331.1073307505285 L 130.46781556680799,331.9014062190254 L 131.2476481832564,332.5139822047786 L 131.38366550765932,333.01765800558496 L 130.9756135325879,334.0340910841187 L 126.02458309568465,339.6019340781204 L 124.54652818664908,340.55035334356944 L 121.29118021950126,340.56396713401773 L 119.84939655661583,338.1543612131791 L 118.62977459095418,335.32733272435144 L 116.10438637807965,334.10669368473464 L 114.62633146904409,334.77827059928677 L 112.99412356875837,336.23941652613576 L 111.54327215999365,337.96377288902295 L 110.6546256300062,339.40226781350793 L 110.23750582151115,343.0916096162109 L 109.36699496023357,343.5953293752973 L 103.21901200897992,343.6543237550359 L 101.95858483761549,344.03551867659553 L 101.70468585379422,345.54215846478473 L 102.50265404954553,347.3710273501929 L 104.27994710952044,350.5704828904127 L 104.35248968750238,352.14528315205825 L 104.01698029227555,355.39479616761673 L 104.1257942058146,357.02866501323297 L 104.48850701376796,357.92730317421956 L 106.20232523791492,360.60510661799344 L 106.67385204695165,362.7655516479281 L 109.60275827534497,370.6678857142397 L 109.72970785573125,371.9933204969566 L 109.94733559340239,372.48809330389486 L 110.31911623477936,372.73321104139904 L 111.724628476426,373.1099671314005 L 112.32310477644205,373.9815045117284 L 114.49031414277852,379.89181249801186 L 114.61726363562047,383.3918578583107 L 113.66514235921204,386.86932695345604 L 111.64301815070212,390.41501948350924 L 110.12415803596377,391.81335630535614 L 106.03910450078547,394.6600333620445 L 104.98723723366857,395.9630860784382 L 104.87842332199216,397.64754657723824 L 105.23206838406622,399.51365526908194 L 110.17403107695282,414.3893904092547 L 111.74729810282588,417.50016472651623 L 113.52912494726479,418.1450396896107 L 113.81022751890123,418.5991798385512 L 114.07772820815444,419.94799010650604 L 115.81421606056392,422.9431502488442 L 118.34413823485374,425.727221073932 L 119.45948033593595,427.34411296233884 L 120.0126173812896,429.2244697766437 L 119.84939655661583,430.250962438673 L 118.96981794759631,432.0950470326643 L 118.83380062319338,433.1011349961627 L 119.42320900224149,435.58574746293016 L 119.39600550197065,436.37384385452606 L 118.26252782344818,438.4679006173683 L 116.8388799149543,437.9795854818949 L 115.17946851439774,436.5555386977503 L 113.27522605098784,435.8514736518846 L 113.64700678177178,437.2323552490561 L 115.56938491016626,441.01627178737544 L 121.36372279934585,449.4682643597771 L 122.47906481102109,452.4735831905273 L 123.44932175241411,453.3277236079157 L 124.3697055671364,453.6457569519989 L 126.99937382154167,453.72526544649736 L 128.1917923744768,454.2750125161547 L 130.89400320872664,456.42406088206917 L 134.16748675517738,457.3986488863302 L 139.76686653122306,461.77876829967136 L 142.05649143084884,462.4194499620644 L 146.20048583857715,462.41490605159197 L 149.79134311527014,461.91508309706114 L 153.23711531981826,460.8177559537289 L 171.6991998385638,450.76533044606913 L 173.30420423857868,450.43367933429545 L 174.33793592639267,451.34458752637147 L 175.36259978078306,452.6235114723095 L 176.90412943437696,453.3981451088039 L 186.0082222018391,454.73616693512304 L 187.61322660185397,455.42222442946513 L 188.4293304644525,456.16508147126297 L 195.41155303269625,464.0279936918232 L 195.60197727009654,464.5323746124923 L 198.1591029446572,463.41456200252287 L 200.2356340661645,461.6697166726226 L 206.48336309753358,454.6725592727016 L 207.74379026703537,452.55990553149604 L 208.07476579025388,450.8925394718244 L 208.3422664795071,446.84693818190135 L 208.94981052540243,445.35913530993275 L 210.14676295034587,444.734493585187 L 217.73652947694063,444.26658335051616 L 218.7339899186045,443.7328055127873 L 220.4296725653112,441.01627178737544 L 221.77171014808118,439.62851253070403 L 223.24976505711675,438.8630973920226 L 228.76300046220422,437.7479206105054 L 229.82846943475306,437.78880259394646 L 230.40427610836923,438.54966523495386 L 230.79419250413775,440.34850901784375 L 230.81232808344066,441.71129595817183 L 230.43147960864007,444.8571501582046 L 230.52669172734022,445.9951392436633 L 231.56495728716254,447.1876601459808 L 247.7102134078741,457.02607767671 L 251.55043588206172,457.9257040451048 L 281.4561111051589,460.36338072104263 L 288.81918214820325,462.5853010776045 L 295.7107265572995,466.0909783775569 L 301.0335377249867,470.05125006340677 L 302.58413512445986,470.6079316227697 L 304.3387586437166,469.8740216967126 L 315.41510258056223,460.80866841203533 L 317.25587029755116,459.83858075898024 L 319.97168283723295,459.3115125737677 L 342.0744977593422,458.19604837766383 L 345.87391493842006,458.66858516290085 L 349.5554504599422,460.82684349649935 L 388.5516168344766,500.0 L 391.09060684219,498.7702545404609 L 393.0673918835819,497.213214884192 L 394.16459831781685,495.1720687794441 L 394.04671666026115,492.4650289840356 L 394.15553048439324,491.26723733652034 L 396.64011349342763,488.41716629688744 L 396.9121482297778,487.3967143720074 L 396.93935164250433,486.36264107821626 L 396.68545257113874,484.31272063957294 L 395.960026955232,482.25149650260573 L 395.92375562153757,481.358393405535 L 396.6129100807011,479.9608117942407 L 397.6557096019387,478.9859293422196 L 398.943340184167,478.12468048834126 L 399.9589362051338,477.11346460014465 L 400.1765638552606,475.6932413827453 L 399.2425783351064,473.439119724615 L 398.12723623402417,471.4122870012652 L 398.00028674304485,469.88765460593277 L 400.040546618402,469.1492076491704 L 401.41885544732213,469.42186409191345 L 404.9008988980204,470.6670083112258 L 406.6056492906064,470.65791958008776 L 408.5461631733924,469.642262182635 L 408.77285874448717,468.4403053021233 L 407.8207374699414,467.2542722571816 L 403.63140389323235,465.0821990647237 L 403.79462471976876,464.6005344118166 L 405.1729335486889,464.0825211800402 L 406.2701399810612,462.7443367038504 L 404.5200504232198,461.62427855542046 L 403.939709790051,460.94498147501145 L 405.05505188927054,460.5224117100297 L 405.79861326143146,460.5723929714586 L 407.3129394147545,460.96315650400356 L 409.03582547418773,461.0767509508005 L 410.77684728614986,461.5697527450393 L 411.7017649747431,461.64699752270826 L 411.75617197342217,461.2176083313243 L 413.7057535164058,458.69584694175865 L 415.0296555198729,455.14961800922174 L 416.04525145329535,454.5726044293842 L 416.4533034283668,454.94062046305044 L 416.8341519907117,455.7834291669715 L 417.75000202097,456.64214938654914 L 420.13483903743327,457.335039038182 L 421.7126399371773,456.70121518030646 L 424.5599359292537,453.6571153034165 L 426.2102794088423,452.7938847763289 L 427.85155505500734,452.2895808153262 L 429.1391857266426,451.4581678653194 L 429.72859419323504,449.6091005955823 L 429.5109664555639,442.54033596717636 L 428.6857946719974,439.0175425526977 L 427.01731552556157,436.45106414472684 L 424.50552893057466,435.4494778501976 L 424.01586662977934,434.67955929072923 L 424.0884091220796,433.72795893560397 L 425.16747997514904,431.84523021482164 L 425.5301927831024,430.88003594000475 L 425.39417545869946,430.0465712665464 L 424.2516299467534,426.8990104808472 L 424.47832551784813,425.84757858974626 L 426.636467050761,423.06350385810947 L 427.76994464173913,419.55742340363213 L 428.6404555924237,408.76756594126346 L 429.5925768688321,406.75596434020554 L 431.4242767505348,405.5889832081739 L 435.5592033267021,404.40385431420873 L 437.39997113123536,403.1824154681817 L 438.43370273150504,401.3298551259213 L 440.9817605726421,388.04061697470024 L 441.8613392692059,386.5106789272977 L 444.64516051486135,383.4100165850541 L 445.95999459922314,381.3126981446985 L 446.75796288251877,380.48649378377013 L 447.9549153074622,380.1687247148948 L 448.4989846069366,380.3548465142085 L 450.05864992924035,381.48974282626295 L 450.6661939751357,382.31595544487936 L 451.0017033703625,382.1570678903663 L 451.6727220751345,381.15381218030234 L 454.6197641454637,379.8464170602965 L 455.21824035793543,379.10193575627636 L 455.5718853343278,378.3256836401997 L 457.3582462258637,372.78768169891555 L 458.69121597521007,365.15752336083096 L 462.39088716357946,357.45982885558624 L 463.2160588596016,356.6519653258438 L 464.422079205513,356.5611944789707 L 465.70970978960395,357.94091893333825 L 466.5076780728996,358.0634611044661 L 467.3872567676008,356.86527709427173 L 467.8859869018197,352.494737437577 L 468.39378495514393,350.82008957050857 L 470.78768980689347,348.36035302843084 L 471.59472601115704,346.86275324592134 L 471.35896251909435,344.8705214889196 L 470.0622641015798,343.3139721993357 L 468.29403887689114,342.3065372184792 L 466.7071701437235,341.0812899474986 L 465.9364053606987,338.9121792621736 L 466.5076780728996,335.46346421868657 L 475.44855010323226,313.8997835798946 L 475.45761784911156,312.20070129435044 L 474.6324461530894,308.2854053430492 L 474.49642882682383,306.5773178131785 L 474.60524265281856,304.7626389930956 L 474.9679554607719,303.00469063053606 L 475.5936351735145,301.46678684584913 L 478.42279549874365,298.6314605208754 L 478.8671187199652,297.6538524439675 L 478.54067715629935,296.71254222482094 L 476.899401511997,294.634875571006 L 476.51855303533375,293.5665668283473 L 476.4278747905046,276.506351633725 L 475.90194115787745,274.60130466285045 L 473.1181199103594,268.7025938917941 L 472.4833724517375,267.70702130222344 L 471.5856580901891,266.86566466573277 L 470.7151472270489,266.4665318632324 L 468.87437951005995,266.0900778383657 L 467.9948007259518,265.64785875272355 L 465.9726766049862,262.63626115379157 L 464.1228410564363,255.5496688259882 L 458.9088437128812,251.28196120398934 L 459.2352852765471,248.16173757839715 L 460.75867926329374,244.59258436536766 L 461.67452929355204,241.10058464171016 L 460.56825502589345,237.5360794267326 L 457.77536603435874,236.2708293457399 L 450.55738014914095,235.53163620777195 L 448.7347479239106,234.41604832862504 L 445.742366861552,231.54093918859144 L 441.48955862782896,230.57048410948482 L 440.8910823278129,228.96515997202368 L 440.7459972575307,226.98799516638974 L 439.80294381454587,225.3781588395941 L 437.97124393098056,225.02898430544883 L 436.53852810151875,225.84070226291078 L 435.0876766052097,226.1808083629585 L 433.29224796779454,224.42133121017832 L 432.4308049399406,222.85232264958904 L 431.6963114012033,221.06565930353827 L 431.2429203465581,219.19738400939968 L 431.1885134354234,215.26134931726847 L 430.6716476343572,213.46566448145313 L 428.3956243544817,207.84288121509599 L 425.8657021801919,204.55541263797204 L 424.60527500882745,201.02312012613402 L 423.10001659952104,199.65374295701622 L 417.46889953687787,196.83338630365324 L 416.7434737458825,196.06255296245217 L 416.2084722779691,192.9429611140804 L 414.79389220289886,189.17953239069902 L 412.68108974955976,186.91242297063582 L 409.8428616784513,185.47054752236 L 406.2792077269405,184.18283870094456 L 403.68581089377403,182.40544365541427 L 402.1805523969233,179.7030904593994 L 399.7231728024781,170.0001241368882 L 397.5922347679734,167.28876308663166 L 397.2023184597492,166.49077257540193 L 397.29299670644104,164.87665847918834 L 398.28138922713697,161.67564487524214 L 398.036557989195,159.88924934822717 L 397.28392887301743,158.72854777035536 L 394.1283269841224,156.28019766398938 L 381.2248169500381,139.07841883055517 L 380.9527823869139,137.346462207468 L 386.3934752121568,119.29241950911819 L 386.4841534588486,115.9010448223271 L 381.3336308617145,71.29515058759716 L 382.15880264528096,41.47696107486263 L 112.29590127617121,41.47696107486263 L 110.89945686794817,42.166220227314625 L 107.79826180450618,42.94616933548241 L 104.49757484719157,41.22302310395753 L 101.16968438774347,40.17099191190209 L 99.90018938295543,39.50893579222611 L 96.76272307522595,36.18956208595773 L 95.64738106168807,35.26448357332265 L 93.53457860834897,35.92654989199946 L 91.62126831151545,36.135145806038054 L 87.19617150723934,35.727023226296296 L 84.50756238028407,35.26448357332265 L 84.01336603052914,35.49121883456246 L 82.90709185227752,36.4162965703581 L 81.81895333901048,36.51605962382746 L 81.00944629870355,35.83780701158685 z" /></g></g></svg>