<svg xmlns="http://www.w3.org/2000/svg" xmlns:xlink="http://www.w3.org/1999/xlink" width="460.3491200916469" height="500.0" viewBox="0.0 0.0 460.3491200916469 500.0" preserveAspectRatio="xMinYMin meet"><g transform="matrix(1,0,0,-1,0,500.0)"><g><path fill-rule="evenodd" fill="#D2EBD9" stroke="#A6A6A6" stroke-width="0.25" opacity="1" d="M 72.27396174520254,490.64432888571173 L 73.65198297053576,489.2919227122329 L 75.32617048174143,484.06272800825536 L 78.04505108296871,482.2535642310977 L 80.20586909353733,482.02610292378813 L 83.98730063065886,482.7084711380303 L 86.06775761768222,482.7498252117075 L 87.21959867328405,482.15017344476655 L 88.51430374756455,480.123492943123 L 89.85811825469136,479.7822249000892 L 90.71083771437407,480.2062226990238 L 92.67968227341771,481.97440646914765 L 93.7824137210846,482.5016978564672 L 95.46999479457736,482.42932630935684 L 96.55486830323935,481.71592001244426 L 97.48348432406783,480.8680364419706 L 98.7380088865757,480.3613393874839 L 99.41661283373833,480.61986151896417 L 100.48809286952019,481.9227097420953 L 100.99258138984442,482.1811908548698 L 101.6756498888135,481.82965486776084 L 103.18018643558025,480.3613393874839 L 105.98389242962003,480.9611004330218 L 108.479547906667,482.94625495932996 L 110.19838048145175,485.76820575771853 L 110.67161750048399,488.9096449865028 L 111.31896995007992,491.46132576605305 L 113.15834405273199,494.6938826641999 L 115.51560006290674,497.57440550252795 L 117.68981154635549,499.0814407640137 L 118.54253109544516,499.0091909109615 L 120.15868007391691,498.23505207011476 L 121.07836708053946,498.2247297950089 L 123.37758464366198,499.33947169268504 L 126.54737969487906,499.93807736458257 L 128.27960573881865,500.0 L 132.44051980227232,498.8337247367017 L 135.65049536153674,499.3910770290531 L 138.92743829265237,499.48396603390574 L 142.04812390729785,497.30600527022034 L 143.65087941288948,494.60094853211194 L 144.4812764748931,493.5579611118883 L 149.85653450340033,489.860145883169 L 152.53746682405472,488.56868200423196 L 153.99959054589272,487.5663891718723 L 155.2987600788474,486.30562845105305 L 156.09344109520316,484.95168071612716 L 156.3791691288352,482.9255783078261 L 156.1068345680833,481.88135208468884 L 156.20058915019035,481.2299468945712 L 157.5778873860836,480.3613393874839 L 158.45962611585855,480.1338342255913 L 160.13381363078952,480.04076238907874 L 161.06689419969916,479.45128698833287 L 162.29686395451427,477.6412729793228 L 165.49567818641663,473.95815562363714 L 168.0181207843125,471.7538302508183 L 172.62102028727531,468.80360418278724 L 174.05858928710222,467.32297991681844 L 176.14797537401319,463.7809965321794 L 177.3980353884399,462.0924061439 L 178.5543409064412,461.07703946437687 L 182.53444267436862,458.8283511879854 L 187.59495349228382,454.53678775019944 L 190.43437553569674,453.10584637057036 L 192.16213712096214,451.44652042072266 L 194.88994655758142,448.1685200650245 L 195.9882136285305,445.03471413161606 L 198.62226866185665,443.1248796787113 L 199.36784015595913,442.4085947945714 L 199.94152845069766,441.56767119653523 L 202.80550521239638,435.9596492620185 L 204.10467474535108,434.32855967758223 L 209.7634285762906,429.71430798526853 L 211.1496558263898,426.93846090789884 L 211.69878932088614,423.9225919134915 L 211.27466182038188,420.9369935891591 L 209.7634285762906,418.2002499769442 L 209.40403630584478,416.01445919740945 L 209.33260429650545,409.41243986645713 L 208.8102578409016,404.8070863261819 L 208.82811577618122,402.6286722156219 L 209.7634285762906,401.1170416283421 L 212.02693009376526,401.4506632932462 L 217.71247087419033,401.08576395502314 L 220.40456452593207,401.6383204604499 L 222.47162795439363,401.65917105274275 L 223.30648947879672,401.8780992301181 L 223.99848707392812,402.409761170391 L 225.21729550138116,404.1817548875697 L 229.91171735152602,407.33926212228835 L 231.16847405955195,408.5478020943701 L 231.86716834828258,410.1103438111022 L 232.7846231237054,413.56786685902625 L 233.90744491294026,414.9005560083315 L 235.5615421719849,415.0983612788841 L 237.67325066030025,414.6611020206474 L 239.61530826613307,414.5049331719056 L 240.74482674896717,415.54601091099903 L 240.88992299884558,417.4613000731915 L 240.58633694052696,421.6132552456111 L 241.0104645267129,423.4025192889385 L 242.36097573116422,424.7442496526055 L 244.1869562715292,425.17065197136253 L 246.00400780141354,424.6714472710155 L 248.42376689240336,421.8421331043355 L 251.56677490472794,420.0213635158725 L 252.9641633965075,418.8558904575184 L 254.88389843329787,416.48288469575346 L 258.9019484817982,412.8702137977816 L 265.2951125614345,405.63037731079385 L 266.5674950629473,403.7231526141986 L 267.03626761958003,402.0657479329966 L 267.3353890404105,398.45807849336416 L 267.93363205716014,396.7267489428632 L 268.893499661237,395.78794543398544 L 271.7641732022166,393.8996285311878 L 272.75529213249683,392.34487785073 L 273.9205266609788,388.1489201709628 L 274.67725939676166,386.3217458506115 L 276.02777068689466,384.7135431380011 L 277.478733163327,383.8153378982097 L 280.8717532493174,382.499210242182 L 282.4834377653897,381.49632422206923 L 286.5773843713105,377.7450135257095 L 288.2872878424823,376.65800680126995 L 289.59985085204244,376.4071414489299 L 290.7226726412773,377.03429238591343 L 291.8588879033923,378.6228898651898 L 293.4795014336705,381.8828657642007 L 294.600090906024,382.26939153671265 L 296.1448079608381,380.3470545154996 L 297.5399642214179,377.9226854480803 L 299.7610529959202,374.98544633574784 L 302.25224409624934,372.4760543629527 L 305.7524120658636,370.8132175710052 L 308.9422973692417,367.2146374620497 L 310.10529966652393,366.4612737442367 L 312.7081031985581,365.42530103446916 L 327.0190581642091,363.35301618557423 L 329.9946474432945,363.36348342197016 L 331.3027459047735,362.9447853676975 L 332.4277999252081,361.8037398615852 L 333.9546589590609,358.6206481596455 L 334.9457779750228,357.25913117686287 L 339.499568041414,353.57157877553254 L 340.76302152872086,352.219814769458 L 341.7898565046489,350.3647540942766 L 342.1514810100198,348.582714734599 L 342.28988056257367,344.46177115663886 L 343.46850856766105,341.4406999060884 L 345.821300201118,339.1637671221979 L 348.6562576107681,337.0962132383138 L 351.2635256908834,334.6292478782125 L 353.90204518288374,331.54200568795204 L 359.8398302681744,326.04756718315184 L 364.6302389316261,322.66315822070464 L 368.8804429396987,318.6675633909181 L 370.89393246918917,317.2476653512567 L 371.8627290017903,317.34233193146065 L 372.68866142630577,318.40463543124497 L 374.2601655200124,319.88745190156624 L 375.8897080607712,320.4763067360036 L 377.58621805906296,320.29755109967664 L 379.2336185351014,319.5614627348259 L 380.7113681361079,318.44670443283394 L 382.001608658582,316.2588685704395 L 382.7784315645695,315.55402410868555 L 383.6266865618527,315.22788416873664 L 386.47057315707207,314.9438174040988 L 387.95725167915225,314.4913971014321 L 389.2028471417725,313.9232103326358 L 391.66725120693445,312.21844304353 L 392.6762282475829,311.11333525087684 L 393.27000679820776,309.0395900462754 L 393.7744952328503,307.9446353400126 L 394.6673952899873,306.90220349561423 L 395.79244931042194,305.9123119805008 L 398.1809568181634,304.35881305485964 L 403.24369986727834,303.27384352497756 L 404.49822434410453,302.462667318061 L 405.0116419605911,301.0613786485046 L 405.1277189441025,297.4676381633617 L 407.59658747166395,291.5101457540877 L 411.98965549841523,284.9788800338283 L 413.0298840366304,282.12858458049595 L 413.61026902496815,278.6542625017464 L 413.8826034963131,273.50902816513553 L 414.2978020720184,271.77569749811664 L 415.0835539884865,270.4331999402493 L 417.28455259278417,268.4772444111295 L 418.18191711604595,267.2400209927 L 419.6462730653584,264.59582569729537 L 421.43207309767604,262.1624969067052 L 423.4768141247332,260.04603701410815 L 428.91903978586197,256.1504808263853 L 434.0174987986684,250.42059611715376 L 438.9016618691385,248.7676927819848 L 442.6205904111266,246.46796730021015 L 444.08494644612074,246.0121929156594 L 446.86632995679975,245.9909936352633 L 449.7325389496982,244.22067487752065 L 452.5183870084584,242.92717224359512 L 453.8443434908986,241.9516234435141 L 459.5767615623772,235.72475391905755 L 460.3491200916469,234.18594862846658 L 460.0723211579025,232.3178098439239 L 458.96512515842915,230.85275237774476 L 455.83551062271,228.3998484602198 L 452.3130199946463,223.90646053291857 L 446.5270280241966,219.65535895340145 L 444.1072689332068,217.05058085545897 L 443.40187795087695,215.18956916732714 L 443.1786529123783,211.36000664159656 L 442.59826792404056,209.47654733713716 L 441.64732933044434,208.34841328393668 L 431.1245027706027,201.29972790693864 L 428.16900374367833,198.7003425466828 L 425.7313867136836,195.40742864226922 L 423.54378167167306,188.01799579150975 L 423.60628466680646,180.39832271449268 L 425.5170906893909,164.8615874000825 L 423.5482462197542,147.7765471469611 L 423.3026986978948,138.50316702062264 L 425.7313867136836,134.2438370618038 L 427.49932872131467,134.2438370618038 L 429.04404577985406,134.54430980514735 L 430.46822122111917,134.5335787953809 L 431.87453872710466,133.53553969739005 L 432.7049357891083,131.83969054510817 L 433.32550128921866,130.0146824354306 L 434.39251677691936,128.8443335974589 L 437.1733760982752,129.01102152792737 L 435.6824754849076,127.98162873089314 L 434.090019967407,126.54402354173362 L 430.9683853238821,122.68671227898449 L 429.05603251233697,119.25094403047115 L 427.97330337017775,115.63603045325726 L 426.2507797293365,106.99491202039644 L 424.59856316819787,101.78075290471315 L 424.14156705886126,97.01325681153685 L 423.31897416710854,95.51970445225015 L 420.29576936736703,93.40623607393354 L 418.84744335711,92.07338758464903 L 414.6360488794744,86.62954140454531 L 410.00281174853444,83.0692665153183 L 408.4982401281595,81.28433920489624 L 405.41878962516785,75.16183962440118 L 404.61377354711294,74.08996399864554 L 404.4133983440697,72.95839786855504 L 402.54674511030316,66.94078287202865 L 403.9493715427816,63.12550412956625 L 403.8439109250903,61.251321856398135 L 400.3109797462821,60.14366211788729 L 392.31706388294697,55.64341908460483 L 385.9296649992466,51.10674162581563 L 372.7646628655493,38.18306434992701 L 371.71357192099094,36.7649038140662 L 371.3550057411194,34.97051461413503 L 371.39367462694645,33.355248004663736 L 370.9261324815452,32.18420607689768 L 363.072830863297,30.40597233362496 L 361.09720166400075,30.252069716807455 L 361.4487371519208,31.1412476436235 L 361.97604025527835,31.825168917886913 L 363.459519803524,33.175755482167006 L 362.30648358538747,34.35521031310782 L 361.8916717916727,35.14997013984248 L 361.6877812407911,36.04719251440838 L 361.8283954039216,37.354408260434866 L 362.91815523430705,40.35257418779656 L 361.64911226928234,41.63352726120502 L 359.3114016316831,42.64107821788639 L 356.84010752663016,43.247260433621705 L 355.14219138771296,43.28994772909209 L 356.1124291308224,42.57277332386002 L 359.3289784453809,41.1382477148436 L 358.63645359128714,39.82305859681219 L 357.230311896652,38.37953828508034 L 355.6167642213404,37.24334523640573 L 354.2879602126777,36.7649038140662 L 353.75714176520705,36.06428152322769 L 353.74308029934764,34.637230195105076 L 354.38287479802966,33.534736930858344 L 355.7855012342334,33.765502819791436 L 355.662463799119,34.58595445565879 L 356.94908349215984,34.303932913113385 L 358.5450543537736,32.953521511517465 L 359.3289784453809,30.63682131189853 L 358.64348428323865,29.302942923270166 L 357.0545441098511,27.968859801068902 L 336.7006422765553,17.023356253281236 L 331.33621149137616,15.481832437682897 L 328.5450201779604,13.126197171397507 L 326.780312217772,12.303715460468084 L 323.10325153544545,11.164106478448957 L 308.1348726451397,3.9202263415791094 L 306.3209497630596,3.6028999644331634 L 304.59139543026686,2.9682123623788357 L 302.38023748621345,0.3689373950473964 L 300.7139595448971,0.0 L 301.3010236918926,1.7330108769237995 L 301.30453903600574,2.1619202494621277 L 300.4010930284858,3.5600171368569136 L 299.23399533703923,4.7349298489280045 L 297.6942700892687,5.523832669947296 L 294.28086100146174,5.969702455680817 L 294.0734551027417,6.381254146806896 L 294.15430822223425,7.049983853474259 L 293.5848208889365,7.984404228627682 L 291.9220582023263,9.021578336134553 L 290.0413436740637,9.424414130859077 L 285.9248636960983,9.218713100533932 L 277.9801627546549,7.34146524220705 L 274.6546375602484,7.984404228627682 L 272.3872339166701,10.238599428441375 L 267.91218784451485,16.286884642206132 L 264.5726011842489,18.11082198098302 L 256.68824945017695,18.74670809926465 L 253.10878171771765,18.36140106106177 L 248.65630755200982,19.542856451589614 L 245.14688798040152,21.1647582706064 L 241.264683611691,20.251229743473232 L 237.22866003215313,21.971782183274627 L 231.78109811246395,20.086466539651155 L 228.7100047841668,20.98393870331347 L 222.94448674470186,18.993038977030665 L 220.32547625154257,17.897386430297047 L 214.681391146034,14.116462707985193 L 210.394527759403,10.989714005496353 L 204.7286209911108,7.62995391106233 L 201.65613440051675,7.902400278951973 L 199.02681571245193,6.3840976702049375 L 197.7949294038117,5.5924295503646135 L 197.2595826499164,3.395772234071046 L 195.42791276052594,6.015794479753822 L 193.94021392986178,6.312461345922202 L 192.34265265241265,6.925130398478359 L 193.06326242908835,7.87296487018466 L 193.16744883731008,9.051910869777203 L 192.20550148561597,9.885468629654497 L 190.8265085555613,10.07901814300567 L 190.31181913986802,8.485091886483133 L 188.59876239672303,7.084276310168207 L 185.86536356806755,7.3680061674676836 L 183.853033952415,7.084276310168207 L 181.13214963302016,9.424414130859077 L 175.93294051289558,12.500775506719947 L 174.59359055757523,13.734440727159381 L 174.3932153508067,15.293405237607658 L 177.32352397590876,18.066210551653057 L 179.53225184977055,18.616895702201873 L 178.25034085288644,20.07985156821087 L 172.00303284823895,22.652036948595196 L 168.83622225746512,23.148637428414077 L 165.78164423257113,23.014987168833613 L 163.92800537869334,21.731870765797794 L 162.53592497855425,21.937275054864585 L 161.1895442456007,22.57913217553869 L 157.96244898065925,24.632756059523672 L 156.44381588697433,25.35140966856852 L 154.90319335833192,26.398075480479747 L 149.09907951951027,28.038112291134894 L 142.03685933724046,28.936065888032317 L 135.24622900411487,31.910655284300447 L 133.79438764601946,32.970616593491286 L 132.63080530241132,35.551595407538116 L 131.28442456573248,36.841797965113074 L 128.4229261726141,38.91768326703459 L 126.37480500340462,41.26875799987465 L 124.57437676563859,43.04998751031235 L 122.98729111254215,44.30644994741306 L 120.66075528040528,45.771368806716055 L 119.39005745202303,46.92472011921927 L 119.52204886451364,48.35971392551437 L 118.95959213748574,49.084944915026426 L 117.16676141694188,50.44139182055369 L 115.54266770556569,52.30083236610517 L 113.9818503819406,53.648253151681274 L 111.22253631055355,54.911197130568326 L 106.79627190157771,55.839262711349875 L 99.11068370565772,56.02162728877738 L 94.37777672708035,55.69408499263227 L 92.80038449540734,57.0578305516392 L 88.8065636344254,56.94625673489645 L 86.59959758073092,55.577148171141744 L 85.54936815053225,56.94285757327452 L 83.34351250901818,57.15201079798862 L 77.8790627643466,54.63025714550167 L 75.15233713015914,57.4701346619986 L 72.94742585718632,57.57811938971281 L 70.42644796893,57.056620666291565 L 66.95809003338218,55.48682674439624 L 62.122089613229036,53.60767366737127 L 60.54668287187815,53.823058559093624 L 58.33679015934467,52.46321021253243 L 55.81520838290453,52.68305958993733 L 53.29187360033393,52.37790563562885 L 50.45431808382273,52.81191840674728 L 51.29833601042628,53.648970710579306 L 50.56719021871686,55.23079393198714 L 48.1506358012557,55.98061328334734 L 46.58081551268697,58.515283501241356 L 46.80459666252136,62.72275789733976 L 44.63093922287226,65.09296440938488 L 42.90490014851093,67.96245086658746 L 36.4964091964066,75.61266891332343 L 33.656002786010504,76.98202745663002 L 32.65412684902549,78.58076042309403 L 31.30774611234665,81.99835346965119 L 29.785597674548626,83.47719912137836 L 27.64474681019783,84.37798339035362 L 25.352735750377178,84.80284963641316 L 23.34898378700018,84.92180853616446 L 21.007757805287838,85.39762808242813 L 19.925028663128614,86.62954140454531 L 18.92315263673663,90.55352509301156 L 17.928307306021452,92.76955008134246 L 10.612854912877083,103.43435519235209 L 9.030945431441069,104.80788237694651 L 5.782757919281721,106.783014183864 L 4.366070106625557,108.06280010053888 L 3.16733430698514,110.07109829969704 L 2.5345704965293407,112.20600539352745 L 0.40778110176324844,124.41255809227005 L 0.0,133.3917108620517 L 1.1741283796727657,142.2774132010527 L 0.08788389340043068,148.64907011343166 L 0.5308185331523418,151.10369068337604 L 1.7084622606635094,153.12761419359595 L 4.664875239133835,157.0560950008221 L 5.251939471811056,159.2977617555298 L 4.707059558480978,161.31983818300068 L 2.3131032213568687,163.34145965240896 L 1.764707874506712,165.3794678132981 L 2.3131032213568687,167.2654770128429 L 3.6419071443378925,168.9238281780854 L 6.752995751798153,172.01242956332862 L 7.65644184499979,174.0821255641058 L 7.786509972065687,176.45411953656003 L 6.33466861397028,185.41496497159824 L 6.257330842316151,189.7828869940713 L 7.600196145474911,193.0910247452557 L 11.150704137980938,194.41729902708903 L 19.179773457348347,193.93046141136438 L 22.888472333550453,194.24942695582286 L 26.055806640535593,195.82730182120577 L 29.303994063287973,198.87316648103297 L 30.724197309464216,200.73542279563844 L 31.30774611234665,202.47150684008375 L 31.451875619590282,204.86122466716915 L 31.852626029402018,206.7138715046458 L 33.135730374604464,210.59398512542248 L 33.76849418506026,214.7236922918819 L 33.02323906123638,217.80509349657223 L 31.286653954535723,220.26611708151177 L 27.549832228571177,224.23249237425625 L 26.660447601228952,225.93900987831876 L 26.196420799940825,227.82082870975137 L 26.055806640535593,229.96981010958552 L 26.221028305590153,234.600528747309 L 26.062837328761816,236.94007343426347 L 25.41601213812828,238.72775144549087 L 26.055806640535593,239.49617874389514 L 25.324612986296415,242.13506929157302 L 24.375467229634523,249.29633434209973 L 23.34898378700018,250.76462227432057 L 22.65645893290639,252.38280450366437 L 20.902297098189592,260.08612157870084 L 20.703012261539698,262.64921402046457 L 21.546802800148726,263.76010253001004 L 23.707620806992054,268.3080613259226 L 29.181097883731127,276.2985859657638 L 29.618618857115507,279.40415037656203 L 28.72125442326069,282.3819796582684 L 22.8191852979362,290.318189278245 L 21.841459844261408,292.48047528928146 L 22.332554802298546,294.5684501393698 L 24.2388963624835,297.7206155224703 L 25.145189810544252,301.66195679362863 L 25.404130894690752,306.24930805014446 L 25.08268690109253,310.59757362212986 L 24.2388963624835,313.7864195080474 L 21.515551302582026,316.9005465051159 L 20.453000277280807,318.95151711208746 L 21.02445625513792,321.04409607872367 L 23.39064136520028,323.7458814759739 L 24.752313807606697,324.765419150237 L 26.65419090539217,325.59568257210776 L 30.748137425631285,326.41536427056417 L 32.83752351254225,327.2559890379198 L 33.734887950122356,328.7163956533186 L 38.94049509987235,344.388353719376 L 39.72178255394101,348.8552836701274 L 39.09675259143114,353.3829720877111 L 36.806463953107595,356.27452760282904 L 33.5697015337646,358.7882058764808 L 31.45799295976758,361.3849730347283 L 32.5517954826355,364.5148072852753 L 34.19473149627447,365.8962116725743 L 37.444887563586235,367.884244017303 L 38.80209554731846,369.06640265882015 L 39.64142153412104,370.9701013993472 L 40.07001358270645,375.5604221667163 L 40.864694599062204,377.6404990046285 L 43.52107211574912,380.09628629591316 L 45.3158011585474,383.91978474054486 L 46.15512714534998,385.0790675249882 L 46.16405615583062,387.6999897416681 L 45.58367108181119,392.1883454336785 L 46.68193815276027,396.64330346276984 L 48.86507864668965,400.01183667685837 L 50.4633696898818,403.4521501045674 L 49.76690763235092,408.1623359499499 L 46.12387564778328,413.5470422003418 L 45.58367108181119,414.70274657197297 L 46.25334610417485,416.48288469575346 L 47.8650307059288,417.5757889347151 L 51.539314188063145,418.54368634009734 L 53.53941024467349,418.30432291608304 L 54.610890191048384,418.7101964280009 L 55.570757795125246,422.6535654566251 L 55.5796867236495,427.9054195471108 L 55.07519828900695,432.2191636878997 L 53.69120318442583,438.3798048584722 L 52.97241872549057,440.6228428776376 L 51.04375467821956,444.8167628888041 L 49.76690763235092,446.7573948693462 L 47.82485019415617,450.64786902675405 L 47.48108362779021,454.5678928778507 L 48.57488615065813,458.1754091302864 L 50.95000018551946,461.1392076932825 L 67.95974541082978,476.78269233414903 L 69.83037101104856,479.9890554761514 L 70.46432998403907,483.88699525920674 L 69.23659245669842,488.1863761730492 L 68.84645267575979,490.3869371181354 L 72.27396174520254,490.64432888571173 z" /></g></g></svg>