<svg xmlns="http://www.w3.org/2000/svg" xmlns:xlink="http://www.w3.org/1999/xlink" width="499.9909723531455" height="325.62355418875813" viewBox="0.009027646854519844 0.0 499.9909723531455 325.62355418875813" preserveAspectRatio="xMinYMin meet"><g transform="matrix(1,0,0,-1,0,325.62355418875813)"><g><g><path fill-rule="evenodd" fill="#D2EBD9" stroke="#A6A6A6" stroke-width="0.25" opacity="1" d="M 460.31163300201297,104.49015264492482 L 460.43501027673483,104.09545459598303 L 459.775994990021,101.66967371292412 L 459.4901207908988,101.20087199937552 L 459.03874045982957,101.11261336971074 L 458.2924583423883,101.34013063274324 L 457.10382351092994,102.06204137764871 L 456.81794931180775,102.60949318297207 L 457.29039405472577,103.174725770019 L 458.02163014374673,103.2139825746417 L 459.5864152684808,104.26235939189792 L 460.31163300201297,104.49015264492482 z" /><path fill-rule="evenodd" fill="#D2EBD9" stroke="#A6A6A6" stroke-width="0.25" opacity="1" d="M 436.245538873598,113.9573324713856 L 433.0648122075945,113.78191807400435 L 428.9151224642992,112.50116287916899 L 426.4385490901768,112.47752414178103 L 425.2649602610618,113.32274361606687 L 424.3561812173575,116.70836387388408 L 423.582816272974,117.97936466429383 L 422.9388470146805,118.24982923734933 L 421.19952817074955,117.9635719684884 L 419.13822468183935,118.78886888269335 L 419.53243018500507,120.11819229461253 L 418.7199455909431,121.29204392898828 L 418.62666034698486,122.2765951147303 L 419.0870682671666,123.01822297926992 L 419.95221389457583,123.5800248729065 L 422.2361983116716,124.165695682168 L 423.62494510039687,126.14332147501409 L 424.900846818462,126.65430739056319 L 426.29410740174353,128.24535338953137 L 428.91662705130875,130.434407918714 L 429.64034016802907,130.66452594753355 L 429.8901039529592,131.15260338131338 L 430.3414842542261,131.43835042230785 L 430.66045972146094,133.0701013011858 L 429.5470549259335,133.71753190550953 L 426.8839110080153,134.33731235843152 L 426.4280169121921,134.92942262161523 L 426.3573006410152,135.5912385303527 L 426.6311380453408,136.07826965115964 L 427.2119140326977,136.1418887525797 L 428.2245105840266,135.25732798781246 L 428.79776357114315,135.0426942659542 L 428.8549384009093,135.75423451326787 L 423.3029604572803,142.11523355264217 L 421.30184103176,144.17262221779674 L 420.0048749279231,144.7151570422575 L 418.909525340423,144.423929088749 L 418.10456374660134,140.35621026717126 L 416.4886222053319,138.4591023698449 L 414.3806761261076,137.18387715425342 L 411.3594371788204,135.98085599206388 L 408.6060171928257,133.85458576492965 L 403.2391052059829,132.1627828022465 L 402.5981451533735,131.84122857637703 L 400.10502116009593,129.1790418839082 L 399.3256378043443,128.93914460856467 L 398.4288955554366,129.2722311206162 L 398.0617729090154,129.6073440592736 L 397.228223901242,130.92045737989247 L 395.82894490659237,132.10323271062225 L 394.6944757271558,133.87643562443554 L 394.03546044044197,134.49426784738898 L 393.10561698302627,134.58566407952458 L 391.89892691746354,135.57136169355363 L 391.37231658026576,135.63099266774952 L 389.9610007610172,135.06057972367853 L 388.8054671101272,133.7512981100008 L 388.357096016407,132.75041847117245 L 388.1524702645838,131.59909716341645 L 388.3360316026956,128.14625567384064 L 388.2156635336578,127.62704632245004 L 387.7973844129592,127.37144375033677 L 386.02947815321386,127.22284931596369 L 384.98678962886333,126.50377383176237 L 384.9747528042644,125.71163751743734 L 386.1483416631818,123.72445153165609 L 386.77124647796154,121.5687873242423 L 388.12839664518833,118.7908436153084 L 388.31346260011196,117.94383131153882 L 388.09830461256206,116.0730983139947 L 387.16093815490603,115.91134759131819 L 386.0400103889406,116.34139014128596 L 385.2756730336696,116.24472296796739 L 385.3960411027074,115.11654946766794 L 387.5145194195211,113.20451443269849 L 387.5145194195211,112.30221022013575 L 386.42067444883287,111.79800268169492 L 384.97174359858036,111.84526794590056 L 382.35373774170876,112.63314984273165 L 380.4323621764779,113.6065156282857 L 379.76883309334517,113.71687982603908 L 375.0323489494622,112.9798939768225 L 373.44048099964857,112.15645258873701 L 372.7588967382908,112.06585065554827 L 371.0722389277071,112.36130347941071 L 370.4252604637295,112.30221022013575 L 367.6206840630621,111.55775086488575 L 367.0128252506256,111.1304729161784 L 367.7651257812977,110.29581078886986 L 369.0681102965027,109.47519101202488 L 370.0972574390471,109.07776604034007 L 377.1899468880147,110.46705206111073 L 378.54709702543914,109.48502903059125 L 378.82996201887727,108.36963516660035 L 378.78482401557267,107.81506781093776 L 378.54709702543914,107.34908700548112 L 377.8850725609809,107.2409599730745 L 375.76659427396953,107.57518537156284 L 375.17679063789546,107.38447501976043 L 374.144634321332,106.4802664173767 L 373.7684840261936,106.36038418766111 L 373.1064595617354,107.5496254619211 L 372.6490608472377,107.91928595397621 L 372.2714059650898,107.21933510061353 L 372.3330946173519,106.87729312013835 L 372.8506773933768,106.46061322372407 L 372.9499810785055,106.17172825429589 L 372.8882924262434,105.39170309901237 L 373.0763675291091,104.65315492171794 L 375.6402077637613,101.10476833023131 L 375.7380068600178,100.26156143471599 L 374.4997201729566,99.74204683117568 L 373.8331818841398,100.77529682498425 L 373.3893245551735,102.41718515008688 L 372.7965117432177,103.72044884413481 L 372.1886528991163,104.14257958997041 L 371.9885409716517,103.84609919600189 L 372.0923584513366,103.13546952139586 L 373.02521111257374,100.92237713839859 L 373.0176881123334,100.389005436562 L 372.664106849581,99.66167830582708 L 372.14953327924013,99.47154816612601 L 371.88171428628266,98.28207967430353 L 371.6861161533743,98.03523998055607 L 371.2949198875576,98.23701988440007 L 370.5185457356274,99.50682897493243 L 370.04008258134127,99.86946531478316 L 369.050055090338,98.98550525121391 L 368.32483735494316,99.17168034613132 L 368.0239171553403,98.35652800928801 L 367.73202454298735,92.250995866023 L 367.5725368540734,91.34225803706795 L 367.18434976413846,90.59791462309659 L 366.48320567794144,89.85768860857934 L 365.2404051683843,89.06300880108029 L 364.8461996950209,88.49692218564451 L 365.15915671922266,87.77485132403672 L 362.79542844183743,87.03347213286906 L 361.349506797269,86.89692516252398 L 359.9216403886676,87.00031004473567 L 357.5428661108017,87.85485478676856 L 353.18554140999913,87.98950026649982 L 343.2371191140264,90.57642752956599 L 341.8709413576871,90.60572816152126 L 340.7891331836581,90.25609561055899 L 338.0793466717005,88.31150662247092 L 335.75172881036997,87.94461767096072 L 335.175466587767,87.38072360958904 L 335.3770831339061,85.70926638320088 L 335.27777947857976,85.57278835121542 L 334.8775555640459,85.35833718534559 L 333.6859115269035,85.40707455016673 L 333.4180925358087,85.0639827977866 L 333.05397906526923,83.61218753643334 L 332.8297935463488,80.70710988342762 L 332.2414945010096,78.19209837634116 L 331.4771571457386,78.10072398651391 L 331.06489646434784,77.68860668689013 L 330.95506057329476,76.88982692733407 L 331.17021856084466,75.39592282380909 L 331.9887215383351,74.63181393314153 L 335.5064788199961,73.37302157096565 L 337.87472092173994,73.28375457134098 L 339.0242361314595,72.8200026396662 L 339.54482808336616,72.07991458009928 L 340.4144875071943,72.08864311594516 L 340.6808019094169,71.632858206518 L 340.7349675614387,71.11898222751915 L 340.40395529940724,68.21019329410046 L 340.54990160651505,67.28841941151768 L 341.08253038302064,66.75796380732208 L 344.8049134463072,66.15116760414094 L 345.5873059798032,66.16471496690065 L 348.19628427550197,67.11223444715142 L 349.0238148421049,67.2187184439972 L 349.74301416426897,66.91379833128303 L 350.1913852877915,66.47729122452438 L 350.66984841413796,66.38632093463093 L 351.6388115212321,66.92057393398136 L 352.1052378229797,67.00091476924717 L 352.58671018481255,66.91379833128303 L 353.0320720747113,66.37083696294576 L 354.01457659341395,64.18849860783666 L 354.86016239598393,62.93465920165181 L 355.1505503896624,62.18090024776757 L 355.11744918115437,61.35684179700911 L 354.85865777917206,60.73486122582108 L 354.05219162628055,59.83305457606912 L 353.5586824696511,59.5415293443948 L 352.3610200211406,59.41797859594226 L 352.03602617047727,59.215290564112365 L 351.9367225151509,58.40662248805165 L 352.3249095771462,57.35321307275444 L 352.3038451913744,56.93370162975043 L 351.4176351502538,56.18163945898414 L 351.1889357790351,55.61965957097709 L 351.65686669945717,53.54242164734751 L 351.69899552688,49.83130845334381 L 352.62282060086727,48.258333479985595 L 352.9478144198656,45.96782568376511 L 353.2246610298753,45.44159266166389 L 354.3651486225426,44.34432526025921 L 355.44244300201535,42.366919732652605 L 355.94046595320106,41.85481599718332 L 357.4495808389038,41.00344348978251 L 359.76064808294177,38.93557629361749 L 360.46480137482285,37.80936178192496 L 360.59419706091285,36.381201496347785 L 360.1187431104481,34.21169081516564 L 359.3965346124023,32.16812830325216 L 358.26206540316343,30.431644469499588 L 357.33523115329444,28.05700470879674 L 356.4324704930186,27.581944685429335 L 355.07532035559416,27.39690367691219 L 354.1680459007621,27.087894150987267 L 353.651967741549,26.55770057812333 L 352.41217646561563,22.79401311185211 L 351.55455383844674,21.10443004593253 L 349.4330663457513,18.13520713057369 L 347.86226280778646,16.629005879163742 L 346.3621755409986,14.718228411860764 L 345.120879676193,12.556443336419761 L 344.30538587644696,10.299683184362948 L 344.1925408076495,8.758947035297751 L 344.77030761912465,5.863641645759344 L 344.8711158912629,4.321607350371778 L 344.3851297646761,1.7654364304617047 L 343.70354547537863,0.13598062191158533 L 343.57114055380225,0.8188180066645145 L 343.2295961137861,1.3062575664371252 L 342.71502254344523,1.6180373765528202 L 342.1116775237024,1.769216002896428 L 340.70337091200054,1.769216002896428 L 339.4124232195318,2.519562733359635 L 338.2222837433219,2.268164360895753 L 337.6369939316064,1.3893953952938318 L 337.32253231853247,1.2703579226508737 L 336.84557377919555,1.695515370927751 L 336.2963943835348,3.2086630072444677 L 335.6268469169736,3.5405135303735733 L 335.0219972804189,3.372219647280872 L 333.52943301573396,1.996944485232234 L 332.3663763925433,1.2590212719514966 L 330.28250390291214,0.8509334549307823 L 329.17210831306875,0.12842599395662546 L 328.5221206434071,0.0 L 327.8706283867359,0.265357312746346 L 327.03256561234593,2.132078582420945 L 326.4457711838186,2.672681238502264 L 324.56802906282246,3.5405135303735733 L 323.812719296664,5.686689494177699 L 321.1495754085481,7.291030301712453 L 319.7442780006677,7.321327752433717 L 317.0690973158926,6.687991209328175 L 313.2609520126134,6.518558188341558 L 312.0708125643432,5.789831346832216 L 310.92280194349587,5.8901381297037005 L 308.9984171707183,6.70786948967725 L 308.3002822622657,6.789277412928641 L 306.98977474682033,6.55074021499604 L 306.2690708357841,7.109252645634115 L 306.33226407691836,7.780564336106181 L 307.7766811028123,9.725359309464693 L 307.66233141720295,10.311057126149535 L 306.62716589309275,11.304565300233662 L 306.2299511861056,12.345860158093274 L 306.3382824584842,13.65610215254128 L 306.97623336315155,16.131239354610443 L 307.0875738132745,17.59439953416586 L 306.85586523637176,20.481214788742363 L 306.9672057144344,21.925769614055753 L 307.9813068546355,23.742542922496796 L 309.59423919022083,25.85125456377864 L 310.66401056945324,27.944432778283954 L 310.0396011080593,29.71464288700372 L 309.0510782059282,30.422095900401473 L 307.99635288491845,30.934900008141994 L 306.8829480614513,31.23957264237106 L 304.6561385001987,31.252944638952613 L 303.75036866404116,31.526129919104278 L 300.79834133945405,32.91445183940232 L 299.44420037791133,34.62957833148539 L 298.5895869862288,35.445458059199154 L 297.63867911696434,35.887455930002034 L 295.7504047304392,36.42713589221239 L 293.94638805650175,37.881172673776746 L 293.1278850790113,38.31303564365953 L 291.2050049249083,38.62333025038242 L 288.27103283815086,40.046929435804486 L 287.28702373057604,40.13509086705744 L 286.4564839284867,39.7958768568933 L 284.29738140292466,38.234509982168674 L 282.30077580176294,38.07172006275505 L 280.33576679229736,38.72868531476706 L 268.72325574606657,46.60751061607152 L 262.09699259884655,52.66037327237427 L 260.1410112362355,53.893010820262134 L 255.85590739361942,55.409549995325506 L 252.11546912416816,57.57890862226486 L 245.9842197522521,62.76552801113576 L 243.45197616703808,66.05924087483436 L 242.75985966995358,66.49084021523595 L 241.88117265887558,66.38632093463093 L 239.6272802427411,65.25429252721369 L 238.87497971206903,65.09178447630256 L 238.01434787921607,65.25429252721369 L 237.1416792795062,65.71188341919333 L 225.16505473479629,74.30856634210795 L 223.39564388804138,76.13596981856972 L 220.26607366651297,80.52224376238883 L 218.4184235483408,82.28581206034869 L 192.66868084296584,100.71254507545382 L 190.6720752120018,102.59183164220303 L 188.58218433894217,105.23258319683373 L 187.75465374439955,108.38536928780377 L 187.67340526729822,109.25876390468329 L 188.200015662238,111.46126257628202 L 188.08566597662866,112.2726640785113 L 187.19193296320736,114.21949075348675 L 186.94367376714945,116.76755803544074 L 185.95515089295805,118.97054869122803 L 185.68432269617915,121.29204392898828 L 185.4029622618109,121.63600089680403 L 182.99560056999326,123.02613480202854 L 181.61287219449878,123.44154117070138 L 180.98394893854856,123.91835219599307 L 180.38812691904604,125.48592345044017 L 179.30481412820518,126.93757211510092 L 178.91211324371397,127.74792156834155 L 178.3117774296552,130.10513704642653 L 177.02082970924675,131.6923745824024 L 176.70185430161655,132.20049859397113 L 176.4701457247138,133.02045847661793 L 176.13612428493798,134.7744275070727 L 174.89482839219272,138.76556976418942 L 175.11450014449656,139.0541604468599 L 174.79552473686635,143.12777110747993 L 172.41223663464189,147.37365677580237 L 171.84349744208157,147.99876853637397 L 165.33459321595728,152.81309763155878 L 162.8008450139314,153.91199943143874 L 159.9691857881844,154.66288997419178 L 158.8949006125331,154.7850559167564 L 158.2419037669897,154.46263069659472 L 157.84769826568663,153.64773901365697 L 157.5648332722485,152.28483390435576 L 156.85165236145258,151.87470517959446 L 156.29795917123556,150.66071340348572 L 155.47945619374514,149.7570973802358 L 154.4743826724589,149.24745614267886 L 153.36398711241782,149.20948694553226 L 152.18137063644826,149.6931367693469 L 149.18420533649623,151.8326957076788 L 146.94535892270505,151.55265062954277 L 146.58124548196793,152.34085664432496 L 145.64237440750003,151.00865156855434 L 144.2521230019629,152.45690769981593 L 142.21489316225052,152.95118474960327 L 136.3499581925571,152.59497538022697 L 132.83521008864045,151.41263966821134 L 131.08686365559697,151.36863788962364 L 130.07276251539588,151.66066434141248 L 129.2362043596804,152.2648260947317 L 127.65637323260307,153.8559418488294 L 125.89899915270507,155.153592296876 L 119.91068690828979,158.24420254211873 L 119.09218393079937,159.0585727635771 L 118.89056738652289,159.97756229061633 L 119.25468082726002,163.09418715909123 L 119.8625396694988,164.30412339698523 L 120.35905803181231,164.74442729912698 L 121.56273886375129,165.34971974231303 L 121.96296274848282,165.8404956255108 L 121.69815296307206,166.55571161024272 L 119.76022680848837,169.31386517267674 L 118.86348455958068,171.04781879857183 L 118.59867477416992,172.40982826054096 L 119.34796609915793,173.4850381379947 L 120.14841386862099,174.0409796256572 L 121.06020211800933,174.11968912929296 L 122.15555170550942,173.77257864363492 L 123.72936441935599,172.8767717052251 L 124.18676316179335,172.9393063634634 L 124.52379377745092,173.44670186471194 L 124.46962815523148,174.00162582099438 L 123.83167731016874,174.99171378090978 L 122.04421122558415,176.162965872325 L 120.60882181674242,178.1513116043061 L 119.75119918957353,178.8912831544876 L 116.69084059260786,180.0532383332029 L 115.18022111803293,179.99861738458276 L 114.76495123282075,180.18574980739504 L 114.44296661764383,180.74116040579975 L 114.48810462281108,181.2582384236157 L 114.8161076772958,181.64383998606354 L 117.08504609391093,182.46483346354216 L 116.99477002769709,184.01239733584225 L 116.4230216294527,185.94009416457266 L 116.69084059260786,187.75970143079758 L 118.24358889274299,188.7065455140546 L 118.34289257787168,189.365388401784 L 117.98780672624707,189.87816826906055 L 116.02279774472117,190.79026409238577 L 115.00267822109163,191.71692284289747 L 114.19320283457637,192.9855433003977 L 113.27539617195725,193.99643147177994 L 111.95435644872487,194.14494673348963 L 110.65438110940158,193.98625952377915 L 108.12665131874382,194.21615588199347 L 101.97283294424415,193.26517436094582 L 100.4682318829,193.30991823412478 L 99.74000494368374,193.5906029054895 L 98.5784529093653,194.84593698568642 L 97.89536406099796,195.0830365968868 L 96.4118274115026,195.24586495012045 L 95.57526919804513,195.70285910367966 L 95.1900913156569,196.40429044887424 L 94.84403308108449,199.41588239371777 L 94.56718647107482,200.1713933115825 L 94.1549257915467,200.8363524172455 L 92.30426646582782,202.77309668343514 L 91.60312238149345,203.21719050128013 L 90.8598494399339,203.13755403179675 L 89.17469624616206,202.4954510005191 L 88.32008282467723,202.44543725252151 L 87.02311672084033,202.67918361723423 L 84.97685926221311,203.6062211636454 L 83.02689625509083,205.42148732673377 L 76.7617374304682,212.83228219300508 L 76.05156572535634,213.24231356661767 L 75.51291850581765,212.34238449577242 L 75.11570385657251,208.97723428159952 L 74.49881739541888,207.82517050672323 L 73.29513653554022,207.46717876009643 L 71.79956309124827,207.56127440556884 L 70.30699882470071,207.91109626181424 L 67.16539181023836,209.18806100822985 L 66.45522007718682,209.21160103473812 L 63.2684750277549,207.6073007285595 L 62.73885542713106,207.20536630321294 L 62.46802725829184,206.62763657048345 L 62.633533358573914,205.86605839058757 L 63.17819896154106,205.3744799401611 L 66.8253519590944,203.65319489501417 L 67.85148986428976,202.8486380437389 L 68.74823211319745,201.46782125812024 L 69.52460626326501,199.62691280711442 L 71.68521340563893,196.10292547382414 L 73.18981446698308,194.40232649818063 L 73.32221936061978,194.05542960762978 L 73.21990649960935,193.73502548318356 L 72.85880223475397,193.51534375548363 L 70.9870784971863,193.23060010187328 L 70.5116245765239,193.35262906365097 L 70.16857551969588,193.88250797893852 L 70.43338533490896,195.88812355976552 L 70.13547431118786,197.2902714619413 L 69.38618298619986,198.2988427747041 L 68.39916467294097,199.02649191766977 L 65.50732141174376,200.39676581136882 L 64.86937056668103,200.51200946606696 L 62.81408552080393,199.92258954420686 L 62.34765915945172,200.19688689522445 L 61.26133719086647,201.60964341461658 L 60.70764399878681,201.8055550241843 L 59.40165024809539,201.70453616511077 L 58.86902146972716,201.45659828465432 L 57.56001857109368,199.74517926573753 L 56.768598390743136,199.39141631312668 L 56.27508923411369,198.97043293248862 L 56.44059536419809,197.92592907324433 L 57.06350020878017,196.58044300880283 L 57.1146566234529,195.9665088513866 L 56.86188366264105,195.04843692854047 L 55.67625800892711,192.31862349063158 L 55.25797891616821,191.84904053714126 L 54.14457415044308,191.4872580850497 L 53.9068471621722,190.97312987037003 L 54.580908451229334,189.56033378653228 L 53.93994839861989,189.09330268204212 L 53.380236795172095,188.96945264935493 L 51.391154166311026,189.06183199118823 L 50.828433357179165,188.92783229332417 L 49.218510227277875,188.13311885856092 L 47.864369267597795,187.8611680176109 L 43.744771525263786,188.58169982489198 L 40.9492227435112,188.46802456397563 L 38.21084878966212,187.12461477983743 L 35.86968954280019,184.81491619162261 L 34.27180320955813,181.7936435015872 L 33.182472033426166,180.172599459067 L 31.98480955697596,179.2603400303051 L 29.18926077336073,177.94310774561018 L 28.36774859018624,176.80637824721634 L 28.35872097313404,175.29961916431785 L 29.002690259367228,172.21621847432107 L 28.668668819591403,168.26460443809628 L 30.170260675251484,164.78464155830443 L 30.389932429417968,161.21210384834558 L 30.781128695234656,160.13611182384193 L 31.34084029868245,159.17894534487277 L 31.978791143745184,158.4567960128188 L 32.83641377091408,157.93737752828747 L 34.51855778880417,157.4080416718498 L 34.12736149132252,156.75254085939378 L 32.150315687060356,155.62635888997465 L 31.575558081269264,154.96330866310745 L 30.678815834224224,153.32345714326948 L 30.116095025092363,152.99521412793547 L 23.80579816736281,154.32045621983707 L 0.07523009367287159,155.6143383262679 L 0.009027646854519844,302.3020771238953 L 43.744771525263786,316.41867683362216 L 65.03788587450981,322.906795556657 L 74.40854135900736,325.62355418875813 L 75.09163020737469,325.55908855982125 L 75.88605959527194,325.20670789293945 L 107.7264274340123,303.7046118490398 L 147.33956439606845,277.22698270343244 L 148.0918649546802,276.37870880030096 L 148.6184753216803,275.29933225084096 L 148.99462558701634,272.20487979240716 L 149.27749058045447,271.2554846992716 L 150.98972659930587,268.495558001101 L 157.52270444482565,261.41615661792457 L 174.9820952527225,241.26108128856868 L 176.15869331732392,240.75092807412148 L 189.30740204453468,243.17926449887455 L 210.57042439095676,246.65017111692578 L 246.0549359936267,243.41693857312202 L 247.06903713196516,243.7096523558721 L 258.5250696949661,250.08963939733803 L 259.57227201387286,250.4872568482533 L 260.5021155010909,250.339443763718 L 261.4801061954349,249.46316036302596 L 267.75128343328834,241.27456241101027 L 270.6491451058537,238.19969883188605 L 276.6449803505093,234.42647679708898 L 277.7960001770407,233.40294259879738 L 285.899781530723,216.65745933074504 L 286.4053275119513,216.59997082781047 L 294.8100290969014,221.15600580442697 L 293.41075007244945,199.38224157504737 L 293.1188574898988,198.7034055730328 L 292.43275937624276,198.43436901737005 L 292.2612348627299,197.8892520684749 L 292.11378396861255,182.15300629660487 L 292.36354772374034,181.95560343191028 L 305.9771782234311,181.93232104554772 L 306.5398990344256,181.7936435015872 L 307.5509909391403,171.91272498015314 L 309.4076686743647,162.29458182584494 L 311.89928805083036,150.8686706814915 L 313.2022725660354,149.2774321846664 L 315.59910208173096,148.65200519841164 L 342.76016057655215,150.28483396675438 L 345.2863857783377,149.23146903514862 L 345.8460973817855,149.31340389419347 L 348.27151431143284,150.91466354113072 L 348.897428361699,149.3313899608329 L 350.18235766887665,147.63726340327412 L 350.4772594869137,146.95034584403038 L 350.70896803587675,145.45534546859562 L 351.094145918265,144.82088504265994 L 351.81334524042904,145.28574146609753 L 352.17144026979804,145.22987436130643 L 352.48439729586244,144.82088504265994 L 352.88763038627803,145.6868233056739 L 353.51053522899747,145.74868732038885 L 353.5556732621044,144.48576239403337 L 353.9167775269598,144.31622310634702 L 352.9959616586566,143.697999172844 L 353.2336886189878,143.56839069072157 L 353.61284809187055,142.93440114334226 L 353.603820502758,141.83426606748253 L 353.3179463017732,140.5374350855127 L 352.4392592906952,138.2760355109349 L 351.68695873208344,137.2853147443384 L 350.18235766887665,136.43614773638546 L 349.82877643592656,135.89537361543626 L 351.1723851598799,135.50974442157894 L 352.0585952028632,135.00692372582853 L 354.7202345021069,132.3593080760911 L 356.67621586471796,130.81332019437104 L 363.5371967665851,127.19907497148961 L 363.9915863033384,127.75782961957157 L 364.4309298079461,127.73405035212636 L 365.0824220664799,128.520865092054 L 366.57950012758374,127.88267442025244 L 367.3588834833354,127.76773770991713 L 367.9772745333612,128.13634612038732 L 368.1563220471144,128.63980021886528 L 367.595105856657,128.93914460856467 L 368.36094779893756,130.3629962047562 L 367.9155858810991,131.26173912175 L 367.83734660968184,132.23225970100611 L 366.8232454992831,132.56577512901276 L 366.58250930532813,132.8735213894397 L 366.3914249949157,133.5963744558394 L 366.0980277955532,136.8159509357065 L 366.20635906793177,137.4086365206167 L 366.74350164085627,138.1805276190862 L 366.7149142269045,139.83849606104195 L 367.24754300527275,139.57171521987766 L 367.56651841290295,140.47569772135466 L 368.37599380128086,141.03337998036295 L 370.164964472875,141.82031809631735 L 370.75175890140235,142.54571209382266 L 371.8215302526951,145.63493851572275 L 372.62197802215815,146.54107933677733 L 374.62159285880625,147.42358017899096 L 375.7214562408626,149.1795117072761 L 377.57211553677917,149.54123680014163 L 378.6193178836256,150.05693419929594 L 380.11790056340396,151.23863689322025 L 380.3496091403067,151.68466801010072 L 380.80399861745536,155.36993216350675 L 380.69867655076087,156.46393393538892 L 380.2066720109433,157.0491990717128 L 380.12843276932836,157.3699497813359 L 380.2623422499746,157.64261998049915 L 382.3958665691316,158.677430793643 L 382.93752296455204,158.46281305886805 L 383.2324247825891,159.26922857016325 L 383.94560569152236,159.9735485026613 L 385.53145520202816,160.98321630153805 L 386.0023953281343,161.0836030188948 L 386.86453174985945,160.77040975075215 L 387.29033387079835,160.83264372404665 L 388.4142708443105,161.55748226027936 L 388.85060517303646,161.67797425109893 L 390.5839056055993,161.35868307203054 L 390.92394545674324,161.55748226027936 L 390.88783501274884,161.95914462208748 L 390.2965267878026,163.26699953339994 L 390.67418167181313,164.28402004763484 L 391.44754661619663,164.85099645983428 L 393.10561698302627,165.37988760974258 L 396.0666718967259,167.7260468620807 L 397.3937300313264,169.08726023789495 L 401.32073884643614,170.18421848490834 L 404.5646587237716,170.30613234825432 L 405.774357996881,170.82408048026264 L 407.05928730405867,172.47537662275136 L 407.5106676351279,172.84247917402536 L 409.13864600099623,173.4436753699556 L 411.559549106285,175.24005417339504 L 412.2952990178019,176.1043902207166 L 414.2693356461823,179.5353986537084 L 414.68911932595074,179.9702958697453 L 416.1952250357717,180.69967737421393 L 416.5638522990048,181.11858646385372 L 417.49820955097675,183.40460056439042 L 418.74552382715046,184.48860839009285 L 421.5847060550004,185.72414216119796 L 422.0150219425559,185.64101070910692 L 423.0125724617392,184.7328285407275 L 423.4323561731726,183.4866444496438 L 423.8792226780206,183.02784100361168 L 425.18371181190014,182.68556586559862 L 426.0924908258021,183.12303829099983 L 427.9250949732959,186.98970510531217 L 428.73908412642777,187.9697418315336 L 429.28525431640446,189.22528087347746 L 429.70353340916336,189.79083585180342 L 430.3986591119319,189.81926934421062 L 431.74979089573026,189.4425524836406 L 432.8511588666588,189.6039955597371 L 433.9465084243566,190.16963682789356 L 437.8494435902685,193.34652748331428 L 438.7732686921954,193.4746640715748 L 439.7001029141247,193.0892573138699 L 443.7835902106017,190.14729306753725 L 444.81273738108575,189.80099065229297 L 444.3764030523598,188.3350717537105 L 443.2930902596563,187.57098462805152 L 440.88873777352273,186.8690026504919 L 436.7751584444195,183.78243008535355 L 435.57448682002723,183.49373480957001 L 434.14210658706725,183.55754876043648 L 432.94143493287265,183.23849523067474 L 432.4343843627721,181.8037657206878 L 432.34862212091684,179.55562477745116 L 432.02513285912573,178.89836046192795 L 431.01554557308555,178.51217201631516 L 428.1146746929735,178.17759100720286 L 427.2194370627403,177.64093985967338 L 424.3411352150142,175.16534755844623 L 423.0712518785149,173.6626030858606 L 422.21964769251645,171.82198656070977 L 421.5335496086627,170.79384712316096 L 419.7039546985179,169.73993793409318 L 417.9676450584084,168.35924142692238 L 413.253729917109,165.5830274792388 L 412.64135728031397,164.57553449925035 L 413.1739860586822,163.32125705573708 L 414.24827123247087,162.75462522543967 L 418.35282294265926,162.29458182584494 L 419.9416816588491,161.17395449243486 L 421.07916010171175,159.27524751517922 L 421.5200081951916,158.86398257594556 L 422.21964769251645,158.83188666496426 L 423.21268439106643,159.21305193938315 L 426.77858893945813,161.27234082482755 L 427.7686164304614,161.4229396833107 L 428.3193004447967,161.0775797162205 L 428.80980039574206,160.41711017023772 L 430.44379714503884,157.58447462227196 L 430.7206437252462,156.7926277788356 L 430.77480937726796,155.97498081438243 L 430.3444934897125,153.5956909833476 L 430.39564990624785,152.9191638752818 L 430.7567541692406,152.3908780068159 L 432.4479257464409,152.80109043605626 L 433.5312385391444,152.18479639850557 L 434.9425543565303,150.63072095438838 L 435.52333034574986,150.56873774249107 L 436.7751584444195,150.75869114045054 L 438.1593914385885,150.50475663971156 L 439.93782990425825,149.4313149023801 L 441.0241518728435,149.28342742752284 L 441.4905782043934,148.90375596098602 L 442.2278327345848,147.65923186857253 L 442.68523144721985,147.34769698418677 L 442.97110564634204,148.09464595653117 L 442.7694891002029,149.59919757209718 L 442.8477283716202,150.13489763624966 L 443.44956880249083,150.46476930007339 L 444.1416852977127,150.4067887244746 L 444.4726975299418,149.93899415712804 L 444.8307925593108,148.48218743037432 L 445.48078025877476,147.5414032684639 L 445.8689673189074,147.56936213374138 L 446.18192434310913,148.3103833962232 L 446.9101512543857,149.24945451971143 L 448.90224306099117,147.5254269503057 L 449.5552399363369,148.09065098688006 L 449.7117184493691,149.4333134237677 L 449.45292707532644,156.11724837124348 L 449.63347920775414,156.6102375118062 L 450.0321984756738,156.51002870406955 L 451.4344866760075,155.18964766152203 L 452.69233318790793,154.64286334440112 L 453.6853698845953,154.8391312705353 L 454.48882686160505,155.6844592159614 L 455.4577899388969,157.7889918833971 L 455.9994463343173,159.8651787918061 L 455.89111506193876,160.5776947485283 L 455.072612054646,161.63580140285194 L 454.7777102664113,162.29257306456566 L 455.35547704808414,163.78550802636892 L 455.7075536940247,164.21566980611533 L 456.35152298025787,164.47701893746853 L 456.9894738253206,164.37850723415613 L 457.3596057072282,163.85987656842917 L 457.51608419045806,162.29458182584494 L 456.9804462362081,160.11202771496028 L 457.0045198276639,159.64042678195983 L 457.28136643767357,159.53809100016952 L 457.708673119545,160.49338658340275 L 458.02163014374673,160.36291517689824 L 458.1781086847186,159.738753343001 L 458.45194606110454,159.61233419459313 L 458.686663813889,159.819022689946 L 458.7077282574028,160.63791659846902 L 458.8942987713963,160.80253031197935 L 459.13804414495826,160.70215483009815 L 462.10210826434195,156.39379140362144 L 462.56853459589183,155.24573475122452 L 462.7370499316603,153.9680582182482 L 462.6648290734738,152.31684675253928 L 462.8182983789593,150.68670710548759 L 463.57661732286215,150.31682153884321 L 465.8876845370978,150.71470068395138 L 466.5918378289789,150.12690123170614 L 467.0371997766197,149.48927312158048 L 467.53973652236164,149.22147716302425 L 469.71538966707885,150.7606907468289 L 470.4255614001304,150.8726700330153 L 471.1688343118876,150.43078051134944 L 471.5028557498008,149.68714055791497 L 471.9602544642985,145.5132129304111 L 471.9602544642985,144.75704877637327 L 471.36443244479597,143.1477070208639 L 473.92225426808,143.92931699287146 L 474.9935302361846,144.08088144659996 L 475.21320198848844,144.25838286429644 L 475.70069273374975,145.55312232114375 L 476.23332151025534,145.98418358713388 L 476.6215085722506,145.7187529038638 L 477.455057580024,144.40597776789218 L 478.06291639246047,144.02304655965418 L 480.58763700537384,143.51256136689335 L 480.6297658327967,142.03751602210104 L 481.1563761997968,141.7645271681249 L 482.4413055367768,141.4955521253869 L 483.69012442976236,139.5418534502387 L 484.5928850620985,138.5506407301873 L 485.7213358581066,138.0531892767176 L 486.9731639586389,137.901983265765 L 490.72563902288675,138.24220939259976 L 491.8480714056641,137.93580486997962 L 491.8962186463177,136.167734477669 L 492.26935970410705,136.22340304590762 L 493.61748225428164,137.16796571481973 L 495.7720710132271,138.16858932655305 L 497.231534043327,136.86566763464361 L 498.94677926786244,136.97504769079387 L 499.8465307224542,136.7702125068754 L 500.0,135.99477200116962 L 499.10927619226277,134.8121818592772 L 497.72805237583816,134.02541688084602 L 494.99569686315954,133.0105300359428 L 492.4980590753257,131.43636593595147 L 490.40064520202577,130.89863276295364 L 489.38052568025887,130.46019595582038 L 488.6853999774903,129.38921823631972 L 488.34536012634635,126.8325822390616 L 487.4967651180923,126.44039388094097 L 486.4254891499877,126.93162915017456 L 485.89586957730353,126.9355911128223 L 485.495645692572,125.18698182236403 L 485.21578990481794,124.71587300859392 L 484.7674187812954,124.35765064693987 L 483.61188516020775,124.2903658580035 L 481.5596092902124,125.70371737889946 L 480.4371769055724,125.85420400183648 L 479.59760951437056,126.27204863727093 L 477.6657017432153,128.25328134279698 L 476.8020607046783,127.86285739019513 L 476.7027570195496,127.2268117275089 L 477.3316802754998,126.16708599682897 L 477.13909134827554,124.42691626399755 L 477.3948735445738,124.08060681913048 L 478.65873843990266,123.16261806245893 L 478.9656770527363,122.39919616095722 L 478.93558502197266,121.50552902556956 L 478.62262799590826,120.539057306014 L 478.02981518395245,119.7250519413501 L 477.34371710009873,119.58084969688207 L 474.4067358057946,121.04892968013883 L 473.0887052882463,120.98766058310866 L 472.7185734063387,121.1082236841321 L 472.8600059170276,121.46599343139678 L 474.11484322324395,121.75066344253719 L 474.2322020865977,122.13818162307143 L 473.9583646822721,122.3596467860043 L 471.8759968094528,122.33987234625965 L 471.3854968585074,122.21134211681783 L 469.4475706741214,121.1378712374717 L 469.17975168302655,120.74259890057147 L 468.58392966352403,118.96067446656525 L 467.81357392668724,118.19257526285946 L 465.2948717549443,116.90765643678606 L 465.13237482868135,116.36703715939075 L 465.3400097582489,115.79497228190303 L 467.13349425420165,114.73402913007885 L 467.295991178602,114.43436213489622 L 467.1064114291221,114.0204056892544 L 466.6971599254757,113.91594145260751 L 465.65898519568145,114.18795150052756 L 465.1534392423928,114.05391400493681 L 462.8574180006981,114.43041937425733 L 461.79516965150833,114.36930745281279 L 460.8924089912325,113.45871378853917 L 460.03177718631923,111.72907570470124 L 459.5623416490853,111.27814160007983 L 458.0306577626616,110.37060441076756 L 457.62742467038333,110.2505420036614 L 457.0376210361719,110.50838785339147 L 456.85706893354654,111.08912714477628 L 456.86609652265906,112.65284995548427 L 456.66147079877555,113.42718382552266 L 456.2492100894451,114.29045545030385 L 455.73463651910424,114.73994398768991 L 455.2050169482827,114.26285786833614 L 454.9582623690367,112.8735016360879 L 454.7054894082248,112.43418698664755 L 453.98629008606076,112.36327322293073 L 452.61710309423506,112.63708986062557 L 451.3321738149971,113.2872742973268 L 450.8025542423129,113.7957142777741 L 450.2909898497164,114.81683802697808 L 448.98650074377656,115.22303426265717 L 448.0717032607645,116.08493414521217 L 446.5701114330441,116.02970080822706 L 445.6869105976075,116.24866850115359 L 444.8307925593108,117.24116056598723 L 444.4155226740986,117.11485807970166 L 443.2930902596563,114.92922574840486 L 442.37227442115545,114.8365548402071 L 438.9899312388152,115.32557932287455 L 437.2987596336752,115.03373099304736 L 436.245538873598,113.9573324713856 z M 424.80154313519597,143.8814563890919 L 424.332107597962,143.75981481932104 L 424.67214744724333,142.96430274099112 L 426.528825154528,140.80830064602196 L 427.1065919660032,140.6728642443195 L 427.0584447272122,141.3321886016056 L 426.27906139940023,142.92244054097682 L 425.6034954935312,143.53449414204806 L 424.80154313519597,143.8814563890919 z" /><path fill-rule="evenodd" fill="#D2EBD9" stroke="#A6A6A6" stroke-width="0.25" opacity="1" d="M 442.59194617532194,106.47830110695213 L 443.2118418123573,106.8812243482098 L 443.95511475391686,107.08172656968236 L 444.3222374301404,107.01292504370213 L 444.5449183601886,106.6591174704954 L 444.34932022728026,106.06365031097084 L 442.52724834531546,104.65315492171794 L 442.594955381006,103.67136836238205 L 443.8768755123019,102.28767956793308 L 443.8197006545961,101.11849721334875 L 443.5097528360784,100.6576385460794 L 440.7503144685179,100.11451851390302 L 440.3199985809624,100.15372913703322 L 439.97995872981846,100.46939639188349 L 439.76931456662714,101.2126400982961 L 439.2156213764101,101.24009903892875 L 438.07814298942685,100.3556733103469 L 437.71102031320333,100.54194641113281 L 437.66287307441235,101.50685852114111 L 438.9071781747043,103.4711294863373 L 438.7747732512653,104.57852612156421 L 438.4392472244799,104.84759271517396 L 437.2807043977082,105.21883259154856 L 436.230492843315,107.28027838282287 L 436.1026017740369,108.52501397114247 L 436.7751584444195,110.38241414539516 L 437.68995590135455,110.8843770492822 L 438.3489711880684,110.47098878026009 L 439.2381903771311,108.50141149479896 L 439.73621335811913,107.87209232896566 L 440.5261289216578,107.35105301439762 L 442.59194617532194,106.47830110695213 z" /></g></g></g></svg>