<svg xmlns="http://www.w3.org/2000/svg" xmlns:xlink="http://www.w3.org/1999/xlink" width="205.69491612538695" height="500.0" viewBox="0.0 0.0 205.69491612538695 500.0" preserveAspectRatio="xMinYMin meet"><g transform="matrix(1,0,0,-1,0,500.0)"><g><g><path fill-rule="evenodd" fill="#D2EBD9" stroke="#A6A6A6" stroke-width="0.25" opacity="1" d="M 162.7867818288505,283.6727632174734 L 154.0157815758139,275.1303282438312 L 142.92744227685034,256.20564429392107 L 133.13481934182346,249.35240608500317 L 137.6947429422289,249.35240608500317 L 133.13481934182346,244.6729424071964 L 129.99519986473024,249.2756926312577 L 125.13626503013074,252.1652662861161 L 118.93177872896194,253.41828374518082 L 111.8302581179887,253.26485225185752 L 111.8302581179887,257.9445734259207 L 120.95010531879961,255.08046551374719 L 134.8541346974671,257.8678557497915 L 134.879052862525,262.93131651426665 L 130.81748152151704,267.5601794316899 L 128.94866024330258,270.78256281721406 L 134.03185365349054,275.7441405772697 L 151.07550251111388,286.79317093314603 L 158.2019406761974,292.67607681360096 L 159.07405743561685,290.24615385965444 L 159.34815111756325,287.96973442286253 L 160.19534971378744,285.7956568377558 L 162.7867818288505,283.6727632174734 z" /><path fill-rule="evenodd" fill="#D2EBD9" stroke="#A6A6A6" stroke-width="0.25" opacity="1" d="M 179.10781984962523,352.33623559214175 L 168.16898708604276,343.8156019500457 L 152.86957113444805,351.15918301721103 L 115.41839475184679,377.77299935393967 L 110.50962481461465,396.2518372973427 L 112.15418751351535,417.6511675887741 L 120.57634142972529,434.34267252334394 L 118.98161383345723,436.7236648250837 L 116.01641782931983,442.94514180347323 L 132.53679687716067,445.633512905566 L 139.61339932493865,459.8442616430111 L 143.82447658851743,477.9744929841254 L 151.74827824532986,492.5212133915629 L 159.64716234989464,497.6436300352216 L 166.99785909242928,499.7950967280194 L 173.5761092826724,500.0 L 188.97519605234265,497.48995478614233 L 193.38561373017728,495.7995398400817 L 195.82753992266953,491.57358519663103 L 199.66485268622637,482.3793388097547 L 205.69491612538695,454.36464507784694 L 205.39590427838266,415.80804518260993 L 197.0734211821109,378.0289237408433 L 179.10781984962523,352.33623559214175 z" /><path fill-rule="evenodd" fill="#D2EBD9" stroke="#A6A6A6" stroke-width="0.25" opacity="1" d="M 11.287679713219404,14.272485809866339 L 18.663294008001685,9.62549086753279 L 20.33277425915003,4.212677105795592 L 16.59513170272112,1.6850577394943684 L 10.16638682410121,0.0 L 2.392091089859605,0.587214813567698 L 0.0,3.9573602224700153 L 2.5415963996201754,7.174382806289941 L 3.1645370312035084,9.804219127865508 L 1.8688212782144547,12.10216917982325 L 2.6163496673107147,13.761820511193946 L 7.051684897392988,15.54915615473874 L 11.287679713219404,14.272485809866339 z" /><path fill-rule="evenodd" fill="#D2EBD9" stroke="#A6A6A6" stroke-width="0.25" opacity="1" d="M 85.99069084227085,93.2920239365194 L 87.88442967273295,90.9418165688403 L 89.08047521673143,85.19417170016095 L 85.81626736745238,80.82610041624866 L 82.2530488986522,77.22444798517972 L 80.50881537981331,71.73272212315351 L 77.1200197711587,68.05464886454865 L 70.86569836735725,67.72260497650132 L 65.35890535078943,69.86813310696743 L 66.85396212898195,71.7838075675536 L 73.830894369632,73.31636344036087 L 77.07018466852605,77.45433832984418 L 75.92397422716022,83.02289319969714 L 76.22298545949161,89.15363782620989 L 81.75469602644444,92.88329008291475 L 85.99069084227085,93.2920239365194 z" /><path fill-rule="evenodd" fill="#D2EBD9" stroke="#A6A6A6" stroke-width="0.25" opacity="1" d="M 164.15725084766746,177.718222072348 L 169.41486773267388,187.3033448299393 L 174.44822604209185,186.22978173289448 L 169.16569160483778,173.80766035337 L 166.69884786009789,170.28056933404878 L 164.73035576194525,169.94831146276556 L 164.15725084766746,177.718222072348 z" /></g></g></g></svg>