<svg xmlns="http://www.w3.org/2000/svg" xmlns:xlink="http://www.w3.org/1999/xlink" width="444.984094588086" height="500.0" viewBox="0.0 0.0 444.984094588086 500.0" preserveAspectRatio="xMinYMin meet"><g transform="matrix(1,0,0,-1,0,500.0)"><g><g><path fill-rule="evenodd" fill="#D2EBD9" stroke="#A6A6A6" stroke-width="0.25" opacity="1" d="M 438.251730972901,260.28232807910535 L 440.2607448268682,257.30459027178586 L 443.6721941754222,253.4596633099718 L 444.984094588086,251.32751122128684 L 444.94937029853463,250.64625490142498 L 444.53521969914436,249.91454305441584 L 443.90679480694234,249.33947186905425 L 440.915424676612,248.70024824643042 L 440.34713210351765,248.42557134246454 L 439.1588840056211,247.37825763528235 L 438.9175078626722,246.8623321815394 L 438.9615484122187,245.6192310891347 L 438.5787343289703,245.12390527292155 L 438.30178700201213,243.79542775487062 L 437.969788948074,243.2163452010136 L 437.41589422896504,242.8887512581423 L 435.40273260325193,242.97599482280202 L 434.7040122374892,242.7527550427476 L 432.9381553083658,241.22524431953207 L 431.363705387339,240.6112097427249 L 430.0280907973647,239.07709990500007 L 427.715961555019,237.32428710104432 L 427.4534120801836,236.563379616593 L 426.65560043789446,235.96152304229327 L 425.2217415291816,235.8213215706637 L 422.442951772362,235.87090486404486 L 421.70611937716603,235.6229902440682 L 421.2445404548198,235.18359390180558 L 420.5974830444902,233.9578030349221 L 419.69888630509377,232.76972679398023 L 419.78019195608795,231.4928711554967 L 419.27711326628923,230.60067957872525 L 419.3558781053871,230.1101691732183 L 419.2313788626343,229.68461825570557 L 418.923094952479,229.45219423051458 L 418.44796510599554,229.53935278824065 L 418.2336908467114,229.37870803871192 L 416.94042295217514,227.4425689264899 L 415.4540541302413,226.96412852441426 L 414.99247524142265,226.09955896355677 L 415.2135249450803,225.12057374615688 L 415.97322455979884,223.72140676400159 L 416.84048474766314,223.45662235224154 L 417.28512500599027,223.1474286596058 L 417.52734807506204,221.90217921230942 L 418.32261890359223,221.435878619086 L 419.2144401650876,219.64426105108578 L 419.1991953533143,218.86380573932547 L 418.2531703244895,217.9109206176363 L 417.8449482433498,217.01785987685435 L 417.86103998310864,216.03435973322485 L 418.34125142358243,215.05092438927386 L 420.9769093878567,212.8828132947674 L 421.4063048325479,212.89134858222678 L 422.12873934209347,214.19388572021853 L 422.6614606976509,214.7026398377493 L 423.3593341372907,214.96385249390732 L 424.20542099513113,214.9587306100875 L 425.3098226618022,214.39704384084325 L 426.74537542276084,214.4277738558594 L 429.1083206925541,212.73430056590587 L 429.3573192432523,212.21366390981711 L 429.38188031315804,211.6537860482931 L 428.98890304379165,210.5255581291858 L 428.6662212498486,210.06643931474537 L 427.1493628695607,208.89907641732134 L 426.8741093631834,208.34443938429467 L 426.5709070786834,206.70794953010045 L 426.01870624534786,207.03557493153494 L 425.14128283783793,206.82910189055838 L 420.95319524407387,204.2168562314473 L 417.9762229658663,203.37918708950747 L 417.4435016103089,202.94501560425851 L 415.98338774591684,201.04725441534538 L 415.2889020778239,200.80333389469888 L 413.6001161020249,201.75174514309037 L 412.92934454604983,201.9300049993908 L 411.4836285673082,201.68351220909972 L 411.0906512644142,201.8020671106642 L 410.34365565143526,202.40167832793668 L 409.19097876921296,202.637093746569 L 409.0004186872393,202.50403240614105 L 409.39678369648755,201.67242438253015 L 409.4560690559447,201.09586841298733 L 408.33049405924976,199.8805634424789 L 407.6495592519641,199.7816373872338 L 406.15302727743983,199.9675505894702 L 405.54916345514357,199.5078883926617 L 404.1542635373771,199.82598348578904 L 403.8536020331085,199.22476348257624 L 402.5239159949124,199.4771878864849 L 401.905654322356,199.35609187325463 L 400.5674989502877,197.79386503598653 L 399.92721698619425,196.61803073005285 L 399.4486993998289,195.39538971846923 L 399.21325180865824,194.26064919109922 L 399.2886289078742,193.5854689028347 L 400.5607234723866,192.53865306649823 L 401.58043174631894,190.29606388194952 L 401.60583977773786,189.75314860697836 L 401.0866693481803,188.62390691274777 L 400.88679297454655,187.03372172103263 L 401.3526065610349,185.44624150940217 L 401.93021539226174,185.08667169627734 L 402.3985697943717,184.4502005284885 L 402.1766731608659,181.89943899749778 L 400.8800174947828,181.77506276860368 L 400.4582444559783,181.40449496090878 L 399.78662600554526,180.1258832992753 L 397.33136490546167,179.2809092378011 L 396.6165527999401,177.76227212499361 L 395.07936798222363,175.31126216810662 L 393.15767522901297,173.95304586633574 L 393.7183453608304,172.62558353098575 L 414.68842599727213,149.46827726531774 L 415.633604131639,149.3373104329221 L 416.49070110172033,149.0132985978853 L 417.1648603975773,148.4188648671843 L 419.3160722218454,142.7134949930478 L 419.53712192736566,141.16199973109178 L 418.85872796550393,139.5451617371291 L 416.64823077991605,136.82689718541224 L 415.3998503945768,135.71945667429827 L 413.9075530525297,134.75909578765277 L 410.7493369523436,133.35602206143085 L 409.5763336326927,133.22770163079258 L 408.42111597023904,130.8883165519219 L 407.8723028432578,128.79046331904829 L 406.905951410532,127.52028676716145 L 405.76936626806855,126.97230516024865 L 403.0320762787014,126.62313276273198 L 400.6352536454797,126.04968551604543 L 398.35784865915775,126.89244534086902 L 396.4175233542919,127.15071640501264 L 395.81704730540514,127.05386441969313 L 395.5756711624563,126.66136307665147 L 396.4641047157347,125.35137273394503 L 396.5555735863745,124.66242458554916 L 396.05757652036846,124.17821875575464 L 395.2385915145278,123.8673127326183 L 393.67007014527917,123.66599043109454 L 391.14281971752644,123.71186116104946 L 389.71065469644964,123.1435796120204 L 389.2338309623301,122.25338329351507 L 388.8959043882787,119.3188502874691 L 388.39197877049446,118.5799627971137 L 387.5670652445406,118.10351928859018 L 386.52448978461325,118.29630374233238 L 385.1660079434514,117.88610771833919 L 383.8541075307876,118.233457546914 L 381.97730225138366,118.21986918302719 L 380.62051432952285,117.58292363304645 L 378.92156513407826,115.7503076530993 L 377.74602103605866,115.09644012548961 L 376.39092699997127,114.73894292488694 L 375.6286865416914,114.74743448244408 L 373.70445300638676,115.40468990802765 L 372.2341759223491,115.18984876479954 L 369.74080285802484,113.38117763330229 L 368.3484437186271,112.90313192631584 L 367.0678798239678,113.04917693056632 L 360.7904065772891,115.63651653227862 L 359.35061911679804,115.95581228099763 L 358.20725852809846,115.67727746034507 L 357.9819741230458,114.91811550327111 L 357.5280176065862,114.5096717880806 L 355.7816401552409,114.05707949132193 L 355.4716623593122,113.67921763809863 L 355.39374444819987,112.48113430524245 L 354.9956855867058,111.17782405065373 L 354.08777255378664,110.94518776691984 L 351.3996047079563,111.37055711110588 L 348.98414955474436,111.05386430013459 L 348.2676435634494,110.61661367001943 L 348.12197095900774,110.1131475061411 L 348.2659497112036,108.7759938397212 L 347.5274234302342,106.63074225769378 L 347.64768803678453,105.7402615218889 L 348.13721577078104,104.93639158434235 L 348.2473171595484,104.08925479953177 L 348.8130689188838,102.8253876361996 L 349.11288346350193,101.45802971592639 L 349.12982216104865,100.09498027700465 L 348.8130689188838,98.7786712271627 L 347.60872904770076,96.94051986036357 L 347.2767310272902,96.70715233392548 L 346.42810335569084,96.75722009385936 L 344.8002966269851,95.66168815689161 L 344.2294632419944,95.50894480559509 L 342.8658998403698,95.60568218166009 L 342.20867924392223,95.81612946058158 L 340.70113709010184,96.76740339573007 L 336.31571393460035,102.12090582260862 L 334.27121575921774,103.58675688656513 L 332.3706963378936,106.20884268800728 L 331.23072345368564,107.33448853821028 L 329.07612388953567,108.57988348254003 L 327.77353973686695,109.00181958463509 L 326.6606687363237,108.89654718490783 L 325.9119792692363,107.94402036245447 L 325.6782255321741,106.66979164117947 L 325.2361260894686,105.57388317375444 L 323.8657872080803,105.15709276986308 L 322.43785685300827,105.84127744962461 L 320.19009456411004,107.8073413928505 L 318.59108357317746,108.16983920661733 L 315.33208234235644,107.59680625947658 L 313.3621143717319,108.2751087610377 L 311.91893917135894,108.28699409391265 L 307.94343198277056,106.0195417512441 L 306.5917256549001,106.07556789612863 L 305.73462865129113,107.03142549458425 L 304.2812902983278,111.84517881437205 L 303.7257017251104,112.84369520691689 L 303.01766506768763,113.56883202784229 L 302.165649689734,113.99084712553304 L 299.9399076588452,114.60307831561659 L 295.862768413499,114.92660711950157 L 288.49783216789365,113.8422494843835 L 287.8897337131202,114.09274313750211 L 287.4688076004386,114.7627193062799 L 286.94963720440865,116.21651682758238 L 286.16029489412904,117.4113756811712 L 284.88565955124795,118.61733131436631 L 283.3755766171962,119.3884936812101 L 281.8781976811588,119.28317936277017 L 281.4377921242267,118.8712687427178 L 281.180324209854,118.2436487916857 L 281.17608954384923,116.85597592021804 L 281.56229136511683,116.13159645092674 L 283.5076982975006,115.1015351562528 L 283.9929913301021,114.56231904507149 L 284.63750796206295,112.66198959224857 L 286.0976217929274,109.83722149033565 L 286.7531485706568,109.04766411951277 L 288.97973749414086,107.11716567864642 L 290.40682092309,105.12313862028532 L 293.58282264880836,102.65817774354946 L 297.20092381723225,100.87240285065491 L 299.12176961265504,98.51049426815007 L 301.17304326593876,96.62229186051991 L 301.41018474288285,95.81273513380438 L 301.3407361637801,94.00700950354803 L 301.1044416129589,93.41558968718164 L 299.8890916313976,91.63885282236151 L 299.77560253441334,90.84979007672518 L 300.61914858035743,86.71050116256811 L 300.7360254153609,85.34980090975296 L 300.43875168450177,82.53186940704472 L 300.51921037584543,81.16624946682714 L 301.09681920707226,80.02290247648489 L 302.14024165831506,78.79986806679517 L 303.31917346455157,76.67789342964534 L 304.35327962599695,75.36338366568089 L 306.87290764786303,70.46533806272782 L 307.42510848119855,68.69487011560705 L 307.90616688132286,67.74013950699009 L 307.42680236697197,64.09270167700015 L 306.16995261609554,61.82572179893032 L 305.931117285043,61.030527321854606 L 305.9700762424618,60.311643536319025 L 306.2537990473211,59.74705682776403 L 306.7611124049872,59.47409114299808 L 307.4725367706269,59.6436348502757 L 309.40523970127106,59.42492357362062 L 313.35533889196813,58.3466421199264 L 315.4625101685524,58.36868218053132 L 317.5256408620626,58.63994564162567 L 321.79588103480637,58.534830824355595 L 323.8657872080803,58.216097226249985 L 327.9903547745198,58.08216198394075 L 328.6441876646131,57.8363325385144 L 328.76783997938037,57.40740572265349 L 328.3850259296596,55.7375122011872 L 328.39010752364993,53.03868550225161 L 327.4737251587212,50.997715231147595 L 327.4212152771652,49.87894725683145 L 327.10784977301955,49.185662833508104 L 326.0695089157671,48.78563023323659 L 323.8657872080803,48.372888103709556 L 322.1837767101824,48.430519228684716 L 320.36286908760667,47.60419650922995 L 315.60648888908327,43.81599289434962 L 314.9323295932263,43.46600021363702 L 309.19181236997247,43.32532581605483 L 307.9891664199531,42.90923680970445 L 306.62560301832855,41.900805977289565 L 306.06916748546064,40.800027102115564 L 305.8498116340488,37.97148657112848 L 305.33656978979707,35.93532601825427 L 305.4483650326729,33.94159765949007 L 305.17565233819187,32.72234453319106 L 304.77928733080626,31.90980422240682 L 303.5741005670279,30.449120577890426 L 302.02167093753815,29.56628642277792 L 300.216855019331,27.795568256871775 L 297.9428377728909,26.140113360248506 L 297.2754539567977,25.4115216168575 L 296.25743953697383,23.49010612210259 L 295.6950755175203,23.257133496110328 L 295.0564874392003,23.60362758662086 L 294.8862537294626,24.354228886426426 L 295.2055477835238,25.803774226922542 L 295.9008804112673,27.14659833558835 L 295.875472413376,27.79387382499408 L 295.1598133482039,28.225111622479744 L 294.4195932149887,28.135305498261005 L 292.2548304628581,26.676395327667706 L 289.75891658477485,25.25055462808814 L 289.1338794659823,24.462668475927785 L 288.0210084337741,22.357441903906874 L 283.86933901533484,19.61268115567509 L 283.2028020936996,19.47375117451884 L 282.54388761147857,19.585572817130014 L 280.90083610266447,20.36663422244601 L 280.315604833886,20.375105671118945 L 278.41085074469447,18.697780582122505 L 276.48831106349826,18.275913000572473 L 276.14699671790004,18.07260398962535 L 275.0688500087708,17.134000184130855 L 274.4759963657707,16.839206036180258 L 274.3108442481607,16.085282722720876 L 273.09380041249096,15.8362352080876 L 271.7531041968614,15.958217571023852 L 270.5648560989648,15.656650335527956 L 269.79753408022225,14.12510995788034 L 269.52651527151465,11.380593547830358 L 269.18096632510424,10.03377344168257 L 268.39247094094753,8.99868112592958 L 267.7335564587265,8.688663476263173 L 264.87769571505487,8.829272478003986 L 264.322954101488,8.554830976645462 L 262.29624155163765,6.108602095860988 L 261.9362946860492,5.481805937830359 L 261.6212352979928,4.682221646769904 L 261.62716381810606,3.472689887159504 L 261.48149124346673,3.0254706951091066 L 260.8632295373827,2.3478684679139405 L 260.25767189636827,1.3382468214258552 L 258.7298033386469,0.30830396292731166 L 258.0132973808795,0.05081929953303188 L 257.26037321425974,0.0 L 256.67598886974156,0.22021706670057029 L 256.22287931479514,0.6860618571517989 L 255.86547326110303,1.382290571811609 L 255.79602468200028,2.9441582546569407 L 257.57119790278375,5.475029770750552 L 258.10137847810984,6.99798027460929 L 258.05225630290806,7.775556085049175 L 257.48481065779924,9.151149129495025 L 256.33636844344437,10.465770555427298 L 255.51060798950493,10.958757533226162 L 252.0686690825969,10.984169311239384 L 250.61363684386015,10.648734557442367 L 249.30343025177717,9.828787130536512 L 246.4662020597607,8.512478943448514 L 245.81745079532266,8.073712864890695 L 243.11911972984672,5.168408981058747 L 242.4602052476257,4.7669231271138415 L 240.386064408347,4.512818778748624 L 239.6737930830568,4.204506164765917 L 238.62698292545974,3.032246742048301 L 237.86474249884486,2.6815872009610757 L 237.14484880119562,2.7442653849720955 L 235.4272670559585,3.730180372018367 L 234.78698512353003,3.720016252133064 L 232.92542462423444,3.1643795244162902 L 230.92157929204404,3.608211145270616 L 228.9262032918632,5.007475698133931 L 213.58653848990798,18.790964467683807 L 212.90390986390412,20.193817451014183 L 212.73960470594466,20.96980157447979 L 213.3426215350628,22.184620948974043 L 213.3087442368269,22.969095525564626 L 212.71250282227993,24.428781069349498 L 211.69618228636682,25.418299190700054 L 211.5725299399346,25.873244635993615 L 211.7961204573512,27.21691725042183 L 211.66738651692867,27.944679659674875 L 210.3377004787326,30.513512016972527 L 210.11749769933522,33.33069727604743 L 206.62982435710728,42.27960095682647 L 205.87435941025615,42.958387671737 L 205.14430249482393,43.984634245280176 L 205.06130295619369,44.39564678561874 L 205.73376839794219,45.31259745627176 L 205.84725752659142,45.88803023286164 L 205.73376839794219,47.66436932224315 L 205.5254226922989,48.19236740062479 L 203.9433503653854,48.9161490178667 L 203.66216833889484,49.35347407660447 L 202.3697474040091,53.01325757999439 L 202.3561964444816,53.61844545381609 L 203.3606599085033,54.65084269759245 L 203.79598390497267,55.322167476057075 L 203.40300660394132,56.27492303494364 L 203.27257880941033,57.22261244407855 L 201.90732155553997,58.13980496209115 L 200.75379771366715,58.51448609645013 L 199.47153996489942,59.57920817506965 L 198.82448255456984,59.855565419537015 L 198.32648548856378,61.032222802517936 L 196.98494234494865,61.92745347507298 L 196.3683745265007,62.92613274557516 L 195.8229492045939,63.17368678760249 L 195.0573210399598,64.29787197429687 L 194.05624528229237,64.85912819986697 L 193.5870439875871,66.00031643966213 L 193.09243466332555,66.44120012701023 L 192.48603006079793,66.62772931403015 L 191.01405912451446,66.65146945090964 L 190.62446959502995,66.95839678612538 L 190.24843099154532,69.1578295318177 L 190.01128951460123,69.74798355298117 L 189.54716981202364,70.48568873351905 L 188.9526222832501,70.97241230378859 L 187.67375227436423,70.57557102211285 L 186.86069582030177,70.74007311079185 L 185.50898949056864,71.39639261609409 L 184.8737891856581,71.91365492565092 L 184.24536429345608,71.5965129469987 L 183.1595951784402,71.60160072322469 L 182.50406840257347,71.42861530312803 L 181.91629638522863,70.57896281511057 L 181.43523798510432,70.19569259870332 L 181.45725827664137,72.44110020797234 L 182.00268359668553,73.35863516165409 L 194.66942536272109,85.09531211410649 L 196.1159883029759,85.54151715268381 L 196.51743490435183,85.84690806863364 L 198.50095383264124,88.32661834207829 L 199.34788761660457,89.70016956562176 L 199.5054173283279,91.07208320230711 L 198.4179543275386,92.20139031426515 L 196.70376032032073,93.02103331440594 L 196.25149768963456,93.65826559555717 L 194.03930661827326,99.42536109720822 L 193.10767944157124,100.66870932711754 L 191.87454386800528,101.24669342476409 L 189.99435084871948,101.095618651947 L 189.3608443979174,101.4130463427864 L 188.78323553316295,102.1124182009371 L 188.36823797412217,104.50263400550466 L 188.05826020985842,105.31158460723236 L 186.74720669165254,107.59001482091844 L 186.4931265823543,110.32879624783527 L 186.2051690761,111.1099008130841 L 185.9883540365845,111.2287665430922 L 186.08490450121462,111.79253700119443 L 185.86978331580758,112.39962249214295 L 185.50898949056864,112.7740695636021 L 185.22950135171413,113.83715473301709 L 183.99805963039398,114.99454018182587 L 183.7202653437853,115.62038201466203 L 183.10708526335657,118.7591622620821 L 183.27308430708945,119.99490887357388 L 183.94385586306453,121.46514469687827 L 183.27308430708945,123.04674369969871 L 183.49498097226024,124.03550727653783 L 182.825903236866,124.50526899960823 L 182.31604913249612,126.08876448264346 L 181.7062567602843,126.52458384947386 L 181.7062567602843,126.30115109449252 L 181.41491154767573,126.50759267027024 L 180.91522062942386,127.07935172703583 L 180.80850697867572,127.44382344419137 L 180.8627107143402,127.90005817764904 L 181.46064598299563,128.54576848750003 L 181.46064598299563,129.91286358959042 L 181.66899172216654,130.78295206464827 L 181.7723176330328,132.6099041524576 L 181.93662275746465,133.32542904128786 L 182.51931321434677,134.38091171428096 L 182.59553723968565,135.82994332688395 L 182.825903236866,136.44527874561027 L 182.65821037255228,136.75210285861976 L 182.825903236866,137.56890449253842 L 182.37702834792435,138.58973617642187 L 182.40413023158908,139.35645340557676 L 183.0494937878102,141.9033030171413 L 183.0477999020368,143.99133078812156 L 183.49498097226024,144.90023046405986 L 182.58029246143997,146.12632878334261 L 182.3956608660519,146.77766930987127 L 182.37702834792435,147.49280660040677 L 182.825903236866,148.9554702725727 L 182.65821037255228,150.31362865353003 L 182.1534378286451,151.33592082781252 L 181.83668458648026,152.59897285047919 L 182.13480527698994,153.98374228482135 L 182.94786169938743,155.2843892936362 L 184.16744638048112,156.3001265305793 L 184.8382179364562,156.3001265305793 L 185.50898949056864,156.973910432891 L 186.47618788294494,157.34484162717126 L 187.35699903219938,158.19392593030352 L 188.10399464517832,158.5487144557992 L 188.28354458138347,158.72653652727604 L 188.6443384066224,159.91773077391554 L 189.26598778739572,160.644394926494 L 189.3557627722621,161.04177426581737 L 188.6443384066224,161.82974963006563 L 188.21578988805413,164.41514804202598 L 188.21409603580832,165.92587039398495 L 188.47495165653527,167.33882420288865 L 189.00005057267845,168.64547556848265 L 189.78431125730276,169.83388427179307 L 191.73903447948396,171.68390166549943 L 192.04054287821054,172.20582241134252 L 193.5870439875871,173.9036580879474 L 195.64339923486114,175.0293919640826 L 195.77043928951025,175.5931368174497 L 195.4435228612274,177.01449963345658 L 194.59997681714594,177.61833624180872 L 193.39055535383523,179.52025766880251 L 193.38377987407148,180.78860309848096 L 193.52945251390338,181.24434393877164 L 194.74226168356836,182.27172120497562 L 193.41426949761808,182.3935452121077 L 191.63062694482505,183.92451180529315 L 190.67697947658598,184.5234744384652 L 185.53100978210568,185.72572273528203 L 182.37702834792435,186.07934124348685 L 181.03548520430923,184.97334915574174 L 179.84977791830897,184.81742533040233 L 179.62788125313818,184.06423950905446 L 179.19933276809752,183.47892439586576 L 177.43432273343205,182.92770685907453 L 176.08939188346267,182.72238920279779 L 171.91062058135867,183.1236554166535 L 170.47591471485794,182.92770685907453 L 166.74263059534132,181.58083315228578 L 165.5315152797848,181.57572185236495 L 163.3819973077625,182.17119570274372 L 161.9947197623551,182.17460334126372 L 159.58604005537927,181.45901479409076 L 157.54662350565195,181.35082719207276 L 155.8883271533996,180.22554523777217 L 155.1006787288934,180.31754134222865 L 153.7388091813773,180.9538610324962 L 152.3227358981967,181.18300991656724 L 150.2325033210218,181.82276861811988 L 149.53547680936754,181.93692244018894 L 147.44439727067947,181.82276861811988 L 145.21611446142197,182.41739900084212 L 144.6368117760867,182.2512752696639 L 142.72528220899403,182.95837689982727 L 141.9308583047241,182.92770685907453 L 141.30582115240395,182.6491228947416 L 140.38096945546567,181.7648401223123 L 139.6746266838163,181.34827157552354 L 137.73430137895048,179.4589296352351 L 135.86765928566456,178.40531345747877 L 135.1308268904686,178.95894390367903 L 133.7291514929384,180.56627399055287 L 133.0719308629632,180.90104645269457 L 132.19450745545328,180.74430739786476 L 130.6217513885349,180.0100376936607 L 129.39285047911108,179.77579338359646 L 107.98913973383605,206.90247628919315 L 106.92115624435246,207.83077795780264 L 105.98444747366011,208.06115557882003 L 104.76401589810848,207.9963081846945 L 103.57576776854694,207.69767245464027 L 101.72860518656671,206.6550523013575 L 100.69788676686585,206.69941768224817 L 96.80622597783804,208.50656198500656 L 96.3514225333929,208.99123341345694 L 94.93704313784838,208.91955569840502 L 94.4161788225174,209.05779160000384 L 94.08163998648524,209.25234792695846 L 92.19043682329357,211.57185442419723 L 90.20183630287647,211.1639098242158 L 88.78152832016349,211.5325957123423 L 88.1031343601644,212.0378463709494 L 87.13085440732539,212.01736294757575 L 85.16088637150824,211.5479578207014 L 83.73295601643622,211.44213029567618 L 82.48118789121509,211.02224123314954 L 81.80194696970284,211.00005228386726 L 81.03885965049267,210.04083831456956 L 79.64565355144441,209.0492584889289 L 78.00853056460619,208.43659306457266 L 76.23166345618665,208.22668823972344 L 73.91868725419044,208.47755045827944 L 72.92608086392283,207.68402068899013 L 72.34508429281414,207.50142925337423 L 71.38804908655584,207.9946016597096 L 69.78903812728822,208.03385138488375 L 69.3469386510551,208.22156865510624 L 69.08438920788467,209.35986698360648 L 68.78965625725687,209.58856072777417 L 68.28996527194977,209.6414679683512 L 66.92640187218785,209.38034684513696 L 64.810761295259,209.7609366561519 L 63.047445146366954,209.1482428938616 L 62.39361225627363,209.69266871118452 L 61.66355534084141,209.88040624116547 L 61.04359978064895,209.6312278601108 L 60.394848516210914,209.6721884001745 L 60.07301368191838,210.0988673560787 L 58.88391862437129,209.73192276386544 L 58.04206643253565,210.45899360824842 L 56.51419790647924,210.43851227289997 L 56.300770573318005,210.19785852869973 L 56.42950451374054,209.65341482497752 L 55.49787733890116,209.89235325087793 L 53.00619812682271,209.69266871118452 L 53.08919766545296,209.10557713534217 L 52.884239664301276,208.98611357505433 L 52.16773370653391,209.04072534968145 L 51.08535229973495,208.28983004321344 L 50.57549816183746,208.20450336346403 L 49.499892266467214,208.29494968347717 L 45.802179330959916,209.16189598792698 L 44.658818708732724,210.02035753859673 L 42.94462473317981,210.93689936585724 L 42.37887294217944,211.60257873567753 L 40.21919178403914,216.03094494377729 L 39.88888758420944,217.9741028585704 L 40.22257952392101,219.6015654518269 L 38.840383572503924,221.3538932321826 L 37.74275738559663,221.6647569052875 L 35.05120179802179,221.62376349547412 L 33.44541532732546,221.9226762773469 L 32.00901564024389,222.40949021861888 L 30.806369656696916,223.2823797906749 L 29.908619843423367,224.74471580330282 L 29.800212306901813,225.5237777250586 L 30.41000464744866,227.5980655004969 L 29.756171757355332,230.19733182282653 L 30.057680189609528,233.66376610624138 L 30.791124844923615,236.2658676552819 L 30.565840473398566,238.275053282734 L 29.498703876510262,239.73040087369736 L 29.610499119386077,240.1169235603884 L 30.628513572737575,240.63857556355651 L 31.50085535645485,241.4852339430945 L 32.25632026977837,243.24799308355432 L 34.12465624883771,243.20864707697183 L 34.6565306764096,243.9665056616068 L 34.59385754354298,245.23853860166855 L 33.88920865766704,247.49804422887973 L 32.79835791699588,249.5576878625434 L 32.62050183489919,250.2953704020474 L 33.013479102402925,252.4547434935812 L 32.70011360011995,253.56752134219278 L 31.993770828470588,254.46294906188268 L 31.028266321867704,254.8507587669883 L 30.643758352845907,255.17608276044484 L 24.115592705085874,262.26764019334223 L 23.460065960884094,263.38213315070607 L 19.931739777326584,276.93116166768596 L 19.376151204109192,277.5786925422726 L 19.84874027222395,278.3420523640234 L 19.67088418826461,278.72375065856613 L 18.502115536481142,279.6450236859964 L 18.25819861330092,279.37738391174935 L 17.353673320263624,279.4906154064229 L 16.950532864779234,279.3705214569345 L 14.90603468939662,278.23397819593083 L 14.2860791310668,278.39351655507926 L 13.70000096783042,279.2049653463764 L 13.520450998097658,279.92553732008673 L 13.606838243082166,281.3196257855743 L 13.474716562777758,282.12955983751453 L 12.964862458407879,282.75506627035793 L 13.112228916957974,283.2973704764154 L 12.502436576411128,284.7485014599515 L 11.750359369441867,284.72275541257113 L 10.329204494133592,283.3831804258516 L 9.583902733400464,282.9618597236695 L 8.745438281446695,282.72589240025263 L 7.046489117667079,281.2801601183601 L 5.864169539883733,280.6993432781892 L 4.500606138259172,280.5088896426605 L 0.43701781891286373,280.40851667756215 L 0.0,280.67703772580717 L 0.010163186118006706,281.3985575840343 L 0.39467112347483635,282.04204311803915 L 2.1884768959134817,283.4380991216749 L 2.601780602708459,284.11259037151467 L 3.728202559053898,286.95515142800286 L 6.350309532135725,290.8381988458568 L 6.9719589445739985,292.31260850385297 L 8.769152458757162,293.5827980430331 L 9.292557520791888,294.139356025029 L 10.46471388079226,297.00159790483303 L 12.26698898524046,299.8121522112051 L 13.295166626572609,301.9263367855456 L 13.554328361526132,302.7875963835977 L 12.920821908861399,304.8722617846215 L 13.218942567706108,306.8592967293225 L 13.224024193361402,308.15695530129597 L 14.931442687287927,314.00911084911786 L 15.610683608800173,322.59490427782293 L 15.851212792098522,323.2468312239507 L 17.3638365380466,325.1012153617339 L 17.966853400692344,326.85168823821004 L 19.98594354465604,329.2099586422555 L 20.871836319565773,330.6620699786581 L 22.453908612951636,335.2127951211296 L 23.212761299684644,336.69336766097695 L 24.073246041312814,337.68082555406727 L 26.112662591040134,339.2756262788316 L 26.703822379931808,340.08994478709064 L 27.83193815872073,342.8853630553931 L 28.965135594829917,344.2850967233535 L 29.232766661792994,345.54779058427084 L 29.817151006311178,345.93966458668 L 31.931097727268934,346.1097117232857 L 34.41091986745596,346.9280513342237 L 36.269092593342066,346.53872714482713 L 36.845007572323084,346.68720372847747 L 45.339753448963165,362.39296116435435 L 45.907199094071984,363.21097417897545 L 46.54748105816543,363.6416272659553 L 63.64538041502237,368.1119166696444 L 64.94965842366219,368.6760468626162 L 66.65538309700787,369.9653703959193 L 67.64275909774005,369.93842206022236 L 67.21203844062984,369.1182108366629 L 67.10667188279331,368.5159282395616 L 67.3627526499331,367.9041476849234 L 66.20238665863872,367.69841329206247 L 65.9823172558099,366.8727969051106 L 64.93932160921395,366.6289409050951 L 63.066731004044414,365.63995963556226 L 61.756984585896134,365.24357951967977 L 56.27125436812639,364.40456280566286 L 50.129317224025726,362.51160563749727 L 48.85424838773906,362.28284263727255 L 47.31776378117502,361.6292650302639 L 46.893630012869835,361.27662444941234 L 46.54018519073725,360.05814255028963 L 46.57886405661702,358.60434001497924 L 47.588515838608146,354.236113043502 L 50.289367688819766,348.76164787996095 L 52.28599742799997,345.92159247933887 L 53.14626874960959,345.0652523986064 L 56.9768102299422,342.88939919066615 L 57.84375033900142,342.012942815898 L 57.90243552997708,341.5455313717248 L 56.111203905195,341.1121086324565 L 56.24324554018676,341.6338486993918 L 56.0151736009866,342.0700120009715 L 55.52701964043081,342.36759247945156 L 53.98386628180742,342.714101668098 L 53.18228011392057,342.02381311927456 L 54.91882783360779,340.1026743649272 L 54.766779873520136,338.81216159800533 L 55.09088208526373,337.46069933392573 L 56.283258156850934,334.91718778945506 L 57.0728405341506,333.863578468794 L 58.110501144081354,332.95126377709676 L 59.4882690384984,332.20463913760614 L 59.153496757149696,331.46349909424316 L 58.87607594765723,330.15374141873326 L 58.369249414652586,329.42903627618216 L 58.590652568265796,328.8251547217369 L 58.369249414652586,328.08426134532783 L 58.527966160327196,327.5605119721731 L 57.69703741557896,325.4467906814534 L 57.742385033518076,323.2982405774528 L 57.246228536590934,322.90899930824526 L 56.355280885472894,322.599786695675 L 55.541690930724144,321.67084811930545 L 54.458682702854276,321.2152239185525 L 53.647760247811675,320.5318250071723 L 52.84217286296189,319.55697422963567 L 50.94290714710951,315.9823928886326 L 49.15300927311182,313.5756206193473 L 48.952946193516254,312.81142181158066 L 48.45412219688296,312.46998899278697 L 47.13904074393213,312.09605126979295 L 46.613541670143604,311.6950311482651 L 45.86797319166362,310.4216208430007 L 45.583883594721556,309.0183349556755 L 44.827645080164075,307.6910702903988 L 44.16743683628738,305.8331728944322 L 42.012090384960175,303.3894097424345 L 41.52260264195502,302.38904568133876 L 41.62263419665396,301.92747398104984 L 42.641622265800834,300.0123607632704 L 44.87966148369014,297.7214265706716 L 45.63456624932587,296.6904568398604 L 47.341771356761456,292.91510138940066 L 46.75225209072232,293.24510717205703 L 45.997347325086594,295.2050531031564 L 45.75593784637749,294.9980862000957 L 45.997347325086594,294.5232941391878 L 45.5678785238415,294.37720831122715 L 45.32780282758176,294.0688110833289 L 46.32411703839898,293.4047035644762 L 46.73091201484203,292.8150195647031 L 46.893630012869835,292.1415189988911 L 46.664224322885275,291.48834269377403 L 46.13339024595916,291.46264915482607 L 45.10373213887215,292.25511868158355 L 44.96768925152719,291.642505145981 L 45.75593784637749,290.19156747020315 L 47.000330321490765,291.2246486203512 L 47.684546142816544,291.55325294367503 L 48.01264960505068,290.8919970863499 L 48.25672658532858,290.8919970863499 L 48.25672658532858,291.55325294367503 L 49.47844526730478,290.31596497260034 L 50.42541060782969,289.8805796705419 L 50.70016391761601,289.53174257813953 L 49.70518345758319,289.7277931366116 L 48.852914636954665,289.3722004365409 L 48.42477961815894,288.6421207750682 L 48.7048679292202,287.71606797073036 L 49.15300927311182,289.0788110040594 L 51.054942490532994,289.0788110040594 L 51.88453748449683,288.57181927235797 L 52.65544728934765,287.61873534391634 L 53.43836088292301,287.05232995550614 L 54.30129970610142,287.71606797073036 L 54.095901591703296,287.0144804632291 L 54.51470035687089,286.49946936941706 L 54.31997228041291,286.34537602122873 L 53.85315836407244,286.33591420704033 L 53.85315836407244,286.10883322230075 L 54.2586195897311,285.72767153254244 L 54.30263349041343,285.1546009829035 L 54.12257670238614,284.54912321979646 L 53.85315836407244,284.0666556438664 L 53.52505489997566,284.3504576672567 L 51.6137854270637,282.6869356391253 L 51.924550101161,282.4274961951887 L 52.644777251407504,282.91935502702836 L 52.958209458738565,282.4599258279195 L 53.39701451547444,282.70450204750523 L 53.647760247811675,283.14096850692295 L 53.96786120906472,282.8301702942699 L 53.81447949819267,282.12212172918953 L 54.30129970610142,281.78027386555914 L 53.68777289800346,281.7221742500551 L 53.73445426672697,281.2736007105559 L 54.30129970610142,280.41973692690954 L 53.40501702018082,279.28495037718676 L 53.50371482409537,278.9269748170627 L 54.99085052870214,278.0368108091643 L 54.830800065770745,277.79098060377873 L 55.152234775945544,277.4884273057105 L 55.88713321648538,276.9981452332577 L 57.20621592178941,276.58891698077787 L 58.63866772130132,276.34581771085504 L 60.097794596105814,276.32150805252604 L 61.50357131846249,276.5673079461558 L 66.20372040942311,278.03951226128265 L 69.41139879263937,279.4254418571945 L 70.47706823050976,280.11171267321333 L 71.14661272987723,280.8925968927797 L 71.61209286376834,282.64910035941284 L 72.23228849098086,283.12475275213365 L 73.40465823747218,284.5207421951927 L 74.54235040396452,284.7275196224218 L 75.99080724269152,285.35192867950536 L 76.33224827796221,285.78714275418315 L 76.53764639236033,287.0144804632291 L 75.97346845269203,288.85573185491376 L 75.78007412701845,291.6303343483014 L 75.41996055096388,293.38847332738806 L 76.21221042983234,294.5232941391878 L 76.78172337263823,297.2898148141103 L 76.78172337263823,298.8580390269635 L 77.14583823271096,299.2870050750207 L 77.20985842496157,299.6618564808741 L 77.0057940594852,300.2207739666337 L 75.55333593674004,301.9207062290516 L 75.41996055096388,302.7396365242312 L 75.99080724269152,302.9061372214928 L 76.00414478220046,303.44626671634614 L 73.05254719778895,307.2089614040451 L 72.34965883754194,307.6870074957842 L 71.59475407190621,307.53126778651495 L 70.887864459306,310.50831633538473 L 70.3250202704221,311.9903755951673 L 69.59945808537304,313.2341633271426 L 67.61216463334858,315.0594612454297 L 66.45046488940716,315.4999105116585 L 66.14503522031009,316.04202708473895 L 65.77691914141178,317.3459313675994 L 64.79394243471324,318.6147499930812 L 64.52585787884891,319.6044265909586 L 62.99337452463806,321.558296225965 L 62.80531523376703,322.2173522914527 L 63.00937959738076,322.74761089042295 L 63.20944267697632,324.4674087013118 L 63.093406081199646,324.90282879560255 L 61.12078391760588,326.3231588482158 L 60.62596117332578,326.99473000643775 L 60.60728863067925,327.8345950683579 L 60.760670341551304,328.09783033665735 L 61.9850565250963,329.0992717865156 L 60.8313592877239,331.0454440602334 L 61.07410251535475,332.8670960669406 L 60.96073345467448,333.25807468174025 L 59.59363559819758,334.8139943568967 L 59.26419835165143,334.93619720602874 L 59.26419835165143,335.1453033363214 L 61.66095428168774,335.25936307478696 L 62.70528367720544,335.15073474205565 L 63.76161682792008,334.7108019867446 L 64.10972664877772,335.4684759543743 L 63.51753984764218,337.2366052684374 L 63.74561178870499,337.7377680641366 L 64.54453042149544,338.2674798058579 L 64.85796262696385,338.81216159800533 L 63.70426542125642,338.8556287535466 L 61.95171266235411,340.1787519240752 L 63.354821883141994,340.6759877600707 L 64.66190079972148,340.8471730938181 L 67.3627526499331,340.8634766059695 L 68.74318801239133,341.0672728996724 L 72.61107460781932,342.6529520909535 L 74.37162990309298,343.79583262314554 L 76.3335820287466,344.532456542016 L 82.64890720695257,348.0695710335858 L 87.77852510102093,349.4320171754807 L 88.68281032331288,349.7991762876045 L 89.38703243620694,349.4877700570505 L 90.51405456475914,349.50408802891616 L 94.31125218234956,349.9705219952157 L 94.89543644525111,350.32818198937457 L 95.41826801933348,351.1686674194643 L 94.83675125613809,350.8436166011961 L 94.52331908233464,350.2547450301936 L 94.41928627341986,351.08026338065974 L 95.21153615415096,351.3726798107382 L 96.93211154639721,351.12150945258327 L 98.0125389713794,351.43528162990697 L 100.52521208673716,352.6335729327984 L 101.71758815646172,353.44433205982205 L 103.58220871165395,353.2606084763538 L 105.25603750534356,354.08917961723637 L 105.94425457715988,354.92727464146446 L 106.39773092418909,355.84708742413204 L 106.37045610137284,356.69890646927524 L 105.76736184954643,356.9838862789329 L 106.09307842701674,357.2193925695028 L 106.99886086769402,356.953933409648 L 107.89890716411173,355.86734971567057 L 108.26765402965248,356.017180917901 L 108.5664149466902,356.7969286153093 L 109.95885409787297,356.2471521915868 L 109.98019417189062,357.1044907376636 L 109.55872790515423,357.35218080319464 L 109.80147113464773,357.8298871538136 L 109.32458086125553,357.9963040248258 L 109.38916094042361,358.4405282740481 L 107.98356443271041,358.9160446560709 L 107.22732591815293,358.97321430046577 L 107.1192918587476,359.067136628204 L 107.27000603452325,359.2590678050183 L 107.99962008371949,359.26291432674043 L 105.85931865870953,360.5168017190881 L 107.13217171281576,360.2007048992673 L 109.50007880479097,358.9304811473703 L 110.35728240385652,358.6944598695263 L 110.9004844352603,358.74453777458984 L 111.95519089512527,358.3205807195045 L 112.92696878314018,358.8851416257676 L 113.58513074181974,358.66057999024633 L 113.75733685493469,358.1318518763874 L 114.0203071385622,357.9980473223841 L 114.46109403856099,358.08283710607793 L 114.676040712744,357.5094164822949 L 115.8591046538204,356.8411632758798 L 116.24982316792011,356.09089100989513 L 117.25048722699285,355.73550773458555 L 117.87868535891175,356.10699151898734 L 118.06541090086102,356.5846348966006 L 119.44451254419982,357.5808235699078 L 119.55921539105475,358.3362006035168 L 118.86699706688523,359.4836730788229 L 118.9963712003082,360.1343781155301 L 118.72295164316893,360.518288024934 L 117.99472195468843,363.0862612479832 L 117.18646703660488,364.70420291414484 L 116.9850701726973,364.70420291414484 L 116.89170740358531,364.08722722600214 L 116.63029159978032,364.15396215813234 L 116.08878748491406,364.70420291414484 L 115.65931871533394,364.5938797298586 L 115.08180320449173,364.0204928071471 L 113.52531230635941,363.52476639603265 L 112.79308136738837,363.4662070722552 L 112.95446558110416,364.0204928071471 L 111.63138162530959,363.41854275378864 L 109.79613613337278,363.19656648719683 L 108.73713544756174,362.6368829649873 L 106.62180161103606,362.4380740536144 L 105.04263685457408,361.65921969350893 L 104.21437564305961,361.87298967235256 L 103.62085509300232,362.50207372533623 L 103.51415478438139,363.33410945464857 L 104.03165132179856,364.00142593286 L 104.19436931982636,364.4876438527135 L 103.96229612827301,364.95345638203435 L 103.96229612827301,365.8483724996913 L 103.51415478438139,366.53494226769544 L 104.41043747216463,366.07722342724446 L 104.33841474354267,367.404125684523 L 104.16636049188673,367.69841329206247 L 103.81558320298791,367.87553534435574 L 103.2700778041035,366.9899590774439 L 103.11402859166265,367.57306741259526 L 101.98834021389484,369.2735571154626 L 101.82962346822023,370.18388477154076 L 101.2574430257082,370.2111414843239 L 101.86163358204067,372.94131426140666 L 102.4631566349417,374.01288920501247 L 102.80993267334998,375.19231358205434 L 104.16636049188673,376.8669519490795 L 104.23038068413734,378.4068580609746 L 104.41043747216463,378.71787209191825 L 105.8428892698139,378.7547033880837 L 106.42707353457808,378.9184000097448 L 109.03989761695266,381.0467289030785 L 109.80147113464773,381.4669975140132 L 110.57504844106734,381.6321084880037 L 111.47399866208434,381.1586166751804 L 112.98514194227755,380.8134065475315 L 113.60267003625631,380.31403529050294 L 116.55426762066782,375.473216558923 L 116.9850701726973,374.1205990308663 L 117.1624594591558,372.7000228759134 L 117.19046828709543,369.8172898441553 L 117.43054401502013,368.3851209556451 L 119.44451254419982,362.6491384501569 L 120.97966340184212,359.5680716210045 L 122.10935303196311,358.1483714753995 L 123.4937896784395,357.1453183189733 L 124.6381506305188,356.9874526357744 L 126.32401566393673,358.1796760588186 L 127.54306684434414,358.5158667736687 L 130.3146076388657,358.07623520947527 L 131.58700897544622,358.02451519377064 L 132.93410050682724,358.5158667736687 L 134.39856238663197,359.3393805864034 L 135.0707744192332,359.42922282626387 L 136.41253091581166,358.74453777458984 L 137.85698650218546,358.74453777458984 L 139.96831908635795,357.8856891778996 L 140.3604427743703,357.9346863657702 L 140.97930461913347,357.1970335152 L 141.90626363642514,356.6690074787475 L 143.2813640292734,356.4254177591065 L 148.4189844261855,356.6472338306485 L 149.03517876937985,356.46488158707507 L 150.62234603054821,354.9000626062043 L 151.98544263467193,354.0129928148817 L 153.62596005015075,353.47698150447104 L 154.0821038968861,353.44161128334235 L 154.2768320068717,353.5966971802991 L 155.22112981416285,353.1368884308031 L 155.73595888353884,352.2785473985132 L 156.54688130319118,351.6501436828403 L 159.7345533631742,349.84269235876855 L 160.32140512764454,349.27699863363523 L 160.8642429932952,348.4258008863544 L 163.02492447942495,347.4971833942691 L 163.24899513460696,348.2028157620225 L 163.49307211488485,348.2028157620225 L 163.9198734164238,347.4971833942691 L 163.66912765055895,346.6570176730165 L 163.97322357073426,345.79653493338265 L 165.25095990858972,343.9127102078637 L 167.2649284377694,339.95459643402137 L 167.58636314980686,339.02542419941165 L 167.29693851806223,338.6029785244027 L 166.27795048244298,339.3758912072517 L 165.72977758198977,339.49679160816595 L 164.92819141596556,339.2332577884663 L 164.36801476031542,338.81216159800533 L 165.4563580248505,338.5214797941735 L 168.10252593643963,338.2797042581951 L 168.8841057792306,337.6725747254677 L 168.52399220317602,337.03696208132897 L 167.98782309144735,336.77620964392554 L 166.50468867085874,336.7599128180882 L 166.00853217579424,336.4815132622607 L 165.83247664012015,335.82424949505366 L 165.84848167933524,335.06519073585514 L 166.27795048244298,333.0082810104359 L 167.3022735528648,330.09674027585424 L 168.76940293423831,327.4465390102705 L 169.8430749066174,326.0735355359502 L 171.10347245447338,324.95573155523743 L 172.46656902693212,324.42264690971933 L 176.50117487087846,324.44706240226515 L 178.63918253220618,323.7132665575482 L 180.22634979337454,324.19341543968767 L 180.62647601775825,324.16357503819745 L 180.86655171215534,324.0469269839814 L 181.12529998272657,323.23856499476824 L 181.6828091684729,323.96690172771923 L 182.68579216487706,324.4185776776867 L 184.0035411193967,324.69800273969304 L 188.3489116691053,325.031694975798 L 191.1297887507826,325.77372424525674 L 198.80287550017238,326.4968134551309 L 201.51306363753974,326.38556563318707 L 203.9178221039474,326.69760521978606 L 205.7864114586264,327.68262731703 L 209.08611882850528,328.54018938029185 L 213.23276001773775,328.4831972409738 L 224.51765259355307,329.2566889128648 L 228.2454950492829,329.19426459399983 L 228.99906603060663,328.8604367126245 L 231.3224655147642,328.54018938029185 L 232.5948668178171,329.7235263165785 L 233.22706623375416,329.90538158337586 L 234.01664857938886,329.78595388366375 L 236.0226146057248,328.74644920555875 L 238.18596359342337,328.230807412765 L 238.84750558808446,327.64599256042857 L 240.74410377070308,327.3814121594187 L 240.50536179356277,326.9119683689205 L 239.77313085272908,326.4615396200679 L 238.91285952925682,326.1902065499453 L 238.28066011331975,326.2634657829767 L 238.26332132332027,325.0656074086437 L 239.4010134898126,323.71869183005765 L 242.12987416796386,321.4647299326025 L 243.22221868298948,320.7935181087814 L 243.81440548412502,319.88643377716653 L 246.13513743318617,318.48460769385565 L 245.2148471698165,318.555101258331 L 244.56664271466434,318.9387571103871 L 244.09982882998884,318.48460769385565 L 244.7933809030801,317.57365675468463 L 245.64698347449303,317.7661427918356 L 246.4872484728694,317.264602068346 L 247.9237015247345,315.9823928886326 L 248.75596402026713,315.6896481284639 L 251.52483734674752,315.50668677990325 L 250.55253067798913,316.14232167205773 L 247.2741633504629,317.54654633195605 L 246.580611275509,318.48460769385565 L 256.02225582301617,314.3507151734084 L 259.9995102621615,313.1488006976433 L 269.49050371162593,311.41595170716755 L 270.8335939925164,310.71151162462775 L 272.4194275010377,310.259068717598 L 272.4194275010377,310.02879071445204 L 269.28910684771836,310.960769745172 L 269.5745301954448,310.4866423883941 L 270.1667169947177,310.12090131721925 L 270.8522665333003,309.88520810951013 L 272.2953883688897,309.7578817338217 L 274.4960824716836,310.4094293783419 L 276.2446339465678,311.41595170716755 L 276.8968396540731,311.4985909705283 L 278.7080776039511,311.16668300610036 L 281.1381773967296,311.00953832501546 L 282.3705660831183,311.185648884275 L 283.30419388599694,311.73431961634196 L 283.94306205399334,312.70573905925266 L 284.3231819216162,313.91437876352575 L 284.1657989602536,315.30204489221796 L 284.3231819216162,315.75470181554556 L 284.9033649340272,315.2952687216457 L 285.66493845172226,315.27900597662665 L 285.42352897301316,314.95782170211896 L 284.99272645264864,314.82501418248285 L 285.3675113171339,314.36968671227805 L 285.94235929474235,314.41305038065184 L 286.27046275883913,314.7247320403112 L 285.91034918278456,315.0716580575099 L 286.2878015805036,315.3427019066876 L 287.129400331527,316.43778971908614 L 289.06334362737834,316.89049533288926 L 288.8179328981787,316.43778971908614 L 289.49014493077993,316.6451644292101 L 289.72488562203944,316.24532794195693 L 290.4051001574844,316.6451644292101 L 291.7468566875905,316.18975865573157 L 292.4737526252866,316.4540542465402 L 293.39804414100945,317.37575226137415 L 294.4330372493714,317.64549973618705 L 295.4787003956735,318.1917934375815 L 295.4787003956735,318.5076536160195 L 295.29730982519686,318.73133717512246 L 294.4010271374136,318.3219321061624 L 293.64078737050295,318.3653120097006 L 292.91389143280685,318.61339433921967 L 292.4190687201917,318.9387571103871 L 292.6378043740988,319.2600627698703 L 293.76215896755457,318.9387571103871 L 295.3506600111723,319.62205183820333 L 295.3506600111723,320.5318250071723 L 294.63576786220074,320.5318250071723 L 294.63576786220074,320.7813146553235 L 295.32931993715465,321.03894611424766 L 295.662758436054,320.9060617014766 L 295.87482530251145,319.44308938027825 L 296.1108997799456,319.4552912702784 L 296.691082758829,320.30539117287844 L 296.7084215823561,321.1881040621083 L 299.72403935715556,322.1603951920988 L 300.9244179651141,322.8072836115025 L 301.3445504810661,323.78650817705784 L 301.645978866145,324.08490524452645 L 302.39821613021195,324.19341543968767 L 303.6412748545408,324.08490524452645 L 306.1273923031986,323.0961588085629 L 307.6665444113314,323.09480253839865 L 309.693850511685,323.5111766497139 L 312.2960045579821,323.035128161544 L 313.71378506720066,323.0839526503114 L 318.2018672581762,324.1554367466597 L 319.1341613084078,324.64917062444147 L 316.6853889748454,324.7481915067183 L 315.30495357885957,325.66655401303433 L 313.6230897977948,326.4778198237764 L 312.84684495814145,326.69760521978606 L 310.3260498959571,326.8414179632673 L 308.91893942281604,327.54423004749697 L 308.0399955585599,327.52523450704757 L 306.3354579191655,327.1738230860792 L 306.7822655122727,327.8345950683579 L 306.30878284201026,327.8183127072407 L 305.44184276647866,327.1738230860792 L 305.0017039254308,327.06935174786486 L 302.28484703600407,327.1738230860792 L 300.7657012194395,326.29059895745013 L 300.4749428704381,325.51190525188576 L 300.16017691232264,325.33284116652794 L 299.66001916490495,325.51326180633623 L 299.0838374365121,327.46824803052004 L 298.06885065324605,328.82786874240264 L 298.2369036525488,329.42903627618216 L 298.821087917313,329.8524532247102 L 298.95179580152035,330.58940369891934 L 299.1545264143497,330.58940369891934 L 299.4759611245245,329.9976675871294 L 299.9334387239069,329.7018124946626 L 301.39256559871137,329.42903627618216 L 303.0810981672257,328.74644920555875 L 303.52523825876415,328.82244073518086 L 305.4498452693224,329.7628827765584 L 306.223422607407,329.90538158337586 L 306.7822655122727,329.42903627618216 L 309.8805760536343,329.46296324778814 L 310.60880574025214,329.2010498093441 L 312.84684495814145,329.90538158337586 L 313.45236926339567,330.7278423330281 L 313.7404601443559,331.95487159199547 L 313.9845371246338,331.95487159199547 L 314.39266585186124,331.20560595288407 L 315.0155289489776,330.6952683784766 L 315.79310753941536,330.35324800619856 L 319.19418025016785,329.5416743030073 L 322.4672125428915,329.13726879644673 L 323.18077094107866,329.2010498093441 L 325.32411360554397,330.4211082687834 L 325.8856240436435,330.1130262792576 L 326.1096947323531,330.1130262792576 L 326.216395040974,330.5459723647218 L 327.3327471315861,330.3613911936991 L 327.90092635527253,331.4797872940544 L 328.33706391230226,331.1268819908146 L 328.7972090430558,331.2707572822692 L 329.0012734066695,331.0454440602334 L 328.7972090430558,330.83778027736116 L 329.468087291345,330.58940369891934 L 329.73750559799373,331.01286905130837 L 331.2579851653427,330.58940369891934 L 331.4300394169986,330.9558630795218 L 331.69812397286296,331.0983786438592 L 332.3676685038954,330.85271020629443 L 335.30726229958236,332.65803733980283 L 335.70472098886967,331.86528255813755 L 336.0995121784508,331.7268283346202 L 336.7957317531109,331.77297954284586 L 337.3425709027797,332.20463913760614 L 337.90008009038866,332.0186703281943 L 340.13811927475035,332.20463913760614 L 342.9576752539724,331.4797872940544 L 346.25204762257636,332.27794163604267 L 350.2519758529961,333.5703254551627 L 350.9948768299073,333.16847407096066 L 352.4686749968678,332.9227552814409 L 355.6310057286173,332.8670960669406 L 360.3684999346733,332.01731287431903 L 364.404439561069,331.46349909424316 L 366.7598491255194,331.3915598061867 L 367.78550594858825,331.05087322182953 L 368.32834381237626,331.0454440602334 L 370.0262126661837,331.95487159199547 L 372.19489665701985,331.9684457553085 L 373.1511982847005,332.16527319024317 L 373.96212070435286,332.65803733980283 L 374.3249017819762,332.27115436072927 L 375.21184821613133,332.5602970670443 L 375.50794159807265,332.20463913760614 L 376.9163858219981,332.8494480630616 L 377.81400226056576,332.99606303323526 L 378.4381991401315,332.8670960669406 L 377.4192110709846,332.2589372433722 L 377.15512776747346,331.74854652793147 L 377.30050697363913,331.0454440602334 L 377.0964426100254,330.83778027736116 L 376.73632903397083,331.17981700017117 L 376.0441107098013,330.57311693101656 L 374.61299266293645,329.90538158337586 L 373.60734213143587,329.9257387332618 L 373.2512298412621,329.65702781896107 L 371.1865786258131,329.4371787230484 L 370.4676852244884,329.20919210708234 L 367.6641343161464,329.5756016835803 L 365.5207916535437,329.42903627618216 L 365.1006591375917,329.24583247781266 L 363.1026956476271,326.4262659061933 L 362.40380853787065,325.8388408861356 L 361.71559149958193,325.91074100567494 L 360.95535169914365,326.3340121792862 L 358.9067055564374,326.0138439219445 L 357.54360898397863,326.4696797353681 L 356.30321776121855,326.2634657829767 L 353.4943318516016,326.92553580517415 L 351.6724238656461,327.0666381943738 L 343.11772571876645,325.85918993561063 L 342.3948310650885,324.91232415207196 L 341.6239212285727,324.2856499806512 L 340.25015461817384,323.5111766497139 L 340.25015461817384,323.28332165791653 L 341.25047011487186,323.6915654290933 L 343.0590405613184,325.2243190110894 L 344.0753610972315,325.80763912410475 L 345.29174474440515,325.883608834818 L 345.8105750326067,325.2243190110894 L 346.14001227915287,321.7250904192915 L 345.9879643190652,321.44303354166914 L 344.9929838590324,321.2152239185525 L 343.95398946478963,321.89866772131063 L 341.78397172503173,322.00444279354997 L 340.76231615431607,321.76034807937685 L 340.47422530688345,320.98741931293625 L 341.3918480370194,321.44303354166914 L 341.56923732347786,320.6308065810008 L 342.0413862429559,320.0776064399397 L 340.69829596206546,318.9387571103871 L 341.3064878024161,318.5320552319754 L 341.2344650737941,318.1741705952445 L 340.47422530688345,317.3459313675994 L 342.37749224342406,317.43810533941723 L 342.8456399105489,317.6875213130843 L 342.992352835834,318.27855234849267 L 342.3214745875448,319.58951296657324 L 342.48952758684754,320.30539117287844 L 342.122745225206,320.54945178574417 L 342.0107099134475,320.95758810057305 L 342.1374165471643,321.3833686251892 L 342.48952758684754,321.67084811930545 L 343.07371185161173,321.6871207728982 L 343.6258860025555,321.4023528599646 L 344.5448425151408,320.5318250071723 L 344.86627722531557,320.7772468184121 L 345.8865990117192,320.98741931293625 L 347.1069839447737,321.67084811930545 L 348.3247013427317,321.3426882099593 L 349.243657855317,320.7813146553235 L 349.4877348355949,319.62205183820333 L 350.47471279092133,318.8370801535202 L 351.2589601352811,317.9450766360387 L 351.4830307904631,316.6451644292101 L 351.2589601352811,315.27900597662665 L 351.7044339776039,314.24637223233003 L 352.2886182088405,313.87643731199205 L 352.8447936438024,312.5309583499329 L 352.7087507247925,311.98766598303337 L 351.86048319004476,310.9120013869833 L 350.0265714470297,310.48393315647263 L 349.6024376805872,310.5476004551165 L 349.0195871666074,310.960769745172 L 347.89923382364213,311.05559771705884 L 347.4230836201459,310.848331927089 L 346.9669397715479,309.82425383175723 L 346.41476562060416,309.57637653360143 L 345.9879643190652,310.59772178763524 L 345.475802782923,310.8523959465092 L 344.571517592296,310.3809825811768 L 344.0753610972315,310.48393315647263 L 344.06735856086016,311.3929211954819 L 343.832617867738,311.6205189554021 L 343.2084209881723,311.46201284579 L 342.73093706555665,310.960769745172 L 342.42150614224374,311.5487167481333 L 341.8173155877739,311.8481215207139 L 341.3091553039849,311.44169174158014 L 340.9543767310679,311.3807285935618 L 340.02608396299183,311.6205189554021 L 341.189117455855,310.4758054645499 L 341.5292247068137,310.91335605690256 L 342.14541905000806,311.10843081143685 L 342.42550739459693,309.16190600639675 L 342.7015944868326,308.45084164943546 L 343.2017522342503,308.4413610987831 L 342.8176310826093,308.93029704038054 L 343.0243629477918,309.71724597993307 L 342.84297240898013,310.3403444730211 L 343.1550708338618,310.92825747060124 L 343.40314906463027,310.960769745172 L 343.5578645579517,310.7467325067846 L 343.39514656178653,310.2130127091659 L 343.51518440805376,309.9177172277123 L 344.027345944196,309.64139296952635 L 345.418451378122,310.02879071445204 L 346.5481410063803,309.19712181575596 L 347.2283555418253,309.1415892173536 L 346.83889938890934,308.30050831090193 L 347.12432273477316,308.04318587691523 L 347.62848173454404,308.2436259893002 L 347.90056757442653,308.7907922792947 L 347.5751315802336,309.8892717647832 L 347.6524893101305,310.49883397412486 L 348.33003634400666,310.71151162462775 L 349.13829126395285,309.98273572546896 L 349.8905285280198,309.7876814107876 L 351.63241124898195,310.20217606122606 L 353.1088769156486,311.2262901933864 L 353.4943318516016,311.8481215207139 L 353.52100692875683,312.6122513455339 L 352.8447936438024,314.7111804749584 L 353.075533086434,315.64898978127167 L 353.64504602737725,315.8658361387206 L 354.37327571585774,315.64898978127167 L 356.4179206062108,314.30735172634013 L 357.1594878323376,313.23009840236045 L 357.99175032787025,310.48393315647263 L 358.89870305359364,308.87747464270797 L 358.9067055564374,308.21112191607244 L 359.413532089442,307.09520852472633 L 358.9067055564374,305.9401423300151 L 359.50155985727906,305.9238937476184 L 359.9790437798947,305.6476713893935 L 361.0060343518853,304.3384185421746 L 362.7532521095127,301.0436384403147 L 362.93597639910877,300.467085538432 L 362.66522434167564,298.9216386298649 L 362.93597639910877,298.40338013728615 L 363.85226541012526,299.30324385431595 L 364.51647487282753,300.4129506298341 L 365.4180925954133,302.9467475328129 L 365.48478028923273,304.01485280611087 L 364.9352736379951,306.1066917893477 L 364.95127867907286,307.3227155096829 L 365.5367966927588,306.8731229606783 L 366.10630966722965,306.1256487839855 L 367.32135953195393,303.7752307711635 L 367.52542389556766,303.0563961531734 L 367.61745294742286,298.36143338505644 L 367.23333179578185,296.954278620542 L 366.31304153241217,296.1317163318163 L 367.4213910866529,296.49563858413603 L 368.05892550572753,297.6064186663134 L 368.32567631080747,299.0650773581583 L 368.12294569797814,303.1931199998362 L 367.92821762152016,303.9647618898889 L 366.9852535314858,305.9401423300151 L 369.467369729653,305.5623688675696 L 370.1382479779422,304.3072799810907 L 370.48369026370347,304.1597115910845 L 372.17222283035517,303.8605193771655 L 372.4869887884706,303.99725324916653 L 371.8667931612581,304.44672718970105 L 370.4650177229196,304.78519866173156 L 369.467369729653,305.9401423300151 L 368.9378694035113,306.20012308016885 L 368.50973435118794,306.33417807135265 L 366.5531172286719,306.3802175592864 L 366.12498220801353,306.5725021439139 L 365.62082320824265,307.0762498052791 L 366.2770301681012,308.3045713691972 L 366.9427828025073,308.83134841604624 L 369.7492464259267,308.09964387479704 L 371.3741094637662,307.4399902515579 L 372.55091608688235,306.75714110280387 L 375.842106629163,304.17088144272566 L 376.43222229741514,303.6521637534024 L 377.4223692305386,302.30939203617163 L 378.90768052637577,301.25342453958 L 379.01438086666167,300.55911544070113 L 379.59856509789824,299.7985382829793 L 379.2064414434135,298.47780220548157 L 378.57157452590764,297.26275507360697 L 378.4381991401315,296.56734211416915 L 378.6622697953135,296.56734211416915 L 379.5572187323123,298.40338013728615 L 380.0253663994372,300.2207739666337 L 380.5908780898899,300.16528692713473 L 381.796591700986,298.17605763615575 L 381.6218699142337,297.5333554603858 L 381.796591700986,294.7505425530253 L 382.22205921821296,296.162831885973 L 382.1993853934109,297.9974503897829 L 381.469821954146,299.1110863813665 L 381.14571974240243,300.2207739666337 L 380.0253663994372,300.67550730041694 L 379.01516935043037,302.42503623256925 L 380.26311145722866,302.54175772552844 L 384.05463720858097,301.479456629022 L 386.7394840195775,300.92182899441104 L 387.3530108630657,301.3414005510276 L 387.21163293905556,301.81512953562196 L 386.42738559655845,302.74369747715537 L 385.4013386145234,303.34383245918434 L 385.2795112989843,303.8620026229182 L 384.80780521407723,303.9691606655251 L 384.16812207736075,304.73198113800026 L 384.3516881465912,304.8532979519805 L 385.29015652276576,304.80758114671335 L 387.0537401102483,303.9222832035739 L 390.5685854163021,301.5781986005604 L 392.3201039209962,299.4016180790495 L 392.162179723382,300.3187103116652 L 391.36663073673844,301.33692974736914 L 391.14739324711263,301.9360164569225 L 390.16961069591343,302.2975605868269 L 389.6705352552235,302.83781622722745 L 389.7904187180102,302.9173712346237 L 390.2694555465132,302.51692587905563 L 391.3469685520977,302.35477388161235 L 391.7660718280822,302.13405328814406 L 395.08803405053914,298.5986102144234 L 398.40892337448895,295.940337017877 L 398.74522466771305,294.90298610995524 L 399.4074794910848,294.11885743262246 L 399.8689583744854,294.31633976090234 L 399.3327892944217,294.9980862000957 L 400.12370539084077,295.0062024566578 L 401.896264474839,293.95654575468507 L 402.4884512424469,294.31633976090234 L 404.4170595370233,294.24870844196994 L 406.9138470236212,293.1964171839645 L 407.45268363691866,292.8339539123699 L 407.63407417573035,292.25511868158355 L 407.31130571477115,292.3930627242662 L 407.1886003334075,292.70952888263855 L 407.1245801411569,291.6114020408131 L 407.4300098121166,291.12999070459045 L 408.204920867458,291.3463528107386 L 408.75976255349815,291.2246486203512 L 410.67503327690065,290.08880534605123 L 412.0568024236709,288.4298655964667 L 412.131492651999,288.04727535974234 L 412.8010371513665,287.71606797073036 L 413.2478447444737,286.1845263999421 L 413.195828339085,285.35192867950536 L 412.8010371513665,284.7275196224218 L 412.3755696322769,285.4289684901014 L 411.99945101700723,283.9977333500283 L 411.05648692697287,283.71393991610967 L 410.3042496647686,283.2463715116028 L 408.83712028339505,282.85854717344046 L 408.55036315508187,282.6869356391253 L 408.19425086304545,282.116716923425 L 407.1886003334075,281.78027386555914 L 405.3693598806858,280.02930401079357 L 403.9729194454849,279.3335818608757 L 403.3607263546437,278.3420795518905 L 402.4884512424469,276.31880698981695 L 402.96060016192496,276.5078833521111 L 403.3900689315051,276.91305702971295 L 403.98892448469996,278.0989444964798 L 406.68577508442104,280.49809526244644 L 407.5006987564266,281.0006818212569 L 407.63407417573035,280.41973692690954 L 406.7404589895159,279.28495037718676 L 406.5297258719802,278.2745415463578 L 406.10159081965685,277.51003800996114 L 405.94554160907865,276.5605551515473 L 404.9492273647338,276.1135274786502 L 403.80486644618213,274.8670702679083 L 403.58746454305947,274.8576176655479 L 402.8939124699682,273.6261433365289 L 402.30172566883266,271.7467668944737 L 402.2430405113846,271.21216996666044 L 402.4884512424469,270.20109001139645 L 402.0042985342443,268.78787830937654 L 400.25841456092894,266.17784635408316 L 399.80227068066597,264.74755608954 L 399.64755522087216,263.1555397696793 L 399.29544418118894,261.97380127420183 L 398.513864338398,261.31957612757105 L 397.0747437532991,261.3101339765126 L 394.73667301237583,262.0088741093641 L 389.0162021033466,261.5623773628613 L 387.5797490514815,261.89286436722614 L 386.3126827515662,262.6874176869169 L 385.0136063378304,262.55791149963625 L 384.55879624187946,262.2220110654598 L 384.5027785524726,261.55563283828087 L 384.7908694334328,261.20492165070027 L 386.5354196559638,260.1987045308342 L 388.0705705117434,259.8507285476662 L 388.55072193592787,259.273487178958 L 389.7831106558442,259.4987160899909 L 390.7300759963691,258.4966805164004 L 391.5249933768064,258.26877232501283 L 391.9277870692313,257.66867850429844 L 392.5693227406591,257.5904661169043 L 394.3898969758302,257.9141067065066 L 394.718000439927,257.67407249927055 L 395.28617966361344,256.31081774272025 L 396.4825569856912,255.45464395021554 L 396.8506730981171,254.95310099690687 L 398.28979364968836,256.10991512436885 L 398.67524855211377,257.05378027039114 L 400.22773819975555,258.1406600327464 L 400.94796538352966,258.3024862797465 L 403.04462664574385,258.1406600327464 L 404.56910749711096,258.41846303769853 L 405.2893346492201,258.39014304056764 L 405.37736241705716,257.9141067065066 L 404.8451945576817,257.45966371544637 L 403.60480333305895,257.24795546219684 L 403.3607263546437,256.6600452105049 L 403.35005631670356,255.56250523624476 L 403.4727616980672,255.30363972531632 L 403.80486644618213,255.1553336926736 L 403.9795881975442,256.91084764315747 L 404.5010860208422,257.2371678685304 L 405.49339901283383,257.3261657480616 L 405.8495113365352,258.19595043209847 L 406.40968799218535,258.7637024532305 L 406.58040852472186,260.51027255528606 L 406.9618621431291,260.87849922513124 L 407.58339152112603,260.64650166919455 L 408.8784666508436,260.97966229286976 L 416.2421224769205,261.8294641446555 L 416.8503143172711,261.43288279150147 L 417.50385377556086,260.71933766268194 L 418.4174752533436,260.1987045308342 L 421.10232206247747,259.9518833735492 L 423.2416634745896,259.43263055442367 L 423.8098426666111,259.4987160899909 L 424.2766565848142,260.4050669108983 L 424.9475348331034,261.1051056286087 L 425.7064408492297,262.42031263082754 L 426.749436493963,262.8479532455094 L 432.4552360828966,262.46482976106927 L 433.7783200722188,262.11679109942634 L 436.8299492113292,260.51836534624454 L 438.251730972901,260.28232807910535 z" /><path fill-rule="evenodd" fill="#D2EBD9" stroke="#A6A6A6" stroke-width="0.25" opacity="1" d="M 405.62143939733505,262.0088741093641 L 406.2923176456243,261.76336638838984 L 406.40568673983216,260.9027782898629 L 405.97488418594,260.1339640879305 L 405.25332328490913,259.78868731856346 L 404.5010860208422,260.1987045308342 L 404.4570721536875,259.7495745313354 L 404.79851315543056,258.9740873128176 L 402.01896982453763,258.5937787647126 L 398.52986937761307,258.89182103122585 L 397.29881444200873,258.84192205930594 L 398.0950655732304,260.25805020914413 L 398.7005898784846,260.73282585211564 L 399.5568599514663,260.87849922513124 L 400.2530795261264,260.6680826678639 L 401.30407770723104,259.81296428642236 L 402.01896982453763,259.4987160899909 L 401.5721622314304,260.074618959683 L 401.64285120740533,260.3403254094301 L 402.9339250847697,261.76336638838984 L 403.31804623641074,261.9009580145357 L 405.62143939733505,262.0088741093641 z" /><path fill-rule="evenodd" fill="#D2EBD9" stroke="#A6A6A6" stroke-width="0.25" opacity="1" d="M 408.77443384192884,275.88664371997584 L 409.5186685696244,276.05005360452924 L 410.24289700575173,275.8704378757393 L 411.4592806529254,274.96024622255936 L 410.56299796514213,274.7536396307405 L 411.0511519256979,273.9677568328334 L 410.5870055425912,272.9915510972496 L 409.71206289716065,272.1004778351635 L 408.33829628676176,271.0906739557395 L 403.9409093335271,269.2373348203255 L 403.15799573995173,269.04972182563506 L 405.6134368609637,270.9705290575512 L 406.72445394843817,272.6243129563518 L 407.1005725655705,273.7247106706491 L 408.204920867458,274.6307576741092 L 408.3489663247019,275.5638819471933 L 408.77443384192884,275.88664371997584 z" /><path fill-rule="evenodd" fill="#D2EBD9" stroke="#A6A6A6" stroke-width="0.25" opacity="1" d="M 403.3607263546437,271.3147675570799 L 402.99527777545154,271.6428156476468 L 403.58746454305947,273.7125584896421 L 403.888892930001,274.2391641699942 L 406.08691953122616,274.96024622255936 L 407.9021587315947,277.1359084165888 L 408.4289915561676,277.4519593437435 L 409.2305777221918,277.5208433768712 L 411.01113930903375,278.1327129685087 L 410.90310521796346,277.25341355381534 L 410.2375619709492,276.3903855570825 L 409.08786601759493,276.31880698981695 L 408.0301991160959,275.7988624535501 L 405.273329610005,273.23863304336555 L 404.7251567095518,272.01407420495525 L 403.3607263546437,271.3147675570799 z" /><path fill-rule="evenodd" fill="#D2EBD9" stroke="#A6A6A6" stroke-width="0.25" opacity="1" d="M 410.3189209867269,278.81215475837234 L 409.77608308941126,278.213757653255 L 408.1382331755012,277.66671670635697 L 407.4300098121166,277.24530970153864 L 408.00219028815627,278.39340869965963 L 408.2342634797096,280.40622692287434 L 409.1999013610184,281.09931020787917 L 410.35226481594145,281.4073602911085 L 410.9684591591358,281.3830402813619 L 411.23520996421576,280.995277564507 L 411.16051973588765,280.35353805159684 L 410.3189209867269,278.60683225269895 L 410.3189209867269,278.81215475837234 z" /><path fill-rule="evenodd" fill="#D2EBD9" stroke="#A6A6A6" stroke-width="0.25" opacity="1" d="M 412.131492651999,281.78027386555914 L 413.355878835544,282.53559525392484 L 414.0961123108864,282.5909964380553 L 415.0604164432734,281.34656031115446 L 414.7083053700626,281.18848178186454 L 413.71599241159856,281.2222590481397 L 412.8010371513665,280.645356326364 L 411.936764575541,279.00127074785996 L 411.23520996421576,278.81215475837234 L 411.7673778254539,281.17226869391743 L 412.131492651999,281.78027386555914 z" /><path fill-rule="evenodd" fill="#D2EBD9" stroke="#A6A6A6" stroke-width="0.25" opacity="1" d="M 308.59483721107244,335.1453033363214 L 310.9849243890494,334.0794507652754 L 311.279684022069,333.32188166398555 L 310.80353381857276,332.6865450866753 L 309.9392612427473,332.625457132468 L 309.24304166808724,332.97298460570164 L 309.2643817104399,333.5703254551627 L 308.3907728474587,333.6477108427789 L 307.67854820005596,334.02650053298566 L 307.6505393721163,334.45011020987295 L 307.8626062721014,334.8126365591306 L 308.59483721107244,335.1453033363214 z" /><path fill-rule="evenodd" fill="#D2EBD9" stroke="#A6A6A6" stroke-width="0.25" opacity="1" d="M 267.58723674342036,339.9708985055331 L 268.12073835358024,339.97225700714625 L 268.2221036609262,339.8404828865314 L 267.94468281790614,339.49679160816595 L 268.42750177532434,338.78091966942884 L 268.33013772033155,338.3204525302863 L 267.029727589339,337.6725747254677 L 267.2511307429522,338.12757882638834 L 265.9693931527436,337.8260513993446 L 264.6689829900861,337.8776635553222 L 262.84840878657997,338.5404961168533 L 262.32824471592903,338.3571261281613 L 261.55066615715623,339.0009734716732 L 261.8734346181154,339.7915774646681 L 262.7003621123731,340.37981695856433 L 263.428591767326,340.4273667279631 L 264.2341791857034,340.7656558706658 L 265.0090902745724,340.7276147727389 L 266.6909540556371,340.06191875983495 L 267.58723674342036,339.9708985055331 z" /><path fill-rule="evenodd" fill="#D2EBD9" stroke="#A6A6A6" stroke-width="0.25" opacity="1" d="M 312.84684495814145,346.0357768223621 L 313.53772953152657,343.51723469037097 L 314.59673021547496,341.5509662803961 L 314.7861232571304,340.6379469746025 L 313.7404601443559,340.8634766059695 L 313.7404601443559,339.9708985055331 L 312.97488534264266,340.43687668268103 L 312.0319212526083,339.4234361478593 L 311.1676486786455,337.6725747254677 L 309.280386749655,337.986321587814 L 308.59483721107244,337.8776635553222 L 306.4288207218051,337.1225229429547 L 305.86864403449,336.7599128180882 L 305.9620068054646,337.744559077546 L 304.6762679629028,337.8722306982381 L 304.0120584666729,339.130019641947 L 302.0621101297438,340.4273667279631 L 301.17382994666696,339.6570888013812 L 300.4722753688693,339.48864099313505 L 298.074185654521,339.75761550094467 L 297.58736544661224,339.9708985055331 L 296.4470057785511,339.9708985055331 L 294.4343710001558,340.4273667279631 L 295.2412921693176,342.175998562132 L 295.42535020783544,343.3011569107184 L 295.6787634752691,343.60013374930713 L 297.2512594461441,343.70885485154577 L 298.25957747735083,344.31635632994585 L 298.9304557275027,344.0839519764995 L 299.813400875777,344.4563452177681 L 300.61231950856745,344.57051242655143 L 301.3258779067546,344.44003573502414 L 301.63664257898927,343.97250856191386 L 301.65398140251637,343.06062306195963 L 301.8727170564234,342.65159321948886 L 302.9904028978199,342.30100976792164 L 304.1974502578378,341.51971568877343 L 306.2180875726044,341.20313941454515 L 306.7782642599195,341.37976871896535 L 307.2504131812602,342.02381311927456 L 307.2504131812602,343.39084900717717 L 308.1266895439476,344.3041243823245 L 308.29074129089713,345.1631160416873 L 308.59483721107244,345.4648684057174 L 309.9365937411785,345.69322774687316 L 311.7278253659606,347.4971833942691 L 311.8438619617373,346.8976402131375 L 312.6494493801147,346.3511501669418 L 312.84684495814145,346.0357768223621 z" /><path fill-rule="evenodd" fill="#D2EBD9" stroke="#A6A6A6" stroke-width="0.25" opacity="1" d="M 222.33162981271744,367.69841329206247 L 223.00250806100667,367.69841329206247 L 222.38898121751845,367.1670675284695 L 221.23128276132047,366.9736107864883 L 219.9988940730691,367.1439069933258 L 219.177301581949,367.69841329206247 L 220.17228207550943,367.4613475218648 L 220.9351893775165,367.6003163657151 L 221.55405122227967,368.12896207522135 L 222.10755912400782,369.06915465719067 L 222.55703421868384,368.4886765711708 L 222.54769796319306,368.0799112174427 L 222.33162981271744,367.69841329206247 z" /><path fill-rule="evenodd" fill="#D2EBD9" stroke="#A6A6A6" stroke-width="0.25" opacity="1" d="M 237.93655157834291,369.06915465719067 L 238.7127964179963,369.1291122492403 L 238.89552070759237,368.909723920282 L 238.952872145921,368.2570406222949 L 238.532739629969,367.5921416579513 L 237.57777175307274,367.6548145140987 L 236.54811367951334,368.1671129458118 L 235.89990922249854,368.8565809574211 L 236.38406193070114,369.04053868481424 L 237.93655157834291,369.06915465719067 z" /><path fill-rule="evenodd" fill="#D2EBD9" stroke="#A6A6A6" stroke-width="0.25" opacity="1" d="M 287.9243177436292,371.5836223284714 L 289.3767758347094,370.5450428315671 L 289.5755051635206,370.18388477154076 L 289.70487933047116,369.0582533493871 L 289.3767758347094,368.81978984805755 L 287.97633414901793,368.86748205893673 L 286.5598873887211,369.27764520037454 L 286.7039328124374,369.62786549096927 L 286.5598873887211,369.98218758264557 L 286.99068994261324,370.3201691483846 L 287.5401965919882,371.25240891741123 L 287.9243177436292,371.5836223284714 z" /><path fill-rule="evenodd" fill="#D2EBD9" stroke="#A6A6A6" stroke-width="0.25" opacity="1" d="M 217.68616462685168,367.51311997976154 L 218.40639177896082,367.66298927750904 L 216.70452167280018,366.87552161631174 L 215.13602698594332,366.4641033235239 L 214.37311968393624,366.48998671444133 L 214.25708308815956,366.63575242075603 L 214.95997145026922,366.55946353136096 L 215.7335487548262,366.68888254999183 L 217.68616462685168,367.51311997976154 z" /><path fill-rule="evenodd" fill="#D2EBD9" stroke="#A6A6A6" stroke-width="0.25" opacity="1" d="M 218.23033624142408,370.6063729909947 L 218.9385596383363,370.53822841343936 L 217.56079174391925,370.35287768789567 L 215.4614629484713,370.64453418320045 L 218.23033624142408,370.6063729909947 z" /><path fill-rule="evenodd" fill="#D2EBD9" stroke="#A6A6A6" stroke-width="0.25" opacity="1" d="M 187.92211036756635,374.4587344378233 L 188.2182037513703,374.4260111214826 L 188.5916548985988,374.2951189727755 L 187.66469584964216,374.3605648103403 L 187.36993621475995,374.61689888115507 L 187.6233494821936,374.6878011022927 L 187.92211036756635,374.4587344378233 z" /><path fill-rule="evenodd" fill="#D2EBD9" stroke="#A6A6A6" stroke-width="0.25" opacity="1" d="M 187.1885456778109,375.8032205214258 L 187.15120056271553,375.8277667580405 L 187.23255954496562,375.90686062688474 L 187.1885456778109,375.8032205214258 z" /><path fill-rule="evenodd" fill="#D2EBD9" stroke="#A6A6A6" stroke-width="0.25" opacity="1" d="M 187.2805746961385,375.89595108060166 L 187.29257848486304,375.96959074866027 L 187.31125105917454,375.865949921892 L 187.2805746961385,375.89595108060166 z" /><path fill-rule="evenodd" fill="#D2EBD9" stroke="#A6A6A6" stroke-width="0.25" opacity="1" d="M 187.29257848486304,376.64737656596117 L 187.37660500220954,376.58600554813165 L 187.32992359995842,376.45235451462213 L 187.3005810212344,376.5164521848783 L 187.29257848486304,376.64737656596117 z" /><path fill-rule="evenodd" fill="#D2EBD9" stroke="#A6A6A6" stroke-width="0.25" opacity="1" d="M 187.1565355975181,377.09880755469203 L 187.16853935271502,377.03606956102885 L 187.0565040409565,377.09062430169433 L 187.1565355975181,377.09880755469203 z" /><path fill-rule="evenodd" fill="#D2EBD9" stroke="#A6A6A6" stroke-width="0.25" opacity="1" d="M 186.9618074875325,377.1615459865425 L 186.91245858557522,377.2761129110586 L 186.96981002390385,377.22701263590716 L 186.9618074875325,377.1615459865425 z" /><path fill-rule="evenodd" fill="#D2EBD9" stroke="#A6A6A6" stroke-width="0.25" opacity="1" d="M 319.6303178053349,499.76447539939545 L 319.5076124239713,499.9196436429629 L 319.63832030817866,500.0 L 319.8250458817929,499.77001704927534 L 319.6303178053349,499.76447539939545 z" /><path fill-rule="evenodd" fill="#D2EBD9" stroke="#A6A6A6" stroke-width="0.25" opacity="1" d="M 393.3688133880496,261.0305103873834 L 394.0377356875688,260.72390003246255 L 395.8491114694625,260.7233287168201 L 396.155239187181,260.11024101870134 L 396.2380360234529,258.85641737130936 L 396.6277335565537,258.4381669181166 L 397.63023677654564,257.9080997960409 L 397.51800617203116,256.9043391555315 L 397.0999236460775,256.7092664745869 L 396.54285369068384,256.93253983091563 L 395.7632055077702,257.5462138506118 L 395.06762025877833,258.6894406977808 L 393.03340786136687,258.6341363847023 L 391.9457032829523,258.8286937774392 L 390.8018255829811,259.72002569038887 L 388.45714541710913,260.52763357246295 L 388.5970719475299,260.8623886327259 L 390.55122295953333,260.58424613729585 L 391.77912937290967,260.64033146656584 L 392.5324263609946,261.0863330048742 L 393.3688133880496,261.0305103873834 z" /><path fill-rule="evenodd" fill="#D2EBD9" stroke="#A6A6A6" stroke-width="0.25" opacity="1" d="M 414.51895428448915,265.63175902632065 L 415.1044321786612,265.71419020730536 L 416.7796099334955,267.0763114024885 L 416.9187295921147,266.964533620514 L 416.4149264674634,265.9901440675603 L 416.41349697113037,265.3212516256608 L 416.6910749524832,264.76322930818424 L 417.108505288139,264.5394351335708 L 418.89201191067696,264.45167231501546 L 419.11380027607083,264.03319720970467 L 418.69317087344825,262.8917167413747 L 417.60633954405785,262.8104182932293 L 416.8544888012111,263.06295939313713 L 416.18578270822763,263.09223159134854 L 415.54446406289935,262.92623127403203 L 414.1230981927365,262.92890975100454 L 413.6487898360938,262.70676172466483 L 412.450294803828,262.7645886617247 L 412.3952506314963,263.07137155206874 L 414.0171613562852,265.5770072299056 L 414.51895428448915,265.63175902632065 z" /><path fill-rule="evenodd" fill="#D2EBD9" stroke="#A6A6A6" stroke-width="0.25" opacity="1" d="M 407.7555625308305,269.22919962601736 L 409.98685196600854,269.64928837527987 L 410.6945239007473,270.636407025042 L 413.43456769548357,270.6315156214405 L 414.9338767491281,271.3631082753418 L 415.0741979647428,270.91081236698665 L 414.7623615041375,270.5159273650497 L 414.9595376327634,270.23305326281115 L 415.4114784114063,270.062635107548 L 415.63538520783186,269.1016844253754 L 416.05873042717576,268.6770400889218 L 416.4522543735802,267.9418746215524 L 415.2073545213789,267.0691540633561 L 414.4160703588277,266.98628621164244 L 413.70896703004837,266.3663956352975 L 412.746039589867,264.7868421828607 L 412.4908984787762,264.0808852658374 L 411.19024549238384,262.9246233194135 L 409.94765933416784,262.8421032910701 L 408.7619457542896,262.98532251326833 L 407.18018813245,262.6487779729068 L 406.0513343177736,262.9894541007234 L 403.0842236317694,262.79296374251135 L 401.15778201818466,261.5474754656898 L 400.59173869527876,261.51890105055645 L 400.3660532478243,261.801838014042 L 400.68373208492994,264.96942689607386 L 401.0812266357243,265.7326032865094 L 402.01677029952407,266.8627549367957 L 404.19557859934866,268.245323383715 L 406.25863206759095,269.00538717454765 L 407.7555625308305,269.22919962601736 z" /><path fill-rule="evenodd" fill="#D2EBD9" stroke="#A6A6A6" stroke-width="0.25" opacity="1" d="M 362.52918142080307,305.5325808124617 L 362.80393476225436,305.1832545446232 L 363.0120003782213,304.370911010541 L 362.70523695647717,302.9914190719137 L 362.2837706916034,303.041505542933 L 361.9316596519202,303.92685540381353 L 361.9503321927041,305.30511127214413 L 362.1277214791626,305.65444147691596 L 362.52918142080307,305.5325808124617 z" /><path fill-rule="evenodd" fill="#D2EBD9" stroke="#A6A6A6" stroke-width="0.25" opacity="1" d="M 360.1631018202752,308.385832387954 L 360.5632280446589,307.9551559065003 L 360.4005100466311,307.4473047137726 L 359.9790437798947,307.2631299007917 L 359.5989238806069,307.5989804213168 L 359.36818443983793,308.1894526213873 L 359.08542859368026,309.72672765201423 L 359.39085826464,309.81477207364514 L 359.7589743770659,309.3447586966213 L 360.1631018202752,308.385832387954 z" /><path fill-rule="evenodd" fill="#D2EBD9" stroke="#A6A6A6" stroke-width="0.25" opacity="1" d="M 365.4887815397233,309.89062630571425 L 365.823553789407,309.11314580379985 L 365.66883832775056,308.6377454425674 L 364.9286048859358,307.9863048752304 L 363.61485718376935,307.63419117196463 L 363.59618464298546,308.0648548784666 L 363.99631083384156,308.9885374059668 L 364.6125051770359,309.67119232413825 L 365.4887815397233,309.89062630571425 z" /><path fill-rule="evenodd" fill="#D2EBD9" stroke="#A6A6A6" stroke-width="0.25" opacity="1" d="M 351.5803948454559,320.3772528851405 L 352.09655763208866,319.6627255450003 L 352.0445412285626,319.02823364699725 L 351.7551166303456,318.49951974558644 L 351.56572355516255,318.49951974558644 L 351.4363494217396,319.2031217889162 L 350.0999278947711,320.56572268740274 L 348.15398080833256,321.8851068932563 L 347.5671290755272,322.5021425425075 L 347.3870722874999,323.0961588085629 L 347.4364211577922,323.7024159876164 L 347.7791959438473,324.5949130045483 L 351.5803948454559,320.3772528851405 z" /><path fill-rule="evenodd" fill="#D2EBD9" stroke="#A6A6A6" stroke-width="0.25" opacity="1" d="M 302.29951832443476,335.76993208099157 L 302.5969454590231,335.66808780422434 L 302.71698333881795,335.2362794454675 L 302.09678771160543,334.81127876159735 L 301.21117506176233,334.73931555473246 L 300.5843106806278,335.0529702232452 L 300.67233844846487,335.5390865049558 L 301.15782490745187,335.74820523138624 L 302.29951832443476,335.76993208099157 z" /></g></g></g></svg>