<svg xmlns="http://www.w3.org/2000/svg" xmlns:xlink="http://www.w3.org/1999/xlink" width="224.95896879350767" height="500.0" viewBox="0.0 0.0 224.95896879350767 500.0" preserveAspectRatio="xMinYMin meet"><g transform="matrix(1,0,0,-1,0,500.0)"><g><g><path fill-rule="evenodd" fill="#D2EBD9" stroke="#A6A6A6" stroke-width="0.25" opacity="1" d="M 221.05738240061328,7.967982325935736 L 224.28702890360728,5.618602057453245 L 224.95896879350767,4.3138166514690965 L 223.80474951048382,1.6691330820322037 L 223.138228476746,0.9703226485289633 L 222.40126218018122,0.6180129691492766 L 220.91107295244,0.31767452345229685 L 220.37460479838774,0.0 L 219.73517811181955,0.6180129691492766 L 218.89525328273885,1.0049754318315536 L 217.18830921081826,1.4496767118107527 L 215.16165182879195,2.4198718445841223 L 214.24044395820238,3.135913569945842 L 214.1320665695239,4.775705197127536 L 214.6035082503222,6.5653410700615495 L 215.4109198760707,7.754422942409292 L 217.96862648939714,8.308514580596238 L 219.77852909383364,8.37777405185625 L 221.05738240061328,7.967982325935736 z" /><path fill-rule="evenodd" fill="#D2EBD9" stroke="#A6A6A6" stroke-width="0.25" opacity="1" d="M 193.9196815113537,53.829156456748024 L 196.07639177306555,52.66218240768649 L 197.1059770323336,51.90329783689231 L 198.5094643626362,51.38009806256741 L 198.10304915485904,50.511878517922014 L 195.74042182811536,47.51572574279271 L 195.28523671557195,44.409475821303204 L 194.77586297527887,42.86178623884916 L 194.1472740676254,42.20582434954122 L 192.85758298216388,42.33817060338333 L 190.01809511822648,43.16673805145547 L 188.9180645297747,43.701822351431474 L 186.17069741967134,46.98082096665166 L 185.4879198174458,47.51572574279271 L 184.15487774997018,47.584743921644986 L 183.6346662309952,47.79179580602795 L 183.21199438837357,49.01677601900883 L 182.05777510534972,50.1898729801178 L 181.88979009957984,50.74187686806545 L 179.65179679635912,54.01885035261512 L 179.37543446850032,54.75460295565426 L 179.38627218082547,57.622436930658296 L 179.7493364729453,59.340494660427794 L 181.01193321100436,60.48955364478752 L 180.73015196062624,63.03431015671231 L 181.30997103010304,64.4816405782476 L 182.51296015130356,65.44642651826143 L 183.84600221877918,65.82542748842388 L 186.41454654419795,65.85988148488104 L 187.51457719947211,66.41113171330653 L 188.59835115307942,65.46365413093008 L 188.6579587701708,64.51035560900345 L 188.26780013088137,63.338724130764604 L 188.00769437127747,61.78785195457749 L 188.9180645297747,56.48458468634635 L 189.5033024554141,55.46731808898039 L 190.9013709295541,54.88105562329292 L 192.55412624054588,54.444213054608554 L 193.9196815113537,53.829156456748024 z" /><path fill-rule="evenodd" fill="#D2EBD9" stroke="#A6A6A6" stroke-width="0.25" opacity="1" d="M 187.51457719947211,93.17840565298684 L 186.92933920724317,91.37940308568068 L 185.60171606228687,90.50271918461658 L 184.20906644430943,89.83226968813688 L 183.4179114534054,88.64026480098255 L 182.07403167383745,89.66035339911468 L 176.18913888093084,92.8690426084213 L 175.38714611134492,93.08101444575004 L 174.57431562943384,92.72008718224242 L 174.032428619219,92.75446166819893 L 171.94616368692368,93.36172798206098 L 171.35550683853216,93.65962075977586 L 169.04706827248447,95.49264103546739 L 167.9307810489554,96.0424914653413 L 164.25678714574315,97.27956113149412 L 164.1375720447395,98.47069073584862 L 165.23218377726153,101.60828399960883 L 165.248440412106,102.54710989887826 L 165.00459122098982,103.35421172040515 L 164.04003236815333,104.77938483911566 L 163.92081720079295,105.29446544218808 L 164.35432682209648,110.35823556152172 L 164.76074209646322,111.82832765998319 L 165.644017907558,113.21245104377158 L 167.6598375106696,114.67647285340354 L 170.28257059701718,115.4427252272144 L 172.98658672487363,115.36267130286433 L 175.24625551933423,114.1732356233988 L 175.9181954092346,113.05231274757534 L 176.18913888093084,111.66245085955597 L 176.18913888093084,109.11681019864045 L 176.56304095196538,107.83520289789885 L 177.5384375168942,107.2401239448227 L 180.23703478858806,106.9311289137695 L 180.52965375152417,107.19434745470062 L 181.347903089365,107.41178444004618 L 181.6188466278836,107.27445628447458 L 181.5754956456367,106.64501524786465 L 182.15531478193589,106.30739216925576 L 182.51837900746614,105.8438601559028 L 182.96814526384696,104.77938483911566 L 182.18782798503526,104.72787553397939 L 177.96652821544558,103.5774429179728 L 179.58135153376497,101.58538486412726 L 179.78184967604466,100.90984081360511 L 182.28536766162142,99.71323150093667 L 184.98396486672573,98.15001379605383 L 186.39828997594304,96.89585433434695 L 187.23279594886117,95.2864404709544 L 187.51457719947211,93.17840565298684 z" /><path fill-rule="evenodd" fill="#D2EBD9" stroke="#A6A6A6" stroke-width="0.25" opacity="1" d="M 135.10868550953455,180.42082033050247 L 135.78604425559752,180.27293523098342 L 136.4579841454979,180.3810052559711 L 137.38461087225005,180.8985908892937 L 137.49840718344785,179.70413036318496 L 135.5151007170789,175.6534930251073 L 134.97863262984902,173.87808146700263 L 134.48551545781083,173.03581081773154 L 133.59682079055347,172.6658767373301 L 131.8844578624703,172.30731475003995 L 131.2450311759021,171.4990895660594 L 130.75191400409676,171.35109903384 L 129.98785336036235,171.8292160218116 L 129.60853243339807,172.30731475003995 L 124.3739040393848,171.14618609007448 L 123.20884697744623,171.8292160218116 L 122.80243176990189,173.03581081773154 L 122.50981274037622,173.24069272377528 L 121.7945219350513,172.30731475003995 L 121.38810666068457,174.17400092072785 L 121.05755563848652,174.03742358786985 L 120.93292161496356,173.74150089849718 L 119.86540422961116,173.87808146700263 L 119.43731346423738,173.65044637979008 L 119.1121812982019,173.21792822587304 L 119.52943428466097,175.6534930251073 L 119.1121812982019,175.6534930251073 L 118.42940369597636,174.76581880357116 L 117.3618862440344,174.29919552686624 L 114.98300234903581,173.74150089849718 L 114.98300234903581,174.17400092072785 L 116.13722163182683,175.05033661657944 L 117.61657314747572,175.50555172073655 L 118.80330570042133,176.15420460305177 L 119.1121812982019,177.6107060564682 L 118.55945657589473,177.25797514640726 L 118.10427146335132,177.22383938799612 L 117.81165250041522,177.55381465284154 L 117.60031657922082,179.03290735417977 L 115.27562131173909,180.10229647741653 L 114.3923455006443,180.22743183211423 L 113.57951501873322,180.0056001818739 L 112.70707698632032,179.51073075085878 L 111.33610285934992,177.513990474632 L 110.88633666955866,177.08729535341263 L 110.15478916256689,176.9279920863919 L 109.7104418289382,177.20677143870853 L 109.51536254258826,177.91791518614627 L 108.57789803715423,178.52093345625326 L 108.77839617943391,179.385588318808 L 110.43115155701526,182.85498572327197 L 111.21146883559413,183.70796955144033 L 112.92925061983988,184.94753641728312 L 113.61744714458473,185.7207823630888 L 116.2672745117452,189.67724069487303 L 118.00673178676516,191.13217819551937 L 120.02255145646632,191.4845207275357 L 120.93292161496356,189.88185135950334 L 122.0979786766693,190.5979627990164 L 126.6877615279518,191.37086293078028 L 127.76069776946679,191.1776423214469 L 128.70358119765297,190.52976342570037 L 129.08832091419026,188.8360285749659 L 130.31298552639782,188.1652923563961 L 130.97408770420589,187.14206670061685 L 131.8844578624703,184.47560558351688 L 132.50220905803144,183.3667829867918 L 133.74313023872674,182.85498572327197 L 134.68059474416077,180.84171439660713 L 135.10868550953455,180.42082033050247 z" /><path fill-rule="evenodd" fill="#D2EBD9" stroke="#A6A6A6" stroke-width="0.25" opacity="1" d="M 112.19228432327509,188.09707985958084 L 112.35485040629283,190.24559558858164 L 114.42485877033323,192.23463671957143 L 116.8687691388186,193.1097158822231 L 118.18555450486019,191.91641110857017 L 117.34021081961691,191.62090875091963 L 115.85544044780545,190.76845951960422 L 114.96674571395852,190.52976342570037 L 112.72333355457522,188.87013283977285 L 112.19228432327509,188.09707985958084 z" /><path fill-rule="evenodd" fill="#D2EBD9" stroke="#A6A6A6" stroke-width="0.25" opacity="1" d="M 120.00629482162185,197.43876547249965 L 120.31517041940242,199.39260429237038 L 121.05755563848652,199.73335948539898 L 121.95708801806904,199.0007246225141 L 122.73740529664792,197.67733158404008 L 123.29013001918793,195.2232944453135 L 122.23886926867999,194.87105577788316 L 120.76493660919368,195.85957183269784 L 120.00629482162185,197.43876547249965 z" /><path fill-rule="evenodd" fill="#D2EBD9" stroke="#A6A6A6" stroke-width="0.25" opacity="1" d="M 124.55814561340958,223.94921902636997 L 123.58274904848076,222.67941234866157 L 120.68907242361456,222.05013180500828 L 120.00629482162185,222.39595644455403 L 120.34226476657204,223.18961745477282 L 121.12258204515092,224.0172408465296 L 124.3739040393848,225.75734567572363 L 125.28427419764921,225.77434883546084 L 126.82323326379992,225.37760323402472 L 124.55814561340958,223.94921902636997 z" /><path fill-rule="evenodd" fill="#D2EBD9" stroke="#A6A6A6" stroke-width="0.25" opacity="1" d="M 135.75353105226532,232.55116613325663 L 134.66975703206845,232.64180205436423 L 133.9869794298429,232.94769378681667 L 133.7919000769034,233.5367983279284 L 134.13870773417875,234.49403685238212 L 134.06826247135177,235.9722382600885 L 135.32002143072896,237.04255605698563 L 137.02696550264955,237.19545151037164 L 138.26788668334484,235.9212685599923 L 136.49049734859727,232.97035215701908 L 135.75353105226532,232.55116613325663 z" /><path fill-rule="evenodd" fill="#D2EBD9" stroke="#A6A6A6" stroke-width="0.25" opacity="1" d="M 111.30358965601772,241.57769837859087 L 110.45824590418488,242.10414938884787 L 108.49661499541253,244.034289984731 L 108.11729406844825,244.68515358958393 L 108.26902243937366,246.60359992808662 L 108.11729406844825,247.31657992396504 L 106.52956516412087,248.86123841325752 L 106.54582179896533,249.45528995012864 L 106.82760298298672,250.28691746434197 L 106.95223700674251,252.8606728357263 L 107.24485603603534,253.95790287456475 L 108.44242630107328,255.2699356728699 L 108.54538483382203,256.8080167800654 L 108.11729406844825,258.32330584712327 L 108.77297732350416,257.89361444627866 L 110.18730243248865,258.32330584712327 L 110.83756683138199,258.15934629086405 L 111.16269899741746,257.82011319999583 L 112.01888046157546,256.7345095628407 L 113.17851866711862,254.1219140358735 L 113.84503963426687,253.5280709238723 L 114.42485877033323,250.80170839466155 L 114.98300234903581,250.16811668197624 L 115.50321386801079,250.23600298329256 L 116.60324445669539,250.9487878254149 L 117.25892777810805,251.10717928106897 L 118.36437722295523,250.74513894412667 L 119.1121812982019,250.16811668197624 L 120.8353819383774,247.19209415535443 L 122.04378991574049,246.84126421343535 L 122.54232601029798,245.65290019847453 L 123.17091491818428,244.8379603563808 L 124.36306632705964,244.4757487764582 L 127.89075064915232,244.60026009357534 L 129.41887200297788,244.0739086533431 L 130.52432151441462,242.52869127737358 L 129.64646455924958,242.13245260645635 L 130.20460813771933,240.09446546295658 L 130.06913640187122,239.19991600932553 L 129.3701021648012,239.51697841612622 L 128.70358119765297,239.19991600932553 L 125.17589680897072,241.2153973581735 L 124.09212278877385,242.37019720859826 L 122.99751105625182,242.9022768996656 L 120.70532905869186,243.46829556813464 L 117.93628652417101,242.86831502616405 L 115.96381783648394,241.70223709242418 L 114.0238623523619,240.94932617503218 L 111.30358965601772,241.57769837859087 z" /><path fill-rule="evenodd" fill="#D2EBD9" stroke="#A6A6A6" stroke-width="0.25" opacity="1" d="M 120.46147993416525,260.64113983744755 L 119.55110977566801,260.9068171521649 L 118.99838498677127,261.68686052248813 L 118.18555450486019,263.5350430898834 L 120.12009113305248,263.930645482149 L 120.97085367422551,263.9589023452718 L 121.77826530020684,263.5350430898834 L 122.56400143471546,262.4046863936819 L 122.57483921363018,261.353369299788 L 121.84871062939055,260.66940362751484 L 120.46147993416525,260.64113983744755 z" /><path fill-rule="evenodd" fill="#D2EBD9" stroke="#A6A6A6" stroke-width="0.25" opacity="1" d="M 112.70707698632032,264.9139494714327 L 113.34108475013636,267.51879265368916 L 114.10514539387077,268.0950673413463 L 115.89337250730023,268.2702048118226 L 115.27562131173909,267.2306460372638 L 115.21601376123726,264.81223168456927 L 114.74999093660153,263.77240592287853 L 113.57951501873322,263.06030484172516 L 112.50657877721824,263.0716083678417 L 112.04055595258251,263.71589135285467 L 112.70707698632032,264.9139494714327 z" /><path fill-rule="evenodd" fill="#D2EBD9" stroke="#A6A6A6" stroke-width="0.25" opacity="1" d="M 110.65874411328696,273.95811212901026 L 107.8355128178373,272.9811144415289 L 107.00100684491917,273.29737576423213 L 105.34283261117525,274.5058777628001 L 104.44871908775531,274.7430476946756 L 103.6087942586746,274.4719959460199 L 101.84766149241477,275.71991843916476 L 100.95354796899483,275.883664455032 L 99.97815133747645,275.43194655445404 L 99.33872471749783,276.2563204646576 L 97.12782576144673,277.61134699732065 L 96.07656494458206,278.4807512219995 L 93.9632056648843,279.5307368421927 L 93.24791479296982,280.1290795151144 L 93.61639800784178,281.1055635001976 L 92.71144670550711,281.9183061036747 L 93.57304702559486,282.8382271861192 L 95.20954576833174,283.59443492791615 L 97.16033896477893,284.05716827325523 L 98.14657330862246,284.7455962023232 L 98.79683770728298,284.89794855332 L 101.75554067222401,284.89794855332 L 103.14277143403888,285.61454603495076 L 105.63545164070092,288.16465174383484 L 106.54582179896533,288.7231292561628 L 106.87095396523364,289.1292804814875 L 107.90053929109126,291.8535680042114 L 109.94345324137248,292.5134073945228 L 111.26023867400363,291.058334910078 L 112.31691834703088,288.75697570247576 L 113.61744714458473,284.4239580053836 L 113.87755290418863,282.29079697071575 L 115.14014957589097,281.0096115623601 L 119.90875514503568,278.4638153500855 L 120.39645346091129,277.87104501971044 L 120.47773650242016,276.8435152415186 L 119.97378161828965,276.0078842842486 L 117.70869396789931,274.22352709504776 L 110.65874411328696,273.95811212901026 z" /><path fill-rule="evenodd" fill="#D2EBD9" stroke="#A6A6A6" stroke-width="0.25" opacity="1" d="M 86.02997999917716,268.9820303146262 L 86.71275760116987,269.0159258141648 L 88.12166378763504,266.3322671223432 L 86.55019151815213,264.71051312820055 L 85.16837967908941,264.29798006895 L 83.30970723624341,261.6925128304865 L 83.33138272725046,260.58461207849905 L 82.57274093967862,260.17760513327084 L 81.4943858422339,260.1662992371712 L 81.02294409484603,260.7428892303724 L 80.76283833524212,261.534246888943 L 80.30765328928828,262.1559951642994 L 77.93418825021945,262.6307653875556 L 77.57654281426221,262.7777146329172 L 77.16470868396573,263.3994053124916 L 74.6015832144767,263.2807211596519 L 73.33898647641763,263.79501169826835 L 71.86505381669849,263.24681114964187 L 69.75711339339614,261.59077064390294 L 70.61871371348388,260.754194639856 L 71.21478941803798,260.64113983744755 L 70.56452501914464,259.7705858219415 L 69.7733700282406,259.4483534183819 L 68.02849389705807,259.21656746417284 L 66.6195877105929,257.8031513649039 L 66.22942907130346,257.88230662047863 L 65.77424395876005,258.22153806407005 L 65.41659852280281,258.22719183471054 L 65.26487021846697,257.3282099873759 L 64.8476172320079,257.3282099873759 L 64.30031129927374,258.0406156568788 L 62.47415212634951,258.6738333411049 L 61.66132164443843,260.2680522359442 L 60.767208121018484,261.00856452831067 L 59.96521535143256,261.99208251107484 L 59.80806812434457,263.5350430898834 L 60.257834314135835,263.5350430898834 L 60.94061191636138,262.6759806738701 L 62.07857463089749,262.1559951642994 L 61.905170768965036,263.2637661653571 L 60.94061191636138,265.97628909442574 L 59.28243774920702,268.1967603384983 L 58.995237642666325,268.94813473010436 L 58.89769796608016,271.63692153571174 L 58.58882236829959,272.07747004786506 L 57.53214269527234,272.5405953405425 L 57.331644552759826,274.0315253152512 L 57.402089815586805,278.28880961891264 L 57.743478616466746,279.1751056353096 L 57.03902552323416,282.52783132810146 L 57.03902552323416,284.1700276788324 L 56.88729715254158,284.7004544932861 L 56.26954602357,284.914876510622 L 55.77642885176465,286.3536741626449 L 53.397544889943674,290.1051225240808 L 51.9886387034785,289.15748497867025 L 51.58222349593416,289.67079676524736 L 50.509287187829614,288.36773708602414 L 47.44762569037266,286.31982185388915 L 45.86531564220786,287.7584719720762 L 44.97662097495049,288.1195212288294 L 44.26674895896576,287.74154752795584 L 43.8169827691745,288.44671392673627 L 43.35637880070135,290.57891682884656 L 41.7469744051341,292.32730203378014 L 41.530219627777115,293.2239683929365 L 41.81200087838806,294.86488582356833 L 43.81156391301192,298.7042092522606 L 43.52436380647123,303.27505535422824 L 43.58397135697305,304.16537807835266 L 44.26674895896576,305.64161052228883 L 44.94952662778087,305.7993665074464 L 46.99244057806209,307.2585252849385 L 54.30791504820809,304.37949783424847 L 54.22121315053664,301.94510005088523 L 58.209501441335306,296.8269640705548 L 57.03902552323416,294.4081551951822 L 57.89520698739216,294.06982650444843 L 58.58882236829959,293.5905132491607 L 58.84892812790349,292.919446707936 L 58.40458079427481,292.03967976756394 L 60.192807907704264,290.3420217174571 L 61.5150121296756,289.89078165008686 L 62.533759743440896,288.94312931923196 L 63.221956201596186,288.7231292561628 L 63.44954875786789,288.9938980746083 L 62.988944789394736,290.8383686374873 L 63.270726040005684,290.9511723201722 L 64.8476172320079,288.7231292561628 L 64.78259075898677,288.1082386113703 L 64.26779809594154,287.34099685470574 L 64.35450006020255,286.7937467736192 L 66.21317243622616,285.84588046977296 L 66.6195877105929,285.84588046977296 L 66.8309236317873,286.2239064441528 L 67.52995786885731,286.7937467736192 L 68.00139954965562,285.2195756775327 L 68.8955130733084,283.91044966713525 L 69.65957378339954,283.4138517866377 L 71.20395170571283,282.9680270263925 L 72.08180866087787,282.52783132810146 L 73.57741674478166,281.09991929959506 L 74.4390170648694,279.8807140579447 L 75.38731934921816,279.37832457525656 L 77.16470868396573,280.12343491008505 L 78.03172786021605,279.68879219098017 L 78.03172786021605,279.1751056353096 L 77.58738052658737,278.17590153659694 L 78.77953193546273,276.8435152415186 L 81.66237078141421,274.4719959460199 L 83.36389593058266,274.7769288343843 L 84.2742660890799,273.2126636488829 L 84.84324744623154,269.7842013454065 L 83.59148848685436,267.4792434487026 L 83.46143560716882,266.2023079630453 L 84.48018315411173,265.43382827052847 L 84.55604733969085,266.772988779936 L 84.82699087797664,267.6543889178429 L 86.02997999917716,268.9820303146262 z" /><path fill-rule="evenodd" fill="#D2EBD9" stroke="#A6A6A6" stroke-width="0.25" opacity="1" d="M 45.626885373843834,315.29525332013145 L 44.304681085050106,315.32903500739485 L 43.38347314787097,315.77945000026375 L 41.530219627777115,317.17564469831996 L 38.67989398515783,318.06508365483023 L 37.86164464708418,318.5942169241607 L 36.73993856739253,320.4854244957678 L 36.96753112366423,322.32573151844554 L 38.251803286373615,323.710024824366 L 40.38141920091584,324.2670803098008 L 45.09583607595414,323.6818901319057 L 47.48013889370486,322.882841411978 L 47.696893671294674,321.65041732322425 L 46.90573868039064,319.5285951679107 L 47.382599217351526,317.52467174851336 L 47.49097660603002,315.9765019919723 L 45.626885373843834,315.29525332013145 z" /><path fill-rule="evenodd" fill="#D2EBD9" stroke="#A6A6A6" stroke-width="0.25" opacity="1" d="M 42.40807658294216,329.97141991951503 L 43.67609217716381,330.4888601878192 L 44.59188119182363,330.4776117147412 L 44.759866131003946,330.21889369143173 L 43.81156391301192,329.97141991951503 L 43.81156391301192,329.49895799229853 L 44.494341515237466,329.3133437335491 L 44.75444727484137,328.94210781529546 L 44.651488742092624,328.4864868707955 L 44.26674895896576,328.0364765340928 L 45.800289168953896,327.20391988311894 L 45.87615335453302,326.0056277331896 L 44.9007567896042,325.23484177468345 L 43.35637880070135,325.6849408284761 L 43.13420516718179,325.4036305937916 L 42.40807658294216,325.2010837143753 L 41.43809887394309,325.34736787714064 L 40.73906463687308,325.60054834373295 L 39.22178099537268,326.6188509382773 L 42.40807658294216,329.97141991951503 z" /><path fill-rule="evenodd" fill="#D2EBD9" stroke="#A6A6A6" stroke-width="0.25" opacity="1" d="M 110.88633666955866,331.4337026537396 L 111.33610285934992,330.8038146586623 L 112.0839069345966,330.28638582956046 L 112.21395981451496,329.24022225639783 L 111.69374829530716,324.99853401095606 L 111.79670682782307,323.8394437173847 L 112.70707698632032,321.65041732322425 L 112.70707698632032,319.53985240054317 L 112.90215627267025,318.57732997392304 L 114.46279082982801,314.12410396221094 L 114.98300234903581,310.5706441027578 L 115.30271565890871,309.55118092661723 L 116.09387071640231,307.96833118307404 L 116.34855761984363,306.7458652718924 L 116.51654255902395,304.01323833316565 L 116.34313869709149,301.5956838859711 L 115.48695723316632,299.7526498690713 L 113.61744714458473,298.7042092522606 L 112.1164201379288,298.5971060115844 L 111.3252650804352,299.0762456606608 L 111.00013291439973,300.07393031334504 L 110.75628378987312,302.863684480777 L 109.56955123692751,307.05008342675865 L 108.8380037965253,312.3615653109737 L 107.24485603603534,316.24111036467366 L 106.65419918764383,318.69553799252026 L 106.4807953259442,321.414049715735 L 106.80592755856924,324.2783337009605 L 108.4315885223914,329.67894534696825 L 108.8054905931931,335.20120240049437 L 110.26858547399752,335.3192721377127 L 110.88633666955866,331.4337026537396 z" /><path fill-rule="evenodd" fill="#D2EBD9" stroke="#A6A6A6" stroke-width="0.25" opacity="1" d="M 94.4834171840921,340.13681331812404 L 94.26666240650229,338.866533605149 L 93.71393761760555,337.9446672780905 L 89.2975586282555,334.27347745280713 L 87.76401841826737,333.7168136597611 L 80.81160817341879,333.75055146194063 L 79.39728313102387,334.21162700629793 L 77.12135770171881,335.35862854635343 L 76.73119906242937,336.1344891481567 L 77.3652068930678,337.32630914333276 L 85.49351184512489,345.0988227217458 L 88.0674750932958,345.7674114066176 L 91.29712159652263,347.03708301787265 L 96.97609739052132,348.01454192516394 L 98.6776225399226,347.7336696626153 L 98.73181123426184,347.05955408955924 L 97.20368988020346,345.5763892158866 L 95.44797603669576,343.1097285519354 L 94.75977957854047,341.56433886801824 L 94.4834171840921,340.13681331812404 z" /><path fill-rule="evenodd" fill="#D2EBD9" stroke="#A6A6A6" stroke-width="0.25" opacity="1" d="M 40.132151153637096,369.6815557349473 L 38.65821856074035,371.3361400270369 L 38.34934296295978,372.07643651682884 L 39.525237736990675,371.734334402252 L 41.23760066484101,370.39389097248204 L 42.40807658294216,370.19197268458083 L 41.82283859071322,369.54693733830936 L 41.22676288615912,369.2664783652872 L 40.65236267261207,369.3169613748323 L 40.132151153637096,369.6815557349473 z" /><path fill-rule="evenodd" fill="#D2EBD9" stroke="#A6A6A6" stroke-width="0.25" opacity="1" d="M 104.93641740363091,368.52604122436605 L 105.22903636633419,369.41231771511957 L 105.20194201916456,369.7881277652923 L 104.72508148220368,370.4107174007222 L 104.5408399081789,371.0669321354944 L 104.77927017654292,371.9025823045522 L 105.28864391683601,372.63163452921435 L 105.8847196213901,372.97932373313233 L 106.69755010330118,372.497042971896 L 107.41284097521566,371.28566391183995 L 107.92763363826089,369.92274396447465 L 108.22567145712674,367.4040959023405 L 109.03308308287524,363.5607856591232 L 109.03308308287524,360.6986899848562 L 109.81881921761669,358.44790456071496 L 109.94345324137248,357.6620126105845 L 109.94345324137248,355.2591662108898 L 110.15478916256689,354.6640075915493 L 111.08683481207117,353.55223107500933 L 111.30358965601772,352.9457717516925 L 111.09767259075306,348.2336184673477 L 111.45531796035357,347.228085978888 L 111.33610285934992,345.92472191900015 L 110.88633666955866,343.96945544844493 L 110.82672905246727,341.95772648626007 L 110.43115155701526,339.91199318296276 L 109.56955123692751,340.24360163137317 L 108.85426036501303,340.24360163137317 L 107.24485603603534,339.91199318296276 L 107.62959575257264,341.5193795708474 L 107.53205614280887,343.24459106172435 L 106.75715772039257,346.5202390132472 L 107.20692391018383,348.9132964075543 L 107.17982956301421,356.303442456061 L 106.54582179896533,357.8697166889906 L 104.93641740363091,368.52604122436605 z" /><path fill-rule="evenodd" fill="#D2EBD9" stroke="#A6A6A6" stroke-width="0.25" opacity="1" d="M 41.29178935941309,330.20764500508085 L 38.76659594941884,327.1364131872542 L 37.634052090812474,326.4106955593452 L 37.0163009618409,326.24754463369027 L 35.47192297317088,326.3150556248147 L 33.73246569791809,327.1364131872542 L 31.201853431761265,327.4401909308508 L 28.351527789141983,327.36143435142003 L 25.799240032210946,326.697611635318 L 24.168160212226212,325.2010837143753 L 24.818424611119553,324.525906666182 L 24.276537600904703,324.4471339099109 L 22.85679363575764,324.7284631920047 L 22.033125374931842,324.18830611440353 L 20.992702336749062,322.3763787916396 L 19.648822623537853,321.72357793920673 L 18.1532144730445,321.85864265984856 L 16.711795083247125,322.62961236806586 L 15.541319165378809,323.8394437173847 L 16.375825138296932,325.14482019422576 L 16.397500629536808,326.86638305685483 L 15.69304753630422,328.35148527193815 L 13.395446615992114,329.39771417016163 L 12.430887763388455,330.3988719470799 L 10.95695517025888,332.79461575485766 L 10.22540772985667,334.8750999039039 L 8.047021977137774,337.17452629702166 L 7.559323661495,338.66417775442824 L 6.583927096566185,339.9457164723426 L 6.361753396457061,340.6089240263682 L 7.131232962710783,342.6376997947227 L 7.478040619986132,344.6605712391902 L 8.3667352872435,347.4752624446992 L 8.626841046847403,348.9132964075543 L 8.56723349634558,352.11465673241764 L 8.209588060388342,353.70945716439746 L 6.611021443735808,356.0339589745272 L 6.220862804446369,357.3925542072393 L 5.949919265927747,360.26090846885927 L 5.2671416639350355,362.89301326172426 L 5.315911502111703,363.83574192016385 L 5.949919265927747,364.9747916783672 L 4.801118839066476,365.36193626676686 L 4.096665746066719,366.38866185816005 L 3.348861670587212,370.19197268458083 L 1.918279993114993,372.3400180004537 L 1.3655552708078176,373.4896269834135 L 0.14089065860025585,378.7430486397352 L 0.22759255627170205,379.86413648864254 L 0.704453093232587,380.9907449646853 L 0.9428834281861782,382.65527958539315 L 0.8778569551650435,384.28600764414296 L 0.4551851125434041,385.2890133247711 L 2.265087650390342,389.05388927133754 L 2.135034770704806,390.75673790532164 L 2.373465105658397,391.56328328559175 L 4.47056775027886,392.2185697054956 L 5.185858622426167,392.98583466536365 L 5.949919265927747,392.33618217217736 L 7.071625345619395,389.563643764006 L 7.624350134516135,389.255552417133 L 7.976576647954062,388.527311532991 L 8.225844695232809,386.93626262480393 L 8.485950454836711,386.80740268388763 L 10.035747233079746,384.81833740789443 L 11.032819355838,382.3358378096018 L 12.376699068816379,381.663306519622 L 15.086134053068236,379.6062937756069 L 14.435869654174894,378.9224283217918 L 14.744745251955464,377.3247515973635 L 15.947734439745545,373.9606605831068 L 16.603417694568634,370.7640674195718 L 16.896036657504737,367.33116655261256 L 16.80933475983329,366.50647821603343 L 17.58965203841217,365.69857551297173 L 17.817244528094307,365.2104461523704 L 18.72761468635872,356.67397413402796 L 19.486256540520117,356.11255884333514 L 21.19861940201372,356.0788732569199 L 24.168160212226212,356.4157257594634 L 26.58497616671957,356.42133995727636 L 27.852991761174053,358.3412502699066 L 29.478652791585773,359.9914979438763 L 29.67373207793571,360.9512503466103 L 30.05847186106257,368.55969824804924 L 29.56535468925722,370.5285016554408 L 30.323996476829052,371.49878408550285 L 31.52156674186699,372.21663999557495 L 32.43735575629398,372.5475149578415 L 37.444391660625115,372.07643651682884 L 37.444391660625115,371.56608458794653 L 36.23598368326202,371.3641822312493 L 35.66700232611038,370.78089342662133 L 35.52611166751012,369.90591698070057 L 35.710353241534904,367.03383527346887 L 35.450247481931,366.3269480892923 L 34.675349126104265,365.4460968519561 L 35.78079857095145,365.31705050263554 L 36.23056476074271,364.4978603720665 L 36.49608944286592,362.1466434553731 L 37.634052090812474,358.76224946952425 L 37.86164464708418,357.43746424047276 L 39.47104904265143,358.61069118161686 L 40.300136159406975,358.80715536279604 L 41.530219627777115,358.3412502699066 L 41.21050631767139,357.07817976386286 L 42.40807658294216,351.5306015154347 L 42.08836327283643,350.4298182534985 L 41.30262707150541,349.9467951620463 L 41.9908235964831,348.9132964075543 L 43.35637880070135,348.35158136533573 L 43.81156391301192,348.01454192516394 L 44.694839724339545,346.0932669665199 L 44.25049239071086,343.64917102176696 L 43.838658260181546,343.26144874375314 L 43.35637880070135,344.20544989127666 L 42.90119375474751,344.20544989127666 L 43.36179765686393,341.8959091575816 L 44.54311135341413,338.3887444350403 L 46.10374591080472,335.1843351861462 L 47.696893671294674,333.7842891844921 L 48.26587502844632,333.49189278203994 L 48.390509052202106,332.78899235953577 L 47.94616171857342,331.4337026537396 L 47.46930111502297,331.03440185729414 L 45.85447786329314,331.4337026537396 L 43.36179765686393,331.4337026537396 L 42.40807658294216,331.0850180769339 L 41.29178935941309,330.20764500508085 z" /><path fill-rule="evenodd" fill="#D2EBD9" stroke="#A6A6A6" stroke-width="0.25" opacity="1" d="M 66.21317243622616,426.3050471183378 L 66.89053118228912,426.11504730093293 L 70.97635914944112,424.11432046000846 L 72.08180866087787,422.9741266516503 L 71.64288018317893,419.3517798318062 L 71.44238197407685,418.75915499939583 L 69.35069818561897,415.42661564750597 L 68.41865253634751,414.4535575339105 L 67.69252395210788,414.0508948743809 L 66.96097651170567,413.98378344392404 L 62.49040876142681,414.36407787399366 L 61.58003860292956,414.01733919559047 L 60.62089860625565,414.0844505489804 L 58.643011062638834,415.0016093128361 L 58.35039209993556,415.3818786677439 L 59.30411317385733,417.5626546216663 L 58.89769796608016,421.33075916115195 L 59.060264049097896,422.5716853570193 L 59.51003023888916,423.169754057657 L 61.75344246486202,424.87440338009037 L 63.93724707374349,424.89675814053044 L 64.52248499938287,425.1817792830989 L 65.54665140248835,426.0926942171063 L 66.21317243622616,426.3050471183378 z" /><path fill-rule="evenodd" fill="#D2EBD9" stroke="#A6A6A6" stroke-width="0.25" opacity="1" d="M 62.07857463089749,441.5366654805839 L 62.0352236488834,442.9602131131105 L 61.78595566819422,443.84219037904404 L 61.108596922131255,444.5678311747033 L 59.80806812434457,445.55576584488153 L 58.23117693234235,447.96115852543153 L 57.84101829305291,449.37855197302997 L 57.9493956817314,451.2142803359311 L 58.46960720070638,452.6871747060213 L 59.37997735920362,453.81964929564856 L 60.59380425908603,454.6954491874203 L 63.47664310503751,455.95049334014766 L 64.48455293988809,455.9672266265843 L 65.42743630171753,455.3703962606378 L 66.6195877105929,454.02605225821026 L 68.527029925026,450.3940873274114 L 69.35069818561897,449.8082094085403 L 68.52161106886342,448.70893294527195 L 68.02849389705807,448.4020148096606 L 68.45658459560946,447.42541800951585 L 70.61871371348388,446.3315585812088 L 71.12808752036653,446.35388300428167 L 71.21478941803798,445.79018203774467 L 71.02512898761779,445.5222775551956 L 69.75711339339614,445.55576584488153 L 68.66792051703669,444.74644539505243 L 67.46493139583617,444.15477819088846 L 66.05060635320842,443.80869848281145 L 64.35450006020255,443.6803121471312 L 64.79884739383124,443.373297204962 L 64.78259075898677,443.16117429803126 L 64.35450006020255,442.7425023391843 L 65.12397955986671,441.13469949294813 L 64.2136094016023,439.923157017678 L 62.81554092746228,439.8003226229921 L 62.07857463089749,441.5366654805839 z" /><path fill-rule="evenodd" fill="#D2EBD9" stroke="#A6A6A6" stroke-width="0.25" opacity="1" d="M 78.71450552879833,462.0235269465484 L 79.32141894567758,461.60534706618637 L 79.6357133993879,460.62397597380914 L 79.64655111171305,459.51986229466274 L 79.39728313102387,458.7056694906205 L 77.70659569394775,458.03643921692856 L 76.38439140538685,457.7575851061847 L 75.25726646953262,457.7687393357046 L 74.78040586598217,457.02138697565533 L 74.21142457518727,456.97119041811675 L 74.10846604267135,457.60700184083544 L 76.53611977607943,460.88047640700825 L 77.46816542558372,461.68898396077566 L 78.71450552879833,462.0235269465484 z" /><path fill-rule="evenodd" fill="#D2EBD9" stroke="#A6A6A6" stroke-width="0.25" opacity="1" d="M 53.85273000225425,469.5099122200627 L 54.35126603045501,468.6181928811129 L 55.02862477628514,468.31165305897593 L 55.80894205486402,468.47885727509856 L 56.6217725367751,469.0417655950878 L 56.47546308883466,467.2582269839477 L 55.67888917517848,466.57262735418044 L 52.942359843989834,466.7008311145473 L 52.2487444630824,467.715277351439 L 51.70685745286755,468.8188339511398 L 51.67976310569793,469.92231592629105 L 52.49259365419857,470.9031262618955 L 54.22121315053664,471.3545021577738 L 55.321243739221245,470.7136561339721 L 55.32666259538382,469.82200251403265 L 53.85273000225425,469.5099122200627 z" /><path fill-rule="evenodd" fill="#D2EBD9" stroke="#A6A6A6" stroke-width="0.25" opacity="1" d="M 3.641480633523315,488.2805181359872 L 4.67106595938094,489.20457393699326 L 6.06371557735838,489.71667917002924 L 7.391338722314686,489.6164858855773 L 8.225844695232809,488.70358618348837 L 8.14456165372394,487.4955871650018 L 7.32631224906072,486.54359988565557 L 6.161255187354982,486.0926395293791 L 5.007035904331133,486.3654441500548 L 4.503081020200625,486.76072457199916 L 4.145435584243387,487.16712983185425 L 3.641480633523315,488.2805181359872 z" /><path fill-rule="evenodd" fill="#D2EBD9" stroke="#A6A6A6" stroke-width="0.25" opacity="1" d="M 3.641480633523315,493.87973506818525 L 3.2513219942338765,493.6905276537873 L 3.056242707883939,492.19905377505347 L 2.265087650390342,491.55344916088507 L 1.192151408875361,492.1322682178579 L 0.606913483235985,492.8223724493291 L 0.4064152743667364,493.8129562125541 L 0.4551851125434041,495.28202886972576 L 0.9103701584972441,497.89710543467663 L 0.7478040752466768,498.40894518606365 L 0.07586418534629047,499.18780193896964 L 0.0,500.0 L 2.259668794227764,499.37694743135944 L 2.720272762933746,499.0542861924041 L 3.072499342728406,498.34218439413235 L 3.348861670587212,496.7954844767228 L 3.641480633523315,496.2168263543863 L 3.641480633523315,495.79394820984453 L 3.186295587569475,494.98154721595347 L 3.2729974852409214,494.502991220681 L 3.641480633523315,493.87973506818525 z" /><path fill-rule="evenodd" fill="#D2EBD9" stroke="#A6A6A6" stroke-width="0.25" opacity="1" d="M 10.133286909665912,473.31032053078525 L 9.18498469190672,476.0179917498026 L 10.209151095012203,476.5527876196429 L 11.200804295018315,475.47203638684005 L 10.133286909665912,473.31032053078525 z" /></g></g></g></svg>