<svg xmlns="http://www.w3.org/2000/svg" xmlns:xlink="http://www.w3.org/1999/xlink" width="453.6710369065404" height="500.0" viewBox="0.0 0.0 453.6710369065404 500.0" preserveAspectRatio="xMinYMin meet"><g transform="matrix(1,0,0,-1,0,500.0)"><g><g><path fill-rule="evenodd" fill="#D2EBD9" stroke="#A6A6A6" stroke-width="0.25" opacity="1" d="M 20.553353307197,283.67836783678365 L 17.105108602236797,274.57745774577455 L 14.155951946678728,268.9268926892689 L 13.203147488729199,266.026602660266 L 13.15777584787446,260.3760376037604 L 13.88372210155029,255.4255425542554 L 13.566120615567115,250.8250825082508 L 10.435477396590088,246.17461746174615 L 15.789331017449351,240.27402740274027 L 28.76562030190485,233.1233123312331 L 33.21204110566932,227.4227422742274 L 43.01231553029306,228.5228522852285 L 47.00501992551013,217.7217721772177 L 60.9794853087699,211.37113711371137 L 72.95759849442113,207.77077707770775 L 78.3114521152804,215.92159215921592 L 83.61993409528492,214.1214121412141 L 90.28956530093163,216.8216821682168 L 92.92112047050652,223.1223122312231 L 94.91747266811507,233.023302330233 L 102.90288145854922,236.67366736673665 L 107.57616046658738,243.87438743874387 L 102.26767848658287,246.57465746574655 L 96.9138248657236,245.67456745674565 L 88.2932131033231,242.07420742074206 L 83.61993409528492,246.57465746574655 L 80.30780431288893,254.72547254725472 L 77.63087750245931,260.12601260126013 L 71.6418209096337,261.976197619762 L 65.65276431680807,258.3258325832583 L 59.66370772398246,261.02610261026103 L 51.678298933548305,262.87628762876284 L 45.68924234072269,265.57655765576555 L 41.69653794550561,270.0770077007701 L 43.69289014311415,276.4276427642764 L 29.718424759854383,277.3277327732773 L 20.553353307197,283.67836783678365 z" /><path fill-rule="evenodd" fill="#D2EBD9" stroke="#A6A6A6" stroke-width="0.25" opacity="1" d="M 33.21204110566932,227.4227422742274 L 40.51687528328239,209.7209720972097 L 41.92339614977931,207.7207720772077 L 45.41701249559425,204.3204320432043 L 46.68741843952696,201.62016201620162 L 46.64204679867222,198.7198719871987 L 43.91974834738785,194.56945694569455 L 43.60214686140467,192.31923192319232 L 44.82718116448264,190.1190119011901 L 48.86525720055445,186.66866686668666 L 50.36252134876086,184.5184518451845 L 50.997724320727215,181.8181818181818 L 50.544007912179815,177.06770677067706 L 50.90698103901774,174.56745674567455 L 53.17556308175471,168.81688168816882 L 55.262658561072726,166.4166416641664 L 58.347930139195014,165.96659665966595 L 76.08824171339816,166.36663666366636 L 80.08094610861524,165.7165716571657 L 112.15869619291608,142.06420642064205 L 116.51437371497107,137.36373637363735 L 127.13133767498012,148.5148514851485 L 132.6213062184036,152.8152815281528 L 144.28181791807165,158.36583658365836 L 148.77361036269087,165.4165416541654 L 144.28181791807165,169.4169416941694 L 139.9715120368714,172.2172217221722 L 131.84998832387302,178.11781178117812 L 125.77018844933794,186.91869186918692 L 126.04241829446637,209.2209220922092 L 124.95349891395261,218.8218821882188 L 127.72116900609173,226.37263726372635 L 133.98245544404577,230.42304230423042 L 124.22755266027679,238.47384738473846 L 116.24214386984264,243.87438743874387 L 107.57616046658738,243.87438743874387 L 102.90288145854922,236.67366736673665 L 94.91747266811507,233.023302330233 L 92.92112047050652,223.1223122312231 L 90.28956530093163,216.8216821682168 L 83.61993409528492,214.1214121412141 L 78.3114521152804,215.92159215921592 L 72.95759849442113,207.77077707770775 L 60.9794853087699,211.37113711371137 L 47.00501992551013,217.7217721772177 L 43.01231553029306,228.5228522852285 L 33.21204110566932,227.4227422742274 z" /><path fill-rule="evenodd" fill="#D2EBD9" stroke="#A6A6A6" stroke-width="0.25" opacity="1" d="M 136.8862404587491,80.2080208020802 L 138.474247888665,73.65736573657365 L 146.6411432425181,52.2052205220522 L 147.82080590474132,45.25452545254525 L 149.09121184867405,40.65406540654065 L 149.09121184867405,36.203620362036204 L 146.36891339738966,29.852985298529852 L 144.2364462772169,27.1027102710271 L 142.3762090021726,25.7025702570257 L 140.7882015722567,23.75237523752375 L 139.56316726917873,19.55195519551955 L 139.60853891003347,17.001700170017 L 140.9243164948209,12.7012701270127 L 140.7882015722567,10.15101510151015 L 146.77725816508232,3.7503750375037503 L 149.90790138405936,2.05020502050205 L 154.17283562440485,2.25022502250225 L 156.07844454030393,3.9003900390039004 L 158.89148627329777,9.2009200920092 L 160.57023698492313,10.35103510351035 L 163.02030559107908,8.8008800880088 L 167.96581444424567,1.85018501850185 L 170.41588305040162,0.0 L 175.99659487553458,1.9501950195019502 L 181.30507685553908,7.9007900790079 L 185.61538273673935,15.35153515351535 L 188.3376811880237,21.9021902190219 L 189.38122892768274,30.3030303030303 L 186.11447078614148,44.2044204420442 L 186.43207227212466,52.15521552155215 L 189.60808713195644,69.35693569356935 L 192.23964230153132,76.90769076907691 L 197.2758944364074,83.05830583058305 L 196.09623177418416,92.65926592659265 L 192.7841019917882,98.95989598959895 L 187.43024837092892,98.05980598059806 L 180.12541419331586,98.95989598959895 L 172.1400054028817,101.6101610161016 L 162.15824441483903,100.76007600760076 L 152.8570580396174,98.05980598059806 L 144.87164924918326,89.95899589958995 L 136.8862404587491,80.2080208020802 z" /><path fill-rule="evenodd" fill="#D2EBD9" stroke="#A6A6A6" stroke-width="0.25" opacity="1" d="M 136.8862404587491,80.2080208020802 L 144.87164924918326,89.95899589958995 L 152.8570580396174,98.05980598059806 L 162.15824441483903,100.76007600760076 L 172.1400054028817,101.6101610161016 L 180.12541419331586,98.95989598959895 L 187.43024837092892,98.05980598059806 L 192.7841019917882,98.95989598959895 L 196.09623177418416,92.65926592659265 L 197.2758944364074,83.05830583058305 L 203.94552564205412,86.90869086908691 L 246.640239686364,101.5101510151015 L 245.55132030585025,106.5106510651065 L 240.7872980161026,112.31123112311231 L 235.61493095866228,115.41154115411541 L 231.07776687318835,116.7116711671167 L 223.81830433643003,117.46174617461746 L 216.0143821094148,120.26202620262026 L 213.38282693983993,125.6125612561256 L 214.01802991180628,131.4131413141314 L 215.74215226428637,135.76357635763574 L 214.7439761654821,144.76447644764477 L 208.0743449598354,145.66456645664564 L 198.7731585846138,145.66456645664564 L 190.78774979417966,151.06510651065105 L 189.42660056853748,156.46564656465645 L 186.11447078614148,160.96609660966095 L 182.8023410037455,168.16681668166817 L 176.8132844109199,169.06690669066907 L 173.45578298766915,160.96609660966095 L 168.82787562048574,161.86618661866186 L 166.1509488100561,165.46654665466545 L 162.83881902766012,168.16681668166817 L 158.84611463244303,161.86618661866186 L 154.85341023722594,154.66546654665467 L 150.1801312291878,155.56555655565555 L 144.28181791807165,158.36583658365836 L 132.6213062184036,152.8152815281528 L 127.13133767498012,148.5148514851485 L 116.51437371497107,137.36373637363735 L 118.60146919428908,135.11351135113512 L 123.5469780474557,128.3128312831283 L 133.34725247207942,106.9106910691069 L 136.16029420507328,97.55975597559755 L 136.84086881789437,91.40914091409141 L 136.8862404587491,80.2080208020802 z" /><path fill-rule="evenodd" fill="#D2EBD9" stroke="#A6A6A6" stroke-width="0.25" opacity="1" d="M 378.08188324254434,141.1141114111411 L 382.7097906097278,137.9137913791379 L 388.0182725897323,138.06380638063806 L 398.9074663948698,140.9140914091409 L 399.4972977259814,140.6140614061406 L 396.86574255640653,150.3150315031503 L 386.7478666457996,165.66656665666565 L 387.02009649092804,174.16741674167415 L 392.5554366752063,180.01800180018 L 407.9817945658177,184.7184718471847 L 413.33564818667696,189.86898689868985 L 414.5153108489002,195.3195319531953 L 413.19953326411274,206.47064706470647 L 413.7439929543696,211.87118711871187 L 407.936422924963,211.92119211921192 L 400.13250069794776,214.6214621462146 L 389.10719197024605,217.7217721772177 L 391.1035441678546,225.82258225822582 L 385.114487575029,233.97339733973396 L 379.1254309822034,240.27402740274027 L 373.7715773613441,250.2250225022502 L 367.14731779655216,250.2250225022502 L 362.47403878851395,253.82538253825382 L 357.16555680850945,251.1251125112511 L 358.4813343932969,242.97429742974296 L 352.4922778004713,239.37393739373937 L 347.8189987924331,242.97429742974296 L 342.5105168124286,248.37483748374837 L 336.52146021960294,246.57465746574655 L 329.26199768284465,249.67496749674967 L 324.04425898454963,243.07430743074306 L 323.09145452660005,237.57375737573756 L 326.1767261047224,231.1231123112311 L 328.58142307002356,224.62246224622461 L 326.9026723583982,218.97189718971896 L 319.50709489907564,218.17181718171815 L 317.873715828305,211.37113711371137 L 324.54334703395176,195.16951695169516 L 332.48338418353114,199.96999699969996 L 341.8299421996075,204.17041704170416 L 344.5068690100371,197.86978697869785 L 349.1801480180753,195.16951695169516 L 353.71731210354926,190.16901690169016 L 359.161909006118,181.66816681668166 L 367.7825207685185,179.86798679867985 L 370.45944757894813,172.66726672667266 L 373.13637438937775,166.36663666366636 L 376.4485041717737,160.96609660966095 L 379.76063395416975,151.96519651965195 L 378.08188324254434,141.1141114111411 z" /><path fill-rule="evenodd" fill="#D2EBD9" stroke="#A6A6A6" stroke-width="0.25" opacity="1" d="M 378.08188324254434,141.1141114111411 L 379.76063395416975,151.96519651965195 L 376.4485041717737,160.96609660966095 L 373.13637438937775,166.36663666366636 L 370.45944757894813,172.66726672667266 L 367.7825207685185,179.86798679867985 L 359.161909006118,181.66816681668166 L 353.71731210354926,190.16901690169016 L 349.1801480180753,195.16951695169516 L 344.5068690100371,197.86978697869785 L 341.8299421996075,204.17041704170416 L 332.48338418353114,199.96999699969996 L 324.54334703395176,195.16951695169516 L 327.62861861207404,178.51785178517852 L 313.06432189770265,176.9176917691769 L 313.06432189770265,169.8169816981698 L 316.5579382435176,165.46654665466545 L 321.185845610701,167.56675667566756 L 322.1386500686505,164.36643664366434 L 317.6014859831766,156.6156615661566 L 316.87553972950076,150.8150815081508 L 323.5451709351475,141.8141814181418 L 332.61949910609536,138.6138613861386 L 339.5159885160158,137.96379637963796 L 346.6847077710646,131.4131413141314 L 348.3180868418352,132.7132713271327 L 352.8552509273092,133.1133113311331 L 361.88420745740234,129.6129612961296 L 364.65187754954144,129.9129912991299 L 364.379647704413,132.26322632263225 L 362.5194104293687,135.36353635363537 L 362.11106566167604,138.4138413841384 L 366.3759999020216,140.8140814081408 L 369.3705281984344,139.86398639863987 L 371.77522516373557,137.36373637363735 L 374.4521519741652,136.66366636663665 L 378.08188324254434,141.1141114111411 z" /><path fill-rule="evenodd" fill="#D2EBD9" stroke="#A6A6A6" stroke-width="0.25" opacity="1" d="M 346.6847077710646,131.4131413141314 L 339.5159885160158,137.96379637963796 L 332.61949910609536,138.6138613861386 L 323.5451709351475,141.8141814181418 L 316.87553972950076,150.8150815081508 L 317.6014859831766,156.6156615661566 L 322.1386500686505,164.36643664366434 L 321.185845610701,167.56675667566756 L 316.5579382435176,165.46654665466545 L 309.20773242504976,163.66636663666367 L 303.89925044504525,160.06600660066005 L 301.9028982474367,151.96519651965195 L 297.2296192393986,151.96519651965195 L 291.921137259394,149.26492649264927 L 288.60900747699804,151.06510651065105 L 281.9393762713513,151.06510651065105 L 285.25150605374733,143.86438643864386 L 285.25150605374733,141.16411641164115 L 281.2588016585302,137.56375637563755 L 277.26609726331316,135.76357635763574 L 277.26609726331316,130.36303630363037 L 278.6726181298101,122.96229622962295 L 280.6689703274186,122.9122912291229 L 282.4384643207535,122.41224122412241 L 285.9320806665684,120.5120512051205 L 295.77772673204686,112.81128112811281 L 304.988169825559,103.76037603760375 L 309.20773242504976,96.75967596759675 L 311.612429390351,91.75917591759175 L 314.8338158910375,88.45884588458846 L 328.08233502062143,85.75857585758575 L 330.8046334719058,86.35863586358636 L 331.3037215213079,89.55895589558955 L 331.0768633170342,96.65966596659665 L 330.66851854934157,99.65996599659965 L 329.35274096455413,103.41034103410341 L 329.6703424505373,106.5106510651065 L 344.9152137777298,129.96299629962996 L 346.6847077710646,131.4131413141314 z" /><path fill-rule="evenodd" fill="#D2EBD9" stroke="#A6A6A6" stroke-width="0.25" opacity="1" d="M 278.6726181298101,122.96229622962295 L 277.26609726331316,130.36303630363037 L 277.26609726331316,135.76357635763574 L 281.2588016585302,137.56375637563755 L 285.25150605374733,141.16411641164115 L 285.25150605374733,143.86438643864386 L 281.9393762713513,151.06510651065105 L 275.9503196785257,152.86528652865286 L 273.2733928680961,157.36573657365736 L 268.6454855009127,160.06600660066005 L 265.968558690483,165.46654665466545 L 261.29527968244486,165.46654665466545 L 261.29527968244486,158.26582658265826 L 261.97585429526595,152.86528652865286 L 258.66372451287,152.86528652865286 L 253.9904455048318,156.46564656465645 L 247.72915906687774,158.36583658365836 L 244.19017108020805,156.56565656565655 L 243.41885318567748,147.36473647364735 L 234.61675485985802,144.76447644764477 L 228.4008400627587,138.06380638063806 L 223.27384464617313,136.06360636063604 L 218.7366805606992,135.16351635163517 L 215.74215226428637,135.76357635763574 L 214.01802991180628,131.4131413141314 L 213.38282693983993,125.6125612561256 L 216.0143821094148,120.26202620262026 L 223.81830433643003,117.46174617461746 L 231.07776687318835,116.7116711671167 L 235.61493095866228,115.41154115411541 L 240.7872980161026,112.31123112311231 L 245.55132030585025,106.5106510651065 L 246.640239686364,101.5101510151015 L 254.12656042739602,104.06040604060405 L 260.70544835133325,107.36073607360736 L 272.41133169185605,118.9118911891189 L 278.6726181298101,122.96229622962295 z" /><path fill-rule="evenodd" fill="#D2EBD9" stroke="#A6A6A6" stroke-width="0.25" opacity="1" d="M 251.40426197611166,443.4443444344434 L 211.20498817881244,466.996699669967 L 209.52623746718706,469.8969896989699 L 210.5697852068461,470.1970197019702 L 211.34110310137666,474.8474847484748 L 211.74944786906931,479.99799979998 L 211.56796130565036,481.8481848184818 L 214.56248960206315,484.59845984598456 L 217.19404477163806,483.7483748374837 L 218.01073430702337,483.69836983698366 L 215.51529406001268,488.74887488748874 L 213.79117170753258,491.09910991099105 L 211.20498817881244,493.8493849384938 L 206.25947932564583,497.999799979998 L 199.77133468341808,500.0 L 193.28319004119032,499.1999199919992 L 187.02190360323627,496.3496349634963 L 166.69540850031296,480.998099809981 L 160.93321011176104,478.6978697869787 L 152.4940849127795,478.34783478347833 L 150.36161779260675,476.7976797679768 L 148.63749544012666,472.19721972197215 L 149.31807005294775,468.1968196819682 L 152.44871327192476,461.4961496149615 L 154.62655203295225,453.79537953795375 L 156.07844454030393,450.3950395039504 L 157.62108032936507,448.0948094809481 L 159.93503401295678,447.39473947394737 L 162.7027041050959,447.7447744774477 L 165.33425927467079,447.6447644764476 L 167.23986819056984,445.4445444544454 L 166.1509488100561,436.79367936793676 L 160.6609802666326,424.99249924992495 L 170.82422781809427,422.54225422542254 L 176.1327097980988,416.19161916191615 L 186.79504539896257,416.19161916191615 L 194.78045418939672,411.64116411641163 L 200.76951078222234,407.09070907090705 L 202.76586297983087,400.69006900690067 L 204.76221517743943,396.1396139613961 L 216.05975375026955,401.5901590159016 L 221.36823573027408,412.54125412541254 L 227.3572923230997,409.79097909790977 L 233.34634891592532,410.6910691069107 L 236.70385033917603,415.2415241524152 L 242.69290693200165,419.7919791979198 L 244.6892591296102,425.29252925292525 L 251.99409330722327,425.7425742574257 L 249.81625454619575,430.24302430243023 L 249.8616261870505,436.89368936893686 L 251.40426197611166,443.4443444344434 z" /><path fill-rule="evenodd" fill="#D2EBD9" stroke="#A6A6A6" stroke-width="0.25" opacity="1" d="M 251.40426197611166,443.4443444344434 L 249.8616261870505,436.89368936893686 L 249.81625454619575,430.24302430243023 L 251.99409330722327,425.7425742574257 L 255.44233801218346,422.44224422442244 L 260.1609886610764,415.19151915191514 L 268.2825123740747,398.1398139813981 L 270.91406754364965,384.6884688468847 L 267.5565661203989,379.037903790379 L 266.1954168947567,371.18711871187116 L 267.42045119783467,361.88618861886187 L 269.5982899588622,356.53565356535654 L 275.04288686143093,350.18501850185015 L 278.17353008040794,342.48424842484246 L 278.40038828468164,333.7333733373337 L 281.9393762713513,322.58225822582256 L 286.6126552793895,322.58225822582256 L 289.9247850617855,326.23262326232623 L 292.6017118722151,331.68316831683165 L 295.9138416546111,328.03280328032804 L 298.59076846504075,322.58225822582256 L 303.21867583222416,319.88198819881984 L 306.5761772554749,323.5323532353235 L 311.20408462265834,324.4324432443244 L 313.88101143308796,329.8329832983298 L 321.8664202235221,332.58325832583256 L 331.8481812115648,337.13371337133714 L 335.84088560678185,329.8329832983298 L 341.19473922764115,325.3325332533253 L 345.82264659482456,319.88198819881984 L 353.58119718098504,319.68196819681964 L 354.48862999807983,325.1325132513251 L 357.98224634389476,336.983698369837 L 359.0711657244085,342.9342934293429 L 359.11653736526324,352.2352235223522 L 356.6664687591073,354.8854885488549 L 351.40335841995756,355.13551355135513 L 343.1003481435402,357.13571357135714 L 340.4234213331106,358.7358735873587 L 335.38716919823446,363.036303630363 L 332.61949910609536,364.7864786478648 L 329.6703424505373,365.43654365436544 L 323.59054257600224,365.43654365436544 L 320.7321292021536,366.23662366236624 L 313.42729502454057,374.83748374837484 L 311.9754025171889,386.038603860386 L 311.56705774949626,397.039703970397 L 307.57435335427914,404.99049904990494 L 303.21867583222416,405.69056905690564 L 299.6796878455545,403.0903090309031 L 296.04995657717535,401.1401140114011 L 291.51279249170136,403.84038403840384 L 289.28958208981913,408.49084908490846 L 285.2968776946021,427.1427142714271 L 281.2588016585302,435.39353935393535 L 277.12998234074894,438.6438643864386 L 259.79801553423846,439.5939593959396 L 254.4441619133792,441.64416441644164 L 251.40426197611166,443.4443444344434 z" /><path fill-rule="evenodd" fill="#D2EBD9" stroke="#A6A6A6" stroke-width="0.25" opacity="1" d="M 153.7644908567122,414.2914291429143 L 148.36526559499822,408.9408940894089 L 145.23462237602118,408.89088908890886 L 142.24009407960838,409.7409740974097 L 139.517795628324,409.79097909790977 L 137.2038419447323,407.3407340734073 L 134.75377333857637,401.94019401940193 L 133.30188083122468,399.58995899589956 L 131.2601569927614,397.6397639763976 L 126.22390485788533,395.88958895889584 L 121.64136913155663,395.88958895889584 L 117.2403199686469,394.4894489448945 L 112.83927080573717,388.68886888688866 L 110.61606040385493,378.78787878787875 L 114.69950808078148,374.33743374337433 L 120.46170646933341,370.68706870687066 L 121.86822733583033,366.53665366536654 L 139.9715120368714,364.73647364736473 L 147.2309745736297,360.18601860186016 L 152.8570580396174,353.035303530353 L 157.25810720252716,343.7343734373437 L 162.15824441483903,350.7350735073507 L 166.1509488100561,351.6351635163516 L 172.1400054028817,350.7350735073507 L 177.44848738288624,341.6341634163416 L 182.1217663909244,334.38343834383437 L 186.11447078614148,333.48334833483347 L 186.79504539896257,346.1846184618462 L 181.4411917781033,354.3354335433543 L 186.79504539896257,357.98579857985794 L 192.1035273789671,358.88588858885885 L 198.7731585846138,369.78697869786976 L 193.41930496375454,375.23752375237524 L 186.11447078614148,387.038703870387 L 180.80598880613695,393.43934393439343 L 182.8023410037455,398.88988898889886 L 177.44848738288624,404.34043404340434 L 166.83152342287718,411.64116411641163 L 153.7644908567122,414.2914291429143 z" /><path fill-rule="evenodd" fill="#D2EBD9" stroke="#A6A6A6" stroke-width="0.25" opacity="1" d="M 153.7644908567122,414.2914291429143 L 166.83152342287718,411.64116411641163 L 177.44848738288624,404.34043404340434 L 182.8023410037455,398.88988898889886 L 180.80598880613695,393.43934393439343 L 186.11447078614148,387.038703870387 L 193.41930496375454,375.23752375237524 L 198.7731585846138,369.78697869786976 L 209.39012254462284,368.88688868886885 L 216.05975375026955,367.08670867086704 L 218.7366805606992,374.33743374337433 L 219.37188353266555,384.33843384338434 L 211.3864747422314,388.88888888888886 L 204.76221517743943,396.1396139613961 L 202.76586297983087,400.69006900690067 L 200.76951078222234,407.09070907090705 L 194.78045418939672,411.64116411641163 L 186.79504539896257,416.19161916191615 L 176.1327097980988,416.19161916191615 L 170.82422781809427,422.54225422542254 L 160.6609802666326,424.99249924992495 L 153.7644908567122,414.2914291429143 z" /><path fill-rule="evenodd" fill="#D2EBD9" stroke="#A6A6A6" stroke-width="0.25" opacity="1" d="M 121.86822733583033,366.53665366536654 L 123.04788999805356,363.1363136313631 L 117.19494832779216,355.23552355235523 L 104.67237545188405,349.98499849984995 L 83.21158932759226,345.2845284528453 L 76.40584319938134,344.1344134413441 L 79.62722970006784,336.1836183618362 L 79.62722970006784,308.0808080808081 L 82.93935948246383,302.68026802680265 L 89.60899068811054,296.3296329632963 L 98.27497409136579,291.8291829182918 L 106.89558585376629,291.8291829182918 L 112.24943947462556,289.0789078907891 L 120.23484826505971,291.8291829182918 L 128.90083166831496,289.0789078907891 L 137.52144343071546,290.87908790879084 L 141.51414782593255,296.3296329632963 L 148.86435364440035,299.02990299029904 L 155.44324156833758,299.22992299229924 L 154.94415351893545,308.03080308030803 L 158.02942509705773,316.7816781678168 L 159.8442907312473,322.5322532253225 L 161.02395339347052,331.38313831383135 L 157.25810720252716,343.7343734373437 L 152.8570580396174,353.035303530353 L 147.2309745736297,360.18601860186016 L 139.9715120368714,364.73647364736473 L 121.86822733583033,366.53665366536654 z" /><path fill-rule="evenodd" fill="#D2EBD9" stroke="#A6A6A6" stroke-width="0.25" opacity="1" d="M 353.58119718098504,319.68196819681964 L 345.82264659482456,319.88198819881984 L 341.19473922764115,325.3325332533253 L 335.84088560678185,329.8329832983298 L 331.8481812115648,337.13371337133714 L 321.8664202235221,332.58325832583256 L 313.88101143308796,329.8329832983298 L 311.20408462265834,324.4324432443244 L 306.5761772554749,323.5323532353235 L 303.21867583222416,319.88198819881984 L 298.59076846504075,322.58225822582256 L 295.9138416546111,328.03280328032804 L 292.6017118722151,331.68316831683165 L 289.9247850617855,326.23262326232623 L 286.6126552793895,322.58225822582256 L 281.9393762713513,322.58225822582256 L 275.9503196785257,315.3315331533153 L 275.2697450657046,307.1807180718072 L 278.62724648895534,299.02990299029904 L 280.62359868656387,292.7292729272927 L 279.2624494609217,283.67836783678365 L 280.62359868656387,273.7273727372737 L 282.61995088417245,269.1769176917692 L 279.2624494609217,262.87628762876284 L 274.6345420937383,255.6255625562556 L 278.62724648895534,253.82538253825382 L 282.61995088417245,249.32493249324932 L 289.9247850617855,252.9252925292529 L 294.59806406982364,250.2250225022502 L 303.21867583222416,248.37483748374837 L 309.8883070378709,251.1251125112511 L 309.8883070378709,266.47664766476646 L 313.88101143308796,268.27682768276827 L 322.5469948363432,266.47664766476646 L 329.85182901395626,262.87628762876284 L 337.83723780439044,258.4258425842584 L 343.1003481435402,264.97649764976495 L 348.0912286375615,270.52705270527053 L 353.4450822584208,270.52705270527053 L 363.15461340133504,270.977097709771 L 366.829716310569,274.57745774577455 L 369.6427580435628,279.62796279627963 L 366.5121148245858,285.47854785478546 L 358.79893587928007,291.17911791179114 L 356.71184039996206,297.6297629762976 L 365.74079693005524,298.0798079807981 L 371.27613711433344,298.02980298029803 L 377.5827951931422,311.6311631163116 L 367.7825207685185,312.98129812981296 L 358.3452194707327,312.7312731273127 L 353.9895419486777,314.031403140314 L 351.40335841995756,315.8315831583158 L 351.5394733425218,316.83168316831683 L 352.76450764559974,317.8817881788179 L 353.58119718098504,319.68196819681964 z" /><path fill-rule="evenodd" fill="#D2EBD9" stroke="#A6A6A6" stroke-width="0.25" opacity="1" d="M 377.5827951931422,311.6311631163116 L 371.27613711433344,298.02980298029803 L 365.74079693005524,298.0798079807981 L 356.71184039996206,297.6297629762976 L 358.79893587928007,291.17911791179114 L 366.5121148245858,285.47854785478546 L 369.6427580435628,279.62796279627963 L 366.829716310569,274.57745774577455 L 363.15461340133504,270.977097709771 L 370.45944757894813,266.47664766476646 L 374.4521519741652,263.77637763776374 L 377.76428175656116,256.5256525652565 L 373.7715773613441,250.2250225022502 L 379.1254309822034,240.27402740274027 L 385.114487575029,233.97339733973396 L 391.1035441678546,225.82258225822582 L 389.10719197024605,217.7217721772177 L 400.13250069794776,214.6214621462146 L 407.936422924963,211.92119211921192 L 413.7439929543696,211.87118711871187 L 416.0579466379613,215.77157715771577 L 426.4480523936967,226.22262226222622 L 439.37897003729745,247.7247724772477 L 441.9651535660176,255.8255825582558 L 441.7382953617439,257.17571757175716 L 439.9234297275543,260.2760276027603 L 439.51508495986167,261.7761776177618 L 440.0141730092638,262.77627762776274 L 441.78366700259863,263.67636763676364 L 442.28275505200077,264.37643764376435 L 442.60035653798394,265.3265326532653 L 444.00687740448086,272.47724772477244 L 443.78001920020716,273.5273527352735 L 446.3662027289273,275.4275427542754 L 449.45147430704964,276.8276827682768 L 452.173772758334,278.6278627862786 L 453.6710369065404,281.7281728172817 L 451.4931981455129,289.52895289528954 L 444.82356693986617,293.9293929392939 L 437.1103879945605,295.7295729572957 L 431.5296761694275,295.57955795579556 L 420.27750923745214,290.4790479047905 L 416.466291405654,290.42904290429044 L 412.110613883599,293.3293329332933 L 403.7622319663269,303.8303830383038 L 399.8148992119646,307.3807380738074 L 393.9165859008485,309.3809380938094 L 377.5827951931422,311.6311631163116 z" /><path fill-rule="evenodd" fill="#D2EBD9" stroke="#A6A6A6" stroke-width="0.25" opacity="1" d="M 76.40584319938134,344.1344134413441 L 62.20451961184787,341.68416841684166 L 52.268130264659916,337.983798379838 L 50.04491986277768,336.53365336533653 L 47.86708110175019,332.6332633263326 L 47.68559453833123,329.2329232923292 L 48.048567665169145,326.032603260326 L 47.68559453833123,322.58225822582256 L 41.15207825524874,315.28152815281527 L 32.395351570284014,317.8817881788179 L 22.685820427369755,323.7323732373237 L 13.384634052148156,326.1826182618262 L 10.480849037444827,324.78247824782477 L 2.5861835287201522,318.43184318431844 L 0.45371640854739514,315.48154815481547 L 0.0,308.53085308530854 L 2.949156655558068,303.08030803080305 L 18.012541419331587,288.5788578857886 L 20.054265257794864,284.9284928492849 L 20.553353307197,283.67836783678365 L 29.718424759854383,277.3277327732773 L 43.69289014311415,276.4276427642764 L 41.69653794550561,270.0770077007701 L 45.68924234072269,265.57655765576555 L 51.678298933548305,262.87628762876284 L 59.66370772398246,261.02610261026103 L 65.65276431680807,258.3258325832583 L 71.6418209096337,261.976197619762 L 77.63087750245931,260.12601260126013 L 80.30780431288893,254.72547254725472 L 83.61993409528492,246.57465746574655 L 88.2932131033231,242.07420742074206 L 96.9138248657236,245.67456745674565 L 102.26767848658287,246.57465746574655 L 107.57616046658738,243.87438743874387 L 116.24214386984264,243.87438743874387 L 124.22755266027679,238.47384738473846 L 122.91177507548934,246.57465746574655 L 120.23484826505971,252.9252925292529 L 114.92636628505518,258.3258325832583 L 114.24579167223409,264.67646764676465 L 118.23849606745117,270.0770077007701 L 120.23484826505971,275.5275527552755 L 114.92636628505518,279.12791279127913 L 112.24943947462556,289.0789078907891 L 106.89558585376629,291.8291829182918 L 98.27497409136579,291.8291829182918 L 89.60899068811054,296.3296329632963 L 82.93935948246383,302.68026802680265 L 79.62722970006784,308.0808080808081 L 79.62722970006784,336.1836183618362 L 76.40584319938134,344.1344134413441 z" /><path fill-rule="evenodd" fill="#D2EBD9" stroke="#A6A6A6" stroke-width="0.25" opacity="1" d="M 144.28181791807165,158.36583658365836 L 150.1801312291878,155.56555655565555 L 154.85341023722594,154.66546654665467 L 158.84611463244303,161.86618661866186 L 162.83881902766012,168.16681668166817 L 166.1509488100561,165.46654665466545 L 168.82787562048574,161.86618661866186 L 173.45578298766915,160.96609660966095 L 176.8132844109199,169.06690669066907 L 178.12906199570733,180.76807680768076 L 179.44483958049477,187.96879687968797 L 174.13635760049024,191.56915691569156 L 168.14730100766462,196.06960696069606 L 164.15459661244756,206.87068706870687 L 165.470374197235,215.021502150215 L 161.4776698020179,221.32213221322132 L 155.48861320919232,221.32213221322132 L 147.50320441875814,220.42204220422042 L 142.19472243875364,222.2222222222222 L 133.98245544404577,230.42304230423042 L 127.72116900609173,226.37263726372635 L 124.95349891395261,218.8218821882188 L 126.04241829446637,209.2209220922092 L 125.77018844933794,186.91869186918692 L 131.84998832387302,178.11781178117812 L 139.9715120368714,172.2172217221722 L 144.28181791807165,169.4169416941694 L 148.77361036269087,165.4165416541654 L 144.28181791807165,158.36583658365836 z" /><path fill-rule="evenodd" fill="#D2EBD9" stroke="#A6A6A6" stroke-width="0.25" opacity="1" d="M 155.44324156833758,299.22992299229924 L 161.52304144287265,291.27912791279124 L 166.6046652186035,288.1788178817882 L 171.0964576632227,287.1287128712871 L 174.3178441639092,279.97799779978 L 175.95122323467984,271.97719771977194 L 184.61720663793508,268.3268326832683 L 190.6062632307607,268.27682768276827 L 191.69518261127445,272.8272827282728 L 197.09440787298846,283.47834783478345 L 201.58620031760765,287.5787578757876 L 203.49180923350673,291.67916791679164 L 203.76403907863516,295.029502950295 L 206.94005393846692,299.22992299229924 L 217.33015969420228,293.17931793179315 L 221.09600588514564,298.0798079807981 L 224.49887894925112,300.1300130013001 L 229.85273257011036,301.28012801280124 L 233.8908086061822,304.08040804080406 L 227.3572923230997,312.6312631263126 L 222.72938495591626,314.4314431443144 L 216.74032836309064,313.5313531353135 L 213.38282693983993,314.4314431443144 L 214.7439761654821,329.8329832983298 L 210.07069715744396,338.03380338033804 L 201.4047137541887,338.9338933893389 L 196.09623177418416,338.9338933893389 L 186.79504539896257,346.1846184618462 L 186.11447078614148,333.48334833483347 L 182.1217663909244,334.38343834383437 L 177.44848738288624,341.6341634163416 L 172.1400054028817,350.7350735073507 L 166.1509488100561,351.6351635163516 L 162.15824441483903,350.7350735073507 L 157.25810720252716,343.7343734373437 L 161.02395339347052,331.38313831383135 L 159.8442907312473,322.5322532253225 L 158.02942509705773,316.7816781678168 L 154.94415351893545,308.03080308030803 L 155.44324156833758,299.22992299229924 z" /><path fill-rule="evenodd" fill="#D2EBD9" stroke="#A6A6A6" stroke-width="0.25" opacity="1" d="M 155.44324156833758,299.22992299229924 L 148.86435364440035,299.02990299029904 L 141.51414782593255,296.3296329632963 L 137.52144343071546,290.87908790879084 L 128.90083166831496,289.0789078907891 L 120.23484826505971,291.8291829182918 L 112.24943947462556,289.0789078907891 L 114.92636628505518,279.12791279127913 L 120.23484826505971,275.5275527552755 L 118.23849606745117,270.0770077007701 L 114.24579167223409,264.67646764676465 L 114.92636628505518,258.3258325832583 L 120.23484826505971,252.9252925292529 L 122.91177507548934,246.57465746574655 L 124.22755266027679,238.47384738473846 L 133.98245544404577,230.42304230423042 L 140.96968813567565,233.57335733573356 L 153.71911921585746,238.023802380238 L 170.82422781809427,251.1251125112511 L 179.44483958049477,251.1251125112511 L 190.6062632307607,268.27682768276827 L 184.61720663793508,268.3268326832683 L 175.95122323467984,271.97719771977194 L 174.3178441639092,279.97799779978 L 171.0964576632227,287.1287128712871 L 166.6046652186035,288.1788178817882 L 161.52304144287265,291.27912791279124 L 155.44324156833758,299.22992299229924 z" /><path fill-rule="evenodd" fill="#D2EBD9" stroke="#A6A6A6" stroke-width="0.25" opacity="1" d="M 251.99409330722327,425.7425742574257 L 244.6892591296102,425.29252925292525 L 242.69290693200165,419.7919791979198 L 236.70385033917603,415.2415241524152 L 233.34634891592532,410.6910691069107 L 227.3572923230997,409.79097909790977 L 221.36823573027408,412.54125412541254 L 216.05975375026955,401.5901590159016 L 204.76221517743943,396.1396139613961 L 211.3864747422314,388.88888888888886 L 219.37188353266555,384.33843384338434 L 218.7366805606992,374.33743374337433 L 216.05975375026955,367.08670867086704 L 209.39012254462284,368.88688868886885 L 198.7731585846138,369.78697869786976 L 192.1035273789671,358.88588858885885 L 186.79504539896257,357.98579857985794 L 181.4411917781033,354.3354335433543 L 186.79504539896257,346.1846184618462 L 196.09623177418416,338.9338933893389 L 201.4047137541887,338.9338933893389 L 210.07069715744396,338.03380338033804 L 218.0561059478781,344.3844384438444 L 224.72573715352482,346.1846184618462 L 230.71479374635044,346.1846184618462 L 230.71479374635044,351.6351635163516 L 231.3499967183168,362.5362536253625 L 236.02327572635494,366.13661366136614 L 242.01233231918056,365.23652365236524 L 244.6892591296102,373.4373437343734 L 242.01233231918056,380.68806880688066 L 246.00503671439765,382.5382538253825 L 253.9904455048318,378.88788878887885 L 260.6600767104785,380.68806880688066 L 267.5565661203989,379.037903790379 L 270.91406754364965,384.6884688468847 L 268.2825123740747,398.1398139813981 L 260.1609886610764,415.19151915191514 L 255.44233801218346,422.44224422442244 L 251.99409330722327,425.7425742574257 z" /><path fill-rule="evenodd" fill="#D2EBD9" stroke="#A6A6A6" stroke-width="0.25" opacity="1" d="M 190.6062632307607,268.27682768276827 L 194.78045418939672,268.2268226822682 L 197.5027526406811,264.2264226422642 L 197.86572576751902,259.2759275927593 L 199.2268749931612,252.57525752575256 L 198.95464514803277,241.4241424142414 L 197.45738099982637,237.67376737673766 L 200.134307810256,236.27362736273625 L 208.25583152325436,232.77327732773276 L 212.83836724958306,240.12401240124012 L 214.7439761654821,235.9235923592359 L 216.83107164480015,228.7228722872287 L 222.72938495591626,231.2231223122312 L 227.3572923230997,236.67366736673665 L 233.34634891592532,236.67366736673665 L 238.7002025367846,240.27402740274027 L 240.01598012157203,246.57465746574655 L 246.68561132721874,252.9252925292529 L 244.0086845167891,257.4257425742574 L 238.7002025367846,261.976197619762 L 242.69290693200165,266.47664766476646 L 245.32446210157656,273.7273727372737 L 240.01598012157203,278.2278227822782 L 238.0196279239635,285.47854785478546 L 238.0196279239635,290.87908790879084 L 245.50594866499551,294.7294729472947 L 239.56226371302463,298.0798079807981 L 233.8908086061822,304.08040804080406 L 229.85273257011036,301.28012801280124 L 224.49887894925112,300.1300130013001 L 221.09600588514564,298.0798079807981 L 217.33015969420228,293.17931793179315 L 206.94005393846692,299.22992299229924 L 203.76403907863516,295.029502950295 L 203.49180923350673,291.67916791679164 L 201.58620031760765,287.5787578757876 L 197.09440787298846,283.47834783478345 L 191.69518261127445,272.8272827282728 L 190.6062632307607,268.27682768276827 z" /><path fill-rule="evenodd" fill="#D2EBD9" stroke="#A6A6A6" stroke-width="0.25" opacity="1" d="M 190.6062632307607,268.27682768276827 L 179.44483958049477,251.1251125112511 L 170.82422781809427,251.1251125112511 L 153.71911921585746,238.023802380238 L 140.96968813567565,233.57335733573356 L 133.98245544404577,230.42304230423042 L 142.19472243875364,222.2222222222222 L 147.50320441875814,220.42204220422042 L 155.48861320919232,221.32213221322132 L 161.4776698020179,221.32213221322132 L 165.470374197235,215.021502150215 L 164.15459661244756,206.87068706870687 L 168.14730100766462,196.06960696069606 L 174.13635760049024,191.56915691569156 L 179.44483958049477,187.96879687968797 L 190.10717518135857,188.86888688868885 L 190.10717518135857,196.06960696069606 L 195.41565716136307,200.57005700570056 L 200.76951078222234,201.47014701470147 L 205.39741814940578,199.66996699669966 L 212.0670493550525,203.27032703270325 L 219.37188353266555,202.37023702370237 L 218.0561059478781,210.47104710471046 L 214.7439761654821,216.8216821682168 L 214.7439761654821,220.42204220422042 L 216.83107164480015,228.7228722872287 L 214.7439761654821,235.9235923592359 L 212.83836724958306,240.12401240124012 L 208.25583152325436,232.77327732773276 L 200.134307810256,236.27362736273625 L 197.45738099982637,237.67376737673766 L 198.95464514803277,241.4241424142414 L 199.2268749931612,252.57525752575256 L 197.86572576751902,259.2759275927593 L 197.5027526406811,264.2264226422642 L 194.78045418939672,268.2268226822682 L 190.6062632307607,268.27682768276827 z" /><path fill-rule="evenodd" fill="#D2EBD9" stroke="#A6A6A6" stroke-width="0.25" opacity="1" d="M 176.8132844109199,169.06690669066907 L 182.8023410037455,168.16681668166817 L 186.11447078614148,160.96609660966095 L 189.42660056853748,156.46564656465645 L 190.78774979417966,151.06510651065105 L 198.7731585846138,145.66456645664564 L 208.0743449598354,145.66456645664564 L 214.7439761654821,144.76447644764477 L 215.74215226428637,135.76357635763574 L 218.7366805606992,135.16351635163517 L 223.27384464617313,136.06360636063604 L 228.4008400627587,138.06380638063806 L 234.61675485985802,144.76447644764477 L 243.41885318567748,147.36473647364735 L 244.19017108020805,156.56565656565655 L 243.05588005883956,161.46614661466145 L 243.41885318567748,166.86668666866686 L 242.69290693200165,172.5172517251725 L 239.33540550875094,178.96789678967895 L 235.43344439524333,182.31823182318232 L 237.52053987456136,186.16861686168616 L 236.74922198003077,191.06910691069106 L 240.5604398118289,197.51975197519752 L 236.5677354166118,204.27042704270426 L 228.94529975301558,208.1208120812081 L 225.36094012549117,213.17131713171315 L 221.32286408941934,218.97189718971896 L 214.7439761654821,220.42204220422042 L 214.7439761654821,216.8216821682168 L 218.0561059478781,210.47104710471046 L 219.37188353266555,202.37023702370237 L 212.0670493550525,203.27032703270325 L 205.39741814940578,199.66996699669966 L 200.76951078222234,201.47014701470147 L 195.41565716136307,200.57005700570056 L 190.10717518135857,196.06960696069606 L 190.10717518135857,188.86888688868885 L 179.44483958049477,187.96879687968797 L 178.12906199570733,180.76807680768076 L 176.8132844109199,169.06690669066907 z" /><path fill-rule="evenodd" fill="#D2EBD9" stroke="#A6A6A6" stroke-width="0.25" opacity="1" d="M 281.9393762713513,151.06510651065105 L 288.60900747699804,151.06510651065105 L 291.921137259394,149.26492649264927 L 297.2296192393986,151.96519651965195 L 301.9028982474367,151.96519651965195 L 303.89925044504525,160.06600660066005 L 309.20773242504976,163.66636663666367 L 316.5579382435176,165.46654665466545 L 313.06432189770265,169.8169816981698 L 313.06432189770265,176.9176917691769 L 327.62861861207404,178.51785178517852 L 324.54334703395176,195.16951695169516 L 317.873715828305,211.37113711371137 L 305.8956026426538,211.37113711371137 L 293.91748945700255,210.47104710471046 L 283.9357284689599,212.27122712271225 L 277.94667187613425,212.27122712271225 L 276.6308942913468,205.07050705070506 L 271.95761528330866,199.66996699669966 L 267.96491088809154,196.06960696069606 L 267.28433627527045,188.86888688868885 L 265.2879840776619,183.46834683468344 L 245.64206358755973,180.96809680968096 L 239.33540550875094,178.96789678967895 L 242.69290693200165,172.5172517251725 L 243.41885318567748,166.86668666866686 L 243.05588005883956,161.46614661466145 L 244.19017108020805,156.56565656565655 L 247.72915906687774,158.36583658365836 L 253.9904455048318,156.46564656465645 L 258.66372451287,152.86528652865286 L 261.97585429526595,152.86528652865286 L 261.29527968244486,158.26582658265826 L 261.29527968244486,165.46654665466545 L 265.968558690483,165.46654665466545 L 268.6454855009127,160.06600660066005 L 273.2733928680961,157.36573657365736 L 275.9503196785257,152.86528652865286 L 281.9393762713513,151.06510651065105 z" /><path fill-rule="evenodd" fill="#D2EBD9" stroke="#A6A6A6" stroke-width="0.25" opacity="1" d="M 329.26199768284465,249.67496749674967 L 336.52146021960294,246.57465746574655 L 342.5105168124286,248.37483748374837 L 347.8189987924331,242.97429742974296 L 352.4922778004713,239.37393739373937 L 358.4813343932969,242.97429742974296 L 357.16555680850945,251.1251125112511 L 362.47403878851395,253.82538253825382 L 367.14731779655216,250.2250225022502 L 373.7715773613441,250.2250225022502 L 377.76428175656116,256.5256525652565 L 374.4521519741652,263.77637763776374 L 370.45944757894813,266.47664766476646 L 363.15461340133504,270.977097709771 L 353.4450822584208,270.52705270527053 L 348.0912286375615,270.52705270527053 L 343.1003481435402,264.97649764976495 L 337.83723780439044,258.4258425842584 L 332.5741274652406,254.9254925492549 L 329.26199768284465,249.67496749674967 z" /><path fill-rule="evenodd" fill="#D2EBD9" stroke="#A6A6A6" stroke-width="0.25" opacity="1" d="M 278.40038828468164,333.7333733373337 L 272.18447348758235,330.2330233023302 L 267.73805268381784,320.1320132013201 L 264.87963930996926,310.9310931093109 L 264.28980797885765,305.7305730573057 L 257.57480513235623,299.22992299229924 L 245.50594866499551,294.7294729472947 L 238.0196279239635,290.87908790879084 L 238.0196279239635,285.47854785478546 L 240.01598012157203,278.2278227822782 L 245.32446210157656,273.7273727372737 L 248.68196352482727,275.5275527552755 L 248.68196352482727,280.92809280928094 L 252.67466792004436,282.77827782778274 L 258.66372451287,277.3277327732773 L 266.6491333033041,277.3277327732773 L 271.95761528330866,278.2278227822782 L 279.2624494609217,283.67836783678365 L 280.62359868656387,292.7292729272927 L 278.62724648895534,299.02990299029904 L 275.2697450657046,307.1807180718072 L 275.9503196785257,315.3315331533153 L 281.9393762713513,322.58225822582256 L 278.40038828468164,333.7333733373337 z" /><path fill-rule="evenodd" fill="#D2EBD9" stroke="#A6A6A6" stroke-width="0.25" opacity="1" d="M 279.2624494609217,283.67836783678365 L 271.95761528330866,278.2278227822782 L 266.6491333033041,277.3277327732773 L 258.66372451287,277.3277327732773 L 252.67466792004436,282.77827782778274 L 248.68196352482727,280.92809280928094 L 248.68196352482727,275.5275527552755 L 245.32446210157656,273.7273727372737 L 242.69290693200165,266.47664766476646 L 238.7002025367846,261.976197619762 L 244.0086845167891,257.4257425742574 L 246.68561132721874,252.9252925292529 L 252.67466792004436,252.025202520252 L 258.66372451287,254.72547254725472 L 267.28433627527045,252.9252925292529 L 274.6345420937383,255.6255625562556 L 279.2624494609217,262.87628762876284 L 282.61995088417245,269.1769176917692 L 280.62359868656387,273.7273727372737 L 279.2624494609217,283.67836783678365 z" /><path fill-rule="evenodd" fill="#D2EBD9" stroke="#A6A6A6" stroke-width="0.25" opacity="1" d="M 216.83107164480015,228.7228722872287 L 214.7439761654821,220.42204220422042 L 221.32286408941934,218.97189718971896 L 225.36094012549117,213.17131713171315 L 234.7074981415675,218.6218621862186 L 249.31716649679362,216.8216821682168 L 258.66372451287,214.1214121412141 L 267.28433627527045,213.17131713171315 L 271.27704067048757,216.8216821682168 L 277.94667187613425,212.27122712271225 L 283.9357284689599,212.27122712271225 L 293.91748945700255,210.47104710471046 L 305.8956026426538,211.37113711371137 L 317.873715828305,211.37113711371137 L 319.50709489907564,218.17181718171815 L 326.9026723583982,218.97189718971896 L 328.58142307002356,224.62246224622461 L 326.1767261047224,231.1231123112311 L 323.09145452660005,237.57375737573756 L 324.04425898454963,243.07430743074306 L 329.26199768284465,249.67496749674967 L 332.5741274652406,254.9254925492549 L 337.83723780439044,258.4258425842584 L 329.85182901395626,262.87628762876284 L 322.5469948363432,266.47664766476646 L 313.88101143308796,268.27682768276827 L 309.8883070378709,266.47664766476646 L 309.8883070378709,251.1251125112511 L 303.21867583222416,248.37483748374837 L 294.59806406982364,250.2250225022502 L 289.9247850617855,252.9252925292529 L 282.61995088417245,249.32493249324932 L 278.62724648895534,253.82538253825382 L 274.6345420937383,255.6255625562556 L 267.28433627527045,252.9252925292529 L 258.66372451287,254.72547254725472 L 252.67466792004436,252.025202520252 L 246.68561132721874,252.9252925292529 L 240.01598012157203,246.57465746574655 L 238.7002025367846,240.27402740274027 L 233.34634891592532,236.67366736673665 L 227.3572923230997,236.67366736673665 L 222.72938495591626,231.2231223122312 L 216.83107164480015,228.7228722872287 z" /><path fill-rule="evenodd" fill="#D2EBD9" stroke="#A6A6A6" stroke-width="0.25" opacity="1" d="M 277.94667187613425,212.27122712271225 L 271.27704067048757,216.8216821682168 L 267.28433627527045,213.17131713171315 L 258.66372451287,214.1214121412141 L 249.31716649679362,216.8216821682168 L 234.7074981415675,218.6218621862186 L 225.36094012549117,213.17131713171315 L 228.94529975301558,208.1208120812081 L 236.5677354166118,204.27042704270426 L 240.5604398118289,197.51975197519752 L 236.74922198003077,191.06910691069106 L 237.52053987456136,186.16861686168616 L 235.43344439524333,182.31823182318232 L 239.33540550875094,178.96789678967895 L 245.64206358755973,180.96809680968096 L 265.2879840776619,183.46834683468344 L 267.28433627527045,188.86888688868885 L 267.96491088809154,196.06960696069606 L 271.95761528330866,199.66996699669966 L 276.6308942913468,205.07050705070506 L 277.94667187613425,212.27122712271225 z" /><path fill-rule="evenodd" fill="#D2EBD9" stroke="#A6A6A6" stroke-width="0.25" opacity="1" d="M 267.5565661203989,379.037903790379 L 260.6600767104785,380.68806880688066 L 253.9904455048318,378.88788878887885 L 246.00503671439765,382.5382538253825 L 242.01233231918056,380.68806880688066 L 244.6892591296102,373.4373437343734 L 242.01233231918056,365.23652365236524 L 236.02327572635494,366.13661366136614 L 231.3499967183168,362.5362536253625 L 230.71479374635044,351.6351635163516 L 230.71479374635044,346.1846184618462 L 224.72573715352482,346.1846184618462 L 218.0561059478781,344.3844384438444 L 210.07069715744396,338.03380338033804 L 214.7439761654821,329.8329832983298 L 213.38282693983993,314.4314431443144 L 216.74032836309064,313.5313531353135 L 222.72938495591626,314.4314431443144 L 227.3572923230997,312.6312631263126 L 233.8908086061822,304.08040804080406 L 239.56226371302463,298.0798079807981 L 245.50594866499551,294.7294729472947 L 257.57480513235623,299.22992299229924 L 264.28980797885765,305.7305730573057 L 264.87963930996926,310.9310931093109 L 267.73805268381784,320.1320132013201 L 272.18447348758235,330.2330233023302 L 278.40038828468164,333.7333733373337 L 278.17353008040794,342.48424842484246 L 275.04288686143093,350.18501850185015 L 269.5982899588622,356.53565356535654 L 267.42045119783467,361.88618861886187 L 266.1954168947567,371.18711871187116 L 267.5565661203989,379.037903790379 z" /></g></g></g></svg>