<svg xmlns="http://www.w3.org/2000/svg" xmlns:xlink="http://www.w3.org/1999/xlink" width="500.0" height="298.08725772914477" viewBox="0.0 0.0 500.0 298.08725772914477" preserveAspectRatio="xMinYMin meet"><g transform="matrix(1,0,0,-1,0,298.08725772914477)"><g><g><path fill-rule="evenodd" fill="#D2EBD9" stroke="#A6A6A6" stroke-width="0.25" opacity="1" d="M 393.21486031636596,298.08725772914477 L 424.54285970143974,223.69469879660755 L 424.1809602212161,223.62024349230342 L 424.7970509901643,223.22767229471356 L 426.3652819674462,223.13742877403274 L 427.08046421967447,222.88024027482606 L 427.5199136007577,222.27790987491608 L 439.5579045880586,195.039437409956 L 438.6758849043399,194.5791590870358 L 436.7015177644789,194.04101972770877 L 435.1613756734878,194.41983790625818 L 434.7034039180726,193.99145599850453 L 433.72978986799717,193.8746283755172 L 433.30234956741333,193.6374379338231 L 432.0369905382395,192.45866586570628 L 431.00909836776555,192.12594948871993 L 429.58429735153913,191.2871381030418 L 427.8338274862617,190.94739028811455 L 424.82139100693166,189.36562062613666 L 419.02041536942124,187.8336757386569 L 416.30650861747563,186.5531412481796 L 411.6318042688072,183.25011737667955 L 407.3879326339811,179.77166417706758 L 406.30915467627347,178.58422541245818 L 405.0030870679766,176.2027778935153 L 403.3374268207699,174.11514002038166 L 403.15423812530935,173.12625035177916 L 403.45955260284245,172.0633209273219 L 403.1440609600395,171.26356187509373 L 402.2077631149441,170.18497581221163 L 401.78032281436026,168.41292732045986 L 400.77617730759084,167.22705787513405 L 400.5895962379873,166.4365684557706 L 401.8820943068713,163.62808992085047 L 401.42073017545044,161.8432717968244 L 402.09242208115757,161.19610089599155 L 403.45955260284245,160.49255527323112 L 403.15423812530935,156.76594042871147 L 403.3374268207699,154.87150824978016 L 403.7445128299296,153.04266598564573 L 404.3144332449883,152.30454115127213 L 403.968410147354,151.07681821542792 L 403.62577938102186,150.50440870039165 L 402.4011289756745,150.3036338018719 L 396.0709415432066,148.5091896164231 L 395.17874469421804,147.69573360471986 L 393.7607284281403,147.4298798784148 L 390.48368601314723,146.14297826541588 L 388.8621267620474,145.1132384862285 L 388.8960505928844,144.15577488928102 L 388.8621267620474,143.96746230940334 L 388.61109036393464,143.88474681298248 L 388.631444696337,143.3849503255915 L 388.49574933201075,143.3215978173539 L 386.9895311128348,144.12585583585314 L 386.1617895513773,143.56621134397574 L 384.05172704719007,143.12802353594452 L 380.76450754888356,141.30511036119424 L 380.2352957148105,140.78434593207203 L 380.02157556451857,140.1668568837922 L 380.255650004372,139.3242549560964 L 380.62202743440866,138.8634078965988 L 380.61863506026566,138.57319186488166 L 379.7366153355688,138.24780922825448 L 375.3265169225633,137.82570866309106 L 374.53609156794846,137.5601471492555 L 373.19270775280893,136.74768290272914 L 372.19195462204516,135.56604684866033 L 371.357428310439,135.51505709439516 L 371.0351518765092,135.38143012695946 L 370.91302609443665,135.11242391751148 L 370.44826954603195,135.08956756372936 L 367.75471712835133,133.7956392550841 L 366.6962935011834,134.14019996393472 L 365.52931359037757,133.6655533844605 L 363.6261864863336,132.58977946266532 L 355.33180903829634,130.33669075532816 L 346.2232595272362,128.6217631737236 L 338.3088290076703,126.40126823447645 L 333.8308828920126,125.9726901659742 L 329.88893336057663,124.3270656755194 L 328.75926969759166,123.67908283392899 L 325.66880839318037,120.99983143573627 L 325.03443269245327,120.6294323920738 L 323.3348486125469,120.31521923840046 L 320.8991173002869,119.00757469027303 L 318.21913438104093,117.11751961219124 L 317.6152901351452,117.08066999004222 L 316.83164956979454,117.39652865682729 L 315.79697264917195,117.15612413012423 L 314.0431104078889,116.35599018423818 L 312.47922165319324,116.03665762161836 L 311.9771488998085,117.41758631635457 L 310.9865729343146,117.16314313490875 L 308.32355197146535,116.92098992015235 L 302.33938759565353,114.91206226032227 L 293.14942092448473,112.5457654055208 L 288.2440345082432,109.79957395908423 L 286.46642556227744,109.08246936881915 L 284.5734756235033,108.77565637673251 L 282.086858605966,107.18038958101533 L 278.58931129053235,105.56436032801867 L 276.9779291637242,104.41472836979665 L 276.6319060642272,103.03745599044487 L 274.7627027910203,103.72957177041098 L 273.7823039907962,103.62443702900782 L 272.9172461833805,103.16711437236518 L 272.29983239620924,102.58541762805544 L 270.2203013896942,99.58288436406292 L 269.4637998640537,98.06620984058827 L 269.06010627001524,96.27838263940066 L 269.3823826611042,96.05777273676358 L 269.2025863416493,94.78148594079539 L 266.61759020760655,93.47386090038344 L 266.3733386006206,92.44469003821723 L 265.77967147901654,92.07540537999012 L 265.0265623703599,91.93014563014731 L 264.3379085473716,91.57838096260093 L 264.06312548555434,90.90288851945661 L 264.0529483202845,89.93523125909269 L 263.33715541660786,89.1846194693353 L 262.90293032489717,87.99495703098364 L 260.61307154223323,86.85441687935963 L 258.14002402313054,83.7483434418682 L 256.36919986642897,82.69222259731032 L 250.9074625764042,82.79713022313081 L 250.21202396415174,82.55934128956869 L 248.349605480209,80.93169021443464 L 247.27082752250135,80.67821337515488 L 246.90445013344288,80.34433321212418 L 246.14116385765374,81.27607944817282 L 244.67904659546912,81.54180933139287 L 241.46306713297963,81.51908216928132 L 241.77516640163958,80.93169021443464 L 240.04505086690187,80.9002237697132 L 235.23125877790153,79.49307713098824 L 235.4348018039018,80.53487077751197 L 234.76650222949684,81.21314446255565 L 233.21618301421404,82.13273432361893 L 232.9312228281051,81.81279124412686 L 231.78120483271778,82.36701617739163 L 228.06654499284923,83.27971953037195 L 227.43216929212213,82.93001478444785 L 224.49436526559293,82.13273432361893 L 223.91766006127,81.7376148889307 L 221.80081280507147,79.17147173639387 L 219.90107811801136,78.17526039364748 L 213.49286581762135,75.97346394648775 L 212.59388421848416,75.37242328003049 L 209.19810839556158,71.76344641065225 L 203.85510451346636,66.99655743106268 L 202.2776462174952,66.00155732012354 L 192.6331001650542,63.03110355162062 L 182.0047628954053,60.787258775904775 L 178.35116596706212,58.345064599765465 L 173.20152794383466,56.374289457919076 L 172.49930458143353,56.241755358176306 L 170.1823066752404,56.82422073255293 L 169.20190787501633,56.82770868274383 L 166.51174783147871,55.79882468027063 L 165.6704367287457,55.633166533662006 L 157.04021330736578,55.655835412908345 L 155.2286805715412,55.952278804499656 L 153.76995568163693,56.63238718244247 L 153.33573063276708,56.304534442257136 L 152.22642125934362,55.952278804499656 L 148.63388720154762,55.366375336190686 L 141.5166667867452,55.04728121939115 L 138.81293720379472,54.19466833281331 L 136.29918106272817,54.19815534981899 L 135.80050072446465,53.87561046355404 L 130.0605879575014,52.58901802334003 L 128.6561412308365,51.85688240430318 L 124.64634403772652,47.7352248870302 L 122.90605133771896,46.278656776295975 L 122.3768395036459,44.68990457407199 L 120.40247236378491,42.155715367756784 L 119.10658192075789,40.948924105614424 L 117.53251599892974,40.24546154914424 L 110.3745869640261,38.49049152806401 L 108.72928100638092,37.611374718369916 L 107.23323991335928,36.31111146742478 L 106.2155249081552,34.79346815217286 L 105.80843889713287,33.22035921760835 L 104.75680002011359,30.55495407548733 L 104.66859806701541,30.127019848907366 L 104.89249538443983,28.392842422239482 L 104.75001526996493,27.771945944055915 L 103.94602041505277,27.526727730873972 L 103.04703877493739,27.67803191789426 L 102.08360189013183,28.07804169971496 L 101.44583381526172,28.638080248143524 L 101.51368147693574,29.279899332672358 L 102.19894292391837,29.542551761725917 L 103.77300884388387,29.55124894878827 L 104.07832336239517,30.287058284739032 L 103.91548895835876,30.302714351331815 L 103.27772084064782,31.149915364570916 L 103.20308843068779,31.838859035866335 L 102.93848253414035,31.904972119722515 L 102.69423092715442,31.817981316009536 L 102.65352230519056,31.32388685364276 L 102.22608200460672,30.73935375502333 L 101.37120136246085,31.028136997949332 L 99.99728609248996,30.847211661050096 L 99.5189600456506,29.935672614956275 L 98.83709097281098,29.372087840689346 L 98.067019905895,29.232935659587383 L 97.50388428382576,29.86261368379928 L 96.95431815832853,29.54603063571267 L 96.78130663000047,29.173796543385834 L 96.96449532546103,28.111086648656055 L 97.53102336451411,28.45371651998721 L 98.81673668324947,28.321533180540428 L 99.01010250113904,28.171959201339632 L 98.67086419463158,27.180649080313742 L 98.067019905895,26.69198402692564 L 97.36140416935086,26.39809997822158 L 95.6211114693433,26.978919907240197 L 95.25473408028483,27.2084741035942 L 94.91210335679352,27.902383387787268 L 94.3761067725718,28.111086648656055 L 93.35160697624087,28.210222102236003 L 92.50690349936485,27.923253562301397 L 90.9599766600877,26.916315054288134 L 90.67501647211611,27.526727730873972 L 90.86838229186833,27.963254764908925 L 90.60377639532089,28.544158736011013 L 89.5351756438613,29.542551761725917 L 87.81523723341525,30.16181061277166 L 86.07494453340769,30.23139247740619 L 84.49748623743653,29.89044557674788 L 83.24908912554383,29.279899332672358 L 81.04403991810977,27.406729369191453 L 78.66937151737511,24.847080661682412 L 78.27585504762828,24.09425537684001 L 77.94340148940682,23.84564321883954 L 77.78735183551908,24.438496981048957 L 77.58720122464001,24.49065574235283 L 75.39232914336026,23.810872744303197 L 72.69199193269014,22.514013176085427 L 70.14770437777042,22.500106662977487 L 68.59060037322342,21.665748711675406 L 67.67126448452473,21.624032465042546 L 66.85030767321587,21.91604940663092 L 66.37537400051951,22.514013176085427 L 68.5397146269679,22.221980250207707 L 68.89252251572907,22.517489796271548 L 68.87556060031056,23.0807183701545 L 68.59060037322342,23.431881761876866 L 68.11227432638407,23.09810242871754 L 67.01992686837912,23.238914320012555 L 65.67993542924523,22.701752729248255 L 63.220457408577204,21.349404640728608 L 61.33429226092994,21.00699854781851 L 60.275868633762,21.36678594374098 L 59.0139019805938,20.831454433035105 L 58.3829186540097,20.765408850973472 L 57.58231617324054,21.283355933148414 L 56.8461689800024,22.785193572286516 L 56.23553998582065,23.09810242871754 L 55.37726696766913,23.218053192133084 L 54.69200552068651,23.52054360229522 L 52.84654891118407,24.624531054170802 L 49.6916323620826,25.366960463579744 L 48.09381977468729,26.3111535764765 L 47.25929342210293,26.627641864819452 L 45.783606661483645,26.598079370800406 L 44.75571448914707,27.23977732961066 L 43.97207388281822,27.526727730873972 L 43.4360772985965,27.316296669654548 L 40.84429637156427,24.709725288674235 L 40.26759120821953,24.401986001292244 L 39.3923562746495,24.29245375422761 L 38.445881305262446,24.433281131554395 L 38.20502207428217,24.836648573167622 L 38.99544743075967,28.258920555235818 L 39.025978887453675,29.91131959715858 L 38.659601455554366,31.388257031328976 L 37.814897978678346,32.75577945820987 L 36.55293136835098,33.935538249323145 L 36.25779401510954,34.90658779582009 L 35.667519269511104,35.52789700194262 L 35.04332073405385,38.25895467819646 L 34.65658901259303,38.93965260568075 L 33.18429462611675,40.628529417095706 L 31.81037935614586,43.90955302468501 L 29.31019275635481,47.05221550841816 L 28.370502535253763,50.099967723246664 L 28.92346103489399,51.43854240118526 L 29.28644609078765,52.88711666432209 L 29.53409007191658,60.49939842429012 L 30.385578298941255,61.83060255763121 L 30.79605668410659,62.80774382245727 L 31.240458941087127,63.03110355162062 L 30.69089281745255,64.38358187535778 L 30.8299805149436,67.36316107283346 L 30.64679181948304,68.88732777279802 L 29.086295438930392,71.9870044074487 L 28.65546276420355,75.50870256917551 L 25.677102686837316,78.84220410510898 L 23.85754184424877,83.07405655854382 L 22.917651116847992,84.42620522505604 L 22.095287123695016,89.18942514644004 L 19.39425601437688,97.51984538161196 L 19.190713031217456,98.85429023695178 L 18.664893571287394,100.0978376516141 L 18.40707242488861,101.86009853263386 L 17.240092555060983,102.90429517347366 L 17.318117382004857,103.41592322196811 L 17.51826799288392,103.62618926074356 L 18.25441518612206,103.19865316688083 L 18.69203265197575,102.34363848320208 L 19.190713031217456,100.37634437135421 L 19.831873482093215,99.8298483279068 L 19.852227771654725,101.07877779728733 L 19.519774213433266,102.18420777260326 L 20.130403209477663,103.95912003074773 L 19.669039078056812,105.3908551367931 L 18.854867056012154,106.69485075608827 L 18.40707242488861,108.08843150408939 L 18.88539851270616,108.83877138164826 L 18.92949946783483,109.35773289506324 L 18.5393754132092,110.08011873532087 L 17.969455000013113,110.43782540806569 L 17.338471673429012,111.3076003184542 L 16.527692025527358,114.76996230869554 L 14.53975534439087,117.29650557460263 L 14.085175963118672,118.8583920376841 L 14.071606423705816,120.2309627647046 L 14.397275231778622,120.15723895072006 L 14.590641090646386,119.82022338174284 L 14.397275231778622,118.71272186562419 L 15.201270127668977,117.03329210029915 L 15.876354409381747,116.25071447435766 L 16.67017214000225,115.74189877393655 L 16.9822714086622,117.80189633718692 L 16.94834757782519,118.67937600519508 L 16.503945361822844,120.22394140134566 L 16.320756625384092,121.65289330831729 L 15.75083621032536,122.6431072477717 L 14.234440827742219,124.23047997266985 L 13.939303474500775,124.94875048520043 L 13.82735481671989,125.9709337442182 L 14.030897842720151,128.3002500133589 L 13.82735481671989,129.0504649677314 L 13.26761156693101,129.76559822820127 L 11.80549430474639,130.42806885158643 L 9.62758413888514,132.13982026046142 L 7.822836151346564,132.91320142545737 L 6.900107888504863,133.12765052868053 L 6.072366327047348,133.12765052868053 L 5.468522081151605,132.76203539781272 L 5.237840015441179,131.87969768838957 L 4.779868260025978,131.75842688349076 L 3.833393247798085,132.1169713330455 L 3.0124364774674177,132.83586033643223 L 2.9581583570688963,133.7956392550841 L 2.683375295251608,134.39511298621073 L 3.151524217799306,134.44258034788072 L 4.539009027183056,134.11910404474474 L 5.251409515738487,134.22458417410962 L 5.705988897010684,134.51993510313332 L 6.092720616608858,135.56604684866033 L 6.052012037485838,136.02145082852803 L 5.62457169406116,136.66151673463173 L 5.522800201550126,137.19083616603166 L 6.947601260617375,139.69717134791426 L 7.1647137850522995,139.14307947526686 L 7.059549918398261,138.43072556238621 L 6.404819885268807,137.3368001463823 L 7.8364056926220655,136.56831749132834 L 9.525812646374106,135.12297304649837 L 9.8175576236099,134.25271243276075 L 9.705608965829015,133.4458179862704 L 9.848089080303907,133.1628066028934 L 10.387478038668633,132.91320142545737 L 10.373908497393131,133.48800679272972 L 10.102517809718847,133.7956392550841 L 10.72671638801694,134.46367701841518 L 10.977752743288875,135.43945210054517 L 10.886158416047692,138.74732035561465 L 10.489249531179667,140.2776851488743 L 9.64793842844665,142.10390899074264 L 9.8175576236099,143.56445147213526 L 9.525812646374106,145.09211687161587 L 8.928753150627017,146.174664454069 L 7.232561446726322,148.5091896164231 L 7.320763438940048,148.86311901919544 L 7.822836151346564,149.47064262488857 L 7.049372753128409,150.41106544435024 L 6.774589689448476,151.0116497243289 L 6.66264103166759,151.72676795488223 L 7.100258497521281,153.26288223266602 L 6.998487006872892,153.90770696569234 L 6.092720616608858,154.22661311016418 L 6.398035135120153,154.89089106791653 L 7.822836151346564,156.0010694519151 L 8.168859291821718,156.4416552160401 L 8.338478446006775,156.81881414726377 L 8.616653881967068,159.17730600037612 L 9.173004755750299,160.01650389260612 L 11.432332124561071,161.7145391833037 L 11.863164842128754,162.4763818879146 L 12.049745911732316,163.4658186081797 L 12.402553800493479,169.3995110397227 L 12.270250853151083,171.3783130296506 L 11.130410023033619,177.4746850694064 L 10.967575618997216,180.70476795569994 L 10.67243822477758,181.89957308070734 L 10.72332401201129,182.21244181180373 L 10.160188347101212,183.23774229129776 L 13.618944078683853,184.5707121437881 L 14.691717475652695,185.32075702981092 L 15.049308581277728,186.01696606678888 L 14.889900483191013,187.38035461725667 L 15.049308581277728,187.94868550938554 L 17.72477961704135,188.66308463271707 L 20.447642227634788,190.42462997627445 L 20.968949804082513,191.17070187767968 L 22.046031534671783,194.01177681214176 L 22.476864252239466,196.35234367940575 L 23.011096784844995,196.5794653845951 L 25.727496918290854,195.87113603577018 L 26.438370877876878,196.00605122721754 L 26.69256216660142,196.81783735356294 L 25.96014658547938,199.16594205843285 L 26.55900402367115,200.07027446711436 L 27.63177742063999,200.74071398377419 L 27.808418806642294,201.19745388627052 L 27.752410566434264,201.76222628564574 L 27.041536647826433,202.5723257381469 L 25.494847249239683,203.0044112924952 L 25.01446881145239,203.40050963452086 L 24.51039456576109,204.99184632394463 L 23.631495885550976,206.69156274129637 L 23.467779455706477,207.43009218177758 L 24.600869424641132,211.03137679211795 L 24.60517775826156,211.9820742958691 L 23.87276217713952,214.37282522092573 L 24.118336843326688,215.27658135909587 L 24.992927191779017,217.003238204401 L 25.229885190725327,217.88925069733523 L 25.19111024029553,218.8971231977921 L 25.44530152902007,219.75853675347753 L 26.309121066704392,220.448635868961 L 29.299099965021014,221.60118798958138 L 29.44773725233972,222.47642580606043 L 29.01690453477204,223.41267473017797 L 28.19832242652774,224.04216604004614 L 25.8158176317811,224.83192030875944 L 27.937668660655618,227.5086379861459 L 31.5695882383734,230.6469107803423 L 35.23597447760403,232.95963840652257 L 36.14718563295901,233.30976815894246 L 37.06701345182955,233.4362704406958 L 39.91912587545812,233.02514535584487 L 42.99096296727657,231.6925236156676 L 44.76168536953628,230.6378780384548 L 47.66980607435107,227.36191441956908 L 49.393136858940125,225.9896150669083 L 50.22679810971022,225.6939695063047 L 50.98290945775807,225.68719909479842 L 52.54252381250262,225.86548773618415 L 54.92072031646967,225.75038953404874 L 55.898710522800684,226.04378030262887 L 56.146439334377646,225.9286795819644 L 56.03873114474118,224.58144700503908 L 56.20460171997547,224.23170000943355 L 56.59019700624049,223.88873709808104 L 57.08350044302642,223.78043605736457 L 58.06579893827438,223.92709409142844 L 59.8839129563421,226.1814519513864 L 60.784353259950876,226.66219293163158 L 61.4952272195369,226.5831959208008 L 63.09577067196369,225.7549031621311 L 64.17931492067873,225.59692790964618 L 64.97635540738702,225.96930318698287 L 66.21930771321058,227.83595413458534 L 66.83324429392815,228.27841653930955 L 69.43978213518858,227.6576216192916 L 70.23251424729824,227.71179815079086 L 73.43360119126737,228.45902055944316 L 77.46834938973188,228.88571361196227 L 80.01241642795503,228.78637561947107 L 82.87314551509917,228.1926311524585 L 84.0471646245569,228.26261393213645 L 86.66016490012407,229.2559843074996 L 87.56922186724842,229.4569311090745 L 109.20133149437606,229.30791389127262 L 111.56660295836627,228.82701374962926 L 118.34360128454864,224.85674242838286 L 120.24788174591959,224.22493083239533 L 157.44166825897992,220.38548705074936 L 173.5935860015452,222.62531591486186 L 175.14027535915375,221.72524938173592 L 184.44195324741304,208.731686985353 L 184.96972330100834,208.39388298685662 L 191.04661843553185,208.13040552358143 L 192.40374140813947,208.32181997434236 L 193.63592290319502,208.82177039026283 L 203.50199165195227,214.6162209471222 L 204.76863976567984,216.32019552681595 L 209.52718687802553,229.47950970102102 L 210.23159831948578,230.83208487997763 L 234.11480874195695,260.8517688862048 L 235.05186980962753,261.5103443162516 L 270.5438672415912,279.7736503970809 L 274.4192072991282,281.19757526321337 L 393.21486031636596,298.08725772914477 z" /><path fill-rule="evenodd" fill="#D2EBD9" stroke="#A6A6A6" stroke-width="0.25" opacity="1" d="M 446.1435426734388,0.4203329076990485 L 446.96662411652505,0.7413496889639646 L 447.7508441526443,0.6776400790549815 L 448.64106560498476,0.2963511794805527 L 448.72559776343405,0.0 L 446.75838174670935,0.14605508279055357 L 446.1435426734388,0.4203329076990485 z" /><path fill-rule="evenodd" fill="#D2EBD9" stroke="#A6A6A6" stroke-width="0.25" opacity="1" d="M 438.00409140996635,2.7066041002981365 L 438.64178257621825,2.70746390405111 L 439.2483948711306,2.2748134045396 L 439.39265462756157,0.9764047602657229 L 438.1508905701339,0.7166019603610039 L 436.908026387915,1.2065373165532947 L 436.07134664058685,1.9272707405034453 L 435.17768074944615,2.186665056506172 L 435.3217026051134,2.5905157211236656 L 435.95670796744525,2.792848168872297 L 436.5026732478291,2.734598885057494 L 437.3988907150924,2.9374363580718637 L 438.00409140996635,2.7066041002981365 z" /><path fill-rule="evenodd" fill="#D2EBD9" stroke="#A6A6A6" stroke-width="0.25" opacity="1" d="M 406.1617317330092,3.810952027561143 L 407.4196001905948,3.2756610875949264 L 409.72528478875756,3.8012806207407266 L 410.3460909500718,3.6589797518681735 L 410.55981110036373,3.235558398067951 L 410.00862807407975,3.0317902073729783 L 409.5770511031151,2.5635491888970137 L 409.90265433862805,2.3130610352382064 L 410.29965001530945,1.595676357159391 L 409.1123349480331,1.8082876158878207 L 407.8866129722446,1.4813051281962544 L 405.97330874204636,1.8352572126314044 L 404.12044405937195,1.9372105551883578 L 403.45955260284245,2.93709058733657 L 402.9337331838906,2.9613842074759305 L 401.60391886904836,2.6178081636317074 L 400.87455646693707,3.6659211996011436 L 400.6506591513753,3.615595673210919 L 399.8043772485107,3.969841538462788 L 398.78824062645435,3.717982320347801 L 398.35062320157886,4.075475219869986 L 396.96121680922806,4.714840090833604 L 396.7791245300323,5.289185928879306 L 398.02834676764905,5.557629570830613 L 399.04332878254354,5.548336087260395 L 400.2664924710989,5.264635128667578 L 401.56287305243313,4.370877902256325 L 402.4615021571517,4.050974486861378 L 406.1617317330092,3.810952027561143 z" /><path fill-rule="evenodd" fill="#D2EBD9" stroke="#A6A6A6" stroke-width="0.25" opacity="1" d="M 36.81753726489842,24.000373223796487 L 37.370495762676,23.72047003847547 L 37.65206357464194,23.112009661272168 L 37.58760828897357,22.500106662977487 L 37.10249749198556,22.221980250207707 L 36.81414488889277,22.32975341216661 L 36.084782445803285,23.09810242871754 L 35.59967160783708,22.978152942145243 L 35.30792663060129,23.115486514987424 L 35.1993703879416,23.68222297076136 L 35.877847043797374,23.969079338479787 L 36.81753726489842,24.000373223796487 z" /><path fill-rule="evenodd" fill="#D2EBD9" stroke="#A6A6A6" stroke-width="0.25" opacity="1" d="M 497.0973592028022,18.438443306600675 L 498.1924562007189,18.581433264072984 L 498.9911489803344,19.07341755600646 L 500.0,18.723406286211684 L 499.4844751767814,18.177113751647994 L 496.5454684793949,17.39917417243123 L 496.0965592171997,17.05420712637715 L 496.0144285224378,15.925775374053046 L 494.2493222989142,15.178770882776007 L 492.84538367949426,14.851940956898034 L 491.15744009800255,14.16412615054287 L 489.28857868909836,14.327808240661398 L 487.72974914871156,13.740771861746907 L 486.59669310972095,12.283584093442187 L 485.1413606386632,11.56287649134174 L 483.3342638760805,10.232694000238553 L 479.45952801033854,10.301728921476752 L 478.7650250289589,10.105379369109869 L 477.8211777545512,9.315800526645035 L 476.22617698833346,9.828159395605326 L 468.1546221598983,8.253863829188049 L 466.27096460945904,8.05952509259805 L 463.8431638572365,8.312457857420668 L 459.6421983037144,9.518786030355841 L 457.4493347592652,12.033501947997138 L 456.8692371789366,13.006075247889385 L 455.77493862621486,13.383535104803741 L 449.72487772628665,17.24123708391562 L 448.5850368961692,18.43147442024201 L 448.95141428522766,18.7251440375112 L 450.06897490657866,18.39759330335073 L 450.92388360388577,18.495977325364947 L 452.02491367422044,19.173483139835298 L 452.5982264634222,20.765408850973472 L 452.30054674856365,23.26098183495924 L 452.9137659203261,23.5031418655999 L 455.38736631534994,23.899982406757772 L 456.6292697265744,25.636542367516086 L 457.4244901780039,25.73423744388856 L 461.06166206113994,25.120358801679686 L 463.08576996810734,25.324317078338936 L 464.7221219819039,23.82968433131464 L 467.5936143361032,21.690376315731555 L 471.0622727740556,20.789145121583715 L 471.90837305411696,21.82834890135564 L 472.30832036212087,22.869038223056123 L 473.45031908899546,23.11416901787743 L 474.2438297625631,23.01265553687699 L 474.9840425532311,22.661085351603106 L 476.3745807930827,22.855990228941664 L 477.81503496319056,22.802834004163742 L 479.90606665425,23.888837271602824 L 480.9026730693877,24.531341444468126 L 481.35546072013676,25.073112305253744 L 482.45459296926856,25.16874249605462 L 482.99028458073735,24.62387627363205 L 484.4761400464922,23.625293801072985 L 485.62669549509883,24.069873408181593 L 486.59669310972095,23.09810242871754 L 488.316631520167,22.87906525679864 L 488.70516326650977,22.22077042935416 L 490.79473821260035,21.318335610907525 L 492.49037032946944,20.96357660740614 L 494.18406714871526,20.01173273776658 L 495.06506324000657,19.739407771732658 L 497.0973592028022,18.438443306600675 z" /><path fill-rule="evenodd" fill="#D2EBD9" stroke="#A6A6A6" stroke-width="0.25" opacity="1" d="M 7.232561446726322,69.76736410846934 L 9.003385603427887,71.03517092624679 L 9.871835744008422,71.36873895325698 L 10.387478038668633,70.93911934015341 L 10.258567465469241,70.11485998309217 L 8.99320843629539,68.76685260725208 L 8.68450154364109,67.84849499817938 L 8.260453617200255,67.44172074948438 L 5.9502405021339655,66.38383524958044 L 5.838291887193918,67.01750584342517 L 6.160568278282881,67.9043623006437 L 7.232561446726322,69.76736410846934 z" /><path fill-rule="evenodd" fill="#D2EBD9" stroke="#A6A6A6" stroke-width="0.25" opacity="1" d="M 8.942322690039873,83.59796169190668 L 9.247637208551168,83.89173285337165 L 10.421401869505644,82.41597130172886 L 10.67243822477758,81.81279124412686 L 10.665653474628925,81.34600766166113 L 10.102517809718847,79.75875905063003 L 10.122872142121196,77.67020203033462 L 9.83791191317141,77.38185844314285 L 8.68450154364109,77.41331370640546 L 9.247637208551168,78.61393057135865 L 7.327548189088702,79.50356441293843 L 6.459098046645522,80.30063243326731 L 6.092720616608858,81.38446842483245 L 6.465882796794176,82.03307880437933 L 7.307193899527192,82.79363325145096 L 8.263845993205905,83.40211917227134 L 8.942322690039873,83.59796169190668 z" /><path fill-rule="evenodd" fill="#D2EBD9" stroke="#A6A6A6" stroke-width="0.25" opacity="1" d="M 3.762153211981058,143.1245040076319 L 2.6935524195432663,142.42591178696603 L 2.5612494703382254,142.14613818656653 L 2.7410457897931337,142.07575627509505 L 2.7614001221954823,141.87165183294564 L 2.5985657181590796,141.60421163914725 L 1.4926487188786268,140.79138307017274 L 1.9506204761564732,140.69990048767067 L 3.032790768891573,141.15908214519732 L 3.4364844039082527,141.09750468377024 L 3.4330920297652483,140.56971530080773 L 2.8224629927426577,138.3322317081038 L 2.9072726108133793,137.97168285003863 L 2.6121352165937424,137.43880045833066 L 2.8970954455435276,137.43880045833066 L 2.849602073431015,137.18028462911025 L 2.008290970697999,135.9124330978375 L 1.519787758588791,135.45879284082912 L 0.94308259524405,135.4869249239564 L 0.4851108379662037,135.86319972085766 L 0.0,136.59117761719972 L 0.006784750148653984,137.5654231160879 L 0.4342250917106867,138.62419885583222 L 0.549566125497222,140.85119913937524 L 1.0516388788819313,141.59189553791657 L 1.987936681136489,142.4839790754486 L 2.340744571760297,143.15617950935848 L 3.2566880844533443,143.63484510662965 L 3.5552178118377924,143.50109773874283 L 3.762153211981058,143.1245040076319 z" /></g></g></g></svg>