<svg xmlns="http://www.w3.org/2000/svg" xmlns:xlink="http://www.w3.org/1999/xlink" width="351.0848956219852" height="500.0" viewBox="0.0 0.0 351.0848956219852 500.0" preserveAspectRatio="xMinYMin meet"><g transform="matrix(1,0,0,-1,0,500.0)"><g><g><path fill-rule="evenodd" fill="#D2EBD9" stroke="#A6A6A6" stroke-width="0.25" opacity="1" d="M 57.31974897906184,453.27247538790107 L 57.400729322806,452.978927844204 L 58.1008719522506,452.14452178310603 L 59.383060870692134,450.9732244713232 L 60.22323199547827,450.73331132065505 L 61.4699920155108,449.9706245204434 L 63.57885534875095,448.221034408547 L 64.8829764276743,445.7841907273978 L 64.71426735259593,445.21744307596236 L 64.8677926082164,444.97317450866103 L 65.48526779934764,444.6636042864993 L 65.5476901549846,444.07418119721115 L 66.05213025584817,443.704778325744 L 65.95596609264612,443.18788286857307 L 66.47390291839838,441.92405339702964 L 67.2212840821594,441.5300071844831 L 67.36637387424707,441.00886038690805 L 67.61268912442029,441.04248653165996 L 67.52496039122343,440.48198309447616 L 68.12725176475942,440.566067812033 L 68.3398252055049,440.37733980454504 L 67.85563017055392,440.070855461061 L 67.74934346601367,439.78488901723176 L 67.71897582709789,439.28015052340925 L 68.45117317140102,438.6238149134442 L 68.58276625350118,438.1449946165085 L 68.03614886291325,437.61742156464607 L 68.08676160126925,437.42095190659165 L 68.57264371216297,437.22072161361575 L 68.44273772463202,436.4420797592029 L 69.16143834218383,435.90660049114376 L 69.32171196863055,435.58449994120747 L 69.66587845794857,434.38181512244046 L 69.48198558017612,433.8664405029267 L 69.95943222753704,434.0182546013966 L 70.58534286729991,432.65904228203 L 70.74561647884548,429.4384817443788 L 71.35803039185703,428.34696665778756 L 69.91894206404686,425.71073745470494 L 68.97585836984217,424.51376016810536 L 68.49335044436157,423.6061640502885 L 67.78477235138416,422.95441175438464 L 67.5030282177031,421.7558653075248 L 67.5030282177031,420.762210868299 L 67.94504597969353,419.8944985959679 L 67.5620764028281,418.2354101333767 L 67.65655347332358,417.0095918420702 L 68.04795851372182,415.84354355558753 L 68.64856277778745,415.23852763324976 L 68.89825219660997,414.4744424726814 L 71.52842655964196,416.03446503542364 L 72.43945550359786,416.15354578383267 L 73.78912804089487,415.448412544094 L 75.94522991031408,414.95864798966795 L 77.87357453629375,415.3860165402293 L 78.7930389456451,415.34063646849245 L 80.16295656375587,415.71499244868755 L 80.91033772751689,415.73956900741905 L 82.08623992651701,415.3047098517418 L 83.47808972001076,415.26878262963146 L 84.79402044788003,415.00025411415845 L 86.39000821858644,416.07226917985827 L 86.6380105279386,416.7299511488527 L 86.49460783042014,418.18820401187986 L 86.6886232662946,418.38079830724746 L 87.63845529779792,418.63001155667007 L 89.22263343259692,418.6413387209177 L 90.2534458246082,418.89052082039416 L 91.21171333640814,419.486926747486 L 92.03501358255744,420.3208544161171 L 92.65586292743683,421.2826655432582 L 93.49265991523862,423.382029267028 L 94.322708517313,424.42339465767145 L 95.86639647185802,424.96176513284445 L 97.62940622493625,426.91455871704966 L 98.14734305255115,427.0104587674141 L 98.88797586038709,426.84874244686216 L 99.16803290322423,426.96344949211925 L 99.74164372868836,428.0707112867385 L 100.44347345083952,428.7471913229674 L 101.1250580586493,429.79906586557627 L 101.06938407570124,430.35296941455454 L 101.70710434950888,430.6739798095077 L 102.01246775127947,431.01934057474136 L 102.13393829204142,432.15638408157974 L 101.84038452245295,432.71155201550573 L 102.76491019316018,433.88143496681005 L 102.35663425736129,434.77903773542494 L 102.67212021537125,435.54329756088555 L 103.49542046152055,436.58435260597616 L 103.50554298609495,437.5276090716943 L 103.8733287602663,437.87561168242246 L 103.5578428171575,438.59015133138746 L 104.05722163803875,440.1362673258409 L 104.75905136018991,440.6949914069846 L 105.29554619267583,441.77466038707644 L 105.8775924667716,442.1070459447801 L 106.07160790264606,442.5625933604315 L 107.0939848460257,443.41928798519075 L 107.48370277695358,443.3633051365614 L 107.76375983469188,442.9396550031379 L 109.34456378594041,443.7700813570991 L 110.12062547914684,444.00142494868487 L 110.93042899854481,444.0592570351437 L 112.81997055374086,443.5424452666193 L 113.85584422387183,443.8036650158465 L 114.09034982323647,443.7308997651562 L 114.6993895508349,442.97138495277613 L 115.7521341163665,442.3740381170064 L 117.80363637581468,440.6202540360391 L 118.71635242924094,440.3380972724408 L 119.1465605404228,439.66151934769005 L 119.77415827475488,439.3680208530277 L 120.39332054182887,438.54526572301984 L 121.68900617212057,437.45650489162654 L 122.72150567360222,437.6323899514973 L 123.05892380699515,437.3853983366862 L 123.00999816320837,436.9961421908811 L 125.05475204996765,437.51076881121844 L 125.91179412044585,437.51638225186616 L 126.63386890850961,437.09907731227577 L 127.7608454786241,435.7493015639484 L 128.44917847402394,435.2361276950687 L 129.27079161070287,435.0975123094395 L 130.37246182002127,435.3953370479867 L 132.3311740849167,434.66475006286055 L 133.19496451132,434.0707310670987 L 133.77194950729609,433.939537525177 L 134.9630355089903,434.0744793228805 L 135.9533577375114,433.83270258829 L 136.44767531193793,433.89080644678324 L 137.7450480349362,434.28811984695494 L 138.71681224182248,435.0356944715604 L 139.45744505152106,435.3953370479867 L 140.0850427839905,435.4889841293916 L 142.1432933807373,435.02820126805454 L 145.54952943883836,435.3859721235931 L 146.72374454513192,435.9721383070573 L 148.8267030455172,437.6323899514973 L 150.07177597098053,440.87995539885014 L 150.59308698400855,443.2289404012263 L 152.0203656796366,446.4514234550297 L 152.3797159884125,447.6511883251369 L 152.87403356283903,448.52451990544796 L 152.90440118685365,449.19464715383947 L 153.5522440019995,450.8709390917793 L 153.41558965854347,453.35050051566213 L 154.1714062858373,453.64399924036115 L 155.00989033468068,453.6124220918864 L 155.7859520446509,454.1343161864206 L 160.11502669751644,455.500693869777 L 160.8809658512473,455.6101908031851 L 162.16484184749424,455.42274361941963 L 163.22770897112787,456.5249313125387 L 163.82493904791772,458.0066525209695 L 164.23490209504962,458.54791478067636 L 165.74147405661643,459.6096726404503 L 166.875198982656,460.9153412254527 L 168.66014090925455,461.5762231722474 L 169.26243228279054,462.00745148025453 L 170.92759074643254,469.4329103222117 L 170.87782157957554,470.27758757490665 L 171.34261505492032,471.1284084795043 L 171.3518940564245,471.77898849733174 L 172.11361548490822,473.20851945132017 L 172.501646341756,472.72412465699017 L 173.03139281831682,472.8954240549356 L 172.89220782741904,473.8161729956046 L 173.1157473474741,473.6946549434215 L 173.73828380182385,474.53042412083596 L 174.11956628598273,474.42550913710147 L 174.19211118109524,474.63717487454414 L 173.96772813983262,474.8690648935735 L 173.96772813983262,475.2297370964661 L 174.45361023396254,475.02180531062186 L 174.68642875738442,475.3971731765196 L 174.93443108350039,475.189256249927 L 175.24485576339066,475.26469725742936 L 175.01372434943914,475.60691137518734 L 175.19339948892593,475.8166308347136 L 176.7126246392727,476.5339504405856 L 177.60087788663805,477.6058432785794 L 177.7839272096753,477.0543298954144 L 178.15171298384666,477.4624622184783 L 178.5886694509536,477.6444443743676 L 178.71857543848455,477.60951960552484 L 178.59879200719297,477.35216317884624 L 178.82823632843792,477.22898977342993 L 179.2770024444908,477.7161304578185 L 180.16778632439673,477.82641245797276 L 180.8476838544011,478.1517143463716 L 181.18172780238092,478.8701601717621 L 181.08303300850093,479.2467516101897 L 181.81269972212613,480.7121322778985 L 182.45126353390515,480.5193707961589 L 183.28890404477715,481.12513985671103 L 183.7342959921807,480.62401469703764 L 183.95361777208745,480.5193707961589 L 184.18981046415865,480.6405369983986 L 184.52554150670767,481.4885271396488 L 184.77185674011707,481.6518497830257 L 184.52554150670767,482.33804933633655 L 185.3100386634469,482.3765733903274 L 185.2037519440055,482.7012513997033 L 186.50618594512343,483.1487576337531 L 187.069674231112,483.5466742152348 L 187.3311732672155,484.04351845756173 L 187.19114475511014,485.19997743237764 L 188.3468018565327,485.71479780972004 L 188.8225614260882,486.1287725092843 L 189.09249592758715,486.877775545232 L 188.98114794492722,487.44898545742035 L 189.90398653782904,487.8059229021892 L 190.12836961261928,488.2890771282837 L 190.74078351072967,488.59831830393523 L 190.86394112743437,488.82885103393346 L 190.81838968396187,489.5514104999602 L 191.41393268667161,490.37431694287807 L 192.3013423793018,490.6576978554949 L 193.13813935220242,491.573432052508 L 194.36296717822552,492.08324241265655 L 195.71010906808078,492.17824905272573 L 196.74007790535688,491.90966305695474 L 197.3499611876905,492.2951751705259 L 198.39511385932565,492.2988290274516 L 200.14968814887106,493.162811242044 L 201.54491212777793,493.5335174873471 L 202.03079423867166,494.293015810661 L 203.1071580890566,494.22729930933565 L 203.39902476407588,494.4536487273872 L 204.01143867708743,495.52122513204813 L 203.88575042970479,496.75976229365915 L 205.16709579527378,498.28199992887676 L 207.29114293307066,498.45695157069713 L 208.15999462082982,499.0181712824851 L 208.58682854659855,499.0691849272698 L 210.70581443794072,498.8286827513948 L 211.9930646046996,499.4298944687471 L 213.21620535477996,499.18942728545517 L 213.5300042051822,499.65576664172113 L 214.39379461482167,499.6721597928554 L 215.33181702904403,500.0 L 215.62874498218298,499.79055153019726 L 216.92274353653193,499.9216865533963 L 217.25510039180517,499.82515729032457 L 218.2032453455031,499.18942728545517 L 219.9881872739643,498.73393303062767 L 220.94476767629385,498.31115939840674 L 221.48126249201596,497.75524783320725 L 222.20671148225665,497.5948304235935 L 223.06375355273485,497.05334466230124 L 224.47753551974893,497.1007522130385 L 225.76815987192094,496.2874041311443 L 226.326586894691,496.1506039565429 L 227.59527907148004,496.2892281021923 L 228.8319165315479,496.75976229365915 L 230.6708453502506,496.6503437580541 L 231.18203382194042,496.39866266865283 L 232.18585276044905,496.8910581152886 L 234.00369295664132,497.0369341606274 L 234.53597006574273,497.25208557769656 L 235.9936163984239,497.01505331043154 L 238.61282465048134,496.2892281021923 L 239.67316114343703,496.6503437580541 L 240.66685754060745,495.84779252670705 L 241.35519051924348,495.9171141013503 L 241.89843372255564,495.22198560554534 L 241.73816011101007,494.9044598704204 L 245.93732877634466,481.77295818645507 L 246.03686712495983,481.2352630831301 L 245.69438772834837,477.17751244083047 L 245.79476960003376,476.4438377087936 L 246.09928947873414,475.8111121347174 L 247.66659670323133,474.1107359761372 L 247.98883101716638,473.4663311969489 L 248.6189593821764,471.2371583292261 L 249.5097432602197,469.2982498873025 L 251.06439729593694,467.99735785648227 L 251.37482197768986,463.82955387048423 L 252.87464558333158,460.56168114207685 L 253.28629570640624,459.18539989180863 L 253.32172460854053,442.097709950991 L 253.0433546435088,441.21434533502907 L 252.9573130365461,440.16243153903633 L 253.2837650757283,438.8463554987684 L 253.4364467766136,437.3180320970714 L 252.7616105079651,436.4476959593594 L 251.9686778858304,434.12695439718664 L 252.677255962044,431.49412042833865 L 251.740920657292,431.0268478067592 L 251.2752836290747,430.9161136029288 L 250.8054288905114,431.0587532110512 L 244.1506997551769,435.38409914821386 L 243.73567544668913,435.52269606571645 L 243.2548546139151,435.5152045758441 L 242.2307905945927,435.1349768023938 L 239.13835340365767,432.366464571096 L 237.79880340769887,428.91439899709076 L 236.6903848424554,426.9314825749025 L 233.99188332259655,423.50257531460375 L 233.63843783177435,422.13660989981145 L 233.6839892733842,417.67264336161315 L 233.84679353237152,416.41814517695457 L 233.95729796029627,415.9909894084558 L 234.2407292034477,416.0080017223954 L 234.78903366997838,416.2159186704084 L 235.2268336918205,416.6619247486815 L 235.59208881668746,415.5807614726946 L 236.44913087040186,414.48200904764235 L 236.5452950503677,414.11878181807697 L 236.35634089447558,412.943531120196 L 236.42551160417497,412.4872550331056 L 236.79161028377712,411.8509503500536 L 238.46773486025631,410.3256689887494 L 239.49939080514014,408.8903009220958 L 244.68213330954313,407.0135128069669 L 245.7770551647991,406.7894733818248 L 252.98768065869808,406.690736326389 L 252.64688833989203,407.8069460866973 L 252.5608467180282,410.6478724256158 L 253.37908568419516,415.45408480335027 L 253.34365678206086,416.0023309607059 L 254.70007767528296,415.9456225633621 L 255.10160527192056,415.5410576686263 L 255.84308160282671,415.31794604100287 L 257.1463591437787,415.39736140333116 L 259.2552224788815,415.05131504591554 L 268.08402019925416,415.31016674637794 L 267.2072644289583,410.22681157756597 L 266.6254174001515,409.40872406587005 L 266.25478882342577,407.7984658787027 L 264.54910031706095,402.93158394563943 L 263.1609036643058,396.29238577280194 L 263.27249077148736,395.52276975940913 L 262.49270948395133,390.9153975928202 L 261.0141804199666,388.41079822182655 L 260.67543387040496,387.29997693002224 L 260.0298228021711,386.905907436274 L 260.14938041195273,386.67486447189003 L 260.36458410695195,386.779063670896 L 260.4960974641144,386.13565862271935 L 259.69904675520957,383.8427576404065 L 258.29092383757234,382.3903571339324 L 257.34376192092896,381.8212057361379 L 256.66626882366836,380.8035849519074 L 254.87290471978486,379.25341663789004 L 254.42522791028023,379.62629730813205 L 253.78094525448978,379.52474746946245 L 253.40765983238816,379.12759115267545 L 253.76898949220777,378.61814193055034 L 254.11570656113327,378.96991877630353 L 254.64973052218556,379.13971925340593 L 254.33888075873256,378.53928663861006 L 253.70256860740483,378.0054126335308 L 251.6833734754473,376.91900999937207 L 251.09089911542833,376.796068508178 L 249.73591292090714,376.9645419213921 L 249.95908711850643,376.4545232877135 L 249.45960199832916,376.1448034225032 L 246.28202651627362,372.49121386837214 L 245.15552817843854,371.5980378491804 L 245.05324000492692,371.1550994794816 L 244.1525727082044,370.0541593218222 L 243.14031830616295,369.2969902791083 L 242.9716092478484,368.7209141617641 L 242.5119766741991,368.33066851925105 L 240.2324116434902,365.0286722285673 L 238.08834524452686,360.717047595419 L 237.9209645986557,359.9699210766703 L 238.09365891851485,359.24088040646166 L 237.44007732905447,359.2439441867173 L 237.28199561871588,359.0922806914896 L 237.20229054056108,358.59737413562834 L 238.21587335690856,359.12445275485516 L 237.99137074500322,358.48090655822307 L 235.39697068929672,355.8154987581074 L 234.61187574453652,354.433757760562 L 233.69659584201872,352.27773085050285 L 231.3320120740682,348.0768145378679 L 230.80861544422805,346.75098244007677 L 230.03813309036195,345.9102805191651 L 227.26306821405888,340.7233529239893 L 226.8007788117975,340.0547962980345 L 226.08741842582822,339.4835432097316 L 225.5719923004508,338.3637386392802 L 222.8726472426206,334.7347313342616 L 222.4103578235954,334.4086952097714 L 221.88297595083714,333.262443988584 L 221.02083275653422,332.23983294237405 L 218.6403079815209,329.9594010328874 L 217.34111532382667,329.51573380827904 L 216.64768120460212,329.08130059577525 L 215.51055553369224,327.50618080887944 L 215.00442834198475,327.24586431402713 L 214.65372603014112,326.6190786585212 L 214.1994071304798,326.48496161494404 L 213.12206025794148,325.50841045565903 L 212.05666913092136,324.96530399564654 L 211.25430476479232,324.86540430784225 L 211.25430476479232,324.4719948582351 L 210.9314992222935,323.7520801909268 L 210.45194038376212,323.47871737461537 L 210.1185075081885,322.6380585273728 L 209.05178796686232,321.65626514330506 L 208.02226414345205,319.75053410883993 L 206.94491727091372,319.24950867705047 L 206.10801403224468,317.63586701918393 L 204.09944624826312,315.45745773334056 L 202.4189976658672,313.1349252983928 L 201.55021240003407,312.5927150491625 L 199.21485383063555,310.36081069055945 L 198.84156840853393,309.80986668821424 L 198.28628974966705,309.4398493785411 L 197.39624978601933,308.398655439727 L 197.166433500126,307.80926196463406 L 194.14162607118487,305.5664778361097 L 194.08981777727604,305.26027522049844 L 193.71121868118644,304.9603335885331 L 191.65217101946473,303.69369078427553 L 190.75017530843616,303.4250811347738 L 190.02087391726673,302.4925233554095 L 189.7458914257586,301.5025121374056 L 187.72005420736969,299.6918183527887 L 187.22588275931776,299.51127756014466 L 186.64403574727476,298.9109221510589 L 186.532448656857,298.5353952636942 L 185.75133895501494,298.1740513117984 L 185.4338470865041,297.80946048907936 L 183.84771619178355,297.19423574768007 L 181.84313365072012,295.18528744392097 L 180.69006695784628,294.74223934300244 L 179.9248982798308,293.9130015363917 L 179.48917723074555,293.98450343310833 L 179.37227646633983,293.48551646992564 L 178.9817216079682,293.0595138631761 L 177.69581314362586,292.1053899778053 L 177.47529577463865,292.2262752754614 L 177.35308133624494,291.9590436508879 L 175.45875748805702,290.5585718806833 L 174.2233288884163,289.95665065944195 L 173.53520844317973,289.05814846325666 L 173.0516643449664,288.9497862132266 L 171.63689935207367,288.1783014573157 L 170.56752298213542,287.95826818980277 L 169.65224307961762,287.1496391426772 L 168.53504367358983,286.9629774512723 L 166.22891028784215,285.93197794724256 L 165.89016374014318,285.3954812819138 L 163.3356162328273,284.3731099870056 L 161.2752401549369,284.54408092424273 L 160.2430594880134,284.3315630359575 L 159.2467460911721,284.86041122861207 L 157.07478292286396,285.2996603222564 L 154.83374200947583,285.4210326075554 L 153.40037916600704,285.2054310813546 L 152.061333976686,284.77893788553774 L 150.32509184069932,283.76578308455646 L 149.5904767755419,282.5872627273202 L 149.27829858101904,281.0172825427726 L 149.35136157274246,280.80271642655134 L 150.29188139922917,280.0034559192136 L 150.73822979442775,279.3304356196895 L 150.62664270401,279.04993050172925 L 150.112544991076,279.2150335041806 L 149.00464450381696,278.78220458701253 L 147.16080053709447,279.1957990331575 L 145.9413129594177,279.0884025590494 L 144.92108805291355,279.4538429547101 L 143.7706781886518,280.10919164307415 L 142.38513838127255,280.48241736833006 L 140.890668310225,280.51445002947 L 138.47161940298975,280.03069152496755 L 137.8260083347559,279.5147419208661 L 138.05582462064922,278.70684882905334 L 137.87515979819,278.31237812992185 L 136.6463732868433,277.1268013846129 L 136.59987866692245,276.5890834880993 L 136.9771493319422,276.22301499173045 L 136.5334577653557,275.68339887820184 L 135.8732341043651,276.09615670423955 L 134.757363114506,276.12506198138 L 133.48208198323846,276.4221148546785 L 132.13905153423548,276.2503123572096 L 130.7282717861235,276.62761233281344 L 129.44900539517403,277.5199479525909 L 127.1468572691083,277.8825234398246 L 125.57932420819998,278.65874763950706 L 122.65946178138256,278.92809649184346 L 121.60469801910222,279.27433837018907 L 119.8644706401974,279.4538429547101 L 116.96719132363796,280.13802750222385 L 116.2006942294538,280.1075896406546 L 113.57308371551335,279.4939083084464 L 112.90887479670346,279.1236678427085 L 112.48909475468099,278.4246353665367 L 112.5993534475565,278.0317019689828 L 112.88762011565268,277.76220844499767 L 113.25957710668445,277.70445417799056 L 113.25957710668445,277.5696864137426 L 107.61911494471133,278.1086921254173 L 107.3932838998735,278.92809649184346 L 106.9017692990601,278.96657135523856 L 106.56169433519244,279.1957990331575 L 106.62014471925795,278.8992397589609 L 107.22590325586498,278.3107743849978 L 107.11962982267141,278.041325927712 L 106.34117696620524,278.25464288238436 L 105.549439933151,278.1086921254173 L 104.24626203253865,278.52084986679256 L 103.33098213002086,279.03710629884154 L 103.17422883398831,279.65255770646036 L 103.53290164843202,279.7230637129396 L 102.91385893337429,280.0611307853833 L 102.19385645911098,280.13802750222385 L 102.5644850358367,279.5499981911853 L 103.08655325137079,279.1957990331575 L 102.78633081912994,279.0900055579841 L 100.55193199403584,279.8208057694137 L 99.7973906621337,279.85445334389806 L 99.21022997610271,279.66697963513434 L 97.70380414277315,278.61385193746537 L 96.97051749192178,278.4454823154956 L 94.76135860569775,278.6010243669152 L 93.0317585747689,278.0990685550496 L 92.28651616163552,277.3627004371956 L 92.08193981461227,276.9486513771117 L 92.15367437340319,276.62761233281344 L 92.68105626292527,276.22301499173045 L 92.13241969421506,275.91468435153365 L 90.00960797443986,275.59505220036954 L 89.40384943783283,275.3267707694322 L 88.99203989841044,274.8736463598907 L 89.02657877095044,273.9059245828539 L 88.5483483467251,273.1081748865545 L 86.82140514440835,272.2134666899219 L 85.41593907028437,272.0299596162513 L 83.69430954381824,272.3840778283775 L 82.72190767154098,272.853972398676 L 81.11186525039375,272.3905156441033 L 80.72928091138601,271.94302812125534 L 79.64263510331511,271.46321290452033 L 78.93990206718445,271.3569262800738 L 78.23052694089711,271.4165120497346 L 74.89885497651994,272.56754567846656 L 73.31405249424279,272.71237435005605 L 72.53294279240072,272.6254786616191 L 70.76614706031978,271.88185136485845 L 71.20718178153038,271.80779226124287 L 71.597736639902,271.50830211956054 L 71.79434246756136,271.0927905663848 L 71.6588438525796,270.6803967980668 L 71.35197933204472,270.5563363628462 L 68.46665577962995,271.08312624972314 L 66.18310548737645,270.7690057065338 L 65.50162714719772,270.44838009309024 L 64.93572114035487,269.9955314435065 L 63.736159827560186,268.48137379903346 L 63.19150850176811,268.30390544235706 L 62.823536770418286,267.8133480194956 L 62.154014175757766,267.52927428577095 L 61.59475025720894,267.0675499131903 L 61.25334686413407,266.39248878788203 L 60.67947035469115,266.3456441219896 L 60.01658984832466,266.053238610737 L 58.80772961862385,265.16439409647137 L 58.348097044974566,264.5402993345633 L 58.56728598475456,263.88199389725924 L 57.87783712334931,263.53413364477456 L 57.09938426874578,263.60856577847153 L 55.31133383885026,264.91058109514415 L 52.69435068778694,264.8313575135544 L 52.186895065009594,264.4982533156872 L 51.78571287356317,264.465909502469 L 49.45566798001528,266.6073110094294 L 48.620093155652285,267.08692555781454 L 47.807101441547275,267.84562602080405 L 47.41654658317566,267.8956556888297 L 46.71381354518235,267.52927428577095 L 46.42820370569825,267.66486105136573 L 46.14525070972741,267.52927428577095 L 47.177431378513575,269.0975246820599 L 47.17875979281962,269.85530045907944 L 46.58628543280065,271.0782940899953 L 46.03897727653384,271.66288444120437 L 44.69063317216933,271.4760956540704 L 43.69033453054726,271.5469490531832 L 43.24664296396077,271.8319423282519 L 42.69003589078784,272.70271950308233 L 43.11114434711635,272.77995674405247 L 43.58273268304765,273.9316520532593 L 43.29977968893945,273.76763255987316 L 42.741844184696674,272.9762518610805 L 41.283241387456656,273.0438234983012 L 39.224193723872304,272.5965124135837 L 38.65828773379326,272.1619579801336 L 38.32219801470637,272.3003839906305 L 38.16942996159196,272.5417970176786 L 38.32219801470637,272.9762518610805 L 38.20264040492475,273.7837136182934 L 38.682199243456125,274.722577448003 L 38.401903092861176,276.0913391029462 L 38.98375010676682,276.7752979788929 L 38.298286490142345,277.82477331906557 L 38.03525975905359,277.9739570301026 L 35.54049105010927,278.35888561885804 L 34.03539363108575,278.28351075574756 L 32.78402400761843,277.6322585083544 L 32.25664213486016,277.0353213334456 L 32.16232446394861,276.62761233281344 L 32.49708575382829,276.1009742729366 L 32.72025995142758,275.2785719195381 L 32.608672861009836,273.5971637479961 L 32.675093745812774,273.19343661144376 L 32.95406149700284,272.9762518610805 L 32.64852539263666,272.8829341279343 L 32.24202952720225,273.09852232411504 L 31.60704580694437,273.7837136182934 L 31.16069740988314,274.80293495953083 L 31.240402473136783,275.42637730948627 L 31.049110302701592,275.5484675131738 L 30.759515220299363,276.280820639804 L 30.137815659865737,276.6340337237343 L 30.148443007841706,277.16531779803336 L 30.546968368813396,277.47823066078126 L 30.8259361051023,278.65874763950706 L 30.36896037682891,278.5128322057426 L 30.11390415020287,279.1653440175578 L 30.718334274366498,280.0883654328063 L 31.049110302701592,281.212609895505 L 31.579149037599564,281.64160970039666 L 32.73487255908549,281.70883107185364 L 32.95406149700284,282.43369036447257 L 32.88232693821192,282.80799837596714 L 32.56749191507697,283.31813865620643 L 32.02416900359094,285.69887833762914 L 31.50608604773879,286.9406404811889 L 30.20423656143248,288.23250815458596 L 29.993018126115203,289.95983600150794 L 29.12423285841942,291.1316317357123 L 27.361422369256616,292.3725986061618 L 27.522160924971104,292.7017800966278 L 27.42651483975351,293.0881293024868 L 26.203042002394795,295.3726352136582 L 25.453814344480634,296.0996039863676 L 24.840085303410888,296.3852276382968 L 24.23964042402804,297.3274474851787 L 24.898535687476397,297.59701094124466 L 25.0712300054729,297.52724564634264 L 25.58665613271296,296.78184803109616 L 25.513593140989542,296.56927093304694 L 26.59359686076641,295.39803671091795 L 26.803486881777644,295.3186557646841 L 27.055886263027787,295.4678889159113 L 26.551087483763695,296.21385916881263 L 26.470053991302848,296.67397639062256 L 26.135292701423168,296.78184803109616 L 25.64244966953993,297.33379064593464 L 25.58665613271296,298.65582633949816 L 25.3541829995811,299.0344952987507 L 24.494696650654078,299.2673589931801 L 24.00716730952263,299.18815719056875 L 24.23964042402804,298.77783341053873 L 23.55151999555528,298.3895989712328 L 23.37351200170815,298.595611859113 L 22.993584491312504,299.67281494289637 L 23.106500012800097,299.9736774414778 L 22.73055776208639,301.1196396155283 L 23.033437022939324,301.88846274185926 L 22.41306589357555,302.7486317884177 L 22.427678484469652,302.9177689747885 L 22.719930414110422,302.90670444071293 L 23.299120597541332,303.3429098399356 L 23.439932888373733,304.64139124564826 L 24.444216787815094,305.0740018012002 L 24.685988821089268,305.0503215417266 L 24.56510281190276,304.906654340215 L 24.75639498233795,304.619284151122 L 25.58665613271296,303.84693756885827 L 26.29071758314967,303.56413135211915 L 26.915073972195387,303.72528916969895 L 29.43375420756638,306.15978862252086 L 29.813681717962027,306.9153347508982 L 30.43006758764386,309.1863027680665 L 30.49117481522262,309.954703127034 L 30.414126582443714,311.30016241874546 L 30.124531481415033,312.0409025615081 L 30.60276190750301,312.870913464576 L 30.67848172597587,313.6502622757107 L 30.047483248636127,316.17448198236525 L 29.864161597564816,318.2329297941178 L 29.478920413181186,319.48751347418875 L 29.49486143514514,320.73338399268687 L 28.82268199697137,321.9752512611449 L 28.809397818520665,322.50520428083837 L 28.187698274850845,324.48448538966477 L 26.135292701423168,327.6261942079291 L 25.355511413887143,328.45048425905406 L 25.129680387675762,329.0968734966591 L 24.34192861430347,329.8706763610244 L 23.70561646297574,330.8697429765016 L 23.24067021533847,331.235306058079 L 22.883325815200806,332.6097805192694 L 22.01454054750502,333.38828762900084 L 20.81763606518507,335.358693649061 L 19.86250362917781,337.4525172300637 L 18.726706374436617,339.07008570153266 L 17.8207254037261,340.8950952598825 L 17.400945361703634,342.5281609557569 L 16.003449792042375,344.67398188170046 L 16.064557002857327,345.3917846381664 L 15.663374811410904,345.8562773419544 L 14.603297375142574,347.99205149151385 L 13.254953268915415,350.1930882781744 L 12.886981520801783,352.13472690153867 L 12.028823586180806,353.6410974441096 L 11.367271510884166,356.51672486402094 L 10.050809416919947,359.89029173273593 L 9.571250578388572,361.83412223216146 L 9.672210337594151,361.83412223216146 L 9.571250578388572,362.8480977676809 L 9.175382060930133,364.13046372961253 L 8.95884995162487,364.3076950525865 L 8.77951354533434,365.4241766864434 L 7.5733101442456245,368.8276080386713 L 6.773602589964867,369.9262081505731 L 6.428213953971863,371.0546249952167 L 6.093452664092183,371.56607665959746 L 6.109393671154976,371.9952253885567 L 5.761348204687238,372.8866956597194 L 5.7799460384994745,373.62876477092505 L 5.530203487724066,374.0528928581625 L 4.488723902031779,374.97835334483534 L 3.962670426815748,376.1873169345781 L 3.2280553616583347,377.2195008005947 L 2.1281253937631845,378.1722640618682 L 1.5143963526934385,380.86720183398575 L 1.058749021962285,381.04592384956777 L 0.7107035405933857,381.83331707585603 L 0.0,382.59315286856145 L 0.2723256628960371,382.9880901277065 L 0.27896775119006634,383.4691701810807 L 2.079339347779751,384.3372730631381 L 3.315976809710264,385.5715768933296 L 3.6297756750136614,385.5466297697276 L 3.8170427568256855,384.9266876876354 L 4.088664334267378,384.8978930450976 L 4.4142728336155415,385.1781429341063 L 4.88665821775794,385.89010465331376 L 5.036809304729104,386.99687492102385 L 5.450146520510316,387.30941992625594 L 4.871474398300052,388.46712995227426 L 4.87653567828238,389.1779030961916 L 5.16671527735889,389.32155930809677 L 5.635726476088166,389.0763797564432 L 5.789251731708646,389.1932269250974 L 5.5547461323440075,389.96501096803695 L 5.709958480671048,390.20816585514694 L 6.307188557460904,390.265599636361 L 6.001825155690312,390.9776403307915 L 6.66316469758749,390.9068305445835 L 6.78294812887907,391.09246163535863 L 6.904418652877212,392.5615874780342 L 7.339688058942556,393.01090757362545 L 7.7952025309205055,392.74515179079026 L 8.412677707150578,393.12369965203106 L 8.847947096452117,393.01090757362545 L 9.899004586040974,393.59391635656357 L 10.248232355341315,393.51364332810044 L 10.87751716375351,392.5233427649364 L 11.604653246700764,392.2498717168346 L 11.75311722420156,391.9285429120064 L 11.785171939060092,390.2253961553797 L 12.131025537848473,389.7945932717994 L 12.65402364358306,389.6950165834278 L 13.689897313714027,389.94203416537493 L 14.295562855899334,389.8769317418337 L 14.724083891138434,388.42305741645396 L 15.181285455822945,387.67559051234275 L 15.176224194467068,386.7686665523797 L 15.039569851011038,386.33135294821113 L 14.221330868080258,385.88626729045063 L 13.944647995755076,385.37199098430574 L 14.519945913925767,384.45632221829146 L 14.740954803302884,383.72078982554376 L 15.338184896856546,383.49796305503696 L 15.517016496509314,383.08874084521085 L 15.209965985268354,381.58560252189636 L 15.240333626046777,381.025954621844 L 15.849373368546367,380.92785544134676 L 18.167435942217708,381.4740703906864 L 18.413751158863306,381.29906751494855 L 18.56221515312791,380.06975771300495 L 18.914817105978727,379.9119496513158 L 19.65038862079382,379.77337591629475 L 20.308353977277875,380.154429926537 L 20.834726268425584,380.20061322208494 L 23.559377701953053,379.59244533162564 L 24.703225169330835,378.98793793283403 L 25.6952344737947,378.1559510678053 L 27.69274982623756,377.344805220142 L 30.014186585322022,377.7533106757328 L 31.465084547176957,377.4006907539442 L 32.637612560763955,377.8477171221748 L 33.074569042772055,377.59916780143976 L 34.017652720212936,378.03844264149666 L 37.14720590598881,378.50072966888547 L 40.556816132739186,378.00184021610767 L 41.41217110864818,376.88995238300413 L 42.27933570370078,376.71453564986587 L 42.631937658414245,376.2730318456888 L 43.261222483590245,376.3077388452366 L 44.8656456861645,377.0287323920056 L 45.27729580923915,377.5317264199257 L 46.00611898303032,377.69550853408873 L 45.29754090681672,379.3845468144864 L 45.64002030342817,380.3122183093801 L 46.03311241976917,380.73933726735413 L 46.26930511370301,380.75857465993613 L 46.83279341459274,380.40842445008457 L 48.727396216243505,381.00864337477833 L 49.181223610416055,381.51060748752207 L 49.65192190185189,383.00227450579405 L 50.0112722273916,383.29240204114467 L 50.583195962011814,384.24510100483894 L 50.89699482731521,384.402558978647 L 52.535159854218364,384.52736426051706 L 53.51029824651778,385.0629765978083 L 54.77561625465751,385.25683603063226 L 55.93633463419974,386.1663760636002 L 57.323123164474964,386.26613118872046 L 57.31974897906184,453.27247538790107 z M 204.22232501022518,377.21182964742184 L 203.3247927762568,378.1347615448758 L 202.45931525714695,379.55009744130075 L 201.9835557024926,379.9004022022709 L 201.06915255635977,380.1986889373511 L 200.35382610745728,381.30099069327116 L 199.6300642117858,381.3202225379646 L 199.09188230335712,383.01764656510204 L 198.56551001220942,383.50948917865753 L 197.39298199862242,382.84470374695957 L 194.4625055268407,382.4737857915461 L 193.70331471413374,381.39137869048864 L 193.06053317710757,380.97786741610616 L 190.74078351072967,381.0625001229346 L 188.51719802431762,378.18484546709806 L 188.43284347839653,377.7822110997513 L 187.84404884837568,377.7398236459121 L 187.314302386716,378.2098869420588 L 187.00725187547505,378.24841167684644 L 186.7693720906973,378.11164545547217 L 186.38302832841873,377.28891803417355 L 185.9477589391172,377.0923365522176 L 184.08858502283692,377.21953861694783 L 184.2083684708923,376.9053728757426 L 183.64319309219718,376.52367956377566 L 183.5048516560346,375.68291721865535 L 183.29902660287917,375.6906322911382 L 182.78362039104104,375.01737541146576 L 182.3213575463742,374.8552956581116 L 182.74228667095304,374.2879091463983 L 182.1838596649468,374.16051368415356 L 182.2631529327482,373.71070162951946 L 181.89368006587029,373.01550613716245 L 180.95903185382485,371.8640179261565 L 180.4006048310548,371.46972553711385 L 180.52123181708157,370.6383530953899 L 179.2871250025928,370.06391512975097 L 179.16565447859466,369.3093403792009 L 178.558301826939,368.8390314457938 L 178.72869797982275,368.3376279855147 L 178.6409692633897,367.9871480287984 L 177.85478501208127,367.16006953269243 L 177.60509559325874,366.5303190872073 L 177.0466685872525,366.40046766866 L 176.71431173197925,365.702606536448 L 175.83533748611808,365.24110186006874 L 173.97953775711358,364.6863720053807 L 173.289517685771,364.0131074851379 L 172.90317390672863,364.2808897625655 L 172.57925251498818,363.75693243648857 L 172.4257272593677,363.98011718597263 L 172.13048639893532,363.80351229943335 L 171.92297425307333,363.0347978975624 L 172.7201245818287,362.465825535357 L 173.19588415324688,361.7451400225982 L 175.13350778073072,357.1639899853617 L 176.22842962108552,356.13144352752715 L 176.99352523498237,354.27727237157524 L 177.70969522185624,354.2655682610348 L 178.11290989629924,354.0685382997617 L 177.49796533584595,352.7414567405358 L 177.86490757018328,350.8878114875406 L 178.54480510018766,350.74514663405716 L 179.2677234429866,350.90539954882115 L 179.681904213503,350.0316574666649 L 180.53388498909771,349.540851845406 L 180.6469200644642,349.14381017908454 L 181.46684614010155,348.1635538386181 L 181.65917446650565,347.49409763887525 L 182.65371440164745,346.73234449885786 L 183.53521929495037,345.72336868941784 L 184.59471221640706,345.2314146729186 L 185.27967102453113,345.1392811415717 L 185.897146217525,345.3451049895957 L 187.17596095055342,344.641288026236 L 189.10430557653308,344.4726455695927 L 189.49739769473672,344.300065160729 L 189.54294913634658,345.66457633208483 L 190.18404358066618,346.29943430796266 L 190.51640045270324,347.2963462686166 L 190.25827558524907,348.1204966995865 L 191.77328299544752,349.4430662477389 L 192.103952774778,350.10790642071515 L 192.0600884091109,350.5399244874716 L 191.45104867964983,351.075408808887 L 191.48647759854794,351.4271026905626 L 192.08033350668848,351.9213152229786 L 193.01666881144047,352.18301876820624 L 194.47768934629858,354.0392746459693 L 195.65865280851722,353.9865989163518 L 197.03531876578927,354.62251010071486 L 198.10156009159982,354.28312437981367 L 198.65323872677982,354.2792230490595 L 201.19905854389071,355.0729784555733 L 202.2501160185784,355.507742988877 L 206.0713763833046,357.9604148855433 L 206.8896153513342,358.2718826243654 L 206.9942149631679,358.4334361702204 L 206.70572247169912,359.54641494341195 L 206.26201761700213,360.0443177642301 L 206.39192360639572,361.46339562162757 L 207.16798529960215,363.02703151945025 L 207.6420577764511,363.4036645339802 L 208.89894032105803,363.7938082627952 L 209.0828332155943,364.0286321127787 L 209.10476538911462,364.63205406535417 L 209.37132572196424,364.81634076684713 L 209.02631567791104,365.5552474912256 L 209.15031683258712,366.4295396525413 L 209.49448332190514,366.78224428743124 L 211.05672929994762,367.46614982001483 L 211.2693027239293,367.8419026341289 L 211.2887042518705,368.40732901822776 L 211.65058520808816,369.1138762412593 L 211.30979288741946,369.5531586641446 L 211.29292199201882,370.0890624858439 L 210.67207261361182,371.1140196528286 L 210.37008339725435,372.0901196235791 L 209.7070567626506,372.76246979739517 L 209.62438930943608,373.8381268940866 L 207.93729865550995,374.2280729301274 L 206.59100030362606,375.65591419674456 L 205.44546574354172,376.16119391005486 L 205.19661987945437,376.9516336163506 L 204.22232501022518,377.21182964742184 z" /><path fill-rule="evenodd" fill="#D2EBD9" stroke="#A6A6A6" stroke-width="0.25" opacity="1" d="M 345.9372764751315,3.2777420599013567 L 346.46598677895963,3.4330613994970918 L 347.0159517619759,3.355404080823064 L 348.5263628549874,2.9048988334834576 L 349.2995020374656,1.9995260071009398 L 349.74585043266416,1.8129319474101067 L 349.22378221713006,0.595516144298017 L 348.7774338219315,0.16934162750840187 L 348.2885760497302,0.0 L 347.8741096816957,0.15182456653565168 L 345.8163904491812,0.17907322198152542 L 344.9515904262662,0.40871737990528345 L 344.6327701434493,0.8367575481534004 L 344.51586937718093,1.4882712503895164 L 345.9372764751315,3.2777420599013567 z" /><path fill-rule="evenodd" fill="#D2EBD9" stroke="#A6A6A6" stroke-width="0.25" opacity="1" d="M 349.17994442768395,7.859520939178765 L 349.24238006956875,8.381782794371247 L 349.82157025299966,8.725972894579172 L 350.558842163533,8.75884015392512 L 351.0848956219852,8.346971948631108 L 351.0623125117272,7.65636183321476 L 350.4459266420454,7.426076072268188 L 349.6701306141913,7.538321348838508 L 349.17994442768395,7.859520939178765 z" /></g></g></g></svg>