<svg xmlns="http://www.w3.org/2000/svg" xmlns:xlink="http://www.w3.org/1999/xlink" width="500.0" height="434.15155400009826" viewBox="0.0 0.0 500.0 434.15155400009826" preserveAspectRatio="xMinYMin meet"><g transform="matrix(1,0,0,-1,0,434.15155400009826)"><g><path fill-rule="evenodd" fill="#D2EBD9" stroke="#A6A6A6" stroke-width="0.25" opacity="1" d="M 467.79040119610727,381.63626210112125 L 467.8831987697631,379.1053118009586 L 468.08646967448294,378.51842837710865 L 468.5018493141979,378.17345553520136 L 469.04758748598397,378.47362719196826 L 469.5447173770517,378.49602775787935 L 470.8306267019361,377.5641333013773 L 470.848302455619,376.3812599487137 L 470.0926649942994,373.2533580532763 L 470.6140990257263,372.0746207444463 L 471.17972239665687,371.88637260952964 L 472.12537394464016,372.4287001043558 L 472.70204464159906,372.5721222232096 L 473.17266094498336,372.3525065709837 L 473.66758134774864,370.954060142627 L 474.6132328957319,370.60891013848595 L 474.9888421781361,371.4022946858313 L 475.3777082320303,373.8090796743054 L 476.36754912137985,373.329546908848 L 478.67423185892403,373.20854086149484 L 479.5292952787131,372.6034955759533 L 480.33575046435,370.93613045080565 L 480.3998250067234,370.27719986252487 L 479.92037082463503,369.0533925956115 L 480.03526309132576,368.4123095909599 L 480.439595406875,367.79809865984134 L 481.51118650473654,367.1345422610175 L 481.97959336079657,366.6278874974232 L 482.59824390523136,365.4486134266481 L 483.4776114653796,364.46655877283774 L 485.5810233000666,363.6055241476279 L 485.8594160694629,363.2691685312893 L 486.53109383024275,361.55587453208864 L 486.8050676174462,360.3447837426793 L 486.5001612622291,359.4296691180207 L 485.2319276481867,357.4512051085476 L 484.4276819527149,355.40066832327284 L 484.2023163586855,354.3057300534565 L 484.1758028138429,353.1837785972748 L 484.75026401877403,352.38938268250786 L 488.24122067168355,350.83187668561004 L 490.6097685024142,348.65466742566787 L 491.71892051026225,348.2640803612303 L 492.5143283717334,347.2134813191369 L 493.36276340670884,346.61631040112115 L 493.97478556632996,345.91134607815184 L 494.0742115266621,344.5417263524141 L 493.8046566788107,342.11199942883104 L 493.9593193028122,341.0699141337536 L 495.0817281268537,338.3879748561885 L 496.9641933888197,336.4379576323554 L 497.7993716094643,334.4876588047482 L 498.46000204607844,333.7236399012618 L 499.62439076043665,333.5708308715839 L 499.6310191042721,332.4292026720941 L 499.93371601216495,331.63809612370096 L 500.0,330.8784099747427 L 499.2973897140473,329.8219697244931 L 496.9597744513303,327.99660309473984 L 495.8417845238,327.37160457181744 L 493.7604673374444,325.0242242864333 L 493.0644854810089,323.27465953375213 L 492.5938691329211,322.51899137627333 L 491.71892051026225,321.97920175502077 L 491.0693374834955,321.85774604207836 L 490.29160537570715,321.07950298511423 L 489.730400942266,320.82307745772414 L 487.65792159177363,321.13798527792096 L 484.8165480066091,320.3866927102208 L 484.2951139770448,319.9322971405927 L 483.49307772889733,318.70849967352115 L 482.86337986029685,318.3215397319291 L 481.8956336621195,318.4565271027386 L 481.4957202412188,318.3170401244424 L 481.1179015543312,317.5520852319896 L 481.08034060150385,316.92658857489005 L 481.41838892921805,316.6880818894133 L 482.5407977513969,316.7735847698059 L 483.1594482958317,316.2425576315727 L 483.48203040473163,314.8698864826001 L 483.7427474204451,312.27266272949055 L 484.15812706016004,310.962598525919 L 484.77456815727055,309.75596026028506 L 485.5655570384115,308.66178296972066 L 486.5178369730711,307.70261200424284 L 487.88770608231425,305.2886029914953 L 487.51651573739946,303.9868287704885 L 486.9287977181375,302.7660119126085 L 483.92834257148206,298.12041706731543 L 483.9548562001437,297.0793146828655 L 482.86779879778624,296.3581537792925 L 482.87221773713827,294.62268866365775 L 482.5120747163892,294.02761610993184 L 481.42280786670744,294.92923004180193 L 481.02068499848247,294.3116315617226 L 481.1709287278354,290.05973233119585 L 480.26504753902555,287.885870852042 L 480.40645339153707,287.54757971526124 L 481.1223204508424,287.28145074052736 L 482.58498709090054,287.3716645461973 L 483.28317843936384,287.24987569008954 L 483.86205858178437,286.5867816680111 L 484.11393776349723,285.8830504983198 L 484.6000202894211,278.7893252116628 L 484.45419554039836,277.19130699010566 L 483.8885721694678,275.5434094443917 L 483.8929911069572,274.8435485230293 L 484.5425741765648,273.26306614582427 L 483.7537947446108,269.6542615494691 L 482.07239093631506,265.66025493340567 L 481.9177283104509,264.2096059930045 L 481.97959336079657,262.73617683467455 L 482.3021754268557,262.0265141124837 L 483.9990454968065,260.26799120544456 L 484.5337363425642,258.83927754405886 L 485.28937380202115,255.791367611615 L 486.1157141458243,254.49327373574488 L 487.6181511897594,253.9640435227193 L 490.7688500676304,254.92297261743806 L 492.43920650705695,254.33495957474224 L 493.15507356636226,254.35757600469515 L 493.64557511359453,254.17211982235312 L 493.7118590604514,253.28098376374692 L 493.3274119440466,252.5752633428201 L 492.0282458048314,251.78353792335838 L 491.71892051026225,251.059626723174 L 491.0693374834955,250.94198678131215 L 490.8749044146389,250.61620837217197 L 490.839552950114,249.53926337184384 L 490.46173422038555,249.01885427208617 L 489.1647775731981,248.49389567319304 L 487.1320686209947,246.14938749792054 L 486.15548454783857,245.52923358790576 L 485.2098329998553,245.3119453592226 L 484.096262011677,245.85968478163704 L 483.56157116405666,245.90042468043976 L 482.08122877031565,245.56092110602185 L 481.5907273069024,244.99958615307696 L 480.87927918694913,243.49651938979514 L 479.1824090741575,242.47776063531637 L 478.58143428340554,241.70344213978387 L 478.1439599506557,241.6853288069833 L 477.45460652187467,242.87621955038048 L 477.1563285533339,243.17958213272505 L 476.7475772984326,243.29277501697652 L 475.7488985750824,243.0754436426796 L 474.64858435839415,242.36908756825142 L 473.93713623844087,243.23844257812016 L 473.64106780290604,243.30635815113783 L 472.6865783780813,242.61812845128588 L 472.23584723100066,242.0249492698349 L 470.92342432029545,239.40281184529886 L 469.38121687434614,237.09264704491943 L 468.80675567127764,235.90113933826797 L 468.65651194006205,235.13542619510554 L 468.9083911217749,231.9179458504077 L 469.1867838483304,231.44204167067073 L 470.3401252385229,230.71228195214644 L 471.3896216433495,229.7376826624386 L 471.754183601588,228.67232396290638 L 471.5553316362202,227.45270107593387 L 470.3843145351857,224.77267968677916 L 469.71705575473607,219.91430706740357 L 469.9468402452767,218.4168895902112 L 470.96319472044706,216.66283117514104 L 471.09576265513897,216.1544865127653 L 470.8659782074392,215.54171756119467 L 469.58006883971393,215.16496073454618 L 468.51731557771564,213.80761840869673 L 467.73737397789955,212.0959408644121 L 466.56193793937564,207.26361898658797 L 465.7974626030773,205.578145804815 L 464.58225620537996,204.92387340404093 L 463.7956862207502,204.80119281355292 L 463.4377526920289,204.32408796157688 L 463.1814546138048,201.83824834530242 L 462.6246691197157,201.44736799108796 L 461.0493197031319,201.2110147078056 L 459.32372655533254,199.85187936457805 L 458.7846167720854,199.76550694857724 L 457.3749773465097,200.09735502814874 L 456.9640166014433,199.75641501578502 L 456.77842149324715,198.84264100925066 L 457.28217972815037,197.44682148797438 L 458.6343731265515,197.13762438716367 L 460.2030941154808,197.12398310936987 L 461.3343408573419,196.61924389447086 L 463.1947114299983,193.7904307707213 L 462.8301494717598,193.31282174866647 L 461.2592189498246,192.5622485796921 L 460.79965001158416,192.07093477761373 L 461.04269127361476,190.88349629496224 L 462.2755734678358,190.3284014519304 L 463.8531323764473,190.0098908424843 L 465.16334583982825,189.52300559100695 L 465.79304370842874,188.97238785610534 L 467.92075968161225,186.33720410056412 L 468.4444032032043,184.32053353404626 L 468.7979177944362,184.0246001679916 L 469.57123096473515,184.06557607534342 L 469.91590767912567,183.88801264809445 L 470.1589489839971,183.51466407021508 L 469.9468402452767,180.8097534463741 L 470.16778686083853,180.14024489885196 L 471.1664656251669,178.84664696268737 L 471.9508260767907,179.03340898966417 L 473.28755316883326,181.2196347473655 L 473.86643331311643,181.87541041336954 L 475.9455410502851,182.6313214013353 L 476.332197656855,183.01380908605643 L 476.7431584019214,184.12931602774188 L 477.17179481498897,184.3751664222218 L 477.7816075272858,183.86524789780378 L 479.1117061916739,181.34259594231844 L 479.84083006344736,180.45906399795786 L 438.1393642667681,166.12041374435648 L 434.7058537248522,165.48641156195663 L 433.06863925792277,164.9800928311888 L 429.8406091108918,163.48379201372154 L 413.8131410200149,158.1490864767693 L 406.8975117020309,154.48292705230415 L 403.229797732085,153.11289892159402 L 388.84617253765464,149.60017496719956 L 388.0816972013563,149.5407811498735 L 377.7855845578015,147.1601577855181 L 363.6670953184366,141.953627981944 L 356.521681509912,138.36820204602554 L 352.07623543031514,137.7278049935121 L 352.3546281568706,136.09459653077647 L 352.3546281568706,134.11789960600436 L 352.5623179990798,132.20029050298035 L 354.1575526166707,126.66494390252046 L 355.21809643134475,124.5534140393138 L 356.61006014607847,123.64178120205179 L 357.22429175302386,123.40813220874406 L 357.76340149343014,122.82627492561005 L 358.5102010779083,121.21795971388929 L 358.69137733243406,120.30599871021695 L 358.8018506169319,117.41829171543941 L 358.9366280846298,116.90941148228012 L 359.7033128682524,115.60269791353494 L 358.8018506169319,113.62164034647867 L 358.5234578922391,112.64471113937907 L 358.6162555105984,112.03006370505318 L 360.0612463988364,110.37856694846414 L 360.55174790509045,109.07091974234208 L 360.45232194289565,108.96079349052161 L 358.1566865295172,108.02466658153571 L 356.9326422121376,107.98336463258602 L 354.8822575509548,108.87819795962423 L 353.8040380254388,109.02962254872546 L 352.4474257323891,108.10268081212416 L 351.76691013760865,107.9512407744769 L 350.1716755181551,108.88278662739322 L 348.4703865107149,109.25904896529391 L 343.3621005900204,108.25870735174976 L 341.5171962380409,108.46979774557985 L 337.85169180110097,109.47470454638824 L 335.9515508264303,109.65364886890166 L 334.9661288764328,109.43799757352099 L 333.21181269548833,108.62122918269597 L 331.36469889618456,108.3275416828692 L 328.9166103042662,107.50149477948435 L 327.87816118076444,107.35463410615921 L 325.2577342521399,107.8365117565263 L 324.24137977696955,107.55197760369629 L 321.8905076999217,105.71146829449572 L 317.55111601017416,105.23865864542313 L 308.1166951749474,100.85825425223447 L 306.6054202541709,99.25984012777917 L 306.21655420027673,99.00719113578089 L 305.3548623509705,98.7912854924798 L 303.8347495980561,97.67032992187887 L 303.4149510189891,97.18790827598423 L 302.504650933668,95.45557024865411 L 301.9611222539097,94.9270713457372 L 300.9226730875671,94.73404655372724 L 298.98718069307506,94.6972794465255 L 298.06804273091257,94.52722961921245 L 297.2593780551106,94.1503508654423 L 295.82764398120344,92.7392119220458 L 294.89966814406216,91.55772791011259 L 294.17938214726746,90.3393014180474 L 294.0468141697347,89.84728555381298 L 294.6345321889967,88.65621793805622 L 294.3959098216146,87.14300878020003 L 293.84354326687753,85.29368952894583 L 293.61375881917775,83.5176091992762 L 294.3428826481104,82.24744544900022 L 293.3221092354506,79.86309015844017 L 293.1718655489385,78.900878444314 L 294.0379762928933,76.26691376371309 L 294.0468141697347,75.25363808008842 L 292.84486454352736,73.18526727799326 L 292.56205283664167,71.5726088762749 L 291.97875375673175,70.8813774655573 L 290.2863026242703,69.5909306278918 L 289.9372069723904,68.83039820264094 L 288.7286289166659,67.6779484313447 L 286.9279139470309,67.58113557705656 L 284.899623978883,67.20309412991628 L 269.3714952711016,61.0552751342766 L 266.4815133661032,59.177301567280665 L 262.26585181988776,55.65094218426384 L 251.77530610747635,51.08849546080455 L 249.56583988294005,49.74884650693275 L 247.87338875047863,47.89146230602637 L 242.05365470983088,39.06555610592477 L 241.35546336323023,37.506525417091325 L 240.48493363708258,33.94787274627015 L 239.32275441288948,31.693418202921748 L 237.0558420754969,29.364245120203122 L 232.68551781959832,25.343356161378324 L 221.35537494719028,13.477541841799393 L 220.92231959663332,12.823231817223132 L 220.85161666944623,12.363790784962475 L 221.01069823279977,10.191530840238556 L 219.5745451785624,8.408722843043506 L 216.71107694506645,5.61764227389358 L 215.54889772087336,4.976623735856265 L 214.90815248526633,4.790811558952555 L 212.89311928860843,4.697903817985207 L 210.8780860900879,3.471420203568414 L 209.86173161491752,3.8059345379006118 L 205.8316651787609,1.933401740854606 L 204.10386262647808,1.6313388750422746 L 202.32303281500936,0.1533880594652146 L 201.81264610774815,0.0 L 198.77021110989153,0.9016932733356953 L 198.08085763826966,1.2595533612184227 L 196.26467636413872,2.9835614785552025 L 192.64115173369646,4.0428736170288175 L 189.35346598364413,5.854527411982417 L 187.39145996049047,6.230742183048278 L 185.8006443232298,5.9892236310988665 L 185.49131902866066,6.063537819543853 L 184.46612667664886,6.774132115533575 L 182.11083566211164,7.150303425500169 L 181.3375224918127,8.222990714246407 L 180.9442374985665,8.380863272352144 L 178.66406834684312,6.783420522231609 L 177.6742274593562,6.593006244627759 L 176.9539414625615,6.1889414105098695 L 175.95526274107397,5.896329941926524 L 175.95526274107397,4.976623735856265 L 173.87394551187754,4.628222366562113 L 173.61764743551612,4.080039945896715 L 173.32599793747067,4.391300714109093 L 170.96628798171878,3.1601232984103262 L 168.6551863066852,3.1601232984103262 L 166.05243504606187,4.391300714109093 L 165.6193796955049,4.911589934723452 L 165.30563546344638,5.645511511480436 L 165.36308157444,6.2864762200042605 L 166.05243504606187,6.5372743990737945 L 165.45587919279933,7.308197228005156 L 163.52038675546646,8.139409899478778 L 162.7338167708367,9.304819276556373 L 161.87654385901988,9.861927022924647 L 160.9308923110366,10.330795921152458 L 159.33123875409365,10.75786053109914 L 158.26185710541904,11.584072971250862 L 157.21898904442787,11.47267850395292 L 154.95207666419446,10.47470067604445 L 152.07977055571973,9.912993310717866 L 151.20924091525376,9.300176542950794 L 150.31661649793386,9.634446073556319 L 147.09742418304086,9.634446073556319 L 145.2237968388945,10.247237163828686 L 143.47389959543943,10.247237163828686 L 140.53089055977762,12.057482119649649 L 139.49244143627584,13.431138662388548 L 138.9135612938553,13.78379628714174 L 137.2829751688987,14.103958919644356 L 136.73060861229897,14.846315929666162 L 135.83356534317136,15.458708835532889 L 135.8158895894885,16.289076262386516 L 135.051414296031,17.212121736025438 L 134.7465079408139,17.193569119554013 L 134.37089865840971,16.68335487600416 L 134.0483165923506,17.295608093729243 L 133.35012528672814,17.629544793162495 L 132.91265095584095,19.159911289112642 L 131.87420183233917,20.110447626560926 L 131.06553719751537,20.1799946797546 L 130.5750356912613,20.6946242924314 L 130.86226629465818,21.770140984328464 L 130.70760366879404,21.91847688285634 L 129.0637608151883,21.61253105988726 L 127.33153923973441,23.239474158966914 L 126.4610095564276,22.836245126789436 L 125.91748083382845,23.633414172334597 L 124.77739625796676,24.166361458599567 L 121.83880615979433,24.764147768728435 L 120.46451819874346,24.703907740302384 L 120.01378709450364,24.801218344131485 L 119.28466322086751,25.315555108245462 L 115.63462500460446,25.899357482092455 L 113.7123893816024,25.899357482092455 L 113.29700974188745,25.760360708925873 L 112.77115677110851,25.148746750783175 L 111.65316684544086,24.286849074764177 L 110.79589393362403,24.059774787165225 L 109.73976909928024,24.370262536220253 L 108.75876608677208,25.208983487682417 L 107.67170868441463,25.403591458685696 L 106.86304405145347,25.806693200254813 L 103.00089705362916,26.844472707249224 L 100.11091523431242,26.06615047180094 L 99.63808943890035,26.339498278917745 L 95.79803709127009,26.47848517820239 L 63.97730438224971,19.892529644072056 L 63.17305864393711,19.87398318387568 L 59.93398117274046,19.229466560995206 L 59.69093986786902,19.809070125687867 L 59.6555884052068,20.38399591529742 L 59.9604947604239,21.02842059568502 L 58.983910685405135,21.844309250358492 L 58.17966499179602,22.836245126789436 L 57.30471636913717,23.4804749940522 L 56.049739526584744,23.971723897615448 L 54.66219470836222,24.08758017537184 L 52.46598529815674,23.712199901463464 L 51.72802354954183,23.920746642863378 L 51.206589518114924,24.48147909459658 L 51.27287354879081,25.820592923089862 L 51.149143405258656,26.538712086854503 L 50.70283124037087,27.02051144046709 L 48.81152814254165,27.761685710866004 L 47.79075472988188,28.6000579923857 L 46.739048790186644,29.813461288111284 L 45.93038415722549,31.147071197396144 L 45.34266613796353,32.860071467934176 L 43.557417429983616,34.79949771356769 L 42.93876688554883,35.15585808083415 L 40.90163899771869,35.715821884339675 L 38.3209824282676,36.84488950413652 L 37.16764103807509,37.60831086104736 L 35.46635207347572,39.15807094052434 L 34.13625336624682,39.87502599786967 L 33.57504893280566,40.3560449720826 L 33.17734504491091,41.01740050828084 L 32.704519249498844,43.10286957304925 L 32.10354445874691,44.29565243027173 L 31.23743367008865,45.46515366714448 L 29.319616986438632,47.55875303875655 L 28.72306109033525,48.002362473867834 L 25.37792918458581,49.24064792273566 L 25.196752972900867,49.62410971731879 L 25.112793274223804,50.765151446918026 L 24.569264594465494,51.33330475096591 L 23.21707123890519,51.75823990209028 L 22.602839631959796,52.13696831604466 L 22.227230351418257,52.705029105069116 L 21.7720803078264,53.961092637619004 L 18.674408646300435,58.91425989754498 L 17.945284774526954,59.541854683775455 L 17.021727915853262,59.791033846791834 L 15.545804461464286,62.09790232870728 L 15.126005880534649,62.522298173746094 L 13.985921263694763,62.72064984939061 L 13.292148895561695,63.29261494940147 L 11.93553664535284,62.72064984939061 L 11.025236560031772,62.88670817529783 L 7.344265816733241,65.91209545894526 L 6.765385631471872,67.9222806552425 L 6.301397712901235,68.19887488614768 L 5.483895245939493,68.309510034509 L 5.307137928903103,68.63218787731603 L 5.448543781414628,69.71998399333097 L 4.277526639401913,72.15320055512711 L 4.538243653252721,73.73350274795666 L 5.2894622180610895,75.08781808125786 L 5.373421873897314,75.64514494896866 L 4.670811673626304,75.97676050127484 L 3.247915390878916,76.30375793017447 L 3.084414890035987,77.98921158001758 L 2.2359798550605774,78.900878444314 L 1.8161812331527472,80.68249786063097 L 1.3610312324017286,81.30851048440672 L 2.792765349149704,81.30851048440672 L 1.3035850785672665,83.72008207789622 L 0.1679194401949644,85.1556650083512 L 0.07070297002792358,86.11719054356217 L 0.0,224.97676540492103 L 86.39896775968373,224.97676540492103 L 85.89520943909883,226.57303733215667 L 85.16608556546271,227.96504988032393 L 84.21601512283087,229.22541669663042 L 81.8872376922518,231.632405792363 L 81.01670800894499,232.86062869988382 L 80.62784195505083,234.26543936412781 L 80.91065361909568,236.0008140404243 L 81.74141294322908,237.97600192646496 L 83.32339074835181,244.26165978144854 L 83.84040584042668,245.5247067862656 L 87.22088920883834,250.4985638530925 L 87.56998486071825,251.2451333408244 L 87.68929602205753,251.99165392271243 L 87.26949744299054,253.9640435227193 L 87.09274012595415,256.6370850971434 L 86.65526583790779,257.7404948223848 L 85.57262737303972,258.8799712040927 L 84.64465157873929,260.23634435259737 L 84.41928602568805,262.19376336201094 L 84.96281470544636,273.95398855465464 L 85.9526555519551,276.5231457678601 L 85.75380358658731,277.5976030163001 L 85.57262737303972,280.8610153896734 L 84.43254279717803,283.5911310305819 L 84.43254279717803,284.6965398758184 L 85.41796474903822,287.29949354636483 L 86.78783381357789,289.64934403123334 L 86.68177942372859,291.40805440815166 L 86.79667169041932,292.4406158979982 L 87.26065960898995,293.0898678936064 L 88.59959615021944,294.14032145938836 L 89.01055685430765,294.73088061227463 L 88.98404322378337,295.25379497976974 L 87.09715910814703,299.4633558173664 L 86.84969886392355,300.57635352690704 L 87.0264561381191,306.7839015547652 L 86.19127791747451,306.91901016258635 L 85.94823661260307,307.52247795881703 L 86.13825074397027,309.20212918007746 L 86.10289928130805,311.61539643793367 L 86.53153573721647,313.2314909333363 L 86.3724541310221,313.8706700676121 L 85.54169484786689,315.1534337741323 L 85.27213995717466,315.89152774820104 L 84.98049041628838,318.0290624368936 L 86.4343192242086,317.97956559760496 L 88.4405145868659,317.59258394222707 L 90.2832093629986,316.9175883908756 L 91.25537454150617,315.9860367293004 L 90.99023858830333,314.42880048719235 L 91.47632115520537,312.57427373249084 L 91.40561822801828,311.1246755833272 L 91.68401095457375,310.58441071328707 L 93.4073946531862,310.9896115041338 L 94.12326171249151,310.9671007001307 L 96.54925565421581,310.3773031672463 L 98.93547915294766,310.2782504875213 L 101.13610754348338,309.05803908524103 L 102.21432706899941,308.1034011589363 L 102.69599069841206,307.21624416927807 L 102.54574701189995,306.7118430135306 L 101.8696503546089,305.9101642007008 L 101.83871778845787,305.29310717387125 L 102.08175909332931,304.7886294918135 L 103.10253250598907,303.7615947097074 L 103.32789805904031,302.99576881271787 L 103.38092523254454,302.0857268285472 L 103.14230290800333,300.3059987749439 L 101.44101390056312,297.43086549895816 L 100.90632305294275,296.86297082016245 L 99.12549328431487,296.31758726900443 L 98.57754562422633,295.8533162297681 L 98.9398980922997,295.06897433428094 L 99.62925160489976,294.7444045555312 L 102.2010702546686,294.5911325060297 L 103.15555967949331,294.01409142673947 L 104.60496954992414,292.67507191491313 L 105.46224245987833,292.26026203180663 L 106.45208330638707,292.17459304840304 L 107.36238343454897,292.35043927282095 L 109.14763209782541,293.0222390673589 L 110.51750120706856,293.0853593107313 L 111.10963812284172,294.3522046781145 L 111.73712654411793,295.0509428787045 L 113.53121312707663,295.6504739327356 L 115.19273173436522,297.579595558811 L 116.83657463081181,298.26012545078993 L 120.06239533051848,298.2691388987005 L 121.71949499845505,298.62966925650835 L 124.89670746214688,300.2113733009901 L 126.68637510761619,300.7655982912984 L 128.32579906657338,300.6214120488148 L 134.44160162843764,301.17561895330437 L 136.99574456736445,301.720790509833 L 141.04790565371513,303.7570900248829 L 142.3956800699234,303.9823241662234 L 142.9171141013503,303.51833742507733 L 143.01874951086938,300.10773499612696 L 141.29978479258716,299.0758111428004 L 142.23217956908047,297.953666260466 L 141.8698271010071,297.15142848249525 L 141.01255418919027,296.2634983097669 L 141.05674352869391,295.19519361434504 L 142.66965385712683,291.8499472248368 L 142.6122077461332,291.4351095173042 L 141.85657032951713,290.32580091874115 L 141.97146255336702,289.14423189358786 L 143.1248039007187,285.5807945150882 L 143.87602246552706,284.4664426569361 L 144.17650988139212,284.29499482526444 L 145.6480143573135,284.1325683409814 L 146.5008683297783,283.11735350242816 L 148.94895692169666,281.93959758337587 L 149.7001754436642,281.2762132678181 L 149.77087836898863,280.58120005507953 L 149.39968802593648,279.4889555198606 L 149.66924291849136,278.8931438950822 L 150.31661649793386,278.5997409748379 L 151.1562136989087,278.63133855559863 L 152.11512201838195,279.39416925190017 L 153.11380078457296,279.6153359899763 L 153.40545032545924,280.4683694867417 L 153.74128920584917,280.748187441146 L 155.6988762896508,280.6804901040159 L 157.16596187092364,279.7372016077861 L 158.5181551836431,278.50494773336686 L 160.15316020324826,277.5524597230833 L 160.939730187878,277.4079999369569 L 163.40107559412718,277.38994236290455 L 165.03608061373234,277.92714410461485 L 165.50006848946214,277.84588826284744 L 168.21329303458333,275.5840452783741 L 169.12801205925643,275.23186351079494 L 169.7378247268498,274.7803332163021 L 170.32554274611175,273.4211238254793 L 171.07676126807928,273.07339411089197 L 179.00874506123364,273.10049028880894 L 181.69987495802343,271.75915479753166 L 183.2376634646207,271.858518183697 L 184.12144996412098,271.433959714137 L 184.62520824186504,271.40685972804204 L 186.38394336216152,272.3779041755479 L 187.97475908324122,272.6443629297428 L 189.6097640618682,272.6895248531364 L 190.62611853703856,272.3733878680505 L 192.79581440240145,270.54866115306504 L 194.3247650321573,270.04726367560215 L 197.78920809924603,269.80785015784204 L 199.3976994883269,269.46904914965853 L 201.68670655973256,268.0730863248464 L 202.55723624303937,268.26735642785206 L 203.70173975639045,269.6587788951583 L 204.35132278315723,270.2053642645478 L 207.44457555003464,270.00209167134017 L 209.26075682416558,270.3950821782928 L 210.90901861526072,271.348142827861 L 212.40261778235435,272.8069449882023 L 213.24221494048834,274.50037588272244 L 213.41455332003534,278.076111782575 L 213.8299329597503,279.80039070453495 L 215.55773559771478,282.0343637901824 L 215.63285741955042,283.20308602717705 L 215.10258551314473,285.0484448254574 L 215.07828141748905,285.8785393079743 L 215.6549521125853,286.50107297534123 L 217.3915925398469,286.43340781051666 L 219.0089218504727,286.96569695160724 L 220.8383598551154,287.123574889265 L 222.34079689718783,287.63328101322986 L 223.06992077082396,286.5822706511244 L 223.51623293571174,284.5882594056893 L 223.70182812958956,282.4540337861981 L 223.61786838807166,280.98286844580434 L 224.65189857408404,277.1777635780163 L 232.62807170674205,272.24693068885244 L 234.62984813190997,268.76431188429706 L 234.81102434545755,267.0158392006997 L 236.89234157279134,260.9822820019908 L 237.55960035324097,260.0871511010919 L 240.09164868667722,258.020852626767 L 241.92550562880933,255.9948882041499 L 243.12303631566465,255.59688898152672 L 245.0275962278247,255.43859003437683 L 246.99402114748955,255.52904683630913 L 248.34400505572557,255.86825360381044 L 249.6254954840988,257.1254925739486 L 250.18669991753995,257.46917434525676 L 251.26712889038026,257.36064440291375 L 252.13765857368708,257.03052612184547 L 254.56807141192257,255.56975218025036 L 255.1911408957094,254.77823372138664 L 255.62861522845924,252.74717357126065 L 256.58310465328395,252.4531150192488 L 257.9949535690248,252.62955105793662 L 261.1434429548681,252.32191716111265 L 261.5367279909551,252.082137983758 L 261.9697833415121,250.89221565960906 L 263.00823246501386,250.05964869935997 L 263.6357208862901,250.32661974872462 L 264.2676282469183,250.9555606979411 L 265.3370098955929,251.23155976901762 L 266.15893130004406,250.86506770318374 L 267.5508950576186,249.71574454545043 L 269.53057683445513,249.84697234886698 L 271.1832575649023,249.53926337184384 L 271.9212192706764,249.1274633272551 L 275.46962203644216,246.02717005391605 L 276.05513060837984,245.08559894841164 L 277.41616179794073,241.9389130678028 L 278.85894328169525,240.40826360089704 L 279.29862706176937,239.5839809793979 L 279.26990394108,238.442566213198 L 278.77940247766674,237.71779772406444 L 278.08783951587975,237.22402224782854 L 277.66141255013645,236.59884377010167 L 277.95748103037477,235.47524625435472 L 279.7825001385063,233.3681938101072 L 280.4585968386382,232.33037947840057 L 280.60442158579826,230.05953663564287 L 281.05515269190073,229.65155109623447 L 281.70031686499715,229.624351530103 L 282.36315670609474,229.9235431838315 L 283.39718693494797,231.71398943383247 L 283.95397238619626,232.0856404742226 L 285.9513298738748,231.65053556207567 L 287.6658756546676,229.8782116298098 L 290.56027641147375,226.06969275139272 L 291.3159139137715,225.41213547904044 L 291.6252391654998,224.93594855861738 L 292.00305789522827,223.35758007317781 L 292.91998636722565,222.7679008487612 L 292.69020191952586,222.0647798529826 L 292.70345869101584,220.9669125918299 L 293.4900286756456,220.5495123125147 L 293.8943609930575,219.02495693298988 L 294.3031122479588,218.7799189868383 L 295.5271565634757,218.57571644871496 L 296.022076966241,217.91770417639054 L 297.33449991978705,211.44661193923093 L 298.0282723288983,209.63009674311616 L 299.8930618390441,207.65428323973902 L 300.59125314466655,207.4998363184277 L 302.1467174049467,207.96317035937682 L 305.37253810465336,208.16303368168883 L 306.32702748663723,207.71787842176855 L 307.3743145298213,205.9870454459451 L 308.02389755658805,205.85529063269496 L 308.4790476411581,206.11425542156212 L 309.3009690903127,207.10916635626927 L 310.84759542904794,207.8450675504282 L 313.3310354836285,209.5120124737732 L 319.3717161808163,211.85528511018492 L 320.24666480347514,212.40469877514988 L 322.7256859205663,214.76549329375848 L 323.71110787056386,215.20127522549592 L 324.7097865920514,215.14680346497335 L 327.04740189760923,213.56246126862243 L 328.2626083381474,213.62148108053952 L 328.6514743492007,213.13569285557605 L 328.76194767840207,212.6952863058541 L 328.32226389832795,211.4511528443545 L 327.24183492548764,211.0379230726976 L 326.94134750775993,210.71096068806946 L 326.87948245741427,209.04874620190822 L 325.8763847965747,208.5990860168822 L 326.0398852992803,207.4771233573556 L 326.5480625163764,206.5413062814623 L 327.57767380587757,205.78259760816582 L 330.20251967199147,204.94204816687852 L 332.9510956797749,204.91024232236668 L 333.5962598118931,205.02837798232213 L 334.2546807564795,206.4095584352035 L 334.32538364082575,262.09883841429837 L 332.47826992720366,261.9451487681363 L 331.57238873653114,261.62872245698236 L 330.1340262349695,260.57089203526266 L 327.89583693258464,259.53105017123744 L 327.16671306081116,259.39089042763226 L 325.9404592961073,260.40361942187883 L 325.39030218683183,260.6115796130616 L 324.809212597087,260.6115796130616 L 322.95988934859633,259.3592412224971 L 321.0818430669606,258.71267421287484 L 320.4278410580009,258.22433385881595 L 319.64348052069545,255.9632296410855 L 319.2435671426356,254.18116654572077 L 320.6929769683629,252.19071788457222 L 322.5312528926879,251.6659054895863 L 322.7345237955451,250.87864171131514 L 322.584280109033,250.05964869935997 L 322.15564361028373,249.41708247293718 L 321.51489841751754,249.01432886486873 L 320.6929769683629,248.93287131586112 L 319.81360941007733,249.53021301398985 L 318.6470112465322,249.53021301398985 L 317.5069266706705,249.95104850362986 L 315.73051584139466,250.93293749471195 L 313.1852106936276,251.12749531283043 L 312.7852973137051,251.29490287858061 L 311.48392168432474,252.61145519604906 L 311.05307578109205,252.81955611915328 L 307.5643285755068,252.75622146413662 L 306.51925110816956,252.48930725920945 L 304.8997123502195,251.62518627103418 L 304.43572443164885,252.47573516634293 L 303.75962777622044,252.37168204924092 L 303.0260849632323,252.00522659067065 L 301.6517969593406,252.26310386811383 L 301.4485260564834,252.38073019543663 L 301.26734984479845,253.39407595526427 L 297.7852310668677,259.8249279712327 L 296.676078973338,261.21283478452824 L 294.1440306827426,262.63673625909723 L 293.75516462884843,263.1520100706257 L 293.56515054032207,263.9700734198559 L 293.0967436823994,264.80615631490946 L 292.517863497138,265.524687879486 L 291.97875375673175,266.0127219487913 L 289.88417975604534,267.2959737784695 L 289.6411384921521,267.9556190974545 L 289.508570516482,269.17541375313886 L 289.11970446258783,269.5232579908334 L 287.6261052954942,269.29738625558093 L 286.72685253433883,269.5322927371599 L 284.068864652887,271.1177892766427 L 283.31322719343007,272.7572673500981 L 282.73434705100954,273.1862944518216 L 281.73124934732914,272.60823327628896 L 281.09050415456295,273.85915840556845 L 280.50720502994955,274.42812779010274 L 280.1227579563856,274.6719634383917 L 279.676445748657,274.703571399441 L 279.10861293040216,274.3965190546587 L 278.651253439486,275.0693145887926 L 278.2977388482541,277.195821471978 L 277.7807237561792,277.6517748045735 L 277.0913702417165,277.86394514958374 L 276.7422745898366,278.4146677223034 L 276.3224760107696,281.43416521069594 L 276.18990803323686,281.87641969905235 L 275.2840268854052,282.8646645543631 L 275.44310845062137,283.0451571547892 L 275.46962203644216,283.4828406490851 L 274.73166028782725,286.0815429217182 L 273.531920151785,287.57013273751363 L 272.6017348654568,289.87934350501746 L 272.6591809783131,292.9861702057533 L 274.8642283063382,296.23645376367494 L 276.18990803323686,297.2911477747839 L 275.8651165198535,298.91357956966385 L 276.04408328421414,299.8689129878767 L 276.8527479171753,300.9773688870482 L 277.64815573580563,302.6353640309535 L 277.64815573580563,304.5724186140578 L 278.2314548175782,305.78405281482264 L 277.7807237561792,309.0715476172045 L 278.3861174862832,309.9135500709526 L 279.10861293040216,311.43981953244656 L 279.10861293040216,313.2494964362122 L 280.11392008140683,314.42429952602834 L 280.79001673683524,316.2245563061442 L 280.88723325170577,318.62750899768434 L 281.0993420314044,319.6533534480259 L 282.0449935365468,321.5833419044502 L 283.0878616422415,322.7798817132134 L 283.39276795461774,323.7289390224032 L 284.0423510670662,324.79486015066504 L 284.47982539981604,325.1411534671206 L 285.26639534160495,325.16363976267166 L 285.8651606850326,325.640339552192 L 287.08257657289505,327.1242948952131 L 287.3079421259463,328.0010993424803 L 286.07947895489633,329.0486923120916 L 285.84969442151487,329.4892860993277 L 286.14134396240115,331.4313219131436 L 284.5416904054582,333.3820644202642 L 284.53285257332027,333.9798157881014 L 284.7051909081638,334.3932823948562 L 284.35167631693184,335.0539036670234 L 284.78473166935146,335.85379636241123 L 285.0189351402223,336.90526847494766 L 284.661001611501,338.2711614733562 L 283.9407156147063,339.73574915132485 L 283.80814763717353,340.822856415296 L 284.2986491434276,343.10011038789526 L 284.068864652887,343.9489306753967 L 283.51207915879786,344.27676778752357 L 283.2204296179116,345.16593062737957 L 281.7621819153428,346.41425424301997 L 282.16430474072695,347.21797123434953 L 283.2204296179116,348.452641020529 L 283.8876883983612,349.79045000323094 L 284.26771657541394,351.491705900291 L 284.3848182912916,354.95193345379084 L 284.068864652887,358.07931880815886 L 284.2434124369174,359.01695107715204 L 285.55804488249123,361.82050662650727 L 285.9756340123713,363.6952176881023 L 286.3865947164595,364.46655877283774 L 287.1753741912544,364.78494911268353 L 287.25933388993144,364.98225791053846 L 286.14134396240115,366.1301828448195 L 286.0397085528821,366.76239934097975 L 284.97032686136663,367.4483903115615 L 284.3848182912916,368.2957460284233 L 284.12410127557814,369.1609841834288 L 283.98048601672053,371.6488178141881 L 283.32648396492004,373.55362961115316 L 282.5178193319589,374.4723328461405 L 282.34548095427454,374.88012910215184 L 282.56200867146254,375.11763156973757 L 283.52312648296356,375.4313082827721 L 283.80814763717353,375.76738306484185 L 282.4625827111304,375.7360164115671 L 281.9411486797035,375.9466197937727 L 281.4572755601257,378.2989011153113 L 281.1501597147435,378.7513925121166 L 279.61458069831133,380.0012724606786 L 279.40247196145356,380.6776871429756 L 279.5482967104763,382.088652391918 L 279.4554991349578,382.91725265746936 L 278.57613157480955,384.00556092360057 L 277.0825324077159,384.7937516195234 L 274.9835394695401,385.2326126443222 L 273.1518919747323,385.9401373413857 L 272.4647479932755,387.5252309695352 L 273.3131829854101,389.1235902730841 L 275.14262103289366,390.33679884532467 L 279.0379100460559,392.18552599987015 L 283.00832083821297,395.13049729098566 L 290.12059263139963,402.15947315259837 L 295.58018373697996,409.44017636892386 L 297.1776278037578,413.155280161649 L 297.3919460326433,417.00807576440275 L 295.56692696549,420.8510304077063 L 295.412264296785,421.6641922693234 L 296.528044776991,422.1064998789225 L 375.0635221786797,434.15155400009826 L 376.18151206336915,430.0481764143333 L 378.3202754035592,425.76960674044676 L 381.0401283353567,421.8339682559017 L 383.93231964483857,418.75092202960514 L 385.335330683738,417.6516097357962 L 387.1006941907108,416.59691585158 L 388.9897878393531,415.9041773965582 L 390.78608391433954,415.89076924859546 L 393.47279482893646,417.44157019164413 L 394.50240611843765,417.44157019164413 L 395.0017454586923,417.09745702543296 L 395.8104101344943,416.00697270268574 L 396.26776962541044,415.6628293527756 L 396.81792673282325,415.5734402583912 L 400.5209921244532,416.9365704220254 L 400.7684523258358,417.1644925866276 L 401.30756210908294,416.66842263238505 L 401.59479271247983,415.57790972921066 L 402.1648350208998,415.2024704485666 L 403.9412458948791,415.16224428708665 L 404.6129236128181,414.8136134990491 L 405.5320615749806,413.74979641404934 L 406.21257716976106,413.3162040079478 L 407.85642006620765,412.8468383043073 L 408.7092739958316,412.13158827857114 L 409.0053424742073,411.03182965982705 L 409.0009235367179,409.41782053723 L 409.3212961535901,407.56665205187164 L 410.30892755277455,406.2429800077807 L 414.4229536894709,403.06750710704364 L 415.147658623755,402.78570903581567 L 416.0093504730612,402.78123600455 L 418.3425467982888,403.8860348206945 L 419.33680658228695,403.9710161781404 L 425.70890722051263,402.22209785459563 L 424.90466152504086,400.468511949759 L 424.9002425875515,398.32994573912583 L 425.7707722708583,396.6296214736067 L 427.58695350401103,396.1910867122933 L 429.7743251211941,397.31424800585955 L 430.8658014200628,397.1576367574744 L 432.5405768416822,396.3119087424129 L 434.15348721295595,396.5267011485994 L 435.0372737105936,396.0478889832739 L 436.61041363701224,394.44577440363355 L 437.452220287174,393.814728459809 L 438.3139121364802,393.5103850681335 L 439.2242122218013,393.39401685562916 L 444.7942765709013,393.5059093355667 L 446.52207920886576,393.0762376843486 L 448.073124486953,392.02886284608394 L 448.54153134301305,391.42905200482346 L 449.37229062616825,389.4593587082345 L 449.986522231251,388.51023410167545 L 450.5676118656993,388.1207177161705 L 452.1738938074559,387.9908767649904 L 455.85044565424323,387.18494232185185 L 458.912765853107,386.92524319840595 L 459.45187559351325,386.6341958914418 L 460.04401255212724,385.9938720257487 L 460.33566213585436,385.0131837250665 L 460.5831222925335,384.69075176422484 L 461.95299140177667,384.59222946851514 L 463.93709203228354,383.27107343124226 L 467.1319802496582,382.0572990537621 L 467.79040119610727,381.63626210112125 z" /></g></g></svg>