<svg xmlns="http://www.w3.org/2000/svg" xmlns:xlink="http://www.w3.org/1999/xlink" width="500.0" height="458.8029484888539" viewBox="0.0 0.0 500.0 458.8029484888539" preserveAspectRatio="xMinYMin meet"><g transform="matrix(1,0,0,-1,0,458.8029484888539)"><g><path fill-rule="evenodd" fill="#D2EBD9" stroke="#A6A6A6" stroke-width="0.25" opacity="1" d="M 2.582699215039611,313.37520069023594 L 3.025258932262659,312.91733406158164 L 4.220830662176013,312.3553829099983 L 6.169414531439543,310.82202395796776 L 7.424434594810009,310.21140096569434 L 10.040160631760955,310.21140096569434 L 12.84083698503673,309.29540797462687 L 17.65284819714725,309.29540797462687 L 18.987132789567113,308.79574576951563 L 20.288390366360545,309.71177714318037 L 24.581880116835237,310.55141077702865 L 27.970434363931417,312.04317642142996 L 29.529301406815648,312.2096875756979 L 31.127800652757287,310.9746748334728 L 33.51894417591393,310.3363036243245 L 34.932493107393384,309.6354438508861 L 36.21393468044698,308.80268567381427 L 37.38969033956528,307.06064529763535 L 40.28284191340208,305.81815826846287 L 41.174566661939025,304.66579179419205 L 40.14412911422551,304.2909015943296 L 40.0582593344152,303.3327950066887 L 40.52724056132138,302.23573757335544 L 41.174566661939025,301.4580153003335 L 45.065128959715366,299.617665625643 L 47.77993553131819,299.5134864146821 L 48.51973685249686,299.617665625643 L 52.04700383543968,301.4580153003335 L 52.48295811004937,300.99274632614106 L 52.8660694938153,301.8121630297974 L 53.883296286687255,302.0413117813878 L 55.078868079930544,302.07603088673204 L 55.977198269218206,302.3329493426718 L 55.977198269218206,303.70771547732875 L 57.47001160308719,304.14510769583285 L 58.54668672941625,304.7490991083905 L 60.0262893717736,305.0337281548418 L 63.43465968593955,307.42156699020416 L 64.02253751643002,307.18558092741296 L 65.17847704514861,305.5821404494345 L 65.7597494982183,305.36694367881864 L 68.69913865067065,305.0198439527303 L 69.30683261342347,304.7352145742625 L 70.23158424906433,303.9576558675617 L 70.69396009854972,303.84657188365236 L 73.07189280167222,304.20759100466967 L 76.00467657670379,303.64522954216227 L 80.91907097958028,300.937190530356 L 83.58103466033936,300.0829886170104 L 85.27200912684202,299.78435057913885 L 86.33547343313694,299.35374307166785 L 89.05028006993234,296.77671579876915 L 90.08071761764586,296.24179070303217 L 93.7136704493314,295.06070155184716 L 94.62851404957473,294.89395009027794 L 95.39143415912986,295.1232327767648 L 97.22112136147916,296.8253441462293 L 98.05339783988893,297.33245645835996 L 100.6360969915986,297.7839765152894 L 106.66019340790808,300.58301675179973 L 108.1794282514602,300.0829886170104 L 110.52103147469461,301.63856249302626 L 111.19147642888129,301.9163220524788 L 114.20352460443974,302.05519946245477 L 115.16130312718451,302.3329493426718 L 116.89851510897279,303.29113639425486 L 121.17879410274327,307.46321115177125 L 123.32553897798061,310.12813180172816 L 123.0877457074821,313.37520069023594 L 123.19343161955476,314.06196779944 L 123.8407577201724,315.0400228104554 L 140.77692344784737,332.7769039850682 L 147.3096332922578,338.78728201333433 L 150.69818747602403,342.2689028349705 L 152.43539945594966,345.63883525365964 L 153.7366571612656,350.9582678573206 L 154.7803054638207,353.2886887905188 L 163.47957618907094,366.4815506800078 L 166.00943244807422,369.2579469708726 L 169.3121168501675,371.2604386387393 L 184.99326251633465,378.08033091248944 L 191.29478434100747,383.35149188525975 L 195.61469566449523,386.1586649212986 L 218.8259617704898,395.3483532196842 L 221.85782601498067,395.9134451765567 L 224.54951379820704,396.0581599045545 L 226.3560822121799,397.7808284126222 L 226.87790633179247,398.91766343219206 L 229.4077625889331,400.84660834958777 L 230.27967126853764,401.8798530190252 L 230.70241491682827,404.2904360331595 L 232.49907523207366,407.38221264025196 L 232.4858644772321,408.8968453416601 L 231.42900548316538,411.6846851296723 L 231.19121221266687,412.8340650978498 L 231.41579472832382,414.2723679714836 L 232.9416349492967,417.8364745154977 L 231.85174913145602,419.7351005100645 L 232.19522825069726,422.3899647202343 L 233.02089935168624,425.15430561825633 L 233.37758928909898,427.4162330594845 L 232.63118259049952,428.5917323976755 L 232.49907523207366,429.1966270725243 L 232.69723630137742,429.93208666099235 L 233.77391142770648,431.7533764038235 L 235.16103891283274,433.51944495690987 L 237.30117834545672,435.62879902962595 L 238.50996089354157,436.19215300586075 L 239.88387762382627,436.4463415085338 L 242.77702913433313,436.5013005528599 L 244.32929086498916,436.7898317654617 L 245.14175120927393,437.5798257761635 L 246.50245718471706,440.1693045021966 L 247.1299672164023,440.89042276516557 L 248.15379938669503,441.79691620729864 L 249.4022140726447,442.56601410824805 L 250.6902610231191,442.88874735170975 L 251.27153347618878,443.2664041253738 L 253.53056963905692,445.65569495921955 L 267.63303212821484,452.20347247552127 L 268.59741596505046,452.41618758253753 L 274.1195043306798,452.91022283770144 L 275.255627727136,453.62379740551114 L 277.633560558781,455.66139473672956 L 279.1527954004705,456.08671307750046 L 283.0697790812701,455.3664079727605 L 284.6220407485962,455.58593359868973 L 288.2814150881022,456.82069889781997 L 291.04245930351317,457.2596995551139 L 293.66479071974754,458.4805954420008 L 295.13778798282146,458.8029484888539 L 297.97809660062194,458.53546459786594 L 303.4572499822825,457.03334160521626 L 306.2149915397167,456.71780614042655 L 308.7448477335274,457.12251340737566 L 311.28791474737227,457.8358663567342 L 313.85079789347947,458.21310514444485 L 316.3938649073243,457.6506725801155 L 318.03199635259807,456.52573746815324 L 318.77840305119753,456.25820867856964 L 319.7956298440695,456.4845794849098 L 321.26202173158526,457.6575315971859 L 321.82347811572254,457.8701612064615 L 323.43518811650574,457.64381349273026 L 326.50007924996316,456.3062270479277 L 328.32976645231247,456.3679647203535 L 330.85962264612317,457.3968843840994 L 331.2625502254814,433.13464065175503 L 360.33277843892574,433.3407871844247 L 363.1730870567262,432.74295345135033 L 365.74918089434505,430.9217996117659 L 366.7796185053885,429.82211397681385 L 367.7241862099618,429.09352192189544 L 368.7909532375634,428.942299684044 L 370.21441026590765,429.56779867131263 L 372.1431779395789,431.56095001567155 L 373.0811403300613,432.0488827638328 L 373.62608323805034,431.9114387468435 L 374.13139394670725,431.51971545023844 L 374.61358586512506,431.4922256246209 L 375.13541004806757,432.42684655450284 L 376.7372119501233,433.42324487585574 L 379.57421790994704,433.2033565402962 L 386.060690112412,431.6571635254659 L 387.2694725971669,431.2035794123076 L 388.3197262138128,430.44757140800357 L 389.23126715794206,429.29285775031894 L 390.43014160729945,427.0450010714121 L 391.232693919912,426.12375057162717 L 393.10861863568425,424.9892865996808 L 393.58750789798796,423.75845475960523 L 393.98713275790215,423.3183528338559 L 394.9845434166491,423.4215031010099 L 395.2850876785815,423.24958562944084 L 395.18270448595285,422.61691012838855 L 395.3016011547297,422.42435061372817 L 399.2053740788251,422.05985533073545 L 400.1631526015699,421.37897858256474 L 402.62695514783263,420.1478089322336 L 413.2946258112788,419.4324394268915 L 414.8667036741972,418.72391003509983 L 416.6237317249179,417.2654571607709 L 420.49447788856924,413.0130013283342 L 421.7296818830073,411.95311228651553 L 424.41146156936884,410.5420872536488 L 425.17107902280986,409.9019132228568 L 425.73253540694714,408.7247369228862 L 426.0462903585285,406.1772649558261 L 426.60444408655167,405.16502227587625 L 427.6216708794236,404.66920113097876 L 434.26006657257676,403.60174396820366 L 446.88953179493546,403.91854686429724 L 451.91952014528215,403.14718699268997 L 476.290028501302,393.2807316374965 L 477.01331634633243,392.6052363123745 L 477.3204660471529,391.64707473805174 L 477.3667036257684,390.1097303512506 L 478.0074244122952,387.4758226973936 L 480.09472095407546,386.00694166868925 L 481.53469139523804,386.7310591279529 L 482.52549667842686,386.8965659257956 L 484.5269234403968,386.77243601251394 L 488.4472098406404,385.89659640425816 L 490.45193925872445,385.7655600570142 L 491.4889822471887,386.05521744210273 L 493.4045391641557,387.2758441576734 L 494.4680035356432,387.72406755387783 L 495.25404250063,387.8206059788354 L 493.0082170907408,378.86700462689623 L 491.9117258321494,376.7207883144729 L 490.90770973078907,375.3956109331921 L 486.3235838189721,370.8944897777401 L 486.4094535987824,370.46638526860625 L 492.697764666751,359.2406834522262 L 494.33589617721736,355.38361868076026 L 495.2078048568219,351.2556457584724 L 495.31349076889455,348.0947752366774 L 495.55458676069975,346.63510659337044 L 496.21842627227306,345.30672692880034 L 498.2033396214247,344.0404814812355 L 498.6492020599544,343.44537030206993 L 498.7020449526608,342.3796340026893 L 498.3057228140533,341.327647685539 L 497.1035457700491,339.4656874365173 L 494.5935055799782,334.5429328661412 L 493.2129834741354,333.2132407766767 L 493.2195888515562,332.47215153463185 L 494.17736737430096,329.6528292824514 L 495.2936746366322,328.77295595314354 L 497.69142353720963,327.67129235109314 L 498.5699376575649,326.4933022400364 L 498.8341523744166,325.1072848048061 L 498.5831483490765,323.81814605975524 L 497.5262893550098,321.3295806609094 L 497.2818907070905,318.75729231443256 L 497.4701436776668,315.8168607633561 L 497.2092316187918,313.36132625024766 L 495.5777055490762,312.2651907787658 L 494.52084649167955,311.77259086444974 L 493.8206774368882,310.6485546613112 L 493.41114454343915,309.25377020565793 L 493.23279954120517,307.9421078916639 L 493.3318801410496,306.63030134979635 L 494.08819487318397,304.7490991083905 L 494.2070915400982,303.56191449565813 L 493.9527847934514,302.6870709778741 L 492.9487687572837,301.90243427595124 L 492.62510570697486,301.36774067441 L 492.7274888344109,300.7357989246957 L 493.510225078091,299.79824090283364 L 493.1072975602001,297.8951172856614 L 493.2460103612393,296.38073458662257 L 495.49513842724264,289.4454366695136 L 495.7032075300813,287.2208282854408 L 495.6602726094425,286.7202333207242 L 495.0889082532376,285.2809037012048 L 494.21699951030314,283.8761699949391 L 494.1047082860023,283.3197932317853 L 494.3887391332537,282.31129289465025 L 495.3597283475101,280.8853334886953 L 498.345355078578,278.45036611892283 L 499.5012946072966,277.1561478562653 L 500.0,275.86874503130093 L 499.69945567660034,275.12407399807125 L 497.8565577827394,273.718116461765 L 496.5123652201146,271.7480973652564 L 496.33071762509644,271.79682978475466 L 496.4231927189976,271.13544371770695 L 497.235653065145,270.1676634340547 L 497.4602356441319,269.4783317828551 L 497.0374920591712,268.11347310524434 L 495.8980659432709,267.2429433958605 L 492.10988690145314,265.22306169662625 L 489.798007780686,264.40804380504414 L 489.00536356680095,263.4884672486223 L 488.84683469869196,262.3528282037005 L 489.06481183692813,260.9662212394178 L 489.88387756049633,258.5479686493054 L 491.8060399200767,254.71395870530978 L 492.3014425281435,252.8731777467765 L 492.16933523491025,250.6415303312242 L 491.7234727963805,248.83497104421258 L 491.0365144312382,247.38393598189577 L 489.9301152024418,246.48392220260575 L 488.2457461133599,246.3374016052112 L 485.630020076409,246.53973908582702 L 483.69464702531695,246.2536747213453 L 477.5450485628098,243.35076026199386 L 477.44596809335053,242.74356649257243 L 477.888527745381,239.09972016746178 L 478.29806063883007,238.1082792649977 L 479.1006129514426,237.570630509872 L 476.97698686644435,236.02736663632095 L 476.88451170921326,235.1962909414433 L 477.3667036257684,233.68762728385627 L 477.5219297744334,231.1867115199566 L 478.02724048122764,230.6487323450856 L 478.75052839145064,230.3972007986158 L 479.6191344130784,230.35527833784 L 483.58896104991436,230.9561521508731 L 484.69866306334734,230.83039055671543 L 485.39222680591047,230.54392821295187 L 485.76212736964226,230.23649712651968 L 486.4160589110106,228.154128621798 L 488.05749314278364,226.49075106950477 L 488.463723314926,224.16999665321782 L 486.6076146028936,215.78469803370535 L 486.54156095534563,214.11247778870165 L 486.3169784415513,212.9018849437125 L 484.87700800038874,210.27031386038288 L 482.4924698546529,207.54709875909612 L 482.3405463639647,206.88194427033886 L 482.47265372239053,204.89324332540855 L 482.0697262696922,202.14068125840276 L 482.1423852946609,200.74662766698748 L 482.81943562440574,199.94093814492226 L 484.044731521979,199.88488804455847 L 485.2072764262557,200.03201903263107 L 486.10560661554337,199.71673575555906 L 486.54156095534563,198.2452941290103 L 486.5613770894706,196.9979175729677 L 486.10560661554337,192.0911255273968 L 486.37642670981586,189.91741357091814 L 485.52433409914374,187.98875779192895 L 485.73900864459574,186.4806618001312 L 486.46890193223953,185.74407376907766 L 487.6248414590955,185.47748674964532 L 489.09783872403204,185.40031557250768 L 490.5378091018647,185.80019645486027 L 492.4467607066035,187.77132426341996 L 493.63572712242603,188.1781318085268 L 494.77185051701963,187.53284382866696 L 494.8643257394433,186.15797222359106 L 494.33589617721736,183.52699332870543 L 494.8643257394433,182.33407283062115 L 495.9277900457382,181.24629564629868 L 497.3050094973296,180.36897637322545 L 498.72186108492315,179.7723587444052 L 499.36258187144995,179.02127567026764 L 498.72846646234393,176.12174578383565 L 498.62938592769206,173.3197654155083 L 497.394181933254,169.31567141832784 L 497.1629940401763,164.29088077042252 L 497.7310558017343,162.17484415881336 L 494.30947466753423,162.29436570499092 L 493.4375659879297,161.5279986341484 L 493.067665360868,159.44657754711807 L 492.5722626876086,158.46901338081807 L 490.51799296960235,157.9555804799311 L 489.9367205798626,157.34364862786606 L 489.46113397553563,154.03016574680805 L 489.14407623931766,152.97469961177558 L 488.2721675597131,151.36315233586356 L 488.1334548238665,150.70157301146537 L 488.64206825196743,149.31493764929473 L 488.6750950757414,148.77290399977937 L 487.8692401070148,145.71024415642023 L 487.37383737042546,144.83704758714885 L 480.3853571806103,136.14338972512633 L 476.290028501302,128.11967681720853 L 474.67171318642795,126.33500919351354 L 471.9370904173702,125.86939342832193 L 468.9250422399491,126.24329860229045 L 466.1507873348892,125.88350331876427 L 464.1361498180777,123.2587382295169 L 463.4624022077769,120.35802614782006 L 463.3369001634419,117.53417052701116 L 465.1335605420172,103.09221541369334 L 464.7372384034097,100.47579974401742 L 463.2444250062108,97.47670719213784 L 455.0735837779939,86.93753194250166 L 455.4269709959626,86.33557069441304 L 456.3550253510475,85.74773874692619 L 456.9296924266964,84.95446576364338 L 457.6827044393867,84.78447061032057 L 457.6760991252959,84.32405281951651 L 457.1146427411586,83.24730181926861 L 461.7714278046042,75.23891349742189 L 461.936561986804,74.62207492813468 L 459.4661540631205,76.22435869183391 L 397.1709204930812,6.584799436386675 L 387.9101933836937,0.0 L 386.42068270780146,2.2001954251900315 L 385.78326457738876,2.721596537157893 L 385.1491492334753,2.7501656133681536 L 383.6034928802401,2.2430513645522296 L 383.0882741380483,2.4501857701689005 L 381.18262518942356,3.578632857184857 L 379.88467026874423,5.163949164096266 L 379.1977119036019,5.592368351761252 L 378.2465387582779,5.449564048089087 L 376.1262153945863,4.421310929115862 L 375.0462375469506,4.178513037972152 L 373.9398382548243,4.3998878644779325 L 371.7534611783922,5.371020841412246 L 364.7914024349302,7.020294642075896 L 360.9503804370761,7.441492538899183 L 359.0843637548387,7.948333417996764 L 357.0003698691726,7.105963474139571 L 349.88308491557837,6.534823402296752 L 348.6280648522079,6.135005188640207 L 346.91066900268197,4.899747889023274 L 345.9528904799372,4.606975886970758 L 344.53934154845774,5.4352835565805435 L 343.9514637179673,5.592368351761252 L 342.1019604485482,5.578087933827192 L 337.9603941887617,6.06360731786117 L 336.7516117040068,6.0207684389315546 L 335.52301308885217,5.685189967043698 L 333.12526418827474,4.5712713254615664 L 331.90987632609904,4.178513037972152 L 329.31396635621786,3.721464886330068 L 326.9426389671862,3.635765909217298 L 324.75626182742417,4.171371749602258 L 321.84989962540567,6.399172625504434 L 320.8987264800817,6.991738149896264 L 319.7031546868384,7.355826615355909 L 318.12447150982916,7.477186339907348 L 315.2907682713121,7.084546302910894 L 314.16785562969744,7.170214564539492 L 312.63541003130376,7.948333417996764 L 310.81232820637524,9.290262559894472 L 309.8743658810854,9.68995016720146 L 307.9720195904374,9.918335597962141 L 307.7408316973597,10.446456355042756 L 306.5254438985139,11.766632193699479 L 305.87151235714555,12.0948641076684 L 303.8700855951756,12.6656757988967 L 302.1262682378292,13.750125345773995 L 301.19491122476757,14.021218857262284 L 298.88963748142123,14.228100776206702 L 297.3208624031395,15.062717772554606 L 295.13778798282146,15.533495750278234 L 291.4255706872791,18.02253279602155 L 290.1243130452931,18.400468259118497 L 285.8143098205328,18.179413473699242 L 285.0579950865358,17.88704285910353 L 283.8954501822591,18.707084380555898 L 282.59419254027307,18.514559124596417 L 280.22286508604884,17.423510514665395 L 278.06290951929986,17.637451278511435 L 276.840916281566,17.35932735307142 L 276.29597337171435,16.218222852330655 L 275.6123177278787,15.533495750278234 L 274.0204237960279,15.69754936080426 L 270.8234252408147,16.474983053747565 L 269.49574608914554,16.175428836606443 L 265.7835288569331,14.121093466877937 L 264.43603363633156,14.25663591409102 L 259.11210627667606,18.79978043027222 L 257.8636915907264,21.42342384206131 L 256.91912382282317,22.421363418456167 L 250.88181671500206,22.236039475537837 L 248.5237000156194,22.65657718060538 L 246.14576724730432,23.910954548511654 L 244.21369691751897,25.984599793795496 L 243.00161164812744,28.613434470258653 L 242.50620904006064,31.533533670473844 L 242.77042375691235,34.44564410485327 L 245.30688539147377,39.192882363218814 L 245.15496190078557,40.5162916155532 L 244.09810297191143,41.34866777341813 L 241.54182513989508,42.16674672998488 L 240.39909636601806,42.93496788665652 L 238.54959309473634,43.383069227449596 L 234.65903086215258,43.61778091080487 L 232.7302631251514,44.136971707455814 L 223.35724472627044,48.53122094972059 L 220.43106639385223,49.4624374974519 L 217.95735574699938,51.43121055839583 L 217.0623282790184,51.72258424386382 L 215.15998198837042,51.907353312242776 L 213.11892308853567,52.44742784416303 L 208.47865143604577,51.01190176093951 L 207.40527903102338,50.81290156906471 L 206.0313623007387,51.125614314805716 L 200.8329369854182,53.84011629875749 L 198.28656731545925,54.72110410081223 L 195.91854258067906,55.17577693331987 L 188.30255229584873,55.28944198042154 L 183.5136598739773,56.2484384002164 L 179.81465333141387,56.48284573946148 L 178.77100509405136,56.82379193743691 L 177.8759775608778,57.420419718138874 L 177.09984669461846,58.265581391751766 L 175.831615941599,60.84323696186766 L 175.39235894568264,61.11303563322872 L 174.72191392816603,61.11303563322872 L 174.47090990282595,61.78040123032406 L 174.80117833055556,62.66778636490926 L 174.54356899112463,63.06530932802707 L 173.86982138082385,63.34214638127014 L 174.0019287392497,63.995167520828545 L 174.7087032366544,65.3578568585217 L 174.53035823628306,66.06751751806587 L 172.6346173863858,69.991034028586 L 171.18143625371158,71.75718016456813 L 170.96345911547542,73.89174602087587 L 170.36237053014338,74.86314279260114 L 168.07030754350126,77.64209672482684 L 166.4387814104557,80.24312817538157 L 164.53643518313766,82.59552864730358 L 160.09762738458812,85.86814085114747 L 159.12663810700178,86.90920518431813 L 156.9270502757281,89.94680353952572 L 156.40522615611553,91.2422864199616 L 156.4184369109571,92.43851492647082 L 157.19456771202385,96.06881101056933 L 157.28374021314085,97.51207894925028 L 156.79164019599557,101.3527269824408 L 157.00631474144757,105.2414201325737 L 158.1820704024285,107.22055334039032 L 159.15305955335498,112.76010451000184 L 159.00774144008756,115.4934561336413 L 157.4191502276808,120.91564677935094 L 157.9244609363377,123.36458840360865 L 158.70719717815518,125.77767880959436 L 158.89545021392405,128.47234188066795 L 158.41986367292702,129.67131379200146 L 157.50171741470695,130.55987486848608 L 156.36559395492077,131.03233295073733 L 153.79610549658537,131.0675901384093 L 151.56349077820778,132.11114975670353 L 147.93714332394302,131.44836045522243 L 142.81137703172863,132.11114975670353 L 135.5784981958568,132.13230194384232 L 133.35909429565072,131.83616784168407 L 130.95473995432258,130.58103012340143 L 131.95215067826211,140.4206646331586 L 130.8028165269643,148.41387940756977 L 127.53646166808903,156.83719574753195 L 126.69757981225848,158.02591517288238 L 125.5449428781867,158.75033595599234 L 124.21396113373339,159.1441751900129 L 122.86976856924593,159.36218707589433 L 120.8088934738189,159.36921958392486 L 120.02285457402468,159.66458318615332 L 119.3292908333242,160.23418994480744 L 117.64492180757225,162.47716078301892 L 115.50478224642575,163.66525233583525 L 113.43730183690786,163.89020159840584 L 111.31367575190961,163.8620832329616 L 109.01170472986996,164.29088077042252 L 101.77882582880557,167.99469572957605 L 99.38768230564892,168.44440779136494 L 97.8750528395176,168.45846100896597 L 96.60682202130556,168.71141550736502 L 95.51693620532751,169.2875672080554 L 92.95405299402773,172.28024903777987 L 92.0359067376703,172.80001980159432 L 89.13614984974265,173.63581468444318 L 87.95378881134093,174.1695656804368 L 87.0818801317364,175.08249961258844 L 86.08446940779686,177.89104300923645 L 84.99458359181881,179.02829538891092 L 82.4118843767792,180.7128940145485 L 81.18989113718271,181.21120419632643 L 78.66664025746286,181.7937068119645 L 77.49088459648192,182.25687930500135 L 76.27549673430622,183.40770716033876 L 74.5118632428348,186.15797222359106 L 73.07189280167222,186.93661984521896 L 71.12991437315941,187.28734379587695 L 69.84186742268503,188.03785514598712 L 70.28442713990808,188.38152995007113 L 70.74680298939347,189.2231367500499 L 71.20257346145809,190.63969489000738 L 71.0440445933491,191.18663348257542 L 70.40992918424308,192.0630804183893 L 69.28701648116112,193.06564942048863 L 68.59345273859799,193.3881346094422 L 65.17187166772783,193.45823884708807 L 62.31835235841572,194.22234560642391 L 59.82812830246985,195.7854436011985 L 58.216418301686645,198.23127943184227 L 52.086636036634445,215.66576185869053 L 50.62024414911866,218.63878577714786 L 48.6848710346967,221.21243357937783 L 47.11279329843819,223.89734628004953 L 46.60417987033725,225.16965770395473 L 46.366386599838734,226.7982849017717 L 46.57115304656327,228.1820824057795 L 47.61480128578842,230.69065371062607 L 47.83277848735452,232.08794352365658 L 46.10217181965709,237.47287345305085 L 38.08325401879847,244.71857199072838 L 35.797796472907066,249.79757496202365 L 35.40807971172035,254.734874995891 L 34.67488370463252,257.11210784642026 L 33.07638445869088,258.5688778748736 L 30.605976533144712,259.8163951449096 L 28.769684018567204,261.4470235151239 L 25.737819708883762,265.822098005563 L 24.865911029279232,266.7275588926859 L 22.69274470768869,268.21096834307536 L 18.47851936146617,272.6948620923795 L 17.65284819714725,274.05918118637055 L 17.329185146838427,274.95703848963603 L 16.731399280950427,277.7963168229908 L 16.222785852849483,279.1391656319611 L 14.155305380001664,282.51995521551 L 12.107641104608774,287.7144496208057 L 10.746935065835714,290.20309772435576 L 8.824772769585252,291.7599728475325 L 6.651606449857354,293.0525787533261 L 4.9209997821599245,294.93563810922205 L 2.2788522336632013,299.47181439306587 L 0.4293489623814821,304.1242798981257 L 0.0,305.7279166779481 L 0.0,307.6228454904631 L 2.582699215039611,313.37520069023594 z" /></g></g></svg>