<svg xmlns="http://www.w3.org/2000/svg" xmlns:xlink="http://www.w3.org/1999/xlink" width="499.94999499949995" height="170.64790795062436" viewBox="0.05000500050005 0.0 499.94999499949995 170.64790795062436" preserveAspectRatio="xMinYMin meet"><g transform="matrix(1,0,0,-1,0,170.64790795062436)"><g><g><g><path fill-rule="evenodd" fill="#D2EBD9" stroke="#A6A6A6" stroke-width="0.25" opacity="1" d="M 271.8500022819564,83.54050499232986 L 272.7000022734547,83.74530296166755 L 272.6000022744549,83.83063544889157 L 272.5000022754551,83.79650245400197 L 272.6500022739548,83.76236945911235 L 272.15000227895575,83.71116996677793 L 271.6500022839568,83.50637199744024 L 271.8500022819564,83.54050499232986 z" /><path fill-rule="evenodd" fill="#D2EBD9" stroke="#A6A6A6" stroke-width="0.25" opacity="1" d="M 499.8500000015003,0.4949284258994006 L 499.7500000025005,0.27306395911691067 L 499.8500000015003,0.0 L 500.0,0.034132994889613834 L 500.0,0.20479796933768302 L 499.8500000015003,0.4949284258994006 z" /><path fill-rule="evenodd" fill="#D2EBD9" stroke="#A6A6A6" stroke-width="0.25" opacity="1" d="M 473.3000002670534,38.34841975848114 L 473.0500002695539,38.39961925081556 L 473.2500002675535,38.228954276367496 L 473.5500002645529,38.297220266146724 L 473.4000002660532,38.39961925081556 L 473.3000002670534,38.34841975848114 z" /><path fill-rule="evenodd" fill="#D2EBD9" stroke="#A6A6A6" stroke-width="0.25" opacity="1" d="M 479.0500002095419,48.57125172792048 L 479.0500002095419,48.485919240696454 L 479.45000020554113,48.26405477391396 L 479.50000020504103,48.67365071258933 L 479.0500002095419,48.57125172792048 z" /><path fill-rule="evenodd" fill="#D2EBD9" stroke="#A6A6A6" stroke-width="0.25" opacity="1" d="M 370.95000129075817,56.45597354742128 L 371.30000128725743,56.21704258319399 L 371.30000128725743,56.370641060197244 L 371.1500012887577,56.69490451164858 L 370.70000129325865,56.933835475875874 L 370.65000129375875,56.76317050142781 L 371.050001289758,56.71197100909338 L 371.1000012892578,56.62663852186935 L 371.30000128725743,56.33650806530763 L 371.30000128725743,56.302375070418016 L 371.2500012877575,56.302375070418016 L 371.2500012877575,56.268242075528406 L 371.1000012892578,56.42184055253167 L 371.050001289758,56.43890704997647 L 370.85000129175836,56.4901065423109 L 370.75000129275855,56.52423953720051 L 370.95000129075817,56.45597354742128 z" /><path fill-rule="evenodd" fill="#D2EBD9" stroke="#A6A6A6" stroke-width="0.25" opacity="1" d="M 296.15000203890776,57.92369232767468 L 296.05000203990795,57.92369232767468 L 296.4000020364073,57.59942887622334 L 296.550002034907,57.61649537366815 L 296.5000020354071,57.75302735322661 L 296.15000203890776,57.92369232767468 z" /><path fill-rule="evenodd" fill="#D2EBD9" stroke="#A6A6A6" stroke-width="0.25" opacity="1" d="M 290.9500020909182,58.57221923057734 L 291.0000020904181,58.58928572802215 L 290.8500020919184,58.691684712690986 L 290.9000020914183,58.64048522035657 L 290.9500020909182,58.57221923057734 z" /><path fill-rule="evenodd" fill="#D2EBD9" stroke="#A6A6A6" stroke-width="0.25" opacity="1" d="M 288.40000211642325,62.6852451147758 L 288.20000211842364,62.99244206878233 L 288.1500021189238,63.04364156111675 L 288.35000211692335,62.36098166332447 L 288.40000211642325,62.6852451147758 z" /><path fill-rule="evenodd" fill="#D2EBD9" stroke="#A6A6A6" stroke-width="0.25" opacity="1" d="M 284.9500021509302,65.51828369061376 L 284.80000215243047,65.51828369061376 L 284.9500021509302,65.05748825960397 L 284.75000215293056,64.83562379282148 L 284.85000215193037,65.21108673660723 L 284.70000215343066,65.10868775193839 L 284.65000215393076,64.78442430048706 L 284.9500021509302,64.9038897826007 L 285.0000021504301,65.36468521361049 L 284.9500021509302,65.51828369061376 z" /><path fill-rule="evenodd" fill="#D2EBD9" stroke="#A6A6A6" stroke-width="0.25" opacity="1" d="M 293.7000020634127,66.20094358840603 L 293.6000020644129,66.28627607563007 L 294.05000205991195,65.51828369061376 L 293.95000206091214,65.92787962928912 L 293.7000020634127,66.20094358840603 z" /><path fill-rule="evenodd" fill="#D2EBD9" stroke="#A6A6A6" stroke-width="0.25" opacity="1" d="M 291.10000208941784,66.18387709096122 L 290.9000020914183,66.50814054241256 L 290.6500020939188,66.50814054241256 L 291.10000208941784,66.1326775986268 L 291.15000208891774,65.92787962928912 L 290.9500020909182,65.96201262417874 L 291.15000208891774,65.84254714206509 L 291.20000208841765,65.99614561906834 L 291.10000208941784,66.18387709096122 z" /><path fill-rule="evenodd" fill="#D2EBD9" stroke="#A6A6A6" stroke-width="0.25" opacity="1" d="M 283.050002169934,67.03720196320157 L 282.90000217143427,67.39559840954252 L 282.70000217343465,67.48093089676655 L 283.0000021704341,66.67880551686062 L 283.1500021689338,66.64467252197102 L 283.050002169934,67.03720196320157 z" /><path fill-rule="evenodd" fill="#D2EBD9" stroke="#A6A6A6" stroke-width="0.25" opacity="1" d="M 281.1500021889378,70.22863698538046 L 281.1000021894379,70.63823292405583 L 281.1500021889378,70.04090551348759 L 281.3000021874375,69.8019745492603 L 281.3000021874375,69.66544256970184 L 281.2000021884377,69.563043585033 L 281.1000021894379,69.61424307736742 L 281.2000021884377,69.52891059014338 L 281.3000021874375,69.61424307736742 L 281.3000021874375,69.71664206203626 L 281.2500021879376,69.98970602115317 L 281.2000021884377,70.16037099560124 L 281.1500021889378,70.22863698538046 z" /><path fill-rule="evenodd" fill="#D2EBD9" stroke="#A6A6A6" stroke-width="0.25" opacity="1" d="M 280.90000219143826,70.77476490361428 L 280.550002194939,70.99662937039678 L 280.90000219143826,70.68943241639025 L 281.1000021894379,70.65529942150063 L 280.90000219143826,70.77476490361428 z" /><path fill-rule="evenodd" fill="#D2EBD9" stroke="#A6A6A6" stroke-width="0.25" opacity="1" d="M 275.6000022444489,75.70698266516348 L 275.7500022429486,76.08244560894923 L 275.7500022429486,76.18484459361808 L 275.6500022439488,76.2531105833973 L 275.5000022454491,76.2360440859525 L 275.6500022439488,76.18484459361808 L 275.7000022434487,76.13364510128366 L 275.7500022429486,76.09951210639404 L 275.7000022434487,75.96298012683559 L 275.550002244949,75.84351464472194 L 275.6000022444489,75.70698266516348 z" /><path fill-rule="evenodd" fill="#D2EBD9" stroke="#A6A6A6" stroke-width="0.25" opacity="1" d="M 277.00000223044606,77.75496235854031 L 276.80000223244645,77.65256337387147 L 277.00000223044606,77.66962987131627 L 277.550002224945,77.29416692753053 L 277.550002224945,77.43069890708898 L 277.00000223044606,77.75496235854031 z" /><path fill-rule="evenodd" fill="#D2EBD9" stroke="#A6A6A6" stroke-width="0.25" opacity="1" d="M 271.5000022854571,80.22960448803731 L 271.550002284957,80.24667098548213 L 271.5000022854571,80.24667098548213 L 271.5000022854571,80.22960448803731 z" /><path fill-rule="evenodd" fill="#D2EBD9" stroke="#A6A6A6" stroke-width="0.25" opacity="1" d="M 271.45000228595717,80.26373748292693 L 271.45000228595717,80.28080398037174 L 271.40000228645727,80.28080398037174 L 271.45000228595717,80.22960448803731 L 271.45000228595717,80.26373748292693 z" /><path fill-rule="evenodd" fill="#D2EBD9" stroke="#A6A6A6" stroke-width="0.25" opacity="1" d="M 272.10000227945585,81.09999585772248 L 271.5000022854571,81.47545880150822 L 271.6000022844569,81.25359433472573 L 271.6500022839568,81.35599331939457 L 272.05000227995595,81.08292936027766 L 271.550002284957,80.24667098548213 L 271.6500022839568,80.38320296504058 L 271.9000022814563,80.70746641649191 L 272.0000022804561,80.77573240627113 L 272.10000227945585,81.09999585772248 z" /><path fill-rule="evenodd" fill="#D2EBD9" stroke="#A6A6A6" stroke-width="0.25" opacity="1" d="M 271.5000022854571,84.76929280835596 L 271.35000228695736,85.3495537214794 L 271.25000228795756,85.40075321381381 L 271.40000228645727,84.80342580324557 L 271.5000022854571,84.76929280835596 z" /><path fill-rule="evenodd" fill="#D2EBD9" stroke="#A6A6A6" stroke-width="0.25" opacity="1" d="M 271.8000022824565,86.3735435681678 L 271.7500022829566,86.5783415375055 L 271.8000022824565,86.15167910138531 L 271.550002284957,85.92981463460282 L 271.8000022824565,85.96394762949244 L 271.8500022819564,86.13461260394051 L 271.8000022824565,86.3735435681678 z" /><path fill-rule="evenodd" fill="#D2EBD9" stroke="#A6A6A6" stroke-width="0.25" opacity="1" d="M 271.45000228595717,87.05620346596008 L 271.15000228895775,87.44873290719065 L 271.15000228895775,87.36340041996661 L 271.35000228695736,87.15860245062892 L 271.45000228595717,86.98793747618086 L 271.7500022829566,86.64660752728471 L 271.7000022834567,86.69780701961913 L 271.45000228595717,87.05620346596008 z" /><path fill-rule="evenodd" fill="#D2EBD9" stroke="#A6A6A6" stroke-width="0.25" opacity="1" d="M 464.9000003510702,86.28821108094377 L 463.9000003610722,86.90260498895682 L 463.9500003605721,87.41459991230103 L 464.15000035857173,87.63646437908352 L 463.40000036607324,87.94366133309005 L 462.8500003715743,87.97779432797965 L 462.9000003710742,87.8241958509764 L 463.1500003685737,87.89246184075562 L 463.8500003615723,87.46579940463545 L 463.7000003630726,87.19273544551854 L 463.500000365073,87.44873290719065 L 463.5500003645729,87.32926742507699 L 463.40000036607324,87.29513443018737 L 463.500000365073,86.90260498895682 L 463.25000036757353,87.17566894807374 L 463.20000036807363,87.00500397362566 L 463.0500003695739,87.03913696851528 L 463.35000036657334,86.76607300939837 L 462.6500003735747,86.95380448129124 L 462.6000003740748,87.17566894807374 L 462.7500003725745,87.34633392252181 L 462.40000037607524,87.20980194296335 L 462.50000037507505,86.93673798384644 L 462.7500003725745,86.91967148640163 L 463.500000365073,86.39061006561262 L 464.35000035657134,86.16874559883013 L 464.5500003545709,85.94688113204764 L 465.00000035007,85.98101412693725 L 464.9000003510702,86.28821108094377 z" /><path fill-rule="evenodd" fill="#D2EBD9" stroke="#A6A6A6" stroke-width="0.25" opacity="1" d="M 269.9500023009602,94.51426284934071 L 270.1000022994599,94.37773086978225 L 270.8500022919584,94.78732680845762 L 270.50000229545907,94.71906081867839 L 270.1000022994599,94.46306335700629 L 269.9500023009602,94.51426284934071 z" /><path fill-rule="evenodd" fill="#D2EBD9" stroke="#A6A6A6" stroke-width="0.25" opacity="1" d="M 271.35000228695736,95.23105574202259 L 271.25000228795756,95.12865675735375 L 270.8500022919584,94.95799178290568 L 271.40000228645727,95.14572325479857 L 271.35000228695736,95.23105574202259 z" /><path fill-rule="evenodd" fill="#D2EBD9" stroke="#A6A6A6" stroke-width="0.25" opacity="1" d="M 451.3500004865973,99.99260852912373 L 451.1000004890978,100.00967502656853 L 451.05000048959795,100.23153949335102 L 450.75000049259853,100.36807147290948 L 450.500000495099,99.90727604189969 L 450.80000049209843,99.77074406234124 L 450.6500004935987,100.14620700612699 L 450.95000049059814,100.1803400010166 L 451.3500004865973,99.58301259044836 L 450.85000049159834,99.63421208278278 L 451.00000049009805,99.41234761600029 L 451.2000004880976,99.41234761600029 L 451.5500004845969,99.56594609300355 L 451.3500004865973,99.99260852912373 z" /><path fill-rule="evenodd" fill="#D2EBD9" stroke="#A6A6A6" stroke-width="0.25" opacity="1" d="M 367.45000132576513,45.58461467507927 L 367.55000132476493,45.66994716230331 L 367.4000013262652,45.6358141674137 L 367.4000013262652,45.49928218785524 L 367.55000132476493,45.41394970063121 L 367.75000132276455,45.533415182744854 L 367.55000132476493,45.482215690410435 L 367.45000132576513,45.58461467507927 z" /><path fill-rule="evenodd" fill="#D2EBD9" stroke="#A6A6A6" stroke-width="0.25" opacity="1" d="M 352.60000147429486,44.38995985394279 L 352.55000147479495,44.4240928488324 L 352.50000147529505,44.4240928488324 L 352.65000147379476,44.33876036160837 L 352.60000147429486,44.38995985394279 z" /><path fill-rule="evenodd" fill="#D2EBD9" stroke="#A6A6A6" stroke-width="0.25" opacity="1" d="M 352.45000147579515,44.4240928488324 L 352.50000147529505,44.4240928488324 L 352.40000147629524,44.49235883861163 L 352.40000147629524,44.45822584372202 L 352.45000147579515,44.4240928488324 z" /><path fill-rule="evenodd" fill="#D2EBD9" stroke="#A6A6A6" stroke-width="0.25" opacity="1" d="M 352.65000147379476,44.37289335649798 L 352.50000147529505,44.543558330946055 L 352.40000147629524,44.594757823280474 L 352.40000147629524,44.543558330946055 L 352.65000147379476,44.37289335649798 z" /><path fill-rule="evenodd" fill="#D2EBD9" stroke="#A6A6A6" stroke-width="0.25" opacity="1" d="M 373.65000126375276,45.97714411630984 L 373.65000126375276,45.84061213675138 L 373.85000126175237,45.87474513164099 L 373.85000126175237,45.96007761886503 L 373.65000126375276,45.97714411630984 z" /><path fill-rule="evenodd" fill="#D2EBD9" stroke="#A6A6A6" stroke-width="0.25" opacity="1" d="M 374.75000125275056,54.510392838713294 L 374.75000125275056,54.42506035148926 L 374.80000125225047,54.64692481827175 L 374.75000125275056,54.57865882849252 L 374.75000125275056,54.510392838713294 z" /><path fill-rule="evenodd" fill="#D2EBD9" stroke="#A6A6A6" stroke-width="0.25" opacity="1" d="M 249.10000250950188,69.17051414380244 L 249.20000250850168,69.28997962591609 L 249.00000251050207,69.32411262080569 L 249.00000251050207,69.18758064124724 L 249.10000250950188,69.17051414380244 z" /><path fill-rule="evenodd" fill="#D2EBD9" stroke="#A6A6A6" stroke-width="0.25" opacity="1" d="M 273.4500022659532,88.02899382031407 L 273.6000022644529,87.63646437908352 L 273.30000226745346,87.77299635864198 L 273.25000226795356,87.65353087652832 L 273.6000022644529,87.56819838930429 L 273.6500022639528,87.68766387141794 L 273.550002264953,87.77299635864198 L 273.5000022654531,88.0972598100933 L 273.40000226645327,88.19965879476214 L 273.25000226795356,88.0972598100933 L 273.25000226795356,87.79006285608678 L 273.35000226695337,87.89246184075562 L 273.30000226745346,88.0972598100933 L 273.4500022659532,88.02899382031407 z" /><path fill-rule="evenodd" fill="#D2EBD9" stroke="#A6A6A6" stroke-width="0.25" opacity="1" d="M 444.05000055961193,105.41975471657233 L 444.15000055861174,105.38562172168271 L 444.25000055761154,105.43682121401713 L 444.000000560112,105.50508720379636 L 444.05000055961193,105.41975471657233 z" /></g><g><path fill-rule="evenodd" fill="#D2EBD9" stroke="#A6A6A6" stroke-width="0.25" opacity="1" d="M 239.7500026030206,111.22236384780668 L 239.8500026020204,111.15409785802746 L 239.95000260102017,111.22236384780668 L 239.95000260102017,111.34182932992033 L 239.90000260152027,111.42716181714437 L 239.95000260102017,111.35889582736513 L 239.95000260102017,111.2564968426963 L 239.90000260152027,111.20529735036187 L 239.8500026020204,111.18823085291706 L 239.7500026030206,111.22236384780668 z" /><path fill-rule="evenodd" fill="#D2EBD9" stroke="#A6A6A6" stroke-width="0.25" opacity="1" d="M 263.3000023674735,114.4820648597648 L 263.3000023674735,114.36259937765115 L 263.45000236597315,114.34553288020635 L 263.3500023669734,114.46499836231999 L 263.3000023674735,114.4820648597648 z" /><path fill-rule="evenodd" fill="#D2EBD9" stroke="#A6A6A6" stroke-width="0.25" opacity="1" d="M 264.50000235547105,121.00146688368105 L 264.40000235647125,120.95026739134661 L 264.50000235547105,120.95026739134661 L 264.65000235397076,121.12093236579469 L 264.55000235497096,121.1721318581291 L 264.50000235547105,121.00146688368105 z" /><path fill-rule="evenodd" fill="#D2EBD9" stroke="#A6A6A6" stroke-width="0.25" opacity="1" d="M 243.550002565013,104.53229684944236 L 243.90000256151228,104.6176293366664 L 244.1000025595119,104.89069329578331 L 243.90000256151228,104.65176233155601 L 243.550002565013,104.53229684944236 z" /><path fill-rule="evenodd" fill="#D2EBD9" stroke="#A6A6A6" stroke-width="0.25" opacity="1" d="M 249.45000250600117,112.53648415105681 L 249.60000250450088,112.51941765361201 L 249.8000025025005,112.9802130846218 L 249.90000250150027,113.42394201818676 L 250.35000249699937,113.67993947985887 L 250.40000249649927,113.91887044408617 L 249.8500025020004,113.45807501307638 L 249.70000250350068,112.79248161272892 L 249.45000250600117,112.53648415105681 z" /><path fill-rule="evenodd" fill="#D2EBD9" stroke="#A6A6A6" stroke-width="0.25" opacity="1" d="M 265.3000023474695,114.17486790575828 L 265.1000023494699,114.2260673980927 L 264.75000235297057,114.26020039298231 L 264.8500023519704,114.15780140831346 L 265.3000023474695,114.17486790575828 z" /><path fill-rule="evenodd" fill="#D2EBD9" stroke="#A6A6A6" stroke-width="0.25" opacity="1" d="M 263.55000236497295,120.1652085088855 L 263.1000023694739,120.48947196033683 L 262.60000237447485,120.48947196033683 L 262.3500023769754,120.6601369347849 L 262.60000237447485,120.38707297566799 L 263.1000023694739,120.40413947311279 L 263.55000236497295,120.1652085088855 z" /><path fill-rule="evenodd" fill="#D2EBD9" stroke="#A6A6A6" stroke-width="0.25" opacity="1" d="M 261.1500023889778,121.06973287346027 L 260.1000023994799,120.84786840667778 L 259.00000241048207,121.29159734024276 L 258.95000241098217,121.46226231469083 L 258.85000241198236,121.3769298274668 L 259.00000241048207,121.24039784790834 L 260.1500023989798,120.79666891434336 L 261.1500023889778,121.06973287346027 z" /><path fill-rule="evenodd" fill="#D2EBD9" stroke="#A6A6A6" stroke-width="0.25" opacity="1" d="M 244.050002560012,122.36678667926559 L 243.50000256551309,122.53745165371366 L 243.6000025645129,122.4009196741552 L 244.25000255801157,122.26438769459675 L 244.5000025555111,122.36678667926559 L 244.050002560012,122.36678667926559 z" /><path fill-rule="evenodd" fill="#D2EBD9" stroke="#A6A6A6" stroke-width="0.25" opacity="1" d="M 242.85000257201438,122.99824708472345 L 242.80000257251447,123.30544403872997 L 242.75000257301457,123.39077652595401 L 242.7000025735147,123.16891205917152 L 242.85000257201438,122.99824708472345 z" /><path fill-rule="evenodd" fill="#D2EBD9" stroke="#A6A6A6" stroke-width="0.25" opacity="1" d="M 232.00000268053608,147.77880137458308 L 231.80000268253647,147.69346888735905 L 231.550002685037,147.67640238991424 L 231.80000268253647,147.5910699026902 L 232.00000268053608,147.77880137458308 z" /><path fill-rule="evenodd" fill="#D2EBD9" stroke="#A6A6A6" stroke-width="0.25" opacity="1" d="M 246.35000253700738,111.46129481203397 L 246.4000025365073,111.5295608018132 L 246.35000253700738,111.546627299258 L 246.35000253700738,111.46129481203397 z" /><path fill-rule="evenodd" fill="#D2EBD9" stroke="#A6A6A6" stroke-width="0.25" opacity="1" d="M 263.75000236297257,120.71133642711932 L 263.55000236497295,120.48947196033683 L 263.65000236397276,120.54067145267125 L 263.80000236247247,120.76253591945374 L 263.75000236297257,120.71133642711932 z" /><path fill-rule="evenodd" fill="#D2EBD9" stroke="#A6A6A6" stroke-width="0.25" opacity="1" d="M 245.35000254700938,124.1075694186359 L 245.40000254650928,124.09050292119109 L 245.40000254650928,124.19290190585994 L 245.35000254700938,124.26116789563916 L 245.20000254850967,124.26116789563916 L 245.35000254700938,124.22703490074954 L 245.40000254650928,124.17583540841513 L 245.40000254650928,124.15876891097032 L 245.35000254700938,124.1075694186359 z" /><path fill-rule="evenodd" fill="#D2EBD9" stroke="#A6A6A6" stroke-width="0.25" opacity="1" d="M 235.25000264802958,128.97152119040587 L 235.20000264852968,128.93738819551626 L 235.25000264802958,128.90325520062663 L 235.25000264802958,128.97152119040587 z" /><path fill-rule="evenodd" fill="#D2EBD9" stroke="#A6A6A6" stroke-width="0.25" opacity="1" d="M 237.3500026270254,131.65096128924057 L 237.4500026260252,131.70216078157497 L 237.4500026260252,131.7704267713542 L 237.3500026270254,131.71922727901978 L 237.3500026270254,131.65096128924057 z" /><path fill-rule="evenodd" fill="#D2EBD9" stroke="#A6A6A6" stroke-width="0.25" opacity="1" d="M 257.6500024239848,132.77735012059782 L 257.6000024244849,132.81148311548742 L 257.550002424985,132.72615062826338 L 257.6000024244849,132.70908413081858 L 257.6500024239848,132.77735012059782 z" /><path fill-rule="evenodd" fill="#D2EBD9" stroke="#A6A6A6" stroke-width="0.25" opacity="1" d="M 253.70000246349267,136.4125140763417 L 253.75000246299257,136.4637135686761 L 253.70000246349267,136.51491306101053 L 253.70000246349267,136.4125140763417 z" /><path fill-rule="evenodd" fill="#D2EBD9" stroke="#A6A6A6" stroke-width="0.25" opacity="1" d="M 257.80000242248445,141.83966026379028 L 257.85000242198436,141.83966026379028 L 257.85000242198436,141.92499275101432 L 257.80000242248445,141.92499275101432 L 257.80000242248445,141.83966026379028 z" /><path fill-rule="evenodd" fill="#D2EBD9" stroke="#A6A6A6" stroke-width="0.25" opacity="1" d="M 223.1500027690538,150.81663791975873 L 223.25000276805358,150.7313054325347 L 223.25000276805358,150.7825049248691 L 223.1500027690538,150.81663791975873 z" /><path fill-rule="evenodd" fill="#D2EBD9" stroke="#A6A6A6" stroke-width="0.25" opacity="1" d="M 221.5000027855571,151.22623385843409 L 221.550002785057,151.29449984821332 L 221.5000027855571,151.32863284310292 L 221.5000027855571,151.22623385843409 z" /><path fill-rule="evenodd" fill="#D2EBD9" stroke="#A6A6A6" stroke-width="0.25" opacity="1" d="M 245.65000254400877,170.64790795062436 L 245.5000025455091,170.4943094736211 L 245.60000254450887,170.52844246851072 L 245.70000254350867,170.64790795062436 L 245.65000254400877,170.64790795062436 z" /></g><path fill-rule="evenodd" fill="#D2EBD9" stroke="#A6A6A6" stroke-width="0.25" opacity="1" d="M 232.25000267803557,71.66222277074425 L 232.00000268053608,71.44035830396176 L 232.25000267803557,71.25262683206888 L 232.35000267703538,71.61102327840982 L 232.25000267803557,71.66222277074425 z" /><g><path fill-rule="evenodd" fill="#D2EBD9" stroke="#A6A6A6" stroke-width="0.25" opacity="1" d="M 206.8500029320864,109.53278060077079 L 206.8500029320864,109.72051207266367 L 206.60000293458688,109.75464506755328 L 206.10000293958788,109.2938496365435 L 206.2500029380876,109.14025115954023 L 206.8000029325865,109.08905166720581 L 207.00000293058608,109.41331511865714 L 206.8500029320864,109.53278060077079 z" /><path fill-rule="evenodd" fill="#D2EBD9" stroke="#A6A6A6" stroke-width="0.25" opacity="1" d="M 176.1500032391478,119.943344042103 L 176.2500032381476,119.97747703699262 L 176.050003240148,120.13107551399588 L 175.4500032461492,120.21640800121992 L 175.1000032496499,119.97747703699262 L 175.05000325015,119.75561257021013 L 175.3000032476495,119.6361470880965 L 175.3000032476495,119.22655114942113 L 175.5000032456491,119.00468668263863 L 176.3000032376475,119.10708566730747 L 176.2500032381476,119.49961510853804 L 176.4500032361472,119.56788109831726 L 176.3500032371474,119.9092110472134 L 176.1500032391478,119.943344042103 z" /><path fill-rule="evenodd" fill="#D2EBD9" stroke="#A6A6A6" stroke-width="0.25" opacity="1" d="M 132.7000036737347,122.86171510516499 L 132.9000036717343,122.74224962305135 L 132.55000367523502,122.58865114604808 L 133.05000367023402,122.55451815115848 L 133.00000367073412,122.8787816026098 L 132.7000036737347,122.86171510516499 z" /><path fill-rule="evenodd" fill="#D2EBD9" stroke="#A6A6A6" stroke-width="0.25" opacity="1" d="M 134.55000365523102,123.35664353106439 L 134.45000365623122,123.39077652595401 L 134.40000365673131,123.1347790642819 L 134.8000036527305,123.35664353106439 L 134.55000365523102,123.35664353106439 z" /><path fill-rule="evenodd" fill="#D2EBD9" stroke="#A6A6A6" stroke-width="0.25" opacity="1" d="M 45.80000454290854,137.23170595369243 L 45.65000454440884,137.28290544602683 L 45.500004545909135,137.00984148690992 L 45.500004545909135,137.180506461358 L 45.35000454740944,137.180506461358 L 45.000004550910134,136.54904605590013 L 45.000004550910134,136.15651661466958 L 45.40000454690934,136.82211001501705 L 45.55000454540904,136.90744250224108 L 45.70000454390874,136.736777527793 L 45.95000454140824,136.99277498946512 L 45.750004543408636,137.02690798435472 L 45.80000454290854,137.23170595369243 z" /><path fill-rule="evenodd" fill="#D2EBD9" stroke="#A6A6A6" stroke-width="0.25" opacity="1" d="M 153.55000346519302,80.86106489349517 L 153.5000034656931,80.79279890371595 L 153.60000346469292,80.79279890371595 L 153.60000346469292,80.84399839605037 L 153.55000346519302,80.86106489349517 z" /><path fill-rule="evenodd" fill="#D2EBD9" stroke="#A6A6A6" stroke-width="0.25" opacity="1" d="M 152.9500034711942,81.09999585772248 L 152.9500034711942,81.08292936027766 L 153.050003470194,81.06586286283286 L 153.050003470194,81.11706235516728 L 152.9500034711942,81.09999585772248 z" /><path fill-rule="evenodd" fill="#D2EBD9" stroke="#A6A6A6" stroke-width="0.25" opacity="1" d="M 153.4500034661932,81.1511953500569 L 153.3500034671934,81.1511953500569 L 153.3500034671934,81.11706235516728 L 153.5000034656931,81.09999585772248 L 153.4500034661932,81.1511953500569 z" /><path fill-rule="evenodd" fill="#D2EBD9" stroke="#A6A6A6" stroke-width="0.25" opacity="1" d="M 154.0000034606921,99.1904831492178 L 154.10000345969192,99.25874913899703 L 154.10000345969192,99.36114812366587 L 154.0000034606921,99.29288213388664 L 154.0000034606921,99.1904831492178 z" /><path fill-rule="evenodd" fill="#D2EBD9" stroke="#A6A6A6" stroke-width="0.25" opacity="1" d="M 153.4500034661932,99.4464806108899 L 153.3000034676935,99.37821462111067 L 153.3500034671934,99.29288213388664 L 153.4500034661932,99.34408162622107 L 153.4500034661932,99.4464806108899 z" /><path fill-rule="evenodd" fill="#D2EBD9" stroke="#A6A6A6" stroke-width="0.25" opacity="1" d="M 146.1500035392078,109.17438415442984 L 146.3500035372074,109.24265014420908 L 146.45000353620722,109.36211562632272 L 146.2500035382076,109.32798263143312 L 146.1500035392078,109.17438415442984 z" /><path fill-rule="evenodd" fill="#D2EBD9" stroke="#A6A6A6" stroke-width="0.25" opacity="1" d="M 168.8000033126625,112.34875267916394 L 168.8000033126625,112.36581917660874 L 168.8500033121624,112.38288567405355 L 168.8000033126625,112.39995217149836 L 168.8000033126625,112.34875267916394 z" /><path fill-rule="evenodd" fill="#D2EBD9" stroke="#A6A6A6" stroke-width="0.25" opacity="1" d="M 117.95000382126422,118.37322627718078 L 118.00000382076412,118.44149226696 L 118.00000382076412,118.52682475418403 L 117.95000382126422,118.49269175929443 L 117.95000382126422,118.37322627718078 z" /><path fill-rule="evenodd" fill="#D2EBD9" stroke="#A6A6A6" stroke-width="0.25" opacity="1" d="M 173.8500032621524,118.50975825673923 L 173.9000032616523,118.56095774907365 L 173.9500032611522,118.59509074396327 L 173.8500032621524,118.57802424651845 L 173.8500032621524,118.50975825673923 z" /><path fill-rule="evenodd" fill="#D2EBD9" stroke="#A6A6A6" stroke-width="0.25" opacity="1" d="M 134.40000365673131,122.41798617160002 L 134.45000365623122,122.72518312560653 L 134.40000365673131,122.77638261794095 L 134.40000365673131,122.41798617160002 z" /><path fill-rule="evenodd" fill="#D2EBD9" stroke="#A6A6A6" stroke-width="0.25" opacity="1" d="M 117.10000382976591,122.77638261794095 L 117.10000382976591,122.84464860772019 L 117.05000383026602,122.84464860772019 L 117.10000382976591,122.77638261794095 z" /><path fill-rule="evenodd" fill="#D2EBD9" stroke="#A6A6A6" stroke-width="0.25" opacity="1" d="M 125.00000375075011,130.66110443744176 L 125.05000375025001,130.72937042722097 L 125.00000375075011,130.7464369246658 L 125.00000375075011,130.66110443744176 z" /><path fill-rule="evenodd" fill="#D2EBD9" stroke="#A6A6A6" stroke-width="0.25" opacity="1" d="M 120.20000379875971,130.66110443744176 L 120.35000379725942,130.88296890422424 L 120.35000379725942,130.93416839655868 L 120.20000379875971,130.86590240677944 L 120.20000379875971,130.66110443744176 z" /><path fill-rule="evenodd" fill="#D2EBD9" stroke="#A6A6A6" stroke-width="0.25" opacity="1" d="M 123.15000376925381,133.30641154138684 L 123.20000376875372,133.32347803883164 L 123.25000376825362,133.35761103372124 L 123.20000376875372,133.37467753116604 L 123.15000376925381,133.30641154138684 z" /><path fill-rule="evenodd" fill="#D2EBD9" stroke="#A6A6A6" stroke-width="0.25" opacity="1" d="M 60.85000439237843,138.49462676460814 L 60.90000439187833,138.4775602671633 L 60.950004391378236,138.54582625694255 L 60.90000439187833,138.54582625694255 L 60.85000439237843,138.49462676460814 z" /></g><g><path fill-rule="evenodd" fill="#D2EBD9" stroke="#A6A6A6" stroke-width="0.25" opacity="1" d="M 20.350004797459444,120.84786840667778 L 20.100004799959944,120.28467399099915 L 20.150004799459843,120.25054099610954 L 20.400004796959344,120.47240546289203 L 20.350004797459444,120.84786840667778 z" /><path fill-rule="evenodd" fill="#D2EBD9" stroke="#A6A6A6" stroke-width="0.25" opacity="1" d="M 21.600004784956944,122.28145419204156 L 21.450004786457246,122.41798617160002 L 21.450004786457246,122.17905520737271 L 21.100004789957943,121.9059912482558 L 20.850004792458446,122.11078921759349 L 20.850004792458446,121.9059912482558 L 21.050004790458043,121.78652576614216 L 21.600004784956944,122.02545673036946 L 21.600004784956944,122.1278557150383 L 21.550004785457045,122.19612170481753 L 21.500004785957145,122.24732119715195 L 21.600004784956944,122.28145419204156 z" /><path fill-rule="evenodd" fill="#D2EBD9" stroke="#A6A6A6" stroke-width="0.25" opacity="1" d="M 21.650004784456844,122.72518312560653 L 21.500004785957145,122.50331865882404 L 21.700004783956743,122.6227841409377 L 22.000004780956143,122.3838531767104 L 21.950004781456244,122.6227841409377 L 21.650004784456844,122.72518312560653 z" /><path fill-rule="evenodd" fill="#D2EBD9" stroke="#A6A6A6" stroke-width="0.25" opacity="1" d="M 22.800004772954544,125.06329327554509 L 22.650004774454843,125.14862576276913 L 22.700004773954745,124.46596586497685 L 22.200004778955744,124.27823439308396 L 21.900004781956344,123.80037246462938 L 22.100004779955945,123.68090698251572 L 22.050004780456042,123.52730850551247 L 21.750004783456646,123.42490952084363 L 22.100004779955945,122.67398363327212 L 22.450004776455245,122.75931612049615 L 22.500004775955144,123.25424454639555 L 22.750004773454645,123.64677398762612 L 22.650004774454843,123.81743896207418 L 22.900004771954343,124.53423185475607 L 22.800004772954544,125.06329327554509 z" /><path fill-rule="evenodd" fill="#D2EBD9" stroke="#A6A6A6" stroke-width="0.25" opacity="1" d="M 0.05000500050005,94.61666183400955 L 0.05000500050005,94.42893036211667 L 0.40000499699934994,94.61666183400955 L 0.35000499749944997,94.70199432123358 L 0.05000500050005,94.61666183400955 z" /><path fill-rule="evenodd" fill="#D2EBD9" stroke="#A6A6A6" stroke-width="0.25" opacity="1" d="M 7.050004930486049,109.20851714931946 L 7.100004929985948,109.2938496365435 L 7.050004930486049,109.32798263143312 L 7.000004930986148,109.3109161339883 L 7.050004930486049,109.20851714931946 z" /><path fill-rule="evenodd" fill="#D2EBD9" stroke="#A6A6A6" stroke-width="0.25" opacity="1" d="M 19.650004804460846,119.60201409320688 L 19.750004803460644,119.85801155487897 L 19.500004805961144,119.9262775446582 L 19.550004805461043,119.68734658043091 L 19.650004804460846,119.60201409320688 z" /><path fill-rule="evenodd" fill="#D2EBD9" stroke="#A6A6A6" stroke-width="0.25" opacity="1" d="M 4.300004957991549,94.15586640299976 L 4.200004958991749,94.00226792599649 L 4.300004957991549,93.96813493110689 L 4.400004956991349,94.13879990555495 L 4.300004957991549,94.15586640299976 z" /><path fill-rule="evenodd" fill="#D2EBD9" stroke="#A6A6A6" stroke-width="0.25" opacity="1" d="M 23.200004768953743,127.53793540504209 L 23.100004769953944,127.38433692803883 L 23.150004769453844,127.23073845103556 L 23.300004767953542,127.43553642037325 L 23.200004768953743,127.53793540504209 z" /></g></g></g></g></svg>