<svg xmlns="http://www.w3.org/2000/svg" xmlns:xlink="http://www.w3.org/1999/xlink" width="500.0" height="283.52071960774504" viewBox="0.0 0.05672116026962989 500.0 283.52071960774504" preserveAspectRatio="xMinYMin meet"><g transform="matrix(1,0,0,-1,0,283.63416192828424)"><g><g><path fill-rule="evenodd" fill="#D2EBD9" stroke="#A6A6A6" stroke-width="0.25" opacity="1" d="M 133.56335633563356,258.48334767341976 L 131.8131813181318,259.13551054480473 L 130.91309130913092,258.5967673032258 L 129.56295629562956,258.6818320255804 L 128.7128712871287,259.0788007299017 L 127.66276627662765,260.21299702796244 L 127.76277627762775,259.90109304599576 L 128.86288628862886,258.76689674793494 L 127.86278627862785,258.93702619264405 L 127.41274127412741,259.5608341565775 L 127.36273627362736,260.0995773981564 L 127.5127512751275,260.35477156522006 L 127.36273627362736,260.5532559173807 L 127.11271127112711,260.4398362875746 L 126.91269126912691,260.63832063973524 L 127.06270627062706,261.1770638813141 L 126.91269126912691,261.6023874930869 L 127.01270127012701,262.25455036447187 L 126.86268626862686,262.3963249017295 L 125.9125912591259,260.6666755471868 L 125.5125512551255,260.7233853620898 L 124.86248624862486,260.1279323056079 L 123.7123712371237,259.73096360128665 L 122.86228622862285,259.6742537863836 L 121.3121312131213,260.0712224907049 L 120.56205620562055,260.6666755471868 L 120.3120312031203,260.6950304546383 L 120.06200620062006,260.60996573228374 L 119.71197119711971,259.90109304599576 L 119.51195119511951,259.78767341618965 L 118.46184618461845,259.8443832310927 L 118.26182618261825,260.18464212051094 L 118.4118411841184,260.2697068428655 L 118.36183618361835,260.4398362875746 L 114.26142614261425,259.16386545225623 L 110.71107110711071,260.15628721305944 L 109.46094609460945,260.950224621702 L 108.76087608760875,261.772516937796 L 108.06080608060806,262.08442091976275 L 107.3107310731073,263.1619074029205 L 106.4106410641064,263.92748990411155 L 106.16061606160615,265.0333312947208 L 105.91059105910591,265.0333312947208 L 105.76057605760576,265.23181564688144 L 105.56055605560556,266.84804537161807 L 105.06050605060506,267.69869259516366 L 104.9104910491049,267.52856315045454 L 104.4104410441044,267.52856315045454 L 103.8103810381038,266.87640027906957 L 103.26032603260326,266.56449629710283 L 102.4102410241024,266.67791592690895 L 101.76017601760175,266.2242374076846 L 100.81008100810081,266.3376570374907 L 100.3100310031003,266.11081777787854 L 99.45994599459945,263.0201328656629 L 97.8097809780978,258.88031637774105 L 97.05970597059705,256.18660016984666 L 94.65946594659465,251.13942664347618 L 93.65936593659366,249.66497145599718 L 92.3092309230923,247.05631997045737 L 91.35913591359136,246.00718839475113 L 90.4090409040904,245.24160589356012 L 89.65896589658965,244.81628228178732 L 88.95889588958896,244.6461528370782 L 87.35873587358735,243.56866635392043 L 87.05870587058705,243.653731076275 L 85.95859585958596,242.6613093154718 L 85.25852585258525,242.37776024095663 L 84.7084708470847,242.43447005585966 L 84.25842584258426,242.00914644408687 L 83.1083108310831,241.6121777397656 L 82.7082708270827,241.24356394289583 L 79.15791579157916,240.0243029224805 L 78.007800780078,238.86175171696817 L 77.5077507750775,238.63491245735602 L 76.95769576957696,238.71997717971058 L 76.2076207620762,237.8409750487135 L 76.05760576057605,237.21716708478004 L 73.9073907390739,234.5801606917887 L 72.75727572757275,233.67280365334008 L 71.75717571757176,232.45354263292475 L 70.4070407040704,231.34770124231548 L 70.25702570257026,230.83731290818812 L 70.5070507050705,230.01502059209406 L 70.10701070107011,228.9375341089363 L 70.35703570357035,228.71069484932414 L 70.25702570257026,227.29294947674816 L 69.80698069806981,226.58407679046016 L 69.45694569456946,225.47823539985092 L 66.65666566656665,222.21742104292613 L 66.5066506650665,221.25335418957448 L 65.15651565156516,218.89989687109835 L 65.5065506550655,218.30444381461643 L 65.15651565156516,215.9509864961403 L 65.45654565456546,212.74688195411858 L 64.95649564956496,211.78281510076692 L 64.75647564756476,210.98887769212436 L 65.30653065306531,210.7903933399637 L 66.4066406640664,209.93974611641812 L 66.75667566756675,209.004034170518 L 67.25672567256726,208.43693602148758 L 66.95669566956695,205.94170416575386 L 66.3066306630663,204.21205481121117 L 65.35653565356536,202.56747017902302 L 63.2063206320632,199.9588186934832 L 63.006300630063,199.19323619229218 L 62.55625562556255,198.39929878364964 L 62.156215621562154,198.11574970913443 L 61.55615561556155,197.00990831852516 L 60.906090609060904,196.58458470675237 L 59.705970597059704,194.8832902596612 L 58.605860586058604,193.83415868395497 L 54.2054205420542,191.39563664312428 L 53.35533553355335,190.31815015996654 L 51.85518551855185,188.98546950974512 L 51.755175517551756,188.61685571287535 L 50.455045504550455,187.02898089559025 L 45.604560456045604,184.9307177441778 L 45.25452545254525,184.6188137622111 L 42.8042804280428,184.1934901504383 L 41.2041204120412,183.68310181631094 L 39.9039903990399,183.71145672376244 L 38.3038303830383,183.42790764924726 L 37.253725372537254,183.00258403747446 L 36.45364536453645,181.27293468293175 L 35.3035303530353,180.53570708919224 L 34.7034703470347,178.2956694005222 L 34.05340534053405,177.07640838010684 L 34.15341534153415,176.87792402794622 L 33.2033203320332,175.40346884046718 L 32.553255325532554,172.70975263257282 L 31.803180318031803,171.09352290783622 L 31.253125312531253,170.46971494390277 L 28.55285528552855,168.59829105210247 L 27.45274527452745,168.03119290307208 L 26.25262526252625,167.83270855091143 L 25.202520252025202,166.6134475304961 L 24.25242524252425,166.24483373362634 L 23.7023702370237,165.50760613988683 L 23.452345234523452,164.99721780575948 L 23.502350235023503,163.7212469704411 L 23.2023202320232,162.81388993199246 L 22.302230223022303,161.424499466868 L 21.45214521452145,158.8442028887797 L 20.85208520852085,158.07862038758867 L 20.502050205020502,156.91606918207637 L 20.25202520252025,155.75351797656407 L 20.402040204020402,154.27906278908506 L 20.35203520352035,152.69118797179993 L 19.7019701970197,150.53621500548445 L 19.1019101910191,150.08253648626012 L 18.751875187518753,149.31695398506912 L 18.45184518451845,149.06175981800544 L 17.501750175017502,148.7498558360387 L 17.05170517051705,148.38124203916897 L 16.2016201620162,147.1619810187536 L 14.9014901490149,145.97107490578978 L 13.3013301330133,144.04294119908644 L 12.001200120012001,143.3907783277015 L 11.05110511051105,142.48342128925287 L 9.85098509850985,140.38515813784042 L 9.950995099509951,140.30009341548586 L 10.4010401040104,140.6687072123556 L 10.9010901090109,141.9163231402225 L 11.151115111511151,142.17151730728617 L 11.751175117511751,142.37000165944679 L 11.8011801180118,142.71026054886502 L 11.95119511951195,142.90874490102567 L 11.85118511851185,142.76697036376805 L 12.001200120012001,142.56848601160743 L 11.95119511951195,141.6894838806103 L 11.451145114511451,140.69706211980713 L 10.75107510751075,139.95983452606762 L 10.3010301030103,139.1942520248766 L 10.1010101010101,138.343604801331 L 9.350935093509351,137.35118304052781 L 8.7008700870087,135.79166313069422 L 8.000800080008,134.91266099969712 L 7.950795079507951,134.742531554988 L 8.5008500850085,134.79924136989104 L 8.450845084508451,133.92023923889394 L 7.75077507750775,133.12630183025138 L 7.3007300730073,133.0128822004453 L 7.25072507250725,132.36071932906034 L 6.85068506850685,131.36829756825716 L 6.7006700670067,129.92219728822965 L 6.05060506050605,129.24167950939318 L 5.75057505750575,127.93735376662329 L 5.2505250525052505,127.34190071014137 L 4.25042504250425,126.94493200582009 L 3.9003900390039004,127.14341635798074 L 3.55035503550355,126.94493200582009 L 3.35033503350335,126.46289857914427 L 3.05030503050305,126.26441422698363 L 2.6002600260026,125.55554154069563 L 1.55015501550155,123.40056857438015 L 1.25012501250125,122.15295264651327 L 1.4001400140014,122.01117810925568 L 1.4001400140014,121.6142094049344 L 0.8000800080008,118.92049319704003 L 0.35003500350035,114.92245124637576 L 0.0,113.30622152163915 L 0.45004500450045004,112.39886448319051 L 0.2000200020002,113.41964115144522 L 1.3001300130013,117.84300671388229 L 36.7036703670367,117.84300671388229 L 36.003600360036,129.07155006468406 L 35.45354535453545,130.9713288639359 L 35.35353535353535,131.5951368278693 L 35.45354535453545,132.24729969925428 L 36.7036703670367,134.17543340595762 L 40.25402540254025,136.6423103542398 L 42.65426542654265,137.15269868836717 L 45.654565456545654,138.4853793385886 L 45.654565456545654,163.52276261828047 L 75.55755575557555,163.5794724331835 L 75.6075607560756,176.48095532362493 L 75.6075607560756,190.80018358664236 L 75.9075907590759,191.1404424760606 L 77.85778577857785,192.3029936815729 L 78.25782578257825,192.98351146040937 L 79.45794579457946,193.890868498858 L 81.1081108110811,194.7415157224036 L 82.2082208220822,195.73393748320677 L 84.15841584158416,197.12332794833125 L 84.8084808480848,197.80384572716773 L 85.1085108510851,197.94562026442532 L 87.55875587558755,197.88891044952229 L 88.35883588358836,198.73955767306788 L 89.35893589358935,199.16488128484067 L 91.05910591059106,199.16488128484067 L 92.65926592659265,198.5127184134557 L 93.40934093409341,199.24994600719523 L 94.65946594659465,199.39172054445282 L 95.95959595959596,199.7603343413226 L 99.65996599659965,199.90210887858018 L 101.86018601860185,200.24236776799842 L 102.16021602160215,199.30665582209826 L 102.91029102910291,199.02310674758306 L 103.8103810381038,199.30665582209826 L 105.56055605560556,201.83024258528351 L 106.16061606160615,203.07785851315037 L 107.06070607060705,204.01357045905053 L 109.76097609760976,206.11183361046298 L 112.011201120112,207.18932009362072 L 113.26132613261325,208.21009676187543 L 114.26142614261425,209.54277741209685 L 115.16151615161516,210.0531657462242 L 116.2116211621162,210.33671482073942 L 117.61176117611761,210.39342463564245 L 119.1119111911191,210.7620384325122 L 120.8120812081208,211.6410405635093 L 120.66206620662065,212.97372121373073 L 121.6121612161216,214.22133714159762 L 121.1121112111211,215.01527455024015 L 121.012101210121,215.58237269927054 L 120.56205620562055,215.8375668663342 L 120.01200120012001,216.54643955262222 L 119.3119311931193,216.17782575575245 L 119.011901190119,216.46137483026766 L 119.3119311931193,217.2269573314587 L 119.26192619261926,218.21937909226187 L 119.86198619861986,218.72976742638923 L 120.56205620562055,218.78647724129226 L 120.66206620662065,221.48019344918663 L 121.26212621262125,221.82045233860487 L 122.01220122012201,221.76374252370184 L 124.61246124612461,222.21742104292613 L 126.56265626562656,222.81287409940805 L 128.16281628162815,223.03971335902023 L 127.16271627162716,225.7334295669146 L 127.66276627662765,226.01697864142977 L 129.3129312931293,226.1587531786874 L 130.91309130913092,226.6124316979117 L 142.66426642664266,226.1587531786874 L 142.8142814281428,226.52736697555713 L 142.66426642664266,226.8959807724269 L 141.8141814181418,226.81091605007234 L 141.76417641764175,226.98104549478145 L 142.06420642064205,227.3496592916512 L 142.2142214221422,228.62563012696958 L 142.56425642564255,229.39121262816062 L 143.4143414341434,229.6464067952243 L 144.26442644264426,230.46869911131836 L 141.6141614161416,232.62367207763387 L 140.76407640764074,233.1057055043097 L 139.51395139513951,235.14725884081912 L 140.06400640064007,235.68600208239798 L 140.06400640064007,236.50829439849204 L 139.4139413941394,237.04703764007093 L 138.4138413841384,238.7483320871621 L 138.4138413841384,239.82581857031985 L 139.06390639063906,241.44204829505648 L 138.6138613861386,242.7747289452779 L 138.013801380138,243.14334274214764 L 137.86378637863785,243.39853690921132 L 138.2138213821382,244.0506997805963 L 138.06380638063806,245.01476663394794 L 138.5138513851385,247.62341811948775 L 137.86378637863785,249.75003617835173 L 137.26372637263725,250.65739321680036 L 138.2138213821382,251.81994442231266 L 137.8137813781378,251.99007386702178 L 136.7136713671367,253.09591525763105 L 137.6137613761376,254.68379007491615 L 135.76357635763574,256.01647072513754 L 135.41354135413542,256.696988503974 L 135.01350135013502,256.7253434114255 L 133.8133813381338,257.5476357275196 L 133.56335633563356,258.05802406164696 L 133.56335633563356,258.48334767341976 z" /><path fill-rule="evenodd" fill="#D2EBD9" stroke="#A6A6A6" stroke-width="0.25" opacity="1" d="M 256.77567756775676,237.78426523381043 L 256.3256325632563,234.80699995140088 L 256.4256425642564,233.7011585607916 L 256.27562756275626,231.99986411370043 L 257.27572757275726,230.61047364857598 L 257.3257325732573,230.15679512935165 L 257.17571757175716,229.8165362399334 L 256.2256225622562,229.1076635536454 L 251.1251125112511,226.66914151281472 L 250.2250225022502,225.25139614023874 L 249.42494249424942,224.7693627135629 L 248.92489248924892,224.93949215827203 L 248.72487248724872,224.71265289865988 L 248.52485248524852,223.52174678569605 L 248.1248124812481,223.18148789627782 L 247.6247624762476,222.38755048763525 L 247.1247124712471,222.18906613547463 L 246.1246124612461,222.21742104292613 L 245.6245624562456,221.8488072460564 L 244.32443244324432,219.89231863190153 L 244.22442244224422,219.18344594561353 L 245.47454745474545,215.49730797691598 L 245.4245424542454,214.90185492043406 L 245.67456745674565,213.79601352982482 L 245.57455745574555,213.03043102863379 L 244.97449744974497,211.83952491566995 L 242.1242124212421,207.92654768736023 L 240.97409740974095,207.67135352029655 L 238.97389738973897,206.62222194459034 L 236.87368736873685,205.45967073907804 L 239.22392239223922,202.19885638215328 L 240.27402740274027,200.18565795309536 L 241.7241724172417,195.25190405653095 L 241.9241924192419,193.69238414669738 L 241.9241924192419,191.73589553254251 L 241.27412741274125,186.43352783910834 L 242.67426742674266,182.37877607354102 L 242.67426742674266,181.8967426468652 L 242.024202420242,179.85518931035577 L 241.4241424142414,179.37315588367994 L 241.67416741674165,178.720993012295 L 241.07410741074105,177.8703457887494 L 240.77407740774075,176.53766513852798 L 241.77417741774175,172.62468791021826 L 242.47424742474246,172.02923485373634 L 242.2242224222422,170.9517483705786 L 242.3242324232423,170.12945605448454 L 241.97419741974196,168.82513031171464 L 238.6238623862386,167.09548095717193 L 238.5238523852385,166.58509262304457 L 237.67376737673766,165.28076688027468 L 237.87378737873786,164.71366873124427 L 243.3243324332433,156.91606918207637 L 243.47434743474346,156.29226121814295 L 243.57435743574356,152.2091545451241 L 243.67436743674367,151.95396037806043 L 245.02450245024502,151.1600229694179 L 245.4245424542454,149.62885796703583 L 246.97469746974696,148.437951854072 L 249.52495249524952,149.26024417016606 L 257.1257125712571,146.7083024995293 L 260.92609260926093,139.052477487619 L 274.5274527452745,135.7349533157912 L 275.57755775577556,135.13950025930927 L 281.1281128112811,130.2624561776479 L 288.62886288628863,134.28885303576368 L 296.979697969797,138.343604801331 L 335.4835483548355,117.75794199152773 L 368.7368736873687,100.2629640939401 L 368.7368736873687,104.99823363834388 L 377.7377737773777,105.05494345324692 L 377.7377737773777,124.22286089047421 L 377.7377737773777,195.79064729810983 L 377.68776877687765,196.38610035459175 L 376.68766876687664,199.10817146993762 L 376.7376737673767,200.4975619350621 L 376.13761376137614,201.71682295547743 L 376.1876187618762,203.1062134206019 L 375.0875087508751,205.7432198135932 L 375.0875087508751,206.1401885179145 L 375.83758375837584,207.67135352029655 L 376.38763876387634,208.26680657677846 L 377.08770877087704,209.4293577822908 L 377.8377837783778,212.40662306470034 L 376.88768876887684,214.87350001298256 L 376.6376637663766,216.20618066320398 L 376.5376537653765,218.33279872206796 L 376.6376637663766,218.6730576114862 L 378.1378137813781,219.89231863190153 L 378.4378437843784,220.77132076289865 L 379.2379237923792,221.59361307899272 L 378.9378937893789,222.4442603025383 L 378.08780878087805,223.66352132295364 L 378.18781878187815,224.3156841943386 L 378.037803780378,224.68429799120835 L 377.7377737773777,224.882782343369 L 375.4875487548755,225.56330012220548 L 374.93749374937494,225.56330012220548 L 373.83738373837383,225.10962160298115 L 369.7369736973697,225.27975104769027 L 368.68686868686865,225.9319139190752 L 368.9368936893689,226.21546299359042 L 367.48674867486744,226.7825611426208 L 365.93659365936594,227.15117493949057 L 363.5863586358636,227.23623966184513 L 363.2863286328633,227.4914338289088 L 362.6362636263626,227.57649855126337 L 362.7362736273627,226.9243356798784 L 362.5362536253625,227.37801419910272 L 362.1362136213621,227.54814364381184 L 361.68616861686166,228.31372614500287 L 360.68606860686066,228.76740466422717 L 360.78607860786076,229.84489114738494 L 361.08610861086106,229.41956753561215 L 361.28612861286126,230.29856966660924 L 360.88608860886086,230.69553837093054 L 360.78607860786076,231.34770124231548 L 361.036103610361,231.88644448389434 L 360.7360736073607,232.08492883605498 L 359.3359335933593,232.3968328180217 L 358.28582858285824,232.90722115214905 L 356.1856185618562,233.559384023534 L 355.5855585558556,233.61609383843705 L 354.3854385438544,234.46674106198265 L 352.8352835283528,234.66522541414326 L 352.3352335233523,235.2890333780767 L 352.035203520352,235.26067847062518 L 351.8351835183518,235.03383921101303 L 349.88498849884985,234.80699995140088 L 349.08490849084905,234.94877448865847 L 348.4348434843484,235.31738828552824 L 347.5847584758476,235.17561374827062 L 345.73457345734573,233.64444874588855 L 344.5844584458446,233.4176094862764 L 342.4342434243424,233.4176094862764 L 340.18401840184015,232.02821902115195 L 338.0838083808381,231.12086198270333 L 336.4836483648365,229.8165362399334 L 335.93359335933593,229.56134207286973 L 333.68336833683367,227.09446512458751 L 332.48324832483246,224.7693627135629 L 332.58325832583256,224.42910382414468 L 332.28322832283226,222.67109956215046 L 332.6332633263326,220.572836410738 L 333.2333233323332,218.84318705619532 L 333.78337833783377,218.21937909226187 L 334.3334333433343,216.971763164395 L 334.3334333433343,215.15704908749774 L 333.9333933393339,214.02285278943697 L 333.3333333333333,212.8035917690216 L 330.78307830783075,209.54277741209685 L 329.58295829582954,208.63542037364823 L 326.6826682668267,207.21767500107225 L 325.3825382538254,206.9908357414601 L 324.58245824582457,207.0191906489116 L 323.38233823382336,207.3027397234268 L 322.08220822082205,208.1533869469724 L 320.9320932093209,208.63542037364823 L 320.18201820182014,209.4293577822908 L 317.981798179818,211.07394241447892 L 316.93169316931693,212.23649361999122 L 315.2315231523152,213.00207612118226 L 314.2314231423142,213.25727028824593 L 313.7313731373137,213.88107825217938 L 310.28102810281024,215.01527455024015 L 309.4809480948095,215.55401779181904 L 307.53075307530753,215.92263158868877 L 305.58055805580557,216.60314936752525 L 303.68036803680366,217.02847297929804 L 300.3300330033003,217.05682788674957 L 297.5297529752975,217.56721622087693 L 294.97949794979496,218.75812233384076 L 293.7293729372937,219.92067353935306 L 292.5292529252925,221.67867780134728 L 291.37913791379134,224.85442743591747 L 291.4291429142914,227.066110217136 L 290.8290829082908,227.97346725558464 L 290.67906790679064,228.56892031206655 L 289.7789778977898,229.41956753561215 L 287.3287328732873,229.9299558697395 L 285.67856785678566,229.98666568464253 L 284.8284828482848,230.46869911131836 L 283.37833783378335,230.72389327838204 L 280.72807280728074,232.85051133724602 L 279.0779077907791,233.13406041176123 L 277.27772777277727,233.7011585607916 L 275.7275727572757,233.64444874588855 L 273.37733773377335,234.83535485885238 L 271.67716771677163,234.92041958120694 L 270.8770877087709,234.43838615453112 L 268.6268626862686,233.75786837569464 L 267.77677767776777,233.7011585607916 L 264.3264326432643,234.06977235766135 L 262.3262326232623,235.0054843035615 L 259.8259825982598,236.73513365810422 L 258.4258425842584,237.3022318071346 L 259.3759375937594,236.7067787506527 L 257.97579757975797,237.0186827326194 L 257.5257525752575,237.27387689968307 L 257.4257425742574,237.55742597419828 L 256.77567756775676,237.78426523381043 z" /><g><path fill-rule="evenodd" fill="#D2EBD9" stroke="#A6A6A6" stroke-width="0.25" opacity="1" d="M 256.77567756775676,237.78426523381043 L 255.4255425542554,238.63491245735602 L 256.1256125612561,237.92603977106805 L 255.57555755575555,237.81262014126196 L 254.82548254825483,238.09616921577717 L 253.77537753775377,238.20958884558323 L 253.72537253725372,238.4647830126469 L 253.32533253325332,238.86175171696817 L 253.42534253425342,239.2020106063864 L 254.87548754875485,238.91846153187123 L 253.77537753775377,239.40049495854706 L 253.42534253425342,239.82581857031985 L 253.17531753175317,239.76910875541682 L 253.07530753075307,240.73317560876848 L 253.27532753275327,241.10178940563824 L 253.22532253225322,241.7539522770232 L 252.6252625262526,242.4911798707627 L 252.1252125212521,242.74637403782637 L 251.87518751875186,242.60459950056878 L 251.67516751675166,242.68966422292334 L 251.4251425142514,242.4628249633112 L 251.6251625162516,242.00914644408687 L 251.4251425142514,241.6405326472171 L 249.87498749874987,240.98836977583215 L 249.57495749574957,241.1868541279928 L 249.32493249324932,241.69724246212016 L 249.47494749474947,242.0375013515384 L 249.87498749874987,242.32105042605357 L 249.92499249924992,243.0582780197931 L 249.72497249724972,243.45524672411437 L 248.97489748974897,243.0866329272446 L 247.67476747674766,242.80308385272943 L 246.2246224622462,243.39853690921132 L 244.72447244724472,244.84463718923882 L 243.92439243924392,246.03554330220265 L 243.4243424342434,247.59506321203625 L 243.3243324332433,248.47406534303335 L 243.57435743574356,248.61583988029093 L 244.17441744174417,249.92016562306085 L 244.42444244424442,250.147004882673 L 245.57455745574555,250.7141030317034 L 245.87458745874585,251.11107173602468 L 246.67466746674666,251.19613645837924 L 247.1247124712471,251.99007386702178 L 248.62486248624862,252.52881710860066 L 248.87488748874887,253.49288396195232 L 249.72497249724972,253.83314285137055 L 250.27502750275025,254.65543516746465 L 251.07510751075105,255.27924313139806 L 250.97509750975095,255.70456674317086 L 251.47514751475146,256.12989035494365 L 251.5251525152515,257.03724739339225 L 252.4252425242524,257.88789461693784 L 252.37523752375236,258.51170258087126 L 253.22532253225322,259.75931850873815 L 253.67536753675367,259.90109304599576 L 253.67536753675367,260.1279323056079 L 253.17531753175317,260.4398362875746 L 252.6252625262526,261.1770638813141 L 252.77527752775276,262.8500034209538 L 253.02530253025301,263.07684268056596 L 252.57525752575256,263.190262310372 L 252.37523752375236,263.6155859221448 L 252.4252425242524,264.1259742562722 L 252.7252725272527,264.2677487935298 L 252.6252625262526,264.52294296059347 L 252.37523752375236,264.7497822202056 L 251.97519751975196,264.6930724053026 L 250.8250825082508,265.20346073942994 L 250.67506750675065,265.5720745362997 L 250.8250825082508,265.9406883331694 L 250.67506750675065,266.08246287042704 L 250.47504750475045,266.1675275927816 L 249.92499249924992,265.9690432406209 L 249.47494749474947,266.1675275927816 L 248.72487248724872,266.93311009397263 L 248.47484748474847,267.6703376877121 L 247.87478747874786,268.40756528145164 L 247.5247524752475,269.7686008391246 L 247.67476747674766,271.3848305638612 L 247.9247924792479,272.2638326948583 L 248.22482248224821,272.7175112140826 L 248.52485248524852,272.9443504736948 L 248.82488248824882,272.8592857513402 L 249.72497249724972,273.3696740854676 L 250.47504750475045,273.5398035301767 L 252.4252425242524,277.3110062212288 L 253.42534253425342,278.04823381496834 L 253.47534753475347,278.24671816712896 L 253.12531253125312,278.67204177890176 L 253.07530753075307,279.12572029812605 L 252.67526752675266,279.91965770676865 L 252.7252725272527,280.60017548560506 L 252.37523752375236,280.6568853005081 L 252.025202520252,280.37333622599294 L 251.37513751375135,280.2315616887353 L 251.3251325132513,279.8345929844141 L 249.87498749874987,278.53026724164414 L 248.52485248524852,278.303427982032 L 248.1248124812481,277.1408767765197 L 247.9247924792479,276.94239242435907 L 247.17471747174716,276.65884334984383 L 246.47464746474645,276.6871982572954 L 246.1246124612461,276.885682609456 L 245.7245724572457,277.62291020319554 L 245.47454745474545,277.2826513137773 L 244.97449744974497,277.42442585103487 L 245.17451745174517,277.79303964790466 L 245.5245524552455,277.9631690926138 L 245.77457745774575,277.9348141851622 L 245.7245724572457,277.7646847404531 L 245.97459745974595,277.67962001809855 L 246.37463746374635,278.3317828894835 L 246.07460746074605,278.7854614087078 L 245.22452245224522,279.4376242800928 L 244.92449244924492,280.0047224291232 L 244.82448244824482,280.54346567070206 L 245.22452245224522,280.9404343750233 L 245.27452745274528,280.7703049303142 L 245.3245324532453,281.02549909737786 L 245.17451745174517,281.22398344953854 L 244.47444744474447,281.28069326444154 L 244.42444244424442,281.4791776166022 L 244.87448744874487,281.70601687621433 L 245.12451245124512,281.64930706131133 L 245.17451745174517,281.4791776166022 L 245.7245724572457,281.70601687621433 L 244.57445744574457,282.3581797475993 L 243.97439743974397,282.44324446995387 L 243.72437243724372,282.69843863701755 L 243.27432743274326,282.47159937740537 L 242.2242224222422,282.67008372956604 L 241.67416741674165,282.24476011779325 L 242.024202420242,282.3298248401478 L 242.57425742574256,282.07463067308413 L 242.5242524252425,281.70601687621433 L 242.17421742174216,281.3657579867961 L 241.5241524152415,281.42246780169916 L 241.2241224122412,282.10298558053563 L 242.024202420242,282.7551484519206 L 242.024202420242,283.378956415854 L 241.2241224122412,283.4073113233055 L 240.97409740974095,283.57744076801464 L 240.12401240124012,283.4356662307571 L 239.62396239623962,283.09540734133884 L 239.27392739273927,283.1804720636934 L 238.37383738373836,282.69843863701755 L 238.07380738073806,282.7835033593721 L 237.37373737373736,282.3298248401478 L 236.17361736173615,282.3298248401478 L 235.72357235723572,281.84779141347195 L 234.62346234623462,281.39411289424766 L 234.17341734173417,280.99714418992636 L 233.6233623362336,280.11814205892927 L 232.7232723272327,279.4659791875443 L 231.5231523152315,279.35255955773823 L 230.72307230723072,279.01230066832 L 230.77307730773077,278.47355742674114 L 231.07310731073105,277.84974946280767 L 230.32303230323032,277.4811356659379 L 229.022902290229,277.25429640632575 L 228.97289728972896,277.08416696161663 L 229.47294729472947,276.6871982572954 L 229.17291729172916,275.92161575610436 L 226.8226822682268,274.3904507537223 L 226.8226822682268,273.993482049401 L 228.3228322832283,273.59651334507976 L 228.57285728572856,273.0861250109524 L 228.5228522852285,272.4339621395674 L 228.07280728072806,271.2430560266036 L 228.17281728172816,270.1372146359943 L 227.77277727772776,268.9463085230305 L 227.47274727472745,266.6212061120059 L 227.6227622762276,265.7705588884603 L 228.07280728072806,265.0333312947208 L 228.27282728272826,264.3244586084328 L 228.3228322832283,263.07684268056596 L 227.9227922792279,261.91429147505363 L 227.97279727972796,261.06364425150804 L 228.17281728172816,260.6666755471868 L 229.17291729172916,260.15628721305944 L 228.1228122812281,258.6251222106774 L 227.6227622762276,256.86711794868313 L 227.7227722772277,254.7688547972707 L 227.2227222722272,254.20175664824032 L 227.4227422742274,253.66301340666143 L 226.17261726172617,252.35868766389154 L 223.8223822382238,251.11107173602468 L 223.1223122312231,249.1262282144183 L 222.022202220222,248.78596932500005 L 220.97209720972097,247.65177302693928 L 220.67206720672067,245.46844515317227 L 220.82208220822082,244.44766848491756 L 221.32213221322132,242.9165034825355 L 222.7222722272227,240.30785199699568 L 222.7222722272227,238.83339680951667 L 222.87228722872285,238.32300847538932 L 223.07230723072306,238.06781430832564 L 224.17241724172416,237.81262014126196 L 225.32253225322532,237.0186827326194 L 226.12261226122612,236.8769081953618 L 227.87278727872786,234.09812726511288 L 228.27282728272826,230.8089580007366 L 234.62346234623462,226.1871080861389 L 238.97389738973897,206.62222194459034 L 240.97409740974095,207.67135352029655 L 242.1242124212421,207.92654768736023 L 244.97449744974497,211.83952491566995 L 245.57455745574555,213.03043102863379 L 245.67456745674565,213.79601352982482 L 245.4245424542454,214.90185492043406 L 245.47454745474545,215.49730797691598 L 244.22442244224422,219.18344594561353 L 244.32443244324432,219.89231863190153 L 245.6245624562456,221.8488072460564 L 246.1246124612461,222.21742104292613 L 247.1247124712471,222.18906613547463 L 247.6247624762476,222.38755048763525 L 248.1248124812481,223.18148789627782 L 248.52485248524852,223.52174678569605 L 248.72487248724872,224.71265289865988 L 248.92489248924892,224.93949215827203 L 249.42494249424942,224.7693627135629 L 250.2250225022502,225.25139614023874 L 251.1251125112511,226.66914151281472 L 256.2256225622562,229.1076635536454 L 257.17571757175716,229.8165362399334 L 257.3257325732573,230.15679512935165 L 257.27572757275726,230.61047364857598 L 256.27562756275626,231.99986411370043 L 256.4256425642564,233.7011585607916 L 256.3256325632563,234.80699995140088 L 256.77567756775676,237.78426523381043 z" /><path fill-rule="evenodd" fill="#D2EBD9" stroke="#A6A6A6" stroke-width="0.25" opacity="1" d="M 252.17521752175216,244.90134700414188 L 251.6251625162516,245.4968000606238 L 251.3251325132513,245.29831570846315 L 250.2250225022502,245.4968000606238 L 249.87498749874987,245.35502552336618 L 249.92499249924992,243.54031144646893 L 250.1250125012501,243.37018200175982 L 250.5250525052505,243.73879579862955 L 250.67506750675065,243.68208598372652 L 251.1251125112511,243.25676237195373 L 251.07510751075105,242.888148575084 L 251.2251225122512,242.71801913037487 L 251.7251725172517,243.68208598372652 L 251.87518751875186,243.71044089117805 L 251.87518751875186,243.3418270943083 L 251.97519751975196,243.7955056135326 L 252.77527752775276,244.44766848491756 L 252.17521752175216,244.90134700414188 z" /><path fill-rule="evenodd" fill="#D2EBD9" stroke="#A6A6A6" stroke-width="0.25" opacity="1" d="M 251.9251925192519,253.748078129016 L 252.7252725272527,253.35110942469473 L 253.22532253225322,253.77643303646752 L 253.17531753175317,253.9182075737251 L 252.1252125212521,253.9182075737251 L 251.9251925192519,253.748078129016 z" /><path fill-rule="evenodd" fill="#D2EBD9" stroke="#A6A6A6" stroke-width="0.25" opacity="1" d="M 254.62546254625462,255.02404896433438 L 254.72547254725472,255.27924313139806 L 254.97549754975495,255.36430785375262 L 254.52545254525452,255.59114711336477 L 254.17541754175417,255.10911368668894 L 254.22542254225422,254.7404998898192 L 253.77537753775377,254.85391951962526 L 253.77537753775377,254.54201553765856 L 253.32533253325332,254.00327229607967 L 253.42534253425342,253.83314285137055 L 254.9254925492549,254.54201553765856 L 254.97549754975495,254.68379007491615 L 254.62546254625462,255.02404896433438 z" /></g><g><path fill-rule="evenodd" fill="#D2EBD9" stroke="#A6A6A6" stroke-width="0.25" opacity="1" d="M 368.7368736873687,100.2629640939401 L 368.78687868786875,64.67755524228293 L 368.68686868686865,64.39400616776773 L 368.4368436843684,64.39400616776773 L 367.38673867386734,64.7626199646375 L 365.2865286528653,64.93274940934661 L 363.4863486348635,64.36565126031621 L 362.8362836283628,64.30894144541317 L 361.4361436143614,64.59249051992838 L 360.78607860786076,64.50742579757382 L 359.1359135913591,63.00461570264327 L 359.035903590359,62.72106662812807 L 359.1359135913591,62.43751755361288 L 359.7359735973597,61.44509579280969 L 359.58595859585955,59.82886606807307 L 359.18591859185915,59.09163847433356 L 358.58585858585855,58.77973449236684 L 357.58575857585754,57.78731273156365 L 357.38573857385734,57.021730230372626 L 356.8856885688569,56.62476152605135 L 357.03570357035704,55.06524161621777 L 355.13551355135513,54.52649837463889 L 354.3854385438544,54.04446494796306 L 354.2354235423542,53.73256096599634 L 354.7854785478548,53.05204318715987 L 355.03550355035503,51.889491981647566 L 354.7854785478548,51.691007629486926 L 354.73547354735473,51.35074874006869 L 354.93549354935493,51.01048985065046 L 355.73557355735574,50.72694077613526 L 355.8855885588559,49.98971318239575 L 352.88528852885287,48.28841873530457 L 351.6351635163516,46.67218901056795 L 351.98519851985196,46.190155583892114 L 351.98519851985196,45.70812215721628 L 352.18521852185216,45.36786326779804 L 352.7352735273527,44.82912002621917 L 352.9352935293529,43.75163354306142 L 353.4353435343534,42.92934122696735 L 353.38533853385337,42.5607274300976 L 352.2352235223522,41.256401687327696 L 350.6350635063506,40.37739955633059 L 349.6349634963496,38.59104038688485 L 349.28492849284925,37.626973533533175 L 349.88498849884985,36.49277723547239 L 350.38503850385035,36.15251834605416 L 351.1351135113511,36.0674536236996 L 351.9351935193519,36.23758306840872 L 352.28522852285226,36.43606742056935 L 352.8352835283528,37.116585199405826 L 353.9353935393539,36.35100269821479 L 354.985498549855,35.89732417899048 L 354.3354335433543,34.42286899151146 L 354.63546354635463,33.94083556483562 L 355.33553355335533,31.785862598520126 L 355.0855085508551,30.56660157810478 L 356.4856485648565,30.935215374974536 L 355.7855785578558,27.334142128631537 L 355.83558355835584,26.908818516858744 L 356.2856285628563,26.086526200764673 L 356.63566356635664,25.77462221879796 L 357.6357635763576,25.37765351447668 L 357.88578857885784,25.150814254864525 L 357.88578857885784,24.810555365446287 L 358.8358835883588,24.867265180349328 L 359.18591859185915,24.72549064309173 L 359.5359535953595,23.421164900321827 L 359.5359535953595,22.854066751291434 L 359.035903590359,21.663160638327607 L 358.7358735873587,20.131995635945547 L 359.98599859985995,18.26057174414525 L 360.9360936093609,17.580053965308775 L 362.58625862586257,15.992179148023677 L 365.73657365736574,10.746521269492542 L 365.986598659866,9.15864645220744 L 365.3865386538654,7.7692559870829765 L 365.4865486548655,7.060383300794985 L 365.73657365736574,6.748479318828269 L 365.53655365536554,5.982896817637238 L 365.63656365636564,5.415798668606845 L 364.8864886488649,4.565151445061256 L 364.1864186418642,4.451731815255177 L 363.8863886388639,3.0623413501307137 L 363.986398639864,2.6653726458094384 L 364.23642364236423,2.52359810855184 L 364.4864486448645,2.52359810855184 L 364.83648364836483,2.863856997970076 L 364.986498649865,2.863856997970076 L 365.03650365036503,2.6653726458094384 L 364.93649364936493,1.8430803297153682 L 364.2864286428643,0.9357232912667393 L 364.4864486448645,0.25520551243026746 L 364.6864686468647,0.1701407900757085 L 365.2865286528653,0.48204477204242474 L 366.43664366436644,0.19849569752722818 L 367.18671867186714,0.36862514223634607 L 368.7368736873687,0.1134309751726692 L 370.4370437043704,0.05672116026962989 L 371.08710871087106,0.7372389391061017 L 372.3372337233723,1.4744665328456126 L 373.8873887388739,1.8147254222638485 L 373.987398739874,3.033986442679194 L 374.83748374837484,4.423376907803657 L 375.0875087508751,6.436575336861553 L 375.987598759876,7.400642190213222 L 376.0876087608761,10.406262380074304 L 377.1377137713771,11.001715436556218 L 377.78777877787775,11.852362660101807 L 378.18781878187815,12.873139328356515 L 378.037803780378,13.525302199741468 L 378.48784878487845,14.489369053093135 L 379.08790879087906,14.801273035059852 L 380.03800380038,14.94304757231745 L 380.78807880788077,14.857982849962891 L 385.33853385338534,15.82204970331456 L 385.9385938593859,15.198241739381126 L 385.98859885988594,13.667076736999066 L 386.98869886988695,13.099978587968673 L 387.78877887788775,11.880717567553328 L 388.48884888488845,11.62552340048965 L 391.8891889188919,7.627481449825378 L 392.4892489248925,7.258867652955623 L 393.0893089308931,7.230512745504103 L 396.58965896589655,8.421418858467929 L 401.5901590159016,8.36470904356489 L 402.74027402740273,8.194579598855771 L 403.8903890389039,8.307999228661851 L 403.24032403240324,9.669034786334795 L 403.24032403240324,13.440237477386908 L 413.6913691369137,13.440237477386908 L 413.6913691369137,8.222934506307292 L 414.99149914991494,8.960162100046803 L 416.09160916091605,9.357130804368078 L 418.1418141814181,9.810809323592393 L 418.89188918891887,10.548036917331903 L 419.29192919291927,11.200199788716855 L 419.3419341934193,12.53288043893828 L 422.8922892289229,14.461014145641617 L 427.1427142714271,11.73894303029573 L 429.6429642964296,9.470550434174156 L 430.2930293029303,9.697389693786313 L 433.24332433243325,9.839164231043911 L 433.8433843384338,10.09435839810759 L 437.7437743774377,13.950625811514263 L 439.4939493949395,16.304083129990392 L 440.1940194019402,17.977022669630053 L 444.4444444444444,21.578095915973048 L 444.59445944594455,21.861644990488244 L 444.6444644464446,22.0884842501004 L 443.99439943994395,23.307745270515746 L 443.8443844384438,23.93155323444918 L 443.9443944394439,26.37007527527987 L 443.8443844384438,27.617691203146734 L 441.44414441444144,30.283052503589584 L 447.4447444744474,30.311407411041102 L 447.2447244724472,31.473958616553407 L 447.29472947294727,32.26789602519596 L 451.5951595159516,32.21118621029292 L 451.54515451545154,31.44560370910189 L 450.995099509951,29.68759944710767 L 450.8950895089509,27.390851943534578 L 450.44504450445044,26.596914534892026 L 451.34513451345134,19.67831711672123 L 450.94509450945094,18.742605170821083 L 453.1453145314531,17.891957947275493 L 453.89538953895385,16.956246001375344 L 457.9457945794579,13.582012014644507 L 458.3958395839584,12.4194608091322 L 458.2958295829583,11.115135066362296 L 458.4458445844584,10.604746732234943 L 457.8457845784578,9.357130804368078 L 457.5957595759576,7.428997097664741 L 457.7457745774577,7.032028393343466 L 459.2959295929593,7.032028393343466 L 459.54595459545953,9.073581729852881 L 460.64606460646064,12.220976456971563 L 461.3961396139614,13.014913865614114 L 461.3961396139614,13.496947292289947 L 461.54615461546155,13.638721829547546 L 461.5961596159616,14.432659238190096 L 461.0961096109611,16.814471464117744 L 461.1961196119612,17.15473035353598 L 462.4462446244624,19.11121896769084 L 463.8463846384638,20.046930913590987 L 465.29652965296526,18.88437970807868 L 465.49654965496546,18.629185541015005 L 465.4465446544654,18.232216836693727 L 465.8465846584658,18.657540448466523 L 466.19661966196617,18.629185541015005 L 466.39663966396637,19.167928782593876 L 467.046704670467,19.70667202417275 L 467.2967296729673,20.245415265751625 L 466.89668966896687,20.69909378497594 L 467.4967496749675,22.542162769324715 L 467.4967496749675,22.825711843839912 L 467.1467146714671,23.421164900321827 L 468.34683468346833,26.31336546037683 L 468.04680468046803,27.05059305411634 L 467.996799679968,27.787820647855852 L 468.2968296829683,28.610112963949923 L 468.7968796879688,29.007081668271198 L 469.5969596959696,29.318985650237913 L 469.8969896989699,29.71595435455919 L 469.8969896989699,30.027858336525906 L 470.4970497049705,30.48153685575022 L 470.8970897089709,31.729152783617085 L 471.2971297129713,31.984346950680763 L 471.4971497149715,32.72157454442028 L 473.2473247324732,35.6421300119268 L 473.69736973697366,35.81225945663592 L 473.79737973797376,36.294292883311755 L 476.8976897689769,36.86139103234215 L 477.4977497749775,36.66290668018151 L 477.74777477747773,36.88974593979366 L 477.8977897789779,38.27913640491813 L 477.64776477647763,38.84623455394852 L 477.997799779978,39.271558165721316 L 477.84778477847783,39.75359159239715 L 478.74787478747874,42.787566689709756 L 480.14801480148014,44.99924947092829 L 480.1980198019802,45.70812215721628 L 480.74807480748075,47.04080280743771 L 480.4980498049805,48.40183836511065 L 481.3481348134813,51.12390948045653 L 480.44804480448045,59.20505810413964 L 481.19811981198114,59.99899551278219 L 481.79817981798175,61.61522523751881 L 482.2482248224822,62.09725866419464 L 482.1482148214821,62.91955098028871 L 482.6482648264826,64.70591014973445 L 483.4483448344834,65.75504172544068 L 484.59845984598456,68.98750117491392 L 485.19851985198517,69.86650330591102 L 484.9484948494849,70.66044071455357 L 484.9484948494849,71.39766830829309 L 484.5484548454845,71.87970173496892 L 484.49844984498446,72.21996062438716 L 484.69846984698466,73.4392216448025 L 485.2485248524852,73.89290016402681 L 485.59855985598557,75.14051609189369 L 485.5485548554855,75.7359691483756 L 485.29852985298527,76.16129276014838 L 485.59855985598557,76.67168109427574 L 485.3485348534853,77.23877924330614 L 485.59855985598557,77.35219887311221 L 486.7986798679868,76.81345563153334 L 487.6987698769877,76.8985203538879 L 488.3988398839884,77.1820694284031 L 489.24892489248924,76.95523016879095 L 489.74897489748975,77.55068322527285 L 490.04900490049005,78.28791081901237 L 490.14901490149015,79.0534933202034 L 490.04900490049005,79.59223656178227 L 491.69916991699165,80.0742699884581 L 492.049204920492,80.27275434061875 L 492.4492449244924,80.98162702690674 L 492.79927992799276,81.15175647161585 L 493.2493249324932,80.83985248964913 L 493.6493649364936,80.81149758219762 L 494.69946994699467,81.74720952809777 L 495.1495149514951,81.8039193430008 L 495.2495249524952,81.18011137906737 L 495.5495549554955,81.29353100887344 L 495.6995699569957,81.8039193430008 L 495.999599959996,81.88898406535536 L 496.44964496449643,81.57708008338865 L 496.6996699669967,81.60543499084017 L 496.84968496849683,81.74720952809777 L 496.8996899689969,82.31430767712816 L 497.4997499749975,82.68292147399791 L 497.8997899789979,83.2216647155768 L 498.6998699869987,85.03637879247404 L 500.0,86.1138652756318 L 499.84998499849985,86.79438305446827 L 499.2999299929993,87.2764164811441 L 499.44994499449945,86.87944777682281 L 499.1999199919992,86.76602814701674 L 498.999899989999,87.4181910184017 L 498.84988498849884,87.30477138859561 L 498.44984498449844,87.4181910184017 L 498.54985498549854,87.53161064820777 L 498.0998099809981,88.18377351959272 L 497.94979497949794,87.87186953762601 L 496.94969496949693,88.18377351959272 L 496.54965496549653,88.12706370468969 L 496.94969496949693,88.24048333449576 L 497.34973497349733,88.97771092823528 L 496.84968496849683,88.7225167611716 L 496.7996799679968,88.38225787175337 L 495.9495949594959,88.4389676866564 L 495.4995499549955,88.83593639097768 L 495.2495249524952,89.34632472510503 L 495.6495649564956,89.97013268903846 L 494.89948994899487,90.42381120826278 L 493.89938993899386,91.6147173212266 L 492.89928992899286,91.8982663957418 L 492.6492649264926,92.12510565535396 L 492.39923992399235,92.01168602554787 L 492.49924992499245,92.38029982241764 L 492.2492249224922,92.77726852673891 L 491.69916991699165,92.89068815654498 L 491.6491649164916,93.08917250870563 L 490.44904490449045,92.83397834164195 L 489.4989498949895,94.22336880676642 L 488.7988798879888,96.49176140288799 L 488.84888488848884,96.74695556995167 L 488.5988598859886,97.05885955191837 L 488.14881488148814,100.06447974177946 L 487.7987798779878,100.94348187277657 L 487.74877487748773,101.90754872612824 L 487.998799879988,102.38958215280408 L 487.998799879988,103.01339011673751 L 487.2987298729873,105.168363083053 L 487.5987598759876,106.64281827053202 L 487.1987198719872,108.40082253252625 L 487.1987198719872,109.36488938587792 L 487.5987598759876,109.53501883058703 L 487.64876487648763,110.47073077648717 L 487.0987098709871,112.20038013102987 L 486.9486948694869,114.07180402283018 L 486.3986398639864,115.03587087618185 L 486.6486648664866,115.34777485814855 L 486.6986698669867,116.02829263698503 L 486.4986498649865,116.1417122667911 L 486.5486548654865,116.62374569346694 L 486.6986698669867,116.79387513817606 L 486.9486948694869,116.73716532327302 L 487.04870487048703,116.05664754443654 L 487.1987198719872,116.1417122667911 L 487.64876487648763,115.85816319227591 L 488.04880488048803,115.14929050598792 L 487.2987298729873,115.57461411776072 L 487.84878487848783,114.69561198676361 L 488.34883488348834,114.8373865240212 L 488.3988398839884,115.17764541343944 L 487.3987398739874,116.5670358785639 L 486.6486648664866,117.30426347230342 L 485.4485448544854,119.11897754920068 L 484.59845984598456,120.90533671864641 L 484.69846984698466,121.16053088571009 L 484.4484448444844,123.65576274144382 L 484.1484148414841,123.93931181595902 L 484.5484548454845,124.0810863532166 L 484.5484548454845,124.25121579792572 L 459.44594459445943,124.22286089047421 L 458.6958695869587,122.0395330167072 L 454.69546954695466,121.47243486767681 L 451.34513451345134,124.22286089047421 L 435.6435643564356,124.22286089047421 L 436.1436143614361,125.72567098540475 L 436.09360936093606,126.17934950462907 L 435.7435743574357,126.46289857914427 L 435.19351935193515,126.34947894933819 L 434.99349934993495,126.09428478227451 L 433.99339933993394,124.22286089047421 L 377.7377737773777,124.22286089047421 L 377.7377737773777,105.05494345324692 L 368.7368736873687,104.99823363834388 L 368.7368736873687,100.2629640939401 z" /><path fill-rule="evenodd" fill="#D2EBD9" stroke="#A6A6A6" stroke-width="0.25" opacity="1" d="M 487.998799879988,113.2495117067361 L 487.7987798779878,112.73912337260874 L 487.8987898789879,112.22873503848139 L 488.14881488148814,113.02267244712395 L 487.998799879988,113.2495117067361 z" /></g><path fill-rule="evenodd" fill="#D2EBD9" stroke="#A6A6A6" stroke-width="0.25" opacity="1" d="M 75.6075607560756,176.48095532362493 L 110.26102610261026,153.59854501024859 L 137.86378637863785,133.8918843314424 L 163.81638163816382,115.60296902521223 L 164.11641164116412,114.80903161656968 L 163.81638163816382,112.68241355770571 L 163.86638663866387,112.11531540867531 L 165.16651665166515,112.0869605012238 L 165.76657665766575,111.34973290748428 L 167.5167516751675,110.7826347584539 L 168.26682668266827,110.04540716471438 L 168.31683168316832,108.99627558900815 L 169.46694669466945,107.97549892075345 L 170.3170317031703,107.7770145685928 L 170.5170517051705,107.26662623446545 L 171.06710671067106,107.49346549407761 L 171.96719671967196,107.09649678975634 L 173.11731173117312,107.72030475368977 L 174.3174317431743,106.78459280778962 L 175.06750675067505,105.59368669482579 L 176.06760676067606,105.19671799050452 L 179.96799679967995,104.48784530421653 L 182.21822182218222,103.35364900615575 L 182.36823682368237,103.09845483909207 L 182.21822182218222,100.80170733551897 L 182.76827682768277,99.21383251823387 L 182.71827182718272,99.01534816607324 L 182.16821682168217,98.61837946175196 L 182.01820182018201,97.93786168291548 L 181.7181718171817,97.65431260840029 L 181.36813681368136,96.83202029230623 L 181.66816681668166,96.43505158798494 L 183.4183418341834,95.30085528992416 L 205.5205520552055,99.80928557471579 L 220.67206720672067,113.41964115144522 L 260.92609260926093,139.052477487619 L 257.1257125712571,146.7083024995293 L 249.52495249524952,149.26024417016606 L 246.97469746974696,148.437951854072 L 245.4245424542454,149.62885796703583 L 245.02450245024502,151.1600229694179 L 243.67436743674367,151.95396037806043 L 243.57435743574356,152.2091545451241 L 243.47434743474346,156.29226121814295 L 243.3243324332433,156.91606918207637 L 237.87378737873786,164.71366873124427 L 237.67376737673766,165.28076688027468 L 238.5238523852385,166.58509262304457 L 238.6238623862386,167.09548095717193 L 241.97419741974196,168.82513031171464 L 242.3242324232423,170.12945605448454 L 242.2242224222422,170.9517483705786 L 242.47424742474246,172.02923485373634 L 241.77417741774175,172.62468791021826 L 240.77407740774075,176.53766513852798 L 241.07410741074105,177.8703457887494 L 241.67416741674165,178.720993012295 L 241.4241424142414,179.37315588367994 L 242.024202420242,179.85518931035577 L 242.67426742674266,181.8967426468652 L 242.67426742674266,182.37877607354102 L 241.27412741274125,186.43352783910834 L 241.9241924192419,191.73589553254251 L 241.9241924192419,193.69238414669738 L 241.7241724172417,195.25190405653095 L 240.27402740274027,200.18565795309536 L 239.22392239223922,202.19885638215328 L 236.87368736873685,205.45967073907804 L 238.97389738973897,206.62222194459034 L 234.62346234623462,226.1871080861389 L 228.27282728272826,230.8089580007366 L 227.87278727872786,234.09812726511288 L 226.12261226122612,236.8769081953618 L 225.32253225322532,237.0186827326194 L 224.17241724172416,237.81262014126196 L 223.07230723072306,238.06781430832564 L 222.87228722872285,238.32300847538932 L 222.7222722272227,238.83339680951667 L 222.7222722272227,240.30785199699568 L 221.32213221322132,242.9165034825355 L 220.82208220822082,244.44766848491756 L 220.67206720672067,245.46844515317227 L 220.97209720972097,247.65177302693928 L 222.022202220222,248.78596932500005 L 223.1223122312231,249.1262282144183 L 223.8223822382238,251.11107173602468 L 226.17261726172617,252.35868766389154 L 227.4227422742274,253.66301340666143 L 227.2227222722272,254.20175664824032 L 227.7227722772277,254.7688547972707 L 227.6227622762276,256.86711794868313 L 228.1228122812281,258.6251222106774 L 229.17291729172916,260.15628721305944 L 228.17281728172816,260.6666755471868 L 227.97279727972796,261.06364425150804 L 227.9227922792279,261.91429147505363 L 228.3228322832283,263.07684268056596 L 228.27282728272826,264.3244586084328 L 228.07280728072806,265.0333312947208 L 227.6227622762276,265.7705588884603 L 227.47274727472745,266.6212061120059 L 227.77277727772776,268.9463085230305 L 228.17281728172816,270.1372146359943 L 228.07280728072806,271.2430560266036 L 228.5228522852285,272.4339621395674 L 228.57285728572856,273.0861250109524 L 228.3228322832283,273.59651334507976 L 226.8226822682268,273.993482049401 L 226.8226822682268,274.3904507537223 L 229.17291729172916,275.92161575610436 L 229.47294729472947,276.6871982572954 L 228.97289728972896,277.08416696161663 L 229.022902290229,277.25429640632575 L 230.32303230323032,277.4811356659379 L 231.07310731073105,277.84974946280767 L 230.77307730773077,278.47355742674114 L 230.72307230723072,279.01230066832 L 229.47294729472947,278.5869770565472 L 228.5228522852285,278.8705261310624 L 227.9227922792279,278.8705261310624 L 227.4227422742274,279.2107850204806 L 225.77257725772577,278.303427982032 L 224.5224522452245,277.9915240000653 L 223.27232723272326,278.4452025192896 L 223.47234723472346,278.7854614087078 L 223.27232723272326,278.92723594596544 L 223.5223522352235,279.6077537248019 L 223.27232723272326,279.35255955773823 L 222.7222722272227,279.2674948353837 L 222.4222422242224,279.55104390989885 L 221.6221622162216,279.55104390989885 L 220.72207220722072,280.3166264110899 L 220.42204220422042,280.1748518738323 L 219.97199719971997,280.2599165961868 L 219.77197719771976,280.6285303930566 L 219.37193719371936,280.4584009483475 L 218.97189718971896,280.6285303930566 L 218.8218821882188,280.4584009483475 L 218.27182718271825,280.6852402079596 L 217.97179717971795,280.54346567070206 L 218.67186718671866,279.7495282620595 L 218.4218421842184,279.32420465028673 L 217.77177717771775,278.7287515938048 L 217.17171717171715,278.8705261310624 L 215.87158715871587,278.4452025192896 L 215.27152715271527,278.5869770565472 L 215.27152715271527,278.7854614087078 L 214.87148714871486,279.12572029812605 L 212.77127712771275,279.38091446518973 L 212.27122712271225,280.3449813185414 L 211.87118711871187,280.6285303930566 L 211.12111211121112,280.7419500228627 L 210.42104210421041,280.4584009483475 L 209.8209820982098,279.97636752167165 L 209.67096709670966,279.06901048322305 L 209.1209120912091,278.5869770565472 L 207.7207720772077,278.04823381496834 L 206.17061706170617,277.7079749255501 L 204.97049704970496,277.82139455535616 L 203.7203720372037,277.1408767765197 L 203.3203320332033,276.4320040902317 L 202.57025702570255,275.94997066355586 L 201.12011201120112,275.6947764964922 L 200.5200520052005,275.77984121884674 L 199.2199219921992,276.5170688125863 L 199.3199319931993,277.22594149887425 L 198.8198819881988,277.3110062212288 L 197.96979697969795,277.8781043702592 L 196.31963196319631,278.5586221490957 L 194.36943694369435,278.3884927043866 L 193.36933693369335,278.70039668635326 L 192.16921692169217,278.5586221490957 L 191.76917691769177,278.70039668635326 L 191.3191319131913,278.47355742674114 L 190.86908690869086,278.6153319639987 L 190.36903690369036,278.3884927043866 L 189.76897689768975,278.53026724164414 L 189.1189118911891,278.47355742674114 L 188.26882688268824,278.7571065012563 L 187.11871187118712,278.47355742674114 L 186.26862686268626,277.7079749255501 L 184.76847684768475,277.19758659142275 L 183.5183518351835,277.22594149887425 L 182.46824682468247,277.594555295744 L 182.41824182418242,277.1125218690682 L 182.06820682068206,276.80061788710145 L 181.36813681368136,276.9140375169075 L 180.56805680568056,277.5662003882925 L 179.86798679867985,277.537845480841 L 179.3179317931793,277.1692316839712 L 178.56785678567857,276.23351973807104 L 176.86768676867686,275.1560332549133 L 175.46754675467545,275.09932344001027 L 175.1175117511751,275.1843881623648 L 174.8174817481748,275.5813568666861 L 174.4174417441744,275.6380666815891 L 172.017201720172,274.87248418039815 L 169.3169316931693,274.7874194580436 L 168.91689168916892,274.61729001333447 L 166.56665666566656,274.3904507537223 L 165.6165616561656,274.5889351058829 L 164.86648664866485,274.2486762164647 L 164.11641164116412,274.2203213090132 L 163.56635663566357,273.936772234498 L 162.9162916291629,273.936772234498 L 162.016201620162,273.5681584376282 L 161.8161816181618,273.17118973330696 L 161.26612661266125,272.7175112140826 L 160.26602660266025,272.2921876023098 L 159.31593159315932,272.17876797250375 L 157.56575657565756,271.0162167669914 L 156.6156615661566,270.8177324148308 L 156.4156415641564,270.27898917325194 L 155.46554655465545,269.82531065402765 L 154.61546154615462,269.03137324538505 L 154.56545654565457,268.6344045410638 L 153.81538153815382,267.0181748163272 L 153.16531653165316,266.4510766672968 L 152.2152215221522,266.1958825002331 L 150.96509650965095,266.6212061120059 L 150.76507650765075,266.9047551865211 L 150.8150815081508,267.15994935358475 L 150.4150415041504,267.500208243003 L 149.66496649664967,267.2166591684878 L 149.26492649264927,267.33007879829387 L 148.76487648764876,265.9973981480725 L 148.3148314831483,265.9973981480725 L 148.2148214821482,265.68549416610574 L 147.9147914791479,265.4586549064936 L 147.3147314731473,265.43029999904206 L 147.1147114711471,265.68549416610574 L 146.3146314631463,266.025753055524 L 145.56455645564554,265.37359018413906 L 145.01450145014502,265.43029999904206 L 144.16441644164416,264.94826657236626 L 143.2143214321432,263.89913499666 L 142.8142814281428,263.7290055519509 L 142.16421642164215,261.80087184524757 L 141.9141914191419,261.51732277073233 L 141.014101410141,260.8935148067989 L 139.96399639963997,260.75174026954136 L 138.7138713871387,259.5608341565775 L 138.16381638163816,259.36234980441685 L 137.7137713771377,258.93702619264405 L 137.3137313731373,258.90867128519255 L 135.96359635963594,258.31321822871064 L 135.11351135113512,258.31321822871064 L 134.16341634163416,258.5967673032258 L 133.56335633563356,258.48334767341976 L 133.56335633563356,258.05802406164696 L 133.8133813381338,257.5476357275196 L 135.01350135013502,256.7253434114255 L 135.41354135413542,256.696988503974 L 135.76357635763574,256.01647072513754 L 137.6137613761376,254.68379007491615 L 136.7136713671367,253.09591525763105 L 137.8137813781378,251.99007386702178 L 138.2138213821382,251.81994442231266 L 137.26372637263725,250.65739321680036 L 137.86378637863785,249.75003617835173 L 138.5138513851385,247.62341811948775 L 138.06380638063806,245.01476663394794 L 138.2138213821382,244.0506997805963 L 137.86378637863785,243.39853690921132 L 138.013801380138,243.14334274214764 L 138.6138613861386,242.7747289452779 L 139.06390639063906,241.44204829505648 L 138.4138413841384,239.82581857031985 L 138.4138413841384,238.7483320871621 L 139.4139413941394,237.04703764007093 L 140.06400640064007,236.50829439849204 L 140.06400640064007,235.68600208239798 L 139.51395139513951,235.14725884081912 L 140.76407640764074,233.1057055043097 L 141.6141614161416,232.62367207763387 L 144.26442644264426,230.46869911131836 L 143.4143414341434,229.6464067952243 L 142.56425642564255,229.39121262816062 L 142.2142214221422,228.62563012696958 L 142.06420642064205,227.3496592916512 L 141.76417641764175,226.98104549478145 L 141.8141814181418,226.81091605007234 L 142.66426642664266,226.8959807724269 L 142.8142814281428,226.52736697555713 L 142.66426642664266,226.1587531786874 L 130.91309130913092,226.6124316979117 L 129.3129312931293,226.1587531786874 L 127.66276627662765,226.01697864142977 L 127.16271627162716,225.7334295669146 L 128.16281628162815,223.03971335902023 L 126.56265626562656,222.81287409940805 L 124.61246124612461,222.21742104292613 L 122.01220122012201,221.76374252370184 L 121.26212621262125,221.82045233860487 L 120.66206620662065,221.48019344918663 L 120.56205620562055,218.78647724129226 L 119.86198619861986,218.72976742638923 L 119.26192619261926,218.21937909226187 L 119.3119311931193,217.2269573314587 L 119.011901190119,216.46137483026766 L 119.3119311931193,216.17782575575245 L 120.01200120012001,216.54643955262222 L 120.56205620562055,215.8375668663342 L 121.012101210121,215.58237269927054 L 121.1121112111211,215.01527455024015 L 121.6121612161216,214.22133714159762 L 120.66206620662065,212.97372121373073 L 120.8120812081208,211.6410405635093 L 119.1119111911191,210.7620384325122 L 117.61176117611761,210.39342463564245 L 116.2116211621162,210.33671482073942 L 115.16151615161516,210.0531657462242 L 114.26142614261425,209.54277741209685 L 113.26132613261325,208.21009676187543 L 112.011201120112,207.18932009362072 L 109.76097609760976,206.11183361046298 L 107.06070607060705,204.01357045905053 L 106.16061606160615,203.07785851315037 L 105.56055605560556,201.83024258528351 L 103.8103810381038,199.30665582209826 L 102.91029102910291,199.02310674758306 L 102.16021602160215,199.30665582209826 L 101.86018601860185,200.24236776799842 L 99.65996599659965,199.90210887858018 L 95.95959595959596,199.7603343413226 L 94.65946594659465,199.39172054445282 L 93.40934093409341,199.24994600719523 L 92.65926592659265,198.5127184134557 L 91.05910591059106,199.16488128484067 L 89.35893589358935,199.16488128484067 L 88.35883588358836,198.73955767306788 L 87.55875587558755,197.88891044952229 L 85.1085108510851,197.94562026442532 L 84.8084808480848,197.80384572716773 L 84.15841584158416,197.12332794833125 L 82.2082208220822,195.73393748320677 L 81.1081108110811,194.7415157224036 L 79.45794579457946,193.890868498858 L 78.25782578257825,192.98351146040937 L 77.85778577857785,192.3029936815729 L 75.9075907590759,191.1404424760606 L 75.6075607560756,190.80018358664236 L 75.6075607560756,176.48095532362493 z" /><g><path fill-rule="evenodd" fill="#D2EBD9" stroke="#A6A6A6" stroke-width="0.25" opacity="1" d="M 484.5484548454845,124.25121579792572 L 484.69846984698466,124.44970015008637 L 484.6484648464846,124.9317335767622 L 483.9483948394839,125.32870228108348 L 483.7483748374837,125.8107357077593 L 483.39833983398336,125.98086515246843 L 483.19831983198316,125.8107357077593 L 481.69816981698165,127.14341635798074 L 480.5980598059806,127.73886941446264 L 480.44804480448045,128.41938719329912 L 479.44794479447944,129.04319515723256 L 479.24792479247924,129.78042275097206 L 478.64786478647864,130.432585622357 L 477.6977697769777,130.82955432667828 L 476.4976497649765,130.9996837713874 L 475.2475247524752,131.68020155022387 L 474.6474647464746,132.4457840514149 L 474.4474447444744,133.23972146005747 L 474.1474147414741,133.32478618241203 L 474.49744974497446,132.7293331259301 L 473.69736973697366,133.66504507183026 L 473.5473547354735,134.71417664753648 L 473.2473247324732,135.33798461146992 L 469.54695469546954,131.90704080983605 L 473.2473247324732,135.33798461146992 L 472.79727972797275,136.07521220520943 L 472.59725972597255,137.66308702249452 L 472.047204720472,138.85399313545835 L 472.19721972197215,139.42109128448874 L 472.2472247224722,141.3775798986436 L 471.89718971897184,141.8029035104164 L 472.047204720472,143.2490037904439 L 472.2472247224722,143.56090777241062 L 473.047304730473,143.0788743457348 L 473.79737973797376,142.90874490102567 L 474.39743974397436,143.1072292531863 L 474.7474747474747,142.8236801786711 L 474.29742974297426,143.61761758731365 L 473.09730973097305,143.95787647673188 L 472.9472947294729,144.5249746257623 L 472.19721972197215,145.1487825896957 L 472.09720972097205,145.1487825896957 L 472.2472247224722,144.86523351518053 L 472.09720972097205,144.836878607729 L 471.4971497149715,145.60246110892004 L 470.997099709971,146.79336722188387 L 469.74697469746974,147.7007242603325 L 469.2969296929693,148.55137148387809 L 468.94689468946893,148.69314602113568 L 469.0969096909691,149.43037361487518 L 468.64686468646863,150.11089139371165 L 468.24682468246823,151.30179750667548 L 467.7467746774677,151.69876621099675 L 467.5467546754675,152.69118797179993 L 467.2467246724672,153.08815667612123 L 467.0967096709671,153.68360973260314 L 465.89658965896587,155.72516306911254 L 465.3465346534653,157.11455353423702 L 464.79647964796476,157.88013603542805 L 464.3464346434643,159.29788140800403 L 463.59635963596355,160.8290464103861 L 461.6961696169617,163.60782734063503 L 458.7958795879588,169.70413244271174 L 458.1458145814581,170.12945605448454 L 458.045804580458,170.41300512899974 L 458.2458245824582,171.03681309293316 L 458.1958195819582,171.91581522393028 L 458.2958295829583,172.0859446686394 L 458.64586458645863,171.9725250388333 L 458.64586458645863,172.56797809531523 L 458.1458145814581,173.05001152199105 L 457.7457745774577,173.90065874553665 L 457.7957795779578,174.21256272750335 L 457.19571957195717,174.8363706914368 L 457.09570957095707,175.4318237479187 L 457.2457245724572,175.5735982851763 L 457.2457245724572,176.05563171185216 L 455.89558955895586,177.04805347265534 L 455.39553955395536,178.6075733824889 L 454.69546954695466,179.0328969942617 L 454.79547954795476,179.37315588367994 L 454.1454145414541,180.13873838487098 L 454.4454445444544,180.45064236683768 L 454.59545954595455,180.4789972742892 L 454.69546954695466,180.28051292212857 L 454.69546954695466,180.4789972742892 L 454.99549954995496,180.13873838487098 L 454.89548954895486,180.45064236683768 L 454.5454545454545,180.7341914413529 L 454.69546954695466,181.30128959038328 L 454.39543954395435,181.21622486802872 L 453.9453945394539,181.92509755431672 L 454.09540954095405,182.15193681392887 L 454.99549954995496,181.61319357234999 L 454.69546954695466,182.66232514805623 L 454.29542954295425,183.31448801944117 L 453.6453645364536,183.88158616847156 L 452.79527952795274,184.25019996534132 L 452.7452745274527,184.59045885475956 L 451.94519451945195,185.18591191124148 L 451.8951895189519,185.49781589320818 L 451.5951595159516,185.6679453379173 L 450.84508450845084,186.66036709872049 L 450.4950495049505,187.48265941481458 L 450.0950095009501,187.79456339678129 L 449.74497449744973,188.7019204352299 L 448.5448544854485,189.63763238113006 L 447.99479947994797,191.65083081018795 L 447.4447444744474,191.93437988470316 L 446.3446344634463,193.66402923924585 L 446.3446344634463,194.51467646279144 L 446.6446644664466,194.85493535220968 L 446.6446644664466,195.08177461182183 L 446.044604460446,197.52029665265252 L 445.49454945494546,198.28587915384355 L 444.19441944194415,199.3350107295498 L 443.7443744374437,200.04388341583777 L 444.2444244424442,201.48998369586528 L 445.29452945294526,202.87937416098973 L 445.09450945094505,202.90772906844126 L 444.89448944894485,203.19127814295646 L 444.99449944994495,203.5315370323747 L 445.3445344534453,203.8434410143414 L 445.69456945694566,203.8434410143414 L 445.8445844584458,203.64495666218076 L 445.8445844584458,203.78673119943838 L 445.7445744574457,203.92850573669597 L 445.7445744574457,204.0986351814051 L 445.89458945894586,204.35382934846876 L 445.89458945894586,204.07028027395356 L 445.8445844584458,204.07028027395356 L 445.7445744574457,204.01357045905053 L 445.89458945894586,203.8434410143414 L 445.89458945894586,203.78673119943838 L 445.99459945994596,203.75837629198685 L 445.89458945894586,203.70166647708382 L 445.99459945994596,203.61660175472926 L 445.8445844584458,203.50318212492317 L 446.3446344634463,202.93608397589279 L 446.3446344634463,202.65253490137758 L 446.1446144614461,202.42569564176543 L 446.59465946594656,202.05708184489566 L 446.9446944694469,201.48998369586528 L 446.8446844684468,200.1005932307408 L 447.1447144714471,199.90210887858018 L 447.2447244724472,199.47678526680738 L 447.1447144714471,198.6261380432618 L 447.2447244724472,198.909687117777 L 447.3447344734473,198.909687117777 L 447.2447244724472,198.76791258051938 L 448.044804480448,198.200814431489 L 448.044804480448,197.6337162824586 L 448.2448244824482,197.18003776323428 L 448.5448544854485,196.98155341107366 L 448.7948794879488,196.3010356322372 L 449.34493449344933,196.01748655772198 L 450.2950295029503,194.9116451671127 L 450.3950395039504,194.599741185146 L 451.24512451245124,193.97593322121256 L 451.2951295129513,192.2746387741214 L 451.74517451745174,191.50905627293037 L 451.44514451445144,190.6016992344817 L 451.74517451745174,189.52421275132397 L 451.995199519952,189.35408330661485 L 451.84518451845184,189.49585784387247 L 452.04520452045205,189.60927747367853 L 452.14521452145215,189.2690185842603 L 451.995199519952,189.2690185842603 L 453.59535953595355,187.45430450736305 L 454.79547954795476,186.74543182107504 L 455.2455245524552,186.0932689496901 L 455.39553955395536,185.58288061556274 L 455.7455745574557,185.3560413559506 L 456.1456145614561,184.47703922495347 L 456.5456545654565,184.2218450578898 L 456.5456545654565,183.96665089082612 L 456.8456845684568,183.85323126102006 L 457.39573957395737,183.25777820453814 L 457.4957495749575,183.3428429268927 L 457.5957595759576,183.0592938523775 L 457.7957795779578,183.14435857473205 L 458.5458545854585,182.6056153331532 L 459.14591459145913,181.84003283196216 L 460.3960396039604,181.55648375744695 L 460.996099609961,180.96103070096504 L 460.996099609961,181.38635431273784 L 460.64606460646064,181.38635431273784 L 460.5960596059606,181.61319357234999 L 460.996099609961,181.69825829470454 L 461.24612461246124,182.35042116608952 L 461.4961496149615,182.2086466288319 L 461.64616461646165,182.86080950021687 L 461.996199619962,182.94587422257143 L 462.29622962296224,183.39955274179573 L 462.59625962596255,183.4846174641503 L 462.49624962496245,183.54132727905332 L 462.6462646264626,184.27855487279285 L 462.49624962496245,184.56210394730803 L 462.7462746274627,185.55452570811124 L 462.39623962396234,186.0932689496901 L 462.3462346234623,186.97227108068722 L 462.89628962896285,188.36166154581167 L 463.39633963396335,188.90040478739056 L 463.2463246324632,189.21230876935726 L 464.29642964296426,191.22550719841516 L 464.2464246424642,192.35970349647596 L 464.49644964496446,192.52983294118508 L 464.4464446444644,193.55060960943976 L 464.8464846484648,193.80580377650344 L 464.7464746474647,195.0250647969188 L 464.89648964896486,195.6205178534007 L 465.2465246524652,195.98913165027045 L 465.29652965296526,197.12332794833125 L 466.046604660466,198.0590398942314 L 466.39663966396637,198.7962674879709 L 466.6466646664666,198.96639693268003 L 466.3466346634663,199.56184998916194 L 466.09660966096607,201.57504841821984 L 465.3465346534653,203.61660175472926 L 465.29652965296526,204.32547444101723 L 464.046404640464,207.81312805755417 L 463.39633963396335,208.49364583639064 L 463.49634963496345,209.25922833758167 L 463.2463246324632,209.57113231954838 L 462.99629962996295,211.0172325995759 L 460.4960496049605,217.99253983264973 L 459.0959095909591,217.08518279420107 L 457.39573957395737,216.40466501536463 L 455.49554955495546,215.92263158868877 L 454.19541954195415,216.03605121849486 L 453.3453345334533,216.31960029301007 L 453.3453345334533,216.12111594084942 L 453.09530953095305,216.0644061259464 L 453.19531953195315,215.89427668123727 L 452.1952195219522,215.8092119588827 L 452.5452545254525,215.75250214397965 L 452.44524452445245,215.5256628843675 L 452.04520452045205,215.75250214397965 L 451.44514451445144,215.46895306946448 L 451.6951695169517,215.32717853220686 L 450.8950895089509,215.15704908749774 L 450.995099509951,215.49730797691598 L 450.7950795079508,215.8092119588827 L 451.0951095109511,215.92263158868877 L 450.5950595059506,216.60314936752525 L 450.84508450845084,216.6882140898798 L 450.6950695069507,216.74492390478287 L 449.99499949995,216.3763101079131 L 449.54495449544953,215.8375668663342 L 449.2949294929493,215.8092119588827 L 449.99499949995,215.75250214397965 L 449.8949894989499,215.8092119588827 L 450.2950295029503,216.0927610333979 L 450.14501450145013,215.69579232907662 L 449.7949794979498,215.58237269927054 L 449.8949894989499,215.38388834710992 L 449.7949794979498,215.27046871730383 L 449.34493449344933,215.38388834710992 L 449.4949494949495,215.38388834710992 L 449.44494449444943,215.58237269927054 L 449.044904490449,215.86592177378574 L 448.9448944894489,215.75250214397965 L 449.1949194919492,215.6674374216251 L 448.8448844884488,215.5256628843675 L 448.9448944894489,215.6674374216251 L 448.7448744874487,215.75250214397965 L 447.29472947294727,215.1003392725947 L 446.99469946994697,215.1003392725947 L 447.1447144714471,215.2421138098523 L 446.69466946694666,215.2421138098523 L 448.2448244824482,215.75250214397965 L 449.044904490449,216.31960029301007 L 447.5447544754475,215.5256628843675 L 446.09460946094606,215.32717853220686 L 445.29452945294526,215.8092119588827 L 444.3444344434443,216.971763164395 L 443.79437943794375,217.2269573314587 L 443.69436943694365,217.5388613134254 L 442.5942594259426,217.79405548048908 L 442.64426442644265,217.59557112832843 L 443.2443244324432,217.48215149852237 L 443.1443144314431,217.3970867761678 L 443.39433943394334,216.77327881223437 L 443.3443344334433,216.46137483026766 L 443.09430943094304,216.46137483026766 L 443.29432943294324,216.12111594084942 L 442.84428442844285,215.78085705143118 L 442.3942394239424,216.00769631104333 L 442.34423442344234,215.8092119588827 L 442.0942094209421,215.8092119588827 L 442.04420442044204,215.5256628843675 L 441.5941594159416,215.6674374216251 L 441.8941894189419,215.38388834710992 L 441.6941694169417,215.2421138098523 L 441.4941494149415,215.38388834710992 L 441.4941494149415,215.58237269927054 L 441.14411441144114,215.58237269927054 L 441.34413441344134,215.8092119588827 L 441.1941194119412,216.17782575575245 L 440.8940894089409,216.03605121849486 L 441.14411441144114,216.74492390478287 L 440.994099409941,216.6882140898798 L 441.04410441044104,216.971763164395 L 440.7940794079408,216.88669844204045 L 440.5940594059406,217.1135377016526 L 440.04400440044003,216.6598591824283 L 440.0940094009401,216.88669844204045 L 439.84398439843983,216.8299886271374 L 439.8939893989399,216.971763164395 L 439.74397439743973,216.971763164395 L 439.8939893989399,217.02847297929804 L 439.8939893989399,217.34037696126475 L 439.6939693969397,217.02847297929804 L 439.1939193919392,217.36873186871628 L 439.1939193919392,217.56721622087693 L 438.8438843884388,217.680635850683 L 438.6938693869387,217.56721622087693 L 438.6438643864386,217.680635850683 L 438.8938893889389,217.9641849251982 L 438.8938893889389,218.44621835187402 L 439.4439443944394,218.389508536971 L 439.1939193919392,218.5596379816801 L 439.3439343934393,218.84318705619532 L 439.1939193919392,218.9849615934529 L 439.6439643964396,219.04167140835594 L 439.3939393939394,219.18344594561353 L 439.4439443944394,219.35357539032265 L 439.1439143914391,219.35357539032265 L 439.2939293929393,219.58041464993482 L 439.6439643964396,219.18344594561353 L 439.5439543954395,219.92067353935306 L 439.3439343934393,219.92067353935306 L 439.3939393939394,220.11915789151368 L 439.5439543954395,220.06244807661065 L 439.4939493949395,220.17586770641674 L 439.6439643964396,220.11915789151368 L 439.74397439743973,220.2609324287713 L 439.99399939994,220.17586770641674 L 440.6940694069407,219.29686557541962 L 440.44404440444043,219.2685106679681 L 440.6940694069407,218.84318705619532 L 442.54425442544255,217.79405548048908 L 440.94409440944094,218.89989687109835 L 440.24402440244023,220.1475127989652 L 439.94399439943993,220.31764224367433 L 439.5939593959396,220.31764224367433 L 438.49384938493847,219.75054409464394 L 436.7436743674367,219.35357539032265 L 433.7433743374337,220.77132076289865 L 432.64326432643264,221.08322474486536 L 431.54315431543154,220.82803057780168 L 432.3932393239324,220.62954622564104 L 432.94329432943294,220.11915789151368 L 432.74327432743274,220.06244807661065 L 432.84328432843284,219.86396372445 L 432.04320432043204,220.1475127989652 L 431.5931593159316,219.2685106679681 L 431.1931193119312,219.49534992758026 L 431.0931093109311,219.2401557605166 L 430.7930793079308,219.098381223259 L 429.9429942994299,219.38193029777418 L 429.5429542954295,219.1267361307105 L 429.3929392939294,218.75812233384076 L 428.8428842884288,219.098381223259 L 428.39283928392837,218.75812233384076 L 427.6427642764276,218.89989687109835 L 427.79277927792776,219.1267361307105 L 428.39283928392837,219.2401557605166 L 430.54305430543053,220.45941678093192 L 431.54315431543154,220.8563854852532 L 427.59275927592756,219.5520597424833 L 426.89268926892686,219.5520597424833 L 426.042604260426,220.03409316915912 L 426.09260926092605,219.52370483503177 L 426.3426342634263,219.35357539032265 L 426.042604260426,219.52370483503177 L 425.8425842584258,219.92067353935306 L 425.9425942594259,219.5520597424833 L 425.79257925792575,218.6730576114862 L 425.042504250425,217.87912020284364 L 424.39243924392434,217.59557112832843 L 425.49254925492545,217.5388613134254 L 425.39253925392535,217.17024751655563 L 425.19251925192515,217.48215149852237 L 425.1425142514251,217.2553122389102 L 425.042504250425,217.34037696126475 L 424.7424742474247,217.00011807184652 L 424.59245924592454,217.05682788674957 L 424.6424642464246,217.17024751655563 L 424.2424242424242,216.971763164395 L 424.042404240424,217.17024751655563 L 424.3424342434243,217.5388613134254 L 423.64236423642365,217.680635850683 L 423.3923392339234,217.87912020284364 L 423.3923392339234,218.19102418481035 L 421.84218421842183,216.8299886271374 L 421.74217421742173,216.94340825694348 L 421.5921592159216,216.85834353458893 L 421.54215421542153,216.74492390478287 L 421.74217421742173,216.6882140898798 L 421.34213421342133,216.29124538555854 L 420.7920792079208,216.2345355706555 L 420.6920692069207,215.9509864961403 L 418.3418341834183,214.24969204904912 L 415.79157915791575,213.00207612118226 L 414.04140414041404,212.88865649137617 L 412.2912291229123,213.79601352982482 L 412.0912091209121,214.24969204904912 L 409.6409640964096,215.18540399494927 L 409.040904090409,215.27046871730383 L 408.6408640864086,215.55401779181904 L 407.49074907490746,215.32717853220686 L 406.6406640664066,215.44059816201295 L 406.19061906190615,215.6674374216251 L 404.1904190419042,215.72414723652815 L 403.8903890389039,215.89427668123727 L 403.4903490349035,217.19860242400716 L 401.7901790179018,216.57479446007375 L 401.3401340134013,216.8299886271374 L 401.1401140114011,216.71656899733134 L 399.8399839983998,217.02847297929804 L 399.28992899289926,217.51050640597387 L 398.78987898789876,218.6730576114862 L 398.039803980398,218.7014125189377 L 397.88978897889785,218.5596379816801 L 396.3396339633963,218.9849615934529 L 395.5395539553955,219.4102852052257 L 394.63946394639464,219.2685106679681 L 393.63936393639364,219.69383427974088 L 390.1390139013901,220.17586770641674 L 386.58865886588654,221.16828946721992 L 385.2885288528853,221.1399345597684 L 381.48814881488147,219.9773833542561 L 380.58805880588056,220.00573826170762 L 379.6379637963796,220.2609324287713 L 379.4379437943794,220.48777168838345 L 379.2379237923792,221.59361307899272 L 378.4378437843784,220.77132076289865 L 378.1378137813781,219.89231863190153 L 376.6376637663766,218.6730576114862 L 376.5376537653765,218.33279872206796 L 376.6376637663766,216.20618066320398 L 376.88768876887684,214.87350001298256 L 377.8377837783778,212.40662306470034 L 377.08770877087704,209.4293577822908 L 376.38763876387634,208.26680657677846 L 375.83758375837584,207.67135352029655 L 375.0875087508751,206.1401885179145 L 375.0875087508751,205.7432198135932 L 376.1876187618762,203.1062134206019 L 376.13761376137614,201.71682295547743 L 376.7376737673767,200.4975619350621 L 376.68766876687664,199.10817146993762 L 377.68776877687765,196.38610035459175 L 377.7377737773777,195.79064729810983 L 377.7377737773777,124.22286089047421 L 433.99339933993394,124.22286089047421 L 434.99349934993495,126.09428478227451 L 435.19351935193515,126.34947894933819 L 435.7435743574357,126.46289857914427 L 436.09360936093606,126.17934950462907 L 436.1436143614361,125.72567098540475 L 435.6435643564356,124.22286089047421 L 451.34513451345134,124.22286089047421 L 459.44594459445943,124.22286089047421 L 484.5484548454845,124.25121579792572 z M 466.39663966396637,130.88626414158134 L 466.09660966096607,130.17739145529333 L 465.6465646564656,129.12825987958712 L 466.39663966396637,130.88626414158134 z M 464.79647964796476,127.17177126543226 L 463.19631963196315,126.83151237601402 L 459.99599959996,126.12263968972603 L 462.49624962496245,126.68973783875641 L 464.79647964796476,127.17177126543226 z" /><path fill-rule="evenodd" fill="#D2EBD9" stroke="#A6A6A6" stroke-width="0.25" opacity="1" d="M 458.2958295829583,171.49049161215748 L 458.6958695869587,170.66819929606342 L 458.64586458645863,171.12187781528772 L 458.4458445844584,171.49049161215748 L 458.2958295829583,171.49049161215748 z" /><path fill-rule="evenodd" fill="#D2EBD9" stroke="#A6A6A6" stroke-width="0.25" opacity="1" d="M 458.74587458745873,178.7493479197465 L 458.3458345834583,179.00454208681018 L 457.8957895789579,178.89112245700412 L 457.995799579958,178.66428319739194 L 458.2958295829583,178.69263810484347 L 459.14591459145913,178.12553995581308 L 458.94589458945893,178.66428319739194 L 458.74587458745873,178.7493479197465 z" /><path fill-rule="evenodd" fill="#D2EBD9" stroke="#A6A6A6" stroke-width="0.25" opacity="1" d="M 463.9463946394639,183.25777820453814 L 463.79637963796375,183.45626255669876 L 463.2463246324632,183.42790764924726 L 463.2463246324632,183.59803709395638 L 463.5463546354635,183.68310181631094 L 463.3463346334633,183.88158616847156 L 463.09630963096305,183.73981163121397 L 463.1463146314631,183.25777820453814 L 463.3463346334633,183.030938944926 L 464.2464246424642,182.9175193151199 L 463.9463946394639,183.25777820453814 z" /><path fill-rule="evenodd" fill="#D2EBD9" stroke="#A6A6A6" stroke-width="0.25" opacity="1" d="M 449.4949494949495,215.55401779181904 L 449.5949594959496,215.46895306946448 L 449.54495449544953,215.6390825141736 L 449.4949494949495,215.55401779181904 z" /><path fill-rule="evenodd" fill="#D2EBD9" stroke="#A6A6A6" stroke-width="0.25" opacity="1" d="M 453.09530953095305,216.6882140898798 L 452.14521452145215,216.971763164395 L 453.99539953995395,216.17782575575245 L 453.59535953595355,216.4897297377192 L 453.3453345334533,216.63150427497678 L 453.09530953095305,216.6882140898798 z" /><path fill-rule="evenodd" fill="#D2EBD9" stroke="#A6A6A6" stroke-width="0.25" opacity="1" d="M 450.3950395039504,217.05682788674957 L 449.0949094909491,216.2345355706555 L 450.64506450645064,217.05682788674957 L 452.04520452045205,217.02847297929804 L 450.64506450645064,217.19860242400716 L 450.3950395039504,217.05682788674957 z" /><path fill-rule="evenodd" fill="#D2EBD9" stroke="#A6A6A6" stroke-width="0.25" opacity="1" d="M 465.2465246524652,183.28613311198964 L 464.79647964796476,183.31448801944117 L 464.59645964596456,183.00258403747446 L 464.99649964996496,182.80409968531382 L 465.2465246524652,182.88916440766837 L 465.2465246524652,183.28613311198964 z" /></g></g></g></g></svg>