<svg width="125" height="117" xmlns="http://www.w3.org/2000/svg" xmlns:xlink="http://www.w3.org/1999/xlink" xml:space="preserve" overflow="hidden"><g transform="translate(-1578 -741)"><path d="M39.9587 69.9645 36.7005 69.194 34.8138 68.087 34.6424 62.9356 35.3283 62.2133 34.471 62.4542 32.9274 60.4322 29.8406 59.5657 27.0966 58.0251 26.582 56.5326 28.1256 56.0512 28.8115 56.3399 28.4684 56.003 25.0384 54.5588 21.0943 55.4735 20.0652 55.0884 19.0362 56.725 19.3793 57.9769 17.3212 57.64 15.6062 58.2656 16.1208 57.5918 16.2921 55.3771 16.9781 55.1844 17.1498 54.1256 17.6643 54.1256 17.3212 52.97 17.4926 52.3441 18.0071 52.4886 17.6643 50.1297 18.693 49.2628 16.2921 49.0223 16.1208 49.8406 15.2631 49.6001 15.4348 48.2518 14.9203 49.311 14.2344 48.7332 13.8912 49.311 13.3767 49.1187 13.5485 49.6961 11.4903 48.2036 9.77536 50.7071 9.43222 50.7553 9.08944 50.2257 9.26083 51.1885 8.57491 50.6593 8.57491 51.1407 7.54585 50.6111 7.03132 50.8998 6.51679 50.4666 6.68854 49.6001 5.31633 49.9851 5.14494 49.1187 4.45902 49.9851 3.25857 49.311 2.22951 49.5037 0 48.0113 0.17139 46.7594 2.74404 47.4817 1.88637 46.7112 2.91543 46.9521 2.57229 46.6152 3.25857 46.4707 1.54359 46.3743 1.20045 46.7594 0.857311 46.1338 1.37184 46.0374 1.20045 45.4115 1.88637 45.9893 2.57229 45.6524 2.74404 44.8337 0.34314 44.4487 2.22951 43.4376 2.22951 42.3785 4.45902 43.1489 5.14494 42.3303 6.85993 42.1379 7.37446 41.5602 8.23177 42.2339 7.88899 41.512 8.57491 41.2229 9.08944 41.9452 8.7463 40.9342 9.08944 39.7305 9.26083 39.875 9.08944 40.6933 9.94675 40.4528 10.1185 40.5491 9.94675 41.0787 10.2899 40.6933 11.3189 41.0787 11.4903 40.886 11.4903 40.7415 11.3189 40.4046 10.2899 40.4528 10.6327 39.9232 12.1763 40.3564 11.8335 40.0677 13.2053 39.9714 12.5194 39.875 13.0339 39.2491 12.1763 38.9604 12.8622 38.4308 12.3477 38.2862 13.7199 37.853 14.4058 38.3826 15.2631 38.4308 16.8067 37.5643 14.4058 38.142 14.4058 37.227 13.8912 37.0347 15.2631 36.4569 14.5772 34.4349 16.2921 32.6537 16.2921 31.8351 20.2366 30.1503 19.5507 29.1875 20.408 28.3688 19.8939 26.7318 20.7512 25.7208 19.8939 26.4431 19.3793 26.2986 19.3793 25.673 22.123 23.4583 22.6375 20.7139 23.4952 20.1365 22.9807 20.3289 23.3235 19.3178 22.2948 21.1957 22.123 22.4472 20.2366 24.5656 19.3793 17.2958 19.7221 18.4514 20.408 17.5367 19.7221 17.5849 19.3793 16.9589 18.1789 9.30406 16.2921 7.52292 17.3212 6.80061 18.5217 6.80061 18.1789 5.30818 18.693 5.16401 19.2076 5.7896 19.0362 5.35636 21.9516 4.63441 22.9807 3.28615 24.3525 3.76757 25.3816 3.43069 25.8961 2.61239 29.6689 2.61239 29.8406 3.81575 30.6979 3.71975 32.4129 2.75656 33.6133 2.80474 33.9565 1.93826 34.6424 2.3715 35.6715 2.03461 35.5001 1.21631 36.7005 0.830887 37.0433 0.108939 38.5869 0.734531 39.9587-0.035594 42.1883 1.0236 43.5605 0.734531 42.8742 1.64955 43.0459 5.50089 43.9032 6.60826 45.4468 7.08968 48.0191 9.11171 52.4781 7.5711 52.6495 7.71563 52.135 8.14887 51.9636 9.25588 52.135 9.01535 52.135 8.14887 52.6495 7.81163 52.8213 7.52292 52.8213 8.10069 53.85 8.19705 53.6786 9.11171 54.1931 8.96718 54.7077 8.3894 53.6786 8.05252 53.6786 7.47474 55.2222 7.61928 55.3936 6.56009 57.2799 6.3192 57.9662 5.35636 58.8235 5.54907 58.309 5.88596 58.6522 5.98231 60.024 5.21219 60.024 5.7896 61.0531 5.64543 62.5966 6.3192 62.768 7.0415 62.2535 7.08968 62.9394 8.00434 63.9685 8.14887 64.1399 8.919 66.5408 10.4114 66.8839 10.556 68.2558 12.9149 68.0844 13.8295 66.3694 13.4445 64.3116 14.311 63.6253 16.6702 64.8262 17.8254 64.483 18.8846 63.2826 19.2697 62.2535 20.9548 64.9976 22.014 65.3403 23.3619 64.3116 24.1324 64.3116 25.1434 63.2826 25.7208 63.2826 26.4431 64.6544 27.3578 63.7971 28.3206 63.7971 28.2724 63.7971 28.3206 63.2826 28.9947 63.2826 31.3055 62.4249 31.5464 60.7099 31.0649 60.1954 30.5354 60.5385 29.813 58.8235 28.9947 59.6812 30.5835 59.3381 31.6427 59.6812 32.6537 61.3962 33.9535 61.3962 35.4459 64.3116 37.853 64.6544 38.7676 63.7971 38.7195 64.3116 39.8268 66.5408 39.3454 67.7416 40.5973 67.2271 41.4156 67.913 43.6304 67.5698 44.8819 68.5989 46.7594 68.942 49.0223 70.4853 50.5629 70.9998 51.9108 67.913 52.5368 66.5408 53.6441 66.0266 53.0664 64.6544 53.1145 64.1399 53.9328 63.6253 53.981 63.454 53.4032 62.768 53.981 62.768 53.9328 62.768 53.981 61.9104 55.714 60.8817 56.003 60.024 56.3881 58.8235 55.9067 57.7945 56.725 56.7658 56.5326 56.7658 56.4845 56.7658 56.5326 56.0795 56.3399 55.3936 57.3991 55.3936 57.4473 55.3936 57.3991 53.5072 58.8434 52.6495 58.8916 52.8213 59.9026 52.3068 60.384 52.8213 61.8764 51.7922 61.3468 51.6208 60.4803 49.0482 60.2395 48.7054 60.6731 49.2196 61.3468 48.7054 61.8764 49.2196 62.8393 48.0191 63.5616 46.4759 63.1761 45.9614 64.6689 44.0746 65.1022 43.3887 67.3166 42.0169 66.5946 41.3309 66.8833 40.3019 67.8462 39.9587 69.9645ZM37.0433 0.830887 36.8719 0.830887 36.8719 1.11995 37.0433 1.07178 37.0433 0.830887Z" stroke="#A6A6A6" stroke-width="0.859285" stroke-miterlimit="8" fill="#D2EBD9" fill-rule="evenodd" transform="matrix(1 0 0 -1 1581.5 849.5)"/><path d="M0 0.852057 0.999672-0.149484 0 0.852057 0 0.852057Z" stroke="#A6A6A6" stroke-width="0.859285" stroke-miterlimit="8" fill="#D2EBD9" fill-rule="evenodd" transform="matrix(1 0 0 -1 1659.5 848.5)"/><path d="M0.151433 6.04411 1.06067 4.9444 0.303185 3.79685 1.36385 3.84469 0.606052 2.64965 1.81847 2.31474 1.2121 1.31072 3.33376-0.0278498 3.48519 1.1197 3.93981 1.35857 3.63663 1.78881 4.24268 2.36259 4.24268 4.32278 5.00048 5.51818 4.84905 8.62593 4.39443 8.96048 4.54586 11.7812 3.93981 11.9725 3.63663 9.48641 2.87914 9.91666 0.909236 8.7691 0.606052 7.62191 0 7.33484 0.757803 6.57004 0.151433 6.04411Z" stroke="#A6A6A6" stroke-width="0.859285" stroke-miterlimit="8" fill="#D2EBD9" fill-rule="evenodd" transform="matrix(1 0 0 -1 1654.5 856.5)"/><path d="M1.71451 1.04063 0 1.96406 1.71451-0.0363857 2.00007 0.7844 1.71451 1.04063Z" stroke="#A6A6A6" stroke-width="0.859285" stroke-miterlimit="8" fill="#D2EBD9" fill-rule="evenodd" transform="matrix(1 0 0 -1 1599.5 822.5)"/><path d="M2.00053-0.0421806 0.666844 0.958292 0 0.840537 0.444718 0.369959 2.00053-0.0421806Z" stroke="#A6A6A6" stroke-width="0.859285" stroke-miterlimit="8" fill="#D2EBD9" fill-rule="evenodd" transform="matrix(1 0 0 -1 1598.5 820.5)"/><path d="M0.333224 0.853233 0 0.053794 1.00037-0.146439 1.00037 0.254027 0.333224 0.853233Z" stroke="#A6A6A6" stroke-width="0.859285" stroke-miterlimit="8" fill="#D2EBD9" fill-rule="evenodd" transform="matrix(1 0 0 -1 1594.5 816.5)"/><path d="M0.666565 0.583586 0 0.96482 0.833118-0.0352072 1.00002 0.0597456 0.666565 0.583586Z" stroke="#A6A6A6" stroke-width="0.859285" stroke-miterlimit="8" fill="#D2EBD9" fill-rule="evenodd" transform="matrix(1 0 0 -1 1594.5 814.5)"/><path d="M0.666805 0.265086 0 0.952535 0 0.202548 1.00038-0.0471367 0.666805 0.265086Z" stroke="#A6A6A6" stroke-width="0.859285" stroke-miterlimit="8" fill="#D2EBD9" fill-rule="evenodd" transform="matrix(1 0 0 -1 1589.5 811.5)"/><path d="M1.00037 0.86771 0.333224 0.86771 0 0.200432 0.333224-0.131962 1.00037 0.86771Z" stroke="#A6A6A6" stroke-width="0.859285" stroke-miterlimit="8" fill="#D2EBD9" fill-rule="evenodd" transform="matrix(1 0 0 -1 1579.5 802.5)"/><path d="M1.00037 0.732014 0 0.231555 0.667148-0.100839 1.00037 0.231555 1.00037 0.732014 1.00037 0.898833 1.00037 0.732014Z" stroke="#A6A6A6" stroke-width="0.859285" stroke-miterlimit="8" fill="#D2EBD9" fill-rule="evenodd" transform="matrix(1 0 0 -1 1641.5 845.5)"/><path d="M43.4937 12.2705 42.4663 13.7734 41.4388 13.8704 39.2127 16.634 37.8429 17.0217 37.1581 17.8458 35.788 20.3183 36.4728 21.9667 34.932 23.0818 34.0756 24.6818 34.0756 25.4088 34.5894 25.3117 35.4457 24.0999 35.4457 24.9725 36.4728 26.0391 38.8704 26.1847 39.2127 26.9602 40.069 27.0572 41.0962 28.1238 41.6099 27.8327 42.1236 28.8023 43.6649 28.9479 46.4047 30.3056 46.0621 31.6629 47.2607 31.6629 47.6033 30.4993 48.1171 30.5478 47.9456 29.966 48.8019 29.7238 50.0006 32.3899 49.8294 35.1535 48.4593 35.9776 48.6308 37.1412 47.7745 38.3049 48.8019 40.874 48.2882 41.1166 48.4593 42.2803 47.4318 43.9768 48.1171 45.3827 45.2061 47.8556 46.9185 51.2491 45.7195 55.7093 46.0621 56.1456 44.6924 56.1941 43.4937 57.0666 44.0071 57.9877 43.3223 58.6666 43.3223 58.7636 43.4937 59.2484 43.4937 59.4425 42.98 60.0724 41.6099 59.3939 40.7539 60.6543 39.7264 61.042 39.2127 62.5934 38.3567 61.8179 37.3292 61.9635 37.5003 62.3512 36.6443 62.0116 35.9591 60.7998 35.6168 61.3816 35.9591 62.1087 38.6989 62.5449 36.6443 63.0297 36.3017 62.9331 35.2742 61.042 34.5894 60.7513 34.2471 59.3939 34.0756 60.2665 31.5073 59.4425 31.5073 59.3939 30.8224 58.4729 30.8224 58.1818 30.6509 57.6 29.4523 57.9396 29.11 58.6181 27.5688 58.0848 26.8839 58.6666 27.0551 59.3454 28.5963 60.1695 28.9386 62.1087 26.7125 61.3816 24.4867 62.642 23.4592 61.5268 23.8015 62.7875 23.4592 63.1268 21.918 62.9331 22.9455 63.7086 22.9455 64.8237 22.2606 64.8237 22.7744 65.0174 22.4317 65.8418 21.7469 65.5992 20.3768 66.5688 18.6644 66.0355 18.3222 66.5203 15.4112 66.9569 15.5823 65.4055 17.2947 63.2238 16.7809 62.4483 15.4112 62.3027 15.2397 61.9149 15.5823 61.8179 15.0686 61.7209 15.5823 60.9935 17.1236 61.4302 16.2672 59.8787 17.1236 59.8302 17.2947 58.7636 16.2672 58.8121 17.1236 57.5029 18.4933 57.4548 19.3496 56.8729 20.3768 54.8367 21.7469 54.1579 20.3768 54.6427 18.8359 57.2122 16.4387 56.8729 15.4112 57.4548 14.3837 55.6608 14.8975 54.3034 14.5548 52.655 14.3837 53.4309 14.7263 54.2064 13.6988 54.8367 13.014 54.1579 13.5277 53.8672 13.3562 53.0428 12.1576 53.5275 12.6714 54.4005 11.9865 55.7578 8.04803 55.5152 6.84942 54.6912 7.19204 54.1579 6.50681 53.7701 6.50681 52.4124 8.39065 51.9761 7.70542 52.1217 7.36316 51.4428 7.36316 48.9218 6.67829 47.7585 6.50681 45.8194 4.62332 45.7223 4.96594 45.189 4.62332 44.4616 6.16455 44.2194 6.67829 43.4435 6.50681 42.2317 4.62332 40.7288 5.30819 40.05 4.96594 39.3711 2.73984 38.5956 1.54123 39.2745 1.71236 38.7411 1.71236 38.7897 0.513743 38.5956 0.513743 37.7716 2.05497 35.3472 1.19861 33.3595 1.71236 32.681 0.68487 31.6629 0 31.7115 0.171128 31.0326 0.855998 31.1296 1.19861 30.5478 0.855998 29.1419 2.2261 27.9783 1.71236 27.3479 2.2261 26.9117 2.2261 26.9602 2.2261 26.9117 2.73984 26.8146 2.91097 25.3117 1.71236 24.5847 1.54123 23.7122 1.36974 23.2274 1.54123 23.2274 1.36974 23.2274 2.56835 21.2878 2.56835 21.3364 3.59584 20.9971 2.73984 18.0398 3.76733 17.7487 4.62332 16.0036 4.62332 15.9551 4.62332 16.0036 5.30819 15.4218 5.47968 16.0036 5.99306 15.9551 6.50681 15.1311 7.87691 15.0826 8.39065 15.6644 9.76039 14.5492 12.8425 13.9189 12.3287 12.5616 10.7879 11.0101 10.4453 8.73136 9.41777 6.8407 9.76039 5.58038 9.07552 3.35011 9.58926 2.52607 14.0411 2.47755 15.0686 2.96235 15.0686 2.96235 15.0686 2.91383 13.87 3.15605 14.8975 4.27118 15.7535 3.93194 15.7535 3.39863 18.3222 3.20456 20.2056 2.08979 21.4043 2.52607 22.4317 2.08979 22.4317 2.13831 23.1166 0.683563 23.8015 0.82911 23.6304-0.0434468 25.0001 0.82911 25.0001 2.47755 25.5138 2.04128 27.3977 2.08979 27.9114 0.974657 29.4523 0.974657 31.5073 2.57458 34.5894 2.67125 34.932 3.68936 34.932 3.73787 34.932 3.68936 36.3017 2.86532 37.8429 3.20456 37.8429 2.28349 38.6989 1.605 39.3838 1.75018 39.5553 3.10789 38.5278 3.54417 39.0416 4.70746 37.6715 6.93773 41.4388 9.16764 41.4388 10.5739 42.98 10.2343 43.4937 10.8646 43.4937 12.2705Z" stroke="#A6A6A6" stroke-width="0.859285" stroke-miterlimit="8" fill="#D2EBD9" fill-rule="evenodd" transform="matrix(1 0 0 -1 1639.5 811.5)"/><path d="M0.199871 1.5237 0.799902 1.762 0.799902 1.33342 1.39993 1.95229 1.99996 1.38072 1.99996 0.761851 0.999773 1.28576 1.20006 0.333265 0.600031-0.0480158 2.99974 0.190285 2.99974 0.761851 0.400161 2.95244 0 2.71449 0.400161 2.28591 0.400161 2.09527 0.199871 1.61902 0.199871 1.5237Z" stroke="#A6A6A6" stroke-width="0.859285" stroke-miterlimit="8" fill="#D2EBD9" fill-rule="evenodd" transform="matrix(1 0 0 -1 1682.5 754.5)"/><path d="M1.00003 0.637265 0.80011 0.910088 0 0.273502 0.600188-0.0902623 1.00003 0.637265Z" stroke="#A6A6A6" stroke-width="0.859285" stroke-miterlimit="8" fill="#D2EBD9" fill-rule="evenodd" transform="matrix(1 0 0 -1 1643.5 757.5)"/><path d="M0-0.248517 1.00003 0.252254 0.714181 0.753024 0-0.248517Z" stroke="#A6A6A6" stroke-width="0.859285" stroke-miterlimit="8" fill="#D2EBD9" fill-rule="evenodd" transform="matrix(1 0 0 -1 1645.5 756.5)"/><path d="M0 0.168064 0.285852-0.165575 1.00003 0.667278 0.428628 0.834097 0 0.168064Z" stroke="#A6A6A6" stroke-width="0.859285" stroke-miterlimit="8" fill="#D2EBD9" fill-rule="evenodd" transform="matrix(1 0 0 -1 1646.5 756.5)"/><path d="M0 0.00249295 0.500016-0.331562 1.00108-0.331562 0.500016 0.66811 0 0.00249295Z" stroke="#A6A6A6" stroke-width="0.859285" stroke-miterlimit="8" fill="#D2EBD9" fill-rule="evenodd" transform="matrix(1 0 0 -1 1647.5 756.5)"/><path d="M0 0.00186855 0.499836-0.248517 1.00072 0.252254 0 0.751155 0 0.00186855Z" stroke="#A6A6A6" stroke-width="0.859285" stroke-miterlimit="8" fill="#D2EBD9" fill-rule="evenodd" transform="matrix(1 0 0 -1 1652.5 756.5)"/><path d="M0.199923 0.857776 0-0.141896 1.00003 0.428888 0.80011 0.857776 0.199923 0.857776Z" stroke="#A6A6A6" stroke-width="0.859285" stroke-miterlimit="8" fill="#D2EBD9" fill-rule="evenodd" transform="matrix(1 0 0 -1 1648.5 756.5)"/><path d="M0 0 0.400121-0.165634 0.999672 0.667519 0.400121 0.834398 0 0Z" stroke="#A6A6A6" stroke-width="0.859285" stroke-miterlimit="8" fill="#D2EBD9" fill-rule="evenodd" transform="matrix(1 0 0 -1 1649.5 755.5)"/><path d="M0.333344-0.334055 0.333344 0.334055 1.00073 0.66811 0 0.334055 0.333344-0.334055Z" stroke="#A6A6A6" stroke-width="0.859285" stroke-miterlimit="8" fill="#D2EBD9" fill-rule="evenodd" transform="matrix(1 0 0 -1 1650.5 755.5)"/><path d="M1.00073 0.714004 0 0.857019 1.00073-0.144082 1.00073 0.714004Z" stroke="#A6A6A6" stroke-width="0.859285" stroke-miterlimit="8" fill="#D2EBD9" fill-rule="evenodd" transform="matrix(1 0 0 -1 1669.5 753.5)"/><path d="M1.00073 0.831908 0-0.168125 1.00073 0.665028 1.00073 0.831908Z" stroke="#A6A6A6" stroke-width="0.859285" stroke-miterlimit="8" fill="#D2EBD9" fill-rule="evenodd" transform="matrix(1 0 0 -1 1670.5 752.5)"/><path d="M1.00003 0.89739 0.199923 0.89739 0-0.102282 0.600188-0.00298632 1.00003 0.89739Z" stroke="#A6A6A6" stroke-width="0.859285" stroke-miterlimit="8" fill="#D2EBD9" fill-rule="evenodd" transform="matrix(1 0 0 -1 1655.5 748.5)"/><path d="M1.60022 0.498747 0.600188 0.957047 0 0.290599 2.00049-0.0426253 1.60022 0.498747Z" stroke="#A6A6A6" stroke-width="0.859285" stroke-miterlimit="8" fill="#D2EBD9" fill-rule="evenodd" transform="matrix(1 0 0 -1 1667.5 748.5)"/><path d="M1.00037 0.958753 0.333224 0.75864 0-0.0412174 0.333224-0.0412174 1.00037 0.958753Z" stroke="#A6A6A6" stroke-width="0.859285" stroke-miterlimit="8" fill="#D2EBD9" fill-rule="evenodd" transform="matrix(1 0 0 -1 1679.5 748.5)"/><path d="M2.85049 1.37674 2.25015 1.64325 2.55032 3.06546 1.35028 3.10994 1.50021 3.9543 0.60002 3.73226 0.900187 3.37646 0.60002 2.84342 1.20004 3.28784 1.50021 2.79894 1.9503 2.93204 1.9503 2.17662 1.50021 2.2211 1.20004 2.84342 1.05011 2.48762 1.20004 3.02099 0.900187 2.48762 0.149926 2.66552 0.749946 2.0432 0.149926 1.64325 0.749946 1.33226 0 1.06541 0.149926 0.487898 1.05011 0.443423 1.35028-0.0454708 1.80037 0.976792 2.70025 1.02127 2.40039 0.709942 3.00041 0.443423 2.85049 1.37674Z" stroke="#A6A6A6" stroke-width="0.859285" stroke-miterlimit="8" fill="#D2EBD9" fill-rule="evenodd" transform="matrix(1 0 0 -1 1679.5 750.5)"/><path d="M0 0.920388 0-0.0792843 1.00037-0.0022981 0.667148 0.0741136 0 0.920388Z" stroke="#A6A6A6" stroke-width="0.859285" stroke-miterlimit="8" fill="#D2EBD9" fill-rule="evenodd" transform="matrix(1 0 0 -1 1653.5 747.5)"/><path d="M0.666805 0.92072 0.500191 0.92072 0 0.305182 1.00038-0.0798877 0.666805 0.92072Z" stroke="#A6A6A6" stroke-width="0.859285" stroke-miterlimit="8" fill="#D2EBD9" fill-rule="evenodd" transform="matrix(1 0 0 -1 1653.5 746.5)"/><path d="M0.333519 1.87309 0.833273 2.62338 0.666689 2.71721 0.500104 2.76377 0.666689 2.81069 1.00021 2.81069 0.666689 2.95143 0.500104 2.67029 0 1.54504 0 1.35738 0 0.325953 0 0.091729 0-0.0490155 0-0.00210066 0 0.138644 0 0.279388 0 0.795101 0 0.842016 0 0.982411 0.166585 1.07624 0.333519 1.21698 2.00042 1.35738 0.500104 1.35738 0.333519 1.87309Z" stroke="#A6A6A6" stroke-width="0.859285" stroke-miterlimit="8" fill="#D2EBD9" fill-rule="evenodd" transform="matrix(1 0 0 -1 1652.5 745.5)"/><path d="M0.333344 0.690003 0 0.0746881 0.333344-0.0792843 1.00073 0.920962 0.333344 0.690003Z" stroke="#A6A6A6" stroke-width="0.859285" stroke-miterlimit="8" fill="#D2EBD9" fill-rule="evenodd" transform="matrix(1 0 0 -1 1654.5 748.5)"/><path d="M0-0.0150327 0-1.02222 0-0.0150327 0-0.0150327Z" stroke="#A6A6A6" stroke-width="0.859285" stroke-miterlimit="8" fill="none" fill-rule="evenodd" transform="matrix(1 0 0 -1 1650.5 752.5)"/><path d="M0-0.0150327 0-1.02222 0-0.0150327 0-0.0150327Z" stroke="#A6A6A6" stroke-width="0.859285" stroke-miterlimit="8" fill="none" fill-rule="evenodd" transform="matrix(1 0 0 -1 1650.5 752.5)"/><path d="M2.60005 6.41145 1.80013 6.95408 1.80013 6.84587 0 4.24093 0.799918 2.55874 0.799918 2.50444 0.799918 2.55874 0.400169 0.876554 1.59984-0.0457932 2.9998 0.496835 4.00001 0.0628136 4.9998 3.37289 3.80014 3.75261 3.80014 3.6983 2.40017 5.86882 2.60005 5.86882 2.40017 5.86882 2.60005 6.41145Z" stroke="#A6A6A6" stroke-width="0.859285" stroke-miterlimit="8" fill="#D2EBD9" fill-rule="evenodd" transform="matrix(1 0 0 -1 1638.5 793.5)"/><path d="M0 13.4725 0.341612 11.3713 1.36573 10.4162 2.04895 10.1299 3.41468 10.8463 4.09755 8.64952 5.97551 8.21979 6.48775 6.73945 8.02446 7.12139 9.21957 6.4053 8.70733 5.4499 9.21957 4.9246 8.70733 4.25629 9.04894 3.82656 11.6098 4.06514 11.7808 4.9246 12.8049 5.4499 12.2926 3.96956 12.8049 3.49205 12.6342 2.48922 13.4881 2.44179 15.3661 1.00888 15.3661 1.05667 15.3661 1.00888 16.0489-0.0413682 16.7318 0.149425 16.7318 0.101637 16.7318 0.149425 17.7563 0.340574 18.0979 1.82091 18.0979 1.77313 18.0979 1.82091 17.4147 3.30125 18.9514 5.59327 18.9514 5.68884 19.6342 5.21132 19.8052 6.07078 21.0003 6.78724 20.8293 8.26758 20.3171 8.36315 20.3171 8.41058 20.3171 8.36315 19.8052 8.79288 20.3171 9.41376 18.9514 10.5596 17.244 10.6552 16.9024 11.276 17.7563 12.3741 17.4147 12.3741 17.7563 13.2339 17.7563 13.1861 18.0979 14.0934 16.5612 14.5231 16.2196 15.1918 14.6832 14.9528 13.6587 16.8155 13.6587 16.8629 13.6587 16.8155 12.9759 16.099 12.2926 16.2424 12.4636 16.9585 11.4391 16.3376 10.9269 16.8629 10.0734 16.5765 10.244 15.7649 9.56118 15.9079 9.73181 15.0962 9.21957 15.9079 9.04894 15.2873 6.99999 14.4753 5.97551 15.2395 4.78041 14.8572 4.60978 15.9556 0 13.4725Z" stroke="#A6A6A6" stroke-width="0.859285" stroke-miterlimit="8" fill="#D2EBD9" fill-rule="evenodd" transform="matrix(1 0 0 -1 1621.5 792.5)"/><path d="M5.16398 3.92576 8.0902 3.13313 9.46712 4.91672 12.2213 4.81792 14.6311 5.75931 14.4591 4.27285 15.1475 3.97534 15.836 2.53848 27.7132-0.0381141 30.123 2.09258 32.7052 1.89424 33.5657 2.73682 34.5986 2.7864 35.8034 2.3405 35.459 3.62861 37.1804 5.11507 38.3853 5.06548 38.0412 5.31341 38.3853 6.30437 37.8688 6.60152 38.0412 8.43507 39.2461 8.83138 39.4181 9.62401 37.8688 10.615 38.7297 11.3088 39.9346 10.6646 41.4839 10.9125 41.1395 12.2998 42.0003 13.4395 40.279 16.4124 40.9674 18.0972 40.623 19.2865 38.5576 20.2279 37.5248 19.5341 36.1479 19.6828 34.5986 20.7729 32.0164 21.6647 30.9839 21.318 30.9839 21.8135 30.123 21.9619 29.951 19.9799 29.0902 19.9799 28.4017 18.2459 27.1968 18.8402 26.5084 18.0972 24.787 18.4935 24.615 19.3853 23.5821 19.8808 23.5821 18.4439 23.0657 17.7997 21.5164 18.1468 21.5164 16.7099 17.7297 14.4305 19.1066 12.151 18.5902 10.9621 19.6231 10.5162 19.451 9.12852 18.7622 8.98013 17.9017 9.67359 17.9017 10.615 16.3524 10.2682 14.9755 11.1105 14.9755 11.16 14.9755 11.1105 14.6311 10.0699 11.5329 9.9711 9.46712 8.3359 7.91817 8.3359 7.40174 9.47562 5.50839 9.42603 4.99196 9.87193 4.99196 8.18714 3.61468 7.29534 3.78706 8.18714 3.09824 8.03838 2.40978 9.5252 2.40978 9.47562 1.37692 9.92152 0.172024 9.47562 0.860483 8.43507 0 7.24576 0.34441 5.51138 1.89335 5.21424 2.06574 4.37203 3.27063 3.82696 4.81957 5.01589 5.16398 3.92576Z" stroke="#A6A6A6" stroke-width="0.859285" stroke-miterlimit="8" fill="#D2EBD9" fill-rule="evenodd" transform="matrix(1 0 0 -1 1659.5 818.5)"/><path d="M23.8338 8.30573 23.5004 9.37897 22.0002 8.2081 20.8336 8.74472 20.667 9.57387 19.1669 9.86677 18.6668 9.9644 18.8337 11.5739 19.6669 12.7448 19.0003 13.7692 17.167 14.8912 14.6668 15.0861 14.6668 15.6227 13.8336 15.9645 12.8336 14.8424 14.0002 14.5983 14.0002 14.6471 14.0002 14.6471 13.0001 14.1593 8.66663 14.2082 7.49998 12.94 5.33358 13.4278 4.83354 12.3058 5.66671 12.3546 5.33358 11.4278 2.49988 8.9888 2.49988 7.47621 0.833175 6.15926 0.500045 5.13484 0.833175 4.06161 0 2.45176 1.6667 3.28127 1.33322 4.01279 1.83327 4.54941 3.49997 5.03721 4.33349 4.79349 4.33349 2.45176 4.83354 1.76905 4.83354 1.72024 4.83354 1.76905 5.66671 0.793451 6.33332 0.402919 8.3335 1.28125 10.0002 0.695818 11.5003 2.64702 11.1669 3.47617 13.167 4.98839 13.167 3.18364 14.3337 2.15922 15.1669 2.1104 14.8334 1.23244 16.167-0.0360659 16.5001 0.598185 16.0004 1.08599 16.167 1.72024 17.6671 4.01279 17.5002 5.28129 18.5003 5.37893 18.5003 4.35451 19.1669 3.72026 21.3336 4.25687 21.8337 3.13482 22.3337 3.47617 22.1671 4.69586 21.6671 4.84231 21.8337 6.20808 22.6668 6.40334 23.0003 5.76909 23.8338 5.67146 24.0004 6.20808 23.3338 6.79351 23.8338 8.30573Z" stroke="#A6A6A6" stroke-width="0.859285" stroke-miterlimit="8" fill="#D2EBD9" fill-rule="evenodd" transform="matrix(1 0 0 -1 1640.5 822.5)"/><path d="M19.9999 22.9995 18.6555 23.801 18.1513 24.9533 13.4455 24.5526 10.9243 23.1499 10.2521 21.5467 8.73936 20.2439 7.56292 19.793 6.89071 20.3943 5.71427 14.4823 3.69765 11.4262 3.0251 11.326 3.36137 9.92327 2.18493 9.67296 3.86562 8.52057 3.52934 7.91931 4.03358 7.56873 2.85713 7.56873 4.53782 6.51661 3.52934 6.21579 3.0251 7.06774 2.18493 7.21777 2.18493 7.7689 0 7.26791 0.336279 6.3662 2.01697 5.76494 3.0251 6.31607 4.36986 5.56439 5.04206 5.41436 4.8741 6.26593 5.71427 6.56675 6.21851 6.01562 7.22699 6.66665 7.05903 5.91535 7.73123 5.76494 8.40344 6.51661 8.40344 6.56675 8.40344 6.51661 9.41192 4.56241 10.9243 4.8131 11.2606 4.11156 12.7733 3.66071 12.437 2.70886 12.437 2.759 12.1007 1.85729 12.437 1.85729 11.5968 0.704903 11.9328 0.0535038 13.6135-0.046769 13.9497 1.40606 13.6135 2.00733 12.9413 1.90705 12.7733 2.60859 13.4455 2.55845 14.454 3.61057 13.9497 4.31211 14.7899 6.3662 13.2775 8.87115 13.2775 9.72272 14.454 9.92327 14.454 9.87313 14.2857 10.4243 15.4621 9.72272 17.647 10.5245 17.9833 11.2261 17.3111 11.9272 19.1598 13.4803 19.3277 14.733 18.8235 15.5344 17.3111 15.7851 17.647 16.5364 17.3111 17.0875 19.1598 17.1878 19.3277 19.1918 19.9999 20.3943 19.9999 22.9995Z" stroke="#A6A6A6" stroke-width="0.859285" stroke-miterlimit="8" fill="#D2EBD9" fill-rule="evenodd" transform="matrix(1 0 0 -1 1626.5 782.5)"/><path d="M0 1.54352 0.185063 0.36424 1.48128 0.774441 2.59243-0.0463439 4.81474 0.825764 4.9998 1.4922 3.70359 1.90278 2.7775 1.23597 1.11115 1.9541 0 1.54352Z" stroke="#A6A6A6" stroke-width="0.859285" stroke-miterlimit="8" fill="#D2EBD9" fill-rule="evenodd" transform="matrix(1 0 0 -1 1625.5 778.5)"/><path d="M1.69221 0.503921 1.23064 0.958605 0 0.822438 1.53846-0.0414275 2.00003 0.0947399 1.69221 0.503921Z" stroke="#A6A6A6" stroke-width="0.859285" stroke-miterlimit="8" fill="#D2EBD9" fill-rule="evenodd" transform="matrix(1 0 0 -1 1627.5 774.5)"/><path d="M1.00038 1.14472 0.833419 1.94501 0 0.00170727 0.500191-0.0554862 1.00038 1.14472Z" stroke="#A6A6A6" stroke-width="0.859285" stroke-miterlimit="8" fill="#D2EBD9" fill-rule="evenodd" transform="matrix(1 0 0 -1 1633.5 762.5)"/><path d="M0 0.053854 0.124938-0.0514954 1.00003 0.948537 0.500016 0.738232 0 0.053854Z" stroke="#A6A6A6" stroke-width="0.859285" stroke-miterlimit="8" fill="#D2EBD9" fill-rule="evenodd" transform="matrix(1 0 0 -1 1634.5 760.5)"/><path d="M1.84629 0.685164 0.461815 0.474858 0-0.0514954 3.00058 0.948537 1.84629 0.685164Z" stroke="#A6A6A6" stroke-width="0.859285" stroke-miterlimit="8" fill="#D2EBD9" fill-rule="evenodd" transform="matrix(1 0 0 -1 1635.5 758.5)"/><path d="M0.363756 0.603688 0-0.197245 1.9997 0.203222 1.63633 0.803922 0.363756 0.603688Z" stroke="#A6A6A6" stroke-width="0.859285" stroke-miterlimit="8" fill="#D2EBD9" fill-rule="evenodd" transform="matrix(1 0 0 -1 1638.5 758.5)"/><path d="M0.428628 0.901123 0 0.401661 0-0.0985487 1.00003 0.801081 0.428628 0.901123Z" stroke="#A6A6A6" stroke-width="0.859285" stroke-miterlimit="8" fill="#D2EBD9" fill-rule="evenodd" transform="matrix(1 0 0 -1 1641.5 758.5)"/><path d="M0 0.753296 0 0.252345 1.00108-0.246737 0.500016 0.753296 0 0.753296Z" stroke="#A6A6A6" stroke-width="0.859285" stroke-miterlimit="8" fill="#D2EBD9" fill-rule="evenodd" transform="matrix(1 0 0 -1 1642.5 757.5)"/><path d="M0.333224 0.978692 0 0.0358526 1.00037-0.0213409 0.333224 0.978692Z" stroke="#A6A6A6" stroke-width="0.859285" stroke-miterlimit="8" fill="#D2EBD9" fill-rule="evenodd" transform="matrix(1 0 0 -1 1659.5 812.5)"/><path d="M1.00108 0.790264 0-0.211901 1.00108 0.790264 1.00108 0.790264Z" stroke="#A6A6A6" stroke-width="0.859285" stroke-miterlimit="8" fill="#D2EBD9" fill-rule="evenodd" transform="matrix(1 0 0 -1 1647.5 839.5)"/></g></svg>