<svg xmlns="http://www.w3.org/2000/svg" xmlns:xlink="http://www.w3.org/1999/xlink" width="360.6941006239503" height="500.0" viewBox="0.0 0.0 360.6941006239503 500.0" preserveAspectRatio="xMinYMin meet"><g transform="matrix(1,0,0,-1,0,500.0)"><g><g><g><path fill-rule="evenodd" fill="#D2EBD9" stroke="#A6A6A6" stroke-width="0.25" opacity="1" d="M 287.64624046158417,116.76167616761676 L 286.27546580174715,116.66166616661666 L 285.6622245065569,115.6115611561156 L 284.2914498467199,114.71147114711471 L 284.65218002036124,113.8113811381138 L 284.9768371766384,113.8113811381138 L 285.0850562287308,114.011401140114 L 285.5179324371004,113.8113811381138 L 285.73437054128516,114.56145614561456 L 286.0590276975624,114.86148614861486 L 286.38368485383955,114.36143614361436 L 286.34761183647544,114.011401140114 L 285.8786626107417,113.8113811381138 L 286.31153881911126,112.76127612761276 L 286.6722689927526,112.56125612561256 L 286.780488044845,113.6113611361136 L 287.06907218375807,113.9113911391139 L 287.46587537476347,113.8113811381138 L 287.86267856576893,114.46144614461446 L 287.5740944268559,114.96149614961496 L 288.07911666995375,115.26152615261526 L 288.6202119304157,114.6114611461146 L 288.8366500346005,114.96149614961496 L 288.8366500346005,115.9115911591159 L 288.07911666995375,116.6116611661166 L 287.64624046158417,116.76167616761676 z" /><path fill-rule="evenodd" fill="#D2EBD9" stroke="#A6A6A6" stroke-width="0.25" opacity="1" d="M 267.4092777203064,109.1109110911091 L 267.8060809113119,109.1109110911091 L 268.09466505022493,109.36093609360935 L 268.2028841023173,109.7109710971097 L 267.9864459981325,110.11101110111011 L 267.55356978976295,110.26102610261026 L 267.1928396161216,110.06100610061006 L 267.12069358139337,109.6109610961096 L 267.4092777203064,109.1109110911091 z" /></g><g><path fill-rule="evenodd" fill="#D2EBD9" stroke="#A6A6A6" stroke-width="0.25" opacity="1" d="M 333.78362967030824,270.82708270827084 L 332.37678199310716,265.6265626562656 L 333.0621693230256,265.6265626562656 L 334.32472493077023,265.57655765576555 L 335.37084243433003,265.57655765576555 L 335.7676456253355,267.87678767876787 L 337.9320266671834,267.97679767976797 L 335.6594265732431,270.42704270427043 L 335.04618527805286,270.72707270727074 L 333.78362967030824,270.82708270827084 z" /><path fill-rule="evenodd" fill="#D2EBD9" stroke="#A6A6A6" stroke-width="0.25" opacity="1" d="M 349.7639763626185,260.42604260426043 L 349.83612239734674,258.8258825882588 L 350.449363692537,258.67586758675867 L 350.41329067517285,260.2760276027603 L 349.7639763626185,260.42604260426043 z" /><path fill-rule="evenodd" fill="#D2EBD9" stroke="#A6A6A6" stroke-width="0.25" opacity="1" d="M 348.6096398069663,254.72547254725472 L 348.79000489378694,256.47564756475646 L 348.10461756386843,256.5256525652565 L 347.9963985117761,254.67546754675467 L 348.6096398069663,254.72547254725472 z" /></g><path fill-rule="evenodd" fill="#D2EBD9" stroke="#A6A6A6" stroke-width="0.25" opacity="1" d="M 325.8475658501994,269.0769076907691 L 326.06400395438413,266.77667766776676 L 327.6151437010418,265.77657765776576 L 332.37678199310716,265.6265626562656 L 333.78362967030824,270.82708270827084 L 331.8717597500093,270.2770277027703 L 328.98591836087877,270.22702270227023 L 327.86765482259074,269.6769676967697 L 326.53295318011783,269.4769476947695 L 325.8475658501994,269.0769076907691 z" /><path fill-rule="evenodd" fill="#D2EBD9" stroke="#A6A6A6" stroke-width="0.25" opacity="1" d="M 323.97176894726454,266.27662766276626 L 325.3425436071015,267.2267226722672 L 326.06400395438413,266.77667766776676 L 325.8475658501994,269.0769076907691 L 324.2242800688134,269.026902690269 L 323.1420895478895,269.4269426942694 L 322.16811807905793,269.4269426942694 L 321.69916885332424,269.1269126912691 L 321.8795339401449,268.4768476847685 L 322.31241014851446,267.77677767776777 L 322.63706730479163,267.37673767376737 L 323.35852765207426,267.27672767276727 L 323.53889273889496,266.67666766676666 L 323.97176894726454,266.27662766276626 z" /><g><path fill-rule="evenodd" fill="#D2EBD9" stroke="#A6A6A6" stroke-width="0.25" opacity="1" d="M 326.71331826693853,263.97639763976395 L 327.6151437010418,265.77657765776576 L 326.06400395438413,266.77667766776676 L 325.3425436071015,267.2267226722672 L 323.97176894726454,266.27662766276626 L 325.01788645082434,265.7265726572657 L 326.02793093702,264.3264326432643 L 326.71331826693853,263.97639763976395 z" /><path fill-rule="evenodd" fill="#D2EBD9" stroke="#A6A6A6" stroke-width="0.25" opacity="1" d="M 335.15440433014527,261.62616261626164 L 334.32472493077023,265.57655765576555 L 333.0621693230256,265.6265626562656 L 334.10828682658547,261.2761276127613 L 335.15440433014527,261.62616261626164 z" /></g><g><path fill-rule="evenodd" fill="#D2EBD9" stroke="#A6A6A6" stroke-width="0.25" opacity="1" d="M 334.10828682658547,261.2761276127613 L 333.0621693230256,265.6265626562656 L 332.37678199310716,265.6265626562656 L 327.6151437010418,265.77657765776576 L 326.71331826693853,263.97639763976395 L 327.0740484405798,263.7263726372637 L 327.7233627531342,261.8761876187619 L 329.2023564650636,260.62606260626063 L 334.10828682658547,261.2761276127613 z" /><path fill-rule="evenodd" fill="#D2EBD9" stroke="#A6A6A6" stroke-width="0.25" opacity="1" d="M 338.22061080609643,260.72607260726073 L 337.5712964935421,261.62616261626164 L 337.0302012330801,262.07620762076203 L 335.37084243433003,265.57655765576555 L 334.32472493077023,265.57655765576555 L 335.15440433014527,261.62616261626164 L 335.7676456253355,261.6761676167617 L 337.0302012330801,260.6760676067607 L 338.22061080609643,260.72607260726073 z" /></g><path fill-rule="evenodd" fill="#D2EBD9" stroke="#A6A6A6" stroke-width="0.25" opacity="1" d="M 337.9320266671834,267.97679767976797 L 335.7676456253355,267.87678767876787 L 335.37084243433003,265.57655765576555 L 337.0302012330801,262.07620762076203 L 337.5712964935421,261.62616261626164 L 338.22061080609643,260.72607260726073 L 338.25668382346055,262.4262426242624 L 339.1585092575639,263.67636763676364 L 339.3028013270204,264.37643764376435 L 338.8699251186508,265.07650765076505 L 338.5452679623736,266.97669766976696 L 337.9320266671834,267.37673767376737 L 337.9320266671834,267.97679767976797 z" /><g><path fill-rule="evenodd" fill="#D2EBD9" stroke="#A6A6A6" stroke-width="0.25" opacity="1" d="M 88.91998780258402,416.29162916291625 L 89.67752116723078,416.89168916891686 L 89.17249892413294,418.6418641864186 L 89.10035288940468,417.59175917591756 L 89.28071797622533,416.9416941694169 L 88.91998780258402,416.29162916291625 z" /><path fill-rule="evenodd" fill="#D2EBD9" stroke="#A6A6A6" stroke-width="0.25" opacity="1" d="M 65.40038048117032,430.0930093009301 L 65.68896462008337,431.3931393139314 L 65.25608841171379,430.4930493049305 L 65.18394237698553,430.1430143014301 L 65.40038048117032,430.0930093009301 z" /><path fill-rule="evenodd" fill="#D2EBD9" stroke="#A6A6A6" stroke-width="0.25" opacity="1" d="M 29.796312342772573,455.6455645564556 L 29.796312342772573,455.69556955695566 L 29.72416630804431,455.89558955895586 L 29.796312342772573,455.5455545554555 L 29.796312342772573,455.6455645564556 z" /><path fill-rule="evenodd" fill="#D2EBD9" stroke="#A6A6A6" stroke-width="0.25" opacity="1" d="M 5.48309863934798,481.79817981798175 L 5.7356097608969,481.99819981998195 L 5.7356097608969,482.19821982198215 L 5.627390708804506,482.1482148214821 L 5.48309863934798,481.79817981798175 z" /><path fill-rule="evenodd" fill="#D2EBD9" stroke="#A6A6A6" stroke-width="0.25" opacity="1" d="M 35.351557016848815,487.04870487048703 L 35.71228719049013,487.24872487248723 L 35.135118912664026,487.44874487448743 L 35.20726494739229,487.24872487248723 L 35.351557016848815,487.04870487048703 z" /><path fill-rule="evenodd" fill="#D2EBD9" stroke="#A6A6A6" stroke-width="0.25" opacity="1" d="M 0.28858413891305157,499.54995499549955 L 0.6853873299184975,499.14991499149914 L 0.43287620836957735,499.6999699969997 L 0.14429206945652578,500.0 L 0.0,499.94999499949995 L 0.28858413891305157,499.54995499549955 z" /><path fill-rule="evenodd" fill="#D2EBD9" stroke="#A6A6A6" stroke-width="0.25" opacity="1" d="M 109.6619727869596,391.08910891089107 L 109.4455346827748,391.4891489148915 L 109.62589976959546,390.48904890489047 L 109.6619727869596,390.5390539053905 L 109.6619727869596,391.08910891089107 z" /><path fill-rule="evenodd" fill="#D2EBD9" stroke="#A6A6A6" stroke-width="0.25" opacity="1" d="M 108.54370924867152,392.73927392739273 L 108.65192830076391,392.53925392539253 L 108.79622037022044,392.1892189218922 L 108.68800131812804,392.63926392639263 L 108.54370924867152,392.73927392739273 z" /><path fill-rule="evenodd" fill="#D2EBD9" stroke="#A6A6A6" stroke-width="0.25" opacity="1" d="M 74.16612370065425,447.044704470447 L 74.41863482220317,446.8446844684468 L 74.41863482220317,447.49474947494747 L 73.66110145755641,448.1448144814481 L 73.73324749228468,447.8447844784478 L 74.16612370065425,447.044704470447 z" /></g><path fill-rule="evenodd" fill="#D2EBD9" stroke="#A6A6A6" stroke-width="0.25" opacity="1" d="M 259.87001709120295,32.703270327032705 L 259.76179803911054,32.95329532953295 L 258.787826570279,31.203120312031203 L 258.2106582924529,30.95309530953095 L 258.06636622299635,30.15301530153015 L 258.24673130981705,29.852985298529852 L 257.8499281188116,29.6029602960296 L 257.8499281188116,29.402940294029403 L 259.0403376918279,28.4028402840284 L 259.2567757960127,27.9027902790279 L 259.68965200438225,27.652765276527653 L 259.87001709120295,27.95279527952795 L 260.0503821780236,31.55315531553155 L 259.87001709120295,32.703270327032705 z" /><g><path fill-rule="evenodd" fill="#D2EBD9" stroke="#A6A6A6" stroke-width="0.25" opacity="1" d="M 255.4691089727789,37.95379537953795 L 254.74764862549628,37.95379537953795 L 254.06226129557777,37.7037703770377 L 253.66545810457234,37.303730373037304 L 253.30472793093102,36.55365536553655 L 252.87185172256144,36.45364536453645 L 251.7896612016375,36.85368536853685 L 250.8878357675342,36.4036403640364 L 250.59925162862115,36.55365536553655 L 250.45495955916462,36.85368536853685 L 251.104273871719,37.403740374037405 L 251.03212783699072,37.75377537753775 L 250.4188865418005,38.25382538253825 L 248.21843248258847,38.003800380038 L 247.49697213530584,38.603860386038605 L 247.6773372221265,39.003900390039 L 248.50701662150152,39.853985398539855 L 247.74948325685477,39.55395539553955 L 247.06409592693626,39.003900390039 L 246.81158480538735,38.25382538253825 L 247.2083879963928,37.403740374037405 L 247.92984834367542,36.4036403640364 L 249.69742619451787,35.55355535553555 L 249.91386429870266,35.8035803580358 L 251.28463895853966,35.103510351035105 L 251.6814421495451,34.75347534753475 L 252.15039137527882,33.853385338533855 L 252.43897551419187,33.6033603360336 L 253.0522168093821,33.45334533453345 L 253.9540422434854,33.803380338033804 L 254.06226129557777,34.2034203420342 L 253.88189620875713,35.2035203520352 L 253.9901152608495,35.45354535453545 L 255.86591216378434,36.95369536953695 L 255.9019851811485,37.453745374537455 L 255.4691089727789,37.95379537953795 z" /><path fill-rule="evenodd" fill="#D2EBD9" stroke="#A6A6A6" stroke-width="0.25" opacity="1" d="M 222.17371394568556,0.45004500450045004 L 222.02942187622904,0.3000300030003 L 222.28193299777797,0.0 L 222.6426631714193,0.2000200020002 L 222.46229808459861,0.35003500350035 L 222.17371394568556,0.45004500450045004 z" /></g><g><path fill-rule="evenodd" fill="#D2EBD9" stroke="#A6A6A6" stroke-width="0.25" opacity="1" d="M 275.92250981824145,78.85788578857886 L 276.31931300924686,78.35783578357835 L 277.1129193912578,78.3078307830783 L 277.50972258226324,79.9079907990799 L 276.93255430443713,80.15801580158015 L 276.6078971481599,79.30793079307931 L 275.92250981824145,78.85788578857886 z" /><path fill-rule="evenodd" fill="#D2EBD9" stroke="#A6A6A6" stroke-width="0.25" opacity="1" d="M 255.3608899206865,81.60816081608161 L 254.74764862549628,81.60816081608161 L 254.45906448658323,80.75807580758075 L 254.85586767758866,79.30793079307931 L 255.4691089727789,78.85788578857886 L 255.64947405959956,79.1079107910791 L 255.64947405959956,78.85788578857886 L 256.01020423324087,79.50795079507951 L 256.046277250605,80.4080408040804 L 255.82983914642023,81.25812581258126 L 255.3608899206865,81.60816081608161 z" /><path fill-rule="evenodd" fill="#D2EBD9" stroke="#A6A6A6" stroke-width="0.25" opacity="1" d="M 277.50972258226324,80.95809580958095 L 277.6179416343556,80.65806580658065 L 278.05081784272517,80.45804580458045 L 278.5197670684589,80.45804580458045 L 278.9887162941926,81.60816081608161 L 279.06086232892085,82.00820082008201 L 278.9165702594643,82.45824582458245 L 278.01474482536105,81.25812581258126 L 277.50972258226324,80.95809580958095 z" /><path fill-rule="evenodd" fill="#D2EBD9" stroke="#A6A6A6" stroke-width="0.25" opacity="1" d="M 278.80835120737197,84.10841084108411 L 278.62798612055127,84.25842584258426 L 278.3394019816382,85.2085208520852 L 277.8704527559045,85.3085308530853 L 278.4115480163665,83.95839583958396 L 278.7362051726437,83.5083508350835 L 279.16908138101326,83.4083408340834 L 279.3133734504698,83.65836583658366 L 279.2051543983774,83.95839583958396 L 278.80835120737197,84.10841084108411 z" /></g><g><path fill-rule="evenodd" fill="#D2EBD9" stroke="#A6A6A6" stroke-width="0.25" opacity="1" d="M 239.0558860720991,208.020802080208 L 238.11798762063168,207.8207820782078 L 237.5768923601697,207.3207320732073 L 237.4686733080773,206.72067206720672 L 237.97369555117515,206.17061706170617 L 238.8394479679143,206.07060706070607 L 239.45268926310453,206.77067706770677 L 239.59698133256106,207.6207620762076 L 239.0558860720991,208.020802080208 z" /><path fill-rule="evenodd" fill="#D2EBD9" stroke="#A6A6A6" stroke-width="0.25" opacity="1" d="M 294.10331056976366,196.56965696569657 L 293.2014851356604,196.019601960196 L 293.4179232398452,195.46954695469546 L 293.8868724655789,195.46954695469546 L 294.3197486739485,195.86958695869586 L 294.60833281286153,196.36963696369637 L 294.64440583022565,196.81968196819682 L 294.10331056976366,196.56965696569657 z" /></g><path fill-rule="evenodd" fill="#D2EBD9" stroke="#A6A6A6" stroke-width="0.25" opacity="1" d="M 356.9425068180807,257.87578757875787 L 356.3292655228904,257.5257525752575 L 356.00460836661324,257.57575757575756 L 356.4014115576187,258.27582758275827 L 355.7881702624285,258.5258525852585 L 354.52561465468386,258.6258625862586 L 354.0927384463143,256.87568756875686 L 354.4534686199556,253.47534753475347 L 354.95849086305344,253.42534253425342 L 355.42744008878714,253.67536753675367 L 356.00460836661324,253.37533753375337 L 356.58177664443934,253.32533253325332 L 357.8082592348198,253.42534253425342 L 360.62195458922207,253.27532753275327 L 360.40551648503725,253.67536753675367 L 360.6941006239503,254.62546254625462 L 359.79227518984703,255.7255725572557 L 359.32332596411334,255.025502550255 L 358.3493544952818,255.5255525552555 L 357.19501793962957,255.3255325532553 L 356.22104647079806,255.7255725572557 L 356.4014115576187,256.97569756975696 L 357.15894492226545,257.025702570257 L 357.2310909569937,257.3257325732573 L 356.9425068180807,257.87578757875787 z" /><g><path fill-rule="evenodd" fill="#D2EBD9" stroke="#A6A6A6" stroke-width="0.25" opacity="1" d="M 356.4014115576187,258.27582758275827 L 356.00460836661324,257.57575757575756 L 356.3292655228904,257.5257525752575 L 356.9425068180807,257.87578757875787 L 356.4014115576187,258.27582758275827 z" /><path fill-rule="evenodd" fill="#D2EBD9" stroke="#A6A6A6" stroke-width="0.25" opacity="1" d="M 357.15894492226545,257.025702570257 L 356.4014115576187,256.97569756975696 L 356.22104647079806,255.7255725572557 L 357.19501793962957,255.3255325532553 L 358.3493544952818,255.5255525552555 L 359.32332596411334,255.025502550255 L 359.79227518984703,255.7255725572557 L 358.31328147791766,256.47564756475646 L 357.0146528528089,256.3256325632563 L 356.8703607833524,256.67566756675666 L 357.15894492226545,257.025702570257 z" /></g><path fill-rule="evenodd" fill="#D2EBD9" stroke="#A6A6A6" stroke-width="0.25" opacity="1" d="M 350.41329067517285,260.2760276027603 L 350.449363692537,258.67586758675867 L 349.83612239734674,258.8258825882588 L 349.7639763626185,260.42604260426043 L 348.5014207548739,260.5760576057606 L 348.6457128243304,258.57585758575857 L 348.89822394587935,257.57575757575756 L 348.79000489378694,256.47564756475646 L 348.6096398069663,254.72547254725472 L 349.0785890327,254.72547254725472 L 350.9183129182707,254.02540254025402 L 351.279043091912,253.32533253325332 L 351.8562113697381,253.27532753275327 L 353.5516431858523,253.67536753675367 L 354.4534686199556,253.47534753475347 L 354.0927384463143,256.87568756875686 L 354.52561465468386,258.6258625862586 L 350.41329067517285,260.2760276027603 z" /><g><path fill-rule="evenodd" fill="#D2EBD9" stroke="#A6A6A6" stroke-width="0.25" opacity="1" d="M 344.6055348795477,259.9259925992599 L 345.1827031573738,258.57585758575857 L 343.1986872023466,257.3257325732573 L 343.84800151490094,257.27572757275726 L 344.7137539316401,256.3256325632563 L 345.1827031573738,256.4256425642564 L 346.08452859147707,255.07550755075505 L 346.51740479984664,254.77547754775478 L 347.4913762686782,254.57545754575457 L 347.9963985117761,254.67546754675467 L 348.10461756386843,256.5256525652565 L 348.79000489378694,256.47564756475646 L 348.89822394587935,257.57575757575756 L 348.6457128243304,258.57585758575857 L 348.5014207548739,260.5760576057606 L 347.85210644231955,260.62606260626063 L 345.3991412615586,260.22602260226023 L 344.6055348795477,259.9259925992599 z" /><path fill-rule="evenodd" fill="#D2EBD9" stroke="#A6A6A6" stroke-width="0.25" opacity="1" d="M 342.765810993977,258.9258925892589 L 343.4511983238955,258.67586758675867 L 343.84800151490094,258.87588758875887 L 343.5594173759879,259.5759575957596 L 343.1265411676183,259.3759375937594 L 342.765810993977,258.9258925892589 z" /></g><path fill-rule="evenodd" fill="#D2EBD9" stroke="#A6A6A6" stroke-width="0.25" opacity="1" d="M 343.5594173759879,259.5759575957596 L 343.84800151490094,258.87588758875887 L 343.4511983238955,258.67586758675867 L 342.765810993977,258.9258925892589 L 342.5493728897922,258.2258225822582 L 342.6215189245205,257.6257625762576 L 343.1986872023466,257.3257325732573 L 345.1827031573738,258.57585758575857 L 344.6055348795477,259.9259925992599 L 343.5594173759879,259.5759575957596 z" /></g></g></g></svg>